<?xml version="1.0" encoding="UTF-8"?>
<!-- Created with Inkscape (http://www.inkscape.org/) -->
<svg id="svg1" width="512" height="512" version="1.1" viewBox="0 0 512 512" xmlns="http://www.w3.org/2000/svg">
 <g id="layer1">
  <path id="rect1-6" d="m161.83 96c-17.728 0-32 14.272-32 32v192l-64 112 96-16h256c17.728 0 32-14.272 32-32v-256c0-17.728-14.272-32-32-32z" fill="none" stroke="#fff" stroke-width="32"/>
  <path id="rect1" d="m161.34 96c-17.728 0-32 14.272-32 32v192l-64 112 96-16h256c17.728 0 32-14.272 32-32v-256c0-17.728-14.272-32-32-32z" fill="#134f95" stroke="#23415c" stroke-width="8"/>
  <text id="text1" x="195.29401" y="350.33594" fill="#134f95" font-size="256px" stroke-width="0" xml:space="preserve"><tspan id="tspan1" x="195.29401" y="350.33594" fill="#ffffff" font-family="'Noto Sans JP'" font-size="256px" font-weight="bold" stroke-width="0">D</tspan></text>
 </g>
</svg>
