<svg class="poloto" width="800" height="680" viewBox="0 0 800 680" xmlns="http://www.w3.org/2000/svg">
	<style>
.poloto{
  stroke-linecap:round;
  stroke-linejoin:round;
  font-family:Roboto,sans-serif;
  font-size:16px;
}
.poloto_background{fill:AliceBlue;}
.poloto_scatter{stroke-width:7}
.poloto_line{stroke-width:2}
.poloto_text{fill: black;}
.poloto_name{font-size:24px;dominant-baseline:auto;text-anchor:middle;}
.poloto_where{dominant-baseline:middle;text-anchor:start}
.poloto_text.poloto_legend{font-size:20px;dominant-baseline:middle;text-anchor:start;}
.poloto_text.poloto_ticks.poloto_y{dominant-baseline:middle;text-anchor:end}
.poloto_text.poloto_ticks.poloto_x{dominant-baseline:auto;text-anchor:middle}
.poloto_imgs.poloto_ticks{stroke: black;stroke-width:3;fill:none;stroke-dasharray:none}
.poloto_grid{stroke:gray;stroke-width:0.5}

.poloto0.poloto_stroke{stroke:blue;}
.poloto1.poloto_stroke{stroke:red;}
.poloto2.poloto_stroke{stroke:green;}
.poloto3.poloto_stroke{stroke:gold;}
.poloto4.poloto_stroke{stroke:aqua;}
.poloto5.poloto_stroke{stroke:lime;}
.poloto6.poloto_stroke{stroke:orange;}
.poloto7.poloto_stroke{stroke:chocolate;}
.poloto0.poloto_fill{fill:blue;}
.poloto1.poloto_fill{fill:red;}
.poloto2.poloto_fill{fill:green;}
.poloto3.poloto_fill{fill:gold;}
.poloto4.poloto_fill{fill:aqua;}
.poloto5.poloto_fill{fill:lime;}
.poloto6.poloto_fill{fill:orange;}
.poloto7.poloto_fill{fill:chocolate;}
	</style>
	<circle r="1e5" class="poloto_background" fill="white"/>
	<g id="poloto_plot0" class="poloto_plot poloto_imgs poloto_line poloto0 poloto_stroke" fill="none" stroke="black">
		<path d=" M 150.00 368.34 L 150.03 368.32 L 150.05 368.30 L 150.06 368.30 L 150.08 368.30 L 150.12 364.87 L 150.25 364.45 L 150.54 364.43 L 150.98 364.15 L 151.20 362.40 L 151.65 362.30 L 151.72 362.20 L 151.78 362.17 L 152.30 361.31 L 153.28 360.62 L 153.58 357.92 L 153.66 357.93 L 154.25 357.82 L 154.93 357.81 L 154.93 357.81 L 154.94 357.81 L 164.09 357.81 L 164.15 357.80 L 164.27 357.78 L 164.32 357.75 L 164.67 357.59 L 164.83 357.55 L 165.21 357.30 L 165.27 357.19 L 165.38 356.95 L 165.50 356.91 L 165.53 356.91 L 165.63 356.85 L 165.73 356.85 L 165.82 356.85 L 166.08 356.45 L 166.30 356.20 L 166.35 356.20 L 166.45 356.06 L 167.18 356.67 L 167.20 356.67 L 167.29 356.57 L 167.70 356.11 L 168.04 355.56 L 168.41 355.32 L 168.49 355.27 L 168.50 355.27 L 168.57 355.06 L 168.72 355.06 L 168.90 354.98 L 169.26 354.78 L 169.28 354.45 L 169.34 354.45 L 169.43 354.29 L 169.64 354.29 L 169.66 354.29 L 169.87 353.83 L 169.96 353.80 L 170.03 353.76 L 170.12 353.58 L 171.23 353.33 L 171.50 353.28 L 172.12 352.95 L 172.25 352.95 L 172.35 352.94 L 172.40 352.71 L 172.83 351.34 L 173.02 351.31 L 173.24 350.86 L 173.35 350.82 L 173.61 350.44 L 173.72 350.30 L 173.87 350.06 L 174.01 349.84 L 174.51 346.70 L 174.52 346.62 L 174.54 346.44 L 174.71 344.93 L 183.20 344.81 L 184.08 343.09 L 184.11 343.05 L 185.15 342.78 L 185.23 342.78 L 185.33 342.44 L 185.58 342.26 L 185.70 341.97 L 185.74 341.71 L 185.87 341.26 L 186.18 341.25 L 186.19 340.95 L 186.30 340.61 L 186.42 340.61 L 186.55 340.23 L 186.71 339.96 L 186.78 339.82 L 186.80 339.82 L 186.95 339.52 L 186.97 339.51 L 187.13 339.22 L 187.16 339.21 L 187.40 337.79 L 187.44 337.79 L 187.53 337.55 L 187.63 337.54 L 187.77 337.54 L 187.83 337.51 L 188.31 337.25 L 188.32 337.25 L 188.41 336.62 L 188.62 336.61 L 188.81 335.66 L 188.87 335.58 L 188.96 335.57 L 189.00 335.53 L 189.11 334.80 L 189.64 328.64 L 189.70 328.34 L 189.88 328.31 L 189.94 328.24 L 189.98 328.22 L 190.07 328.06 L 190.15 327.36 L 190.34 327.21 L 190.47 327.20 L 190.58 326.89 L 190.64 326.88 L 191.12 326.65 L 191.38 326.48 L 191.46 326.20 L 191.68 326.19 L 191.70 326.19 L 191.72 326.16 L 191.86 324.68 L 191.97 324.59 L 192.37 323.10 L 192.43 322.66 L 192.51 322.65 L 192.61 322.49 L 192.62 322.38 L 192.67 322.30 L 192.71 322.27 L 192.76 322.26 L 192.81 322.18 L 192.97 320.96 L 193.08 320.78 L 193.20 320.42 L 193.35 320.40 L 193.52 320.28 L 193.69 319.42 L 193.81 318.22 L 194.06 318.15 L 194.06 317.70 L 194.21 317.56 L 206.06 317.56 L 206.28 317.55 L 206.84 316.91 L 206.96 316.90 L 207.05 316.90 L 207.07 316.74 L 207.27 316.54 L 207.41 316.51 L 207.49 316.39 L 207.57 316.31 L 207.62 316.26 L 207.84 316.21 L 208.26 316.13 L 208.37 315.80 L 208.45 315.72 L 208.55 315.71 L 209.10 315.55 L 209.18 315.45 L 209.22 315.45 L 209.25 315.33 L 209.37 315.27 L 209.47 315.15 L 209.86 314.35 L 210.44 314.22 L 210.64 314.17 L 211.28 313.97 L 211.58 310.09 L 211.68 310.01 L 211.81 309.63 L 212.00 309.12 L 212.29 308.98 L 212.69 308.96 L 213.23 308.95 L 213.31 308.78 L 213.70 308.60 L 213.95 308.32 L 214.03 308.21 L 214.19 308.16 L 214.30 307.82 L 215.70 307.44 L 217.04 307.44 L 228.97 307.40 L 229.05 307.23 L 229.11 307.13 L 229.48 306.96 L 230.60 305.62 L 230.65 305.53 L 230.80 305.19 L 231.35 305.10 L 231.61 304.20 L 232.00 304.19 L 232.10 304.18 L 232.18 303.56 L 232.87 300.03 L 232.96 300.03 L 233.10 300.00 L 233.26 299.95 L 233.33 299.57 L 233.71 298.24 L 233.85 297.99 L 233.92 297.98 L 234.00 297.36 L 234.18 296.50 L 234.24 295.58 L 234.42 295.17 L 234.94 290.59 L 234.98 290.12 L 235.03 290.12 L 235.11 290.04 L 235.24 289.92 L 235.29 289.88 L 235.34 289.83 L 235.59 288.73 L 235.65 287.96 L 235.95 287.80 L 236.13 286.65 L 236.24 285.92 L 237.17 275.24 L 237.28 275.21 L 272.33 274.70 L 272.36 274.70 L 285.75 274.55 L 286.48 274.26 L 286.63 274.26 L 286.83 274.18 L 286.89 274.04 L 286.97 274.01 L 292.78 273.93 L 293.55 271.90 L 293.83 271.72 L 293.99 270.97 L 297.60 270.82 L 297.63 270.61 L 297.85 270.59 L 298.93 269.31 L 299.00 269.08 L 299.13 269.00 L 299.51 268.91 L 299.56 268.88 L 299.71 268.49 L 299.88 268.39 L 299.90 268.10 L 311.16 267.71 L 311.24 266.61 L 311.69 266.37 L 311.70 264.54 L 311.78 264.27 L 311.87 263.82 L 312.00 262.55 L 312.19 261.88 L 312.35 261.10 L 312.49 261.09 L 312.55 260.49 L 312.78 260.44 L 313.56 257.49 L 313.87 257.17 L 313.92 256.99 L 313.99 256.98 L 314.03 256.78 L 314.14 256.05 L 314.46 255.70 L 314.50 255.66 L 314.70 253.06 L 314.77 253.05 L 314.80 252.77 L 314.87 252.56 L 314.92 252.56 L 314.96 252.17 L 315.21 250.76 L 315.32 250.36 L 315.46 250.31 L 315.55 246.56 L 315.59 246.25 L 315.84 244.11 L 315.91 243.94 L 315.95 243.94 L 316.02 243.93 L 316.05 243.63 L 316.09 243.64 L 316.10 243.63 L 316.23 239.84 L 316.27 239.51 L 316.39 239.49 L 316.48 239.43 L 316.73 239.32 L 317.04 239.17 L 317.06 239.17 L 317.14 239.13 L 317.43 239.06 L 317.57 239.06 L 317.70 239.06 L 317.85 237.40 L 317.94 237.01 L 318.34 237.00 L 318.38 236.74 L 318.43 236.74 L 318.46 236.46 L 318.72 234.06 L 318.76 234.01 L 318.96 233.99 L 336.28 233.92 L 337.26 233.80 L 337.29 233.80 L 337.49 233.80 L 337.50 233.80 L 337.63 233.32 L 337.73 233.30 L 337.81 233.07 L 337.93 233.01 L 337.97 232.98 L 338.01 232.96 L 338.19 232.69 L 338.57 232.45 L 338.81 231.69 L 339.07 230.95 L 339.08 230.92 L 339.13 230.23 L 339.16 230.21 L 339.68 229.80 L 339.69 229.76 L 339.77 229.21 L 339.99 229.15 L 340.13 229.10 L 340.16 228.13 L 340.17 228.09 L 340.23 229.00 L 340.27 228.44 L 340.29 228.42 L 340.42 227.12 L 340.43 227.09 L 340.70 226.98 L 341.44 226.96 L 341.62 226.92 L 341.67 226.90 L 341.71 226.73 L 341.75 226.73 L 341.86 226.09 L 353.69 224.86 L 353.71 224.69 L 353.81 224.57 L 353.84 224.33 L 353.91 213.52 L 354.04 209.09 L 354.05 209.06 L 354.27 208.97 L 354.32 208.97 L 354.36 208.47 L 354.55 208.42 L 355.06 207.37 L 355.08 207.35 L 355.21 207.02 L 355.26 207.03 L 355.28 206.51 L 355.71 205.89 L 355.72 205.87 L 356.37 205.63 L 356.45 205.08 L 356.68 205.09 L 356.95 203.69 L 357.02 203.14 L 357.06 202.70 L 357.18 202.16 L 357.52 201.97 L 357.58 201.84 L 357.73 201.71 L 357.89 201.71 L 358.38 201.72 L 358.44 201.72 L 358.56 201.69 L 358.57 201.69 L 358.73 201.70 L 359.10 201.68 L 359.49 201.47 L 359.55 201.47 L 359.63 201.39 L 359.74 201.24 L 360.04 201.24 L 360.54 201.05 L 360.70 200.61 L 360.98 196.89 L 362.07 200.04 L 362.30 200.02 L 362.48 200.01 L 362.75 200.00 L 362.84 199.94 L 363.11 199.77 L 363.53 199.51 L 363.59 199.34 L 363.67 199.27 L 363.72 199.28 L 363.77 199.23 L 364.10 199.00 L 371.95 198.99 L 372.02 199.00 L 372.51 198.98 L 372.56 198.97 L 372.67 198.49 L 372.76 198.23 L 372.77 198.22 L 373.04 198.18 L 373.10 198.16 L 374.71 197.46 L 374.90 197.40 L 375.04 197.38 L 375.07 197.38 L 375.57 197.21 L 375.74 197.30 L 375.77 197.29 L 376.04 197.24 L 376.33 195.77 L 376.37 195.76 L 376.61 195.59 L 376.71 195.59 L 376.80 195.59 L 377.01 195.43 L 377.44 194.83 L 377.53 194.81 L 377.60 194.65 L 377.78 193.94 L 378.21 193.21 L 378.60 189.79 L 378.68 189.37 L 379.07 189.20 L 379.14 189.11 L 379.20 188.95 L 379.24 188.40 L 379.38 187.41 L 379.41 187.45 L 379.47 187.43 L 379.70 187.42 L 380.04 187.06 L 380.25 186.99 L 380.49 186.98 L 380.60 186.97 L 380.84 186.95 L 381.24 186.95 L 381.63 186.95 L 381.93 186.94 L 382.00 186.93 L 382.08 186.92 L 382.08 186.80 L 382.31 186.73 L 382.38 186.72 L 382.47 186.57 L 383.12 186.55 L 383.13 186.25 L 383.31 186.24 L 384.06 186.24 L 384.56 186.06 L 384.92 185.84 L 384.93 185.72 L 384.96 185.72 L 395.95 185.52 L 395.99 185.51 L 396.11 185.50 L 396.17 185.33 L 396.21 185.31 L 396.22 185.30 L 396.69 185.25 L 396.79 184.63 L 396.93 184.49 L 397.17 183.27 L 397.32 183.26 L 397.50 182.74 L 397.61 182.80 L 397.66 182.80 L 397.72 182.20 L 397.85 181.80 L 397.87 181.36 L 397.92 181.30 L 398.04 181.27 L 398.11 181.07 L 398.21 183.40 L 398.35 183.36 L 398.62 182.43 L 398.73 182.20 L 398.84 182.00 L 399.51 180.66 L 400.09 180.01 L 400.79 178.78 L 400.97 178.72 L 401.16 178.72 L 401.38 178.66 L 405.42 178.31 L 405.75 178.28 L 444.04 177.34 L 564.60 177.12 L 565.00 176.74 L 565.28 176.69 L 565.56 176.69 L 565.98 175.96 L 566.12 175.61 L 566.23 174.96 L 566.42 173.08 L 566.70 173.46 L 566.92 173.05 L 566.97 173.05 L 567.16 172.92 L 567.20 172.93 L 567.40 172.23 L 567.58 171.13 L 568.12 169.96 L 568.14 169.86 L 568.30 168.46 L 568.82 165.00 L 568.83 164.88 L 568.93 164.81 L 569.06 163.57 L 569.62 161.91 L 569.63 161.75 L 569.75 161.68 L 569.88 160.85 L 570.09 160.21 L 570.11 160.08 L 570.20 158.82 L 570.21 158.79 L 570.26 158.43 L 570.50 156.18 L 570.53 156.05 L 570.61 155.92 L 570.87 155.62 L 570.92 155.61 L 571.12 155.18 L 571.46 155.23 L 571.51 155.17 L 571.55 155.14 L 571.61 155.11 L 571.78 153.78 L 571.96 152.71 L 571.98 152.61 L 572.08 151.26 L 572.18 149.94 L 572.21 149.78 L 572.31 148.24 L 572.36 147.02 L 572.57 146.20 L 572.60 146.15 L 572.70 145.89 L 572.85 145.87 L 573.71 145.84 L 574.15 145.80 L 583.56 145.85 L 583.66 145.62 L 583.75 145.41 L 583.91 144.51 L 584.26 144.27 L 584.29 144.18 L 584.36 142.98 L 584.58 141.82 L 584.61 141.72 L 586.66 141.64 L 586.79 140.98 L 587.83 140.79 L 587.94 140.74 L 588.06 139.39 L 589.31 138.12 L 589.84 137.64 L 589.97 136.65 L 590.42 134.95 L 590.70 134.45 L 591.17 133.46 L 591.99 132.95 L 604.60 132.94 L 605.35 132.82 L 605.39 132.84 L 606.44 132.65 L 606.49 132.55 L 606.86 132.47 L 607.29 131.37 L 607.29 131.37 L 607.34 131.32 L 607.90 130.06 L 609.20 129.33 L 609.28 129.27 L 609.42 129.26 L 609.61 128.92 L 609.67 128.84 L 609.74 128.77 L 610.34 128.73 L 610.83 128.73 L 611.09 128.72 L 611.12 128.68 L 611.66 127.57 L 612.08 127.36 L 612.10 127.28 L 612.15 127.19 L 612.20 126.89 L 625.88 126.47 L 625.91 126.44 L 625.95 126.43 L 626.21 126.30 L 626.42 126.17 L 627.62 124.47 L 627.92 124.26 L 628.79 123.75 L 629.54 123.63 L 630.09 123.47 L 630.25 121.90 L 630.94 120.06 L 631.20 119.93 L 631.29 118.74 L 633.31 116.56 L 633.33 116.56 L 633.44 116.03 L 633.83 115.97 L 633.83 115.97 L 633.85 115.84 L 633.92 115.67 L 634.10 115.50 L 634.32 114.58 L 636.42 112.37 L 636.69 112.11 L 636.88 111.71 L 636.91 111.67 L 636.95 111.36 L 646.26 110.36 L 646.56 109.60 L 646.74 109.57 L 646.81 109.07 L 647.69 108.83 L 647.87 108.33 L 648.03 108.33 L 648.13 107.27 L 648.43 104.58 L 648.47 104.54 L 648.87 104.49 L 648.95 103.62 L 649.29 102.56 L 649.36 101.83 L 649.64 101.16 L 649.84 100.81 L 650.00 100.00"/>
	</g>
	<g id="poloto_plot1" class="poloto_plot poloto_imgs poloto_line poloto1 poloto_stroke" fill="none" stroke="black">
		<path d=" M 150.00 381.19 L 150.03 381.17 L 150.05 381.16 L 150.06 381.16 L 150.08 381.16 L 150.12 380.57 L 150.25 380.55 L 150.54 380.54 L 150.98 380.31 L 151.20 380.21 L 151.65 380.23 L 151.72 380.19 L 151.78 380.19 L 152.30 380.15 L 153.28 380.03 L 153.58 377.71 L 153.66 377.71 L 154.25 377.65 L 154.93 377.64 L 154.93 377.64 L 154.94 377.64 L 164.09 377.64 L 164.15 377.64 L 164.27 377.64 L 164.32 377.61 L 164.67 377.60 L 164.83 377.60 L 165.21 377.60 L 165.27 377.60 L 165.38 377.58 L 165.50 377.58 L 165.53 377.58 L 165.63 377.55 L 165.73 377.55 L 165.82 377.55 L 166.08 377.42 L 166.30 377.42 L 166.35 377.42 L 166.45 377.42 L 167.18 378.30 L 167.20 378.30 L 167.29 378.29 L 167.70 378.15 L 168.04 378.01 L 168.41 377.94 L 168.49 377.90 L 168.50 377.90 L 168.57 377.90 L 168.72 377.90 L 168.90 377.84 L 169.26 377.79 L 169.28 377.79 L 169.34 377.79 L 169.43 377.77 L 169.64 377.77 L 169.66 377.77 L 169.87 377.76 L 169.96 377.76 L 170.03 377.76 L 170.12 377.76 L 171.23 377.66 L 171.50 377.65 L 172.12 377.60 L 172.25 377.60 L 172.35 377.60 L 172.40 377.60 L 172.83 377.53 L 173.02 377.53 L 173.24 377.45 L 173.35 377.44 L 173.61 377.25 L 173.72 377.18 L 173.87 377.18 L 174.01 377.18 L 174.51 374.46 L 174.52 374.42 L 174.54 374.42 L 174.71 374.15 L 183.20 374.15 L 184.08 372.98 L 184.11 372.98 L 185.15 372.98 L 185.23 372.98 L 185.33 372.85 L 185.58 372.83 L 185.70 372.83 L 185.74 372.83 L 185.87 372.83 L 186.18 372.83 L 186.19 372.58 L 186.30 372.57 L 186.42 372.57 L 186.55 372.54 L 186.71 372.54 L 186.78 372.54 L 186.80 372.54 L 186.95 372.54 L 186.97 372.54 L 187.13 372.54 L 187.16 372.54 L 187.40 371.39 L 187.44 371.39 L 187.53 371.25 L 187.63 371.25 L 187.77 371.25 L 187.83 371.23 L 188.31 371.23 L 188.32 371.23 L 188.41 371.16 L 188.62 371.16 L 188.81 370.50 L 188.87 370.42 L 188.96 370.42 L 189.00 370.42 L 189.11 370.40 L 189.64 365.54 L 189.70 365.58 L 189.88 365.58 L 189.94 365.58 L 189.98 365.57 L 190.07 365.57 L 190.15 365.51 L 190.34 365.51 L 190.47 365.51 L 190.58 365.50 L 190.64 365.50 L 191.12 365.49 L 191.38 365.49 L 191.46 365.37 L 191.68 365.37 L 191.70 365.37 L 191.72 365.37 L 191.86 365.04 L 191.97 364.95 L 192.37 363.80 L 192.43 363.80 L 192.51 363.80 L 192.61 363.82 L 192.62 363.82 L 192.67 363.82 L 192.71 363.82 L 192.76 363.82 L 192.81 363.82 L 192.97 363.79 L 193.08 363.79 L 193.20 363.78 L 193.35 363.78 L 193.52 363.77 L 193.69 363.34 L 193.81 363.20 L 194.06 363.20 L 194.06 363.19 L 194.21 363.19 L 206.06 363.19 L 206.28 363.18 L 206.84 363.11 L 206.96 363.10 L 207.05 363.10 L 207.07 363.10 L 207.27 363.10 L 207.41 363.10 L 207.49 363.10 L 207.57 363.10 L 207.62 363.09 L 207.84 363.09 L 208.26 363.12 L 208.37 363.12 L 208.45 363.12 L 208.55 363.12 L 209.10 363.02 L 209.18 362.98 L 209.22 362.98 L 209.25 362.92 L 209.37 362.92 L 209.47 362.91 L 209.86 362.47 L 210.44 362.47 L 210.64 362.47 L 211.28 362.47 L 211.58 359.50 L 211.68 359.50 L 211.81 359.50 L 212.00 359.49 L 212.29 359.49 L 212.69 359.49 L 213.23 359.49 L 213.31 359.49 L 213.70 359.42 L 213.95 359.29 L 214.03 359.29 L 214.19 359.29 L 214.30 359.28 L 215.70 359.09 L 217.04 359.09 L 228.97 359.09 L 229.05 359.09 L 229.11 359.09 L 229.48 359.09 L 230.60 358.15 L 230.65 358.12 L 230.80 358.03 L 231.35 358.02 L 231.61 357.79 L 232.00 357.80 L 232.10 357.80 L 232.18 357.80 L 232.87 355.19 L 232.96 355.19 L 233.10 355.19 L 233.26 355.19 L 233.33 355.02 L 233.71 354.71 L 233.85 354.71 L 233.92 354.71 L 234.00 354.23 L 234.18 353.74 L 234.24 353.74 L 234.42 353.73 L 234.94 349.85 L 234.98 349.85 L 235.03 349.85 L 235.11 349.85 L 235.24 349.85 L 235.29 349.85 L 235.34 349.85 L 235.59 349.85 L 235.65 349.76 L 235.95 349.74 L 236.13 349.69 L 236.24 349.22 L 237.17 341.49 L 237.28 341.49 L 272.33 341.49 L 272.36 341.49 L 285.75 341.49 L 286.48 341.37 L 286.63 341.37 L 286.83 341.37 L 286.89 341.37 L 286.97 341.37 L 292.78 341.31 L 293.55 341.23 L 293.83 341.23 L 293.99 341.21 L 297.60 341.14 L 297.63 341.04 L 297.85 341.04 L 298.93 339.99 L 299.00 339.99 L 299.13 339.99 L 299.51 339.99 L 299.56 339.99 L 299.71 339.99 L 299.88 339.99 L 299.90 339.99 L 311.16 339.97 L 311.24 339.79 L 311.69 339.79 L 311.70 338.52 L 311.78 338.52 L 311.87 338.52 L 312.00 338.41 L 312.19 338.41 L 312.35 338.35 L 312.49 338.35 L 312.55 338.35 L 312.78 338.34 L 313.56 336.19 L 313.87 336.19 L 313.92 336.17 L 313.99 336.17 L 314.03 336.17 L 314.14 336.14 L 314.46 335.87 L 314.50 335.84 L 314.70 333.91 L 314.77 333.90 L 314.80 333.90 L 314.87 333.87 L 314.92 333.87 L 314.96 333.87 L 315.21 332.82 L 315.32 332.81 L 315.46 332.78 L 315.55 329.52 L 315.59 329.52 L 315.84 327.68 L 315.91 327.68 L 315.95 327.67 L 316.02 327.67 L 316.05 327.67 L 316.09 327.67 L 316.10 327.67 L 316.23 324.28 L 316.27 324.27 L 316.39 324.26 L 316.48 324.26 L 316.73 324.19 L 317.04 324.10 L 317.06 324.10 L 317.14 324.08 L 317.43 324.02 L 317.57 324.02 L 317.70 324.02 L 317.85 322.56 L 317.94 322.56 L 318.34 322.55 L 318.38 322.55 L 318.43 322.55 L 318.46 322.55 L 318.72 320.45 L 318.76 320.45 L 318.96 320.44 L 336.28 320.44 L 337.26 320.43 L 337.29 320.43 L 337.49 320.43 L 337.50 320.43 L 337.63 320.43 L 337.73 320.43 L 337.81 320.32 L 337.93 320.32 L 337.97 320.32 L 338.01 320.32 L 338.19 320.13 L 338.57 320.01 L 338.81 319.89 L 339.07 319.30 L 339.08 319.30 L 339.13 319.15 L 339.16 319.13 L 339.68 318.77 L 339.69 318.77 L 339.77 318.72 L 339.99 318.72 L 340.13 318.68 L 340.16 317.81 L 340.17 317.81 L 340.23 318.67 L 340.27 318.62 L 340.29 318.61 L 340.42 317.45 L 340.43 317.45 L 340.70 317.40 L 341.44 317.40 L 341.62 317.40 L 341.67 317.40 L 341.71 317.40 L 341.75 317.40 L 341.86 317.32 L 353.69 316.35 L 353.71 316.35 L 353.81 316.35 L 353.84 316.14 L 353.91 305.81 L 354.04 301.97 L 354.05 301.97 L 354.27 301.90 L 354.32 301.90 L 354.36 301.88 L 354.55 301.88 L 355.06 300.94 L 355.08 300.94 L 355.21 300.89 L 355.26 300.89 L 355.28 300.81 L 355.71 300.25 L 355.72 300.25 L 356.37 300.14 L 356.45 300.10 L 356.68 300.11 L 356.95 298.84 L 357.02 298.71 L 357.06 298.59 L 357.18 298.12 L 357.52 298.00 L 357.58 297.90 L 357.73 297.90 L 357.89 297.90 L 358.38 297.90 L 358.44 297.90 L 358.56 297.90 L 358.57 297.90 L 358.73 297.91 L 359.10 297.91 L 359.49 297.78 L 359.55 297.78 L 359.63 297.76 L 359.74 297.76 L 360.04 297.76 L 360.54 297.76 L 360.70 297.65 L 360.98 294.32 L 362.07 297.46 L 362.30 297.45 L 362.48 297.44 L 362.75 297.44 L 362.84 297.40 L 363.11 297.38 L 363.53 297.19 L 363.59 297.19 L 363.67 297.19 L 363.72 297.19 L 363.77 297.19 L 364.10 297.01 L 371.95 297.01 L 372.02 297.01 L 372.51 297.00 L 372.56 297.00 L 372.67 296.97 L 372.76 296.74 L 372.77 296.73 L 373.04 296.71 L 373.10 296.71 L 374.71 296.52 L 374.90 296.52 L 375.04 296.52 L 375.07 296.52 L 375.57 296.38 L 375.74 296.38 L 375.77 296.38 L 376.04 296.37 L 376.33 295.59 L 376.37 295.59 L 376.61 295.45 L 376.71 295.45 L 376.80 295.45 L 377.01 295.45 L 377.44 295.44 L 377.53 295.42 L 377.60 295.34 L 377.78 295.21 L 378.21 295.09 L 378.60 291.95 L 378.68 291.84 L 379.07 291.69 L 379.14 291.65 L 379.20 291.54 L 379.24 291.32 L 379.38 290.38 L 379.41 290.42 L 379.47 290.40 L 379.70 290.40 L 380.04 290.27 L 380.25 290.22 L 380.49 290.20 L 380.60 290.19 L 380.84 290.18 L 381.24 290.18 L 381.63 290.17 L 381.93 290.17 L 382.00 290.16 L 382.08 290.16 L 382.08 290.15 L 382.31 290.15 L 382.38 290.14 L 382.47 290.02 L 383.12 290.01 L 383.13 290.01 L 383.31 290.00 L 384.06 290.00 L 384.56 289.84 L 384.92 289.71 L 384.93 289.71 L 384.96 289.71 L 395.95 289.70 L 395.99 289.70 L 396.11 289.70 L 396.17 289.70 L 396.21 289.69 L 396.22 289.69 L 396.69 289.69 L 396.79 289.67 L 396.93 289.65 L 397.17 289.63 L 397.32 289.63 L 397.50 289.56 L 397.61 289.56 L 397.66 289.56 L 397.72 289.56 L 397.85 289.27 L 397.87 289.27 L 397.92 289.27 L 398.04 289.27 L 398.11 289.27 L 398.21 289.34 L 398.35 289.34 L 398.62 289.33 L 398.73 289.33 L 398.84 289.33 L 399.51 288.40 L 400.09 288.16 L 400.79 287.49 L 400.97 287.49 L 401.16 287.49 L 401.38 287.49 L 405.42 287.41 L 405.75 287.41 L 444.04 287.29 L 564.60 287.12 L 565.00 287.07 L 565.28 287.06 L 565.56 287.06 L 565.98 286.63 L 566.12 286.63 L 566.23 286.63 L 566.42 285.08 L 566.70 285.38 L 566.92 285.36 L 566.97 285.36 L 567.16 285.35 L 567.20 285.35 L 567.40 285.34 L 567.58 285.27 L 568.12 284.29 L 568.14 284.29 L 568.30 284.20 L 568.82 281.03 L 568.83 281.03 L 568.93 281.03 L 569.06 280.98 L 569.62 279.51 L 569.63 279.51 L 569.75 279.51 L 569.88 279.47 L 570.09 278.93 L 570.11 278.93 L 570.20 278.92 L 570.21 278.92 L 570.26 278.62 L 570.50 276.53 L 570.53 276.53 L 570.61 276.53 L 570.87 276.35 L 570.92 276.35 L 571.12 276.01 L 571.46 276.01 L 571.51 276.01 L 571.55 276.01 L 571.61 276.01 L 571.78 276.00 L 571.96 275.05 L 571.98 275.05 L 572.08 275.05 L 572.18 274.33 L 572.21 274.33 L 572.31 273.57 L 572.36 273.52 L 572.57 272.77 L 572.60 272.77 L 572.70 272.77 L 572.85 272.76 L 573.71 272.76 L 574.15 272.75 L 583.56 272.75 L 583.66 272.75 L 583.75 272.75 L 583.91 272.75 L 584.26 272.56 L 584.29 272.56 L 584.36 272.49 L 584.58 271.44 L 584.61 271.44 L 586.66 271.47 L 586.79 271.26 L 587.83 271.26 L 587.94 271.25 L 588.06 271.18 L 589.31 270.31 L 589.84 270.15 L 589.97 270.09 L 590.42 268.45 L 590.70 268.45 L 591.17 268.32 L 591.99 268.32 L 604.60 268.31 L 605.35 268.22 L 605.39 268.24 L 606.44 268.24 L 606.49 268.24 L 606.86 268.24 L 607.29 268.20 L 607.29 268.20 L 607.34 268.20 L 607.90 267.25 L 609.20 267.22 L 609.28 267.22 L 609.42 267.22 L 609.61 267.18 L 609.67 267.15 L 609.74 267.15 L 610.34 267.10 L 610.83 267.10 L 611.09 267.10 L 611.12 267.10 L 611.66 267.08 L 612.08 266.97 L 612.10 266.97 L 612.15 266.97 L 612.20 266.97 L 625.88 266.75 L 625.91 266.75 L 625.95 266.75 L 626.21 266.75 L 626.42 266.75 L 627.62 265.80 L 627.92 265.74 L 628.79 265.67 L 629.54 265.62 L 630.09 265.62 L 630.25 265.62 L 630.94 264.19 L 631.20 264.15 L 631.29 264.10 L 633.31 263.10 L 633.33 263.10 L 633.44 263.09 L 633.83 263.08 L 633.83 263.08 L 633.85 263.08 L 633.92 263.05 L 634.10 263.01 L 634.32 262.89 L 636.42 261.24 L 636.69 261.16 L 636.88 261.16 L 636.91 261.16 L 636.95 261.16 L 646.26 261.16 L 646.56 261.15 L 646.74 261.15 L 646.81 261.15 L 647.69 261.15 L 647.87 261.15 L 648.03 261.15 L 648.13 261.11 L 648.43 258.94 L 648.47 258.92 L 648.87 258.94 L 648.95 258.92 L 649.29 258.08 L 649.36 258.03 L 649.64 257.48 L 649.84 257.48 L 650.00 257.43"/>
	</g>
	<g id="poloto_plot2" class="poloto_plot poloto_imgs poloto_line poloto2 poloto_stroke" fill="none" stroke="black">
		<path d=" M 150.00 391.56 L 150.03 391.55 L 150.05 391.55 L 150.06 391.55 L 150.08 391.55 L 150.12 389.39 L 150.25 389.10 L 150.54 389.09 L 150.98 389.08 L 151.20 387.79 L 151.65 387.67 L 151.72 387.63 L 151.78 387.60 L 152.30 387.02 L 153.28 386.57 L 153.58 386.48 L 153.66 386.49 L 154.25 386.45 L 154.93 386.45 L 154.93 386.45 L 154.94 386.45 L 164.09 386.45 L 164.15 386.45 L 164.27 386.43 L 164.32 386.43 L 164.67 386.30 L 164.83 386.26 L 165.21 386.05 L 165.27 385.96 L 165.38 385.77 L 165.50 385.74 L 165.53 385.74 L 165.63 385.70 L 165.73 385.70 L 165.82 385.71 L 166.08 385.49 L 166.30 385.29 L 166.35 385.29 L 166.45 385.18 L 167.18 384.92 L 167.20 384.91 L 167.29 384.83 L 167.70 384.55 L 168.04 384.19 L 168.41 384.05 L 168.49 384.05 L 168.50 384.05 L 168.57 383.86 L 168.72 383.86 L 168.90 383.83 L 169.26 383.69 L 169.28 383.43 L 169.34 383.43 L 169.43 383.31 L 169.64 383.31 L 169.66 383.31 L 169.87 382.93 L 169.96 382.91 L 170.03 382.87 L 170.12 382.70 L 171.23 382.59 L 171.50 382.55 L 172.12 382.29 L 172.25 382.30 L 172.35 382.28 L 172.40 382.08 L 172.83 381.03 L 173.02 381.01 L 173.24 380.69 L 173.35 380.66 L 173.61 380.52 L 173.72 380.47 L 173.87 380.25 L 174.01 380.06 L 174.51 380.06 L 174.52 380.03 L 174.54 379.88 L 174.71 378.86 L 183.20 378.76 L 184.08 378.45 L 184.11 378.41 L 185.15 378.16 L 185.23 378.15 L 185.33 377.96 L 185.58 377.84 L 185.70 377.60 L 185.74 377.41 L 185.87 377.03 L 186.18 377.02 L 186.19 377.02 L 186.30 376.76 L 186.42 376.75 L 186.55 376.48 L 186.71 376.26 L 186.78 376.14 L 186.80 376.13 L 186.95 375.88 L 186.97 375.87 L 187.13 375.64 L 187.16 375.63 L 187.40 375.55 L 187.44 375.55 L 187.53 375.46 L 187.63 375.45 L 187.77 375.45 L 187.83 375.43 L 188.31 375.20 L 188.32 375.21 L 188.41 374.75 L 188.62 374.73 L 188.81 374.59 L 188.87 374.59 L 188.96 374.58 L 189.00 374.55 L 189.11 373.92 L 189.64 373.38 L 189.70 373.09 L 189.88 373.07 L 189.94 373.00 L 189.98 372.99 L 190.07 372.85 L 190.15 372.35 L 190.34 372.27 L 190.47 372.26 L 190.58 372.01 L 190.64 372.00 L 191.12 371.82 L 191.38 371.68 L 191.46 371.57 L 191.68 371.56 L 191.70 371.56 L 191.72 371.53 L 191.86 370.63 L 191.97 370.62 L 192.37 370.49 L 192.43 370.14 L 192.51 370.13 L 192.61 369.98 L 192.62 369.89 L 192.67 369.83 L 192.71 369.80 L 192.76 369.79 L 192.81 369.72 L 192.97 368.71 L 193.08 368.60 L 193.20 368.30 L 193.35 368.28 L 193.52 368.18 L 193.69 367.86 L 193.81 366.98 L 194.06 366.92 L 194.06 366.54 L 194.21 366.45 L 206.06 366.45 L 206.28 366.45 L 206.84 366.03 L 206.96 366.03 L 207.05 366.03 L 207.07 365.92 L 207.27 365.75 L 207.41 365.71 L 207.49 365.61 L 207.57 365.53 L 207.62 365.49 L 207.84 365.43 L 208.26 365.52 L 208.37 365.24 L 208.45 365.17 L 208.55 365.16 L 209.10 365.10 L 209.18 365.06 L 209.22 365.06 L 209.25 365.00 L 209.37 364.95 L 209.47 364.85 L 209.86 364.59 L 210.44 364.48 L 210.64 364.43 L 211.28 364.26 L 211.58 363.85 L 211.68 363.78 L 211.81 363.46 L 212.00 363.05 L 212.29 362.94 L 212.69 362.93 L 213.23 362.91 L 213.31 362.76 L 213.70 362.66 L 213.95 362.53 L 214.03 362.42 L 214.19 362.38 L 214.30 362.10 L 215.70 361.97 L 217.04 361.97 L 228.97 361.94 L 229.05 361.79 L 229.11 361.69 L 229.48 361.53 L 230.60 361.26 L 230.65 361.22 L 230.80 361.03 L 231.35 360.95 L 231.61 360.41 L 232.00 360.40 L 232.10 360.38 L 232.18 359.86 L 232.87 359.37 L 232.96 359.36 L 233.10 359.33 L 233.26 359.29 L 233.33 359.11 L 233.71 358.29 L 233.85 358.08 L 233.92 358.07 L 234.00 357.98 L 234.18 357.66 L 234.24 356.84 L 234.42 356.50 L 234.94 356.31 L 234.98 355.90 L 235.03 355.90 L 235.11 355.83 L 235.24 355.71 L 235.29 355.68 L 235.34 355.64 L 235.59 354.69 L 235.65 354.13 L 235.95 354.02 L 236.13 353.07 L 236.24 352.89 L 237.17 351.39 L 237.28 351.36 L 272.33 350.93 L 272.36 350.93 L 285.75 350.80 L 286.48 350.64 L 286.63 350.64 L 286.83 350.56 L 286.89 350.44 L 286.97 350.42 L 292.78 350.40 L 293.55 348.68 L 293.83 348.53 L 293.99 347.94 L 297.60 347.87 L 297.63 347.81 L 297.85 347.80 L 298.93 347.70 L 299.00 347.50 L 299.13 347.43 L 299.51 347.34 L 299.56 347.31 L 299.71 346.98 L 299.88 346.88 L 299.90 346.63 L 311.16 346.30 L 311.24 345.52 L 311.69 345.32 L 311.70 345.02 L 311.78 344.78 L 311.87 344.42 L 312.00 343.48 L 312.19 342.96 L 312.35 342.29 L 312.49 342.28 L 312.55 341.77 L 312.78 341.73 L 313.56 341.24 L 313.87 341.01 L 313.92 340.87 L 313.99 340.87 L 314.03 340.70 L 314.14 340.11 L 314.46 340.06 L 314.50 340.05 L 314.70 339.67 L 314.77 339.67 L 314.80 339.45 L 314.87 339.31 L 314.92 339.31 L 314.96 339.00 L 315.21 338.82 L 315.32 338.52 L 315.46 338.50 L 315.55 338.34 L 315.59 338.11 L 315.84 337.99 L 315.91 337.85 L 315.95 337.85 L 316.02 337.85 L 316.05 337.61 L 316.09 337.62 L 316.10 337.61 L 316.23 337.53 L 316.27 337.27 L 316.39 337.27 L 316.48 337.20 L 316.73 337.18 L 317.04 337.16 L 317.06 337.16 L 317.14 337.14 L 317.43 337.14 L 317.57 337.14 L 317.70 337.14 L 317.85 337.09 L 317.94 336.78 L 318.34 336.78 L 318.38 336.59 L 318.43 336.59 L 318.46 336.38 L 318.72 336.31 L 318.76 336.26 L 318.96 336.26 L 336.28 336.20 L 337.26 336.11 L 337.29 336.11 L 337.49 336.11 L 337.50 336.11 L 337.63 335.74 L 337.73 335.73 L 337.81 335.62 L 337.93 335.57 L 337.97 335.53 L 338.01 335.52 L 338.19 335.48 L 338.57 335.41 L 338.81 334.91 L 339.07 334.88 L 339.08 334.85 L 339.13 334.44 L 339.16 334.43 L 339.68 334.43 L 339.69 334.39 L 339.77 334.01 L 339.99 333.96 L 340.13 333.94 L 340.16 333.93 L 340.17 333.89 L 340.23 333.86 L 340.27 333.47 L 340.29 333.46 L 340.42 333.46 L 340.43 333.43 L 340.70 333.39 L 341.44 333.37 L 341.62 333.34 L 341.67 333.33 L 341.71 333.20 L 341.75 333.20 L 341.86 332.76 L 353.69 332.62 L 353.71 332.50 L 353.81 332.41 L 353.84 332.39 L 353.91 332.02 L 354.04 331.92 L 354.05 331.90 L 354.27 331.90 L 354.32 331.90 L 354.36 331.52 L 354.55 331.48 L 355.06 331.46 L 355.08 331.44 L 355.21 331.24 L 355.26 331.24 L 355.28 330.90 L 355.71 330.90 L 355.72 330.88 L 356.37 330.79 L 356.45 330.38 L 356.68 330.38 L 356.95 330.37 L 357.02 330.07 L 357.06 329.83 L 357.18 329.82 L 357.52 329.77 L 357.58 329.75 L 357.73 329.65 L 357.89 329.65 L 358.38 329.66 L 358.44 329.66 L 358.56 329.63 L 358.57 329.63 L 358.73 329.63 L 359.10 329.60 L 359.49 329.56 L 359.55 329.56 L 359.63 329.52 L 359.74 329.41 L 360.04 329.41 L 360.54 329.27 L 360.70 329.04 L 360.98 329.01 L 362.07 328.76 L 362.30 328.76 L 362.48 328.75 L 362.75 328.75 L 362.84 328.73 L 363.11 328.60 L 363.53 328.58 L 363.59 328.47 L 363.67 328.42 L 363.72 328.43 L 363.77 328.39 L 364.10 328.37 L 371.95 328.36 L 372.02 328.36 L 372.51 328.36 L 372.56 328.35 L 372.67 328.00 L 372.76 327.99 L 372.77 327.99 L 373.04 327.98 L 373.10 327.96 L 374.71 327.45 L 374.90 327.40 L 375.04 327.38 L 375.07 327.38 L 375.57 327.37 L 375.74 327.44 L 375.77 327.44 L 376.04 327.40 L 376.33 326.92 L 376.37 326.91 L 376.61 326.89 L 376.71 326.89 L 376.80 326.89 L 377.01 326.79 L 377.44 326.35 L 377.53 326.35 L 377.60 326.29 L 377.78 325.89 L 378.21 325.45 L 378.60 325.48 L 378.68 325.24 L 379.07 325.24 L 379.14 325.21 L 379.20 325.19 L 379.24 324.95 L 379.38 324.95 L 379.41 324.95 L 379.47 324.95 L 379.70 324.95 L 380.04 324.76 L 380.25 324.74 L 380.49 324.74 L 380.60 324.74 L 380.84 324.74 L 381.24 324.74 L 381.63 324.74 L 381.93 324.74 L 382.00 324.73 L 382.08 324.73 L 382.08 324.65 L 382.31 324.59 L 382.38 324.59 L 382.47 324.58 L 383.12 324.57 L 383.13 324.34 L 383.31 324.34 L 384.06 324.35 L 384.56 324.34 L 384.92 324.29 L 384.93 324.20 L 384.96 324.20 L 395.95 324.05 L 395.99 324.04 L 396.11 324.03 L 396.17 323.89 L 396.21 323.89 L 396.22 323.88 L 396.69 323.84 L 396.79 323.37 L 396.93 323.27 L 397.17 322.36 L 397.32 322.35 L 397.50 321.96 L 397.61 322.00 L 397.66 322.00 L 397.72 321.50 L 397.85 321.41 L 397.87 321.07 L 397.92 321.02 L 398.04 320.98 L 398.11 320.81 L 398.21 322.86 L 398.35 322.83 L 398.62 322.01 L 398.73 321.83 L 398.84 321.64 L 399.51 321.32 L 400.09 320.97 L 400.79 320.49 L 400.97 320.43 L 401.16 320.43 L 401.38 320.39 L 405.42 320.15 L 405.75 320.12 L 444.04 319.48 L 564.60 319.46 L 565.00 319.17 L 565.28 319.13 L 565.56 319.13 L 565.98 318.86 L 566.12 318.56 L 566.23 318.00 L 566.42 317.85 L 566.70 317.90 L 566.92 317.57 L 566.97 317.56 L 567.16 317.46 L 567.20 317.46 L 567.40 316.91 L 567.58 316.07 L 568.12 315.99 L 568.14 315.90 L 568.30 314.82 L 568.82 314.78 L 568.83 314.67 L 568.93 314.61 L 569.06 313.62 L 569.62 313.57 L 569.63 313.43 L 569.75 313.36 L 569.88 312.72 L 570.09 312.70 L 570.11 312.59 L 570.20 311.51 L 570.21 311.49 L 570.26 311.45 L 570.50 311.45 L 570.53 311.34 L 570.61 311.26 L 570.87 311.16 L 570.92 311.16 L 571.12 311.10 L 571.46 311.14 L 571.51 311.09 L 571.55 311.07 L 571.61 311.03 L 571.78 309.92 L 571.96 309.90 L 571.98 309.80 L 572.08 308.66 L 572.18 308.25 L 572.21 308.09 L 572.31 307.54 L 572.36 306.57 L 572.57 306.56 L 572.60 306.50 L 572.70 306.31 L 572.85 306.30 L 573.71 306.27 L 574.15 306.24 L 583.56 306.29 L 583.66 306.07 L 583.75 305.91 L 583.91 305.13 L 584.26 305.12 L 584.29 305.05 L 584.36 304.07 L 584.58 304.06 L 584.61 303.97 L 586.66 303.87 L 586.79 303.52 L 587.83 303.35 L 587.94 303.31 L 588.06 302.23 L 589.31 301.92 L 589.84 301.66 L 589.97 300.84 L 590.42 300.84 L 590.70 300.39 L 591.17 299.69 L 591.99 299.27 L 604.60 299.26 L 605.35 299.25 L 605.39 299.25 L 606.44 299.09 L 606.49 299.01 L 606.86 298.94 L 607.29 298.03 L 607.29 298.03 L 607.34 297.99 L 607.90 297.80 L 609.20 297.20 L 609.28 297.14 L 609.42 297.13 L 609.61 296.87 L 609.67 296.84 L 609.74 296.79 L 610.34 296.79 L 610.83 296.79 L 611.09 296.79 L 611.12 296.75 L 611.66 295.82 L 612.08 295.74 L 612.10 295.67 L 612.15 295.58 L 612.20 295.35 L 625.88 295.18 L 625.91 295.16 L 625.95 295.14 L 626.21 295.03 L 626.42 294.91 L 627.62 294.39 L 627.92 294.29 L 628.79 293.89 L 629.54 293.83 L 630.09 293.67 L 630.25 292.31 L 630.94 292.08 L 631.20 292.01 L 631.29 291.03 L 633.31 290.09 L 633.33 290.09 L 633.44 289.65 L 633.83 289.61 L 633.83 289.61 L 633.85 289.50 L 633.92 289.38 L 634.10 289.28 L 634.32 288.61 L 636.42 288.26 L 636.69 288.11 L 636.88 287.74 L 636.91 287.70 L 636.95 287.46 L 646.26 286.61 L 646.56 285.99 L 646.74 285.97 L 646.81 285.55 L 647.69 285.38 L 647.87 284.94 L 648.03 284.94 L 648.13 284.03 L 648.43 283.81 L 648.47 283.78 L 648.87 283.73 L 648.95 282.98 L 649.29 282.89 L 649.36 282.30 L 649.64 282.24 L 649.84 281.89 L 650.00 281.24"/>
	</g>
	<g class="poloto_legend poloto_imgs poloto_line poloto0 poloto_stroke"><line x1="680" x2="730" y1="81.25" y2="81.25"/></g>
	<g class="poloto_legend poloto_imgs poloto_line poloto1 poloto_stroke"><line x1="680" x2="730" y1="131.25" y2="131.25"/></g>
	<g class="poloto_legend poloto_imgs poloto_line poloto2 poloto_stroke"><line x1="680" x2="730" y1="181.25" y2="181.25"/></g>
	<text class="poloto_legend poloto_text poloto_line poloto0" x="675" y="100">total</text>
	<text class="poloto_legend poloto_text poloto_line poloto1" x="675" y="150">code</text>
	<text class="poloto_legend poloto_text poloto_line poloto2" x="675" y="200">docs</text>
	<text class="poloto_text poloto_name poloto_title" x="400.00" y="37.50">Workspace lines over time</text>
	<text class="poloto_text poloto_name poloto_x" x="400.00" y="640">date (JST)</text>
	<text class="poloto_text poloto_name poloto_y" x="37.50" y="250.00" transform="rotate(-90,37.50,250.00)">lines</text>
	<text class="poloto_text poloto_ticks poloto_y">
		<tspan x="135.00" y="400.00">0</tspan>
		<tspan x="135.00" y="319.76">50K</tspan>
		<tspan x="135.00" y="239.52">100K</tspan>
		<tspan x="135.00" y="159.28">150K</tspan>
	</text>
	<g class="poloto_imgs poloto_ticks poloto_y" stroke="black">
		<line x1="150.00" x2="144.00" y1="400.00" y2="400.00"/>
		<line x1="150.00" x2="144.00" y1="319.76" y2="319.76"/>
		<line x1="150.00" x2="144.00" y1="239.52" y2="239.52"/>
		<line x1="150.00" x2="144.00" y1="159.28" y2="159.28"/>
	</g>
	<g class="poloto_text poloto_ticks poloto_x">
		<text x="228.81" y="430.00" text-anchor="end" transform="rotate(-90 228.81 430.00)">2026-04-24 12:06</text>
		<text x="350.13" y="430.00" text-anchor="end" transform="rotate(-90 350.13 430.00)">2026-04-30 07:00</text>
		<text x="471.45" y="430.00" text-anchor="end" transform="rotate(-90 471.45 430.00)">2026-05-06 01:53</text>
		<text x="592.77" y="430.00" text-anchor="end" transform="rotate(-90 592.77 430.00)">2026-05-11 20:46</text>
	</g>
	<g class="poloto_imgs poloto_ticks poloto_x" stroke="black">
		<line x1="228.81" x2="228.81" y1="400.00" y2="405.00"/>
		<line x1="350.13" x2="350.13" y1="400.00" y2="405.00"/>
		<line x1="471.45" x2="471.45" y1="400.00" y2="405.00"/>
		<line x1="592.77" x2="592.77" y1="400.00" y2="405.00"/>
	</g>
	<path class="poloto_imgs poloto_ticks poloto_x" stroke="black" style="stroke-dasharray:12.131835197268494;stroke-dashoffset:-78.81398208567407;" d=" M 150.00 400.00 L 650.00 400.00"/>
	<path class="poloto_imgs poloto_ticks poloto_y" stroke="black" style="stroke-dasharray:8.023879064094746;stroke-dashoffset:-0;" d=" M 150.00 400.00 L 150.00 100.00"/>
</svg>

