<svg class="poloto" width="800" height="680" viewBox="0 0 800 680" xmlns="http://www.w3.org/2000/svg">
	<style>
.poloto{
  stroke-linecap:round;
  stroke-linejoin:round;
  font-family:Roboto,sans-serif;
  font-size:16px;
}
.poloto_background{fill:AliceBlue;}
.poloto_scatter{stroke-width:7}
.poloto_line{stroke-width:2}
.poloto_text{fill: black;}
.poloto_name{font-size:24px;dominant-baseline:auto;text-anchor:middle;}
.poloto_where{dominant-baseline:middle;text-anchor:start}
.poloto_text.poloto_legend{font-size:20px;dominant-baseline:middle;text-anchor:start;}
.poloto_text.poloto_ticks.poloto_y{dominant-baseline:middle;text-anchor:end}
.poloto_text.poloto_ticks.poloto_x{dominant-baseline:auto;text-anchor:middle}
.poloto_imgs.poloto_ticks{stroke: black;stroke-width:3;fill:none;stroke-dasharray:none}
.poloto_grid{stroke:gray;stroke-width:0.5}

.poloto0.poloto_stroke{stroke:blue;}
.poloto1.poloto_stroke{stroke:red;}
.poloto2.poloto_stroke{stroke:green;}
.poloto3.poloto_stroke{stroke:gold;}
.poloto4.poloto_stroke{stroke:aqua;}
.poloto5.poloto_stroke{stroke:lime;}
.poloto6.poloto_stroke{stroke:orange;}
.poloto7.poloto_stroke{stroke:chocolate;}
.poloto0.poloto_fill{fill:blue;}
.poloto1.poloto_fill{fill:red;}
.poloto2.poloto_fill{fill:green;}
.poloto3.poloto_fill{fill:gold;}
.poloto4.poloto_fill{fill:aqua;}
.poloto5.poloto_fill{fill:lime;}
.poloto6.poloto_fill{fill:orange;}
.poloto7.poloto_fill{fill:chocolate;}
	</style>
	<circle r="1e5" class="poloto_background" fill="white"/>
	<g id="poloto_plot0" class="poloto_plot poloto_imgs poloto_line poloto0 poloto_stroke" fill="none" stroke="black">
		<path d=" M 150.00 368.88 L 150.03 368.85 L 150.05 368.84 L 150.06 368.84 L 150.08 368.84 L 150.11 365.46 L 150.24 365.05 L 150.54 365.04 L 150.97 364.76 L 151.19 363.04 L 151.63 362.93 L 151.71 362.84 L 151.77 362.81 L 152.28 361.97 L 153.25 361.29 L 153.55 358.63 L 153.63 358.64 L 154.21 358.53 L 154.88 358.52 L 154.89 358.52 L 154.89 358.52 L 163.97 358.52 L 164.03 358.52 L 164.15 358.50 L 164.19 358.47 L 164.54 358.31 L 164.70 358.27 L 165.08 358.03 L 165.13 357.92 L 165.24 357.68 L 165.36 357.64 L 165.39 357.64 L 165.49 357.58 L 165.59 357.58 L 165.69 357.58 L 165.94 357.19 L 166.16 356.94 L 166.20 356.95 L 166.31 356.80 L 167.03 357.41 L 167.05 357.41 L 167.14 357.31 L 167.55 356.85 L 167.88 356.31 L 168.25 356.07 L 168.33 356.03 L 168.34 356.03 L 168.41 355.82 L 168.55 355.82 L 168.73 355.75 L 169.09 355.54 L 169.11 355.23 L 169.17 355.23 L 169.26 355.06 L 169.46 355.06 L 169.49 355.06 L 169.70 354.61 L 169.78 354.58 L 169.86 354.55 L 169.94 354.36 L 171.05 354.12 L 171.31 354.07 L 171.93 353.75 L 172.06 353.75 L 172.15 353.74 L 172.21 353.51 L 172.63 352.17 L 172.82 352.14 L 173.04 351.69 L 173.14 351.65 L 173.40 351.28 L 173.51 351.14 L 173.66 350.90 L 173.80 350.69 L 174.29 347.60 L 174.31 347.53 L 174.33 347.34 L 174.50 345.86 L 182.91 345.75 L 183.78 344.06 L 183.81 344.02 L 184.84 343.75 L 184.93 343.74 L 185.02 343.41 L 185.27 343.24 L 185.39 342.95 L 185.43 342.70 L 185.56 342.26 L 185.86 342.25 L 185.87 341.95 L 185.98 341.62 L 186.10 341.61 L 186.23 341.24 L 186.39 340.97 L 186.46 340.84 L 186.48 340.83 L 186.62 340.54 L 186.65 340.54 L 186.81 340.25 L 186.83 340.24 L 187.07 338.85 L 187.11 338.85 L 187.20 338.61 L 187.30 338.60 L 187.44 338.60 L 187.50 338.57 L 187.97 338.31 L 187.98 338.32 L 188.07 337.70 L 188.28 337.68 L 188.47 336.75 L 188.53 336.67 L 188.62 336.66 L 188.66 336.63 L 188.77 335.91 L 189.30 329.85 L 189.35 329.55 L 189.54 329.53 L 189.59 329.45 L 189.63 329.43 L 189.72 329.27 L 189.80 328.58 L 189.99 328.44 L 190.12 328.43 L 190.22 328.13 L 190.28 328.12 L 190.76 327.89 L 191.02 327.72 L 191.09 327.45 L 191.32 327.44 L 191.34 327.44 L 191.36 327.41 L 191.50 325.95 L 191.61 325.87 L 192.00 324.40 L 192.06 323.97 L 192.14 323.96 L 192.24 323.80 L 192.25 323.69 L 192.30 323.62 L 192.33 323.58 L 192.39 323.58 L 192.44 323.50 L 192.59 322.30 L 192.71 322.12 L 192.82 321.77 L 192.97 321.74 L 193.14 321.63 L 193.31 320.78 L 193.43 319.60 L 193.67 319.54 L 193.68 319.10 L 193.82 318.95 L 205.57 318.95 L 205.79 318.94 L 206.34 318.32 L 206.46 318.30 L 206.55 318.30 L 206.57 318.15 L 206.77 317.95 L 206.91 317.92 L 206.99 317.80 L 207.07 317.72 L 207.12 317.68 L 207.33 317.62 L 207.75 317.55 L 207.86 317.23 L 207.94 317.15 L 208.04 317.14 L 208.59 316.97 L 208.66 316.88 L 208.70 316.88 L 208.73 316.76 L 208.85 316.71 L 208.94 316.59 L 209.34 315.80 L 209.91 315.67 L 210.11 315.62 L 210.74 315.42 L 211.04 311.61 L 211.14 311.53 L 211.27 311.16 L 211.46 310.66 L 211.74 310.52 L 212.14 310.50 L 212.67 310.49 L 212.75 310.32 L 213.14 310.15 L 213.39 309.87 L 213.47 309.76 L 213.62 309.72 L 213.74 309.38 L 215.13 309.00 L 216.45 309.00 L 228.27 308.97 L 228.36 308.80 L 228.42 308.70 L 228.79 308.53 L 229.89 307.22 L 229.94 307.13 L 230.09 306.80 L 230.64 306.71 L 230.89 305.82 L 231.29 305.81 L 231.38 305.80 L 231.46 305.19 L 232.15 301.72 L 232.23 301.72 L 232.37 301.69 L 232.53 301.65 L 232.60 301.27 L 232.98 299.96 L 233.12 299.72 L 233.18 299.70 L 233.27 299.10 L 233.44 298.25 L 233.51 297.35 L 233.68 296.94 L 234.19 292.44 L 234.24 291.98 L 234.29 291.98 L 234.37 291.90 L 234.50 291.79 L 234.55 291.75 L 234.59 291.70 L 234.84 290.62 L 234.90 289.86 L 235.20 289.70 L 235.38 288.57 L 235.49 287.85 L 236.41 277.35 L 236.51 277.32 L 271.25 276.82 L 271.29 276.82 L 284.57 276.68 L 285.29 276.39 L 285.44 276.39 L 285.63 276.31 L 285.70 276.18 L 285.77 276.14 L 291.53 276.07 L 292.29 274.07 L 292.57 273.89 L 292.73 273.15 L 296.31 273.00 L 296.33 272.80 L 296.56 272.78 L 297.63 271.52 L 297.69 271.29 L 297.83 271.22 L 298.20 271.13 L 298.25 271.10 L 298.40 270.72 L 298.56 270.61 L 298.59 270.33 L 309.75 269.95 L 309.83 268.87 L 310.28 268.63 L 310.28 266.83 L 310.36 266.56 L 310.45 266.12 L 310.58 264.88 L 310.77 264.22 L 310.93 263.45 L 311.07 263.44 L 311.13 262.85 L 311.35 262.80 L 312.13 259.90 L 312.44 259.59 L 312.49 259.41 L 312.55 259.40 L 312.60 259.20 L 312.70 258.49 L 313.02 258.15 L 313.06 258.10 L 313.25 255.55 L 313.33 255.54 L 313.36 255.27 L 313.43 255.06 L 313.48 255.05 L 313.52 254.67 L 313.77 253.29 L 313.87 252.90 L 314.01 252.85 L 314.10 249.15 L 314.14 248.85 L 314.38 246.75 L 314.45 246.58 L 314.50 246.58 L 314.56 246.57 L 314.60 246.28 L 314.63 246.29 L 314.65 246.28 L 314.77 242.55 L 314.82 242.23 L 314.94 242.21 L 315.02 242.14 L 315.27 242.04 L 315.58 241.90 L 315.59 241.90 L 315.68 241.85 L 315.96 241.78 L 316.10 241.78 L 316.23 241.78 L 316.38 240.16 L 316.47 239.77 L 316.87 239.76 L 316.90 239.50 L 316.95 239.50 L 316.98 239.22 L 317.24 236.87 L 317.29 236.82 L 317.48 236.80 L 334.64 236.73 L 335.62 236.61 L 335.65 236.61 L 335.85 236.61 L 335.86 236.61 L 335.99 236.14 L 336.08 236.12 L 336.17 235.90 L 336.29 235.84 L 336.32 235.80 L 336.36 235.79 L 336.55 235.52 L 336.92 235.29 L 337.16 234.53 L 337.42 233.82 L 337.43 233.78 L 337.47 233.11 L 337.51 233.08 L 338.02 232.68 L 338.03 232.64 L 338.11 232.10 L 338.33 232.05 L 338.47 231.99 L 338.50 231.04 L 338.51 230.99 L 338.57 231.90 L 338.61 231.34 L 338.63 231.32 L 338.75 230.05 L 338.76 230.01 L 339.03 229.91 L 339.77 229.89 L 339.94 229.84 L 339.99 229.83 L 340.03 229.67 L 340.07 229.67 L 340.18 229.04 L 351.91 227.82 L 351.93 227.65 L 352.03 227.54 L 352.06 227.30 L 352.12 216.67 L 352.25 212.32 L 352.27 212.29 L 352.48 212.21 L 352.54 212.21 L 352.57 211.71 L 352.76 211.66 L 353.27 210.63 L 353.28 210.61 L 353.41 210.29 L 353.46 210.30 L 353.49 209.78 L 353.91 209.18 L 353.92 209.16 L 354.56 208.92 L 354.64 208.38 L 354.87 208.39 L 355.14 207.01 L 355.20 206.48 L 355.25 206.04 L 355.37 205.51 L 355.70 205.32 L 355.76 205.19 L 355.91 205.07 L 356.07 205.07 L 356.56 205.07 L 356.62 205.07 L 356.73 205.05 L 356.74 205.04 L 356.90 205.06 L 357.27 205.03 L 357.65 204.83 L 357.71 204.83 L 357.80 204.75 L 357.91 204.60 L 358.20 204.60 L 358.70 204.41 L 358.86 203.99 L 359.13 200.32 L 360.21 203.42 L 360.44 203.41 L 360.62 203.39 L 360.89 203.39 L 360.97 203.33 L 361.24 203.16 L 361.67 202.90 L 361.72 202.73 L 361.80 202.67 L 361.85 202.68 L 361.89 202.63 L 362.23 202.40 L 370.01 202.40 L 370.08 202.40 L 370.56 202.39 L 370.61 202.37 L 370.72 201.90 L 370.81 201.64 L 370.82 201.64 L 371.09 201.60 L 371.15 201.57 L 372.75 200.89 L 372.93 200.83 L 373.07 200.81 L 373.10 200.81 L 373.59 200.64 L 373.76 200.73 L 373.79 200.72 L 374.06 200.68 L 374.35 199.23 L 374.38 199.22 L 374.63 199.05 L 374.72 199.05 L 374.82 199.05 L 375.02 198.89 L 375.45 198.30 L 375.53 198.28 L 375.61 198.12 L 375.79 197.43 L 376.22 196.71 L 376.60 193.34 L 376.67 192.93 L 377.06 192.77 L 377.13 192.68 L 377.19 192.52 L 377.23 191.98 L 377.37 191.01 L 377.40 191.05 L 377.46 191.03 L 377.68 191.02 L 378.02 190.67 L 378.23 190.60 L 378.47 190.58 L 378.58 190.57 L 378.82 190.56 L 379.21 190.56 L 379.60 190.55 L 379.90 190.55 L 379.97 190.54 L 380.05 190.53 L 380.05 190.41 L 380.28 190.34 L 380.35 190.33 L 380.44 190.18 L 381.08 190.16 L 381.09 189.87 L 381.26 189.85 L 382.01 189.86 L 382.50 189.68 L 382.86 189.47 L 382.87 189.35 L 382.90 189.35 L 393.80 189.15 L 393.83 189.14 L 393.96 189.13 L 394.02 188.96 L 394.06 188.94 L 394.06 188.93 L 394.53 188.89 L 394.63 188.28 L 394.77 188.14 L 395.00 186.94 L 395.15 186.92 L 395.34 186.41 L 395.44 186.48 L 395.49 186.47 L 395.55 185.89 L 395.68 185.49 L 395.70 185.06 L 395.75 185.01 L 395.87 184.97 L 395.94 184.77 L 396.04 187.07 L 396.17 187.02 L 396.44 186.11 L 396.56 185.88 L 396.66 185.69 L 397.33 184.37 L 397.90 183.74 L 398.59 182.52 L 398.77 182.46 L 398.96 182.46 L 399.18 182.41 L 403.18 182.06 L 403.51 182.03 L 441.47 181.11 L 560.97 180.89 L 561.37 180.52 L 561.65 180.47 L 561.92 180.47 L 562.33 179.75 L 562.48 179.41 L 562.58 178.77 L 562.77 176.92 L 563.05 177.30 L 563.27 176.89 L 563.32 176.89 L 563.51 176.77 L 563.55 176.77 L 563.75 176.09 L 563.92 175.00 L 564.46 173.85 L 564.48 173.76 L 564.64 172.38 L 565.15 168.98 L 565.16 168.86 L 565.26 168.79 L 565.39 167.57 L 565.95 165.94 L 565.96 165.79 L 566.08 165.71 L 566.21 164.90 L 566.42 164.26 L 566.43 164.14 L 566.52 162.90 L 566.54 162.87 L 566.58 162.52 L 566.82 160.30 L 566.85 160.18 L 566.93 160.05 L 567.18 159.75 L 567.24 159.74 L 567.43 159.32 L 567.77 159.37 L 567.82 159.31 L 567.86 159.29 L 567.92 159.25 L 568.09 157.95 L 568.26 156.89 L 568.29 156.80 L 568.39 155.47 L 568.49 154.18 L 568.51 154.01 L 568.62 152.50 L 568.66 151.30 L 568.87 150.50 L 568.90 150.44 L 569.00 150.19 L 569.15 150.17 L 570.00 150.14 L 570.43 150.10 L 579.77 150.15 L 579.86 149.92 L 579.95 149.72 L 580.11 148.83 L 580.46 148.60 L 580.49 148.51 L 580.56 147.33 L 580.78 146.19 L 580.80 146.09 L 582.84 146.01 L 582.96 145.37 L 583.99 145.18 L 584.11 145.13 L 584.23 143.80 L 585.46 142.55 L 585.99 142.08 L 586.12 141.10 L 586.57 139.43 L 586.85 138.95 L 587.30 137.97 L 588.12 137.47 L 600.62 137.46 L 601.37 137.35 L 601.40 137.37 L 602.45 137.17 L 602.50 137.08 L 602.86 137.00 L 603.29 135.91 L 603.29 135.91 L 603.34 135.87 L 603.89 134.62 L 605.18 133.91 L 605.26 133.85 L 605.39 133.84 L 605.59 133.51 L 605.64 133.43 L 605.72 133.36 L 606.31 133.32 L 606.79 133.32 L 607.05 133.31 L 607.09 133.27 L 607.62 132.18 L 608.03 131.97 L 608.05 131.89 L 608.10 131.80 L 608.16 131.51 L 621.72 131.09 L 621.74 131.07 L 621.78 131.06 L 622.04 130.93 L 622.25 130.80 L 623.44 129.13 L 623.74 128.93 L 624.60 128.43 L 625.34 128.31 L 625.89 128.14 L 626.04 126.60 L 626.73 124.80 L 626.98 124.67 L 627.07 123.50 L 629.08 121.36 L 629.10 121.36 L 629.21 120.84 L 629.59 120.78 L 629.60 120.78 L 629.62 120.65 L 629.69 120.48 L 629.86 120.31 L 630.08 119.41 L 632.16 117.24 L 632.43 116.98 L 632.62 116.59 L 632.64 116.55 L 632.68 116.24 L 641.92 115.26 L 642.22 114.52 L 642.39 114.48 L 642.46 113.99 L 643.33 113.76 L 643.51 113.27 L 643.67 113.27 L 643.77 112.23 L 644.06 109.58 L 644.11 109.54 L 644.50 109.50 L 644.59 108.63 L 644.92 107.60 L 644.99 106.88 L 645.26 106.22 L 645.47 105.87 L 645.62 105.08 L 645.97 104.40 L 646.01 103.65 L 646.45 103.48 L 646.49 103.48 L 646.57 102.52 L 646.66 102.52 L 646.70 102.45 L 647.22 100.65 L 647.97 100.06 L 648.34 100.25 L 649.56 100.17 L 649.59 100.16 L 649.78 100.14 L 649.86 100.12 L 650.00 100.00"/>
	</g>
	<g id="poloto_plot1" class="poloto_plot poloto_imgs poloto_line poloto1 poloto_stroke" fill="none" stroke="black">
		<path d=" M 150.00 381.51 L 150.03 381.49 L 150.05 381.48 L 150.06 381.48 L 150.08 381.48 L 150.11 380.90 L 150.24 380.87 L 150.54 380.87 L 150.97 380.64 L 151.19 380.54 L 151.63 380.57 L 151.71 380.53 L 151.77 380.53 L 152.28 380.48 L 153.25 380.37 L 153.55 378.09 L 153.63 378.09 L 154.21 378.03 L 154.88 378.02 L 154.89 378.02 L 154.89 378.02 L 163.97 378.02 L 164.03 378.02 L 164.15 378.02 L 164.19 377.99 L 164.54 377.98 L 164.70 377.98 L 165.08 377.98 L 165.13 377.98 L 165.24 377.96 L 165.36 377.96 L 165.39 377.96 L 165.49 377.93 L 165.59 377.93 L 165.69 377.93 L 165.94 377.81 L 166.16 377.81 L 166.20 377.81 L 166.31 377.81 L 167.03 378.66 L 167.05 378.66 L 167.14 378.65 L 167.55 378.52 L 167.88 378.38 L 168.25 378.32 L 168.33 378.27 L 168.34 378.27 L 168.41 378.27 L 168.55 378.27 L 168.73 378.22 L 169.09 378.17 L 169.11 378.17 L 169.17 378.17 L 169.26 378.15 L 169.46 378.15 L 169.49 378.15 L 169.70 378.14 L 169.78 378.14 L 169.86 378.14 L 169.94 378.14 L 171.05 378.03 L 171.31 378.03 L 171.93 377.98 L 172.06 377.98 L 172.15 377.98 L 172.21 377.98 L 172.63 377.91 L 172.82 377.91 L 173.04 377.83 L 173.14 377.82 L 173.40 377.64 L 173.51 377.57 L 173.66 377.57 L 173.80 377.57 L 174.29 374.89 L 174.31 374.85 L 174.33 374.85 L 174.50 374.59 L 182.91 374.59 L 183.78 373.44 L 183.81 373.44 L 184.84 373.44 L 184.93 373.43 L 185.02 373.31 L 185.27 373.29 L 185.39 373.29 L 185.43 373.29 L 185.56 373.29 L 185.86 373.29 L 185.87 373.04 L 185.98 373.04 L 186.10 373.04 L 186.23 373.01 L 186.39 373.00 L 186.46 373.00 L 186.48 373.00 L 186.62 373.00 L 186.65 373.00 L 186.81 373.00 L 186.83 373.00 L 187.07 371.87 L 187.11 371.87 L 187.20 371.73 L 187.30 371.73 L 187.44 371.73 L 187.50 371.72 L 187.97 371.72 L 187.98 371.72 L 188.07 371.65 L 188.28 371.65 L 188.47 371.00 L 188.53 370.92 L 188.62 370.92 L 188.66 370.92 L 188.77 370.90 L 189.30 366.12 L 189.35 366.16 L 189.54 366.16 L 189.59 366.16 L 189.63 366.16 L 189.72 366.16 L 189.80 366.09 L 189.99 366.09 L 190.12 366.09 L 190.22 366.08 L 190.28 366.08 L 190.76 366.07 L 191.02 366.07 L 191.09 365.95 L 191.32 365.95 L 191.34 365.95 L 191.36 365.95 L 191.50 365.63 L 191.61 365.55 L 192.00 364.41 L 192.06 364.41 L 192.14 364.41 L 192.24 364.43 L 192.25 364.43 L 192.30 364.43 L 192.33 364.43 L 192.39 364.43 L 192.44 364.43 L 192.59 364.41 L 192.71 364.41 L 192.82 364.39 L 192.97 364.39 L 193.14 364.39 L 193.31 363.96 L 193.43 363.82 L 193.67 363.82 L 193.68 363.82 L 193.82 363.82 L 205.57 363.82 L 205.79 363.81 L 206.34 363.74 L 206.46 363.72 L 206.55 363.72 L 206.57 363.72 L 206.77 363.72 L 206.91 363.72 L 206.99 363.72 L 207.07 363.72 L 207.12 363.72 L 207.33 363.72 L 207.75 363.74 L 207.86 363.74 L 207.94 363.74 L 208.04 363.74 L 208.59 363.65 L 208.66 363.61 L 208.70 363.61 L 208.73 363.55 L 208.85 363.54 L 208.94 363.54 L 209.34 363.11 L 209.91 363.11 L 210.11 363.11 L 210.74 363.11 L 211.04 360.18 L 211.14 360.18 L 211.27 360.18 L 211.46 360.18 L 211.74 360.18 L 212.14 360.18 L 212.67 360.18 L 212.75 360.18 L 213.14 360.11 L 213.39 359.98 L 213.47 359.98 L 213.62 359.98 L 213.74 359.97 L 215.13 359.78 L 216.45 359.78 L 228.27 359.78 L 228.36 359.78 L 228.42 359.78 L 228.79 359.78 L 229.89 358.86 L 229.94 358.83 L 230.09 358.74 L 230.64 358.73 L 230.89 358.51 L 231.29 358.51 L 231.38 358.51 L 231.46 358.51 L 232.15 355.94 L 232.23 355.94 L 232.37 355.94 L 232.53 355.94 L 232.60 355.78 L 232.98 355.47 L 233.12 355.47 L 233.18 355.47 L 233.27 355.00 L 233.44 354.53 L 233.51 354.53 L 233.68 354.52 L 234.19 350.70 L 234.24 350.70 L 234.29 350.70 L 234.37 350.70 L 234.50 350.70 L 234.55 350.70 L 234.59 350.70 L 234.84 350.70 L 234.90 350.61 L 235.20 350.60 L 235.38 350.54 L 235.49 350.08 L 236.41 342.48 L 236.51 342.48 L 271.25 342.48 L 271.29 342.48 L 284.57 342.48 L 285.29 342.36 L 285.44 342.36 L 285.63 342.36 L 285.70 342.36 L 285.77 342.36 L 291.53 342.30 L 292.29 342.23 L 292.57 342.23 L 292.73 342.20 L 296.31 342.14 L 296.33 342.04 L 296.56 342.04 L 297.63 341.01 L 297.69 341.01 L 297.83 341.01 L 298.20 341.01 L 298.25 341.01 L 298.40 341.01 L 298.56 341.01 L 298.59 341.01 L 309.75 340.99 L 309.83 340.81 L 310.28 340.81 L 310.28 339.56 L 310.36 339.56 L 310.45 339.56 L 310.58 339.45 L 310.77 339.45 L 310.93 339.40 L 311.07 339.40 L 311.13 339.40 L 311.35 339.38 L 312.13 337.27 L 312.44 337.27 L 312.49 337.25 L 312.55 337.25 L 312.60 337.25 L 312.70 337.22 L 313.02 336.96 L 313.06 336.92 L 313.25 335.03 L 313.33 335.02 L 313.36 335.02 L 313.43 334.99 L 313.48 334.99 L 313.52 334.99 L 313.77 333.96 L 313.87 333.94 L 314.01 333.92 L 314.10 330.71 L 314.14 330.71 L 314.38 328.90 L 314.45 328.90 L 314.50 328.90 L 314.56 328.90 L 314.60 328.90 L 314.63 328.90 L 314.65 328.90 L 314.77 325.56 L 314.82 325.55 L 314.94 325.54 L 315.02 325.54 L 315.27 325.47 L 315.58 325.38 L 315.59 325.38 L 315.68 325.36 L 315.96 325.31 L 316.10 325.31 L 316.23 325.31 L 316.38 323.87 L 316.47 323.87 L 316.87 323.86 L 316.90 323.86 L 316.95 323.86 L 316.98 323.86 L 317.24 321.80 L 317.29 321.80 L 317.48 321.79 L 334.64 321.79 L 335.62 321.77 L 335.65 321.77 L 335.85 321.77 L 335.86 321.77 L 335.99 321.77 L 336.08 321.77 L 336.17 321.67 L 336.29 321.67 L 336.32 321.67 L 336.36 321.67 L 336.55 321.48 L 336.92 321.37 L 337.16 321.25 L 337.42 320.66 L 337.43 320.66 L 337.47 320.52 L 337.51 320.50 L 338.02 320.14 L 338.03 320.14 L 338.11 320.09 L 338.33 320.09 L 338.47 320.06 L 338.50 319.20 L 338.51 319.20 L 338.57 320.05 L 338.61 320.00 L 338.63 319.99 L 338.75 318.84 L 338.76 318.84 L 339.03 318.80 L 339.77 318.80 L 339.94 318.80 L 339.99 318.80 L 340.03 318.80 L 340.07 318.80 L 340.18 318.72 L 351.91 317.77 L 351.93 317.77 L 352.03 317.76 L 352.06 317.56 L 352.12 307.40 L 352.25 303.63 L 352.27 303.63 L 352.48 303.56 L 352.54 303.56 L 352.57 303.54 L 352.76 303.54 L 353.27 302.62 L 353.28 302.62 L 353.41 302.57 L 353.46 302.57 L 353.49 302.49 L 353.91 301.94 L 353.92 301.94 L 354.56 301.83 L 354.64 301.79 L 354.87 301.80 L 355.14 300.55 L 355.20 300.43 L 355.25 300.31 L 355.37 299.84 L 355.70 299.73 L 355.76 299.63 L 355.91 299.63 L 356.07 299.63 L 356.56 299.63 L 356.62 299.63 L 356.73 299.63 L 356.74 299.63 L 356.90 299.64 L 357.27 299.64 L 357.65 299.51 L 357.71 299.51 L 357.80 299.49 L 357.91 299.49 L 358.20 299.49 L 358.70 299.49 L 358.86 299.38 L 359.13 296.10 L 360.21 299.20 L 360.44 299.18 L 360.62 299.17 L 360.89 299.17 L 360.97 299.14 L 361.24 299.12 L 361.67 298.93 L 361.72 298.93 L 361.80 298.93 L 361.85 298.93 L 361.89 298.93 L 362.23 298.75 L 370.01 298.75 L 370.08 298.76 L 370.56 298.74 L 370.61 298.74 L 370.72 298.71 L 370.81 298.48 L 370.82 298.48 L 371.09 298.45 L 371.15 298.45 L 372.75 298.27 L 372.93 298.27 L 373.07 298.27 L 373.10 298.27 L 373.59 298.13 L 373.76 298.13 L 373.79 298.13 L 374.06 298.13 L 374.35 297.35 L 374.38 297.35 L 374.63 297.22 L 374.72 297.22 L 374.82 297.22 L 375.02 297.22 L 375.45 297.21 L 375.53 297.19 L 375.61 297.12 L 375.79 296.98 L 376.22 296.86 L 376.60 293.77 L 376.67 293.67 L 377.06 293.52 L 377.13 293.49 L 377.19 293.38 L 377.23 293.16 L 377.37 292.23 L 377.40 292.27 L 377.46 292.25 L 377.68 292.25 L 378.02 292.12 L 378.23 292.08 L 378.47 292.06 L 378.58 292.05 L 378.82 292.04 L 379.21 292.04 L 379.60 292.03 L 379.90 292.03 L 379.97 292.02 L 380.05 292.02 L 380.05 292.01 L 380.28 292.01 L 380.35 292.00 L 380.44 291.89 L 381.08 291.87 L 381.09 291.87 L 381.26 291.86 L 382.01 291.86 L 382.50 291.71 L 382.86 291.57 L 382.87 291.57 L 382.90 291.57 L 393.80 291.57 L 393.83 291.57 L 393.96 291.57 L 394.02 291.57 L 394.06 291.55 L 394.06 291.55 L 394.53 291.55 L 394.63 291.54 L 394.77 291.52 L 395.00 291.50 L 395.15 291.50 L 395.34 291.43 L 395.44 291.43 L 395.49 291.43 L 395.55 291.43 L 395.68 291.14 L 395.70 291.14 L 395.75 291.14 L 395.87 291.14 L 395.94 291.14 L 396.04 291.21 L 396.17 291.21 L 396.44 291.20 L 396.56 291.20 L 396.66 291.20 L 397.33 290.29 L 397.90 290.05 L 398.59 289.40 L 398.77 289.40 L 398.96 289.40 L 399.18 289.40 L 403.18 289.32 L 403.51 289.31 L 441.47 289.20 L 560.97 289.03 L 561.37 288.98 L 561.65 288.97 L 561.92 288.97 L 562.33 288.55 L 562.48 288.55 L 562.58 288.55 L 562.77 287.03 L 563.05 287.32 L 563.27 287.30 L 563.32 287.30 L 563.51 287.29 L 563.55 287.29 L 563.75 287.28 L 563.92 287.21 L 564.46 286.25 L 564.48 286.25 L 564.64 286.16 L 565.15 283.05 L 565.16 283.05 L 565.26 283.04 L 565.39 282.99 L 565.95 281.54 L 565.96 281.54 L 566.08 281.54 L 566.21 281.51 L 566.42 280.98 L 566.43 280.98 L 566.52 280.97 L 566.54 280.97 L 566.58 280.68 L 566.82 278.62 L 566.85 278.62 L 566.93 278.62 L 567.18 278.44 L 567.24 278.44 L 567.43 278.10 L 567.77 278.10 L 567.82 278.10 L 567.86 278.10 L 567.92 278.10 L 568.09 278.09 L 568.26 277.16 L 568.29 277.16 L 568.39 277.16 L 568.49 276.46 L 568.51 276.46 L 568.62 275.71 L 568.66 275.66 L 568.87 274.93 L 568.90 274.93 L 569.00 274.93 L 569.15 274.91 L 570.00 274.91 L 570.43 274.91 L 579.77 274.91 L 579.86 274.91 L 579.95 274.91 L 580.11 274.91 L 580.46 274.71 L 580.49 274.71 L 580.56 274.65 L 580.78 273.62 L 580.80 273.62 L 582.84 273.64 L 582.96 273.44 L 583.99 273.44 L 584.11 273.43 L 584.23 273.36 L 585.46 272.51 L 585.99 272.35 L 586.12 272.29 L 586.57 270.68 L 586.85 270.68 L 587.30 270.55 L 588.12 270.55 L 600.62 270.54 L 601.37 270.45 L 601.40 270.47 L 602.45 270.47 L 602.50 270.47 L 602.86 270.47 L 603.29 270.43 L 603.29 270.43 L 603.34 270.43 L 603.89 269.49 L 605.18 269.47 L 605.26 269.47 L 605.39 269.46 L 605.59 269.43 L 605.64 269.40 L 605.72 269.40 L 606.31 269.35 L 606.79 269.35 L 607.05 269.35 L 607.09 269.35 L 607.62 269.33 L 608.03 269.22 L 608.05 269.22 L 608.10 269.22 L 608.16 269.22 L 621.72 269.00 L 621.74 269.00 L 621.78 269.00 L 622.04 269.00 L 622.25 269.00 L 623.44 268.07 L 623.74 268.02 L 624.60 267.95 L 625.34 267.90 L 625.89 267.90 L 626.04 267.90 L 626.73 266.49 L 626.98 266.45 L 627.07 266.40 L 629.08 265.42 L 629.10 265.42 L 629.21 265.41 L 629.59 265.39 L 629.60 265.39 L 629.62 265.39 L 629.69 265.36 L 629.86 265.32 L 630.08 265.21 L 632.16 263.59 L 632.43 263.51 L 632.62 263.51 L 632.64 263.51 L 632.68 263.51 L 641.92 263.51 L 642.22 263.49 L 642.39 263.49 L 642.46 263.49 L 643.33 263.49 L 643.51 263.49 L 643.67 263.49 L 643.77 263.46 L 644.06 261.33 L 644.11 261.31 L 644.50 261.32 L 644.59 261.31 L 644.92 260.48 L 644.99 260.43 L 645.26 259.89 L 645.47 259.89 L 645.62 259.85 L 645.97 259.35 L 646.01 259.35 L 646.45 257.76 L 646.49 257.76 L 646.57 257.75 L 646.66 257.75 L 646.70 257.75 L 647.22 256.16 L 647.97 256.02 L 648.34 256.02 L 649.56 255.98 L 649.59 255.98 L 649.78 255.98 L 649.86 255.98 L 650.00 255.98"/>
	</g>
	<g id="poloto_plot2" class="poloto_plot poloto_imgs poloto_line poloto2 poloto_stroke" fill="none" stroke="black">
		<path d=" M 150.00 391.70 L 150.03 391.70 L 150.05 391.70 L 150.06 391.70 L 150.08 391.70 L 150.11 389.57 L 150.24 389.28 L 150.54 389.28 L 150.97 389.26 L 151.19 387.99 L 151.63 387.88 L 151.71 387.84 L 151.77 387.81 L 152.28 387.24 L 153.25 386.80 L 153.55 386.71 L 153.63 386.72 L 154.21 386.68 L 154.88 386.68 L 154.89 386.68 L 154.89 386.68 L 163.97 386.68 L 164.03 386.68 L 164.15 386.66 L 164.19 386.66 L 164.54 386.53 L 164.70 386.50 L 165.08 386.29 L 165.13 386.20 L 165.24 386.01 L 165.36 385.98 L 165.39 385.98 L 165.49 385.95 L 165.59 385.95 L 165.69 385.95 L 165.94 385.74 L 166.16 385.54 L 166.20 385.54 L 166.31 385.43 L 167.03 385.17 L 167.05 385.17 L 167.14 385.09 L 167.55 384.81 L 167.88 384.46 L 168.25 384.32 L 168.33 384.32 L 168.34 384.32 L 168.41 384.13 L 168.55 384.13 L 168.73 384.11 L 169.09 383.96 L 169.11 383.71 L 169.17 383.71 L 169.26 383.59 L 169.46 383.59 L 169.49 383.59 L 169.70 383.22 L 169.78 383.20 L 169.86 383.16 L 169.94 382.99 L 171.05 382.89 L 171.31 382.85 L 171.93 382.59 L 172.06 382.60 L 172.15 382.58 L 172.21 382.39 L 172.63 381.35 L 172.82 381.33 L 173.04 381.02 L 173.14 380.99 L 173.40 380.85 L 173.51 380.80 L 173.66 380.58 L 173.80 380.40 L 174.29 380.40 L 174.31 380.37 L 174.33 380.22 L 174.50 379.22 L 182.91 379.12 L 183.78 378.81 L 183.81 378.77 L 184.84 378.53 L 184.93 378.52 L 185.02 378.33 L 185.27 378.21 L 185.39 377.98 L 185.43 377.79 L 185.56 377.42 L 185.86 377.41 L 185.87 377.41 L 185.98 377.15 L 186.10 377.15 L 186.23 376.87 L 186.39 376.66 L 186.46 376.54 L 186.48 376.54 L 186.62 376.29 L 186.65 376.28 L 186.81 376.05 L 186.83 376.04 L 187.07 375.96 L 187.11 375.96 L 187.20 375.88 L 187.30 375.86 L 187.44 375.86 L 187.50 375.84 L 187.97 375.62 L 187.98 375.63 L 188.07 375.17 L 188.28 375.16 L 188.47 375.02 L 188.53 375.02 L 188.62 375.01 L 188.66 374.98 L 188.77 374.36 L 189.30 373.84 L 189.35 373.55 L 189.54 373.53 L 189.59 373.45 L 189.63 373.44 L 189.72 373.31 L 189.80 372.82 L 189.99 372.74 L 190.12 372.73 L 190.22 372.48 L 190.28 372.48 L 190.76 372.29 L 191.02 372.16 L 191.09 372.05 L 191.32 372.04 L 191.34 372.04 L 191.36 372.02 L 191.50 371.13 L 191.61 371.12 L 192.00 370.99 L 192.06 370.64 L 192.14 370.63 L 192.24 370.49 L 192.25 370.40 L 192.30 370.34 L 192.33 370.31 L 192.39 370.31 L 192.44 370.24 L 192.59 369.24 L 192.71 369.14 L 192.82 368.84 L 192.97 368.82 L 193.14 368.72 L 193.31 368.41 L 193.43 367.54 L 193.67 367.48 L 193.68 367.11 L 193.82 367.02 L 205.57 367.02 L 205.79 367.02 L 206.34 366.61 L 206.46 366.61 L 206.55 366.61 L 206.57 366.50 L 206.77 366.33 L 206.91 366.29 L 206.99 366.19 L 207.07 366.11 L 207.12 366.08 L 207.33 366.02 L 207.75 366.10 L 207.86 365.83 L 207.94 365.76 L 208.04 365.75 L 208.59 365.69 L 208.66 365.65 L 208.70 365.65 L 208.73 365.59 L 208.85 365.55 L 208.94 365.45 L 209.34 365.19 L 209.91 365.08 L 210.11 365.03 L 210.74 364.87 L 211.04 364.46 L 211.14 364.40 L 211.27 364.08 L 211.46 363.67 L 211.74 363.56 L 212.14 363.56 L 212.67 363.54 L 212.75 363.39 L 213.14 363.29 L 213.39 363.16 L 213.47 363.06 L 213.62 363.02 L 213.74 362.75 L 215.13 362.61 L 216.45 362.61 L 228.27 362.58 L 228.36 362.44 L 228.42 362.34 L 228.79 362.18 L 229.89 361.91 L 229.94 361.88 L 230.09 361.69 L 230.64 361.61 L 230.89 361.08 L 231.29 361.07 L 231.38 361.05 L 231.46 360.54 L 232.15 360.05 L 232.23 360.05 L 232.37 360.02 L 232.53 359.98 L 232.60 359.80 L 232.98 359.00 L 233.12 358.79 L 233.18 358.78 L 233.27 358.69 L 233.44 358.38 L 233.51 357.57 L 233.68 357.24 L 234.19 357.05 L 234.24 356.65 L 234.29 356.65 L 234.37 356.57 L 234.50 356.46 L 234.55 356.43 L 234.59 356.39 L 234.84 355.46 L 234.90 354.90 L 235.20 354.80 L 235.38 353.86 L 235.49 353.68 L 236.41 352.21 L 236.51 352.19 L 271.25 351.76 L 271.29 351.76 L 284.57 351.63 L 285.29 351.48 L 285.44 351.48 L 285.63 351.40 L 285.70 351.28 L 285.77 351.26 L 291.53 351.24 L 292.29 349.55 L 292.57 349.41 L 292.73 348.82 L 296.31 348.75 L 296.33 348.69 L 296.56 348.68 L 297.63 348.58 L 297.69 348.39 L 297.83 348.32 L 298.20 348.23 L 298.25 348.21 L 298.40 347.88 L 298.56 347.78 L 298.59 347.53 L 309.75 347.21 L 309.83 346.44 L 310.28 346.24 L 310.28 345.95 L 310.36 345.72 L 310.45 345.36 L 310.58 344.43 L 310.77 343.92 L 310.93 343.27 L 311.07 343.26 L 311.13 342.75 L 311.35 342.72 L 312.13 342.24 L 312.44 342.01 L 312.49 341.87 L 312.55 341.87 L 312.60 341.70 L 312.70 341.13 L 313.02 341.07 L 313.06 341.07 L 313.25 340.69 L 313.33 340.69 L 313.36 340.48 L 313.43 340.34 L 313.48 340.34 L 313.52 340.04 L 313.77 339.86 L 313.87 339.56 L 314.01 339.55 L 314.10 339.39 L 314.14 339.16 L 314.38 339.03 L 314.45 338.90 L 314.50 338.90 L 314.56 338.90 L 314.60 338.67 L 314.63 338.67 L 314.65 338.67 L 314.77 338.59 L 314.82 338.33 L 314.94 338.33 L 315.02 338.27 L 315.27 338.25 L 315.58 338.22 L 315.59 338.22 L 315.68 338.20 L 315.96 338.20 L 316.10 338.20 L 316.23 338.20 L 316.38 338.16 L 316.47 337.85 L 316.87 337.85 L 316.90 337.67 L 316.95 337.66 L 316.98 337.46 L 317.24 337.38 L 317.29 337.33 L 317.48 337.33 L 334.64 337.28 L 335.62 337.19 L 335.65 337.19 L 335.85 337.19 L 335.86 337.19 L 335.99 336.83 L 336.08 336.81 L 336.17 336.71 L 336.29 336.66 L 336.32 336.63 L 336.36 336.61 L 336.55 336.57 L 336.92 336.50 L 337.16 336.01 L 337.42 335.98 L 337.43 335.95 L 337.47 335.54 L 337.51 335.54 L 338.02 335.54 L 338.03 335.50 L 338.11 335.12 L 338.33 335.07 L 338.47 335.06 L 338.50 335.05 L 338.51 335.01 L 338.57 334.98 L 338.61 334.60 L 338.63 334.59 L 338.75 334.59 L 338.76 334.55 L 339.03 334.52 L 339.77 334.50 L 339.94 334.47 L 339.99 334.46 L 340.03 334.33 L 340.07 334.33 L 340.18 333.90 L 351.91 333.76 L 351.93 333.64 L 352.03 333.55 L 352.06 333.54 L 352.12 333.17 L 352.25 333.08 L 352.27 333.05 L 352.48 333.05 L 352.54 333.05 L 352.57 332.68 L 352.76 332.64 L 353.27 332.62 L 353.28 332.60 L 353.41 332.40 L 353.46 332.41 L 353.49 332.06 L 353.91 332.06 L 353.92 332.05 L 354.56 331.96 L 354.64 331.55 L 354.87 331.55 L 355.14 331.55 L 355.20 331.25 L 355.25 331.02 L 355.37 331.01 L 355.70 330.96 L 355.76 330.94 L 355.91 330.85 L 356.07 330.85 L 356.56 330.85 L 356.62 330.85 L 356.73 330.82 L 356.74 330.82 L 356.90 330.82 L 357.27 330.80 L 357.65 330.76 L 357.71 330.75 L 357.80 330.71 L 357.91 330.60 L 358.20 330.60 L 358.70 330.47 L 358.86 330.24 L 359.13 330.21 L 360.21 329.96 L 360.44 329.96 L 360.62 329.96 L 360.89 329.95 L 360.97 329.94 L 361.24 329.81 L 361.67 329.79 L 361.72 329.68 L 361.80 329.63 L 361.85 329.64 L 361.89 329.60 L 362.23 329.58 L 370.01 329.58 L 370.08 329.58 L 370.56 329.58 L 370.61 329.56 L 370.72 329.22 L 370.81 329.20 L 370.82 329.21 L 371.09 329.20 L 371.15 329.18 L 372.75 328.68 L 372.93 328.62 L 373.07 328.61 L 373.10 328.61 L 373.59 328.60 L 373.76 328.67 L 373.79 328.66 L 374.06 328.63 L 374.35 328.16 L 374.38 328.15 L 374.63 328.13 L 374.72 328.13 L 374.82 328.13 L 375.02 328.03 L 375.45 327.60 L 375.53 327.60 L 375.61 327.54 L 375.79 327.14 L 376.22 326.71 L 376.60 326.74 L 376.67 326.51 L 377.06 326.51 L 377.13 326.48 L 377.19 326.45 L 377.23 326.22 L 377.37 326.22 L 377.40 326.22 L 377.46 326.22 L 377.68 326.22 L 378.02 326.03 L 378.23 326.01 L 378.47 326.01 L 378.58 326.01 L 378.82 326.01 L 379.21 326.01 L 379.60 326.01 L 379.90 326.01 L 379.97 326.01 L 380.05 326.00 L 380.05 325.92 L 380.28 325.86 L 380.35 325.86 L 380.44 325.85 L 381.08 325.85 L 381.09 325.62 L 381.26 325.62 L 382.01 325.63 L 382.50 325.62 L 382.86 325.57 L 382.87 325.48 L 382.90 325.48 L 393.80 325.33 L 393.83 325.33 L 393.96 325.32 L 394.02 325.18 L 394.06 325.18 L 394.06 325.17 L 394.53 325.13 L 394.63 324.67 L 394.77 324.57 L 395.00 323.67 L 395.15 323.66 L 395.34 323.28 L 395.44 323.32 L 395.49 323.32 L 395.55 322.83 L 395.68 322.74 L 395.70 322.40 L 395.75 322.35 L 395.87 322.32 L 395.94 322.15 L 396.04 324.17 L 396.17 324.14 L 396.44 323.33 L 396.56 323.15 L 396.66 322.97 L 397.33 322.65 L 397.90 322.31 L 398.59 321.83 L 398.77 321.78 L 398.96 321.78 L 399.18 321.74 L 403.18 321.50 L 403.51 321.47 L 441.47 320.84 L 560.97 320.82 L 561.37 320.54 L 561.65 320.49 L 561.92 320.49 L 562.33 320.24 L 562.48 319.94 L 562.58 319.38 L 562.77 319.24 L 563.05 319.29 L 563.27 318.96 L 563.32 318.96 L 563.51 318.86 L 563.55 318.86 L 563.75 318.32 L 563.92 317.49 L 564.46 317.41 L 564.48 317.32 L 564.64 316.26 L 565.15 316.22 L 565.16 316.11 L 565.26 316.05 L 565.39 315.08 L 565.95 315.03 L 565.96 314.90 L 566.08 314.83 L 566.21 314.19 L 566.42 314.17 L 566.43 314.07 L 566.52 313.01 L 566.54 312.98 L 566.58 312.95 L 566.82 312.95 L 566.85 312.84 L 566.93 312.77 L 567.18 312.67 L 567.24 312.66 L 567.43 312.61 L 567.77 312.65 L 567.82 312.60 L 567.86 312.57 L 567.92 312.54 L 568.09 311.45 L 568.26 311.42 L 568.29 311.33 L 568.39 310.20 L 568.49 309.80 L 568.51 309.65 L 568.62 309.10 L 568.66 308.15 L 568.87 308.14 L 568.90 308.08 L 569.00 307.89 L 569.15 307.89 L 570.00 307.85 L 570.43 307.83 L 579.77 307.87 L 579.86 307.66 L 579.95 307.50 L 580.11 306.74 L 580.46 306.73 L 580.49 306.65 L 580.56 305.69 L 580.78 305.69 L 580.80 305.59 L 582.84 305.50 L 582.96 305.15 L 583.99 304.98 L 584.11 304.95 L 584.23 303.88 L 585.46 303.58 L 585.99 303.32 L 586.12 302.52 L 586.57 302.52 L 586.85 302.07 L 587.30 301.39 L 588.12 300.97 L 600.62 300.97 L 601.37 300.96 L 601.40 300.96 L 602.45 300.80 L 602.50 300.72 L 602.86 300.65 L 603.29 299.76 L 603.29 299.76 L 603.34 299.72 L 603.89 299.53 L 605.18 298.94 L 605.26 298.88 L 605.39 298.87 L 605.59 298.62 L 605.64 298.58 L 605.72 298.53 L 606.31 298.53 L 606.79 298.53 L 607.05 298.53 L 607.09 298.49 L 607.62 297.58 L 608.03 297.50 L 608.05 297.43 L 608.10 297.35 L 608.16 297.12 L 621.72 296.95 L 621.74 296.93 L 621.78 296.91 L 622.04 296.80 L 622.25 296.69 L 623.44 296.18 L 623.74 296.07 L 624.60 295.68 L 625.34 295.62 L 625.89 295.47 L 626.04 294.13 L 626.73 293.91 L 626.98 293.84 L 627.07 292.87 L 629.08 291.95 L 629.10 291.95 L 629.21 291.52 L 629.59 291.48 L 629.60 291.48 L 629.62 291.37 L 629.69 291.25 L 629.86 291.15 L 630.08 290.50 L 632.16 290.15 L 632.43 290.00 L 632.62 289.64 L 632.64 289.60 L 632.68 289.37 L 641.92 288.53 L 642.22 287.92 L 642.39 287.90 L 642.46 287.49 L 643.33 287.32 L 643.51 286.89 L 643.67 286.89 L 643.77 285.99 L 644.06 285.78 L 644.11 285.75 L 644.50 285.70 L 644.59 284.96 L 644.92 284.87 L 644.99 284.29 L 645.26 284.23 L 645.47 283.89 L 645.62 283.25 L 645.97 283.12 L 646.01 282.46 L 646.45 283.95 L 646.49 283.95 L 646.57 283.10 L 646.66 283.10 L 646.70 283.03 L 647.22 282.95 L 647.97 282.60 L 648.34 282.78 L 649.56 282.75 L 649.59 282.75 L 649.78 282.73 L 649.86 282.72 L 650.00 282.60"/>
	</g>
	<g class="poloto_legend poloto_imgs poloto_line poloto0 poloto_stroke"><line x1="680" x2="730" y1="81.25" y2="81.25"/></g>
	<g class="poloto_legend poloto_imgs poloto_line poloto1 poloto_stroke"><line x1="680" x2="730" y1="131.25" y2="131.25"/></g>
	<g class="poloto_legend poloto_imgs poloto_line poloto2 poloto_stroke"><line x1="680" x2="730" y1="181.25" y2="181.25"/></g>
	<text class="poloto_legend poloto_text poloto_line poloto0" x="675" y="100">total</text>
	<text class="poloto_legend poloto_text poloto_line poloto1" x="675" y="150">code</text>
	<text class="poloto_legend poloto_text poloto_line poloto2" x="675" y="200">docs</text>
	<text class="poloto_text poloto_name poloto_title" x="400.00" y="37.50">Workspace lines over time</text>
	<text class="poloto_text poloto_name poloto_x" x="400.00" y="640">date (JST)</text>
	<text class="poloto_text poloto_name poloto_y" x="37.50" y="250.00" transform="rotate(-90,37.50,250.00)">lines</text>
	<text class="poloto_text poloto_ticks poloto_y">
		<tspan x="135.00" y="400.00">0</tspan>
		<tspan x="135.00" y="321.12">50K</tspan>
		<tspan x="135.00" y="242.24">100K</tspan>
		<tspan x="135.00" y="163.36">150K</tspan>
	</text>
	<g class="poloto_imgs poloto_ticks poloto_y" stroke="black">
		<line x1="150.00" x2="144.00" y1="400.00" y2="400.00"/>
		<line x1="150.00" x2="144.00" y1="321.12" y2="321.12"/>
		<line x1="150.00" x2="144.00" y1="242.24" y2="242.24"/>
		<line x1="150.00" x2="144.00" y1="163.36" y2="163.36"/>
	</g>
	<g class="poloto_text poloto_ticks poloto_x">
		<text x="228.12" y="430.00" text-anchor="end" transform="rotate(-90 228.12 430.00)">2026-04-24 12:06</text>
		<text x="348.38" y="430.00" text-anchor="end" transform="rotate(-90 348.38 430.00)">2026-04-30 07:00</text>
		<text x="468.64" y="430.00" text-anchor="end" transform="rotate(-90 468.64 430.00)">2026-05-06 01:53</text>
		<text x="588.89" y="430.00" text-anchor="end" transform="rotate(-90 588.89 430.00)">2026-05-11 20:46</text>
	</g>
	<g class="poloto_imgs poloto_ticks poloto_x" stroke="black">
		<line x1="228.12" x2="228.12" y1="400.00" y2="405.00"/>
		<line x1="348.38" x2="348.38" y1="400.00" y2="405.00"/>
		<line x1="468.64" x2="468.64" y1="400.00" y2="405.00"/>
		<line x1="588.89" x2="588.89" y1="400.00" y2="405.00"/>
	</g>
	<path class="poloto_imgs poloto_ticks poloto_x" stroke="black" style="stroke-dasharray:12.02563673341376;stroke-dashoffset:-78.12406801315956;" d=" M 150.00 400.00 L 650.00 400.00"/>
	<path class="poloto_imgs poloto_ticks poloto_y" stroke="black" style="stroke-dasharray:7.888094236432478;stroke-dashoffset:-0;" d=" M 150.00 400.00 L 150.00 100.00"/>
</svg>

