<svg class="poloto" width="800" height="680" viewBox="0 0 800 680" xmlns="http://www.w3.org/2000/svg">
	<style>
.poloto{
  stroke-linecap:round;
  stroke-linejoin:round;
  font-family:Roboto,sans-serif;
  font-size:16px;
}
.poloto_background{fill:AliceBlue;}
.poloto_scatter{stroke-width:7}
.poloto_line{stroke-width:2}
.poloto_text{fill: black;}
.poloto_name{font-size:24px;dominant-baseline:auto;text-anchor:middle;}
.poloto_where{dominant-baseline:middle;text-anchor:start}
.poloto_text.poloto_legend{font-size:20px;dominant-baseline:middle;text-anchor:start;}
.poloto_text.poloto_ticks.poloto_y{dominant-baseline:middle;text-anchor:end}
.poloto_text.poloto_ticks.poloto_x{dominant-baseline:auto;text-anchor:middle}
.poloto_imgs.poloto_ticks{stroke: black;stroke-width:3;fill:none;stroke-dasharray:none}
.poloto_grid{stroke:gray;stroke-width:0.5}

.poloto0.poloto_stroke{stroke:blue;}
.poloto1.poloto_stroke{stroke:red;}
.poloto2.poloto_stroke{stroke:green;}
.poloto3.poloto_stroke{stroke:gold;}
.poloto4.poloto_stroke{stroke:aqua;}
.poloto5.poloto_stroke{stroke:lime;}
.poloto6.poloto_stroke{stroke:orange;}
.poloto7.poloto_stroke{stroke:chocolate;}
.poloto0.poloto_fill{fill:blue;}
.poloto1.poloto_fill{fill:red;}
.poloto2.poloto_fill{fill:green;}
.poloto3.poloto_fill{fill:gold;}
.poloto4.poloto_fill{fill:aqua;}
.poloto5.poloto_fill{fill:lime;}
.poloto6.poloto_fill{fill:orange;}
.poloto7.poloto_fill{fill:chocolate;}
	</style>
	<circle r="1e5" class="poloto_background" fill="white"/>
	<g id="poloto_plot0" class="poloto_plot poloto_imgs poloto_line poloto0 poloto_stroke" fill="none" stroke="black">
		<path d=" M 150.00 370.71 L 150.03 370.69 L 150.04 370.67 L 150.05 370.67 L 150.07 370.67 L 150.10 367.49 L 150.20 367.11 L 150.45 367.09 L 150.81 366.83 L 150.99 365.22 L 151.35 365.12 L 151.42 365.03 L 151.47 365.00 L 151.89 364.21 L 152.70 363.57 L 152.95 361.07 L 153.01 361.08 L 153.50 360.98 L 154.06 360.97 L 154.06 360.97 L 154.06 360.97 L 161.60 360.97 L 161.65 360.96 L 161.75 360.94 L 161.79 360.91 L 162.07 360.77 L 162.20 360.73 L 162.52 360.50 L 162.57 360.40 L 162.66 360.17 L 162.75 360.14 L 162.78 360.13 L 162.86 360.07 L 162.94 360.07 L 163.02 360.08 L 163.23 359.71 L 163.42 359.48 L 163.45 359.48 L 163.54 359.34 L 164.14 359.92 L 164.15 359.91 L 164.23 359.82 L 164.57 359.39 L 164.85 358.88 L 165.15 358.66 L 165.22 358.62 L 165.23 358.62 L 165.29 358.42 L 165.40 358.42 L 165.55 358.35 L 165.85 358.16 L 165.87 357.86 L 165.92 357.86 L 165.99 357.71 L 166.16 357.71 L 166.18 357.71 L 166.36 357.28 L 166.43 357.26 L 166.49 357.22 L 166.56 357.05 L 167.47 356.82 L 167.70 356.78 L 168.21 356.47 L 168.32 356.47 L 168.40 356.46 L 168.44 356.24 L 168.79 354.98 L 168.95 354.96 L 169.13 354.54 L 169.22 354.50 L 169.43 354.14 L 169.52 354.02 L 169.65 353.79 L 169.76 353.60 L 170.17 350.69 L 170.18 350.62 L 170.20 350.44 L 170.34 349.05 L 177.32 348.94 L 178.05 347.35 L 178.07 347.31 L 178.93 347.06 L 179.00 347.06 L 179.08 346.74 L 179.29 346.58 L 179.38 346.31 L 179.42 346.07 L 179.52 345.66 L 179.78 345.65 L 179.78 345.37 L 179.88 345.06 L 179.97 345.05 L 180.08 344.70 L 180.22 344.45 L 180.27 344.32 L 180.29 344.32 L 180.41 344.05 L 180.43 344.04 L 180.56 343.77 L 180.58 343.76 L 180.78 342.45 L 180.82 342.45 L 180.89 342.23 L 180.97 342.22 L 181.09 342.22 L 181.14 342.19 L 181.53 341.94 L 181.54 341.95 L 181.61 341.37 L 181.79 341.35 L 181.94 340.48 L 181.99 340.40 L 182.07 340.39 L 182.10 340.36 L 182.19 339.68 L 182.63 333.98 L 182.68 333.70 L 182.83 333.68 L 182.87 333.61 L 182.91 333.59 L 182.98 333.44 L 183.05 332.79 L 183.20 332.66 L 183.31 332.64 L 183.40 332.36 L 183.45 332.35 L 183.84 332.14 L 184.06 331.98 L 184.12 331.72 L 184.30 331.71 L 184.32 331.71 L 184.34 331.69 L 184.45 330.32 L 184.55 330.24 L 184.87 328.85 L 184.92 328.45 L 184.99 328.44 L 185.07 328.29 L 185.08 328.18 L 185.12 328.12 L 185.15 328.08 L 185.20 328.08 L 185.24 328.01 L 185.37 326.88 L 185.46 326.71 L 185.55 326.38 L 185.68 326.35 L 185.82 326.25 L 185.96 325.45 L 186.06 324.34 L 186.26 324.28 L 186.27 323.86 L 186.38 323.72 L 196.14 323.73 L 196.32 323.71 L 196.78 323.13 L 196.88 323.11 L 196.95 323.11 L 196.97 322.97 L 197.14 322.78 L 197.25 322.76 L 197.32 322.65 L 197.39 322.57 L 197.43 322.53 L 197.60 322.47 L 197.95 322.40 L 198.04 322.10 L 198.11 322.03 L 198.19 322.02 L 198.64 321.86 L 198.71 321.78 L 198.74 321.78 L 198.77 321.66 L 198.87 321.61 L 198.94 321.50 L 199.27 320.76 L 199.74 320.64 L 199.91 320.59 L 200.43 320.40 L 200.68 316.82 L 200.77 316.74 L 200.87 316.39 L 201.03 315.92 L 201.26 315.79 L 201.60 315.78 L 202.04 315.76 L 202.10 315.61 L 202.43 315.44 L 202.63 315.18 L 202.70 315.07 L 202.83 315.03 L 202.93 314.72 L 204.08 314.36 L 205.18 314.36 L 214.99 314.33 L 215.06 314.17 L 215.11 314.08 L 215.42 313.92 L 216.34 312.68 L 216.38 312.60 L 216.50 312.28 L 216.95 312.20 L 217.17 311.37 L 217.49 311.36 L 217.57 311.35 L 217.64 310.78 L 218.21 307.51 L 218.28 307.51 L 218.40 307.48 L 218.52 307.44 L 218.58 307.08 L 218.90 305.85 L 219.01 305.63 L 219.07 305.61 L 219.14 305.04 L 219.28 304.24 L 219.34 303.39 L 219.48 303.01 L 219.91 298.77 L 219.95 298.35 L 219.99 298.35 L 220.05 298.27 L 220.16 298.16 L 220.20 298.12 L 220.24 298.07 L 220.45 297.06 L 220.49 296.34 L 220.74 296.20 L 220.89 295.13 L 220.98 294.46 L 221.74 284.57 L 221.83 284.55 L 250.68 284.07 L 250.71 284.07 L 261.73 283.94 L 262.33 283.67 L 262.46 283.67 L 262.62 283.59 L 262.67 283.47 L 262.74 283.43 L 267.52 283.36 L 268.15 281.48 L 268.38 281.31 L 268.51 280.62 L 271.48 280.48 L 271.50 280.29 L 271.69 280.28 L 272.58 279.09 L 272.63 278.87 L 272.74 278.80 L 273.06 278.72 L 273.10 278.69 L 273.22 278.33 L 273.36 278.23 L 273.38 277.97 L 282.64 277.61 L 282.71 276.59 L 283.08 276.37 L 283.09 274.67 L 283.15 274.42 L 283.23 274.01 L 283.33 272.84 L 283.49 272.22 L 283.62 271.49 L 283.74 271.49 L 283.79 270.93 L 283.98 270.88 L 284.62 268.15 L 284.87 267.86 L 284.92 267.69 L 284.97 267.68 L 285.01 267.49 L 285.09 266.82 L 285.35 266.50 L 285.39 266.46 L 285.55 264.06 L 285.61 264.05 L 285.64 263.79 L 285.70 263.59 L 285.74 263.59 L 285.77 263.23 L 285.98 261.93 L 286.07 261.56 L 286.18 261.51 L 286.26 258.04 L 286.29 257.76 L 286.49 255.77 L 286.55 255.62 L 286.59 255.61 L 286.64 255.61 L 286.67 255.33 L 286.70 255.34 L 286.71 255.33 L 286.81 251.82 L 286.85 251.52 L 286.95 251.50 L 287.02 251.44 L 287.23 251.34 L 287.48 251.21 L 287.49 251.21 L 287.56 251.17 L 287.80 251.10 L 287.91 251.10 L 288.03 251.10 L 288.15 249.57 L 288.23 249.20 L 288.55 249.20 L 288.58 248.96 L 288.62 248.95 L 288.65 248.69 L 288.86 246.48 L 288.90 246.43 L 289.06 246.41 L 303.31 246.35 L 304.13 246.23 L 304.15 246.23 L 304.31 246.23 L 304.32 246.23 L 304.43 245.79 L 304.51 245.78 L 304.58 245.56 L 304.68 245.51 L 304.70 245.47 L 304.74 245.46 L 304.89 245.21 L 305.20 244.99 L 305.40 244.28 L 305.62 243.60 L 305.63 243.57 L 305.66 242.93 L 305.69 242.91 L 306.11 242.54 L 306.12 242.49 L 306.19 241.99 L 306.37 241.94 L 306.49 241.89 L 306.51 240.99 L 306.52 240.95 L 306.57 241.80 L 306.60 241.28 L 306.62 241.26 L 306.72 240.06 L 306.73 240.02 L 306.96 239.92 L 307.57 239.91 L 307.71 239.87 L 307.75 239.85 L 307.78 239.70 L 307.82 239.70 L 307.91 239.11 L 317.65 237.96 L 317.67 237.80 L 317.75 237.69 L 317.77 237.47 L 317.83 227.47 L 317.93 223.37 L 317.95 223.35 L 318.13 223.27 L 318.17 223.27 L 318.20 222.80 L 318.36 222.75 L 318.78 221.78 L 318.79 221.76 L 318.89 221.46 L 318.94 221.47 L 318.96 220.99 L 319.31 220.42 L 319.32 220.39 L 319.85 220.18 L 319.92 219.66 L 320.11 219.67 L 320.33 218.38 L 320.38 217.87 L 320.42 217.46 L 320.52 216.96 L 320.80 216.79 L 320.85 216.66 L 320.97 216.55 L 321.10 216.55 L 321.51 216.55 L 321.56 216.55 L 321.65 216.53 L 321.66 216.53 L 321.79 216.54 L 322.10 216.51 L 322.42 216.33 L 322.47 216.32 L 322.54 216.25 L 322.63 216.11 L 322.87 216.11 L 323.29 215.93 L 323.42 215.53 L 323.64 212.08 L 324.54 215.00 L 324.74 214.99 L 324.88 214.97 L 325.10 214.97 L 325.17 214.91 L 325.40 214.75 L 325.75 214.51 L 325.80 214.35 L 325.86 214.29 L 325.91 214.30 L 325.94 214.25 L 326.22 214.04 L 332.67 214.03 L 332.73 214.04 L 333.14 214.02 L 333.18 214.01 L 333.26 213.57 L 333.34 213.32 L 333.35 213.32 L 333.57 213.28 L 333.63 213.26 L 334.95 212.61 L 335.10 212.56 L 335.22 212.54 L 335.24 212.54 L 335.65 212.38 L 335.79 212.46 L 335.82 212.46 L 336.04 212.41 L 336.28 211.05 L 336.31 211.04 L 336.51 210.89 L 336.59 210.89 L 336.67 210.89 L 336.84 210.74 L 337.20 210.18 L 337.26 210.16 L 337.33 210.01 L 337.48 209.36 L 337.83 208.69 L 338.15 205.51 L 338.21 205.12 L 338.54 204.97 L 338.59 204.89 L 338.64 204.74 L 338.68 204.23 L 338.79 203.31 L 338.81 203.35 L 338.87 203.33 L 339.05 203.33 L 339.33 202.99 L 339.51 202.93 L 339.70 202.92 L 339.80 202.91 L 339.99 202.89 L 340.32 202.89 L 340.64 202.89 L 340.89 202.88 L 340.95 202.87 L 341.01 202.86 L 341.02 202.75 L 341.21 202.69 L 341.26 202.67 L 341.34 202.54 L 341.87 202.52 L 341.88 202.24 L 342.02 202.23 L 342.64 202.24 L 343.05 202.07 L 343.35 201.86 L 343.36 201.75 L 343.38 201.75 L 352.43 201.56 L 352.46 201.56 L 352.56 201.55 L 352.61 201.39 L 352.64 201.37 L 352.65 201.36 L 353.04 201.32 L 353.12 200.74 L 353.24 200.62 L 353.43 199.48 L 353.55 199.47 L 353.71 198.99 L 353.79 199.05 L 353.84 199.05 L 353.88 198.50 L 353.99 198.12 L 354.01 197.72 L 354.05 197.67 L 354.15 197.63 L 354.21 197.45 L 354.29 199.61 L 354.40 199.57 L 354.62 198.71 L 354.72 198.49 L 354.81 198.31 L 355.36 197.07 L 355.84 196.47 L 356.41 195.33 L 356.56 195.28 L 356.72 195.28 L 356.90 195.22 L 360.22 194.90 L 360.50 194.87 L 392.01 194.00 L 491.24 193.79 L 491.57 193.44 L 491.80 193.40 L 492.02 193.40 L 492.37 192.72 L 492.48 192.40 L 492.57 191.80 L 492.73 190.05 L 492.96 190.41 L 493.15 190.03 L 493.19 190.03 L 493.34 189.91 L 493.38 189.92 L 493.54 189.28 L 493.69 188.26 L 494.14 187.17 L 494.15 187.08 L 494.28 185.79 L 494.71 182.59 L 494.72 182.48 L 494.80 182.41 L 494.90 181.26 L 495.37 179.72 L 495.38 179.58 L 495.48 179.51 L 495.58 178.75 L 495.76 178.15 L 495.77 178.03 L 495.84 176.86 L 495.86 176.83 L 495.90 176.50 L 496.09 174.42 L 496.12 174.30 L 496.18 174.18 L 496.39 173.90 L 496.44 173.89 L 496.60 173.50 L 496.88 173.54 L 496.92 173.49 L 496.96 173.46 L 497.01 173.43 L 497.14 172.21 L 497.29 171.21 L 497.31 171.12 L 497.39 169.87 L 497.48 168.65 L 497.50 168.50 L 497.58 167.07 L 497.62 165.95 L 497.80 165.19 L 497.82 165.14 L 497.90 164.90 L 498.02 164.88 L 498.74 164.85 L 499.09 164.82 L 506.84 164.87 L 506.92 164.65 L 507.00 164.46 L 507.13 163.62 L 507.42 163.40 L 507.44 163.32 L 507.50 162.21 L 507.68 161.14 L 507.70 161.04 L 509.40 160.97 L 509.50 160.36 L 510.35 160.18 L 510.45 160.14 L 510.55 158.89 L 511.57 157.71 L 512.01 157.27 L 512.12 156.35 L 512.49 154.78 L 512.72 154.32 L 513.10 153.40 L 513.78 152.93 L 524.16 152.92 L 524.78 152.81 L 524.80 152.83 L 525.67 152.65 L 525.72 152.56 L 526.02 152.49 L 526.37 151.46 L 526.38 151.46 L 526.41 151.42 L 526.88 150.25 L 527.94 149.58 L 528.01 149.52 L 528.12 149.51 L 528.28 149.21 L 528.33 149.12 L 528.39 149.07 L 528.88 149.02 L 529.28 149.02 L 529.50 149.02 L 529.53 148.98 L 529.97 147.95 L 530.31 147.76 L 530.33 147.68 L 530.37 147.60 L 530.42 147.32 L 541.67 146.93 L 541.70 146.91 L 541.73 146.89 L 541.95 146.78 L 542.12 146.66 L 543.11 145.08 L 543.35 144.89 L 544.07 144.42 L 544.68 144.31 L 545.14 144.16 L 545.27 142.70 L 545.84 141.00 L 546.05 140.88 L 546.12 139.79 L 547.79 137.77 L 547.80 137.77 L 547.90 137.28 L 548.21 137.22 L 548.22 137.22 L 548.23 137.10 L 548.29 136.94 L 548.44 136.78 L 548.62 135.93 L 550.34 133.89 L 550.57 133.65 L 550.72 133.28 L 550.75 133.24 L 550.78 132.95 L 558.45 132.03 L 558.70 131.33 L 558.84 131.30 L 558.90 130.83 L 559.62 130.62 L 559.77 130.15 L 559.91 130.15 L 559.99 129.17 L 560.23 126.69 L 560.27 126.65 L 560.59 126.60 L 560.66 125.79 L 560.94 124.82 L 561.00 124.14 L 561.23 123.52 L 561.39 123.19 L 561.52 122.45 L 561.81 121.81 L 561.84 121.10 L 562.21 120.94 L 562.25 120.94 L 562.31 120.04 L 562.38 120.04 L 562.42 119.97 L 562.85 118.28 L 563.47 117.72 L 563.78 117.91 L 564.79 117.83 L 564.82 117.82 L 564.97 117.80 L 565.04 117.78 L 565.16 117.67 L 565.28 117.57 L 565.42 117.38 L 565.72 117.14 L 566.01 117.12 L 566.92 116.95 L 566.96 116.94 L 567.87 116.79 L 568.26 116.68 L 576.02 116.66 L 576.41 116.54 L 576.60 116.46 L 576.69 116.46 L 576.71 116.46 L 576.91 116.43 L 577.00 116.38 L 577.22 116.22 L 577.36 116.19 L 577.87 116.01 L 578.13 115.63 L 578.57 115.58 L 578.69 115.33 L 578.84 115.18 L 579.03 114.99 L 579.70 115.04 L 579.76 115.02 L 580.74 114.55 L 580.89 114.27 L 581.09 114.18 L 581.56 113.96 L 581.78 114.02 L 581.89 114.39 L 581.99 114.37 L 582.12 114.21 L 582.54 113.10 L 582.98 112.99 L 583.37 112.89 L 583.41 112.84 L 583.46 112.53 L 611.52 112.45 L 611.70 112.31 L 627.85 111.95 L 627.93 112.36 L 628.06 110.66 L 628.08 110.66 L 628.12 110.70 L 628.70 107.25 L 628.76 107.22 L 629.47 107.29 L 630.20 107.08 L 630.45 106.75 L 630.90 106.33 L 631.51 106.07 L 631.52 106.07 L 631.60 106.00 L 631.83 105.93 L 631.91 105.76 L 632.49 104.92 L 633.24 104.75 L 633.33 104.58 L 633.70 104.51 L 633.82 105.17 L 634.11 104.93 L 634.35 104.87 L 634.84 104.69 L 635.31 104.61 L 635.54 104.24 L 635.56 104.24 L 645.65 104.23 L 648.83 103.28 L 648.96 102.83 L 649.11 102.39 L 649.62 102.36 L 649.84 102.22 L 650.00 100.00"/>
	</g>
	<g id="poloto_plot1" class="poloto_plot poloto_imgs poloto_line poloto1 poloto_stroke" fill="none" stroke="black">
		<path d=" M 150.00 382.60 L 150.03 382.58 L 150.04 382.57 L 150.05 382.57 L 150.07 382.57 L 150.10 382.02 L 150.20 382.00 L 150.45 381.99 L 150.81 381.78 L 150.99 381.69 L 151.35 381.71 L 151.42 381.67 L 151.47 381.67 L 151.89 381.63 L 152.70 381.53 L 152.95 379.38 L 153.01 379.38 L 153.50 379.33 L 154.06 379.32 L 154.06 379.32 L 154.06 379.32 L 161.60 379.32 L 161.65 379.32 L 161.75 379.31 L 161.79 379.29 L 162.07 379.27 L 162.20 379.27 L 162.52 379.27 L 162.57 379.27 L 162.66 379.26 L 162.75 379.26 L 162.78 379.26 L 162.86 379.23 L 162.94 379.23 L 163.02 379.23 L 163.23 379.11 L 163.42 379.11 L 163.45 379.11 L 163.54 379.11 L 164.14 379.92 L 164.15 379.92 L 164.23 379.91 L 164.57 379.79 L 164.85 379.66 L 165.15 379.59 L 165.22 379.55 L 165.23 379.55 L 165.29 379.55 L 165.40 379.55 L 165.55 379.50 L 165.85 379.45 L 165.87 379.45 L 165.92 379.45 L 165.99 379.43 L 166.16 379.43 L 166.18 379.43 L 166.36 379.42 L 166.43 379.42 L 166.49 379.42 L 166.56 379.42 L 167.47 379.33 L 167.70 379.32 L 168.21 379.28 L 168.32 379.28 L 168.40 379.28 L 168.44 379.28 L 168.79 379.21 L 168.95 379.21 L 169.13 379.14 L 169.22 379.13 L 169.43 378.95 L 169.52 378.89 L 169.65 378.89 L 169.76 378.89 L 170.17 376.37 L 170.18 376.33 L 170.20 376.33 L 170.34 376.08 L 177.32 376.08 L 178.05 375.00 L 178.07 375.00 L 178.93 375.00 L 179.00 375.00 L 179.08 374.88 L 179.29 374.87 L 179.38 374.87 L 179.42 374.87 L 179.52 374.87 L 179.78 374.87 L 179.78 374.63 L 179.88 374.62 L 179.97 374.62 L 180.08 374.60 L 180.22 374.59 L 180.27 374.59 L 180.29 374.59 L 180.41 374.59 L 180.43 374.59 L 180.56 374.59 L 180.58 374.59 L 180.78 373.53 L 180.82 373.53 L 180.89 373.40 L 180.97 373.40 L 181.09 373.40 L 181.14 373.39 L 181.53 373.38 L 181.54 373.38 L 181.61 373.32 L 181.79 373.32 L 181.94 372.71 L 181.99 372.63 L 182.07 372.63 L 182.10 372.63 L 182.19 372.61 L 182.63 368.12 L 182.68 368.16 L 182.83 368.16 L 182.87 368.16 L 182.91 368.15 L 182.98 368.15 L 183.05 368.09 L 183.20 368.09 L 183.31 368.09 L 183.40 368.08 L 183.45 368.08 L 183.84 368.07 L 184.06 368.07 L 184.12 367.96 L 184.30 367.96 L 184.32 367.96 L 184.34 367.96 L 184.45 367.66 L 184.55 367.58 L 184.87 366.51 L 184.92 366.51 L 184.99 366.51 L 185.07 366.52 L 185.08 366.52 L 185.12 366.52 L 185.15 366.52 L 185.20 366.52 L 185.24 366.52 L 185.37 366.50 L 185.46 366.50 L 185.55 366.49 L 185.68 366.49 L 185.82 366.48 L 185.96 366.08 L 186.06 365.95 L 186.26 365.95 L 186.27 365.95 L 186.38 365.95 L 196.14 365.95 L 196.32 365.94 L 196.78 365.87 L 196.88 365.86 L 196.95 365.86 L 196.97 365.86 L 197.14 365.86 L 197.25 365.86 L 197.32 365.86 L 197.39 365.86 L 197.43 365.86 L 197.60 365.86 L 197.95 365.88 L 198.04 365.88 L 198.11 365.88 L 198.19 365.88 L 198.64 365.79 L 198.71 365.75 L 198.74 365.75 L 198.77 365.69 L 198.87 365.69 L 198.94 365.69 L 199.27 365.28 L 199.74 365.28 L 199.91 365.28 L 200.43 365.28 L 200.68 362.53 L 200.77 362.53 L 200.87 362.53 L 201.03 362.52 L 201.26 362.52 L 201.60 362.52 L 202.04 362.52 L 202.10 362.52 L 202.43 362.45 L 202.63 362.34 L 202.70 362.34 L 202.83 362.34 L 202.93 362.33 L 204.08 362.15 L 205.18 362.15 L 214.99 362.15 L 215.06 362.15 L 215.11 362.15 L 215.42 362.15 L 216.34 361.28 L 216.38 361.26 L 216.50 361.17 L 216.95 361.16 L 217.17 360.95 L 217.49 360.96 L 217.57 360.96 L 217.64 360.96 L 218.21 358.54 L 218.28 358.54 L 218.40 358.54 L 218.52 358.54 L 218.58 358.39 L 218.90 358.09 L 219.01 358.09 L 219.07 358.09 L 219.14 357.65 L 219.28 357.20 L 219.34 357.20 L 219.48 357.20 L 219.91 353.60 L 219.95 353.60 L 219.99 353.60 L 220.05 353.60 L 220.16 353.60 L 220.20 353.60 L 220.24 353.60 L 220.45 353.60 L 220.49 353.52 L 220.74 353.50 L 220.89 353.46 L 220.98 353.02 L 221.74 345.86 L 221.83 345.86 L 250.68 345.86 L 250.71 345.86 L 261.73 345.86 L 262.33 345.75 L 262.46 345.75 L 262.62 345.75 L 262.67 345.75 L 262.74 345.75 L 267.52 345.70 L 268.15 345.63 L 268.38 345.63 L 268.51 345.61 L 271.48 345.55 L 271.50 345.45 L 271.69 345.45 L 272.58 344.48 L 272.63 344.48 L 272.74 344.48 L 273.06 344.48 L 273.10 344.48 L 273.22 344.48 L 273.36 344.48 L 273.38 344.48 L 282.64 344.46 L 282.71 344.29 L 283.08 344.29 L 283.09 343.12 L 283.15 343.12 L 283.23 343.12 L 283.33 343.02 L 283.49 343.02 L 283.62 342.96 L 283.74 342.96 L 283.79 342.96 L 283.98 342.95 L 284.62 340.97 L 284.87 340.96 L 284.92 340.95 L 284.97 340.95 L 285.01 340.95 L 285.09 340.92 L 285.35 340.67 L 285.39 340.64 L 285.55 338.85 L 285.61 338.85 L 285.64 338.85 L 285.70 338.82 L 285.74 338.82 L 285.77 338.82 L 285.98 337.85 L 286.07 337.83 L 286.18 337.81 L 286.26 334.79 L 286.29 334.79 L 286.49 333.09 L 286.55 333.09 L 286.59 333.09 L 286.64 333.09 L 286.67 333.09 L 286.70 333.09 L 286.71 333.09 L 286.81 329.94 L 286.85 329.94 L 286.95 329.93 L 287.02 329.93 L 287.23 329.86 L 287.48 329.78 L 287.49 329.78 L 287.56 329.76 L 287.80 329.71 L 287.91 329.71 L 288.03 329.71 L 288.15 328.35 L 288.23 328.35 L 288.55 328.35 L 288.58 328.34 L 288.62 328.34 L 288.65 328.34 L 288.86 326.41 L 288.90 326.41 L 289.06 326.39 L 303.31 326.39 L 304.13 326.38 L 304.15 326.38 L 304.31 326.38 L 304.32 326.38 L 304.43 326.38 L 304.51 326.38 L 304.58 326.28 L 304.68 326.28 L 304.70 326.28 L 304.74 326.28 L 304.89 326.11 L 305.20 326.00 L 305.40 325.88 L 305.62 325.34 L 305.63 325.34 L 305.66 325.20 L 305.69 325.18 L 306.11 324.85 L 306.12 324.85 L 306.19 324.80 L 306.37 324.80 L 306.49 324.77 L 306.51 323.96 L 306.52 323.96 L 306.57 324.76 L 306.60 324.71 L 306.62 324.70 L 306.72 323.62 L 306.73 323.62 L 306.96 323.58 L 307.57 323.58 L 307.71 323.58 L 307.75 323.58 L 307.78 323.58 L 307.82 323.58 L 307.91 323.51 L 317.65 322.61 L 317.67 322.61 L 317.75 322.61 L 317.77 322.41 L 317.83 312.86 L 317.93 309.30 L 317.95 309.30 L 318.13 309.24 L 318.17 309.24 L 318.20 309.22 L 318.36 309.22 L 318.78 308.35 L 318.79 308.35 L 318.89 308.31 L 318.94 308.31 L 318.96 308.23 L 319.31 307.72 L 319.32 307.72 L 319.85 307.61 L 319.92 307.57 L 320.11 307.58 L 320.33 306.41 L 320.38 306.29 L 320.42 306.18 L 320.52 305.74 L 320.80 305.63 L 320.85 305.54 L 320.97 305.54 L 321.10 305.54 L 321.51 305.54 L 321.56 305.54 L 321.65 305.54 L 321.66 305.54 L 321.79 305.55 L 322.10 305.55 L 322.42 305.43 L 322.47 305.43 L 322.54 305.41 L 322.63 305.41 L 322.87 305.41 L 323.29 305.41 L 323.42 305.31 L 323.64 302.22 L 324.54 305.13 L 324.74 305.12 L 324.88 305.11 L 325.10 305.11 L 325.17 305.08 L 325.40 305.06 L 325.75 304.88 L 325.80 304.88 L 325.86 304.88 L 325.91 304.88 L 325.94 304.88 L 326.22 304.71 L 332.67 304.71 L 332.73 304.72 L 333.14 304.71 L 333.18 304.71 L 333.26 304.68 L 333.34 304.46 L 333.35 304.46 L 333.57 304.44 L 333.63 304.44 L 334.95 304.26 L 335.10 304.26 L 335.22 304.26 L 335.24 304.26 L 335.65 304.13 L 335.79 304.13 L 335.82 304.13 L 336.04 304.13 L 336.28 303.40 L 336.31 303.40 L 336.51 303.27 L 336.59 303.27 L 336.67 303.27 L 336.84 303.27 L 337.20 303.26 L 337.26 303.24 L 337.33 303.17 L 337.48 303.05 L 337.83 302.94 L 338.15 300.03 L 338.21 299.93 L 338.54 299.79 L 338.59 299.76 L 338.64 299.66 L 338.68 299.45 L 338.79 298.58 L 338.81 298.62 L 338.87 298.60 L 339.05 298.60 L 339.33 298.48 L 339.51 298.43 L 339.70 298.42 L 339.80 298.41 L 339.99 298.40 L 340.32 298.40 L 340.64 298.39 L 340.89 298.39 L 340.95 298.38 L 341.01 298.38 L 341.02 298.37 L 341.21 298.37 L 341.26 298.36 L 341.34 298.25 L 341.87 298.24 L 341.88 298.24 L 342.02 298.23 L 342.64 298.23 L 343.05 298.08 L 343.35 297.96 L 343.36 297.96 L 343.38 297.96 L 352.43 297.96 L 352.46 297.96 L 352.56 297.96 L 352.61 297.96 L 352.64 297.94 L 352.65 297.94 L 353.04 297.94 L 353.12 297.93 L 353.24 297.91 L 353.43 297.89 L 353.55 297.89 L 353.71 297.82 L 353.79 297.82 L 353.84 297.82 L 353.88 297.82 L 353.99 297.56 L 354.01 297.56 L 354.05 297.56 L 354.15 297.56 L 354.21 297.56 L 354.29 297.62 L 354.40 297.62 L 354.62 297.61 L 354.72 297.61 L 354.81 297.61 L 355.36 296.75 L 355.84 296.52 L 356.41 295.91 L 356.56 295.91 L 356.72 295.91 L 356.90 295.91 L 360.22 295.84 L 360.50 295.83 L 392.01 295.72 L 491.24 295.57 L 491.57 295.52 L 491.80 295.51 L 492.02 295.51 L 492.37 295.11 L 492.48 295.11 L 492.57 295.11 L 492.73 293.68 L 492.96 293.95 L 493.15 293.94 L 493.19 293.94 L 493.34 293.92 L 493.38 293.92 L 493.54 293.92 L 493.69 293.85 L 494.14 292.95 L 494.15 292.95 L 494.28 292.87 L 494.71 289.93 L 494.72 289.93 L 494.80 289.93 L 494.90 289.89 L 495.37 288.52 L 495.38 288.52 L 495.48 288.52 L 495.58 288.49 L 495.76 287.99 L 495.77 287.99 L 495.84 287.98 L 495.86 287.98 L 495.90 287.71 L 496.09 285.77 L 496.12 285.77 L 496.18 285.77 L 496.39 285.60 L 496.44 285.60 L 496.60 285.28 L 496.88 285.28 L 496.92 285.28 L 496.96 285.28 L 497.01 285.28 L 497.14 285.27 L 497.29 284.40 L 497.31 284.40 L 497.39 284.40 L 497.48 283.73 L 497.50 283.73 L 497.58 283.03 L 497.62 282.99 L 497.80 282.29 L 497.82 282.29 L 497.90 282.29 L 498.02 282.28 L 498.74 282.28 L 499.09 282.27 L 506.84 282.27 L 506.92 282.27 L 507.00 282.27 L 507.13 282.27 L 507.42 282.09 L 507.44 282.09 L 507.50 282.03 L 507.68 281.06 L 507.70 281.06 L 509.40 281.08 L 509.50 280.89 L 510.35 280.89 L 510.45 280.89 L 510.55 280.82 L 511.57 280.02 L 512.01 279.87 L 512.12 279.81 L 512.49 278.30 L 512.72 278.30 L 513.10 278.17 L 513.78 278.17 L 524.16 278.17 L 524.78 278.08 L 524.80 278.10 L 525.67 278.10 L 525.72 278.10 L 526.02 278.10 L 526.37 278.06 L 526.38 278.06 L 526.41 278.06 L 526.88 277.18 L 527.94 277.16 L 528.01 277.15 L 528.12 277.15 L 528.28 277.12 L 528.33 277.09 L 528.39 277.09 L 528.88 277.05 L 529.28 277.05 L 529.50 277.05 L 529.53 277.05 L 529.97 277.03 L 530.31 276.92 L 530.33 276.92 L 530.37 276.92 L 530.42 276.92 L 541.67 276.72 L 541.70 276.72 L 541.73 276.72 L 541.95 276.72 L 542.12 276.72 L 543.11 275.84 L 543.35 275.79 L 544.07 275.72 L 544.68 275.68 L 545.14 275.68 L 545.27 275.68 L 545.84 274.36 L 546.05 274.32 L 546.12 274.27 L 547.79 273.34 L 547.80 273.34 L 547.90 273.33 L 548.21 273.32 L 548.22 273.32 L 548.23 273.32 L 548.29 273.29 L 548.44 273.26 L 548.62 273.15 L 550.34 271.62 L 550.57 271.54 L 550.72 271.54 L 550.75 271.54 L 550.78 271.54 L 558.45 271.54 L 558.70 271.53 L 558.84 271.53 L 558.90 271.53 L 559.62 271.53 L 559.77 271.53 L 559.91 271.53 L 559.99 271.50 L 560.23 269.49 L 560.27 269.48 L 560.59 269.49 L 560.66 269.47 L 560.94 268.70 L 561.00 268.65 L 561.23 268.15 L 561.39 268.15 L 561.52 268.10 L 561.81 267.63 L 561.84 267.63 L 562.21 266.14 L 562.25 266.14 L 562.31 266.13 L 562.38 266.13 L 562.42 266.13 L 562.85 264.63 L 563.47 264.50 L 563.78 264.50 L 564.79 264.46 L 564.82 264.46 L 564.97 264.46 L 565.04 264.46 L 565.16 264.46 L 565.28 264.46 L 565.42 264.44 L 565.72 264.42 L 566.01 264.42 L 566.92 264.36 L 566.96 264.36 L 567.87 264.32 L 568.26 264.28 L 576.02 264.29 L 576.41 264.22 L 576.60 264.14 L 576.69 264.14 L 576.71 264.14 L 576.91 264.13 L 577.00 264.13 L 577.22 264.13 L 577.36 264.13 L 577.87 263.99 L 578.13 263.72 L 578.57 263.70 L 578.69 263.52 L 578.84 263.44 L 579.03 263.35 L 579.70 263.44 L 579.76 263.44 L 580.74 263.16 L 580.89 263.16 L 581.09 263.16 L 581.56 263.13 L 581.78 263.27 L 581.89 263.27 L 581.99 263.27 L 582.12 263.27 L 582.54 262.62 L 582.98 262.61 L 583.37 262.61 L 583.41 262.61 L 583.46 262.61 L 611.52 262.61 L 611.70 262.56 L 627.85 262.34 L 627.93 262.34 L 628.06 262.28 L 628.08 262.28 L 628.12 262.28 L 628.70 259.79 L 628.76 259.79 L 629.47 259.79 L 630.20 259.68 L 630.45 259.44 L 630.90 259.12 L 631.51 259.03 L 631.52 259.03 L 631.60 258.98 L 631.83 258.98 L 631.91 258.93 L 632.49 258.26 L 633.24 258.15 L 633.33 258.15 L 633.70 258.15 L 633.82 258.15 L 634.11 257.98 L 634.35 257.96 L 634.84 257.82 L 635.31 257.74 L 635.54 257.74 L 635.56 257.74 L 645.65 257.74 L 648.83 257.70 L 648.96 257.67 L 649.11 257.37 L 649.62 257.39 L 649.84 257.39 L 650.00 257.39"/>
	</g>
	<g id="poloto_plot2" class="poloto_plot poloto_imgs poloto_line poloto2 poloto_stroke" fill="none" stroke="black">
		<path d=" M 150.00 392.19 L 150.03 392.19 L 150.04 392.19 L 150.05 392.19 L 150.07 392.19 L 150.10 390.19 L 150.20 389.91 L 150.45 389.91 L 150.81 389.90 L 150.99 388.70 L 151.35 388.59 L 151.42 388.56 L 151.47 388.53 L 151.89 387.99 L 152.70 387.57 L 152.95 387.49 L 153.01 387.50 L 153.50 387.47 L 154.06 387.47 L 154.06 387.47 L 154.06 387.47 L 161.60 387.47 L 161.65 387.46 L 161.75 387.45 L 161.79 387.45 L 162.07 387.33 L 162.20 387.29 L 162.52 387.09 L 162.57 387.01 L 162.66 386.83 L 162.75 386.81 L 162.78 386.81 L 162.86 386.77 L 162.94 386.77 L 163.02 386.78 L 163.23 386.58 L 163.42 386.39 L 163.45 386.39 L 163.54 386.29 L 164.14 386.04 L 164.15 386.04 L 164.23 385.97 L 164.57 385.70 L 164.85 385.38 L 165.15 385.24 L 165.22 385.24 L 165.23 385.25 L 165.29 385.06 L 165.40 385.06 L 165.55 385.04 L 165.85 384.91 L 165.87 384.67 L 165.92 384.67 L 165.99 384.56 L 166.16 384.56 L 166.18 384.56 L 166.36 384.21 L 166.43 384.19 L 166.49 384.16 L 166.56 383.99 L 167.47 383.90 L 167.70 383.86 L 168.21 383.62 L 168.32 383.62 L 168.40 383.61 L 168.44 383.42 L 168.79 382.45 L 168.95 382.43 L 169.13 382.14 L 169.22 382.11 L 169.43 381.98 L 169.52 381.93 L 169.65 381.72 L 169.76 381.55 L 170.17 381.55 L 170.18 381.53 L 170.20 381.39 L 170.34 380.44 L 177.32 380.35 L 178.05 380.06 L 178.07 380.02 L 178.93 379.79 L 179.00 379.78 L 179.08 379.61 L 179.29 379.49 L 179.38 379.28 L 179.42 379.10 L 179.52 378.75 L 179.78 378.74 L 179.78 378.74 L 179.88 378.50 L 179.97 378.49 L 180.08 378.24 L 180.22 378.03 L 180.27 377.92 L 180.29 377.92 L 180.41 377.68 L 180.43 377.68 L 180.56 377.46 L 180.58 377.45 L 180.78 377.38 L 180.82 377.38 L 180.89 377.30 L 180.97 377.28 L 181.09 377.28 L 181.14 377.27 L 181.53 377.05 L 181.54 377.06 L 181.61 376.64 L 181.79 376.62 L 181.94 376.49 L 181.99 376.49 L 182.07 376.49 L 182.10 376.45 L 182.19 375.87 L 182.63 375.38 L 182.68 375.11 L 182.83 375.09 L 182.87 375.02 L 182.91 375.01 L 182.98 374.88 L 183.05 374.42 L 183.20 374.35 L 183.31 374.34 L 183.40 374.11 L 183.45 374.10 L 183.84 373.93 L 184.06 373.80 L 184.12 373.70 L 184.30 373.69 L 184.32 373.69 L 184.34 373.66 L 184.45 372.83 L 184.55 372.82 L 184.87 372.70 L 184.92 372.37 L 184.99 372.36 L 185.07 372.23 L 185.08 372.15 L 185.12 372.09 L 185.15 372.06 L 185.20 372.05 L 185.24 371.99 L 185.37 371.05 L 185.46 370.95 L 185.55 370.67 L 185.68 370.65 L 185.82 370.56 L 185.96 370.27 L 186.06 369.45 L 186.26 369.39 L 186.27 369.04 L 186.38 368.96 L 196.14 368.96 L 196.32 368.96 L 196.78 368.57 L 196.88 368.57 L 196.95 368.57 L 196.97 368.47 L 197.14 368.31 L 197.25 368.28 L 197.32 368.18 L 197.39 368.11 L 197.43 368.07 L 197.60 368.02 L 197.95 368.10 L 198.04 367.84 L 198.11 367.77 L 198.19 367.77 L 198.64 367.72 L 198.71 367.67 L 198.74 367.67 L 198.77 367.62 L 198.87 367.58 L 198.94 367.48 L 199.27 367.24 L 199.74 367.14 L 199.91 367.09 L 200.43 366.94 L 200.68 366.56 L 200.77 366.49 L 200.87 366.19 L 201.03 365.81 L 201.26 365.71 L 201.60 365.70 L 202.04 365.69 L 202.10 365.55 L 202.43 365.45 L 202.63 365.33 L 202.70 365.23 L 202.83 365.20 L 202.93 364.94 L 204.08 364.82 L 205.18 364.82 L 214.99 364.79 L 215.06 364.65 L 215.11 364.55 L 215.42 364.41 L 216.34 364.16 L 216.38 364.12 L 216.50 363.94 L 216.95 363.87 L 217.17 363.38 L 217.49 363.36 L 217.57 363.35 L 217.64 362.86 L 218.21 362.41 L 218.28 362.40 L 218.40 362.38 L 218.52 362.33 L 218.58 362.17 L 218.90 361.41 L 219.01 361.22 L 219.07 361.20 L 219.14 361.12 L 219.28 360.83 L 219.34 360.07 L 219.48 359.76 L 219.91 359.58 L 219.95 359.20 L 219.99 359.20 L 220.05 359.13 L 220.16 359.03 L 220.20 359.00 L 220.24 358.96 L 220.45 358.08 L 220.49 357.56 L 220.74 357.46 L 220.89 356.58 L 220.98 356.41 L 221.74 355.03 L 221.83 355.00 L 250.68 354.60 L 250.71 354.60 L 261.73 354.48 L 262.33 354.34 L 262.46 354.34 L 262.62 354.26 L 262.67 354.15 L 262.74 354.13 L 267.52 354.11 L 268.15 352.52 L 268.38 352.39 L 268.51 351.83 L 271.48 351.77 L 271.50 351.72 L 271.69 351.71 L 272.58 351.61 L 272.63 351.42 L 272.74 351.36 L 273.06 351.28 L 273.10 351.26 L 273.22 350.95 L 273.36 350.85 L 273.38 350.62 L 282.64 350.32 L 282.71 349.60 L 283.08 349.41 L 283.09 349.13 L 283.15 348.91 L 283.23 348.58 L 283.33 347.71 L 283.49 347.22 L 283.62 346.61 L 283.74 346.60 L 283.79 346.12 L 283.98 346.09 L 284.62 345.64 L 284.87 345.43 L 284.92 345.30 L 284.97 345.29 L 285.01 345.14 L 285.09 344.60 L 285.35 344.54 L 285.39 344.54 L 285.55 344.18 L 285.61 344.18 L 285.64 343.98 L 285.70 343.85 L 285.74 343.85 L 285.77 343.57 L 285.98 343.40 L 286.07 343.12 L 286.18 343.11 L 286.26 342.96 L 286.29 342.74 L 286.49 342.62 L 286.55 342.50 L 286.59 342.50 L 286.64 342.50 L 286.67 342.28 L 286.70 342.29 L 286.71 342.28 L 286.81 342.21 L 286.85 341.96 L 286.95 341.96 L 287.02 341.90 L 287.23 341.88 L 287.48 341.86 L 287.49 341.86 L 287.56 341.84 L 287.80 341.84 L 287.91 341.84 L 288.03 341.84 L 288.15 341.80 L 288.23 341.51 L 288.55 341.51 L 288.58 341.34 L 288.62 341.33 L 288.65 341.14 L 288.86 341.07 L 288.90 341.02 L 289.06 341.02 L 303.31 340.97 L 304.13 340.89 L 304.15 340.89 L 304.31 340.89 L 304.32 340.89 L 304.43 340.55 L 304.51 340.54 L 304.58 340.44 L 304.68 340.39 L 304.70 340.36 L 304.74 340.34 L 304.89 340.31 L 305.20 340.24 L 305.40 339.78 L 305.62 339.76 L 305.63 339.73 L 305.66 339.34 L 305.69 339.34 L 306.11 339.34 L 306.12 339.30 L 306.19 338.94 L 306.37 338.90 L 306.49 338.88 L 306.51 338.88 L 306.52 338.84 L 306.57 338.81 L 306.60 338.45 L 306.62 338.44 L 306.72 338.44 L 306.73 338.41 L 306.96 338.37 L 307.57 338.36 L 307.71 338.33 L 307.75 338.32 L 307.78 338.20 L 307.82 338.20 L 307.91 337.79 L 317.65 337.66 L 317.67 337.55 L 317.75 337.47 L 317.77 337.45 L 317.83 337.10 L 317.93 337.02 L 317.95 337.00 L 318.13 336.99 L 318.17 336.99 L 318.20 336.65 L 318.36 336.60 L 318.78 336.59 L 318.79 336.57 L 318.89 336.38 L 318.94 336.39 L 318.96 336.07 L 319.31 336.07 L 319.32 336.05 L 319.85 335.97 L 319.92 335.58 L 320.11 335.58 L 320.33 335.58 L 320.38 335.30 L 320.42 335.08 L 320.52 335.07 L 320.80 335.02 L 320.85 335.01 L 320.97 334.92 L 321.10 334.92 L 321.51 334.92 L 321.56 334.92 L 321.65 334.90 L 321.66 334.90 L 321.79 334.90 L 322.10 334.87 L 322.42 334.83 L 322.47 334.83 L 322.54 334.79 L 322.63 334.69 L 322.87 334.69 L 323.29 334.56 L 323.42 334.35 L 323.64 334.32 L 324.54 334.09 L 324.74 334.09 L 324.88 334.08 L 325.10 334.08 L 325.17 334.06 L 325.40 333.94 L 325.75 333.93 L 325.80 333.82 L 325.86 333.77 L 325.91 333.78 L 325.94 333.74 L 326.22 333.73 L 332.67 333.72 L 332.73 333.72 L 333.14 333.72 L 333.18 333.71 L 333.26 333.39 L 333.34 333.37 L 333.35 333.38 L 333.57 333.37 L 333.63 333.35 L 334.95 332.88 L 335.10 332.83 L 335.22 332.82 L 335.24 332.81 L 335.65 332.80 L 335.79 332.87 L 335.82 332.87 L 336.04 332.83 L 336.28 332.39 L 336.31 332.38 L 336.51 332.36 L 336.59 332.36 L 336.67 332.36 L 336.84 332.27 L 337.20 331.86 L 337.26 331.86 L 337.33 331.80 L 337.48 331.43 L 337.83 331.02 L 338.15 331.05 L 338.21 330.83 L 338.54 330.83 L 338.59 330.81 L 338.64 330.78 L 338.68 330.57 L 338.79 330.56 L 338.81 330.56 L 338.87 330.56 L 339.05 330.56 L 339.33 330.39 L 339.51 330.37 L 339.70 330.37 L 339.80 330.37 L 339.99 330.37 L 340.32 330.37 L 340.64 330.37 L 340.89 330.37 L 340.95 330.37 L 341.01 330.36 L 341.02 330.28 L 341.21 330.23 L 341.26 330.23 L 341.34 330.22 L 341.87 330.21 L 341.88 330.00 L 342.02 330.00 L 342.64 330.01 L 343.05 330.00 L 343.35 329.96 L 343.36 329.87 L 343.38 329.87 L 352.43 329.73 L 352.46 329.72 L 352.56 329.72 L 352.61 329.59 L 352.64 329.59 L 352.65 329.58 L 353.04 329.54 L 353.12 329.11 L 353.24 329.01 L 353.43 328.17 L 353.55 328.16 L 353.71 327.80 L 353.79 327.84 L 353.84 327.83 L 353.88 327.37 L 353.99 327.29 L 354.01 326.97 L 354.05 326.93 L 354.15 326.90 L 354.21 326.74 L 354.29 328.64 L 354.40 328.61 L 354.62 327.84 L 354.72 327.68 L 354.81 327.50 L 355.36 327.20 L 355.84 326.88 L 356.41 326.44 L 356.56 326.39 L 356.72 326.39 L 356.90 326.35 L 360.22 326.12 L 360.50 326.10 L 392.01 325.51 L 491.24 325.49 L 491.57 325.22 L 491.80 325.18 L 492.02 325.18 L 492.37 324.93 L 492.48 324.65 L 492.57 324.13 L 492.73 323.99 L 492.96 324.04 L 493.15 323.74 L 493.19 323.73 L 493.34 323.64 L 493.38 323.64 L 493.54 323.13 L 493.69 322.35 L 494.14 322.28 L 494.15 322.19 L 494.28 321.19 L 494.71 321.15 L 494.72 321.05 L 494.80 320.99 L 494.90 320.08 L 495.37 320.04 L 495.38 319.91 L 495.48 319.85 L 495.58 319.25 L 495.76 319.23 L 495.77 319.13 L 495.84 318.13 L 495.86 318.11 L 495.90 318.08 L 496.09 318.08 L 496.12 317.98 L 496.18 317.90 L 496.39 317.81 L 496.44 317.81 L 496.60 317.75 L 496.88 317.79 L 496.92 317.75 L 496.96 317.72 L 497.01 317.69 L 497.14 316.66 L 497.29 316.64 L 497.31 316.55 L 497.39 315.49 L 497.48 315.11 L 497.50 314.97 L 497.58 314.46 L 497.62 313.56 L 497.80 313.55 L 497.82 313.50 L 497.90 313.32 L 498.02 313.31 L 498.74 313.28 L 499.09 313.26 L 506.84 313.30 L 506.92 313.10 L 507.00 312.95 L 507.13 312.23 L 507.42 312.22 L 507.44 312.15 L 507.50 311.25 L 507.68 311.24 L 507.70 311.15 L 509.40 311.06 L 509.50 310.74 L 510.35 310.58 L 510.45 310.54 L 510.55 309.54 L 511.57 309.26 L 512.01 309.02 L 512.12 308.26 L 512.49 308.26 L 512.72 307.84 L 513.10 307.19 L 513.78 306.80 L 524.16 306.80 L 524.78 306.79 L 524.80 306.79 L 525.67 306.64 L 525.72 306.56 L 526.02 306.50 L 526.37 305.66 L 526.38 305.66 L 526.41 305.63 L 526.88 305.45 L 527.94 304.89 L 528.01 304.83 L 528.12 304.83 L 528.28 304.59 L 528.33 304.55 L 528.39 304.51 L 528.88 304.51 L 529.28 304.51 L 529.50 304.51 L 529.53 304.47 L 529.97 303.62 L 530.31 303.54 L 530.33 303.47 L 530.37 303.39 L 530.42 303.18 L 541.67 303.02 L 541.70 303.00 L 541.73 302.98 L 541.95 302.88 L 542.12 302.77 L 543.11 302.29 L 543.35 302.19 L 544.07 301.83 L 544.68 301.77 L 545.14 301.62 L 545.27 300.37 L 545.84 300.15 L 546.05 300.09 L 546.12 299.18 L 547.79 298.31 L 547.80 298.31 L 547.90 297.91 L 548.21 297.87 L 548.22 297.87 L 548.23 297.77 L 548.29 297.66 L 548.44 297.56 L 548.62 296.94 L 550.34 296.62 L 550.57 296.48 L 550.72 296.14 L 550.75 296.10 L 550.78 295.88 L 558.45 295.09 L 558.70 294.52 L 558.84 294.50 L 558.90 294.12 L 559.62 293.96 L 559.77 293.55 L 559.91 293.55 L 559.99 292.71 L 560.23 292.51 L 560.27 292.48 L 560.59 292.43 L 560.66 291.74 L 560.94 291.65 L 561.00 291.11 L 561.23 291.05 L 561.39 290.73 L 561.52 290.12 L 561.81 290.00 L 561.84 289.38 L 562.21 290.78 L 562.25 290.78 L 562.31 289.99 L 562.38 289.99 L 562.42 289.92 L 562.85 289.85 L 563.47 289.51 L 563.78 289.68 L 564.79 289.66 L 564.82 289.66 L 564.97 289.64 L 565.04 289.62 L 565.16 289.51 L 565.28 289.41 L 565.42 289.27 L 565.72 289.07 L 566.01 289.05 L 566.92 288.96 L 566.96 288.95 L 567.87 288.84 L 568.26 288.78 L 576.02 288.75 L 576.41 288.71 L 576.60 288.71 L 576.69 288.71 L 576.71 288.71 L 576.91 288.69 L 577.00 288.66 L 577.22 288.51 L 577.36 288.49 L 577.87 288.48 L 578.13 288.41 L 578.57 288.37 L 578.69 288.34 L 578.84 288.28 L 579.03 288.18 L 579.70 288.15 L 579.76 288.13 L 580.74 287.98 L 580.89 287.73 L 581.09 287.64 L 581.56 287.49 L 581.78 287.41 L 581.89 287.76 L 581.99 287.75 L 582.12 287.62 L 582.54 287.29 L 582.98 287.20 L 583.37 287.14 L 583.41 287.10 L 583.46 286.85 L 611.52 286.81 L 611.70 286.74 L 627.85 286.67 L 627.93 287.02 L 628.06 285.61 L 628.08 285.61 L 628.12 285.64 L 628.70 285.10 L 628.76 285.07 L 629.47 285.13 L 630.20 285.07 L 630.45 285.02 L 630.90 284.97 L 631.51 284.81 L 631.52 284.81 L 631.60 284.79 L 631.83 284.74 L 631.91 284.64 L 632.49 284.56 L 633.24 284.51 L 633.33 284.36 L 633.70 284.29 L 633.82 284.92 L 634.11 284.86 L 634.35 284.83 L 634.84 284.80 L 635.31 284.80 L 635.54 284.51 L 635.56 284.51 L 645.65 284.49 L 648.83 283.74 L 648.96 283.37 L 649.11 283.27 L 649.62 283.24 L 649.84 283.11 L 650.00 281.22"/>
	</g>
	<g class="poloto_legend poloto_imgs poloto_line poloto0 poloto_stroke"><line x1="680" x2="730" y1="81.25" y2="81.25"/></g>
	<g class="poloto_legend poloto_imgs poloto_line poloto1 poloto_stroke"><line x1="680" x2="730" y1="131.25" y2="131.25"/></g>
	<g class="poloto_legend poloto_imgs poloto_line poloto2 poloto_stroke"><line x1="680" x2="730" y1="181.25" y2="181.25"/></g>
	<text class="poloto_legend poloto_text poloto_line poloto0" x="675" y="100">total</text>
	<text class="poloto_legend poloto_text poloto_line poloto1" x="675" y="150">code</text>
	<text class="poloto_legend poloto_text poloto_line poloto2" x="675" y="200">docs</text>
	<text class="poloto_text poloto_name poloto_title" x="400.00" y="37.50">Workspace lines over time</text>
	<text class="poloto_text poloto_name poloto_x" x="400.00" y="640">date (JST)</text>
	<text class="poloto_text poloto_name poloto_y" x="37.50" y="250.00" transform="rotate(-90,37.50,250.00)">lines</text>
	<text class="poloto_text poloto_ticks poloto_y">
		<tspan x="135.00" y="400.00">0</tspan>
		<tspan x="135.00" y="325.76">50K</tspan>
		<tspan x="135.00" y="251.53">100K</tspan>
		<tspan x="135.00" y="177.29">150K</tspan>
		<tspan x="135.00" y="103.06">200K</tspan>
	</text>
	<g class="poloto_imgs poloto_ticks poloto_y" stroke="black">
		<line x1="150.00" x2="144.00" y1="400.00" y2="400.00"/>
		<line x1="150.00" x2="144.00" y1="325.76" y2="325.76"/>
		<line x1="150.00" x2="144.00" y1="251.53" y2="251.53"/>
		<line x1="150.00" x2="144.00" y1="177.29" y2="177.29"/>
		<line x1="150.00" x2="144.00" y1="103.06" y2="103.06"/>
	</g>
	<g class="poloto_text poloto_ticks poloto_x">
		<text x="214.87" y="430.00" text-anchor="end" transform="rotate(-90 214.87 430.00)">2026-04-24 12:06</text>
		<text x="314.72" y="430.00" text-anchor="end" transform="rotate(-90 314.72 430.00)">2026-04-30 07:00</text>
		<text x="414.57" y="430.00" text-anchor="end" transform="rotate(-90 414.57 430.00)">2026-05-06 01:53</text>
		<text x="514.42" y="430.00" text-anchor="end" transform="rotate(-90 514.42 430.00)">2026-05-11 20:46</text>
		<text x="614.27" y="430.00" text-anchor="end" transform="rotate(-90 614.27 430.00)">2026-05-17 15:40</text>
	</g>
	<g class="poloto_imgs poloto_ticks poloto_x" stroke="black">
		<line x1="214.87" x2="214.87" y1="400.00" y2="405.00"/>
		<line x1="314.72" x2="314.72" y1="400.00" y2="405.00"/>
		<line x1="414.57" x2="414.57" y1="400.00" y2="405.00"/>
		<line x1="514.42" x2="514.42" y1="400.00" y2="405.00"/>
		<line x1="614.27" x2="614.27" y1="400.00" y2="405.00"/>
	</g>
	<path class="poloto_imgs poloto_ticks poloto_x" stroke="black" style="stroke-dasharray:9.985078298989988;stroke-dashoffset:-64.86766176624224;" d=" M 150.00 400.00 L 650.00 400.00"/>
	<path class="poloto_imgs poloto_ticks poloto_y" stroke="black" style="stroke-dasharray:7.423537563100069;stroke-dashoffset:-0;" d=" M 150.00 400.00 L 150.00 100.00"/>
</svg>

