<svg class="poloto" width="800" height="680" viewBox="0 0 800 680" xmlns="http://www.w3.org/2000/svg">
	<style>
.poloto{
  stroke-linecap:round;
  stroke-linejoin:round;
  font-family:Roboto,sans-serif;
  font-size:16px;
}
.poloto_background{fill:AliceBlue;}
.poloto_scatter{stroke-width:7}
.poloto_line{stroke-width:2}
.poloto_text{fill: black;}
.poloto_name{font-size:24px;dominant-baseline:auto;text-anchor:middle;}
.poloto_where{dominant-baseline:middle;text-anchor:start}
.poloto_text.poloto_legend{font-size:20px;dominant-baseline:middle;text-anchor:start;}
.poloto_text.poloto_ticks.poloto_y{dominant-baseline:middle;text-anchor:end}
.poloto_text.poloto_ticks.poloto_x{dominant-baseline:auto;text-anchor:middle}
.poloto_imgs.poloto_ticks{stroke: black;stroke-width:3;fill:none;stroke-dasharray:none}
.poloto_grid{stroke:gray;stroke-width:0.5}

.poloto0.poloto_stroke{stroke:blue;}
.poloto1.poloto_stroke{stroke:red;}
.poloto2.poloto_stroke{stroke:green;}
.poloto3.poloto_stroke{stroke:gold;}
.poloto4.poloto_stroke{stroke:aqua;}
.poloto5.poloto_stroke{stroke:lime;}
.poloto6.poloto_stroke{stroke:orange;}
.poloto7.poloto_stroke{stroke:chocolate;}
.poloto0.poloto_fill{fill:blue;}
.poloto1.poloto_fill{fill:red;}
.poloto2.poloto_fill{fill:green;}
.poloto3.poloto_fill{fill:gold;}
.poloto4.poloto_fill{fill:aqua;}
.poloto5.poloto_fill{fill:lime;}
.poloto6.poloto_fill{fill:orange;}
.poloto7.poloto_fill{fill:chocolate;}
	</style>
	<circle r="1e5" class="poloto_background" fill="white"/>
	<g id="poloto_plot0" class="poloto_plot poloto_imgs poloto_line poloto0 poloto_stroke" fill="none" stroke="black">
		<path d=" M 150.00 112.07 L 180.52 111.80 L 180.62 111.79 L 180.97 111.77 L 181.14 111.54 L 181.25 111.51 L 181.27 111.50 L 182.57 111.44 L 182.86 110.61 L 183.25 110.42 L 183.90 108.77 L 184.32 108.76 L 184.84 108.06 L 185.13 108.14 L 185.27 108.14 L 185.43 107.34 L 185.81 106.79 L 185.86 106.21 L 185.99 106.13 L 186.32 106.09 L 186.53 105.81 L 186.81 108.95 L 187.18 108.90 L 187.93 107.64 L 188.25 107.33 L 188.55 107.07 L 190.42 105.27 L 192.03 104.40 L 193.96 102.74 L 194.45 102.66 L 195.00 102.66 L 195.59 102.59 L 206.82 102.11 L 207.74 102.07 L 314.07 100.80 L 648.89 100.51 L 650.00 100.00"/>
	</g>
	<g id="poloto_plot1" class="poloto_plot poloto_imgs poloto_line poloto1 poloto_stroke" fill="none" stroke="black">
		<path d=" M 150.00 251.80 L 180.52 251.79 L 180.62 251.79 L 180.97 251.79 L 181.14 251.79 L 181.25 251.77 L 181.27 251.77 L 182.57 251.77 L 182.86 251.75 L 183.25 251.73 L 183.90 251.70 L 184.32 251.70 L 184.84 251.60 L 185.13 251.60 L 185.27 251.60 L 185.43 251.60 L 185.81 251.21 L 185.86 251.21 L 185.99 251.21 L 186.32 251.21 L 186.53 251.21 L 186.81 251.30 L 187.18 251.30 L 187.93 251.29 L 188.25 251.29 L 188.55 251.29 L 190.42 250.05 L 192.03 249.71 L 193.96 248.82 L 194.45 248.82 L 195.00 248.82 L 195.59 248.82 L 206.82 248.71 L 207.74 248.71 L 314.07 248.55 L 648.89 248.32 L 650.00 248.25"/>
	</g>
	<g id="poloto_plot2" class="poloto_plot poloto_imgs poloto_line poloto2 poloto_stroke" fill="none" stroke="black">
		<path d=" M 150.00 298.15 L 180.52 297.94 L 180.62 297.93 L 180.97 297.92 L 181.14 297.73 L 181.25 297.73 L 181.27 297.72 L 182.57 297.66 L 182.86 297.04 L 183.25 296.90 L 183.90 295.67 L 184.32 295.66 L 184.84 295.13 L 185.13 295.19 L 185.27 295.19 L 185.43 294.52 L 185.81 294.40 L 185.86 293.94 L 185.99 293.87 L 186.32 293.82 L 186.53 293.59 L 186.81 296.35 L 187.18 296.31 L 187.93 295.20 L 188.25 294.96 L 188.55 294.71 L 190.42 294.27 L 192.03 293.81 L 193.96 293.16 L 194.45 293.09 L 195.00 293.09 L 195.59 293.03 L 206.82 292.70 L 207.74 292.67 L 314.07 291.81 L 648.89 291.78 L 650.00 291.39"/>
	</g>
	<g class="poloto_legend poloto_imgs poloto_line poloto0 poloto_stroke"><line x1="680" x2="730" y1="81.25" y2="81.25"/></g>
	<g class="poloto_legend poloto_imgs poloto_line poloto1 poloto_stroke"><line x1="680" x2="730" y1="131.25" y2="131.25"/></g>
	<g class="poloto_legend poloto_imgs poloto_line poloto2 poloto_stroke"><line x1="680" x2="730" y1="181.25" y2="181.25"/></g>
	<text class="poloto_legend poloto_text poloto_line poloto0" x="675" y="100">total</text>
	<text class="poloto_legend poloto_text poloto_line poloto1" x="675" y="150">code</text>
	<text class="poloto_legend poloto_text poloto_line poloto2" x="675" y="200">docs</text>
	<text class="poloto_text poloto_name poloto_title" x="400.00" y="37.50">Workspace lines over time</text>
	<text class="poloto_text poloto_name poloto_x" x="400.00" y="640">date (JST)</text>
	<text class="poloto_text poloto_name poloto_y" x="37.50" y="250.00" transform="rotate(-90,37.50,250.00)">lines</text>
	<text class="poloto_text poloto_ticks poloto_y">
		<tspan x="135.00" y="400.00">0</tspan>
		<tspan x="135.00" y="356.87">20K</tspan>
		<tspan x="135.00" y="313.75">40K</tspan>
		<tspan x="135.00" y="270.62">60K</tspan>
		<tspan x="135.00" y="227.49">80K</tspan>
		<tspan x="135.00" y="184.36">100K</tspan>
		<tspan x="135.00" y="141.24">120K</tspan>
	</text>
	<g class="poloto_imgs poloto_ticks poloto_y" stroke="black">
		<line x1="150.00" x2="144.00" y1="400.00" y2="400.00"/>
		<line x1="150.00" x2="144.00" y1="356.87" y2="356.87"/>
		<line x1="150.00" x2="144.00" y1="313.75" y2="313.75"/>
		<line x1="150.00" x2="144.00" y1="270.62" y2="270.62"/>
		<line x1="150.00" x2="144.00" y1="227.49" y2="227.49"/>
		<line x1="150.00" x2="144.00" y1="184.36" y2="184.36"/>
		<line x1="150.00" x2="144.00" y1="141.24" y2="141.24"/>
	</g>
	<g class="poloto_text poloto_ticks poloto_x">
		<text x="188.05" y="430.00" text-anchor="end" transform="rotate(-90 188.05 430.00)">2026-05-02 14:33</text>
		<text x="255.43" y="430.00" text-anchor="end" transform="rotate(-90 255.43 430.00)">2026-05-03 18:20</text>
		<text x="322.81" y="430.00" text-anchor="end" transform="rotate(-90 322.81 430.00)">2026-05-04 22:06</text>
		<text x="390.20" y="430.00" text-anchor="end" transform="rotate(-90 390.20 430.00)">2026-05-06 01:53</text>
		<text x="457.58" y="430.00" text-anchor="end" transform="rotate(-90 457.58 430.00)">2026-05-07 05:40</text>
		<text x="524.96" y="430.00" text-anchor="end" transform="rotate(-90 524.96 430.00)">2026-05-08 09:26</text>
		<text x="592.34" y="430.00" text-anchor="end" transform="rotate(-90 592.34 430.00)">2026-05-09 13:13</text>
	</g>
	<g class="poloto_imgs poloto_ticks poloto_x" stroke="black">
		<line x1="188.05" x2="188.05" y1="400.00" y2="405.00"/>
		<line x1="255.43" x2="255.43" y1="400.00" y2="405.00"/>
		<line x1="322.81" x2="322.81" y1="400.00" y2="405.00"/>
		<line x1="390.20" x2="390.20" y1="400.00" y2="405.00"/>
		<line x1="457.58" x2="457.58" y1="400.00" y2="405.00"/>
		<line x1="524.96" x2="524.96" y1="400.00" y2="405.00"/>
		<line x1="592.34" x2="592.34" y1="400.00" y2="405.00"/>
	</g>
	<path class="poloto_imgs poloto_ticks poloto_x" stroke="black" style="stroke-dasharray:6.738308361162547;stroke-dashoffset:-38.04583666869439;" d=" M 150.00 400.00 L 650.00 400.00"/>
	<path class="poloto_imgs poloto_ticks poloto_y" stroke="black" style="stroke-dasharray:10.781826153835096;stroke-dashoffset:-0;" d=" M 150.00 400.00 L 150.00 100.00"/>
</svg>

