<svg class="poloto" width="800" height="680" viewBox="0 0 800 680" xmlns="http://www.w3.org/2000/svg">
	<style>
.poloto{
  stroke-linecap:round;
  stroke-linejoin:round;
  font-family:Roboto,sans-serif;
  font-size:16px;
}
.poloto_background{fill:AliceBlue;}
.poloto_scatter{stroke-width:7}
.poloto_line{stroke-width:2}
.poloto_text{fill: black;}
.poloto_name{font-size:24px;dominant-baseline:auto;text-anchor:middle;}
.poloto_where{dominant-baseline:middle;text-anchor:start}
.poloto_text.poloto_legend{font-size:20px;dominant-baseline:middle;text-anchor:start;}
.poloto_text.poloto_ticks.poloto_y{dominant-baseline:middle;text-anchor:end}
.poloto_text.poloto_ticks.poloto_x{dominant-baseline:auto;text-anchor:middle}
.poloto_imgs.poloto_ticks{stroke: black;stroke-width:3;fill:none;stroke-dasharray:none}
.poloto_grid{stroke:gray;stroke-width:0.5}

.poloto0.poloto_stroke{stroke:blue;}
.poloto1.poloto_stroke{stroke:red;}
.poloto2.poloto_stroke{stroke:green;}
.poloto3.poloto_stroke{stroke:gold;}
.poloto4.poloto_stroke{stroke:aqua;}
.poloto5.poloto_stroke{stroke:lime;}
.poloto6.poloto_stroke{stroke:orange;}
.poloto7.poloto_stroke{stroke:chocolate;}
.poloto0.poloto_fill{fill:blue;}
.poloto1.poloto_fill{fill:red;}
.poloto2.poloto_fill{fill:green;}
.poloto3.poloto_fill{fill:gold;}
.poloto4.poloto_fill{fill:aqua;}
.poloto5.poloto_fill{fill:lime;}
.poloto6.poloto_fill{fill:orange;}
.poloto7.poloto_fill{fill:chocolate;}
	</style>
	<circle r="1e5" class="poloto_background" fill="white"/>
	<g id="poloto_plot0" class="poloto_plot poloto_imgs poloto_line poloto0 poloto_stroke" fill="none" stroke="black">
		<path d=" M 150.00 369.46 L 150.03 369.43 L 150.04 369.42 L 150.05 369.42 L 150.07 369.42 L 150.10 366.10 L 150.22 365.70 L 150.48 365.69 L 150.87 365.41 L 151.07 363.73 L 151.47 363.62 L 151.54 363.54 L 151.59 363.50 L 152.05 362.68 L 152.92 362.01 L 153.19 359.41 L 153.26 359.41 L 153.79 359.31 L 154.39 359.30 L 154.40 359.30 L 154.40 359.30 L 162.56 359.30 L 162.61 359.29 L 162.72 359.27 L 162.76 359.24 L 163.07 359.09 L 163.21 359.05 L 163.56 358.81 L 163.61 358.70 L 163.71 358.47 L 163.81 358.43 L 163.84 358.43 L 163.93 358.37 L 164.02 358.37 L 164.10 358.37 L 164.33 357.98 L 164.53 357.75 L 164.57 357.75 L 164.67 357.60 L 165.31 358.20 L 165.33 358.20 L 165.41 358.10 L 165.78 357.66 L 166.08 357.12 L 166.41 356.89 L 166.48 356.85 L 166.49 356.85 L 166.55 356.64 L 166.68 356.64 L 166.84 356.57 L 167.16 356.37 L 167.18 356.06 L 167.24 356.06 L 167.32 355.90 L 167.50 355.90 L 167.52 355.90 L 167.71 355.45 L 167.79 355.43 L 167.86 355.39 L 167.93 355.21 L 168.92 354.97 L 169.16 354.93 L 169.72 354.61 L 169.84 354.61 L 169.92 354.60 L 169.97 354.37 L 170.35 353.06 L 170.52 353.03 L 170.72 352.59 L 170.81 352.55 L 171.04 352.18 L 171.14 352.05 L 171.28 351.82 L 171.40 351.61 L 171.84 348.58 L 171.85 348.50 L 171.88 348.32 L 172.03 346.87 L 179.59 346.76 L 180.37 345.10 L 180.40 345.06 L 181.33 344.80 L 181.40 344.79 L 181.49 344.46 L 181.72 344.30 L 181.82 344.01 L 181.86 343.77 L 181.97 343.33 L 182.24 343.32 L 182.25 343.03 L 182.36 342.70 L 182.46 342.70 L 182.58 342.33 L 182.72 342.07 L 182.78 341.94 L 182.80 341.94 L 182.93 341.65 L 182.95 341.65 L 183.10 341.36 L 183.12 341.35 L 183.34 339.98 L 183.37 339.98 L 183.45 339.75 L 183.54 339.74 L 183.66 339.74 L 183.72 339.71 L 184.14 339.46 L 184.15 339.46 L 184.23 338.86 L 184.42 338.84 L 184.59 337.93 L 184.64 337.85 L 184.73 337.84 L 184.77 337.81 L 184.86 337.10 L 185.34 331.15 L 185.39 330.86 L 185.55 330.84 L 185.60 330.77 L 185.64 330.75 L 185.71 330.59 L 185.79 329.91 L 185.96 329.78 L 186.07 329.76 L 186.17 329.47 L 186.22 329.46 L 186.65 329.24 L 186.88 329.07 L 186.95 328.80 L 187.15 328.79 L 187.17 328.79 L 187.19 328.76 L 187.31 327.33 L 187.41 327.25 L 187.76 325.81 L 187.82 325.39 L 187.89 325.38 L 187.98 325.22 L 187.99 325.11 L 188.03 325.04 L 188.06 325.00 L 188.12 325.00 L 188.16 324.92 L 188.30 323.75 L 188.40 323.57 L 188.50 323.23 L 188.64 323.20 L 188.79 323.09 L 188.94 322.26 L 189.05 321.10 L 189.27 321.03 L 189.27 320.60 L 189.40 320.46 L 199.96 320.46 L 200.17 320.45 L 200.66 319.84 L 200.77 319.82 L 200.85 319.82 L 200.87 319.67 L 201.05 319.48 L 201.17 319.45 L 201.24 319.33 L 201.32 319.26 L 201.36 319.21 L 201.55 319.16 L 201.93 319.08 L 202.03 318.77 L 202.10 318.69 L 202.19 318.68 L 202.68 318.52 L 202.75 318.43 L 202.78 318.43 L 202.81 318.31 L 202.92 318.26 L 203.00 318.14 L 203.36 317.37 L 203.87 317.24 L 204.05 317.20 L 204.62 317.00 L 204.89 313.26 L 204.98 313.18 L 205.09 312.81 L 205.26 312.32 L 205.52 312.19 L 205.88 312.17 L 206.35 312.16 L 206.43 311.99 L 206.78 311.82 L 207.00 311.55 L 207.07 311.44 L 207.21 311.40 L 207.32 311.07 L 208.56 310.70 L 209.75 310.70 L 220.38 310.66 L 220.46 310.50 L 220.51 310.40 L 220.85 310.24 L 221.84 308.95 L 221.88 308.86 L 222.02 308.53 L 222.51 308.45 L 222.74 307.57 L 223.09 307.57 L 223.17 307.55 L 223.25 306.96 L 223.87 303.55 L 223.94 303.55 L 224.07 303.52 L 224.21 303.48 L 224.27 303.11 L 224.61 301.83 L 224.74 301.59 L 224.80 301.57 L 224.87 300.98 L 225.03 300.14 L 225.09 299.26 L 225.24 298.86 L 225.70 294.44 L 225.75 293.99 L 225.79 293.99 L 225.86 293.91 L 225.98 293.80 L 226.02 293.76 L 226.07 293.71 L 226.29 292.65 L 226.34 291.91 L 226.61 291.76 L 226.77 290.64 L 226.87 289.94 L 227.70 279.63 L 227.79 279.61 L 259.03 279.11 L 259.06 279.11 L 271.00 278.97 L 271.65 278.69 L 271.78 278.69 L 271.96 278.61 L 272.02 278.48 L 272.09 278.44 L 277.26 278.37 L 277.95 276.41 L 278.20 276.23 L 278.34 275.51 L 281.56 275.37 L 281.58 275.17 L 281.78 275.15 L 282.75 273.92 L 282.80 273.69 L 282.92 273.61 L 283.26 273.53 L 283.31 273.50 L 283.44 273.12 L 283.59 273.02 L 283.61 272.75 L 293.64 272.37 L 293.72 271.31 L 294.12 271.08 L 294.13 269.31 L 294.20 269.05 L 294.28 268.62 L 294.39 267.40 L 294.56 266.75 L 294.70 265.99 L 294.83 265.99 L 294.88 265.41 L 295.09 265.36 L 295.78 262.51 L 296.06 262.20 L 296.11 262.03 L 296.17 262.02 L 296.20 261.82 L 296.30 261.12 L 296.58 260.79 L 296.62 260.74 L 296.80 258.24 L 296.86 258.23 L 296.89 257.96 L 296.95 257.76 L 297.00 257.75 L 297.04 257.38 L 297.26 256.02 L 297.35 255.64 L 297.47 255.59 L 297.56 251.96 L 297.59 251.67 L 297.81 249.60 L 297.88 249.44 L 297.92 249.43 L 297.97 249.43 L 298.01 249.14 L 298.04 249.15 L 298.05 249.14 L 298.16 245.48 L 298.20 245.17 L 298.31 245.15 L 298.39 245.08 L 298.61 244.98 L 298.89 244.84 L 298.90 244.84 L 298.97 244.80 L 299.23 244.73 L 299.35 244.73 L 299.47 244.73 L 299.61 243.13 L 299.69 242.75 L 300.05 242.74 L 300.08 242.49 L 300.12 242.49 L 300.15 242.22 L 300.38 239.91 L 300.42 239.85 L 300.59 239.84 L 316.03 239.77 L 316.91 239.65 L 316.94 239.65 L 317.11 239.65 L 317.13 239.65 L 317.24 239.19 L 317.32 239.18 L 317.40 238.95 L 317.51 238.89 L 317.54 238.86 L 317.58 238.84 L 317.74 238.59 L 318.08 238.36 L 318.29 237.62 L 318.53 236.91 L 318.53 236.87 L 318.57 236.21 L 318.60 236.19 L 319.06 235.80 L 319.07 235.75 L 319.14 235.23 L 319.34 235.17 L 319.47 235.12 L 319.50 234.19 L 319.50 234.14 L 319.56 235.03 L 319.59 234.48 L 319.61 234.46 L 319.72 233.21 L 319.73 233.18 L 319.98 233.07 L 320.64 233.06 L 320.79 233.01 L 320.84 233.00 L 320.87 232.84 L 320.91 232.84 L 321.00 232.22 L 331.56 231.03 L 331.57 230.86 L 331.66 230.75 L 331.69 230.52 L 331.75 220.08 L 331.86 215.81 L 331.88 215.79 L 332.07 215.70 L 332.12 215.70 L 332.15 215.21 L 332.32 215.16 L 332.78 214.15 L 332.79 214.13 L 332.90 213.82 L 332.95 213.83 L 332.97 213.33 L 333.35 212.73 L 333.37 212.71 L 333.94 212.48 L 334.01 211.95 L 334.22 211.96 L 334.46 210.61 L 334.52 210.08 L 334.56 209.65 L 334.67 209.13 L 334.97 208.95 L 335.02 208.82 L 335.15 208.70 L 335.29 208.70 L 335.74 208.70 L 335.79 208.70 L 335.89 208.68 L 335.90 208.67 L 336.04 208.69 L 336.38 208.66 L 336.72 208.47 L 336.77 208.46 L 336.85 208.39 L 336.95 208.24 L 337.21 208.24 L 337.66 208.05 L 337.80 207.64 L 338.05 204.04 L 339.02 207.08 L 339.23 207.07 L 339.39 207.05 L 339.63 207.05 L 339.70 206.99 L 339.95 206.82 L 340.33 206.57 L 340.38 206.41 L 340.45 206.34 L 340.50 206.36 L 340.53 206.30 L 340.83 206.08 L 347.83 206.07 L 347.89 206.08 L 348.33 206.07 L 348.37 206.05 L 348.47 205.59 L 348.55 205.33 L 348.56 205.33 L 348.80 205.29 L 348.86 205.27 L 350.29 204.59 L 350.46 204.54 L 350.58 204.52 L 350.61 204.52 L 351.05 204.36 L 351.20 204.44 L 351.23 204.43 L 351.47 204.39 L 351.73 202.97 L 351.76 202.96 L 351.98 202.79 L 352.07 202.79 L 352.15 202.79 L 352.33 202.64 L 352.72 202.06 L 352.80 202.04 L 352.87 201.88 L 353.03 201.20 L 353.41 200.50 L 353.75 197.19 L 353.82 196.79 L 354.17 196.63 L 354.23 196.54 L 354.29 196.38 L 354.33 195.85 L 354.45 194.90 L 354.48 194.94 L 354.53 194.92 L 354.73 194.91 L 355.04 194.56 L 355.22 194.50 L 355.44 194.48 L 355.54 194.47 L 355.75 194.46 L 356.11 194.46 L 356.46 194.45 L 356.73 194.45 L 356.79 194.44 L 356.86 194.43 L 356.86 194.31 L 357.07 194.24 L 357.13 194.23 L 357.21 194.09 L 357.78 194.07 L 357.79 193.78 L 357.95 193.77 L 358.62 193.77 L 359.06 193.60 L 359.39 193.39 L 359.40 193.27 L 359.42 193.27 L 369.22 193.07 L 369.25 193.07 L 369.36 193.06 L 369.42 192.89 L 369.45 192.87 L 369.46 192.86 L 369.88 192.82 L 369.97 192.22 L 370.10 192.08 L 370.30 190.90 L 370.44 190.89 L 370.60 190.39 L 370.70 190.45 L 370.74 190.45 L 370.79 189.87 L 370.92 189.48 L 370.93 189.06 L 370.98 189.01 L 371.08 188.97 L 371.15 188.78 L 371.24 191.03 L 371.36 190.99 L 371.60 190.09 L 371.70 189.87 L 371.80 189.68 L 372.40 188.39 L 372.91 187.76 L 373.53 186.57 L 373.69 186.51 L 373.86 186.51 L 374.06 186.46 L 377.66 186.12 L 377.96 186.09 L 412.08 185.18 L 519.54 184.97 L 519.90 184.60 L 520.15 184.55 L 520.39 184.55 L 520.77 183.85 L 520.89 183.52 L 520.99 182.89 L 521.16 181.07 L 521.41 181.44 L 521.61 181.05 L 521.66 181.04 L 521.82 180.92 L 521.86 180.93 L 522.04 180.26 L 522.20 179.19 L 522.68 178.06 L 522.70 177.97 L 522.84 176.62 L 523.30 173.28 L 523.31 173.17 L 523.40 173.09 L 523.51 171.90 L 524.01 170.29 L 524.02 170.15 L 524.13 170.07 L 524.25 169.28 L 524.44 168.65 L 524.45 168.54 L 524.53 167.31 L 524.54 167.28 L 524.59 166.94 L 524.80 164.76 L 524.83 164.64 L 524.90 164.52 L 525.13 164.23 L 525.17 164.22 L 525.35 163.80 L 525.65 163.85 L 525.70 163.80 L 525.74 163.77 L 525.79 163.73 L 525.94 162.46 L 526.10 161.42 L 526.12 161.33 L 526.21 160.02 L 526.30 158.75 L 526.32 158.59 L 526.42 157.11 L 526.46 155.93 L 526.64 155.15 L 526.67 155.09 L 526.76 154.84 L 526.89 154.82 L 527.66 154.79 L 528.05 154.75 L 536.44 154.80 L 536.53 154.58 L 536.61 154.38 L 536.75 153.51 L 537.07 153.28 L 537.09 153.19 L 537.15 152.03 L 537.35 150.91 L 537.37 150.82 L 539.21 150.74 L 539.32 150.11 L 540.24 149.92 L 540.34 149.88 L 540.45 148.57 L 541.56 147.35 L 542.04 146.88 L 542.16 145.92 L 542.56 144.28 L 542.81 143.81 L 543.22 142.85 L 543.96 142.36 L 555.19 142.35 L 555.86 142.24 L 555.89 142.26 L 556.83 142.07 L 556.88 141.97 L 557.21 141.90 L 557.59 140.83 L 557.59 140.83 L 557.64 140.79 L 558.14 139.57 L 559.29 138.87 L 559.37 138.81 L 559.48 138.80 L 559.66 138.47 L 559.71 138.39 L 559.78 138.33 L 560.31 138.28 L 560.74 138.28 L 560.98 138.28 L 561.01 138.23 L 561.49 137.17 L 561.86 136.96 L 561.87 136.88 L 561.92 136.80 L 561.97 136.51 L 574.16 136.10 L 574.18 136.08 L 574.22 136.06 L 574.46 135.94 L 574.64 135.81 L 575.71 134.17 L 575.98 133.98 L 576.75 133.48 L 577.42 133.37 L 577.91 133.21 L 578.05 131.69 L 578.67 129.92 L 578.90 129.79 L 578.98 128.65 L 580.78 126.54 L 580.80 126.54 L 580.90 126.03 L 581.24 125.97 L 581.25 125.97 L 581.27 125.85 L 581.33 125.68 L 581.48 125.52 L 581.68 124.63 L 583.55 122.51 L 583.79 122.25 L 583.96 121.87 L 583.99 121.82 L 584.02 121.53 L 592.33 120.56 L 592.60 119.83 L 592.75 119.80 L 592.81 119.32 L 593.60 119.09 L 593.76 118.61 L 593.91 118.61 L 593.99 117.58 L 594.26 114.99 L 594.30 114.95 L 594.65 114.90 L 594.73 114.06 L 595.03 113.04 L 595.09 112.34 L 595.34 111.69 L 595.52 111.35 L 595.66 110.57 L 595.97 109.91 L 596.00 109.17 L 596.41 109.00 L 596.44 109.00 L 596.51 108.06 L 596.59 108.06 L 596.63 107.99 L 597.09 106.22 L 597.77 105.64 L 598.10 105.84 L 599.20 105.75 L 599.22 105.74 L 599.40 105.73 L 599.47 105.71 L 599.59 105.59 L 599.73 105.48 L 599.88 105.29 L 600.20 105.03 L 600.52 105.02 L 601.50 104.84 L 601.55 104.83 L 602.53 104.67 L 602.95 104.56 L 611.35 104.54 L 611.78 104.41 L 611.99 104.32 L 612.08 104.32 L 612.10 104.32 L 612.32 104.30 L 612.41 104.24 L 612.66 104.07 L 612.81 104.04 L 613.36 103.86 L 613.64 103.46 L 614.12 103.40 L 614.25 103.15 L 614.41 102.99 L 614.62 102.79 L 615.34 102.84 L 615.41 102.83 L 616.47 102.34 L 616.63 102.05 L 616.85 101.95 L 617.36 101.72 L 617.60 101.78 L 617.72 102.17 L 617.82 102.14 L 617.96 101.98 L 618.41 100.83 L 618.89 100.70 L 619.31 100.61 L 619.36 100.56 L 619.41 100.23 L 649.80 100.14 L 650.00 100.00"/>
	</g>
	<g id="poloto_plot1" class="poloto_plot poloto_imgs poloto_line poloto1 poloto_stroke" fill="none" stroke="black">
		<path d=" M 150.00 381.85 L 150.03 381.84 L 150.04 381.82 L 150.05 381.82 L 150.07 381.82 L 150.10 381.25 L 150.22 381.23 L 150.48 381.22 L 150.87 381.00 L 151.07 380.91 L 151.47 380.93 L 151.54 380.89 L 151.59 380.89 L 152.05 380.85 L 152.92 380.74 L 153.19 378.49 L 153.26 378.49 L 153.79 378.44 L 154.39 378.43 L 154.40 378.43 L 154.40 378.43 L 162.56 378.43 L 162.61 378.43 L 162.72 378.43 L 162.76 378.40 L 163.07 378.39 L 163.21 378.39 L 163.56 378.39 L 163.61 378.39 L 163.71 378.37 L 163.81 378.37 L 163.84 378.37 L 163.93 378.34 L 164.02 378.34 L 164.10 378.34 L 164.33 378.22 L 164.53 378.22 L 164.57 378.22 L 164.67 378.22 L 165.31 379.06 L 165.33 379.06 L 165.41 379.05 L 165.78 378.92 L 166.08 378.78 L 166.41 378.72 L 166.48 378.68 L 166.49 378.68 L 166.55 378.68 L 166.68 378.68 L 166.84 378.62 L 167.16 378.57 L 167.18 378.57 L 167.24 378.57 L 167.32 378.55 L 167.50 378.55 L 167.52 378.55 L 167.71 378.54 L 167.79 378.54 L 167.86 378.54 L 167.93 378.54 L 168.92 378.44 L 169.16 378.44 L 169.72 378.39 L 169.84 378.39 L 169.92 378.39 L 169.97 378.39 L 170.35 378.32 L 170.52 378.32 L 170.72 378.24 L 170.81 378.23 L 171.04 378.05 L 171.14 377.99 L 171.28 377.99 L 171.40 377.98 L 171.84 375.36 L 171.85 375.32 L 171.88 375.32 L 172.03 375.06 L 179.59 375.06 L 180.37 373.93 L 180.40 373.93 L 181.33 373.93 L 181.40 373.93 L 181.49 373.81 L 181.72 373.79 L 181.82 373.79 L 181.86 373.79 L 181.97 373.79 L 182.24 373.79 L 182.25 373.55 L 182.36 373.54 L 182.46 373.54 L 182.58 373.51 L 182.72 373.50 L 182.78 373.50 L 182.80 373.50 L 182.93 373.50 L 182.95 373.50 L 183.10 373.50 L 183.12 373.50 L 183.34 372.39 L 183.37 372.39 L 183.45 372.26 L 183.54 372.26 L 183.66 372.26 L 183.72 372.25 L 184.14 372.24 L 184.15 372.24 L 184.23 372.17 L 184.42 372.17 L 184.59 371.54 L 184.64 371.46 L 184.73 371.46 L 184.77 371.46 L 184.86 371.44 L 185.34 366.75 L 185.39 366.79 L 185.55 366.79 L 185.60 366.79 L 185.64 366.79 L 185.71 366.79 L 185.79 366.72 L 185.96 366.72 L 186.07 366.72 L 186.17 366.71 L 186.22 366.71 L 186.65 366.71 L 186.88 366.70 L 186.95 366.59 L 187.15 366.59 L 187.17 366.59 L 187.19 366.59 L 187.31 366.27 L 187.41 366.19 L 187.76 365.08 L 187.82 365.08 L 187.89 365.08 L 187.98 365.09 L 187.99 365.09 L 188.03 365.09 L 188.06 365.09 L 188.12 365.09 L 188.16 365.09 L 188.30 365.07 L 188.40 365.07 L 188.50 365.06 L 188.64 365.06 L 188.79 365.05 L 188.94 364.63 L 189.05 364.49 L 189.27 364.49 L 189.27 364.49 L 189.40 364.49 L 199.96 364.49 L 200.17 364.48 L 200.66 364.41 L 200.77 364.40 L 200.85 364.40 L 200.87 364.40 L 201.05 364.40 L 201.17 364.40 L 201.24 364.40 L 201.32 364.40 L 201.36 364.40 L 201.55 364.40 L 201.93 364.42 L 202.03 364.42 L 202.10 364.42 L 202.19 364.42 L 202.68 364.33 L 202.75 364.29 L 202.78 364.29 L 202.81 364.23 L 202.92 364.22 L 203.00 364.22 L 203.36 363.80 L 203.87 363.80 L 204.05 363.80 L 204.62 363.80 L 204.89 360.93 L 204.98 360.92 L 205.09 360.92 L 205.26 360.92 L 205.52 360.92 L 205.88 360.92 L 206.35 360.92 L 206.43 360.92 L 206.78 360.85 L 207.00 360.73 L 207.07 360.73 L 207.21 360.73 L 207.32 360.71 L 208.56 360.53 L 209.75 360.53 L 220.38 360.53 L 220.46 360.53 L 220.51 360.53 L 220.85 360.53 L 221.84 359.63 L 221.88 359.60 L 222.02 359.50 L 222.51 359.50 L 222.74 359.28 L 223.09 359.28 L 223.17 359.28 L 223.25 359.28 L 223.87 356.77 L 223.94 356.77 L 224.07 356.77 L 224.21 356.77 L 224.27 356.60 L 224.61 356.30 L 224.74 356.30 L 224.80 356.30 L 224.87 355.84 L 225.03 355.37 L 225.09 355.37 L 225.24 355.36 L 225.70 351.61 L 225.75 351.61 L 225.79 351.61 L 225.86 351.61 L 225.98 351.61 L 226.02 351.61 L 226.07 351.61 L 226.29 351.61 L 226.34 351.53 L 226.61 351.52 L 226.77 351.46 L 226.87 351.01 L 227.70 343.55 L 227.79 343.55 L 259.03 343.55 L 259.06 343.55 L 271.00 343.55 L 271.65 343.43 L 271.78 343.43 L 271.96 343.43 L 272.02 343.43 L 272.09 343.43 L 277.26 343.37 L 277.95 343.30 L 278.20 343.30 L 278.34 343.28 L 281.56 343.22 L 281.58 343.12 L 281.78 343.12 L 282.75 342.10 L 282.80 342.10 L 282.92 342.10 L 283.26 342.10 L 283.31 342.10 L 283.44 342.10 L 283.59 342.10 L 283.61 342.10 L 293.64 342.09 L 293.72 341.91 L 294.12 341.91 L 294.13 340.69 L 294.20 340.69 L 294.28 340.69 L 294.39 340.58 L 294.56 340.58 L 294.70 340.52 L 294.83 340.52 L 294.88 340.52 L 295.09 340.51 L 295.78 338.44 L 296.06 338.43 L 296.11 338.42 L 296.17 338.42 L 296.20 338.42 L 296.30 338.39 L 296.58 338.13 L 296.62 338.10 L 296.80 336.24 L 296.86 336.23 L 296.89 336.23 L 296.95 336.20 L 297.00 336.20 L 297.04 336.20 L 297.26 335.19 L 297.35 335.17 L 297.47 335.15 L 297.56 332.00 L 297.59 332.00 L 297.81 330.23 L 297.88 330.23 L 297.92 330.22 L 297.97 330.22 L 298.01 330.22 L 298.04 330.22 L 298.05 330.22 L 298.16 326.94 L 298.20 326.94 L 298.31 326.93 L 298.39 326.93 L 298.61 326.86 L 298.89 326.77 L 298.90 326.77 L 298.97 326.75 L 299.23 326.70 L 299.35 326.70 L 299.47 326.70 L 299.61 325.29 L 299.69 325.29 L 300.05 325.28 L 300.08 325.28 L 300.12 325.28 L 300.15 325.28 L 300.38 323.26 L 300.42 323.26 L 300.59 323.24 L 316.03 323.24 L 316.91 323.23 L 316.94 323.23 L 317.11 323.23 L 317.13 323.23 L 317.24 323.23 L 317.32 323.23 L 317.40 323.13 L 317.51 323.13 L 317.54 323.13 L 317.58 323.13 L 317.74 322.95 L 318.08 322.83 L 318.29 322.71 L 318.53 322.14 L 318.53 322.14 L 318.57 322.00 L 318.60 321.98 L 319.06 321.63 L 319.07 321.63 L 319.14 321.58 L 319.34 321.58 L 319.47 321.55 L 319.50 320.71 L 319.50 320.71 L 319.56 321.54 L 319.59 321.49 L 319.61 321.48 L 319.72 320.35 L 319.73 320.35 L 319.98 320.31 L 320.64 320.31 L 320.79 320.31 L 320.84 320.31 L 320.87 320.31 L 320.91 320.31 L 321.00 320.23 L 331.56 319.30 L 331.57 319.30 L 331.66 319.29 L 331.69 319.09 L 331.75 309.13 L 331.86 305.42 L 331.88 305.42 L 332.07 305.35 L 332.12 305.35 L 332.15 305.34 L 332.32 305.34 L 332.78 304.43 L 332.79 304.43 L 332.90 304.38 L 332.95 304.38 L 332.97 304.31 L 333.35 303.77 L 333.37 303.77 L 333.94 303.65 L 334.01 303.62 L 334.22 303.63 L 334.46 302.40 L 334.52 302.28 L 334.56 302.17 L 334.67 301.71 L 334.97 301.59 L 335.02 301.49 L 335.15 301.49 L 335.29 301.49 L 335.74 301.49 L 335.79 301.49 L 335.89 301.49 L 335.90 301.49 L 336.04 301.51 L 336.38 301.51 L 336.72 301.38 L 336.77 301.38 L 336.85 301.37 L 336.95 301.37 L 337.21 301.37 L 337.66 301.37 L 337.80 301.26 L 338.05 298.04 L 339.02 301.07 L 339.23 301.06 L 339.39 301.05 L 339.63 301.05 L 339.70 301.02 L 339.95 301.00 L 340.33 300.81 L 340.38 300.81 L 340.45 300.81 L 340.50 300.81 L 340.53 300.81 L 340.83 300.64 L 347.83 300.64 L 347.89 300.64 L 348.33 300.63 L 348.37 300.63 L 348.47 300.60 L 348.55 300.37 L 348.56 300.37 L 348.80 300.35 L 348.86 300.35 L 350.29 300.16 L 350.46 300.16 L 350.58 300.16 L 350.61 300.16 L 351.05 300.03 L 351.20 300.03 L 351.23 300.03 L 351.47 300.02 L 351.73 299.26 L 351.76 299.26 L 351.98 299.14 L 352.07 299.14 L 352.15 299.14 L 352.33 299.14 L 352.72 299.12 L 352.80 299.10 L 352.87 299.03 L 353.03 298.90 L 353.41 298.79 L 353.75 295.75 L 353.82 295.65 L 354.17 295.51 L 354.23 295.47 L 354.29 295.36 L 354.33 295.15 L 354.45 294.24 L 354.48 294.28 L 354.53 294.26 L 354.73 294.26 L 355.04 294.13 L 355.22 294.08 L 355.44 294.07 L 355.54 294.06 L 355.75 294.05 L 356.11 294.05 L 356.46 294.04 L 356.73 294.04 L 356.79 294.03 L 356.86 294.03 L 356.86 294.02 L 357.07 294.02 L 357.13 294.01 L 357.21 293.90 L 357.78 293.89 L 357.79 293.89 L 357.95 293.87 L 358.62 293.87 L 359.06 293.72 L 359.39 293.59 L 359.40 293.59 L 359.42 293.59 L 369.22 293.59 L 369.25 293.59 L 369.36 293.59 L 369.42 293.59 L 369.45 293.57 L 369.46 293.57 L 369.88 293.57 L 369.97 293.56 L 370.10 293.54 L 370.30 293.52 L 370.44 293.52 L 370.60 293.45 L 370.70 293.45 L 370.74 293.45 L 370.79 293.45 L 370.92 293.17 L 370.93 293.17 L 370.98 293.17 L 371.08 293.17 L 371.15 293.17 L 371.24 293.24 L 371.36 293.24 L 371.60 293.23 L 371.70 293.23 L 371.80 293.23 L 372.40 292.34 L 372.91 292.10 L 373.53 291.46 L 373.69 291.46 L 373.86 291.46 L 374.06 291.46 L 377.66 291.38 L 377.96 291.38 L 412.08 291.26 L 519.54 291.10 L 519.90 291.05 L 520.15 291.04 L 520.39 291.04 L 520.77 290.63 L 520.89 290.63 L 520.99 290.63 L 521.16 289.13 L 521.41 289.42 L 521.61 289.40 L 521.66 289.40 L 521.82 289.38 L 521.86 289.38 L 522.04 289.38 L 522.20 289.31 L 522.68 288.37 L 522.70 288.37 L 522.84 288.28 L 523.30 285.22 L 523.31 285.22 L 523.40 285.22 L 523.51 285.17 L 524.01 283.75 L 524.02 283.75 L 524.13 283.75 L 524.25 283.71 L 524.44 283.19 L 524.45 283.19 L 524.53 283.19 L 524.54 283.19 L 524.59 282.90 L 524.80 280.88 L 524.83 280.88 L 524.90 280.88 L 525.13 280.71 L 525.17 280.71 L 525.35 280.37 L 525.65 280.37 L 525.70 280.37 L 525.74 280.37 L 525.79 280.37 L 525.94 280.36 L 526.10 279.45 L 526.12 279.45 L 526.21 279.45 L 526.30 278.76 L 526.32 278.76 L 526.42 278.02 L 526.46 277.98 L 526.64 277.26 L 526.67 277.26 L 526.76 277.26 L 526.89 277.24 L 527.66 277.24 L 528.05 277.24 L 536.44 277.24 L 536.53 277.24 L 536.61 277.24 L 536.75 277.24 L 537.07 277.04 L 537.09 277.04 L 537.15 276.99 L 537.35 275.97 L 537.37 275.97 L 539.21 275.99 L 539.32 275.80 L 540.24 275.80 L 540.34 275.79 L 540.45 275.71 L 541.56 274.88 L 542.04 274.73 L 542.16 274.67 L 542.56 273.09 L 542.81 273.09 L 543.22 272.96 L 543.96 272.96 L 555.19 272.95 L 555.86 272.86 L 555.89 272.88 L 556.83 272.88 L 556.88 272.88 L 557.21 272.88 L 557.59 272.85 L 557.59 272.85 L 557.64 272.85 L 558.14 271.92 L 559.29 271.90 L 559.37 271.90 L 559.48 271.89 L 559.66 271.86 L 559.71 271.83 L 559.78 271.83 L 560.31 271.79 L 560.74 271.79 L 560.98 271.78 L 561.01 271.78 L 561.49 271.77 L 561.86 271.66 L 561.87 271.66 L 561.92 271.66 L 561.97 271.66 L 574.16 271.44 L 574.18 271.44 L 574.22 271.44 L 574.46 271.44 L 574.64 271.44 L 575.71 270.53 L 575.98 270.47 L 576.75 270.40 L 577.42 270.36 L 577.91 270.36 L 578.05 270.36 L 578.67 268.98 L 578.90 268.94 L 578.98 268.89 L 580.78 267.92 L 580.80 267.92 L 580.90 267.91 L 581.24 267.90 L 581.25 267.90 L 581.27 267.90 L 581.33 267.87 L 581.48 267.83 L 581.68 267.72 L 583.55 266.13 L 583.79 266.05 L 583.96 266.05 L 583.99 266.05 L 584.02 266.05 L 592.33 266.05 L 592.60 266.04 L 592.75 266.04 L 592.81 266.04 L 593.60 266.04 L 593.76 266.04 L 593.91 266.04 L 593.99 266.00 L 594.26 263.91 L 594.30 263.89 L 594.65 263.90 L 594.73 263.89 L 595.03 263.08 L 595.09 263.03 L 595.34 262.50 L 595.52 262.50 L 595.66 262.46 L 595.97 261.97 L 596.00 261.96 L 596.41 260.41 L 596.44 260.41 L 596.51 260.40 L 596.59 260.40 L 596.63 260.40 L 597.09 258.84 L 597.77 258.70 L 598.10 258.70 L 599.20 258.66 L 599.22 258.66 L 599.40 258.66 L 599.47 258.66 L 599.59 258.66 L 599.73 258.66 L 599.88 258.64 L 600.20 258.62 L 600.52 258.62 L 601.50 258.55 L 601.55 258.55 L 602.53 258.51 L 602.95 258.47 L 611.35 258.48 L 611.78 258.41 L 611.99 258.33 L 612.08 258.33 L 612.10 258.33 L 612.32 258.32 L 612.41 258.32 L 612.66 258.32 L 612.81 258.31 L 613.36 258.17 L 613.64 257.89 L 614.12 257.87 L 614.25 257.68 L 614.41 257.60 L 614.62 257.51 L 615.34 257.60 L 615.41 257.60 L 616.47 257.30 L 616.63 257.30 L 616.85 257.30 L 617.36 257.27 L 617.60 257.42 L 617.72 257.42 L 617.82 257.42 L 617.96 257.42 L 618.41 256.74 L 618.89 256.73 L 619.31 256.73 L 619.36 256.73 L 619.41 256.73 L 649.80 256.73 L 650.00 256.68"/>
	</g>
	<g id="poloto_plot2" class="poloto_plot poloto_imgs poloto_line poloto2 poloto_stroke" fill="none" stroke="black">
		<path d=" M 150.00 391.86 L 150.03 391.85 L 150.04 391.85 L 150.05 391.85 L 150.07 391.85 L 150.10 389.77 L 150.22 389.48 L 150.48 389.48 L 150.87 389.46 L 151.07 388.22 L 151.47 388.11 L 151.54 388.07 L 151.59 388.04 L 152.05 387.48 L 152.92 387.04 L 153.19 386.96 L 153.26 386.96 L 153.79 386.93 L 154.39 386.93 L 154.40 386.93 L 154.40 386.93 L 162.56 386.93 L 162.61 386.93 L 162.72 386.91 L 162.76 386.91 L 163.07 386.78 L 163.21 386.75 L 163.56 386.54 L 163.61 386.45 L 163.71 386.27 L 163.81 386.25 L 163.84 386.24 L 163.93 386.21 L 164.02 386.21 L 164.10 386.21 L 164.33 386.00 L 164.53 385.81 L 164.57 385.81 L 164.67 385.70 L 165.31 385.45 L 165.33 385.44 L 165.41 385.37 L 165.78 385.09 L 166.08 384.75 L 166.41 384.61 L 166.48 384.61 L 166.49 384.62 L 166.55 384.42 L 166.68 384.42 L 166.84 384.40 L 167.16 384.26 L 167.18 384.02 L 167.24 384.02 L 167.32 383.90 L 167.50 383.90 L 167.52 383.90 L 167.71 383.53 L 167.79 383.51 L 167.86 383.48 L 167.93 383.31 L 168.92 383.21 L 169.16 383.17 L 169.72 382.92 L 169.84 382.92 L 169.92 382.90 L 169.97 382.72 L 170.35 381.70 L 170.52 381.68 L 170.72 381.37 L 170.81 381.35 L 171.04 381.21 L 171.14 381.16 L 171.28 380.94 L 171.40 380.76 L 171.84 380.76 L 171.85 380.74 L 171.88 380.59 L 172.03 379.61 L 179.59 379.51 L 180.37 379.21 L 180.40 379.17 L 181.33 378.93 L 181.40 378.92 L 181.49 378.74 L 181.72 378.62 L 181.82 378.39 L 181.86 378.21 L 181.97 377.84 L 182.24 377.83 L 182.25 377.83 L 182.36 377.58 L 182.46 377.57 L 182.58 377.30 L 182.72 377.09 L 182.78 376.98 L 182.80 376.97 L 182.93 376.73 L 182.95 376.72 L 183.10 376.50 L 183.12 376.49 L 183.34 376.41 L 183.37 376.41 L 183.45 376.33 L 183.54 376.31 L 183.66 376.31 L 183.72 376.29 L 184.14 376.07 L 184.15 376.08 L 184.23 375.64 L 184.42 375.62 L 184.59 375.48 L 184.64 375.48 L 184.73 375.48 L 184.77 375.44 L 184.86 374.83 L 185.34 374.32 L 185.39 374.04 L 185.55 374.02 L 185.60 373.95 L 185.64 373.94 L 185.71 373.81 L 185.79 373.33 L 185.96 373.25 L 186.07 373.24 L 186.17 373.00 L 186.22 372.99 L 186.65 372.81 L 186.88 372.68 L 186.95 372.57 L 187.15 372.56 L 187.17 372.56 L 187.19 372.54 L 187.31 371.67 L 187.41 371.66 L 187.76 371.53 L 187.82 371.19 L 187.89 371.18 L 187.98 371.04 L 187.99 370.95 L 188.03 370.90 L 188.06 370.86 L 188.12 370.86 L 188.16 370.79 L 188.30 369.81 L 188.40 369.71 L 188.50 369.42 L 188.64 369.40 L 188.79 369.30 L 188.94 369.00 L 189.05 368.15 L 189.27 368.08 L 189.27 367.72 L 189.40 367.63 L 199.96 367.63 L 200.17 367.63 L 200.66 367.23 L 200.77 367.23 L 200.85 367.23 L 200.87 367.12 L 201.05 366.95 L 201.17 366.92 L 201.24 366.82 L 201.32 366.74 L 201.36 366.71 L 201.55 366.65 L 201.93 366.73 L 202.03 366.47 L 202.10 366.39 L 202.19 366.39 L 202.68 366.33 L 202.75 366.29 L 202.78 366.29 L 202.81 366.23 L 202.92 366.19 L 203.00 366.09 L 203.36 365.84 L 203.87 365.73 L 204.05 365.68 L 204.62 365.52 L 204.89 365.13 L 204.98 365.06 L 205.09 364.75 L 205.26 364.35 L 205.52 364.24 L 205.88 364.23 L 206.35 364.22 L 206.43 364.07 L 206.78 363.97 L 207.00 363.85 L 207.07 363.74 L 207.21 363.71 L 207.32 363.44 L 208.56 363.31 L 209.75 363.31 L 220.38 363.28 L 220.46 363.13 L 220.51 363.04 L 220.85 362.89 L 221.84 362.62 L 221.88 362.59 L 222.02 362.40 L 222.51 362.33 L 222.74 361.81 L 223.09 361.80 L 223.17 361.78 L 223.25 361.27 L 223.87 360.80 L 223.94 360.79 L 224.07 360.77 L 224.21 360.72 L 224.27 360.55 L 224.61 359.76 L 224.74 359.56 L 224.80 359.54 L 224.87 359.46 L 225.03 359.15 L 225.09 358.36 L 225.24 358.04 L 225.70 357.85 L 225.75 357.45 L 225.79 357.45 L 225.86 357.38 L 225.98 357.27 L 226.02 357.25 L 226.07 357.21 L 226.29 356.29 L 226.34 355.74 L 226.61 355.64 L 226.77 354.72 L 226.87 354.55 L 227.70 353.10 L 227.79 353.08 L 259.03 352.65 L 259.06 352.65 L 271.00 352.54 L 271.65 352.38 L 271.78 352.38 L 271.96 352.31 L 272.02 352.19 L 272.09 352.16 L 277.26 352.15 L 277.95 350.49 L 278.20 350.35 L 278.34 349.77 L 281.56 349.70 L 281.58 349.65 L 281.78 349.64 L 282.75 349.54 L 282.80 349.35 L 282.92 349.28 L 283.26 349.19 L 283.31 349.17 L 283.44 348.85 L 283.59 348.75 L 283.61 348.51 L 293.64 348.19 L 293.72 347.44 L 294.12 347.24 L 294.13 346.95 L 294.20 346.73 L 294.28 346.38 L 294.39 345.47 L 294.56 344.97 L 294.70 344.32 L 294.83 344.32 L 294.88 343.82 L 295.09 343.78 L 295.78 343.31 L 296.06 343.09 L 296.11 342.96 L 296.17 342.95 L 296.20 342.79 L 296.30 342.22 L 296.58 342.17 L 296.62 342.16 L 296.80 341.80 L 296.86 341.80 L 296.89 341.58 L 296.95 341.45 L 297.00 341.45 L 297.04 341.15 L 297.26 340.98 L 297.35 340.68 L 297.47 340.67 L 297.56 340.51 L 297.59 340.29 L 297.81 340.17 L 297.88 340.04 L 297.92 340.04 L 297.97 340.04 L 298.01 339.81 L 298.04 339.82 L 298.05 339.81 L 298.16 339.73 L 298.20 339.48 L 298.31 339.48 L 298.39 339.42 L 298.61 339.40 L 298.89 339.37 L 298.90 339.37 L 298.97 339.35 L 299.23 339.35 L 299.35 339.35 L 299.47 339.35 L 299.61 339.31 L 299.69 339.01 L 300.05 339.01 L 300.08 338.83 L 300.12 338.82 L 300.15 338.62 L 300.38 338.55 L 300.42 338.50 L 300.59 338.50 L 316.03 338.45 L 316.91 338.36 L 316.94 338.36 L 317.11 338.36 L 317.13 338.36 L 317.24 338.00 L 317.32 337.99 L 317.40 337.89 L 317.51 337.84 L 317.54 337.81 L 317.58 337.79 L 317.74 337.75 L 318.08 337.68 L 318.29 337.20 L 318.53 337.18 L 318.53 337.15 L 318.57 336.74 L 318.60 336.74 L 319.06 336.74 L 319.07 336.70 L 319.14 336.33 L 319.34 336.28 L 319.47 336.27 L 319.50 336.26 L 319.50 336.22 L 319.56 336.19 L 319.59 335.81 L 319.61 335.80 L 319.72 335.80 L 319.73 335.77 L 319.98 335.74 L 320.64 335.72 L 320.79 335.69 L 320.84 335.68 L 320.87 335.56 L 320.91 335.56 L 321.00 335.13 L 331.56 335.00 L 331.57 334.87 L 331.66 334.79 L 331.69 334.78 L 331.75 334.41 L 331.86 334.32 L 331.88 334.30 L 332.07 334.30 L 332.12 334.30 L 332.15 333.93 L 332.32 333.89 L 332.78 333.88 L 332.79 333.86 L 332.90 333.66 L 332.95 333.67 L 332.97 333.33 L 333.35 333.33 L 333.37 333.31 L 333.94 333.23 L 334.01 332.83 L 334.22 332.83 L 334.46 332.83 L 334.52 332.53 L 334.56 332.30 L 334.67 332.29 L 334.97 332.24 L 335.02 332.23 L 335.15 332.13 L 335.29 332.13 L 335.74 332.13 L 335.79 332.13 L 335.89 332.11 L 335.90 332.11 L 336.04 332.11 L 336.38 332.08 L 336.72 332.04 L 336.77 332.04 L 336.85 332.00 L 336.95 331.89 L 337.21 331.89 L 337.66 331.76 L 337.80 331.54 L 338.05 331.51 L 339.02 331.27 L 339.23 331.27 L 339.39 331.26 L 339.63 331.26 L 339.70 331.24 L 339.95 331.12 L 340.33 331.10 L 340.38 330.99 L 340.45 330.94 L 340.50 330.95 L 340.53 330.91 L 340.83 330.89 L 347.83 330.89 L 347.89 330.89 L 348.33 330.89 L 348.37 330.87 L 348.47 330.54 L 348.55 330.52 L 348.56 330.53 L 348.80 330.52 L 348.86 330.50 L 350.29 330.01 L 350.46 329.95 L 350.58 329.94 L 350.61 329.94 L 351.05 329.93 L 351.20 330.00 L 351.23 329.99 L 351.47 329.96 L 351.73 329.49 L 351.76 329.48 L 351.98 329.47 L 352.07 329.47 L 352.15 329.47 L 352.33 329.37 L 352.72 328.95 L 352.80 328.95 L 352.87 328.89 L 353.03 328.50 L 353.41 328.07 L 353.75 328.10 L 353.82 327.87 L 354.17 327.87 L 354.23 327.85 L 354.29 327.82 L 354.33 327.60 L 354.45 327.59 L 354.48 327.59 L 354.53 327.59 L 354.73 327.59 L 355.04 327.41 L 355.22 327.39 L 355.44 327.39 L 355.54 327.39 L 355.75 327.39 L 356.11 327.39 L 356.46 327.39 L 356.73 327.39 L 356.79 327.39 L 356.86 327.38 L 356.86 327.30 L 357.07 327.24 L 357.13 327.24 L 357.21 327.23 L 357.78 327.23 L 357.79 327.01 L 357.95 327.01 L 358.62 327.01 L 359.06 327.01 L 359.39 326.96 L 359.40 326.87 L 359.42 326.87 L 369.22 326.72 L 369.25 326.72 L 369.36 326.71 L 369.42 326.57 L 369.45 326.57 L 369.46 326.56 L 369.88 326.52 L 369.97 326.07 L 370.10 325.98 L 370.30 325.09 L 370.44 325.09 L 370.60 324.71 L 370.70 324.75 L 370.74 324.75 L 370.79 324.26 L 370.92 324.18 L 370.93 323.85 L 370.98 323.80 L 371.08 323.77 L 371.15 323.60 L 371.24 325.58 L 371.36 325.55 L 371.60 324.75 L 371.70 324.58 L 371.80 324.40 L 372.40 324.09 L 372.91 323.75 L 373.53 323.29 L 373.69 323.24 L 373.86 323.24 L 374.06 323.19 L 377.66 322.96 L 377.96 322.94 L 412.08 322.32 L 519.54 322.30 L 519.90 322.02 L 520.15 321.97 L 520.39 321.97 L 520.77 321.72 L 520.89 321.43 L 520.99 320.88 L 521.16 320.74 L 521.41 320.79 L 521.61 320.47 L 521.66 320.47 L 521.82 320.37 L 521.86 320.37 L 522.04 319.84 L 522.20 319.03 L 522.68 318.95 L 522.70 318.86 L 522.84 317.82 L 523.30 317.78 L 523.31 317.68 L 523.40 317.61 L 523.51 316.66 L 524.01 316.61 L 524.02 316.48 L 524.13 316.41 L 524.25 315.79 L 524.44 315.77 L 524.45 315.67 L 524.53 314.63 L 524.54 314.61 L 524.59 314.57 L 524.80 314.57 L 524.83 314.47 L 524.90 314.39 L 525.13 314.29 L 525.17 314.29 L 525.35 314.24 L 525.65 314.27 L 525.70 314.23 L 525.74 314.20 L 525.79 314.17 L 525.94 313.09 L 526.10 313.07 L 526.12 312.98 L 526.21 311.88 L 526.30 311.48 L 526.32 311.33 L 526.42 310.79 L 526.46 309.86 L 526.64 309.85 L 526.67 309.79 L 526.76 309.61 L 526.89 309.60 L 527.66 309.57 L 528.05 309.55 L 536.44 309.59 L 536.53 309.38 L 536.61 309.22 L 536.75 308.48 L 537.07 308.46 L 537.09 308.39 L 537.15 307.45 L 537.35 307.44 L 537.37 307.35 L 539.21 307.26 L 539.32 306.92 L 540.24 306.75 L 540.34 306.72 L 540.45 305.67 L 541.56 305.37 L 542.04 305.12 L 542.16 304.34 L 542.56 304.34 L 542.81 303.90 L 543.22 303.22 L 543.96 302.82 L 555.19 302.81 L 555.86 302.80 L 555.89 302.80 L 556.83 302.65 L 556.88 302.56 L 557.21 302.50 L 557.59 301.62 L 557.59 301.62 L 557.64 301.59 L 558.14 301.40 L 559.29 300.82 L 559.37 300.76 L 559.48 300.75 L 559.66 300.51 L 559.71 300.47 L 559.78 300.42 L 560.31 300.42 L 560.74 300.42 L 560.98 300.42 L 561.01 300.38 L 561.49 299.49 L 561.86 299.41 L 561.87 299.34 L 561.92 299.26 L 561.97 299.04 L 574.16 298.87 L 574.18 298.85 L 574.22 298.83 L 574.46 298.72 L 574.64 298.61 L 575.71 298.11 L 575.98 298.01 L 576.75 297.63 L 577.42 297.57 L 577.91 297.41 L 578.05 296.10 L 578.67 295.88 L 578.90 295.81 L 578.98 294.87 L 580.78 293.96 L 580.80 293.96 L 580.90 293.54 L 581.24 293.50 L 581.25 293.50 L 581.27 293.39 L 581.33 293.28 L 581.48 293.18 L 581.68 292.53 L 583.55 292.20 L 583.79 292.05 L 583.96 291.69 L 583.99 291.66 L 584.02 291.43 L 592.33 290.60 L 592.60 290.01 L 592.75 289.98 L 592.81 289.59 L 593.60 289.42 L 593.76 288.99 L 593.91 288.99 L 593.99 288.11 L 594.26 287.91 L 594.30 287.88 L 594.65 287.83 L 594.73 287.10 L 595.03 287.01 L 595.09 286.45 L 595.34 286.39 L 595.52 286.06 L 595.66 285.42 L 595.97 285.30 L 596.00 284.65 L 596.41 286.11 L 596.44 286.11 L 596.51 285.28 L 596.59 285.28 L 596.63 285.21 L 597.09 285.13 L 597.77 284.79 L 598.10 284.96 L 599.20 284.94 L 599.22 284.93 L 599.40 284.92 L 599.47 284.90 L 599.59 284.79 L 599.73 284.68 L 599.88 284.53 L 600.20 284.32 L 600.52 284.30 L 601.50 284.21 L 601.55 284.20 L 602.53 284.09 L 602.95 284.02 L 611.35 283.99 L 611.78 283.95 L 611.99 283.95 L 612.08 283.95 L 612.10 283.94 L 612.32 283.93 L 612.41 283.89 L 612.66 283.74 L 612.81 283.72 L 613.36 283.71 L 613.64 283.63 L 614.12 283.59 L 614.25 283.56 L 614.41 283.49 L 614.62 283.40 L 615.34 283.36 L 615.41 283.35 L 616.47 283.19 L 616.63 282.93 L 616.85 282.83 L 617.36 282.68 L 617.60 282.59 L 617.72 282.96 L 617.82 282.95 L 617.96 282.81 L 618.41 282.47 L 618.89 282.38 L 619.31 282.31 L 619.36 282.27 L 619.41 282.01 L 649.80 281.96 L 650.00 281.89"/>
	</g>
	<g class="poloto_legend poloto_imgs poloto_line poloto0 poloto_stroke"><line x1="680" x2="730" y1="81.25" y2="81.25"/></g>
	<g class="poloto_legend poloto_imgs poloto_line poloto1 poloto_stroke"><line x1="680" x2="730" y1="131.25" y2="131.25"/></g>
	<g class="poloto_legend poloto_imgs poloto_line poloto2 poloto_stroke"><line x1="680" x2="730" y1="181.25" y2="181.25"/></g>
	<text class="poloto_legend poloto_text poloto_line poloto0" x="675" y="100">total</text>
	<text class="poloto_legend poloto_text poloto_line poloto1" x="675" y="150">code</text>
	<text class="poloto_legend poloto_text poloto_line poloto2" x="675" y="200">docs</text>
	<text class="poloto_text poloto_name poloto_title" x="400.00" y="37.50">Workspace lines over time</text>
	<text class="poloto_text poloto_name poloto_x" x="400.00" y="640">date (JST)</text>
	<text class="poloto_text poloto_name poloto_y" x="37.50" y="250.00" transform="rotate(-90,37.50,250.00)">lines</text>
	<text class="poloto_text poloto_ticks poloto_y">
		<tspan x="135.00" y="400.00">0</tspan>
		<tspan x="135.00" y="322.59">50K</tspan>
		<tspan x="135.00" y="245.18">100K</tspan>
		<tspan x="135.00" y="167.76">150K</tspan>
	</text>
	<g class="poloto_imgs poloto_ticks poloto_y" stroke="black">
		<line x1="150.00" x2="144.00" y1="400.00" y2="400.00"/>
		<line x1="150.00" x2="144.00" y1="322.59" y2="322.59"/>
		<line x1="150.00" x2="144.00" y1="245.18" y2="245.18"/>
		<line x1="150.00" x2="144.00" y1="167.76" y2="167.76"/>
	</g>
	<g class="poloto_text poloto_ticks poloto_x">
		<text x="220.25" y="430.00" text-anchor="end" transform="rotate(-90 220.25 430.00)">2026-04-24 12:06</text>
		<text x="328.38" y="430.00" text-anchor="end" transform="rotate(-90 328.38 430.00)">2026-04-30 07:00</text>
		<text x="436.51" y="430.00" text-anchor="end" transform="rotate(-90 436.51 430.00)">2026-05-06 01:53</text>
		<text x="544.65" y="430.00" text-anchor="end" transform="rotate(-90 544.65 430.00)">2026-05-11 20:46</text>
	</g>
	<g class="poloto_imgs poloto_ticks poloto_x" stroke="black">
		<line x1="220.25" x2="220.25" y1="400.00" y2="405.00"/>
		<line x1="328.38" x2="328.38" y1="400.00" y2="405.00"/>
		<line x1="436.51" x2="436.51" y1="400.00" y2="405.00"/>
		<line x1="544.65" x2="544.65" y1="400.00" y2="405.00"/>
	</g>
	<path class="poloto_imgs poloto_ticks poloto_x" stroke="black" style="stroke-dasharray:10.81330780815981;stroke-dashoffset:-70.24822164338548;" d=" M 150.00 400.00 L 650.00 400.00"/>
	<path class="poloto_imgs poloto_ticks poloto_y" stroke="black" style="stroke-dasharray:7.741216299905041;stroke-dashoffset:-0;" d=" M 150.00 400.00 L 150.00 100.00"/>
</svg>

