<svg class="poloto" width="800" height="680" viewBox="0 0 800 680" xmlns="http://www.w3.org/2000/svg">
	<style>
.poloto{
  stroke-linecap:round;
  stroke-linejoin:round;
  font-family:Roboto,sans-serif;
  font-size:16px;
}
.poloto_background{fill:AliceBlue;}
.poloto_scatter{stroke-width:7}
.poloto_line{stroke-width:2}
.poloto_text{fill: black;}
.poloto_name{font-size:24px;dominant-baseline:auto;text-anchor:middle;}
.poloto_where{dominant-baseline:middle;text-anchor:start}
.poloto_text.poloto_legend{font-size:20px;dominant-baseline:middle;text-anchor:start;}
.poloto_text.poloto_ticks.poloto_y{dominant-baseline:middle;text-anchor:end}
.poloto_text.poloto_ticks.poloto_x{dominant-baseline:auto;text-anchor:middle}
.poloto_imgs.poloto_ticks{stroke: black;stroke-width:3;fill:none;stroke-dasharray:none}
.poloto_grid{stroke:gray;stroke-width:0.5}

.poloto0.poloto_stroke{stroke:blue;}
.poloto1.poloto_stroke{stroke:red;}
.poloto2.poloto_stroke{stroke:green;}
.poloto3.poloto_stroke{stroke:gold;}
.poloto4.poloto_stroke{stroke:aqua;}
.poloto5.poloto_stroke{stroke:lime;}
.poloto6.poloto_stroke{stroke:orange;}
.poloto7.poloto_stroke{stroke:chocolate;}
.poloto0.poloto_fill{fill:blue;}
.poloto1.poloto_fill{fill:red;}
.poloto2.poloto_fill{fill:green;}
.poloto3.poloto_fill{fill:gold;}
.poloto4.poloto_fill{fill:aqua;}
.poloto5.poloto_fill{fill:lime;}
.poloto6.poloto_fill{fill:orange;}
.poloto7.poloto_fill{fill:chocolate;}
	</style>
	<circle r="1e5" class="poloto_background" fill="white"/>
	<g id="poloto_plot0" class="poloto_plot poloto_imgs poloto_line poloto0 poloto_stroke" fill="none" stroke="black">
		<path d=" M 150.00 370.27 L 150.03 370.24 L 150.04 370.23 L 150.05 370.23 L 150.07 370.23 L 150.10 367.00 L 150.21 366.61 L 150.46 366.59 L 150.83 366.33 L 151.02 364.69 L 151.40 364.58 L 151.46 364.50 L 151.51 364.46 L 151.96 363.66 L 152.78 363.01 L 153.04 360.48 L 153.11 360.48 L 153.61 360.38 L 154.19 360.37 L 154.19 360.37 L 154.20 360.37 L 161.97 360.37 L 162.02 360.37 L 162.12 360.34 L 162.17 360.32 L 162.46 360.17 L 162.60 360.13 L 162.93 359.90 L 162.97 359.79 L 163.07 359.56 L 163.17 359.53 L 163.19 359.53 L 163.28 359.47 L 163.36 359.47 L 163.45 359.47 L 163.66 359.09 L 163.85 358.86 L 163.89 358.86 L 163.98 358.72 L 164.60 359.30 L 164.61 359.30 L 164.69 359.21 L 165.04 358.78 L 165.33 358.26 L 165.64 358.03 L 165.71 357.99 L 165.72 357.99 L 165.78 357.79 L 165.90 357.79 L 166.06 357.72 L 166.36 357.52 L 166.38 357.22 L 166.43 357.22 L 166.51 357.06 L 166.68 357.06 L 166.70 357.06 L 166.88 356.63 L 166.96 356.61 L 167.02 356.57 L 167.09 356.40 L 168.04 356.16 L 168.27 356.12 L 168.80 355.81 L 168.91 355.81 L 168.99 355.80 L 169.04 355.58 L 169.40 354.30 L 169.56 354.27 L 169.75 353.84 L 169.84 353.80 L 170.06 353.45 L 170.15 353.32 L 170.28 353.09 L 170.40 352.89 L 170.82 349.94 L 170.83 349.86 L 170.85 349.69 L 171.00 348.27 L 178.21 348.16 L 178.95 346.55 L 178.98 346.51 L 179.86 346.26 L 179.94 346.25 L 180.02 345.93 L 180.23 345.77 L 180.33 345.49 L 180.37 345.25 L 180.48 344.83 L 180.74 344.82 L 180.74 344.53 L 180.84 344.22 L 180.94 344.21 L 181.05 343.86 L 181.19 343.60 L 181.25 343.47 L 181.27 343.47 L 181.39 343.19 L 181.41 343.19 L 181.55 342.91 L 181.57 342.90 L 181.78 341.57 L 181.81 341.57 L 181.88 341.35 L 181.97 341.33 L 182.09 341.33 L 182.14 341.30 L 182.55 341.05 L 182.56 341.06 L 182.63 340.47 L 182.81 340.46 L 182.98 339.57 L 183.03 339.49 L 183.10 339.48 L 183.14 339.45 L 183.23 338.76 L 183.68 332.97 L 183.73 332.69 L 183.89 332.66 L 183.93 332.60 L 183.97 332.58 L 184.04 332.42 L 184.11 331.76 L 184.27 331.63 L 184.39 331.62 L 184.48 331.33 L 184.53 331.32 L 184.94 331.10 L 185.16 330.94 L 185.22 330.68 L 185.41 330.67 L 185.43 330.67 L 185.45 330.64 L 185.57 329.25 L 185.66 329.17 L 186.00 327.77 L 186.05 327.36 L 186.12 327.35 L 186.21 327.20 L 186.21 327.09 L 186.25 327.02 L 186.28 326.98 L 186.33 326.98 L 186.38 326.91 L 186.51 325.76 L 186.61 325.59 L 186.70 325.25 L 186.83 325.23 L 186.98 325.12 L 187.12 324.31 L 187.22 323.18 L 187.43 323.12 L 187.44 322.70 L 187.56 322.56 L 197.63 322.56 L 197.82 322.55 L 198.30 321.95 L 198.39 321.94 L 198.47 321.94 L 198.49 321.79 L 198.66 321.61 L 198.78 321.58 L 198.85 321.46 L 198.92 321.39 L 198.96 321.35 L 199.14 321.29 L 199.50 321.22 L 199.59 320.91 L 199.66 320.84 L 199.75 320.83 L 200.22 320.67 L 200.28 320.58 L 200.31 320.58 L 200.34 320.47 L 200.45 320.42 L 200.52 320.30 L 200.86 319.55 L 201.35 319.43 L 201.53 319.38 L 202.06 319.19 L 202.32 315.55 L 202.41 315.47 L 202.52 315.12 L 202.68 314.64 L 202.92 314.50 L 203.26 314.49 L 203.72 314.48 L 203.79 314.32 L 204.12 314.15 L 204.34 313.89 L 204.40 313.78 L 204.53 313.74 L 204.64 313.41 L 205.83 313.06 L 206.96 313.06 L 217.09 313.02 L 217.16 312.87 L 217.22 312.76 L 217.53 312.61 L 218.48 311.35 L 218.52 311.27 L 218.65 310.95 L 219.12 310.87 L 219.34 310.01 L 219.67 310.01 L 219.75 309.99 L 219.83 309.41 L 220.41 306.10 L 220.48 306.10 L 220.61 306.07 L 220.74 306.03 L 220.80 305.67 L 221.13 304.42 L 221.24 304.19 L 221.30 304.17 L 221.37 303.59 L 221.52 302.78 L 221.58 301.92 L 221.73 301.53 L 222.16 297.23 L 222.21 296.79 L 222.25 296.79 L 222.32 296.72 L 222.42 296.61 L 222.47 296.57 L 222.51 296.52 L 222.72 295.49 L 222.77 294.76 L 223.03 294.61 L 223.18 293.53 L 223.28 292.85 L 224.06 282.81 L 224.15 282.78 L 253.93 282.31 L 253.96 282.31 L 265.34 282.17 L 265.96 281.89 L 266.09 281.89 L 266.26 281.82 L 266.31 281.69 L 266.38 281.65 L 271.31 281.58 L 271.97 279.67 L 272.21 279.50 L 272.34 278.80 L 275.41 278.66 L 275.43 278.47 L 275.62 278.45 L 276.54 277.24 L 276.59 277.03 L 276.71 276.95 L 277.03 276.87 L 277.07 276.84 L 277.20 276.47 L 277.34 276.38 L 277.36 276.11 L 286.93 275.74 L 287.00 274.71 L 287.38 274.48 L 287.39 272.76 L 287.45 272.51 L 287.53 272.09 L 287.64 270.90 L 287.80 270.27 L 287.94 269.53 L 288.06 269.52 L 288.11 268.96 L 288.30 268.91 L 288.96 266.14 L 289.23 265.84 L 289.28 265.67 L 289.33 265.66 L 289.37 265.47 L 289.46 264.79 L 289.73 264.46 L 289.77 264.42 L 289.93 261.98 L 290.00 261.97 L 290.02 261.71 L 290.08 261.51 L 290.12 261.51 L 290.16 261.14 L 290.37 259.82 L 290.46 259.45 L 290.58 259.40 L 290.66 255.87 L 290.69 255.59 L 290.90 253.57 L 290.96 253.41 L 291.00 253.41 L 291.05 253.41 L 291.09 253.12 L 291.12 253.13 L 291.13 253.13 L 291.24 249.56 L 291.27 249.25 L 291.37 249.24 L 291.45 249.17 L 291.66 249.07 L 291.93 248.94 L 291.94 248.94 L 292.01 248.89 L 292.25 248.83 L 292.37 248.83 L 292.49 248.83 L 292.61 247.27 L 292.69 246.90 L 293.03 246.90 L 293.06 246.65 L 293.10 246.65 L 293.13 246.38 L 293.35 244.14 L 293.39 244.08 L 293.55 244.07 L 308.27 244.00 L 309.11 243.89 L 309.13 243.89 L 309.30 243.89 L 309.31 243.89 L 309.42 243.44 L 309.50 243.42 L 309.57 243.20 L 309.67 243.15 L 309.70 243.12 L 309.74 243.10 L 309.90 242.85 L 310.22 242.63 L 310.42 241.90 L 310.65 241.22 L 310.65 241.18 L 310.69 240.54 L 310.72 240.51 L 311.16 240.13 L 311.17 240.09 L 311.24 239.58 L 311.42 239.52 L 311.54 239.48 L 311.57 238.57 L 311.58 238.52 L 311.63 239.38 L 311.66 238.85 L 311.68 238.83 L 311.79 237.62 L 311.80 237.58 L 312.03 237.48 L 312.66 237.46 L 312.81 237.42 L 312.85 237.41 L 312.88 237.25 L 312.92 237.25 L 313.01 236.65 L 323.07 235.49 L 323.08 235.33 L 323.17 235.22 L 323.19 234.99 L 323.25 224.84 L 323.36 220.68 L 323.37 220.65 L 323.56 220.57 L 323.60 220.57 L 323.63 220.09 L 323.80 220.04 L 324.23 219.06 L 324.24 219.04 L 324.35 218.74 L 324.39 218.75 L 324.42 218.25 L 324.78 217.68 L 324.79 217.65 L 325.34 217.43 L 325.41 216.91 L 325.60 216.92 L 325.83 215.61 L 325.89 215.09 L 325.93 214.68 L 326.03 214.17 L 326.32 213.99 L 326.37 213.86 L 326.49 213.75 L 326.63 213.75 L 327.05 213.75 L 327.10 213.75 L 327.20 213.73 L 327.21 213.73 L 327.34 213.74 L 327.66 213.71 L 327.99 213.52 L 328.04 213.52 L 328.11 213.45 L 328.21 213.31 L 328.46 213.31 L 328.89 213.12 L 329.02 212.72 L 329.26 209.22 L 330.18 212.18 L 330.38 212.16 L 330.53 212.15 L 330.76 212.14 L 330.83 212.09 L 331.07 211.92 L 331.43 211.68 L 331.48 211.52 L 331.55 211.45 L 331.59 211.47 L 331.62 211.42 L 331.91 211.20 L 338.58 211.20 L 338.64 211.20 L 339.05 211.19 L 339.09 211.17 L 339.19 210.72 L 339.26 210.47 L 339.27 210.47 L 339.50 210.43 L 339.56 210.41 L 340.93 209.75 L 341.09 209.70 L 341.20 209.68 L 341.23 209.68 L 341.65 209.52 L 341.80 209.60 L 341.82 209.60 L 342.05 209.55 L 342.30 208.17 L 342.33 208.16 L 342.54 208.00 L 342.62 208.00 L 342.70 208.00 L 342.87 207.85 L 343.24 207.29 L 343.32 207.27 L 343.38 207.11 L 343.53 206.45 L 343.90 205.77 L 344.23 202.55 L 344.29 202.15 L 344.63 202.00 L 344.69 201.91 L 344.74 201.76 L 344.77 201.24 L 344.89 200.31 L 344.92 200.35 L 344.97 200.33 L 345.16 200.33 L 345.45 199.99 L 345.63 199.92 L 345.83 199.91 L 345.93 199.90 L 346.13 199.89 L 346.47 199.89 L 346.80 199.88 L 347.06 199.87 L 347.12 199.86 L 347.18 199.86 L 347.19 199.74 L 347.38 199.68 L 347.44 199.66 L 347.52 199.52 L 348.07 199.50 L 348.08 199.22 L 348.23 199.21 L 348.86 199.22 L 349.29 199.05 L 349.60 198.84 L 349.61 198.73 L 349.63 198.73 L 358.97 198.54 L 359.00 198.53 L 359.11 198.52 L 359.16 198.36 L 359.19 198.34 L 359.20 198.33 L 359.60 198.29 L 359.68 197.70 L 359.80 197.57 L 360.00 196.42 L 360.13 196.41 L 360.29 195.92 L 360.38 195.98 L 360.42 195.98 L 360.47 195.42 L 360.59 195.04 L 360.60 194.63 L 360.64 194.58 L 360.74 194.54 L 360.81 194.35 L 360.89 196.55 L 361.01 196.51 L 361.24 195.63 L 361.34 195.42 L 361.43 195.24 L 362.00 193.98 L 362.49 193.37 L 363.08 192.21 L 363.23 192.15 L 363.40 192.15 L 363.58 192.10 L 367.01 191.77 L 367.30 191.74 L 399.83 190.85 L 502.26 190.65 L 502.60 190.29 L 502.84 190.24 L 503.07 190.24 L 503.43 189.56 L 503.55 189.23 L 503.64 188.62 L 503.81 186.85 L 504.05 187.21 L 504.23 186.83 L 504.28 186.82 L 504.44 186.71 L 504.47 186.71 L 504.64 186.06 L 504.79 185.02 L 505.26 183.92 L 505.27 183.83 L 505.40 182.52 L 505.85 179.27 L 505.86 179.16 L 505.94 179.09 L 506.05 177.92 L 506.53 176.36 L 506.54 176.22 L 506.64 176.14 L 506.75 175.37 L 506.93 174.76 L 506.94 174.65 L 507.02 173.46 L 507.03 173.43 L 507.07 173.09 L 507.28 170.98 L 507.30 170.86 L 507.37 170.73 L 507.59 170.45 L 507.63 170.44 L 507.80 170.04 L 508.09 170.09 L 508.13 170.03 L 508.17 170.00 L 508.22 169.97 L 508.36 168.73 L 508.51 167.72 L 508.53 167.63 L 508.62 166.36 L 508.71 165.12 L 508.73 164.97 L 508.82 163.52 L 508.86 162.38 L 509.03 161.61 L 509.06 161.56 L 509.15 161.32 L 509.27 161.30 L 510.01 161.26 L 510.37 161.23 L 518.37 161.28 L 518.46 161.06 L 518.53 160.87 L 518.67 160.01 L 518.97 159.79 L 518.99 159.71 L 519.05 158.58 L 519.24 157.49 L 519.26 157.40 L 521.01 157.32 L 521.11 156.71 L 522.00 156.52 L 522.09 156.48 L 522.20 155.21 L 523.26 154.02 L 523.71 153.56 L 523.82 152.63 L 524.20 151.03 L 524.44 150.57 L 524.83 149.64 L 525.54 149.16 L 536.25 149.15 L 536.89 149.04 L 536.92 149.06 L 537.81 148.88 L 537.86 148.78 L 538.17 148.71 L 538.54 147.67 L 538.54 147.67 L 538.58 147.63 L 539.05 146.44 L 540.15 145.76 L 540.23 145.70 L 540.34 145.69 L 540.51 145.38 L 540.55 145.30 L 540.62 145.24 L 541.13 145.19 L 541.54 145.19 L 541.76 145.19 L 541.79 145.15 L 542.25 144.11 L 542.60 143.91 L 542.62 143.83 L 542.66 143.75 L 542.71 143.47 L 554.33 143.07 L 554.35 143.05 L 554.38 143.03 L 554.61 142.92 L 554.79 142.79 L 555.81 141.19 L 556.06 141.00 L 556.80 140.52 L 557.44 140.41 L 557.91 140.25 L 558.04 138.78 L 558.63 137.05 L 558.85 136.93 L 558.92 135.81 L 560.64 133.76 L 560.66 133.76 L 560.75 133.27 L 561.08 133.21 L 561.08 133.21 L 561.10 133.09 L 561.16 132.93 L 561.31 132.77 L 561.50 131.90 L 563.28 129.83 L 563.51 129.59 L 563.67 129.21 L 563.70 129.17 L 563.73 128.88 L 571.65 127.94 L 571.90 127.23 L 572.05 127.20 L 572.11 126.73 L 572.85 126.51 L 573.01 126.04 L 573.15 126.04 L 573.23 125.04 L 573.48 122.52 L 573.52 122.47 L 573.86 122.43 L 573.93 121.61 L 574.22 120.62 L 574.28 119.93 L 574.51 119.30 L 574.69 118.97 L 574.82 118.21 L 575.12 117.57 L 575.15 116.85 L 575.53 116.69 L 575.57 116.69 L 575.63 115.77 L 575.71 115.77 L 575.75 115.70 L 576.19 113.98 L 576.83 113.42 L 577.15 113.60 L 578.20 113.52 L 578.22 113.51 L 578.38 113.50 L 578.45 113.48 L 578.57 113.36 L 578.70 113.26 L 578.84 113.07 L 579.15 112.82 L 579.46 112.81 L 580.39 112.63 L 580.43 112.62 L 581.37 112.46 L 581.78 112.36 L 589.78 112.34 L 590.18 112.21 L 590.38 112.13 L 590.47 112.13 L 590.50 112.13 L 590.70 112.10 L 590.79 112.05 L 591.03 111.89 L 591.17 111.86 L 591.69 111.68 L 591.96 111.29 L 592.42 111.24 L 592.54 110.99 L 592.69 110.83 L 592.89 110.64 L 593.58 110.69 L 593.65 110.67 L 594.66 110.20 L 594.82 109.91 L 595.02 109.82 L 595.51 109.60 L 595.73 109.66 L 595.85 110.03 L 595.95 110.01 L 596.08 109.85 L 596.51 108.72 L 596.97 108.61 L 597.37 108.51 L 597.42 108.46 L 597.46 108.14 L 626.43 108.06 L 626.62 107.92 L 643.29 107.56 L 643.37 107.97 L 643.51 106.24 L 643.53 106.24 L 643.57 106.28 L 644.17 102.78 L 644.23 102.75 L 644.97 102.82 L 645.72 102.61 L 645.98 102.28 L 646.44 101.85 L 647.06 101.58 L 647.08 101.58 L 647.16 101.51 L 647.40 101.45 L 647.48 101.27 L 648.08 100.42 L 648.86 100.24 L 648.94 100.08 L 649.33 100.00 L 649.45 100.68 L 649.75 100.43 L 650.00 100.37"/>
	</g>
	<g id="poloto_plot1" class="poloto_plot poloto_imgs poloto_line poloto1 poloto_stroke" fill="none" stroke="black">
		<path d=" M 150.00 382.33 L 150.03 382.32 L 150.04 382.30 L 150.05 382.30 L 150.07 382.30 L 150.10 381.75 L 150.21 381.73 L 150.46 381.72 L 150.83 381.50 L 151.02 381.41 L 151.40 381.43 L 151.46 381.39 L 151.51 381.39 L 151.96 381.35 L 152.78 381.25 L 153.04 379.06 L 153.11 379.06 L 153.61 379.01 L 154.19 379.00 L 154.19 379.00 L 154.20 379.00 L 161.97 379.00 L 162.02 379.00 L 162.12 379.00 L 162.17 378.97 L 162.46 378.96 L 162.60 378.96 L 162.93 378.96 L 162.97 378.96 L 163.07 378.94 L 163.17 378.94 L 163.19 378.94 L 163.28 378.91 L 163.36 378.91 L 163.45 378.91 L 163.66 378.79 L 163.85 378.79 L 163.89 378.79 L 163.98 378.79 L 164.60 379.61 L 164.61 379.61 L 164.69 379.60 L 165.04 379.48 L 165.33 379.34 L 165.64 379.28 L 165.71 379.24 L 165.72 379.24 L 165.78 379.24 L 165.90 379.24 L 166.06 379.19 L 166.36 379.14 L 166.38 379.14 L 166.43 379.14 L 166.51 379.12 L 166.68 379.12 L 166.70 379.12 L 166.88 379.11 L 166.96 379.11 L 167.02 379.11 L 167.09 379.11 L 168.04 379.01 L 168.27 379.01 L 168.80 378.96 L 168.91 378.96 L 168.99 378.96 L 169.04 378.96 L 169.40 378.90 L 169.56 378.90 L 169.75 378.82 L 169.84 378.81 L 170.06 378.63 L 170.15 378.57 L 170.28 378.57 L 170.40 378.57 L 170.82 376.01 L 170.83 375.97 L 170.85 375.97 L 171.00 375.72 L 178.21 375.72 L 178.95 374.62 L 178.98 374.62 L 179.86 374.62 L 179.94 374.62 L 180.02 374.50 L 180.23 374.48 L 180.33 374.48 L 180.37 374.48 L 180.48 374.48 L 180.74 374.48 L 180.74 374.25 L 180.84 374.24 L 180.94 374.24 L 181.05 374.21 L 181.19 374.20 L 181.25 374.20 L 181.27 374.20 L 181.39 374.20 L 181.41 374.20 L 181.55 374.20 L 181.57 374.20 L 181.78 373.12 L 181.81 373.12 L 181.88 372.99 L 181.97 372.99 L 182.09 372.99 L 182.14 372.98 L 182.55 372.98 L 182.56 372.98 L 182.63 372.91 L 182.81 372.91 L 182.98 372.29 L 183.03 372.21 L 183.10 372.21 L 183.14 372.21 L 183.23 372.19 L 183.68 367.63 L 183.73 367.67 L 183.89 367.67 L 183.93 367.67 L 183.97 367.66 L 184.04 367.66 L 184.11 367.60 L 184.27 367.60 L 184.39 367.60 L 184.48 367.59 L 184.53 367.59 L 184.94 367.59 L 185.16 367.58 L 185.22 367.47 L 185.41 367.47 L 185.43 367.47 L 185.45 367.47 L 185.57 367.16 L 185.66 367.08 L 186.00 366.00 L 186.05 366.00 L 186.12 366.00 L 186.21 366.01 L 186.21 366.01 L 186.25 366.01 L 186.28 366.01 L 186.33 366.01 L 186.38 366.01 L 186.51 365.99 L 186.61 365.99 L 186.70 365.98 L 186.83 365.98 L 186.98 365.97 L 187.12 365.57 L 187.22 365.43 L 187.43 365.43 L 187.44 365.43 L 187.56 365.43 L 197.63 365.43 L 197.82 365.42 L 198.30 365.35 L 198.39 365.34 L 198.47 365.34 L 198.49 365.34 L 198.66 365.34 L 198.78 365.34 L 198.85 365.34 L 198.92 365.34 L 198.96 365.34 L 199.14 365.34 L 199.50 365.36 L 199.59 365.36 L 199.66 365.36 L 199.75 365.36 L 200.22 365.27 L 200.28 365.23 L 200.31 365.23 L 200.34 365.17 L 200.45 365.17 L 200.52 365.16 L 200.86 364.75 L 201.35 364.75 L 201.53 364.75 L 202.06 364.75 L 202.32 361.96 L 202.41 361.95 L 202.52 361.95 L 202.68 361.95 L 202.92 361.95 L 203.26 361.95 L 203.72 361.95 L 203.79 361.95 L 204.12 361.88 L 204.34 361.77 L 204.40 361.77 L 204.53 361.77 L 204.64 361.75 L 205.83 361.57 L 206.96 361.57 L 217.09 361.57 L 217.16 361.57 L 217.22 361.57 L 217.53 361.57 L 218.48 360.69 L 218.52 360.66 L 218.65 360.57 L 219.12 360.57 L 219.34 360.36 L 219.67 360.36 L 219.75 360.36 L 219.83 360.36 L 220.41 357.91 L 220.48 357.91 L 220.61 357.91 L 220.74 357.91 L 220.80 357.75 L 221.13 357.45 L 221.24 357.45 L 221.30 357.45 L 221.37 357.00 L 221.52 356.55 L 221.58 356.55 L 221.73 356.54 L 222.16 352.89 L 222.21 352.89 L 222.25 352.89 L 222.32 352.89 L 222.42 352.89 L 222.47 352.89 L 222.51 352.89 L 222.72 352.89 L 222.77 352.81 L 223.03 352.80 L 223.18 352.75 L 223.28 352.31 L 224.06 345.04 L 224.15 345.04 L 253.93 345.04 L 253.96 345.04 L 265.34 345.04 L 265.96 344.93 L 266.09 344.93 L 266.26 344.93 L 266.31 344.93 L 266.38 344.93 L 271.31 344.87 L 271.97 344.80 L 272.21 344.80 L 272.34 344.78 L 275.41 344.71 L 275.43 344.62 L 275.62 344.62 L 276.54 343.63 L 276.59 343.63 L 276.71 343.63 L 277.03 343.63 L 277.07 343.63 L 277.20 343.63 L 277.34 343.63 L 277.36 343.63 L 286.93 343.62 L 287.00 343.44 L 287.38 343.44 L 287.39 342.26 L 287.45 342.26 L 287.53 342.26 L 287.64 342.15 L 287.80 342.15 L 287.94 342.09 L 288.06 342.09 L 288.11 342.09 L 288.30 342.08 L 288.96 340.06 L 289.23 340.06 L 289.28 340.05 L 289.33 340.05 L 289.37 340.05 L 289.46 340.02 L 289.73 339.77 L 289.77 339.73 L 289.93 337.92 L 290.00 337.91 L 290.02 337.91 L 290.08 337.89 L 290.12 337.89 L 290.16 337.88 L 290.37 336.90 L 290.46 336.89 L 290.58 336.86 L 290.66 333.80 L 290.69 333.80 L 290.90 332.07 L 290.96 332.07 L 291.00 332.06 L 291.05 332.06 L 291.09 332.06 L 291.12 332.06 L 291.13 332.06 L 291.24 328.87 L 291.27 328.87 L 291.37 328.86 L 291.45 328.86 L 291.66 328.79 L 291.93 328.71 L 291.94 328.71 L 292.01 328.69 L 292.25 328.64 L 292.37 328.64 L 292.49 328.64 L 292.61 327.26 L 292.69 327.26 L 293.03 327.25 L 293.06 327.25 L 293.10 327.25 L 293.13 327.25 L 293.35 325.28 L 293.39 325.28 L 293.55 325.27 L 308.27 325.27 L 309.11 325.26 L 309.13 325.26 L 309.30 325.26 L 309.31 325.26 L 309.42 325.26 L 309.50 325.26 L 309.57 325.16 L 309.67 325.16 L 309.70 325.16 L 309.74 325.16 L 309.90 324.98 L 310.22 324.87 L 310.42 324.75 L 310.65 324.20 L 310.65 324.20 L 310.69 324.06 L 310.72 324.04 L 311.16 323.70 L 311.17 323.70 L 311.24 323.65 L 311.42 323.65 L 311.54 323.62 L 311.57 322.80 L 311.58 322.80 L 311.63 323.61 L 311.66 323.56 L 311.68 323.55 L 311.79 322.46 L 311.80 322.46 L 312.03 322.41 L 312.66 322.41 L 312.81 322.41 L 312.85 322.41 L 312.88 322.41 L 312.92 322.41 L 313.01 322.34 L 323.07 321.43 L 323.08 321.43 L 323.17 321.43 L 323.19 321.23 L 323.25 311.53 L 323.36 307.92 L 323.37 307.92 L 323.56 307.85 L 323.60 307.85 L 323.63 307.84 L 323.80 307.84 L 324.23 306.96 L 324.24 306.96 L 324.35 306.91 L 324.39 306.91 L 324.42 306.83 L 324.78 306.31 L 324.79 306.31 L 325.34 306.20 L 325.41 306.16 L 325.60 306.17 L 325.83 304.98 L 325.89 304.86 L 325.93 304.75 L 326.03 304.30 L 326.32 304.19 L 326.37 304.10 L 326.49 304.10 L 326.63 304.10 L 327.05 304.10 L 327.10 304.10 L 327.20 304.10 L 327.21 304.10 L 327.34 304.11 L 327.66 304.11 L 327.99 303.99 L 328.04 303.99 L 328.11 303.97 L 328.21 303.97 L 328.46 303.97 L 328.89 303.97 L 329.02 303.86 L 329.26 300.73 L 330.18 303.69 L 330.38 303.67 L 330.53 303.66 L 330.76 303.66 L 330.83 303.63 L 331.07 303.61 L 331.43 303.43 L 331.48 303.43 L 331.55 303.43 L 331.59 303.43 L 331.62 303.43 L 331.91 303.26 L 338.58 303.26 L 338.64 303.26 L 339.05 303.25 L 339.09 303.25 L 339.19 303.22 L 339.26 303.00 L 339.27 303.00 L 339.50 302.98 L 339.56 302.98 L 340.93 302.80 L 341.09 302.80 L 341.20 302.80 L 341.23 302.80 L 341.65 302.67 L 341.80 302.67 L 341.82 302.67 L 342.05 302.66 L 342.30 301.92 L 342.33 301.92 L 342.54 301.80 L 342.62 301.80 L 342.70 301.80 L 342.87 301.80 L 343.24 301.79 L 343.32 301.77 L 343.38 301.70 L 343.53 301.57 L 343.90 301.46 L 344.23 298.50 L 344.29 298.41 L 344.63 298.27 L 344.69 298.23 L 344.74 298.12 L 344.77 297.92 L 344.89 297.03 L 344.92 297.07 L 344.97 297.05 L 345.16 297.05 L 345.45 296.93 L 345.63 296.88 L 345.83 296.87 L 345.93 296.86 L 346.13 296.85 L 346.47 296.85 L 346.80 296.84 L 347.06 296.84 L 347.12 296.83 L 347.18 296.83 L 347.19 296.82 L 347.38 296.82 L 347.44 296.81 L 347.52 296.70 L 348.07 296.69 L 348.08 296.69 L 348.23 296.68 L 348.86 296.67 L 349.29 296.53 L 349.60 296.40 L 349.61 296.40 L 349.63 296.40 L 358.97 296.40 L 359.00 296.40 L 359.11 296.40 L 359.16 296.40 L 359.19 296.38 L 359.20 296.38 L 359.60 296.38 L 359.68 296.37 L 359.80 296.35 L 360.00 296.33 L 360.13 296.33 L 360.29 296.26 L 360.38 296.26 L 360.42 296.26 L 360.47 296.26 L 360.59 295.99 L 360.60 295.99 L 360.64 295.99 L 360.74 295.99 L 360.81 295.99 L 360.89 296.06 L 361.01 296.06 L 361.24 296.04 L 361.34 296.04 L 361.43 296.04 L 362.00 295.18 L 362.49 294.94 L 363.08 294.32 L 363.23 294.32 L 363.40 294.32 L 363.58 294.32 L 367.01 294.25 L 367.30 294.24 L 399.83 294.13 L 502.26 293.97 L 502.60 293.92 L 502.84 293.92 L 503.07 293.92 L 503.43 293.51 L 503.55 293.51 L 503.64 293.51 L 503.81 292.06 L 504.05 292.34 L 504.23 292.32 L 504.28 292.32 L 504.44 292.30 L 504.47 292.30 L 504.64 292.30 L 504.79 292.23 L 505.26 291.31 L 505.27 291.31 L 505.40 291.23 L 505.85 288.25 L 505.86 288.25 L 505.94 288.25 L 506.05 288.20 L 506.53 286.82 L 506.54 286.82 L 506.64 286.82 L 506.75 286.78 L 506.93 286.28 L 506.94 286.28 L 507.02 286.27 L 507.03 286.27 L 507.07 285.99 L 507.28 284.02 L 507.30 284.02 L 507.37 284.02 L 507.59 283.86 L 507.63 283.86 L 507.80 283.53 L 508.09 283.53 L 508.13 283.53 L 508.17 283.53 L 508.22 283.53 L 508.36 283.52 L 508.51 282.63 L 508.53 282.63 L 508.62 282.63 L 508.71 281.96 L 508.73 281.96 L 508.82 281.25 L 508.86 281.20 L 509.03 280.50 L 509.06 280.50 L 509.15 280.50 L 509.27 280.48 L 510.01 280.48 L 510.37 280.48 L 518.37 280.48 L 518.46 280.48 L 518.53 280.48 L 518.67 280.48 L 518.97 280.29 L 518.99 280.29 L 519.05 280.23 L 519.24 279.25 L 519.26 279.25 L 521.01 279.27 L 521.11 279.07 L 522.00 279.07 L 522.09 279.07 L 522.20 279.00 L 523.26 278.19 L 523.71 278.03 L 523.82 277.98 L 524.20 276.44 L 524.44 276.44 L 524.83 276.31 L 525.54 276.31 L 536.25 276.31 L 536.89 276.22 L 536.92 276.23 L 537.81 276.23 L 537.86 276.23 L 538.17 276.23 L 538.54 276.20 L 538.54 276.20 L 538.58 276.20 L 539.05 275.30 L 540.15 275.28 L 540.23 275.28 L 540.34 275.28 L 540.51 275.24 L 540.55 275.21 L 540.62 275.21 L 541.13 275.17 L 541.54 275.17 L 541.76 275.17 L 541.79 275.17 L 542.25 275.15 L 542.60 275.05 L 542.62 275.05 L 542.66 275.05 L 542.71 275.05 L 554.33 274.84 L 554.35 274.84 L 554.38 274.84 L 554.61 274.84 L 554.79 274.84 L 555.81 273.95 L 556.06 273.89 L 556.80 273.83 L 557.44 273.78 L 557.91 273.78 L 558.04 273.78 L 558.63 272.44 L 558.85 272.40 L 558.92 272.35 L 560.64 271.41 L 560.66 271.41 L 560.75 271.40 L 561.08 271.39 L 561.08 271.39 L 561.10 271.39 L 561.16 271.36 L 561.31 271.32 L 561.50 271.22 L 563.28 269.66 L 563.51 269.58 L 563.67 269.58 L 563.70 269.58 L 563.73 269.58 L 571.65 269.58 L 571.90 269.57 L 572.05 269.57 L 572.11 269.57 L 572.85 269.57 L 573.01 269.57 L 573.15 269.57 L 573.23 269.54 L 573.48 267.50 L 573.52 267.49 L 573.86 267.50 L 573.93 267.48 L 574.22 266.69 L 574.28 266.65 L 574.51 266.13 L 574.69 266.13 L 574.82 266.09 L 575.12 265.61 L 575.15 265.61 L 575.53 264.10 L 575.57 264.10 L 575.63 264.09 L 575.71 264.09 L 575.75 264.09 L 576.19 262.57 L 576.83 262.43 L 577.15 262.43 L 578.20 262.39 L 578.22 262.39 L 578.38 262.39 L 578.45 262.39 L 578.57 262.39 L 578.70 262.39 L 578.84 262.37 L 579.15 262.35 L 579.46 262.35 L 580.39 262.29 L 580.43 262.29 L 581.37 262.25 L 581.78 262.20 L 589.78 262.22 L 590.18 262.14 L 590.38 262.07 L 590.47 262.07 L 590.50 262.07 L 590.70 262.06 L 590.79 262.06 L 591.03 262.06 L 591.17 262.05 L 591.69 261.91 L 591.96 261.64 L 592.42 261.62 L 592.54 261.44 L 592.69 261.36 L 592.89 261.27 L 593.58 261.36 L 593.65 261.36 L 594.66 261.07 L 594.82 261.07 L 595.02 261.07 L 595.51 261.04 L 595.73 261.18 L 595.85 261.18 L 595.95 261.18 L 596.08 261.18 L 596.51 260.52 L 596.97 260.51 L 597.37 260.51 L 597.42 260.51 L 597.46 260.51 L 626.43 260.51 L 626.62 260.46 L 643.29 260.24 L 643.37 260.24 L 643.51 260.18 L 643.53 260.18 L 643.57 260.18 L 644.17 257.66 L 644.23 257.66 L 644.97 257.66 L 645.72 257.54 L 645.98 257.29 L 646.44 256.97 L 647.06 256.88 L 647.08 256.88 L 647.16 256.83 L 647.40 256.83 L 647.48 256.78 L 648.08 256.10 L 648.86 255.99 L 648.94 255.99 L 649.33 255.98 L 649.45 255.98 L 649.75 255.82 L 650.00 255.79"/>
	</g>
	<g id="poloto_plot2" class="poloto_plot poloto_imgs poloto_line poloto2 poloto_stroke" fill="none" stroke="black">
		<path d=" M 150.00 392.07 L 150.03 392.07 L 150.04 392.07 L 150.05 392.07 L 150.07 392.07 L 150.10 390.04 L 150.21 389.76 L 150.46 389.75 L 150.83 389.74 L 151.02 388.53 L 151.40 388.42 L 151.46 388.38 L 151.51 388.35 L 151.96 387.81 L 152.78 387.38 L 153.04 387.30 L 153.11 387.31 L 153.61 387.27 L 154.19 387.27 L 154.19 387.27 L 154.20 387.27 L 161.97 387.27 L 162.02 387.27 L 162.12 387.25 L 162.17 387.25 L 162.46 387.13 L 162.60 387.10 L 162.93 386.90 L 162.97 386.81 L 163.07 386.63 L 163.17 386.61 L 163.19 386.61 L 163.28 386.57 L 163.36 386.57 L 163.45 386.58 L 163.66 386.37 L 163.85 386.18 L 163.89 386.19 L 163.98 386.08 L 164.60 385.83 L 164.61 385.83 L 164.69 385.75 L 165.04 385.48 L 165.33 385.15 L 165.64 385.02 L 165.71 385.02 L 165.72 385.02 L 165.78 384.84 L 165.90 384.84 L 166.06 384.81 L 166.36 384.68 L 166.38 384.44 L 166.43 384.44 L 166.51 384.32 L 166.68 384.32 L 166.70 384.32 L 166.88 383.97 L 166.96 383.95 L 167.02 383.91 L 167.09 383.75 L 168.04 383.65 L 168.27 383.61 L 168.80 383.37 L 168.91 383.37 L 168.99 383.36 L 169.04 383.17 L 169.40 382.18 L 169.56 382.16 L 169.75 381.87 L 169.84 381.84 L 170.06 381.70 L 170.15 381.66 L 170.28 381.44 L 170.40 381.27 L 170.82 381.27 L 170.83 381.25 L 170.85 381.11 L 171.00 380.15 L 178.21 380.05 L 178.95 379.76 L 178.98 379.72 L 179.86 379.48 L 179.94 379.48 L 180.02 379.30 L 180.23 379.18 L 180.33 378.96 L 180.37 378.78 L 180.48 378.43 L 180.74 378.42 L 180.74 378.42 L 180.84 378.17 L 180.94 378.16 L 181.05 377.90 L 181.19 377.70 L 181.25 377.59 L 181.27 377.58 L 181.39 377.34 L 181.41 377.34 L 181.55 377.12 L 181.57 377.11 L 181.78 377.03 L 181.81 377.03 L 181.88 376.95 L 181.97 376.94 L 182.09 376.94 L 182.14 376.92 L 182.55 376.70 L 182.56 376.71 L 182.63 376.28 L 182.81 376.27 L 182.98 376.13 L 183.03 376.13 L 183.10 376.13 L 183.14 376.09 L 183.23 375.50 L 183.68 375.00 L 183.73 374.73 L 183.89 374.70 L 183.93 374.64 L 183.97 374.63 L 184.04 374.50 L 184.11 374.03 L 184.27 373.96 L 184.39 373.95 L 184.48 373.71 L 184.53 373.70 L 184.94 373.53 L 185.16 373.40 L 185.22 373.30 L 185.41 373.29 L 185.43 373.29 L 185.45 373.26 L 185.57 372.42 L 185.66 372.41 L 186.00 372.29 L 186.05 371.95 L 186.12 371.94 L 186.21 371.80 L 186.21 371.72 L 186.25 371.66 L 186.28 371.63 L 186.33 371.63 L 186.38 371.56 L 186.51 370.61 L 186.61 370.51 L 186.70 370.23 L 186.83 370.21 L 186.98 370.11 L 187.12 369.82 L 187.22 368.99 L 187.43 368.92 L 187.44 368.57 L 187.56 368.48 L 197.63 368.49 L 197.82 368.49 L 198.30 368.10 L 198.39 368.10 L 198.47 368.10 L 198.49 367.99 L 198.66 367.83 L 198.78 367.80 L 198.85 367.69 L 198.92 367.62 L 198.96 367.59 L 199.14 367.53 L 199.50 367.61 L 199.59 367.35 L 199.66 367.28 L 199.75 367.27 L 200.22 367.22 L 200.28 367.18 L 200.31 367.18 L 200.34 367.13 L 200.45 367.08 L 200.52 366.99 L 200.86 366.74 L 201.35 366.63 L 201.53 366.59 L 202.06 366.43 L 202.32 366.05 L 202.41 365.98 L 202.52 365.68 L 202.68 365.29 L 202.92 365.19 L 203.26 365.18 L 203.72 365.16 L 203.79 365.02 L 204.12 364.92 L 204.34 364.80 L 204.40 364.70 L 204.53 364.66 L 204.64 364.41 L 205.83 364.28 L 206.96 364.28 L 217.09 364.25 L 217.16 364.11 L 217.22 364.01 L 217.53 363.87 L 218.48 363.61 L 218.52 363.57 L 218.65 363.39 L 219.12 363.32 L 219.34 362.82 L 219.67 362.81 L 219.75 362.79 L 219.83 362.29 L 220.41 361.83 L 220.48 361.83 L 220.61 361.80 L 220.74 361.76 L 220.80 361.59 L 221.13 360.82 L 221.24 360.63 L 221.30 360.61 L 221.37 360.53 L 221.52 360.23 L 221.58 359.46 L 221.73 359.14 L 222.16 358.96 L 222.21 358.58 L 222.25 358.58 L 222.32 358.51 L 222.42 358.40 L 222.47 358.37 L 222.51 358.34 L 222.72 357.44 L 222.77 356.91 L 223.03 356.81 L 223.18 355.92 L 223.28 355.75 L 224.06 354.34 L 224.15 354.31 L 253.93 353.90 L 253.96 353.90 L 265.34 353.79 L 265.96 353.64 L 266.09 353.64 L 266.26 353.57 L 266.31 353.45 L 266.38 353.43 L 271.31 353.41 L 271.97 351.80 L 272.21 351.66 L 272.34 351.10 L 275.41 351.03 L 275.43 350.98 L 275.62 350.97 L 276.54 350.87 L 276.59 350.68 L 276.71 350.62 L 277.03 350.53 L 277.07 350.51 L 277.20 350.20 L 277.34 350.10 L 277.36 349.87 L 286.93 349.56 L 287.00 348.83 L 287.38 348.64 L 287.39 348.35 L 287.45 348.13 L 287.53 347.80 L 287.64 346.91 L 287.80 346.42 L 287.94 345.79 L 288.06 345.79 L 288.11 345.30 L 288.30 345.27 L 288.96 344.81 L 289.23 344.59 L 289.28 344.46 L 289.33 344.46 L 289.37 344.30 L 289.46 343.75 L 289.73 343.69 L 289.77 343.69 L 289.93 343.33 L 290.00 343.33 L 290.02 343.13 L 290.08 343.00 L 290.12 342.99 L 290.16 342.71 L 290.37 342.53 L 290.46 342.25 L 290.58 342.24 L 290.66 342.09 L 290.69 341.87 L 290.90 341.75 L 290.96 341.62 L 291.00 341.62 L 291.05 341.62 L 291.09 341.40 L 291.12 341.41 L 291.13 341.40 L 291.24 341.32 L 291.27 341.08 L 291.37 341.08 L 291.45 341.02 L 291.66 341.00 L 291.93 340.97 L 291.94 340.97 L 292.01 340.96 L 292.25 340.95 L 292.37 340.95 L 292.49 340.95 L 292.61 340.91 L 292.69 340.62 L 293.03 340.62 L 293.06 340.44 L 293.10 340.44 L 293.13 340.24 L 293.35 340.17 L 293.39 340.12 L 293.55 340.12 L 308.27 340.07 L 309.11 339.99 L 309.13 339.99 L 309.30 339.99 L 309.31 339.99 L 309.42 339.64 L 309.50 339.63 L 309.57 339.53 L 309.67 339.48 L 309.70 339.45 L 309.74 339.43 L 309.90 339.40 L 310.22 339.33 L 310.42 338.86 L 310.65 338.84 L 310.65 338.81 L 310.69 338.42 L 310.72 338.41 L 311.16 338.41 L 311.17 338.37 L 311.24 338.01 L 311.42 337.96 L 311.54 337.95 L 311.57 337.94 L 311.58 337.90 L 311.63 337.88 L 311.66 337.51 L 311.68 337.50 L 311.79 337.50 L 311.80 337.47 L 312.03 337.43 L 312.66 337.42 L 312.81 337.39 L 312.85 337.38 L 312.88 337.26 L 312.92 337.26 L 313.01 336.84 L 323.07 336.71 L 323.08 336.59 L 323.17 336.51 L 323.19 336.50 L 323.25 336.14 L 323.36 336.06 L 323.37 336.04 L 323.56 336.03 L 323.60 336.03 L 323.63 335.68 L 323.80 335.64 L 324.23 335.62 L 324.24 335.60 L 324.35 335.41 L 324.39 335.42 L 324.42 335.09 L 324.78 335.09 L 324.79 335.07 L 325.34 334.99 L 325.41 334.60 L 325.60 334.60 L 325.83 334.60 L 325.89 334.31 L 325.93 334.09 L 326.03 334.08 L 326.32 334.03 L 326.37 334.02 L 326.49 333.92 L 326.63 333.92 L 327.05 333.93 L 327.10 333.93 L 327.20 333.91 L 327.21 333.90 L 327.34 333.90 L 327.66 333.88 L 327.99 333.84 L 328.04 333.84 L 328.11 333.80 L 328.21 333.69 L 328.46 333.69 L 328.89 333.56 L 329.02 333.35 L 329.26 333.32 L 330.18 333.08 L 330.38 333.08 L 330.53 333.08 L 330.76 333.07 L 330.83 333.06 L 331.07 332.94 L 331.43 332.92 L 331.48 332.81 L 331.55 332.76 L 331.59 332.77 L 331.62 332.73 L 331.91 332.72 L 338.58 332.71 L 338.64 332.71 L 339.05 332.71 L 339.09 332.70 L 339.19 332.37 L 339.26 332.36 L 339.27 332.36 L 339.50 332.35 L 339.56 332.33 L 340.93 331.85 L 341.09 331.80 L 341.20 331.79 L 341.23 331.79 L 341.65 331.78 L 341.80 331.85 L 341.82 331.84 L 342.05 331.81 L 342.30 331.35 L 342.33 331.35 L 342.54 331.33 L 342.62 331.33 L 342.70 331.33 L 342.87 331.24 L 343.24 330.82 L 343.32 330.82 L 343.38 330.76 L 343.53 330.39 L 343.90 329.97 L 344.23 330.00 L 344.29 329.78 L 344.63 329.78 L 344.69 329.75 L 344.74 329.73 L 344.77 329.51 L 344.89 329.50 L 344.92 329.50 L 344.97 329.50 L 345.16 329.50 L 345.45 329.33 L 345.63 329.31 L 345.83 329.31 L 345.93 329.31 L 346.13 329.31 L 346.47 329.31 L 346.80 329.31 L 347.06 329.31 L 347.12 329.30 L 347.18 329.30 L 347.19 329.22 L 347.38 329.17 L 347.44 329.17 L 347.52 329.15 L 348.07 329.15 L 348.08 328.94 L 348.23 328.94 L 348.86 328.94 L 349.29 328.93 L 349.60 328.89 L 349.61 328.80 L 349.63 328.80 L 358.97 328.66 L 359.00 328.65 L 359.11 328.64 L 359.16 328.51 L 359.19 328.51 L 359.20 328.50 L 359.60 328.46 L 359.68 328.02 L 359.80 327.93 L 360.00 327.07 L 360.13 327.06 L 360.29 326.69 L 360.38 326.74 L 360.42 326.73 L 360.47 326.26 L 360.59 326.18 L 360.60 325.86 L 360.64 325.81 L 360.74 325.78 L 360.81 325.62 L 360.89 327.55 L 361.01 327.52 L 361.24 326.74 L 361.34 326.57 L 361.43 326.40 L 362.00 326.09 L 362.49 325.77 L 363.08 325.31 L 363.23 325.26 L 363.40 325.26 L 363.58 325.22 L 367.01 325.00 L 367.30 324.97 L 399.83 324.37 L 502.26 324.35 L 502.60 324.08 L 502.84 324.03 L 503.07 324.03 L 503.43 323.79 L 503.55 323.50 L 503.64 322.97 L 503.81 322.83 L 504.05 322.88 L 504.23 322.57 L 504.28 322.57 L 504.44 322.47 L 504.47 322.47 L 504.64 321.96 L 504.79 321.17 L 505.26 321.09 L 505.27 321.01 L 505.40 319.99 L 505.85 319.95 L 505.86 319.85 L 505.94 319.79 L 506.05 318.86 L 506.53 318.82 L 506.54 318.69 L 506.64 318.62 L 506.75 318.01 L 506.93 317.99 L 506.94 317.90 L 507.02 316.89 L 507.03 316.86 L 507.07 316.83 L 507.28 316.83 L 507.30 316.72 L 507.37 316.65 L 507.59 316.56 L 507.63 316.55 L 507.80 316.50 L 508.09 316.54 L 508.13 316.49 L 508.17 316.47 L 508.22 316.43 L 508.36 315.39 L 508.51 315.37 L 508.53 315.28 L 508.62 314.20 L 508.71 313.81 L 508.73 313.67 L 508.82 313.15 L 508.86 312.24 L 509.03 312.23 L 509.06 312.18 L 509.15 311.99 L 509.27 311.99 L 510.01 311.96 L 510.37 311.94 L 518.37 311.98 L 518.46 311.77 L 518.53 311.62 L 518.67 310.89 L 518.97 310.88 L 518.99 310.81 L 519.05 309.89 L 519.24 309.89 L 519.26 309.80 L 521.01 309.71 L 521.11 309.37 L 522.00 309.21 L 522.09 309.18 L 522.20 308.16 L 523.26 307.87 L 523.71 307.63 L 523.82 306.86 L 524.20 306.86 L 524.44 306.43 L 524.83 305.78 L 525.54 305.38 L 536.25 305.38 L 536.89 305.37 L 536.92 305.37 L 537.81 305.22 L 537.86 305.14 L 538.17 305.08 L 538.54 304.22 L 538.54 304.22 L 538.58 304.19 L 539.05 304.01 L 540.15 303.44 L 540.23 303.38 L 540.34 303.37 L 540.51 303.13 L 540.55 303.10 L 540.62 303.05 L 541.13 303.05 L 541.54 303.05 L 541.76 303.05 L 541.79 303.01 L 542.25 302.14 L 542.60 302.07 L 542.62 302.00 L 542.66 301.92 L 542.71 301.70 L 554.33 301.54 L 554.35 301.52 L 554.38 301.50 L 554.61 301.40 L 554.79 301.29 L 555.81 300.80 L 556.06 300.70 L 556.80 300.33 L 557.44 300.27 L 557.91 300.12 L 558.04 298.85 L 558.63 298.63 L 558.85 298.56 L 558.92 297.64 L 560.64 296.76 L 560.66 296.76 L 560.75 296.35 L 561.08 296.31 L 561.08 296.31 L 561.10 296.21 L 561.16 296.09 L 561.31 296.00 L 561.50 295.37 L 563.28 295.04 L 563.51 294.90 L 563.67 294.55 L 563.70 294.52 L 563.73 294.29 L 571.65 293.49 L 571.90 292.91 L 572.05 292.89 L 572.11 292.50 L 572.85 292.34 L 573.01 291.93 L 573.15 291.93 L 573.23 291.07 L 573.48 290.87 L 573.52 290.84 L 573.86 290.79 L 573.93 290.08 L 574.22 290.00 L 574.28 289.44 L 574.51 289.39 L 574.69 289.06 L 574.82 288.44 L 575.12 288.32 L 575.15 287.69 L 575.53 289.12 L 575.57 289.12 L 575.63 288.31 L 575.71 288.31 L 575.75 288.24 L 576.19 288.17 L 576.83 287.83 L 577.15 288.00 L 578.20 287.98 L 578.22 287.97 L 578.38 287.96 L 578.45 287.94 L 578.57 287.83 L 578.70 287.73 L 578.84 287.58 L 579.15 287.37 L 579.46 287.36 L 580.39 287.26 L 580.43 287.26 L 581.37 287.15 L 581.78 287.09 L 589.78 287.05 L 590.18 287.01 L 590.38 287.01 L 590.47 287.01 L 590.50 287.01 L 590.70 286.99 L 590.79 286.96 L 591.03 286.81 L 591.17 286.79 L 591.69 286.78 L 591.96 286.70 L 592.42 286.67 L 592.54 286.64 L 592.69 286.57 L 592.89 286.48 L 593.58 286.44 L 593.65 286.43 L 594.66 286.27 L 594.82 286.02 L 595.02 285.93 L 595.51 285.77 L 595.73 285.69 L 595.85 286.05 L 595.95 286.04 L 596.08 285.90 L 596.51 285.57 L 596.97 285.48 L 597.37 285.41 L 597.42 285.37 L 597.46 285.13 L 626.43 285.08 L 626.62 285.01 L 643.29 284.94 L 643.37 285.30 L 643.51 283.86 L 643.53 283.86 L 643.57 283.90 L 644.17 283.35 L 644.23 283.31 L 644.97 283.38 L 645.72 283.31 L 645.98 283.27 L 646.44 283.21 L 647.06 283.06 L 647.08 283.06 L 647.16 283.03 L 647.40 282.98 L 647.48 282.87 L 648.08 282.80 L 648.86 282.75 L 648.94 282.60 L 649.33 282.53 L 649.45 283.16 L 649.75 283.11 L 650.00 283.08"/>
	</g>
	<g class="poloto_legend poloto_imgs poloto_line poloto0 poloto_stroke"><line x1="680" x2="730" y1="81.25" y2="81.25"/></g>
	<g class="poloto_legend poloto_imgs poloto_line poloto1 poloto_stroke"><line x1="680" x2="730" y1="131.25" y2="131.25"/></g>
	<g class="poloto_legend poloto_imgs poloto_line poloto2 poloto_stroke"><line x1="680" x2="730" y1="181.25" y2="181.25"/></g>
	<text class="poloto_legend poloto_text poloto_line poloto0" x="675" y="100">total</text>
	<text class="poloto_legend poloto_text poloto_line poloto1" x="675" y="150">code</text>
	<text class="poloto_legend poloto_text poloto_line poloto2" x="675" y="200">docs</text>
	<text class="poloto_text poloto_name poloto_title" x="400.00" y="37.50">Workspace lines over time</text>
	<text class="poloto_text poloto_name poloto_x" x="400.00" y="640">date (JST)</text>
	<text class="poloto_text poloto_name poloto_y" x="37.50" y="250.00" transform="rotate(-90,37.50,250.00)">lines</text>
	<text class="poloto_text poloto_ticks poloto_y">
		<tspan x="135.00" y="400.00">0</tspan>
		<tspan x="135.00" y="324.63">50K</tspan>
		<tspan x="135.00" y="249.26">100K</tspan>
		<tspan x="135.00" y="173.90">150K</tspan>
	</text>
	<g class="poloto_imgs poloto_ticks poloto_y" stroke="black">
		<line x1="150.00" x2="144.00" y1="400.00" y2="400.00"/>
		<line x1="150.00" x2="144.00" y1="324.63" y2="324.63"/>
		<line x1="150.00" x2="144.00" y1="249.26" y2="249.26"/>
		<line x1="150.00" x2="144.00" y1="173.90" y2="173.90"/>
	</g>
	<g class="poloto_text poloto_ticks poloto_x">
		<text x="216.96" y="430.00" text-anchor="end" transform="rotate(-90 216.96 430.00)">2026-04-24 12:06</text>
		<text x="320.04" y="430.00" text-anchor="end" transform="rotate(-90 320.04 430.00)">2026-04-30 07:00</text>
		<text x="423.12" y="430.00" text-anchor="end" transform="rotate(-90 423.12 430.00)">2026-05-06 01:53</text>
		<text x="526.20" y="430.00" text-anchor="end" transform="rotate(-90 526.20 430.00)">2026-05-11 20:46</text>
		<text x="629.27" y="430.00" text-anchor="end" transform="rotate(-90 629.27 430.00)">2026-05-17 15:40</text>
	</g>
	<g class="poloto_imgs poloto_ticks poloto_x" stroke="black">
		<line x1="216.96" x2="216.96" y1="400.00" y2="405.00"/>
		<line x1="320.04" x2="320.04" y1="400.00" y2="405.00"/>
		<line x1="423.12" x2="423.12" y1="400.00" y2="405.00"/>
		<line x1="526.20" x2="526.20" y1="400.00" y2="405.00"/>
		<line x1="629.27" x2="629.27" y1="400.00" y2="405.00"/>
	</g>
	<path class="poloto_imgs poloto_ticks poloto_x" stroke="black" style="stroke-dasharray:10.30771837829079;stroke-dashoffset:-66.96368013584288;" d=" M 150.00 400.00 L 650.00 400.00"/>
	<path class="poloto_imgs poloto_ticks poloto_y" stroke="black" style="stroke-dasharray:7.5368173527682725;stroke-dashoffset:-0;" d=" M 150.00 400.00 L 150.00 100.00"/>
</svg>

