<svg class="poloto" width="800" height="680" viewBox="0 0 800 680" xmlns="http://www.w3.org/2000/svg">
	<style>
.poloto{
  stroke-linecap:round;
  stroke-linejoin:round;
  font-family:Roboto,sans-serif;
  font-size:16px;
}
.poloto_background{fill:AliceBlue;}
.poloto_scatter{stroke-width:7}
.poloto_line{stroke-width:2}
.poloto_text{fill: black;}
.poloto_name{font-size:24px;dominant-baseline:auto;text-anchor:middle;}
.poloto_where{dominant-baseline:middle;text-anchor:start}
.poloto_text.poloto_legend{font-size:20px;dominant-baseline:middle;text-anchor:start;}
.poloto_text.poloto_ticks.poloto_y{dominant-baseline:middle;text-anchor:end}
.poloto_text.poloto_ticks.poloto_x{dominant-baseline:auto;text-anchor:middle}
.poloto_imgs.poloto_ticks{stroke: black;stroke-width:3;fill:none;stroke-dasharray:none}
.poloto_grid{stroke:gray;stroke-width:0.5}

.poloto0.poloto_stroke{stroke:blue;}
.poloto1.poloto_stroke{stroke:red;}
.poloto2.poloto_stroke{stroke:green;}
.poloto3.poloto_stroke{stroke:gold;}
.poloto4.poloto_stroke{stroke:aqua;}
.poloto5.poloto_stroke{stroke:lime;}
.poloto6.poloto_stroke{stroke:orange;}
.poloto7.poloto_stroke{stroke:chocolate;}
.poloto0.poloto_fill{fill:blue;}
.poloto1.poloto_fill{fill:red;}
.poloto2.poloto_fill{fill:green;}
.poloto3.poloto_fill{fill:gold;}
.poloto4.poloto_fill{fill:aqua;}
.poloto5.poloto_fill{fill:lime;}
.poloto6.poloto_fill{fill:orange;}
.poloto7.poloto_fill{fill:chocolate;}
	</style>
	<circle r="1e5" class="poloto_background" fill="white"/>
	<g id="poloto_plot0" class="poloto_plot poloto_imgs poloto_line poloto0 poloto_stroke" fill="none" stroke="black">
		<path d=" M 150.00 360.14 L 150.04 360.11 L 150.06 360.08 L 150.07 360.08 L 150.10 360.08 L 150.14 355.76 L 150.29 355.24 L 150.64 355.21 L 151.17 354.86 L 151.43 352.66 L 151.96 352.52 L 152.05 352.41 L 152.12 352.36 L 152.74 351.29 L 153.90 350.41 L 154.27 347.02 L 154.36 347.02 L 155.06 346.89 L 155.87 346.87 L 155.88 346.87 L 155.88 346.87 L 166.79 346.87 L 166.86 346.87 L 167.00 346.84 L 167.06 346.80 L 167.48 346.60 L 167.67 346.55 L 168.13 346.24 L 168.19 346.10 L 168.33 345.79 L 168.46 345.75 L 168.50 345.74 L 168.62 345.66 L 168.74 345.66 L 168.86 345.66 L 169.16 345.16 L 169.43 344.85 L 169.48 344.85 L 169.61 344.67 L 170.47 345.44 L 170.49 345.44 L 170.60 345.31 L 171.09 344.73 L 171.49 344.04 L 171.94 343.73 L 172.03 343.68 L 172.04 343.68 L 172.13 343.41 L 172.30 343.41 L 172.52 343.32 L 172.94 343.05 L 172.97 342.65 L 173.05 342.65 L 173.15 342.44 L 173.40 342.44 L 173.42 342.44 L 173.68 341.86 L 173.78 341.83 L 173.87 341.78 L 173.97 341.55 L 175.30 341.23 L 175.62 341.17 L 176.36 340.76 L 176.52 340.76 L 176.63 340.74 L 176.69 340.45 L 177.20 338.73 L 177.43 338.70 L 177.69 338.12 L 177.82 338.07 L 178.13 337.59 L 178.26 337.42 L 178.44 337.11 L 178.61 336.84 L 179.20 332.89 L 179.22 332.79 L 179.24 332.55 L 179.45 330.65 L 189.56 330.51 L 190.60 328.34 L 190.64 328.29 L 191.88 327.95 L 191.98 327.94 L 192.09 327.51 L 192.40 327.30 L 192.54 326.93 L 192.59 326.60 L 192.74 326.04 L 193.11 326.03 L 193.12 325.64 L 193.25 325.22 L 193.39 325.21 L 193.55 324.74 L 193.75 324.39 L 193.82 324.22 L 193.85 324.22 L 194.02 323.84 L 194.05 323.84 L 194.24 323.46 L 194.27 323.45 L 194.56 321.67 L 194.61 321.67 L 194.71 321.37 L 194.84 321.36 L 195.00 321.36 L 195.08 321.31 L 195.64 320.98 L 195.66 320.99 L 195.76 320.20 L 196.02 320.18 L 196.24 318.99 L 196.31 318.88 L 196.42 318.87 L 196.47 318.83 L 196.60 317.91 L 197.24 310.14 L 197.31 309.77 L 197.52 309.73 L 197.59 309.64 L 197.64 309.61 L 197.74 309.41 L 197.84 308.53 L 198.07 308.35 L 198.22 308.33 L 198.35 307.94 L 198.42 307.93 L 198.99 307.64 L 199.30 307.42 L 199.40 307.07 L 199.66 307.06 L 199.69 307.06 L 199.71 307.02 L 199.88 305.16 L 200.01 305.05 L 200.48 303.16 L 200.56 302.62 L 200.65 302.60 L 200.77 302.40 L 200.79 302.26 L 200.84 302.17 L 200.88 302.12 L 200.95 302.11 L 201.01 302.01 L 201.20 300.47 L 201.34 300.25 L 201.47 299.80 L 201.65 299.76 L 201.86 299.62 L 202.06 298.53 L 202.20 297.02 L 202.50 296.94 L 202.50 296.37 L 202.67 296.19 L 216.79 296.19 L 217.06 296.17 L 217.73 295.37 L 217.87 295.35 L 217.98 295.35 L 218.00 295.16 L 218.24 294.91 L 218.41 294.87 L 218.50 294.72 L 218.60 294.61 L 218.66 294.56 L 218.91 294.49 L 219.42 294.39 L 219.55 293.98 L 219.65 293.88 L 219.77 293.86 L 220.42 293.65 L 220.51 293.54 L 220.56 293.54 L 220.60 293.38 L 220.74 293.31 L 220.85 293.16 L 221.33 292.15 L 222.01 291.99 L 222.26 291.93 L 223.01 291.67 L 223.37 286.79 L 223.50 286.69 L 223.65 286.21 L 223.87 285.57 L 224.22 285.39 L 224.70 285.37 L 225.34 285.35 L 225.43 285.14 L 225.90 284.91 L 226.20 284.56 L 226.30 284.41 L 226.48 284.36 L 226.62 283.93 L 228.29 283.45 L 229.88 283.45 L 244.09 283.40 L 244.19 283.19 L 244.26 283.05 L 244.71 282.84 L 246.03 281.16 L 246.09 281.05 L 246.28 280.62 L 246.93 280.51 L 247.24 279.37 L 247.71 279.36 L 247.82 279.34 L 247.92 278.56 L 248.75 274.12 L 248.84 274.11 L 249.02 274.08 L 249.20 274.02 L 249.29 273.54 L 249.75 271.87 L 249.91 271.55 L 249.99 271.53 L 250.09 270.76 L 250.30 269.67 L 250.38 268.51 L 250.59 268.00 L 251.20 262.23 L 251.26 261.64 L 251.32 261.64 L 251.42 261.54 L 251.57 261.39 L 251.63 261.34 L 251.69 261.28 L 251.98 259.89 L 252.05 258.92 L 252.41 258.72 L 252.63 257.27 L 252.76 256.36 L 253.86 242.90 L 253.99 242.86 L 295.75 242.22 L 295.79 242.22 L 311.75 242.04 L 312.62 241.67 L 312.80 241.67 L 313.04 241.57 L 313.11 241.40 L 313.21 241.35 L 320.13 241.26 L 321.04 238.70 L 321.38 238.46 L 321.56 237.52 L 325.87 237.34 L 325.90 237.07 L 326.17 237.05 L 327.46 235.44 L 327.53 235.14 L 327.69 235.04 L 328.15 234.93 L 328.21 234.89 L 328.39 234.40 L 328.58 234.27 L 328.61 233.91 L 342.03 233.42 L 342.13 232.04 L 342.66 231.74 L 342.67 229.43 L 342.76 229.08 L 342.87 228.52 L 343.02 226.93 L 343.25 226.08 L 343.44 225.10 L 343.62 225.09 L 343.68 224.33 L 343.96 224.26 L 344.88 220.55 L 345.26 220.15 L 345.32 219.92 L 345.40 219.91 L 345.45 219.65 L 345.58 218.74 L 345.95 218.30 L 346.01 218.25 L 346.24 214.98 L 346.33 214.97 L 346.36 214.61 L 346.45 214.35 L 346.51 214.34 L 346.56 213.85 L 346.85 212.08 L 346.98 211.58 L 347.14 211.52 L 347.26 206.79 L 347.30 206.40 L 347.60 203.70 L 347.68 203.49 L 347.74 203.49 L 347.81 203.48 L 347.86 203.10 L 347.90 203.11 L 347.92 203.10 L 348.07 198.33 L 348.12 197.91 L 348.26 197.89 L 348.36 197.81 L 348.67 197.67 L 349.04 197.49 L 349.05 197.49 L 349.15 197.43 L 349.49 197.34 L 349.66 197.34 L 349.82 197.34 L 349.99 195.26 L 350.11 194.76 L 350.58 194.75 L 350.63 194.42 L 350.68 194.42 L 350.72 194.07 L 351.03 191.05 L 351.09 190.98 L 351.31 190.96 L 371.95 190.87 L 373.13 190.72 L 373.16 190.72 L 373.40 190.72 L 373.41 190.72 L 373.57 190.12 L 373.68 190.10 L 373.78 189.80 L 373.92 189.73 L 373.96 189.69 L 374.02 189.66 L 374.24 189.33 L 374.69 189.03 L 374.97 188.06 L 375.29 187.14 L 375.30 187.09 L 375.35 186.23 L 375.39 186.20 L 376.01 185.69 L 376.02 185.63 L 376.11 184.95 L 376.38 184.87 L 376.55 184.81 L 376.58 183.59 L 376.59 183.52 L 376.67 184.68 L 376.71 183.97 L 376.74 183.94 L 376.89 182.31 L 376.90 182.27 L 377.23 182.13 L 378.11 182.11 L 378.32 182.05 L 378.38 182.04 L 378.42 181.82 L 378.48 181.82 L 378.60 181.02 L 392.71 179.46 L 392.73 179.25 L 392.85 179.10 L 392.88 178.80 L 392.96 165.18 L 393.12 159.60 L 393.14 159.57 L 393.40 159.46 L 393.46 159.46 L 393.50 158.82 L 393.73 158.76 L 394.34 157.44 L 394.35 157.41 L 394.51 157.00 L 394.57 157.01 L 394.60 156.36 L 395.11 155.58 L 395.12 155.55 L 395.90 155.25 L 395.99 154.56 L 396.26 154.57 L 396.58 152.81 L 396.67 152.12 L 396.72 151.56 L 396.86 150.88 L 397.26 150.64 L 397.34 150.47 L 397.51 150.32 L 397.70 150.32 L 398.29 150.32 L 398.36 150.32 L 398.50 150.29 L 398.51 150.29 L 398.70 150.30 L 399.15 150.27 L 399.61 150.01 L 399.68 150.01 L 399.78 149.91 L 399.91 149.72 L 400.27 149.72 L 400.87 149.48 L 401.06 148.93 L 401.38 144.24 L 402.68 148.21 L 402.96 148.19 L 403.17 148.17 L 403.50 148.16 L 403.60 148.09 L 403.92 147.87 L 404.43 147.54 L 404.50 147.33 L 404.60 147.24 L 404.66 147.26 L 404.71 147.19 L 405.11 146.90 L 414.46 146.89 L 414.54 146.90 L 415.12 146.88 L 415.18 146.86 L 415.31 146.26 L 415.42 145.93 L 415.43 145.92 L 415.76 145.87 L 415.83 145.84 L 417.75 144.96 L 417.97 144.88 L 418.14 144.87 L 418.18 144.86 L 418.77 144.65 L 418.97 144.76 L 419.01 144.75 L 419.33 144.69 L 419.68 142.84 L 419.72 142.82 L 420.01 142.61 L 420.13 142.61 L 420.24 142.61 L 420.48 142.41 L 421.00 141.65 L 421.10 141.63 L 421.20 141.42 L 421.41 140.53 L 421.92 139.61 L 422.38 135.30 L 422.47 134.77 L 422.94 134.56 L 423.02 134.45 L 423.10 134.24 L 423.15 133.55 L 423.31 132.31 L 423.35 132.36 L 423.42 132.33 L 423.69 132.33 L 424.09 131.87 L 424.35 131.78 L 424.63 131.76 L 424.77 131.75 L 425.05 131.73 L 425.53 131.73 L 425.99 131.72 L 426.35 131.72 L 426.44 131.70 L 426.53 131.69 L 426.53 131.54 L 426.81 131.45 L 426.89 131.43 L 427.00 131.25 L 427.77 131.22 L 427.78 130.84 L 427.99 130.83 L 428.88 130.84 L 429.48 130.61 L 429.91 130.33 L 429.92 130.18 L 429.96 130.18 L 443.06 129.92 L 443.10 129.91 L 443.25 129.90 L 443.32 129.68 L 443.37 129.66 L 443.38 129.65 L 443.93 129.59 L 444.06 128.81 L 444.23 128.63 L 444.50 127.09 L 444.68 127.08 L 444.91 126.42 L 445.03 126.50 L 445.09 126.50 L 445.16 125.75 L 445.32 125.24 L 445.35 124.69 L 445.40 124.62 L 445.54 124.57 L 445.63 124.32 L 445.75 127.26 L 445.91 127.21 L 446.23 126.03 L 446.37 125.74 L 446.50 125.50 L 447.30 123.81 L 447.99 122.99 L 448.82 121.44 L 449.03 121.36 L 449.27 121.36 L 449.52 121.29 L 454.34 120.85 L 454.73 120.81 L 500.36 119.62 L 644.01 119.35 L 644.48 118.87 L 644.82 118.80 L 645.14 118.80 L 645.64 117.89 L 645.81 117.45 L 645.94 116.63 L 646.17 114.26 L 646.51 114.74 L 646.77 114.23 L 646.83 114.22 L 647.06 114.06 L 647.11 114.07 L 647.34 113.20 L 647.55 111.81 L 648.20 110.33 L 648.23 110.21 L 648.41 108.45 L 649.03 104.09 L 649.05 103.94 L 649.17 103.85 L 649.32 102.29 L 649.98 100.19 L 650.00 100.00"/>
	</g>
	<g id="poloto_plot1" class="poloto_plot poloto_imgs poloto_line poloto1 poloto_stroke" fill="none" stroke="black">
		<path d=" M 150.00 376.31 L 150.04 376.29 L 150.06 376.28 L 150.07 376.28 L 150.10 376.28 L 150.14 375.53 L 150.29 375.50 L 150.64 375.49 L 151.17 375.21 L 151.43 375.08 L 151.96 375.11 L 152.05 375.06 L 152.12 375.06 L 152.74 375.00 L 153.90 374.86 L 154.27 371.93 L 154.36 371.93 L 155.06 371.86 L 155.87 371.85 L 155.88 371.85 L 155.88 371.85 L 166.79 371.85 L 166.86 371.85 L 167.00 371.85 L 167.06 371.81 L 167.48 371.79 L 167.67 371.79 L 168.13 371.79 L 168.19 371.79 L 168.33 371.77 L 168.46 371.77 L 168.50 371.77 L 168.62 371.73 L 168.74 371.73 L 168.86 371.73 L 169.16 371.57 L 169.43 371.57 L 169.48 371.57 L 169.61 371.57 L 170.47 372.67 L 170.49 372.67 L 170.60 372.66 L 171.09 372.49 L 171.49 372.31 L 171.94 372.23 L 172.03 372.17 L 172.04 372.17 L 172.13 372.17 L 172.30 372.17 L 172.52 372.10 L 172.94 372.04 L 172.97 372.04 L 173.05 372.04 L 173.15 372.01 L 173.40 372.01 L 173.42 372.01 L 173.68 372.00 L 173.78 372.00 L 173.87 372.00 L 173.97 372.00 L 175.30 371.87 L 175.62 371.86 L 176.36 371.80 L 176.52 371.80 L 176.63 371.80 L 176.69 371.80 L 177.20 371.71 L 177.43 371.71 L 177.69 371.60 L 177.82 371.59 L 178.13 371.35 L 178.26 371.27 L 178.44 371.27 L 178.61 371.27 L 179.20 367.84 L 179.22 367.78 L 179.24 367.78 L 179.45 367.45 L 189.56 367.45 L 190.60 365.97 L 190.64 365.97 L 191.88 365.97 L 191.98 365.97 L 192.09 365.82 L 192.40 365.79 L 192.54 365.79 L 192.59 365.79 L 192.74 365.79 L 193.11 365.79 L 193.12 365.47 L 193.25 365.46 L 193.39 365.46 L 193.55 365.43 L 193.75 365.42 L 193.82 365.42 L 193.85 365.42 L 194.02 365.42 L 194.05 365.42 L 194.24 365.42 L 194.27 365.42 L 194.56 363.97 L 194.61 363.97 L 194.71 363.79 L 194.84 363.79 L 195.00 363.79 L 195.08 363.78 L 195.64 363.77 L 195.66 363.77 L 195.76 363.68 L 196.02 363.68 L 196.24 362.85 L 196.31 362.75 L 196.42 362.75 L 196.47 362.75 L 196.60 362.72 L 197.24 356.61 L 197.31 356.66 L 197.52 356.66 L 197.59 356.66 L 197.64 356.65 L 197.74 356.65 L 197.84 356.57 L 198.07 356.57 L 198.22 356.57 L 198.35 356.56 L 198.42 356.56 L 198.99 356.55 L 199.30 356.54 L 199.40 356.39 L 199.66 356.39 L 199.69 356.39 L 199.71 356.39 L 199.88 355.98 L 200.01 355.87 L 200.48 354.42 L 200.56 354.42 L 200.65 354.42 L 200.77 354.44 L 200.79 354.44 L 200.84 354.44 L 200.88 354.44 L 200.95 354.44 L 201.01 354.44 L 201.20 354.41 L 201.34 354.41 L 201.47 354.39 L 201.65 354.39 L 201.86 354.38 L 202.06 353.84 L 202.20 353.66 L 202.50 353.66 L 202.50 353.65 L 202.67 353.65 L 216.79 353.65 L 217.06 353.64 L 217.73 353.55 L 217.87 353.54 L 217.98 353.54 L 218.00 353.54 L 218.24 353.54 L 218.41 353.54 L 218.50 353.54 L 218.60 353.54 L 218.66 353.53 L 218.91 353.53 L 219.42 353.56 L 219.55 353.56 L 219.65 353.56 L 219.77 353.56 L 220.42 353.44 L 220.51 353.39 L 220.56 353.39 L 220.60 353.31 L 220.74 353.30 L 220.85 353.30 L 221.33 352.75 L 222.01 352.75 L 222.26 352.75 L 223.01 352.75 L 223.37 349.00 L 223.50 349.00 L 223.65 349.00 L 223.87 348.99 L 224.22 348.99 L 224.70 348.99 L 225.34 348.99 L 225.43 348.99 L 225.90 348.90 L 226.20 348.74 L 226.30 348.74 L 226.48 348.74 L 226.62 348.72 L 228.29 348.49 L 229.88 348.49 L 244.09 348.48 L 244.19 348.48 L 244.26 348.48 L 244.71 348.48 L 246.03 347.31 L 246.09 347.27 L 246.28 347.15 L 246.93 347.14 L 247.24 346.85 L 247.71 346.86 L 247.82 346.86 L 247.92 346.86 L 248.75 343.57 L 248.84 343.57 L 249.02 343.57 L 249.20 343.57 L 249.29 343.36 L 249.75 342.96 L 249.91 342.96 L 249.99 342.96 L 250.09 342.36 L 250.30 341.75 L 250.38 341.75 L 250.59 341.74 L 251.20 336.85 L 251.26 336.85 L 251.32 336.85 L 251.42 336.85 L 251.57 336.85 L 251.63 336.85 L 251.69 336.85 L 251.98 336.85 L 252.05 336.74 L 252.41 336.72 L 252.63 336.65 L 252.76 336.06 L 253.86 326.32 L 253.99 326.32 L 295.75 326.32 L 295.79 326.32 L 311.75 326.32 L 312.62 326.17 L 312.80 326.17 L 313.04 326.17 L 313.11 326.17 L 313.21 326.17 L 320.13 326.09 L 321.04 326.00 L 321.38 326.00 L 321.56 325.97 L 325.87 325.89 L 325.90 325.76 L 326.17 325.76 L 327.46 324.44 L 327.53 324.44 L 327.69 324.44 L 328.15 324.44 L 328.21 324.44 L 328.39 324.44 L 328.58 324.44 L 328.61 324.44 L 342.03 324.41 L 342.13 324.18 L 342.66 324.18 L 342.67 322.59 L 342.76 322.59 L 342.87 322.59 L 343.02 322.44 L 343.25 322.44 L 343.44 322.37 L 343.62 322.37 L 343.68 322.37 L 343.96 322.35 L 344.88 319.65 L 345.26 319.65 L 345.32 319.63 L 345.40 319.63 L 345.45 319.63 L 345.58 319.59 L 345.95 319.25 L 346.01 319.21 L 346.24 316.78 L 346.33 316.77 L 346.36 316.77 L 346.45 316.73 L 346.51 316.73 L 346.56 316.73 L 346.85 315.41 L 346.98 315.39 L 347.14 315.36 L 347.26 311.25 L 347.30 311.25 L 347.60 308.93 L 347.68 308.93 L 347.74 308.93 L 347.81 308.93 L 347.86 308.93 L 347.90 308.93 L 347.92 308.93 L 348.07 304.65 L 348.12 304.64 L 348.26 304.63 L 348.36 304.63 L 348.67 304.54 L 349.04 304.43 L 349.05 304.43 L 349.15 304.40 L 349.49 304.33 L 349.66 304.33 L 349.82 304.33 L 349.99 302.49 L 350.11 302.49 L 350.58 302.48 L 350.63 302.47 L 350.68 302.47 L 350.72 302.47 L 351.03 299.84 L 351.09 299.84 L 351.31 299.82 L 371.95 299.82 L 373.13 299.80 L 373.16 299.80 L 373.40 299.80 L 373.41 299.80 L 373.57 299.80 L 373.68 299.80 L 373.78 299.67 L 373.92 299.67 L 373.96 299.67 L 374.02 299.67 L 374.24 299.43 L 374.69 299.28 L 374.97 299.13 L 375.29 298.38 L 375.30 298.38 L 375.35 298.19 L 375.39 298.17 L 376.01 297.71 L 376.02 297.71 L 376.11 297.65 L 376.38 297.65 L 376.55 297.60 L 376.58 296.51 L 376.59 296.51 L 376.67 297.59 L 376.71 297.53 L 376.74 297.51 L 376.89 296.05 L 376.90 296.05 L 377.23 295.99 L 378.11 295.99 L 378.32 295.99 L 378.38 295.99 L 378.42 295.99 L 378.48 295.99 L 378.60 295.89 L 392.71 294.67 L 392.73 294.67 L 392.85 294.67 L 392.88 294.40 L 392.96 281.40 L 393.12 276.56 L 393.14 276.56 L 393.40 276.47 L 393.46 276.47 L 393.50 276.45 L 393.73 276.45 L 394.34 275.27 L 394.35 275.27 L 394.51 275.20 L 394.57 275.20 L 394.60 275.10 L 395.11 274.40 L 395.12 274.40 L 395.90 274.25 L 395.99 274.20 L 396.26 274.22 L 396.58 272.62 L 396.67 272.46 L 396.72 272.31 L 396.86 271.71 L 397.26 271.56 L 397.34 271.43 L 397.51 271.43 L 397.70 271.43 L 398.29 271.43 L 398.36 271.43 L 398.50 271.43 L 398.51 271.43 L 398.70 271.45 L 399.15 271.45 L 399.61 271.29 L 399.68 271.29 L 399.78 271.27 L 399.91 271.27 L 400.27 271.27 L 400.87 271.27 L 401.06 271.12 L 401.38 266.92 L 402.68 270.89 L 402.96 270.87 L 403.17 270.85 L 403.50 270.85 L 403.60 270.81 L 403.92 270.78 L 404.43 270.54 L 404.50 270.54 L 404.60 270.54 L 404.66 270.54 L 404.71 270.54 L 405.11 270.31 L 414.46 270.31 L 414.54 270.32 L 415.12 270.30 L 415.18 270.30 L 415.31 270.26 L 415.42 269.97 L 415.43 269.96 L 415.76 269.93 L 415.83 269.93 L 417.75 269.69 L 417.97 269.69 L 418.14 269.69 L 418.18 269.69 L 418.77 269.52 L 418.97 269.52 L 419.01 269.52 L 419.33 269.51 L 419.68 268.52 L 419.72 268.52 L 420.01 268.35 L 420.13 268.35 L 420.24 268.35 L 420.48 268.35 L 421.00 268.34 L 421.10 268.31 L 421.20 268.22 L 421.41 268.05 L 421.92 267.90 L 422.38 263.94 L 422.47 263.80 L 422.94 263.62 L 423.02 263.57 L 423.10 263.43 L 423.15 263.15 L 423.31 261.97 L 423.35 262.02 L 423.42 261.99 L 423.69 261.99 L 424.09 261.82 L 424.35 261.76 L 424.63 261.74 L 424.77 261.73 L 425.05 261.72 L 425.53 261.72 L 425.99 261.70 L 426.35 261.70 L 426.44 261.69 L 426.53 261.69 L 426.53 261.68 L 426.81 261.68 L 426.89 261.67 L 427.00 261.52 L 427.77 261.50 L 427.78 261.50 L 427.99 261.49 L 428.88 261.48 L 429.48 261.29 L 429.91 261.12 L 429.92 261.12 L 429.96 261.12 L 443.06 261.12 L 443.10 261.12 L 443.25 261.12 L 443.32 261.12 L 443.37 261.09 L 443.38 261.09 L 443.93 261.09 L 444.06 261.08 L 444.23 261.05 L 444.50 261.02 L 444.68 261.02 L 444.91 260.93 L 445.03 260.93 L 445.09 260.93 L 445.16 260.93 L 445.32 260.57 L 445.35 260.57 L 445.40 260.57 L 445.54 260.57 L 445.63 260.57 L 445.75 260.66 L 445.91 260.66 L 446.23 260.64 L 446.37 260.64 L 446.50 260.64 L 447.30 259.48 L 447.99 259.17 L 448.82 258.33 L 449.03 258.33 L 449.27 258.33 L 449.52 258.33 L 454.34 258.23 L 454.73 258.23 L 500.36 258.08 L 644.01 257.86 L 644.48 257.79 L 644.82 257.79 L 645.14 257.79 L 645.64 257.25 L 645.81 257.25 L 645.94 257.25 L 646.17 255.30 L 646.51 255.67 L 646.77 255.64 L 646.83 255.64 L 647.06 255.63 L 647.11 255.63 L 647.34 255.62 L 647.55 255.53 L 648.20 254.30 L 648.23 254.30 L 648.41 254.19 L 649.03 250.20 L 649.05 250.20 L 649.17 250.19 L 649.32 250.13 L 649.98 248.27 L 650.00 248.27"/>
	</g>
	<g id="poloto_plot2" class="poloto_plot poloto_imgs poloto_line poloto2 poloto_stroke" fill="none" stroke="black">
		<path d=" M 150.00 389.37 L 150.04 389.36 L 150.06 389.36 L 150.07 389.36 L 150.10 389.36 L 150.14 386.64 L 150.29 386.27 L 150.64 386.27 L 151.17 386.25 L 151.43 384.62 L 151.96 384.48 L 152.05 384.43 L 152.12 384.39 L 152.74 383.66 L 153.90 383.09 L 154.27 382.98 L 154.36 382.99 L 155.06 382.94 L 155.87 382.94 L 155.88 382.94 L 155.88 382.94 L 166.79 382.94 L 166.86 382.93 L 167.00 382.91 L 167.06 382.91 L 167.48 382.75 L 167.67 382.70 L 168.13 382.44 L 168.19 382.32 L 168.33 382.08 L 168.46 382.05 L 168.50 382.04 L 168.62 382.00 L 168.74 382.00 L 168.86 382.00 L 169.16 381.73 L 169.43 381.48 L 169.48 381.48 L 169.61 381.33 L 170.47 381.01 L 170.49 381.00 L 170.60 380.90 L 171.09 380.54 L 171.49 380.10 L 171.94 379.92 L 172.03 379.92 L 172.04 379.92 L 172.13 379.67 L 172.30 379.67 L 172.52 379.64 L 172.94 379.46 L 172.97 379.14 L 173.05 379.14 L 173.15 378.98 L 173.40 378.98 L 173.42 378.98 L 173.68 378.51 L 173.78 378.48 L 173.87 378.43 L 173.97 378.21 L 175.30 378.08 L 175.62 378.03 L 176.36 377.71 L 176.52 377.71 L 176.63 377.69 L 176.69 377.44 L 177.20 376.11 L 177.43 376.09 L 177.69 375.69 L 177.82 375.65 L 178.13 375.47 L 178.26 375.41 L 178.44 375.12 L 178.61 374.89 L 179.20 374.89 L 179.22 374.86 L 179.24 374.67 L 179.45 373.38 L 189.56 373.25 L 190.60 372.86 L 190.64 372.81 L 191.88 372.49 L 191.98 372.49 L 192.09 372.25 L 192.40 372.09 L 192.54 371.80 L 192.59 371.55 L 192.74 371.08 L 193.11 371.07 L 193.12 371.07 L 193.25 370.73 L 193.39 370.73 L 193.55 370.38 L 193.75 370.10 L 193.82 369.95 L 193.85 369.95 L 194.02 369.62 L 194.05 369.62 L 194.24 369.32 L 194.27 369.31 L 194.56 369.21 L 194.61 369.21 L 194.71 369.10 L 194.84 369.08 L 195.00 369.08 L 195.08 369.06 L 195.64 368.77 L 195.66 368.78 L 195.76 368.20 L 196.02 368.18 L 196.24 368.00 L 196.31 368.00 L 196.42 368.00 L 196.47 367.95 L 196.60 367.16 L 197.24 366.49 L 197.31 366.12 L 197.52 366.09 L 197.59 366.00 L 197.64 365.98 L 197.74 365.81 L 197.84 365.18 L 198.07 365.09 L 198.22 365.07 L 198.35 364.76 L 198.42 364.75 L 198.99 364.51 L 199.30 364.34 L 199.40 364.20 L 199.66 364.19 L 199.69 364.19 L 199.71 364.16 L 199.88 363.02 L 200.01 363.01 L 200.48 362.85 L 200.56 362.39 L 200.65 362.39 L 200.77 362.20 L 200.79 362.09 L 200.84 362.01 L 200.88 361.97 L 200.95 361.97 L 201.01 361.88 L 201.20 360.60 L 201.34 360.47 L 201.47 360.08 L 201.65 360.06 L 201.86 359.93 L 202.06 359.53 L 202.20 358.43 L 202.50 358.34 L 202.50 357.87 L 202.67 357.75 L 216.79 357.75 L 217.06 357.75 L 217.73 357.23 L 217.87 357.23 L 217.98 357.23 L 218.00 357.09 L 218.24 356.87 L 218.41 356.83 L 218.50 356.69 L 218.60 356.59 L 218.66 356.55 L 218.91 356.48 L 219.42 356.58 L 219.55 356.23 L 219.65 356.14 L 219.77 356.13 L 220.42 356.06 L 220.51 356.00 L 220.56 356.00 L 220.60 355.93 L 220.74 355.87 L 220.85 355.74 L 221.33 355.41 L 222.01 355.27 L 222.26 355.21 L 223.01 355.00 L 223.37 354.48 L 223.50 354.40 L 223.65 353.99 L 223.87 353.47 L 224.22 353.33 L 224.70 353.32 L 225.34 353.30 L 225.43 353.11 L 225.90 352.98 L 226.20 352.81 L 226.30 352.68 L 226.48 352.63 L 226.62 352.28 L 228.29 352.11 L 229.88 352.11 L 244.09 352.07 L 244.19 351.88 L 244.26 351.76 L 244.71 351.56 L 246.03 351.22 L 246.09 351.17 L 246.28 350.92 L 246.93 350.83 L 247.24 350.15 L 247.71 350.14 L 247.82 350.11 L 247.92 349.45 L 248.75 348.84 L 248.84 348.83 L 249.02 348.79 L 249.20 348.74 L 249.29 348.51 L 249.75 347.48 L 249.91 347.22 L 249.99 347.20 L 250.09 347.09 L 250.30 346.68 L 250.38 345.65 L 250.59 345.23 L 251.20 344.99 L 251.26 344.47 L 251.32 344.47 L 251.42 344.38 L 251.57 344.24 L 251.63 344.20 L 251.69 344.15 L 251.98 342.95 L 252.05 342.24 L 252.41 342.10 L 252.63 340.90 L 252.76 340.68 L 253.86 338.79 L 253.99 338.76 L 295.75 338.21 L 295.79 338.21 L 311.75 338.05 L 312.62 337.85 L 312.80 337.85 L 313.04 337.75 L 313.11 337.60 L 313.21 337.57 L 320.13 337.55 L 321.04 335.38 L 321.38 335.20 L 321.56 334.45 L 325.87 334.35 L 325.90 334.28 L 326.17 334.27 L 327.46 334.14 L 327.53 333.89 L 327.69 333.80 L 328.15 333.69 L 328.21 333.66 L 328.39 333.24 L 328.58 333.11 L 328.61 332.79 L 342.03 332.38 L 342.13 331.40 L 342.66 331.14 L 342.67 330.77 L 342.76 330.47 L 342.87 330.02 L 343.02 328.83 L 343.25 328.17 L 343.44 327.33 L 343.62 327.32 L 343.68 326.67 L 343.96 326.63 L 344.88 326.01 L 345.26 325.72 L 345.32 325.55 L 345.40 325.54 L 345.45 325.33 L 345.58 324.59 L 345.95 324.52 L 346.01 324.51 L 346.24 324.03 L 346.33 324.03 L 346.36 323.76 L 346.45 323.58 L 346.51 323.58 L 346.56 323.19 L 346.85 322.96 L 346.98 322.58 L 347.14 322.57 L 347.26 322.36 L 347.30 322.07 L 347.60 321.91 L 347.68 321.74 L 347.74 321.74 L 347.81 321.74 L 347.86 321.44 L 347.90 321.45 L 347.92 321.44 L 348.07 321.34 L 348.12 321.01 L 348.26 321.01 L 348.36 320.93 L 348.67 320.90 L 349.04 320.87 L 349.05 320.87 L 349.15 320.85 L 349.49 320.84 L 349.66 320.84 L 349.82 320.84 L 349.99 320.79 L 350.11 320.39 L 350.58 320.39 L 350.63 320.16 L 350.68 320.15 L 350.72 319.89 L 351.03 319.80 L 351.09 319.73 L 351.31 319.73 L 371.95 319.66 L 373.13 319.55 L 373.16 319.55 L 373.40 319.55 L 373.41 319.55 L 373.57 319.08 L 373.68 319.07 L 373.78 318.94 L 373.92 318.87 L 373.96 318.83 L 374.02 318.80 L 374.24 318.76 L 374.69 318.67 L 374.97 318.04 L 375.29 318.00 L 375.30 317.96 L 375.35 317.44 L 375.39 317.44 L 376.01 317.44 L 376.02 317.38 L 376.11 316.90 L 376.38 316.84 L 376.55 316.82 L 376.58 316.81 L 376.59 316.76 L 376.67 316.72 L 376.71 316.22 L 376.74 316.21 L 376.89 316.21 L 376.90 316.17 L 377.23 316.12 L 378.11 316.10 L 378.32 316.06 L 378.38 316.05 L 378.42 315.89 L 378.48 315.89 L 378.60 315.33 L 392.71 315.16 L 392.73 315.00 L 392.85 314.89 L 392.88 314.87 L 392.96 314.40 L 393.12 314.28 L 393.14 314.25 L 393.40 314.25 L 393.46 314.25 L 393.50 313.77 L 393.73 313.72 L 394.34 313.70 L 394.35 313.67 L 394.51 313.41 L 394.57 313.42 L 394.60 312.98 L 395.11 312.98 L 395.12 312.96 L 395.90 312.85 L 395.99 312.33 L 396.26 312.33 L 396.58 312.33 L 396.67 311.94 L 396.72 311.64 L 396.86 311.63 L 397.26 311.56 L 397.34 311.54 L 397.51 311.42 L 397.70 311.42 L 398.29 311.42 L 398.36 311.42 L 398.50 311.39 L 398.51 311.39 L 398.70 311.39 L 399.15 311.36 L 399.61 311.31 L 399.68 311.30 L 399.78 311.25 L 399.91 311.11 L 400.27 311.11 L 400.87 310.94 L 401.06 310.65 L 401.38 310.61 L 402.68 310.29 L 402.96 310.29 L 403.17 310.29 L 403.50 310.28 L 403.60 310.26 L 403.92 310.10 L 404.43 310.07 L 404.50 309.93 L 404.60 309.86 L 404.66 309.88 L 404.71 309.82 L 405.11 309.80 L 414.46 309.79 L 414.54 309.79 L 415.12 309.79 L 415.18 309.78 L 415.31 309.34 L 415.42 309.32 L 415.43 309.32 L 415.76 309.31 L 415.83 309.29 L 417.75 308.64 L 417.97 308.58 L 418.14 308.56 L 418.18 308.56 L 418.77 308.54 L 418.97 308.63 L 419.01 308.63 L 419.33 308.59 L 419.68 307.98 L 419.72 307.96 L 420.01 307.95 L 420.13 307.95 L 420.24 307.95 L 420.48 307.82 L 421.00 307.26 L 421.10 307.26 L 421.20 307.18 L 421.41 306.68 L 421.92 306.12 L 422.38 306.16 L 422.47 305.86 L 422.94 305.86 L 423.02 305.83 L 423.10 305.80 L 423.15 305.50 L 423.31 305.49 L 423.35 305.49 L 423.42 305.49 L 423.69 305.49 L 424.09 305.26 L 424.35 305.23 L 424.63 305.23 L 424.77 305.23 L 425.05 305.23 L 425.53 305.23 L 425.99 305.23 L 426.35 305.23 L 426.44 305.23 L 426.53 305.22 L 426.53 305.11 L 426.81 305.04 L 426.89 305.04 L 427.00 305.03 L 427.77 305.02 L 427.78 304.73 L 427.99 304.73 L 428.88 304.74 L 429.48 304.73 L 429.91 304.67 L 429.92 304.55 L 429.96 304.55 L 443.06 304.36 L 443.10 304.35 L 443.25 304.34 L 443.32 304.16 L 443.37 304.16 L 443.38 304.15 L 443.93 304.10 L 444.06 303.51 L 444.23 303.38 L 444.50 302.23 L 444.68 302.22 L 444.91 301.73 L 445.03 301.79 L 445.09 301.78 L 445.16 301.15 L 445.32 301.04 L 445.35 300.61 L 445.40 300.54 L 445.54 300.50 L 445.63 300.28 L 445.75 302.87 L 445.91 302.83 L 446.23 301.79 L 446.37 301.56 L 446.50 301.33 L 447.30 300.92 L 447.99 300.48 L 448.82 299.88 L 449.03 299.81 L 449.27 299.81 L 449.52 299.76 L 454.34 299.45 L 454.73 299.42 L 500.36 298.61 L 644.01 298.58 L 644.48 298.22 L 644.82 298.16 L 645.14 298.16 L 645.64 297.83 L 645.81 297.45 L 645.94 296.74 L 646.17 296.55 L 646.51 296.62 L 646.77 296.20 L 646.83 296.20 L 647.06 296.07 L 647.11 296.07 L 647.34 295.38 L 647.55 294.32 L 648.20 294.21 L 648.23 294.10 L 648.41 292.74 L 649.03 292.69 L 649.05 292.55 L 649.17 292.47 L 649.32 291.23 L 649.98 291.17 L 650.00 290.99"/>
	</g>
	<g class="poloto_legend poloto_imgs poloto_line poloto0 poloto_stroke"><line x1="680" x2="730" y1="81.25" y2="81.25"/></g>
	<g class="poloto_legend poloto_imgs poloto_line poloto1 poloto_stroke"><line x1="680" x2="730" y1="131.25" y2="131.25"/></g>
	<g class="poloto_legend poloto_imgs poloto_line poloto2 poloto_stroke"><line x1="680" x2="730" y1="181.25" y2="181.25"/></g>
	<text class="poloto_legend poloto_text poloto_line poloto0" x="675" y="100">total</text>
	<text class="poloto_legend poloto_text poloto_line poloto1" x="675" y="150">code</text>
	<text class="poloto_legend poloto_text poloto_line poloto2" x="675" y="200">docs</text>
	<text class="poloto_text poloto_name poloto_title" x="400.00" y="37.50">Workspace lines over time</text>
	<text class="poloto_text poloto_name poloto_x" x="400.00" y="640">date (JST)</text>
	<text class="poloto_text poloto_name poloto_y" x="37.50" y="250.00" transform="rotate(-90,37.50,250.00)">lines</text>
	<text class="poloto_text poloto_ticks poloto_y">
		<tspan x="135.00" y="400.00">0</tspan>
		<tspan x="135.00" y="298.96">50K</tspan>
		<tspan x="135.00" y="197.93">100K</tspan>
	</text>
	<g class="poloto_imgs poloto_ticks poloto_y" stroke="black">
		<line x1="150.00" x2="144.00" y1="400.00" y2="400.00"/>
		<line x1="150.00" x2="144.00" y1="298.96" y2="298.96"/>
		<line x1="150.00" x2="144.00" y1="197.93" y2="197.93"/>
	</g>
	<g class="poloto_text poloto_ticks poloto_x">
		<text x="186.09" y="430.00" text-anchor="end" transform="rotate(-90 186.09 430.00)">2026-04-22 04:33</text>
		<text x="243.91" y="430.00" text-anchor="end" transform="rotate(-90 243.91 430.00)">2026-04-24 12:06</text>
		<text x="301.73" y="430.00" text-anchor="end" transform="rotate(-90 301.73 430.00)">2026-04-26 19:40</text>
		<text x="359.55" y="430.00" text-anchor="end" transform="rotate(-90 359.55 430.00)">2026-04-29 03:13</text>
		<text x="417.37" y="430.00" text-anchor="end" transform="rotate(-90 417.37 430.00)">2026-05-01 10:46</text>
		<text x="475.19" y="430.00" text-anchor="end" transform="rotate(-90 475.19 430.00)">2026-05-03 18:20</text>
		<text x="533.02" y="430.00" text-anchor="end" transform="rotate(-90 533.02 430.00)">2026-05-06 01:53</text>
		<text x="590.84" y="430.00" text-anchor="end" transform="rotate(-90 590.84 430.00)">2026-05-08 09:26</text>
		<text x="648.66" y="430.00" text-anchor="end" transform="rotate(-90 648.66 430.00)">2026-05-10 17:00</text>
	</g>
	<g class="poloto_imgs poloto_ticks poloto_x" stroke="black">
		<line x1="186.09" x2="186.09" y1="400.00" y2="405.00"/>
		<line x1="243.91" x2="243.91" y1="400.00" y2="405.00"/>
		<line x1="301.73" x2="301.73" y1="400.00" y2="405.00"/>
		<line x1="359.55" x2="359.55" y1="400.00" y2="405.00"/>
		<line x1="417.37" x2="417.37" y1="400.00" y2="405.00"/>
		<line x1="475.19" x2="475.19" y1="400.00" y2="405.00"/>
		<line x1="533.02" x2="533.02" y1="400.00" y2="405.00"/>
		<line x1="590.84" x2="590.84" y1="400.00" y2="405.00"/>
		<line x1="648.66" x2="648.66" y1="400.00" y2="405.00"/>
	</g>
	<path class="poloto_imgs poloto_ticks poloto_x" stroke="black" style="stroke-dasharray:7.227677030384576;stroke-dashoffset:-36.08721319853794;" d=" M 150.00 400.00 L 650.00 400.00"/>
	<path class="poloto_imgs poloto_ticks poloto_y" stroke="black" style="stroke-dasharray:10.10366358841716;stroke-dashoffset:-0;" d=" M 150.00 400.00 L 150.00 100.00"/>
</svg>

