<svg class="poloto" width="800" height="680" viewBox="0 0 800 680" xmlns="http://www.w3.org/2000/svg">
	<style>
.poloto{
  stroke-linecap:round;
  stroke-linejoin:round;
  font-family:Roboto,sans-serif;
  font-size:16px;
}
.poloto_background{fill:AliceBlue;}
.poloto_scatter{stroke-width:7}
.poloto_line{stroke-width:2}
.poloto_text{fill: black;}
.poloto_name{font-size:24px;dominant-baseline:auto;text-anchor:middle;}
.poloto_where{dominant-baseline:middle;text-anchor:start}
.poloto_text.poloto_legend{font-size:20px;dominant-baseline:middle;text-anchor:start;}
.poloto_text.poloto_ticks.poloto_y{dominant-baseline:middle;text-anchor:end}
.poloto_text.poloto_ticks.poloto_x{dominant-baseline:auto;text-anchor:middle}
.poloto_imgs.poloto_ticks{stroke: black;stroke-width:3;fill:none;stroke-dasharray:none}
.poloto_grid{stroke:gray;stroke-width:0.5}

.poloto0.poloto_stroke{stroke:blue;}
.poloto1.poloto_stroke{stroke:red;}
.poloto2.poloto_stroke{stroke:green;}
.poloto3.poloto_stroke{stroke:gold;}
.poloto4.poloto_stroke{stroke:aqua;}
.poloto5.poloto_stroke{stroke:lime;}
.poloto6.poloto_stroke{stroke:orange;}
.poloto7.poloto_stroke{stroke:chocolate;}
.poloto0.poloto_fill{fill:blue;}
.poloto1.poloto_fill{fill:red;}
.poloto2.poloto_fill{fill:green;}
.poloto3.poloto_fill{fill:gold;}
.poloto4.poloto_fill{fill:aqua;}
.poloto5.poloto_fill{fill:lime;}
.poloto6.poloto_fill{fill:orange;}
.poloto7.poloto_fill{fill:chocolate;}
	</style>
	<circle r="1e5" class="poloto_background" fill="white"/>
	<g id="poloto_plot0" class="poloto_plot poloto_imgs poloto_line poloto0 poloto_stroke" fill="none" stroke="black">
		<path d=" M 150.00 371.07 L 150.03 371.05 L 150.04 371.03 L 150.05 371.03 L 150.07 371.03 L 150.09 367.89 L 150.20 367.52 L 150.44 367.50 L 150.80 367.24 L 150.98 365.65 L 151.35 365.55 L 151.41 365.46 L 151.46 365.43 L 151.89 364.65 L 152.68 364.02 L 152.94 361.55 L 153.00 361.56 L 153.48 361.46 L 154.04 361.45 L 154.04 361.45 L 154.05 361.45 L 161.55 361.45 L 161.60 361.44 L 161.70 361.42 L 161.74 361.39 L 162.02 361.25 L 162.15 361.21 L 162.47 360.99 L 162.51 360.89 L 162.61 360.66 L 162.70 360.63 L 162.73 360.63 L 162.81 360.57 L 162.89 360.57 L 162.97 360.57 L 163.18 360.20 L 163.36 359.98 L 163.40 359.98 L 163.49 359.85 L 164.08 360.41 L 164.09 360.41 L 164.17 360.32 L 164.51 359.90 L 164.78 359.39 L 165.09 359.17 L 165.16 359.13 L 165.16 359.13 L 165.22 358.94 L 165.34 358.94 L 165.49 358.87 L 165.78 358.68 L 165.80 358.38 L 165.85 358.38 L 165.92 358.23 L 166.09 358.23 L 166.11 358.23 L 166.29 357.81 L 166.36 357.79 L 166.42 357.75 L 166.49 357.58 L 167.40 357.35 L 167.62 357.31 L 168.13 357.01 L 168.24 357.01 L 168.32 357.00 L 168.36 356.78 L 168.71 355.54 L 168.87 355.51 L 169.05 355.10 L 169.14 355.06 L 169.35 354.71 L 169.44 354.59 L 169.57 354.36 L 169.68 354.17 L 170.09 351.30 L 170.10 351.23 L 170.12 351.05 L 170.25 349.67 L 177.21 349.57 L 177.93 348.00 L 177.96 347.96 L 178.81 347.72 L 178.88 347.71 L 178.96 347.40 L 179.16 347.24 L 179.26 346.97 L 179.29 346.74 L 179.40 346.33 L 179.65 346.32 L 179.66 346.04 L 179.75 345.73 L 179.85 345.73 L 179.95 345.38 L 180.09 345.13 L 180.14 345.01 L 180.16 345.01 L 180.28 344.74 L 180.30 344.73 L 180.43 344.46 L 180.46 344.45 L 180.65 343.16 L 180.69 343.16 L 180.76 342.94 L 180.84 342.93 L 180.96 342.93 L 181.01 342.90 L 181.40 342.66 L 181.41 342.66 L 181.48 342.09 L 181.65 342.08 L 181.81 341.21 L 181.86 341.13 L 181.93 341.13 L 181.97 341.09 L 182.06 340.43 L 182.49 334.79 L 182.54 334.52 L 182.69 334.49 L 182.73 334.43 L 182.77 334.41 L 182.84 334.26 L 182.91 333.62 L 183.06 333.49 L 183.17 333.47 L 183.26 333.19 L 183.31 333.19 L 183.70 332.98 L 183.91 332.82 L 183.98 332.56 L 184.16 332.55 L 184.18 332.55 L 184.20 332.53 L 184.31 331.17 L 184.40 331.10 L 184.73 329.73 L 184.78 329.33 L 184.84 329.32 L 184.93 329.18 L 184.93 329.07 L 184.97 329.00 L 185.00 328.97 L 185.05 328.96 L 185.09 328.89 L 185.22 327.78 L 185.31 327.61 L 185.40 327.28 L 185.53 327.26 L 185.67 327.16 L 185.81 326.37 L 185.91 325.27 L 186.11 325.21 L 186.11 324.80 L 186.23 324.67 L 195.95 324.67 L 196.13 324.66 L 196.59 324.08 L 196.68 324.06 L 196.76 324.06 L 196.77 323.92 L 196.94 323.74 L 197.06 323.71 L 197.12 323.60 L 197.19 323.52 L 197.23 323.48 L 197.40 323.43 L 197.75 323.36 L 197.84 323.06 L 197.91 322.99 L 197.99 322.98 L 198.44 322.83 L 198.51 322.74 L 198.54 322.74 L 198.56 322.63 L 198.66 322.58 L 198.74 322.47 L 199.06 321.73 L 199.53 321.62 L 199.70 321.57 L 200.22 321.39 L 200.47 317.85 L 200.56 317.77 L 200.66 317.42 L 200.82 316.96 L 201.05 316.83 L 201.38 316.81 L 201.82 316.80 L 201.89 316.65 L 202.21 316.48 L 202.42 316.23 L 202.48 316.12 L 202.61 316.08 L 202.71 315.77 L 203.85 315.42 L 204.95 315.42 L 214.72 315.39 L 214.79 315.23 L 214.84 315.14 L 215.15 314.98 L 216.06 313.76 L 216.10 313.68 L 216.23 313.37 L 216.68 313.29 L 216.89 312.46 L 217.21 312.45 L 217.29 312.44 L 217.36 311.88 L 217.92 308.65 L 217.99 308.65 L 218.11 308.62 L 218.24 308.58 L 218.30 308.23 L 218.61 307.02 L 218.73 306.79 L 218.78 306.77 L 218.85 306.21 L 218.99 305.42 L 219.05 304.58 L 219.19 304.21 L 219.62 300.02 L 219.66 299.60 L 219.70 299.60 L 219.76 299.52 L 219.87 299.42 L 219.91 299.38 L 219.95 299.33 L 220.15 298.33 L 220.20 297.62 L 220.45 297.48 L 220.60 296.42 L 220.69 295.76 L 221.45 286.00 L 221.53 285.97 L 250.26 285.50 L 250.29 285.50 L 261.27 285.37 L 261.87 285.10 L 261.99 285.10 L 262.15 285.03 L 262.20 284.91 L 262.27 284.87 L 267.03 284.80 L 267.66 282.94 L 267.89 282.78 L 268.01 282.09 L 270.98 281.96 L 271.00 281.77 L 271.18 281.75 L 272.07 280.58 L 272.12 280.37 L 272.23 280.30 L 272.54 280.21 L 272.58 280.18 L 272.71 279.83 L 272.84 279.73 L 272.86 279.47 L 282.09 279.12 L 282.16 278.12 L 282.53 277.89 L 282.53 276.22 L 282.60 275.97 L 282.67 275.56 L 282.78 274.41 L 282.93 273.79 L 283.06 273.08 L 283.18 273.07 L 283.23 272.52 L 283.42 272.47 L 284.05 269.78 L 284.31 269.49 L 284.36 269.32 L 284.41 269.31 L 284.44 269.13 L 284.53 268.46 L 284.79 268.15 L 284.83 268.11 L 284.99 265.73 L 285.05 265.72 L 285.07 265.47 L 285.13 265.28 L 285.17 265.27 L 285.21 264.92 L 285.41 263.63 L 285.50 263.27 L 285.61 263.22 L 285.69 259.79 L 285.72 259.51 L 285.92 257.55 L 285.98 257.40 L 286.02 257.39 L 286.07 257.39 L 286.10 257.11 L 286.13 257.12 L 286.14 257.12 L 286.25 253.65 L 286.28 253.35 L 286.38 253.33 L 286.45 253.27 L 286.66 253.17 L 286.91 253.04 L 286.92 253.04 L 286.99 253.00 L 287.23 252.93 L 287.34 252.93 L 287.45 252.93 L 287.57 251.42 L 287.65 251.06 L 287.98 251.06 L 288.01 250.82 L 288.05 250.81 L 288.07 250.56 L 288.29 248.37 L 288.32 248.32 L 288.48 248.31 L 302.68 248.24 L 303.48 248.13 L 303.51 248.13 L 303.67 248.13 L 303.68 248.13 L 303.79 247.70 L 303.87 247.68 L 303.93 247.47 L 304.03 247.41 L 304.06 247.38 L 304.10 247.36 L 304.25 247.12 L 304.56 246.90 L 304.75 246.20 L 304.97 245.53 L 304.98 245.50 L 305.01 244.87 L 305.04 244.85 L 305.47 244.48 L 305.47 244.44 L 305.54 243.94 L 305.72 243.89 L 305.84 243.84 L 305.86 242.95 L 305.87 242.91 L 305.92 243.75 L 305.95 243.23 L 305.97 243.21 L 306.07 242.03 L 306.08 242.00 L 306.30 241.90 L 306.91 241.88 L 307.05 241.84 L 307.10 241.83 L 307.13 241.67 L 307.16 241.67 L 307.25 241.09 L 316.95 239.96 L 316.97 239.80 L 317.05 239.70 L 317.07 239.48 L 317.13 229.60 L 317.24 225.55 L 317.25 225.53 L 317.43 225.45 L 317.47 225.45 L 317.50 224.98 L 317.66 224.94 L 318.08 223.98 L 318.09 223.96 L 318.19 223.66 L 318.23 223.67 L 318.25 223.19 L 318.61 222.63 L 318.62 222.61 L 319.15 222.39 L 319.21 221.89 L 319.40 221.90 L 319.62 220.62 L 319.68 220.12 L 319.71 219.71 L 319.81 219.22 L 320.09 219.05 L 320.14 218.92 L 320.26 218.81 L 320.39 218.81 L 320.80 218.81 L 320.84 218.81 L 320.94 218.79 L 320.95 218.79 L 321.08 218.80 L 321.38 218.78 L 321.70 218.59 L 321.75 218.59 L 321.82 218.52 L 321.91 218.38 L 322.16 218.38 L 322.57 218.20 L 322.70 217.81 L 322.92 214.40 L 323.81 217.28 L 324.01 217.27 L 324.15 217.25 L 324.37 217.25 L 324.45 217.19 L 324.67 217.03 L 325.02 216.80 L 325.06 216.64 L 325.13 216.58 L 325.17 216.59 L 325.21 216.54 L 325.48 216.33 L 331.91 216.33 L 331.97 216.33 L 332.37 216.32 L 332.41 216.30 L 332.50 215.87 L 332.58 215.62 L 332.59 215.62 L 332.81 215.59 L 332.86 215.56 L 334.18 214.92 L 334.33 214.87 L 334.45 214.86 L 334.47 214.85 L 334.88 214.70 L 335.02 214.78 L 335.05 214.77 L 335.26 214.73 L 335.50 213.38 L 335.53 213.37 L 335.73 213.22 L 335.82 213.22 L 335.89 213.22 L 336.06 213.07 L 336.42 212.52 L 336.49 212.50 L 336.55 212.35 L 336.70 211.71 L 337.05 211.04 L 337.37 207.91 L 337.43 207.53 L 337.75 207.38 L 337.81 207.30 L 337.86 207.15 L 337.89 206.64 L 338.00 205.74 L 338.03 205.78 L 338.08 205.76 L 338.26 205.76 L 338.54 205.42 L 338.72 205.36 L 338.92 205.35 L 339.01 205.34 L 339.20 205.33 L 339.53 205.33 L 339.85 205.32 L 340.10 205.31 L 340.15 205.30 L 340.22 205.29 L 340.22 205.18 L 340.41 205.12 L 340.47 205.11 L 340.54 204.97 L 341.07 204.95 L 341.08 204.68 L 341.22 204.67 L 341.84 204.67 L 342.25 204.51 L 342.55 204.31 L 342.55 204.20 L 342.58 204.20 L 351.59 204.01 L 351.62 204.01 L 351.72 204.00 L 351.77 203.84 L 351.80 203.82 L 351.81 203.81 L 352.19 203.77 L 352.28 203.20 L 352.39 203.07 L 352.58 201.96 L 352.71 201.95 L 352.86 201.47 L 352.95 201.53 L 352.99 201.52 L 353.03 200.98 L 353.15 200.61 L 353.16 200.22 L 353.20 200.16 L 353.30 200.13 L 353.36 199.94 L 353.44 202.08 L 353.55 202.04 L 353.77 201.19 L 353.87 200.98 L 353.96 200.80 L 354.51 199.58 L 354.98 198.98 L 355.55 197.85 L 355.70 197.80 L 355.86 197.80 L 356.04 197.75 L 359.35 197.43 L 359.62 197.40 L 391.00 196.54 L 489.82 196.34 L 490.15 195.99 L 490.37 195.94 L 490.60 195.94 L 490.94 195.28 L 491.06 194.96 L 491.15 194.36 L 491.31 192.64 L 491.54 193.00 L 491.72 192.62 L 491.76 192.62 L 491.91 192.50 L 491.95 192.51 L 492.11 191.87 L 492.26 190.87 L 492.70 189.79 L 492.72 189.71 L 492.85 188.43 L 493.27 185.27 L 493.28 185.16 L 493.37 185.09 L 493.47 183.96 L 493.93 182.44 L 493.94 182.30 L 494.04 182.23 L 494.14 181.48 L 494.32 180.88 L 494.33 180.77 L 494.40 179.61 L 494.42 179.59 L 494.46 179.26 L 494.65 177.20 L 494.68 177.08 L 494.74 176.96 L 494.95 176.69 L 495.00 176.68 L 495.16 176.29 L 495.44 176.33 L 495.48 176.28 L 495.51 176.26 L 495.56 176.22 L 495.70 175.02 L 495.85 174.03 L 495.87 173.94 L 495.95 172.71 L 496.03 171.51 L 496.05 171.36 L 496.14 169.95 L 496.18 168.84 L 496.35 168.09 L 496.37 168.04 L 496.46 167.80 L 496.58 167.78 L 497.29 167.75 L 497.64 167.72 L 505.36 167.77 L 505.44 167.55 L 505.51 167.36 L 505.64 166.54 L 505.93 166.32 L 505.96 166.24 L 506.01 165.14 L 506.19 164.08 L 506.22 163.99 L 507.90 163.92 L 508.00 163.32 L 508.85 163.14 L 508.95 163.10 L 509.04 161.86 L 510.07 160.70 L 510.51 160.26 L 510.61 159.35 L 510.98 157.80 L 511.21 157.35 L 511.59 156.44 L 512.27 155.98 L 522.60 155.97 L 523.22 155.86 L 523.25 155.88 L 524.11 155.70 L 524.15 155.61 L 524.46 155.54 L 524.81 154.53 L 524.81 154.53 L 524.85 154.49 L 525.31 153.33 L 526.37 152.67 L 526.44 152.61 L 526.55 152.60 L 526.71 152.30 L 526.75 152.22 L 526.82 152.16 L 527.31 152.12 L 527.71 152.12 L 527.92 152.12 L 527.95 152.07 L 528.39 151.06 L 528.73 150.87 L 528.74 150.79 L 528.79 150.71 L 528.83 150.44 L 540.04 150.05 L 540.07 150.03 L 540.10 150.02 L 540.31 149.90 L 540.48 149.78 L 541.47 148.23 L 541.72 148.04 L 542.43 147.57 L 543.04 147.46 L 543.49 147.31 L 543.62 145.88 L 544.19 144.20 L 544.40 144.08 L 544.47 142.99 L 546.13 141.00 L 546.15 141.00 L 546.24 140.52 L 546.56 140.46 L 546.56 140.46 L 546.58 140.34 L 546.64 140.19 L 546.78 140.03 L 546.96 139.19 L 548.68 137.17 L 548.90 136.93 L 549.06 136.57 L 549.08 136.53 L 549.11 136.25 L 556.75 135.34 L 557.00 134.64 L 557.14 134.61 L 557.19 134.15 L 557.91 133.94 L 558.07 133.48 L 558.20 133.48 L 558.28 132.51 L 558.52 130.06 L 558.56 130.02 L 558.88 129.98 L 558.95 129.17 L 559.23 128.21 L 559.29 127.54 L 559.52 126.93 L 559.68 126.60 L 559.81 125.87 L 560.10 125.24 L 560.13 124.54 L 560.50 124.39 L 560.53 124.39 L 560.59 123.49 L 560.67 123.49 L 560.71 123.42 L 561.13 121.75 L 561.75 121.21 L 562.05 121.39 L 563.07 121.31 L 563.09 121.30 L 563.25 121.28 L 563.32 121.26 L 563.43 121.15 L 563.55 121.05 L 563.69 120.87 L 563.99 120.63 L 564.28 120.61 L 565.19 120.44 L 565.23 120.43 L 566.13 120.28 L 566.52 120.17 L 574.24 120.16 L 574.63 120.03 L 574.83 119.95 L 574.91 119.95 L 574.94 119.95 L 575.13 119.93 L 575.22 119.88 L 575.45 119.72 L 575.59 119.69 L 576.09 119.51 L 576.35 119.14 L 576.78 119.08 L 576.91 118.84 L 577.05 118.69 L 577.24 118.50 L 577.91 118.55 L 577.98 118.54 L 578.95 118.07 L 579.10 117.80 L 579.30 117.71 L 579.77 117.49 L 579.98 117.55 L 580.10 117.91 L 580.19 117.89 L 580.32 117.74 L 580.74 116.64 L 581.17 116.52 L 581.56 116.43 L 581.61 116.39 L 581.65 116.07 L 609.60 116.00 L 609.78 115.86 L 625.86 115.50 L 625.94 115.90 L 626.07 114.22 L 626.09 114.22 L 626.13 114.27 L 626.71 110.86 L 626.77 110.83 L 627.48 110.90 L 628.20 110.69 L 628.45 110.37 L 628.90 109.96 L 629.50 109.69 L 629.52 109.69 L 629.59 109.62 L 629.83 109.56 L 629.90 109.39 L 630.48 108.56 L 631.23 108.39 L 631.31 108.23 L 631.69 108.15 L 631.80 108.81 L 632.09 108.57 L 632.33 108.51 L 632.82 108.34 L 633.29 108.25 L 633.52 107.89 L 633.54 107.89 L 643.59 107.87 L 646.75 106.94 L 646.88 106.49 L 647.04 106.07 L 647.55 106.03 L 647.76 105.89 L 647.92 103.70 L 648.02 102.28 L 648.26 102.15 L 648.30 102.12 L 648.65 101.71 L 648.76 101.49 L 648.83 101.38 L 649.01 101.02 L 649.08 101.00 L 649.18 100.96 L 649.25 100.75 L 649.34 100.51 L 649.44 100.38 L 649.51 100.34 L 649.84 100.25 L 650.00 100.00"/>
	</g>
	<g id="poloto_plot1" class="poloto_plot poloto_imgs poloto_line poloto1 poloto_stroke" fill="none" stroke="black">
		<path d=" M 150.00 382.81 L 150.03 382.80 L 150.04 382.78 L 150.05 382.78 L 150.07 382.78 L 150.09 382.24 L 150.20 382.22 L 150.44 382.21 L 150.80 382.01 L 150.98 381.92 L 151.35 381.94 L 151.41 381.90 L 151.46 381.90 L 151.89 381.86 L 152.68 381.76 L 152.94 379.63 L 153.00 379.63 L 153.48 379.58 L 154.04 379.57 L 154.04 379.57 L 154.05 379.57 L 161.55 379.57 L 161.60 379.57 L 161.70 379.57 L 161.74 379.54 L 162.02 379.53 L 162.15 379.53 L 162.47 379.53 L 162.51 379.53 L 162.61 379.51 L 162.70 379.51 L 162.73 379.51 L 162.81 379.49 L 162.89 379.49 L 162.97 379.49 L 163.18 379.37 L 163.36 379.37 L 163.40 379.37 L 163.49 379.37 L 164.08 380.17 L 164.09 380.17 L 164.17 380.16 L 164.51 380.04 L 164.78 379.91 L 165.09 379.85 L 165.16 379.80 L 165.16 379.80 L 165.22 379.80 L 165.34 379.80 L 165.49 379.75 L 165.78 379.71 L 165.80 379.71 L 165.85 379.71 L 165.92 379.69 L 166.09 379.69 L 166.11 379.69 L 166.29 379.68 L 166.36 379.68 L 166.42 379.68 L 166.49 379.68 L 167.40 379.58 L 167.62 379.58 L 168.13 379.53 L 168.24 379.53 L 168.32 379.53 L 168.36 379.53 L 168.71 379.47 L 168.87 379.47 L 169.05 379.39 L 169.14 379.38 L 169.35 379.21 L 169.44 379.15 L 169.57 379.15 L 169.68 379.15 L 170.09 376.66 L 170.10 376.62 L 170.12 376.62 L 170.25 376.38 L 177.21 376.38 L 177.93 375.31 L 177.96 375.31 L 178.81 375.31 L 178.88 375.31 L 178.96 375.19 L 179.16 375.18 L 179.26 375.18 L 179.29 375.18 L 179.40 375.18 L 179.65 375.18 L 179.66 374.95 L 179.75 374.94 L 179.85 374.94 L 179.95 374.91 L 180.09 374.91 L 180.14 374.91 L 180.16 374.91 L 180.28 374.91 L 180.30 374.91 L 180.43 374.91 L 180.46 374.91 L 180.65 373.85 L 180.69 373.85 L 180.76 373.73 L 180.84 373.73 L 180.96 373.73 L 181.01 373.71 L 181.40 373.71 L 181.41 373.71 L 181.48 373.65 L 181.65 373.65 L 181.81 373.04 L 181.86 372.97 L 181.93 372.97 L 181.97 372.97 L 182.06 372.95 L 182.49 368.51 L 182.54 368.55 L 182.69 368.55 L 182.73 368.55 L 182.77 368.54 L 182.84 368.54 L 182.91 368.48 L 183.06 368.48 L 183.17 368.48 L 183.26 368.47 L 183.31 368.47 L 183.70 368.47 L 183.91 368.46 L 183.98 368.35 L 184.16 368.35 L 184.18 368.35 L 184.20 368.35 L 184.31 368.05 L 184.40 367.98 L 184.73 366.92 L 184.78 366.92 L 184.84 366.92 L 184.93 366.94 L 184.93 366.94 L 184.97 366.94 L 185.00 366.94 L 185.05 366.94 L 185.09 366.94 L 185.22 366.92 L 185.31 366.92 L 185.40 366.90 L 185.53 366.90 L 185.67 366.90 L 185.81 366.50 L 185.91 366.37 L 186.11 366.37 L 186.11 366.37 L 186.23 366.37 L 195.95 366.37 L 196.13 366.36 L 196.59 366.29 L 196.68 366.28 L 196.76 366.28 L 196.77 366.28 L 196.94 366.28 L 197.06 366.28 L 197.12 366.28 L 197.19 366.28 L 197.23 366.28 L 197.40 366.28 L 197.75 366.30 L 197.84 366.30 L 197.91 366.30 L 197.99 366.30 L 198.44 366.21 L 198.51 366.17 L 198.54 366.17 L 198.56 366.12 L 198.66 366.11 L 198.74 366.11 L 199.06 365.71 L 199.53 365.71 L 199.70 365.71 L 200.22 365.71 L 200.47 362.99 L 200.56 362.99 L 200.66 362.99 L 200.82 362.98 L 201.05 362.98 L 201.38 362.98 L 201.82 362.98 L 201.89 362.98 L 202.21 362.92 L 202.42 362.80 L 202.48 362.80 L 202.61 362.80 L 202.71 362.79 L 203.85 362.62 L 204.95 362.62 L 214.72 362.62 L 214.79 362.62 L 214.84 362.62 L 215.15 362.62 L 216.06 361.76 L 216.10 361.73 L 216.23 361.64 L 216.68 361.64 L 216.89 361.43 L 217.21 361.44 L 217.29 361.44 L 217.36 361.44 L 217.92 359.05 L 217.99 359.05 L 218.11 359.05 L 218.24 359.05 L 218.30 358.90 L 218.61 358.61 L 218.73 358.61 L 218.78 358.61 L 218.85 358.17 L 218.99 357.73 L 219.05 357.73 L 219.19 357.72 L 219.62 354.17 L 219.66 354.17 L 219.70 354.17 L 219.76 354.17 L 219.87 354.17 L 219.91 354.17 L 219.95 354.17 L 220.15 354.17 L 220.20 354.09 L 220.45 354.08 L 220.60 354.03 L 220.69 353.60 L 221.45 346.53 L 221.53 346.53 L 250.26 346.53 L 250.29 346.53 L 261.27 346.53 L 261.87 346.42 L 261.99 346.42 L 262.15 346.42 L 262.20 346.42 L 262.27 346.42 L 267.03 346.37 L 267.66 346.30 L 267.89 346.30 L 268.01 346.28 L 270.98 346.22 L 271.00 346.12 L 271.18 346.12 L 272.07 345.17 L 272.12 345.17 L 272.23 345.17 L 272.54 345.17 L 272.58 345.17 L 272.71 345.17 L 272.84 345.17 L 272.86 345.17 L 282.09 345.15 L 282.16 344.98 L 282.53 344.98 L 282.53 343.83 L 282.60 343.83 L 282.67 343.83 L 282.78 343.72 L 282.93 343.72 L 283.06 343.67 L 283.18 343.67 L 283.23 343.67 L 283.42 343.65 L 284.05 341.69 L 284.31 341.69 L 284.36 341.68 L 284.41 341.68 L 284.44 341.68 L 284.53 341.65 L 284.79 341.40 L 284.83 341.37 L 284.99 339.61 L 285.05 339.60 L 285.07 339.60 L 285.13 339.58 L 285.17 339.58 L 285.21 339.57 L 285.41 338.61 L 285.50 338.60 L 285.61 338.58 L 285.69 335.60 L 285.72 335.59 L 285.92 333.92 L 285.98 333.92 L 286.02 333.91 L 286.07 333.91 L 286.10 333.91 L 286.13 333.91 L 286.14 333.91 L 286.25 330.81 L 286.28 330.80 L 286.38 330.79 L 286.45 330.79 L 286.66 330.73 L 286.91 330.64 L 286.92 330.64 L 286.99 330.62 L 287.23 330.57 L 287.34 330.57 L 287.45 330.57 L 287.57 329.24 L 287.65 329.24 L 287.98 329.23 L 288.01 329.23 L 288.05 329.23 L 288.07 329.23 L 288.29 327.31 L 288.32 327.31 L 288.48 327.30 L 302.68 327.30 L 303.48 327.29 L 303.51 327.29 L 303.67 327.29 L 303.68 327.29 L 303.79 327.29 L 303.87 327.29 L 303.93 327.19 L 304.03 327.19 L 304.06 327.19 L 304.10 327.19 L 304.25 327.02 L 304.56 326.91 L 304.75 326.80 L 304.97 326.26 L 304.98 326.26 L 305.01 326.12 L 305.04 326.10 L 305.47 325.77 L 305.47 325.77 L 305.54 325.73 L 305.72 325.73 L 305.84 325.69 L 305.86 324.90 L 305.87 324.90 L 305.92 325.68 L 305.95 325.64 L 305.97 325.63 L 306.07 324.56 L 306.08 324.56 L 306.30 324.52 L 306.91 324.52 L 307.05 324.52 L 307.10 324.52 L 307.13 324.52 L 307.16 324.52 L 307.25 324.45 L 316.95 323.57 L 316.97 323.57 L 317.05 323.56 L 317.07 323.37 L 317.13 313.93 L 317.24 310.42 L 317.25 310.42 L 317.43 310.36 L 317.47 310.36 L 317.50 310.34 L 317.66 310.34 L 318.08 309.49 L 318.09 309.49 L 318.19 309.44 L 318.23 309.44 L 318.25 309.36 L 318.61 308.85 L 318.62 308.85 L 319.15 308.75 L 319.21 308.71 L 319.40 308.72 L 319.62 307.56 L 319.68 307.45 L 319.71 307.34 L 319.81 306.90 L 320.09 306.80 L 320.14 306.70 L 320.26 306.70 L 320.39 306.70 L 320.80 306.70 L 320.84 306.70 L 320.94 306.70 L 320.95 306.70 L 321.08 306.72 L 321.38 306.72 L 321.70 306.59 L 321.75 306.59 L 321.82 306.58 L 321.91 306.58 L 322.16 306.58 L 322.57 306.58 L 322.70 306.48 L 322.92 303.43 L 323.81 306.30 L 324.01 306.29 L 324.15 306.28 L 324.37 306.28 L 324.45 306.25 L 324.67 306.23 L 325.02 306.06 L 325.06 306.06 L 325.13 306.06 L 325.17 306.06 L 325.21 306.06 L 325.48 305.89 L 331.91 305.89 L 331.97 305.89 L 332.37 305.88 L 332.41 305.88 L 332.50 305.85 L 332.58 305.64 L 332.59 305.64 L 332.81 305.61 L 332.86 305.61 L 334.18 305.44 L 334.33 305.44 L 334.45 305.44 L 334.47 305.44 L 334.88 305.31 L 335.02 305.31 L 335.05 305.31 L 335.26 305.31 L 335.50 304.59 L 335.53 304.59 L 335.73 304.47 L 335.82 304.47 L 335.89 304.47 L 336.06 304.47 L 336.42 304.46 L 336.49 304.44 L 336.55 304.37 L 336.70 304.25 L 337.05 304.14 L 337.37 301.26 L 337.43 301.17 L 337.75 301.03 L 337.81 300.99 L 337.86 300.89 L 337.89 300.69 L 338.00 299.83 L 338.03 299.87 L 338.08 299.85 L 338.26 299.85 L 338.54 299.73 L 338.72 299.68 L 338.92 299.67 L 339.01 299.66 L 339.20 299.65 L 339.53 299.65 L 339.85 299.64 L 340.10 299.64 L 340.15 299.63 L 340.22 299.63 L 340.22 299.63 L 340.41 299.63 L 340.47 299.62 L 340.54 299.51 L 341.07 299.50 L 341.08 299.50 L 341.22 299.48 L 341.84 299.48 L 342.25 299.34 L 342.55 299.22 L 342.55 299.22 L 342.58 299.22 L 351.59 299.21 L 351.62 299.21 L 351.72 299.21 L 351.77 299.21 L 351.80 299.20 L 351.81 299.20 L 352.19 299.20 L 352.28 299.19 L 352.39 299.17 L 352.58 299.15 L 352.71 299.15 L 352.86 299.08 L 352.95 299.08 L 352.99 299.08 L 353.03 299.08 L 353.15 298.82 L 353.16 298.82 L 353.20 298.82 L 353.30 298.82 L 353.36 298.82 L 353.44 298.88 L 353.55 298.88 L 353.77 298.87 L 353.87 298.87 L 353.96 298.87 L 354.51 298.03 L 354.98 297.80 L 355.55 297.20 L 355.70 297.20 L 355.86 297.20 L 356.04 297.20 L 359.35 297.12 L 359.62 297.12 L 391.00 297.01 L 489.82 296.85 L 490.15 296.81 L 490.37 296.80 L 490.60 296.80 L 490.94 296.41 L 491.06 296.41 L 491.15 296.41 L 491.31 294.99 L 491.54 295.26 L 491.72 295.24 L 491.76 295.24 L 491.91 295.23 L 491.95 295.23 L 492.11 295.23 L 492.26 295.16 L 492.70 294.27 L 492.72 294.27 L 492.85 294.19 L 493.27 291.29 L 493.28 291.29 L 493.37 291.29 L 493.47 291.24 L 493.93 289.90 L 493.94 289.90 L 494.04 289.90 L 494.14 289.86 L 494.32 289.37 L 494.33 289.37 L 494.40 289.36 L 494.42 289.36 L 494.46 289.09 L 494.65 287.17 L 494.68 287.17 L 494.74 287.17 L 494.95 287.01 L 495.00 287.01 L 495.16 286.70 L 495.44 286.70 L 495.48 286.70 L 495.51 286.70 L 495.56 286.70 L 495.70 286.69 L 495.85 285.82 L 495.87 285.82 L 495.95 285.82 L 496.03 285.17 L 496.05 285.17 L 496.14 284.47 L 496.18 284.43 L 496.35 283.75 L 496.37 283.75 L 496.46 283.75 L 496.58 283.73 L 497.29 283.73 L 497.64 283.73 L 505.36 283.73 L 505.44 283.73 L 505.51 283.73 L 505.64 283.73 L 505.93 283.54 L 505.96 283.54 L 506.01 283.49 L 506.19 282.53 L 506.22 282.53 L 507.90 282.55 L 508.00 282.36 L 508.85 282.36 L 508.95 282.36 L 509.04 282.28 L 510.07 281.50 L 510.51 281.35 L 510.61 281.29 L 510.98 279.80 L 511.21 279.80 L 511.59 279.67 L 512.27 279.67 L 522.60 279.67 L 523.22 279.58 L 523.25 279.60 L 524.11 279.60 L 524.15 279.60 L 524.46 279.60 L 524.81 279.57 L 524.81 279.57 L 524.85 279.57 L 525.31 278.69 L 526.37 278.67 L 526.44 278.67 L 526.55 278.67 L 526.71 278.63 L 526.75 278.60 L 526.82 278.60 L 527.31 278.56 L 527.71 278.56 L 527.92 278.56 L 527.95 278.56 L 528.39 278.54 L 528.73 278.44 L 528.74 278.44 L 528.79 278.44 L 528.83 278.44 L 540.04 278.24 L 540.07 278.24 L 540.10 278.24 L 540.31 278.24 L 540.48 278.24 L 541.47 277.37 L 541.72 277.32 L 542.43 277.26 L 543.04 277.21 L 543.49 277.21 L 543.62 277.21 L 544.19 275.90 L 544.40 275.87 L 544.47 275.82 L 546.13 274.91 L 546.15 274.91 L 546.24 274.90 L 546.56 274.88 L 546.56 274.88 L 546.58 274.88 L 546.64 274.86 L 546.78 274.82 L 546.96 274.72 L 548.68 273.21 L 548.90 273.13 L 549.06 273.13 L 549.08 273.13 L 549.11 273.13 L 556.75 273.13 L 557.00 273.12 L 557.14 273.12 L 557.19 273.12 L 557.91 273.12 L 558.07 273.12 L 558.20 273.12 L 558.28 273.09 L 558.52 271.10 L 558.56 271.09 L 558.88 271.10 L 558.95 271.08 L 559.23 270.31 L 559.29 270.27 L 559.52 269.77 L 559.68 269.77 L 559.81 269.73 L 560.10 269.27 L 560.13 269.26 L 560.50 267.79 L 560.53 267.79 L 560.59 267.78 L 560.67 267.78 L 560.71 267.78 L 561.13 266.30 L 561.75 266.17 L 562.05 266.17 L 563.07 266.13 L 563.09 266.13 L 563.25 266.13 L 563.32 266.13 L 563.43 266.13 L 563.55 266.13 L 563.69 266.11 L 563.99 266.09 L 564.28 266.09 L 565.19 266.03 L 565.23 266.03 L 566.13 265.99 L 566.52 265.95 L 574.24 265.97 L 574.63 265.89 L 574.83 265.82 L 574.91 265.82 L 574.94 265.82 L 575.13 265.81 L 575.22 265.81 L 575.45 265.81 L 575.59 265.80 L 576.09 265.67 L 576.35 265.40 L 576.78 265.38 L 576.91 265.20 L 577.05 265.12 L 577.24 265.04 L 577.91 265.12 L 577.98 265.12 L 578.95 264.85 L 579.10 264.85 L 579.30 264.85 L 579.77 264.82 L 579.98 264.95 L 580.10 264.95 L 580.19 264.95 L 580.32 264.95 L 580.74 264.31 L 581.17 264.30 L 581.56 264.30 L 581.61 264.30 L 581.65 264.30 L 609.60 264.30 L 609.78 264.25 L 625.86 264.04 L 625.94 264.04 L 626.07 263.98 L 626.09 263.98 L 626.13 263.98 L 626.71 261.52 L 626.77 261.52 L 627.48 261.52 L 628.20 261.42 L 628.45 261.17 L 628.90 260.85 L 629.50 260.77 L 629.52 260.77 L 629.59 260.72 L 629.83 260.72 L 629.90 260.67 L 630.48 260.01 L 631.23 259.90 L 631.31 259.90 L 631.69 259.90 L 631.80 259.90 L 632.09 259.73 L 632.33 259.71 L 632.82 259.57 L 633.29 259.50 L 633.52 259.50 L 633.54 259.50 L 643.59 259.50 L 646.75 259.45 L 646.88 259.43 L 647.04 259.13 L 647.55 259.15 L 647.76 259.15 L 647.92 259.15 L 648.02 259.02 L 648.26 258.93 L 648.30 258.93 L 648.65 258.69 L 648.76 258.52 L 648.83 258.47 L 649.01 258.36 L 649.08 258.36 L 649.18 258.34 L 649.25 258.20 L 649.34 258.04 L 649.44 258.01 L 649.51 258.01 L 649.84 257.95 L 650.00 257.83"/>
	</g>
	<g id="poloto_plot2" class="poloto_plot poloto_imgs poloto_line poloto2 poloto_stroke" fill="none" stroke="black">
		<path d=" M 150.00 392.29 L 150.03 392.28 L 150.04 392.28 L 150.05 392.28 L 150.07 392.28 L 150.09 390.31 L 150.20 390.04 L 150.44 390.03 L 150.80 390.02 L 150.98 388.84 L 151.35 388.74 L 151.41 388.70 L 151.46 388.67 L 151.89 388.14 L 152.68 387.73 L 152.94 387.65 L 153.00 387.65 L 153.48 387.62 L 154.04 387.62 L 154.04 387.62 L 154.05 387.62 L 161.55 387.62 L 161.60 387.62 L 161.70 387.60 L 161.74 387.60 L 162.02 387.48 L 162.15 387.45 L 162.47 387.25 L 162.51 387.17 L 162.61 387.00 L 162.70 386.97 L 162.73 386.97 L 162.81 386.94 L 162.89 386.94 L 162.97 386.94 L 163.18 386.74 L 163.36 386.56 L 163.40 386.56 L 163.49 386.45 L 164.08 386.22 L 164.09 386.21 L 164.17 386.14 L 164.51 385.88 L 164.78 385.56 L 165.09 385.43 L 165.16 385.43 L 165.16 385.43 L 165.22 385.25 L 165.34 385.25 L 165.49 385.23 L 165.78 385.09 L 165.80 384.86 L 165.85 384.86 L 165.92 384.75 L 166.09 384.75 L 166.11 384.75 L 166.29 384.40 L 166.36 384.38 L 166.42 384.35 L 166.49 384.19 L 167.40 384.09 L 167.62 384.06 L 168.13 383.82 L 168.24 383.82 L 168.32 383.81 L 168.36 383.63 L 168.71 382.66 L 168.87 382.65 L 169.05 382.36 L 169.14 382.33 L 169.35 382.20 L 169.44 382.16 L 169.57 381.95 L 169.68 381.78 L 170.09 381.78 L 170.10 381.76 L 170.12 381.62 L 170.25 380.69 L 177.21 380.59 L 177.93 380.31 L 177.96 380.27 L 178.81 380.04 L 178.88 380.03 L 178.96 379.86 L 179.16 379.75 L 179.26 379.53 L 179.29 379.36 L 179.40 379.01 L 179.65 379.00 L 179.66 379.00 L 179.75 378.76 L 179.85 378.76 L 179.95 378.50 L 180.09 378.30 L 180.14 378.19 L 180.16 378.19 L 180.28 377.96 L 180.30 377.95 L 180.43 377.74 L 180.46 377.73 L 180.65 377.66 L 180.69 377.66 L 180.76 377.58 L 180.84 377.56 L 180.96 377.56 L 181.01 377.55 L 181.40 377.34 L 181.41 377.34 L 181.48 376.92 L 181.65 376.91 L 181.81 376.78 L 181.86 376.78 L 181.93 376.78 L 181.97 376.74 L 182.06 376.17 L 182.49 375.68 L 182.54 375.41 L 182.69 375.39 L 182.73 375.33 L 182.77 375.31 L 182.84 375.19 L 182.91 374.74 L 183.06 374.67 L 183.17 374.65 L 183.26 374.42 L 183.31 374.42 L 183.70 374.25 L 183.91 374.13 L 183.98 374.02 L 184.16 374.01 L 184.18 374.01 L 184.20 373.99 L 184.31 373.16 L 184.40 373.16 L 184.73 373.04 L 184.78 372.71 L 184.84 372.70 L 184.93 372.57 L 184.93 372.49 L 184.97 372.43 L 185.00 372.40 L 185.05 372.40 L 185.09 372.33 L 185.22 371.41 L 185.31 371.31 L 185.40 371.03 L 185.53 371.02 L 185.67 370.92 L 185.81 370.64 L 185.91 369.83 L 186.11 369.77 L 186.11 369.42 L 186.23 369.34 L 195.95 369.34 L 196.13 369.34 L 196.59 368.96 L 196.68 368.96 L 196.76 368.96 L 196.77 368.86 L 196.94 368.70 L 197.06 368.67 L 197.12 368.57 L 197.19 368.50 L 197.23 368.47 L 197.40 368.42 L 197.75 368.49 L 197.84 368.24 L 197.91 368.17 L 197.99 368.16 L 198.44 368.11 L 198.51 368.07 L 198.54 368.07 L 198.56 368.02 L 198.66 367.98 L 198.74 367.88 L 199.06 367.64 L 199.53 367.54 L 199.70 367.50 L 200.22 367.34 L 200.47 366.97 L 200.56 366.91 L 200.66 366.61 L 200.82 366.23 L 201.05 366.13 L 201.38 366.12 L 201.82 366.11 L 201.89 365.97 L 202.21 365.88 L 202.42 365.76 L 202.48 365.66 L 202.61 365.62 L 202.71 365.37 L 203.85 365.25 L 204.95 365.25 L 214.72 365.22 L 214.79 365.08 L 214.84 364.99 L 215.15 364.85 L 216.06 364.60 L 216.10 364.56 L 216.23 364.39 L 216.68 364.32 L 216.89 363.83 L 217.21 363.82 L 217.29 363.80 L 217.36 363.32 L 217.92 362.87 L 217.99 362.87 L 218.11 362.84 L 218.24 362.80 L 218.30 362.63 L 218.61 361.89 L 218.73 361.70 L 218.78 361.68 L 218.85 361.60 L 218.99 361.31 L 219.05 360.56 L 219.19 360.25 L 219.62 360.08 L 219.66 359.70 L 219.70 359.70 L 219.76 359.63 L 219.87 359.53 L 219.91 359.51 L 219.95 359.47 L 220.15 358.60 L 220.20 358.08 L 220.45 357.98 L 220.60 357.12 L 220.69 356.95 L 221.45 355.58 L 221.53 355.56 L 250.26 355.16 L 250.29 355.16 L 261.27 355.04 L 261.87 354.90 L 261.99 354.90 L 262.15 354.83 L 262.20 354.72 L 262.27 354.69 L 267.03 354.68 L 267.66 353.11 L 267.89 352.97 L 268.01 352.43 L 270.98 352.36 L 271.00 352.31 L 271.18 352.30 L 272.07 352.21 L 272.12 352.02 L 272.23 351.96 L 272.54 351.88 L 272.58 351.86 L 272.71 351.55 L 272.84 351.46 L 272.86 351.23 L 282.09 350.93 L 282.16 350.22 L 282.53 350.03 L 282.53 349.76 L 282.60 349.54 L 282.67 349.22 L 282.78 348.35 L 282.93 347.88 L 283.06 347.27 L 283.18 347.26 L 283.23 346.79 L 283.42 346.76 L 284.05 346.31 L 284.31 346.10 L 284.36 345.97 L 284.41 345.97 L 284.44 345.81 L 284.53 345.28 L 284.79 345.22 L 284.83 345.22 L 284.99 344.87 L 285.05 344.87 L 285.07 344.67 L 285.13 344.55 L 285.17 344.54 L 285.21 344.26 L 285.41 344.10 L 285.50 343.82 L 285.61 343.81 L 285.69 343.66 L 285.72 343.45 L 285.92 343.33 L 285.98 343.21 L 286.02 343.21 L 286.07 343.21 L 286.10 342.99 L 286.13 343.00 L 286.14 342.99 L 286.25 342.92 L 286.28 342.68 L 286.38 342.68 L 286.45 342.62 L 286.66 342.60 L 286.91 342.57 L 286.92 342.57 L 286.99 342.56 L 287.23 342.56 L 287.34 342.56 L 287.45 342.56 L 287.57 342.52 L 287.65 342.23 L 287.98 342.23 L 288.01 342.06 L 288.05 342.06 L 288.07 341.86 L 288.29 341.80 L 288.32 341.75 L 288.48 341.75 L 302.68 341.70 L 303.48 341.62 L 303.51 341.62 L 303.67 341.62 L 303.68 341.62 L 303.79 341.28 L 303.87 341.27 L 303.93 341.18 L 304.03 341.12 L 304.06 341.09 L 304.10 341.08 L 304.25 341.04 L 304.56 340.98 L 304.75 340.52 L 304.97 340.50 L 304.98 340.47 L 305.01 340.09 L 305.04 340.09 L 305.47 340.09 L 305.47 340.05 L 305.54 339.70 L 305.72 339.65 L 305.84 339.64 L 305.86 339.63 L 305.87 339.59 L 305.92 339.57 L 305.95 339.21 L 305.97 339.20 L 306.07 339.20 L 306.08 339.17 L 306.30 339.13 L 306.91 339.12 L 307.05 339.09 L 307.10 339.08 L 307.13 338.96 L 307.16 338.96 L 307.25 338.56 L 316.95 338.43 L 316.97 338.32 L 317.05 338.24 L 317.07 338.22 L 317.13 337.88 L 317.24 337.79 L 317.25 337.77 L 317.43 337.77 L 317.47 337.77 L 317.50 337.43 L 317.66 337.39 L 318.08 337.37 L 318.09 337.35 L 318.19 337.17 L 318.23 337.17 L 318.25 336.85 L 318.61 336.85 L 318.62 336.84 L 319.15 336.76 L 319.21 336.38 L 319.40 336.38 L 319.62 336.38 L 319.68 336.10 L 319.71 335.88 L 319.81 335.87 L 320.09 335.82 L 320.14 335.81 L 320.26 335.72 L 320.39 335.72 L 320.80 335.72 L 320.84 335.72 L 320.94 335.70 L 320.95 335.70 L 321.08 335.70 L 321.38 335.68 L 321.70 335.64 L 321.75 335.64 L 321.82 335.60 L 321.91 335.49 L 322.16 335.49 L 322.57 335.37 L 322.70 335.16 L 322.92 335.13 L 323.81 334.90 L 324.01 334.90 L 324.15 334.90 L 324.37 334.89 L 324.45 334.88 L 324.67 334.76 L 325.02 334.74 L 325.06 334.64 L 325.13 334.59 L 325.17 334.60 L 325.21 334.56 L 325.48 334.54 L 331.91 334.54 L 331.97 334.54 L 332.37 334.54 L 332.41 334.53 L 332.50 334.21 L 332.58 334.20 L 332.59 334.20 L 332.81 334.19 L 332.86 334.17 L 334.18 333.71 L 334.33 333.66 L 334.45 333.65 L 334.47 333.64 L 334.88 333.63 L 335.02 333.70 L 335.05 333.69 L 335.26 333.66 L 335.50 333.22 L 335.53 333.21 L 335.73 333.20 L 335.82 333.20 L 335.89 333.20 L 336.06 333.11 L 336.42 332.70 L 336.49 332.70 L 336.55 332.65 L 336.70 332.28 L 337.05 331.88 L 337.37 331.90 L 337.43 331.69 L 337.75 331.69 L 337.81 331.66 L 337.86 331.64 L 337.89 331.43 L 338.00 331.42 L 338.03 331.42 L 338.08 331.42 L 338.26 331.42 L 338.54 331.25 L 338.72 331.23 L 338.92 331.23 L 339.01 331.23 L 339.20 331.23 L 339.53 331.23 L 339.85 331.23 L 340.10 331.23 L 340.15 331.22 L 340.22 331.22 L 340.22 331.14 L 340.41 331.09 L 340.47 331.09 L 340.54 331.08 L 341.07 331.07 L 341.08 330.87 L 341.22 330.87 L 341.84 330.87 L 342.25 330.87 L 342.55 330.82 L 342.55 330.74 L 342.58 330.74 L 351.59 330.60 L 351.62 330.59 L 351.72 330.58 L 351.77 330.45 L 351.80 330.45 L 351.81 330.45 L 352.19 330.41 L 352.28 329.98 L 352.39 329.89 L 352.58 329.05 L 352.71 329.05 L 352.86 328.69 L 352.95 328.73 L 352.99 328.72 L 353.03 328.27 L 353.15 328.19 L 353.16 327.87 L 353.20 327.83 L 353.30 327.80 L 353.36 327.64 L 353.44 329.52 L 353.55 329.49 L 353.77 328.73 L 353.87 328.57 L 353.96 328.40 L 354.51 328.10 L 354.98 327.78 L 355.55 327.34 L 355.70 327.29 L 355.86 327.29 L 356.04 327.25 L 359.35 327.03 L 359.62 327.01 L 391.00 326.42 L 489.82 326.40 L 490.15 326.14 L 490.37 326.10 L 490.60 326.10 L 490.94 325.86 L 491.06 325.58 L 491.15 325.07 L 491.31 324.93 L 491.54 324.98 L 491.72 324.68 L 491.76 324.67 L 491.91 324.58 L 491.95 324.58 L 492.11 324.08 L 492.26 323.31 L 492.70 323.23 L 492.72 323.15 L 492.85 322.16 L 493.27 322.13 L 493.28 322.03 L 493.37 321.97 L 493.47 321.07 L 493.93 321.02 L 493.94 320.90 L 494.04 320.83 L 494.14 320.24 L 494.32 320.22 L 494.33 320.13 L 494.40 319.14 L 494.42 319.12 L 494.46 319.09 L 494.65 319.09 L 494.68 318.99 L 494.74 318.92 L 494.95 318.82 L 495.00 318.82 L 495.16 318.77 L 495.44 318.81 L 495.48 318.76 L 495.51 318.74 L 495.56 318.71 L 495.70 317.69 L 495.85 317.67 L 495.87 317.58 L 495.95 316.53 L 496.03 316.16 L 496.05 316.02 L 496.14 315.51 L 496.18 314.62 L 496.35 314.61 L 496.37 314.56 L 496.46 314.38 L 496.58 314.38 L 497.29 314.35 L 497.64 314.33 L 505.36 314.37 L 505.44 314.17 L 505.51 314.02 L 505.64 313.31 L 505.93 313.30 L 505.96 313.23 L 506.01 312.34 L 506.19 312.33 L 506.22 312.25 L 507.90 312.16 L 508.00 311.84 L 508.85 311.68 L 508.95 311.65 L 509.04 310.66 L 510.07 310.38 L 510.51 310.14 L 510.61 309.39 L 510.98 309.39 L 511.21 308.98 L 511.59 308.34 L 512.27 307.95 L 522.60 307.95 L 523.22 307.94 L 523.25 307.94 L 524.11 307.80 L 524.15 307.72 L 524.46 307.66 L 524.81 306.83 L 524.81 306.83 L 524.85 306.79 L 525.31 306.62 L 526.37 306.06 L 526.44 306.01 L 526.55 306.00 L 526.71 305.77 L 526.75 305.73 L 526.82 305.69 L 527.31 305.69 L 527.71 305.69 L 527.92 305.69 L 527.95 305.65 L 528.39 304.80 L 528.73 304.73 L 528.74 304.66 L 528.79 304.58 L 528.83 304.37 L 540.04 304.22 L 540.07 304.20 L 540.10 304.18 L 540.31 304.08 L 540.48 303.97 L 541.47 303.50 L 541.72 303.40 L 542.43 303.04 L 543.04 302.98 L 543.49 302.84 L 543.62 301.59 L 544.19 301.38 L 544.40 301.32 L 544.47 300.42 L 546.13 299.56 L 546.15 299.56 L 546.24 299.17 L 546.56 299.13 L 546.56 299.13 L 546.58 299.03 L 546.64 298.92 L 546.78 298.83 L 546.96 298.22 L 548.68 297.90 L 548.90 297.76 L 549.06 297.42 L 549.08 297.39 L 549.11 297.17 L 556.75 296.39 L 557.00 295.82 L 557.14 295.80 L 557.19 295.42 L 557.91 295.27 L 558.07 294.86 L 558.20 294.86 L 558.28 294.03 L 558.52 293.83 L 558.56 293.80 L 558.88 293.76 L 558.95 293.07 L 559.23 292.99 L 559.29 292.45 L 559.52 292.39 L 559.68 292.08 L 559.81 291.48 L 560.10 291.36 L 560.13 290.74 L 560.50 292.13 L 560.53 292.13 L 560.59 291.34 L 560.67 291.34 L 560.71 291.28 L 561.13 291.21 L 561.75 290.88 L 562.05 291.05 L 563.07 291.02 L 563.09 291.02 L 563.25 291.00 L 563.32 290.99 L 563.43 290.88 L 563.55 290.78 L 563.69 290.63 L 563.99 290.44 L 564.28 290.42 L 565.19 290.33 L 565.23 290.32 L 566.13 290.21 L 566.52 290.16 L 574.24 290.12 L 574.63 290.08 L 574.83 290.08 L 574.91 290.08 L 574.94 290.08 L 575.13 290.06 L 575.22 290.03 L 575.45 289.89 L 575.59 289.87 L 576.09 289.86 L 576.35 289.78 L 576.78 289.75 L 576.91 289.72 L 577.05 289.65 L 577.24 289.56 L 577.91 289.53 L 577.98 289.51 L 578.95 289.36 L 579.10 289.12 L 579.30 289.03 L 579.77 288.88 L 579.98 288.80 L 580.10 289.15 L 580.19 289.14 L 580.32 289.00 L 580.74 288.68 L 581.17 288.59 L 581.56 288.53 L 581.61 288.49 L 581.65 288.25 L 609.60 288.20 L 609.78 288.14 L 625.86 288.07 L 625.94 288.41 L 626.07 287.02 L 626.09 287.02 L 626.13 287.05 L 626.71 286.52 L 626.77 286.49 L 627.48 286.54 L 628.20 286.48 L 628.45 286.44 L 628.90 286.38 L 629.50 286.24 L 629.52 286.24 L 629.59 286.21 L 629.83 286.17 L 629.90 286.06 L 630.48 285.98 L 631.23 285.93 L 631.31 285.79 L 631.69 285.72 L 631.80 286.34 L 632.09 286.28 L 632.33 286.25 L 632.82 286.23 L 633.29 286.23 L 633.52 285.93 L 633.54 285.93 L 643.59 285.92 L 646.75 285.18 L 646.88 284.81 L 647.04 284.71 L 647.55 284.68 L 647.76 284.55 L 647.92 282.68 L 648.02 281.68 L 648.26 281.64 L 648.30 281.62 L 648.65 281.48 L 648.76 281.44 L 648.83 281.38 L 649.01 281.16 L 649.08 281.14 L 649.18 281.11 L 649.25 281.06 L 649.34 281.00 L 649.44 280.92 L 649.51 280.88 L 649.84 280.85 L 650.00 280.75"/>
	</g>
	<g class="poloto_legend poloto_imgs poloto_line poloto0 poloto_stroke"><line x1="680" x2="730" y1="81.25" y2="81.25"/></g>
	<g class="poloto_legend poloto_imgs poloto_line poloto1 poloto_stroke"><line x1="680" x2="730" y1="131.25" y2="131.25"/></g>
	<g class="poloto_legend poloto_imgs poloto_line poloto2 poloto_stroke"><line x1="680" x2="730" y1="181.25" y2="181.25"/></g>
	<text class="poloto_legend poloto_text poloto_line poloto0" x="675" y="100">total</text>
	<text class="poloto_legend poloto_text poloto_line poloto1" x="675" y="150">code</text>
	<text class="poloto_legend poloto_text poloto_line poloto2" x="675" y="200">docs</text>
	<text class="poloto_text poloto_name poloto_title" x="400.00" y="37.50">Workspace lines over time</text>
	<text class="poloto_text poloto_name poloto_x" x="400.00" y="640">date (JST)</text>
	<text class="poloto_text poloto_name poloto_y" x="37.50" y="250.00" transform="rotate(-90,37.50,250.00)">lines</text>
	<text class="poloto_text poloto_ticks poloto_y">
		<tspan x="135.00" y="400.00">0</tspan>
		<tspan x="135.00" y="326.68">50K</tspan>
		<tspan x="135.00" y="253.36">100K</tspan>
		<tspan x="135.00" y="180.04">150K</tspan>
		<tspan x="135.00" y="106.72">200K</tspan>
	</text>
	<g class="poloto_imgs poloto_ticks poloto_y" stroke="black">
		<line x1="150.00" x2="144.00" y1="400.00" y2="400.00"/>
		<line x1="150.00" x2="144.00" y1="326.68" y2="326.68"/>
		<line x1="150.00" x2="144.00" y1="253.36" y2="253.36"/>
		<line x1="150.00" x2="144.00" y1="180.04" y2="180.04"/>
		<line x1="150.00" x2="144.00" y1="106.72" y2="106.72"/>
	</g>
	<g class="poloto_text poloto_ticks poloto_x">
		<text x="214.60" y="430.00" text-anchor="end" transform="rotate(-90 214.60 430.00)">2026-04-24 12:06</text>
		<text x="314.03" y="430.00" text-anchor="end" transform="rotate(-90 314.03 430.00)">2026-04-30 07:00</text>
		<text x="413.47" y="430.00" text-anchor="end" transform="rotate(-90 413.47 430.00)">2026-05-06 01:53</text>
		<text x="512.90" y="430.00" text-anchor="end" transform="rotate(-90 512.90 430.00)">2026-05-11 20:46</text>
		<text x="612.34" y="430.00" text-anchor="end" transform="rotate(-90 612.34 430.00)">2026-05-17 15:40</text>
	</g>
	<g class="poloto_imgs poloto_ticks poloto_x" stroke="black">
		<line x1="214.60" x2="214.60" y1="400.00" y2="405.00"/>
		<line x1="314.03" x2="314.03" y1="400.00" y2="405.00"/>
		<line x1="413.47" x2="413.47" y1="400.00" y2="405.00"/>
		<line x1="512.90" x2="512.90" y1="400.00" y2="405.00"/>
		<line x1="612.34" x2="612.34" y1="400.00" y2="405.00"/>
	</g>
	<path class="poloto_imgs poloto_ticks poloto_x" stroke="black" style="stroke-dasharray:9.943536621647635;stroke-dashoffset:-64.59778792108409;" d=" M 150.00 400.00 L 650.00 400.00"/>
	<path class="poloto_imgs poloto_ticks poloto_y" stroke="black" style="stroke-dasharray:7.33198750629329;stroke-dashoffset:-0;" d=" M 150.00 400.00 L 150.00 100.00"/>
</svg>

