<svg class="poloto" width="800" height="680" viewBox="0 0 800 680" xmlns="http://www.w3.org/2000/svg">
	<style>
.poloto{
  stroke-linecap:round;
  stroke-linejoin:round;
  font-family:Roboto,sans-serif;
  font-size:16px;
}
.poloto_background{fill:AliceBlue;}
.poloto_scatter{stroke-width:7}
.poloto_line{stroke-width:2}
.poloto_text{fill: black;}
.poloto_name{font-size:24px;dominant-baseline:auto;text-anchor:middle;}
.poloto_where{dominant-baseline:middle;text-anchor:start}
.poloto_text.poloto_legend{font-size:20px;dominant-baseline:middle;text-anchor:start;}
.poloto_text.poloto_ticks.poloto_y{dominant-baseline:middle;text-anchor:end}
.poloto_text.poloto_ticks.poloto_x{dominant-baseline:auto;text-anchor:middle}
.poloto_imgs.poloto_ticks{stroke: black;stroke-width:3;fill:none;stroke-dasharray:none}
.poloto_grid{stroke:gray;stroke-width:0.5}

.poloto0.poloto_stroke{stroke:blue;}
.poloto1.poloto_stroke{stroke:red;}
.poloto2.poloto_stroke{stroke:green;}
.poloto3.poloto_stroke{stroke:gold;}
.poloto4.poloto_stroke{stroke:aqua;}
.poloto5.poloto_stroke{stroke:lime;}
.poloto6.poloto_stroke{stroke:orange;}
.poloto7.poloto_stroke{stroke:chocolate;}
.poloto0.poloto_fill{fill:blue;}
.poloto1.poloto_fill{fill:red;}
.poloto2.poloto_fill{fill:green;}
.poloto3.poloto_fill{fill:gold;}
.poloto4.poloto_fill{fill:aqua;}
.poloto5.poloto_fill{fill:lime;}
.poloto6.poloto_fill{fill:orange;}
.poloto7.poloto_fill{fill:chocolate;}
	</style>
	<circle r="1e5" class="poloto_background" fill="white"/>
	<g id="poloto_plot0" class="poloto_plot poloto_imgs poloto_line poloto0 poloto_stroke" fill="none" stroke="black">
		<path d=" M 150.00 358.30 L 150.04 358.27 L 150.06 358.25 L 150.07 358.25 L 150.10 358.25 L 150.14 353.72 L 150.29 353.18 L 150.65 353.15 L 151.17 352.78 L 151.44 350.48 L 151.97 350.34 L 152.07 350.22 L 152.13 350.17 L 152.76 349.04 L 153.92 348.13 L 154.29 344.58 L 154.39 344.58 L 155.09 344.44 L 155.90 344.43 L 155.91 344.43 L 155.91 344.43 L 166.88 344.43 L 166.95 344.42 L 167.09 344.39 L 167.15 344.35 L 167.57 344.15 L 167.76 344.09 L 168.22 343.76 L 168.29 343.62 L 168.42 343.30 L 168.56 343.25 L 168.60 343.24 L 168.72 343.16 L 168.84 343.16 L 168.96 343.16 L 169.26 342.64 L 169.53 342.31 L 169.58 342.31 L 169.71 342.12 L 170.58 342.93 L 170.60 342.93 L 170.71 342.80 L 171.21 342.19 L 171.61 341.46 L 172.06 341.15 L 172.15 341.09 L 172.16 341.09 L 172.25 340.81 L 172.42 340.81 L 172.64 340.71 L 173.07 340.43 L 173.09 340.01 L 173.17 340.01 L 173.27 339.79 L 173.52 339.79 L 173.55 339.79 L 173.80 339.18 L 173.91 339.15 L 174.00 339.10 L 174.10 338.86 L 175.43 338.53 L 175.75 338.46 L 176.50 338.03 L 176.66 338.03 L 176.77 338.02 L 176.84 337.71 L 177.35 335.91 L 177.58 335.87 L 177.84 335.28 L 177.97 335.22 L 178.28 334.72 L 178.41 334.54 L 178.60 334.22 L 178.77 333.94 L 179.35 329.80 L 179.37 329.70 L 179.40 329.45 L 179.60 327.46 L 189.77 327.31 L 190.82 325.05 L 190.86 324.99 L 192.10 324.64 L 192.21 324.63 L 192.32 324.18 L 192.62 323.95 L 192.76 323.57 L 192.81 323.23 L 192.97 322.63 L 193.34 322.62 L 193.35 322.22 L 193.49 321.78 L 193.62 321.77 L 193.78 321.27 L 193.98 320.92 L 194.06 320.74 L 194.08 320.73 L 194.26 320.34 L 194.29 320.33 L 194.48 319.94 L 194.51 319.93 L 194.80 318.06 L 194.85 318.06 L 194.95 317.75 L 195.08 317.74 L 195.24 317.74 L 195.32 317.69 L 195.89 317.34 L 195.90 317.35 L 196.01 316.53 L 196.26 316.51 L 196.49 315.26 L 196.56 315.15 L 196.67 315.14 L 196.72 315.09 L 196.85 314.13 L 197.49 306.01 L 197.56 305.61 L 197.78 305.58 L 197.84 305.48 L 197.89 305.45 L 198.00 305.24 L 198.10 304.32 L 198.32 304.13 L 198.48 304.11 L 198.61 303.70 L 198.68 303.69 L 199.26 303.39 L 199.57 303.16 L 199.66 302.80 L 199.93 302.78 L 199.95 302.78 L 199.98 302.75 L 200.15 300.79 L 200.28 300.68 L 200.75 298.71 L 200.83 298.14 L 200.92 298.12 L 201.04 297.91 L 201.06 297.76 L 201.11 297.66 L 201.16 297.61 L 201.23 297.61 L 201.29 297.50 L 201.47 295.90 L 201.61 295.66 L 201.74 295.18 L 201.93 295.15 L 202.13 295.00 L 202.34 293.86 L 202.48 292.28 L 202.78 292.19 L 202.78 291.60 L 202.96 291.41 L 217.15 291.41 L 217.42 291.40 L 218.09 290.56 L 218.23 290.54 L 218.34 290.54 L 218.36 290.33 L 218.60 290.07 L 218.77 290.03 L 218.87 289.87 L 218.97 289.77 L 219.03 289.71 L 219.28 289.63 L 219.79 289.53 L 219.92 289.10 L 220.02 288.99 L 220.14 288.98 L 220.80 288.76 L 220.89 288.64 L 220.94 288.64 L 220.98 288.48 L 221.12 288.40 L 221.23 288.25 L 221.71 287.18 L 222.39 287.02 L 222.64 286.95 L 223.40 286.68 L 223.76 281.58 L 223.89 281.47 L 224.05 280.97 L 224.27 280.30 L 224.61 280.11 L 225.09 280.09 L 225.74 280.08 L 225.83 279.85 L 226.30 279.62 L 226.61 279.25 L 226.70 279.10 L 226.89 279.04 L 227.03 278.58 L 228.71 278.08 L 230.30 278.08 L 244.59 278.04 L 244.69 277.81 L 244.77 277.67 L 245.21 277.45 L 246.55 275.69 L 246.60 275.58 L 246.79 275.12 L 247.45 275.01 L 247.76 273.82 L 248.23 273.81 L 248.34 273.79 L 248.44 272.97 L 249.27 268.33 L 249.37 268.32 L 249.55 268.28 L 249.73 268.22 L 249.82 267.72 L 250.28 265.97 L 250.45 265.64 L 250.52 265.62 L 250.63 264.81 L 250.83 263.67 L 250.91 262.46 L 251.12 261.92 L 251.74 255.89 L 251.80 255.28 L 251.86 255.28 L 251.96 255.17 L 252.11 255.01 L 252.17 254.96 L 252.23 254.89 L 252.53 253.45 L 252.60 252.43 L 252.96 252.22 L 253.18 250.70 L 253.31 249.75 L 254.42 235.67 L 254.55 235.63 L 296.53 234.96 L 296.57 234.96 L 312.62 234.77 L 313.49 234.38 L 313.67 234.38 L 313.91 234.28 L 313.98 234.10 L 314.08 234.05 L 321.04 233.95 L 321.96 231.27 L 322.30 231.03 L 322.48 230.05 L 326.81 229.85 L 326.84 229.58 L 327.11 229.55 L 328.41 227.87 L 328.48 227.56 L 328.64 227.45 L 329.10 227.33 L 329.16 227.29 L 329.34 226.79 L 329.54 226.65 L 329.57 226.27 L 343.05 225.76 L 343.15 224.31 L 343.69 223.99 L 343.70 221.58 L 343.79 221.22 L 343.90 220.63 L 344.05 218.96 L 344.28 218.08 L 344.47 217.05 L 344.65 217.04 L 344.72 216.25 L 344.99 216.18 L 345.92 212.29 L 346.30 211.88 L 346.36 211.63 L 346.44 211.63 L 346.49 211.35 L 346.62 210.40 L 347.00 209.94 L 347.06 209.88 L 347.29 206.46 L 347.38 206.45 L 347.41 206.08 L 347.50 205.80 L 347.56 205.80 L 347.61 205.29 L 347.90 203.43 L 348.03 202.91 L 348.20 202.84 L 348.31 197.89 L 348.36 197.49 L 348.65 194.67 L 348.74 194.45 L 348.79 194.44 L 348.87 194.44 L 348.91 194.04 L 348.96 194.05 L 348.97 194.04 L 349.12 189.05 L 349.18 188.62 L 349.32 188.59 L 349.42 188.50 L 349.73 188.36 L 350.10 188.17 L 350.11 188.17 L 350.21 188.11 L 350.56 188.02 L 350.73 188.02 L 350.89 188.02 L 351.06 185.84 L 351.18 185.32 L 351.66 185.31 L 351.70 184.97 L 351.76 184.96 L 351.80 184.59 L 352.11 181.44 L 352.16 181.36 L 352.39 181.34 L 373.14 181.25 L 374.32 181.09 L 374.36 181.09 L 374.59 181.09 L 374.61 181.09 L 374.76 180.46 L 374.88 180.44 L 374.98 180.13 L 375.12 180.05 L 375.16 180.01 L 375.22 179.98 L 375.44 179.63 L 375.89 179.32 L 376.17 178.31 L 376.49 177.34 L 376.50 177.29 L 376.56 176.39 L 376.60 176.36 L 377.21 175.83 L 377.23 175.76 L 377.32 175.05 L 377.59 174.97 L 377.76 174.90 L 377.79 173.63 L 377.81 173.56 L 377.88 174.77 L 377.93 174.03 L 377.95 174.00 L 378.10 172.30 L 378.11 172.25 L 378.44 172.11 L 379.33 172.08 L 379.54 172.02 L 379.60 172.01 L 379.64 171.78 L 379.70 171.78 L 379.82 170.94 L 394.00 169.31 L 394.03 169.09 L 394.15 168.93 L 394.18 168.62 L 394.26 154.37 L 394.42 148.54 L 394.44 148.51 L 394.70 148.39 L 394.76 148.39 L 394.80 147.72 L 395.03 147.66 L 395.64 146.28 L 395.66 146.25 L 395.81 145.82 L 395.87 145.83 L 395.91 145.14 L 396.42 144.34 L 396.43 144.30 L 397.21 143.99 L 397.30 143.26 L 397.58 143.28 L 397.90 141.44 L 397.98 140.71 L 398.04 140.13 L 398.18 139.42 L 398.59 139.17 L 398.66 138.99 L 398.83 138.83 L 399.02 138.83 L 399.62 138.83 L 399.69 138.83 L 399.83 138.80 L 399.84 138.80 L 400.03 138.81 L 400.48 138.78 L 400.94 138.51 L 401.01 138.51 L 401.12 138.40 L 401.25 138.21 L 401.61 138.21 L 402.21 137.95 L 402.40 137.38 L 402.73 132.47 L 404.03 136.62 L 404.32 136.60 L 404.53 136.58 L 404.85 136.58 L 404.95 136.50 L 405.28 136.27 L 405.79 135.93 L 405.86 135.70 L 405.96 135.61 L 406.02 135.63 L 406.07 135.56 L 406.47 135.25 L 415.87 135.25 L 415.96 135.25 L 416.54 135.23 L 416.60 135.21 L 416.73 134.59 L 416.84 134.23 L 416.85 134.23 L 417.18 134.18 L 417.26 134.15 L 419.18 133.22 L 419.41 133.15 L 419.57 133.13 L 419.61 133.12 L 420.20 132.90 L 420.41 133.01 L 420.45 133.00 L 420.77 132.94 L 421.12 131.00 L 421.16 130.99 L 421.45 130.77 L 421.57 130.77 L 421.68 130.77 L 421.93 130.55 L 422.45 129.77 L 422.55 129.74 L 422.64 129.52 L 422.86 128.59 L 423.38 127.63 L 423.84 123.12 L 423.93 122.56 L 424.40 122.35 L 424.48 122.23 L 424.56 122.01 L 424.60 121.29 L 424.77 119.99 L 424.81 120.04 L 424.88 120.01 L 425.15 120.01 L 425.56 119.53 L 425.81 119.44 L 426.10 119.42 L 426.24 119.40 L 426.52 119.39 L 427.00 119.39 L 427.47 119.38 L 427.83 119.37 L 427.91 119.36 L 428.00 119.34 L 428.01 119.18 L 428.29 119.09 L 428.37 119.08 L 428.48 118.88 L 429.25 118.85 L 429.26 118.46 L 429.47 118.44 L 430.37 118.45 L 430.97 118.21 L 431.41 117.92 L 431.42 117.77 L 431.46 117.76 L 444.62 117.50 L 444.66 117.49 L 444.82 117.47 L 444.89 117.25 L 444.93 117.22 L 444.94 117.21 L 445.50 117.15 L 445.63 116.33 L 445.80 116.14 L 446.08 114.53 L 446.26 114.52 L 446.48 113.83 L 446.61 113.92 L 446.67 113.91 L 446.74 113.13 L 446.90 112.59 L 446.92 112.02 L 446.98 111.95 L 447.12 111.90 L 447.21 111.63 L 447.33 114.71 L 447.49 114.65 L 447.82 113.43 L 447.96 113.12 L 448.08 112.87 L 448.89 111.10 L 449.58 110.25 L 450.42 108.62 L 450.63 108.54 L 450.86 108.54 L 451.12 108.47 L 455.96 108.00 L 456.36 107.96 L 502.23 106.72 L 646.65 106.43 L 647.13 105.93 L 647.46 105.87 L 647.79 105.87 L 648.29 104.91 L 648.46 104.45 L 648.59 103.59 L 648.82 101.11 L 649.16 101.62 L 649.43 101.08 L 649.49 101.07 L 649.71 100.91 L 649.76 100.91 L 650.00 100.00"/>
	</g>
	<g id="poloto_plot1" class="poloto_plot poloto_imgs poloto_line poloto1 poloto_stroke" fill="none" stroke="black">
		<path d=" M 150.00 375.22 L 150.04 375.20 L 150.06 375.18 L 150.07 375.18 L 150.10 375.18 L 150.14 374.40 L 150.29 374.38 L 150.65 374.36 L 151.17 374.06 L 151.44 373.93 L 151.97 373.97 L 152.07 373.91 L 152.13 373.91 L 152.76 373.85 L 153.92 373.70 L 154.29 370.64 L 154.39 370.64 L 155.09 370.57 L 155.90 370.55 L 155.91 370.55 L 155.91 370.55 L 166.88 370.55 L 166.95 370.55 L 167.09 370.55 L 167.15 370.51 L 167.57 370.49 L 167.76 370.49 L 168.22 370.49 L 168.29 370.49 L 168.42 370.47 L 168.56 370.47 L 168.60 370.47 L 168.72 370.43 L 168.84 370.43 L 168.96 370.43 L 169.26 370.26 L 169.53 370.26 L 169.58 370.26 L 169.71 370.26 L 170.58 371.41 L 170.60 371.41 L 170.71 371.40 L 171.21 371.23 L 171.61 371.04 L 172.06 370.95 L 172.15 370.89 L 172.16 370.89 L 172.25 370.89 L 172.42 370.89 L 172.64 370.82 L 173.07 370.75 L 173.09 370.75 L 173.17 370.75 L 173.27 370.72 L 173.52 370.72 L 173.55 370.72 L 173.80 370.71 L 173.91 370.71 L 174.00 370.71 L 174.10 370.71 L 175.43 370.57 L 175.75 370.56 L 176.50 370.50 L 176.66 370.50 L 176.77 370.50 L 176.84 370.50 L 177.35 370.41 L 177.58 370.41 L 177.84 370.30 L 177.97 370.28 L 178.28 370.04 L 178.41 369.95 L 178.60 369.95 L 178.77 369.94 L 179.35 366.36 L 179.37 366.30 L 179.40 366.30 L 179.60 365.95 L 189.77 365.95 L 190.82 364.41 L 190.86 364.41 L 192.10 364.41 L 192.21 364.41 L 192.32 364.24 L 192.62 364.22 L 192.76 364.22 L 192.81 364.22 L 192.97 364.22 L 193.34 364.22 L 193.35 363.89 L 193.49 363.87 L 193.62 363.87 L 193.78 363.84 L 193.98 363.83 L 194.06 363.83 L 194.08 363.83 L 194.26 363.83 L 194.29 363.83 L 194.48 363.83 L 194.51 363.83 L 194.80 362.31 L 194.85 362.31 L 194.95 362.13 L 195.08 362.13 L 195.24 362.13 L 195.32 362.11 L 195.89 362.11 L 195.90 362.11 L 196.01 362.01 L 196.26 362.01 L 196.49 361.14 L 196.56 361.03 L 196.67 361.03 L 196.72 361.03 L 196.85 361.01 L 197.49 354.61 L 197.56 354.66 L 197.78 354.66 L 197.84 354.66 L 197.89 354.65 L 198.00 354.65 L 198.10 354.57 L 198.32 354.57 L 198.48 354.57 L 198.61 354.56 L 198.68 354.56 L 199.26 354.55 L 199.57 354.54 L 199.66 354.38 L 199.93 354.38 L 199.95 354.38 L 199.98 354.38 L 200.15 353.95 L 200.28 353.84 L 200.75 352.32 L 200.83 352.32 L 200.92 352.32 L 201.04 352.34 L 201.06 352.34 L 201.11 352.34 L 201.16 352.34 L 201.23 352.34 L 201.29 352.34 L 201.47 352.31 L 201.61 352.31 L 201.74 352.29 L 201.93 352.29 L 202.13 352.28 L 202.34 351.72 L 202.48 351.53 L 202.78 351.53 L 202.78 351.52 L 202.96 351.52 L 217.15 351.52 L 217.42 351.51 L 218.09 351.41 L 218.23 351.40 L 218.34 351.40 L 218.36 351.40 L 218.60 351.40 L 218.77 351.40 L 218.87 351.40 L 218.97 351.40 L 219.03 351.39 L 219.28 351.39 L 219.79 351.42 L 219.92 351.42 L 220.02 351.42 L 220.14 351.42 L 220.80 351.30 L 220.89 351.24 L 220.94 351.24 L 220.98 351.16 L 221.12 351.15 L 221.23 351.15 L 221.71 350.57 L 222.39 350.57 L 222.64 350.57 L 223.40 350.57 L 223.76 346.65 L 223.89 346.65 L 224.05 346.65 L 224.27 346.64 L 224.61 346.64 L 225.09 346.64 L 225.74 346.64 L 225.83 346.64 L 226.30 346.55 L 226.61 346.39 L 226.70 346.39 L 226.89 346.39 L 227.03 346.36 L 228.71 346.12 L 230.30 346.12 L 244.59 346.11 L 244.69 346.11 L 244.77 346.11 L 245.21 346.11 L 246.55 344.88 L 246.60 344.84 L 246.79 344.71 L 247.45 344.71 L 247.76 344.41 L 248.23 344.41 L 248.34 344.41 L 248.44 344.41 L 249.27 340.97 L 249.37 340.97 L 249.55 340.97 L 249.73 340.97 L 249.82 340.75 L 250.28 340.34 L 250.45 340.34 L 250.52 340.34 L 250.63 339.71 L 250.83 339.07 L 250.91 339.07 L 251.12 339.06 L 251.74 333.94 L 251.80 333.94 L 251.86 333.94 L 251.96 333.94 L 252.11 333.94 L 252.17 333.94 L 252.23 333.94 L 252.53 333.94 L 252.60 333.83 L 252.96 333.81 L 253.18 333.74 L 253.31 333.12 L 254.42 322.93 L 254.55 322.93 L 296.53 322.93 L 296.57 322.93 L 312.62 322.93 L 313.49 322.77 L 313.67 322.77 L 313.91 322.77 L 313.98 322.77 L 314.08 322.77 L 321.04 322.69 L 321.96 322.60 L 322.30 322.60 L 322.48 322.56 L 326.81 322.48 L 326.84 322.34 L 327.11 322.34 L 328.41 320.96 L 328.48 320.96 L 328.64 320.96 L 329.10 320.96 L 329.16 320.96 L 329.34 320.96 L 329.54 320.96 L 329.57 320.96 L 343.05 320.94 L 343.15 320.69 L 343.69 320.69 L 343.70 319.03 L 343.79 319.03 L 343.90 319.03 L 344.05 318.87 L 344.28 318.87 L 344.47 318.80 L 344.65 318.80 L 344.72 318.80 L 344.99 318.78 L 345.92 315.95 L 346.30 315.95 L 346.36 315.93 L 346.44 315.93 L 346.49 315.93 L 346.62 315.89 L 347.00 315.54 L 347.06 315.49 L 347.29 312.95 L 347.38 312.94 L 347.41 312.94 L 347.50 312.90 L 347.56 312.90 L 347.61 312.90 L 347.90 311.51 L 348.03 311.50 L 348.20 311.46 L 348.31 307.17 L 348.36 307.16 L 348.65 304.74 L 348.74 304.74 L 348.79 304.74 L 348.87 304.74 L 348.91 304.74 L 348.96 304.74 L 348.97 304.74 L 349.12 300.26 L 349.18 300.26 L 349.32 300.24 L 349.42 300.24 L 349.73 300.15 L 350.10 300.03 L 350.11 300.03 L 350.21 300.00 L 350.56 299.93 L 350.73 299.93 L 350.89 299.93 L 351.06 298.00 L 351.18 298.00 L 351.66 297.99 L 351.70 297.98 L 351.76 297.98 L 351.80 297.98 L 352.11 295.23 L 352.16 295.23 L 352.39 295.21 L 373.14 295.21 L 374.32 295.19 L 374.36 295.19 L 374.59 295.19 L 374.61 295.19 L 374.76 295.19 L 374.88 295.19 L 374.98 295.05 L 375.12 295.05 L 375.16 295.05 L 375.22 295.05 L 375.44 294.80 L 375.89 294.64 L 376.17 294.48 L 376.49 293.70 L 376.50 293.70 L 376.56 293.51 L 376.60 293.48 L 377.21 293.01 L 377.23 293.01 L 377.32 292.94 L 377.59 292.94 L 377.76 292.89 L 377.79 291.75 L 377.81 291.75 L 377.88 292.88 L 377.93 292.81 L 377.95 292.80 L 378.10 291.26 L 378.11 291.26 L 378.44 291.20 L 379.33 291.20 L 379.54 291.20 L 379.60 291.20 L 379.64 291.20 L 379.70 291.20 L 379.82 291.10 L 394.00 289.83 L 394.03 289.83 L 394.15 289.82 L 394.18 289.54 L 394.26 275.94 L 394.42 270.88 L 394.44 270.88 L 394.70 270.79 L 394.76 270.79 L 394.80 270.76 L 395.03 270.76 L 395.64 269.53 L 395.66 269.53 L 395.81 269.46 L 395.87 269.46 L 395.91 269.36 L 396.42 268.62 L 396.43 268.62 L 397.21 268.47 L 397.30 268.41 L 397.58 268.43 L 397.90 266.76 L 397.98 266.59 L 398.04 266.43 L 398.18 265.81 L 398.59 265.65 L 398.66 265.52 L 398.83 265.52 L 399.02 265.52 L 399.62 265.52 L 399.69 265.52 L 399.83 265.52 L 399.84 265.52 L 400.03 265.54 L 400.48 265.54 L 400.94 265.36 L 401.01 265.36 L 401.12 265.34 L 401.25 265.34 L 401.61 265.34 L 402.21 265.34 L 402.40 265.19 L 402.73 260.80 L 404.03 264.94 L 404.32 264.92 L 404.53 264.91 L 404.85 264.91 L 404.95 264.87 L 405.28 264.84 L 405.79 264.59 L 405.86 264.59 L 405.96 264.59 L 406.02 264.59 L 406.07 264.59 L 406.47 264.35 L 415.87 264.35 L 415.96 264.35 L 416.54 264.33 L 416.60 264.33 L 416.73 264.29 L 416.84 263.99 L 416.85 263.98 L 417.18 263.95 L 417.26 263.95 L 419.18 263.70 L 419.41 263.70 L 419.57 263.70 L 419.61 263.70 L 420.20 263.52 L 420.41 263.52 L 420.45 263.52 L 420.77 263.51 L 421.12 262.47 L 421.16 262.47 L 421.45 262.30 L 421.57 262.30 L 421.68 262.30 L 421.93 262.30 L 422.45 262.28 L 422.55 262.25 L 422.64 262.15 L 422.86 261.98 L 423.38 261.82 L 423.84 257.68 L 423.93 257.54 L 424.40 257.34 L 424.48 257.29 L 424.56 257.14 L 424.60 256.85 L 424.77 255.61 L 424.81 255.67 L 424.88 255.64 L 425.15 255.64 L 425.56 255.47 L 425.81 255.40 L 426.10 255.38 L 426.24 255.37 L 426.52 255.35 L 427.00 255.35 L 427.47 255.34 L 427.83 255.34 L 427.91 255.33 L 428.00 255.32 L 428.01 255.32 L 428.29 255.32 L 428.37 255.30 L 428.48 255.15 L 429.25 255.13 L 429.26 255.13 L 429.47 255.11 L 430.37 255.11 L 430.97 254.91 L 431.41 254.73 L 431.42 254.73 L 431.46 254.73 L 444.62 254.72 L 444.66 254.72 L 444.82 254.72 L 444.89 254.72 L 444.93 254.70 L 444.94 254.70 L 445.50 254.70 L 445.63 254.69 L 445.80 254.66 L 446.08 254.63 L 446.26 254.63 L 446.48 254.53 L 446.61 254.53 L 446.67 254.53 L 446.74 254.53 L 446.90 254.15 L 446.92 254.15 L 446.98 254.15 L 447.12 254.15 L 447.21 254.15 L 447.33 254.24 L 447.49 254.24 L 447.82 254.23 L 447.96 254.23 L 448.08 254.23 L 448.89 253.01 L 449.58 252.68 L 450.42 251.81 L 450.63 251.81 L 450.86 251.81 L 451.12 251.81 L 455.96 251.71 L 456.36 251.70 L 502.23 251.55 L 646.65 251.32 L 647.13 251.25 L 647.46 251.24 L 647.79 251.24 L 648.29 250.68 L 648.46 250.68 L 648.59 250.68 L 648.82 248.64 L 649.16 249.03 L 649.43 249.00 L 649.49 249.00 L 649.71 248.98 L 649.76 248.98 L 650.00 248.98"/>
	</g>
	<g id="poloto_plot2" class="poloto_plot poloto_imgs poloto_line poloto2 poloto_stroke" fill="none" stroke="black">
		<path d=" M 150.00 388.88 L 150.04 388.88 L 150.06 388.88 L 150.07 388.88 L 150.10 388.88 L 150.14 386.03 L 150.29 385.64 L 150.65 385.63 L 151.17 385.61 L 151.44 383.91 L 151.97 383.76 L 152.07 383.71 L 152.13 383.67 L 152.76 382.90 L 153.92 382.31 L 154.29 382.20 L 154.39 382.20 L 155.09 382.16 L 155.90 382.16 L 155.91 382.16 L 155.91 382.16 L 166.88 382.16 L 166.95 382.15 L 167.09 382.13 L 167.15 382.13 L 167.57 381.96 L 167.76 381.91 L 168.22 381.63 L 168.29 381.51 L 168.42 381.26 L 168.56 381.22 L 168.60 381.22 L 168.72 381.17 L 168.84 381.17 L 168.96 381.18 L 169.26 380.89 L 169.53 380.63 L 169.58 380.63 L 169.71 380.48 L 170.58 380.13 L 170.60 380.13 L 170.71 380.02 L 171.21 379.64 L 171.61 379.18 L 172.06 378.99 L 172.15 378.99 L 172.16 379.00 L 172.25 378.74 L 172.42 378.74 L 172.64 378.70 L 173.07 378.51 L 173.09 378.18 L 173.17 378.18 L 173.27 378.02 L 173.52 378.02 L 173.55 378.02 L 173.80 377.52 L 173.91 377.49 L 174.00 377.44 L 174.10 377.21 L 175.43 377.07 L 175.75 377.02 L 176.50 376.68 L 176.66 376.68 L 176.77 376.66 L 176.84 376.40 L 177.35 375.01 L 177.58 374.99 L 177.84 374.57 L 177.97 374.53 L 178.28 374.34 L 178.41 374.28 L 178.60 373.98 L 178.77 373.74 L 179.35 373.73 L 179.37 373.70 L 179.40 373.50 L 179.60 372.16 L 189.77 372.02 L 190.82 371.61 L 190.86 371.56 L 192.10 371.23 L 192.21 371.22 L 192.32 370.97 L 192.62 370.81 L 192.76 370.50 L 192.81 370.25 L 192.97 369.75 L 193.34 369.74 L 193.35 369.74 L 193.49 369.38 L 193.62 369.38 L 193.78 369.02 L 193.98 368.73 L 194.06 368.57 L 194.08 368.56 L 194.26 368.23 L 194.29 368.22 L 194.48 367.91 L 194.51 367.90 L 194.80 367.79 L 194.85 367.79 L 194.95 367.68 L 195.08 367.66 L 195.24 367.66 L 195.32 367.63 L 195.89 367.33 L 195.90 367.34 L 196.01 366.74 L 196.26 366.72 L 196.49 366.53 L 196.56 366.53 L 196.67 366.52 L 196.72 366.47 L 196.85 365.64 L 197.49 364.94 L 197.56 364.56 L 197.78 364.53 L 197.84 364.43 L 197.89 364.42 L 198.00 364.24 L 198.10 363.58 L 198.32 363.48 L 198.48 363.46 L 198.61 363.13 L 198.68 363.12 L 199.26 362.88 L 199.57 362.70 L 199.66 362.55 L 199.93 362.54 L 199.95 362.54 L 199.98 362.51 L 200.15 361.32 L 200.28 361.31 L 200.75 361.14 L 200.83 360.66 L 200.92 360.66 L 201.04 360.46 L 201.06 360.35 L 201.11 360.27 L 201.16 360.22 L 201.23 360.22 L 201.29 360.12 L 201.47 358.78 L 201.61 358.65 L 201.74 358.25 L 201.93 358.22 L 202.13 358.09 L 202.34 357.67 L 202.48 356.51 L 202.78 356.42 L 202.78 355.93 L 202.96 355.81 L 217.15 355.81 L 217.42 355.81 L 218.09 355.26 L 218.23 355.26 L 218.34 355.26 L 218.36 355.12 L 218.60 354.88 L 218.77 354.84 L 218.87 354.70 L 218.97 354.60 L 219.03 354.55 L 219.28 354.47 L 219.79 354.58 L 219.92 354.22 L 220.02 354.12 L 220.14 354.11 L 220.80 354.04 L 220.89 353.97 L 220.94 353.97 L 220.98 353.90 L 221.12 353.84 L 221.23 353.71 L 221.71 353.36 L 222.39 353.21 L 222.64 353.15 L 223.40 352.93 L 223.76 352.39 L 223.89 352.30 L 224.05 351.87 L 224.27 351.33 L 224.61 351.18 L 225.09 351.17 L 225.74 351.15 L 225.83 350.95 L 226.30 350.81 L 226.61 350.64 L 226.70 350.50 L 226.89 350.45 L 227.03 350.09 L 228.71 349.91 L 230.30 349.91 L 244.59 349.87 L 244.69 349.67 L 244.77 349.54 L 245.21 349.33 L 246.55 348.97 L 246.60 348.92 L 246.79 348.67 L 247.45 348.56 L 247.76 347.86 L 248.23 347.84 L 248.34 347.82 L 248.44 347.13 L 249.27 346.48 L 249.37 346.47 L 249.55 346.44 L 249.73 346.38 L 249.82 346.14 L 250.28 345.06 L 250.45 344.79 L 250.52 344.77 L 250.63 344.65 L 250.83 344.23 L 250.91 343.15 L 251.12 342.71 L 251.74 342.46 L 251.80 341.91 L 251.86 341.91 L 251.96 341.82 L 252.11 341.67 L 252.17 341.63 L 252.23 341.58 L 252.53 340.32 L 252.60 339.58 L 252.96 339.44 L 253.18 338.18 L 253.31 337.95 L 254.42 335.97 L 254.55 335.94 L 296.53 335.36 L 296.57 335.36 L 312.62 335.20 L 313.49 334.99 L 313.67 334.99 L 313.91 334.89 L 313.98 334.73 L 314.08 334.69 L 321.04 334.67 L 321.96 332.41 L 322.30 332.21 L 322.48 331.43 L 326.81 331.33 L 326.84 331.26 L 327.11 331.24 L 328.41 331.11 L 328.48 330.85 L 328.64 330.75 L 329.10 330.64 L 329.16 330.60 L 329.34 330.17 L 329.54 330.03 L 329.57 329.70 L 343.05 329.27 L 343.15 328.24 L 343.69 327.97 L 343.70 327.58 L 343.79 327.27 L 343.90 326.80 L 344.05 325.55 L 344.28 324.87 L 344.47 323.99 L 344.65 323.98 L 344.72 323.30 L 344.99 323.25 L 345.92 322.61 L 346.30 322.31 L 346.36 322.12 L 346.44 322.12 L 346.49 321.89 L 346.62 321.12 L 347.00 321.04 L 347.06 321.04 L 347.29 320.54 L 347.38 320.54 L 347.41 320.25 L 347.50 320.07 L 347.56 320.06 L 347.61 319.66 L 347.90 319.42 L 348.03 319.02 L 348.20 319.00 L 348.31 318.79 L 348.36 318.48 L 348.65 318.32 L 348.74 318.14 L 348.79 318.14 L 348.87 318.14 L 348.91 317.82 L 348.96 317.84 L 348.97 317.83 L 349.12 317.72 L 349.18 317.37 L 349.32 317.37 L 349.42 317.29 L 349.73 317.26 L 350.10 317.22 L 350.11 317.22 L 350.21 317.20 L 350.56 317.20 L 350.73 317.20 L 350.89 317.20 L 351.06 317.14 L 351.18 316.73 L 351.66 316.73 L 351.70 316.48 L 351.76 316.48 L 351.80 316.20 L 352.11 316.11 L 352.16 316.04 L 352.39 316.04 L 373.14 315.96 L 374.32 315.85 L 374.36 315.85 L 374.59 315.85 L 374.61 315.85 L 374.76 315.36 L 374.88 315.34 L 374.98 315.21 L 375.12 315.13 L 375.16 315.09 L 375.22 315.06 L 375.44 315.02 L 375.89 314.92 L 376.17 314.27 L 376.49 314.23 L 376.50 314.19 L 376.56 313.64 L 376.60 313.64 L 377.21 313.64 L 377.23 313.58 L 377.32 313.08 L 377.59 313.01 L 377.76 312.99 L 377.79 312.98 L 377.81 312.93 L 377.88 312.89 L 377.93 312.37 L 377.95 312.36 L 378.10 312.36 L 378.11 312.31 L 378.44 312.26 L 379.33 312.24 L 379.54 312.20 L 379.60 312.19 L 379.64 312.02 L 379.70 312.02 L 379.82 311.44 L 394.00 311.26 L 394.03 311.09 L 394.15 310.97 L 394.18 310.95 L 394.26 310.46 L 394.42 310.33 L 394.44 310.30 L 394.70 310.30 L 394.76 310.30 L 394.80 309.81 L 395.03 309.75 L 395.64 309.73 L 395.66 309.70 L 395.81 309.43 L 395.87 309.44 L 395.91 308.98 L 396.42 308.98 L 396.43 308.95 L 397.21 308.84 L 397.30 308.29 L 397.58 308.29 L 397.90 308.29 L 397.98 307.89 L 398.04 307.58 L 398.18 307.56 L 398.59 307.50 L 398.66 307.47 L 398.83 307.35 L 399.02 307.35 L 399.62 307.35 L 399.69 307.35 L 399.83 307.32 L 399.84 307.32 L 400.03 307.32 L 400.48 307.28 L 400.94 307.22 L 401.01 307.22 L 401.12 307.17 L 401.25 307.02 L 401.61 307.02 L 402.21 306.84 L 402.40 306.53 L 402.73 306.50 L 404.03 306.17 L 404.32 306.17 L 404.53 306.16 L 404.85 306.15 L 404.95 306.13 L 405.28 305.96 L 405.79 305.94 L 405.86 305.79 L 405.96 305.71 L 406.02 305.73 L 406.07 305.68 L 406.47 305.65 L 415.87 305.64 L 415.96 305.64 L 416.54 305.64 L 416.60 305.62 L 416.73 305.17 L 416.84 305.15 L 416.85 305.15 L 417.18 305.14 L 417.26 305.11 L 419.18 304.44 L 419.41 304.37 L 419.57 304.35 L 419.61 304.35 L 420.20 304.34 L 420.41 304.43 L 420.45 304.42 L 420.77 304.38 L 421.12 303.74 L 421.16 303.73 L 421.45 303.71 L 421.57 303.71 L 421.68 303.71 L 421.93 303.58 L 422.45 303.00 L 422.55 303.00 L 422.64 302.91 L 422.86 302.39 L 423.38 301.80 L 423.84 301.84 L 423.93 301.53 L 424.40 301.53 L 424.48 301.49 L 424.56 301.46 L 424.60 301.15 L 424.77 301.15 L 424.81 301.15 L 424.88 301.15 L 425.15 301.15 L 425.56 300.90 L 425.81 300.87 L 426.10 300.87 L 426.24 300.87 L 426.52 300.87 L 427.00 300.87 L 427.47 300.87 L 427.83 300.87 L 427.91 300.86 L 428.00 300.86 L 428.01 300.75 L 428.29 300.67 L 428.37 300.67 L 428.48 300.66 L 429.25 300.65 L 429.26 300.35 L 429.47 300.35 L 430.37 300.36 L 430.97 300.35 L 431.41 300.28 L 431.42 300.16 L 431.46 300.16 L 444.62 299.96 L 444.66 299.95 L 444.82 299.94 L 444.89 299.75 L 444.93 299.75 L 444.94 299.74 L 445.50 299.69 L 445.63 299.07 L 445.80 298.94 L 446.08 297.73 L 446.26 297.72 L 446.48 297.21 L 446.61 297.27 L 446.67 297.26 L 446.74 296.60 L 446.90 296.49 L 446.92 296.03 L 446.98 295.97 L 447.12 295.92 L 447.21 295.70 L 447.33 298.40 L 447.49 298.36 L 447.82 297.27 L 447.96 297.03 L 448.08 296.79 L 448.89 296.36 L 449.58 295.91 L 450.42 295.27 L 450.63 295.20 L 450.86 295.20 L 451.12 295.14 L 455.96 294.82 L 456.36 294.79 L 502.23 293.95 L 646.65 293.92 L 647.13 293.54 L 647.46 293.48 L 647.79 293.48 L 648.29 293.13 L 648.46 292.73 L 648.59 291.99 L 648.82 291.79 L 649.16 291.86 L 649.43 291.43 L 649.49 291.42 L 649.71 291.29 L 649.76 291.29 L 650.00 290.56"/>
	</g>
	<g class="poloto_legend poloto_imgs poloto_line poloto0 poloto_stroke"><line x1="680" x2="730" y1="81.25" y2="81.25"/></g>
	<g class="poloto_legend poloto_imgs poloto_line poloto1 poloto_stroke"><line x1="680" x2="730" y1="131.25" y2="131.25"/></g>
	<g class="poloto_legend poloto_imgs poloto_line poloto2 poloto_stroke"><line x1="680" x2="730" y1="181.25" y2="181.25"/></g>
	<text class="poloto_legend poloto_text poloto_line poloto0" x="675" y="100">total</text>
	<text class="poloto_legend poloto_text poloto_line poloto1" x="675" y="150">code</text>
	<text class="poloto_legend poloto_text poloto_line poloto2" x="675" y="200">docs</text>
	<text class="poloto_text poloto_name poloto_title" x="400.00" y="37.50">Workspace lines over time</text>
	<text class="poloto_text poloto_name poloto_x" x="400.00" y="640">date (JST)</text>
	<text class="poloto_text poloto_name poloto_y" x="37.50" y="250.00" transform="rotate(-90,37.50,250.00)">lines</text>
	<text class="poloto_text poloto_ticks poloto_y">
		<tspan x="135.00" y="400.00">0</tspan>
		<tspan x="135.00" y="294.31">50K</tspan>
		<tspan x="135.00" y="188.63">100K</tspan>
	</text>
	<g class="poloto_imgs poloto_ticks poloto_y" stroke="black">
		<line x1="150.00" x2="144.00" y1="400.00" y2="400.00"/>
		<line x1="150.00" x2="144.00" y1="294.31" y2="294.31"/>
		<line x1="150.00" x2="144.00" y1="188.63" y2="188.63"/>
	</g>
	<g class="poloto_text poloto_ticks poloto_x">
		<text x="186.28" y="430.00" text-anchor="end" transform="rotate(-90 186.28 430.00)">2026-04-22 04:33</text>
		<text x="244.41" y="430.00" text-anchor="end" transform="rotate(-90 244.41 430.00)">2026-04-24 12:06</text>
		<text x="302.54" y="430.00" text-anchor="end" transform="rotate(-90 302.54 430.00)">2026-04-26 19:40</text>
		<text x="360.67" y="430.00" text-anchor="end" transform="rotate(-90 360.67 430.00)">2026-04-29 03:13</text>
		<text x="418.80" y="430.00" text-anchor="end" transform="rotate(-90 418.80 430.00)">2026-05-01 10:46</text>
		<text x="476.93" y="430.00" text-anchor="end" transform="rotate(-90 476.93 430.00)">2026-05-03 18:20</text>
		<text x="535.06" y="430.00" text-anchor="end" transform="rotate(-90 535.06 430.00)">2026-05-06 01:53</text>
		<text x="593.19" y="430.00" text-anchor="end" transform="rotate(-90 593.19 430.00)">2026-05-08 09:26</text>
	</g>
	<g class="poloto_imgs poloto_ticks poloto_x" stroke="black">
		<line x1="186.28" x2="186.28" y1="400.00" y2="405.00"/>
		<line x1="244.41" x2="244.41" y1="400.00" y2="405.00"/>
		<line x1="302.54" x2="302.54" y1="400.00" y2="405.00"/>
		<line x1="360.67" x2="360.67" y1="400.00" y2="405.00"/>
		<line x1="418.80" x2="418.80" y1="400.00" y2="405.00"/>
		<line x1="476.93" x2="476.93" y1="400.00" y2="405.00"/>
		<line x1="535.06" x2="535.06" y1="400.00" y2="405.00"/>
		<line x1="593.19" x2="593.19" y1="400.00" y2="405.00"/>
	</g>
	<path class="poloto_imgs poloto_ticks poloto_x" stroke="black" style="stroke-dasharray:7.266301220157301;stroke-dashoffset:-36.280060688150115;" d=" M 150.00 400.00 L 650.00 400.00"/>
	<path class="poloto_imgs poloto_ticks poloto_y" stroke="black" style="stroke-dasharray:10.568590150073979;stroke-dashoffset:-0;" d=" M 150.00 400.00 L 150.00 100.00"/>
</svg>

