<svg class="poloto" width="800" height="680" viewBox="0 0 800 680" xmlns="http://www.w3.org/2000/svg">
	<style>
.poloto{
  stroke-linecap:round;
  stroke-linejoin:round;
  font-family:Roboto,sans-serif;
  font-size:16px;
}
.poloto_background{fill:AliceBlue;}
.poloto_scatter{stroke-width:7}
.poloto_line{stroke-width:2}
.poloto_text{fill: black;}
.poloto_name{font-size:24px;dominant-baseline:auto;text-anchor:middle;}
.poloto_where{dominant-baseline:middle;text-anchor:start}
.poloto_text.poloto_legend{font-size:20px;dominant-baseline:middle;text-anchor:start;}
.poloto_text.poloto_ticks.poloto_y{dominant-baseline:middle;text-anchor:end}
.poloto_text.poloto_ticks.poloto_x{dominant-baseline:auto;text-anchor:middle}
.poloto_imgs.poloto_ticks{stroke: black;stroke-width:3;fill:none;stroke-dasharray:none}
.poloto_grid{stroke:gray;stroke-width:0.5}

.poloto0.poloto_stroke{stroke:blue;}
.poloto1.poloto_stroke{stroke:red;}
.poloto2.poloto_stroke{stroke:green;}
.poloto3.poloto_stroke{stroke:gold;}
.poloto4.poloto_stroke{stroke:aqua;}
.poloto5.poloto_stroke{stroke:lime;}
.poloto6.poloto_stroke{stroke:orange;}
.poloto7.poloto_stroke{stroke:chocolate;}
.poloto0.poloto_fill{fill:blue;}
.poloto1.poloto_fill{fill:red;}
.poloto2.poloto_fill{fill:green;}
.poloto3.poloto_fill{fill:gold;}
.poloto4.poloto_fill{fill:aqua;}
.poloto5.poloto_fill{fill:lime;}
.poloto6.poloto_fill{fill:orange;}
.poloto7.poloto_fill{fill:chocolate;}
	</style>
	<circle r="1e5" class="poloto_background" fill="white"/>
	<g id="poloto_plot0" class="poloto_plot poloto_imgs poloto_line poloto0 poloto_stroke" fill="none" stroke="black">
		<path d=" M 150.00 373.69 L 150.02 373.67 L 150.04 373.65 L 150.04 373.65 L 150.06 373.65 L 150.09 370.80 L 150.19 370.45 L 150.42 370.44 L 150.75 370.20 L 150.92 368.75 L 151.27 368.66 L 151.33 368.59 L 151.37 368.55 L 151.77 367.85 L 152.52 367.27 L 152.76 365.03 L 152.82 365.03 L 153.27 364.94 L 153.79 364.93 L 153.80 364.93 L 153.80 364.93 L 160.84 364.93 L 160.89 364.93 L 160.98 364.91 L 161.02 364.89 L 161.29 364.75 L 161.41 364.72 L 161.71 364.51 L 161.75 364.42 L 161.84 364.22 L 161.93 364.19 L 161.95 364.19 L 162.03 364.13 L 162.10 364.13 L 162.18 364.14 L 162.38 363.80 L 162.55 363.60 L 162.58 363.60 L 162.66 363.48 L 163.22 363.99 L 163.23 363.99 L 163.31 363.90 L 163.63 363.52 L 163.88 363.06 L 164.17 362.86 L 164.23 362.82 L 164.24 362.83 L 164.29 362.65 L 164.40 362.65 L 164.54 362.59 L 164.82 362.41 L 164.84 362.15 L 164.89 362.15 L 164.95 362.01 L 165.11 362.01 L 165.13 362.01 L 165.29 361.62 L 165.36 361.60 L 165.42 361.57 L 165.48 361.42 L 166.34 361.21 L 166.55 361.17 L 167.03 360.90 L 167.13 360.90 L 167.20 360.89 L 167.24 360.69 L 167.57 359.56 L 167.72 359.54 L 167.89 359.16 L 167.97 359.12 L 168.17 358.81 L 168.25 358.69 L 168.37 358.49 L 168.48 358.31 L 168.86 355.70 L 168.87 355.64 L 168.89 355.48 L 169.02 354.23 L 175.55 354.13 L 176.23 352.70 L 176.25 352.67 L 177.05 352.44 L 177.12 352.44 L 177.19 352.16 L 177.39 352.01 L 177.48 351.77 L 177.51 351.56 L 177.61 351.18 L 177.84 351.17 L 177.85 350.92 L 177.94 350.64 L 178.03 350.64 L 178.13 350.32 L 178.26 350.10 L 178.31 349.98 L 178.32 349.98 L 178.44 349.73 L 178.45 349.73 L 178.58 349.48 L 178.60 349.48 L 178.79 348.30 L 178.82 348.30 L 178.88 348.10 L 178.96 348.09 L 179.07 348.09 L 179.12 348.06 L 179.48 347.84 L 179.49 347.85 L 179.56 347.33 L 179.72 347.31 L 179.87 346.53 L 179.92 346.46 L 179.99 346.45 L 180.02 346.42 L 180.10 345.81 L 180.51 340.69 L 180.56 340.44 L 180.70 340.42 L 180.74 340.36 L 180.77 340.34 L 180.84 340.20 L 180.90 339.62 L 181.05 339.50 L 181.15 339.49 L 181.23 339.23 L 181.28 339.23 L 181.65 339.04 L 181.85 338.89 L 181.91 338.66 L 182.08 338.65 L 182.09 338.65 L 182.11 338.63 L 182.22 337.40 L 182.31 337.33 L 182.61 336.08 L 182.66 335.72 L 182.72 335.71 L 182.80 335.58 L 182.80 335.48 L 182.84 335.42 L 182.87 335.39 L 182.91 335.39 L 182.95 335.32 L 183.07 334.31 L 183.16 334.16 L 183.25 333.86 L 183.36 333.84 L 183.50 333.74 L 183.63 333.03 L 183.72 332.03 L 183.91 331.97 L 183.91 331.60 L 184.02 331.48 L 193.14 331.48 L 193.32 331.47 L 193.75 330.94 L 193.84 330.93 L 193.91 330.93 L 193.92 330.80 L 194.08 330.63 L 194.19 330.61 L 194.25 330.51 L 194.31 330.44 L 194.35 330.40 L 194.51 330.35 L 194.84 330.29 L 194.93 330.02 L 194.99 329.95 L 195.07 329.94 L 195.49 329.81 L 195.55 329.73 L 195.58 329.73 L 195.60 329.63 L 195.70 329.58 L 195.77 329.48 L 196.07 328.81 L 196.51 328.71 L 196.67 328.66 L 197.16 328.50 L 197.39 325.27 L 197.47 325.21 L 197.57 324.89 L 197.72 324.47 L 197.94 324.35 L 198.25 324.34 L 198.66 324.33 L 198.72 324.18 L 199.03 324.03 L 199.22 323.80 L 199.28 323.71 L 199.40 323.67 L 199.49 323.38 L 200.57 323.07 L 201.60 323.07 L 210.78 323.04 L 210.84 322.90 L 210.89 322.81 L 211.17 322.67 L 212.03 321.56 L 212.07 321.49 L 212.19 321.20 L 212.61 321.13 L 212.81 320.38 L 213.11 320.37 L 213.18 320.36 L 213.25 319.84 L 213.78 316.91 L 213.85 316.91 L 213.96 316.88 L 214.08 316.85 L 214.13 316.53 L 214.43 315.42 L 214.54 315.22 L 214.59 315.20 L 214.65 314.69 L 214.79 313.97 L 214.84 313.21 L 214.97 312.87 L 215.37 309.06 L 215.41 308.68 L 215.45 308.68 L 215.51 308.61 L 215.61 308.51 L 215.64 308.48 L 215.68 308.43 L 215.87 307.52 L 215.92 306.88 L 216.15 306.75 L 216.29 305.79 L 216.38 305.19 L 217.09 296.31 L 217.17 296.28 L 244.15 295.86 L 244.17 295.86 L 254.48 295.74 L 255.04 295.49 L 255.16 295.49 L 255.31 295.43 L 255.36 295.31 L 255.42 295.28 L 259.89 295.22 L 260.48 293.53 L 260.70 293.38 L 260.82 292.76 L 263.60 292.63 L 263.62 292.46 L 263.79 292.45 L 264.63 291.38 L 264.68 291.19 L 264.78 291.12 L 265.07 291.04 L 265.11 291.02 L 265.23 290.70 L 265.35 290.61 L 265.37 290.37 L 274.04 290.05 L 274.10 289.14 L 274.45 288.94 L 274.45 287.41 L 274.51 287.19 L 274.58 286.81 L 274.68 285.76 L 274.83 285.21 L 274.95 284.55 L 275.06 284.55 L 275.11 284.05 L 275.28 284.01 L 275.88 281.55 L 276.12 281.29 L 276.16 281.14 L 276.21 281.13 L 276.25 280.96 L 276.33 280.36 L 276.57 280.07 L 276.61 280.03 L 276.76 277.87 L 276.82 277.87 L 276.84 277.63 L 276.89 277.46 L 276.93 277.45 L 276.96 277.13 L 277.15 275.96 L 277.24 275.63 L 277.34 275.59 L 277.42 272.47 L 277.45 272.21 L 277.64 270.43 L 277.69 270.29 L 277.72 270.29 L 277.77 270.29 L 277.80 270.03 L 277.83 270.04 L 277.84 270.04 L 277.94 266.89 L 277.97 266.61 L 278.06 266.60 L 278.13 266.54 L 278.33 266.45 L 278.56 266.33 L 278.57 266.33 L 278.64 266.29 L 278.86 266.23 L 278.97 266.23 L 279.07 266.23 L 279.18 264.86 L 279.26 264.53 L 279.56 264.53 L 279.59 264.31 L 279.63 264.30 L 279.65 264.07 L 279.86 262.08 L 279.89 262.04 L 280.04 262.02 L 293.37 261.97 L 294.13 261.86 L 294.15 261.86 L 294.30 261.86 L 294.31 261.86 L 294.41 261.47 L 294.48 261.45 L 294.55 261.26 L 294.64 261.21 L 294.67 261.18 L 294.70 261.17 L 294.84 260.94 L 295.13 260.75 L 295.32 260.11 L 295.52 259.50 L 295.53 259.47 L 295.56 258.90 L 295.59 258.88 L 295.99 258.54 L 295.99 258.50 L 296.05 258.05 L 296.23 258.00 L 296.33 257.96 L 296.36 257.15 L 296.37 257.11 L 296.41 257.88 L 296.44 257.41 L 296.46 257.39 L 296.56 256.31 L 296.56 256.28 L 296.77 256.19 L 297.34 256.18 L 297.48 256.14 L 297.52 256.13 L 297.55 255.99 L 297.58 255.99 L 297.66 255.46 L 306.77 254.43 L 306.79 254.29 L 306.86 254.19 L 306.89 253.99 L 306.94 245.00 L 307.04 241.32 L 307.05 241.30 L 307.22 241.23 L 307.26 241.23 L 307.29 240.81 L 307.43 240.77 L 307.83 239.90 L 307.84 239.88 L 307.94 239.61 L 307.98 239.62 L 308.00 239.18 L 308.33 238.67 L 308.34 238.65 L 308.83 238.45 L 308.89 237.99 L 309.07 238.00 L 309.28 236.84 L 309.33 236.38 L 309.36 236.02 L 309.46 235.57 L 309.72 235.41 L 309.76 235.30 L 309.88 235.20 L 310.00 235.20 L 310.38 235.20 L 310.43 235.20 L 310.51 235.18 L 310.52 235.17 L 310.65 235.19 L 310.93 235.16 L 311.23 234.99 L 311.28 234.99 L 311.34 234.93 L 311.43 234.80 L 311.66 234.80 L 312.04 234.64 L 312.17 234.28 L 312.38 231.18 L 313.22 233.80 L 313.40 233.79 L 313.53 233.78 L 313.74 233.77 L 313.81 233.73 L 314.02 233.58 L 314.35 233.36 L 314.39 233.22 L 314.45 233.16 L 314.49 233.18 L 314.52 233.13 L 314.78 232.94 L 320.82 232.94 L 320.88 232.94 L 321.25 232.93 L 321.29 232.91 L 321.37 232.52 L 321.44 232.30 L 321.45 232.30 L 321.66 232.26 L 321.71 232.24 L 322.95 231.66 L 323.09 231.61 L 323.20 231.60 L 323.22 231.59 L 323.61 231.45 L 323.74 231.53 L 323.76 231.52 L 323.97 231.48 L 324.19 230.26 L 324.22 230.25 L 324.41 230.11 L 324.49 230.11 L 324.56 230.11 L 324.71 229.97 L 325.05 229.48 L 325.11 229.46 L 325.18 229.32 L 325.31 228.74 L 325.64 228.13 L 325.94 225.28 L 326.00 224.93 L 326.30 224.80 L 326.36 224.72 L 326.40 224.59 L 326.43 224.13 L 326.54 223.31 L 326.56 223.34 L 326.61 223.32 L 326.78 223.32 L 327.05 223.02 L 327.21 222.96 L 327.40 222.95 L 327.48 222.94 L 327.67 222.93 L 327.97 222.93 L 328.27 222.92 L 328.51 222.92 L 328.56 222.91 L 328.62 222.90 L 328.62 222.80 L 328.80 222.74 L 328.85 222.73 L 328.92 222.61 L 329.42 222.59 L 329.43 222.34 L 329.56 222.33 L 330.14 222.34 L 330.53 222.19 L 330.80 222.00 L 330.81 221.90 L 330.84 221.90 L 339.29 221.73 L 339.32 221.73 L 339.42 221.72 L 339.47 221.58 L 339.50 221.56 L 339.50 221.55 L 339.86 221.51 L 339.94 221.00 L 340.05 220.88 L 340.23 219.87 L 340.35 219.85 L 340.49 219.42 L 340.57 219.48 L 340.61 219.47 L 340.65 218.98 L 340.76 218.64 L 340.77 218.28 L 340.81 218.23 L 340.90 218.20 L 340.96 218.03 L 341.04 219.98 L 341.14 219.94 L 341.35 219.17 L 341.44 218.97 L 341.52 218.81 L 342.04 217.70 L 342.48 217.16 L 343.02 216.13 L 343.16 216.08 L 343.31 216.08 L 343.47 216.04 L 346.58 215.75 L 346.84 215.72 L 376.31 214.94 L 469.10 214.75 L 469.41 214.44 L 469.62 214.40 L 469.83 214.40 L 470.15 213.79 L 470.26 213.50 L 470.35 212.96 L 470.50 211.39 L 470.71 211.71 L 470.88 211.38 L 470.92 211.37 L 471.07 211.27 L 471.10 211.27 L 471.25 210.69 L 471.39 209.78 L 471.81 208.80 L 471.82 208.72 L 471.94 207.56 L 472.34 204.68 L 472.35 204.59 L 472.43 204.52 L 472.53 203.49 L 472.96 202.11 L 472.97 201.98 L 473.06 201.92 L 473.16 201.24 L 473.32 200.70 L 473.33 200.60 L 473.40 199.54 L 473.42 199.52 L 473.45 199.22 L 473.64 197.35 L 473.66 197.24 L 473.72 197.13 L 473.92 196.88 L 473.96 196.88 L 474.11 196.52 L 474.37 196.56 L 474.41 196.51 L 474.45 196.49 L 474.49 196.46 L 474.62 195.36 L 474.76 194.46 L 474.78 194.38 L 474.85 193.26 L 474.93 192.17 L 474.95 192.03 L 475.03 190.75 L 475.07 189.74 L 475.23 189.06 L 475.25 189.01 L 475.33 188.80 L 475.44 188.78 L 476.11 188.75 L 476.44 188.72 L 483.69 188.77 L 483.76 188.57 L 483.84 188.40 L 483.96 187.65 L 484.23 187.45 L 484.25 187.38 L 484.30 186.38 L 484.48 185.41 L 484.50 185.33 L 486.08 185.27 L 486.17 184.72 L 486.97 184.56 L 487.06 184.52 L 487.15 183.40 L 488.11 182.34 L 488.52 181.94 L 488.63 181.11 L 488.97 179.70 L 489.19 179.29 L 489.54 178.46 L 490.18 178.04 L 499.88 178.03 L 500.46 177.94 L 500.49 177.96 L 501.30 177.79 L 501.34 177.71 L 501.62 177.65 L 501.95 176.73 L 501.96 176.73 L 501.99 176.69 L 502.42 175.64 L 503.42 175.04 L 503.49 174.98 L 503.59 174.98 L 503.74 174.70 L 503.78 174.62 L 503.84 174.57 L 504.30 174.53 L 504.68 174.53 L 504.88 174.53 L 504.90 174.49 L 505.32 173.57 L 505.64 173.40 L 505.65 173.33 L 505.69 173.25 L 505.73 173.01 L 516.26 172.65 L 516.28 172.64 L 516.31 172.62 L 516.52 172.52 L 516.68 172.41 L 517.60 170.99 L 517.83 170.82 L 518.50 170.40 L 519.08 170.30 L 519.50 170.16 L 519.62 168.86 L 520.16 167.33 L 520.35 167.22 L 520.42 166.23 L 521.98 164.42 L 521.99 164.42 L 522.08 163.98 L 522.38 163.93 L 522.38 163.93 L 522.40 163.82 L 522.45 163.68 L 522.58 163.54 L 522.75 162.78 L 524.37 160.94 L 524.58 160.72 L 524.72 160.39 L 524.75 160.35 L 524.78 160.10 L 531.95 159.27 L 532.18 158.64 L 532.32 158.61 L 532.37 158.19 L 533.04 158.00 L 533.18 157.58 L 533.31 157.58 L 533.39 156.70 L 533.61 154.47 L 533.65 154.43 L 533.95 154.39 L 534.02 153.66 L 534.28 152.79 L 534.33 152.18 L 534.55 151.62 L 534.70 151.33 L 534.82 150.66 L 535.09 150.09 L 535.12 149.45 L 535.47 149.31 L 535.50 149.31 L 535.56 148.50 L 535.63 148.50 L 535.66 148.43 L 536.06 146.91 L 536.64 146.42 L 536.93 146.58 L 537.88 146.51 L 537.90 146.50 L 538.05 146.49 L 538.11 146.47 L 538.22 146.37 L 538.34 146.28 L 538.47 146.11 L 538.75 145.89 L 539.02 145.88 L 539.87 145.72 L 539.91 145.71 L 540.76 145.57 L 541.12 145.48 L 548.38 145.46 L 548.74 145.35 L 548.92 145.28 L 549.00 145.28 L 549.03 145.28 L 549.21 145.25 L 549.29 145.21 L 549.51 145.06 L 549.64 145.03 L 550.11 144.88 L 550.35 144.54 L 550.76 144.49 L 550.88 144.27 L 551.01 144.13 L 551.19 143.96 L 551.82 144.00 L 551.88 143.99 L 552.79 143.57 L 552.94 143.32 L 553.12 143.23 L 553.56 143.03 L 553.77 143.09 L 553.87 143.42 L 553.96 143.40 L 554.09 143.26 L 554.47 142.26 L 554.88 142.16 L 555.25 142.08 L 555.29 142.03 L 555.33 141.75 L 581.57 141.68 L 581.75 141.55 L 596.84 141.23 L 596.92 141.59 L 597.04 140.07 L 597.06 140.07 L 597.10 140.10 L 597.64 137.00 L 597.70 136.98 L 598.37 137.04 L 599.04 136.85 L 599.28 136.56 L 599.70 136.18 L 600.26 135.94 L 600.28 135.94 L 600.35 135.88 L 600.57 135.82 L 600.64 135.67 L 601.19 134.92 L 601.89 134.76 L 601.97 134.61 L 602.32 134.54 L 602.43 135.14 L 602.70 134.92 L 602.92 134.87 L 603.38 134.71 L 603.82 134.63 L 604.04 134.30 L 604.05 134.30 L 613.50 134.29 L 616.46 133.44 L 616.58 133.03 L 616.73 132.64 L 617.21 132.62 L 617.41 132.49 L 617.56 130.49 L 617.66 129.20 L 617.88 129.08 L 617.91 129.06 L 618.24 128.68 L 618.35 128.48 L 618.41 128.38 L 618.59 128.06 L 618.65 128.04 L 618.74 128.00 L 618.81 127.81 L 618.89 127.59 L 618.99 127.48 L 619.05 127.44 L 619.36 127.35 L 619.51 127.13 L 619.63 127.01 L 619.67 126.37 L 620.02 126.25 L 620.15 125.88 L 629.06 125.97 L 629.71 125.74 L 629.82 125.74 L 630.22 124.99 L 630.40 124.90 L 631.14 123.70 L 631.46 123.58 L 631.89 122.48 L 631.95 122.48 L 632.20 122.46 L 632.29 121.83 L 632.63 120.95 L 633.15 120.43 L 633.32 119.80 L 636.46 118.20 L 636.76 117.73 L 636.78 117.73 L 645.14 116.23 L 645.14 116.23 L 645.25 116.17 L 645.35 115.36 L 645.73 114.41 L 645.76 114.40 L 646.22 114.28 L 646.89 114.16 L 647.65 114.12 L 647.71 114.06 L 647.78 114.01 L 647.91 114.01 L 648.13 113.88 L 648.23 113.81 L 648.34 113.80 L 648.48 113.66 L 649.62 113.13 L 649.74 112.31 L 650.00 100.00"/>
	</g>
	<g id="poloto_plot1" class="poloto_plot poloto_imgs poloto_line poloto1 poloto_stroke" fill="none" stroke="black">
		<path d=" M 150.00 384.37 L 150.02 384.35 L 150.04 384.34 L 150.04 384.34 L 150.06 384.34 L 150.09 383.85 L 150.19 383.83 L 150.42 383.82 L 150.75 383.63 L 150.92 383.55 L 151.27 383.57 L 151.33 383.54 L 151.37 383.54 L 151.77 383.50 L 152.52 383.41 L 152.76 381.47 L 152.82 381.47 L 153.27 381.43 L 153.79 381.42 L 153.80 381.42 L 153.80 381.42 L 160.84 381.42 L 160.89 381.42 L 160.98 381.42 L 161.02 381.39 L 161.29 381.38 L 161.41 381.38 L 161.71 381.38 L 161.75 381.38 L 161.84 381.37 L 161.93 381.37 L 161.95 381.37 L 162.03 381.34 L 162.10 381.34 L 162.18 381.34 L 162.38 381.24 L 162.55 381.24 L 162.58 381.24 L 162.66 381.24 L 163.22 381.96 L 163.23 381.96 L 163.31 381.95 L 163.63 381.84 L 163.88 381.72 L 164.17 381.67 L 164.23 381.63 L 164.24 381.63 L 164.29 381.63 L 164.40 381.63 L 164.54 381.58 L 164.82 381.54 L 164.84 381.54 L 164.89 381.54 L 164.95 381.52 L 165.11 381.52 L 165.13 381.52 L 165.29 381.52 L 165.36 381.52 L 165.42 381.52 L 165.48 381.52 L 166.34 381.43 L 166.55 381.42 L 167.03 381.39 L 167.13 381.39 L 167.20 381.39 L 167.24 381.39 L 167.57 381.33 L 167.72 381.33 L 167.89 381.26 L 167.97 381.25 L 168.17 381.09 L 168.25 381.03 L 168.37 381.03 L 168.48 381.03 L 168.86 378.77 L 168.87 378.74 L 168.89 378.74 L 169.02 378.52 L 175.55 378.52 L 176.23 377.54 L 176.25 377.54 L 177.05 377.54 L 177.12 377.54 L 177.19 377.44 L 177.39 377.42 L 177.48 377.42 L 177.51 377.42 L 177.61 377.42 L 177.84 377.42 L 177.85 377.21 L 177.94 377.20 L 178.03 377.20 L 178.13 377.18 L 178.26 377.17 L 178.31 377.17 L 178.32 377.17 L 178.44 377.17 L 178.45 377.17 L 178.58 377.17 L 178.60 377.17 L 178.79 376.22 L 178.82 376.22 L 178.88 376.10 L 178.96 376.10 L 179.07 376.10 L 179.12 376.09 L 179.48 376.09 L 179.49 376.09 L 179.56 376.03 L 179.72 376.03 L 179.87 375.48 L 179.92 375.41 L 179.99 375.41 L 180.02 375.41 L 180.10 375.40 L 180.51 371.36 L 180.56 371.39 L 180.70 371.39 L 180.74 371.39 L 180.77 371.39 L 180.84 371.39 L 180.90 371.33 L 181.05 371.33 L 181.15 371.33 L 181.23 371.32 L 181.28 371.32 L 181.65 371.32 L 181.85 371.31 L 181.91 371.21 L 182.08 371.21 L 182.09 371.21 L 182.11 371.21 L 182.22 370.94 L 182.31 370.87 L 182.61 369.91 L 182.66 369.91 L 182.72 369.91 L 182.80 369.93 L 182.80 369.93 L 182.84 369.93 L 182.87 369.93 L 182.91 369.93 L 182.95 369.93 L 183.07 369.91 L 183.16 369.91 L 183.25 369.90 L 183.36 369.90 L 183.50 369.89 L 183.63 369.53 L 183.72 369.41 L 183.91 369.41 L 183.91 369.41 L 184.02 369.41 L 193.14 369.41 L 193.32 369.40 L 193.75 369.34 L 193.84 369.33 L 193.91 369.33 L 193.92 369.33 L 194.08 369.33 L 194.19 369.33 L 194.25 369.33 L 194.31 369.33 L 194.35 369.33 L 194.51 369.33 L 194.84 369.35 L 194.93 369.35 L 194.99 369.35 L 195.07 369.35 L 195.49 369.27 L 195.55 369.23 L 195.58 369.23 L 195.60 369.18 L 195.70 369.18 L 195.77 369.18 L 196.07 368.81 L 196.51 368.81 L 196.67 368.81 L 197.16 368.81 L 197.39 366.34 L 197.47 366.33 L 197.57 366.33 L 197.72 366.33 L 197.94 366.33 L 198.25 366.33 L 198.66 366.33 L 198.72 366.33 L 199.03 366.27 L 199.22 366.17 L 199.28 366.17 L 199.40 366.17 L 199.49 366.15 L 200.57 366.00 L 201.60 366.00 L 210.78 366.00 L 210.84 366.00 L 210.89 366.00 L 211.17 366.00 L 212.03 365.22 L 212.07 365.19 L 212.19 365.11 L 212.61 365.11 L 212.81 364.92 L 213.11 364.92 L 213.18 364.92 L 213.25 364.92 L 213.78 362.75 L 213.85 362.75 L 213.96 362.75 L 214.08 362.75 L 214.13 362.62 L 214.43 362.35 L 214.54 362.35 L 214.59 362.35 L 214.65 361.95 L 214.79 361.55 L 214.84 361.55 L 214.97 361.55 L 215.37 358.32 L 215.41 358.32 L 215.45 358.32 L 215.51 358.32 L 215.61 358.32 L 215.64 358.32 L 215.68 358.32 L 215.87 358.32 L 215.92 358.25 L 216.15 358.23 L 216.29 358.19 L 216.38 357.80 L 217.09 351.37 L 217.17 351.37 L 244.15 351.37 L 244.17 351.37 L 254.48 351.37 L 255.04 351.27 L 255.16 351.27 L 255.31 351.27 L 255.36 351.27 L 255.42 351.27 L 259.89 351.22 L 260.48 351.16 L 260.70 351.16 L 260.82 351.14 L 263.60 351.08 L 263.62 351.00 L 263.79 351.00 L 264.63 350.12 L 264.68 350.12 L 264.78 350.12 L 265.07 350.12 L 265.11 350.12 L 265.23 350.12 L 265.35 350.12 L 265.37 350.12 L 274.04 350.11 L 274.10 349.96 L 274.45 349.96 L 274.45 348.90 L 274.51 348.90 L 274.58 348.90 L 274.68 348.81 L 274.83 348.81 L 274.95 348.76 L 275.06 348.76 L 275.11 348.76 L 275.28 348.75 L 275.88 346.97 L 276.12 346.96 L 276.16 346.95 L 276.21 346.95 L 276.25 346.95 L 276.33 346.92 L 276.57 346.70 L 276.61 346.67 L 276.76 345.07 L 276.82 345.06 L 276.84 345.06 L 276.89 345.04 L 276.93 345.04 L 276.96 345.04 L 277.15 344.16 L 277.24 344.15 L 277.34 344.13 L 277.42 341.42 L 277.45 341.42 L 277.64 339.89 L 277.69 339.89 L 277.72 339.89 L 277.77 339.89 L 277.80 339.89 L 277.83 339.89 L 277.84 339.89 L 277.94 337.06 L 277.97 337.06 L 278.06 337.05 L 278.13 337.05 L 278.33 336.99 L 278.56 336.92 L 278.57 336.92 L 278.64 336.90 L 278.86 336.85 L 278.97 336.85 L 279.07 336.85 L 279.18 335.64 L 279.26 335.64 L 279.56 335.63 L 279.59 335.63 L 279.63 335.63 L 279.65 335.63 L 279.86 333.89 L 279.89 333.89 L 280.04 333.87 L 293.37 333.87 L 294.13 333.86 L 294.15 333.86 L 294.30 333.86 L 294.31 333.86 L 294.41 333.86 L 294.48 333.86 L 294.55 333.78 L 294.64 333.78 L 294.67 333.78 L 294.70 333.78 L 294.84 333.62 L 295.13 333.52 L 295.32 333.42 L 295.52 332.92 L 295.53 332.92 L 295.56 332.80 L 295.59 332.79 L 295.99 332.49 L 295.99 332.49 L 296.05 332.44 L 296.23 332.44 L 296.33 332.41 L 296.36 331.69 L 296.37 331.69 L 296.41 332.40 L 296.44 332.36 L 296.46 332.35 L 296.56 331.39 L 296.56 331.39 L 296.77 331.35 L 297.34 331.35 L 297.48 331.35 L 297.52 331.35 L 297.55 331.35 L 297.58 331.35 L 297.66 331.28 L 306.77 330.48 L 306.79 330.48 L 306.86 330.47 L 306.89 330.30 L 306.94 321.72 L 307.04 318.52 L 307.05 318.52 L 307.22 318.46 L 307.26 318.46 L 307.29 318.45 L 307.43 318.45 L 307.83 317.67 L 307.84 317.67 L 307.94 317.63 L 307.98 317.63 L 308.00 317.56 L 308.33 317.10 L 308.34 317.10 L 308.83 317.00 L 308.89 316.97 L 309.07 316.98 L 309.28 315.92 L 309.33 315.81 L 309.36 315.72 L 309.46 315.32 L 309.72 315.22 L 309.76 315.14 L 309.88 315.14 L 310.00 315.14 L 310.38 315.14 L 310.43 315.14 L 310.51 315.14 L 310.52 315.14 L 310.65 315.15 L 310.93 315.15 L 311.23 315.04 L 311.28 315.04 L 311.34 315.03 L 311.43 315.03 L 311.66 315.03 L 312.04 315.03 L 312.17 314.93 L 312.38 312.16 L 313.22 314.78 L 313.40 314.77 L 313.53 314.76 L 313.74 314.76 L 313.81 314.73 L 314.02 314.71 L 314.35 314.55 L 314.39 314.55 L 314.45 314.55 L 314.49 314.55 L 314.52 314.55 L 314.78 314.40 L 320.82 314.40 L 320.88 314.40 L 321.25 314.39 L 321.29 314.39 L 321.37 314.36 L 321.44 314.17 L 321.45 314.17 L 321.66 314.15 L 321.71 314.15 L 322.95 313.99 L 323.09 313.99 L 323.20 313.99 L 323.22 313.99 L 323.61 313.88 L 323.74 313.88 L 323.76 313.88 L 323.97 313.87 L 324.19 313.22 L 324.22 313.22 L 324.41 313.11 L 324.49 313.11 L 324.56 313.11 L 324.71 313.11 L 325.05 313.10 L 325.11 313.08 L 325.18 313.02 L 325.31 312.91 L 325.64 312.80 L 325.94 310.19 L 326.00 310.10 L 326.30 309.98 L 326.36 309.95 L 326.40 309.86 L 326.43 309.67 L 326.54 308.89 L 326.56 308.92 L 326.61 308.91 L 326.78 308.90 L 327.05 308.80 L 327.21 308.76 L 327.40 308.74 L 327.48 308.73 L 327.67 308.72 L 327.97 308.72 L 328.27 308.72 L 328.51 308.72 L 328.56 308.71 L 328.62 308.71 L 328.62 308.70 L 328.80 308.70 L 328.85 308.69 L 328.92 308.59 L 329.42 308.58 L 329.43 308.58 L 329.56 308.57 L 330.14 308.57 L 330.53 308.44 L 330.80 308.33 L 330.81 308.33 L 330.84 308.33 L 339.29 308.33 L 339.32 308.33 L 339.42 308.33 L 339.47 308.33 L 339.50 308.31 L 339.50 308.31 L 339.86 308.31 L 339.94 308.30 L 340.05 308.29 L 340.23 308.27 L 340.35 308.27 L 340.49 308.21 L 340.57 308.21 L 340.61 308.21 L 340.65 308.21 L 340.76 307.97 L 340.77 307.97 L 340.81 307.97 L 340.90 307.97 L 340.96 307.97 L 341.04 308.03 L 341.14 308.03 L 341.35 308.01 L 341.44 308.01 L 341.52 308.01 L 342.04 307.25 L 342.48 307.04 L 343.02 306.49 L 343.16 306.49 L 343.31 306.49 L 343.47 306.49 L 346.58 306.42 L 346.84 306.42 L 376.31 306.32 L 469.10 306.18 L 469.41 306.14 L 469.62 306.13 L 469.83 306.13 L 470.15 305.78 L 470.26 305.78 L 470.35 305.78 L 470.50 304.49 L 470.71 304.73 L 470.88 304.72 L 470.92 304.72 L 471.07 304.71 L 471.10 304.71 L 471.25 304.70 L 471.39 304.64 L 471.81 303.83 L 471.82 303.83 L 471.94 303.76 L 472.34 301.12 L 472.35 301.12 L 472.43 301.12 L 472.53 301.08 L 472.96 299.85 L 472.97 299.85 L 473.06 299.85 L 473.16 299.82 L 473.32 299.37 L 473.33 299.37 L 473.40 299.37 L 473.42 299.37 L 473.45 299.12 L 473.64 297.38 L 473.66 297.38 L 473.72 297.38 L 473.92 297.23 L 473.96 297.23 L 474.11 296.94 L 474.37 296.94 L 474.41 296.94 L 474.45 296.94 L 474.49 296.94 L 474.62 296.93 L 474.76 296.15 L 474.78 296.15 L 474.85 296.15 L 474.93 295.55 L 474.95 295.55 L 475.03 294.92 L 475.07 294.88 L 475.23 294.26 L 475.25 294.26 L 475.33 294.26 L 475.44 294.25 L 476.11 294.25 L 476.44 294.24 L 483.69 294.24 L 483.76 294.24 L 483.84 294.24 L 483.96 294.24 L 484.23 294.08 L 484.25 294.08 L 484.30 294.02 L 484.48 293.15 L 484.50 293.15 L 486.08 293.17 L 486.17 293.00 L 486.97 293.00 L 487.06 292.99 L 487.15 292.93 L 488.11 292.21 L 488.52 292.08 L 488.63 292.03 L 488.97 290.67 L 489.19 290.67 L 489.54 290.56 L 490.18 290.56 L 499.88 290.55 L 500.46 290.47 L 500.49 290.49 L 501.30 290.49 L 501.34 290.49 L 501.62 290.49 L 501.95 290.46 L 501.96 290.46 L 501.99 290.46 L 502.42 289.66 L 503.42 289.64 L 503.49 289.64 L 503.59 289.64 L 503.74 289.61 L 503.78 289.58 L 503.84 289.58 L 504.30 289.54 L 504.68 289.54 L 504.88 289.54 L 504.90 289.54 L 505.32 289.53 L 505.64 289.43 L 505.65 289.43 L 505.69 289.43 L 505.73 289.43 L 516.26 289.25 L 516.28 289.25 L 516.31 289.25 L 516.52 289.25 L 516.68 289.25 L 517.60 288.46 L 517.83 288.41 L 518.50 288.35 L 519.08 288.31 L 519.50 288.31 L 519.62 288.31 L 520.16 287.13 L 520.35 287.09 L 520.42 287.05 L 521.98 286.22 L 521.99 286.22 L 522.08 286.21 L 522.38 286.20 L 522.38 286.20 L 522.40 286.20 L 522.45 286.17 L 522.58 286.14 L 522.75 286.05 L 524.37 284.67 L 524.58 284.60 L 524.72 284.60 L 524.75 284.60 L 524.78 284.60 L 531.95 284.60 L 532.18 284.59 L 532.32 284.59 L 532.37 284.59 L 533.04 284.59 L 533.18 284.59 L 533.31 284.59 L 533.39 284.56 L 533.61 282.76 L 533.65 282.75 L 533.95 282.76 L 534.02 282.74 L 534.28 282.04 L 534.33 282.00 L 534.55 281.55 L 534.70 281.55 L 534.82 281.51 L 535.09 281.09 L 535.12 281.08 L 535.47 279.75 L 535.50 279.75 L 535.56 279.74 L 535.63 279.74 L 535.66 279.74 L 536.06 278.39 L 536.64 278.27 L 536.93 278.27 L 537.88 278.24 L 537.90 278.24 L 538.05 278.24 L 538.11 278.24 L 538.22 278.24 L 538.34 278.24 L 538.47 278.22 L 538.75 278.20 L 539.02 278.20 L 539.87 278.14 L 539.91 278.14 L 540.76 278.11 L 541.12 278.07 L 548.38 278.09 L 548.74 278.02 L 548.92 277.95 L 549.00 277.95 L 549.03 277.95 L 549.21 277.94 L 549.29 277.94 L 549.51 277.94 L 549.64 277.94 L 550.11 277.81 L 550.35 277.57 L 550.76 277.55 L 550.88 277.39 L 551.01 277.32 L 551.19 277.24 L 551.82 277.32 L 551.88 277.32 L 552.79 277.07 L 552.94 277.07 L 553.12 277.07 L 553.56 277.04 L 553.77 277.17 L 553.87 277.17 L 553.96 277.17 L 554.09 277.17 L 554.47 276.58 L 554.88 276.57 L 555.25 276.57 L 555.29 276.57 L 555.33 276.57 L 581.57 276.57 L 581.75 276.53 L 596.84 276.33 L 596.92 276.33 L 597.04 276.28 L 597.06 276.28 L 597.10 276.28 L 597.64 274.05 L 597.70 274.05 L 598.37 274.05 L 599.04 273.95 L 599.28 273.72 L 599.70 273.44 L 600.26 273.36 L 600.28 273.36 L 600.35 273.32 L 600.57 273.32 L 600.64 273.27 L 601.19 272.67 L 601.89 272.57 L 601.97 272.57 L 602.32 272.57 L 602.43 272.57 L 602.70 272.42 L 602.92 272.40 L 603.38 272.27 L 603.82 272.20 L 604.04 272.20 L 604.05 272.20 L 613.50 272.20 L 616.46 272.16 L 616.58 272.14 L 616.73 271.87 L 617.21 271.88 L 617.41 271.88 L 617.56 271.88 L 617.66 271.77 L 617.88 271.69 L 617.91 271.68 L 618.24 271.47 L 618.35 271.32 L 618.41 271.27 L 618.59 271.17 L 618.65 271.16 L 618.74 271.15 L 618.81 271.02 L 618.89 270.88 L 618.99 270.85 L 619.05 270.85 L 619.36 270.80 L 619.51 270.69 L 619.63 270.60 L 619.67 270.60 L 620.02 270.60 L 620.15 270.60 L 629.06 270.62 L 629.71 270.61 L 629.82 270.61 L 630.22 270.23 L 630.40 270.17 L 631.14 270.14 L 631.46 270.14 L 631.89 269.24 L 631.95 269.24 L 632.20 269.22 L 632.29 269.21 L 632.63 269.16 L 633.15 268.73 L 633.32 268.72 L 636.46 267.74 L 636.76 267.74 L 636.78 267.74 L 645.14 267.73 L 645.14 267.73 L 645.25 267.73 L 645.35 267.61 L 645.73 266.77 L 645.76 266.77 L 646.22 266.77 L 646.89 266.77 L 647.65 266.77 L 647.71 266.77 L 647.78 266.77 L 647.91 266.77 L 648.13 266.65 L 648.23 266.65 L 648.34 266.65 L 648.48 266.52 L 649.62 266.39 L 649.74 266.38 L 650.00 254.62"/>
	</g>
	<g id="poloto_plot2" class="poloto_plot poloto_imgs poloto_line poloto2 poloto_stroke" fill="none" stroke="black">
		<path d=" M 150.00 392.99 L 150.02 392.98 L 150.04 392.98 L 150.04 392.98 L 150.06 392.98 L 150.09 391.18 L 150.19 390.94 L 150.42 390.93 L 150.75 390.92 L 150.92 389.85 L 151.27 389.75 L 151.33 389.72 L 151.37 389.70 L 151.77 389.21 L 152.52 388.84 L 152.76 388.77 L 152.82 388.77 L 153.27 388.74 L 153.79 388.74 L 153.80 388.74 L 153.80 388.74 L 160.84 388.74 L 160.89 388.74 L 160.98 388.72 L 161.02 388.72 L 161.29 388.61 L 161.41 388.58 L 161.71 388.41 L 161.75 388.33 L 161.84 388.17 L 161.93 388.15 L 161.95 388.15 L 162.03 388.12 L 162.10 388.12 L 162.18 388.12 L 162.38 387.94 L 162.55 387.77 L 162.58 387.78 L 162.66 387.68 L 163.22 387.46 L 163.23 387.46 L 163.31 387.39 L 163.63 387.16 L 163.88 386.86 L 164.17 386.74 L 164.23 386.74 L 164.24 386.75 L 164.29 386.58 L 164.40 386.58 L 164.54 386.56 L 164.82 386.44 L 164.84 386.23 L 164.89 386.23 L 164.95 386.13 L 165.11 386.13 L 165.13 386.13 L 165.29 385.81 L 165.36 385.79 L 165.42 385.77 L 165.48 385.62 L 166.34 385.53 L 166.55 385.50 L 167.03 385.28 L 167.13 385.29 L 167.20 385.27 L 167.24 385.11 L 167.57 384.23 L 167.72 384.22 L 167.89 383.95 L 167.97 383.93 L 168.17 383.81 L 168.25 383.77 L 168.37 383.58 L 168.48 383.43 L 168.86 383.43 L 168.87 383.41 L 168.89 383.28 L 169.02 382.43 L 175.55 382.34 L 176.23 382.09 L 176.25 382.06 L 177.05 381.84 L 177.12 381.84 L 177.19 381.68 L 177.39 381.58 L 177.48 381.38 L 177.51 381.22 L 177.61 380.91 L 177.84 380.90 L 177.85 380.90 L 177.94 380.68 L 178.03 380.68 L 178.13 380.45 L 178.26 380.27 L 178.31 380.17 L 178.32 380.16 L 178.44 379.95 L 178.45 379.95 L 178.58 379.75 L 178.60 379.74 L 178.79 379.68 L 178.82 379.68 L 178.88 379.60 L 178.96 379.59 L 179.07 379.59 L 179.12 379.58 L 179.48 379.39 L 179.49 379.39 L 179.56 379.01 L 179.72 379.00 L 179.87 378.88 L 179.92 378.88 L 179.99 378.88 L 180.02 378.84 L 180.10 378.32 L 180.51 377.88 L 180.56 377.64 L 180.70 377.62 L 180.74 377.56 L 180.77 377.55 L 180.84 377.43 L 180.90 377.02 L 181.05 376.96 L 181.15 376.95 L 181.23 376.74 L 181.28 376.73 L 181.65 376.58 L 181.85 376.47 L 181.91 376.37 L 182.08 376.36 L 182.09 376.36 L 182.11 376.34 L 182.22 375.59 L 182.31 375.58 L 182.61 375.48 L 182.66 375.18 L 182.72 375.17 L 182.80 375.05 L 182.80 374.98 L 182.84 374.93 L 182.87 374.90 L 182.91 374.90 L 182.95 374.84 L 183.07 373.99 L 183.16 373.91 L 183.25 373.65 L 183.36 373.64 L 183.50 373.55 L 183.63 373.29 L 183.72 372.56 L 183.91 372.50 L 183.91 372.19 L 184.02 372.11 L 193.14 372.12 L 193.32 372.11 L 193.75 371.77 L 193.84 371.77 L 193.91 371.77 L 193.92 371.68 L 194.08 371.53 L 194.19 371.50 L 194.25 371.41 L 194.31 371.35 L 194.35 371.32 L 194.51 371.27 L 194.84 371.34 L 194.93 371.11 L 194.99 371.05 L 195.07 371.04 L 195.49 371.00 L 195.55 370.96 L 195.58 370.96 L 195.60 370.91 L 195.70 370.87 L 195.77 370.79 L 196.07 370.57 L 196.51 370.48 L 196.67 370.44 L 197.16 370.30 L 197.39 369.96 L 197.47 369.90 L 197.57 369.63 L 197.72 369.29 L 197.94 369.20 L 198.25 369.19 L 198.66 369.17 L 198.72 369.05 L 199.03 368.96 L 199.22 368.85 L 199.28 368.77 L 199.40 368.73 L 199.49 368.50 L 200.57 368.39 L 201.60 368.39 L 210.78 368.37 L 210.84 368.24 L 210.89 368.16 L 211.17 368.03 L 212.03 367.80 L 212.07 367.77 L 212.19 367.61 L 212.61 367.54 L 212.81 367.10 L 213.11 367.09 L 213.18 367.07 L 213.25 366.64 L 213.78 366.23 L 213.85 366.22 L 213.96 366.20 L 214.08 366.16 L 214.13 366.01 L 214.43 365.33 L 214.54 365.16 L 214.59 365.15 L 214.65 365.07 L 214.79 364.81 L 214.84 364.13 L 214.97 363.85 L 215.37 363.69 L 215.41 363.35 L 215.45 363.35 L 215.51 363.28 L 215.61 363.19 L 215.64 363.17 L 215.68 363.13 L 215.87 362.34 L 215.92 361.87 L 216.15 361.78 L 216.29 360.99 L 216.38 360.84 L 217.09 359.60 L 217.17 359.58 L 244.15 359.21 L 244.17 359.21 L 254.48 359.11 L 255.04 358.98 L 255.16 358.98 L 255.31 358.91 L 255.36 358.81 L 255.42 358.79 L 259.89 358.78 L 260.48 357.35 L 260.70 357.23 L 260.82 356.73 L 263.60 356.67 L 263.62 356.62 L 263.79 356.61 L 264.63 356.53 L 264.68 356.36 L 264.78 356.30 L 265.07 356.23 L 265.11 356.21 L 265.23 355.93 L 265.35 355.85 L 265.37 355.64 L 274.04 355.37 L 274.10 354.72 L 274.45 354.55 L 274.45 354.30 L 274.51 354.11 L 274.58 353.81 L 274.68 353.02 L 274.83 352.59 L 274.95 352.03 L 275.06 352.03 L 275.11 351.60 L 275.28 351.57 L 275.88 351.16 L 276.12 350.97 L 276.16 350.86 L 276.21 350.85 L 276.25 350.71 L 276.33 350.23 L 276.57 350.18 L 276.61 350.17 L 276.76 349.86 L 276.82 349.86 L 276.84 349.68 L 276.89 349.56 L 276.93 349.56 L 276.96 349.30 L 277.15 349.15 L 277.24 348.90 L 277.34 348.89 L 277.42 348.75 L 277.45 348.56 L 277.64 348.46 L 277.69 348.34 L 277.72 348.34 L 277.77 348.34 L 277.80 348.14 L 277.83 348.15 L 277.84 348.15 L 277.94 348.08 L 277.97 347.86 L 278.06 347.86 L 278.13 347.81 L 278.33 347.79 L 278.56 347.77 L 278.57 347.77 L 278.64 347.75 L 278.86 347.75 L 278.97 347.75 L 279.07 347.75 L 279.18 347.72 L 279.26 347.46 L 279.56 347.45 L 279.59 347.30 L 279.63 347.30 L 279.65 347.12 L 279.86 347.06 L 279.89 347.02 L 280.04 347.02 L 293.37 346.97 L 294.13 346.90 L 294.15 346.90 L 294.30 346.90 L 294.31 346.90 L 294.41 346.59 L 294.48 346.58 L 294.55 346.49 L 294.64 346.45 L 294.67 346.42 L 294.70 346.40 L 294.84 346.38 L 295.13 346.31 L 295.32 345.90 L 295.52 345.88 L 295.53 345.85 L 295.56 345.51 L 295.59 345.50 L 295.99 345.50 L 295.99 345.47 L 296.05 345.15 L 296.23 345.11 L 296.33 345.10 L 296.36 345.09 L 296.37 345.05 L 296.41 345.03 L 296.44 344.70 L 296.46 344.70 L 296.56 344.70 L 296.56 344.67 L 296.77 344.64 L 297.34 344.62 L 297.48 344.60 L 297.52 344.59 L 297.55 344.48 L 297.58 344.48 L 297.66 344.12 L 306.77 344.00 L 306.79 343.90 L 306.86 343.82 L 306.89 343.81 L 306.94 343.50 L 307.04 343.42 L 307.05 343.40 L 307.22 343.40 L 307.26 343.40 L 307.29 343.09 L 307.43 343.05 L 307.83 343.04 L 307.84 343.02 L 307.94 342.85 L 307.98 342.85 L 308.00 342.56 L 308.33 342.56 L 308.34 342.55 L 308.83 342.48 L 308.89 342.13 L 309.07 342.13 L 309.28 342.13 L 309.33 341.87 L 309.36 341.68 L 309.46 341.67 L 309.72 341.63 L 309.76 341.61 L 309.88 341.53 L 310.00 341.53 L 310.38 341.53 L 310.43 341.53 L 310.51 341.52 L 310.52 341.51 L 310.65 341.51 L 310.93 341.49 L 311.23 341.46 L 311.28 341.46 L 311.34 341.42 L 311.43 341.33 L 311.66 341.33 L 312.04 341.21 L 312.17 341.02 L 312.38 341.00 L 313.22 340.79 L 313.40 340.79 L 313.53 340.78 L 313.74 340.78 L 313.81 340.76 L 314.02 340.66 L 314.35 340.64 L 314.39 340.55 L 314.45 340.50 L 314.49 340.51 L 314.52 340.48 L 314.78 340.46 L 320.82 340.46 L 320.88 340.46 L 321.25 340.46 L 321.29 340.45 L 321.37 340.16 L 321.44 340.15 L 321.45 340.15 L 321.66 340.14 L 321.71 340.12 L 322.95 339.70 L 323.09 339.66 L 323.20 339.65 L 323.22 339.64 L 323.61 339.63 L 323.74 339.69 L 323.76 339.69 L 323.97 339.66 L 324.19 339.26 L 324.22 339.25 L 324.41 339.24 L 324.49 339.24 L 324.56 339.24 L 324.71 339.16 L 325.05 338.79 L 325.11 338.79 L 325.18 338.74 L 325.31 338.40 L 325.64 338.04 L 325.94 338.06 L 326.00 337.86 L 326.30 337.86 L 326.36 337.84 L 326.40 337.82 L 326.43 337.63 L 326.54 337.62 L 326.56 337.62 L 326.61 337.62 L 326.78 337.62 L 327.05 337.46 L 327.21 337.45 L 327.40 337.45 L 327.48 337.45 L 327.67 337.45 L 327.97 337.45 L 328.27 337.45 L 328.51 337.45 L 328.56 337.44 L 328.62 337.44 L 328.62 337.37 L 328.80 337.32 L 328.85 337.32 L 328.92 337.31 L 329.42 337.31 L 329.43 337.12 L 329.56 337.12 L 330.14 337.12 L 330.53 337.12 L 330.80 337.08 L 330.81 337.00 L 330.84 337.00 L 339.29 336.87 L 339.32 336.87 L 339.42 336.86 L 339.47 336.74 L 339.50 336.74 L 339.50 336.74 L 339.86 336.70 L 339.94 336.31 L 340.05 336.23 L 340.23 335.47 L 340.35 335.46 L 340.49 335.13 L 340.57 335.17 L 340.61 335.17 L 340.65 334.75 L 340.76 334.68 L 340.77 334.40 L 340.81 334.35 L 340.90 334.33 L 340.96 334.18 L 341.04 335.89 L 341.14 335.86 L 341.35 335.18 L 341.44 335.03 L 341.52 334.87 L 342.04 334.60 L 342.48 334.31 L 343.02 333.91 L 343.16 333.87 L 343.31 333.87 L 343.47 333.83 L 346.58 333.63 L 346.84 333.61 L 376.31 333.08 L 469.10 333.06 L 469.41 332.82 L 469.62 332.78 L 469.83 332.78 L 470.15 332.56 L 470.26 332.31 L 470.35 331.84 L 470.50 331.72 L 470.71 331.76 L 470.88 331.49 L 470.92 331.48 L 471.07 331.40 L 471.10 331.40 L 471.25 330.94 L 471.39 330.24 L 471.81 330.18 L 471.82 330.10 L 471.94 329.20 L 472.34 329.17 L 472.35 329.08 L 472.43 329.02 L 472.53 328.21 L 472.96 328.16 L 472.97 328.05 L 473.06 327.99 L 473.16 327.45 L 473.32 327.44 L 473.33 327.35 L 473.40 326.46 L 473.42 326.43 L 473.45 326.41 L 473.64 326.41 L 473.66 326.31 L 473.72 326.25 L 473.92 326.16 L 473.96 326.16 L 474.11 326.11 L 474.37 326.15 L 474.41 326.11 L 474.45 326.09 L 474.49 326.06 L 474.62 325.13 L 474.76 325.11 L 474.78 325.03 L 474.85 324.08 L 474.93 323.74 L 474.95 323.61 L 475.03 323.15 L 475.07 322.35 L 475.23 322.34 L 475.25 322.29 L 475.33 322.13 L 475.44 322.12 L 476.11 322.10 L 476.44 322.08 L 483.69 322.11 L 483.76 321.93 L 483.84 321.80 L 483.96 321.15 L 484.23 321.14 L 484.25 321.08 L 484.30 320.27 L 484.48 320.26 L 484.50 320.18 L 486.08 320.10 L 486.17 319.81 L 486.97 319.67 L 487.06 319.64 L 487.15 318.74 L 488.11 318.48 L 488.52 318.26 L 488.63 317.59 L 488.97 317.59 L 489.19 317.21 L 489.54 316.63 L 490.18 316.28 L 499.88 316.27 L 500.46 316.26 L 500.49 316.26 L 501.30 316.13 L 501.34 316.06 L 501.62 316.01 L 501.95 315.25 L 501.96 315.25 L 501.99 315.22 L 502.42 315.06 L 503.42 314.56 L 503.49 314.51 L 503.59 314.50 L 503.74 314.29 L 503.78 314.26 L 503.84 314.22 L 504.30 314.21 L 504.68 314.21 L 504.88 314.21 L 504.90 314.18 L 505.32 313.41 L 505.64 313.34 L 505.65 313.28 L 505.69 313.21 L 505.73 313.02 L 516.26 312.88 L 516.28 312.86 L 516.31 312.85 L 516.52 312.75 L 516.68 312.66 L 517.60 312.23 L 517.83 312.14 L 518.50 311.81 L 519.08 311.76 L 519.50 311.62 L 519.62 310.49 L 520.16 310.30 L 520.35 310.24 L 520.42 309.43 L 521.98 308.65 L 521.99 308.65 L 522.08 308.28 L 522.38 308.25 L 522.38 308.25 L 522.40 308.16 L 522.45 308.06 L 522.58 307.98 L 522.75 307.42 L 524.37 307.13 L 524.58 307.00 L 524.72 306.69 L 524.75 306.66 L 524.78 306.47 L 531.95 305.76 L 532.18 305.24 L 532.32 305.22 L 532.37 304.88 L 533.04 304.74 L 533.18 304.37 L 533.31 304.37 L 533.39 303.61 L 533.61 303.43 L 533.65 303.41 L 533.95 303.36 L 534.02 302.74 L 534.28 302.66 L 534.33 302.17 L 534.55 302.12 L 534.70 301.84 L 534.82 301.29 L 535.09 301.18 L 535.12 300.62 L 535.47 301.89 L 535.50 301.89 L 535.56 301.17 L 535.63 301.17 L 535.66 301.11 L 536.06 301.04 L 536.64 300.74 L 536.93 300.90 L 537.88 300.87 L 537.90 300.87 L 538.05 300.86 L 538.11 300.84 L 538.22 300.74 L 538.34 300.65 L 538.47 300.52 L 538.75 300.34 L 539.02 300.33 L 539.87 300.25 L 539.91 300.24 L 540.76 300.14 L 541.12 300.09 L 548.38 300.06 L 548.74 300.02 L 548.92 300.02 L 549.00 300.02 L 549.03 300.02 L 549.21 300.00 L 549.29 299.98 L 549.51 299.85 L 549.64 299.83 L 550.11 299.82 L 550.35 299.75 L 550.76 299.72 L 550.88 299.69 L 551.01 299.63 L 551.19 299.55 L 551.82 299.52 L 551.88 299.51 L 552.79 299.37 L 552.94 299.14 L 553.12 299.06 L 553.56 298.93 L 553.77 298.85 L 553.87 299.17 L 553.96 299.16 L 554.09 299.04 L 554.47 298.75 L 554.88 298.67 L 555.25 298.61 L 555.29 298.57 L 555.33 298.35 L 581.57 298.31 L 581.75 298.25 L 596.84 298.19 L 596.92 298.50 L 597.04 297.23 L 597.06 297.23 L 597.10 297.27 L 597.64 296.78 L 597.70 296.75 L 598.37 296.80 L 599.04 296.75 L 599.28 296.71 L 599.70 296.66 L 600.26 296.52 L 600.28 296.52 L 600.35 296.50 L 600.57 296.46 L 600.64 296.36 L 601.19 296.29 L 601.89 296.25 L 601.97 296.12 L 602.32 296.05 L 602.43 296.61 L 602.70 296.57 L 602.92 296.54 L 603.38 296.51 L 603.82 296.51 L 604.04 296.25 L 604.05 296.25 L 613.50 296.23 L 616.46 295.56 L 616.58 295.22 L 616.73 295.14 L 617.21 295.11 L 617.41 294.99 L 617.56 293.29 L 617.66 292.38 L 617.88 292.34 L 617.91 292.33 L 618.24 292.20 L 618.35 292.16 L 618.41 292.11 L 618.59 291.91 L 618.65 291.89 L 618.74 291.87 L 618.81 291.82 L 618.89 291.77 L 618.99 291.69 L 619.05 291.65 L 619.36 291.62 L 619.51 291.53 L 619.63 291.50 L 619.67 290.95 L 620.02 290.83 L 620.15 290.53 L 629.06 290.59 L 629.71 290.41 L 629.82 290.41 L 630.22 290.08 L 630.40 290.05 L 631.14 289.04 L 631.46 288.95 L 631.89 288.82 L 631.95 288.82 L 632.20 288.81 L 632.29 288.29 L 632.63 287.59 L 633.15 287.52 L 633.32 286.98 L 636.46 286.60 L 636.76 286.21 L 636.78 286.21 L 645.14 284.89 L 645.14 284.89 L 645.25 284.83 L 645.35 284.25 L 645.73 284.20 L 645.76 284.19 L 646.22 284.09 L 646.89 283.97 L 647.65 283.93 L 647.71 283.87 L 647.78 283.83 L 647.91 283.83 L 648.13 283.83 L 648.23 283.76 L 648.34 283.76 L 648.48 283.76 L 649.62 283.45 L 649.74 282.73 L 650.00 282.59"/>
	</g>
	<g class="poloto_legend poloto_imgs poloto_line poloto0 poloto_stroke"><line x1="680" x2="730" y1="81.25" y2="81.25"/></g>
	<g class="poloto_legend poloto_imgs poloto_line poloto1 poloto_stroke"><line x1="680" x2="730" y1="131.25" y2="131.25"/></g>
	<g class="poloto_legend poloto_imgs poloto_line poloto2 poloto_stroke"><line x1="680" x2="730" y1="181.25" y2="181.25"/></g>
	<text class="poloto_legend poloto_text poloto_line poloto0" x="675" y="100">total</text>
	<text class="poloto_legend poloto_text poloto_line poloto1" x="675" y="150">code</text>
	<text class="poloto_legend poloto_text poloto_line poloto2" x="675" y="200">docs</text>
	<text class="poloto_text poloto_name poloto_title" x="400.00" y="37.50">Workspace lines over time</text>
	<text class="poloto_text poloto_name poloto_x" x="400.00" y="640">date (JST)</text>
	<text class="poloto_text poloto_name poloto_y" x="37.50" y="250.00" transform="rotate(-90,37.50,250.00)">lines</text>
	<text class="poloto_text poloto_ticks poloto_y">
		<tspan x="135.00" y="400.00">0</tspan>
		<tspan x="135.00" y="333.31">50K</tspan>
		<tspan x="135.00" y="266.62">100K</tspan>
		<tspan x="135.00" y="199.93">150K</tspan>
		<tspan x="135.00" y="133.24">200K</tspan>
	</text>
	<g class="poloto_imgs poloto_ticks poloto_y" stroke="black">
		<line x1="150.00" x2="144.00" y1="400.00" y2="400.00"/>
		<line x1="150.00" x2="144.00" y1="333.31" y2="333.31"/>
		<line x1="150.00" x2="144.00" y1="266.62" y2="266.62"/>
		<line x1="150.00" x2="144.00" y1="199.93" y2="199.93"/>
		<line x1="150.00" x2="144.00" y1="133.24" y2="133.24"/>
	</g>
	<g class="poloto_text poloto_ticks poloto_x">
		<text x="210.66" y="430.00" text-anchor="end" transform="rotate(-90 210.66 430.00)">2026-04-24 12:06</text>
		<text x="304.03" y="430.00" text-anchor="end" transform="rotate(-90 304.03 430.00)">2026-04-30 07:00</text>
		<text x="397.40" y="430.00" text-anchor="end" transform="rotate(-90 397.40 430.00)">2026-05-06 01:53</text>
		<text x="490.78" y="430.00" text-anchor="end" transform="rotate(-90 490.78 430.00)">2026-05-11 20:46</text>
		<text x="584.15" y="430.00" text-anchor="end" transform="rotate(-90 584.15 430.00)">2026-05-17 15:40</text>
	</g>
	<g class="poloto_imgs poloto_ticks poloto_x" stroke="black">
		<line x1="210.66" x2="210.66" y1="400.00" y2="405.00"/>
		<line x1="304.03" x2="304.03" y1="400.00" y2="405.00"/>
		<line x1="397.40" x2="397.40" y1="400.00" y2="405.00"/>
		<line x1="490.78" x2="490.78" y1="400.00" y2="405.00"/>
		<line x1="584.15" x2="584.15" y1="400.00" y2="405.00"/>
	</g>
	<path class="poloto_imgs poloto_ticks poloto_x" stroke="black" style="stroke-dasharray:9.337239038174742;stroke-dashoffset:-60.658999921928626;" d=" M 150.00 400.00 L 650.00 400.00"/>
	<path class="poloto_imgs poloto_ticks poloto_y" stroke="black" style="stroke-dasharray:6.668978579240803;stroke-dashoffset:-0;" d=" M 150.00 400.00 L 150.00 100.00"/>
</svg>

