<svg class="poloto" width="800" height="680" viewBox="0 0 800 680" xmlns="http://www.w3.org/2000/svg">
	<style>
.poloto{
  stroke-linecap:round;
  stroke-linejoin:round;
  font-family:Roboto,sans-serif;
  font-size:16px;
}
.poloto_background{fill:AliceBlue;}
.poloto_scatter{stroke-width:7}
.poloto_line{stroke-width:2}
.poloto_text{fill: black;}
.poloto_name{font-size:24px;dominant-baseline:auto;text-anchor:middle;}
.poloto_where{dominant-baseline:middle;text-anchor:start}
.poloto_text.poloto_legend{font-size:20px;dominant-baseline:middle;text-anchor:start;}
.poloto_text.poloto_ticks.poloto_y{dominant-baseline:middle;text-anchor:end}
.poloto_text.poloto_ticks.poloto_x{dominant-baseline:auto;text-anchor:middle}
.poloto_imgs.poloto_ticks{stroke: black;stroke-width:3;fill:none;stroke-dasharray:none}
.poloto_grid{stroke:gray;stroke-width:0.5}

.poloto0.poloto_stroke{stroke:blue;}
.poloto1.poloto_stroke{stroke:red;}
.poloto2.poloto_stroke{stroke:green;}
.poloto3.poloto_stroke{stroke:gold;}
.poloto4.poloto_stroke{stroke:aqua;}
.poloto5.poloto_stroke{stroke:lime;}
.poloto6.poloto_stroke{stroke:orange;}
.poloto7.poloto_stroke{stroke:chocolate;}
.poloto0.poloto_fill{fill:blue;}
.poloto1.poloto_fill{fill:red;}
.poloto2.poloto_fill{fill:green;}
.poloto3.poloto_fill{fill:gold;}
.poloto4.poloto_fill{fill:aqua;}
.poloto5.poloto_fill{fill:lime;}
.poloto6.poloto_fill{fill:orange;}
.poloto7.poloto_fill{fill:chocolate;}
	</style>
	<circle r="1e5" class="poloto_background" fill="white"/>
	<g id="poloto_plot0" class="poloto_plot poloto_imgs poloto_line poloto0 poloto_stroke" fill="none" stroke="black">
		<path d=" M 150.00 360.69 L 150.04 360.66 L 150.06 360.63 L 150.07 360.63 L 150.10 360.63 L 150.14 356.37 L 150.29 355.85 L 150.64 355.83 L 151.16 355.48 L 151.43 353.31 L 151.96 353.18 L 152.05 353.06 L 152.12 353.01 L 152.74 351.96 L 153.90 351.10 L 154.26 347.75 L 154.36 347.75 L 155.06 347.62 L 155.86 347.60 L 155.87 347.60 L 155.87 347.60 L 166.76 347.60 L 166.84 347.60 L 166.98 347.57 L 167.04 347.53 L 167.45 347.34 L 167.64 347.28 L 168.10 346.98 L 168.16 346.84 L 168.30 346.54 L 168.44 346.49 L 168.48 346.49 L 168.59 346.41 L 168.71 346.41 L 168.83 346.41 L 169.13 345.92 L 169.40 345.61 L 169.45 345.61 L 169.58 345.43 L 170.44 346.19 L 170.46 346.19 L 170.57 346.07 L 171.06 345.50 L 171.46 344.81 L 171.91 344.51 L 172.00 344.45 L 172.01 344.46 L 172.10 344.19 L 172.27 344.19 L 172.48 344.10 L 172.91 343.84 L 172.94 343.44 L 173.01 343.44 L 173.12 343.23 L 173.36 343.23 L 173.39 343.23 L 173.64 342.66 L 173.74 342.63 L 173.83 342.58 L 173.94 342.35 L 175.26 342.04 L 175.58 341.98 L 176.32 341.57 L 176.48 341.58 L 176.59 341.56 L 176.65 341.27 L 177.16 339.57 L 177.39 339.54 L 177.65 338.97 L 177.78 338.92 L 178.09 338.45 L 178.22 338.28 L 178.40 337.98 L 178.57 337.71 L 179.16 333.81 L 179.17 333.71 L 179.20 333.48 L 179.40 331.60 L 189.50 331.47 L 190.54 329.33 L 190.58 329.28 L 191.81 328.94 L 191.92 328.93 L 192.03 328.51 L 192.33 328.30 L 192.47 327.93 L 192.52 327.61 L 192.68 327.05 L 193.04 327.04 L 193.05 326.67 L 193.19 326.25 L 193.33 326.24 L 193.48 325.77 L 193.68 325.43 L 193.76 325.27 L 193.78 325.26 L 193.96 324.89 L 193.98 324.88 L 194.18 324.52 L 194.21 324.51 L 194.50 322.75 L 194.55 322.75 L 194.65 322.45 L 194.77 322.44 L 194.94 322.44 L 195.01 322.40 L 195.57 322.07 L 195.59 322.08 L 195.70 321.30 L 195.95 321.28 L 196.17 320.10 L 196.24 320.00 L 196.35 319.99 L 196.40 319.94 L 196.53 319.04 L 197.17 311.38 L 197.24 311.01 L 197.45 310.97 L 197.52 310.88 L 197.57 310.86 L 197.67 310.65 L 197.77 309.78 L 197.99 309.61 L 198.15 309.59 L 198.28 309.21 L 198.35 309.19 L 198.92 308.91 L 199.23 308.69 L 199.32 308.35 L 199.59 308.34 L 199.61 308.34 L 199.64 308.30 L 199.80 306.46 L 199.94 306.35 L 200.41 304.50 L 200.48 303.96 L 200.57 303.94 L 200.70 303.75 L 200.71 303.60 L 200.76 303.51 L 200.81 303.46 L 200.88 303.46 L 200.94 303.36 L 201.12 301.84 L 201.26 301.62 L 201.39 301.17 L 201.57 301.14 L 201.78 301.00 L 201.98 299.93 L 202.12 298.44 L 202.42 298.35 L 202.42 297.80 L 202.59 297.62 L 216.69 297.62 L 216.96 297.60 L 217.63 296.81 L 217.76 296.79 L 217.87 296.79 L 217.90 296.60 L 218.14 296.35 L 218.30 296.31 L 218.40 296.17 L 218.50 296.06 L 218.56 296.01 L 218.81 295.94 L 219.32 295.84 L 219.45 295.44 L 219.54 295.34 L 219.66 295.32 L 220.32 295.12 L 220.41 295.00 L 220.45 295.00 L 220.49 294.85 L 220.64 294.78 L 220.75 294.63 L 221.22 293.63 L 221.90 293.48 L 222.15 293.41 L 222.90 293.16 L 223.26 288.35 L 223.39 288.24 L 223.54 287.77 L 223.76 287.14 L 224.10 286.96 L 224.58 286.94 L 225.22 286.93 L 225.32 286.72 L 225.78 286.49 L 226.08 286.15 L 226.18 286.00 L 226.36 285.95 L 226.50 285.52 L 228.17 285.05 L 229.76 285.05 L 243.95 285.01 L 244.05 284.80 L 244.12 284.66 L 244.56 284.46 L 245.89 282.80 L 245.95 282.69 L 246.13 282.26 L 246.78 282.15 L 247.09 281.03 L 247.56 281.02 L 247.67 281.00 L 247.77 280.23 L 248.60 275.85 L 248.70 275.85 L 248.87 275.81 L 249.05 275.75 L 249.14 275.28 L 249.60 273.63 L 249.76 273.32 L 249.84 273.30 L 249.94 272.54 L 250.15 271.46 L 250.23 270.32 L 250.43 269.81 L 251.05 264.12 L 251.11 263.55 L 251.17 263.55 L 251.26 263.44 L 251.41 263.30 L 251.47 263.25 L 251.53 263.19 L 251.83 261.82 L 251.90 260.86 L 252.26 260.67 L 252.47 259.23 L 252.61 258.33 L 253.71 245.06 L 253.84 245.03 L 295.53 244.39 L 295.57 244.39 L 311.51 244.21 L 312.38 243.85 L 312.56 243.85 L 312.79 243.75 L 312.87 243.58 L 312.96 243.53 L 319.87 243.44 L 320.79 240.91 L 321.12 240.69 L 321.30 239.76 L 325.61 239.57 L 325.64 239.32 L 325.90 239.29 L 327.19 237.70 L 327.27 237.41 L 327.43 237.31 L 327.88 237.20 L 327.94 237.16 L 328.12 236.68 L 328.31 236.55 L 328.34 236.20 L 341.74 235.71 L 341.84 234.35 L 342.37 234.05 L 342.38 231.77 L 342.47 231.44 L 342.58 230.88 L 342.73 229.31 L 342.96 228.48 L 343.15 227.50 L 343.32 227.49 L 343.39 226.75 L 343.66 226.68 L 344.59 223.02 L 344.96 222.63 L 345.03 222.40 L 345.10 222.39 L 345.15 222.13 L 345.28 221.23 L 345.66 220.80 L 345.71 220.75 L 345.94 217.52 L 346.03 217.51 L 346.07 217.16 L 346.15 216.90 L 346.21 216.90 L 346.26 216.41 L 346.56 214.67 L 346.68 214.17 L 346.85 214.11 L 346.96 209.44 L 347.01 209.07 L 347.30 206.40 L 347.38 206.20 L 347.44 206.19 L 347.51 206.18 L 347.56 205.81 L 347.60 205.82 L 347.62 205.81 L 347.77 201.10 L 347.82 200.69 L 347.96 200.67 L 348.07 200.59 L 348.37 200.45 L 348.74 200.27 L 348.75 200.27 L 348.85 200.22 L 349.19 200.13 L 349.36 200.13 L 349.52 200.13 L 349.69 198.08 L 349.81 197.58 L 350.28 197.58 L 350.32 197.25 L 350.38 197.25 L 350.42 196.90 L 350.73 193.93 L 350.78 193.86 L 351.01 193.84 L 371.62 193.75 L 372.79 193.60 L 372.83 193.60 L 373.06 193.60 L 373.08 193.60 L 373.23 193.01 L 373.34 192.98 L 373.44 192.70 L 373.59 192.62 L 373.63 192.58 L 373.68 192.56 L 373.90 192.22 L 374.35 191.93 L 374.63 190.98 L 374.95 190.07 L 374.96 190.02 L 375.01 189.17 L 375.05 189.14 L 375.67 188.64 L 375.68 188.58 L 375.77 187.90 L 376.04 187.83 L 376.21 187.77 L 376.24 186.56 L 376.25 186.50 L 376.33 187.65 L 376.37 186.94 L 376.40 186.92 L 376.55 185.31 L 376.56 185.26 L 376.88 185.13 L 377.76 185.11 L 377.97 185.05 L 378.04 185.04 L 378.08 184.83 L 378.13 184.83 L 378.26 184.03 L 392.34 182.49 L 392.36 182.28 L 392.48 182.14 L 392.52 181.84 L 392.60 168.41 L 392.75 162.91 L 392.77 162.88 L 393.03 162.77 L 393.09 162.77 L 393.13 162.14 L 393.36 162.08 L 393.97 160.77 L 393.99 160.75 L 394.14 160.35 L 394.20 160.36 L 394.23 159.71 L 394.74 158.94 L 394.76 158.92 L 395.53 158.62 L 395.62 157.93 L 395.89 157.95 L 396.21 156.21 L 396.29 155.53 L 396.35 154.98 L 396.49 154.31 L 396.89 154.07 L 396.96 153.90 L 397.14 153.75 L 397.33 153.75 L 397.92 153.76 L 397.99 153.76 L 398.13 153.72 L 398.14 153.72 L 398.33 153.74 L 398.77 153.71 L 399.23 153.45 L 399.31 153.45 L 399.41 153.35 L 399.54 153.17 L 399.89 153.17 L 400.49 152.92 L 400.68 152.39 L 401.01 147.76 L 402.30 151.67 L 402.58 151.65 L 402.79 151.64 L 403.11 151.63 L 403.22 151.56 L 403.54 151.34 L 404.05 151.02 L 404.12 150.80 L 404.21 150.72 L 404.27 150.74 L 404.32 150.67 L 404.72 150.38 L 414.06 150.38 L 414.15 150.38 L 414.73 150.36 L 414.78 150.34 L 414.91 149.75 L 415.02 149.42 L 415.04 149.42 L 415.36 149.37 L 415.43 149.34 L 417.35 148.47 L 417.57 148.39 L 417.74 148.38 L 417.77 148.37 L 418.36 148.16 L 418.57 148.27 L 418.61 148.26 L 418.92 148.20 L 419.27 146.37 L 419.31 146.36 L 419.60 146.15 L 419.72 146.15 L 419.83 146.15 L 420.08 145.95 L 420.59 145.21 L 420.69 145.18 L 420.79 144.98 L 421.00 144.10 L 421.51 143.20 L 421.97 138.94 L 422.06 138.42 L 422.53 138.21 L 422.61 138.10 L 422.69 137.90 L 422.73 137.21 L 422.90 135.99 L 422.93 136.04 L 423.01 136.01 L 423.28 136.01 L 423.68 135.56 L 423.93 135.47 L 424.22 135.45 L 424.36 135.44 L 424.64 135.42 L 425.11 135.42 L 425.58 135.41 L 425.94 135.41 L 426.02 135.39 L 426.11 135.38 L 426.12 135.23 L 426.39 135.15 L 426.47 135.13 L 426.58 134.94 L 427.35 134.92 L 427.36 134.55 L 427.57 134.53 L 428.46 134.54 L 429.06 134.31 L 429.49 134.04 L 429.50 133.89 L 429.54 133.89 L 442.61 133.64 L 442.66 133.63 L 442.81 133.62 L 442.88 133.40 L 442.93 133.38 L 442.93 133.37 L 443.49 133.31 L 443.62 132.54 L 443.78 132.37 L 444.06 130.85 L 444.24 130.83 L 444.46 130.18 L 444.59 130.26 L 444.65 130.26 L 444.72 129.52 L 444.88 129.02 L 444.90 128.48 L 444.96 128.41 L 445.10 128.36 L 445.19 128.11 L 445.31 131.01 L 445.47 130.96 L 445.79 129.80 L 445.93 129.52 L 446.05 129.27 L 446.86 127.61 L 447.54 126.80 L 448.37 125.27 L 448.58 125.20 L 448.82 125.20 L 449.07 125.13 L 453.88 124.69 L 454.28 124.65 L 499.83 123.48 L 643.27 123.21 L 643.74 122.74 L 644.07 122.67 L 644.40 122.67 L 644.90 121.77 L 645.07 121.34 L 645.20 120.53 L 645.43 118.19 L 645.76 118.67 L 646.02 118.16 L 646.09 118.15 L 646.31 118.00 L 646.36 118.00 L 646.59 117.14 L 646.81 115.77 L 647.46 114.32 L 647.48 114.20 L 647.66 112.46 L 648.28 108.16 L 648.30 108.02 L 648.42 107.92 L 648.56 106.39 L 649.23 104.32 L 649.25 104.13 L 649.39 104.03 L 649.55 103.01 L 649.80 102.21 L 649.81 102.05 L 649.92 100.48 L 649.94 100.44 L 650.00 100.00"/>
	</g>
	<g id="poloto_plot1" class="poloto_plot poloto_imgs poloto_line poloto1 poloto_stroke" fill="none" stroke="black">
		<path d=" M 150.00 376.64 L 150.04 376.62 L 150.06 376.60 L 150.07 376.60 L 150.10 376.60 L 150.14 375.87 L 150.29 375.84 L 150.64 375.83 L 151.16 375.55 L 151.43 375.42 L 151.96 375.45 L 152.05 375.40 L 152.12 375.40 L 152.74 375.34 L 153.90 375.21 L 154.26 372.32 L 154.36 372.32 L 155.06 372.25 L 155.86 372.24 L 155.87 372.24 L 155.87 372.24 L 166.76 372.24 L 166.84 372.24 L 166.98 372.23 L 167.04 372.19 L 167.45 372.18 L 167.64 372.18 L 168.10 372.18 L 168.16 372.18 L 168.30 372.16 L 168.44 372.16 L 168.48 372.16 L 168.59 372.12 L 168.71 372.12 L 168.83 372.12 L 169.13 371.96 L 169.40 371.96 L 169.45 371.96 L 169.58 371.96 L 170.44 373.05 L 170.46 373.05 L 170.57 373.03 L 171.06 372.87 L 171.46 372.69 L 171.91 372.61 L 172.00 372.55 L 172.01 372.55 L 172.10 372.55 L 172.27 372.55 L 172.48 372.48 L 172.91 372.42 L 172.94 372.42 L 173.01 372.42 L 173.12 372.39 L 173.36 372.39 L 173.39 372.39 L 173.64 372.38 L 173.74 372.38 L 173.83 372.38 L 173.94 372.38 L 175.26 372.25 L 175.58 372.24 L 176.32 372.19 L 176.48 372.19 L 176.59 372.19 L 176.65 372.19 L 177.16 372.10 L 177.39 372.10 L 177.65 371.99 L 177.78 371.98 L 178.09 371.75 L 178.22 371.66 L 178.40 371.66 L 178.57 371.66 L 179.16 368.28 L 179.17 368.23 L 179.20 368.23 L 179.40 367.90 L 189.50 367.90 L 190.54 366.44 L 190.58 366.44 L 191.81 366.44 L 191.92 366.44 L 192.03 366.29 L 192.33 366.26 L 192.47 366.26 L 192.52 366.26 L 192.68 366.26 L 193.04 366.26 L 193.05 365.95 L 193.19 365.94 L 193.33 365.94 L 193.48 365.90 L 193.68 365.89 L 193.76 365.89 L 193.78 365.89 L 193.96 365.89 L 193.98 365.89 L 194.18 365.89 L 194.21 365.89 L 194.50 364.46 L 194.55 364.46 L 194.65 364.29 L 194.77 364.29 L 194.94 364.29 L 195.01 364.27 L 195.57 364.27 L 195.59 364.27 L 195.70 364.18 L 195.95 364.18 L 196.17 363.36 L 196.24 363.26 L 196.35 363.26 L 196.40 363.26 L 196.53 363.24 L 197.17 357.21 L 197.24 357.26 L 197.45 357.26 L 197.52 357.26 L 197.57 357.25 L 197.67 357.25 L 197.77 357.16 L 197.99 357.16 L 198.15 357.16 L 198.28 357.15 L 198.35 357.15 L 198.92 357.14 L 199.23 357.14 L 199.32 356.99 L 199.59 356.99 L 199.61 356.99 L 199.64 356.99 L 199.80 356.58 L 199.94 356.48 L 200.41 355.05 L 200.48 355.05 L 200.57 355.05 L 200.70 355.07 L 200.71 355.07 L 200.76 355.07 L 200.81 355.07 L 200.88 355.07 L 200.94 355.07 L 201.12 355.04 L 201.26 355.04 L 201.39 355.02 L 201.57 355.02 L 201.78 355.01 L 201.98 354.48 L 202.12 354.30 L 202.42 354.30 L 202.42 354.29 L 202.59 354.29 L 216.69 354.29 L 216.96 354.28 L 217.63 354.19 L 217.76 354.17 L 217.87 354.17 L 217.90 354.17 L 218.14 354.17 L 218.30 354.17 L 218.40 354.17 L 218.50 354.17 L 218.56 354.17 L 218.81 354.17 L 219.32 354.20 L 219.45 354.20 L 219.54 354.20 L 219.66 354.20 L 220.32 354.08 L 220.41 354.03 L 220.45 354.03 L 220.49 353.95 L 220.64 353.95 L 220.75 353.94 L 221.22 353.40 L 221.90 353.40 L 222.15 353.40 L 222.90 353.40 L 223.26 349.70 L 223.39 349.70 L 223.54 349.70 L 223.76 349.69 L 224.10 349.69 L 224.58 349.69 L 225.22 349.69 L 225.32 349.69 L 225.78 349.60 L 226.08 349.45 L 226.18 349.45 L 226.36 349.45 L 226.50 349.43 L 228.17 349.20 L 229.76 349.20 L 243.95 349.19 L 244.05 349.19 L 244.12 349.19 L 244.56 349.19 L 245.89 348.03 L 245.95 347.99 L 246.13 347.87 L 246.78 347.86 L 247.09 347.59 L 247.56 347.59 L 247.67 347.59 L 247.77 347.59 L 248.60 344.35 L 248.70 344.35 L 248.87 344.35 L 249.05 344.35 L 249.14 344.14 L 249.60 343.75 L 249.76 343.75 L 249.84 343.75 L 249.94 343.15 L 250.15 342.56 L 250.23 342.56 L 250.43 342.54 L 251.05 337.72 L 251.11 337.72 L 251.17 337.72 L 251.26 337.72 L 251.41 337.72 L 251.47 337.72 L 251.53 337.72 L 251.83 337.72 L 251.90 337.61 L 252.26 337.59 L 252.47 337.52 L 252.61 336.94 L 253.71 327.33 L 253.84 327.33 L 295.53 327.33 L 295.57 327.33 L 311.51 327.33 L 312.38 327.18 L 312.56 327.18 L 312.79 327.18 L 312.87 327.18 L 312.96 327.18 L 319.87 327.11 L 320.79 327.02 L 321.12 327.02 L 321.30 326.99 L 325.61 326.91 L 325.64 326.78 L 325.90 326.78 L 327.19 325.48 L 327.27 325.48 L 327.43 325.48 L 327.88 325.48 L 327.94 325.48 L 328.12 325.48 L 328.31 325.48 L 328.34 325.48 L 341.74 325.45 L 341.84 325.23 L 342.37 325.23 L 342.38 323.65 L 342.47 323.65 L 342.58 323.65 L 342.73 323.51 L 342.96 323.51 L 343.15 323.44 L 343.32 323.44 L 343.39 323.44 L 343.66 323.42 L 344.59 320.76 L 344.96 320.75 L 345.03 320.74 L 345.10 320.74 L 345.15 320.74 L 345.28 320.70 L 345.66 320.36 L 345.71 320.32 L 345.94 317.92 L 346.03 317.91 L 346.07 317.91 L 346.15 317.88 L 346.21 317.88 L 346.26 317.88 L 346.56 316.57 L 346.68 316.55 L 346.85 316.52 L 346.96 312.47 L 347.01 312.47 L 347.30 310.19 L 347.38 310.19 L 347.44 310.18 L 347.51 310.18 L 347.56 310.18 L 347.60 310.18 L 347.62 310.18 L 347.77 305.96 L 347.82 305.96 L 347.96 305.94 L 348.07 305.94 L 348.37 305.85 L 348.74 305.74 L 348.75 305.74 L 348.85 305.71 L 349.19 305.65 L 349.36 305.65 L 349.52 305.65 L 349.69 303.83 L 349.81 303.83 L 350.28 303.82 L 350.32 303.81 L 350.38 303.81 L 350.42 303.81 L 350.73 301.21 L 350.78 301.21 L 351.01 301.20 L 371.62 301.20 L 372.79 301.18 L 372.83 301.18 L 373.06 301.18 L 373.08 301.18 L 373.23 301.18 L 373.34 301.18 L 373.44 301.05 L 373.59 301.05 L 373.63 301.05 L 373.68 301.05 L 373.90 300.81 L 374.35 300.66 L 374.63 300.51 L 374.95 299.78 L 374.96 299.78 L 375.01 299.59 L 375.05 299.57 L 375.67 299.12 L 375.68 299.12 L 375.77 299.06 L 376.04 299.06 L 376.21 299.01 L 376.24 297.93 L 376.25 297.93 L 376.33 299.00 L 376.37 298.94 L 376.40 298.92 L 376.55 297.48 L 376.56 297.48 L 376.88 297.42 L 377.76 297.42 L 377.97 297.42 L 378.04 297.42 L 378.08 297.42 L 378.13 297.42 L 378.26 297.32 L 392.34 296.12 L 392.36 296.12 L 392.48 296.11 L 392.52 295.86 L 392.60 283.03 L 392.75 278.26 L 392.77 278.26 L 393.03 278.17 L 393.09 278.17 L 393.13 278.15 L 393.36 278.15 L 393.97 276.98 L 393.99 276.98 L 394.14 276.92 L 394.20 276.92 L 394.23 276.82 L 394.74 276.13 L 394.76 276.13 L 395.53 275.98 L 395.62 275.93 L 395.89 275.95 L 396.21 274.37 L 396.29 274.21 L 396.35 274.07 L 396.49 273.47 L 396.89 273.33 L 396.96 273.20 L 397.14 273.20 L 397.33 273.20 L 397.92 273.20 L 397.99 273.20 L 398.13 273.20 L 398.14 273.20 L 398.33 273.22 L 398.77 273.22 L 399.23 273.06 L 399.31 273.06 L 399.41 273.04 L 399.54 273.04 L 399.89 273.04 L 400.49 273.04 L 400.68 272.89 L 401.01 268.75 L 402.30 272.66 L 402.58 272.64 L 402.79 272.63 L 403.11 272.63 L 403.22 272.59 L 403.54 272.56 L 404.05 272.32 L 404.12 272.32 L 404.21 272.32 L 404.27 272.32 L 404.32 272.32 L 404.72 272.10 L 414.06 272.10 L 414.15 272.10 L 414.73 272.09 L 414.78 272.09 L 414.91 272.05 L 415.02 271.76 L 415.04 271.75 L 415.36 271.72 L 415.43 271.72 L 417.35 271.49 L 417.57 271.49 L 417.74 271.49 L 417.77 271.49 L 418.36 271.32 L 418.57 271.32 L 418.61 271.32 L 418.92 271.31 L 419.27 270.33 L 419.31 270.33 L 419.60 270.16 L 419.72 270.16 L 419.83 270.16 L 420.08 270.16 L 420.59 270.15 L 420.69 270.12 L 420.79 270.03 L 421.00 269.87 L 421.51 269.71 L 421.97 265.81 L 422.06 265.68 L 422.53 265.49 L 422.61 265.45 L 422.69 265.31 L 422.73 265.03 L 422.90 263.86 L 422.93 263.91 L 423.01 263.89 L 423.28 263.88 L 423.68 263.73 L 423.93 263.66 L 424.22 263.65 L 424.36 263.63 L 424.64 263.62 L 425.11 263.62 L 425.58 263.61 L 425.94 263.60 L 426.02 263.60 L 426.11 263.59 L 426.12 263.59 L 426.39 263.59 L 426.47 263.57 L 426.58 263.42 L 427.35 263.41 L 427.36 263.41 L 427.57 263.39 L 428.46 263.39 L 429.06 263.20 L 429.49 263.03 L 429.50 263.03 L 429.54 263.03 L 442.61 263.03 L 442.66 263.03 L 442.81 263.03 L 442.88 263.03 L 442.93 263.00 L 442.93 263.00 L 443.49 263.00 L 443.62 262.99 L 443.78 262.96 L 444.06 262.94 L 444.24 262.94 L 444.46 262.84 L 444.59 262.84 L 444.65 262.84 L 444.72 262.84 L 444.88 262.49 L 444.90 262.49 L 444.96 262.49 L 445.10 262.49 L 445.19 262.49 L 445.31 262.57 L 445.47 262.57 L 445.79 262.56 L 445.93 262.56 L 446.05 262.56 L 446.86 261.41 L 447.54 261.10 L 448.37 260.28 L 448.58 260.28 L 448.82 260.28 L 449.07 260.28 L 453.88 260.18 L 454.28 260.18 L 499.83 260.03 L 643.27 259.82 L 643.74 259.75 L 644.07 259.74 L 644.40 259.74 L 644.90 259.21 L 645.07 259.21 L 645.20 259.21 L 645.43 257.29 L 645.76 257.65 L 646.02 257.63 L 646.09 257.63 L 646.31 257.61 L 646.36 257.61 L 646.59 257.61 L 646.81 257.52 L 647.46 256.30 L 647.48 256.30 L 647.66 256.19 L 648.28 252.26 L 648.30 252.26 L 648.42 252.25 L 648.56 252.19 L 649.23 250.36 L 649.25 250.36 L 649.39 250.36 L 649.55 250.31 L 649.80 249.65 L 649.81 249.65 L 649.92 249.64 L 649.94 249.64 L 650.00 249.27"/>
	</g>
	<g id="poloto_plot2" class="poloto_plot poloto_imgs poloto_line poloto2 poloto_stroke" fill="none" stroke="black">
		<path d=" M 150.00 389.52 L 150.04 389.51 L 150.06 389.51 L 150.07 389.51 L 150.10 389.51 L 150.14 386.83 L 150.29 386.46 L 150.64 386.45 L 151.16 386.44 L 151.43 384.83 L 151.96 384.69 L 152.05 384.64 L 152.12 384.60 L 152.74 383.88 L 153.90 383.32 L 154.26 383.21 L 154.36 383.22 L 155.06 383.18 L 155.86 383.18 L 155.87 383.18 L 155.87 383.18 L 166.76 383.18 L 166.84 383.17 L 166.98 383.15 L 167.04 383.15 L 167.45 382.99 L 167.64 382.94 L 168.10 382.68 L 168.16 382.56 L 168.30 382.33 L 168.44 382.29 L 168.48 382.29 L 168.59 382.25 L 168.71 382.25 L 168.83 382.25 L 169.13 381.98 L 169.40 381.73 L 169.45 381.73 L 169.58 381.59 L 170.44 381.27 L 170.46 381.26 L 170.57 381.16 L 171.06 380.81 L 171.46 380.37 L 171.91 380.19 L 172.00 380.19 L 172.01 380.20 L 172.10 379.95 L 172.27 379.95 L 172.48 379.92 L 172.91 379.74 L 172.94 379.42 L 173.01 379.42 L 173.12 379.27 L 173.36 379.27 L 173.39 379.27 L 173.64 378.80 L 173.74 378.77 L 173.83 378.73 L 173.94 378.51 L 175.26 378.38 L 175.58 378.33 L 176.32 378.01 L 176.48 378.01 L 176.59 377.99 L 176.65 377.75 L 177.16 376.44 L 177.39 376.42 L 177.65 376.03 L 177.78 375.99 L 178.09 375.81 L 178.22 375.75 L 178.40 375.47 L 178.57 375.24 L 179.16 375.24 L 179.17 375.21 L 179.20 375.02 L 179.40 373.75 L 189.50 373.62 L 190.54 373.24 L 190.58 373.19 L 191.81 372.87 L 191.92 372.86 L 192.03 372.63 L 192.33 372.48 L 192.47 372.18 L 192.52 371.95 L 192.68 371.48 L 193.04 371.47 L 193.05 371.47 L 193.19 371.13 L 193.33 371.13 L 193.48 370.79 L 193.68 370.51 L 193.76 370.37 L 193.78 370.36 L 193.96 370.04 L 193.98 370.03 L 194.18 369.75 L 194.21 369.74 L 194.50 369.63 L 194.55 369.63 L 194.65 369.53 L 194.77 369.51 L 194.94 369.51 L 195.01 369.48 L 195.57 369.20 L 195.59 369.21 L 195.70 368.64 L 195.95 368.62 L 196.17 368.44 L 196.24 368.44 L 196.35 368.44 L 196.40 368.39 L 196.53 367.61 L 197.17 366.95 L 197.24 366.59 L 197.45 366.56 L 197.52 366.47 L 197.57 366.45 L 197.67 366.28 L 197.77 365.66 L 197.99 365.57 L 198.15 365.55 L 198.28 365.24 L 198.35 365.23 L 198.92 365.00 L 199.23 364.83 L 199.32 364.69 L 199.59 364.68 L 199.61 364.68 L 199.64 364.65 L 199.80 363.53 L 199.94 363.52 L 200.41 363.36 L 200.48 362.91 L 200.57 362.90 L 200.70 362.72 L 200.71 362.61 L 200.76 362.54 L 200.81 362.49 L 200.88 362.49 L 200.94 362.40 L 201.12 361.14 L 201.26 361.01 L 201.39 360.63 L 201.57 360.61 L 201.78 360.48 L 201.98 360.09 L 202.12 359.00 L 202.42 358.91 L 202.42 358.45 L 202.59 358.33 L 216.69 358.34 L 216.96 358.33 L 217.63 357.82 L 217.76 357.82 L 217.87 357.82 L 217.90 357.68 L 218.14 357.46 L 218.30 357.42 L 218.40 357.29 L 218.50 357.19 L 218.56 357.15 L 218.81 357.07 L 219.32 357.18 L 219.45 356.83 L 219.54 356.74 L 219.66 356.73 L 220.32 356.66 L 220.41 356.60 L 220.45 356.60 L 220.49 356.54 L 220.64 356.48 L 220.75 356.35 L 221.22 356.02 L 221.90 355.89 L 222.15 355.83 L 222.90 355.62 L 223.26 355.11 L 223.39 355.02 L 223.54 354.62 L 223.76 354.11 L 224.10 353.97 L 224.58 353.96 L 225.22 353.94 L 225.32 353.75 L 225.78 353.62 L 226.08 353.46 L 226.18 353.33 L 226.36 353.28 L 226.50 352.94 L 228.17 352.77 L 229.76 352.77 L 243.95 352.73 L 244.05 352.55 L 244.12 352.42 L 244.56 352.23 L 245.89 351.89 L 245.95 351.84 L 246.13 351.60 L 246.78 351.50 L 247.09 350.84 L 247.56 350.82 L 247.67 350.80 L 247.77 350.15 L 248.60 349.54 L 248.70 349.53 L 248.87 349.50 L 249.05 349.44 L 249.14 349.22 L 249.60 348.20 L 249.76 347.94 L 249.84 347.92 L 249.94 347.82 L 250.15 347.42 L 250.23 346.40 L 250.43 345.98 L 251.05 345.74 L 251.11 345.23 L 251.17 345.23 L 251.26 345.14 L 251.41 345.00 L 251.47 344.97 L 251.53 344.92 L 251.83 343.73 L 251.90 343.03 L 252.26 342.90 L 252.47 341.72 L 252.61 341.49 L 253.71 339.63 L 253.84 339.60 L 295.53 339.06 L 295.57 339.06 L 311.51 338.90 L 312.38 338.71 L 312.56 338.71 L 312.79 338.61 L 312.87 338.46 L 312.96 338.42 L 319.87 338.41 L 320.79 336.27 L 321.12 336.09 L 321.30 335.35 L 325.61 335.26 L 325.64 335.19 L 325.90 335.17 L 327.19 335.04 L 327.27 334.80 L 327.43 334.71 L 327.88 334.60 L 327.94 334.57 L 328.12 334.16 L 328.31 334.03 L 328.34 333.72 L 341.74 333.31 L 341.84 332.34 L 342.37 332.09 L 342.38 331.72 L 342.47 331.43 L 342.58 330.98 L 342.73 329.80 L 342.96 329.16 L 343.15 328.33 L 343.32 328.32 L 343.39 327.68 L 343.66 327.64 L 344.59 327.03 L 344.96 326.75 L 345.03 326.57 L 345.10 326.57 L 345.15 326.36 L 345.28 325.63 L 345.66 325.56 L 345.71 325.55 L 345.94 325.08 L 346.03 325.08 L 346.07 324.81 L 346.15 324.64 L 346.21 324.63 L 346.26 324.25 L 346.56 324.02 L 346.68 323.65 L 346.85 323.63 L 346.96 323.43 L 347.01 323.14 L 347.30 322.99 L 347.38 322.82 L 347.44 322.82 L 347.51 322.81 L 347.56 322.52 L 347.60 322.53 L 347.62 322.52 L 347.77 322.42 L 347.82 322.10 L 347.96 322.09 L 348.07 322.01 L 348.37 321.99 L 348.74 321.95 L 348.75 321.95 L 348.85 321.93 L 349.19 321.93 L 349.36 321.93 L 349.52 321.93 L 349.69 321.88 L 349.81 321.49 L 350.28 321.49 L 350.32 321.26 L 350.38 321.25 L 350.42 320.99 L 350.73 320.90 L 350.78 320.84 L 351.01 320.84 L 371.62 320.77 L 372.79 320.66 L 372.83 320.66 L 373.06 320.66 L 373.08 320.66 L 373.23 320.20 L 373.34 320.18 L 373.44 320.05 L 373.59 319.98 L 373.63 319.94 L 373.68 319.92 L 373.90 319.88 L 374.35 319.78 L 374.63 319.17 L 374.95 319.13 L 374.96 319.09 L 375.01 318.58 L 375.05 318.57 L 375.67 318.57 L 375.68 318.52 L 375.77 318.04 L 376.04 317.98 L 376.21 317.96 L 376.24 317.95 L 376.25 317.90 L 376.33 317.87 L 376.37 317.38 L 376.40 317.37 L 376.55 317.37 L 376.56 317.33 L 376.88 317.28 L 377.76 317.26 L 377.97 317.22 L 378.04 317.20 L 378.08 317.05 L 378.13 317.05 L 378.26 316.50 L 392.34 316.33 L 392.36 316.17 L 392.48 316.06 L 392.52 316.04 L 392.60 315.57 L 392.75 315.46 L 392.77 315.43 L 393.03 315.43 L 393.09 315.43 L 393.13 314.96 L 393.36 314.90 L 393.97 314.89 L 393.99 314.86 L 394.14 314.60 L 394.20 314.61 L 394.23 314.18 L 394.74 314.18 L 394.76 314.16 L 395.53 314.05 L 395.62 313.53 L 395.89 313.53 L 396.21 313.53 L 396.29 313.15 L 396.35 312.86 L 396.49 312.85 L 396.89 312.78 L 396.96 312.76 L 397.14 312.64 L 397.33 312.64 L 397.92 312.64 L 397.99 312.64 L 398.13 312.61 L 398.14 312.61 L 398.33 312.61 L 398.77 312.58 L 399.23 312.53 L 399.31 312.52 L 399.41 312.47 L 399.54 312.33 L 399.89 312.33 L 400.49 312.16 L 400.68 311.87 L 401.01 311.84 L 402.30 311.53 L 402.58 311.53 L 402.79 311.52 L 403.11 311.51 L 403.22 311.49 L 403.54 311.33 L 404.05 311.31 L 404.12 311.17 L 404.21 311.10 L 404.27 311.12 L 404.32 311.07 L 404.72 311.04 L 414.06 311.04 L 414.15 311.04 L 414.73 311.04 L 414.78 311.02 L 414.91 310.59 L 415.02 310.57 L 415.04 310.57 L 415.36 310.56 L 415.43 310.54 L 417.35 309.90 L 417.57 309.83 L 417.74 309.82 L 417.77 309.82 L 418.36 309.80 L 418.57 309.89 L 418.61 309.89 L 418.92 309.84 L 419.27 309.24 L 419.31 309.23 L 419.60 309.21 L 419.72 309.21 L 419.83 309.21 L 420.08 309.09 L 420.59 308.54 L 420.69 308.54 L 420.79 308.46 L 421.00 307.96 L 421.51 307.41 L 421.97 307.45 L 422.06 307.16 L 422.53 307.16 L 422.61 307.12 L 422.69 307.09 L 422.73 306.80 L 422.90 306.79 L 422.93 306.79 L 423.01 306.79 L 423.28 306.79 L 423.68 306.56 L 423.93 306.54 L 424.22 306.54 L 424.36 306.54 L 424.64 306.54 L 425.11 306.54 L 425.58 306.54 L 425.94 306.54 L 426.02 306.53 L 426.11 306.52 L 426.12 306.42 L 426.39 306.35 L 426.47 306.35 L 426.58 306.33 L 427.35 306.33 L 427.36 306.04 L 427.57 306.04 L 428.46 306.05 L 429.06 306.04 L 429.49 305.98 L 429.50 305.87 L 429.54 305.87 L 442.61 305.68 L 442.66 305.67 L 442.81 305.66 L 442.88 305.48 L 442.93 305.48 L 442.93 305.47 L 443.49 305.42 L 443.62 304.84 L 443.78 304.71 L 444.06 303.58 L 444.24 303.57 L 444.46 303.08 L 444.59 303.14 L 444.65 303.13 L 444.72 302.51 L 444.88 302.40 L 444.90 301.98 L 444.96 301.91 L 445.10 301.87 L 445.19 301.66 L 445.31 304.21 L 445.47 304.17 L 445.79 303.14 L 445.93 302.92 L 446.05 302.69 L 446.86 302.28 L 447.54 301.85 L 448.37 301.25 L 448.58 301.19 L 448.82 301.19 L 449.07 301.13 L 453.88 300.83 L 454.28 300.80 L 499.83 300.01 L 643.27 299.98 L 643.74 299.62 L 644.07 299.56 L 644.40 299.56 L 644.90 299.24 L 645.07 298.86 L 645.20 298.16 L 645.43 297.97 L 645.76 298.04 L 646.02 297.63 L 646.09 297.63 L 646.31 297.50 L 646.36 297.50 L 646.59 296.82 L 646.81 295.77 L 647.46 295.67 L 647.48 295.56 L 647.66 294.21 L 648.28 294.16 L 648.30 294.03 L 648.42 293.95 L 648.56 292.73 L 649.23 292.66 L 649.25 292.49 L 649.39 292.41 L 649.55 291.60 L 649.80 291.58 L 649.81 291.45 L 649.92 290.11 L 649.94 290.08 L 650.00 290.04"/>
	</g>
	<g class="poloto_legend poloto_imgs poloto_line poloto0 poloto_stroke"><line x1="680" x2="730" y1="81.25" y2="81.25"/></g>
	<g class="poloto_legend poloto_imgs poloto_line poloto1 poloto_stroke"><line x1="680" x2="730" y1="131.25" y2="131.25"/></g>
	<g class="poloto_legend poloto_imgs poloto_line poloto2 poloto_stroke"><line x1="680" x2="730" y1="181.25" y2="181.25"/></g>
	<text class="poloto_legend poloto_text poloto_line poloto0" x="675" y="100">total</text>
	<text class="poloto_legend poloto_text poloto_line poloto1" x="675" y="150">code</text>
	<text class="poloto_legend poloto_text poloto_line poloto2" x="675" y="200">docs</text>
	<text class="poloto_text poloto_name poloto_title" x="400.00" y="37.50">Workspace lines over time</text>
	<text class="poloto_text poloto_name poloto_x" x="400.00" y="640">date (JST)</text>
	<text class="poloto_text poloto_name poloto_y" x="37.50" y="250.00" transform="rotate(-90,37.50,250.00)">lines</text>
	<text class="poloto_text poloto_ticks poloto_y">
		<tspan x="135.00" y="400.00">0</tspan>
		<tspan x="135.00" y="300.35">50K</tspan>
		<tspan x="135.00" y="200.71">100K</tspan>
		<tspan x="135.00" y="101.06">150K</tspan>
	</text>
	<g class="poloto_imgs poloto_ticks poloto_y" stroke="black">
		<line x1="150.00" x2="144.00" y1="400.00" y2="400.00"/>
		<line x1="150.00" x2="144.00" y1="300.35" y2="300.35"/>
		<line x1="150.00" x2="144.00" y1="200.71" y2="200.71"/>
		<line x1="150.00" x2="144.00" y1="101.06" y2="101.06"/>
	</g>
	<g class="poloto_text poloto_ticks poloto_x">
		<text x="186.03" y="430.00" text-anchor="end" transform="rotate(-90 186.03 430.00)">2026-04-22 04:33</text>
		<text x="243.77" y="430.00" text-anchor="end" transform="rotate(-90 243.77 430.00)">2026-04-24 12:06</text>
		<text x="301.50" y="430.00" text-anchor="end" transform="rotate(-90 301.50 430.00)">2026-04-26 19:40</text>
		<text x="359.24" y="430.00" text-anchor="end" transform="rotate(-90 359.24 430.00)">2026-04-29 03:13</text>
		<text x="416.97" y="430.00" text-anchor="end" transform="rotate(-90 416.97 430.00)">2026-05-01 10:46</text>
		<text x="474.71" y="430.00" text-anchor="end" transform="rotate(-90 474.71 430.00)">2026-05-03 18:20</text>
		<text x="532.44" y="430.00" text-anchor="end" transform="rotate(-90 532.44 430.00)">2026-05-06 01:53</text>
		<text x="590.17" y="430.00" text-anchor="end" transform="rotate(-90 590.17 430.00)">2026-05-08 09:26</text>
		<text x="647.91" y="430.00" text-anchor="end" transform="rotate(-90 647.91 430.00)">2026-05-10 17:00</text>
	</g>
	<g class="poloto_imgs poloto_ticks poloto_x" stroke="black">
		<line x1="186.03" x2="186.03" y1="400.00" y2="405.00"/>
		<line x1="243.77" x2="243.77" y1="400.00" y2="405.00"/>
		<line x1="301.50" x2="301.50" y1="400.00" y2="405.00"/>
		<line x1="359.24" x2="359.24" y1="400.00" y2="405.00"/>
		<line x1="416.97" x2="416.97" y1="400.00" y2="405.00"/>
		<line x1="474.71" x2="474.71" y1="400.00" y2="405.00"/>
		<line x1="532.44" x2="532.44" y1="400.00" y2="405.00"/>
		<line x1="590.17" x2="590.17" y1="400.00" y2="405.00"/>
		<line x1="647.91" x2="647.91" y1="400.00" y2="405.00"/>
	</g>
	<path class="poloto_imgs poloto_ticks poloto_x" stroke="black" style="stroke-dasharray:7.216806730451692;stroke-dashoffset:-36.032938660588115;" d=" M 150.00 400.00 L 650.00 400.00"/>
	<path class="poloto_imgs poloto_ticks poloto_y" stroke="black" style="stroke-dasharray:9.964658677224776;stroke-dashoffset:-0;" d=" M 150.00 400.00 L 150.00 100.00"/>
</svg>

