<svg class="poloto" width="800" height="680" viewBox="0 0 800 680" xmlns="http://www.w3.org/2000/svg">
	<style>
.poloto{
  stroke-linecap:round;
  stroke-linejoin:round;
  font-family:Roboto,sans-serif;
  font-size:16px;
}
.poloto_background{fill:AliceBlue;}
.poloto_scatter{stroke-width:7}
.poloto_line{stroke-width:2}
.poloto_text{fill: black;}
.poloto_name{font-size:24px;dominant-baseline:auto;text-anchor:middle;}
.poloto_where{dominant-baseline:middle;text-anchor:start}
.poloto_text.poloto_legend{font-size:20px;dominant-baseline:middle;text-anchor:start;}
.poloto_text.poloto_ticks.poloto_y{dominant-baseline:middle;text-anchor:end}
.poloto_text.poloto_ticks.poloto_x{dominant-baseline:auto;text-anchor:middle}
.poloto_imgs.poloto_ticks{stroke: black;stroke-width:3;fill:none;stroke-dasharray:none}
.poloto_grid{stroke:gray;stroke-width:0.5}

.poloto0.poloto_stroke{stroke:blue;}
.poloto1.poloto_stroke{stroke:red;}
.poloto2.poloto_stroke{stroke:green;}
.poloto3.poloto_stroke{stroke:gold;}
.poloto4.poloto_stroke{stroke:aqua;}
.poloto5.poloto_stroke{stroke:lime;}
.poloto6.poloto_stroke{stroke:orange;}
.poloto7.poloto_stroke{stroke:chocolate;}
.poloto0.poloto_fill{fill:blue;}
.poloto1.poloto_fill{fill:red;}
.poloto2.poloto_fill{fill:green;}
.poloto3.poloto_fill{fill:gold;}
.poloto4.poloto_fill{fill:aqua;}
.poloto5.poloto_fill{fill:lime;}
.poloto6.poloto_fill{fill:orange;}
.poloto7.poloto_fill{fill:chocolate;}
	</style>
	<circle r="1e5" class="poloto_background" fill="white"/>
	<g id="poloto_plot0" class="poloto_plot poloto_imgs poloto_line poloto0 poloto_stroke" fill="none" stroke="black">
		<path d=" M 150.00 368.87 L 150.03 368.85 L 150.05 368.83 L 150.06 368.83 L 150.08 368.83 L 150.11 365.45 L 150.24 365.05 L 150.54 365.03 L 150.97 364.75 L 151.19 363.03 L 151.63 362.93 L 151.71 362.84 L 151.77 362.80 L 152.28 361.96 L 153.25 361.28 L 153.55 358.63 L 153.63 358.63 L 154.22 358.53 L 154.89 358.51 L 154.89 358.51 L 154.90 358.51 L 163.97 358.51 L 164.03 358.51 L 164.15 358.49 L 164.20 358.46 L 164.55 358.30 L 164.70 358.26 L 165.09 358.02 L 165.14 357.91 L 165.25 357.67 L 165.37 357.63 L 165.40 357.63 L 165.50 357.57 L 165.59 357.57 L 165.69 357.57 L 165.95 357.18 L 166.17 356.94 L 166.21 356.94 L 166.32 356.79 L 167.04 357.40 L 167.05 357.40 L 167.15 357.30 L 167.56 356.85 L 167.89 356.30 L 168.26 356.06 L 168.34 356.02 L 168.35 356.02 L 168.42 355.81 L 168.56 355.81 L 168.74 355.74 L 169.10 355.53 L 169.12 355.22 L 169.18 355.22 L 169.27 355.05 L 169.47 355.05 L 169.49 355.05 L 169.71 354.60 L 169.79 354.57 L 169.87 354.54 L 169.95 354.36 L 171.06 354.11 L 171.32 354.06 L 171.94 353.74 L 172.07 353.74 L 172.16 353.73 L 172.22 353.50 L 172.64 352.16 L 172.83 352.13 L 173.05 351.68 L 173.15 351.64 L 173.41 351.27 L 173.52 351.13 L 173.67 350.89 L 173.81 350.68 L 174.30 347.59 L 174.32 347.52 L 174.34 347.33 L 174.51 345.85 L 182.92 345.74 L 183.79 344.05 L 183.82 344.01 L 184.85 343.74 L 184.94 343.73 L 185.03 343.40 L 185.29 343.23 L 185.40 342.94 L 185.44 342.69 L 185.57 342.24 L 185.88 342.24 L 185.88 341.94 L 186.00 341.61 L 186.12 341.60 L 186.24 341.23 L 186.41 340.96 L 186.47 340.83 L 186.50 340.82 L 186.64 340.53 L 186.66 340.53 L 186.82 340.24 L 186.85 340.23 L 187.09 338.83 L 187.13 338.83 L 187.21 338.60 L 187.32 338.59 L 187.46 338.59 L 187.52 338.56 L 187.99 338.29 L 188.00 338.30 L 188.09 337.68 L 188.30 337.67 L 188.49 336.74 L 188.55 336.66 L 188.64 336.65 L 188.68 336.61 L 188.79 335.89 L 189.31 329.83 L 189.37 329.54 L 189.55 329.51 L 189.61 329.44 L 189.65 329.42 L 189.73 329.26 L 189.82 328.57 L 190.00 328.43 L 190.13 328.41 L 190.24 328.11 L 190.30 328.10 L 190.78 327.88 L 191.03 327.71 L 191.11 327.44 L 191.33 327.42 L 191.35 327.42 L 191.37 327.40 L 191.51 325.94 L 191.63 325.85 L 192.02 324.38 L 192.08 323.96 L 192.15 323.95 L 192.26 323.79 L 192.27 323.68 L 192.31 323.60 L 192.35 323.57 L 192.41 323.56 L 192.46 323.48 L 192.61 322.28 L 192.73 322.11 L 192.84 321.75 L 192.99 321.73 L 193.16 321.62 L 193.33 320.77 L 193.45 319.59 L 193.69 319.52 L 193.70 319.08 L 193.84 318.94 L 205.59 318.94 L 205.82 318.92 L 206.37 318.30 L 206.48 318.29 L 206.58 318.29 L 206.59 318.13 L 206.79 317.94 L 206.93 317.90 L 207.01 317.79 L 207.10 317.71 L 207.14 317.66 L 207.36 317.61 L 207.78 317.53 L 207.89 317.21 L 207.97 317.13 L 208.07 317.12 L 208.61 316.96 L 208.69 316.86 L 208.72 316.86 L 208.76 316.75 L 208.88 316.69 L 208.97 316.57 L 209.37 315.78 L 209.93 315.66 L 210.14 315.61 L 210.77 315.41 L 211.07 311.60 L 211.17 311.52 L 211.30 311.14 L 211.48 310.64 L 211.77 310.50 L 212.17 310.49 L 212.70 310.47 L 212.78 310.31 L 213.17 310.13 L 213.42 309.86 L 213.50 309.74 L 213.65 309.70 L 213.77 309.36 L 215.16 308.99 L 216.48 308.99 L 228.31 308.95 L 228.39 308.79 L 228.45 308.68 L 228.82 308.52 L 229.93 307.20 L 229.98 307.11 L 230.13 306.78 L 230.67 306.69 L 230.93 305.80 L 231.32 305.79 L 231.41 305.78 L 231.50 305.17 L 232.18 301.70 L 232.27 301.70 L 232.41 301.67 L 232.56 301.63 L 232.63 301.25 L 233.02 299.94 L 233.15 299.70 L 233.22 299.68 L 233.30 299.08 L 233.48 298.23 L 233.54 297.33 L 233.72 296.92 L 234.23 292.42 L 234.28 291.96 L 234.33 291.96 L 234.41 291.88 L 234.53 291.76 L 234.58 291.72 L 234.63 291.67 L 234.88 290.59 L 234.94 289.83 L 235.24 289.68 L 235.42 288.55 L 235.53 287.83 L 236.44 277.33 L 236.55 277.30 L 271.31 276.79 L 271.34 276.79 L 284.62 276.65 L 285.35 276.36 L 285.50 276.36 L 285.69 276.28 L 285.76 276.15 L 285.83 276.11 L 291.60 276.04 L 292.36 274.04 L 292.64 273.86 L 292.79 273.13 L 296.38 272.98 L 296.40 272.78 L 296.62 272.76 L 297.70 271.50 L 297.76 271.27 L 297.89 271.19 L 298.27 271.10 L 298.32 271.07 L 298.47 270.69 L 298.63 270.59 L 298.66 270.31 L 309.82 269.92 L 309.90 268.85 L 310.35 268.61 L 310.36 266.80 L 310.43 266.54 L 310.53 266.10 L 310.65 264.85 L 310.84 264.19 L 311.00 263.42 L 311.14 263.42 L 311.20 262.83 L 311.43 262.77 L 312.20 259.87 L 312.51 259.56 L 312.56 259.38 L 312.63 259.37 L 312.67 259.17 L 312.77 258.46 L 313.09 258.12 L 313.14 258.07 L 313.33 255.52 L 313.40 255.51 L 313.43 255.24 L 313.50 255.03 L 313.55 255.02 L 313.59 254.64 L 313.84 253.26 L 313.94 252.87 L 314.08 252.82 L 314.17 249.12 L 314.21 248.82 L 314.46 246.72 L 314.53 246.55 L 314.57 246.55 L 314.64 246.54 L 314.67 246.25 L 314.71 246.26 L 314.72 246.25 L 314.85 242.52 L 314.89 242.20 L 315.01 242.18 L 315.10 242.11 L 315.35 242.01 L 315.65 241.86 L 315.67 241.86 L 315.75 241.82 L 316.04 241.75 L 316.17 241.75 L 316.31 241.75 L 316.45 240.12 L 316.55 239.73 L 316.94 239.73 L 316.98 239.47 L 317.03 239.47 L 317.06 239.19 L 317.32 236.84 L 317.36 236.78 L 317.55 236.77 L 334.73 236.70 L 335.71 236.58 L 335.74 236.58 L 335.93 236.58 L 335.94 236.58 L 336.07 236.11 L 336.17 236.09 L 336.25 235.86 L 336.37 235.80 L 336.40 235.77 L 336.45 235.75 L 336.63 235.49 L 337.00 235.26 L 337.24 234.50 L 337.50 233.78 L 337.51 233.74 L 337.56 233.07 L 337.59 233.05 L 338.10 232.65 L 338.11 232.60 L 338.19 232.07 L 338.41 232.01 L 338.55 231.96 L 338.58 231.01 L 338.59 230.96 L 338.65 231.86 L 338.69 231.31 L 338.71 231.29 L 338.84 230.01 L 338.85 229.98 L 339.12 229.87 L 339.85 229.85 L 340.02 229.81 L 340.08 229.80 L 340.11 229.63 L 340.16 229.63 L 340.26 229.00 L 352.00 227.79 L 352.02 227.62 L 352.12 227.50 L 352.15 227.27 L 352.21 216.63 L 352.34 212.28 L 352.36 212.25 L 352.57 212.17 L 352.63 212.17 L 352.66 211.67 L 352.85 211.62 L 353.36 210.59 L 353.37 210.57 L 353.50 210.25 L 353.55 210.26 L 353.58 209.75 L 354.00 209.14 L 354.01 209.12 L 354.66 208.88 L 354.73 208.34 L 354.96 208.35 L 355.23 206.98 L 355.30 206.44 L 355.34 206.00 L 355.46 205.47 L 355.79 205.28 L 355.85 205.15 L 356.00 205.03 L 356.16 205.03 L 356.65 205.03 L 356.71 205.03 L 356.82 205.01 L 356.83 205.01 L 356.99 205.02 L 357.36 204.99 L 357.75 204.79 L 357.81 204.79 L 357.89 204.71 L 358.00 204.56 L 358.29 204.56 L 358.79 204.37 L 358.95 203.95 L 359.22 200.28 L 360.30 203.38 L 360.54 203.37 L 360.71 203.35 L 360.98 203.35 L 361.07 203.29 L 361.34 203.12 L 361.76 202.86 L 361.82 202.70 L 361.90 202.63 L 361.95 202.64 L 361.99 202.59 L 362.32 202.36 L 370.10 202.36 L 370.18 202.36 L 370.66 202.35 L 370.71 202.33 L 370.81 201.86 L 370.90 201.60 L 370.92 201.60 L 371.18 201.56 L 371.25 201.54 L 372.84 200.85 L 373.03 200.79 L 373.17 200.77 L 373.20 200.77 L 373.69 200.60 L 373.86 200.69 L 373.89 200.68 L 374.16 200.64 L 374.45 199.19 L 374.48 199.18 L 374.72 199.01 L 374.82 199.01 L 374.92 199.01 L 375.12 198.85 L 375.55 198.26 L 375.63 198.24 L 375.71 198.08 L 375.89 197.39 L 376.32 196.67 L 376.70 193.30 L 376.77 192.89 L 377.17 192.73 L 377.23 192.64 L 377.29 192.48 L 377.33 191.94 L 377.47 190.96 L 377.50 191.00 L 377.56 190.99 L 377.79 190.98 L 378.12 190.62 L 378.33 190.56 L 378.57 190.54 L 378.69 190.53 L 378.92 190.52 L 379.32 190.52 L 379.71 190.51 L 380.01 190.51 L 380.07 190.49 L 380.15 190.49 L 380.15 190.37 L 380.38 190.30 L 380.45 190.28 L 380.54 190.14 L 381.18 190.12 L 381.19 189.82 L 381.37 189.81 L 382.11 189.82 L 382.61 189.64 L 382.97 189.42 L 382.98 189.31 L 383.01 189.30 L 393.90 189.10 L 393.94 189.10 L 394.07 189.09 L 394.13 188.92 L 394.16 188.90 L 394.17 188.89 L 394.64 188.84 L 394.74 188.23 L 394.88 188.10 L 395.11 186.89 L 395.26 186.88 L 395.45 186.37 L 395.55 186.43 L 395.60 186.43 L 395.66 185.84 L 395.79 185.45 L 395.81 185.02 L 395.86 184.96 L 395.97 184.93 L 396.05 184.73 L 396.15 187.02 L 396.28 186.98 L 396.55 186.07 L 396.67 185.84 L 396.77 185.65 L 397.44 184.33 L 398.01 183.69 L 398.70 182.48 L 398.88 182.42 L 399.07 182.42 L 399.29 182.37 L 403.29 182.02 L 403.63 181.99 L 441.60 181.06 L 561.16 180.85 L 561.55 180.47 L 561.83 180.42 L 562.10 180.42 L 562.52 179.71 L 562.66 179.36 L 562.77 178.72 L 562.96 176.87 L 563.23 177.25 L 563.45 176.85 L 563.51 176.84 L 563.69 176.72 L 563.73 176.72 L 563.93 176.04 L 564.11 174.96 L 564.65 173.81 L 564.67 173.71 L 564.82 172.34 L 565.34 168.93 L 565.35 168.82 L 565.45 168.74 L 565.57 167.53 L 566.13 165.89 L 566.14 165.74 L 566.26 165.66 L 566.39 164.85 L 566.60 164.22 L 566.61 164.10 L 566.70 162.85 L 566.72 162.82 L 566.77 162.47 L 567.00 160.25 L 567.03 160.13 L 567.11 160.00 L 567.37 159.70 L 567.42 159.70 L 567.62 159.27 L 567.95 159.32 L 568.00 159.27 L 568.05 159.24 L 568.10 159.20 L 568.27 157.90 L 568.45 156.84 L 568.47 156.75 L 568.57 155.42 L 568.67 154.13 L 568.70 153.97 L 568.80 152.45 L 568.85 151.25 L 569.06 150.45 L 569.09 150.39 L 569.19 150.14 L 569.33 150.12 L 570.19 150.09 L 570.62 150.05 L 579.96 150.10 L 580.05 149.87 L 580.14 149.67 L 580.30 148.78 L 580.65 148.55 L 580.68 148.46 L 580.75 147.28 L 580.97 146.14 L 580.99 146.04 L 583.03 145.96 L 583.16 145.32 L 584.19 145.12 L 584.30 145.08 L 584.42 143.75 L 585.66 142.50 L 586.19 142.02 L 586.32 141.05 L 586.76 139.38 L 587.04 138.90 L 587.50 137.91 L 588.32 137.41 L 600.82 137.40 L 601.57 137.29 L 601.60 137.31 L 602.64 137.12 L 602.70 137.02 L 603.06 136.95 L 603.49 135.86 L 603.49 135.86 L 603.54 135.81 L 604.09 134.57 L 605.38 133.86 L 605.46 133.80 L 605.59 133.79 L 605.79 133.46 L 605.84 133.37 L 605.92 133.31 L 606.52 133.26 L 607.00 133.26 L 607.25 133.26 L 607.29 133.21 L 607.82 132.13 L 608.23 131.92 L 608.25 131.84 L 608.30 131.75 L 608.36 131.46 L 621.92 131.04 L 621.95 131.02 L 621.99 131.00 L 622.25 130.88 L 622.46 130.75 L 623.65 129.08 L 623.95 128.88 L 624.81 128.37 L 625.55 128.25 L 626.10 128.09 L 626.26 126.55 L 626.94 124.74 L 627.20 124.61 L 627.28 123.45 L 629.29 121.30 L 629.31 121.30 L 629.42 120.78 L 629.80 120.72 L 629.81 120.72 L 629.83 120.59 L 629.90 120.42 L 630.07 120.25 L 630.29 119.35 L 632.37 117.18 L 632.64 116.92 L 632.83 116.54 L 632.86 116.49 L 632.90 116.18 L 642.14 115.20 L 642.44 114.46 L 642.61 114.43 L 642.68 113.93 L 643.55 113.70 L 643.73 113.21 L 643.89 113.21 L 643.99 112.17 L 644.28 109.52 L 644.33 109.48 L 644.72 109.44 L 644.81 108.57 L 645.14 107.54 L 645.21 106.82 L 645.48 106.16 L 645.68 105.81 L 645.84 105.02 L 646.19 104.35 L 646.23 103.59 L 646.67 103.42 L 646.71 103.42 L 646.79 102.46 L 646.88 102.46 L 646.92 102.39 L 647.44 100.59 L 648.19 100.00 L 648.56 100.19 L 649.78 100.11 L 649.81 100.10 L 650.00 100.08"/>
	</g>
	<g id="poloto_plot1" class="poloto_plot poloto_imgs poloto_line poloto1 poloto_stroke" fill="none" stroke="black">
		<path d=" M 150.00 381.50 L 150.03 381.49 L 150.05 381.48 L 150.06 381.48 L 150.08 381.48 L 150.11 380.89 L 150.24 380.87 L 150.54 380.86 L 150.97 380.64 L 151.19 380.54 L 151.63 380.56 L 151.71 380.52 L 151.77 380.52 L 152.28 380.48 L 153.25 380.37 L 153.55 378.08 L 153.63 378.08 L 154.22 378.03 L 154.89 378.02 L 154.89 378.02 L 154.90 378.02 L 163.97 378.02 L 164.03 378.02 L 164.15 378.01 L 164.20 377.98 L 164.55 377.97 L 164.70 377.97 L 165.09 377.97 L 165.14 377.97 L 165.25 377.95 L 165.37 377.95 L 165.40 377.95 L 165.50 377.93 L 165.59 377.93 L 165.69 377.93 L 165.95 377.80 L 166.17 377.80 L 166.21 377.80 L 166.32 377.80 L 167.04 378.66 L 167.05 378.66 L 167.15 378.65 L 167.56 378.52 L 167.89 378.38 L 168.26 378.31 L 168.34 378.27 L 168.35 378.27 L 168.42 378.27 L 168.56 378.27 L 168.74 378.21 L 169.10 378.16 L 169.12 378.16 L 169.18 378.16 L 169.27 378.14 L 169.47 378.14 L 169.49 378.14 L 169.71 378.13 L 169.79 378.13 L 169.87 378.13 L 169.95 378.13 L 171.06 378.03 L 171.32 378.02 L 171.94 377.98 L 172.07 377.98 L 172.16 377.98 L 172.22 377.98 L 172.64 377.91 L 172.83 377.91 L 173.05 377.83 L 173.15 377.82 L 173.41 377.63 L 173.52 377.56 L 173.67 377.56 L 173.81 377.56 L 174.30 374.89 L 174.32 374.84 L 174.34 374.84 L 174.51 374.58 L 182.92 374.58 L 183.79 373.43 L 183.82 373.43 L 184.85 373.43 L 184.94 373.43 L 185.03 373.31 L 185.29 373.29 L 185.40 373.29 L 185.44 373.29 L 185.57 373.29 L 185.88 373.29 L 185.88 373.04 L 186.00 373.03 L 186.12 373.03 L 186.24 373.00 L 186.41 373.00 L 186.47 373.00 L 186.50 373.00 L 186.64 373.00 L 186.66 373.00 L 186.82 373.00 L 186.85 373.00 L 187.09 371.86 L 187.13 371.86 L 187.21 371.73 L 187.32 371.73 L 187.46 371.73 L 187.52 371.71 L 187.99 371.71 L 188.00 371.71 L 188.09 371.64 L 188.30 371.64 L 188.49 370.99 L 188.55 370.91 L 188.64 370.91 L 188.68 370.91 L 188.79 370.89 L 189.31 366.12 L 189.37 366.16 L 189.55 366.16 L 189.61 366.16 L 189.65 366.15 L 189.73 366.15 L 189.82 366.08 L 190.00 366.08 L 190.13 366.08 L 190.24 366.08 L 190.30 366.08 L 190.78 366.07 L 191.03 366.06 L 191.11 365.95 L 191.33 365.95 L 191.35 365.95 L 191.37 365.95 L 191.51 365.62 L 191.63 365.54 L 192.02 364.41 L 192.08 364.41 L 192.15 364.41 L 192.26 364.42 L 192.27 364.42 L 192.31 364.42 L 192.35 364.42 L 192.41 364.42 L 192.46 364.42 L 192.61 364.40 L 192.73 364.40 L 192.84 364.39 L 192.99 364.39 L 193.16 364.38 L 193.33 363.96 L 193.45 363.81 L 193.69 363.81 L 193.70 363.81 L 193.84 363.81 L 205.59 363.81 L 205.82 363.80 L 206.37 363.73 L 206.48 363.72 L 206.58 363.72 L 206.59 363.72 L 206.79 363.72 L 206.93 363.72 L 207.01 363.72 L 207.10 363.72 L 207.14 363.71 L 207.36 363.71 L 207.78 363.73 L 207.89 363.73 L 207.97 363.73 L 208.07 363.73 L 208.61 363.64 L 208.69 363.60 L 208.72 363.60 L 208.76 363.54 L 208.88 363.54 L 208.97 363.53 L 209.37 363.10 L 209.93 363.10 L 210.14 363.10 L 210.77 363.10 L 211.07 360.18 L 211.17 360.17 L 211.30 360.17 L 211.48 360.17 L 211.77 360.17 L 212.17 360.17 L 212.70 360.17 L 212.78 360.17 L 213.17 360.10 L 213.42 359.98 L 213.50 359.98 L 213.65 359.98 L 213.77 359.96 L 215.16 359.78 L 216.48 359.78 L 228.31 359.77 L 228.39 359.77 L 228.45 359.77 L 228.82 359.77 L 229.93 358.85 L 229.98 358.82 L 230.13 358.73 L 230.67 358.72 L 230.93 358.50 L 231.32 358.50 L 231.41 358.50 L 231.50 358.50 L 232.18 355.94 L 232.27 355.94 L 232.41 355.94 L 232.56 355.94 L 232.63 355.77 L 233.02 355.46 L 233.15 355.46 L 233.22 355.46 L 233.30 354.99 L 233.48 354.52 L 233.54 354.52 L 233.72 354.51 L 234.23 350.69 L 234.28 350.69 L 234.33 350.69 L 234.41 350.69 L 234.53 350.69 L 234.58 350.69 L 234.63 350.69 L 234.88 350.69 L 234.94 350.60 L 235.24 350.59 L 235.42 350.53 L 235.53 350.07 L 236.44 342.46 L 236.55 342.46 L 271.31 342.46 L 271.34 342.46 L 284.62 342.46 L 285.35 342.35 L 285.50 342.35 L 285.69 342.35 L 285.76 342.35 L 285.83 342.35 L 291.60 342.29 L 292.36 342.22 L 292.64 342.22 L 292.79 342.19 L 296.38 342.13 L 296.40 342.03 L 296.62 342.03 L 297.70 340.99 L 297.76 340.99 L 297.89 340.99 L 298.27 340.99 L 298.32 340.99 L 298.47 340.99 L 298.63 340.99 L 298.66 340.99 L 309.82 340.98 L 309.90 340.80 L 310.35 340.80 L 310.36 339.55 L 310.43 339.55 L 310.53 339.55 L 310.65 339.44 L 310.84 339.44 L 311.00 339.38 L 311.14 339.38 L 311.20 339.38 L 311.43 339.37 L 312.20 337.26 L 312.51 337.25 L 312.56 337.24 L 312.63 337.24 L 312.67 337.24 L 312.77 337.21 L 313.09 336.95 L 313.14 336.91 L 313.33 335.01 L 313.40 335.01 L 313.43 335.01 L 313.50 334.98 L 313.55 334.98 L 313.59 334.98 L 313.84 333.94 L 313.94 333.93 L 314.08 333.91 L 314.17 330.70 L 314.21 330.70 L 314.46 328.89 L 314.53 328.89 L 314.57 328.88 L 314.64 328.88 L 314.67 328.88 L 314.71 328.88 L 314.72 328.88 L 314.85 325.54 L 314.89 325.54 L 315.01 325.53 L 315.10 325.53 L 315.35 325.46 L 315.65 325.37 L 315.67 325.37 L 315.75 325.35 L 316.04 325.29 L 316.17 325.29 L 316.31 325.29 L 316.45 323.85 L 316.55 323.85 L 316.94 323.85 L 316.98 323.84 L 317.03 323.84 L 317.06 323.84 L 317.32 321.78 L 317.36 321.78 L 317.55 321.77 L 334.73 321.77 L 335.71 321.76 L 335.74 321.76 L 335.93 321.76 L 335.94 321.76 L 336.07 321.76 L 336.17 321.76 L 336.25 321.65 L 336.37 321.65 L 336.40 321.65 L 336.45 321.65 L 336.63 321.47 L 337.00 321.35 L 337.24 321.23 L 337.50 320.65 L 337.51 320.65 L 337.56 320.50 L 337.59 320.48 L 338.10 320.13 L 338.11 320.13 L 338.19 320.08 L 338.41 320.08 L 338.55 320.04 L 338.58 319.19 L 338.59 319.19 L 338.65 320.03 L 338.69 319.98 L 338.71 319.97 L 338.84 318.83 L 338.85 318.83 L 339.12 318.78 L 339.85 318.78 L 340.02 318.78 L 340.08 318.78 L 340.11 318.78 L 340.16 318.78 L 340.26 318.70 L 352.00 317.75 L 352.02 317.75 L 352.12 317.75 L 352.15 317.54 L 352.21 307.39 L 352.34 303.61 L 352.36 303.61 L 352.57 303.54 L 352.63 303.54 L 352.66 303.52 L 352.85 303.52 L 353.36 302.60 L 353.37 302.60 L 353.50 302.55 L 353.55 302.55 L 353.58 302.47 L 354.00 301.92 L 354.01 301.92 L 354.66 301.81 L 354.73 301.77 L 354.96 301.78 L 355.23 300.53 L 355.30 300.41 L 355.34 300.29 L 355.46 299.82 L 355.79 299.71 L 355.85 299.61 L 356.00 299.61 L 356.16 299.61 L 356.65 299.61 L 356.71 299.61 L 356.82 299.61 L 356.83 299.61 L 356.99 299.62 L 357.36 299.62 L 357.75 299.49 L 357.81 299.49 L 357.89 299.47 L 358.00 299.47 L 358.29 299.47 L 358.79 299.47 L 358.95 299.36 L 359.22 296.08 L 360.30 299.18 L 360.54 299.16 L 360.71 299.15 L 360.98 299.15 L 361.07 299.12 L 361.34 299.10 L 361.76 298.91 L 361.82 298.91 L 361.90 298.91 L 361.95 298.91 L 361.99 298.91 L 362.32 298.73 L 370.10 298.73 L 370.18 298.74 L 370.66 298.72 L 370.71 298.72 L 370.81 298.69 L 370.90 298.46 L 370.92 298.46 L 371.18 298.43 L 371.25 298.43 L 372.84 298.25 L 373.03 298.25 L 373.17 298.25 L 373.20 298.25 L 373.69 298.11 L 373.86 298.11 L 373.89 298.11 L 374.16 298.11 L 374.45 297.33 L 374.48 297.33 L 374.72 297.20 L 374.82 297.20 L 374.92 297.20 L 375.12 297.20 L 375.55 297.19 L 375.63 297.17 L 375.71 297.10 L 375.89 296.96 L 376.32 296.84 L 376.70 293.75 L 376.77 293.65 L 377.17 293.50 L 377.23 293.46 L 377.29 293.36 L 377.33 293.14 L 377.47 292.21 L 377.50 292.25 L 377.56 292.23 L 377.79 292.23 L 378.12 292.10 L 378.33 292.05 L 378.57 292.04 L 378.69 292.03 L 378.92 292.02 L 379.32 292.02 L 379.71 292.01 L 380.01 292.01 L 380.07 292.00 L 380.15 292.00 L 380.15 291.99 L 380.38 291.99 L 380.45 291.98 L 380.54 291.86 L 381.18 291.85 L 381.19 291.85 L 381.37 291.84 L 382.11 291.84 L 382.61 291.68 L 382.97 291.55 L 382.98 291.55 L 383.01 291.55 L 393.90 291.55 L 393.94 291.55 L 394.07 291.55 L 394.13 291.55 L 394.16 291.53 L 394.17 291.53 L 394.64 291.53 L 394.74 291.52 L 394.88 291.50 L 395.11 291.48 L 395.26 291.48 L 395.45 291.40 L 395.55 291.40 L 395.60 291.40 L 395.66 291.40 L 395.79 291.12 L 395.81 291.12 L 395.86 291.12 L 395.97 291.12 L 396.05 291.12 L 396.15 291.19 L 396.28 291.19 L 396.55 291.18 L 396.67 291.18 L 396.77 291.18 L 397.44 290.27 L 398.01 290.03 L 398.70 289.38 L 398.88 289.38 L 399.07 289.38 L 399.29 289.38 L 403.29 289.30 L 403.63 289.29 L 441.60 289.18 L 561.16 289.01 L 561.55 288.96 L 561.83 288.95 L 562.10 288.95 L 562.52 288.53 L 562.66 288.53 L 562.77 288.53 L 562.96 287.01 L 563.23 287.30 L 563.45 287.28 L 563.51 287.28 L 563.69 287.26 L 563.73 287.26 L 563.93 287.26 L 564.11 287.19 L 564.65 286.23 L 564.67 286.23 L 564.82 286.14 L 565.34 283.02 L 565.35 283.02 L 565.45 283.02 L 565.57 282.97 L 566.13 281.52 L 566.14 281.52 L 566.26 281.52 L 566.39 281.48 L 566.60 280.95 L 566.61 280.95 L 566.70 280.95 L 566.72 280.95 L 566.77 280.65 L 567.00 278.59 L 567.03 278.59 L 567.11 278.59 L 567.37 278.42 L 567.42 278.42 L 567.62 278.08 L 567.95 278.08 L 568.00 278.08 L 568.05 278.08 L 568.10 278.08 L 568.27 278.07 L 568.45 277.14 L 568.47 277.14 L 568.57 277.14 L 568.67 276.43 L 568.70 276.43 L 568.80 275.69 L 568.85 275.64 L 569.06 274.90 L 569.09 274.90 L 569.19 274.90 L 569.33 274.89 L 570.19 274.89 L 570.62 274.88 L 579.96 274.88 L 580.05 274.88 L 580.14 274.88 L 580.30 274.88 L 580.65 274.69 L 580.68 274.69 L 580.75 274.63 L 580.97 273.59 L 580.99 273.59 L 583.03 273.62 L 583.16 273.41 L 584.19 273.41 L 584.30 273.41 L 584.42 273.33 L 585.66 272.48 L 586.19 272.32 L 586.32 272.26 L 586.76 270.66 L 587.04 270.66 L 587.50 270.52 L 588.32 270.52 L 600.82 270.52 L 601.57 270.42 L 601.60 270.44 L 602.64 270.44 L 602.70 270.44 L 603.06 270.44 L 603.49 270.41 L 603.49 270.41 L 603.54 270.41 L 604.09 269.47 L 605.38 269.44 L 605.46 269.44 L 605.59 269.44 L 605.79 269.40 L 605.84 269.37 L 605.92 269.37 L 606.52 269.33 L 607.00 269.33 L 607.25 269.32 L 607.29 269.32 L 607.82 269.31 L 608.23 269.20 L 608.25 269.20 L 608.30 269.20 L 608.36 269.20 L 621.92 268.98 L 621.95 268.98 L 621.99 268.98 L 622.25 268.98 L 622.46 268.98 L 623.65 268.05 L 623.95 267.99 L 624.81 267.92 L 625.55 267.87 L 626.10 267.87 L 626.26 267.87 L 626.94 266.47 L 627.20 266.43 L 627.28 266.38 L 629.29 265.39 L 629.31 265.39 L 629.42 265.38 L 629.80 265.37 L 629.81 265.37 L 629.83 265.37 L 629.90 265.34 L 630.07 265.30 L 630.29 265.19 L 632.37 263.56 L 632.64 263.48 L 632.83 263.48 L 632.86 263.48 L 632.90 263.48 L 642.14 263.48 L 642.44 263.47 L 642.61 263.47 L 642.68 263.47 L 643.55 263.47 L 643.73 263.47 L 643.89 263.47 L 643.99 263.43 L 644.28 261.30 L 644.33 261.28 L 644.72 261.29 L 644.81 261.28 L 645.14 260.45 L 645.21 260.41 L 645.48 259.87 L 645.68 259.87 L 645.84 259.82 L 646.19 259.32 L 646.23 259.32 L 646.67 257.74 L 646.71 257.74 L 646.79 257.72 L 646.88 257.72 L 646.92 257.72 L 647.44 256.14 L 648.19 255.99 L 648.56 255.99 L 649.78 255.95 L 649.81 255.95 L 650.00 255.95"/>
	</g>
	<g id="poloto_plot2" class="poloto_plot poloto_imgs poloto_line poloto2 poloto_stroke" fill="none" stroke="black">
		<path d=" M 150.00 391.70 L 150.03 391.70 L 150.05 391.70 L 150.06 391.70 L 150.08 391.70 L 150.11 389.57 L 150.24 389.28 L 150.54 389.27 L 150.97 389.26 L 151.19 387.99 L 151.63 387.88 L 151.71 387.84 L 151.77 387.81 L 152.28 387.24 L 153.25 386.79 L 153.55 386.71 L 153.63 386.71 L 154.22 386.68 L 154.89 386.68 L 154.89 386.68 L 154.90 386.68 L 163.97 386.68 L 164.03 386.67 L 164.15 386.66 L 164.20 386.66 L 164.55 386.53 L 164.70 386.49 L 165.09 386.28 L 165.14 386.19 L 165.25 386.01 L 165.37 385.98 L 165.40 385.98 L 165.50 385.94 L 165.59 385.94 L 165.69 385.95 L 165.95 385.73 L 166.17 385.54 L 166.21 385.54 L 166.32 385.42 L 167.04 385.17 L 167.05 385.17 L 167.15 385.09 L 167.56 384.80 L 167.89 384.46 L 168.26 384.32 L 168.34 384.32 L 168.35 384.32 L 168.42 384.13 L 168.56 384.13 L 168.74 384.10 L 169.10 383.96 L 169.12 383.71 L 169.18 383.71 L 169.27 383.59 L 169.47 383.59 L 169.49 383.59 L 169.71 383.22 L 169.79 383.19 L 169.87 383.16 L 169.95 382.99 L 171.06 382.88 L 171.32 382.85 L 171.94 382.59 L 172.07 382.59 L 172.16 382.58 L 172.22 382.38 L 172.64 381.34 L 172.83 381.33 L 173.05 381.02 L 173.15 380.99 L 173.41 380.85 L 173.52 380.80 L 173.67 380.58 L 173.81 380.39 L 174.30 380.39 L 174.32 380.37 L 174.34 380.22 L 174.51 379.22 L 182.92 379.11 L 183.79 378.81 L 183.82 378.77 L 184.85 378.52 L 184.94 378.51 L 185.03 378.33 L 185.29 378.21 L 185.40 377.98 L 185.44 377.79 L 185.57 377.42 L 185.88 377.41 L 185.88 377.41 L 186.00 377.15 L 186.12 377.14 L 186.24 376.87 L 186.41 376.65 L 186.47 376.54 L 186.50 376.53 L 186.64 376.28 L 186.66 376.27 L 186.82 376.05 L 186.85 376.04 L 187.09 375.96 L 187.13 375.96 L 187.21 375.87 L 187.32 375.86 L 187.46 375.86 L 187.52 375.84 L 187.99 375.61 L 188.00 375.62 L 188.09 375.17 L 188.30 375.15 L 188.49 375.01 L 188.55 375.01 L 188.64 375.01 L 188.68 374.97 L 188.79 374.35 L 189.31 373.83 L 189.37 373.54 L 189.55 373.52 L 189.61 373.45 L 189.65 373.44 L 189.73 373.30 L 189.82 372.81 L 190.00 372.74 L 190.13 372.73 L 190.24 372.48 L 190.30 372.47 L 190.78 372.29 L 191.03 372.16 L 191.11 372.05 L 191.33 372.04 L 191.35 372.04 L 191.37 372.01 L 191.51 371.12 L 191.63 371.12 L 192.02 370.99 L 192.08 370.63 L 192.15 370.63 L 192.26 370.48 L 192.27 370.40 L 192.31 370.34 L 192.35 370.30 L 192.41 370.30 L 192.46 370.23 L 192.61 369.23 L 192.73 369.13 L 192.84 368.83 L 192.99 368.81 L 193.16 368.71 L 193.33 368.40 L 193.45 367.54 L 193.69 367.47 L 193.70 367.10 L 193.84 367.01 L 205.59 367.01 L 205.82 367.01 L 206.37 366.60 L 206.48 366.60 L 206.58 366.60 L 206.59 366.49 L 206.79 366.32 L 206.93 366.29 L 207.01 366.18 L 207.10 366.11 L 207.14 366.07 L 207.36 366.01 L 207.78 366.10 L 207.89 365.82 L 207.97 365.75 L 208.07 365.74 L 208.61 365.69 L 208.69 365.64 L 208.72 365.64 L 208.76 365.59 L 208.88 365.54 L 208.97 365.44 L 209.37 365.18 L 209.93 365.07 L 210.14 365.03 L 210.77 364.86 L 211.07 364.46 L 211.17 364.39 L 211.30 364.07 L 211.48 363.66 L 211.77 363.56 L 212.17 363.55 L 212.70 363.53 L 212.78 363.38 L 213.17 363.28 L 213.42 363.15 L 213.50 363.05 L 213.65 363.01 L 213.77 362.74 L 215.16 362.61 L 216.48 362.61 L 228.31 362.57 L 228.39 362.43 L 228.45 362.33 L 228.82 362.18 L 229.93 361.91 L 229.98 361.87 L 230.13 361.68 L 230.67 361.60 L 230.93 361.08 L 231.32 361.06 L 231.41 361.05 L 231.50 360.53 L 232.18 360.05 L 232.27 360.04 L 232.41 360.01 L 232.56 359.97 L 232.63 359.79 L 233.02 358.99 L 233.15 358.78 L 233.22 358.77 L 233.30 358.68 L 233.48 358.37 L 233.54 357.56 L 233.72 357.23 L 234.23 357.04 L 234.28 356.64 L 234.33 356.64 L 234.41 356.56 L 234.53 356.46 L 234.58 356.43 L 234.63 356.39 L 234.88 355.45 L 234.94 354.89 L 235.24 354.79 L 235.42 353.85 L 235.53 353.68 L 236.44 352.20 L 236.55 352.18 L 271.31 351.75 L 271.34 351.75 L 284.62 351.63 L 285.35 351.47 L 285.50 351.47 L 285.69 351.39 L 285.76 351.27 L 285.83 351.25 L 291.60 351.23 L 292.36 349.54 L 292.64 349.40 L 292.79 348.81 L 296.38 348.74 L 296.40 348.68 L 296.62 348.67 L 297.70 348.57 L 297.76 348.37 L 297.89 348.31 L 298.27 348.22 L 298.32 348.19 L 298.47 347.87 L 298.63 347.77 L 298.66 347.52 L 309.82 347.20 L 309.90 346.43 L 310.35 346.23 L 310.36 345.94 L 310.43 345.71 L 310.53 345.35 L 310.65 344.42 L 310.84 343.91 L 311.00 343.25 L 311.14 343.25 L 311.20 342.74 L 311.43 342.71 L 312.20 342.23 L 312.51 342.00 L 312.56 341.86 L 312.63 341.86 L 312.67 341.69 L 312.77 341.12 L 313.09 341.06 L 313.14 341.05 L 313.33 340.68 L 313.40 340.68 L 313.43 340.46 L 313.50 340.33 L 313.55 340.33 L 313.59 340.02 L 313.84 339.84 L 313.94 339.55 L 314.08 339.53 L 314.17 339.37 L 314.21 339.15 L 314.46 339.02 L 314.53 338.89 L 314.57 338.89 L 314.64 338.89 L 314.67 338.65 L 314.71 338.66 L 314.72 338.66 L 314.85 338.58 L 314.89 338.32 L 315.01 338.32 L 315.10 338.25 L 315.35 338.23 L 315.65 338.21 L 315.67 338.21 L 315.75 338.19 L 316.04 338.19 L 316.17 338.19 L 316.31 338.19 L 316.45 338.15 L 316.55 337.84 L 316.94 337.84 L 316.98 337.65 L 317.03 337.65 L 317.06 337.44 L 317.32 337.37 L 317.36 337.32 L 317.55 337.32 L 334.73 337.27 L 335.71 337.18 L 335.74 337.18 L 335.93 337.18 L 335.94 337.18 L 336.07 336.81 L 336.17 336.80 L 336.25 336.70 L 336.37 336.65 L 336.40 336.61 L 336.45 336.59 L 336.63 336.56 L 337.00 336.49 L 337.24 336.00 L 337.50 335.97 L 337.51 335.94 L 337.56 335.53 L 337.59 335.53 L 338.10 335.53 L 338.11 335.49 L 338.19 335.11 L 338.41 335.06 L 338.55 335.05 L 338.58 335.04 L 338.59 335.00 L 338.65 334.97 L 338.69 334.58 L 338.71 334.57 L 338.84 334.57 L 338.85 334.54 L 339.12 334.50 L 339.85 334.49 L 340.02 334.46 L 340.08 334.44 L 340.11 334.32 L 340.16 334.32 L 340.26 333.89 L 352.00 333.75 L 352.02 333.63 L 352.12 333.54 L 352.15 333.52 L 352.21 333.15 L 352.34 333.06 L 352.36 333.04 L 352.57 333.04 L 352.63 333.04 L 352.66 332.67 L 352.85 332.62 L 353.36 332.61 L 353.37 332.59 L 353.50 332.39 L 353.55 332.39 L 353.58 332.05 L 354.00 332.05 L 354.01 332.03 L 354.66 331.95 L 354.73 331.54 L 354.96 331.54 L 355.23 331.54 L 355.30 331.24 L 355.34 331.00 L 355.46 330.99 L 355.79 330.94 L 355.85 330.93 L 356.00 330.83 L 356.16 330.83 L 356.65 330.83 L 356.71 330.83 L 356.82 330.81 L 356.83 330.81 L 356.99 330.81 L 357.36 330.78 L 357.75 330.74 L 357.81 330.74 L 357.89 330.70 L 358.00 330.59 L 358.29 330.59 L 358.79 330.45 L 358.95 330.23 L 359.22 330.20 L 360.30 329.95 L 360.54 329.95 L 360.71 329.95 L 360.98 329.94 L 361.07 329.92 L 361.34 329.80 L 361.76 329.78 L 361.82 329.67 L 361.90 329.61 L 361.95 329.63 L 361.99 329.58 L 362.32 329.57 L 370.10 329.56 L 370.18 329.56 L 370.66 329.56 L 370.71 329.55 L 370.81 329.21 L 370.90 329.19 L 370.92 329.19 L 371.18 329.18 L 371.25 329.16 L 372.84 328.66 L 373.03 328.61 L 373.17 328.60 L 373.20 328.60 L 373.69 328.58 L 373.86 328.66 L 373.89 328.65 L 374.16 328.62 L 374.45 328.14 L 374.48 328.13 L 374.72 328.12 L 374.82 328.12 L 374.92 328.12 L 375.12 328.02 L 375.55 327.59 L 375.63 327.59 L 375.71 327.52 L 375.89 327.13 L 376.32 326.69 L 376.70 326.72 L 376.77 326.49 L 377.17 326.49 L 377.23 326.46 L 377.29 326.44 L 377.33 326.21 L 377.47 326.20 L 377.50 326.20 L 377.56 326.20 L 377.79 326.20 L 378.12 326.02 L 378.33 326.00 L 378.57 326.00 L 378.69 326.00 L 378.92 326.00 L 379.32 326.00 L 379.71 326.00 L 380.01 326.00 L 380.07 325.99 L 380.15 325.99 L 380.15 325.91 L 380.38 325.85 L 380.45 325.85 L 380.54 325.84 L 381.18 325.83 L 381.19 325.61 L 381.37 325.61 L 382.11 325.61 L 382.61 325.61 L 382.97 325.56 L 382.98 325.47 L 383.01 325.47 L 393.90 325.32 L 393.94 325.31 L 394.07 325.30 L 394.13 325.16 L 394.16 325.16 L 394.17 325.16 L 394.64 325.11 L 394.74 324.66 L 394.88 324.56 L 395.11 323.66 L 395.26 323.65 L 395.45 323.26 L 395.55 323.31 L 395.60 323.30 L 395.66 322.81 L 395.79 322.73 L 395.81 322.39 L 395.86 322.34 L 395.97 322.31 L 396.05 322.14 L 396.15 324.16 L 396.28 324.12 L 396.55 323.31 L 396.67 323.13 L 396.77 322.95 L 397.44 322.63 L 398.01 322.29 L 398.70 321.82 L 398.88 321.76 L 399.07 321.76 L 399.29 321.72 L 403.29 321.48 L 403.63 321.46 L 441.60 320.83 L 561.16 320.81 L 561.55 320.52 L 561.83 320.48 L 562.10 320.48 L 562.52 320.22 L 562.66 319.92 L 562.77 319.37 L 562.96 319.22 L 563.23 319.27 L 563.45 318.95 L 563.51 318.94 L 563.69 318.84 L 563.73 318.84 L 563.93 318.30 L 564.11 317.48 L 564.65 317.40 L 564.67 317.31 L 564.82 316.24 L 565.34 316.20 L 565.35 316.10 L 565.45 316.03 L 565.57 315.06 L 566.13 315.02 L 566.14 314.88 L 566.26 314.81 L 566.39 314.18 L 566.60 314.16 L 566.61 314.05 L 566.70 312.99 L 566.72 312.97 L 566.77 312.94 L 567.00 312.94 L 567.03 312.83 L 567.11 312.75 L 567.37 312.65 L 567.42 312.64 L 567.62 312.59 L 567.95 312.63 L 568.00 312.58 L 568.05 312.56 L 568.10 312.52 L 568.27 311.43 L 568.45 311.40 L 568.47 311.31 L 568.57 310.19 L 568.67 309.78 L 568.70 309.63 L 568.80 309.08 L 568.85 308.13 L 569.06 308.12 L 569.09 308.06 L 569.19 307.87 L 569.33 307.87 L 570.19 307.84 L 570.62 307.81 L 579.96 307.85 L 580.05 307.64 L 580.14 307.48 L 580.30 306.72 L 580.65 306.71 L 580.68 306.63 L 580.75 305.67 L 580.97 305.67 L 580.99 305.57 L 583.03 305.48 L 583.16 305.13 L 584.19 304.96 L 584.30 304.93 L 584.42 303.86 L 585.66 303.56 L 586.19 303.30 L 586.32 302.50 L 586.76 302.50 L 587.04 302.05 L 587.50 301.37 L 588.32 300.95 L 600.82 300.95 L 601.57 300.94 L 601.60 300.94 L 602.64 300.78 L 602.70 300.70 L 603.06 300.63 L 603.49 299.74 L 603.49 299.74 L 603.54 299.70 L 604.09 299.51 L 605.38 298.92 L 605.46 298.86 L 605.59 298.85 L 605.79 298.60 L 605.84 298.56 L 605.92 298.51 L 606.52 298.51 L 607.00 298.51 L 607.25 298.51 L 607.29 298.47 L 607.82 297.56 L 608.23 297.48 L 608.25 297.41 L 608.30 297.33 L 608.36 297.10 L 621.92 296.93 L 621.95 296.91 L 621.99 296.89 L 622.25 296.78 L 622.46 296.67 L 623.65 296.16 L 623.95 296.05 L 624.81 295.66 L 625.55 295.60 L 626.10 295.45 L 626.26 294.11 L 626.94 293.88 L 627.20 293.82 L 627.28 292.85 L 629.29 291.93 L 629.31 291.93 L 629.42 291.50 L 629.80 291.46 L 629.81 291.46 L 629.83 291.35 L 629.90 291.23 L 630.07 291.13 L 630.29 290.47 L 632.37 290.13 L 632.64 289.98 L 632.83 289.62 L 632.86 289.58 L 632.90 289.35 L 642.14 288.50 L 642.44 287.90 L 642.61 287.87 L 642.68 287.47 L 643.55 287.30 L 643.73 286.87 L 643.89 286.87 L 643.99 285.97 L 644.28 285.76 L 644.33 285.73 L 644.72 285.68 L 644.81 284.94 L 645.14 284.85 L 645.21 284.27 L 645.48 284.21 L 645.68 283.87 L 645.84 283.22 L 646.19 283.10 L 646.23 282.43 L 646.67 283.93 L 646.71 283.93 L 646.79 283.08 L 646.88 283.08 L 646.92 283.01 L 647.44 282.93 L 648.19 282.58 L 648.56 282.76 L 649.78 282.73 L 649.81 282.73 L 650.00 282.71"/>
	</g>
	<g class="poloto_legend poloto_imgs poloto_line poloto0 poloto_stroke"><line x1="680" x2="730" y1="81.25" y2="81.25"/></g>
	<g class="poloto_legend poloto_imgs poloto_line poloto1 poloto_stroke"><line x1="680" x2="730" y1="131.25" y2="131.25"/></g>
	<g class="poloto_legend poloto_imgs poloto_line poloto2 poloto_stroke"><line x1="680" x2="730" y1="181.25" y2="181.25"/></g>
	<text class="poloto_legend poloto_text poloto_line poloto0" x="675" y="100">total</text>
	<text class="poloto_legend poloto_text poloto_line poloto1" x="675" y="150">code</text>
	<text class="poloto_legend poloto_text poloto_line poloto2" x="675" y="200">docs</text>
	<text class="poloto_text poloto_name poloto_title" x="400.00" y="37.50">Workspace lines over time</text>
	<text class="poloto_text poloto_name poloto_x" x="400.00" y="640">date (JST)</text>
	<text class="poloto_text poloto_name poloto_y" x="37.50" y="250.00" transform="rotate(-90,37.50,250.00)">lines</text>
	<text class="poloto_text poloto_ticks poloto_y">
		<tspan x="135.00" y="400.00">0</tspan>
		<tspan x="135.00" y="321.10">50K</tspan>
		<tspan x="135.00" y="242.21">100K</tspan>
		<tspan x="135.00" y="163.31">150K</tspan>
	</text>
	<g class="poloto_imgs poloto_ticks poloto_y" stroke="black">
		<line x1="150.00" x2="144.00" y1="400.00" y2="400.00"/>
		<line x1="150.00" x2="144.00" y1="321.10" y2="321.10"/>
		<line x1="150.00" x2="144.00" y1="242.21" y2="242.21"/>
		<line x1="150.00" x2="144.00" y1="163.31" y2="163.31"/>
	</g>
	<g class="poloto_text poloto_ticks poloto_x">
		<text x="228.16" y="430.00" text-anchor="end" transform="rotate(-90 228.16 430.00)">2026-04-24 12:06</text>
		<text x="348.47" y="430.00" text-anchor="end" transform="rotate(-90 348.47 430.00)">2026-04-30 07:00</text>
		<text x="468.78" y="430.00" text-anchor="end" transform="rotate(-90 468.78 430.00)">2026-05-06 01:53</text>
		<text x="589.09" y="430.00" text-anchor="end" transform="rotate(-90 589.09 430.00)">2026-05-11 20:46</text>
	</g>
	<g class="poloto_imgs poloto_ticks poloto_x" stroke="black">
		<line x1="228.16" x2="228.16" y1="400.00" y2="405.00"/>
		<line x1="348.47" x2="348.47" y1="400.00" y2="405.00"/>
		<line x1="468.78" x2="468.78" y1="400.00" y2="405.00"/>
		<line x1="589.09" x2="589.09" y1="400.00" y2="405.00"/>
	</g>
	<path class="poloto_imgs poloto_ticks poloto_x" stroke="black" style="stroke-dasharray:12.030949376652451;stroke-dashoffset:-78.15858138742624;" d=" M 150.00 400.00 L 650.00 400.00"/>
	<path class="poloto_imgs poloto_ticks poloto_y" stroke="black" style="stroke-dasharray:7.889670842932434;stroke-dashoffset:-0;" d=" M 150.00 400.00 L 150.00 100.00"/>
</svg>

