<svg class="poloto" width="800" height="680" viewBox="0 0 800 680" xmlns="http://www.w3.org/2000/svg">
	<style>
.poloto{
  stroke-linecap:round;
  stroke-linejoin:round;
  font-family:Roboto,sans-serif;
  font-size:16px;
}
.poloto_background{fill:AliceBlue;}
.poloto_scatter{stroke-width:7}
.poloto_line{stroke-width:2}
.poloto_text{fill: black;}
.poloto_name{font-size:24px;dominant-baseline:auto;text-anchor:middle;}
.poloto_where{dominant-baseline:middle;text-anchor:start}
.poloto_text.poloto_legend{font-size:20px;dominant-baseline:middle;text-anchor:start;}
.poloto_text.poloto_ticks.poloto_y{dominant-baseline:middle;text-anchor:end}
.poloto_text.poloto_ticks.poloto_x{dominant-baseline:auto;text-anchor:middle}
.poloto_imgs.poloto_ticks{stroke: black;stroke-width:3;fill:none;stroke-dasharray:none}
.poloto_grid{stroke:gray;stroke-width:0.5}

.poloto0.poloto_stroke{stroke:blue;}
.poloto1.poloto_stroke{stroke:red;}
.poloto2.poloto_stroke{stroke:green;}
.poloto3.poloto_stroke{stroke:gold;}
.poloto4.poloto_stroke{stroke:aqua;}
.poloto5.poloto_stroke{stroke:lime;}
.poloto6.poloto_stroke{stroke:orange;}
.poloto7.poloto_stroke{stroke:chocolate;}
.poloto0.poloto_fill{fill:blue;}
.poloto1.poloto_fill{fill:red;}
.poloto2.poloto_fill{fill:green;}
.poloto3.poloto_fill{fill:gold;}
.poloto4.poloto_fill{fill:aqua;}
.poloto5.poloto_fill{fill:lime;}
.poloto6.poloto_fill{fill:orange;}
.poloto7.poloto_fill{fill:chocolate;}
	</style>
	<circle r="1e5" class="poloto_background" fill="white"/>
	<g id="poloto_plot0" class="poloto_plot poloto_imgs poloto_line poloto0 poloto_stroke" fill="none" stroke="black">
		<path d=" M 150.00 369.28 L 150.03 369.26 L 150.04 369.24 L 150.05 369.24 L 150.08 369.24 L 150.11 365.91 L 150.23 365.51 L 150.52 365.49 L 150.93 365.21 L 151.14 363.52 L 151.57 363.41 L 151.64 363.33 L 151.70 363.29 L 152.19 362.46 L 153.12 361.79 L 153.41 359.17 L 153.49 359.18 L 154.05 359.07 L 154.69 359.06 L 154.70 359.06 L 154.70 359.06 L 163.42 359.06 L 163.48 359.06 L 163.59 359.03 L 163.64 359.00 L 163.97 358.85 L 164.12 358.81 L 164.49 358.57 L 164.54 358.46 L 164.65 358.23 L 164.76 358.19 L 164.79 358.19 L 164.88 358.13 L 164.98 358.13 L 165.07 358.13 L 165.32 357.74 L 165.53 357.50 L 165.57 357.50 L 165.67 357.36 L 166.37 357.96 L 166.38 357.96 L 166.47 357.86 L 166.86 357.41 L 167.18 356.88 L 167.54 356.64 L 167.61 356.60 L 167.62 356.60 L 167.69 356.39 L 167.83 356.39 L 168.00 356.32 L 168.34 356.12 L 168.37 355.81 L 168.43 355.81 L 168.51 355.64 L 168.71 355.64 L 168.73 355.64 L 168.93 355.20 L 169.01 355.17 L 169.08 355.14 L 169.17 354.96 L 170.23 354.71 L 170.48 354.67 L 171.07 354.35 L 171.20 354.35 L 171.29 354.34 L 171.34 354.11 L 171.75 352.79 L 171.93 352.76 L 172.14 352.32 L 172.24 352.28 L 172.49 351.91 L 172.59 351.78 L 172.74 351.54 L 172.88 351.33 L 173.34 348.28 L 173.36 348.21 L 173.38 348.02 L 173.54 346.56 L 181.63 346.45 L 182.46 344.78 L 182.49 344.74 L 183.48 344.48 L 183.56 344.47 L 183.65 344.14 L 183.90 343.98 L 184.01 343.69 L 184.05 343.44 L 184.17 343.00 L 184.46 343.00 L 184.47 342.70 L 184.58 342.37 L 184.69 342.37 L 184.82 342.00 L 184.97 341.74 L 185.04 341.61 L 185.06 341.60 L 185.20 341.31 L 185.22 341.31 L 185.37 341.02 L 185.40 341.01 L 185.63 339.64 L 185.67 339.64 L 185.75 339.41 L 185.85 339.40 L 185.98 339.40 L 186.04 339.37 L 186.49 339.11 L 186.50 339.11 L 186.59 338.50 L 186.79 338.49 L 186.97 337.57 L 187.03 337.49 L 187.11 337.48 L 187.16 337.45 L 187.26 336.74 L 187.77 330.76 L 187.82 330.47 L 188.00 330.44 L 188.05 330.37 L 188.09 330.35 L 188.17 330.19 L 188.25 329.51 L 188.43 329.37 L 188.55 329.36 L 188.66 329.06 L 188.71 329.05 L 189.17 328.83 L 189.42 328.66 L 189.49 328.39 L 189.71 328.38 L 189.73 328.38 L 189.74 328.35 L 189.88 326.91 L 189.99 326.83 L 190.36 325.38 L 190.42 324.96 L 190.49 324.95 L 190.59 324.79 L 190.60 324.68 L 190.65 324.61 L 190.68 324.57 L 190.74 324.57 L 190.78 324.49 L 190.93 323.31 L 191.04 323.13 L 191.15 322.78 L 191.30 322.76 L 191.46 322.65 L 191.62 321.81 L 191.74 320.64 L 191.97 320.58 L 191.98 320.15 L 192.11 320.00 L 203.40 320.00 L 203.62 319.99 L 204.15 319.38 L 204.26 319.36 L 204.35 319.36 L 204.36 319.21 L 204.56 319.02 L 204.69 318.99 L 204.77 318.87 L 204.85 318.79 L 204.89 318.75 L 205.10 318.69 L 205.50 318.62 L 205.61 318.30 L 205.68 318.22 L 205.78 318.21 L 206.30 318.05 L 206.38 317.96 L 206.41 317.96 L 206.44 317.84 L 206.56 317.79 L 206.65 317.67 L 207.03 316.89 L 207.57 316.77 L 207.77 316.72 L 208.37 316.52 L 208.66 312.76 L 208.76 312.68 L 208.88 312.31 L 209.06 311.82 L 209.34 311.68 L 209.72 311.66 L 210.23 311.65 L 210.31 311.49 L 210.68 311.31 L 210.92 311.04 L 211.00 310.93 L 211.14 310.89 L 211.26 310.55 L 212.59 310.18 L 213.86 310.18 L 225.22 310.15 L 225.30 309.99 L 225.36 309.88 L 225.72 309.72 L 226.78 308.42 L 226.83 308.34 L 226.97 308.00 L 227.50 307.92 L 227.74 307.04 L 228.12 307.03 L 228.21 307.02 L 228.29 306.42 L 228.95 303.00 L 229.03 302.99 L 229.16 302.96 L 229.31 302.92 L 229.38 302.55 L 229.75 301.26 L 229.88 301.02 L 229.94 301.00 L 230.02 300.41 L 230.19 299.57 L 230.25 298.68 L 230.42 298.28 L 230.91 293.83 L 230.96 293.38 L 231.01 293.38 L 231.08 293.30 L 231.20 293.19 L 231.25 293.15 L 231.30 293.10 L 231.54 292.03 L 231.59 291.28 L 231.88 291.13 L 232.05 290.01 L 232.16 289.31 L 233.04 278.94 L 233.14 278.91 L 266.53 278.42 L 266.56 278.42 L 279.32 278.27 L 280.02 277.99 L 280.16 277.99 L 280.35 277.91 L 280.41 277.78 L 280.48 277.74 L 286.02 277.67 L 286.75 275.70 L 287.02 275.52 L 287.16 274.80 L 290.61 274.65 L 290.63 274.45 L 290.85 274.43 L 291.88 273.19 L 291.94 272.96 L 292.07 272.88 L 292.43 272.80 L 292.48 272.77 L 292.62 272.39 L 292.78 272.29 L 292.80 272.01 L 303.52 271.63 L 303.61 270.57 L 304.03 270.34 L 304.04 268.56 L 304.11 268.29 L 304.20 267.86 L 304.32 266.63 L 304.50 265.98 L 304.66 265.22 L 304.80 265.21 L 304.85 264.63 L 305.07 264.58 L 305.81 261.72 L 306.11 261.41 L 306.16 261.23 L 306.22 261.22 L 306.26 261.03 L 306.36 260.32 L 306.66 259.99 L 306.71 259.94 L 306.89 257.42 L 306.96 257.41 L 306.99 257.14 L 307.06 256.94 L 307.11 256.93 L 307.15 256.55 L 307.38 255.19 L 307.49 254.80 L 307.62 254.75 L 307.71 251.11 L 307.75 250.81 L 307.98 248.73 L 308.05 248.57 L 308.09 248.57 L 308.15 248.56 L 308.19 248.27 L 308.22 248.28 L 308.23 248.27 L 308.35 244.59 L 308.39 244.27 L 308.51 244.25 L 308.59 244.19 L 308.84 244.09 L 309.13 243.94 L 309.14 243.94 L 309.22 243.90 L 309.50 243.83 L 309.63 243.83 L 309.76 243.83 L 309.90 242.23 L 309.99 241.84 L 310.37 241.84 L 310.40 241.58 L 310.45 241.58 L 310.48 241.31 L 310.73 238.99 L 310.77 238.93 L 310.95 238.92 L 327.45 238.85 L 328.39 238.73 L 328.42 238.73 L 328.61 238.73 L 328.62 238.73 L 328.74 238.27 L 328.83 238.25 L 328.91 238.02 L 329.03 237.97 L 329.06 237.93 L 329.10 237.91 L 329.28 237.66 L 329.64 237.43 L 329.86 236.68 L 330.12 235.97 L 330.13 235.93 L 330.17 235.27 L 330.20 235.25 L 330.69 234.85 L 330.70 234.81 L 330.78 234.28 L 330.99 234.22 L 331.12 234.17 L 331.15 233.23 L 331.16 233.18 L 331.22 234.08 L 331.26 233.53 L 331.28 233.51 L 331.40 232.25 L 331.41 232.21 L 331.67 232.11 L 332.37 232.09 L 332.54 232.05 L 332.59 232.04 L 332.63 231.87 L 332.67 231.87 L 332.77 231.25 L 344.04 230.05 L 344.06 229.89 L 344.16 229.77 L 344.19 229.54 L 344.25 219.05 L 344.37 214.75 L 344.39 214.72 L 344.60 214.64 L 344.64 214.64 L 344.68 214.15 L 344.86 214.10 L 345.35 213.08 L 345.36 213.06 L 345.48 212.75 L 345.53 212.76 L 345.56 212.25 L 345.97 211.65 L 345.98 211.63 L 346.59 211.40 L 346.67 210.86 L 346.89 210.87 L 347.14 209.52 L 347.21 208.98 L 347.25 208.55 L 347.37 208.03 L 347.69 207.85 L 347.75 207.71 L 347.89 207.60 L 348.04 207.60 L 348.51 207.60 L 348.57 207.60 L 348.68 207.57 L 348.69 207.57 L 348.84 207.58 L 349.20 207.56 L 349.56 207.36 L 349.62 207.36 L 349.70 207.28 L 349.81 207.14 L 350.09 207.14 L 350.57 206.95 L 350.72 206.53 L 350.98 202.91 L 352.02 205.97 L 352.24 205.96 L 352.41 205.94 L 352.67 205.94 L 352.75 205.88 L 353.01 205.71 L 353.42 205.46 L 353.47 205.29 L 353.55 205.22 L 353.60 205.24 L 353.64 205.19 L 353.96 204.96 L 361.43 204.96 L 361.50 204.96 L 361.97 204.95 L 362.01 204.93 L 362.12 204.47 L 362.20 204.21 L 362.22 204.21 L 362.47 204.17 L 362.54 204.15 L 364.07 203.47 L 364.25 203.41 L 364.38 203.39 L 364.41 203.39 L 364.88 203.23 L 365.04 203.31 L 365.07 203.30 L 365.33 203.26 L 365.61 201.83 L 365.64 201.82 L 365.87 201.66 L 365.97 201.66 L 366.06 201.66 L 366.25 201.50 L 366.67 200.92 L 366.75 200.90 L 366.82 200.74 L 366.99 200.06 L 367.40 199.35 L 367.77 196.02 L 367.84 195.61 L 368.22 195.45 L 368.28 195.37 L 368.34 195.21 L 368.38 194.67 L 368.51 193.72 L 368.54 193.75 L 368.60 193.74 L 368.81 193.73 L 369.14 193.38 L 369.34 193.31 L 369.57 193.30 L 369.68 193.29 L 369.91 193.27 L 370.28 193.27 L 370.66 193.27 L 370.95 193.26 L 371.01 193.25 L 371.08 193.24 L 371.09 193.12 L 371.31 193.06 L 371.37 193.04 L 371.46 192.90 L 372.07 192.88 L 372.08 192.59 L 372.25 192.58 L 372.97 192.58 L 373.44 192.41 L 373.79 192.19 L 373.80 192.08 L 373.83 192.08 L 384.30 191.88 L 384.33 191.87 L 384.45 191.86 L 384.51 191.70 L 384.55 191.68 L 384.55 191.67 L 385.00 191.62 L 385.10 191.02 L 385.23 190.88 L 385.46 189.70 L 385.60 189.69 L 385.78 189.18 L 385.88 189.24 L 385.93 189.24 L 385.98 188.66 L 386.11 188.27 L 386.13 187.85 L 386.17 187.79 L 386.29 187.76 L 386.36 187.56 L 386.45 189.83 L 386.58 189.78 L 386.84 188.88 L 386.95 188.66 L 387.05 188.47 L 387.69 187.17 L 388.25 186.54 L 388.91 185.34 L 389.08 185.28 L 389.26 185.28 L 389.47 185.23 L 393.32 184.89 L 393.64 184.86 L 430.11 183.94 L 544.96 183.73 L 545.34 183.36 L 545.61 183.31 L 545.87 183.31 L 546.27 182.61 L 546.40 182.27 L 546.51 181.63 L 546.69 179.81 L 546.96 180.18 L 547.17 179.79 L 547.22 179.78 L 547.40 179.66 L 547.44 179.66 L 547.63 178.99 L 547.80 177.92 L 548.32 176.78 L 548.33 176.69 L 548.48 175.33 L 548.98 171.97 L 548.99 171.86 L 549.08 171.79 L 549.20 170.59 L 549.74 168.97 L 549.75 168.82 L 549.87 168.75 L 549.99 167.95 L 550.19 167.32 L 550.20 167.20 L 550.29 165.97 L 550.31 165.94 L 550.35 165.60 L 550.58 163.41 L 550.61 163.29 L 550.69 163.16 L 550.93 162.87 L 550.98 162.86 L 551.17 162.44 L 551.49 162.49 L 551.54 162.43 L 551.58 162.41 L 551.64 162.37 L 551.80 161.09 L 551.97 160.04 L 551.99 159.95 L 552.08 158.64 L 552.18 157.36 L 552.21 157.20 L 552.31 155.70 L 552.35 154.53 L 552.55 153.73 L 552.58 153.68 L 552.68 153.43 L 552.82 153.41 L 553.64 153.38 L 554.05 153.34 L 563.02 153.39 L 563.11 153.16 L 563.20 152.96 L 563.36 152.08 L 563.69 151.86 L 563.72 151.77 L 563.78 150.60 L 564.00 149.48 L 564.02 149.38 L 565.98 149.30 L 566.10 148.67 L 567.08 148.48 L 567.19 148.43 L 567.31 147.12 L 568.50 145.89 L 569.01 145.42 L 569.13 144.46 L 569.56 142.81 L 569.83 142.33 L 570.27 141.36 L 571.05 140.87 L 583.06 140.86 L 583.78 140.75 L 583.81 140.77 L 584.82 140.58 L 584.87 140.48 L 585.22 140.41 L 585.63 139.33 L 585.63 139.33 L 585.67 139.29 L 586.21 138.06 L 587.44 137.36 L 587.52 137.30 L 587.65 137.29 L 587.84 136.97 L 587.89 136.88 L 587.96 136.82 L 588.53 136.77 L 589.00 136.77 L 589.24 136.77 L 589.28 136.72 L 589.79 135.65 L 590.19 135.45 L 590.20 135.37 L 590.25 135.28 L 590.31 134.99 L 603.34 134.58 L 603.36 134.56 L 603.40 134.54 L 603.65 134.42 L 603.85 134.29 L 605.00 132.64 L 605.28 132.44 L 606.11 131.95 L 606.82 131.83 L 607.35 131.67 L 607.50 130.15 L 608.16 128.36 L 608.40 128.23 L 608.49 127.09 L 610.41 124.97 L 610.43 124.97 L 610.54 124.45 L 610.91 124.39 L 610.91 124.39 L 610.93 124.27 L 611.00 124.10 L 611.16 123.94 L 611.37 123.05 L 613.37 120.91 L 613.63 120.65 L 613.81 120.27 L 613.84 120.22 L 613.88 119.92 L 622.75 118.95 L 623.04 118.22 L 623.21 118.18 L 623.27 117.70 L 624.11 117.47 L 624.28 116.98 L 624.44 116.98 L 624.53 115.96 L 624.81 113.35 L 624.86 113.30 L 625.23 113.26 L 625.32 112.41 L 625.64 111.39 L 625.70 110.68 L 625.97 110.03 L 626.16 109.68 L 626.31 108.90 L 626.64 108.24 L 626.68 107.49 L 627.11 107.32 L 627.15 107.32 L 627.22 106.38 L 627.31 106.38 L 627.35 106.30 L 627.85 104.53 L 628.56 103.95 L 628.92 104.14 L 630.10 104.05 L 630.12 104.05 L 630.31 104.03 L 630.39 104.01 L 630.52 103.89 L 630.66 103.78 L 630.82 103.59 L 631.17 103.33 L 631.51 103.32 L 632.56 103.14 L 632.61 103.13 L 633.66 102.96 L 634.11 102.85 L 643.09 102.83 L 643.54 102.70 L 643.76 102.62 L 643.86 102.62 L 643.89 102.62 L 644.12 102.59 L 644.22 102.54 L 644.48 102.37 L 644.65 102.33 L 645.23 102.15 L 645.53 101.75 L 646.04 101.69 L 646.18 101.44 L 646.35 101.28 L 646.57 101.08 L 647.35 101.13 L 647.42 101.11 L 648.55 100.62 L 648.73 100.33 L 648.96 100.23 L 649.51 100.00 L 649.76 100.06 L 649.89 100.45 L 650.00 100.43"/>
	</g>
	<g id="poloto_plot1" class="poloto_plot poloto_imgs poloto_line poloto1 poloto_stroke" fill="none" stroke="black">
		<path d=" M 150.00 381.75 L 150.03 381.73 L 150.04 381.72 L 150.05 381.72 L 150.08 381.72 L 150.11 381.14 L 150.23 381.12 L 150.52 381.11 L 150.93 380.89 L 151.14 380.80 L 151.57 380.82 L 151.64 380.78 L 151.70 380.78 L 152.19 380.73 L 153.12 380.63 L 153.41 378.37 L 153.49 378.37 L 154.05 378.32 L 154.69 378.31 L 154.70 378.31 L 154.70 378.31 L 163.42 378.31 L 163.48 378.31 L 163.59 378.30 L 163.64 378.27 L 163.97 378.26 L 164.12 378.26 L 164.49 378.26 L 164.54 378.26 L 164.65 378.24 L 164.76 378.24 L 164.79 378.24 L 164.88 378.22 L 164.98 378.22 L 165.07 378.22 L 165.32 378.09 L 165.53 378.09 L 165.57 378.09 L 165.67 378.09 L 166.37 378.94 L 166.38 378.94 L 166.47 378.93 L 166.86 378.80 L 167.18 378.66 L 167.54 378.60 L 167.61 378.55 L 167.62 378.55 L 167.69 378.55 L 167.83 378.55 L 168.00 378.50 L 168.34 378.45 L 168.37 378.45 L 168.43 378.45 L 168.51 378.43 L 168.71 378.43 L 168.73 378.43 L 168.93 378.42 L 169.01 378.42 L 169.08 378.42 L 169.17 378.42 L 170.23 378.32 L 170.48 378.31 L 171.07 378.27 L 171.20 378.27 L 171.29 378.27 L 171.34 378.27 L 171.75 378.20 L 171.93 378.20 L 172.14 378.12 L 172.24 378.11 L 172.49 377.93 L 172.59 377.86 L 172.74 377.86 L 172.88 377.86 L 173.34 375.22 L 173.36 375.17 L 173.38 375.17 L 173.54 374.92 L 181.63 374.92 L 182.46 373.78 L 182.49 373.78 L 183.48 373.78 L 183.56 373.78 L 183.65 373.66 L 183.90 373.64 L 184.01 373.64 L 184.05 373.64 L 184.17 373.64 L 184.46 373.64 L 184.47 373.39 L 184.58 373.38 L 184.69 373.38 L 184.82 373.36 L 184.97 373.35 L 185.04 373.35 L 185.06 373.35 L 185.20 373.35 L 185.22 373.35 L 185.37 373.35 L 185.40 373.35 L 185.63 372.23 L 185.67 372.23 L 185.75 372.10 L 185.85 372.10 L 185.98 372.10 L 186.04 372.09 L 186.49 372.08 L 186.50 372.08 L 186.59 372.01 L 186.79 372.01 L 186.97 371.37 L 187.03 371.29 L 187.11 371.29 L 187.16 371.29 L 187.26 371.27 L 187.77 366.56 L 187.82 366.60 L 188.00 366.60 L 188.05 366.60 L 188.09 366.59 L 188.17 366.59 L 188.25 366.53 L 188.43 366.53 L 188.55 366.53 L 188.66 366.52 L 188.71 366.52 L 189.17 366.51 L 189.42 366.51 L 189.49 366.39 L 189.71 366.39 L 189.73 366.39 L 189.74 366.39 L 189.88 366.08 L 189.99 365.99 L 190.36 364.87 L 190.42 364.87 L 190.49 364.87 L 190.59 364.89 L 190.60 364.89 L 190.65 364.89 L 190.68 364.89 L 190.74 364.89 L 190.78 364.89 L 190.93 364.87 L 191.04 364.87 L 191.15 364.85 L 191.30 364.85 L 191.46 364.85 L 191.62 364.43 L 191.74 364.29 L 191.97 364.29 L 191.98 364.28 L 192.11 364.28 L 203.40 364.28 L 203.62 364.28 L 204.15 364.21 L 204.26 364.19 L 204.35 364.19 L 204.36 364.19 L 204.56 364.19 L 204.69 364.19 L 204.77 364.19 L 204.85 364.19 L 204.89 364.19 L 205.10 364.19 L 205.50 364.21 L 205.61 364.21 L 205.68 364.21 L 205.78 364.21 L 206.30 364.12 L 206.38 364.08 L 206.41 364.08 L 206.44 364.02 L 206.56 364.02 L 206.65 364.01 L 207.03 363.59 L 207.57 363.59 L 207.77 363.59 L 208.37 363.59 L 208.66 360.70 L 208.76 360.70 L 208.88 360.70 L 209.06 360.69 L 209.34 360.69 L 209.72 360.69 L 210.23 360.69 L 210.31 360.69 L 210.68 360.62 L 210.92 360.50 L 211.00 360.50 L 211.14 360.50 L 211.26 360.49 L 212.59 360.30 L 213.86 360.30 L 225.22 360.30 L 225.30 360.30 L 225.36 360.30 L 225.72 360.30 L 226.78 359.39 L 226.83 359.36 L 226.97 359.27 L 227.50 359.26 L 227.74 359.05 L 228.12 359.05 L 228.21 359.05 L 228.29 359.05 L 228.95 356.52 L 229.03 356.52 L 229.16 356.52 L 229.31 356.52 L 229.38 356.35 L 229.75 356.05 L 229.88 356.05 L 229.94 356.05 L 230.02 355.58 L 230.19 355.12 L 230.25 355.12 L 230.42 355.11 L 230.91 351.34 L 230.96 351.34 L 231.01 351.34 L 231.08 351.34 L 231.20 351.34 L 231.25 351.34 L 231.30 351.34 L 231.54 351.34 L 231.59 351.25 L 231.88 351.24 L 232.05 351.18 L 232.16 350.73 L 233.04 343.22 L 233.14 343.22 L 266.53 343.22 L 266.56 343.22 L 279.32 343.22 L 280.02 343.11 L 280.16 343.11 L 280.35 343.11 L 280.41 343.11 L 280.48 343.11 L 286.02 343.05 L 286.75 342.98 L 287.02 342.98 L 287.16 342.95 L 290.61 342.89 L 290.63 342.79 L 290.85 342.79 L 291.88 341.77 L 291.94 341.77 L 292.07 341.77 L 292.43 341.77 L 292.48 341.77 L 292.62 341.77 L 292.78 341.77 L 292.80 341.77 L 303.52 341.75 L 303.61 341.57 L 304.03 341.57 L 304.04 340.35 L 304.11 340.35 L 304.20 340.35 L 304.32 340.23 L 304.50 340.23 L 304.66 340.18 L 304.80 340.18 L 304.85 340.18 L 305.07 340.17 L 305.81 338.08 L 306.11 338.08 L 306.16 338.07 L 306.22 338.07 L 306.26 338.07 L 306.36 338.04 L 306.66 337.78 L 306.71 337.74 L 306.89 335.87 L 306.96 335.86 L 306.99 335.86 L 307.06 335.84 L 307.11 335.84 L 307.15 335.83 L 307.38 334.81 L 307.49 334.80 L 307.62 334.78 L 307.71 331.61 L 307.75 331.61 L 307.98 329.82 L 308.05 329.82 L 308.09 329.82 L 308.15 329.82 L 308.19 329.82 L 308.22 329.82 L 308.23 329.82 L 308.35 326.52 L 308.39 326.52 L 308.51 326.51 L 308.59 326.51 L 308.84 326.44 L 309.13 326.35 L 309.14 326.35 L 309.22 326.33 L 309.50 326.28 L 309.63 326.28 L 309.76 326.28 L 309.90 324.86 L 309.99 324.86 L 310.37 324.85 L 310.40 324.84 L 310.45 324.84 L 310.48 324.84 L 310.73 322.81 L 310.77 322.81 L 310.95 322.80 L 327.45 322.80 L 328.39 322.79 L 328.42 322.79 L 328.61 322.79 L 328.62 322.79 L 328.74 322.79 L 328.83 322.79 L 328.91 322.68 L 329.03 322.68 L 329.06 322.68 L 329.10 322.68 L 329.28 322.50 L 329.64 322.38 L 329.86 322.27 L 330.12 321.69 L 330.13 321.69 L 330.17 321.55 L 330.20 321.53 L 330.69 321.18 L 330.70 321.18 L 330.78 321.13 L 330.99 321.13 L 331.12 321.09 L 331.15 320.25 L 331.16 320.25 L 331.22 321.08 L 331.26 321.04 L 331.28 321.02 L 331.40 319.89 L 331.41 319.89 L 331.67 319.85 L 332.37 319.85 L 332.54 319.85 L 332.59 319.85 L 332.63 319.85 L 332.67 319.85 L 332.77 319.77 L 344.04 318.84 L 344.06 318.84 L 344.16 318.83 L 344.19 318.63 L 344.25 308.60 L 344.37 304.88 L 344.39 304.88 L 344.60 304.81 L 344.64 304.81 L 344.68 304.79 L 344.86 304.79 L 345.35 303.88 L 345.36 303.88 L 345.48 303.83 L 345.53 303.83 L 345.56 303.75 L 345.97 303.21 L 345.98 303.21 L 346.59 303.10 L 346.67 303.06 L 346.89 303.07 L 347.14 301.84 L 347.21 301.72 L 347.25 301.60 L 347.37 301.14 L 347.69 301.03 L 347.75 300.93 L 347.89 300.93 L 348.04 300.93 L 348.51 300.93 L 348.57 300.93 L 348.68 300.93 L 348.69 300.93 L 348.84 300.94 L 349.20 300.94 L 349.56 300.81 L 349.62 300.81 L 349.70 300.80 L 349.81 300.80 L 350.09 300.80 L 350.57 300.80 L 350.72 300.69 L 350.98 297.45 L 352.02 300.50 L 352.24 300.49 L 352.41 300.48 L 352.67 300.48 L 352.75 300.45 L 353.01 300.43 L 353.42 300.24 L 353.47 300.24 L 353.55 300.24 L 353.60 300.24 L 353.64 300.24 L 353.96 300.06 L 361.43 300.06 L 361.50 300.07 L 361.97 300.05 L 362.01 300.05 L 362.12 300.02 L 362.20 299.80 L 362.22 299.79 L 362.47 299.77 L 362.54 299.77 L 364.07 299.59 L 364.25 299.59 L 364.38 299.59 L 364.41 299.59 L 364.88 299.45 L 365.04 299.45 L 365.07 299.45 L 365.33 299.45 L 365.61 298.68 L 365.64 298.68 L 365.87 298.55 L 365.97 298.55 L 366.06 298.55 L 366.25 298.55 L 366.67 298.54 L 366.75 298.52 L 366.82 298.45 L 366.99 298.32 L 367.40 298.20 L 367.77 295.15 L 367.84 295.05 L 368.22 294.90 L 368.28 294.87 L 368.34 294.76 L 368.38 294.55 L 368.51 293.63 L 368.54 293.67 L 368.60 293.65 L 368.81 293.65 L 369.14 293.52 L 369.34 293.47 L 369.57 293.46 L 369.68 293.45 L 369.91 293.44 L 370.28 293.44 L 370.66 293.43 L 370.95 293.43 L 371.01 293.42 L 371.08 293.42 L 371.09 293.41 L 371.31 293.41 L 371.37 293.40 L 371.46 293.29 L 372.07 293.27 L 372.08 293.27 L 372.25 293.26 L 372.97 293.26 L 373.44 293.11 L 373.79 292.98 L 373.80 292.98 L 373.83 292.98 L 384.30 292.98 L 384.33 292.98 L 384.45 292.98 L 384.51 292.98 L 384.55 292.96 L 384.55 292.96 L 385.00 292.96 L 385.10 292.95 L 385.23 292.93 L 385.46 292.91 L 385.60 292.91 L 385.78 292.83 L 385.88 292.83 L 385.93 292.83 L 385.98 292.83 L 386.11 292.56 L 386.13 292.56 L 386.17 292.56 L 386.29 292.56 L 386.36 292.56 L 386.45 292.62 L 386.58 292.62 L 386.84 292.61 L 386.95 292.61 L 387.05 292.61 L 387.69 291.71 L 388.25 291.47 L 388.91 290.83 L 389.08 290.83 L 389.26 290.83 L 389.47 290.83 L 393.32 290.75 L 393.64 290.75 L 430.11 290.64 L 544.96 290.47 L 545.34 290.42 L 545.61 290.41 L 545.87 290.41 L 546.27 290.00 L 546.40 290.00 L 546.51 290.00 L 546.69 288.49 L 546.96 288.78 L 547.17 288.76 L 547.22 288.76 L 547.40 288.75 L 547.44 288.75 L 547.63 288.74 L 547.80 288.67 L 548.32 287.72 L 548.33 287.72 L 548.48 287.64 L 548.98 284.56 L 548.99 284.56 L 549.08 284.56 L 549.20 284.51 L 549.74 283.08 L 549.75 283.08 L 549.87 283.08 L 549.99 283.04 L 550.19 282.52 L 550.20 282.52 L 550.29 282.51 L 550.31 282.51 L 550.35 282.22 L 550.58 280.19 L 550.61 280.19 L 550.69 280.19 L 550.93 280.02 L 550.98 280.02 L 551.17 279.68 L 551.49 279.68 L 551.54 279.68 L 551.58 279.68 L 551.64 279.68 L 551.80 279.67 L 551.97 278.76 L 551.99 278.76 L 552.08 278.75 L 552.18 278.06 L 552.21 278.06 L 552.31 277.32 L 552.35 277.28 L 552.55 276.55 L 552.58 276.55 L 552.68 276.55 L 552.82 276.53 L 553.64 276.53 L 554.05 276.53 L 563.02 276.53 L 563.11 276.53 L 563.20 276.53 L 563.36 276.53 L 563.69 276.34 L 563.72 276.34 L 563.78 276.28 L 564.00 275.26 L 564.02 275.26 L 565.98 275.28 L 566.10 275.08 L 567.08 275.08 L 567.19 275.07 L 567.31 275.00 L 568.50 274.16 L 569.01 274.00 L 569.13 273.95 L 569.56 272.36 L 569.83 272.36 L 570.27 272.23 L 571.05 272.23 L 583.06 272.22 L 583.78 272.13 L 583.81 272.15 L 584.82 272.15 L 584.87 272.15 L 585.22 272.15 L 585.63 272.11 L 585.63 272.11 L 585.67 272.11 L 586.21 271.18 L 587.44 271.16 L 587.52 271.16 L 587.65 271.15 L 587.84 271.12 L 587.89 271.09 L 587.96 271.09 L 588.53 271.05 L 589.00 271.05 L 589.24 271.04 L 589.28 271.04 L 589.79 271.03 L 590.19 270.92 L 590.20 270.92 L 590.25 270.92 L 590.31 270.92 L 603.34 270.70 L 603.36 270.70 L 603.40 270.70 L 603.65 270.70 L 603.85 270.70 L 605.00 269.78 L 605.28 269.73 L 606.11 269.66 L 606.82 269.61 L 607.35 269.61 L 607.50 269.61 L 608.16 268.22 L 608.40 268.18 L 608.49 268.14 L 610.41 267.16 L 610.43 267.16 L 610.54 267.15 L 610.91 267.14 L 610.91 267.14 L 610.93 267.14 L 611.00 267.11 L 611.16 267.07 L 611.37 266.96 L 613.37 265.36 L 613.63 265.28 L 613.81 265.28 L 613.84 265.28 L 613.88 265.28 L 622.75 265.28 L 623.04 265.26 L 623.21 265.26 L 623.27 265.26 L 624.11 265.26 L 624.28 265.26 L 624.44 265.26 L 624.53 265.23 L 624.81 263.12 L 624.86 263.11 L 625.23 263.12 L 625.32 263.10 L 625.64 262.29 L 625.70 262.24 L 625.97 261.71 L 626.16 261.71 L 626.31 261.66 L 626.64 261.17 L 626.68 261.17 L 627.11 259.61 L 627.15 259.61 L 627.22 259.60 L 627.31 259.60 L 627.35 259.60 L 627.85 258.03 L 628.56 257.89 L 628.92 257.89 L 630.10 257.85 L 630.12 257.84 L 630.31 257.84 L 630.39 257.84 L 630.52 257.84 L 630.66 257.84 L 630.82 257.83 L 631.17 257.81 L 631.51 257.81 L 632.56 257.74 L 632.61 257.74 L 633.66 257.69 L 634.11 257.65 L 643.09 257.67 L 643.54 257.59 L 643.76 257.51 L 643.86 257.51 L 643.89 257.51 L 644.12 257.50 L 644.22 257.50 L 644.48 257.50 L 644.65 257.49 L 645.23 257.35 L 645.53 257.07 L 646.04 257.05 L 646.18 256.86 L 646.35 256.77 L 646.57 256.69 L 647.35 256.77 L 647.42 256.77 L 648.55 256.48 L 648.73 256.48 L 648.96 256.48 L 649.51 256.45 L 649.76 256.59 L 649.89 256.59 L 650.00 256.59"/>
	</g>
	<g id="poloto_plot2" class="poloto_plot poloto_imgs poloto_line poloto2 poloto_stroke" fill="none" stroke="black">
		<path d=" M 150.00 391.81 L 150.03 391.80 L 150.04 391.80 L 150.05 391.80 L 150.08 391.80 L 150.11 389.71 L 150.23 389.42 L 150.52 389.42 L 150.93 389.40 L 151.14 388.15 L 151.57 388.04 L 151.64 388.00 L 151.70 387.97 L 152.19 387.41 L 153.12 386.97 L 153.41 386.88 L 153.49 386.89 L 154.05 386.85 L 154.69 386.85 L 154.70 386.85 L 154.70 386.85 L 163.42 386.85 L 163.48 386.85 L 163.59 386.83 L 163.64 386.83 L 163.97 386.71 L 164.12 386.67 L 164.49 386.47 L 164.54 386.38 L 164.65 386.19 L 164.76 386.17 L 164.79 386.16 L 164.88 386.13 L 164.98 386.13 L 165.07 386.13 L 165.32 385.92 L 165.53 385.73 L 165.57 385.73 L 165.67 385.62 L 166.37 385.36 L 166.38 385.36 L 166.47 385.28 L 166.86 385.00 L 167.18 384.66 L 167.54 384.52 L 167.61 384.52 L 167.62 384.53 L 167.69 384.33 L 167.83 384.33 L 168.00 384.31 L 168.34 384.17 L 168.37 383.92 L 168.43 383.92 L 168.51 383.81 L 168.71 383.81 L 168.73 383.81 L 168.93 383.44 L 169.01 383.41 L 169.08 383.38 L 169.17 383.21 L 170.23 383.11 L 170.48 383.07 L 171.07 382.82 L 171.20 382.82 L 171.29 382.81 L 171.34 382.62 L 171.75 381.59 L 171.93 381.58 L 172.14 381.27 L 172.24 381.24 L 172.49 381.10 L 172.59 381.05 L 172.74 380.83 L 172.88 380.65 L 173.34 380.65 L 173.36 380.63 L 173.38 380.48 L 173.54 379.49 L 181.63 379.39 L 182.46 379.09 L 182.49 379.05 L 183.48 378.80 L 183.56 378.80 L 183.65 378.62 L 183.90 378.49 L 184.01 378.27 L 184.05 378.08 L 184.17 377.71 L 184.46 377.70 L 184.47 377.70 L 184.58 377.45 L 184.69 377.44 L 184.82 377.17 L 184.97 376.96 L 185.04 376.84 L 185.06 376.84 L 185.20 376.59 L 185.22 376.59 L 185.37 376.36 L 185.40 376.35 L 185.63 376.27 L 185.67 376.27 L 185.75 376.19 L 185.85 376.17 L 185.98 376.17 L 186.04 376.16 L 186.49 375.93 L 186.50 375.94 L 186.59 375.49 L 186.79 375.48 L 186.97 375.34 L 187.03 375.34 L 187.11 375.34 L 187.16 375.30 L 187.26 374.69 L 187.77 374.17 L 187.82 373.89 L 188.00 373.87 L 188.05 373.80 L 188.09 373.79 L 188.17 373.66 L 188.25 373.17 L 188.43 373.10 L 188.55 373.08 L 188.66 372.84 L 188.71 372.83 L 189.17 372.65 L 189.42 372.52 L 189.49 372.41 L 189.71 372.40 L 189.73 372.40 L 189.74 372.38 L 189.88 371.50 L 189.99 371.50 L 190.36 371.37 L 190.42 371.02 L 190.49 371.01 L 190.59 370.87 L 190.60 370.79 L 190.65 370.73 L 190.68 370.69 L 190.74 370.69 L 190.78 370.62 L 190.93 369.64 L 191.04 369.54 L 191.15 369.24 L 191.30 369.22 L 191.46 369.12 L 191.62 368.82 L 191.74 367.96 L 191.97 367.90 L 191.98 367.53 L 192.11 367.44 L 203.40 367.45 L 203.62 367.44 L 204.15 367.04 L 204.26 367.04 L 204.35 367.04 L 204.36 366.94 L 204.56 366.76 L 204.69 366.73 L 204.77 366.63 L 204.85 366.55 L 204.89 366.52 L 205.10 366.46 L 205.50 366.54 L 205.61 366.27 L 205.68 366.20 L 205.78 366.19 L 206.30 366.14 L 206.38 366.09 L 206.41 366.09 L 206.44 366.04 L 206.56 365.99 L 206.65 365.89 L 207.03 365.64 L 207.57 365.53 L 207.77 365.49 L 208.37 365.32 L 208.66 364.92 L 208.76 364.86 L 208.88 364.54 L 209.06 364.14 L 209.34 364.04 L 209.72 364.03 L 210.23 364.01 L 210.31 363.86 L 210.68 363.76 L 210.92 363.64 L 211.00 363.54 L 211.14 363.50 L 211.26 363.23 L 212.59 363.10 L 213.86 363.10 L 225.22 363.07 L 225.30 362.92 L 225.36 362.82 L 225.72 362.67 L 226.78 362.41 L 226.83 362.37 L 226.97 362.18 L 227.50 362.11 L 227.74 361.59 L 228.12 361.58 L 228.21 361.56 L 228.29 361.05 L 228.95 360.57 L 229.03 360.57 L 229.16 360.54 L 229.31 360.50 L 229.38 360.32 L 229.75 359.53 L 229.88 359.33 L 229.94 359.31 L 230.02 359.23 L 230.19 358.92 L 230.25 358.12 L 230.42 357.79 L 230.91 357.61 L 230.96 357.21 L 231.01 357.21 L 231.08 357.14 L 231.20 357.03 L 231.25 357.00 L 231.30 356.96 L 231.54 356.03 L 231.59 355.49 L 231.88 355.38 L 232.05 354.46 L 232.16 354.28 L 233.04 352.83 L 233.14 352.81 L 266.53 352.38 L 266.56 352.38 L 279.32 352.26 L 280.02 352.11 L 280.16 352.11 L 280.35 352.03 L 280.41 351.91 L 280.48 351.89 L 286.02 351.87 L 286.75 350.21 L 287.02 350.06 L 287.16 349.48 L 290.61 349.41 L 290.63 349.36 L 290.85 349.35 L 291.88 349.25 L 291.94 349.05 L 292.07 348.99 L 292.43 348.90 L 292.48 348.88 L 292.62 348.55 L 292.78 348.46 L 292.80 348.21 L 303.52 347.90 L 303.61 347.14 L 304.03 346.94 L 304.04 346.65 L 304.11 346.42 L 304.20 346.07 L 304.32 345.15 L 304.50 344.65 L 304.66 344.00 L 304.80 344.00 L 304.85 343.49 L 305.07 343.46 L 305.81 342.99 L 306.11 342.76 L 306.16 342.63 L 306.22 342.62 L 306.26 342.46 L 306.36 341.89 L 306.66 341.83 L 306.71 341.83 L 306.89 341.46 L 306.96 341.46 L 306.99 341.25 L 307.06 341.11 L 307.11 341.11 L 307.15 340.81 L 307.38 340.64 L 307.49 340.34 L 307.62 340.33 L 307.71 340.17 L 307.75 339.95 L 307.98 339.82 L 308.05 339.69 L 308.09 339.69 L 308.15 339.69 L 308.19 339.46 L 308.22 339.47 L 308.23 339.46 L 308.35 339.39 L 308.39 339.13 L 308.51 339.13 L 308.59 339.07 L 308.84 339.05 L 309.13 339.02 L 309.14 339.02 L 309.22 339.00 L 309.50 339.00 L 309.63 339.00 L 309.76 339.00 L 309.90 338.96 L 309.99 338.66 L 310.37 338.65 L 310.40 338.47 L 310.45 338.47 L 310.48 338.27 L 310.73 338.20 L 310.77 338.15 L 310.95 338.15 L 327.45 338.09 L 328.39 338.01 L 328.42 338.01 L 328.61 338.00 L 328.62 338.01 L 328.74 337.65 L 328.83 337.63 L 328.91 337.53 L 329.03 337.48 L 329.06 337.45 L 329.10 337.43 L 329.28 337.40 L 329.64 337.32 L 329.86 336.84 L 330.12 336.81 L 330.13 336.78 L 330.17 336.38 L 330.20 336.38 L 330.69 336.38 L 330.70 336.34 L 330.78 335.96 L 330.99 335.91 L 331.12 335.90 L 331.15 335.89 L 331.16 335.85 L 331.22 335.82 L 331.26 335.44 L 331.28 335.43 L 331.40 335.43 L 331.41 335.40 L 331.67 335.36 L 332.37 335.35 L 332.54 335.32 L 332.59 335.31 L 332.63 335.19 L 332.67 335.19 L 332.77 334.76 L 344.04 334.62 L 344.06 334.50 L 344.16 334.41 L 344.19 334.40 L 344.25 334.03 L 344.37 333.94 L 344.39 333.92 L 344.60 333.92 L 344.64 333.92 L 344.68 333.55 L 344.86 333.51 L 345.35 333.50 L 345.36 333.48 L 345.48 333.28 L 345.53 333.28 L 345.56 332.95 L 345.97 332.95 L 345.98 332.93 L 346.59 332.84 L 346.67 332.44 L 346.89 332.44 L 347.14 332.44 L 347.21 332.14 L 347.25 331.91 L 347.37 331.90 L 347.69 331.85 L 347.75 331.83 L 347.89 331.74 L 348.04 331.74 L 348.51 331.74 L 348.57 331.74 L 348.68 331.72 L 348.69 331.72 L 348.84 331.72 L 349.20 331.69 L 349.56 331.65 L 349.62 331.65 L 349.70 331.61 L 349.81 331.50 L 350.09 331.50 L 350.57 331.37 L 350.72 331.14 L 350.98 331.12 L 352.02 330.87 L 352.24 330.87 L 352.41 330.87 L 352.67 330.86 L 352.75 330.84 L 353.01 330.72 L 353.42 330.70 L 353.47 330.59 L 353.55 330.54 L 353.60 330.55 L 353.64 330.51 L 353.96 330.49 L 361.43 330.49 L 361.50 330.49 L 361.97 330.49 L 362.01 330.47 L 362.12 330.14 L 362.20 330.12 L 362.22 330.13 L 362.47 330.12 L 362.54 330.10 L 364.07 329.60 L 364.25 329.55 L 364.38 329.54 L 364.41 329.53 L 364.88 329.52 L 365.04 329.59 L 365.07 329.59 L 365.33 329.56 L 365.61 329.09 L 365.64 329.08 L 365.87 329.06 L 365.97 329.06 L 366.06 329.06 L 366.25 328.97 L 366.67 328.54 L 366.75 328.54 L 366.82 328.48 L 366.99 328.09 L 367.40 327.66 L 367.77 327.69 L 367.84 327.46 L 368.22 327.46 L 368.28 327.43 L 368.34 327.41 L 368.38 327.18 L 368.51 327.17 L 368.54 327.17 L 368.60 327.17 L 368.81 327.17 L 369.14 326.99 L 369.34 326.97 L 369.57 326.97 L 369.68 326.97 L 369.91 326.97 L 370.28 326.97 L 370.66 326.97 L 370.95 326.97 L 371.01 326.97 L 371.08 326.96 L 371.09 326.88 L 371.31 326.83 L 371.37 326.83 L 371.46 326.81 L 372.07 326.81 L 372.08 326.59 L 372.25 326.59 L 372.97 326.59 L 373.44 326.59 L 373.79 326.54 L 373.80 326.45 L 373.83 326.45 L 384.30 326.30 L 384.33 326.29 L 384.45 326.29 L 384.51 326.15 L 384.55 326.15 L 384.55 326.14 L 385.00 326.10 L 385.10 325.65 L 385.23 325.55 L 385.46 324.66 L 385.60 324.65 L 385.78 324.27 L 385.88 324.32 L 385.93 324.31 L 385.98 323.83 L 386.11 323.74 L 386.13 323.41 L 386.17 323.36 L 386.29 323.33 L 386.36 323.16 L 386.45 325.15 L 386.58 325.12 L 386.84 324.32 L 386.95 324.15 L 387.05 323.97 L 387.69 323.65 L 388.25 323.31 L 388.91 322.85 L 389.08 322.79 L 389.26 322.79 L 389.47 322.75 L 393.32 322.52 L 393.64 322.49 L 430.11 321.87 L 544.96 321.85 L 545.34 321.57 L 545.61 321.52 L 545.87 321.52 L 546.27 321.27 L 546.40 320.98 L 546.51 320.43 L 546.69 320.28 L 546.96 320.33 L 547.17 320.01 L 547.22 320.01 L 547.40 319.91 L 547.44 319.91 L 547.63 319.38 L 547.80 318.56 L 548.32 318.48 L 548.33 318.40 L 548.48 317.34 L 548.98 317.30 L 548.99 317.20 L 549.08 317.14 L 549.20 316.18 L 549.74 316.13 L 549.75 316.00 L 549.87 315.93 L 549.99 315.31 L 550.19 315.29 L 550.20 315.18 L 550.29 314.14 L 550.31 314.11 L 550.35 314.08 L 550.58 314.08 L 550.61 313.97 L 550.69 313.90 L 550.93 313.80 L 550.98 313.79 L 551.17 313.74 L 551.49 313.78 L 551.54 313.73 L 551.58 313.71 L 551.64 313.67 L 551.80 312.59 L 551.97 312.57 L 551.99 312.48 L 552.08 311.37 L 552.18 310.97 L 552.21 310.82 L 552.31 310.28 L 552.35 309.34 L 552.55 309.33 L 552.58 309.27 L 552.68 309.08 L 552.82 309.08 L 553.64 309.05 L 554.05 309.03 L 563.02 309.07 L 563.11 308.86 L 563.20 308.70 L 563.36 307.95 L 563.69 307.94 L 563.72 307.86 L 563.78 306.92 L 564.00 306.91 L 564.02 306.82 L 565.98 306.72 L 566.10 306.38 L 567.08 306.21 L 567.19 306.18 L 567.31 305.13 L 568.50 304.83 L 569.01 304.58 L 569.13 303.79 L 569.56 303.78 L 569.83 303.34 L 570.27 302.66 L 571.05 302.25 L 583.06 302.25 L 583.78 302.24 L 583.81 302.24 L 584.82 302.09 L 584.87 302.00 L 585.22 301.94 L 585.63 301.06 L 585.63 301.06 L 585.67 301.02 L 586.21 300.83 L 587.44 300.25 L 587.52 300.19 L 587.65 300.18 L 587.84 299.93 L 587.89 299.90 L 587.96 299.85 L 588.53 299.85 L 589.00 299.85 L 589.24 299.85 L 589.28 299.81 L 589.79 298.91 L 590.19 298.83 L 590.20 298.76 L 590.25 298.68 L 590.31 298.46 L 603.34 298.29 L 603.36 298.27 L 603.40 298.25 L 603.65 298.14 L 603.85 298.03 L 605.00 297.53 L 605.28 297.42 L 606.11 297.04 L 606.82 296.98 L 607.35 296.82 L 607.50 295.50 L 608.16 295.28 L 608.40 295.21 L 608.49 294.26 L 610.41 293.35 L 610.43 293.35 L 610.54 292.92 L 610.91 292.88 L 610.91 292.88 L 610.93 292.78 L 611.00 292.66 L 611.16 292.56 L 611.37 291.92 L 613.37 291.58 L 613.63 291.43 L 613.81 291.07 L 613.84 291.03 L 613.88 290.80 L 622.75 289.97 L 623.04 289.37 L 623.21 289.35 L 623.27 288.95 L 624.11 288.78 L 624.28 288.35 L 624.44 288.35 L 624.53 287.47 L 624.81 287.26 L 624.86 287.23 L 625.23 287.18 L 625.32 286.45 L 625.64 286.36 L 625.70 285.79 L 625.97 285.73 L 626.16 285.40 L 626.31 284.76 L 626.64 284.63 L 626.68 283.98 L 627.11 285.45 L 627.15 285.45 L 627.22 284.62 L 627.31 284.62 L 627.35 284.55 L 627.85 284.47 L 628.56 284.12 L 628.92 284.30 L 630.10 284.27 L 630.12 284.27 L 630.31 284.25 L 630.39 284.24 L 630.52 284.12 L 630.66 284.02 L 630.82 283.86 L 631.17 283.65 L 631.51 283.64 L 632.56 283.54 L 632.61 283.53 L 633.66 283.42 L 634.11 283.36 L 643.09 283.32 L 643.54 283.28 L 643.76 283.28 L 643.86 283.28 L 643.89 283.27 L 644.12 283.26 L 644.22 283.22 L 644.48 283.07 L 644.65 283.05 L 645.23 283.04 L 645.53 282.96 L 646.04 282.92 L 646.18 282.89 L 646.35 282.82 L 646.57 282.73 L 647.35 282.69 L 647.42 282.67 L 648.55 282.51 L 648.73 282.25 L 648.96 282.16 L 649.51 282.00 L 649.76 281.92 L 649.89 282.28 L 650.00 282.27"/>
	</g>
	<g class="poloto_legend poloto_imgs poloto_line poloto0 poloto_stroke"><line x1="680" x2="730" y1="81.25" y2="81.25"/></g>
	<g class="poloto_legend poloto_imgs poloto_line poloto1 poloto_stroke"><line x1="680" x2="730" y1="131.25" y2="131.25"/></g>
	<g class="poloto_legend poloto_imgs poloto_line poloto2 poloto_stroke"><line x1="680" x2="730" y1="181.25" y2="181.25"/></g>
	<text class="poloto_legend poloto_text poloto_line poloto0" x="675" y="100">total</text>
	<text class="poloto_legend poloto_text poloto_line poloto1" x="675" y="150">code</text>
	<text class="poloto_legend poloto_text poloto_line poloto2" x="675" y="200">docs</text>
	<text class="poloto_text poloto_name poloto_title" x="400.00" y="37.50">Workspace lines over time</text>
	<text class="poloto_text poloto_name poloto_x" x="400.00" y="640">date (JST)</text>
	<text class="poloto_text poloto_name poloto_y" x="37.50" y="250.00" transform="rotate(-90,37.50,250.00)">lines</text>
	<text class="poloto_text poloto_ticks poloto_y">
		<tspan x="135.00" y="400.00">0</tspan>
		<tspan x="135.00" y="322.14">50K</tspan>
		<tspan x="135.00" y="244.28">100K</tspan>
		<tspan x="135.00" y="166.42">150K</tspan>
	</text>
	<g class="poloto_imgs poloto_ticks poloto_y" stroke="black">
		<line x1="150.00" x2="144.00" y1="400.00" y2="400.00"/>
		<line x1="150.00" x2="144.00" y1="322.14" y2="322.14"/>
		<line x1="150.00" x2="144.00" y1="244.28" y2="244.28"/>
		<line x1="150.00" x2="144.00" y1="166.42" y2="166.42"/>
	</g>
	<g class="poloto_text poloto_ticks poloto_x">
		<text x="225.08" y="430.00" text-anchor="end" transform="rotate(-90 225.08 430.00)">2026-04-24 12:06</text>
		<text x="340.65" y="430.00" text-anchor="end" transform="rotate(-90 340.65 430.00)">2026-04-30 07:00</text>
		<text x="456.22" y="430.00" text-anchor="end" transform="rotate(-90 456.22 430.00)">2026-05-06 01:53</text>
		<text x="571.79" y="430.00" text-anchor="end" transform="rotate(-90 571.79 430.00)">2026-05-11 20:46</text>
	</g>
	<g class="poloto_imgs poloto_ticks poloto_x" stroke="black">
		<line x1="225.08" x2="225.08" y1="400.00" y2="405.00"/>
		<line x1="340.65" x2="340.65" y1="400.00" y2="405.00"/>
		<line x1="456.22" x2="456.22" y1="400.00" y2="405.00"/>
		<line x1="571.79" x2="571.79" y1="400.00" y2="405.00"/>
	</g>
	<path class="poloto_imgs poloto_ticks poloto_x" stroke="black" style="stroke-dasharray:11.557091570072496;stroke-dashoffset:-75.0801831012941;" d=" M 150.00 400.00 L 650.00 400.00"/>
	<path class="poloto_imgs poloto_ticks poloto_y" stroke="black" style="stroke-dasharray:7.7858577679502945;stroke-dashoffset:-0;" d=" M 150.00 400.00 L 150.00 100.00"/>
</svg>

