<svg class="poloto" width="800" height="680" viewBox="0 0 800 680" xmlns="http://www.w3.org/2000/svg">
	<style>
.poloto{
  stroke-linecap:round;
  stroke-linejoin:round;
  font-family:Roboto,sans-serif;
  font-size:16px;
}
.poloto_background{fill:AliceBlue;}
.poloto_scatter{stroke-width:7}
.poloto_line{stroke-width:2}
.poloto_text{fill: black;}
.poloto_name{font-size:24px;dominant-baseline:auto;text-anchor:middle;}
.poloto_where{dominant-baseline:middle;text-anchor:start}
.poloto_text.poloto_legend{font-size:20px;dominant-baseline:middle;text-anchor:start;}
.poloto_text.poloto_ticks.poloto_y{dominant-baseline:middle;text-anchor:end}
.poloto_text.poloto_ticks.poloto_x{dominant-baseline:auto;text-anchor:middle}
.poloto_imgs.poloto_ticks{stroke: black;stroke-width:3;fill:none;stroke-dasharray:none}
.poloto_grid{stroke:gray;stroke-width:0.5}

.poloto0.poloto_stroke{stroke:blue;}
.poloto1.poloto_stroke{stroke:red;}
.poloto2.poloto_stroke{stroke:green;}
.poloto3.poloto_stroke{stroke:gold;}
.poloto4.poloto_stroke{stroke:aqua;}
.poloto5.poloto_stroke{stroke:lime;}
.poloto6.poloto_stroke{stroke:orange;}
.poloto7.poloto_stroke{stroke:chocolate;}
.poloto0.poloto_fill{fill:blue;}
.poloto1.poloto_fill{fill:red;}
.poloto2.poloto_fill{fill:green;}
.poloto3.poloto_fill{fill:gold;}
.poloto4.poloto_fill{fill:aqua;}
.poloto5.poloto_fill{fill:lime;}
.poloto6.poloto_fill{fill:orange;}
.poloto7.poloto_fill{fill:chocolate;}
	</style>
	<circle r="1e5" class="poloto_background" fill="white"/>
	<g id="poloto_plot0" class="poloto_plot poloto_imgs poloto_line poloto0 poloto_stroke" fill="none" stroke="black">
		<path d=" M 150.00 358.15 L 150.04 358.12 L 150.06 358.09 L 150.07 358.09 L 150.10 358.09 L 150.14 353.55 L 150.29 353.00 L 150.65 352.98 L 151.17 352.60 L 151.44 350.30 L 151.98 350.15 L 152.07 350.03 L 152.14 349.98 L 152.76 348.86 L 153.93 347.94 L 154.30 344.37 L 154.40 344.38 L 155.10 344.24 L 155.92 344.22 L 155.92 344.22 L 155.93 344.22 L 166.92 344.22 L 166.99 344.22 L 167.13 344.19 L 167.19 344.15 L 167.61 343.94 L 167.80 343.88 L 168.27 343.55 L 168.33 343.41 L 168.47 343.09 L 168.61 343.04 L 168.65 343.03 L 168.76 342.95 L 168.88 342.95 L 169.00 342.95 L 169.31 342.43 L 169.58 342.10 L 169.63 342.10 L 169.76 341.91 L 170.63 342.72 L 170.65 342.72 L 170.76 342.59 L 171.26 341.98 L 171.66 341.25 L 172.11 340.93 L 172.20 340.87 L 172.21 340.87 L 172.30 340.59 L 172.47 340.59 L 172.69 340.49 L 173.12 340.21 L 173.15 339.79 L 173.22 339.79 L 173.33 339.57 L 173.58 339.57 L 173.60 339.57 L 173.86 338.96 L 173.96 338.92 L 174.05 338.88 L 174.16 338.63 L 175.49 338.30 L 175.82 338.24 L 176.56 337.80 L 176.72 337.80 L 176.84 337.79 L 176.90 337.48 L 177.41 335.67 L 177.64 335.64 L 177.91 335.04 L 178.04 334.98 L 178.35 334.48 L 178.48 334.30 L 178.66 333.98 L 178.83 333.69 L 179.42 329.54 L 179.44 329.44 L 179.47 329.19 L 179.67 327.19 L 189.86 327.04 L 190.92 324.77 L 190.95 324.71 L 192.20 324.36 L 192.31 324.35 L 192.42 323.90 L 192.72 323.67 L 192.86 323.28 L 192.91 322.94 L 193.07 322.35 L 193.44 322.34 L 193.45 321.93 L 193.59 321.49 L 193.73 321.48 L 193.88 320.98 L 194.08 320.62 L 194.16 320.44 L 194.19 320.44 L 194.36 320.05 L 194.39 320.04 L 194.58 319.65 L 194.62 319.64 L 194.91 317.76 L 194.96 317.76 L 195.06 317.45 L 195.18 317.43 L 195.35 317.43 L 195.42 317.39 L 196.00 317.04 L 196.01 317.05 L 196.12 316.22 L 196.37 316.20 L 196.60 314.94 L 196.67 314.83 L 196.78 314.83 L 196.83 314.78 L 196.96 313.81 L 197.60 305.66 L 197.67 305.26 L 197.89 305.23 L 197.95 305.13 L 198.01 305.10 L 198.11 304.89 L 198.21 303.96 L 198.44 303.77 L 198.59 303.75 L 198.72 303.35 L 198.79 303.33 L 199.37 303.03 L 199.68 302.80 L 199.78 302.44 L 200.05 302.42 L 200.07 302.42 L 200.10 302.39 L 200.26 300.43 L 200.40 300.31 L 200.87 298.33 L 200.95 297.76 L 201.04 297.74 L 201.16 297.53 L 201.18 297.38 L 201.23 297.29 L 201.28 297.23 L 201.35 297.23 L 201.41 297.12 L 201.59 295.51 L 201.73 295.27 L 201.87 294.80 L 202.05 294.76 L 202.26 294.61 L 202.46 293.47 L 202.60 291.88 L 202.90 291.79 L 202.91 291.20 L 203.08 291.01 L 217.31 291.01 L 217.58 290.99 L 218.25 290.15 L 218.39 290.13 L 218.50 290.13 L 218.52 289.93 L 218.77 289.66 L 218.93 289.62 L 219.03 289.47 L 219.13 289.36 L 219.19 289.30 L 219.45 289.22 L 219.96 289.12 L 220.09 288.69 L 220.18 288.58 L 220.31 288.57 L 220.97 288.35 L 221.06 288.22 L 221.10 288.22 L 221.14 288.06 L 221.29 287.99 L 221.40 287.83 L 221.88 286.77 L 222.57 286.60 L 222.82 286.53 L 223.58 286.26 L 223.94 281.14 L 224.06 281.03 L 224.22 280.53 L 224.44 279.86 L 224.79 279.67 L 225.27 279.65 L 225.92 279.63 L 226.01 279.41 L 226.48 279.17 L 226.79 278.80 L 226.88 278.65 L 227.07 278.59 L 227.21 278.13 L 228.89 277.63 L 230.49 277.63 L 244.81 277.58 L 244.92 277.36 L 244.99 277.22 L 245.44 277.00 L 246.78 275.23 L 246.83 275.11 L 247.02 274.66 L 247.68 274.55 L 247.99 273.35 L 248.46 273.34 L 248.57 273.32 L 248.68 272.50 L 249.51 267.84 L 249.61 267.83 L 249.78 267.80 L 249.97 267.74 L 250.05 267.23 L 250.51 265.47 L 250.68 265.15 L 250.76 265.12 L 250.86 264.31 L 251.07 263.17 L 251.15 261.95 L 251.36 261.41 L 251.98 255.35 L 252.04 254.74 L 252.10 254.74 L 252.20 254.63 L 252.35 254.48 L 252.41 254.42 L 252.47 254.36 L 252.77 252.90 L 252.84 251.88 L 253.20 251.67 L 253.42 250.15 L 253.55 249.19 L 254.67 235.06 L 254.79 235.02 L 296.88 234.35 L 296.92 234.35 L 313.00 234.16 L 313.88 233.77 L 314.06 233.77 L 314.29 233.66 L 314.37 233.48 L 314.47 233.43 L 321.44 233.34 L 322.36 230.65 L 322.70 230.41 L 322.89 229.42 L 327.23 229.22 L 327.26 228.95 L 327.53 228.92 L 328.83 227.23 L 328.90 226.92 L 329.06 226.81 L 329.52 226.69 L 329.58 226.65 L 329.76 226.14 L 329.96 226.00 L 329.99 225.63 L 343.51 225.11 L 343.61 223.66 L 344.14 223.34 L 344.15 220.92 L 344.25 220.56 L 344.36 219.97 L 344.51 218.29 L 344.74 217.41 L 344.93 216.37 L 345.11 216.36 L 345.18 215.57 L 345.45 215.50 L 346.38 211.60 L 346.76 211.18 L 346.83 210.93 L 346.91 210.93 L 346.95 210.66 L 347.08 209.70 L 347.46 209.24 L 347.52 209.18 L 347.75 205.74 L 347.84 205.73 L 347.88 205.36 L 347.97 205.08 L 348.02 205.08 L 348.07 204.56 L 348.37 202.71 L 348.50 202.18 L 348.66 202.11 L 348.78 197.15 L 348.83 196.74 L 349.12 193.91 L 349.21 193.69 L 349.26 193.68 L 349.34 193.67 L 349.38 193.28 L 349.42 193.29 L 349.44 193.28 L 349.59 188.27 L 349.64 187.83 L 349.79 187.80 L 349.89 187.72 L 350.20 187.58 L 350.57 187.38 L 350.59 187.38 L 350.69 187.33 L 351.03 187.23 L 351.20 187.23 L 351.36 187.23 L 351.54 185.04 L 351.65 184.52 L 352.13 184.51 L 352.17 184.17 L 352.23 184.16 L 352.27 183.79 L 352.58 180.63 L 352.64 180.55 L 352.87 180.53 L 373.66 180.44 L 374.85 180.28 L 374.88 180.28 L 375.12 180.28 L 375.14 180.28 L 375.29 179.65 L 375.41 179.62 L 375.51 179.32 L 375.65 179.24 L 375.69 179.19 L 375.75 179.17 L 375.97 178.82 L 376.42 178.50 L 376.70 177.49 L 377.02 176.52 L 377.04 176.47 L 377.09 175.56 L 377.13 175.53 L 377.75 174.99 L 377.76 174.93 L 377.86 174.22 L 378.13 174.14 L 378.29 174.07 L 378.33 172.79 L 378.34 172.72 L 378.42 173.94 L 378.46 173.19 L 378.49 173.16 L 378.64 171.45 L 378.65 171.40 L 378.98 171.26 L 379.87 171.24 L 380.08 171.18 L 380.14 171.16 L 380.19 170.94 L 380.24 170.94 L 380.36 170.09 L 394.58 168.46 L 394.60 168.23 L 394.72 168.08 L 394.76 167.76 L 394.84 153.46 L 394.99 147.61 L 395.01 147.57 L 395.27 147.46 L 395.33 147.46 L 395.38 146.79 L 395.61 146.72 L 396.22 145.34 L 396.24 145.31 L 396.39 144.88 L 396.45 144.89 L 396.49 144.20 L 397.00 143.39 L 397.02 143.36 L 397.79 143.04 L 397.89 142.31 L 398.16 142.32 L 398.49 140.48 L 398.57 139.75 L 398.62 139.17 L 398.77 138.45 L 399.17 138.20 L 399.24 138.02 L 399.42 137.86 L 399.61 137.86 L 400.21 137.86 L 400.28 137.86 L 400.42 137.83 L 400.43 137.83 L 400.62 137.85 L 401.07 137.81 L 401.54 137.54 L 401.61 137.54 L 401.71 137.43 L 401.84 137.24 L 402.20 137.24 L 402.80 136.98 L 403.00 136.41 L 403.32 131.48 L 404.63 135.65 L 404.91 135.63 L 405.12 135.61 L 405.45 135.60 L 405.56 135.52 L 405.88 135.29 L 406.39 134.95 L 406.46 134.72 L 406.56 134.63 L 406.62 134.65 L 406.67 134.58 L 407.07 134.27 L 416.50 134.27 L 416.58 134.27 L 417.17 134.25 L 417.23 134.23 L 417.36 133.60 L 417.47 133.25 L 417.48 133.25 L 417.81 133.19 L 417.88 133.16 L 419.82 132.23 L 420.04 132.16 L 420.21 132.14 L 420.24 132.13 L 420.84 131.91 L 421.05 132.02 L 421.08 132.01 L 421.40 131.95 L 421.76 130.01 L 421.80 129.99 L 422.09 129.77 L 422.21 129.77 L 422.32 129.77 L 422.57 129.55 L 423.09 128.76 L 423.19 128.74 L 423.29 128.52 L 423.50 127.59 L 424.02 126.62 L 424.48 122.09 L 424.57 121.54 L 425.05 121.32 L 425.13 121.20 L 425.20 120.98 L 425.25 120.25 L 425.42 118.95 L 425.45 119.00 L 425.53 118.98 L 425.80 118.97 L 426.21 118.49 L 426.46 118.40 L 426.75 118.38 L 426.89 118.36 L 427.17 118.35 L 427.65 118.35 L 428.12 118.34 L 428.49 118.33 L 428.57 118.32 L 428.66 118.30 L 428.66 118.14 L 428.94 118.05 L 429.02 118.04 L 429.14 117.84 L 429.91 117.81 L 429.92 117.42 L 430.13 117.40 L 431.03 117.41 L 431.63 117.17 L 432.07 116.88 L 432.08 116.72 L 432.12 116.72 L 445.32 116.45 L 445.36 116.44 L 445.51 116.43 L 445.58 116.20 L 445.63 116.17 L 445.64 116.16 L 446.20 116.10 L 446.33 115.28 L 446.49 115.09 L 446.77 113.48 L 446.96 113.46 L 447.18 112.77 L 447.31 112.86 L 447.37 112.85 L 447.44 112.07 L 447.60 111.53 L 447.62 110.96 L 447.68 110.88 L 447.82 110.83 L 447.91 110.56 L 448.03 113.65 L 448.19 113.59 L 448.52 112.36 L 448.66 112.06 L 448.79 111.80 L 449.60 110.03 L 450.29 109.17 L 451.12 107.54 L 451.34 107.46 L 451.57 107.46 L 451.83 107.39 L 456.68 106.92 L 457.08 106.88 L 503.06 105.63 L 647.82 105.34 L 648.30 104.84 L 648.63 104.78 L 648.96 104.78 L 649.47 103.81 L 649.64 103.35 L 649.77 102.49 L 650.00 100.00"/>
	</g>
	<g id="poloto_plot1" class="poloto_plot poloto_imgs poloto_line poloto1 poloto_stroke" fill="none" stroke="black">
		<path d=" M 150.00 375.13 L 150.04 375.11 L 150.06 375.09 L 150.07 375.09 L 150.10 375.09 L 150.14 374.31 L 150.29 374.28 L 150.65 374.27 L 151.17 373.97 L 151.44 373.84 L 151.98 373.87 L 152.07 373.81 L 152.14 373.81 L 152.76 373.75 L 153.93 373.61 L 154.30 370.53 L 154.40 370.53 L 155.10 370.46 L 155.92 370.44 L 155.92 370.44 L 155.93 370.44 L 166.92 370.44 L 166.99 370.44 L 167.13 370.44 L 167.19 370.40 L 167.61 370.38 L 167.80 370.38 L 168.27 370.38 L 168.33 370.38 L 168.47 370.36 L 168.61 370.36 L 168.65 370.36 L 168.76 370.32 L 168.88 370.32 L 169.00 370.32 L 169.31 370.15 L 169.58 370.15 L 169.63 370.15 L 169.76 370.15 L 170.63 371.31 L 170.65 371.31 L 170.76 371.29 L 171.26 371.12 L 171.66 370.93 L 172.11 370.84 L 172.20 370.78 L 172.21 370.78 L 172.30 370.78 L 172.47 370.78 L 172.69 370.71 L 173.12 370.64 L 173.15 370.64 L 173.22 370.64 L 173.33 370.61 L 173.58 370.61 L 173.60 370.61 L 173.86 370.60 L 173.96 370.60 L 174.05 370.60 L 174.16 370.60 L 175.49 370.46 L 175.82 370.45 L 176.56 370.39 L 176.72 370.39 L 176.84 370.39 L 176.90 370.39 L 177.41 370.30 L 177.64 370.30 L 177.91 370.19 L 178.04 370.17 L 178.35 369.92 L 178.48 369.83 L 178.66 369.83 L 178.83 369.83 L 179.42 366.24 L 179.44 366.18 L 179.47 366.18 L 179.67 365.83 L 189.86 365.83 L 190.92 364.28 L 190.95 364.28 L 192.20 364.28 L 192.31 364.28 L 192.42 364.11 L 192.72 364.09 L 192.86 364.09 L 192.91 364.09 L 193.07 364.09 L 193.44 364.09 L 193.45 363.75 L 193.59 363.74 L 193.73 363.74 L 193.88 363.70 L 194.08 363.69 L 194.16 363.69 L 194.19 363.69 L 194.36 363.69 L 194.39 363.69 L 194.58 363.69 L 194.62 363.69 L 194.91 362.17 L 194.96 362.17 L 195.06 361.99 L 195.18 361.99 L 195.35 361.99 L 195.42 361.97 L 196.00 361.96 L 196.01 361.96 L 196.12 361.87 L 196.37 361.87 L 196.60 361.00 L 196.67 360.89 L 196.78 360.89 L 196.83 360.89 L 196.96 360.86 L 197.60 354.44 L 197.67 354.50 L 197.89 354.50 L 197.95 354.50 L 198.01 354.49 L 198.11 354.49 L 198.21 354.40 L 198.44 354.40 L 198.59 354.40 L 198.72 354.39 L 198.79 354.39 L 199.37 354.38 L 199.68 354.37 L 199.78 354.21 L 200.05 354.21 L 200.07 354.21 L 200.10 354.21 L 200.26 353.78 L 200.40 353.67 L 200.87 352.14 L 200.95 352.14 L 201.04 352.14 L 201.16 352.17 L 201.18 352.17 L 201.23 352.17 L 201.28 352.17 L 201.35 352.17 L 201.41 352.17 L 201.59 352.14 L 201.73 352.14 L 201.87 352.12 L 202.05 352.12 L 202.26 352.11 L 202.46 351.54 L 202.60 351.35 L 202.90 351.35 L 202.91 351.34 L 203.08 351.34 L 217.31 351.34 L 217.58 351.33 L 218.25 351.23 L 218.39 351.22 L 218.50 351.22 L 218.52 351.22 L 218.77 351.22 L 218.93 351.22 L 219.03 351.22 L 219.13 351.22 L 219.19 351.21 L 219.45 351.21 L 219.96 351.24 L 220.09 351.24 L 220.18 351.24 L 220.31 351.24 L 220.97 351.12 L 221.06 351.06 L 221.10 351.06 L 221.14 350.98 L 221.29 350.97 L 221.40 350.97 L 221.88 350.39 L 222.57 350.39 L 222.82 350.39 L 223.58 350.39 L 223.94 346.46 L 224.06 346.45 L 224.22 346.45 L 224.44 346.45 L 224.79 346.45 L 225.27 346.45 L 225.92 346.45 L 226.01 346.45 L 226.48 346.35 L 226.79 346.19 L 226.88 346.19 L 227.07 346.19 L 227.21 346.17 L 228.89 345.92 L 230.49 345.92 L 244.81 345.91 L 244.92 345.91 L 244.99 345.91 L 245.44 345.91 L 246.78 344.68 L 246.83 344.64 L 247.02 344.51 L 247.68 344.50 L 247.99 344.20 L 248.46 344.21 L 248.57 344.21 L 248.68 344.21 L 249.51 340.76 L 249.61 340.76 L 249.78 340.76 L 249.97 340.76 L 250.05 340.54 L 250.51 340.12 L 250.68 340.12 L 250.76 340.12 L 250.86 339.48 L 251.07 338.85 L 251.15 338.85 L 251.36 338.84 L 251.98 333.70 L 252.04 333.70 L 252.10 333.70 L 252.20 333.70 L 252.35 333.70 L 252.41 333.70 L 252.47 333.70 L 252.77 333.70 L 252.84 333.58 L 253.20 333.56 L 253.42 333.49 L 253.55 332.87 L 254.67 322.64 L 254.79 322.64 L 296.88 322.64 L 296.92 322.64 L 313.00 322.64 L 313.88 322.48 L 314.06 322.48 L 314.29 322.48 L 314.37 322.48 L 314.47 322.48 L 321.44 322.41 L 322.36 322.31 L 322.70 322.31 L 322.89 322.28 L 327.23 322.19 L 327.26 322.05 L 327.53 322.05 L 328.83 320.67 L 328.90 320.67 L 329.06 320.67 L 329.52 320.67 L 329.58 320.67 L 329.76 320.67 L 329.96 320.67 L 329.99 320.67 L 343.51 320.64 L 343.61 320.40 L 344.14 320.40 L 344.15 318.73 L 344.25 318.73 L 344.36 318.73 L 344.51 318.57 L 344.74 318.57 L 344.93 318.50 L 345.11 318.50 L 345.18 318.50 L 345.45 318.48 L 346.38 315.64 L 346.76 315.64 L 346.83 315.62 L 346.91 315.62 L 346.95 315.62 L 347.08 315.58 L 347.46 315.22 L 347.52 315.17 L 347.75 312.63 L 347.84 312.62 L 347.88 312.62 L 347.97 312.58 L 348.02 312.58 L 348.07 312.58 L 348.37 311.19 L 348.50 311.17 L 348.66 311.14 L 348.78 306.82 L 348.83 306.82 L 349.12 304.39 L 349.21 304.39 L 349.26 304.38 L 349.34 304.38 L 349.38 304.38 L 349.42 304.38 L 349.44 304.38 L 349.59 299.89 L 349.64 299.89 L 349.79 299.87 L 349.89 299.87 L 350.20 299.78 L 350.57 299.66 L 350.59 299.66 L 350.69 299.63 L 351.03 299.56 L 351.20 299.56 L 351.36 299.56 L 351.54 297.62 L 351.65 297.62 L 352.13 297.61 L 352.17 297.61 L 352.23 297.61 L 352.27 297.61 L 352.58 294.84 L 352.64 294.84 L 352.87 294.82 L 373.66 294.82 L 374.85 294.80 L 374.88 294.80 L 375.12 294.80 L 375.14 294.80 L 375.29 294.80 L 375.41 294.80 L 375.51 294.66 L 375.65 294.66 L 375.69 294.66 L 375.75 294.66 L 375.97 294.41 L 376.42 294.25 L 376.70 294.09 L 377.02 293.31 L 377.04 293.31 L 377.09 293.11 L 377.13 293.09 L 377.75 292.61 L 377.76 292.61 L 377.86 292.54 L 378.13 292.54 L 378.29 292.49 L 378.33 291.35 L 378.34 291.35 L 378.42 292.48 L 378.46 292.42 L 378.49 292.40 L 378.64 290.86 L 378.65 290.86 L 378.98 290.80 L 379.87 290.80 L 380.08 290.80 L 380.14 290.80 L 380.19 290.80 L 380.24 290.80 L 380.36 290.70 L 394.58 289.42 L 394.60 289.42 L 394.72 289.41 L 394.76 289.13 L 394.84 275.48 L 394.99 270.40 L 395.01 270.40 L 395.27 270.31 L 395.33 270.31 L 395.38 270.28 L 395.61 270.28 L 396.22 269.05 L 396.24 269.05 L 396.39 268.98 L 396.45 268.98 L 396.49 268.87 L 397.00 268.13 L 397.02 268.13 L 397.79 267.98 L 397.89 267.93 L 398.16 267.94 L 398.49 266.26 L 398.57 266.09 L 398.62 265.94 L 398.77 265.31 L 399.17 265.15 L 399.24 265.02 L 399.42 265.02 L 399.61 265.02 L 400.21 265.02 L 400.28 265.02 L 400.42 265.02 L 400.43 265.02 L 400.62 265.04 L 401.07 265.04 L 401.54 264.86 L 401.61 264.86 L 401.71 264.84 L 401.84 264.84 L 402.20 264.84 L 402.80 264.84 L 403.00 264.69 L 403.32 260.28 L 404.63 264.44 L 404.91 264.42 L 405.12 264.41 L 405.45 264.41 L 405.56 264.37 L 405.88 264.34 L 406.39 264.08 L 406.46 264.08 L 406.56 264.08 L 406.62 264.08 L 406.67 264.08 L 407.07 263.84 L 416.50 263.84 L 416.58 263.85 L 417.17 263.83 L 417.23 263.83 L 417.36 263.79 L 417.47 263.48 L 417.48 263.48 L 417.81 263.44 L 417.88 263.44 L 419.82 263.19 L 420.04 263.19 L 420.21 263.19 L 420.24 263.19 L 420.84 263.01 L 421.05 263.01 L 421.08 263.01 L 421.40 263.00 L 421.76 261.96 L 421.80 261.96 L 422.09 261.79 L 422.21 261.79 L 422.32 261.79 L 422.57 261.79 L 423.09 261.77 L 423.19 261.74 L 423.29 261.64 L 423.50 261.47 L 424.02 261.31 L 424.48 257.15 L 424.57 257.01 L 425.05 256.81 L 425.13 256.76 L 425.20 256.61 L 425.25 256.32 L 425.42 255.08 L 425.45 255.13 L 425.53 255.11 L 425.80 255.10 L 426.21 254.93 L 426.46 254.86 L 426.75 254.85 L 426.89 254.83 L 427.17 254.82 L 427.65 254.82 L 428.12 254.80 L 428.49 254.80 L 428.57 254.79 L 428.66 254.79 L 428.66 254.78 L 428.94 254.78 L 429.02 254.77 L 429.14 254.61 L 429.91 254.59 L 429.92 254.59 L 430.13 254.58 L 431.03 254.57 L 431.63 254.37 L 432.07 254.19 L 432.08 254.19 L 432.12 254.19 L 445.32 254.19 L 445.36 254.19 L 445.51 254.19 L 445.58 254.19 L 445.63 254.16 L 445.64 254.16 L 446.20 254.16 L 446.33 254.15 L 446.49 254.12 L 446.77 254.09 L 446.96 254.09 L 447.18 253.99 L 447.31 253.99 L 447.37 253.99 L 447.44 253.99 L 447.60 253.61 L 447.62 253.61 L 447.68 253.61 L 447.82 253.61 L 447.91 253.61 L 448.03 253.70 L 448.19 253.70 L 448.52 253.69 L 448.66 253.69 L 448.79 253.69 L 449.60 252.47 L 450.29 252.14 L 451.12 251.26 L 451.34 251.26 L 451.57 251.26 L 451.83 251.26 L 456.68 251.16 L 457.08 251.15 L 503.06 251.00 L 647.82 250.77 L 648.30 250.70 L 648.63 250.69 L 648.96 250.69 L 649.47 250.13 L 649.64 250.13 L 649.77 250.13 L 650.00 248.08"/>
	</g>
	<g id="poloto_plot2" class="poloto_plot poloto_imgs poloto_line poloto2 poloto_stroke" fill="none" stroke="black">
		<path d=" M 150.00 388.84 L 150.04 388.83 L 150.06 388.83 L 150.07 388.83 L 150.10 388.83 L 150.14 385.98 L 150.29 385.59 L 150.65 385.58 L 151.17 385.56 L 151.44 383.85 L 151.98 383.70 L 152.07 383.65 L 152.14 383.61 L 152.76 382.84 L 153.93 382.24 L 154.30 382.13 L 154.40 382.14 L 155.10 382.09 L 155.92 382.09 L 155.92 382.09 L 155.93 382.09 L 166.92 382.09 L 166.99 382.08 L 167.13 382.06 L 167.19 382.06 L 167.61 381.89 L 167.80 381.84 L 168.27 381.56 L 168.33 381.44 L 168.47 381.19 L 168.61 381.15 L 168.65 381.15 L 168.76 381.10 L 168.88 381.10 L 169.00 381.11 L 169.31 380.82 L 169.58 380.55 L 169.63 380.56 L 169.76 380.40 L 170.63 380.06 L 170.65 380.06 L 170.76 379.95 L 171.26 379.57 L 171.66 379.10 L 172.11 378.91 L 172.20 378.91 L 172.21 378.92 L 172.30 378.66 L 172.47 378.66 L 172.69 378.63 L 173.12 378.43 L 173.15 378.10 L 173.22 378.10 L 173.33 377.94 L 173.58 377.94 L 173.60 377.94 L 173.86 377.43 L 173.96 377.40 L 174.05 377.36 L 174.16 377.13 L 175.49 376.99 L 175.82 376.94 L 176.56 376.59 L 176.72 376.60 L 176.84 376.57 L 176.90 376.32 L 177.41 374.92 L 177.64 374.90 L 177.91 374.48 L 178.04 374.44 L 178.35 374.25 L 178.48 374.18 L 178.66 373.88 L 178.83 373.64 L 179.42 373.64 L 179.44 373.61 L 179.47 373.41 L 179.67 372.06 L 189.86 371.92 L 190.92 371.51 L 190.95 371.46 L 192.20 371.12 L 192.31 371.11 L 192.42 370.86 L 192.72 370.70 L 192.86 370.39 L 192.91 370.13 L 193.07 369.63 L 193.44 369.62 L 193.45 369.62 L 193.59 369.27 L 193.73 369.27 L 193.88 368.90 L 194.08 368.61 L 194.16 368.45 L 194.19 368.45 L 194.36 368.11 L 194.39 368.10 L 194.58 367.79 L 194.62 367.78 L 194.91 367.67 L 194.96 367.67 L 195.06 367.56 L 195.18 367.54 L 195.35 367.54 L 195.42 367.51 L 196.00 367.21 L 196.01 367.22 L 196.12 366.61 L 196.37 366.59 L 196.60 366.41 L 196.67 366.41 L 196.78 366.40 L 196.83 366.35 L 196.96 365.52 L 197.60 364.81 L 197.67 364.43 L 197.89 364.40 L 197.95 364.30 L 198.01 364.29 L 198.11 364.11 L 198.21 363.45 L 198.44 363.35 L 198.59 363.33 L 198.72 363.00 L 198.79 362.99 L 199.37 362.74 L 199.68 362.57 L 199.78 362.41 L 200.05 362.40 L 200.07 362.40 L 200.10 362.37 L 200.26 361.18 L 200.40 361.17 L 200.87 360.99 L 200.95 360.52 L 201.04 360.51 L 201.16 360.31 L 201.18 360.20 L 201.23 360.12 L 201.28 360.07 L 201.35 360.07 L 201.41 359.97 L 201.59 358.63 L 201.73 358.49 L 201.87 358.09 L 202.05 358.07 L 202.26 357.93 L 202.46 357.52 L 202.60 356.35 L 202.90 356.26 L 202.91 355.76 L 203.08 355.64 L 217.31 355.65 L 217.58 355.64 L 218.25 355.10 L 218.39 355.10 L 218.50 355.10 L 218.52 354.95 L 218.77 354.72 L 218.93 354.67 L 219.03 354.53 L 219.13 354.43 L 219.19 354.38 L 219.45 354.30 L 219.96 354.42 L 220.09 354.05 L 220.18 353.95 L 220.31 353.94 L 220.97 353.87 L 221.06 353.80 L 221.10 353.80 L 221.14 353.73 L 221.29 353.67 L 221.40 353.53 L 221.88 353.19 L 222.57 353.04 L 222.82 352.98 L 223.58 352.75 L 223.94 352.21 L 224.06 352.12 L 224.22 351.69 L 224.44 351.15 L 224.79 351.00 L 225.27 350.99 L 225.92 350.97 L 226.01 350.77 L 226.48 350.63 L 226.79 350.46 L 226.88 350.32 L 227.07 350.27 L 227.21 349.90 L 228.89 349.72 L 230.49 349.72 L 244.81 349.68 L 244.92 349.48 L 244.99 349.35 L 245.44 349.15 L 246.78 348.78 L 246.83 348.73 L 247.02 348.48 L 247.68 348.37 L 247.99 347.67 L 248.46 347.65 L 248.57 347.63 L 248.68 346.93 L 249.51 346.28 L 249.61 346.28 L 249.78 346.24 L 249.97 346.18 L 250.05 345.94 L 250.51 344.86 L 250.68 344.58 L 250.76 344.56 L 250.86 344.45 L 251.07 344.03 L 251.15 342.94 L 251.36 342.50 L 251.98 342.24 L 252.04 341.70 L 252.10 341.70 L 252.20 341.60 L 252.35 341.45 L 252.41 341.41 L 252.47 341.36 L 252.77 340.10 L 252.84 339.35 L 253.20 339.21 L 253.42 337.96 L 253.55 337.72 L 254.67 335.74 L 254.79 335.70 L 296.88 335.12 L 296.92 335.12 L 313.00 334.96 L 313.88 334.75 L 314.06 334.75 L 314.29 334.65 L 314.37 334.49 L 314.47 334.45 L 321.44 334.43 L 322.36 332.16 L 322.70 331.96 L 322.89 331.17 L 327.23 331.08 L 327.26 331.01 L 327.53 330.99 L 328.83 330.85 L 328.90 330.59 L 329.06 330.50 L 329.52 330.38 L 329.58 330.35 L 329.76 329.91 L 329.96 329.77 L 329.99 329.44 L 343.51 329.01 L 343.61 327.98 L 344.14 327.71 L 344.15 327.31 L 344.25 327.00 L 344.36 326.53 L 344.51 325.27 L 344.74 324.59 L 344.93 323.70 L 345.11 323.70 L 345.18 323.02 L 345.45 322.97 L 346.38 322.32 L 346.76 322.02 L 346.83 321.83 L 346.91 321.83 L 346.95 321.60 L 347.08 320.83 L 347.46 320.75 L 347.52 320.75 L 347.75 320.24 L 347.84 320.24 L 347.88 319.95 L 347.97 319.77 L 348.02 319.77 L 348.07 319.36 L 348.37 319.12 L 348.50 318.72 L 348.66 318.70 L 348.78 318.49 L 348.83 318.18 L 349.12 318.01 L 349.21 317.84 L 349.26 317.84 L 349.34 317.83 L 349.38 317.52 L 349.42 317.53 L 349.44 317.52 L 349.59 317.42 L 349.64 317.07 L 349.79 317.07 L 349.89 316.98 L 350.20 316.95 L 350.57 316.92 L 350.59 316.92 L 350.69 316.90 L 351.03 316.89 L 351.20 316.89 L 351.36 316.89 L 351.54 316.84 L 351.65 316.42 L 352.13 316.42 L 352.17 316.18 L 352.23 316.17 L 352.27 315.89 L 352.58 315.80 L 352.64 315.73 L 352.87 315.73 L 373.66 315.65 L 374.85 315.54 L 374.88 315.54 L 375.12 315.53 L 375.14 315.54 L 375.29 315.05 L 375.41 315.03 L 375.51 314.89 L 375.65 314.82 L 375.69 314.78 L 375.75 314.75 L 375.97 314.71 L 376.42 314.61 L 376.70 313.95 L 377.02 313.91 L 377.04 313.87 L 377.09 313.32 L 377.13 313.32 L 377.75 313.32 L 377.76 313.26 L 377.86 312.76 L 378.13 312.69 L 378.29 312.67 L 378.33 312.66 L 378.34 312.60 L 378.42 312.56 L 378.46 312.04 L 378.49 312.03 L 378.64 312.03 L 378.65 311.99 L 378.98 311.94 L 379.87 311.92 L 380.08 311.88 L 380.14 311.86 L 380.19 311.69 L 380.24 311.69 L 380.36 311.11 L 394.58 310.93 L 394.60 310.76 L 394.72 310.64 L 394.76 310.62 L 394.84 310.12 L 394.99 310.00 L 395.01 309.97 L 395.27 309.97 L 395.33 309.97 L 395.38 309.47 L 395.61 309.41 L 396.22 309.39 L 396.24 309.37 L 396.39 309.09 L 396.45 309.10 L 396.49 308.64 L 397.00 308.64 L 397.02 308.62 L 397.79 308.50 L 397.89 307.95 L 398.16 307.95 L 398.49 307.95 L 398.57 307.54 L 398.62 307.23 L 398.77 307.22 L 399.17 307.15 L 399.24 307.13 L 399.42 307.00 L 399.61 307.00 L 400.21 307.00 L 400.28 307.00 L 400.42 306.97 L 400.43 306.97 L 400.62 306.97 L 401.07 306.94 L 401.54 306.88 L 401.61 306.88 L 401.71 306.82 L 401.84 306.68 L 402.20 306.68 L 402.80 306.49 L 403.00 306.19 L 403.32 306.15 L 404.63 305.82 L 404.91 305.82 L 405.12 305.81 L 405.45 305.80 L 405.56 305.78 L 405.88 305.61 L 406.39 305.59 L 406.46 305.44 L 406.56 305.36 L 406.62 305.38 L 406.67 305.33 L 407.07 305.30 L 416.50 305.29 L 416.58 305.29 L 417.17 305.29 L 417.23 305.27 L 417.36 304.82 L 417.47 304.80 L 417.48 304.80 L 417.81 304.79 L 417.88 304.76 L 419.82 304.09 L 420.04 304.01 L 420.21 304.00 L 420.24 304.00 L 420.84 303.98 L 421.05 304.08 L 421.08 304.07 L 421.40 304.03 L 421.76 303.38 L 421.80 303.37 L 422.09 303.35 L 422.21 303.35 L 422.32 303.35 L 422.57 303.22 L 423.09 302.64 L 423.19 302.64 L 423.29 302.55 L 423.50 302.02 L 424.02 301.44 L 424.48 301.48 L 424.57 301.17 L 425.05 301.17 L 425.13 301.13 L 425.20 301.10 L 425.25 300.79 L 425.42 300.78 L 425.45 300.78 L 425.53 300.78 L 425.80 300.78 L 426.21 300.53 L 426.46 300.51 L 426.75 300.51 L 426.89 300.51 L 427.17 300.51 L 427.65 300.51 L 428.12 300.51 L 428.49 300.50 L 428.57 300.50 L 428.66 300.49 L 428.66 300.38 L 428.94 300.30 L 429.02 300.30 L 429.14 300.29 L 429.91 300.28 L 429.92 299.98 L 430.13 299.98 L 431.03 299.99 L 431.63 299.98 L 432.07 299.91 L 432.08 299.79 L 432.12 299.79 L 445.32 299.59 L 445.36 299.58 L 445.51 299.57 L 445.58 299.38 L 445.63 299.38 L 445.64 299.37 L 446.20 299.31 L 446.33 298.70 L 446.49 298.56 L 446.77 297.36 L 446.96 297.34 L 447.18 296.82 L 447.31 296.89 L 447.37 296.88 L 447.44 296.22 L 447.60 296.11 L 447.62 295.65 L 447.68 295.58 L 447.82 295.54 L 447.91 295.31 L 448.03 298.03 L 448.19 297.98 L 448.52 296.89 L 448.66 296.65 L 448.79 296.41 L 449.60 295.98 L 450.29 295.52 L 451.12 294.88 L 451.34 294.81 L 451.57 294.81 L 451.83 294.75 L 456.68 294.43 L 457.08 294.40 L 503.06 293.55 L 647.82 293.52 L 648.30 293.14 L 648.63 293.08 L 648.96 293.08 L 649.47 292.74 L 649.64 292.33 L 649.77 291.59 L 650.00 291.39"/>
	</g>
	<g class="poloto_legend poloto_imgs poloto_line poloto0 poloto_stroke"><line x1="680" x2="730" y1="81.25" y2="81.25"/></g>
	<g class="poloto_legend poloto_imgs poloto_line poloto1 poloto_stroke"><line x1="680" x2="730" y1="131.25" y2="131.25"/></g>
	<g class="poloto_legend poloto_imgs poloto_line poloto2 poloto_stroke"><line x1="680" x2="730" y1="181.25" y2="181.25"/></g>
	<text class="poloto_legend poloto_text poloto_line poloto0" x="675" y="100">total</text>
	<text class="poloto_legend poloto_text poloto_line poloto1" x="675" y="150">code</text>
	<text class="poloto_legend poloto_text poloto_line poloto2" x="675" y="200">docs</text>
	<text class="poloto_text poloto_name poloto_title" x="400.00" y="37.50">Workspace lines over time</text>
	<text class="poloto_text poloto_name poloto_x" x="400.00" y="640">date (JST)</text>
	<text class="poloto_text poloto_name poloto_y" x="37.50" y="250.00" transform="rotate(-90,37.50,250.00)">lines</text>
	<text class="poloto_text poloto_ticks poloto_y">
		<tspan x="135.00" y="400.00">0</tspan>
		<tspan x="135.00" y="293.92">50K</tspan>
		<tspan x="135.00" y="187.84">100K</tspan>
	</text>
	<g class="poloto_imgs poloto_ticks poloto_y" stroke="black">
		<line x1="150.00" x2="144.00" y1="400.00" y2="400.00"/>
		<line x1="150.00" x2="144.00" y1="293.92" y2="293.92"/>
		<line x1="150.00" x2="144.00" y1="187.84" y2="187.84"/>
	</g>
	<g class="poloto_text poloto_ticks poloto_x">
		<text x="186.37" y="430.00" text-anchor="end" transform="rotate(-90 186.37 430.00)">2026-04-22 04:33</text>
		<text x="244.63" y="430.00" text-anchor="end" transform="rotate(-90 244.63 430.00)">2026-04-24 12:06</text>
		<text x="302.90" y="430.00" text-anchor="end" transform="rotate(-90 302.90 430.00)">2026-04-26 19:40</text>
		<text x="361.17" y="430.00" text-anchor="end" transform="rotate(-90 361.17 430.00)">2026-04-29 03:13</text>
		<text x="419.43" y="430.00" text-anchor="end" transform="rotate(-90 419.43 430.00)">2026-05-01 10:46</text>
		<text x="477.70" y="430.00" text-anchor="end" transform="rotate(-90 477.70 430.00)">2026-05-03 18:20</text>
		<text x="535.97" y="430.00" text-anchor="end" transform="rotate(-90 535.97 430.00)">2026-05-06 01:53</text>
		<text x="594.24" y="430.00" text-anchor="end" transform="rotate(-90 594.24 430.00)">2026-05-08 09:26</text>
	</g>
	<g class="poloto_imgs poloto_ticks poloto_x" stroke="black">
		<line x1="186.37" x2="186.37" y1="400.00" y2="405.00"/>
		<line x1="244.63" x2="244.63" y1="400.00" y2="405.00"/>
		<line x1="302.90" x2="302.90" y1="400.00" y2="405.00"/>
		<line x1="361.17" x2="361.17" y1="400.00" y2="405.00"/>
		<line x1="419.43" x2="419.43" y1="400.00" y2="405.00"/>
		<line x1="477.70" x2="477.70" y1="400.00" y2="405.00"/>
		<line x1="535.97" x2="535.97" y1="400.00" y2="405.00"/>
		<line x1="594.24" x2="594.24" y1="400.00" y2="405.00"/>
	</g>
	<path class="poloto_imgs poloto_ticks poloto_x" stroke="black" style="stroke-dasharray:7.283418801825167;stroke-dashoffset:-36.36552740400657;" d=" M 150.00 400.00 L 650.00 400.00"/>
	<path class="poloto_imgs poloto_ticks poloto_y" stroke="black" style="stroke-dasharray:10.607753560669277;stroke-dashoffset:-0;" d=" M 150.00 400.00 L 150.00 100.00"/>
</svg>

