<svg class="poloto" width="800" height="680" viewBox="0 0 800 680" xmlns="http://www.w3.org/2000/svg">
	<style>
.poloto{
  stroke-linecap:round;
  stroke-linejoin:round;
  font-family:Roboto,sans-serif;
  font-size:16px;
}
.poloto_background{fill:AliceBlue;}
.poloto_scatter{stroke-width:7}
.poloto_line{stroke-width:2}
.poloto_text{fill: black;}
.poloto_name{font-size:24px;dominant-baseline:auto;text-anchor:middle;}
.poloto_where{dominant-baseline:middle;text-anchor:start}
.poloto_text.poloto_legend{font-size:20px;dominant-baseline:middle;text-anchor:start;}
.poloto_text.poloto_ticks.poloto_y{dominant-baseline:middle;text-anchor:end}
.poloto_text.poloto_ticks.poloto_x{dominant-baseline:auto;text-anchor:middle}
.poloto_imgs.poloto_ticks{stroke: black;stroke-width:3;fill:none;stroke-dasharray:none}
.poloto_grid{stroke:gray;stroke-width:0.5}

.poloto0.poloto_stroke{stroke:blue;}
.poloto1.poloto_stroke{stroke:red;}
.poloto2.poloto_stroke{stroke:green;}
.poloto3.poloto_stroke{stroke:gold;}
.poloto4.poloto_stroke{stroke:aqua;}
.poloto5.poloto_stroke{stroke:lime;}
.poloto6.poloto_stroke{stroke:orange;}
.poloto7.poloto_stroke{stroke:chocolate;}
.poloto0.poloto_fill{fill:blue;}
.poloto1.poloto_fill{fill:red;}
.poloto2.poloto_fill{fill:green;}
.poloto3.poloto_fill{fill:gold;}
.poloto4.poloto_fill{fill:aqua;}
.poloto5.poloto_fill{fill:lime;}
.poloto6.poloto_fill{fill:orange;}
.poloto7.poloto_fill{fill:chocolate;}
	</style>
	<circle r="1e5" class="poloto_background" fill="white"/>
	<g id="poloto_plot0" class="poloto_plot poloto_imgs poloto_line poloto0 poloto_stroke" fill="none" stroke="black">
		<path d=" M 150.00 109.42 L 497.16 109.14 L 498.30 109.13 L 502.31 109.12 L 504.18 108.88 L 505.42 108.86 L 505.65 108.84 L 520.45 108.78 L 523.76 107.94 L 528.20 107.75 L 535.55 106.09 L 540.33 106.07 L 546.24 105.37 L 549.59 105.46 L 551.19 105.45 L 552.94 104.64 L 557.27 104.09 L 557.87 103.51 L 559.38 103.43 L 563.10 103.38 L 565.55 103.10 L 568.66 106.27 L 572.88 106.21 L 581.40 104.95 L 585.13 104.64 L 588.48 104.37 L 609.77 102.56 L 628.06 101.68 L 650.00 100.00"/>
	</g>
	<g id="poloto_plot1" class="poloto_plot poloto_imgs poloto_line poloto1 poloto_stroke" fill="none" stroke="black">
		<path d=" M 150.00 250.43 L 497.16 250.43 L 498.30 250.43 L 502.31 250.43 L 504.18 250.43 L 505.42 250.40 L 505.65 250.40 L 520.45 250.40 L 523.76 250.39 L 528.20 250.36 L 535.55 250.33 L 540.33 250.33 L 546.24 250.23 L 549.59 250.23 L 551.19 250.23 L 552.94 250.23 L 557.27 249.84 L 557.87 249.84 L 559.38 249.84 L 563.10 249.84 L 565.55 249.84 L 568.66 249.93 L 572.88 249.93 L 581.40 249.92 L 585.13 249.92 L 588.48 249.92 L 609.77 248.66 L 628.06 248.33 L 650.00 247.43"/>
	</g>
	<g id="poloto_plot2" class="poloto_plot poloto_imgs poloto_line poloto2 poloto_stroke" fill="none" stroke="black">
		<path d=" M 150.00 297.21 L 497.16 297.00 L 498.30 296.99 L 502.31 296.98 L 504.18 296.79 L 505.42 296.79 L 505.65 296.78 L 520.45 296.72 L 523.76 296.09 L 528.20 295.95 L 535.55 294.71 L 540.33 294.70 L 546.24 294.17 L 549.59 294.23 L 551.19 294.22 L 552.94 293.55 L 557.27 293.43 L 557.87 292.96 L 559.38 292.89 L 563.10 292.85 L 565.55 292.61 L 568.66 295.40 L 572.88 295.35 L 581.40 294.23 L 585.13 293.99 L 588.48 293.74 L 609.77 293.30 L 628.06 292.83 L 650.00 292.17"/>
	</g>
	<g class="poloto_legend poloto_imgs poloto_line poloto0 poloto_stroke"><line x1="680" x2="730" y1="81.25" y2="81.25"/></g>
	<g class="poloto_legend poloto_imgs poloto_line poloto1 poloto_stroke"><line x1="680" x2="730" y1="131.25" y2="131.25"/></g>
	<g class="poloto_legend poloto_imgs poloto_line poloto2 poloto_stroke"><line x1="680" x2="730" y1="181.25" y2="181.25"/></g>
	<text class="poloto_legend poloto_text poloto_line poloto0" x="675" y="100">total</text>
	<text class="poloto_legend poloto_text poloto_line poloto1" x="675" y="150">code</text>
	<text class="poloto_legend poloto_text poloto_line poloto2" x="675" y="200">docs</text>
	<text class="poloto_text poloto_name poloto_title" x="400.00" y="37.50">Workspace lines over time</text>
	<text class="poloto_text poloto_name poloto_x" x="400.00" y="640">date (JST)</text>
	<text class="poloto_text poloto_name poloto_y" x="37.50" y="250.00" transform="rotate(-90,37.50,250.00)">lines</text>
	<text class="poloto_text poloto_ticks poloto_y">
		<tspan x="135.00" y="400.00">0</tspan>
		<tspan x="135.00" y="356.48">20K</tspan>
		<tspan x="135.00" y="312.95">40K</tspan>
		<tspan x="135.00" y="269.43">60K</tspan>
		<tspan x="135.00" y="225.90">80K</tspan>
		<tspan x="135.00" y="182.38">100K</tspan>
		<tspan x="135.00" y="138.85">120K</tspan>
	</text>
	<g class="poloto_imgs poloto_ticks poloto_y" stroke="black">
		<line x1="150.00" x2="144.00" y1="400.00" y2="400.00"/>
		<line x1="150.00" x2="144.00" y1="356.48" y2="356.48"/>
		<line x1="150.00" x2="144.00" y1="312.95" y2="312.95"/>
		<line x1="150.00" x2="144.00" y1="269.43" y2="269.43"/>
		<line x1="150.00" x2="144.00" y1="225.90" y2="225.90"/>
		<line x1="150.00" x2="144.00" y1="182.38" y2="182.38"/>
		<line x1="150.00" x2="144.00" y1="138.85" y2="138.85"/>
	</g>
	<g class="poloto_text poloto_ticks poloto_x">
		<text x="199.53" y="430.00" text-anchor="end" transform="rotate(-90 199.53 430.00)">2026-05-02 00:40</text>
		<text x="276.17" y="430.00" text-anchor="end" transform="rotate(-90 276.17 430.00)">2026-05-02 03:26</text>
		<text x="352.82" y="430.00" text-anchor="end" transform="rotate(-90 352.82 430.00)">2026-05-02 06:13</text>
		<text x="429.46" y="430.00" text-anchor="end" transform="rotate(-90 429.46 430.00)">2026-05-02 09:00</text>
		<text x="506.11" y="430.00" text-anchor="end" transform="rotate(-90 506.11 430.00)">2026-05-02 11:46</text>
		<text x="582.75" y="430.00" text-anchor="end" transform="rotate(-90 582.75 430.00)">2026-05-02 14:33</text>
	</g>
	<g class="poloto_imgs poloto_ticks poloto_x" stroke="black">
		<line x1="199.53" x2="199.53" y1="400.00" y2="405.00"/>
		<line x1="276.17" x2="276.17" y1="400.00" y2="405.00"/>
		<line x1="352.82" x2="352.82" y1="400.00" y2="405.00"/>
		<line x1="429.46" x2="429.46" y1="400.00" y2="405.00"/>
		<line x1="506.11" x2="506.11" y1="400.00" y2="405.00"/>
		<line x1="582.75" x2="582.75" y1="400.00" y2="405.00"/>
	</g>
	<path class="poloto_imgs poloto_ticks poloto_x" stroke="black" style="stroke-dasharray:7.66447973511558;stroke-dashoffset:-49.52786804921925;" d=" M 150.00 400.00 L 650.00 400.00"/>
	<path class="poloto_imgs poloto_ticks poloto_y" stroke="black" style="stroke-dasharray:10.881156014014929;stroke-dashoffset:-0;" d=" M 150.00 400.00 L 150.00 100.00"/>
</svg>

