<svg class="poloto" width="800" height="680" viewBox="0 0 800 680" xmlns="http://www.w3.org/2000/svg">
	<style>
.poloto{
  stroke-linecap:round;
  stroke-linejoin:round;
  font-family:Roboto,sans-serif;
  font-size:16px;
}
.poloto_background{fill:AliceBlue;}
.poloto_scatter{stroke-width:7}
.poloto_line{stroke-width:2}
.poloto_text{fill: black;}
.poloto_name{font-size:24px;dominant-baseline:auto;text-anchor:middle;}
.poloto_where{dominant-baseline:middle;text-anchor:start}
.poloto_text.poloto_legend{font-size:20px;dominant-baseline:middle;text-anchor:start;}
.poloto_text.poloto_ticks.poloto_y{dominant-baseline:middle;text-anchor:end}
.poloto_text.poloto_ticks.poloto_x{dominant-baseline:auto;text-anchor:middle}
.poloto_imgs.poloto_ticks{stroke: black;stroke-width:3;fill:none;stroke-dasharray:none}
.poloto_grid{stroke:gray;stroke-width:0.5}

.poloto0.poloto_stroke{stroke:blue;}
.poloto1.poloto_stroke{stroke:red;}
.poloto2.poloto_stroke{stroke:green;}
.poloto3.poloto_stroke{stroke:gold;}
.poloto4.poloto_stroke{stroke:aqua;}
.poloto5.poloto_stroke{stroke:lime;}
.poloto6.poloto_stroke{stroke:orange;}
.poloto7.poloto_stroke{stroke:chocolate;}
.poloto0.poloto_fill{fill:blue;}
.poloto1.poloto_fill{fill:red;}
.poloto2.poloto_fill{fill:green;}
.poloto3.poloto_fill{fill:gold;}
.poloto4.poloto_fill{fill:aqua;}
.poloto5.poloto_fill{fill:lime;}
.poloto6.poloto_fill{fill:orange;}
.poloto7.poloto_fill{fill:chocolate;}
	</style>
	<circle r="1e5" class="poloto_background" fill="white"/>
	<g id="poloto_plot0" class="poloto_plot poloto_imgs poloto_line poloto0 poloto_stroke" fill="none" stroke="black">
		<path d=" M 150.00 366.23 L 150.03 366.21 L 150.05 366.19 L 150.06 366.19 L 150.09 366.19 L 150.12 362.52 L 150.26 362.08 L 150.56 362.06 L 151.02 361.76 L 151.25 359.90 L 151.71 359.78 L 151.79 359.69 L 151.85 359.64 L 152.39 358.74 L 153.40 358.00 L 153.72 355.12 L 153.80 355.12 L 154.42 355.01 L 155.12 355.00 L 155.13 355.00 L 155.13 355.00 L 164.64 355.00 L 164.70 354.99 L 164.83 354.97 L 164.88 354.94 L 165.24 354.77 L 165.40 354.72 L 165.80 354.46 L 165.86 354.34 L 165.98 354.08 L 166.10 354.04 L 166.13 354.04 L 166.23 353.97 L 166.34 353.97 L 166.44 353.97 L 166.70 353.55 L 166.94 353.28 L 166.98 353.29 L 167.09 353.13 L 167.85 353.79 L 167.86 353.79 L 167.96 353.68 L 168.39 353.19 L 168.74 352.60 L 169.13 352.34 L 169.21 352.29 L 169.22 352.29 L 169.29 352.07 L 169.44 352.07 L 169.63 351.98 L 170.01 351.76 L 170.03 351.42 L 170.09 351.42 L 170.19 351.24 L 170.40 351.24 L 170.42 351.24 L 170.65 350.75 L 170.73 350.72 L 170.81 350.68 L 170.90 350.49 L 172.06 350.22 L 172.34 350.17 L 172.98 349.82 L 173.12 349.82 L 173.22 349.80 L 173.28 349.55 L 173.72 348.10 L 173.92 348.07 L 174.15 347.59 L 174.26 347.54 L 174.52 347.13 L 174.64 346.99 L 174.80 346.73 L 174.95 346.50 L 175.46 343.15 L 175.47 343.07 L 175.50 342.87 L 175.67 341.26 L 184.49 341.14 L 185.40 339.30 L 185.43 339.26 L 186.51 338.97 L 186.60 338.96 L 186.70 338.60 L 186.97 338.42 L 187.09 338.10 L 187.13 337.83 L 187.27 337.35 L 187.58 337.34 L 187.59 337.01 L 187.71 336.65 L 187.83 336.65 L 187.97 336.25 L 188.14 335.96 L 188.21 335.81 L 188.23 335.81 L 188.38 335.49 L 188.41 335.48 L 188.58 335.17 L 188.60 335.16 L 188.86 333.65 L 188.90 333.65 L 188.99 333.39 L 189.09 333.38 L 189.24 333.38 L 189.30 333.35 L 189.80 333.06 L 189.81 333.07 L 189.90 332.40 L 190.12 332.39 L 190.32 331.38 L 190.38 331.29 L 190.48 331.28 L 190.52 331.24 L 190.63 330.46 L 191.19 323.88 L 191.25 323.57 L 191.44 323.54 L 191.49 323.46 L 191.54 323.44 L 191.62 323.26 L 191.71 322.51 L 191.91 322.36 L 192.04 322.34 L 192.16 322.02 L 192.22 322.01 L 192.72 321.76 L 192.99 321.58 L 193.07 321.28 L 193.30 321.27 L 193.32 321.27 L 193.34 321.24 L 193.49 319.66 L 193.61 319.57 L 194.02 317.97 L 194.08 317.51 L 194.16 317.50 L 194.27 317.33 L 194.28 317.20 L 194.33 317.13 L 194.37 317.09 L 194.43 317.08 L 194.48 317.00 L 194.64 315.69 L 194.76 315.50 L 194.88 315.12 L 195.03 315.09 L 195.21 314.97 L 195.39 314.05 L 195.51 312.77 L 195.77 312.70 L 195.78 312.22 L 195.93 312.06 L 208.24 312.07 L 208.47 312.05 L 209.05 311.37 L 209.17 311.36 L 209.27 311.36 L 209.29 311.19 L 209.50 310.98 L 209.64 310.94 L 209.73 310.82 L 209.81 310.73 L 209.86 310.68 L 210.09 310.62 L 210.53 310.54 L 210.64 310.19 L 210.72 310.10 L 210.83 310.09 L 211.40 309.92 L 211.48 309.82 L 211.52 309.82 L 211.56 309.69 L 211.68 309.63 L 211.78 309.50 L 212.19 308.64 L 212.79 308.51 L 213.00 308.45 L 213.66 308.24 L 213.97 304.10 L 214.08 304.01 L 214.22 303.61 L 214.41 303.07 L 214.71 302.91 L 215.13 302.90 L 215.68 302.88 L 215.77 302.70 L 216.18 302.51 L 216.44 302.21 L 216.52 302.09 L 216.68 302.04 L 216.80 301.68 L 218.26 301.27 L 219.64 301.27 L 232.04 301.23 L 232.12 301.05 L 232.19 300.94 L 232.57 300.76 L 233.73 299.33 L 233.78 299.24 L 233.94 298.87 L 234.51 298.78 L 234.78 297.82 L 235.19 297.81 L 235.29 297.79 L 235.38 297.13 L 236.10 293.37 L 236.18 293.37 L 236.33 293.33 L 236.49 293.29 L 236.57 292.88 L 236.97 291.46 L 237.11 291.20 L 237.18 291.18 L 237.27 290.52 L 237.45 289.60 L 237.52 288.62 L 237.70 288.18 L 238.24 283.30 L 238.29 282.80 L 238.34 282.80 L 238.42 282.71 L 238.56 282.59 L 238.61 282.54 L 238.66 282.49 L 238.92 281.32 L 238.98 280.49 L 239.29 280.33 L 239.48 279.10 L 239.60 278.32 L 240.56 266.92 L 240.67 266.89 L 277.08 266.35 L 277.12 266.35 L 291.03 266.19 L 291.79 265.88 L 291.95 265.88 L 292.15 265.79 L 292.22 265.65 L 292.30 265.61 L 298.33 265.53 L 299.13 263.36 L 299.43 263.17 L 299.58 262.37 L 303.34 262.21 L 303.37 261.99 L 303.60 261.97 L 304.72 260.60 L 304.79 260.36 L 304.93 260.27 L 305.32 260.17 L 305.38 260.14 L 305.53 259.73 L 305.70 259.62 L 305.73 259.31 L 317.43 258.89 L 317.51 257.73 L 317.98 257.47 L 317.99 255.51 L 318.07 255.22 L 318.17 254.74 L 318.30 253.40 L 318.49 252.68 L 318.66 251.84 L 318.81 251.84 L 318.87 251.20 L 319.11 251.14 L 319.92 247.99 L 320.24 247.66 L 320.30 247.46 L 320.37 247.45 L 320.41 247.23 L 320.52 246.46 L 320.85 246.09 L 320.90 246.04 L 321.10 243.27 L 321.18 243.26 L 321.21 242.96 L 321.28 242.74 L 321.33 242.73 L 321.38 242.32 L 321.63 240.82 L 321.75 240.39 L 321.89 240.34 L 321.99 236.33 L 322.03 236.01 L 322.28 233.72 L 322.36 233.54 L 322.40 233.54 L 322.47 233.53 L 322.51 233.21 L 322.55 233.22 L 322.56 233.21 L 322.69 229.17 L 322.74 228.82 L 322.86 228.80 L 322.95 228.73 L 323.22 228.61 L 323.54 228.46 L 323.55 228.46 L 323.64 228.41 L 323.94 228.33 L 324.08 228.33 L 324.22 228.33 L 324.37 226.57 L 324.47 226.15 L 324.89 226.14 L 324.93 225.86 L 324.98 225.86 L 325.01 225.56 L 325.28 223.01 L 325.33 222.95 L 325.52 222.93 L 343.52 222.85 L 344.54 222.72 L 344.58 222.72 L 344.78 222.72 L 344.79 222.72 L 344.93 222.22 L 345.03 222.20 L 345.11 221.95 L 345.24 221.88 L 345.27 221.85 L 345.32 221.83 L 345.51 221.54 L 345.90 221.29 L 346.15 220.47 L 346.43 219.69 L 346.44 219.65 L 346.48 218.92 L 346.52 218.89 L 347.05 218.46 L 347.06 218.41 L 347.15 217.83 L 347.38 217.77 L 347.52 217.71 L 347.56 216.68 L 347.57 216.63 L 347.63 217.61 L 347.67 217.01 L 347.69 216.98 L 347.82 215.60 L 347.83 215.56 L 348.12 215.45 L 348.89 215.43 L 349.07 215.38 L 349.12 215.37 L 349.16 215.19 L 349.21 215.19 L 349.32 214.51 L 361.61 213.19 L 361.63 213.01 L 361.74 212.88 L 361.77 212.62 L 361.84 201.09 L 361.97 196.37 L 361.99 196.34 L 362.22 196.24 L 362.27 196.24 L 362.31 195.70 L 362.51 195.65 L 363.04 194.53 L 363.05 194.51 L 363.19 194.16 L 363.24 194.17 L 363.26 193.62 L 363.71 192.96 L 363.72 192.93 L 364.40 192.68 L 364.48 192.09 L 364.72 192.10 L 364.99 190.61 L 365.07 190.03 L 365.11 189.55 L 365.24 188.98 L 365.59 188.77 L 365.65 188.63 L 365.80 188.50 L 365.97 188.50 L 366.49 188.50 L 366.55 188.50 L 366.66 188.48 L 366.68 188.47 L 366.84 188.49 L 367.23 188.46 L 367.63 188.24 L 367.70 188.24 L 367.78 188.15 L 367.90 188.00 L 368.21 188.00 L 368.73 187.79 L 368.90 187.33 L 369.18 183.35 L 370.31 186.71 L 370.56 186.70 L 370.74 186.68 L 371.02 186.68 L 371.11 186.61 L 371.39 186.42 L 371.84 186.15 L 371.90 185.97 L 371.98 185.89 L 372.03 185.91 L 372.08 185.85 L 372.43 185.60 L 380.58 185.60 L 380.65 185.60 L 381.16 185.59 L 381.21 185.57 L 381.32 185.07 L 381.42 184.78 L 381.43 184.78 L 381.71 184.73 L 381.78 184.71 L 383.45 183.96 L 383.65 183.90 L 383.79 183.88 L 383.82 183.88 L 384.34 183.70 L 384.52 183.79 L 384.55 183.78 L 384.82 183.73 L 385.13 182.16 L 385.17 182.15 L 385.42 181.97 L 385.52 181.97 L 385.62 181.97 L 385.83 181.80 L 386.29 181.16 L 386.37 181.14 L 386.45 180.96 L 386.64 180.21 L 387.09 179.43 L 387.49 175.78 L 387.57 175.33 L 387.98 175.15 L 388.05 175.06 L 388.11 174.88 L 388.15 174.30 L 388.30 173.24 L 388.33 173.29 L 388.39 173.26 L 388.63 173.26 L 388.98 172.87 L 389.20 172.80 L 389.45 172.78 L 389.57 172.77 L 389.82 172.76 L 390.23 172.76 L 390.64 172.75 L 390.95 172.74 L 391.02 172.73 L 391.10 172.72 L 391.11 172.59 L 391.35 172.52 L 391.42 172.50 L 391.51 172.35 L 392.18 172.32 L 392.19 172.00 L 392.38 171.99 L 393.16 172.00 L 393.68 171.80 L 394.05 171.57 L 394.06 171.44 L 394.10 171.44 L 405.51 171.22 L 405.55 171.22 L 405.68 171.21 L 405.74 171.02 L 405.78 171.00 L 405.79 170.99 L 406.28 170.94 L 406.39 170.28 L 406.53 170.13 L 406.78 168.83 L 406.93 168.81 L 407.13 168.26 L 407.24 168.33 L 407.29 168.32 L 407.35 167.69 L 407.49 167.25 L 407.51 166.79 L 407.56 166.73 L 407.68 166.69 L 407.76 166.48 L 407.86 168.97 L 408.00 168.92 L 408.28 167.93 L 408.41 167.68 L 408.52 167.48 L 409.22 166.05 L 409.82 165.35 L 410.54 164.04 L 410.72 163.97 L 410.93 163.97 L 411.15 163.91 L 415.35 163.54 L 415.70 163.51 L 455.47 162.50 L 580.72 162.27 L 581.14 161.86 L 581.43 161.81 L 581.71 161.81 L 582.15 161.03 L 582.30 160.66 L 582.41 159.96 L 582.61 157.95 L 582.90 158.37 L 583.13 157.93 L 583.19 157.92 L 583.38 157.79 L 583.42 157.79 L 583.63 157.06 L 583.82 155.88 L 584.38 154.63 L 584.40 154.53 L 584.56 153.04 L 585.10 149.34 L 585.12 149.22 L 585.22 149.14 L 585.35 147.82 L 585.93 146.04 L 585.95 145.88 L 586.07 145.80 L 586.21 144.92 L 586.43 144.23 L 586.44 144.10 L 586.54 142.74 L 586.55 142.71 L 586.60 142.33 L 586.85 139.93 L 586.88 139.79 L 586.97 139.65 L 587.23 139.33 L 587.29 139.32 L 587.49 138.86 L 587.84 138.92 L 587.90 138.86 L 587.94 138.83 L 588.00 138.79 L 588.18 137.38 L 588.36 136.23 L 588.39 136.13 L 588.49 134.68 L 588.60 133.28 L 588.62 133.11 L 588.73 131.46 L 588.78 130.17 L 589.00 129.29 L 589.03 129.23 L 589.14 128.96 L 589.29 128.94 L 590.19 128.90 L 590.64 128.86 L 600.42 128.92 L 600.52 128.66 L 600.62 128.45 L 600.78 127.48 L 601.15 127.23 L 601.18 127.13 L 601.25 125.85 L 601.48 124.61 L 601.51 124.51 L 603.64 124.42 L 603.77 123.72 L 604.85 123.52 L 604.97 123.47 L 605.09 122.02 L 606.39 120.67 L 606.95 120.15 L 607.08 119.10 L 607.55 117.28 L 607.84 116.76 L 608.32 115.69 L 609.18 115.15 L 622.27 115.14 L 623.06 115.02 L 623.09 115.04 L 624.19 114.83 L 624.24 114.73 L 624.63 114.65 L 625.07 113.46 L 625.08 113.46 L 625.12 113.42 L 625.71 112.07 L 627.05 111.30 L 627.14 111.23 L 627.28 111.22 L 627.48 110.86 L 627.54 110.77 L 627.62 110.70 L 628.24 110.65 L 628.75 110.65 L 629.02 110.65 L 629.05 110.60 L 629.61 109.42 L 630.04 109.19 L 630.06 109.10 L 630.11 109.01 L 630.17 108.69 L 644.38 108.24 L 644.41 108.21 L 644.45 108.20 L 644.73 108.06 L 644.94 107.92 L 646.19 106.11 L 646.51 105.89 L 647.41 105.34 L 648.19 105.22 L 648.76 105.04 L 648.92 103.36 L 649.64 101.40 L 649.91 101.26 L 650.00 100.00"/>
	</g>
	<g id="poloto_plot1" class="poloto_plot poloto_imgs poloto_line poloto1 poloto_stroke" fill="none" stroke="black">
		<path d=" M 150.00 379.94 L 150.03 379.92 L 150.05 379.90 L 150.06 379.90 L 150.09 379.90 L 150.12 379.27 L 150.26 379.25 L 150.56 379.24 L 151.02 379.00 L 151.25 378.89 L 151.71 378.92 L 151.79 378.87 L 151.85 378.87 L 152.39 378.82 L 153.40 378.70 L 153.72 376.22 L 153.80 376.22 L 154.42 376.16 L 155.12 376.15 L 155.13 376.15 L 155.13 376.15 L 164.64 376.15 L 164.70 376.15 L 164.83 376.15 L 164.88 376.12 L 165.24 376.10 L 165.40 376.10 L 165.80 376.10 L 165.86 376.10 L 165.98 376.09 L 166.10 376.09 L 166.13 376.09 L 166.23 376.06 L 166.34 376.06 L 166.44 376.06 L 166.70 375.92 L 166.94 375.92 L 166.98 375.92 L 167.09 375.92 L 167.85 376.85 L 167.86 376.85 L 167.96 376.84 L 168.39 376.70 L 168.74 376.54 L 169.13 376.47 L 169.21 376.43 L 169.22 376.43 L 169.29 376.43 L 169.44 376.43 L 169.63 376.37 L 170.01 376.31 L 170.03 376.31 L 170.09 376.31 L 170.19 376.29 L 170.40 376.29 L 170.42 376.29 L 170.65 376.28 L 170.73 376.28 L 170.81 376.28 L 170.90 376.28 L 172.06 376.17 L 172.34 376.16 L 172.98 376.11 L 173.12 376.11 L 173.22 376.11 L 173.28 376.11 L 173.72 376.04 L 173.92 376.04 L 174.15 375.95 L 174.26 375.94 L 174.52 375.73 L 174.64 375.66 L 174.80 375.66 L 174.95 375.66 L 175.46 372.76 L 175.47 372.71 L 175.50 372.71 L 175.67 372.43 L 184.49 372.43 L 185.40 371.18 L 185.43 371.18 L 186.51 371.18 L 186.60 371.18 L 186.70 371.04 L 186.97 371.02 L 187.09 371.02 L 187.13 371.02 L 187.27 371.02 L 187.58 371.02 L 187.59 370.75 L 187.71 370.74 L 187.83 370.74 L 187.97 370.71 L 188.14 370.71 L 188.21 370.71 L 188.23 370.71 L 188.38 370.71 L 188.41 370.71 L 188.58 370.71 L 188.60 370.71 L 188.86 369.48 L 188.90 369.48 L 188.99 369.33 L 189.09 369.33 L 189.24 369.33 L 189.30 369.32 L 189.80 369.31 L 189.81 369.31 L 189.90 369.24 L 190.12 369.24 L 190.32 368.53 L 190.38 368.44 L 190.48 368.44 L 190.52 368.44 L 190.63 368.42 L 191.19 363.24 L 191.25 363.29 L 191.44 363.29 L 191.49 363.29 L 191.54 363.28 L 191.62 363.28 L 191.71 363.21 L 191.91 363.21 L 192.04 363.21 L 192.16 363.20 L 192.22 363.20 L 192.72 363.19 L 192.99 363.19 L 193.07 363.06 L 193.30 363.06 L 193.32 363.06 L 193.34 363.06 L 193.49 362.71 L 193.61 362.62 L 194.02 361.39 L 194.08 361.39 L 194.16 361.39 L 194.27 361.41 L 194.28 361.41 L 194.33 361.41 L 194.37 361.41 L 194.43 361.41 L 194.48 361.41 L 194.64 361.38 L 194.76 361.38 L 194.88 361.37 L 195.03 361.37 L 195.21 361.36 L 195.39 360.90 L 195.51 360.75 L 195.77 360.75 L 195.78 360.74 L 195.93 360.74 L 208.24 360.74 L 208.47 360.73 L 209.05 360.65 L 209.17 360.64 L 209.27 360.64 L 209.29 360.64 L 209.50 360.64 L 209.64 360.64 L 209.73 360.64 L 209.81 360.64 L 209.86 360.64 L 210.09 360.64 L 210.53 360.66 L 210.64 360.66 L 210.72 360.66 L 210.83 360.66 L 211.40 360.56 L 211.48 360.51 L 211.52 360.51 L 211.56 360.45 L 211.68 360.44 L 211.78 360.44 L 212.19 359.97 L 212.79 359.97 L 213.00 359.97 L 213.66 359.97 L 213.97 356.80 L 214.08 356.80 L 214.22 356.80 L 214.41 356.79 L 214.71 356.79 L 215.13 356.79 L 215.68 356.79 L 215.77 356.79 L 216.18 356.71 L 216.44 356.58 L 216.52 356.58 L 216.68 356.58 L 216.80 356.57 L 218.26 356.37 L 219.64 356.37 L 232.04 356.36 L 232.12 356.36 L 232.19 356.36 L 232.57 356.36 L 233.73 355.36 L 233.78 355.33 L 233.94 355.23 L 234.51 355.22 L 234.78 354.98 L 235.19 354.99 L 235.29 354.99 L 235.38 354.99 L 236.10 352.20 L 236.18 352.20 L 236.33 352.20 L 236.49 352.20 L 236.57 352.02 L 236.97 351.69 L 237.11 351.69 L 237.18 351.69 L 237.27 351.18 L 237.45 350.66 L 237.52 350.66 L 237.70 350.65 L 238.24 346.51 L 238.29 346.51 L 238.34 346.51 L 238.42 346.51 L 238.56 346.51 L 238.61 346.51 L 238.66 346.51 L 238.92 346.51 L 238.98 346.41 L 239.29 346.40 L 239.48 346.34 L 239.60 345.84 L 240.56 337.59 L 240.67 337.59 L 277.08 337.59 L 277.12 337.59 L 291.03 337.59 L 291.79 337.46 L 291.95 337.46 L 292.15 337.46 L 292.22 337.46 L 292.30 337.46 L 298.33 337.40 L 299.13 337.32 L 299.43 337.32 L 299.58 337.29 L 303.34 337.22 L 303.37 337.11 L 303.60 337.11 L 304.72 335.99 L 304.79 335.99 L 304.93 335.99 L 305.32 335.99 L 305.38 335.99 L 305.53 335.99 L 305.70 335.99 L 305.73 335.99 L 317.43 335.97 L 317.51 335.78 L 317.98 335.78 L 317.99 334.43 L 318.07 334.43 L 318.17 334.43 L 318.30 334.30 L 318.49 334.30 L 318.66 334.24 L 318.81 334.24 L 318.87 334.24 L 319.11 334.23 L 319.92 331.94 L 320.24 331.93 L 320.30 331.92 L 320.37 331.92 L 320.41 331.92 L 320.52 331.89 L 320.85 331.60 L 320.90 331.56 L 321.10 329.50 L 321.18 329.50 L 321.21 329.50 L 321.28 329.47 L 321.33 329.47 L 321.38 329.46 L 321.63 328.34 L 321.75 328.33 L 321.89 328.30 L 321.99 324.82 L 322.03 324.82 L 322.28 322.86 L 322.36 322.86 L 322.40 322.85 L 322.47 322.85 L 322.51 322.85 L 322.55 322.85 L 322.56 322.85 L 322.69 319.23 L 322.74 319.23 L 322.86 319.21 L 322.95 319.21 L 323.22 319.14 L 323.54 319.04 L 323.55 319.04 L 323.64 319.02 L 323.94 318.96 L 324.08 318.96 L 324.22 318.96 L 324.37 317.40 L 324.47 317.40 L 324.89 317.39 L 324.93 317.39 L 324.98 317.39 L 325.01 317.39 L 325.28 315.15 L 325.33 315.15 L 325.52 315.14 L 343.52 315.14 L 344.54 315.12 L 344.58 315.12 L 344.78 315.12 L 344.79 315.12 L 344.93 315.12 L 345.03 315.12 L 345.11 315.01 L 345.24 315.01 L 345.27 315.01 L 345.32 315.01 L 345.51 314.81 L 345.90 314.68 L 346.15 314.55 L 346.43 313.92 L 346.44 313.92 L 346.48 313.76 L 346.52 313.74 L 347.05 313.36 L 347.06 313.36 L 347.15 313.30 L 347.38 313.30 L 347.52 313.26 L 347.56 312.34 L 347.57 312.34 L 347.63 313.25 L 347.67 313.20 L 347.69 313.19 L 347.82 311.94 L 347.83 311.94 L 348.12 311.89 L 348.89 311.89 L 349.07 311.89 L 349.12 311.89 L 349.16 311.89 L 349.21 311.89 L 349.32 311.81 L 361.61 310.78 L 361.63 310.78 L 361.74 310.77 L 361.77 310.55 L 361.84 299.53 L 361.97 295.44 L 361.99 295.44 L 362.22 295.36 L 362.27 295.36 L 362.31 295.34 L 362.51 295.34 L 363.04 294.34 L 363.05 294.34 L 363.19 294.29 L 363.24 294.29 L 363.26 294.20 L 363.71 293.61 L 363.72 293.61 L 364.40 293.48 L 364.48 293.44 L 364.72 293.45 L 364.99 292.10 L 365.07 291.96 L 365.11 291.84 L 365.24 291.33 L 365.59 291.20 L 365.65 291.09 L 365.80 291.09 L 365.97 291.09 L 366.49 291.09 L 366.55 291.09 L 366.66 291.09 L 366.68 291.09 L 366.84 291.11 L 367.23 291.11 L 367.63 290.97 L 367.70 290.97 L 367.78 290.95 L 367.90 290.95 L 368.21 290.95 L 368.73 290.95 L 368.90 290.83 L 369.18 287.27 L 370.31 290.63 L 370.56 290.61 L 370.74 290.60 L 371.02 290.60 L 371.11 290.57 L 371.39 290.54 L 371.84 290.34 L 371.90 290.34 L 371.98 290.34 L 372.03 290.34 L 372.08 290.34 L 372.43 290.15 L 380.58 290.15 L 380.65 290.15 L 381.16 290.14 L 381.21 290.14 L 381.32 290.10 L 381.42 289.85 L 381.43 289.85 L 381.71 289.82 L 381.78 289.82 L 383.45 289.62 L 383.65 289.62 L 383.79 289.62 L 383.82 289.62 L 384.34 289.47 L 384.52 289.47 L 384.55 289.47 L 384.82 289.47 L 385.13 288.63 L 385.17 288.63 L 385.42 288.49 L 385.52 288.49 L 385.62 288.49 L 385.83 288.49 L 386.29 288.47 L 386.37 288.45 L 386.45 288.37 L 386.64 288.23 L 387.09 288.10 L 387.49 284.75 L 387.57 284.63 L 387.98 284.47 L 388.05 284.43 L 388.11 284.31 L 388.15 284.08 L 388.30 283.07 L 388.33 283.12 L 388.39 283.10 L 388.63 283.09 L 388.98 282.95 L 389.20 282.90 L 389.45 282.89 L 389.57 282.87 L 389.82 282.86 L 390.23 282.86 L 390.64 282.85 L 390.95 282.85 L 391.02 282.84 L 391.10 282.84 L 391.11 282.83 L 391.35 282.83 L 391.42 282.82 L 391.51 282.70 L 392.18 282.68 L 392.19 282.68 L 392.38 282.67 L 393.16 282.67 L 393.68 282.50 L 394.05 282.36 L 394.06 282.36 L 394.10 282.36 L 405.51 282.35 L 405.55 282.35 L 405.68 282.35 L 405.74 282.35 L 405.78 282.34 L 405.79 282.34 L 406.28 282.34 L 406.39 282.32 L 406.53 282.30 L 406.78 282.28 L 406.93 282.28 L 407.13 282.20 L 407.24 282.20 L 407.29 282.20 L 407.35 282.20 L 407.49 281.89 L 407.51 281.89 L 407.56 281.89 L 407.68 281.89 L 407.76 281.89 L 407.86 281.97 L 408.00 281.97 L 408.28 281.95 L 408.41 281.95 L 408.52 281.95 L 409.22 280.97 L 409.82 280.70 L 410.54 280.00 L 410.72 280.00 L 410.93 280.00 L 411.15 280.00 L 415.35 279.91 L 415.70 279.91 L 455.47 279.78 L 580.72 279.60 L 581.14 279.54 L 581.43 279.53 L 581.71 279.53 L 582.15 279.08 L 582.30 279.08 L 582.41 279.08 L 582.61 277.43 L 582.90 277.74 L 583.13 277.72 L 583.19 277.72 L 583.38 277.70 L 583.42 277.70 L 583.63 277.70 L 583.82 277.62 L 584.38 276.58 L 584.40 276.58 L 584.56 276.49 L 585.10 273.11 L 585.12 273.11 L 585.22 273.10 L 585.35 273.05 L 585.93 271.48 L 585.95 271.48 L 586.07 271.48 L 586.21 271.44 L 586.43 270.86 L 586.44 270.86 L 586.54 270.85 L 586.55 270.85 L 586.60 270.54 L 586.85 268.30 L 586.88 268.30 L 586.97 268.30 L 587.23 268.11 L 587.29 268.11 L 587.49 267.74 L 587.84 267.74 L 587.90 267.74 L 587.94 267.74 L 588.00 267.74 L 588.18 267.73 L 588.36 266.72 L 588.39 266.72 L 588.49 266.72 L 588.60 265.96 L 588.62 265.96 L 588.73 265.15 L 588.78 265.10 L 589.00 264.30 L 589.03 264.30 L 589.14 264.30 L 589.29 264.28 L 590.19 264.28 L 590.64 264.27 L 600.42 264.27 L 600.52 264.27 L 600.62 264.27 L 600.78 264.27 L 601.15 264.06 L 601.18 264.06 L 601.25 264.00 L 601.48 262.88 L 601.51 262.88 L 603.64 262.90 L 603.77 262.68 L 604.85 262.68 L 604.97 262.67 L 605.09 262.59 L 606.39 261.67 L 606.95 261.50 L 607.08 261.44 L 607.55 259.69 L 607.84 259.69 L 608.32 259.55 L 609.18 259.55 L 622.27 259.54 L 623.06 259.43 L 623.09 259.46 L 624.19 259.46 L 624.24 259.46 L 624.63 259.46 L 625.07 259.42 L 625.08 259.42 L 625.12 259.42 L 625.71 258.40 L 627.05 258.37 L 627.14 258.37 L 627.28 258.37 L 627.48 258.33 L 627.54 258.30 L 627.62 258.30 L 628.24 258.25 L 628.75 258.25 L 629.02 258.25 L 629.05 258.25 L 629.61 258.23 L 630.04 258.11 L 630.06 258.11 L 630.11 258.11 L 630.17 258.11 L 644.38 257.87 L 644.41 257.87 L 644.45 257.87 L 644.73 257.87 L 644.94 257.87 L 646.19 256.86 L 646.51 256.80 L 647.41 256.72 L 648.19 256.67 L 648.76 256.67 L 648.92 256.67 L 649.64 255.14 L 649.91 255.10 L 650.00 255.05"/>
	</g>
	<g id="poloto_plot2" class="poloto_plot poloto_imgs poloto_line poloto2 poloto_stroke" fill="none" stroke="black">
		<path d=" M 150.00 391.00 L 150.03 390.99 L 150.05 390.99 L 150.06 390.99 L 150.09 390.99 L 150.12 388.69 L 150.26 388.37 L 150.56 388.37 L 151.02 388.35 L 151.25 386.97 L 151.71 386.85 L 151.79 386.81 L 151.85 386.78 L 152.39 386.16 L 153.40 385.67 L 153.72 385.58 L 153.80 385.59 L 154.42 385.55 L 155.12 385.55 L 155.13 385.55 L 155.13 385.55 L 164.64 385.55 L 164.70 385.54 L 164.83 385.53 L 164.88 385.53 L 165.24 385.39 L 165.40 385.35 L 165.80 385.12 L 165.86 385.02 L 165.98 384.82 L 166.10 384.79 L 166.13 384.79 L 166.23 384.75 L 166.34 384.75 L 166.44 384.76 L 166.70 384.52 L 166.94 384.31 L 166.98 384.31 L 167.09 384.19 L 167.85 383.91 L 167.86 383.91 L 167.96 383.82 L 168.39 383.52 L 168.74 383.14 L 169.13 382.99 L 169.21 382.99 L 169.22 382.99 L 169.29 382.78 L 169.44 382.78 L 169.63 382.75 L 170.01 382.60 L 170.03 382.33 L 170.09 382.33 L 170.19 382.20 L 170.40 382.20 L 170.42 382.20 L 170.65 381.79 L 170.73 381.77 L 170.81 381.73 L 170.90 381.54 L 172.06 381.43 L 172.34 381.39 L 172.98 381.11 L 173.12 381.12 L 173.22 381.10 L 173.28 380.89 L 173.72 379.76 L 173.92 379.75 L 174.15 379.41 L 174.26 379.38 L 174.52 379.22 L 174.64 379.17 L 174.80 378.93 L 174.95 378.73 L 175.46 378.73 L 175.47 378.70 L 175.50 378.54 L 175.67 377.46 L 184.49 377.34 L 185.40 377.01 L 185.43 376.97 L 186.51 376.70 L 186.60 376.69 L 186.70 376.49 L 186.97 376.36 L 187.09 376.11 L 187.13 375.90 L 187.27 375.50 L 187.58 375.49 L 187.59 375.49 L 187.71 375.21 L 187.83 375.20 L 187.97 374.91 L 188.14 374.68 L 188.21 374.55 L 188.23 374.54 L 188.38 374.27 L 188.41 374.26 L 188.58 374.01 L 188.60 374.01 L 188.86 373.92 L 188.90 373.92 L 188.99 373.83 L 189.09 373.81 L 189.24 373.81 L 189.30 373.79 L 189.80 373.55 L 189.81 373.55 L 189.90 373.06 L 190.12 373.05 L 190.32 372.90 L 190.38 372.90 L 190.48 372.89 L 190.52 372.85 L 190.63 372.18 L 191.19 371.61 L 191.25 371.30 L 191.44 371.28 L 191.49 371.20 L 191.54 371.19 L 191.62 371.04 L 191.71 370.51 L 191.91 370.43 L 192.04 370.41 L 192.16 370.15 L 192.22 370.14 L 192.72 369.94 L 192.99 369.80 L 193.07 369.68 L 193.30 369.67 L 193.32 369.67 L 193.34 369.64 L 193.49 368.68 L 193.61 368.67 L 194.02 368.53 L 194.08 368.15 L 194.16 368.14 L 194.27 367.98 L 194.28 367.89 L 194.33 367.82 L 194.37 367.79 L 194.43 367.78 L 194.48 367.71 L 194.64 366.62 L 194.76 366.51 L 194.88 366.19 L 195.03 366.17 L 195.21 366.06 L 195.39 365.72 L 195.51 364.78 L 195.77 364.71 L 195.78 364.31 L 195.93 364.21 L 208.24 364.21 L 208.47 364.21 L 209.05 363.77 L 209.17 363.77 L 209.27 363.77 L 209.29 363.65 L 209.50 363.46 L 209.64 363.43 L 209.73 363.31 L 209.81 363.23 L 209.86 363.19 L 210.09 363.13 L 210.53 363.22 L 210.64 362.92 L 210.72 362.85 L 210.83 362.84 L 211.40 362.78 L 211.48 362.73 L 211.52 362.73 L 211.56 362.67 L 211.68 362.62 L 211.78 362.51 L 212.19 362.23 L 212.79 362.11 L 213.00 362.06 L 213.66 361.88 L 213.97 361.44 L 214.08 361.37 L 214.22 361.03 L 214.41 360.58 L 214.71 360.47 L 215.13 360.46 L 215.68 360.44 L 215.77 360.28 L 216.18 360.17 L 216.44 360.03 L 216.52 359.92 L 216.68 359.87 L 216.80 359.58 L 218.26 359.44 L 219.64 359.44 L 232.04 359.40 L 232.12 359.24 L 232.19 359.13 L 232.57 358.97 L 233.73 358.68 L 233.78 358.64 L 233.94 358.43 L 234.51 358.35 L 234.78 357.78 L 235.19 357.76 L 235.29 357.74 L 235.38 357.18 L 236.10 356.66 L 236.18 356.65 L 236.33 356.62 L 236.49 356.58 L 236.57 356.38 L 236.97 355.51 L 237.11 355.29 L 237.18 355.27 L 237.27 355.18 L 237.45 354.84 L 237.52 353.96 L 237.70 353.61 L 238.24 353.40 L 238.29 352.96 L 238.34 352.96 L 238.42 352.88 L 238.56 352.76 L 238.61 352.73 L 238.66 352.69 L 238.92 351.67 L 238.98 351.07 L 239.29 350.96 L 239.48 349.94 L 239.60 349.75 L 240.56 348.15 L 240.67 348.12 L 277.08 347.66 L 277.12 347.66 L 291.03 347.52 L 291.79 347.35 L 291.95 347.35 L 292.15 347.27 L 292.22 347.14 L 292.30 347.11 L 298.33 347.10 L 299.13 345.26 L 299.43 345.11 L 299.58 344.47 L 303.34 344.39 L 303.37 344.33 L 303.60 344.32 L 304.72 344.21 L 304.79 344.00 L 304.93 343.92 L 305.32 343.83 L 305.38 343.80 L 305.53 343.45 L 305.70 343.34 L 305.73 343.07 L 317.43 342.72 L 317.51 341.89 L 317.98 341.67 L 317.99 341.35 L 318.07 341.10 L 318.17 340.72 L 318.30 339.71 L 318.49 339.16 L 318.66 338.44 L 318.81 338.44 L 318.87 337.89 L 319.11 337.85 L 319.92 337.33 L 320.24 337.08 L 320.30 336.93 L 320.37 336.93 L 320.41 336.75 L 320.52 336.12 L 320.85 336.06 L 320.90 336.06 L 321.10 335.65 L 321.18 335.65 L 321.21 335.42 L 321.28 335.27 L 321.33 335.27 L 321.38 334.94 L 321.63 334.74 L 321.75 334.42 L 321.89 334.41 L 321.99 334.23 L 322.03 333.99 L 322.28 333.85 L 322.36 333.71 L 322.40 333.71 L 322.47 333.71 L 322.51 333.45 L 322.55 333.46 L 322.56 333.46 L 322.69 333.37 L 322.74 333.09 L 322.86 333.09 L 322.95 333.02 L 323.22 333.00 L 323.54 332.97 L 323.55 332.97 L 323.64 332.95 L 323.94 332.95 L 324.08 332.95 L 324.22 332.95 L 324.37 332.90 L 324.47 332.57 L 324.89 332.57 L 324.93 332.37 L 324.98 332.37 L 325.01 332.14 L 325.28 332.06 L 325.33 332.01 L 325.52 332.01 L 343.52 331.95 L 344.54 331.85 L 344.58 331.85 L 344.78 331.85 L 344.79 331.85 L 344.93 331.46 L 345.03 331.44 L 345.11 331.33 L 345.24 331.27 L 345.27 331.24 L 345.32 331.22 L 345.51 331.18 L 345.90 331.10 L 346.15 330.57 L 346.43 330.54 L 346.44 330.51 L 346.48 330.07 L 346.52 330.06 L 347.05 330.06 L 347.06 330.02 L 347.15 329.61 L 347.38 329.55 L 347.52 329.54 L 347.56 329.53 L 347.57 329.49 L 347.63 329.46 L 347.67 329.04 L 347.69 329.03 L 347.82 329.03 L 347.83 328.99 L 348.12 328.95 L 348.89 328.93 L 349.07 328.90 L 349.12 328.89 L 349.16 328.75 L 349.21 328.75 L 349.32 328.28 L 361.61 328.13 L 361.63 328.00 L 361.74 327.90 L 361.77 327.89 L 361.84 327.49 L 361.97 327.39 L 361.99 327.36 L 362.22 327.36 L 362.27 327.36 L 362.31 326.96 L 362.51 326.91 L 363.04 326.90 L 363.05 326.87 L 363.19 326.65 L 363.24 326.66 L 363.26 326.29 L 363.71 326.29 L 363.72 326.27 L 364.40 326.18 L 364.48 325.74 L 364.72 325.74 L 364.99 325.73 L 365.07 325.41 L 365.11 325.15 L 365.24 325.14 L 365.59 325.09 L 365.65 325.07 L 365.80 324.97 L 365.97 324.97 L 366.49 324.97 L 366.55 324.97 L 366.66 324.94 L 366.68 324.94 L 366.84 324.94 L 367.23 324.91 L 367.63 324.87 L 367.70 324.87 L 367.78 324.82 L 367.90 324.70 L 368.21 324.70 L 368.73 324.56 L 368.90 324.31 L 369.18 324.28 L 370.31 324.01 L 370.56 324.01 L 370.74 324.01 L 371.02 324.00 L 371.11 323.98 L 371.39 323.84 L 371.84 323.83 L 371.90 323.70 L 371.98 323.65 L 372.03 323.66 L 372.08 323.61 L 372.43 323.59 L 380.58 323.59 L 380.65 323.59 L 381.16 323.59 L 381.21 323.57 L 381.32 323.20 L 381.42 323.19 L 381.43 323.19 L 381.71 323.18 L 381.78 323.16 L 383.45 322.62 L 383.65 322.56 L 383.79 322.54 L 383.82 322.54 L 384.34 322.53 L 384.52 322.61 L 384.55 322.60 L 384.82 322.57 L 385.13 322.05 L 385.17 322.04 L 385.42 322.02 L 385.52 322.02 L 385.62 322.02 L 385.83 321.92 L 386.29 321.45 L 386.37 321.45 L 386.45 321.38 L 386.64 320.95 L 387.09 320.48 L 387.49 320.51 L 387.57 320.26 L 387.98 320.26 L 388.05 320.23 L 388.11 320.20 L 388.15 319.95 L 388.30 319.95 L 388.33 319.95 L 388.39 319.95 L 388.63 319.95 L 388.98 319.75 L 389.20 319.73 L 389.45 319.73 L 389.57 319.73 L 389.82 319.73 L 390.23 319.73 L 390.64 319.73 L 390.95 319.72 L 391.02 319.72 L 391.10 319.71 L 391.11 319.62 L 391.35 319.56 L 391.42 319.56 L 391.51 319.55 L 392.18 319.54 L 392.19 319.30 L 392.38 319.30 L 393.16 319.31 L 393.68 319.30 L 394.05 319.25 L 394.06 319.15 L 394.10 319.15 L 405.51 318.99 L 405.55 318.98 L 405.68 318.97 L 405.74 318.82 L 405.78 318.82 L 405.79 318.81 L 406.28 318.76 L 406.39 318.27 L 406.53 318.16 L 406.78 317.18 L 406.93 317.18 L 407.13 316.76 L 407.24 316.81 L 407.29 316.80 L 407.35 316.27 L 407.49 316.18 L 407.51 315.81 L 407.56 315.75 L 407.68 315.72 L 407.76 315.53 L 407.86 317.72 L 408.00 317.69 L 408.28 316.81 L 408.41 316.62 L 408.52 316.42 L 409.22 316.07 L 409.82 315.70 L 410.54 315.19 L 410.72 315.13 L 410.93 315.13 L 411.15 315.09 L 415.35 314.83 L 415.70 314.80 L 455.47 314.12 L 580.72 314.09 L 581.14 313.78 L 581.43 313.74 L 581.71 313.74 L 582.15 313.46 L 582.30 313.13 L 582.41 312.53 L 582.61 312.37 L 582.90 312.43 L 583.13 312.08 L 583.19 312.07 L 583.38 311.96 L 583.42 311.96 L 583.63 311.38 L 583.82 310.48 L 584.38 310.39 L 584.40 310.30 L 584.56 309.14 L 585.10 309.10 L 585.12 308.98 L 585.22 308.91 L 585.35 307.86 L 585.93 307.81 L 585.95 307.66 L 586.07 307.59 L 586.21 306.90 L 586.43 306.88 L 586.44 306.76 L 586.54 305.62 L 586.55 305.59 L 586.60 305.55 L 586.85 305.55 L 586.88 305.43 L 586.97 305.35 L 587.23 305.24 L 587.29 305.24 L 587.49 305.18 L 587.84 305.22 L 587.90 305.17 L 587.94 305.14 L 588.00 305.11 L 588.18 303.92 L 588.36 303.89 L 588.39 303.79 L 588.49 302.57 L 588.60 302.13 L 588.62 301.97 L 588.73 301.38 L 588.78 300.34 L 589.00 300.33 L 589.03 300.27 L 589.14 300.06 L 589.29 300.06 L 590.19 300.02 L 590.64 300.00 L 600.42 300.04 L 600.52 299.81 L 600.62 299.64 L 600.78 298.81 L 601.15 298.80 L 601.18 298.72 L 601.25 297.68 L 601.48 297.67 L 601.51 297.57 L 603.64 297.46 L 603.77 297.09 L 604.85 296.91 L 604.97 296.87 L 605.09 295.71 L 606.39 295.38 L 606.95 295.11 L 607.08 294.24 L 607.55 294.23 L 607.84 293.75 L 608.32 293.00 L 609.18 292.55 L 622.27 292.55 L 623.06 292.54 L 623.09 292.54 L 624.19 292.37 L 624.24 292.28 L 624.63 292.21 L 625.07 291.24 L 625.08 291.24 L 625.12 291.20 L 625.71 290.99 L 627.05 290.35 L 627.14 290.28 L 627.28 290.27 L 627.48 290.00 L 627.54 289.96 L 627.62 289.91 L 628.24 289.91 L 628.75 289.91 L 629.02 289.91 L 629.05 289.86 L 629.61 288.88 L 630.04 288.79 L 630.06 288.71 L 630.11 288.62 L 630.17 288.38 L 644.38 288.19 L 644.41 288.17 L 644.45 288.15 L 644.73 288.03 L 644.94 287.91 L 646.19 287.36 L 646.51 287.24 L 647.41 286.82 L 648.19 286.75 L 648.76 286.58 L 648.92 285.13 L 649.64 284.89 L 649.91 284.81 L 650.00 283.77"/>
	</g>
	<g class="poloto_legend poloto_imgs poloto_line poloto0 poloto_stroke"><line x1="680" x2="730" y1="81.25" y2="81.25"/></g>
	<g class="poloto_legend poloto_imgs poloto_line poloto1 poloto_stroke"><line x1="680" x2="730" y1="131.25" y2="131.25"/></g>
	<g class="poloto_legend poloto_imgs poloto_line poloto2 poloto_stroke"><line x1="680" x2="730" y1="181.25" y2="181.25"/></g>
	<text class="poloto_legend poloto_text poloto_line poloto0" x="675" y="100">total</text>
	<text class="poloto_legend poloto_text poloto_line poloto1" x="675" y="150">code</text>
	<text class="poloto_legend poloto_text poloto_line poloto2" x="675" y="200">docs</text>
	<text class="poloto_text poloto_name poloto_title" x="400.00" y="37.50">Workspace lines over time</text>
	<text class="poloto_text poloto_name poloto_x" x="400.00" y="640">date (JST)</text>
	<text class="poloto_text poloto_name poloto_y" x="37.50" y="250.00" transform="rotate(-90,37.50,250.00)">lines</text>
	<text class="poloto_text poloto_ticks poloto_y">
		<tspan x="135.00" y="400.00">0</tspan>
		<tspan x="135.00" y="314.41">50K</tspan>
		<tspan x="135.00" y="228.83">100K</tspan>
		<tspan x="135.00" y="143.24">150K</tspan>
	</text>
	<g class="poloto_imgs poloto_ticks poloto_y" stroke="black">
		<line x1="150.00" x2="144.00" y1="400.00" y2="400.00"/>
		<line x1="150.00" x2="144.00" y1="314.41" y2="314.41"/>
		<line x1="150.00" x2="144.00" y1="228.83" y2="228.83"/>
		<line x1="150.00" x2="144.00" y1="143.24" y2="143.24"/>
	</g>
	<g class="poloto_text poloto_ticks poloto_x">
		<text x="231.88" y="430.00" text-anchor="end" transform="rotate(-90 231.88 430.00)">2026-04-24 12:06</text>
		<text x="357.91" y="430.00" text-anchor="end" transform="rotate(-90 357.91 430.00)">2026-04-30 07:00</text>
		<text x="483.95" y="430.00" text-anchor="end" transform="rotate(-90 483.95 430.00)">2026-05-06 01:53</text>
		<text x="609.98" y="430.00" text-anchor="end" transform="rotate(-90 609.98 430.00)">2026-05-11 20:46</text>
	</g>
	<g class="poloto_imgs poloto_ticks poloto_x" stroke="black">
		<line x1="231.88" x2="231.88" y1="400.00" y2="405.00"/>
		<line x1="357.91" x2="357.91" y1="400.00" y2="405.00"/>
		<line x1="483.95" x2="483.95" y1="400.00" y2="405.00"/>
		<line x1="609.98" x2="609.98" y1="400.00" y2="405.00"/>
	</g>
	<path class="poloto_imgs poloto_ticks poloto_x" stroke="black" style="stroke-dasharray:12.603538065205665;stroke-dashoffset:-81.87838089908473;" d=" M 150.00 400.00 L 650.00 400.00"/>
	<path class="poloto_imgs poloto_ticks poloto_y" stroke="black" style="stroke-dasharray:8.55856626897862;stroke-dashoffset:-0;" d=" M 150.00 400.00 L 150.00 100.00"/>
</svg>

