<svg class="poloto" width="800" height="680" viewBox="0 0 800 680" xmlns="http://www.w3.org/2000/svg">
	<style>
.poloto{
  stroke-linecap:round;
  stroke-linejoin:round;
  font-family:Roboto,sans-serif;
  font-size:16px;
}
.poloto_background{fill:AliceBlue;}
.poloto_scatter{stroke-width:7}
.poloto_line{stroke-width:2}
.poloto_text{fill: black;}
.poloto_name{font-size:24px;dominant-baseline:auto;text-anchor:middle;}
.poloto_where{dominant-baseline:middle;text-anchor:start}
.poloto_text.poloto_legend{font-size:20px;dominant-baseline:middle;text-anchor:start;}
.poloto_text.poloto_ticks.poloto_y{dominant-baseline:middle;text-anchor:end}
.poloto_text.poloto_ticks.poloto_x{dominant-baseline:auto;text-anchor:middle}
.poloto_imgs.poloto_ticks{stroke: black;stroke-width:3;fill:none;stroke-dasharray:none}
.poloto_grid{stroke:gray;stroke-width:0.5}

.poloto0.poloto_stroke{stroke:blue;}
.poloto1.poloto_stroke{stroke:red;}
.poloto2.poloto_stroke{stroke:green;}
.poloto3.poloto_stroke{stroke:gold;}
.poloto4.poloto_stroke{stroke:aqua;}
.poloto5.poloto_stroke{stroke:lime;}
.poloto6.poloto_stroke{stroke:orange;}
.poloto7.poloto_stroke{stroke:chocolate;}
.poloto0.poloto_fill{fill:blue;}
.poloto1.poloto_fill{fill:red;}
.poloto2.poloto_fill{fill:green;}
.poloto3.poloto_fill{fill:gold;}
.poloto4.poloto_fill{fill:aqua;}
.poloto5.poloto_fill{fill:lime;}
.poloto6.poloto_fill{fill:orange;}
.poloto7.poloto_fill{fill:chocolate;}
	</style>
	<circle r="1e5" class="poloto_background" fill="white"/>
	<g id="poloto_plot0" class="poloto_plot poloto_imgs poloto_line poloto0 poloto_stroke" fill="none" stroke="black">
		<path d=" M 150.00 367.30 L 150.03 367.27 L 150.05 367.25 L 150.06 367.25 L 150.08 367.25 L 150.12 363.70 L 150.25 363.28 L 150.54 363.26 L 150.99 362.96 L 151.21 361.16 L 151.66 361.05 L 151.74 360.95 L 151.79 360.91 L 152.32 360.03 L 153.30 359.32 L 153.61 356.53 L 153.69 356.54 L 154.28 356.43 L 154.96 356.41 L 154.97 356.41 L 154.97 356.41 L 164.19 356.41 L 164.25 356.41 L 164.37 356.39 L 164.42 356.35 L 164.77 356.19 L 164.93 356.15 L 165.32 355.89 L 165.37 355.78 L 165.49 355.53 L 165.60 355.49 L 165.64 355.49 L 165.73 355.42 L 165.83 355.42 L 165.93 355.42 L 166.19 355.01 L 166.42 354.75 L 166.46 354.76 L 166.57 354.60 L 167.30 355.24 L 167.32 355.24 L 167.41 355.14 L 167.83 354.66 L 168.16 354.09 L 168.54 353.84 L 168.62 353.79 L 168.63 353.80 L 168.70 353.58 L 168.84 353.58 L 169.03 353.50 L 169.39 353.28 L 169.41 352.95 L 169.48 352.95 L 169.56 352.77 L 169.77 352.77 L 169.79 352.77 L 170.01 352.30 L 170.09 352.27 L 170.17 352.24 L 170.26 352.04 L 171.38 351.79 L 171.65 351.74 L 172.27 351.40 L 172.41 351.40 L 172.50 351.38 L 172.56 351.14 L 172.99 349.73 L 173.18 349.70 L 173.40 349.24 L 173.51 349.19 L 173.77 348.80 L 173.88 348.66 L 174.04 348.41 L 174.18 348.18 L 174.68 344.94 L 174.69 344.86 L 174.71 344.66 L 174.88 343.10 L 183.43 342.99 L 184.31 341.21 L 184.34 341.17 L 185.39 340.89 L 185.48 340.88 L 185.57 340.53 L 185.83 340.36 L 185.95 340.05 L 185.99 339.79 L 186.12 339.32 L 186.43 339.31 L 186.44 339.00 L 186.55 338.65 L 186.67 338.64 L 186.80 338.25 L 186.97 337.97 L 187.03 337.83 L 187.06 337.83 L 187.20 337.52 L 187.23 337.51 L 187.39 337.21 L 187.42 337.20 L 187.66 335.74 L 187.70 335.74 L 187.79 335.49 L 187.89 335.48 L 188.03 335.48 L 188.09 335.45 L 188.57 335.17 L 188.58 335.18 L 188.67 334.53 L 188.89 334.51 L 189.08 333.54 L 189.14 333.45 L 189.23 333.44 L 189.27 333.40 L 189.38 332.65 L 189.92 326.28 L 189.98 325.97 L 190.16 325.94 L 190.22 325.87 L 190.26 325.85 L 190.34 325.68 L 190.43 324.95 L 190.62 324.81 L 190.75 324.79 L 190.86 324.47 L 190.92 324.46 L 191.40 324.23 L 191.66 324.05 L 191.74 323.76 L 191.97 323.75 L 191.99 323.75 L 192.01 323.72 L 192.15 322.19 L 192.27 322.10 L 192.66 320.55 L 192.73 320.11 L 192.80 320.09 L 192.91 319.93 L 192.92 319.81 L 192.96 319.74 L 193.00 319.70 L 193.06 319.69 L 193.11 319.61 L 193.27 318.35 L 193.38 318.16 L 193.50 317.79 L 193.65 317.76 L 193.82 317.65 L 193.99 316.76 L 194.11 315.52 L 194.36 315.45 L 194.37 314.98 L 194.51 314.83 L 206.44 314.83 L 206.67 314.82 L 207.24 314.16 L 207.35 314.15 L 207.44 314.15 L 207.46 313.98 L 207.67 313.78 L 207.81 313.75 L 207.89 313.63 L 207.97 313.54 L 208.02 313.49 L 208.24 313.43 L 208.67 313.36 L 208.77 313.02 L 208.86 312.93 L 208.96 312.92 L 209.51 312.75 L 209.59 312.66 L 209.63 312.66 L 209.66 312.53 L 209.78 312.47 L 209.88 312.35 L 210.28 311.52 L 210.85 311.39 L 211.06 311.33 L 211.70 311.12 L 212.00 307.12 L 212.11 307.04 L 212.24 306.64 L 212.43 306.12 L 212.72 305.97 L 213.12 305.95 L 213.66 305.94 L 213.75 305.77 L 214.14 305.58 L 214.39 305.29 L 214.48 305.17 L 214.63 305.13 L 214.75 304.77 L 216.16 304.38 L 217.50 304.38 L 229.51 304.34 L 229.60 304.17 L 229.66 304.06 L 230.03 303.88 L 231.16 302.50 L 231.20 302.41 L 231.36 302.06 L 231.91 301.97 L 232.17 301.03 L 232.57 301.02 L 232.66 301.01 L 232.75 300.37 L 233.45 296.73 L 233.53 296.72 L 233.68 296.69 L 233.83 296.65 L 233.90 296.25 L 234.29 294.88 L 234.43 294.62 L 234.50 294.60 L 234.58 293.97 L 234.76 293.07 L 234.83 292.13 L 235.00 291.70 L 235.52 286.97 L 235.57 286.49 L 235.62 286.49 L 235.70 286.41 L 235.83 286.28 L 235.88 286.24 L 235.93 286.19 L 236.18 285.05 L 236.24 284.25 L 236.55 284.09 L 236.73 282.90 L 236.84 282.15 L 237.77 271.11 L 237.88 271.08 L 273.17 270.56 L 273.21 270.56 L 286.69 270.41 L 287.43 270.10 L 287.58 270.10 L 287.78 270.02 L 287.84 269.88 L 287.92 269.84 L 293.77 269.76 L 294.54 267.66 L 294.83 267.47 L 294.98 266.70 L 298.62 266.55 L 298.65 266.33 L 298.88 266.32 L 299.96 264.99 L 300.03 264.75 L 300.16 264.67 L 300.55 264.57 L 300.60 264.54 L 300.75 264.14 L 300.91 264.03 L 300.94 263.74 L 312.27 263.34 L 312.36 262.20 L 312.81 261.95 L 312.82 260.06 L 312.90 259.78 L 312.99 259.32 L 313.12 258.01 L 313.31 257.32 L 313.47 256.51 L 313.62 256.50 L 313.68 255.88 L 313.91 255.82 L 314.69 252.78 L 315.01 252.45 L 315.06 252.26 L 315.12 252.25 L 315.17 252.04 L 315.27 251.29 L 315.59 250.93 L 315.64 250.89 L 315.84 248.20 L 315.91 248.20 L 315.94 247.91 L 316.01 247.69 L 316.06 247.68 L 316.11 247.28 L 316.35 245.83 L 316.46 245.42 L 316.60 245.37 L 316.70 241.48 L 316.74 241.17 L 316.98 238.95 L 317.05 238.78 L 317.10 238.78 L 317.16 238.77 L 317.20 238.46 L 317.24 238.47 L 317.25 238.46 L 317.38 234.55 L 317.42 234.21 L 317.54 234.19 L 317.63 234.12 L 317.89 234.01 L 318.20 233.86 L 318.21 233.86 L 318.30 233.81 L 318.59 233.74 L 318.73 233.74 L 318.86 233.74 L 319.01 232.03 L 319.11 231.62 L 319.51 231.61 L 319.54 231.34 L 319.59 231.34 L 319.63 231.05 L 319.89 228.58 L 319.93 228.52 L 320.12 228.50 L 337.56 228.43 L 338.56 228.30 L 338.59 228.30 L 338.79 228.30 L 338.80 228.30 L 338.93 227.81 L 339.03 227.79 L 339.11 227.55 L 339.23 227.49 L 339.27 227.46 L 339.31 227.44 L 339.50 227.16 L 339.88 226.92 L 340.11 226.12 L 340.38 225.37 L 340.39 225.33 L 340.44 224.62 L 340.47 224.59 L 340.99 224.18 L 341.00 224.13 L 341.08 223.57 L 341.31 223.51 L 341.45 223.45 L 341.48 222.45 L 341.49 222.40 L 341.55 223.35 L 341.59 222.77 L 341.61 222.74 L 341.74 221.41 L 341.75 221.37 L 342.02 221.26 L 342.77 221.24 L 342.94 221.19 L 343.00 221.18 L 343.03 221.01 L 343.08 221.01 L 343.18 220.34 L 355.10 219.07 L 355.12 218.89 L 355.22 218.77 L 355.25 218.52 L 355.32 207.35 L 355.45 202.78 L 355.47 202.75 L 355.69 202.66 L 355.74 202.66 L 355.78 202.13 L 355.97 202.08 L 356.48 201.00 L 356.50 200.98 L 356.63 200.64 L 356.68 200.65 L 356.70 200.11 L 357.14 199.48 L 357.15 199.45 L 357.80 199.21 L 357.88 198.64 L 358.11 198.65 L 358.38 197.20 L 358.45 196.64 L 358.49 196.18 L 358.62 195.62 L 358.96 195.42 L 359.02 195.28 L 359.16 195.16 L 359.32 195.16 L 359.83 195.16 L 359.88 195.16 L 360.00 195.13 L 360.01 195.13 L 360.17 195.15 L 360.55 195.12 L 360.94 194.91 L 361.00 194.91 L 361.08 194.82 L 361.19 194.67 L 361.49 194.67 L 362.00 194.47 L 362.16 194.02 L 362.44 190.17 L 363.53 193.43 L 363.77 193.41 L 363.95 193.40 L 364.22 193.39 L 364.31 193.33 L 364.58 193.15 L 365.01 192.88 L 365.07 192.70 L 365.15 192.63 L 365.20 192.65 L 365.24 192.59 L 365.58 192.35 L 373.48 192.35 L 373.56 192.35 L 374.05 192.34 L 374.10 192.32 L 374.21 191.83 L 374.30 191.55 L 374.31 191.55 L 374.58 191.51 L 374.65 191.49 L 376.27 190.76 L 376.46 190.70 L 376.60 190.69 L 376.63 190.68 L 377.13 190.51 L 377.30 190.60 L 377.33 190.59 L 377.60 190.54 L 377.89 189.02 L 377.93 189.01 L 378.18 188.84 L 378.28 188.84 L 378.37 188.84 L 378.58 188.67 L 379.02 188.05 L 379.10 188.03 L 379.18 187.86 L 379.36 187.13 L 379.79 186.38 L 380.18 182.84 L 380.26 182.40 L 380.65 182.23 L 380.72 182.14 L 380.79 181.97 L 380.83 181.40 L 380.96 180.38 L 381.00 180.42 L 381.06 180.40 L 381.28 180.40 L 381.63 180.02 L 381.84 179.95 L 382.09 179.94 L 382.20 179.92 L 382.44 179.91 L 382.84 179.91 L 383.23 179.90 L 383.54 179.90 L 383.61 179.89 L 383.68 179.88 L 383.69 179.75 L 383.92 179.68 L 383.99 179.67 L 384.08 179.51 L 384.73 179.49 L 384.74 179.18 L 384.92 179.17 L 385.68 179.17 L 386.18 178.99 L 386.54 178.76 L 386.55 178.64 L 386.59 178.64 L 397.65 178.43 L 397.69 178.42 L 397.82 178.41 L 397.88 178.23 L 397.91 178.21 L 397.92 178.20 L 398.39 178.15 L 398.50 177.51 L 398.64 177.37 L 398.88 176.10 L 399.03 176.09 L 399.22 175.55 L 399.32 175.62 L 399.37 175.61 L 399.43 175.00 L 399.57 174.58 L 399.59 174.13 L 399.64 174.07 L 399.75 174.04 L 399.83 173.83 L 399.93 176.24 L 400.07 176.20 L 400.34 175.23 L 400.46 175.00 L 400.56 174.79 L 401.24 173.41 L 401.82 172.74 L 402.52 171.46 L 402.70 171.40 L 402.90 171.40 L 403.12 171.34 L 407.19 170.98 L 407.52 170.95 L 446.08 169.98 L 567.47 169.75 L 567.87 169.36 L 568.15 169.30 L 568.43 169.30 L 568.85 168.55 L 569.00 168.19 L 569.11 167.52 L 569.30 165.57 L 569.58 165.97 L 569.81 165.55 L 569.86 165.54 L 570.05 165.41 L 570.09 165.42 L 570.29 164.70 L 570.47 163.56 L 571.02 162.35 L 571.04 162.25 L 571.19 160.81 L 571.72 157.23 L 571.73 157.11 L 571.83 157.03 L 571.96 155.75 L 572.52 154.04 L 572.53 153.88 L 572.66 153.80 L 572.79 152.95 L 573.00 152.28 L 573.01 152.15 L 573.10 150.84 L 573.12 150.81 L 573.17 150.44 L 573.41 148.11 L 573.44 147.98 L 573.52 147.85 L 573.78 147.54 L 573.83 147.53 L 574.03 147.08 L 574.37 147.14 L 574.42 147.08 L 574.47 147.05 L 574.53 147.01 L 574.70 145.64 L 574.88 144.53 L 574.90 144.43 L 575.00 143.04 L 575.11 141.68 L 575.13 141.51 L 575.24 139.91 L 575.28 138.66 L 575.49 137.81 L 575.52 137.75 L 575.63 137.49 L 575.77 137.47 L 576.65 137.43 L 577.08 137.39 L 586.56 137.45 L 586.66 137.21 L 586.75 136.99 L 586.91 136.06 L 587.27 135.81 L 587.30 135.72 L 587.36 134.48 L 587.59 133.28 L 587.62 133.18 L 589.69 133.10 L 589.81 132.42 L 590.86 132.22 L 590.97 132.17 L 591.09 130.77 L 592.35 129.46 L 592.89 128.96 L 593.02 127.94 L 593.47 126.18 L 593.75 125.67 L 594.22 124.64 L 595.05 124.12 L 607.74 124.11 L 608.50 123.99 L 608.54 124.01 L 609.60 123.81 L 609.65 123.71 L 610.02 123.63 L 610.46 122.48 L 610.46 122.48 L 610.51 122.44 L 611.07 121.13 L 612.37 120.38 L 612.46 120.32 L 612.59 120.31 L 612.79 119.96 L 612.85 119.87 L 612.92 119.81 L 613.53 119.76 L 614.02 119.76 L 614.28 119.75 L 614.31 119.71 L 614.86 118.56 L 615.27 118.35 L 615.29 118.26 L 615.34 118.17 L 615.40 117.86 L 629.17 117.42 L 629.20 117.40 L 629.24 117.38 L 629.51 117.25 L 629.72 117.11 L 630.93 115.36 L 631.23 115.15 L 632.10 114.62 L 632.86 114.49 L 633.41 114.32 L 633.57 112.70 L 634.27 110.80 L 634.53 110.67 L 634.62 109.44 L 636.66 107.19 L 636.67 107.19 L 636.79 106.64 L 637.17 106.58 L 637.18 106.58 L 637.20 106.44 L 637.27 106.27 L 637.45 106.09 L 637.67 105.14 L 639.78 102.86 L 640.05 102.59 L 640.25 102.18 L 640.28 102.13 L 640.32 101.81 L 649.70 100.78 L 650.00 100.00"/>
	</g>
	<g id="poloto_plot1" class="poloto_plot poloto_imgs poloto_line poloto1 poloto_stroke" fill="none" stroke="black">
		<path d=" M 150.00 380.57 L 150.03 380.55 L 150.05 380.54 L 150.06 380.54 L 150.08 380.54 L 150.12 379.92 L 150.25 379.90 L 150.54 379.89 L 150.99 379.66 L 151.21 379.56 L 151.66 379.58 L 151.74 379.54 L 151.79 379.54 L 152.32 379.49 L 153.30 379.37 L 153.61 376.97 L 153.69 376.97 L 154.28 376.91 L 154.96 376.90 L 154.97 376.90 L 154.97 376.90 L 164.19 376.90 L 164.25 376.90 L 164.37 376.90 L 164.42 376.87 L 164.77 376.86 L 164.93 376.86 L 165.32 376.86 L 165.37 376.86 L 165.49 376.84 L 165.60 376.84 L 165.64 376.84 L 165.73 376.81 L 165.83 376.81 L 165.93 376.81 L 166.19 376.68 L 166.42 376.68 L 166.46 376.68 L 166.57 376.68 L 167.30 377.58 L 167.32 377.58 L 167.41 377.57 L 167.83 377.43 L 168.16 377.28 L 168.54 377.21 L 168.62 377.17 L 168.63 377.17 L 168.70 377.17 L 168.84 377.17 L 169.03 377.11 L 169.39 377.06 L 169.41 377.06 L 169.48 377.06 L 169.56 377.04 L 169.77 377.04 L 169.79 377.04 L 170.01 377.03 L 170.09 377.03 L 170.17 377.03 L 170.26 377.03 L 171.38 376.92 L 171.65 376.91 L 172.27 376.86 L 172.41 376.86 L 172.50 376.86 L 172.56 376.86 L 172.99 376.79 L 173.18 376.79 L 173.40 376.70 L 173.51 376.69 L 173.77 376.50 L 173.88 376.43 L 174.04 376.43 L 174.18 376.43 L 174.68 373.62 L 174.69 373.57 L 174.71 373.57 L 174.88 373.30 L 183.43 373.30 L 184.31 372.09 L 184.34 372.09 L 185.39 372.09 L 185.48 372.08 L 185.57 371.96 L 185.83 371.94 L 185.95 371.94 L 185.99 371.94 L 186.12 371.94 L 186.43 371.94 L 186.44 371.67 L 186.55 371.66 L 186.67 371.66 L 186.80 371.64 L 186.97 371.63 L 187.03 371.63 L 187.06 371.63 L 187.20 371.63 L 187.23 371.63 L 187.39 371.63 L 187.42 371.63 L 187.66 370.44 L 187.70 370.44 L 187.79 370.29 L 187.89 370.29 L 188.03 370.29 L 188.09 370.28 L 188.57 370.28 L 188.58 370.28 L 188.67 370.21 L 188.89 370.21 L 189.08 369.52 L 189.14 369.44 L 189.23 369.44 L 189.27 369.44 L 189.38 369.42 L 189.92 364.40 L 189.98 364.44 L 190.16 364.44 L 190.22 364.44 L 190.26 364.43 L 190.34 364.43 L 190.43 364.37 L 190.62 364.37 L 190.75 364.37 L 190.86 364.36 L 190.92 364.36 L 191.40 364.35 L 191.66 364.34 L 191.74 364.22 L 191.97 364.22 L 191.99 364.22 L 192.01 364.22 L 192.15 363.88 L 192.27 363.80 L 192.66 362.60 L 192.73 362.60 L 192.80 362.60 L 192.91 362.62 L 192.92 362.62 L 192.96 362.62 L 193.00 362.62 L 193.06 362.62 L 193.11 362.62 L 193.27 362.60 L 193.38 362.60 L 193.50 362.58 L 193.65 362.58 L 193.82 362.57 L 193.99 362.13 L 194.11 361.98 L 194.36 361.98 L 194.37 361.98 L 194.51 361.98 L 206.44 361.98 L 206.67 361.97 L 207.24 361.89 L 207.35 361.88 L 207.44 361.88 L 207.46 361.88 L 207.67 361.88 L 207.81 361.88 L 207.89 361.88 L 207.97 361.88 L 208.02 361.87 L 208.24 361.87 L 208.67 361.90 L 208.77 361.90 L 208.86 361.90 L 208.96 361.90 L 209.51 361.80 L 209.59 361.76 L 209.63 361.76 L 209.66 361.69 L 209.78 361.69 L 209.88 361.69 L 210.28 361.23 L 210.85 361.23 L 211.06 361.23 L 211.70 361.23 L 212.00 358.16 L 212.11 358.16 L 212.24 358.16 L 212.43 358.15 L 212.72 358.15 L 213.12 358.15 L 213.66 358.15 L 213.75 358.15 L 214.14 358.08 L 214.39 357.95 L 214.48 357.95 L 214.63 357.95 L 214.75 357.93 L 216.16 357.74 L 217.50 357.74 L 229.51 357.74 L 229.60 357.74 L 229.66 357.74 L 230.03 357.74 L 231.16 356.77 L 231.20 356.74 L 231.36 356.64 L 231.91 356.63 L 232.17 356.40 L 232.57 356.40 L 232.66 356.40 L 232.75 356.40 L 233.45 353.70 L 233.53 353.70 L 233.68 353.70 L 233.83 353.70 L 233.90 353.53 L 234.29 353.21 L 234.43 353.21 L 234.50 353.21 L 234.58 352.71 L 234.76 352.21 L 234.83 352.21 L 235.00 352.20 L 235.52 348.19 L 235.57 348.19 L 235.62 348.19 L 235.70 348.19 L 235.83 348.19 L 235.88 348.19 L 235.93 348.19 L 236.18 348.19 L 236.24 348.10 L 236.55 348.08 L 236.73 348.03 L 236.84 347.54 L 237.77 339.55 L 237.88 339.55 L 273.17 339.55 L 273.21 339.55 L 286.69 339.55 L 287.43 339.43 L 287.58 339.43 L 287.78 339.43 L 287.84 339.43 L 287.92 339.43 L 293.77 339.37 L 294.54 339.29 L 294.83 339.29 L 294.98 339.27 L 298.62 339.20 L 298.65 339.09 L 298.88 339.09 L 299.96 338.01 L 300.03 338.01 L 300.16 338.01 L 300.55 338.01 L 300.60 338.01 L 300.75 338.01 L 300.91 338.01 L 300.94 338.01 L 312.27 337.99 L 312.36 337.80 L 312.81 337.80 L 312.82 336.49 L 312.90 336.49 L 312.99 336.49 L 313.12 336.37 L 313.31 336.37 L 313.47 336.31 L 313.62 336.31 L 313.68 336.31 L 313.91 336.30 L 314.69 334.08 L 315.01 334.08 L 315.06 334.06 L 315.12 334.06 L 315.17 334.06 L 315.27 334.03 L 315.59 333.75 L 315.64 333.71 L 315.84 331.72 L 315.91 331.72 L 315.94 331.72 L 316.01 331.69 L 316.06 331.69 L 316.11 331.68 L 316.35 330.60 L 316.46 330.58 L 316.60 330.56 L 316.70 327.19 L 316.74 327.19 L 316.98 325.29 L 317.05 325.29 L 317.10 325.28 L 317.16 325.28 L 317.20 325.28 L 317.24 325.28 L 317.25 325.28 L 317.38 321.77 L 317.42 321.77 L 317.54 321.76 L 317.63 321.76 L 317.89 321.68 L 318.20 321.59 L 318.21 321.59 L 318.30 321.57 L 318.59 321.51 L 318.73 321.51 L 318.86 321.51 L 319.01 320.00 L 319.11 320.00 L 319.51 319.99 L 319.54 319.99 L 319.59 319.99 L 319.63 319.99 L 319.89 317.82 L 319.93 317.82 L 320.12 317.81 L 337.56 317.81 L 338.56 317.80 L 338.59 317.80 L 338.79 317.80 L 338.80 317.80 L 338.93 317.80 L 339.03 317.79 L 339.11 317.69 L 339.23 317.69 L 339.27 317.69 L 339.31 317.69 L 339.50 317.49 L 339.88 317.37 L 340.11 317.24 L 340.38 316.63 L 340.39 316.63 L 340.44 316.48 L 340.47 316.46 L 340.99 316.08 L 341.00 316.08 L 341.08 316.03 L 341.31 316.03 L 341.45 315.99 L 341.48 315.10 L 341.49 315.10 L 341.55 315.98 L 341.59 315.93 L 341.61 315.92 L 341.74 314.72 L 341.75 314.72 L 342.02 314.67 L 342.77 314.67 L 342.94 314.67 L 343.00 314.67 L 343.03 314.67 L 343.08 314.67 L 343.18 314.59 L 355.10 313.59 L 355.12 313.59 L 355.22 313.58 L 355.25 313.37 L 355.32 302.70 L 355.45 298.73 L 355.47 298.73 L 355.69 298.65 L 355.74 298.65 L 355.78 298.64 L 355.97 298.64 L 356.48 297.67 L 356.50 297.67 L 356.63 297.62 L 356.68 297.62 L 356.70 297.53 L 357.14 296.95 L 357.15 296.95 L 357.80 296.83 L 357.88 296.79 L 358.11 296.80 L 358.38 295.50 L 358.45 295.36 L 358.49 295.24 L 358.62 294.75 L 358.96 294.63 L 359.02 294.52 L 359.16 294.52 L 359.32 294.52 L 359.83 294.52 L 359.88 294.52 L 360.00 294.52 L 360.01 294.52 L 360.17 294.54 L 360.55 294.54 L 360.94 294.40 L 361.00 294.40 L 361.08 294.38 L 361.19 294.38 L 361.49 294.38 L 362.00 294.38 L 362.16 294.27 L 362.44 290.82 L 363.53 294.07 L 363.77 294.06 L 363.95 294.05 L 364.22 294.05 L 364.31 294.01 L 364.58 293.99 L 365.01 293.79 L 365.07 293.79 L 365.15 293.79 L 365.20 293.79 L 365.24 293.79 L 365.58 293.60 L 373.48 293.60 L 373.56 293.61 L 374.05 293.59 L 374.10 293.59 L 374.21 293.56 L 374.30 293.32 L 374.31 293.32 L 374.58 293.29 L 374.65 293.29 L 376.27 293.09 L 376.46 293.09 L 376.60 293.09 L 376.63 293.09 L 377.13 292.95 L 377.30 292.95 L 377.33 292.95 L 377.60 292.95 L 377.89 292.13 L 377.93 292.13 L 378.18 292.00 L 378.28 292.00 L 378.37 292.00 L 378.58 292.00 L 379.02 291.98 L 379.10 291.96 L 379.18 291.88 L 379.36 291.75 L 379.79 291.62 L 380.18 288.37 L 380.26 288.26 L 380.65 288.11 L 380.72 288.07 L 380.79 287.96 L 380.83 287.73 L 380.96 286.76 L 381.00 286.80 L 381.06 286.78 L 381.28 286.77 L 381.63 286.64 L 381.84 286.59 L 382.09 286.57 L 382.20 286.56 L 382.44 286.55 L 382.84 286.55 L 383.23 286.54 L 383.54 286.54 L 383.61 286.53 L 383.68 286.53 L 383.69 286.52 L 383.92 286.52 L 383.99 286.51 L 384.08 286.39 L 384.73 286.38 L 384.74 286.38 L 384.92 286.36 L 385.68 286.36 L 386.18 286.20 L 386.54 286.06 L 386.55 286.06 L 386.59 286.06 L 397.65 286.06 L 397.69 286.06 L 397.82 286.06 L 397.88 286.06 L 397.91 286.04 L 397.92 286.04 L 398.39 286.04 L 398.50 286.03 L 398.64 286.01 L 398.88 285.98 L 399.03 285.98 L 399.22 285.91 L 399.32 285.91 L 399.37 285.91 L 399.43 285.91 L 399.57 285.61 L 399.59 285.61 L 399.64 285.61 L 399.75 285.61 L 399.83 285.61 L 399.93 285.68 L 400.07 285.68 L 400.34 285.67 L 400.46 285.67 L 400.56 285.67 L 401.24 284.71 L 401.82 284.46 L 402.52 283.77 L 402.70 283.77 L 402.90 283.77 L 403.12 283.77 L 407.19 283.69 L 407.52 283.69 L 446.08 283.57 L 567.47 283.39 L 567.87 283.33 L 568.15 283.33 L 568.43 283.33 L 568.85 282.88 L 569.00 282.88 L 569.11 282.88 L 569.30 281.28 L 569.58 281.59 L 569.81 281.57 L 569.86 281.57 L 570.05 281.55 L 570.09 281.55 L 570.29 281.55 L 570.47 281.48 L 571.02 280.47 L 571.04 280.47 L 571.19 280.37 L 571.72 277.10 L 571.73 277.10 L 571.83 277.10 L 571.96 277.05 L 572.52 275.52 L 572.53 275.52 L 572.66 275.52 L 572.79 275.48 L 573.00 274.93 L 573.01 274.93 L 573.10 274.92 L 573.12 274.92 L 573.17 274.61 L 573.41 272.44 L 573.44 272.44 L 573.52 272.44 L 573.78 272.26 L 573.83 272.26 L 574.03 271.91 L 574.37 271.91 L 574.42 271.91 L 574.47 271.91 L 574.53 271.91 L 574.70 271.90 L 574.88 270.92 L 574.90 270.92 L 575.00 270.92 L 575.11 270.18 L 575.13 270.18 L 575.24 269.39 L 575.28 269.34 L 575.49 268.57 L 575.52 268.57 L 575.63 268.57 L 575.77 268.55 L 576.65 268.55 L 577.08 268.55 L 586.56 268.55 L 586.66 268.55 L 586.75 268.55 L 586.91 268.55 L 587.27 268.34 L 587.30 268.34 L 587.36 268.28 L 587.59 267.19 L 587.62 267.19 L 589.69 267.22 L 589.81 267.00 L 590.86 267.00 L 590.97 267.00 L 591.09 266.92 L 592.35 266.03 L 592.89 265.86 L 593.02 265.80 L 593.47 264.11 L 593.75 264.11 L 594.22 263.97 L 595.05 263.97 L 607.74 263.96 L 608.50 263.86 L 608.54 263.88 L 609.60 263.88 L 609.65 263.88 L 610.02 263.88 L 610.46 263.85 L 610.46 263.85 L 610.51 263.85 L 611.07 262.86 L 612.37 262.83 L 612.46 262.83 L 612.59 262.83 L 612.79 262.79 L 612.85 262.76 L 612.92 262.76 L 613.53 262.71 L 614.02 262.71 L 614.28 262.71 L 614.31 262.71 L 614.86 262.69 L 615.27 262.57 L 615.29 262.57 L 615.34 262.57 L 615.40 262.57 L 629.17 262.34 L 629.20 262.34 L 629.24 262.34 L 629.51 262.34 L 629.72 262.34 L 630.93 261.36 L 631.23 261.31 L 632.10 261.23 L 632.86 261.18 L 633.41 261.18 L 633.57 261.18 L 634.27 259.70 L 634.53 259.66 L 634.62 259.61 L 636.66 258.58 L 636.67 258.58 L 636.79 258.56 L 637.17 258.55 L 637.18 258.55 L 637.20 258.55 L 637.27 258.52 L 637.45 258.48 L 637.67 258.36 L 639.78 256.65 L 640.05 256.57 L 640.25 256.57 L 640.28 256.57 L 640.32 256.57 L 649.70 256.57 L 650.00 256.55"/>
	</g>
	<g id="poloto_plot2" class="poloto_plot poloto_imgs poloto_line poloto2 poloto_stroke" fill="none" stroke="black">
		<path d=" M 150.00 391.28 L 150.03 391.27 L 150.05 391.27 L 150.06 391.27 L 150.08 391.27 L 150.12 389.04 L 150.25 388.74 L 150.54 388.73 L 150.99 388.72 L 151.21 387.38 L 151.66 387.26 L 151.74 387.22 L 151.79 387.19 L 152.32 386.59 L 153.30 386.13 L 153.61 386.04 L 153.69 386.04 L 154.28 386.00 L 154.96 386.00 L 154.97 386.00 L 154.97 386.00 L 164.19 386.00 L 164.25 386.00 L 164.37 385.98 L 164.42 385.98 L 164.77 385.85 L 164.93 385.81 L 165.32 385.59 L 165.37 385.50 L 165.49 385.30 L 165.60 385.27 L 165.64 385.27 L 165.73 385.23 L 165.83 385.23 L 165.93 385.24 L 166.19 385.01 L 166.42 384.80 L 166.46 384.81 L 166.57 384.69 L 167.30 384.42 L 167.32 384.41 L 167.41 384.33 L 167.83 384.04 L 168.16 383.67 L 168.54 383.52 L 168.62 383.52 L 168.63 383.53 L 168.70 383.32 L 168.84 383.32 L 169.03 383.30 L 169.39 383.15 L 169.41 382.88 L 169.48 382.88 L 169.56 382.76 L 169.77 382.76 L 169.79 382.76 L 170.01 382.37 L 170.09 382.34 L 170.17 382.31 L 170.26 382.13 L 171.38 382.02 L 171.65 381.98 L 172.27 381.71 L 172.41 381.71 L 172.50 381.69 L 172.56 381.49 L 172.99 380.40 L 173.18 380.38 L 173.40 380.06 L 173.51 380.02 L 173.77 379.88 L 173.88 379.83 L 174.04 379.59 L 174.18 379.40 L 174.68 379.40 L 174.69 379.37 L 174.71 379.22 L 174.88 378.16 L 183.43 378.06 L 184.31 377.74 L 184.34 377.70 L 185.39 377.43 L 185.48 377.43 L 185.57 377.23 L 185.83 377.10 L 185.95 376.86 L 185.99 376.66 L 186.12 376.27 L 186.43 376.26 L 186.44 376.26 L 186.55 375.99 L 186.67 375.98 L 186.80 375.70 L 186.97 375.47 L 187.03 375.35 L 187.06 375.34 L 187.20 375.08 L 187.23 375.07 L 187.39 374.83 L 187.42 374.82 L 187.66 374.74 L 187.70 374.74 L 187.79 374.65 L 187.89 374.63 L 188.03 374.63 L 188.09 374.62 L 188.57 374.38 L 188.58 374.39 L 188.67 373.91 L 188.89 373.90 L 189.08 373.75 L 189.14 373.75 L 189.23 373.74 L 189.27 373.71 L 189.38 373.05 L 189.92 372.50 L 189.98 372.20 L 190.16 372.18 L 190.22 372.11 L 190.26 372.09 L 190.34 371.95 L 190.43 371.44 L 190.62 371.36 L 190.75 371.34 L 190.86 371.09 L 190.92 371.08 L 191.40 370.89 L 191.66 370.75 L 191.74 370.63 L 191.97 370.62 L 191.99 370.62 L 192.01 370.59 L 192.15 369.66 L 192.27 369.65 L 192.66 369.52 L 192.73 369.15 L 192.80 369.14 L 192.91 368.99 L 192.92 368.90 L 192.96 368.84 L 193.00 368.80 L 193.06 368.80 L 193.11 368.72 L 193.27 367.67 L 193.38 367.57 L 193.50 367.25 L 193.65 367.23 L 193.82 367.13 L 193.99 366.80 L 194.11 365.89 L 194.36 365.82 L 194.37 365.43 L 194.51 365.34 L 206.44 365.34 L 206.67 365.34 L 207.24 364.91 L 207.35 364.91 L 207.44 364.91 L 207.46 364.80 L 207.67 364.61 L 207.81 364.58 L 207.89 364.47 L 207.97 364.39 L 208.02 364.35 L 208.24 364.29 L 208.67 364.38 L 208.77 364.09 L 208.86 364.02 L 208.96 364.01 L 209.51 363.95 L 209.59 363.90 L 209.63 363.90 L 209.66 363.84 L 209.78 363.80 L 209.88 363.69 L 210.28 363.42 L 210.85 363.30 L 211.06 363.25 L 211.70 363.08 L 212.00 362.66 L 212.11 362.59 L 212.24 362.25 L 212.43 361.83 L 212.72 361.71 L 213.12 361.70 L 213.66 361.68 L 213.75 361.53 L 214.14 361.42 L 214.39 361.29 L 214.48 361.18 L 214.63 361.14 L 214.75 360.85 L 216.16 360.71 L 217.50 360.71 L 229.51 360.68 L 229.60 360.53 L 229.66 360.42 L 230.03 360.26 L 231.16 359.98 L 231.20 359.94 L 231.36 359.74 L 231.91 359.66 L 232.17 359.11 L 232.57 359.09 L 232.66 359.07 L 232.75 358.53 L 233.45 358.02 L 233.53 358.02 L 233.68 357.99 L 233.83 357.94 L 233.90 357.76 L 234.29 356.91 L 234.43 356.70 L 234.50 356.68 L 234.58 356.59 L 234.76 356.26 L 234.83 355.41 L 235.00 355.07 L 235.52 354.87 L 235.57 354.44 L 235.62 354.44 L 235.70 354.36 L 235.83 354.25 L 235.88 354.22 L 235.93 354.18 L 236.18 353.19 L 236.24 352.61 L 236.55 352.50 L 236.73 351.52 L 236.84 351.33 L 237.77 349.78 L 237.88 349.75 L 273.17 349.30 L 273.21 349.30 L 286.69 349.18 L 287.43 349.01 L 287.58 349.01 L 287.78 348.93 L 287.84 348.81 L 287.92 348.78 L 293.77 348.76 L 294.54 346.99 L 294.83 346.83 L 294.98 346.22 L 298.62 346.14 L 298.65 346.09 L 298.88 346.07 L 299.96 345.97 L 300.03 345.76 L 300.16 345.69 L 300.55 345.60 L 300.60 345.57 L 300.75 345.23 L 300.91 345.12 L 300.94 344.86 L 312.27 344.53 L 312.36 343.72 L 312.81 343.51 L 312.82 343.20 L 312.90 342.96 L 312.99 342.59 L 313.12 341.61 L 313.31 341.07 L 313.47 340.38 L 313.62 340.38 L 313.68 339.84 L 313.91 339.81 L 314.69 339.30 L 315.01 339.06 L 315.06 338.92 L 315.12 338.92 L 315.17 338.74 L 315.27 338.13 L 315.59 338.07 L 315.64 338.07 L 315.84 337.68 L 315.91 337.68 L 315.94 337.45 L 316.01 337.31 L 316.06 337.30 L 316.11 336.99 L 316.35 336.80 L 316.46 336.49 L 316.60 336.47 L 316.70 336.30 L 316.74 336.06 L 316.98 335.93 L 317.05 335.80 L 317.10 335.80 L 317.16 335.79 L 317.20 335.55 L 317.24 335.56 L 317.25 335.55 L 317.38 335.47 L 317.42 335.20 L 317.54 335.19 L 317.63 335.13 L 317.89 335.11 L 318.20 335.08 L 318.21 335.08 L 318.30 335.06 L 318.59 335.06 L 318.73 335.06 L 318.86 335.06 L 319.01 335.01 L 319.11 334.69 L 319.51 334.69 L 319.54 334.50 L 319.59 334.49 L 319.63 334.28 L 319.89 334.20 L 319.93 334.15 L 320.12 334.15 L 337.56 334.09 L 338.56 334.00 L 338.59 334.00 L 338.79 334.00 L 338.80 334.00 L 338.93 333.62 L 339.03 333.60 L 339.11 333.50 L 339.23 333.44 L 339.27 333.40 L 339.31 333.38 L 339.50 333.35 L 339.88 333.27 L 340.11 332.76 L 340.38 332.73 L 340.39 332.70 L 340.44 332.27 L 340.47 332.26 L 340.99 332.26 L 341.00 332.22 L 341.08 331.82 L 341.31 331.77 L 341.45 331.76 L 341.48 331.75 L 341.49 331.71 L 341.55 331.68 L 341.59 331.27 L 341.61 331.26 L 341.74 331.26 L 341.75 331.23 L 342.02 331.19 L 342.77 331.17 L 342.94 331.14 L 343.00 331.13 L 343.03 331.00 L 343.08 331.00 L 343.18 330.54 L 355.10 330.40 L 355.12 330.26 L 355.22 330.17 L 355.25 330.16 L 355.32 329.77 L 355.45 329.67 L 355.47 329.65 L 355.69 329.65 L 355.74 329.65 L 355.78 329.26 L 355.97 329.21 L 356.48 329.20 L 356.50 329.18 L 356.63 328.96 L 356.68 328.97 L 356.70 328.61 L 357.14 328.61 L 357.15 328.59 L 357.80 328.50 L 357.88 328.07 L 358.11 328.07 L 358.38 328.07 L 358.45 327.75 L 358.49 327.51 L 358.62 327.50 L 358.96 327.45 L 359.02 327.43 L 359.16 327.33 L 359.32 327.33 L 359.83 327.33 L 359.88 327.33 L 360.00 327.31 L 360.01 327.31 L 360.17 327.31 L 360.55 327.28 L 360.94 327.23 L 361.00 327.23 L 361.08 327.19 L 361.19 327.07 L 361.49 327.07 L 362.00 326.93 L 362.16 326.69 L 362.44 326.67 L 363.53 326.40 L 363.77 326.40 L 363.95 326.40 L 364.22 326.39 L 364.31 326.37 L 364.58 326.24 L 365.01 326.22 L 365.07 326.11 L 365.15 326.05 L 365.20 326.06 L 365.24 326.02 L 365.58 326.00 L 373.48 325.99 L 373.56 325.99 L 374.05 325.99 L 374.10 325.98 L 374.21 325.62 L 374.30 325.60 L 374.31 325.61 L 374.58 325.60 L 374.65 325.58 L 376.27 325.05 L 376.46 324.99 L 376.60 324.98 L 376.63 324.98 L 377.13 324.97 L 377.30 325.04 L 377.33 325.04 L 377.60 325.00 L 377.89 324.50 L 377.93 324.49 L 378.18 324.48 L 378.28 324.48 L 378.37 324.48 L 378.58 324.37 L 379.02 323.92 L 379.10 323.92 L 379.18 323.85 L 379.36 323.44 L 379.79 322.98 L 380.18 323.01 L 380.26 322.77 L 380.65 322.77 L 380.72 322.74 L 380.79 322.71 L 380.83 322.47 L 380.96 322.47 L 381.00 322.47 L 381.06 322.47 L 381.28 322.47 L 381.63 322.27 L 381.84 322.25 L 382.09 322.25 L 382.20 322.25 L 382.44 322.25 L 382.84 322.25 L 383.23 322.25 L 383.54 322.25 L 383.61 322.25 L 383.68 322.24 L 383.69 322.15 L 383.92 322.10 L 383.99 322.10 L 384.08 322.08 L 384.73 322.08 L 384.74 321.84 L 384.92 321.84 L 385.68 321.85 L 386.18 321.84 L 386.54 321.79 L 386.55 321.69 L 386.59 321.69 L 397.65 321.54 L 397.69 321.53 L 397.82 321.52 L 397.88 321.38 L 397.91 321.38 L 397.92 321.37 L 398.39 321.32 L 398.50 320.84 L 398.64 320.74 L 398.88 319.79 L 399.03 319.78 L 399.22 319.38 L 399.32 319.42 L 399.37 319.42 L 399.43 318.90 L 399.57 318.81 L 399.59 318.46 L 399.64 318.40 L 399.75 318.37 L 399.83 318.19 L 399.93 320.31 L 400.07 320.28 L 400.34 319.43 L 400.46 319.24 L 400.56 319.05 L 401.24 318.71 L 401.82 318.36 L 402.52 317.86 L 402.70 317.80 L 402.90 317.80 L 403.12 317.76 L 407.19 317.51 L 407.52 317.48 L 446.08 316.82 L 567.47 316.80 L 567.87 316.50 L 568.15 316.45 L 568.43 316.45 L 568.85 316.18 L 569.00 315.87 L 569.11 315.28 L 569.30 315.13 L 569.58 315.18 L 569.81 314.84 L 569.86 314.84 L 570.05 314.73 L 570.09 314.73 L 570.29 314.17 L 570.47 313.30 L 571.02 313.21 L 571.04 313.12 L 571.19 312.00 L 571.72 311.96 L 571.73 311.85 L 571.83 311.78 L 571.96 310.76 L 572.52 310.71 L 572.53 310.57 L 572.66 310.50 L 572.79 309.83 L 573.00 309.81 L 573.01 309.70 L 573.10 308.59 L 573.12 308.56 L 573.17 308.53 L 573.41 308.53 L 573.44 308.41 L 573.52 308.33 L 573.78 308.23 L 573.83 308.22 L 574.03 308.16 L 574.37 308.21 L 574.42 308.15 L 574.47 308.13 L 574.53 308.09 L 574.70 306.94 L 574.88 306.92 L 574.90 306.82 L 575.00 305.64 L 575.11 305.21 L 575.13 305.06 L 575.24 304.48 L 575.28 303.48 L 575.49 303.47 L 575.52 303.41 L 575.63 303.21 L 575.77 303.20 L 576.65 303.17 L 577.08 303.14 L 586.56 303.19 L 586.66 302.96 L 586.75 302.80 L 586.91 302.00 L 587.27 301.99 L 587.30 301.91 L 587.36 300.90 L 587.59 300.89 L 587.62 300.79 L 589.69 300.69 L 589.81 300.33 L 590.86 300.15 L 590.97 300.11 L 591.09 298.99 L 592.35 298.67 L 592.89 298.41 L 593.02 297.57 L 593.47 297.56 L 593.75 297.09 L 594.22 296.37 L 595.05 295.94 L 607.74 295.93 L 608.50 295.92 L 608.54 295.92 L 609.60 295.76 L 609.65 295.67 L 610.02 295.60 L 610.46 294.66 L 610.46 294.66 L 610.51 294.62 L 611.07 294.42 L 612.37 293.80 L 612.46 293.73 L 612.59 293.73 L 612.79 293.46 L 612.85 293.42 L 612.92 293.37 L 613.53 293.37 L 614.02 293.37 L 614.28 293.37 L 614.31 293.33 L 614.86 292.38 L 615.27 292.29 L 615.29 292.22 L 615.34 292.13 L 615.40 291.89 L 629.17 291.71 L 629.20 291.69 L 629.24 291.67 L 629.51 291.56 L 629.72 291.44 L 630.93 290.90 L 631.23 290.79 L 632.10 290.38 L 632.86 290.32 L 633.41 290.15 L 633.57 288.75 L 634.27 288.51 L 634.53 288.44 L 634.62 287.42 L 636.66 286.45 L 636.67 286.45 L 636.79 286.00 L 637.17 285.96 L 637.18 285.96 L 637.20 285.84 L 637.27 285.72 L 637.45 285.62 L 637.67 284.93 L 639.78 284.57 L 640.05 284.41 L 640.25 284.03 L 640.28 283.99 L 640.32 283.74 L 649.70 282.86 L 650.00 282.22"/>
	</g>
	<g class="poloto_legend poloto_imgs poloto_line poloto0 poloto_stroke"><line x1="680" x2="730" y1="81.25" y2="81.25"/></g>
	<g class="poloto_legend poloto_imgs poloto_line poloto1 poloto_stroke"><line x1="680" x2="730" y1="131.25" y2="131.25"/></g>
	<g class="poloto_legend poloto_imgs poloto_line poloto2 poloto_stroke"><line x1="680" x2="730" y1="181.25" y2="181.25"/></g>
	<text class="poloto_legend poloto_text poloto_line poloto0" x="675" y="100">total</text>
	<text class="poloto_legend poloto_text poloto_line poloto1" x="675" y="150">code</text>
	<text class="poloto_legend poloto_text poloto_line poloto2" x="675" y="200">docs</text>
	<text class="poloto_text poloto_name poloto_title" x="400.00" y="37.50">Workspace lines over time</text>
	<text class="poloto_text poloto_name poloto_x" x="400.00" y="640">date (JST)</text>
	<text class="poloto_text poloto_name poloto_y" x="37.50" y="250.00" transform="rotate(-90,37.50,250.00)">lines</text>
	<text class="poloto_text poloto_ticks poloto_y">
		<tspan x="135.00" y="400.00">0</tspan>
		<tspan x="135.00" y="317.11">50K</tspan>
		<tspan x="135.00" y="234.22">100K</tspan>
		<tspan x="135.00" y="151.32">150K</tspan>
	</text>
	<g class="poloto_imgs poloto_ticks poloto_y" stroke="black">
		<line x1="150.00" x2="144.00" y1="400.00" y2="400.00"/>
		<line x1="150.00" x2="144.00" y1="317.11" y2="317.11"/>
		<line x1="150.00" x2="144.00" y1="234.22" y2="234.22"/>
		<line x1="150.00" x2="144.00" y1="151.32" y2="151.32"/>
	</g>
	<g class="poloto_text poloto_ticks poloto_x">
		<text x="229.36" y="430.00" text-anchor="end" transform="rotate(-90 229.36 430.00)">2026-04-24 12:06</text>
		<text x="351.52" y="430.00" text-anchor="end" transform="rotate(-90 351.52 430.00)">2026-04-30 07:00</text>
		<text x="473.67" y="430.00" text-anchor="end" transform="rotate(-90 473.67 430.00)">2026-05-06 01:53</text>
		<text x="595.83" y="430.00" text-anchor="end" transform="rotate(-90 595.83 430.00)">2026-05-11 20:46</text>
	</g>
	<g class="poloto_imgs poloto_ticks poloto_x" stroke="black">
		<line x1="229.36" x2="229.36" y1="400.00" y2="405.00"/>
		<line x1="351.52" x2="351.52" y1="400.00" y2="405.00"/>
		<line x1="473.67" x2="473.67" y1="400.00" y2="405.00"/>
		<line x1="595.83" x2="595.83" y1="400.00" y2="405.00"/>
	</g>
	<path class="poloto_imgs poloto_ticks poloto_x" stroke="black" style="stroke-dasharray:12.215769581267852;stroke-dashoffset:-79.35925845394377;" d=" M 150.00 400.00 L 650.00 400.00"/>
	<path class="poloto_imgs poloto_ticks poloto_y" stroke="black" style="stroke-dasharray:8.28917047507999;stroke-dashoffset:-0;" d=" M 150.00 400.00 L 150.00 100.00"/>
</svg>

