<svg class="poloto" width="800" height="680" viewBox="0 0 800 680" xmlns="http://www.w3.org/2000/svg">
	<style>
.poloto{
  stroke-linecap:round;
  stroke-linejoin:round;
  font-family:Roboto,sans-serif;
  font-size:16px;
}
.poloto_background{fill:AliceBlue;}
.poloto_scatter{stroke-width:7}
.poloto_line{stroke-width:2}
.poloto_text{fill: black;}
.poloto_name{font-size:24px;dominant-baseline:auto;text-anchor:middle;}
.poloto_where{dominant-baseline:middle;text-anchor:start}
.poloto_text.poloto_legend{font-size:20px;dominant-baseline:middle;text-anchor:start;}
.poloto_text.poloto_ticks.poloto_y{dominant-baseline:middle;text-anchor:end}
.poloto_text.poloto_ticks.poloto_x{dominant-baseline:auto;text-anchor:middle}
.poloto_imgs.poloto_ticks{stroke: black;stroke-width:3;fill:none;stroke-dasharray:none}
.poloto_grid{stroke:gray;stroke-width:0.5}

.poloto0.poloto_stroke{stroke:blue;}
.poloto1.poloto_stroke{stroke:red;}
.poloto2.poloto_stroke{stroke:green;}
.poloto3.poloto_stroke{stroke:gold;}
.poloto4.poloto_stroke{stroke:aqua;}
.poloto5.poloto_stroke{stroke:lime;}
.poloto6.poloto_stroke{stroke:orange;}
.poloto7.poloto_stroke{stroke:chocolate;}
.poloto0.poloto_fill{fill:blue;}
.poloto1.poloto_fill{fill:red;}
.poloto2.poloto_fill{fill:green;}
.poloto3.poloto_fill{fill:gold;}
.poloto4.poloto_fill{fill:aqua;}
.poloto5.poloto_fill{fill:lime;}
.poloto6.poloto_fill{fill:orange;}
.poloto7.poloto_fill{fill:chocolate;}
	</style>
	<circle r="1e5" class="poloto_background" fill="white"/>
	<g id="poloto_plot0" class="poloto_plot poloto_imgs poloto_line poloto0 poloto_stroke" fill="none" stroke="black">
		<path d=" M 150.00 370.94 L 150.03 370.92 L 150.04 370.90 L 150.05 370.90 L 150.07 370.90 L 150.10 367.75 L 150.20 367.37 L 150.44 367.35 L 150.80 367.09 L 150.99 365.49 L 151.35 365.39 L 151.42 365.30 L 151.46 365.27 L 151.89 364.49 L 152.69 363.85 L 152.94 361.37 L 153.01 361.38 L 153.49 361.28 L 154.05 361.27 L 154.05 361.27 L 154.06 361.27 L 161.57 361.27 L 161.63 361.26 L 161.72 361.24 L 161.76 361.22 L 162.05 361.07 L 162.18 361.03 L 162.50 360.81 L 162.54 360.70 L 162.64 360.48 L 162.73 360.45 L 162.76 360.44 L 162.84 360.39 L 162.92 360.39 L 163.00 360.39 L 163.21 360.02 L 163.39 359.79 L 163.43 359.80 L 163.52 359.66 L 164.12 360.23 L 164.13 360.23 L 164.20 360.13 L 164.54 359.71 L 164.82 359.20 L 165.13 358.98 L 165.19 358.94 L 165.20 358.94 L 165.26 358.75 L 165.38 358.75 L 165.53 358.68 L 165.82 358.48 L 165.84 358.19 L 165.89 358.19 L 165.96 358.04 L 166.13 358.04 L 166.15 358.04 L 166.33 357.61 L 166.40 357.59 L 166.46 357.56 L 166.53 357.39 L 167.44 357.16 L 167.66 357.11 L 168.17 356.81 L 168.28 356.81 L 168.36 356.80 L 168.41 356.58 L 168.76 355.33 L 168.91 355.31 L 169.09 354.89 L 169.18 354.85 L 169.39 354.50 L 169.49 354.38 L 169.61 354.15 L 169.73 353.96 L 170.13 351.07 L 170.14 351.00 L 170.16 350.83 L 170.30 349.44 L 177.27 349.34 L 177.99 347.76 L 178.02 347.72 L 178.87 347.48 L 178.95 347.47 L 179.02 347.16 L 179.23 347.00 L 179.33 346.73 L 179.36 346.49 L 179.47 346.08 L 179.72 346.07 L 179.73 345.79 L 179.82 345.48 L 179.92 345.48 L 180.03 345.13 L 180.16 344.88 L 180.22 344.76 L 180.23 344.75 L 180.35 344.48 L 180.37 344.48 L 180.51 344.20 L 180.53 344.20 L 180.73 342.89 L 180.76 342.89 L 180.83 342.68 L 180.92 342.67 L 181.03 342.67 L 181.08 342.64 L 181.47 342.39 L 181.48 342.40 L 181.55 341.82 L 181.73 341.81 L 181.88 340.94 L 181.93 340.86 L 182.01 340.86 L 182.04 340.82 L 182.13 340.15 L 182.57 334.49 L 182.62 334.22 L 182.77 334.19 L 182.81 334.12 L 182.85 334.11 L 182.92 333.96 L 182.99 333.31 L 183.14 333.18 L 183.25 333.17 L 183.34 332.89 L 183.39 332.88 L 183.78 332.67 L 183.99 332.51 L 184.06 332.25 L 184.24 332.24 L 184.26 332.24 L 184.28 332.22 L 184.39 330.86 L 184.48 330.78 L 184.81 329.40 L 184.86 329.01 L 184.92 329.00 L 185.01 328.85 L 185.02 328.74 L 185.05 328.68 L 185.09 328.64 L 185.13 328.64 L 185.17 328.57 L 185.30 327.44 L 185.40 327.28 L 185.49 326.95 L 185.61 326.93 L 185.75 326.82 L 185.89 326.03 L 185.99 324.93 L 186.20 324.86 L 186.20 324.45 L 186.32 324.32 L 196.05 324.32 L 196.24 324.31 L 196.70 323.73 L 196.79 323.71 L 196.87 323.71 L 196.88 323.57 L 197.05 323.39 L 197.17 323.36 L 197.23 323.25 L 197.30 323.17 L 197.34 323.13 L 197.52 323.08 L 197.87 323.01 L 197.95 322.71 L 198.02 322.63 L 198.11 322.62 L 198.56 322.47 L 198.62 322.39 L 198.65 322.39 L 198.68 322.27 L 198.78 322.22 L 198.85 322.11 L 199.18 321.37 L 199.65 321.26 L 199.82 321.21 L 200.34 321.02 L 200.59 317.47 L 200.68 317.39 L 200.78 317.04 L 200.94 316.58 L 201.17 316.44 L 201.50 316.43 L 201.94 316.42 L 202.01 316.26 L 202.33 316.10 L 202.54 315.84 L 202.61 315.74 L 202.73 315.70 L 202.83 315.38 L 203.98 315.03 L 205.08 315.03 L 214.87 315.00 L 214.94 314.84 L 215.00 314.74 L 215.30 314.59 L 216.22 313.36 L 216.25 313.28 L 216.38 312.97 L 216.83 312.89 L 217.05 312.06 L 217.37 312.05 L 217.45 312.04 L 217.52 311.47 L 218.08 308.23 L 218.15 308.23 L 218.27 308.20 L 218.40 308.16 L 218.46 307.81 L 218.77 306.59 L 218.89 306.36 L 218.94 306.34 L 219.01 305.78 L 219.15 304.99 L 219.21 304.14 L 219.35 303.77 L 219.78 299.56 L 219.82 299.14 L 219.86 299.14 L 219.93 299.06 L 220.03 298.95 L 220.07 298.91 L 220.11 298.87 L 220.32 297.86 L 220.37 297.15 L 220.61 297.01 L 220.76 295.95 L 220.85 295.28 L 221.61 285.47 L 221.70 285.44 L 250.50 284.98 L 250.52 284.98 L 261.53 284.84 L 262.13 284.57 L 262.25 284.57 L 262.41 284.50 L 262.47 284.37 L 262.53 284.34 L 267.30 284.27 L 267.93 282.41 L 268.17 282.24 L 268.29 281.55 L 271.26 281.41 L 271.28 281.22 L 271.47 281.21 L 272.36 280.03 L 272.41 279.82 L 272.52 279.74 L 272.83 279.66 L 272.87 279.63 L 273.00 279.28 L 273.13 279.18 L 273.15 278.92 L 282.40 278.56 L 282.47 277.55 L 282.84 277.33 L 282.85 275.65 L 282.91 275.40 L 282.99 274.99 L 283.09 273.83 L 283.25 273.21 L 283.38 272.49 L 283.50 272.48 L 283.54 271.93 L 283.73 271.89 L 284.37 269.18 L 284.63 268.89 L 284.67 268.72 L 284.73 268.71 L 284.76 268.52 L 284.85 267.86 L 285.11 267.54 L 285.15 267.50 L 285.31 265.11 L 285.37 265.11 L 285.39 264.85 L 285.45 264.65 L 285.49 264.65 L 285.53 264.29 L 285.73 263.00 L 285.82 262.64 L 285.93 262.59 L 286.01 259.14 L 286.04 258.86 L 286.24 256.89 L 286.30 256.74 L 286.34 256.74 L 286.39 256.73 L 286.42 256.46 L 286.45 256.46 L 286.46 256.46 L 286.57 252.98 L 286.60 252.68 L 286.70 252.66 L 286.77 252.60 L 286.98 252.50 L 287.24 252.36 L 287.24 252.36 L 287.31 252.32 L 287.55 252.26 L 287.66 252.26 L 287.78 252.26 L 287.90 250.74 L 287.98 250.38 L 288.30 250.37 L 288.33 250.13 L 288.37 250.13 L 288.40 249.87 L 288.61 247.67 L 288.65 247.62 L 288.81 247.61 L 303.04 247.54 L 303.85 247.43 L 303.87 247.43 L 304.03 247.43 L 304.04 247.43 L 304.15 246.99 L 304.23 246.98 L 304.30 246.76 L 304.40 246.71 L 304.42 246.68 L 304.46 246.66 L 304.61 246.41 L 304.92 246.20 L 305.12 245.49 L 305.33 244.82 L 305.34 244.78 L 305.38 244.16 L 305.41 244.13 L 305.83 243.76 L 305.84 243.72 L 305.90 243.22 L 306.09 243.17 L 306.20 243.12 L 306.23 242.23 L 306.24 242.18 L 306.29 243.03 L 306.32 242.51 L 306.34 242.49 L 306.44 241.30 L 306.45 241.27 L 306.67 241.17 L 307.28 241.15 L 307.42 241.11 L 307.47 241.10 L 307.50 240.94 L 307.53 240.94 L 307.62 240.36 L 317.35 239.22 L 317.36 239.07 L 317.44 238.96 L 317.47 238.74 L 317.52 228.81 L 317.63 224.75 L 317.64 224.72 L 317.82 224.64 L 317.86 224.64 L 317.89 224.17 L 318.05 224.13 L 318.47 223.17 L 318.48 223.15 L 318.59 222.85 L 318.63 222.86 L 318.65 222.38 L 319.00 221.81 L 319.01 221.79 L 319.55 221.57 L 319.61 221.07 L 319.80 221.08 L 320.02 219.79 L 320.08 219.29 L 320.11 218.88 L 320.21 218.39 L 320.49 218.21 L 320.54 218.09 L 320.66 217.98 L 320.79 217.98 L 321.20 217.98 L 321.25 217.98 L 321.34 217.95 L 321.35 217.95 L 321.48 217.97 L 321.79 217.94 L 322.11 217.75 L 322.15 217.75 L 322.22 217.68 L 322.32 217.54 L 322.56 217.54 L 322.97 217.36 L 323.11 216.97 L 323.33 213.55 L 324.22 216.44 L 324.42 216.43 L 324.56 216.41 L 324.78 216.41 L 324.86 216.35 L 325.08 216.19 L 325.43 215.95 L 325.48 215.80 L 325.54 215.73 L 325.59 215.75 L 325.62 215.70 L 325.90 215.48 L 332.34 215.48 L 332.40 215.48 L 332.80 215.47 L 332.84 215.45 L 332.93 215.02 L 333.01 214.77 L 333.02 214.77 L 333.24 214.74 L 333.29 214.71 L 334.61 214.07 L 334.77 214.02 L 334.88 214.00 L 334.91 214.00 L 335.32 213.84 L 335.46 213.92 L 335.48 213.92 L 335.70 213.87 L 335.94 212.52 L 335.97 212.51 L 336.17 212.36 L 336.25 212.36 L 336.33 212.36 L 336.50 212.21 L 336.86 211.66 L 336.92 211.64 L 336.99 211.49 L 337.14 210.84 L 337.49 210.17 L 337.81 207.03 L 337.87 206.64 L 338.19 206.49 L 338.25 206.41 L 338.30 206.26 L 338.33 205.75 L 338.45 204.84 L 338.47 204.88 L 338.52 204.86 L 338.71 204.86 L 338.99 204.53 L 339.16 204.46 L 339.36 204.45 L 339.45 204.44 L 339.65 204.43 L 339.97 204.43 L 340.30 204.42 L 340.55 204.42 L 340.60 204.41 L 340.66 204.40 L 340.67 204.28 L 340.86 204.22 L 340.91 204.21 L 340.99 204.07 L 341.52 204.05 L 341.53 203.78 L 341.67 203.77 L 342.29 203.77 L 342.70 203.61 L 343.00 203.41 L 343.01 203.30 L 343.03 203.29 L 352.06 203.11 L 352.09 203.10 L 352.20 203.09 L 352.24 202.93 L 352.28 202.92 L 352.28 202.91 L 352.67 202.86 L 352.75 202.29 L 352.87 202.17 L 353.06 201.04 L 353.18 201.03 L 353.34 200.55 L 353.42 200.61 L 353.47 200.61 L 353.51 200.06 L 353.62 199.69 L 353.64 199.29 L 353.68 199.24 L 353.78 199.21 L 353.84 199.02 L 353.92 201.17 L 354.03 201.13 L 354.25 200.27 L 354.35 200.06 L 354.44 199.88 L 354.99 198.65 L 355.47 198.06 L 356.04 196.92 L 356.18 196.87 L 356.34 196.87 L 356.52 196.82 L 359.84 196.49 L 360.11 196.47 L 391.57 195.60 L 490.62 195.40 L 490.95 195.05 L 491.17 195.00 L 491.40 195.00 L 491.75 194.34 L 491.86 194.01 L 491.95 193.41 L 492.11 191.69 L 492.34 192.04 L 492.52 191.67 L 492.57 191.66 L 492.72 191.55 L 492.75 191.55 L 492.92 190.91 L 493.06 189.90 L 493.51 188.83 L 493.53 188.74 L 493.65 187.45 L 494.08 184.28 L 494.09 184.17 L 494.17 184.10 L 494.28 182.96 L 494.74 181.43 L 494.75 181.29 L 494.85 181.22 L 494.95 180.47 L 495.13 179.87 L 495.14 179.76 L 495.21 178.60 L 495.23 178.57 L 495.27 178.24 L 495.46 176.17 L 495.49 176.06 L 495.56 175.94 L 495.77 175.66 L 495.81 175.65 L 495.97 175.26 L 496.25 175.30 L 496.29 175.25 L 496.33 175.22 L 496.38 175.19 L 496.51 173.98 L 496.66 172.99 L 496.68 172.90 L 496.76 171.66 L 496.85 170.45 L 496.87 170.30 L 496.95 168.88 L 496.99 167.77 L 497.16 167.02 L 497.19 166.97 L 497.27 166.73 L 497.39 166.71 L 498.10 166.68 L 498.46 166.65 L 506.20 166.70 L 506.27 166.48 L 506.35 166.29 L 506.48 165.46 L 506.77 165.24 L 506.79 165.16 L 506.85 164.06 L 507.03 162.99 L 507.05 162.90 L 508.74 162.83 L 508.84 162.23 L 509.70 162.05 L 509.79 162.01 L 509.89 160.76 L 510.92 159.60 L 511.35 159.15 L 511.46 158.24 L 511.83 156.68 L 512.06 156.23 L 512.44 155.32 L 513.12 154.85 L 523.48 154.84 L 524.10 154.74 L 524.12 154.76 L 524.99 154.57 L 525.03 154.48 L 525.34 154.41 L 525.69 153.40 L 525.69 153.40 L 525.73 153.36 L 526.19 152.20 L 527.26 151.53 L 527.33 151.47 L 527.43 151.46 L 527.60 151.16 L 527.64 151.08 L 527.70 151.02 L 528.20 150.97 L 528.59 150.97 L 528.81 150.97 L 528.84 150.93 L 529.28 149.92 L 529.62 149.72 L 529.64 149.64 L 529.68 149.56 L 529.72 149.29 L 540.96 148.90 L 540.98 148.88 L 541.02 148.86 L 541.23 148.75 L 541.40 148.63 L 542.39 147.06 L 542.64 146.88 L 543.35 146.41 L 543.97 146.30 L 544.42 146.15 L 544.55 144.70 L 545.12 143.02 L 545.33 142.90 L 545.40 141.81 L 547.07 139.81 L 547.08 139.81 L 547.17 139.32 L 547.49 139.26 L 547.49 139.26 L 547.51 139.14 L 547.57 138.99 L 547.71 138.83 L 547.89 137.99 L 549.62 135.96 L 549.84 135.72 L 550.00 135.36 L 550.02 135.31 L 550.05 135.03 L 557.71 134.12 L 557.95 133.42 L 558.10 133.39 L 558.15 132.93 L 558.88 132.71 L 559.03 132.25 L 559.16 132.25 L 559.24 131.28 L 559.48 128.81 L 559.52 128.77 L 559.84 128.73 L 559.92 127.93 L 560.19 126.96 L 560.25 126.29 L 560.48 125.67 L 560.65 125.34 L 560.78 124.60 L 561.06 123.98 L 561.09 123.27 L 561.46 123.12 L 561.50 123.12 L 561.56 122.22 L 561.63 122.22 L 561.67 122.15 L 562.10 120.47 L 562.72 119.92 L 563.02 120.10 L 564.04 120.02 L 564.06 120.01 L 564.22 120.00 L 564.29 119.98 L 564.40 119.86 L 564.53 119.77 L 564.66 119.58 L 564.97 119.34 L 565.26 119.32 L 566.16 119.15 L 566.20 119.15 L 567.11 118.99 L 567.50 118.88 L 575.24 118.87 L 575.63 118.74 L 575.83 118.66 L 575.91 118.66 L 575.94 118.66 L 576.13 118.64 L 576.22 118.58 L 576.45 118.42 L 576.59 118.39 L 577.09 118.22 L 577.35 117.85 L 577.79 117.79 L 577.91 117.55 L 578.06 117.40 L 578.25 117.20 L 578.92 117.26 L 578.98 117.24 L 579.96 116.77 L 580.11 116.50 L 580.31 116.41 L 580.78 116.19 L 581.00 116.25 L 581.11 116.61 L 581.20 116.59 L 581.34 116.44 L 581.75 115.33 L 582.19 115.22 L 582.58 115.13 L 582.62 115.08 L 582.67 114.76 L 610.68 114.69 L 610.86 114.55 L 626.98 114.19 L 627.06 114.59 L 627.19 112.91 L 627.21 112.91 L 627.26 112.95 L 627.83 109.52 L 627.89 109.49 L 628.60 109.57 L 629.33 109.36 L 629.58 109.03 L 630.03 108.62 L 630.63 108.35 L 630.64 108.35 L 630.72 108.28 L 630.96 108.22 L 631.03 108.05 L 631.61 107.22 L 632.36 107.04 L 632.45 106.88 L 632.83 106.81 L 632.94 107.47 L 633.23 107.23 L 633.47 107.17 L 633.96 106.99 L 634.43 106.90 L 634.66 106.54 L 634.67 106.54 L 644.75 106.53 L 647.92 105.59 L 648.05 105.14 L 648.21 104.71 L 648.72 104.68 L 648.93 104.54 L 649.09 102.33 L 649.20 100.91 L 649.44 100.77 L 649.47 100.75 L 649.82 100.33 L 649.94 100.11 L 650.00 100.00"/>
	</g>
	<g id="poloto_plot1" class="poloto_plot poloto_imgs poloto_line poloto1 poloto_stroke" fill="none" stroke="black">
		<path d=" M 150.00 382.73 L 150.03 382.72 L 150.04 382.71 L 150.05 382.71 L 150.07 382.71 L 150.10 382.16 L 150.20 382.14 L 150.44 382.13 L 150.80 381.92 L 150.99 381.83 L 151.35 381.86 L 151.42 381.82 L 151.46 381.82 L 151.89 381.77 L 152.69 381.67 L 152.94 379.54 L 153.01 379.54 L 153.49 379.49 L 154.05 379.48 L 154.05 379.48 L 154.06 379.48 L 161.57 379.48 L 161.63 379.48 L 161.72 379.47 L 161.76 379.45 L 162.05 379.43 L 162.18 379.43 L 162.50 379.43 L 162.54 379.43 L 162.64 379.42 L 162.73 379.42 L 162.76 379.42 L 162.84 379.39 L 162.92 379.39 L 163.00 379.39 L 163.21 379.28 L 163.39 379.28 L 163.43 379.28 L 163.52 379.28 L 164.12 380.08 L 164.13 380.08 L 164.20 380.07 L 164.54 379.95 L 164.82 379.81 L 165.13 379.75 L 165.19 379.71 L 165.20 379.71 L 165.26 379.71 L 165.38 379.71 L 165.53 379.66 L 165.82 379.61 L 165.84 379.61 L 165.89 379.61 L 165.96 379.59 L 166.13 379.59 L 166.15 379.59 L 166.33 379.58 L 166.40 379.58 L 166.46 379.58 L 166.53 379.58 L 167.44 379.49 L 167.66 379.48 L 168.17 379.44 L 168.28 379.44 L 168.36 379.44 L 168.41 379.44 L 168.76 379.38 L 168.91 379.38 L 169.09 379.30 L 169.18 379.29 L 169.39 379.12 L 169.49 379.05 L 169.61 379.05 L 169.73 379.05 L 170.13 376.56 L 170.14 376.51 L 170.16 376.51 L 170.30 376.27 L 177.27 376.27 L 177.99 375.19 L 178.02 375.19 L 178.87 375.19 L 178.95 375.19 L 179.02 375.08 L 179.23 375.06 L 179.33 375.06 L 179.36 375.06 L 179.47 375.06 L 179.72 375.06 L 179.73 374.83 L 179.82 374.82 L 179.92 374.82 L 180.03 374.80 L 180.16 374.79 L 180.22 374.79 L 180.23 374.79 L 180.35 374.79 L 180.37 374.79 L 180.51 374.79 L 180.53 374.79 L 180.73 373.73 L 180.76 373.73 L 180.83 373.60 L 180.92 373.60 L 181.03 373.60 L 181.08 373.59 L 181.47 373.59 L 181.48 373.59 L 181.55 373.52 L 181.73 373.52 L 181.88 372.92 L 181.93 372.84 L 182.01 372.84 L 182.04 372.84 L 182.13 372.82 L 182.57 368.37 L 182.62 368.40 L 182.77 368.40 L 182.81 368.40 L 182.85 368.40 L 182.92 368.40 L 182.99 368.34 L 183.14 368.34 L 183.25 368.34 L 183.34 368.33 L 183.39 368.33 L 183.78 368.32 L 183.99 368.32 L 184.06 368.21 L 184.24 368.21 L 184.26 368.21 L 184.28 368.21 L 184.39 367.91 L 184.48 367.83 L 184.81 366.77 L 184.86 366.77 L 184.92 366.77 L 185.01 366.78 L 185.02 366.78 L 185.05 366.78 L 185.09 366.78 L 185.13 366.78 L 185.17 366.78 L 185.30 366.76 L 185.40 366.76 L 185.49 366.75 L 185.61 366.75 L 185.75 366.74 L 185.89 366.35 L 185.99 366.22 L 186.20 366.22 L 186.20 366.21 L 186.32 366.21 L 196.05 366.21 L 196.24 366.20 L 196.70 366.14 L 196.79 366.13 L 196.87 366.13 L 196.88 366.13 L 197.05 366.13 L 197.17 366.13 L 197.23 366.13 L 197.30 366.13 L 197.34 366.12 L 197.52 366.12 L 197.87 366.14 L 197.95 366.14 L 198.02 366.14 L 198.11 366.14 L 198.56 366.06 L 198.62 366.02 L 198.65 366.02 L 198.68 365.96 L 198.78 365.96 L 198.85 365.96 L 199.18 365.55 L 199.65 365.55 L 199.82 365.55 L 200.34 365.55 L 200.59 362.82 L 200.68 362.82 L 200.78 362.82 L 200.94 362.81 L 201.17 362.81 L 201.50 362.81 L 201.94 362.81 L 202.01 362.81 L 202.33 362.75 L 202.54 362.63 L 202.61 362.63 L 202.73 362.63 L 202.83 362.62 L 203.98 362.45 L 205.08 362.45 L 214.87 362.44 L 214.94 362.44 L 215.00 362.44 L 215.30 362.44 L 216.22 361.58 L 216.25 361.56 L 216.38 361.47 L 216.83 361.46 L 217.05 361.26 L 217.37 361.26 L 217.45 361.26 L 217.52 361.26 L 218.08 358.86 L 218.15 358.86 L 218.27 358.86 L 218.40 358.86 L 218.46 358.71 L 218.77 358.42 L 218.89 358.42 L 218.94 358.42 L 219.01 357.98 L 219.15 357.54 L 219.21 357.54 L 219.35 357.53 L 219.78 353.96 L 219.82 353.96 L 219.86 353.96 L 219.93 353.96 L 220.03 353.96 L 220.07 353.96 L 220.11 353.96 L 220.32 353.96 L 220.37 353.88 L 220.61 353.87 L 220.76 353.82 L 220.85 353.39 L 221.61 346.28 L 221.70 346.28 L 250.50 346.28 L 250.52 346.28 L 261.53 346.28 L 262.13 346.18 L 262.25 346.18 L 262.41 346.18 L 262.47 346.18 L 262.53 346.18 L 267.30 346.12 L 267.93 346.05 L 268.17 346.05 L 268.29 346.03 L 271.26 345.97 L 271.28 345.87 L 271.47 345.88 L 272.36 344.91 L 272.41 344.91 L 272.52 344.91 L 272.83 344.91 L 272.87 344.91 L 273.00 344.91 L 273.13 344.91 L 273.15 344.91 L 282.40 344.90 L 282.47 344.73 L 282.84 344.73 L 282.85 343.57 L 282.91 343.57 L 282.99 343.57 L 283.09 343.46 L 283.25 343.46 L 283.38 343.41 L 283.50 343.41 L 283.54 343.41 L 283.73 343.39 L 284.37 341.42 L 284.63 341.42 L 284.67 341.41 L 284.73 341.41 L 284.76 341.41 L 284.85 341.38 L 285.11 341.13 L 285.15 341.10 L 285.31 339.33 L 285.37 339.32 L 285.39 339.32 L 285.45 339.30 L 285.49 339.30 L 285.53 339.29 L 285.73 338.33 L 285.82 338.32 L 285.93 338.30 L 286.01 335.30 L 286.04 335.30 L 286.24 333.61 L 286.30 333.61 L 286.34 333.61 L 286.39 333.61 L 286.42 333.61 L 286.45 333.61 L 286.46 333.61 L 286.57 330.49 L 286.60 330.48 L 286.70 330.47 L 286.77 330.47 L 286.98 330.41 L 287.24 330.32 L 287.24 330.32 L 287.31 330.30 L 287.55 330.25 L 287.66 330.25 L 287.78 330.25 L 287.90 328.91 L 287.98 328.91 L 288.30 328.90 L 288.33 328.90 L 288.37 328.90 L 288.40 328.90 L 288.61 326.98 L 288.65 326.98 L 288.81 326.97 L 303.04 326.97 L 303.85 326.95 L 303.87 326.95 L 304.03 326.95 L 304.04 326.95 L 304.15 326.95 L 304.23 326.95 L 304.30 326.86 L 304.40 326.86 L 304.42 326.86 L 304.46 326.86 L 304.61 326.68 L 304.92 326.57 L 305.12 326.46 L 305.33 325.92 L 305.34 325.92 L 305.38 325.78 L 305.41 325.76 L 305.83 325.43 L 305.84 325.43 L 305.90 325.38 L 306.09 325.38 L 306.20 325.35 L 306.23 324.55 L 306.24 324.55 L 306.29 325.34 L 306.32 325.30 L 306.34 325.29 L 306.44 324.22 L 306.45 324.22 L 306.67 324.17 L 307.28 324.17 L 307.42 324.17 L 307.47 324.17 L 307.50 324.17 L 307.53 324.17 L 307.62 324.10 L 317.35 323.21 L 317.36 323.21 L 317.44 323.21 L 317.47 323.02 L 317.52 313.54 L 317.63 310.01 L 317.64 310.01 L 317.82 309.94 L 317.86 309.94 L 317.89 309.93 L 318.05 309.93 L 318.47 309.07 L 318.48 309.07 L 318.59 309.02 L 318.63 309.02 L 318.65 308.95 L 319.00 308.43 L 319.01 308.43 L 319.55 308.33 L 319.61 308.29 L 319.80 308.30 L 320.02 307.14 L 320.08 307.02 L 320.11 306.91 L 320.21 306.47 L 320.49 306.37 L 320.54 306.27 L 320.66 306.27 L 320.79 306.27 L 321.20 306.27 L 321.25 306.27 L 321.34 306.27 L 321.35 306.27 L 321.48 306.28 L 321.79 306.28 L 322.11 306.16 L 322.15 306.16 L 322.22 306.15 L 322.32 306.15 L 322.56 306.15 L 322.97 306.15 L 323.11 306.04 L 323.33 302.98 L 324.22 305.87 L 324.42 305.86 L 324.56 305.85 L 324.78 305.85 L 324.86 305.82 L 325.08 305.80 L 325.43 305.62 L 325.48 305.62 L 325.54 305.62 L 325.59 305.62 L 325.62 305.62 L 325.90 305.46 L 332.34 305.46 L 332.40 305.46 L 332.80 305.45 L 332.84 305.45 L 332.93 305.42 L 333.01 305.21 L 333.02 305.20 L 333.24 305.18 L 333.29 305.18 L 334.61 305.00 L 334.77 305.00 L 334.88 305.00 L 334.91 305.00 L 335.32 304.88 L 335.46 304.88 L 335.48 304.88 L 335.70 304.87 L 335.94 304.15 L 335.97 304.15 L 336.17 304.03 L 336.25 304.03 L 336.33 304.03 L 336.50 304.03 L 336.86 304.01 L 336.92 304.00 L 336.99 303.93 L 337.14 303.81 L 337.49 303.69 L 337.81 300.81 L 337.87 300.71 L 338.19 300.57 L 338.25 300.54 L 338.30 300.44 L 338.33 300.23 L 338.45 299.37 L 338.47 299.41 L 338.52 299.39 L 338.71 299.38 L 338.99 299.27 L 339.16 299.22 L 339.36 299.21 L 339.45 299.20 L 339.65 299.19 L 339.97 299.19 L 340.30 299.18 L 340.55 299.18 L 340.60 299.17 L 340.66 299.17 L 340.67 299.16 L 340.86 299.16 L 340.91 299.15 L 340.99 299.04 L 341.52 299.03 L 341.53 299.03 L 341.67 299.02 L 342.29 299.02 L 342.70 298.88 L 343.00 298.75 L 343.01 298.75 L 343.03 298.75 L 352.06 298.75 L 352.09 298.75 L 352.20 298.75 L 352.24 298.75 L 352.28 298.73 L 352.28 298.73 L 352.67 298.73 L 352.75 298.72 L 352.87 298.70 L 353.06 298.68 L 353.18 298.68 L 353.34 298.62 L 353.42 298.62 L 353.47 298.62 L 353.51 298.62 L 353.62 298.35 L 353.64 298.35 L 353.68 298.35 L 353.78 298.35 L 353.84 298.35 L 353.92 298.42 L 354.03 298.42 L 354.25 298.40 L 354.35 298.40 L 354.44 298.40 L 354.99 297.56 L 355.47 297.33 L 356.04 296.72 L 356.18 296.72 L 356.34 296.72 L 356.52 296.72 L 359.84 296.65 L 360.11 296.64 L 391.57 296.54 L 490.62 296.38 L 490.95 296.33 L 491.17 296.32 L 491.40 296.32 L 491.75 295.93 L 491.86 295.93 L 491.95 295.93 L 492.11 294.51 L 492.34 294.78 L 492.52 294.76 L 492.57 294.76 L 492.72 294.75 L 492.75 294.75 L 492.92 294.74 L 493.06 294.68 L 493.51 293.78 L 493.53 293.78 L 493.65 293.70 L 494.08 290.79 L 494.09 290.79 L 494.17 290.79 L 494.28 290.74 L 494.74 289.39 L 494.75 289.39 L 494.85 289.39 L 494.95 289.35 L 495.13 288.86 L 495.14 288.86 L 495.21 288.85 L 495.23 288.85 L 495.27 288.58 L 495.46 286.65 L 495.49 286.65 L 495.56 286.65 L 495.77 286.49 L 495.81 286.49 L 495.97 286.17 L 496.25 286.17 L 496.29 286.17 L 496.33 286.17 L 496.38 286.17 L 496.51 286.17 L 496.66 285.30 L 496.68 285.30 L 496.76 285.30 L 496.85 284.64 L 496.87 284.64 L 496.95 283.94 L 496.99 283.90 L 497.16 283.21 L 497.19 283.21 L 497.27 283.21 L 497.39 283.20 L 498.10 283.20 L 498.46 283.19 L 506.20 283.19 L 506.27 283.19 L 506.35 283.19 L 506.48 283.19 L 506.77 283.01 L 506.79 283.01 L 506.85 282.95 L 507.03 281.99 L 507.05 281.99 L 508.74 282.01 L 508.84 281.82 L 509.70 281.82 L 509.79 281.81 L 509.89 281.74 L 510.92 280.95 L 511.35 280.80 L 511.46 280.75 L 511.83 279.24 L 512.06 279.24 L 512.44 279.12 L 513.12 279.12 L 523.48 279.11 L 524.10 279.02 L 524.12 279.04 L 524.99 279.04 L 525.03 279.04 L 525.34 279.04 L 525.69 279.01 L 525.69 279.01 L 525.73 279.01 L 526.19 278.13 L 527.26 278.11 L 527.33 278.11 L 527.43 278.11 L 527.60 278.07 L 527.64 278.04 L 527.70 278.04 L 528.20 278.00 L 528.59 278.00 L 528.81 278.00 L 528.84 278.00 L 529.28 277.98 L 529.62 277.88 L 529.64 277.88 L 529.68 277.88 L 529.72 277.88 L 540.96 277.68 L 540.98 277.68 L 541.02 277.68 L 541.23 277.68 L 541.40 277.68 L 542.39 276.81 L 542.64 276.76 L 543.35 276.69 L 543.97 276.64 L 544.42 276.64 L 544.55 276.64 L 545.12 275.33 L 545.33 275.30 L 545.40 275.25 L 547.07 274.33 L 547.08 274.33 L 547.17 274.32 L 547.49 274.31 L 547.49 274.31 L 547.51 274.31 L 547.57 274.28 L 547.71 274.24 L 547.89 274.14 L 549.62 272.62 L 549.84 272.54 L 550.00 272.54 L 550.02 272.54 L 550.05 272.54 L 557.71 272.54 L 557.95 272.53 L 558.10 272.53 L 558.15 272.53 L 558.88 272.53 L 559.03 272.53 L 559.16 272.53 L 559.24 272.50 L 559.48 270.51 L 559.52 270.49 L 559.84 270.50 L 559.92 270.49 L 560.19 269.72 L 560.25 269.68 L 560.48 269.17 L 560.65 269.17 L 560.78 269.13 L 561.06 268.66 L 561.09 268.66 L 561.46 267.18 L 561.50 267.18 L 561.56 267.17 L 561.63 267.17 L 561.67 267.17 L 562.10 265.69 L 562.72 265.56 L 563.02 265.56 L 564.04 265.52 L 564.06 265.51 L 564.22 265.51 L 564.29 265.51 L 564.40 265.51 L 564.53 265.51 L 564.66 265.50 L 564.97 265.48 L 565.26 265.48 L 566.16 265.41 L 566.20 265.41 L 567.11 265.37 L 567.50 265.33 L 575.24 265.35 L 575.63 265.27 L 575.83 265.20 L 575.91 265.20 L 575.94 265.20 L 576.13 265.19 L 576.22 265.19 L 576.45 265.19 L 576.59 265.18 L 577.09 265.05 L 577.35 264.78 L 577.79 264.76 L 577.91 264.58 L 578.06 264.50 L 578.25 264.42 L 578.92 264.50 L 578.98 264.50 L 579.96 264.22 L 580.11 264.22 L 580.31 264.22 L 580.78 264.20 L 581.00 264.33 L 581.11 264.33 L 581.20 264.33 L 581.34 264.33 L 581.75 263.69 L 582.19 263.68 L 582.58 263.67 L 582.62 263.67 L 582.67 263.67 L 610.68 263.67 L 610.86 263.63 L 626.98 263.41 L 627.06 263.41 L 627.19 263.36 L 627.21 263.36 L 627.26 263.36 L 627.83 260.89 L 627.89 260.89 L 628.60 260.89 L 629.33 260.78 L 629.58 260.53 L 630.03 260.21 L 630.63 260.13 L 630.64 260.13 L 630.72 260.08 L 630.96 260.08 L 631.03 260.03 L 631.61 259.36 L 632.36 259.25 L 632.45 259.25 L 632.83 259.25 L 632.94 259.25 L 633.23 259.09 L 633.47 259.06 L 633.96 258.92 L 634.43 258.85 L 634.66 258.85 L 634.67 258.85 L 644.75 258.85 L 647.92 258.80 L 648.05 258.78 L 648.21 258.48 L 648.72 258.50 L 648.93 258.50 L 649.09 258.50 L 649.20 258.37 L 649.44 258.28 L 649.47 258.28 L 649.82 258.04 L 649.94 257.87 L 650.00 257.82"/>
	</g>
	<g id="poloto_plot2" class="poloto_plot poloto_imgs poloto_line poloto2 poloto_stroke" fill="none" stroke="black">
		<path d=" M 150.00 392.25 L 150.03 392.25 L 150.04 392.25 L 150.05 392.25 L 150.07 392.25 L 150.10 390.26 L 150.20 389.99 L 150.44 389.99 L 150.80 389.97 L 150.99 388.79 L 151.35 388.68 L 151.42 388.65 L 151.46 388.62 L 151.89 388.09 L 152.69 387.67 L 152.94 387.59 L 153.01 387.60 L 153.49 387.56 L 154.05 387.56 L 154.05 387.56 L 154.06 387.56 L 161.57 387.56 L 161.63 387.56 L 161.72 387.54 L 161.76 387.54 L 162.05 387.42 L 162.18 387.39 L 162.50 387.20 L 162.54 387.11 L 162.64 386.94 L 162.73 386.91 L 162.76 386.91 L 162.84 386.88 L 162.92 386.88 L 163.00 386.88 L 163.21 386.68 L 163.39 386.50 L 163.43 386.50 L 163.52 386.39 L 164.12 386.15 L 164.13 386.15 L 164.20 386.08 L 164.54 385.81 L 164.82 385.49 L 165.13 385.36 L 165.19 385.36 L 165.20 385.36 L 165.26 385.18 L 165.38 385.18 L 165.53 385.16 L 165.82 385.02 L 165.84 384.79 L 165.89 384.79 L 165.96 384.68 L 166.13 384.68 L 166.15 384.68 L 166.33 384.33 L 166.40 384.31 L 166.46 384.28 L 166.53 384.12 L 167.44 384.02 L 167.66 383.99 L 168.17 383.75 L 168.28 383.75 L 168.36 383.73 L 168.41 383.55 L 168.76 382.58 L 168.91 382.57 L 169.09 382.28 L 169.18 382.25 L 169.39 382.12 L 169.49 382.07 L 169.61 381.87 L 169.73 381.70 L 170.13 381.69 L 170.14 381.67 L 170.16 381.53 L 170.30 380.60 L 177.27 380.50 L 177.99 380.22 L 178.02 380.18 L 178.87 379.95 L 178.95 379.94 L 179.02 379.77 L 179.23 379.65 L 179.33 379.44 L 179.36 379.26 L 179.47 378.91 L 179.72 378.91 L 179.73 378.91 L 179.82 378.66 L 179.92 378.66 L 180.03 378.40 L 180.16 378.20 L 180.22 378.09 L 180.23 378.09 L 180.35 377.86 L 180.37 377.85 L 180.51 377.64 L 180.53 377.63 L 180.73 377.55 L 180.76 377.55 L 180.83 377.47 L 180.92 377.46 L 181.03 377.46 L 181.08 377.44 L 181.47 377.23 L 181.48 377.24 L 181.55 376.82 L 181.73 376.80 L 181.88 376.67 L 181.93 376.67 L 182.01 376.67 L 182.04 376.63 L 182.13 376.06 L 182.57 375.57 L 182.62 375.30 L 182.77 375.28 L 182.81 375.21 L 182.85 375.20 L 182.92 375.08 L 182.99 374.62 L 183.14 374.55 L 183.25 374.54 L 183.34 374.31 L 183.39 374.30 L 183.78 374.13 L 183.99 374.01 L 184.06 373.90 L 184.24 373.89 L 184.26 373.89 L 184.28 373.87 L 184.39 373.04 L 184.48 373.03 L 184.81 372.91 L 184.86 372.58 L 184.92 372.58 L 185.01 372.44 L 185.02 372.36 L 185.05 372.31 L 185.09 372.28 L 185.13 372.27 L 185.17 372.21 L 185.30 371.27 L 185.40 371.18 L 185.49 370.90 L 185.61 370.88 L 185.75 370.79 L 185.89 370.50 L 185.99 369.69 L 186.20 369.63 L 186.20 369.28 L 186.32 369.20 L 196.05 369.20 L 196.24 369.20 L 196.70 368.82 L 196.79 368.82 L 196.87 368.82 L 196.88 368.72 L 197.05 368.56 L 197.17 368.53 L 197.23 368.43 L 197.30 368.36 L 197.34 368.32 L 197.52 368.27 L 197.87 368.35 L 197.95 368.09 L 198.02 368.02 L 198.11 368.02 L 198.56 367.97 L 198.62 367.92 L 198.65 367.92 L 198.68 367.87 L 198.78 367.83 L 198.85 367.73 L 199.18 367.49 L 199.65 367.39 L 199.82 367.35 L 200.34 367.19 L 200.59 366.82 L 200.68 366.75 L 200.78 366.46 L 200.94 366.08 L 201.17 365.98 L 201.50 365.97 L 201.94 365.95 L 202.01 365.81 L 202.33 365.72 L 202.54 365.60 L 202.61 365.50 L 202.73 365.47 L 202.83 365.21 L 203.98 365.09 L 205.08 365.09 L 214.87 365.06 L 214.94 364.92 L 215.00 364.83 L 215.30 364.69 L 216.22 364.44 L 216.25 364.40 L 216.38 364.22 L 216.83 364.15 L 217.05 363.66 L 217.37 363.65 L 217.45 363.63 L 217.52 363.15 L 218.08 362.70 L 218.15 362.70 L 218.27 362.67 L 218.40 362.63 L 218.46 362.46 L 218.77 361.71 L 218.89 361.52 L 218.94 361.50 L 219.01 361.43 L 219.15 361.13 L 219.21 360.38 L 219.35 360.07 L 219.78 359.89 L 219.82 359.52 L 219.86 359.52 L 219.93 359.45 L 220.03 359.35 L 220.07 359.32 L 220.11 359.28 L 220.32 358.41 L 220.37 357.89 L 220.61 357.79 L 220.76 356.92 L 220.85 356.75 L 221.61 355.38 L 221.70 355.35 L 250.50 354.95 L 250.52 354.95 L 261.53 354.84 L 262.13 354.69 L 262.25 354.69 L 262.41 354.62 L 262.47 354.51 L 262.53 354.48 L 267.30 354.47 L 267.93 352.89 L 268.17 352.76 L 268.29 352.21 L 271.26 352.14 L 271.28 352.09 L 271.47 352.08 L 272.36 351.99 L 272.41 351.80 L 272.52 351.74 L 272.83 351.66 L 272.87 351.63 L 273.00 351.33 L 273.13 351.24 L 273.15 351.00 L 282.40 350.71 L 282.47 349.99 L 282.84 349.80 L 282.85 349.53 L 282.91 349.31 L 282.99 348.98 L 283.09 348.11 L 283.25 347.64 L 283.38 347.02 L 283.50 347.02 L 283.54 346.54 L 283.73 346.51 L 284.37 346.06 L 284.63 345.85 L 284.67 345.72 L 284.73 345.72 L 284.76 345.56 L 284.85 345.03 L 285.11 344.97 L 285.15 344.97 L 285.31 344.62 L 285.37 344.62 L 285.39 344.42 L 285.45 344.29 L 285.49 344.29 L 285.53 344.01 L 285.73 343.84 L 285.82 343.56 L 285.93 343.55 L 286.01 343.40 L 286.04 343.19 L 286.24 343.07 L 286.30 342.95 L 286.34 342.95 L 286.39 342.94 L 286.42 342.73 L 286.45 342.74 L 286.46 342.73 L 286.57 342.66 L 286.60 342.41 L 286.70 342.41 L 286.77 342.35 L 286.98 342.33 L 287.24 342.31 L 287.24 342.31 L 287.31 342.29 L 287.55 342.29 L 287.66 342.29 L 287.78 342.29 L 287.90 342.25 L 287.98 341.96 L 288.30 341.96 L 288.33 341.79 L 288.37 341.79 L 288.40 341.60 L 288.61 341.53 L 288.65 341.48 L 288.81 341.48 L 303.04 341.43 L 303.85 341.35 L 303.87 341.35 L 304.03 341.35 L 304.04 341.35 L 304.15 341.01 L 304.23 341.00 L 304.30 340.90 L 304.40 340.85 L 304.42 340.82 L 304.46 340.80 L 304.61 340.77 L 304.92 340.71 L 305.12 340.25 L 305.33 340.22 L 305.34 340.19 L 305.38 339.81 L 305.41 339.81 L 305.83 339.81 L 305.84 339.77 L 305.90 339.42 L 306.09 339.37 L 306.20 339.36 L 306.23 339.35 L 306.24 339.31 L 306.29 339.29 L 306.32 338.93 L 306.34 338.92 L 306.44 338.92 L 306.45 338.89 L 306.67 338.85 L 307.28 338.84 L 307.42 338.81 L 307.47 338.80 L 307.50 338.68 L 307.53 338.68 L 307.62 338.28 L 317.35 338.15 L 317.36 338.03 L 317.44 337.95 L 317.47 337.94 L 317.52 337.59 L 317.63 337.51 L 317.64 337.49 L 317.82 337.48 L 317.86 337.48 L 317.89 337.14 L 318.05 337.10 L 318.47 337.08 L 318.48 337.07 L 318.59 336.88 L 318.63 336.88 L 318.65 336.56 L 319.00 336.56 L 319.01 336.55 L 319.55 336.47 L 319.61 336.09 L 319.80 336.09 L 320.02 336.08 L 320.08 335.80 L 320.11 335.58 L 320.21 335.58 L 320.49 335.53 L 320.54 335.51 L 320.66 335.42 L 320.79 335.42 L 321.20 335.43 L 321.25 335.43 L 321.34 335.40 L 321.35 335.40 L 321.48 335.40 L 321.79 335.38 L 322.11 335.34 L 322.15 335.34 L 322.22 335.30 L 322.32 335.20 L 322.56 335.20 L 322.97 335.07 L 323.11 334.86 L 323.33 334.83 L 324.22 334.60 L 324.42 334.60 L 324.56 334.60 L 324.78 334.59 L 324.86 334.58 L 325.08 334.46 L 325.43 334.44 L 325.48 334.34 L 325.54 334.29 L 325.59 334.30 L 325.62 334.26 L 325.90 334.24 L 332.34 334.24 L 332.40 334.24 L 332.80 334.24 L 332.84 334.22 L 332.93 333.91 L 333.01 333.89 L 333.02 333.89 L 333.24 333.89 L 333.29 333.87 L 334.61 333.40 L 334.77 333.35 L 334.88 333.34 L 334.91 333.34 L 335.32 333.33 L 335.46 333.39 L 335.48 333.39 L 335.70 333.36 L 335.94 332.91 L 335.97 332.90 L 336.17 332.89 L 336.25 332.89 L 336.33 332.89 L 336.50 332.80 L 336.86 332.39 L 336.92 332.39 L 336.99 332.33 L 337.14 331.97 L 337.49 331.56 L 337.81 331.59 L 337.87 331.37 L 338.19 331.37 L 338.25 331.35 L 338.30 331.32 L 338.33 331.11 L 338.45 331.10 L 338.47 331.10 L 338.52 331.10 L 338.71 331.10 L 338.99 330.93 L 339.16 330.91 L 339.36 330.91 L 339.45 330.91 L 339.65 330.91 L 339.97 330.91 L 340.30 330.91 L 340.55 330.91 L 340.60 330.91 L 340.66 330.90 L 340.67 330.83 L 340.86 330.77 L 340.91 330.77 L 340.99 330.76 L 341.52 330.76 L 341.53 330.55 L 341.67 330.55 L 342.29 330.55 L 342.70 330.55 L 343.00 330.50 L 343.01 330.42 L 343.03 330.42 L 352.06 330.28 L 352.09 330.27 L 352.20 330.26 L 352.24 330.13 L 352.28 330.13 L 352.28 330.13 L 352.67 330.09 L 352.75 329.66 L 352.87 329.57 L 353.06 328.73 L 353.18 328.72 L 353.34 328.36 L 353.42 328.40 L 353.47 328.40 L 353.51 327.94 L 353.62 327.86 L 353.64 327.54 L 353.68 327.49 L 353.78 327.46 L 353.84 327.31 L 353.92 329.19 L 354.03 329.16 L 354.25 328.40 L 354.35 328.24 L 354.44 328.07 L 354.99 327.77 L 355.47 327.45 L 356.04 327.01 L 356.18 326.96 L 356.34 326.96 L 356.52 326.92 L 359.84 326.70 L 360.11 326.67 L 391.57 326.09 L 490.62 326.07 L 490.95 325.80 L 491.17 325.76 L 491.40 325.76 L 491.75 325.52 L 491.86 325.24 L 491.95 324.72 L 492.11 324.58 L 492.34 324.63 L 492.52 324.33 L 492.57 324.33 L 492.72 324.23 L 492.75 324.23 L 492.92 323.73 L 493.06 322.96 L 493.51 322.88 L 493.53 322.80 L 493.65 321.80 L 494.08 321.77 L 494.09 321.67 L 494.17 321.61 L 494.28 320.70 L 494.74 320.66 L 494.75 320.53 L 494.85 320.47 L 494.95 319.87 L 495.13 319.86 L 495.14 319.76 L 495.21 318.77 L 495.23 318.75 L 495.27 318.72 L 495.46 318.72 L 495.49 318.61 L 495.56 318.54 L 495.77 318.45 L 495.81 318.44 L 495.97 318.39 L 496.25 318.43 L 496.29 318.39 L 496.33 318.36 L 496.38 318.33 L 496.51 317.31 L 496.66 317.29 L 496.68 317.20 L 496.76 316.15 L 496.85 315.77 L 496.87 315.63 L 496.95 315.12 L 496.99 314.23 L 497.16 314.22 L 497.19 314.17 L 497.27 313.99 L 497.39 313.99 L 498.10 313.96 L 498.46 313.93 L 506.20 313.97 L 506.27 313.77 L 506.35 313.62 L 506.48 312.91 L 506.77 312.90 L 506.79 312.83 L 506.85 311.94 L 507.03 311.93 L 507.05 311.84 L 508.74 311.75 L 508.84 311.43 L 509.70 311.27 L 509.79 311.24 L 509.89 310.25 L 510.92 309.96 L 511.35 309.72 L 511.46 308.98 L 511.83 308.97 L 512.06 308.56 L 512.44 307.92 L 513.12 307.53 L 523.48 307.53 L 524.10 307.51 L 524.12 307.51 L 524.99 307.37 L 525.03 307.29 L 525.34 307.23 L 525.69 306.40 L 525.69 306.40 L 525.73 306.36 L 526.19 306.18 L 527.26 305.63 L 527.33 305.57 L 527.43 305.57 L 527.60 305.33 L 527.64 305.30 L 527.70 305.25 L 528.20 305.25 L 528.59 305.25 L 528.81 305.25 L 528.84 305.21 L 529.28 304.37 L 529.62 304.29 L 529.64 304.22 L 529.68 304.14 L 529.72 303.93 L 540.96 303.78 L 540.98 303.76 L 541.02 303.74 L 541.23 303.64 L 541.40 303.53 L 542.39 303.05 L 542.64 302.96 L 543.35 302.59 L 543.97 302.54 L 544.42 302.39 L 544.55 301.14 L 545.12 300.93 L 545.33 300.87 L 545.40 299.97 L 547.07 299.10 L 547.08 299.10 L 547.17 298.70 L 547.49 298.66 L 547.49 298.66 L 547.51 298.56 L 547.57 298.45 L 547.71 298.36 L 547.89 297.75 L 549.62 297.43 L 549.84 297.29 L 550.00 296.95 L 550.02 296.91 L 550.05 296.69 L 557.71 295.91 L 557.95 295.34 L 558.10 295.32 L 558.15 294.94 L 558.88 294.78 L 559.03 294.38 L 559.16 294.38 L 559.24 293.54 L 559.48 293.34 L 559.52 293.32 L 559.84 293.27 L 559.92 292.58 L 560.19 292.49 L 560.25 291.95 L 560.48 291.90 L 560.65 291.58 L 560.78 290.98 L 561.06 290.86 L 561.09 290.24 L 561.46 291.63 L 561.50 291.63 L 561.56 290.84 L 561.63 290.84 L 561.67 290.78 L 562.10 290.70 L 562.72 290.37 L 563.02 290.54 L 564.04 290.52 L 564.06 290.51 L 564.22 290.50 L 564.29 290.48 L 564.40 290.37 L 564.53 290.27 L 564.66 290.13 L 564.97 289.93 L 565.26 289.92 L 566.16 289.82 L 566.20 289.81 L 567.11 289.71 L 567.50 289.65 L 575.24 289.62 L 575.63 289.57 L 575.83 289.57 L 575.91 289.57 L 575.94 289.57 L 576.13 289.56 L 576.22 289.52 L 576.45 289.38 L 576.59 289.36 L 577.09 289.35 L 577.35 289.27 L 577.79 289.24 L 577.91 289.21 L 578.06 289.14 L 578.25 289.05 L 578.92 289.02 L 578.98 289.00 L 579.96 288.85 L 580.11 288.60 L 580.31 288.51 L 580.78 288.37 L 581.00 288.29 L 581.11 288.64 L 581.20 288.62 L 581.34 288.49 L 581.75 288.17 L 582.19 288.08 L 582.58 288.01 L 582.62 287.98 L 582.67 287.73 L 610.68 287.69 L 610.86 287.62 L 626.98 287.55 L 627.06 287.90 L 627.19 286.50 L 627.21 286.50 L 627.26 286.53 L 627.83 285.99 L 627.89 285.96 L 628.60 286.02 L 629.33 285.96 L 629.58 285.92 L 630.03 285.86 L 630.63 285.71 L 630.64 285.71 L 630.72 285.69 L 630.96 285.64 L 631.03 285.53 L 631.61 285.46 L 632.36 285.41 L 632.45 285.26 L 632.83 285.19 L 632.94 285.81 L 633.23 285.76 L 633.47 285.73 L 633.96 285.70 L 634.43 285.70 L 634.66 285.41 L 634.67 285.41 L 644.75 285.39 L 647.92 284.65 L 648.05 284.27 L 648.21 284.18 L 648.72 284.15 L 648.93 284.02 L 649.09 282.14 L 649.20 281.13 L 649.44 281.10 L 649.47 281.08 L 649.82 280.94 L 649.94 280.90 L 650.00 280.84"/>
	</g>
	<g class="poloto_legend poloto_imgs poloto_line poloto0 poloto_stroke"><line x1="680" x2="730" y1="81.25" y2="81.25"/></g>
	<g class="poloto_legend poloto_imgs poloto_line poloto1 poloto_stroke"><line x1="680" x2="730" y1="131.25" y2="131.25"/></g>
	<g class="poloto_legend poloto_imgs poloto_line poloto2 poloto_stroke"><line x1="680" x2="730" y1="181.25" y2="181.25"/></g>
	<text class="poloto_legend poloto_text poloto_line poloto0" x="675" y="100">total</text>
	<text class="poloto_legend poloto_text poloto_line poloto1" x="675" y="150">code</text>
	<text class="poloto_legend poloto_text poloto_line poloto2" x="675" y="200">docs</text>
	<text class="poloto_text poloto_name poloto_title" x="400.00" y="37.50">Workspace lines over time</text>
	<text class="poloto_text poloto_name poloto_x" x="400.00" y="640">date (JST)</text>
	<text class="poloto_text poloto_name poloto_y" x="37.50" y="250.00" transform="rotate(-90,37.50,250.00)">lines</text>
	<text class="poloto_text poloto_ticks poloto_y">
		<tspan x="135.00" y="400.00">0</tspan>
		<tspan x="135.00" y="326.34">50K</tspan>
		<tspan x="135.00" y="252.68">100K</tspan>
		<tspan x="135.00" y="179.03">150K</tspan>
		<tspan x="135.00" y="105.37">200K</tspan>
	</text>
	<g class="poloto_imgs poloto_ticks poloto_y" stroke="black">
		<line x1="150.00" x2="144.00" y1="400.00" y2="400.00"/>
		<line x1="150.00" x2="144.00" y1="326.34" y2="326.34"/>
		<line x1="150.00" x2="144.00" y1="252.68" y2="252.68"/>
		<line x1="150.00" x2="144.00" y1="179.03" y2="179.03"/>
		<line x1="150.00" x2="144.00" y1="105.37" y2="105.37"/>
	</g>
	<g class="poloto_text poloto_ticks poloto_x">
		<text x="214.75" y="430.00" text-anchor="end" transform="rotate(-90 214.75 430.00)">2026-04-24 12:06</text>
		<text x="314.42" y="430.00" text-anchor="end" transform="rotate(-90 314.42 430.00)">2026-04-30 07:00</text>
		<text x="414.09" y="430.00" text-anchor="end" transform="rotate(-90 414.09 430.00)">2026-05-06 01:53</text>
		<text x="513.76" y="430.00" text-anchor="end" transform="rotate(-90 513.76 430.00)">2026-05-11 20:46</text>
		<text x="613.43" y="430.00" text-anchor="end" transform="rotate(-90 613.43 430.00)">2026-05-17 15:40</text>
	</g>
	<g class="poloto_imgs poloto_ticks poloto_x" stroke="black">
		<line x1="214.75" x2="214.75" y1="400.00" y2="405.00"/>
		<line x1="314.42" x2="314.42" y1="400.00" y2="405.00"/>
		<line x1="414.09" x2="414.09" y1="400.00" y2="405.00"/>
		<line x1="513.76" x2="513.76" y1="400.00" y2="405.00"/>
		<line x1="613.43" x2="613.43" y1="400.00" y2="405.00"/>
	</g>
	<path class="poloto_imgs poloto_ticks poloto_x" stroke="black" style="stroke-dasharray:9.966945621540722;stroke-dashoffset:-64.74986355251167;" d=" M 150.00 400.00 L 650.00 400.00"/>
	<path class="poloto_imgs poloto_ticks poloto_y" stroke="black" style="stroke-dasharray:7.365795211251006;stroke-dashoffset:-0;" d=" M 150.00 400.00 L 150.00 100.00"/>
</svg>

