<svg class="poloto" width="800" height="680" viewBox="0 0 800 680" xmlns="http://www.w3.org/2000/svg">
	<style>
.poloto{
  stroke-linecap:round;
  stroke-linejoin:round;
  font-family:Roboto,sans-serif;
  font-size:16px;
}
.poloto_background{fill:AliceBlue;}
.poloto_scatter{stroke-width:7}
.poloto_line{stroke-width:2}
.poloto_text{fill: black;}
.poloto_name{font-size:24px;dominant-baseline:auto;text-anchor:middle;}
.poloto_where{dominant-baseline:middle;text-anchor:start}
.poloto_text.poloto_legend{font-size:20px;dominant-baseline:middle;text-anchor:start;}
.poloto_text.poloto_ticks.poloto_y{dominant-baseline:middle;text-anchor:end}
.poloto_text.poloto_ticks.poloto_x{dominant-baseline:auto;text-anchor:middle}
.poloto_imgs.poloto_ticks{stroke: black;stroke-width:3;fill:none;stroke-dasharray:none}
.poloto_grid{stroke:gray;stroke-width:0.5}

.poloto0.poloto_stroke{stroke:blue;}
.poloto1.poloto_stroke{stroke:red;}
.poloto2.poloto_stroke{stroke:green;}
.poloto3.poloto_stroke{stroke:gold;}
.poloto4.poloto_stroke{stroke:aqua;}
.poloto5.poloto_stroke{stroke:lime;}
.poloto6.poloto_stroke{stroke:orange;}
.poloto7.poloto_stroke{stroke:chocolate;}
.poloto0.poloto_fill{fill:blue;}
.poloto1.poloto_fill{fill:red;}
.poloto2.poloto_fill{fill:green;}
.poloto3.poloto_fill{fill:gold;}
.poloto4.poloto_fill{fill:aqua;}
.poloto5.poloto_fill{fill:lime;}
.poloto6.poloto_fill{fill:orange;}
.poloto7.poloto_fill{fill:chocolate;}
	</style>
	<circle r="1e5" class="poloto_background" fill="white"/>
	<g id="poloto_plot0" class="poloto_plot poloto_imgs poloto_line poloto0 poloto_stroke" fill="none" stroke="black">
		<path d=" M 150.00 370.14 L 150.03 370.11 L 150.04 370.10 L 150.05 370.10 L 150.07 370.10 L 150.10 366.86 L 150.21 366.47 L 150.46 366.45 L 150.84 366.18 L 151.02 364.54 L 151.40 364.43 L 151.47 364.35 L 151.52 364.31 L 151.97 363.51 L 152.80 362.85 L 153.06 360.31 L 153.13 360.31 L 153.63 360.21 L 154.21 360.20 L 154.21 360.20 L 154.22 360.20 L 162.03 360.20 L 162.09 360.20 L 162.19 360.18 L 162.23 360.15 L 162.53 360.00 L 162.66 359.96 L 162.99 359.72 L 163.04 359.62 L 163.13 359.39 L 163.23 359.36 L 163.26 359.35 L 163.34 359.29 L 163.43 359.29 L 163.51 359.30 L 163.73 358.92 L 163.92 358.69 L 163.96 358.69 L 164.05 358.55 L 164.67 359.13 L 164.68 359.13 L 164.76 359.03 L 165.12 358.60 L 165.40 358.08 L 165.72 357.85 L 165.79 357.81 L 165.80 357.81 L 165.86 357.61 L 165.98 357.61 L 166.14 357.54 L 166.44 357.34 L 166.46 357.04 L 166.52 357.04 L 166.59 356.88 L 166.77 356.88 L 166.79 356.88 L 166.97 356.44 L 167.04 356.42 L 167.11 356.39 L 167.18 356.21 L 168.13 355.98 L 168.36 355.93 L 168.89 355.62 L 169.00 355.62 L 169.09 355.61 L 169.13 355.39 L 169.50 354.10 L 169.66 354.07 L 169.85 353.65 L 169.94 353.61 L 170.16 353.25 L 170.25 353.12 L 170.39 352.89 L 170.51 352.69 L 170.93 349.72 L 170.94 349.65 L 170.96 349.47 L 171.10 348.05 L 178.35 347.94 L 179.10 346.32 L 179.13 346.28 L 180.01 346.03 L 180.09 346.02 L 180.17 345.70 L 180.39 345.54 L 180.49 345.26 L 180.52 345.02 L 180.63 344.59 L 180.89 344.58 L 180.90 344.30 L 181.00 343.98 L 181.10 343.97 L 181.21 343.62 L 181.35 343.36 L 181.41 343.23 L 181.43 343.23 L 181.55 342.95 L 181.57 342.94 L 181.71 342.67 L 181.73 342.66 L 181.94 341.32 L 181.97 341.32 L 182.05 341.10 L 182.13 341.09 L 182.25 341.09 L 182.31 341.05 L 182.71 340.80 L 182.72 340.81 L 182.80 340.22 L 182.98 340.20 L 183.14 339.31 L 183.19 339.23 L 183.27 339.23 L 183.31 339.19 L 183.40 338.50 L 183.85 332.69 L 183.90 332.40 L 184.06 332.38 L 184.11 332.31 L 184.14 332.29 L 184.22 332.14 L 184.29 331.47 L 184.45 331.34 L 184.56 331.32 L 184.65 331.04 L 184.70 331.03 L 185.11 330.81 L 185.33 330.65 L 185.40 330.39 L 185.59 330.37 L 185.61 330.37 L 185.63 330.35 L 185.75 328.95 L 185.84 328.87 L 186.18 327.46 L 186.24 327.05 L 186.30 327.04 L 186.39 326.89 L 186.40 326.78 L 186.44 326.71 L 186.47 326.67 L 186.52 326.67 L 186.56 326.60 L 186.69 325.44 L 186.79 325.27 L 186.89 324.93 L 187.02 324.91 L 187.16 324.80 L 187.31 323.99 L 187.41 322.86 L 187.62 322.79 L 187.63 322.37 L 187.75 322.23 L 197.87 322.23 L 198.06 322.22 L 198.54 321.62 L 198.64 321.61 L 198.72 321.61 L 198.73 321.46 L 198.91 321.27 L 199.03 321.24 L 199.10 321.13 L 199.17 321.05 L 199.21 321.01 L 199.39 320.96 L 199.75 320.89 L 199.85 320.58 L 199.91 320.50 L 200.00 320.49 L 200.47 320.33 L 200.54 320.24 L 200.57 320.24 L 200.60 320.13 L 200.70 320.08 L 200.78 319.96 L 201.12 319.20 L 201.61 319.09 L 201.79 319.04 L 202.33 318.85 L 202.58 315.19 L 202.67 315.11 L 202.79 314.75 L 202.94 314.27 L 203.19 314.14 L 203.53 314.13 L 203.99 314.11 L 204.06 313.95 L 204.40 313.78 L 204.61 313.52 L 204.68 313.41 L 204.81 313.37 L 204.91 313.05 L 206.11 312.69 L 207.25 312.69 L 217.43 312.65 L 217.50 312.49 L 217.56 312.39 L 217.88 312.24 L 218.83 310.97 L 218.87 310.89 L 219.00 310.57 L 219.47 310.49 L 219.69 309.63 L 220.03 309.62 L 220.11 309.61 L 220.18 309.03 L 220.77 305.70 L 220.84 305.70 L 220.96 305.67 L 221.10 305.63 L 221.16 305.26 L 221.49 304.01 L 221.61 303.78 L 221.66 303.76 L 221.73 303.18 L 221.88 302.37 L 221.94 301.50 L 222.09 301.11 L 222.53 296.79 L 222.57 296.35 L 222.62 296.35 L 222.68 296.28 L 222.79 296.17 L 222.84 296.13 L 222.88 296.08 L 223.09 295.04 L 223.14 294.31 L 223.40 294.17 L 223.55 293.08 L 223.65 292.39 L 224.44 282.31 L 224.53 282.29 L 254.46 281.80 L 254.49 281.80 L 265.93 281.67 L 266.55 281.39 L 266.68 281.39 L 266.85 281.31 L 266.90 281.19 L 266.97 281.15 L 271.93 281.08 L 272.58 279.16 L 272.83 278.99 L 272.96 278.28 L 276.05 278.14 L 276.07 277.95 L 276.26 277.93 L 277.18 276.72 L 277.24 276.50 L 277.35 276.43 L 277.68 276.34 L 277.72 276.31 L 277.85 275.95 L 277.99 275.85 L 278.01 275.58 L 287.62 275.21 L 287.69 274.18 L 288.08 273.95 L 288.08 272.22 L 288.15 271.96 L 288.23 271.54 L 288.34 270.35 L 288.50 269.71 L 288.64 268.98 L 288.76 268.97 L 288.81 268.40 L 289.01 268.35 L 289.67 265.57 L 289.94 265.27 L 289.98 265.10 L 290.04 265.09 L 290.07 264.90 L 290.17 264.21 L 290.44 263.89 L 290.48 263.84 L 290.64 261.39 L 290.71 261.39 L 290.73 261.12 L 290.79 260.92 L 290.83 260.92 L 290.87 260.55 L 291.08 259.23 L 291.17 258.85 L 291.29 258.80 L 291.37 255.26 L 291.41 254.97 L 291.62 252.95 L 291.68 252.79 L 291.71 252.79 L 291.77 252.78 L 291.80 252.50 L 291.83 252.51 L 291.84 252.50 L 291.95 248.92 L 291.99 248.61 L 292.09 248.59 L 292.17 248.53 L 292.38 248.43 L 292.65 248.29 L 292.66 248.29 L 292.73 248.25 L 292.98 248.18 L 293.09 248.18 L 293.21 248.18 L 293.33 246.62 L 293.42 246.25 L 293.76 246.24 L 293.79 246.00 L 293.83 245.99 L 293.86 245.73 L 294.08 243.47 L 294.12 243.42 L 294.28 243.40 L 309.07 243.34 L 309.91 243.22 L 309.94 243.22 L 310.11 243.22 L 310.12 243.22 L 310.23 242.77 L 310.31 242.76 L 310.38 242.54 L 310.48 242.48 L 310.51 242.45 L 310.55 242.43 L 310.71 242.18 L 311.03 241.96 L 311.23 241.23 L 311.46 240.54 L 311.47 240.50 L 311.51 239.86 L 311.54 239.84 L 311.98 239.45 L 311.98 239.41 L 312.05 238.90 L 312.24 238.84 L 312.36 238.79 L 312.39 237.88 L 312.40 237.83 L 312.45 238.70 L 312.48 238.17 L 312.50 238.15 L 312.61 236.92 L 312.62 236.89 L 312.85 236.79 L 313.48 236.77 L 313.63 236.73 L 313.68 236.72 L 313.71 236.56 L 313.75 236.56 L 313.84 235.95 L 323.94 234.79 L 323.96 234.63 L 324.05 234.52 L 324.07 234.29 L 324.13 224.09 L 324.24 219.91 L 324.25 219.89 L 324.44 219.81 L 324.48 219.81 L 324.51 219.33 L 324.68 219.28 L 325.11 218.29 L 325.13 218.27 L 325.24 217.96 L 325.28 217.97 L 325.30 217.48 L 325.67 216.90 L 325.68 216.88 L 326.23 216.65 L 326.30 216.13 L 326.49 216.14 L 326.72 214.82 L 326.78 214.31 L 326.82 213.89 L 326.92 213.38 L 327.21 213.20 L 327.26 213.07 L 327.39 212.96 L 327.52 212.96 L 327.95 212.96 L 328.00 212.96 L 328.10 212.93 L 328.11 212.93 L 328.24 212.95 L 328.56 212.92 L 328.89 212.73 L 328.94 212.73 L 329.02 212.65 L 329.11 212.51 L 329.37 212.51 L 329.79 212.33 L 329.93 211.92 L 330.16 208.40 L 331.09 211.38 L 331.30 211.36 L 331.45 211.35 L 331.68 211.34 L 331.75 211.29 L 331.98 211.12 L 332.35 210.88 L 332.40 210.72 L 332.47 210.65 L 332.51 210.67 L 332.54 210.62 L 332.83 210.40 L 339.53 210.39 L 339.60 210.40 L 340.01 210.38 L 340.05 210.37 L 340.15 209.92 L 340.22 209.67 L 340.23 209.66 L 340.46 209.63 L 340.52 209.60 L 341.89 208.94 L 342.05 208.89 L 342.17 208.87 L 342.20 208.87 L 342.62 208.71 L 342.77 208.79 L 342.80 208.78 L 343.02 208.74 L 343.27 207.35 L 343.30 207.34 L 343.51 207.18 L 343.60 207.18 L 343.68 207.18 L 343.85 207.03 L 344.22 206.47 L 344.30 206.45 L 344.36 206.29 L 344.52 205.63 L 344.88 204.94 L 345.21 201.71 L 345.28 201.31 L 345.61 201.15 L 345.67 201.07 L 345.73 200.91 L 345.76 200.39 L 345.88 199.46 L 345.90 199.50 L 345.96 199.48 L 346.15 199.48 L 346.44 199.14 L 346.62 199.07 L 346.83 199.06 L 346.92 199.05 L 347.13 199.03 L 347.47 199.03 L 347.80 199.03 L 348.06 199.02 L 348.12 199.01 L 348.18 199.00 L 348.19 198.89 L 348.39 198.82 L 348.44 198.81 L 348.52 198.67 L 349.07 198.65 L 349.08 198.37 L 349.23 198.36 L 349.87 198.36 L 350.30 198.19 L 350.61 197.98 L 350.62 197.87 L 350.64 197.87 L 360.03 197.68 L 360.06 197.67 L 360.17 197.66 L 360.22 197.50 L 360.25 197.48 L 360.26 197.47 L 360.66 197.43 L 360.75 196.84 L 360.87 196.71 L 361.07 195.56 L 361.20 195.55 L 361.36 195.05 L 361.45 195.12 L 361.49 195.11 L 361.54 194.55 L 361.65 194.17 L 361.67 193.76 L 361.71 193.70 L 361.81 193.67 L 361.88 193.48 L 361.96 195.68 L 362.08 195.64 L 362.31 194.76 L 362.41 194.55 L 362.50 194.36 L 363.07 193.10 L 363.57 192.49 L 364.16 191.32 L 364.31 191.27 L 364.48 191.27 L 364.66 191.21 L 368.11 190.88 L 368.40 190.85 L 401.10 189.96 L 504.05 189.76 L 504.39 189.40 L 504.63 189.35 L 504.86 189.35 L 505.22 188.66 L 505.34 188.33 L 505.44 187.72 L 505.60 185.94 L 505.84 186.31 L 506.03 185.92 L 506.08 185.91 L 506.23 185.80 L 506.27 185.80 L 506.44 185.15 L 506.59 184.11 L 507.06 183.00 L 507.07 182.91 L 507.21 181.59 L 507.65 178.33 L 507.66 178.22 L 507.75 178.14 L 507.85 176.98 L 508.33 175.41 L 508.34 175.26 L 508.45 175.19 L 508.56 174.41 L 508.74 173.80 L 508.75 173.69 L 508.83 172.49 L 508.84 172.46 L 508.88 172.13 L 509.09 170.00 L 509.11 169.88 L 509.18 169.76 L 509.40 169.47 L 509.44 169.47 L 509.62 169.06 L 509.90 169.11 L 509.95 169.05 L 509.98 169.03 L 510.03 168.99 L 510.18 167.74 L 510.33 166.73 L 510.35 166.64 L 510.44 165.36 L 510.52 164.12 L 510.54 163.97 L 510.63 162.51 L 510.68 161.37 L 510.85 160.60 L 510.88 160.54 L 510.97 160.30 L 511.09 160.28 L 511.83 160.25 L 512.20 160.21 L 520.24 160.26 L 520.32 160.04 L 520.40 159.85 L 520.54 158.99 L 520.84 158.77 L 520.86 158.69 L 520.92 157.55 L 521.11 156.46 L 521.13 156.36 L 522.89 156.29 L 523.00 155.67 L 523.88 155.49 L 523.98 155.44 L 524.08 154.17 L 525.15 152.97 L 525.60 152.51 L 525.72 151.58 L 526.10 149.97 L 526.34 149.51 L 526.73 148.57 L 527.44 148.09 L 538.20 148.08 L 538.85 147.97 L 538.88 147.99 L 539.78 147.81 L 539.82 147.71 L 540.14 147.64 L 540.50 146.60 L 540.51 146.60 L 540.55 146.55 L 541.03 145.36 L 542.13 144.68 L 542.20 144.62 L 542.32 144.61 L 542.49 144.29 L 542.53 144.21 L 542.60 144.15 L 543.11 144.11 L 543.52 144.11 L 543.75 144.11 L 543.78 144.06 L 544.24 143.02 L 544.59 142.82 L 544.61 142.74 L 544.65 142.66 L 544.70 142.38 L 556.38 141.98 L 556.40 141.95 L 556.43 141.94 L 556.66 141.82 L 556.84 141.69 L 557.87 140.09 L 558.12 139.90 L 558.86 139.42 L 559.50 139.30 L 559.97 139.14 L 560.11 137.66 L 560.70 135.93 L 560.92 135.81 L 560.99 134.69 L 562.72 132.63 L 562.74 132.63 L 562.84 132.13 L 563.16 132.07 L 563.17 132.07 L 563.19 131.95 L 563.25 131.79 L 563.40 131.63 L 563.58 130.76 L 565.37 128.68 L 565.61 128.43 L 565.77 128.06 L 565.79 128.02 L 565.83 127.72 L 573.78 126.78 L 574.04 126.07 L 574.19 126.04 L 574.25 125.56 L 575.00 125.34 L 575.16 124.87 L 575.30 124.87 L 575.38 123.87 L 575.63 121.33 L 575.67 121.29 L 576.01 121.25 L 576.08 120.42 L 576.37 119.43 L 576.43 118.74 L 576.67 118.11 L 576.84 117.77 L 576.97 117.01 L 577.27 116.37 L 577.31 115.64 L 577.69 115.48 L 577.73 115.48 L 577.79 114.56 L 577.87 114.56 L 577.91 114.49 L 578.35 112.76 L 578.99 112.20 L 579.31 112.38 L 580.37 112.30 L 580.39 112.29 L 580.56 112.28 L 580.63 112.26 L 580.75 112.14 L 580.87 112.04 L 581.02 111.85 L 581.33 111.60 L 581.63 111.58 L 582.57 111.41 L 582.62 111.40 L 583.56 111.24 L 583.96 111.13 L 592.01 111.11 L 592.42 110.99 L 592.62 110.91 L 592.71 110.91 L 592.73 110.90 L 592.93 110.88 L 593.03 110.82 L 593.26 110.66 L 593.41 110.63 L 593.93 110.45 L 594.21 110.07 L 594.66 110.01 L 594.78 109.76 L 594.94 109.60 L 595.14 109.41 L 595.83 109.46 L 595.90 109.44 L 596.91 108.96 L 597.07 108.68 L 597.27 108.58 L 597.77 108.36 L 597.99 108.42 L 598.11 108.80 L 598.21 108.77 L 598.35 108.62 L 598.78 107.48 L 599.23 107.36 L 599.64 107.27 L 599.68 107.22 L 599.73 106.90 L 628.85 106.82 L 629.04 106.68 L 645.79 106.31 L 645.87 106.72 L 646.01 104.99 L 646.03 104.99 L 646.08 105.03 L 646.68 101.51 L 646.74 101.48 L 647.48 101.56 L 648.23 101.34 L 648.49 101.01 L 648.96 100.58 L 649.58 100.31 L 649.60 100.31 L 649.68 100.24 L 649.92 100.17 L 650.00 100.00"/>
	</g>
	<g id="poloto_plot1" class="poloto_plot poloto_imgs poloto_line poloto1 poloto_stroke" fill="none" stroke="black">
		<path d=" M 150.00 382.26 L 150.03 382.24 L 150.04 382.23 L 150.05 382.23 L 150.07 382.23 L 150.10 381.67 L 150.21 381.65 L 150.46 381.64 L 150.84 381.43 L 151.02 381.33 L 151.40 381.35 L 151.47 381.31 L 151.52 381.31 L 151.97 381.27 L 152.80 381.17 L 153.06 378.97 L 153.13 378.97 L 153.63 378.92 L 154.21 378.91 L 154.21 378.91 L 154.22 378.91 L 162.03 378.91 L 162.09 378.91 L 162.19 378.91 L 162.23 378.88 L 162.53 378.87 L 162.66 378.87 L 162.99 378.87 L 163.04 378.87 L 163.13 378.85 L 163.23 378.85 L 163.26 378.85 L 163.34 378.83 L 163.43 378.83 L 163.51 378.83 L 163.73 378.70 L 163.92 378.70 L 163.96 378.70 L 164.05 378.70 L 164.67 379.53 L 164.68 379.53 L 164.76 379.52 L 165.12 379.39 L 165.40 379.26 L 165.72 379.19 L 165.79 379.15 L 165.80 379.15 L 165.86 379.15 L 165.98 379.15 L 166.14 379.10 L 166.44 379.05 L 166.46 379.05 L 166.52 379.05 L 166.59 379.03 L 166.77 379.03 L 166.79 379.03 L 166.97 379.02 L 167.04 379.02 L 167.11 379.02 L 167.18 379.02 L 168.13 378.92 L 168.36 378.92 L 168.89 378.87 L 169.00 378.87 L 169.09 378.87 L 169.13 378.87 L 169.50 378.81 L 169.66 378.81 L 169.85 378.73 L 169.94 378.72 L 170.16 378.54 L 170.25 378.48 L 170.39 378.48 L 170.51 378.47 L 170.93 375.91 L 170.94 375.87 L 170.96 375.87 L 171.10 375.62 L 178.35 375.62 L 179.10 374.51 L 179.13 374.51 L 180.01 374.51 L 180.09 374.51 L 180.17 374.39 L 180.39 374.37 L 180.49 374.37 L 180.52 374.37 L 180.63 374.37 L 180.89 374.37 L 180.90 374.14 L 181.00 374.13 L 181.10 374.13 L 181.21 374.10 L 181.35 374.09 L 181.41 374.09 L 181.43 374.09 L 181.55 374.09 L 181.57 374.09 L 181.71 374.09 L 181.73 374.09 L 181.94 373.01 L 181.97 373.01 L 182.05 372.88 L 182.13 372.88 L 182.25 372.88 L 182.31 372.86 L 182.71 372.86 L 182.72 372.86 L 182.80 372.79 L 182.98 372.79 L 183.14 372.17 L 183.19 372.09 L 183.27 372.09 L 183.31 372.09 L 183.40 372.08 L 183.85 367.49 L 183.90 367.53 L 184.06 367.53 L 184.11 367.53 L 184.14 367.52 L 184.22 367.52 L 184.29 367.46 L 184.45 367.46 L 184.56 367.46 L 184.65 367.46 L 184.70 367.46 L 185.11 367.45 L 185.33 367.44 L 185.40 367.33 L 185.59 367.33 L 185.61 367.33 L 185.63 367.33 L 185.75 367.02 L 185.84 366.94 L 186.18 365.85 L 186.24 365.85 L 186.30 365.85 L 186.39 365.87 L 186.40 365.87 L 186.44 365.87 L 186.47 365.87 L 186.52 365.87 L 186.56 365.87 L 186.69 365.85 L 186.79 365.85 L 186.89 365.83 L 187.02 365.83 L 187.16 365.83 L 187.31 365.42 L 187.41 365.28 L 187.62 365.28 L 187.63 365.28 L 187.75 365.28 L 197.87 365.28 L 198.06 365.27 L 198.54 365.20 L 198.64 365.19 L 198.72 365.19 L 198.73 365.19 L 198.91 365.19 L 199.03 365.19 L 199.10 365.19 L 199.17 365.19 L 199.21 365.19 L 199.39 365.19 L 199.75 365.21 L 199.85 365.21 L 199.91 365.21 L 200.00 365.21 L 200.47 365.12 L 200.54 365.08 L 200.57 365.08 L 200.60 365.02 L 200.70 365.02 L 200.78 365.02 L 201.12 364.60 L 201.61 364.60 L 201.79 364.60 L 202.33 364.60 L 202.58 361.80 L 202.67 361.79 L 202.79 361.79 L 202.94 361.79 L 203.19 361.79 L 203.53 361.79 L 203.99 361.79 L 204.06 361.79 L 204.40 361.72 L 204.61 361.60 L 204.68 361.60 L 204.81 361.60 L 204.91 361.59 L 206.11 361.41 L 207.25 361.41 L 217.43 361.41 L 217.50 361.41 L 217.56 361.41 L 217.88 361.41 L 218.83 360.53 L 218.87 360.50 L 219.00 360.41 L 219.47 360.40 L 219.69 360.19 L 220.03 360.19 L 220.11 360.19 L 220.18 360.19 L 220.77 357.73 L 220.84 357.73 L 220.96 357.73 L 221.10 357.73 L 221.16 357.57 L 221.49 357.27 L 221.61 357.27 L 221.66 357.27 L 221.73 356.82 L 221.88 356.37 L 221.94 356.37 L 222.09 356.36 L 222.53 352.69 L 222.57 352.69 L 222.62 352.69 L 222.68 352.69 L 222.79 352.69 L 222.84 352.69 L 222.88 352.69 L 223.09 352.69 L 223.14 352.61 L 223.40 352.59 L 223.55 352.54 L 223.65 352.10 L 224.44 344.80 L 224.53 344.80 L 254.46 344.80 L 254.49 344.80 L 265.93 344.80 L 266.55 344.69 L 266.68 344.69 L 266.85 344.69 L 266.90 344.69 L 266.97 344.69 L 271.93 344.63 L 272.58 344.57 L 272.83 344.57 L 272.96 344.54 L 276.05 344.48 L 276.07 344.38 L 276.26 344.38 L 277.18 343.39 L 277.24 343.39 L 277.35 343.39 L 277.68 343.39 L 277.72 343.39 L 277.85 343.39 L 277.99 343.39 L 278.01 343.39 L 287.62 343.38 L 287.69 343.20 L 288.08 343.20 L 288.08 342.01 L 288.15 342.01 L 288.23 342.01 L 288.34 341.90 L 288.50 341.90 L 288.64 341.85 L 288.76 341.85 L 288.81 341.85 L 289.01 341.83 L 289.67 339.81 L 289.94 339.80 L 289.98 339.79 L 290.04 339.79 L 290.07 339.79 L 290.17 339.76 L 290.44 339.51 L 290.48 339.47 L 290.64 337.66 L 290.71 337.65 L 290.73 337.65 L 290.79 337.62 L 290.83 337.62 L 290.87 337.62 L 291.08 336.63 L 291.17 336.62 L 291.29 336.59 L 291.37 333.51 L 291.41 333.51 L 291.62 331.78 L 291.68 331.78 L 291.71 331.78 L 291.77 331.78 L 291.80 331.78 L 291.83 331.78 L 291.84 331.78 L 291.95 328.57 L 291.99 328.57 L 292.09 328.55 L 292.17 328.55 L 292.38 328.49 L 292.65 328.40 L 292.66 328.40 L 292.73 328.38 L 292.98 328.33 L 293.09 328.33 L 293.21 328.33 L 293.33 326.95 L 293.42 326.95 L 293.76 326.94 L 293.79 326.94 L 293.83 326.94 L 293.86 326.94 L 294.08 324.96 L 294.12 324.96 L 294.28 324.95 L 309.07 324.95 L 309.91 324.94 L 309.94 324.94 L 310.11 324.94 L 310.12 324.94 L 310.23 324.94 L 310.31 324.94 L 310.38 324.84 L 310.48 324.84 L 310.51 324.84 L 310.55 324.84 L 310.71 324.66 L 311.03 324.55 L 311.23 324.43 L 311.46 323.87 L 311.47 323.87 L 311.51 323.73 L 311.54 323.72 L 311.98 323.38 L 311.98 323.38 L 312.05 323.33 L 312.24 323.33 L 312.36 323.29 L 312.39 322.47 L 312.40 322.47 L 312.45 323.28 L 312.48 323.24 L 312.50 323.23 L 312.61 322.13 L 312.62 322.13 L 312.85 322.08 L 313.48 322.08 L 313.63 322.08 L 313.68 322.08 L 313.71 322.08 L 313.75 322.08 L 313.84 322.01 L 323.94 321.10 L 323.96 321.10 L 324.05 321.09 L 324.07 320.89 L 324.13 311.15 L 324.24 307.53 L 324.25 307.53 L 324.44 307.46 L 324.48 307.46 L 324.51 307.44 L 324.68 307.44 L 325.11 306.56 L 325.13 306.56 L 325.24 306.51 L 325.28 306.51 L 325.30 306.44 L 325.67 305.91 L 325.68 305.91 L 326.23 305.80 L 326.30 305.76 L 326.49 305.77 L 326.72 304.58 L 326.78 304.45 L 326.82 304.34 L 326.92 303.89 L 327.21 303.78 L 327.26 303.69 L 327.39 303.69 L 327.52 303.69 L 327.95 303.69 L 328.00 303.69 L 328.10 303.69 L 328.11 303.69 L 328.24 303.70 L 328.56 303.70 L 328.89 303.58 L 328.94 303.58 L 329.02 303.56 L 329.11 303.56 L 329.37 303.56 L 329.79 303.56 L 329.93 303.45 L 330.16 300.31 L 331.09 303.28 L 331.30 303.26 L 331.45 303.25 L 331.68 303.25 L 331.75 303.22 L 331.98 303.20 L 332.35 303.02 L 332.40 303.02 L 332.47 303.02 L 332.51 303.02 L 332.54 303.02 L 332.83 302.85 L 339.53 302.85 L 339.60 302.85 L 340.01 302.84 L 340.05 302.84 L 340.15 302.81 L 340.22 302.59 L 340.23 302.59 L 340.46 302.56 L 340.52 302.56 L 341.89 302.38 L 342.05 302.38 L 342.17 302.38 L 342.20 302.38 L 342.62 302.26 L 342.77 302.26 L 342.80 302.26 L 343.02 302.25 L 343.27 301.51 L 343.30 301.51 L 343.51 301.38 L 343.60 301.38 L 343.68 301.38 L 343.85 301.38 L 344.22 301.37 L 344.30 301.35 L 344.36 301.28 L 344.52 301.15 L 344.88 301.04 L 345.21 298.07 L 345.28 297.97 L 345.61 297.83 L 345.67 297.80 L 345.73 297.69 L 345.76 297.48 L 345.88 296.59 L 345.90 296.63 L 345.96 296.61 L 346.15 296.61 L 346.44 296.49 L 346.62 296.44 L 346.83 296.43 L 346.92 296.42 L 347.13 296.41 L 347.47 296.41 L 347.80 296.40 L 348.06 296.40 L 348.12 296.39 L 348.18 296.39 L 348.19 296.38 L 348.39 296.38 L 348.44 296.37 L 348.52 296.26 L 349.07 296.25 L 349.08 296.25 L 349.23 296.24 L 349.87 296.23 L 350.30 296.09 L 350.61 295.96 L 350.62 295.96 L 350.64 295.96 L 360.03 295.96 L 360.06 295.96 L 360.17 295.96 L 360.22 295.96 L 360.25 295.94 L 360.26 295.94 L 360.66 295.94 L 360.75 295.93 L 360.87 295.91 L 361.07 295.89 L 361.20 295.89 L 361.36 295.82 L 361.45 295.82 L 361.49 295.82 L 361.54 295.82 L 361.65 295.55 L 361.67 295.55 L 361.71 295.55 L 361.81 295.55 L 361.88 295.55 L 361.96 295.61 L 362.08 295.61 L 362.31 295.60 L 362.41 295.60 L 362.50 295.60 L 363.07 294.73 L 363.57 294.50 L 364.16 293.87 L 364.31 293.87 L 364.48 293.87 L 364.66 293.87 L 368.11 293.80 L 368.40 293.79 L 401.10 293.68 L 504.05 293.52 L 504.39 293.47 L 504.63 293.46 L 504.86 293.46 L 505.22 293.06 L 505.34 293.06 L 505.44 293.06 L 505.60 291.60 L 505.84 291.88 L 506.03 291.86 L 506.08 291.86 L 506.23 291.85 L 506.27 291.85 L 506.44 291.84 L 506.59 291.78 L 507.06 290.85 L 507.07 290.85 L 507.21 290.77 L 507.65 287.78 L 507.66 287.78 L 507.75 287.78 L 507.85 287.73 L 508.33 286.34 L 508.34 286.34 L 508.45 286.34 L 508.56 286.30 L 508.74 285.79 L 508.75 285.79 L 508.83 285.79 L 508.84 285.79 L 508.88 285.51 L 509.09 283.53 L 509.11 283.53 L 509.18 283.53 L 509.40 283.36 L 509.44 283.36 L 509.62 283.04 L 509.90 283.04 L 509.95 283.04 L 509.98 283.04 L 510.03 283.04 L 510.18 283.03 L 510.33 282.13 L 510.35 282.13 L 510.44 282.13 L 510.52 281.46 L 510.54 281.46 L 510.63 280.74 L 510.68 280.70 L 510.85 279.99 L 510.88 279.99 L 510.97 279.99 L 511.09 279.98 L 511.83 279.98 L 512.20 279.97 L 520.24 279.97 L 520.32 279.97 L 520.40 279.97 L 520.54 279.97 L 520.84 279.78 L 520.86 279.78 L 520.92 279.72 L 521.11 278.73 L 521.13 278.73 L 522.89 278.75 L 523.00 278.56 L 523.88 278.56 L 523.98 278.55 L 524.08 278.48 L 525.15 277.67 L 525.60 277.51 L 525.72 277.46 L 526.10 275.91 L 526.34 275.91 L 526.73 275.79 L 527.44 275.79 L 538.20 275.78 L 538.85 275.69 L 538.88 275.71 L 539.78 275.71 L 539.82 275.71 L 540.14 275.71 L 540.50 275.68 L 540.51 275.68 L 540.55 275.68 L 541.03 274.77 L 542.13 274.75 L 542.20 274.75 L 542.32 274.75 L 542.49 274.71 L 542.53 274.68 L 542.60 274.68 L 543.11 274.64 L 543.52 274.64 L 543.75 274.64 L 543.78 274.64 L 544.24 274.62 L 544.59 274.51 L 544.61 274.51 L 544.65 274.51 L 544.70 274.51 L 556.38 274.30 L 556.40 274.30 L 556.43 274.30 L 556.66 274.30 L 556.84 274.30 L 557.87 273.41 L 558.12 273.36 L 558.86 273.29 L 559.50 273.24 L 559.97 273.24 L 560.11 273.24 L 560.70 271.89 L 560.92 271.86 L 560.99 271.81 L 562.72 270.86 L 562.74 270.86 L 562.84 270.85 L 563.16 270.84 L 563.17 270.84 L 563.19 270.84 L 563.25 270.81 L 563.40 270.77 L 563.58 270.67 L 565.37 269.11 L 565.61 269.03 L 565.77 269.03 L 565.79 269.03 L 565.83 269.03 L 573.78 269.03 L 574.04 269.02 L 574.19 269.02 L 574.25 269.02 L 575.00 269.02 L 575.16 269.02 L 575.30 269.02 L 575.38 268.99 L 575.63 266.94 L 575.67 266.92 L 576.01 266.93 L 576.08 266.92 L 576.37 266.12 L 576.43 266.08 L 576.67 265.56 L 576.84 265.56 L 576.97 265.52 L 577.27 265.04 L 577.31 265.04 L 577.69 263.52 L 577.73 263.52 L 577.79 263.51 L 577.87 263.51 L 577.91 263.51 L 578.35 261.98 L 578.99 261.85 L 579.31 261.85 L 580.37 261.81 L 580.39 261.81 L 580.56 261.81 L 580.63 261.81 L 580.75 261.81 L 580.87 261.81 L 581.02 261.79 L 581.33 261.77 L 581.63 261.77 L 582.57 261.70 L 582.62 261.70 L 583.56 261.66 L 583.96 261.62 L 592.01 261.63 L 592.42 261.56 L 592.62 261.48 L 592.71 261.48 L 592.73 261.48 L 592.93 261.47 L 593.03 261.47 L 593.26 261.47 L 593.41 261.46 L 593.93 261.33 L 594.21 261.05 L 594.66 261.03 L 594.78 260.85 L 594.94 260.77 L 595.14 260.68 L 595.83 260.77 L 595.90 260.77 L 596.91 260.48 L 597.07 260.48 L 597.27 260.48 L 597.77 260.45 L 597.99 260.59 L 598.11 260.59 L 598.21 260.59 L 598.35 260.59 L 598.78 259.93 L 599.23 259.92 L 599.64 259.91 L 599.68 259.91 L 599.73 259.91 L 628.85 259.91 L 629.04 259.87 L 645.79 259.65 L 645.87 259.65 L 646.01 259.59 L 646.03 259.59 L 646.08 259.59 L 646.68 257.05 L 646.74 257.05 L 647.48 257.05 L 648.23 256.94 L 648.49 256.68 L 648.96 256.36 L 649.58 256.27 L 649.60 256.27 L 649.68 256.22 L 649.92 256.22 L 650.00 256.17"/>
	</g>
	<g id="poloto_plot2" class="poloto_plot poloto_imgs poloto_line poloto2 poloto_stroke" fill="none" stroke="black">
		<path d=" M 150.00 392.04 L 150.03 392.03 L 150.04 392.03 L 150.05 392.03 L 150.07 392.03 L 150.10 389.99 L 150.21 389.72 L 150.46 389.71 L 150.84 389.70 L 151.02 388.48 L 151.40 388.37 L 151.47 388.33 L 151.52 388.30 L 151.97 387.76 L 152.80 387.33 L 153.06 387.25 L 153.13 387.25 L 153.63 387.22 L 154.21 387.22 L 154.21 387.22 L 154.22 387.22 L 162.03 387.22 L 162.09 387.22 L 162.19 387.20 L 162.23 387.20 L 162.53 387.08 L 162.66 387.04 L 162.99 386.84 L 163.04 386.76 L 163.13 386.58 L 163.23 386.55 L 163.26 386.55 L 163.34 386.52 L 163.43 386.52 L 163.51 386.52 L 163.73 386.31 L 163.92 386.12 L 163.96 386.13 L 164.05 386.02 L 164.67 385.77 L 164.68 385.77 L 164.76 385.69 L 165.12 385.42 L 165.40 385.09 L 165.72 384.95 L 165.79 384.95 L 165.80 384.96 L 165.86 384.77 L 165.98 384.77 L 166.14 384.75 L 166.44 384.61 L 166.46 384.37 L 166.52 384.37 L 166.59 384.26 L 166.77 384.26 L 166.79 384.26 L 166.97 383.90 L 167.04 383.88 L 167.11 383.84 L 167.18 383.68 L 168.13 383.58 L 168.36 383.54 L 168.89 383.30 L 169.00 383.30 L 169.09 383.28 L 169.13 383.10 L 169.50 382.10 L 169.66 382.09 L 169.85 381.79 L 169.94 381.76 L 170.16 381.62 L 170.25 381.58 L 170.39 381.37 L 170.51 381.19 L 170.93 381.19 L 170.94 381.17 L 170.96 381.02 L 171.10 380.06 L 178.35 379.96 L 179.10 379.67 L 179.13 379.63 L 180.01 379.39 L 180.09 379.39 L 180.17 379.21 L 180.39 379.09 L 180.49 378.87 L 180.52 378.69 L 180.63 378.33 L 180.89 378.33 L 180.90 378.33 L 181.00 378.07 L 181.10 378.07 L 181.21 377.81 L 181.35 377.60 L 181.41 377.49 L 181.43 377.49 L 181.55 377.24 L 181.57 377.24 L 181.71 377.02 L 181.73 377.01 L 181.94 376.93 L 181.97 376.93 L 182.05 376.85 L 182.13 376.84 L 182.25 376.84 L 182.31 376.82 L 182.71 376.60 L 182.72 376.61 L 182.80 376.18 L 182.98 376.16 L 183.14 376.03 L 183.19 376.03 L 183.27 376.02 L 183.31 375.99 L 183.40 375.39 L 183.85 374.89 L 183.90 374.62 L 184.06 374.60 L 184.11 374.53 L 184.14 374.52 L 184.22 374.39 L 184.29 373.92 L 184.45 373.85 L 184.56 373.83 L 184.65 373.60 L 184.70 373.59 L 185.11 373.41 L 185.33 373.29 L 185.40 373.18 L 185.59 373.17 L 185.61 373.17 L 185.63 373.15 L 185.75 372.30 L 185.84 372.29 L 186.18 372.17 L 186.24 371.83 L 186.30 371.82 L 186.39 371.68 L 186.40 371.60 L 186.44 371.54 L 186.47 371.51 L 186.52 371.51 L 186.56 371.44 L 186.69 370.48 L 186.79 370.38 L 186.89 370.10 L 187.02 370.08 L 187.16 369.98 L 187.31 369.69 L 187.41 368.86 L 187.62 368.79 L 187.63 368.44 L 187.75 368.35 L 197.87 368.35 L 198.06 368.35 L 198.54 367.96 L 198.64 367.96 L 198.72 367.96 L 198.73 367.86 L 198.91 367.69 L 199.03 367.66 L 199.10 367.56 L 199.17 367.48 L 199.21 367.45 L 199.39 367.39 L 199.75 367.47 L 199.85 367.21 L 199.91 367.14 L 200.00 367.13 L 200.47 367.08 L 200.54 367.04 L 200.57 367.04 L 200.60 366.99 L 200.70 366.94 L 200.78 366.85 L 201.12 366.60 L 201.61 366.49 L 201.79 366.45 L 202.33 366.29 L 202.58 365.90 L 202.67 365.84 L 202.79 365.53 L 202.94 365.14 L 203.19 365.04 L 203.53 365.03 L 203.99 365.01 L 204.06 364.87 L 204.40 364.77 L 204.61 364.65 L 204.68 364.55 L 204.81 364.51 L 204.91 364.25 L 206.11 364.13 L 207.25 364.13 L 217.43 364.10 L 217.50 363.96 L 217.56 363.86 L 217.88 363.71 L 218.83 363.46 L 218.87 363.42 L 219.00 363.24 L 219.47 363.16 L 219.69 362.66 L 220.03 362.65 L 220.11 362.63 L 220.18 362.13 L 220.77 361.67 L 220.84 361.67 L 220.96 361.64 L 221.10 361.60 L 221.16 361.43 L 221.49 360.66 L 221.61 360.46 L 221.66 360.44 L 221.73 360.36 L 221.88 360.06 L 221.94 359.29 L 222.09 358.97 L 222.53 358.79 L 222.57 358.40 L 222.62 358.40 L 222.68 358.33 L 222.79 358.23 L 222.84 358.20 L 222.88 358.16 L 223.09 357.26 L 223.14 356.73 L 223.40 356.63 L 223.55 355.73 L 223.65 355.56 L 224.44 354.15 L 224.53 354.12 L 254.46 353.71 L 254.49 353.71 L 265.93 353.59 L 266.55 353.44 L 266.68 353.44 L 266.85 353.37 L 266.90 353.25 L 266.97 353.23 L 271.93 353.22 L 272.58 351.59 L 272.83 351.45 L 272.96 350.89 L 276.05 350.82 L 276.07 350.77 L 276.26 350.76 L 277.18 350.66 L 277.24 350.47 L 277.35 350.41 L 277.68 350.32 L 277.72 350.30 L 277.85 349.99 L 277.99 349.89 L 278.01 349.65 L 287.62 349.35 L 287.69 348.61 L 288.08 348.42 L 288.08 348.13 L 288.15 347.91 L 288.23 347.57 L 288.34 346.68 L 288.50 346.19 L 288.64 345.56 L 288.76 345.56 L 288.81 345.07 L 289.01 345.04 L 289.67 344.57 L 289.94 344.36 L 289.98 344.23 L 290.04 344.22 L 290.07 344.06 L 290.17 343.51 L 290.44 343.45 L 290.48 343.45 L 290.64 343.09 L 290.71 343.09 L 290.73 342.88 L 290.79 342.75 L 290.83 342.75 L 290.87 342.46 L 291.08 342.29 L 291.17 342.00 L 291.29 341.99 L 291.37 341.84 L 291.41 341.62 L 291.62 341.50 L 291.68 341.37 L 291.71 341.37 L 291.77 341.37 L 291.80 341.15 L 291.83 341.16 L 291.84 341.15 L 291.95 341.07 L 291.99 340.83 L 292.09 340.82 L 292.17 340.76 L 292.38 340.74 L 292.65 340.72 L 292.66 340.72 L 292.73 340.70 L 292.98 340.70 L 293.09 340.70 L 293.21 340.70 L 293.33 340.66 L 293.42 340.36 L 293.76 340.36 L 293.79 340.19 L 293.83 340.19 L 293.86 339.99 L 294.08 339.92 L 294.12 339.87 L 294.28 339.87 L 309.07 339.82 L 309.91 339.73 L 309.94 339.73 L 310.11 339.73 L 310.12 339.73 L 310.23 339.38 L 310.31 339.37 L 310.38 339.27 L 310.48 339.22 L 310.51 339.19 L 310.55 339.17 L 310.71 339.14 L 311.03 339.07 L 311.23 338.60 L 311.46 338.58 L 311.47 338.54 L 311.51 338.15 L 311.54 338.15 L 311.98 338.15 L 311.98 338.11 L 312.05 337.75 L 312.24 337.70 L 312.36 337.69 L 312.39 337.68 L 312.40 337.64 L 312.45 337.61 L 312.48 337.24 L 312.50 337.23 L 312.61 337.23 L 312.62 337.20 L 312.85 337.17 L 313.48 337.15 L 313.63 337.12 L 313.68 337.11 L 313.71 336.99 L 313.75 336.99 L 313.84 336.57 L 323.94 336.44 L 323.96 336.32 L 324.05 336.24 L 324.07 336.23 L 324.13 335.87 L 324.24 335.78 L 324.25 335.76 L 324.44 335.76 L 324.48 335.76 L 324.51 335.41 L 324.68 335.36 L 325.11 335.35 L 325.13 335.33 L 325.24 335.14 L 325.28 335.14 L 325.30 334.81 L 325.67 334.81 L 325.68 334.80 L 326.23 334.71 L 326.30 334.32 L 326.49 334.32 L 326.72 334.32 L 326.78 334.03 L 326.82 333.81 L 326.92 333.80 L 327.21 333.75 L 327.26 333.73 L 327.39 333.64 L 327.52 333.64 L 327.95 333.64 L 328.00 333.64 L 328.10 333.62 L 328.11 333.62 L 328.24 333.62 L 328.56 333.60 L 328.89 333.56 L 328.94 333.56 L 329.02 333.51 L 329.11 333.41 L 329.37 333.41 L 329.79 333.28 L 329.93 333.06 L 330.16 333.04 L 331.09 332.80 L 331.30 332.80 L 331.45 332.79 L 331.68 332.79 L 331.75 332.77 L 331.98 332.65 L 332.35 332.63 L 332.40 332.53 L 332.47 332.47 L 332.51 332.49 L 332.54 332.45 L 332.83 332.43 L 339.53 332.42 L 339.60 332.42 L 340.01 332.42 L 340.05 332.41 L 340.15 332.08 L 340.22 332.07 L 340.23 332.07 L 340.46 332.06 L 340.52 332.04 L 341.89 331.56 L 342.05 331.51 L 342.17 331.50 L 342.20 331.50 L 342.62 331.49 L 342.77 331.56 L 342.80 331.55 L 343.02 331.52 L 343.27 331.06 L 343.30 331.05 L 343.51 331.04 L 343.60 331.04 L 343.68 331.04 L 343.85 330.95 L 344.22 330.53 L 344.30 330.53 L 344.36 330.47 L 344.52 330.09 L 344.88 329.67 L 345.21 329.70 L 345.28 329.48 L 345.61 329.48 L 345.67 329.45 L 345.73 329.43 L 345.76 329.21 L 345.88 329.20 L 345.90 329.20 L 345.96 329.20 L 346.15 329.20 L 346.44 329.03 L 346.62 329.01 L 346.83 329.01 L 346.92 329.01 L 347.13 329.01 L 347.47 329.01 L 347.80 329.01 L 348.06 329.01 L 348.12 329.00 L 348.18 329.00 L 348.19 328.92 L 348.39 328.86 L 348.44 328.86 L 348.52 328.85 L 349.07 328.85 L 349.08 328.63 L 349.23 328.63 L 349.87 328.64 L 350.30 328.63 L 350.61 328.59 L 350.62 328.50 L 350.64 328.50 L 360.03 328.35 L 360.06 328.35 L 360.17 328.34 L 360.22 328.21 L 360.25 328.21 L 360.26 328.20 L 360.66 328.16 L 360.75 327.72 L 360.87 327.62 L 361.07 326.76 L 361.20 326.75 L 361.36 326.38 L 361.45 326.43 L 361.49 326.42 L 361.54 325.95 L 361.65 325.87 L 361.67 325.54 L 361.71 325.49 L 361.81 325.46 L 361.88 325.30 L 361.96 327.24 L 362.08 327.21 L 362.31 326.43 L 362.41 326.26 L 362.50 326.09 L 363.07 325.78 L 363.57 325.45 L 364.16 325.00 L 364.31 324.95 L 364.48 324.95 L 364.66 324.90 L 368.11 324.68 L 368.40 324.65 L 401.10 324.05 L 504.05 324.03 L 504.39 323.75 L 504.63 323.71 L 504.86 323.71 L 505.22 323.46 L 505.34 323.18 L 505.44 322.65 L 505.60 322.50 L 505.84 322.55 L 506.03 322.24 L 506.08 322.24 L 506.23 322.14 L 506.27 322.14 L 506.44 321.63 L 506.59 320.83 L 507.06 320.75 L 507.07 320.67 L 507.21 319.65 L 507.65 319.61 L 507.66 319.51 L 507.75 319.45 L 507.85 318.52 L 508.33 318.47 L 508.34 318.34 L 508.45 318.28 L 508.56 317.67 L 508.74 317.65 L 508.75 317.55 L 508.83 316.53 L 508.84 316.51 L 508.88 316.48 L 509.09 316.48 L 509.11 316.37 L 509.18 316.30 L 509.40 316.20 L 509.44 316.20 L 509.62 316.14 L 509.90 316.18 L 509.95 316.13 L 509.98 316.11 L 510.03 316.08 L 510.18 315.03 L 510.33 315.01 L 510.35 314.92 L 510.44 313.84 L 510.52 313.45 L 510.54 313.31 L 510.63 312.78 L 510.68 311.87 L 510.85 311.86 L 510.88 311.80 L 510.97 311.62 L 511.09 311.61 L 511.83 311.58 L 512.20 311.56 L 520.24 311.60 L 520.32 311.40 L 520.40 311.24 L 520.54 310.51 L 520.84 310.50 L 520.86 310.43 L 520.92 309.51 L 521.11 309.50 L 521.13 309.41 L 522.89 309.32 L 523.00 308.99 L 523.88 308.83 L 523.98 308.79 L 524.08 307.77 L 525.15 307.48 L 525.60 307.24 L 525.72 306.47 L 526.10 306.46 L 526.34 306.04 L 526.73 305.38 L 527.44 304.98 L 538.20 304.98 L 538.85 304.96 L 538.88 304.96 L 539.78 304.82 L 539.82 304.73 L 540.14 304.67 L 540.50 303.81 L 540.51 303.81 L 540.55 303.78 L 541.03 303.60 L 542.13 303.03 L 542.20 302.97 L 542.32 302.96 L 542.49 302.72 L 542.53 302.68 L 542.60 302.64 L 543.11 302.64 L 543.52 302.64 L 543.75 302.64 L 543.78 302.60 L 544.24 301.73 L 544.59 301.65 L 544.61 301.58 L 544.65 301.50 L 544.70 301.28 L 556.38 301.12 L 556.40 301.10 L 556.43 301.08 L 556.66 300.98 L 556.84 300.87 L 557.87 300.38 L 558.12 300.28 L 558.86 299.91 L 559.50 299.85 L 559.97 299.70 L 560.11 298.41 L 560.70 298.20 L 560.92 298.13 L 560.99 297.21 L 562.72 296.32 L 562.74 296.32 L 562.84 295.91 L 563.16 295.87 L 563.17 295.87 L 563.19 295.76 L 563.25 295.65 L 563.40 295.56 L 563.58 294.93 L 565.37 294.60 L 565.61 294.45 L 565.77 294.10 L 565.79 294.07 L 565.83 293.84 L 573.78 293.04 L 574.04 292.45 L 574.19 292.43 L 574.25 292.04 L 575.00 291.88 L 575.16 291.46 L 575.30 291.46 L 575.38 290.60 L 575.63 290.40 L 575.67 290.37 L 576.01 290.32 L 576.08 289.62 L 576.37 289.53 L 576.43 288.97 L 576.67 288.91 L 576.84 288.59 L 576.97 287.97 L 577.27 287.85 L 577.31 287.21 L 577.69 288.65 L 577.73 288.65 L 577.79 287.83 L 577.87 287.83 L 577.91 287.77 L 578.35 287.69 L 578.99 287.35 L 579.31 287.52 L 580.37 287.50 L 580.39 287.49 L 580.56 287.48 L 580.63 287.46 L 580.75 287.35 L 580.87 287.25 L 581.02 287.10 L 581.33 286.89 L 581.63 286.88 L 582.57 286.78 L 582.62 286.78 L 583.56 286.67 L 583.96 286.61 L 592.01 286.57 L 592.42 286.53 L 592.62 286.53 L 592.71 286.53 L 592.73 286.53 L 592.93 286.51 L 593.03 286.48 L 593.26 286.33 L 593.41 286.31 L 593.93 286.30 L 594.21 286.22 L 594.66 286.18 L 594.78 286.16 L 594.94 286.09 L 595.14 285.99 L 595.83 285.96 L 595.90 285.94 L 596.91 285.79 L 597.07 285.53 L 597.27 285.44 L 597.77 285.29 L 597.99 285.21 L 598.11 285.56 L 598.21 285.55 L 598.35 285.41 L 598.78 285.08 L 599.23 284.99 L 599.64 284.93 L 599.68 284.89 L 599.73 284.64 L 628.85 284.59 L 629.04 284.52 L 645.79 284.45 L 645.87 284.81 L 646.01 283.37 L 646.03 283.37 L 646.08 283.40 L 646.68 282.85 L 646.74 282.82 L 647.48 282.88 L 648.23 282.82 L 648.49 282.77 L 648.96 282.71 L 649.58 282.56 L 649.60 282.56 L 649.68 282.53 L 649.92 282.49 L 650.00 282.38"/>
	</g>
	<g class="poloto_legend poloto_imgs poloto_line poloto0 poloto_stroke"><line x1="680" x2="730" y1="81.25" y2="81.25"/></g>
	<g class="poloto_legend poloto_imgs poloto_line poloto1 poloto_stroke"><line x1="680" x2="730" y1="131.25" y2="131.25"/></g>
	<g class="poloto_legend poloto_imgs poloto_line poloto2 poloto_stroke"><line x1="680" x2="730" y1="181.25" y2="181.25"/></g>
	<text class="poloto_legend poloto_text poloto_line poloto0" x="675" y="100">total</text>
	<text class="poloto_legend poloto_text poloto_line poloto1" x="675" y="150">code</text>
	<text class="poloto_legend poloto_text poloto_line poloto2" x="675" y="200">docs</text>
	<text class="poloto_text poloto_name poloto_title" x="400.00" y="37.50">Workspace lines over time</text>
	<text class="poloto_text poloto_name poloto_x" x="400.00" y="640">date (JST)</text>
	<text class="poloto_text poloto_name poloto_y" x="37.50" y="250.00" transform="rotate(-90,37.50,250.00)">lines</text>
	<text class="poloto_text poloto_ticks poloto_y">
		<tspan x="135.00" y="400.00">0</tspan>
		<tspan x="135.00" y="324.31">50K</tspan>
		<tspan x="135.00" y="248.62">100K</tspan>
		<tspan x="135.00" y="172.93">150K</tspan>
	</text>
	<g class="poloto_imgs poloto_ticks poloto_y" stroke="black">
		<line x1="150.00" x2="144.00" y1="400.00" y2="400.00"/>
		<line x1="150.00" x2="144.00" y1="324.31" y2="324.31"/>
		<line x1="150.00" x2="144.00" y1="248.62" y2="248.62"/>
		<line x1="150.00" x2="144.00" y1="172.93" y2="172.93"/>
	</g>
	<g class="poloto_text poloto_ticks poloto_x">
		<text x="217.30" y="430.00" text-anchor="end" transform="rotate(-90 217.30 430.00)">2026-04-24 12:06</text>
		<text x="320.90" y="430.00" text-anchor="end" transform="rotate(-90 320.90 430.00)">2026-04-30 07:00</text>
		<text x="424.50" y="430.00" text-anchor="end" transform="rotate(-90 424.50 430.00)">2026-05-06 01:53</text>
		<text x="528.10" y="430.00" text-anchor="end" transform="rotate(-90 528.10 430.00)">2026-05-11 20:46</text>
		<text x="631.70" y="430.00" text-anchor="end" transform="rotate(-90 631.70 430.00)">2026-05-17 15:40</text>
	</g>
	<g class="poloto_imgs poloto_ticks poloto_x" stroke="black">
		<line x1="217.30" x2="217.30" y1="400.00" y2="405.00"/>
		<line x1="320.90" x2="320.90" y1="400.00" y2="405.00"/>
		<line x1="424.50" x2="424.50" y1="400.00" y2="405.00"/>
		<line x1="528.10" x2="528.10" y1="400.00" y2="405.00"/>
		<line x1="631.70" x2="631.70" y1="400.00" y2="405.00"/>
	</g>
	<path class="poloto_imgs poloto_ticks poloto_x" stroke="black" style="stroke-dasharray:10.359980307749431;stroke-dashoffset:-67.30319767008768;" d=" M 150.00 400.00 L 650.00 400.00"/>
	<path class="poloto_imgs poloto_ticks poloto_y" stroke="black" style="stroke-dasharray:7.568914970809217;stroke-dashoffset:-0;" d=" M 150.00 400.00 L 150.00 100.00"/>
</svg>

