<svg class="poloto" width="800" height="680" viewBox="0 0 800 680" xmlns="http://www.w3.org/2000/svg">
	<style>
.poloto{
  stroke-linecap:round;
  stroke-linejoin:round;
  font-family:Roboto,sans-serif;
  font-size:16px;
}
.poloto_background{fill:AliceBlue;}
.poloto_scatter{stroke-width:7}
.poloto_line{stroke-width:2}
.poloto_text{fill: black;}
.poloto_name{font-size:24px;dominant-baseline:auto;text-anchor:middle;}
.poloto_where{dominant-baseline:middle;text-anchor:start}
.poloto_text.poloto_legend{font-size:20px;dominant-baseline:middle;text-anchor:start;}
.poloto_text.poloto_ticks.poloto_y{dominant-baseline:middle;text-anchor:end}
.poloto_text.poloto_ticks.poloto_x{dominant-baseline:auto;text-anchor:middle}
.poloto_imgs.poloto_ticks{stroke: black;stroke-width:3;fill:none;stroke-dasharray:none}
.poloto_grid{stroke:gray;stroke-width:0.5}

.poloto0.poloto_stroke{stroke:blue;}
.poloto1.poloto_stroke{stroke:red;}
.poloto2.poloto_stroke{stroke:green;}
.poloto3.poloto_stroke{stroke:gold;}
.poloto4.poloto_stroke{stroke:aqua;}
.poloto5.poloto_stroke{stroke:lime;}
.poloto6.poloto_stroke{stroke:orange;}
.poloto7.poloto_stroke{stroke:chocolate;}
.poloto0.poloto_fill{fill:blue;}
.poloto1.poloto_fill{fill:red;}
.poloto2.poloto_fill{fill:green;}
.poloto3.poloto_fill{fill:gold;}
.poloto4.poloto_fill{fill:aqua;}
.poloto5.poloto_fill{fill:lime;}
.poloto6.poloto_fill{fill:orange;}
.poloto7.poloto_fill{fill:chocolate;}
	</style>
	<circle r="1e5" class="poloto_background" fill="white"/>
	<g id="poloto_plot0" class="poloto_plot poloto_imgs poloto_line poloto0 poloto_stroke" fill="none" stroke="black">
		<path d=" M 150.00 370.12 L 150.03 370.10 L 150.04 370.08 L 150.05 370.08 L 150.07 370.08 L 150.10 366.84 L 150.21 366.45 L 150.46 366.43 L 150.84 366.16 L 151.02 364.51 L 151.41 364.41 L 151.47 364.33 L 151.52 364.29 L 151.97 363.49 L 152.80 362.83 L 153.06 360.29 L 153.13 360.29 L 153.63 360.19 L 154.21 360.18 L 154.21 360.18 L 154.22 360.18 L 162.03 360.18 L 162.09 360.17 L 162.19 360.15 L 162.23 360.12 L 162.53 359.98 L 162.66 359.94 L 162.99 359.70 L 163.04 359.60 L 163.14 359.37 L 163.23 359.33 L 163.26 359.33 L 163.35 359.27 L 163.43 359.27 L 163.52 359.27 L 163.73 358.90 L 163.93 358.66 L 163.96 358.66 L 164.05 358.52 L 164.67 359.11 L 164.69 359.11 L 164.77 359.01 L 165.12 358.58 L 165.41 358.05 L 165.73 357.83 L 165.79 357.78 L 165.80 357.79 L 165.86 357.58 L 165.98 357.58 L 166.14 357.51 L 166.45 357.32 L 166.47 357.01 L 166.52 357.01 L 166.59 356.85 L 166.77 356.85 L 166.79 356.85 L 166.97 356.42 L 167.04 356.40 L 167.11 356.36 L 167.18 356.19 L 168.13 355.95 L 168.36 355.90 L 168.89 355.59 L 169.01 355.60 L 169.09 355.58 L 169.13 355.36 L 169.50 354.07 L 169.66 354.05 L 169.85 353.62 L 169.94 353.58 L 170.16 353.22 L 170.26 353.09 L 170.39 352.86 L 170.51 352.66 L 170.93 349.69 L 170.94 349.62 L 170.96 349.44 L 171.11 348.02 L 178.35 347.91 L 179.10 346.29 L 179.13 346.25 L 180.02 346.00 L 180.09 345.99 L 180.17 345.67 L 180.39 345.51 L 180.49 345.23 L 180.53 344.99 L 180.64 344.56 L 180.90 344.55 L 180.91 344.26 L 181.00 343.95 L 181.10 343.94 L 181.21 343.58 L 181.36 343.33 L 181.41 343.20 L 181.43 343.20 L 181.56 342.92 L 181.58 342.91 L 181.71 342.63 L 181.74 342.62 L 181.94 341.29 L 181.98 341.29 L 182.05 341.06 L 182.14 341.05 L 182.26 341.05 L 182.31 341.02 L 182.72 340.77 L 182.73 340.78 L 182.80 340.18 L 182.99 340.17 L 183.15 339.28 L 183.20 339.20 L 183.28 339.19 L 183.31 339.15 L 183.41 338.47 L 183.86 332.65 L 183.91 332.36 L 184.06 332.34 L 184.11 332.27 L 184.15 332.25 L 184.22 332.10 L 184.29 331.43 L 184.45 331.30 L 184.57 331.28 L 184.66 331.00 L 184.71 330.99 L 185.12 330.77 L 185.34 330.61 L 185.41 330.35 L 185.60 330.33 L 185.62 330.33 L 185.63 330.31 L 185.75 328.91 L 185.85 328.83 L 186.19 327.42 L 186.24 327.01 L 186.30 326.99 L 186.39 326.84 L 186.40 326.74 L 186.44 326.67 L 186.47 326.63 L 186.52 326.63 L 186.57 326.55 L 186.70 325.40 L 186.80 325.23 L 186.89 324.89 L 187.02 324.87 L 187.17 324.76 L 187.32 323.94 L 187.42 322.81 L 187.63 322.75 L 187.63 322.33 L 187.76 322.19 L 197.88 322.19 L 198.07 322.18 L 198.55 321.58 L 198.65 321.56 L 198.73 321.56 L 198.74 321.41 L 198.91 321.23 L 199.03 321.20 L 199.10 321.08 L 199.17 321.01 L 199.21 320.96 L 199.40 320.91 L 199.76 320.84 L 199.85 320.53 L 199.92 320.45 L 200.01 320.44 L 200.48 320.29 L 200.54 320.20 L 200.58 320.20 L 200.61 320.08 L 200.71 320.03 L 200.79 319.92 L 201.13 319.16 L 201.62 319.04 L 201.79 318.99 L 202.34 318.80 L 202.59 315.14 L 202.68 315.06 L 202.79 314.70 L 202.95 314.22 L 203.20 314.09 L 203.54 314.08 L 204.00 314.06 L 204.07 313.90 L 204.40 313.73 L 204.62 313.47 L 204.69 313.36 L 204.82 313.32 L 204.92 312.99 L 206.12 312.64 L 207.26 312.64 L 217.44 312.60 L 217.51 312.44 L 217.57 312.34 L 217.89 312.18 L 218.84 310.92 L 218.88 310.84 L 219.01 310.52 L 219.48 310.43 L 219.70 309.58 L 220.04 309.57 L 220.12 309.56 L 220.19 308.97 L 220.78 305.65 L 220.85 305.64 L 220.98 305.61 L 221.11 305.57 L 221.17 305.21 L 221.50 303.96 L 221.62 303.72 L 221.67 303.71 L 221.74 303.13 L 221.89 302.31 L 221.95 301.44 L 222.10 301.06 L 222.54 296.73 L 222.58 296.29 L 222.63 296.29 L 222.69 296.22 L 222.80 296.10 L 222.85 296.07 L 222.89 296.02 L 223.10 294.98 L 223.15 294.25 L 223.41 294.10 L 223.56 293.01 L 223.66 292.33 L 224.45 282.24 L 224.54 282.22 L 254.48 281.74 L 254.50 281.74 L 265.94 281.60 L 266.57 281.32 L 266.70 281.32 L 266.86 281.24 L 266.92 281.12 L 266.99 281.08 L 271.95 281.01 L 272.60 279.09 L 272.85 278.92 L 272.98 278.21 L 276.06 278.07 L 276.09 277.88 L 276.28 277.86 L 277.20 276.65 L 277.26 276.43 L 277.37 276.36 L 277.70 276.27 L 277.74 276.24 L 277.87 275.88 L 278.01 275.78 L 278.03 275.51 L 287.64 275.14 L 287.72 274.10 L 288.10 273.88 L 288.10 272.15 L 288.17 271.89 L 288.25 271.47 L 288.36 270.27 L 288.52 269.64 L 288.66 268.90 L 288.78 268.89 L 288.83 268.33 L 289.03 268.28 L 289.69 265.49 L 289.96 265.19 L 290.00 265.02 L 290.06 265.01 L 290.10 264.82 L 290.19 264.13 L 290.46 263.81 L 290.50 263.77 L 290.66 261.31 L 290.73 261.31 L 290.75 261.04 L 290.82 260.84 L 290.86 260.84 L 290.89 260.47 L 291.10 259.14 L 291.20 258.77 L 291.31 258.72 L 291.39 255.17 L 291.43 254.89 L 291.64 252.86 L 291.70 252.71 L 291.74 252.70 L 291.79 252.70 L 291.82 252.41 L 291.85 252.42 L 291.87 252.41 L 291.97 248.84 L 292.01 248.52 L 292.11 248.51 L 292.19 248.44 L 292.40 248.34 L 292.67 248.21 L 292.68 248.21 L 292.75 248.16 L 293.00 248.09 L 293.12 248.09 L 293.23 248.09 L 293.36 246.53 L 293.44 246.16 L 293.78 246.15 L 293.81 245.91 L 293.85 245.90 L 293.88 245.64 L 294.10 243.38 L 294.14 243.33 L 294.30 243.31 L 309.09 243.25 L 309.94 243.13 L 309.96 243.13 L 310.13 243.13 L 310.14 243.13 L 310.25 242.68 L 310.33 242.66 L 310.41 242.44 L 310.51 242.39 L 310.54 242.36 L 310.58 242.34 L 310.73 242.09 L 311.06 241.86 L 311.26 241.14 L 311.48 240.45 L 311.49 240.41 L 311.53 239.77 L 311.56 239.74 L 312.00 239.36 L 312.01 239.32 L 312.08 238.80 L 312.27 238.75 L 312.39 238.70 L 312.41 237.78 L 312.42 237.74 L 312.48 238.61 L 312.51 238.07 L 312.53 238.05 L 312.63 236.83 L 312.64 236.80 L 312.88 236.69 L 313.51 236.68 L 313.66 236.63 L 313.70 236.62 L 313.73 236.46 L 313.77 236.46 L 313.86 235.86 L 323.97 234.69 L 323.99 234.53 L 324.07 234.42 L 324.10 234.19 L 324.16 223.99 L 324.27 219.81 L 324.28 219.78 L 324.47 219.70 L 324.51 219.70 L 324.54 219.22 L 324.71 219.17 L 325.14 218.18 L 325.15 218.16 L 325.26 217.86 L 325.31 217.87 L 325.33 217.37 L 325.70 216.79 L 325.71 216.77 L 326.26 216.55 L 326.33 216.03 L 326.52 216.04 L 326.75 214.72 L 326.81 214.20 L 326.85 213.78 L 326.95 213.27 L 327.24 213.09 L 327.29 212.96 L 327.42 212.85 L 327.55 212.85 L 327.98 212.85 L 328.03 212.85 L 328.12 212.83 L 328.13 212.82 L 328.27 212.84 L 328.59 212.81 L 328.92 212.62 L 328.97 212.62 L 329.04 212.54 L 329.14 212.40 L 329.39 212.40 L 329.82 212.22 L 329.96 211.81 L 330.19 208.29 L 331.12 211.27 L 331.32 211.25 L 331.47 211.24 L 331.71 211.23 L 331.78 211.18 L 332.01 211.01 L 332.38 210.77 L 332.42 210.61 L 332.49 210.54 L 332.54 210.56 L 332.57 210.51 L 332.86 210.29 L 339.56 210.28 L 339.62 210.29 L 340.04 210.27 L 340.08 210.26 L 340.17 209.81 L 340.25 209.56 L 340.26 209.55 L 340.49 209.52 L 340.55 209.49 L 341.92 208.83 L 342.08 208.78 L 342.20 208.76 L 342.23 208.76 L 342.65 208.60 L 342.80 208.68 L 342.83 208.67 L 343.05 208.63 L 343.30 207.24 L 343.33 207.23 L 343.54 207.07 L 343.63 207.07 L 343.71 207.07 L 343.88 206.92 L 344.25 206.35 L 344.33 206.33 L 344.39 206.18 L 344.55 205.51 L 344.91 204.83 L 345.24 201.59 L 345.31 201.19 L 345.64 201.04 L 345.70 200.96 L 345.76 200.80 L 345.79 200.28 L 345.91 199.35 L 345.93 199.38 L 345.99 199.37 L 346.18 199.36 L 346.47 199.02 L 346.65 198.95 L 346.86 198.94 L 346.95 198.93 L 347.16 198.92 L 347.50 198.92 L 347.83 198.91 L 348.09 198.91 L 348.15 198.90 L 348.21 198.89 L 348.22 198.77 L 348.42 198.71 L 348.47 198.69 L 348.55 198.55 L 349.10 198.53 L 349.11 198.25 L 349.26 198.24 L 349.90 198.25 L 350.33 198.07 L 350.64 197.87 L 350.65 197.75 L 350.67 197.75 L 360.06 197.56 L 360.09 197.55 L 360.20 197.54 L 360.25 197.38 L 360.28 197.36 L 360.29 197.35 L 360.69 197.31 L 360.78 196.72 L 360.90 196.59 L 361.10 195.44 L 361.23 195.43 L 361.39 194.94 L 361.48 195.00 L 361.52 194.99 L 361.57 194.43 L 361.69 194.05 L 361.70 193.64 L 361.74 193.58 L 361.84 193.55 L 361.91 193.36 L 361.99 195.56 L 362.11 195.52 L 362.34 194.65 L 362.44 194.43 L 362.53 194.24 L 363.11 192.98 L 363.60 192.37 L 364.19 191.20 L 364.35 191.14 L 364.51 191.14 L 364.70 191.09 L 368.15 190.76 L 368.43 190.73 L 401.13 189.84 L 504.11 189.63 L 504.45 189.28 L 504.68 189.23 L 504.92 189.23 L 505.28 188.54 L 505.40 188.21 L 505.49 187.59 L 505.66 185.82 L 505.89 186.18 L 506.08 185.80 L 506.13 185.79 L 506.29 185.67 L 506.32 185.68 L 506.49 185.02 L 506.65 183.98 L 507.11 182.88 L 507.13 182.79 L 507.26 181.47 L 507.70 178.20 L 507.72 178.09 L 507.80 178.02 L 507.91 176.85 L 508.39 175.28 L 508.40 175.13 L 508.50 175.06 L 508.61 174.28 L 508.79 173.67 L 508.80 173.56 L 508.88 172.36 L 508.90 172.33 L 508.94 171.99 L 509.14 169.87 L 509.17 169.75 L 509.24 169.62 L 509.46 169.34 L 509.50 169.33 L 509.67 168.93 L 509.96 168.97 L 510.00 168.92 L 510.04 168.89 L 510.09 168.86 L 510.23 167.61 L 510.39 166.59 L 510.41 166.50 L 510.49 165.23 L 510.58 163.99 L 510.60 163.83 L 510.69 162.37 L 510.73 161.23 L 510.91 160.46 L 510.94 160.40 L 511.02 160.16 L 511.15 160.14 L 511.89 160.11 L 512.25 160.07 L 520.30 160.12 L 520.38 159.90 L 520.46 159.71 L 520.60 158.85 L 520.90 158.63 L 520.92 158.55 L 520.98 157.41 L 521.17 156.32 L 521.19 156.22 L 522.95 156.15 L 523.05 155.53 L 523.94 155.34 L 524.04 155.30 L 524.14 154.02 L 525.21 152.83 L 525.66 152.37 L 525.77 151.43 L 526.16 149.83 L 526.40 149.37 L 526.79 148.42 L 527.50 147.94 L 538.26 147.93 L 538.91 147.83 L 538.94 147.85 L 539.84 147.66 L 539.88 147.57 L 540.20 147.50 L 540.57 146.45 L 540.57 146.45 L 540.61 146.41 L 541.09 145.21 L 542.19 144.53 L 542.26 144.47 L 542.38 144.46 L 542.55 144.15 L 542.59 144.06 L 542.66 144.00 L 543.17 143.96 L 543.58 143.96 L 543.81 143.96 L 543.84 143.91 L 544.30 142.87 L 544.65 142.67 L 544.67 142.59 L 544.71 142.51 L 544.76 142.23 L 556.44 141.83 L 556.46 141.80 L 556.50 141.79 L 556.72 141.67 L 556.90 141.54 L 557.93 139.94 L 558.19 139.75 L 558.93 139.26 L 559.57 139.15 L 560.04 138.99 L 560.17 137.51 L 560.76 135.78 L 560.98 135.65 L 561.06 134.54 L 562.79 132.48 L 562.80 132.48 L 562.90 131.98 L 563.23 131.92 L 563.23 131.92 L 563.25 131.79 L 563.31 131.63 L 563.46 131.47 L 563.65 130.61 L 565.44 128.52 L 565.67 128.28 L 565.83 127.90 L 565.86 127.86 L 565.89 127.57 L 573.85 126.62 L 574.11 125.91 L 574.26 125.88 L 574.31 125.40 L 575.06 125.18 L 575.22 124.71 L 575.36 124.71 L 575.45 123.71 L 575.70 121.17 L 575.74 121.13 L 576.07 121.09 L 576.15 120.26 L 576.43 119.26 L 576.49 118.58 L 576.73 117.94 L 576.91 117.61 L 577.04 116.85 L 577.34 116.20 L 577.37 115.48 L 577.76 115.31 L 577.79 115.31 L 577.85 114.39 L 577.93 114.39 L 577.97 114.32 L 578.42 112.60 L 579.06 112.03 L 579.38 112.22 L 580.43 112.13 L 580.46 112.13 L 580.62 112.11 L 580.69 112.09 L 580.81 111.97 L 580.94 111.87 L 581.08 111.68 L 581.40 111.43 L 581.70 111.42 L 582.64 111.24 L 582.68 111.23 L 583.63 111.07 L 584.03 110.96 L 592.08 110.95 L 592.48 110.82 L 592.69 110.74 L 592.78 110.74 L 592.80 110.74 L 593.00 110.71 L 593.10 110.66 L 593.33 110.49 L 593.48 110.46 L 594.00 110.28 L 594.27 109.90 L 594.73 109.84 L 594.85 109.59 L 595.01 109.43 L 595.21 109.24 L 595.90 109.29 L 595.97 109.27 L 596.98 108.79 L 597.14 108.51 L 597.34 108.42 L 597.83 108.19 L 598.06 108.25 L 598.18 108.63 L 598.28 108.60 L 598.42 108.45 L 598.85 107.31 L 599.30 107.19 L 599.71 107.10 L 599.75 107.05 L 599.80 106.73 L 628.92 106.65 L 629.11 106.51 L 645.86 106.14 L 645.95 106.55 L 646.09 104.82 L 646.11 104.82 L 646.15 104.86 L 646.75 101.34 L 646.81 101.31 L 647.55 101.39 L 648.31 101.17 L 648.57 100.84 L 649.04 100.41 L 649.66 100.14 L 649.68 100.14 L 649.76 100.06 L 650.00 100.00"/>
	</g>
	<g id="poloto_plot1" class="poloto_plot poloto_imgs poloto_line poloto1 poloto_stroke" fill="none" stroke="black">
		<path d=" M 150.00 382.25 L 150.03 382.23 L 150.04 382.22 L 150.05 382.22 L 150.07 382.22 L 150.10 381.66 L 150.21 381.64 L 150.46 381.63 L 150.84 381.42 L 151.02 381.32 L 151.41 381.34 L 151.47 381.30 L 151.52 381.30 L 151.97 381.26 L 152.80 381.16 L 153.06 378.96 L 153.13 378.96 L 153.63 378.91 L 154.21 378.90 L 154.21 378.90 L 154.22 378.90 L 162.03 378.90 L 162.09 378.90 L 162.19 378.90 L 162.23 378.87 L 162.53 378.86 L 162.66 378.86 L 162.99 378.86 L 163.04 378.86 L 163.14 378.84 L 163.23 378.84 L 163.26 378.84 L 163.35 378.81 L 163.43 378.81 L 163.52 378.81 L 163.73 378.69 L 163.93 378.69 L 163.96 378.69 L 164.05 378.69 L 164.67 379.52 L 164.69 379.52 L 164.77 379.51 L 165.12 379.38 L 165.41 379.24 L 165.73 379.18 L 165.79 379.14 L 165.80 379.14 L 165.86 379.14 L 165.98 379.14 L 166.14 379.09 L 166.45 379.04 L 166.47 379.04 L 166.52 379.04 L 166.59 379.02 L 166.77 379.02 L 166.79 379.02 L 166.97 379.01 L 167.04 379.01 L 167.11 379.01 L 167.18 379.01 L 168.13 378.91 L 168.36 378.90 L 168.89 378.86 L 169.01 378.86 L 169.09 378.86 L 169.13 378.86 L 169.50 378.79 L 169.66 378.79 L 169.85 378.71 L 169.94 378.71 L 170.16 378.53 L 170.26 378.46 L 170.39 378.46 L 170.51 378.46 L 170.93 375.90 L 170.94 375.85 L 170.96 375.85 L 171.11 375.60 L 178.35 375.60 L 179.10 374.50 L 179.13 374.50 L 180.02 374.50 L 180.09 374.49 L 180.17 374.38 L 180.39 374.36 L 180.49 374.36 L 180.53 374.36 L 180.64 374.36 L 180.90 374.36 L 180.91 374.12 L 181.00 374.11 L 181.10 374.11 L 181.21 374.09 L 181.36 374.08 L 181.41 374.08 L 181.43 374.08 L 181.56 374.08 L 181.58 374.08 L 181.71 374.08 L 181.74 374.08 L 181.94 372.99 L 181.98 372.99 L 182.05 372.86 L 182.14 372.86 L 182.26 372.86 L 182.31 372.85 L 182.72 372.85 L 182.73 372.85 L 182.80 372.78 L 182.99 372.78 L 183.15 372.15 L 183.20 372.08 L 183.28 372.08 L 183.31 372.08 L 183.41 372.06 L 183.86 367.48 L 183.91 367.51 L 184.06 367.51 L 184.11 367.51 L 184.15 367.51 L 184.22 367.51 L 184.29 367.44 L 184.45 367.44 L 184.57 367.44 L 184.66 367.44 L 184.71 367.44 L 185.12 367.43 L 185.34 367.42 L 185.41 367.31 L 185.60 367.31 L 185.62 367.31 L 185.63 367.31 L 185.75 367.00 L 185.85 366.92 L 186.19 365.83 L 186.24 365.83 L 186.30 365.83 L 186.39 365.85 L 186.40 365.85 L 186.44 365.85 L 186.47 365.85 L 186.52 365.85 L 186.57 365.85 L 186.70 365.83 L 186.80 365.83 L 186.89 365.81 L 187.02 365.81 L 187.17 365.81 L 187.32 365.40 L 187.42 365.26 L 187.63 365.26 L 187.63 365.26 L 187.76 365.26 L 197.88 365.26 L 198.07 365.25 L 198.55 365.18 L 198.65 365.17 L 198.73 365.17 L 198.74 365.17 L 198.91 365.17 L 199.03 365.17 L 199.10 365.17 L 199.17 365.17 L 199.21 365.17 L 199.40 365.17 L 199.76 365.19 L 199.85 365.19 L 199.92 365.19 L 200.01 365.19 L 200.48 365.10 L 200.54 365.06 L 200.58 365.06 L 200.61 365.00 L 200.71 365.00 L 200.79 365.00 L 201.13 364.58 L 201.62 364.58 L 201.79 364.58 L 202.34 364.58 L 202.59 361.77 L 202.68 361.77 L 202.79 361.77 L 202.95 361.77 L 203.20 361.77 L 203.54 361.77 L 204.00 361.77 L 204.07 361.77 L 204.40 361.70 L 204.62 361.58 L 204.69 361.58 L 204.82 361.58 L 204.92 361.57 L 206.12 361.39 L 207.26 361.39 L 217.44 361.39 L 217.51 361.39 L 217.57 361.39 L 217.89 361.39 L 218.84 360.50 L 218.88 360.47 L 219.01 360.38 L 219.48 360.38 L 219.70 360.16 L 220.04 360.17 L 220.12 360.17 L 220.19 360.17 L 220.78 357.70 L 220.85 357.70 L 220.98 357.70 L 221.11 357.70 L 221.17 357.55 L 221.50 357.25 L 221.62 357.25 L 221.67 357.25 L 221.74 356.80 L 221.89 356.34 L 221.95 356.34 L 222.10 356.33 L 222.54 352.66 L 222.58 352.66 L 222.63 352.66 L 222.69 352.66 L 222.80 352.66 L 222.85 352.66 L 222.89 352.66 L 223.10 352.66 L 223.15 352.58 L 223.41 352.57 L 223.56 352.52 L 223.66 352.07 L 224.45 344.77 L 224.54 344.77 L 254.48 344.77 L 254.50 344.77 L 265.94 344.77 L 266.57 344.66 L 266.70 344.66 L 266.86 344.66 L 266.92 344.66 L 266.99 344.66 L 271.95 344.60 L 272.60 344.53 L 272.85 344.53 L 272.98 344.51 L 276.06 344.45 L 276.09 344.35 L 276.28 344.35 L 277.20 343.36 L 277.26 343.36 L 277.37 343.36 L 277.70 343.36 L 277.74 343.36 L 277.87 343.36 L 278.01 343.36 L 278.03 343.36 L 287.64 343.34 L 287.72 343.17 L 288.10 343.17 L 288.10 341.98 L 288.17 341.98 L 288.25 341.98 L 288.36 341.87 L 288.52 341.87 L 288.66 341.81 L 288.78 341.81 L 288.83 341.81 L 289.03 341.80 L 289.69 339.77 L 289.96 339.77 L 290.00 339.76 L 290.06 339.76 L 290.10 339.76 L 290.19 339.73 L 290.46 339.48 L 290.50 339.44 L 290.66 337.62 L 290.73 337.61 L 290.75 337.61 L 290.82 337.59 L 290.86 337.59 L 290.89 337.58 L 291.10 336.59 L 291.20 336.58 L 291.31 336.56 L 291.39 333.48 L 291.43 333.47 L 291.64 331.74 L 291.70 331.74 L 291.74 331.74 L 291.79 331.74 L 291.82 331.74 L 291.85 331.74 L 291.87 331.74 L 291.97 328.53 L 292.01 328.52 L 292.11 328.51 L 292.19 328.51 L 292.40 328.45 L 292.67 328.36 L 292.68 328.36 L 292.75 328.34 L 293.00 328.29 L 293.12 328.29 L 293.23 328.29 L 293.36 326.91 L 293.44 326.91 L 293.78 326.90 L 293.81 326.90 L 293.85 326.90 L 293.88 326.90 L 294.10 324.92 L 294.14 324.92 L 294.30 324.91 L 309.09 324.91 L 309.94 324.90 L 309.96 324.90 L 310.13 324.90 L 310.14 324.90 L 310.25 324.90 L 310.33 324.89 L 310.41 324.80 L 310.51 324.80 L 310.54 324.80 L 310.58 324.80 L 310.73 324.62 L 311.06 324.50 L 311.26 324.39 L 311.48 323.83 L 311.49 323.83 L 311.53 323.69 L 311.56 323.67 L 312.00 323.33 L 312.01 323.33 L 312.08 323.28 L 312.27 323.28 L 312.39 323.25 L 312.41 322.43 L 312.42 322.43 L 312.48 323.24 L 312.51 323.19 L 312.53 323.18 L 312.63 322.08 L 312.64 322.08 L 312.88 322.04 L 313.51 322.04 L 313.66 322.04 L 313.70 322.04 L 313.73 322.04 L 313.77 322.04 L 313.86 321.96 L 323.97 321.05 L 323.99 321.05 L 324.07 321.05 L 324.10 320.85 L 324.16 311.10 L 324.27 307.47 L 324.28 307.47 L 324.47 307.41 L 324.51 307.41 L 324.54 307.39 L 324.71 307.39 L 325.14 306.51 L 325.15 306.51 L 325.26 306.46 L 325.31 306.46 L 325.33 306.38 L 325.70 305.85 L 325.71 305.85 L 326.26 305.74 L 326.33 305.71 L 326.52 305.72 L 326.75 304.52 L 326.81 304.40 L 326.85 304.29 L 326.95 303.84 L 327.24 303.73 L 327.29 303.63 L 327.42 303.63 L 327.55 303.63 L 327.98 303.63 L 328.03 303.63 L 328.12 303.63 L 328.13 303.63 L 328.27 303.64 L 328.59 303.64 L 328.92 303.52 L 328.97 303.52 L 329.04 303.51 L 329.14 303.51 L 329.39 303.51 L 329.82 303.51 L 329.96 303.40 L 330.19 300.25 L 331.12 303.22 L 331.32 303.21 L 331.47 303.20 L 331.71 303.20 L 331.78 303.16 L 332.01 303.14 L 332.38 302.96 L 332.42 302.96 L 332.49 302.96 L 332.54 302.96 L 332.57 302.96 L 332.86 302.79 L 339.56 302.79 L 339.62 302.80 L 340.04 302.78 L 340.08 302.78 L 340.17 302.75 L 340.25 302.53 L 340.26 302.53 L 340.49 302.51 L 340.55 302.51 L 341.92 302.33 L 342.08 302.33 L 342.20 302.33 L 342.23 302.33 L 342.65 302.20 L 342.80 302.20 L 342.83 302.20 L 343.05 302.19 L 343.30 301.45 L 343.33 301.45 L 343.54 301.32 L 343.63 301.32 L 343.71 301.32 L 343.88 301.32 L 344.25 301.31 L 344.33 301.29 L 344.39 301.22 L 344.55 301.10 L 344.91 300.98 L 345.24 298.01 L 345.31 297.91 L 345.64 297.77 L 345.70 297.74 L 345.76 297.63 L 345.79 297.42 L 345.91 296.53 L 345.93 296.57 L 345.99 296.55 L 346.18 296.55 L 346.47 296.43 L 346.65 296.38 L 346.86 296.37 L 346.95 296.36 L 347.16 296.35 L 347.50 296.35 L 347.83 296.34 L 348.09 296.34 L 348.15 296.33 L 348.21 296.33 L 348.22 296.32 L 348.42 296.32 L 348.47 296.31 L 348.55 296.20 L 349.10 296.19 L 349.11 296.19 L 349.26 296.18 L 349.90 296.17 L 350.33 296.03 L 350.64 295.90 L 350.65 295.90 L 350.67 295.90 L 360.06 295.90 L 360.09 295.90 L 360.20 295.90 L 360.25 295.90 L 360.28 295.88 L 360.29 295.88 L 360.69 295.88 L 360.78 295.87 L 360.90 295.85 L 361.10 295.83 L 361.23 295.83 L 361.39 295.76 L 361.48 295.76 L 361.52 295.76 L 361.57 295.76 L 361.69 295.49 L 361.70 295.49 L 361.74 295.49 L 361.84 295.49 L 361.91 295.49 L 361.99 295.55 L 362.11 295.55 L 362.34 295.54 L 362.44 295.54 L 362.53 295.54 L 363.11 294.67 L 363.60 294.44 L 364.19 293.81 L 364.35 293.81 L 364.51 293.81 L 364.70 293.81 L 368.15 293.73 L 368.43 293.73 L 401.13 293.62 L 504.11 293.46 L 504.45 293.41 L 504.68 293.40 L 504.92 293.40 L 505.28 293.00 L 505.40 293.00 L 505.49 293.00 L 505.66 291.54 L 505.89 291.82 L 506.08 291.80 L 506.13 291.80 L 506.29 291.78 L 506.32 291.78 L 506.49 291.78 L 506.65 291.71 L 507.11 290.79 L 507.13 290.79 L 507.26 290.71 L 507.70 287.71 L 507.72 287.71 L 507.80 287.71 L 507.91 287.66 L 508.39 286.27 L 508.40 286.27 L 508.50 286.27 L 508.61 286.24 L 508.79 285.73 L 508.80 285.73 L 508.88 285.72 L 508.90 285.72 L 508.94 285.44 L 509.14 283.46 L 509.17 283.46 L 509.24 283.46 L 509.46 283.29 L 509.50 283.29 L 509.67 282.97 L 509.96 282.97 L 510.00 282.97 L 510.04 282.97 L 510.09 282.97 L 510.23 282.96 L 510.39 282.07 L 510.41 282.07 L 510.49 282.06 L 510.58 281.39 L 510.60 281.39 L 510.69 280.67 L 510.73 280.63 L 510.91 279.92 L 510.94 279.92 L 511.02 279.92 L 511.15 279.91 L 511.89 279.91 L 512.25 279.90 L 520.30 279.90 L 520.38 279.90 L 520.46 279.90 L 520.60 279.90 L 520.90 279.71 L 520.92 279.71 L 520.98 279.65 L 521.17 278.66 L 521.19 278.66 L 522.95 278.68 L 523.05 278.49 L 523.94 278.49 L 524.04 278.48 L 524.14 278.41 L 525.21 277.60 L 525.66 277.44 L 525.77 277.39 L 526.16 275.84 L 526.40 275.84 L 526.79 275.71 L 527.50 275.71 L 538.26 275.71 L 538.91 275.62 L 538.94 275.64 L 539.84 275.64 L 539.88 275.64 L 540.20 275.64 L 540.57 275.60 L 540.57 275.60 L 540.61 275.60 L 541.09 274.70 L 542.19 274.68 L 542.26 274.68 L 542.38 274.67 L 542.55 274.64 L 542.59 274.61 L 542.66 274.61 L 543.17 274.57 L 543.58 274.57 L 543.81 274.56 L 543.84 274.56 L 544.30 274.55 L 544.65 274.44 L 544.67 274.44 L 544.71 274.44 L 544.76 274.44 L 556.44 274.23 L 556.46 274.23 L 556.50 274.23 L 556.72 274.23 L 556.90 274.23 L 557.93 273.34 L 558.19 273.28 L 558.93 273.22 L 559.57 273.17 L 560.04 273.17 L 560.17 273.17 L 560.76 271.82 L 560.98 271.78 L 561.06 271.74 L 562.79 270.79 L 562.80 270.79 L 562.90 270.78 L 563.23 270.77 L 563.23 270.77 L 563.25 270.77 L 563.31 270.74 L 563.46 270.70 L 563.65 270.59 L 565.44 269.03 L 565.67 268.95 L 565.83 268.95 L 565.86 268.95 L 565.89 268.95 L 573.85 268.95 L 574.11 268.94 L 574.26 268.94 L 574.31 268.94 L 575.06 268.94 L 575.22 268.94 L 575.36 268.94 L 575.45 268.91 L 575.70 266.86 L 575.74 266.85 L 576.07 266.86 L 576.15 266.84 L 576.43 266.05 L 576.49 266.00 L 576.73 265.49 L 576.91 265.49 L 577.04 265.44 L 577.34 264.96 L 577.37 264.96 L 577.76 263.44 L 577.79 263.44 L 577.85 263.43 L 577.93 263.43 L 577.97 263.43 L 578.42 261.90 L 579.06 261.77 L 579.38 261.77 L 580.43 261.73 L 580.46 261.72 L 580.62 261.72 L 580.69 261.72 L 580.81 261.72 L 580.94 261.72 L 581.08 261.71 L 581.40 261.69 L 581.70 261.69 L 582.64 261.62 L 582.68 261.62 L 583.63 261.58 L 584.03 261.54 L 592.08 261.55 L 592.48 261.48 L 592.69 261.40 L 592.78 261.40 L 592.80 261.40 L 593.00 261.39 L 593.10 261.39 L 593.33 261.39 L 593.48 261.38 L 594.00 261.24 L 594.27 260.97 L 594.73 260.95 L 594.85 260.77 L 595.01 260.68 L 595.21 260.60 L 595.90 260.68 L 595.97 260.68 L 596.98 260.40 L 597.14 260.40 L 597.34 260.40 L 597.83 260.37 L 598.06 260.51 L 598.18 260.51 L 598.28 260.51 L 598.42 260.51 L 598.85 259.85 L 599.30 259.83 L 599.71 259.83 L 599.75 259.83 L 599.80 259.83 L 628.92 259.83 L 629.11 259.78 L 645.86 259.56 L 645.95 259.56 L 646.09 259.51 L 646.11 259.51 L 646.15 259.51 L 646.75 256.97 L 646.81 256.97 L 647.55 256.97 L 648.31 256.85 L 648.57 256.60 L 649.04 256.27 L 649.66 256.19 L 649.68 256.19 L 649.76 256.14 L 650.00 256.14"/>
	</g>
	<g id="poloto_plot2" class="poloto_plot poloto_imgs poloto_line poloto2 poloto_stroke" fill="none" stroke="black">
		<path d=" M 150.00 392.03 L 150.03 392.03 L 150.04 392.03 L 150.05 392.03 L 150.07 392.03 L 150.10 389.99 L 150.21 389.71 L 150.46 389.70 L 150.84 389.69 L 151.02 388.47 L 151.41 388.36 L 151.47 388.33 L 151.52 388.30 L 151.97 387.75 L 152.80 387.32 L 153.06 387.24 L 153.13 387.25 L 153.63 387.21 L 154.21 387.21 L 154.21 387.21 L 154.22 387.21 L 162.03 387.21 L 162.09 387.21 L 162.19 387.19 L 162.23 387.19 L 162.53 387.07 L 162.66 387.03 L 162.99 386.83 L 163.04 386.75 L 163.14 386.57 L 163.23 386.54 L 163.26 386.54 L 163.35 386.51 L 163.43 386.51 L 163.52 386.51 L 163.73 386.31 L 163.93 386.12 L 163.96 386.12 L 164.05 386.01 L 164.67 385.76 L 164.69 385.76 L 164.77 385.68 L 165.12 385.41 L 165.41 385.08 L 165.73 384.95 L 165.79 384.95 L 165.80 384.95 L 165.86 384.76 L 165.98 384.76 L 166.14 384.74 L 166.45 384.60 L 166.47 384.36 L 166.52 384.36 L 166.59 384.25 L 166.77 384.25 L 166.79 384.25 L 166.97 383.89 L 167.04 383.87 L 167.11 383.84 L 167.18 383.67 L 168.13 383.57 L 168.36 383.53 L 168.89 383.29 L 169.01 383.29 L 169.09 383.28 L 169.13 383.09 L 169.50 382.09 L 169.66 382.08 L 169.85 381.78 L 169.94 381.75 L 170.16 381.61 L 170.26 381.57 L 170.39 381.35 L 170.51 381.18 L 170.93 381.18 L 170.94 381.16 L 170.96 381.01 L 171.11 380.05 L 178.35 379.95 L 179.10 379.66 L 179.13 379.62 L 180.02 379.38 L 180.09 379.38 L 180.17 379.20 L 180.39 379.08 L 180.49 378.86 L 180.53 378.68 L 180.64 378.32 L 180.90 378.31 L 180.91 378.31 L 181.00 378.06 L 181.10 378.06 L 181.21 377.80 L 181.36 377.59 L 181.41 377.48 L 181.43 377.47 L 181.56 377.23 L 181.58 377.23 L 181.71 377.01 L 181.74 377.00 L 181.94 376.92 L 181.98 376.92 L 182.05 376.84 L 182.14 376.82 L 182.26 376.82 L 182.31 376.81 L 182.72 376.59 L 182.73 376.60 L 182.80 376.16 L 182.99 376.15 L 183.15 376.02 L 183.20 376.02 L 183.28 376.01 L 183.31 375.98 L 183.41 375.38 L 183.86 374.88 L 183.91 374.61 L 184.06 374.58 L 184.11 374.51 L 184.15 374.50 L 184.22 374.37 L 184.29 373.90 L 184.45 373.83 L 184.57 373.82 L 184.66 373.58 L 184.71 373.58 L 185.12 373.40 L 185.34 373.27 L 185.41 373.17 L 185.60 373.16 L 185.62 373.16 L 185.63 373.13 L 185.75 372.28 L 185.85 372.27 L 186.19 372.15 L 186.24 371.81 L 186.30 371.81 L 186.39 371.67 L 186.40 371.58 L 186.44 371.53 L 186.47 371.49 L 186.52 371.49 L 186.57 371.42 L 186.70 370.47 L 186.80 370.37 L 186.89 370.08 L 187.02 370.06 L 187.17 369.97 L 187.32 369.67 L 187.42 368.84 L 187.63 368.77 L 187.63 368.42 L 187.76 368.33 L 197.88 368.33 L 198.07 368.33 L 198.55 367.94 L 198.65 367.94 L 198.73 367.94 L 198.74 367.84 L 198.91 367.67 L 199.03 367.64 L 199.10 367.54 L 199.17 367.47 L 199.21 367.43 L 199.40 367.38 L 199.76 367.46 L 199.85 367.19 L 199.92 367.12 L 200.01 367.12 L 200.48 367.06 L 200.54 367.02 L 200.58 367.02 L 200.61 366.97 L 200.71 366.92 L 200.79 366.83 L 201.13 366.58 L 201.62 366.47 L 201.79 366.43 L 202.34 366.27 L 202.59 365.88 L 202.68 365.82 L 202.79 365.51 L 202.95 365.12 L 203.20 365.02 L 203.54 365.01 L 204.00 364.99 L 204.07 364.85 L 204.40 364.75 L 204.62 364.63 L 204.69 364.53 L 204.82 364.49 L 204.92 364.23 L 206.12 364.11 L 207.26 364.11 L 217.44 364.08 L 217.51 363.93 L 217.57 363.84 L 217.89 363.69 L 218.84 363.43 L 218.88 363.40 L 219.01 363.21 L 219.48 363.14 L 219.70 362.64 L 220.04 362.63 L 220.12 362.61 L 220.19 362.11 L 220.78 361.65 L 220.85 361.64 L 220.98 361.62 L 221.11 361.57 L 221.17 361.40 L 221.50 360.63 L 221.62 360.44 L 221.67 360.42 L 221.74 360.34 L 221.89 360.04 L 221.95 359.26 L 222.10 358.95 L 222.54 358.76 L 222.58 358.38 L 222.63 358.38 L 222.69 358.31 L 222.80 358.20 L 222.85 358.17 L 222.89 358.13 L 223.10 357.24 L 223.15 356.70 L 223.41 356.60 L 223.56 355.70 L 223.66 355.53 L 224.45 354.12 L 224.54 354.09 L 254.48 353.68 L 254.50 353.68 L 265.94 353.57 L 266.57 353.42 L 266.70 353.42 L 266.86 353.34 L 266.92 353.23 L 266.99 353.20 L 271.95 353.19 L 272.60 351.57 L 272.85 351.42 L 272.98 350.86 L 276.06 350.79 L 276.09 350.74 L 276.28 350.73 L 277.20 350.63 L 277.26 350.44 L 277.37 350.38 L 277.70 350.29 L 277.74 350.27 L 277.87 349.96 L 278.01 349.86 L 278.03 349.62 L 287.64 349.32 L 287.72 348.58 L 288.10 348.39 L 288.10 348.10 L 288.17 347.88 L 288.25 347.54 L 288.36 346.65 L 288.52 346.16 L 288.66 345.53 L 288.78 345.53 L 288.83 345.04 L 289.03 345.00 L 289.69 344.54 L 289.96 344.33 L 290.00 344.19 L 290.06 344.19 L 290.10 344.03 L 290.19 343.48 L 290.46 343.42 L 290.50 343.42 L 290.66 343.06 L 290.73 343.06 L 290.75 342.85 L 290.82 342.72 L 290.86 342.72 L 290.89 342.43 L 291.10 342.26 L 291.20 341.97 L 291.31 341.96 L 291.39 341.81 L 291.43 341.59 L 291.64 341.47 L 291.70 341.34 L 291.74 341.34 L 291.79 341.34 L 291.82 341.11 L 291.85 341.12 L 291.87 341.12 L 291.97 341.04 L 292.01 340.79 L 292.11 340.79 L 292.19 340.73 L 292.40 340.71 L 292.67 340.68 L 292.68 340.68 L 292.75 340.67 L 293.00 340.67 L 293.12 340.67 L 293.23 340.67 L 293.36 340.63 L 293.44 340.33 L 293.78 340.33 L 293.81 340.15 L 293.85 340.15 L 293.88 339.95 L 294.10 339.88 L 294.14 339.83 L 294.30 339.83 L 309.09 339.78 L 309.94 339.70 L 309.96 339.70 L 310.13 339.70 L 310.14 339.70 L 310.25 339.35 L 310.33 339.34 L 310.41 339.24 L 310.51 339.19 L 310.54 339.15 L 310.58 339.14 L 310.73 339.10 L 311.06 339.03 L 311.26 338.57 L 311.48 338.54 L 311.49 338.51 L 311.53 338.12 L 311.56 338.11 L 312.00 338.11 L 312.01 338.07 L 312.08 337.71 L 312.27 337.66 L 312.39 337.65 L 312.41 337.64 L 312.42 337.60 L 312.48 337.58 L 312.51 337.21 L 312.53 337.20 L 312.63 337.20 L 312.64 337.17 L 312.88 337.13 L 313.51 337.11 L 313.66 337.08 L 313.70 337.07 L 313.73 336.96 L 313.77 336.96 L 313.86 336.54 L 323.97 336.41 L 323.99 336.29 L 324.07 336.20 L 324.10 336.19 L 324.16 335.83 L 324.27 335.75 L 324.28 335.73 L 324.47 335.72 L 324.51 335.72 L 324.54 335.37 L 324.71 335.33 L 325.14 335.31 L 325.15 335.29 L 325.26 335.10 L 325.31 335.10 L 325.33 334.78 L 325.70 334.78 L 325.71 334.76 L 326.26 334.68 L 326.33 334.28 L 326.52 334.28 L 326.75 334.28 L 326.81 333.99 L 326.85 333.77 L 326.95 333.76 L 327.24 333.71 L 327.29 333.70 L 327.42 333.60 L 327.55 333.60 L 327.98 333.61 L 328.03 333.61 L 328.12 333.59 L 328.13 333.58 L 328.27 333.58 L 328.59 333.56 L 328.92 333.52 L 328.97 333.52 L 329.04 333.48 L 329.14 333.37 L 329.39 333.37 L 329.82 333.24 L 329.96 333.02 L 330.19 333.00 L 331.12 332.76 L 331.32 332.76 L 331.47 332.76 L 331.71 332.75 L 331.78 332.73 L 332.01 332.61 L 332.38 332.59 L 332.42 332.49 L 332.49 332.44 L 332.54 332.45 L 332.57 332.41 L 332.86 332.39 L 339.56 332.39 L 339.62 332.39 L 340.04 332.39 L 340.08 332.37 L 340.17 332.04 L 340.25 332.03 L 340.26 332.03 L 340.49 332.02 L 340.55 332.01 L 341.92 331.52 L 342.08 331.47 L 342.20 331.46 L 342.23 331.46 L 342.65 331.45 L 342.80 331.52 L 342.83 331.51 L 343.05 331.48 L 343.30 331.02 L 343.33 331.01 L 343.54 331.00 L 343.63 331.00 L 343.71 331.00 L 343.88 330.91 L 344.25 330.49 L 344.33 330.49 L 344.39 330.43 L 344.55 330.05 L 344.91 329.63 L 345.24 329.66 L 345.31 329.44 L 345.64 329.44 L 345.70 329.41 L 345.76 329.39 L 345.79 329.17 L 345.91 329.16 L 345.93 329.16 L 345.99 329.16 L 346.18 329.16 L 346.47 328.99 L 346.65 328.97 L 346.86 328.97 L 346.95 328.97 L 347.16 328.97 L 347.50 328.97 L 347.83 328.97 L 348.09 328.97 L 348.15 328.96 L 348.21 328.95 L 348.22 328.88 L 348.42 328.82 L 348.47 328.82 L 348.55 328.81 L 349.10 328.81 L 349.11 328.59 L 349.26 328.59 L 349.90 328.60 L 350.33 328.59 L 350.64 328.54 L 350.65 328.46 L 350.67 328.46 L 360.06 328.31 L 360.09 328.31 L 360.20 328.30 L 360.25 328.17 L 360.28 328.17 L 360.29 328.16 L 360.69 328.12 L 360.78 327.68 L 360.90 327.58 L 361.10 326.72 L 361.23 326.71 L 361.39 326.34 L 361.48 326.38 L 361.52 326.38 L 361.57 325.91 L 361.69 325.83 L 361.70 325.50 L 361.74 325.45 L 361.84 325.42 L 361.91 325.26 L 361.99 327.20 L 362.11 327.17 L 362.34 326.39 L 362.44 326.22 L 362.53 326.04 L 363.11 325.73 L 363.60 325.41 L 364.19 324.95 L 364.35 324.90 L 364.51 324.90 L 364.70 324.86 L 368.15 324.63 L 368.43 324.61 L 401.13 324.00 L 504.11 323.98 L 504.45 323.71 L 504.68 323.67 L 504.92 323.67 L 505.28 323.42 L 505.40 323.13 L 505.49 322.60 L 505.66 322.46 L 505.89 322.51 L 506.08 322.20 L 506.13 322.19 L 506.29 322.10 L 506.32 322.10 L 506.49 321.58 L 506.65 320.78 L 507.11 320.71 L 507.13 320.62 L 507.26 319.60 L 507.70 319.56 L 507.72 319.46 L 507.80 319.40 L 507.91 318.47 L 508.39 318.42 L 508.40 318.29 L 508.50 318.23 L 508.61 317.62 L 508.79 317.60 L 508.80 317.50 L 508.88 316.48 L 508.90 316.46 L 508.94 316.43 L 509.14 316.43 L 509.17 316.32 L 509.24 316.25 L 509.46 316.15 L 509.50 316.15 L 509.67 316.10 L 509.96 316.13 L 510.00 316.09 L 510.04 316.06 L 510.09 316.03 L 510.23 314.98 L 510.39 314.96 L 510.41 314.87 L 510.49 313.79 L 510.58 313.40 L 510.60 313.26 L 510.69 312.73 L 510.73 311.81 L 510.91 311.80 L 510.94 311.75 L 511.02 311.57 L 511.15 311.56 L 511.89 311.53 L 512.25 311.51 L 520.30 311.55 L 520.38 311.34 L 520.46 311.19 L 520.60 310.46 L 520.90 310.45 L 520.92 310.38 L 520.98 309.46 L 521.17 309.45 L 521.19 309.36 L 522.95 309.27 L 523.05 308.94 L 523.94 308.77 L 524.04 308.74 L 524.14 307.72 L 525.21 307.43 L 525.66 307.18 L 525.77 306.41 L 526.16 306.41 L 526.40 305.98 L 526.79 305.32 L 527.50 304.92 L 538.26 304.92 L 538.91 304.91 L 538.94 304.91 L 539.84 304.76 L 539.88 304.68 L 540.20 304.62 L 540.57 303.76 L 540.57 303.76 L 540.61 303.72 L 541.09 303.54 L 542.19 302.97 L 542.26 302.91 L 542.38 302.91 L 542.55 302.66 L 542.59 302.63 L 542.66 302.58 L 543.17 302.58 L 543.58 302.58 L 543.81 302.58 L 543.84 302.54 L 544.30 301.67 L 544.65 301.59 L 544.67 301.52 L 544.71 301.44 L 544.76 301.23 L 556.44 301.07 L 556.46 301.04 L 556.50 301.03 L 556.72 300.92 L 556.90 300.81 L 557.93 300.32 L 558.19 300.22 L 558.93 299.85 L 559.57 299.79 L 560.04 299.64 L 560.17 298.36 L 560.76 298.14 L 560.98 298.07 L 561.06 297.15 L 562.79 296.26 L 562.80 296.26 L 562.90 295.85 L 563.23 295.81 L 563.23 295.81 L 563.25 295.70 L 563.31 295.59 L 563.46 295.50 L 563.65 294.87 L 565.44 294.54 L 565.67 294.39 L 565.83 294.04 L 565.86 294.01 L 565.89 293.78 L 573.85 292.98 L 574.11 292.39 L 574.26 292.37 L 574.31 291.98 L 575.06 291.82 L 575.22 291.40 L 575.36 291.40 L 575.45 290.54 L 575.70 290.34 L 575.74 290.31 L 576.07 290.26 L 576.15 289.55 L 576.43 289.46 L 576.49 288.91 L 576.73 288.85 L 576.91 288.53 L 577.04 287.90 L 577.34 287.78 L 577.37 287.15 L 577.76 288.58 L 577.79 288.58 L 577.85 287.77 L 577.93 287.77 L 577.97 287.70 L 578.42 287.62 L 579.06 287.28 L 579.38 287.46 L 580.43 287.43 L 580.46 287.43 L 580.62 287.41 L 580.69 287.40 L 580.81 287.28 L 580.94 287.18 L 581.08 287.03 L 581.40 286.83 L 581.70 286.81 L 582.64 286.72 L 582.68 286.71 L 583.63 286.60 L 584.03 286.54 L 592.08 286.51 L 592.48 286.46 L 592.69 286.46 L 592.78 286.46 L 592.80 286.46 L 593.00 286.44 L 593.10 286.41 L 593.33 286.26 L 593.48 286.24 L 594.00 286.23 L 594.27 286.15 L 594.73 286.12 L 594.85 286.09 L 595.01 286.02 L 595.21 285.93 L 595.90 285.89 L 595.97 285.88 L 596.98 285.72 L 597.14 285.47 L 597.34 285.37 L 597.83 285.22 L 598.06 285.14 L 598.18 285.50 L 598.28 285.49 L 598.42 285.35 L 598.85 285.02 L 599.30 284.93 L 599.71 284.86 L 599.75 284.82 L 599.80 284.57 L 628.92 284.52 L 629.11 284.46 L 645.86 284.38 L 645.95 284.74 L 646.09 283.30 L 646.11 283.30 L 646.15 283.33 L 646.75 282.78 L 646.81 282.75 L 647.55 282.81 L 648.31 282.75 L 648.57 282.70 L 649.04 282.65 L 649.66 282.49 L 649.68 282.49 L 649.76 282.47 L 650.00 282.42"/>
	</g>
	<g class="poloto_legend poloto_imgs poloto_line poloto0 poloto_stroke"><line x1="680" x2="730" y1="81.25" y2="81.25"/></g>
	<g class="poloto_legend poloto_imgs poloto_line poloto1 poloto_stroke"><line x1="680" x2="730" y1="131.25" y2="131.25"/></g>
	<g class="poloto_legend poloto_imgs poloto_line poloto2 poloto_stroke"><line x1="680" x2="730" y1="181.25" y2="181.25"/></g>
	<text class="poloto_legend poloto_text poloto_line poloto0" x="675" y="100">total</text>
	<text class="poloto_legend poloto_text poloto_line poloto1" x="675" y="150">code</text>
	<text class="poloto_legend poloto_text poloto_line poloto2" x="675" y="200">docs</text>
	<text class="poloto_text poloto_name poloto_title" x="400.00" y="37.50">Workspace lines over time</text>
	<text class="poloto_text poloto_name poloto_x" x="400.00" y="640">date (JST)</text>
	<text class="poloto_text poloto_name poloto_y" x="37.50" y="250.00" transform="rotate(-90,37.50,250.00)">lines</text>
	<text class="poloto_text poloto_ticks poloto_y">
		<tspan x="135.00" y="400.00">0</tspan>
		<tspan x="135.00" y="324.27">50K</tspan>
		<tspan x="135.00" y="248.53">100K</tspan>
		<tspan x="135.00" y="172.80">150K</tspan>
	</text>
	<g class="poloto_imgs poloto_ticks poloto_y" stroke="black">
		<line x1="150.00" x2="144.00" y1="400.00" y2="400.00"/>
		<line x1="150.00" x2="144.00" y1="324.27" y2="324.27"/>
		<line x1="150.00" x2="144.00" y1="248.53" y2="248.53"/>
		<line x1="150.00" x2="144.00" y1="172.80" y2="172.80"/>
	</g>
	<g class="poloto_text poloto_ticks poloto_x">
		<text x="217.31" y="430.00" text-anchor="end" transform="rotate(-90 217.31 430.00)">2026-04-24 12:06</text>
		<text x="320.93" y="430.00" text-anchor="end" transform="rotate(-90 320.93 430.00)">2026-04-30 07:00</text>
		<text x="424.55" y="430.00" text-anchor="end" transform="rotate(-90 424.55 430.00)">2026-05-06 01:53</text>
		<text x="528.16" y="430.00" text-anchor="end" transform="rotate(-90 528.16 430.00)">2026-05-11 20:46</text>
		<text x="631.78" y="430.00" text-anchor="end" transform="rotate(-90 631.78 430.00)">2026-05-17 15:40</text>
	</g>
	<g class="poloto_imgs poloto_ticks poloto_x" stroke="black">
		<line x1="217.31" x2="217.31" y1="400.00" y2="405.00"/>
		<line x1="320.93" x2="320.93" y1="400.00" y2="405.00"/>
		<line x1="424.55" x2="424.55" y1="400.00" y2="405.00"/>
		<line x1="528.16" x2="528.16" y1="400.00" y2="405.00"/>
		<line x1="631.78" x2="631.78" y1="400.00" y2="405.00"/>
	</g>
	<path class="poloto_imgs poloto_ticks poloto_x" stroke="black" style="stroke-dasharray:10.361573317871102;stroke-dashoffset:-67.31354659661883;" d=" M 150.00 400.00 L 650.00 400.00"/>
	<path class="poloto_imgs poloto_ticks poloto_y" stroke="black" style="stroke-dasharray:7.573309637288956;stroke-dashoffset:-0;" d=" M 150.00 400.00 L 150.00 100.00"/>
</svg>

