<svg class="poloto" width="800" height="680" viewBox="0 0 800 680" xmlns="http://www.w3.org/2000/svg">
	<style>
.poloto{
  stroke-linecap:round;
  stroke-linejoin:round;
  font-family:Roboto,sans-serif;
  font-size:16px;
}
.poloto_background{fill:AliceBlue;}
.poloto_scatter{stroke-width:7}
.poloto_line{stroke-width:2}
.poloto_text{fill: black;}
.poloto_name{font-size:24px;dominant-baseline:auto;text-anchor:middle;}
.poloto_where{dominant-baseline:middle;text-anchor:start}
.poloto_text.poloto_legend{font-size:20px;dominant-baseline:middle;text-anchor:start;}
.poloto_text.poloto_ticks.poloto_y{dominant-baseline:middle;text-anchor:end}
.poloto_text.poloto_ticks.poloto_x{dominant-baseline:auto;text-anchor:middle}
.poloto_imgs.poloto_ticks{stroke: black;stroke-width:3;fill:none;stroke-dasharray:none}
.poloto_grid{stroke:gray;stroke-width:0.5}

.poloto0.poloto_stroke{stroke:blue;}
.poloto1.poloto_stroke{stroke:red;}
.poloto2.poloto_stroke{stroke:green;}
.poloto3.poloto_stroke{stroke:gold;}
.poloto4.poloto_stroke{stroke:aqua;}
.poloto5.poloto_stroke{stroke:lime;}
.poloto6.poloto_stroke{stroke:orange;}
.poloto7.poloto_stroke{stroke:chocolate;}
.poloto0.poloto_fill{fill:blue;}
.poloto1.poloto_fill{fill:red;}
.poloto2.poloto_fill{fill:green;}
.poloto3.poloto_fill{fill:gold;}
.poloto4.poloto_fill{fill:aqua;}
.poloto5.poloto_fill{fill:lime;}
.poloto6.poloto_fill{fill:orange;}
.poloto7.poloto_fill{fill:chocolate;}
	</style>
	<circle r="1e5" class="poloto_background" fill="white"/>
	<g id="poloto_plot0" class="poloto_plot poloto_imgs poloto_line poloto0 poloto_stroke" fill="none" stroke="black">
		<path d=" M 150.00 364.99 L 150.03 364.96 L 150.05 364.94 L 150.06 364.94 L 150.09 364.94 L 150.13 361.14 L 150.27 360.69 L 150.59 360.67 L 151.06 360.35 L 151.30 358.42 L 151.78 358.30 L 151.87 358.20 L 151.93 358.16 L 152.50 357.22 L 153.55 356.45 L 153.89 353.47 L 153.97 353.47 L 154.61 353.35 L 155.35 353.34 L 155.35 353.34 L 155.36 353.34 L 165.29 353.34 L 165.36 353.34 L 165.48 353.31 L 165.54 353.28 L 165.91 353.10 L 166.09 353.06 L 166.51 352.78 L 166.57 352.66 L 166.69 352.39 L 166.81 352.35 L 166.85 352.35 L 166.95 352.28 L 167.06 352.28 L 167.17 352.28 L 167.45 351.84 L 167.69 351.56 L 167.74 351.57 L 167.85 351.40 L 168.64 352.09 L 168.66 352.08 L 168.76 351.97 L 169.21 351.46 L 169.57 350.85 L 169.98 350.59 L 170.06 350.54 L 170.07 350.54 L 170.15 350.30 L 170.31 350.30 L 170.50 350.22 L 170.89 349.99 L 170.92 349.63 L 170.99 349.63 L 171.08 349.45 L 171.31 349.45 L 171.33 349.45 L 171.56 348.94 L 171.65 348.91 L 171.74 348.87 L 171.83 348.66 L 173.04 348.39 L 173.33 348.33 L 174.00 347.97 L 174.15 347.97 L 174.25 347.96 L 174.31 347.70 L 174.77 346.19 L 174.98 346.16 L 175.22 345.66 L 175.33 345.61 L 175.61 345.19 L 175.73 345.04 L 175.90 344.77 L 176.05 344.53 L 176.59 341.06 L 176.60 340.97 L 176.63 340.76 L 176.81 339.09 L 186.02 338.97 L 186.97 337.07 L 187.01 337.02 L 188.13 336.72 L 188.23 336.72 L 188.33 336.34 L 188.61 336.15 L 188.73 335.82 L 188.78 335.54 L 188.92 335.04 L 189.25 335.03 L 189.26 334.70 L 189.39 334.32 L 189.51 334.32 L 189.65 333.90 L 189.83 333.60 L 189.90 333.45 L 189.93 333.44 L 190.09 333.12 L 190.11 333.11 L 190.29 332.78 L 190.32 332.77 L 190.58 331.21 L 190.62 331.21 L 190.72 330.94 L 190.83 330.93 L 190.98 330.93 L 191.05 330.89 L 191.56 330.60 L 191.58 330.61 L 191.67 329.91 L 191.90 329.90 L 192.11 328.85 L 192.17 328.76 L 192.27 328.75 L 192.32 328.71 L 192.44 327.90 L 193.01 321.08 L 193.08 320.75 L 193.27 320.72 L 193.33 320.64 L 193.38 320.62 L 193.47 320.44 L 193.56 319.66 L 193.77 319.50 L 193.91 319.49 L 194.03 319.15 L 194.09 319.14 L 194.61 318.89 L 194.90 318.69 L 194.98 318.39 L 195.22 318.37 L 195.25 318.37 L 195.27 318.34 L 195.42 316.70 L 195.54 316.61 L 195.97 314.95 L 196.04 314.47 L 196.12 314.46 L 196.23 314.29 L 196.25 314.16 L 196.30 314.08 L 196.34 314.03 L 196.40 314.03 L 196.45 313.94 L 196.62 312.59 L 196.75 312.39 L 196.87 312.00 L 197.03 311.97 L 197.22 311.84 L 197.40 310.89 L 197.54 309.56 L 197.80 309.48 L 197.81 308.99 L 197.97 308.83 L 210.82 308.83 L 211.07 308.81 L 211.67 308.11 L 211.80 308.10 L 211.90 308.10 L 211.92 307.92 L 212.14 307.70 L 212.29 307.67 L 212.38 307.54 L 212.47 307.45 L 212.52 307.40 L 212.75 307.33 L 213.22 307.25 L 213.33 306.89 L 213.42 306.80 L 213.53 306.78 L 214.13 306.60 L 214.21 306.50 L 214.25 306.50 L 214.29 306.36 L 214.42 306.30 L 214.52 306.17 L 214.95 305.28 L 215.57 305.14 L 215.80 305.08 L 216.49 304.86 L 216.81 300.57 L 216.93 300.48 L 217.07 300.06 L 217.27 299.50 L 217.58 299.34 L 218.02 299.32 L 218.60 299.31 L 218.69 299.12 L 219.11 298.92 L 219.39 298.61 L 219.48 298.49 L 219.64 298.44 L 219.77 298.06 L 221.29 297.64 L 222.74 297.64 L 235.68 297.60 L 235.77 297.41 L 235.84 297.29 L 236.24 297.11 L 237.45 295.63 L 237.50 295.53 L 237.67 295.15 L 238.26 295.06 L 238.55 294.06 L 238.97 294.05 L 239.07 294.03 L 239.17 293.35 L 239.92 289.45 L 240.01 289.44 L 240.17 289.41 L 240.33 289.36 L 240.41 288.94 L 240.83 287.47 L 240.98 287.19 L 241.05 287.17 L 241.14 286.49 L 241.33 285.54 L 241.40 284.52 L 241.59 284.07 L 242.16 279.00 L 242.21 278.49 L 242.26 278.49 L 242.35 278.40 L 242.49 278.27 L 242.54 278.22 L 242.60 278.17 L 242.87 276.95 L 242.93 276.10 L 243.26 275.92 L 243.45 274.65 L 243.58 273.84 L 244.58 262.03 L 244.69 262.00 L 282.72 261.43 L 282.76 261.43 L 297.29 261.27 L 298.09 260.95 L 298.25 260.95 L 298.46 260.86 L 298.53 260.71 L 298.62 260.66 L 304.92 260.58 L 305.75 258.33 L 306.06 258.13 L 306.23 257.30 L 310.15 257.14 L 310.18 256.91 L 310.42 256.89 L 311.59 255.47 L 311.66 255.22 L 311.81 255.13 L 312.22 255.03 L 312.27 254.99 L 312.44 254.57 L 312.62 254.45 L 312.64 254.13 L 324.86 253.70 L 324.95 252.49 L 325.44 252.22 L 325.44 250.20 L 325.53 249.89 L 325.63 249.40 L 325.77 248.00 L 325.97 247.26 L 326.15 246.39 L 326.31 246.38 L 326.37 245.72 L 326.62 245.66 L 327.46 242.40 L 327.80 242.05 L 327.86 241.84 L 327.93 241.84 L 327.97 241.61 L 328.09 240.81 L 328.43 240.43 L 328.49 240.38 L 328.70 237.50 L 328.78 237.49 L 328.81 237.18 L 328.89 236.95 L 328.94 236.95 L 328.99 236.52 L 329.25 234.96 L 329.37 234.52 L 329.52 234.46 L 329.62 230.31 L 329.67 229.97 L 329.93 227.60 L 330.01 227.42 L 330.06 227.41 L 330.13 227.41 L 330.17 227.07 L 330.21 227.08 L 330.22 227.08 L 330.36 222.88 L 330.41 222.52 L 330.54 222.50 L 330.63 222.42 L 330.91 222.30 L 331.24 222.14 L 331.26 222.14 L 331.35 222.09 L 331.66 222.01 L 331.81 222.01 L 331.96 222.01 L 332.11 220.19 L 332.22 219.75 L 332.65 219.74 L 332.69 219.45 L 332.74 219.45 L 332.78 219.14 L 333.06 216.49 L 333.11 216.43 L 333.32 216.41 L 352.11 216.34 L 353.18 216.20 L 353.21 216.20 L 353.43 216.20 L 353.44 216.20 L 353.58 215.67 L 353.68 215.65 L 353.77 215.39 L 353.91 215.33 L 353.94 215.29 L 353.99 215.27 L 354.19 214.98 L 354.60 214.71 L 354.86 213.86 L 355.15 213.05 L 355.16 213.01 L 355.21 212.26 L 355.24 212.23 L 355.80 211.78 L 355.81 211.73 L 355.90 211.13 L 356.14 211.06 L 356.29 211.01 L 356.33 209.93 L 356.34 209.88 L 356.40 210.90 L 356.45 210.27 L 356.47 210.25 L 356.61 208.82 L 356.62 208.78 L 356.91 208.66 L 357.72 208.64 L 357.90 208.59 L 357.96 208.57 L 358.00 208.39 L 358.05 208.39 L 358.16 207.68 L 371.01 206.31 L 371.03 206.12 L 371.14 205.99 L 371.17 205.73 L 371.24 193.77 L 371.38 188.87 L 371.40 188.84 L 371.64 188.75 L 371.69 188.75 L 371.73 188.18 L 371.94 188.13 L 372.50 186.97 L 372.51 186.94 L 372.65 186.59 L 372.70 186.60 L 372.73 186.02 L 373.20 185.34 L 373.21 185.31 L 373.91 185.05 L 374.00 184.44 L 374.25 184.45 L 374.54 182.91 L 374.61 182.30 L 374.66 181.81 L 374.79 181.21 L 375.16 181.00 L 375.22 180.85 L 375.38 180.72 L 375.56 180.72 L 376.10 180.72 L 376.16 180.72 L 376.28 180.69 L 376.29 180.69 L 376.47 180.70 L 376.88 180.67 L 377.30 180.45 L 377.36 180.45 L 377.45 180.36 L 377.57 180.19 L 377.90 180.19 L 378.44 179.98 L 378.62 179.50 L 378.91 175.38 L 380.09 178.86 L 380.35 178.85 L 380.54 178.83 L 380.83 178.83 L 380.93 178.76 L 381.22 178.56 L 381.69 178.28 L 381.75 178.09 L 381.84 178.01 L 381.89 178.03 L 381.94 177.97 L 382.30 177.71 L 390.82 177.71 L 390.89 177.71 L 391.42 177.70 L 391.48 177.68 L 391.59 177.16 L 391.69 176.86 L 391.71 176.86 L 392.00 176.81 L 392.07 176.79 L 393.81 176.01 L 394.02 175.95 L 394.17 175.93 L 394.20 175.93 L 394.74 175.74 L 394.93 175.83 L 394.96 175.83 L 395.25 175.77 L 395.57 174.15 L 395.61 174.13 L 395.87 173.95 L 395.98 173.95 L 396.08 173.95 L 396.30 173.77 L 396.78 173.11 L 396.87 173.08 L 396.95 172.90 L 397.15 172.12 L 397.61 171.32 L 398.03 167.53 L 398.11 167.06 L 398.54 166.88 L 398.62 166.78 L 398.68 166.60 L 398.73 165.99 L 398.87 164.90 L 398.91 164.94 L 398.98 164.92 L 399.22 164.92 L 399.59 164.51 L 399.82 164.44 L 400.08 164.42 L 400.20 164.41 L 400.46 164.40 L 400.89 164.40 L 401.32 164.38 L 401.65 164.38 L 401.72 164.37 L 401.81 164.36 L 401.81 164.22 L 402.06 164.15 L 402.13 164.13 L 402.24 163.97 L 402.93 163.94 L 402.95 163.61 L 403.14 163.60 L 403.95 163.61 L 404.49 163.41 L 404.89 163.16 L 404.90 163.03 L 404.93 163.03 L 416.86 162.81 L 416.90 162.80 L 417.03 162.79 L 417.10 162.60 L 417.14 162.57 L 417.15 162.56 L 417.66 162.51 L 417.77 161.83 L 417.92 161.67 L 418.18 160.32 L 418.34 160.30 L 418.54 159.73 L 418.66 159.80 L 418.71 159.80 L 418.77 159.14 L 418.92 158.69 L 418.94 158.21 L 418.99 158.15 L 419.12 158.11 L 419.21 157.88 L 419.31 160.47 L 419.46 160.42 L 419.75 159.39 L 419.88 159.13 L 419.99 158.92 L 420.72 157.44 L 421.35 156.72 L 422.11 155.35 L 422.30 155.29 L 422.51 155.29 L 422.75 155.23 L 427.13 154.84 L 427.49 154.80 L 469.04 153.76 L 599.85 153.52 L 600.28 153.10 L 600.58 153.04 L 600.88 153.04 L 601.34 152.24 L 601.49 151.85 L 601.61 151.13 L 601.82 149.05 L 602.12 149.47 L 602.36 149.02 L 602.42 149.01 L 602.62 148.88 L 602.67 148.88 L 602.88 148.12 L 603.07 146.90 L 603.67 145.60 L 603.69 145.49 L 603.86 143.95 L 604.42 140.12 L 604.43 139.99 L 604.54 139.90 L 604.68 138.54 L 605.29 136.70 L 605.30 136.53 L 605.43 136.44 L 605.57 135.53 L 605.80 134.81 L 605.82 134.68 L 605.92 133.28 L 605.93 133.24 L 605.99 132.85 L 606.25 130.36 L 606.28 130.22 L 606.37 130.07 L 606.64 129.74 L 606.70 129.73 L 606.92 129.25 L 607.28 129.31 L 607.34 129.25 L 607.38 129.21 L 607.45 129.18 L 607.63 127.71 L 607.82 126.52 L 607.85 126.41 L 607.96 124.92 L 608.07 123.47 L 608.10 123.28 L 608.21 121.58 L 608.26 120.24 L 608.49 119.33 L 608.52 119.27 L 608.63 118.98 L 608.79 118.96 L 609.73 118.92 L 610.20 118.88 L 620.42 118.94 L 620.52 118.68 L 620.62 118.45 L 620.80 117.45 L 621.18 117.19 L 621.21 117.09 L 621.28 115.76 L 621.52 114.48 L 621.55 114.37 L 623.78 114.28 L 623.92 113.56 L 625.04 113.34 L 625.17 113.29 L 625.30 111.79 L 626.65 110.39 L 627.23 109.85 L 627.37 108.76 L 627.86 106.88 L 628.17 106.34 L 628.67 105.23 L 629.56 104.67 L 643.24 104.66 L 644.06 104.53 L 644.10 104.56 L 645.24 104.34 L 645.30 104.23 L 645.70 104.14 L 646.16 102.92 L 646.17 102.92 L 646.22 102.87 L 646.83 101.47 L 648.23 100.67 L 648.32 100.60 L 648.47 100.59 L 648.68 100.22 L 648.74 100.12 L 648.82 100.05 L 649.47 100.00 L 650.00 100.00"/>
	</g>
	<g id="poloto_plot1" class="poloto_plot poloto_imgs poloto_line poloto1 poloto_stroke" fill="none" stroke="black">
		<path d=" M 150.00 379.20 L 150.03 379.18 L 150.05 379.16 L 150.06 379.16 L 150.09 379.16 L 150.13 378.51 L 150.27 378.49 L 150.59 378.47 L 151.06 378.22 L 151.30 378.11 L 151.78 378.14 L 151.87 378.09 L 151.93 378.09 L 152.50 378.04 L 153.55 377.92 L 153.89 375.35 L 153.97 375.35 L 154.61 375.29 L 155.35 375.28 L 155.35 375.28 L 155.36 375.28 L 165.29 375.28 L 165.36 375.28 L 165.48 375.27 L 165.54 375.24 L 165.91 375.23 L 166.09 375.23 L 166.51 375.23 L 166.57 375.23 L 166.69 375.21 L 166.81 375.21 L 166.85 375.21 L 166.95 375.18 L 167.06 375.18 L 167.17 375.18 L 167.45 375.03 L 167.69 375.03 L 167.74 375.03 L 167.85 375.03 L 168.64 376.00 L 168.66 376.00 L 168.76 375.99 L 169.21 375.84 L 169.57 375.68 L 169.98 375.61 L 170.06 375.56 L 170.07 375.56 L 170.15 375.56 L 170.31 375.56 L 170.50 375.50 L 170.89 375.44 L 170.92 375.44 L 170.99 375.44 L 171.08 375.42 L 171.31 375.42 L 171.33 375.42 L 171.56 375.41 L 171.65 375.41 L 171.74 375.41 L 171.83 375.41 L 173.04 375.29 L 173.33 375.28 L 174.00 375.23 L 174.15 375.23 L 174.25 375.23 L 174.31 375.23 L 174.77 375.15 L 174.98 375.15 L 175.22 375.06 L 175.33 375.05 L 175.61 374.84 L 175.73 374.77 L 175.90 374.77 L 176.05 374.76 L 176.59 371.76 L 176.60 371.71 L 176.63 371.71 L 176.81 371.41 L 186.02 371.41 L 186.97 370.12 L 187.01 370.12 L 188.13 370.12 L 188.23 370.12 L 188.33 369.98 L 188.61 369.96 L 188.73 369.96 L 188.78 369.96 L 188.92 369.96 L 189.25 369.96 L 189.26 369.68 L 189.39 369.67 L 189.51 369.67 L 189.65 369.64 L 189.83 369.63 L 189.90 369.63 L 189.93 369.63 L 190.09 369.63 L 190.11 369.63 L 190.29 369.63 L 190.32 369.63 L 190.58 368.36 L 190.62 368.36 L 190.72 368.20 L 190.83 368.20 L 190.98 368.20 L 191.05 368.19 L 191.56 368.18 L 191.58 368.18 L 191.67 368.10 L 191.90 368.10 L 192.11 367.37 L 192.17 367.28 L 192.27 367.28 L 192.32 367.28 L 192.44 367.26 L 193.01 361.89 L 193.08 361.94 L 193.27 361.94 L 193.33 361.94 L 193.38 361.93 L 193.47 361.93 L 193.56 361.85 L 193.77 361.85 L 193.91 361.85 L 194.03 361.85 L 194.09 361.85 L 194.61 361.84 L 194.90 361.83 L 194.98 361.70 L 195.22 361.70 L 195.25 361.70 L 195.27 361.70 L 195.42 361.34 L 195.54 361.24 L 195.97 359.97 L 196.04 359.97 L 196.12 359.97 L 196.23 359.99 L 196.25 359.99 L 196.30 359.99 L 196.34 359.99 L 196.40 359.99 L 196.45 359.99 L 196.62 359.96 L 196.75 359.96 L 196.87 359.94 L 197.03 359.94 L 197.22 359.94 L 197.40 359.46 L 197.54 359.30 L 197.80 359.30 L 197.81 359.30 L 197.97 359.30 L 210.82 359.30 L 211.07 359.29 L 211.67 359.20 L 211.80 359.19 L 211.90 359.19 L 211.92 359.19 L 212.14 359.19 L 212.29 359.19 L 212.38 359.19 L 212.47 359.19 L 212.52 359.19 L 212.75 359.19 L 213.22 359.21 L 213.33 359.21 L 213.42 359.21 L 213.53 359.21 L 214.13 359.11 L 214.21 359.06 L 214.25 359.06 L 214.29 358.99 L 214.42 358.99 L 214.52 358.99 L 214.95 358.50 L 215.57 358.50 L 215.80 358.50 L 216.49 358.50 L 216.81 355.21 L 216.93 355.21 L 217.07 355.21 L 217.27 355.20 L 217.58 355.20 L 218.02 355.20 L 218.60 355.20 L 218.69 355.20 L 219.11 355.12 L 219.39 354.98 L 219.48 354.98 L 219.64 354.98 L 219.77 354.97 L 221.29 354.76 L 222.74 354.76 L 235.68 354.76 L 235.77 354.76 L 235.84 354.76 L 236.24 354.76 L 237.45 353.72 L 237.50 353.69 L 237.67 353.58 L 238.26 353.57 L 238.55 353.33 L 238.97 353.33 L 239.07 353.33 L 239.17 353.33 L 239.92 350.44 L 240.01 350.44 L 240.17 350.44 L 240.33 350.44 L 240.41 350.26 L 240.83 349.91 L 240.98 349.91 L 241.05 349.91 L 241.14 349.38 L 241.33 348.85 L 241.40 348.85 L 241.59 348.84 L 242.16 344.54 L 242.21 344.54 L 242.26 344.54 L 242.35 344.54 L 242.49 344.54 L 242.54 344.54 L 242.60 344.54 L 242.87 344.54 L 242.93 344.44 L 243.26 344.42 L 243.45 344.36 L 243.58 343.85 L 244.58 335.29 L 244.69 335.29 L 282.72 335.29 L 282.76 335.29 L 297.29 335.29 L 298.09 335.16 L 298.25 335.16 L 298.46 335.16 L 298.53 335.16 L 298.62 335.16 L 304.92 335.09 L 305.75 335.01 L 306.06 335.01 L 306.23 334.98 L 310.15 334.91 L 310.18 334.80 L 310.42 334.80 L 311.59 333.64 L 311.66 333.64 L 311.81 333.64 L 312.22 333.64 L 312.27 333.64 L 312.44 333.64 L 312.62 333.64 L 312.64 333.64 L 324.86 333.62 L 324.95 333.41 L 325.44 333.41 L 325.44 332.01 L 325.53 332.01 L 325.63 332.01 L 325.77 331.88 L 325.97 331.88 L 326.15 331.82 L 326.31 331.82 L 326.37 331.82 L 326.62 331.81 L 327.46 329.43 L 327.80 329.43 L 327.86 329.42 L 327.93 329.42 L 327.97 329.42 L 328.09 329.38 L 328.43 329.08 L 328.49 329.04 L 328.70 326.91 L 328.78 326.90 L 328.81 326.90 L 328.89 326.87 L 328.94 326.87 L 328.99 326.87 L 329.25 325.71 L 329.37 325.69 L 329.52 325.66 L 329.62 322.05 L 329.67 322.05 L 329.93 320.02 L 330.01 320.02 L 330.06 320.02 L 330.13 320.02 L 330.17 320.02 L 330.21 320.02 L 330.22 320.02 L 330.36 316.26 L 330.41 316.25 L 330.54 316.24 L 330.63 316.24 L 330.91 316.16 L 331.24 316.06 L 331.26 316.06 L 331.35 316.04 L 331.66 315.98 L 331.81 315.98 L 331.96 315.98 L 332.11 314.36 L 332.22 314.36 L 332.65 314.35 L 332.69 314.35 L 332.74 314.35 L 332.78 314.35 L 333.06 312.03 L 333.11 312.03 L 333.32 312.02 L 352.11 312.02 L 353.18 312.00 L 353.21 312.00 L 353.43 312.00 L 353.44 312.00 L 353.58 312.00 L 353.68 312.00 L 353.77 311.88 L 353.91 311.88 L 353.94 311.88 L 353.99 311.88 L 354.19 311.67 L 354.60 311.54 L 354.86 311.41 L 355.15 310.75 L 355.16 310.75 L 355.21 310.59 L 355.24 310.57 L 355.80 310.17 L 355.81 310.17 L 355.90 310.11 L 356.14 310.11 L 356.29 310.07 L 356.33 309.11 L 356.34 309.11 L 356.40 310.06 L 356.45 310.00 L 356.47 309.99 L 356.61 308.70 L 356.62 308.70 L 356.91 308.65 L 357.72 308.65 L 357.90 308.65 L 357.96 308.65 L 358.00 308.65 L 358.05 308.65 L 358.16 308.57 L 371.01 307.50 L 371.03 307.50 L 371.14 307.49 L 371.17 307.26 L 371.24 295.84 L 371.38 291.59 L 371.40 291.59 L 371.64 291.51 L 371.69 291.51 L 371.73 291.49 L 371.94 291.49 L 372.50 290.45 L 372.51 290.45 L 372.65 290.40 L 372.70 290.40 L 372.73 290.31 L 373.20 289.69 L 373.21 289.69 L 373.91 289.56 L 374.00 289.52 L 374.25 289.53 L 374.54 288.13 L 374.61 287.99 L 374.66 287.86 L 374.79 287.33 L 375.16 287.20 L 375.22 287.09 L 375.38 287.09 L 375.56 287.09 L 376.10 287.09 L 376.16 287.09 L 376.28 287.09 L 376.29 287.09 L 376.47 287.10 L 376.88 287.10 L 377.30 286.96 L 377.36 286.96 L 377.45 286.94 L 377.57 286.94 L 377.90 286.94 L 378.44 286.94 L 378.62 286.81 L 378.91 283.12 L 380.09 286.61 L 380.35 286.59 L 380.54 286.58 L 380.83 286.58 L 380.93 286.54 L 381.22 286.52 L 381.69 286.31 L 381.75 286.31 L 381.84 286.31 L 381.89 286.31 L 381.94 286.31 L 382.30 286.10 L 390.82 286.10 L 390.89 286.11 L 391.42 286.09 L 391.48 286.09 L 391.59 286.06 L 391.69 285.80 L 391.71 285.80 L 392.00 285.77 L 392.07 285.77 L 393.81 285.56 L 394.02 285.56 L 394.17 285.56 L 394.20 285.56 L 394.74 285.41 L 394.93 285.41 L 394.96 285.41 L 395.25 285.40 L 395.57 284.53 L 395.61 284.53 L 395.87 284.38 L 395.98 284.38 L 396.08 284.38 L 396.30 284.38 L 396.78 284.37 L 396.87 284.35 L 396.95 284.26 L 397.15 284.12 L 397.61 283.98 L 398.03 280.50 L 398.11 280.39 L 398.54 280.22 L 398.62 280.18 L 398.68 280.06 L 398.73 279.81 L 398.87 278.77 L 398.91 278.82 L 398.98 278.79 L 399.22 278.79 L 399.59 278.65 L 399.82 278.59 L 400.08 278.58 L 400.20 278.56 L 400.46 278.55 L 400.89 278.55 L 401.32 278.54 L 401.65 278.54 L 401.72 278.53 L 401.81 278.53 L 401.81 278.52 L 402.06 278.52 L 402.13 278.51 L 402.24 278.38 L 402.93 278.37 L 402.95 278.37 L 403.14 278.35 L 403.95 278.35 L 404.49 278.18 L 404.89 278.03 L 404.90 278.03 L 404.93 278.03 L 416.86 278.02 L 416.90 278.02 L 417.03 278.02 L 417.10 278.02 L 417.14 278.00 L 417.15 278.00 L 417.66 278.00 L 417.77 277.99 L 417.92 277.97 L 418.18 277.94 L 418.34 277.94 L 418.54 277.86 L 418.66 277.86 L 418.71 277.86 L 418.77 277.86 L 418.92 277.55 L 418.94 277.55 L 418.99 277.55 L 419.12 277.55 L 419.21 277.55 L 419.31 277.62 L 419.46 277.62 L 419.75 277.61 L 419.88 277.61 L 419.99 277.61 L 420.72 276.59 L 421.35 276.31 L 422.11 275.58 L 422.30 275.58 L 422.51 275.58 L 422.75 275.58 L 427.13 275.49 L 427.49 275.49 L 469.04 275.36 L 599.85 275.17 L 600.28 275.11 L 600.58 275.10 L 600.88 275.10 L 601.34 274.63 L 601.49 274.63 L 601.61 274.63 L 601.82 272.92 L 602.12 273.24 L 602.36 273.22 L 602.42 273.22 L 602.62 273.20 L 602.67 273.20 L 602.88 273.20 L 603.07 273.12 L 603.67 272.04 L 603.69 272.04 L 603.86 271.94 L 604.42 268.44 L 604.43 268.44 L 604.54 268.43 L 604.68 268.38 L 605.29 266.75 L 605.30 266.75 L 605.43 266.75 L 605.57 266.71 L 605.80 266.11 L 605.82 266.11 L 605.92 266.10 L 605.93 266.10 L 605.99 265.77 L 606.25 263.45 L 606.28 263.45 L 606.37 263.45 L 606.64 263.26 L 606.70 263.26 L 606.92 262.88 L 607.28 262.88 L 607.34 262.88 L 607.38 262.88 L 607.45 262.88 L 607.63 262.86 L 607.82 261.82 L 607.85 261.82 L 607.96 261.82 L 608.07 261.02 L 608.10 261.02 L 608.21 260.18 L 608.26 260.13 L 608.49 259.30 L 608.52 259.30 L 608.63 259.30 L 608.79 259.29 L 609.73 259.29 L 610.20 259.28 L 620.42 259.28 L 620.52 259.28 L 620.62 259.28 L 620.80 259.28 L 621.18 259.06 L 621.21 259.06 L 621.28 258.99 L 621.52 257.83 L 621.55 257.83 L 623.78 257.85 L 623.92 257.63 L 625.04 257.63 L 625.17 257.62 L 625.30 257.54 L 626.65 256.58 L 627.23 256.40 L 627.37 256.34 L 627.86 254.53 L 628.17 254.53 L 628.67 254.38 L 629.56 254.38 L 643.24 254.37 L 644.06 254.26 L 644.10 254.28 L 645.24 254.28 L 645.30 254.28 L 645.70 254.28 L 646.16 254.25 L 646.17 254.25 L 646.22 254.25 L 646.83 253.19 L 648.23 253.16 L 648.32 253.16 L 648.47 253.16 L 648.68 253.11 L 648.74 253.08 L 648.82 253.08 L 649.47 253.03 L 650.00 253.03"/>
	</g>
	<g id="poloto_plot2" class="poloto_plot poloto_imgs poloto_line poloto2 poloto_stroke" fill="none" stroke="black">
		<path d=" M 150.00 390.67 L 150.03 390.66 L 150.05 390.66 L 150.06 390.66 L 150.09 390.66 L 150.13 388.27 L 150.27 387.94 L 150.59 387.94 L 151.06 387.92 L 151.30 386.49 L 151.78 386.37 L 151.87 386.32 L 151.93 386.29 L 152.50 385.65 L 153.55 385.15 L 153.89 385.05 L 153.97 385.06 L 154.61 385.02 L 155.35 385.02 L 155.35 385.02 L 155.36 385.02 L 165.29 385.02 L 165.36 385.01 L 165.48 384.99 L 165.54 384.99 L 165.91 384.85 L 166.09 384.81 L 166.51 384.57 L 166.57 384.47 L 166.69 384.26 L 166.81 384.23 L 166.85 384.23 L 166.95 384.19 L 167.06 384.19 L 167.17 384.19 L 167.45 383.95 L 167.69 383.73 L 167.74 383.73 L 167.85 383.61 L 168.64 383.32 L 168.66 383.32 L 168.76 383.23 L 169.21 382.91 L 169.57 382.52 L 169.98 382.36 L 170.06 382.36 L 170.07 382.36 L 170.15 382.15 L 170.31 382.15 L 170.50 382.12 L 170.89 381.96 L 170.92 381.68 L 170.99 381.68 L 171.08 381.54 L 171.31 381.54 L 171.33 381.54 L 171.56 381.12 L 171.65 381.10 L 171.74 381.06 L 171.83 380.87 L 173.04 380.75 L 173.33 380.71 L 174.00 380.42 L 174.15 380.42 L 174.25 380.40 L 174.31 380.19 L 174.77 379.02 L 174.98 379.00 L 175.22 378.65 L 175.33 378.62 L 175.61 378.46 L 175.73 378.41 L 175.90 378.15 L 176.05 377.95 L 176.59 377.95 L 176.60 377.92 L 176.63 377.75 L 176.81 376.63 L 186.02 376.51 L 186.97 376.17 L 187.01 376.12 L 188.13 375.84 L 188.23 375.84 L 188.33 375.63 L 188.61 375.49 L 188.73 375.23 L 188.78 375.02 L 188.92 374.60 L 189.25 374.59 L 189.26 374.59 L 189.39 374.30 L 189.51 374.29 L 189.65 373.98 L 189.83 373.74 L 189.90 373.61 L 189.93 373.60 L 190.09 373.32 L 190.11 373.32 L 190.29 373.06 L 190.32 373.05 L 190.58 372.96 L 190.62 372.96 L 190.72 372.86 L 190.83 372.85 L 190.98 372.85 L 191.05 372.83 L 191.56 372.57 L 191.58 372.58 L 191.67 372.07 L 191.90 372.06 L 192.11 371.90 L 192.17 371.90 L 192.27 371.89 L 192.32 371.85 L 192.44 371.15 L 193.01 370.57 L 193.08 370.25 L 193.27 370.22 L 193.33 370.14 L 193.38 370.12 L 193.47 369.98 L 193.56 369.42 L 193.77 369.34 L 193.91 369.32 L 194.03 369.05 L 194.09 369.04 L 194.61 368.83 L 194.90 368.69 L 194.98 368.56 L 195.22 368.55 L 195.25 368.55 L 195.27 368.52 L 195.42 367.52 L 195.54 367.51 L 195.97 367.37 L 196.04 366.97 L 196.12 366.97 L 196.23 366.80 L 196.25 366.71 L 196.30 366.64 L 196.34 366.60 L 196.40 366.60 L 196.45 366.52 L 196.62 365.39 L 196.75 365.28 L 196.87 364.94 L 197.03 364.92 L 197.22 364.81 L 197.40 364.46 L 197.54 363.49 L 197.80 363.41 L 197.81 363.00 L 197.97 362.89 L 210.82 362.90 L 211.07 362.90 L 211.67 362.44 L 211.80 362.44 L 211.90 362.44 L 211.92 362.32 L 212.14 362.12 L 212.29 362.08 L 212.38 361.96 L 212.47 361.88 L 212.52 361.84 L 212.75 361.77 L 213.22 361.87 L 213.33 361.56 L 213.42 361.48 L 213.53 361.47 L 214.13 361.41 L 214.21 361.36 L 214.25 361.36 L 214.29 361.30 L 214.42 361.24 L 214.52 361.13 L 214.95 360.84 L 215.57 360.72 L 215.80 360.66 L 216.49 360.48 L 216.81 360.02 L 216.93 359.95 L 217.07 359.59 L 217.27 359.13 L 217.58 359.01 L 218.02 359.00 L 218.60 358.98 L 218.69 358.82 L 219.11 358.70 L 219.39 358.56 L 219.48 358.44 L 219.64 358.40 L 219.77 358.09 L 221.29 357.94 L 222.74 357.94 L 235.68 357.91 L 235.77 357.74 L 235.84 357.63 L 236.24 357.46 L 237.45 357.16 L 237.50 357.11 L 237.67 356.90 L 238.26 356.81 L 238.55 356.22 L 238.97 356.21 L 239.07 356.19 L 239.17 355.61 L 239.92 355.06 L 240.01 355.06 L 240.17 355.03 L 240.33 354.98 L 240.41 354.78 L 240.83 353.87 L 240.98 353.64 L 241.05 353.63 L 241.14 353.53 L 241.33 353.18 L 241.40 352.27 L 241.59 351.90 L 242.16 351.69 L 242.21 351.23 L 242.26 351.23 L 242.35 351.15 L 242.49 351.03 L 242.54 350.99 L 242.60 350.95 L 242.87 349.89 L 242.93 349.27 L 243.26 349.15 L 243.45 348.10 L 243.58 347.90 L 244.58 346.24 L 244.69 346.21 L 282.72 345.73 L 282.76 345.73 L 297.29 345.59 L 298.09 345.42 L 298.25 345.42 L 298.46 345.33 L 298.53 345.20 L 298.62 345.17 L 304.92 345.15 L 305.75 343.25 L 306.06 343.09 L 306.23 342.43 L 310.15 342.35 L 310.18 342.28 L 310.42 342.27 L 311.59 342.16 L 311.66 341.94 L 311.81 341.86 L 312.22 341.76 L 312.27 341.73 L 312.44 341.37 L 312.62 341.26 L 312.64 340.97 L 324.86 340.62 L 324.95 339.75 L 325.44 339.53 L 325.44 339.19 L 325.53 338.94 L 325.63 338.54 L 325.77 337.49 L 325.97 336.92 L 326.15 336.18 L 326.31 336.17 L 326.37 335.60 L 326.62 335.56 L 327.46 335.02 L 327.80 334.77 L 327.86 334.61 L 327.93 334.61 L 327.97 334.42 L 328.09 333.77 L 328.43 333.71 L 328.49 333.70 L 328.70 333.28 L 328.78 333.28 L 328.81 333.04 L 328.89 332.89 L 328.94 332.88 L 328.99 332.55 L 329.25 332.34 L 329.37 332.01 L 329.52 331.99 L 329.62 331.81 L 329.67 331.56 L 329.93 331.42 L 330.01 331.27 L 330.06 331.27 L 330.13 331.27 L 330.17 331.00 L 330.21 331.01 L 330.22 331.01 L 330.36 330.92 L 330.41 330.63 L 330.54 330.62 L 330.63 330.55 L 330.91 330.53 L 331.24 330.50 L 331.26 330.50 L 331.35 330.48 L 331.66 330.48 L 331.81 330.48 L 331.96 330.48 L 332.11 330.43 L 332.22 330.09 L 332.65 330.08 L 332.69 329.88 L 332.74 329.88 L 332.78 329.64 L 333.06 329.56 L 333.11 329.51 L 333.32 329.51 L 352.11 329.44 L 353.18 329.35 L 353.21 329.35 L 353.43 329.34 L 353.44 329.35 L 353.58 328.94 L 353.68 328.92 L 353.77 328.81 L 353.91 328.75 L 353.94 328.71 L 353.99 328.69 L 354.19 328.65 L 354.60 328.57 L 354.86 328.02 L 355.15 327.99 L 355.16 327.95 L 355.21 327.49 L 355.24 327.49 L 355.80 327.49 L 355.81 327.44 L 355.90 327.02 L 356.14 326.96 L 356.29 326.95 L 356.33 326.94 L 356.34 326.89 L 356.40 326.86 L 356.45 326.42 L 356.47 326.41 L 356.61 326.41 L 356.62 326.38 L 356.91 326.34 L 357.72 326.32 L 357.90 326.28 L 357.96 326.27 L 358.00 326.13 L 358.05 326.13 L 358.16 325.64 L 371.01 325.49 L 371.03 325.35 L 371.14 325.25 L 371.17 325.24 L 371.24 324.82 L 371.38 324.72 L 371.40 324.69 L 371.64 324.69 L 371.69 324.69 L 371.73 324.27 L 371.94 324.22 L 372.50 324.21 L 372.51 324.18 L 372.65 323.96 L 372.70 323.96 L 372.73 323.58 L 373.20 323.58 L 373.21 323.56 L 373.91 323.46 L 374.00 323.00 L 374.25 323.00 L 374.54 323.00 L 374.61 322.66 L 374.66 322.40 L 374.79 322.39 L 375.16 322.33 L 375.22 322.31 L 375.38 322.21 L 375.56 322.21 L 376.10 322.21 L 376.16 322.21 L 376.28 322.18 L 376.29 322.18 L 376.47 322.18 L 376.88 322.15 L 377.30 322.10 L 377.36 322.10 L 377.45 322.05 L 377.57 321.93 L 377.90 321.93 L 378.44 321.78 L 378.62 321.52 L 378.91 321.50 L 380.09 321.22 L 380.35 321.22 L 380.54 321.21 L 380.83 321.20 L 380.93 321.18 L 381.22 321.04 L 381.69 321.02 L 381.75 320.90 L 381.84 320.84 L 381.89 320.85 L 381.94 320.80 L 382.30 320.78 L 390.82 320.78 L 390.89 320.78 L 391.42 320.78 L 391.48 320.76 L 391.59 320.38 L 391.69 320.36 L 391.71 320.36 L 392.00 320.35 L 392.07 320.33 L 393.81 319.77 L 394.02 319.71 L 394.17 319.69 L 394.20 319.69 L 394.74 319.68 L 394.93 319.76 L 394.96 319.75 L 395.25 319.72 L 395.57 319.18 L 395.61 319.17 L 395.87 319.15 L 395.98 319.15 L 396.08 319.15 L 396.30 319.04 L 396.78 318.56 L 396.87 318.56 L 396.95 318.48 L 397.15 318.04 L 397.61 317.55 L 398.03 317.58 L 398.11 317.32 L 398.54 317.32 L 398.62 317.29 L 398.68 317.26 L 398.73 317.01 L 398.87 317.00 L 398.91 317.00 L 398.98 317.00 L 399.22 317.00 L 399.59 316.79 L 399.82 316.77 L 400.08 316.77 L 400.20 316.77 L 400.46 316.77 L 400.89 316.77 L 401.32 316.77 L 401.65 316.77 L 401.72 316.76 L 401.81 316.76 L 401.81 316.67 L 402.06 316.60 L 402.13 316.60 L 402.24 316.59 L 402.93 316.58 L 402.95 316.33 L 403.14 316.33 L 403.95 316.34 L 404.49 316.33 L 404.89 316.28 L 404.90 316.17 L 404.93 316.17 L 416.86 316.00 L 416.90 316.00 L 417.03 315.99 L 417.10 315.83 L 417.14 315.83 L 417.15 315.82 L 417.66 315.77 L 417.77 315.26 L 417.92 315.15 L 418.18 314.14 L 418.34 314.13 L 418.54 313.69 L 418.66 313.74 L 418.71 313.74 L 418.77 313.19 L 418.92 313.09 L 418.94 312.71 L 418.99 312.65 L 419.12 312.62 L 419.21 312.43 L 419.31 314.70 L 419.46 314.66 L 419.75 313.75 L 419.88 313.55 L 419.99 313.34 L 420.72 312.98 L 421.35 312.60 L 422.11 312.07 L 422.30 312.01 L 422.51 312.01 L 422.75 311.96 L 427.13 311.69 L 427.49 311.66 L 469.04 310.96 L 599.85 310.93 L 600.28 310.61 L 600.58 310.56 L 600.88 310.56 L 601.34 310.27 L 601.49 309.94 L 601.61 309.31 L 601.82 309.15 L 602.12 309.20 L 602.36 308.84 L 602.42 308.84 L 602.62 308.72 L 602.67 308.72 L 602.88 308.12 L 603.07 307.18 L 603.67 307.09 L 603.69 307.00 L 603.86 305.80 L 604.42 305.75 L 604.43 305.63 L 604.54 305.56 L 604.68 304.47 L 605.29 304.42 L 605.30 304.26 L 605.43 304.19 L 605.57 303.47 L 605.80 303.45 L 605.82 303.33 L 605.92 302.14 L 605.93 302.11 L 605.99 302.08 L 606.25 302.08 L 606.28 301.95 L 606.37 301.87 L 606.64 301.76 L 606.70 301.75 L 606.92 301.69 L 607.28 301.73 L 607.34 301.68 L 607.38 301.65 L 607.45 301.61 L 607.63 300.38 L 607.82 300.36 L 607.85 300.25 L 607.96 298.99 L 608.07 298.53 L 608.10 298.36 L 608.21 297.75 L 608.26 296.67 L 608.49 296.66 L 608.52 296.60 L 608.63 296.38 L 608.79 296.38 L 609.73 296.34 L 610.20 296.32 L 620.42 296.36 L 620.52 296.12 L 620.62 295.94 L 620.80 295.09 L 621.18 295.08 L 621.21 294.99 L 621.28 293.91 L 621.52 293.90 L 621.55 293.80 L 623.78 293.69 L 623.92 293.30 L 625.04 293.11 L 625.17 293.07 L 625.30 291.87 L 626.65 291.53 L 627.23 291.25 L 627.37 290.34 L 627.86 290.34 L 628.17 289.84 L 628.67 289.07 L 629.56 288.60 L 643.24 288.60 L 644.06 288.58 L 644.10 288.58 L 645.24 288.41 L 645.30 288.31 L 645.70 288.24 L 646.16 287.24 L 646.17 287.24 L 646.22 287.19 L 646.83 286.98 L 648.23 286.31 L 648.32 286.24 L 648.47 286.24 L 648.68 285.95 L 648.74 285.91 L 648.82 285.86 L 649.47 285.86 L 650.00 285.86"/>
	</g>
	<g class="poloto_legend poloto_imgs poloto_line poloto0 poloto_stroke"><line x1="680" x2="730" y1="81.25" y2="81.25"/></g>
	<g class="poloto_legend poloto_imgs poloto_line poloto1 poloto_stroke"><line x1="680" x2="730" y1="131.25" y2="131.25"/></g>
	<g class="poloto_legend poloto_imgs poloto_line poloto2 poloto_stroke"><line x1="680" x2="730" y1="181.25" y2="181.25"/></g>
	<text class="poloto_legend poloto_text poloto_line poloto0" x="675" y="100">total</text>
	<text class="poloto_legend poloto_text poloto_line poloto1" x="675" y="150">code</text>
	<text class="poloto_legend poloto_text poloto_line poloto2" x="675" y="200">docs</text>
	<text class="poloto_text poloto_name poloto_title" x="400.00" y="37.50">Workspace lines over time</text>
	<text class="poloto_text poloto_name poloto_x" x="400.00" y="640">date (JST)</text>
	<text class="poloto_text poloto_name poloto_y" x="37.50" y="250.00" transform="rotate(-90,37.50,250.00)">lines</text>
	<text class="poloto_text poloto_ticks poloto_y">
		<tspan x="135.00" y="400.00">0</tspan>
		<tspan x="135.00" y="311.26">50K</tspan>
		<tspan x="135.00" y="222.53">100K</tspan>
		<tspan x="135.00" y="133.79">150K</tspan>
	</text>
	<g class="poloto_imgs poloto_ticks poloto_y" stroke="black">
		<line x1="150.00" x2="144.00" y1="400.00" y2="400.00"/>
		<line x1="150.00" x2="144.00" y1="311.26" y2="311.26"/>
		<line x1="150.00" x2="144.00" y1="222.53" y2="222.53"/>
		<line x1="150.00" x2="144.00" y1="133.79" y2="133.79"/>
	</g>
	<g class="poloto_text poloto_ticks poloto_x">
		<text x="235.51" y="430.00" text-anchor="end" transform="rotate(-90 235.51 430.00)">2026-04-24 12:06</text>
		<text x="367.14" y="430.00" text-anchor="end" transform="rotate(-90 367.14 430.00)">2026-04-30 07:00</text>
		<text x="498.78" y="430.00" text-anchor="end" transform="rotate(-90 498.78 430.00)">2026-05-06 01:53</text>
		<text x="630.41" y="430.00" text-anchor="end" transform="rotate(-90 630.41 430.00)">2026-05-11 20:46</text>
	</g>
	<g class="poloto_imgs poloto_ticks poloto_x" stroke="black">
		<line x1="235.51" x2="235.51" y1="400.00" y2="405.00"/>
		<line x1="367.14" x2="367.14" y1="400.00" y2="405.00"/>
		<line x1="498.78" x2="498.78" y1="400.00" y2="405.00"/>
		<line x1="630.41" x2="630.41" y1="400.00" y2="405.00"/>
	</g>
	<path class="poloto_imgs poloto_ticks poloto_x" stroke="black" style="stroke-dasharray:13.163083763020264;stroke-dashoffset:-85.51344714313745;" d=" M 150.00 400.00 L 650.00 400.00"/>
	<path class="poloto_imgs poloto_ticks poloto_y" stroke="black" style="stroke-dasharray:8.873534387903598;stroke-dashoffset:-0;" d=" M 150.00 400.00 L 150.00 100.00"/>
</svg>

