<svg class="poloto" width="800" height="680" viewBox="0 0 800 680" xmlns="http://www.w3.org/2000/svg">
	<style>
.poloto{
  stroke-linecap:round;
  stroke-linejoin:round;
  font-family:Roboto,sans-serif;
  font-size:16px;
}
.poloto_background{fill:AliceBlue;}
.poloto_scatter{stroke-width:7}
.poloto_line{stroke-width:2}
.poloto_text{fill: black;}
.poloto_name{font-size:24px;dominant-baseline:auto;text-anchor:middle;}
.poloto_where{dominant-baseline:middle;text-anchor:start}
.poloto_text.poloto_legend{font-size:20px;dominant-baseline:middle;text-anchor:start;}
.poloto_text.poloto_ticks.poloto_y{dominant-baseline:middle;text-anchor:end}
.poloto_text.poloto_ticks.poloto_x{dominant-baseline:auto;text-anchor:middle}
.poloto_imgs.poloto_ticks{stroke: black;stroke-width:3;fill:none;stroke-dasharray:none}
.poloto_grid{stroke:gray;stroke-width:0.5}

.poloto0.poloto_stroke{stroke:blue;}
.poloto1.poloto_stroke{stroke:red;}
.poloto2.poloto_stroke{stroke:green;}
.poloto3.poloto_stroke{stroke:gold;}
.poloto4.poloto_stroke{stroke:aqua;}
.poloto5.poloto_stroke{stroke:lime;}
.poloto6.poloto_stroke{stroke:orange;}
.poloto7.poloto_stroke{stroke:chocolate;}
.poloto0.poloto_fill{fill:blue;}
.poloto1.poloto_fill{fill:red;}
.poloto2.poloto_fill{fill:green;}
.poloto3.poloto_fill{fill:gold;}
.poloto4.poloto_fill{fill:aqua;}
.poloto5.poloto_fill{fill:lime;}
.poloto6.poloto_fill{fill:orange;}
.poloto7.poloto_fill{fill:chocolate;}
	</style>
	<circle r="1e5" class="poloto_background" fill="white"/>
	<g id="poloto_plot0" class="poloto_plot poloto_imgs poloto_line poloto0 poloto_stroke" fill="none" stroke="black">
		<path d=" M 150.00 363.23 L 150.04 363.20 L 150.05 363.18 L 150.07 363.18 L 150.10 363.18 L 150.13 359.19 L 150.28 358.71 L 150.62 358.69 L 151.13 358.36 L 151.38 356.33 L 151.89 356.21 L 151.98 356.10 L 152.05 356.05 L 152.65 355.07 L 153.77 354.26 L 154.12 351.13 L 154.21 351.13 L 154.89 351.01 L 155.67 350.99 L 155.68 350.99 L 155.68 350.99 L 166.21 350.99 L 166.28 350.99 L 166.42 350.96 L 166.47 350.93 L 166.88 350.74 L 167.06 350.70 L 167.50 350.41 L 167.57 350.28 L 167.69 350.00 L 167.83 349.95 L 167.87 349.95 L 167.98 349.88 L 168.09 349.88 L 168.21 349.88 L 168.50 349.42 L 168.76 349.13 L 168.81 349.13 L 168.93 348.96 L 169.77 349.68 L 169.78 349.67 L 169.89 349.56 L 170.37 349.02 L 170.75 348.38 L 171.18 348.10 L 171.27 348.05 L 171.28 348.05 L 171.37 347.80 L 171.53 347.80 L 171.74 347.71 L 172.15 347.47 L 172.18 347.10 L 172.25 347.10 L 172.35 346.90 L 172.59 346.90 L 172.62 346.90 L 172.86 346.37 L 172.96 346.34 L 173.05 346.30 L 173.15 346.08 L 174.43 345.79 L 174.74 345.73 L 175.45 345.35 L 175.60 345.36 L 175.71 345.34 L 175.78 345.07 L 176.27 343.48 L 176.49 343.45 L 176.74 342.92 L 176.86 342.87 L 177.16 342.43 L 177.29 342.27 L 177.46 341.99 L 177.63 341.74 L 178.19 338.09 L 178.21 338.00 L 178.24 337.78 L 178.43 336.03 L 188.19 335.90 L 189.20 333.90 L 189.24 333.85 L 190.43 333.54 L 190.53 333.53 L 190.64 333.14 L 190.94 332.94 L 191.07 332.60 L 191.12 332.30 L 191.27 331.77 L 191.62 331.77 L 191.63 331.41 L 191.76 331.02 L 191.90 331.01 L 192.05 330.57 L 192.24 330.26 L 192.31 330.10 L 192.34 330.10 L 192.51 329.75 L 192.53 329.74 L 192.72 329.40 L 192.75 329.39 L 193.03 327.74 L 193.08 327.74 L 193.17 327.47 L 193.29 327.46 L 193.45 327.46 L 193.52 327.42 L 194.07 327.11 L 194.08 327.12 L 194.19 326.39 L 194.43 326.37 L 194.65 325.27 L 194.72 325.17 L 194.82 325.17 L 194.87 325.12 L 195.00 324.27 L 195.61 317.11 L 195.68 316.77 L 195.89 316.73 L 195.95 316.65 L 196.00 316.62 L 196.10 316.44 L 196.19 315.62 L 196.41 315.46 L 196.56 315.44 L 196.68 315.08 L 196.75 315.07 L 197.31 314.80 L 197.60 314.60 L 197.69 314.28 L 197.95 314.27 L 197.98 314.27 L 198.00 314.24 L 198.16 312.51 L 198.29 312.41 L 198.74 310.68 L 198.82 310.17 L 198.90 310.16 L 199.02 309.97 L 199.04 309.84 L 199.09 309.76 L 199.13 309.71 L 199.20 309.70 L 199.25 309.61 L 199.44 308.20 L 199.57 307.99 L 199.70 307.57 L 199.87 307.54 L 200.07 307.41 L 200.26 306.40 L 200.40 305.01 L 200.69 304.93 L 200.69 304.41 L 200.86 304.24 L 214.49 304.24 L 214.75 304.23 L 215.39 303.49 L 215.53 303.47 L 215.63 303.47 L 215.65 303.29 L 215.89 303.06 L 216.05 303.02 L 216.14 302.88 L 216.24 302.79 L 216.29 302.74 L 216.54 302.67 L 217.03 302.58 L 217.15 302.20 L 217.25 302.11 L 217.36 302.09 L 218.00 301.90 L 218.08 301.79 L 218.13 301.79 L 218.17 301.65 L 218.31 301.59 L 218.41 301.45 L 218.87 300.51 L 219.53 300.37 L 219.77 300.31 L 220.50 300.07 L 220.84 295.57 L 220.96 295.48 L 221.11 295.03 L 221.33 294.44 L 221.66 294.28 L 222.12 294.26 L 222.74 294.25 L 222.83 294.05 L 223.28 293.84 L 223.57 293.51 L 223.67 293.38 L 223.84 293.33 L 223.98 292.93 L 225.59 292.49 L 227.13 292.49 L 240.85 292.45 L 240.94 292.25 L 241.02 292.13 L 241.44 291.93 L 242.73 290.38 L 242.78 290.28 L 242.96 289.88 L 243.59 289.78 L 243.89 288.73 L 244.34 288.72 L 244.45 288.70 L 244.55 287.98 L 245.34 283.89 L 245.44 283.88 L 245.60 283.85 L 245.78 283.79 L 245.86 283.35 L 246.31 281.81 L 246.47 281.52 L 246.54 281.50 L 246.64 280.78 L 246.84 279.78 L 246.92 278.71 L 247.12 278.24 L 247.72 272.91 L 247.77 272.38 L 247.83 272.38 L 247.92 272.28 L 248.07 272.14 L 248.13 272.10 L 248.18 272.04 L 248.47 270.76 L 248.54 269.86 L 248.88 269.68 L 249.09 268.34 L 249.22 267.50 L 250.28 255.09 L 250.41 255.05 L 290.73 254.46 L 290.77 254.46 L 306.18 254.29 L 307.02 253.95 L 307.19 253.95 L 307.42 253.86 L 307.49 253.70 L 307.58 253.66 L 314.27 253.57 L 315.15 251.21 L 315.47 251.00 L 315.65 250.13 L 319.81 249.95 L 319.84 249.71 L 320.10 249.69 L 321.34 248.20 L 321.42 247.93 L 321.57 247.84 L 322.01 247.74 L 322.06 247.70 L 322.24 247.25 L 322.43 247.13 L 322.46 246.80 L 335.41 246.34 L 335.51 245.07 L 336.02 244.79 L 336.03 242.66 L 336.12 242.34 L 336.23 241.82 L 336.37 240.35 L 336.59 239.57 L 336.77 238.67 L 336.94 238.66 L 337.01 237.96 L 337.27 237.90 L 338.17 234.47 L 338.53 234.10 L 338.59 233.89 L 338.66 233.88 L 338.71 233.64 L 338.84 232.80 L 339.20 232.40 L 339.25 232.35 L 339.48 229.33 L 339.56 229.32 L 339.60 228.99 L 339.68 228.75 L 339.74 228.74 L 339.78 228.29 L 340.07 226.66 L 340.19 226.20 L 340.35 226.14 L 340.46 221.77 L 340.51 221.42 L 340.79 218.93 L 340.87 218.74 L 340.92 218.73 L 340.99 218.72 L 341.04 218.37 L 341.08 218.39 L 341.10 218.38 L 341.24 213.97 L 341.29 213.59 L 341.43 213.57 L 341.53 213.49 L 341.82 213.37 L 342.18 213.20 L 342.19 213.20 L 342.29 213.15 L 342.62 213.06 L 342.78 213.06 L 342.93 213.06 L 343.10 211.14 L 343.21 210.68 L 343.67 210.67 L 343.71 210.37 L 343.77 210.37 L 343.81 210.04 L 344.11 207.26 L 344.16 207.20 L 344.38 207.18 L 364.30 207.10 L 365.44 206.96 L 365.47 206.96 L 365.70 206.95 L 365.72 206.96 L 365.86 206.40 L 365.97 206.38 L 366.07 206.11 L 366.21 206.04 L 366.25 206.00 L 366.30 205.98 L 366.51 205.67 L 366.94 205.39 L 367.22 204.50 L 367.52 203.65 L 367.53 203.61 L 367.59 202.81 L 367.62 202.78 L 368.22 202.31 L 368.23 202.26 L 368.32 201.63 L 368.58 201.56 L 368.74 201.50 L 368.77 200.37 L 368.79 200.32 L 368.86 201.39 L 368.90 200.73 L 368.93 200.70 L 369.07 199.20 L 369.08 199.16 L 369.40 199.03 L 370.25 199.01 L 370.45 198.96 L 370.51 198.95 L 370.55 198.75 L 370.60 198.75 L 370.72 198.00 L 384.34 196.57 L 384.36 196.37 L 384.48 196.23 L 384.51 195.96 L 384.59 183.39 L 384.74 178.25 L 384.76 178.22 L 385.01 178.12 L 385.07 178.12 L 385.11 177.53 L 385.33 177.47 L 385.92 176.25 L 385.93 176.23 L 386.08 175.85 L 386.14 175.86 L 386.17 175.26 L 386.66 174.54 L 386.68 174.51 L 387.42 174.24 L 387.51 173.60 L 387.78 173.61 L 388.09 171.99 L 388.16 171.35 L 388.22 170.83 L 388.36 170.21 L 388.74 169.98 L 388.81 169.83 L 388.98 169.69 L 389.16 169.69 L 389.74 169.69 L 389.80 169.69 L 389.94 169.66 L 389.95 169.66 L 390.13 169.67 L 390.56 169.64 L 391.01 169.41 L 391.08 169.40 L 391.17 169.31 L 391.30 169.14 L 391.64 169.14 L 392.22 168.91 L 392.41 168.41 L 392.72 164.08 L 393.97 167.74 L 394.25 167.72 L 394.45 167.71 L 394.76 167.70 L 394.86 167.63 L 395.17 167.43 L 395.66 167.13 L 395.73 166.93 L 395.82 166.85 L 395.88 166.86 L 395.93 166.80 L 396.32 166.53 L 405.34 166.53 L 405.43 166.53 L 405.99 166.52 L 406.04 166.50 L 406.17 165.95 L 406.27 165.63 L 406.29 165.63 L 406.60 165.59 L 406.67 165.56 L 408.52 164.74 L 408.74 164.67 L 408.90 164.66 L 408.93 164.65 L 409.51 164.46 L 409.70 164.56 L 409.74 164.55 L 410.05 164.50 L 410.38 162.78 L 410.42 162.77 L 410.71 162.58 L 410.82 162.58 L 410.93 162.58 L 411.16 162.39 L 411.66 161.69 L 411.76 161.67 L 411.85 161.48 L 412.06 160.66 L 412.55 159.81 L 412.99 155.83 L 413.08 155.34 L 413.54 155.15 L 413.61 155.05 L 413.69 154.86 L 413.73 154.22 L 413.89 153.07 L 413.93 153.12 L 414.00 153.10 L 414.26 153.09 L 414.65 152.67 L 414.89 152.59 L 415.17 152.57 L 415.30 152.56 L 415.57 152.54 L 416.03 152.54 L 416.48 152.53 L 416.83 152.53 L 416.91 152.52 L 417.00 152.50 L 417.00 152.36 L 417.27 152.28 L 417.35 152.27 L 417.45 152.09 L 418.19 152.07 L 418.21 151.72 L 418.41 151.71 L 419.27 151.72 L 419.85 151.51 L 420.27 151.25 L 420.28 151.11 L 420.31 151.11 L 432.96 150.87 L 433.00 150.87 L 433.14 150.85 L 433.21 150.65 L 433.26 150.63 L 433.27 150.62 L 433.80 150.57 L 433.92 149.84 L 434.09 149.68 L 434.35 148.26 L 434.53 148.25 L 434.74 147.64 L 434.87 147.72 L 434.92 147.71 L 434.99 147.02 L 435.15 146.55 L 435.17 146.05 L 435.22 145.98 L 435.36 145.94 L 435.45 145.70 L 435.56 148.42 L 435.71 148.37 L 436.02 147.29 L 436.16 147.02 L 436.28 146.79 L 437.06 145.24 L 437.72 144.48 L 438.52 143.04 L 438.73 142.98 L 438.95 142.98 L 439.20 142.91 L 443.85 142.50 L 444.23 142.47 L 488.28 141.37 L 626.99 141.12 L 627.44 140.68 L 627.76 140.62 L 628.08 140.62 L 628.56 139.77 L 628.73 139.37 L 628.85 138.61 L 629.07 136.42 L 629.40 136.87 L 629.65 136.40 L 629.71 136.39 L 629.93 136.25 L 629.97 136.25 L 630.20 135.45 L 630.41 134.16 L 631.04 132.80 L 631.06 132.69 L 631.24 131.07 L 631.83 127.05 L 631.85 126.91 L 631.96 126.82 L 632.11 125.38 L 632.75 123.45 L 632.77 123.27 L 632.91 123.18 L 633.06 122.23 L 633.30 121.47 L 633.32 121.33 L 633.42 119.86 L 633.44 119.83 L 633.50 119.41 L 633.77 116.79 L 633.80 116.65 L 633.90 116.49 L 634.19 116.14 L 634.25 116.13 L 634.48 115.64 L 634.87 115.69 L 634.93 115.63 L 634.98 115.59 L 635.05 115.55 L 635.24 114.02 L 635.44 112.76 L 635.47 112.65 L 635.59 111.08 L 635.71 109.55 L 635.73 109.36 L 635.86 107.57 L 635.91 106.16 L 636.15 105.21 L 636.19 105.14 L 636.30 104.85 L 636.47 104.82 L 637.47 104.78 L 637.96 104.74 L 648.80 104.80 L 648.91 104.53 L 649.01 104.29 L 649.20 103.24 L 649.60 102.96 L 649.64 102.86 L 649.71 101.47 L 649.97 100.12 L 650.00 100.00"/>
	</g>
	<g id="poloto_plot1" class="poloto_plot poloto_imgs poloto_line poloto1 poloto_stroke" fill="none" stroke="black">
		<path d=" M 150.00 378.15 L 150.04 378.13 L 150.05 378.12 L 150.07 378.12 L 150.10 378.12 L 150.13 377.43 L 150.28 377.40 L 150.62 377.39 L 151.13 377.13 L 151.38 377.01 L 151.89 377.04 L 151.98 376.99 L 152.05 376.99 L 152.65 376.94 L 153.77 376.81 L 154.12 374.11 L 154.21 374.11 L 154.89 374.04 L 155.67 374.03 L 155.68 374.03 L 155.68 374.03 L 166.21 374.03 L 166.28 374.03 L 166.42 374.03 L 166.47 373.99 L 166.88 373.98 L 167.06 373.98 L 167.50 373.98 L 167.57 373.98 L 167.69 373.96 L 167.83 373.96 L 167.87 373.96 L 167.98 373.93 L 168.09 373.93 L 168.21 373.93 L 168.50 373.78 L 168.76 373.78 L 168.81 373.78 L 168.93 373.78 L 169.77 374.79 L 169.78 374.79 L 169.89 374.78 L 170.37 374.63 L 170.75 374.46 L 171.18 374.38 L 171.27 374.33 L 171.28 374.33 L 171.37 374.33 L 171.53 374.33 L 171.74 374.26 L 172.15 374.20 L 172.18 374.20 L 172.25 374.20 L 172.35 374.18 L 172.59 374.18 L 172.62 374.18 L 172.86 374.17 L 172.96 374.17 L 173.05 374.17 L 173.15 374.17 L 174.43 374.05 L 174.74 374.04 L 175.45 373.99 L 175.60 373.99 L 175.71 373.99 L 175.78 373.99 L 176.27 373.90 L 176.49 373.90 L 176.74 373.81 L 176.86 373.79 L 177.16 373.58 L 177.29 373.50 L 177.46 373.50 L 177.63 373.49 L 178.19 370.34 L 178.21 370.28 L 178.24 370.28 L 178.43 369.98 L 188.19 369.98 L 189.20 368.61 L 189.24 368.61 L 190.43 368.61 L 190.53 368.61 L 190.64 368.47 L 190.94 368.45 L 191.07 368.45 L 191.12 368.45 L 191.27 368.45 L 191.62 368.45 L 191.63 368.15 L 191.76 368.14 L 191.90 368.14 L 192.05 368.11 L 192.24 368.10 L 192.31 368.10 L 192.34 368.10 L 192.51 368.10 L 192.53 368.10 L 192.72 368.10 L 192.75 368.10 L 193.03 366.76 L 193.08 366.76 L 193.17 366.60 L 193.29 366.60 L 193.45 366.60 L 193.52 366.59 L 194.07 366.58 L 194.08 366.58 L 194.19 366.50 L 194.43 366.50 L 194.65 365.73 L 194.72 365.64 L 194.82 365.64 L 194.87 365.64 L 195.00 365.62 L 195.61 359.97 L 195.68 360.02 L 195.89 360.02 L 195.95 360.02 L 196.00 360.01 L 196.10 360.01 L 196.19 359.94 L 196.41 359.94 L 196.56 359.94 L 196.68 359.93 L 196.75 359.93 L 197.31 359.92 L 197.60 359.91 L 197.69 359.77 L 197.95 359.77 L 197.98 359.77 L 198.00 359.77 L 198.16 359.39 L 198.29 359.29 L 198.74 357.95 L 198.82 357.95 L 198.90 357.95 L 199.02 357.97 L 199.04 357.97 L 199.09 357.97 L 199.13 357.97 L 199.20 357.97 L 199.25 357.97 L 199.44 357.95 L 199.57 357.95 L 199.70 357.93 L 199.87 357.93 L 200.07 357.92 L 200.26 357.42 L 200.40 357.25 L 200.69 357.25 L 200.69 357.25 L 200.86 357.25 L 214.49 357.25 L 214.75 357.24 L 215.39 357.15 L 215.53 357.14 L 215.63 357.14 L 215.65 357.14 L 215.89 357.14 L 216.05 357.14 L 216.14 357.14 L 216.24 357.14 L 216.29 357.13 L 216.54 357.13 L 217.03 357.16 L 217.15 357.16 L 217.25 357.16 L 217.36 357.16 L 218.00 357.05 L 218.08 357.00 L 218.13 357.00 L 218.17 356.93 L 218.31 356.93 L 218.41 356.92 L 218.87 356.41 L 219.53 356.41 L 219.77 356.41 L 220.50 356.41 L 220.84 352.96 L 220.96 352.95 L 221.11 352.95 L 221.33 352.95 L 221.66 352.95 L 222.12 352.95 L 222.74 352.95 L 222.83 352.95 L 223.28 352.86 L 223.57 352.72 L 223.67 352.72 L 223.84 352.72 L 223.98 352.70 L 225.59 352.48 L 227.13 352.48 L 240.85 352.48 L 240.94 352.48 L 241.02 352.48 L 241.44 352.48 L 242.73 351.39 L 242.78 351.36 L 242.96 351.25 L 243.59 351.24 L 243.89 350.98 L 244.34 350.98 L 244.45 350.98 L 244.55 350.98 L 245.34 347.95 L 245.44 347.95 L 245.60 347.95 L 245.78 347.95 L 245.86 347.75 L 246.31 347.39 L 246.47 347.39 L 246.54 347.39 L 246.64 346.83 L 246.84 346.27 L 246.92 346.27 L 247.12 346.26 L 247.72 341.75 L 247.77 341.75 L 247.83 341.75 L 247.92 341.75 L 248.07 341.75 L 248.13 341.75 L 248.18 341.75 L 248.47 341.75 L 248.54 341.65 L 248.88 341.63 L 249.09 341.57 L 249.22 341.02 L 250.28 332.03 L 250.41 332.03 L 290.73 332.03 L 290.77 332.03 L 306.18 332.03 L 307.02 331.90 L 307.19 331.90 L 307.42 331.90 L 307.49 331.90 L 307.58 331.90 L 314.27 331.83 L 315.15 331.74 L 315.47 331.74 L 315.65 331.71 L 319.81 331.63 L 319.84 331.52 L 320.10 331.52 L 321.34 330.30 L 321.42 330.30 L 321.57 330.30 L 322.01 330.30 L 322.06 330.30 L 322.24 330.30 L 322.43 330.30 L 322.46 330.30 L 335.41 330.28 L 335.51 330.06 L 336.02 330.06 L 336.03 328.59 L 336.12 328.59 L 336.23 328.59 L 336.37 328.46 L 336.59 328.46 L 336.77 328.40 L 336.94 328.40 L 337.01 328.40 L 337.27 328.38 L 338.17 325.88 L 338.53 325.88 L 338.59 325.87 L 338.66 325.87 L 338.71 325.87 L 338.84 325.83 L 339.20 325.52 L 339.25 325.47 L 339.48 323.23 L 339.56 323.22 L 339.60 323.22 L 339.68 323.19 L 339.74 323.19 L 339.78 323.19 L 340.07 321.97 L 340.19 321.95 L 340.35 321.93 L 340.46 318.13 L 340.51 318.13 L 340.79 316.00 L 340.87 316.00 L 340.92 315.99 L 340.99 315.99 L 341.04 315.99 L 341.08 315.99 L 341.10 315.99 L 341.24 312.04 L 341.29 312.04 L 341.43 312.03 L 341.53 312.03 L 341.82 311.95 L 342.18 311.84 L 342.19 311.84 L 342.29 311.82 L 342.62 311.75 L 342.78 311.75 L 342.93 311.75 L 343.10 310.05 L 343.21 310.05 L 343.67 310.04 L 343.71 310.04 L 343.77 310.04 L 343.81 310.04 L 344.11 307.61 L 344.16 307.61 L 344.38 307.59 L 364.30 307.59 L 365.44 307.57 L 365.47 307.57 L 365.70 307.57 L 365.72 307.57 L 365.86 307.57 L 365.97 307.57 L 366.07 307.45 L 366.21 307.45 L 366.25 307.45 L 366.30 307.45 L 366.51 307.23 L 366.94 307.09 L 367.22 306.95 L 367.52 306.26 L 367.53 306.26 L 367.59 306.09 L 367.62 306.07 L 368.22 305.65 L 368.23 305.65 L 368.32 305.59 L 368.58 305.59 L 368.74 305.55 L 368.77 304.54 L 368.79 304.54 L 368.86 305.53 L 368.90 305.48 L 368.93 305.46 L 369.07 304.11 L 369.08 304.11 L 369.40 304.06 L 370.25 304.06 L 370.45 304.06 L 370.51 304.06 L 370.55 304.06 L 370.60 304.06 L 370.72 303.97 L 384.34 302.84 L 384.36 302.84 L 384.48 302.84 L 384.51 302.59 L 384.59 290.60 L 384.74 286.14 L 384.76 286.14 L 385.01 286.05 L 385.07 286.05 L 385.11 286.03 L 385.33 286.03 L 385.92 284.94 L 385.93 284.94 L 386.08 284.88 L 386.14 284.88 L 386.17 284.79 L 386.66 284.14 L 386.68 284.14 L 387.42 284.01 L 387.51 283.96 L 387.78 283.97 L 388.09 282.50 L 388.16 282.35 L 388.22 282.22 L 388.36 281.66 L 388.74 281.53 L 388.81 281.41 L 388.98 281.41 L 389.16 281.41 L 389.74 281.41 L 389.80 281.41 L 389.94 281.41 L 389.95 281.41 L 390.13 281.42 L 390.56 281.42 L 391.01 281.27 L 391.08 281.27 L 391.17 281.25 L 391.30 281.25 L 391.64 281.25 L 392.22 281.25 L 392.41 281.12 L 392.72 277.25 L 393.97 280.90 L 394.25 280.88 L 394.45 280.87 L 394.76 280.87 L 394.86 280.83 L 395.17 280.81 L 395.66 280.59 L 395.73 280.59 L 395.82 280.59 L 395.88 280.59 L 395.93 280.59 L 396.32 280.37 L 405.34 280.37 L 405.43 280.38 L 405.99 280.36 L 406.04 280.36 L 406.17 280.33 L 406.27 280.06 L 406.29 280.05 L 406.60 280.02 L 406.67 280.02 L 408.52 279.80 L 408.74 279.80 L 408.90 279.80 L 408.93 279.80 L 409.51 279.64 L 409.70 279.64 L 409.74 279.64 L 410.05 279.64 L 410.38 278.72 L 410.42 278.72 L 410.71 278.57 L 410.82 278.57 L 410.93 278.57 L 411.16 278.57 L 411.66 278.55 L 411.76 278.53 L 411.85 278.44 L 412.06 278.29 L 412.55 278.14 L 412.99 274.49 L 413.08 274.37 L 413.54 274.20 L 413.61 274.15 L 413.69 274.02 L 413.73 273.77 L 413.89 272.67 L 413.93 272.72 L 414.00 272.70 L 414.26 272.69 L 414.65 272.54 L 414.89 272.49 L 415.17 272.47 L 415.30 272.46 L 415.57 272.44 L 416.03 272.44 L 416.48 272.43 L 416.83 272.43 L 416.91 272.42 L 417.00 272.42 L 417.00 272.41 L 417.27 272.41 L 417.35 272.40 L 417.45 272.26 L 418.19 272.25 L 418.21 272.25 L 418.41 272.23 L 419.27 272.23 L 419.85 272.05 L 420.27 271.89 L 420.28 271.89 L 420.31 271.89 L 432.96 271.89 L 433.00 271.89 L 433.14 271.89 L 433.21 271.89 L 433.26 271.87 L 433.27 271.87 L 433.80 271.87 L 433.92 271.86 L 434.09 271.83 L 434.35 271.80 L 434.53 271.80 L 434.74 271.72 L 434.87 271.72 L 434.92 271.72 L 434.99 271.72 L 435.15 271.39 L 435.17 271.39 L 435.22 271.39 L 435.36 271.39 L 435.45 271.39 L 435.56 271.47 L 435.71 271.47 L 436.02 271.45 L 436.16 271.45 L 436.28 271.45 L 437.06 270.38 L 437.72 270.09 L 438.52 269.32 L 438.73 269.32 L 438.95 269.32 L 439.20 269.32 L 443.85 269.23 L 444.23 269.22 L 488.28 269.09 L 626.99 268.89 L 627.44 268.83 L 627.76 268.82 L 628.08 268.82 L 628.56 268.32 L 628.73 268.32 L 628.85 268.32 L 629.07 266.52 L 629.40 266.87 L 629.65 266.84 L 629.71 266.84 L 629.93 266.83 L 629.97 266.83 L 630.20 266.82 L 630.41 266.74 L 631.04 265.60 L 631.06 265.60 L 631.24 265.50 L 631.83 261.82 L 631.85 261.82 L 631.96 261.81 L 632.11 261.76 L 632.75 260.04 L 632.77 260.04 L 632.91 260.04 L 633.06 260.00 L 633.30 259.37 L 633.32 259.37 L 633.42 259.37 L 633.44 259.37 L 633.50 259.02 L 633.77 256.58 L 633.80 256.58 L 633.90 256.58 L 634.19 256.38 L 634.25 256.38 L 634.48 255.98 L 634.87 255.98 L 634.93 255.98 L 634.98 255.98 L 635.05 255.98 L 635.24 255.97 L 635.44 254.87 L 635.47 254.87 L 635.59 254.86 L 635.71 254.03 L 635.73 254.03 L 635.86 253.15 L 635.91 253.10 L 636.15 252.23 L 636.19 252.23 L 636.30 252.23 L 636.47 252.21 L 637.47 252.21 L 637.96 252.20 L 648.80 252.20 L 648.91 252.20 L 649.01 252.20 L 649.20 252.20 L 649.60 251.97 L 649.64 251.97 L 649.71 251.90 L 649.97 250.68 L 650.00 250.68"/>
	</g>
	<g id="poloto_plot2" class="poloto_plot poloto_imgs poloto_line poloto2 poloto_stroke" fill="none" stroke="black">
		<path d=" M 150.00 390.20 L 150.04 390.19 L 150.05 390.19 L 150.07 390.19 L 150.10 390.19 L 150.13 387.68 L 150.28 387.34 L 150.62 387.33 L 151.13 387.31 L 151.38 385.81 L 151.89 385.68 L 151.98 385.64 L 152.05 385.60 L 152.65 384.92 L 153.77 384.40 L 154.12 384.30 L 154.21 384.31 L 154.89 384.26 L 155.67 384.26 L 155.68 384.26 L 155.68 384.26 L 166.21 384.26 L 166.28 384.26 L 166.42 384.24 L 166.47 384.24 L 166.88 384.09 L 167.06 384.04 L 167.50 383.80 L 167.57 383.69 L 167.69 383.47 L 167.83 383.44 L 167.87 383.44 L 167.98 383.40 L 168.09 383.40 L 168.21 383.40 L 168.50 383.15 L 168.76 382.91 L 168.81 382.92 L 168.93 382.78 L 169.77 382.48 L 169.78 382.48 L 169.89 382.38 L 170.37 382.05 L 170.75 381.64 L 171.18 381.47 L 171.27 381.47 L 171.28 381.48 L 171.37 381.25 L 171.53 381.25 L 171.74 381.22 L 172.15 381.05 L 172.18 380.76 L 172.25 380.76 L 172.35 380.61 L 172.59 380.61 L 172.62 380.61 L 172.86 380.17 L 172.96 380.15 L 173.05 380.11 L 173.15 379.90 L 174.43 379.78 L 174.74 379.74 L 175.45 379.43 L 175.60 379.44 L 175.71 379.42 L 175.78 379.19 L 176.27 377.96 L 176.49 377.95 L 176.74 377.58 L 176.86 377.54 L 177.16 377.37 L 177.29 377.32 L 177.46 377.05 L 177.63 376.84 L 178.19 376.84 L 178.21 376.81 L 178.24 376.64 L 178.43 375.45 L 188.19 375.33 L 189.20 374.97 L 189.24 374.92 L 190.43 374.63 L 190.53 374.62 L 190.64 374.40 L 190.94 374.26 L 191.07 373.98 L 191.12 373.76 L 191.27 373.32 L 191.62 373.31 L 191.63 373.31 L 191.76 373.00 L 191.90 373.00 L 192.05 372.68 L 192.24 372.42 L 192.31 372.28 L 192.34 372.28 L 192.51 371.98 L 192.53 371.97 L 192.72 371.70 L 192.75 371.69 L 193.03 371.60 L 193.08 371.60 L 193.17 371.50 L 193.29 371.48 L 193.45 371.48 L 193.52 371.46 L 194.07 371.19 L 194.08 371.20 L 194.19 370.67 L 194.43 370.65 L 194.65 370.48 L 194.72 370.48 L 194.82 370.48 L 194.87 370.44 L 195.00 369.70 L 195.61 369.09 L 195.68 368.75 L 195.89 368.72 L 195.95 368.64 L 196.00 368.62 L 196.10 368.47 L 196.19 367.89 L 196.41 367.80 L 196.56 367.78 L 196.68 367.49 L 196.75 367.48 L 197.31 367.26 L 197.60 367.11 L 197.69 366.98 L 197.95 366.97 L 197.98 366.97 L 198.00 366.94 L 198.16 365.89 L 198.29 365.88 L 198.74 365.73 L 198.82 365.31 L 198.90 365.30 L 199.02 365.13 L 199.04 365.03 L 199.09 364.96 L 199.13 364.92 L 199.20 364.92 L 199.25 364.83 L 199.44 363.65 L 199.57 363.53 L 199.70 363.18 L 199.87 363.16 L 200.07 363.04 L 200.26 362.67 L 200.40 361.65 L 200.69 361.57 L 200.69 361.13 L 200.86 361.03 L 214.49 361.03 L 214.75 361.03 L 215.39 360.55 L 215.53 360.55 L 215.63 360.55 L 215.65 360.42 L 215.89 360.21 L 216.05 360.18 L 216.14 360.05 L 216.24 359.96 L 216.29 359.92 L 216.54 359.85 L 217.03 359.95 L 217.15 359.63 L 217.25 359.54 L 217.36 359.53 L 218.00 359.47 L 218.08 359.41 L 218.13 359.41 L 218.17 359.35 L 218.31 359.29 L 218.41 359.18 L 218.87 358.87 L 219.53 358.74 L 219.77 358.68 L 220.50 358.49 L 220.84 358.01 L 220.96 357.93 L 221.11 357.56 L 221.33 357.08 L 221.66 356.95 L 222.12 356.94 L 222.74 356.92 L 222.83 356.74 L 223.28 356.63 L 223.57 356.47 L 223.67 356.35 L 223.84 356.30 L 223.98 355.98 L 225.59 355.83 L 227.13 355.83 L 240.85 355.79 L 240.94 355.62 L 241.02 355.50 L 241.44 355.32 L 242.73 355.00 L 242.78 354.96 L 242.96 354.73 L 243.59 354.64 L 243.89 354.02 L 244.34 354.01 L 244.45 353.98 L 244.55 353.37 L 245.34 352.80 L 245.44 352.80 L 245.60 352.76 L 245.78 352.71 L 245.86 352.50 L 246.31 351.55 L 246.47 351.31 L 246.54 351.29 L 246.64 351.19 L 246.84 350.82 L 246.92 349.87 L 247.12 349.48 L 247.72 349.26 L 247.77 348.78 L 247.83 348.78 L 247.92 348.69 L 248.07 348.56 L 248.13 348.53 L 248.18 348.48 L 248.47 347.37 L 248.54 346.72 L 248.88 346.59 L 249.09 345.49 L 249.22 345.28 L 250.28 343.54 L 250.41 343.51 L 290.73 343.00 L 290.77 343.00 L 306.18 342.86 L 307.02 342.67 L 307.19 342.67 L 307.42 342.58 L 307.49 342.44 L 307.58 342.41 L 314.27 342.39 L 315.15 340.40 L 315.47 340.22 L 315.65 339.53 L 319.81 339.45 L 319.84 339.38 L 320.10 339.37 L 321.34 339.25 L 321.42 339.02 L 321.57 338.93 L 322.01 338.83 L 322.06 338.80 L 322.24 338.42 L 322.43 338.30 L 322.46 338.00 L 335.41 337.63 L 335.51 336.72 L 336.02 336.48 L 336.03 336.14 L 336.12 335.86 L 336.23 335.45 L 336.37 334.35 L 336.59 333.74 L 336.77 332.97 L 336.94 332.96 L 337.01 332.36 L 337.27 332.32 L 338.17 331.75 L 338.53 331.49 L 338.59 331.32 L 338.66 331.32 L 338.71 331.12 L 338.84 330.44 L 339.20 330.37 L 339.25 330.37 L 339.48 329.93 L 339.56 329.93 L 339.60 329.67 L 339.68 329.51 L 339.74 329.51 L 339.78 329.15 L 340.07 328.94 L 340.19 328.59 L 340.35 328.57 L 340.46 328.38 L 340.51 328.11 L 340.79 327.97 L 340.87 327.81 L 340.92 327.81 L 340.99 327.81 L 341.04 327.53 L 341.08 327.54 L 341.10 327.54 L 341.24 327.44 L 341.29 327.14 L 341.43 327.14 L 341.53 327.06 L 341.82 327.04 L 342.18 327.00 L 342.19 327.00 L 342.29 326.99 L 342.62 326.98 L 342.78 326.98 L 342.93 326.98 L 343.10 326.93 L 343.21 326.57 L 343.67 326.57 L 343.71 326.35 L 343.77 326.35 L 343.81 326.10 L 344.11 326.02 L 344.16 325.96 L 344.38 325.96 L 364.30 325.89 L 365.44 325.79 L 365.47 325.79 L 365.70 325.79 L 365.72 325.79 L 365.86 325.36 L 365.97 325.35 L 366.07 325.23 L 366.21 325.16 L 366.25 325.12 L 366.30 325.10 L 366.51 325.06 L 366.94 324.97 L 367.22 324.40 L 367.52 324.37 L 367.53 324.33 L 367.59 323.85 L 367.62 323.84 L 368.22 323.84 L 368.23 323.79 L 368.32 323.35 L 368.58 323.29 L 368.74 323.27 L 368.77 323.26 L 368.79 323.21 L 368.86 323.18 L 368.90 322.72 L 368.93 322.71 L 369.07 322.71 L 369.08 322.67 L 369.40 322.63 L 370.25 322.61 L 370.45 322.57 L 370.51 322.56 L 370.55 322.42 L 370.60 322.42 L 370.72 321.90 L 384.34 321.74 L 384.36 321.59 L 384.48 321.49 L 384.51 321.47 L 384.59 321.04 L 384.74 320.93 L 384.76 320.90 L 385.01 320.90 L 385.07 320.90 L 385.11 320.46 L 385.33 320.41 L 385.92 320.39 L 385.93 320.37 L 386.08 320.13 L 386.14 320.14 L 386.17 319.73 L 386.66 319.73 L 386.68 319.71 L 387.42 319.61 L 387.51 319.13 L 387.78 319.13 L 388.09 319.13 L 388.16 318.77 L 388.22 318.50 L 388.36 318.48 L 388.74 318.42 L 388.81 318.40 L 388.98 318.29 L 389.16 318.29 L 389.74 318.29 L 389.80 318.29 L 389.94 318.27 L 389.95 318.27 L 390.13 318.27 L 390.56 318.23 L 391.01 318.19 L 391.08 318.18 L 391.17 318.13 L 391.30 318.01 L 391.64 318.01 L 392.22 317.85 L 392.41 317.58 L 392.72 317.55 L 393.97 317.25 L 394.25 317.25 L 394.45 317.25 L 394.76 317.24 L 394.86 317.22 L 395.17 317.07 L 395.66 317.05 L 395.73 316.92 L 395.82 316.85 L 395.88 316.87 L 395.93 316.82 L 396.32 316.80 L 405.34 316.79 L 405.43 316.79 L 405.99 316.79 L 406.04 316.78 L 406.17 316.37 L 406.27 316.35 L 406.29 316.36 L 406.60 316.35 L 406.67 316.32 L 408.52 315.73 L 408.74 315.67 L 408.90 315.65 L 408.93 315.65 L 409.51 315.64 L 409.70 315.72 L 409.74 315.72 L 410.05 315.68 L 410.38 315.11 L 410.42 315.10 L 410.71 315.09 L 410.82 315.09 L 410.93 315.09 L 411.16 314.97 L 411.66 314.46 L 411.76 314.46 L 411.85 314.38 L 412.06 313.92 L 412.55 313.41 L 412.99 313.44 L 413.08 313.16 L 413.54 313.16 L 413.61 313.13 L 413.69 313.10 L 413.73 312.83 L 413.89 312.83 L 413.93 312.83 L 414.00 312.83 L 414.26 312.83 L 414.65 312.61 L 414.89 312.58 L 415.17 312.58 L 415.30 312.58 L 415.57 312.58 L 416.03 312.58 L 416.48 312.58 L 416.83 312.58 L 416.91 312.58 L 417.00 312.57 L 417.00 312.47 L 417.27 312.41 L 417.35 312.41 L 417.45 312.39 L 418.19 312.39 L 418.21 312.12 L 418.41 312.12 L 419.27 312.13 L 419.85 312.12 L 420.27 312.06 L 420.28 311.96 L 420.31 311.96 L 432.96 311.78 L 433.00 311.77 L 433.14 311.76 L 433.21 311.60 L 433.26 311.60 L 433.27 311.59 L 433.80 311.54 L 433.92 311.00 L 434.09 310.88 L 434.35 309.82 L 434.53 309.81 L 434.74 309.35 L 434.87 309.41 L 434.92 309.40 L 434.99 308.82 L 435.15 308.72 L 435.17 308.32 L 435.22 308.26 L 435.36 308.22 L 435.45 308.02 L 435.56 310.41 L 435.71 310.37 L 436.02 309.41 L 436.16 309.20 L 436.28 308.99 L 437.06 308.61 L 437.72 308.20 L 438.52 307.64 L 438.73 307.58 L 438.95 307.58 L 439.20 307.53 L 443.85 307.25 L 444.23 307.22 L 488.28 306.48 L 626.99 306.45 L 627.44 306.12 L 627.76 306.06 L 628.08 306.06 L 628.56 305.76 L 628.73 305.40 L 628.85 304.75 L 629.07 304.58 L 629.40 304.64 L 629.65 304.25 L 629.71 304.25 L 629.93 304.13 L 629.97 304.13 L 630.20 303.49 L 630.41 302.52 L 631.04 302.42 L 631.06 302.32 L 631.24 301.06 L 631.83 301.01 L 631.85 300.89 L 631.96 300.81 L 632.11 299.67 L 632.75 299.61 L 632.77 299.45 L 632.91 299.37 L 633.06 298.62 L 633.30 298.59 L 633.32 298.47 L 633.42 297.22 L 633.44 297.19 L 633.50 297.15 L 633.77 297.15 L 633.80 297.02 L 633.90 296.93 L 634.19 296.81 L 634.25 296.81 L 634.48 296.74 L 634.87 296.79 L 634.93 296.73 L 634.98 296.71 L 635.05 296.66 L 635.24 295.37 L 635.44 295.34 L 635.47 295.23 L 635.59 293.90 L 635.71 293.43 L 635.73 293.25 L 635.86 292.60 L 635.91 291.48 L 636.15 291.46 L 636.19 291.40 L 636.30 291.17 L 636.47 291.17 L 637.47 291.13 L 637.96 291.10 L 648.80 291.15 L 648.91 290.90 L 649.01 290.71 L 649.20 289.81 L 649.60 289.80 L 649.64 289.71 L 649.71 288.58 L 649.97 288.57 L 650.00 288.46"/>
	</g>
	<g class="poloto_legend poloto_imgs poloto_line poloto0 poloto_stroke"><line x1="680" x2="730" y1="81.25" y2="81.25"/></g>
	<g class="poloto_legend poloto_imgs poloto_line poloto1 poloto_stroke"><line x1="680" x2="730" y1="131.25" y2="131.25"/></g>
	<g class="poloto_legend poloto_imgs poloto_line poloto2 poloto_stroke"><line x1="680" x2="730" y1="181.25" y2="181.25"/></g>
	<text class="poloto_legend poloto_text poloto_line poloto0" x="675" y="100">total</text>
	<text class="poloto_legend poloto_text poloto_line poloto1" x="675" y="150">code</text>
	<text class="poloto_legend poloto_text poloto_line poloto2" x="675" y="200">docs</text>
	<text class="poloto_text poloto_name poloto_title" x="400.00" y="37.50">Workspace lines over time</text>
	<text class="poloto_text poloto_name poloto_x" x="400.00" y="640">date (JST)</text>
	<text class="poloto_text poloto_name poloto_y" x="37.50" y="250.00" transform="rotate(-90,37.50,250.00)">lines</text>
	<text class="poloto_text poloto_ticks poloto_y">
		<tspan x="135.00" y="400.00">0</tspan>
		<tspan x="135.00" y="306.80">50K</tspan>
		<tspan x="135.00" y="213.60">100K</tspan>
		<tspan x="135.00" y="120.40">150K</tspan>
	</text>
	<g class="poloto_imgs poloto_ticks poloto_y" stroke="black">
		<line x1="150.00" x2="144.00" y1="400.00" y2="400.00"/>
		<line x1="150.00" x2="144.00" y1="306.80" y2="306.80"/>
		<line x1="150.00" x2="144.00" y1="213.60" y2="213.60"/>
		<line x1="150.00" x2="144.00" y1="120.40" y2="120.40"/>
	</g>
	<g class="poloto_text poloto_ticks poloto_x">
		<text x="184.84" y="430.00" text-anchor="end" transform="rotate(-90 184.84 430.00)">2026-04-22 04:33</text>
		<text x="240.67" y="430.00" text-anchor="end" transform="rotate(-90 240.67 430.00)">2026-04-24 12:06</text>
		<text x="296.50" y="430.00" text-anchor="end" transform="rotate(-90 296.50 430.00)">2026-04-26 19:40</text>
		<text x="352.33" y="430.00" text-anchor="end" transform="rotate(-90 352.33 430.00)">2026-04-29 03:13</text>
		<text x="408.16" y="430.00" text-anchor="end" transform="rotate(-90 408.16 430.00)">2026-05-01 10:46</text>
		<text x="463.99" y="430.00" text-anchor="end" transform="rotate(-90 463.99 430.00)">2026-05-03 18:20</text>
		<text x="519.82" y="430.00" text-anchor="end" transform="rotate(-90 519.82 430.00)">2026-05-06 01:53</text>
		<text x="575.65" y="430.00" text-anchor="end" transform="rotate(-90 575.65 430.00)">2026-05-08 09:26</text>
		<text x="631.47" y="430.00" text-anchor="end" transform="rotate(-90 631.47 430.00)">2026-05-10 17:00</text>
	</g>
	<g class="poloto_imgs poloto_ticks poloto_x" stroke="black">
		<line x1="184.84" x2="184.84" y1="400.00" y2="405.00"/>
		<line x1="240.67" x2="240.67" y1="400.00" y2="405.00"/>
		<line x1="296.50" x2="296.50" y1="400.00" y2="405.00"/>
		<line x1="352.33" x2="352.33" y1="400.00" y2="405.00"/>
		<line x1="408.16" x2="408.16" y1="400.00" y2="405.00"/>
		<line x1="463.99" x2="463.99" y1="400.00" y2="405.00"/>
		<line x1="519.82" x2="519.82" y1="400.00" y2="405.00"/>
		<line x1="575.65" x2="575.65" y1="400.00" y2="405.00"/>
		<line x1="631.47" x2="631.47" y1="400.00" y2="405.00"/>
	</g>
	<path class="poloto_imgs poloto_ticks poloto_x" stroke="black" style="stroke-dasharray:6.978604714522031;stroke-dashoffset:-34.843615051184315;" d=" M 150.00 400.00 L 650.00 400.00"/>
	<path class="poloto_imgs poloto_ticks poloto_y" stroke="black" style="stroke-dasharray:9.319896114224646;stroke-dashoffset:-0;" d=" M 150.00 400.00 L 150.00 100.00"/>
</svg>

