<svg class="poloto" width="800" height="680" viewBox="0 0 800 680" xmlns="http://www.w3.org/2000/svg">
	<style>
.poloto{
  stroke-linecap:round;
  stroke-linejoin:round;
  font-family:Roboto,sans-serif;
  font-size:16px;
}
.poloto_background{fill:AliceBlue;}
.poloto_scatter{stroke-width:7}
.poloto_line{stroke-width:2}
.poloto_text{fill: black;}
.poloto_name{font-size:24px;dominant-baseline:auto;text-anchor:middle;}
.poloto_where{dominant-baseline:middle;text-anchor:start}
.poloto_text.poloto_legend{font-size:20px;dominant-baseline:middle;text-anchor:start;}
.poloto_text.poloto_ticks.poloto_y{dominant-baseline:middle;text-anchor:end}
.poloto_text.poloto_ticks.poloto_x{dominant-baseline:auto;text-anchor:middle}
.poloto_imgs.poloto_ticks{stroke: black;stroke-width:3;fill:none;stroke-dasharray:none}
.poloto_grid{stroke:gray;stroke-width:0.5}

.poloto0.poloto_stroke{stroke:blue;}
.poloto1.poloto_stroke{stroke:red;}
.poloto2.poloto_stroke{stroke:green;}
.poloto3.poloto_stroke{stroke:gold;}
.poloto4.poloto_stroke{stroke:aqua;}
.poloto5.poloto_stroke{stroke:lime;}
.poloto6.poloto_stroke{stroke:orange;}
.poloto7.poloto_stroke{stroke:chocolate;}
.poloto0.poloto_fill{fill:blue;}
.poloto1.poloto_fill{fill:red;}
.poloto2.poloto_fill{fill:green;}
.poloto3.poloto_fill{fill:gold;}
.poloto4.poloto_fill{fill:aqua;}
.poloto5.poloto_fill{fill:lime;}
.poloto6.poloto_fill{fill:orange;}
.poloto7.poloto_fill{fill:chocolate;}
	</style>
	<circle r="1e5" class="poloto_background" fill="white"/>
	<g id="poloto_plot0" class="poloto_plot poloto_imgs poloto_line poloto0 poloto_stroke" fill="none" stroke="black">
		<path d=" M 150.00 370.98 L 150.03 370.95 L 150.04 370.94 L 150.05 370.94 L 150.07 370.94 L 150.10 367.79 L 150.20 367.41 L 150.44 367.39 L 150.80 367.13 L 150.99 365.53 L 151.35 365.43 L 151.42 365.35 L 151.46 365.31 L 151.89 364.53 L 152.69 363.90 L 152.94 361.42 L 153.01 361.43 L 153.49 361.33 L 154.05 361.32 L 154.05 361.32 L 154.05 361.32 L 161.57 361.32 L 161.62 361.31 L 161.72 361.29 L 161.76 361.27 L 162.04 361.12 L 162.17 361.08 L 162.49 360.85 L 162.54 360.75 L 162.63 360.53 L 162.72 360.50 L 162.75 360.49 L 162.83 360.44 L 162.91 360.44 L 162.99 360.44 L 163.20 360.07 L 163.39 359.85 L 163.42 359.85 L 163.51 359.71 L 164.11 360.28 L 164.12 360.28 L 164.20 360.18 L 164.54 359.76 L 164.81 359.26 L 165.12 359.03 L 165.18 358.99 L 165.19 359.00 L 165.25 358.80 L 165.37 358.80 L 165.52 358.73 L 165.81 358.54 L 165.83 358.24 L 165.88 358.24 L 165.95 358.09 L 166.12 358.09 L 166.14 358.09 L 166.32 357.67 L 166.39 357.64 L 166.45 357.61 L 166.52 357.44 L 167.43 357.21 L 167.65 357.17 L 168.16 356.87 L 168.27 356.87 L 168.35 356.85 L 168.40 356.64 L 168.75 355.39 L 168.90 355.36 L 169.08 354.95 L 169.17 354.91 L 169.38 354.56 L 169.48 354.44 L 169.60 354.21 L 169.72 354.01 L 170.12 351.13 L 170.13 351.06 L 170.15 350.89 L 170.29 349.51 L 177.26 349.41 L 177.98 347.83 L 178.01 347.79 L 178.86 347.54 L 178.93 347.54 L 179.01 347.22 L 179.22 347.07 L 179.31 346.80 L 179.35 346.56 L 179.46 346.15 L 179.71 346.14 L 179.71 345.86 L 179.81 345.55 L 179.90 345.55 L 180.01 345.20 L 180.15 344.95 L 180.20 344.83 L 180.22 344.82 L 180.34 344.55 L 180.36 344.55 L 180.49 344.27 L 180.51 344.27 L 180.71 342.97 L 180.74 342.97 L 180.81 342.75 L 180.90 342.74 L 181.01 342.74 L 181.06 342.71 L 181.46 342.47 L 181.46 342.47 L 181.54 341.90 L 181.71 341.88 L 181.87 341.01 L 181.92 340.94 L 181.99 340.93 L 182.03 340.90 L 182.12 340.23 L 182.55 334.57 L 182.60 334.30 L 182.75 334.28 L 182.80 334.21 L 182.83 334.19 L 182.90 334.04 L 182.97 333.40 L 183.12 333.27 L 183.23 333.25 L 183.32 332.97 L 183.37 332.96 L 183.76 332.75 L 183.98 332.59 L 184.04 332.34 L 184.22 332.33 L 184.24 332.33 L 184.26 332.30 L 184.37 330.94 L 184.47 330.87 L 184.79 329.49 L 184.84 329.10 L 184.90 329.09 L 184.99 328.94 L 185.00 328.83 L 185.04 328.77 L 185.07 328.73 L 185.11 328.73 L 185.16 328.66 L 185.28 327.54 L 185.38 327.37 L 185.47 327.04 L 185.60 327.02 L 185.74 326.91 L 185.88 326.12 L 185.97 325.02 L 186.18 324.96 L 186.18 324.55 L 186.30 324.41 L 196.03 324.42 L 196.22 324.40 L 196.67 323.82 L 196.77 323.81 L 196.85 323.81 L 196.86 323.66 L 197.03 323.48 L 197.14 323.45 L 197.21 323.34 L 197.28 323.27 L 197.32 323.23 L 197.49 323.17 L 197.84 323.11 L 197.93 322.81 L 198.00 322.73 L 198.08 322.72 L 198.53 322.57 L 198.59 322.48 L 198.63 322.48 L 198.65 322.37 L 198.75 322.32 L 198.83 322.21 L 199.16 321.47 L 199.63 321.36 L 199.80 321.31 L 200.32 321.12 L 200.56 317.57 L 200.65 317.50 L 200.76 317.15 L 200.91 316.68 L 201.15 316.55 L 201.48 316.54 L 201.92 316.52 L 201.98 316.37 L 202.31 316.20 L 202.51 315.95 L 202.58 315.84 L 202.70 315.80 L 202.80 315.49 L 203.95 315.14 L 205.05 315.14 L 214.84 315.10 L 214.91 314.95 L 214.96 314.85 L 215.27 314.70 L 216.18 313.47 L 216.22 313.39 L 216.35 313.08 L 216.80 313.00 L 217.01 312.17 L 217.34 312.16 L 217.41 312.15 L 217.48 311.58 L 218.05 308.35 L 218.12 308.34 L 218.24 308.32 L 218.36 308.28 L 218.42 307.92 L 218.74 306.71 L 218.85 306.48 L 218.91 306.46 L 218.98 305.90 L 219.12 305.11 L 219.18 304.26 L 219.32 303.89 L 219.74 299.69 L 219.78 299.26 L 219.82 299.26 L 219.89 299.19 L 219.99 299.08 L 220.04 299.04 L 220.08 299.00 L 220.28 297.99 L 220.33 297.28 L 220.58 297.14 L 220.73 296.08 L 220.82 295.41 L 221.58 285.62 L 221.67 285.59 L 250.45 285.12 L 250.47 285.12 L 261.47 284.99 L 262.07 284.72 L 262.19 284.72 L 262.36 284.64 L 262.41 284.52 L 262.47 284.49 L 267.24 284.42 L 267.87 282.55 L 268.11 282.39 L 268.23 281.70 L 271.20 281.56 L 271.22 281.37 L 271.41 281.36 L 272.29 280.18 L 272.35 279.97 L 272.46 279.90 L 272.77 279.81 L 272.81 279.78 L 272.93 279.43 L 273.07 279.33 L 273.09 279.07 L 282.33 278.71 L 282.40 277.71 L 282.77 277.49 L 282.78 275.81 L 282.84 275.56 L 282.92 275.15 L 283.02 273.99 L 283.18 273.37 L 283.31 272.65 L 283.43 272.65 L 283.48 272.10 L 283.66 272.05 L 284.30 269.34 L 284.56 269.05 L 284.60 268.88 L 284.66 268.88 L 284.69 268.69 L 284.78 268.02 L 285.04 267.71 L 285.08 267.67 L 285.24 265.28 L 285.30 265.28 L 285.32 265.02 L 285.38 264.83 L 285.42 264.82 L 285.46 264.47 L 285.66 263.18 L 285.75 262.81 L 285.86 262.76 L 285.94 259.32 L 285.97 259.04 L 286.17 257.08 L 286.23 256.92 L 286.27 256.92 L 286.32 256.91 L 286.35 256.64 L 286.38 256.65 L 286.39 256.64 L 286.50 253.16 L 286.53 252.86 L 286.63 252.84 L 286.70 252.78 L 286.91 252.68 L 287.17 252.55 L 287.17 252.55 L 287.24 252.51 L 287.48 252.44 L 287.59 252.44 L 287.71 252.44 L 287.83 250.93 L 287.90 250.56 L 288.23 250.56 L 288.26 250.32 L 288.30 250.32 L 288.33 250.06 L 288.54 247.87 L 288.58 247.81 L 288.74 247.80 L 302.96 247.74 L 303.77 247.62 L 303.79 247.62 L 303.95 247.62 L 303.97 247.62 L 304.07 247.19 L 304.15 247.17 L 304.22 246.96 L 304.32 246.90 L 304.34 246.87 L 304.38 246.85 L 304.53 246.61 L 304.84 246.39 L 305.04 245.69 L 305.26 245.02 L 305.26 244.98 L 305.30 244.35 L 305.33 244.33 L 305.75 243.96 L 305.76 243.92 L 305.83 243.42 L 306.01 243.36 L 306.12 243.32 L 306.15 242.43 L 306.16 242.38 L 306.21 243.23 L 306.24 242.71 L 306.26 242.69 L 306.36 241.50 L 306.37 241.47 L 306.59 241.37 L 307.20 241.35 L 307.34 241.31 L 307.39 241.30 L 307.42 241.15 L 307.45 241.15 L 307.54 240.56 L 317.26 239.42 L 317.28 239.27 L 317.36 239.16 L 317.38 238.94 L 317.44 229.03 L 317.54 224.97 L 317.56 224.94 L 317.74 224.86 L 317.78 224.86 L 317.81 224.40 L 317.97 224.35 L 318.39 223.39 L 318.40 223.37 L 318.50 223.07 L 318.54 223.08 L 318.57 222.60 L 318.92 222.04 L 318.93 222.02 L 319.46 221.80 L 319.52 221.29 L 319.71 221.30 L 319.93 220.02 L 319.99 219.52 L 320.03 219.11 L 320.13 218.62 L 320.40 218.44 L 320.45 218.32 L 320.57 218.21 L 320.70 218.21 L 321.11 218.21 L 321.16 218.21 L 321.25 218.18 L 321.26 218.18 L 321.39 218.20 L 321.70 218.17 L 322.02 217.98 L 322.07 217.98 L 322.14 217.91 L 322.23 217.77 L 322.47 217.77 L 322.88 217.59 L 323.02 217.20 L 323.24 213.78 L 324.13 216.67 L 324.33 216.66 L 324.47 216.64 L 324.70 216.64 L 324.77 216.58 L 324.99 216.42 L 325.34 216.19 L 325.39 216.03 L 325.45 215.96 L 325.50 215.98 L 325.53 215.93 L 325.81 215.72 L 332.25 215.71 L 332.31 215.72 L 332.71 215.70 L 332.75 215.69 L 332.84 215.25 L 332.91 215.01 L 332.92 215.01 L 333.15 214.97 L 333.20 214.95 L 334.52 214.30 L 334.67 214.25 L 334.79 214.24 L 334.81 214.23 L 335.22 214.08 L 335.36 214.16 L 335.39 214.15 L 335.61 214.11 L 335.85 212.76 L 335.88 212.75 L 336.08 212.60 L 336.16 212.60 L 336.24 212.60 L 336.40 212.45 L 336.76 211.90 L 336.83 211.88 L 336.89 211.73 L 337.04 211.08 L 337.40 210.41 L 337.71 207.27 L 337.77 206.89 L 338.10 206.74 L 338.15 206.65 L 338.20 206.50 L 338.24 206.00 L 338.35 205.09 L 338.38 205.13 L 338.43 205.11 L 338.61 205.11 L 338.89 204.77 L 339.06 204.71 L 339.26 204.70 L 339.36 204.69 L 339.55 204.68 L 339.88 204.68 L 340.20 204.67 L 340.45 204.66 L 340.51 204.65 L 340.57 204.64 L 340.57 204.53 L 340.76 204.47 L 340.82 204.46 L 340.89 204.32 L 341.42 204.30 L 341.43 204.03 L 341.58 204.02 L 342.19 204.02 L 342.60 203.86 L 342.90 203.65 L 342.91 203.55 L 342.93 203.54 L 351.96 203.36 L 351.99 203.35 L 352.09 203.34 L 352.14 203.18 L 352.17 203.17 L 352.18 203.16 L 352.56 203.11 L 352.65 202.54 L 352.77 202.42 L 352.96 201.30 L 353.08 201.28 L 353.23 200.81 L 353.32 200.87 L 353.36 200.86 L 353.41 200.32 L 353.52 199.95 L 353.54 199.55 L 353.58 199.49 L 353.67 199.46 L 353.74 199.28 L 353.82 201.42 L 353.93 201.38 L 354.15 200.52 L 354.24 200.31 L 354.33 200.13 L 354.89 198.91 L 355.36 198.31 L 355.93 197.18 L 356.08 197.12 L 356.24 197.12 L 356.42 197.07 L 359.73 196.75 L 360.01 196.72 L 391.45 195.86 L 490.45 195.66 L 490.77 195.31 L 491.00 195.26 L 491.23 195.26 L 491.57 194.60 L 491.69 194.27 L 491.78 193.68 L 491.94 191.95 L 492.17 192.30 L 492.35 191.93 L 492.39 191.92 L 492.55 191.81 L 492.58 191.81 L 492.74 191.18 L 492.89 190.17 L 493.34 189.09 L 493.35 189.00 L 493.48 187.72 L 493.91 184.55 L 493.92 184.44 L 494.00 184.37 L 494.10 183.24 L 494.56 181.71 L 494.57 181.57 L 494.67 181.50 L 494.78 180.75 L 494.95 180.15 L 494.96 180.04 L 495.04 178.88 L 495.05 178.85 L 495.09 178.52 L 495.29 176.46 L 495.31 176.34 L 495.38 176.22 L 495.59 175.94 L 495.63 175.94 L 495.80 175.54 L 496.07 175.59 L 496.11 175.53 L 496.15 175.51 L 496.20 175.48 L 496.34 174.26 L 496.48 173.27 L 496.50 173.19 L 496.59 171.95 L 496.67 170.74 L 496.69 170.59 L 496.78 169.18 L 496.82 168.07 L 496.99 167.31 L 497.01 167.26 L 497.10 167.03 L 497.22 167.01 L 497.93 166.98 L 498.28 166.94 L 506.01 166.99 L 506.09 166.77 L 506.17 166.59 L 506.30 165.76 L 506.59 165.54 L 506.61 165.46 L 506.67 164.36 L 506.85 163.29 L 506.87 163.20 L 508.56 163.13 L 508.66 162.53 L 509.51 162.35 L 509.61 162.31 L 509.71 161.07 L 510.73 159.90 L 511.17 159.46 L 511.28 158.55 L 511.65 156.99 L 511.88 156.54 L 512.26 155.63 L 512.94 155.16 L 523.29 155.15 L 523.91 155.05 L 523.93 155.07 L 524.80 154.89 L 524.84 154.80 L 525.15 154.72 L 525.50 153.71 L 525.50 153.71 L 525.54 153.67 L 526.00 152.51 L 527.06 151.85 L 527.13 151.79 L 527.24 151.78 L 527.40 151.47 L 527.45 151.39 L 527.51 151.33 L 528.00 151.29 L 528.40 151.29 L 528.62 151.29 L 528.64 151.24 L 529.09 150.23 L 529.43 150.04 L 529.44 149.96 L 529.48 149.88 L 529.53 149.61 L 540.76 149.22 L 540.78 149.20 L 540.82 149.18 L 541.03 149.07 L 541.21 148.94 L 542.19 147.38 L 542.44 147.20 L 543.15 146.73 L 543.77 146.62 L 544.22 146.47 L 544.35 145.03 L 544.92 143.34 L 545.13 143.22 L 545.20 142.14 L 546.86 140.14 L 546.88 140.14 L 546.97 139.65 L 547.29 139.59 L 547.29 139.59 L 547.31 139.47 L 547.37 139.32 L 547.51 139.16 L 547.69 138.32 L 549.41 136.30 L 549.64 136.06 L 549.79 135.69 L 549.82 135.65 L 549.85 135.37 L 557.50 134.45 L 557.75 133.76 L 557.89 133.73 L 557.95 133.27 L 558.67 133.05 L 558.82 132.59 L 558.95 132.59 L 559.03 131.62 L 559.28 129.16 L 559.31 129.12 L 559.64 129.07 L 559.71 128.27 L 559.98 127.30 L 560.04 126.63 L 560.27 126.02 L 560.44 125.69 L 560.57 124.95 L 560.85 124.33 L 560.89 123.62 L 561.26 123.47 L 561.29 123.47 L 561.35 122.57 L 561.42 122.57 L 561.46 122.50 L 561.89 120.82 L 562.51 120.27 L 562.81 120.46 L 563.83 120.38 L 563.85 120.37 L 564.01 120.35 L 564.08 120.33 L 564.19 120.22 L 564.32 120.12 L 564.45 119.94 L 564.76 119.69 L 565.05 119.68 L 565.95 119.51 L 565.99 119.50 L 566.90 119.34 L 567.29 119.24 L 575.03 119.22 L 575.42 119.10 L 575.61 119.02 L 575.70 119.02 L 575.72 119.02 L 575.91 118.99 L 576.00 118.94 L 576.23 118.78 L 576.37 118.75 L 576.87 118.58 L 577.14 118.20 L 577.57 118.15 L 577.69 117.91 L 577.84 117.75 L 578.03 117.56 L 578.70 117.61 L 578.77 117.60 L 579.74 117.13 L 579.89 116.86 L 580.09 116.76 L 580.56 116.54 L 580.78 116.61 L 580.89 116.97 L 580.99 116.95 L 581.12 116.80 L 581.53 115.69 L 581.97 115.58 L 582.36 115.49 L 582.40 115.44 L 582.45 115.12 L 610.45 115.05 L 610.63 114.91 L 626.74 114.55 L 626.82 114.96 L 626.95 113.27 L 626.97 113.27 L 627.01 113.31 L 627.59 109.89 L 627.65 109.86 L 628.36 109.94 L 629.08 109.72 L 629.34 109.40 L 629.79 108.99 L 630.39 108.72 L 630.40 108.72 L 630.48 108.65 L 630.71 108.59 L 630.79 108.42 L 631.37 107.59 L 632.12 107.41 L 632.20 107.25 L 632.58 107.18 L 632.69 107.84 L 632.98 107.60 L 633.22 107.54 L 633.72 107.36 L 634.18 107.27 L 634.41 106.91 L 634.43 106.91 L 644.50 106.90 L 647.67 105.96 L 647.80 105.51 L 647.96 105.08 L 648.46 105.05 L 648.67 104.91 L 648.84 102.71 L 648.94 101.29 L 649.18 101.15 L 649.22 101.13 L 649.57 100.71 L 649.68 100.49 L 649.75 100.38 L 649.93 100.02 L 650.00 100.00"/>
	</g>
	<g id="poloto_plot1" class="poloto_plot poloto_imgs poloto_line poloto1 poloto_stroke" fill="none" stroke="black">
		<path d=" M 150.00 382.75 L 150.03 382.74 L 150.04 382.73 L 150.05 382.73 L 150.07 382.73 L 150.10 382.18 L 150.20 382.16 L 150.44 382.15 L 150.80 381.95 L 150.99 381.86 L 151.35 381.88 L 151.42 381.84 L 151.46 381.84 L 151.89 381.80 L 152.69 381.70 L 152.94 379.56 L 153.01 379.56 L 153.49 379.51 L 154.05 379.50 L 154.05 379.50 L 154.05 379.50 L 161.57 379.50 L 161.62 379.50 L 161.72 379.50 L 161.76 379.47 L 162.04 379.46 L 162.17 379.46 L 162.49 379.46 L 162.54 379.46 L 162.63 379.44 L 162.72 379.44 L 162.75 379.44 L 162.83 379.42 L 162.91 379.42 L 162.99 379.42 L 163.20 379.30 L 163.39 379.30 L 163.42 379.30 L 163.51 379.30 L 164.11 380.10 L 164.12 380.10 L 164.20 380.09 L 164.54 379.97 L 164.81 379.84 L 165.12 379.78 L 165.18 379.74 L 165.19 379.74 L 165.25 379.74 L 165.37 379.74 L 165.52 379.69 L 165.81 379.64 L 165.83 379.64 L 165.88 379.64 L 165.95 379.62 L 166.12 379.62 L 166.14 379.62 L 166.32 379.61 L 166.39 379.61 L 166.45 379.61 L 166.52 379.61 L 167.43 379.52 L 167.65 379.51 L 168.16 379.47 L 168.27 379.47 L 168.35 379.47 L 168.40 379.47 L 168.75 379.40 L 168.90 379.40 L 169.08 379.32 L 169.17 379.32 L 169.38 379.14 L 169.48 379.08 L 169.60 379.08 L 169.72 379.08 L 170.12 376.59 L 170.13 376.54 L 170.15 376.54 L 170.29 376.30 L 177.26 376.30 L 177.98 375.23 L 178.01 375.23 L 178.86 375.23 L 178.93 375.22 L 179.01 375.11 L 179.22 375.09 L 179.31 375.09 L 179.35 375.09 L 179.46 375.09 L 179.71 375.09 L 179.71 374.86 L 179.81 374.85 L 179.90 374.85 L 180.01 374.83 L 180.15 374.82 L 180.20 374.82 L 180.22 374.82 L 180.34 374.82 L 180.36 374.82 L 180.49 374.82 L 180.51 374.82 L 180.71 373.77 L 180.74 373.77 L 180.81 373.64 L 180.90 373.64 L 181.01 373.64 L 181.06 373.63 L 181.46 373.62 L 181.46 373.62 L 181.54 373.56 L 181.71 373.56 L 181.87 372.95 L 181.92 372.88 L 181.99 372.88 L 182.03 372.88 L 182.12 372.86 L 182.55 368.41 L 182.60 368.44 L 182.75 368.44 L 182.80 368.44 L 182.83 368.44 L 182.90 368.44 L 182.97 368.38 L 183.12 368.38 L 183.23 368.38 L 183.32 368.37 L 183.37 368.37 L 183.76 368.36 L 183.98 368.36 L 184.04 368.25 L 184.22 368.25 L 184.24 368.25 L 184.26 368.25 L 184.37 367.95 L 184.47 367.87 L 184.79 366.81 L 184.84 366.81 L 184.90 366.81 L 184.99 366.83 L 185.00 366.83 L 185.04 366.83 L 185.07 366.83 L 185.11 366.83 L 185.16 366.83 L 185.28 366.81 L 185.38 366.81 L 185.47 366.79 L 185.60 366.79 L 185.74 366.79 L 185.88 366.39 L 185.97 366.26 L 186.18 366.26 L 186.18 366.25 L 186.30 366.25 L 196.03 366.25 L 196.22 366.25 L 196.67 366.18 L 196.77 366.17 L 196.85 366.17 L 196.86 366.17 L 197.03 366.17 L 197.14 366.17 L 197.21 366.17 L 197.28 366.17 L 197.32 366.16 L 197.49 366.16 L 197.84 366.19 L 197.93 366.19 L 198.00 366.19 L 198.08 366.19 L 198.53 366.10 L 198.59 366.06 L 198.63 366.06 L 198.65 366.00 L 198.75 366.00 L 198.83 366.00 L 199.16 365.60 L 199.63 365.60 L 199.80 365.60 L 200.32 365.60 L 200.56 362.87 L 200.65 362.86 L 200.76 362.86 L 200.91 362.86 L 201.15 362.86 L 201.48 362.86 L 201.92 362.86 L 201.98 362.86 L 202.31 362.79 L 202.51 362.68 L 202.58 362.68 L 202.70 362.68 L 202.80 362.67 L 203.95 362.49 L 205.05 362.49 L 214.84 362.49 L 214.91 362.49 L 214.96 362.49 L 215.27 362.49 L 216.18 361.63 L 216.22 361.61 L 216.35 361.52 L 216.80 361.51 L 217.01 361.30 L 217.34 361.31 L 217.41 361.31 L 217.48 361.31 L 218.05 358.91 L 218.12 358.91 L 218.24 358.91 L 218.36 358.91 L 218.42 358.76 L 218.74 358.47 L 218.85 358.47 L 218.91 358.47 L 218.98 358.03 L 219.12 357.59 L 219.18 357.59 L 219.32 357.58 L 219.74 354.02 L 219.78 354.02 L 219.82 354.02 L 219.89 354.02 L 219.99 354.02 L 220.04 354.02 L 220.08 354.02 L 220.28 354.02 L 220.33 353.94 L 220.58 353.92 L 220.73 353.88 L 220.82 353.45 L 221.58 346.35 L 221.67 346.35 L 250.45 346.35 L 250.47 346.35 L 261.47 346.35 L 262.07 346.24 L 262.19 346.24 L 262.36 346.24 L 262.41 346.24 L 262.47 346.24 L 267.24 346.19 L 267.87 346.12 L 268.11 346.12 L 268.23 346.10 L 271.20 346.04 L 271.22 345.94 L 271.41 345.94 L 272.29 344.98 L 272.35 344.98 L 272.46 344.98 L 272.77 344.98 L 272.81 344.98 L 272.93 344.98 L 273.07 344.98 L 273.09 344.98 L 282.33 344.97 L 282.40 344.80 L 282.77 344.80 L 282.78 343.64 L 282.84 343.64 L 282.92 343.64 L 283.02 343.53 L 283.18 343.53 L 283.31 343.48 L 283.43 343.48 L 283.48 343.48 L 283.66 343.47 L 284.30 341.50 L 284.56 341.49 L 284.60 341.48 L 284.66 341.48 L 284.69 341.48 L 284.78 341.45 L 285.04 341.21 L 285.08 341.17 L 285.24 339.41 L 285.30 339.40 L 285.32 339.40 L 285.38 339.37 L 285.42 339.37 L 285.46 339.37 L 285.66 338.41 L 285.75 338.40 L 285.86 338.37 L 285.94 335.38 L 285.97 335.38 L 286.17 333.69 L 286.23 333.69 L 286.27 333.69 L 286.32 333.69 L 286.35 333.69 L 286.38 333.69 L 286.39 333.69 L 286.50 330.57 L 286.53 330.57 L 286.63 330.56 L 286.70 330.56 L 286.91 330.50 L 287.17 330.41 L 287.17 330.41 L 287.24 330.39 L 287.48 330.34 L 287.59 330.34 L 287.71 330.34 L 287.83 329.00 L 287.90 329.00 L 288.23 328.99 L 288.26 328.99 L 288.30 328.99 L 288.33 328.99 L 288.54 327.07 L 288.58 327.07 L 288.74 327.06 L 302.96 327.06 L 303.77 327.05 L 303.79 327.05 L 303.95 327.05 L 303.97 327.05 L 304.07 327.05 L 304.15 327.04 L 304.22 326.95 L 304.32 326.95 L 304.34 326.95 L 304.38 326.95 L 304.53 326.78 L 304.84 326.66 L 305.04 326.55 L 305.26 326.01 L 305.26 326.01 L 305.30 325.87 L 305.33 325.86 L 305.75 325.53 L 305.76 325.53 L 305.83 325.48 L 306.01 325.48 L 306.12 325.45 L 306.15 324.65 L 306.16 324.65 L 306.21 325.43 L 306.24 325.39 L 306.26 325.38 L 306.36 324.31 L 306.37 324.31 L 306.59 324.27 L 307.20 324.27 L 307.34 324.27 L 307.39 324.27 L 307.42 324.27 L 307.45 324.27 L 307.54 324.20 L 317.26 323.31 L 317.28 323.31 L 317.36 323.31 L 317.38 323.11 L 317.44 313.65 L 317.54 310.12 L 317.56 310.12 L 317.74 310.06 L 317.78 310.06 L 317.81 310.04 L 317.97 310.04 L 318.39 309.18 L 318.40 309.18 L 318.50 309.14 L 318.54 309.14 L 318.57 309.06 L 318.92 308.55 L 318.93 308.55 L 319.46 308.44 L 319.52 308.41 L 319.71 308.42 L 319.93 307.25 L 319.99 307.14 L 320.03 307.03 L 320.13 306.59 L 320.40 306.48 L 320.45 306.39 L 320.57 306.39 L 320.70 306.39 L 321.11 306.39 L 321.16 306.39 L 321.25 306.39 L 321.26 306.39 L 321.39 306.40 L 321.70 306.40 L 322.02 306.28 L 322.07 306.28 L 322.14 306.27 L 322.23 306.27 L 322.47 306.27 L 322.88 306.27 L 323.02 306.16 L 323.24 303.11 L 324.13 305.99 L 324.33 305.98 L 324.47 305.97 L 324.70 305.97 L 324.77 305.94 L 324.99 305.92 L 325.34 305.74 L 325.39 305.74 L 325.45 305.74 L 325.50 305.74 L 325.53 305.74 L 325.81 305.58 L 332.25 305.58 L 332.31 305.58 L 332.71 305.57 L 332.75 305.57 L 332.84 305.54 L 332.91 305.33 L 332.92 305.32 L 333.15 305.30 L 333.20 305.30 L 334.52 305.12 L 334.67 305.12 L 334.79 305.12 L 334.81 305.12 L 335.22 305.00 L 335.36 305.00 L 335.39 305.00 L 335.61 304.99 L 335.85 304.27 L 335.88 304.27 L 336.08 304.15 L 336.16 304.15 L 336.24 304.15 L 336.40 304.15 L 336.76 304.14 L 336.83 304.12 L 336.89 304.05 L 337.04 303.93 L 337.40 303.82 L 337.71 300.93 L 337.77 300.84 L 338.10 300.70 L 338.15 300.66 L 338.20 300.56 L 338.24 300.36 L 338.35 299.50 L 338.38 299.53 L 338.43 299.52 L 338.61 299.51 L 338.89 299.39 L 339.06 299.35 L 339.26 299.34 L 339.36 299.33 L 339.55 299.31 L 339.88 299.31 L 340.20 299.31 L 340.45 299.30 L 340.51 299.30 L 340.57 299.30 L 340.57 299.29 L 340.76 299.29 L 340.82 299.28 L 340.89 299.17 L 341.42 299.16 L 341.43 299.16 L 341.58 299.15 L 342.19 299.15 L 342.60 299.00 L 342.90 298.88 L 342.91 298.88 L 342.93 298.88 L 351.96 298.88 L 351.99 298.88 L 352.09 298.88 L 352.14 298.88 L 352.17 298.86 L 352.18 298.86 L 352.56 298.86 L 352.65 298.85 L 352.77 298.83 L 352.96 298.81 L 353.08 298.81 L 353.23 298.74 L 353.32 298.74 L 353.36 298.74 L 353.41 298.74 L 353.52 298.48 L 353.54 298.48 L 353.58 298.48 L 353.67 298.48 L 353.74 298.48 L 353.82 298.54 L 353.93 298.54 L 354.15 298.53 L 354.24 298.53 L 354.33 298.53 L 354.89 297.69 L 355.36 297.46 L 355.93 296.85 L 356.08 296.85 L 356.24 296.85 L 356.42 296.85 L 359.73 296.78 L 360.01 296.77 L 391.45 296.67 L 490.45 296.51 L 490.77 296.46 L 491.00 296.45 L 491.23 296.45 L 491.57 296.06 L 491.69 296.06 L 491.78 296.06 L 491.94 294.64 L 492.17 294.91 L 492.35 294.89 L 492.39 294.89 L 492.55 294.88 L 492.58 294.88 L 492.74 294.88 L 492.89 294.81 L 493.34 293.92 L 493.35 293.92 L 493.48 293.83 L 493.91 290.93 L 493.92 290.93 L 494.00 290.93 L 494.10 290.88 L 494.56 289.53 L 494.57 289.53 L 494.67 289.53 L 494.78 289.49 L 494.95 289.00 L 494.96 289.00 L 495.04 288.99 L 495.05 288.99 L 495.09 288.72 L 495.29 286.80 L 495.31 286.80 L 495.38 286.80 L 495.59 286.64 L 495.63 286.64 L 495.80 286.32 L 496.07 286.32 L 496.11 286.32 L 496.15 286.32 L 496.20 286.32 L 496.34 286.31 L 496.48 285.44 L 496.50 285.44 L 496.59 285.44 L 496.67 284.78 L 496.69 284.78 L 496.78 284.09 L 496.82 284.04 L 496.99 283.36 L 497.01 283.36 L 497.10 283.36 L 497.22 283.34 L 497.93 283.34 L 498.28 283.34 L 506.01 283.34 L 506.09 283.34 L 506.17 283.34 L 506.30 283.34 L 506.59 283.16 L 506.61 283.16 L 506.67 283.10 L 506.85 282.14 L 506.87 282.14 L 508.56 282.16 L 508.66 281.97 L 509.51 281.97 L 509.61 281.96 L 509.71 281.89 L 510.73 281.10 L 511.17 280.95 L 511.28 280.90 L 511.65 279.40 L 511.88 279.40 L 512.26 279.27 L 512.94 279.27 L 523.29 279.27 L 523.91 279.18 L 523.93 279.20 L 524.80 279.20 L 524.84 279.20 L 525.15 279.20 L 525.50 279.17 L 525.50 279.17 L 525.54 279.17 L 526.00 278.29 L 527.06 278.27 L 527.13 278.26 L 527.24 278.26 L 527.40 278.23 L 527.45 278.20 L 527.51 278.20 L 528.00 278.16 L 528.40 278.16 L 528.62 278.16 L 528.64 278.16 L 529.09 278.14 L 529.43 278.04 L 529.44 278.04 L 529.48 278.04 L 529.53 278.04 L 540.76 277.83 L 540.78 277.83 L 540.82 277.83 L 541.03 277.83 L 541.21 277.83 L 542.19 276.96 L 542.44 276.91 L 543.15 276.85 L 543.77 276.80 L 544.22 276.80 L 544.35 276.80 L 544.92 275.49 L 545.13 275.45 L 545.20 275.41 L 546.86 274.49 L 546.88 274.49 L 546.97 274.48 L 547.29 274.47 L 547.29 274.47 L 547.31 274.47 L 547.37 274.44 L 547.51 274.40 L 547.69 274.30 L 549.41 272.78 L 549.64 272.71 L 549.79 272.71 L 549.82 272.71 L 549.85 272.71 L 557.50 272.71 L 557.75 272.69 L 557.89 272.69 L 557.95 272.69 L 558.67 272.69 L 558.82 272.69 L 558.95 272.69 L 559.03 272.66 L 559.28 270.67 L 559.31 270.66 L 559.64 270.67 L 559.71 270.65 L 559.98 269.88 L 560.04 269.84 L 560.27 269.34 L 560.44 269.34 L 560.57 269.29 L 560.85 268.83 L 560.89 268.83 L 561.26 267.35 L 561.29 267.35 L 561.35 267.34 L 561.42 267.34 L 561.46 267.34 L 561.89 265.86 L 562.51 265.73 L 562.81 265.73 L 563.83 265.69 L 563.85 265.68 L 564.01 265.68 L 564.08 265.68 L 564.19 265.68 L 564.32 265.68 L 564.45 265.67 L 564.76 265.65 L 565.05 265.65 L 565.95 265.58 L 565.99 265.58 L 566.90 265.54 L 567.29 265.50 L 575.03 265.52 L 575.42 265.44 L 575.61 265.37 L 575.70 265.37 L 575.72 265.37 L 575.91 265.36 L 576.00 265.36 L 576.23 265.36 L 576.37 265.35 L 576.87 265.22 L 577.14 264.95 L 577.57 264.93 L 577.69 264.75 L 577.84 264.67 L 578.03 264.59 L 578.70 264.67 L 578.77 264.67 L 579.74 264.39 L 579.89 264.39 L 580.09 264.39 L 580.56 264.37 L 580.78 264.50 L 580.89 264.50 L 580.99 264.50 L 581.12 264.50 L 581.53 263.86 L 581.97 263.85 L 582.36 263.85 L 582.40 263.85 L 582.45 263.85 L 610.45 263.85 L 610.63 263.80 L 626.74 263.58 L 626.82 263.58 L 626.95 263.53 L 626.97 263.53 L 627.01 263.53 L 627.59 261.06 L 627.65 261.06 L 628.36 261.06 L 629.08 260.95 L 629.34 260.71 L 629.79 260.39 L 630.39 260.31 L 630.40 260.31 L 630.48 260.26 L 630.71 260.26 L 630.79 260.21 L 631.37 259.54 L 632.12 259.43 L 632.20 259.43 L 632.58 259.43 L 632.69 259.43 L 632.98 259.27 L 633.22 259.24 L 633.72 259.10 L 634.18 259.03 L 634.41 259.03 L 634.43 259.03 L 644.50 259.03 L 647.67 258.98 L 647.80 258.96 L 647.96 258.66 L 648.46 258.68 L 648.67 258.68 L 648.84 258.68 L 648.94 258.55 L 649.18 258.46 L 649.22 258.46 L 649.57 258.22 L 649.68 258.05 L 649.75 258.00 L 649.93 257.89 L 650.00 257.88"/>
	</g>
	<g id="poloto_plot2" class="poloto_plot poloto_imgs poloto_line poloto2 poloto_stroke" fill="none" stroke="black">
		<path d=" M 150.00 392.26 L 150.03 392.26 L 150.04 392.26 L 150.05 392.26 L 150.07 392.26 L 150.10 390.27 L 150.20 390.00 L 150.44 390.00 L 150.80 389.99 L 150.99 388.80 L 151.35 388.70 L 151.42 388.66 L 151.46 388.63 L 151.89 388.10 L 152.69 387.69 L 152.94 387.61 L 153.01 387.61 L 153.49 387.58 L 154.05 387.58 L 154.05 387.58 L 154.05 387.58 L 161.57 387.58 L 161.62 387.57 L 161.72 387.56 L 161.76 387.56 L 162.04 387.44 L 162.17 387.41 L 162.49 387.21 L 162.54 387.13 L 162.63 386.95 L 162.72 386.93 L 162.75 386.93 L 162.83 386.89 L 162.91 386.89 L 162.99 386.90 L 163.20 386.70 L 163.39 386.51 L 163.42 386.52 L 163.51 386.41 L 164.11 386.17 L 164.12 386.17 L 164.20 386.09 L 164.54 385.83 L 164.81 385.51 L 165.12 385.38 L 165.18 385.38 L 165.19 385.38 L 165.25 385.20 L 165.37 385.20 L 165.52 385.18 L 165.81 385.04 L 165.83 384.81 L 165.88 384.81 L 165.95 384.70 L 166.12 384.70 L 166.14 384.70 L 166.32 384.35 L 166.39 384.33 L 166.45 384.30 L 166.52 384.14 L 167.43 384.04 L 167.65 384.01 L 168.16 383.77 L 168.27 383.77 L 168.35 383.75 L 168.40 383.57 L 168.75 382.60 L 168.90 382.59 L 169.08 382.30 L 169.17 382.27 L 169.38 382.14 L 169.48 382.10 L 169.60 381.89 L 169.72 381.72 L 170.12 381.72 L 170.13 381.70 L 170.15 381.56 L 170.29 380.62 L 177.26 380.52 L 177.98 380.24 L 178.01 380.21 L 178.86 379.97 L 178.93 379.97 L 179.01 379.79 L 179.22 379.68 L 179.31 379.47 L 179.35 379.29 L 179.46 378.94 L 179.71 378.93 L 179.71 378.93 L 179.81 378.69 L 179.90 378.69 L 180.01 378.43 L 180.15 378.23 L 180.20 378.12 L 180.22 378.12 L 180.34 377.88 L 180.36 377.88 L 180.49 377.66 L 180.51 377.66 L 180.71 377.58 L 180.74 377.58 L 180.81 377.50 L 180.90 377.49 L 181.01 377.49 L 181.06 377.47 L 181.46 377.26 L 181.46 377.27 L 181.54 376.85 L 181.71 376.83 L 181.87 376.70 L 181.92 376.70 L 181.99 376.70 L 182.03 376.66 L 182.12 376.09 L 182.55 375.60 L 182.60 375.33 L 182.75 375.31 L 182.80 375.24 L 182.83 375.23 L 182.90 375.11 L 182.97 374.65 L 183.12 374.58 L 183.23 374.57 L 183.32 374.34 L 183.37 374.33 L 183.76 374.16 L 183.98 374.04 L 184.04 373.93 L 184.22 373.93 L 184.24 373.93 L 184.26 373.90 L 184.37 373.08 L 184.47 373.07 L 184.79 372.95 L 184.84 372.62 L 184.90 372.61 L 184.99 372.48 L 185.00 372.40 L 185.04 372.34 L 185.07 372.31 L 185.11 372.31 L 185.16 372.24 L 185.28 371.31 L 185.38 371.22 L 185.47 370.94 L 185.60 370.92 L 185.74 370.83 L 185.88 370.54 L 185.97 369.73 L 186.18 369.67 L 186.18 369.32 L 186.30 369.24 L 196.03 369.24 L 196.22 369.24 L 196.67 368.86 L 196.77 368.86 L 196.85 368.86 L 196.86 368.76 L 197.03 368.60 L 197.14 368.57 L 197.21 368.47 L 197.28 368.40 L 197.32 368.36 L 197.49 368.31 L 197.84 368.39 L 197.93 368.13 L 198.00 368.06 L 198.08 368.06 L 198.53 368.01 L 198.59 367.96 L 198.63 367.96 L 198.65 367.91 L 198.75 367.87 L 198.83 367.78 L 199.16 367.53 L 199.63 367.43 L 199.80 367.39 L 200.32 367.23 L 200.56 366.86 L 200.65 366.80 L 200.76 366.50 L 200.91 366.12 L 201.15 366.02 L 201.48 366.01 L 201.92 366.00 L 201.98 365.86 L 202.31 365.76 L 202.51 365.64 L 202.58 365.55 L 202.70 365.51 L 202.80 365.26 L 203.95 365.13 L 205.05 365.13 L 214.84 365.10 L 214.91 364.97 L 214.96 364.87 L 215.27 364.73 L 216.18 364.48 L 216.22 364.45 L 216.35 364.27 L 216.80 364.20 L 217.01 363.71 L 217.34 363.70 L 217.41 363.68 L 217.48 363.20 L 218.05 362.75 L 218.12 362.74 L 218.24 362.72 L 218.36 362.67 L 218.42 362.51 L 218.74 361.76 L 218.85 361.57 L 218.91 361.55 L 218.98 361.47 L 219.12 361.18 L 219.18 360.43 L 219.32 360.12 L 219.74 359.95 L 219.78 359.57 L 219.82 359.57 L 219.89 359.50 L 219.99 359.40 L 220.04 359.37 L 220.08 359.33 L 220.28 358.46 L 220.33 357.94 L 220.58 357.84 L 220.73 356.97 L 220.82 356.81 L 221.58 355.43 L 221.67 355.41 L 250.45 355.01 L 250.47 355.01 L 261.47 354.89 L 262.07 354.75 L 262.19 354.75 L 262.36 354.68 L 262.41 354.57 L 262.47 354.54 L 267.24 354.53 L 267.87 352.95 L 268.11 352.82 L 268.23 352.27 L 271.20 352.20 L 271.22 352.15 L 271.41 352.14 L 272.29 352.05 L 272.35 351.86 L 272.46 351.80 L 272.77 351.72 L 272.81 351.70 L 272.93 351.39 L 273.07 351.30 L 273.09 351.06 L 282.33 350.77 L 282.40 350.05 L 282.77 349.86 L 282.78 349.59 L 282.84 349.38 L 282.92 349.05 L 283.02 348.18 L 283.18 347.70 L 283.31 347.09 L 283.43 347.08 L 283.48 346.61 L 283.66 346.58 L 284.30 346.13 L 284.56 345.92 L 284.60 345.79 L 284.66 345.79 L 284.69 345.63 L 284.78 345.10 L 285.04 345.04 L 285.08 345.04 L 285.24 344.69 L 285.30 344.69 L 285.32 344.49 L 285.38 344.36 L 285.42 344.36 L 285.46 344.08 L 285.66 343.91 L 285.75 343.63 L 285.86 343.62 L 285.94 343.47 L 285.97 343.26 L 286.17 343.14 L 286.23 343.02 L 286.27 343.02 L 286.32 343.02 L 286.35 342.80 L 286.38 342.81 L 286.39 342.80 L 286.50 342.73 L 286.53 342.49 L 286.63 342.49 L 286.70 342.43 L 286.91 342.41 L 287.17 342.38 L 287.17 342.38 L 287.24 342.37 L 287.48 342.37 L 287.59 342.37 L 287.71 342.37 L 287.83 342.33 L 287.90 342.04 L 288.23 342.04 L 288.26 341.87 L 288.30 341.86 L 288.33 341.67 L 288.54 341.60 L 288.58 341.56 L 288.74 341.56 L 302.96 341.51 L 303.77 341.42 L 303.79 341.42 L 303.95 341.42 L 303.97 341.42 L 304.07 341.08 L 304.15 341.07 L 304.22 340.98 L 304.32 340.93 L 304.34 340.90 L 304.38 340.88 L 304.53 340.85 L 304.84 340.78 L 305.04 340.32 L 305.26 340.30 L 305.26 340.27 L 305.30 339.89 L 305.33 339.89 L 305.75 339.89 L 305.76 339.85 L 305.83 339.50 L 306.01 339.45 L 306.12 339.44 L 306.15 339.43 L 306.16 339.39 L 306.21 339.36 L 306.24 339.00 L 306.26 338.99 L 306.36 338.99 L 306.37 338.96 L 306.59 338.93 L 307.20 338.91 L 307.34 338.89 L 307.39 338.88 L 307.42 338.76 L 307.45 338.76 L 307.54 338.35 L 317.26 338.23 L 317.28 338.11 L 317.36 338.03 L 317.38 338.02 L 317.44 337.67 L 317.54 337.59 L 317.56 337.57 L 317.74 337.56 L 317.78 337.56 L 317.81 337.22 L 317.97 337.18 L 318.39 337.16 L 318.40 337.14 L 318.50 336.96 L 318.54 336.96 L 318.57 336.64 L 318.92 336.64 L 318.93 336.63 L 319.46 336.55 L 319.52 336.17 L 319.71 336.17 L 319.93 336.16 L 319.99 335.88 L 320.03 335.67 L 320.13 335.66 L 320.40 335.61 L 320.45 335.59 L 320.57 335.51 L 320.70 335.51 L 321.11 335.51 L 321.16 335.51 L 321.25 335.49 L 321.26 335.49 L 321.39 335.49 L 321.70 335.46 L 322.02 335.42 L 322.07 335.42 L 322.14 335.38 L 322.23 335.28 L 322.47 335.28 L 322.88 335.15 L 323.02 334.94 L 323.24 334.92 L 324.13 334.68 L 324.33 334.68 L 324.47 334.68 L 324.70 334.67 L 324.77 334.66 L 324.99 334.54 L 325.34 334.52 L 325.39 334.42 L 325.45 334.37 L 325.50 334.38 L 325.53 334.34 L 325.81 334.33 L 332.25 334.32 L 332.31 334.32 L 332.71 334.32 L 332.75 334.31 L 332.84 333.99 L 332.91 333.98 L 332.92 333.98 L 333.15 333.97 L 333.20 333.95 L 334.52 333.48 L 334.67 333.43 L 334.79 333.42 L 334.81 333.42 L 335.22 333.41 L 335.36 333.48 L 335.39 333.47 L 335.61 333.44 L 335.85 333.00 L 335.88 332.99 L 336.08 332.98 L 336.16 332.98 L 336.24 332.98 L 336.40 332.88 L 336.76 332.48 L 336.83 332.48 L 336.89 332.42 L 337.04 332.05 L 337.40 331.65 L 337.71 331.67 L 337.77 331.46 L 338.10 331.46 L 338.15 331.43 L 338.20 331.41 L 338.24 331.20 L 338.35 331.19 L 338.38 331.19 L 338.43 331.19 L 338.61 331.19 L 338.89 331.02 L 339.06 331.00 L 339.26 331.00 L 339.36 331.00 L 339.55 331.00 L 339.88 331.00 L 340.20 331.00 L 340.45 331.00 L 340.51 330.99 L 340.57 330.99 L 340.57 330.91 L 340.76 330.86 L 340.82 330.86 L 340.89 330.85 L 341.42 330.84 L 341.43 330.64 L 341.58 330.64 L 342.19 330.64 L 342.60 330.63 L 342.90 330.59 L 342.91 330.50 L 342.93 330.50 L 351.96 330.37 L 351.99 330.36 L 352.09 330.35 L 352.14 330.22 L 352.17 330.22 L 352.18 330.21 L 352.56 330.17 L 352.65 329.75 L 352.77 329.65 L 352.96 328.82 L 353.08 328.81 L 353.23 328.45 L 353.32 328.49 L 353.36 328.49 L 353.41 328.03 L 353.52 327.95 L 353.54 327.63 L 353.58 327.59 L 353.67 327.56 L 353.74 327.40 L 353.82 329.28 L 353.93 329.25 L 354.15 328.49 L 354.24 328.33 L 354.33 328.16 L 354.89 327.86 L 355.36 327.54 L 355.93 327.10 L 356.08 327.05 L 356.24 327.05 L 356.42 327.01 L 359.73 326.79 L 360.01 326.77 L 391.45 326.18 L 490.45 326.16 L 490.77 325.89 L 491.00 325.85 L 491.23 325.85 L 491.57 325.61 L 491.69 325.33 L 491.78 324.82 L 491.94 324.68 L 492.17 324.73 L 492.35 324.43 L 492.39 324.42 L 492.55 324.33 L 492.58 324.33 L 492.74 323.83 L 492.89 323.05 L 493.34 322.98 L 493.35 322.90 L 493.48 321.90 L 493.91 321.87 L 493.92 321.77 L 494.00 321.71 L 494.10 320.80 L 494.56 320.76 L 494.57 320.63 L 494.67 320.57 L 494.78 319.98 L 494.95 319.96 L 494.96 319.86 L 495.04 318.87 L 495.05 318.85 L 495.09 318.82 L 495.29 318.82 L 495.31 318.72 L 495.38 318.64 L 495.59 318.55 L 495.63 318.55 L 495.80 318.50 L 496.07 318.53 L 496.11 318.49 L 496.15 318.47 L 496.20 318.43 L 496.34 317.41 L 496.48 317.39 L 496.50 317.30 L 496.59 316.26 L 496.67 315.88 L 496.69 315.74 L 496.78 315.23 L 496.82 314.34 L 496.99 314.33 L 497.01 314.28 L 497.10 314.10 L 497.22 314.09 L 497.93 314.06 L 498.28 314.04 L 506.01 314.08 L 506.09 313.88 L 506.17 313.73 L 506.30 313.02 L 506.59 313.01 L 506.61 312.94 L 506.67 312.05 L 506.85 312.04 L 506.87 311.95 L 508.56 311.87 L 508.66 311.54 L 509.51 311.39 L 509.61 311.35 L 509.71 310.36 L 510.73 310.08 L 511.17 309.84 L 511.28 309.09 L 511.65 309.09 L 511.88 308.67 L 512.26 308.03 L 512.94 307.65 L 523.29 307.64 L 523.91 307.63 L 523.93 307.63 L 524.80 307.49 L 524.84 307.41 L 525.15 307.35 L 525.50 306.51 L 525.50 306.51 L 525.54 306.48 L 526.00 306.30 L 527.06 305.75 L 527.13 305.69 L 527.24 305.69 L 527.40 305.45 L 527.45 305.42 L 527.51 305.37 L 528.00 305.37 L 528.40 305.37 L 528.62 305.37 L 528.64 305.33 L 529.09 304.49 L 529.43 304.41 L 529.44 304.34 L 529.48 304.27 L 529.53 304.06 L 540.76 303.90 L 540.78 303.88 L 540.82 303.86 L 541.03 303.76 L 541.21 303.65 L 542.19 303.18 L 542.44 303.08 L 543.15 302.72 L 543.77 302.66 L 544.22 302.51 L 544.35 301.27 L 544.92 301.06 L 545.13 300.99 L 545.20 300.09 L 546.86 299.23 L 546.88 299.23 L 546.97 298.83 L 547.29 298.79 L 547.29 298.79 L 547.31 298.69 L 547.37 298.58 L 547.51 298.49 L 547.69 297.88 L 549.41 297.56 L 549.64 297.42 L 549.79 297.08 L 549.82 297.04 L 549.85 296.82 L 557.50 296.04 L 557.75 295.47 L 557.89 295.45 L 557.95 295.07 L 558.67 294.92 L 558.82 294.51 L 558.95 294.51 L 559.03 293.68 L 559.28 293.48 L 559.31 293.45 L 559.64 293.40 L 559.71 292.71 L 559.98 292.63 L 560.04 292.09 L 560.27 292.03 L 560.44 291.72 L 560.57 291.11 L 560.85 291.00 L 560.89 290.38 L 561.26 291.77 L 561.29 291.77 L 561.35 290.98 L 561.42 290.98 L 561.46 290.92 L 561.89 290.84 L 562.51 290.51 L 562.81 290.68 L 563.83 290.66 L 563.85 290.65 L 564.01 290.64 L 564.08 290.62 L 564.19 290.51 L 564.32 290.41 L 564.45 290.27 L 564.76 290.07 L 565.05 290.05 L 565.95 289.96 L 565.99 289.95 L 566.90 289.85 L 567.29 289.79 L 575.03 289.76 L 575.42 289.71 L 575.61 289.71 L 575.70 289.71 L 575.72 289.71 L 575.91 289.70 L 576.00 289.66 L 576.23 289.52 L 576.37 289.50 L 576.87 289.49 L 577.14 289.41 L 577.57 289.38 L 577.69 289.35 L 577.84 289.29 L 578.03 289.19 L 578.70 289.16 L 578.77 289.15 L 579.74 288.99 L 579.89 288.75 L 580.09 288.66 L 580.56 288.51 L 580.78 288.43 L 580.89 288.78 L 580.99 288.77 L 581.12 288.63 L 581.53 288.31 L 581.97 288.22 L 582.36 288.16 L 582.40 288.12 L 582.45 287.88 L 610.45 287.83 L 610.63 287.76 L 626.74 287.69 L 626.82 288.04 L 626.95 286.64 L 626.97 286.64 L 627.01 286.67 L 627.59 286.14 L 627.65 286.11 L 628.36 286.17 L 629.08 286.10 L 629.34 286.06 L 629.79 286.01 L 630.39 285.86 L 630.40 285.86 L 630.48 285.83 L 630.71 285.78 L 630.79 285.68 L 631.37 285.60 L 632.12 285.55 L 632.20 285.41 L 632.58 285.34 L 632.69 285.96 L 632.98 285.90 L 633.22 285.87 L 633.72 285.85 L 634.18 285.85 L 634.41 285.55 L 634.43 285.55 L 644.50 285.54 L 647.67 284.79 L 647.80 284.42 L 647.96 284.33 L 648.46 284.29 L 648.67 284.16 L 648.84 282.29 L 648.94 281.28 L 649.18 281.25 L 649.22 281.23 L 649.57 281.09 L 649.68 281.05 L 649.75 280.99 L 649.93 280.76 L 650.00 280.75"/>
	</g>
	<g class="poloto_legend poloto_imgs poloto_line poloto0 poloto_stroke"><line x1="680" x2="730" y1="81.25" y2="81.25"/></g>
	<g class="poloto_legend poloto_imgs poloto_line poloto1 poloto_stroke"><line x1="680" x2="730" y1="131.25" y2="131.25"/></g>
	<g class="poloto_legend poloto_imgs poloto_line poloto2 poloto_stroke"><line x1="680" x2="730" y1="181.25" y2="181.25"/></g>
	<text class="poloto_legend poloto_text poloto_line poloto0" x="675" y="100">total</text>
	<text class="poloto_legend poloto_text poloto_line poloto1" x="675" y="150">code</text>
	<text class="poloto_legend poloto_text poloto_line poloto2" x="675" y="200">docs</text>
	<text class="poloto_text poloto_name poloto_title" x="400.00" y="37.50">Workspace lines over time</text>
	<text class="poloto_text poloto_name poloto_x" x="400.00" y="640">date (JST)</text>
	<text class="poloto_text poloto_name poloto_y" x="37.50" y="250.00" transform="rotate(-90,37.50,250.00)">lines</text>
	<text class="poloto_text poloto_ticks poloto_y">
		<tspan x="135.00" y="400.00">0</tspan>
		<tspan x="135.00" y="326.44">50K</tspan>
		<tspan x="135.00" y="252.87">100K</tspan>
		<tspan x="135.00" y="179.31">150K</tspan>
		<tspan x="135.00" y="105.74">200K</tspan>
	</text>
	<g class="poloto_imgs poloto_ticks poloto_y" stroke="black">
		<line x1="150.00" x2="144.00" y1="400.00" y2="400.00"/>
		<line x1="150.00" x2="144.00" y1="326.44" y2="326.44"/>
		<line x1="150.00" x2="144.00" y1="252.87" y2="252.87"/>
		<line x1="150.00" x2="144.00" y1="179.31" y2="179.31"/>
		<line x1="150.00" x2="144.00" y1="105.74" y2="105.74"/>
	</g>
	<g class="poloto_text poloto_ticks poloto_x">
		<text x="214.72" y="430.00" text-anchor="end" transform="rotate(-90 214.72 430.00)">2026-04-24 12:06</text>
		<text x="314.34" y="430.00" text-anchor="end" transform="rotate(-90 314.34 430.00)">2026-04-30 07:00</text>
		<text x="413.95" y="430.00" text-anchor="end" transform="rotate(-90 413.95 430.00)">2026-05-06 01:53</text>
		<text x="513.57" y="430.00" text-anchor="end" transform="rotate(-90 513.57 430.00)">2026-05-11 20:46</text>
		<text x="613.19" y="430.00" text-anchor="end" transform="rotate(-90 613.19 430.00)">2026-05-17 15:40</text>
	</g>
	<g class="poloto_imgs poloto_ticks poloto_x" stroke="black">
		<line x1="214.72" x2="214.72" y1="400.00" y2="405.00"/>
		<line x1="314.34" x2="314.34" y1="400.00" y2="405.00"/>
		<line x1="413.95" x2="413.95" y1="400.00" y2="405.00"/>
		<line x1="513.57" x2="513.57" y1="400.00" y2="405.00"/>
		<line x1="613.19" x2="613.19" y1="400.00" y2="405.00"/>
	</g>
	<path class="poloto_imgs poloto_ticks poloto_x" stroke="black" style="stroke-dasharray:9.961877885706976;stroke-dashoffset:-64.71694120939355;" d=" M 150.00 400.00 L 650.00 400.00"/>
	<path class="poloto_imgs poloto_ticks poloto_y" stroke="black" style="stroke-dasharray:7.356475169444144;stroke-dashoffset:-0;" d=" M 150.00 400.00 L 150.00 100.00"/>
</svg>

