<svg class="poloto" width="800" height="680" viewBox="0 0 800 680" xmlns="http://www.w3.org/2000/svg">
	<style>
.poloto{
  stroke-linecap:round;
  stroke-linejoin:round;
  font-family:Roboto,sans-serif;
  font-size:16px;
}
.poloto_background{fill:AliceBlue;}
.poloto_scatter{stroke-width:7}
.poloto_line{stroke-width:2}
.poloto_text{fill: black;}
.poloto_name{font-size:24px;dominant-baseline:auto;text-anchor:middle;}
.poloto_where{dominant-baseline:middle;text-anchor:start}
.poloto_text.poloto_legend{font-size:20px;dominant-baseline:middle;text-anchor:start;}
.poloto_text.poloto_ticks.poloto_y{dominant-baseline:middle;text-anchor:end}
.poloto_text.poloto_ticks.poloto_x{dominant-baseline:auto;text-anchor:middle}
.poloto_imgs.poloto_ticks{stroke: black;stroke-width:3;fill:none;stroke-dasharray:none}
.poloto_grid{stroke:gray;stroke-width:0.5}

.poloto0.poloto_stroke{stroke:blue;}
.poloto1.poloto_stroke{stroke:red;}
.poloto2.poloto_stroke{stroke:green;}
.poloto3.poloto_stroke{stroke:gold;}
.poloto4.poloto_stroke{stroke:aqua;}
.poloto5.poloto_stroke{stroke:lime;}
.poloto6.poloto_stroke{stroke:orange;}
.poloto7.poloto_stroke{stroke:chocolate;}
.poloto0.poloto_fill{fill:blue;}
.poloto1.poloto_fill{fill:red;}
.poloto2.poloto_fill{fill:green;}
.poloto3.poloto_fill{fill:gold;}
.poloto4.poloto_fill{fill:aqua;}
.poloto5.poloto_fill{fill:lime;}
.poloto6.poloto_fill{fill:orange;}
.poloto7.poloto_fill{fill:chocolate;}
	</style>
	<circle r="1e5" class="poloto_background" fill="white"/>
	<g id="poloto_plot0" class="poloto_plot poloto_imgs poloto_line poloto0 poloto_stroke" fill="none" stroke="black">
		<path d=" M 150.00 373.73 L 150.02 373.71 L 150.04 373.69 L 150.04 373.69 L 150.06 373.69 L 150.09 370.84 L 150.19 370.50 L 150.42 370.48 L 150.75 370.24 L 150.92 368.80 L 151.27 368.71 L 151.33 368.63 L 151.37 368.60 L 151.77 367.89 L 152.52 367.32 L 152.76 365.08 L 152.82 365.08 L 153.27 364.99 L 153.79 364.98 L 153.79 364.98 L 153.80 364.98 L 160.84 364.98 L 160.88 364.98 L 160.98 364.96 L 161.01 364.93 L 161.28 364.80 L 161.40 364.77 L 161.70 364.56 L 161.74 364.47 L 161.83 364.27 L 161.92 364.24 L 161.94 364.24 L 162.02 364.18 L 162.09 364.18 L 162.17 364.19 L 162.37 363.85 L 162.54 363.65 L 162.57 363.65 L 162.66 363.53 L 163.21 364.04 L 163.23 364.04 L 163.30 363.96 L 163.62 363.57 L 163.87 363.11 L 164.16 362.91 L 164.22 362.88 L 164.23 362.88 L 164.28 362.70 L 164.39 362.70 L 164.53 362.64 L 164.81 362.46 L 164.83 362.20 L 164.88 362.20 L 164.94 362.06 L 165.10 362.06 L 165.12 362.06 L 165.28 361.68 L 165.35 361.66 L 165.41 361.63 L 165.47 361.47 L 166.33 361.26 L 166.54 361.22 L 167.01 360.95 L 167.12 360.95 L 167.19 360.94 L 167.23 360.75 L 167.56 359.61 L 167.71 359.59 L 167.88 359.21 L 167.96 359.18 L 168.16 358.86 L 168.24 358.75 L 168.36 358.55 L 168.47 358.37 L 168.85 355.76 L 168.86 355.70 L 168.88 355.54 L 169.01 354.29 L 175.53 354.20 L 176.21 352.77 L 176.23 352.74 L 177.03 352.51 L 177.10 352.50 L 177.17 352.22 L 177.37 352.08 L 177.46 351.84 L 177.49 351.62 L 177.59 351.25 L 177.82 351.24 L 177.83 350.99 L 177.92 350.71 L 178.01 350.71 L 178.11 350.39 L 178.24 350.17 L 178.29 350.05 L 178.31 350.05 L 178.42 349.80 L 178.43 349.80 L 178.56 349.55 L 178.58 349.55 L 178.77 348.37 L 178.80 348.37 L 178.86 348.17 L 178.94 348.16 L 179.05 348.16 L 179.10 348.14 L 179.46 347.91 L 179.47 347.92 L 179.54 347.40 L 179.70 347.39 L 179.85 346.60 L 179.90 346.53 L 179.97 346.53 L 180.00 346.50 L 180.08 345.89 L 180.49 340.77 L 180.54 340.52 L 180.68 340.50 L 180.72 340.44 L 180.75 340.42 L 180.82 340.29 L 180.88 339.71 L 181.03 339.59 L 181.13 339.57 L 181.21 339.32 L 181.26 339.31 L 181.62 339.12 L 181.82 338.98 L 181.89 338.75 L 182.06 338.74 L 182.07 338.74 L 182.09 338.72 L 182.20 337.49 L 182.28 337.41 L 182.59 336.17 L 182.64 335.81 L 182.69 335.80 L 182.77 335.67 L 182.78 335.57 L 182.82 335.51 L 182.85 335.48 L 182.89 335.48 L 182.93 335.41 L 183.05 334.40 L 183.14 334.25 L 183.22 333.95 L 183.34 333.93 L 183.47 333.84 L 183.60 333.12 L 183.70 332.12 L 183.89 332.07 L 183.89 331.70 L 184.00 331.57 L 193.11 331.58 L 193.29 331.56 L 193.72 331.04 L 193.81 331.02 L 193.88 331.02 L 193.89 330.89 L 194.05 330.73 L 194.16 330.70 L 194.22 330.61 L 194.28 330.54 L 194.32 330.50 L 194.48 330.45 L 194.81 330.39 L 194.89 330.12 L 194.96 330.05 L 195.03 330.04 L 195.46 329.90 L 195.52 329.83 L 195.54 329.83 L 195.57 329.72 L 195.66 329.68 L 195.74 329.58 L 196.04 328.91 L 196.48 328.81 L 196.64 328.76 L 197.13 328.60 L 197.36 325.38 L 197.44 325.31 L 197.54 325.00 L 197.68 324.57 L 197.91 324.45 L 198.22 324.44 L 198.63 324.43 L 198.69 324.29 L 198.99 324.14 L 199.19 323.91 L 199.25 323.81 L 199.37 323.78 L 199.46 323.49 L 200.53 323.18 L 201.56 323.18 L 210.73 323.15 L 210.80 323.01 L 210.85 322.92 L 211.13 322.78 L 211.99 321.67 L 212.03 321.60 L 212.15 321.31 L 212.57 321.24 L 212.77 320.49 L 213.07 320.48 L 213.14 320.47 L 213.21 319.96 L 213.74 317.03 L 213.80 317.02 L 213.91 317.00 L 214.03 316.96 L 214.09 316.65 L 214.38 315.54 L 214.49 315.34 L 214.54 315.32 L 214.61 314.81 L 214.74 314.09 L 214.79 313.33 L 214.93 312.99 L 215.33 309.19 L 215.36 308.81 L 215.40 308.81 L 215.46 308.74 L 215.56 308.64 L 215.60 308.60 L 215.64 308.56 L 215.83 307.65 L 215.87 307.01 L 216.11 306.88 L 216.25 305.92 L 216.33 305.32 L 217.04 296.45 L 217.13 296.43 L 244.08 296.00 L 244.11 296.00 L 254.41 295.88 L 254.97 295.64 L 255.09 295.64 L 255.24 295.57 L 255.29 295.46 L 255.35 295.43 L 259.82 295.37 L 260.41 293.68 L 260.62 293.53 L 260.74 292.91 L 263.52 292.78 L 263.54 292.61 L 263.72 292.60 L 264.55 291.53 L 264.60 291.34 L 264.70 291.27 L 264.99 291.20 L 265.03 291.17 L 265.15 290.85 L 265.27 290.76 L 265.29 290.53 L 273.95 290.20 L 274.02 289.29 L 274.36 289.09 L 274.37 287.57 L 274.43 287.34 L 274.50 286.97 L 274.59 285.92 L 274.74 285.37 L 274.86 284.72 L 274.98 284.71 L 275.02 284.21 L 275.20 284.17 L 275.79 281.72 L 276.04 281.46 L 276.08 281.30 L 276.13 281.30 L 276.16 281.13 L 276.24 280.53 L 276.49 280.24 L 276.52 280.20 L 276.67 278.04 L 276.73 278.04 L 276.75 277.81 L 276.81 277.63 L 276.84 277.63 L 276.88 277.30 L 277.07 276.14 L 277.15 275.81 L 277.25 275.76 L 277.33 272.65 L 277.36 272.39 L 277.55 270.61 L 277.60 270.48 L 277.64 270.47 L 277.69 270.47 L 277.72 270.22 L 277.74 270.22 L 277.75 270.22 L 277.85 267.07 L 277.88 266.80 L 277.97 266.78 L 278.04 266.73 L 278.24 266.64 L 278.48 266.52 L 278.48 266.52 L 278.55 266.48 L 278.77 266.42 L 278.88 266.42 L 278.98 266.42 L 279.09 265.05 L 279.17 264.72 L 279.47 264.71 L 279.50 264.50 L 279.54 264.49 L 279.57 264.26 L 279.77 262.28 L 279.80 262.23 L 279.95 262.22 L 293.27 262.16 L 294.03 262.06 L 294.05 262.06 L 294.20 262.06 L 294.21 262.06 L 294.31 261.66 L 294.38 261.65 L 294.45 261.45 L 294.54 261.40 L 294.57 261.38 L 294.60 261.36 L 294.74 261.14 L 295.03 260.94 L 295.22 260.30 L 295.42 259.70 L 295.43 259.66 L 295.46 259.10 L 295.49 259.08 L 295.89 258.74 L 295.89 258.70 L 295.95 258.25 L 296.13 258.20 L 296.23 258.16 L 296.26 257.35 L 296.26 257.31 L 296.31 258.08 L 296.34 257.61 L 296.36 257.59 L 296.46 256.52 L 296.46 256.48 L 296.67 256.40 L 297.24 256.38 L 297.38 256.34 L 297.42 256.33 L 297.45 256.19 L 297.48 256.19 L 297.56 255.66 L 306.66 254.63 L 306.68 254.49 L 306.76 254.40 L 306.78 254.20 L 306.83 245.22 L 306.93 241.55 L 306.94 241.52 L 307.11 241.45 L 307.15 241.45 L 307.18 241.03 L 307.33 240.99 L 307.72 240.12 L 307.73 240.10 L 307.83 239.83 L 307.87 239.84 L 307.89 239.41 L 308.22 238.90 L 308.23 238.88 L 308.72 238.68 L 308.78 238.22 L 308.96 238.23 L 309.17 237.07 L 309.22 236.61 L 309.25 236.25 L 309.35 235.80 L 309.61 235.64 L 309.65 235.53 L 309.77 235.43 L 309.89 235.43 L 310.27 235.43 L 310.32 235.43 L 310.40 235.41 L 310.41 235.41 L 310.54 235.42 L 310.82 235.39 L 311.12 235.23 L 311.17 235.22 L 311.23 235.16 L 311.32 235.03 L 311.55 235.03 L 311.93 234.87 L 312.06 234.51 L 312.27 231.42 L 313.10 234.04 L 313.29 234.02 L 313.42 234.01 L 313.63 234.01 L 313.70 233.96 L 313.91 233.81 L 314.23 233.60 L 314.28 233.46 L 314.34 233.40 L 314.38 233.41 L 314.41 233.37 L 314.67 233.17 L 320.70 233.17 L 320.76 233.17 L 321.14 233.16 L 321.17 233.15 L 321.26 232.75 L 321.33 232.53 L 321.34 232.53 L 321.54 232.50 L 321.59 232.48 L 322.83 231.89 L 322.97 231.85 L 323.08 231.83 L 323.11 231.83 L 323.49 231.69 L 323.62 231.76 L 323.64 231.76 L 323.85 231.72 L 324.07 230.49 L 324.10 230.49 L 324.29 230.35 L 324.37 230.35 L 324.44 230.35 L 324.59 230.21 L 324.93 229.72 L 324.99 229.70 L 325.05 229.56 L 325.19 228.98 L 325.52 228.37 L 325.82 225.53 L 325.88 225.18 L 326.18 225.04 L 326.23 224.97 L 326.28 224.83 L 326.31 224.37 L 326.42 223.55 L 326.44 223.59 L 326.49 223.57 L 326.66 223.57 L 326.93 223.27 L 327.09 223.21 L 327.27 223.20 L 327.36 223.19 L 327.54 223.18 L 327.85 223.18 L 328.15 223.17 L 328.38 223.17 L 328.44 223.16 L 328.50 223.15 L 328.50 223.05 L 328.68 222.99 L 328.73 222.98 L 328.80 222.86 L 329.29 222.84 L 329.30 222.59 L 329.44 222.58 L 330.02 222.59 L 330.40 222.44 L 330.68 222.25 L 330.69 222.15 L 330.71 222.15 L 339.16 221.98 L 339.19 221.98 L 339.29 221.97 L 339.34 221.83 L 339.37 221.81 L 339.37 221.80 L 339.73 221.76 L 339.81 221.25 L 339.92 221.13 L 340.10 220.12 L 340.22 220.11 L 340.36 219.68 L 340.44 219.73 L 340.48 219.72 L 340.52 219.23 L 340.63 218.89 L 340.64 218.54 L 340.68 218.49 L 340.77 218.46 L 340.83 218.29 L 340.91 220.23 L 341.01 220.19 L 341.22 219.42 L 341.31 219.23 L 341.39 219.07 L 341.91 217.95 L 342.35 217.42 L 342.89 216.39 L 343.02 216.34 L 343.17 216.34 L 343.34 216.29 L 346.45 216.00 L 346.70 215.98 L 376.15 215.19 L 468.88 215.01 L 469.19 214.70 L 469.40 214.66 L 469.61 214.66 L 469.93 214.05 L 470.04 213.76 L 470.13 213.22 L 470.28 211.66 L 470.49 211.98 L 470.66 211.64 L 470.70 211.63 L 470.85 211.53 L 470.88 211.53 L 471.03 210.96 L 471.17 210.04 L 471.59 209.07 L 471.60 208.99 L 471.72 207.83 L 472.12 204.96 L 472.13 204.86 L 472.21 204.80 L 472.30 203.77 L 472.74 202.39 L 472.75 202.26 L 472.84 202.20 L 472.94 201.51 L 473.10 200.98 L 473.11 200.88 L 473.18 199.82 L 473.19 199.80 L 473.23 199.50 L 473.41 197.63 L 473.44 197.53 L 473.50 197.42 L 473.70 197.17 L 473.74 197.16 L 473.89 196.80 L 474.15 196.84 L 474.19 196.80 L 474.22 196.77 L 474.27 196.74 L 474.40 195.65 L 474.53 194.75 L 474.55 194.67 L 474.63 193.55 L 474.71 192.46 L 474.73 192.32 L 474.81 191.04 L 474.85 190.03 L 475.01 189.36 L 475.03 189.31 L 475.11 189.10 L 475.22 189.08 L 475.89 189.05 L 476.22 189.02 L 483.46 189.06 L 483.53 188.87 L 483.61 188.70 L 483.73 187.94 L 484.00 187.75 L 484.02 187.68 L 484.07 186.68 L 484.25 185.72 L 484.26 185.63 L 485.85 185.57 L 485.94 185.02 L 486.74 184.86 L 486.83 184.82 L 486.92 183.70 L 487.88 182.64 L 488.29 182.24 L 488.39 181.42 L 488.74 180.01 L 488.95 179.60 L 489.31 178.77 L 489.94 178.35 L 499.64 178.34 L 500.22 178.25 L 500.25 178.27 L 501.06 178.10 L 501.10 178.02 L 501.38 177.96 L 501.71 177.04 L 501.71 177.04 L 501.75 177.00 L 502.18 175.95 L 503.18 175.35 L 503.24 175.30 L 503.34 175.29 L 503.50 175.01 L 503.54 174.94 L 503.60 174.89 L 504.06 174.85 L 504.43 174.85 L 504.63 174.85 L 504.66 174.81 L 505.07 173.89 L 505.39 173.71 L 505.41 173.65 L 505.44 173.57 L 505.49 173.32 L 516.01 172.97 L 516.03 172.95 L 516.06 172.94 L 516.26 172.84 L 516.42 172.72 L 517.35 171.31 L 517.58 171.15 L 518.25 170.72 L 518.82 170.62 L 519.25 170.48 L 519.37 169.18 L 519.90 167.65 L 520.10 167.54 L 520.17 166.56 L 521.72 164.75 L 521.74 164.75 L 521.82 164.31 L 522.12 164.26 L 522.12 164.26 L 522.14 164.15 L 522.19 164.01 L 522.33 163.87 L 522.50 163.11 L 524.11 161.28 L 524.32 161.06 L 524.47 160.73 L 524.49 160.69 L 524.52 160.43 L 531.69 159.61 L 531.92 158.98 L 532.05 158.95 L 532.10 158.53 L 532.78 158.34 L 532.92 157.92 L 533.05 157.92 L 533.12 157.04 L 533.35 154.81 L 533.38 154.77 L 533.69 154.74 L 533.75 154.01 L 534.01 153.13 L 534.07 152.53 L 534.28 151.97 L 534.44 151.67 L 534.56 151.01 L 534.83 150.44 L 534.86 149.80 L 535.20 149.66 L 535.23 149.66 L 535.29 148.85 L 535.36 148.85 L 535.40 148.78 L 535.80 147.27 L 536.38 146.77 L 536.66 146.93 L 537.61 146.86 L 537.63 146.86 L 537.78 146.84 L 537.85 146.82 L 537.95 146.72 L 538.07 146.63 L 538.20 146.46 L 538.48 146.25 L 538.75 146.23 L 539.60 146.08 L 539.64 146.07 L 540.49 145.93 L 540.85 145.83 L 548.10 145.82 L 548.47 145.71 L 548.65 145.63 L 548.73 145.63 L 548.75 145.63 L 548.93 145.61 L 549.02 145.56 L 549.23 145.42 L 549.36 145.39 L 549.83 145.24 L 550.08 144.90 L 550.49 144.84 L 550.60 144.63 L 550.74 144.49 L 550.92 144.31 L 551.54 144.36 L 551.60 144.35 L 552.52 143.92 L 552.66 143.68 L 552.84 143.59 L 553.28 143.39 L 553.49 143.45 L 553.59 143.78 L 553.68 143.76 L 553.81 143.62 L 554.20 142.62 L 554.61 142.52 L 554.97 142.44 L 555.01 142.39 L 555.05 142.11 L 581.28 142.04 L 581.45 141.91 L 596.53 141.59 L 596.61 141.96 L 596.73 140.43 L 596.75 140.43 L 596.79 140.47 L 597.34 137.37 L 597.39 137.34 L 598.06 137.41 L 598.74 137.22 L 598.97 136.93 L 599.39 136.55 L 599.95 136.31 L 599.97 136.31 L 600.04 136.25 L 600.26 136.19 L 600.33 136.04 L 600.87 135.29 L 601.58 135.13 L 601.66 134.98 L 602.01 134.92 L 602.11 135.51 L 602.38 135.29 L 602.61 135.24 L 603.07 135.08 L 603.51 135.00 L 603.73 134.67 L 603.74 134.67 L 613.18 134.66 L 616.14 133.81 L 616.26 133.40 L 616.41 133.02 L 616.89 132.99 L 617.08 132.86 L 617.24 130.87 L 617.33 129.58 L 617.56 129.46 L 617.59 129.44 L 617.92 129.06 L 618.03 128.86 L 618.09 128.76 L 618.26 128.44 L 618.33 128.42 L 618.42 128.38 L 618.49 128.19 L 618.57 127.97 L 618.66 127.86 L 618.73 127.82 L 619.04 127.73 L 619.19 127.51 L 619.31 127.39 L 619.35 126.76 L 619.70 126.64 L 619.83 126.27 L 628.73 126.35 L 629.38 126.12 L 629.49 126.12 L 629.89 125.38 L 630.07 125.28 L 630.81 124.08 L 631.13 123.96 L 631.56 122.87 L 631.61 122.87 L 631.87 122.84 L 631.96 122.22 L 632.29 121.34 L 632.81 120.82 L 632.98 120.19 L 636.12 118.59 L 636.42 118.12 L 636.44 118.12 L 644.80 116.63 L 644.80 116.63 L 644.91 116.57 L 645.00 115.75 L 645.39 114.81 L 645.42 114.80 L 645.88 114.68 L 646.55 114.56 L 647.31 114.52 L 647.36 114.46 L 647.44 114.41 L 647.57 114.41 L 647.79 114.28 L 647.88 114.21 L 647.99 114.20 L 648.14 114.06 L 649.27 113.53 L 649.39 112.71 L 649.66 100.42 L 649.75 100.32 L 649.82 100.29 L 649.90 100.02 L 649.99 100.00 L 650.00 100.00"/>
	</g>
	<g id="poloto_plot1" class="poloto_plot poloto_imgs poloto_line poloto1 poloto_stroke" fill="none" stroke="black">
		<path d=" M 150.00 384.39 L 150.02 384.38 L 150.04 384.36 L 150.04 384.36 L 150.06 384.36 L 150.09 383.87 L 150.19 383.85 L 150.42 383.85 L 150.75 383.66 L 150.92 383.57 L 151.27 383.59 L 151.33 383.56 L 151.37 383.56 L 151.77 383.52 L 152.52 383.43 L 152.76 381.50 L 152.82 381.50 L 153.27 381.45 L 153.79 381.44 L 153.79 381.44 L 153.80 381.44 L 160.84 381.44 L 160.88 381.44 L 160.98 381.44 L 161.01 381.42 L 161.28 381.41 L 161.40 381.41 L 161.70 381.41 L 161.74 381.41 L 161.83 381.39 L 161.92 381.39 L 161.94 381.39 L 162.02 381.37 L 162.09 381.37 L 162.17 381.37 L 162.37 381.26 L 162.54 381.26 L 162.57 381.26 L 162.66 381.26 L 163.21 381.99 L 163.23 381.99 L 163.30 381.98 L 163.62 381.87 L 163.87 381.75 L 164.16 381.69 L 164.22 381.66 L 164.23 381.66 L 164.28 381.66 L 164.39 381.66 L 164.53 381.61 L 164.81 381.57 L 164.83 381.57 L 164.88 381.57 L 164.94 381.55 L 165.10 381.55 L 165.12 381.55 L 165.28 381.54 L 165.35 381.54 L 165.41 381.54 L 165.47 381.54 L 166.33 381.46 L 166.54 381.45 L 167.01 381.41 L 167.12 381.41 L 167.19 381.41 L 167.23 381.41 L 167.56 381.35 L 167.71 381.35 L 167.88 381.28 L 167.96 381.27 L 168.16 381.12 L 168.24 381.06 L 168.36 381.06 L 168.47 381.06 L 168.85 378.80 L 168.86 378.77 L 168.88 378.77 L 169.01 378.55 L 175.53 378.55 L 176.21 377.57 L 176.23 377.57 L 177.03 377.57 L 177.10 377.57 L 177.17 377.47 L 177.37 377.45 L 177.46 377.45 L 177.49 377.45 L 177.59 377.45 L 177.82 377.45 L 177.83 377.24 L 177.92 377.23 L 178.01 377.23 L 178.11 377.21 L 178.24 377.21 L 178.29 377.21 L 178.31 377.21 L 178.42 377.21 L 178.43 377.21 L 178.56 377.21 L 178.58 377.21 L 178.77 376.25 L 178.80 376.25 L 178.86 376.13 L 178.94 376.13 L 179.05 376.13 L 179.10 376.12 L 179.46 376.12 L 179.47 376.12 L 179.54 376.06 L 179.70 376.06 L 179.85 375.51 L 179.90 375.45 L 179.97 375.45 L 180.00 375.45 L 180.08 375.43 L 180.49 371.40 L 180.54 371.43 L 180.68 371.43 L 180.72 371.43 L 180.75 371.43 L 180.82 371.43 L 180.88 371.37 L 181.03 371.37 L 181.13 371.37 L 181.21 371.36 L 181.26 371.36 L 181.62 371.36 L 181.82 371.35 L 181.89 371.25 L 182.06 371.25 L 182.07 371.25 L 182.09 371.25 L 182.20 370.98 L 182.28 370.91 L 182.59 369.96 L 182.64 369.96 L 182.69 369.96 L 182.77 369.97 L 182.78 369.97 L 182.82 369.97 L 182.85 369.97 L 182.89 369.97 L 182.93 369.97 L 183.05 369.95 L 183.14 369.95 L 183.22 369.94 L 183.34 369.94 L 183.47 369.93 L 183.60 369.57 L 183.70 369.45 L 183.89 369.45 L 183.89 369.45 L 184.00 369.45 L 193.11 369.45 L 193.29 369.44 L 193.72 369.38 L 193.81 369.37 L 193.88 369.37 L 193.89 369.37 L 194.05 369.37 L 194.16 369.37 L 194.22 369.37 L 194.28 369.37 L 194.32 369.37 L 194.48 369.37 L 194.81 369.39 L 194.89 369.39 L 194.96 369.39 L 195.03 369.39 L 195.46 369.31 L 195.52 369.28 L 195.54 369.28 L 195.57 369.22 L 195.66 369.22 L 195.74 369.22 L 196.04 368.85 L 196.48 368.85 L 196.64 368.85 L 197.13 368.85 L 197.36 366.38 L 197.44 366.38 L 197.54 366.38 L 197.68 366.38 L 197.91 366.38 L 198.22 366.38 L 198.63 366.38 L 198.69 366.38 L 198.99 366.32 L 199.19 366.22 L 199.25 366.22 L 199.37 366.22 L 199.46 366.20 L 200.53 366.05 L 201.56 366.05 L 210.73 366.04 L 210.80 366.04 L 210.85 366.04 L 211.13 366.04 L 211.99 365.27 L 212.03 365.24 L 212.15 365.16 L 212.57 365.16 L 212.77 364.97 L 213.07 364.97 L 213.14 364.97 L 213.21 364.97 L 213.74 362.81 L 213.80 362.81 L 213.91 362.81 L 214.03 362.81 L 214.09 362.67 L 214.38 362.41 L 214.49 362.41 L 214.54 362.41 L 214.61 362.01 L 214.74 361.61 L 214.79 361.61 L 214.93 361.60 L 215.33 358.37 L 215.36 358.37 L 215.40 358.37 L 215.46 358.37 L 215.56 358.37 L 215.60 358.37 L 215.64 358.37 L 215.83 358.37 L 215.87 358.30 L 216.11 358.29 L 216.25 358.25 L 216.33 357.86 L 217.04 351.43 L 217.13 351.43 L 244.08 351.43 L 244.11 351.43 L 254.41 351.43 L 254.97 351.34 L 255.09 351.34 L 255.24 351.34 L 255.29 351.34 L 255.35 351.34 L 259.82 351.29 L 260.41 351.22 L 260.62 351.22 L 260.74 351.20 L 263.52 351.15 L 263.54 351.06 L 263.72 351.06 L 264.55 350.19 L 264.60 350.19 L 264.70 350.19 L 264.99 350.19 L 265.03 350.19 L 265.15 350.19 L 265.27 350.19 L 265.29 350.19 L 273.95 350.18 L 274.02 350.03 L 274.36 350.03 L 274.37 348.98 L 274.43 348.98 L 274.50 348.98 L 274.59 348.88 L 274.74 348.88 L 274.86 348.83 L 274.98 348.83 L 275.02 348.83 L 275.20 348.82 L 275.79 347.04 L 276.04 347.04 L 276.08 347.03 L 276.13 347.03 L 276.16 347.03 L 276.24 347.00 L 276.49 346.78 L 276.52 346.75 L 276.67 345.15 L 276.73 345.14 L 276.75 345.14 L 276.81 345.12 L 276.84 345.12 L 276.88 345.11 L 277.07 344.24 L 277.15 344.23 L 277.25 344.21 L 277.33 341.50 L 277.36 341.50 L 277.55 339.98 L 277.60 339.98 L 277.64 339.97 L 277.69 339.97 L 277.72 339.97 L 277.74 339.97 L 277.75 339.97 L 277.85 337.15 L 277.88 337.15 L 277.97 337.14 L 278.04 337.14 L 278.24 337.08 L 278.48 337.00 L 278.48 337.00 L 278.55 336.99 L 278.77 336.94 L 278.88 336.94 L 278.98 336.94 L 279.09 335.73 L 279.17 335.73 L 279.47 335.72 L 279.50 335.72 L 279.54 335.72 L 279.57 335.72 L 279.77 333.98 L 279.80 333.98 L 279.95 333.97 L 293.27 333.97 L 294.03 333.96 L 294.05 333.96 L 294.20 333.96 L 294.21 333.96 L 294.31 333.96 L 294.38 333.95 L 294.45 333.87 L 294.54 333.87 L 294.57 333.87 L 294.60 333.87 L 294.74 333.71 L 295.03 333.61 L 295.22 333.51 L 295.42 333.02 L 295.43 333.02 L 295.46 332.89 L 295.49 332.88 L 295.89 332.58 L 295.89 332.58 L 295.95 332.54 L 296.13 332.54 L 296.23 332.51 L 296.26 331.79 L 296.26 331.79 L 296.31 332.50 L 296.34 332.46 L 296.36 332.45 L 296.46 331.48 L 296.46 331.48 L 296.67 331.44 L 297.24 331.44 L 297.38 331.44 L 297.42 331.44 L 297.45 331.44 L 297.48 331.44 L 297.56 331.38 L 306.66 330.58 L 306.68 330.58 L 306.76 330.57 L 306.78 330.40 L 306.83 321.83 L 306.93 318.64 L 306.94 318.64 L 307.11 318.58 L 307.15 318.58 L 307.18 318.56 L 307.33 318.56 L 307.72 317.79 L 307.73 317.79 L 307.83 317.74 L 307.87 317.74 L 307.89 317.68 L 308.22 317.21 L 308.23 317.21 L 308.72 317.12 L 308.78 317.08 L 308.96 317.09 L 309.17 316.04 L 309.22 315.93 L 309.25 315.84 L 309.35 315.44 L 309.61 315.34 L 309.65 315.26 L 309.77 315.26 L 309.89 315.26 L 310.27 315.26 L 310.32 315.26 L 310.40 315.26 L 310.41 315.26 L 310.54 315.27 L 310.82 315.27 L 311.12 315.16 L 311.17 315.16 L 311.23 315.15 L 311.32 315.15 L 311.55 315.15 L 311.93 315.15 L 312.06 315.05 L 312.27 312.28 L 313.10 314.90 L 313.29 314.88 L 313.42 314.88 L 313.63 314.88 L 313.70 314.85 L 313.91 314.83 L 314.23 314.67 L 314.28 314.67 L 314.34 314.67 L 314.38 314.67 L 314.41 314.67 L 314.67 314.52 L 320.70 314.52 L 320.76 314.52 L 321.14 314.51 L 321.17 314.51 L 321.26 314.48 L 321.33 314.29 L 321.34 314.29 L 321.54 314.27 L 321.59 314.27 L 322.83 314.11 L 322.97 314.11 L 323.08 314.11 L 323.11 314.11 L 323.49 314.00 L 323.62 314.00 L 323.64 314.00 L 323.85 313.99 L 324.07 313.34 L 324.10 313.34 L 324.29 313.23 L 324.37 313.23 L 324.44 313.23 L 324.59 313.23 L 324.93 313.22 L 324.99 313.20 L 325.05 313.14 L 325.19 313.03 L 325.52 312.93 L 325.82 310.32 L 325.88 310.23 L 326.18 310.11 L 326.23 310.07 L 326.28 309.98 L 326.31 309.80 L 326.42 309.02 L 326.44 309.05 L 326.49 309.03 L 326.66 309.03 L 326.93 308.92 L 327.09 308.88 L 327.27 308.87 L 327.36 308.86 L 327.54 308.85 L 327.85 308.85 L 328.15 308.84 L 328.38 308.84 L 328.44 308.84 L 328.50 308.83 L 328.50 308.83 L 328.68 308.83 L 328.73 308.82 L 328.80 308.72 L 329.29 308.71 L 329.30 308.71 L 329.44 308.70 L 330.02 308.70 L 330.40 308.57 L 330.68 308.46 L 330.69 308.46 L 330.71 308.46 L 339.16 308.46 L 339.19 308.46 L 339.29 308.46 L 339.34 308.46 L 339.37 308.44 L 339.37 308.44 L 339.73 308.44 L 339.81 308.43 L 339.92 308.42 L 340.10 308.40 L 340.22 308.40 L 340.36 308.34 L 340.44 308.34 L 340.48 308.34 L 340.52 308.34 L 340.63 308.10 L 340.64 308.10 L 340.68 308.10 L 340.77 308.10 L 340.83 308.10 L 340.91 308.15 L 341.01 308.15 L 341.22 308.14 L 341.31 308.14 L 341.39 308.14 L 341.91 307.38 L 342.35 307.17 L 342.89 306.62 L 343.02 306.62 L 343.17 306.62 L 343.34 306.62 L 346.45 306.55 L 346.70 306.55 L 376.15 306.45 L 468.88 306.31 L 469.19 306.27 L 469.40 306.26 L 469.61 306.26 L 469.93 305.91 L 470.04 305.91 L 470.13 305.91 L 470.28 304.62 L 470.49 304.87 L 470.66 304.85 L 470.70 304.85 L 470.85 304.84 L 470.88 304.84 L 471.03 304.83 L 471.17 304.78 L 471.59 303.96 L 471.60 303.96 L 471.72 303.89 L 472.12 301.26 L 472.13 301.26 L 472.21 301.26 L 472.30 301.22 L 472.74 299.99 L 472.75 299.99 L 472.84 299.99 L 472.94 299.96 L 473.10 299.51 L 473.11 299.51 L 473.18 299.51 L 473.19 299.51 L 473.23 299.26 L 473.41 297.52 L 473.44 297.52 L 473.50 297.52 L 473.70 297.37 L 473.74 297.37 L 473.89 297.09 L 474.15 297.09 L 474.19 297.09 L 474.22 297.09 L 474.27 297.09 L 474.40 297.08 L 474.53 296.29 L 474.55 296.29 L 474.63 296.29 L 474.71 295.70 L 474.73 295.70 L 474.81 295.07 L 474.85 295.03 L 475.01 294.41 L 475.03 294.41 L 475.11 294.41 L 475.22 294.39 L 475.89 294.39 L 476.22 294.39 L 483.46 294.39 L 483.53 294.39 L 483.61 294.39 L 483.73 294.39 L 484.00 294.22 L 484.02 294.22 L 484.07 294.17 L 484.25 293.30 L 484.26 293.30 L 485.85 293.32 L 485.94 293.15 L 486.74 293.15 L 486.83 293.14 L 486.92 293.08 L 487.88 292.36 L 488.29 292.23 L 488.39 292.18 L 488.74 290.82 L 488.95 290.82 L 489.31 290.71 L 489.94 290.71 L 499.64 290.70 L 500.22 290.62 L 500.25 290.64 L 501.06 290.64 L 501.10 290.64 L 501.38 290.64 L 501.71 290.61 L 501.71 290.61 L 501.75 290.61 L 502.18 289.82 L 503.18 289.80 L 503.24 289.79 L 503.34 289.79 L 503.50 289.76 L 503.54 289.74 L 503.60 289.74 L 504.06 289.70 L 504.43 289.70 L 504.63 289.70 L 504.66 289.70 L 505.07 289.68 L 505.39 289.59 L 505.41 289.59 L 505.44 289.59 L 505.49 289.59 L 516.01 289.40 L 516.03 289.40 L 516.06 289.40 L 516.26 289.40 L 516.42 289.40 L 517.35 288.62 L 517.58 288.57 L 518.25 288.51 L 518.82 288.47 L 519.25 288.47 L 519.37 288.47 L 519.90 287.28 L 520.10 287.25 L 520.17 287.21 L 521.72 286.38 L 521.74 286.38 L 521.82 286.37 L 522.12 286.36 L 522.12 286.36 L 522.14 286.36 L 522.19 286.33 L 522.33 286.30 L 522.50 286.21 L 524.11 284.83 L 524.32 284.76 L 524.47 284.76 L 524.49 284.76 L 524.52 284.76 L 531.69 284.76 L 531.92 284.75 L 532.05 284.75 L 532.10 284.75 L 532.78 284.75 L 532.92 284.75 L 533.05 284.75 L 533.12 284.72 L 533.35 282.92 L 533.38 282.91 L 533.69 282.92 L 533.75 282.91 L 534.01 282.21 L 534.07 282.17 L 534.28 281.71 L 534.44 281.71 L 534.56 281.67 L 534.83 281.25 L 534.86 281.25 L 535.20 279.91 L 535.23 279.91 L 535.29 279.91 L 535.36 279.91 L 535.40 279.91 L 535.80 278.56 L 536.38 278.44 L 536.66 278.44 L 537.61 278.41 L 537.63 278.41 L 537.78 278.41 L 537.85 278.41 L 537.95 278.41 L 538.07 278.41 L 538.20 278.39 L 538.48 278.37 L 538.75 278.37 L 539.60 278.31 L 539.64 278.31 L 540.49 278.28 L 540.85 278.24 L 548.10 278.26 L 548.47 278.19 L 548.65 278.12 L 548.73 278.12 L 548.75 278.12 L 548.93 278.11 L 549.02 278.11 L 549.23 278.11 L 549.36 278.11 L 549.83 277.98 L 550.08 277.74 L 550.49 277.73 L 550.60 277.56 L 550.74 277.49 L 550.92 277.42 L 551.54 277.49 L 551.60 277.49 L 552.52 277.24 L 552.66 277.24 L 552.84 277.24 L 553.28 277.21 L 553.49 277.34 L 553.59 277.34 L 553.68 277.34 L 553.81 277.34 L 554.20 276.76 L 554.61 276.74 L 554.97 276.74 L 555.01 276.74 L 555.05 276.74 L 581.28 276.74 L 581.45 276.70 L 596.53 276.51 L 596.61 276.51 L 596.73 276.46 L 596.75 276.46 L 596.79 276.46 L 597.34 274.22 L 597.39 274.22 L 598.06 274.22 L 598.74 274.12 L 598.97 273.90 L 599.39 273.61 L 599.95 273.54 L 599.97 273.54 L 600.04 273.49 L 600.26 273.49 L 600.33 273.45 L 600.87 272.85 L 601.58 272.75 L 601.66 272.75 L 602.01 272.75 L 602.11 272.75 L 602.38 272.60 L 602.61 272.57 L 603.07 272.45 L 603.51 272.38 L 603.73 272.38 L 603.74 272.38 L 613.18 272.38 L 616.14 272.34 L 616.26 272.32 L 616.41 272.05 L 616.89 272.06 L 617.08 272.06 L 617.24 272.06 L 617.33 271.95 L 617.56 271.87 L 617.59 271.86 L 617.92 271.65 L 618.03 271.50 L 618.09 271.45 L 618.26 271.35 L 618.33 271.34 L 618.42 271.33 L 618.49 271.20 L 618.57 271.06 L 618.66 271.03 L 618.73 271.03 L 619.04 270.98 L 619.19 270.87 L 619.31 270.78 L 619.35 270.78 L 619.70 270.78 L 619.83 270.78 L 628.73 270.80 L 629.38 270.79 L 629.49 270.79 L 629.89 270.41 L 630.07 270.36 L 630.81 270.32 L 631.13 270.32 L 631.56 269.42 L 631.61 269.42 L 631.87 269.40 L 631.96 269.39 L 632.29 269.34 L 632.81 268.92 L 632.98 268.91 L 636.12 267.93 L 636.42 267.93 L 636.44 267.93 L 644.80 267.91 L 644.80 267.91 L 644.91 267.91 L 645.00 267.80 L 645.39 266.96 L 645.42 266.96 L 645.88 266.96 L 646.55 266.96 L 647.31 266.96 L 647.36 266.96 L 647.44 266.96 L 647.57 266.96 L 647.79 266.84 L 647.88 266.84 L 647.99 266.83 L 648.14 266.70 L 649.27 266.57 L 649.39 266.57 L 649.66 254.82 L 649.75 254.82 L 649.82 254.80 L 649.90 254.60 L 649.99 254.60 L 650.00 254.60"/>
	</g>
	<g id="poloto_plot2" class="poloto_plot poloto_imgs poloto_line poloto2 poloto_stroke" fill="none" stroke="black">
		<path d=" M 150.00 393.00 L 150.02 392.99 L 150.04 392.99 L 150.04 392.99 L 150.06 392.99 L 150.09 391.20 L 150.19 390.95 L 150.42 390.95 L 150.75 390.93 L 150.92 389.86 L 151.27 389.77 L 151.33 389.74 L 151.37 389.71 L 151.77 389.23 L 152.52 388.85 L 152.76 388.78 L 152.82 388.79 L 153.27 388.76 L 153.79 388.76 L 153.79 388.76 L 153.80 388.76 L 160.84 388.76 L 160.88 388.75 L 160.98 388.74 L 161.01 388.74 L 161.28 388.63 L 161.40 388.60 L 161.70 388.42 L 161.74 388.35 L 161.83 388.19 L 161.92 388.17 L 161.94 388.16 L 162.02 388.14 L 162.09 388.14 L 162.17 388.14 L 162.37 387.96 L 162.54 387.79 L 162.57 387.79 L 162.66 387.70 L 163.21 387.48 L 163.23 387.48 L 163.30 387.41 L 163.62 387.17 L 163.87 386.88 L 164.16 386.76 L 164.22 386.76 L 164.23 386.76 L 164.28 386.60 L 164.39 386.60 L 164.53 386.58 L 164.81 386.46 L 164.83 386.25 L 164.88 386.25 L 164.94 386.15 L 165.10 386.15 L 165.12 386.15 L 165.28 385.83 L 165.35 385.81 L 165.41 385.79 L 165.47 385.64 L 166.33 385.55 L 166.54 385.52 L 167.01 385.30 L 167.12 385.31 L 167.19 385.29 L 167.23 385.13 L 167.56 384.25 L 167.71 384.24 L 167.88 383.98 L 167.96 383.95 L 168.16 383.83 L 168.24 383.79 L 168.36 383.60 L 168.47 383.45 L 168.85 383.45 L 168.86 383.43 L 168.88 383.30 L 169.01 382.46 L 175.53 382.37 L 176.21 382.11 L 176.23 382.08 L 177.03 381.87 L 177.10 381.86 L 177.17 381.71 L 177.37 381.60 L 177.46 381.41 L 177.49 381.25 L 177.59 380.94 L 177.82 380.93 L 177.83 380.93 L 177.92 380.71 L 178.01 380.71 L 178.11 380.48 L 178.24 380.29 L 178.29 380.19 L 178.31 380.19 L 178.42 379.98 L 178.43 379.97 L 178.56 379.78 L 178.58 379.77 L 178.77 379.71 L 178.80 379.71 L 178.86 379.63 L 178.94 379.62 L 179.05 379.62 L 179.10 379.61 L 179.46 379.42 L 179.47 379.42 L 179.54 379.04 L 179.70 379.03 L 179.85 378.91 L 179.90 378.91 L 179.97 378.90 L 180.00 378.87 L 180.08 378.35 L 180.49 377.91 L 180.54 377.67 L 180.68 377.65 L 180.72 377.59 L 180.75 377.58 L 180.82 377.47 L 180.88 377.05 L 181.03 376.99 L 181.13 376.98 L 181.21 376.77 L 181.26 376.76 L 181.62 376.61 L 181.82 376.50 L 181.89 376.40 L 182.06 376.40 L 182.07 376.40 L 182.09 376.37 L 182.20 375.63 L 182.28 375.62 L 182.59 375.51 L 182.64 375.21 L 182.69 375.21 L 182.77 375.08 L 182.78 375.01 L 182.82 374.96 L 182.85 374.93 L 182.89 374.93 L 182.93 374.87 L 183.05 374.03 L 183.14 373.94 L 183.22 373.69 L 183.34 373.67 L 183.47 373.59 L 183.60 373.33 L 183.70 372.60 L 183.89 372.54 L 183.89 372.23 L 184.00 372.15 L 193.11 372.15 L 193.29 372.15 L 193.72 371.81 L 193.81 371.81 L 193.88 371.81 L 193.89 371.72 L 194.05 371.57 L 194.16 371.54 L 194.22 371.45 L 194.28 371.39 L 194.32 371.36 L 194.48 371.31 L 194.81 371.38 L 194.89 371.15 L 194.96 371.09 L 195.03 371.08 L 195.46 371.04 L 195.52 371.00 L 195.54 371.00 L 195.57 370.95 L 195.66 370.91 L 195.74 370.83 L 196.04 370.61 L 196.48 370.52 L 196.64 370.48 L 197.13 370.34 L 197.36 370.00 L 197.44 369.94 L 197.54 369.67 L 197.68 369.33 L 197.91 369.24 L 198.22 369.23 L 198.63 369.22 L 198.69 369.09 L 198.99 369.01 L 199.19 368.90 L 199.25 368.81 L 199.37 368.78 L 199.46 368.55 L 200.53 368.44 L 201.56 368.44 L 210.73 368.41 L 210.80 368.29 L 210.85 368.20 L 211.13 368.07 L 211.99 367.85 L 212.03 367.81 L 212.15 367.65 L 212.57 367.59 L 212.77 367.15 L 213.07 367.13 L 213.14 367.12 L 213.21 366.68 L 213.74 366.28 L 213.80 366.27 L 213.91 366.25 L 214.03 366.21 L 214.09 366.06 L 214.38 365.38 L 214.49 365.21 L 214.54 365.20 L 214.61 365.12 L 214.74 364.86 L 214.79 364.18 L 214.93 363.90 L 215.33 363.74 L 215.36 363.40 L 215.40 363.40 L 215.46 363.34 L 215.56 363.24 L 215.60 363.22 L 215.64 363.19 L 215.83 362.39 L 215.87 361.93 L 216.11 361.84 L 216.25 361.05 L 216.33 360.90 L 217.04 359.65 L 217.13 359.63 L 244.08 359.27 L 244.11 359.27 L 254.41 359.17 L 254.97 359.04 L 255.09 359.04 L 255.24 358.97 L 255.29 358.87 L 255.35 358.85 L 259.82 358.84 L 260.41 357.41 L 260.62 357.28 L 260.74 356.79 L 263.52 356.73 L 263.54 356.68 L 263.72 356.67 L 264.55 356.59 L 264.60 356.42 L 264.70 356.36 L 264.99 356.29 L 265.03 356.27 L 265.15 356.00 L 265.27 355.91 L 265.29 355.70 L 273.95 355.43 L 274.02 354.78 L 274.36 354.61 L 274.37 354.37 L 274.43 354.17 L 274.50 353.87 L 274.59 353.09 L 274.74 352.66 L 274.86 352.10 L 274.98 352.10 L 275.02 351.67 L 275.20 351.64 L 275.79 351.23 L 276.04 351.04 L 276.08 350.93 L 276.13 350.92 L 276.16 350.78 L 276.24 350.30 L 276.49 350.25 L 276.52 350.24 L 276.67 349.93 L 276.73 349.93 L 276.75 349.75 L 276.81 349.63 L 276.84 349.63 L 276.88 349.37 L 277.07 349.22 L 277.15 348.97 L 277.25 348.96 L 277.33 348.83 L 277.36 348.63 L 277.55 348.53 L 277.60 348.42 L 277.64 348.42 L 277.69 348.41 L 277.72 348.22 L 277.74 348.23 L 277.75 348.22 L 277.85 348.15 L 277.88 347.93 L 277.97 347.93 L 278.04 347.88 L 278.24 347.86 L 278.48 347.84 L 278.48 347.84 L 278.55 347.83 L 278.77 347.83 L 278.88 347.83 L 278.98 347.83 L 279.09 347.79 L 279.17 347.53 L 279.47 347.53 L 279.50 347.37 L 279.54 347.37 L 279.57 347.20 L 279.77 347.14 L 279.80 347.09 L 279.95 347.09 L 293.27 347.05 L 294.03 346.97 L 294.05 346.97 L 294.20 346.97 L 294.21 346.97 L 294.31 346.67 L 294.38 346.65 L 294.45 346.57 L 294.54 346.52 L 294.57 346.50 L 294.60 346.48 L 294.74 346.45 L 295.03 346.39 L 295.22 345.98 L 295.42 345.95 L 295.43 345.93 L 295.46 345.58 L 295.49 345.58 L 295.89 345.58 L 295.89 345.55 L 295.95 345.23 L 296.13 345.18 L 296.23 345.17 L 296.26 345.17 L 296.26 345.13 L 296.31 345.11 L 296.34 344.78 L 296.36 344.77 L 296.46 344.77 L 296.46 344.75 L 296.67 344.71 L 297.24 344.70 L 297.38 344.67 L 297.42 344.66 L 297.45 344.56 L 297.48 344.56 L 297.56 344.19 L 306.66 344.08 L 306.68 343.97 L 306.76 343.90 L 306.78 343.89 L 306.83 343.58 L 306.93 343.50 L 306.94 343.48 L 307.11 343.48 L 307.15 343.48 L 307.18 343.17 L 307.33 343.13 L 307.72 343.12 L 307.73 343.10 L 307.83 342.93 L 307.87 342.93 L 307.89 342.64 L 308.22 342.64 L 308.23 342.63 L 308.72 342.56 L 308.78 342.21 L 308.96 342.21 L 309.17 342.21 L 309.22 341.96 L 309.25 341.76 L 309.35 341.75 L 309.61 341.71 L 309.65 341.69 L 309.77 341.61 L 309.89 341.61 L 310.27 341.62 L 310.32 341.62 L 310.40 341.60 L 310.41 341.60 L 310.54 341.60 L 310.82 341.57 L 311.12 341.54 L 311.17 341.54 L 311.23 341.50 L 311.32 341.41 L 311.55 341.41 L 311.93 341.30 L 312.06 341.10 L 312.27 341.08 L 313.10 340.87 L 313.29 340.87 L 313.42 340.87 L 313.63 340.86 L 313.70 340.85 L 313.91 340.74 L 314.23 340.73 L 314.28 340.63 L 314.34 340.59 L 314.38 340.60 L 314.41 340.56 L 314.67 340.55 L 320.70 340.54 L 320.76 340.54 L 321.14 340.54 L 321.17 340.53 L 321.26 340.24 L 321.33 340.23 L 321.34 340.23 L 321.54 340.22 L 321.59 340.21 L 322.83 339.78 L 322.97 339.74 L 323.08 339.73 L 323.11 339.73 L 323.49 339.72 L 323.62 339.78 L 323.64 339.77 L 323.85 339.75 L 324.07 339.34 L 324.10 339.34 L 324.29 339.32 L 324.37 339.32 L 324.44 339.32 L 324.59 339.24 L 324.93 338.88 L 324.99 338.88 L 325.05 338.82 L 325.19 338.49 L 325.52 338.12 L 325.82 338.15 L 325.88 337.95 L 326.18 337.95 L 326.23 337.93 L 326.28 337.91 L 326.31 337.71 L 326.42 337.71 L 326.44 337.71 L 326.49 337.71 L 326.66 337.71 L 326.93 337.55 L 327.09 337.54 L 327.27 337.54 L 327.36 337.54 L 327.54 337.54 L 327.85 337.54 L 328.15 337.54 L 328.38 337.54 L 328.44 337.53 L 328.50 337.53 L 328.50 337.46 L 328.68 337.41 L 328.73 337.41 L 328.80 337.40 L 329.29 337.40 L 329.30 337.21 L 329.44 337.21 L 330.02 337.21 L 330.40 337.20 L 330.68 337.16 L 330.69 337.09 L 330.71 337.09 L 339.16 336.96 L 339.19 336.96 L 339.29 336.95 L 339.34 336.83 L 339.37 336.83 L 339.37 336.82 L 339.73 336.79 L 339.81 336.40 L 339.92 336.32 L 340.10 335.56 L 340.22 335.55 L 340.36 335.23 L 340.44 335.26 L 340.48 335.26 L 340.52 334.85 L 340.63 334.77 L 340.64 334.49 L 340.68 334.45 L 340.77 334.42 L 340.83 334.27 L 340.91 335.98 L 341.01 335.95 L 341.22 335.27 L 341.31 335.12 L 341.39 334.96 L 341.91 334.69 L 342.35 334.41 L 342.89 334.01 L 343.02 333.96 L 343.17 333.96 L 343.34 333.93 L 346.45 333.72 L 346.70 333.70 L 376.15 333.17 L 468.88 333.15 L 469.19 332.91 L 469.40 332.88 L 469.61 332.88 L 469.93 332.66 L 470.04 332.41 L 470.13 331.94 L 470.28 331.81 L 470.49 331.86 L 470.66 331.58 L 470.70 331.58 L 470.85 331.49 L 470.88 331.50 L 471.03 331.04 L 471.17 330.34 L 471.59 330.27 L 471.60 330.20 L 471.72 329.30 L 472.12 329.27 L 472.13 329.18 L 472.21 329.12 L 472.30 328.31 L 472.74 328.26 L 472.75 328.15 L 472.84 328.09 L 472.94 327.56 L 473.10 327.54 L 473.11 327.45 L 473.18 326.56 L 473.19 326.54 L 473.23 326.51 L 473.41 326.51 L 473.44 326.42 L 473.50 326.35 L 473.70 326.27 L 473.74 326.26 L 473.89 326.22 L 474.15 326.25 L 474.19 326.21 L 474.22 326.19 L 474.27 326.16 L 474.40 325.24 L 474.53 325.22 L 474.55 325.14 L 474.63 324.19 L 474.71 323.85 L 474.73 323.72 L 474.81 323.26 L 474.85 322.45 L 475.01 322.44 L 475.03 322.40 L 475.11 322.24 L 475.22 322.23 L 475.89 322.20 L 476.22 322.18 L 483.46 322.22 L 483.53 322.04 L 483.61 321.90 L 483.73 321.26 L 484.00 321.25 L 484.02 321.19 L 484.07 320.38 L 484.25 320.37 L 484.26 320.29 L 485.85 320.21 L 485.94 319.92 L 486.74 319.78 L 486.83 319.75 L 486.92 318.85 L 487.88 318.59 L 488.29 318.38 L 488.39 317.70 L 488.74 317.70 L 488.95 317.32 L 489.31 316.74 L 489.94 316.39 L 499.64 316.39 L 500.22 316.38 L 500.25 316.38 L 501.06 316.25 L 501.10 316.18 L 501.38 316.12 L 501.71 315.37 L 501.71 315.37 L 501.75 315.34 L 502.18 315.18 L 503.18 314.68 L 503.24 314.62 L 503.34 314.62 L 503.50 314.41 L 503.54 314.38 L 503.60 314.34 L 504.06 314.33 L 504.43 314.33 L 504.63 314.33 L 504.66 314.30 L 505.07 313.53 L 505.39 313.46 L 505.41 313.40 L 505.44 313.33 L 505.49 313.14 L 516.01 313.00 L 516.03 312.98 L 516.06 312.97 L 516.26 312.87 L 516.42 312.78 L 517.35 312.35 L 517.58 312.26 L 518.25 311.93 L 518.82 311.88 L 519.25 311.75 L 519.37 310.62 L 519.90 310.43 L 520.10 310.37 L 520.17 309.56 L 521.72 308.77 L 521.74 308.77 L 521.82 308.41 L 522.12 308.38 L 522.12 308.38 L 522.14 308.29 L 522.19 308.19 L 522.33 308.10 L 522.50 307.55 L 524.11 307.26 L 524.32 307.13 L 524.47 306.82 L 524.49 306.80 L 524.52 306.60 L 531.69 305.89 L 531.92 305.37 L 532.05 305.35 L 532.10 305.01 L 532.78 304.87 L 532.92 304.50 L 533.05 304.50 L 533.12 303.75 L 533.35 303.57 L 533.38 303.54 L 533.69 303.50 L 533.75 302.88 L 534.01 302.80 L 534.07 302.31 L 534.28 302.26 L 534.44 301.98 L 534.56 301.43 L 534.83 301.32 L 534.86 300.76 L 535.20 302.02 L 535.23 302.02 L 535.29 301.31 L 535.36 301.31 L 535.40 301.25 L 535.80 301.18 L 536.38 300.88 L 536.66 301.04 L 537.61 301.01 L 537.63 301.01 L 537.78 301.00 L 537.85 300.98 L 537.95 300.88 L 538.07 300.79 L 538.20 300.66 L 538.48 300.48 L 538.75 300.47 L 539.60 300.38 L 539.64 300.38 L 540.49 300.28 L 540.85 300.23 L 548.10 300.20 L 548.47 300.16 L 548.65 300.16 L 548.73 300.16 L 548.75 300.16 L 548.93 300.14 L 549.02 300.12 L 549.23 299.99 L 549.36 299.97 L 549.83 299.96 L 550.08 299.89 L 550.49 299.86 L 550.60 299.83 L 550.74 299.77 L 550.92 299.69 L 551.54 299.66 L 551.60 299.65 L 552.52 299.51 L 552.66 299.28 L 552.84 299.20 L 553.28 299.07 L 553.49 299.00 L 553.59 299.31 L 553.68 299.30 L 553.81 299.18 L 554.20 298.89 L 554.61 298.81 L 554.97 298.75 L 555.01 298.71 L 555.05 298.50 L 581.28 298.45 L 581.45 298.40 L 596.53 298.33 L 596.61 298.65 L 596.73 297.38 L 596.75 297.38 L 596.79 297.41 L 597.34 296.92 L 597.39 296.90 L 598.06 296.95 L 598.74 296.89 L 598.97 296.85 L 599.39 296.80 L 599.95 296.67 L 599.97 296.67 L 600.04 296.65 L 600.26 296.60 L 600.33 296.51 L 600.87 296.44 L 601.58 296.39 L 601.66 296.26 L 602.01 296.20 L 602.11 296.76 L 602.38 296.71 L 602.61 296.68 L 603.07 296.66 L 603.51 296.66 L 603.73 296.39 L 603.74 296.39 L 613.18 296.38 L 616.14 295.71 L 616.26 295.37 L 616.41 295.28 L 616.89 295.25 L 617.08 295.13 L 617.24 293.44 L 617.33 292.53 L 617.56 292.49 L 617.59 292.48 L 617.92 292.35 L 618.03 292.31 L 618.09 292.26 L 618.26 292.06 L 618.33 292.04 L 618.42 292.02 L 618.49 291.97 L 618.57 291.92 L 618.66 291.84 L 618.73 291.80 L 619.04 291.77 L 619.19 291.68 L 619.31 291.66 L 619.35 291.10 L 619.70 290.98 L 619.83 290.68 L 628.73 290.74 L 629.38 290.56 L 629.49 290.56 L 629.89 290.23 L 630.07 290.20 L 630.81 289.20 L 631.13 289.10 L 631.56 288.98 L 631.61 288.97 L 631.87 288.97 L 631.96 288.44 L 632.29 287.75 L 632.81 287.67 L 632.98 287.14 L 636.12 286.76 L 636.42 286.37 L 636.44 286.37 L 644.80 285.05 L 644.80 285.05 L 644.91 284.99 L 645.00 284.41 L 645.39 284.36 L 645.42 284.36 L 645.88 284.25 L 646.55 284.14 L 647.31 284.09 L 647.36 284.03 L 647.44 283.99 L 647.57 283.99 L 647.79 283.99 L 647.88 283.92 L 647.99 283.92 L 648.14 283.92 L 649.27 283.61 L 649.39 282.89 L 649.66 282.76 L 649.75 282.67 L 649.82 282.66 L 649.90 282.60 L 649.99 282.58 L 650.00 282.58"/>
	</g>
	<g class="poloto_legend poloto_imgs poloto_line poloto0 poloto_stroke"><line x1="680" x2="730" y1="81.25" y2="81.25"/></g>
	<g class="poloto_legend poloto_imgs poloto_line poloto1 poloto_stroke"><line x1="680" x2="730" y1="131.25" y2="131.25"/></g>
	<g class="poloto_legend poloto_imgs poloto_line poloto2 poloto_stroke"><line x1="680" x2="730" y1="181.25" y2="181.25"/></g>
	<text class="poloto_legend poloto_text poloto_line poloto0" x="675" y="100">total</text>
	<text class="poloto_legend poloto_text poloto_line poloto1" x="675" y="150">code</text>
	<text class="poloto_legend poloto_text poloto_line poloto2" x="675" y="200">docs</text>
	<text class="poloto_text poloto_name poloto_title" x="400.00" y="37.50">Workspace lines over time</text>
	<text class="poloto_text poloto_name poloto_x" x="400.00" y="640">date (JST)</text>
	<text class="poloto_text poloto_name poloto_y" x="37.50" y="250.00" transform="rotate(-90,37.50,250.00)">lines</text>
	<text class="poloto_text poloto_ticks poloto_y">
		<tspan x="135.00" y="400.00">0</tspan>
		<tspan x="135.00" y="333.40">50K</tspan>
		<tspan x="135.00" y="266.81">100K</tspan>
		<tspan x="135.00" y="200.21">150K</tspan>
		<tspan x="135.00" y="133.61">200K</tspan>
	</text>
	<g class="poloto_imgs poloto_ticks poloto_y" stroke="black">
		<line x1="150.00" x2="144.00" y1="400.00" y2="400.00"/>
		<line x1="150.00" x2="144.00" y1="333.40" y2="333.40"/>
		<line x1="150.00" x2="144.00" y1="266.81" y2="266.81"/>
		<line x1="150.00" x2="144.00" y1="200.21" y2="200.21"/>
		<line x1="150.00" x2="144.00" y1="133.61" y2="133.61"/>
	</g>
	<g class="poloto_text poloto_ticks poloto_x">
		<text x="210.62" y="430.00" text-anchor="end" transform="rotate(-90 210.62 430.00)">2026-04-24 12:06</text>
		<text x="303.93" y="430.00" text-anchor="end" transform="rotate(-90 303.93 430.00)">2026-04-30 07:00</text>
		<text x="397.23" y="430.00" text-anchor="end" transform="rotate(-90 397.23 430.00)">2026-05-06 01:53</text>
		<text x="490.54" y="430.00" text-anchor="end" transform="rotate(-90 490.54 430.00)">2026-05-11 20:46</text>
		<text x="583.85" y="430.00" text-anchor="end" transform="rotate(-90 583.85 430.00)">2026-05-17 15:40</text>
	</g>
	<g class="poloto_imgs poloto_ticks poloto_x" stroke="black">
		<line x1="210.62" x2="210.62" y1="400.00" y2="405.00"/>
		<line x1="303.93" x2="303.93" y1="400.00" y2="405.00"/>
		<line x1="397.23" x2="397.23" y1="400.00" y2="405.00"/>
		<line x1="490.54" x2="490.54" y1="400.00" y2="405.00"/>
		<line x1="583.85" x2="583.85" y1="400.00" y2="405.00"/>
	</g>
	<path class="poloto_imgs poloto_ticks poloto_x" stroke="black" style="stroke-dasharray:9.330802322100789;stroke-dashoffset:-60.61718405340798;" d=" M 150.00 400.00 L 650.00 400.00"/>
	<path class="poloto_imgs poloto_ticks poloto_y" stroke="black" style="stroke-dasharray:6.659651833402149;stroke-dashoffset:-0;" d=" M 150.00 400.00 L 150.00 100.00"/>
</svg>

