<svg class="poloto" width="800" height="680" viewBox="0 0 800 680" xmlns="http://www.w3.org/2000/svg">
	<style>
.poloto{
  stroke-linecap:round;
  stroke-linejoin:round;
  font-family:Roboto,sans-serif;
  font-size:16px;
}
.poloto_background{fill:AliceBlue;}
.poloto_scatter{stroke-width:7}
.poloto_line{stroke-width:2}
.poloto_text{fill: black;}
.poloto_name{font-size:24px;dominant-baseline:auto;text-anchor:middle;}
.poloto_where{dominant-baseline:middle;text-anchor:start}
.poloto_text.poloto_legend{font-size:20px;dominant-baseline:middle;text-anchor:start;}
.poloto_text.poloto_ticks.poloto_y{dominant-baseline:middle;text-anchor:end}
.poloto_text.poloto_ticks.poloto_x{dominant-baseline:auto;text-anchor:middle}
.poloto_imgs.poloto_ticks{stroke: black;stroke-width:3;fill:none;stroke-dasharray:none}
.poloto_grid{stroke:gray;stroke-width:0.5}

.poloto0.poloto_stroke{stroke:blue;}
.poloto1.poloto_stroke{stroke:red;}
.poloto2.poloto_stroke{stroke:green;}
.poloto3.poloto_stroke{stroke:gold;}
.poloto4.poloto_stroke{stroke:aqua;}
.poloto5.poloto_stroke{stroke:lime;}
.poloto6.poloto_stroke{stroke:orange;}
.poloto7.poloto_stroke{stroke:chocolate;}
.poloto0.poloto_fill{fill:blue;}
.poloto1.poloto_fill{fill:red;}
.poloto2.poloto_fill{fill:green;}
.poloto3.poloto_fill{fill:gold;}
.poloto4.poloto_fill{fill:aqua;}
.poloto5.poloto_fill{fill:lime;}
.poloto6.poloto_fill{fill:orange;}
.poloto7.poloto_fill{fill:chocolate;}
	</style>
	<circle r="1e5" class="poloto_background" fill="white"/>
	<g id="poloto_plot0" class="poloto_plot poloto_imgs poloto_line poloto0 poloto_stroke" fill="none" stroke="black">
		<path d=" M 150.00 370.01 L 150.03 369.98 L 150.04 369.96 L 150.05 369.96 L 150.07 369.96 L 150.10 366.71 L 150.21 366.32 L 150.46 366.30 L 150.84 366.03 L 151.03 364.38 L 151.41 364.27 L 151.48 364.19 L 151.53 364.15 L 151.97 363.34 L 152.81 362.69 L 153.07 360.13 L 153.14 360.13 L 153.64 360.03 L 154.22 360.02 L 154.23 360.02 L 154.23 360.02 L 162.07 360.02 L 162.13 360.02 L 162.23 360.00 L 162.27 359.97 L 162.57 359.82 L 162.71 359.78 L 163.04 359.54 L 163.08 359.44 L 163.18 359.21 L 163.28 359.17 L 163.31 359.17 L 163.39 359.11 L 163.48 359.11 L 163.56 359.11 L 163.78 358.73 L 163.97 358.50 L 164.01 358.50 L 164.10 358.36 L 164.72 358.95 L 164.74 358.95 L 164.82 358.85 L 165.17 358.41 L 165.46 357.89 L 165.78 357.66 L 165.85 357.62 L 165.85 357.62 L 165.92 357.42 L 166.04 357.42 L 166.20 357.35 L 166.50 357.15 L 166.52 356.84 L 166.58 356.84 L 166.65 356.68 L 166.83 356.68 L 166.85 356.68 L 167.03 356.25 L 167.10 356.23 L 167.17 356.19 L 167.24 356.01 L 168.20 355.78 L 168.43 355.73 L 168.96 355.42 L 169.07 355.42 L 169.15 355.41 L 169.20 355.19 L 169.57 353.89 L 169.73 353.87 L 169.92 353.44 L 170.01 353.40 L 170.23 353.04 L 170.33 352.91 L 170.46 352.68 L 170.58 352.47 L 171.00 349.50 L 171.01 349.42 L 171.03 349.25 L 171.18 347.82 L 178.45 347.71 L 179.20 346.08 L 179.23 346.04 L 180.12 345.79 L 180.19 345.78 L 180.28 345.46 L 180.49 345.29 L 180.59 345.01 L 180.63 344.77 L 180.74 344.34 L 181.00 344.34 L 181.01 344.05 L 181.11 343.73 L 181.21 343.72 L 181.32 343.36 L 181.46 343.11 L 181.52 342.98 L 181.54 342.97 L 181.66 342.69 L 181.68 342.69 L 181.82 342.41 L 181.84 342.40 L 182.05 341.06 L 182.09 341.06 L 182.16 340.83 L 182.25 340.82 L 182.37 340.82 L 182.42 340.79 L 182.83 340.54 L 182.84 340.55 L 182.92 339.95 L 183.10 339.94 L 183.26 339.04 L 183.31 338.96 L 183.39 338.95 L 183.43 338.92 L 183.52 338.22 L 183.97 332.38 L 184.02 332.10 L 184.18 332.07 L 184.23 332.00 L 184.26 331.98 L 184.34 331.83 L 184.41 331.17 L 184.57 331.03 L 184.68 331.02 L 184.78 330.73 L 184.83 330.72 L 185.24 330.50 L 185.46 330.33 L 185.53 330.07 L 185.72 330.06 L 185.74 330.06 L 185.75 330.04 L 185.87 328.63 L 185.97 328.55 L 186.31 327.13 L 186.36 326.72 L 186.43 326.71 L 186.52 326.56 L 186.53 326.45 L 186.57 326.38 L 186.60 326.34 L 186.65 326.34 L 186.69 326.27 L 186.82 325.11 L 186.92 324.94 L 187.02 324.60 L 187.15 324.57 L 187.30 324.47 L 187.44 323.65 L 187.55 322.51 L 187.76 322.45 L 187.76 322.02 L 187.89 321.88 L 198.04 321.88 L 198.23 321.87 L 198.71 321.27 L 198.81 321.26 L 198.89 321.26 L 198.91 321.11 L 199.08 320.92 L 199.20 320.89 L 199.27 320.78 L 199.34 320.70 L 199.38 320.66 L 199.56 320.60 L 199.93 320.53 L 200.02 320.22 L 200.09 320.14 L 200.18 320.13 L 200.65 319.98 L 200.72 319.89 L 200.75 319.89 L 200.78 319.77 L 200.88 319.72 L 200.96 319.61 L 201.30 318.84 L 201.79 318.72 L 201.97 318.67 L 202.51 318.48 L 202.77 314.81 L 202.86 314.73 L 202.97 314.37 L 203.13 313.89 L 203.38 313.75 L 203.72 313.74 L 204.18 313.73 L 204.25 313.57 L 204.59 313.40 L 204.81 313.13 L 204.87 313.02 L 205.01 312.98 L 205.11 312.65 L 206.31 312.29 L 207.45 312.29 L 217.67 312.26 L 217.74 312.10 L 217.80 312.00 L 218.12 311.84 L 219.07 310.57 L 219.11 310.49 L 219.25 310.17 L 219.72 310.08 L 219.94 309.23 L 220.28 309.22 L 220.35 309.20 L 220.43 308.62 L 221.02 305.28 L 221.09 305.27 L 221.22 305.24 L 221.35 305.20 L 221.41 304.84 L 221.74 303.58 L 221.86 303.35 L 221.91 303.33 L 221.99 302.75 L 222.14 301.93 L 222.20 301.06 L 222.34 300.67 L 222.79 296.33 L 222.83 295.89 L 222.87 295.89 L 222.94 295.81 L 223.05 295.70 L 223.09 295.66 L 223.14 295.61 L 223.35 294.57 L 223.40 293.84 L 223.66 293.69 L 223.81 292.60 L 223.91 291.91 L 224.70 281.78 L 224.79 281.76 L 254.83 281.27 L 254.86 281.27 L 266.34 281.13 L 266.96 280.86 L 267.09 280.86 L 267.26 280.78 L 267.32 280.65 L 267.38 280.62 L 272.36 280.55 L 273.02 278.62 L 273.26 278.45 L 273.39 277.74 L 276.49 277.60 L 276.51 277.40 L 276.71 277.38 L 277.63 276.17 L 277.69 275.95 L 277.80 275.87 L 278.13 275.79 L 278.17 275.76 L 278.30 275.39 L 278.44 275.29 L 278.46 275.02 L 288.11 274.65 L 288.18 273.61 L 288.57 273.38 L 288.57 271.65 L 288.64 271.39 L 288.72 270.96 L 288.83 269.77 L 288.99 269.13 L 289.13 268.39 L 289.25 268.38 L 289.30 267.81 L 289.50 267.76 L 290.17 264.97 L 290.44 264.67 L 290.48 264.49 L 290.54 264.49 L 290.57 264.29 L 290.66 263.60 L 290.94 263.28 L 290.98 263.23 L 291.14 260.77 L 291.21 260.76 L 291.23 260.50 L 291.29 260.30 L 291.33 260.29 L 291.37 259.93 L 291.58 258.59 L 291.68 258.21 L 291.79 258.17 L 291.87 254.61 L 291.91 254.32 L 292.12 252.29 L 292.18 252.13 L 292.22 252.13 L 292.27 252.12 L 292.31 251.83 L 292.33 251.84 L 292.35 251.84 L 292.46 248.24 L 292.49 247.93 L 292.60 247.91 L 292.67 247.85 L 292.89 247.75 L 293.15 247.61 L 293.16 247.61 L 293.24 247.57 L 293.48 247.50 L 293.60 247.50 L 293.72 247.50 L 293.84 245.93 L 293.93 245.56 L 294.27 245.55 L 294.30 245.31 L 294.34 245.30 L 294.37 245.04 L 294.59 242.77 L 294.63 242.72 L 294.79 242.70 L 309.63 242.64 L 310.48 242.52 L 310.51 242.52 L 310.67 242.52 L 310.69 242.52 L 310.80 242.07 L 310.88 242.05 L 310.95 241.83 L 311.05 241.77 L 311.08 241.74 L 311.12 241.72 L 311.28 241.47 L 311.60 241.25 L 311.81 240.52 L 312.03 239.82 L 312.04 239.79 L 312.08 239.14 L 312.11 239.12 L 312.55 238.73 L 312.56 238.69 L 312.63 238.17 L 312.82 238.12 L 312.94 238.07 L 312.97 237.15 L 312.97 237.10 L 313.03 237.98 L 313.06 237.44 L 313.08 237.42 L 313.19 236.19 L 313.20 236.16 L 313.43 236.06 L 314.06 236.04 L 314.21 236.00 L 314.26 235.99 L 314.29 235.82 L 314.33 235.82 L 314.42 235.22 L 324.56 234.05 L 324.58 233.89 L 324.66 233.77 L 324.69 233.55 L 324.75 223.30 L 324.86 219.10 L 324.87 219.08 L 325.06 219.00 L 325.10 219.00 L 325.13 218.51 L 325.30 218.47 L 325.74 217.47 L 325.75 217.45 L 325.86 217.15 L 325.90 217.16 L 325.92 216.66 L 326.29 216.08 L 326.30 216.06 L 326.86 215.83 L 326.92 215.31 L 327.12 215.32 L 327.35 213.99 L 327.41 213.47 L 327.45 213.05 L 327.55 212.54 L 327.84 212.36 L 327.89 212.23 L 328.02 212.12 L 328.15 212.12 L 328.58 212.12 L 328.63 212.12 L 328.73 212.09 L 328.74 212.09 L 328.88 212.11 L 329.20 212.08 L 329.53 211.89 L 329.58 211.89 L 329.65 211.81 L 329.75 211.67 L 330.00 211.67 L 330.43 211.48 L 330.57 211.08 L 330.80 207.54 L 331.74 210.53 L 331.94 210.52 L 332.09 210.50 L 332.32 210.50 L 332.40 210.44 L 332.63 210.27 L 333.00 210.03 L 333.04 209.87 L 333.11 209.80 L 333.16 209.81 L 333.19 209.76 L 333.48 209.54 L 340.21 209.54 L 340.27 209.54 L 340.69 209.53 L 340.73 209.51 L 340.82 209.07 L 340.90 208.81 L 340.91 208.81 L 341.14 208.77 L 341.20 208.75 L 342.58 208.08 L 342.74 208.03 L 342.86 208.01 L 342.88 208.01 L 343.31 207.85 L 343.45 207.93 L 343.48 207.93 L 343.71 207.88 L 343.96 206.49 L 343.99 206.48 L 344.20 206.32 L 344.29 206.32 L 344.37 206.32 L 344.54 206.16 L 344.91 205.60 L 344.99 205.58 L 345.05 205.42 L 345.21 204.75 L 345.58 204.06 L 345.91 200.81 L 345.97 200.42 L 346.31 200.26 L 346.37 200.18 L 346.42 200.02 L 346.46 199.50 L 346.57 198.56 L 346.60 198.60 L 346.65 198.58 L 346.84 198.58 L 347.14 198.23 L 347.32 198.17 L 347.53 198.16 L 347.62 198.14 L 347.83 198.13 L 348.17 198.13 L 348.50 198.12 L 348.76 198.12 L 348.82 198.11 L 348.89 198.10 L 348.89 197.98 L 349.09 197.92 L 349.15 197.91 L 349.23 197.77 L 349.78 197.74 L 349.79 197.46 L 349.94 197.45 L 350.58 197.46 L 351.01 197.29 L 351.32 197.08 L 351.33 196.96 L 351.36 196.96 L 360.78 196.77 L 360.81 196.76 L 360.91 196.75 L 360.97 196.59 L 361.00 196.57 L 361.01 196.56 L 361.41 196.52 L 361.50 195.93 L 361.62 195.80 L 361.82 194.64 L 361.95 194.63 L 362.11 194.13 L 362.20 194.20 L 362.24 194.19 L 362.29 193.63 L 362.41 193.24 L 362.42 192.83 L 362.46 192.78 L 362.56 192.74 L 362.63 192.55 L 362.72 194.77 L 362.83 194.72 L 363.06 193.84 L 363.16 193.62 L 363.25 193.44 L 363.83 192.17 L 364.33 191.56 L 364.92 190.38 L 365.07 190.33 L 365.24 190.33 L 365.43 190.28 L 368.89 189.94 L 369.18 189.91 L 401.99 189.02 L 505.31 188.81 L 505.65 188.45 L 505.89 188.40 L 506.12 188.40 L 506.48 187.71 L 506.61 187.38 L 506.70 186.76 L 506.86 184.98 L 507.10 185.35 L 507.30 184.96 L 507.34 184.95 L 507.50 184.84 L 507.53 184.84 L 507.71 184.18 L 507.86 183.14 L 508.33 182.03 L 508.34 181.94 L 508.48 180.61 L 508.92 177.33 L 508.93 177.22 L 509.02 177.15 L 509.12 175.98 L 509.61 174.40 L 509.62 174.25 L 509.72 174.18 L 509.83 173.40 L 510.01 172.79 L 510.02 172.67 L 510.10 171.47 L 510.12 171.44 L 510.16 171.10 L 510.36 168.97 L 510.39 168.85 L 510.46 168.72 L 510.68 168.44 L 510.72 168.43 L 510.89 168.02 L 511.18 168.07 L 511.22 168.02 L 511.26 167.99 L 511.31 167.96 L 511.46 166.70 L 511.61 165.68 L 511.63 165.59 L 511.72 164.31 L 511.80 163.06 L 511.83 162.91 L 511.92 161.45 L 511.96 160.30 L 512.14 159.52 L 512.16 159.47 L 512.25 159.22 L 512.37 159.20 L 513.12 159.17 L 513.49 159.14 L 521.56 159.19 L 521.64 158.96 L 521.72 158.77 L 521.86 157.91 L 522.16 157.69 L 522.18 157.60 L 522.24 156.47 L 522.43 155.36 L 522.45 155.27 L 524.21 155.19 L 524.32 154.57 L 525.21 154.39 L 525.31 154.34 L 525.41 153.06 L 526.48 151.86 L 526.94 151.40 L 527.05 150.46 L 527.44 148.85 L 527.68 148.39 L 528.07 147.44 L 528.78 146.96 L 539.58 146.95 L 540.23 146.84 L 540.26 146.86 L 541.16 146.67 L 541.21 146.58 L 541.52 146.51 L 541.89 145.46 L 541.89 145.46 L 541.93 145.42 L 542.41 144.22 L 543.52 143.53 L 543.60 143.47 L 543.71 143.46 L 543.88 143.15 L 543.93 143.06 L 543.99 143.00 L 544.51 142.96 L 544.92 142.96 L 545.14 142.96 L 545.18 142.91 L 545.64 141.86 L 545.99 141.66 L 546.01 141.58 L 546.05 141.50 L 546.10 141.22 L 557.82 140.82 L 557.85 140.80 L 557.88 140.78 L 558.11 140.66 L 558.28 140.53 L 559.32 138.92 L 559.57 138.73 L 560.32 138.25 L 560.96 138.13 L 561.43 137.97 L 561.57 136.49 L 562.16 134.75 L 562.38 134.62 L 562.45 133.50 L 564.19 131.43 L 564.21 131.43 L 564.30 130.93 L 564.63 130.87 L 564.64 130.87 L 564.65 130.75 L 564.71 130.58 L 564.86 130.42 L 565.05 129.55 L 566.85 127.46 L 567.08 127.21 L 567.25 126.84 L 567.27 126.79 L 567.31 126.50 L 575.29 125.56 L 575.55 124.84 L 575.70 124.81 L 575.76 124.33 L 576.51 124.11 L 576.67 123.63 L 576.81 123.63 L 576.89 122.63 L 577.14 120.08 L 577.18 120.04 L 577.52 120.00 L 577.60 119.17 L 577.88 118.17 L 577.94 117.48 L 578.18 116.84 L 578.36 116.50 L 578.49 115.74 L 578.79 115.09 L 578.82 114.36 L 579.21 114.20 L 579.24 114.20 L 579.31 113.27 L 579.39 113.27 L 579.43 113.20 L 579.87 111.47 L 580.52 110.90 L 580.84 111.09 L 581.90 111.01 L 581.92 111.00 L 582.08 110.98 L 582.16 110.96 L 582.28 110.85 L 582.41 110.74 L 582.55 110.55 L 582.86 110.30 L 583.17 110.29 L 584.11 110.11 L 584.15 110.10 L 585.10 109.94 L 585.51 109.84 L 593.58 109.82 L 593.99 109.69 L 594.19 109.61 L 594.28 109.61 L 594.30 109.61 L 594.51 109.58 L 594.60 109.52 L 594.84 109.36 L 594.98 109.33 L 595.51 109.15 L 595.78 108.76 L 596.24 108.70 L 596.36 108.46 L 596.52 108.30 L 596.72 108.10 L 597.42 108.15 L 597.48 108.14 L 598.50 107.65 L 598.66 107.37 L 598.86 107.28 L 599.36 107.05 L 599.58 107.11 L 599.70 107.49 L 599.80 107.46 L 599.94 107.31 L 600.37 106.17 L 600.83 106.05 L 601.23 105.96 L 601.28 105.91 L 601.33 105.58 L 630.55 105.50 L 630.74 105.36 L 647.55 104.99 L 647.63 105.41 L 647.77 103.66 L 647.79 103.66 L 647.84 103.71 L 648.44 100.17 L 648.50 100.14 L 649.24 100.22 L 650.00 100.00"/>
	</g>
	<g id="poloto_plot1" class="poloto_plot poloto_imgs poloto_line poloto1 poloto_stroke" fill="none" stroke="black">
		<path d=" M 150.00 382.18 L 150.03 382.16 L 150.04 382.15 L 150.05 382.15 L 150.07 382.15 L 150.10 381.59 L 150.21 381.57 L 150.46 381.56 L 150.84 381.34 L 151.03 381.25 L 151.41 381.27 L 151.48 381.23 L 151.53 381.23 L 151.97 381.19 L 152.81 381.08 L 153.07 378.88 L 153.14 378.88 L 153.64 378.83 L 154.22 378.82 L 154.23 378.82 L 154.23 378.82 L 162.07 378.82 L 162.13 378.82 L 162.23 378.81 L 162.27 378.78 L 162.57 378.77 L 162.71 378.77 L 163.04 378.77 L 163.08 378.77 L 163.18 378.76 L 163.28 378.76 L 163.31 378.76 L 163.39 378.73 L 163.48 378.73 L 163.56 378.73 L 163.78 378.61 L 163.97 378.61 L 164.01 378.61 L 164.10 378.61 L 164.72 379.44 L 164.74 379.44 L 164.82 379.43 L 165.17 379.30 L 165.46 379.16 L 165.78 379.10 L 165.85 379.06 L 165.85 379.06 L 165.92 379.06 L 166.04 379.06 L 166.20 379.01 L 166.50 378.96 L 166.52 378.96 L 166.58 378.96 L 166.65 378.94 L 166.83 378.94 L 166.85 378.94 L 167.03 378.93 L 167.10 378.93 L 167.17 378.93 L 167.24 378.93 L 168.20 378.83 L 168.43 378.82 L 168.96 378.78 L 169.07 378.78 L 169.15 378.78 L 169.20 378.78 L 169.57 378.71 L 169.73 378.71 L 169.92 378.63 L 170.01 378.62 L 170.23 378.44 L 170.33 378.38 L 170.46 378.38 L 170.58 378.38 L 171.00 375.80 L 171.01 375.76 L 171.03 375.76 L 171.18 375.51 L 178.45 375.51 L 179.20 374.40 L 179.23 374.40 L 180.12 374.40 L 180.19 374.39 L 180.28 374.28 L 180.49 374.26 L 180.59 374.26 L 180.63 374.26 L 180.74 374.26 L 181.00 374.26 L 181.01 374.02 L 181.11 374.01 L 181.21 374.01 L 181.32 373.98 L 181.46 373.98 L 181.52 373.98 L 181.54 373.98 L 181.66 373.98 L 181.68 373.98 L 181.82 373.98 L 181.84 373.98 L 182.05 372.89 L 182.09 372.89 L 182.16 372.75 L 182.25 372.75 L 182.37 372.75 L 182.42 372.74 L 182.83 372.74 L 182.84 372.74 L 182.92 372.67 L 183.10 372.67 L 183.26 372.05 L 183.31 371.97 L 183.39 371.97 L 183.43 371.97 L 183.52 371.95 L 183.97 367.35 L 184.02 367.39 L 184.18 367.39 L 184.23 367.39 L 184.26 367.38 L 184.34 367.38 L 184.41 367.32 L 184.57 367.32 L 184.68 367.32 L 184.78 367.31 L 184.83 367.31 L 185.24 367.30 L 185.46 367.30 L 185.53 367.18 L 185.72 367.18 L 185.74 367.18 L 185.75 367.18 L 185.87 366.87 L 185.97 366.79 L 186.31 365.70 L 186.36 365.70 L 186.43 365.70 L 186.52 365.72 L 186.53 365.72 L 186.57 365.72 L 186.60 365.72 L 186.65 365.72 L 186.69 365.72 L 186.82 365.69 L 186.92 365.69 L 187.02 365.68 L 187.15 365.68 L 187.30 365.67 L 187.44 365.27 L 187.55 365.13 L 187.76 365.13 L 187.76 365.12 L 187.89 365.12 L 198.04 365.12 L 198.23 365.12 L 198.71 365.05 L 198.81 365.04 L 198.89 365.04 L 198.91 365.04 L 199.08 365.04 L 199.20 365.04 L 199.27 365.04 L 199.34 365.04 L 199.38 365.03 L 199.56 365.03 L 199.93 365.05 L 200.02 365.05 L 200.09 365.05 L 200.18 365.05 L 200.65 364.96 L 200.72 364.92 L 200.75 364.92 L 200.78 364.87 L 200.88 364.86 L 200.96 364.86 L 201.30 364.44 L 201.79 364.44 L 201.97 364.44 L 202.51 364.44 L 202.77 361.62 L 202.86 361.62 L 202.97 361.62 L 203.13 361.62 L 203.38 361.62 L 203.72 361.62 L 204.18 361.62 L 204.25 361.62 L 204.59 361.55 L 204.81 361.43 L 204.87 361.43 L 205.01 361.43 L 205.11 361.42 L 206.31 361.24 L 207.45 361.24 L 217.67 361.23 L 217.74 361.23 L 217.80 361.23 L 218.12 361.23 L 219.07 360.35 L 219.11 360.32 L 219.25 360.23 L 219.72 360.22 L 219.94 360.01 L 220.28 360.01 L 220.35 360.01 L 220.43 360.01 L 221.02 357.54 L 221.09 357.54 L 221.22 357.54 L 221.35 357.54 L 221.41 357.38 L 221.74 357.08 L 221.86 357.08 L 221.91 357.08 L 221.99 356.63 L 222.14 356.17 L 222.20 356.17 L 222.34 356.16 L 222.79 352.48 L 222.83 352.48 L 222.87 352.48 L 222.94 352.48 L 223.05 352.48 L 223.09 352.48 L 223.14 352.48 L 223.35 352.48 L 223.40 352.40 L 223.66 352.38 L 223.81 352.33 L 223.91 351.89 L 224.70 344.56 L 224.79 344.56 L 254.83 344.56 L 254.86 344.56 L 266.34 344.56 L 266.96 344.44 L 267.09 344.44 L 267.26 344.44 L 267.32 344.44 L 267.38 344.44 L 272.36 344.39 L 273.02 344.32 L 273.26 344.32 L 273.39 344.29 L 276.49 344.23 L 276.51 344.13 L 276.71 344.13 L 277.63 343.14 L 277.69 343.14 L 277.80 343.14 L 278.13 343.14 L 278.17 343.14 L 278.30 343.14 L 278.44 343.14 L 278.46 343.14 L 288.11 343.12 L 288.18 342.95 L 288.57 342.95 L 288.57 341.75 L 288.64 341.75 L 288.72 341.75 L 288.83 341.64 L 288.99 341.64 L 289.13 341.59 L 289.25 341.59 L 289.30 341.59 L 289.50 341.57 L 290.17 339.54 L 290.44 339.53 L 290.48 339.52 L 290.54 339.52 L 290.57 339.52 L 290.66 339.49 L 290.94 339.24 L 290.98 339.20 L 291.14 337.38 L 291.21 337.37 L 291.23 337.37 L 291.29 337.34 L 291.33 337.34 L 291.37 337.34 L 291.58 336.34 L 291.68 336.33 L 291.79 336.31 L 291.87 333.22 L 291.91 333.21 L 292.12 331.47 L 292.18 331.47 L 292.22 331.47 L 292.27 331.47 L 292.31 331.47 L 292.33 331.47 L 292.35 331.47 L 292.46 328.25 L 292.49 328.25 L 292.60 328.23 L 292.67 328.23 L 292.89 328.17 L 293.15 328.08 L 293.16 328.08 L 293.24 328.06 L 293.48 328.01 L 293.60 328.01 L 293.72 328.01 L 293.84 326.62 L 293.93 326.62 L 294.27 326.62 L 294.30 326.61 L 294.34 326.61 L 294.37 326.61 L 294.59 324.63 L 294.63 324.63 L 294.79 324.61 L 309.63 324.61 L 310.48 324.60 L 310.51 324.60 L 310.67 324.60 L 310.69 324.60 L 310.80 324.60 L 310.88 324.60 L 310.95 324.50 L 311.05 324.50 L 311.08 324.50 L 311.12 324.50 L 311.28 324.32 L 311.60 324.21 L 311.81 324.09 L 312.03 323.53 L 312.04 323.53 L 312.08 323.39 L 312.11 323.37 L 312.55 323.03 L 312.56 323.03 L 312.63 322.98 L 312.82 322.98 L 312.94 322.95 L 312.97 322.12 L 312.97 322.12 L 313.03 322.94 L 313.06 322.89 L 313.08 322.88 L 313.19 321.78 L 313.20 321.78 L 313.43 321.73 L 314.06 321.73 L 314.21 321.73 L 314.26 321.73 L 314.29 321.73 L 314.33 321.73 L 314.42 321.66 L 324.56 320.74 L 324.58 320.74 L 324.66 320.74 L 324.69 320.54 L 324.75 310.75 L 324.86 307.11 L 324.87 307.11 L 325.06 307.05 L 325.10 307.05 L 325.13 307.03 L 325.30 307.03 L 325.74 306.14 L 325.75 306.14 L 325.86 306.09 L 325.90 306.09 L 325.92 306.02 L 326.29 305.49 L 326.30 305.49 L 326.86 305.38 L 326.92 305.34 L 327.12 305.35 L 327.35 304.15 L 327.41 304.03 L 327.45 303.91 L 327.55 303.46 L 327.84 303.35 L 327.89 303.25 L 328.02 303.25 L 328.15 303.25 L 328.58 303.25 L 328.63 303.25 L 328.73 303.25 L 328.74 303.25 L 328.88 303.27 L 329.20 303.27 L 329.53 303.14 L 329.58 303.14 L 329.65 303.13 L 329.75 303.13 L 330.00 303.13 L 330.43 303.13 L 330.57 303.02 L 330.80 299.86 L 331.74 302.84 L 331.94 302.83 L 332.09 302.82 L 332.32 302.82 L 332.40 302.79 L 332.63 302.77 L 333.00 302.59 L 333.04 302.59 L 333.11 302.59 L 333.16 302.59 L 333.19 302.59 L 333.48 302.41 L 340.21 302.41 L 340.27 302.42 L 340.69 302.40 L 340.73 302.40 L 340.82 302.37 L 340.90 302.15 L 340.91 302.15 L 341.14 302.13 L 341.20 302.13 L 342.58 301.95 L 342.74 301.95 L 342.86 301.95 L 342.88 301.95 L 343.31 301.82 L 343.45 301.82 L 343.48 301.82 L 343.71 301.81 L 343.96 301.06 L 343.99 301.06 L 344.20 300.94 L 344.29 300.94 L 344.37 300.94 L 344.54 300.94 L 344.91 300.93 L 344.99 300.91 L 345.05 300.84 L 345.21 300.71 L 345.58 300.59 L 345.91 297.61 L 345.97 297.51 L 346.31 297.37 L 346.37 297.34 L 346.42 297.23 L 346.46 297.02 L 346.57 296.13 L 346.60 296.17 L 346.65 296.15 L 346.84 296.15 L 347.14 296.02 L 347.32 295.98 L 347.53 295.96 L 347.62 295.95 L 347.83 295.94 L 348.17 295.94 L 348.50 295.93 L 348.76 295.93 L 348.82 295.93 L 348.89 295.92 L 348.89 295.92 L 349.09 295.92 L 349.15 295.91 L 349.23 295.79 L 349.78 295.78 L 349.79 295.78 L 349.94 295.77 L 350.58 295.77 L 351.01 295.62 L 351.32 295.49 L 351.33 295.49 L 351.36 295.49 L 360.78 295.49 L 360.81 295.49 L 360.91 295.49 L 360.97 295.49 L 361.00 295.47 L 361.01 295.47 L 361.41 295.47 L 361.50 295.46 L 361.62 295.44 L 361.82 295.42 L 361.95 295.42 L 362.11 295.35 L 362.20 295.35 L 362.24 295.35 L 362.29 295.35 L 362.41 295.08 L 362.42 295.08 L 362.46 295.08 L 362.56 295.08 L 362.63 295.08 L 362.72 295.15 L 362.83 295.15 L 363.06 295.13 L 363.16 295.13 L 363.25 295.13 L 363.83 294.26 L 364.33 294.02 L 364.92 293.40 L 365.07 293.40 L 365.24 293.40 L 365.43 293.40 L 368.89 293.32 L 369.18 293.32 L 401.99 293.21 L 505.31 293.04 L 505.65 292.99 L 505.89 292.99 L 506.12 292.99 L 506.48 292.58 L 506.61 292.58 L 506.70 292.58 L 506.86 291.11 L 507.10 291.39 L 507.30 291.37 L 507.34 291.37 L 507.50 291.36 L 507.53 291.36 L 507.71 291.36 L 507.86 291.29 L 508.33 290.36 L 508.34 290.36 L 508.48 290.28 L 508.92 287.27 L 508.93 287.27 L 509.02 287.27 L 509.12 287.22 L 509.61 285.83 L 509.62 285.83 L 509.72 285.83 L 509.83 285.79 L 510.01 285.28 L 510.02 285.28 L 510.10 285.28 L 510.12 285.28 L 510.16 284.99 L 510.36 283.00 L 510.39 283.00 L 510.46 283.00 L 510.68 282.84 L 510.72 282.84 L 510.89 282.51 L 511.18 282.51 L 511.22 282.51 L 511.26 282.51 L 511.31 282.51 L 511.46 282.50 L 511.61 281.60 L 511.63 281.60 L 511.72 281.60 L 511.80 280.92 L 511.83 280.92 L 511.92 280.20 L 511.96 280.16 L 512.14 279.45 L 512.16 279.45 L 512.25 279.45 L 512.37 279.44 L 513.12 279.44 L 513.49 279.43 L 521.56 279.43 L 521.64 279.43 L 521.72 279.43 L 521.86 279.43 L 522.16 279.24 L 522.18 279.24 L 522.24 279.18 L 522.43 278.19 L 522.45 278.19 L 524.21 278.21 L 524.32 278.01 L 525.21 278.01 L 525.31 278.01 L 525.41 277.94 L 526.48 277.12 L 526.94 276.96 L 527.05 276.91 L 527.44 275.36 L 527.68 275.36 L 528.07 275.23 L 528.78 275.23 L 539.58 275.22 L 540.23 275.13 L 540.26 275.15 L 541.16 275.15 L 541.21 275.15 L 541.52 275.15 L 541.89 275.12 L 541.89 275.12 L 541.93 275.12 L 542.41 274.21 L 543.52 274.19 L 543.60 274.19 L 543.71 274.18 L 543.88 274.15 L 543.93 274.12 L 543.99 274.12 L 544.51 274.08 L 544.92 274.08 L 545.14 274.07 L 545.18 274.07 L 545.64 274.06 L 545.99 273.95 L 546.01 273.95 L 546.05 273.95 L 546.10 273.95 L 557.82 273.74 L 557.85 273.74 L 557.88 273.74 L 558.11 273.74 L 558.28 273.74 L 559.32 272.84 L 559.57 272.79 L 560.32 272.72 L 560.96 272.67 L 561.43 272.67 L 561.57 272.67 L 562.16 271.32 L 562.38 271.28 L 562.45 271.23 L 564.19 270.28 L 564.21 270.28 L 564.30 270.27 L 564.63 270.26 L 564.64 270.26 L 564.65 270.26 L 564.71 270.23 L 564.86 270.19 L 565.05 270.09 L 566.85 268.52 L 567.08 268.44 L 567.25 268.44 L 567.27 268.44 L 567.31 268.44 L 575.29 268.44 L 575.55 268.43 L 575.70 268.43 L 575.76 268.43 L 576.51 268.43 L 576.67 268.43 L 576.81 268.43 L 576.89 268.40 L 577.14 266.34 L 577.18 266.33 L 577.52 266.34 L 577.60 266.32 L 577.88 265.52 L 577.94 265.48 L 578.18 264.96 L 578.36 264.96 L 578.49 264.91 L 578.79 264.44 L 578.82 264.43 L 579.21 262.91 L 579.24 262.91 L 579.31 262.90 L 579.39 262.90 L 579.43 262.90 L 579.87 261.36 L 580.52 261.23 L 580.84 261.23 L 581.90 261.19 L 581.92 261.18 L 582.08 261.18 L 582.16 261.18 L 582.28 261.18 L 582.41 261.18 L 582.55 261.17 L 582.86 261.15 L 583.17 261.15 L 584.11 261.08 L 584.15 261.08 L 585.10 261.04 L 585.51 261.00 L 593.58 261.01 L 593.99 260.94 L 594.19 260.86 L 594.28 260.86 L 594.30 260.86 L 594.51 260.85 L 594.60 260.85 L 594.84 260.85 L 594.98 260.84 L 595.51 260.70 L 595.78 260.43 L 596.24 260.41 L 596.36 260.22 L 596.52 260.14 L 596.72 260.05 L 597.42 260.14 L 597.48 260.14 L 598.50 259.85 L 598.66 259.85 L 598.86 259.85 L 599.36 259.82 L 599.58 259.96 L 599.70 259.96 L 599.80 259.96 L 599.94 259.96 L 600.37 259.30 L 600.83 259.29 L 601.23 259.29 L 601.28 259.29 L 601.33 259.29 L 630.55 259.29 L 630.74 259.24 L 647.55 259.01 L 647.63 259.01 L 647.77 258.96 L 647.79 258.96 L 647.84 258.96 L 648.44 256.41 L 648.50 256.41 L 649.24 256.41 L 650.00 256.29"/>
	</g>
	<g id="poloto_plot2" class="poloto_plot poloto_imgs poloto_line poloto2 poloto_stroke" fill="none" stroke="black">
		<path d=" M 150.00 392.00 L 150.03 392.00 L 150.04 392.00 L 150.05 392.00 L 150.07 392.00 L 150.10 389.95 L 150.21 389.67 L 150.46 389.66 L 150.84 389.65 L 151.03 388.43 L 151.41 388.32 L 151.48 388.28 L 151.53 388.25 L 151.97 387.70 L 152.81 387.27 L 153.07 387.19 L 153.14 387.20 L 153.64 387.16 L 154.22 387.16 L 154.23 387.16 L 154.23 387.16 L 162.07 387.16 L 162.13 387.16 L 162.23 387.14 L 162.27 387.14 L 162.57 387.02 L 162.71 386.98 L 163.04 386.78 L 163.08 386.70 L 163.18 386.52 L 163.28 386.49 L 163.31 386.49 L 163.39 386.45 L 163.48 386.45 L 163.56 386.46 L 163.78 386.25 L 163.97 386.06 L 164.01 386.06 L 164.10 385.95 L 164.72 385.71 L 164.74 385.71 L 164.82 385.63 L 165.17 385.36 L 165.46 385.02 L 165.78 384.89 L 165.85 384.89 L 165.85 384.89 L 165.92 384.70 L 166.04 384.70 L 166.20 384.68 L 166.50 384.54 L 166.52 384.30 L 166.58 384.30 L 166.65 384.19 L 166.83 384.19 L 166.85 384.19 L 167.03 383.83 L 167.10 383.80 L 167.17 383.77 L 167.24 383.61 L 168.20 383.51 L 168.43 383.47 L 168.96 383.22 L 169.07 383.22 L 169.15 383.21 L 169.20 383.02 L 169.57 382.02 L 169.73 382.01 L 169.92 381.71 L 170.01 381.68 L 170.23 381.54 L 170.33 381.50 L 170.46 381.28 L 170.58 381.11 L 171.00 381.11 L 171.01 381.08 L 171.03 380.94 L 171.18 379.97 L 178.45 379.87 L 179.20 379.58 L 179.23 379.54 L 180.12 379.30 L 180.19 379.30 L 180.28 379.12 L 180.49 379.00 L 180.59 378.78 L 180.63 378.59 L 180.74 378.24 L 181.00 378.23 L 181.01 378.23 L 181.11 377.98 L 181.21 377.97 L 181.32 377.71 L 181.46 377.50 L 181.52 377.39 L 181.54 377.38 L 181.66 377.14 L 181.68 377.14 L 181.82 376.92 L 181.84 376.91 L 182.05 376.83 L 182.09 376.83 L 182.16 376.75 L 182.25 376.73 L 182.37 376.73 L 182.42 376.72 L 182.83 376.50 L 182.84 376.51 L 182.92 376.07 L 183.10 376.06 L 183.26 375.92 L 183.31 375.92 L 183.39 375.92 L 183.43 375.88 L 183.52 375.28 L 183.97 374.78 L 184.02 374.51 L 184.18 374.48 L 184.23 374.41 L 184.26 374.40 L 184.34 374.27 L 184.41 373.80 L 184.57 373.73 L 184.68 373.72 L 184.78 373.48 L 184.83 373.47 L 185.24 373.30 L 185.46 373.17 L 185.53 373.06 L 185.72 373.05 L 185.74 373.05 L 185.75 373.03 L 185.87 372.17 L 185.97 372.17 L 186.31 372.04 L 186.36 371.70 L 186.43 371.70 L 186.52 371.56 L 186.53 371.47 L 186.57 371.42 L 186.60 371.38 L 186.65 371.38 L 186.69 371.31 L 186.82 370.35 L 186.92 370.25 L 187.02 369.96 L 187.15 369.94 L 187.30 369.85 L 187.44 369.55 L 187.55 368.72 L 187.76 368.65 L 187.76 368.29 L 187.89 368.21 L 198.04 368.21 L 198.23 368.21 L 198.71 367.82 L 198.81 367.82 L 198.89 367.82 L 198.91 367.71 L 199.08 367.54 L 199.20 367.51 L 199.27 367.41 L 199.34 367.34 L 199.38 367.30 L 199.56 367.25 L 199.93 367.33 L 200.02 367.06 L 200.09 366.99 L 200.18 366.99 L 200.65 366.93 L 200.72 366.89 L 200.75 366.89 L 200.78 366.84 L 200.88 366.79 L 200.96 366.70 L 201.30 366.45 L 201.79 366.34 L 201.97 366.30 L 202.51 366.14 L 202.77 365.75 L 202.86 365.68 L 202.97 365.38 L 203.13 364.99 L 203.38 364.88 L 203.72 364.87 L 204.18 364.86 L 204.25 364.71 L 204.59 364.62 L 204.81 364.49 L 204.87 364.39 L 205.01 364.35 L 205.11 364.09 L 206.31 363.97 L 207.45 363.97 L 217.67 363.93 L 217.74 363.79 L 217.80 363.70 L 218.12 363.55 L 219.07 363.29 L 219.11 363.26 L 219.25 363.07 L 219.72 363.00 L 219.94 362.49 L 220.28 362.48 L 220.35 362.46 L 220.43 361.96 L 221.02 361.50 L 221.09 361.49 L 221.22 361.47 L 221.35 361.42 L 221.41 361.25 L 221.74 360.48 L 221.86 360.28 L 221.91 360.27 L 221.99 360.18 L 222.14 359.88 L 222.20 359.10 L 222.34 358.79 L 222.79 358.60 L 222.83 358.21 L 222.87 358.21 L 222.94 358.14 L 223.05 358.04 L 223.09 358.01 L 223.14 357.97 L 223.35 357.07 L 223.40 356.53 L 223.66 356.43 L 223.81 355.53 L 223.91 355.36 L 224.70 353.94 L 224.79 353.91 L 254.83 353.50 L 254.86 353.50 L 266.34 353.38 L 266.96 353.23 L 267.09 353.23 L 267.26 353.16 L 267.32 353.04 L 267.38 353.02 L 272.36 353.00 L 273.02 351.38 L 273.26 351.23 L 273.39 350.67 L 276.49 350.60 L 276.51 350.55 L 276.71 350.54 L 277.63 350.44 L 277.69 350.25 L 277.80 350.18 L 278.13 350.10 L 278.17 350.08 L 278.30 349.76 L 278.44 349.67 L 278.46 349.43 L 288.11 349.12 L 288.18 348.38 L 288.57 348.18 L 288.57 347.90 L 288.64 347.68 L 288.72 347.34 L 288.83 346.44 L 288.99 345.95 L 289.13 345.32 L 289.25 345.31 L 289.30 344.82 L 289.50 344.79 L 290.17 344.33 L 290.44 344.11 L 290.48 343.98 L 290.54 343.97 L 290.57 343.81 L 290.66 343.26 L 290.94 343.20 L 290.98 343.20 L 291.14 342.84 L 291.21 342.84 L 291.23 342.63 L 291.29 342.50 L 291.33 342.49 L 291.37 342.20 L 291.58 342.03 L 291.68 341.74 L 291.79 341.73 L 291.87 341.58 L 291.91 341.36 L 292.12 341.24 L 292.18 341.11 L 292.22 341.11 L 292.27 341.11 L 292.31 340.88 L 292.33 340.89 L 292.35 340.89 L 292.46 340.81 L 292.49 340.56 L 292.60 340.56 L 292.67 340.50 L 292.89 340.48 L 293.15 340.45 L 293.16 340.45 L 293.24 340.44 L 293.48 340.44 L 293.60 340.44 L 293.72 340.44 L 293.84 340.39 L 293.93 340.10 L 294.27 340.10 L 294.30 339.92 L 294.34 339.92 L 294.37 339.72 L 294.59 339.65 L 294.63 339.60 L 294.79 339.60 L 309.63 339.55 L 310.48 339.46 L 310.51 339.46 L 310.67 339.46 L 310.69 339.46 L 310.80 339.11 L 310.88 339.10 L 310.95 339.00 L 311.05 338.95 L 311.08 338.92 L 311.12 338.90 L 311.28 338.87 L 311.60 338.80 L 311.81 338.33 L 312.03 338.30 L 312.04 338.27 L 312.08 337.88 L 312.11 337.87 L 312.55 337.87 L 312.56 337.83 L 312.63 337.47 L 312.82 337.42 L 312.94 337.41 L 312.97 337.40 L 312.97 337.36 L 313.03 337.33 L 313.06 336.96 L 313.08 336.95 L 313.19 336.95 L 313.20 336.92 L 313.43 336.88 L 314.06 336.87 L 314.21 336.84 L 314.26 336.83 L 314.29 336.71 L 314.33 336.71 L 314.42 336.29 L 324.56 336.16 L 324.58 336.04 L 324.66 335.95 L 324.69 335.94 L 324.75 335.58 L 324.86 335.50 L 324.87 335.47 L 325.06 335.47 L 325.10 335.47 L 325.13 335.12 L 325.30 335.07 L 325.74 335.06 L 325.75 335.04 L 325.86 334.84 L 325.90 334.85 L 325.92 334.52 L 326.29 334.52 L 326.30 334.50 L 326.86 334.42 L 326.92 334.03 L 327.12 334.03 L 327.35 334.03 L 327.41 333.73 L 327.45 333.51 L 327.55 333.50 L 327.84 333.45 L 327.89 333.44 L 328.02 333.35 L 328.15 333.35 L 328.58 333.35 L 328.63 333.35 L 328.73 333.33 L 328.74 333.32 L 328.88 333.32 L 329.20 333.30 L 329.53 333.26 L 329.58 333.26 L 329.65 333.22 L 329.75 333.11 L 330.00 333.11 L 330.43 332.98 L 330.57 332.76 L 330.80 332.74 L 331.74 332.50 L 331.94 332.50 L 332.09 332.49 L 332.32 332.49 L 332.40 332.47 L 332.63 332.35 L 333.00 332.33 L 333.04 332.22 L 333.11 332.17 L 333.16 332.18 L 333.19 332.14 L 333.48 332.13 L 340.21 332.12 L 340.27 332.12 L 340.69 332.12 L 340.73 332.11 L 340.82 331.78 L 340.90 331.76 L 340.91 331.77 L 341.14 331.76 L 341.20 331.74 L 342.58 331.26 L 342.74 331.20 L 342.86 331.19 L 342.88 331.19 L 343.31 331.18 L 343.45 331.25 L 343.48 331.24 L 343.71 331.21 L 343.96 330.75 L 343.99 330.74 L 344.20 330.73 L 344.29 330.73 L 344.37 330.73 L 344.54 330.64 L 344.91 330.22 L 344.99 330.22 L 345.05 330.16 L 345.21 329.78 L 345.58 329.36 L 345.91 329.39 L 345.97 329.16 L 346.31 329.16 L 346.37 329.14 L 346.42 329.11 L 346.46 328.89 L 346.57 328.89 L 346.60 328.89 L 346.65 328.89 L 346.84 328.89 L 347.14 328.71 L 347.32 328.69 L 347.53 328.69 L 347.62 328.69 L 347.83 328.69 L 348.17 328.69 L 348.50 328.69 L 348.76 328.69 L 348.82 328.68 L 348.89 328.68 L 348.89 328.60 L 349.09 328.54 L 349.15 328.54 L 349.23 328.53 L 349.78 328.53 L 349.79 328.31 L 349.94 328.31 L 350.58 328.32 L 351.01 328.31 L 351.32 328.27 L 351.33 328.18 L 351.36 328.18 L 360.78 328.03 L 360.81 328.03 L 360.91 328.02 L 360.97 327.88 L 361.00 327.88 L 361.01 327.88 L 361.41 327.83 L 361.50 327.39 L 361.62 327.30 L 361.82 326.43 L 361.95 326.42 L 362.11 326.05 L 362.20 326.10 L 362.24 326.09 L 362.29 325.62 L 362.41 325.54 L 362.42 325.21 L 362.46 325.16 L 362.56 325.13 L 362.63 324.97 L 362.72 326.91 L 362.83 326.88 L 363.06 326.10 L 363.16 325.93 L 363.25 325.75 L 363.83 325.44 L 364.33 325.12 L 364.92 324.66 L 365.07 324.61 L 365.24 324.61 L 365.43 324.57 L 368.89 324.34 L 369.18 324.31 L 401.99 323.71 L 505.31 323.69 L 505.65 323.41 L 505.89 323.37 L 506.12 323.37 L 506.48 323.12 L 506.61 322.83 L 506.70 322.30 L 506.86 322.16 L 507.10 322.21 L 507.30 321.89 L 507.34 321.89 L 507.50 321.79 L 507.53 321.79 L 507.71 321.27 L 507.86 320.48 L 508.33 320.40 L 508.34 320.31 L 508.48 319.28 L 508.92 319.25 L 508.93 319.15 L 509.02 319.09 L 509.12 318.15 L 509.61 318.10 L 509.62 317.97 L 509.72 317.91 L 509.83 317.30 L 510.01 317.28 L 510.02 317.18 L 510.10 316.16 L 510.12 316.13 L 510.16 316.10 L 510.36 316.10 L 510.39 315.99 L 510.46 315.92 L 510.68 315.82 L 510.72 315.82 L 510.89 315.77 L 511.18 315.81 L 511.22 315.76 L 511.26 315.74 L 511.31 315.70 L 511.46 314.65 L 511.61 314.62 L 511.63 314.53 L 511.72 313.45 L 511.80 313.06 L 511.83 312.92 L 511.92 312.39 L 511.96 311.47 L 512.14 311.46 L 512.16 311.41 L 512.25 311.22 L 512.37 311.22 L 513.12 311.19 L 513.49 311.16 L 521.56 311.20 L 521.64 311.00 L 521.72 310.84 L 521.86 310.11 L 522.16 310.10 L 522.18 310.03 L 522.24 309.10 L 522.43 309.10 L 522.45 309.01 L 524.21 308.91 L 524.32 308.58 L 525.21 308.42 L 525.31 308.38 L 525.41 307.36 L 526.48 307.06 L 526.94 306.82 L 527.05 306.05 L 527.44 306.04 L 527.68 305.61 L 528.07 304.95 L 528.78 304.55 L 539.58 304.55 L 540.23 304.54 L 540.26 304.54 L 541.16 304.39 L 541.21 304.31 L 541.52 304.24 L 541.89 303.38 L 541.89 303.38 L 541.93 303.35 L 542.41 303.16 L 543.52 302.59 L 543.60 302.53 L 543.71 302.53 L 543.88 302.28 L 543.93 302.25 L 543.99 302.20 L 544.51 302.20 L 544.92 302.20 L 545.14 302.20 L 545.18 302.16 L 545.64 301.29 L 545.99 301.21 L 546.01 301.14 L 546.05 301.06 L 546.10 300.84 L 557.82 300.68 L 557.85 300.66 L 557.88 300.64 L 558.11 300.53 L 558.28 300.42 L 559.32 299.93 L 559.57 299.83 L 560.32 299.46 L 560.96 299.40 L 561.43 299.25 L 561.57 297.96 L 562.16 297.74 L 562.38 297.68 L 562.45 296.74 L 564.19 295.85 L 564.21 295.85 L 564.30 295.44 L 564.63 295.40 L 564.64 295.40 L 564.65 295.30 L 564.71 295.18 L 564.86 295.09 L 565.05 294.45 L 566.85 294.12 L 567.08 293.98 L 567.25 293.63 L 567.27 293.59 L 567.31 293.37 L 575.29 292.56 L 575.55 291.97 L 575.70 291.95 L 575.76 291.56 L 576.51 291.40 L 576.67 290.98 L 576.81 290.98 L 576.89 290.11 L 577.14 289.91 L 577.18 289.88 L 577.52 289.83 L 577.60 289.12 L 577.88 289.03 L 577.94 288.47 L 578.18 288.42 L 578.36 288.09 L 578.49 287.47 L 578.79 287.34 L 578.82 286.71 L 579.21 288.15 L 579.24 288.15 L 579.31 287.33 L 579.39 287.33 L 579.43 287.26 L 579.87 287.19 L 580.52 286.84 L 580.84 287.02 L 581.90 286.99 L 581.92 286.99 L 582.08 286.97 L 582.16 286.96 L 582.28 286.84 L 582.41 286.74 L 582.55 286.59 L 582.86 286.39 L 583.17 286.37 L 584.11 286.28 L 584.15 286.27 L 585.10 286.16 L 585.51 286.10 L 593.58 286.06 L 593.99 286.02 L 594.19 286.02 L 594.28 286.02 L 594.30 286.02 L 594.51 286.00 L 594.60 285.97 L 594.84 285.82 L 594.98 285.80 L 595.51 285.79 L 595.78 285.71 L 596.24 285.67 L 596.36 285.64 L 596.52 285.58 L 596.72 285.48 L 597.42 285.45 L 597.48 285.43 L 598.50 285.27 L 598.66 285.02 L 598.86 284.93 L 599.36 284.77 L 599.58 284.69 L 599.70 285.05 L 599.80 285.04 L 599.94 284.90 L 600.37 284.57 L 600.83 284.48 L 601.23 284.41 L 601.28 284.37 L 601.33 284.12 L 630.55 284.07 L 630.74 284.00 L 647.55 283.93 L 647.63 284.29 L 647.77 282.84 L 647.79 282.84 L 647.84 282.88 L 648.44 282.32 L 648.50 282.29 L 649.24 282.35 L 650.00 282.29"/>
	</g>
	<g class="poloto_legend poloto_imgs poloto_line poloto0 poloto_stroke"><line x1="680" x2="730" y1="81.25" y2="81.25"/></g>
	<g class="poloto_legend poloto_imgs poloto_line poloto1 poloto_stroke"><line x1="680" x2="730" y1="131.25" y2="131.25"/></g>
	<g class="poloto_legend poloto_imgs poloto_line poloto2 poloto_stroke"><line x1="680" x2="730" y1="181.25" y2="181.25"/></g>
	<text class="poloto_legend poloto_text poloto_line poloto0" x="675" y="100">total</text>
	<text class="poloto_legend poloto_text poloto_line poloto1" x="675" y="150">code</text>
	<text class="poloto_legend poloto_text poloto_line poloto2" x="675" y="200">docs</text>
	<text class="poloto_text poloto_name poloto_title" x="400.00" y="37.50">Workspace lines over time</text>
	<text class="poloto_text poloto_name poloto_x" x="400.00" y="640">date (JST)</text>
	<text class="poloto_text poloto_name poloto_y" x="37.50" y="250.00" transform="rotate(-90,37.50,250.00)">lines</text>
	<text class="poloto_text poloto_ticks poloto_y">
		<tspan x="135.00" y="400.00">0</tspan>
		<tspan x="135.00" y="323.97">50K</tspan>
		<tspan x="135.00" y="247.94">100K</tspan>
		<tspan x="135.00" y="171.91">150K</tspan>
	</text>
	<g class="poloto_imgs poloto_ticks poloto_y" stroke="black">
		<line x1="150.00" x2="144.00" y1="400.00" y2="400.00"/>
		<line x1="150.00" x2="144.00" y1="323.97" y2="323.97"/>
		<line x1="150.00" x2="144.00" y1="247.94" y2="247.94"/>
		<line x1="150.00" x2="144.00" y1="171.91" y2="171.91"/>
	</g>
	<g class="poloto_text poloto_ticks poloto_x">
		<text x="217.54" y="430.00" text-anchor="end" transform="rotate(-90 217.54 430.00)">2026-04-24 12:06</text>
		<text x="321.51" y="430.00" text-anchor="end" transform="rotate(-90 321.51 430.00)">2026-04-30 07:00</text>
		<text x="425.48" y="430.00" text-anchor="end" transform="rotate(-90 425.48 430.00)">2026-05-06 01:53</text>
		<text x="529.45" y="430.00" text-anchor="end" transform="rotate(-90 529.45 430.00)">2026-05-11 20:46</text>
		<text x="633.41" y="430.00" text-anchor="end" transform="rotate(-90 633.41 430.00)">2026-05-17 15:40</text>
	</g>
	<g class="poloto_imgs poloto_ticks poloto_x" stroke="black">
		<line x1="217.54" x2="217.54" y1="400.00" y2="405.00"/>
		<line x1="321.51" x2="321.51" y1="400.00" y2="405.00"/>
		<line x1="425.48" x2="425.48" y1="400.00" y2="405.00"/>
		<line x1="529.45" x2="529.45" y1="400.00" y2="405.00"/>
		<line x1="633.41" x2="633.41" y1="400.00" y2="405.00"/>
	</g>
	<path class="poloto_imgs poloto_ticks poloto_x" stroke="black" style="stroke-dasharray:10.396782819524326;stroke-dashoffset:-67.54228371573845;" d=" M 150.00 400.00 L 650.00 400.00"/>
	<path class="poloto_imgs poloto_ticks poloto_y" stroke="black" style="stroke-dasharray:7.602905323554308;stroke-dashoffset:-0;" d=" M 150.00 400.00 L 150.00 100.00"/>
</svg>

