<svg class="poloto" width="800" height="680" viewBox="0 0 800 680" xmlns="http://www.w3.org/2000/svg">
	<style>
.poloto{
  stroke-linecap:round;
  stroke-linejoin:round;
  font-family:Roboto,sans-serif;
  font-size:16px;
}
.poloto_background{fill:AliceBlue;}
.poloto_scatter{stroke-width:7}
.poloto_line{stroke-width:2}
.poloto_text{fill: black;}
.poloto_name{font-size:24px;dominant-baseline:auto;text-anchor:middle;}
.poloto_where{dominant-baseline:middle;text-anchor:start}
.poloto_text.poloto_legend{font-size:20px;dominant-baseline:middle;text-anchor:start;}
.poloto_text.poloto_ticks.poloto_y{dominant-baseline:middle;text-anchor:end}
.poloto_text.poloto_ticks.poloto_x{dominant-baseline:auto;text-anchor:middle}
.poloto_imgs.poloto_ticks{stroke: black;stroke-width:3;fill:none;stroke-dasharray:none}
.poloto_grid{stroke:gray;stroke-width:0.5}

.poloto0.poloto_stroke{stroke:blue;}
.poloto1.poloto_stroke{stroke:red;}
.poloto2.poloto_stroke{stroke:green;}
.poloto3.poloto_stroke{stroke:gold;}
.poloto4.poloto_stroke{stroke:aqua;}
.poloto5.poloto_stroke{stroke:lime;}
.poloto6.poloto_stroke{stroke:orange;}
.poloto7.poloto_stroke{stroke:chocolate;}
.poloto0.poloto_fill{fill:blue;}
.poloto1.poloto_fill{fill:red;}
.poloto2.poloto_fill{fill:green;}
.poloto3.poloto_fill{fill:gold;}
.poloto4.poloto_fill{fill:aqua;}
.poloto5.poloto_fill{fill:lime;}
.poloto6.poloto_fill{fill:orange;}
.poloto7.poloto_fill{fill:chocolate;}
	</style>
	<circle r="1e5" class="poloto_background" fill="white"/>
	<g id="poloto_plot0" class="poloto_plot poloto_imgs poloto_line poloto0 poloto_stroke" fill="none" stroke="black">
		<path d=" M 150.00 111.30 L 243.01 111.02 L 243.31 111.01 L 244.39 111.00 L 244.89 110.77 L 245.22 110.74 L 245.29 110.73 L 249.25 110.66 L 250.14 109.83 L 251.32 109.64 L 253.30 107.99 L 254.58 107.97 L 256.16 107.27 L 257.06 107.36 L 257.48 107.35 L 257.95 106.55 L 259.11 106.01 L 259.28 105.42 L 259.68 105.34 L 260.68 105.30 L 261.33 105.02 L 262.17 108.17 L 263.30 108.11 L 265.58 106.86 L 266.58 106.55 L 267.47 106.29 L 273.18 104.48 L 278.08 103.61 L 283.96 101.94 L 285.46 101.86 L 287.12 101.86 L 288.94 101.79 L 323.14 101.31 L 325.96 101.27 L 650.00 100.00"/>
	</g>
	<g id="poloto_plot1" class="poloto_plot poloto_imgs poloto_line poloto1 poloto_stroke" fill="none" stroke="black">
		<path d=" M 150.00 251.40 L 243.01 251.39 L 243.31 251.39 L 244.39 251.39 L 244.89 251.39 L 245.22 251.37 L 245.29 251.37 L 249.25 251.37 L 250.14 251.36 L 251.32 251.33 L 253.30 251.30 L 254.58 251.30 L 256.16 251.20 L 257.06 251.20 L 257.48 251.20 L 257.95 251.20 L 259.11 250.81 L 259.28 250.81 L 259.68 250.81 L 260.68 250.81 L 261.33 250.81 L 262.17 250.90 L 263.30 250.90 L 265.58 250.89 L 266.58 250.89 L 267.47 250.89 L 273.18 249.64 L 278.08 249.31 L 283.96 248.42 L 285.46 248.42 L 287.12 248.42 L 288.94 248.42 L 323.14 248.31 L 325.96 248.30 L 650.00 248.14"/>
	</g>
	<g id="poloto_plot2" class="poloto_plot poloto_imgs poloto_line poloto2 poloto_stroke" fill="none" stroke="black">
		<path d=" M 150.00 297.87 L 243.01 297.67 L 243.31 297.66 L 244.39 297.65 L 244.89 297.46 L 245.22 297.46 L 245.29 297.44 L 249.25 297.39 L 250.14 296.76 L 251.32 296.62 L 253.30 295.39 L 254.58 295.38 L 256.16 294.85 L 257.06 294.91 L 257.48 294.91 L 257.95 294.23 L 259.11 294.12 L 259.28 293.65 L 259.68 293.58 L 260.68 293.54 L 261.33 293.31 L 262.17 296.07 L 263.30 296.03 L 265.58 294.92 L 266.58 294.67 L 267.47 294.43 L 273.18 293.99 L 278.08 293.52 L 283.96 292.87 L 285.46 292.80 L 287.12 292.80 L 288.94 292.74 L 323.14 292.41 L 325.96 292.38 L 650.00 291.52"/>
	</g>
	<g class="poloto_legend poloto_imgs poloto_line poloto0 poloto_stroke"><line x1="680" x2="730" y1="81.25" y2="81.25"/></g>
	<g class="poloto_legend poloto_imgs poloto_line poloto1 poloto_stroke"><line x1="680" x2="730" y1="131.25" y2="131.25"/></g>
	<g class="poloto_legend poloto_imgs poloto_line poloto2 poloto_stroke"><line x1="680" x2="730" y1="181.25" y2="181.25"/></g>
	<text class="poloto_legend poloto_text poloto_line poloto0" x="675" y="100">total</text>
	<text class="poloto_legend poloto_text poloto_line poloto1" x="675" y="150">code</text>
	<text class="poloto_legend poloto_text poloto_line poloto2" x="675" y="200">docs</text>
	<text class="poloto_text poloto_name poloto_title" x="400.00" y="37.50">Workspace lines over time</text>
	<text class="poloto_text poloto_name poloto_x" x="400.00" y="640">date (JST)</text>
	<text class="poloto_text poloto_name poloto_y" x="37.50" y="250.00" transform="rotate(-90,37.50,250.00)">lines</text>
	<text class="poloto_text poloto_ticks poloto_y">
		<tspan x="135.00" y="400.00">0</tspan>
		<tspan x="135.00" y="356.76">20K</tspan>
		<tspan x="135.00" y="313.51">40K</tspan>
		<tspan x="135.00" y="270.27">60K</tspan>
		<tspan x="135.00" y="227.03">80K</tspan>
		<tspan x="135.00" y="183.78">100K</tspan>
		<tspan x="135.00" y="140.54">120K</tspan>
	</text>
	<g class="poloto_imgs poloto_ticks poloto_y" stroke="black">
		<line x1="150.00" x2="144.00" y1="400.00" y2="400.00"/>
		<line x1="150.00" x2="144.00" y1="356.76" y2="356.76"/>
		<line x1="150.00" x2="144.00" y1="313.51" y2="313.51"/>
		<line x1="150.00" x2="144.00" y1="270.27" y2="270.27"/>
		<line x1="150.00" x2="144.00" y1="227.03" y2="227.03"/>
		<line x1="150.00" x2="144.00" y1="183.78" y2="183.78"/>
		<line x1="150.00" x2="144.00" y1="140.54" y2="140.54"/>
	</g>
	<g class="poloto_text poloto_ticks poloto_x">
		<text x="163.27" y="430.00" text-anchor="end" transform="rotate(-90 163.27 430.00)">2026-05-02 00:40</text>
		<text x="265.94" y="430.00" text-anchor="end" transform="rotate(-90 265.94 430.00)">2026-05-02 14:33</text>
		<text x="368.61" y="430.00" text-anchor="end" transform="rotate(-90 368.61 430.00)">2026-05-03 04:26</text>
		<text x="471.28" y="430.00" text-anchor="end" transform="rotate(-90 471.28 430.00)">2026-05-03 18:20</text>
		<text x="573.96" y="430.00" text-anchor="end" transform="rotate(-90 573.96 430.00)">2026-05-04 08:13</text>
	</g>
	<g class="poloto_imgs poloto_ticks poloto_x" stroke="black">
		<line x1="163.27" x2="163.27" y1="400.00" y2="405.00"/>
		<line x1="265.94" x2="265.94" y1="400.00" y2="405.00"/>
		<line x1="368.61" x2="368.61" y1="400.00" y2="405.00"/>
		<line x1="471.28" x2="471.28" y1="400.00" y2="405.00"/>
		<line x1="573.96" x2="573.96" y1="400.00" y2="405.00"/>
	</g>
	<path class="poloto_imgs poloto_ticks poloto_x" stroke="black" style="stroke-dasharray:10.267151276206905;stroke-dashoffset:-13.269266309216619;" d=" M 150.00 400.00 L 650.00 400.00"/>
	<path class="poloto_imgs poloto_ticks poloto_y" stroke="black" style="stroke-dasharray:10.81081081081081;stroke-dashoffset:-0;" d=" M 150.00 400.00 L 150.00 100.00"/>
</svg>

