<svg class="poloto" width="800" height="680" viewBox="0 0 800 680" xmlns="http://www.w3.org/2000/svg">
	<style>
.poloto{
  stroke-linecap:round;
  stroke-linejoin:round;
  font-family:Roboto,sans-serif;
  font-size:16px;
}
.poloto_background{fill:AliceBlue;}
.poloto_scatter{stroke-width:7}
.poloto_line{stroke-width:2}
.poloto_text{fill: black;}
.poloto_name{font-size:24px;dominant-baseline:auto;text-anchor:middle;}
.poloto_where{dominant-baseline:middle;text-anchor:start}
.poloto_text.poloto_legend{font-size:20px;dominant-baseline:middle;text-anchor:start;}
.poloto_text.poloto_ticks.poloto_y{dominant-baseline:middle;text-anchor:end}
.poloto_text.poloto_ticks.poloto_x{dominant-baseline:auto;text-anchor:middle}
.poloto_imgs.poloto_ticks{stroke: black;stroke-width:3;fill:none;stroke-dasharray:none}
.poloto_grid{stroke:gray;stroke-width:0.5}

.poloto0.poloto_stroke{stroke:blue;}
.poloto1.poloto_stroke{stroke:red;}
.poloto2.poloto_stroke{stroke:green;}
.poloto3.poloto_stroke{stroke:gold;}
.poloto4.poloto_stroke{stroke:aqua;}
.poloto5.poloto_stroke{stroke:lime;}
.poloto6.poloto_stroke{stroke:orange;}
.poloto7.poloto_stroke{stroke:chocolate;}
.poloto0.poloto_fill{fill:blue;}
.poloto1.poloto_fill{fill:red;}
.poloto2.poloto_fill{fill:green;}
.poloto3.poloto_fill{fill:gold;}
.poloto4.poloto_fill{fill:aqua;}
.poloto5.poloto_fill{fill:lime;}
.poloto6.poloto_fill{fill:orange;}
.poloto7.poloto_fill{fill:chocolate;}
	</style>
	<circle r="1e5" class="poloto_background" fill="white"/>
	<g id="poloto_plot0" class="poloto_plot poloto_imgs poloto_line poloto0 poloto_stroke" fill="none" stroke="black">
		<path d=" M 150.00 369.63 L 150.03 369.61 L 150.04 369.59 L 150.05 369.59 L 150.07 369.59 L 150.10 366.30 L 150.21 365.90 L 150.47 365.88 L 150.84 365.61 L 151.03 363.94 L 151.42 363.83 L 151.48 363.74 L 151.53 363.71 L 151.98 362.89 L 152.82 362.23 L 153.08 359.64 L 153.15 359.64 L 153.66 359.54 L 154.24 359.53 L 154.25 359.53 L 154.25 359.53 L 162.13 359.53 L 162.18 359.52 L 162.28 359.50 L 162.33 359.47 L 162.63 359.32 L 162.76 359.28 L 163.10 359.04 L 163.14 358.94 L 163.24 358.70 L 163.34 358.67 L 163.37 358.67 L 163.45 358.60 L 163.54 358.60 L 163.62 358.61 L 163.84 358.22 L 164.04 357.99 L 164.07 357.99 L 164.16 357.85 L 164.79 358.44 L 164.80 358.44 L 164.88 358.34 L 165.24 357.90 L 165.53 357.37 L 165.85 357.14 L 165.92 357.09 L 165.93 357.10 L 165.99 356.89 L 166.11 356.89 L 166.27 356.82 L 166.58 356.62 L 166.60 356.31 L 166.65 356.31 L 166.73 356.15 L 166.90 356.15 L 166.92 356.15 L 167.11 355.71 L 167.18 355.68 L 167.25 355.65 L 167.32 355.47 L 168.28 355.23 L 168.51 355.18 L 169.04 354.87 L 169.16 354.87 L 169.24 354.86 L 169.29 354.63 L 169.65 353.32 L 169.82 353.30 L 170.01 352.86 L 170.10 352.82 L 170.32 352.46 L 170.42 352.33 L 170.55 352.09 L 170.67 351.89 L 171.09 348.87 L 171.11 348.80 L 171.13 348.62 L 171.27 347.17 L 178.58 347.06 L 179.33 345.41 L 179.36 345.37 L 180.25 345.11 L 180.33 345.11 L 180.41 344.78 L 180.63 344.62 L 180.73 344.33 L 180.77 344.09 L 180.88 343.66 L 181.14 343.65 L 181.15 343.36 L 181.25 343.03 L 181.35 343.03 L 181.46 342.66 L 181.60 342.40 L 181.66 342.27 L 181.68 342.27 L 181.81 341.99 L 181.83 341.98 L 181.96 341.70 L 181.99 341.69 L 182.20 340.33 L 182.23 340.33 L 182.30 340.10 L 182.39 340.09 L 182.51 340.09 L 182.57 340.06 L 182.98 339.80 L 182.99 339.81 L 183.06 339.21 L 183.25 339.19 L 183.41 338.28 L 183.46 338.20 L 183.54 338.20 L 183.58 338.16 L 183.67 337.46 L 184.13 331.55 L 184.18 331.26 L 184.33 331.23 L 184.38 331.16 L 184.42 331.14 L 184.49 330.99 L 184.56 330.32 L 184.73 330.18 L 184.84 330.16 L 184.93 329.87 L 184.98 329.86 L 185.40 329.64 L 185.62 329.47 L 185.69 329.21 L 185.88 329.20 L 185.90 329.20 L 185.91 329.17 L 186.04 327.75 L 186.13 327.67 L 186.47 326.23 L 186.53 325.81 L 186.59 325.80 L 186.68 325.65 L 186.69 325.54 L 186.73 325.47 L 186.76 325.43 L 186.81 325.43 L 186.85 325.35 L 186.99 324.18 L 187.09 324.01 L 187.18 323.66 L 187.32 323.64 L 187.46 323.53 L 187.61 322.70 L 187.71 321.55 L 187.93 321.49 L 187.93 321.06 L 188.05 320.92 L 198.25 320.92 L 198.45 320.90 L 198.93 320.30 L 199.03 320.28 L 199.11 320.28 L 199.13 320.13 L 199.30 319.94 L 199.42 319.91 L 199.49 319.80 L 199.56 319.72 L 199.60 319.67 L 199.79 319.62 L 200.15 319.55 L 200.25 319.23 L 200.32 319.15 L 200.40 319.14 L 200.88 318.99 L 200.94 318.90 L 200.98 318.90 L 201.01 318.78 L 201.11 318.73 L 201.19 318.61 L 201.53 317.84 L 202.02 317.72 L 202.20 317.67 L 202.75 317.47 L 203.01 313.76 L 203.10 313.68 L 203.21 313.31 L 203.37 312.82 L 203.62 312.69 L 203.96 312.67 L 204.43 312.66 L 204.50 312.50 L 204.83 312.33 L 205.05 312.06 L 205.12 311.95 L 205.25 311.91 L 205.35 311.57 L 206.56 311.21 L 207.71 311.21 L 217.97 311.18 L 218.05 311.01 L 218.10 310.91 L 218.42 310.75 L 219.38 309.47 L 219.42 309.38 L 219.56 309.05 L 220.03 308.97 L 220.25 308.10 L 220.59 308.10 L 220.67 308.08 L 220.74 307.49 L 221.34 304.11 L 221.41 304.10 L 221.54 304.07 L 221.67 304.03 L 221.73 303.66 L 222.06 302.39 L 222.18 302.15 L 222.24 302.13 L 222.31 301.54 L 222.46 300.71 L 222.52 299.83 L 222.67 299.44 L 223.11 295.04 L 223.16 294.60 L 223.20 294.60 L 223.27 294.52 L 223.38 294.41 L 223.42 294.37 L 223.46 294.32 L 223.68 293.27 L 223.73 292.52 L 223.99 292.38 L 224.14 291.27 L 224.24 290.57 L 225.04 280.32 L 225.13 280.29 L 255.30 279.80 L 255.33 279.80 L 266.86 279.66 L 267.49 279.38 L 267.62 279.38 L 267.79 279.31 L 267.84 279.18 L 267.91 279.14 L 272.91 279.07 L 273.57 277.12 L 273.81 276.94 L 273.95 276.23 L 277.06 276.08 L 277.08 275.88 L 277.27 275.87 L 278.21 274.64 L 278.26 274.41 L 278.37 274.34 L 278.70 274.25 L 278.75 274.22 L 278.88 273.85 L 279.02 273.75 L 279.04 273.47 L 288.73 273.10 L 288.80 272.05 L 289.19 271.82 L 289.19 270.06 L 289.26 269.80 L 289.34 269.37 L 289.45 268.15 L 289.61 267.51 L 289.75 266.76 L 289.88 266.75 L 289.93 266.18 L 290.12 266.13 L 290.79 263.30 L 291.06 262.99 L 291.11 262.81 L 291.17 262.81 L 291.20 262.61 L 291.29 261.92 L 291.57 261.58 L 291.61 261.54 L 291.77 259.05 L 291.84 259.04 L 291.86 258.77 L 291.93 258.57 L 291.97 258.57 L 292.00 258.19 L 292.22 256.84 L 292.31 256.46 L 292.43 256.41 L 292.51 252.81 L 292.54 252.52 L 292.76 250.46 L 292.82 250.30 L 292.86 250.30 L 292.91 250.29 L 292.94 250.00 L 292.97 250.01 L 292.99 250.01 L 293.09 246.37 L 293.13 246.05 L 293.23 246.03 L 293.31 245.97 L 293.53 245.87 L 293.79 245.73 L 293.80 245.73 L 293.88 245.68 L 294.13 245.62 L 294.24 245.62 L 294.36 245.62 L 294.49 244.03 L 294.57 243.65 L 294.91 243.64 L 294.94 243.39 L 294.99 243.39 L 295.01 243.12 L 295.24 240.82 L 295.28 240.77 L 295.44 240.76 L 310.35 240.69 L 311.20 240.57 L 311.23 240.57 L 311.39 240.57 L 311.41 240.57 L 311.52 240.11 L 311.60 240.10 L 311.67 239.87 L 311.78 239.82 L 311.80 239.78 L 311.84 239.77 L 312.00 239.51 L 312.33 239.28 L 312.53 238.54 L 312.76 237.84 L 312.77 237.81 L 312.81 237.15 L 312.84 237.13 L 313.28 236.74 L 313.29 236.69 L 313.36 236.17 L 313.55 236.12 L 313.67 236.07 L 313.70 235.14 L 313.70 235.09 L 313.76 235.97 L 313.79 235.43 L 313.81 235.41 L 313.92 234.17 L 313.93 234.13 L 314.16 234.03 L 314.80 234.01 L 314.95 233.97 L 314.99 233.96 L 315.03 233.79 L 315.06 233.79 L 315.15 233.18 L 325.34 231.99 L 325.36 231.83 L 325.45 231.72 L 325.47 231.49 L 325.53 221.11 L 325.64 216.87 L 325.65 216.84 L 325.84 216.76 L 325.89 216.76 L 325.92 216.27 L 326.08 216.22 L 326.52 215.22 L 326.54 215.20 L 326.65 214.89 L 326.69 214.90 L 326.71 214.39 L 327.08 213.80 L 327.09 213.78 L 327.65 213.55 L 327.72 213.02 L 327.92 213.03 L 328.15 211.69 L 328.20 211.17 L 328.24 210.74 L 328.35 210.22 L 328.64 210.04 L 328.69 209.91 L 328.82 209.79 L 328.95 209.79 L 329.38 209.80 L 329.43 209.80 L 329.53 209.77 L 329.54 209.77 L 329.68 209.78 L 330.00 209.76 L 330.33 209.56 L 330.38 209.56 L 330.46 209.48 L 330.55 209.34 L 330.81 209.34 L 331.24 209.15 L 331.38 208.74 L 331.61 205.16 L 332.55 208.19 L 332.75 208.17 L 332.91 208.16 L 333.14 208.15 L 333.21 208.10 L 333.45 207.93 L 333.82 207.68 L 333.86 207.52 L 333.93 207.45 L 333.98 207.46 L 334.01 207.41 L 334.30 207.19 L 341.06 207.18 L 341.12 207.19 L 341.54 207.18 L 341.58 207.16 L 341.68 206.70 L 341.75 206.45 L 341.76 206.45 L 342.00 206.41 L 342.05 206.38 L 343.44 205.71 L 343.60 205.65 L 343.72 205.64 L 343.74 205.64 L 344.17 205.48 L 344.32 205.56 L 344.35 205.55 L 344.58 205.51 L 344.83 204.09 L 344.86 204.08 L 345.07 203.92 L 345.16 203.92 L 345.24 203.92 L 345.41 203.77 L 345.79 203.19 L 345.86 203.17 L 345.93 203.01 L 346.08 202.34 L 346.45 201.64 L 346.78 198.35 L 346.85 197.95 L 347.19 197.79 L 347.25 197.71 L 347.30 197.55 L 347.34 197.02 L 347.45 196.07 L 347.48 196.11 L 347.53 196.09 L 347.73 196.09 L 348.02 195.74 L 348.20 195.67 L 348.41 195.66 L 348.51 195.65 L 348.71 195.64 L 349.05 195.64 L 349.39 195.63 L 349.65 195.62 L 349.71 195.61 L 349.78 195.60 L 349.78 195.49 L 349.98 195.42 L 350.04 195.41 L 350.12 195.26 L 350.67 195.24 L 350.68 194.96 L 350.83 194.95 L 351.48 194.95 L 351.91 194.78 L 352.22 194.57 L 352.23 194.45 L 352.26 194.45 L 361.72 194.26 L 361.75 194.25 L 361.86 194.24 L 361.91 194.07 L 361.94 194.06 L 361.95 194.05 L 362.35 194.00 L 362.44 193.41 L 362.56 193.27 L 362.77 192.10 L 362.90 192.09 L 363.06 191.59 L 363.15 191.65 L 363.19 191.65 L 363.24 191.08 L 363.36 190.69 L 363.37 190.27 L 363.41 190.22 L 363.52 190.18 L 363.58 189.99 L 363.67 192.23 L 363.78 192.19 L 364.01 191.29 L 364.12 191.07 L 364.21 190.89 L 364.79 189.60 L 365.29 188.98 L 365.88 187.79 L 366.04 187.74 L 366.21 187.74 L 366.39 187.68 L 369.87 187.34 L 370.16 187.32 L 403.12 186.41 L 506.90 186.20 L 507.24 185.84 L 507.48 185.79 L 507.72 185.79 L 508.08 185.09 L 508.20 184.75 L 508.30 184.13 L 508.46 182.32 L 508.70 182.69 L 508.90 182.30 L 508.94 182.29 L 509.10 182.18 L 509.14 182.18 L 509.31 181.52 L 509.46 180.46 L 509.93 179.33 L 509.95 179.24 L 510.08 177.90 L 510.53 174.58 L 510.54 174.46 L 510.63 174.39 L 510.73 173.21 L 511.22 171.61 L 511.23 171.46 L 511.33 171.39 L 511.44 170.60 L 511.62 169.98 L 511.64 169.86 L 511.71 168.64 L 511.73 168.62 L 511.77 168.27 L 511.98 166.11 L 512.00 165.99 L 512.07 165.86 L 512.29 165.57 L 512.34 165.57 L 512.51 165.15 L 512.80 165.20 L 512.84 165.15 L 512.88 165.12 L 512.93 165.09 L 513.08 163.82 L 513.23 162.78 L 513.25 162.69 L 513.34 161.40 L 513.43 160.13 L 513.45 159.98 L 513.54 158.50 L 513.58 157.33 L 513.76 156.55 L 513.78 156.49 L 513.87 156.25 L 514.00 156.23 L 514.74 156.19 L 515.11 156.16 L 523.22 156.21 L 523.30 155.98 L 523.38 155.79 L 523.52 154.92 L 523.82 154.69 L 523.85 154.61 L 523.90 153.45 L 524.10 152.34 L 524.12 152.24 L 525.89 152.17 L 526.00 151.54 L 526.89 151.35 L 526.99 151.31 L 527.09 150.01 L 528.17 148.79 L 528.63 148.33 L 528.74 147.38 L 529.13 145.75 L 529.37 145.27 L 529.76 144.32 L 530.48 143.83 L 541.33 143.82 L 541.98 143.71 L 542.01 143.73 L 542.91 143.54 L 542.96 143.45 L 543.28 143.37 L 543.65 142.31 L 543.65 142.31 L 543.69 142.27 L 544.17 141.06 L 545.29 140.36 L 545.36 140.30 L 545.47 140.29 L 545.64 139.97 L 545.69 139.89 L 545.76 139.83 L 546.27 139.78 L 546.69 139.78 L 546.91 139.78 L 546.94 139.73 L 547.41 138.67 L 547.77 138.47 L 547.78 138.39 L 547.82 138.30 L 547.87 138.02 L 559.65 137.61 L 559.67 137.59 L 559.71 137.57 L 559.93 137.45 L 560.11 137.33 L 561.15 135.69 L 561.41 135.50 L 562.15 135.01 L 562.80 134.89 L 563.27 134.73 L 563.41 133.23 L 564.01 131.47 L 564.22 131.34 L 564.30 130.20 L 566.04 128.11 L 566.06 128.11 L 566.16 127.60 L 566.49 127.54 L 566.49 127.54 L 566.51 127.42 L 566.57 127.25 L 566.72 127.09 L 566.91 126.21 L 568.72 124.09 L 568.95 123.84 L 569.11 123.46 L 569.14 123.42 L 569.17 123.12 L 577.19 122.16 L 577.45 121.43 L 577.61 121.40 L 577.66 120.92 L 578.42 120.70 L 578.58 120.22 L 578.72 120.22 L 578.80 119.20 L 579.06 116.62 L 579.10 116.58 L 579.43 116.54 L 579.51 115.69 L 579.80 114.68 L 579.86 113.98 L 580.10 113.34 L 580.27 113.00 L 580.41 112.22 L 580.71 111.57 L 580.74 110.83 L 581.13 110.67 L 581.17 110.67 L 581.23 109.73 L 581.31 109.73 L 581.35 109.66 L 581.80 107.90 L 582.45 107.33 L 582.77 107.52 L 583.83 107.44 L 583.85 107.43 L 584.02 107.41 L 584.09 107.39 L 584.21 107.27 L 584.34 107.17 L 584.48 106.97 L 584.80 106.72 L 585.11 106.71 L 586.05 106.53 L 586.10 106.52 L 587.05 106.36 L 587.46 106.25 L 595.57 106.23 L 595.98 106.10 L 596.18 106.02 L 596.27 106.02 L 596.29 106.01 L 596.50 105.99 L 596.59 105.93 L 596.83 105.76 L 596.98 105.73 L 597.50 105.55 L 597.78 105.16 L 598.24 105.10 L 598.36 104.85 L 598.52 104.69 L 598.72 104.49 L 599.42 104.54 L 599.49 104.53 L 600.51 104.04 L 600.67 103.75 L 600.87 103.66 L 601.37 103.43 L 601.60 103.49 L 601.72 103.87 L 601.82 103.85 L 601.95 103.69 L 602.39 102.54 L 602.85 102.42 L 603.26 102.32 L 603.30 102.27 L 603.35 101.94 L 632.70 101.86 L 632.89 101.72 L 649.78 101.34 L 649.86 101.76 L 650.00 100.00"/>
	</g>
	<g id="poloto_plot1" class="poloto_plot poloto_imgs poloto_line poloto1 poloto_stroke" fill="none" stroke="black">
		<path d=" M 150.00 381.96 L 150.03 381.94 L 150.04 381.93 L 150.05 381.93 L 150.07 381.93 L 150.10 381.36 L 150.21 381.34 L 150.47 381.33 L 150.84 381.11 L 151.03 381.02 L 151.42 381.04 L 151.48 381.00 L 151.53 381.00 L 151.98 380.95 L 152.82 380.85 L 153.08 378.62 L 153.15 378.62 L 153.66 378.56 L 154.24 378.55 L 154.25 378.55 L 154.25 378.55 L 162.13 378.55 L 162.18 378.55 L 162.28 378.55 L 162.33 378.52 L 162.63 378.51 L 162.76 378.51 L 163.10 378.51 L 163.14 378.51 L 163.24 378.49 L 163.34 378.49 L 163.37 378.49 L 163.45 378.47 L 163.54 378.47 L 163.62 378.47 L 163.84 378.34 L 164.04 378.34 L 164.07 378.34 L 164.16 378.34 L 164.79 379.18 L 164.80 379.18 L 164.88 379.17 L 165.24 379.04 L 165.53 378.91 L 165.85 378.84 L 165.92 378.80 L 165.93 378.80 L 165.99 378.80 L 166.11 378.80 L 166.27 378.75 L 166.58 378.70 L 166.60 378.70 L 166.65 378.70 L 166.73 378.68 L 166.90 378.68 L 166.92 378.68 L 167.11 378.67 L 167.18 378.67 L 167.25 378.67 L 167.32 378.67 L 168.28 378.57 L 168.51 378.56 L 169.04 378.52 L 169.16 378.52 L 169.24 378.52 L 169.29 378.52 L 169.65 378.45 L 169.82 378.45 L 170.01 378.37 L 170.10 378.36 L 170.32 378.18 L 170.42 378.11 L 170.55 378.11 L 170.67 378.11 L 171.09 375.50 L 171.11 375.46 L 171.13 375.46 L 171.27 375.20 L 178.58 375.20 L 179.33 374.08 L 179.36 374.08 L 180.25 374.08 L 180.33 374.08 L 180.41 373.96 L 180.63 373.94 L 180.73 373.94 L 180.77 373.94 L 180.88 373.94 L 181.14 373.94 L 181.15 373.70 L 181.25 373.69 L 181.35 373.69 L 181.46 373.66 L 181.60 373.66 L 181.66 373.66 L 181.68 373.66 L 181.81 373.66 L 181.83 373.66 L 181.96 373.66 L 181.99 373.66 L 182.20 372.55 L 182.23 372.55 L 182.30 372.42 L 182.39 372.42 L 182.51 372.42 L 182.57 372.40 L 182.98 372.40 L 182.99 372.40 L 183.06 372.33 L 183.25 372.33 L 183.41 371.70 L 183.46 371.62 L 183.54 371.62 L 183.58 371.62 L 183.67 371.60 L 184.13 366.94 L 184.18 366.98 L 184.33 366.98 L 184.38 366.98 L 184.42 366.98 L 184.49 366.98 L 184.56 366.91 L 184.73 366.91 L 184.84 366.91 L 184.93 366.90 L 184.98 366.90 L 185.40 366.90 L 185.62 366.89 L 185.69 366.78 L 185.88 366.78 L 185.90 366.78 L 185.91 366.78 L 186.04 366.46 L 186.13 366.38 L 186.47 365.28 L 186.53 365.28 L 186.59 365.28 L 186.68 365.29 L 186.69 365.29 L 186.73 365.29 L 186.76 365.29 L 186.81 365.29 L 186.85 365.29 L 186.99 365.27 L 187.09 365.27 L 187.18 365.26 L 187.32 365.26 L 187.46 365.25 L 187.61 364.84 L 187.71 364.70 L 187.93 364.70 L 187.93 364.69 L 188.05 364.69 L 198.25 364.69 L 198.45 364.68 L 198.93 364.61 L 199.03 364.60 L 199.11 364.60 L 199.13 364.60 L 199.30 364.60 L 199.42 364.60 L 199.49 364.60 L 199.56 364.60 L 199.60 364.60 L 199.79 364.60 L 200.15 364.62 L 200.25 364.62 L 200.32 364.62 L 200.40 364.62 L 200.88 364.53 L 200.94 364.49 L 200.98 364.49 L 201.01 364.43 L 201.11 364.43 L 201.19 364.42 L 201.53 364.00 L 202.02 364.00 L 202.20 364.00 L 202.75 364.00 L 203.01 361.15 L 203.10 361.15 L 203.21 361.15 L 203.37 361.14 L 203.62 361.14 L 203.96 361.14 L 204.43 361.14 L 204.50 361.14 L 204.83 361.07 L 205.05 360.95 L 205.12 360.95 L 205.25 360.95 L 205.35 360.94 L 206.56 360.76 L 207.71 360.76 L 217.97 360.75 L 218.05 360.75 L 218.10 360.75 L 218.42 360.75 L 219.38 359.86 L 219.42 359.83 L 219.56 359.74 L 220.03 359.73 L 220.25 359.51 L 220.59 359.52 L 220.67 359.52 L 220.74 359.52 L 221.34 357.01 L 221.41 357.01 L 221.54 357.01 L 221.67 357.01 L 221.73 356.85 L 222.06 356.55 L 222.18 356.55 L 222.24 356.55 L 222.31 356.09 L 222.46 355.63 L 222.52 355.63 L 222.67 355.62 L 223.11 351.89 L 223.16 351.89 L 223.20 351.89 L 223.27 351.89 L 223.38 351.89 L 223.42 351.89 L 223.46 351.89 L 223.68 351.89 L 223.73 351.81 L 223.99 351.79 L 224.14 351.74 L 224.24 351.29 L 225.04 343.87 L 225.13 343.87 L 255.30 343.87 L 255.33 343.87 L 266.86 343.87 L 267.49 343.76 L 267.62 343.76 L 267.79 343.76 L 267.84 343.76 L 267.91 343.76 L 272.91 343.70 L 273.57 343.63 L 273.81 343.63 L 273.95 343.60 L 277.06 343.54 L 277.08 343.44 L 277.27 343.44 L 278.21 342.44 L 278.26 342.44 L 278.37 342.44 L 278.70 342.44 L 278.75 342.44 L 278.88 342.44 L 279.02 342.44 L 279.04 342.44 L 288.73 342.42 L 288.80 342.24 L 289.19 342.24 L 289.19 341.03 L 289.26 341.03 L 289.34 341.03 L 289.45 340.92 L 289.61 340.92 L 289.75 340.86 L 289.88 340.86 L 289.93 340.86 L 290.12 340.85 L 290.79 338.79 L 291.06 338.79 L 291.11 338.78 L 291.17 338.78 L 291.20 338.78 L 291.29 338.74 L 291.57 338.49 L 291.61 338.45 L 291.77 336.60 L 291.84 336.59 L 291.86 336.59 L 291.93 336.57 L 291.97 336.57 L 292.00 336.57 L 292.22 335.56 L 292.31 335.54 L 292.43 335.52 L 292.51 332.39 L 292.54 332.39 L 292.76 330.63 L 292.82 330.63 L 292.86 330.62 L 292.91 330.62 L 292.94 330.62 L 292.97 330.62 L 292.99 330.62 L 293.09 327.36 L 293.13 327.36 L 293.23 327.35 L 293.31 327.35 L 293.53 327.28 L 293.79 327.19 L 293.80 327.19 L 293.88 327.17 L 294.13 327.12 L 294.24 327.12 L 294.36 327.12 L 294.49 325.71 L 294.57 325.71 L 294.91 325.71 L 294.94 325.70 L 294.99 325.70 L 295.01 325.70 L 295.24 323.70 L 295.28 323.70 L 295.44 323.68 L 310.35 323.68 L 311.20 323.67 L 311.23 323.67 L 311.39 323.67 L 311.41 323.67 L 311.52 323.67 L 311.60 323.67 L 311.67 323.57 L 311.78 323.57 L 311.80 323.57 L 311.84 323.57 L 312.00 323.39 L 312.33 323.27 L 312.53 323.15 L 312.76 322.59 L 312.77 322.59 L 312.81 322.44 L 312.84 322.43 L 313.28 322.08 L 313.29 322.08 L 313.36 322.03 L 313.55 322.03 L 313.67 321.99 L 313.70 321.16 L 313.70 321.16 L 313.76 321.98 L 313.79 321.94 L 313.81 321.93 L 313.92 320.81 L 313.93 320.81 L 314.16 320.76 L 314.80 320.76 L 314.95 320.76 L 314.99 320.76 L 315.03 320.76 L 315.06 320.76 L 315.15 320.69 L 325.34 319.76 L 325.36 319.76 L 325.45 319.76 L 325.47 319.56 L 325.53 309.65 L 325.64 305.96 L 325.65 305.96 L 325.84 305.90 L 325.89 305.90 L 325.92 305.88 L 326.08 305.88 L 326.52 304.98 L 326.54 304.98 L 326.65 304.93 L 326.69 304.93 L 326.71 304.85 L 327.08 304.32 L 327.09 304.32 L 327.65 304.21 L 327.72 304.17 L 327.92 304.18 L 328.15 302.96 L 328.20 302.84 L 328.24 302.73 L 328.35 302.27 L 328.64 302.16 L 328.69 302.06 L 328.82 302.06 L 328.95 302.06 L 329.38 302.06 L 329.43 302.06 L 329.53 302.06 L 329.54 302.06 L 329.68 302.07 L 330.00 302.07 L 330.33 301.95 L 330.38 301.95 L 330.46 301.93 L 330.55 301.93 L 330.81 301.93 L 331.24 301.93 L 331.38 301.82 L 331.61 298.62 L 332.55 301.64 L 332.75 301.63 L 332.91 301.62 L 333.14 301.62 L 333.21 301.58 L 333.45 301.56 L 333.82 301.38 L 333.86 301.38 L 333.93 301.38 L 333.98 301.38 L 334.01 301.38 L 334.30 301.21 L 341.06 301.21 L 341.12 301.21 L 341.54 301.20 L 341.58 301.20 L 341.68 301.17 L 341.75 300.94 L 341.76 300.94 L 342.00 300.92 L 342.05 300.92 L 343.44 300.73 L 343.60 300.73 L 343.72 300.73 L 343.74 300.73 L 344.17 300.60 L 344.32 300.60 L 344.35 300.60 L 344.58 300.60 L 344.83 299.84 L 344.86 299.84 L 345.07 299.71 L 345.16 299.71 L 345.24 299.71 L 345.41 299.71 L 345.79 299.70 L 345.86 299.68 L 345.93 299.61 L 346.08 299.48 L 346.45 299.36 L 346.78 296.35 L 346.85 296.25 L 347.19 296.10 L 347.25 296.07 L 347.30 295.96 L 347.34 295.75 L 347.45 294.85 L 347.48 294.88 L 347.53 294.87 L 347.73 294.86 L 348.02 294.74 L 348.20 294.69 L 348.41 294.68 L 348.51 294.67 L 348.71 294.66 L 349.05 294.66 L 349.39 294.65 L 349.65 294.64 L 349.71 294.64 L 349.78 294.64 L 349.78 294.63 L 349.98 294.63 L 350.04 294.62 L 350.12 294.51 L 350.67 294.49 L 350.68 294.49 L 350.83 294.48 L 351.48 294.48 L 351.91 294.33 L 352.22 294.20 L 352.23 294.20 L 352.26 294.20 L 361.72 294.20 L 361.75 294.20 L 361.86 294.20 L 361.91 294.20 L 361.94 294.18 L 361.95 294.18 L 362.35 294.18 L 362.44 294.17 L 362.56 294.15 L 362.77 294.13 L 362.90 294.13 L 363.06 294.06 L 363.15 294.06 L 363.19 294.06 L 363.24 294.06 L 363.36 293.78 L 363.37 293.78 L 363.41 293.78 L 363.52 293.78 L 363.58 293.78 L 363.67 293.85 L 363.78 293.85 L 364.01 293.84 L 364.12 293.84 L 364.21 293.84 L 364.79 292.95 L 365.29 292.71 L 365.88 292.08 L 366.04 292.08 L 366.21 292.08 L 366.39 292.08 L 369.87 292.00 L 370.16 292.00 L 403.12 291.88 L 506.90 291.72 L 507.24 291.67 L 507.48 291.66 L 507.72 291.66 L 508.08 291.25 L 508.20 291.25 L 508.30 291.25 L 508.46 289.77 L 508.70 290.05 L 508.90 290.03 L 508.94 290.03 L 509.10 290.02 L 509.14 290.02 L 509.31 290.01 L 509.46 289.94 L 509.93 289.01 L 509.95 289.01 L 510.08 288.92 L 510.53 285.88 L 510.54 285.88 L 510.63 285.88 L 510.73 285.83 L 511.22 284.42 L 511.23 284.42 L 511.33 284.42 L 511.44 284.38 L 511.62 283.86 L 511.64 283.86 L 511.71 283.86 L 511.73 283.86 L 511.77 283.57 L 511.98 281.56 L 512.00 281.56 L 512.07 281.56 L 512.29 281.39 L 512.34 281.39 L 512.51 281.06 L 512.80 281.06 L 512.84 281.06 L 512.88 281.06 L 512.93 281.06 L 513.08 281.05 L 513.23 280.14 L 513.25 280.14 L 513.34 280.14 L 513.43 279.45 L 513.45 279.45 L 513.54 278.72 L 513.58 278.68 L 513.76 277.96 L 513.78 277.96 L 513.87 277.96 L 514.00 277.95 L 514.74 277.95 L 515.11 277.94 L 523.22 277.94 L 523.30 277.94 L 523.38 277.94 L 523.52 277.94 L 523.82 277.75 L 523.85 277.75 L 523.90 277.69 L 524.10 276.68 L 524.12 276.68 L 525.89 276.70 L 526.00 276.51 L 526.89 276.51 L 526.99 276.50 L 527.09 276.43 L 528.17 275.60 L 528.63 275.44 L 528.74 275.39 L 529.13 273.82 L 529.37 273.82 L 529.76 273.69 L 530.48 273.69 L 541.33 273.68 L 541.98 273.59 L 542.01 273.61 L 542.91 273.61 L 542.96 273.61 L 543.28 273.61 L 543.65 273.57 L 543.65 273.57 L 543.69 273.57 L 544.17 272.66 L 545.29 272.63 L 545.36 272.63 L 545.47 272.63 L 545.64 272.59 L 545.69 272.56 L 545.76 272.56 L 546.27 272.52 L 546.69 272.52 L 546.91 272.52 L 546.94 272.52 L 547.41 272.50 L 547.77 272.39 L 547.78 272.39 L 547.82 272.39 L 547.87 272.39 L 559.65 272.18 L 559.67 272.18 L 559.71 272.18 L 559.93 272.18 L 560.11 272.18 L 561.15 271.27 L 561.41 271.22 L 562.15 271.15 L 562.80 271.10 L 563.27 271.10 L 563.41 271.10 L 564.01 269.73 L 564.22 269.69 L 564.30 269.64 L 566.04 268.68 L 566.06 268.68 L 566.16 268.67 L 566.49 268.66 L 566.49 268.66 L 566.51 268.66 L 566.57 268.63 L 566.72 268.59 L 566.91 268.48 L 568.72 266.89 L 568.95 266.81 L 569.11 266.81 L 569.14 266.81 L 569.17 266.81 L 577.19 266.81 L 577.45 266.80 L 577.61 266.80 L 577.66 266.80 L 578.42 266.80 L 578.58 266.80 L 578.72 266.80 L 578.80 266.77 L 579.06 264.69 L 579.10 264.67 L 579.43 264.68 L 579.51 264.67 L 579.80 263.86 L 579.86 263.82 L 580.10 263.29 L 580.27 263.29 L 580.41 263.24 L 580.71 262.76 L 580.74 262.75 L 581.13 261.21 L 581.17 261.21 L 581.23 261.20 L 581.31 261.20 L 581.35 261.20 L 581.80 259.65 L 582.45 259.51 L 582.77 259.51 L 583.83 259.47 L 583.85 259.47 L 584.02 259.47 L 584.09 259.47 L 584.21 259.47 L 584.34 259.47 L 584.48 259.45 L 584.80 259.43 L 585.11 259.43 L 586.05 259.36 L 586.10 259.36 L 587.05 259.32 L 587.46 259.28 L 595.57 259.29 L 595.98 259.22 L 596.18 259.14 L 596.27 259.14 L 596.29 259.14 L 596.50 259.13 L 596.59 259.13 L 596.83 259.13 L 596.98 259.12 L 597.50 258.98 L 597.78 258.70 L 598.24 258.68 L 598.36 258.49 L 598.52 258.41 L 598.72 258.32 L 599.42 258.41 L 599.49 258.41 L 600.51 258.12 L 600.67 258.12 L 600.87 258.12 L 601.37 258.09 L 601.60 258.23 L 601.72 258.23 L 601.82 258.23 L 601.95 258.23 L 602.39 257.56 L 602.85 257.55 L 603.26 257.55 L 603.30 257.55 L 603.35 257.55 L 632.70 257.55 L 632.89 257.50 L 649.78 257.27 L 649.86 257.27 L 650.00 257.21"/>
	</g>
	<g id="poloto_plot2" class="poloto_plot poloto_imgs poloto_line poloto2 poloto_stroke" fill="none" stroke="black">
		<path d=" M 150.00 391.90 L 150.03 391.90 L 150.04 391.90 L 150.05 391.90 L 150.07 391.90 L 150.10 389.82 L 150.21 389.54 L 150.47 389.54 L 150.84 389.52 L 151.03 388.28 L 151.42 388.17 L 151.48 388.14 L 151.53 388.11 L 151.98 387.55 L 152.82 387.12 L 153.08 387.03 L 153.15 387.04 L 153.66 387.00 L 154.24 387.00 L 154.25 387.00 L 154.25 387.00 L 162.13 387.00 L 162.18 387.00 L 162.28 386.98 L 162.33 386.98 L 162.63 386.86 L 162.76 386.82 L 163.10 386.62 L 163.14 386.53 L 163.24 386.35 L 163.34 386.32 L 163.37 386.32 L 163.45 386.29 L 163.54 386.29 L 163.62 386.29 L 163.84 386.08 L 164.04 385.89 L 164.07 385.89 L 164.16 385.78 L 164.79 385.53 L 164.80 385.53 L 164.88 385.45 L 165.24 385.18 L 165.53 384.84 L 165.85 384.70 L 165.92 384.70 L 165.93 384.70 L 165.99 384.51 L 166.11 384.51 L 166.27 384.49 L 166.58 384.35 L 166.60 384.11 L 166.65 384.11 L 166.73 383.99 L 166.90 383.99 L 166.92 383.99 L 167.11 383.63 L 167.18 383.60 L 167.25 383.57 L 167.32 383.40 L 168.28 383.30 L 168.51 383.27 L 169.04 383.02 L 169.16 383.02 L 169.24 383.00 L 169.29 382.81 L 169.65 381.80 L 169.82 381.79 L 170.01 381.48 L 170.10 381.45 L 170.32 381.31 L 170.42 381.27 L 170.55 381.05 L 170.67 380.87 L 171.09 380.87 L 171.11 380.85 L 171.13 380.70 L 171.27 379.72 L 178.58 379.62 L 179.33 379.33 L 179.36 379.29 L 180.25 379.05 L 180.33 379.04 L 180.41 378.86 L 180.63 378.74 L 180.73 378.51 L 180.77 378.33 L 180.88 377.97 L 181.14 377.96 L 181.15 377.96 L 181.25 377.70 L 181.35 377.70 L 181.46 377.43 L 181.60 377.22 L 181.66 377.11 L 181.68 377.10 L 181.81 376.86 L 181.83 376.85 L 181.96 376.63 L 181.99 376.62 L 182.20 376.54 L 182.23 376.54 L 182.30 376.46 L 182.39 376.45 L 182.51 376.45 L 182.57 376.43 L 182.98 376.21 L 182.99 376.22 L 183.06 375.77 L 183.25 375.76 L 183.41 375.62 L 183.46 375.62 L 183.54 375.62 L 183.58 375.58 L 183.67 374.98 L 184.13 374.47 L 184.18 374.19 L 184.33 374.17 L 184.38 374.10 L 184.42 374.09 L 184.49 373.96 L 184.56 373.48 L 184.73 373.40 L 184.84 373.39 L 184.93 373.15 L 184.98 373.14 L 185.40 372.97 L 185.62 372.84 L 185.69 372.73 L 185.88 372.72 L 185.90 372.72 L 185.91 372.69 L 186.04 371.83 L 186.13 371.82 L 186.47 371.70 L 186.53 371.35 L 186.59 371.35 L 186.68 371.20 L 186.69 371.12 L 186.73 371.06 L 186.76 371.03 L 186.81 371.03 L 186.85 370.96 L 186.99 369.98 L 187.09 369.88 L 187.18 369.59 L 187.32 369.57 L 187.46 369.48 L 187.61 369.17 L 187.71 368.33 L 187.93 368.26 L 187.93 367.90 L 188.05 367.81 L 198.25 367.82 L 198.45 367.82 L 198.93 367.42 L 199.03 367.42 L 199.11 367.42 L 199.13 367.31 L 199.30 367.14 L 199.42 367.11 L 199.49 367.01 L 199.56 366.93 L 199.60 366.90 L 199.79 366.84 L 200.15 366.92 L 200.25 366.66 L 200.32 366.59 L 200.40 366.58 L 200.88 366.53 L 200.94 366.48 L 200.98 366.48 L 201.01 366.43 L 201.11 366.38 L 201.19 366.28 L 201.53 366.03 L 202.02 365.93 L 202.20 365.88 L 202.75 365.72 L 203.01 365.33 L 203.10 365.26 L 203.21 364.95 L 203.37 364.55 L 203.62 364.45 L 203.96 364.44 L 204.43 364.42 L 204.50 364.28 L 204.83 364.18 L 205.05 364.05 L 205.12 363.95 L 205.25 363.91 L 205.35 363.65 L 206.56 363.52 L 207.71 363.52 L 217.97 363.49 L 218.05 363.35 L 218.10 363.25 L 218.42 363.10 L 219.38 362.84 L 219.42 362.80 L 219.56 362.61 L 220.03 362.54 L 220.25 362.03 L 220.59 362.02 L 220.67 362.00 L 220.74 361.49 L 221.34 361.02 L 221.41 361.02 L 221.54 360.99 L 221.67 360.95 L 221.73 360.77 L 222.06 359.99 L 222.18 359.79 L 222.24 359.77 L 222.31 359.69 L 222.46 359.38 L 222.52 358.60 L 222.67 358.28 L 223.11 358.09 L 223.16 357.70 L 223.20 357.70 L 223.27 357.63 L 223.38 357.52 L 223.42 357.49 L 223.46 357.45 L 223.68 356.54 L 223.73 356.00 L 223.99 355.89 L 224.14 354.98 L 224.24 354.81 L 225.04 353.37 L 225.13 353.34 L 255.30 352.93 L 255.33 352.93 L 266.86 352.81 L 267.49 352.65 L 267.62 352.65 L 267.79 352.58 L 267.84 352.46 L 267.91 352.44 L 272.91 352.42 L 273.57 350.78 L 273.81 350.63 L 273.95 350.06 L 277.06 349.99 L 277.08 349.94 L 277.27 349.93 L 278.21 349.83 L 278.26 349.64 L 278.37 349.57 L 278.70 349.48 L 278.75 349.46 L 278.88 349.14 L 279.02 349.04 L 279.04 348.80 L 288.73 348.49 L 288.80 347.74 L 289.19 347.54 L 289.19 347.26 L 289.26 347.03 L 289.34 346.69 L 289.45 345.78 L 289.61 345.28 L 289.75 344.64 L 289.88 344.64 L 289.93 344.14 L 290.12 344.11 L 290.79 343.64 L 291.06 343.42 L 291.11 343.28 L 291.17 343.28 L 291.20 343.12 L 291.29 342.55 L 291.57 342.50 L 291.61 342.49 L 291.77 342.13 L 291.84 342.13 L 291.86 341.92 L 291.93 341.79 L 291.97 341.78 L 292.00 341.49 L 292.22 341.31 L 292.31 341.02 L 292.43 341.01 L 292.51 340.86 L 292.54 340.63 L 292.76 340.51 L 292.82 340.38 L 292.86 340.38 L 292.91 340.38 L 292.94 340.15 L 292.97 340.16 L 292.99 340.15 L 293.09 340.08 L 293.13 339.83 L 293.23 339.82 L 293.31 339.76 L 293.53 339.74 L 293.79 339.72 L 293.80 339.72 L 293.88 339.70 L 294.13 339.70 L 294.24 339.70 L 294.36 339.70 L 294.49 339.66 L 294.57 339.36 L 294.91 339.35 L 294.94 339.18 L 294.99 339.17 L 295.01 338.97 L 295.24 338.90 L 295.28 338.85 L 295.44 338.85 L 310.35 338.80 L 311.20 338.71 L 311.23 338.71 L 311.39 338.71 L 311.41 338.71 L 311.52 338.36 L 311.60 338.35 L 311.67 338.25 L 311.78 338.19 L 311.80 338.16 L 311.84 338.14 L 312.00 338.11 L 312.33 338.04 L 312.53 337.56 L 312.76 337.54 L 312.77 337.51 L 312.81 337.11 L 312.84 337.10 L 313.28 337.10 L 313.29 337.06 L 313.36 336.70 L 313.55 336.65 L 313.67 336.63 L 313.70 336.63 L 313.70 336.59 L 313.76 336.56 L 313.79 336.18 L 313.81 336.17 L 313.92 336.17 L 313.93 336.14 L 314.16 336.10 L 314.80 336.09 L 314.95 336.06 L 314.99 336.05 L 315.03 335.93 L 315.06 335.93 L 315.15 335.50 L 325.34 335.37 L 325.36 335.25 L 325.45 335.16 L 325.47 335.15 L 325.53 334.79 L 325.64 334.70 L 325.65 334.68 L 325.84 334.67 L 325.89 334.67 L 325.92 334.31 L 326.08 334.27 L 326.52 334.26 L 326.54 334.24 L 326.65 334.04 L 326.69 334.05 L 326.71 333.71 L 327.08 333.71 L 327.09 333.69 L 327.65 333.61 L 327.72 333.21 L 327.92 333.21 L 328.15 333.21 L 328.20 332.92 L 328.24 332.69 L 328.35 332.68 L 328.64 332.63 L 328.69 332.61 L 328.82 332.52 L 328.95 332.52 L 329.38 332.52 L 329.43 332.52 L 329.53 332.50 L 329.54 332.50 L 329.68 332.50 L 330.00 332.47 L 330.33 332.43 L 330.38 332.43 L 330.46 332.39 L 330.55 332.28 L 330.81 332.28 L 331.24 332.15 L 331.38 331.93 L 331.61 331.91 L 332.55 331.66 L 332.75 331.66 L 332.91 331.66 L 333.14 331.65 L 333.21 331.63 L 333.45 331.51 L 333.82 331.49 L 333.86 331.38 L 333.93 331.33 L 333.98 331.34 L 334.01 331.30 L 334.30 331.29 L 341.06 331.28 L 341.12 331.28 L 341.54 331.28 L 341.58 331.27 L 341.68 330.94 L 341.75 330.92 L 341.76 330.92 L 342.00 330.91 L 342.05 330.90 L 343.44 330.41 L 343.60 330.35 L 343.72 330.34 L 343.74 330.34 L 344.17 330.33 L 344.32 330.40 L 344.35 330.39 L 344.58 330.36 L 344.83 329.90 L 344.86 329.89 L 345.07 329.87 L 345.16 329.87 L 345.24 329.87 L 345.41 329.78 L 345.79 329.35 L 345.86 329.35 L 345.93 329.29 L 346.08 328.91 L 346.45 328.48 L 346.78 328.51 L 346.85 328.29 L 347.19 328.29 L 347.25 328.26 L 347.30 328.24 L 347.34 328.01 L 347.45 328.01 L 347.48 328.01 L 347.53 328.01 L 347.73 328.01 L 348.02 327.83 L 348.20 327.81 L 348.41 327.81 L 348.51 327.81 L 348.71 327.81 L 349.05 327.81 L 349.39 327.81 L 349.65 327.81 L 349.71 327.80 L 349.78 327.80 L 349.78 327.72 L 349.98 327.66 L 350.04 327.66 L 350.12 327.65 L 350.67 327.64 L 350.68 327.43 L 350.83 327.43 L 351.48 327.43 L 351.91 327.42 L 352.22 327.38 L 352.23 327.29 L 352.26 327.29 L 361.72 327.14 L 361.75 327.14 L 361.86 327.13 L 361.91 326.99 L 361.94 326.99 L 361.95 326.98 L 362.35 326.94 L 362.44 326.50 L 362.56 326.40 L 362.77 325.52 L 362.90 325.51 L 363.06 325.14 L 363.15 325.18 L 363.19 325.18 L 363.24 324.70 L 363.36 324.61 L 363.37 324.28 L 363.41 324.23 L 363.52 324.20 L 363.58 324.04 L 363.67 326.01 L 363.78 325.98 L 364.01 325.18 L 364.12 325.01 L 364.21 324.83 L 364.79 324.52 L 365.29 324.19 L 365.88 323.73 L 366.04 323.68 L 366.21 323.68 L 366.39 323.63 L 369.87 323.40 L 370.16 323.38 L 403.12 322.76 L 506.90 322.74 L 507.24 322.46 L 507.48 322.42 L 507.72 322.42 L 508.08 322.17 L 508.20 321.88 L 508.30 321.34 L 508.46 321.19 L 508.70 321.24 L 508.90 320.93 L 508.94 320.92 L 509.10 320.82 L 509.14 320.83 L 509.31 320.30 L 509.46 319.49 L 509.93 319.41 L 509.95 319.33 L 510.08 318.29 L 510.53 318.25 L 510.54 318.15 L 510.63 318.08 L 510.73 317.14 L 511.22 317.09 L 511.23 316.96 L 511.33 316.89 L 511.44 316.27 L 511.62 316.25 L 511.64 316.15 L 511.71 315.12 L 511.73 315.09 L 511.77 315.06 L 511.98 315.06 L 512.00 314.96 L 512.07 314.88 L 512.29 314.78 L 512.34 314.78 L 512.51 314.73 L 512.80 314.76 L 512.84 314.72 L 512.88 314.69 L 512.93 314.66 L 513.08 313.59 L 513.23 313.57 L 513.25 313.48 L 513.34 312.38 L 513.43 311.98 L 513.45 311.84 L 513.54 311.31 L 513.58 310.38 L 513.76 310.36 L 513.78 310.31 L 513.87 310.12 L 514.00 310.12 L 514.74 310.09 L 515.11 310.06 L 523.22 310.11 L 523.30 309.90 L 523.38 309.74 L 523.52 309.00 L 523.82 308.99 L 523.85 308.91 L 523.90 307.98 L 524.10 307.97 L 524.12 307.88 L 525.89 307.79 L 526.00 307.45 L 526.89 307.28 L 526.99 307.25 L 527.09 306.21 L 528.17 305.91 L 528.63 305.67 L 528.74 304.88 L 529.13 304.88 L 529.37 304.45 L 529.76 303.78 L 530.48 303.37 L 541.33 303.37 L 541.98 303.36 L 542.01 303.36 L 542.91 303.21 L 542.96 303.12 L 543.28 303.06 L 543.65 302.19 L 543.65 302.19 L 543.69 302.15 L 544.17 301.97 L 545.29 301.39 L 545.36 301.33 L 545.47 301.32 L 545.64 301.08 L 545.69 301.04 L 545.76 300.99 L 546.27 300.99 L 546.69 300.99 L 546.91 300.99 L 546.94 300.95 L 547.41 300.07 L 547.77 299.99 L 547.78 299.92 L 547.82 299.84 L 547.87 299.62 L 559.65 299.45 L 559.67 299.43 L 559.71 299.41 L 559.93 299.30 L 560.11 299.19 L 561.15 298.70 L 561.41 298.59 L 562.15 298.21 L 562.80 298.15 L 563.27 298.00 L 563.41 296.70 L 564.01 296.48 L 564.22 296.41 L 564.30 295.47 L 566.04 294.57 L 566.06 294.57 L 566.16 294.15 L 566.49 294.11 L 566.49 294.11 L 566.51 294.00 L 566.57 293.89 L 566.72 293.79 L 566.91 293.15 L 568.72 292.81 L 568.95 292.67 L 569.11 292.31 L 569.14 292.28 L 569.17 292.05 L 577.19 291.23 L 577.45 290.64 L 577.61 290.61 L 577.66 290.22 L 578.42 290.05 L 578.58 289.63 L 578.72 289.63 L 578.80 288.75 L 579.06 288.55 L 579.10 288.52 L 579.43 288.47 L 579.51 287.75 L 579.80 287.66 L 579.86 287.10 L 580.10 287.04 L 580.27 286.71 L 580.41 286.07 L 580.71 285.95 L 580.74 285.31 L 581.13 286.76 L 581.17 286.76 L 581.23 285.93 L 581.31 285.93 L 581.35 285.87 L 581.80 285.79 L 582.45 285.45 L 582.77 285.62 L 583.83 285.60 L 583.85 285.59 L 584.02 285.58 L 584.09 285.56 L 584.21 285.45 L 584.34 285.34 L 584.48 285.19 L 584.80 284.98 L 585.11 284.97 L 586.05 284.87 L 586.10 284.86 L 587.05 284.75 L 587.46 284.69 L 595.57 284.65 L 595.98 284.61 L 596.18 284.61 L 596.27 284.61 L 596.29 284.61 L 596.50 284.59 L 596.59 284.56 L 596.83 284.41 L 596.98 284.38 L 597.50 284.37 L 597.78 284.30 L 598.24 284.26 L 598.36 284.23 L 598.52 284.16 L 598.72 284.07 L 599.42 284.03 L 599.49 284.02 L 600.51 283.85 L 600.67 283.60 L 600.87 283.50 L 601.37 283.35 L 601.60 283.26 L 601.72 283.63 L 601.82 283.62 L 601.95 283.48 L 602.39 283.14 L 602.85 283.05 L 603.26 282.98 L 603.30 282.94 L 603.35 282.69 L 632.70 282.64 L 632.89 282.57 L 649.78 282.49 L 649.86 282.86 L 650.00 281.39"/>
	</g>
	<g class="poloto_legend poloto_imgs poloto_line poloto0 poloto_stroke"><line x1="680" x2="730" y1="81.25" y2="81.25"/></g>
	<g class="poloto_legend poloto_imgs poloto_line poloto1 poloto_stroke"><line x1="680" x2="730" y1="131.25" y2="131.25"/></g>
	<g class="poloto_legend poloto_imgs poloto_line poloto2 poloto_stroke"><line x1="680" x2="730" y1="181.25" y2="181.25"/></g>
	<text class="poloto_legend poloto_text poloto_line poloto0" x="675" y="100">total</text>
	<text class="poloto_legend poloto_text poloto_line poloto1" x="675" y="150">code</text>
	<text class="poloto_legend poloto_text poloto_line poloto2" x="675" y="200">docs</text>
	<text class="poloto_text poloto_name poloto_title" x="400.00" y="37.50">Workspace lines over time</text>
	<text class="poloto_text poloto_name poloto_x" x="400.00" y="640">date (JST)</text>
	<text class="poloto_text poloto_name poloto_y" x="37.50" y="250.00" transform="rotate(-90,37.50,250.00)">lines</text>
	<text class="poloto_text poloto_ticks poloto_y">
		<tspan x="135.00" y="400.00">0</tspan>
		<tspan x="135.00" y="323.03">50K</tspan>
		<tspan x="135.00" y="246.06">100K</tspan>
		<tspan x="135.00" y="169.09">150K</tspan>
	</text>
	<g class="poloto_imgs poloto_ticks poloto_y" stroke="black">
		<line x1="150.00" x2="144.00" y1="400.00" y2="400.00"/>
		<line x1="150.00" x2="144.00" y1="323.03" y2="323.03"/>
		<line x1="150.00" x2="144.00" y1="246.06" y2="246.06"/>
		<line x1="150.00" x2="144.00" y1="169.09" y2="169.09"/>
	</g>
	<g class="poloto_text poloto_ticks poloto_x">
		<text x="217.84" y="430.00" text-anchor="end" transform="rotate(-90 217.84 430.00)">2026-04-24 12:06</text>
		<text x="322.28" y="430.00" text-anchor="end" transform="rotate(-90 322.28 430.00)">2026-04-30 07:00</text>
		<text x="426.71" y="430.00" text-anchor="end" transform="rotate(-90 426.71 430.00)">2026-05-06 01:53</text>
		<text x="531.14" y="430.00" text-anchor="end" transform="rotate(-90 531.14 430.00)">2026-05-11 20:46</text>
		<text x="635.58" y="430.00" text-anchor="end" transform="rotate(-90 635.58 430.00)">2026-05-17 15:40</text>
	</g>
	<g class="poloto_imgs poloto_ticks poloto_x" stroke="black">
		<line x1="217.84" x2="217.84" y1="400.00" y2="405.00"/>
		<line x1="322.28" x2="322.28" y1="400.00" y2="405.00"/>
		<line x1="426.71" x2="426.71" y1="400.00" y2="405.00"/>
		<line x1="531.14" x2="531.14" y1="400.00" y2="405.00"/>
		<line x1="635.58" x2="635.58" y1="400.00" y2="405.00"/>
	</g>
	<path class="poloto_imgs poloto_ticks poloto_x" stroke="black" style="stroke-dasharray:10.44334069936964;stroke-dashoffset:-67.84474511980079;" d=" M 150.00 400.00 L 650.00 400.00"/>
	<path class="poloto_imgs poloto_ticks poloto_y" stroke="black" style="stroke-dasharray:7.696925847816383;stroke-dashoffset:-0;" d=" M 150.00 400.00 L 150.00 100.00"/>
</svg>

