<svg class="poloto" width="800" height="680" viewBox="0 0 800 680" xmlns="http://www.w3.org/2000/svg">
	<style>
.poloto{
  stroke-linecap:round;
  stroke-linejoin:round;
  font-family:Roboto,sans-serif;
  font-size:16px;
}
.poloto_background{fill:AliceBlue;}
.poloto_scatter{stroke-width:7}
.poloto_line{stroke-width:2}
.poloto_text{fill: black;}
.poloto_name{font-size:24px;dominant-baseline:auto;text-anchor:middle;}
.poloto_where{dominant-baseline:middle;text-anchor:start}
.poloto_text.poloto_legend{font-size:20px;dominant-baseline:middle;text-anchor:start;}
.poloto_text.poloto_ticks.poloto_y{dominant-baseline:middle;text-anchor:end}
.poloto_text.poloto_ticks.poloto_x{dominant-baseline:auto;text-anchor:middle}
.poloto_imgs.poloto_ticks{stroke: black;stroke-width:3;fill:none;stroke-dasharray:none}
.poloto_grid{stroke:gray;stroke-width:0.5}

.poloto0.poloto_stroke{stroke:blue;}
.poloto1.poloto_stroke{stroke:red;}
.poloto2.poloto_stroke{stroke:green;}
.poloto3.poloto_stroke{stroke:gold;}
.poloto4.poloto_stroke{stroke:aqua;}
.poloto5.poloto_stroke{stroke:lime;}
.poloto6.poloto_stroke{stroke:orange;}
.poloto7.poloto_stroke{stroke:chocolate;}
.poloto0.poloto_fill{fill:blue;}
.poloto1.poloto_fill{fill:red;}
.poloto2.poloto_fill{fill:green;}
.poloto3.poloto_fill{fill:gold;}
.poloto4.poloto_fill{fill:aqua;}
.poloto5.poloto_fill{fill:lime;}
.poloto6.poloto_fill{fill:orange;}
.poloto7.poloto_fill{fill:chocolate;}
	</style>
	<circle r="1e5" class="poloto_background" fill="white"/>
	<g id="poloto_plot0" class="poloto_plot poloto_imgs poloto_line poloto0 poloto_stroke" fill="none" stroke="black">
		<path d=" M 150.00 360.40 L 150.04 360.36 L 150.06 360.34 L 150.07 360.34 L 150.10 360.34 L 150.14 356.04 L 150.29 355.53 L 150.64 355.50 L 151.16 355.15 L 151.43 352.96 L 151.96 352.83 L 152.05 352.71 L 152.12 352.67 L 152.74 351.60 L 153.90 350.73 L 154.27 347.36 L 154.36 347.36 L 155.06 347.23 L 155.87 347.22 L 155.87 347.22 L 155.88 347.22 L 166.77 347.22 L 166.84 347.21 L 166.99 347.18 L 167.04 347.14 L 167.46 346.95 L 167.65 346.89 L 168.11 346.58 L 168.17 346.45 L 168.30 346.14 L 168.44 346.10 L 168.48 346.09 L 168.60 346.01 L 168.72 346.01 L 168.83 346.02 L 169.14 345.52 L 169.41 345.21 L 169.46 345.21 L 169.58 345.02 L 170.45 345.80 L 170.47 345.79 L 170.58 345.67 L 171.07 345.09 L 171.47 344.40 L 171.91 344.10 L 172.01 344.04 L 172.02 344.05 L 172.10 343.78 L 172.27 343.78 L 172.49 343.68 L 172.92 343.42 L 172.95 343.02 L 173.02 343.02 L 173.13 342.81 L 173.37 342.81 L 173.40 342.81 L 173.65 342.23 L 173.75 342.20 L 173.84 342.16 L 173.94 341.92 L 175.27 341.61 L 175.59 341.55 L 176.33 341.14 L 176.49 341.14 L 176.60 341.12 L 176.67 340.83 L 177.17 339.12 L 177.40 339.09 L 177.66 338.52 L 177.79 338.47 L 178.10 337.99 L 178.23 337.82 L 178.41 337.52 L 178.58 337.25 L 179.17 333.32 L 179.18 333.22 L 179.21 332.99 L 179.41 331.10 L 189.51 330.96 L 190.56 328.81 L 190.59 328.75 L 191.83 328.42 L 191.94 328.41 L 192.05 327.98 L 192.35 327.77 L 192.49 327.40 L 192.54 327.08 L 192.69 326.51 L 193.06 326.50 L 193.07 326.12 L 193.21 325.70 L 193.35 325.70 L 193.50 325.22 L 193.70 324.88 L 193.77 324.71 L 193.80 324.71 L 193.98 324.34 L 194.00 324.33 L 194.19 323.96 L 194.23 323.95 L 194.52 322.17 L 194.56 322.17 L 194.66 321.88 L 194.79 321.86 L 194.95 321.86 L 195.03 321.82 L 195.59 321.49 L 195.61 321.50 L 195.71 320.71 L 195.97 320.69 L 196.19 319.51 L 196.26 319.41 L 196.37 319.40 L 196.42 319.35 L 196.55 318.44 L 197.19 310.72 L 197.25 310.35 L 197.47 310.31 L 197.54 310.22 L 197.59 310.20 L 197.69 309.99 L 197.79 309.12 L 198.01 308.94 L 198.17 308.92 L 198.30 308.53 L 198.37 308.52 L 198.94 308.24 L 199.25 308.02 L 199.34 307.67 L 199.61 307.66 L 199.63 307.66 L 199.66 307.62 L 199.82 305.77 L 199.96 305.66 L 200.43 303.79 L 200.50 303.25 L 200.59 303.23 L 200.72 303.03 L 200.73 302.89 L 200.79 302.80 L 200.83 302.75 L 200.90 302.74 L 200.96 302.64 L 201.14 301.12 L 201.28 300.89 L 201.41 300.44 L 201.59 300.41 L 201.80 300.27 L 202.00 299.19 L 202.14 297.69 L 202.44 297.60 L 202.44 297.04 L 202.62 296.86 L 216.72 296.86 L 216.99 296.84 L 217.65 296.05 L 217.79 296.03 L 217.90 296.03 L 217.92 295.83 L 218.17 295.59 L 218.33 295.55 L 218.43 295.40 L 218.53 295.29 L 218.58 295.24 L 218.84 295.17 L 219.35 295.07 L 219.47 294.66 L 219.57 294.56 L 219.69 294.55 L 220.35 294.34 L 220.44 294.22 L 220.48 294.22 L 220.52 294.07 L 220.67 294.00 L 220.78 293.85 L 221.25 292.84 L 221.93 292.69 L 222.18 292.62 L 222.93 292.37 L 223.29 287.52 L 223.42 287.42 L 223.57 286.94 L 223.79 286.30 L 224.13 286.13 L 224.61 286.11 L 225.25 286.09 L 225.35 285.88 L 225.81 285.65 L 226.12 285.30 L 226.21 285.16 L 226.39 285.11 L 226.54 284.67 L 228.20 284.20 L 229.79 284.20 L 243.99 284.15 L 244.09 283.94 L 244.16 283.81 L 244.60 283.60 L 245.93 281.93 L 245.99 281.82 L 246.17 281.39 L 246.82 281.28 L 247.13 280.15 L 247.60 280.14 L 247.71 280.12 L 247.81 279.35 L 248.64 274.93 L 248.74 274.93 L 248.91 274.89 L 249.09 274.83 L 249.18 274.35 L 249.64 272.69 L 249.80 272.38 L 249.88 272.36 L 249.98 271.59 L 250.19 270.51 L 250.27 269.36 L 250.48 268.85 L 251.09 263.12 L 251.15 262.54 L 251.21 262.54 L 251.30 262.43 L 251.46 262.29 L 251.52 262.23 L 251.57 262.17 L 251.87 260.80 L 251.94 259.83 L 252.30 259.63 L 252.51 258.19 L 252.65 257.28 L 253.75 243.91 L 253.88 243.88 L 295.59 243.24 L 295.63 243.24 L 311.58 243.06 L 312.44 242.69 L 312.62 242.69 L 312.86 242.59 L 312.93 242.42 L 313.03 242.37 L 319.94 242.28 L 320.86 239.74 L 321.19 239.51 L 321.37 238.57 L 325.68 238.38 L 325.71 238.13 L 325.98 238.10 L 327.26 236.50 L 327.34 236.21 L 327.50 236.11 L 327.95 236.00 L 328.01 235.96 L 328.19 235.47 L 328.39 235.34 L 328.42 234.98 L 341.81 234.50 L 341.92 233.12 L 342.45 232.82 L 342.46 230.53 L 342.55 230.19 L 342.66 229.63 L 342.81 228.04 L 343.04 227.21 L 343.23 226.23 L 343.40 226.22 L 343.47 225.46 L 343.74 225.40 L 344.67 221.71 L 345.04 221.31 L 345.11 221.08 L 345.18 221.07 L 345.23 220.82 L 345.36 219.91 L 345.74 219.48 L 345.79 219.42 L 346.02 216.17 L 346.11 216.16 L 346.15 215.81 L 346.23 215.54 L 346.29 215.54 L 346.34 215.05 L 346.64 213.29 L 346.76 212.79 L 346.93 212.73 L 347.04 208.03 L 347.09 207.65 L 347.38 204.97 L 347.46 204.76 L 347.52 204.75 L 347.59 204.75 L 347.64 204.37 L 347.68 204.38 L 347.70 204.37 L 347.85 199.63 L 347.90 199.22 L 348.04 199.19 L 348.15 199.11 L 348.45 198.98 L 348.82 198.79 L 348.83 198.79 L 348.93 198.74 L 349.28 198.65 L 349.44 198.65 L 349.60 198.65 L 349.77 196.58 L 349.89 196.08 L 350.36 196.08 L 350.41 195.75 L 350.46 195.75 L 350.50 195.39 L 350.81 192.40 L 350.87 192.33 L 351.09 192.31 L 371.71 192.22 L 372.88 192.07 L 372.92 192.07 L 373.15 192.07 L 373.17 192.07 L 373.32 191.47 L 373.44 191.45 L 373.53 191.16 L 373.68 191.09 L 373.72 191.04 L 373.77 191.02 L 373.99 190.69 L 374.44 190.39 L 374.72 189.43 L 375.04 188.51 L 375.05 188.46 L 375.10 187.61 L 375.14 187.58 L 375.76 187.07 L 375.77 187.01 L 375.87 186.33 L 376.13 186.26 L 376.30 186.19 L 376.33 184.98 L 376.35 184.92 L 376.42 186.07 L 376.46 185.37 L 376.49 185.34 L 376.64 183.72 L 376.65 183.67 L 376.98 183.54 L 377.86 183.51 L 378.06 183.46 L 378.13 183.44 L 378.17 183.23 L 378.22 183.23 L 378.35 182.43 L 392.44 180.88 L 392.46 180.67 L 392.58 180.52 L 392.62 180.22 L 392.70 166.69 L 392.85 161.15 L 392.87 161.12 L 393.13 161.01 L 393.19 161.01 L 393.23 160.38 L 393.46 160.31 L 394.07 159.00 L 394.09 158.97 L 394.24 158.57 L 394.30 158.58 L 394.33 157.93 L 394.84 157.16 L 394.86 157.13 L 395.63 156.83 L 395.72 156.14 L 395.99 156.15 L 396.31 154.40 L 396.39 153.72 L 396.45 153.16 L 396.59 152.49 L 396.99 152.25 L 397.06 152.08 L 397.24 151.93 L 397.43 151.93 L 398.02 151.93 L 398.09 151.93 L 398.23 151.90 L 398.24 151.90 L 398.43 151.92 L 398.88 151.88 L 399.34 151.63 L 399.41 151.62 L 399.51 151.52 L 399.64 151.34 L 399.99 151.34 L 400.59 151.09 L 400.78 150.55 L 401.11 145.89 L 402.40 149.83 L 402.69 149.81 L 402.89 149.80 L 403.22 149.79 L 403.32 149.71 L 403.64 149.49 L 404.15 149.17 L 404.22 148.96 L 404.32 148.87 L 404.38 148.89 L 404.43 148.82 L 404.83 148.53 L 414.17 148.53 L 414.25 148.53 L 414.83 148.51 L 414.89 148.49 L 415.02 147.90 L 415.13 147.56 L 415.14 147.56 L 415.46 147.51 L 415.54 147.48 L 417.46 146.60 L 417.68 146.53 L 417.85 146.51 L 417.88 146.51 L 418.47 146.30 L 418.68 146.40 L 418.71 146.40 L 419.03 146.34 L 419.38 144.49 L 419.42 144.48 L 419.71 144.27 L 419.83 144.27 L 419.94 144.27 L 420.19 144.07 L 420.70 143.32 L 420.80 143.29 L 420.90 143.09 L 421.11 142.21 L 421.62 141.29 L 422.08 137.01 L 422.17 136.48 L 422.64 136.28 L 422.72 136.16 L 422.80 135.96 L 422.85 135.27 L 423.01 134.03 L 423.05 134.08 L 423.12 134.06 L 423.39 134.05 L 423.79 133.60 L 424.04 133.51 L 424.33 133.49 L 424.47 133.48 L 424.75 133.46 L 425.22 133.46 L 425.69 133.45 L 426.05 133.45 L 426.13 133.43 L 426.22 133.42 L 426.23 133.27 L 426.50 133.18 L 426.58 133.17 L 426.69 132.98 L 427.46 132.95 L 427.47 132.58 L 427.68 132.56 L 428.58 132.57 L 429.17 132.35 L 429.60 132.07 L 429.62 131.92 L 429.65 131.92 L 442.73 131.67 L 442.78 131.66 L 442.93 131.64 L 443.00 131.43 L 443.04 131.40 L 443.05 131.39 L 443.61 131.33 L 443.74 130.56 L 443.90 130.38 L 444.18 128.85 L 444.36 128.84 L 444.58 128.19 L 444.71 128.27 L 444.77 128.26 L 444.84 127.52 L 445.00 127.01 L 445.02 126.47 L 445.08 126.40 L 445.22 126.35 L 445.31 126.10 L 445.43 129.02 L 445.59 128.97 L 445.91 127.80 L 446.05 127.51 L 446.17 127.27 L 446.98 125.59 L 447.67 124.78 L 448.49 123.23 L 448.70 123.16 L 448.94 123.16 L 449.19 123.09 L 454.00 122.65 L 454.40 122.61 L 499.97 121.43 L 643.47 121.16 L 643.94 120.68 L 644.27 120.62 L 644.60 120.62 L 645.10 119.71 L 645.27 119.27 L 645.40 118.45 L 645.63 116.10 L 645.96 116.58 L 646.23 116.07 L 646.29 116.06 L 646.51 115.91 L 646.56 115.91 L 646.80 115.05 L 647.01 113.67 L 647.66 112.20 L 647.68 112.08 L 647.87 110.33 L 648.48 106.00 L 648.50 105.85 L 648.62 105.76 L 648.77 104.21 L 649.44 102.13 L 649.45 101.94 L 649.60 101.84 L 649.75 100.81 L 650.00 100.00"/>
	</g>
	<g id="poloto_plot1" class="poloto_plot poloto_imgs poloto_line poloto1 poloto_stroke" fill="none" stroke="black">
		<path d=" M 150.00 376.47 L 150.04 376.45 L 150.06 376.43 L 150.07 376.43 L 150.10 376.43 L 150.14 375.69 L 150.29 375.66 L 150.64 375.65 L 151.16 375.37 L 151.43 375.24 L 151.96 375.27 L 152.05 375.22 L 152.12 375.22 L 152.74 375.16 L 153.90 375.02 L 154.27 372.11 L 154.36 372.11 L 155.06 372.04 L 155.87 372.03 L 155.87 372.03 L 155.88 372.03 L 166.77 372.03 L 166.84 372.03 L 166.99 372.03 L 167.04 371.99 L 167.46 371.97 L 167.65 371.97 L 168.11 371.97 L 168.17 371.97 L 168.30 371.95 L 168.44 371.95 L 168.48 371.95 L 168.60 371.92 L 168.72 371.92 L 168.83 371.92 L 169.14 371.76 L 169.41 371.76 L 169.46 371.76 L 169.58 371.76 L 170.45 372.85 L 170.47 372.85 L 170.58 372.83 L 171.07 372.67 L 171.47 372.49 L 171.91 372.41 L 172.01 372.35 L 172.02 372.35 L 172.10 372.35 L 172.27 372.35 L 172.49 372.28 L 172.92 372.22 L 172.95 372.22 L 173.02 372.22 L 173.13 372.19 L 173.37 372.19 L 173.40 372.19 L 173.65 372.18 L 173.75 372.18 L 173.84 372.18 L 173.94 372.18 L 175.27 372.05 L 175.59 372.04 L 176.33 371.98 L 176.49 371.98 L 176.60 371.98 L 176.67 371.98 L 177.17 371.89 L 177.40 371.89 L 177.66 371.79 L 177.79 371.77 L 178.10 371.54 L 178.23 371.45 L 178.41 371.45 L 178.58 371.45 L 179.17 368.05 L 179.18 367.99 L 179.21 367.99 L 179.41 367.66 L 189.51 367.66 L 190.56 366.19 L 190.59 366.19 L 191.83 366.19 L 191.94 366.19 L 192.05 366.04 L 192.35 366.01 L 192.49 366.01 L 192.54 366.01 L 192.69 366.01 L 193.06 366.01 L 193.07 365.70 L 193.21 365.68 L 193.35 365.68 L 193.50 365.65 L 193.70 365.64 L 193.77 365.64 L 193.80 365.64 L 193.98 365.64 L 194.00 365.64 L 194.19 365.64 L 194.23 365.64 L 194.52 364.20 L 194.56 364.20 L 194.66 364.03 L 194.79 364.03 L 194.95 364.03 L 195.03 364.01 L 195.59 364.01 L 195.61 364.01 L 195.71 363.92 L 195.97 363.92 L 196.19 363.09 L 196.26 362.99 L 196.37 362.99 L 196.42 362.99 L 196.55 362.96 L 197.19 356.89 L 197.25 356.94 L 197.47 356.94 L 197.54 356.94 L 197.59 356.93 L 197.69 356.93 L 197.79 356.85 L 198.01 356.85 L 198.17 356.85 L 198.30 356.84 L 198.37 356.84 L 198.94 356.83 L 199.25 356.82 L 199.34 356.67 L 199.61 356.67 L 199.63 356.67 L 199.66 356.67 L 199.82 356.26 L 199.96 356.16 L 200.43 354.71 L 200.50 354.71 L 200.59 354.71 L 200.72 354.73 L 200.73 354.73 L 200.79 354.73 L 200.83 354.73 L 200.90 354.73 L 200.96 354.73 L 201.14 354.70 L 201.28 354.70 L 201.41 354.69 L 201.59 354.69 L 201.80 354.68 L 202.00 354.14 L 202.14 353.96 L 202.44 353.96 L 202.44 353.95 L 202.62 353.95 L 216.72 353.95 L 216.99 353.94 L 217.65 353.85 L 217.79 353.84 L 217.90 353.84 L 217.92 353.84 L 218.17 353.84 L 218.33 353.84 L 218.43 353.84 L 218.53 353.84 L 218.58 353.83 L 218.84 353.83 L 219.35 353.86 L 219.47 353.86 L 219.57 353.86 L 219.69 353.86 L 220.35 353.74 L 220.44 353.69 L 220.48 353.69 L 220.52 353.61 L 220.67 353.60 L 220.78 353.60 L 221.25 353.05 L 221.93 353.05 L 222.18 353.05 L 222.93 353.05 L 223.29 349.33 L 223.42 349.33 L 223.57 349.33 L 223.79 349.32 L 224.13 349.32 L 224.61 349.32 L 225.25 349.32 L 225.35 349.32 L 225.81 349.23 L 226.12 349.07 L 226.21 349.07 L 226.39 349.07 L 226.54 349.05 L 228.20 348.82 L 229.79 348.82 L 243.99 348.82 L 244.09 348.82 L 244.16 348.82 L 244.60 348.82 L 245.93 347.65 L 245.99 347.61 L 246.17 347.49 L 246.82 347.48 L 247.13 347.20 L 247.60 347.20 L 247.71 347.20 L 247.81 347.20 L 248.64 343.94 L 248.74 343.94 L 248.91 343.94 L 249.09 343.94 L 249.18 343.73 L 249.64 343.33 L 249.80 343.33 L 249.88 343.33 L 249.98 342.73 L 250.19 342.13 L 250.27 342.13 L 250.48 342.12 L 251.09 337.26 L 251.15 337.26 L 251.21 337.26 L 251.30 337.26 L 251.46 337.26 L 251.52 337.26 L 251.57 337.26 L 251.87 337.26 L 251.94 337.15 L 252.30 337.13 L 252.51 337.06 L 252.65 336.47 L 253.75 326.79 L 253.88 326.79 L 295.59 326.79 L 295.63 326.79 L 311.58 326.79 L 312.44 326.64 L 312.62 326.64 L 312.86 326.64 L 312.93 326.64 L 313.03 326.64 L 319.94 326.57 L 320.86 326.48 L 321.19 326.48 L 321.37 326.45 L 325.68 326.36 L 325.71 326.24 L 325.98 326.24 L 327.26 324.92 L 327.34 324.92 L 327.50 324.92 L 327.95 324.92 L 328.01 324.92 L 328.19 324.92 L 328.39 324.92 L 328.42 324.92 L 341.81 324.90 L 341.92 324.67 L 342.45 324.67 L 342.46 323.09 L 342.55 323.09 L 342.66 323.09 L 342.81 322.94 L 343.04 322.94 L 343.23 322.87 L 343.40 322.87 L 343.47 322.87 L 343.74 322.85 L 344.67 320.17 L 345.04 320.16 L 345.11 320.15 L 345.18 320.15 L 345.23 320.15 L 345.36 320.11 L 345.74 319.77 L 345.79 319.73 L 346.02 317.32 L 346.11 317.31 L 346.15 317.31 L 346.23 317.27 L 346.29 317.27 L 346.34 317.27 L 346.64 315.95 L 346.76 315.94 L 346.93 315.91 L 347.04 311.82 L 347.09 311.82 L 347.38 309.52 L 347.46 309.52 L 347.52 309.52 L 347.59 309.52 L 347.64 309.52 L 347.68 309.52 L 347.70 309.52 L 347.85 305.26 L 347.90 305.26 L 348.04 305.24 L 348.15 305.24 L 348.45 305.16 L 348.82 305.04 L 348.83 305.04 L 348.93 305.02 L 349.28 304.95 L 349.44 304.95 L 349.60 304.95 L 349.77 303.11 L 349.89 303.11 L 350.36 303.11 L 350.41 303.10 L 350.46 303.10 L 350.50 303.10 L 350.81 300.48 L 350.87 300.48 L 351.09 300.46 L 371.71 300.46 L 372.88 300.45 L 372.92 300.45 L 373.15 300.45 L 373.17 300.45 L 373.32 300.45 L 373.44 300.45 L 373.53 300.32 L 373.68 300.32 L 373.72 300.32 L 373.77 300.32 L 373.99 300.08 L 374.44 299.93 L 374.72 299.78 L 375.04 299.03 L 375.05 299.03 L 375.10 298.85 L 375.14 298.83 L 375.76 298.37 L 375.77 298.37 L 375.87 298.31 L 376.13 298.31 L 376.30 298.26 L 376.33 297.18 L 376.35 297.18 L 376.42 298.25 L 376.46 298.19 L 376.49 298.18 L 376.64 296.72 L 376.65 296.72 L 376.98 296.66 L 377.86 296.66 L 378.06 296.66 L 378.13 296.66 L 378.17 296.66 L 378.22 296.66 L 378.35 296.56 L 392.44 295.35 L 392.46 295.35 L 392.58 295.34 L 392.62 295.08 L 392.70 282.16 L 392.85 277.36 L 392.87 277.36 L 393.13 277.27 L 393.19 277.27 L 393.23 277.25 L 393.46 277.25 L 394.07 276.07 L 394.09 276.07 L 394.24 276.01 L 394.30 276.01 L 394.33 275.91 L 394.84 275.21 L 394.86 275.21 L 395.63 275.06 L 395.72 275.01 L 395.99 275.03 L 396.31 273.44 L 396.39 273.28 L 396.45 273.13 L 396.59 272.54 L 396.99 272.39 L 397.06 272.26 L 397.24 272.26 L 397.43 272.26 L 398.02 272.26 L 398.09 272.26 L 398.23 272.26 L 398.24 272.26 L 398.43 272.28 L 398.88 272.28 L 399.34 272.12 L 399.41 272.12 L 399.51 272.10 L 399.64 272.10 L 399.99 272.10 L 400.59 272.10 L 400.78 271.95 L 401.11 267.78 L 402.40 271.72 L 402.69 271.70 L 402.89 271.69 L 403.22 271.69 L 403.32 271.64 L 403.64 271.62 L 404.15 271.38 L 404.22 271.38 L 404.32 271.38 L 404.38 271.38 L 404.43 271.38 L 404.83 271.15 L 414.17 271.15 L 414.25 271.16 L 414.83 271.14 L 414.89 271.14 L 415.02 271.10 L 415.13 270.81 L 415.14 270.80 L 415.46 270.77 L 415.54 270.77 L 417.46 270.53 L 417.68 270.53 L 417.85 270.53 L 417.88 270.53 L 418.47 270.36 L 418.68 270.36 L 418.71 270.36 L 419.03 270.36 L 419.38 269.37 L 419.42 269.37 L 419.71 269.20 L 419.83 269.20 L 419.94 269.20 L 420.19 269.20 L 420.70 269.19 L 420.80 269.16 L 420.90 269.07 L 421.11 268.90 L 421.62 268.75 L 422.08 264.82 L 422.17 264.68 L 422.64 264.50 L 422.72 264.45 L 422.80 264.31 L 422.85 264.03 L 423.01 262.86 L 423.05 262.91 L 423.12 262.88 L 423.39 262.88 L 423.79 262.72 L 424.04 262.65 L 424.33 262.64 L 424.47 262.62 L 424.75 262.61 L 425.22 262.61 L 425.69 262.60 L 426.05 262.59 L 426.13 262.59 L 426.22 262.58 L 426.23 262.58 L 426.50 262.58 L 426.58 262.56 L 426.69 262.41 L 427.46 262.40 L 427.47 262.40 L 427.68 262.38 L 428.58 262.38 L 429.17 262.18 L 429.60 262.02 L 429.62 262.02 L 429.65 262.01 L 442.73 262.01 L 442.78 262.01 L 442.93 262.01 L 443.00 262.01 L 443.04 261.99 L 443.05 261.99 L 443.61 261.99 L 443.74 261.97 L 443.90 261.95 L 444.18 261.92 L 444.36 261.92 L 444.58 261.83 L 444.71 261.83 L 444.77 261.83 L 444.84 261.83 L 445.00 261.47 L 445.02 261.47 L 445.08 261.47 L 445.22 261.47 L 445.31 261.47 L 445.43 261.56 L 445.59 261.56 L 445.91 261.54 L 446.05 261.54 L 446.17 261.54 L 446.98 260.38 L 447.67 260.07 L 448.49 259.25 L 448.70 259.25 L 448.94 259.25 L 449.19 259.25 L 454.00 259.14 L 454.40 259.14 L 499.97 258.99 L 643.47 258.78 L 643.94 258.71 L 644.27 258.70 L 644.60 258.70 L 645.10 258.17 L 645.27 258.17 L 645.40 258.17 L 645.63 256.23 L 645.96 256.60 L 646.23 256.57 L 646.29 256.57 L 646.51 256.56 L 646.56 256.56 L 646.80 256.55 L 647.01 256.46 L 647.66 255.24 L 647.68 255.24 L 647.87 255.13 L 648.48 251.16 L 648.50 251.16 L 648.62 251.16 L 648.77 251.10 L 649.44 249.25 L 649.45 249.25 L 649.60 249.25 L 649.75 249.21 L 650.00 248.53"/>
	</g>
	<g id="poloto_plot2" class="poloto_plot poloto_imgs poloto_line poloto2 poloto_stroke" fill="none" stroke="black">
		<path d=" M 150.00 389.44 L 150.04 389.43 L 150.06 389.43 L 150.07 389.43 L 150.10 389.43 L 150.14 386.73 L 150.29 386.36 L 150.64 386.35 L 151.16 386.34 L 151.43 384.72 L 151.96 384.58 L 152.05 384.53 L 152.12 384.49 L 152.74 383.76 L 153.90 383.20 L 154.27 383.09 L 154.36 383.10 L 155.06 383.05 L 155.87 383.05 L 155.87 383.05 L 155.88 383.05 L 166.77 383.05 L 166.84 383.05 L 166.99 383.02 L 167.04 383.02 L 167.46 382.86 L 167.65 382.81 L 168.11 382.55 L 168.17 382.43 L 168.30 382.20 L 168.44 382.16 L 168.48 382.16 L 168.60 382.12 L 168.72 382.12 L 168.83 382.12 L 169.14 381.85 L 169.41 381.60 L 169.46 381.60 L 169.58 381.45 L 170.45 381.13 L 170.47 381.13 L 170.58 381.03 L 171.07 380.67 L 171.47 380.22 L 171.91 380.05 L 172.01 380.05 L 172.02 380.05 L 172.10 379.80 L 172.27 379.80 L 172.49 379.77 L 172.92 379.59 L 172.95 379.27 L 173.02 379.27 L 173.13 379.12 L 173.37 379.12 L 173.40 379.12 L 173.65 378.64 L 173.75 378.62 L 173.84 378.57 L 173.94 378.35 L 175.27 378.22 L 175.59 378.17 L 176.33 377.85 L 176.49 377.85 L 176.60 377.83 L 176.67 377.59 L 177.17 376.26 L 177.40 376.24 L 177.66 375.85 L 177.79 375.81 L 178.10 375.63 L 178.23 375.57 L 178.41 375.29 L 178.58 375.05 L 179.17 375.05 L 179.18 375.02 L 179.21 374.83 L 179.41 373.56 L 189.51 373.42 L 190.56 373.04 L 190.59 372.99 L 191.83 372.67 L 191.94 372.66 L 192.05 372.43 L 192.35 372.27 L 192.49 371.98 L 192.54 371.74 L 192.69 371.26 L 193.06 371.25 L 193.07 371.25 L 193.21 370.92 L 193.35 370.92 L 193.50 370.57 L 193.70 370.30 L 193.77 370.15 L 193.80 370.14 L 193.98 369.82 L 194.00 369.81 L 194.19 369.52 L 194.23 369.51 L 194.52 369.41 L 194.56 369.41 L 194.66 369.30 L 194.79 369.28 L 194.95 369.28 L 195.03 369.26 L 195.59 368.97 L 195.61 368.98 L 195.71 368.40 L 195.97 368.39 L 196.19 368.21 L 196.26 368.21 L 196.37 368.20 L 196.42 368.16 L 196.55 367.37 L 197.19 366.70 L 197.25 366.34 L 197.47 366.31 L 197.54 366.22 L 197.59 366.20 L 197.69 366.03 L 197.79 365.41 L 198.01 365.31 L 198.17 365.30 L 198.30 364.98 L 198.37 364.97 L 198.94 364.74 L 199.25 364.57 L 199.34 364.43 L 199.61 364.42 L 199.63 364.42 L 199.66 364.39 L 199.82 363.26 L 199.96 363.25 L 200.43 363.09 L 200.50 362.64 L 200.59 362.63 L 200.72 362.44 L 200.73 362.34 L 200.79 362.26 L 200.83 362.22 L 200.90 362.21 L 200.96 362.12 L 201.14 360.85 L 201.28 360.72 L 201.41 360.34 L 201.59 360.32 L 201.80 360.19 L 202.00 359.80 L 202.14 358.69 L 202.44 358.61 L 202.44 358.14 L 202.62 358.02 L 216.72 358.03 L 216.99 358.03 L 217.65 357.51 L 217.79 357.51 L 217.90 357.51 L 217.92 357.37 L 218.17 357.15 L 218.33 357.11 L 218.43 356.97 L 218.53 356.87 L 218.58 356.83 L 218.84 356.76 L 219.35 356.86 L 219.47 356.51 L 219.57 356.42 L 219.69 356.41 L 220.35 356.34 L 220.44 356.28 L 220.48 356.28 L 220.52 356.21 L 220.67 356.16 L 220.78 356.03 L 221.25 355.70 L 221.93 355.56 L 222.18 355.50 L 222.93 355.29 L 223.29 354.78 L 223.42 354.69 L 223.57 354.29 L 223.79 353.77 L 224.13 353.63 L 224.61 353.62 L 225.25 353.60 L 225.35 353.41 L 225.81 353.28 L 226.12 353.12 L 226.21 352.99 L 226.39 352.94 L 226.54 352.59 L 228.20 352.42 L 229.79 352.42 L 243.99 352.38 L 244.09 352.19 L 244.16 352.07 L 244.60 351.88 L 245.93 351.53 L 245.99 351.48 L 246.17 351.24 L 246.82 351.14 L 247.13 350.48 L 247.60 350.46 L 247.71 350.44 L 247.81 349.78 L 248.64 349.17 L 248.74 349.16 L 248.91 349.12 L 249.09 349.07 L 249.18 348.84 L 249.64 347.82 L 249.80 347.56 L 249.88 347.54 L 249.98 347.43 L 250.19 347.03 L 250.27 346.00 L 250.48 345.58 L 251.09 345.34 L 251.15 344.83 L 251.21 344.83 L 251.30 344.73 L 251.46 344.60 L 251.52 344.56 L 251.57 344.51 L 251.87 343.31 L 251.94 342.61 L 252.30 342.48 L 252.51 341.28 L 252.65 341.06 L 253.75 339.18 L 253.88 339.15 L 295.59 338.60 L 295.63 338.60 L 311.58 338.45 L 312.44 338.25 L 312.62 338.25 L 312.86 338.15 L 312.93 338.00 L 313.03 337.97 L 319.94 337.95 L 320.86 335.80 L 321.19 335.61 L 321.37 334.87 L 325.68 334.78 L 325.71 334.71 L 325.98 334.69 L 327.26 334.56 L 327.34 334.31 L 327.50 334.23 L 327.95 334.12 L 328.01 334.09 L 328.19 333.67 L 328.39 333.54 L 328.42 333.22 L 341.81 332.82 L 341.92 331.84 L 342.45 331.59 L 342.46 331.21 L 342.55 330.92 L 342.66 330.47 L 342.81 329.28 L 343.04 328.63 L 343.23 327.80 L 343.40 327.79 L 343.47 327.15 L 343.74 327.10 L 344.67 326.49 L 345.04 326.20 L 345.11 326.03 L 345.18 326.02 L 345.23 325.81 L 345.36 325.08 L 345.74 325.00 L 345.79 325.00 L 346.02 324.52 L 346.11 324.52 L 346.15 324.25 L 346.23 324.08 L 346.29 324.07 L 346.34 323.69 L 346.64 323.46 L 346.76 323.08 L 346.93 323.07 L 347.04 322.86 L 347.09 322.57 L 347.38 322.41 L 347.46 322.25 L 347.52 322.25 L 347.59 322.24 L 347.64 321.94 L 347.68 321.96 L 347.70 321.95 L 347.85 321.85 L 347.90 321.52 L 348.04 321.52 L 348.15 321.44 L 348.45 321.41 L 348.82 321.38 L 348.83 321.38 L 348.93 321.36 L 349.28 321.35 L 349.44 321.35 L 349.60 321.35 L 349.77 321.30 L 349.89 320.91 L 350.36 320.90 L 350.41 320.67 L 350.46 320.67 L 350.50 320.40 L 350.81 320.31 L 350.87 320.25 L 351.09 320.25 L 371.71 320.18 L 372.88 320.07 L 372.92 320.07 L 373.15 320.07 L 373.17 320.07 L 373.32 319.61 L 373.44 319.59 L 373.53 319.46 L 373.68 319.39 L 373.72 319.35 L 373.77 319.32 L 373.99 319.28 L 374.44 319.19 L 374.72 318.57 L 375.04 318.53 L 375.05 318.49 L 375.10 317.97 L 375.14 317.97 L 375.76 317.97 L 375.77 317.92 L 375.87 317.44 L 376.13 317.37 L 376.30 317.36 L 376.33 317.35 L 376.35 317.29 L 376.42 317.26 L 376.46 316.76 L 376.49 316.75 L 376.64 316.75 L 376.65 316.71 L 376.98 316.66 L 377.86 316.64 L 378.06 316.60 L 378.13 316.59 L 378.17 316.43 L 378.22 316.43 L 378.35 315.88 L 392.44 315.71 L 392.46 315.55 L 392.58 315.44 L 392.62 315.42 L 392.70 314.95 L 392.85 314.83 L 392.87 314.80 L 393.13 314.80 L 393.19 314.80 L 393.23 314.33 L 393.46 314.27 L 394.07 314.26 L 394.09 314.23 L 394.24 313.97 L 394.30 313.98 L 394.33 313.54 L 394.84 313.54 L 394.86 313.52 L 395.63 313.41 L 395.72 312.89 L 395.99 312.89 L 396.31 312.89 L 396.39 312.51 L 396.45 312.21 L 396.59 312.20 L 396.99 312.14 L 397.06 312.11 L 397.24 311.99 L 397.43 311.99 L 398.02 311.99 L 398.09 311.99 L 398.23 311.97 L 398.24 311.96 L 398.43 311.96 L 398.88 311.93 L 399.34 311.88 L 399.41 311.88 L 399.51 311.82 L 399.64 311.68 L 399.99 311.68 L 400.59 311.51 L 400.78 311.22 L 401.11 311.19 L 402.40 310.87 L 402.69 310.87 L 402.89 310.87 L 403.22 310.86 L 403.32 310.84 L 403.64 310.68 L 404.15 310.65 L 404.22 310.51 L 404.32 310.44 L 404.38 310.46 L 404.43 310.41 L 404.83 310.38 L 414.17 310.38 L 414.25 310.38 L 414.83 310.38 L 414.89 310.36 L 415.02 309.92 L 415.13 309.90 L 415.14 309.91 L 415.46 309.90 L 415.54 309.87 L 417.46 309.23 L 417.68 309.17 L 417.85 309.15 L 417.88 309.15 L 418.47 309.13 L 418.68 309.22 L 418.71 309.22 L 419.03 309.18 L 419.38 308.57 L 419.42 308.56 L 419.71 308.54 L 419.83 308.54 L 419.94 308.54 L 420.19 308.41 L 420.70 307.86 L 420.80 307.86 L 420.90 307.78 L 421.11 307.28 L 421.62 306.73 L 422.08 306.76 L 422.17 306.47 L 422.64 306.47 L 422.72 306.44 L 422.80 306.40 L 422.85 306.11 L 423.01 306.10 L 423.05 306.10 L 423.12 306.10 L 423.39 306.10 L 423.79 305.87 L 424.04 305.85 L 424.33 305.85 L 424.47 305.85 L 424.75 305.85 L 425.22 305.85 L 425.69 305.85 L 426.05 305.84 L 426.13 305.84 L 426.22 305.83 L 426.23 305.73 L 426.50 305.65 L 426.58 305.65 L 426.69 305.64 L 427.46 305.63 L 427.47 305.35 L 427.68 305.35 L 428.58 305.35 L 429.17 305.35 L 429.60 305.28 L 429.62 305.17 L 429.65 305.17 L 442.73 304.98 L 442.78 304.97 L 442.93 304.96 L 443.00 304.78 L 443.04 304.78 L 443.05 304.77 L 443.61 304.72 L 443.74 304.13 L 443.90 304.01 L 444.18 302.86 L 444.36 302.85 L 444.58 302.36 L 444.71 302.42 L 444.77 302.41 L 444.84 301.79 L 445.00 301.68 L 445.02 301.25 L 445.08 301.19 L 445.22 301.15 L 445.31 300.93 L 445.43 303.50 L 445.59 303.46 L 445.91 302.42 L 446.05 302.20 L 446.17 301.97 L 446.98 301.56 L 447.67 301.13 L 448.49 300.52 L 448.70 300.46 L 448.94 300.46 L 449.19 300.40 L 454.00 300.10 L 454.40 300.07 L 499.97 299.27 L 643.47 299.24 L 643.94 298.88 L 644.27 298.82 L 644.60 298.82 L 645.10 298.49 L 645.27 298.11 L 645.40 297.41 L 645.63 297.22 L 645.96 297.28 L 646.23 296.87 L 646.29 296.87 L 646.51 296.74 L 646.56 296.74 L 646.80 296.05 L 647.01 295.00 L 647.66 294.90 L 647.68 294.79 L 647.87 293.43 L 648.48 293.38 L 648.50 293.24 L 648.62 293.16 L 648.77 291.93 L 649.44 291.87 L 649.45 291.69 L 649.60 291.61 L 649.75 290.80 L 650.00 290.78"/>
	</g>
	<g class="poloto_legend poloto_imgs poloto_line poloto0 poloto_stroke"><line x1="680" x2="730" y1="81.25" y2="81.25"/></g>
	<g class="poloto_legend poloto_imgs poloto_line poloto1 poloto_stroke"><line x1="680" x2="730" y1="131.25" y2="131.25"/></g>
	<g class="poloto_legend poloto_imgs poloto_line poloto2 poloto_stroke"><line x1="680" x2="730" y1="181.25" y2="181.25"/></g>
	<text class="poloto_legend poloto_text poloto_line poloto0" x="675" y="100">total</text>
	<text class="poloto_legend poloto_text poloto_line poloto1" x="675" y="150">code</text>
	<text class="poloto_legend poloto_text poloto_line poloto2" x="675" y="200">docs</text>
	<text class="poloto_text poloto_name poloto_title" x="400.00" y="37.50">Workspace lines over time</text>
	<text class="poloto_text poloto_name poloto_x" x="400.00" y="640">date (JST)</text>
	<text class="poloto_text poloto_name poloto_y" x="37.50" y="250.00" transform="rotate(-90,37.50,250.00)">lines</text>
	<text class="poloto_text poloto_ticks poloto_y">
		<tspan x="135.00" y="400.00">0</tspan>
		<tspan x="135.00" y="299.62">50K</tspan>
		<tspan x="135.00" y="199.23">100K</tspan>
	</text>
	<g class="poloto_imgs poloto_ticks poloto_y" stroke="black">
		<line x1="150.00" x2="144.00" y1="400.00" y2="400.00"/>
		<line x1="150.00" x2="144.00" y1="299.62" y2="299.62"/>
		<line x1="150.00" x2="144.00" y1="199.23" y2="199.23"/>
	</g>
	<g class="poloto_text poloto_ticks poloto_x">
		<text x="186.05" y="430.00" text-anchor="end" transform="rotate(-90 186.05 430.00)">2026-04-22 04:33</text>
		<text x="243.81" y="430.00" text-anchor="end" transform="rotate(-90 243.81 430.00)">2026-04-24 12:06</text>
		<text x="301.56" y="430.00" text-anchor="end" transform="rotate(-90 301.56 430.00)">2026-04-26 19:40</text>
		<text x="359.32" y="430.00" text-anchor="end" transform="rotate(-90 359.32 430.00)">2026-04-29 03:13</text>
		<text x="417.08" y="430.00" text-anchor="end" transform="rotate(-90 417.08 430.00)">2026-05-01 10:46</text>
		<text x="474.84" y="430.00" text-anchor="end" transform="rotate(-90 474.84 430.00)">2026-05-03 18:20</text>
		<text x="532.59" y="430.00" text-anchor="end" transform="rotate(-90 532.59 430.00)">2026-05-06 01:53</text>
		<text x="590.35" y="430.00" text-anchor="end" transform="rotate(-90 590.35 430.00)">2026-05-08 09:26</text>
		<text x="648.11" y="430.00" text-anchor="end" transform="rotate(-90 648.11 430.00)">2026-05-10 17:00</text>
	</g>
	<g class="poloto_imgs poloto_ticks poloto_x" stroke="black">
		<line x1="186.05" x2="186.05" y1="400.00" y2="405.00"/>
		<line x1="243.81" x2="243.81" y1="400.00" y2="405.00"/>
		<line x1="301.56" x2="301.56" y1="400.00" y2="405.00"/>
		<line x1="359.32" x2="359.32" y1="400.00" y2="405.00"/>
		<line x1="417.08" x2="417.08" y1="400.00" y2="405.00"/>
		<line x1="474.84" x2="474.84" y1="400.00" y2="405.00"/>
		<line x1="532.59" x2="532.59" y1="400.00" y2="405.00"/>
		<line x1="590.35" x2="590.35" y1="400.00" y2="405.00"/>
		<line x1="648.11" x2="648.11" y1="400.00" y2="405.00"/>
	</g>
	<path class="poloto_imgs poloto_ticks poloto_x" stroke="black" style="stroke-dasharray:7.219737028298481;stroke-dashoffset:-36.04756940336665;" d=" M 150.00 400.00 L 650.00 400.00"/>
	<path class="poloto_imgs poloto_ticks poloto_y" stroke="black" style="stroke-dasharray:10.03848084323239;stroke-dashoffset:-0;" d=" M 150.00 400.00 L 150.00 100.00"/>
</svg>

