<svg class="poloto" width="800" height="680" viewBox="0 0 800 680" xmlns="http://www.w3.org/2000/svg">
	<style>
.poloto{
  stroke-linecap:round;
  stroke-linejoin:round;
  font-family:Roboto,sans-serif;
  font-size:16px;
}
.poloto_background{fill:AliceBlue;}
.poloto_scatter{stroke-width:7}
.poloto_line{stroke-width:2}
.poloto_text{fill: black;}
.poloto_name{font-size:24px;dominant-baseline:auto;text-anchor:middle;}
.poloto_where{dominant-baseline:middle;text-anchor:start}
.poloto_text.poloto_legend{font-size:20px;dominant-baseline:middle;text-anchor:start;}
.poloto_text.poloto_ticks.poloto_y{dominant-baseline:middle;text-anchor:end}
.poloto_text.poloto_ticks.poloto_x{dominant-baseline:auto;text-anchor:middle}
.poloto_imgs.poloto_ticks{stroke: black;stroke-width:3;fill:none;stroke-dasharray:none}
.poloto_grid{stroke:gray;stroke-width:0.5}

.poloto0.poloto_stroke{stroke:blue;}
.poloto1.poloto_stroke{stroke:red;}
.poloto2.poloto_stroke{stroke:green;}
.poloto3.poloto_stroke{stroke:gold;}
.poloto4.poloto_stroke{stroke:aqua;}
.poloto5.poloto_stroke{stroke:lime;}
.poloto6.poloto_stroke{stroke:orange;}
.poloto7.poloto_stroke{stroke:chocolate;}
.poloto0.poloto_fill{fill:blue;}
.poloto1.poloto_fill{fill:red;}
.poloto2.poloto_fill{fill:green;}
.poloto3.poloto_fill{fill:gold;}
.poloto4.poloto_fill{fill:aqua;}
.poloto5.poloto_fill{fill:lime;}
.poloto6.poloto_fill{fill:orange;}
.poloto7.poloto_fill{fill:chocolate;}
	</style>
	<circle r="1e5" class="poloto_background" fill="white"/>
	<g id="poloto_plot0" class="poloto_plot poloto_imgs poloto_line poloto0 poloto_stroke" fill="none" stroke="black">
		<path d=" M 150.00 365.56 L 150.03 365.53 L 150.05 365.51 L 150.06 365.51 L 150.09 365.51 L 150.12 361.77 L 150.26 361.32 L 150.57 361.30 L 151.02 360.99 L 151.26 359.09 L 151.72 358.98 L 151.80 358.88 L 151.86 358.84 L 152.41 357.91 L 153.43 357.16 L 153.75 354.22 L 153.83 354.23 L 154.45 354.11 L 155.16 354.10 L 155.16 354.10 L 155.17 354.10 L 164.74 354.10 L 164.81 354.09 L 164.93 354.07 L 164.98 354.03 L 165.35 353.86 L 165.51 353.82 L 165.92 353.55 L 165.97 353.43 L 166.09 353.16 L 166.21 353.12 L 166.25 353.12 L 166.35 353.05 L 166.45 353.05 L 166.56 353.05 L 166.82 352.62 L 167.06 352.35 L 167.10 352.35 L 167.21 352.19 L 167.98 352.86 L 167.99 352.86 L 168.09 352.75 L 168.52 352.25 L 168.87 351.65 L 169.26 351.38 L 169.34 351.34 L 169.36 351.34 L 169.43 351.11 L 169.58 351.11 L 169.77 351.02 L 170.15 350.80 L 170.17 350.45 L 170.24 350.45 L 170.33 350.26 L 170.54 350.26 L 170.57 350.26 L 170.79 349.76 L 170.88 349.74 L 170.96 349.70 L 171.05 349.49 L 172.21 349.22 L 172.49 349.17 L 173.14 348.81 L 173.28 348.81 L 173.38 348.80 L 173.44 348.54 L 173.88 347.06 L 174.08 347.03 L 174.32 346.54 L 174.43 346.49 L 174.70 346.08 L 174.81 345.93 L 174.97 345.66 L 175.12 345.43 L 175.64 342.01 L 175.65 341.93 L 175.68 341.72 L 175.85 340.08 L 184.73 339.96 L 185.65 338.09 L 185.68 338.04 L 186.77 337.75 L 186.86 337.74 L 186.96 337.37 L 187.23 337.18 L 187.35 336.86 L 187.39 336.58 L 187.53 336.09 L 187.85 336.08 L 187.86 335.75 L 187.98 335.39 L 188.10 335.38 L 188.24 334.97 L 188.41 334.67 L 188.48 334.53 L 188.50 334.52 L 188.65 334.20 L 188.68 334.19 L 188.85 333.87 L 188.87 333.86 L 189.13 332.32 L 189.17 332.32 L 189.26 332.06 L 189.37 332.05 L 189.51 332.05 L 189.58 332.01 L 190.08 331.72 L 190.09 331.73 L 190.18 331.05 L 190.40 331.03 L 190.60 330.00 L 190.66 329.91 L 190.76 329.90 L 190.81 329.86 L 190.92 329.07 L 191.48 322.36 L 191.54 322.03 L 191.73 322.00 L 191.78 321.92 L 191.83 321.90 L 191.92 321.73 L 192.00 320.96 L 192.20 320.81 L 192.34 320.79 L 192.45 320.46 L 192.52 320.45 L 193.02 320.20 L 193.29 320.01 L 193.37 319.71 L 193.61 319.69 L 193.63 319.69 L 193.65 319.67 L 193.80 318.05 L 193.91 317.96 L 194.33 316.33 L 194.39 315.86 L 194.47 315.84 L 194.58 315.67 L 194.59 315.55 L 194.64 315.47 L 194.68 315.43 L 194.74 315.42 L 194.79 315.34 L 194.95 314.01 L 195.08 313.81 L 195.19 313.42 L 195.35 313.39 L 195.53 313.27 L 195.71 312.33 L 195.83 311.02 L 196.09 310.95 L 196.10 310.46 L 196.25 310.30 L 208.65 310.30 L 208.88 310.29 L 209.47 309.60 L 209.59 309.58 L 209.68 309.58 L 209.70 309.41 L 209.92 309.20 L 210.06 309.16 L 210.15 309.03 L 210.23 308.94 L 210.28 308.89 L 210.51 308.83 L 210.95 308.75 L 211.07 308.39 L 211.15 308.30 L 211.26 308.29 L 211.83 308.11 L 211.91 308.01 L 211.95 308.01 L 211.99 307.88 L 212.12 307.82 L 212.21 307.69 L 212.63 306.81 L 213.23 306.67 L 213.44 306.62 L 214.11 306.40 L 214.42 302.18 L 214.53 302.09 L 214.67 301.68 L 214.86 301.12 L 215.16 300.97 L 215.58 300.95 L 216.15 300.94 L 216.23 300.75 L 216.64 300.56 L 216.91 300.25 L 216.99 300.13 L 217.15 300.08 L 217.27 299.71 L 218.74 299.29 L 220.13 299.29 L 232.61 299.25 L 232.70 299.07 L 232.77 298.95 L 233.16 298.77 L 234.32 297.32 L 234.37 297.22 L 234.53 296.85 L 235.11 296.75 L 235.38 295.77 L 235.79 295.76 L 235.89 295.75 L 235.98 295.07 L 236.70 291.24 L 236.79 291.23 L 236.94 291.20 L 237.10 291.15 L 237.18 290.73 L 237.58 289.29 L 237.72 289.02 L 237.79 289.00 L 237.88 288.33 L 238.06 287.39 L 238.13 286.39 L 238.32 285.94 L 238.86 280.96 L 238.91 280.46 L 238.96 280.46 L 239.05 280.36 L 239.18 280.24 L 239.23 280.19 L 239.28 280.14 L 239.54 278.94 L 239.61 278.10 L 239.92 277.93 L 240.11 276.68 L 240.23 275.89 L 241.20 264.26 L 241.31 264.23 L 277.98 263.67 L 278.01 263.67 L 292.02 263.51 L 292.79 263.20 L 292.94 263.20 L 293.15 263.11 L 293.22 262.96 L 293.30 262.92 L 299.38 262.84 L 300.18 260.63 L 300.48 260.43 L 300.64 259.61 L 304.42 259.45 L 304.45 259.23 L 304.68 259.21 L 305.81 257.81 L 305.88 257.56 L 306.02 257.47 L 306.42 257.37 L 306.47 257.34 L 306.63 256.92 L 306.80 256.80 L 306.83 256.49 L 318.60 256.07 L 318.69 254.88 L 319.16 254.61 L 319.17 252.62 L 319.25 252.32 L 319.35 251.84 L 319.48 250.46 L 319.68 249.73 L 319.85 248.88 L 320.00 248.87 L 320.06 248.22 L 320.30 248.16 L 321.11 244.95 L 321.44 244.60 L 321.50 244.40 L 321.57 244.40 L 321.61 244.17 L 321.72 243.38 L 322.05 243.01 L 322.10 242.96 L 322.30 240.13 L 322.38 240.12 L 322.41 239.82 L 322.49 239.59 L 322.54 239.58 L 322.58 239.16 L 322.84 237.63 L 322.95 237.20 L 323.10 237.14 L 323.20 233.06 L 323.24 232.72 L 323.50 230.39 L 323.57 230.21 L 323.62 230.20 L 323.68 230.20 L 323.72 229.87 L 323.76 229.88 L 323.78 229.87 L 323.91 225.75 L 323.95 225.39 L 324.08 225.37 L 324.17 225.30 L 324.44 225.18 L 324.76 225.02 L 324.77 225.02 L 324.86 224.97 L 325.16 224.89 L 325.31 224.89 L 325.45 224.89 L 325.60 223.10 L 325.70 222.66 L 326.12 222.66 L 326.16 222.37 L 326.21 222.37 L 326.24 222.06 L 326.51 219.46 L 326.56 219.40 L 326.76 219.38 L 344.88 219.31 L 345.91 219.17 L 345.94 219.17 L 346.15 219.17 L 346.16 219.17 L 346.30 218.66 L 346.40 218.63 L 346.48 218.38 L 346.61 218.32 L 346.65 218.28 L 346.69 218.26 L 346.89 217.97 L 347.28 217.71 L 347.53 216.88 L 347.81 216.08 L 347.82 216.04 L 347.86 215.29 L 347.90 215.27 L 348.44 214.83 L 348.45 214.77 L 348.53 214.18 L 348.77 214.12 L 348.91 214.06 L 348.95 213.01 L 348.96 212.96 L 349.02 213.96 L 349.06 213.34 L 349.08 213.32 L 349.22 211.91 L 349.23 211.87 L 349.51 211.75 L 350.28 211.73 L 350.47 211.68 L 350.52 211.67 L 350.56 211.49 L 350.61 211.49 L 350.72 210.79 L 363.10 209.44 L 363.12 209.26 L 363.23 209.13 L 363.26 208.87 L 363.33 197.11 L 363.46 192.29 L 363.48 192.26 L 363.71 192.16 L 363.76 192.16 L 363.80 191.61 L 364.00 191.56 L 364.54 190.42 L 364.55 190.39 L 364.69 190.04 L 364.74 190.05 L 364.77 189.48 L 365.21 188.81 L 365.23 188.79 L 365.90 188.53 L 365.99 187.93 L 366.23 187.94 L 366.51 186.42 L 366.58 185.82 L 366.63 185.34 L 366.75 184.75 L 367.11 184.54 L 367.17 184.40 L 367.32 184.27 L 367.49 184.27 L 368.01 184.27 L 368.07 184.27 L 368.19 184.24 L 368.20 184.24 L 368.37 184.25 L 368.76 184.22 L 369.16 184.00 L 369.23 184.00 L 369.32 183.91 L 369.43 183.75 L 369.74 183.75 L 370.27 183.54 L 370.44 183.07 L 370.72 179.01 L 371.86 182.44 L 372.11 182.43 L 372.29 182.41 L 372.58 182.40 L 372.67 182.34 L 372.95 182.15 L 373.40 181.87 L 373.46 181.68 L 373.54 181.60 L 373.60 181.62 L 373.64 181.56 L 373.99 181.31 L 382.20 181.31 L 382.28 181.31 L 382.79 181.30 L 382.84 181.28 L 382.95 180.76 L 383.05 180.47 L 383.06 180.47 L 383.34 180.42 L 383.41 180.40 L 385.09 179.63 L 385.29 179.57 L 385.44 179.55 L 385.47 179.55 L 385.99 179.37 L 386.17 179.46 L 386.20 179.45 L 386.48 179.40 L 386.78 177.80 L 386.82 177.79 L 387.08 177.61 L 387.18 177.61 L 387.28 177.61 L 387.49 177.43 L 387.95 176.78 L 388.03 176.76 L 388.12 176.58 L 388.30 175.81 L 388.76 175.02 L 389.16 171.29 L 389.24 170.83 L 389.65 170.65 L 389.72 170.56 L 389.79 170.38 L 389.83 169.78 L 389.97 168.70 L 390.01 168.74 L 390.07 168.72 L 390.30 168.72 L 390.66 168.32 L 390.88 168.25 L 391.14 168.23 L 391.25 168.22 L 391.50 168.21 L 391.92 168.21 L 392.33 168.20 L 392.65 168.19 L 392.72 168.18 L 392.80 168.17 L 392.80 168.04 L 393.05 167.96 L 393.12 167.95 L 393.21 167.79 L 393.89 167.76 L 393.90 167.44 L 394.08 167.43 L 394.87 167.43 L 395.39 167.23 L 395.77 167.00 L 395.78 166.87 L 395.81 166.86 L 407.31 166.64 L 407.35 166.64 L 407.48 166.62 L 407.54 166.44 L 407.58 166.42 L 407.59 166.41 L 408.08 166.35 L 408.19 165.68 L 408.34 165.53 L 408.58 164.20 L 408.74 164.18 L 408.94 163.62 L 409.05 163.69 L 409.10 163.68 L 409.16 163.04 L 409.30 162.59 L 409.32 162.12 L 409.37 162.06 L 409.49 162.02 L 409.58 161.80 L 409.68 164.34 L 409.82 164.29 L 410.10 163.28 L 410.22 163.03 L 410.33 162.82 L 411.04 161.36 L 411.65 160.66 L 412.37 159.31 L 412.56 159.25 L 412.76 159.25 L 412.99 159.19 L 417.22 158.80 L 417.57 158.77 L 457.62 157.74 L 583.75 157.50 L 584.17 157.09 L 584.46 157.04 L 584.75 157.04 L 585.19 156.25 L 585.34 155.86 L 585.45 155.15 L 585.65 153.11 L 585.95 153.53 L 586.18 153.08 L 586.23 153.07 L 586.43 152.94 L 586.47 152.94 L 586.68 152.19 L 586.87 150.99 L 587.44 149.72 L 587.46 149.61 L 587.62 148.09 L 588.16 144.32 L 588.18 144.19 L 588.28 144.11 L 588.41 142.77 L 589.00 140.96 L 589.01 140.79 L 589.14 140.70 L 589.28 139.81 L 589.50 139.11 L 589.51 138.97 L 589.61 137.59 L 589.62 137.56 L 589.68 137.17 L 589.92 134.72 L 589.95 134.58 L 590.04 134.44 L 590.31 134.11 L 590.36 134.10 L 590.57 133.63 L 590.92 133.69 L 590.98 133.63 L 591.02 133.59 L 591.08 133.56 L 591.26 132.12 L 591.45 130.94 L 591.47 130.84 L 591.58 129.37 L 591.68 127.94 L 591.71 127.76 L 591.82 126.08 L 591.87 124.76 L 592.09 123.87 L 592.12 123.81 L 592.23 123.53 L 592.38 123.51 L 593.29 123.47 L 593.74 123.43 L 603.59 123.49 L 603.69 123.23 L 603.79 123.01 L 603.95 122.02 L 604.32 121.77 L 604.35 121.67 L 604.42 120.36 L 604.66 119.10 L 604.68 118.99 L 606.83 118.90 L 606.96 118.19 L 608.05 117.98 L 608.17 117.93 L 608.29 116.46 L 609.60 115.07 L 610.16 114.55 L 610.30 113.47 L 610.77 111.62 L 611.06 111.09 L 611.54 110.00 L 612.41 109.45 L 625.60 109.44 L 626.38 109.31 L 626.42 109.34 L 627.52 109.12 L 627.58 109.01 L 627.97 108.93 L 628.41 107.73 L 628.42 107.73 L 628.47 107.68 L 629.05 106.30 L 630.41 105.52 L 630.50 105.44 L 630.64 105.43 L 630.84 105.07 L 630.90 104.97 L 630.98 104.91 L 631.61 104.85 L 632.11 104.85 L 632.39 104.85 L 632.42 104.80 L 632.99 103.60 L 633.42 103.37 L 633.44 103.28 L 633.49 103.18 L 633.55 102.86 L 647.86 102.40 L 647.89 102.37 L 647.93 102.35 L 648.21 102.22 L 648.43 102.07 L 649.69 100.22 L 650.00 100.00"/>
	</g>
	<g id="poloto_plot1" class="poloto_plot poloto_imgs poloto_line poloto1 poloto_stroke" fill="none" stroke="black">
		<path d=" M 150.00 379.53 L 150.03 379.52 L 150.05 379.50 L 150.06 379.50 L 150.09 379.50 L 150.12 378.86 L 150.26 378.83 L 150.57 378.82 L 151.02 378.58 L 151.26 378.47 L 151.72 378.49 L 151.80 378.45 L 151.86 378.45 L 152.41 378.40 L 153.43 378.28 L 153.75 375.75 L 153.83 375.75 L 154.45 375.69 L 155.16 375.68 L 155.16 375.68 L 155.17 375.68 L 164.74 375.68 L 164.81 375.68 L 164.93 375.67 L 164.98 375.64 L 165.35 375.63 L 165.51 375.63 L 165.92 375.63 L 165.97 375.63 L 166.09 375.61 L 166.21 375.61 L 166.25 375.61 L 166.35 375.58 L 166.45 375.58 L 166.56 375.58 L 166.82 375.44 L 167.06 375.44 L 167.10 375.44 L 167.21 375.44 L 167.98 376.39 L 167.99 376.39 L 168.09 376.37 L 168.52 376.23 L 168.87 376.07 L 169.26 376.00 L 169.34 375.95 L 169.36 375.95 L 169.43 375.95 L 169.58 375.95 L 169.77 375.89 L 170.15 375.84 L 170.17 375.84 L 170.24 375.84 L 170.33 375.81 L 170.54 375.81 L 170.57 375.81 L 170.79 375.80 L 170.88 375.80 L 170.96 375.80 L 171.05 375.80 L 172.21 375.69 L 172.49 375.68 L 173.14 375.63 L 173.28 375.63 L 173.38 375.63 L 173.44 375.63 L 173.88 375.56 L 174.08 375.56 L 174.32 375.46 L 174.43 375.45 L 174.70 375.25 L 174.81 375.17 L 174.97 375.17 L 175.12 375.17 L 175.64 372.21 L 175.65 372.16 L 175.68 372.16 L 175.85 371.88 L 184.73 371.88 L 185.65 370.60 L 185.68 370.60 L 186.77 370.60 L 186.86 370.60 L 186.96 370.46 L 187.23 370.44 L 187.35 370.44 L 187.39 370.44 L 187.53 370.44 L 187.85 370.44 L 187.86 370.17 L 187.98 370.16 L 188.10 370.16 L 188.24 370.13 L 188.41 370.12 L 188.48 370.12 L 188.50 370.12 L 188.65 370.12 L 188.68 370.12 L 188.85 370.12 L 188.87 370.12 L 189.13 368.87 L 189.17 368.87 L 189.26 368.72 L 189.37 368.72 L 189.51 368.72 L 189.58 368.70 L 190.08 368.70 L 190.09 368.70 L 190.18 368.62 L 190.40 368.62 L 190.60 367.90 L 190.66 367.81 L 190.76 367.81 L 190.81 367.81 L 190.92 367.79 L 191.48 362.51 L 191.54 362.55 L 191.73 362.55 L 191.78 362.55 L 191.83 362.54 L 191.92 362.54 L 192.00 362.47 L 192.20 362.47 L 192.34 362.47 L 192.45 362.46 L 192.52 362.46 L 193.02 362.45 L 193.29 362.45 L 193.37 362.32 L 193.61 362.32 L 193.63 362.32 L 193.65 362.32 L 193.80 361.96 L 193.91 361.87 L 194.33 360.62 L 194.39 360.62 L 194.47 360.62 L 194.58 360.63 L 194.59 360.63 L 194.64 360.63 L 194.68 360.63 L 194.74 360.63 L 194.79 360.63 L 194.95 360.61 L 195.08 360.61 L 195.19 360.59 L 195.35 360.59 L 195.53 360.58 L 195.71 360.12 L 195.83 359.96 L 196.09 359.96 L 196.10 359.95 L 196.25 359.95 L 208.65 359.95 L 208.88 359.95 L 209.47 359.86 L 209.59 359.85 L 209.68 359.85 L 209.70 359.85 L 209.92 359.85 L 210.06 359.85 L 210.15 359.85 L 210.23 359.85 L 210.28 359.85 L 210.51 359.85 L 210.95 359.87 L 211.07 359.87 L 211.15 359.87 L 211.26 359.87 L 211.83 359.77 L 211.91 359.72 L 211.95 359.72 L 211.99 359.66 L 212.12 359.65 L 212.21 359.65 L 212.63 359.17 L 213.23 359.17 L 213.44 359.17 L 214.11 359.17 L 214.42 355.93 L 214.53 355.93 L 214.67 355.93 L 214.86 355.93 L 215.16 355.93 L 215.58 355.93 L 216.15 355.93 L 216.23 355.93 L 216.64 355.85 L 216.91 355.71 L 216.99 355.71 L 217.15 355.71 L 217.27 355.70 L 218.74 355.49 L 220.13 355.49 L 232.61 355.49 L 232.70 355.49 L 232.77 355.49 L 233.16 355.49 L 234.32 354.47 L 234.37 354.44 L 234.53 354.33 L 235.11 354.32 L 235.38 354.08 L 235.79 354.08 L 235.89 354.08 L 235.98 354.08 L 236.70 351.24 L 236.79 351.24 L 236.94 351.24 L 237.10 351.24 L 237.18 351.06 L 237.58 350.72 L 237.72 350.72 L 237.79 350.72 L 237.88 350.20 L 238.06 349.67 L 238.13 349.67 L 238.32 349.66 L 238.86 345.43 L 238.91 345.43 L 238.96 345.43 L 239.05 345.43 L 239.18 345.43 L 239.23 345.43 L 239.28 345.43 L 239.54 345.43 L 239.61 345.34 L 239.92 345.32 L 240.11 345.26 L 240.23 344.76 L 241.20 336.34 L 241.31 336.34 L 277.98 336.34 L 278.01 336.34 L 292.02 336.34 L 292.79 336.21 L 292.94 336.21 L 293.15 336.21 L 293.22 336.21 L 293.30 336.21 L 299.38 336.14 L 300.18 336.06 L 300.48 336.06 L 300.64 336.04 L 304.42 335.96 L 304.45 335.85 L 304.68 335.85 L 305.81 334.71 L 305.88 334.71 L 306.02 334.71 L 306.42 334.71 L 306.47 334.71 L 306.63 334.71 L 306.80 334.71 L 306.83 334.71 L 318.60 334.69 L 318.69 334.49 L 319.16 334.49 L 319.17 333.11 L 319.25 333.11 L 319.35 333.11 L 319.48 332.99 L 319.68 332.99 L 319.85 332.93 L 320.00 332.93 L 320.06 332.93 L 320.30 332.91 L 321.11 330.58 L 321.44 330.57 L 321.50 330.56 L 321.57 330.56 L 321.61 330.56 L 321.72 330.52 L 322.05 330.23 L 322.10 330.19 L 322.30 328.09 L 322.38 328.08 L 322.41 328.08 L 322.49 328.05 L 322.54 328.05 L 322.58 328.05 L 322.84 326.91 L 322.95 326.89 L 323.10 326.87 L 323.20 323.32 L 323.24 323.31 L 323.50 321.32 L 323.57 321.32 L 323.62 321.31 L 323.68 321.31 L 323.72 321.31 L 323.76 321.31 L 323.78 321.31 L 323.91 317.61 L 323.95 317.61 L 324.08 317.59 L 324.17 317.59 L 324.44 317.52 L 324.76 317.42 L 324.77 317.42 L 324.86 317.40 L 325.16 317.34 L 325.31 317.34 L 325.45 317.34 L 325.60 315.74 L 325.70 315.74 L 326.12 315.74 L 326.16 315.73 L 326.21 315.73 L 326.24 315.73 L 326.51 313.45 L 326.56 313.45 L 326.76 313.44 L 344.88 313.44 L 345.91 313.42 L 345.94 313.42 L 346.15 313.42 L 346.16 313.42 L 346.30 313.42 L 346.40 313.42 L 346.48 313.31 L 346.61 313.31 L 346.65 313.31 L 346.69 313.31 L 346.89 313.10 L 347.28 312.97 L 347.53 312.84 L 347.81 312.20 L 347.82 312.20 L 347.86 312.03 L 347.90 312.01 L 348.44 311.62 L 348.45 311.62 L 348.53 311.56 L 348.77 311.56 L 348.91 311.53 L 348.95 310.58 L 348.96 310.58 L 349.02 311.51 L 349.06 311.46 L 349.08 311.45 L 349.22 310.18 L 349.23 310.18 L 349.51 310.13 L 350.28 310.13 L 350.47 310.13 L 350.52 310.13 L 350.56 310.13 L 350.61 310.13 L 350.72 310.05 L 363.10 308.99 L 363.12 308.99 L 363.23 308.99 L 363.26 308.76 L 363.33 297.52 L 363.46 293.34 L 363.48 293.34 L 363.71 293.27 L 363.76 293.27 L 363.80 293.25 L 364.00 293.25 L 364.54 292.23 L 364.55 292.23 L 364.69 292.17 L 364.74 292.17 L 364.77 292.08 L 365.21 291.47 L 365.23 291.47 L 365.90 291.35 L 365.99 291.31 L 366.23 291.32 L 366.51 289.94 L 366.58 289.80 L 366.63 289.67 L 366.75 289.15 L 367.11 289.02 L 367.17 288.91 L 367.32 288.91 L 367.49 288.91 L 368.01 288.91 L 368.07 288.91 L 368.19 288.91 L 368.20 288.91 L 368.37 288.93 L 368.76 288.93 L 369.16 288.79 L 369.23 288.79 L 369.32 288.77 L 369.43 288.77 L 369.74 288.77 L 370.27 288.77 L 370.44 288.64 L 370.72 285.02 L 371.86 288.44 L 372.11 288.42 L 372.29 288.41 L 372.58 288.41 L 372.67 288.38 L 372.95 288.35 L 373.40 288.14 L 373.46 288.14 L 373.54 288.14 L 373.60 288.14 L 373.64 288.14 L 373.99 287.95 L 382.20 287.95 L 382.28 287.95 L 382.79 287.94 L 382.84 287.94 L 382.95 287.90 L 383.05 287.65 L 383.06 287.64 L 383.34 287.62 L 383.41 287.62 L 385.09 287.41 L 385.29 287.41 L 385.44 287.41 L 385.47 287.41 L 385.99 287.26 L 386.17 287.26 L 386.20 287.26 L 386.48 287.25 L 386.78 286.40 L 386.82 286.40 L 387.08 286.25 L 387.18 286.25 L 387.28 286.25 L 387.49 286.25 L 387.95 286.24 L 388.03 286.22 L 388.12 286.14 L 388.30 285.99 L 388.76 285.86 L 389.16 282.44 L 389.24 282.32 L 389.65 282.16 L 389.72 282.12 L 389.79 282.00 L 389.83 281.76 L 389.97 280.73 L 390.01 280.78 L 390.07 280.76 L 390.30 280.75 L 390.66 280.61 L 390.88 280.56 L 391.14 280.54 L 391.25 280.53 L 391.50 280.52 L 391.92 280.52 L 392.33 280.51 L 392.65 280.50 L 392.72 280.50 L 392.80 280.49 L 392.80 280.49 L 393.05 280.49 L 393.12 280.48 L 393.21 280.35 L 393.89 280.33 L 393.90 280.33 L 394.08 280.32 L 394.87 280.32 L 395.39 280.15 L 395.77 280.00 L 395.78 280.00 L 395.81 280.00 L 407.31 280.00 L 407.35 280.00 L 407.48 280.00 L 407.54 280.00 L 407.58 279.98 L 407.59 279.98 L 408.08 279.98 L 408.19 279.97 L 408.34 279.94 L 408.58 279.92 L 408.74 279.92 L 408.94 279.84 L 409.05 279.84 L 409.10 279.84 L 409.16 279.84 L 409.30 279.53 L 409.32 279.53 L 409.37 279.53 L 409.49 279.53 L 409.58 279.53 L 409.68 279.60 L 409.82 279.60 L 410.10 279.59 L 410.22 279.59 L 410.33 279.59 L 411.04 278.58 L 411.65 278.31 L 412.37 277.59 L 412.56 277.59 L 412.76 277.59 L 412.99 277.59 L 417.22 277.50 L 417.57 277.50 L 457.62 277.37 L 583.75 277.19 L 584.17 277.13 L 584.46 277.12 L 584.75 277.12 L 585.19 276.66 L 585.34 276.66 L 585.45 276.66 L 585.65 274.97 L 585.95 275.29 L 586.18 275.27 L 586.23 275.27 L 586.43 275.26 L 586.47 275.26 L 586.68 275.25 L 586.87 275.17 L 587.44 274.11 L 587.46 274.11 L 587.62 274.01 L 588.16 270.56 L 588.18 270.56 L 588.28 270.56 L 588.41 270.51 L 589.00 268.90 L 589.01 268.90 L 589.14 268.90 L 589.28 268.86 L 589.50 268.28 L 589.51 268.28 L 589.61 268.27 L 589.62 268.27 L 589.68 267.94 L 589.92 265.66 L 589.95 265.66 L 590.04 265.66 L 590.31 265.47 L 590.36 265.47 L 590.57 265.09 L 590.92 265.09 L 590.98 265.09 L 591.02 265.09 L 591.08 265.09 L 591.26 265.08 L 591.45 264.05 L 591.47 264.05 L 591.58 264.05 L 591.68 263.27 L 591.71 263.27 L 591.82 262.45 L 591.87 262.39 L 592.09 261.58 L 592.12 261.58 L 592.23 261.58 L 592.38 261.56 L 593.29 261.56 L 593.74 261.56 L 603.59 261.56 L 603.69 261.56 L 603.79 261.56 L 603.95 261.56 L 604.32 261.34 L 604.35 261.34 L 604.42 261.27 L 604.66 260.13 L 604.68 260.13 L 606.83 260.15 L 606.96 259.93 L 608.05 259.93 L 608.17 259.92 L 608.29 259.84 L 609.60 258.90 L 610.16 258.72 L 610.30 258.66 L 610.77 256.88 L 611.06 256.88 L 611.54 256.73 L 612.41 256.73 L 625.60 256.73 L 626.38 256.62 L 626.42 256.64 L 627.52 256.64 L 627.58 256.64 L 627.97 256.64 L 628.41 256.61 L 628.42 256.61 L 628.47 256.61 L 629.05 255.56 L 630.41 255.54 L 630.50 255.53 L 630.64 255.53 L 630.84 255.49 L 630.90 255.46 L 630.98 255.46 L 631.61 255.41 L 632.11 255.41 L 632.39 255.41 L 632.42 255.41 L 632.99 255.39 L 633.42 255.26 L 633.44 255.26 L 633.49 255.26 L 633.55 255.26 L 647.86 255.02 L 647.89 255.02 L 647.93 255.02 L 648.21 255.02 L 648.43 255.02 L 649.69 253.99 L 650.00 253.93"/>
	</g>
	<g id="poloto_plot2" class="poloto_plot poloto_imgs poloto_line poloto2 poloto_stroke" fill="none" stroke="black">
		<path d=" M 150.00 390.82 L 150.03 390.81 L 150.05 390.81 L 150.06 390.81 L 150.09 390.81 L 150.12 388.46 L 150.26 388.14 L 150.57 388.13 L 151.02 388.12 L 151.26 386.71 L 151.72 386.59 L 151.80 386.55 L 151.86 386.51 L 152.41 385.88 L 153.43 385.39 L 153.75 385.29 L 153.83 385.30 L 154.45 385.26 L 155.16 385.26 L 155.16 385.26 L 155.17 385.26 L 164.74 385.26 L 164.81 385.26 L 164.93 385.24 L 164.98 385.24 L 165.35 385.09 L 165.51 385.05 L 165.92 384.82 L 165.97 384.72 L 166.09 384.52 L 166.21 384.49 L 166.25 384.49 L 166.35 384.45 L 166.45 384.45 L 166.56 384.45 L 166.82 384.21 L 167.06 384.00 L 167.10 384.00 L 167.21 383.87 L 167.98 383.59 L 167.99 383.59 L 168.09 383.50 L 168.52 383.19 L 168.87 382.80 L 169.26 382.65 L 169.34 382.65 L 169.36 382.65 L 169.43 382.44 L 169.58 382.44 L 169.77 382.41 L 170.15 382.25 L 170.17 381.97 L 170.24 381.97 L 170.33 381.84 L 170.54 381.84 L 170.57 381.84 L 170.79 381.43 L 170.88 381.40 L 170.96 381.37 L 171.05 381.17 L 172.21 381.06 L 172.49 381.02 L 173.14 380.74 L 173.28 380.74 L 173.38 380.72 L 173.44 380.51 L 173.88 379.36 L 174.08 379.34 L 174.32 379.00 L 174.43 378.96 L 174.70 378.81 L 174.81 378.75 L 174.97 378.51 L 175.12 378.31 L 175.64 378.30 L 175.65 378.28 L 175.68 378.11 L 175.85 377.00 L 184.73 376.89 L 185.65 376.55 L 185.68 376.51 L 186.77 376.23 L 186.86 376.23 L 186.96 376.02 L 187.23 375.89 L 187.35 375.63 L 187.39 375.42 L 187.53 375.01 L 187.85 375.00 L 187.86 375.00 L 187.98 374.71 L 188.10 374.71 L 188.24 374.41 L 188.41 374.17 L 188.48 374.04 L 188.50 374.03 L 188.65 373.75 L 188.68 373.75 L 188.85 373.49 L 188.87 373.49 L 189.13 373.40 L 189.17 373.40 L 189.26 373.30 L 189.37 373.28 L 189.51 373.28 L 189.58 373.27 L 190.08 373.02 L 190.09 373.02 L 190.18 372.52 L 190.40 372.51 L 190.60 372.35 L 190.66 372.35 L 190.76 372.35 L 190.81 372.31 L 190.92 371.62 L 191.48 371.04 L 191.54 370.73 L 191.73 370.70 L 191.78 370.62 L 191.83 370.61 L 191.92 370.46 L 192.00 369.92 L 192.20 369.83 L 192.34 369.82 L 192.45 369.55 L 192.52 369.54 L 193.02 369.34 L 193.29 369.19 L 193.37 369.07 L 193.61 369.06 L 193.63 369.06 L 193.65 369.03 L 193.80 368.05 L 193.91 368.04 L 194.33 367.90 L 194.39 367.51 L 194.47 367.50 L 194.58 367.34 L 194.59 367.25 L 194.64 367.18 L 194.68 367.14 L 194.74 367.14 L 194.79 367.06 L 194.95 365.95 L 195.08 365.84 L 195.19 365.51 L 195.35 365.49 L 195.53 365.38 L 195.71 365.04 L 195.83 364.08 L 196.09 364.00 L 196.10 363.59 L 196.25 363.49 L 208.65 363.50 L 208.88 363.50 L 209.47 363.04 L 209.59 363.04 L 209.68 363.04 L 209.70 362.93 L 209.92 362.73 L 210.06 362.70 L 210.15 362.58 L 210.23 362.50 L 210.28 362.46 L 210.51 362.39 L 210.95 362.49 L 211.07 362.18 L 211.15 362.10 L 211.26 362.09 L 211.83 362.03 L 211.91 361.98 L 211.95 361.98 L 211.99 361.92 L 212.12 361.87 L 212.21 361.76 L 212.63 361.47 L 213.23 361.35 L 213.44 361.30 L 214.11 361.12 L 214.42 360.67 L 214.53 360.60 L 214.67 360.25 L 214.86 359.80 L 215.16 359.68 L 215.58 359.67 L 216.15 359.65 L 216.23 359.48 L 216.64 359.37 L 216.91 359.23 L 216.99 359.11 L 217.15 359.07 L 217.27 358.77 L 218.74 358.62 L 220.13 358.62 L 232.61 358.59 L 232.70 358.43 L 232.77 358.32 L 233.16 358.15 L 234.32 357.85 L 234.37 357.81 L 234.53 357.60 L 235.11 357.51 L 235.38 356.93 L 235.79 356.92 L 235.89 356.90 L 235.98 356.33 L 236.70 355.79 L 236.79 355.79 L 236.94 355.75 L 237.10 355.71 L 237.18 355.51 L 237.58 354.62 L 237.72 354.39 L 237.79 354.38 L 237.88 354.28 L 238.06 353.93 L 238.13 353.04 L 238.32 352.68 L 238.86 352.47 L 238.91 352.02 L 238.96 352.02 L 239.05 351.94 L 239.18 351.82 L 239.23 351.78 L 239.28 351.74 L 239.54 350.70 L 239.61 350.09 L 239.92 349.97 L 240.11 348.94 L 240.23 348.74 L 241.20 347.11 L 241.31 347.08 L 277.98 346.61 L 278.01 346.61 L 292.02 346.47 L 292.79 346.30 L 292.94 346.30 L 293.15 346.21 L 293.22 346.08 L 293.30 346.05 L 299.38 346.04 L 300.18 344.17 L 300.48 344.01 L 300.64 343.36 L 304.42 343.28 L 304.45 343.22 L 304.68 343.21 L 305.81 343.09 L 305.88 342.88 L 306.02 342.80 L 306.42 342.70 L 306.47 342.68 L 306.63 342.32 L 306.80 342.21 L 306.83 341.93 L 318.60 341.58 L 318.69 340.73 L 319.16 340.50 L 319.17 340.18 L 319.25 339.92 L 319.35 339.53 L 319.48 338.50 L 319.68 337.94 L 319.85 337.21 L 320.00 337.21 L 320.06 336.64 L 320.30 336.60 L 321.11 336.07 L 321.44 335.82 L 321.50 335.67 L 321.57 335.67 L 321.61 335.48 L 321.72 334.84 L 322.05 334.78 L 322.10 334.78 L 322.30 334.36 L 322.38 334.36 L 322.41 334.12 L 322.49 333.97 L 322.54 333.97 L 322.58 333.64 L 322.84 333.44 L 322.95 333.11 L 323.10 333.09 L 323.20 332.92 L 323.24 332.66 L 323.50 332.53 L 323.57 332.38 L 323.62 332.38 L 323.68 332.38 L 323.72 332.12 L 323.76 332.13 L 323.78 332.12 L 323.91 332.04 L 323.95 331.75 L 324.08 331.75 L 324.17 331.68 L 324.44 331.65 L 324.76 331.63 L 324.77 331.63 L 324.86 331.61 L 325.16 331.61 L 325.31 331.61 L 325.45 331.61 L 325.60 331.56 L 325.70 331.22 L 326.12 331.21 L 326.16 331.01 L 326.21 331.01 L 326.24 330.78 L 326.51 330.70 L 326.56 330.65 L 326.76 330.65 L 344.88 330.58 L 345.91 330.49 L 345.94 330.49 L 346.15 330.49 L 346.16 330.49 L 346.30 330.09 L 346.40 330.07 L 346.48 329.96 L 346.61 329.90 L 346.65 329.86 L 346.69 329.84 L 346.89 329.80 L 347.28 329.72 L 347.53 329.18 L 347.81 329.15 L 347.82 329.12 L 347.86 328.67 L 347.90 328.66 L 348.44 328.66 L 348.45 328.62 L 348.53 328.20 L 348.77 328.14 L 348.91 328.13 L 348.95 328.12 L 348.96 328.07 L 349.02 328.04 L 349.06 327.61 L 349.08 327.60 L 349.22 327.60 L 349.23 327.57 L 349.51 327.53 L 350.28 327.51 L 350.47 327.47 L 350.52 327.46 L 350.56 327.33 L 350.61 327.33 L 350.72 326.84 L 363.10 326.69 L 363.12 326.56 L 363.23 326.46 L 363.26 326.44 L 363.33 326.03 L 363.46 325.93 L 363.48 325.91 L 363.71 325.91 L 363.76 325.91 L 363.80 325.50 L 364.00 325.45 L 364.54 325.43 L 364.55 325.41 L 364.69 325.19 L 364.74 325.19 L 364.77 324.81 L 365.21 324.81 L 365.23 324.79 L 365.90 324.70 L 365.99 324.25 L 366.23 324.25 L 366.51 324.25 L 366.58 323.91 L 366.63 323.65 L 366.75 323.64 L 367.11 323.59 L 367.17 323.57 L 367.32 323.46 L 367.49 323.46 L 368.01 323.47 L 368.07 323.47 L 368.19 323.44 L 368.20 323.44 L 368.37 323.44 L 368.76 323.41 L 369.16 323.36 L 369.23 323.36 L 369.32 323.32 L 369.43 323.20 L 369.74 323.20 L 370.27 323.05 L 370.44 322.79 L 370.72 322.77 L 371.86 322.49 L 372.11 322.49 L 372.29 322.48 L 372.58 322.48 L 372.67 322.46 L 372.95 322.32 L 373.40 322.30 L 373.46 322.18 L 373.54 322.12 L 373.60 322.13 L 373.64 322.09 L 373.99 322.06 L 382.20 322.06 L 382.28 322.06 L 382.79 322.06 L 382.84 322.04 L 382.95 321.67 L 383.05 321.65 L 383.06 321.65 L 383.34 321.64 L 383.41 321.62 L 385.09 321.07 L 385.29 321.01 L 385.44 320.99 L 385.47 320.99 L 385.99 320.98 L 386.17 321.06 L 386.20 321.05 L 386.48 321.01 L 386.78 320.49 L 386.82 320.48 L 387.08 320.46 L 387.18 320.46 L 387.28 320.46 L 387.49 320.35 L 387.95 319.87 L 388.03 319.87 L 388.12 319.80 L 388.30 319.37 L 388.76 318.89 L 389.16 318.92 L 389.24 318.66 L 389.65 318.66 L 389.72 318.63 L 389.79 318.60 L 389.83 318.35 L 389.97 318.34 L 390.01 318.34 L 390.07 318.34 L 390.30 318.34 L 390.66 318.14 L 390.88 318.12 L 391.14 318.12 L 391.25 318.12 L 391.50 318.12 L 391.92 318.12 L 392.33 318.12 L 392.65 318.12 L 392.72 318.11 L 392.80 318.10 L 392.80 318.02 L 393.05 317.95 L 393.12 317.95 L 393.21 317.94 L 393.89 317.93 L 393.90 317.69 L 394.08 317.69 L 394.87 317.69 L 395.39 317.68 L 395.77 317.63 L 395.78 317.53 L 395.81 317.53 L 407.31 317.36 L 407.35 317.36 L 407.48 317.35 L 407.54 317.19 L 407.58 317.19 L 407.59 317.18 L 408.08 317.14 L 408.19 316.63 L 408.34 316.52 L 408.58 315.53 L 408.74 315.52 L 408.94 315.09 L 409.05 315.14 L 409.10 315.13 L 409.16 314.59 L 409.30 314.50 L 409.32 314.12 L 409.37 314.07 L 409.49 314.03 L 409.58 313.84 L 409.68 316.08 L 409.82 316.04 L 410.10 315.14 L 410.22 314.95 L 410.33 314.75 L 411.04 314.39 L 411.65 314.02 L 412.37 313.49 L 412.56 313.43 L 412.76 313.43 L 412.99 313.38 L 417.22 313.12 L 417.57 313.09 L 457.62 312.40 L 583.75 312.37 L 584.17 312.06 L 584.46 312.01 L 584.75 312.01 L 585.19 311.72 L 585.34 311.39 L 585.45 310.78 L 585.65 310.62 L 585.95 310.67 L 586.18 310.32 L 586.23 310.31 L 586.43 310.20 L 586.47 310.20 L 586.68 309.60 L 586.87 308.69 L 587.44 308.60 L 587.46 308.50 L 587.62 307.32 L 588.16 307.28 L 588.18 307.16 L 588.28 307.09 L 588.41 306.02 L 589.00 305.96 L 589.01 305.81 L 589.14 305.74 L 589.28 305.04 L 589.50 305.01 L 589.51 304.90 L 589.61 303.73 L 589.62 303.70 L 589.68 303.66 L 589.92 303.66 L 589.95 303.54 L 590.04 303.46 L 590.31 303.35 L 590.36 303.34 L 590.57 303.28 L 590.92 303.32 L 590.98 303.27 L 591.02 303.24 L 591.08 303.21 L 591.26 301.99 L 591.45 301.97 L 591.47 301.86 L 591.58 300.62 L 591.68 300.17 L 591.71 300.01 L 591.82 299.40 L 591.87 298.35 L 592.09 298.33 L 592.12 298.27 L 592.23 298.06 L 592.38 298.05 L 593.29 298.02 L 593.74 297.99 L 603.59 298.04 L 603.69 297.80 L 603.79 297.63 L 603.95 296.79 L 604.32 296.77 L 604.35 296.69 L 604.42 295.63 L 604.66 295.62 L 604.68 295.52 L 606.83 295.41 L 606.96 295.03 L 608.05 294.84 L 608.17 294.80 L 608.29 293.62 L 609.60 293.29 L 610.16 293.01 L 610.30 292.12 L 610.77 292.12 L 611.06 291.62 L 611.54 290.86 L 612.41 290.40 L 625.60 290.40 L 626.38 290.38 L 626.42 290.38 L 627.52 290.22 L 627.58 290.12 L 627.97 290.05 L 628.41 289.06 L 628.42 289.06 L 628.47 289.02 L 629.05 288.81 L 630.41 288.15 L 630.50 288.08 L 630.64 288.08 L 630.84 287.80 L 630.90 287.76 L 630.98 287.70 L 631.61 287.70 L 632.11 287.70 L 632.39 287.70 L 632.42 287.66 L 632.99 286.65 L 633.42 286.56 L 633.44 286.48 L 633.49 286.39 L 633.55 286.14 L 647.86 285.96 L 647.89 285.93 L 647.93 285.91 L 648.21 285.79 L 648.43 285.66 L 649.69 285.10 L 650.00 284.98"/>
	</g>
	<g class="poloto_legend poloto_imgs poloto_line poloto0 poloto_stroke"><line x1="680" x2="730" y1="81.25" y2="81.25"/></g>
	<g class="poloto_legend poloto_imgs poloto_line poloto1 poloto_stroke"><line x1="680" x2="730" y1="131.25" y2="131.25"/></g>
	<g class="poloto_legend poloto_imgs poloto_line poloto2 poloto_stroke"><line x1="680" x2="730" y1="181.25" y2="181.25"/></g>
	<text class="poloto_legend poloto_text poloto_line poloto0" x="675" y="100">total</text>
	<text class="poloto_legend poloto_text poloto_line poloto1" x="675" y="150">code</text>
	<text class="poloto_legend poloto_text poloto_line poloto2" x="675" y="200">docs</text>
	<text class="poloto_text poloto_name poloto_title" x="400.00" y="37.50">Workspace lines over time</text>
	<text class="poloto_text poloto_name poloto_x" x="400.00" y="640">date (JST)</text>
	<text class="poloto_text poloto_name poloto_y" x="37.50" y="250.00" transform="rotate(-90,37.50,250.00)">lines</text>
	<text class="poloto_text poloto_ticks poloto_y">
		<tspan x="135.00" y="400.00">0</tspan>
		<tspan x="135.00" y="312.70">50K</tspan>
		<tspan x="135.00" y="225.40">100K</tspan>
		<tspan x="135.00" y="138.10">150K</tspan>
	</text>
	<g class="poloto_imgs poloto_ticks poloto_y" stroke="black">
		<line x1="150.00" x2="144.00" y1="400.00" y2="400.00"/>
		<line x1="150.00" x2="144.00" y1="312.70" y2="312.70"/>
		<line x1="150.00" x2="144.00" y1="225.40" y2="225.40"/>
		<line x1="150.00" x2="144.00" y1="138.10" y2="138.10"/>
	</g>
	<g class="poloto_text poloto_ticks poloto_x">
		<text x="232.45" y="430.00" text-anchor="end" transform="rotate(-90 232.45 430.00)">2026-04-24 12:06</text>
		<text x="359.38" y="430.00" text-anchor="end" transform="rotate(-90 359.38 430.00)">2026-04-30 07:00</text>
		<text x="486.30" y="430.00" text-anchor="end" transform="rotate(-90 486.30 430.00)">2026-05-06 01:53</text>
		<text x="613.22" y="430.00" text-anchor="end" transform="rotate(-90 613.22 430.00)">2026-05-11 20:46</text>
	</g>
	<g class="poloto_imgs poloto_ticks poloto_x" stroke="black">
		<line x1="232.45" x2="232.45" y1="400.00" y2="405.00"/>
		<line x1="359.38" x2="359.38" y1="400.00" y2="405.00"/>
		<line x1="486.30" x2="486.30" y1="400.00" y2="405.00"/>
		<line x1="613.22" x2="613.22" y1="400.00" y2="405.00"/>
	</g>
	<path class="poloto_imgs poloto_ticks poloto_x" stroke="black" style="stroke-dasharray:12.692204397290368;stroke-dashoffset:-82.4543981787865;" d=" M 150.00 400.00 L 650.00 400.00"/>
	<path class="poloto_imgs poloto_ticks poloto_y" stroke="black" style="stroke-dasharray:8.729964730942488;stroke-dashoffset:-0;" d=" M 150.00 400.00 L 150.00 100.00"/>
</svg>

