<svg class="poloto" width="800" height="680" viewBox="0 0 800 680" xmlns="http://www.w3.org/2000/svg">
	<style>
.poloto{
  stroke-linecap:round;
  stroke-linejoin:round;
  font-family:Roboto,sans-serif;
  font-size:16px;
}
.poloto_background{fill:AliceBlue;}
.poloto_scatter{stroke-width:7}
.poloto_line{stroke-width:2}
.poloto_text{fill: black;}
.poloto_name{font-size:24px;dominant-baseline:auto;text-anchor:middle;}
.poloto_where{dominant-baseline:middle;text-anchor:start}
.poloto_text.poloto_legend{font-size:20px;dominant-baseline:middle;text-anchor:start;}
.poloto_text.poloto_ticks.poloto_y{dominant-baseline:middle;text-anchor:end}
.poloto_text.poloto_ticks.poloto_x{dominant-baseline:auto;text-anchor:middle}
.poloto_imgs.poloto_ticks{stroke: black;stroke-width:3;fill:none;stroke-dasharray:none}
.poloto_grid{stroke:gray;stroke-width:0.5}

.poloto0.poloto_stroke{stroke:blue;}
.poloto1.poloto_stroke{stroke:red;}
.poloto2.poloto_stroke{stroke:green;}
.poloto3.poloto_stroke{stroke:gold;}
.poloto4.poloto_stroke{stroke:aqua;}
.poloto5.poloto_stroke{stroke:lime;}
.poloto6.poloto_stroke{stroke:orange;}
.poloto7.poloto_stroke{stroke:chocolate;}
.poloto0.poloto_fill{fill:blue;}
.poloto1.poloto_fill{fill:red;}
.poloto2.poloto_fill{fill:green;}
.poloto3.poloto_fill{fill:gold;}
.poloto4.poloto_fill{fill:aqua;}
.poloto5.poloto_fill{fill:lime;}
.poloto6.poloto_fill{fill:orange;}
.poloto7.poloto_fill{fill:chocolate;}
	</style>
	<circle r="1e5" class="poloto_background" fill="white"/>
	<g id="poloto_plot0" class="poloto_plot poloto_imgs poloto_line poloto0 poloto_stroke" fill="none" stroke="black">
		<path d=" M 150.00 373.79 L 150.02 373.77 L 150.04 373.75 L 150.04 373.75 L 150.06 373.75 L 150.09 370.91 L 150.19 370.57 L 150.42 370.55 L 150.75 370.32 L 150.92 368.87 L 151.26 368.78 L 151.32 368.71 L 151.37 368.68 L 151.77 367.97 L 152.51 367.40 L 152.75 365.16 L 152.81 365.17 L 153.26 365.08 L 153.78 365.07 L 153.79 365.07 L 153.79 365.07 L 160.82 365.07 L 160.87 365.06 L 160.96 365.05 L 160.99 365.02 L 161.26 364.89 L 161.38 364.86 L 161.68 364.65 L 161.72 364.56 L 161.81 364.36 L 161.90 364.33 L 161.92 364.32 L 162.00 364.27 L 162.07 364.27 L 162.15 364.27 L 162.34 363.94 L 162.52 363.74 L 162.55 363.74 L 162.63 363.62 L 163.19 364.13 L 163.20 364.13 L 163.27 364.04 L 163.59 363.66 L 163.85 363.21 L 164.14 363.00 L 164.20 362.97 L 164.20 362.97 L 164.26 362.79 L 164.37 362.79 L 164.51 362.73 L 164.78 362.56 L 164.80 362.29 L 164.85 362.29 L 164.92 362.15 L 165.08 362.15 L 165.09 362.15 L 165.26 361.77 L 165.32 361.75 L 165.38 361.72 L 165.45 361.57 L 166.30 361.36 L 166.51 361.32 L 166.98 361.05 L 167.09 361.05 L 167.16 361.04 L 167.20 360.84 L 167.53 359.71 L 167.67 359.69 L 167.84 359.32 L 167.93 359.28 L 168.12 358.96 L 168.21 358.85 L 168.33 358.65 L 168.44 358.47 L 168.81 355.87 L 168.82 355.81 L 168.84 355.65 L 168.97 354.40 L 175.49 354.31 L 176.16 352.89 L 176.19 352.85 L 176.98 352.63 L 177.05 352.62 L 177.12 352.34 L 177.32 352.20 L 177.41 351.95 L 177.44 351.74 L 177.54 351.37 L 177.77 351.36 L 177.78 351.11 L 177.87 350.83 L 177.96 350.83 L 178.06 350.51 L 178.19 350.29 L 178.24 350.18 L 178.25 350.17 L 178.37 349.93 L 178.38 349.92 L 178.51 349.68 L 178.53 349.67 L 178.71 348.50 L 178.75 348.50 L 178.81 348.30 L 178.89 348.29 L 179.00 348.29 L 179.04 348.26 L 179.41 348.04 L 179.42 348.05 L 179.49 347.53 L 179.65 347.52 L 179.80 346.73 L 179.84 346.66 L 179.91 346.66 L 179.95 346.63 L 180.03 346.02 L 180.44 340.92 L 180.48 340.67 L 180.62 340.65 L 180.66 340.59 L 180.69 340.57 L 180.76 340.43 L 180.82 339.85 L 180.97 339.74 L 181.07 339.72 L 181.15 339.47 L 181.20 339.46 L 181.57 339.27 L 181.77 339.13 L 181.83 338.90 L 182.00 338.89 L 182.02 338.89 L 182.03 338.87 L 182.14 337.64 L 182.23 337.57 L 182.53 336.33 L 182.58 335.97 L 182.63 335.96 L 182.72 335.83 L 182.72 335.73 L 182.76 335.67 L 182.79 335.64 L 182.83 335.64 L 182.87 335.57 L 182.99 334.56 L 183.08 334.41 L 183.16 334.11 L 183.28 334.09 L 183.41 334.00 L 183.54 333.28 L 183.64 332.29 L 183.83 332.23 L 183.83 331.86 L 183.94 331.74 L 193.04 331.74 L 193.21 331.73 L 193.64 331.21 L 193.73 331.19 L 193.80 331.19 L 193.81 331.06 L 193.97 330.90 L 194.08 330.87 L 194.14 330.78 L 194.20 330.71 L 194.24 330.67 L 194.40 330.62 L 194.73 330.56 L 194.81 330.29 L 194.88 330.22 L 194.95 330.21 L 195.38 330.08 L 195.43 330.00 L 195.46 330.00 L 195.49 329.90 L 195.58 329.85 L 195.65 329.75 L 195.96 329.09 L 196.40 328.98 L 196.56 328.94 L 197.04 328.77 L 197.28 325.56 L 197.36 325.49 L 197.46 325.18 L 197.60 324.76 L 197.82 324.64 L 198.13 324.63 L 198.54 324.62 L 198.60 324.48 L 198.90 324.33 L 199.10 324.10 L 199.16 324.00 L 199.28 323.96 L 199.37 323.68 L 200.44 323.36 L 201.47 323.36 L 210.62 323.33 L 210.69 323.20 L 210.74 323.11 L 211.02 322.97 L 211.88 321.86 L 211.92 321.79 L 212.04 321.50 L 212.46 321.43 L 212.65 320.68 L 212.96 320.68 L 213.03 320.66 L 213.09 320.15 L 213.63 317.23 L 213.69 317.23 L 213.80 317.20 L 213.92 317.17 L 213.97 316.85 L 214.27 315.75 L 214.38 315.54 L 214.43 315.53 L 214.49 315.02 L 214.62 314.31 L 214.68 313.55 L 214.81 313.21 L 215.21 309.41 L 215.25 309.03 L 215.28 309.03 L 215.35 308.96 L 215.44 308.86 L 215.48 308.83 L 215.52 308.79 L 215.71 307.88 L 215.76 307.24 L 215.99 307.11 L 216.13 306.15 L 216.21 305.55 L 216.92 296.70 L 217.01 296.68 L 243.91 296.26 L 243.94 296.26 L 254.22 296.14 L 254.78 295.90 L 254.90 295.90 L 255.05 295.83 L 255.10 295.72 L 255.16 295.68 L 259.62 295.62 L 260.21 293.94 L 260.43 293.79 L 260.54 293.17 L 263.32 293.05 L 263.34 292.87 L 263.51 292.86 L 264.34 291.80 L 264.39 291.61 L 264.49 291.54 L 264.79 291.46 L 264.82 291.44 L 264.94 291.12 L 265.07 291.03 L 265.09 290.79 L 273.73 290.47 L 273.79 289.56 L 274.14 289.36 L 274.14 287.85 L 274.20 287.62 L 274.28 287.25 L 274.37 286.20 L 274.52 285.65 L 274.64 285.00 L 274.75 284.99 L 274.80 284.50 L 274.97 284.45 L 275.57 282.01 L 275.81 281.75 L 275.85 281.59 L 275.90 281.59 L 275.93 281.42 L 276.02 280.82 L 276.26 280.53 L 276.30 280.49 L 276.44 278.34 L 276.50 278.34 L 276.52 278.11 L 276.58 277.93 L 276.62 277.93 L 276.65 277.60 L 276.84 276.44 L 276.92 276.11 L 277.03 276.07 L 277.10 272.96 L 277.13 272.71 L 277.32 270.93 L 277.37 270.79 L 277.41 270.79 L 277.46 270.78 L 277.49 270.54 L 277.51 270.54 L 277.52 270.54 L 277.62 267.40 L 277.65 267.13 L 277.75 267.11 L 277.81 267.05 L 278.01 266.97 L 278.25 266.85 L 278.25 266.85 L 278.32 266.81 L 278.54 266.75 L 278.65 266.75 L 278.75 266.75 L 278.86 265.38 L 278.94 265.05 L 279.24 265.05 L 279.27 264.83 L 279.31 264.83 L 279.33 264.59 L 279.53 262.61 L 279.57 262.57 L 279.71 262.55 L 293.01 262.50 L 293.77 262.40 L 293.79 262.40 L 293.94 262.39 L 293.95 262.40 L 294.05 262.00 L 294.13 261.99 L 294.19 261.79 L 294.28 261.74 L 294.31 261.72 L 294.34 261.70 L 294.48 261.48 L 294.77 261.28 L 294.96 260.65 L 295.16 260.04 L 295.17 260.01 L 295.20 259.44 L 295.23 259.42 L 295.62 259.09 L 295.63 259.05 L 295.69 258.60 L 295.86 258.55 L 295.97 258.51 L 296.00 257.70 L 296.00 257.66 L 296.05 258.43 L 296.08 257.96 L 296.10 257.94 L 296.19 256.87 L 296.20 256.84 L 296.41 256.75 L 296.98 256.73 L 297.11 256.70 L 297.15 256.69 L 297.18 256.55 L 297.21 256.55 L 297.30 256.02 L 306.38 254.99 L 306.40 254.85 L 306.48 254.75 L 306.50 254.56 L 306.55 245.60 L 306.65 241.94 L 306.66 241.91 L 306.83 241.84 L 306.87 241.84 L 306.90 241.42 L 307.04 241.38 L 307.44 240.51 L 307.45 240.49 L 307.55 240.23 L 307.58 240.23 L 307.60 239.80 L 307.93 239.29 L 307.94 239.27 L 308.44 239.08 L 308.50 238.62 L 308.68 238.63 L 308.88 237.47 L 308.94 237.01 L 308.97 236.65 L 309.06 236.20 L 309.32 236.04 L 309.37 235.93 L 309.48 235.83 L 309.60 235.83 L 309.99 235.83 L 310.03 235.83 L 310.12 235.81 L 310.12 235.81 L 310.25 235.82 L 310.54 235.80 L 310.83 235.63 L 310.88 235.63 L 310.94 235.56 L 311.03 235.44 L 311.26 235.44 L 311.64 235.28 L 311.77 234.92 L 311.98 231.83 L 312.81 234.44 L 312.99 234.43 L 313.13 234.42 L 313.34 234.41 L 313.40 234.36 L 313.61 234.22 L 313.94 234.01 L 313.98 233.86 L 314.05 233.81 L 314.09 233.82 L 314.12 233.78 L 314.37 233.58 L 320.40 233.58 L 320.45 233.58 L 320.83 233.57 L 320.87 233.56 L 320.95 233.16 L 321.02 232.94 L 321.03 232.94 L 321.24 232.91 L 321.29 232.89 L 322.52 232.31 L 322.67 232.26 L 322.77 232.25 L 322.80 232.24 L 323.18 232.10 L 323.31 232.17 L 323.33 232.17 L 323.54 232.13 L 323.76 230.91 L 323.79 230.90 L 323.98 230.76 L 324.05 230.76 L 324.13 230.76 L 324.28 230.63 L 324.62 230.13 L 324.68 230.12 L 324.74 229.98 L 324.88 229.40 L 325.21 228.79 L 325.50 225.95 L 325.56 225.61 L 325.87 225.47 L 325.92 225.40 L 325.97 225.26 L 326.00 224.80 L 326.10 223.99 L 326.13 224.02 L 326.18 224.00 L 326.35 224.00 L 326.61 223.70 L 326.77 223.64 L 326.96 223.63 L 327.04 223.62 L 327.23 223.61 L 327.53 223.61 L 327.83 223.60 L 328.06 223.60 L 328.12 223.59 L 328.18 223.58 L 328.18 223.48 L 328.36 223.42 L 328.41 223.41 L 328.48 223.29 L 328.97 223.27 L 328.98 223.03 L 329.12 223.02 L 329.69 223.02 L 330.08 222.87 L 330.36 222.69 L 330.36 222.59 L 330.39 222.59 L 338.83 222.42 L 338.85 222.41 L 338.95 222.41 L 339.00 222.26 L 339.03 222.25 L 339.03 222.24 L 339.39 222.20 L 339.47 221.69 L 339.58 221.57 L 339.76 220.56 L 339.88 220.55 L 340.02 220.12 L 340.10 220.17 L 340.14 220.17 L 340.18 219.68 L 340.29 219.34 L 340.30 218.98 L 340.34 218.93 L 340.43 218.90 L 340.49 218.73 L 340.56 220.67 L 340.67 220.63 L 340.87 219.86 L 340.96 219.67 L 341.05 219.51 L 341.56 218.40 L 342.01 217.86 L 342.54 216.84 L 342.68 216.79 L 342.83 216.79 L 342.99 216.75 L 346.10 216.45 L 346.35 216.43 L 375.75 215.65 L 468.31 215.47 L 468.61 215.15 L 468.83 215.11 L 469.04 215.11 L 469.36 214.51 L 469.47 214.22 L 469.55 213.68 L 469.70 212.12 L 469.92 212.44 L 470.09 212.10 L 470.13 212.10 L 470.27 211.99 L 470.30 212.00 L 470.46 211.42 L 470.59 210.51 L 471.01 209.54 L 471.02 209.46 L 471.15 208.30 L 471.54 205.44 L 471.55 205.34 L 471.63 205.28 L 471.73 204.25 L 472.16 202.87 L 472.17 202.75 L 472.26 202.68 L 472.36 202.00 L 472.52 201.46 L 472.53 201.36 L 472.60 200.31 L 472.62 200.29 L 472.65 199.99 L 472.84 198.13 L 472.86 198.02 L 472.92 197.91 L 473.12 197.66 L 473.16 197.66 L 473.31 197.30 L 473.57 197.34 L 473.61 197.30 L 473.64 197.27 L 473.69 197.24 L 473.82 196.15 L 473.95 195.25 L 473.97 195.18 L 474.05 194.06 L 474.13 192.97 L 474.15 192.83 L 474.23 191.55 L 474.26 190.55 L 474.42 189.87 L 474.45 189.82 L 474.53 189.61 L 474.64 189.60 L 475.30 189.57 L 475.63 189.54 L 482.86 189.58 L 482.94 189.38 L 483.01 189.22 L 483.13 188.46 L 483.40 188.27 L 483.42 188.20 L 483.47 187.20 L 483.65 186.24 L 483.67 186.16 L 485.25 186.09 L 485.34 185.55 L 486.14 185.39 L 486.22 185.35 L 486.32 184.23 L 487.28 183.18 L 487.69 182.78 L 487.79 181.96 L 488.13 180.55 L 488.35 180.14 L 488.70 179.32 L 489.34 178.90 L 499.01 178.89 L 499.59 178.79 L 499.62 178.81 L 500.43 178.65 L 500.47 178.57 L 500.75 178.50 L 501.08 177.59 L 501.08 177.59 L 501.12 177.55 L 501.55 176.50 L 502.54 175.90 L 502.61 175.85 L 502.71 175.84 L 502.86 175.57 L 502.90 175.49 L 502.96 175.44 L 503.42 175.40 L 503.80 175.40 L 504.00 175.40 L 504.02 175.36 L 504.44 174.44 L 504.76 174.27 L 504.77 174.20 L 504.81 174.13 L 504.85 173.88 L 515.35 173.53 L 515.37 173.51 L 515.40 173.50 L 515.61 173.39 L 515.77 173.28 L 516.69 171.87 L 516.92 171.71 L 517.59 171.28 L 518.16 171.18 L 518.59 171.04 L 518.71 169.75 L 519.24 168.22 L 519.43 168.12 L 519.50 167.13 L 521.06 165.33 L 521.07 165.33 L 521.16 164.89 L 521.45 164.84 L 521.46 164.84 L 521.47 164.73 L 521.53 164.59 L 521.66 164.45 L 521.83 163.69 L 523.44 161.86 L 523.65 161.64 L 523.80 161.32 L 523.82 161.28 L 523.85 161.02 L 531.00 160.20 L 531.23 159.57 L 531.37 159.54 L 531.42 159.12 L 532.09 158.93 L 532.23 158.51 L 532.36 158.51 L 532.44 157.64 L 532.66 155.41 L 532.70 155.38 L 533.00 155.34 L 533.07 154.61 L 533.33 153.74 L 533.38 153.13 L 533.59 152.58 L 533.75 152.28 L 533.87 151.62 L 534.14 151.05 L 534.17 150.42 L 534.51 150.27 L 534.54 150.27 L 534.60 149.46 L 534.67 149.46 L 534.71 149.40 L 535.11 147.89 L 535.69 147.39 L 535.97 147.56 L 536.92 147.48 L 536.94 147.48 L 537.09 147.46 L 537.15 147.44 L 537.26 147.34 L 537.38 147.25 L 537.50 147.09 L 537.79 146.87 L 538.06 146.86 L 538.90 146.70 L 538.94 146.69 L 539.79 146.55 L 540.15 146.46 L 547.39 146.44 L 547.75 146.33 L 547.93 146.26 L 548.02 146.26 L 548.04 146.26 L 548.22 146.23 L 548.30 146.19 L 548.52 146.04 L 548.65 146.02 L 549.12 145.86 L 549.36 145.52 L 549.77 145.47 L 549.88 145.25 L 550.02 145.11 L 550.20 144.94 L 550.82 144.99 L 550.88 144.97 L 551.80 144.55 L 551.94 144.30 L 552.12 144.22 L 552.56 144.02 L 552.77 144.08 L 552.87 144.41 L 552.96 144.39 L 553.08 144.25 L 553.47 143.26 L 553.88 143.15 L 554.24 143.07 L 554.29 143.02 L 554.33 142.74 L 580.51 142.67 L 580.68 142.55 L 595.74 142.23 L 595.81 142.59 L 595.93 141.07 L 595.95 141.07 L 595.99 141.10 L 596.53 138.02 L 596.59 137.99 L 597.25 138.06 L 597.93 137.86 L 598.17 137.57 L 598.59 137.20 L 599.15 136.96 L 599.16 136.96 L 599.24 136.90 L 599.45 136.84 L 599.52 136.69 L 600.07 135.94 L 600.77 135.78 L 600.85 135.63 L 601.20 135.57 L 601.31 136.16 L 601.58 135.94 L 601.80 135.89 L 602.26 135.73 L 602.70 135.65 L 602.92 135.32 L 602.93 135.32 L 612.35 135.31 L 615.31 134.46 L 615.43 134.06 L 615.58 133.67 L 616.05 133.65 L 616.25 133.52 L 616.40 131.53 L 616.50 130.25 L 616.72 130.12 L 616.75 130.10 L 617.08 129.73 L 617.19 129.53 L 617.25 129.43 L 617.42 129.10 L 617.49 129.08 L 617.58 129.04 L 617.65 128.86 L 617.73 128.64 L 617.83 128.53 L 617.89 128.49 L 618.20 128.40 L 618.35 128.18 L 618.47 128.06 L 618.51 127.43 L 618.86 127.31 L 618.99 126.94 L 627.87 127.02 L 628.52 126.80 L 628.63 126.79 L 629.03 126.05 L 629.21 125.95 L 629.95 124.76 L 630.27 124.64 L 630.70 123.55 L 630.75 123.55 L 631.00 123.52 L 631.09 122.90 L 631.43 122.03 L 631.95 121.51 L 632.12 120.88 L 635.25 119.28 L 635.55 118.82 L 635.57 118.82 L 643.91 117.32 L 643.91 117.32 L 644.02 117.27 L 644.12 116.45 L 644.51 115.51 L 644.53 115.50 L 644.99 115.38 L 645.66 115.27 L 646.42 115.22 L 646.47 115.16 L 646.55 115.11 L 646.68 115.11 L 646.90 114.98 L 646.99 114.91 L 647.10 114.90 L 647.24 114.76 L 648.38 114.24 L 648.50 113.41 L 648.76 101.15 L 648.86 101.05 L 648.93 101.03 L 649.01 100.76 L 649.10 100.74 L 649.11 100.74 L 649.13 100.74 L 649.16 100.74 L 649.68 100.69 L 649.93 100.09 L 650.00 100.00"/>
	</g>
	<g id="poloto_plot1" class="poloto_plot poloto_imgs poloto_line poloto1 poloto_stroke" fill="none" stroke="black">
		<path d=" M 150.00 384.43 L 150.02 384.41 L 150.04 384.40 L 150.04 384.40 L 150.06 384.40 L 150.09 383.91 L 150.19 383.89 L 150.42 383.88 L 150.75 383.70 L 150.92 383.61 L 151.26 383.63 L 151.32 383.60 L 151.37 383.60 L 151.77 383.56 L 152.51 383.47 L 152.75 381.54 L 152.81 381.54 L 153.26 381.50 L 153.78 381.49 L 153.79 381.49 L 153.79 381.49 L 160.82 381.49 L 160.87 381.49 L 160.96 381.49 L 160.99 381.46 L 161.26 381.45 L 161.38 381.45 L 161.68 381.45 L 161.72 381.45 L 161.81 381.44 L 161.90 381.44 L 161.92 381.44 L 162.00 381.41 L 162.07 381.41 L 162.15 381.41 L 162.34 381.31 L 162.52 381.31 L 162.55 381.31 L 162.63 381.31 L 163.19 382.03 L 163.20 382.03 L 163.27 382.02 L 163.59 381.91 L 163.85 381.79 L 164.14 381.74 L 164.20 381.70 L 164.20 381.70 L 164.26 381.70 L 164.37 381.70 L 164.51 381.66 L 164.78 381.61 L 164.80 381.61 L 164.85 381.61 L 164.92 381.60 L 165.08 381.60 L 165.09 381.60 L 165.26 381.59 L 165.32 381.59 L 165.38 381.59 L 165.45 381.59 L 166.30 381.50 L 166.51 381.49 L 166.98 381.46 L 167.09 381.46 L 167.16 381.46 L 167.20 381.46 L 167.53 381.40 L 167.67 381.40 L 167.84 381.33 L 167.93 381.32 L 168.12 381.16 L 168.21 381.11 L 168.33 381.11 L 168.44 381.11 L 168.81 378.86 L 168.82 378.82 L 168.84 378.82 L 168.97 378.60 L 175.49 378.60 L 176.16 377.63 L 176.19 377.63 L 176.98 377.63 L 177.05 377.63 L 177.12 377.52 L 177.32 377.51 L 177.41 377.51 L 177.44 377.51 L 177.54 377.51 L 177.77 377.51 L 177.78 377.30 L 177.87 377.29 L 177.96 377.29 L 178.06 377.27 L 178.19 377.26 L 178.24 377.26 L 178.25 377.26 L 178.37 377.26 L 178.38 377.26 L 178.51 377.26 L 178.53 377.26 L 178.71 376.31 L 178.75 376.31 L 178.81 376.19 L 178.89 376.19 L 179.00 376.19 L 179.04 376.18 L 179.41 376.18 L 179.42 376.18 L 179.49 376.12 L 179.65 376.12 L 179.80 375.57 L 179.84 375.51 L 179.91 375.51 L 179.95 375.51 L 180.03 375.49 L 180.44 371.47 L 180.48 371.50 L 180.62 371.50 L 180.66 371.50 L 180.69 371.50 L 180.76 371.50 L 180.82 371.44 L 180.97 371.44 L 181.07 371.44 L 181.15 371.44 L 181.20 371.44 L 181.57 371.43 L 181.77 371.42 L 181.83 371.32 L 182.00 371.32 L 182.02 371.32 L 182.03 371.32 L 182.14 371.06 L 182.23 370.98 L 182.53 370.03 L 182.58 370.03 L 182.63 370.03 L 182.72 370.04 L 182.72 370.04 L 182.76 370.04 L 182.79 370.04 L 182.83 370.04 L 182.87 370.04 L 182.99 370.02 L 183.08 370.02 L 183.16 370.01 L 183.28 370.01 L 183.41 370.01 L 183.54 369.65 L 183.64 369.53 L 183.83 369.53 L 183.83 369.53 L 183.94 369.53 L 193.04 369.53 L 193.21 369.52 L 193.64 369.46 L 193.73 369.45 L 193.80 369.45 L 193.81 369.45 L 193.97 369.45 L 194.08 369.45 L 194.14 369.45 L 194.20 369.45 L 194.24 369.44 L 194.40 369.44 L 194.73 369.46 L 194.81 369.46 L 194.88 369.46 L 194.95 369.46 L 195.38 369.39 L 195.43 369.35 L 195.46 369.35 L 195.49 369.30 L 195.58 369.30 L 195.65 369.29 L 195.96 368.93 L 196.40 368.93 L 196.56 368.93 L 197.04 368.93 L 197.28 366.47 L 197.36 366.46 L 197.46 366.46 L 197.60 366.46 L 197.82 366.46 L 198.13 366.46 L 198.54 366.46 L 198.60 366.46 L 198.90 366.40 L 199.10 366.30 L 199.16 366.30 L 199.28 366.30 L 199.37 366.29 L 200.44 366.13 L 201.47 366.13 L 210.62 366.13 L 210.69 366.13 L 210.74 366.13 L 211.02 366.13 L 211.88 365.35 L 211.92 365.33 L 212.04 365.25 L 212.46 365.24 L 212.65 365.06 L 212.96 365.06 L 213.03 365.06 L 213.09 365.06 L 213.63 362.90 L 213.69 362.90 L 213.80 362.90 L 213.92 362.90 L 213.97 362.76 L 214.27 362.50 L 214.38 362.50 L 214.43 362.50 L 214.49 362.10 L 214.62 361.70 L 214.68 361.70 L 214.81 361.69 L 215.21 358.48 L 215.25 358.48 L 215.28 358.48 L 215.35 358.48 L 215.44 358.48 L 215.48 358.48 L 215.52 358.48 L 215.71 358.48 L 215.76 358.41 L 215.99 358.39 L 216.13 358.35 L 216.21 357.96 L 216.92 351.55 L 217.01 351.55 L 243.91 351.55 L 243.94 351.55 L 254.22 351.55 L 254.78 351.45 L 254.90 351.45 L 255.05 351.45 L 255.10 351.45 L 255.16 351.45 L 259.62 351.41 L 260.21 351.34 L 260.43 351.34 L 260.54 351.32 L 263.32 351.27 L 263.34 351.18 L 263.51 351.18 L 264.34 350.32 L 264.39 350.32 L 264.49 350.32 L 264.79 350.32 L 264.82 350.32 L 264.94 350.32 L 265.07 350.32 L 265.09 350.32 L 273.73 350.30 L 273.79 350.15 L 274.14 350.15 L 274.14 349.10 L 274.20 349.10 L 274.28 349.10 L 274.37 349.00 L 274.52 349.00 L 274.64 348.96 L 274.75 348.96 L 274.80 348.96 L 274.97 348.95 L 275.57 347.17 L 275.81 347.17 L 275.85 347.16 L 275.90 347.16 L 275.93 347.16 L 276.02 347.13 L 276.26 346.91 L 276.30 346.88 L 276.44 345.28 L 276.50 345.27 L 276.52 345.27 L 276.58 345.25 L 276.62 345.25 L 276.65 345.25 L 276.84 344.38 L 276.92 344.37 L 277.03 344.35 L 277.10 341.65 L 277.13 341.64 L 277.32 340.12 L 277.37 340.12 L 277.41 340.12 L 277.46 340.12 L 277.49 340.12 L 277.51 340.12 L 277.52 340.12 L 277.62 337.30 L 277.65 337.30 L 277.75 337.29 L 277.81 337.29 L 278.01 337.23 L 278.25 337.16 L 278.25 337.16 L 278.32 337.14 L 278.54 337.10 L 278.65 337.10 L 278.75 337.10 L 278.86 335.88 L 278.94 335.88 L 279.24 335.88 L 279.27 335.87 L 279.31 335.87 L 279.33 335.87 L 279.53 334.14 L 279.57 334.14 L 279.71 334.13 L 293.01 334.13 L 293.77 334.12 L 293.79 334.12 L 293.94 334.12 L 293.95 334.12 L 294.05 334.12 L 294.13 334.12 L 294.19 334.03 L 294.28 334.03 L 294.31 334.03 L 294.34 334.03 L 294.48 333.87 L 294.77 333.77 L 294.96 333.67 L 295.16 333.18 L 295.17 333.18 L 295.20 333.06 L 295.23 333.04 L 295.62 332.75 L 295.63 332.75 L 295.69 332.70 L 295.86 332.70 L 295.97 332.67 L 296.00 331.95 L 296.00 331.95 L 296.05 332.66 L 296.08 332.62 L 296.10 332.61 L 296.19 331.65 L 296.20 331.65 L 296.41 331.61 L 296.98 331.61 L 297.11 331.61 L 297.15 331.61 L 297.18 331.61 L 297.21 331.61 L 297.30 331.55 L 306.38 330.75 L 306.40 330.75 L 306.48 330.74 L 306.50 330.57 L 306.55 322.02 L 306.65 318.84 L 306.66 318.84 L 306.83 318.78 L 306.87 318.78 L 306.90 318.76 L 307.04 318.76 L 307.44 317.99 L 307.45 317.99 L 307.55 317.94 L 307.58 317.94 L 307.60 317.88 L 307.93 317.41 L 307.94 317.41 L 308.44 317.32 L 308.50 317.29 L 308.68 317.29 L 308.88 316.25 L 308.94 316.14 L 308.97 316.04 L 309.06 315.65 L 309.32 315.55 L 309.37 315.47 L 309.48 315.47 L 309.60 315.47 L 309.99 315.47 L 310.03 315.47 L 310.12 315.47 L 310.12 315.47 L 310.25 315.48 L 310.54 315.48 L 310.83 315.37 L 310.88 315.37 L 310.94 315.35 L 311.03 315.35 L 311.26 315.35 L 311.64 315.35 L 311.77 315.26 L 311.98 312.50 L 312.81 315.11 L 312.99 315.09 L 313.13 315.09 L 313.34 315.09 L 313.40 315.06 L 313.61 315.04 L 313.94 314.88 L 313.98 314.88 L 314.05 314.88 L 314.09 314.88 L 314.12 314.88 L 314.37 314.73 L 320.40 314.73 L 320.45 314.73 L 320.83 314.72 L 320.87 314.72 L 320.95 314.69 L 321.02 314.50 L 321.03 314.50 L 321.24 314.48 L 321.29 314.48 L 322.52 314.32 L 322.67 314.32 L 322.77 314.32 L 322.80 314.32 L 323.18 314.21 L 323.31 314.21 L 323.33 314.21 L 323.54 314.20 L 323.76 313.55 L 323.79 313.55 L 323.98 313.44 L 324.05 313.44 L 324.13 313.44 L 324.28 313.44 L 324.62 313.43 L 324.68 313.41 L 324.74 313.35 L 324.88 313.24 L 325.21 313.14 L 325.50 310.54 L 325.56 310.45 L 325.87 310.33 L 325.92 310.29 L 325.97 310.20 L 326.00 310.02 L 326.10 309.24 L 326.13 309.27 L 326.18 309.26 L 326.35 309.25 L 326.61 309.15 L 326.77 309.11 L 326.96 309.09 L 327.04 309.08 L 327.23 309.08 L 327.53 309.08 L 327.83 309.07 L 328.06 309.07 L 328.12 309.06 L 328.18 309.06 L 328.18 309.05 L 328.36 309.05 L 328.41 309.05 L 328.48 308.95 L 328.97 308.94 L 328.98 308.94 L 329.12 308.93 L 329.69 308.92 L 330.08 308.80 L 330.36 308.68 L 330.36 308.68 L 330.39 308.68 L 338.83 308.68 L 338.85 308.68 L 338.95 308.68 L 339.00 308.68 L 339.03 308.67 L 339.03 308.67 L 339.39 308.67 L 339.47 308.66 L 339.58 308.64 L 339.76 308.62 L 339.88 308.62 L 340.02 308.56 L 340.10 308.56 L 340.14 308.56 L 340.18 308.56 L 340.29 308.32 L 340.30 308.32 L 340.34 308.32 L 340.43 308.32 L 340.49 308.32 L 340.56 308.38 L 340.67 308.38 L 340.87 308.37 L 340.96 308.37 L 341.05 308.37 L 341.56 307.60 L 342.01 307.40 L 342.54 306.85 L 342.68 306.85 L 342.83 306.85 L 342.99 306.85 L 346.10 306.78 L 346.35 306.78 L 375.75 306.68 L 468.31 306.54 L 468.61 306.50 L 468.83 306.49 L 469.04 306.49 L 469.36 306.14 L 469.47 306.14 L 469.55 306.14 L 469.70 304.86 L 469.92 305.10 L 470.09 305.08 L 470.13 305.08 L 470.27 305.07 L 470.30 305.07 L 470.46 305.07 L 470.59 305.01 L 471.01 304.20 L 471.02 304.20 L 471.15 304.13 L 471.54 301.50 L 471.55 301.50 L 471.63 301.50 L 471.73 301.46 L 472.16 300.24 L 472.17 300.24 L 472.26 300.24 L 472.36 300.21 L 472.52 299.76 L 472.53 299.76 L 472.60 299.76 L 472.62 299.76 L 472.65 299.51 L 472.84 297.77 L 472.86 297.77 L 472.92 297.77 L 473.12 297.63 L 473.16 297.63 L 473.31 297.34 L 473.57 297.34 L 473.61 297.34 L 473.64 297.34 L 473.69 297.34 L 473.82 297.33 L 473.95 296.55 L 473.97 296.55 L 474.05 296.55 L 474.13 295.95 L 474.15 295.95 L 474.23 295.32 L 474.26 295.29 L 474.42 294.66 L 474.45 294.66 L 474.53 294.66 L 474.64 294.65 L 475.30 294.65 L 475.63 294.65 L 482.86 294.65 L 482.94 294.65 L 483.01 294.65 L 483.13 294.65 L 483.40 294.48 L 483.42 294.48 L 483.47 294.43 L 483.65 293.56 L 483.67 293.56 L 485.25 293.58 L 485.34 293.41 L 486.14 293.41 L 486.22 293.41 L 486.32 293.34 L 487.28 292.63 L 487.69 292.49 L 487.79 292.44 L 488.13 291.09 L 488.35 291.09 L 488.70 290.98 L 489.34 290.98 L 499.01 290.97 L 499.59 290.89 L 499.62 290.91 L 500.43 290.91 L 500.47 290.91 L 500.75 290.91 L 501.08 290.88 L 501.08 290.88 L 501.12 290.88 L 501.55 290.09 L 502.54 290.07 L 502.61 290.07 L 502.71 290.06 L 502.86 290.03 L 502.90 290.01 L 502.96 290.01 L 503.42 289.97 L 503.80 289.97 L 504.00 289.97 L 504.02 289.97 L 504.44 289.95 L 504.76 289.86 L 504.77 289.86 L 504.81 289.86 L 504.85 289.86 L 515.35 289.67 L 515.37 289.67 L 515.40 289.67 L 515.61 289.67 L 515.77 289.67 L 516.69 288.89 L 516.92 288.84 L 517.59 288.78 L 518.16 288.74 L 518.59 288.74 L 518.71 288.74 L 519.24 287.56 L 519.43 287.53 L 519.50 287.49 L 521.06 286.66 L 521.07 286.66 L 521.16 286.65 L 521.45 286.64 L 521.46 286.64 L 521.47 286.64 L 521.53 286.61 L 521.66 286.58 L 521.83 286.48 L 523.44 285.11 L 523.65 285.05 L 523.80 285.05 L 523.82 285.05 L 523.85 285.05 L 531.00 285.05 L 531.23 285.04 L 531.37 285.04 L 531.42 285.04 L 532.09 285.04 L 532.23 285.04 L 532.36 285.04 L 532.44 285.01 L 532.66 283.21 L 532.70 283.20 L 533.00 283.21 L 533.07 283.19 L 533.33 282.50 L 533.38 282.46 L 533.59 282.00 L 533.75 282.00 L 533.87 281.96 L 534.14 281.55 L 534.17 281.54 L 534.51 280.21 L 534.54 280.21 L 534.60 280.20 L 534.67 280.20 L 534.71 280.20 L 535.11 278.86 L 535.69 278.74 L 535.97 278.74 L 536.92 278.71 L 536.94 278.71 L 537.09 278.71 L 537.15 278.71 L 537.26 278.71 L 537.38 278.71 L 537.50 278.69 L 537.79 278.67 L 538.06 278.67 L 538.90 278.61 L 538.94 278.61 L 539.79 278.58 L 540.15 278.54 L 547.39 278.55 L 547.75 278.49 L 547.93 278.42 L 548.02 278.42 L 548.04 278.42 L 548.22 278.41 L 548.30 278.41 L 548.52 278.41 L 548.65 278.41 L 549.12 278.28 L 549.36 278.04 L 549.77 278.03 L 549.88 277.86 L 550.02 277.79 L 550.20 277.72 L 550.82 277.79 L 550.88 277.79 L 551.80 277.54 L 551.94 277.54 L 552.12 277.54 L 552.56 277.52 L 552.77 277.64 L 552.87 277.64 L 552.96 277.64 L 553.08 277.64 L 553.47 277.06 L 553.88 277.05 L 554.24 277.05 L 554.29 277.05 L 554.33 277.05 L 580.51 277.05 L 580.68 277.00 L 595.74 276.81 L 595.81 276.81 L 595.93 276.76 L 595.95 276.76 L 595.99 276.76 L 596.53 274.53 L 596.59 274.53 L 597.25 274.53 L 597.93 274.43 L 598.17 274.21 L 598.59 273.92 L 599.15 273.85 L 599.16 273.85 L 599.24 273.80 L 599.45 273.80 L 599.52 273.76 L 600.07 273.16 L 600.77 273.06 L 600.85 273.06 L 601.20 273.06 L 601.31 273.06 L 601.58 272.91 L 601.80 272.89 L 602.26 272.76 L 602.70 272.70 L 602.92 272.70 L 602.93 272.70 L 612.35 272.70 L 615.31 272.65 L 615.43 272.63 L 615.58 272.36 L 616.05 272.38 L 616.25 272.38 L 616.40 272.38 L 616.50 272.26 L 616.72 272.18 L 616.75 272.18 L 617.08 271.96 L 617.19 271.81 L 617.25 271.76 L 617.42 271.66 L 617.49 271.66 L 617.58 271.65 L 617.65 271.52 L 617.73 271.38 L 617.83 271.35 L 617.89 271.34 L 618.20 271.29 L 618.35 271.19 L 618.47 271.10 L 618.51 271.10 L 618.86 271.10 L 618.99 271.10 L 627.87 271.12 L 628.52 271.11 L 628.63 271.11 L 629.03 270.73 L 629.21 270.67 L 629.95 270.64 L 630.27 270.64 L 630.70 269.74 L 630.75 269.74 L 631.00 269.72 L 631.09 269.71 L 631.43 269.66 L 631.95 269.24 L 632.12 269.23 L 635.25 268.25 L 635.55 268.25 L 635.57 268.25 L 643.91 268.24 L 643.91 268.24 L 644.02 268.24 L 644.12 268.12 L 644.51 267.29 L 644.53 267.29 L 644.99 267.29 L 645.66 267.29 L 646.42 267.29 L 646.47 267.29 L 646.55 267.29 L 646.68 267.29 L 646.90 267.17 L 646.99 267.17 L 647.10 267.16 L 647.24 267.03 L 648.38 266.90 L 648.50 266.89 L 648.76 255.18 L 648.86 255.18 L 648.93 255.16 L 649.01 254.96 L 649.10 254.96 L 649.11 254.96 L 649.13 254.96 L 649.16 254.96 L 649.68 254.92 L 649.93 254.92 L 650.00 254.86"/>
	</g>
	<g id="poloto_plot2" class="poloto_plot poloto_imgs poloto_line poloto2 poloto_stroke" fill="none" stroke="black">
		<path d=" M 150.00 393.01 L 150.02 393.01 L 150.04 393.01 L 150.04 393.01 L 150.06 393.01 L 150.09 391.22 L 150.19 390.97 L 150.42 390.97 L 150.75 390.96 L 150.92 389.89 L 151.26 389.79 L 151.32 389.76 L 151.37 389.73 L 151.77 389.25 L 152.51 388.88 L 152.75 388.81 L 152.81 388.81 L 153.26 388.78 L 153.78 388.78 L 153.79 388.78 L 153.79 388.78 L 160.82 388.78 L 160.87 388.78 L 160.96 388.76 L 160.99 388.76 L 161.26 388.66 L 161.38 388.63 L 161.68 388.45 L 161.72 388.38 L 161.81 388.22 L 161.90 388.20 L 161.92 388.19 L 162.00 388.16 L 162.07 388.16 L 162.15 388.17 L 162.34 387.99 L 162.52 387.82 L 162.55 387.82 L 162.63 387.73 L 163.19 387.51 L 163.20 387.51 L 163.27 387.44 L 163.59 387.20 L 163.85 386.91 L 164.14 386.79 L 164.20 386.79 L 164.20 386.80 L 164.26 386.63 L 164.37 386.63 L 164.51 386.61 L 164.78 386.49 L 164.80 386.28 L 164.85 386.28 L 164.92 386.18 L 165.08 386.18 L 165.09 386.18 L 165.26 385.87 L 165.32 385.85 L 165.38 385.82 L 165.45 385.67 L 166.30 385.59 L 166.51 385.56 L 166.98 385.34 L 167.09 385.34 L 167.16 385.33 L 167.20 385.17 L 167.53 384.29 L 167.67 384.28 L 167.84 384.02 L 167.93 383.99 L 168.12 383.87 L 168.21 383.83 L 168.33 383.64 L 168.44 383.49 L 168.81 383.49 L 168.82 383.47 L 168.84 383.35 L 168.97 382.50 L 175.49 382.41 L 176.16 382.16 L 176.19 382.12 L 176.98 381.91 L 177.05 381.91 L 177.12 381.75 L 177.32 381.65 L 177.41 381.46 L 177.44 381.30 L 177.54 380.98 L 177.77 380.98 L 177.78 380.98 L 177.87 380.76 L 177.96 380.75 L 178.06 380.52 L 178.19 380.34 L 178.24 380.24 L 178.25 380.24 L 178.37 380.03 L 178.38 380.02 L 178.51 379.83 L 178.53 379.82 L 178.71 379.76 L 178.75 379.76 L 178.81 379.68 L 178.89 379.67 L 179.00 379.67 L 179.04 379.66 L 179.41 379.47 L 179.42 379.47 L 179.49 379.09 L 179.65 379.08 L 179.80 378.96 L 179.84 378.96 L 179.91 378.96 L 179.95 378.93 L 180.03 378.40 L 180.44 377.96 L 180.48 377.72 L 180.62 377.70 L 180.66 377.64 L 180.69 377.63 L 180.76 377.52 L 180.82 377.11 L 180.97 377.04 L 181.07 377.03 L 181.15 376.83 L 181.20 376.82 L 181.57 376.67 L 181.77 376.56 L 181.83 376.46 L 182.00 376.45 L 182.02 376.45 L 182.03 376.43 L 182.14 375.69 L 182.23 375.68 L 182.53 375.57 L 182.58 375.27 L 182.63 375.27 L 182.72 375.15 L 182.72 375.07 L 182.76 375.02 L 182.79 374.99 L 182.83 374.99 L 182.87 374.93 L 182.99 374.09 L 183.08 374.01 L 183.16 373.75 L 183.28 373.74 L 183.41 373.66 L 183.54 373.39 L 183.64 372.66 L 183.83 372.61 L 183.83 372.30 L 183.94 372.22 L 193.04 372.22 L 193.21 372.22 L 193.64 371.88 L 193.73 371.88 L 193.80 371.88 L 193.81 371.79 L 193.97 371.64 L 194.08 371.61 L 194.14 371.52 L 194.20 371.46 L 194.24 371.43 L 194.40 371.38 L 194.73 371.45 L 194.81 371.22 L 194.88 371.16 L 194.95 371.15 L 195.38 371.11 L 195.43 371.07 L 195.46 371.07 L 195.49 371.02 L 195.58 370.98 L 195.65 370.90 L 195.96 370.68 L 196.40 370.59 L 196.56 370.55 L 197.04 370.41 L 197.28 370.07 L 197.36 370.01 L 197.46 369.75 L 197.60 369.40 L 197.82 369.31 L 198.13 369.31 L 198.54 369.29 L 198.60 369.17 L 198.90 369.08 L 199.10 368.97 L 199.16 368.89 L 199.28 368.85 L 199.37 368.62 L 200.44 368.51 L 201.47 368.51 L 210.62 368.49 L 210.69 368.36 L 210.74 368.28 L 211.02 368.15 L 211.88 367.92 L 211.92 367.89 L 212.04 367.73 L 212.46 367.67 L 212.65 367.23 L 212.96 367.22 L 213.03 367.20 L 213.09 366.76 L 213.63 366.36 L 213.69 366.35 L 213.80 366.33 L 213.92 366.29 L 213.97 366.14 L 214.27 365.47 L 214.38 365.29 L 214.43 365.28 L 214.49 365.21 L 214.62 364.94 L 214.68 364.27 L 214.81 363.99 L 215.21 363.83 L 215.25 363.49 L 215.28 363.49 L 215.35 363.43 L 215.44 363.33 L 215.48 363.31 L 215.52 363.28 L 215.71 362.49 L 215.76 362.02 L 215.99 361.93 L 216.13 361.14 L 216.21 360.99 L 216.92 359.75 L 217.01 359.73 L 243.91 359.37 L 243.94 359.37 L 254.22 359.27 L 254.78 359.14 L 254.90 359.14 L 255.05 359.07 L 255.10 358.97 L 255.16 358.95 L 259.62 358.94 L 260.21 357.51 L 260.43 357.39 L 260.54 356.90 L 263.32 356.84 L 263.34 356.79 L 263.51 356.78 L 264.34 356.69 L 264.39 356.53 L 264.49 356.47 L 264.79 356.40 L 264.82 356.38 L 264.94 356.10 L 265.07 356.02 L 265.09 355.81 L 273.73 355.54 L 273.79 354.89 L 274.14 354.72 L 274.14 354.48 L 274.20 354.28 L 274.28 353.99 L 274.37 353.20 L 274.52 352.77 L 274.64 352.22 L 274.75 352.21 L 274.80 351.79 L 274.97 351.76 L 275.57 351.35 L 275.81 351.16 L 275.85 351.05 L 275.90 351.04 L 275.93 350.90 L 276.02 350.42 L 276.26 350.37 L 276.30 350.37 L 276.44 350.05 L 276.50 350.05 L 276.52 349.87 L 276.58 349.76 L 276.62 349.75 L 276.65 349.50 L 276.84 349.35 L 276.92 349.10 L 277.03 349.09 L 277.10 348.95 L 277.13 348.76 L 277.32 348.66 L 277.37 348.54 L 277.41 348.54 L 277.46 348.54 L 277.49 348.34 L 277.51 348.35 L 277.52 348.35 L 277.62 348.28 L 277.65 348.06 L 277.75 348.06 L 277.81 348.01 L 278.01 347.99 L 278.25 347.97 L 278.25 347.97 L 278.32 347.95 L 278.54 347.95 L 278.65 347.95 L 278.75 347.95 L 278.86 347.92 L 278.94 347.66 L 279.24 347.66 L 279.27 347.50 L 279.31 347.50 L 279.33 347.33 L 279.53 347.27 L 279.57 347.22 L 279.71 347.22 L 293.01 347.18 L 293.77 347.10 L 293.79 347.10 L 293.94 347.10 L 293.95 347.10 L 294.05 346.80 L 294.13 346.79 L 294.19 346.70 L 294.28 346.65 L 294.31 346.63 L 294.34 346.61 L 294.48 346.58 L 294.77 346.52 L 294.96 346.11 L 295.16 346.09 L 295.17 346.06 L 295.20 345.72 L 295.23 345.71 L 295.62 345.71 L 295.63 345.68 L 295.69 345.36 L 295.86 345.32 L 295.97 345.31 L 296.00 345.30 L 296.00 345.27 L 296.05 345.24 L 296.08 344.92 L 296.10 344.91 L 296.19 344.91 L 296.20 344.88 L 296.41 344.85 L 296.98 344.84 L 297.11 344.81 L 297.15 344.80 L 297.18 344.70 L 297.21 344.70 L 297.30 344.33 L 306.38 344.22 L 306.40 344.11 L 306.48 344.04 L 306.50 344.03 L 306.55 343.71 L 306.65 343.64 L 306.66 343.62 L 306.83 343.62 L 306.87 343.62 L 306.90 343.30 L 307.04 343.27 L 307.44 343.26 L 307.45 343.24 L 307.55 343.07 L 307.58 343.07 L 307.60 342.79 L 307.93 342.79 L 307.94 342.77 L 308.44 342.70 L 308.50 342.35 L 308.68 342.35 L 308.88 342.35 L 308.94 342.10 L 308.97 341.90 L 309.06 341.89 L 309.32 341.85 L 309.37 341.84 L 309.48 341.76 L 309.60 341.76 L 309.99 341.76 L 310.03 341.76 L 310.12 341.74 L 310.12 341.74 L 310.25 341.74 L 310.54 341.72 L 310.83 341.68 L 310.88 341.68 L 310.94 341.65 L 311.03 341.55 L 311.26 341.55 L 311.64 341.44 L 311.77 341.25 L 311.98 341.23 L 312.81 341.02 L 312.99 341.02 L 313.13 341.01 L 313.34 341.01 L 313.40 340.99 L 313.61 340.89 L 313.94 340.87 L 313.98 340.78 L 314.05 340.73 L 314.09 340.74 L 314.12 340.71 L 314.37 340.69 L 320.40 340.69 L 320.45 340.69 L 320.83 340.69 L 320.87 340.68 L 320.95 340.39 L 321.02 340.38 L 321.03 340.38 L 321.24 340.37 L 321.29 340.36 L 322.52 339.93 L 322.67 339.89 L 322.77 339.88 L 322.80 339.88 L 323.18 339.87 L 323.31 339.93 L 323.33 339.92 L 323.54 339.89 L 323.76 339.49 L 323.79 339.48 L 323.98 339.47 L 324.05 339.47 L 324.13 339.47 L 324.28 339.39 L 324.62 339.03 L 324.68 339.03 L 324.74 338.97 L 324.88 338.64 L 325.21 338.27 L 325.50 338.30 L 325.56 338.10 L 325.87 338.10 L 325.92 338.08 L 325.97 338.06 L 326.00 337.87 L 326.10 337.86 L 326.13 337.86 L 326.18 337.86 L 326.35 337.86 L 326.61 337.71 L 326.77 337.69 L 326.96 337.69 L 327.04 337.69 L 327.23 337.69 L 327.53 337.69 L 327.83 337.69 L 328.06 337.69 L 328.12 337.68 L 328.18 337.68 L 328.18 337.61 L 328.36 337.56 L 328.41 337.56 L 328.48 337.55 L 328.97 337.55 L 328.98 337.36 L 329.12 337.36 L 329.69 337.36 L 330.08 337.36 L 330.36 337.32 L 330.36 337.24 L 330.39 337.24 L 338.83 337.12 L 338.85 337.11 L 338.95 337.10 L 339.00 336.99 L 339.03 336.99 L 339.03 336.98 L 339.39 336.94 L 339.47 336.56 L 339.58 336.47 L 339.76 335.72 L 339.88 335.71 L 340.02 335.38 L 340.10 335.42 L 340.14 335.42 L 340.18 335.01 L 340.29 334.93 L 340.30 334.65 L 340.34 334.61 L 340.43 334.58 L 340.49 334.44 L 340.56 336.14 L 340.67 336.11 L 340.87 335.43 L 340.96 335.28 L 341.05 335.12 L 341.56 334.85 L 342.01 334.57 L 342.54 334.17 L 342.68 334.12 L 342.83 334.12 L 342.99 334.09 L 346.10 333.89 L 346.35 333.87 L 375.75 333.34 L 468.31 333.32 L 468.61 333.08 L 468.83 333.04 L 469.04 333.04 L 469.36 332.82 L 469.47 332.57 L 469.55 332.11 L 469.70 331.98 L 469.92 332.02 L 470.09 331.75 L 470.13 331.75 L 470.27 331.66 L 470.30 331.66 L 470.46 331.21 L 470.59 330.51 L 471.01 330.44 L 471.02 330.37 L 471.15 329.47 L 471.54 329.44 L 471.55 329.35 L 471.63 329.30 L 471.73 328.48 L 472.16 328.44 L 472.17 328.33 L 472.26 328.27 L 472.36 327.73 L 472.52 327.72 L 472.53 327.63 L 472.60 326.74 L 472.62 326.72 L 472.65 326.69 L 472.84 326.69 L 472.86 326.60 L 472.92 326.53 L 473.12 326.45 L 473.16 326.44 L 473.31 326.40 L 473.57 326.43 L 473.61 326.39 L 473.64 326.37 L 473.69 326.34 L 473.82 325.42 L 473.95 325.40 L 473.97 325.32 L 474.05 324.37 L 474.13 324.03 L 474.15 323.91 L 474.23 323.45 L 474.26 322.64 L 474.42 322.63 L 474.45 322.59 L 474.53 322.43 L 474.64 322.42 L 475.30 322.40 L 475.63 322.38 L 482.86 322.41 L 482.94 322.23 L 483.01 322.10 L 483.13 321.46 L 483.40 321.45 L 483.42 321.38 L 483.47 320.58 L 483.65 320.57 L 483.67 320.49 L 485.25 320.41 L 485.34 320.12 L 486.14 319.98 L 486.22 319.95 L 486.32 319.05 L 487.28 318.79 L 487.69 318.58 L 487.79 317.90 L 488.13 317.90 L 488.35 317.53 L 488.70 316.95 L 489.34 316.60 L 499.01 316.60 L 499.59 316.59 L 499.62 316.59 L 500.43 316.46 L 500.47 316.38 L 500.75 316.33 L 501.08 315.58 L 501.08 315.58 L 501.12 315.54 L 501.55 315.39 L 502.54 314.89 L 502.61 314.83 L 502.71 314.83 L 502.86 314.62 L 502.90 314.59 L 502.96 314.55 L 503.42 314.54 L 503.80 314.54 L 504.00 314.54 L 504.02 314.51 L 504.44 313.75 L 504.76 313.68 L 504.77 313.62 L 504.81 313.55 L 504.85 313.36 L 515.35 313.21 L 515.37 313.20 L 515.40 313.18 L 515.61 313.09 L 515.77 312.99 L 516.69 312.56 L 516.92 312.47 L 517.59 312.15 L 518.16 312.10 L 518.59 311.96 L 518.71 310.84 L 519.24 310.65 L 519.43 310.59 L 519.50 309.78 L 521.06 309.00 L 521.07 309.00 L 521.16 308.64 L 521.45 308.60 L 521.46 308.60 L 521.47 308.51 L 521.53 308.41 L 521.66 308.33 L 521.83 307.78 L 523.44 307.49 L 523.65 307.36 L 523.80 307.05 L 523.82 307.02 L 523.85 306.83 L 531.00 306.12 L 531.23 305.61 L 531.37 305.59 L 531.42 305.25 L 532.09 305.10 L 532.23 304.74 L 532.36 304.74 L 532.44 303.98 L 532.66 303.80 L 532.70 303.78 L 533.00 303.74 L 533.07 303.12 L 533.33 303.04 L 533.38 302.55 L 533.59 302.50 L 533.75 302.22 L 533.87 301.67 L 534.14 301.56 L 534.17 301.01 L 534.51 302.26 L 534.54 302.26 L 534.60 301.55 L 534.67 301.55 L 534.71 301.49 L 535.11 301.42 L 535.69 301.13 L 535.97 301.28 L 536.92 301.26 L 536.94 301.25 L 537.09 301.24 L 537.15 301.22 L 537.26 301.13 L 537.38 301.04 L 537.50 300.91 L 537.79 300.73 L 538.06 300.71 L 538.90 300.63 L 538.94 300.62 L 539.79 300.53 L 540.15 300.47 L 547.39 300.44 L 547.75 300.40 L 547.93 300.40 L 548.02 300.40 L 548.04 300.40 L 548.22 300.39 L 548.30 300.36 L 548.52 300.23 L 548.65 300.21 L 549.12 300.20 L 549.36 300.14 L 549.77 300.10 L 549.88 300.08 L 550.02 300.02 L 550.20 299.94 L 550.82 299.90 L 550.88 299.89 L 551.80 299.75 L 551.94 299.53 L 552.12 299.45 L 552.56 299.32 L 552.77 299.24 L 552.87 299.56 L 552.96 299.55 L 553.08 299.43 L 553.47 299.14 L 553.88 299.06 L 554.24 299.00 L 554.29 298.96 L 554.33 298.75 L 580.51 298.70 L 580.68 298.64 L 595.74 298.58 L 595.81 298.90 L 595.93 297.63 L 595.95 297.63 L 595.99 297.66 L 596.53 297.17 L 596.59 297.15 L 597.25 297.20 L 597.93 297.15 L 598.17 297.11 L 598.59 297.06 L 599.15 296.92 L 599.16 296.92 L 599.24 296.90 L 599.45 296.86 L 599.52 296.76 L 600.07 296.69 L 600.77 296.65 L 600.85 296.52 L 601.20 296.45 L 601.31 297.01 L 601.58 296.96 L 601.80 296.94 L 602.26 296.91 L 602.70 296.91 L 602.92 296.65 L 602.93 296.65 L 612.35 296.63 L 615.31 295.96 L 615.43 295.63 L 615.58 295.54 L 616.05 295.51 L 616.25 295.39 L 616.40 293.70 L 616.50 292.79 L 616.72 292.76 L 616.75 292.74 L 617.08 292.62 L 617.19 292.58 L 617.25 292.53 L 617.42 292.32 L 617.49 292.31 L 617.58 292.28 L 617.65 292.23 L 617.73 292.18 L 617.83 292.10 L 617.89 292.07 L 618.20 292.04 L 618.35 291.95 L 618.47 291.92 L 618.51 291.37 L 618.86 291.25 L 618.99 290.95 L 627.87 291.01 L 628.52 290.83 L 628.63 290.83 L 629.03 290.50 L 629.21 290.47 L 629.95 289.47 L 630.27 289.37 L 630.70 289.25 L 630.75 289.25 L 631.00 289.24 L 631.09 288.72 L 631.43 288.03 L 631.95 287.95 L 632.12 287.42 L 635.25 287.04 L 635.55 286.65 L 635.57 286.65 L 643.91 285.33 L 643.91 285.33 L 644.02 285.28 L 644.12 284.70 L 644.51 284.65 L 644.53 284.64 L 644.99 284.53 L 645.66 284.42 L 646.42 284.38 L 646.47 284.32 L 646.55 284.27 L 646.68 284.27 L 646.90 284.27 L 646.99 284.21 L 647.10 284.21 L 647.24 284.21 L 648.38 283.90 L 648.50 283.18 L 648.76 283.05 L 648.86 282.96 L 648.93 282.95 L 649.01 282.89 L 649.10 282.87 L 649.11 282.87 L 649.13 282.87 L 649.16 282.87 L 649.68 282.86 L 649.93 282.35 L 650.00 282.34"/>
	</g>
	<g class="poloto_legend poloto_imgs poloto_line poloto0 poloto_stroke"><line x1="680" x2="730" y1="81.25" y2="81.25"/></g>
	<g class="poloto_legend poloto_imgs poloto_line poloto1 poloto_stroke"><line x1="680" x2="730" y1="131.25" y2="131.25"/></g>
	<g class="poloto_legend poloto_imgs poloto_line poloto2 poloto_stroke"><line x1="680" x2="730" y1="181.25" y2="181.25"/></g>
	<text class="poloto_legend poloto_text poloto_line poloto0" x="675" y="100">total</text>
	<text class="poloto_legend poloto_text poloto_line poloto1" x="675" y="150">code</text>
	<text class="poloto_legend poloto_text poloto_line poloto2" x="675" y="200">docs</text>
	<text class="poloto_text poloto_name poloto_title" x="400.00" y="37.50">Workspace lines over time</text>
	<text class="poloto_text poloto_name poloto_x" x="400.00" y="640">date (JST)</text>
	<text class="poloto_text poloto_name poloto_y" x="37.50" y="250.00" transform="rotate(-90,37.50,250.00)">lines</text>
	<text class="poloto_text poloto_ticks poloto_y">
		<tspan x="135.00" y="400.00">0</tspan>
		<tspan x="135.00" y="333.57">50K</tspan>
		<tspan x="135.00" y="267.13">100K</tspan>
		<tspan x="135.00" y="200.70">150K</tspan>
		<tspan x="135.00" y="134.27">200K</tspan>
	</text>
	<g class="poloto_imgs poloto_ticks poloto_y" stroke="black">
		<line x1="150.00" x2="144.00" y1="400.00" y2="400.00"/>
		<line x1="150.00" x2="144.00" y1="333.57" y2="333.57"/>
		<line x1="150.00" x2="144.00" y1="267.13" y2="267.13"/>
		<line x1="150.00" x2="144.00" y1="200.70" y2="200.70"/>
		<line x1="150.00" x2="144.00" y1="134.27" y2="134.27"/>
	</g>
	<g class="poloto_text poloto_ticks poloto_x">
		<text x="210.51" y="430.00" text-anchor="end" transform="rotate(-90 210.51 430.00)">2026-04-24 12:06</text>
		<text x="303.65" y="430.00" text-anchor="end" transform="rotate(-90 303.65 430.00)">2026-04-30 07:00</text>
		<text x="396.79" y="430.00" text-anchor="end" transform="rotate(-90 396.79 430.00)">2026-05-06 01:53</text>
		<text x="489.93" y="430.00" text-anchor="end" transform="rotate(-90 489.93 430.00)">2026-05-11 20:46</text>
		<text x="583.07" y="430.00" text-anchor="end" transform="rotate(-90 583.07 430.00)">2026-05-17 15:40</text>
	</g>
	<g class="poloto_imgs poloto_ticks poloto_x" stroke="black">
		<line x1="210.51" x2="210.51" y1="400.00" y2="405.00"/>
		<line x1="303.65" x2="303.65" y1="400.00" y2="405.00"/>
		<line x1="396.79" x2="396.79" y1="400.00" y2="405.00"/>
		<line x1="489.93" x2="489.93" y1="400.00" y2="405.00"/>
		<line x1="583.07" x2="583.07" y1="400.00" y2="405.00"/>
	</g>
	<path class="poloto_imgs poloto_ticks poloto_x" stroke="black" style="stroke-dasharray:9.314102072126916;stroke-dashoffset:-60.50869154749671;" d=" M 150.00 400.00 L 650.00 400.00"/>
	<path class="poloto_imgs poloto_ticks poloto_y" stroke="black" style="stroke-dasharray:6.643311735188736;stroke-dashoffset:-0;" d=" M 150.00 400.00 L 150.00 100.00"/>
</svg>

