<svg class="poloto" width="800" height="680" viewBox="0 0 800 680" xmlns="http://www.w3.org/2000/svg">
	<style>
.poloto{
  stroke-linecap:round;
  stroke-linejoin:round;
  font-family:Roboto,sans-serif;
  font-size:16px;
}
.poloto_background{fill:AliceBlue;}
.poloto_scatter{stroke-width:7}
.poloto_line{stroke-width:2}
.poloto_text{fill: black;}
.poloto_name{font-size:24px;dominant-baseline:auto;text-anchor:middle;}
.poloto_where{dominant-baseline:middle;text-anchor:start}
.poloto_text.poloto_legend{font-size:20px;dominant-baseline:middle;text-anchor:start;}
.poloto_text.poloto_ticks.poloto_y{dominant-baseline:middle;text-anchor:end}
.poloto_text.poloto_ticks.poloto_x{dominant-baseline:auto;text-anchor:middle}
.poloto_imgs.poloto_ticks{stroke: black;stroke-width:3;fill:none;stroke-dasharray:none}
.poloto_grid{stroke:gray;stroke-width:0.5}

.poloto0.poloto_stroke{stroke:blue;}
.poloto1.poloto_stroke{stroke:red;}
.poloto2.poloto_stroke{stroke:green;}
.poloto3.poloto_stroke{stroke:gold;}
.poloto4.poloto_stroke{stroke:aqua;}
.poloto5.poloto_stroke{stroke:lime;}
.poloto6.poloto_stroke{stroke:orange;}
.poloto7.poloto_stroke{stroke:chocolate;}
.poloto0.poloto_fill{fill:blue;}
.poloto1.poloto_fill{fill:red;}
.poloto2.poloto_fill{fill:green;}
.poloto3.poloto_fill{fill:gold;}
.poloto4.poloto_fill{fill:aqua;}
.poloto5.poloto_fill{fill:lime;}
.poloto6.poloto_fill{fill:orange;}
.poloto7.poloto_fill{fill:chocolate;}
	</style>
	<circle r="1e5" class="poloto_background" fill="white"/>
	<g id="poloto_plot0" class="poloto_plot poloto_imgs poloto_line poloto0 poloto_stroke" fill="none" stroke="black">
		<path d=" M 150.00 363.05 L 150.04 363.02 L 150.05 363.00 L 150.07 363.00 L 150.10 363.00 L 150.13 358.99 L 150.28 358.51 L 150.62 358.49 L 151.13 358.15 L 151.38 356.12 L 151.89 355.99 L 151.98 355.88 L 152.05 355.84 L 152.65 354.84 L 153.77 354.04 L 154.13 350.89 L 154.22 350.89 L 154.89 350.77 L 155.67 350.75 L 155.68 350.75 L 155.68 350.75 L 166.22 350.75 L 166.29 350.75 L 166.43 350.72 L 166.48 350.69 L 166.88 350.50 L 167.07 350.45 L 167.51 350.16 L 167.58 350.04 L 167.70 349.75 L 167.84 349.71 L 167.88 349.70 L 167.99 349.63 L 168.10 349.63 L 168.22 349.63 L 168.51 349.17 L 168.77 348.88 L 168.82 348.88 L 168.94 348.71 L 169.78 349.43 L 169.79 349.43 L 169.90 349.31 L 170.38 348.77 L 170.76 348.13 L 171.20 347.84 L 171.29 347.79 L 171.30 347.80 L 171.38 347.55 L 171.54 347.55 L 171.75 347.46 L 172.17 347.21 L 172.19 346.84 L 172.27 346.84 L 172.37 346.64 L 172.60 346.64 L 172.63 346.64 L 172.88 346.10 L 172.97 346.08 L 173.06 346.03 L 173.16 345.82 L 174.44 345.53 L 174.75 345.47 L 175.46 345.09 L 175.62 345.09 L 175.73 345.07 L 175.79 344.80 L 176.28 343.20 L 176.50 343.17 L 176.75 342.64 L 176.88 342.59 L 177.17 342.15 L 177.30 341.99 L 177.48 341.71 L 177.64 341.46 L 178.21 337.79 L 178.23 337.70 L 178.25 337.48 L 178.45 335.72 L 188.22 335.59 L 189.23 333.58 L 189.26 333.53 L 190.46 333.22 L 190.56 333.21 L 190.67 332.81 L 190.96 332.61 L 191.09 332.27 L 191.14 331.97 L 191.29 331.44 L 191.64 331.43 L 191.65 331.07 L 191.79 330.68 L 191.92 330.68 L 192.07 330.23 L 192.26 329.92 L 192.34 329.76 L 192.36 329.75 L 192.53 329.41 L 192.56 329.40 L 192.74 329.05 L 192.77 329.05 L 193.05 327.39 L 193.10 327.39 L 193.20 327.11 L 193.32 327.10 L 193.48 327.10 L 193.55 327.06 L 194.10 326.75 L 194.11 326.76 L 194.21 326.03 L 194.46 326.01 L 194.68 324.90 L 194.74 324.81 L 194.85 324.80 L 194.90 324.75 L 195.02 323.90 L 195.64 316.71 L 195.70 316.36 L 195.91 316.33 L 195.97 316.24 L 196.02 316.21 L 196.12 316.03 L 196.22 315.21 L 196.44 315.04 L 196.59 315.02 L 196.71 314.66 L 196.78 314.65 L 197.33 314.39 L 197.63 314.18 L 197.72 313.86 L 197.98 313.84 L 198.00 313.84 L 198.03 313.82 L 198.19 312.08 L 198.32 311.98 L 198.77 310.24 L 198.84 309.73 L 198.93 309.72 L 199.05 309.53 L 199.06 309.40 L 199.12 309.31 L 199.16 309.27 L 199.23 309.26 L 199.28 309.17 L 199.46 307.74 L 199.60 307.53 L 199.72 307.11 L 199.90 307.08 L 200.10 306.95 L 200.29 305.94 L 200.43 304.54 L 200.72 304.46 L 200.72 303.94 L 200.89 303.77 L 214.53 303.77 L 214.79 303.76 L 215.43 303.02 L 215.56 303.00 L 215.67 303.00 L 215.69 302.81 L 215.93 302.58 L 216.09 302.55 L 216.18 302.41 L 216.28 302.31 L 216.33 302.26 L 216.58 302.19 L 217.07 302.10 L 217.19 301.72 L 217.28 301.63 L 217.40 301.61 L 218.04 301.42 L 218.12 301.31 L 218.17 301.31 L 218.21 301.17 L 218.35 301.10 L 218.45 300.97 L 218.91 300.02 L 219.57 299.88 L 219.81 299.82 L 220.54 299.58 L 220.88 295.06 L 221.00 294.96 L 221.15 294.52 L 221.37 293.92 L 221.70 293.76 L 222.16 293.74 L 222.78 293.73 L 222.87 293.53 L 223.32 293.32 L 223.62 292.99 L 223.71 292.86 L 223.89 292.81 L 224.02 292.40 L 225.63 291.96 L 227.17 291.96 L 240.90 291.92 L 241.00 291.72 L 241.07 291.60 L 241.50 291.40 L 242.78 289.84 L 242.83 289.74 L 243.01 289.34 L 243.64 289.24 L 243.94 288.18 L 244.40 288.17 L 244.50 288.15 L 244.60 287.43 L 245.40 283.31 L 245.49 283.31 L 245.66 283.28 L 245.84 283.22 L 245.92 282.78 L 246.36 281.22 L 246.52 280.94 L 246.60 280.92 L 246.70 280.20 L 246.90 279.19 L 246.97 278.12 L 247.18 277.64 L 247.77 272.29 L 247.83 271.75 L 247.89 271.75 L 247.98 271.65 L 248.12 271.52 L 248.18 271.47 L 248.24 271.41 L 248.53 270.13 L 248.59 269.22 L 248.94 269.04 L 249.15 267.69 L 249.28 266.85 L 250.34 254.37 L 250.47 254.34 L 290.81 253.75 L 290.85 253.75 L 306.27 253.57 L 307.11 253.23 L 307.28 253.23 L 307.51 253.14 L 307.58 252.98 L 307.67 252.94 L 314.36 252.85 L 315.24 250.48 L 315.57 250.26 L 315.75 249.39 L 319.91 249.22 L 319.94 248.97 L 320.20 248.95 L 321.44 247.46 L 321.51 247.19 L 321.67 247.09 L 322.11 246.99 L 322.16 246.95 L 322.34 246.50 L 322.53 246.38 L 322.56 246.04 L 335.51 245.59 L 335.61 244.31 L 336.13 244.03 L 336.14 241.89 L 336.23 241.57 L 336.33 241.05 L 336.48 239.57 L 336.70 238.79 L 336.88 237.87 L 337.05 237.86 L 337.12 237.16 L 337.38 237.10 L 338.27 233.66 L 338.64 233.29 L 338.70 233.07 L 338.77 233.07 L 338.82 232.83 L 338.94 231.98 L 339.31 231.57 L 339.36 231.52 L 339.59 228.49 L 339.67 228.48 L 339.71 228.15 L 339.79 227.91 L 339.84 227.90 L 339.89 227.45 L 340.18 225.81 L 340.30 225.34 L 340.46 225.28 L 340.57 220.90 L 340.61 220.54 L 340.90 218.04 L 340.98 217.84 L 341.03 217.84 L 341.10 217.83 L 341.15 217.48 L 341.19 217.49 L 341.21 217.49 L 341.35 213.06 L 341.40 212.67 L 341.54 212.65 L 341.64 212.57 L 341.93 212.45 L 342.29 212.28 L 342.30 212.28 L 342.40 212.23 L 342.73 212.14 L 342.89 212.14 L 343.04 212.14 L 343.21 210.21 L 343.32 209.75 L 343.78 209.74 L 343.82 209.44 L 343.88 209.43 L 343.92 209.11 L 344.22 206.31 L 344.27 206.25 L 344.49 206.23 L 364.43 206.15 L 365.56 206.01 L 365.60 206.01 L 365.82 206.00 L 365.84 206.01 L 365.99 205.45 L 366.10 205.43 L 366.19 205.16 L 366.33 205.09 L 366.37 205.05 L 366.42 205.03 L 366.64 204.71 L 367.07 204.44 L 367.34 203.54 L 367.65 202.69 L 367.66 202.64 L 367.71 201.84 L 367.75 201.81 L 368.34 201.34 L 368.36 201.29 L 368.45 200.65 L 368.70 200.58 L 368.87 200.52 L 368.90 199.39 L 368.91 199.34 L 368.98 200.41 L 369.03 199.75 L 369.05 199.72 L 369.20 198.21 L 369.21 198.17 L 369.52 198.04 L 370.37 198.02 L 370.57 197.97 L 370.64 197.96 L 370.68 197.76 L 370.73 197.76 L 370.85 197.01 L 384.48 195.57 L 384.50 195.37 L 384.61 195.23 L 384.65 194.95 L 384.72 182.33 L 384.88 177.16 L 384.89 177.13 L 385.14 177.03 L 385.20 177.03 L 385.25 176.44 L 385.47 176.38 L 386.05 175.15 L 386.07 175.13 L 386.22 174.75 L 386.28 174.76 L 386.31 174.15 L 386.80 173.43 L 386.81 173.41 L 387.56 173.13 L 387.65 172.48 L 387.91 172.50 L 388.22 170.86 L 388.30 170.22 L 388.35 169.71 L 388.49 169.08 L 388.88 168.85 L 388.95 168.70 L 389.12 168.55 L 389.30 168.55 L 389.88 168.56 L 389.94 168.56 L 390.07 168.53 L 390.09 168.53 L 390.27 168.54 L 390.70 168.51 L 391.15 168.27 L 391.22 168.27 L 391.31 168.18 L 391.44 168.00 L 391.78 168.00 L 392.36 167.78 L 392.55 167.27 L 392.86 162.92 L 394.11 166.60 L 394.39 166.58 L 394.59 166.57 L 394.90 166.56 L 395.00 166.49 L 395.31 166.28 L 395.80 165.98 L 395.87 165.78 L 395.96 165.70 L 396.02 165.72 L 396.07 165.66 L 396.46 165.39 L 405.49 165.38 L 405.57 165.39 L 406.14 165.37 L 406.19 165.35 L 406.32 164.80 L 406.42 164.48 L 406.44 164.48 L 406.75 164.43 L 406.82 164.41 L 408.67 163.59 L 408.89 163.52 L 409.05 163.50 L 409.08 163.50 L 409.66 163.30 L 409.85 163.40 L 409.89 163.39 L 410.20 163.34 L 410.53 161.62 L 410.57 161.61 L 410.86 161.41 L 410.97 161.41 L 411.08 161.41 L 411.31 161.22 L 411.81 160.52 L 411.91 160.50 L 412.00 160.31 L 412.21 159.49 L 412.70 158.63 L 413.15 154.63 L 413.23 154.14 L 413.69 153.95 L 413.77 153.85 L 413.84 153.65 L 413.88 153.01 L 414.04 151.86 L 414.08 151.90 L 414.15 151.88 L 414.41 151.88 L 414.80 151.45 L 415.04 151.37 L 415.32 151.36 L 415.45 151.34 L 415.73 151.33 L 416.18 151.33 L 416.64 151.32 L 416.98 151.31 L 417.06 151.30 L 417.15 151.29 L 417.16 151.15 L 417.42 151.07 L 417.50 151.05 L 417.61 150.88 L 418.35 150.85 L 418.36 150.50 L 418.56 150.49 L 419.43 150.50 L 420.00 150.28 L 420.42 150.03 L 420.43 149.89 L 420.47 149.89 L 433.12 149.65 L 433.16 149.64 L 433.31 149.63 L 433.37 149.43 L 433.42 149.41 L 433.43 149.39 L 433.97 149.34 L 434.09 148.62 L 434.25 148.45 L 434.52 147.03 L 434.69 147.01 L 434.91 146.40 L 435.03 146.48 L 435.09 146.47 L 435.15 145.78 L 435.31 145.31 L 435.33 144.80 L 435.39 144.73 L 435.52 144.69 L 435.61 144.45 L 435.72 147.18 L 435.88 147.13 L 436.19 146.04 L 436.32 145.77 L 436.45 145.55 L 437.22 143.98 L 437.89 143.23 L 438.69 141.78 L 438.89 141.71 L 439.12 141.71 L 439.37 141.65 L 444.02 141.24 L 444.40 141.20 L 488.48 140.10 L 627.26 139.85 L 627.72 139.40 L 628.04 139.34 L 628.36 139.34 L 628.84 138.49 L 629.00 138.09 L 629.13 137.32 L 629.35 135.13 L 629.67 135.58 L 629.93 135.10 L 629.99 135.09 L 630.20 134.95 L 630.25 134.95 L 630.48 134.15 L 630.68 132.86 L 631.31 131.49 L 631.33 131.38 L 631.51 129.75 L 632.11 125.71 L 632.13 125.57 L 632.24 125.48 L 632.39 124.03 L 633.03 122.09 L 633.05 121.91 L 633.19 121.82 L 633.34 120.86 L 633.58 120.11 L 633.59 119.96 L 633.70 118.48 L 633.72 118.45 L 633.77 118.03 L 634.05 115.40 L 634.08 115.25 L 634.18 115.10 L 634.47 114.75 L 634.53 114.74 L 634.76 114.24 L 635.15 114.30 L 635.21 114.23 L 635.26 114.19 L 635.33 114.16 L 635.52 112.61 L 635.72 111.35 L 635.75 111.24 L 635.87 109.66 L 635.99 108.13 L 636.01 107.94 L 636.14 106.13 L 636.19 104.72 L 636.43 103.76 L 636.47 103.70 L 636.58 103.40 L 636.75 103.37 L 637.75 103.33 L 638.24 103.29 L 649.08 103.35 L 649.20 103.08 L 649.30 102.84 L 649.49 101.78 L 649.89 101.50 L 649.92 101.40 L 650.00 100.00"/>
	</g>
	<g id="poloto_plot1" class="poloto_plot poloto_imgs poloto_line poloto1 poloto_stroke" fill="none" stroke="black">
		<path d=" M 150.00 378.04 L 150.04 378.03 L 150.05 378.01 L 150.07 378.01 L 150.10 378.01 L 150.13 377.32 L 150.28 377.29 L 150.62 377.28 L 151.13 377.02 L 151.38 376.90 L 151.89 376.93 L 151.98 376.88 L 152.05 376.88 L 152.65 376.83 L 153.77 376.70 L 154.13 373.98 L 154.22 373.98 L 154.89 373.92 L 155.67 373.91 L 155.68 373.91 L 155.68 373.91 L 166.22 373.91 L 166.29 373.91 L 166.43 373.90 L 166.48 373.87 L 166.88 373.85 L 167.07 373.85 L 167.51 373.85 L 167.58 373.85 L 167.70 373.83 L 167.84 373.83 L 167.88 373.83 L 167.99 373.80 L 168.10 373.80 L 168.22 373.80 L 168.51 373.65 L 168.77 373.65 L 168.82 373.65 L 168.94 373.65 L 169.78 374.67 L 169.79 374.67 L 169.90 374.65 L 170.38 374.50 L 170.76 374.33 L 171.20 374.26 L 171.29 374.20 L 171.30 374.20 L 171.38 374.20 L 171.54 374.20 L 171.75 374.14 L 172.17 374.08 L 172.19 374.08 L 172.27 374.08 L 172.37 374.05 L 172.60 374.05 L 172.63 374.05 L 172.88 374.04 L 172.97 374.04 L 173.06 374.04 L 173.16 374.04 L 174.44 373.92 L 174.75 373.91 L 175.46 373.86 L 175.62 373.86 L 175.73 373.86 L 175.79 373.86 L 176.28 373.78 L 176.50 373.78 L 176.75 373.68 L 176.88 373.67 L 177.17 373.45 L 177.30 373.37 L 177.48 373.37 L 177.64 373.36 L 178.21 370.19 L 178.23 370.14 L 178.25 370.14 L 178.45 369.83 L 188.22 369.83 L 189.23 368.46 L 189.26 368.46 L 190.46 368.46 L 190.56 368.46 L 190.67 368.31 L 190.96 368.29 L 191.09 368.29 L 191.14 368.29 L 191.29 368.29 L 191.64 368.29 L 191.65 368.00 L 191.79 367.98 L 191.92 367.98 L 192.07 367.95 L 192.26 367.94 L 192.34 367.94 L 192.36 367.94 L 192.53 367.94 L 192.56 367.94 L 192.74 367.94 L 192.77 367.94 L 193.05 366.60 L 193.10 366.60 L 193.20 366.44 L 193.32 366.44 L 193.48 366.44 L 193.55 366.42 L 194.10 366.42 L 194.11 366.42 L 194.21 366.34 L 194.46 366.34 L 194.68 365.56 L 194.74 365.47 L 194.85 365.47 L 194.90 365.47 L 195.02 365.45 L 195.64 359.78 L 195.70 359.82 L 195.91 359.82 L 195.97 359.82 L 196.02 359.82 L 196.12 359.82 L 196.22 359.74 L 196.44 359.74 L 196.59 359.74 L 196.71 359.73 L 196.78 359.73 L 197.33 359.72 L 197.63 359.71 L 197.72 359.57 L 197.98 359.57 L 198.00 359.57 L 198.03 359.57 L 198.19 359.19 L 198.32 359.09 L 198.77 357.75 L 198.84 357.75 L 198.93 357.75 L 199.05 357.77 L 199.06 357.77 L 199.12 357.77 L 199.16 357.77 L 199.23 357.77 L 199.28 357.77 L 199.46 357.74 L 199.60 357.74 L 199.72 357.72 L 199.90 357.72 L 200.10 357.71 L 200.29 357.21 L 200.43 357.04 L 200.72 357.04 L 200.72 357.04 L 200.89 357.04 L 214.53 357.04 L 214.79 357.03 L 215.43 356.94 L 215.56 356.93 L 215.67 356.93 L 215.69 356.93 L 215.93 356.93 L 216.09 356.93 L 216.18 356.93 L 216.28 356.93 L 216.33 356.92 L 216.58 356.92 L 217.07 356.95 L 217.19 356.95 L 217.28 356.95 L 217.40 356.95 L 218.04 356.84 L 218.12 356.79 L 218.17 356.79 L 218.21 356.72 L 218.35 356.71 L 218.45 356.71 L 218.91 356.20 L 219.57 356.20 L 219.81 356.20 L 220.54 356.20 L 220.88 352.73 L 221.00 352.72 L 221.15 352.72 L 221.37 352.72 L 221.70 352.72 L 222.16 352.72 L 222.78 352.72 L 222.87 352.72 L 223.32 352.63 L 223.62 352.49 L 223.71 352.49 L 223.89 352.49 L 224.02 352.47 L 225.63 352.25 L 227.17 352.25 L 240.90 352.25 L 241.00 352.25 L 241.07 352.25 L 241.50 352.25 L 242.78 351.15 L 242.83 351.12 L 243.01 351.01 L 243.64 351.00 L 243.94 350.74 L 244.40 350.74 L 244.50 350.74 L 244.60 350.74 L 245.40 347.69 L 245.49 347.69 L 245.66 347.69 L 245.84 347.69 L 245.92 347.50 L 246.36 347.13 L 246.52 347.13 L 246.60 347.13 L 246.70 346.57 L 246.90 346.01 L 246.97 346.01 L 247.18 346.00 L 247.77 341.46 L 247.83 341.46 L 247.89 341.46 L 247.98 341.46 L 248.12 341.46 L 248.18 341.46 L 248.24 341.46 L 248.53 341.46 L 248.59 341.36 L 248.94 341.34 L 249.15 341.28 L 249.28 340.73 L 250.34 331.70 L 250.47 331.70 L 290.81 331.70 L 290.85 331.70 L 306.27 331.70 L 307.11 331.56 L 307.28 331.56 L 307.51 331.56 L 307.58 331.56 L 307.67 331.56 L 314.36 331.49 L 315.24 331.41 L 315.57 331.41 L 315.75 331.38 L 319.91 331.30 L 319.94 331.18 L 320.20 331.18 L 321.44 329.96 L 321.51 329.96 L 321.67 329.96 L 322.11 329.96 L 322.16 329.96 L 322.34 329.96 L 322.53 329.96 L 322.56 329.96 L 335.51 329.94 L 335.61 329.72 L 336.13 329.72 L 336.14 328.24 L 336.23 328.24 L 336.33 328.24 L 336.48 328.11 L 336.70 328.11 L 336.88 328.04 L 337.05 328.04 L 337.12 328.04 L 337.38 328.02 L 338.27 325.52 L 338.64 325.51 L 338.70 325.50 L 338.77 325.50 L 338.82 325.50 L 338.94 325.46 L 339.31 325.15 L 339.36 325.11 L 339.59 322.86 L 339.67 322.85 L 339.71 322.85 L 339.79 322.82 L 339.84 322.82 L 339.89 322.81 L 340.18 321.58 L 340.30 321.57 L 340.46 321.54 L 340.57 317.73 L 340.61 317.73 L 340.90 315.59 L 340.98 315.59 L 341.03 315.58 L 341.10 315.58 L 341.15 315.58 L 341.19 315.58 L 341.21 315.58 L 341.35 311.61 L 341.40 311.61 L 341.54 311.59 L 341.64 311.59 L 341.93 311.51 L 342.29 311.41 L 342.30 311.41 L 342.40 311.38 L 342.73 311.32 L 342.89 311.32 L 343.04 311.32 L 343.21 309.61 L 343.32 309.61 L 343.78 309.60 L 343.82 309.59 L 343.88 309.59 L 343.92 309.59 L 344.22 307.15 L 344.27 307.15 L 344.49 307.14 L 364.43 307.14 L 365.56 307.12 L 365.60 307.12 L 365.82 307.12 L 365.84 307.12 L 365.99 307.12 L 366.10 307.12 L 366.19 307.00 L 366.33 307.00 L 366.37 307.00 L 366.42 307.00 L 366.64 306.78 L 367.07 306.64 L 367.34 306.49 L 367.65 305.80 L 367.66 305.80 L 367.71 305.63 L 367.75 305.61 L 368.34 305.19 L 368.36 305.19 L 368.45 305.12 L 368.70 305.12 L 368.87 305.08 L 368.90 304.07 L 368.91 304.07 L 368.98 305.07 L 369.03 305.01 L 369.05 305.00 L 369.20 303.64 L 369.21 303.64 L 369.52 303.58 L 370.37 303.58 L 370.57 303.58 L 370.64 303.58 L 370.68 303.58 L 370.73 303.58 L 370.85 303.50 L 384.48 302.37 L 384.50 302.37 L 384.61 302.36 L 384.65 302.12 L 384.72 290.06 L 384.88 285.58 L 384.89 285.58 L 385.14 285.49 L 385.20 285.49 L 385.25 285.47 L 385.47 285.47 L 386.05 284.38 L 386.07 284.38 L 386.22 284.32 L 386.28 284.32 L 386.31 284.23 L 386.80 283.57 L 386.81 283.57 L 387.56 283.44 L 387.65 283.39 L 387.91 283.40 L 388.22 281.92 L 388.30 281.77 L 388.35 281.64 L 388.49 281.08 L 388.88 280.94 L 388.95 280.82 L 389.12 280.82 L 389.30 280.82 L 389.88 280.82 L 389.94 280.82 L 390.07 280.82 L 390.09 280.82 L 390.27 280.84 L 390.70 280.84 L 391.15 280.69 L 391.22 280.69 L 391.31 280.67 L 391.44 280.67 L 391.78 280.67 L 392.36 280.67 L 392.55 280.53 L 392.86 276.64 L 394.11 280.32 L 394.39 280.30 L 394.59 280.29 L 394.90 280.29 L 395.00 280.25 L 395.31 280.22 L 395.80 280.00 L 395.87 280.00 L 395.96 280.00 L 396.02 280.00 L 396.07 280.00 L 396.46 279.79 L 405.49 279.79 L 405.57 279.79 L 406.14 279.77 L 406.19 279.77 L 406.32 279.74 L 406.42 279.47 L 406.44 279.46 L 406.75 279.43 L 406.82 279.43 L 408.67 279.21 L 408.89 279.21 L 409.05 279.21 L 409.08 279.21 L 409.66 279.05 L 409.85 279.05 L 409.89 279.05 L 410.20 279.04 L 410.53 278.12 L 410.57 278.12 L 410.86 277.97 L 410.97 277.97 L 411.08 277.97 L 411.31 277.97 L 411.81 277.95 L 411.91 277.93 L 412.00 277.84 L 412.21 277.69 L 412.70 277.55 L 413.15 273.88 L 413.23 273.75 L 413.69 273.58 L 413.77 273.53 L 413.84 273.40 L 413.88 273.15 L 414.04 272.05 L 414.08 272.09 L 414.15 272.07 L 414.41 272.07 L 414.80 271.92 L 415.04 271.86 L 415.32 271.84 L 415.45 271.83 L 415.73 271.82 L 416.18 271.82 L 416.64 271.80 L 416.98 271.80 L 417.06 271.79 L 417.15 271.79 L 417.16 271.79 L 417.42 271.79 L 417.50 271.77 L 417.61 271.63 L 418.35 271.62 L 418.36 271.62 L 418.56 271.60 L 419.43 271.60 L 420.00 271.42 L 420.42 271.26 L 420.43 271.26 L 420.47 271.26 L 433.12 271.26 L 433.16 271.26 L 433.31 271.26 L 433.37 271.26 L 433.42 271.24 L 433.43 271.24 L 433.97 271.24 L 434.09 271.23 L 434.25 271.20 L 434.52 271.17 L 434.69 271.17 L 434.91 271.09 L 435.03 271.09 L 435.09 271.09 L 435.15 271.09 L 435.31 270.75 L 435.33 270.75 L 435.39 270.75 L 435.52 270.75 L 435.61 270.75 L 435.72 270.83 L 435.88 270.83 L 436.19 270.82 L 436.32 270.82 L 436.45 270.82 L 437.22 269.74 L 437.89 269.45 L 438.69 268.68 L 438.89 268.68 L 439.12 268.68 L 439.37 268.68 L 444.02 268.58 L 444.40 268.58 L 488.48 268.44 L 627.26 268.24 L 627.72 268.18 L 628.04 268.17 L 628.36 268.17 L 628.84 267.67 L 629.00 267.67 L 629.13 267.67 L 629.35 265.87 L 629.67 266.21 L 629.93 266.19 L 629.99 266.19 L 630.20 266.17 L 630.25 266.17 L 630.48 266.17 L 630.68 266.08 L 631.31 264.94 L 631.33 264.94 L 631.51 264.84 L 632.11 261.14 L 632.13 261.14 L 632.24 261.13 L 632.39 261.08 L 633.03 259.36 L 633.05 259.36 L 633.19 259.36 L 633.34 259.31 L 633.58 258.68 L 633.59 258.68 L 633.70 258.68 L 633.72 258.68 L 633.77 258.33 L 634.05 255.88 L 634.08 255.88 L 634.18 255.88 L 634.47 255.67 L 634.53 255.67 L 634.76 255.27 L 635.15 255.27 L 635.21 255.27 L 635.26 255.27 L 635.33 255.27 L 635.52 255.26 L 635.72 254.15 L 635.75 254.15 L 635.87 254.15 L 635.99 253.31 L 636.01 253.31 L 636.14 252.43 L 636.19 252.37 L 636.43 251.50 L 636.47 251.50 L 636.58 251.50 L 636.75 251.48 L 637.75 251.48 L 638.24 251.48 L 649.08 251.48 L 649.20 251.48 L 649.30 251.48 L 649.49 251.48 L 649.89 251.24 L 649.92 251.24 L 650.00 251.17"/>
	</g>
	<g id="poloto_plot2" class="poloto_plot poloto_imgs poloto_line poloto2 poloto_stroke" fill="none" stroke="black">
		<path d=" M 150.00 390.15 L 150.04 390.14 L 150.05 390.14 L 150.07 390.14 L 150.10 390.14 L 150.13 387.62 L 150.28 387.27 L 150.62 387.27 L 151.13 387.25 L 151.38 385.74 L 151.89 385.61 L 151.98 385.57 L 152.05 385.53 L 152.65 384.85 L 153.77 384.32 L 154.13 384.22 L 154.22 384.23 L 154.89 384.19 L 155.67 384.19 L 155.68 384.19 L 155.68 384.19 L 166.22 384.19 L 166.29 384.18 L 166.43 384.16 L 166.48 384.16 L 166.88 384.01 L 167.07 383.97 L 167.51 383.72 L 167.58 383.61 L 167.70 383.39 L 167.84 383.36 L 167.88 383.36 L 167.99 383.31 L 168.10 383.31 L 168.22 383.32 L 168.51 383.06 L 168.77 382.83 L 168.82 382.83 L 168.94 382.70 L 169.78 382.39 L 169.79 382.39 L 169.90 382.30 L 170.38 381.96 L 170.76 381.55 L 171.20 381.38 L 171.29 381.38 L 171.30 381.39 L 171.38 381.16 L 171.54 381.16 L 171.75 381.13 L 172.17 380.96 L 172.19 380.66 L 172.27 380.66 L 172.37 380.52 L 172.60 380.52 L 172.63 380.52 L 172.88 380.08 L 172.97 380.05 L 173.06 380.01 L 173.16 379.80 L 174.44 379.68 L 174.75 379.64 L 175.46 379.33 L 175.62 379.34 L 175.73 379.32 L 175.79 379.09 L 176.28 377.85 L 176.50 377.84 L 176.75 377.47 L 176.88 377.43 L 177.17 377.26 L 177.30 377.21 L 177.48 376.94 L 177.64 376.73 L 178.21 376.72 L 178.23 376.70 L 178.25 376.52 L 178.45 375.33 L 188.22 375.21 L 189.23 374.85 L 189.26 374.80 L 190.46 374.50 L 190.56 374.50 L 190.67 374.28 L 190.96 374.13 L 191.09 373.86 L 191.14 373.63 L 191.29 373.19 L 191.64 373.18 L 191.65 373.18 L 191.79 372.87 L 191.92 372.87 L 192.07 372.54 L 192.26 372.29 L 192.34 372.15 L 192.36 372.14 L 192.53 371.84 L 192.56 371.84 L 192.74 371.56 L 192.77 371.55 L 193.05 371.46 L 193.10 371.46 L 193.20 371.36 L 193.32 371.34 L 193.48 371.34 L 193.55 371.32 L 194.10 371.05 L 194.11 371.06 L 194.21 370.52 L 194.46 370.51 L 194.68 370.34 L 194.74 370.34 L 194.85 370.33 L 194.90 370.29 L 195.02 369.55 L 195.64 368.93 L 195.70 368.59 L 195.91 368.57 L 195.97 368.48 L 196.02 368.47 L 196.12 368.31 L 196.22 367.73 L 196.44 367.64 L 196.59 367.62 L 196.71 367.33 L 196.78 367.32 L 197.33 367.10 L 197.63 366.95 L 197.72 366.82 L 197.98 366.80 L 198.00 366.80 L 198.03 366.77 L 198.19 365.72 L 198.32 365.71 L 198.77 365.56 L 198.84 365.14 L 198.93 365.13 L 199.05 364.96 L 199.06 364.86 L 199.12 364.79 L 199.16 364.75 L 199.23 364.74 L 199.28 364.66 L 199.46 363.48 L 199.60 363.35 L 199.72 363.00 L 199.90 362.98 L 200.10 362.86 L 200.29 362.49 L 200.43 361.46 L 200.72 361.38 L 200.72 360.94 L 200.89 360.84 L 214.53 360.84 L 214.79 360.84 L 215.43 360.35 L 215.56 360.35 L 215.67 360.35 L 215.69 360.23 L 215.93 360.02 L 216.09 359.98 L 216.18 359.85 L 216.28 359.76 L 216.33 359.72 L 216.58 359.65 L 217.07 359.75 L 217.19 359.43 L 217.28 359.34 L 217.40 359.33 L 218.04 359.27 L 218.12 359.21 L 218.17 359.21 L 218.21 359.15 L 218.35 359.09 L 218.45 358.97 L 218.91 358.67 L 219.57 358.54 L 219.81 358.48 L 220.54 358.29 L 220.88 357.81 L 221.00 357.73 L 221.15 357.35 L 221.37 356.87 L 221.70 356.74 L 222.16 356.73 L 222.78 356.71 L 222.87 356.53 L 223.32 356.41 L 223.62 356.26 L 223.71 356.14 L 223.89 356.09 L 224.02 355.77 L 225.63 355.61 L 227.17 355.61 L 240.90 355.57 L 241.00 355.40 L 241.07 355.28 L 241.50 355.10 L 242.78 354.78 L 242.83 354.74 L 243.01 354.51 L 243.64 354.42 L 243.94 353.80 L 244.40 353.78 L 244.50 353.76 L 244.60 353.15 L 245.40 352.57 L 245.49 352.57 L 245.66 352.53 L 245.84 352.48 L 245.92 352.27 L 246.36 351.32 L 246.52 351.07 L 246.60 351.05 L 246.70 350.95 L 246.90 350.58 L 246.97 349.62 L 247.18 349.23 L 247.77 349.01 L 247.83 348.52 L 247.89 348.52 L 247.98 348.44 L 248.12 348.31 L 248.18 348.27 L 248.24 348.23 L 248.53 347.11 L 248.59 346.45 L 248.94 346.33 L 249.15 345.22 L 249.28 345.01 L 250.34 343.26 L 250.47 343.23 L 290.81 342.72 L 290.85 342.72 L 306.27 342.58 L 307.11 342.39 L 307.28 342.39 L 307.51 342.30 L 307.58 342.16 L 307.67 342.13 L 314.36 342.11 L 315.24 340.10 L 315.57 339.93 L 315.75 339.23 L 319.91 339.15 L 319.94 339.08 L 320.20 339.07 L 321.44 338.95 L 321.51 338.72 L 321.67 338.63 L 322.11 338.53 L 322.16 338.50 L 322.34 338.12 L 322.53 338.00 L 322.56 337.70 L 335.51 337.32 L 335.61 336.41 L 336.13 336.17 L 336.14 335.82 L 336.23 335.55 L 336.33 335.13 L 336.48 334.02 L 336.70 333.42 L 336.88 332.64 L 337.05 332.63 L 337.12 332.03 L 337.38 331.99 L 338.27 331.42 L 338.64 331.15 L 338.70 330.99 L 338.77 330.98 L 338.82 330.78 L 338.94 330.10 L 339.31 330.03 L 339.36 330.03 L 339.59 329.58 L 339.67 329.58 L 339.71 329.33 L 339.79 329.17 L 339.84 329.16 L 339.89 328.80 L 340.18 328.59 L 340.30 328.24 L 340.46 328.22 L 340.57 328.03 L 340.61 327.76 L 340.90 327.61 L 340.98 327.46 L 341.03 327.46 L 341.10 327.45 L 341.15 327.18 L 341.19 327.19 L 341.21 327.18 L 341.35 327.09 L 341.40 326.78 L 341.54 326.78 L 341.64 326.70 L 341.93 326.68 L 342.29 326.65 L 342.30 326.65 L 342.40 326.63 L 342.73 326.63 L 342.89 326.63 L 343.04 326.63 L 343.21 326.57 L 343.32 326.21 L 343.78 326.21 L 343.82 325.99 L 343.88 325.99 L 343.92 325.74 L 344.22 325.66 L 344.27 325.60 L 344.49 325.60 L 364.43 325.53 L 365.56 325.43 L 365.60 325.43 L 365.82 325.42 L 365.84 325.43 L 365.99 324.99 L 366.10 324.98 L 366.19 324.86 L 366.33 324.79 L 366.37 324.75 L 366.42 324.73 L 366.64 324.69 L 367.07 324.61 L 367.34 324.03 L 367.65 323.99 L 367.66 323.96 L 367.71 323.47 L 367.75 323.47 L 368.34 323.47 L 368.36 323.42 L 368.45 322.97 L 368.70 322.91 L 368.87 322.90 L 368.90 322.89 L 368.91 322.84 L 368.98 322.80 L 369.03 322.34 L 369.05 322.33 L 369.20 322.33 L 369.21 322.29 L 369.52 322.25 L 370.37 322.23 L 370.57 322.19 L 370.64 322.18 L 370.68 322.03 L 370.73 322.03 L 370.85 321.52 L 384.48 321.36 L 384.50 321.21 L 384.61 321.11 L 384.65 321.09 L 384.72 320.65 L 384.88 320.54 L 384.89 320.51 L 385.14 320.51 L 385.20 320.51 L 385.25 320.07 L 385.47 320.02 L 386.05 320.00 L 386.07 319.98 L 386.22 319.74 L 386.28 319.75 L 386.31 319.34 L 386.80 319.34 L 386.81 319.32 L 387.56 319.22 L 387.65 318.73 L 387.91 318.73 L 388.22 318.73 L 388.30 318.37 L 388.35 318.10 L 388.49 318.08 L 388.88 318.02 L 388.95 318.00 L 389.12 317.89 L 389.30 317.89 L 389.88 317.89 L 389.94 317.89 L 390.07 317.87 L 390.09 317.86 L 390.27 317.86 L 390.70 317.83 L 391.15 317.78 L 391.22 317.78 L 391.31 317.73 L 391.44 317.60 L 391.78 317.60 L 392.36 317.44 L 392.55 317.17 L 392.86 317.14 L 394.11 316.85 L 394.39 316.85 L 394.59 316.84 L 394.90 316.83 L 395.00 316.81 L 395.31 316.66 L 395.80 316.64 L 395.87 316.51 L 395.96 316.44 L 396.02 316.46 L 396.07 316.41 L 396.46 316.39 L 405.49 316.38 L 405.57 316.38 L 406.14 316.38 L 406.19 316.37 L 406.32 315.96 L 406.42 315.94 L 406.44 315.95 L 406.75 315.94 L 406.82 315.91 L 408.67 315.32 L 408.89 315.25 L 409.05 315.24 L 409.08 315.24 L 409.66 315.22 L 409.85 315.31 L 409.89 315.30 L 410.20 315.26 L 410.53 314.70 L 410.57 314.69 L 410.86 314.67 L 410.97 314.67 L 411.08 314.67 L 411.31 314.55 L 411.81 314.04 L 411.91 314.04 L 412.00 313.96 L 412.21 313.50 L 412.70 312.98 L 413.15 313.01 L 413.23 312.74 L 413.69 312.74 L 413.77 312.71 L 413.84 312.68 L 413.88 312.40 L 414.04 312.40 L 414.08 312.40 L 414.15 312.40 L 414.41 312.40 L 414.80 312.18 L 415.04 312.16 L 415.32 312.16 L 415.45 312.16 L 415.73 312.16 L 416.18 312.16 L 416.64 312.16 L 416.98 312.15 L 417.06 312.15 L 417.15 312.14 L 417.16 312.04 L 417.42 311.98 L 417.50 311.98 L 417.61 311.96 L 418.35 311.96 L 418.36 311.69 L 418.56 311.69 L 419.43 311.70 L 420.00 311.69 L 420.42 311.63 L 420.43 311.52 L 420.47 311.52 L 433.12 311.35 L 433.16 311.34 L 433.31 311.33 L 433.37 311.16 L 433.42 311.16 L 433.43 311.15 L 433.97 311.10 L 434.09 310.56 L 434.25 310.44 L 434.52 309.37 L 434.69 309.36 L 434.91 308.91 L 435.03 308.96 L 435.09 308.95 L 435.15 308.37 L 435.31 308.27 L 435.33 307.87 L 435.39 307.81 L 435.52 307.77 L 435.61 307.57 L 435.72 309.97 L 435.88 309.93 L 436.19 308.96 L 436.32 308.75 L 436.45 308.54 L 437.22 308.16 L 437.89 307.75 L 438.69 307.19 L 438.89 307.13 L 439.12 307.13 L 439.37 307.08 L 444.02 306.79 L 444.40 306.76 L 488.48 306.02 L 627.26 305.99 L 627.72 305.65 L 628.04 305.60 L 628.36 305.60 L 628.84 305.30 L 629.00 304.94 L 629.13 304.28 L 629.35 304.11 L 629.67 304.17 L 629.93 303.78 L 629.99 303.78 L 630.20 303.66 L 630.25 303.66 L 630.48 303.02 L 630.68 302.04 L 631.31 301.94 L 631.33 301.84 L 631.51 300.57 L 632.11 300.53 L 632.13 300.40 L 632.24 300.32 L 632.39 299.17 L 633.03 299.12 L 633.05 298.95 L 633.19 298.87 L 633.34 298.12 L 633.58 298.10 L 633.59 297.97 L 633.70 296.72 L 633.72 296.69 L 633.77 296.65 L 634.05 296.65 L 634.08 296.52 L 634.18 296.42 L 634.47 296.31 L 634.53 296.30 L 634.76 296.24 L 635.15 296.28 L 635.21 296.23 L 635.26 296.20 L 635.33 296.16 L 635.52 294.86 L 635.72 294.83 L 635.75 294.72 L 635.87 293.38 L 635.99 292.90 L 636.01 292.73 L 636.14 292.08 L 636.19 290.94 L 636.43 290.93 L 636.47 290.87 L 636.58 290.64 L 636.75 290.63 L 637.75 290.59 L 638.24 290.57 L 649.08 290.62 L 649.20 290.36 L 649.30 290.17 L 649.49 289.27 L 649.89 289.26 L 649.92 289.17 L 650.00 288.03"/>
	</g>
	<g class="poloto_legend poloto_imgs poloto_line poloto0 poloto_stroke"><line x1="680" x2="730" y1="81.25" y2="81.25"/></g>
	<g class="poloto_legend poloto_imgs poloto_line poloto1 poloto_stroke"><line x1="680" x2="730" y1="131.25" y2="131.25"/></g>
	<g class="poloto_legend poloto_imgs poloto_line poloto2 poloto_stroke"><line x1="680" x2="730" y1="181.25" y2="181.25"/></g>
	<text class="poloto_legend poloto_text poloto_line poloto0" x="675" y="100">total</text>
	<text class="poloto_legend poloto_text poloto_line poloto1" x="675" y="150">code</text>
	<text class="poloto_legend poloto_text poloto_line poloto2" x="675" y="200">docs</text>
	<text class="poloto_text poloto_name poloto_title" x="400.00" y="37.50">Workspace lines over time</text>
	<text class="poloto_text poloto_name poloto_x" x="400.00" y="640">date (JST)</text>
	<text class="poloto_text poloto_name poloto_y" x="37.50" y="250.00" transform="rotate(-90,37.50,250.00)">lines</text>
	<text class="poloto_text poloto_ticks poloto_y">
		<tspan x="135.00" y="400.00">0</tspan>
		<tspan x="135.00" y="306.34">50K</tspan>
		<tspan x="135.00" y="212.69">100K</tspan>
		<tspan x="135.00" y="119.03">150K</tspan>
	</text>
	<g class="poloto_imgs poloto_ticks poloto_y" stroke="black">
		<line x1="150.00" x2="144.00" y1="400.00" y2="400.00"/>
		<line x1="150.00" x2="144.00" y1="306.34" y2="306.34"/>
		<line x1="150.00" x2="144.00" y1="212.69" y2="212.69"/>
		<line x1="150.00" x2="144.00" y1="119.03" y2="119.03"/>
	</g>
	<g class="poloto_text poloto_ticks poloto_x">
		<text x="184.86" y="430.00" text-anchor="end" transform="rotate(-90 184.86 430.00)">2026-04-22 04:33</text>
		<text x="240.72" y="430.00" text-anchor="end" transform="rotate(-90 240.72 430.00)">2026-04-24 12:06</text>
		<text x="296.59" y="430.00" text-anchor="end" transform="rotate(-90 296.59 430.00)">2026-04-26 19:40</text>
		<text x="352.45" y="430.00" text-anchor="end" transform="rotate(-90 352.45 430.00)">2026-04-29 03:13</text>
		<text x="408.31" y="430.00" text-anchor="end" transform="rotate(-90 408.31 430.00)">2026-05-01 10:46</text>
		<text x="464.17" y="430.00" text-anchor="end" transform="rotate(-90 464.17 430.00)">2026-05-03 18:20</text>
		<text x="520.03" y="430.00" text-anchor="end" transform="rotate(-90 520.03 430.00)">2026-05-06 01:53</text>
		<text x="575.89" y="430.00" text-anchor="end" transform="rotate(-90 575.89 430.00)">2026-05-08 09:26</text>
		<text x="631.75" y="430.00" text-anchor="end" transform="rotate(-90 631.75 430.00)">2026-05-10 17:00</text>
	</g>
	<g class="poloto_imgs poloto_ticks poloto_x" stroke="black">
		<line x1="184.86" x2="184.86" y1="400.00" y2="405.00"/>
		<line x1="240.72" x2="240.72" y1="400.00" y2="405.00"/>
		<line x1="296.59" x2="296.59" y1="400.00" y2="405.00"/>
		<line x1="352.45" x2="352.45" y1="400.00" y2="405.00"/>
		<line x1="408.31" x2="408.31" y1="400.00" y2="405.00"/>
		<line x1="464.17" x2="464.17" y1="400.00" y2="405.00"/>
		<line x1="520.03" x2="520.03" y1="400.00" y2="405.00"/>
		<line x1="575.89" x2="575.89" y1="400.00" y2="405.00"/>
		<line x1="631.75" x2="631.75" y1="400.00" y2="405.00"/>
	</g>
	<path class="poloto_imgs poloto_ticks poloto_x" stroke="black" style="stroke-dasharray:6.982619979566061;stroke-dashoffset:-34.863662948366255;" d=" M 150.00 400.00 L 650.00 400.00"/>
	<path class="poloto_imgs poloto_ticks poloto_y" stroke="black" style="stroke-dasharray:9.365692842737529;stroke-dashoffset:-0;" d=" M 150.00 400.00 L 150.00 100.00"/>
</svg>

