<svg class="poloto" width="800" height="680" viewBox="0 0 800 680" xmlns="http://www.w3.org/2000/svg">
	<style>
.poloto{
  stroke-linecap:round;
  stroke-linejoin:round;
  font-family:Roboto,sans-serif;
  font-size:16px;
}
.poloto_background{fill:AliceBlue;}
.poloto_scatter{stroke-width:7}
.poloto_line{stroke-width:2}
.poloto_text{fill: black;}
.poloto_name{font-size:24px;dominant-baseline:auto;text-anchor:middle;}
.poloto_where{dominant-baseline:middle;text-anchor:start}
.poloto_text.poloto_legend{font-size:20px;dominant-baseline:middle;text-anchor:start;}
.poloto_text.poloto_ticks.poloto_y{dominant-baseline:middle;text-anchor:end}
.poloto_text.poloto_ticks.poloto_x{dominant-baseline:auto;text-anchor:middle}
.poloto_imgs.poloto_ticks{stroke: black;stroke-width:3;fill:none;stroke-dasharray:none}
.poloto_grid{stroke:gray;stroke-width:0.5}

.poloto0.poloto_stroke{stroke:blue;}
.poloto1.poloto_stroke{stroke:red;}
.poloto2.poloto_stroke{stroke:green;}
.poloto3.poloto_stroke{stroke:gold;}
.poloto4.poloto_stroke{stroke:aqua;}
.poloto5.poloto_stroke{stroke:lime;}
.poloto6.poloto_stroke{stroke:orange;}
.poloto7.poloto_stroke{stroke:chocolate;}
.poloto0.poloto_fill{fill:blue;}
.poloto1.poloto_fill{fill:red;}
.poloto2.poloto_fill{fill:green;}
.poloto3.poloto_fill{fill:gold;}
.poloto4.poloto_fill{fill:aqua;}
.poloto5.poloto_fill{fill:lime;}
.poloto6.poloto_fill{fill:orange;}
.poloto7.poloto_fill{fill:chocolate;}
	</style>
	<circle r="1e5" class="poloto_background" fill="white"/>
	<g id="poloto_plot0" class="poloto_plot poloto_imgs poloto_line poloto0 poloto_stroke" fill="none" stroke="black">
		<path d=" M 150.00 369.40 L 150.03 369.38 L 150.04 369.36 L 150.05 369.36 L 150.08 369.36 L 150.11 366.04 L 150.23 365.64 L 150.51 365.62 L 150.93 365.35 L 151.14 363.66 L 151.56 363.56 L 151.64 363.47 L 151.69 363.43 L 152.18 362.61 L 153.11 361.94 L 153.40 359.33 L 153.48 359.33 L 154.04 359.23 L 154.68 359.22 L 154.68 359.22 L 154.69 359.22 L 163.38 359.22 L 163.44 359.21 L 163.55 359.19 L 163.60 359.16 L 163.93 359.01 L 164.08 358.97 L 164.44 358.73 L 164.50 358.63 L 164.60 358.39 L 164.71 358.35 L 164.75 358.35 L 164.84 358.29 L 164.93 358.29 L 165.03 358.29 L 165.27 357.91 L 165.48 357.67 L 165.52 357.67 L 165.62 357.53 L 166.31 358.12 L 166.33 358.12 L 166.42 358.02 L 166.81 357.58 L 167.13 357.04 L 167.48 356.81 L 167.56 356.77 L 167.57 356.77 L 167.63 356.56 L 167.77 356.56 L 167.94 356.49 L 168.28 356.29 L 168.31 355.98 L 168.37 355.98 L 168.45 355.81 L 168.65 355.81 L 168.66 355.81 L 168.87 355.37 L 168.95 355.35 L 169.02 355.31 L 169.10 355.13 L 170.16 354.89 L 170.41 354.84 L 171.00 354.53 L 171.13 354.53 L 171.22 354.51 L 171.27 354.29 L 171.68 352.97 L 171.86 352.94 L 172.07 352.50 L 172.17 352.46 L 172.41 352.09 L 172.52 351.96 L 172.67 351.73 L 172.80 351.52 L 173.27 348.48 L 173.28 348.41 L 173.30 348.23 L 173.46 346.77 L 181.52 346.66 L 182.35 345.00 L 182.38 344.96 L 183.37 344.70 L 183.45 344.69 L 183.54 344.36 L 183.79 344.20 L 183.90 343.91 L 183.94 343.66 L 184.06 343.23 L 184.35 343.22 L 184.36 342.92 L 184.47 342.60 L 184.58 342.59 L 184.70 342.23 L 184.86 341.96 L 184.92 341.83 L 184.94 341.83 L 185.08 341.54 L 185.10 341.54 L 185.26 341.25 L 185.28 341.24 L 185.51 339.87 L 185.55 339.87 L 185.63 339.64 L 185.73 339.63 L 185.86 339.63 L 185.92 339.60 L 186.37 339.34 L 186.38 339.35 L 186.47 338.74 L 186.67 338.73 L 186.85 337.81 L 186.91 337.73 L 186.99 337.73 L 187.03 337.69 L 187.14 336.98 L 187.64 331.02 L 187.70 330.74 L 187.87 330.71 L 187.92 330.64 L 187.96 330.62 L 188.04 330.46 L 188.12 329.78 L 188.30 329.65 L 188.43 329.63 L 188.53 329.33 L 188.59 329.32 L 189.04 329.10 L 189.29 328.94 L 189.36 328.67 L 189.58 328.66 L 189.59 328.66 L 189.61 328.63 L 189.75 327.20 L 189.85 327.11 L 190.23 325.67 L 190.29 325.25 L 190.36 325.24 L 190.46 325.08 L 190.47 324.97 L 190.51 324.90 L 190.55 324.87 L 190.60 324.86 L 190.65 324.78 L 190.80 323.60 L 190.91 323.43 L 191.02 323.08 L 191.16 323.06 L 191.32 322.95 L 191.48 322.11 L 191.60 320.95 L 191.83 320.89 L 191.84 320.46 L 191.97 320.31 L 203.23 320.32 L 203.44 320.30 L 203.97 319.69 L 204.08 319.67 L 204.17 319.67 L 204.19 319.52 L 204.38 319.33 L 204.51 319.30 L 204.59 319.19 L 204.67 319.11 L 204.71 319.06 L 204.92 319.01 L 205.32 318.93 L 205.42 318.62 L 205.50 318.54 L 205.60 318.53 L 206.12 318.37 L 206.19 318.28 L 206.23 318.28 L 206.26 318.16 L 206.37 318.11 L 206.46 317.99 L 206.84 317.21 L 207.38 317.09 L 207.58 317.04 L 208.18 316.84 L 208.47 313.10 L 208.57 313.02 L 208.69 312.65 L 208.87 312.16 L 209.14 312.02 L 209.52 312.01 L 210.03 312.00 L 210.11 311.83 L 210.48 311.66 L 210.72 311.39 L 210.80 311.28 L 210.94 311.23 L 211.06 310.90 L 212.39 310.53 L 213.65 310.53 L 224.98 310.50 L 225.06 310.34 L 225.12 310.23 L 225.47 310.07 L 226.53 308.78 L 226.57 308.69 L 226.72 308.36 L 227.24 308.28 L 227.49 307.40 L 227.86 307.40 L 227.95 307.38 L 228.03 306.78 L 228.69 303.37 L 228.77 303.37 L 228.90 303.34 L 229.05 303.30 L 229.12 302.93 L 229.49 301.64 L 229.62 301.40 L 229.68 301.39 L 229.76 300.79 L 229.92 299.96 L 229.99 299.07 L 230.15 298.67 L 230.65 294.24 L 230.69 293.80 L 230.74 293.80 L 230.82 293.72 L 230.94 293.60 L 230.98 293.56 L 231.03 293.52 L 231.27 292.45 L 231.32 291.71 L 231.61 291.56 L 231.78 290.44 L 231.89 289.74 L 232.77 279.41 L 232.87 279.38 L 266.15 278.89 L 266.18 278.89 L 278.90 278.75 L 279.59 278.47 L 279.73 278.47 L 279.92 278.39 L 279.98 278.26 L 280.06 278.22 L 285.57 278.15 L 286.30 276.18 L 286.57 276.01 L 286.71 275.28 L 290.15 275.14 L 290.17 274.94 L 290.39 274.92 L 291.41 273.68 L 291.47 273.46 L 291.60 273.38 L 291.96 273.29 L 292.01 273.26 L 292.15 272.89 L 292.31 272.79 L 292.33 272.51 L 303.02 272.13 L 303.10 271.07 L 303.53 270.84 L 303.53 269.07 L 303.61 268.80 L 303.70 268.37 L 303.82 267.15 L 304.00 266.50 L 304.15 265.74 L 304.29 265.74 L 304.34 265.16 L 304.56 265.11 L 305.30 262.25 L 305.60 261.95 L 305.65 261.77 L 305.71 261.76 L 305.75 261.57 L 305.85 260.86 L 306.15 260.53 L 306.20 260.49 L 306.38 257.98 L 306.45 257.97 L 306.48 257.70 L 306.55 257.49 L 306.59 257.49 L 306.63 257.11 L 306.87 255.75 L 306.97 255.37 L 307.10 255.32 L 307.19 251.69 L 307.23 251.39 L 307.46 249.32 L 307.53 249.16 L 307.57 249.16 L 307.63 249.15 L 307.67 248.86 L 307.70 248.87 L 307.71 248.86 L 307.83 245.20 L 307.88 244.88 L 307.99 244.86 L 308.07 244.80 L 308.31 244.69 L 308.61 244.55 L 308.62 244.55 L 308.70 244.51 L 308.97 244.44 L 309.10 244.44 L 309.23 244.44 L 309.37 242.84 L 309.46 242.46 L 309.84 242.45 L 309.87 242.20 L 309.92 242.20 L 309.95 241.92 L 310.20 239.61 L 310.24 239.56 L 310.42 239.54 L 326.87 239.47 L 327.81 239.36 L 327.83 239.36 L 328.02 239.36 L 328.03 239.36 L 328.15 238.90 L 328.25 238.88 L 328.33 238.65 L 328.44 238.60 L 328.47 238.56 L 328.52 238.54 L 328.69 238.29 L 329.05 238.06 L 329.27 237.31 L 329.53 236.61 L 329.54 236.57 L 329.58 235.91 L 329.61 235.89 L 330.10 235.49 L 330.11 235.45 L 330.19 234.92 L 330.40 234.87 L 330.53 234.82 L 330.56 233.88 L 330.57 233.83 L 330.63 234.72 L 330.66 234.18 L 330.68 234.15 L 330.80 232.90 L 330.81 232.87 L 331.07 232.76 L 331.77 232.75 L 331.94 232.70 L 331.99 232.69 L 332.03 232.53 L 332.07 232.53 L 332.17 231.91 L 343.41 230.71 L 343.43 230.55 L 343.52 230.43 L 343.55 230.20 L 343.61 219.75 L 343.74 215.47 L 343.75 215.44 L 343.96 215.36 L 344.01 215.36 L 344.04 214.87 L 344.22 214.82 L 344.71 213.81 L 344.72 213.79 L 344.84 213.48 L 344.89 213.48 L 344.92 212.98 L 345.32 212.38 L 345.33 212.36 L 345.95 212.13 L 346.02 211.60 L 346.24 211.61 L 346.50 210.26 L 346.56 209.73 L 346.60 209.30 L 346.72 208.78 L 347.04 208.59 L 347.10 208.46 L 347.24 208.34 L 347.39 208.34 L 347.86 208.35 L 347.92 208.35 L 348.02 208.32 L 348.03 208.32 L 348.19 208.33 L 348.54 208.31 L 348.91 208.11 L 348.97 208.11 L 349.05 208.03 L 349.15 207.89 L 349.43 207.89 L 349.91 207.70 L 350.06 207.28 L 350.32 203.68 L 351.36 206.72 L 351.58 206.71 L 351.75 206.70 L 352.01 206.69 L 352.09 206.63 L 352.35 206.46 L 352.75 206.21 L 352.81 206.05 L 352.88 205.98 L 352.93 206.00 L 352.97 205.94 L 353.29 205.72 L 360.74 205.71 L 360.81 205.72 L 361.27 205.71 L 361.32 205.69 L 361.42 205.23 L 361.51 204.97 L 361.52 204.97 L 361.78 204.93 L 361.84 204.91 L 363.36 204.23 L 363.54 204.17 L 363.68 204.16 L 363.70 204.16 L 364.18 203.99 L 364.34 204.08 L 364.37 204.07 L 364.62 204.02 L 364.90 202.60 L 364.93 202.59 L 365.17 202.43 L 365.26 202.43 L 365.35 202.43 L 365.54 202.27 L 365.96 201.69 L 366.04 201.67 L 366.11 201.51 L 366.28 200.83 L 366.69 200.13 L 367.05 196.81 L 367.13 196.41 L 367.50 196.25 L 367.57 196.16 L 367.63 196.00 L 367.66 195.47 L 367.79 194.52 L 367.82 194.56 L 367.88 194.54 L 368.10 194.53 L 368.42 194.18 L 368.62 194.12 L 368.85 194.10 L 368.96 194.09 L 369.18 194.08 L 369.56 194.08 L 369.93 194.07 L 370.22 194.07 L 370.29 194.06 L 370.36 194.05 L 370.36 193.93 L 370.58 193.86 L 370.65 193.85 L 370.73 193.70 L 371.35 193.68 L 371.36 193.40 L 371.52 193.38 L 372.24 193.39 L 372.71 193.21 L 373.06 193.00 L 373.06 192.89 L 373.09 192.89 L 383.53 192.69 L 383.56 192.68 L 383.68 192.67 L 383.74 192.51 L 383.78 192.49 L 383.78 192.48 L 384.23 192.43 L 384.33 191.83 L 384.46 191.70 L 384.68 190.52 L 384.83 190.50 L 385.00 190.00 L 385.11 190.06 L 385.15 190.06 L 385.21 189.48 L 385.34 189.09 L 385.35 188.67 L 385.40 188.62 L 385.51 188.58 L 385.58 188.39 L 385.68 190.64 L 385.81 190.60 L 386.06 189.70 L 386.17 189.48 L 386.27 189.29 L 386.91 188.00 L 387.46 187.37 L 388.12 186.17 L 388.29 186.12 L 388.48 186.12 L 388.68 186.06 L 392.52 185.72 L 392.84 185.69 L 429.19 184.78 L 543.67 184.57 L 544.04 184.20 L 544.31 184.15 L 544.57 184.15 L 544.97 183.45 L 545.10 183.11 L 545.21 182.48 L 545.39 180.66 L 545.66 181.04 L 545.87 180.64 L 545.92 180.63 L 546.09 180.52 L 546.13 180.52 L 546.32 179.85 L 546.49 178.78 L 547.01 177.65 L 547.03 177.56 L 547.17 176.21 L 547.67 172.86 L 547.68 172.75 L 547.78 172.67 L 547.89 171.48 L 548.43 169.87 L 548.44 169.72 L 548.55 169.65 L 548.68 168.85 L 548.88 168.22 L 548.89 168.11 L 548.98 166.88 L 548.99 166.85 L 549.04 166.51 L 549.27 164.33 L 549.29 164.21 L 549.37 164.08 L 549.61 163.79 L 549.66 163.78 L 549.85 163.36 L 550.17 163.41 L 550.22 163.36 L 550.26 163.33 L 550.32 163.30 L 550.48 162.02 L 550.65 160.97 L 550.67 160.88 L 550.76 159.58 L 550.86 158.30 L 550.89 158.15 L 550.99 156.65 L 551.03 155.48 L 551.23 154.69 L 551.26 154.63 L 551.36 154.39 L 551.49 154.37 L 552.32 154.33 L 552.73 154.30 L 561.67 154.35 L 561.76 154.12 L 561.85 153.92 L 562.00 153.05 L 562.33 152.82 L 562.36 152.73 L 562.42 151.57 L 562.64 150.45 L 562.66 150.35 L 564.61 150.28 L 564.73 149.65 L 565.72 149.46 L 565.82 149.41 L 565.94 148.10 L 567.12 146.88 L 567.63 146.41 L 567.75 145.45 L 568.18 143.81 L 568.45 143.33 L 568.89 142.37 L 569.67 141.88 L 581.64 141.87 L 582.36 141.76 L 582.39 141.78 L 583.39 141.59 L 583.44 141.49 L 583.79 141.42 L 584.20 140.35 L 584.20 140.35 L 584.25 140.30 L 584.78 139.08 L 586.01 138.38 L 586.09 138.32 L 586.21 138.31 L 586.40 137.99 L 586.45 137.90 L 586.52 137.84 L 587.10 137.80 L 587.56 137.80 L 587.80 137.79 L 587.84 137.75 L 588.35 136.68 L 588.74 136.48 L 588.76 136.40 L 588.81 136.31 L 588.86 136.02 L 601.85 135.61 L 601.87 135.59 L 601.91 135.57 L 602.16 135.45 L 602.36 135.32 L 603.50 133.68 L 603.79 133.48 L 604.61 132.99 L 605.32 132.87 L 605.85 132.71 L 606.00 131.19 L 606.65 129.42 L 606.90 129.29 L 606.98 128.15 L 608.90 126.04 L 608.92 126.04 L 609.03 125.53 L 609.39 125.47 L 609.40 125.47 L 609.42 125.34 L 609.49 125.17 L 609.65 125.01 L 609.86 124.12 L 611.85 121.99 L 612.11 121.74 L 612.29 121.35 L 612.32 121.31 L 612.36 121.01 L 621.20 120.05 L 621.49 119.31 L 621.66 119.28 L 621.72 118.79 L 622.55 118.57 L 622.73 118.08 L 622.88 118.08 L 622.98 117.06 L 623.26 114.46 L 623.30 114.42 L 623.67 114.38 L 623.76 113.53 L 624.08 112.51 L 624.14 111.80 L 624.41 111.16 L 624.60 110.81 L 624.75 110.03 L 625.08 109.37 L 625.12 108.63 L 625.55 108.46 L 625.58 108.46 L 625.65 107.52 L 625.74 107.52 L 625.79 107.44 L 626.28 105.68 L 626.99 105.10 L 627.35 105.29 L 628.52 105.21 L 628.55 105.20 L 628.73 105.18 L 628.81 105.16 L 628.94 105.04 L 629.09 104.94 L 629.24 104.74 L 629.59 104.49 L 629.93 104.47 L 630.97 104.29 L 631.02 104.28 L 632.07 104.12 L 632.52 104.01 L 641.47 103.99 L 641.92 103.86 L 642.14 103.78 L 642.24 103.78 L 642.27 103.77 L 642.49 103.75 L 642.60 103.69 L 642.86 103.52 L 643.02 103.49 L 643.60 103.31 L 643.91 102.91 L 644.41 102.85 L 644.55 102.60 L 644.72 102.44 L 644.94 102.24 L 645.72 102.29 L 645.79 102.28 L 646.92 101.78 L 647.09 101.49 L 647.32 101.40 L 647.87 101.17 L 648.12 101.23 L 648.25 101.61 L 648.36 101.59 L 648.51 101.43 L 648.99 100.27 L 649.50 100.15 L 649.95 100.05 L 650.00 100.00"/>
	</g>
	<g id="poloto_plot1" class="poloto_plot poloto_imgs poloto_line poloto1 poloto_stroke" fill="none" stroke="black">
		<path d=" M 150.00 381.82 L 150.03 381.80 L 150.04 381.79 L 150.05 381.79 L 150.08 381.79 L 150.11 381.22 L 150.23 381.20 L 150.51 381.19 L 150.93 380.97 L 151.14 380.87 L 151.56 380.89 L 151.64 380.85 L 151.69 380.85 L 152.18 380.81 L 153.11 380.70 L 153.40 378.45 L 153.48 378.45 L 154.04 378.40 L 154.68 378.39 L 154.68 378.39 L 154.69 378.39 L 163.38 378.39 L 163.44 378.39 L 163.55 378.39 L 163.60 378.36 L 163.93 378.35 L 164.08 378.35 L 164.44 378.35 L 164.50 378.35 L 164.60 378.33 L 164.71 378.33 L 164.75 378.33 L 164.84 378.30 L 164.93 378.30 L 165.03 378.30 L 165.27 378.18 L 165.48 378.18 L 165.52 378.18 L 165.62 378.18 L 166.31 379.02 L 166.33 379.02 L 166.42 379.01 L 166.81 378.88 L 167.13 378.75 L 167.48 378.68 L 167.56 378.64 L 167.57 378.64 L 167.63 378.64 L 167.77 378.64 L 167.94 378.58 L 168.28 378.53 L 168.31 378.53 L 168.37 378.53 L 168.45 378.51 L 168.65 378.51 L 168.66 378.51 L 168.87 378.50 L 168.95 378.50 L 169.02 378.50 L 169.10 378.50 L 170.16 378.40 L 170.41 378.40 L 171.00 378.35 L 171.13 378.35 L 171.22 378.35 L 171.27 378.35 L 171.68 378.28 L 171.86 378.28 L 172.07 378.20 L 172.17 378.19 L 172.41 378.01 L 172.52 377.94 L 172.67 377.94 L 172.80 377.94 L 173.27 375.32 L 173.28 375.27 L 173.30 375.27 L 173.46 375.01 L 181.52 375.01 L 182.35 373.88 L 182.38 373.88 L 183.37 373.88 L 183.45 373.88 L 183.54 373.76 L 183.79 373.74 L 183.90 373.74 L 183.94 373.74 L 184.06 373.74 L 184.35 373.74 L 184.36 373.50 L 184.47 373.49 L 184.58 373.49 L 184.70 373.46 L 184.86 373.46 L 184.92 373.46 L 184.94 373.46 L 185.08 373.46 L 185.10 373.46 L 185.26 373.46 L 185.28 373.46 L 185.51 372.34 L 185.55 372.34 L 185.63 372.21 L 185.73 372.21 L 185.86 372.21 L 185.92 372.19 L 186.37 372.19 L 186.38 372.19 L 186.47 372.12 L 186.67 372.12 L 186.85 371.48 L 186.91 371.41 L 186.99 371.41 L 187.03 371.41 L 187.14 371.39 L 187.64 366.69 L 187.70 366.73 L 187.87 366.73 L 187.92 366.73 L 187.96 366.72 L 188.04 366.72 L 188.12 366.66 L 188.30 366.66 L 188.43 366.66 L 188.53 366.65 L 188.59 366.65 L 189.04 366.64 L 189.29 366.64 L 189.36 366.52 L 189.58 366.52 L 189.59 366.52 L 189.61 366.52 L 189.75 366.21 L 189.85 366.13 L 190.23 365.01 L 190.29 365.01 L 190.36 365.01 L 190.46 365.03 L 190.47 365.03 L 190.51 365.03 L 190.55 365.03 L 190.60 365.03 L 190.65 365.03 L 190.80 365.01 L 190.91 365.01 L 191.02 364.99 L 191.16 364.99 L 191.32 364.98 L 191.48 364.57 L 191.60 364.43 L 191.83 364.43 L 191.84 364.42 L 191.97 364.42 L 203.23 364.42 L 203.44 364.42 L 203.97 364.34 L 204.08 364.33 L 204.17 364.33 L 204.19 364.33 L 204.38 364.33 L 204.51 364.33 L 204.59 364.33 L 204.67 364.33 L 204.71 364.33 L 204.92 364.33 L 205.32 364.35 L 205.42 364.35 L 205.50 364.35 L 205.60 364.35 L 206.12 364.26 L 206.19 364.22 L 206.23 364.22 L 206.26 364.16 L 206.37 364.16 L 206.46 364.15 L 206.84 363.73 L 207.38 363.73 L 207.58 363.73 L 208.18 363.73 L 208.47 360.85 L 208.57 360.85 L 208.69 360.85 L 208.87 360.85 L 209.14 360.85 L 209.52 360.85 L 210.03 360.85 L 210.11 360.85 L 210.48 360.78 L 210.72 360.66 L 210.80 360.66 L 210.94 360.66 L 211.06 360.64 L 212.39 360.46 L 213.65 360.46 L 224.98 360.46 L 225.06 360.46 L 225.12 360.46 L 225.47 360.46 L 226.53 359.55 L 226.57 359.52 L 226.72 359.43 L 227.24 359.42 L 227.49 359.21 L 227.86 359.21 L 227.95 359.21 L 228.03 359.21 L 228.69 356.69 L 228.77 356.69 L 228.90 356.69 L 229.05 356.69 L 229.12 356.52 L 229.49 356.22 L 229.62 356.22 L 229.68 356.22 L 229.76 355.76 L 229.92 355.29 L 229.99 355.29 L 230.15 355.28 L 230.65 351.52 L 230.69 351.52 L 230.74 351.52 L 230.82 351.52 L 230.94 351.52 L 230.98 351.52 L 231.03 351.52 L 231.27 351.52 L 231.32 351.44 L 231.61 351.43 L 231.78 351.37 L 231.89 350.92 L 232.77 343.44 L 232.87 343.44 L 266.15 343.44 L 266.18 343.44 L 278.90 343.44 L 279.59 343.33 L 279.73 343.33 L 279.92 343.33 L 279.98 343.33 L 280.06 343.33 L 285.57 343.27 L 286.30 343.20 L 286.57 343.20 L 286.71 343.17 L 290.15 343.11 L 290.17 343.01 L 290.39 343.01 L 291.41 342.00 L 291.47 342.00 L 291.60 342.00 L 291.96 342.00 L 292.01 342.00 L 292.15 342.00 L 292.31 342.00 L 292.33 342.00 L 303.02 341.98 L 303.10 341.80 L 303.53 341.80 L 303.53 340.58 L 303.61 340.58 L 303.70 340.58 L 303.82 340.47 L 304.00 340.47 L 304.15 340.41 L 304.29 340.41 L 304.34 340.41 L 304.56 340.40 L 305.30 338.32 L 305.60 338.32 L 305.65 338.31 L 305.71 338.31 L 305.75 338.31 L 305.85 338.28 L 306.15 338.02 L 306.20 337.98 L 306.38 336.12 L 306.45 336.11 L 306.48 336.11 L 306.55 336.08 L 306.59 336.08 L 306.63 336.08 L 306.87 335.07 L 306.97 335.05 L 307.10 335.03 L 307.19 331.87 L 307.23 331.87 L 307.46 330.10 L 307.53 330.10 L 307.57 330.09 L 307.63 330.09 L 307.67 330.09 L 307.70 330.09 L 307.71 330.09 L 307.83 326.81 L 307.88 326.80 L 307.99 326.79 L 308.07 326.79 L 308.31 326.73 L 308.61 326.64 L 308.62 326.64 L 308.70 326.62 L 308.97 326.56 L 309.10 326.56 L 309.23 326.56 L 309.37 325.15 L 309.46 325.15 L 309.84 325.14 L 309.87 325.14 L 309.92 325.14 L 309.95 325.14 L 310.20 323.11 L 310.24 323.11 L 310.42 323.10 L 326.87 323.10 L 327.81 323.09 L 327.83 323.09 L 328.02 323.09 L 328.03 323.09 L 328.15 323.09 L 328.25 323.09 L 328.33 322.99 L 328.44 322.99 L 328.47 322.99 L 328.52 322.99 L 328.69 322.80 L 329.05 322.69 L 329.27 322.57 L 329.53 322.00 L 329.54 322.00 L 329.58 321.85 L 329.61 321.83 L 330.10 321.49 L 330.11 321.49 L 330.19 321.43 L 330.40 321.43 L 330.53 321.40 L 330.56 320.56 L 330.57 320.56 L 330.63 321.39 L 330.66 321.34 L 330.68 321.33 L 330.80 320.21 L 330.81 320.21 L 331.07 320.16 L 331.77 320.16 L 331.94 320.16 L 331.99 320.16 L 332.03 320.16 L 332.07 320.16 L 332.17 320.09 L 343.41 319.15 L 343.43 319.15 L 343.52 319.14 L 343.55 318.94 L 343.61 308.96 L 343.74 305.25 L 343.75 305.25 L 343.96 305.18 L 344.01 305.18 L 344.04 305.16 L 344.22 305.16 L 344.71 304.26 L 344.72 304.26 L 344.84 304.21 L 344.89 304.21 L 344.92 304.13 L 345.32 303.59 L 345.33 303.59 L 345.95 303.48 L 346.02 303.44 L 346.24 303.45 L 346.50 302.22 L 346.56 302.10 L 346.60 301.98 L 346.72 301.52 L 347.04 301.41 L 347.10 301.31 L 347.24 301.31 L 347.39 301.31 L 347.86 301.31 L 347.92 301.31 L 348.02 301.31 L 348.03 301.31 L 348.19 301.33 L 348.54 301.33 L 348.91 301.20 L 348.97 301.20 L 349.05 301.18 L 349.15 301.18 L 349.43 301.18 L 349.91 301.18 L 350.06 301.07 L 350.32 297.85 L 351.36 300.89 L 351.58 300.88 L 351.75 300.87 L 352.01 300.87 L 352.09 300.83 L 352.35 300.81 L 352.75 300.63 L 352.81 300.63 L 352.88 300.63 L 352.93 300.63 L 352.97 300.63 L 353.29 300.45 L 360.74 300.45 L 360.81 300.46 L 361.27 300.44 L 361.32 300.44 L 361.42 300.41 L 361.51 300.19 L 361.52 300.18 L 361.78 300.16 L 361.84 300.16 L 363.36 299.98 L 363.54 299.98 L 363.68 299.98 L 363.70 299.98 L 364.18 299.84 L 364.34 299.84 L 364.37 299.84 L 364.62 299.84 L 364.90 299.08 L 364.93 299.08 L 365.17 298.95 L 365.26 298.95 L 365.35 298.95 L 365.54 298.95 L 365.96 298.94 L 366.04 298.92 L 366.11 298.84 L 366.28 298.72 L 366.69 298.60 L 367.05 295.56 L 367.13 295.46 L 367.50 295.31 L 367.57 295.27 L 367.63 295.17 L 367.66 294.96 L 367.79 294.04 L 367.82 294.08 L 367.88 294.06 L 368.10 294.06 L 368.42 293.94 L 368.62 293.89 L 368.85 293.87 L 368.96 293.86 L 369.18 293.85 L 369.56 293.85 L 369.93 293.84 L 370.22 293.84 L 370.29 293.84 L 370.36 293.83 L 370.36 293.83 L 370.58 293.83 L 370.65 293.82 L 370.73 293.70 L 371.35 293.69 L 371.36 293.69 L 371.52 293.68 L 372.24 293.67 L 372.71 293.53 L 373.06 293.39 L 373.06 293.39 L 373.09 293.39 L 383.53 293.39 L 383.56 293.39 L 383.68 293.39 L 383.74 293.39 L 383.78 293.37 L 383.78 293.37 L 384.23 293.37 L 384.33 293.36 L 384.46 293.34 L 384.68 293.32 L 384.83 293.32 L 385.00 293.25 L 385.11 293.25 L 385.15 293.25 L 385.21 293.25 L 385.34 292.97 L 385.35 292.97 L 385.40 292.97 L 385.51 292.97 L 385.58 292.97 L 385.68 293.04 L 385.81 293.04 L 386.06 293.03 L 386.17 293.03 L 386.27 293.03 L 386.91 292.14 L 387.46 291.89 L 388.12 291.26 L 388.29 291.26 L 388.48 291.26 L 388.68 291.26 L 392.52 291.18 L 392.84 291.17 L 429.19 291.06 L 543.67 290.89 L 544.04 290.84 L 544.31 290.84 L 544.57 290.84 L 544.97 290.42 L 545.10 290.42 L 545.21 290.42 L 545.39 288.93 L 545.66 289.21 L 545.87 289.19 L 545.92 289.19 L 546.09 289.18 L 546.13 289.18 L 546.32 289.17 L 546.49 289.11 L 547.01 288.16 L 547.03 288.16 L 547.17 288.07 L 547.67 285.01 L 547.68 285.01 L 547.78 285.01 L 547.89 284.96 L 548.43 283.53 L 548.44 283.53 L 548.55 283.53 L 548.68 283.50 L 548.88 282.98 L 548.89 282.98 L 548.98 282.97 L 548.99 282.97 L 549.04 282.68 L 549.27 280.66 L 549.29 280.66 L 549.37 280.66 L 549.61 280.48 L 549.66 280.48 L 549.85 280.15 L 550.17 280.15 L 550.22 280.15 L 550.26 280.15 L 550.32 280.15 L 550.48 280.14 L 550.65 279.23 L 550.67 279.23 L 550.76 279.23 L 550.86 278.53 L 550.89 278.53 L 550.99 277.80 L 551.03 277.75 L 551.23 277.03 L 551.26 277.03 L 551.36 277.03 L 551.49 277.02 L 552.32 277.02 L 552.73 277.01 L 561.67 277.01 L 561.76 277.01 L 561.85 277.01 L 562.00 277.01 L 562.33 276.82 L 562.36 276.82 L 562.42 276.76 L 562.64 275.74 L 562.66 275.74 L 564.61 275.76 L 564.73 275.56 L 565.72 275.56 L 565.82 275.56 L 565.94 275.48 L 567.12 274.65 L 567.63 274.49 L 567.75 274.44 L 568.18 272.85 L 568.45 272.85 L 568.89 272.72 L 569.67 272.72 L 581.64 272.72 L 582.36 272.62 L 582.39 272.64 L 583.39 272.64 L 583.44 272.64 L 583.79 272.64 L 584.20 272.61 L 584.20 272.61 L 584.25 272.61 L 584.78 271.69 L 586.01 271.66 L 586.09 271.66 L 586.21 271.66 L 586.40 271.62 L 586.45 271.59 L 586.52 271.59 L 587.10 271.55 L 587.56 271.55 L 587.80 271.55 L 587.84 271.55 L 588.35 271.53 L 588.74 271.42 L 588.76 271.42 L 588.81 271.42 L 588.86 271.42 L 601.85 271.20 L 601.87 271.20 L 601.91 271.20 L 602.16 271.20 L 602.36 271.20 L 603.50 270.29 L 603.79 270.23 L 604.61 270.16 L 605.32 270.12 L 605.85 270.12 L 606.00 270.12 L 606.65 268.74 L 606.90 268.70 L 606.98 268.65 L 608.90 267.68 L 608.92 267.68 L 609.03 267.67 L 609.39 267.66 L 609.40 267.66 L 609.42 267.66 L 609.49 267.63 L 609.65 267.59 L 609.86 267.48 L 611.85 265.88 L 612.11 265.80 L 612.29 265.80 L 612.32 265.80 L 612.36 265.80 L 621.20 265.80 L 621.49 265.79 L 621.66 265.79 L 621.72 265.79 L 622.55 265.79 L 622.73 265.79 L 622.88 265.79 L 622.98 265.75 L 623.26 263.66 L 623.30 263.64 L 623.67 263.65 L 623.76 263.64 L 624.08 262.82 L 624.14 262.78 L 624.41 262.25 L 624.60 262.25 L 624.75 262.20 L 625.08 261.71 L 625.12 261.71 L 625.55 260.15 L 625.58 260.15 L 625.65 260.14 L 625.74 260.14 L 625.79 260.14 L 626.28 258.58 L 626.99 258.44 L 627.35 258.44 L 628.52 258.40 L 628.55 258.40 L 628.73 258.40 L 628.81 258.40 L 628.94 258.40 L 629.09 258.40 L 629.24 258.38 L 629.59 258.36 L 629.93 258.36 L 630.97 258.29 L 631.02 258.29 L 632.07 258.25 L 632.52 258.20 L 641.47 258.22 L 641.92 258.14 L 642.14 258.06 L 642.24 258.06 L 642.27 258.06 L 642.49 258.05 L 642.60 258.05 L 642.86 258.05 L 643.02 258.05 L 643.60 257.91 L 643.91 257.62 L 644.41 257.60 L 644.55 257.42 L 644.72 257.33 L 644.94 257.24 L 645.72 257.33 L 645.79 257.33 L 646.92 257.04 L 647.09 257.04 L 647.32 257.04 L 647.87 257.01 L 648.12 257.15 L 648.25 257.15 L 648.36 257.15 L 648.51 257.15 L 648.99 256.48 L 649.50 256.46 L 649.95 256.46 L 650.00 256.46"/>
	</g>
	<g id="poloto_plot2" class="poloto_plot poloto_imgs poloto_line poloto2 poloto_stroke" fill="none" stroke="black">
		<path d=" M 150.00 391.84 L 150.03 391.84 L 150.04 391.84 L 150.05 391.84 L 150.08 391.84 L 150.11 389.75 L 150.23 389.46 L 150.51 389.46 L 150.93 389.44 L 151.14 388.19 L 151.56 388.08 L 151.64 388.05 L 151.69 388.02 L 152.18 387.45 L 153.11 387.02 L 153.40 386.93 L 153.48 386.94 L 154.04 386.91 L 154.68 386.91 L 154.68 386.91 L 154.69 386.91 L 163.38 386.91 L 163.44 386.90 L 163.55 386.88 L 163.60 386.88 L 163.93 386.76 L 164.08 386.72 L 164.44 386.52 L 164.50 386.43 L 164.60 386.24 L 164.71 386.22 L 164.75 386.22 L 164.84 386.18 L 164.93 386.18 L 165.03 386.19 L 165.27 385.98 L 165.48 385.78 L 165.52 385.78 L 165.62 385.67 L 166.31 385.42 L 166.33 385.42 L 166.42 385.34 L 166.81 385.06 L 167.13 384.72 L 167.48 384.58 L 167.56 384.58 L 167.57 384.59 L 167.63 384.40 L 167.77 384.40 L 167.94 384.37 L 168.28 384.23 L 168.31 383.99 L 168.37 383.99 L 168.45 383.87 L 168.65 383.87 L 168.66 383.87 L 168.87 383.50 L 168.95 383.48 L 169.02 383.45 L 169.10 383.28 L 170.16 383.18 L 170.41 383.14 L 171.00 382.89 L 171.13 382.89 L 171.22 382.87 L 171.27 382.68 L 171.68 381.66 L 171.86 381.65 L 172.07 381.34 L 172.17 381.31 L 172.41 381.17 L 172.52 381.13 L 172.67 380.91 L 172.80 380.73 L 173.27 380.73 L 173.28 380.70 L 173.30 380.56 L 173.46 379.57 L 181.52 379.47 L 182.35 379.17 L 182.38 379.13 L 183.37 378.89 L 183.45 378.88 L 183.54 378.70 L 183.79 378.58 L 183.90 378.35 L 183.94 378.16 L 184.06 377.80 L 184.35 377.79 L 184.36 377.79 L 184.47 377.53 L 184.58 377.53 L 184.70 377.26 L 184.86 377.05 L 184.92 376.93 L 184.94 376.93 L 185.08 376.68 L 185.10 376.68 L 185.26 376.45 L 185.28 376.44 L 185.51 376.37 L 185.55 376.37 L 185.63 376.28 L 185.73 376.27 L 185.86 376.27 L 185.92 376.25 L 186.37 376.03 L 186.38 376.04 L 186.47 375.59 L 186.67 375.58 L 186.85 375.44 L 186.91 375.44 L 186.99 375.43 L 187.03 375.40 L 187.14 374.79 L 187.64 374.27 L 187.70 373.99 L 187.87 373.97 L 187.92 373.90 L 187.96 373.89 L 188.04 373.76 L 188.12 373.28 L 188.30 373.20 L 188.43 373.19 L 188.53 372.95 L 188.59 372.94 L 189.04 372.76 L 189.29 372.63 L 189.36 372.52 L 189.58 372.51 L 189.59 372.51 L 189.61 372.49 L 189.75 371.61 L 189.85 371.61 L 190.23 371.48 L 190.29 371.13 L 190.36 371.13 L 190.46 370.98 L 190.47 370.90 L 190.51 370.84 L 190.55 370.81 L 190.60 370.80 L 190.65 370.74 L 190.80 369.75 L 190.91 369.65 L 191.02 369.36 L 191.16 369.34 L 191.32 369.24 L 191.48 368.94 L 191.60 368.09 L 191.83 368.02 L 191.84 367.66 L 191.97 367.57 L 203.23 367.57 L 203.44 367.57 L 203.97 367.17 L 204.08 367.17 L 204.17 367.17 L 204.19 367.06 L 204.38 366.89 L 204.51 366.86 L 204.59 366.76 L 204.67 366.68 L 204.71 366.65 L 204.92 366.59 L 205.32 366.67 L 205.42 366.40 L 205.50 366.33 L 205.60 366.32 L 206.12 366.27 L 206.19 366.22 L 206.23 366.22 L 206.26 366.17 L 206.37 366.13 L 206.46 366.03 L 206.84 365.77 L 207.38 365.67 L 207.58 365.62 L 208.18 365.46 L 208.47 365.06 L 208.57 364.99 L 208.69 364.68 L 208.87 364.28 L 209.14 364.18 L 209.52 364.17 L 210.03 364.15 L 210.11 364.00 L 210.48 363.91 L 210.72 363.78 L 210.80 363.68 L 210.94 363.64 L 211.06 363.37 L 212.39 363.24 L 213.65 363.24 L 224.98 363.21 L 225.06 363.07 L 225.12 362.97 L 225.47 362.82 L 226.53 362.55 L 226.57 362.52 L 226.72 362.33 L 227.24 362.26 L 227.49 361.74 L 227.86 361.73 L 227.95 361.71 L 228.03 361.20 L 228.69 360.73 L 228.77 360.72 L 228.90 360.69 L 229.05 360.65 L 229.12 360.48 L 229.49 359.68 L 229.62 359.48 L 229.68 359.47 L 229.76 359.38 L 229.92 359.08 L 229.99 358.28 L 230.15 357.96 L 230.65 357.77 L 230.69 357.37 L 230.74 357.37 L 230.82 357.30 L 230.94 357.20 L 230.98 357.17 L 231.03 357.13 L 231.27 356.21 L 231.32 355.66 L 231.61 355.56 L 231.78 354.64 L 231.89 354.46 L 232.77 353.02 L 232.87 352.99 L 266.15 352.57 L 266.18 352.57 L 278.90 352.45 L 279.59 352.29 L 279.73 352.29 L 279.92 352.22 L 279.98 352.10 L 280.06 352.08 L 285.57 352.06 L 286.30 350.40 L 286.57 350.26 L 286.71 349.68 L 290.15 349.61 L 290.17 349.56 L 290.39 349.55 L 291.41 349.44 L 291.47 349.25 L 291.60 349.18 L 291.96 349.10 L 292.01 349.08 L 292.15 348.75 L 292.31 348.66 L 292.33 348.41 L 303.02 348.10 L 303.10 347.34 L 303.53 347.14 L 303.53 346.86 L 303.61 346.63 L 303.70 346.28 L 303.82 345.37 L 304.00 344.86 L 304.15 344.22 L 304.29 344.21 L 304.34 343.71 L 304.56 343.68 L 305.30 343.21 L 305.60 342.99 L 305.65 342.85 L 305.71 342.85 L 305.75 342.68 L 305.85 342.12 L 306.15 342.06 L 306.20 342.06 L 306.38 341.69 L 306.45 341.69 L 306.48 341.48 L 306.55 341.34 L 306.59 341.34 L 306.63 341.04 L 306.87 340.87 L 306.97 340.57 L 307.10 340.56 L 307.19 340.40 L 307.23 340.18 L 307.46 340.06 L 307.53 339.93 L 307.57 339.93 L 307.63 339.93 L 307.67 339.70 L 307.70 339.70 L 307.71 339.70 L 307.83 339.62 L 307.88 339.37 L 307.99 339.37 L 308.07 339.30 L 308.31 339.28 L 308.61 339.26 L 308.62 339.26 L 308.70 339.24 L 308.97 339.24 L 309.10 339.24 L 309.23 339.24 L 309.37 339.20 L 309.46 338.89 L 309.84 338.89 L 309.87 338.71 L 309.92 338.71 L 309.95 338.51 L 310.20 338.44 L 310.24 338.39 L 310.42 338.39 L 326.87 338.33 L 327.81 338.25 L 327.83 338.25 L 328.02 338.25 L 328.03 338.25 L 328.15 337.89 L 328.25 337.88 L 328.33 337.78 L 328.44 337.72 L 328.47 337.69 L 328.52 337.67 L 328.69 337.64 L 329.05 337.57 L 329.27 337.09 L 329.53 337.06 L 329.54 337.03 L 329.58 336.63 L 329.61 336.62 L 330.10 336.62 L 330.11 336.58 L 330.19 336.21 L 330.40 336.16 L 330.53 336.15 L 330.56 336.14 L 330.57 336.10 L 330.63 336.07 L 330.66 335.69 L 330.68 335.68 L 330.80 335.68 L 330.81 335.65 L 331.07 335.62 L 331.77 335.60 L 331.94 335.57 L 331.99 335.56 L 332.03 335.44 L 332.07 335.44 L 332.17 335.01 L 343.41 334.88 L 343.43 334.75 L 343.52 334.67 L 343.55 334.65 L 343.61 334.29 L 343.74 334.20 L 343.75 334.18 L 343.96 334.18 L 344.01 334.18 L 344.04 333.81 L 344.22 333.77 L 344.71 333.75 L 344.72 333.73 L 344.84 333.54 L 344.89 333.54 L 344.92 333.21 L 345.32 333.21 L 345.33 333.19 L 345.95 333.10 L 346.02 332.70 L 346.24 332.70 L 346.50 332.70 L 346.56 332.40 L 346.60 332.18 L 346.72 332.17 L 347.04 332.12 L 347.10 332.10 L 347.24 332.01 L 347.39 332.01 L 347.86 332.01 L 347.92 332.01 L 348.02 331.99 L 348.03 331.99 L 348.19 331.99 L 348.54 331.96 L 348.91 331.92 L 348.97 331.92 L 349.05 331.87 L 349.15 331.77 L 349.43 331.77 L 349.91 331.64 L 350.06 331.41 L 350.32 331.39 L 351.36 331.14 L 351.58 331.14 L 351.75 331.14 L 352.01 331.13 L 352.09 331.11 L 352.35 330.99 L 352.75 330.97 L 352.81 330.86 L 352.88 330.81 L 352.93 330.82 L 352.97 330.78 L 353.29 330.76 L 360.74 330.76 L 360.81 330.76 L 361.27 330.76 L 361.32 330.74 L 361.42 330.41 L 361.51 330.39 L 361.52 330.40 L 361.78 330.39 L 361.84 330.37 L 363.36 329.88 L 363.54 329.82 L 363.68 329.81 L 363.70 329.81 L 364.18 329.80 L 364.34 329.87 L 364.37 329.86 L 364.62 329.83 L 364.90 329.36 L 364.93 329.35 L 365.17 329.34 L 365.26 329.34 L 365.35 329.34 L 365.54 329.24 L 365.96 328.82 L 366.04 328.82 L 366.11 328.75 L 366.28 328.37 L 366.69 327.94 L 367.05 327.97 L 367.13 327.74 L 367.50 327.74 L 367.57 327.71 L 367.63 327.69 L 367.66 327.46 L 367.79 327.46 L 367.82 327.46 L 367.88 327.46 L 368.10 327.46 L 368.42 327.28 L 368.62 327.26 L 368.85 327.26 L 368.96 327.26 L 369.18 327.26 L 369.56 327.26 L 369.93 327.26 L 370.22 327.26 L 370.29 327.25 L 370.36 327.24 L 370.36 327.17 L 370.58 327.11 L 370.65 327.11 L 370.73 327.10 L 371.35 327.09 L 371.36 326.87 L 371.52 326.87 L 372.24 326.88 L 372.71 326.87 L 373.06 326.82 L 373.06 326.73 L 373.09 326.73 L 383.53 326.59 L 383.56 326.58 L 383.68 326.57 L 383.74 326.44 L 383.78 326.44 L 383.78 326.43 L 384.23 326.39 L 384.33 325.94 L 384.46 325.84 L 384.68 324.95 L 384.83 324.95 L 385.00 324.57 L 385.11 324.61 L 385.15 324.61 L 385.21 324.12 L 385.34 324.04 L 385.35 323.71 L 385.40 323.66 L 385.51 323.63 L 385.58 323.46 L 385.68 325.44 L 385.81 325.41 L 386.06 324.61 L 386.17 324.44 L 386.27 324.26 L 386.91 323.95 L 387.46 323.61 L 388.12 323.15 L 388.29 323.09 L 388.48 323.09 L 388.68 323.05 L 392.52 322.82 L 392.84 322.79 L 429.19 322.17 L 543.67 322.15 L 544.04 321.87 L 544.31 321.83 L 544.57 321.83 L 544.97 321.58 L 545.10 321.28 L 545.21 320.74 L 545.39 320.59 L 545.66 320.64 L 545.87 320.33 L 545.92 320.32 L 546.09 320.22 L 546.13 320.22 L 546.32 319.69 L 546.49 318.88 L 547.01 318.80 L 547.03 318.71 L 547.17 317.66 L 547.67 317.63 L 547.68 317.52 L 547.78 317.46 L 547.89 316.51 L 548.43 316.46 L 548.44 316.32 L 548.55 316.26 L 548.68 315.63 L 548.88 315.61 L 548.89 315.51 L 548.98 314.47 L 548.99 314.45 L 549.04 314.42 L 549.27 314.42 L 549.29 314.31 L 549.37 314.23 L 549.61 314.13 L 549.66 314.13 L 549.85 314.08 L 550.17 314.11 L 550.22 314.07 L 550.26 314.04 L 550.32 314.01 L 550.48 312.93 L 550.65 312.91 L 550.67 312.82 L 550.76 311.71 L 550.86 311.31 L 550.89 311.17 L 550.99 310.63 L 551.03 309.69 L 551.23 309.68 L 551.26 309.63 L 551.36 309.44 L 551.49 309.43 L 552.32 309.40 L 552.73 309.38 L 561.67 309.42 L 561.76 309.21 L 561.85 309.05 L 562.00 308.31 L 562.33 308.29 L 562.36 308.22 L 562.42 307.28 L 562.64 307.27 L 562.66 307.18 L 564.61 307.08 L 564.73 306.74 L 565.72 306.58 L 565.82 306.54 L 565.94 305.50 L 567.12 305.20 L 567.63 304.95 L 567.75 304.16 L 568.18 304.16 L 568.45 303.72 L 568.89 303.04 L 569.67 302.63 L 581.64 302.63 L 582.36 302.62 L 582.39 302.62 L 583.39 302.47 L 583.44 302.38 L 583.79 302.32 L 584.20 301.44 L 584.20 301.44 L 584.25 301.40 L 584.78 301.22 L 586.01 300.64 L 586.09 300.57 L 586.21 300.57 L 586.40 300.32 L 586.45 300.28 L 586.52 300.24 L 587.10 300.24 L 587.56 300.24 L 587.80 300.24 L 587.84 300.20 L 588.35 299.30 L 588.74 299.22 L 588.76 299.15 L 588.81 299.07 L 588.86 298.85 L 601.85 298.68 L 601.87 298.66 L 601.91 298.65 L 602.16 298.54 L 602.36 298.43 L 603.50 297.92 L 603.79 297.82 L 604.61 297.44 L 605.32 297.38 L 605.85 297.22 L 606.00 295.91 L 606.65 295.69 L 606.90 295.62 L 606.98 294.67 L 608.90 293.76 L 608.92 293.76 L 609.03 293.34 L 609.39 293.30 L 609.40 293.30 L 609.42 293.19 L 609.49 293.08 L 609.65 292.98 L 609.86 292.34 L 611.85 292.00 L 612.11 291.85 L 612.29 291.49 L 612.32 291.46 L 612.36 291.23 L 621.20 290.40 L 621.49 289.80 L 621.66 289.78 L 621.72 289.38 L 622.55 289.22 L 622.73 288.79 L 622.88 288.79 L 622.98 287.91 L 623.26 287.70 L 623.30 287.67 L 623.67 287.62 L 623.76 286.89 L 624.08 286.80 L 624.14 286.23 L 624.41 286.17 L 624.60 285.84 L 624.75 285.21 L 625.08 285.08 L 625.12 284.43 L 625.55 285.90 L 625.58 285.90 L 625.65 285.07 L 625.74 285.07 L 625.79 285.00 L 626.28 284.92 L 626.99 284.57 L 627.35 284.75 L 628.52 284.72 L 628.55 284.72 L 628.73 284.70 L 628.81 284.69 L 628.94 284.57 L 629.09 284.47 L 629.24 284.32 L 629.59 284.11 L 629.93 284.09 L 630.97 283.99 L 631.02 283.98 L 632.07 283.87 L 632.52 283.81 L 641.47 283.77 L 641.92 283.73 L 642.14 283.73 L 642.24 283.73 L 642.27 283.73 L 642.49 283.71 L 642.60 283.68 L 642.86 283.53 L 643.02 283.50 L 643.60 283.49 L 643.91 283.41 L 644.41 283.38 L 644.55 283.35 L 644.72 283.28 L 644.94 283.18 L 645.72 283.15 L 645.79 283.13 L 646.92 282.97 L 647.09 282.71 L 647.32 282.61 L 647.87 282.46 L 648.12 282.37 L 648.25 282.74 L 648.36 282.73 L 648.51 282.59 L 648.99 282.25 L 649.50 282.16 L 649.95 282.09 L 650.00 282.05"/>
	</g>
	<g class="poloto_legend poloto_imgs poloto_line poloto0 poloto_stroke"><line x1="680" x2="730" y1="81.25" y2="81.25"/></g>
	<g class="poloto_legend poloto_imgs poloto_line poloto1 poloto_stroke"><line x1="680" x2="730" y1="131.25" y2="131.25"/></g>
	<g class="poloto_legend poloto_imgs poloto_line poloto2 poloto_stroke"><line x1="680" x2="730" y1="181.25" y2="181.25"/></g>
	<text class="poloto_legend poloto_text poloto_line poloto0" x="675" y="100">total</text>
	<text class="poloto_legend poloto_text poloto_line poloto1" x="675" y="150">code</text>
	<text class="poloto_legend poloto_text poloto_line poloto2" x="675" y="200">docs</text>
	<text class="poloto_text poloto_name poloto_title" x="400.00" y="37.50">Workspace lines over time</text>
	<text class="poloto_text poloto_name poloto_x" x="400.00" y="640">date (JST)</text>
	<text class="poloto_text poloto_name poloto_y" x="37.50" y="250.00" transform="rotate(-90,37.50,250.00)">lines</text>
	<text class="poloto_text poloto_ticks poloto_y">
		<tspan x="135.00" y="400.00">0</tspan>
		<tspan x="135.00" y="322.44">50K</tspan>
		<tspan x="135.00" y="244.89">100K</tspan>
		<tspan x="135.00" y="167.33">150K</tspan>
	</text>
	<g class="poloto_imgs poloto_ticks poloto_y" stroke="black">
		<line x1="150.00" x2="144.00" y1="400.00" y2="400.00"/>
		<line x1="150.00" x2="144.00" y1="322.44" y2="322.44"/>
		<line x1="150.00" x2="144.00" y1="244.89" y2="244.89"/>
		<line x1="150.00" x2="144.00" y1="167.33" y2="167.33"/>
	</g>
	<g class="poloto_text poloto_ticks poloto_x">
		<text x="224.83" y="430.00" text-anchor="end" transform="rotate(-90 224.83 430.00)">2026-04-24 12:06</text>
		<text x="340.03" y="430.00" text-anchor="end" transform="rotate(-90 340.03 430.00)">2026-04-30 07:00</text>
		<text x="455.22" y="430.00" text-anchor="end" transform="rotate(-90 455.22 430.00)">2026-05-06 01:53</text>
		<text x="570.41" y="430.00" text-anchor="end" transform="rotate(-90 570.41 430.00)">2026-05-11 20:46</text>
	</g>
	<g class="poloto_imgs poloto_ticks poloto_x" stroke="black">
		<line x1="224.83" x2="224.83" y1="400.00" y2="405.00"/>
		<line x1="340.03" x2="340.03" y1="400.00" y2="405.00"/>
		<line x1="455.22" x2="455.22" y1="400.00" y2="405.00"/>
		<line x1="570.41" x2="570.41" y1="400.00" y2="405.00"/>
	</g>
	<path class="poloto_imgs poloto_ticks poloto_x" stroke="black" style="stroke-dasharray:11.519166049239367;stroke-dashoffset:-74.83380147221033;" d=" M 150.00 400.00 L 650.00 400.00"/>
	<path class="poloto_imgs poloto_ticks poloto_y" stroke="black" style="stroke-dasharray:7.75558531402365;stroke-dashoffset:-0;" d=" M 150.00 400.00 L 150.00 100.00"/>
</svg>

