<svg class="poloto" width="800" height="680" viewBox="0 0 800 680" xmlns="http://www.w3.org/2000/svg">
	<style>
.poloto{
  stroke-linecap:round;
  stroke-linejoin:round;
  font-family:Roboto,sans-serif;
  font-size:16px;
}
.poloto_background{fill:AliceBlue;}
.poloto_scatter{stroke-width:7}
.poloto_line{stroke-width:2}
.poloto_text{fill: black;}
.poloto_name{font-size:24px;dominant-baseline:auto;text-anchor:middle;}
.poloto_where{dominant-baseline:middle;text-anchor:start}
.poloto_text.poloto_legend{font-size:20px;dominant-baseline:middle;text-anchor:start;}
.poloto_text.poloto_ticks.poloto_y{dominant-baseline:middle;text-anchor:end}
.poloto_text.poloto_ticks.poloto_x{dominant-baseline:auto;text-anchor:middle}
.poloto_imgs.poloto_ticks{stroke: black;stroke-width:3;fill:none;stroke-dasharray:none}
.poloto_grid{stroke:gray;stroke-width:0.5}

.poloto0.poloto_stroke{stroke:blue;}
.poloto1.poloto_stroke{stroke:red;}
.poloto2.poloto_stroke{stroke:green;}
.poloto3.poloto_stroke{stroke:gold;}
.poloto4.poloto_stroke{stroke:aqua;}
.poloto5.poloto_stroke{stroke:lime;}
.poloto6.poloto_stroke{stroke:orange;}
.poloto7.poloto_stroke{stroke:chocolate;}
.poloto0.poloto_fill{fill:blue;}
.poloto1.poloto_fill{fill:red;}
.poloto2.poloto_fill{fill:green;}
.poloto3.poloto_fill{fill:gold;}
.poloto4.poloto_fill{fill:aqua;}
.poloto5.poloto_fill{fill:lime;}
.poloto6.poloto_fill{fill:orange;}
.poloto7.poloto_fill{fill:chocolate;}
	</style>
	<circle r="1e5" class="poloto_background" fill="white"/>
	<g id="poloto_plot0" class="poloto_plot poloto_imgs poloto_line poloto0 poloto_stroke" fill="none" stroke="black">
		<path d=" M 150.00 373.72 L 150.02 373.70 L 150.04 373.69 L 150.04 373.69 L 150.06 373.69 L 150.09 370.84 L 150.19 370.49 L 150.42 370.48 L 150.75 370.24 L 150.92 368.79 L 151.27 368.70 L 151.33 368.63 L 151.37 368.60 L 151.77 367.89 L 152.52 367.31 L 152.76 365.07 L 152.82 365.08 L 153.27 364.99 L 153.79 364.98 L 153.80 364.98 L 153.80 364.98 L 160.84 364.98 L 160.89 364.98 L 160.98 364.96 L 161.02 364.93 L 161.28 364.80 L 161.41 364.77 L 161.70 364.56 L 161.75 364.47 L 161.83 364.27 L 161.92 364.24 L 161.95 364.23 L 162.02 364.18 L 162.10 364.18 L 162.17 364.18 L 162.37 363.85 L 162.54 363.65 L 162.57 363.65 L 162.66 363.53 L 163.22 364.04 L 163.23 364.04 L 163.30 363.95 L 163.62 363.57 L 163.88 363.11 L 164.16 362.91 L 164.22 362.87 L 164.23 362.88 L 164.29 362.70 L 164.40 362.70 L 164.54 362.64 L 164.81 362.46 L 164.83 362.20 L 164.88 362.20 L 164.95 362.06 L 165.11 362.06 L 165.12 362.06 L 165.29 361.67 L 165.35 361.65 L 165.41 361.62 L 165.48 361.47 L 166.33 361.26 L 166.54 361.22 L 167.02 360.95 L 167.12 360.95 L 167.19 360.94 L 167.23 360.74 L 167.56 359.61 L 167.71 359.59 L 167.88 359.21 L 167.96 359.18 L 168.16 358.86 L 168.25 358.75 L 168.36 358.55 L 168.47 358.37 L 168.85 355.76 L 168.86 355.70 L 168.88 355.54 L 169.01 354.29 L 175.54 354.19 L 176.21 352.77 L 176.24 352.73 L 177.04 352.51 L 177.10 352.50 L 177.18 352.22 L 177.37 352.08 L 177.46 351.83 L 177.49 351.62 L 177.59 351.25 L 177.83 351.24 L 177.84 350.99 L 177.93 350.71 L 178.02 350.70 L 178.11 350.39 L 178.24 350.16 L 178.29 350.05 L 178.31 350.05 L 178.42 349.80 L 178.44 349.79 L 178.56 349.55 L 178.58 349.54 L 178.77 348.37 L 178.80 348.37 L 178.87 348.17 L 178.95 348.16 L 179.05 348.16 L 179.10 348.13 L 179.47 347.91 L 179.48 347.92 L 179.55 347.40 L 179.71 347.38 L 179.86 346.60 L 179.90 346.53 L 179.97 346.52 L 180.00 346.49 L 180.09 345.89 L 180.50 340.77 L 180.54 340.52 L 180.68 340.50 L 180.72 340.44 L 180.76 340.42 L 180.82 340.28 L 180.89 339.70 L 181.03 339.58 L 181.13 339.57 L 181.22 339.32 L 181.26 339.31 L 181.63 339.12 L 181.83 338.97 L 181.89 338.74 L 182.06 338.73 L 182.08 338.73 L 182.09 338.71 L 182.20 337.48 L 182.29 337.41 L 182.59 336.17 L 182.64 335.81 L 182.70 335.80 L 182.78 335.67 L 182.79 335.57 L 182.82 335.51 L 182.85 335.48 L 182.90 335.47 L 182.93 335.41 L 183.06 334.40 L 183.14 334.25 L 183.23 333.95 L 183.35 333.93 L 183.48 333.83 L 183.61 333.12 L 183.70 332.12 L 183.89 332.06 L 183.90 331.69 L 184.01 331.57 L 193.12 331.57 L 193.30 331.56 L 193.73 331.03 L 193.82 331.02 L 193.89 331.02 L 193.90 330.89 L 194.06 330.73 L 194.16 330.70 L 194.23 330.60 L 194.29 330.53 L 194.33 330.49 L 194.49 330.45 L 194.82 330.38 L 194.90 330.11 L 194.96 330.04 L 195.04 330.04 L 195.47 329.90 L 195.53 329.82 L 195.55 329.82 L 195.58 329.72 L 195.67 329.67 L 195.74 329.57 L 196.05 328.91 L 196.49 328.80 L 196.65 328.76 L 197.14 328.59 L 197.37 325.37 L 197.45 325.31 L 197.55 324.99 L 197.69 324.57 L 197.91 324.45 L 198.22 324.44 L 198.64 324.43 L 198.70 324.29 L 199.00 324.14 L 199.20 323.90 L 199.26 323.81 L 199.38 323.77 L 199.47 323.49 L 200.54 323.17 L 201.57 323.17 L 210.75 323.14 L 210.81 323.00 L 210.86 322.91 L 211.14 322.77 L 212.00 321.66 L 212.04 321.59 L 212.16 321.31 L 212.58 321.23 L 212.78 320.48 L 213.08 320.48 L 213.15 320.46 L 213.22 319.95 L 213.75 317.02 L 213.82 317.02 L 213.93 316.99 L 214.05 316.96 L 214.10 316.64 L 214.40 315.54 L 214.50 315.33 L 214.55 315.32 L 214.62 314.81 L 214.75 314.09 L 214.81 313.33 L 214.94 312.99 L 215.34 309.18 L 215.38 308.80 L 215.41 308.80 L 215.48 308.73 L 215.57 308.63 L 215.61 308.60 L 215.65 308.56 L 215.84 307.64 L 215.89 307.00 L 216.12 306.87 L 216.26 305.92 L 216.34 305.31 L 217.06 296.44 L 217.14 296.42 L 244.10 296.00 L 244.13 296.00 L 254.43 295.87 L 254.99 295.63 L 255.11 295.63 L 255.26 295.56 L 255.31 295.45 L 255.37 295.42 L 259.84 295.36 L 260.43 293.67 L 260.65 293.52 L 260.76 292.90 L 263.55 292.77 L 263.56 292.60 L 263.74 292.59 L 264.57 291.52 L 264.62 291.33 L 264.72 291.26 L 265.01 291.19 L 265.05 291.16 L 265.17 290.84 L 265.30 290.76 L 265.32 290.52 L 273.98 290.19 L 274.04 289.28 L 274.38 289.08 L 274.39 287.56 L 274.45 287.34 L 274.52 286.96 L 274.62 285.91 L 274.77 285.36 L 274.89 284.71 L 275.00 284.70 L 275.05 284.20 L 275.22 284.16 L 275.82 281.71 L 276.06 281.45 L 276.10 281.29 L 276.15 281.29 L 276.18 281.12 L 276.27 280.52 L 276.51 280.23 L 276.55 280.19 L 276.70 278.04 L 276.75 278.03 L 276.78 277.80 L 276.83 277.62 L 276.87 277.62 L 276.90 277.30 L 277.09 276.13 L 277.17 275.80 L 277.28 275.76 L 277.35 272.64 L 277.38 272.38 L 277.57 270.60 L 277.63 270.47 L 277.66 270.46 L 277.71 270.46 L 277.74 270.21 L 277.77 270.22 L 277.78 270.21 L 277.87 267.06 L 277.91 266.79 L 278.00 266.77 L 278.07 266.72 L 278.26 266.63 L 278.50 266.51 L 278.51 266.51 L 278.57 266.47 L 278.80 266.41 L 278.90 266.41 L 279.01 266.41 L 279.12 265.04 L 279.19 264.71 L 279.50 264.70 L 279.53 264.49 L 279.57 264.49 L 279.59 264.25 L 279.79 262.27 L 279.83 262.22 L 279.97 262.21 L 293.30 262.15 L 294.05 262.05 L 294.08 262.05 L 294.23 262.05 L 294.24 262.05 L 294.34 261.65 L 294.41 261.64 L 294.48 261.44 L 294.57 261.39 L 294.60 261.37 L 294.63 261.35 L 294.77 261.13 L 295.06 260.93 L 295.24 260.29 L 295.45 259.69 L 295.46 259.65 L 295.49 259.09 L 295.52 259.07 L 295.91 258.73 L 295.92 258.69 L 295.98 258.24 L 296.15 258.19 L 296.26 258.15 L 296.29 257.34 L 296.29 257.30 L 296.34 258.07 L 296.37 257.60 L 296.39 257.58 L 296.48 256.50 L 296.49 256.47 L 296.70 256.39 L 297.27 256.37 L 297.40 256.33 L 297.45 256.32 L 297.47 256.18 L 297.51 256.18 L 297.59 255.65 L 306.70 254.62 L 306.71 254.48 L 306.79 254.39 L 306.81 254.19 L 306.86 245.21 L 306.96 241.54 L 306.97 241.51 L 307.14 241.44 L 307.18 241.44 L 307.21 241.02 L 307.36 240.98 L 307.75 240.11 L 307.76 240.09 L 307.86 239.82 L 307.90 239.83 L 307.92 239.40 L 308.25 238.88 L 308.26 238.86 L 308.76 238.67 L 308.82 238.21 L 308.99 238.22 L 309.20 237.06 L 309.25 236.60 L 309.29 236.23 L 309.38 235.79 L 309.64 235.63 L 309.68 235.52 L 309.80 235.41 L 309.92 235.41 L 310.30 235.42 L 310.35 235.42 L 310.44 235.40 L 310.44 235.39 L 310.57 235.41 L 310.86 235.38 L 311.15 235.21 L 311.20 235.21 L 311.26 235.15 L 311.35 235.02 L 311.58 235.02 L 311.96 234.86 L 312.09 234.50 L 312.30 231.41 L 313.14 234.02 L 313.32 234.01 L 313.45 234.00 L 313.66 234.00 L 313.73 233.95 L 313.94 233.80 L 314.27 233.59 L 314.31 233.44 L 314.37 233.38 L 314.41 233.40 L 314.44 233.35 L 314.70 233.16 L 320.74 233.16 L 320.79 233.16 L 321.17 233.15 L 321.21 233.13 L 321.29 232.74 L 321.36 232.52 L 321.37 232.52 L 321.58 232.48 L 321.63 232.46 L 322.86 231.88 L 323.01 231.83 L 323.12 231.82 L 323.14 231.82 L 323.52 231.68 L 323.65 231.75 L 323.68 231.74 L 323.88 231.71 L 324.11 230.48 L 324.14 230.47 L 324.32 230.33 L 324.40 230.33 L 324.47 230.33 L 324.63 230.20 L 324.96 229.70 L 325.03 229.69 L 325.09 229.55 L 325.23 228.97 L 325.56 228.36 L 325.85 225.51 L 325.91 225.17 L 326.22 225.03 L 326.27 224.96 L 326.32 224.82 L 326.35 224.36 L 326.45 223.54 L 326.48 223.57 L 326.53 223.56 L 326.70 223.55 L 326.96 223.25 L 327.12 223.20 L 327.31 223.18 L 327.40 223.17 L 327.58 223.16 L 327.88 223.16 L 328.19 223.16 L 328.42 223.15 L 328.47 223.14 L 328.53 223.14 L 328.53 223.04 L 328.71 222.98 L 328.76 222.97 L 328.84 222.84 L 329.33 222.82 L 329.34 222.58 L 329.47 222.57 L 330.05 222.57 L 330.44 222.42 L 330.72 222.24 L 330.72 222.14 L 330.75 222.14 L 339.20 221.97 L 339.23 221.97 L 339.33 221.96 L 339.37 221.81 L 339.40 221.80 L 339.41 221.79 L 339.77 221.75 L 339.85 221.24 L 339.96 221.12 L 340.14 220.10 L 340.25 220.09 L 340.40 219.66 L 340.48 219.72 L 340.52 219.71 L 340.56 219.22 L 340.67 218.88 L 340.68 218.52 L 340.72 218.47 L 340.81 218.44 L 340.87 218.28 L 340.94 220.22 L 341.05 220.18 L 341.25 219.41 L 341.34 219.21 L 341.43 219.05 L 341.94 217.94 L 342.39 217.40 L 342.92 216.38 L 343.06 216.33 L 343.21 216.33 L 343.38 216.28 L 346.49 215.99 L 346.74 215.96 L 376.20 215.18 L 468.94 215.00 L 469.25 214.68 L 469.46 214.64 L 469.67 214.64 L 470.00 214.04 L 470.11 213.75 L 470.19 213.21 L 470.34 211.64 L 470.55 211.96 L 470.72 211.63 L 470.77 211.62 L 470.91 211.52 L 470.94 211.52 L 471.09 210.95 L 471.23 210.03 L 471.65 209.06 L 471.66 208.98 L 471.78 207.82 L 472.18 204.94 L 472.19 204.85 L 472.27 204.78 L 472.37 203.76 L 472.80 202.37 L 472.81 202.25 L 472.90 202.18 L 473.00 201.50 L 473.16 200.96 L 473.17 200.86 L 473.24 199.81 L 473.26 199.78 L 473.30 199.49 L 473.48 197.62 L 473.50 197.51 L 473.56 197.40 L 473.76 197.15 L 473.80 197.15 L 473.95 196.79 L 474.21 196.83 L 474.25 196.78 L 474.29 196.76 L 474.33 196.73 L 474.46 195.63 L 474.60 194.74 L 474.62 194.66 L 474.69 193.54 L 474.77 192.44 L 474.79 192.31 L 474.87 191.03 L 474.91 190.02 L 475.07 189.34 L 475.09 189.29 L 475.17 189.08 L 475.28 189.06 L 475.95 189.03 L 476.28 189.00 L 483.53 189.05 L 483.60 188.85 L 483.67 188.68 L 483.79 187.93 L 484.07 187.73 L 484.09 187.66 L 484.14 186.66 L 484.31 185.70 L 484.33 185.62 L 485.91 185.55 L 486.01 185.01 L 486.81 184.84 L 486.89 184.81 L 486.99 183.68 L 487.95 182.63 L 488.36 182.23 L 488.46 181.41 L 488.80 179.99 L 489.02 179.59 L 489.37 178.76 L 490.01 178.34 L 499.71 178.33 L 500.29 178.23 L 500.31 178.25 L 501.13 178.09 L 501.17 178.01 L 501.45 177.94 L 501.78 177.02 L 501.78 177.02 L 501.82 176.99 L 502.25 175.94 L 503.25 175.34 L 503.31 175.28 L 503.41 175.27 L 503.57 175.00 L 503.61 174.92 L 503.66 174.87 L 504.13 174.83 L 504.50 174.83 L 504.70 174.83 L 504.73 174.79 L 505.14 173.87 L 505.46 173.70 L 505.48 173.63 L 505.51 173.56 L 505.56 173.31 L 516.08 172.96 L 516.10 172.94 L 516.13 172.92 L 516.33 172.82 L 516.49 172.71 L 517.42 171.30 L 517.65 171.13 L 518.32 170.70 L 518.90 170.60 L 519.32 170.47 L 519.44 169.16 L 519.97 167.64 L 520.17 167.53 L 520.24 166.55 L 521.80 164.73 L 521.81 164.73 L 521.90 164.29 L 522.19 164.24 L 522.20 164.24 L 522.21 164.13 L 522.27 163.99 L 522.40 163.85 L 522.57 163.09 L 524.18 161.26 L 524.39 161.04 L 524.54 160.71 L 524.56 160.67 L 524.59 160.42 L 531.76 159.59 L 531.99 158.96 L 532.13 158.93 L 532.18 158.51 L 532.85 158.32 L 533.00 157.90 L 533.12 157.90 L 533.20 157.03 L 533.42 154.79 L 533.46 154.76 L 533.76 154.72 L 533.83 153.99 L 534.09 153.12 L 534.14 152.51 L 534.36 151.95 L 534.51 151.66 L 534.63 150.99 L 534.90 150.42 L 534.93 149.78 L 535.28 149.64 L 535.31 149.64 L 535.37 148.83 L 535.44 148.83 L 535.47 148.77 L 535.87 147.25 L 536.45 146.75 L 536.74 146.92 L 537.69 146.84 L 537.71 146.84 L 537.86 146.82 L 537.92 146.80 L 538.03 146.70 L 538.15 146.61 L 538.27 146.45 L 538.56 146.23 L 538.83 146.21 L 539.68 146.06 L 539.72 146.05 L 540.57 145.91 L 540.93 145.82 L 548.18 145.80 L 548.54 145.69 L 548.73 145.62 L 548.81 145.62 L 548.83 145.62 L 549.01 145.59 L 549.10 145.54 L 549.31 145.40 L 549.44 145.37 L 549.91 145.22 L 550.16 144.88 L 550.56 144.83 L 550.68 144.61 L 550.82 144.47 L 551.00 144.30 L 551.62 144.34 L 551.68 144.33 L 552.59 143.91 L 552.74 143.66 L 552.92 143.57 L 553.36 143.38 L 553.57 143.43 L 553.67 143.76 L 553.76 143.74 L 553.89 143.60 L 554.27 142.61 L 554.68 142.50 L 555.05 142.42 L 555.09 142.37 L 555.13 142.09 L 581.36 142.02 L 581.53 141.90 L 596.62 141.57 L 596.70 141.94 L 596.82 140.41 L 596.84 140.41 L 596.88 140.45 L 597.42 137.35 L 597.48 137.32 L 598.14 137.39 L 598.82 137.20 L 599.06 136.91 L 599.48 136.53 L 600.04 136.29 L 600.06 136.29 L 600.13 136.23 L 600.35 136.17 L 600.42 136.02 L 600.96 135.27 L 601.67 135.11 L 601.74 134.96 L 602.10 134.90 L 602.20 135.49 L 602.47 135.27 L 602.70 135.22 L 603.16 135.06 L 603.60 134.98 L 603.82 134.65 L 603.83 134.65 L 613.27 134.64 L 616.23 133.79 L 616.35 133.39 L 616.50 133.00 L 616.98 132.97 L 617.18 132.84 L 617.33 130.85 L 617.43 129.56 L 617.65 129.44 L 617.68 129.42 L 618.01 129.04 L 618.12 128.84 L 618.18 128.74 L 618.35 128.42 L 618.42 128.40 L 618.51 128.36 L 618.58 128.17 L 618.66 127.96 L 618.76 127.84 L 618.82 127.80 L 619.13 127.72 L 619.28 127.49 L 619.40 127.37 L 619.44 126.74 L 619.79 126.62 L 619.92 126.25 L 628.82 126.33 L 629.47 126.11 L 629.58 126.10 L 629.98 125.36 L 630.16 125.26 L 630.90 124.06 L 631.22 123.94 L 631.65 122.85 L 631.71 122.85 L 631.96 122.82 L 632.05 122.20 L 632.39 121.32 L 632.91 120.80 L 633.08 120.17 L 636.22 118.57 L 636.52 118.10 L 636.54 118.10 L 644.89 116.61 L 644.90 116.61 L 645.00 116.55 L 645.10 115.73 L 645.49 114.79 L 645.52 114.78 L 645.97 114.66 L 646.64 114.54 L 647.41 114.50 L 647.46 114.44 L 647.54 114.39 L 647.67 114.39 L 647.88 114.26 L 647.98 114.19 L 648.09 114.18 L 648.23 114.04 L 649.37 113.51 L 649.49 112.69 L 649.75 100.40 L 649.85 100.30 L 649.92 100.27 L 650.00 100.00"/>
	</g>
	<g id="poloto_plot1" class="poloto_plot poloto_imgs poloto_line poloto1 poloto_stroke" fill="none" stroke="black">
		<path d=" M 150.00 384.39 L 150.02 384.37 L 150.04 384.36 L 150.04 384.36 L 150.06 384.36 L 150.09 383.87 L 150.19 383.85 L 150.42 383.84 L 150.75 383.66 L 150.92 383.57 L 151.27 383.59 L 151.33 383.56 L 151.37 383.56 L 151.77 383.52 L 152.52 383.43 L 152.76 381.50 L 152.82 381.50 L 153.27 381.45 L 153.79 381.44 L 153.80 381.44 L 153.80 381.44 L 160.84 381.44 L 160.89 381.44 L 160.98 381.44 L 161.02 381.42 L 161.28 381.40 L 161.41 381.40 L 161.70 381.40 L 161.75 381.40 L 161.83 381.39 L 161.92 381.39 L 161.95 381.39 L 162.02 381.37 L 162.10 381.37 L 162.17 381.37 L 162.37 381.26 L 162.54 381.26 L 162.57 381.26 L 162.66 381.26 L 163.22 381.99 L 163.23 381.99 L 163.30 381.98 L 163.62 381.87 L 163.88 381.75 L 164.16 381.69 L 164.22 381.66 L 164.23 381.66 L 164.29 381.66 L 164.40 381.66 L 164.54 381.61 L 164.81 381.57 L 164.83 381.57 L 164.88 381.57 L 164.95 381.55 L 165.11 381.55 L 165.12 381.55 L 165.29 381.54 L 165.35 381.54 L 165.41 381.54 L 165.48 381.54 L 166.33 381.45 L 166.54 381.45 L 167.02 381.41 L 167.12 381.41 L 167.19 381.41 L 167.23 381.41 L 167.56 381.35 L 167.71 381.35 L 167.88 381.28 L 167.96 381.27 L 168.16 381.12 L 168.25 381.06 L 168.36 381.06 L 168.47 381.06 L 168.85 378.80 L 168.86 378.76 L 168.88 378.76 L 169.01 378.54 L 175.54 378.54 L 176.21 377.57 L 176.24 377.57 L 177.04 377.57 L 177.10 377.57 L 177.18 377.47 L 177.37 377.45 L 177.46 377.45 L 177.49 377.45 L 177.59 377.45 L 177.83 377.45 L 177.84 377.24 L 177.93 377.23 L 178.02 377.23 L 178.11 377.21 L 178.24 377.21 L 178.29 377.21 L 178.31 377.21 L 178.42 377.21 L 178.44 377.21 L 178.56 377.21 L 178.58 377.21 L 178.77 376.25 L 178.80 376.25 L 178.87 376.13 L 178.95 376.13 L 179.05 376.13 L 179.10 376.12 L 179.47 376.12 L 179.48 376.12 L 179.55 376.06 L 179.71 376.06 L 179.86 375.51 L 179.90 375.44 L 179.97 375.44 L 180.00 375.44 L 180.09 375.43 L 180.50 371.40 L 180.54 371.43 L 180.68 371.43 L 180.72 371.43 L 180.76 371.42 L 180.82 371.42 L 180.89 371.37 L 181.03 371.37 L 181.13 371.37 L 181.22 371.36 L 181.26 371.36 L 181.63 371.36 L 181.83 371.35 L 181.89 371.25 L 182.06 371.25 L 182.08 371.25 L 182.09 371.25 L 182.20 370.98 L 182.29 370.91 L 182.59 369.95 L 182.64 369.95 L 182.70 369.95 L 182.78 369.97 L 182.79 369.97 L 182.82 369.97 L 182.85 369.97 L 182.90 369.97 L 182.93 369.97 L 183.06 369.95 L 183.14 369.95 L 183.23 369.94 L 183.35 369.94 L 183.48 369.93 L 183.61 369.57 L 183.70 369.45 L 183.89 369.45 L 183.90 369.45 L 184.01 369.45 L 193.12 369.45 L 193.30 369.44 L 193.73 369.38 L 193.82 369.37 L 193.89 369.37 L 193.90 369.37 L 194.06 369.37 L 194.16 369.37 L 194.23 369.37 L 194.29 369.37 L 194.33 369.37 L 194.49 369.37 L 194.82 369.39 L 194.90 369.39 L 194.96 369.39 L 195.04 369.39 L 195.47 369.31 L 195.53 369.27 L 195.55 369.27 L 195.58 369.22 L 195.67 369.22 L 195.74 369.22 L 196.05 368.85 L 196.49 368.85 L 196.65 368.85 L 197.14 368.85 L 197.37 366.38 L 197.45 366.38 L 197.55 366.38 L 197.69 366.38 L 197.91 366.38 L 198.22 366.38 L 198.64 366.38 L 198.70 366.38 L 199.00 366.32 L 199.20 366.21 L 199.26 366.21 L 199.38 366.21 L 199.47 366.20 L 200.54 366.04 L 201.57 366.04 L 210.75 366.04 L 210.81 366.04 L 210.86 366.04 L 211.14 366.04 L 212.00 365.26 L 212.04 365.24 L 212.16 365.16 L 212.58 365.15 L 212.78 364.97 L 213.08 364.97 L 213.15 364.97 L 213.22 364.97 L 213.75 362.80 L 213.82 362.80 L 213.93 362.80 L 214.05 362.80 L 214.10 362.66 L 214.40 362.40 L 214.50 362.40 L 214.55 362.40 L 214.62 362.01 L 214.75 361.61 L 214.81 361.61 L 214.94 361.60 L 215.34 358.37 L 215.38 358.37 L 215.41 358.37 L 215.48 358.37 L 215.57 358.37 L 215.61 358.37 L 215.65 358.37 L 215.84 358.37 L 215.89 358.30 L 216.12 358.29 L 216.26 358.24 L 216.34 357.85 L 217.06 351.43 L 217.14 351.43 L 244.10 351.43 L 244.13 351.43 L 254.43 351.43 L 254.99 351.33 L 255.11 351.33 L 255.26 351.33 L 255.31 351.33 L 255.37 351.33 L 259.84 351.28 L 260.43 351.22 L 260.65 351.22 L 260.76 351.20 L 263.55 351.15 L 263.56 351.06 L 263.74 351.06 L 264.57 350.19 L 264.62 350.19 L 264.72 350.19 L 265.01 350.19 L 265.05 350.19 L 265.17 350.19 L 265.30 350.19 L 265.32 350.19 L 273.98 350.18 L 274.04 350.02 L 274.38 350.02 L 274.39 348.97 L 274.45 348.97 L 274.52 348.97 L 274.62 348.88 L 274.77 348.88 L 274.89 348.83 L 275.00 348.83 L 275.05 348.83 L 275.22 348.82 L 275.82 347.04 L 276.06 347.03 L 276.10 347.02 L 276.15 347.02 L 276.18 347.02 L 276.27 346.99 L 276.51 346.77 L 276.55 346.74 L 276.70 345.14 L 276.75 345.14 L 276.78 345.14 L 276.83 345.11 L 276.87 345.11 L 276.90 345.11 L 277.09 344.24 L 277.17 344.23 L 277.28 344.21 L 277.35 341.50 L 277.38 341.50 L 277.57 339.97 L 277.63 339.97 L 277.66 339.97 L 277.71 339.97 L 277.74 339.97 L 277.77 339.97 L 277.78 339.97 L 277.87 337.15 L 277.91 337.14 L 278.00 337.13 L 278.07 337.13 L 278.26 337.08 L 278.50 337.00 L 278.51 337.00 L 278.57 336.98 L 278.80 336.94 L 278.90 336.94 L 279.01 336.94 L 279.12 335.72 L 279.19 335.72 L 279.50 335.72 L 279.53 335.71 L 279.57 335.71 L 279.59 335.71 L 279.79 333.97 L 279.83 333.97 L 279.97 333.96 L 293.30 333.96 L 294.05 333.95 L 294.08 333.95 L 294.23 333.95 L 294.24 333.95 L 294.34 333.95 L 294.41 333.95 L 294.48 333.86 L 294.57 333.86 L 294.60 333.86 L 294.63 333.86 L 294.77 333.71 L 295.06 333.61 L 295.24 333.51 L 295.45 333.01 L 295.46 333.01 L 295.49 332.89 L 295.52 332.88 L 295.91 332.58 L 295.92 332.58 L 295.98 332.53 L 296.15 332.53 L 296.26 332.50 L 296.29 331.78 L 296.29 331.78 L 296.34 332.49 L 296.37 332.45 L 296.39 332.44 L 296.48 331.48 L 296.49 331.48 L 296.70 331.44 L 297.27 331.44 L 297.40 331.44 L 297.45 331.44 L 297.47 331.44 L 297.51 331.44 L 297.59 331.37 L 306.70 330.57 L 306.71 330.57 L 306.79 330.57 L 306.81 330.39 L 306.86 321.82 L 306.96 318.63 L 306.97 318.63 L 307.14 318.57 L 307.18 318.57 L 307.21 318.56 L 307.36 318.56 L 307.75 317.78 L 307.76 317.78 L 307.86 317.74 L 307.90 317.74 L 307.92 317.67 L 308.25 317.21 L 308.26 317.21 L 308.76 317.11 L 308.82 317.08 L 308.99 317.09 L 309.20 316.03 L 309.25 315.93 L 309.29 315.83 L 309.38 315.43 L 309.64 315.34 L 309.68 315.25 L 309.80 315.25 L 309.92 315.25 L 310.30 315.25 L 310.35 315.25 L 310.44 315.25 L 310.44 315.25 L 310.57 315.26 L 310.86 315.26 L 311.15 315.15 L 311.20 315.15 L 311.26 315.14 L 311.35 315.14 L 311.58 315.14 L 311.96 315.14 L 312.09 315.05 L 312.30 312.28 L 313.14 314.89 L 313.32 314.88 L 313.45 314.87 L 313.66 314.87 L 313.73 314.84 L 313.94 314.82 L 314.27 314.67 L 314.31 314.67 L 314.37 314.67 L 314.41 314.67 L 314.44 314.67 L 314.70 314.51 L 320.74 314.51 L 320.79 314.52 L 321.17 314.51 L 321.21 314.51 L 321.29 314.48 L 321.36 314.29 L 321.37 314.28 L 321.58 314.26 L 321.63 314.26 L 322.86 314.10 L 323.01 314.10 L 323.12 314.10 L 323.14 314.10 L 323.52 313.99 L 323.65 313.99 L 323.68 313.99 L 323.88 313.99 L 324.11 313.33 L 324.14 313.33 L 324.32 313.22 L 324.40 313.22 L 324.47 313.22 L 324.63 313.22 L 324.96 313.21 L 325.03 313.19 L 325.09 313.13 L 325.23 313.02 L 325.56 312.92 L 325.85 310.31 L 325.91 310.22 L 326.22 310.10 L 326.27 310.07 L 326.32 309.98 L 326.35 309.79 L 326.45 309.01 L 326.48 309.04 L 326.53 309.03 L 326.70 309.02 L 326.96 308.92 L 327.12 308.88 L 327.31 308.86 L 327.40 308.85 L 327.58 308.85 L 327.88 308.85 L 328.19 308.84 L 328.42 308.84 L 328.47 308.83 L 328.53 308.83 L 328.53 308.82 L 328.71 308.82 L 328.76 308.81 L 328.84 308.72 L 329.33 308.71 L 329.34 308.71 L 329.47 308.70 L 330.05 308.69 L 330.44 308.56 L 330.72 308.45 L 330.72 308.45 L 330.75 308.45 L 339.20 308.45 L 339.23 308.45 L 339.33 308.45 L 339.37 308.45 L 339.40 308.44 L 339.41 308.44 L 339.77 308.44 L 339.85 308.43 L 339.96 308.41 L 340.14 308.39 L 340.25 308.39 L 340.40 308.33 L 340.48 308.33 L 340.52 308.33 L 340.56 308.33 L 340.67 308.09 L 340.68 308.09 L 340.72 308.09 L 340.81 308.09 L 340.87 308.09 L 340.94 308.15 L 341.05 308.15 L 341.25 308.14 L 341.34 308.14 L 341.43 308.14 L 341.94 307.37 L 342.39 307.16 L 342.92 306.62 L 343.06 306.62 L 343.21 306.62 L 343.38 306.62 L 346.49 306.55 L 346.74 306.55 L 376.20 306.45 L 468.94 306.31 L 469.25 306.26 L 469.46 306.26 L 469.67 306.26 L 470.00 305.90 L 470.11 305.90 L 470.19 305.90 L 470.34 304.62 L 470.55 304.86 L 470.72 304.84 L 470.77 304.84 L 470.91 304.83 L 470.94 304.83 L 471.09 304.83 L 471.23 304.77 L 471.65 303.96 L 471.66 303.96 L 471.78 303.88 L 472.18 301.25 L 472.19 301.25 L 472.27 301.25 L 472.37 301.21 L 472.80 299.98 L 472.81 299.98 L 472.90 299.98 L 473.00 299.95 L 473.16 299.51 L 473.17 299.51 L 473.24 299.50 L 473.26 299.50 L 473.30 299.25 L 473.48 297.51 L 473.50 297.51 L 473.56 297.51 L 473.76 297.37 L 473.80 297.37 L 473.95 297.08 L 474.21 297.08 L 474.25 297.08 L 474.29 297.08 L 474.33 297.08 L 474.46 297.07 L 474.60 296.29 L 474.62 296.29 L 474.69 296.28 L 474.77 295.69 L 474.79 295.69 L 474.87 295.06 L 474.91 295.02 L 475.07 294.40 L 475.09 294.40 L 475.17 294.40 L 475.28 294.39 L 475.95 294.39 L 476.28 294.38 L 483.53 294.38 L 483.60 294.38 L 483.67 294.38 L 483.79 294.38 L 484.07 294.22 L 484.09 294.22 L 484.14 294.17 L 484.31 293.29 L 484.33 293.29 L 485.91 293.31 L 486.01 293.14 L 486.81 293.14 L 486.89 293.14 L 486.99 293.07 L 487.95 292.36 L 488.36 292.22 L 488.46 292.17 L 488.80 290.81 L 489.02 290.81 L 489.37 290.70 L 490.01 290.70 L 499.71 290.70 L 500.29 290.61 L 500.31 290.63 L 501.13 290.63 L 501.17 290.63 L 501.45 290.63 L 501.78 290.60 L 501.78 290.60 L 501.82 290.60 L 502.25 289.81 L 503.25 289.79 L 503.31 289.79 L 503.41 289.78 L 503.57 289.75 L 503.61 289.73 L 503.66 289.73 L 504.13 289.69 L 504.50 289.69 L 504.70 289.69 L 504.73 289.69 L 505.14 289.67 L 505.46 289.58 L 505.48 289.58 L 505.51 289.58 L 505.56 289.58 L 516.08 289.40 L 516.10 289.40 L 516.13 289.40 L 516.33 289.40 L 516.49 289.40 L 517.42 288.61 L 517.65 288.56 L 518.32 288.50 L 518.90 288.46 L 519.32 288.46 L 519.44 288.46 L 519.97 287.28 L 520.17 287.24 L 520.24 287.20 L 521.80 286.37 L 521.81 286.37 L 521.90 286.36 L 522.19 286.35 L 522.20 286.35 L 522.21 286.35 L 522.27 286.32 L 522.40 286.29 L 522.57 286.20 L 524.18 284.82 L 524.39 284.75 L 524.54 284.75 L 524.56 284.75 L 524.59 284.75 L 531.76 284.75 L 531.99 284.75 L 532.13 284.75 L 532.18 284.75 L 532.85 284.75 L 533.00 284.75 L 533.12 284.75 L 533.20 284.72 L 533.42 282.91 L 533.46 282.90 L 533.76 282.91 L 533.83 282.90 L 534.09 282.20 L 534.14 282.16 L 534.36 281.71 L 534.51 281.71 L 534.63 281.66 L 534.90 281.25 L 534.93 281.24 L 535.28 279.91 L 535.31 279.91 L 535.37 279.90 L 535.44 279.90 L 535.47 279.90 L 535.87 278.56 L 536.45 278.44 L 536.74 278.44 L 537.69 278.40 L 537.71 278.40 L 537.86 278.40 L 537.92 278.40 L 538.03 278.40 L 538.15 278.40 L 538.27 278.38 L 538.56 278.36 L 538.83 278.36 L 539.68 278.31 L 539.72 278.31 L 540.57 278.27 L 540.93 278.23 L 548.18 278.25 L 548.54 278.18 L 548.73 278.11 L 548.81 278.11 L 548.83 278.11 L 549.01 278.10 L 549.10 278.10 L 549.31 278.10 L 549.44 278.10 L 549.91 277.98 L 550.16 277.73 L 550.56 277.72 L 550.68 277.55 L 550.82 277.48 L 551.00 277.41 L 551.62 277.48 L 551.68 277.48 L 552.59 277.23 L 552.74 277.23 L 552.92 277.23 L 553.36 277.21 L 553.57 277.33 L 553.67 277.33 L 553.76 277.33 L 553.89 277.33 L 554.27 276.75 L 554.68 276.74 L 555.05 276.73 L 555.09 276.73 L 555.13 276.73 L 581.36 276.73 L 581.53 276.69 L 596.62 276.50 L 596.70 276.50 L 596.82 276.45 L 596.84 276.45 L 596.88 276.45 L 597.42 274.21 L 597.48 274.21 L 598.14 274.21 L 598.82 274.11 L 599.06 273.89 L 599.48 273.60 L 600.04 273.53 L 600.06 273.53 L 600.13 273.48 L 600.35 273.48 L 600.42 273.44 L 600.96 272.84 L 601.67 272.74 L 601.74 272.74 L 602.10 272.74 L 602.20 272.74 L 602.47 272.59 L 602.70 272.57 L 603.16 272.44 L 603.60 272.37 L 603.82 272.37 L 603.83 272.37 L 613.27 272.37 L 616.23 272.33 L 616.35 272.31 L 616.50 272.04 L 616.98 272.06 L 617.18 272.06 L 617.33 272.06 L 617.43 271.94 L 617.65 271.86 L 617.68 271.85 L 618.01 271.64 L 618.12 271.49 L 618.18 271.44 L 618.35 271.34 L 618.42 271.34 L 618.51 271.32 L 618.58 271.19 L 618.66 271.05 L 618.76 271.02 L 618.82 271.02 L 619.13 270.97 L 619.28 270.86 L 619.40 270.77 L 619.44 270.77 L 619.79 270.77 L 619.92 270.77 L 628.82 270.79 L 629.47 270.78 L 629.58 270.78 L 629.98 270.40 L 630.16 270.35 L 630.90 270.31 L 631.22 270.31 L 631.65 269.41 L 631.71 269.41 L 631.96 269.39 L 632.05 269.38 L 632.39 269.33 L 632.91 268.91 L 633.08 268.90 L 636.22 267.92 L 636.52 267.92 L 636.54 267.92 L 644.89 267.90 L 644.90 267.90 L 645.00 267.90 L 645.10 267.79 L 645.49 266.95 L 645.52 266.95 L 645.97 266.95 L 646.64 266.95 L 647.41 266.95 L 647.46 266.95 L 647.54 266.95 L 647.67 266.95 L 647.88 266.83 L 647.98 266.83 L 648.09 266.83 L 648.23 266.69 L 649.37 266.56 L 649.49 266.56 L 649.75 254.81 L 649.85 254.81 L 649.92 254.79 L 650.00 254.59"/>
	</g>
	<g id="poloto_plot2" class="poloto_plot poloto_imgs poloto_line poloto2 poloto_stroke" fill="none" stroke="black">
		<path d=" M 150.00 392.99 L 150.02 392.99 L 150.04 392.99 L 150.04 392.99 L 150.06 392.99 L 150.09 391.20 L 150.19 390.95 L 150.42 390.95 L 150.75 390.93 L 150.92 389.86 L 151.27 389.77 L 151.33 389.74 L 151.37 389.71 L 151.77 389.23 L 152.52 388.85 L 152.76 388.78 L 152.82 388.78 L 153.27 388.76 L 153.79 388.76 L 153.80 388.76 L 153.80 388.76 L 160.84 388.76 L 160.89 388.75 L 160.98 388.74 L 161.02 388.74 L 161.28 388.63 L 161.41 388.60 L 161.70 388.42 L 161.75 388.35 L 161.83 388.19 L 161.92 388.17 L 161.95 388.16 L 162.02 388.13 L 162.10 388.13 L 162.17 388.14 L 162.37 387.96 L 162.54 387.79 L 162.57 387.79 L 162.66 387.70 L 163.22 387.48 L 163.23 387.48 L 163.30 387.41 L 163.62 387.17 L 163.88 386.88 L 164.16 386.76 L 164.22 386.76 L 164.23 386.76 L 164.29 386.60 L 164.40 386.60 L 164.54 386.58 L 164.81 386.46 L 164.83 386.25 L 164.88 386.25 L 164.95 386.15 L 165.11 386.15 L 165.12 386.15 L 165.29 385.83 L 165.35 385.81 L 165.41 385.78 L 165.48 385.64 L 166.33 385.55 L 166.54 385.52 L 167.02 385.30 L 167.12 385.31 L 167.19 385.29 L 167.23 385.13 L 167.56 384.25 L 167.71 384.24 L 167.88 383.98 L 167.96 383.95 L 168.16 383.83 L 168.25 383.79 L 168.36 383.60 L 168.47 383.45 L 168.85 383.45 L 168.86 383.43 L 168.88 383.30 L 169.01 382.46 L 175.54 382.37 L 176.21 382.11 L 176.24 382.08 L 177.04 381.87 L 177.10 381.86 L 177.18 381.71 L 177.37 381.60 L 177.46 381.41 L 177.49 381.25 L 177.59 380.93 L 177.83 380.93 L 177.84 380.93 L 177.93 380.71 L 178.02 380.70 L 178.11 380.47 L 178.24 380.29 L 178.29 380.19 L 178.31 380.19 L 178.42 379.98 L 178.44 379.97 L 178.56 379.78 L 178.58 379.77 L 178.77 379.70 L 178.80 379.70 L 178.87 379.63 L 178.95 379.62 L 179.05 379.62 L 179.10 379.60 L 179.47 379.41 L 179.48 379.42 L 179.55 379.04 L 179.71 379.03 L 179.86 378.91 L 179.90 378.91 L 179.97 378.90 L 180.00 378.87 L 180.09 378.35 L 180.50 377.91 L 180.54 377.67 L 180.68 377.65 L 180.72 377.59 L 180.76 377.58 L 180.82 377.46 L 180.89 377.05 L 181.03 376.99 L 181.13 376.98 L 181.22 376.77 L 181.26 376.76 L 181.63 376.61 L 181.83 376.50 L 181.89 376.40 L 182.06 376.39 L 182.08 376.39 L 182.09 376.37 L 182.20 375.62 L 182.29 375.62 L 182.59 375.51 L 182.64 375.21 L 182.70 375.21 L 182.78 375.08 L 182.79 375.01 L 182.82 374.96 L 182.85 374.93 L 182.90 374.93 L 182.93 374.87 L 183.06 374.03 L 183.14 373.94 L 183.23 373.69 L 183.35 373.67 L 183.48 373.59 L 183.61 373.33 L 183.70 372.59 L 183.89 372.54 L 183.90 372.23 L 184.01 372.15 L 193.12 372.15 L 193.30 372.15 L 193.73 371.81 L 193.82 371.81 L 193.89 371.81 L 193.90 371.72 L 194.06 371.57 L 194.16 371.54 L 194.23 371.45 L 194.29 371.39 L 194.33 371.36 L 194.49 371.31 L 194.82 371.38 L 194.90 371.15 L 194.96 371.09 L 195.04 371.08 L 195.47 371.04 L 195.53 371.00 L 195.55 371.00 L 195.58 370.95 L 195.67 370.91 L 195.74 370.83 L 196.05 370.61 L 196.49 370.52 L 196.65 370.48 L 197.14 370.34 L 197.37 370.00 L 197.45 369.94 L 197.55 369.67 L 197.69 369.33 L 197.91 369.24 L 198.22 369.23 L 198.64 369.21 L 198.70 369.09 L 199.00 369.00 L 199.20 368.90 L 199.26 368.81 L 199.38 368.77 L 199.47 368.55 L 200.54 368.43 L 201.57 368.43 L 210.75 368.41 L 210.81 368.28 L 210.86 368.20 L 211.14 368.07 L 212.00 367.84 L 212.04 367.81 L 212.16 367.65 L 212.58 367.59 L 212.78 367.14 L 213.08 367.13 L 213.15 367.12 L 213.22 366.68 L 213.75 366.27 L 213.82 366.27 L 213.93 366.25 L 214.05 366.21 L 214.10 366.06 L 214.40 365.38 L 214.50 365.21 L 214.55 365.19 L 214.62 365.12 L 214.75 364.86 L 214.81 364.18 L 214.94 363.90 L 215.34 363.74 L 215.38 363.39 L 215.41 363.39 L 215.48 363.33 L 215.57 363.24 L 215.61 363.22 L 215.65 363.18 L 215.84 362.39 L 215.89 361.92 L 216.12 361.83 L 216.26 361.04 L 216.34 360.89 L 217.06 359.65 L 217.14 359.63 L 244.10 359.27 L 244.13 359.27 L 254.43 359.16 L 254.99 359.03 L 255.11 359.03 L 255.26 358.97 L 255.31 358.87 L 255.37 358.84 L 259.84 358.83 L 260.43 357.41 L 260.65 357.28 L 260.76 356.79 L 263.55 356.73 L 263.56 356.68 L 263.74 356.67 L 264.57 356.59 L 264.62 356.42 L 264.72 356.36 L 265.01 356.29 L 265.05 356.27 L 265.17 355.99 L 265.30 355.91 L 265.32 355.70 L 273.98 355.43 L 274.04 354.78 L 274.38 354.61 L 274.39 354.36 L 274.45 354.17 L 274.52 353.87 L 274.62 353.08 L 274.77 352.65 L 274.89 352.10 L 275.00 352.09 L 275.05 351.66 L 275.22 351.64 L 275.82 351.23 L 276.06 351.04 L 276.10 350.92 L 276.15 350.92 L 276.18 350.78 L 276.27 350.29 L 276.51 350.24 L 276.55 350.24 L 276.70 349.92 L 276.75 349.92 L 276.78 349.74 L 276.83 349.63 L 276.87 349.63 L 276.90 349.37 L 277.09 349.22 L 277.17 348.97 L 277.28 348.96 L 277.35 348.82 L 277.38 348.63 L 277.57 348.53 L 277.63 348.41 L 277.66 348.41 L 277.71 348.41 L 277.74 348.21 L 277.77 348.22 L 277.78 348.22 L 277.87 348.15 L 277.91 347.93 L 278.00 347.93 L 278.07 347.88 L 278.26 347.86 L 278.50 347.84 L 278.51 347.84 L 278.57 347.82 L 278.80 347.82 L 278.90 347.82 L 279.01 347.82 L 279.12 347.79 L 279.19 347.52 L 279.50 347.52 L 279.53 347.37 L 279.57 347.37 L 279.59 347.19 L 279.79 347.13 L 279.83 347.09 L 279.97 347.09 L 293.30 347.04 L 294.05 346.97 L 294.08 346.97 L 294.23 346.97 L 294.24 346.97 L 294.34 346.66 L 294.41 346.65 L 294.48 346.57 L 294.57 346.52 L 294.60 346.49 L 294.63 346.48 L 294.77 346.45 L 295.06 346.39 L 295.24 345.97 L 295.45 345.95 L 295.46 345.92 L 295.49 345.58 L 295.52 345.58 L 295.91 345.58 L 295.92 345.54 L 295.98 345.22 L 296.15 345.18 L 296.26 345.17 L 296.29 345.16 L 296.29 345.13 L 296.34 345.10 L 296.37 344.78 L 296.39 344.77 L 296.48 344.77 L 296.49 344.74 L 296.70 344.71 L 297.27 344.70 L 297.40 344.67 L 297.45 344.66 L 297.47 344.56 L 297.51 344.56 L 297.59 344.19 L 306.70 344.07 L 306.71 343.97 L 306.79 343.90 L 306.81 343.88 L 306.86 343.57 L 306.96 343.49 L 306.97 343.48 L 307.14 343.47 L 307.18 343.47 L 307.21 343.16 L 307.36 343.12 L 307.75 343.11 L 307.76 343.09 L 307.86 342.92 L 307.90 342.93 L 307.92 342.64 L 308.25 342.64 L 308.26 342.62 L 308.76 342.55 L 308.82 342.21 L 308.99 342.21 L 309.20 342.21 L 309.25 341.95 L 309.29 341.76 L 309.38 341.75 L 309.64 341.71 L 309.68 341.69 L 309.80 341.61 L 309.92 341.61 L 310.30 341.61 L 310.35 341.61 L 310.44 341.59 L 310.44 341.59 L 310.57 341.59 L 310.86 341.57 L 311.15 341.53 L 311.20 341.53 L 311.26 341.50 L 311.35 341.41 L 311.58 341.41 L 311.96 341.29 L 312.09 341.10 L 312.30 341.08 L 313.14 340.87 L 313.32 340.87 L 313.45 340.86 L 313.66 340.86 L 313.73 340.84 L 313.94 340.74 L 314.27 340.72 L 314.31 340.63 L 314.37 340.58 L 314.41 340.59 L 314.44 340.56 L 314.70 340.54 L 320.74 340.54 L 320.79 340.54 L 321.17 340.54 L 321.21 340.53 L 321.29 340.24 L 321.36 340.23 L 321.37 340.23 L 321.58 340.22 L 321.63 340.20 L 322.86 339.78 L 323.01 339.74 L 323.12 339.73 L 323.14 339.72 L 323.52 339.71 L 323.65 339.77 L 323.68 339.77 L 323.88 339.74 L 324.11 339.34 L 324.14 339.33 L 324.32 339.32 L 324.40 339.32 L 324.47 339.32 L 324.63 339.24 L 324.96 338.87 L 325.03 338.87 L 325.09 338.82 L 325.23 338.49 L 325.56 338.12 L 325.85 338.14 L 325.91 337.95 L 326.22 337.95 L 326.27 337.92 L 326.32 337.90 L 326.35 337.71 L 326.45 337.70 L 326.48 337.70 L 326.53 337.70 L 326.70 337.70 L 326.96 337.55 L 327.12 337.53 L 327.31 337.53 L 327.40 337.53 L 327.58 337.53 L 327.88 337.53 L 328.19 337.53 L 328.42 337.53 L 328.47 337.53 L 328.53 337.52 L 328.53 337.45 L 328.71 337.41 L 328.76 337.41 L 328.84 337.39 L 329.33 337.39 L 329.34 337.20 L 329.47 337.20 L 330.05 337.21 L 330.44 337.20 L 330.72 337.16 L 330.72 337.08 L 330.75 337.08 L 339.20 336.96 L 339.23 336.95 L 339.33 336.94 L 339.37 336.83 L 339.40 336.83 L 339.41 336.82 L 339.77 336.78 L 339.85 336.40 L 339.96 336.31 L 340.14 335.55 L 340.25 335.55 L 340.40 335.22 L 340.48 335.26 L 340.52 335.26 L 340.56 334.84 L 340.67 334.77 L 340.68 334.48 L 340.72 334.44 L 340.81 334.41 L 340.87 334.27 L 340.94 335.97 L 341.05 335.95 L 341.25 335.26 L 341.34 335.11 L 341.43 334.96 L 341.94 334.69 L 342.39 334.40 L 342.92 334.00 L 343.06 333.96 L 343.21 333.96 L 343.38 333.92 L 346.49 333.72 L 346.74 333.70 L 376.20 333.17 L 468.94 333.15 L 469.25 332.91 L 469.46 332.87 L 469.67 332.87 L 470.00 332.65 L 470.11 332.40 L 470.19 331.93 L 470.34 331.81 L 470.55 331.85 L 470.72 331.58 L 470.77 331.58 L 470.91 331.49 L 470.94 331.49 L 471.09 331.04 L 471.23 330.34 L 471.65 330.27 L 471.66 330.20 L 471.78 329.29 L 472.18 329.26 L 472.19 329.17 L 472.27 329.12 L 472.37 328.30 L 472.80 328.26 L 472.81 328.14 L 472.90 328.09 L 473.00 327.55 L 473.16 327.53 L 473.17 327.45 L 473.24 326.55 L 473.26 326.53 L 473.30 326.50 L 473.48 326.50 L 473.50 326.41 L 473.56 326.35 L 473.76 326.26 L 473.80 326.26 L 473.95 326.21 L 474.21 326.25 L 474.25 326.20 L 474.29 326.18 L 474.33 326.16 L 474.46 325.23 L 474.60 325.21 L 474.62 325.13 L 474.69 324.18 L 474.77 323.84 L 474.79 323.71 L 474.87 323.25 L 474.91 322.45 L 475.07 322.44 L 475.09 322.39 L 475.17 322.23 L 475.28 322.23 L 475.95 322.20 L 476.28 322.18 L 483.53 322.22 L 483.60 322.03 L 483.67 321.90 L 483.79 321.26 L 484.07 321.25 L 484.09 321.18 L 484.14 320.37 L 484.31 320.37 L 484.33 320.29 L 485.91 320.21 L 486.01 319.92 L 486.81 319.77 L 486.89 319.74 L 486.99 318.85 L 487.95 318.59 L 488.36 318.37 L 488.46 317.70 L 488.80 317.70 L 489.02 317.32 L 489.37 316.74 L 490.01 316.39 L 499.71 316.38 L 500.29 316.37 L 500.31 316.37 L 501.13 316.24 L 501.17 316.17 L 501.45 316.12 L 501.78 315.36 L 501.78 315.36 L 501.82 315.33 L 502.25 315.17 L 503.25 314.67 L 503.31 314.62 L 503.41 314.61 L 503.57 314.40 L 503.61 314.37 L 503.66 314.33 L 504.13 314.33 L 504.50 314.33 L 504.70 314.33 L 504.73 314.29 L 505.14 313.53 L 505.46 313.46 L 505.48 313.40 L 505.51 313.33 L 505.56 313.14 L 516.08 312.99 L 516.10 312.98 L 516.13 312.96 L 516.33 312.87 L 516.49 312.77 L 517.42 312.34 L 517.65 312.25 L 518.32 311.92 L 518.90 311.87 L 519.32 311.74 L 519.44 310.61 L 519.97 310.42 L 520.17 310.36 L 520.24 309.55 L 521.80 308.77 L 521.81 308.77 L 521.90 308.41 L 522.19 308.37 L 522.20 308.37 L 522.21 308.28 L 522.27 308.18 L 522.40 308.10 L 522.57 307.54 L 524.18 307.25 L 524.39 307.13 L 524.54 306.82 L 524.56 306.79 L 524.59 306.59 L 531.76 305.88 L 531.99 305.37 L 532.13 305.35 L 532.18 305.01 L 532.85 304.86 L 533.00 304.50 L 533.12 304.50 L 533.20 303.74 L 533.42 303.56 L 533.46 303.54 L 533.76 303.49 L 533.83 302.87 L 534.09 302.79 L 534.14 302.30 L 534.36 302.25 L 534.51 301.97 L 534.63 301.42 L 534.90 301.31 L 534.93 300.75 L 535.28 302.02 L 535.31 302.02 L 535.37 301.30 L 535.44 301.30 L 535.47 301.24 L 535.87 301.17 L 536.45 300.88 L 536.74 301.03 L 537.69 301.01 L 537.71 301.00 L 537.86 300.99 L 537.92 300.97 L 538.03 300.88 L 538.15 300.79 L 538.27 300.66 L 538.56 300.48 L 538.83 300.46 L 539.68 300.38 L 539.72 300.37 L 540.57 300.27 L 540.93 300.22 L 548.18 300.19 L 548.54 300.15 L 548.73 300.15 L 548.81 300.15 L 548.83 300.15 L 549.01 300.14 L 549.10 300.11 L 549.31 299.98 L 549.44 299.96 L 549.91 299.95 L 550.16 299.88 L 550.56 299.85 L 550.68 299.83 L 550.82 299.77 L 551.00 299.68 L 551.62 299.65 L 551.68 299.64 L 552.59 299.50 L 552.74 299.28 L 552.92 299.20 L 553.36 299.06 L 553.57 298.99 L 553.67 299.30 L 553.76 299.29 L 553.89 299.17 L 554.27 298.88 L 554.68 298.80 L 555.05 298.74 L 555.09 298.71 L 555.13 298.49 L 581.36 298.45 L 581.53 298.39 L 596.62 298.32 L 596.70 298.64 L 596.82 297.37 L 596.84 297.37 L 596.88 297.40 L 597.42 296.91 L 597.48 296.89 L 598.14 296.94 L 598.82 296.89 L 599.06 296.85 L 599.48 296.80 L 600.04 296.66 L 600.06 296.66 L 600.13 296.64 L 600.35 296.60 L 600.42 296.50 L 600.96 296.43 L 601.67 296.38 L 601.74 296.25 L 602.10 296.19 L 602.20 296.75 L 602.47 296.70 L 602.70 296.68 L 603.16 296.65 L 603.60 296.65 L 603.82 296.38 L 603.83 296.38 L 613.27 296.37 L 616.23 295.70 L 616.35 295.36 L 616.50 295.28 L 616.98 295.25 L 617.18 295.13 L 617.33 293.43 L 617.43 292.52 L 617.65 292.49 L 617.68 292.47 L 618.01 292.34 L 618.12 292.31 L 618.18 292.25 L 618.35 292.05 L 618.42 292.03 L 618.51 292.01 L 618.58 291.96 L 618.66 291.91 L 618.76 291.83 L 618.82 291.80 L 619.13 291.76 L 619.28 291.67 L 619.40 291.65 L 619.44 291.09 L 619.79 290.98 L 619.92 290.67 L 628.82 290.73 L 629.47 290.56 L 629.58 290.55 L 629.98 290.23 L 630.16 290.19 L 630.90 289.19 L 631.22 289.09 L 631.65 288.97 L 631.71 288.97 L 631.96 288.96 L 632.05 288.43 L 632.39 287.74 L 632.91 287.67 L 633.08 287.13 L 636.22 286.75 L 636.52 286.36 L 636.54 286.36 L 644.89 285.04 L 644.90 285.04 L 645.00 284.98 L 645.10 284.40 L 645.49 284.35 L 645.52 284.35 L 645.97 284.24 L 646.64 284.13 L 647.41 284.09 L 647.46 284.03 L 647.54 283.98 L 647.67 283.98 L 647.88 283.98 L 647.98 283.92 L 648.09 283.92 L 648.23 283.92 L 649.37 283.60 L 649.49 282.89 L 649.75 282.75 L 649.85 282.66 L 649.92 282.65 L 650.00 282.60"/>
	</g>
	<g class="poloto_legend poloto_imgs poloto_line poloto0 poloto_stroke"><line x1="680" x2="730" y1="81.25" y2="81.25"/></g>
	<g class="poloto_legend poloto_imgs poloto_line poloto1 poloto_stroke"><line x1="680" x2="730" y1="131.25" y2="131.25"/></g>
	<g class="poloto_legend poloto_imgs poloto_line poloto2 poloto_stroke"><line x1="680" x2="730" y1="181.25" y2="181.25"/></g>
	<text class="poloto_legend poloto_text poloto_line poloto0" x="675" y="100">total</text>
	<text class="poloto_legend poloto_text poloto_line poloto1" x="675" y="150">code</text>
	<text class="poloto_legend poloto_text poloto_line poloto2" x="675" y="200">docs</text>
	<text class="poloto_text poloto_name poloto_title" x="400.00" y="37.50">Workspace lines over time</text>
	<text class="poloto_text poloto_name poloto_x" x="400.00" y="640">date (JST)</text>
	<text class="poloto_text poloto_name poloto_y" x="37.50" y="250.00" transform="rotate(-90,37.50,250.00)">lines</text>
	<text class="poloto_text poloto_ticks poloto_y">
		<tspan x="135.00" y="400.00">0</tspan>
		<tspan x="135.00" y="333.40">50K</tspan>
		<tspan x="135.00" y="266.80">100K</tspan>
		<tspan x="135.00" y="200.20">150K</tspan>
		<tspan x="135.00" y="133.60">200K</tspan>
	</text>
	<g class="poloto_imgs poloto_ticks poloto_y" stroke="black">
		<line x1="150.00" x2="144.00" y1="400.00" y2="400.00"/>
		<line x1="150.00" x2="144.00" y1="333.40" y2="333.40"/>
		<line x1="150.00" x2="144.00" y1="266.80" y2="266.80"/>
		<line x1="150.00" x2="144.00" y1="200.20" y2="200.20"/>
		<line x1="150.00" x2="144.00" y1="133.60" y2="133.60"/>
	</g>
	<g class="poloto_text poloto_ticks poloto_x">
		<text x="210.63" y="430.00" text-anchor="end" transform="rotate(-90 210.63 430.00)">2026-04-24 12:06</text>
		<text x="303.96" y="430.00" text-anchor="end" transform="rotate(-90 303.96 430.00)">2026-04-30 07:00</text>
		<text x="397.28" y="430.00" text-anchor="end" transform="rotate(-90 397.28 430.00)">2026-05-06 01:53</text>
		<text x="490.61" y="430.00" text-anchor="end" transform="rotate(-90 490.61 430.00)">2026-05-11 20:46</text>
		<text x="583.93" y="430.00" text-anchor="end" transform="rotate(-90 583.93 430.00)">2026-05-17 15:40</text>
	</g>
	<g class="poloto_imgs poloto_ticks poloto_x" stroke="black">
		<line x1="210.63" x2="210.63" y1="400.00" y2="405.00"/>
		<line x1="303.96" x2="303.96" y1="400.00" y2="405.00"/>
		<line x1="397.28" x2="397.28" y1="400.00" y2="405.00"/>
		<line x1="490.61" x2="490.61" y1="400.00" y2="405.00"/>
		<line x1="583.93" x2="583.93" y1="400.00" y2="405.00"/>
	</g>
	<path class="poloto_imgs poloto_ticks poloto_x" stroke="black" style="stroke-dasharray:9.332634505661549;stroke-dashoffset:-60.629086760629434;" d=" M 150.00 400.00 L 650.00 400.00"/>
	<path class="poloto_imgs poloto_ticks poloto_y" stroke="black" style="stroke-dasharray:6.6601249439439485;stroke-dashoffset:-0;" d=" M 150.00 400.00 L 150.00 100.00"/>
</svg>

