<svg class="poloto" width="800" height="680" viewBox="0 0 800 680" xmlns="http://www.w3.org/2000/svg">
	<style>
.poloto{
  stroke-linecap:round;
  stroke-linejoin:round;
  font-family:Roboto,sans-serif;
  font-size:16px;
}
.poloto_background{fill:AliceBlue;}
.poloto_scatter{stroke-width:7}
.poloto_line{stroke-width:2}
.poloto_text{fill: black;}
.poloto_name{font-size:24px;dominant-baseline:auto;text-anchor:middle;}
.poloto_where{dominant-baseline:middle;text-anchor:start}
.poloto_text.poloto_legend{font-size:20px;dominant-baseline:middle;text-anchor:start;}
.poloto_text.poloto_ticks.poloto_y{dominant-baseline:middle;text-anchor:end}
.poloto_text.poloto_ticks.poloto_x{dominant-baseline:auto;text-anchor:middle}
.poloto_imgs.poloto_ticks{stroke: black;stroke-width:3;fill:none;stroke-dasharray:none}
.poloto_grid{stroke:gray;stroke-width:0.5}

.poloto0.poloto_stroke{stroke:blue;}
.poloto1.poloto_stroke{stroke:red;}
.poloto2.poloto_stroke{stroke:green;}
.poloto3.poloto_stroke{stroke:gold;}
.poloto4.poloto_stroke{stroke:aqua;}
.poloto5.poloto_stroke{stroke:lime;}
.poloto6.poloto_stroke{stroke:orange;}
.poloto7.poloto_stroke{stroke:chocolate;}
.poloto0.poloto_fill{fill:blue;}
.poloto1.poloto_fill{fill:red;}
.poloto2.poloto_fill{fill:green;}
.poloto3.poloto_fill{fill:gold;}
.poloto4.poloto_fill{fill:aqua;}
.poloto5.poloto_fill{fill:lime;}
.poloto6.poloto_fill{fill:orange;}
.poloto7.poloto_fill{fill:chocolate;}
	</style>
	<circle r="1e5" class="poloto_background" fill="white"/>
	<g id="poloto_plot0" class="poloto_plot poloto_imgs poloto_line poloto0 poloto_stroke" fill="none" stroke="black">
		<path d=" M 150.00 369.01 L 150.03 368.99 L 150.05 368.97 L 150.06 368.97 L 150.08 368.97 L 150.11 365.61 L 150.24 365.20 L 150.52 365.18 L 150.94 364.91 L 151.16 363.20 L 151.59 363.09 L 151.66 363.00 L 151.72 362.96 L 152.22 362.13 L 153.16 361.45 L 153.46 358.81 L 153.53 358.82 L 154.10 358.71 L 154.75 358.70 L 154.76 358.70 L 154.76 358.70 L 163.59 358.70 L 163.65 358.70 L 163.76 358.67 L 163.81 358.64 L 164.15 358.49 L 164.30 358.45 L 164.67 358.21 L 164.72 358.10 L 164.83 357.86 L 164.94 357.82 L 164.98 357.82 L 165.07 357.76 L 165.17 357.76 L 165.26 357.76 L 165.51 357.37 L 165.72 357.13 L 165.76 357.13 L 165.87 356.98 L 166.57 357.59 L 166.58 357.59 L 166.67 357.49 L 167.07 357.04 L 167.40 356.50 L 167.76 356.26 L 167.83 356.22 L 167.84 356.22 L 167.91 356.01 L 168.05 356.01 L 168.23 355.94 L 168.57 355.73 L 168.59 355.42 L 168.65 355.42 L 168.74 355.25 L 168.94 355.25 L 168.96 355.25 L 169.17 354.80 L 169.25 354.78 L 169.32 354.74 L 169.40 354.56 L 170.48 354.32 L 170.74 354.27 L 171.33 353.95 L 171.46 353.95 L 171.55 353.93 L 171.61 353.70 L 172.02 352.37 L 172.20 352.34 L 172.41 351.90 L 172.52 351.86 L 172.77 351.48 L 172.87 351.35 L 173.02 351.11 L 173.16 350.90 L 173.63 347.83 L 173.65 347.75 L 173.67 347.57 L 173.83 346.09 L 182.02 345.98 L 182.86 344.30 L 182.89 344.26 L 183.89 343.99 L 183.98 343.98 L 184.07 343.65 L 184.32 343.48 L 184.43 343.20 L 184.47 342.94 L 184.59 342.50 L 184.89 342.49 L 184.90 342.20 L 185.01 341.87 L 185.12 341.86 L 185.25 341.49 L 185.41 341.23 L 185.47 341.09 L 185.49 341.09 L 185.63 340.80 L 185.65 340.79 L 185.81 340.50 L 185.84 340.50 L 186.07 339.11 L 186.11 339.11 L 186.19 338.87 L 186.29 338.86 L 186.43 338.86 L 186.48 338.83 L 186.94 338.57 L 186.95 338.58 L 187.04 337.96 L 187.25 337.95 L 187.43 337.02 L 187.49 336.94 L 187.57 336.93 L 187.62 336.90 L 187.72 336.18 L 188.23 330.15 L 188.29 329.85 L 188.47 329.83 L 188.52 329.76 L 188.56 329.73 L 188.64 329.58 L 188.72 328.89 L 188.90 328.75 L 189.03 328.73 L 189.13 328.43 L 189.19 328.42 L 189.66 328.20 L 189.91 328.03 L 189.98 327.76 L 190.20 327.75 L 190.22 327.75 L 190.24 327.72 L 190.37 326.27 L 190.48 326.19 L 190.86 324.72 L 190.92 324.30 L 190.99 324.29 L 191.10 324.13 L 191.11 324.02 L 191.15 323.95 L 191.19 323.91 L 191.24 323.90 L 191.29 323.83 L 191.44 322.63 L 191.55 322.46 L 191.66 322.10 L 191.81 322.08 L 191.97 321.97 L 192.14 321.12 L 192.25 319.95 L 192.49 319.88 L 192.49 319.44 L 192.63 319.30 L 204.06 319.30 L 204.28 319.29 L 204.82 318.67 L 204.93 318.65 L 205.02 318.65 L 205.04 318.50 L 205.23 318.30 L 205.37 318.27 L 205.45 318.16 L 205.53 318.08 L 205.57 318.03 L 205.78 317.98 L 206.19 317.90 L 206.29 317.58 L 206.37 317.50 L 206.47 317.49 L 207.00 317.33 L 207.07 317.24 L 207.11 317.24 L 207.14 317.12 L 207.26 317.06 L 207.35 316.95 L 207.73 316.16 L 208.28 316.03 L 208.49 315.98 L 209.10 315.79 L 209.39 311.99 L 209.49 311.91 L 209.61 311.54 L 209.79 311.04 L 210.07 310.90 L 210.46 310.89 L 210.98 310.87 L 211.05 310.71 L 211.43 310.53 L 211.68 310.26 L 211.75 310.15 L 211.90 310.10 L 212.02 309.77 L 213.37 309.39 L 214.65 309.39 L 226.15 309.36 L 226.24 309.19 L 226.30 309.09 L 226.66 308.93 L 227.73 307.62 L 227.78 307.53 L 227.93 307.19 L 228.45 307.11 L 228.70 306.22 L 229.08 306.22 L 229.17 306.20 L 229.26 305.60 L 229.92 302.14 L 230.00 302.14 L 230.14 302.11 L 230.29 302.07 L 230.36 301.69 L 230.73 300.39 L 230.87 300.15 L 230.93 300.13 L 231.01 299.53 L 231.18 298.68 L 231.25 297.78 L 231.41 297.38 L 231.91 292.90 L 231.96 292.45 L 232.01 292.45 L 232.08 292.36 L 232.21 292.25 L 232.26 292.21 L 232.30 292.16 L 232.54 291.08 L 232.60 290.33 L 232.89 290.17 L 233.07 289.04 L 233.17 288.33 L 234.07 277.87 L 234.17 277.85 L 267.97 277.35 L 268.00 277.35 L 280.92 277.20 L 281.63 276.92 L 281.77 276.92 L 281.96 276.84 L 282.02 276.70 L 282.10 276.67 L 287.70 276.59 L 288.44 274.60 L 288.71 274.43 L 288.86 273.69 L 292.35 273.55 L 292.37 273.34 L 292.59 273.33 L 293.63 272.07 L 293.69 271.84 L 293.82 271.77 L 294.19 271.68 L 294.24 271.65 L 294.38 271.27 L 294.54 271.17 L 294.57 270.89 L 305.42 270.50 L 305.51 269.43 L 305.94 269.19 L 305.94 267.40 L 306.02 267.13 L 306.11 266.70 L 306.23 265.46 L 306.42 264.80 L 306.57 264.03 L 306.71 264.03 L 306.77 263.44 L 306.99 263.39 L 307.74 260.50 L 308.04 260.19 L 308.09 260.01 L 308.15 260.00 L 308.19 259.80 L 308.30 259.09 L 308.60 258.75 L 308.65 258.71 L 308.84 256.17 L 308.91 256.16 L 308.94 255.88 L 309.01 255.68 L 309.05 255.67 L 309.09 255.29 L 309.33 253.92 L 309.44 253.53 L 309.57 253.48 L 309.66 249.80 L 309.70 249.50 L 309.93 247.40 L 310.00 247.24 L 310.05 247.23 L 310.11 247.23 L 310.14 246.93 L 310.18 246.94 L 310.19 246.94 L 310.31 243.22 L 310.35 242.90 L 310.47 242.88 L 310.56 242.82 L 310.80 242.71 L 311.10 242.57 L 311.11 242.57 L 311.19 242.53 L 311.47 242.46 L 311.60 242.46 L 311.73 242.46 L 311.87 240.84 L 311.97 240.45 L 312.35 240.44 L 312.39 240.19 L 312.43 240.19 L 312.46 239.91 L 312.72 237.57 L 312.76 237.51 L 312.94 237.50 L 329.65 237.43 L 330.60 237.31 L 330.63 237.31 L 330.82 237.31 L 330.83 237.31 L 330.95 236.84 L 331.05 236.83 L 331.13 236.60 L 331.24 236.54 L 331.28 236.51 L 331.32 236.49 L 331.50 236.23 L 331.86 235.99 L 332.09 235.24 L 332.35 234.53 L 332.36 234.49 L 332.40 233.82 L 332.43 233.79 L 332.93 233.40 L 332.94 233.35 L 333.01 232.82 L 333.23 232.76 L 333.37 232.71 L 333.39 231.76 L 333.40 231.72 L 333.46 232.62 L 333.50 232.06 L 333.52 232.04 L 333.64 230.77 L 333.65 230.74 L 333.92 230.63 L 334.63 230.62 L 334.80 230.57 L 334.85 230.56 L 334.88 230.39 L 334.93 230.39 L 335.03 229.77 L 346.44 228.56 L 346.46 228.39 L 346.56 228.27 L 346.59 228.04 L 346.65 217.45 L 346.78 213.12 L 346.79 213.09 L 347.00 213.01 L 347.05 213.01 L 347.09 212.51 L 347.27 212.46 L 347.77 211.44 L 347.78 211.41 L 347.90 211.10 L 347.95 211.11 L 347.98 210.60 L 348.39 209.99 L 348.40 209.97 L 349.03 209.74 L 349.10 209.20 L 349.32 209.21 L 349.58 207.84 L 349.65 207.30 L 349.69 206.87 L 349.81 206.34 L 350.13 206.15 L 350.19 206.02 L 350.33 205.90 L 350.49 205.90 L 350.97 205.90 L 351.02 205.90 L 351.13 205.88 L 351.14 205.88 L 351.30 205.89 L 351.66 205.86 L 352.03 205.67 L 352.09 205.66 L 352.17 205.58 L 352.28 205.44 L 352.57 205.44 L 353.05 205.25 L 353.21 204.83 L 353.47 201.18 L 354.52 204.26 L 354.75 204.25 L 354.92 204.23 L 355.18 204.23 L 355.26 204.17 L 355.52 204.00 L 355.94 203.75 L 355.99 203.58 L 356.07 203.51 L 356.12 203.52 L 356.16 203.47 L 356.48 203.24 L 364.05 203.24 L 364.12 203.24 L 364.59 203.23 L 364.64 203.21 L 364.74 202.75 L 364.83 202.49 L 364.84 202.49 L 365.10 202.45 L 365.16 202.42 L 366.72 201.74 L 366.90 201.68 L 367.03 201.66 L 367.06 201.66 L 367.54 201.50 L 367.70 201.58 L 367.73 201.57 L 367.99 201.53 L 368.27 200.09 L 368.31 200.08 L 368.54 199.91 L 368.64 199.91 L 368.73 199.91 L 368.93 199.75 L 369.35 199.17 L 369.43 199.15 L 369.50 198.98 L 369.68 198.30 L 370.09 197.58 L 370.46 194.23 L 370.54 193.81 L 370.92 193.65 L 370.98 193.57 L 371.04 193.41 L 371.08 192.87 L 371.21 191.90 L 371.24 191.94 L 371.31 191.92 L 371.52 191.92 L 371.85 191.56 L 372.05 191.49 L 372.29 191.48 L 372.40 191.47 L 372.63 191.45 L 373.01 191.45 L 373.39 191.45 L 373.68 191.44 L 373.75 191.43 L 373.82 191.42 L 373.82 191.30 L 374.05 191.24 L 374.11 191.22 L 374.20 191.08 L 374.82 191.05 L 374.83 190.76 L 375.00 190.75 L 375.73 190.76 L 376.21 190.58 L 376.56 190.36 L 376.57 190.25 L 376.60 190.25 L 387.20 190.05 L 387.23 190.04 L 387.35 190.03 L 387.41 189.86 L 387.45 189.84 L 387.46 189.83 L 387.91 189.79 L 388.01 189.18 L 388.14 189.04 L 388.37 187.85 L 388.51 187.83 L 388.70 187.33 L 388.80 187.39 L 388.85 187.38 L 388.90 186.80 L 389.03 186.40 L 389.05 185.98 L 389.10 185.92 L 389.21 185.89 L 389.28 185.69 L 389.38 187.98 L 389.51 187.93 L 389.77 187.02 L 389.88 186.80 L 389.98 186.61 L 390.63 185.30 L 391.19 184.66 L 391.86 183.45 L 392.03 183.39 L 392.22 183.39 L 392.43 183.34 L 396.33 182.99 L 396.65 182.96 L 433.58 182.04 L 549.85 181.83 L 550.23 181.45 L 550.50 181.40 L 550.77 181.40 L 551.17 180.69 L 551.31 180.35 L 551.41 179.71 L 551.60 177.87 L 551.87 178.25 L 552.08 177.85 L 552.13 177.84 L 552.31 177.72 L 552.35 177.72 L 552.55 177.05 L 552.72 175.97 L 553.24 174.82 L 553.26 174.72 L 553.41 173.36 L 553.91 169.97 L 553.92 169.85 L 554.02 169.78 L 554.14 168.57 L 554.68 166.94 L 554.70 166.79 L 554.81 166.71 L 554.94 165.91 L 555.14 165.27 L 555.15 165.15 L 555.24 163.91 L 555.26 163.88 L 555.31 163.53 L 555.54 161.33 L 555.56 161.20 L 555.64 161.07 L 555.89 160.78 L 555.94 160.77 L 556.13 160.35 L 556.46 160.40 L 556.51 160.34 L 556.55 160.31 L 556.61 160.28 L 556.77 158.98 L 556.94 157.93 L 556.96 157.84 L 557.06 156.51 L 557.16 155.23 L 557.18 155.07 L 557.28 153.55 L 557.33 152.37 L 557.53 151.57 L 557.56 151.51 L 557.66 151.26 L 557.80 151.24 L 558.63 151.20 L 559.05 151.17 L 568.13 151.22 L 568.23 150.99 L 568.31 150.79 L 568.47 149.90 L 568.81 149.67 L 568.84 149.58 L 568.90 148.41 L 569.12 147.27 L 569.14 147.17 L 571.12 147.10 L 571.24 146.46 L 572.24 146.26 L 572.35 146.22 L 572.47 144.89 L 573.67 143.65 L 574.19 143.18 L 574.32 142.21 L 574.75 140.54 L 575.02 140.06 L 575.46 139.09 L 576.26 138.59 L 588.42 138.58 L 589.15 138.47 L 589.18 138.49 L 590.20 138.29 L 590.25 138.20 L 590.60 138.12 L 591.02 137.04 L 591.02 137.04 L 591.06 137.00 L 591.61 135.76 L 592.85 135.05 L 592.94 134.99 L 593.06 134.98 L 593.25 134.65 L 593.31 134.56 L 593.38 134.50 L 593.96 134.46 L 594.43 134.46 L 594.68 134.45 L 594.71 134.41 L 595.23 133.33 L 595.63 133.12 L 595.65 133.04 L 595.70 132.95 L 595.75 132.66 L 608.94 132.24 L 608.97 132.22 L 609.01 132.20 L 609.26 132.08 L 609.46 131.95 L 610.63 130.29 L 610.92 130.09 L 611.75 129.59 L 612.47 129.47 L 613.01 129.31 L 613.16 127.77 L 613.83 125.97 L 614.07 125.84 L 614.16 124.68 L 616.11 122.55 L 616.13 122.55 L 616.24 122.03 L 616.61 121.97 L 616.61 121.97 L 616.63 121.84 L 616.70 121.67 L 616.87 121.51 L 617.08 120.61 L 619.10 118.45 L 619.37 118.19 L 619.55 117.80 L 619.58 117.76 L 619.62 117.45 L 628.60 116.48 L 628.89 115.74 L 629.06 115.70 L 629.13 115.21 L 629.97 114.98 L 630.15 114.49 L 630.31 114.49 L 630.40 113.46 L 630.69 110.82 L 630.73 110.78 L 631.11 110.74 L 631.20 109.88 L 631.52 108.85 L 631.59 108.13 L 631.86 107.48 L 632.05 107.13 L 632.20 106.34 L 632.54 105.67 L 632.58 104.92 L 633.01 104.75 L 633.05 104.75 L 633.12 103.79 L 633.21 103.79 L 633.26 103.72 L 633.76 101.93 L 634.48 101.34 L 634.84 101.53 L 636.04 101.45 L 636.06 101.44 L 636.25 101.42 L 636.33 101.40 L 636.46 101.28 L 636.61 101.18 L 636.77 100.98 L 637.12 100.72 L 637.46 100.71 L 638.53 100.52 L 638.58 100.52 L 639.64 100.35 L 640.10 100.24 L 649.19 100.22 L 649.64 100.09 L 649.87 100.00 L 649.97 100.00 L 650.00 100.00"/>
	</g>
	<g id="poloto_plot1" class="poloto_plot poloto_imgs poloto_line poloto1 poloto_stroke" fill="none" stroke="black">
		<path d=" M 150.00 381.59 L 150.03 381.57 L 150.05 381.56 L 150.06 381.56 L 150.08 381.56 L 150.11 380.98 L 150.24 380.96 L 150.52 380.95 L 150.94 380.73 L 151.16 380.63 L 151.59 380.65 L 151.66 380.61 L 151.72 380.61 L 152.22 380.57 L 153.16 380.46 L 153.46 378.18 L 153.53 378.18 L 154.10 378.13 L 154.75 378.12 L 154.76 378.12 L 154.76 378.12 L 163.59 378.12 L 163.65 378.12 L 163.76 378.11 L 163.81 378.08 L 164.15 378.07 L 164.30 378.07 L 164.67 378.07 L 164.72 378.07 L 164.83 378.05 L 164.94 378.05 L 164.98 378.05 L 165.07 378.03 L 165.17 378.03 L 165.26 378.03 L 165.51 377.90 L 165.72 377.90 L 165.76 377.90 L 165.87 377.90 L 166.57 378.76 L 166.58 378.76 L 166.67 378.74 L 167.07 378.62 L 167.40 378.47 L 167.76 378.41 L 167.83 378.37 L 167.84 378.37 L 167.91 378.37 L 168.05 378.37 L 168.23 378.31 L 168.57 378.26 L 168.59 378.26 L 168.65 378.26 L 168.74 378.24 L 168.94 378.24 L 168.96 378.24 L 169.17 378.23 L 169.25 378.23 L 169.32 378.23 L 169.40 378.23 L 170.48 378.13 L 170.74 378.12 L 171.33 378.08 L 171.46 378.08 L 171.55 378.08 L 171.61 378.08 L 172.02 378.01 L 172.20 378.01 L 172.41 377.92 L 172.52 377.92 L 172.77 377.73 L 172.87 377.66 L 173.02 377.66 L 173.16 377.66 L 173.63 375.00 L 173.65 374.96 L 173.67 374.96 L 173.83 374.70 L 182.02 374.70 L 182.86 373.55 L 182.89 373.55 L 183.89 373.55 L 183.98 373.55 L 184.07 373.43 L 184.32 373.41 L 184.43 373.41 L 184.47 373.41 L 184.59 373.41 L 184.89 373.41 L 184.90 373.16 L 185.01 373.15 L 185.12 373.15 L 185.25 373.12 L 185.41 373.12 L 185.47 373.12 L 185.49 373.12 L 185.63 373.12 L 185.65 373.12 L 185.81 373.12 L 185.84 373.12 L 186.07 371.99 L 186.11 371.99 L 186.19 371.85 L 186.29 371.85 L 186.43 371.85 L 186.48 371.84 L 186.94 371.84 L 186.95 371.84 L 187.04 371.77 L 187.25 371.77 L 187.43 371.12 L 187.49 371.04 L 187.57 371.04 L 187.62 371.04 L 187.72 371.02 L 188.23 366.27 L 188.29 366.31 L 188.47 366.31 L 188.52 366.31 L 188.56 366.30 L 188.64 366.30 L 188.72 366.24 L 188.90 366.24 L 189.03 366.24 L 189.13 366.23 L 189.19 366.23 L 189.66 366.22 L 189.91 366.22 L 189.98 366.10 L 190.20 366.10 L 190.22 366.10 L 190.24 366.10 L 190.37 365.78 L 190.48 365.70 L 190.86 364.57 L 190.92 364.57 L 190.99 364.57 L 191.10 364.58 L 191.11 364.58 L 191.15 364.58 L 191.19 364.58 L 191.24 364.58 L 191.29 364.58 L 191.44 364.56 L 191.55 364.56 L 191.66 364.55 L 191.81 364.55 L 191.97 364.54 L 192.14 364.12 L 192.25 363.98 L 192.49 363.98 L 192.49 363.97 L 192.63 363.97 L 204.06 363.97 L 204.28 363.96 L 204.82 363.89 L 204.93 363.88 L 205.02 363.88 L 205.04 363.88 L 205.23 363.88 L 205.37 363.88 L 205.45 363.88 L 205.53 363.88 L 205.57 363.87 L 205.78 363.87 L 206.19 363.90 L 206.29 363.90 L 206.37 363.90 L 206.47 363.90 L 207.00 363.81 L 207.07 363.76 L 207.11 363.76 L 207.14 363.70 L 207.26 363.70 L 207.35 363.70 L 207.73 363.27 L 208.28 363.27 L 208.49 363.27 L 209.10 363.27 L 209.39 360.35 L 209.49 360.35 L 209.61 360.35 L 209.79 360.35 L 210.07 360.35 L 210.46 360.35 L 210.98 360.35 L 211.05 360.35 L 211.43 360.28 L 211.68 360.15 L 211.75 360.15 L 211.90 360.15 L 212.02 360.14 L 213.37 359.96 L 214.65 359.96 L 226.15 359.95 L 226.24 359.95 L 226.30 359.95 L 226.66 359.95 L 227.73 359.04 L 227.78 359.01 L 227.93 358.91 L 228.45 358.91 L 228.70 358.69 L 229.08 358.69 L 229.17 358.69 L 229.26 358.69 L 229.92 356.13 L 230.00 356.13 L 230.14 356.13 L 230.29 356.13 L 230.36 355.97 L 230.73 355.66 L 230.87 355.66 L 230.93 355.66 L 231.01 355.19 L 231.18 354.72 L 231.25 354.72 L 231.41 354.71 L 231.91 350.91 L 231.96 350.91 L 232.01 350.91 L 232.08 350.91 L 232.21 350.91 L 232.26 350.91 L 232.30 350.91 L 232.54 350.91 L 232.60 350.82 L 232.89 350.81 L 233.07 350.75 L 233.17 350.30 L 234.07 342.72 L 234.17 342.72 L 267.97 342.72 L 268.00 342.72 L 280.92 342.72 L 281.63 342.60 L 281.77 342.60 L 281.96 342.60 L 282.02 342.60 L 282.10 342.60 L 287.70 342.55 L 288.44 342.47 L 288.71 342.47 L 288.86 342.45 L 292.35 342.38 L 292.37 342.28 L 292.59 342.29 L 293.63 341.26 L 293.69 341.26 L 293.82 341.26 L 294.19 341.26 L 294.24 341.26 L 294.38 341.26 L 294.54 341.26 L 294.57 341.26 L 305.42 341.24 L 305.51 341.06 L 305.94 341.06 L 305.94 339.82 L 306.02 339.82 L 306.11 339.82 L 306.23 339.71 L 306.42 339.71 L 306.57 339.65 L 306.71 339.65 L 306.77 339.65 L 306.99 339.64 L 307.74 337.54 L 308.04 337.53 L 308.09 337.52 L 308.15 337.52 L 308.19 337.52 L 308.30 337.49 L 308.60 337.23 L 308.65 337.19 L 308.84 335.30 L 308.91 335.30 L 308.94 335.30 L 309.01 335.27 L 309.05 335.27 L 309.09 335.27 L 309.33 334.24 L 309.44 334.23 L 309.57 334.20 L 309.66 331.01 L 309.70 331.01 L 309.93 329.21 L 310.00 329.21 L 310.05 329.20 L 310.11 329.20 L 310.14 329.20 L 310.18 329.20 L 310.19 329.20 L 310.31 325.87 L 310.35 325.87 L 310.47 325.86 L 310.56 325.86 L 310.80 325.79 L 311.10 325.70 L 311.11 325.70 L 311.19 325.68 L 311.47 325.63 L 311.60 325.63 L 311.73 325.63 L 311.87 324.19 L 311.97 324.19 L 312.35 324.19 L 312.39 324.18 L 312.43 324.18 L 312.46 324.18 L 312.72 322.13 L 312.76 322.13 L 312.94 322.12 L 329.65 322.12 L 330.60 322.11 L 330.63 322.11 L 330.82 322.11 L 330.83 322.11 L 330.95 322.11 L 331.05 322.11 L 331.13 322.00 L 331.24 322.00 L 331.28 322.00 L 331.32 322.00 L 331.50 321.82 L 331.86 321.70 L 332.09 321.58 L 332.35 321.00 L 332.36 321.00 L 332.40 320.86 L 332.43 320.84 L 332.93 320.49 L 332.94 320.49 L 333.01 320.43 L 333.23 320.43 L 333.37 320.40 L 333.39 319.55 L 333.40 319.55 L 333.46 320.39 L 333.50 320.34 L 333.52 320.33 L 333.64 319.19 L 333.65 319.19 L 333.92 319.14 L 334.63 319.14 L 334.80 319.14 L 334.85 319.14 L 334.88 319.14 L 334.93 319.14 L 335.03 319.07 L 346.44 318.12 L 346.46 318.12 L 346.56 318.11 L 346.59 317.91 L 346.65 307.80 L 346.78 304.04 L 346.79 304.04 L 347.00 303.97 L 347.05 303.97 L 347.09 303.95 L 347.27 303.95 L 347.77 303.04 L 347.78 303.04 L 347.90 302.99 L 347.95 302.99 L 347.98 302.91 L 348.39 302.36 L 348.40 302.36 L 349.03 302.25 L 349.10 302.21 L 349.32 302.22 L 349.58 300.98 L 349.65 300.85 L 349.69 300.74 L 349.81 300.27 L 350.13 300.15 L 350.19 300.05 L 350.33 300.05 L 350.49 300.05 L 350.97 300.05 L 351.02 300.05 L 351.13 300.05 L 351.14 300.05 L 351.30 300.07 L 351.66 300.07 L 352.03 299.94 L 352.09 299.94 L 352.17 299.92 L 352.28 299.92 L 352.57 299.92 L 353.05 299.92 L 353.21 299.81 L 353.47 296.55 L 354.52 299.63 L 354.75 299.61 L 354.92 299.61 L 355.18 299.61 L 355.26 299.57 L 355.52 299.55 L 355.94 299.36 L 355.99 299.36 L 356.07 299.36 L 356.12 299.36 L 356.16 299.36 L 356.48 299.18 L 364.05 299.18 L 364.12 299.19 L 364.59 299.17 L 364.64 299.17 L 364.74 299.14 L 364.83 298.92 L 364.84 298.91 L 365.10 298.89 L 365.16 298.89 L 366.72 298.70 L 366.90 298.70 L 367.03 298.70 L 367.06 298.70 L 367.54 298.57 L 367.70 298.57 L 367.73 298.57 L 367.99 298.56 L 368.27 297.79 L 368.31 297.79 L 368.54 297.66 L 368.64 297.66 L 368.73 297.66 L 368.93 297.66 L 369.35 297.65 L 369.43 297.63 L 369.50 297.56 L 369.68 297.42 L 370.09 297.31 L 370.46 294.23 L 370.54 294.12 L 370.92 293.98 L 370.98 293.94 L 371.04 293.83 L 371.08 293.62 L 371.21 292.69 L 371.24 292.73 L 371.31 292.72 L 371.52 292.71 L 371.85 292.58 L 372.05 292.54 L 372.29 292.52 L 372.40 292.51 L 372.63 292.50 L 373.01 292.50 L 373.39 292.49 L 373.68 292.49 L 373.75 292.48 L 373.82 292.48 L 373.82 292.47 L 374.05 292.47 L 374.11 292.46 L 374.20 292.35 L 374.82 292.34 L 374.83 292.34 L 375.00 292.32 L 375.73 292.32 L 376.21 292.17 L 376.56 292.04 L 376.57 292.04 L 376.60 292.04 L 387.20 292.03 L 387.23 292.03 L 387.35 292.03 L 387.41 292.03 L 387.45 292.02 L 387.46 292.02 L 387.91 292.02 L 388.01 292.01 L 388.14 291.98 L 388.37 291.96 L 388.51 291.96 L 388.70 291.89 L 388.80 291.89 L 388.85 291.89 L 388.90 291.89 L 389.03 291.61 L 389.05 291.61 L 389.10 291.61 L 389.21 291.61 L 389.28 291.61 L 389.38 291.68 L 389.51 291.68 L 389.77 291.66 L 389.88 291.66 L 389.98 291.66 L 390.63 290.76 L 391.19 290.52 L 391.86 289.87 L 392.03 289.87 L 392.22 289.87 L 392.43 289.87 L 396.33 289.79 L 396.65 289.79 L 433.58 289.67 L 549.85 289.50 L 550.23 289.45 L 550.50 289.45 L 550.77 289.45 L 551.17 289.03 L 551.31 289.03 L 551.41 289.03 L 551.60 287.51 L 551.87 287.80 L 552.08 287.78 L 552.13 287.78 L 552.31 287.77 L 552.35 287.77 L 552.55 287.76 L 552.72 287.69 L 553.24 286.73 L 553.26 286.73 L 553.41 286.65 L 553.91 283.55 L 553.92 283.55 L 554.02 283.54 L 554.14 283.49 L 554.68 282.05 L 554.70 282.05 L 554.81 282.05 L 554.94 282.01 L 555.14 281.49 L 555.15 281.49 L 555.24 281.48 L 555.26 281.48 L 555.31 281.19 L 555.54 279.14 L 555.56 279.14 L 555.64 279.14 L 555.89 278.96 L 555.94 278.96 L 556.13 278.62 L 556.46 278.62 L 556.51 278.62 L 556.55 278.62 L 556.61 278.62 L 556.77 278.62 L 556.94 277.69 L 556.96 277.69 L 557.06 277.69 L 557.16 276.98 L 557.18 276.98 L 557.28 276.24 L 557.33 276.20 L 557.53 275.46 L 557.56 275.46 L 557.66 275.46 L 557.80 275.45 L 558.63 275.45 L 559.05 275.44 L 568.13 275.44 L 568.23 275.44 L 568.31 275.44 L 568.47 275.44 L 568.81 275.25 L 568.84 275.25 L 568.90 275.19 L 569.12 274.16 L 569.14 274.16 L 571.12 274.18 L 571.24 273.98 L 572.24 273.98 L 572.35 273.97 L 572.47 273.90 L 573.67 273.05 L 574.19 272.89 L 574.32 272.84 L 574.75 271.23 L 575.02 271.23 L 575.46 271.10 L 576.26 271.10 L 588.42 271.10 L 589.15 271.00 L 589.18 271.02 L 590.20 271.02 L 590.25 271.02 L 590.60 271.02 L 591.02 270.99 L 591.02 270.99 L 591.06 270.99 L 591.61 270.05 L 592.85 270.03 L 592.94 270.02 L 593.06 270.02 L 593.25 269.98 L 593.31 269.95 L 593.38 269.95 L 593.96 269.91 L 594.43 269.91 L 594.68 269.91 L 594.71 269.91 L 595.23 269.89 L 595.63 269.78 L 595.65 269.78 L 595.70 269.78 L 595.75 269.78 L 608.94 269.56 L 608.97 269.56 L 609.01 269.56 L 609.26 269.56 L 609.46 269.56 L 610.63 268.64 L 610.92 268.58 L 611.75 268.51 L 612.47 268.46 L 613.01 268.46 L 613.16 268.46 L 613.83 267.06 L 614.07 267.02 L 614.16 266.97 L 616.11 265.99 L 616.13 265.99 L 616.24 265.98 L 616.61 265.97 L 616.61 265.97 L 616.63 265.97 L 616.70 265.94 L 616.87 265.90 L 617.08 265.79 L 619.10 264.17 L 619.37 264.09 L 619.55 264.09 L 619.58 264.09 L 619.62 264.09 L 628.60 264.09 L 628.89 264.08 L 629.06 264.08 L 629.13 264.08 L 629.97 264.08 L 630.15 264.08 L 630.31 264.08 L 630.40 264.04 L 630.69 261.92 L 630.73 261.90 L 631.11 261.92 L 631.20 261.90 L 631.52 261.07 L 631.59 261.03 L 631.86 260.49 L 632.05 260.49 L 632.20 260.44 L 632.54 259.95 L 632.58 259.95 L 633.01 258.37 L 633.05 258.37 L 633.12 258.36 L 633.21 258.36 L 633.26 258.36 L 633.76 256.78 L 634.48 256.64 L 634.84 256.64 L 636.04 256.59 L 636.06 256.59 L 636.25 256.59 L 636.33 256.59 L 636.46 256.59 L 636.61 256.59 L 636.77 256.57 L 637.12 256.55 L 637.46 256.55 L 638.53 256.48 L 638.58 256.48 L 639.64 256.44 L 640.10 256.40 L 649.19 256.42 L 649.64 256.34 L 649.87 256.26 L 649.97 256.26 L 650.00 256.26"/>
	</g>
	<g id="poloto_plot2" class="poloto_plot poloto_imgs poloto_line poloto2 poloto_stroke" fill="none" stroke="black">
		<path d=" M 150.00 391.74 L 150.03 391.73 L 150.05 391.73 L 150.06 391.73 L 150.08 391.73 L 150.11 389.62 L 150.24 389.33 L 150.52 389.32 L 150.94 389.31 L 151.16 388.04 L 151.59 387.93 L 151.66 387.89 L 151.72 387.86 L 152.22 387.29 L 153.16 386.85 L 153.46 386.77 L 153.53 386.77 L 154.10 386.74 L 154.75 386.74 L 154.76 386.74 L 154.76 386.74 L 163.59 386.74 L 163.65 386.73 L 163.76 386.72 L 163.81 386.72 L 164.15 386.59 L 164.30 386.55 L 164.67 386.35 L 164.72 386.26 L 164.83 386.07 L 164.94 386.04 L 164.98 386.04 L 165.07 386.01 L 165.17 386.01 L 165.26 386.01 L 165.51 385.80 L 165.72 385.60 L 165.76 385.60 L 165.87 385.49 L 166.57 385.23 L 166.58 385.23 L 166.67 385.15 L 167.07 384.87 L 167.40 384.53 L 167.76 384.39 L 167.83 384.39 L 167.84 384.39 L 167.91 384.20 L 168.05 384.20 L 168.23 384.17 L 168.57 384.03 L 168.59 383.78 L 168.65 383.78 L 168.74 383.66 L 168.94 383.66 L 168.96 383.66 L 169.17 383.29 L 169.25 383.27 L 169.32 383.24 L 169.40 383.06 L 170.48 382.96 L 170.74 382.92 L 171.33 382.67 L 171.46 382.67 L 171.55 382.65 L 171.61 382.46 L 172.02 381.43 L 172.20 381.41 L 172.41 381.10 L 172.52 381.07 L 172.77 380.93 L 172.87 380.89 L 173.02 380.66 L 173.16 380.48 L 173.63 380.48 L 173.65 380.46 L 173.67 380.31 L 173.83 379.31 L 182.02 379.21 L 182.86 378.90 L 182.89 378.87 L 183.89 378.62 L 183.98 378.61 L 184.07 378.43 L 184.32 378.30 L 184.43 378.08 L 184.47 377.89 L 184.59 377.52 L 184.89 377.51 L 184.90 377.51 L 185.01 377.25 L 185.12 377.24 L 185.25 376.97 L 185.41 376.76 L 185.47 376.64 L 185.49 376.64 L 185.63 376.39 L 185.65 376.38 L 185.81 376.15 L 185.84 376.14 L 186.07 376.06 L 186.11 376.06 L 186.19 375.98 L 186.29 375.96 L 186.43 375.96 L 186.48 375.95 L 186.94 375.72 L 186.95 375.73 L 187.04 375.28 L 187.25 375.26 L 187.43 375.13 L 187.49 375.13 L 187.57 375.12 L 187.62 375.08 L 187.72 374.47 L 188.23 373.95 L 188.29 373.66 L 188.47 373.64 L 188.52 373.57 L 188.56 373.56 L 188.64 373.42 L 188.72 372.94 L 188.90 372.86 L 189.03 372.85 L 189.13 372.60 L 189.19 372.59 L 189.66 372.41 L 189.91 372.28 L 189.98 372.17 L 190.20 372.16 L 190.22 372.16 L 190.24 372.14 L 190.37 371.25 L 190.48 371.25 L 190.86 371.12 L 190.92 370.77 L 190.99 370.76 L 191.10 370.62 L 191.11 370.53 L 191.15 370.47 L 191.19 370.44 L 191.24 370.43 L 191.29 370.36 L 191.44 369.37 L 191.55 369.27 L 191.66 368.97 L 191.81 368.95 L 191.97 368.85 L 192.14 368.54 L 192.25 367.68 L 192.49 367.61 L 192.49 367.25 L 192.63 367.16 L 204.06 367.16 L 204.28 367.16 L 204.82 366.75 L 204.93 366.75 L 205.02 366.75 L 205.04 366.64 L 205.23 366.47 L 205.37 366.44 L 205.45 366.33 L 205.53 366.26 L 205.57 366.22 L 205.78 366.16 L 206.19 366.25 L 206.29 365.97 L 206.37 365.90 L 206.47 365.89 L 207.00 365.84 L 207.07 365.79 L 207.11 365.79 L 207.14 365.74 L 207.26 365.70 L 207.35 365.59 L 207.73 365.34 L 208.28 365.23 L 208.49 365.18 L 209.10 365.02 L 209.39 364.62 L 209.49 364.55 L 209.61 364.23 L 209.79 363.83 L 210.07 363.72 L 210.46 363.71 L 210.98 363.69 L 211.05 363.55 L 211.43 363.45 L 211.68 363.32 L 211.75 363.21 L 211.90 363.18 L 212.02 362.91 L 213.37 362.77 L 214.65 362.77 L 226.15 362.74 L 226.24 362.60 L 226.30 362.50 L 226.66 362.35 L 227.73 362.08 L 227.78 362.04 L 227.93 361.85 L 228.45 361.77 L 228.70 361.25 L 229.08 361.24 L 229.17 361.22 L 229.26 360.71 L 229.92 360.23 L 230.00 360.22 L 230.14 360.19 L 230.29 360.15 L 230.36 359.97 L 230.73 359.17 L 230.87 358.97 L 230.93 358.95 L 231.01 358.87 L 231.18 358.55 L 231.25 357.75 L 231.41 357.42 L 231.91 357.23 L 231.96 356.83 L 232.01 356.83 L 232.08 356.76 L 232.21 356.65 L 232.26 356.62 L 232.30 356.58 L 232.54 355.65 L 232.60 355.09 L 232.89 354.99 L 233.07 354.06 L 233.17 353.88 L 234.07 352.42 L 234.17 352.39 L 267.97 351.96 L 268.00 351.96 L 280.92 351.84 L 281.63 351.69 L 281.77 351.69 L 281.96 351.61 L 282.02 351.49 L 282.10 351.46 L 287.70 351.45 L 288.44 349.77 L 288.71 349.62 L 288.86 349.04 L 292.35 348.97 L 292.37 348.91 L 292.59 348.90 L 293.63 348.80 L 293.69 348.61 L 293.82 348.54 L 294.19 348.45 L 294.24 348.43 L 294.38 348.10 L 294.54 348.00 L 294.57 347.75 L 305.42 347.44 L 305.51 346.67 L 305.94 346.47 L 305.94 346.18 L 306.02 345.95 L 306.11 345.60 L 306.23 344.67 L 306.42 344.16 L 306.57 343.51 L 306.71 343.50 L 306.77 343.00 L 306.99 342.96 L 307.74 342.48 L 308.04 342.26 L 308.09 342.12 L 308.15 342.12 L 308.19 341.95 L 308.30 341.38 L 308.60 341.32 L 308.65 341.32 L 308.84 340.94 L 308.91 340.94 L 308.94 340.73 L 309.01 340.60 L 309.05 340.59 L 309.09 340.29 L 309.33 340.11 L 309.44 339.82 L 309.57 339.80 L 309.66 339.65 L 309.70 339.42 L 309.93 339.29 L 310.00 339.16 L 310.05 339.16 L 310.11 339.16 L 310.14 338.93 L 310.18 338.94 L 310.19 338.93 L 310.31 338.85 L 310.35 338.59 L 310.47 338.59 L 310.56 338.53 L 310.80 338.51 L 311.10 338.48 L 311.11 338.48 L 311.19 338.47 L 311.47 338.47 L 311.60 338.47 L 311.73 338.47 L 311.87 338.42 L 311.97 338.12 L 312.35 338.11 L 312.39 337.93 L 312.43 337.93 L 312.46 337.72 L 312.72 337.65 L 312.76 337.60 L 312.94 337.60 L 329.65 337.55 L 330.60 337.46 L 330.63 337.46 L 330.82 337.46 L 330.83 337.46 L 330.95 337.10 L 331.05 337.08 L 331.13 336.98 L 331.24 336.93 L 331.28 336.90 L 331.32 336.88 L 331.50 336.84 L 331.86 336.77 L 332.09 336.29 L 332.35 336.26 L 332.36 336.23 L 332.40 335.82 L 332.43 335.82 L 332.93 335.82 L 332.94 335.78 L 333.01 335.40 L 333.23 335.35 L 333.37 335.34 L 333.39 335.33 L 333.40 335.29 L 333.46 335.26 L 333.50 334.87 L 333.52 334.87 L 333.64 334.87 L 333.65 334.83 L 333.92 334.80 L 334.63 334.78 L 334.80 334.75 L 334.85 334.74 L 334.88 334.62 L 334.93 334.62 L 335.03 334.18 L 346.44 334.05 L 346.46 333.92 L 346.56 333.84 L 346.59 333.82 L 346.65 333.45 L 346.78 333.36 L 346.79 333.34 L 347.00 333.34 L 347.05 333.34 L 347.09 332.97 L 347.27 332.93 L 347.77 332.91 L 347.78 332.89 L 347.90 332.69 L 347.95 332.70 L 347.98 332.35 L 348.39 332.35 L 348.40 332.34 L 349.03 332.25 L 349.10 331.85 L 349.32 331.85 L 349.58 331.84 L 349.65 331.54 L 349.69 331.31 L 349.81 331.30 L 350.13 331.25 L 350.19 331.23 L 350.33 331.14 L 350.49 331.14 L 350.97 331.14 L 351.02 331.14 L 351.13 331.12 L 351.14 331.12 L 351.30 331.12 L 351.66 331.09 L 352.03 331.05 L 352.09 331.05 L 352.17 331.01 L 352.28 330.90 L 352.57 330.90 L 353.05 330.77 L 353.21 330.54 L 353.47 330.51 L 354.52 330.26 L 354.75 330.26 L 354.92 330.26 L 355.18 330.25 L 355.26 330.24 L 355.52 330.11 L 355.94 330.09 L 355.99 329.98 L 356.07 329.93 L 356.12 329.94 L 356.16 329.90 L 356.48 329.88 L 364.05 329.88 L 364.12 329.88 L 364.59 329.88 L 364.64 329.86 L 364.74 329.52 L 364.83 329.51 L 364.84 329.51 L 365.10 329.50 L 365.16 329.48 L 366.72 328.98 L 366.90 328.93 L 367.03 328.92 L 367.06 328.91 L 367.54 328.90 L 367.70 328.97 L 367.73 328.97 L 367.99 328.94 L 368.27 328.46 L 368.31 328.45 L 368.54 328.44 L 368.64 328.44 L 368.73 328.44 L 368.93 328.34 L 369.35 327.91 L 369.43 327.91 L 369.50 327.85 L 369.68 327.46 L 370.09 327.02 L 370.46 327.05 L 370.54 326.82 L 370.92 326.82 L 370.98 326.79 L 371.04 326.77 L 371.08 326.54 L 371.21 326.53 L 371.24 326.53 L 371.31 326.53 L 371.52 326.53 L 371.85 326.35 L 372.05 326.33 L 372.29 326.33 L 372.40 326.33 L 372.63 326.33 L 373.01 326.33 L 373.39 326.33 L 373.68 326.33 L 373.75 326.32 L 373.82 326.32 L 373.82 326.24 L 374.05 326.18 L 374.11 326.18 L 374.20 326.17 L 374.82 326.16 L 374.83 325.94 L 375.00 325.94 L 375.73 325.95 L 376.21 325.94 L 376.56 325.89 L 376.57 325.80 L 376.60 325.80 L 387.20 325.65 L 387.23 325.65 L 387.35 325.64 L 387.41 325.50 L 387.45 325.50 L 387.46 325.49 L 387.91 325.45 L 388.01 324.99 L 388.14 324.89 L 388.37 324.00 L 388.51 323.99 L 388.70 323.61 L 388.80 323.65 L 388.85 323.65 L 388.90 323.16 L 389.03 323.07 L 389.05 322.73 L 389.10 322.68 L 389.21 322.65 L 389.28 322.48 L 389.38 324.49 L 389.51 324.46 L 389.77 323.65 L 389.88 323.48 L 389.98 323.30 L 390.63 322.98 L 391.19 322.64 L 391.86 322.17 L 392.03 322.11 L 392.22 322.11 L 392.43 322.07 L 396.33 321.83 L 396.65 321.81 L 433.58 321.18 L 549.85 321.16 L 550.23 320.88 L 550.50 320.83 L 550.77 320.83 L 551.17 320.58 L 551.31 320.28 L 551.41 319.73 L 551.60 319.58 L 551.87 319.63 L 552.08 319.31 L 552.13 319.31 L 552.31 319.21 L 552.35 319.21 L 552.55 318.67 L 552.72 317.84 L 553.24 317.76 L 553.26 317.68 L 553.41 316.61 L 553.91 316.58 L 553.92 316.47 L 554.02 316.41 L 554.14 315.44 L 554.68 315.40 L 554.70 315.26 L 554.81 315.19 L 554.94 314.56 L 555.14 314.54 L 555.15 314.44 L 555.24 313.38 L 555.26 313.36 L 555.31 313.33 L 555.54 313.33 L 555.56 313.22 L 555.64 313.14 L 555.89 313.04 L 555.94 313.03 L 556.13 312.98 L 556.46 313.02 L 556.51 312.97 L 556.55 312.95 L 556.61 312.91 L 556.77 311.82 L 556.94 311.80 L 556.96 311.71 L 557.06 310.59 L 557.16 310.18 L 557.18 310.04 L 557.28 309.49 L 557.33 308.54 L 557.53 308.53 L 557.56 308.48 L 557.66 308.28 L 557.80 308.28 L 558.63 308.25 L 559.05 308.22 L 568.13 308.27 L 568.23 308.05 L 568.31 307.89 L 568.47 307.14 L 568.81 307.13 L 568.84 307.05 L 568.90 306.10 L 569.12 306.09 L 569.14 306.00 L 571.12 305.90 L 571.24 305.56 L 572.24 305.39 L 572.35 305.35 L 572.47 304.29 L 573.67 303.99 L 574.19 303.74 L 574.32 302.94 L 574.75 302.94 L 575.02 302.49 L 575.46 301.81 L 576.26 301.39 L 588.42 301.39 L 589.15 301.38 L 589.18 301.38 L 590.20 301.23 L 590.25 301.14 L 590.60 301.08 L 591.02 300.19 L 591.02 300.19 L 591.06 300.15 L 591.61 299.96 L 592.85 299.37 L 592.94 299.31 L 593.06 299.30 L 593.25 299.05 L 593.31 299.01 L 593.38 298.97 L 593.96 298.97 L 594.43 298.97 L 594.68 298.97 L 594.71 298.93 L 595.23 298.02 L 595.63 297.94 L 595.65 297.87 L 595.70 297.79 L 595.75 297.56 L 608.94 297.39 L 608.97 297.37 L 609.01 297.35 L 609.26 297.24 L 609.46 297.13 L 610.63 296.62 L 610.92 296.52 L 611.75 296.13 L 612.47 296.07 L 613.01 295.91 L 613.16 294.58 L 613.83 294.36 L 614.07 294.29 L 614.16 293.33 L 616.11 292.41 L 616.13 292.41 L 616.24 291.98 L 616.61 291.94 L 616.61 291.94 L 616.63 291.83 L 616.70 291.72 L 616.87 291.62 L 617.08 290.96 L 619.10 290.62 L 619.37 290.47 L 619.55 290.11 L 619.58 290.07 L 619.62 289.84 L 628.60 289.00 L 628.89 288.40 L 629.06 288.37 L 629.13 287.97 L 629.97 287.80 L 630.15 287.37 L 630.31 287.37 L 630.40 286.48 L 630.69 286.27 L 630.73 286.24 L 631.11 286.19 L 631.20 285.45 L 631.52 285.36 L 631.59 284.79 L 631.86 284.72 L 632.05 284.39 L 632.20 283.74 L 632.54 283.62 L 632.58 282.96 L 633.01 284.45 L 633.05 284.45 L 633.12 283.60 L 633.21 283.60 L 633.26 283.53 L 633.76 283.45 L 634.48 283.10 L 634.84 283.28 L 636.04 283.26 L 636.06 283.25 L 636.25 283.24 L 636.33 283.22 L 636.46 283.10 L 636.61 283.00 L 636.77 282.84 L 637.12 282.63 L 637.46 282.61 L 638.53 282.51 L 638.58 282.50 L 639.64 282.39 L 640.10 282.33 L 649.19 282.29 L 649.64 282.25 L 649.87 282.25 L 649.97 282.25 L 650.00 282.25"/>
	</g>
	<g class="poloto_legend poloto_imgs poloto_line poloto0 poloto_stroke"><line x1="680" x2="730" y1="81.25" y2="81.25"/></g>
	<g class="poloto_legend poloto_imgs poloto_line poloto1 poloto_stroke"><line x1="680" x2="730" y1="131.25" y2="131.25"/></g>
	<g class="poloto_legend poloto_imgs poloto_line poloto2 poloto_stroke"><line x1="680" x2="730" y1="181.25" y2="181.25"/></g>
	<text class="poloto_legend poloto_text poloto_line poloto0" x="675" y="100">total</text>
	<text class="poloto_legend poloto_text poloto_line poloto1" x="675" y="150">code</text>
	<text class="poloto_legend poloto_text poloto_line poloto2" x="675" y="200">docs</text>
	<text class="poloto_text poloto_name poloto_title" x="400.00" y="37.50">Workspace lines over time</text>
	<text class="poloto_text poloto_name poloto_x" x="400.00" y="640">date (JST)</text>
	<text class="poloto_text poloto_name poloto_y" x="37.50" y="250.00" transform="rotate(-90,37.50,250.00)">lines</text>
	<text class="poloto_text poloto_ticks poloto_y">
		<tspan x="135.00" y="400.00">0</tspan>
		<tspan x="135.00" y="321.46">50K</tspan>
		<tspan x="135.00" y="242.91">100K</tspan>
		<tspan x="135.00" y="164.37">150K</tspan>
	</text>
	<g class="poloto_imgs poloto_ticks poloto_y" stroke="black">
		<line x1="150.00" x2="144.00" y1="400.00" y2="400.00"/>
		<line x1="150.00" x2="144.00" y1="321.46" y2="321.46"/>
		<line x1="150.00" x2="144.00" y1="242.91" y2="242.91"/>
		<line x1="150.00" x2="144.00" y1="164.37" y2="164.37"/>
	</g>
	<g class="poloto_text poloto_ticks poloto_x">
		<text x="226.01" y="430.00" text-anchor="end" transform="rotate(-90 226.01 430.00)">2026-04-24 12:06</text>
		<text x="343.01" y="430.00" text-anchor="end" transform="rotate(-90 343.01 430.00)">2026-04-30 07:00</text>
		<text x="460.01" y="430.00" text-anchor="end" transform="rotate(-90 460.01 430.00)">2026-05-06 01:53</text>
		<text x="577.01" y="430.00" text-anchor="end" transform="rotate(-90 577.01 430.00)">2026-05-11 20:46</text>
	</g>
	<g class="poloto_imgs poloto_ticks poloto_x" stroke="black">
		<line x1="226.01" x2="226.01" y1="400.00" y2="405.00"/>
		<line x1="343.01" x2="343.01" y1="400.00" y2="405.00"/>
		<line x1="460.01" x2="460.01" y1="400.00" y2="405.00"/>
		<line x1="577.01" x2="577.01" y1="400.00" y2="405.00"/>
	</g>
	<path class="poloto_imgs poloto_ticks poloto_x" stroke="black" style="stroke-dasharray:11.700060980717833;stroke-dashoffset:-76.00897815881763;" d=" M 150.00 400.00 L 650.00 400.00"/>
	<path class="poloto_imgs poloto_ticks poloto_y" stroke="black" style="stroke-dasharray:7.854390080428954;stroke-dashoffset:-0;" d=" M 150.00 400.00 L 150.00 100.00"/>
</svg>

