<svg class="poloto" width="800" height="680" viewBox="0 0 800 680" xmlns="http://www.w3.org/2000/svg">
	<style>
.poloto{
  stroke-linecap:round;
  stroke-linejoin:round;
  font-family:Roboto,sans-serif;
  font-size:16px;
}
.poloto_background{fill:AliceBlue;}
.poloto_scatter{stroke-width:7}
.poloto_line{stroke-width:2}
.poloto_text{fill: black;}
.poloto_name{font-size:24px;dominant-baseline:auto;text-anchor:middle;}
.poloto_where{dominant-baseline:middle;text-anchor:start}
.poloto_text.poloto_legend{font-size:20px;dominant-baseline:middle;text-anchor:start;}
.poloto_text.poloto_ticks.poloto_y{dominant-baseline:middle;text-anchor:end}
.poloto_text.poloto_ticks.poloto_x{dominant-baseline:auto;text-anchor:middle}
.poloto_imgs.poloto_ticks{stroke: black;stroke-width:3;fill:none;stroke-dasharray:none}
.poloto_grid{stroke:gray;stroke-width:0.5}

.poloto0.poloto_stroke{stroke:blue;}
.poloto1.poloto_stroke{stroke:red;}
.poloto2.poloto_stroke{stroke:green;}
.poloto3.poloto_stroke{stroke:gold;}
.poloto4.poloto_stroke{stroke:aqua;}
.poloto5.poloto_stroke{stroke:lime;}
.poloto6.poloto_stroke{stroke:orange;}
.poloto7.poloto_stroke{stroke:chocolate;}
.poloto0.poloto_fill{fill:blue;}
.poloto1.poloto_fill{fill:red;}
.poloto2.poloto_fill{fill:green;}
.poloto3.poloto_fill{fill:gold;}
.poloto4.poloto_fill{fill:aqua;}
.poloto5.poloto_fill{fill:lime;}
.poloto6.poloto_fill{fill:orange;}
.poloto7.poloto_fill{fill:chocolate;}
	</style>
	<circle r="1e5" class="poloto_background" fill="white"/>
	<g id="poloto_plot0" class="poloto_plot poloto_imgs poloto_line poloto0 poloto_stroke" fill="none" stroke="black">
		<path d=" M 150.00 371.04 L 150.03 371.01 L 150.04 371.00 L 150.05 371.00 L 150.07 371.00 L 150.09 367.85 L 150.20 367.47 L 150.44 367.46 L 150.80 367.20 L 150.98 365.60 L 151.35 365.50 L 151.41 365.42 L 151.46 365.38 L 151.89 364.60 L 152.69 363.97 L 152.94 361.50 L 153.00 361.51 L 153.49 361.41 L 154.04 361.40 L 154.05 361.40 L 154.05 361.40 L 161.56 361.40 L 161.61 361.39 L 161.71 361.37 L 161.75 361.34 L 162.04 361.20 L 162.17 361.16 L 162.48 360.93 L 162.53 360.84 L 162.62 360.61 L 162.71 360.58 L 162.74 360.58 L 162.82 360.52 L 162.90 360.52 L 162.98 360.52 L 163.19 360.15 L 163.38 359.93 L 163.41 359.93 L 163.50 359.79 L 164.10 360.36 L 164.11 360.36 L 164.19 360.27 L 164.53 359.84 L 164.80 359.34 L 165.11 359.12 L 165.17 359.08 L 165.18 359.08 L 165.24 358.88 L 165.36 358.88 L 165.51 358.81 L 165.80 358.62 L 165.82 358.33 L 165.87 358.33 L 165.94 358.17 L 166.11 358.17 L 166.13 358.17 L 166.31 357.75 L 166.38 357.73 L 166.44 357.70 L 166.51 357.53 L 167.42 357.30 L 167.64 357.25 L 168.15 356.95 L 168.26 356.96 L 168.34 356.94 L 168.38 356.73 L 168.73 355.48 L 168.89 355.46 L 169.07 355.04 L 169.16 355.00 L 169.37 354.65 L 169.46 354.53 L 169.59 354.31 L 169.70 354.11 L 170.11 351.23 L 170.12 351.16 L 170.14 350.99 L 170.28 349.61 L 177.24 349.51 L 177.96 347.93 L 177.99 347.90 L 178.84 347.65 L 178.91 347.64 L 178.99 347.33 L 179.20 347.18 L 179.29 346.91 L 179.33 346.67 L 179.43 346.26 L 179.68 346.25 L 179.69 345.97 L 179.79 345.66 L 179.88 345.66 L 179.99 345.31 L 180.13 345.06 L 180.18 344.94 L 180.20 344.94 L 180.32 344.67 L 180.34 344.66 L 180.47 344.39 L 180.49 344.38 L 180.69 343.08 L 180.72 343.08 L 180.79 342.87 L 180.88 342.86 L 180.99 342.86 L 181.04 342.83 L 181.43 342.58 L 181.44 342.59 L 181.52 342.01 L 181.69 342.00 L 181.85 341.14 L 181.89 341.06 L 181.97 341.05 L 182.00 341.02 L 182.09 340.35 L 182.53 334.71 L 182.58 334.44 L 182.73 334.41 L 182.77 334.34 L 182.81 334.32 L 182.88 334.18 L 182.94 333.53 L 183.10 333.40 L 183.21 333.39 L 183.30 333.11 L 183.35 333.10 L 183.74 332.89 L 183.95 332.73 L 184.02 332.48 L 184.20 332.47 L 184.22 332.47 L 184.23 332.44 L 184.35 331.09 L 184.44 331.01 L 184.76 329.64 L 184.82 329.24 L 184.88 329.23 L 184.96 329.09 L 184.97 328.98 L 185.01 328.91 L 185.04 328.88 L 185.09 328.87 L 185.13 328.80 L 185.26 327.68 L 185.35 327.52 L 185.44 327.19 L 185.57 327.17 L 185.71 327.06 L 185.85 326.27 L 185.95 325.18 L 186.15 325.11 L 186.16 324.70 L 186.27 324.57 L 196.00 324.57 L 196.18 324.56 L 196.64 323.98 L 196.74 323.96 L 196.81 323.96 L 196.83 323.82 L 196.99 323.64 L 197.11 323.61 L 197.18 323.50 L 197.24 323.43 L 197.28 323.39 L 197.46 323.33 L 197.81 323.26 L 197.90 322.96 L 197.96 322.89 L 198.05 322.88 L 198.50 322.73 L 198.56 322.64 L 198.59 322.64 L 198.62 322.53 L 198.72 322.48 L 198.79 322.37 L 199.12 321.63 L 199.59 321.52 L 199.76 321.47 L 200.28 321.29 L 200.53 317.74 L 200.61 317.66 L 200.72 317.32 L 200.87 316.85 L 201.11 316.72 L 201.44 316.71 L 201.88 316.70 L 201.95 316.54 L 202.27 316.38 L 202.47 316.12 L 202.54 316.01 L 202.67 315.97 L 202.76 315.66 L 203.91 315.31 L 205.01 315.31 L 214.79 315.28 L 214.86 315.12 L 214.92 315.03 L 215.22 314.87 L 216.13 313.65 L 216.17 313.57 L 216.30 313.26 L 216.75 313.18 L 216.96 312.35 L 217.29 312.34 L 217.36 312.33 L 217.43 311.76 L 218.00 308.54 L 218.07 308.53 L 218.19 308.50 L 218.32 308.46 L 218.37 308.11 L 218.69 306.90 L 218.80 306.67 L 218.86 306.65 L 218.93 306.09 L 219.07 305.30 L 219.13 304.46 L 219.27 304.09 L 219.69 299.89 L 219.73 299.47 L 219.77 299.47 L 219.84 299.39 L 219.94 299.29 L 219.99 299.25 L 220.03 299.20 L 220.23 298.20 L 220.28 297.49 L 220.53 297.35 L 220.67 296.29 L 220.77 295.63 L 221.53 285.85 L 221.61 285.82 L 250.37 285.36 L 250.40 285.36 L 261.39 285.22 L 261.99 284.96 L 262.11 284.96 L 262.27 284.88 L 262.33 284.76 L 262.39 284.72 L 267.16 284.66 L 267.79 282.79 L 268.02 282.63 L 268.15 281.94 L 271.11 281.81 L 271.13 281.62 L 271.32 281.60 L 272.21 280.43 L 272.26 280.21 L 272.37 280.14 L 272.68 280.06 L 272.72 280.03 L 272.85 279.68 L 272.98 279.58 L 273.00 279.32 L 282.24 278.96 L 282.31 277.96 L 282.67 277.74 L 282.68 276.06 L 282.75 275.81 L 282.82 275.40 L 282.92 274.24 L 283.08 273.63 L 283.21 272.91 L 283.33 272.91 L 283.38 272.36 L 283.57 272.31 L 284.21 269.61 L 284.46 269.32 L 284.51 269.15 L 284.56 269.15 L 284.59 268.96 L 284.68 268.30 L 284.94 267.98 L 284.98 267.94 L 285.14 265.56 L 285.20 265.55 L 285.23 265.30 L 285.29 265.10 L 285.32 265.10 L 285.36 264.74 L 285.56 263.46 L 285.65 263.09 L 285.76 263.05 L 285.84 259.61 L 285.87 259.33 L 286.08 257.37 L 286.13 257.22 L 286.17 257.21 L 286.22 257.21 L 286.25 256.93 L 286.28 256.94 L 286.29 256.93 L 286.40 253.46 L 286.43 253.16 L 286.53 253.14 L 286.60 253.08 L 286.81 252.99 L 287.07 252.85 L 287.08 252.85 L 287.14 252.81 L 287.38 252.75 L 287.49 252.75 L 287.61 252.75 L 287.73 251.23 L 287.81 250.87 L 288.13 250.87 L 288.16 250.63 L 288.20 250.62 L 288.23 250.37 L 288.44 248.18 L 288.48 248.13 L 288.63 248.11 L 302.85 248.05 L 303.66 247.94 L 303.68 247.94 L 303.84 247.93 L 303.85 247.94 L 303.96 247.50 L 304.04 247.48 L 304.11 247.27 L 304.21 247.22 L 304.23 247.18 L 304.27 247.17 L 304.42 246.92 L 304.73 246.71 L 304.93 246.00 L 305.14 245.33 L 305.15 245.30 L 305.19 244.67 L 305.22 244.65 L 305.64 244.28 L 305.65 244.24 L 305.71 243.74 L 305.90 243.69 L 306.01 243.64 L 306.04 242.75 L 306.04 242.71 L 306.09 243.55 L 306.13 243.03 L 306.14 243.01 L 306.25 241.83 L 306.26 241.79 L 306.48 241.69 L 307.09 241.68 L 307.23 241.64 L 307.27 241.63 L 307.30 241.47 L 307.34 241.47 L 307.43 240.89 L 317.14 239.75 L 317.16 239.60 L 317.24 239.49 L 317.26 239.27 L 317.32 229.38 L 317.42 225.33 L 317.44 225.30 L 317.61 225.22 L 317.66 225.22 L 317.69 224.76 L 317.84 224.71 L 318.26 223.75 L 318.27 223.73 L 318.38 223.44 L 318.42 223.45 L 318.44 222.97 L 318.80 222.40 L 318.81 222.38 L 319.34 222.17 L 319.40 221.66 L 319.59 221.67 L 319.81 220.39 L 319.87 219.89 L 319.90 219.48 L 320.00 218.99 L 320.28 218.81 L 320.33 218.69 L 320.45 218.58 L 320.58 218.58 L 320.99 218.58 L 321.04 218.58 L 321.13 218.56 L 321.14 218.56 L 321.27 218.57 L 321.58 218.54 L 321.89 218.36 L 321.94 218.36 L 322.01 218.28 L 322.10 218.15 L 322.35 218.15 L 322.76 217.97 L 322.89 217.57 L 323.12 214.16 L 324.01 217.05 L 324.20 217.03 L 324.35 217.02 L 324.57 217.01 L 324.64 216.96 L 324.86 216.80 L 325.21 216.56 L 325.26 216.41 L 325.33 216.34 L 325.37 216.36 L 325.40 216.31 L 325.68 216.10 L 332.12 216.09 L 332.18 216.10 L 332.58 216.08 L 332.62 216.07 L 332.71 215.63 L 332.78 215.39 L 332.79 215.39 L 333.01 215.35 L 333.07 215.33 L 334.39 214.69 L 334.54 214.63 L 334.66 214.62 L 334.68 214.62 L 335.09 214.46 L 335.23 214.54 L 335.25 214.53 L 335.47 214.49 L 335.71 213.14 L 335.74 213.13 L 335.94 212.98 L 336.02 212.98 L 336.10 212.98 L 336.27 212.83 L 336.63 212.28 L 336.69 212.26 L 336.76 212.11 L 336.91 211.47 L 337.26 210.80 L 337.58 207.67 L 337.64 207.28 L 337.96 207.13 L 338.02 207.05 L 338.07 206.90 L 338.10 206.39 L 338.21 205.49 L 338.24 205.53 L 338.29 205.51 L 338.47 205.51 L 338.76 205.17 L 338.93 205.11 L 339.13 205.10 L 339.22 205.09 L 339.41 205.08 L 339.74 205.08 L 340.06 205.07 L 340.31 205.06 L 340.37 205.05 L 340.43 205.05 L 340.43 204.93 L 340.62 204.87 L 340.68 204.86 L 340.76 204.72 L 341.28 204.70 L 341.29 204.43 L 341.44 204.42 L 342.05 204.42 L 342.46 204.26 L 342.76 204.06 L 342.77 203.95 L 342.79 203.95 L 351.81 203.76 L 351.84 203.75 L 351.95 203.74 L 351.99 203.59 L 352.03 203.57 L 352.03 203.56 L 352.42 203.52 L 352.50 202.95 L 352.62 202.82 L 352.81 201.70 L 352.93 201.69 L 353.09 201.22 L 353.17 201.27 L 353.22 201.27 L 353.26 200.73 L 353.37 200.36 L 353.39 199.96 L 353.43 199.91 L 353.53 199.87 L 353.59 199.69 L 353.67 201.83 L 353.78 201.79 L 354.00 200.93 L 354.10 200.72 L 354.18 200.54 L 354.74 199.32 L 355.21 198.73 L 355.78 197.59 L 355.93 197.54 L 356.09 197.54 L 356.27 197.49 L 359.58 197.17 L 359.86 197.14 L 391.27 196.28 L 490.20 196.08 L 490.53 195.73 L 490.75 195.68 L 490.98 195.68 L 491.33 195.02 L 491.44 194.70 L 491.53 194.10 L 491.69 192.38 L 491.92 192.73 L 492.10 192.36 L 492.15 192.35 L 492.30 192.24 L 492.33 192.24 L 492.49 191.61 L 492.64 190.60 L 493.09 189.53 L 493.10 189.44 L 493.23 188.16 L 493.66 184.99 L 493.67 184.88 L 493.75 184.81 L 493.85 183.68 L 494.31 182.16 L 494.32 182.02 L 494.42 181.95 L 494.53 181.20 L 494.70 180.60 L 494.71 180.49 L 494.79 179.33 L 494.80 179.30 L 494.84 178.98 L 495.04 176.91 L 495.06 176.80 L 495.13 176.68 L 495.34 176.40 L 495.38 176.40 L 495.55 176.00 L 495.82 176.05 L 495.86 176.00 L 495.90 175.97 L 495.95 175.94 L 496.09 174.73 L 496.23 173.74 L 496.25 173.65 L 496.33 172.42 L 496.42 171.21 L 496.44 171.06 L 496.53 169.65 L 496.57 168.54 L 496.74 167.79 L 496.76 167.74 L 496.85 167.51 L 496.96 167.49 L 497.67 167.45 L 498.03 167.42 L 505.76 167.47 L 505.84 167.25 L 505.91 167.07 L 506.04 166.24 L 506.33 166.02 L 506.35 165.94 L 506.41 164.84 L 506.59 163.78 L 506.61 163.69 L 508.30 163.61 L 508.40 163.02 L 509.25 162.84 L 509.35 162.79 L 509.45 161.56 L 510.47 160.39 L 510.91 159.95 L 511.02 159.05 L 511.39 157.49 L 511.62 157.04 L 511.99 156.13 L 512.67 155.66 L 523.02 155.65 L 523.64 155.55 L 523.66 155.57 L 524.53 155.39 L 524.57 155.30 L 524.87 155.23 L 525.23 154.21 L 525.23 154.21 L 525.27 154.17 L 525.73 153.02 L 526.79 152.36 L 526.86 152.30 L 526.97 152.29 L 527.13 151.98 L 527.18 151.90 L 527.24 151.84 L 527.73 151.80 L 528.13 151.80 L 528.34 151.80 L 528.37 151.75 L 528.81 150.74 L 529.15 150.55 L 529.17 150.47 L 529.21 150.39 L 529.26 150.12 L 540.48 149.73 L 540.50 149.71 L 540.53 149.70 L 540.75 149.58 L 540.92 149.46 L 541.91 147.90 L 542.16 147.72 L 542.87 147.25 L 543.48 147.14 L 543.94 146.99 L 544.06 145.55 L 544.63 143.87 L 544.84 143.75 L 544.92 142.67 L 546.58 140.67 L 546.59 140.67 L 546.69 140.18 L 547.00 140.13 L 547.00 140.13 L 547.02 140.01 L 547.08 139.85 L 547.22 139.69 L 547.40 138.86 L 549.12 136.84 L 549.35 136.60 L 549.50 136.23 L 549.53 136.19 L 549.56 135.91 L 557.20 135.00 L 557.45 134.30 L 557.60 134.27 L 557.65 133.81 L 558.37 133.60 L 558.52 133.14 L 558.66 133.14 L 558.74 132.17 L 558.98 129.71 L 559.02 129.67 L 559.34 129.63 L 559.41 128.83 L 559.69 127.86 L 559.75 127.19 L 559.97 126.58 L 560.14 126.25 L 560.27 125.52 L 560.56 124.89 L 560.59 124.19 L 560.96 124.03 L 560.99 124.03 L 561.05 123.14 L 561.13 123.14 L 561.17 123.07 L 561.59 121.40 L 562.21 120.85 L 562.52 121.03 L 563.53 120.95 L 563.55 120.94 L 563.71 120.92 L 563.78 120.91 L 563.89 120.79 L 564.02 120.69 L 564.15 120.51 L 564.46 120.27 L 564.75 120.25 L 565.65 120.08 L 565.69 120.08 L 566.60 119.92 L 566.99 119.82 L 574.72 119.80 L 575.11 119.67 L 575.30 119.60 L 575.39 119.60 L 575.41 119.59 L 575.61 119.57 L 575.70 119.52 L 575.92 119.36 L 576.06 119.33 L 576.56 119.16 L 576.83 118.78 L 577.26 118.72 L 577.38 118.48 L 577.53 118.33 L 577.72 118.14 L 578.39 118.19 L 578.46 118.18 L 579.43 117.71 L 579.58 117.44 L 579.78 117.34 L 580.25 117.13 L 580.47 117.19 L 580.58 117.55 L 580.67 117.53 L 580.81 117.38 L 581.22 116.28 L 581.66 116.16 L 582.05 116.07 L 582.09 116.02 L 582.14 115.71 L 610.11 115.63 L 610.30 115.49 L 626.39 115.14 L 626.47 115.54 L 626.60 113.86 L 626.62 113.86 L 626.67 113.90 L 627.24 110.49 L 627.30 110.46 L 628.01 110.53 L 628.74 110.32 L 628.99 110.00 L 629.44 109.58 L 630.04 109.32 L 630.05 109.32 L 630.13 109.25 L 630.36 109.19 L 630.44 109.02 L 631.02 108.19 L 631.77 108.01 L 631.85 107.85 L 632.23 107.78 L 632.34 108.44 L 632.63 108.20 L 632.87 108.14 L 633.37 107.96 L 633.83 107.87 L 634.06 107.51 L 634.08 107.51 L 644.14 107.50 L 647.31 106.56 L 647.44 106.11 L 647.59 105.69 L 648.10 105.66 L 648.31 105.51 L 648.48 103.32 L 648.58 101.90 L 648.82 101.76 L 648.86 101.74 L 649.21 101.33 L 649.32 101.10 L 649.38 100.99 L 649.57 100.64 L 649.64 100.62 L 649.74 100.57 L 649.81 100.36 L 649.90 100.13 L 650.00 100.00"/>
	</g>
	<g id="poloto_plot1" class="poloto_plot poloto_imgs poloto_line poloto1 poloto_stroke" fill="none" stroke="black">
		<path d=" M 150.00 382.79 L 150.03 382.78 L 150.04 382.76 L 150.05 382.76 L 150.07 382.76 L 150.09 382.22 L 150.20 382.20 L 150.44 382.19 L 150.80 381.98 L 150.98 381.89 L 151.35 381.92 L 151.41 381.88 L 151.46 381.88 L 151.89 381.83 L 152.69 381.73 L 152.94 379.61 L 153.00 379.61 L 153.49 379.55 L 154.04 379.55 L 154.05 379.55 L 154.05 379.55 L 161.56 379.55 L 161.61 379.55 L 161.71 379.54 L 161.75 379.51 L 162.04 379.50 L 162.17 379.50 L 162.48 379.50 L 162.53 379.50 L 162.62 379.49 L 162.71 379.49 L 162.74 379.49 L 162.82 379.46 L 162.90 379.46 L 162.98 379.46 L 163.19 379.34 L 163.38 379.34 L 163.41 379.34 L 163.50 379.34 L 164.10 380.14 L 164.11 380.14 L 164.19 380.13 L 164.53 380.01 L 164.80 379.88 L 165.11 379.82 L 165.17 379.78 L 165.18 379.78 L 165.24 379.78 L 165.36 379.78 L 165.51 379.73 L 165.80 379.68 L 165.82 379.68 L 165.87 379.68 L 165.94 379.66 L 166.11 379.66 L 166.13 379.66 L 166.31 379.65 L 166.38 379.65 L 166.44 379.65 L 166.51 379.65 L 167.42 379.56 L 167.64 379.55 L 168.15 379.51 L 168.26 379.51 L 168.34 379.51 L 168.38 379.51 L 168.73 379.44 L 168.89 379.44 L 169.07 379.37 L 169.16 379.36 L 169.37 379.19 L 169.46 379.12 L 169.59 379.12 L 169.70 379.12 L 170.11 376.63 L 170.12 376.59 L 170.14 376.59 L 170.28 376.35 L 177.24 376.35 L 177.96 375.28 L 177.99 375.28 L 178.84 375.28 L 178.91 375.28 L 178.99 375.16 L 179.20 375.14 L 179.29 375.14 L 179.33 375.14 L 179.43 375.14 L 179.68 375.14 L 179.69 374.91 L 179.79 374.90 L 179.88 374.90 L 179.99 374.88 L 180.13 374.87 L 180.18 374.87 L 180.20 374.87 L 180.32 374.87 L 180.34 374.87 L 180.47 374.87 L 180.49 374.87 L 180.69 373.82 L 180.72 373.82 L 180.79 373.69 L 180.88 373.69 L 180.99 373.69 L 181.04 373.68 L 181.43 373.68 L 181.44 373.68 L 181.52 373.61 L 181.69 373.61 L 181.85 373.01 L 181.89 372.93 L 181.97 372.93 L 182.00 372.93 L 182.09 372.91 L 182.53 368.47 L 182.58 368.51 L 182.73 368.51 L 182.77 368.51 L 182.81 368.50 L 182.88 368.50 L 182.94 368.44 L 183.10 368.44 L 183.21 368.44 L 183.30 368.43 L 183.35 368.43 L 183.74 368.43 L 183.95 368.42 L 184.02 368.31 L 184.20 368.31 L 184.22 368.31 L 184.23 368.31 L 184.35 368.01 L 184.44 367.94 L 184.76 366.88 L 184.82 366.88 L 184.88 366.88 L 184.96 366.89 L 184.97 366.89 L 185.01 366.89 L 185.04 366.89 L 185.09 366.89 L 185.13 366.89 L 185.26 366.87 L 185.35 366.87 L 185.44 366.86 L 185.57 366.86 L 185.71 366.85 L 185.85 366.46 L 185.95 366.33 L 186.15 366.33 L 186.16 366.32 L 186.27 366.32 L 196.00 366.32 L 196.18 366.32 L 196.64 366.25 L 196.74 366.24 L 196.81 366.24 L 196.83 366.24 L 196.99 366.24 L 197.11 366.24 L 197.18 366.24 L 197.24 366.24 L 197.28 366.23 L 197.46 366.23 L 197.81 366.25 L 197.90 366.25 L 197.96 366.25 L 198.05 366.25 L 198.50 366.17 L 198.56 366.13 L 198.59 366.13 L 198.62 366.07 L 198.72 366.07 L 198.79 366.07 L 199.12 365.67 L 199.59 365.67 L 199.76 365.67 L 200.28 365.67 L 200.53 362.94 L 200.61 362.94 L 200.72 362.94 L 200.87 362.94 L 201.11 362.94 L 201.44 362.94 L 201.88 362.94 L 201.95 362.94 L 202.27 362.87 L 202.47 362.76 L 202.54 362.76 L 202.67 362.76 L 202.76 362.74 L 203.91 362.57 L 205.01 362.57 L 214.79 362.57 L 214.86 362.57 L 214.92 362.57 L 215.22 362.57 L 216.13 361.71 L 216.17 361.68 L 216.30 361.60 L 216.75 361.59 L 216.96 361.38 L 217.29 361.39 L 217.36 361.39 L 217.43 361.39 L 218.00 359.00 L 218.07 359.00 L 218.19 359.00 L 218.32 359.00 L 218.37 358.85 L 218.69 358.56 L 218.80 358.56 L 218.86 358.56 L 218.93 358.12 L 219.07 357.68 L 219.13 357.68 L 219.27 357.67 L 219.69 354.11 L 219.73 354.11 L 219.77 354.11 L 219.84 354.11 L 219.94 354.11 L 219.99 354.11 L 220.03 354.11 L 220.23 354.11 L 220.28 354.04 L 220.53 354.02 L 220.67 353.97 L 220.77 353.54 L 221.53 346.46 L 221.61 346.46 L 250.37 346.46 L 250.40 346.46 L 261.39 346.46 L 261.99 346.35 L 262.11 346.35 L 262.27 346.35 L 262.33 346.35 L 262.39 346.35 L 267.16 346.30 L 267.79 346.23 L 268.02 346.23 L 268.15 346.21 L 271.11 346.15 L 271.13 346.05 L 271.32 346.06 L 272.21 345.10 L 272.26 345.10 L 272.37 345.10 L 272.68 345.10 L 272.72 345.10 L 272.85 345.10 L 272.98 345.10 L 273.00 345.10 L 282.24 345.08 L 282.31 344.91 L 282.67 344.91 L 282.68 343.75 L 282.75 343.75 L 282.82 343.75 L 282.92 343.65 L 283.08 343.65 L 283.21 343.60 L 283.33 343.60 L 283.38 343.60 L 283.57 343.58 L 284.21 341.62 L 284.46 341.61 L 284.51 341.60 L 284.56 341.60 L 284.59 341.60 L 284.68 341.57 L 284.94 341.33 L 284.98 341.29 L 285.14 339.53 L 285.20 339.52 L 285.23 339.52 L 285.29 339.50 L 285.32 339.50 L 285.36 339.50 L 285.56 338.53 L 285.65 338.52 L 285.76 338.50 L 285.84 335.51 L 285.87 335.51 L 286.08 333.83 L 286.13 333.83 L 286.17 333.83 L 286.22 333.83 L 286.25 333.83 L 286.28 333.83 L 286.29 333.83 L 286.40 330.72 L 286.43 330.71 L 286.53 330.70 L 286.60 330.70 L 286.81 330.64 L 287.07 330.55 L 287.08 330.55 L 287.14 330.54 L 287.38 330.49 L 287.49 330.49 L 287.61 330.49 L 287.73 329.15 L 287.81 329.15 L 288.13 329.14 L 288.16 329.14 L 288.20 329.14 L 288.23 329.14 L 288.44 327.22 L 288.48 327.22 L 288.63 327.21 L 302.85 327.21 L 303.66 327.20 L 303.68 327.20 L 303.84 327.20 L 303.85 327.20 L 303.96 327.20 L 304.04 327.19 L 304.11 327.10 L 304.21 327.10 L 304.23 327.10 L 304.27 327.10 L 304.42 326.93 L 304.73 326.82 L 304.93 326.70 L 305.14 326.16 L 305.15 326.16 L 305.19 326.03 L 305.22 326.01 L 305.64 325.68 L 305.65 325.68 L 305.71 325.63 L 305.90 325.63 L 306.01 325.60 L 306.04 324.80 L 306.04 324.80 L 306.09 325.59 L 306.13 325.54 L 306.14 325.53 L 306.25 324.47 L 306.26 324.47 L 306.48 324.42 L 307.09 324.42 L 307.23 324.42 L 307.27 324.42 L 307.30 324.42 L 307.34 324.42 L 307.43 324.35 L 317.14 323.47 L 317.16 323.47 L 317.24 323.46 L 317.26 323.27 L 317.32 313.82 L 317.42 310.31 L 317.44 310.31 L 317.61 310.24 L 317.66 310.24 L 317.69 310.23 L 317.84 310.23 L 318.26 309.37 L 318.27 309.37 L 318.38 309.32 L 318.42 309.32 L 318.44 309.25 L 318.80 308.74 L 318.81 308.74 L 319.34 308.63 L 319.40 308.60 L 319.59 308.60 L 319.81 307.44 L 319.87 307.33 L 319.90 307.22 L 320.00 306.78 L 320.28 306.68 L 320.33 306.58 L 320.45 306.58 L 320.58 306.58 L 320.99 306.58 L 321.04 306.58 L 321.13 306.58 L 321.14 306.58 L 321.27 306.60 L 321.58 306.60 L 321.89 306.48 L 321.94 306.48 L 322.01 306.46 L 322.10 306.46 L 322.35 306.46 L 322.76 306.46 L 322.89 306.36 L 323.12 303.31 L 324.01 306.18 L 324.20 306.17 L 324.35 306.16 L 324.57 306.16 L 324.64 306.13 L 324.86 306.11 L 325.21 305.94 L 325.26 305.94 L 325.33 305.94 L 325.37 305.94 L 325.40 305.94 L 325.68 305.77 L 332.12 305.77 L 332.18 305.77 L 332.58 305.76 L 332.62 305.76 L 332.71 305.73 L 332.78 305.52 L 332.79 305.51 L 333.01 305.49 L 333.07 305.49 L 334.39 305.32 L 334.54 305.32 L 334.66 305.32 L 334.68 305.32 L 335.09 305.19 L 335.23 305.19 L 335.25 305.19 L 335.47 305.19 L 335.71 304.47 L 335.74 304.47 L 335.94 304.34 L 336.02 304.34 L 336.10 304.34 L 336.27 304.34 L 336.63 304.33 L 336.69 304.32 L 336.76 304.25 L 336.91 304.12 L 337.26 304.01 L 337.58 301.14 L 337.64 301.04 L 337.96 300.90 L 338.02 300.87 L 338.07 300.77 L 338.10 300.57 L 338.21 299.70 L 338.24 299.74 L 338.29 299.72 L 338.47 299.72 L 338.76 299.60 L 338.93 299.56 L 339.13 299.54 L 339.22 299.53 L 339.41 299.52 L 339.74 299.52 L 340.06 299.51 L 340.31 299.51 L 340.37 299.51 L 340.43 299.50 L 340.43 299.50 L 340.62 299.50 L 340.68 299.49 L 340.76 299.38 L 341.28 299.37 L 341.29 299.37 L 341.44 299.36 L 342.05 299.35 L 342.46 299.21 L 342.76 299.09 L 342.77 299.09 L 342.79 299.09 L 351.81 299.09 L 351.84 299.09 L 351.95 299.09 L 351.99 299.09 L 352.03 299.07 L 352.03 299.07 L 352.42 299.07 L 352.50 299.06 L 352.62 299.04 L 352.81 299.02 L 352.93 299.02 L 353.09 298.95 L 353.17 298.95 L 353.22 298.95 L 353.26 298.95 L 353.37 298.69 L 353.39 298.69 L 353.43 298.69 L 353.53 298.69 L 353.59 298.69 L 353.67 298.75 L 353.78 298.75 L 354.00 298.74 L 354.10 298.74 L 354.18 298.74 L 354.74 297.90 L 355.21 297.67 L 355.78 297.06 L 355.93 297.06 L 356.09 297.06 L 356.27 297.06 L 359.58 296.99 L 359.86 296.99 L 391.27 296.88 L 490.20 296.72 L 490.53 296.67 L 490.75 296.67 L 490.98 296.67 L 491.33 296.27 L 491.44 296.27 L 491.53 296.27 L 491.69 294.86 L 491.92 295.13 L 492.10 295.11 L 492.15 295.11 L 492.30 295.10 L 492.33 295.10 L 492.49 295.09 L 492.64 295.03 L 493.09 294.13 L 493.10 294.13 L 493.23 294.05 L 493.66 291.15 L 493.67 291.15 L 493.75 291.15 L 493.85 291.10 L 494.31 289.75 L 494.32 289.75 L 494.42 289.75 L 494.53 289.72 L 494.70 289.23 L 494.71 289.23 L 494.79 289.22 L 494.80 289.22 L 494.84 288.95 L 495.04 287.03 L 495.06 287.03 L 495.13 287.03 L 495.34 286.87 L 495.38 286.87 L 495.55 286.55 L 495.82 286.55 L 495.86 286.55 L 495.90 286.55 L 495.95 286.55 L 496.09 286.54 L 496.23 285.68 L 496.25 285.68 L 496.33 285.68 L 496.42 285.02 L 496.44 285.02 L 496.53 284.32 L 496.57 284.28 L 496.74 283.60 L 496.76 283.60 L 496.85 283.60 L 496.96 283.58 L 497.67 283.58 L 498.03 283.58 L 505.76 283.58 L 505.84 283.58 L 505.91 283.58 L 506.04 283.58 L 506.33 283.40 L 506.35 283.40 L 506.41 283.34 L 506.59 282.38 L 506.61 282.38 L 508.30 282.40 L 508.40 282.21 L 509.25 282.21 L 509.35 282.20 L 509.45 282.13 L 510.47 281.35 L 510.91 281.20 L 511.02 281.14 L 511.39 279.64 L 511.62 279.64 L 511.99 279.52 L 512.67 279.52 L 523.02 279.51 L 523.64 279.43 L 523.66 279.44 L 524.53 279.44 L 524.57 279.44 L 524.87 279.44 L 525.23 279.41 L 525.23 279.41 L 525.27 279.41 L 525.73 278.54 L 526.79 278.51 L 526.86 278.51 L 526.97 278.51 L 527.13 278.48 L 527.18 278.45 L 527.24 278.45 L 527.73 278.41 L 528.13 278.41 L 528.34 278.41 L 528.37 278.41 L 528.81 278.39 L 529.15 278.29 L 529.17 278.29 L 529.21 278.29 L 529.26 278.29 L 540.48 278.08 L 540.50 278.08 L 540.53 278.08 L 540.75 278.08 L 540.92 278.08 L 541.91 277.22 L 542.16 277.16 L 542.87 277.10 L 543.48 277.05 L 543.94 277.05 L 544.06 277.05 L 544.63 275.75 L 544.84 275.71 L 544.92 275.66 L 546.58 274.75 L 546.59 274.75 L 546.69 274.74 L 547.00 274.72 L 547.00 274.72 L 547.02 274.72 L 547.08 274.70 L 547.22 274.66 L 547.40 274.56 L 549.12 273.04 L 549.35 272.97 L 549.50 272.97 L 549.53 272.97 L 549.56 272.97 L 557.20 272.97 L 557.45 272.96 L 557.60 272.96 L 557.65 272.96 L 558.37 272.96 L 558.52 272.96 L 558.66 272.96 L 558.74 272.92 L 558.98 270.94 L 559.02 270.92 L 559.34 270.93 L 559.41 270.92 L 559.69 270.15 L 559.75 270.11 L 559.97 269.61 L 560.14 269.61 L 560.27 269.56 L 560.56 269.10 L 560.59 269.09 L 560.96 267.62 L 560.99 267.62 L 561.05 267.61 L 561.13 267.61 L 561.17 267.61 L 561.59 266.13 L 562.21 266.00 L 562.52 266.00 L 563.53 265.96 L 563.55 265.96 L 563.71 265.96 L 563.78 265.96 L 563.89 265.96 L 564.02 265.96 L 564.15 265.94 L 564.46 265.92 L 564.75 265.92 L 565.65 265.86 L 565.69 265.86 L 566.60 265.82 L 566.99 265.78 L 574.72 265.79 L 575.11 265.72 L 575.30 265.64 L 575.39 265.64 L 575.41 265.64 L 575.61 265.63 L 575.70 265.63 L 575.92 265.63 L 576.06 265.63 L 576.56 265.49 L 576.83 265.23 L 577.26 265.21 L 577.38 265.03 L 577.53 264.95 L 577.72 264.87 L 578.39 264.95 L 578.46 264.95 L 579.43 264.67 L 579.58 264.67 L 579.78 264.67 L 580.25 264.65 L 580.47 264.78 L 580.58 264.78 L 580.67 264.78 L 580.81 264.78 L 581.22 264.14 L 581.66 264.13 L 582.05 264.13 L 582.09 264.13 L 582.14 264.13 L 610.11 264.13 L 610.30 264.08 L 626.39 263.86 L 626.47 263.86 L 626.60 263.81 L 626.62 263.81 L 626.67 263.81 L 627.24 261.35 L 627.30 261.35 L 628.01 261.35 L 628.74 261.24 L 628.99 260.99 L 629.44 260.68 L 630.04 260.59 L 630.05 260.59 L 630.13 260.54 L 630.36 260.54 L 630.44 260.49 L 631.02 259.83 L 631.77 259.72 L 631.85 259.72 L 632.23 259.72 L 632.34 259.72 L 632.63 259.55 L 632.87 259.53 L 633.37 259.39 L 633.83 259.32 L 634.06 259.32 L 634.08 259.32 L 644.14 259.32 L 647.31 259.27 L 647.44 259.25 L 647.59 258.95 L 648.10 258.97 L 648.31 258.97 L 648.48 258.97 L 648.58 258.84 L 648.82 258.75 L 648.86 258.75 L 649.21 258.51 L 649.32 258.34 L 649.38 258.29 L 649.57 258.18 L 649.64 258.17 L 649.74 258.16 L 649.81 258.02 L 649.90 257.86 L 650.00 257.83"/>
	</g>
	<g id="poloto_plot2" class="poloto_plot poloto_imgs poloto_line poloto2 poloto_stroke" fill="none" stroke="black">
		<path d=" M 150.00 392.28 L 150.03 392.27 L 150.04 392.27 L 150.05 392.27 L 150.07 392.27 L 150.09 390.29 L 150.20 390.02 L 150.44 390.02 L 150.80 390.01 L 150.98 388.82 L 151.35 388.72 L 151.41 388.69 L 151.46 388.66 L 151.89 388.12 L 152.69 387.71 L 152.94 387.63 L 153.00 387.64 L 153.49 387.60 L 154.04 387.60 L 154.05 387.60 L 154.05 387.60 L 161.56 387.60 L 161.61 387.60 L 161.71 387.58 L 161.75 387.58 L 162.04 387.47 L 162.17 387.43 L 162.48 387.24 L 162.53 387.15 L 162.62 386.98 L 162.71 386.96 L 162.74 386.95 L 162.82 386.92 L 162.90 386.92 L 162.98 386.92 L 163.19 386.73 L 163.38 386.54 L 163.41 386.54 L 163.50 386.44 L 164.10 386.20 L 164.11 386.20 L 164.19 386.12 L 164.53 385.86 L 164.80 385.54 L 165.11 385.41 L 165.17 385.41 L 165.18 385.41 L 165.24 385.23 L 165.36 385.23 L 165.51 385.21 L 165.80 385.07 L 165.82 384.84 L 165.87 384.84 L 165.94 384.73 L 166.11 384.73 L 166.13 384.73 L 166.31 384.38 L 166.38 384.36 L 166.44 384.33 L 166.51 384.17 L 167.42 384.07 L 167.64 384.04 L 168.15 383.80 L 168.26 383.80 L 168.34 383.79 L 168.38 383.61 L 168.73 382.64 L 168.89 382.63 L 169.07 382.34 L 169.16 382.31 L 169.37 382.18 L 169.46 382.13 L 169.59 381.93 L 169.70 381.76 L 170.11 381.76 L 170.12 381.73 L 170.14 381.60 L 170.28 380.66 L 177.24 380.56 L 177.96 380.28 L 177.99 380.25 L 178.84 380.01 L 178.91 380.01 L 178.99 379.84 L 179.20 379.72 L 179.29 379.51 L 179.33 379.33 L 179.43 378.98 L 179.68 378.98 L 179.69 378.98 L 179.79 378.73 L 179.88 378.73 L 179.99 378.48 L 180.13 378.28 L 180.18 378.17 L 180.20 378.16 L 180.32 377.93 L 180.34 377.92 L 180.47 377.71 L 180.49 377.70 L 180.69 377.63 L 180.72 377.63 L 180.79 377.55 L 180.88 377.53 L 180.99 377.53 L 181.04 377.52 L 181.43 377.31 L 181.44 377.32 L 181.52 376.89 L 181.69 376.88 L 181.85 376.75 L 181.89 376.75 L 181.97 376.75 L 182.00 376.71 L 182.09 376.13 L 182.53 375.65 L 182.58 375.38 L 182.73 375.36 L 182.77 375.29 L 182.81 375.28 L 182.88 375.16 L 182.94 374.70 L 183.10 374.63 L 183.21 374.62 L 183.30 374.39 L 183.35 374.38 L 183.74 374.21 L 183.95 374.09 L 184.02 373.99 L 184.20 373.98 L 184.22 373.98 L 184.23 373.96 L 184.35 373.13 L 184.44 373.12 L 184.76 373.00 L 184.82 372.68 L 184.88 372.67 L 184.96 372.53 L 184.97 372.46 L 185.01 372.40 L 185.04 372.37 L 185.09 372.36 L 185.13 372.30 L 185.26 371.37 L 185.35 371.27 L 185.44 371.00 L 185.57 370.98 L 185.71 370.89 L 185.85 370.60 L 185.95 369.79 L 186.15 369.73 L 186.16 369.38 L 186.27 369.30 L 196.00 369.30 L 196.18 369.30 L 196.64 368.92 L 196.74 368.92 L 196.81 368.92 L 196.83 368.82 L 196.99 368.66 L 197.11 368.63 L 197.18 368.53 L 197.24 368.46 L 197.28 368.43 L 197.46 368.37 L 197.81 368.45 L 197.90 368.20 L 197.96 368.13 L 198.05 368.12 L 198.50 368.07 L 198.56 368.03 L 198.59 368.03 L 198.62 367.98 L 198.72 367.94 L 198.79 367.84 L 199.12 367.60 L 199.59 367.50 L 199.76 367.46 L 200.28 367.30 L 200.53 366.93 L 200.61 366.86 L 200.72 366.57 L 200.87 366.19 L 201.11 366.09 L 201.44 366.08 L 201.88 366.07 L 201.95 365.93 L 202.27 365.83 L 202.47 365.71 L 202.54 365.62 L 202.67 365.58 L 202.76 365.33 L 203.91 365.20 L 205.01 365.20 L 214.79 365.18 L 214.86 365.04 L 214.92 364.95 L 215.22 364.81 L 216.13 364.55 L 216.17 364.52 L 216.30 364.34 L 216.75 364.27 L 216.96 363.78 L 217.29 363.77 L 217.36 363.75 L 217.43 363.27 L 218.00 362.82 L 218.07 362.82 L 218.19 362.79 L 218.32 362.75 L 218.37 362.59 L 218.69 361.84 L 218.80 361.65 L 218.86 361.63 L 218.93 361.55 L 219.07 361.26 L 219.13 360.51 L 219.27 360.20 L 219.69 360.03 L 219.73 359.65 L 219.77 359.65 L 219.84 359.58 L 219.94 359.48 L 219.99 359.45 L 220.03 359.42 L 220.23 358.54 L 220.28 358.03 L 220.53 357.93 L 220.67 357.06 L 220.77 356.89 L 221.53 355.52 L 221.61 355.50 L 250.37 355.10 L 250.40 355.10 L 261.39 354.99 L 261.99 354.84 L 262.11 354.84 L 262.27 354.77 L 262.33 354.66 L 262.39 354.63 L 267.16 354.62 L 267.79 353.05 L 268.02 352.91 L 268.15 352.37 L 271.11 352.30 L 271.13 352.25 L 271.32 352.24 L 272.21 352.14 L 272.26 351.96 L 272.37 351.90 L 272.68 351.82 L 272.72 351.79 L 272.85 351.49 L 272.98 351.40 L 273.00 351.17 L 282.24 350.87 L 282.31 350.15 L 282.67 349.97 L 282.68 349.69 L 282.75 349.48 L 282.82 349.15 L 282.92 348.28 L 283.08 347.81 L 283.21 347.20 L 283.33 347.19 L 283.38 346.72 L 283.57 346.69 L 284.21 346.24 L 284.46 346.03 L 284.51 345.90 L 284.56 345.90 L 284.59 345.74 L 284.68 345.21 L 284.94 345.15 L 284.98 345.15 L 285.14 344.80 L 285.20 344.80 L 285.23 344.60 L 285.29 344.48 L 285.32 344.47 L 285.36 344.19 L 285.56 344.02 L 285.65 343.75 L 285.76 343.74 L 285.84 343.59 L 285.87 343.37 L 286.08 343.26 L 286.13 343.14 L 286.17 343.14 L 286.22 343.13 L 286.25 342.92 L 286.28 342.93 L 286.29 342.92 L 286.40 342.85 L 286.43 342.61 L 286.53 342.60 L 286.60 342.54 L 286.81 342.53 L 287.07 342.50 L 287.08 342.50 L 287.14 342.49 L 287.38 342.48 L 287.49 342.48 L 287.61 342.48 L 287.73 342.44 L 287.81 342.16 L 288.13 342.16 L 288.16 341.99 L 288.20 341.98 L 288.23 341.79 L 288.44 341.72 L 288.48 341.68 L 288.63 341.68 L 302.85 341.63 L 303.66 341.54 L 303.68 341.54 L 303.84 341.54 L 303.85 341.54 L 303.96 341.21 L 304.04 341.19 L 304.11 341.10 L 304.21 341.05 L 304.23 341.02 L 304.27 341.00 L 304.42 340.97 L 304.73 340.90 L 304.93 340.45 L 305.14 340.42 L 305.15 340.39 L 305.19 340.01 L 305.22 340.01 L 305.64 340.01 L 305.65 339.97 L 305.71 339.62 L 305.90 339.57 L 306.01 339.56 L 306.04 339.55 L 306.04 339.51 L 306.09 339.49 L 306.13 339.13 L 306.14 339.12 L 306.25 339.12 L 306.26 339.09 L 306.48 339.05 L 307.09 339.04 L 307.23 339.01 L 307.27 339.00 L 307.30 338.89 L 307.34 338.89 L 307.43 338.48 L 317.14 338.35 L 317.16 338.24 L 317.24 338.16 L 317.26 338.14 L 317.32 337.80 L 317.42 337.71 L 317.44 337.69 L 317.61 337.69 L 317.66 337.69 L 317.69 337.35 L 317.84 337.31 L 318.26 337.29 L 318.27 337.27 L 318.38 337.09 L 318.42 337.09 L 318.44 336.77 L 318.80 336.77 L 318.81 336.76 L 319.34 336.68 L 319.40 336.30 L 319.59 336.30 L 319.81 336.30 L 319.87 336.01 L 319.90 335.80 L 320.00 335.79 L 320.28 335.74 L 320.33 335.73 L 320.45 335.64 L 320.58 335.64 L 320.99 335.64 L 321.04 335.64 L 321.13 335.62 L 321.14 335.62 L 321.27 335.62 L 321.58 335.59 L 321.89 335.55 L 321.94 335.55 L 322.01 335.51 L 322.10 335.41 L 322.35 335.41 L 322.76 335.29 L 322.89 335.07 L 323.12 335.05 L 324.01 334.82 L 324.20 334.82 L 324.35 334.81 L 324.57 334.81 L 324.64 334.79 L 324.86 334.67 L 325.21 334.66 L 325.26 334.55 L 325.33 334.50 L 325.37 334.52 L 325.40 334.48 L 325.68 334.46 L 332.12 334.46 L 332.18 334.46 L 332.58 334.46 L 332.62 334.44 L 332.71 334.13 L 332.78 334.11 L 332.79 334.11 L 333.01 334.11 L 333.07 334.09 L 334.39 333.62 L 334.54 333.57 L 334.66 333.56 L 334.68 333.56 L 335.09 333.55 L 335.23 333.61 L 335.25 333.61 L 335.47 333.58 L 335.71 333.13 L 335.74 333.13 L 335.94 333.11 L 336.02 333.11 L 336.10 333.11 L 336.27 333.02 L 336.63 332.62 L 336.69 332.62 L 336.76 332.56 L 336.91 332.19 L 337.26 331.79 L 337.58 331.81 L 337.64 331.60 L 337.96 331.60 L 338.02 331.57 L 338.07 331.55 L 338.10 331.34 L 338.21 331.33 L 338.24 331.33 L 338.29 331.33 L 338.47 331.33 L 338.76 331.16 L 338.93 331.14 L 339.13 331.14 L 339.22 331.14 L 339.41 331.14 L 339.74 331.14 L 340.06 331.14 L 340.31 331.14 L 340.37 331.14 L 340.43 331.13 L 340.43 331.06 L 340.62 331.00 L 340.68 331.00 L 340.76 330.99 L 341.28 330.99 L 341.29 330.78 L 341.44 330.78 L 342.05 330.78 L 342.46 330.78 L 342.76 330.73 L 342.77 330.65 L 342.79 330.65 L 351.81 330.51 L 351.84 330.50 L 351.95 330.49 L 351.99 330.37 L 352.03 330.37 L 352.03 330.36 L 352.42 330.32 L 352.50 329.89 L 352.62 329.80 L 352.81 328.96 L 352.93 328.95 L 353.09 328.59 L 353.17 328.64 L 353.22 328.63 L 353.26 328.18 L 353.37 328.10 L 353.39 327.78 L 353.43 327.73 L 353.53 327.70 L 353.59 327.55 L 353.67 329.43 L 353.78 329.40 L 354.00 328.64 L 354.10 328.48 L 354.18 328.31 L 354.74 328.01 L 355.21 327.69 L 355.78 327.25 L 355.93 327.20 L 356.09 327.20 L 356.27 327.16 L 359.58 326.94 L 359.86 326.92 L 391.27 326.33 L 490.20 326.31 L 490.53 326.05 L 490.75 326.00 L 490.98 326.00 L 491.33 325.77 L 491.44 325.49 L 491.53 324.97 L 491.69 324.83 L 491.92 324.88 L 492.10 324.58 L 492.15 324.58 L 492.30 324.48 L 492.33 324.48 L 492.49 323.98 L 492.64 323.21 L 493.09 323.14 L 493.10 323.05 L 493.23 322.06 L 493.66 322.03 L 493.67 321.93 L 493.75 321.87 L 493.85 320.97 L 494.31 320.92 L 494.32 320.79 L 494.42 320.73 L 494.53 320.14 L 494.70 320.12 L 494.71 320.02 L 494.79 319.04 L 494.80 319.02 L 494.84 318.99 L 495.04 318.99 L 495.06 318.88 L 495.13 318.81 L 495.34 318.72 L 495.38 318.71 L 495.55 318.66 L 495.82 318.70 L 495.86 318.66 L 495.90 318.63 L 495.95 318.60 L 496.09 317.58 L 496.23 317.56 L 496.25 317.47 L 496.33 316.43 L 496.42 316.05 L 496.44 315.91 L 496.53 315.40 L 496.57 314.52 L 496.74 314.51 L 496.76 314.45 L 496.85 314.27 L 496.96 314.27 L 497.67 314.24 L 498.03 314.22 L 505.76 314.26 L 505.84 314.06 L 505.91 313.91 L 506.04 313.20 L 506.33 313.19 L 506.35 313.12 L 506.41 312.23 L 506.59 312.22 L 506.61 312.14 L 508.30 312.05 L 508.40 311.72 L 509.25 311.57 L 509.35 311.53 L 509.45 310.54 L 510.47 310.26 L 510.91 310.02 L 511.02 309.28 L 511.39 309.28 L 511.62 308.86 L 511.99 308.22 L 512.67 307.83 L 523.02 307.83 L 523.64 307.82 L 523.66 307.82 L 524.53 307.68 L 524.57 307.60 L 524.87 307.54 L 525.23 306.71 L 525.23 306.71 L 525.27 306.67 L 525.73 306.50 L 526.79 305.94 L 526.86 305.88 L 526.97 305.88 L 527.13 305.65 L 527.18 305.61 L 527.24 305.57 L 527.73 305.56 L 528.13 305.56 L 528.34 305.56 L 528.37 305.53 L 528.81 304.68 L 529.15 304.61 L 529.17 304.54 L 529.21 304.46 L 529.26 304.25 L 540.48 304.10 L 540.50 304.07 L 540.53 304.06 L 540.75 303.96 L 540.92 303.85 L 541.91 303.38 L 542.16 303.28 L 542.87 302.91 L 543.48 302.86 L 543.94 302.71 L 544.06 301.47 L 544.63 301.26 L 544.84 301.20 L 544.92 300.30 L 546.58 299.44 L 546.59 299.44 L 546.69 299.04 L 547.00 299.00 L 547.00 299.00 L 547.02 298.90 L 547.08 298.79 L 547.22 298.70 L 547.40 298.09 L 549.12 297.77 L 549.35 297.63 L 549.50 297.29 L 549.53 297.25 L 549.56 297.04 L 557.20 296.25 L 557.45 295.69 L 557.60 295.67 L 557.65 295.29 L 558.37 295.13 L 558.52 294.73 L 558.66 294.73 L 558.74 293.89 L 558.98 293.70 L 559.02 293.67 L 559.34 293.62 L 559.41 292.93 L 559.69 292.85 L 559.75 292.31 L 559.97 292.25 L 560.14 291.94 L 560.27 291.34 L 560.56 291.22 L 560.59 290.60 L 560.96 291.99 L 560.99 291.99 L 561.05 291.20 L 561.13 291.20 L 561.17 291.14 L 561.59 291.07 L 562.21 290.74 L 562.52 290.91 L 563.53 290.88 L 563.55 290.88 L 563.71 290.86 L 563.78 290.85 L 563.89 290.74 L 564.02 290.64 L 564.15 290.49 L 564.46 290.29 L 564.75 290.28 L 565.65 290.19 L 565.69 290.18 L 566.60 290.07 L 566.99 290.01 L 574.72 289.98 L 575.11 289.94 L 575.30 289.94 L 575.39 289.94 L 575.41 289.94 L 575.61 289.92 L 575.70 289.89 L 575.92 289.75 L 576.06 289.72 L 576.56 289.71 L 576.83 289.64 L 577.26 289.61 L 577.38 289.58 L 577.53 289.51 L 577.72 289.42 L 578.39 289.39 L 578.46 289.37 L 579.43 289.22 L 579.58 288.97 L 579.78 288.88 L 580.25 288.74 L 580.47 288.66 L 580.58 289.00 L 580.67 288.99 L 580.81 288.86 L 581.22 288.54 L 581.66 288.45 L 582.05 288.38 L 582.09 288.35 L 582.14 288.11 L 610.11 288.06 L 610.30 287.99 L 626.39 287.92 L 626.47 288.27 L 626.60 286.87 L 626.62 286.87 L 626.67 286.91 L 627.24 286.37 L 627.30 286.34 L 628.01 286.40 L 628.74 286.34 L 628.99 286.29 L 629.44 286.24 L 630.04 286.09 L 630.05 286.09 L 630.13 286.07 L 630.36 286.02 L 630.44 285.91 L 631.02 285.84 L 631.77 285.79 L 631.85 285.64 L 632.23 285.57 L 632.34 286.19 L 632.63 286.14 L 632.87 286.11 L 633.37 286.08 L 633.83 286.08 L 634.06 285.79 L 634.08 285.79 L 644.14 285.77 L 647.31 285.03 L 647.44 284.66 L 647.59 284.57 L 648.10 284.53 L 648.31 284.40 L 648.48 282.53 L 648.58 281.53 L 648.82 281.49 L 648.86 281.47 L 649.21 281.33 L 649.32 281.29 L 649.38 281.23 L 649.57 281.01 L 649.64 280.99 L 649.74 280.96 L 649.81 280.91 L 649.90 280.85 L 650.00 280.76"/>
	</g>
	<g class="poloto_legend poloto_imgs poloto_line poloto0 poloto_stroke"><line x1="680" x2="730" y1="81.25" y2="81.25"/></g>
	<g class="poloto_legend poloto_imgs poloto_line poloto1 poloto_stroke"><line x1="680" x2="730" y1="131.25" y2="131.25"/></g>
	<g class="poloto_legend poloto_imgs poloto_line poloto2 poloto_stroke"><line x1="680" x2="730" y1="181.25" y2="181.25"/></g>
	<text class="poloto_legend poloto_text poloto_line poloto0" x="675" y="100">total</text>
	<text class="poloto_legend poloto_text poloto_line poloto1" x="675" y="150">code</text>
	<text class="poloto_legend poloto_text poloto_line poloto2" x="675" y="200">docs</text>
	<text class="poloto_text poloto_name poloto_title" x="400.00" y="37.50">Workspace lines over time</text>
	<text class="poloto_text poloto_name poloto_x" x="400.00" y="640">date (JST)</text>
	<text class="poloto_text poloto_name poloto_y" x="37.50" y="250.00" transform="rotate(-90,37.50,250.00)">lines</text>
	<text class="poloto_text poloto_ticks poloto_y">
		<tspan x="135.00" y="400.00">0</tspan>
		<tspan x="135.00" y="326.59">50K</tspan>
		<tspan x="135.00" y="253.17">100K</tspan>
		<tspan x="135.00" y="179.76">150K</tspan>
		<tspan x="135.00" y="106.34">200K</tspan>
	</text>
	<g class="poloto_imgs poloto_ticks poloto_y" stroke="black">
		<line x1="150.00" x2="144.00" y1="400.00" y2="400.00"/>
		<line x1="150.00" x2="144.00" y1="326.59" y2="326.59"/>
		<line x1="150.00" x2="144.00" y1="253.17" y2="253.17"/>
		<line x1="150.00" x2="144.00" y1="179.76" y2="179.76"/>
		<line x1="150.00" x2="144.00" y1="106.34" y2="106.34"/>
	</g>
	<g class="poloto_text poloto_ticks poloto_x">
		<text x="214.67" y="430.00" text-anchor="end" transform="rotate(-90 214.67 430.00)">2026-04-24 12:06</text>
		<text x="314.22" y="430.00" text-anchor="end" transform="rotate(-90 314.22 430.00)">2026-04-30 07:00</text>
		<text x="413.76" y="430.00" text-anchor="end" transform="rotate(-90 413.76 430.00)">2026-05-06 01:53</text>
		<text x="513.31" y="430.00" text-anchor="end" transform="rotate(-90 513.31 430.00)">2026-05-11 20:46</text>
		<text x="612.86" y="430.00" text-anchor="end" transform="rotate(-90 612.86 430.00)">2026-05-17 15:40</text>
	</g>
	<g class="poloto_imgs poloto_ticks poloto_x" stroke="black">
		<line x1="214.67" x2="214.67" y1="400.00" y2="405.00"/>
		<line x1="314.22" x2="314.22" y1="400.00" y2="405.00"/>
		<line x1="413.76" x2="413.76" y1="400.00" y2="405.00"/>
		<line x1="513.31" x2="513.31" y1="400.00" y2="405.00"/>
		<line x1="612.86" x2="612.86" y1="400.00" y2="405.00"/>
	</g>
	<path class="poloto_imgs poloto_ticks poloto_x" stroke="black" style="stroke-dasharray:9.954670412808238;stroke-dashoffset:-64.67011815001024;" d=" M 150.00 400.00 L 650.00 400.00"/>
	<path class="poloto_imgs poloto_ticks poloto_y" stroke="black" style="stroke-dasharray:7.3413892845082005;stroke-dashoffset:-0;" d=" M 150.00 400.00 L 150.00 100.00"/>
</svg>

