<svg class="poloto" width="800" height="680" viewBox="0 0 800 680" xmlns="http://www.w3.org/2000/svg">
	<style>
.poloto{
  stroke-linecap:round;
  stroke-linejoin:round;
  font-family:Roboto,sans-serif;
  font-size:16px;
}
.poloto_background{fill:AliceBlue;}
.poloto_scatter{stroke-width:7}
.poloto_line{stroke-width:2}
.poloto_text{fill: black;}
.poloto_name{font-size:24px;dominant-baseline:auto;text-anchor:middle;}
.poloto_where{dominant-baseline:middle;text-anchor:start}
.poloto_text.poloto_legend{font-size:20px;dominant-baseline:middle;text-anchor:start;}
.poloto_text.poloto_ticks.poloto_y{dominant-baseline:middle;text-anchor:end}
.poloto_text.poloto_ticks.poloto_x{dominant-baseline:auto;text-anchor:middle}
.poloto_imgs.poloto_ticks{stroke: black;stroke-width:3;fill:none;stroke-dasharray:none}
.poloto_grid{stroke:gray;stroke-width:0.5}

.poloto0.poloto_stroke{stroke:blue;}
.poloto1.poloto_stroke{stroke:red;}
.poloto2.poloto_stroke{stroke:green;}
.poloto3.poloto_stroke{stroke:gold;}
.poloto4.poloto_stroke{stroke:aqua;}
.poloto5.poloto_stroke{stroke:lime;}
.poloto6.poloto_stroke{stroke:orange;}
.poloto7.poloto_stroke{stroke:chocolate;}
.poloto0.poloto_fill{fill:blue;}
.poloto1.poloto_fill{fill:red;}
.poloto2.poloto_fill{fill:green;}
.poloto3.poloto_fill{fill:gold;}
.poloto4.poloto_fill{fill:aqua;}
.poloto5.poloto_fill{fill:lime;}
.poloto6.poloto_fill{fill:orange;}
.poloto7.poloto_fill{fill:chocolate;}
	</style>
	<circle r="1e5" class="poloto_background" fill="white"/>
	<g id="poloto_plot0" class="poloto_plot poloto_imgs poloto_line poloto0 poloto_stroke" fill="none" stroke="black">
		<path d=" M 150.00 368.87 L 150.03 368.85 L 150.05 368.83 L 150.06 368.83 L 150.08 368.83 L 150.11 365.45 L 150.24 365.05 L 150.54 365.03 L 150.97 364.75 L 151.19 363.03 L 151.63 362.93 L 151.71 362.84 L 151.77 362.80 L 152.28 361.96 L 153.25 361.28 L 153.56 358.63 L 153.63 358.63 L 154.22 358.53 L 154.89 358.51 L 154.89 358.51 L 154.90 358.51 L 163.98 358.51 L 164.04 358.51 L 164.16 358.49 L 164.21 358.46 L 164.55 358.30 L 164.71 358.26 L 165.09 358.02 L 165.15 357.91 L 165.26 357.67 L 165.37 357.63 L 165.41 357.63 L 165.50 357.57 L 165.60 357.57 L 165.70 357.57 L 165.95 357.18 L 166.18 356.94 L 166.22 356.94 L 166.32 356.79 L 167.05 357.40 L 167.06 357.40 L 167.15 357.30 L 167.56 356.85 L 167.90 356.30 L 168.27 356.06 L 168.35 356.02 L 168.35 356.02 L 168.43 355.81 L 168.57 355.81 L 168.75 355.74 L 169.10 355.53 L 169.13 355.22 L 169.19 355.22 L 169.28 355.05 L 169.48 355.05 L 169.50 355.05 L 169.72 354.60 L 169.80 354.57 L 169.88 354.54 L 169.96 354.36 L 171.06 354.11 L 171.33 354.06 L 171.95 353.74 L 172.08 353.74 L 172.17 353.73 L 172.23 353.50 L 172.65 352.16 L 172.84 352.13 L 173.06 351.68 L 173.16 351.64 L 173.42 351.27 L 173.53 351.13 L 173.68 350.89 L 173.82 350.68 L 174.31 347.59 L 174.33 347.52 L 174.35 347.33 L 174.52 345.85 L 182.94 345.74 L 183.81 344.05 L 183.84 344.01 L 184.87 343.74 L 184.96 343.73 L 185.05 343.40 L 185.30 343.23 L 185.42 342.94 L 185.46 342.69 L 185.59 342.24 L 185.89 342.24 L 185.90 341.94 L 186.02 341.61 L 186.13 341.60 L 186.26 341.23 L 186.42 340.96 L 186.49 340.83 L 186.51 340.82 L 186.66 340.53 L 186.68 340.53 L 186.84 340.24 L 186.87 340.23 L 187.11 338.83 L 187.15 338.83 L 187.23 338.60 L 187.33 338.59 L 187.47 338.59 L 187.53 338.56 L 188.00 338.29 L 188.02 338.30 L 188.11 337.68 L 188.32 337.67 L 188.50 336.74 L 188.56 336.66 L 188.65 336.65 L 188.70 336.61 L 188.80 335.89 L 189.33 329.83 L 189.39 329.54 L 189.57 329.51 L 189.62 329.44 L 189.67 329.42 L 189.75 329.26 L 189.83 328.57 L 190.02 328.43 L 190.15 328.41 L 190.26 328.11 L 190.32 328.10 L 190.79 327.88 L 191.05 327.71 L 191.13 327.44 L 191.35 327.42 L 191.37 327.42 L 191.39 327.40 L 191.53 325.94 L 191.64 325.85 L 192.03 324.38 L 192.10 323.96 L 192.17 323.95 L 192.28 323.79 L 192.29 323.68 L 192.33 323.60 L 192.37 323.57 L 192.43 323.56 L 192.48 323.48 L 192.63 322.28 L 192.75 322.11 L 192.86 321.75 L 193.01 321.73 L 193.18 321.62 L 193.35 320.77 L 193.47 319.59 L 193.71 319.52 L 193.72 319.08 L 193.86 318.94 L 205.61 318.94 L 205.84 318.92 L 206.39 318.30 L 206.51 318.29 L 206.60 318.29 L 206.62 318.13 L 206.82 317.94 L 206.96 317.90 L 207.04 317.79 L 207.12 317.71 L 207.17 317.66 L 207.38 317.61 L 207.80 317.53 L 207.91 317.21 L 207.99 317.13 L 208.09 317.12 L 208.64 316.96 L 208.71 316.86 L 208.75 316.86 L 208.78 316.75 L 208.91 316.69 L 209.00 316.57 L 209.39 315.78 L 209.96 315.66 L 210.17 315.61 L 210.79 315.41 L 211.09 311.60 L 211.20 311.52 L 211.33 311.14 L 211.51 310.64 L 211.80 310.50 L 212.20 310.49 L 212.73 310.47 L 212.81 310.31 L 213.20 310.13 L 213.45 309.86 L 213.53 309.74 L 213.68 309.70 L 213.80 309.36 L 215.19 308.99 L 216.51 308.99 L 228.34 308.95 L 228.43 308.79 L 228.49 308.68 L 228.86 308.52 L 229.96 307.20 L 230.01 307.11 L 230.17 306.78 L 230.71 306.69 L 230.97 305.80 L 231.36 305.79 L 231.45 305.78 L 231.53 305.17 L 232.22 301.70 L 232.30 301.70 L 232.45 301.67 L 232.60 301.63 L 232.67 301.25 L 233.05 299.94 L 233.19 299.70 L 233.25 299.68 L 233.34 299.08 L 233.51 298.23 L 233.58 297.33 L 233.75 296.92 L 234.27 292.42 L 234.31 291.96 L 234.36 291.96 L 234.44 291.88 L 234.57 291.76 L 234.62 291.72 L 234.67 291.67 L 234.92 290.59 L 234.97 289.83 L 235.27 289.68 L 235.45 288.55 L 235.56 287.83 L 236.48 277.33 L 236.59 277.30 L 271.36 276.79 L 271.40 276.79 L 284.68 276.65 L 285.41 276.36 L 285.56 276.36 L 285.75 276.28 L 285.82 276.15 L 285.89 276.11 L 291.66 276.04 L 292.42 274.04 L 292.70 273.86 L 292.85 273.13 L 296.44 272.98 L 296.46 272.78 L 296.69 272.76 L 297.76 271.50 L 297.82 271.27 L 297.96 271.19 L 298.33 271.10 L 298.38 271.07 L 298.53 270.69 L 298.70 270.59 L 298.72 270.31 L 309.89 269.92 L 309.97 268.85 L 310.42 268.61 L 310.43 266.80 L 310.50 266.54 L 310.60 266.10 L 310.72 264.85 L 310.91 264.19 L 311.07 263.42 L 311.21 263.42 L 311.27 262.83 L 311.50 262.77 L 312.27 259.87 L 312.58 259.56 L 312.63 259.38 L 312.70 259.37 L 312.74 259.17 L 312.85 258.46 L 313.16 258.12 L 313.21 258.07 L 313.40 255.52 L 313.47 255.51 L 313.50 255.24 L 313.57 255.03 L 313.62 255.02 L 313.66 254.64 L 313.91 253.26 L 314.02 252.87 L 314.15 252.82 L 314.25 249.12 L 314.29 248.82 L 314.53 246.72 L 314.60 246.55 L 314.64 246.55 L 314.71 246.54 L 314.75 246.25 L 314.78 246.26 L 314.79 246.25 L 314.92 242.52 L 314.96 242.20 L 315.08 242.18 L 315.17 242.11 L 315.42 242.01 L 315.73 241.86 L 315.74 241.86 L 315.82 241.82 L 316.11 241.75 L 316.25 241.75 L 316.38 241.75 L 316.52 240.12 L 316.62 239.73 L 317.02 239.73 L 317.05 239.47 L 317.10 239.47 L 317.13 239.19 L 317.39 236.84 L 317.43 236.78 L 317.62 236.77 L 334.81 236.70 L 335.79 236.58 L 335.82 236.58 L 336.01 236.58 L 336.03 236.58 L 336.15 236.11 L 336.25 236.09 L 336.33 235.86 L 336.45 235.80 L 336.48 235.77 L 336.53 235.75 L 336.71 235.49 L 337.09 235.26 L 337.32 234.50 L 337.58 233.78 L 337.59 233.74 L 337.64 233.07 L 337.67 233.05 L 338.18 232.65 L 338.19 232.60 L 338.27 232.07 L 338.49 232.01 L 338.63 231.96 L 338.66 231.01 L 338.67 230.96 L 338.73 231.86 L 338.77 231.31 L 338.79 231.29 L 338.92 230.01 L 338.93 229.98 L 339.20 229.87 L 339.93 229.85 L 340.11 229.81 L 340.16 229.80 L 340.20 229.63 L 340.24 229.63 L 340.34 229.00 L 352.09 227.79 L 352.11 227.62 L 352.21 227.50 L 352.24 227.27 L 352.30 216.63 L 352.43 212.28 L 352.45 212.25 L 352.66 212.17 L 352.71 212.17 L 352.75 211.67 L 352.94 211.62 L 353.45 210.59 L 353.46 210.57 L 353.59 210.25 L 353.64 210.26 L 353.67 209.75 L 354.09 209.14 L 354.10 209.12 L 354.75 208.88 L 354.82 208.34 L 355.05 208.35 L 355.32 206.98 L 355.39 206.44 L 355.43 206.00 L 355.55 205.47 L 355.88 205.28 L 355.94 205.15 L 356.09 205.03 L 356.25 205.03 L 356.74 205.03 L 356.80 205.03 L 356.91 205.01 L 356.92 205.01 L 357.08 205.02 L 357.45 204.99 L 357.84 204.79 L 357.90 204.79 L 357.98 204.71 L 358.09 204.56 L 358.39 204.56 L 358.88 204.37 L 359.04 203.95 L 359.31 200.28 L 360.39 203.38 L 360.63 203.37 L 360.80 203.35 L 361.07 203.35 L 361.16 203.29 L 361.43 203.12 L 361.85 202.86 L 361.91 202.70 L 361.99 202.63 L 362.04 202.64 L 362.08 202.59 L 362.41 202.36 L 370.20 202.36 L 370.27 202.36 L 370.76 202.35 L 370.80 202.33 L 370.91 201.86 L 371.00 201.60 L 371.01 201.60 L 371.28 201.56 L 371.35 201.54 L 372.94 200.85 L 373.13 200.79 L 373.27 200.77 L 373.30 200.77 L 373.79 200.60 L 373.96 200.69 L 373.99 200.68 L 374.25 200.64 L 374.55 199.19 L 374.58 199.18 L 374.82 199.01 L 374.92 199.01 L 375.01 199.01 L 375.22 198.85 L 375.65 198.26 L 375.73 198.24 L 375.81 198.08 L 375.99 197.39 L 376.42 196.67 L 376.80 193.30 L 376.87 192.89 L 377.26 192.73 L 377.33 192.64 L 377.39 192.48 L 377.43 191.94 L 377.57 190.96 L 377.60 191.00 L 377.66 190.99 L 377.89 190.98 L 378.22 190.62 L 378.43 190.56 L 378.67 190.54 L 378.79 190.53 L 379.02 190.52 L 379.42 190.52 L 379.81 190.51 L 380.11 190.51 L 380.17 190.49 L 380.25 190.49 L 380.25 190.37 L 380.48 190.30 L 380.55 190.28 L 380.64 190.14 L 381.28 190.12 L 381.29 189.82 L 381.47 189.81 L 382.21 189.82 L 382.71 189.64 L 383.07 189.42 L 383.08 189.31 L 383.11 189.30 L 394.01 189.10 L 394.05 189.10 L 394.17 189.09 L 394.23 188.92 L 394.27 188.90 L 394.28 188.89 L 394.74 188.84 L 394.85 188.23 L 394.99 188.10 L 395.22 186.89 L 395.37 186.88 L 395.55 186.37 L 395.66 186.43 L 395.71 186.43 L 395.76 185.84 L 395.90 185.45 L 395.92 185.02 L 395.97 184.96 L 396.08 184.93 L 396.16 184.73 L 396.26 187.02 L 396.39 186.98 L 396.66 186.07 L 396.77 185.84 L 396.88 185.65 L 397.55 184.33 L 398.12 183.69 L 398.81 182.48 L 398.99 182.42 L 399.18 182.42 L 399.40 182.37 L 403.41 182.02 L 403.74 181.99 L 441.72 181.06 L 561.34 180.85 L 561.73 180.47 L 562.01 180.42 L 562.28 180.42 L 562.70 179.71 L 562.84 179.36 L 562.95 178.72 L 563.14 176.87 L 563.42 177.25 L 563.64 176.85 L 563.69 176.84 L 563.87 176.72 L 563.91 176.72 L 564.11 176.04 L 564.29 174.96 L 564.83 173.81 L 564.85 173.71 L 565.00 172.34 L 565.52 168.93 L 565.53 168.82 L 565.63 168.74 L 565.75 167.53 L 566.31 165.89 L 566.32 165.74 L 566.44 165.66 L 566.57 164.85 L 566.78 164.22 L 566.79 164.10 L 566.89 162.85 L 566.90 162.82 L 566.95 162.47 L 567.19 160.25 L 567.22 160.13 L 567.30 160.00 L 567.55 159.70 L 567.60 159.70 L 567.80 159.27 L 568.14 159.32 L 568.19 159.27 L 568.23 159.24 L 568.29 159.20 L 568.45 157.90 L 568.63 156.84 L 568.66 156.75 L 568.75 155.42 L 568.86 154.13 L 568.88 153.97 L 568.99 152.45 L 569.03 151.25 L 569.24 150.45 L 569.27 150.39 L 569.37 150.14 L 569.52 150.12 L 570.37 150.09 L 570.80 150.05 L 580.15 150.10 L 580.24 149.87 L 580.33 149.67 L 580.49 148.78 L 580.84 148.55 L 580.87 148.46 L 580.94 147.28 L 581.16 146.14 L 581.18 146.04 L 583.22 145.96 L 583.35 145.32 L 584.38 145.12 L 584.49 145.08 L 584.61 143.75 L 585.85 142.50 L 586.38 142.02 L 586.51 141.05 L 586.95 139.38 L 587.23 138.90 L 587.69 137.91 L 588.51 137.41 L 601.02 137.40 L 601.76 137.29 L 601.80 137.31 L 602.84 137.12 L 602.90 137.02 L 603.26 136.95 L 603.69 135.86 L 603.69 135.86 L 603.74 135.81 L 604.29 134.57 L 605.58 133.86 L 605.66 133.80 L 605.79 133.79 L 605.99 133.46 L 606.04 133.37 L 606.12 133.31 L 606.72 133.26 L 607.20 133.26 L 607.45 133.26 L 607.49 133.21 L 608.02 132.13 L 608.44 131.92 L 608.45 131.84 L 608.50 131.75 L 608.56 131.46 L 622.13 131.04 L 622.16 131.02 L 622.20 131.00 L 622.46 130.88 L 622.67 130.75 L 623.86 129.08 L 624.16 128.88 L 625.02 128.37 L 625.76 128.25 L 626.31 128.09 L 626.46 126.55 L 627.15 124.74 L 627.41 124.61 L 627.49 123.45 L 629.50 121.30 L 629.52 121.30 L 629.63 120.78 L 630.01 120.72 L 630.02 120.72 L 630.04 120.59 L 630.11 120.42 L 630.28 120.25 L 630.50 119.35 L 632.58 117.18 L 632.85 116.92 L 633.04 116.54 L 633.07 116.49 L 633.11 116.18 L 642.35 115.20 L 642.65 114.46 L 642.83 114.43 L 642.89 113.93 L 643.76 113.70 L 643.95 113.21 L 644.11 113.21 L 644.21 112.17 L 644.50 109.52 L 644.54 109.48 L 644.93 109.44 L 645.02 108.57 L 645.36 107.54 L 645.43 106.82 L 645.70 106.16 L 645.90 105.81 L 646.06 105.02 L 646.41 104.35 L 646.44 103.59 L 646.89 103.42 L 646.93 103.42 L 647.00 102.46 L 647.09 102.46 L 647.14 102.39 L 647.66 100.59 L 648.41 100.00 L 648.77 100.19 L 650.00 100.11"/>
	</g>
	<g id="poloto_plot1" class="poloto_plot poloto_imgs poloto_line poloto1 poloto_stroke" fill="none" stroke="black">
		<path d=" M 150.00 381.50 L 150.03 381.49 L 150.05 381.48 L 150.06 381.48 L 150.08 381.48 L 150.11 380.89 L 150.24 380.87 L 150.54 380.86 L 150.97 380.64 L 151.19 380.54 L 151.63 380.56 L 151.71 380.52 L 151.77 380.52 L 152.28 380.48 L 153.25 380.37 L 153.56 378.08 L 153.63 378.08 L 154.22 378.03 L 154.89 378.02 L 154.89 378.02 L 154.90 378.02 L 163.98 378.02 L 164.04 378.02 L 164.16 378.01 L 164.21 377.98 L 164.55 377.97 L 164.71 377.97 L 165.09 377.97 L 165.15 377.97 L 165.26 377.95 L 165.37 377.95 L 165.41 377.95 L 165.50 377.93 L 165.60 377.93 L 165.70 377.93 L 165.95 377.80 L 166.18 377.80 L 166.22 377.80 L 166.32 377.80 L 167.05 378.66 L 167.06 378.66 L 167.15 378.65 L 167.56 378.52 L 167.90 378.38 L 168.27 378.31 L 168.35 378.27 L 168.35 378.27 L 168.43 378.27 L 168.57 378.27 L 168.75 378.21 L 169.10 378.16 L 169.13 378.16 L 169.19 378.16 L 169.28 378.14 L 169.48 378.14 L 169.50 378.14 L 169.72 378.13 L 169.80 378.13 L 169.88 378.13 L 169.96 378.13 L 171.06 378.03 L 171.33 378.02 L 171.95 377.98 L 172.08 377.98 L 172.17 377.98 L 172.23 377.98 L 172.65 377.91 L 172.84 377.91 L 173.06 377.83 L 173.16 377.82 L 173.42 377.63 L 173.53 377.56 L 173.68 377.56 L 173.82 377.56 L 174.31 374.89 L 174.33 374.84 L 174.35 374.84 L 174.52 374.58 L 182.94 374.58 L 183.81 373.43 L 183.84 373.43 L 184.87 373.43 L 184.96 373.43 L 185.05 373.31 L 185.30 373.29 L 185.42 373.29 L 185.46 373.29 L 185.59 373.29 L 185.89 373.29 L 185.90 373.04 L 186.02 373.03 L 186.13 373.03 L 186.26 373.00 L 186.42 373.00 L 186.49 373.00 L 186.51 373.00 L 186.66 373.00 L 186.68 373.00 L 186.84 373.00 L 186.87 373.00 L 187.11 371.86 L 187.15 371.86 L 187.23 371.73 L 187.33 371.73 L 187.47 371.73 L 187.53 371.71 L 188.00 371.71 L 188.02 371.71 L 188.11 371.64 L 188.32 371.64 L 188.50 370.99 L 188.56 370.91 L 188.65 370.91 L 188.70 370.91 L 188.80 370.89 L 189.33 366.12 L 189.39 366.16 L 189.57 366.16 L 189.62 366.16 L 189.67 366.15 L 189.75 366.15 L 189.83 366.08 L 190.02 366.08 L 190.15 366.08 L 190.26 366.08 L 190.32 366.08 L 190.79 366.07 L 191.05 366.06 L 191.13 365.95 L 191.35 365.95 L 191.37 365.95 L 191.39 365.95 L 191.53 365.62 L 191.64 365.54 L 192.03 364.41 L 192.10 364.41 L 192.17 364.41 L 192.28 364.42 L 192.29 364.42 L 192.33 364.42 L 192.37 364.42 L 192.43 364.42 L 192.48 364.42 L 192.63 364.40 L 192.75 364.40 L 192.86 364.39 L 193.01 364.39 L 193.18 364.38 L 193.35 363.96 L 193.47 363.81 L 193.71 363.81 L 193.72 363.81 L 193.86 363.81 L 205.61 363.81 L 205.84 363.80 L 206.39 363.73 L 206.51 363.72 L 206.60 363.72 L 206.62 363.72 L 206.82 363.72 L 206.96 363.72 L 207.04 363.72 L 207.12 363.72 L 207.17 363.71 L 207.38 363.71 L 207.80 363.73 L 207.91 363.73 L 207.99 363.73 L 208.09 363.73 L 208.64 363.64 L 208.71 363.60 L 208.75 363.60 L 208.78 363.54 L 208.91 363.54 L 209.00 363.53 L 209.39 363.10 L 209.96 363.10 L 210.17 363.10 L 210.79 363.10 L 211.09 360.18 L 211.20 360.17 L 211.33 360.17 L 211.51 360.17 L 211.80 360.17 L 212.20 360.17 L 212.73 360.17 L 212.81 360.17 L 213.20 360.10 L 213.45 359.98 L 213.53 359.98 L 213.68 359.98 L 213.80 359.96 L 215.19 359.78 L 216.51 359.78 L 228.34 359.77 L 228.43 359.77 L 228.49 359.77 L 228.86 359.77 L 229.96 358.85 L 230.01 358.82 L 230.17 358.73 L 230.71 358.72 L 230.97 358.50 L 231.36 358.50 L 231.45 358.50 L 231.53 358.50 L 232.22 355.94 L 232.30 355.94 L 232.45 355.94 L 232.60 355.94 L 232.67 355.77 L 233.05 355.46 L 233.19 355.46 L 233.25 355.46 L 233.34 354.99 L 233.51 354.52 L 233.58 354.52 L 233.75 354.51 L 234.27 350.69 L 234.31 350.69 L 234.36 350.69 L 234.44 350.69 L 234.57 350.69 L 234.62 350.69 L 234.67 350.69 L 234.92 350.69 L 234.97 350.60 L 235.27 350.59 L 235.45 350.53 L 235.56 350.07 L 236.48 342.46 L 236.59 342.46 L 271.36 342.46 L 271.40 342.46 L 284.68 342.46 L 285.41 342.35 L 285.56 342.35 L 285.75 342.35 L 285.82 342.35 L 285.89 342.35 L 291.66 342.29 L 292.42 342.22 L 292.70 342.22 L 292.85 342.19 L 296.44 342.13 L 296.46 342.03 L 296.69 342.03 L 297.76 340.99 L 297.82 340.99 L 297.96 340.99 L 298.33 340.99 L 298.38 340.99 L 298.53 340.99 L 298.70 340.99 L 298.72 340.99 L 309.89 340.98 L 309.97 340.80 L 310.42 340.80 L 310.43 339.55 L 310.50 339.55 L 310.60 339.55 L 310.72 339.44 L 310.91 339.44 L 311.07 339.38 L 311.21 339.38 L 311.27 339.38 L 311.50 339.37 L 312.27 337.26 L 312.58 337.25 L 312.63 337.24 L 312.70 337.24 L 312.74 337.24 L 312.85 337.21 L 313.16 336.95 L 313.21 336.91 L 313.40 335.01 L 313.47 335.01 L 313.50 335.01 L 313.57 334.98 L 313.62 334.98 L 313.66 334.98 L 313.91 333.94 L 314.02 333.93 L 314.15 333.91 L 314.25 330.70 L 314.29 330.70 L 314.53 328.89 L 314.60 328.89 L 314.64 328.88 L 314.71 328.88 L 314.75 328.88 L 314.78 328.88 L 314.79 328.88 L 314.92 325.54 L 314.96 325.54 L 315.08 325.53 L 315.17 325.53 L 315.42 325.46 L 315.73 325.37 L 315.74 325.37 L 315.82 325.35 L 316.11 325.29 L 316.25 325.29 L 316.38 325.29 L 316.52 323.85 L 316.62 323.85 L 317.02 323.85 L 317.05 323.84 L 317.10 323.84 L 317.13 323.84 L 317.39 321.78 L 317.43 321.78 L 317.62 321.77 L 334.81 321.77 L 335.79 321.76 L 335.82 321.76 L 336.01 321.76 L 336.03 321.76 L 336.15 321.76 L 336.25 321.76 L 336.33 321.65 L 336.45 321.65 L 336.48 321.65 L 336.53 321.65 L 336.71 321.47 L 337.09 321.35 L 337.32 321.23 L 337.58 320.65 L 337.59 320.65 L 337.64 320.50 L 337.67 320.48 L 338.18 320.13 L 338.19 320.13 L 338.27 320.08 L 338.49 320.08 L 338.63 320.04 L 338.66 319.19 L 338.67 319.19 L 338.73 320.03 L 338.77 319.98 L 338.79 319.97 L 338.92 318.83 L 338.93 318.83 L 339.20 318.78 L 339.93 318.78 L 340.11 318.78 L 340.16 318.78 L 340.20 318.78 L 340.24 318.78 L 340.34 318.70 L 352.09 317.75 L 352.11 317.75 L 352.21 317.75 L 352.24 317.54 L 352.30 307.39 L 352.43 303.61 L 352.45 303.61 L 352.66 303.54 L 352.71 303.54 L 352.75 303.52 L 352.94 303.52 L 353.45 302.60 L 353.46 302.60 L 353.59 302.55 L 353.64 302.55 L 353.67 302.47 L 354.09 301.92 L 354.10 301.92 L 354.75 301.81 L 354.82 301.77 L 355.05 301.78 L 355.32 300.53 L 355.39 300.41 L 355.43 300.29 L 355.55 299.82 L 355.88 299.71 L 355.94 299.61 L 356.09 299.61 L 356.25 299.61 L 356.74 299.61 L 356.80 299.61 L 356.91 299.61 L 356.92 299.61 L 357.08 299.62 L 357.45 299.62 L 357.84 299.49 L 357.90 299.49 L 357.98 299.47 L 358.09 299.47 L 358.39 299.47 L 358.88 299.47 L 359.04 299.36 L 359.31 296.08 L 360.39 299.18 L 360.63 299.16 L 360.80 299.15 L 361.07 299.15 L 361.16 299.12 L 361.43 299.10 L 361.85 298.91 L 361.91 298.91 L 361.99 298.91 L 362.04 298.91 L 362.08 298.91 L 362.41 298.73 L 370.20 298.73 L 370.27 298.74 L 370.76 298.72 L 370.80 298.72 L 370.91 298.69 L 371.00 298.46 L 371.01 298.46 L 371.28 298.43 L 371.35 298.43 L 372.94 298.25 L 373.13 298.25 L 373.27 298.25 L 373.30 298.25 L 373.79 298.11 L 373.96 298.11 L 373.99 298.11 L 374.25 298.11 L 374.55 297.33 L 374.58 297.33 L 374.82 297.20 L 374.92 297.20 L 375.01 297.20 L 375.22 297.20 L 375.65 297.19 L 375.73 297.17 L 375.81 297.10 L 375.99 296.96 L 376.42 296.84 L 376.80 293.75 L 376.87 293.65 L 377.26 293.50 L 377.33 293.46 L 377.39 293.36 L 377.43 293.14 L 377.57 292.21 L 377.60 292.25 L 377.66 292.23 L 377.89 292.23 L 378.22 292.10 L 378.43 292.05 L 378.67 292.04 L 378.79 292.03 L 379.02 292.02 L 379.42 292.02 L 379.81 292.01 L 380.11 292.01 L 380.17 292.00 L 380.25 292.00 L 380.25 291.99 L 380.48 291.99 L 380.55 291.98 L 380.64 291.86 L 381.28 291.85 L 381.29 291.85 L 381.47 291.84 L 382.21 291.84 L 382.71 291.68 L 383.07 291.55 L 383.08 291.55 L 383.11 291.55 L 394.01 291.55 L 394.05 291.55 L 394.17 291.55 L 394.23 291.55 L 394.27 291.53 L 394.28 291.53 L 394.74 291.53 L 394.85 291.52 L 394.99 291.50 L 395.22 291.48 L 395.37 291.48 L 395.55 291.40 L 395.66 291.40 L 395.71 291.40 L 395.76 291.40 L 395.90 291.12 L 395.92 291.12 L 395.97 291.12 L 396.08 291.12 L 396.16 291.12 L 396.26 291.19 L 396.39 291.19 L 396.66 291.18 L 396.77 291.18 L 396.88 291.18 L 397.55 290.27 L 398.12 290.03 L 398.81 289.38 L 398.99 289.38 L 399.18 289.38 L 399.40 289.38 L 403.41 289.30 L 403.74 289.29 L 441.72 289.18 L 561.34 289.01 L 561.73 288.96 L 562.01 288.95 L 562.28 288.95 L 562.70 288.53 L 562.84 288.53 L 562.95 288.53 L 563.14 287.01 L 563.42 287.30 L 563.64 287.28 L 563.69 287.28 L 563.87 287.26 L 563.91 287.26 L 564.11 287.26 L 564.29 287.19 L 564.83 286.23 L 564.85 286.23 L 565.00 286.14 L 565.52 283.02 L 565.53 283.02 L 565.63 283.02 L 565.75 282.97 L 566.31 281.52 L 566.32 281.52 L 566.44 281.52 L 566.57 281.48 L 566.78 280.95 L 566.79 280.95 L 566.89 280.95 L 566.90 280.95 L 566.95 280.65 L 567.19 278.59 L 567.22 278.59 L 567.30 278.59 L 567.55 278.42 L 567.60 278.42 L 567.80 278.08 L 568.14 278.08 L 568.19 278.08 L 568.23 278.08 L 568.29 278.08 L 568.45 278.07 L 568.63 277.14 L 568.66 277.14 L 568.75 277.14 L 568.86 276.43 L 568.88 276.43 L 568.99 275.69 L 569.03 275.64 L 569.24 274.90 L 569.27 274.90 L 569.37 274.90 L 569.52 274.89 L 570.37 274.89 L 570.80 274.88 L 580.15 274.88 L 580.24 274.88 L 580.33 274.88 L 580.49 274.88 L 580.84 274.69 L 580.87 274.69 L 580.94 274.63 L 581.16 273.59 L 581.18 273.59 L 583.22 273.62 L 583.35 273.41 L 584.38 273.41 L 584.49 273.41 L 584.61 273.33 L 585.85 272.48 L 586.38 272.32 L 586.51 272.26 L 586.95 270.66 L 587.23 270.66 L 587.69 270.52 L 588.51 270.52 L 601.02 270.52 L 601.76 270.42 L 601.80 270.44 L 602.84 270.44 L 602.90 270.44 L 603.26 270.44 L 603.69 270.41 L 603.69 270.41 L 603.74 270.41 L 604.29 269.47 L 605.58 269.44 L 605.66 269.44 L 605.79 269.44 L 605.99 269.40 L 606.04 269.37 L 606.12 269.37 L 606.72 269.33 L 607.20 269.33 L 607.45 269.32 L 607.49 269.32 L 608.02 269.31 L 608.44 269.20 L 608.45 269.20 L 608.50 269.20 L 608.56 269.20 L 622.13 268.98 L 622.16 268.98 L 622.20 268.98 L 622.46 268.98 L 622.67 268.98 L 623.86 268.05 L 624.16 267.99 L 625.02 267.92 L 625.76 267.87 L 626.31 267.87 L 626.46 267.87 L 627.15 266.47 L 627.41 266.43 L 627.49 266.38 L 629.50 265.39 L 629.52 265.39 L 629.63 265.38 L 630.01 265.37 L 630.02 265.37 L 630.04 265.37 L 630.11 265.34 L 630.28 265.30 L 630.50 265.19 L 632.58 263.56 L 632.85 263.48 L 633.04 263.48 L 633.07 263.48 L 633.11 263.48 L 642.35 263.48 L 642.65 263.47 L 642.83 263.47 L 642.89 263.47 L 643.76 263.47 L 643.95 263.47 L 644.11 263.47 L 644.21 263.43 L 644.50 261.30 L 644.54 261.28 L 644.93 261.29 L 645.02 261.28 L 645.36 260.45 L 645.43 260.41 L 645.70 259.87 L 645.90 259.87 L 646.06 259.82 L 646.41 259.32 L 646.44 259.32 L 646.89 257.74 L 646.93 257.74 L 647.00 257.72 L 647.09 257.72 L 647.14 257.72 L 647.66 256.14 L 648.41 255.99 L 648.77 255.99 L 650.00 255.95"/>
	</g>
	<g id="poloto_plot2" class="poloto_plot poloto_imgs poloto_line poloto2 poloto_stroke" fill="none" stroke="black">
		<path d=" M 150.00 391.70 L 150.03 391.70 L 150.05 391.70 L 150.06 391.70 L 150.08 391.70 L 150.11 389.57 L 150.24 389.28 L 150.54 389.27 L 150.97 389.26 L 151.19 387.99 L 151.63 387.88 L 151.71 387.84 L 151.77 387.81 L 152.28 387.24 L 153.25 386.79 L 153.56 386.71 L 153.63 386.71 L 154.22 386.68 L 154.89 386.68 L 154.89 386.68 L 154.90 386.68 L 163.98 386.68 L 164.04 386.67 L 164.16 386.66 L 164.21 386.66 L 164.55 386.53 L 164.71 386.49 L 165.09 386.28 L 165.15 386.19 L 165.26 386.01 L 165.37 385.98 L 165.41 385.98 L 165.50 385.94 L 165.60 385.94 L 165.70 385.95 L 165.95 385.73 L 166.18 385.54 L 166.22 385.54 L 166.32 385.42 L 167.05 385.17 L 167.06 385.17 L 167.15 385.09 L 167.56 384.80 L 167.90 384.46 L 168.27 384.32 L 168.35 384.32 L 168.35 384.32 L 168.43 384.13 L 168.57 384.13 L 168.75 384.10 L 169.10 383.96 L 169.13 383.71 L 169.19 383.71 L 169.28 383.59 L 169.48 383.59 L 169.50 383.59 L 169.72 383.22 L 169.80 383.19 L 169.88 383.16 L 169.96 382.99 L 171.06 382.88 L 171.33 382.85 L 171.95 382.59 L 172.08 382.59 L 172.17 382.58 L 172.23 382.38 L 172.65 381.34 L 172.84 381.33 L 173.06 381.02 L 173.16 380.99 L 173.42 380.85 L 173.53 380.80 L 173.68 380.58 L 173.82 380.39 L 174.31 380.39 L 174.33 380.37 L 174.35 380.22 L 174.52 379.22 L 182.94 379.11 L 183.81 378.81 L 183.84 378.77 L 184.87 378.52 L 184.96 378.51 L 185.05 378.33 L 185.30 378.21 L 185.42 377.98 L 185.46 377.79 L 185.59 377.42 L 185.89 377.41 L 185.90 377.41 L 186.02 377.15 L 186.13 377.14 L 186.26 376.87 L 186.42 376.65 L 186.49 376.54 L 186.51 376.53 L 186.66 376.28 L 186.68 376.27 L 186.84 376.05 L 186.87 376.04 L 187.11 375.96 L 187.15 375.96 L 187.23 375.87 L 187.33 375.86 L 187.47 375.86 L 187.53 375.84 L 188.00 375.61 L 188.02 375.62 L 188.11 375.17 L 188.32 375.15 L 188.50 375.01 L 188.56 375.01 L 188.65 375.01 L 188.70 374.97 L 188.80 374.35 L 189.33 373.83 L 189.39 373.54 L 189.57 373.52 L 189.62 373.45 L 189.67 373.44 L 189.75 373.30 L 189.83 372.81 L 190.02 372.74 L 190.15 372.73 L 190.26 372.48 L 190.32 372.47 L 190.79 372.29 L 191.05 372.16 L 191.13 372.05 L 191.35 372.04 L 191.37 372.04 L 191.39 372.01 L 191.53 371.12 L 191.64 371.12 L 192.03 370.99 L 192.10 370.63 L 192.17 370.63 L 192.28 370.48 L 192.29 370.40 L 192.33 370.34 L 192.37 370.30 L 192.43 370.30 L 192.48 370.23 L 192.63 369.23 L 192.75 369.13 L 192.86 368.83 L 193.01 368.81 L 193.18 368.71 L 193.35 368.40 L 193.47 367.54 L 193.71 367.47 L 193.72 367.10 L 193.86 367.01 L 205.61 367.01 L 205.84 367.01 L 206.39 366.60 L 206.51 366.60 L 206.60 366.60 L 206.62 366.49 L 206.82 366.32 L 206.96 366.29 L 207.04 366.18 L 207.12 366.11 L 207.17 366.07 L 207.38 366.01 L 207.80 366.10 L 207.91 365.82 L 207.99 365.75 L 208.09 365.74 L 208.64 365.69 L 208.71 365.64 L 208.75 365.64 L 208.78 365.59 L 208.91 365.54 L 209.00 365.44 L 209.39 365.18 L 209.96 365.07 L 210.17 365.03 L 210.79 364.86 L 211.09 364.46 L 211.20 364.39 L 211.33 364.07 L 211.51 363.66 L 211.80 363.56 L 212.20 363.55 L 212.73 363.53 L 212.81 363.38 L 213.20 363.28 L 213.45 363.15 L 213.53 363.05 L 213.68 363.01 L 213.80 362.74 L 215.19 362.61 L 216.51 362.61 L 228.34 362.57 L 228.43 362.43 L 228.49 362.33 L 228.86 362.18 L 229.96 361.91 L 230.01 361.87 L 230.17 361.68 L 230.71 361.60 L 230.97 361.08 L 231.36 361.06 L 231.45 361.05 L 231.53 360.53 L 232.22 360.05 L 232.30 360.04 L 232.45 360.01 L 232.60 359.97 L 232.67 359.79 L 233.05 358.99 L 233.19 358.78 L 233.25 358.77 L 233.34 358.68 L 233.51 358.37 L 233.58 357.56 L 233.75 357.23 L 234.27 357.04 L 234.31 356.64 L 234.36 356.64 L 234.44 356.56 L 234.57 356.46 L 234.62 356.43 L 234.67 356.39 L 234.92 355.45 L 234.97 354.89 L 235.27 354.79 L 235.45 353.85 L 235.56 353.68 L 236.48 352.20 L 236.59 352.18 L 271.36 351.75 L 271.40 351.75 L 284.68 351.63 L 285.41 351.47 L 285.56 351.47 L 285.75 351.39 L 285.82 351.27 L 285.89 351.25 L 291.66 351.23 L 292.42 349.54 L 292.70 349.40 L 292.85 348.81 L 296.44 348.74 L 296.46 348.68 L 296.69 348.67 L 297.76 348.57 L 297.82 348.37 L 297.96 348.31 L 298.33 348.22 L 298.38 348.19 L 298.53 347.87 L 298.70 347.77 L 298.72 347.52 L 309.89 347.20 L 309.97 346.43 L 310.42 346.23 L 310.43 345.94 L 310.50 345.71 L 310.60 345.35 L 310.72 344.42 L 310.91 343.91 L 311.07 343.25 L 311.21 343.25 L 311.27 342.74 L 311.50 342.71 L 312.27 342.23 L 312.58 342.00 L 312.63 341.86 L 312.70 341.86 L 312.74 341.69 L 312.85 341.12 L 313.16 341.06 L 313.21 341.05 L 313.40 340.68 L 313.47 340.68 L 313.50 340.46 L 313.57 340.33 L 313.62 340.33 L 313.66 340.02 L 313.91 339.84 L 314.02 339.55 L 314.15 339.53 L 314.25 339.37 L 314.29 339.15 L 314.53 339.02 L 314.60 338.89 L 314.64 338.89 L 314.71 338.89 L 314.75 338.65 L 314.78 338.66 L 314.79 338.66 L 314.92 338.58 L 314.96 338.32 L 315.08 338.32 L 315.17 338.25 L 315.42 338.23 L 315.73 338.21 L 315.74 338.21 L 315.82 338.19 L 316.11 338.19 L 316.25 338.19 L 316.38 338.19 L 316.52 338.15 L 316.62 337.84 L 317.02 337.84 L 317.05 337.65 L 317.10 337.65 L 317.13 337.44 L 317.39 337.37 L 317.43 337.32 L 317.62 337.32 L 334.81 337.27 L 335.79 337.18 L 335.82 337.18 L 336.01 337.18 L 336.03 337.18 L 336.15 336.81 L 336.25 336.80 L 336.33 336.70 L 336.45 336.65 L 336.48 336.61 L 336.53 336.59 L 336.71 336.56 L 337.09 336.49 L 337.32 336.00 L 337.58 335.97 L 337.59 335.94 L 337.64 335.53 L 337.67 335.53 L 338.18 335.53 L 338.19 335.49 L 338.27 335.11 L 338.49 335.06 L 338.63 335.05 L 338.66 335.04 L 338.67 335.00 L 338.73 334.97 L 338.77 334.58 L 338.79 334.57 L 338.92 334.57 L 338.93 334.54 L 339.20 334.50 L 339.93 334.49 L 340.11 334.46 L 340.16 334.44 L 340.20 334.32 L 340.24 334.32 L 340.34 333.89 L 352.09 333.75 L 352.11 333.63 L 352.21 333.54 L 352.24 333.52 L 352.30 333.15 L 352.43 333.06 L 352.45 333.04 L 352.66 333.04 L 352.71 333.04 L 352.75 332.67 L 352.94 332.62 L 353.45 332.61 L 353.46 332.59 L 353.59 332.39 L 353.64 332.39 L 353.67 332.05 L 354.09 332.05 L 354.10 332.03 L 354.75 331.95 L 354.82 331.54 L 355.05 331.54 L 355.32 331.54 L 355.39 331.24 L 355.43 331.00 L 355.55 330.99 L 355.88 330.94 L 355.94 330.93 L 356.09 330.83 L 356.25 330.83 L 356.74 330.83 L 356.80 330.83 L 356.91 330.81 L 356.92 330.81 L 357.08 330.81 L 357.45 330.78 L 357.84 330.74 L 357.90 330.74 L 357.98 330.70 L 358.09 330.59 L 358.39 330.59 L 358.88 330.45 L 359.04 330.23 L 359.31 330.20 L 360.39 329.95 L 360.63 329.95 L 360.80 329.95 L 361.07 329.94 L 361.16 329.92 L 361.43 329.80 L 361.85 329.78 L 361.91 329.67 L 361.99 329.61 L 362.04 329.63 L 362.08 329.58 L 362.41 329.57 L 370.20 329.56 L 370.27 329.56 L 370.76 329.56 L 370.80 329.55 L 370.91 329.21 L 371.00 329.19 L 371.01 329.19 L 371.28 329.18 L 371.35 329.16 L 372.94 328.66 L 373.13 328.61 L 373.27 328.60 L 373.30 328.60 L 373.79 328.58 L 373.96 328.66 L 373.99 328.65 L 374.25 328.62 L 374.55 328.14 L 374.58 328.13 L 374.82 328.12 L 374.92 328.12 L 375.01 328.12 L 375.22 328.02 L 375.65 327.59 L 375.73 327.59 L 375.81 327.52 L 375.99 327.13 L 376.42 326.69 L 376.80 326.72 L 376.87 326.49 L 377.26 326.49 L 377.33 326.46 L 377.39 326.44 L 377.43 326.21 L 377.57 326.20 L 377.60 326.20 L 377.66 326.20 L 377.89 326.20 L 378.22 326.02 L 378.43 326.00 L 378.67 326.00 L 378.79 326.00 L 379.02 326.00 L 379.42 326.00 L 379.81 326.00 L 380.11 326.00 L 380.17 325.99 L 380.25 325.99 L 380.25 325.91 L 380.48 325.85 L 380.55 325.85 L 380.64 325.84 L 381.28 325.83 L 381.29 325.61 L 381.47 325.61 L 382.21 325.61 L 382.71 325.61 L 383.07 325.56 L 383.08 325.47 L 383.11 325.47 L 394.01 325.32 L 394.05 325.31 L 394.17 325.30 L 394.23 325.16 L 394.27 325.16 L 394.28 325.16 L 394.74 325.11 L 394.85 324.66 L 394.99 324.56 L 395.22 323.66 L 395.37 323.65 L 395.55 323.26 L 395.66 323.31 L 395.71 323.30 L 395.76 322.81 L 395.90 322.73 L 395.92 322.39 L 395.97 322.34 L 396.08 322.31 L 396.16 322.14 L 396.26 324.16 L 396.39 324.12 L 396.66 323.31 L 396.77 323.13 L 396.88 322.95 L 397.55 322.63 L 398.12 322.29 L 398.81 321.82 L 398.99 321.76 L 399.18 321.76 L 399.40 321.72 L 403.41 321.48 L 403.74 321.46 L 441.72 320.83 L 561.34 320.81 L 561.73 320.52 L 562.01 320.48 L 562.28 320.48 L 562.70 320.22 L 562.84 319.92 L 562.95 319.37 L 563.14 319.22 L 563.42 319.27 L 563.64 318.95 L 563.69 318.94 L 563.87 318.84 L 563.91 318.84 L 564.11 318.30 L 564.29 317.48 L 564.83 317.40 L 564.85 317.31 L 565.00 316.24 L 565.52 316.20 L 565.53 316.10 L 565.63 316.03 L 565.75 315.06 L 566.31 315.02 L 566.32 314.88 L 566.44 314.81 L 566.57 314.18 L 566.78 314.16 L 566.79 314.05 L 566.89 312.99 L 566.90 312.97 L 566.95 312.94 L 567.19 312.94 L 567.22 312.83 L 567.30 312.75 L 567.55 312.65 L 567.60 312.64 L 567.80 312.59 L 568.14 312.63 L 568.19 312.58 L 568.23 312.56 L 568.29 312.52 L 568.45 311.43 L 568.63 311.40 L 568.66 311.31 L 568.75 310.19 L 568.86 309.78 L 568.88 309.63 L 568.99 309.08 L 569.03 308.13 L 569.24 308.12 L 569.27 308.06 L 569.37 307.87 L 569.52 307.87 L 570.37 307.84 L 570.80 307.81 L 580.15 307.85 L 580.24 307.64 L 580.33 307.48 L 580.49 306.72 L 580.84 306.71 L 580.87 306.63 L 580.94 305.67 L 581.16 305.67 L 581.18 305.57 L 583.22 305.48 L 583.35 305.13 L 584.38 304.96 L 584.49 304.93 L 584.61 303.86 L 585.85 303.56 L 586.38 303.30 L 586.51 302.50 L 586.95 302.50 L 587.23 302.05 L 587.69 301.37 L 588.51 300.95 L 601.02 300.95 L 601.76 300.94 L 601.80 300.94 L 602.84 300.78 L 602.90 300.70 L 603.26 300.63 L 603.69 299.74 L 603.69 299.74 L 603.74 299.70 L 604.29 299.51 L 605.58 298.92 L 605.66 298.86 L 605.79 298.85 L 605.99 298.60 L 606.04 298.56 L 606.12 298.51 L 606.72 298.51 L 607.20 298.51 L 607.45 298.51 L 607.49 298.47 L 608.02 297.56 L 608.44 297.48 L 608.45 297.41 L 608.50 297.33 L 608.56 297.10 L 622.13 296.93 L 622.16 296.91 L 622.20 296.89 L 622.46 296.78 L 622.67 296.67 L 623.86 296.16 L 624.16 296.05 L 625.02 295.66 L 625.76 295.60 L 626.31 295.45 L 626.46 294.11 L 627.15 293.88 L 627.41 293.82 L 627.49 292.85 L 629.50 291.93 L 629.52 291.93 L 629.63 291.50 L 630.01 291.46 L 630.02 291.46 L 630.04 291.35 L 630.11 291.23 L 630.28 291.13 L 630.50 290.47 L 632.58 290.13 L 632.85 289.98 L 633.04 289.62 L 633.07 289.58 L 633.11 289.35 L 642.35 288.50 L 642.65 287.90 L 642.83 287.87 L 642.89 287.47 L 643.76 287.30 L 643.95 286.87 L 644.11 286.87 L 644.21 285.97 L 644.50 285.76 L 644.54 285.73 L 644.93 285.68 L 645.02 284.94 L 645.36 284.85 L 645.43 284.27 L 645.70 284.21 L 645.90 283.87 L 646.06 283.22 L 646.41 283.10 L 646.44 282.43 L 646.89 283.93 L 646.93 283.93 L 647.00 283.08 L 647.09 283.08 L 647.14 283.01 L 647.66 282.93 L 648.41 282.58 L 648.77 282.76 L 650.00 282.73"/>
	</g>
	<g class="poloto_legend poloto_imgs poloto_line poloto0 poloto_stroke"><line x1="680" x2="730" y1="81.25" y2="81.25"/></g>
	<g class="poloto_legend poloto_imgs poloto_line poloto1 poloto_stroke"><line x1="680" x2="730" y1="131.25" y2="131.25"/></g>
	<g class="poloto_legend poloto_imgs poloto_line poloto2 poloto_stroke"><line x1="680" x2="730" y1="181.25" y2="181.25"/></g>
	<text class="poloto_legend poloto_text poloto_line poloto0" x="675" y="100">total</text>
	<text class="poloto_legend poloto_text poloto_line poloto1" x="675" y="150">code</text>
	<text class="poloto_legend poloto_text poloto_line poloto2" x="675" y="200">docs</text>
	<text class="poloto_text poloto_name poloto_title" x="400.00" y="37.50">Workspace lines over time</text>
	<text class="poloto_text poloto_name poloto_x" x="400.00" y="640">date (JST)</text>
	<text class="poloto_text poloto_name poloto_y" x="37.50" y="250.00" transform="rotate(-90,37.50,250.00)">lines</text>
	<text class="poloto_text poloto_ticks poloto_y">
		<tspan x="135.00" y="400.00">0</tspan>
		<tspan x="135.00" y="321.10">50K</tspan>
		<tspan x="135.00" y="242.21">100K</tspan>
		<tspan x="135.00" y="163.31">150K</tspan>
	</text>
	<g class="poloto_imgs poloto_ticks poloto_y" stroke="black">
		<line x1="150.00" x2="144.00" y1="400.00" y2="400.00"/>
		<line x1="150.00" x2="144.00" y1="321.10" y2="321.10"/>
		<line x1="150.00" x2="144.00" y1="242.21" y2="242.21"/>
		<line x1="150.00" x2="144.00" y1="163.31" y2="163.31"/>
	</g>
	<g class="poloto_text poloto_ticks poloto_x">
		<text x="228.19" y="430.00" text-anchor="end" transform="rotate(-90 228.19 430.00)">2026-04-24 12:06</text>
		<text x="348.56" y="430.00" text-anchor="end" transform="rotate(-90 348.56 430.00)">2026-04-30 07:00</text>
		<text x="468.92" y="430.00" text-anchor="end" transform="rotate(-90 468.92 430.00)">2026-05-06 01:53</text>
		<text x="589.28" y="430.00" text-anchor="end" transform="rotate(-90 589.28 430.00)">2026-05-11 20:46</text>
	</g>
	<g class="poloto_imgs poloto_ticks poloto_x" stroke="black">
		<line x1="228.19" x2="228.19" y1="400.00" y2="405.00"/>
		<line x1="348.56" x2="348.56" y1="400.00" y2="405.00"/>
		<line x1="468.92" x2="468.92" y1="400.00" y2="405.00"/>
		<line x1="589.28" x2="589.28" y1="400.00" y2="405.00"/>
	</g>
	<path class="poloto_imgs poloto_ticks poloto_x" stroke="black" style="stroke-dasharray:12.036231946855704;stroke-dashoffset:-78.19289939349983;" d=" M 150.00 400.00 L 650.00 400.00"/>
	<path class="poloto_imgs poloto_ticks poloto_y" stroke="black" style="stroke-dasharray:7.889670842932434;stroke-dashoffset:-0;" d=" M 150.00 400.00 L 150.00 100.00"/>
</svg>

