<svg class="poloto" width="800" height="680" viewBox="0 0 800 680" xmlns="http://www.w3.org/2000/svg">
	<style>
.poloto{
  stroke-linecap:round;
  stroke-linejoin:round;
  font-family:Roboto,sans-serif;
  font-size:16px;
}
.poloto_background{fill:AliceBlue;}
.poloto_scatter{stroke-width:7}
.poloto_line{stroke-width:2}
.poloto_text{fill: black;}
.poloto_name{font-size:24px;dominant-baseline:auto;text-anchor:middle;}
.poloto_where{dominant-baseline:middle;text-anchor:start}
.poloto_text.poloto_legend{font-size:20px;dominant-baseline:middle;text-anchor:start;}
.poloto_text.poloto_ticks.poloto_y{dominant-baseline:middle;text-anchor:end}
.poloto_text.poloto_ticks.poloto_x{dominant-baseline:auto;text-anchor:middle}
.poloto_imgs.poloto_ticks{stroke: black;stroke-width:3;fill:none;stroke-dasharray:none}
.poloto_grid{stroke:gray;stroke-width:0.5}

.poloto0.poloto_stroke{stroke:blue;}
.poloto1.poloto_stroke{stroke:red;}
.poloto2.poloto_stroke{stroke:green;}
.poloto3.poloto_stroke{stroke:gold;}
.poloto4.poloto_stroke{stroke:aqua;}
.poloto5.poloto_stroke{stroke:lime;}
.poloto6.poloto_stroke{stroke:orange;}
.poloto7.poloto_stroke{stroke:chocolate;}
.poloto0.poloto_fill{fill:blue;}
.poloto1.poloto_fill{fill:red;}
.poloto2.poloto_fill{fill:green;}
.poloto3.poloto_fill{fill:gold;}
.poloto4.poloto_fill{fill:aqua;}
.poloto5.poloto_fill{fill:lime;}
.poloto6.poloto_fill{fill:orange;}
.poloto7.poloto_fill{fill:chocolate;}
	</style>
	<circle r="1e5" class="poloto_background" fill="white"/>
	<g id="poloto_plot0" class="poloto_plot poloto_imgs poloto_line poloto0 poloto_stroke" fill="none" stroke="black">
		<path d=" M 150.00 369.22 L 150.03 369.19 L 150.04 369.18 L 150.05 369.18 L 150.08 369.18 L 150.11 365.84 L 150.23 365.43 L 150.52 365.42 L 150.93 365.14 L 151.15 363.44 L 151.57 363.34 L 151.65 363.25 L 151.70 363.21 L 152.20 362.38 L 153.13 361.71 L 153.42 359.09 L 153.50 359.09 L 154.06 358.99 L 154.71 358.98 L 154.71 358.98 L 154.72 358.98 L 163.46 358.98 L 163.52 358.97 L 163.63 358.95 L 163.68 358.92 L 164.01 358.77 L 164.16 358.73 L 164.53 358.48 L 164.59 358.38 L 164.69 358.14 L 164.80 358.10 L 164.84 358.10 L 164.93 358.04 L 165.02 358.04 L 165.12 358.04 L 165.36 357.65 L 165.58 357.41 L 165.62 357.42 L 165.72 357.27 L 166.42 357.87 L 166.43 357.87 L 166.52 357.77 L 166.91 357.32 L 167.23 356.79 L 167.59 356.55 L 167.67 356.51 L 167.68 356.51 L 167.74 356.30 L 167.88 356.30 L 168.05 356.23 L 168.40 356.03 L 168.42 355.71 L 168.48 355.71 L 168.56 355.55 L 168.76 355.55 L 168.78 355.55 L 168.99 355.10 L 169.07 355.08 L 169.14 355.04 L 169.22 354.86 L 170.28 354.62 L 170.54 354.57 L 171.13 354.25 L 171.26 354.26 L 171.35 354.24 L 171.40 354.01 L 171.81 352.69 L 171.99 352.66 L 172.21 352.22 L 172.31 352.18 L 172.55 351.81 L 172.66 351.68 L 172.81 351.44 L 172.94 351.23 L 173.41 348.17 L 173.43 348.10 L 173.45 347.92 L 173.61 346.45 L 181.72 346.34 L 182.56 344.67 L 182.59 344.63 L 183.58 344.37 L 183.66 344.36 L 183.75 344.03 L 184.00 343.86 L 184.11 343.57 L 184.15 343.32 L 184.27 342.89 L 184.56 342.88 L 184.57 342.58 L 184.68 342.25 L 184.79 342.25 L 184.92 341.88 L 185.08 341.62 L 185.14 341.49 L 185.16 341.48 L 185.30 341.19 L 185.32 341.19 L 185.47 340.90 L 185.50 340.89 L 185.73 339.51 L 185.77 339.51 L 185.85 339.28 L 185.95 339.27 L 186.08 339.27 L 186.14 339.24 L 186.60 338.98 L 186.61 338.99 L 186.69 338.38 L 186.90 338.36 L 187.08 337.44 L 187.14 337.36 L 187.22 337.35 L 187.26 337.32 L 187.37 336.61 L 187.88 330.61 L 187.93 330.32 L 188.11 330.30 L 188.16 330.22 L 188.20 330.20 L 188.28 330.05 L 188.36 329.36 L 188.54 329.23 L 188.67 329.21 L 188.77 328.91 L 188.83 328.90 L 189.28 328.68 L 189.53 328.51 L 189.61 328.24 L 189.82 328.23 L 189.84 328.23 L 189.86 328.20 L 189.99 326.76 L 190.10 326.68 L 190.48 325.22 L 190.54 324.80 L 190.61 324.79 L 190.71 324.64 L 190.72 324.52 L 190.77 324.45 L 190.80 324.42 L 190.86 324.41 L 190.90 324.33 L 191.05 323.15 L 191.16 322.97 L 191.27 322.62 L 191.42 322.60 L 191.58 322.49 L 191.74 321.65 L 191.86 320.48 L 192.09 320.42 L 192.10 319.98 L 192.24 319.84 L 203.56 319.84 L 203.77 319.83 L 204.31 319.21 L 204.42 319.19 L 204.50 319.19 L 204.52 319.04 L 204.72 318.85 L 204.85 318.82 L 204.93 318.70 L 205.01 318.62 L 205.05 318.58 L 205.26 318.52 L 205.66 318.45 L 205.77 318.13 L 205.84 318.05 L 205.94 318.04 L 206.47 317.88 L 206.54 317.79 L 206.58 317.79 L 206.61 317.67 L 206.72 317.62 L 206.81 317.50 L 207.19 316.72 L 207.74 316.60 L 207.94 316.55 L 208.54 316.35 L 208.83 312.58 L 208.93 312.50 L 209.06 312.13 L 209.23 311.63 L 209.51 311.50 L 209.89 311.48 L 210.41 311.47 L 210.48 311.30 L 210.86 311.13 L 211.10 310.86 L 211.18 310.75 L 211.32 310.70 L 211.44 310.37 L 212.77 310.00 L 214.05 310.00 L 225.44 309.96 L 225.52 309.80 L 225.58 309.70 L 225.94 309.53 L 227.00 308.23 L 227.05 308.15 L 227.20 307.81 L 227.72 307.73 L 227.97 306.85 L 228.34 306.84 L 228.43 306.83 L 228.52 306.23 L 229.18 302.80 L 229.26 302.79 L 229.39 302.76 L 229.54 302.72 L 229.61 302.35 L 229.98 301.06 L 230.11 300.82 L 230.17 300.80 L 230.25 300.20 L 230.42 299.36 L 230.49 298.47 L 230.65 298.07 L 231.15 293.61 L 231.19 293.16 L 231.24 293.16 L 231.32 293.08 L 231.44 292.97 L 231.49 292.93 L 231.53 292.88 L 231.77 291.81 L 231.83 291.06 L 232.12 290.91 L 232.29 289.78 L 232.40 289.08 L 233.28 278.69 L 233.38 278.66 L 266.87 278.16 L 266.90 278.16 L 279.70 278.02 L 280.40 277.74 L 280.54 277.74 L 280.73 277.66 L 280.79 277.53 L 280.86 277.49 L 286.41 277.42 L 287.15 275.44 L 287.42 275.26 L 287.56 274.54 L 291.02 274.39 L 291.04 274.19 L 291.26 274.17 L 292.29 272.93 L 292.35 272.70 L 292.48 272.62 L 292.84 272.53 L 292.89 272.50 L 293.03 272.13 L 293.19 272.03 L 293.22 271.75 L 303.97 271.37 L 304.05 270.30 L 304.48 270.07 L 304.49 268.29 L 304.56 268.02 L 304.65 267.58 L 304.77 266.36 L 304.95 265.70 L 305.10 264.94 L 305.24 264.93 L 305.30 264.35 L 305.52 264.30 L 306.26 261.43 L 306.56 261.12 L 306.61 260.94 L 306.67 260.94 L 306.71 260.74 L 306.82 260.03 L 307.12 259.70 L 307.16 259.65 L 307.35 257.13 L 307.42 257.12 L 307.45 256.85 L 307.52 256.64 L 307.56 256.64 L 307.60 256.26 L 307.84 254.89 L 307.94 254.50 L 308.07 254.45 L 308.17 250.80 L 308.20 250.50 L 308.44 248.42 L 308.51 248.26 L 308.55 248.25 L 308.61 248.25 L 308.65 247.96 L 308.68 247.96 L 308.69 247.96 L 308.81 244.27 L 308.85 243.95 L 308.97 243.93 L 309.05 243.87 L 309.30 243.76 L 309.59 243.62 L 309.60 243.62 L 309.68 243.58 L 309.96 243.51 L 310.09 243.51 L 310.22 243.51 L 310.36 241.90 L 310.45 241.52 L 310.83 241.51 L 310.87 241.26 L 310.91 241.25 L 310.94 240.98 L 311.19 238.65 L 311.24 238.60 L 311.42 238.58 L 327.97 238.51 L 328.91 238.40 L 328.94 238.40 L 329.12 238.39 L 329.14 238.40 L 329.26 237.93 L 329.35 237.91 L 329.43 237.69 L 329.55 237.63 L 329.58 237.60 L 329.62 237.58 L 329.80 237.32 L 330.16 237.09 L 330.39 236.34 L 330.64 235.63 L 330.65 235.59 L 330.69 234.93 L 330.72 234.90 L 331.22 234.51 L 331.23 234.46 L 331.30 233.94 L 331.52 233.88 L 331.65 233.83 L 331.68 232.89 L 331.69 232.84 L 331.75 233.73 L 331.78 233.18 L 331.80 233.16 L 331.93 231.90 L 331.93 231.87 L 332.19 231.76 L 332.90 231.75 L 333.07 231.70 L 333.12 231.69 L 333.16 231.53 L 333.20 231.53 L 333.30 230.90 L 344.61 229.70 L 344.63 229.54 L 344.72 229.42 L 344.75 229.19 L 344.81 218.67 L 344.94 214.37 L 344.95 214.34 L 345.16 214.26 L 345.21 214.26 L 345.24 213.76 L 345.43 213.71 L 345.92 212.69 L 345.93 212.67 L 346.05 212.36 L 346.10 212.37 L 346.13 211.86 L 346.54 211.26 L 346.55 211.24 L 347.16 211.01 L 347.24 210.47 L 347.46 210.48 L 347.72 209.12 L 347.78 208.59 L 347.82 208.16 L 347.94 207.63 L 348.26 207.45 L 348.32 207.32 L 348.46 207.20 L 348.61 207.20 L 349.09 207.20 L 349.14 207.20 L 349.25 207.17 L 349.26 207.17 L 349.41 207.19 L 349.77 207.16 L 350.14 206.96 L 350.20 206.96 L 350.28 206.88 L 350.39 206.74 L 350.67 206.74 L 351.15 206.55 L 351.30 206.13 L 351.57 202.50 L 352.60 205.57 L 352.83 205.55 L 353.00 205.54 L 353.26 205.53 L 353.34 205.48 L 353.60 205.30 L 354.01 205.06 L 354.06 204.89 L 354.14 204.82 L 354.19 204.84 L 354.23 204.78 L 354.55 204.56 L 362.05 204.55 L 362.12 204.56 L 362.58 204.54 L 362.63 204.53 L 362.73 204.07 L 362.82 203.81 L 362.83 203.80 L 363.09 203.76 L 363.15 203.74 L 364.69 203.06 L 364.87 203.00 L 365.00 202.99 L 365.03 202.98 L 365.50 202.82 L 365.67 202.90 L 365.70 202.90 L 365.95 202.85 L 366.23 201.42 L 366.27 201.41 L 366.50 201.25 L 366.60 201.25 L 366.68 201.25 L 366.88 201.09 L 367.30 200.51 L 367.38 200.49 L 367.45 200.33 L 367.62 199.64 L 368.03 198.93 L 368.40 195.60 L 368.47 195.19 L 368.85 195.03 L 368.92 194.95 L 368.98 194.78 L 369.01 194.25 L 369.14 193.29 L 369.17 193.33 L 369.24 193.31 L 369.45 193.30 L 369.78 192.95 L 369.98 192.88 L 370.21 192.87 L 370.32 192.86 L 370.54 192.85 L 370.92 192.85 L 371.30 192.84 L 371.59 192.83 L 371.65 192.82 L 371.72 192.81 L 371.73 192.70 L 371.95 192.63 L 372.01 192.62 L 372.10 192.47 L 372.72 192.45 L 372.73 192.16 L 372.90 192.15 L 373.62 192.15 L 374.09 191.98 L 374.44 191.76 L 374.45 191.65 L 374.48 191.65 L 384.98 191.45 L 385.01 191.44 L 385.13 191.43 L 385.19 191.26 L 385.23 191.25 L 385.23 191.24 L 385.68 191.19 L 385.78 190.59 L 385.92 190.45 L 386.14 189.26 L 386.28 189.25 L 386.46 188.74 L 386.56 188.81 L 386.61 188.80 L 386.66 188.22 L 386.80 187.83 L 386.81 187.41 L 386.86 187.35 L 386.97 187.32 L 387.05 187.12 L 387.14 189.39 L 387.27 189.35 L 387.53 188.44 L 387.64 188.22 L 387.74 188.03 L 388.38 186.73 L 388.94 186.10 L 389.60 184.89 L 389.77 184.84 L 389.96 184.84 L 390.16 184.78 L 394.02 184.44 L 394.34 184.41 L 430.92 183.50 L 546.11 183.28 L 546.49 182.91 L 546.75 182.86 L 547.02 182.86 L 547.42 182.16 L 547.55 181.82 L 547.66 181.18 L 547.84 179.35 L 548.11 179.73 L 548.32 179.33 L 548.37 179.32 L 548.55 179.20 L 548.59 179.21 L 548.78 178.53 L 548.95 177.46 L 549.47 176.32 L 549.49 176.23 L 549.64 174.87 L 550.13 171.50 L 550.15 171.39 L 550.24 171.31 L 550.36 170.11 L 550.90 168.49 L 550.91 168.34 L 551.03 168.27 L 551.15 167.47 L 551.35 166.84 L 551.36 166.72 L 551.45 165.49 L 551.47 165.46 L 551.51 165.11 L 551.74 162.92 L 551.77 162.79 L 551.85 162.67 L 552.09 162.38 L 552.14 162.37 L 552.33 161.95 L 552.65 162.00 L 552.70 161.94 L 552.74 161.91 L 552.80 161.88 L 552.96 160.59 L 553.13 159.54 L 553.16 159.45 L 553.25 158.14 L 553.35 156.86 L 553.37 156.70 L 553.47 155.20 L 553.52 154.02 L 553.72 153.22 L 553.75 153.17 L 553.85 152.92 L 553.98 152.90 L 554.81 152.86 L 555.22 152.83 L 564.22 152.88 L 564.31 152.65 L 564.40 152.45 L 564.55 151.57 L 564.89 151.34 L 564.92 151.26 L 564.98 150.09 L 565.20 148.96 L 565.22 148.86 L 567.18 148.78 L 567.30 148.15 L 568.29 147.96 L 568.40 147.91 L 568.52 146.60 L 569.71 145.36 L 570.22 144.89 L 570.35 143.93 L 570.78 142.28 L 571.04 141.80 L 571.48 140.83 L 572.28 140.33 L 584.32 140.32 L 585.04 140.21 L 585.07 140.23 L 586.08 140.04 L 586.13 139.95 L 586.48 139.87 L 586.89 138.79 L 586.89 138.79 L 586.94 138.75 L 587.47 137.52 L 588.71 136.82 L 588.79 136.76 L 588.92 136.75 L 589.11 136.42 L 589.16 136.34 L 589.23 136.27 L 589.81 136.23 L 590.27 136.23 L 590.52 136.23 L 590.55 136.18 L 591.07 135.11 L 591.46 134.90 L 591.48 134.82 L 591.53 134.73 L 591.58 134.44 L 604.65 134.03 L 604.68 134.01 L 604.71 133.99 L 604.97 133.87 L 605.17 133.74 L 606.32 132.09 L 606.60 131.89 L 607.43 131.39 L 608.15 131.27 L 608.67 131.11 L 608.82 129.59 L 609.49 127.80 L 609.73 127.67 L 609.82 126.52 L 611.75 124.40 L 611.77 124.40 L 611.88 123.88 L 612.24 123.82 L 612.25 123.82 L 612.27 123.70 L 612.34 123.53 L 612.50 123.36 L 612.71 122.47 L 614.72 120.33 L 614.98 120.07 L 615.16 119.69 L 615.18 119.64 L 615.22 119.34 L 624.12 118.37 L 624.41 117.63 L 624.58 117.60 L 624.64 117.11 L 625.48 116.88 L 625.66 116.40 L 625.82 116.40 L 625.91 115.37 L 626.19 112.75 L 626.23 112.71 L 626.61 112.67 L 626.69 111.81 L 627.02 110.79 L 627.08 110.08 L 627.35 109.43 L 627.54 109.08 L 627.69 108.30 L 628.03 107.63 L 628.06 106.89 L 628.49 106.72 L 628.53 106.72 L 628.60 105.77 L 628.69 105.77 L 628.74 105.69 L 629.23 103.92 L 629.95 103.33 L 630.31 103.53 L 631.49 103.44 L 631.51 103.43 L 631.70 103.42 L 631.78 103.40 L 631.91 103.28 L 632.06 103.17 L 632.21 102.98 L 632.57 102.72 L 632.90 102.70 L 633.96 102.52 L 634.01 102.51 L 635.06 102.35 L 635.51 102.24 L 644.52 102.22 L 644.97 102.09 L 645.19 102.00 L 645.30 102.00 L 645.32 102.00 L 645.55 101.98 L 645.65 101.92 L 645.92 101.75 L 646.08 101.72 L 646.67 101.54 L 646.97 101.14 L 647.48 101.08 L 647.62 100.82 L 647.79 100.66 L 648.01 100.46 L 648.79 100.51 L 648.87 100.49 L 650.00 100.00"/>
	</g>
	<g id="poloto_plot1" class="poloto_plot poloto_imgs poloto_line poloto1 poloto_stroke" fill="none" stroke="black">
		<path d=" M 150.00 381.71 L 150.03 381.70 L 150.04 381.68 L 150.05 381.68 L 150.08 381.68 L 150.11 381.10 L 150.23 381.08 L 150.52 381.07 L 150.93 380.85 L 151.15 380.76 L 151.57 380.78 L 151.65 380.74 L 151.70 380.74 L 152.20 380.69 L 153.13 380.59 L 153.42 378.33 L 153.50 378.33 L 154.06 378.27 L 154.71 378.26 L 154.71 378.26 L 154.72 378.26 L 163.46 378.26 L 163.52 378.26 L 163.63 378.26 L 163.68 378.23 L 164.01 378.22 L 164.16 378.22 L 164.53 378.22 L 164.59 378.22 L 164.69 378.20 L 164.80 378.20 L 164.84 378.20 L 164.93 378.17 L 165.02 378.17 L 165.12 378.17 L 165.36 378.05 L 165.58 378.05 L 165.62 378.05 L 165.72 378.05 L 166.42 378.90 L 166.43 378.90 L 166.52 378.89 L 166.91 378.76 L 167.23 378.62 L 167.59 378.55 L 167.67 378.51 L 167.68 378.51 L 167.74 378.51 L 167.88 378.51 L 168.05 378.46 L 168.40 378.41 L 168.42 378.41 L 168.48 378.41 L 168.56 378.39 L 168.76 378.39 L 168.78 378.39 L 168.99 378.38 L 169.07 378.38 L 169.14 378.38 L 169.22 378.38 L 170.28 378.27 L 170.54 378.27 L 171.13 378.22 L 171.26 378.22 L 171.35 378.22 L 171.40 378.22 L 171.81 378.15 L 171.99 378.15 L 172.21 378.07 L 172.31 378.06 L 172.55 377.88 L 172.66 377.81 L 172.81 377.81 L 172.94 377.81 L 173.41 375.17 L 173.43 375.12 L 173.45 375.12 L 173.61 374.87 L 181.72 374.87 L 182.56 373.73 L 182.59 373.73 L 183.58 373.73 L 183.66 373.72 L 183.75 373.60 L 184.00 373.59 L 184.11 373.59 L 184.15 373.59 L 184.27 373.59 L 184.56 373.59 L 184.57 373.34 L 184.68 373.33 L 184.79 373.33 L 184.92 373.30 L 185.08 373.30 L 185.14 373.30 L 185.16 373.30 L 185.30 373.30 L 185.32 373.30 L 185.47 373.30 L 185.50 373.30 L 185.73 372.18 L 185.77 372.18 L 185.85 372.04 L 185.95 372.04 L 186.08 372.04 L 186.14 372.03 L 186.60 372.03 L 186.61 372.03 L 186.69 371.96 L 186.90 371.96 L 187.08 371.31 L 187.14 371.23 L 187.22 371.23 L 187.26 371.23 L 187.37 371.22 L 187.88 366.49 L 187.93 366.53 L 188.11 366.53 L 188.16 366.53 L 188.20 366.52 L 188.28 366.52 L 188.36 366.46 L 188.54 366.46 L 188.67 366.46 L 188.77 366.45 L 188.83 366.45 L 189.28 366.45 L 189.53 366.44 L 189.61 366.32 L 189.82 366.32 L 189.84 366.32 L 189.86 366.32 L 189.99 366.01 L 190.10 365.92 L 190.48 364.80 L 190.54 364.80 L 190.61 364.80 L 190.71 364.82 L 190.72 364.82 L 190.77 364.82 L 190.80 364.82 L 190.86 364.82 L 190.90 364.82 L 191.05 364.80 L 191.16 364.80 L 191.27 364.78 L 191.42 364.78 L 191.58 364.77 L 191.74 364.36 L 191.86 364.22 L 192.09 364.22 L 192.10 364.21 L 192.24 364.21 L 203.56 364.21 L 203.77 364.20 L 204.31 364.13 L 204.42 364.12 L 204.50 364.12 L 204.52 364.12 L 204.72 364.12 L 204.85 364.12 L 204.93 364.12 L 205.01 364.12 L 205.05 364.12 L 205.26 364.12 L 205.66 364.14 L 205.77 364.14 L 205.84 364.14 L 205.94 364.14 L 206.47 364.05 L 206.54 364.00 L 206.58 364.00 L 206.61 363.95 L 206.72 363.94 L 206.81 363.94 L 207.19 363.51 L 207.74 363.51 L 207.94 363.51 L 208.54 363.51 L 208.83 360.62 L 208.93 360.62 L 209.06 360.62 L 209.23 360.61 L 209.51 360.61 L 209.89 360.61 L 210.41 360.61 L 210.48 360.61 L 210.86 360.54 L 211.10 360.42 L 211.18 360.42 L 211.32 360.42 L 211.44 360.40 L 212.77 360.22 L 214.05 360.22 L 225.44 360.22 L 225.52 360.22 L 225.58 360.22 L 225.94 360.22 L 227.00 359.31 L 227.05 359.28 L 227.20 359.19 L 227.72 359.18 L 227.97 358.96 L 228.34 358.96 L 228.43 358.96 L 228.52 358.96 L 229.18 356.43 L 229.26 356.43 L 229.39 356.43 L 229.54 356.43 L 229.61 356.26 L 229.98 355.96 L 230.11 355.96 L 230.17 355.96 L 230.25 355.49 L 230.42 355.02 L 230.49 355.02 L 230.65 355.01 L 231.15 351.23 L 231.19 351.23 L 231.24 351.23 L 231.32 351.23 L 231.44 351.23 L 231.49 351.23 L 231.53 351.23 L 231.77 351.23 L 231.83 351.15 L 232.12 351.13 L 232.29 351.08 L 232.40 350.63 L 233.28 343.10 L 233.38 343.10 L 266.87 343.10 L 266.90 343.10 L 279.70 343.10 L 280.40 342.99 L 280.54 342.99 L 280.73 342.99 L 280.79 342.99 L 280.86 342.99 L 286.41 342.93 L 287.15 342.86 L 287.42 342.86 L 287.56 342.83 L 291.02 342.77 L 291.04 342.67 L 291.26 342.67 L 292.29 341.65 L 292.35 341.65 L 292.48 341.65 L 292.84 341.65 L 292.89 341.65 L 293.03 341.65 L 293.19 341.65 L 293.22 341.65 L 303.97 341.63 L 304.05 341.45 L 304.48 341.45 L 304.49 340.22 L 304.56 340.22 L 304.65 340.22 L 304.77 340.11 L 304.95 340.11 L 305.10 340.06 L 305.24 340.06 L 305.30 340.06 L 305.52 340.04 L 306.26 337.96 L 306.56 337.95 L 306.61 337.94 L 306.67 337.94 L 306.71 337.94 L 306.82 337.91 L 307.12 337.65 L 307.16 337.61 L 307.35 335.74 L 307.42 335.73 L 307.45 335.73 L 307.52 335.70 L 307.56 335.70 L 307.60 335.70 L 307.84 334.68 L 307.94 334.66 L 308.07 334.64 L 308.17 331.47 L 308.20 331.47 L 308.44 329.68 L 308.51 329.68 L 308.55 329.67 L 308.61 329.67 L 308.65 329.67 L 308.68 329.67 L 308.69 329.67 L 308.81 326.37 L 308.85 326.37 L 308.97 326.35 L 309.05 326.35 L 309.30 326.29 L 309.59 326.20 L 309.60 326.20 L 309.68 326.18 L 309.96 326.12 L 310.09 326.12 L 310.22 326.12 L 310.36 324.70 L 310.45 324.70 L 310.83 324.69 L 310.87 324.69 L 310.91 324.69 L 310.94 324.69 L 311.19 322.65 L 311.24 322.65 L 311.42 322.64 L 327.97 322.64 L 328.91 322.63 L 328.94 322.63 L 329.12 322.63 L 329.14 322.63 L 329.26 322.63 L 329.35 322.63 L 329.43 322.52 L 329.55 322.52 L 329.58 322.52 L 329.62 322.52 L 329.80 322.34 L 330.16 322.22 L 330.39 322.11 L 330.64 321.53 L 330.65 321.53 L 330.69 321.38 L 330.72 321.37 L 331.22 321.02 L 331.23 321.02 L 331.30 320.96 L 331.52 320.96 L 331.65 320.93 L 331.68 320.09 L 331.69 320.09 L 331.75 320.92 L 331.78 320.87 L 331.80 320.86 L 331.93 319.73 L 331.93 319.73 L 332.19 319.68 L 332.90 319.68 L 333.07 319.68 L 333.12 319.68 L 333.16 319.68 L 333.20 319.68 L 333.30 319.61 L 344.61 318.67 L 344.63 318.67 L 344.72 318.66 L 344.75 318.46 L 344.81 308.42 L 344.94 304.68 L 344.95 304.68 L 345.16 304.61 L 345.21 304.61 L 345.24 304.59 L 345.43 304.59 L 345.92 303.68 L 345.93 303.68 L 346.05 303.63 L 346.10 303.63 L 346.13 303.56 L 346.54 303.01 L 346.55 303.01 L 347.16 302.90 L 347.24 302.86 L 347.46 302.87 L 347.72 301.64 L 347.78 301.51 L 347.82 301.40 L 347.94 300.94 L 348.26 300.82 L 348.32 300.72 L 348.46 300.72 L 348.61 300.72 L 349.09 300.72 L 349.14 300.72 L 349.25 300.72 L 349.26 300.72 L 349.41 300.74 L 349.77 300.74 L 350.14 300.61 L 350.20 300.61 L 350.28 300.59 L 350.39 300.59 L 350.67 300.59 L 351.15 300.59 L 351.30 300.48 L 351.57 297.24 L 352.60 300.30 L 352.83 300.28 L 353.00 300.28 L 353.26 300.28 L 353.34 300.24 L 353.60 300.22 L 354.01 300.03 L 354.06 300.03 L 354.14 300.03 L 354.19 300.03 L 354.23 300.03 L 354.55 299.86 L 362.05 299.86 L 362.12 299.86 L 362.58 299.85 L 362.63 299.85 L 362.73 299.82 L 362.82 299.59 L 362.83 299.59 L 363.09 299.56 L 363.15 299.56 L 364.69 299.38 L 364.87 299.38 L 365.00 299.38 L 365.03 299.38 L 365.50 299.25 L 365.67 299.25 L 365.70 299.25 L 365.95 299.24 L 366.23 298.47 L 366.27 298.47 L 366.50 298.34 L 366.60 298.34 L 366.68 298.34 L 366.88 298.34 L 367.30 298.33 L 367.38 298.31 L 367.45 298.24 L 367.62 298.11 L 368.03 297.99 L 368.40 294.93 L 368.47 294.83 L 368.85 294.69 L 368.92 294.65 L 368.98 294.54 L 369.01 294.33 L 369.14 293.41 L 369.17 293.45 L 369.24 293.43 L 369.45 293.43 L 369.78 293.30 L 369.98 293.25 L 370.21 293.24 L 370.32 293.23 L 370.54 293.22 L 370.92 293.22 L 371.30 293.21 L 371.59 293.21 L 371.65 293.20 L 371.72 293.20 L 371.73 293.19 L 371.95 293.19 L 372.01 293.18 L 372.10 293.07 L 372.72 293.05 L 372.73 293.05 L 372.90 293.04 L 373.62 293.04 L 374.09 292.89 L 374.44 292.76 L 374.45 292.76 L 374.48 292.76 L 384.98 292.75 L 385.01 292.75 L 385.13 292.75 L 385.19 292.75 L 385.23 292.74 L 385.23 292.74 L 385.68 292.74 L 385.78 292.73 L 385.92 292.71 L 386.14 292.68 L 386.28 292.68 L 386.46 292.61 L 386.56 292.61 L 386.61 292.61 L 386.66 292.61 L 386.80 292.33 L 386.81 292.33 L 386.86 292.33 L 386.97 292.33 L 387.05 292.33 L 387.14 292.40 L 387.27 292.40 L 387.53 292.39 L 387.64 292.39 L 387.74 292.39 L 388.38 291.49 L 388.94 291.25 L 389.60 290.61 L 389.77 290.61 L 389.96 290.61 L 390.16 290.61 L 394.02 290.53 L 394.34 290.52 L 430.92 290.41 L 546.11 290.24 L 546.49 290.19 L 546.75 290.18 L 547.02 290.18 L 547.42 289.77 L 547.55 289.77 L 547.66 289.77 L 547.84 288.26 L 548.11 288.55 L 548.32 288.53 L 548.37 288.53 L 548.55 288.52 L 548.59 288.52 L 548.78 288.51 L 548.95 288.44 L 549.47 287.49 L 549.49 287.49 L 549.64 287.41 L 550.13 284.32 L 550.15 284.32 L 550.24 284.32 L 550.36 284.27 L 550.90 282.84 L 550.91 282.84 L 551.03 282.84 L 551.15 282.80 L 551.35 282.28 L 551.36 282.28 L 551.45 282.27 L 551.47 282.27 L 551.51 281.98 L 551.74 279.94 L 551.77 279.94 L 551.85 279.94 L 552.09 279.77 L 552.14 279.77 L 552.33 279.43 L 552.65 279.43 L 552.70 279.43 L 552.74 279.43 L 552.80 279.43 L 552.96 279.43 L 553.13 278.50 L 553.16 278.50 L 553.25 278.50 L 553.35 277.81 L 553.37 277.81 L 553.47 277.07 L 553.52 277.02 L 553.72 276.29 L 553.75 276.29 L 553.85 276.29 L 553.98 276.28 L 554.81 276.28 L 555.22 276.27 L 564.22 276.27 L 564.31 276.27 L 564.40 276.27 L 564.55 276.27 L 564.89 276.08 L 564.92 276.08 L 564.98 276.02 L 565.20 275.00 L 565.22 275.00 L 567.18 275.02 L 567.30 274.82 L 568.29 274.82 L 568.40 274.81 L 568.52 274.74 L 569.71 273.90 L 570.22 273.74 L 570.35 273.68 L 570.78 272.09 L 571.04 272.09 L 571.48 271.96 L 572.28 271.96 L 584.32 271.96 L 585.04 271.86 L 585.07 271.88 L 586.08 271.88 L 586.13 271.88 L 586.48 271.88 L 586.89 271.85 L 586.89 271.85 L 586.94 271.85 L 587.47 270.92 L 588.71 270.89 L 588.79 270.89 L 588.92 270.89 L 589.11 270.85 L 589.16 270.82 L 589.23 270.82 L 589.81 270.78 L 590.27 270.78 L 590.52 270.78 L 590.55 270.78 L 591.07 270.76 L 591.46 270.65 L 591.48 270.65 L 591.53 270.65 L 591.58 270.65 L 604.65 270.43 L 604.68 270.43 L 604.71 270.43 L 604.97 270.43 L 605.17 270.43 L 606.32 269.51 L 606.60 269.46 L 607.43 269.39 L 608.15 269.34 L 608.67 269.34 L 608.82 269.34 L 609.49 267.95 L 609.73 267.91 L 609.82 267.86 L 611.75 266.89 L 611.77 266.89 L 611.88 266.88 L 612.24 266.86 L 612.25 266.86 L 612.27 266.86 L 612.34 266.83 L 612.50 266.80 L 612.71 266.69 L 614.72 265.08 L 614.98 265.00 L 615.16 265.00 L 615.18 265.00 L 615.22 265.00 L 624.12 265.00 L 624.41 264.99 L 624.58 264.99 L 624.64 264.99 L 625.48 264.99 L 625.66 264.99 L 625.82 264.99 L 625.91 264.95 L 626.19 262.84 L 626.23 262.83 L 626.61 262.84 L 626.69 262.82 L 627.02 262.00 L 627.08 261.96 L 627.35 261.42 L 627.54 261.42 L 627.69 261.38 L 628.03 260.89 L 628.06 260.88 L 628.49 259.32 L 628.53 259.32 L 628.60 259.31 L 628.69 259.31 L 628.74 259.31 L 629.23 257.73 L 629.95 257.59 L 630.31 257.59 L 631.49 257.55 L 631.51 257.55 L 631.70 257.55 L 631.78 257.55 L 631.91 257.55 L 632.06 257.55 L 632.21 257.53 L 632.57 257.51 L 632.90 257.51 L 633.96 257.44 L 634.01 257.44 L 635.06 257.40 L 635.51 257.36 L 644.52 257.37 L 644.97 257.29 L 645.19 257.21 L 645.30 257.21 L 645.32 257.21 L 645.55 257.21 L 645.65 257.21 L 645.92 257.21 L 646.08 257.20 L 646.67 257.06 L 646.97 256.77 L 647.48 256.75 L 647.62 256.56 L 647.79 256.48 L 648.01 256.39 L 648.79 256.48 L 648.87 256.48 L 650.00 256.18"/>
	</g>
	<g id="poloto_plot2" class="poloto_plot poloto_imgs poloto_line poloto2 poloto_stroke" fill="none" stroke="black">
		<path d=" M 150.00 391.79 L 150.03 391.79 L 150.04 391.79 L 150.05 391.79 L 150.08 391.79 L 150.11 389.69 L 150.23 389.40 L 150.52 389.39 L 150.93 389.38 L 151.15 388.12 L 151.57 388.01 L 151.65 387.98 L 151.70 387.94 L 152.20 387.38 L 153.13 386.94 L 153.42 386.86 L 153.50 386.86 L 154.06 386.83 L 154.71 386.83 L 154.71 386.83 L 154.72 386.83 L 163.46 386.83 L 163.52 386.82 L 163.63 386.81 L 163.68 386.81 L 164.01 386.68 L 164.16 386.64 L 164.53 386.44 L 164.59 386.35 L 164.69 386.16 L 164.80 386.14 L 164.84 386.13 L 164.93 386.10 L 165.02 386.10 L 165.12 386.10 L 165.36 385.89 L 165.58 385.70 L 165.62 385.70 L 165.72 385.59 L 166.42 385.33 L 166.43 385.33 L 166.52 385.25 L 166.91 384.97 L 167.23 384.63 L 167.59 384.49 L 167.67 384.49 L 167.68 384.49 L 167.74 384.30 L 167.88 384.30 L 168.05 384.28 L 168.40 384.14 L 168.42 383.89 L 168.48 383.89 L 168.56 383.77 L 168.76 383.77 L 168.78 383.77 L 168.99 383.40 L 169.07 383.38 L 169.14 383.35 L 169.22 383.18 L 170.28 383.07 L 170.54 383.04 L 171.13 382.78 L 171.26 382.79 L 171.35 382.77 L 171.40 382.58 L 171.81 381.55 L 171.99 381.54 L 172.21 381.23 L 172.31 381.20 L 172.55 381.06 L 172.66 381.01 L 172.81 380.79 L 172.94 380.61 L 173.41 380.61 L 173.43 380.59 L 173.45 380.44 L 173.61 379.45 L 181.72 379.35 L 182.56 379.05 L 182.59 379.01 L 183.58 378.76 L 183.66 378.75 L 183.75 378.57 L 184.00 378.45 L 184.11 378.22 L 184.15 378.03 L 184.27 377.67 L 184.56 377.66 L 184.57 377.66 L 184.68 377.40 L 184.79 377.40 L 184.92 377.13 L 185.08 376.91 L 185.14 376.80 L 185.16 376.79 L 185.30 376.54 L 185.32 376.54 L 185.47 376.31 L 185.50 376.30 L 185.73 376.22 L 185.77 376.22 L 185.85 376.14 L 185.95 376.12 L 186.08 376.12 L 186.14 376.11 L 186.60 375.88 L 186.61 375.89 L 186.69 375.44 L 186.90 375.43 L 187.08 375.29 L 187.14 375.29 L 187.22 375.29 L 187.26 375.25 L 187.37 374.64 L 187.88 374.12 L 187.93 373.84 L 188.11 373.82 L 188.16 373.74 L 188.20 373.73 L 188.28 373.60 L 188.36 373.12 L 188.54 373.04 L 188.67 373.03 L 188.77 372.79 L 188.83 372.78 L 189.28 372.60 L 189.53 372.47 L 189.61 372.36 L 189.82 372.35 L 189.84 372.35 L 189.86 372.32 L 189.99 371.44 L 190.10 371.44 L 190.48 371.31 L 190.54 370.96 L 190.61 370.95 L 190.71 370.81 L 190.72 370.73 L 190.77 370.67 L 190.80 370.63 L 190.86 370.63 L 190.90 370.56 L 191.05 369.57 L 191.16 369.47 L 191.27 369.18 L 191.42 369.16 L 191.58 369.06 L 191.74 368.75 L 191.86 367.90 L 192.09 367.83 L 192.10 367.46 L 192.24 367.38 L 203.56 367.38 L 203.77 367.38 L 204.31 366.97 L 204.42 366.97 L 204.50 366.97 L 204.52 366.87 L 204.72 366.69 L 204.85 366.66 L 204.93 366.56 L 205.01 366.48 L 205.05 366.45 L 205.26 366.39 L 205.66 366.47 L 205.77 366.20 L 205.84 366.13 L 205.94 366.12 L 206.47 366.07 L 206.54 366.02 L 206.58 366.02 L 206.61 365.97 L 206.72 365.92 L 206.81 365.82 L 207.19 365.57 L 207.74 365.46 L 207.94 365.41 L 208.54 365.25 L 208.83 364.85 L 208.93 364.79 L 209.06 364.47 L 209.23 364.07 L 209.51 363.96 L 209.89 363.95 L 210.41 363.94 L 210.48 363.79 L 210.86 363.69 L 211.10 363.56 L 211.18 363.46 L 211.32 363.42 L 211.44 363.15 L 212.77 363.02 L 214.05 363.02 L 225.44 362.99 L 225.52 362.85 L 225.58 362.75 L 225.94 362.60 L 227.00 362.33 L 227.05 362.29 L 227.20 362.10 L 227.72 362.03 L 227.97 361.51 L 228.34 361.50 L 228.43 361.48 L 228.52 360.97 L 229.18 360.49 L 229.26 360.49 L 229.39 360.46 L 229.54 360.41 L 229.61 360.24 L 229.98 359.44 L 230.11 359.24 L 230.17 359.23 L 230.25 359.14 L 230.42 358.83 L 230.49 358.03 L 230.65 357.71 L 231.15 357.52 L 231.19 357.12 L 231.24 357.12 L 231.32 357.05 L 231.44 356.94 L 231.49 356.91 L 231.53 356.87 L 231.77 355.94 L 231.83 355.39 L 232.12 355.29 L 232.29 354.37 L 232.40 354.19 L 233.28 352.73 L 233.38 352.71 L 266.87 352.28 L 266.90 352.28 L 279.70 352.16 L 280.40 352.01 L 280.54 352.01 L 280.73 351.93 L 280.79 351.81 L 280.86 351.79 L 286.41 351.77 L 287.15 350.10 L 287.42 349.96 L 287.56 349.38 L 291.02 349.31 L 291.04 349.25 L 291.26 349.24 L 292.29 349.14 L 292.35 348.95 L 292.48 348.88 L 292.84 348.79 L 292.89 348.77 L 293.03 348.45 L 293.19 348.35 L 293.22 348.10 L 303.97 347.79 L 304.05 347.03 L 304.48 346.83 L 304.49 346.54 L 304.56 346.31 L 304.65 345.96 L 304.77 345.04 L 304.95 344.53 L 305.10 343.89 L 305.24 343.88 L 305.30 343.38 L 305.52 343.34 L 306.26 342.87 L 306.56 342.64 L 306.61 342.51 L 306.67 342.51 L 306.71 342.34 L 306.82 341.77 L 307.12 341.71 L 307.16 341.71 L 307.35 341.34 L 307.42 341.34 L 307.45 341.13 L 307.52 340.99 L 307.56 340.99 L 307.60 340.69 L 307.84 340.51 L 307.94 340.22 L 308.07 340.21 L 308.17 340.05 L 308.20 339.82 L 308.44 339.70 L 308.51 339.57 L 308.55 339.57 L 308.61 339.57 L 308.65 339.33 L 308.68 339.34 L 308.69 339.34 L 308.81 339.26 L 308.85 339.00 L 308.97 339.00 L 309.05 338.94 L 309.30 338.92 L 309.59 338.89 L 309.60 338.89 L 309.68 338.88 L 309.96 338.88 L 310.09 338.88 L 310.22 338.88 L 310.36 338.83 L 310.45 338.53 L 310.83 338.53 L 310.87 338.35 L 310.91 338.34 L 310.94 338.14 L 311.19 338.07 L 311.24 338.02 L 311.42 338.02 L 327.97 337.96 L 328.91 337.88 L 328.94 337.88 L 329.12 337.88 L 329.14 337.88 L 329.26 337.52 L 329.35 337.50 L 329.43 337.40 L 329.55 337.35 L 329.58 337.32 L 329.62 337.30 L 329.80 337.27 L 330.16 337.19 L 330.39 336.71 L 330.64 336.68 L 330.65 336.65 L 330.69 336.25 L 330.72 336.25 L 331.22 336.25 L 331.23 336.20 L 331.30 335.83 L 331.52 335.78 L 331.65 335.77 L 331.68 335.76 L 331.69 335.72 L 331.75 335.69 L 331.78 335.31 L 331.80 335.30 L 331.93 335.30 L 331.93 335.27 L 332.19 335.23 L 332.90 335.22 L 333.07 335.18 L 333.12 335.17 L 333.16 335.05 L 333.20 335.05 L 333.30 334.62 L 344.61 334.49 L 344.63 334.36 L 344.72 334.28 L 344.75 334.26 L 344.81 333.90 L 344.94 333.81 L 344.95 333.78 L 345.16 333.78 L 345.21 333.78 L 345.24 333.42 L 345.43 333.37 L 345.92 333.36 L 345.93 333.34 L 346.05 333.14 L 346.10 333.14 L 346.13 332.81 L 346.54 332.81 L 346.55 332.79 L 347.16 332.70 L 347.24 332.30 L 347.46 332.30 L 347.72 332.30 L 347.78 332.00 L 347.82 331.77 L 347.94 331.76 L 348.26 331.71 L 348.32 331.69 L 348.46 331.60 L 348.61 331.60 L 349.09 331.60 L 349.14 331.60 L 349.25 331.58 L 349.26 331.58 L 349.41 331.58 L 349.77 331.55 L 350.14 331.51 L 350.20 331.51 L 350.28 331.47 L 350.39 331.36 L 350.67 331.36 L 351.15 331.23 L 351.30 331.00 L 351.57 330.98 L 352.60 330.73 L 352.83 330.73 L 353.00 330.72 L 353.26 330.72 L 353.34 330.70 L 353.60 330.58 L 354.01 330.56 L 354.06 330.45 L 354.14 330.40 L 354.19 330.41 L 354.23 330.37 L 354.55 330.35 L 362.05 330.34 L 362.12 330.34 L 362.58 330.34 L 362.63 330.33 L 362.73 329.99 L 362.82 329.98 L 362.83 329.98 L 363.09 329.97 L 363.15 329.95 L 364.69 329.46 L 364.87 329.40 L 365.00 329.39 L 365.03 329.39 L 365.50 329.38 L 365.67 329.45 L 365.70 329.44 L 365.95 329.41 L 366.23 328.94 L 366.27 328.93 L 366.50 328.92 L 366.60 328.92 L 366.68 328.92 L 366.88 328.82 L 367.30 328.39 L 367.38 328.39 L 367.45 328.33 L 367.62 327.94 L 368.03 327.51 L 368.40 327.54 L 368.47 327.31 L 368.85 327.31 L 368.92 327.28 L 368.98 327.26 L 369.01 327.03 L 369.14 327.02 L 369.17 327.02 L 369.24 327.02 L 369.45 327.02 L 369.78 326.84 L 369.98 326.82 L 370.21 326.82 L 370.32 326.82 L 370.54 326.82 L 370.92 326.82 L 371.30 326.82 L 371.59 326.82 L 371.65 326.82 L 371.72 326.81 L 371.73 326.73 L 371.95 326.67 L 372.01 326.67 L 372.10 326.66 L 372.72 326.66 L 372.73 326.44 L 372.90 326.44 L 373.62 326.44 L 374.09 326.43 L 374.44 326.39 L 374.45 326.30 L 374.48 326.30 L 384.98 326.15 L 385.01 326.14 L 385.13 326.13 L 385.19 326.00 L 385.23 326.00 L 385.23 325.99 L 385.68 325.95 L 385.78 325.49 L 385.92 325.39 L 386.14 324.50 L 386.28 324.50 L 386.46 324.11 L 386.56 324.16 L 386.61 324.16 L 386.66 323.67 L 386.80 323.59 L 386.81 323.25 L 386.86 323.20 L 386.97 323.17 L 387.05 323.00 L 387.14 325.00 L 387.27 324.97 L 387.53 324.16 L 387.64 323.99 L 387.74 323.81 L 388.38 323.49 L 388.94 323.16 L 389.60 322.69 L 389.77 322.63 L 389.96 322.63 L 390.16 322.59 L 394.02 322.36 L 394.34 322.33 L 430.92 321.71 L 546.11 321.69 L 546.49 321.41 L 546.75 321.36 L 547.02 321.36 L 547.42 321.11 L 547.55 320.81 L 547.66 320.26 L 547.84 320.12 L 548.11 320.17 L 548.32 319.85 L 548.37 319.84 L 548.55 319.74 L 548.59 319.75 L 548.78 319.21 L 548.95 318.39 L 549.47 318.31 L 549.49 318.23 L 549.64 317.17 L 550.13 317.13 L 550.15 317.03 L 550.24 316.97 L 550.36 316.01 L 550.90 315.96 L 550.91 315.82 L 551.03 315.76 L 551.15 315.13 L 551.35 315.11 L 551.36 315.01 L 551.45 313.96 L 551.47 313.93 L 551.51 313.90 L 551.74 313.90 L 551.77 313.79 L 551.85 313.72 L 552.09 313.62 L 552.14 313.61 L 552.33 313.56 L 552.65 313.60 L 552.70 313.55 L 552.74 313.53 L 552.80 313.49 L 552.96 312.41 L 553.13 312.39 L 553.16 312.30 L 553.25 311.18 L 553.35 310.78 L 553.37 310.64 L 553.47 310.09 L 553.52 309.15 L 553.72 309.14 L 553.75 309.09 L 553.85 308.90 L 553.98 308.89 L 554.81 308.86 L 555.22 308.84 L 564.22 308.88 L 564.31 308.67 L 564.40 308.51 L 564.55 307.76 L 564.89 307.75 L 564.92 307.67 L 564.98 306.72 L 565.20 306.71 L 565.22 306.62 L 567.18 306.53 L 567.30 306.19 L 568.29 306.02 L 568.40 305.98 L 568.52 304.93 L 569.71 304.63 L 570.22 304.38 L 570.35 303.59 L 570.78 303.58 L 571.04 303.14 L 571.48 302.46 L 572.28 302.05 L 584.32 302.05 L 585.04 302.04 L 585.07 302.04 L 586.08 301.89 L 586.13 301.80 L 586.48 301.74 L 586.89 300.85 L 586.89 300.85 L 586.94 300.82 L 587.47 300.63 L 588.71 300.04 L 588.79 299.98 L 588.92 299.97 L 589.11 299.73 L 589.16 299.69 L 589.23 299.64 L 589.81 299.64 L 590.27 299.64 L 590.52 299.64 L 590.55 299.60 L 591.07 298.70 L 591.46 298.62 L 591.48 298.55 L 591.53 298.47 L 591.58 298.25 L 604.65 298.08 L 604.68 298.06 L 604.71 298.04 L 604.97 297.93 L 605.17 297.82 L 606.32 297.31 L 606.60 297.21 L 607.43 296.82 L 608.15 296.76 L 608.67 296.61 L 608.82 295.29 L 609.49 295.06 L 609.73 295.00 L 609.82 294.04 L 611.75 293.13 L 611.77 293.13 L 611.88 292.70 L 612.24 292.66 L 612.25 292.66 L 612.27 292.55 L 612.34 292.44 L 612.50 292.34 L 612.71 291.69 L 614.72 291.35 L 614.98 291.20 L 615.16 290.84 L 615.18 290.81 L 615.22 290.58 L 624.12 289.74 L 624.41 289.14 L 624.58 289.12 L 624.64 288.72 L 625.48 288.55 L 625.66 288.12 L 625.82 288.12 L 625.91 287.24 L 626.19 287.03 L 626.23 287.00 L 626.61 286.95 L 626.69 286.22 L 627.02 286.13 L 627.08 285.55 L 627.35 285.49 L 627.54 285.16 L 627.69 284.52 L 628.03 284.40 L 628.06 283.74 L 628.49 285.22 L 628.53 285.22 L 628.60 284.38 L 628.69 284.38 L 628.74 284.31 L 629.23 284.23 L 629.95 283.88 L 630.31 284.06 L 631.49 284.03 L 631.51 284.03 L 631.70 284.01 L 631.78 284.00 L 631.91 283.88 L 632.06 283.78 L 632.21 283.62 L 632.57 283.41 L 632.90 283.40 L 633.96 283.30 L 634.01 283.29 L 635.06 283.18 L 635.51 283.11 L 644.52 283.08 L 644.97 283.03 L 645.19 283.03 L 645.30 283.03 L 645.32 283.03 L 645.55 283.02 L 645.65 282.98 L 645.92 282.83 L 646.08 282.81 L 646.67 282.80 L 646.97 282.72 L 647.48 282.68 L 647.62 282.65 L 647.79 282.58 L 648.01 282.48 L 648.79 282.45 L 648.87 282.43 L 650.00 282.27"/>
	</g>
	<g class="poloto_legend poloto_imgs poloto_line poloto0 poloto_stroke"><line x1="680" x2="730" y1="81.25" y2="81.25"/></g>
	<g class="poloto_legend poloto_imgs poloto_line poloto1 poloto_stroke"><line x1="680" x2="730" y1="131.25" y2="131.25"/></g>
	<g class="poloto_legend poloto_imgs poloto_line poloto2 poloto_stroke"><line x1="680" x2="730" y1="181.25" y2="181.25"/></g>
	<text class="poloto_legend poloto_text poloto_line poloto0" x="675" y="100">total</text>
	<text class="poloto_legend poloto_text poloto_line poloto1" x="675" y="150">code</text>
	<text class="poloto_legend poloto_text poloto_line poloto2" x="675" y="200">docs</text>
	<text class="poloto_text poloto_name poloto_title" x="400.00" y="37.50">Workspace lines over time</text>
	<text class="poloto_text poloto_name poloto_x" x="400.00" y="640">date (JST)</text>
	<text class="poloto_text poloto_name poloto_y" x="37.50" y="250.00" transform="rotate(-90,37.50,250.00)">lines</text>
	<text class="poloto_text poloto_ticks poloto_y">
		<tspan x="135.00" y="400.00">0</tspan>
		<tspan x="135.00" y="321.98">50K</tspan>
		<tspan x="135.00" y="243.96">100K</tspan>
		<tspan x="135.00" y="165.94">150K</tspan>
	</text>
	<g class="poloto_imgs poloto_ticks poloto_y" stroke="black">
		<line x1="150.00" x2="144.00" y1="400.00" y2="400.00"/>
		<line x1="150.00" x2="144.00" y1="321.98" y2="321.98"/>
		<line x1="150.00" x2="144.00" y1="243.96" y2="243.96"/>
		<line x1="150.00" x2="144.00" y1="165.94" y2="165.94"/>
	</g>
	<g class="poloto_text poloto_ticks poloto_x">
		<text x="225.30" y="430.00" text-anchor="end" transform="rotate(-90 225.30 430.00)">2026-04-24 12:06</text>
		<text x="341.20" y="430.00" text-anchor="end" transform="rotate(-90 341.20 430.00)">2026-04-30 07:00</text>
		<text x="457.11" y="430.00" text-anchor="end" transform="rotate(-90 457.11 430.00)">2026-05-06 01:53</text>
		<text x="573.02" y="430.00" text-anchor="end" transform="rotate(-90 573.02 430.00)">2026-05-11 20:46</text>
	</g>
	<g class="poloto_imgs poloto_ticks poloto_x" stroke="black">
		<line x1="225.30" x2="225.30" y1="400.00" y2="405.00"/>
		<line x1="341.20" x2="341.20" y1="400.00" y2="405.00"/>
		<line x1="457.11" x2="457.11" y1="400.00" y2="405.00"/>
		<line x1="573.02" x2="573.02" y1="400.00" y2="405.00"/>
	</g>
	<path class="poloto_imgs poloto_ticks poloto_x" stroke="black" style="stroke-dasharray:11.590606786810259;stroke-dashoffset:-75.2979133662302;" d=" M 150.00 400.00 L 650.00 400.00"/>
	<path class="poloto_imgs poloto_ticks poloto_y" stroke="black" style="stroke-dasharray:7.801975460186519;stroke-dashoffset:-0;" d=" M 150.00 400.00 L 150.00 100.00"/>
</svg>

