<svg class="poloto" width="800" height="680" viewBox="0 0 800 680" xmlns="http://www.w3.org/2000/svg">
	<style>
.poloto{
  stroke-linecap:round;
  stroke-linejoin:round;
  font-family:Roboto,sans-serif;
  font-size:16px;
}
.poloto_background{fill:AliceBlue;}
.poloto_scatter{stroke-width:7}
.poloto_line{stroke-width:2}
.poloto_text{fill: black;}
.poloto_name{font-size:24px;dominant-baseline:auto;text-anchor:middle;}
.poloto_where{dominant-baseline:middle;text-anchor:start}
.poloto_text.poloto_legend{font-size:20px;dominant-baseline:middle;text-anchor:start;}
.poloto_text.poloto_ticks.poloto_y{dominant-baseline:middle;text-anchor:end}
.poloto_text.poloto_ticks.poloto_x{dominant-baseline:auto;text-anchor:middle}
.poloto_imgs.poloto_ticks{stroke: black;stroke-width:3;fill:none;stroke-dasharray:none}
.poloto_grid{stroke:gray;stroke-width:0.5}

.poloto0.poloto_stroke{stroke:blue;}
.poloto1.poloto_stroke{stroke:red;}
.poloto2.poloto_stroke{stroke:green;}
.poloto3.poloto_stroke{stroke:gold;}
.poloto4.poloto_stroke{stroke:aqua;}
.poloto5.poloto_stroke{stroke:lime;}
.poloto6.poloto_stroke{stroke:orange;}
.poloto7.poloto_stroke{stroke:chocolate;}
.poloto0.poloto_fill{fill:blue;}
.poloto1.poloto_fill{fill:red;}
.poloto2.poloto_fill{fill:green;}
.poloto3.poloto_fill{fill:gold;}
.poloto4.poloto_fill{fill:aqua;}
.poloto5.poloto_fill{fill:lime;}
.poloto6.poloto_fill{fill:orange;}
.poloto7.poloto_fill{fill:chocolate;}
	</style>
	<circle r="1e5" class="poloto_background" fill="white"/>
	<g id="poloto_plot0" class="poloto_plot poloto_imgs poloto_line poloto0 poloto_stroke" fill="none" stroke="black">
		<path d=" M 150.00 371.04 L 150.03 371.02 L 150.04 371.00 L 150.05 371.00 L 150.07 371.00 L 150.09 367.86 L 150.20 367.48 L 150.44 367.46 L 150.80 367.20 L 150.98 365.61 L 151.35 365.51 L 151.41 365.42 L 151.46 365.39 L 151.89 364.61 L 152.69 363.97 L 152.94 361.51 L 153.00 361.51 L 153.49 361.41 L 154.04 361.40 L 154.05 361.40 L 154.05 361.40 L 161.56 361.40 L 161.61 361.40 L 161.71 361.38 L 161.75 361.35 L 162.03 361.21 L 162.16 361.17 L 162.48 360.94 L 162.53 360.84 L 162.62 360.62 L 162.71 360.58 L 162.74 360.58 L 162.82 360.52 L 162.90 360.52 L 162.98 360.52 L 163.19 360.16 L 163.38 359.93 L 163.41 359.93 L 163.50 359.80 L 164.10 360.36 L 164.11 360.36 L 164.18 360.27 L 164.52 359.85 L 164.80 359.34 L 165.11 359.12 L 165.17 359.08 L 165.18 359.08 L 165.24 358.89 L 165.35 358.89 L 165.50 358.82 L 165.80 358.63 L 165.82 358.33 L 165.87 358.33 L 165.94 358.18 L 166.11 358.18 L 166.13 358.18 L 166.30 357.76 L 166.37 357.74 L 166.44 357.70 L 166.51 357.53 L 167.42 357.31 L 167.64 357.26 L 168.15 356.96 L 168.26 356.96 L 168.34 356.95 L 168.38 356.73 L 168.73 355.49 L 168.89 355.46 L 169.07 355.05 L 169.16 355.01 L 169.37 354.66 L 169.46 354.53 L 169.59 354.31 L 169.70 354.12 L 170.10 351.24 L 170.12 351.17 L 170.14 351.00 L 170.27 349.62 L 177.24 349.52 L 177.96 347.94 L 177.98 347.90 L 178.83 347.66 L 178.91 347.65 L 178.98 347.34 L 179.19 347.18 L 179.29 346.91 L 179.32 346.68 L 179.43 346.27 L 179.68 346.26 L 179.69 345.98 L 179.78 345.67 L 179.88 345.67 L 179.98 345.32 L 180.12 345.07 L 180.17 344.95 L 180.19 344.94 L 180.31 344.67 L 180.33 344.67 L 180.46 344.40 L 180.49 344.39 L 180.68 343.09 L 180.72 343.09 L 180.79 342.87 L 180.87 342.86 L 180.99 342.86 L 181.04 342.83 L 181.43 342.59 L 181.44 342.60 L 181.51 342.02 L 181.69 342.01 L 181.84 341.14 L 181.89 341.07 L 181.96 341.06 L 182.00 341.03 L 182.09 340.36 L 182.53 334.72 L 182.57 334.44 L 182.72 334.42 L 182.77 334.35 L 182.80 334.33 L 182.87 334.18 L 182.94 333.54 L 183.10 333.41 L 183.20 333.40 L 183.29 333.12 L 183.34 333.11 L 183.73 332.90 L 183.95 332.74 L 184.01 332.49 L 184.20 332.48 L 184.21 332.48 L 184.23 332.45 L 184.34 331.10 L 184.44 331.02 L 184.76 329.65 L 184.81 329.25 L 184.87 329.24 L 184.96 329.09 L 184.97 328.99 L 185.01 328.92 L 185.04 328.89 L 185.08 328.88 L 185.12 328.81 L 185.25 327.69 L 185.35 327.53 L 185.44 327.20 L 185.56 327.18 L 185.71 327.07 L 185.84 326.28 L 185.94 325.18 L 186.15 325.12 L 186.15 324.71 L 186.27 324.58 L 195.99 324.58 L 196.18 324.57 L 196.63 323.99 L 196.73 323.97 L 196.80 323.97 L 196.82 323.83 L 196.99 323.65 L 197.10 323.62 L 197.17 323.51 L 197.24 323.44 L 197.28 323.40 L 197.45 323.34 L 197.80 323.27 L 197.89 322.97 L 197.95 322.90 L 198.04 322.89 L 198.49 322.74 L 198.55 322.65 L 198.58 322.65 L 198.61 322.54 L 198.71 322.49 L 198.79 322.38 L 199.11 321.64 L 199.58 321.53 L 199.75 321.48 L 200.27 321.30 L 200.52 317.75 L 200.61 317.68 L 200.71 317.33 L 200.87 316.86 L 201.10 316.73 L 201.43 316.72 L 201.87 316.71 L 201.94 316.55 L 202.26 316.39 L 202.47 316.13 L 202.53 316.03 L 202.66 315.99 L 202.76 315.67 L 203.91 315.32 L 205.00 315.32 L 214.78 315.29 L 214.85 315.14 L 214.91 315.04 L 215.21 314.88 L 216.12 313.66 L 216.16 313.58 L 216.29 313.27 L 216.74 313.19 L 216.95 312.36 L 217.28 312.35 L 217.35 312.34 L 217.42 311.77 L 217.99 308.55 L 218.06 308.54 L 218.18 308.52 L 218.31 308.48 L 218.36 308.12 L 218.68 306.91 L 218.79 306.68 L 218.85 306.67 L 218.92 306.10 L 219.06 305.31 L 219.12 304.47 L 219.26 304.10 L 219.68 299.91 L 219.72 299.48 L 219.76 299.48 L 219.83 299.41 L 219.93 299.30 L 219.98 299.26 L 220.02 299.22 L 220.22 298.21 L 220.27 297.50 L 220.52 297.36 L 220.66 296.30 L 220.76 295.64 L 221.52 285.87 L 221.60 285.84 L 250.36 285.37 L 250.39 285.37 L 261.38 285.24 L 261.97 284.97 L 262.10 284.97 L 262.26 284.90 L 262.31 284.77 L 262.38 284.74 L 267.14 284.67 L 267.77 282.81 L 268.00 282.64 L 268.13 281.96 L 271.10 281.82 L 271.12 281.63 L 271.30 281.62 L 272.19 280.44 L 272.24 280.23 L 272.35 280.16 L 272.66 280.08 L 272.70 280.05 L 272.83 279.69 L 272.96 279.60 L 272.98 279.34 L 282.22 278.98 L 282.29 277.98 L 282.66 277.75 L 282.66 276.08 L 282.73 275.83 L 282.80 275.42 L 282.91 274.26 L 283.06 273.65 L 283.19 272.93 L 283.31 272.92 L 283.36 272.38 L 283.55 272.33 L 284.19 269.63 L 284.44 269.34 L 284.49 269.17 L 284.54 269.16 L 284.57 268.98 L 284.66 268.31 L 284.92 268.00 L 284.96 267.95 L 285.12 265.58 L 285.18 265.57 L 285.21 265.32 L 285.27 265.12 L 285.31 265.12 L 285.34 264.76 L 285.54 263.48 L 285.63 263.11 L 285.74 263.06 L 285.82 259.63 L 285.85 259.35 L 286.06 257.39 L 286.11 257.23 L 286.15 257.23 L 286.20 257.23 L 286.24 256.95 L 286.26 256.96 L 286.28 256.95 L 286.38 253.48 L 286.41 253.18 L 286.51 253.16 L 286.58 253.10 L 286.79 253.01 L 287.05 252.87 L 287.06 252.87 L 287.13 252.83 L 287.36 252.77 L 287.48 252.77 L 287.59 252.77 L 287.71 251.25 L 287.79 250.89 L 288.11 250.89 L 288.14 250.65 L 288.18 250.64 L 288.21 250.39 L 288.42 248.20 L 288.46 248.15 L 288.61 248.13 L 302.82 248.07 L 303.63 247.96 L 303.66 247.96 L 303.82 247.95 L 303.83 247.96 L 303.94 247.52 L 304.02 247.50 L 304.08 247.29 L 304.18 247.24 L 304.21 247.20 L 304.25 247.19 L 304.40 246.94 L 304.71 246.73 L 304.90 246.02 L 305.12 245.35 L 305.13 245.32 L 305.17 244.69 L 305.19 244.67 L 305.62 244.30 L 305.63 244.26 L 305.69 243.76 L 305.87 243.71 L 305.99 243.66 L 306.01 242.77 L 306.02 242.73 L 306.07 243.57 L 306.10 243.05 L 306.12 243.03 L 306.23 241.85 L 306.23 241.81 L 306.46 241.72 L 307.06 241.70 L 307.21 241.66 L 307.25 241.65 L 307.28 241.49 L 307.32 241.49 L 307.40 240.91 L 317.12 239.77 L 317.13 239.62 L 317.21 239.51 L 317.24 239.29 L 317.29 229.40 L 317.40 225.35 L 317.41 225.32 L 317.59 225.25 L 317.63 225.25 L 317.66 224.78 L 317.82 224.73 L 318.24 223.78 L 318.25 223.76 L 318.36 223.46 L 318.40 223.47 L 318.42 222.99 L 318.77 222.43 L 318.78 222.41 L 319.31 222.19 L 319.38 221.68 L 319.57 221.69 L 319.79 220.41 L 319.84 219.91 L 319.88 219.51 L 319.98 219.01 L 320.25 218.84 L 320.30 218.72 L 320.42 218.60 L 320.55 218.60 L 320.96 218.61 L 321.01 218.61 L 321.10 218.58 L 321.11 218.58 L 321.24 218.59 L 321.55 218.57 L 321.87 218.38 L 321.92 218.38 L 321.99 218.31 L 322.08 218.17 L 322.32 218.17 L 322.73 217.99 L 322.87 217.60 L 323.09 214.19 L 323.98 217.07 L 324.18 217.06 L 324.32 217.04 L 324.54 217.04 L 324.62 216.98 L 324.84 216.82 L 325.19 216.59 L 325.24 216.43 L 325.30 216.37 L 325.34 216.38 L 325.38 216.33 L 325.65 216.12 L 332.09 216.12 L 332.15 216.12 L 332.55 216.11 L 332.59 216.09 L 332.68 215.66 L 332.76 215.41 L 332.77 215.41 L 332.99 215.37 L 333.04 215.35 L 334.36 214.71 L 334.51 214.66 L 334.63 214.64 L 334.65 214.64 L 335.06 214.49 L 335.20 214.56 L 335.23 214.56 L 335.45 214.51 L 335.69 213.17 L 335.72 213.16 L 335.92 213.00 L 336.00 213.00 L 336.07 213.00 L 336.24 212.85 L 336.60 212.31 L 336.67 212.29 L 336.73 212.14 L 336.88 211.50 L 337.23 210.83 L 337.55 207.69 L 337.61 207.31 L 337.93 207.16 L 337.99 207.08 L 338.04 206.92 L 338.07 206.42 L 338.19 205.52 L 338.21 205.55 L 338.26 205.54 L 338.45 205.53 L 338.73 205.20 L 338.90 205.14 L 339.10 205.12 L 339.19 205.11 L 339.39 205.10 L 339.71 205.10 L 340.04 205.09 L 340.28 205.09 L 340.34 205.08 L 340.40 205.07 L 340.41 204.96 L 340.60 204.90 L 340.65 204.88 L 340.73 204.75 L 341.26 204.73 L 341.26 204.46 L 341.41 204.44 L 342.03 204.45 L 342.44 204.28 L 342.73 204.08 L 342.74 203.97 L 342.77 203.97 L 351.78 203.79 L 351.81 203.78 L 351.92 203.77 L 351.97 203.61 L 352.00 203.60 L 352.00 203.59 L 352.39 203.54 L 352.47 202.98 L 352.59 202.85 L 352.78 201.73 L 352.90 201.72 L 353.06 201.24 L 353.15 201.30 L 353.19 201.30 L 353.23 200.75 L 353.34 200.38 L 353.36 199.99 L 353.40 199.93 L 353.50 199.90 L 353.56 199.71 L 353.64 201.85 L 353.75 201.81 L 353.97 200.96 L 354.07 200.75 L 354.16 200.57 L 354.71 199.35 L 355.18 198.75 L 355.75 197.62 L 355.90 197.57 L 356.06 197.57 L 356.24 197.52 L 359.55 197.19 L 359.83 197.17 L 391.24 196.30 L 490.15 196.10 L 490.48 195.76 L 490.71 195.71 L 490.93 195.71 L 491.28 195.04 L 491.39 194.72 L 491.48 194.13 L 491.64 192.40 L 491.87 192.76 L 492.05 192.39 L 492.10 192.38 L 492.25 192.26 L 492.28 192.27 L 492.45 191.63 L 492.59 190.63 L 493.04 189.55 L 493.05 189.47 L 493.18 188.19 L 493.61 185.02 L 493.62 184.91 L 493.70 184.84 L 493.80 183.71 L 494.27 182.19 L 494.28 182.05 L 494.38 181.98 L 494.48 181.22 L 494.65 180.63 L 494.66 180.52 L 494.74 179.36 L 494.75 179.33 L 494.79 179.01 L 494.99 176.94 L 495.01 176.83 L 495.08 176.71 L 495.29 176.43 L 495.33 176.43 L 495.50 176.03 L 495.77 176.08 L 495.81 176.02 L 495.85 176.00 L 495.90 175.97 L 496.04 174.76 L 496.18 173.77 L 496.20 173.68 L 496.28 172.45 L 496.37 171.24 L 496.39 171.09 L 496.48 169.68 L 496.52 168.57 L 496.69 167.82 L 496.71 167.77 L 496.80 167.54 L 496.92 167.52 L 497.63 167.48 L 497.98 167.45 L 505.71 167.50 L 505.78 167.28 L 505.86 167.10 L 505.99 166.27 L 506.28 166.05 L 506.30 165.97 L 506.36 164.87 L 506.54 163.81 L 506.56 163.72 L 508.25 163.65 L 508.35 163.05 L 509.20 162.87 L 509.30 162.83 L 509.40 161.59 L 510.42 160.43 L 510.86 159.98 L 510.97 159.08 L 511.33 157.52 L 511.56 157.07 L 511.94 156.16 L 512.62 155.69 L 522.96 155.69 L 523.58 155.58 L 523.61 155.60 L 524.47 155.42 L 524.52 155.33 L 524.82 155.26 L 525.17 154.25 L 525.18 154.25 L 525.21 154.21 L 525.67 153.05 L 526.74 152.39 L 526.81 152.33 L 526.92 152.32 L 527.08 152.01 L 527.12 151.93 L 527.18 151.88 L 527.68 151.83 L 528.07 151.83 L 528.29 151.83 L 528.32 151.79 L 528.76 150.78 L 529.10 150.58 L 529.11 150.51 L 529.16 150.43 L 529.20 150.15 L 540.42 149.77 L 540.45 149.74 L 540.48 149.73 L 540.70 149.62 L 540.87 149.49 L 541.85 147.94 L 542.10 147.75 L 542.81 147.28 L 543.43 147.17 L 543.88 147.02 L 544.01 145.58 L 544.58 143.90 L 544.79 143.78 L 544.86 142.70 L 546.52 140.70 L 546.54 140.70 L 546.63 140.22 L 546.94 140.16 L 546.95 140.16 L 546.97 140.04 L 547.02 139.89 L 547.17 139.73 L 547.34 138.89 L 549.07 136.87 L 549.29 136.63 L 549.45 136.27 L 549.47 136.23 L 549.50 135.94 L 557.15 135.03 L 557.39 134.34 L 557.54 134.31 L 557.59 133.85 L 558.31 133.63 L 558.46 133.17 L 558.60 133.17 L 558.68 132.21 L 558.92 129.75 L 558.96 129.71 L 559.28 129.67 L 559.35 128.86 L 559.63 127.90 L 559.69 127.23 L 559.92 126.62 L 560.08 126.29 L 560.21 125.55 L 560.50 124.93 L 560.53 124.23 L 560.90 124.07 L 560.93 124.07 L 560.99 123.17 L 561.07 123.17 L 561.11 123.10 L 561.53 121.43 L 562.15 120.88 L 562.46 121.07 L 563.47 120.99 L 563.49 120.98 L 563.65 120.96 L 563.72 120.94 L 563.83 120.83 L 563.96 120.73 L 564.09 120.55 L 564.40 120.31 L 564.69 120.29 L 565.59 120.12 L 565.63 120.11 L 566.54 119.96 L 566.93 119.85 L 574.66 119.84 L 575.05 119.71 L 575.24 119.63 L 575.33 119.63 L 575.35 119.63 L 575.54 119.61 L 575.63 119.55 L 575.86 119.39 L 576.00 119.36 L 576.50 119.19 L 576.77 118.82 L 577.20 118.76 L 577.32 118.52 L 577.47 118.37 L 577.66 118.18 L 578.33 118.23 L 578.39 118.21 L 579.37 117.75 L 579.52 117.47 L 579.71 117.38 L 580.19 117.16 L 580.40 117.22 L 580.52 117.59 L 580.61 117.56 L 580.74 117.41 L 581.16 116.31 L 581.60 116.20 L 581.98 116.11 L 582.03 116.06 L 582.07 115.75 L 610.05 115.67 L 610.23 115.53 L 626.32 115.18 L 626.40 115.58 L 626.54 113.90 L 626.56 113.90 L 626.60 113.94 L 627.18 110.52 L 627.24 110.49 L 627.95 110.57 L 628.67 110.36 L 628.92 110.04 L 629.37 109.62 L 629.97 109.36 L 629.98 109.36 L 630.06 109.29 L 630.30 109.23 L 630.37 109.06 L 630.95 108.23 L 631.70 108.05 L 631.78 107.89 L 632.16 107.82 L 632.27 108.48 L 632.56 108.23 L 632.81 108.18 L 633.30 108.00 L 633.76 107.91 L 634.00 107.55 L 634.01 107.55 L 644.07 107.54 L 647.24 106.60 L 647.37 106.15 L 647.52 105.73 L 648.03 105.70 L 648.24 105.55 L 648.41 103.36 L 648.51 101.94 L 648.75 101.80 L 648.78 101.78 L 649.14 101.37 L 649.25 101.14 L 649.31 101.03 L 649.50 100.68 L 649.57 100.65 L 649.67 100.61 L 649.74 100.40 L 649.83 100.17 L 649.93 100.04 L 650.00 100.00"/>
	</g>
	<g id="poloto_plot1" class="poloto_plot poloto_imgs poloto_line poloto1 poloto_stroke" fill="none" stroke="black">
		<path d=" M 150.00 382.79 L 150.03 382.78 L 150.04 382.76 L 150.05 382.76 L 150.07 382.76 L 150.09 382.22 L 150.20 382.20 L 150.44 382.19 L 150.80 381.99 L 150.98 381.90 L 151.35 381.92 L 151.41 381.88 L 151.46 381.88 L 151.89 381.84 L 152.69 381.74 L 152.94 379.61 L 153.00 379.61 L 153.49 379.56 L 154.04 379.55 L 154.05 379.55 L 154.05 379.55 L 161.56 379.55 L 161.61 379.55 L 161.71 379.55 L 161.75 379.52 L 162.03 379.51 L 162.16 379.51 L 162.48 379.51 L 162.53 379.51 L 162.62 379.49 L 162.71 379.49 L 162.74 379.49 L 162.82 379.46 L 162.90 379.46 L 162.98 379.46 L 163.19 379.35 L 163.38 379.35 L 163.41 379.35 L 163.50 379.35 L 164.10 380.15 L 164.11 380.15 L 164.18 380.14 L 164.52 380.01 L 164.80 379.88 L 165.11 379.82 L 165.17 379.78 L 165.18 379.78 L 165.24 379.78 L 165.35 379.78 L 165.50 379.73 L 165.80 379.68 L 165.82 379.68 L 165.87 379.68 L 165.94 379.66 L 166.11 379.66 L 166.13 379.66 L 166.30 379.66 L 166.37 379.66 L 166.44 379.66 L 166.51 379.66 L 167.42 379.56 L 167.64 379.55 L 168.15 379.51 L 168.26 379.51 L 168.34 379.51 L 168.38 379.51 L 168.73 379.45 L 168.89 379.45 L 169.07 379.37 L 169.16 379.36 L 169.37 379.19 L 169.46 379.13 L 169.59 379.13 L 169.70 379.12 L 170.10 376.64 L 170.12 376.59 L 170.14 376.59 L 170.27 376.35 L 177.24 376.35 L 177.96 375.28 L 177.98 375.28 L 178.83 375.28 L 178.91 375.28 L 178.98 375.17 L 179.19 375.15 L 179.29 375.15 L 179.32 375.15 L 179.43 375.15 L 179.68 375.15 L 179.69 374.92 L 179.78 374.91 L 179.88 374.91 L 179.98 374.88 L 180.12 374.88 L 180.17 374.88 L 180.19 374.88 L 180.31 374.88 L 180.33 374.88 L 180.46 374.88 L 180.49 374.88 L 180.68 373.82 L 180.72 373.82 L 180.79 373.69 L 180.87 373.69 L 180.99 373.69 L 181.04 373.68 L 181.43 373.68 L 181.44 373.68 L 181.51 373.62 L 181.69 373.62 L 181.84 373.01 L 181.89 372.94 L 181.96 372.94 L 182.00 372.94 L 182.09 372.92 L 182.53 368.48 L 182.57 368.51 L 182.72 368.51 L 182.77 368.51 L 182.80 368.51 L 182.87 368.51 L 182.94 368.45 L 183.10 368.45 L 183.20 368.45 L 183.29 368.44 L 183.34 368.44 L 183.73 368.43 L 183.95 368.43 L 184.01 368.32 L 184.20 368.32 L 184.21 368.32 L 184.23 368.32 L 184.34 368.02 L 184.44 367.94 L 184.76 366.88 L 184.81 366.88 L 184.87 366.88 L 184.96 366.90 L 184.97 366.90 L 185.01 366.90 L 185.04 366.90 L 185.08 366.90 L 185.12 366.90 L 185.25 366.88 L 185.35 366.88 L 185.44 366.87 L 185.56 366.87 L 185.71 366.86 L 185.84 366.46 L 185.94 366.33 L 186.15 366.33 L 186.15 366.33 L 186.27 366.33 L 195.99 366.33 L 196.18 366.32 L 196.63 366.25 L 196.73 366.24 L 196.80 366.24 L 196.82 366.24 L 196.99 366.24 L 197.10 366.24 L 197.17 366.24 L 197.24 366.24 L 197.28 366.24 L 197.45 366.24 L 197.80 366.26 L 197.89 366.26 L 197.95 366.26 L 198.04 366.26 L 198.49 366.17 L 198.55 366.13 L 198.58 366.13 L 198.61 366.08 L 198.71 366.07 L 198.79 366.07 L 199.11 365.67 L 199.58 365.67 L 199.75 365.67 L 200.27 365.67 L 200.52 362.95 L 200.61 362.95 L 200.71 362.95 L 200.87 362.94 L 201.10 362.94 L 201.43 362.94 L 201.87 362.94 L 201.94 362.94 L 202.26 362.88 L 202.47 362.76 L 202.53 362.76 L 202.66 362.76 L 202.76 362.75 L 203.91 362.58 L 205.00 362.58 L 214.78 362.57 L 214.85 362.57 L 214.91 362.57 L 215.21 362.57 L 216.12 361.72 L 216.16 361.69 L 216.29 361.60 L 216.74 361.59 L 216.95 361.39 L 217.28 361.39 L 217.35 361.39 L 217.42 361.39 L 217.99 359.00 L 218.06 359.00 L 218.18 359.00 L 218.31 359.00 L 218.36 358.85 L 218.68 358.56 L 218.79 358.56 L 218.85 358.56 L 218.92 358.12 L 219.06 357.68 L 219.12 357.68 L 219.26 357.68 L 219.68 354.12 L 219.72 354.12 L 219.76 354.12 L 219.83 354.12 L 219.93 354.12 L 219.98 354.12 L 220.02 354.12 L 220.22 354.12 L 220.27 354.04 L 220.52 354.03 L 220.66 353.98 L 220.76 353.55 L 221.52 346.47 L 221.60 346.47 L 250.36 346.47 L 250.39 346.47 L 261.38 346.47 L 261.97 346.36 L 262.10 346.36 L 262.26 346.36 L 262.31 346.36 L 262.38 346.36 L 267.14 346.31 L 267.77 346.24 L 268.00 346.24 L 268.13 346.22 L 271.10 346.16 L 271.12 346.06 L 271.30 346.06 L 272.19 345.10 L 272.24 345.10 L 272.35 345.10 L 272.66 345.10 L 272.70 345.10 L 272.83 345.10 L 272.96 345.10 L 272.98 345.10 L 282.22 345.09 L 282.29 344.92 L 282.66 344.92 L 282.66 343.76 L 282.73 343.76 L 282.80 343.76 L 282.91 343.65 L 283.06 343.65 L 283.19 343.60 L 283.31 343.60 L 283.36 343.60 L 283.55 343.59 L 284.19 341.63 L 284.44 341.62 L 284.49 341.61 L 284.54 341.61 L 284.57 341.61 L 284.66 341.58 L 284.92 341.34 L 284.96 341.30 L 285.12 339.54 L 285.18 339.53 L 285.21 339.53 L 285.27 339.51 L 285.31 339.51 L 285.34 339.50 L 285.54 338.54 L 285.63 338.53 L 285.74 338.51 L 285.82 335.52 L 285.85 335.52 L 286.06 333.84 L 286.11 333.84 L 286.15 333.83 L 286.20 333.83 L 286.24 333.83 L 286.26 333.83 L 286.28 333.83 L 286.38 330.73 L 286.41 330.72 L 286.51 330.71 L 286.58 330.71 L 286.79 330.65 L 287.05 330.56 L 287.06 330.56 L 287.13 330.54 L 287.36 330.50 L 287.48 330.50 L 287.59 330.50 L 287.71 329.15 L 287.79 329.15 L 288.11 329.15 L 288.14 329.14 L 288.18 329.14 L 288.21 329.14 L 288.42 327.23 L 288.46 327.23 L 288.61 327.22 L 302.82 327.22 L 303.63 327.21 L 303.66 327.21 L 303.82 327.21 L 303.83 327.21 L 303.94 327.21 L 304.02 327.20 L 304.08 327.11 L 304.18 327.11 L 304.21 327.11 L 304.25 327.11 L 304.40 326.93 L 304.71 326.82 L 304.90 326.71 L 305.12 326.17 L 305.13 326.17 L 305.17 326.03 L 305.19 326.02 L 305.62 325.69 L 305.63 325.69 L 305.69 325.64 L 305.87 325.64 L 305.99 325.61 L 306.01 324.81 L 306.02 324.81 L 306.07 325.60 L 306.10 325.55 L 306.12 325.54 L 306.23 324.48 L 306.23 324.48 L 306.46 324.43 L 307.06 324.43 L 307.21 324.43 L 307.25 324.43 L 307.28 324.43 L 307.32 324.43 L 307.40 324.36 L 317.12 323.48 L 317.13 323.48 L 317.21 323.47 L 317.24 323.28 L 317.29 313.83 L 317.40 310.32 L 317.41 310.32 L 317.59 310.25 L 317.63 310.25 L 317.66 310.24 L 317.82 310.24 L 318.24 309.38 L 318.25 309.38 L 318.36 309.33 L 318.40 309.33 L 318.42 309.26 L 318.77 308.75 L 318.78 308.75 L 319.31 308.64 L 319.38 308.61 L 319.57 308.62 L 319.79 307.46 L 319.84 307.34 L 319.88 307.23 L 319.98 306.80 L 320.25 306.69 L 320.30 306.59 L 320.42 306.59 L 320.55 306.59 L 320.96 306.59 L 321.01 306.59 L 321.10 306.59 L 321.11 306.59 L 321.24 306.61 L 321.55 306.61 L 321.87 306.49 L 321.92 306.49 L 321.99 306.47 L 322.08 306.47 L 322.32 306.47 L 322.73 306.47 L 322.87 306.37 L 323.09 303.32 L 323.98 306.20 L 324.18 306.18 L 324.32 306.17 L 324.54 306.17 L 324.62 306.14 L 324.84 306.12 L 325.19 305.95 L 325.24 305.95 L 325.30 305.95 L 325.34 305.95 L 325.38 305.95 L 325.65 305.78 L 332.09 305.78 L 332.15 305.79 L 332.55 305.77 L 332.59 305.77 L 332.68 305.74 L 332.76 305.53 L 332.77 305.53 L 332.99 305.51 L 333.04 305.51 L 334.36 305.33 L 334.51 305.33 L 334.63 305.33 L 334.65 305.33 L 335.06 305.21 L 335.20 305.21 L 335.23 305.21 L 335.45 305.20 L 335.69 304.48 L 335.72 304.48 L 335.92 304.36 L 336.00 304.36 L 336.07 304.36 L 336.24 304.36 L 336.60 304.35 L 336.67 304.33 L 336.73 304.26 L 336.88 304.14 L 337.23 304.03 L 337.55 301.15 L 337.61 301.05 L 337.93 300.92 L 337.99 300.88 L 338.04 300.78 L 338.07 300.58 L 338.19 299.72 L 338.21 299.75 L 338.26 299.74 L 338.45 299.73 L 338.73 299.61 L 338.90 299.57 L 339.10 299.56 L 339.19 299.54 L 339.39 299.53 L 339.71 299.53 L 340.04 299.53 L 340.28 299.52 L 340.34 299.52 L 340.40 299.52 L 340.41 299.51 L 340.60 299.51 L 340.65 299.50 L 340.73 299.39 L 341.26 299.38 L 341.26 299.38 L 341.41 299.37 L 342.03 299.37 L 342.44 299.22 L 342.73 299.10 L 342.74 299.10 L 342.77 299.10 L 351.78 299.10 L 351.81 299.10 L 351.92 299.10 L 351.97 299.10 L 352.00 299.08 L 352.00 299.08 L 352.39 299.08 L 352.47 299.07 L 352.59 299.05 L 352.78 299.03 L 352.90 299.03 L 353.06 298.97 L 353.15 298.97 L 353.19 298.97 L 353.23 298.97 L 353.34 298.70 L 353.36 298.70 L 353.40 298.70 L 353.50 298.70 L 353.56 298.70 L 353.64 298.77 L 353.75 298.77 L 353.97 298.75 L 354.07 298.75 L 354.16 298.75 L 354.71 297.91 L 355.18 297.68 L 355.75 297.08 L 355.90 297.08 L 356.06 297.08 L 356.24 297.08 L 359.55 297.00 L 359.83 297.00 L 391.24 296.89 L 490.15 296.73 L 490.48 296.69 L 490.71 296.68 L 490.93 296.68 L 491.28 296.29 L 491.39 296.29 L 491.48 296.29 L 491.64 294.87 L 491.87 295.14 L 492.05 295.12 L 492.10 295.12 L 492.25 295.11 L 492.28 295.11 L 492.45 295.11 L 492.59 295.04 L 493.04 294.15 L 493.05 294.15 L 493.18 294.07 L 493.61 291.17 L 493.62 291.17 L 493.70 291.16 L 493.80 291.12 L 494.27 289.77 L 494.28 289.77 L 494.38 289.77 L 494.48 289.74 L 494.65 289.24 L 494.66 289.24 L 494.74 289.24 L 494.75 289.24 L 494.79 288.96 L 494.99 287.04 L 495.01 287.04 L 495.08 287.04 L 495.29 286.88 L 495.33 286.88 L 495.50 286.57 L 495.77 286.57 L 495.81 286.57 L 495.85 286.57 L 495.90 286.57 L 496.04 286.56 L 496.18 285.69 L 496.20 285.69 L 496.28 285.69 L 496.37 285.03 L 496.39 285.03 L 496.48 284.34 L 496.52 284.30 L 496.69 283.61 L 496.71 283.61 L 496.80 283.61 L 496.92 283.60 L 497.63 283.60 L 497.98 283.59 L 505.71 283.59 L 505.78 283.59 L 505.86 283.59 L 505.99 283.59 L 506.28 283.41 L 506.30 283.41 L 506.36 283.35 L 506.54 282.39 L 506.56 282.39 L 508.25 282.41 L 508.35 282.23 L 509.20 282.23 L 509.30 282.22 L 509.40 282.15 L 510.42 281.36 L 510.86 281.21 L 510.97 281.16 L 511.33 279.66 L 511.56 279.66 L 511.94 279.54 L 512.62 279.54 L 522.96 279.53 L 523.58 279.44 L 523.61 279.46 L 524.47 279.46 L 524.52 279.46 L 524.82 279.46 L 525.17 279.43 L 525.18 279.43 L 525.21 279.43 L 525.67 278.55 L 526.74 278.53 L 526.81 278.53 L 526.92 278.53 L 527.08 278.49 L 527.12 278.46 L 527.18 278.46 L 527.68 278.42 L 528.07 278.42 L 528.29 278.42 L 528.32 278.42 L 528.76 278.40 L 529.10 278.30 L 529.11 278.30 L 529.16 278.30 L 529.20 278.30 L 540.42 278.10 L 540.45 278.10 L 540.48 278.10 L 540.70 278.10 L 540.87 278.10 L 541.85 277.23 L 542.10 277.18 L 542.81 277.11 L 543.43 277.07 L 543.88 277.07 L 544.01 277.07 L 544.58 275.76 L 544.79 275.73 L 544.86 275.68 L 546.52 274.76 L 546.54 274.76 L 546.63 274.75 L 546.94 274.74 L 546.95 274.74 L 546.97 274.74 L 547.02 274.71 L 547.17 274.68 L 547.34 274.57 L 549.07 273.06 L 549.29 272.98 L 549.45 272.98 L 549.47 272.98 L 549.50 272.98 L 557.15 272.98 L 557.39 272.97 L 557.54 272.97 L 557.59 272.97 L 558.31 272.97 L 558.46 272.97 L 558.60 272.97 L 558.68 272.94 L 558.92 270.95 L 558.96 270.94 L 559.28 270.95 L 559.35 270.94 L 559.63 270.17 L 559.69 270.12 L 559.92 269.62 L 560.08 269.62 L 560.21 269.58 L 560.50 269.12 L 560.53 269.11 L 560.90 267.64 L 560.93 267.64 L 560.99 267.63 L 561.07 267.63 L 561.11 267.63 L 561.53 266.15 L 562.15 266.02 L 562.46 266.02 L 563.47 265.98 L 563.49 265.98 L 563.65 265.98 L 563.72 265.98 L 563.83 265.98 L 563.96 265.98 L 564.09 265.96 L 564.40 265.94 L 564.69 265.94 L 565.59 265.88 L 565.63 265.88 L 566.54 265.83 L 566.93 265.80 L 574.66 265.81 L 575.05 265.74 L 575.24 265.66 L 575.33 265.66 L 575.35 265.66 L 575.54 265.65 L 575.63 265.65 L 575.86 265.65 L 576.00 265.65 L 576.50 265.51 L 576.77 265.24 L 577.20 265.23 L 577.32 265.05 L 577.47 264.97 L 577.66 264.88 L 578.33 264.97 L 578.39 264.97 L 579.37 264.69 L 579.52 264.69 L 579.71 264.69 L 580.19 264.66 L 580.40 264.80 L 580.52 264.80 L 580.61 264.80 L 580.74 264.80 L 581.16 264.16 L 581.60 264.14 L 581.98 264.14 L 582.03 264.14 L 582.07 264.14 L 610.05 264.14 L 610.23 264.10 L 626.32 263.88 L 626.40 263.88 L 626.54 263.83 L 626.56 263.83 L 626.60 263.83 L 627.18 261.36 L 627.24 261.36 L 627.95 261.36 L 628.67 261.26 L 628.92 261.01 L 629.37 260.69 L 629.97 260.61 L 629.98 260.61 L 630.06 260.56 L 630.30 260.56 L 630.37 260.51 L 630.95 259.85 L 631.70 259.74 L 631.78 259.74 L 632.16 259.74 L 632.27 259.74 L 632.56 259.57 L 632.81 259.55 L 633.30 259.41 L 633.76 259.34 L 634.00 259.34 L 634.01 259.34 L 644.07 259.34 L 647.24 259.29 L 647.37 259.26 L 647.52 258.97 L 648.03 258.99 L 648.24 258.99 L 648.41 258.99 L 648.51 258.86 L 648.75 258.77 L 648.78 258.76 L 649.14 258.53 L 649.25 258.36 L 649.31 258.31 L 649.50 258.20 L 649.57 258.19 L 649.67 258.18 L 649.74 258.04 L 649.83 257.88 L 649.93 257.85 L 650.00 257.84"/>
	</g>
	<g id="poloto_plot2" class="poloto_plot poloto_imgs poloto_line poloto2 poloto_stroke" fill="none" stroke="black">
		<path d=" M 150.00 392.28 L 150.03 392.27 L 150.04 392.27 L 150.05 392.27 L 150.07 392.27 L 150.09 390.30 L 150.20 390.03 L 150.44 390.02 L 150.80 390.01 L 150.98 388.83 L 151.35 388.72 L 151.41 388.69 L 151.46 388.66 L 151.89 388.13 L 152.69 387.71 L 152.94 387.63 L 153.00 387.64 L 153.49 387.61 L 154.04 387.61 L 154.05 387.61 L 154.05 387.61 L 161.56 387.61 L 161.61 387.60 L 161.71 387.59 L 161.75 387.59 L 162.03 387.47 L 162.16 387.43 L 162.48 387.24 L 162.53 387.16 L 162.62 386.98 L 162.71 386.96 L 162.74 386.95 L 162.82 386.92 L 162.90 386.92 L 162.98 386.93 L 163.19 386.73 L 163.38 386.54 L 163.41 386.55 L 163.50 386.44 L 164.10 386.20 L 164.11 386.20 L 164.18 386.13 L 164.52 385.86 L 164.80 385.54 L 165.11 385.41 L 165.17 385.41 L 165.18 385.41 L 165.24 385.23 L 165.35 385.23 L 165.50 385.21 L 165.80 385.08 L 165.82 384.84 L 165.87 384.84 L 165.94 384.73 L 166.11 384.73 L 166.13 384.73 L 166.30 384.38 L 166.37 384.36 L 166.44 384.33 L 166.51 384.17 L 167.42 384.08 L 167.64 384.04 L 168.15 383.80 L 168.26 383.80 L 168.34 383.79 L 168.38 383.61 L 168.73 382.64 L 168.89 382.63 L 169.07 382.34 L 169.16 382.31 L 169.37 382.18 L 169.46 382.14 L 169.59 381.93 L 169.70 381.76 L 170.10 381.76 L 170.12 381.74 L 170.14 381.60 L 170.27 380.66 L 177.24 380.57 L 177.96 380.29 L 177.98 380.25 L 178.83 380.02 L 178.91 380.01 L 178.98 379.84 L 179.19 379.72 L 179.29 379.51 L 179.32 379.33 L 179.43 378.99 L 179.68 378.98 L 179.69 378.98 L 179.78 378.74 L 179.88 378.73 L 179.98 378.48 L 180.12 378.28 L 180.17 378.17 L 180.19 378.17 L 180.31 377.93 L 180.33 377.93 L 180.46 377.71 L 180.49 377.71 L 180.68 377.63 L 180.72 377.63 L 180.79 377.55 L 180.87 377.54 L 180.99 377.54 L 181.04 377.52 L 181.43 377.31 L 181.44 377.32 L 181.51 376.90 L 181.69 376.88 L 181.84 376.75 L 181.89 376.75 L 181.96 376.75 L 182.00 376.71 L 182.09 376.14 L 182.53 375.65 L 182.57 375.39 L 182.72 375.36 L 182.77 375.30 L 182.80 375.29 L 182.87 375.16 L 182.94 374.71 L 183.10 374.64 L 183.20 374.62 L 183.29 374.40 L 183.34 374.39 L 183.73 374.22 L 183.95 374.10 L 184.01 373.99 L 184.20 373.98 L 184.21 373.98 L 184.23 373.96 L 184.34 373.13 L 184.44 373.13 L 184.76 373.01 L 184.81 372.68 L 184.87 372.67 L 184.96 372.54 L 184.97 372.46 L 185.01 372.40 L 185.04 372.37 L 185.08 372.37 L 185.12 372.30 L 185.25 371.37 L 185.35 371.28 L 185.44 371.00 L 185.56 370.98 L 185.71 370.89 L 185.84 370.60 L 185.94 369.80 L 186.15 369.73 L 186.15 369.39 L 186.27 369.31 L 195.99 369.31 L 196.18 369.31 L 196.63 368.93 L 196.73 368.93 L 196.80 368.93 L 196.82 368.83 L 196.99 368.66 L 197.10 368.63 L 197.17 368.54 L 197.24 368.47 L 197.28 368.43 L 197.45 368.38 L 197.80 368.46 L 197.89 368.20 L 197.95 368.13 L 198.04 368.13 L 198.49 368.08 L 198.55 368.03 L 198.58 368.03 L 198.61 367.98 L 198.71 367.94 L 198.79 367.85 L 199.11 367.61 L 199.58 367.50 L 199.75 367.46 L 200.27 367.31 L 200.52 366.93 L 200.61 366.87 L 200.71 366.57 L 200.87 366.19 L 201.10 366.09 L 201.43 366.09 L 201.87 366.07 L 201.94 365.93 L 202.26 365.84 L 202.47 365.72 L 202.53 365.62 L 202.66 365.59 L 202.76 365.33 L 203.91 365.21 L 205.00 365.21 L 214.78 365.18 L 214.85 365.04 L 214.91 364.95 L 215.21 364.81 L 216.12 364.56 L 216.16 364.52 L 216.29 364.35 L 216.74 364.28 L 216.95 363.79 L 217.28 363.78 L 217.35 363.76 L 217.42 363.28 L 217.99 362.83 L 218.06 362.82 L 218.18 362.80 L 218.31 362.76 L 218.36 362.59 L 218.68 361.84 L 218.79 361.65 L 218.85 361.64 L 218.92 361.56 L 219.06 361.27 L 219.12 360.52 L 219.26 360.21 L 219.68 360.03 L 219.72 359.66 L 219.76 359.66 L 219.83 359.59 L 219.93 359.49 L 219.98 359.46 L 220.02 359.42 L 220.22 358.55 L 220.27 358.03 L 220.52 357.94 L 220.66 357.07 L 220.76 356.90 L 221.52 355.53 L 221.60 355.51 L 250.36 355.11 L 250.39 355.11 L 261.38 354.99 L 261.97 354.85 L 262.10 354.85 L 262.26 354.78 L 262.31 354.67 L 262.38 354.64 L 267.14 354.63 L 267.77 353.06 L 268.00 352.92 L 268.13 352.37 L 271.10 352.31 L 271.12 352.26 L 271.30 352.25 L 272.19 352.15 L 272.24 351.97 L 272.35 351.90 L 272.66 351.82 L 272.70 351.80 L 272.83 351.50 L 272.96 351.40 L 272.98 351.17 L 282.22 350.88 L 282.29 350.16 L 282.66 349.97 L 282.66 349.70 L 282.73 349.49 L 282.80 349.16 L 282.91 348.29 L 283.06 347.82 L 283.19 347.20 L 283.31 347.20 L 283.36 346.73 L 283.55 346.70 L 284.19 346.25 L 284.44 346.04 L 284.49 345.91 L 284.54 345.91 L 284.57 345.75 L 284.66 345.22 L 284.92 345.16 L 284.96 345.16 L 285.12 344.81 L 285.18 344.81 L 285.21 344.61 L 285.27 344.48 L 285.31 344.48 L 285.34 344.20 L 285.54 344.03 L 285.63 343.75 L 285.74 343.74 L 285.82 343.59 L 285.85 343.38 L 286.06 343.27 L 286.11 343.14 L 286.15 343.14 L 286.20 343.14 L 286.24 342.92 L 286.26 342.93 L 286.28 342.93 L 286.38 342.85 L 286.41 342.61 L 286.51 342.61 L 286.58 342.55 L 286.79 342.53 L 287.05 342.51 L 287.06 342.51 L 287.13 342.49 L 287.36 342.49 L 287.48 342.49 L 287.59 342.49 L 287.71 342.45 L 287.79 342.16 L 288.11 342.16 L 288.14 341.99 L 288.18 341.99 L 288.21 341.80 L 288.42 341.73 L 288.46 341.68 L 288.61 341.68 L 302.82 341.63 L 303.63 341.55 L 303.66 341.55 L 303.82 341.55 L 303.83 341.55 L 303.94 341.21 L 304.02 341.20 L 304.08 341.11 L 304.18 341.06 L 304.21 341.03 L 304.25 341.01 L 304.40 340.98 L 304.71 340.91 L 304.90 340.45 L 305.12 340.43 L 305.13 340.40 L 305.17 340.02 L 305.19 340.02 L 305.62 340.02 L 305.63 339.98 L 305.69 339.63 L 305.87 339.58 L 305.99 339.57 L 306.01 339.56 L 306.02 339.52 L 306.07 339.50 L 306.10 339.14 L 306.12 339.13 L 306.23 339.13 L 306.23 339.10 L 306.46 339.06 L 307.06 339.05 L 307.21 339.02 L 307.25 339.01 L 307.28 338.89 L 307.32 338.89 L 307.40 338.49 L 317.12 338.36 L 317.13 338.25 L 317.21 338.17 L 317.24 338.15 L 317.29 337.81 L 317.40 337.72 L 317.41 337.70 L 317.59 337.70 L 317.63 337.70 L 317.66 337.36 L 317.82 337.31 L 318.24 337.30 L 318.25 337.28 L 318.36 337.09 L 318.40 337.10 L 318.42 336.78 L 318.77 336.78 L 318.78 336.76 L 319.31 336.68 L 319.38 336.31 L 319.57 336.31 L 319.79 336.30 L 319.84 336.02 L 319.88 335.81 L 319.98 335.80 L 320.25 335.75 L 320.30 335.73 L 320.42 335.65 L 320.55 335.65 L 320.96 335.65 L 321.01 335.65 L 321.10 335.63 L 321.11 335.63 L 321.24 335.63 L 321.55 335.60 L 321.87 335.56 L 321.92 335.56 L 321.99 335.52 L 322.08 335.42 L 322.32 335.42 L 322.73 335.30 L 322.87 335.08 L 323.09 335.06 L 323.98 334.83 L 324.18 334.83 L 324.32 334.82 L 324.54 334.82 L 324.62 334.80 L 324.84 334.68 L 325.19 334.67 L 325.24 334.56 L 325.30 334.51 L 325.34 334.52 L 325.38 334.49 L 325.65 334.47 L 332.09 334.46 L 332.15 334.46 L 332.55 334.46 L 332.59 334.45 L 332.68 334.13 L 332.76 334.12 L 332.77 334.12 L 332.99 334.11 L 333.04 334.10 L 334.36 333.63 L 334.51 333.58 L 334.63 333.57 L 334.65 333.57 L 335.06 333.56 L 335.20 333.62 L 335.23 333.62 L 335.45 333.59 L 335.69 333.14 L 335.72 333.13 L 335.92 333.12 L 336.00 333.12 L 336.07 333.12 L 336.24 333.03 L 336.60 332.63 L 336.67 332.63 L 336.73 332.57 L 336.88 332.20 L 337.23 331.80 L 337.55 331.82 L 337.61 331.61 L 337.93 331.61 L 337.99 331.58 L 338.04 331.56 L 338.07 331.35 L 338.19 331.34 L 338.21 331.34 L 338.26 331.34 L 338.45 331.34 L 338.73 331.17 L 338.90 331.15 L 339.10 331.15 L 339.19 331.15 L 339.39 331.15 L 339.71 331.15 L 340.04 331.15 L 340.28 331.15 L 340.34 331.15 L 340.40 331.14 L 340.41 331.06 L 340.60 331.01 L 340.65 331.01 L 340.73 331.00 L 341.26 331.00 L 341.26 330.79 L 341.41 330.79 L 342.03 330.79 L 342.44 330.79 L 342.73 330.74 L 342.74 330.66 L 342.77 330.66 L 351.78 330.52 L 351.81 330.51 L 351.92 330.50 L 351.97 330.37 L 352.00 330.37 L 352.00 330.37 L 352.39 330.33 L 352.47 329.90 L 352.59 329.81 L 352.78 328.97 L 352.90 328.96 L 353.06 328.60 L 353.15 328.65 L 353.19 328.64 L 353.23 328.19 L 353.34 328.11 L 353.36 327.79 L 353.40 327.74 L 353.50 327.71 L 353.56 327.56 L 353.64 329.44 L 353.75 329.41 L 353.97 328.65 L 354.07 328.49 L 354.16 328.32 L 354.71 328.02 L 355.18 327.70 L 355.75 327.26 L 355.90 327.21 L 356.06 327.21 L 356.24 327.17 L 359.55 326.95 L 359.83 326.93 L 391.24 326.34 L 490.15 326.32 L 490.48 326.06 L 490.71 326.01 L 490.93 326.01 L 491.28 325.78 L 491.39 325.50 L 491.48 324.98 L 491.64 324.84 L 491.87 324.89 L 492.05 324.59 L 492.10 324.59 L 492.25 324.49 L 492.28 324.49 L 492.45 323.99 L 492.59 323.22 L 493.04 323.15 L 493.05 323.07 L 493.18 322.07 L 493.61 322.04 L 493.62 321.94 L 493.70 321.88 L 493.80 320.98 L 494.27 320.93 L 494.28 320.80 L 494.38 320.74 L 494.48 320.15 L 494.65 320.13 L 494.66 320.03 L 494.74 319.05 L 494.75 319.03 L 494.79 319.00 L 494.99 319.00 L 495.01 318.89 L 495.08 318.82 L 495.29 318.73 L 495.33 318.73 L 495.50 318.68 L 495.77 318.71 L 495.81 318.67 L 495.85 318.64 L 495.90 318.61 L 496.04 317.59 L 496.18 317.57 L 496.20 317.48 L 496.28 316.44 L 496.37 316.06 L 496.39 315.92 L 496.48 315.41 L 496.52 314.53 L 496.69 314.52 L 496.71 314.47 L 496.80 314.29 L 496.92 314.28 L 497.63 314.25 L 497.98 314.23 L 505.71 314.27 L 505.78 314.07 L 505.86 313.92 L 505.99 313.21 L 506.28 313.20 L 506.30 313.13 L 506.36 312.24 L 506.54 312.23 L 506.56 312.15 L 508.25 312.06 L 508.35 311.74 L 509.20 311.58 L 509.30 311.55 L 509.40 310.56 L 510.42 310.27 L 510.86 310.04 L 510.97 309.29 L 511.33 309.29 L 511.56 308.87 L 511.94 308.23 L 512.62 307.85 L 522.96 307.84 L 523.58 307.83 L 523.61 307.83 L 524.47 307.69 L 524.52 307.61 L 524.82 307.55 L 525.17 306.72 L 525.18 306.72 L 525.21 306.68 L 525.67 306.51 L 526.74 305.95 L 526.81 305.90 L 526.92 305.89 L 527.08 305.66 L 527.12 305.62 L 527.18 305.58 L 527.68 305.58 L 528.07 305.58 L 528.29 305.58 L 528.32 305.54 L 528.76 304.69 L 529.10 304.62 L 529.11 304.55 L 529.16 304.47 L 529.20 304.26 L 540.42 304.11 L 540.45 304.09 L 540.48 304.07 L 540.70 303.97 L 540.87 303.86 L 541.85 303.39 L 542.10 303.29 L 542.81 302.93 L 543.43 302.87 L 543.88 302.72 L 544.01 301.48 L 544.58 301.27 L 544.79 301.21 L 544.86 300.31 L 546.52 299.45 L 546.54 299.45 L 546.63 299.05 L 546.94 299.01 L 546.95 299.01 L 546.97 298.91 L 547.02 298.80 L 547.17 298.71 L 547.34 298.10 L 549.07 297.78 L 549.29 297.64 L 549.45 297.30 L 549.47 297.27 L 549.50 297.05 L 557.15 296.27 L 557.39 295.70 L 557.54 295.68 L 557.59 295.30 L 558.31 295.15 L 558.46 294.74 L 558.60 294.74 L 558.68 293.91 L 558.92 293.71 L 558.96 293.68 L 559.28 293.63 L 559.35 292.95 L 559.63 292.86 L 559.69 292.32 L 559.92 292.27 L 560.08 291.95 L 560.21 291.35 L 560.50 291.23 L 560.53 290.62 L 560.90 292.01 L 560.93 292.01 L 560.99 291.22 L 561.07 291.22 L 561.11 291.15 L 561.53 291.08 L 562.15 290.75 L 562.46 290.92 L 563.47 290.89 L 563.49 290.89 L 563.65 290.88 L 563.72 290.86 L 563.83 290.75 L 563.96 290.65 L 564.09 290.51 L 564.40 290.31 L 564.69 290.29 L 565.59 290.20 L 565.63 290.19 L 566.54 290.09 L 566.93 290.03 L 574.66 290.00 L 575.05 289.95 L 575.24 289.95 L 575.33 289.95 L 575.35 289.95 L 575.54 289.94 L 575.63 289.91 L 575.86 289.76 L 576.00 289.74 L 576.50 289.73 L 576.77 289.66 L 577.20 289.62 L 577.32 289.59 L 577.47 289.53 L 577.66 289.44 L 578.33 289.40 L 578.39 289.39 L 579.37 289.23 L 579.52 288.99 L 579.71 288.90 L 580.19 288.75 L 580.40 288.67 L 580.52 289.02 L 580.61 289.01 L 580.74 288.87 L 581.16 288.55 L 581.60 288.47 L 581.98 288.40 L 582.03 288.36 L 582.07 288.12 L 610.05 288.07 L 610.23 288.01 L 626.32 287.94 L 626.40 288.29 L 626.54 286.89 L 626.56 286.89 L 626.60 286.92 L 627.18 286.38 L 627.24 286.36 L 627.95 286.41 L 628.67 286.35 L 628.92 286.31 L 629.37 286.25 L 629.97 286.10 L 629.98 286.10 L 630.06 286.08 L 630.30 286.03 L 630.37 285.93 L 630.95 285.85 L 631.70 285.80 L 631.78 285.66 L 632.16 285.59 L 632.27 286.21 L 632.56 286.15 L 632.81 286.12 L 633.30 286.09 L 633.76 286.09 L 634.00 285.80 L 634.01 285.80 L 644.07 285.79 L 647.24 285.05 L 647.37 284.67 L 647.52 284.58 L 648.03 284.55 L 648.24 284.41 L 648.41 282.55 L 648.51 281.54 L 648.75 281.51 L 648.78 281.49 L 649.14 281.35 L 649.25 281.31 L 649.31 281.25 L 649.50 281.02 L 649.57 281.01 L 649.67 280.98 L 649.74 280.93 L 649.83 280.87 L 649.93 280.78 L 650.00 280.74"/>
	</g>
	<g class="poloto_legend poloto_imgs poloto_line poloto0 poloto_stroke"><line x1="680" x2="730" y1="81.25" y2="81.25"/></g>
	<g class="poloto_legend poloto_imgs poloto_line poloto1 poloto_stroke"><line x1="680" x2="730" y1="131.25" y2="131.25"/></g>
	<g class="poloto_legend poloto_imgs poloto_line poloto2 poloto_stroke"><line x1="680" x2="730" y1="181.25" y2="181.25"/></g>
	<text class="poloto_legend poloto_text poloto_line poloto0" x="675" y="100">total</text>
	<text class="poloto_legend poloto_text poloto_line poloto1" x="675" y="150">code</text>
	<text class="poloto_legend poloto_text poloto_line poloto2" x="675" y="200">docs</text>
	<text class="poloto_text poloto_name poloto_title" x="400.00" y="37.50">Workspace lines over time</text>
	<text class="poloto_text poloto_name poloto_x" x="400.00" y="640">date (JST)</text>
	<text class="poloto_text poloto_name poloto_y" x="37.50" y="250.00" transform="rotate(-90,37.50,250.00)">lines</text>
	<text class="poloto_text poloto_ticks poloto_y">
		<tspan x="135.00" y="400.00">0</tspan>
		<tspan x="135.00" y="326.60">50K</tspan>
		<tspan x="135.00" y="253.19">100K</tspan>
		<tspan x="135.00" y="179.79">150K</tspan>
		<tspan x="135.00" y="106.38">200K</tspan>
	</text>
	<g class="poloto_imgs poloto_ticks poloto_y" stroke="black">
		<line x1="150.00" x2="144.00" y1="400.00" y2="400.00"/>
		<line x1="150.00" x2="144.00" y1="326.60" y2="326.60"/>
		<line x1="150.00" x2="144.00" y1="253.19" y2="253.19"/>
		<line x1="150.00" x2="144.00" y1="179.79" y2="179.79"/>
		<line x1="150.00" x2="144.00" y1="106.38" y2="106.38"/>
	</g>
	<g class="poloto_text poloto_ticks poloto_x">
		<text x="214.66" y="430.00" text-anchor="end" transform="rotate(-90 214.66 430.00)">2026-04-24 12:06</text>
		<text x="314.19" y="430.00" text-anchor="end" transform="rotate(-90 314.19 430.00)">2026-04-30 07:00</text>
		<text x="413.73" y="430.00" text-anchor="end" transform="rotate(-90 413.73 430.00)">2026-05-06 01:53</text>
		<text x="513.26" y="430.00" text-anchor="end" transform="rotate(-90 513.26 430.00)">2026-05-11 20:46</text>
		<text x="612.79" y="430.00" text-anchor="end" transform="rotate(-90 612.79 430.00)">2026-05-17 15:40</text>
	</g>
	<g class="poloto_imgs poloto_ticks poloto_x" stroke="black">
		<line x1="214.66" x2="214.66" y1="400.00" y2="405.00"/>
		<line x1="314.19" x2="314.19" y1="400.00" y2="405.00"/>
		<line x1="413.73" x2="413.73" y1="400.00" y2="405.00"/>
		<line x1="513.26" x2="513.26" y1="400.00" y2="405.00"/>
		<line x1="612.79" x2="612.79" y1="400.00" y2="405.00"/>
	</g>
	<path class="poloto_imgs poloto_ticks poloto_x" stroke="black" style="stroke-dasharray:9.953251568035252;stroke-dashoffset:-64.66090068168705;" d=" M 150.00 400.00 L 650.00 400.00"/>
	<path class="poloto_imgs poloto_ticks poloto_y" stroke="black" style="stroke-dasharray:7.3404192847495455;stroke-dashoffset:-0;" d=" M 150.00 400.00 L 150.00 100.00"/>
</svg>

