<svg class="poloto" width="800" height="680" viewBox="0 0 800 680" xmlns="http://www.w3.org/2000/svg">
	<style>
.poloto{
  stroke-linecap:round;
  stroke-linejoin:round;
  font-family:Roboto,sans-serif;
  font-size:16px;
}
.poloto_background{fill:AliceBlue;}
.poloto_scatter{stroke-width:7}
.poloto_line{stroke-width:2}
.poloto_text{fill: black;}
.poloto_name{font-size:24px;dominant-baseline:auto;text-anchor:middle;}
.poloto_where{dominant-baseline:middle;text-anchor:start}
.poloto_text.poloto_legend{font-size:20px;dominant-baseline:middle;text-anchor:start;}
.poloto_text.poloto_ticks.poloto_y{dominant-baseline:middle;text-anchor:end}
.poloto_text.poloto_ticks.poloto_x{dominant-baseline:auto;text-anchor:middle}
.poloto_imgs.poloto_ticks{stroke: black;stroke-width:3;fill:none;stroke-dasharray:none}
.poloto_grid{stroke:gray;stroke-width:0.5}

.poloto0.poloto_stroke{stroke:blue;}
.poloto1.poloto_stroke{stroke:red;}
.poloto2.poloto_stroke{stroke:green;}
.poloto3.poloto_stroke{stroke:gold;}
.poloto4.poloto_stroke{stroke:aqua;}
.poloto5.poloto_stroke{stroke:lime;}
.poloto6.poloto_stroke{stroke:orange;}
.poloto7.poloto_stroke{stroke:chocolate;}
.poloto0.poloto_fill{fill:blue;}
.poloto1.poloto_fill{fill:red;}
.poloto2.poloto_fill{fill:green;}
.poloto3.poloto_fill{fill:gold;}
.poloto4.poloto_fill{fill:aqua;}
.poloto5.poloto_fill{fill:lime;}
.poloto6.poloto_fill{fill:orange;}
.poloto7.poloto_fill{fill:chocolate;}
	</style>
	<circle r="1e5" class="poloto_background" fill="white"/>
	<g id="poloto_plot0" class="poloto_plot poloto_imgs poloto_line poloto0 poloto_stroke" fill="none" stroke="black">
		<path d=" M 150.00 367.06 L 150.03 367.03 L 150.05 367.01 L 150.06 367.01 L 150.09 367.01 L 150.12 363.44 L 150.25 363.01 L 150.56 362.99 L 151.00 362.69 L 151.23 360.88 L 151.69 360.76 L 151.77 360.67 L 151.83 360.63 L 152.36 359.74 L 153.36 359.02 L 153.68 356.21 L 153.76 356.22 L 154.37 356.11 L 155.06 356.09 L 155.07 356.09 L 155.07 356.09 L 164.47 356.09 L 164.53 356.09 L 164.66 356.07 L 164.71 356.03 L 165.06 355.87 L 165.23 355.83 L 165.62 355.57 L 165.68 355.45 L 165.79 355.20 L 165.91 355.16 L 165.95 355.16 L 166.05 355.09 L 166.15 355.09 L 166.25 355.10 L 166.51 354.68 L 166.74 354.42 L 166.79 354.42 L 166.90 354.27 L 167.64 354.91 L 167.66 354.91 L 167.75 354.81 L 168.18 354.33 L 168.52 353.75 L 168.91 353.50 L 168.99 353.45 L 169.00 353.46 L 169.07 353.24 L 169.22 353.24 L 169.41 353.16 L 169.78 352.94 L 169.80 352.60 L 169.86 352.60 L 169.95 352.43 L 170.17 352.43 L 170.19 352.43 L 170.41 351.95 L 170.49 351.92 L 170.57 351.89 L 170.66 351.69 L 171.80 351.43 L 172.08 351.38 L 172.72 351.04 L 172.85 351.04 L 172.95 351.03 L 173.01 350.78 L 173.45 349.36 L 173.64 349.34 L 173.87 348.86 L 173.98 348.82 L 174.24 348.42 L 174.36 348.28 L 174.52 348.03 L 174.66 347.80 L 175.17 344.53 L 175.18 344.45 L 175.21 344.26 L 175.38 342.69 L 184.09 342.57 L 184.99 340.78 L 185.03 340.74 L 186.09 340.46 L 186.18 340.45 L 186.28 340.10 L 186.54 339.92 L 186.66 339.61 L 186.70 339.34 L 186.84 338.88 L 187.15 338.87 L 187.16 338.55 L 187.28 338.20 L 187.40 338.19 L 187.53 337.80 L 187.70 337.52 L 187.77 337.38 L 187.79 337.37 L 187.94 337.06 L 187.97 337.06 L 188.13 336.75 L 188.16 336.74 L 188.41 335.26 L 188.45 335.26 L 188.54 335.02 L 188.64 335.01 L 188.79 335.01 L 188.85 334.97 L 189.34 334.70 L 189.35 334.70 L 189.44 334.05 L 189.66 334.03 L 189.86 333.05 L 189.92 332.96 L 190.01 332.96 L 190.06 332.92 L 190.17 332.16 L 190.71 325.74 L 190.77 325.43 L 190.96 325.40 L 191.02 325.32 L 191.06 325.30 L 191.15 325.13 L 191.23 324.40 L 191.43 324.25 L 191.56 324.24 L 191.67 323.92 L 191.73 323.91 L 192.23 323.67 L 192.49 323.49 L 192.57 323.20 L 192.80 323.19 L 192.82 323.19 L 192.85 323.16 L 192.99 321.62 L 193.11 321.53 L 193.51 319.97 L 193.58 319.52 L 193.65 319.51 L 193.76 319.34 L 193.77 319.22 L 193.82 319.15 L 193.86 319.11 L 193.92 319.10 L 193.97 319.02 L 194.13 317.75 L 194.25 317.56 L 194.36 317.19 L 194.52 317.16 L 194.69 317.04 L 194.87 316.15 L 194.99 314.90 L 195.25 314.83 L 195.25 314.36 L 195.40 314.21 L 207.57 314.21 L 207.80 314.19 L 208.37 313.54 L 208.49 313.52 L 208.59 313.52 L 208.61 313.35 L 208.81 313.15 L 208.96 313.12 L 209.04 312.99 L 209.13 312.91 L 209.18 312.86 L 209.40 312.80 L 209.83 312.72 L 209.94 312.38 L 210.03 312.30 L 210.13 312.28 L 210.70 312.11 L 210.77 312.02 L 210.81 312.02 L 210.85 311.89 L 210.97 311.83 L 211.07 311.71 L 211.48 310.87 L 212.06 310.74 L 212.28 310.68 L 212.93 310.47 L 213.24 306.44 L 213.35 306.35 L 213.48 305.96 L 213.67 305.43 L 213.96 305.28 L 214.38 305.27 L 214.93 305.25 L 215.01 305.08 L 215.42 304.89 L 215.67 304.60 L 215.76 304.48 L 215.92 304.43 L 216.04 304.07 L 217.48 303.68 L 218.85 303.68 L 231.09 303.64 L 231.18 303.47 L 231.24 303.35 L 231.63 303.18 L 232.77 301.79 L 232.82 301.70 L 232.98 301.34 L 233.54 301.25 L 233.81 300.31 L 234.21 300.30 L 234.31 300.28 L 234.40 299.64 L 235.11 295.97 L 235.19 295.97 L 235.34 295.94 L 235.50 295.89 L 235.57 295.49 L 235.97 294.11 L 236.11 293.85 L 236.18 293.83 L 236.27 293.19 L 236.44 292.29 L 236.51 291.34 L 236.69 290.91 L 237.23 286.14 L 237.28 285.66 L 237.33 285.66 L 237.41 285.57 L 237.54 285.45 L 237.59 285.41 L 237.64 285.36 L 237.90 284.21 L 237.96 283.41 L 238.27 283.25 L 238.45 282.04 L 238.57 281.29 L 239.52 270.17 L 239.63 270.14 L 275.62 269.61 L 275.66 269.61 L 289.41 269.46 L 290.16 269.15 L 290.32 269.15 L 290.52 269.07 L 290.58 268.93 L 290.67 268.89 L 296.63 268.81 L 297.42 266.69 L 297.71 266.50 L 297.87 265.73 L 301.58 265.57 L 301.61 265.35 L 301.84 265.34 L 302.95 264.00 L 303.01 263.76 L 303.15 263.68 L 303.54 263.58 L 303.59 263.55 L 303.75 263.15 L 303.92 263.04 L 303.94 262.74 L 315.50 262.34 L 315.59 261.19 L 316.05 260.94 L 316.06 259.04 L 316.14 258.75 L 316.23 258.29 L 316.36 256.97 L 316.56 256.27 L 316.72 255.46 L 316.87 255.45 L 316.93 254.82 L 317.17 254.77 L 317.97 251.70 L 318.29 251.37 L 318.34 251.18 L 318.41 251.17 L 318.45 250.96 L 318.56 250.20 L 318.89 249.84 L 318.94 249.80 L 319.14 247.09 L 319.21 247.08 L 319.24 246.79 L 319.32 246.57 L 319.37 246.57 L 319.41 246.16 L 319.66 244.70 L 319.77 244.28 L 319.92 244.23 L 320.01 240.32 L 320.05 240.01 L 320.31 237.77 L 320.38 237.60 L 320.43 237.60 L 320.49 237.59 L 320.53 237.28 L 320.56 237.29 L 320.58 237.28 L 320.71 233.33 L 320.75 232.99 L 320.88 232.97 L 320.97 232.90 L 321.23 232.79 L 321.55 232.64 L 321.56 232.64 L 321.64 232.59 L 321.94 232.52 L 322.08 232.52 L 322.22 232.52 L 322.37 230.80 L 322.47 230.39 L 322.88 230.38 L 322.92 230.11 L 322.97 230.10 L 323.00 229.81 L 323.27 227.32 L 323.31 227.26 L 323.51 227.25 L 341.30 227.17 L 342.31 227.05 L 342.34 227.05 L 342.54 227.05 L 342.56 227.05 L 342.69 226.55 L 342.79 226.53 L 342.87 226.29 L 343.00 226.23 L 343.03 226.19 L 343.08 226.17 L 343.27 225.89 L 343.65 225.65 L 343.90 224.85 L 344.17 224.09 L 344.18 224.05 L 344.23 223.33 L 344.26 223.31 L 344.79 222.89 L 344.80 222.84 L 344.88 222.27 L 345.11 222.21 L 345.26 222.16 L 345.29 221.15 L 345.30 221.10 L 345.36 222.06 L 345.40 221.47 L 345.42 221.45 L 345.55 220.10 L 345.56 220.06 L 345.84 219.95 L 346.60 219.93 L 346.78 219.88 L 346.84 219.87 L 346.87 219.69 L 346.92 219.69 L 347.03 219.03 L 359.18 217.74 L 359.20 217.56 L 359.31 217.44 L 359.34 217.19 L 359.41 205.94 L 359.54 201.33 L 359.55 201.30 L 359.78 201.21 L 359.83 201.21 L 359.87 200.68 L 360.07 200.63 L 360.59 199.54 L 360.61 199.52 L 360.74 199.18 L 360.79 199.19 L 360.82 198.65 L 361.26 198.01 L 361.27 197.98 L 361.93 197.74 L 362.01 197.16 L 362.25 197.17 L 362.53 195.72 L 362.60 195.15 L 362.64 194.68 L 362.77 194.12 L 363.11 193.92 L 363.17 193.78 L 363.33 193.66 L 363.49 193.66 L 364.00 193.66 L 364.06 193.66 L 364.18 193.63 L 364.19 193.63 L 364.35 193.65 L 364.74 193.62 L 365.13 193.41 L 365.20 193.40 L 365.28 193.32 L 365.40 193.16 L 365.70 193.16 L 366.22 192.96 L 366.38 192.51 L 366.66 188.63 L 367.78 191.91 L 368.03 191.90 L 368.20 191.88 L 368.48 191.88 L 368.57 191.82 L 368.85 191.63 L 369.29 191.36 L 369.35 191.19 L 369.43 191.11 L 369.49 191.13 L 369.53 191.07 L 369.87 190.83 L 377.93 190.83 L 378.01 190.83 L 378.51 190.82 L 378.56 190.80 L 378.67 190.31 L 378.76 190.03 L 378.77 190.03 L 379.05 189.98 L 379.12 189.96 L 380.77 189.23 L 380.96 189.17 L 381.11 189.15 L 381.14 189.15 L 381.65 188.97 L 381.82 189.06 L 381.86 189.05 L 382.13 189.01 L 382.43 187.47 L 382.47 187.46 L 382.72 187.29 L 382.82 187.29 L 382.92 187.29 L 383.12 187.12 L 383.57 186.50 L 383.66 186.47 L 383.74 186.30 L 383.92 185.57 L 384.37 184.81 L 384.76 181.24 L 384.84 180.81 L 385.24 180.64 L 385.31 180.54 L 385.38 180.37 L 385.42 179.80 L 385.56 178.77 L 385.59 178.81 L 385.66 178.79 L 385.89 178.79 L 386.24 178.41 L 386.45 178.34 L 386.70 178.32 L 386.82 178.31 L 387.06 178.30 L 387.47 178.30 L 387.87 178.29 L 388.19 178.29 L 388.26 178.27 L 388.33 178.26 L 388.34 178.14 L 388.58 178.06 L 388.64 178.05 L 388.74 177.90 L 389.40 177.87 L 389.41 177.56 L 389.59 177.55 L 390.37 177.56 L 390.88 177.37 L 391.25 177.14 L 391.26 177.02 L 391.29 177.01 L 402.58 176.80 L 402.62 176.80 L 402.75 176.78 L 402.81 176.61 L 402.85 176.59 L 402.86 176.58 L 403.34 176.53 L 403.44 175.88 L 403.59 175.74 L 403.83 174.46 L 403.98 174.45 L 404.17 173.91 L 404.28 173.98 L 404.34 173.97 L 404.39 173.35 L 404.53 172.93 L 404.55 172.48 L 404.60 172.42 L 404.72 172.38 L 404.80 172.17 L 404.90 174.60 L 405.04 174.56 L 405.32 173.59 L 405.44 173.35 L 405.55 173.15 L 406.24 171.75 L 406.83 171.08 L 407.55 169.79 L 407.73 169.73 L 407.93 169.73 L 408.15 169.67 L 412.30 169.30 L 412.65 169.27 L 451.97 168.29 L 575.78 168.06 L 576.19 167.67 L 576.47 167.61 L 576.76 167.61 L 577.19 166.86 L 577.33 166.49 L 577.45 165.81 L 577.64 163.85 L 577.93 164.26 L 578.16 163.83 L 578.21 163.82 L 578.40 163.70 L 578.45 163.70 L 578.65 162.98 L 578.83 161.83 L 579.39 160.61 L 579.41 160.51 L 579.57 159.06 L 580.11 155.45 L 580.12 155.33 L 580.22 155.25 L 580.35 153.97 L 580.93 152.23 L 580.94 152.07 L 581.07 151.99 L 581.20 151.14 L 581.42 150.46 L 581.43 150.34 L 581.52 149.02 L 581.54 148.99 L 581.59 148.61 L 581.84 146.27 L 581.87 146.14 L 581.95 146.00 L 582.21 145.69 L 582.27 145.68 L 582.47 145.23 L 582.82 145.28 L 582.87 145.22 L 582.91 145.19 L 582.97 145.16 L 583.15 143.78 L 583.33 142.66 L 583.36 142.56 L 583.46 141.15 L 583.56 139.78 L 583.59 139.61 L 583.70 138.01 L 583.75 136.74 L 583.96 135.89 L 583.99 135.83 L 584.10 135.57 L 584.25 135.55 L 585.13 135.51 L 585.58 135.47 L 595.25 135.53 L 595.35 135.28 L 595.44 135.07 L 595.61 134.12 L 595.97 133.88 L 596.00 133.79 L 596.07 132.54 L 596.30 131.33 L 596.32 131.22 L 598.43 131.14 L 598.56 130.46 L 599.63 130.26 L 599.74 130.21 L 599.87 128.80 L 601.15 127.48 L 601.70 126.98 L 601.83 125.94 L 602.29 124.18 L 602.58 123.67 L 603.06 122.63 L 603.91 122.10 L 616.85 122.09 L 617.63 121.97 L 617.66 121.99 L 618.74 121.78 L 618.80 121.68 L 619.18 121.60 L 619.62 120.45 L 619.62 120.45 L 619.67 120.40 L 620.24 119.09 L 621.57 118.34 L 621.66 118.27 L 621.80 118.26 L 622.00 117.91 L 622.06 117.82 L 622.13 117.75 L 622.75 117.70 L 623.25 117.70 L 623.52 117.70 L 623.55 117.65 L 624.11 116.50 L 624.53 116.28 L 624.55 116.20 L 624.60 116.10 L 624.66 115.79 L 638.71 115.35 L 638.74 115.33 L 638.78 115.31 L 639.05 115.18 L 639.26 115.04 L 640.50 113.27 L 640.81 113.06 L 641.70 112.53 L 642.47 112.40 L 643.03 112.23 L 643.19 110.60 L 643.91 108.68 L 644.17 108.55 L 644.26 107.31 L 646.34 105.04 L 646.36 105.04 L 646.47 104.49 L 646.87 104.43 L 646.87 104.43 L 646.90 104.29 L 646.97 104.11 L 647.15 103.94 L 647.37 102.98 L 649.53 100.69 L 649.81 100.41 L 650.00 100.00"/>
	</g>
	<g id="poloto_plot1" class="poloto_plot poloto_imgs poloto_line poloto1 poloto_stroke" fill="none" stroke="black">
		<path d=" M 150.00 380.42 L 150.03 380.41 L 150.05 380.39 L 150.06 380.39 L 150.09 380.39 L 150.12 379.78 L 150.25 379.75 L 150.56 379.74 L 151.00 379.51 L 151.23 379.41 L 151.69 379.43 L 151.77 379.39 L 151.83 379.39 L 152.36 379.34 L 153.36 379.22 L 153.68 376.80 L 153.76 376.80 L 154.37 376.75 L 155.06 376.74 L 155.07 376.74 L 155.07 376.74 L 164.47 376.74 L 164.53 376.74 L 164.66 376.73 L 164.71 376.70 L 165.06 376.69 L 165.23 376.69 L 165.62 376.69 L 165.68 376.69 L 165.79 376.67 L 165.91 376.67 L 165.95 376.67 L 166.05 376.64 L 166.15 376.64 L 166.25 376.64 L 166.51 376.51 L 166.74 376.51 L 166.79 376.51 L 166.90 376.51 L 167.64 377.42 L 167.66 377.42 L 167.75 377.40 L 168.18 377.27 L 168.52 377.12 L 168.91 377.05 L 168.99 377.00 L 169.00 377.00 L 169.07 377.00 L 169.22 377.00 L 169.41 376.94 L 169.78 376.89 L 169.80 376.89 L 169.86 376.89 L 169.95 376.87 L 170.17 376.87 L 170.19 376.87 L 170.41 376.86 L 170.49 376.86 L 170.57 376.86 L 170.66 376.86 L 171.80 376.75 L 172.08 376.74 L 172.72 376.69 L 172.85 376.69 L 172.95 376.69 L 173.01 376.69 L 173.45 376.62 L 173.64 376.62 L 173.87 376.53 L 173.98 376.52 L 174.24 376.33 L 174.36 376.25 L 174.52 376.25 L 174.66 376.25 L 175.17 373.42 L 175.18 373.38 L 175.21 373.38 L 175.38 373.10 L 184.09 373.10 L 184.99 371.88 L 185.03 371.88 L 186.09 371.88 L 186.18 371.88 L 186.28 371.75 L 186.54 371.73 L 186.66 371.73 L 186.70 371.73 L 186.84 371.73 L 187.15 371.73 L 187.16 371.47 L 187.28 371.46 L 187.40 371.46 L 187.53 371.43 L 187.70 371.42 L 187.77 371.42 L 187.79 371.42 L 187.94 371.42 L 187.97 371.42 L 188.13 371.42 L 188.16 371.42 L 188.41 370.22 L 188.45 370.22 L 188.54 370.08 L 188.64 370.08 L 188.79 370.08 L 188.85 370.06 L 189.34 370.06 L 189.35 370.06 L 189.44 369.99 L 189.66 369.99 L 189.86 369.30 L 189.92 369.21 L 190.01 369.21 L 190.06 369.21 L 190.17 369.19 L 190.71 364.14 L 190.77 364.18 L 190.96 364.18 L 191.02 364.18 L 191.06 364.17 L 191.15 364.17 L 191.23 364.11 L 191.43 364.11 L 191.56 364.11 L 191.67 364.10 L 191.73 364.10 L 192.23 364.09 L 192.49 364.08 L 192.57 363.96 L 192.80 363.96 L 192.82 363.96 L 192.85 363.96 L 192.99 363.62 L 193.11 363.53 L 193.51 362.33 L 193.58 362.33 L 193.65 362.33 L 193.76 362.35 L 193.77 362.35 L 193.82 362.35 L 193.86 362.35 L 193.92 362.35 L 193.97 362.35 L 194.13 362.32 L 194.25 362.32 L 194.36 362.31 L 194.52 362.31 L 194.69 362.30 L 194.87 361.85 L 194.99 361.70 L 195.25 361.70 L 195.25 361.70 L 195.40 361.70 L 207.57 361.70 L 207.80 361.69 L 208.37 361.61 L 208.49 361.60 L 208.59 361.60 L 208.61 361.60 L 208.81 361.60 L 208.96 361.60 L 209.04 361.60 L 209.13 361.60 L 209.18 361.60 L 209.40 361.60 L 209.83 361.62 L 209.94 361.62 L 210.03 361.62 L 210.13 361.62 L 210.70 361.52 L 210.77 361.48 L 210.81 361.48 L 210.85 361.41 L 210.97 361.41 L 211.07 361.41 L 211.48 360.95 L 212.06 360.95 L 212.28 360.95 L 212.93 360.95 L 213.24 357.85 L 213.35 357.85 L 213.48 357.85 L 213.67 357.84 L 213.96 357.84 L 214.38 357.84 L 214.93 357.84 L 215.01 357.84 L 215.42 357.77 L 215.67 357.64 L 215.76 357.64 L 215.92 357.64 L 216.04 357.62 L 217.48 357.43 L 218.85 357.43 L 231.09 357.43 L 231.18 357.43 L 231.24 357.43 L 231.63 357.43 L 232.77 356.45 L 232.82 356.42 L 232.98 356.32 L 233.54 356.31 L 233.81 356.08 L 234.21 356.08 L 234.31 356.08 L 234.40 356.08 L 235.11 353.37 L 235.19 353.37 L 235.34 353.37 L 235.50 353.37 L 235.57 353.19 L 235.97 352.86 L 236.11 352.86 L 236.18 352.86 L 236.27 352.37 L 236.44 351.86 L 236.51 351.86 L 236.69 351.85 L 237.23 347.81 L 237.28 347.81 L 237.33 347.81 L 237.41 347.81 L 237.54 347.81 L 237.59 347.81 L 237.64 347.81 L 237.90 347.81 L 237.96 347.72 L 238.27 347.70 L 238.45 347.65 L 238.57 347.16 L 239.52 339.11 L 239.63 339.11 L 275.62 339.11 L 275.66 339.11 L 289.41 339.11 L 290.16 338.98 L 290.32 338.98 L 290.52 338.98 L 290.58 338.98 L 290.67 338.98 L 296.63 338.92 L 297.42 338.85 L 297.71 338.85 L 297.87 338.82 L 301.58 338.75 L 301.61 338.64 L 301.84 338.64 L 302.95 337.55 L 303.01 337.55 L 303.15 337.55 L 303.54 337.55 L 303.59 337.55 L 303.75 337.55 L 303.92 337.55 L 303.94 337.55 L 315.50 337.53 L 315.59 337.34 L 316.05 337.34 L 316.06 336.03 L 316.14 336.03 L 316.23 336.03 L 316.36 335.90 L 316.56 335.90 L 316.72 335.85 L 316.87 335.85 L 316.93 335.85 L 317.17 335.83 L 317.97 333.60 L 318.29 333.59 L 318.34 333.58 L 318.41 333.58 L 318.45 333.58 L 318.56 333.55 L 318.89 333.27 L 318.94 333.23 L 319.14 331.22 L 319.21 331.22 L 319.24 331.22 L 319.32 331.19 L 319.37 331.19 L 319.41 331.18 L 319.66 330.09 L 319.77 330.08 L 319.92 330.05 L 320.01 326.65 L 320.05 326.65 L 320.31 324.74 L 320.38 324.74 L 320.43 324.74 L 320.49 324.74 L 320.53 324.74 L 320.56 324.74 L 320.58 324.74 L 320.71 321.20 L 320.75 321.20 L 320.88 321.18 L 320.97 321.18 L 321.23 321.11 L 321.55 321.02 L 321.56 321.02 L 321.64 320.99 L 321.94 320.94 L 322.08 320.94 L 322.22 320.94 L 322.37 319.41 L 322.47 319.41 L 322.88 319.41 L 322.92 319.40 L 322.97 319.40 L 323.00 319.40 L 323.27 317.22 L 323.31 317.22 L 323.51 317.21 L 341.30 317.21 L 342.31 317.19 L 342.34 317.19 L 342.54 317.19 L 342.56 317.19 L 342.69 317.19 L 342.79 317.19 L 342.87 317.08 L 343.00 317.08 L 343.03 317.08 L 343.08 317.08 L 343.27 316.89 L 343.65 316.76 L 343.90 316.63 L 344.17 316.02 L 344.18 316.02 L 344.23 315.86 L 344.26 315.84 L 344.79 315.47 L 344.80 315.47 L 344.88 315.41 L 345.11 315.41 L 345.26 315.38 L 345.29 314.47 L 345.30 314.47 L 345.36 315.37 L 345.40 315.32 L 345.42 315.30 L 345.55 314.09 L 345.56 314.09 L 345.84 314.04 L 346.60 314.04 L 346.78 314.04 L 346.84 314.04 L 346.87 314.04 L 346.92 314.04 L 347.03 313.96 L 359.18 312.96 L 359.20 312.96 L 359.31 312.95 L 359.34 312.73 L 359.41 301.98 L 359.54 297.99 L 359.55 297.99 L 359.78 297.91 L 359.83 297.91 L 359.87 297.89 L 360.07 297.89 L 360.59 296.92 L 360.61 296.92 L 360.74 296.87 L 360.79 296.87 L 360.82 296.78 L 361.26 296.20 L 361.27 296.20 L 361.93 296.08 L 362.01 296.04 L 362.25 296.05 L 362.53 294.73 L 362.60 294.60 L 362.64 294.47 L 362.77 293.98 L 363.11 293.86 L 363.17 293.75 L 363.33 293.75 L 363.49 293.75 L 364.00 293.75 L 364.06 293.75 L 364.18 293.75 L 364.19 293.75 L 364.35 293.76 L 364.74 293.76 L 365.13 293.63 L 365.20 293.63 L 365.28 293.61 L 365.40 293.61 L 365.70 293.61 L 366.22 293.61 L 366.38 293.49 L 366.66 290.02 L 367.78 293.30 L 368.03 293.28 L 368.20 293.27 L 368.48 293.27 L 368.57 293.23 L 368.85 293.21 L 369.29 293.01 L 369.35 293.01 L 369.43 293.01 L 369.49 293.01 L 369.53 293.01 L 369.87 292.82 L 377.93 292.82 L 378.01 292.83 L 378.51 292.81 L 378.56 292.81 L 378.67 292.78 L 378.76 292.54 L 378.77 292.54 L 379.05 292.51 L 379.12 292.51 L 380.77 292.31 L 380.96 292.31 L 381.11 292.31 L 381.14 292.31 L 381.65 292.17 L 381.82 292.17 L 381.86 292.17 L 382.13 292.16 L 382.43 291.34 L 382.47 291.34 L 382.72 291.20 L 382.82 291.20 L 382.92 291.20 L 383.12 291.20 L 383.57 291.19 L 383.66 291.17 L 383.74 291.09 L 383.92 290.95 L 384.37 290.83 L 384.76 287.56 L 384.84 287.45 L 385.24 287.29 L 385.31 287.25 L 385.38 287.13 L 385.42 286.91 L 385.56 285.93 L 385.59 285.97 L 385.66 285.95 L 385.89 285.94 L 386.24 285.81 L 386.45 285.76 L 386.70 285.74 L 386.82 285.73 L 387.06 285.72 L 387.47 285.72 L 387.87 285.71 L 388.19 285.71 L 388.26 285.70 L 388.33 285.70 L 388.34 285.69 L 388.58 285.69 L 388.64 285.68 L 388.74 285.56 L 389.40 285.54 L 389.41 285.54 L 389.59 285.53 L 390.37 285.53 L 390.88 285.37 L 391.25 285.23 L 391.26 285.23 L 391.29 285.22 L 402.58 285.22 L 402.62 285.22 L 402.75 285.22 L 402.81 285.22 L 402.85 285.20 L 402.86 285.20 L 403.34 285.20 L 403.44 285.19 L 403.59 285.17 L 403.83 285.15 L 403.98 285.15 L 404.17 285.07 L 404.28 285.07 L 404.34 285.07 L 404.39 285.07 L 404.53 284.77 L 404.55 284.77 L 404.60 284.77 L 404.72 284.77 L 404.80 284.77 L 404.90 284.84 L 405.04 284.84 L 405.32 284.83 L 405.44 284.83 L 405.55 284.83 L 406.24 283.87 L 406.83 283.61 L 407.55 282.92 L 407.73 282.92 L 407.93 282.92 L 408.15 282.92 L 412.30 282.84 L 412.65 282.83 L 451.97 282.71 L 575.78 282.53 L 576.19 282.48 L 576.47 282.47 L 576.76 282.47 L 577.19 282.03 L 577.33 282.03 L 577.45 282.03 L 577.64 280.41 L 577.93 280.72 L 578.16 280.70 L 578.21 280.70 L 578.40 280.69 L 578.45 280.69 L 578.65 280.68 L 578.83 280.61 L 579.39 279.59 L 579.41 279.59 L 579.57 279.50 L 580.11 276.20 L 580.12 276.20 L 580.22 276.20 L 580.35 276.14 L 580.93 274.61 L 580.94 274.61 L 581.07 274.61 L 581.20 274.57 L 581.42 274.01 L 581.43 274.01 L 581.52 274.00 L 581.54 274.00 L 581.59 273.69 L 581.84 271.51 L 581.87 271.51 L 581.95 271.51 L 582.21 271.33 L 582.27 271.33 L 582.47 270.97 L 582.82 270.97 L 582.87 270.97 L 582.91 270.97 L 582.97 270.97 L 583.15 270.96 L 583.33 269.97 L 583.36 269.97 L 583.46 269.97 L 583.56 269.22 L 583.59 269.22 L 583.70 268.43 L 583.75 268.39 L 583.96 267.61 L 583.99 267.61 L 584.10 267.61 L 584.25 267.59 L 585.13 267.59 L 585.58 267.58 L 595.25 267.58 L 595.35 267.58 L 595.44 267.58 L 595.61 267.58 L 595.97 267.38 L 596.00 267.38 L 596.07 267.31 L 596.30 266.22 L 596.32 266.22 L 598.43 266.24 L 598.56 266.03 L 599.63 266.03 L 599.74 266.02 L 599.87 265.94 L 601.15 265.05 L 601.70 264.88 L 601.83 264.81 L 602.29 263.11 L 602.58 263.11 L 603.06 262.97 L 603.91 262.97 L 616.85 262.96 L 617.63 262.86 L 617.66 262.88 L 618.74 262.88 L 618.80 262.88 L 619.18 262.88 L 619.62 262.85 L 619.62 262.85 L 619.67 262.85 L 620.24 261.85 L 621.57 261.83 L 621.66 261.82 L 621.80 261.82 L 622.00 261.78 L 622.06 261.75 L 622.13 261.75 L 622.75 261.70 L 623.25 261.70 L 623.52 261.70 L 623.55 261.70 L 624.11 261.68 L 624.53 261.57 L 624.55 261.57 L 624.60 261.57 L 624.66 261.57 L 638.71 261.33 L 638.74 261.33 L 638.78 261.33 L 639.05 261.33 L 639.26 261.33 L 640.50 260.35 L 640.81 260.29 L 641.70 260.21 L 642.47 260.16 L 643.03 260.16 L 643.19 260.16 L 643.91 258.68 L 644.17 258.63 L 644.26 258.58 L 646.34 257.54 L 646.36 257.54 L 646.47 257.53 L 646.87 257.51 L 646.87 257.51 L 646.90 257.51 L 646.97 257.48 L 647.15 257.44 L 647.37 257.32 L 649.53 255.60 L 649.81 255.52 L 650.00 255.52"/>
	</g>
	<g id="poloto_plot2" class="poloto_plot poloto_imgs poloto_line poloto2 poloto_stroke" fill="none" stroke="black">
		<path d=" M 150.00 391.22 L 150.03 391.21 L 150.05 391.21 L 150.06 391.21 L 150.09 391.21 L 150.12 388.96 L 150.25 388.65 L 150.56 388.65 L 151.00 388.63 L 151.23 387.29 L 151.69 387.17 L 151.77 387.13 L 151.83 387.10 L 152.36 386.49 L 153.36 386.02 L 153.68 385.93 L 153.76 385.94 L 154.37 385.90 L 155.06 385.90 L 155.07 385.90 L 155.07 385.90 L 164.47 385.90 L 164.53 385.90 L 164.66 385.88 L 164.71 385.88 L 165.06 385.74 L 165.23 385.70 L 165.62 385.48 L 165.68 385.39 L 165.79 385.19 L 165.91 385.16 L 165.95 385.16 L 166.05 385.12 L 166.15 385.12 L 166.25 385.13 L 166.51 384.90 L 166.74 384.69 L 166.79 384.69 L 166.90 384.57 L 167.64 384.30 L 167.66 384.30 L 167.75 384.22 L 168.18 383.92 L 168.52 383.55 L 168.91 383.40 L 168.99 383.40 L 169.00 383.41 L 169.07 383.20 L 169.22 383.20 L 169.41 383.17 L 169.78 383.02 L 169.80 382.76 L 169.86 382.76 L 169.95 382.63 L 170.17 382.63 L 170.19 382.63 L 170.41 382.24 L 170.49 382.21 L 170.57 382.18 L 170.66 381.99 L 171.80 381.89 L 172.08 381.85 L 172.72 381.58 L 172.85 381.58 L 172.95 381.56 L 173.01 381.36 L 173.45 380.26 L 173.64 380.24 L 173.87 379.91 L 173.98 379.88 L 174.24 379.73 L 174.36 379.68 L 174.52 379.44 L 174.66 379.25 L 175.17 379.25 L 175.18 379.22 L 175.21 379.07 L 175.38 378.00 L 184.09 377.89 L 184.99 377.57 L 185.03 377.53 L 186.09 377.27 L 186.18 377.26 L 186.28 377.07 L 186.54 376.94 L 186.66 376.69 L 186.70 376.49 L 186.84 376.10 L 187.15 376.09 L 187.16 376.09 L 187.28 375.81 L 187.40 375.81 L 187.53 375.52 L 187.70 375.29 L 187.77 375.17 L 187.79 375.16 L 187.94 374.90 L 187.97 374.89 L 188.13 374.65 L 188.16 374.64 L 188.41 374.55 L 188.45 374.55 L 188.54 374.46 L 188.64 374.45 L 188.79 374.45 L 188.85 374.43 L 189.34 374.19 L 189.35 374.20 L 189.44 373.72 L 189.66 373.70 L 189.86 373.56 L 189.92 373.56 L 190.01 373.55 L 190.06 373.51 L 190.17 372.86 L 190.71 372.30 L 190.77 372.00 L 190.96 371.98 L 191.02 371.90 L 191.06 371.89 L 191.15 371.75 L 191.23 371.23 L 191.43 371.15 L 191.56 371.13 L 191.67 370.87 L 191.73 370.87 L 192.23 370.67 L 192.49 370.53 L 192.57 370.41 L 192.80 370.40 L 192.82 370.40 L 192.85 370.38 L 192.99 369.44 L 193.11 369.43 L 193.51 369.30 L 193.58 368.92 L 193.65 368.92 L 193.76 368.76 L 193.77 368.67 L 193.82 368.61 L 193.86 368.57 L 193.92 368.57 L 193.97 368.49 L 194.13 367.44 L 194.25 367.33 L 194.36 367.01 L 194.52 366.99 L 194.69 366.89 L 194.87 366.56 L 194.99 365.64 L 195.25 365.57 L 195.25 365.18 L 195.40 365.08 L 207.57 365.09 L 207.80 365.09 L 208.37 364.65 L 208.49 364.65 L 208.59 364.65 L 208.61 364.54 L 208.81 364.35 L 208.96 364.32 L 209.04 364.21 L 209.13 364.13 L 209.18 364.09 L 209.40 364.03 L 209.83 364.12 L 209.94 363.83 L 210.03 363.75 L 210.13 363.74 L 210.70 363.69 L 210.77 363.64 L 210.81 363.64 L 210.85 363.58 L 210.97 363.53 L 211.07 363.42 L 211.48 363.15 L 212.06 363.04 L 212.28 362.98 L 212.93 362.81 L 213.24 362.38 L 213.35 362.31 L 213.48 361.98 L 213.67 361.55 L 213.96 361.43 L 214.38 361.42 L 214.93 361.40 L 215.01 361.25 L 215.42 361.14 L 215.67 361.00 L 215.76 360.89 L 215.92 360.85 L 216.04 360.57 L 217.48 360.42 L 218.85 360.42 L 231.09 360.39 L 231.18 360.24 L 231.24 360.13 L 231.63 359.97 L 232.77 359.69 L 232.82 359.64 L 232.98 359.44 L 233.54 359.36 L 233.81 358.81 L 234.21 358.79 L 234.31 358.77 L 234.40 358.23 L 235.11 357.72 L 235.19 357.71 L 235.34 357.68 L 235.50 357.63 L 235.57 357.45 L 235.97 356.60 L 236.11 356.38 L 236.18 356.36 L 236.27 356.27 L 236.44 355.94 L 236.51 355.09 L 236.69 354.74 L 237.23 354.54 L 237.28 354.11 L 237.33 354.11 L 237.41 354.03 L 237.54 353.92 L 237.59 353.88 L 237.64 353.84 L 237.90 352.85 L 237.96 352.26 L 238.27 352.15 L 238.45 351.16 L 238.57 350.97 L 239.52 349.41 L 239.63 349.39 L 275.62 348.93 L 275.66 348.93 L 289.41 348.80 L 290.16 348.64 L 290.32 348.64 L 290.52 348.56 L 290.58 348.43 L 290.67 348.40 L 296.63 348.39 L 297.42 346.60 L 297.71 346.44 L 297.87 345.82 L 301.58 345.75 L 301.61 345.69 L 301.84 345.68 L 302.95 345.57 L 303.01 345.36 L 303.15 345.29 L 303.54 345.20 L 303.59 345.17 L 303.75 344.83 L 303.92 344.72 L 303.94 344.46 L 315.50 344.12 L 315.59 343.31 L 316.05 343.09 L 316.06 342.78 L 316.14 342.54 L 316.23 342.17 L 316.36 341.18 L 316.56 340.64 L 316.72 339.94 L 316.87 339.94 L 316.93 339.40 L 317.17 339.36 L 317.97 338.86 L 318.29 338.62 L 318.34 338.47 L 318.41 338.47 L 318.45 338.29 L 318.56 337.68 L 318.89 337.62 L 318.94 337.62 L 319.14 337.22 L 319.21 337.22 L 319.24 336.99 L 319.32 336.85 L 319.37 336.84 L 319.41 336.53 L 319.66 336.34 L 319.77 336.02 L 319.92 336.01 L 320.01 335.84 L 320.05 335.60 L 320.31 335.47 L 320.38 335.33 L 320.43 335.33 L 320.49 335.32 L 320.53 335.07 L 320.56 335.08 L 320.58 335.08 L 320.71 334.99 L 320.75 334.72 L 320.88 334.72 L 320.97 334.65 L 321.23 334.63 L 321.55 334.60 L 321.56 334.60 L 321.64 334.59 L 321.94 334.58 L 322.08 334.58 L 322.22 334.58 L 322.37 334.54 L 322.47 334.21 L 322.88 334.21 L 322.92 334.02 L 322.97 334.01 L 323.00 333.79 L 323.27 333.72 L 323.31 333.67 L 323.51 333.67 L 341.30 333.61 L 342.31 333.51 L 342.34 333.51 L 342.54 333.51 L 342.56 333.51 L 342.69 333.13 L 342.79 333.12 L 342.87 333.01 L 343.00 332.95 L 343.03 332.92 L 343.08 332.90 L 343.27 332.86 L 343.65 332.78 L 343.90 332.27 L 344.17 332.24 L 344.18 332.20 L 344.23 331.77 L 344.26 331.77 L 344.79 331.77 L 344.80 331.72 L 344.88 331.33 L 345.11 331.27 L 345.26 331.26 L 345.29 331.25 L 345.30 331.21 L 345.36 331.18 L 345.40 330.77 L 345.42 330.76 L 345.55 330.76 L 345.56 330.72 L 345.84 330.68 L 346.60 330.67 L 346.78 330.63 L 346.84 330.62 L 346.87 330.49 L 346.92 330.49 L 347.03 330.03 L 359.18 329.89 L 359.20 329.75 L 359.31 329.66 L 359.34 329.65 L 359.41 329.25 L 359.54 329.16 L 359.55 329.13 L 359.78 329.13 L 359.83 329.13 L 359.87 328.74 L 360.07 328.69 L 360.59 328.68 L 360.61 328.66 L 360.74 328.44 L 360.79 328.45 L 360.82 328.09 L 361.26 328.09 L 361.27 328.07 L 361.93 327.98 L 362.01 327.55 L 362.25 327.55 L 362.53 327.54 L 362.60 327.22 L 362.64 326.98 L 362.77 326.97 L 363.11 326.92 L 363.17 326.90 L 363.33 326.80 L 363.49 326.80 L 364.00 326.80 L 364.06 326.80 L 364.18 326.77 L 364.19 326.77 L 364.35 326.77 L 364.74 326.74 L 365.13 326.70 L 365.20 326.70 L 365.28 326.65 L 365.40 326.54 L 365.70 326.54 L 366.22 326.40 L 366.38 326.16 L 366.66 326.13 L 367.78 325.86 L 368.03 325.86 L 368.20 325.86 L 368.48 325.85 L 368.57 325.83 L 368.85 325.70 L 369.29 325.68 L 369.35 325.56 L 369.43 325.51 L 369.49 325.52 L 369.53 325.48 L 369.87 325.46 L 377.93 325.45 L 378.01 325.45 L 378.51 325.45 L 378.56 325.44 L 378.67 325.08 L 378.76 325.06 L 378.77 325.06 L 379.05 325.05 L 379.12 325.03 L 380.77 324.50 L 380.96 324.45 L 381.11 324.43 L 381.14 324.43 L 381.65 324.42 L 381.82 324.49 L 381.86 324.49 L 382.13 324.45 L 382.43 323.95 L 382.47 323.94 L 382.72 323.92 L 382.82 323.92 L 382.92 323.92 L 383.12 323.82 L 383.57 323.36 L 383.66 323.36 L 383.74 323.29 L 383.92 322.88 L 384.37 322.42 L 384.76 322.45 L 384.84 322.20 L 385.24 322.20 L 385.31 322.17 L 385.38 322.15 L 385.42 321.91 L 385.56 321.90 L 385.59 321.90 L 385.66 321.90 L 385.89 321.90 L 386.24 321.70 L 386.45 321.68 L 386.70 321.68 L 386.82 321.68 L 387.06 321.68 L 387.47 321.68 L 387.87 321.68 L 388.19 321.68 L 388.26 321.68 L 388.33 321.67 L 388.34 321.58 L 388.58 321.52 L 388.64 321.52 L 388.74 321.51 L 389.40 321.51 L 389.41 321.27 L 389.59 321.27 L 390.37 321.27 L 390.88 321.27 L 391.25 321.22 L 391.26 321.12 L 391.29 321.12 L 402.58 320.96 L 402.62 320.95 L 402.75 320.94 L 402.81 320.80 L 402.85 320.80 L 402.86 320.79 L 403.34 320.74 L 403.44 320.26 L 403.59 320.15 L 403.83 319.20 L 403.98 319.19 L 404.17 318.79 L 404.28 318.83 L 404.34 318.83 L 404.39 318.31 L 404.53 318.22 L 404.55 317.86 L 404.60 317.81 L 404.72 317.77 L 404.80 317.59 L 404.90 319.73 L 405.04 319.70 L 405.32 318.84 L 405.44 318.65 L 405.55 318.46 L 406.24 318.12 L 406.83 317.76 L 407.55 317.26 L 407.73 317.20 L 407.93 317.20 L 408.15 317.16 L 412.30 316.90 L 412.65 316.88 L 451.97 316.21 L 575.78 316.19 L 576.19 315.89 L 576.47 315.84 L 576.76 315.84 L 577.19 315.57 L 577.33 315.25 L 577.45 314.66 L 577.64 314.51 L 577.93 314.56 L 578.16 314.22 L 578.21 314.21 L 578.40 314.11 L 578.45 314.11 L 578.65 313.54 L 578.83 312.66 L 579.39 312.58 L 579.41 312.48 L 579.57 311.35 L 580.11 311.31 L 580.12 311.20 L 580.22 311.14 L 580.35 310.11 L 580.93 310.06 L 580.94 309.91 L 581.07 309.84 L 581.20 309.17 L 581.42 309.15 L 581.43 309.04 L 581.52 307.92 L 581.54 307.89 L 581.59 307.86 L 581.84 307.86 L 581.87 307.74 L 581.95 307.66 L 582.21 307.55 L 582.27 307.55 L 582.47 307.49 L 582.82 307.53 L 582.87 307.48 L 582.91 307.46 L 582.97 307.42 L 583.15 306.26 L 583.33 306.24 L 583.36 306.14 L 583.46 304.95 L 583.56 304.52 L 583.59 304.36 L 583.70 303.78 L 583.75 302.77 L 583.96 302.76 L 583.99 302.70 L 584.10 302.50 L 584.25 302.49 L 585.13 302.46 L 585.58 302.43 L 595.25 302.48 L 595.35 302.25 L 595.44 302.08 L 595.61 301.28 L 595.97 301.27 L 596.00 301.19 L 596.07 300.17 L 596.30 300.16 L 596.32 300.07 L 598.43 299.96 L 598.56 299.60 L 599.63 299.42 L 599.74 299.38 L 599.87 298.25 L 601.15 297.93 L 601.70 297.66 L 601.83 296.82 L 602.29 296.81 L 602.58 296.34 L 603.06 295.61 L 603.91 295.17 L 616.85 295.17 L 617.63 295.16 L 617.66 295.16 L 618.74 295.00 L 618.80 294.90 L 619.18 294.84 L 619.62 293.89 L 619.62 293.89 L 619.67 293.85 L 620.24 293.65 L 621.57 293.02 L 621.66 292.96 L 621.80 292.95 L 622.00 292.68 L 622.06 292.64 L 622.13 292.59 L 622.75 292.59 L 623.25 292.59 L 623.52 292.59 L 623.55 292.55 L 624.11 291.59 L 624.53 291.50 L 624.55 291.43 L 624.60 291.34 L 624.66 291.10 L 638.71 290.92 L 638.74 290.90 L 638.78 290.88 L 639.05 290.76 L 639.26 290.64 L 640.50 290.10 L 640.81 289.99 L 641.70 289.58 L 642.47 289.51 L 643.03 289.35 L 643.19 287.93 L 643.91 287.69 L 644.17 287.62 L 644.26 286.60 L 646.34 285.62 L 646.36 285.62 L 646.47 285.17 L 646.87 285.12 L 646.87 285.12 L 646.90 285.01 L 646.97 284.89 L 647.15 284.78 L 647.37 284.09 L 649.53 283.72 L 649.81 283.56 L 650.00 283.18"/>
	</g>
	<g class="poloto_legend poloto_imgs poloto_line poloto0 poloto_stroke"><line x1="680" x2="730" y1="81.25" y2="81.25"/></g>
	<g class="poloto_legend poloto_imgs poloto_line poloto1 poloto_stroke"><line x1="680" x2="730" y1="131.25" y2="131.25"/></g>
	<g class="poloto_legend poloto_imgs poloto_line poloto2 poloto_stroke"><line x1="680" x2="730" y1="181.25" y2="181.25"/></g>
	<text class="poloto_legend poloto_text poloto_line poloto0" x="675" y="100">total</text>
	<text class="poloto_legend poloto_text poloto_line poloto1" x="675" y="150">code</text>
	<text class="poloto_legend poloto_text poloto_line poloto2" x="675" y="200">docs</text>
	<text class="poloto_text poloto_name poloto_title" x="400.00" y="37.50">Workspace lines over time</text>
	<text class="poloto_text poloto_name poloto_x" x="400.00" y="640">date (JST)</text>
	<text class="poloto_text poloto_name poloto_y" x="37.50" y="250.00" transform="rotate(-90,37.50,250.00)">lines</text>
	<text class="poloto_text poloto_ticks poloto_y">
		<tspan x="135.00" y="400.00">0</tspan>
		<tspan x="135.00" y="316.50">50K</tspan>
		<tspan x="135.00" y="233.00">100K</tspan>
		<tspan x="135.00" y="149.50">150K</tspan>
	</text>
	<g class="poloto_imgs poloto_ticks poloto_y" stroke="black">
		<line x1="150.00" x2="144.00" y1="400.00" y2="400.00"/>
		<line x1="150.00" x2="144.00" y1="316.50" y2="316.50"/>
		<line x1="150.00" x2="144.00" y1="233.00" y2="233.00"/>
		<line x1="150.00" x2="144.00" y1="149.50" y2="149.50"/>
	</g>
	<g class="poloto_text poloto_ticks poloto_x">
		<text x="230.94" y="430.00" text-anchor="end" transform="rotate(-90 230.94 430.00)">2026-04-24 12:06</text>
		<text x="355.53" y="430.00" text-anchor="end" transform="rotate(-90 355.53 430.00)">2026-04-30 07:00</text>
		<text x="480.11" y="430.00" text-anchor="end" transform="rotate(-90 480.11 430.00)">2026-05-06 01:53</text>
		<text x="604.70" y="430.00" text-anchor="end" transform="rotate(-90 604.70 430.00)">2026-05-11 20:46</text>
	</g>
	<g class="poloto_imgs poloto_ticks poloto_x" stroke="black">
		<line x1="230.94" x2="230.94" y1="400.00" y2="405.00"/>
		<line x1="355.53" x2="355.53" y1="400.00" y2="405.00"/>
		<line x1="480.11" x2="480.11" y1="400.00" y2="405.00"/>
		<line x1="604.70" x2="604.70" y1="400.00" y2="405.00"/>
	</g>
	<path class="poloto_imgs poloto_ticks poloto_x" stroke="black" style="stroke-dasharray:12.458829796936026;stroke-dashoffset:-80.93828942260006;" d=" M 150.00 400.00 L 650.00 400.00"/>
	<path class="poloto_imgs poloto_ticks poloto_y" stroke="black" style="stroke-dasharray:8.349893956346754;stroke-dashoffset:-0;" d=" M 150.00 400.00 L 150.00 100.00"/>
</svg>

