<svg class="poloto" width="800" height="680" viewBox="0 0 800 680" xmlns="http://www.w3.org/2000/svg">
	<style>
.poloto{
  stroke-linecap:round;
  stroke-linejoin:round;
  font-family:Roboto,sans-serif;
  font-size:16px;
}
.poloto_background{fill:AliceBlue;}
.poloto_scatter{stroke-width:7}
.poloto_line{stroke-width:2}
.poloto_text{fill: black;}
.poloto_name{font-size:24px;dominant-baseline:auto;text-anchor:middle;}
.poloto_where{dominant-baseline:middle;text-anchor:start}
.poloto_text.poloto_legend{font-size:20px;dominant-baseline:middle;text-anchor:start;}
.poloto_text.poloto_ticks.poloto_y{dominant-baseline:middle;text-anchor:end}
.poloto_text.poloto_ticks.poloto_x{dominant-baseline:auto;text-anchor:middle}
.poloto_imgs.poloto_ticks{stroke: black;stroke-width:3;fill:none;stroke-dasharray:none}
.poloto_grid{stroke:gray;stroke-width:0.5}

.poloto0.poloto_stroke{stroke:blue;}
.poloto1.poloto_stroke{stroke:red;}
.poloto2.poloto_stroke{stroke:green;}
.poloto3.poloto_stroke{stroke:gold;}
.poloto4.poloto_stroke{stroke:aqua;}
.poloto5.poloto_stroke{stroke:lime;}
.poloto6.poloto_stroke{stroke:orange;}
.poloto7.poloto_stroke{stroke:chocolate;}
.poloto0.poloto_fill{fill:blue;}
.poloto1.poloto_fill{fill:red;}
.poloto2.poloto_fill{fill:green;}
.poloto3.poloto_fill{fill:gold;}
.poloto4.poloto_fill{fill:aqua;}
.poloto5.poloto_fill{fill:lime;}
.poloto6.poloto_fill{fill:orange;}
.poloto7.poloto_fill{fill:chocolate;}
	</style>
	<circle r="1e5" class="poloto_background" fill="white"/>
	<g id="poloto_plot0" class="poloto_plot poloto_imgs poloto_line poloto0 poloto_stroke" fill="none" stroke="black">
		<path d=" M 150.00 360.15 L 150.04 360.12 L 150.06 360.10 L 150.07 360.10 L 150.10 360.10 L 150.14 355.77 L 150.29 355.25 L 150.64 355.23 L 151.17 354.87 L 151.43 352.67 L 151.96 352.54 L 152.05 352.42 L 152.12 352.37 L 152.74 351.30 L 153.90 350.43 L 154.27 347.03 L 154.36 347.04 L 155.06 346.90 L 155.87 346.89 L 155.88 346.89 L 155.88 346.89 L 166.78 346.89 L 166.86 346.88 L 167.00 346.86 L 167.06 346.82 L 167.47 346.62 L 167.66 346.57 L 168.12 346.25 L 168.19 346.12 L 168.32 345.81 L 168.46 345.76 L 168.50 345.76 L 168.61 345.68 L 168.73 345.68 L 168.85 345.68 L 169.15 345.18 L 169.42 344.87 L 169.47 344.87 L 169.60 344.68 L 170.47 345.46 L 170.48 345.46 L 170.59 345.33 L 171.09 344.75 L 171.49 344.06 L 171.93 343.75 L 172.03 343.70 L 172.04 343.70 L 172.12 343.43 L 172.29 343.43 L 172.51 343.33 L 172.94 343.07 L 172.96 342.67 L 173.04 342.67 L 173.14 342.46 L 173.39 342.46 L 173.42 342.46 L 173.67 341.88 L 173.77 341.85 L 173.86 341.80 L 173.96 341.57 L 175.29 341.25 L 175.61 341.19 L 176.35 340.78 L 176.51 340.78 L 176.62 340.76 L 176.69 340.47 L 177.20 338.75 L 177.42 338.71 L 177.69 338.14 L 177.81 338.09 L 178.12 337.61 L 178.25 337.44 L 178.44 337.13 L 178.60 336.86 L 179.19 332.91 L 179.21 332.81 L 179.24 332.57 L 179.44 330.67 L 189.55 330.53 L 190.59 328.37 L 190.63 328.32 L 191.86 327.98 L 191.97 327.97 L 192.08 327.54 L 192.39 327.32 L 192.52 326.95 L 192.57 326.63 L 192.73 326.06 L 193.09 326.05 L 193.10 325.67 L 193.24 325.24 L 193.38 325.24 L 193.53 324.76 L 193.73 324.42 L 193.81 324.25 L 193.84 324.24 L 194.01 323.87 L 194.04 323.86 L 194.23 323.49 L 194.26 323.48 L 194.55 321.69 L 194.60 321.69 L 194.70 321.39 L 194.82 321.38 L 194.99 321.38 L 195.06 321.34 L 195.63 321.00 L 195.64 321.01 L 195.75 320.22 L 196.00 320.20 L 196.23 319.01 L 196.30 318.91 L 196.41 318.90 L 196.46 318.85 L 196.59 317.93 L 197.22 310.17 L 197.29 309.80 L 197.51 309.76 L 197.57 309.67 L 197.62 309.64 L 197.73 309.44 L 197.83 308.56 L 198.05 308.38 L 198.21 308.36 L 198.34 307.97 L 198.41 307.96 L 198.98 307.67 L 199.29 307.45 L 199.38 307.10 L 199.65 307.09 L 199.67 307.09 L 199.70 307.05 L 199.86 305.19 L 200.00 305.08 L 200.47 303.20 L 200.54 302.65 L 200.63 302.63 L 200.76 302.43 L 200.77 302.29 L 200.83 302.20 L 200.87 302.15 L 200.94 302.14 L 201.00 302.04 L 201.18 300.51 L 201.32 300.28 L 201.45 299.83 L 201.64 299.80 L 201.84 299.65 L 202.04 298.57 L 202.19 297.05 L 202.48 296.97 L 202.49 296.41 L 202.66 296.22 L 216.77 296.22 L 217.04 296.21 L 217.71 295.41 L 217.85 295.39 L 217.96 295.39 L 217.98 295.19 L 218.22 294.94 L 218.39 294.90 L 218.48 294.75 L 218.58 294.65 L 218.64 294.59 L 218.89 294.52 L 219.40 294.42 L 219.53 294.01 L 219.63 293.91 L 219.75 293.90 L 220.40 293.69 L 220.49 293.57 L 220.54 293.57 L 220.58 293.42 L 220.72 293.35 L 220.83 293.20 L 221.31 292.18 L 221.99 292.02 L 222.24 291.96 L 222.99 291.70 L 223.35 286.83 L 223.48 286.72 L 223.63 286.24 L 223.85 285.60 L 224.19 285.42 L 224.67 285.40 L 225.31 285.39 L 225.41 285.17 L 225.88 284.95 L 226.18 284.60 L 226.27 284.45 L 226.46 284.40 L 226.60 283.96 L 228.27 283.48 L 229.85 283.48 L 244.06 283.44 L 244.16 283.23 L 244.24 283.09 L 244.68 282.88 L 246.01 281.20 L 246.06 281.09 L 246.25 280.66 L 246.90 280.55 L 247.21 279.41 L 247.68 279.40 L 247.79 279.38 L 247.89 278.60 L 248.72 274.16 L 248.82 274.16 L 248.99 274.12 L 249.17 274.06 L 249.26 273.58 L 249.72 271.91 L 249.88 271.60 L 249.96 271.57 L 250.06 270.80 L 250.27 269.71 L 250.35 268.56 L 250.56 268.04 L 251.17 262.27 L 251.23 261.69 L 251.29 261.69 L 251.39 261.58 L 251.54 261.44 L 251.60 261.38 L 251.66 261.32 L 251.95 259.94 L 252.02 258.96 L 252.38 258.77 L 252.60 257.32 L 252.73 256.40 L 253.83 242.95 L 253.96 242.91 L 295.71 242.27 L 295.75 242.27 L 311.71 242.09 L 312.58 241.72 L 312.75 241.72 L 312.99 241.62 L 313.06 241.45 L 313.16 241.40 L 320.08 241.31 L 320.99 238.75 L 321.33 238.52 L 321.51 237.58 L 325.82 237.39 L 325.85 237.13 L 326.12 237.10 L 327.41 235.49 L 327.48 235.20 L 327.64 235.10 L 328.10 234.98 L 328.15 234.94 L 328.33 234.46 L 328.53 234.33 L 328.56 233.97 L 341.97 233.47 L 342.07 232.10 L 342.60 231.79 L 342.61 229.48 L 342.71 229.14 L 342.82 228.58 L 342.97 226.98 L 343.19 226.14 L 343.38 225.15 L 343.56 225.14 L 343.63 224.39 L 343.90 224.32 L 344.83 220.61 L 345.20 220.21 L 345.26 219.98 L 345.34 219.97 L 345.39 219.71 L 345.52 218.80 L 345.90 218.36 L 345.95 218.31 L 346.18 215.04 L 346.27 215.03 L 346.31 214.67 L 346.39 214.41 L 346.45 214.40 L 346.50 213.91 L 346.80 212.14 L 346.92 211.64 L 347.09 211.58 L 347.20 206.85 L 347.25 206.46 L 347.54 203.77 L 347.62 203.56 L 347.68 203.55 L 347.75 203.54 L 347.80 203.16 L 347.84 203.18 L 347.86 203.17 L 348.01 198.39 L 348.06 197.98 L 348.20 197.95 L 348.31 197.87 L 348.61 197.74 L 348.98 197.55 L 348.99 197.55 L 349.09 197.50 L 349.44 197.41 L 349.60 197.41 L 349.76 197.41 L 349.94 195.33 L 350.05 194.83 L 350.53 194.82 L 350.57 194.49 L 350.63 194.49 L 350.67 194.13 L 350.98 191.12 L 351.03 191.05 L 351.26 191.03 L 371.89 190.94 L 373.06 190.79 L 373.10 190.79 L 373.33 190.79 L 373.35 190.79 L 373.50 190.19 L 373.62 190.16 L 373.72 189.87 L 373.86 189.80 L 373.90 189.75 L 373.95 189.73 L 374.17 189.39 L 374.62 189.10 L 374.90 188.13 L 375.22 187.21 L 375.23 187.16 L 375.29 186.30 L 375.33 186.27 L 375.94 185.76 L 375.95 185.70 L 376.05 185.02 L 376.31 184.94 L 376.48 184.88 L 376.52 183.66 L 376.53 183.59 L 376.60 184.75 L 376.65 184.04 L 376.67 184.01 L 376.82 182.38 L 376.84 182.34 L 377.16 182.20 L 378.04 182.18 L 378.25 182.12 L 378.31 182.11 L 378.36 181.89 L 378.41 181.89 L 378.53 181.09 L 392.64 179.53 L 392.66 179.32 L 392.78 179.17 L 392.81 178.87 L 392.89 165.25 L 393.05 159.68 L 393.07 159.65 L 393.33 159.54 L 393.39 159.54 L 393.43 158.90 L 393.66 158.83 L 394.27 157.52 L 394.28 157.49 L 394.44 157.08 L 394.50 157.09 L 394.53 156.43 L 395.04 155.66 L 395.05 155.63 L 395.83 155.33 L 395.92 154.64 L 396.19 154.65 L 396.51 152.89 L 396.59 152.20 L 396.65 151.64 L 396.79 150.96 L 397.19 150.72 L 397.26 150.55 L 397.44 150.40 L 397.63 150.40 L 398.22 150.40 L 398.29 150.40 L 398.43 150.37 L 398.44 150.37 L 398.63 150.38 L 399.08 150.35 L 399.54 150.09 L 399.61 150.09 L 399.71 149.99 L 399.84 149.80 L 400.20 149.80 L 400.79 149.56 L 400.99 149.02 L 401.31 144.32 L 402.61 148.29 L 402.89 148.27 L 403.10 148.25 L 403.42 148.25 L 403.53 148.17 L 403.85 147.95 L 404.36 147.63 L 404.43 147.41 L 404.52 147.32 L 404.58 147.34 L 404.63 147.27 L 405.03 146.98 L 414.38 146.97 L 414.47 146.98 L 415.05 146.96 L 415.11 146.94 L 415.23 146.34 L 415.34 146.01 L 415.36 146.01 L 415.68 145.95 L 415.76 145.92 L 417.67 145.04 L 417.90 144.97 L 418.06 144.95 L 418.10 144.94 L 418.69 144.73 L 418.89 144.84 L 418.93 144.83 L 419.25 144.77 L 419.60 142.92 L 419.64 142.91 L 419.93 142.69 L 420.05 142.69 L 420.16 142.69 L 420.40 142.49 L 420.92 141.74 L 421.02 141.71 L 421.12 141.50 L 421.33 140.62 L 421.84 139.70 L 422.30 135.38 L 422.39 134.85 L 422.86 134.65 L 422.94 134.54 L 423.02 134.33 L 423.07 133.63 L 423.23 132.39 L 423.27 132.44 L 423.34 132.42 L 423.61 132.41 L 424.02 131.96 L 424.27 131.87 L 424.56 131.85 L 424.69 131.83 L 424.97 131.82 L 425.45 131.82 L 425.91 131.81 L 426.27 131.80 L 426.36 131.79 L 426.45 131.78 L 426.45 131.62 L 426.73 131.54 L 426.81 131.52 L 426.92 131.33 L 427.68 131.31 L 427.70 130.93 L 427.91 130.92 L 428.80 130.92 L 429.40 130.70 L 429.83 130.42 L 429.84 130.27 L 429.88 130.27 L 442.97 130.01 L 443.01 130.00 L 443.16 129.99 L 443.23 129.77 L 443.28 129.75 L 443.29 129.74 L 443.85 129.68 L 443.97 128.90 L 444.14 128.72 L 444.42 127.18 L 444.60 127.16 L 444.82 126.51 L 444.95 126.59 L 445.01 126.58 L 445.07 125.84 L 445.24 125.33 L 445.26 124.78 L 445.32 124.71 L 445.46 124.66 L 445.55 124.41 L 445.67 127.35 L 445.83 127.29 L 446.15 126.12 L 446.29 125.83 L 446.41 125.59 L 447.22 123.90 L 447.91 123.08 L 448.73 121.53 L 448.94 121.45 L 449.18 121.45 L 449.44 121.38 L 454.25 120.94 L 454.65 120.90 L 500.25 119.71 L 643.87 119.44 L 644.34 118.96 L 644.67 118.90 L 645.00 118.90 L 645.50 117.98 L 645.67 117.54 L 645.80 116.72 L 646.03 114.35 L 646.36 114.84 L 646.63 114.32 L 646.69 114.31 L 646.91 114.16 L 646.96 114.16 L 647.20 113.29 L 647.41 111.90 L 648.06 110.43 L 648.08 110.30 L 648.27 108.54 L 648.89 104.19 L 648.90 104.04 L 649.02 103.94 L 649.17 102.39 L 649.84 100.29 L 649.86 100.10 L 650.00 100.00"/>
	</g>
	<g id="poloto_plot1" class="poloto_plot poloto_imgs poloto_line poloto1 poloto_stroke" fill="none" stroke="black">
		<path d=" M 150.00 376.32 L 150.04 376.30 L 150.06 376.28 L 150.07 376.28 L 150.10 376.28 L 150.14 375.54 L 150.29 375.51 L 150.64 375.50 L 151.17 375.21 L 151.43 375.09 L 151.96 375.12 L 152.05 375.06 L 152.12 375.06 L 152.74 375.01 L 153.90 374.87 L 154.27 371.94 L 154.36 371.94 L 155.06 371.87 L 155.87 371.86 L 155.88 371.86 L 155.88 371.86 L 166.78 371.86 L 166.86 371.86 L 167.00 371.85 L 167.06 371.82 L 167.47 371.80 L 167.66 371.80 L 168.12 371.80 L 168.19 371.80 L 168.32 371.78 L 168.46 371.78 L 168.50 371.78 L 168.61 371.74 L 168.73 371.74 L 168.85 371.74 L 169.15 371.58 L 169.42 371.58 L 169.47 371.58 L 169.60 371.58 L 170.47 372.68 L 170.48 372.68 L 170.59 372.67 L 171.09 372.50 L 171.49 372.32 L 171.93 372.24 L 172.03 372.18 L 172.04 372.18 L 172.12 372.18 L 172.29 372.18 L 172.51 372.11 L 172.94 372.04 L 172.96 372.04 L 173.04 372.04 L 173.14 372.02 L 173.39 372.02 L 173.42 372.02 L 173.67 372.01 L 173.77 372.01 L 173.86 372.01 L 173.96 372.01 L 175.29 371.87 L 175.61 371.86 L 176.35 371.81 L 176.51 371.81 L 176.62 371.81 L 176.69 371.81 L 177.20 371.72 L 177.42 371.72 L 177.69 371.61 L 177.81 371.60 L 178.12 371.36 L 178.25 371.28 L 178.44 371.28 L 178.60 371.27 L 179.19 367.85 L 179.21 367.79 L 179.24 367.79 L 179.44 367.46 L 189.55 367.46 L 190.59 365.99 L 190.63 365.99 L 191.86 365.99 L 191.97 365.98 L 192.08 365.83 L 192.39 365.80 L 192.52 365.80 L 192.57 365.80 L 192.73 365.80 L 193.09 365.80 L 193.10 365.48 L 193.24 365.47 L 193.38 365.47 L 193.53 365.44 L 193.73 365.43 L 193.81 365.43 L 193.84 365.43 L 194.01 365.43 L 194.04 365.43 L 194.23 365.43 L 194.26 365.43 L 194.55 363.98 L 194.60 363.98 L 194.70 363.80 L 194.82 363.80 L 194.99 363.80 L 195.06 363.79 L 195.63 363.78 L 195.64 363.78 L 195.75 363.70 L 196.00 363.70 L 196.23 362.86 L 196.30 362.76 L 196.41 362.76 L 196.46 362.76 L 196.59 362.74 L 197.22 356.62 L 197.29 356.67 L 197.51 356.67 L 197.57 356.67 L 197.62 356.66 L 197.73 356.66 L 197.83 356.58 L 198.05 356.58 L 198.21 356.58 L 198.34 356.57 L 198.41 356.57 L 198.98 356.56 L 199.29 356.55 L 199.38 356.40 L 199.65 356.40 L 199.67 356.40 L 199.70 356.40 L 199.86 355.99 L 200.00 355.89 L 200.47 354.43 L 200.54 354.43 L 200.63 354.43 L 200.76 354.45 L 200.77 354.45 L 200.83 354.45 L 200.87 354.45 L 200.94 354.45 L 201.00 354.45 L 201.18 354.42 L 201.32 354.42 L 201.45 354.41 L 201.64 354.41 L 201.84 354.40 L 202.04 353.86 L 202.19 353.67 L 202.48 353.67 L 202.49 353.67 L 202.66 353.67 L 216.77 353.67 L 217.04 353.66 L 217.71 353.56 L 217.85 353.55 L 217.96 353.55 L 217.98 353.55 L 218.22 353.55 L 218.39 353.55 L 218.48 353.55 L 218.58 353.55 L 218.64 353.54 L 218.89 353.54 L 219.40 353.57 L 219.53 353.57 L 219.63 353.57 L 219.75 353.57 L 220.40 353.46 L 220.49 353.40 L 220.54 353.40 L 220.58 353.32 L 220.72 353.32 L 220.83 353.32 L 221.31 352.76 L 221.99 352.76 L 222.24 352.76 L 222.99 352.76 L 223.35 349.02 L 223.48 349.01 L 223.63 349.01 L 223.85 349.01 L 224.19 349.01 L 224.67 349.01 L 225.31 349.01 L 225.41 349.01 L 225.88 348.92 L 226.18 348.76 L 226.27 348.76 L 226.46 348.76 L 226.60 348.74 L 228.27 348.50 L 229.85 348.50 L 244.06 348.50 L 244.16 348.50 L 244.24 348.50 L 244.68 348.50 L 246.01 347.32 L 246.06 347.28 L 246.25 347.16 L 246.90 347.15 L 247.21 346.87 L 247.68 346.88 L 247.79 346.88 L 247.89 346.88 L 248.72 343.59 L 248.82 343.59 L 248.99 343.59 L 249.17 343.59 L 249.26 343.38 L 249.72 342.98 L 249.88 342.98 L 249.96 342.98 L 250.06 342.38 L 250.27 341.77 L 250.35 341.77 L 250.56 341.76 L 251.17 336.87 L 251.23 336.87 L 251.29 336.87 L 251.39 336.87 L 251.54 336.87 L 251.60 336.87 L 251.66 336.87 L 251.95 336.87 L 252.02 336.76 L 252.38 336.74 L 252.60 336.67 L 252.73 336.08 L 253.83 326.34 L 253.96 326.34 L 295.71 326.34 L 295.75 326.34 L 311.71 326.34 L 312.58 326.19 L 312.75 326.19 L 312.99 326.19 L 313.06 326.19 L 313.16 326.19 L 320.08 326.12 L 320.99 326.02 L 321.33 326.02 L 321.51 325.99 L 325.82 325.91 L 325.85 325.78 L 326.12 325.78 L 327.41 324.46 L 327.48 324.46 L 327.64 324.46 L 328.10 324.46 L 328.15 324.46 L 328.33 324.46 L 328.53 324.46 L 328.56 324.46 L 341.97 324.44 L 342.07 324.21 L 342.60 324.21 L 342.61 322.61 L 342.71 322.61 L 342.82 322.61 L 342.97 322.47 L 343.19 322.47 L 343.38 322.40 L 343.56 322.40 L 343.63 322.40 L 343.90 322.38 L 344.83 319.68 L 345.20 319.67 L 345.26 319.66 L 345.34 319.66 L 345.39 319.66 L 345.52 319.61 L 345.90 319.28 L 345.95 319.23 L 346.18 316.81 L 346.27 316.79 L 346.31 316.79 L 346.39 316.76 L 346.45 316.76 L 346.50 316.76 L 346.80 315.43 L 346.92 315.42 L 347.09 315.39 L 347.20 311.28 L 347.25 311.28 L 347.54 308.96 L 347.62 308.96 L 347.68 308.96 L 347.75 308.96 L 347.80 308.96 L 347.84 308.96 L 347.86 308.96 L 348.01 304.68 L 348.06 304.67 L 348.20 304.66 L 348.31 304.66 L 348.61 304.57 L 348.98 304.46 L 348.99 304.46 L 349.09 304.43 L 349.44 304.36 L 349.60 304.36 L 349.76 304.36 L 349.94 302.52 L 350.05 302.52 L 350.53 302.51 L 350.57 302.50 L 350.63 302.50 L 350.67 302.50 L 350.98 299.87 L 351.03 299.87 L 351.26 299.85 L 371.89 299.85 L 373.06 299.83 L 373.10 299.83 L 373.33 299.83 L 373.35 299.83 L 373.50 299.83 L 373.62 299.83 L 373.72 299.70 L 373.86 299.70 L 373.90 299.70 L 373.95 299.70 L 374.17 299.46 L 374.62 299.31 L 374.90 299.16 L 375.22 298.41 L 375.23 298.41 L 375.29 298.22 L 375.33 298.20 L 375.94 297.75 L 375.95 297.75 L 376.05 297.68 L 376.31 297.68 L 376.48 297.64 L 376.52 296.54 L 376.53 296.54 L 376.60 297.62 L 376.65 297.56 L 376.67 297.55 L 376.82 296.08 L 376.84 296.08 L 377.16 296.02 L 378.04 296.02 L 378.25 296.02 L 378.31 296.02 L 378.36 296.02 L 378.41 296.02 L 378.53 295.93 L 392.64 294.71 L 392.66 294.71 L 392.78 294.70 L 392.81 294.44 L 392.89 281.44 L 393.05 276.60 L 393.07 276.60 L 393.33 276.51 L 393.39 276.51 L 393.43 276.49 L 393.66 276.49 L 394.27 275.31 L 394.28 275.31 L 394.44 275.24 L 394.50 275.24 L 394.53 275.14 L 395.04 274.44 L 395.05 274.44 L 395.83 274.29 L 395.92 274.24 L 396.19 274.26 L 396.51 272.66 L 396.59 272.50 L 396.65 272.35 L 396.79 271.75 L 397.19 271.60 L 397.26 271.47 L 397.44 271.47 L 397.63 271.47 L 398.22 271.47 L 398.29 271.47 L 398.43 271.47 L 398.44 271.47 L 398.63 271.49 L 399.08 271.49 L 399.54 271.33 L 399.61 271.33 L 399.71 271.31 L 399.84 271.31 L 400.20 271.31 L 400.79 271.31 L 400.99 271.16 L 401.31 266.97 L 402.61 270.93 L 402.89 270.91 L 403.10 270.90 L 403.42 270.90 L 403.53 270.85 L 403.85 270.83 L 404.36 270.59 L 404.43 270.59 L 404.52 270.59 L 404.58 270.59 L 404.63 270.59 L 405.03 270.36 L 414.38 270.36 L 414.47 270.36 L 415.05 270.34 L 415.11 270.34 L 415.23 270.30 L 415.34 270.01 L 415.36 270.01 L 415.68 269.98 L 415.76 269.98 L 417.67 269.74 L 417.90 269.74 L 418.06 269.74 L 418.10 269.74 L 418.69 269.56 L 418.89 269.56 L 418.93 269.56 L 419.25 269.56 L 419.60 268.56 L 419.64 268.56 L 419.93 268.40 L 420.05 268.40 L 420.16 268.40 L 420.40 268.40 L 420.92 268.38 L 421.02 268.36 L 421.12 268.26 L 421.33 268.09 L 421.84 267.94 L 422.30 263.98 L 422.39 263.85 L 422.86 263.66 L 422.94 263.61 L 423.02 263.47 L 423.07 263.20 L 423.23 262.01 L 423.27 262.06 L 423.34 262.04 L 423.61 262.03 L 424.02 261.87 L 424.27 261.81 L 424.56 261.79 L 424.69 261.77 L 424.97 261.76 L 425.45 261.76 L 425.91 261.75 L 426.27 261.75 L 426.36 261.74 L 426.45 261.73 L 426.45 261.73 L 426.73 261.73 L 426.81 261.71 L 426.92 261.56 L 427.68 261.55 L 427.70 261.55 L 427.91 261.53 L 428.80 261.53 L 429.40 261.33 L 429.83 261.16 L 429.84 261.16 L 429.88 261.16 L 442.97 261.16 L 443.01 261.16 L 443.16 261.16 L 443.23 261.16 L 443.28 261.14 L 443.29 261.14 L 443.85 261.14 L 443.97 261.12 L 444.14 261.10 L 444.42 261.07 L 444.60 261.07 L 444.82 260.98 L 444.95 260.98 L 445.01 260.98 L 445.07 260.98 L 445.24 260.61 L 445.26 260.61 L 445.32 260.61 L 445.46 260.61 L 445.55 260.61 L 445.67 260.70 L 445.83 260.70 L 446.15 260.69 L 446.29 260.69 L 446.41 260.69 L 447.22 259.52 L 447.91 259.21 L 448.73 258.38 L 448.94 258.38 L 449.18 258.38 L 449.44 258.38 L 454.25 258.28 L 454.65 258.27 L 500.25 258.12 L 643.87 257.91 L 644.34 257.84 L 644.67 257.83 L 645.00 257.83 L 645.50 257.29 L 645.67 257.29 L 645.80 257.29 L 646.03 255.34 L 646.36 255.72 L 646.63 255.69 L 646.69 255.69 L 646.91 255.67 L 646.96 255.67 L 647.20 255.67 L 647.41 255.58 L 648.06 254.35 L 648.08 254.35 L 648.27 254.24 L 648.89 250.25 L 648.90 250.25 L 649.02 250.24 L 649.17 250.18 L 649.84 248.32 L 649.86 248.32 L 650.00 248.32"/>
	</g>
	<g id="poloto_plot2" class="poloto_plot poloto_imgs poloto_line poloto2 poloto_stroke" fill="none" stroke="black">
		<path d=" M 150.00 389.38 L 150.04 389.37 L 150.06 389.37 L 150.07 389.37 L 150.10 389.37 L 150.14 386.65 L 150.29 386.28 L 150.64 386.27 L 151.17 386.25 L 151.43 384.63 L 151.96 384.48 L 152.05 384.43 L 152.12 384.39 L 152.74 383.66 L 153.90 383.09 L 154.27 382.98 L 154.36 382.99 L 155.06 382.95 L 155.87 382.95 L 155.88 382.95 L 155.88 382.95 L 166.78 382.95 L 166.86 382.94 L 167.00 382.92 L 167.06 382.92 L 167.47 382.75 L 167.66 382.71 L 168.12 382.44 L 168.19 382.33 L 168.32 382.09 L 168.46 382.05 L 168.50 382.05 L 168.61 382.01 L 168.73 382.01 L 168.85 382.01 L 169.15 381.74 L 169.42 381.48 L 169.47 381.49 L 169.60 381.34 L 170.47 381.01 L 170.48 381.01 L 170.59 380.91 L 171.09 380.55 L 171.49 380.10 L 171.93 379.92 L 172.03 379.92 L 172.04 379.93 L 172.12 379.68 L 172.29 379.68 L 172.51 379.65 L 172.94 379.46 L 172.96 379.14 L 173.04 379.14 L 173.14 378.99 L 173.39 378.99 L 173.42 378.99 L 173.67 378.51 L 173.77 378.48 L 173.86 378.44 L 173.96 378.22 L 175.29 378.09 L 175.61 378.04 L 176.35 377.71 L 176.51 377.71 L 176.62 377.69 L 176.69 377.45 L 177.20 376.12 L 177.42 376.10 L 177.69 375.70 L 177.81 375.66 L 178.12 375.48 L 178.25 375.42 L 178.44 375.13 L 178.60 374.90 L 179.19 374.90 L 179.21 374.87 L 179.24 374.68 L 179.44 373.39 L 189.55 373.26 L 190.59 372.87 L 190.63 372.82 L 191.86 372.50 L 191.97 372.49 L 192.08 372.26 L 192.39 372.10 L 192.52 371.81 L 192.57 371.56 L 192.73 371.09 L 193.09 371.08 L 193.10 371.08 L 193.24 370.74 L 193.38 370.74 L 193.53 370.39 L 193.73 370.11 L 193.81 369.96 L 193.84 369.96 L 194.01 369.63 L 194.04 369.63 L 194.23 369.33 L 194.26 369.32 L 194.55 369.22 L 194.60 369.22 L 194.70 369.11 L 194.82 369.09 L 194.99 369.09 L 195.06 369.07 L 195.63 368.78 L 195.64 368.79 L 195.75 368.21 L 196.00 368.19 L 196.23 368.01 L 196.30 368.01 L 196.41 368.01 L 196.46 367.96 L 196.59 367.17 L 197.22 366.50 L 197.29 366.13 L 197.51 366.10 L 197.57 366.01 L 197.62 365.99 L 197.73 365.82 L 197.83 365.20 L 198.05 365.10 L 198.21 365.08 L 198.34 364.77 L 198.41 364.76 L 198.98 364.52 L 199.29 364.36 L 199.38 364.21 L 199.65 364.20 L 199.67 364.20 L 199.70 364.17 L 199.86 363.03 L 200.00 363.02 L 200.47 362.86 L 200.54 362.41 L 200.63 362.40 L 200.76 362.21 L 200.77 362.10 L 200.83 362.03 L 200.87 361.98 L 200.94 361.98 L 201.00 361.89 L 201.18 360.61 L 201.32 360.48 L 201.45 360.10 L 201.64 360.07 L 201.84 359.95 L 202.04 359.55 L 202.19 358.44 L 202.48 358.35 L 202.49 357.88 L 202.66 357.76 L 216.77 357.77 L 217.04 357.77 L 217.71 357.24 L 217.85 357.24 L 217.96 357.24 L 217.98 357.11 L 218.22 356.88 L 218.39 356.84 L 218.48 356.71 L 218.58 356.61 L 218.64 356.56 L 218.89 356.49 L 219.40 356.60 L 219.53 356.25 L 219.63 356.15 L 219.75 356.14 L 220.40 356.07 L 220.49 356.01 L 220.54 356.01 L 220.58 355.94 L 220.72 355.89 L 220.83 355.76 L 221.31 355.42 L 221.99 355.29 L 222.24 355.22 L 222.99 355.01 L 223.35 354.50 L 223.48 354.41 L 223.63 354.00 L 223.85 353.48 L 224.19 353.35 L 224.67 353.33 L 225.31 353.31 L 225.41 353.12 L 225.88 352.99 L 226.18 352.83 L 226.27 352.70 L 226.46 352.65 L 226.60 352.30 L 228.27 352.13 L 229.85 352.13 L 244.06 352.09 L 244.16 351.90 L 244.24 351.77 L 244.68 351.58 L 246.01 351.23 L 246.06 351.18 L 246.25 350.94 L 246.90 350.84 L 247.21 350.17 L 247.68 350.15 L 247.79 350.13 L 247.89 349.47 L 248.72 348.85 L 248.82 348.85 L 248.99 348.81 L 249.17 348.75 L 249.26 348.53 L 249.72 347.50 L 249.88 347.23 L 249.96 347.21 L 250.06 347.10 L 250.27 346.70 L 250.35 345.67 L 250.56 345.25 L 251.17 345.01 L 251.23 344.49 L 251.29 344.49 L 251.39 344.39 L 251.54 344.25 L 251.60 344.22 L 251.66 344.17 L 251.95 342.97 L 252.02 342.25 L 252.38 342.12 L 252.60 340.92 L 252.73 340.69 L 253.83 338.81 L 253.96 338.78 L 295.71 338.23 L 295.75 338.23 L 311.71 338.07 L 312.58 337.87 L 312.75 337.87 L 312.99 337.77 L 313.06 337.62 L 313.16 337.59 L 320.08 337.57 L 320.99 335.40 L 321.33 335.22 L 321.51 334.47 L 325.82 334.38 L 325.85 334.30 L 326.12 334.29 L 327.41 334.16 L 327.48 333.91 L 327.64 333.82 L 328.10 333.71 L 328.15 333.68 L 328.33 333.26 L 328.53 333.13 L 328.56 332.81 L 341.97 332.41 L 342.07 331.42 L 342.60 331.16 L 342.61 330.79 L 342.71 330.49 L 342.82 330.04 L 342.97 328.85 L 343.19 328.19 L 343.38 327.35 L 343.56 327.35 L 343.63 326.70 L 343.90 326.65 L 344.83 326.04 L 345.20 325.75 L 345.26 325.57 L 345.34 325.57 L 345.39 325.35 L 345.52 324.62 L 345.90 324.54 L 345.95 324.54 L 346.18 324.06 L 346.27 324.06 L 346.31 323.78 L 346.39 323.61 L 346.45 323.60 L 346.50 323.22 L 346.80 322.99 L 346.92 322.61 L 347.09 322.59 L 347.20 322.39 L 347.25 322.09 L 347.54 321.94 L 347.62 321.77 L 347.68 321.77 L 347.75 321.76 L 347.80 321.46 L 347.84 321.48 L 347.86 321.47 L 348.01 321.37 L 348.06 321.04 L 348.20 321.03 L 348.31 320.95 L 348.61 320.93 L 348.98 320.89 L 348.99 320.89 L 349.09 320.87 L 349.44 320.87 L 349.60 320.87 L 349.76 320.87 L 349.94 320.81 L 350.05 320.42 L 350.53 320.42 L 350.57 320.18 L 350.63 320.18 L 350.67 319.91 L 350.98 319.82 L 351.03 319.76 L 351.26 319.76 L 371.89 319.69 L 373.06 319.58 L 373.10 319.58 L 373.33 319.57 L 373.35 319.58 L 373.50 319.11 L 373.62 319.09 L 373.72 318.96 L 373.86 318.89 L 373.90 318.85 L 373.95 318.83 L 374.17 318.78 L 374.62 318.69 L 374.90 318.07 L 375.22 318.03 L 375.23 317.99 L 375.29 317.47 L 375.33 317.46 L 375.94 317.46 L 375.95 317.41 L 376.05 316.93 L 376.31 316.86 L 376.48 316.85 L 376.52 316.84 L 376.53 316.78 L 376.60 316.75 L 376.65 316.25 L 376.67 316.24 L 376.82 316.24 L 376.84 316.20 L 377.16 316.15 L 378.04 316.13 L 378.25 316.09 L 378.31 316.08 L 378.36 315.92 L 378.41 315.92 L 378.53 315.36 L 392.64 315.19 L 392.66 315.03 L 392.78 314.92 L 392.81 314.90 L 392.89 314.42 L 393.05 314.31 L 393.07 314.28 L 393.33 314.27 L 393.39 314.27 L 393.43 313.80 L 393.66 313.74 L 394.27 313.73 L 394.28 313.70 L 394.44 313.44 L 394.50 313.45 L 394.53 313.01 L 395.04 313.01 L 395.05 312.99 L 395.83 312.88 L 395.92 312.36 L 396.19 312.36 L 396.51 312.35 L 396.59 311.97 L 396.65 311.67 L 396.79 311.66 L 397.19 311.59 L 397.26 311.57 L 397.44 311.45 L 397.63 311.45 L 398.22 311.45 L 398.29 311.45 L 398.43 311.42 L 398.44 311.42 L 398.63 311.42 L 399.08 311.39 L 399.54 311.33 L 399.61 311.33 L 399.71 311.28 L 399.84 311.14 L 400.20 311.14 L 400.79 310.97 L 400.99 310.67 L 401.31 310.64 L 402.61 310.32 L 402.89 310.32 L 403.10 310.32 L 403.42 310.31 L 403.53 310.29 L 403.85 310.12 L 404.36 310.10 L 404.43 309.96 L 404.52 309.89 L 404.58 309.91 L 404.63 309.85 L 405.03 309.83 L 414.38 309.82 L 414.47 309.82 L 415.05 309.82 L 415.11 309.81 L 415.23 309.37 L 415.34 309.35 L 415.36 309.35 L 415.68 309.34 L 415.76 309.32 L 417.67 308.67 L 417.90 308.61 L 418.06 308.59 L 418.10 308.59 L 418.69 308.57 L 418.89 308.66 L 418.93 308.66 L 419.25 308.62 L 419.60 308.01 L 419.64 307.99 L 419.93 307.98 L 420.05 307.98 L 420.16 307.98 L 420.40 307.85 L 420.92 307.29 L 421.02 307.29 L 421.12 307.21 L 421.33 306.71 L 421.84 306.15 L 422.30 306.19 L 422.39 305.89 L 422.86 305.89 L 422.94 305.86 L 423.02 305.83 L 423.07 305.53 L 423.23 305.52 L 423.27 305.52 L 423.34 305.52 L 423.61 305.52 L 424.02 305.29 L 424.27 305.26 L 424.56 305.26 L 424.69 305.26 L 424.97 305.26 L 425.45 305.26 L 425.91 305.26 L 426.27 305.26 L 426.36 305.26 L 426.45 305.25 L 426.45 305.15 L 426.73 305.07 L 426.81 305.07 L 426.92 305.06 L 427.68 305.05 L 427.70 304.76 L 427.91 304.76 L 428.80 304.77 L 429.40 304.76 L 429.83 304.70 L 429.84 304.58 L 429.88 304.58 L 442.97 304.39 L 443.01 304.38 L 443.16 304.37 L 443.23 304.20 L 443.28 304.20 L 443.29 304.18 L 443.85 304.13 L 443.97 303.54 L 444.14 303.42 L 444.42 302.26 L 444.60 302.25 L 444.82 301.76 L 444.95 301.82 L 445.01 301.81 L 445.07 301.18 L 445.24 301.07 L 445.26 300.64 L 445.32 300.58 L 445.46 300.54 L 445.55 300.32 L 445.67 302.90 L 445.83 302.86 L 446.15 301.82 L 446.29 301.60 L 446.41 301.36 L 447.22 300.95 L 447.91 300.52 L 448.73 299.91 L 448.94 299.84 L 449.18 299.84 L 449.44 299.79 L 454.25 299.48 L 454.65 299.45 L 500.25 298.64 L 643.87 298.62 L 644.34 298.25 L 644.67 298.20 L 645.00 298.20 L 645.50 297.87 L 645.67 297.48 L 645.80 296.77 L 646.03 296.58 L 646.36 296.65 L 646.63 296.24 L 646.69 296.23 L 646.91 296.10 L 646.96 296.10 L 647.20 295.41 L 647.41 294.35 L 648.06 294.25 L 648.08 294.14 L 648.27 292.77 L 648.89 292.72 L 648.90 292.59 L 649.02 292.51 L 649.17 291.27 L 649.84 291.20 L 649.86 291.03 L 650.00 290.94"/>
	</g>
	<g class="poloto_legend poloto_imgs poloto_line poloto0 poloto_stroke"><line x1="680" x2="730" y1="81.25" y2="81.25"/></g>
	<g class="poloto_legend poloto_imgs poloto_line poloto1 poloto_stroke"><line x1="680" x2="730" y1="131.25" y2="131.25"/></g>
	<g class="poloto_legend poloto_imgs poloto_line poloto2 poloto_stroke"><line x1="680" x2="730" y1="181.25" y2="181.25"/></g>
	<text class="poloto_legend poloto_text poloto_line poloto0" x="675" y="100">total</text>
	<text class="poloto_legend poloto_text poloto_line poloto1" x="675" y="150">code</text>
	<text class="poloto_legend poloto_text poloto_line poloto2" x="675" y="200">docs</text>
	<text class="poloto_text poloto_name poloto_title" x="400.00" y="37.50">Workspace lines over time</text>
	<text class="poloto_text poloto_name poloto_x" x="400.00" y="640">date (JST)</text>
	<text class="poloto_text poloto_name poloto_y" x="37.50" y="250.00" transform="rotate(-90,37.50,250.00)">lines</text>
	<text class="poloto_text poloto_ticks poloto_y">
		<tspan x="135.00" y="400.00">0</tspan>
		<tspan x="135.00" y="299.00">50K</tspan>
		<tspan x="135.00" y="197.99">100K</tspan>
	</text>
	<g class="poloto_imgs poloto_ticks poloto_y" stroke="black">
		<line x1="150.00" x2="144.00" y1="400.00" y2="400.00"/>
		<line x1="150.00" x2="144.00" y1="299.00" y2="299.00"/>
		<line x1="150.00" x2="144.00" y1="197.99" y2="197.99"/>
	</g>
	<g class="poloto_text poloto_ticks poloto_x">
		<text x="186.08" y="430.00" text-anchor="end" transform="rotate(-90 186.08 430.00)">2026-04-22 04:33</text>
		<text x="243.88" y="430.00" text-anchor="end" transform="rotate(-90 243.88 430.00)">2026-04-24 12:06</text>
		<text x="301.69" y="430.00" text-anchor="end" transform="rotate(-90 301.69 430.00)">2026-04-26 19:40</text>
		<text x="359.49" y="430.00" text-anchor="end" transform="rotate(-90 359.49 430.00)">2026-04-29 03:13</text>
		<text x="417.30" y="430.00" text-anchor="end" transform="rotate(-90 417.30 430.00)">2026-05-01 10:46</text>
		<text x="475.10" y="430.00" text-anchor="end" transform="rotate(-90 475.10 430.00)">2026-05-03 18:20</text>
		<text x="532.90" y="430.00" text-anchor="end" transform="rotate(-90 532.90 430.00)">2026-05-06 01:53</text>
		<text x="590.71" y="430.00" text-anchor="end" transform="rotate(-90 590.71 430.00)">2026-05-08 09:26</text>
		<text x="648.51" y="430.00" text-anchor="end" transform="rotate(-90 648.51 430.00)">2026-05-10 17:00</text>
	</g>
	<g class="poloto_imgs poloto_ticks poloto_x" stroke="black">
		<line x1="186.08" x2="186.08" y1="400.00" y2="405.00"/>
		<line x1="243.88" x2="243.88" y1="400.00" y2="405.00"/>
		<line x1="301.69" x2="301.69" y1="400.00" y2="405.00"/>
		<line x1="359.49" x2="359.49" y1="400.00" y2="405.00"/>
		<line x1="417.30" x2="417.30" y1="400.00" y2="405.00"/>
		<line x1="475.10" x2="475.10" y1="400.00" y2="405.00"/>
		<line x1="532.90" x2="532.90" y1="400.00" y2="405.00"/>
		<line x1="590.71" x2="590.71" y1="400.00" y2="405.00"/>
		<line x1="648.51" x2="648.51" y1="400.00" y2="405.00"/>
	</g>
	<path class="poloto_imgs poloto_ticks poloto_x" stroke="black" style="stroke-dasharray:7.225583884982577;stroke-dashoffset:-36.076762290962506;" d=" M 150.00 400.00 L 650.00 400.00"/>
	<path class="poloto_imgs poloto_ticks poloto_y" stroke="black" style="stroke-dasharray:10.100397955679455;stroke-dashoffset:-0;" d=" M 150.00 400.00 L 150.00 100.00"/>
</svg>

