<svg class="poloto" width="800" height="680" viewBox="0 0 800 680" xmlns="http://www.w3.org/2000/svg">
	<style>
.poloto{
  stroke-linecap:round;
  stroke-linejoin:round;
  font-family:Roboto,sans-serif;
  font-size:16px;
}
.poloto_background{fill:AliceBlue;}
.poloto_scatter{stroke-width:7}
.poloto_line{stroke-width:2}
.poloto_text{fill: black;}
.poloto_name{font-size:24px;dominant-baseline:auto;text-anchor:middle;}
.poloto_where{dominant-baseline:middle;text-anchor:start}
.poloto_text.poloto_legend{font-size:20px;dominant-baseline:middle;text-anchor:start;}
.poloto_text.poloto_ticks.poloto_y{dominant-baseline:middle;text-anchor:end}
.poloto_text.poloto_ticks.poloto_x{dominant-baseline:auto;text-anchor:middle}
.poloto_imgs.poloto_ticks{stroke: black;stroke-width:3;fill:none;stroke-dasharray:none}
.poloto_grid{stroke:gray;stroke-width:0.5}

.poloto0.poloto_stroke{stroke:blue;}
.poloto1.poloto_stroke{stroke:red;}
.poloto2.poloto_stroke{stroke:green;}
.poloto3.poloto_stroke{stroke:gold;}
.poloto4.poloto_stroke{stroke:aqua;}
.poloto5.poloto_stroke{stroke:lime;}
.poloto6.poloto_stroke{stroke:orange;}
.poloto7.poloto_stroke{stroke:chocolate;}
.poloto0.poloto_fill{fill:blue;}
.poloto1.poloto_fill{fill:red;}
.poloto2.poloto_fill{fill:green;}
.poloto3.poloto_fill{fill:gold;}
.poloto4.poloto_fill{fill:aqua;}
.poloto5.poloto_fill{fill:lime;}
.poloto6.poloto_fill{fill:orange;}
.poloto7.poloto_fill{fill:chocolate;}
	</style>
	<circle r="1e5" class="poloto_background" fill="white"/>
	<g id="poloto_plot0" class="poloto_plot poloto_imgs poloto_line poloto0 poloto_stroke" fill="none" stroke="black">
		<path d=" M 150.00 368.98 L 150.03 368.95 L 150.05 368.93 L 150.06 368.93 L 150.08 368.93 L 150.11 365.57 L 150.24 365.16 L 150.53 365.14 L 150.96 364.87 L 151.18 363.15 L 151.62 363.05 L 151.70 362.96 L 151.75 362.92 L 152.27 362.09 L 153.23 361.41 L 153.53 358.76 L 153.61 358.77 L 154.19 358.66 L 154.85 358.65 L 154.86 358.65 L 154.86 358.65 L 163.87 358.65 L 163.94 358.65 L 164.05 358.63 L 164.10 358.60 L 164.45 358.44 L 164.60 358.40 L 164.98 358.16 L 165.04 358.05 L 165.15 357.81 L 165.26 357.77 L 165.29 357.77 L 165.39 357.71 L 165.49 357.71 L 165.58 357.71 L 165.84 357.32 L 166.06 357.08 L 166.10 357.08 L 166.20 356.93 L 166.92 357.54 L 166.94 357.54 L 167.03 357.44 L 167.43 356.99 L 167.76 356.45 L 168.13 356.21 L 168.21 356.17 L 168.22 356.17 L 168.29 355.96 L 168.43 355.96 L 168.61 355.88 L 168.96 355.68 L 168.99 355.37 L 169.05 355.37 L 169.13 355.20 L 169.34 355.20 L 169.36 355.20 L 169.57 354.75 L 169.65 354.72 L 169.73 354.69 L 169.81 354.51 L 170.91 354.26 L 171.17 354.21 L 171.79 353.89 L 171.92 353.89 L 172.01 353.88 L 172.06 353.65 L 172.48 352.31 L 172.67 352.29 L 172.89 351.84 L 172.99 351.80 L 173.25 351.43 L 173.36 351.29 L 173.51 351.06 L 173.65 350.85 L 174.13 347.77 L 174.15 347.69 L 174.17 347.51 L 174.34 346.03 L 182.69 345.92 L 183.56 344.23 L 183.59 344.19 L 184.61 343.93 L 184.70 343.92 L 184.79 343.59 L 185.04 343.42 L 185.16 343.13 L 185.20 342.88 L 185.33 342.44 L 185.63 342.43 L 185.64 342.13 L 185.75 341.80 L 185.87 341.79 L 185.99 341.42 L 186.16 341.16 L 186.22 341.02 L 186.24 341.02 L 186.39 340.73 L 186.41 340.72 L 186.57 340.43 L 186.59 340.43 L 186.83 339.04 L 186.87 339.04 L 186.96 338.80 L 187.06 338.79 L 187.20 338.79 L 187.26 338.76 L 187.73 338.50 L 187.74 338.51 L 187.83 337.89 L 188.03 337.88 L 188.22 336.95 L 188.28 336.87 L 188.37 336.86 L 188.41 336.82 L 188.52 336.11 L 189.04 330.06 L 189.10 329.77 L 189.28 329.75 L 189.33 329.67 L 189.37 329.65 L 189.46 329.49 L 189.54 328.81 L 189.73 328.67 L 189.86 328.65 L 189.96 328.35 L 190.02 328.34 L 190.49 328.12 L 190.75 327.95 L 190.83 327.68 L 191.05 327.66 L 191.07 327.66 L 191.09 327.64 L 191.23 326.19 L 191.34 326.10 L 191.72 324.63 L 191.79 324.21 L 191.86 324.20 L 191.96 324.04 L 191.98 323.93 L 192.02 323.86 L 192.06 323.82 L 192.11 323.81 L 192.16 323.74 L 192.32 322.54 L 192.43 322.36 L 192.54 322.01 L 192.69 321.99 L 192.86 321.88 L 193.03 321.03 L 193.15 319.85 L 193.39 319.79 L 193.39 319.35 L 193.54 319.20 L 205.21 319.21 L 205.43 319.19 L 205.98 318.57 L 206.09 318.56 L 206.18 318.56 L 206.20 318.40 L 206.40 318.21 L 206.54 318.18 L 206.62 318.06 L 206.70 317.98 L 206.75 317.94 L 206.96 317.88 L 207.38 317.81 L 207.48 317.48 L 207.56 317.40 L 207.66 317.39 L 208.21 317.23 L 208.28 317.14 L 208.32 317.14 L 208.35 317.02 L 208.47 316.97 L 208.56 316.85 L 208.95 316.06 L 209.52 315.94 L 209.72 315.89 L 210.35 315.69 L 210.64 311.89 L 210.75 311.81 L 210.87 311.44 L 211.06 310.94 L 211.34 310.80 L 211.74 310.78 L 212.27 310.77 L 212.35 310.60 L 212.73 310.43 L 212.98 310.15 L 213.06 310.04 L 213.21 310.00 L 213.33 309.66 L 214.71 309.29 L 216.02 309.29 L 227.77 309.25 L 227.85 309.09 L 227.91 308.98 L 228.28 308.82 L 229.37 307.51 L 229.42 307.42 L 229.58 307.09 L 230.11 307.00 L 230.37 306.11 L 230.76 306.11 L 230.85 306.09 L 230.93 305.49 L 231.61 302.03 L 231.70 302.03 L 231.84 302.00 L 231.99 301.95 L 232.06 301.58 L 232.44 300.27 L 232.58 300.03 L 232.64 300.02 L 232.73 299.41 L 232.90 298.57 L 232.96 297.67 L 233.14 297.26 L 233.65 292.77 L 233.69 292.32 L 233.74 292.32 L 233.82 292.24 L 233.95 292.12 L 234.00 292.08 L 234.05 292.03 L 234.29 290.96 L 234.35 290.20 L 234.65 290.05 L 234.82 288.92 L 234.93 288.20 L 235.85 277.73 L 235.95 277.70 L 270.47 277.20 L 270.50 277.20 L 283.69 277.06 L 284.41 276.77 L 284.56 276.77 L 284.75 276.69 L 284.82 276.56 L 284.89 276.52 L 290.61 276.45 L 291.37 274.46 L 291.65 274.28 L 291.80 273.55 L 295.36 273.40 L 295.38 273.20 L 295.61 273.18 L 296.67 271.92 L 296.73 271.70 L 296.87 271.62 L 297.24 271.53 L 297.29 271.50 L 297.44 271.12 L 297.60 271.02 L 297.63 270.74 L 308.71 270.35 L 308.80 269.28 L 309.24 269.04 L 309.24 267.25 L 309.32 266.98 L 309.41 266.54 L 309.54 265.30 L 309.72 264.64 L 309.88 263.88 L 310.03 263.87 L 310.08 263.28 L 310.31 263.23 L 311.07 260.34 L 311.38 260.03 L 311.44 259.85 L 311.50 259.84 L 311.54 259.64 L 311.65 258.93 L 311.96 258.59 L 312.01 258.54 L 312.20 256.00 L 312.27 255.99 L 312.30 255.72 L 312.37 255.51 L 312.42 255.50 L 312.46 255.12 L 312.70 253.75 L 312.81 253.35 L 312.94 253.31 L 313.04 249.62 L 313.08 249.33 L 313.32 247.22 L 313.39 247.06 L 313.43 247.06 L 313.49 247.05 L 313.53 246.76 L 313.57 246.76 L 313.58 246.76 L 313.70 243.04 L 313.75 242.72 L 313.87 242.70 L 313.95 242.64 L 314.20 242.53 L 314.51 242.39 L 314.52 242.39 L 314.60 242.34 L 314.89 242.27 L 315.02 242.27 L 315.15 242.27 L 315.30 240.65 L 315.39 240.26 L 315.79 240.26 L 315.82 240.00 L 315.87 240.00 L 315.90 239.72 L 316.16 237.38 L 316.20 237.32 L 316.39 237.31 L 333.45 237.24 L 334.42 237.12 L 334.45 237.12 L 334.64 237.12 L 334.66 237.12 L 334.78 236.65 L 334.88 236.64 L 334.96 236.41 L 335.08 236.35 L 335.11 236.32 L 335.16 236.30 L 335.34 236.04 L 335.71 235.80 L 335.94 235.05 L 336.20 234.33 L 336.21 234.29 L 336.26 233.62 L 336.29 233.60 L 336.80 233.20 L 336.81 233.16 L 336.89 232.63 L 337.11 232.57 L 337.24 232.52 L 337.27 231.57 L 337.28 231.52 L 337.35 232.42 L 337.38 231.87 L 337.40 231.85 L 337.53 230.58 L 337.54 230.54 L 337.81 230.44 L 338.53 230.42 L 338.71 230.37 L 338.76 230.36 L 338.80 230.20 L 338.84 230.20 L 338.94 229.57 L 350.60 228.36 L 350.62 228.19 L 350.72 228.07 L 350.75 227.84 L 350.81 217.24 L 350.94 212.90 L 350.96 212.88 L 351.17 212.79 L 351.22 212.79 L 351.26 212.29 L 351.45 212.24 L 351.95 211.22 L 351.96 211.20 L 352.09 210.88 L 352.14 210.89 L 352.17 210.38 L 352.59 209.77 L 352.60 209.75 L 353.24 209.52 L 353.31 208.98 L 353.54 208.99 L 353.81 207.62 L 353.87 207.08 L 353.92 206.64 L 354.04 206.12 L 354.37 205.93 L 354.43 205.80 L 354.57 205.68 L 354.73 205.68 L 355.22 205.68 L 355.28 205.68 L 355.39 205.65 L 355.40 205.65 L 355.56 205.67 L 355.93 205.64 L 356.31 205.44 L 356.37 205.44 L 356.45 205.36 L 356.56 205.21 L 356.85 205.21 L 357.35 205.02 L 357.51 204.60 L 357.77 200.95 L 358.85 204.03 L 359.08 204.02 L 359.25 204.01 L 359.52 204.00 L 359.60 203.94 L 359.87 203.77 L 360.29 203.52 L 360.35 203.35 L 360.43 203.28 L 360.48 203.30 L 360.52 203.24 L 360.85 203.02 L 368.58 203.01 L 368.65 203.02 L 369.13 203.00 L 369.18 202.98 L 369.28 202.52 L 369.37 202.26 L 369.39 202.26 L 369.65 202.22 L 369.72 202.19 L 371.30 201.51 L 371.49 201.45 L 371.62 201.43 L 371.65 201.43 L 372.14 201.26 L 372.31 201.35 L 372.34 201.34 L 372.60 201.30 L 372.89 199.85 L 372.93 199.84 L 373.17 199.68 L 373.27 199.68 L 373.36 199.68 L 373.56 199.52 L 373.99 198.93 L 374.07 198.91 L 374.15 198.75 L 374.32 198.06 L 374.75 197.35 L 375.13 193.99 L 375.20 193.57 L 375.59 193.41 L 375.66 193.33 L 375.72 193.17 L 375.76 192.62 L 375.89 191.66 L 375.92 191.70 L 375.99 191.68 L 376.21 191.67 L 376.54 191.32 L 376.75 191.25 L 376.99 191.24 L 377.10 191.22 L 377.34 191.21 L 377.73 191.21 L 378.11 191.20 L 378.41 191.20 L 378.48 191.19 L 378.55 191.18 L 378.56 191.06 L 378.79 190.99 L 378.85 190.98 L 378.94 190.83 L 379.58 190.81 L 379.59 190.52 L 379.76 190.51 L 380.50 190.51 L 380.99 190.34 L 381.35 190.12 L 381.36 190.00 L 381.39 190.00 L 392.22 189.80 L 392.25 189.80 L 392.38 189.79 L 392.43 189.62 L 392.47 189.60 L 392.48 189.59 L 392.94 189.54 L 393.04 188.93 L 393.18 188.80 L 393.41 187.60 L 393.56 187.59 L 393.75 187.08 L 393.85 187.14 L 393.90 187.14 L 393.95 186.55 L 394.09 186.16 L 394.11 185.73 L 394.15 185.67 L 394.27 185.64 L 394.35 185.44 L 394.44 187.73 L 394.58 187.69 L 394.84 186.78 L 394.96 186.55 L 395.06 186.36 L 395.73 185.05 L 396.30 184.41 L 396.98 183.20 L 397.15 183.14 L 397.35 183.14 L 397.56 183.09 L 401.54 182.74 L 401.87 182.71 L 439.58 181.79 L 558.31 181.57 L 558.70 181.20 L 558.97 181.15 L 559.25 181.15 L 559.66 180.44 L 559.80 180.09 L 559.91 179.45 L 560.10 177.61 L 560.37 177.99 L 560.59 177.59 L 560.64 177.58 L 560.83 177.46 L 560.87 177.46 L 561.06 176.79 L 561.24 175.71 L 561.78 174.56 L 561.79 174.46 L 561.95 173.09 L 562.46 169.70 L 562.47 169.58 L 562.57 169.51 L 562.69 168.30 L 563.25 166.67 L 563.26 166.51 L 563.38 166.44 L 563.51 165.63 L 563.71 165.00 L 563.73 164.88 L 563.82 163.63 L 563.83 163.61 L 563.88 163.26 L 564.12 161.05 L 564.14 160.92 L 564.22 160.79 L 564.48 160.50 L 564.53 160.49 L 564.73 160.07 L 565.06 160.12 L 565.11 160.06 L 565.15 160.03 L 565.21 160.00 L 565.37 158.70 L 565.55 157.65 L 565.57 157.55 L 565.67 156.23 L 565.77 154.94 L 565.80 154.78 L 565.90 153.27 L 565.95 152.08 L 566.15 151.28 L 566.18 151.22 L 566.28 150.97 L 566.43 150.95 L 567.28 150.91 L 567.70 150.88 L 576.98 150.93 L 577.07 150.70 L 577.16 150.50 L 577.32 149.61 L 577.67 149.38 L 577.70 149.29 L 577.76 148.12 L 577.98 146.98 L 578.01 146.88 L 580.03 146.80 L 580.16 146.16 L 581.18 145.97 L 581.29 145.92 L 581.41 144.60 L 582.64 143.35 L 583.16 142.88 L 583.29 141.91 L 583.74 140.24 L 584.01 139.76 L 584.47 138.78 L 585.28 138.28 L 597.70 138.27 L 598.44 138.16 L 598.47 138.18 L 599.51 137.99 L 599.56 137.89 L 599.92 137.82 L 600.35 136.73 L 600.35 136.73 L 600.40 136.69 L 600.95 135.45 L 602.22 134.74 L 602.31 134.68 L 602.44 134.67 L 602.63 134.34 L 602.69 134.26 L 602.76 134.19 L 603.35 134.15 L 603.83 134.15 L 604.09 134.15 L 604.12 134.10 L 604.65 133.02 L 605.06 132.81 L 605.08 132.73 L 605.13 132.64 L 605.18 132.35 L 618.65 131.93 L 618.68 131.91 L 618.72 131.89 L 618.98 131.77 L 619.18 131.64 L 620.37 129.97 L 620.67 129.77 L 621.52 129.27 L 622.26 129.15 L 622.80 128.99 L 622.96 127.45 L 623.64 125.65 L 623.89 125.52 L 623.98 124.36 L 625.97 122.22 L 625.99 122.22 L 626.10 121.70 L 626.48 121.65 L 626.48 121.65 L 626.51 121.52 L 626.58 121.35 L 626.75 121.18 L 626.96 120.28 L 629.03 118.12 L 629.30 117.86 L 629.48 117.47 L 629.51 117.43 L 629.55 117.13 L 638.73 116.15 L 639.02 115.40 L 639.20 115.37 L 639.26 114.88 L 640.13 114.65 L 640.31 114.16 L 640.47 114.16 L 640.57 113.12 L 640.86 110.49 L 640.90 110.44 L 641.29 110.40 L 641.38 109.54 L 641.71 108.51 L 641.78 107.79 L 642.05 107.14 L 642.25 106.78 L 642.41 106.00 L 642.75 105.33 L 642.79 104.57 L 643.23 104.41 L 643.27 104.41 L 643.34 103.45 L 643.43 103.45 L 643.48 103.37 L 643.99 101.58 L 644.74 100.99 L 645.10 101.19 L 646.32 101.10 L 646.35 101.09 L 646.54 101.08 L 646.62 101.06 L 646.76 100.93 L 646.90 100.83 L 647.07 100.63 L 647.43 100.37 L 647.78 100.36 L 648.86 100.18 L 648.91 100.17 L 650.00 100.00"/>
	</g>
	<g id="poloto_plot1" class="poloto_plot poloto_imgs poloto_line poloto1 poloto_stroke" fill="none" stroke="black">
		<path d=" M 150.00 381.56 L 150.03 381.55 L 150.05 381.54 L 150.06 381.54 L 150.08 381.54 L 150.11 380.95 L 150.24 380.93 L 150.53 380.92 L 150.96 380.70 L 151.18 380.61 L 151.62 380.63 L 151.70 380.59 L 151.75 380.59 L 152.27 380.54 L 153.23 380.43 L 153.53 378.16 L 153.61 378.16 L 154.19 378.10 L 154.85 378.09 L 154.86 378.09 L 154.86 378.09 L 163.87 378.09 L 163.94 378.09 L 164.05 378.09 L 164.10 378.06 L 164.45 378.05 L 164.60 378.05 L 164.98 378.05 L 165.04 378.05 L 165.15 378.03 L 165.26 378.03 L 165.29 378.03 L 165.39 378.00 L 165.49 378.00 L 165.58 378.00 L 165.84 377.88 L 166.06 377.88 L 166.10 377.88 L 166.20 377.88 L 166.92 378.73 L 166.94 378.73 L 167.03 378.72 L 167.43 378.59 L 167.76 378.45 L 168.13 378.38 L 168.21 378.34 L 168.22 378.34 L 168.29 378.34 L 168.43 378.34 L 168.61 378.29 L 168.96 378.24 L 168.99 378.24 L 169.05 378.24 L 169.13 378.21 L 169.34 378.21 L 169.36 378.21 L 169.57 378.21 L 169.65 378.21 L 169.73 378.21 L 169.81 378.21 L 170.91 378.10 L 171.17 378.10 L 171.79 378.05 L 171.92 378.05 L 172.01 378.05 L 172.06 378.05 L 172.48 377.98 L 172.67 377.98 L 172.89 377.90 L 172.99 377.89 L 173.25 377.71 L 173.36 377.64 L 173.51 377.64 L 173.65 377.64 L 174.13 374.97 L 174.15 374.93 L 174.17 374.93 L 174.34 374.67 L 182.69 374.67 L 183.56 373.52 L 183.59 373.52 L 184.61 373.52 L 184.70 373.52 L 184.79 373.40 L 185.04 373.38 L 185.16 373.38 L 185.20 373.38 L 185.33 373.38 L 185.63 373.38 L 185.64 373.13 L 185.75 373.12 L 185.87 373.12 L 185.99 373.09 L 186.16 373.09 L 186.22 373.09 L 186.24 373.09 L 186.39 373.09 L 186.41 373.09 L 186.57 373.09 L 186.59 373.09 L 186.83 371.96 L 186.87 371.96 L 186.96 371.82 L 187.06 371.82 L 187.20 371.82 L 187.26 371.81 L 187.73 371.80 L 187.74 371.80 L 187.83 371.74 L 188.03 371.74 L 188.22 371.09 L 188.28 371.01 L 188.37 371.01 L 188.41 371.01 L 188.52 370.99 L 189.04 366.23 L 189.10 366.27 L 189.28 366.27 L 189.33 366.27 L 189.37 366.26 L 189.46 366.26 L 189.54 366.20 L 189.73 366.20 L 189.86 366.20 L 189.96 366.19 L 190.02 366.19 L 190.49 366.18 L 190.75 366.18 L 190.83 366.06 L 191.05 366.06 L 191.07 366.06 L 191.09 366.06 L 191.23 365.74 L 191.34 365.66 L 191.72 364.52 L 191.79 364.52 L 191.86 364.52 L 191.96 364.54 L 191.98 364.54 L 192.02 364.54 L 192.06 364.54 L 192.11 364.54 L 192.16 364.54 L 192.32 364.52 L 192.43 364.52 L 192.54 364.50 L 192.69 364.50 L 192.86 364.50 L 193.03 364.07 L 193.15 363.93 L 193.39 363.93 L 193.39 363.93 L 193.54 363.93 L 205.21 363.93 L 205.43 363.92 L 205.98 363.85 L 206.09 363.84 L 206.18 363.84 L 206.20 363.84 L 206.40 363.84 L 206.54 363.84 L 206.62 363.84 L 206.70 363.84 L 206.75 363.83 L 206.96 363.83 L 207.38 363.85 L 207.48 363.85 L 207.56 363.85 L 207.66 363.85 L 208.21 363.76 L 208.28 363.72 L 208.32 363.72 L 208.35 363.66 L 208.47 363.66 L 208.56 363.65 L 208.95 363.22 L 209.52 363.22 L 209.72 363.22 L 210.35 363.22 L 210.64 360.31 L 210.75 360.30 L 210.87 360.30 L 211.06 360.30 L 211.34 360.30 L 211.74 360.30 L 212.27 360.30 L 212.35 360.30 L 212.73 360.23 L 212.98 360.11 L 213.06 360.11 L 213.21 360.11 L 213.33 360.09 L 214.71 359.91 L 216.02 359.91 L 227.77 359.91 L 227.85 359.91 L 227.91 359.91 L 228.28 359.91 L 229.37 358.99 L 229.42 358.96 L 229.58 358.86 L 230.11 358.86 L 230.37 358.64 L 230.76 358.64 L 230.85 358.64 L 230.93 358.64 L 231.61 356.08 L 231.70 356.08 L 231.84 356.08 L 231.99 356.08 L 232.06 355.92 L 232.44 355.61 L 232.58 355.61 L 232.64 355.61 L 232.73 355.14 L 232.90 354.67 L 232.96 354.67 L 233.14 354.66 L 233.65 350.85 L 233.69 350.85 L 233.74 350.85 L 233.82 350.85 L 233.95 350.85 L 234.00 350.85 L 234.05 350.85 L 234.29 350.85 L 234.35 350.77 L 234.65 350.75 L 234.82 350.70 L 234.93 350.24 L 235.85 342.65 L 235.95 342.65 L 270.47 342.65 L 270.50 342.65 L 283.69 342.65 L 284.41 342.54 L 284.56 342.54 L 284.75 342.54 L 284.82 342.54 L 284.89 342.54 L 290.61 342.48 L 291.37 342.41 L 291.65 342.41 L 291.80 342.38 L 295.36 342.32 L 295.38 342.22 L 295.61 342.22 L 296.67 341.19 L 296.73 341.19 L 296.87 341.19 L 297.24 341.19 L 297.29 341.19 L 297.44 341.19 L 297.60 341.19 L 297.63 341.19 L 308.71 341.17 L 308.80 340.99 L 309.24 340.99 L 309.24 339.75 L 309.32 339.75 L 309.41 339.75 L 309.54 339.64 L 309.72 339.64 L 309.88 339.58 L 310.03 339.58 L 310.08 339.58 L 310.31 339.57 L 311.07 337.47 L 311.38 337.46 L 311.44 337.45 L 311.50 337.45 L 311.54 337.45 L 311.65 337.42 L 311.96 337.16 L 312.01 337.12 L 312.20 335.23 L 312.27 335.22 L 312.30 335.22 L 312.37 335.20 L 312.42 335.20 L 312.46 335.19 L 312.70 334.16 L 312.81 334.15 L 312.94 334.13 L 313.04 330.93 L 313.08 330.93 L 313.32 329.12 L 313.39 329.12 L 313.43 329.12 L 313.49 329.12 L 313.53 329.12 L 313.57 329.12 L 313.58 329.12 L 313.70 325.79 L 313.75 325.79 L 313.87 325.77 L 313.95 325.77 L 314.20 325.71 L 314.51 325.62 L 314.52 325.62 L 314.60 325.60 L 314.89 325.54 L 315.02 325.54 L 315.15 325.54 L 315.30 324.11 L 315.39 324.11 L 315.79 324.10 L 315.82 324.09 L 315.87 324.09 L 315.90 324.09 L 316.16 322.04 L 316.20 322.04 L 316.39 322.03 L 333.45 322.03 L 334.42 322.02 L 334.45 322.02 L 334.64 322.02 L 334.66 322.02 L 334.78 322.02 L 334.88 322.02 L 334.96 321.91 L 335.08 321.91 L 335.11 321.91 L 335.16 321.91 L 335.34 321.73 L 335.71 321.61 L 335.94 321.49 L 336.20 320.91 L 336.21 320.91 L 336.26 320.76 L 336.29 320.75 L 336.80 320.39 L 336.81 320.39 L 336.89 320.34 L 337.11 320.34 L 337.24 320.31 L 337.27 319.46 L 337.28 319.46 L 337.35 320.30 L 337.38 320.25 L 337.40 320.24 L 337.53 319.10 L 337.54 319.10 L 337.81 319.05 L 338.53 319.05 L 338.71 319.05 L 338.76 319.05 L 338.80 319.05 L 338.84 319.05 L 338.94 318.97 L 350.60 318.03 L 350.62 318.03 L 350.72 318.02 L 350.75 317.82 L 350.81 307.69 L 350.94 303.93 L 350.96 303.93 L 351.17 303.86 L 351.22 303.86 L 351.26 303.84 L 351.45 303.84 L 351.95 302.92 L 351.96 302.92 L 352.09 302.87 L 352.14 302.87 L 352.17 302.79 L 352.59 302.25 L 352.60 302.25 L 353.24 302.13 L 353.31 302.09 L 353.54 302.10 L 353.81 300.86 L 353.87 300.74 L 353.92 300.62 L 354.04 300.15 L 354.37 300.04 L 354.43 299.94 L 354.57 299.94 L 354.73 299.94 L 355.22 299.94 L 355.28 299.94 L 355.39 299.94 L 355.40 299.94 L 355.56 299.95 L 355.93 299.95 L 356.31 299.82 L 356.37 299.82 L 356.45 299.81 L 356.56 299.81 L 356.85 299.81 L 357.35 299.81 L 357.51 299.70 L 357.77 296.43 L 358.85 299.51 L 359.08 299.50 L 359.25 299.49 L 359.52 299.49 L 359.60 299.45 L 359.87 299.43 L 360.29 299.25 L 360.35 299.25 L 360.43 299.25 L 360.48 299.25 L 360.52 299.25 L 360.85 299.07 L 368.58 299.07 L 368.65 299.07 L 369.13 299.06 L 369.18 299.06 L 369.28 299.03 L 369.37 298.80 L 369.39 298.79 L 369.65 298.77 L 369.72 298.77 L 371.30 298.58 L 371.49 298.58 L 371.62 298.58 L 371.65 298.58 L 372.14 298.45 L 372.31 298.45 L 372.34 298.45 L 372.60 298.44 L 372.89 297.67 L 372.93 297.67 L 373.17 297.54 L 373.27 297.54 L 373.36 297.54 L 373.56 297.54 L 373.99 297.53 L 374.07 297.51 L 374.15 297.44 L 374.32 297.31 L 374.75 297.19 L 375.13 294.10 L 375.20 294.00 L 375.59 293.85 L 375.66 293.82 L 375.72 293.71 L 375.76 293.49 L 375.89 292.57 L 375.92 292.61 L 375.99 292.59 L 376.21 292.59 L 376.54 292.46 L 376.75 292.41 L 376.99 292.40 L 377.10 292.39 L 377.34 292.37 L 377.73 292.37 L 378.11 292.37 L 378.41 292.36 L 378.48 292.36 L 378.55 292.35 L 378.56 292.35 L 378.79 292.35 L 378.85 292.34 L 378.94 292.22 L 379.58 292.21 L 379.59 292.21 L 379.76 292.20 L 380.50 292.19 L 380.99 292.04 L 381.35 291.91 L 381.36 291.91 L 381.39 291.91 L 392.22 291.91 L 392.25 291.91 L 392.38 291.91 L 392.43 291.91 L 392.47 291.89 L 392.48 291.89 L 392.94 291.89 L 393.04 291.88 L 393.18 291.86 L 393.41 291.84 L 393.56 291.84 L 393.75 291.76 L 393.85 291.76 L 393.90 291.76 L 393.95 291.76 L 394.09 291.48 L 394.11 291.48 L 394.15 291.48 L 394.27 291.48 L 394.35 291.48 L 394.44 291.55 L 394.58 291.55 L 394.84 291.54 L 394.96 291.54 L 395.06 291.54 L 395.73 290.63 L 396.30 290.39 L 396.98 289.74 L 397.15 289.74 L 397.35 289.74 L 397.56 289.74 L 401.54 289.66 L 401.87 289.66 L 439.58 289.54 L 558.31 289.38 L 558.70 289.32 L 558.97 289.32 L 559.25 289.32 L 559.66 288.90 L 559.80 288.90 L 559.91 288.90 L 560.10 287.38 L 560.37 287.67 L 560.59 287.65 L 560.64 287.65 L 560.83 287.64 L 560.87 287.64 L 561.06 287.63 L 561.24 287.56 L 561.78 286.60 L 561.79 286.60 L 561.95 286.52 L 562.46 283.41 L 562.47 283.41 L 562.57 283.41 L 562.69 283.36 L 563.25 281.91 L 563.26 281.91 L 563.38 281.91 L 563.51 281.88 L 563.71 281.35 L 563.73 281.35 L 563.82 281.34 L 563.83 281.34 L 563.88 281.05 L 564.12 278.99 L 564.14 278.99 L 564.22 278.99 L 564.48 278.82 L 564.53 278.82 L 564.73 278.48 L 565.06 278.48 L 565.11 278.48 L 565.15 278.48 L 565.21 278.48 L 565.37 278.47 L 565.55 277.55 L 565.57 277.55 L 565.67 277.54 L 565.77 276.84 L 565.80 276.84 L 565.90 276.10 L 565.95 276.05 L 566.15 275.32 L 566.18 275.32 L 566.28 275.32 L 566.43 275.30 L 567.28 275.30 L 567.70 275.30 L 576.98 275.30 L 577.07 275.30 L 577.16 275.30 L 577.32 275.30 L 577.67 275.10 L 577.70 275.10 L 577.76 275.04 L 577.98 274.01 L 578.01 274.01 L 580.03 274.03 L 580.16 273.83 L 581.18 273.83 L 581.29 273.83 L 581.41 273.75 L 582.64 272.91 L 583.16 272.75 L 583.29 272.69 L 583.74 271.08 L 584.01 271.08 L 584.47 270.95 L 585.28 270.95 L 597.70 270.95 L 598.44 270.85 L 598.47 270.87 L 599.51 270.87 L 599.56 270.87 L 599.92 270.87 L 600.35 270.84 L 600.35 270.84 L 600.40 270.84 L 600.95 269.90 L 602.22 269.87 L 602.31 269.87 L 602.44 269.87 L 602.63 269.83 L 602.69 269.80 L 602.76 269.80 L 603.35 269.76 L 603.83 269.76 L 604.09 269.76 L 604.12 269.76 L 604.65 269.74 L 605.06 269.63 L 605.08 269.63 L 605.13 269.63 L 605.18 269.63 L 618.65 269.41 L 618.68 269.41 L 618.72 269.41 L 618.98 269.41 L 619.18 269.41 L 620.37 268.48 L 620.67 268.43 L 621.52 268.36 L 622.26 268.31 L 622.80 268.31 L 622.96 268.31 L 623.64 266.91 L 623.89 266.87 L 623.98 266.82 L 625.97 265.84 L 625.99 265.84 L 626.10 265.83 L 626.48 265.81 L 626.48 265.81 L 626.51 265.81 L 626.58 265.78 L 626.75 265.74 L 626.96 265.63 L 629.03 264.01 L 629.30 263.93 L 629.48 263.93 L 629.51 263.93 L 629.55 263.93 L 638.73 263.93 L 639.02 263.92 L 639.20 263.92 L 639.26 263.92 L 640.13 263.92 L 640.31 263.92 L 640.47 263.92 L 640.57 263.89 L 640.86 261.76 L 640.90 261.74 L 641.29 261.75 L 641.38 261.74 L 641.71 260.91 L 641.78 260.87 L 642.05 260.33 L 642.25 260.33 L 642.41 260.28 L 642.75 259.79 L 642.79 259.78 L 643.23 258.21 L 643.27 258.21 L 643.34 258.20 L 643.43 258.20 L 643.48 258.20 L 643.99 256.61 L 644.74 256.47 L 645.10 256.47 L 646.32 256.43 L 646.35 256.43 L 646.54 256.43 L 646.62 256.43 L 646.76 256.43 L 646.90 256.43 L 647.07 256.41 L 647.43 256.39 L 647.78 256.39 L 648.86 256.32 L 648.91 256.32 L 650.00 256.27"/>
	</g>
	<g id="poloto_plot2" class="poloto_plot poloto_imgs poloto_line poloto2 poloto_stroke" fill="none" stroke="black">
		<path d=" M 150.00 391.73 L 150.03 391.72 L 150.05 391.72 L 150.06 391.72 L 150.08 391.72 L 150.11 389.60 L 150.24 389.32 L 150.53 389.31 L 150.96 389.30 L 151.18 388.03 L 151.62 387.92 L 151.70 387.88 L 151.75 387.85 L 152.27 387.28 L 153.23 386.84 L 153.53 386.75 L 153.61 386.76 L 154.19 386.72 L 154.85 386.72 L 154.86 386.72 L 154.86 386.72 L 163.87 386.72 L 163.94 386.72 L 164.05 386.70 L 164.10 386.70 L 164.45 386.57 L 164.60 386.54 L 164.98 386.33 L 165.04 386.24 L 165.15 386.05 L 165.26 386.03 L 165.29 386.02 L 165.39 385.99 L 165.49 385.99 L 165.58 385.99 L 165.84 385.78 L 166.06 385.58 L 166.10 385.59 L 166.20 385.47 L 166.92 385.22 L 166.94 385.21 L 167.03 385.14 L 167.43 384.85 L 167.76 384.51 L 168.13 384.37 L 168.21 384.37 L 168.22 384.37 L 168.29 384.18 L 168.43 384.18 L 168.61 384.15 L 168.96 384.01 L 168.99 383.76 L 169.05 383.76 L 169.13 383.64 L 169.34 383.64 L 169.36 383.64 L 169.57 383.27 L 169.65 383.25 L 169.73 383.22 L 169.81 383.04 L 170.91 382.94 L 171.17 382.90 L 171.79 382.65 L 171.92 382.65 L 172.01 382.63 L 172.06 382.44 L 172.48 381.41 L 172.67 381.39 L 172.89 381.08 L 172.99 381.05 L 173.25 380.91 L 173.36 380.86 L 173.51 380.64 L 173.65 380.46 L 174.13 380.46 L 174.15 380.43 L 174.17 380.29 L 174.34 379.29 L 182.69 379.18 L 183.56 378.88 L 183.59 378.84 L 184.61 378.59 L 184.70 378.59 L 184.79 378.40 L 185.04 378.28 L 185.16 378.05 L 185.20 377.86 L 185.33 377.49 L 185.63 377.48 L 185.64 377.48 L 185.75 377.22 L 185.87 377.22 L 185.99 376.95 L 186.16 376.73 L 186.22 376.61 L 186.24 376.61 L 186.39 376.36 L 186.41 376.35 L 186.57 376.12 L 186.59 376.12 L 186.83 376.04 L 186.87 376.04 L 186.96 375.95 L 187.06 375.94 L 187.20 375.94 L 187.26 375.92 L 187.73 375.69 L 187.74 375.70 L 187.83 375.25 L 188.03 375.24 L 188.22 375.10 L 188.28 375.10 L 188.37 375.09 L 188.41 375.06 L 188.52 374.44 L 189.04 373.92 L 189.10 373.63 L 189.28 373.61 L 189.33 373.54 L 189.37 373.53 L 189.46 373.39 L 189.54 372.90 L 189.73 372.83 L 189.86 372.82 L 189.96 372.57 L 190.02 372.56 L 190.49 372.38 L 190.75 372.25 L 190.83 372.14 L 191.05 372.13 L 191.07 372.13 L 191.09 372.10 L 191.23 371.22 L 191.34 371.21 L 191.72 371.08 L 191.79 370.73 L 191.86 370.73 L 191.96 370.58 L 191.98 370.50 L 192.02 370.44 L 192.06 370.40 L 192.11 370.40 L 192.16 370.33 L 192.32 369.33 L 192.43 369.23 L 192.54 368.93 L 192.69 368.91 L 192.86 368.82 L 193.03 368.51 L 193.15 367.64 L 193.39 367.58 L 193.39 367.21 L 193.54 367.12 L 205.21 367.12 L 205.43 367.12 L 205.98 366.71 L 206.09 366.71 L 206.18 366.71 L 206.20 366.61 L 206.40 366.43 L 206.54 366.40 L 206.62 366.29 L 206.70 366.22 L 206.75 366.18 L 206.96 366.13 L 207.38 366.21 L 207.48 365.94 L 207.56 365.86 L 207.66 365.85 L 208.21 365.80 L 208.28 365.75 L 208.32 365.75 L 208.35 365.70 L 208.47 365.66 L 208.56 365.55 L 208.95 365.30 L 209.52 365.19 L 209.72 365.14 L 210.35 364.98 L 210.64 364.57 L 210.75 364.51 L 210.87 364.19 L 211.06 363.79 L 211.34 363.68 L 211.74 363.67 L 212.27 363.65 L 212.35 363.50 L 212.73 363.40 L 212.98 363.28 L 213.06 363.17 L 213.21 363.13 L 213.33 362.86 L 214.71 362.73 L 216.02 362.73 L 227.77 362.70 L 227.85 362.55 L 227.91 362.45 L 228.28 362.30 L 229.37 362.03 L 229.42 362.00 L 229.58 361.81 L 230.11 361.73 L 230.37 361.21 L 230.76 361.19 L 230.85 361.17 L 230.93 360.66 L 231.61 360.18 L 231.70 360.17 L 231.84 360.15 L 231.99 360.10 L 232.06 359.93 L 232.44 359.12 L 232.58 358.92 L 232.64 358.90 L 232.73 358.82 L 232.90 358.51 L 232.96 357.70 L 233.14 357.37 L 233.65 357.18 L 233.69 356.78 L 233.74 356.78 L 233.82 356.71 L 233.95 356.60 L 234.00 356.57 L 234.05 356.53 L 234.29 355.60 L 234.35 355.04 L 234.65 354.94 L 234.82 354.01 L 234.93 353.83 L 235.85 352.36 L 235.95 352.33 L 270.47 351.91 L 270.50 351.91 L 283.69 351.79 L 284.41 351.63 L 284.56 351.63 L 284.75 351.55 L 284.82 351.43 L 284.89 351.41 L 290.61 351.39 L 291.37 349.71 L 291.65 349.56 L 291.80 348.98 L 295.36 348.91 L 295.38 348.85 L 295.61 348.84 L 296.67 348.74 L 296.73 348.55 L 296.87 348.48 L 297.24 348.39 L 297.29 348.37 L 297.44 348.04 L 297.60 347.94 L 297.63 347.69 L 308.71 347.38 L 308.80 346.61 L 309.24 346.41 L 309.24 346.12 L 309.32 345.89 L 309.41 345.53 L 309.54 344.61 L 309.72 344.10 L 309.88 343.44 L 310.03 343.44 L 310.08 342.93 L 310.31 342.90 L 311.07 342.42 L 311.38 342.19 L 311.44 342.06 L 311.50 342.05 L 311.54 341.89 L 311.65 341.31 L 311.96 341.25 L 312.01 341.25 L 312.20 340.88 L 312.27 340.88 L 312.30 340.66 L 312.37 340.53 L 312.42 340.52 L 312.46 340.22 L 312.70 340.04 L 312.81 339.75 L 312.94 339.73 L 313.04 339.58 L 313.08 339.35 L 313.32 339.22 L 313.39 339.09 L 313.43 339.09 L 313.49 339.09 L 313.53 338.86 L 313.57 338.87 L 313.58 338.86 L 313.70 338.78 L 313.75 338.52 L 313.87 338.52 L 313.95 338.46 L 314.20 338.44 L 314.51 338.41 L 314.52 338.41 L 314.60 338.40 L 314.89 338.39 L 315.02 338.39 L 315.15 338.39 L 315.30 338.35 L 315.39 338.04 L 315.79 338.04 L 315.82 337.86 L 315.87 337.86 L 315.90 337.65 L 316.16 337.58 L 316.20 337.53 L 316.39 337.53 L 333.45 337.47 L 334.42 337.39 L 334.45 337.39 L 334.64 337.39 L 334.66 337.39 L 334.78 337.02 L 334.88 337.01 L 334.96 336.91 L 335.08 336.86 L 335.11 336.82 L 335.16 336.80 L 335.34 336.77 L 335.71 336.70 L 335.94 336.21 L 336.20 336.18 L 336.21 336.15 L 336.26 335.75 L 336.29 335.74 L 336.80 335.74 L 336.81 335.70 L 336.89 335.33 L 337.11 335.28 L 337.24 335.26 L 337.27 335.25 L 337.28 335.21 L 337.35 335.18 L 337.38 334.80 L 337.40 334.79 L 337.53 334.79 L 337.54 334.76 L 337.81 334.72 L 338.53 334.70 L 338.71 334.67 L 338.76 334.66 L 338.80 334.54 L 338.84 334.54 L 338.94 334.11 L 350.60 333.97 L 350.62 333.85 L 350.72 333.76 L 350.75 333.75 L 350.81 333.38 L 350.94 333.28 L 350.96 333.26 L 351.17 333.26 L 351.22 333.26 L 351.26 332.89 L 351.45 332.85 L 351.95 332.83 L 351.96 332.81 L 352.09 332.61 L 352.14 332.62 L 352.17 332.28 L 352.59 332.28 L 352.60 332.26 L 353.24 332.17 L 353.31 331.77 L 353.54 331.77 L 353.81 331.76 L 353.87 331.46 L 353.92 331.23 L 354.04 331.22 L 354.37 331.17 L 354.43 331.15 L 354.57 331.06 L 354.73 331.06 L 355.22 331.06 L 355.28 331.06 L 355.39 331.04 L 355.40 331.04 L 355.56 331.04 L 355.93 331.01 L 356.31 330.97 L 356.37 330.97 L 356.45 330.93 L 356.56 330.82 L 356.85 330.82 L 357.35 330.68 L 357.51 330.46 L 357.77 330.43 L 358.85 330.18 L 359.08 330.18 L 359.25 330.18 L 359.52 330.17 L 359.60 330.15 L 359.87 330.03 L 360.29 330.01 L 360.35 329.90 L 360.43 329.85 L 360.48 329.86 L 360.52 329.82 L 360.85 329.80 L 368.58 329.79 L 368.65 329.79 L 369.13 329.79 L 369.18 329.78 L 369.28 329.44 L 369.37 329.42 L 369.39 329.43 L 369.65 329.42 L 369.72 329.40 L 371.30 328.90 L 371.49 328.85 L 371.62 328.84 L 371.65 328.83 L 372.14 328.82 L 372.31 328.89 L 372.34 328.89 L 372.60 328.85 L 372.89 328.38 L 372.93 328.37 L 373.17 328.36 L 373.27 328.36 L 373.36 328.36 L 373.56 328.26 L 373.99 327.83 L 374.07 327.83 L 374.15 327.76 L 374.32 327.37 L 374.75 326.94 L 375.13 326.97 L 375.20 326.73 L 375.59 326.73 L 375.66 326.71 L 375.72 326.68 L 375.76 326.45 L 375.89 326.45 L 375.92 326.45 L 375.99 326.45 L 376.21 326.45 L 376.54 326.26 L 376.75 326.24 L 376.99 326.24 L 377.10 326.24 L 377.34 326.24 L 377.73 326.24 L 378.11 326.24 L 378.41 326.24 L 378.48 326.24 L 378.55 326.23 L 378.56 326.15 L 378.79 326.10 L 378.85 326.10 L 378.94 326.08 L 379.58 326.08 L 379.59 325.85 L 379.76 325.85 L 380.50 325.86 L 380.99 325.85 L 381.35 325.81 L 381.36 325.71 L 381.39 325.71 L 392.22 325.57 L 392.25 325.56 L 392.38 325.55 L 392.43 325.41 L 392.47 325.41 L 392.48 325.40 L 392.94 325.36 L 393.04 324.90 L 393.18 324.81 L 393.41 323.91 L 393.56 323.90 L 393.75 323.52 L 393.85 323.56 L 393.90 323.56 L 393.95 323.07 L 394.09 322.98 L 394.11 322.64 L 394.15 322.59 L 394.27 322.56 L 394.35 322.39 L 394.44 324.41 L 394.58 324.37 L 394.84 323.56 L 394.96 323.39 L 395.06 323.21 L 395.73 322.89 L 396.30 322.55 L 396.98 322.08 L 397.15 322.02 L 397.35 322.02 L 397.56 321.98 L 401.54 321.74 L 401.87 321.72 L 439.58 321.09 L 558.31 321.07 L 558.70 320.79 L 558.97 320.74 L 559.25 320.74 L 559.66 320.49 L 559.80 320.19 L 559.91 319.63 L 560.10 319.49 L 560.37 319.54 L 560.59 319.22 L 560.64 319.21 L 560.83 319.11 L 560.87 319.11 L 561.06 318.57 L 561.24 317.75 L 561.78 317.67 L 561.79 317.58 L 561.95 316.52 L 562.46 316.48 L 562.47 316.37 L 562.57 316.31 L 562.69 315.35 L 563.25 315.30 L 563.26 315.16 L 563.38 315.09 L 563.51 314.46 L 563.71 314.44 L 563.73 314.34 L 563.82 313.28 L 563.83 313.26 L 563.88 313.22 L 564.12 313.22 L 564.14 313.11 L 564.22 313.04 L 564.48 312.94 L 564.53 312.93 L 564.73 312.88 L 565.06 312.92 L 565.11 312.87 L 565.15 312.85 L 565.21 312.81 L 565.37 311.72 L 565.55 311.70 L 565.57 311.60 L 565.67 310.48 L 565.77 310.08 L 565.80 309.93 L 565.90 309.39 L 565.95 308.44 L 566.15 308.42 L 566.18 308.37 L 566.28 308.18 L 566.43 308.17 L 567.28 308.14 L 567.70 308.12 L 576.98 308.16 L 577.07 307.95 L 577.16 307.79 L 577.32 307.03 L 577.67 307.02 L 577.70 306.94 L 577.76 305.99 L 577.98 305.98 L 578.01 305.89 L 580.03 305.79 L 580.16 305.45 L 581.18 305.28 L 581.29 305.24 L 581.41 304.18 L 582.64 303.88 L 583.16 303.62 L 583.29 302.83 L 583.74 302.82 L 584.01 302.38 L 584.47 301.69 L 585.28 301.28 L 597.70 301.28 L 598.44 301.26 L 598.47 301.26 L 599.51 301.11 L 599.56 301.02 L 599.92 300.96 L 600.35 300.07 L 600.35 300.07 L 600.40 300.03 L 600.95 299.85 L 602.22 299.25 L 602.31 299.19 L 602.44 299.18 L 602.63 298.93 L 602.69 298.90 L 602.76 298.85 L 603.35 298.85 L 603.83 298.85 L 604.09 298.85 L 604.12 298.81 L 604.65 297.90 L 605.06 297.82 L 605.08 297.75 L 605.13 297.67 L 605.18 297.44 L 618.65 297.27 L 618.68 297.25 L 618.72 297.23 L 618.98 297.12 L 619.18 297.01 L 620.37 296.50 L 620.67 296.40 L 621.52 296.01 L 622.26 295.95 L 622.80 295.79 L 622.96 294.46 L 623.64 294.24 L 623.89 294.17 L 623.98 293.21 L 625.97 292.28 L 625.99 292.28 L 626.10 291.86 L 626.48 291.82 L 626.48 291.82 L 626.51 291.71 L 626.58 291.59 L 626.75 291.49 L 626.96 290.84 L 629.03 290.49 L 629.30 290.34 L 629.48 289.98 L 629.51 289.95 L 629.55 289.71 L 638.73 288.87 L 639.02 288.27 L 639.20 288.25 L 639.26 287.84 L 640.13 287.67 L 640.31 287.24 L 640.47 287.24 L 640.57 286.35 L 640.86 286.13 L 640.90 286.11 L 641.29 286.05 L 641.38 285.32 L 641.71 285.23 L 641.78 284.65 L 642.05 284.59 L 642.25 284.26 L 642.41 283.61 L 642.75 283.48 L 642.79 282.82 L 643.23 284.31 L 643.27 284.31 L 643.34 283.47 L 643.43 283.47 L 643.48 283.40 L 643.99 283.32 L 644.74 282.97 L 645.10 283.15 L 646.32 283.12 L 646.35 283.11 L 646.54 283.10 L 646.62 283.08 L 646.76 282.97 L 646.90 282.86 L 647.07 282.71 L 647.43 282.49 L 647.78 282.48 L 648.86 282.38 L 648.91 282.37 L 650.00 282.25"/>
	</g>
	<g class="poloto_legend poloto_imgs poloto_line poloto0 poloto_stroke"><line x1="680" x2="730" y1="81.25" y2="81.25"/></g>
	<g class="poloto_legend poloto_imgs poloto_line poloto1 poloto_stroke"><line x1="680" x2="730" y1="131.25" y2="131.25"/></g>
	<g class="poloto_legend poloto_imgs poloto_line poloto2 poloto_stroke"><line x1="680" x2="730" y1="181.25" y2="181.25"/></g>
	<text class="poloto_legend poloto_text poloto_line poloto0" x="675" y="100">total</text>
	<text class="poloto_legend poloto_text poloto_line poloto1" x="675" y="150">code</text>
	<text class="poloto_legend poloto_text poloto_line poloto2" x="675" y="200">docs</text>
	<text class="poloto_text poloto_name poloto_title" x="400.00" y="37.50">Workspace lines over time</text>
	<text class="poloto_text poloto_name poloto_x" x="400.00" y="640">date (JST)</text>
	<text class="poloto_text poloto_name poloto_y" x="37.50" y="250.00" transform="rotate(-90,37.50,250.00)">lines</text>
	<text class="poloto_text poloto_ticks poloto_y">
		<tspan x="135.00" y="400.00">0</tspan>
		<tspan x="135.00" y="321.36">50K</tspan>
		<tspan x="135.00" y="242.73">100K</tspan>
		<tspan x="135.00" y="164.09">150K</tspan>
	</text>
	<g class="poloto_imgs poloto_ticks poloto_y" stroke="black">
		<line x1="150.00" x2="144.00" y1="400.00" y2="400.00"/>
		<line x1="150.00" x2="144.00" y1="321.36" y2="321.36"/>
		<line x1="150.00" x2="144.00" y1="242.73" y2="242.73"/>
		<line x1="150.00" x2="144.00" y1="164.09" y2="164.09"/>
	</g>
	<g class="poloto_text poloto_ticks poloto_x">
		<text x="227.62" y="430.00" text-anchor="end" transform="rotate(-90 227.62 430.00)">2026-04-24 12:06</text>
		<text x="347.09" y="430.00" text-anchor="end" transform="rotate(-90 347.09 430.00)">2026-04-30 07:00</text>
		<text x="466.57" y="430.00" text-anchor="end" transform="rotate(-90 466.57 430.00)">2026-05-06 01:53</text>
		<text x="586.05" y="430.00" text-anchor="end" transform="rotate(-90 586.05 430.00)">2026-05-11 20:46</text>
	</g>
	<g class="poloto_imgs poloto_ticks poloto_x" stroke="black">
		<line x1="227.62" x2="227.62" y1="400.00" y2="405.00"/>
		<line x1="347.09" x2="347.09" y1="400.00" y2="405.00"/>
		<line x1="466.57" x2="466.57" y1="400.00" y2="405.00"/>
		<line x1="586.05" x2="586.05" y1="400.00" y2="405.00"/>
	</g>
	<path class="poloto_imgs poloto_ticks poloto_x" stroke="black" style="stroke-dasharray:11.947602594063476;stroke-dashoffset:-77.61712234822335;" d=" M 150.00 400.00 L 650.00 400.00"/>
	<path class="poloto_imgs poloto_ticks poloto_y" stroke="black" style="stroke-dasharray:7.8635310399781915;stroke-dashoffset:-0;" d=" M 150.00 400.00 L 150.00 100.00"/>
</svg>

