<svg class="poloto" width="800" height="680" viewBox="0 0 800 680" xmlns="http://www.w3.org/2000/svg">
	<style>
.poloto{
  stroke-linecap:round;
  stroke-linejoin:round;
  font-family:Roboto,sans-serif;
  font-size:16px;
}
.poloto_background{fill:AliceBlue;}
.poloto_scatter{stroke-width:7}
.poloto_line{stroke-width:2}
.poloto_text{fill: black;}
.poloto_name{font-size:24px;dominant-baseline:auto;text-anchor:middle;}
.poloto_where{dominant-baseline:middle;text-anchor:start}
.poloto_text.poloto_legend{font-size:20px;dominant-baseline:middle;text-anchor:start;}
.poloto_text.poloto_ticks.poloto_y{dominant-baseline:middle;text-anchor:end}
.poloto_text.poloto_ticks.poloto_x{dominant-baseline:auto;text-anchor:middle}
.poloto_imgs.poloto_ticks{stroke: black;stroke-width:3;fill:none;stroke-dasharray:none}
.poloto_grid{stroke:gray;stroke-width:0.5}

.poloto0.poloto_stroke{stroke:blue;}
.poloto1.poloto_stroke{stroke:red;}
.poloto2.poloto_stroke{stroke:green;}
.poloto3.poloto_stroke{stroke:gold;}
.poloto4.poloto_stroke{stroke:aqua;}
.poloto5.poloto_stroke{stroke:lime;}
.poloto6.poloto_stroke{stroke:orange;}
.poloto7.poloto_stroke{stroke:chocolate;}
.poloto0.poloto_fill{fill:blue;}
.poloto1.poloto_fill{fill:red;}
.poloto2.poloto_fill{fill:green;}
.poloto3.poloto_fill{fill:gold;}
.poloto4.poloto_fill{fill:aqua;}
.poloto5.poloto_fill{fill:lime;}
.poloto6.poloto_fill{fill:orange;}
.poloto7.poloto_fill{fill:chocolate;}
	</style>
	<circle r="1e5" class="poloto_background" fill="white"/>
	<g id="poloto_plot0" class="poloto_plot poloto_imgs poloto_line poloto0 poloto_stroke" fill="none" stroke="black">
		<path d=" M 150.00 366.98 L 150.03 366.96 L 150.05 366.94 L 150.06 366.94 L 150.09 366.94 L 150.12 363.35 L 150.25 362.92 L 150.56 362.90 L 151.01 362.61 L 151.23 360.79 L 151.69 360.67 L 151.77 360.58 L 151.83 360.54 L 152.37 359.65 L 153.37 358.93 L 153.68 356.11 L 153.76 356.12 L 154.37 356.01 L 155.07 355.99 L 155.07 355.99 L 155.08 355.99 L 164.48 355.99 L 164.55 355.99 L 164.67 355.97 L 164.72 355.93 L 165.08 355.77 L 165.24 355.73 L 165.64 355.47 L 165.69 355.35 L 165.81 355.10 L 165.93 355.06 L 165.96 355.06 L 166.06 354.99 L 166.16 354.99 L 166.27 354.99 L 166.53 354.58 L 166.76 354.32 L 166.80 354.32 L 166.91 354.17 L 167.66 354.81 L 167.68 354.81 L 167.77 354.70 L 168.20 354.22 L 168.54 353.65 L 168.93 353.39 L 169.01 353.35 L 169.02 353.35 L 169.09 353.13 L 169.24 353.13 L 169.43 353.05 L 169.79 352.83 L 169.82 352.50 L 169.88 352.50 L 169.97 352.32 L 170.19 352.32 L 170.21 352.32 L 170.43 351.84 L 170.51 351.81 L 170.59 351.78 L 170.68 351.58 L 171.82 351.32 L 172.10 351.27 L 172.74 350.93 L 172.88 350.93 L 172.97 350.92 L 173.03 350.67 L 173.47 349.25 L 173.66 349.22 L 173.89 348.75 L 174.00 348.70 L 174.27 348.30 L 174.38 348.16 L 174.54 347.91 L 174.68 347.69 L 175.19 344.41 L 175.20 344.33 L 175.23 344.13 L 175.40 342.56 L 184.13 342.44 L 185.03 340.65 L 185.06 340.60 L 186.13 340.32 L 186.22 340.31 L 186.31 339.96 L 186.58 339.78 L 186.70 339.47 L 186.74 339.21 L 186.87 338.74 L 187.19 338.73 L 187.20 338.41 L 187.32 338.06 L 187.44 338.05 L 187.57 337.66 L 187.74 337.37 L 187.81 337.23 L 187.83 337.23 L 187.98 336.92 L 188.00 336.91 L 188.17 336.60 L 188.20 336.60 L 188.45 335.12 L 188.49 335.12 L 188.57 334.87 L 188.68 334.86 L 188.82 334.86 L 188.89 334.82 L 189.38 334.55 L 189.39 334.55 L 189.48 333.90 L 189.70 333.88 L 189.89 332.90 L 189.95 332.81 L 190.05 332.80 L 190.09 332.76 L 190.20 332.00 L 190.75 325.57 L 190.81 325.26 L 191.00 325.23 L 191.05 325.15 L 191.10 325.13 L 191.19 324.96 L 191.27 324.23 L 191.47 324.08 L 191.60 324.06 L 191.71 323.74 L 191.77 323.73 L 192.27 323.50 L 192.53 323.31 L 192.61 323.03 L 192.84 323.01 L 192.87 323.01 L 192.89 322.99 L 193.03 321.44 L 193.15 321.35 L 193.55 319.79 L 193.62 319.34 L 193.69 319.32 L 193.80 319.16 L 193.81 319.04 L 193.86 318.96 L 193.90 318.92 L 193.96 318.92 L 194.01 318.84 L 194.17 317.56 L 194.29 317.37 L 194.40 317.00 L 194.56 316.97 L 194.74 316.85 L 194.91 315.95 L 195.03 314.70 L 195.29 314.63 L 195.29 314.16 L 195.44 314.01 L 207.62 314.01 L 207.86 314.00 L 208.43 313.34 L 208.55 313.32 L 208.64 313.32 L 208.66 313.16 L 208.87 312.95 L 209.01 312.92 L 209.10 312.79 L 209.18 312.71 L 209.23 312.66 L 209.45 312.60 L 209.89 312.52 L 210.00 312.18 L 210.08 312.09 L 210.19 312.08 L 210.75 311.91 L 210.83 311.81 L 210.87 311.81 L 210.91 311.69 L 211.03 311.63 L 211.13 311.50 L 211.53 310.66 L 212.12 310.53 L 212.34 310.48 L 212.99 310.27 L 213.30 306.22 L 213.41 306.14 L 213.54 305.74 L 213.73 305.21 L 214.03 305.06 L 214.44 305.05 L 214.99 305.03 L 215.08 304.86 L 215.48 304.67 L 215.74 304.38 L 215.82 304.26 L 215.98 304.21 L 216.10 303.85 L 217.54 303.46 L 218.91 303.46 L 231.17 303.42 L 231.26 303.24 L 231.32 303.13 L 231.70 302.96 L 232.85 301.56 L 232.90 301.47 L 233.06 301.11 L 233.62 301.02 L 233.89 300.08 L 234.29 300.07 L 234.39 300.06 L 234.48 299.41 L 235.19 295.73 L 235.27 295.73 L 235.42 295.70 L 235.58 295.65 L 235.65 295.25 L 236.05 293.86 L 236.19 293.61 L 236.26 293.59 L 236.35 292.95 L 236.53 292.04 L 236.60 291.09 L 236.78 290.66 L 237.31 285.88 L 237.36 285.40 L 237.41 285.40 L 237.49 285.31 L 237.62 285.19 L 237.67 285.14 L 237.72 285.09 L 237.98 283.95 L 238.04 283.14 L 238.35 282.98 L 238.54 281.77 L 238.65 281.02 L 239.60 269.87 L 239.71 269.84 L 275.74 269.31 L 275.78 269.31 L 289.55 269.16 L 290.30 268.85 L 290.45 268.85 L 290.65 268.77 L 290.72 268.63 L 290.80 268.59 L 296.77 268.51 L 297.56 266.39 L 297.85 266.20 L 298.01 265.42 L 301.73 265.26 L 301.75 265.05 L 301.98 265.03 L 303.09 263.69 L 303.16 263.45 L 303.30 263.36 L 303.69 263.27 L 303.74 263.24 L 303.89 262.83 L 304.06 262.72 L 304.09 262.43 L 315.66 262.02 L 315.75 260.88 L 316.21 260.62 L 316.22 258.71 L 316.30 258.43 L 316.39 257.96 L 316.52 256.64 L 316.72 255.94 L 316.88 255.13 L 317.03 255.12 L 317.09 254.49 L 317.33 254.44 L 318.12 251.36 L 318.45 251.03 L 318.50 250.84 L 318.57 250.83 L 318.61 250.62 L 318.72 249.86 L 319.05 249.50 L 319.10 249.45 L 319.30 246.74 L 319.37 246.73 L 319.40 246.44 L 319.48 246.22 L 319.53 246.22 L 319.57 245.81 L 319.83 244.34 L 319.94 243.93 L 320.08 243.88 L 320.17 239.96 L 320.21 239.64 L 320.47 237.40 L 320.54 237.23 L 320.59 237.22 L 320.65 237.22 L 320.69 236.90 L 320.73 236.91 L 320.74 236.91 L 320.87 232.95 L 320.92 232.61 L 321.04 232.59 L 321.13 232.52 L 321.39 232.41 L 321.71 232.26 L 321.72 232.26 L 321.81 232.21 L 322.10 232.13 L 322.25 232.13 L 322.38 232.13 L 322.53 230.41 L 322.63 230.00 L 323.04 229.99 L 323.08 229.72 L 323.13 229.71 L 323.16 229.42 L 323.43 226.92 L 323.48 226.87 L 323.67 226.85 L 341.48 226.78 L 342.49 226.65 L 342.52 226.65 L 342.72 226.65 L 342.74 226.65 L 342.87 226.15 L 342.97 226.13 L 343.06 225.89 L 343.18 225.83 L 343.21 225.79 L 343.26 225.77 L 343.45 225.50 L 343.84 225.25 L 344.08 224.45 L 344.35 223.68 L 344.37 223.64 L 344.41 222.93 L 344.45 222.90 L 344.98 222.48 L 344.99 222.43 L 345.07 221.87 L 345.30 221.80 L 345.44 221.75 L 345.47 220.74 L 345.48 220.69 L 345.55 221.65 L 345.59 221.06 L 345.61 221.04 L 345.74 219.69 L 345.75 219.65 L 346.03 219.54 L 346.79 219.52 L 346.97 219.47 L 347.02 219.46 L 347.06 219.28 L 347.11 219.28 L 347.21 218.61 L 359.38 217.32 L 359.40 217.15 L 359.50 217.02 L 359.54 216.77 L 359.60 205.49 L 359.74 200.88 L 359.75 200.85 L 359.98 200.76 L 360.03 200.76 L 360.07 200.23 L 360.27 200.17 L 360.79 199.08 L 360.81 199.06 L 360.94 198.72 L 360.99 198.73 L 361.02 198.19 L 361.46 197.54 L 361.47 197.52 L 362.13 197.27 L 362.22 196.70 L 362.45 196.71 L 362.73 195.25 L 362.80 194.68 L 362.84 194.21 L 362.97 193.65 L 363.32 193.45 L 363.38 193.31 L 363.53 193.18 L 363.69 193.18 L 364.20 193.19 L 364.26 193.19 L 364.38 193.16 L 364.39 193.16 L 364.56 193.17 L 364.94 193.14 L 365.34 192.93 L 365.40 192.93 L 365.49 192.85 L 365.60 192.69 L 365.91 192.69 L 366.42 192.49 L 366.59 192.04 L 366.87 188.15 L 367.99 191.44 L 368.23 191.42 L 368.41 191.41 L 368.69 191.40 L 368.78 191.34 L 369.06 191.15 L 369.50 190.89 L 369.56 190.71 L 369.64 190.63 L 369.69 190.65 L 369.74 190.59 L 370.08 190.35 L 378.15 190.35 L 378.22 190.35 L 378.72 190.34 L 378.77 190.32 L 378.88 189.82 L 378.98 189.55 L 378.99 189.54 L 379.27 189.50 L 379.34 189.48 L 380.99 188.75 L 381.18 188.68 L 381.33 188.67 L 381.36 188.66 L 381.87 188.49 L 382.04 188.58 L 382.08 188.57 L 382.35 188.52 L 382.65 186.99 L 382.69 186.98 L 382.94 186.80 L 383.04 186.80 L 383.14 186.80 L 383.35 186.63 L 383.79 186.01 L 383.88 185.99 L 383.96 185.81 L 384.14 185.08 L 384.59 184.32 L 384.98 180.74 L 385.06 180.30 L 385.47 180.13 L 385.54 180.04 L 385.60 179.87 L 385.64 179.29 L 385.78 178.26 L 385.82 178.31 L 385.88 178.29 L 386.11 178.28 L 386.46 177.90 L 386.68 177.83 L 386.93 177.82 L 387.04 177.80 L 387.29 177.79 L 387.70 177.79 L 388.10 177.78 L 388.41 177.78 L 388.48 177.77 L 388.56 177.76 L 388.56 177.63 L 388.80 177.56 L 388.87 177.54 L 388.97 177.39 L 389.63 177.36 L 389.64 177.05 L 389.82 177.04 L 390.59 177.05 L 391.11 176.86 L 391.48 176.63 L 391.49 176.50 L 391.52 176.50 L 402.82 176.29 L 402.86 176.28 L 402.99 176.27 L 403.05 176.09 L 403.09 176.07 L 403.10 176.06 L 403.58 176.01 L 403.68 175.37 L 403.83 175.22 L 404.07 173.95 L 404.22 173.93 L 404.42 173.39 L 404.52 173.46 L 404.58 173.45 L 404.63 172.83 L 404.77 172.41 L 404.79 171.96 L 404.84 171.90 L 404.96 171.86 L 405.04 171.65 L 405.15 174.08 L 405.28 174.04 L 405.56 173.07 L 405.68 172.83 L 405.79 172.62 L 406.48 171.23 L 407.08 170.55 L 407.79 169.26 L 407.97 169.20 L 408.18 169.20 L 408.40 169.14 L 412.55 168.78 L 412.89 168.74 L 452.25 167.76 L 576.18 167.53 L 576.59 167.13 L 576.88 167.08 L 577.16 167.08 L 577.59 166.32 L 577.74 165.96 L 577.85 165.28 L 578.05 163.31 L 578.34 163.72 L 578.57 163.29 L 578.62 163.28 L 578.81 163.15 L 578.85 163.16 L 579.06 162.44 L 579.24 161.29 L 579.80 160.06 L 579.82 159.96 L 579.98 158.50 L 580.51 154.89 L 580.53 154.77 L 580.63 154.69 L 580.76 153.40 L 581.34 151.67 L 581.35 151.50 L 581.48 151.42 L 581.61 150.57 L 581.82 149.89 L 581.84 149.76 L 581.93 148.44 L 581.95 148.41 L 582.00 148.04 L 582.24 145.69 L 582.27 145.55 L 582.36 145.42 L 582.62 145.10 L 582.68 145.10 L 582.88 144.65 L 583.23 144.70 L 583.28 144.64 L 583.32 144.61 L 583.39 144.57 L 583.56 143.19 L 583.74 142.07 L 583.77 141.97 L 583.87 140.56 L 583.97 139.19 L 584.00 139.02 L 584.11 137.41 L 584.16 136.14 L 584.37 135.29 L 584.40 135.23 L 584.51 134.96 L 584.66 134.94 L 585.55 134.90 L 585.99 134.86 L 595.67 134.92 L 595.77 134.67 L 595.86 134.46 L 596.03 133.51 L 596.39 133.27 L 596.42 133.18 L 596.49 131.92 L 596.72 130.71 L 596.75 130.61 L 598.86 130.53 L 598.99 129.84 L 600.05 129.64 L 600.17 129.59 L 600.29 128.18 L 601.58 126.85 L 602.13 126.35 L 602.26 125.32 L 602.72 123.54 L 603.01 123.03 L 603.49 121.99 L 604.34 121.46 L 617.29 121.45 L 618.07 121.33 L 618.10 121.35 L 619.19 121.15 L 619.24 121.04 L 619.62 120.96 L 620.06 119.81 L 620.07 119.81 L 620.11 119.76 L 620.69 118.44 L 622.02 117.69 L 622.11 117.62 L 622.25 117.61 L 622.45 117.26 L 622.50 117.17 L 622.58 117.11 L 623.20 117.06 L 623.70 117.06 L 623.97 117.05 L 624.00 117.00 L 624.56 115.85 L 624.98 115.63 L 625.00 115.54 L 625.05 115.45 L 625.11 115.14 L 639.17 114.70 L 639.20 114.68 L 639.24 114.66 L 639.51 114.53 L 639.73 114.39 L 640.96 112.61 L 641.27 112.40 L 642.16 111.87 L 642.93 111.74 L 643.50 111.57 L 643.66 109.93 L 644.37 108.02 L 644.64 107.88 L 644.73 106.64 L 646.81 104.37 L 646.83 104.37 L 646.94 103.81 L 647.34 103.75 L 647.34 103.75 L 647.37 103.61 L 647.44 103.44 L 647.62 103.26 L 647.84 102.30 L 650.00 100.00"/>
	</g>
	<g id="poloto_plot1" class="poloto_plot poloto_imgs poloto_line poloto1 poloto_stroke" fill="none" stroke="black">
		<path d=" M 150.00 380.38 L 150.03 380.36 L 150.05 380.35 L 150.06 380.35 L 150.09 380.35 L 150.12 379.73 L 150.25 379.71 L 150.56 379.70 L 151.01 379.46 L 151.23 379.36 L 151.69 379.38 L 151.77 379.34 L 151.83 379.34 L 152.37 379.29 L 153.37 379.18 L 153.68 376.75 L 153.76 376.75 L 154.37 376.69 L 155.07 376.68 L 155.07 376.68 L 155.08 376.68 L 164.48 376.68 L 164.55 376.68 L 164.67 376.68 L 164.72 376.65 L 165.08 376.63 L 165.24 376.63 L 165.64 376.63 L 165.69 376.63 L 165.81 376.62 L 165.93 376.62 L 165.96 376.62 L 166.06 376.59 L 166.16 376.59 L 166.27 376.59 L 166.53 376.45 L 166.76 376.45 L 166.80 376.45 L 166.91 376.45 L 167.66 377.36 L 167.68 377.36 L 167.77 377.35 L 168.20 377.21 L 168.54 377.06 L 168.93 377.00 L 169.01 376.95 L 169.02 376.95 L 169.09 376.95 L 169.24 376.95 L 169.43 376.89 L 169.79 376.84 L 169.82 376.84 L 169.88 376.84 L 169.97 376.81 L 170.19 376.81 L 170.21 376.81 L 170.43 376.80 L 170.51 376.80 L 170.59 376.80 L 170.68 376.80 L 171.82 376.70 L 172.10 376.69 L 172.74 376.64 L 172.88 376.64 L 172.97 376.64 L 173.03 376.64 L 173.47 376.57 L 173.66 376.57 L 173.89 376.48 L 174.00 376.47 L 174.27 376.27 L 174.38 376.20 L 174.54 376.20 L 174.68 376.20 L 175.19 373.36 L 175.20 373.31 L 175.23 373.31 L 175.40 373.04 L 184.13 373.04 L 185.03 371.82 L 185.06 371.82 L 186.13 371.82 L 186.22 371.81 L 186.31 371.69 L 186.58 371.67 L 186.70 371.67 L 186.74 371.67 L 186.87 371.67 L 187.19 371.67 L 187.20 371.40 L 187.32 371.39 L 187.44 371.39 L 187.57 371.36 L 187.74 371.36 L 187.81 371.36 L 187.83 371.36 L 187.98 371.36 L 188.00 371.36 L 188.17 371.36 L 188.20 371.36 L 188.45 370.15 L 188.49 370.15 L 188.57 370.01 L 188.68 370.01 L 188.82 370.01 L 188.89 370.00 L 189.38 369.99 L 189.39 369.99 L 189.48 369.92 L 189.70 369.92 L 189.89 369.23 L 189.95 369.14 L 190.05 369.14 L 190.09 369.14 L 190.20 369.12 L 190.75 364.06 L 190.81 364.10 L 191.00 364.10 L 191.05 364.10 L 191.10 364.09 L 191.19 364.09 L 191.27 364.02 L 191.47 364.02 L 191.60 364.02 L 191.71 364.01 L 191.77 364.01 L 192.27 364.01 L 192.53 364.00 L 192.61 363.88 L 192.84 363.88 L 192.87 363.88 L 192.89 363.88 L 193.03 363.54 L 193.15 363.45 L 193.55 362.24 L 193.62 362.24 L 193.69 362.24 L 193.80 362.26 L 193.81 362.26 L 193.86 362.26 L 193.90 362.26 L 193.96 362.26 L 194.01 362.26 L 194.17 362.24 L 194.29 362.24 L 194.40 362.22 L 194.56 362.22 L 194.74 362.21 L 194.91 361.77 L 195.03 361.61 L 195.29 361.61 L 195.29 361.61 L 195.44 361.61 L 207.62 361.61 L 207.86 361.60 L 208.43 361.52 L 208.55 361.51 L 208.64 361.51 L 208.66 361.51 L 208.87 361.51 L 209.01 361.51 L 209.10 361.51 L 209.18 361.51 L 209.23 361.51 L 209.45 361.51 L 209.89 361.53 L 210.00 361.53 L 210.08 361.53 L 210.19 361.53 L 210.75 361.43 L 210.83 361.39 L 210.87 361.39 L 210.91 361.32 L 211.03 361.32 L 211.13 361.32 L 211.53 360.86 L 212.12 360.86 L 212.34 360.86 L 212.99 360.86 L 213.30 357.76 L 213.41 357.75 L 213.54 357.75 L 213.73 357.75 L 214.03 357.75 L 214.44 357.75 L 214.99 357.75 L 215.08 357.75 L 215.48 357.67 L 215.74 357.54 L 215.82 357.54 L 215.98 357.54 L 216.10 357.53 L 217.54 357.33 L 218.91 357.33 L 231.17 357.33 L 231.26 357.33 L 231.32 357.33 L 231.70 357.33 L 232.85 356.35 L 232.90 356.32 L 233.06 356.22 L 233.62 356.21 L 233.89 355.98 L 234.29 355.98 L 234.39 355.98 L 234.48 355.98 L 235.19 353.26 L 235.27 353.26 L 235.42 353.26 L 235.58 353.26 L 235.65 353.08 L 236.05 352.76 L 236.19 352.76 L 236.26 352.76 L 236.35 352.26 L 236.53 351.75 L 236.60 351.75 L 236.78 351.74 L 237.31 347.69 L 237.36 347.69 L 237.41 347.69 L 237.49 347.69 L 237.62 347.69 L 237.67 347.69 L 237.72 347.69 L 237.98 347.69 L 238.04 347.60 L 238.35 347.58 L 238.54 347.53 L 238.65 347.04 L 239.60 338.97 L 239.71 338.97 L 275.74 338.97 L 275.78 338.97 L 289.55 338.97 L 290.30 338.84 L 290.45 338.84 L 290.65 338.84 L 290.72 338.84 L 290.80 338.84 L 296.77 338.78 L 297.56 338.71 L 297.85 338.71 L 298.01 338.68 L 301.73 338.61 L 301.75 338.50 L 301.98 338.50 L 303.09 337.41 L 303.16 337.41 L 303.30 337.41 L 303.69 337.41 L 303.74 337.41 L 303.89 337.41 L 304.06 337.41 L 304.09 337.41 L 315.66 337.39 L 315.75 337.20 L 316.21 337.20 L 316.22 335.88 L 316.30 335.88 L 316.39 335.88 L 316.52 335.76 L 316.72 335.76 L 316.88 335.70 L 317.03 335.70 L 317.09 335.70 L 317.33 335.68 L 318.12 333.45 L 318.45 333.44 L 318.50 333.43 L 318.57 333.43 L 318.61 333.43 L 318.72 333.39 L 319.05 333.12 L 319.10 333.08 L 319.30 331.07 L 319.37 331.06 L 319.40 331.06 L 319.48 331.03 L 319.53 331.03 L 319.57 331.03 L 319.83 329.93 L 319.94 329.92 L 320.08 329.89 L 320.17 326.49 L 320.21 326.48 L 320.47 324.57 L 320.54 324.57 L 320.59 324.56 L 320.65 324.56 L 320.69 324.56 L 320.73 324.56 L 320.74 324.56 L 320.87 321.02 L 320.92 321.01 L 321.04 321.00 L 321.13 321.00 L 321.39 320.93 L 321.71 320.83 L 321.72 320.83 L 321.81 320.81 L 322.10 320.76 L 322.25 320.76 L 322.38 320.76 L 322.53 319.23 L 322.63 319.23 L 323.04 319.22 L 323.08 319.22 L 323.13 319.22 L 323.16 319.22 L 323.43 317.03 L 323.48 317.03 L 323.67 317.02 L 341.48 317.02 L 342.49 317.00 L 342.52 317.00 L 342.72 317.00 L 342.74 317.00 L 342.87 317.00 L 342.97 317.00 L 343.06 316.89 L 343.18 316.89 L 343.21 316.89 L 343.26 316.89 L 343.45 316.70 L 343.84 316.57 L 344.08 316.44 L 344.35 315.83 L 344.37 315.83 L 344.41 315.67 L 344.45 315.65 L 344.98 315.28 L 344.99 315.28 L 345.07 315.22 L 345.30 315.22 L 345.44 315.18 L 345.47 314.28 L 345.48 314.28 L 345.55 315.17 L 345.59 315.12 L 345.61 315.11 L 345.74 313.89 L 345.75 313.89 L 346.03 313.84 L 346.79 313.84 L 346.97 313.84 L 347.02 313.84 L 347.06 313.84 L 347.11 313.84 L 347.21 313.77 L 359.38 312.76 L 359.40 312.76 L 359.50 312.75 L 359.54 312.53 L 359.60 301.76 L 359.74 297.75 L 359.75 297.75 L 359.98 297.68 L 360.03 297.68 L 360.07 297.66 L 360.27 297.66 L 360.79 296.68 L 360.81 296.68 L 360.94 296.63 L 360.99 296.63 L 361.02 296.55 L 361.46 295.96 L 361.47 295.96 L 362.13 295.84 L 362.22 295.80 L 362.45 295.81 L 362.73 294.49 L 362.80 294.35 L 362.84 294.23 L 362.97 293.73 L 363.32 293.61 L 363.38 293.51 L 363.53 293.51 L 363.69 293.51 L 364.20 293.51 L 364.26 293.51 L 364.38 293.51 L 364.39 293.51 L 364.56 293.52 L 364.94 293.52 L 365.34 293.38 L 365.40 293.38 L 365.49 293.37 L 365.60 293.37 L 365.91 293.37 L 366.42 293.37 L 366.59 293.25 L 366.87 289.77 L 367.99 293.05 L 368.23 293.04 L 368.41 293.03 L 368.69 293.03 L 368.78 292.99 L 369.06 292.97 L 369.50 292.77 L 369.56 292.77 L 369.64 292.77 L 369.69 292.77 L 369.74 292.77 L 370.08 292.58 L 378.15 292.58 L 378.22 292.58 L 378.72 292.57 L 378.77 292.57 L 378.88 292.53 L 378.98 292.29 L 378.99 292.29 L 379.27 292.26 L 379.34 292.26 L 380.99 292.06 L 381.18 292.06 L 381.33 292.06 L 381.36 292.06 L 381.87 291.92 L 382.04 291.92 L 382.08 291.92 L 382.35 291.92 L 382.65 291.09 L 382.69 291.09 L 382.94 290.95 L 383.04 290.95 L 383.14 290.95 L 383.35 290.95 L 383.79 290.94 L 383.88 290.92 L 383.96 290.84 L 384.14 290.70 L 384.59 290.58 L 384.98 287.30 L 385.06 287.19 L 385.47 287.03 L 385.54 286.99 L 385.60 286.88 L 385.64 286.65 L 385.78 285.66 L 385.82 285.71 L 385.88 285.69 L 386.11 285.68 L 386.46 285.55 L 386.68 285.49 L 386.93 285.48 L 387.04 285.47 L 387.29 285.46 L 387.70 285.46 L 388.10 285.45 L 388.41 285.44 L 388.48 285.44 L 388.56 285.43 L 388.56 285.43 L 388.80 285.43 L 388.87 285.42 L 388.97 285.29 L 389.63 285.28 L 389.64 285.28 L 389.82 285.27 L 390.59 285.26 L 391.11 285.10 L 391.48 284.96 L 391.49 284.96 L 391.52 284.96 L 402.82 284.96 L 402.86 284.96 L 402.99 284.96 L 403.05 284.96 L 403.09 284.94 L 403.10 284.94 L 403.58 284.94 L 403.68 284.93 L 403.83 284.91 L 404.07 284.88 L 404.22 284.88 L 404.42 284.81 L 404.52 284.81 L 404.58 284.81 L 404.63 284.81 L 404.77 284.51 L 404.79 284.51 L 404.84 284.51 L 404.96 284.51 L 405.04 284.51 L 405.15 284.58 L 405.28 284.58 L 405.56 284.57 L 405.68 284.57 L 405.79 284.57 L 406.48 283.60 L 407.08 283.34 L 407.79 282.65 L 407.97 282.65 L 408.18 282.65 L 408.40 282.65 L 412.55 282.57 L 412.89 282.57 L 452.25 282.44 L 576.18 282.26 L 576.59 282.21 L 576.88 282.20 L 577.16 282.20 L 577.59 281.76 L 577.74 281.76 L 577.85 281.76 L 578.05 280.14 L 578.34 280.45 L 578.57 280.43 L 578.62 280.43 L 578.81 280.41 L 578.85 280.41 L 579.06 280.41 L 579.24 280.33 L 579.80 279.31 L 579.82 279.31 L 579.98 279.22 L 580.51 275.92 L 580.53 275.92 L 580.63 275.91 L 580.76 275.86 L 581.34 274.32 L 581.35 274.32 L 581.48 274.32 L 581.61 274.28 L 581.82 273.72 L 581.84 273.72 L 581.93 273.71 L 581.95 273.71 L 582.00 273.40 L 582.24 271.22 L 582.27 271.22 L 582.36 271.22 L 582.62 271.03 L 582.68 271.03 L 582.88 270.67 L 583.23 270.67 L 583.28 270.67 L 583.32 270.67 L 583.39 270.67 L 583.56 270.66 L 583.74 269.67 L 583.77 269.67 L 583.87 269.67 L 583.97 268.92 L 584.00 268.92 L 584.11 268.13 L 584.16 268.08 L 584.37 267.30 L 584.40 267.30 L 584.51 267.30 L 584.66 267.29 L 585.55 267.29 L 585.99 267.28 L 595.67 267.28 L 595.77 267.28 L 595.86 267.28 L 596.03 267.28 L 596.39 267.07 L 596.42 267.07 L 596.49 267.01 L 596.72 265.91 L 596.75 265.91 L 598.86 265.94 L 598.99 265.72 L 600.05 265.72 L 600.17 265.72 L 600.29 265.64 L 601.58 264.74 L 602.13 264.57 L 602.26 264.50 L 602.72 262.80 L 603.01 262.80 L 603.49 262.66 L 604.34 262.66 L 617.29 262.65 L 618.07 262.55 L 618.10 262.57 L 619.19 262.57 L 619.24 262.57 L 619.62 262.57 L 620.06 262.53 L 620.07 262.53 L 620.11 262.53 L 620.69 261.54 L 622.02 261.51 L 622.11 261.51 L 622.25 261.50 L 622.45 261.47 L 622.50 261.43 L 622.58 261.43 L 623.20 261.39 L 623.70 261.39 L 623.97 261.39 L 624.00 261.39 L 624.56 261.37 L 624.98 261.25 L 625.00 261.25 L 625.05 261.25 L 625.11 261.25 L 639.17 261.02 L 639.20 261.02 L 639.24 261.02 L 639.51 261.02 L 639.73 261.02 L 640.96 260.03 L 641.27 259.97 L 642.16 259.89 L 642.93 259.84 L 643.50 259.84 L 643.66 259.84 L 644.37 258.35 L 644.64 258.31 L 644.73 258.26 L 646.81 257.21 L 646.83 257.21 L 646.94 257.20 L 647.34 257.19 L 647.34 257.19 L 647.37 257.19 L 647.44 257.16 L 647.62 257.11 L 647.84 257.00 L 650.00 255.27"/>
	</g>
	<g id="poloto_plot2" class="poloto_plot poloto_imgs poloto_line poloto2 poloto_stroke" fill="none" stroke="black">
		<path d=" M 150.00 391.20 L 150.03 391.19 L 150.05 391.19 L 150.06 391.19 L 150.09 391.19 L 150.12 388.94 L 150.25 388.63 L 150.56 388.62 L 151.01 388.61 L 151.23 387.26 L 151.69 387.14 L 151.77 387.10 L 151.83 387.07 L 152.37 386.46 L 153.37 385.99 L 153.68 385.90 L 153.76 385.91 L 154.37 385.87 L 155.07 385.87 L 155.07 385.87 L 155.08 385.87 L 164.48 385.87 L 164.55 385.86 L 164.67 385.85 L 164.72 385.85 L 165.08 385.71 L 165.24 385.67 L 165.64 385.45 L 165.69 385.36 L 165.81 385.16 L 165.93 385.13 L 165.96 385.13 L 166.06 385.09 L 166.16 385.09 L 166.27 385.09 L 166.53 384.87 L 166.76 384.66 L 166.80 384.66 L 166.91 384.54 L 167.66 384.27 L 167.68 384.26 L 167.77 384.18 L 168.20 383.88 L 168.54 383.51 L 168.93 383.36 L 169.01 383.36 L 169.02 383.37 L 169.09 383.16 L 169.24 383.16 L 169.43 383.14 L 169.79 382.98 L 169.82 382.72 L 169.88 382.72 L 169.97 382.59 L 170.19 382.59 L 170.21 382.59 L 170.43 382.20 L 170.51 382.17 L 170.59 382.14 L 170.68 381.95 L 171.82 381.84 L 172.10 381.80 L 172.74 381.53 L 172.88 381.53 L 172.97 381.52 L 173.03 381.31 L 173.47 380.21 L 173.66 380.20 L 173.89 379.86 L 174.00 379.83 L 174.27 379.68 L 174.38 379.63 L 174.54 379.40 L 174.68 379.20 L 175.19 379.20 L 175.20 379.18 L 175.23 379.02 L 175.40 377.95 L 184.13 377.84 L 185.03 377.52 L 185.06 377.48 L 186.13 377.22 L 186.22 377.21 L 186.31 377.01 L 186.58 376.88 L 186.70 376.64 L 186.74 376.44 L 186.87 376.04 L 187.19 376.03 L 187.20 376.03 L 187.32 375.76 L 187.44 375.75 L 187.57 375.46 L 187.74 375.24 L 187.81 375.11 L 187.83 375.11 L 187.98 374.84 L 188.00 374.83 L 188.17 374.59 L 188.20 374.58 L 188.45 374.50 L 188.49 374.50 L 188.57 374.41 L 188.68 374.39 L 188.82 374.39 L 188.89 374.37 L 189.38 374.13 L 189.39 374.14 L 189.48 373.66 L 189.70 373.64 L 189.89 373.50 L 189.95 373.50 L 190.05 373.49 L 190.09 373.45 L 190.20 372.79 L 190.75 372.24 L 190.81 371.94 L 191.00 371.91 L 191.05 371.84 L 191.10 371.82 L 191.19 371.68 L 191.27 371.16 L 191.47 371.08 L 191.60 371.07 L 191.71 370.81 L 191.77 370.80 L 192.27 370.60 L 192.53 370.47 L 192.61 370.35 L 192.84 370.34 L 192.87 370.34 L 192.89 370.31 L 193.03 369.37 L 193.15 369.36 L 193.55 369.23 L 193.62 368.85 L 193.69 368.84 L 193.80 368.69 L 193.81 368.60 L 193.86 368.54 L 193.90 368.50 L 193.96 368.50 L 194.01 368.42 L 194.17 367.36 L 194.29 367.25 L 194.40 366.94 L 194.56 366.92 L 194.74 366.81 L 194.91 366.48 L 195.03 365.56 L 195.29 365.49 L 195.29 365.10 L 195.44 365.00 L 207.62 365.01 L 207.86 365.01 L 208.43 364.57 L 208.55 364.57 L 208.64 364.57 L 208.66 364.46 L 208.87 364.27 L 209.01 364.24 L 209.10 364.13 L 209.18 364.05 L 209.23 364.01 L 209.45 363.95 L 209.89 364.04 L 210.00 363.75 L 210.08 363.67 L 210.19 363.66 L 210.75 363.60 L 210.83 363.55 L 210.87 363.55 L 210.91 363.50 L 211.03 363.45 L 211.13 363.34 L 211.53 363.07 L 212.12 362.95 L 212.34 362.90 L 212.99 362.72 L 213.30 362.30 L 213.41 362.23 L 213.54 361.89 L 213.73 361.46 L 214.03 361.34 L 214.44 361.33 L 214.99 361.31 L 215.08 361.16 L 215.48 361.05 L 215.74 360.91 L 215.82 360.80 L 215.98 360.76 L 216.10 360.47 L 217.54 360.33 L 218.91 360.33 L 231.17 360.30 L 231.26 360.14 L 231.32 360.04 L 231.70 359.88 L 232.85 359.59 L 232.90 359.55 L 233.06 359.35 L 233.62 359.27 L 233.89 358.71 L 234.29 358.70 L 234.39 358.68 L 234.48 358.13 L 235.19 357.62 L 235.27 357.61 L 235.42 357.58 L 235.58 357.54 L 235.65 357.35 L 236.05 356.50 L 236.19 356.28 L 236.26 356.26 L 236.35 356.17 L 236.53 355.84 L 236.60 354.98 L 236.78 354.63 L 237.31 354.43 L 237.36 354.00 L 237.41 354.00 L 237.49 353.93 L 237.62 353.81 L 237.67 353.78 L 237.72 353.74 L 237.98 352.74 L 238.04 352.15 L 238.35 352.04 L 238.54 351.05 L 238.65 350.86 L 239.60 349.30 L 239.71 349.27 L 275.74 348.81 L 275.78 348.81 L 289.55 348.69 L 290.30 348.52 L 290.45 348.52 L 290.65 348.44 L 290.72 348.31 L 290.80 348.28 L 296.77 348.27 L 297.56 346.48 L 297.85 346.32 L 298.01 345.70 L 301.73 345.62 L 301.75 345.57 L 301.98 345.55 L 303.09 345.45 L 303.16 345.24 L 303.30 345.16 L 303.69 345.07 L 303.74 345.05 L 303.89 344.70 L 304.06 344.60 L 304.09 344.33 L 315.66 343.99 L 315.75 343.18 L 316.21 342.96 L 316.22 342.65 L 316.30 342.41 L 316.39 342.03 L 316.52 341.05 L 316.72 340.50 L 316.88 339.81 L 317.03 339.80 L 317.09 339.26 L 317.33 339.23 L 318.12 338.72 L 318.45 338.48 L 318.50 338.33 L 318.57 338.33 L 318.61 338.15 L 318.72 337.54 L 319.05 337.48 L 319.10 337.47 L 319.30 337.07 L 319.37 337.07 L 319.40 336.85 L 319.48 336.70 L 319.53 336.70 L 319.57 336.38 L 319.83 336.19 L 319.94 335.87 L 320.08 335.86 L 320.17 335.69 L 320.21 335.45 L 320.47 335.32 L 320.54 335.18 L 320.59 335.18 L 320.65 335.17 L 320.69 334.93 L 320.73 334.94 L 320.74 334.93 L 320.87 334.85 L 320.92 334.57 L 321.04 334.57 L 321.13 334.50 L 321.39 334.48 L 321.71 334.45 L 321.72 334.45 L 321.81 334.44 L 322.10 334.43 L 322.25 334.43 L 322.38 334.43 L 322.53 334.39 L 322.63 334.06 L 323.04 334.06 L 323.08 333.87 L 323.13 333.86 L 323.16 333.64 L 323.43 333.57 L 323.48 333.51 L 323.67 333.51 L 341.48 333.45 L 342.49 333.36 L 342.52 333.36 L 342.72 333.36 L 342.74 333.36 L 342.87 332.98 L 342.97 332.96 L 343.06 332.86 L 343.18 332.80 L 343.21 332.76 L 343.26 332.74 L 343.45 332.71 L 343.84 332.63 L 344.08 332.11 L 344.35 332.08 L 344.37 332.05 L 344.41 331.61 L 344.45 331.61 L 344.98 331.61 L 344.99 331.57 L 345.07 331.17 L 345.30 331.11 L 345.44 331.10 L 345.47 331.09 L 345.48 331.05 L 345.55 331.02 L 345.59 330.61 L 345.61 330.60 L 345.74 330.60 L 345.75 330.56 L 346.03 330.52 L 346.79 330.51 L 346.97 330.47 L 347.02 330.46 L 347.06 330.33 L 347.11 330.33 L 347.21 329.87 L 359.38 329.73 L 359.40 329.59 L 359.50 329.50 L 359.54 329.49 L 359.60 329.09 L 359.74 329.00 L 359.75 328.97 L 359.98 328.97 L 360.03 328.97 L 360.07 328.58 L 360.27 328.53 L 360.79 328.51 L 360.81 328.49 L 360.94 328.28 L 360.99 328.29 L 361.02 327.92 L 361.46 327.92 L 361.47 327.90 L 362.13 327.81 L 362.22 327.38 L 362.45 327.38 L 362.73 327.38 L 362.80 327.06 L 362.84 326.81 L 362.97 326.80 L 363.32 326.75 L 363.38 326.73 L 363.53 326.63 L 363.69 326.63 L 364.20 326.63 L 364.26 326.63 L 364.38 326.61 L 364.39 326.61 L 364.56 326.61 L 364.94 326.58 L 365.34 326.53 L 365.40 326.53 L 365.49 326.49 L 365.60 326.37 L 365.91 326.37 L 366.42 326.23 L 366.59 325.99 L 366.87 325.96 L 367.99 325.69 L 368.23 325.69 L 368.41 325.69 L 368.69 325.68 L 368.78 325.66 L 369.06 325.53 L 369.50 325.51 L 369.56 325.39 L 369.64 325.34 L 369.69 325.35 L 369.74 325.31 L 370.08 325.29 L 378.15 325.28 L 378.22 325.28 L 378.72 325.28 L 378.77 325.27 L 378.88 324.90 L 378.98 324.89 L 378.99 324.89 L 379.27 324.88 L 379.34 324.86 L 380.99 324.33 L 381.18 324.27 L 381.33 324.26 L 381.36 324.26 L 381.87 324.25 L 382.04 324.32 L 382.08 324.32 L 382.35 324.28 L 382.65 323.77 L 382.69 323.76 L 382.94 323.75 L 383.04 323.75 L 383.14 323.75 L 383.35 323.65 L 383.79 323.19 L 383.88 323.19 L 383.96 323.12 L 384.14 322.70 L 384.59 322.24 L 384.98 322.27 L 385.06 322.02 L 385.47 322.02 L 385.54 322.00 L 385.60 321.97 L 385.64 321.73 L 385.78 321.72 L 385.82 321.72 L 385.88 321.72 L 386.11 321.72 L 386.46 321.52 L 386.68 321.50 L 386.93 321.50 L 387.04 321.50 L 387.29 321.50 L 387.70 321.50 L 388.10 321.50 L 388.41 321.50 L 388.48 321.50 L 388.56 321.49 L 388.56 321.40 L 388.80 321.34 L 388.87 321.34 L 388.97 321.33 L 389.63 321.33 L 389.64 321.09 L 389.82 321.09 L 390.59 321.09 L 391.11 321.09 L 391.48 321.04 L 391.49 320.94 L 391.52 320.94 L 402.82 320.78 L 402.86 320.77 L 402.99 320.76 L 403.05 320.62 L 403.09 320.62 L 403.10 320.61 L 403.58 320.56 L 403.68 320.08 L 403.83 319.97 L 404.07 319.02 L 404.22 319.01 L 404.42 318.60 L 404.52 318.65 L 404.58 318.64 L 404.63 318.12 L 404.77 318.03 L 404.79 317.67 L 404.84 317.62 L 404.96 317.59 L 405.04 317.40 L 405.15 319.55 L 405.28 319.51 L 405.56 318.65 L 405.68 318.46 L 405.79 318.27 L 406.48 317.93 L 407.08 317.57 L 407.79 317.07 L 407.97 317.01 L 408.18 317.01 L 408.40 316.97 L 412.55 316.71 L 412.89 316.69 L 452.25 316.02 L 576.18 315.99 L 576.59 315.69 L 576.88 315.65 L 577.16 315.65 L 577.59 315.37 L 577.74 315.06 L 577.85 314.47 L 578.05 314.31 L 578.34 314.37 L 578.57 314.02 L 578.62 314.02 L 578.81 313.91 L 578.85 313.91 L 579.06 313.34 L 579.24 312.46 L 579.80 312.38 L 579.82 312.28 L 579.98 311.15 L 580.51 311.11 L 580.53 311.00 L 580.63 310.93 L 580.76 309.90 L 581.34 309.85 L 581.35 309.71 L 581.48 309.64 L 581.61 308.96 L 581.82 308.94 L 581.84 308.83 L 581.93 307.71 L 581.95 307.68 L 582.00 307.65 L 582.24 307.65 L 582.27 307.53 L 582.36 307.45 L 582.62 307.34 L 582.68 307.34 L 582.88 307.28 L 583.23 307.32 L 583.28 307.27 L 583.32 307.24 L 583.39 307.21 L 583.56 306.05 L 583.74 306.02 L 583.77 305.92 L 583.87 304.73 L 583.97 304.30 L 584.00 304.14 L 584.11 303.56 L 584.16 302.55 L 584.37 302.54 L 584.40 302.48 L 584.51 302.27 L 584.66 302.27 L 585.55 302.24 L 585.99 302.21 L 595.67 302.26 L 595.77 302.03 L 595.86 301.86 L 596.03 301.05 L 596.39 301.04 L 596.42 300.96 L 596.49 299.94 L 596.72 299.93 L 596.75 299.84 L 598.86 299.74 L 598.99 299.37 L 600.05 299.19 L 600.17 299.15 L 600.29 298.02 L 601.58 297.70 L 602.13 297.43 L 602.26 296.58 L 602.72 296.58 L 603.01 296.10 L 603.49 295.37 L 604.34 294.93 L 617.29 294.93 L 618.07 294.92 L 618.10 294.92 L 619.19 294.75 L 619.24 294.66 L 619.62 294.60 L 620.06 293.65 L 620.07 293.65 L 620.11 293.61 L 620.69 293.41 L 622.02 292.78 L 622.11 292.71 L 622.25 292.70 L 622.45 292.44 L 622.50 292.40 L 622.58 292.35 L 623.20 292.35 L 623.70 292.35 L 623.97 292.35 L 624.00 292.30 L 624.56 291.34 L 624.98 291.25 L 625.00 291.18 L 625.05 291.09 L 625.11 290.85 L 639.17 290.67 L 639.20 290.65 L 639.24 290.63 L 639.51 290.51 L 639.73 290.39 L 640.96 289.85 L 641.27 289.74 L 642.16 289.32 L 642.93 289.26 L 643.50 289.09 L 643.66 287.68 L 644.37 287.44 L 644.64 287.36 L 644.73 286.34 L 646.81 285.36 L 646.83 285.36 L 646.94 284.90 L 647.34 284.86 L 647.34 284.86 L 647.37 284.74 L 647.44 284.62 L 647.62 284.52 L 647.84 283.82 L 650.00 283.45"/>
	</g>
	<g class="poloto_legend poloto_imgs poloto_line poloto0 poloto_stroke"><line x1="680" x2="730" y1="81.25" y2="81.25"/></g>
	<g class="poloto_legend poloto_imgs poloto_line poloto1 poloto_stroke"><line x1="680" x2="730" y1="131.25" y2="131.25"/></g>
	<g class="poloto_legend poloto_imgs poloto_line poloto2 poloto_stroke"><line x1="680" x2="730" y1="181.25" y2="181.25"/></g>
	<text class="poloto_legend poloto_text poloto_line poloto0" x="675" y="100">total</text>
	<text class="poloto_legend poloto_text poloto_line poloto1" x="675" y="150">code</text>
	<text class="poloto_legend poloto_text poloto_line poloto2" x="675" y="200">docs</text>
	<text class="poloto_text poloto_name poloto_title" x="400.00" y="37.50">Workspace lines over time</text>
	<text class="poloto_text poloto_name poloto_x" x="400.00" y="640">date (JST)</text>
	<text class="poloto_text poloto_name poloto_y" x="37.50" y="250.00" transform="rotate(-90,37.50,250.00)">lines</text>
	<text class="poloto_text poloto_ticks poloto_y">
		<tspan x="135.00" y="400.00">0</tspan>
		<tspan x="135.00" y="316.31">50K</tspan>
		<tspan x="135.00" y="232.62">100K</tspan>
		<tspan x="135.00" y="148.93">150K</tspan>
	</text>
	<g class="poloto_imgs poloto_ticks poloto_y" stroke="black">
		<line x1="150.00" x2="144.00" y1="400.00" y2="400.00"/>
		<line x1="150.00" x2="144.00" y1="316.31" y2="316.31"/>
		<line x1="150.00" x2="144.00" y1="232.62" y2="232.62"/>
		<line x1="150.00" x2="144.00" y1="148.93" y2="148.93"/>
	</g>
	<g class="poloto_text poloto_ticks poloto_x">
		<text x="231.02" y="430.00" text-anchor="end" transform="rotate(-90 231.02 430.00)">2026-04-24 12:06</text>
		<text x="355.72" y="430.00" text-anchor="end" transform="rotate(-90 355.72 430.00)">2026-04-30 07:00</text>
		<text x="480.43" y="430.00" text-anchor="end" transform="rotate(-90 480.43 430.00)">2026-05-06 01:53</text>
		<text x="605.13" y="430.00" text-anchor="end" transform="rotate(-90 605.13 430.00)">2026-05-11 20:46</text>
	</g>
	<g class="poloto_imgs poloto_ticks poloto_x" stroke="black">
		<line x1="231.02" x2="231.02" y1="400.00" y2="405.00"/>
		<line x1="355.72" x2="355.72" y1="400.00" y2="405.00"/>
		<line x1="480.43" x2="480.43" y1="400.00" y2="405.00"/>
		<line x1="605.13" x2="605.13" y1="400.00" y2="405.00"/>
	</g>
	<path class="poloto_imgs poloto_ticks poloto_x" stroke="black" style="stroke-dasharray:12.47065032446138;stroke-dashoffset:-81.01508100685896;" d=" M 150.00 400.00 L 650.00 400.00"/>
	<path class="poloto_imgs poloto_ticks poloto_y" stroke="black" style="stroke-dasharray:8.369041242635245;stroke-dashoffset:-0;" d=" M 150.00 400.00 L 150.00 100.00"/>
</svg>

