<svg class="poloto" width="800" height="680" viewBox="0 0 800 680" xmlns="http://www.w3.org/2000/svg">
	<style>
.poloto{
  stroke-linecap:round;
  stroke-linejoin:round;
  font-family:Roboto,sans-serif;
  font-size:16px;
}
.poloto_background{fill:AliceBlue;}
.poloto_scatter{stroke-width:7}
.poloto_line{stroke-width:2}
.poloto_text{fill: black;}
.poloto_name{font-size:24px;dominant-baseline:auto;text-anchor:middle;}
.poloto_where{dominant-baseline:middle;text-anchor:start}
.poloto_text.poloto_legend{font-size:20px;dominant-baseline:middle;text-anchor:start;}
.poloto_text.poloto_ticks.poloto_y{dominant-baseline:middle;text-anchor:end}
.poloto_text.poloto_ticks.poloto_x{dominant-baseline:auto;text-anchor:middle}
.poloto_imgs.poloto_ticks{stroke: black;stroke-width:3;fill:none;stroke-dasharray:none}
.poloto_grid{stroke:gray;stroke-width:0.5}

.poloto0.poloto_stroke{stroke:blue;}
.poloto1.poloto_stroke{stroke:red;}
.poloto2.poloto_stroke{stroke:green;}
.poloto3.poloto_stroke{stroke:gold;}
.poloto4.poloto_stroke{stroke:aqua;}
.poloto5.poloto_stroke{stroke:lime;}
.poloto6.poloto_stroke{stroke:orange;}
.poloto7.poloto_stroke{stroke:chocolate;}
.poloto0.poloto_fill{fill:blue;}
.poloto1.poloto_fill{fill:red;}
.poloto2.poloto_fill{fill:green;}
.poloto3.poloto_fill{fill:gold;}
.poloto4.poloto_fill{fill:aqua;}
.poloto5.poloto_fill{fill:lime;}
.poloto6.poloto_fill{fill:orange;}
.poloto7.poloto_fill{fill:chocolate;}
	</style>
	<circle r="1e5" class="poloto_background" fill="white"/>
	<g id="poloto_plot0" class="poloto_plot poloto_imgs poloto_line poloto0 poloto_stroke" fill="none" stroke="black">
		<path d=" M 150.00 359.83 L 150.04 359.80 L 150.06 359.78 L 150.07 359.78 L 150.10 359.78 L 150.14 355.42 L 150.29 354.89 L 150.65 354.87 L 151.17 354.51 L 151.43 352.29 L 151.96 352.16 L 152.06 352.04 L 152.13 351.99 L 152.75 350.91 L 153.91 350.03 L 154.28 346.61 L 154.37 346.62 L 155.07 346.48 L 155.88 346.46 L 155.89 346.46 L 155.89 346.46 L 166.81 346.46 L 166.89 346.46 L 167.03 346.43 L 167.09 346.39 L 167.50 346.19 L 167.69 346.14 L 168.15 345.82 L 168.22 345.68 L 168.35 345.37 L 168.49 345.33 L 168.53 345.32 L 168.64 345.24 L 168.76 345.24 L 168.88 345.25 L 169.19 344.74 L 169.45 344.43 L 169.50 344.43 L 169.63 344.24 L 170.50 345.02 L 170.52 345.02 L 170.63 344.89 L 171.12 344.31 L 171.52 343.61 L 171.97 343.30 L 172.06 343.25 L 172.07 343.25 L 172.16 342.98 L 172.33 342.98 L 172.55 342.88 L 172.98 342.62 L 173.00 342.21 L 173.08 342.21 L 173.18 341.99 L 173.43 341.99 L 173.45 341.99 L 173.71 341.41 L 173.81 341.38 L 173.90 341.33 L 174.00 341.10 L 175.33 340.78 L 175.65 340.72 L 176.39 340.30 L 176.55 340.30 L 176.67 340.29 L 176.73 339.99 L 177.24 338.26 L 177.47 338.22 L 177.73 337.65 L 177.86 337.59 L 178.17 337.11 L 178.30 336.94 L 178.48 336.63 L 178.65 336.36 L 179.24 332.37 L 179.26 332.27 L 179.28 332.03 L 179.49 330.12 L 189.61 329.98 L 190.66 327.79 L 190.70 327.74 L 191.93 327.40 L 192.04 327.39 L 192.15 326.96 L 192.46 326.74 L 192.60 326.37 L 192.64 326.04 L 192.80 325.47 L 193.16 325.46 L 193.17 325.07 L 193.31 324.64 L 193.45 324.64 L 193.61 324.16 L 193.81 323.81 L 193.88 323.64 L 193.91 323.63 L 194.08 323.26 L 194.11 323.25 L 194.30 322.88 L 194.34 322.87 L 194.63 321.07 L 194.67 321.07 L 194.78 320.76 L 194.90 320.75 L 195.06 320.75 L 195.14 320.71 L 195.71 320.37 L 195.72 320.38 L 195.83 319.58 L 196.08 319.57 L 196.31 318.36 L 196.38 318.26 L 196.49 318.25 L 196.54 318.20 L 196.67 317.27 L 197.30 309.45 L 197.37 309.07 L 197.59 309.04 L 197.65 308.94 L 197.70 308.92 L 197.81 308.71 L 197.91 307.82 L 198.13 307.64 L 198.29 307.62 L 198.42 307.23 L 198.49 307.22 L 199.06 306.93 L 199.37 306.71 L 199.46 306.36 L 199.73 306.34 L 199.76 306.34 L 199.78 306.31 L 199.95 304.43 L 200.08 304.32 L 200.55 302.42 L 200.63 301.87 L 200.72 301.85 L 200.84 301.65 L 200.86 301.51 L 200.91 301.41 L 200.95 301.36 L 201.02 301.36 L 201.08 301.26 L 201.27 299.71 L 201.41 299.48 L 201.54 299.03 L 201.72 298.99 L 201.93 298.85 L 202.13 297.75 L 202.27 296.23 L 202.57 296.14 L 202.57 295.58 L 202.75 295.39 L 216.88 295.39 L 217.15 295.37 L 217.82 294.57 L 217.96 294.55 L 218.07 294.55 L 218.09 294.35 L 218.33 294.10 L 218.50 294.06 L 218.60 293.91 L 218.70 293.80 L 218.75 293.75 L 219.01 293.67 L 219.52 293.58 L 219.65 293.16 L 219.74 293.06 L 219.86 293.04 L 220.52 292.84 L 220.61 292.72 L 220.66 292.72 L 220.70 292.56 L 220.84 292.49 L 220.95 292.34 L 221.43 291.32 L 222.11 291.16 L 222.36 291.09 L 223.11 290.84 L 223.47 285.92 L 223.60 285.81 L 223.75 285.33 L 223.97 284.69 L 224.32 284.50 L 224.80 284.49 L 225.44 284.47 L 225.54 284.25 L 226.00 284.03 L 226.30 283.67 L 226.40 283.53 L 226.58 283.47 L 226.72 283.03 L 228.40 282.55 L 229.99 282.55 L 244.22 282.51 L 244.32 282.29 L 244.39 282.15 L 244.84 281.94 L 246.17 280.25 L 246.22 280.13 L 246.41 279.70 L 247.06 279.59 L 247.37 278.44 L 247.84 278.43 L 247.95 278.41 L 248.06 277.63 L 248.88 273.15 L 248.98 273.15 L 249.15 273.11 L 249.34 273.05 L 249.42 272.57 L 249.88 270.88 L 250.05 270.57 L 250.12 270.54 L 250.23 269.76 L 250.43 268.67 L 250.52 267.50 L 250.72 266.98 L 251.34 261.17 L 251.40 260.58 L 251.46 260.58 L 251.55 260.47 L 251.71 260.33 L 251.77 260.27 L 251.83 260.21 L 252.12 258.82 L 252.19 257.83 L 252.55 257.64 L 252.77 256.17 L 252.90 255.25 L 254.01 241.69 L 254.13 241.66 L 295.95 241.01 L 295.99 241.01 L 311.98 240.82 L 312.85 240.45 L 313.02 240.45 L 313.26 240.35 L 313.34 240.18 L 313.43 240.13 L 320.36 240.03 L 321.28 237.45 L 321.62 237.22 L 321.80 236.27 L 326.11 236.08 L 326.14 235.82 L 326.41 235.80 L 327.70 234.17 L 327.78 233.88 L 327.94 233.77 L 328.39 233.66 L 328.45 233.62 L 328.63 233.13 L 328.83 233.00 L 328.86 232.63 L 342.29 232.14 L 342.39 230.75 L 342.92 230.44 L 342.93 228.12 L 343.03 227.77 L 343.14 227.20 L 343.29 225.60 L 343.51 224.75 L 343.71 223.75 L 343.88 223.74 L 343.95 222.98 L 344.22 222.91 L 345.15 219.17 L 345.52 218.77 L 345.59 218.53 L 345.67 218.53 L 345.71 218.27 L 345.84 217.35 L 346.22 216.91 L 346.28 216.85 L 346.51 213.55 L 346.60 213.54 L 346.63 213.19 L 346.72 212.92 L 346.78 212.91 L 346.83 212.42 L 347.12 210.64 L 347.25 210.13 L 347.41 210.07 L 347.53 205.30 L 347.58 204.91 L 347.87 202.19 L 347.95 201.98 L 348.01 201.97 L 348.08 201.97 L 348.13 201.59 L 348.17 201.60 L 348.19 201.59 L 348.34 196.78 L 348.39 196.36 L 348.53 196.33 L 348.64 196.25 L 348.94 196.11 L 349.31 195.93 L 349.32 195.93 L 349.42 195.87 L 349.77 195.78 L 349.93 195.78 L 350.09 195.78 L 350.27 193.68 L 350.38 193.18 L 350.86 193.17 L 350.90 192.84 L 350.96 192.84 L 351.00 192.48 L 351.31 189.45 L 351.36 189.37 L 351.59 189.35 L 372.26 189.27 L 373.43 189.11 L 373.47 189.11 L 373.70 189.11 L 373.72 189.11 L 373.87 188.51 L 373.99 188.48 L 374.09 188.19 L 374.23 188.11 L 374.27 188.07 L 374.33 188.04 L 374.55 187.71 L 375.00 187.40 L 375.28 186.43 L 375.60 185.50 L 375.61 185.45 L 375.66 184.58 L 375.70 184.55 L 376.32 184.04 L 376.33 183.98 L 376.42 183.29 L 376.69 183.22 L 376.86 183.15 L 376.89 181.92 L 376.90 181.86 L 376.98 183.03 L 377.02 182.31 L 377.05 182.28 L 377.20 180.64 L 377.21 180.59 L 377.54 180.46 L 378.42 180.43 L 378.63 180.38 L 378.69 180.36 L 378.74 180.15 L 378.79 180.15 L 378.91 179.33 L 393.04 177.76 L 393.06 177.55 L 393.18 177.40 L 393.22 177.10 L 393.30 163.37 L 393.45 157.75 L 393.47 157.72 L 393.73 157.61 L 393.79 157.61 L 393.83 156.96 L 394.06 156.90 L 394.67 155.57 L 394.69 155.54 L 394.84 155.13 L 394.90 155.15 L 394.93 154.48 L 395.45 153.70 L 395.46 153.67 L 396.23 153.37 L 396.33 152.67 L 396.60 152.68 L 396.92 150.91 L 397.00 150.21 L 397.06 149.65 L 397.20 148.97 L 397.60 148.72 L 397.67 148.55 L 397.85 148.40 L 398.04 148.40 L 398.63 148.40 L 398.70 148.40 L 398.84 148.37 L 398.85 148.37 L 399.04 148.38 L 399.49 148.35 L 399.95 148.09 L 400.02 148.09 L 400.13 147.99 L 400.26 147.80 L 400.61 147.80 L 401.21 147.55 L 401.40 147.00 L 401.73 142.27 L 403.03 146.27 L 403.31 146.25 L 403.52 146.24 L 403.84 146.23 L 403.95 146.15 L 404.27 145.93 L 404.78 145.60 L 404.85 145.38 L 404.95 145.29 L 405.01 145.32 L 405.06 145.25 L 405.46 144.95 L 414.82 144.95 L 414.91 144.95 L 415.49 144.93 L 415.55 144.91 L 415.67 144.31 L 415.78 143.97 L 415.80 143.97 L 416.12 143.92 L 416.20 143.89 L 418.12 143.00 L 418.34 142.92 L 418.51 142.90 L 418.54 142.90 L 419.14 142.69 L 419.34 142.79 L 419.38 142.79 L 419.70 142.73 L 420.05 140.86 L 420.09 140.85 L 420.38 140.63 L 420.50 140.63 L 420.61 140.63 L 420.85 140.42 L 421.37 139.67 L 421.47 139.64 L 421.57 139.43 L 421.78 138.54 L 422.30 137.61 L 422.75 133.26 L 422.85 132.73 L 423.32 132.52 L 423.40 132.41 L 423.47 132.20 L 423.52 131.50 L 423.68 130.25 L 423.72 130.30 L 423.80 130.27 L 424.06 130.27 L 424.47 129.81 L 424.72 129.72 L 425.01 129.70 L 425.15 129.68 L 425.43 129.67 L 425.90 129.67 L 426.37 129.66 L 426.73 129.65 L 426.81 129.64 L 426.91 129.63 L 426.91 129.47 L 427.19 129.39 L 427.27 129.37 L 427.38 129.18 L 428.15 129.15 L 428.16 128.77 L 428.37 128.76 L 429.27 128.77 L 429.86 128.54 L 430.29 128.26 L 430.31 128.11 L 430.34 128.10 L 443.46 127.85 L 443.50 127.84 L 443.65 127.82 L 443.72 127.61 L 443.77 127.58 L 443.78 127.57 L 444.34 127.51 L 444.46 126.72 L 444.63 126.54 L 444.91 124.99 L 445.09 124.98 L 445.31 124.32 L 445.44 124.40 L 445.50 124.39 L 445.56 123.64 L 445.73 123.12 L 445.75 122.57 L 445.81 122.50 L 445.95 122.45 L 446.04 122.20 L 446.16 125.16 L 446.32 125.11 L 446.64 123.93 L 446.78 123.63 L 446.91 123.39 L 447.71 121.69 L 448.40 120.86 L 449.23 119.29 L 449.44 119.22 L 449.68 119.22 L 449.93 119.15 L 454.75 118.70 L 455.15 118.66 L 500.84 117.47 L 644.69 117.19 L 645.16 116.71 L 645.49 116.64 L 645.82 116.64 L 646.32 115.72 L 646.49 115.28 L 646.62 114.45 L 646.85 112.06 L 647.19 112.55 L 647.45 112.03 L 647.52 112.02 L 647.74 111.87 L 647.79 111.87 L 648.02 110.99 L 648.24 109.59 L 648.89 108.10 L 648.91 107.98 L 649.10 106.21 L 649.71 101.82 L 649.73 101.67 L 649.85 101.57 L 650.00 100.00"/>
	</g>
	<g id="poloto_plot1" class="poloto_plot poloto_imgs poloto_line poloto1 poloto_stroke" fill="none" stroke="black">
		<path d=" M 150.00 376.13 L 150.04 376.11 L 150.06 376.09 L 150.07 376.09 L 150.10 376.09 L 150.14 375.34 L 150.29 375.31 L 150.65 375.30 L 151.17 375.01 L 151.43 374.89 L 151.96 374.92 L 152.06 374.86 L 152.13 374.86 L 152.75 374.81 L 153.91 374.67 L 154.28 371.72 L 154.37 371.72 L 155.07 371.64 L 155.88 371.63 L 155.89 371.63 L 155.89 371.63 L 166.81 371.63 L 166.89 371.63 L 167.03 371.63 L 167.09 371.59 L 167.50 371.57 L 167.69 371.57 L 168.15 371.57 L 168.22 371.57 L 168.35 371.55 L 168.49 371.55 L 168.53 371.55 L 168.64 371.52 L 168.76 371.52 L 168.88 371.52 L 169.19 371.35 L 169.45 371.35 L 169.50 371.35 L 169.63 371.35 L 170.50 372.46 L 170.52 372.46 L 170.63 372.45 L 171.12 372.28 L 171.52 372.10 L 171.97 372.01 L 172.06 371.96 L 172.07 371.96 L 172.16 371.96 L 172.33 371.96 L 172.55 371.89 L 172.98 371.82 L 173.00 371.82 L 173.08 371.82 L 173.18 371.79 L 173.43 371.79 L 173.45 371.79 L 173.71 371.78 L 173.81 371.78 L 173.90 371.78 L 174.00 371.78 L 175.33 371.65 L 175.65 371.64 L 176.39 371.58 L 176.55 371.58 L 176.67 371.58 L 176.73 371.58 L 177.24 371.49 L 177.47 371.49 L 177.73 371.38 L 177.86 371.37 L 178.17 371.13 L 178.30 371.05 L 178.48 371.05 L 178.65 371.04 L 179.24 367.59 L 179.26 367.54 L 179.28 367.54 L 179.49 367.20 L 189.61 367.20 L 190.66 365.71 L 190.70 365.71 L 191.93 365.71 L 192.04 365.71 L 192.15 365.55 L 192.46 365.53 L 192.60 365.53 L 192.64 365.53 L 192.80 365.53 L 193.16 365.53 L 193.17 365.21 L 193.31 365.20 L 193.45 365.20 L 193.61 365.16 L 193.81 365.15 L 193.88 365.15 L 193.91 365.15 L 194.08 365.15 L 194.11 365.15 L 194.30 365.15 L 194.34 365.15 L 194.63 363.69 L 194.67 363.69 L 194.78 363.51 L 194.90 363.51 L 195.06 363.51 L 195.14 363.50 L 195.71 363.49 L 195.72 363.49 L 195.83 363.40 L 196.08 363.40 L 196.31 362.57 L 196.38 362.46 L 196.49 362.46 L 196.54 362.46 L 196.67 362.44 L 197.30 356.28 L 197.37 356.33 L 197.59 356.33 L 197.65 356.33 L 197.70 356.32 L 197.81 356.32 L 197.91 356.23 L 198.13 356.23 L 198.29 356.23 L 198.42 356.22 L 198.49 356.22 L 199.06 356.21 L 199.37 356.21 L 199.46 356.05 L 199.73 356.05 L 199.76 356.05 L 199.78 356.05 L 199.95 355.64 L 200.08 355.53 L 200.55 354.07 L 200.63 354.07 L 200.72 354.07 L 200.84 354.09 L 200.86 354.09 L 200.91 354.09 L 200.95 354.09 L 201.02 354.09 L 201.08 354.09 L 201.27 354.06 L 201.41 354.06 L 201.54 354.04 L 201.72 354.04 L 201.93 354.03 L 202.13 353.49 L 202.27 353.30 L 202.57 353.30 L 202.57 353.30 L 202.75 353.30 L 216.88 353.30 L 217.15 353.29 L 217.82 353.19 L 217.96 353.18 L 218.07 353.18 L 218.09 353.18 L 218.33 353.18 L 218.50 353.18 L 218.60 353.18 L 218.70 353.18 L 218.75 353.17 L 219.01 353.17 L 219.52 353.20 L 219.65 353.20 L 219.74 353.20 L 219.86 353.20 L 220.52 353.08 L 220.61 353.03 L 220.66 353.03 L 220.70 352.95 L 220.84 352.94 L 220.95 352.94 L 221.43 352.38 L 222.11 352.38 L 222.36 352.38 L 223.11 352.38 L 223.47 348.61 L 223.60 348.60 L 223.75 348.60 L 223.97 348.60 L 224.32 348.60 L 224.80 348.60 L 225.44 348.60 L 225.54 348.60 L 226.00 348.51 L 226.30 348.35 L 226.40 348.35 L 226.58 348.35 L 226.72 348.33 L 228.40 348.09 L 229.99 348.09 L 244.22 348.09 L 244.32 348.09 L 244.39 348.09 L 244.84 348.09 L 246.17 346.90 L 246.22 346.86 L 246.41 346.74 L 247.06 346.73 L 247.37 346.45 L 247.84 346.45 L 247.95 346.45 L 248.06 346.45 L 248.88 343.14 L 248.98 343.14 L 249.15 343.14 L 249.34 343.14 L 249.42 342.93 L 249.88 342.53 L 250.05 342.53 L 250.12 342.53 L 250.23 341.92 L 250.43 341.31 L 250.52 341.31 L 250.72 341.29 L 251.34 336.36 L 251.40 336.36 L 251.46 336.36 L 251.55 336.36 L 251.71 336.36 L 251.77 336.36 L 251.83 336.36 L 252.12 336.36 L 252.19 336.25 L 252.55 336.23 L 252.77 336.16 L 252.90 335.57 L 254.01 325.75 L 254.13 325.75 L 295.95 325.75 L 295.99 325.75 L 311.98 325.75 L 312.85 325.60 L 313.02 325.60 L 313.26 325.60 L 313.34 325.60 L 313.43 325.60 L 320.36 325.53 L 321.28 325.43 L 321.62 325.43 L 321.80 325.40 L 326.11 325.32 L 326.14 325.19 L 326.41 325.19 L 327.70 323.86 L 327.78 323.86 L 327.94 323.86 L 328.39 323.86 L 328.45 323.86 L 328.63 323.86 L 328.83 323.86 L 328.86 323.86 L 342.29 323.83 L 342.39 323.60 L 342.92 323.60 L 342.93 321.99 L 343.03 321.99 L 343.14 321.99 L 343.29 321.85 L 343.51 321.85 L 343.71 321.78 L 343.88 321.78 L 343.95 321.78 L 344.22 321.76 L 345.15 319.03 L 345.52 319.03 L 345.59 319.01 L 345.67 319.01 L 345.71 319.01 L 345.84 318.97 L 346.22 318.63 L 346.28 318.58 L 346.51 316.14 L 346.60 316.13 L 346.63 316.13 L 346.72 316.09 L 346.78 316.09 L 346.83 316.09 L 347.12 314.76 L 347.25 314.74 L 347.41 314.71 L 347.53 310.57 L 347.58 310.56 L 347.87 308.23 L 347.95 308.23 L 348.01 308.23 L 348.08 308.23 L 348.13 308.23 L 348.17 308.23 L 348.19 308.23 L 348.34 303.91 L 348.39 303.91 L 348.53 303.89 L 348.64 303.89 L 348.94 303.81 L 349.31 303.69 L 349.32 303.69 L 349.42 303.66 L 349.77 303.59 L 349.93 303.59 L 350.09 303.59 L 350.27 301.74 L 350.38 301.74 L 350.86 301.73 L 350.90 301.72 L 350.96 301.72 L 351.00 301.72 L 351.31 299.07 L 351.36 299.07 L 351.59 299.05 L 372.26 299.05 L 373.43 299.03 L 373.47 299.03 L 373.70 299.03 L 373.72 299.03 L 373.87 299.03 L 373.99 299.03 L 374.09 298.90 L 374.23 298.90 L 374.27 298.90 L 374.33 298.90 L 374.55 298.66 L 375.00 298.50 L 375.28 298.35 L 375.60 297.60 L 375.61 297.60 L 375.66 297.41 L 375.70 297.39 L 376.32 296.93 L 376.33 296.93 L 376.42 296.86 L 376.69 296.86 L 376.86 296.82 L 376.89 295.71 L 376.90 295.71 L 376.98 296.80 L 377.02 296.74 L 377.05 296.73 L 377.20 295.25 L 377.21 295.25 L 377.54 295.19 L 378.42 295.19 L 378.63 295.19 L 378.69 295.19 L 378.74 295.19 L 378.79 295.19 L 378.91 295.09 L 393.04 293.86 L 393.06 293.86 L 393.18 293.86 L 393.22 293.59 L 393.30 280.49 L 393.45 275.61 L 393.47 275.61 L 393.73 275.52 L 393.79 275.52 L 393.83 275.50 L 394.06 275.50 L 394.67 274.31 L 394.69 274.31 L 394.84 274.24 L 394.90 274.24 L 394.93 274.14 L 395.45 273.43 L 395.46 273.43 L 396.23 273.28 L 396.33 273.24 L 396.60 273.25 L 396.92 271.64 L 397.00 271.48 L 397.06 271.33 L 397.20 270.72 L 397.60 270.57 L 397.67 270.44 L 397.85 270.44 L 398.04 270.44 L 398.63 270.44 L 398.70 270.44 L 398.84 270.44 L 398.85 270.44 L 399.04 270.46 L 399.49 270.46 L 399.95 270.30 L 400.02 270.30 L 400.13 270.28 L 400.26 270.28 L 400.61 270.28 L 401.21 270.28 L 401.40 270.13 L 401.73 265.90 L 403.03 269.89 L 403.31 269.87 L 403.52 269.86 L 403.84 269.86 L 403.95 269.82 L 404.27 269.79 L 404.78 269.55 L 404.85 269.55 L 404.95 269.55 L 405.01 269.55 L 405.06 269.55 L 405.46 269.32 L 414.82 269.32 L 414.91 269.32 L 415.49 269.30 L 415.55 269.30 L 415.67 269.26 L 415.78 268.97 L 415.80 268.96 L 416.12 268.93 L 416.20 268.93 L 418.12 268.69 L 418.34 268.69 L 418.51 268.69 L 418.54 268.69 L 419.14 268.52 L 419.34 268.52 L 419.38 268.52 L 419.70 268.51 L 420.05 267.51 L 420.09 267.51 L 420.38 267.34 L 420.50 267.34 L 420.61 267.34 L 420.85 267.34 L 421.37 267.32 L 421.47 267.30 L 421.57 267.20 L 421.78 267.04 L 422.30 266.88 L 422.75 262.89 L 422.85 262.76 L 423.32 262.57 L 423.40 262.52 L 423.47 262.38 L 423.52 262.10 L 423.68 260.90 L 423.72 260.96 L 423.80 260.93 L 424.06 260.92 L 424.47 260.76 L 424.72 260.70 L 425.01 260.68 L 425.15 260.67 L 425.43 260.65 L 425.90 260.65 L 426.37 260.64 L 426.73 260.64 L 426.81 260.63 L 426.91 260.63 L 426.91 260.62 L 427.19 260.62 L 427.27 260.60 L 427.38 260.45 L 428.15 260.44 L 428.16 260.44 L 428.37 260.42 L 429.27 260.42 L 429.86 260.22 L 430.29 260.05 L 430.31 260.05 L 430.34 260.05 L 443.46 260.05 L 443.50 260.05 L 443.65 260.05 L 443.72 260.05 L 443.77 260.02 L 443.78 260.02 L 444.34 260.02 L 444.46 260.01 L 444.63 259.98 L 444.91 259.96 L 445.09 259.96 L 445.31 259.86 L 445.44 259.86 L 445.50 259.86 L 445.56 259.86 L 445.73 259.50 L 445.75 259.50 L 445.81 259.50 L 445.95 259.50 L 446.04 259.50 L 446.16 259.58 L 446.32 259.58 L 446.64 259.57 L 446.78 259.57 L 446.91 259.57 L 447.71 258.40 L 448.40 258.08 L 449.23 257.24 L 449.44 257.24 L 449.68 257.24 L 449.93 257.24 L 454.75 257.14 L 455.15 257.14 L 500.84 256.99 L 644.69 256.77 L 645.16 256.70 L 645.49 256.69 L 645.82 256.69 L 646.32 256.15 L 646.49 256.15 L 646.62 256.15 L 646.85 254.18 L 647.19 254.56 L 647.45 254.53 L 647.52 254.53 L 647.74 254.52 L 647.79 254.52 L 648.02 254.51 L 648.24 254.42 L 648.89 253.18 L 648.91 253.18 L 649.10 253.07 L 649.71 249.04 L 649.73 249.04 L 649.85 249.04 L 650.00 248.98"/>
	</g>
	<g id="poloto_plot2" class="poloto_plot poloto_imgs poloto_line poloto2 poloto_stroke" fill="none" stroke="black">
		<path d=" M 150.00 389.29 L 150.04 389.28 L 150.06 389.28 L 150.07 389.28 L 150.10 389.28 L 150.14 386.54 L 150.29 386.17 L 150.65 386.16 L 151.17 386.14 L 151.43 384.50 L 151.96 384.36 L 152.06 384.31 L 152.13 384.27 L 152.75 383.53 L 153.91 382.96 L 154.28 382.85 L 154.37 382.85 L 155.07 382.81 L 155.88 382.81 L 155.89 382.81 L 155.89 382.81 L 166.81 382.81 L 166.89 382.80 L 167.03 382.78 L 167.09 382.78 L 167.50 382.62 L 167.69 382.57 L 168.15 382.30 L 168.22 382.18 L 168.35 381.94 L 168.49 381.91 L 168.53 381.91 L 168.64 381.86 L 168.76 381.86 L 168.88 381.86 L 169.19 381.59 L 169.45 381.34 L 169.50 381.34 L 169.63 381.19 L 170.50 380.86 L 170.52 380.86 L 170.63 380.76 L 171.12 380.39 L 171.52 379.94 L 171.97 379.76 L 172.06 379.76 L 172.07 379.77 L 172.16 379.52 L 172.33 379.52 L 172.55 379.48 L 172.98 379.30 L 173.00 378.98 L 173.08 378.98 L 173.18 378.82 L 173.43 378.82 L 173.45 378.82 L 173.71 378.34 L 173.81 378.31 L 173.90 378.27 L 174.00 378.04 L 175.33 377.91 L 175.65 377.86 L 176.39 377.53 L 176.55 377.54 L 176.67 377.52 L 176.73 377.27 L 177.24 375.93 L 177.47 375.91 L 177.73 375.50 L 177.86 375.46 L 178.17 375.28 L 178.30 375.22 L 178.48 374.93 L 178.65 374.70 L 179.24 374.70 L 179.26 374.67 L 179.28 374.48 L 179.49 373.18 L 189.61 373.05 L 190.66 372.65 L 190.70 372.60 L 191.93 372.28 L 192.04 372.27 L 192.15 372.04 L 192.46 371.88 L 192.60 371.58 L 192.64 371.34 L 192.80 370.85 L 193.16 370.84 L 193.17 370.84 L 193.31 370.51 L 193.45 370.50 L 193.61 370.15 L 193.81 369.87 L 193.88 369.72 L 193.91 369.71 L 194.08 369.39 L 194.11 369.38 L 194.30 369.09 L 194.34 369.08 L 194.63 368.97 L 194.67 368.97 L 194.78 368.86 L 194.90 368.84 L 195.06 368.84 L 195.14 368.82 L 195.71 368.53 L 195.72 368.54 L 195.83 367.96 L 196.08 367.94 L 196.31 367.76 L 196.38 367.76 L 196.49 367.75 L 196.54 367.70 L 196.67 366.90 L 197.30 366.23 L 197.37 365.86 L 197.59 365.83 L 197.65 365.74 L 197.70 365.72 L 197.81 365.55 L 197.91 364.92 L 198.13 364.82 L 198.29 364.80 L 198.42 364.49 L 198.49 364.48 L 199.06 364.24 L 199.37 364.07 L 199.46 363.93 L 199.73 363.91 L 199.76 363.91 L 199.78 363.88 L 199.95 362.74 L 200.08 362.73 L 200.55 362.56 L 200.63 362.10 L 200.72 362.10 L 200.84 361.91 L 200.86 361.80 L 200.91 361.72 L 200.95 361.68 L 201.02 361.67 L 201.08 361.58 L 201.27 360.29 L 201.41 360.16 L 201.54 359.78 L 201.72 359.75 L 201.93 359.62 L 202.13 359.22 L 202.27 358.11 L 202.57 358.02 L 202.57 357.54 L 202.75 357.43 L 216.88 357.43 L 217.15 357.43 L 217.82 356.90 L 217.96 356.90 L 218.07 356.90 L 218.09 356.76 L 218.33 356.54 L 218.50 356.50 L 218.60 356.36 L 218.70 356.26 L 218.75 356.21 L 219.01 356.14 L 219.52 356.25 L 219.65 355.89 L 219.74 355.80 L 219.86 355.79 L 220.52 355.72 L 220.61 355.66 L 220.66 355.66 L 220.70 355.59 L 220.84 355.53 L 220.95 355.40 L 221.43 355.07 L 222.11 354.93 L 222.36 354.87 L 223.11 354.65 L 223.47 354.13 L 223.60 354.05 L 223.75 353.64 L 223.97 353.11 L 224.32 352.97 L 224.80 352.96 L 225.44 352.94 L 225.54 352.75 L 226.00 352.62 L 226.30 352.45 L 226.40 352.32 L 226.58 352.27 L 226.72 351.92 L 228.40 351.74 L 229.99 351.74 L 244.22 351.70 L 244.32 351.51 L 244.39 351.39 L 244.84 351.19 L 246.17 350.84 L 246.22 350.79 L 246.41 350.55 L 247.06 350.45 L 247.37 349.77 L 247.84 349.75 L 247.95 349.73 L 248.06 349.06 L 248.88 348.44 L 248.98 348.44 L 249.15 348.40 L 249.34 348.34 L 249.42 348.11 L 249.88 347.08 L 250.05 346.81 L 250.12 346.79 L 250.23 346.68 L 250.43 346.27 L 250.52 345.23 L 250.72 344.81 L 251.34 344.56 L 251.40 344.04 L 251.46 344.04 L 251.55 343.95 L 251.71 343.81 L 251.77 343.77 L 251.83 343.72 L 252.12 342.51 L 252.19 341.79 L 252.55 341.66 L 252.77 340.45 L 252.90 340.22 L 254.01 338.32 L 254.13 338.28 L 295.95 337.73 L 295.99 337.73 L 311.98 337.57 L 312.85 337.37 L 313.02 337.37 L 313.26 337.27 L 313.34 337.12 L 313.43 337.09 L 320.36 337.07 L 321.28 334.89 L 321.62 334.70 L 321.80 333.94 L 326.11 333.85 L 326.14 333.78 L 326.41 333.76 L 327.70 333.63 L 327.78 333.38 L 327.94 333.29 L 328.39 333.18 L 328.45 333.15 L 328.63 332.73 L 328.83 332.60 L 328.86 332.27 L 342.29 331.86 L 342.39 330.87 L 342.92 330.61 L 342.93 330.23 L 343.03 329.94 L 343.14 329.48 L 343.29 328.28 L 343.51 327.62 L 343.71 326.77 L 343.88 326.77 L 343.95 326.11 L 344.22 326.06 L 345.15 325.44 L 345.52 325.15 L 345.59 324.98 L 345.67 324.97 L 345.71 324.76 L 345.84 324.01 L 346.22 323.94 L 346.28 323.93 L 346.51 323.45 L 346.60 323.45 L 346.63 323.17 L 346.72 323.00 L 346.78 322.99 L 346.83 322.60 L 347.12 322.37 L 347.25 321.99 L 347.41 321.97 L 347.53 321.76 L 347.58 321.47 L 347.87 321.31 L 347.95 321.14 L 348.01 321.14 L 348.08 321.14 L 348.13 320.83 L 348.17 320.85 L 348.19 320.84 L 348.34 320.74 L 348.39 320.40 L 348.53 320.40 L 348.64 320.32 L 348.94 320.29 L 349.31 320.26 L 349.32 320.26 L 349.42 320.24 L 349.77 320.24 L 349.93 320.24 L 350.09 320.24 L 350.27 320.18 L 350.38 319.78 L 350.86 319.78 L 350.90 319.54 L 350.96 319.54 L 351.00 319.27 L 351.31 319.18 L 351.36 319.12 L 351.59 319.12 L 372.26 319.04 L 373.43 318.93 L 373.47 318.93 L 373.70 318.93 L 373.72 318.93 L 373.87 318.46 L 373.99 318.45 L 374.09 318.31 L 374.23 318.24 L 374.27 318.20 L 374.33 318.18 L 374.55 318.13 L 375.00 318.04 L 375.28 317.41 L 375.60 317.37 L 375.61 317.33 L 375.66 316.81 L 375.70 316.80 L 376.32 316.80 L 376.33 316.75 L 376.42 316.26 L 376.69 316.20 L 376.86 316.18 L 376.89 316.17 L 376.90 316.12 L 376.98 316.08 L 377.02 315.58 L 377.05 315.57 L 377.20 315.57 L 377.21 315.53 L 377.54 315.48 L 378.42 315.46 L 378.63 315.42 L 378.69 315.40 L 378.74 315.24 L 378.79 315.24 L 378.91 314.68 L 393.04 314.51 L 393.06 314.35 L 393.18 314.23 L 393.22 314.22 L 393.30 313.74 L 393.45 313.62 L 393.47 313.59 L 393.73 313.59 L 393.79 313.59 L 393.83 313.11 L 394.06 313.05 L 394.67 313.03 L 394.69 313.01 L 394.84 312.75 L 394.90 312.76 L 394.93 312.31 L 395.45 312.31 L 395.46 312.29 L 396.23 312.18 L 396.33 311.65 L 396.60 311.65 L 396.92 311.65 L 397.00 311.26 L 397.06 310.96 L 397.20 310.95 L 397.60 310.88 L 397.67 310.86 L 397.85 310.74 L 398.04 310.74 L 398.63 310.74 L 398.70 310.74 L 398.84 310.71 L 398.85 310.71 L 399.04 310.71 L 399.49 310.68 L 399.95 310.62 L 400.02 310.62 L 400.13 310.57 L 400.26 310.43 L 400.61 310.43 L 401.21 310.25 L 401.40 309.96 L 401.73 309.93 L 403.03 309.60 L 403.31 309.60 L 403.52 309.60 L 403.84 309.59 L 403.95 309.57 L 404.27 309.40 L 404.78 309.38 L 404.85 309.24 L 404.95 309.17 L 405.01 309.18 L 405.06 309.13 L 405.46 309.11 L 414.82 309.10 L 414.91 309.10 L 415.49 309.10 L 415.55 309.08 L 415.67 308.64 L 415.78 308.62 L 415.80 308.63 L 416.12 308.61 L 416.20 308.59 L 418.12 307.94 L 418.34 307.87 L 418.51 307.86 L 418.54 307.85 L 419.14 307.84 L 419.34 307.93 L 419.38 307.93 L 419.70 307.88 L 420.05 307.27 L 420.09 307.26 L 420.38 307.24 L 420.50 307.24 L 420.61 307.24 L 420.85 307.11 L 421.37 306.55 L 421.47 306.55 L 421.57 306.47 L 421.78 305.96 L 422.30 305.40 L 422.75 305.44 L 422.85 305.14 L 423.32 305.14 L 423.40 305.10 L 423.47 305.07 L 423.52 304.78 L 423.68 304.77 L 423.72 304.77 L 423.80 304.77 L 424.06 304.77 L 424.47 304.53 L 424.72 304.50 L 425.01 304.50 L 425.15 304.50 L 425.43 304.50 L 425.90 304.50 L 426.37 304.50 L 426.73 304.50 L 426.81 304.50 L 426.91 304.49 L 426.91 304.38 L 427.19 304.31 L 427.27 304.31 L 427.38 304.30 L 428.15 304.29 L 428.16 304.00 L 428.37 304.00 L 429.27 304.01 L 429.86 304.00 L 430.29 303.94 L 430.31 303.82 L 430.34 303.82 L 443.46 303.63 L 443.50 303.62 L 443.65 303.60 L 443.72 303.43 L 443.77 303.43 L 443.78 303.42 L 444.34 303.36 L 444.46 302.77 L 444.63 302.64 L 444.91 301.48 L 445.09 301.47 L 445.31 300.97 L 445.44 301.03 L 445.50 301.02 L 445.56 300.39 L 445.73 300.28 L 445.75 299.84 L 445.81 299.78 L 445.95 299.74 L 446.04 299.52 L 446.16 302.12 L 446.32 302.08 L 446.64 301.04 L 446.78 300.81 L 446.91 300.57 L 447.71 300.16 L 448.40 299.72 L 449.23 299.11 L 449.44 299.04 L 449.68 299.04 L 449.93 298.98 L 454.75 298.68 L 455.15 298.64 L 500.84 297.83 L 644.69 297.80 L 645.16 297.44 L 645.49 297.38 L 645.82 297.38 L 646.32 297.05 L 646.49 296.66 L 646.62 295.95 L 646.85 295.76 L 647.19 295.82 L 647.45 295.40 L 647.52 295.40 L 647.74 295.27 L 647.79 295.27 L 648.02 294.57 L 648.24 293.50 L 648.89 293.40 L 648.91 293.29 L 649.10 291.91 L 649.71 291.86 L 649.73 291.73 L 649.85 291.64 L 650.00 290.39"/>
	</g>
	<g class="poloto_legend poloto_imgs poloto_line poloto0 poloto_stroke"><line x1="680" x2="730" y1="81.25" y2="81.25"/></g>
	<g class="poloto_legend poloto_imgs poloto_line poloto1 poloto_stroke"><line x1="680" x2="730" y1="131.25" y2="131.25"/></g>
	<g class="poloto_legend poloto_imgs poloto_line poloto2 poloto_stroke"><line x1="680" x2="730" y1="181.25" y2="181.25"/></g>
	<text class="poloto_legend poloto_text poloto_line poloto0" x="675" y="100">total</text>
	<text class="poloto_legend poloto_text poloto_line poloto1" x="675" y="150">code</text>
	<text class="poloto_legend poloto_text poloto_line poloto2" x="675" y="200">docs</text>
	<text class="poloto_text poloto_name poloto_title" x="400.00" y="37.50">Workspace lines over time</text>
	<text class="poloto_text poloto_name poloto_x" x="400.00" y="640">date (JST)</text>
	<text class="poloto_text poloto_name poloto_y" x="37.50" y="250.00" transform="rotate(-90,37.50,250.00)">lines</text>
	<text class="poloto_text poloto_ticks poloto_y">
		<tspan x="135.00" y="400.00">0</tspan>
		<tspan x="135.00" y="298.19">50K</tspan>
		<tspan x="135.00" y="196.37">100K</tspan>
	</text>
	<g class="poloto_imgs poloto_ticks poloto_y" stroke="black">
		<line x1="150.00" x2="144.00" y1="400.00" y2="400.00"/>
		<line x1="150.00" x2="144.00" y1="298.19" y2="298.19"/>
		<line x1="150.00" x2="144.00" y1="196.37" y2="196.37"/>
	</g>
	<g class="poloto_text poloto_ticks poloto_x">
		<text x="186.14" y="430.00" text-anchor="end" transform="rotate(-90 186.14 430.00)">2026-04-22 04:33</text>
		<text x="244.04" y="430.00" text-anchor="end" transform="rotate(-90 244.04 430.00)">2026-04-24 12:06</text>
		<text x="301.94" y="430.00" text-anchor="end" transform="rotate(-90 301.94 430.00)">2026-04-26 19:40</text>
		<text x="359.84" y="430.00" text-anchor="end" transform="rotate(-90 359.84 430.00)">2026-04-29 03:13</text>
		<text x="417.74" y="430.00" text-anchor="end" transform="rotate(-90 417.74 430.00)">2026-05-01 10:46</text>
		<text x="475.64" y="430.00" text-anchor="end" transform="rotate(-90 475.64 430.00)">2026-05-03 18:20</text>
		<text x="533.54" y="430.00" text-anchor="end" transform="rotate(-90 533.54 430.00)">2026-05-06 01:53</text>
		<text x="591.44" y="430.00" text-anchor="end" transform="rotate(-90 591.44 430.00)">2026-05-08 09:26</text>
		<text x="649.34" y="430.00" text-anchor="end" transform="rotate(-90 649.34 430.00)">2026-05-10 17:00</text>
	</g>
	<g class="poloto_imgs poloto_ticks poloto_x" stroke="black">
		<line x1="186.14" x2="186.14" y1="400.00" y2="405.00"/>
		<line x1="244.04" x2="244.04" y1="400.00" y2="405.00"/>
		<line x1="301.94" x2="301.94" y1="400.00" y2="405.00"/>
		<line x1="359.84" x2="359.84" y1="400.00" y2="405.00"/>
		<line x1="417.74" x2="417.74" y1="400.00" y2="405.00"/>
		<line x1="475.64" x2="475.64" y1="400.00" y2="405.00"/>
		<line x1="533.54" x2="533.54" y1="400.00" y2="405.00"/>
		<line x1="591.44" x2="591.44" y1="400.00" y2="405.00"/>
		<line x1="649.34" x2="649.34" y1="400.00" y2="405.00"/>
	</g>
	<path class="poloto_imgs poloto_ticks poloto_x" stroke="black" style="stroke-dasharray:7.237582624243238;stroke-dashoffset:-36.13667103624903;" d=" M 150.00 400.00 L 650.00 400.00"/>
	<path class="poloto_imgs poloto_ticks poloto_y" stroke="black" style="stroke-dasharray:10.18136403127715;stroke-dashoffset:-0;" d=" M 150.00 400.00 L 150.00 100.00"/>
</svg>

