<svg class="poloto" width="800" height="680" viewBox="0 0 800 680" xmlns="http://www.w3.org/2000/svg">
	<style>
.poloto{
  stroke-linecap:round;
  stroke-linejoin:round;
  font-family:Roboto,sans-serif;
  font-size:16px;
}
.poloto_background{fill:AliceBlue;}
.poloto_scatter{stroke-width:7}
.poloto_line{stroke-width:2}
.poloto_text{fill: black;}
.poloto_name{font-size:24px;dominant-baseline:auto;text-anchor:middle;}
.poloto_where{dominant-baseline:middle;text-anchor:start}
.poloto_text.poloto_legend{font-size:20px;dominant-baseline:middle;text-anchor:start;}
.poloto_text.poloto_ticks.poloto_y{dominant-baseline:middle;text-anchor:end}
.poloto_text.poloto_ticks.poloto_x{dominant-baseline:auto;text-anchor:middle}
.poloto_imgs.poloto_ticks{stroke: black;stroke-width:3;fill:none;stroke-dasharray:none}
.poloto_grid{stroke:gray;stroke-width:0.5}

.poloto0.poloto_stroke{stroke:blue;}
.poloto1.poloto_stroke{stroke:red;}
.poloto2.poloto_stroke{stroke:green;}
.poloto3.poloto_stroke{stroke:gold;}
.poloto4.poloto_stroke{stroke:aqua;}
.poloto5.poloto_stroke{stroke:lime;}
.poloto6.poloto_stroke{stroke:orange;}
.poloto7.poloto_stroke{stroke:chocolate;}
.poloto0.poloto_fill{fill:blue;}
.poloto1.poloto_fill{fill:red;}
.poloto2.poloto_fill{fill:green;}
.poloto3.poloto_fill{fill:gold;}
.poloto4.poloto_fill{fill:aqua;}
.poloto5.poloto_fill{fill:lime;}
.poloto6.poloto_fill{fill:orange;}
.poloto7.poloto_fill{fill:chocolate;}
	</style>
	<circle r="1e5" class="poloto_background" fill="white"/>
	<g id="poloto_plot0" class="poloto_plot poloto_imgs poloto_line poloto0 poloto_stroke" fill="none" stroke="black">
		<path d=" M 150.00 357.80 L 150.04 357.77 L 150.06 357.74 L 150.07 357.74 L 150.10 357.74 L 150.14 353.16 L 150.29 352.61 L 150.65 352.59 L 151.18 352.21 L 151.44 349.88 L 151.98 349.74 L 152.07 349.62 L 152.14 349.56 L 152.76 348.43 L 153.93 347.50 L 154.30 343.91 L 154.40 343.91 L 155.11 343.77 L 155.92 343.76 L 155.93 343.76 L 155.93 343.76 L 166.92 343.76 L 167.00 343.75 L 167.14 343.72 L 167.20 343.68 L 167.62 343.47 L 167.81 343.41 L 168.27 343.08 L 168.34 342.94 L 168.47 342.61 L 168.61 342.56 L 168.66 342.56 L 168.77 342.47 L 168.89 342.47 L 169.01 342.48 L 169.32 341.94 L 169.59 341.61 L 169.64 341.62 L 169.77 341.42 L 170.64 342.24 L 170.66 342.24 L 170.77 342.11 L 171.27 341.49 L 171.67 340.76 L 172.12 340.43 L 172.21 340.37 L 172.22 340.38 L 172.31 340.09 L 172.48 340.09 L 172.70 339.99 L 173.13 339.71 L 173.16 339.28 L 173.24 339.28 L 173.34 339.06 L 173.59 339.06 L 173.61 339.06 L 173.87 338.45 L 173.97 338.41 L 174.07 338.36 L 174.17 338.12 L 175.50 337.78 L 175.83 337.72 L 176.57 337.28 L 176.73 337.28 L 176.85 337.27 L 176.91 336.95 L 177.43 335.13 L 177.65 335.10 L 177.92 334.49 L 178.05 334.43 L 178.36 333.93 L 178.49 333.75 L 178.68 333.42 L 178.85 333.14 L 179.44 328.95 L 179.45 328.84 L 179.48 328.59 L 179.69 326.58 L 189.88 326.43 L 190.93 324.14 L 190.97 324.08 L 192.22 323.73 L 192.32 323.71 L 192.44 323.26 L 192.74 323.03 L 192.88 322.64 L 192.93 322.30 L 193.09 321.70 L 193.46 321.69 L 193.47 321.28 L 193.61 320.83 L 193.75 320.82 L 193.90 320.32 L 194.10 319.96 L 194.18 319.78 L 194.21 319.77 L 194.38 319.38 L 194.41 319.37 L 194.60 318.97 L 194.64 318.96 L 194.93 317.07 L 194.98 317.07 L 195.08 316.76 L 195.20 316.74 L 195.37 316.74 L 195.44 316.70 L 196.02 316.34 L 196.03 316.35 L 196.14 315.51 L 196.39 315.50 L 196.62 314.23 L 196.69 314.12 L 196.80 314.11 L 196.85 314.06 L 196.98 313.09 L 197.62 304.87 L 197.69 304.47 L 197.91 304.44 L 197.98 304.34 L 198.03 304.31 L 198.13 304.09 L 198.23 303.16 L 198.46 302.97 L 198.62 302.95 L 198.75 302.54 L 198.82 302.53 L 199.39 302.22 L 199.71 301.99 L 199.80 301.62 L 200.07 301.60 L 200.09 301.60 L 200.12 301.57 L 200.29 299.59 L 200.42 299.48 L 200.90 297.48 L 200.97 296.90 L 201.06 296.89 L 201.19 296.68 L 201.20 296.52 L 201.26 296.43 L 201.30 296.37 L 201.37 296.37 L 201.43 296.26 L 201.62 294.64 L 201.76 294.40 L 201.89 293.92 L 202.07 293.88 L 202.28 293.73 L 202.48 292.58 L 202.63 290.98 L 202.93 290.89 L 202.93 290.29 L 203.10 290.10 L 217.34 290.10 L 217.61 290.08 L 218.28 289.24 L 218.42 289.21 L 218.53 289.21 L 218.55 289.00 L 218.80 288.74 L 218.97 288.70 L 219.06 288.54 L 219.16 288.43 L 219.22 288.37 L 219.48 288.29 L 219.99 288.19 L 220.12 287.76 L 220.22 287.65 L 220.34 287.63 L 221.00 287.42 L 221.09 287.29 L 221.14 287.29 L 221.18 287.13 L 221.32 287.05 L 221.43 286.89 L 221.91 285.82 L 222.60 285.65 L 222.85 285.58 L 223.61 285.31 L 223.97 280.15 L 224.10 280.04 L 224.25 279.53 L 224.48 278.85 L 224.82 278.66 L 225.31 278.64 L 225.95 278.62 L 226.05 278.40 L 226.52 278.16 L 226.82 277.79 L 226.92 277.63 L 227.10 277.57 L 227.25 277.11 L 228.93 276.61 L 230.53 276.61 L 244.86 276.56 L 244.96 276.34 L 245.04 276.19 L 245.48 275.97 L 246.82 274.19 L 246.88 274.07 L 247.06 273.61 L 247.72 273.50 L 248.03 272.29 L 248.51 272.28 L 248.62 272.26 L 248.72 271.44 L 249.55 266.73 L 249.65 266.73 L 249.83 266.69 L 250.01 266.63 L 250.10 266.12 L 250.56 264.35 L 250.73 264.02 L 250.80 263.99 L 250.91 263.17 L 251.12 262.02 L 251.20 260.80 L 251.41 260.25 L 252.03 254.14 L 252.09 253.53 L 252.15 253.53 L 252.24 253.42 L 252.40 253.26 L 252.46 253.20 L 252.52 253.14 L 252.82 251.67 L 252.89 250.64 L 253.25 250.43 L 253.47 248.90 L 253.60 247.93 L 254.71 233.68 L 254.84 233.64 L 296.95 232.96 L 296.99 232.96 L 313.08 232.77 L 313.95 232.38 L 314.13 232.38 L 314.37 232.27 L 314.45 232.09 L 314.54 232.04 L 321.52 231.94 L 322.44 229.23 L 322.78 228.99 L 322.97 227.99 L 327.31 227.79 L 327.34 227.51 L 327.61 227.49 L 328.91 225.78 L 328.99 225.47 L 329.15 225.36 L 329.60 225.25 L 329.66 225.20 L 329.85 224.69 L 330.04 224.55 L 330.07 224.17 L 343.60 223.65 L 343.70 222.19 L 344.23 221.86 L 344.24 219.42 L 344.34 219.06 L 344.45 218.46 L 344.60 216.77 L 344.83 215.88 L 345.02 214.84 L 345.20 214.82 L 345.27 214.02 L 345.54 213.95 L 346.48 210.02 L 346.85 209.60 L 346.92 209.35 L 347.00 209.35 L 347.05 209.07 L 347.17 208.11 L 347.56 207.64 L 347.61 207.58 L 347.84 204.12 L 347.93 204.11 L 347.97 203.74 L 348.06 203.45 L 348.11 203.45 L 348.17 202.93 L 348.46 201.06 L 348.59 200.52 L 348.76 200.46 L 348.87 195.45 L 348.92 195.04 L 349.21 192.18 L 349.30 191.96 L 349.35 191.96 L 349.43 191.95 L 349.48 191.55 L 349.52 191.56 L 349.53 191.55 L 349.69 186.50 L 349.74 186.06 L 349.88 186.03 L 349.99 185.94 L 350.29 185.80 L 350.66 185.61 L 350.68 185.61 L 350.78 185.55 L 351.13 185.45 L 351.29 185.45 L 351.45 185.45 L 351.63 183.25 L 351.75 182.72 L 352.22 182.71 L 352.27 182.36 L 352.33 182.36 L 352.36 181.98 L 352.68 178.79 L 352.73 178.72 L 352.96 178.70 L 373.77 178.60 L 374.95 178.44 L 374.99 178.44 L 375.22 178.44 L 375.24 178.44 L 375.39 177.81 L 375.51 177.78 L 375.61 177.47 L 375.76 177.39 L 375.80 177.35 L 375.85 177.32 L 376.07 176.97 L 376.53 176.65 L 376.81 175.62 L 377.13 174.65 L 377.14 174.60 L 377.19 173.69 L 377.24 173.65 L 377.86 173.11 L 377.87 173.05 L 377.96 172.33 L 378.23 172.25 L 378.40 172.18 L 378.44 170.89 L 378.45 170.82 L 378.52 172.05 L 378.57 171.30 L 378.59 171.27 L 378.75 169.54 L 378.76 169.49 L 379.08 169.35 L 379.97 169.32 L 380.18 169.26 L 380.25 169.25 L 380.29 169.02 L 380.34 169.02 L 380.47 168.17 L 394.69 166.52 L 394.71 166.29 L 394.83 166.14 L 394.87 165.82 L 394.95 151.40 L 395.11 145.50 L 395.12 145.46 L 395.39 145.35 L 395.45 145.35 L 395.49 144.67 L 395.72 144.60 L 396.34 143.21 L 396.35 143.18 L 396.51 142.75 L 396.57 142.76 L 396.60 142.06 L 397.12 141.24 L 397.13 141.21 L 397.91 140.89 L 398.00 140.16 L 398.28 140.17 L 398.60 138.31 L 398.68 137.57 L 398.74 136.98 L 398.88 136.27 L 399.29 136.01 L 399.36 135.83 L 399.53 135.67 L 399.73 135.67 L 400.33 135.67 L 400.40 135.67 L 400.53 135.64 L 400.54 135.63 L 400.74 135.65 L 401.19 135.62 L 401.65 135.35 L 401.72 135.34 L 401.83 135.24 L 401.96 135.04 L 402.32 135.04 L 402.92 134.78 L 403.11 134.20 L 403.44 129.23 L 404.75 133.44 L 405.03 133.42 L 405.24 133.40 L 405.57 133.39 L 405.67 133.31 L 406.00 133.07 L 406.51 132.73 L 406.58 132.50 L 406.68 132.41 L 406.74 132.43 L 406.79 132.36 L 407.19 132.05 L 416.62 132.04 L 416.71 132.05 L 417.29 132.03 L 417.35 132.01 L 417.48 131.37 L 417.59 131.02 L 417.61 131.02 L 417.93 130.96 L 418.01 130.93 L 419.94 130.00 L 420.17 129.92 L 420.33 129.90 L 420.37 129.89 L 420.97 129.67 L 421.17 129.78 L 421.21 129.77 L 421.53 129.71 L 421.88 127.75 L 421.93 127.73 L 422.22 127.51 L 422.34 127.51 L 422.45 127.51 L 422.69 127.29 L 423.22 126.50 L 423.32 126.47 L 423.41 126.25 L 423.63 125.31 L 424.15 124.34 L 424.61 119.77 L 424.70 119.21 L 425.17 118.99 L 425.26 118.87 L 425.33 118.65 L 425.38 117.91 L 425.54 116.60 L 425.58 116.65 L 425.66 116.63 L 425.93 116.62 L 426.34 116.14 L 426.59 116.04 L 426.88 116.03 L 427.02 116.01 L 427.30 115.99 L 427.78 115.99 L 428.25 115.98 L 428.61 115.98 L 428.70 115.96 L 428.79 115.95 L 428.79 115.79 L 429.07 115.69 L 429.15 115.68 L 429.26 115.48 L 430.04 115.45 L 430.05 115.05 L 430.26 115.03 L 431.16 115.04 L 431.76 114.80 L 432.20 114.51 L 432.21 114.35 L 432.25 114.35 L 445.45 114.08 L 445.50 114.07 L 445.65 114.05 L 445.72 113.82 L 445.77 113.80 L 445.77 113.79 L 446.34 113.72 L 446.46 112.90 L 446.63 112.71 L 446.91 111.08 L 447.09 111.06 L 447.32 110.37 L 447.45 110.45 L 447.51 110.45 L 447.57 109.66 L 447.74 109.12 L 447.76 108.54 L 447.82 108.46 L 447.96 108.41 L 448.05 108.14 L 448.17 111.26 L 448.33 111.20 L 448.66 109.96 L 448.80 109.65 L 448.92 109.39 L 449.73 107.61 L 450.43 106.74 L 451.26 105.09 L 451.48 105.01 L 451.71 105.01 L 451.97 104.94 L 456.83 104.47 L 457.23 104.43 L 503.22 103.17 L 648.05 102.88 L 648.53 102.37 L 648.86 102.31 L 649.19 102.31 L 649.70 101.34 L 649.87 100.87 L 650.00 100.00"/>
	</g>
	<g id="poloto_plot1" class="poloto_plot poloto_imgs poloto_line poloto1 poloto_stroke" fill="none" stroke="black">
		<path d=" M 150.00 374.92 L 150.04 374.90 L 150.06 374.88 L 150.07 374.88 L 150.10 374.88 L 150.14 374.09 L 150.29 374.07 L 150.65 374.05 L 151.18 373.75 L 151.44 373.62 L 151.98 373.65 L 152.07 373.59 L 152.14 373.59 L 152.76 373.53 L 153.93 373.39 L 154.30 370.29 L 154.40 370.29 L 155.11 370.21 L 155.92 370.20 L 155.93 370.20 L 155.93 370.20 L 166.92 370.20 L 167.00 370.20 L 167.14 370.19 L 167.20 370.15 L 167.62 370.14 L 167.81 370.14 L 168.27 370.14 L 168.34 370.14 L 168.47 370.11 L 168.61 370.11 L 168.66 370.11 L 168.77 370.08 L 168.89 370.08 L 169.01 370.08 L 169.32 369.90 L 169.59 369.90 L 169.64 369.90 L 169.77 369.90 L 170.64 371.07 L 170.66 371.07 L 170.77 371.05 L 171.27 370.88 L 171.67 370.69 L 172.12 370.60 L 172.21 370.54 L 172.22 370.54 L 172.31 370.54 L 172.48 370.54 L 172.70 370.46 L 173.13 370.39 L 173.16 370.39 L 173.24 370.39 L 173.34 370.37 L 173.59 370.37 L 173.61 370.37 L 173.87 370.35 L 173.97 370.35 L 174.07 370.35 L 174.17 370.35 L 175.50 370.21 L 175.83 370.20 L 176.57 370.14 L 176.73 370.14 L 176.85 370.14 L 176.91 370.14 L 177.43 370.05 L 177.65 370.05 L 177.92 369.94 L 178.05 369.92 L 178.36 369.67 L 178.49 369.58 L 178.68 369.58 L 178.85 369.58 L 179.44 365.96 L 179.45 365.89 L 179.48 365.89 L 179.69 365.54 L 189.88 365.54 L 190.93 363.98 L 190.97 363.98 L 192.22 363.98 L 192.32 363.98 L 192.44 363.81 L 192.74 363.79 L 192.88 363.79 L 192.93 363.79 L 193.09 363.79 L 193.46 363.79 L 193.47 363.45 L 193.61 363.44 L 193.75 363.44 L 193.90 363.40 L 194.10 363.39 L 194.18 363.39 L 194.21 363.39 L 194.38 363.39 L 194.41 363.39 L 194.60 363.39 L 194.64 363.39 L 194.93 361.85 L 194.98 361.85 L 195.08 361.67 L 195.20 361.67 L 195.37 361.67 L 195.44 361.65 L 196.02 361.65 L 196.03 361.65 L 196.14 361.55 L 196.39 361.55 L 196.62 360.67 L 196.69 360.56 L 196.80 360.56 L 196.85 360.56 L 196.98 360.54 L 197.62 354.06 L 197.69 354.12 L 197.91 354.12 L 197.98 354.12 L 198.03 354.11 L 198.13 354.11 L 198.23 354.02 L 198.46 354.02 L 198.62 354.02 L 198.75 354.01 L 198.82 354.01 L 199.39 354.00 L 199.71 353.99 L 199.80 353.83 L 200.07 353.83 L 200.09 353.83 L 200.12 353.83 L 200.29 353.40 L 200.42 353.28 L 200.90 351.74 L 200.97 351.74 L 201.06 351.74 L 201.19 351.77 L 201.20 351.77 L 201.26 351.77 L 201.30 351.77 L 201.37 351.77 L 201.43 351.77 L 201.62 351.74 L 201.76 351.74 L 201.89 351.72 L 202.07 351.72 L 202.28 351.71 L 202.48 351.13 L 202.63 350.94 L 202.93 350.94 L 202.93 350.93 L 203.10 350.93 L 217.34 350.93 L 217.61 350.92 L 218.28 350.82 L 218.42 350.81 L 218.53 350.81 L 218.55 350.81 L 218.80 350.81 L 218.97 350.81 L 219.06 350.81 L 219.16 350.81 L 219.22 350.80 L 219.48 350.80 L 219.99 350.83 L 220.12 350.83 L 220.22 350.83 L 220.34 350.83 L 221.00 350.71 L 221.09 350.65 L 221.14 350.65 L 221.18 350.57 L 221.32 350.56 L 221.43 350.56 L 221.91 349.97 L 222.60 349.97 L 222.85 349.97 L 223.61 349.97 L 223.97 346.01 L 224.10 346.00 L 224.25 346.00 L 224.48 346.00 L 224.82 346.00 L 225.31 346.00 L 225.95 346.00 L 226.05 346.00 L 226.52 345.90 L 226.82 345.74 L 226.92 345.74 L 227.10 345.74 L 227.25 345.72 L 228.93 345.47 L 230.53 345.47 L 244.86 345.46 L 244.96 345.46 L 245.04 345.46 L 245.48 345.46 L 246.82 344.21 L 246.88 344.17 L 247.06 344.04 L 247.72 344.04 L 248.03 343.74 L 248.51 343.74 L 248.62 343.74 L 248.72 343.74 L 249.55 340.26 L 249.65 340.26 L 249.83 340.26 L 250.01 340.26 L 250.10 340.04 L 250.56 339.62 L 250.73 339.62 L 250.80 339.62 L 250.91 338.98 L 251.12 338.34 L 251.20 338.34 L 251.41 338.32 L 252.03 333.14 L 252.09 333.14 L 252.15 333.14 L 252.24 333.14 L 252.40 333.14 L 252.46 333.14 L 252.52 333.14 L 252.82 333.14 L 252.89 333.03 L 253.25 333.01 L 253.47 332.94 L 253.60 332.31 L 254.71 321.99 L 254.84 321.99 L 296.95 321.99 L 296.99 321.99 L 313.08 321.99 L 313.95 321.84 L 314.13 321.84 L 314.37 321.84 L 314.45 321.84 L 314.54 321.84 L 321.52 321.76 L 322.44 321.66 L 322.78 321.66 L 322.97 321.63 L 327.31 321.54 L 327.34 321.40 L 327.61 321.40 L 328.91 320.00 L 328.99 320.00 L 329.15 320.00 L 329.60 320.00 L 329.66 320.00 L 329.85 320.00 L 330.04 320.00 L 330.07 320.00 L 343.60 319.98 L 343.70 319.73 L 344.23 319.73 L 344.24 318.05 L 344.34 318.05 L 344.45 318.05 L 344.60 317.89 L 344.83 317.89 L 345.02 317.82 L 345.20 317.82 L 345.27 317.82 L 345.54 317.80 L 346.48 314.94 L 346.85 314.93 L 346.92 314.92 L 347.00 314.92 L 347.05 314.92 L 347.17 314.87 L 347.56 314.52 L 347.61 314.46 L 347.84 311.90 L 347.93 311.88 L 347.97 311.88 L 348.06 311.85 L 348.11 311.85 L 348.17 311.84 L 348.46 310.44 L 348.59 310.43 L 348.76 310.39 L 348.87 306.04 L 348.92 306.04 L 349.21 303.59 L 349.30 303.59 L 349.35 303.58 L 349.43 303.58 L 349.48 303.58 L 349.52 303.58 L 349.53 303.58 L 349.69 299.05 L 349.74 299.05 L 349.88 299.03 L 349.99 299.03 L 350.29 298.94 L 350.66 298.82 L 350.68 298.82 L 350.78 298.79 L 351.13 298.72 L 351.29 298.72 L 351.45 298.72 L 351.63 296.76 L 351.75 296.76 L 352.22 296.76 L 352.27 296.75 L 352.33 296.75 L 352.36 296.75 L 352.68 293.96 L 352.73 293.96 L 352.96 293.94 L 373.77 293.94 L 374.95 293.92 L 374.99 293.92 L 375.22 293.92 L 375.24 293.92 L 375.39 293.92 L 375.51 293.92 L 375.61 293.78 L 375.76 293.78 L 375.80 293.78 L 375.85 293.78 L 376.07 293.53 L 376.53 293.37 L 376.81 293.21 L 377.13 292.42 L 377.14 292.42 L 377.19 292.22 L 377.24 292.19 L 377.86 291.71 L 377.87 291.71 L 377.96 291.64 L 378.23 291.64 L 378.40 291.60 L 378.44 290.44 L 378.45 290.44 L 378.52 291.58 L 378.57 291.52 L 378.59 291.50 L 378.75 289.95 L 378.76 289.95 L 379.08 289.88 L 379.97 289.88 L 380.18 289.88 L 380.25 289.88 L 380.29 289.88 L 380.34 289.88 L 380.47 289.78 L 394.69 288.49 L 394.71 288.49 L 394.83 288.48 L 394.87 288.21 L 394.95 274.44 L 395.11 269.32 L 395.12 269.32 L 395.39 269.22 L 395.45 269.22 L 395.49 269.20 L 395.72 269.20 L 396.34 267.95 L 396.35 267.95 L 396.51 267.88 L 396.57 267.88 L 396.60 267.77 L 397.12 267.03 L 397.13 267.03 L 397.91 266.87 L 398.00 266.82 L 398.28 266.84 L 398.60 265.15 L 398.68 264.97 L 398.74 264.82 L 398.88 264.18 L 399.29 264.03 L 399.36 263.89 L 399.53 263.89 L 399.73 263.89 L 400.33 263.89 L 400.40 263.89 L 400.53 263.89 L 400.54 263.89 L 400.74 263.91 L 401.19 263.91 L 401.65 263.73 L 401.72 263.73 L 401.83 263.71 L 401.96 263.71 L 402.32 263.71 L 402.92 263.71 L 403.11 263.56 L 403.44 259.11 L 404.75 263.31 L 405.03 263.29 L 405.24 263.28 L 405.57 263.28 L 405.67 263.23 L 406.00 263.20 L 406.51 262.95 L 406.58 262.95 L 406.68 262.95 L 406.74 262.95 L 406.79 262.95 L 407.19 262.70 L 416.62 262.70 L 416.71 262.71 L 417.29 262.69 L 417.35 262.69 L 417.48 262.65 L 417.59 262.34 L 417.61 262.33 L 417.93 262.30 L 418.01 262.30 L 419.94 262.05 L 420.17 262.05 L 420.33 262.05 L 420.37 262.05 L 420.97 261.87 L 421.17 261.87 L 421.21 261.87 L 421.53 261.86 L 421.88 260.81 L 421.93 260.81 L 422.22 260.63 L 422.34 260.63 L 422.45 260.63 L 422.69 260.63 L 423.22 260.61 L 423.32 260.59 L 423.41 260.49 L 423.63 260.31 L 424.15 260.15 L 424.61 255.95 L 424.70 255.81 L 425.17 255.61 L 425.26 255.56 L 425.33 255.42 L 425.38 255.12 L 425.54 253.87 L 425.58 253.92 L 425.66 253.89 L 425.93 253.89 L 426.34 253.72 L 426.59 253.65 L 426.88 253.63 L 427.02 253.62 L 427.30 253.60 L 427.78 253.60 L 428.25 253.59 L 428.61 253.59 L 428.70 253.58 L 428.79 253.57 L 428.79 253.57 L 429.07 253.57 L 429.15 253.55 L 429.26 253.39 L 430.04 253.38 L 430.05 253.38 L 430.26 253.36 L 431.16 253.36 L 431.76 253.15 L 432.20 252.97 L 432.21 252.97 L 432.25 252.97 L 445.45 252.97 L 445.50 252.97 L 445.65 252.97 L 445.72 252.97 L 445.77 252.94 L 445.77 252.94 L 446.34 252.94 L 446.46 252.93 L 446.63 252.90 L 446.91 252.87 L 447.09 252.87 L 447.32 252.77 L 447.45 252.77 L 447.51 252.77 L 447.57 252.77 L 447.74 252.39 L 447.76 252.39 L 447.82 252.39 L 447.96 252.39 L 448.05 252.39 L 448.17 252.48 L 448.33 252.48 L 448.66 252.46 L 448.80 252.46 L 448.92 252.46 L 449.73 251.23 L 450.43 250.90 L 451.26 250.02 L 451.48 250.02 L 451.71 250.02 L 451.97 250.02 L 456.83 249.91 L 457.23 249.91 L 503.22 249.75 L 648.05 249.52 L 648.53 249.45 L 648.86 249.44 L 649.19 249.44 L 649.70 248.87 L 649.87 248.87 L 650.00 248.87"/>
	</g>
	<g id="poloto_plot2" class="poloto_plot poloto_imgs poloto_line poloto2 poloto_stroke" fill="none" stroke="black">
		<path d=" M 150.00 388.75 L 150.04 388.74 L 150.06 388.74 L 150.07 388.74 L 150.10 388.74 L 150.14 385.86 L 150.29 385.47 L 150.65 385.46 L 151.18 385.44 L 151.44 383.72 L 151.98 383.57 L 152.07 383.51 L 152.14 383.47 L 152.76 382.70 L 153.93 382.10 L 154.30 381.98 L 154.40 381.99 L 155.11 381.94 L 155.92 381.94 L 155.93 381.94 L 155.93 381.94 L 166.92 381.94 L 167.00 381.93 L 167.14 381.91 L 167.20 381.91 L 167.62 381.74 L 167.81 381.69 L 168.27 381.41 L 168.34 381.28 L 168.47 381.03 L 168.61 380.99 L 168.66 380.99 L 168.77 380.94 L 168.89 380.94 L 169.01 380.95 L 169.32 380.66 L 169.59 380.39 L 169.64 380.39 L 169.77 380.24 L 170.64 379.89 L 170.66 379.89 L 170.77 379.78 L 171.27 379.40 L 171.67 378.93 L 172.12 378.74 L 172.21 378.74 L 172.22 378.74 L 172.31 378.48 L 172.48 378.48 L 172.70 378.45 L 173.13 378.25 L 173.16 377.91 L 173.24 377.91 L 173.34 377.75 L 173.59 377.75 L 173.61 377.75 L 173.87 377.24 L 173.97 377.21 L 174.07 377.17 L 174.17 376.93 L 175.50 376.80 L 175.83 376.74 L 176.57 376.40 L 176.73 376.40 L 176.85 376.38 L 176.91 376.12 L 177.43 374.71 L 177.65 374.69 L 177.92 374.26 L 178.05 374.22 L 178.36 374.03 L 178.49 373.97 L 178.68 373.67 L 178.85 373.42 L 179.44 373.42 L 179.45 373.39 L 179.48 373.18 L 179.69 371.82 L 189.88 371.68 L 190.93 371.27 L 190.97 371.22 L 192.22 370.88 L 192.32 370.87 L 192.44 370.62 L 192.74 370.45 L 192.88 370.14 L 192.93 369.89 L 193.09 369.38 L 193.46 369.37 L 193.47 369.37 L 193.61 369.01 L 193.75 369.01 L 193.90 368.64 L 194.10 368.35 L 194.18 368.19 L 194.21 368.18 L 194.38 367.84 L 194.41 367.83 L 194.60 367.52 L 194.64 367.51 L 194.93 367.40 L 194.98 367.40 L 195.08 367.29 L 195.20 367.27 L 195.37 367.27 L 195.44 367.24 L 196.02 366.94 L 196.03 366.95 L 196.14 366.33 L 196.39 366.31 L 196.62 366.12 L 196.69 366.12 L 196.80 366.12 L 196.85 366.07 L 196.98 365.23 L 197.62 364.52 L 197.69 364.13 L 197.91 364.10 L 197.98 364.00 L 198.03 363.99 L 198.13 363.81 L 198.23 363.14 L 198.46 363.04 L 198.62 363.02 L 198.75 362.69 L 198.82 362.68 L 199.39 362.43 L 199.71 362.25 L 199.80 362.10 L 200.07 362.09 L 200.09 362.09 L 200.12 362.05 L 200.29 360.85 L 200.42 360.84 L 200.90 360.67 L 200.97 360.19 L 201.06 360.18 L 201.19 359.98 L 201.20 359.87 L 201.26 359.79 L 201.30 359.74 L 201.37 359.73 L 201.43 359.64 L 201.62 358.29 L 201.76 358.15 L 201.89 357.74 L 202.07 357.71 L 202.28 357.58 L 202.48 357.16 L 202.63 355.99 L 202.93 355.90 L 202.93 355.39 L 203.10 355.27 L 217.34 355.28 L 217.61 355.27 L 218.28 354.72 L 218.42 354.72 L 218.53 354.72 L 218.55 354.57 L 218.80 354.34 L 218.97 354.29 L 219.06 354.15 L 219.16 354.05 L 219.22 354.00 L 219.48 353.92 L 219.99 354.04 L 220.12 353.66 L 220.22 353.56 L 220.34 353.55 L 221.00 353.48 L 221.09 353.42 L 221.14 353.42 L 221.18 353.34 L 221.32 353.28 L 221.43 353.15 L 221.91 352.79 L 222.60 352.65 L 222.85 352.58 L 223.61 352.36 L 223.97 351.81 L 224.10 351.72 L 224.25 351.29 L 224.48 350.74 L 224.82 350.59 L 225.31 350.58 L 225.95 350.56 L 226.05 350.36 L 226.52 350.22 L 226.82 350.05 L 226.92 349.90 L 227.10 349.85 L 227.25 349.48 L 228.93 349.30 L 230.53 349.30 L 244.86 349.26 L 244.96 349.06 L 245.04 348.93 L 245.48 348.72 L 246.82 348.36 L 246.88 348.30 L 247.06 348.05 L 247.72 347.94 L 248.03 347.23 L 248.51 347.21 L 248.62 347.19 L 248.72 346.49 L 249.55 345.83 L 249.65 345.83 L 249.83 345.79 L 250.01 345.73 L 250.10 345.49 L 250.56 344.40 L 250.73 344.12 L 250.80 344.10 L 250.91 343.98 L 251.12 343.56 L 251.20 342.46 L 251.41 342.02 L 252.03 341.76 L 252.09 341.21 L 252.15 341.21 L 252.24 341.11 L 252.40 340.96 L 252.46 340.92 L 252.52 340.87 L 252.82 339.60 L 252.89 338.85 L 253.25 338.70 L 253.47 337.44 L 253.60 337.19 L 254.71 335.20 L 254.84 335.16 L 296.95 334.58 L 296.99 334.58 L 313.08 334.42 L 313.95 334.20 L 314.13 334.20 L 314.37 334.10 L 314.45 333.94 L 314.54 333.90 L 321.52 333.88 L 322.44 331.59 L 322.78 331.39 L 322.97 330.60 L 327.31 330.50 L 327.34 330.43 L 327.61 330.41 L 328.91 330.27 L 328.99 330.01 L 329.15 329.91 L 329.60 329.80 L 329.66 329.76 L 329.85 329.32 L 330.04 329.19 L 330.07 328.85 L 343.60 328.42 L 343.70 327.37 L 344.23 327.10 L 344.24 326.70 L 344.34 326.39 L 344.45 325.91 L 344.60 324.65 L 344.83 323.96 L 345.02 323.07 L 345.20 323.06 L 345.27 322.37 L 345.54 322.32 L 346.48 321.67 L 346.85 321.37 L 346.92 321.18 L 347.00 321.18 L 347.05 320.95 L 347.17 320.17 L 347.56 320.09 L 347.61 320.08 L 347.84 319.58 L 347.93 319.58 L 347.97 319.28 L 348.06 319.10 L 348.11 319.10 L 348.17 318.69 L 348.46 318.44 L 348.59 318.04 L 348.76 318.02 L 348.87 317.81 L 348.92 317.50 L 349.21 317.33 L 349.30 317.15 L 349.35 317.15 L 349.43 317.15 L 349.48 316.83 L 349.52 316.84 L 349.53 316.83 L 349.69 316.73 L 349.74 316.37 L 349.88 316.37 L 349.99 316.29 L 350.29 316.26 L 350.66 316.22 L 350.68 316.22 L 350.78 316.20 L 351.13 316.20 L 351.29 316.20 L 351.45 316.20 L 351.63 316.14 L 351.75 315.72 L 352.22 315.72 L 352.27 315.47 L 352.33 315.47 L 352.36 315.19 L 352.68 315.09 L 352.73 315.02 L 352.96 315.02 L 373.77 314.95 L 374.95 314.83 L 374.99 314.83 L 375.22 314.83 L 375.24 314.83 L 375.39 314.34 L 375.51 314.32 L 375.61 314.18 L 375.76 314.11 L 375.80 314.06 L 375.85 314.04 L 376.07 313.99 L 376.53 313.89 L 376.81 313.23 L 377.13 313.19 L 377.14 313.15 L 377.19 312.60 L 377.24 312.59 L 377.86 312.59 L 377.87 312.54 L 377.96 312.03 L 378.23 311.96 L 378.40 311.94 L 378.44 311.93 L 378.45 311.87 L 378.52 311.83 L 378.57 311.31 L 378.59 311.30 L 378.75 311.30 L 378.76 311.25 L 379.08 311.20 L 379.97 311.18 L 380.18 311.14 L 380.25 311.12 L 380.29 310.96 L 380.34 310.96 L 380.47 310.37 L 394.69 310.18 L 394.71 310.01 L 394.83 309.89 L 394.87 309.88 L 394.95 309.37 L 395.11 309.25 L 395.12 309.22 L 395.39 309.21 L 395.45 309.21 L 395.49 308.71 L 395.72 308.65 L 396.34 308.63 L 396.35 308.61 L 396.51 308.33 L 396.57 308.34 L 396.60 307.88 L 397.12 307.88 L 397.13 307.85 L 397.91 307.74 L 398.00 307.18 L 398.28 307.18 L 398.60 307.18 L 398.68 306.77 L 398.74 306.46 L 398.88 306.44 L 399.29 306.38 L 399.36 306.35 L 399.53 306.22 L 399.73 306.22 L 400.33 306.23 L 400.40 306.23 L 400.53 306.20 L 400.54 306.19 L 400.74 306.19 L 401.19 306.16 L 401.65 306.10 L 401.72 306.10 L 401.83 306.04 L 401.96 305.89 L 402.32 305.89 L 402.92 305.71 L 403.11 305.40 L 403.44 305.37 L 404.75 305.03 L 405.03 305.03 L 405.24 305.02 L 405.57 305.02 L 405.67 304.99 L 406.00 304.82 L 406.51 304.80 L 406.58 304.65 L 406.68 304.57 L 406.74 304.59 L 406.79 304.53 L 407.19 304.51 L 416.62 304.50 L 416.71 304.50 L 417.29 304.50 L 417.35 304.48 L 417.48 304.02 L 417.59 304.00 L 417.61 304.00 L 417.93 303.99 L 418.01 303.96 L 419.94 303.28 L 420.17 303.21 L 420.33 303.20 L 420.37 303.19 L 420.97 303.18 L 421.17 303.27 L 421.21 303.27 L 421.53 303.22 L 421.88 302.58 L 421.93 302.56 L 422.22 302.54 L 422.34 302.54 L 422.45 302.54 L 422.69 302.41 L 423.22 301.82 L 423.32 301.82 L 423.41 301.74 L 423.63 301.21 L 424.15 300.61 L 424.61 300.65 L 424.70 300.34 L 425.17 300.34 L 425.26 300.30 L 425.33 300.27 L 425.38 299.96 L 425.54 299.95 L 425.58 299.95 L 425.66 299.95 L 425.93 299.95 L 426.34 299.70 L 426.59 299.67 L 426.88 299.67 L 427.02 299.67 L 427.30 299.67 L 427.78 299.67 L 428.25 299.67 L 428.61 299.67 L 428.70 299.66 L 428.79 299.66 L 428.79 299.55 L 429.07 299.47 L 429.15 299.47 L 429.26 299.45 L 430.04 299.45 L 430.05 299.14 L 430.26 299.14 L 431.16 299.15 L 431.76 299.14 L 432.20 299.08 L 432.21 298.95 L 432.25 298.95 L 445.45 298.75 L 445.50 298.74 L 445.65 298.73 L 445.72 298.54 L 445.77 298.54 L 445.77 298.53 L 446.34 298.47 L 446.46 297.85 L 446.63 297.72 L 446.91 296.50 L 447.09 296.49 L 447.32 295.96 L 447.45 296.02 L 447.51 296.02 L 447.57 295.35 L 447.74 295.24 L 447.76 294.78 L 447.82 294.71 L 447.96 294.67 L 448.05 294.43 L 448.17 297.17 L 448.33 297.13 L 448.66 296.03 L 448.80 295.79 L 448.92 295.54 L 449.73 295.11 L 450.43 294.65 L 451.26 294.00 L 451.48 293.93 L 451.71 293.93 L 451.97 293.87 L 456.83 293.55 L 457.23 293.52 L 503.22 292.66 L 648.05 292.63 L 648.53 292.25 L 648.86 292.19 L 649.19 292.19 L 649.70 291.84 L 649.87 291.43 L 650.00 290.68"/>
	</g>
	<g class="poloto_legend poloto_imgs poloto_line poloto0 poloto_stroke"><line x1="680" x2="730" y1="81.25" y2="81.25"/></g>
	<g class="poloto_legend poloto_imgs poloto_line poloto1 poloto_stroke"><line x1="680" x2="730" y1="131.25" y2="131.25"/></g>
	<g class="poloto_legend poloto_imgs poloto_line poloto2 poloto_stroke"><line x1="680" x2="730" y1="181.25" y2="181.25"/></g>
	<text class="poloto_legend poloto_text poloto_line poloto0" x="675" y="100">total</text>
	<text class="poloto_legend poloto_text poloto_line poloto1" x="675" y="150">code</text>
	<text class="poloto_legend poloto_text poloto_line poloto2" x="675" y="200">docs</text>
	<text class="poloto_text poloto_name poloto_title" x="400.00" y="37.50">Workspace lines over time</text>
	<text class="poloto_text poloto_name poloto_x" x="400.00" y="640">date (JST)</text>
	<text class="poloto_text poloto_name poloto_y" x="37.50" y="250.00" transform="rotate(-90,37.50,250.00)">lines</text>
	<text class="poloto_text poloto_ticks poloto_y">
		<tspan x="135.00" y="400.00">0</tspan>
		<tspan x="135.00" y="293.04">50K</tspan>
		<tspan x="135.00" y="186.07">100K</tspan>
	</text>
	<g class="poloto_imgs poloto_ticks poloto_y" stroke="black">
		<line x1="150.00" x2="144.00" y1="400.00" y2="400.00"/>
		<line x1="150.00" x2="144.00" y1="293.04" y2="293.04"/>
		<line x1="150.00" x2="144.00" y1="186.07" y2="186.07"/>
	</g>
	<g class="poloto_text poloto_ticks poloto_x">
		<text x="186.38" y="430.00" text-anchor="end" transform="rotate(-90 186.38 430.00)">2026-04-22 04:33</text>
		<text x="244.68" y="430.00" text-anchor="end" transform="rotate(-90 244.68 430.00)">2026-04-24 12:06</text>
		<text x="302.97" y="430.00" text-anchor="end" transform="rotate(-90 302.97 430.00)">2026-04-26 19:40</text>
		<text x="361.27" y="430.00" text-anchor="end" transform="rotate(-90 361.27 430.00)">2026-04-29 03:13</text>
		<text x="419.56" y="430.00" text-anchor="end" transform="rotate(-90 419.56 430.00)">2026-05-01 10:46</text>
		<text x="477.85" y="430.00" text-anchor="end" transform="rotate(-90 477.85 430.00)">2026-05-03 18:20</text>
		<text x="536.15" y="430.00" text-anchor="end" transform="rotate(-90 536.15 430.00)">2026-05-06 01:53</text>
		<text x="594.44" y="430.00" text-anchor="end" transform="rotate(-90 594.44 430.00)">2026-05-08 09:26</text>
	</g>
	<g class="poloto_imgs poloto_ticks poloto_x" stroke="black">
		<line x1="186.38" x2="186.38" y1="400.00" y2="405.00"/>
		<line x1="244.68" x2="244.68" y1="400.00" y2="405.00"/>
		<line x1="302.97" x2="302.97" y1="400.00" y2="405.00"/>
		<line x1="361.27" x2="361.27" y1="400.00" y2="405.00"/>
		<line x1="419.56" x2="419.56" y1="400.00" y2="405.00"/>
		<line x1="477.85" x2="477.85" y1="400.00" y2="405.00"/>
		<line x1="536.15" x2="536.15" y1="400.00" y2="405.00"/>
		<line x1="594.44" x2="594.44" y1="400.00" y2="405.00"/>
	</g>
	<path class="poloto_imgs poloto_ticks poloto_x" stroke="black" style="stroke-dasharray:7.286789982470898;stroke-dashoffset:-36.382359439274296;" d=" M 150.00 400.00 L 650.00 400.00"/>
	<path class="poloto_imgs poloto_ticks poloto_y" stroke="black" style="stroke-dasharray:10.696483709255311;stroke-dashoffset:-0;" d=" M 150.00 400.00 L 150.00 100.00"/>
</svg>

