<svg class="poloto" width="800" height="680" viewBox="0 0 800 680" xmlns="http://www.w3.org/2000/svg">
	<style>
.poloto{
  stroke-linecap:round;
  stroke-linejoin:round;
  font-family:Roboto,sans-serif;
  font-size:16px;
}
.poloto_background{fill:AliceBlue;}
.poloto_scatter{stroke-width:7}
.poloto_line{stroke-width:2}
.poloto_text{fill: black;}
.poloto_name{font-size:24px;dominant-baseline:auto;text-anchor:middle;}
.poloto_where{dominant-baseline:middle;text-anchor:start}
.poloto_text.poloto_legend{font-size:20px;dominant-baseline:middle;text-anchor:start;}
.poloto_text.poloto_ticks.poloto_y{dominant-baseline:middle;text-anchor:end}
.poloto_text.poloto_ticks.poloto_x{dominant-baseline:auto;text-anchor:middle}
.poloto_imgs.poloto_ticks{stroke: black;stroke-width:3;fill:none;stroke-dasharray:none}
.poloto_grid{stroke:gray;stroke-width:0.5}

.poloto0.poloto_stroke{stroke:blue;}
.poloto1.poloto_stroke{stroke:red;}
.poloto2.poloto_stroke{stroke:green;}
.poloto3.poloto_stroke{stroke:gold;}
.poloto4.poloto_stroke{stroke:aqua;}
.poloto5.poloto_stroke{stroke:lime;}
.poloto6.poloto_stroke{stroke:orange;}
.poloto7.poloto_stroke{stroke:chocolate;}
.poloto0.poloto_fill{fill:blue;}
.poloto1.poloto_fill{fill:red;}
.poloto2.poloto_fill{fill:green;}
.poloto3.poloto_fill{fill:gold;}
.poloto4.poloto_fill{fill:aqua;}
.poloto5.poloto_fill{fill:lime;}
.poloto6.poloto_fill{fill:orange;}
.poloto7.poloto_fill{fill:chocolate;}
	</style>
	<circle r="1e5" class="poloto_background" fill="white"/>
	<g id="poloto_plot0" class="poloto_plot poloto_imgs poloto_line poloto0 poloto_stroke" fill="none" stroke="black">
		<path d=" M 150.00 372.04 L 150.02 372.01 L 150.04 372.00 L 150.05 372.00 L 150.07 372.00 L 150.09 368.96 L 150.19 368.60 L 150.43 368.58 L 150.77 368.33 L 150.95 366.79 L 151.30 366.69 L 151.36 366.61 L 151.41 366.58 L 151.82 365.83 L 152.59 365.21 L 152.83 362.83 L 152.89 362.84 L 153.36 362.74 L 153.90 362.73 L 153.90 362.73 L 153.90 362.73 L 161.14 362.73 L 161.19 362.73 L 161.28 362.71 L 161.32 362.68 L 161.60 362.54 L 161.72 362.50 L 162.03 362.28 L 162.07 362.19 L 162.16 361.97 L 162.25 361.94 L 162.28 361.94 L 162.35 361.88 L 162.43 361.88 L 162.51 361.88 L 162.71 361.53 L 162.89 361.31 L 162.92 361.31 L 163.01 361.18 L 163.58 361.73 L 163.59 361.73 L 163.67 361.64 L 164.00 361.23 L 164.26 360.74 L 164.56 360.53 L 164.62 360.49 L 164.63 360.49 L 164.68 360.30 L 164.80 360.30 L 164.94 360.24 L 165.22 360.05 L 165.24 359.77 L 165.29 359.77 L 165.36 359.62 L 165.52 359.62 L 165.54 359.62 L 165.71 359.21 L 165.78 359.19 L 165.84 359.16 L 165.90 358.99 L 166.78 358.77 L 167.00 358.73 L 167.49 358.44 L 167.59 358.44 L 167.67 358.43 L 167.71 358.22 L 168.05 357.02 L 168.20 356.99 L 168.37 356.59 L 168.46 356.55 L 168.66 356.22 L 168.75 356.10 L 168.87 355.88 L 168.98 355.69 L 169.37 352.92 L 169.38 352.85 L 169.40 352.68 L 169.54 351.35 L 176.25 351.25 L 176.94 349.73 L 176.96 349.70 L 177.78 349.46 L 177.85 349.45 L 177.93 349.15 L 178.13 349.00 L 178.22 348.74 L 178.25 348.51 L 178.36 348.11 L 178.60 348.11 L 178.61 347.84 L 178.70 347.54 L 178.79 347.54 L 178.89 347.20 L 179.02 346.96 L 179.08 346.84 L 179.09 346.84 L 179.21 346.58 L 179.23 346.57 L 179.35 346.31 L 179.38 346.30 L 179.57 345.05 L 179.60 345.05 L 179.67 344.84 L 179.75 344.83 L 179.86 344.83 L 179.91 344.80 L 180.28 344.57 L 180.29 344.57 L 180.36 344.02 L 180.53 344.00 L 180.68 343.17 L 180.73 343.09 L 180.80 343.09 L 180.84 343.05 L 180.92 342.41 L 181.34 336.96 L 181.39 336.70 L 181.53 336.68 L 181.57 336.61 L 181.61 336.59 L 181.68 336.45 L 181.74 335.83 L 181.89 335.70 L 181.99 335.69 L 182.08 335.42 L 182.13 335.41 L 182.51 335.21 L 182.71 335.05 L 182.77 334.81 L 182.95 334.80 L 182.97 334.80 L 182.98 334.78 L 183.09 333.47 L 183.18 333.39 L 183.49 332.07 L 183.55 331.68 L 183.60 331.67 L 183.69 331.53 L 183.70 331.43 L 183.73 331.37 L 183.76 331.33 L 183.81 331.33 L 183.85 331.26 L 183.97 330.18 L 184.06 330.02 L 184.15 329.71 L 184.27 329.68 L 184.41 329.58 L 184.54 328.82 L 184.64 327.76 L 184.83 327.70 L 184.83 327.30 L 184.95 327.17 L 194.32 327.18 L 194.50 327.16 L 194.94 326.60 L 195.03 326.59 L 195.10 326.59 L 195.12 326.45 L 195.28 326.28 L 195.39 326.25 L 195.45 326.14 L 195.52 326.07 L 195.55 326.03 L 195.72 325.98 L 196.06 325.91 L 196.15 325.62 L 196.21 325.55 L 196.29 325.54 L 196.72 325.40 L 196.78 325.31 L 196.81 325.31 L 196.84 325.21 L 196.94 325.16 L 197.01 325.05 L 197.32 324.34 L 197.78 324.23 L 197.94 324.18 L 198.44 324.00 L 198.68 320.58 L 198.76 320.51 L 198.87 320.17 L 199.01 319.72 L 199.24 319.60 L 199.56 319.58 L 199.98 319.57 L 200.05 319.42 L 200.36 319.26 L 200.56 319.02 L 200.62 318.92 L 200.74 318.88 L 200.84 318.57 L 201.94 318.24 L 203.00 318.24 L 212.43 318.20 L 212.49 318.06 L 212.54 317.96 L 212.84 317.81 L 213.72 316.63 L 213.76 316.55 L 213.88 316.25 L 214.31 316.17 L 214.52 315.38 L 214.83 315.37 L 214.90 315.36 L 214.97 314.81 L 215.52 311.69 L 215.58 311.69 L 215.70 311.66 L 215.82 311.62 L 215.87 311.29 L 216.18 310.11 L 216.29 309.89 L 216.34 309.88 L 216.41 309.34 L 216.55 308.57 L 216.60 307.76 L 216.74 307.40 L 217.15 303.35 L 217.18 302.94 L 217.22 302.94 L 217.29 302.87 L 217.39 302.76 L 217.43 302.73 L 217.47 302.68 L 217.66 301.71 L 217.71 301.03 L 217.95 300.89 L 218.09 299.87 L 218.18 299.23 L 218.91 289.79 L 219.00 289.77 L 246.71 289.32 L 246.73 289.32 L 257.32 289.19 L 257.90 288.93 L 258.02 288.93 L 258.17 288.86 L 258.22 288.74 L 258.29 288.70 L 262.88 288.64 L 263.48 286.84 L 263.71 286.68 L 263.83 286.02 L 266.69 285.89 L 266.71 285.71 L 266.89 285.69 L 267.74 284.56 L 267.79 284.35 L 267.90 284.28 L 268.20 284.20 L 268.24 284.17 L 268.36 283.83 L 268.49 283.74 L 268.51 283.49 L 277.41 283.14 L 277.47 282.17 L 277.83 281.96 L 277.83 280.34 L 277.89 280.10 L 277.97 279.71 L 278.07 278.59 L 278.22 278.00 L 278.34 277.30 L 278.46 277.30 L 278.51 276.77 L 278.69 276.72 L 279.30 274.11 L 279.55 273.83 L 279.59 273.67 L 279.64 273.67 L 279.68 273.48 L 279.76 272.84 L 280.01 272.54 L 280.05 272.50 L 280.20 270.20 L 280.26 270.20 L 280.28 269.95 L 280.34 269.76 L 280.38 269.76 L 280.41 269.42 L 280.61 268.17 L 280.69 267.82 L 280.80 267.78 L 280.88 264.46 L 280.91 264.19 L 281.10 262.29 L 281.16 262.15 L 281.19 262.14 L 281.24 262.14 L 281.28 261.87 L 281.30 261.88 L 281.31 261.87 L 281.41 258.53 L 281.45 258.23 L 281.54 258.22 L 281.61 258.16 L 281.81 258.06 L 282.06 257.94 L 282.07 257.94 L 282.13 257.90 L 282.36 257.83 L 282.47 257.83 L 282.58 257.83 L 282.69 256.37 L 282.77 256.02 L 283.08 256.02 L 283.11 255.79 L 283.15 255.78 L 283.18 255.53 L 283.38 253.42 L 283.42 253.37 L 283.57 253.36 L 297.26 253.30 L 298.04 253.19 L 298.07 253.19 L 298.22 253.19 L 298.23 253.19 L 298.33 252.77 L 298.41 252.75 L 298.47 252.54 L 298.57 252.49 L 298.60 252.46 L 298.63 252.45 L 298.78 252.21 L 299.08 252.00 L 299.26 251.32 L 299.47 250.67 L 299.48 250.64 L 299.52 250.04 L 299.54 250.02 L 299.95 249.66 L 299.96 249.62 L 300.02 249.14 L 300.20 249.08 L 300.31 249.04 L 300.33 248.18 L 300.34 248.14 L 300.39 248.95 L 300.42 248.45 L 300.44 248.43 L 300.54 247.29 L 300.55 247.26 L 300.76 247.16 L 301.35 247.15 L 301.48 247.11 L 301.53 247.10 L 301.56 246.95 L 301.59 246.95 L 301.67 246.38 L 311.03 245.29 L 311.05 245.14 L 311.13 245.03 L 311.15 244.82 L 311.20 235.27 L 311.31 231.36 L 311.32 231.33 L 311.49 231.26 L 311.53 231.26 L 311.56 230.81 L 311.71 230.77 L 312.11 229.84 L 312.13 229.82 L 312.23 229.53 L 312.27 229.54 L 312.29 229.08 L 312.63 228.54 L 312.64 228.52 L 313.15 228.31 L 313.21 227.82 L 313.39 227.83 L 313.60 226.59 L 313.66 226.11 L 313.69 225.72 L 313.79 225.24 L 314.06 225.07 L 314.10 224.95 L 314.22 224.85 L 314.34 224.85 L 314.74 224.85 L 314.79 224.85 L 314.88 224.82 L 314.88 224.82 L 315.01 224.84 L 315.31 224.81 L 315.61 224.63 L 315.66 224.63 L 315.73 224.56 L 315.81 224.43 L 316.05 224.43 L 316.45 224.26 L 316.57 223.87 L 316.79 220.58 L 317.65 223.37 L 317.84 223.35 L 317.98 223.34 L 318.19 223.33 L 318.26 223.28 L 318.47 223.13 L 318.81 222.90 L 318.86 222.75 L 318.92 222.68 L 318.96 222.70 L 318.99 222.65 L 319.26 222.45 L 325.46 222.44 L 325.52 222.45 L 325.91 222.43 L 325.94 222.42 L 326.03 222.00 L 326.10 221.76 L 326.11 221.76 L 326.33 221.73 L 326.38 221.71 L 327.65 221.09 L 327.80 221.03 L 327.91 221.02 L 327.93 221.02 L 328.32 220.87 L 328.46 220.94 L 328.48 220.94 L 328.69 220.90 L 328.93 219.60 L 328.95 219.59 L 329.15 219.44 L 329.23 219.44 L 329.30 219.44 L 329.46 219.29 L 329.81 218.77 L 329.87 218.75 L 329.93 218.60 L 330.08 217.98 L 330.42 217.34 L 330.72 214.31 L 330.78 213.94 L 331.09 213.79 L 331.15 213.71 L 331.20 213.57 L 331.23 213.08 L 331.34 212.21 L 331.36 212.24 L 331.41 212.23 L 331.59 212.22 L 331.86 211.90 L 332.02 211.84 L 332.22 211.83 L 332.30 211.82 L 332.49 211.81 L 332.81 211.81 L 333.12 211.80 L 333.36 211.80 L 333.41 211.79 L 333.47 211.78 L 333.47 211.67 L 333.66 211.61 L 333.71 211.60 L 333.78 211.47 L 334.29 211.45 L 334.30 211.18 L 334.44 211.17 L 335.03 211.18 L 335.43 211.02 L 335.72 210.82 L 335.72 210.72 L 335.75 210.72 L 344.44 210.54 L 344.47 210.53 L 344.57 210.52 L 344.61 210.37 L 344.64 210.35 L 344.65 210.34 L 345.02 210.30 L 345.10 209.76 L 345.21 209.63 L 345.40 208.55 L 345.52 208.54 L 345.67 208.08 L 345.75 208.14 L 345.79 208.13 L 345.83 207.61 L 345.94 207.25 L 345.96 206.87 L 345.99 206.82 L 346.09 206.78 L 346.15 206.61 L 346.23 208.67 L 346.33 208.63 L 346.55 207.81 L 346.64 207.60 L 346.72 207.43 L 347.26 206.25 L 347.71 205.68 L 348.26 204.58 L 348.40 204.53 L 348.56 204.53 L 348.73 204.48 L 351.92 204.17 L 352.19 204.15 L 382.46 203.31 L 477.77 203.12 L 478.08 202.78 L 478.30 202.74 L 478.52 202.74 L 478.85 202.10 L 478.96 201.79 L 479.05 201.21 L 479.20 199.55 L 479.42 199.89 L 479.60 199.53 L 479.64 199.52 L 479.79 199.41 L 479.82 199.42 L 479.98 198.80 L 480.12 197.83 L 480.55 196.79 L 480.56 196.71 L 480.69 195.47 L 481.10 192.42 L 481.11 192.31 L 481.19 192.25 L 481.29 191.15 L 481.73 189.68 L 481.74 189.55 L 481.84 189.48 L 481.94 188.75 L 482.11 188.18 L 482.12 188.07 L 482.19 186.95 L 482.20 186.93 L 482.24 186.61 L 482.43 184.62 L 482.45 184.51 L 482.52 184.39 L 482.72 184.13 L 482.76 184.12 L 482.92 183.74 L 483.18 183.78 L 483.22 183.73 L 483.26 183.71 L 483.31 183.68 L 483.44 182.51 L 483.58 181.55 L 483.60 181.47 L 483.68 180.28 L 483.76 179.11 L 483.78 178.97 L 483.86 177.61 L 483.90 176.53 L 484.06 175.81 L 484.09 175.76 L 484.17 175.54 L 484.29 175.52 L 484.97 175.49 L 485.31 175.45 L 492.76 175.50 L 492.83 175.29 L 492.90 175.11 L 493.03 174.31 L 493.31 174.10 L 493.33 174.02 L 493.38 172.96 L 493.56 171.94 L 493.58 171.85 L 495.21 171.78 L 495.31 171.20 L 496.13 171.03 L 496.22 170.99 L 496.31 169.79 L 497.30 168.67 L 497.72 168.24 L 497.82 167.37 L 498.18 165.87 L 498.40 165.43 L 498.77 164.55 L 499.42 164.10 L 509.39 164.09 L 509.98 163.99 L 510.01 164.01 L 510.84 163.84 L 510.88 163.75 L 511.18 163.68 L 511.52 162.70 L 511.52 162.70 L 511.55 162.66 L 512.00 161.55 L 513.02 160.91 L 513.09 160.85 L 513.19 160.84 L 513.35 160.55 L 513.39 160.47 L 513.45 160.41 L 513.93 160.37 L 514.31 160.37 L 514.52 160.37 L 514.54 160.33 L 514.97 159.35 L 515.30 159.17 L 515.31 159.09 L 515.35 159.01 L 515.40 158.75 L 526.21 158.38 L 526.23 158.36 L 526.26 158.34 L 526.47 158.23 L 526.64 158.11 L 527.59 156.61 L 527.83 156.43 L 528.51 155.98 L 529.10 155.87 L 529.54 155.72 L 529.66 154.34 L 530.21 152.72 L 530.41 152.60 L 530.48 151.55 L 532.08 149.62 L 532.10 149.62 L 532.19 149.16 L 532.49 149.10 L 532.50 149.10 L 532.51 148.99 L 532.57 148.84 L 532.71 148.68 L 532.88 147.88 L 534.54 145.93 L 534.75 145.69 L 534.90 145.34 L 534.93 145.30 L 534.96 145.03 L 542.32 144.15 L 542.56 143.48 L 542.70 143.45 L 542.75 143.01 L 543.45 142.80 L 543.59 142.36 L 543.72 142.36 L 543.80 141.42 L 544.03 139.05 L 544.07 139.01 L 544.38 138.97 L 544.45 138.19 L 544.72 137.26 L 544.77 136.62 L 544.99 136.02 L 545.15 135.71 L 545.28 135.00 L 545.55 134.39 L 545.58 133.72 L 545.94 133.56 L 545.97 133.56 L 546.03 132.70 L 546.10 132.70 L 546.14 132.63 L 546.55 131.02 L 547.15 130.49 L 547.44 130.66 L 548.42 130.59 L 548.44 130.58 L 548.59 130.56 L 548.66 130.54 L 548.77 130.44 L 548.89 130.34 L 549.02 130.16 L 549.31 129.93 L 549.59 129.92 L 550.46 129.75 L 550.50 129.74 L 551.37 129.59 L 551.75 129.49 L 559.20 129.48 L 559.57 129.36 L 559.76 129.28 L 559.84 129.28 L 559.86 129.28 L 560.05 129.25 L 560.14 129.20 L 560.36 129.05 L 560.49 129.02 L 560.98 128.85 L 561.23 128.49 L 561.65 128.44 L 561.77 128.21 L 561.91 128.06 L 562.09 127.88 L 562.73 127.92 L 562.80 127.91 L 563.74 127.46 L 563.88 127.19 L 564.07 127.11 L 564.53 126.90 L 564.73 126.95 L 564.84 127.30 L 564.94 127.28 L 565.06 127.14 L 565.46 126.08 L 565.88 125.96 L 566.26 125.88 L 566.30 125.83 L 566.34 125.53 L 593.30 125.45 L 593.48 125.32 L 608.98 124.98 L 609.06 125.36 L 609.19 123.74 L 609.21 123.74 L 609.25 123.78 L 609.80 120.49 L 609.86 120.46 L 610.55 120.53 L 611.24 120.32 L 611.48 120.01 L 611.92 119.61 L 612.50 119.36 L 612.51 119.36 L 612.59 119.29 L 612.81 119.23 L 612.88 119.07 L 613.44 118.27 L 614.16 118.10 L 614.24 117.94 L 614.61 117.87 L 614.72 118.51 L 614.99 118.27 L 615.23 118.22 L 615.70 118.05 L 616.15 117.96 L 616.37 117.61 L 616.39 117.61 L 626.09 117.60 L 629.13 116.70 L 629.26 116.26 L 629.41 115.85 L 629.90 115.82 L 630.10 115.69 L 630.26 113.57 L 630.36 112.20 L 630.59 112.06 L 630.63 112.04 L 630.96 111.64 L 631.07 111.43 L 631.13 111.32 L 631.31 110.98 L 631.38 110.95 L 631.48 110.91 L 631.55 110.71 L 631.63 110.48 L 631.73 110.36 L 631.80 110.32 L 632.11 110.23 L 632.27 109.99 L 632.39 109.86 L 632.43 109.19 L 632.79 109.06 L 632.92 108.67 L 642.07 108.76 L 642.74 108.52 L 642.86 108.51 L 643.27 107.72 L 643.45 107.62 L 644.21 106.34 L 644.54 106.22 L 644.98 105.05 L 645.04 105.05 L 645.30 105.02 L 645.39 104.36 L 645.74 103.42 L 646.27 102.87 L 646.45 102.20 L 649.67 100.50 L 649.98 100.00 L 650.00 100.00"/>
	</g>
	<g id="poloto_plot1" class="poloto_plot poloto_imgs poloto_line poloto1 poloto_stroke" fill="none" stroke="black">
		<path d=" M 150.00 383.38 L 150.02 383.37 L 150.04 383.36 L 150.05 383.36 L 150.07 383.36 L 150.09 382.83 L 150.19 382.81 L 150.43 382.81 L 150.77 382.61 L 150.95 382.52 L 151.30 382.54 L 151.36 382.50 L 151.41 382.50 L 151.82 382.46 L 152.59 382.36 L 152.83 380.31 L 152.89 380.31 L 153.36 380.26 L 153.90 380.25 L 153.90 380.25 L 153.90 380.25 L 161.14 380.25 L 161.19 380.25 L 161.28 380.25 L 161.32 380.22 L 161.60 380.21 L 161.72 380.21 L 162.03 380.21 L 162.07 380.21 L 162.16 380.20 L 162.25 380.20 L 162.28 380.20 L 162.35 380.17 L 162.43 380.17 L 162.51 380.17 L 162.71 380.06 L 162.89 380.06 L 162.92 380.06 L 163.01 380.06 L 163.58 380.83 L 163.59 380.83 L 163.67 380.82 L 164.00 380.70 L 164.26 380.58 L 164.56 380.52 L 164.62 380.48 L 164.63 380.48 L 164.68 380.48 L 164.80 380.48 L 164.94 380.43 L 165.22 380.38 L 165.24 380.38 L 165.29 380.38 L 165.36 380.36 L 165.52 380.36 L 165.54 380.36 L 165.71 380.36 L 165.78 380.36 L 165.84 380.36 L 165.90 380.36 L 166.78 380.26 L 167.00 380.26 L 167.49 380.22 L 167.59 380.22 L 167.67 380.22 L 167.71 380.22 L 168.05 380.15 L 168.20 380.15 L 168.37 380.08 L 168.46 380.07 L 168.66 379.90 L 168.75 379.84 L 168.87 379.84 L 168.98 379.84 L 169.37 377.44 L 169.38 377.40 L 169.40 377.40 L 169.54 377.17 L 176.25 377.17 L 176.94 376.13 L 176.96 376.13 L 177.78 376.13 L 177.85 376.13 L 177.93 376.02 L 178.13 376.00 L 178.22 376.00 L 178.25 376.00 L 178.36 376.00 L 178.60 376.00 L 178.61 375.78 L 178.70 375.77 L 178.79 375.77 L 178.89 375.75 L 179.02 375.74 L 179.08 375.74 L 179.09 375.74 L 179.21 375.74 L 179.23 375.74 L 179.35 375.74 L 179.38 375.74 L 179.57 374.72 L 179.60 374.72 L 179.67 374.60 L 179.75 374.60 L 179.86 374.60 L 179.91 374.59 L 180.28 374.59 L 180.29 374.59 L 180.36 374.52 L 180.53 374.52 L 180.68 373.94 L 180.73 373.87 L 180.80 373.87 L 180.84 373.87 L 180.92 373.85 L 181.34 369.56 L 181.39 369.60 L 181.53 369.60 L 181.57 369.60 L 181.61 369.59 L 181.68 369.59 L 181.74 369.53 L 181.89 369.53 L 181.99 369.53 L 182.08 369.52 L 182.13 369.52 L 182.51 369.52 L 182.71 369.51 L 182.77 369.41 L 182.95 369.41 L 182.97 369.41 L 182.98 369.41 L 183.09 369.12 L 183.18 369.04 L 183.49 368.02 L 183.55 368.02 L 183.60 368.02 L 183.69 368.04 L 183.70 368.04 L 183.73 368.04 L 183.76 368.04 L 183.81 368.04 L 183.85 368.04 L 183.97 368.02 L 184.06 368.02 L 184.15 368.01 L 184.27 368.01 L 184.41 368.00 L 184.54 367.62 L 184.64 367.49 L 184.83 367.49 L 184.83 367.49 L 184.95 367.49 L 194.32 367.49 L 194.50 367.48 L 194.94 367.41 L 195.03 367.40 L 195.10 367.40 L 195.12 367.40 L 195.28 367.40 L 195.39 367.40 L 195.45 367.40 L 195.52 367.40 L 195.55 367.40 L 195.72 367.40 L 196.06 367.42 L 196.15 367.42 L 196.21 367.42 L 196.29 367.42 L 196.72 367.34 L 196.78 367.30 L 196.81 367.30 L 196.84 367.25 L 196.94 367.24 L 197.01 367.24 L 197.32 366.85 L 197.78 366.85 L 197.94 366.85 L 198.44 366.85 L 198.68 364.22 L 198.76 364.22 L 198.87 364.22 L 199.01 364.22 L 199.24 364.22 L 199.56 364.22 L 199.98 364.22 L 200.05 364.22 L 200.36 364.15 L 200.56 364.04 L 200.62 364.04 L 200.74 364.04 L 200.84 364.03 L 201.94 363.86 L 203.00 363.86 L 212.43 363.86 L 212.49 363.86 L 212.54 363.86 L 212.84 363.86 L 213.72 363.03 L 213.76 363.01 L 213.88 362.92 L 214.31 362.92 L 214.52 362.72 L 214.83 362.72 L 214.90 362.72 L 214.97 362.72 L 215.52 360.41 L 215.58 360.41 L 215.70 360.41 L 215.82 360.41 L 215.87 360.27 L 216.18 359.99 L 216.29 359.99 L 216.34 359.99 L 216.41 359.57 L 216.55 359.14 L 216.60 359.14 L 216.74 359.13 L 217.15 355.70 L 217.18 355.70 L 217.22 355.70 L 217.29 355.70 L 217.39 355.70 L 217.43 355.70 L 217.47 355.70 L 217.66 355.70 L 217.71 355.62 L 217.95 355.61 L 218.09 355.56 L 218.18 355.15 L 218.91 348.31 L 219.00 348.31 L 246.71 348.31 L 246.73 348.31 L 257.32 348.31 L 257.90 348.21 L 258.02 348.21 L 258.17 348.21 L 258.22 348.21 L 258.29 348.21 L 262.88 348.15 L 263.48 348.09 L 263.71 348.09 L 263.83 348.07 L 266.69 348.01 L 266.71 347.92 L 266.89 347.92 L 267.74 346.99 L 267.79 346.99 L 267.90 346.99 L 268.20 346.99 L 268.24 346.99 L 268.36 346.99 L 268.49 346.99 L 268.51 346.99 L 277.41 346.98 L 277.47 346.81 L 277.83 346.81 L 277.83 345.70 L 277.89 345.70 L 277.97 345.70 L 278.07 345.59 L 278.22 345.59 L 278.34 345.54 L 278.46 345.54 L 278.51 345.54 L 278.69 345.53 L 279.30 343.63 L 279.55 343.63 L 279.59 343.62 L 279.64 343.62 L 279.68 343.62 L 279.76 343.59 L 280.01 343.36 L 280.05 343.32 L 280.20 341.62 L 280.26 341.61 L 280.28 341.61 L 280.34 341.59 L 280.38 341.59 L 280.41 341.58 L 280.61 340.66 L 280.69 340.64 L 280.80 340.62 L 280.88 337.74 L 280.91 337.74 L 281.10 336.12 L 281.16 336.12 L 281.19 336.11 L 281.24 336.11 L 281.28 336.11 L 281.30 336.11 L 281.31 336.11 L 281.41 333.11 L 281.45 333.11 L 281.54 333.10 L 281.61 333.10 L 281.81 333.03 L 282.06 332.95 L 282.07 332.95 L 282.13 332.93 L 282.36 332.89 L 282.47 332.89 L 282.58 332.89 L 282.69 331.59 L 282.77 331.59 L 283.08 331.59 L 283.11 331.58 L 283.15 331.58 L 283.18 331.58 L 283.38 329.73 L 283.42 329.73 L 283.57 329.72 L 297.26 329.72 L 298.04 329.71 L 298.07 329.71 L 298.22 329.71 L 298.23 329.71 L 298.33 329.71 L 298.41 329.71 L 298.47 329.62 L 298.57 329.62 L 298.60 329.62 L 298.63 329.62 L 298.78 329.45 L 299.08 329.34 L 299.26 329.23 L 299.47 328.71 L 299.48 328.71 L 299.52 328.58 L 299.54 328.56 L 299.95 328.25 L 299.96 328.25 L 300.02 328.20 L 300.20 328.20 L 300.31 328.17 L 300.33 327.40 L 300.34 327.40 L 300.39 328.16 L 300.42 328.12 L 300.44 328.11 L 300.54 327.08 L 300.55 327.08 L 300.76 327.03 L 301.35 327.03 L 301.48 327.03 L 301.53 327.03 L 301.56 327.03 L 301.59 327.03 L 301.67 326.97 L 311.03 326.11 L 311.05 326.11 L 311.13 326.11 L 311.15 325.92 L 311.20 316.80 L 311.31 313.40 L 311.32 313.40 L 311.49 313.34 L 311.53 313.34 L 311.56 313.33 L 311.71 313.33 L 312.11 312.50 L 312.13 312.50 L 312.23 312.45 L 312.27 312.45 L 312.29 312.38 L 312.63 311.89 L 312.64 311.89 L 313.15 311.79 L 313.21 311.75 L 313.39 311.76 L 313.60 310.64 L 313.66 310.53 L 313.69 310.42 L 313.79 310.00 L 314.06 309.90 L 314.10 309.81 L 314.22 309.81 L 314.34 309.81 L 314.74 309.81 L 314.79 309.81 L 314.88 309.81 L 314.88 309.81 L 315.01 309.82 L 315.31 309.82 L 315.61 309.71 L 315.66 309.71 L 315.73 309.69 L 315.81 309.69 L 316.05 309.69 L 316.45 309.69 L 316.57 309.59 L 316.79 306.64 L 317.65 309.42 L 317.84 309.41 L 317.98 309.40 L 318.19 309.40 L 318.26 309.37 L 318.47 309.35 L 318.81 309.18 L 318.86 309.18 L 318.92 309.18 L 318.96 309.18 L 318.99 309.18 L 319.26 309.02 L 325.46 309.02 L 325.52 309.03 L 325.91 309.01 L 325.94 309.01 L 326.03 308.99 L 326.10 308.78 L 326.11 308.78 L 326.33 308.76 L 326.38 308.76 L 327.65 308.59 L 327.80 308.59 L 327.91 308.59 L 327.93 308.59 L 328.32 308.47 L 328.46 308.47 L 328.48 308.47 L 328.69 308.46 L 328.93 307.77 L 328.95 307.77 L 329.15 307.65 L 329.23 307.65 L 329.30 307.65 L 329.46 307.65 L 329.81 307.64 L 329.87 307.62 L 329.93 307.55 L 330.08 307.44 L 330.42 307.33 L 330.72 304.55 L 330.78 304.46 L 331.09 304.33 L 331.15 304.29 L 331.20 304.19 L 331.23 304.00 L 331.34 303.17 L 331.36 303.20 L 331.41 303.19 L 331.59 303.18 L 331.86 303.07 L 332.02 303.02 L 332.22 303.01 L 332.30 303.00 L 332.49 302.99 L 332.81 302.99 L 333.12 302.98 L 333.36 302.98 L 333.41 302.98 L 333.47 302.97 L 333.47 302.97 L 333.66 302.97 L 333.71 302.96 L 333.78 302.85 L 334.29 302.84 L 334.30 302.84 L 334.44 302.83 L 335.03 302.83 L 335.43 302.69 L 335.72 302.57 L 335.72 302.57 L 335.75 302.57 L 344.44 302.57 L 344.47 302.57 L 344.57 302.57 L 344.61 302.57 L 344.64 302.55 L 344.65 302.55 L 345.02 302.55 L 345.10 302.55 L 345.21 302.53 L 345.40 302.51 L 345.52 302.51 L 345.67 302.44 L 345.75 302.44 L 345.79 302.44 L 345.83 302.44 L 345.94 302.19 L 345.96 302.19 L 345.99 302.19 L 346.09 302.19 L 346.15 302.19 L 346.23 302.25 L 346.33 302.25 L 346.55 302.24 L 346.64 302.24 L 346.72 302.24 L 347.26 301.42 L 347.71 301.20 L 348.26 300.62 L 348.40 300.62 L 348.56 300.62 L 348.73 300.62 L 351.92 300.55 L 352.19 300.54 L 382.46 300.44 L 477.77 300.29 L 478.08 300.24 L 478.30 300.24 L 478.52 300.24 L 478.85 299.86 L 478.96 299.86 L 479.05 299.86 L 479.20 298.49 L 479.42 298.75 L 479.60 298.73 L 479.64 298.73 L 479.79 298.72 L 479.82 298.72 L 479.98 298.72 L 480.12 298.65 L 480.55 297.79 L 480.56 297.79 L 480.69 297.71 L 481.10 294.91 L 481.11 294.91 L 481.19 294.91 L 481.29 294.86 L 481.73 293.56 L 481.74 293.56 L 481.84 293.56 L 481.94 293.53 L 482.11 293.05 L 482.12 293.05 L 482.19 293.05 L 482.20 293.05 L 482.24 292.78 L 482.43 290.93 L 482.45 290.93 L 482.52 290.93 L 482.72 290.77 L 482.76 290.77 L 482.92 290.47 L 483.18 290.47 L 483.22 290.47 L 483.26 290.47 L 483.31 290.47 L 483.44 290.46 L 483.58 289.63 L 483.60 289.63 L 483.68 289.62 L 483.76 288.99 L 483.78 288.99 L 483.86 288.32 L 483.90 288.28 L 484.06 287.62 L 484.09 287.62 L 484.17 287.62 L 484.29 287.60 L 484.97 287.60 L 485.31 287.60 L 492.76 287.60 L 492.83 287.60 L 492.90 287.60 L 493.03 287.60 L 493.31 287.42 L 493.33 287.42 L 493.38 287.37 L 493.56 286.44 L 493.58 286.44 L 495.21 286.46 L 495.31 286.28 L 496.13 286.28 L 496.22 286.27 L 496.31 286.20 L 497.30 285.44 L 497.72 285.30 L 497.82 285.25 L 498.18 283.80 L 498.40 283.80 L 498.77 283.68 L 499.42 283.68 L 509.39 283.68 L 509.98 283.59 L 510.01 283.61 L 510.84 283.61 L 510.88 283.61 L 511.18 283.61 L 511.52 283.58 L 511.52 283.58 L 511.55 283.58 L 512.00 282.73 L 513.02 282.71 L 513.09 282.71 L 513.19 282.71 L 513.35 282.67 L 513.39 282.65 L 513.45 282.65 L 513.93 282.61 L 514.31 282.61 L 514.52 282.61 L 514.54 282.61 L 514.97 282.59 L 515.30 282.49 L 515.31 282.49 L 515.35 282.49 L 515.40 282.49 L 526.21 282.29 L 526.23 282.29 L 526.26 282.29 L 526.47 282.29 L 526.64 282.29 L 527.59 281.46 L 527.83 281.41 L 528.51 281.34 L 529.10 281.30 L 529.54 281.30 L 529.66 281.30 L 530.21 280.04 L 530.41 280.00 L 530.48 279.96 L 532.08 279.07 L 532.10 279.07 L 532.19 279.06 L 532.49 279.05 L 532.50 279.05 L 532.51 279.05 L 532.57 279.02 L 532.71 278.99 L 532.88 278.89 L 534.54 277.43 L 534.75 277.35 L 534.90 277.35 L 534.93 277.35 L 534.96 277.35 L 542.32 277.35 L 542.56 277.34 L 542.70 277.34 L 542.75 277.34 L 543.45 277.34 L 543.59 277.34 L 543.72 277.34 L 543.80 277.31 L 544.03 275.39 L 544.07 275.38 L 544.38 275.39 L 544.45 275.38 L 544.72 274.63 L 544.77 274.59 L 544.99 274.11 L 545.15 274.11 L 545.28 274.06 L 545.55 273.62 L 545.58 273.62 L 545.94 272.19 L 545.97 272.19 L 546.03 272.18 L 546.10 272.18 L 546.14 272.18 L 546.55 270.76 L 547.15 270.63 L 547.44 270.63 L 548.42 270.59 L 548.44 270.59 L 548.59 270.59 L 548.66 270.59 L 548.77 270.59 L 548.89 270.59 L 549.02 270.57 L 549.31 270.55 L 549.59 270.55 L 550.46 270.49 L 550.50 270.49 L 551.37 270.45 L 551.75 270.41 L 559.20 270.43 L 559.57 270.36 L 559.76 270.28 L 559.84 270.28 L 559.86 270.28 L 560.05 270.28 L 560.14 270.28 L 560.36 270.28 L 560.49 270.27 L 560.98 270.14 L 561.23 269.88 L 561.65 269.86 L 561.77 269.69 L 561.91 269.61 L 562.09 269.53 L 562.73 269.61 L 562.80 269.61 L 563.74 269.35 L 563.88 269.35 L 564.07 269.35 L 564.53 269.32 L 564.73 269.45 L 564.84 269.45 L 564.94 269.45 L 565.06 269.45 L 565.46 268.83 L 565.88 268.82 L 566.26 268.82 L 566.30 268.82 L 566.34 268.82 L 593.30 268.82 L 593.48 268.77 L 608.98 268.57 L 609.06 268.57 L 609.19 268.51 L 609.21 268.51 L 609.25 268.51 L 609.80 266.13 L 609.86 266.13 L 610.55 266.13 L 611.24 266.03 L 611.48 265.79 L 611.92 265.49 L 612.50 265.41 L 612.51 265.41 L 612.59 265.36 L 612.81 265.36 L 612.88 265.31 L 613.44 264.67 L 614.16 264.57 L 614.24 264.57 L 614.61 264.56 L 614.72 264.56 L 614.99 264.41 L 615.23 264.38 L 615.70 264.25 L 616.15 264.18 L 616.37 264.18 L 616.39 264.18 L 626.09 264.18 L 629.13 264.13 L 629.26 264.11 L 629.41 263.82 L 629.90 263.84 L 630.10 263.84 L 630.26 263.84 L 630.36 263.72 L 630.59 263.63 L 630.63 263.62 L 630.96 263.39 L 631.07 263.23 L 631.13 263.18 L 631.31 263.08 L 631.38 263.07 L 631.48 263.06 L 631.55 262.92 L 631.63 262.77 L 631.73 262.74 L 631.80 262.74 L 632.11 262.68 L 632.27 262.57 L 632.39 262.47 L 632.43 262.47 L 632.79 262.47 L 632.92 262.47 L 642.07 262.50 L 642.74 262.48 L 642.86 262.48 L 643.27 262.08 L 643.45 262.02 L 644.21 261.98 L 644.54 261.98 L 644.98 261.02 L 645.04 261.02 L 645.30 261.01 L 645.39 260.99 L 645.74 260.94 L 646.27 260.49 L 646.45 260.48 L 649.67 259.43 L 649.98 259.43 L 650.00 259.43"/>
	</g>
	<g id="poloto_plot2" class="poloto_plot poloto_imgs poloto_line poloto2 poloto_stroke" fill="none" stroke="black">
		<path d=" M 150.00 392.55 L 150.02 392.54 L 150.04 392.54 L 150.05 392.54 L 150.07 392.54 L 150.09 390.63 L 150.19 390.37 L 150.43 390.36 L 150.77 390.35 L 150.95 389.21 L 151.30 389.11 L 151.36 389.08 L 151.41 389.05 L 151.82 388.53 L 152.59 388.14 L 152.83 388.06 L 152.89 388.06 L 153.36 388.03 L 153.90 388.03 L 153.90 388.03 L 153.90 388.03 L 161.14 388.03 L 161.19 388.03 L 161.28 388.01 L 161.32 388.01 L 161.60 387.90 L 161.72 387.87 L 162.03 387.68 L 162.07 387.60 L 162.16 387.43 L 162.25 387.41 L 162.28 387.40 L 162.35 387.37 L 162.43 387.37 L 162.51 387.38 L 162.71 387.18 L 162.89 387.01 L 162.92 387.01 L 163.01 386.91 L 163.58 386.67 L 163.59 386.67 L 163.67 386.60 L 164.00 386.35 L 164.26 386.04 L 164.56 385.91 L 164.62 385.91 L 164.63 385.91 L 164.68 385.74 L 164.80 385.74 L 164.94 385.72 L 165.22 385.59 L 165.24 385.37 L 165.29 385.37 L 165.36 385.26 L 165.52 385.26 L 165.54 385.26 L 165.71 384.92 L 165.78 384.90 L 165.84 384.87 L 165.90 384.72 L 166.78 384.62 L 167.00 384.59 L 167.49 384.36 L 167.59 384.36 L 167.67 384.35 L 167.71 384.17 L 168.05 383.24 L 168.20 383.23 L 168.37 382.95 L 168.46 382.92 L 168.66 382.79 L 168.75 382.75 L 168.87 382.55 L 168.98 382.39 L 169.37 382.39 L 169.38 382.36 L 169.40 382.23 L 169.54 381.33 L 176.25 381.24 L 176.94 380.96 L 176.96 380.93 L 177.78 380.70 L 177.85 380.70 L 177.93 380.53 L 178.13 380.42 L 178.22 380.21 L 178.25 380.04 L 178.36 379.71 L 178.60 379.70 L 178.61 379.70 L 178.70 379.47 L 178.79 379.47 L 178.89 379.22 L 179.02 379.03 L 179.08 378.92 L 179.09 378.92 L 179.21 378.69 L 179.23 378.69 L 179.35 378.48 L 179.38 378.47 L 179.57 378.40 L 179.60 378.40 L 179.67 378.32 L 179.75 378.31 L 179.86 378.31 L 179.91 378.29 L 180.28 378.09 L 180.29 378.10 L 180.36 377.69 L 180.53 377.68 L 180.68 377.55 L 180.73 377.55 L 180.80 377.55 L 180.84 377.52 L 180.92 376.96 L 181.34 376.49 L 181.39 376.23 L 181.53 376.21 L 181.57 376.15 L 181.61 376.14 L 181.68 376.02 L 181.74 375.58 L 181.89 375.51 L 181.99 375.50 L 182.08 375.28 L 182.13 375.27 L 182.51 375.10 L 182.71 374.99 L 182.77 374.89 L 182.95 374.88 L 182.97 374.88 L 182.98 374.86 L 183.09 374.06 L 183.18 374.05 L 183.49 373.94 L 183.55 373.62 L 183.60 373.61 L 183.69 373.48 L 183.70 373.41 L 183.73 373.35 L 183.76 373.32 L 183.81 373.32 L 183.85 373.26 L 183.97 372.36 L 184.06 372.27 L 184.15 372.00 L 184.27 371.98 L 184.41 371.89 L 184.54 371.61 L 184.64 370.83 L 184.83 370.78 L 184.83 370.44 L 184.95 370.36 L 194.32 370.36 L 194.50 370.36 L 194.94 370.00 L 195.03 370.00 L 195.10 370.00 L 195.12 369.90 L 195.28 369.74 L 195.39 369.71 L 195.45 369.62 L 195.52 369.55 L 195.55 369.52 L 195.72 369.47 L 196.06 369.54 L 196.15 369.30 L 196.21 369.23 L 196.29 369.22 L 196.72 369.17 L 196.78 369.13 L 196.81 369.13 L 196.84 369.08 L 196.94 369.04 L 197.01 368.95 L 197.32 368.72 L 197.78 368.62 L 197.94 368.58 L 198.44 368.43 L 198.68 368.07 L 198.76 368.01 L 198.87 367.72 L 199.01 367.36 L 199.24 367.26 L 199.56 367.25 L 199.98 367.24 L 200.05 367.10 L 200.36 367.01 L 200.56 366.90 L 200.62 366.80 L 200.74 366.77 L 200.84 366.53 L 201.94 366.41 L 203.00 366.41 L 212.43 366.38 L 212.49 366.25 L 212.54 366.16 L 212.84 366.02 L 213.72 365.78 L 213.76 365.74 L 213.88 365.57 L 214.31 365.50 L 214.52 365.03 L 214.83 365.02 L 214.90 365.00 L 214.97 364.54 L 215.52 364.11 L 215.58 364.10 L 215.70 364.08 L 215.82 364.04 L 215.87 363.88 L 216.18 363.16 L 216.29 362.97 L 216.34 362.96 L 216.41 362.88 L 216.55 362.60 L 216.60 361.87 L 216.74 361.58 L 217.15 361.41 L 217.18 361.04 L 217.22 361.04 L 217.29 360.98 L 217.39 360.88 L 217.43 360.85 L 217.47 360.82 L 217.66 359.98 L 217.71 359.48 L 217.95 359.38 L 218.09 358.54 L 218.18 358.38 L 218.91 357.06 L 219.00 357.04 L 246.71 356.65 L 246.73 356.65 L 257.32 356.54 L 257.90 356.40 L 258.02 356.40 L 258.17 356.33 L 258.22 356.23 L 258.29 356.20 L 262.88 356.19 L 263.48 354.67 L 263.71 354.54 L 263.83 354.01 L 266.69 353.95 L 266.71 353.90 L 266.89 353.89 L 267.74 353.80 L 267.79 353.62 L 267.90 353.56 L 268.20 353.48 L 268.24 353.46 L 268.36 353.17 L 268.49 353.08 L 268.51 352.85 L 277.41 352.57 L 277.47 351.87 L 277.83 351.69 L 277.83 351.43 L 277.89 351.22 L 277.97 350.91 L 278.07 350.07 L 278.22 349.61 L 278.34 349.02 L 278.46 349.02 L 278.51 348.56 L 278.69 348.53 L 279.30 348.10 L 279.55 347.89 L 279.59 347.77 L 279.64 347.77 L 279.68 347.62 L 279.76 347.10 L 280.01 347.05 L 280.05 347.05 L 280.20 346.71 L 280.26 346.71 L 280.28 346.52 L 280.34 346.39 L 280.38 346.39 L 280.41 346.12 L 280.61 345.96 L 280.69 345.69 L 280.80 345.68 L 280.88 345.54 L 280.91 345.33 L 281.10 345.22 L 281.16 345.10 L 281.19 345.10 L 281.24 345.10 L 281.28 344.89 L 281.30 344.90 L 281.31 344.89 L 281.41 344.82 L 281.45 344.59 L 281.54 344.59 L 281.61 344.53 L 281.81 344.51 L 282.06 344.49 L 282.07 344.49 L 282.13 344.47 L 282.36 344.47 L 282.47 344.47 L 282.58 344.47 L 282.69 344.43 L 282.77 344.15 L 283.08 344.15 L 283.11 343.99 L 283.15 343.99 L 283.18 343.80 L 283.38 343.74 L 283.42 343.69 L 283.57 343.69 L 297.26 343.64 L 298.04 343.56 L 298.07 343.56 L 298.22 343.56 L 298.23 343.56 L 298.33 343.24 L 298.41 343.22 L 298.47 343.13 L 298.57 343.08 L 298.60 343.05 L 298.63 343.04 L 298.78 343.01 L 299.08 342.94 L 299.26 342.50 L 299.47 342.48 L 299.48 342.45 L 299.52 342.08 L 299.54 342.08 L 299.95 342.08 L 299.96 342.04 L 300.02 341.71 L 300.20 341.66 L 300.31 341.65 L 300.33 341.64 L 300.34 341.60 L 300.39 341.58 L 300.42 341.23 L 300.44 341.22 L 300.54 341.22 L 300.55 341.19 L 300.76 341.16 L 301.35 341.15 L 301.48 341.12 L 301.53 341.11 L 301.56 341.00 L 301.59 341.00 L 301.67 340.61 L 311.03 340.48 L 311.05 340.37 L 311.13 340.29 L 311.15 340.28 L 311.20 339.95 L 311.31 339.87 L 311.32 339.85 L 311.49 339.84 L 311.53 339.84 L 311.56 339.51 L 311.71 339.47 L 312.11 339.46 L 312.13 339.44 L 312.23 339.26 L 312.27 339.26 L 312.29 338.96 L 312.63 338.96 L 312.64 338.94 L 313.15 338.86 L 313.21 338.50 L 313.39 338.50 L 313.60 338.50 L 313.66 338.22 L 313.69 338.02 L 313.79 338.01 L 314.06 337.96 L 314.10 337.95 L 314.22 337.86 L 314.34 337.86 L 314.74 337.86 L 314.79 337.86 L 314.88 337.84 L 314.88 337.84 L 315.01 337.84 L 315.31 337.82 L 315.61 337.78 L 315.66 337.78 L 315.73 337.74 L 315.81 337.64 L 316.05 337.64 L 316.45 337.52 L 316.57 337.32 L 316.79 337.29 L 317.65 337.07 L 317.84 337.07 L 317.98 337.07 L 318.19 337.06 L 318.26 337.04 L 318.47 336.93 L 318.81 336.92 L 318.86 336.81 L 318.92 336.77 L 318.96 336.78 L 318.99 336.74 L 319.26 336.72 L 325.46 336.72 L 325.52 336.72 L 325.91 336.72 L 325.94 336.71 L 326.03 336.40 L 326.10 336.39 L 326.11 336.39 L 326.33 336.38 L 326.38 336.36 L 327.65 335.91 L 327.80 335.86 L 327.91 335.86 L 327.93 335.85 L 328.32 335.84 L 328.46 335.91 L 328.48 335.90 L 328.69 335.87 L 328.93 335.44 L 328.95 335.44 L 329.15 335.42 L 329.23 335.42 L 329.30 335.42 L 329.46 335.33 L 329.81 334.94 L 329.87 334.94 L 329.93 334.89 L 330.08 334.54 L 330.42 334.14 L 330.72 334.17 L 330.78 333.96 L 331.09 333.96 L 331.15 333.94 L 331.20 333.91 L 331.23 333.71 L 331.34 333.70 L 331.36 333.70 L 331.41 333.70 L 331.59 333.70 L 331.86 333.54 L 332.02 333.52 L 332.22 333.52 L 332.30 333.52 L 332.49 333.52 L 332.81 333.52 L 333.12 333.52 L 333.36 333.52 L 333.41 333.51 L 333.47 333.51 L 333.47 333.44 L 333.66 333.39 L 333.71 333.39 L 333.78 333.37 L 334.29 333.37 L 334.30 333.17 L 334.44 333.17 L 335.03 333.17 L 335.43 333.17 L 335.72 333.12 L 335.72 333.04 L 335.75 333.04 L 344.44 332.91 L 344.47 332.90 L 344.57 332.89 L 344.61 332.77 L 344.64 332.77 L 344.65 332.76 L 345.02 332.72 L 345.10 332.31 L 345.21 332.22 L 345.40 331.42 L 345.52 331.41 L 345.67 331.06 L 345.75 331.10 L 345.79 331.10 L 345.83 330.66 L 345.94 330.58 L 345.96 330.28 L 345.99 330.23 L 346.09 330.20 L 346.15 330.05 L 346.23 331.86 L 346.33 331.83 L 346.55 331.10 L 346.64 330.95 L 346.72 330.78 L 347.26 330.50 L 347.71 330.19 L 348.26 329.76 L 348.40 329.72 L 348.56 329.72 L 348.73 329.68 L 351.92 329.46 L 352.19 329.44 L 382.46 328.87 L 477.77 328.86 L 478.08 328.60 L 478.30 328.56 L 478.52 328.56 L 478.85 328.33 L 478.96 328.06 L 479.05 327.56 L 479.20 327.43 L 479.42 327.48 L 479.60 327.19 L 479.64 327.18 L 479.79 327.09 L 479.82 327.09 L 479.98 326.61 L 480.12 325.86 L 480.55 325.79 L 480.56 325.71 L 480.69 324.75 L 481.10 324.72 L 481.11 324.62 L 481.19 324.57 L 481.29 323.70 L 481.73 323.65 L 481.74 323.53 L 481.84 323.47 L 481.94 322.90 L 482.11 322.88 L 482.12 322.79 L 482.19 321.84 L 482.20 321.81 L 482.24 321.78 L 482.43 321.78 L 482.45 321.69 L 482.52 321.62 L 482.72 321.53 L 482.76 321.52 L 482.92 321.47 L 483.18 321.51 L 483.22 321.47 L 483.26 321.44 L 483.31 321.41 L 483.44 320.43 L 483.58 320.41 L 483.60 320.32 L 483.68 319.31 L 483.76 318.95 L 483.78 318.82 L 483.86 318.32 L 483.90 317.47 L 484.06 317.46 L 484.09 317.41 L 484.17 317.24 L 484.29 317.23 L 484.97 317.20 L 485.31 317.18 L 492.76 317.22 L 492.83 317.03 L 492.90 316.88 L 493.03 316.20 L 493.31 316.19 L 493.33 316.12 L 493.38 315.26 L 493.56 315.25 L 493.58 315.17 L 495.21 315.08 L 495.31 314.77 L 496.13 314.62 L 496.22 314.59 L 496.31 313.63 L 497.30 313.36 L 497.72 313.13 L 497.82 312.41 L 498.18 312.41 L 498.40 312.01 L 498.77 311.39 L 499.42 311.02 L 509.39 311.01 L 509.98 311.00 L 510.01 311.00 L 510.84 310.87 L 510.88 310.79 L 511.18 310.73 L 511.52 309.93 L 511.52 309.93 L 511.55 309.89 L 512.00 309.72 L 513.02 309.19 L 513.09 309.14 L 513.19 309.13 L 513.35 308.90 L 513.39 308.87 L 513.45 308.83 L 513.93 308.83 L 514.31 308.83 L 514.52 308.83 L 514.54 308.79 L 514.97 307.97 L 515.30 307.90 L 515.31 307.84 L 515.35 307.76 L 515.40 307.56 L 526.21 307.41 L 526.23 307.39 L 526.26 307.37 L 526.47 307.27 L 526.64 307.17 L 527.59 306.71 L 527.83 306.62 L 528.51 306.27 L 529.10 306.21 L 529.54 306.07 L 529.66 304.87 L 530.21 304.67 L 530.41 304.61 L 530.48 303.74 L 532.08 302.91 L 532.10 302.91 L 532.19 302.52 L 532.49 302.49 L 532.50 302.49 L 532.51 302.39 L 532.57 302.28 L 532.71 302.20 L 532.88 301.61 L 534.54 301.30 L 534.75 301.16 L 534.90 300.83 L 534.93 300.80 L 534.96 300.59 L 542.32 299.84 L 542.56 299.29 L 542.70 299.27 L 542.75 298.90 L 543.45 298.75 L 543.59 298.36 L 543.72 298.36 L 543.80 297.56 L 544.03 297.37 L 544.07 297.34 L 544.38 297.29 L 544.45 296.63 L 544.72 296.55 L 544.77 296.03 L 544.99 295.97 L 545.15 295.67 L 545.28 295.09 L 545.55 294.98 L 545.58 294.38 L 545.94 295.72 L 545.97 295.72 L 546.03 294.96 L 546.10 294.96 L 546.14 294.90 L 546.55 294.83 L 547.15 294.51 L 547.44 294.67 L 548.42 294.65 L 548.44 294.64 L 548.59 294.63 L 548.66 294.62 L 548.77 294.51 L 548.89 294.42 L 549.02 294.28 L 549.31 294.08 L 549.59 294.07 L 550.46 293.98 L 550.50 293.97 L 551.37 293.87 L 551.75 293.81 L 559.20 293.78 L 559.57 293.74 L 559.76 293.74 L 559.84 293.74 L 559.86 293.74 L 560.05 293.72 L 560.14 293.69 L 560.36 293.55 L 560.49 293.53 L 560.98 293.52 L 561.23 293.45 L 561.65 293.42 L 561.77 293.39 L 561.91 293.33 L 562.09 293.24 L 562.73 293.21 L 562.80 293.19 L 563.74 293.05 L 563.88 292.81 L 564.07 292.72 L 564.53 292.58 L 564.73 292.50 L 564.84 292.84 L 564.94 292.83 L 565.06 292.70 L 565.46 292.39 L 565.88 292.30 L 566.26 292.24 L 566.30 292.20 L 566.34 291.97 L 593.30 291.93 L 593.48 291.86 L 608.98 291.79 L 609.06 292.13 L 609.19 290.78 L 609.21 290.78 L 609.25 290.81 L 609.80 290.29 L 609.86 290.27 L 610.55 290.32 L 611.24 290.26 L 611.48 290.22 L 611.92 290.17 L 612.50 290.02 L 612.51 290.02 L 612.59 290.00 L 612.81 289.96 L 612.88 289.85 L 613.44 289.78 L 614.16 289.73 L 614.24 289.59 L 614.61 289.52 L 614.72 290.12 L 614.99 290.07 L 615.23 290.04 L 615.70 290.01 L 616.15 290.01 L 616.37 289.73 L 616.39 289.73 L 626.09 289.72 L 629.13 289.00 L 629.26 288.64 L 629.41 288.55 L 629.90 288.52 L 630.10 288.39 L 630.26 286.59 L 630.36 285.62 L 630.59 285.58 L 630.63 285.57 L 630.96 285.43 L 631.07 285.39 L 631.13 285.33 L 631.31 285.12 L 631.38 285.10 L 631.48 285.07 L 631.55 285.02 L 631.63 284.97 L 631.73 284.88 L 631.80 284.85 L 632.11 284.81 L 632.27 284.72 L 632.39 284.69 L 632.43 284.10 L 632.79 283.97 L 632.92 283.65 L 642.07 283.72 L 642.74 283.53 L 642.86 283.52 L 643.27 283.18 L 643.45 283.14 L 644.21 282.07 L 644.54 281.97 L 644.98 281.84 L 645.04 281.83 L 645.30 281.83 L 645.39 281.27 L 645.74 280.53 L 646.27 280.45 L 646.45 279.88 L 649.67 279.48 L 649.98 279.06 L 650.00 279.06"/>
	</g>
	<g class="poloto_legend poloto_imgs poloto_line poloto0 poloto_stroke"><line x1="680" x2="730" y1="81.25" y2="81.25"/></g>
	<g class="poloto_legend poloto_imgs poloto_line poloto1 poloto_stroke"><line x1="680" x2="730" y1="131.25" y2="131.25"/></g>
	<g class="poloto_legend poloto_imgs poloto_line poloto2 poloto_stroke"><line x1="680" x2="730" y1="181.25" y2="181.25"/></g>
	<text class="poloto_legend poloto_text poloto_line poloto0" x="675" y="100">total</text>
	<text class="poloto_legend poloto_text poloto_line poloto1" x="675" y="150">code</text>
	<text class="poloto_legend poloto_text poloto_line poloto2" x="675" y="200">docs</text>
	<text class="poloto_text poloto_name poloto_title" x="400.00" y="37.50">Workspace lines over time</text>
	<text class="poloto_text poloto_name poloto_x" x="400.00" y="640">date (JST)</text>
	<text class="poloto_text poloto_name poloto_y" x="37.50" y="250.00" transform="rotate(-90,37.50,250.00)">lines</text>
	<text class="poloto_text poloto_ticks poloto_y">
		<tspan x="135.00" y="400.00">0</tspan>
		<tspan x="135.00" y="329.12">50K</tspan>
		<tspan x="135.00" y="258.24">100K</tspan>
		<tspan x="135.00" y="187.36">150K</tspan>
		<tspan x="135.00" y="116.49">200K</tspan>
	</text>
	<g class="poloto_imgs poloto_ticks poloto_y" stroke="black">
		<line x1="150.00" x2="144.00" y1="400.00" y2="400.00"/>
		<line x1="150.00" x2="144.00" y1="329.12" y2="329.12"/>
		<line x1="150.00" x2="144.00" y1="258.24" y2="258.24"/>
		<line x1="150.00" x2="144.00" y1="187.36" y2="187.36"/>
		<line x1="150.00" x2="144.00" y1="116.49" y2="116.49"/>
	</g>
	<g class="poloto_text poloto_ticks poloto_x">
		<text x="212.31" y="430.00" text-anchor="end" transform="rotate(-90 212.31 430.00)">2026-04-24 12:06</text>
		<text x="308.22" y="430.00" text-anchor="end" transform="rotate(-90 308.22 430.00)">2026-04-30 07:00</text>
		<text x="404.12" y="430.00" text-anchor="end" transform="rotate(-90 404.12 430.00)">2026-05-06 01:53</text>
		<text x="500.03" y="430.00" text-anchor="end" transform="rotate(-90 500.03 430.00)">2026-05-11 20:46</text>
		<text x="595.94" y="430.00" text-anchor="end" transform="rotate(-90 595.94 430.00)">2026-05-17 15:40</text>
	</g>
	<g class="poloto_imgs poloto_ticks poloto_x" stroke="black">
		<line x1="212.31" x2="212.31" y1="400.00" y2="405.00"/>
		<line x1="308.22" x2="308.22" y1="400.00" y2="405.00"/>
		<line x1="404.12" x2="404.12" y1="400.00" y2="405.00"/>
		<line x1="500.03" x2="500.03" y1="400.00" y2="405.00"/>
		<line x1="595.94" x2="595.94" y1="400.00" y2="405.00"/>
	</g>
	<path class="poloto_imgs poloto_ticks poloto_x" stroke="black" style="stroke-dasharray:9.590887276000032;stroke-dashoffset:-62.306815552990884;" d=" M 150.00 400.00 L 650.00 400.00"/>
	<path class="poloto_imgs poloto_ticks poloto_y" stroke="black" style="stroke-dasharray:7.087841988375939;stroke-dashoffset:-0;" d=" M 150.00 400.00 L 150.00 100.00"/>
</svg>

