<svg class="poloto" width="800" height="680" viewBox="0 0 800 680" xmlns="http://www.w3.org/2000/svg">
	<style>
.poloto{
  stroke-linecap:round;
  stroke-linejoin:round;
  font-family:Roboto,sans-serif;
  font-size:16px;
}
.poloto_background{fill:AliceBlue;}
.poloto_scatter{stroke-width:7}
.poloto_line{stroke-width:2}
.poloto_text{fill: black;}
.poloto_name{font-size:24px;dominant-baseline:auto;text-anchor:middle;}
.poloto_where{dominant-baseline:middle;text-anchor:start}
.poloto_text.poloto_legend{font-size:20px;dominant-baseline:middle;text-anchor:start;}
.poloto_text.poloto_ticks.poloto_y{dominant-baseline:middle;text-anchor:end}
.poloto_text.poloto_ticks.poloto_x{dominant-baseline:auto;text-anchor:middle}
.poloto_imgs.poloto_ticks{stroke: black;stroke-width:3;fill:none;stroke-dasharray:none}
.poloto_grid{stroke:gray;stroke-width:0.5}

.poloto0.poloto_stroke{stroke:blue;}
.poloto1.poloto_stroke{stroke:red;}
.poloto2.poloto_stroke{stroke:green;}
.poloto3.poloto_stroke{stroke:gold;}
.poloto4.poloto_stroke{stroke:aqua;}
.poloto5.poloto_stroke{stroke:lime;}
.poloto6.poloto_stroke{stroke:orange;}
.poloto7.poloto_stroke{stroke:chocolate;}
.poloto0.poloto_fill{fill:blue;}
.poloto1.poloto_fill{fill:red;}
.poloto2.poloto_fill{fill:green;}
.poloto3.poloto_fill{fill:gold;}
.poloto4.poloto_fill{fill:aqua;}
.poloto5.poloto_fill{fill:lime;}
.poloto6.poloto_fill{fill:orange;}
.poloto7.poloto_fill{fill:chocolate;}
	</style>
	<circle r="1e5" class="poloto_background" fill="white"/>
	<g id="poloto_plot0" class="poloto_plot poloto_imgs poloto_line poloto0 poloto_stroke" fill="none" stroke="black">
		<path d=" M 150.00 369.17 L 150.03 369.15 L 150.04 369.13 L 150.06 369.13 L 150.08 369.13 L 150.11 365.78 L 150.24 365.38 L 150.52 365.36 L 150.94 365.09 L 151.15 363.39 L 151.58 363.28 L 151.65 363.19 L 151.71 363.16 L 152.21 362.33 L 153.14 361.65 L 153.44 359.02 L 153.51 359.03 L 154.08 358.92 L 154.73 358.91 L 154.73 358.91 L 154.74 358.91 L 163.51 358.91 L 163.57 358.91 L 163.69 358.89 L 163.74 358.86 L 164.07 358.70 L 164.22 358.66 L 164.59 358.42 L 164.65 358.31 L 164.75 358.08 L 164.86 358.04 L 164.90 358.04 L 164.99 357.98 L 165.08 357.98 L 165.18 357.98 L 165.42 357.59 L 165.64 357.35 L 165.68 357.35 L 165.78 357.21 L 166.48 357.81 L 166.49 357.81 L 166.58 357.71 L 166.98 357.26 L 167.30 356.72 L 167.66 356.49 L 167.74 356.44 L 167.75 356.45 L 167.81 356.24 L 167.95 356.24 L 168.13 356.16 L 168.47 355.96 L 168.49 355.65 L 168.55 355.65 L 168.64 355.48 L 168.84 355.48 L 168.86 355.48 L 169.06 355.03 L 169.14 355.01 L 169.22 354.97 L 169.30 354.79 L 170.37 354.55 L 170.62 354.50 L 171.22 354.18 L 171.35 354.19 L 171.44 354.17 L 171.49 353.94 L 171.90 352.62 L 172.08 352.59 L 172.29 352.15 L 172.40 352.10 L 172.64 351.73 L 172.75 351.60 L 172.90 351.36 L 173.03 351.16 L 173.51 348.10 L 173.52 348.02 L 173.54 347.84 L 173.70 346.37 L 181.84 346.26 L 182.69 344.58 L 182.72 344.54 L 183.71 344.28 L 183.80 344.27 L 183.89 343.94 L 184.13 343.78 L 184.24 343.49 L 184.28 343.24 L 184.41 342.80 L 184.70 342.79 L 184.71 342.49 L 184.82 342.17 L 184.93 342.16 L 185.06 341.79 L 185.22 341.53 L 185.28 341.40 L 185.30 341.39 L 185.44 341.10 L 185.46 341.10 L 185.62 340.81 L 185.64 340.80 L 185.88 339.42 L 185.91 339.42 L 186.00 339.19 L 186.09 339.18 L 186.23 339.18 L 186.29 339.15 L 186.74 338.89 L 186.75 338.90 L 186.84 338.28 L 187.05 338.27 L 187.23 337.35 L 187.28 337.27 L 187.37 337.26 L 187.41 337.22 L 187.52 336.51 L 188.03 330.51 L 188.08 330.22 L 188.26 330.19 L 188.31 330.12 L 188.35 330.10 L 188.43 329.94 L 188.51 329.26 L 188.69 329.12 L 188.82 329.10 L 188.92 328.80 L 188.98 328.79 L 189.44 328.57 L 189.69 328.40 L 189.77 328.13 L 189.98 328.12 L 190.00 328.12 L 190.02 328.10 L 190.15 326.65 L 190.26 326.57 L 190.64 325.11 L 190.70 324.69 L 190.77 324.68 L 190.87 324.52 L 190.88 324.41 L 190.93 324.34 L 190.96 324.30 L 191.02 324.29 L 191.07 324.22 L 191.22 323.03 L 191.33 322.86 L 191.43 322.51 L 191.58 322.48 L 191.74 322.37 L 191.91 321.53 L 192.02 320.36 L 192.26 320.29 L 192.26 319.86 L 192.40 319.71 L 203.77 319.72 L 203.99 319.70 L 204.52 319.09 L 204.63 319.07 L 204.72 319.07 L 204.74 318.92 L 204.93 318.72 L 205.07 318.69 L 205.15 318.58 L 205.23 318.50 L 205.27 318.45 L 205.48 318.40 L 205.89 318.32 L 205.99 318.01 L 206.07 317.93 L 206.16 317.92 L 206.69 317.76 L 206.77 317.66 L 206.80 317.66 L 206.83 317.54 L 206.95 317.49 L 207.04 317.37 L 207.42 316.59 L 207.97 316.47 L 208.17 316.42 L 208.78 316.22 L 209.07 312.45 L 209.17 312.37 L 209.29 312.00 L 209.47 311.50 L 209.74 311.36 L 210.13 311.35 L 210.65 311.33 L 210.72 311.17 L 211.10 310.99 L 211.34 310.72 L 211.42 310.61 L 211.57 310.57 L 211.68 310.23 L 213.02 309.86 L 214.30 309.86 L 225.74 309.83 L 225.82 309.66 L 225.88 309.56 L 226.24 309.39 L 227.31 308.09 L 227.36 308.01 L 227.51 307.67 L 228.03 307.59 L 228.28 306.71 L 228.66 306.70 L 228.75 306.69 L 228.83 306.08 L 229.49 302.65 L 229.57 302.64 L 229.71 302.62 L 229.86 302.57 L 229.93 302.20 L 230.30 300.90 L 230.43 300.66 L 230.49 300.65 L 230.57 300.05 L 230.74 299.21 L 230.81 298.31 L 230.97 297.91 L 231.47 293.45 L 231.52 293.00 L 231.57 293.00 L 231.64 292.92 L 231.76 292.80 L 231.81 292.76 L 231.86 292.72 L 232.10 291.64 L 232.15 290.89 L 232.44 290.74 L 232.62 289.62 L 232.73 288.91 L 233.61 278.50 L 233.72 278.48 L 267.33 277.98 L 267.37 277.98 L 280.21 277.84 L 280.91 277.55 L 281.06 277.55 L 281.25 277.47 L 281.31 277.34 L 281.39 277.30 L 286.96 277.23 L 287.69 275.25 L 287.96 275.07 L 288.11 274.34 L 291.58 274.20 L 291.60 274.00 L 291.82 273.98 L 292.86 272.73 L 292.92 272.51 L 293.05 272.43 L 293.41 272.34 L 293.46 272.31 L 293.60 271.93 L 293.76 271.83 L 293.79 271.55 L 304.58 271.17 L 304.67 270.11 L 305.09 269.87 L 305.10 268.08 L 305.18 267.82 L 305.27 267.38 L 305.39 266.15 L 305.57 265.50 L 305.72 264.74 L 305.86 264.73 L 305.92 264.14 L 306.14 264.09 L 306.88 261.22 L 307.19 260.91 L 307.24 260.73 L 307.30 260.73 L 307.34 260.53 L 307.44 259.82 L 307.75 259.48 L 307.79 259.44 L 307.98 256.91 L 308.05 256.90 L 308.08 256.63 L 308.15 256.42 L 308.19 256.42 L 308.23 256.04 L 308.47 254.67 L 308.57 254.28 L 308.70 254.23 L 308.80 250.57 L 308.83 250.28 L 309.07 248.19 L 309.14 248.03 L 309.18 248.02 L 309.24 248.02 L 309.28 247.72 L 309.31 247.73 L 309.33 247.73 L 309.45 244.03 L 309.49 243.71 L 309.60 243.69 L 309.69 243.63 L 309.93 243.52 L 310.23 243.38 L 310.24 243.38 L 310.32 243.34 L 310.60 243.27 L 310.73 243.27 L 310.86 243.27 L 311.00 241.66 L 311.09 241.27 L 311.47 241.27 L 311.51 241.01 L 311.55 241.01 L 311.59 240.74 L 311.84 238.41 L 311.88 238.35 L 312.06 238.34 L 328.67 238.27 L 329.62 238.15 L 329.65 238.15 L 329.84 238.15 L 329.85 238.15 L 329.97 237.69 L 330.07 237.67 L 330.15 237.44 L 330.26 237.38 L 330.30 237.35 L 330.34 237.33 L 330.52 237.07 L 330.88 236.84 L 331.10 236.09 L 331.36 235.38 L 331.37 235.34 L 331.41 234.68 L 331.44 234.65 L 331.94 234.26 L 331.95 234.21 L 332.03 233.68 L 332.24 233.63 L 332.37 233.58 L 332.40 232.63 L 332.41 232.58 L 332.47 233.48 L 332.51 232.93 L 332.53 232.91 L 332.65 231.65 L 332.66 231.61 L 332.92 231.51 L 333.63 231.49 L 333.80 231.45 L 333.85 231.43 L 333.89 231.27 L 333.93 231.27 L 334.03 230.65 L 345.38 229.44 L 345.40 229.28 L 345.50 229.16 L 345.53 228.93 L 345.59 218.40 L 345.71 214.08 L 345.73 214.06 L 345.94 213.97 L 345.99 213.97 L 346.02 213.48 L 346.21 213.43 L 346.70 212.41 L 346.71 212.39 L 346.83 212.07 L 346.88 212.08 L 346.91 211.57 L 347.32 210.97 L 347.33 210.95 L 347.95 210.72 L 348.03 210.18 L 348.25 210.19 L 348.50 208.83 L 348.57 208.30 L 348.61 207.86 L 348.73 207.34 L 349.05 207.15 L 349.11 207.02 L 349.25 206.90 L 349.40 206.90 L 349.88 206.90 L 349.94 206.90 L 350.05 206.88 L 350.06 206.88 L 350.21 206.89 L 350.57 206.87 L 350.94 206.67 L 351.00 206.67 L 351.08 206.59 L 351.19 206.44 L 351.47 206.44 L 351.95 206.25 L 352.11 205.83 L 352.37 202.20 L 353.41 205.27 L 353.64 205.26 L 353.81 205.24 L 354.07 205.24 L 354.15 205.18 L 354.41 205.01 L 354.82 204.76 L 354.88 204.59 L 354.95 204.52 L 355.00 204.54 L 355.04 204.49 L 355.37 204.26 L 362.89 204.25 L 362.96 204.26 L 363.43 204.25 L 363.48 204.23 L 363.58 203.77 L 363.67 203.51 L 363.68 203.50 L 363.94 203.47 L 364.00 203.44 L 365.54 202.76 L 365.72 202.70 L 365.86 202.69 L 365.89 202.68 L 366.36 202.52 L 366.53 202.60 L 366.56 202.60 L 366.81 202.55 L 367.09 201.12 L 367.13 201.11 L 367.36 200.94 L 367.46 200.94 L 367.55 200.94 L 367.74 200.78 L 368.16 200.20 L 368.24 200.18 L 368.32 200.02 L 368.49 199.34 L 368.90 198.63 L 369.27 195.29 L 369.35 194.88 L 369.72 194.72 L 369.79 194.63 L 369.85 194.47 L 369.89 193.93 L 370.02 192.97 L 370.05 193.01 L 370.11 192.99 L 370.32 192.99 L 370.65 192.64 L 370.85 192.57 L 371.09 192.55 L 371.19 192.54 L 371.42 192.53 L 371.80 192.53 L 372.18 192.52 L 372.47 192.52 L 372.54 192.51 L 372.61 192.50 L 372.61 192.38 L 372.84 192.31 L 372.90 192.30 L 372.99 192.15 L 373.61 192.13 L 373.62 191.84 L 373.79 191.83 L 374.51 191.84 L 374.99 191.66 L 375.33 191.45 L 375.34 191.33 L 375.37 191.33 L 385.91 191.13 L 385.95 191.12 L 386.07 191.11 L 386.13 190.95 L 386.17 190.93 L 386.17 190.92 L 386.62 190.87 L 386.72 190.27 L 386.86 190.13 L 387.08 188.94 L 387.23 188.93 L 387.40 188.42 L 387.51 188.48 L 387.56 188.48 L 387.61 187.90 L 387.74 187.51 L 387.76 187.08 L 387.80 187.03 L 387.92 186.99 L 387.99 186.80 L 388.09 189.07 L 388.21 189.03 L 388.47 188.12 L 388.59 187.90 L 388.69 187.71 L 389.33 186.40 L 389.89 185.77 L 390.56 184.57 L 390.73 184.51 L 390.91 184.51 L 391.12 184.46 L 395.00 184.11 L 395.32 184.08 L 432.04 183.16 L 547.69 182.95 L 548.07 182.58 L 548.34 182.53 L 548.60 182.53 L 549.00 181.82 L 549.14 181.48 L 549.24 180.85 L 549.43 179.01 L 549.70 179.39 L 549.91 178.99 L 549.96 178.99 L 550.14 178.87 L 550.18 178.87 L 550.37 178.20 L 550.54 177.12 L 551.06 175.98 L 551.08 175.89 L 551.23 174.52 L 551.73 171.15 L 551.74 171.04 L 551.84 170.96 L 551.96 169.76 L 552.50 168.14 L 552.51 167.99 L 552.63 167.91 L 552.75 167.11 L 552.95 166.48 L 552.96 166.36 L 553.05 165.13 L 553.07 165.10 L 553.12 164.75 L 553.34 162.56 L 553.37 162.43 L 553.45 162.30 L 553.70 162.01 L 553.75 162.00 L 553.94 161.59 L 554.26 161.63 L 554.31 161.58 L 554.35 161.55 L 554.41 161.52 L 554.57 160.23 L 554.74 159.18 L 554.76 159.09 L 554.86 157.77 L 554.96 156.49 L 554.98 156.33 L 555.08 154.83 L 555.13 153.64 L 555.33 152.85 L 555.36 152.79 L 555.46 152.54 L 555.60 152.52 L 556.43 152.49 L 556.84 152.45 L 565.87 152.50 L 565.96 152.27 L 566.05 152.07 L 566.21 151.19 L 566.55 150.96 L 566.57 150.88 L 566.64 149.71 L 566.85 148.58 L 566.88 148.48 L 568.85 148.40 L 568.97 147.76 L 569.96 147.57 L 570.07 147.53 L 570.19 146.21 L 571.38 144.97 L 571.90 144.50 L 572.02 143.54 L 572.45 141.88 L 572.72 141.40 L 573.16 140.43 L 573.96 139.94 L 586.05 139.93 L 586.77 139.82 L 586.81 139.84 L 587.82 139.64 L 587.87 139.55 L 588.22 139.47 L 588.63 138.40 L 588.64 138.40 L 588.68 138.35 L 589.22 137.12 L 590.46 136.42 L 590.54 136.35 L 590.67 136.34 L 590.86 136.02 L 590.91 135.93 L 590.98 135.87 L 591.56 135.83 L 592.03 135.83 L 592.27 135.82 L 592.31 135.78 L 592.83 134.70 L 593.22 134.50 L 593.24 134.41 L 593.29 134.33 L 593.34 134.04 L 606.46 133.62 L 606.49 133.60 L 606.53 133.59 L 606.78 133.47 L 606.98 133.33 L 608.14 131.68 L 608.42 131.48 L 609.26 130.98 L 609.97 130.86 L 610.50 130.70 L 610.65 129.17 L 611.32 127.38 L 611.56 127.26 L 611.65 126.10 L 613.59 123.98 L 613.61 123.98 L 613.72 123.46 L 614.09 123.40 L 614.09 123.40 L 614.11 123.27 L 614.18 123.11 L 614.35 122.94 L 614.55 122.05 L 616.57 119.90 L 616.83 119.64 L 617.01 119.26 L 617.04 119.21 L 617.08 118.91 L 626.02 117.94 L 626.30 117.20 L 626.47 117.17 L 626.54 116.68 L 627.38 116.45 L 627.56 115.96 L 627.71 115.96 L 627.81 114.93 L 628.09 112.31 L 628.13 112.27 L 628.51 112.23 L 628.60 111.37 L 628.92 110.35 L 628.99 109.64 L 629.25 108.98 L 629.45 108.64 L 629.60 107.85 L 629.93 107.19 L 629.97 106.44 L 630.40 106.27 L 630.44 106.27 L 630.51 105.32 L 630.60 105.32 L 630.64 105.24 L 631.14 103.47 L 631.87 102.88 L 632.22 103.07 L 633.41 102.99 L 633.43 102.98 L 633.62 102.96 L 633.70 102.94 L 633.83 102.82 L 633.98 102.72 L 634.14 102.52 L 634.49 102.27 L 634.83 102.25 L 635.89 102.07 L 635.94 102.06 L 636.99 101.89 L 637.45 101.78 L 646.49 101.76 L 646.94 101.63 L 647.17 101.55 L 647.27 101.55 L 647.30 101.55 L 647.52 101.52 L 647.63 101.46 L 647.90 101.29 L 648.06 101.26 L 648.65 101.08 L 648.95 100.68 L 649.46 100.62 L 649.60 100.37 L 649.78 100.20 L 650.00 100.00"/>
	</g>
	<g id="poloto_plot1" class="poloto_plot poloto_imgs poloto_line poloto1 poloto_stroke" fill="none" stroke="black">
		<path d=" M 150.00 381.68 L 150.03 381.67 L 150.04 381.65 L 150.06 381.65 L 150.08 381.65 L 150.11 381.07 L 150.24 381.05 L 150.52 381.05 L 150.94 380.82 L 151.15 380.73 L 151.58 380.75 L 151.65 380.71 L 151.71 380.71 L 152.21 380.67 L 153.14 380.56 L 153.44 378.29 L 153.51 378.29 L 154.08 378.24 L 154.73 378.23 L 154.73 378.23 L 154.74 378.23 L 163.51 378.23 L 163.57 378.23 L 163.69 378.23 L 163.74 378.20 L 164.07 378.18 L 164.22 378.18 L 164.59 378.18 L 164.65 378.18 L 164.75 378.17 L 164.86 378.17 L 164.90 378.17 L 164.99 378.14 L 165.08 378.14 L 165.18 378.14 L 165.42 378.01 L 165.64 378.01 L 165.68 378.01 L 165.78 378.01 L 166.48 378.87 L 166.49 378.87 L 166.58 378.85 L 166.98 378.73 L 167.30 378.59 L 167.66 378.52 L 167.74 378.48 L 167.75 378.48 L 167.81 378.48 L 167.95 378.48 L 168.13 378.42 L 168.47 378.37 L 168.49 378.37 L 168.55 378.37 L 168.64 378.35 L 168.84 378.35 L 168.86 378.35 L 169.06 378.34 L 169.14 378.34 L 169.22 378.34 L 169.30 378.34 L 170.37 378.24 L 170.62 378.23 L 171.22 378.19 L 171.35 378.19 L 171.44 378.19 L 171.49 378.19 L 171.90 378.12 L 172.08 378.12 L 172.29 378.04 L 172.40 378.03 L 172.64 377.85 L 172.75 377.78 L 172.90 377.78 L 173.03 377.78 L 173.51 375.13 L 173.52 375.08 L 173.54 375.08 L 173.70 374.83 L 181.84 374.83 L 182.69 373.69 L 182.72 373.69 L 183.71 373.69 L 183.80 373.68 L 183.89 373.56 L 184.13 373.55 L 184.24 373.55 L 184.28 373.55 L 184.41 373.55 L 184.70 373.55 L 184.71 373.30 L 184.82 373.29 L 184.93 373.29 L 185.06 373.26 L 185.22 373.26 L 185.28 373.26 L 185.30 373.26 L 185.44 373.26 L 185.46 373.26 L 185.62 373.26 L 185.64 373.26 L 185.88 372.13 L 185.91 372.13 L 186.00 372.00 L 186.09 372.00 L 186.23 372.00 L 186.29 371.99 L 186.74 371.98 L 186.75 371.98 L 186.84 371.91 L 187.05 371.91 L 187.23 371.27 L 187.28 371.19 L 187.37 371.19 L 187.41 371.19 L 187.52 371.17 L 188.03 366.44 L 188.08 366.48 L 188.26 366.48 L 188.31 366.48 L 188.35 366.47 L 188.43 366.47 L 188.51 366.41 L 188.69 366.41 L 188.82 366.41 L 188.92 366.40 L 188.98 366.40 L 189.44 366.39 L 189.69 366.39 L 189.77 366.27 L 189.98 366.27 L 190.00 366.27 L 190.02 366.27 L 190.15 365.95 L 190.26 365.87 L 190.64 364.75 L 190.70 364.75 L 190.77 364.75 L 190.87 364.76 L 190.88 364.76 L 190.93 364.76 L 190.96 364.76 L 191.02 364.76 L 191.07 364.76 L 191.22 364.74 L 191.33 364.74 L 191.43 364.73 L 191.58 364.73 L 191.74 364.72 L 191.91 364.30 L 192.02 364.16 L 192.26 364.16 L 192.26 364.16 L 192.40 364.16 L 203.77 364.16 L 203.99 364.15 L 204.52 364.08 L 204.63 364.07 L 204.72 364.07 L 204.74 364.07 L 204.93 364.07 L 205.07 364.07 L 205.15 364.07 L 205.23 364.07 L 205.27 364.06 L 205.48 364.06 L 205.89 364.08 L 205.99 364.08 L 206.07 364.08 L 206.16 364.08 L 206.69 363.99 L 206.77 363.95 L 206.80 363.95 L 206.83 363.89 L 206.95 363.89 L 207.04 363.88 L 207.42 363.46 L 207.97 363.46 L 208.17 363.46 L 208.78 363.46 L 209.07 360.56 L 209.17 360.56 L 209.29 360.56 L 209.47 360.55 L 209.74 360.55 L 210.13 360.55 L 210.65 360.55 L 210.72 360.55 L 211.10 360.48 L 211.34 360.36 L 211.42 360.36 L 211.57 360.36 L 211.68 360.34 L 213.02 360.16 L 214.30 360.16 L 225.74 360.16 L 225.82 360.16 L 225.88 360.16 L 226.24 360.16 L 227.31 359.25 L 227.36 359.22 L 227.51 359.12 L 228.03 359.12 L 228.28 358.90 L 228.66 358.90 L 228.75 358.90 L 228.83 358.90 L 229.49 356.36 L 229.57 356.36 L 229.71 356.36 L 229.86 356.36 L 229.93 356.20 L 230.30 355.89 L 230.43 355.89 L 230.49 355.89 L 230.57 355.42 L 230.74 354.95 L 230.81 354.95 L 230.97 354.95 L 231.47 351.16 L 231.52 351.16 L 231.57 351.16 L 231.64 351.16 L 231.76 351.16 L 231.81 351.16 L 231.86 351.16 L 232.10 351.16 L 232.15 351.08 L 232.44 351.06 L 232.62 351.01 L 232.73 350.55 L 233.61 343.02 L 233.72 343.02 L 267.33 343.02 L 267.37 343.02 L 280.21 343.02 L 280.91 342.90 L 281.06 342.90 L 281.25 342.90 L 281.31 342.90 L 281.39 342.90 L 286.96 342.84 L 287.69 342.77 L 287.96 342.77 L 288.11 342.75 L 291.58 342.68 L 291.60 342.58 L 291.82 342.58 L 292.86 341.56 L 292.92 341.56 L 293.05 341.56 L 293.41 341.56 L 293.46 341.56 L 293.60 341.56 L 293.76 341.56 L 293.79 341.56 L 304.58 341.54 L 304.67 341.36 L 305.09 341.36 L 305.10 340.13 L 305.18 340.13 L 305.27 340.13 L 305.39 340.02 L 305.57 340.02 L 305.72 339.97 L 305.86 339.97 L 305.92 339.97 L 306.14 339.95 L 306.88 337.86 L 307.19 337.86 L 307.24 337.85 L 307.30 337.85 L 307.34 337.85 L 307.44 337.81 L 307.75 337.55 L 307.79 337.52 L 307.98 335.64 L 308.05 335.63 L 308.08 335.63 L 308.15 335.60 L 308.19 335.60 L 308.23 335.60 L 308.47 334.58 L 308.57 334.56 L 308.70 334.54 L 308.80 331.36 L 308.83 331.36 L 309.07 329.57 L 309.14 329.57 L 309.18 329.57 L 309.24 329.57 L 309.28 329.57 L 309.31 329.57 L 309.33 329.57 L 309.45 326.26 L 309.49 326.25 L 309.60 326.24 L 309.69 326.24 L 309.93 326.17 L 310.23 326.09 L 310.24 326.09 L 310.32 326.07 L 310.60 326.01 L 310.73 326.01 L 310.86 326.01 L 311.00 324.59 L 311.09 324.59 L 311.47 324.58 L 311.51 324.57 L 311.55 324.57 L 311.59 324.57 L 311.84 322.54 L 311.88 322.54 L 312.06 322.52 L 328.67 322.52 L 329.62 322.51 L 329.65 322.51 L 329.84 322.51 L 329.85 322.51 L 329.97 322.51 L 330.07 322.51 L 330.15 322.41 L 330.26 322.41 L 330.30 322.41 L 330.34 322.41 L 330.52 322.22 L 330.88 322.10 L 331.10 321.99 L 331.36 321.41 L 331.37 321.41 L 331.41 321.26 L 331.44 321.25 L 331.94 320.90 L 331.95 320.90 L 332.03 320.84 L 332.24 320.84 L 332.37 320.81 L 332.40 319.96 L 332.41 319.96 L 332.47 320.80 L 332.51 320.75 L 332.53 320.74 L 332.65 319.61 L 332.66 319.61 L 332.92 319.56 L 333.63 319.56 L 333.80 319.56 L 333.85 319.56 L 333.89 319.56 L 333.93 319.56 L 334.03 319.49 L 345.38 318.54 L 345.40 318.54 L 345.50 318.54 L 345.53 318.33 L 345.59 308.28 L 345.71 304.53 L 345.73 304.53 L 345.94 304.47 L 345.99 304.47 L 346.02 304.45 L 346.21 304.45 L 346.70 303.54 L 346.71 303.54 L 346.83 303.49 L 346.88 303.49 L 346.91 303.41 L 347.32 302.86 L 347.33 302.86 L 347.95 302.75 L 348.03 302.71 L 348.25 302.72 L 348.50 301.49 L 348.57 301.36 L 348.61 301.25 L 348.73 300.78 L 349.05 300.67 L 349.11 300.57 L 349.25 300.57 L 349.40 300.57 L 349.88 300.57 L 349.94 300.57 L 350.05 300.57 L 350.06 300.57 L 350.21 300.58 L 350.57 300.58 L 350.94 300.46 L 351.00 300.46 L 351.08 300.44 L 351.19 300.44 L 351.47 300.44 L 351.95 300.44 L 352.11 300.33 L 352.37 297.08 L 353.41 300.15 L 353.64 300.13 L 353.81 300.12 L 354.07 300.12 L 354.15 300.09 L 354.41 300.07 L 354.82 299.88 L 354.88 299.88 L 354.95 299.88 L 355.00 299.88 L 355.04 299.88 L 355.37 299.70 L 362.89 299.70 L 362.96 299.71 L 363.43 299.69 L 363.48 299.69 L 363.58 299.66 L 363.67 299.44 L 363.68 299.43 L 363.94 299.41 L 364.00 299.41 L 365.54 299.22 L 365.72 299.22 L 365.86 299.22 L 365.89 299.22 L 366.36 299.09 L 366.53 299.09 L 366.56 299.09 L 366.81 299.09 L 367.09 298.32 L 367.13 298.32 L 367.36 298.19 L 367.46 298.19 L 367.55 298.19 L 367.74 298.19 L 368.16 298.18 L 368.24 298.16 L 368.32 298.08 L 368.49 297.95 L 368.90 297.84 L 369.27 294.77 L 369.35 294.67 L 369.72 294.53 L 369.79 294.49 L 369.85 294.38 L 369.89 294.17 L 370.02 293.25 L 370.05 293.29 L 370.11 293.27 L 370.32 293.26 L 370.65 293.14 L 370.85 293.09 L 371.09 293.08 L 371.19 293.07 L 371.42 293.05 L 371.80 293.05 L 372.18 293.05 L 372.47 293.04 L 372.54 293.04 L 372.61 293.03 L 372.61 293.03 L 372.84 293.03 L 372.90 293.02 L 372.99 292.90 L 373.61 292.89 L 373.62 292.89 L 373.79 292.88 L 374.51 292.87 L 374.99 292.72 L 375.33 292.59 L 375.34 292.59 L 375.37 292.59 L 385.91 292.59 L 385.95 292.59 L 386.07 292.59 L 386.13 292.59 L 386.17 292.57 L 386.17 292.57 L 386.62 292.57 L 386.72 292.56 L 386.86 292.54 L 387.08 292.52 L 387.23 292.52 L 387.40 292.45 L 387.51 292.45 L 387.56 292.45 L 387.61 292.45 L 387.74 292.17 L 387.76 292.17 L 387.80 292.17 L 387.92 292.17 L 387.99 292.17 L 388.09 292.24 L 388.21 292.24 L 388.47 292.22 L 388.59 292.22 L 388.69 292.22 L 389.33 291.32 L 389.89 291.08 L 390.56 290.44 L 390.73 290.44 L 390.91 290.44 L 391.12 290.44 L 395.00 290.36 L 395.32 290.36 L 432.04 290.24 L 547.69 290.07 L 548.07 290.02 L 548.34 290.02 L 548.60 290.02 L 549.00 289.60 L 549.14 289.60 L 549.24 289.60 L 549.43 288.09 L 549.70 288.38 L 549.91 288.36 L 549.96 288.36 L 550.14 288.35 L 550.18 288.35 L 550.37 288.34 L 550.54 288.27 L 551.06 287.32 L 551.08 287.32 L 551.23 287.23 L 551.73 284.15 L 551.74 284.15 L 551.84 284.14 L 551.96 284.10 L 552.50 282.66 L 552.51 282.66 L 552.63 282.66 L 552.75 282.62 L 552.95 282.10 L 552.96 282.10 L 553.05 282.09 L 553.07 282.09 L 553.12 281.80 L 553.34 279.76 L 553.37 279.76 L 553.45 279.76 L 553.70 279.59 L 553.75 279.59 L 553.94 279.25 L 554.26 279.25 L 554.31 279.25 L 554.35 279.25 L 554.41 279.25 L 554.57 279.24 L 554.74 278.32 L 554.76 278.32 L 554.86 278.32 L 554.96 277.62 L 554.98 277.62 L 555.08 276.88 L 555.13 276.83 L 555.33 276.10 L 555.36 276.10 L 555.46 276.10 L 555.60 276.09 L 556.43 276.09 L 556.84 276.08 L 565.87 276.08 L 565.96 276.08 L 566.05 276.08 L 566.21 276.08 L 566.55 275.89 L 566.57 275.89 L 566.64 275.83 L 566.85 274.81 L 566.88 274.81 L 568.85 274.83 L 568.97 274.63 L 569.96 274.63 L 570.07 274.62 L 570.19 274.55 L 571.38 273.71 L 571.90 273.55 L 572.02 273.49 L 572.45 271.90 L 572.72 271.90 L 573.16 271.77 L 573.96 271.77 L 586.05 271.76 L 586.77 271.66 L 586.81 271.69 L 587.82 271.69 L 587.87 271.69 L 588.22 271.69 L 588.63 271.65 L 588.64 271.65 L 588.68 271.65 L 589.22 270.72 L 590.46 270.70 L 590.54 270.69 L 590.67 270.69 L 590.86 270.66 L 590.91 270.63 L 590.98 270.63 L 591.56 270.58 L 592.03 270.58 L 592.27 270.58 L 592.31 270.58 L 592.83 270.56 L 593.22 270.45 L 593.24 270.45 L 593.29 270.45 L 593.34 270.45 L 606.46 270.23 L 606.49 270.23 L 606.53 270.23 L 606.78 270.23 L 606.98 270.23 L 608.14 269.31 L 608.42 269.26 L 609.26 269.19 L 609.97 269.14 L 610.50 269.14 L 610.65 269.14 L 611.32 267.75 L 611.56 267.71 L 611.65 267.66 L 613.59 266.68 L 613.61 266.68 L 613.72 266.67 L 614.09 266.66 L 614.09 266.66 L 614.11 266.66 L 614.18 266.63 L 614.35 266.59 L 614.55 266.48 L 616.57 264.87 L 616.83 264.79 L 617.01 264.79 L 617.04 264.79 L 617.08 264.79 L 626.02 264.79 L 626.30 264.78 L 626.47 264.78 L 626.54 264.78 L 627.38 264.78 L 627.56 264.78 L 627.71 264.78 L 627.81 264.74 L 628.09 262.63 L 628.13 262.62 L 628.51 262.63 L 628.60 262.61 L 628.92 261.79 L 628.99 261.75 L 629.25 261.21 L 629.45 261.21 L 629.60 261.16 L 629.93 260.67 L 629.97 260.67 L 630.40 259.10 L 630.44 259.10 L 630.51 259.09 L 630.60 259.09 L 630.64 259.09 L 631.14 257.52 L 631.87 257.38 L 632.22 257.38 L 633.41 257.33 L 633.43 257.33 L 633.62 257.33 L 633.70 257.33 L 633.83 257.33 L 633.98 257.33 L 634.14 257.31 L 634.49 257.29 L 634.83 257.29 L 635.89 257.22 L 635.94 257.22 L 636.99 257.18 L 637.45 257.14 L 646.49 257.16 L 646.94 257.08 L 647.17 257.00 L 647.27 257.00 L 647.30 257.00 L 647.52 256.99 L 647.63 256.99 L 647.90 256.99 L 648.06 256.98 L 648.65 256.84 L 648.95 256.55 L 649.46 256.53 L 649.60 256.34 L 649.78 256.26 L 650.00 256.17"/>
	</g>
	<g id="poloto_plot2" class="poloto_plot poloto_imgs poloto_line poloto2 poloto_stroke" fill="none" stroke="black">
		<path d=" M 150.00 391.78 L 150.03 391.78 L 150.04 391.78 L 150.06 391.78 L 150.08 391.78 L 150.11 389.67 L 150.24 389.38 L 150.52 389.38 L 150.94 389.36 L 151.15 388.11 L 151.58 387.99 L 151.65 387.96 L 151.71 387.93 L 152.21 387.36 L 153.14 386.92 L 153.44 386.84 L 153.51 386.84 L 154.08 386.81 L 154.73 386.81 L 154.73 386.81 L 154.74 386.81 L 163.51 386.81 L 163.57 386.80 L 163.69 386.79 L 163.74 386.79 L 164.07 386.66 L 164.22 386.62 L 164.59 386.42 L 164.65 386.33 L 164.75 386.14 L 164.86 386.12 L 164.90 386.11 L 164.99 386.08 L 165.08 386.08 L 165.18 386.08 L 165.42 385.87 L 165.64 385.68 L 165.68 385.68 L 165.78 385.56 L 166.48 385.31 L 166.49 385.31 L 166.58 385.23 L 166.98 384.95 L 167.30 384.61 L 167.66 384.47 L 167.74 384.47 L 167.75 384.47 L 167.81 384.28 L 167.95 384.28 L 168.13 384.26 L 168.47 384.11 L 168.49 383.87 L 168.55 383.87 L 168.64 383.75 L 168.84 383.75 L 168.86 383.75 L 169.06 383.38 L 169.14 383.35 L 169.22 383.32 L 169.30 383.15 L 170.37 383.05 L 170.62 383.01 L 171.22 382.76 L 171.35 382.76 L 171.44 382.74 L 171.49 382.55 L 171.90 381.52 L 172.08 381.51 L 172.29 381.20 L 172.40 381.17 L 172.64 381.03 L 172.75 380.98 L 172.90 380.76 L 173.03 380.58 L 173.51 380.58 L 173.52 380.56 L 173.54 380.41 L 173.70 379.42 L 181.84 379.31 L 182.69 379.01 L 182.72 378.97 L 183.71 378.73 L 183.80 378.72 L 183.89 378.54 L 184.13 378.42 L 184.24 378.19 L 184.28 378.00 L 184.41 377.63 L 184.70 377.62 L 184.71 377.62 L 184.82 377.36 L 184.93 377.36 L 185.06 377.09 L 185.22 376.88 L 185.28 376.76 L 185.30 376.76 L 185.44 376.51 L 185.46 376.50 L 185.62 376.28 L 185.64 376.27 L 185.88 376.19 L 185.91 376.19 L 186.00 376.10 L 186.09 376.09 L 186.23 376.09 L 186.29 376.07 L 186.74 375.85 L 186.75 375.86 L 186.84 375.41 L 187.05 375.39 L 187.23 375.25 L 187.28 375.25 L 187.37 375.25 L 187.41 375.21 L 187.52 374.60 L 188.03 374.08 L 188.08 373.80 L 188.26 373.78 L 188.31 373.70 L 188.35 373.69 L 188.43 373.56 L 188.51 373.07 L 188.69 373.00 L 188.82 372.99 L 188.92 372.74 L 188.98 372.74 L 189.44 372.55 L 189.69 372.42 L 189.77 372.31 L 189.98 372.30 L 190.00 372.30 L 190.02 372.28 L 190.15 371.40 L 190.26 371.39 L 190.64 371.27 L 190.70 370.92 L 190.77 370.91 L 190.87 370.77 L 190.88 370.68 L 190.93 370.62 L 190.96 370.59 L 191.02 370.59 L 191.07 370.52 L 191.22 369.53 L 191.33 369.43 L 191.43 369.13 L 191.58 369.11 L 191.74 369.01 L 191.91 368.71 L 192.02 367.85 L 192.26 367.78 L 192.26 367.41 L 192.40 367.33 L 203.77 367.33 L 203.99 367.33 L 204.52 366.92 L 204.63 366.92 L 204.72 366.92 L 204.74 366.82 L 204.93 366.64 L 205.07 366.61 L 205.15 366.51 L 205.23 366.43 L 205.27 366.40 L 205.48 366.34 L 205.89 366.42 L 205.99 366.15 L 206.07 366.08 L 206.16 366.07 L 206.69 366.02 L 206.77 365.97 L 206.80 365.97 L 206.83 365.92 L 206.95 365.87 L 207.04 365.77 L 207.42 365.52 L 207.97 365.41 L 208.17 365.36 L 208.78 365.20 L 209.07 364.80 L 209.17 364.73 L 209.29 364.42 L 209.47 364.01 L 209.74 363.91 L 210.13 363.90 L 210.65 363.88 L 210.72 363.73 L 211.10 363.63 L 211.34 363.51 L 211.42 363.40 L 211.57 363.37 L 211.68 363.10 L 213.02 362.97 L 214.30 362.97 L 225.74 362.93 L 225.82 362.79 L 225.88 362.69 L 226.24 362.54 L 227.31 362.27 L 227.36 362.24 L 227.51 362.05 L 228.03 361.97 L 228.28 361.45 L 228.66 361.44 L 228.75 361.42 L 228.83 360.91 L 229.49 360.43 L 229.57 360.43 L 229.71 360.40 L 229.86 360.35 L 229.93 360.18 L 230.30 359.38 L 230.43 359.18 L 230.49 359.16 L 230.57 359.08 L 230.74 358.77 L 230.81 357.97 L 230.97 357.64 L 231.47 357.45 L 231.52 357.05 L 231.57 357.05 L 231.64 356.98 L 231.76 356.87 L 231.81 356.84 L 231.86 356.80 L 232.10 355.88 L 232.15 355.33 L 232.44 355.22 L 232.62 354.30 L 232.73 354.12 L 233.61 352.66 L 233.72 352.64 L 267.33 352.21 L 267.37 352.21 L 280.21 352.09 L 280.91 351.94 L 281.06 351.94 L 281.25 351.86 L 281.31 351.74 L 281.39 351.71 L 286.96 351.70 L 287.69 350.03 L 287.96 349.88 L 288.11 349.30 L 291.58 349.23 L 291.60 349.18 L 291.82 349.17 L 292.86 349.06 L 292.92 348.87 L 293.05 348.80 L 293.41 348.72 L 293.46 348.69 L 293.60 348.37 L 293.76 348.27 L 293.79 348.02 L 304.58 347.71 L 304.67 346.95 L 305.09 346.75 L 305.10 346.46 L 305.18 346.23 L 305.27 345.88 L 305.39 344.96 L 305.57 344.45 L 305.72 343.80 L 305.86 343.79 L 305.92 343.29 L 306.14 343.26 L 306.88 342.78 L 307.19 342.56 L 307.24 342.42 L 307.30 342.42 L 307.34 342.25 L 307.44 341.68 L 307.75 341.62 L 307.79 341.62 L 307.98 341.25 L 308.05 341.25 L 308.08 341.04 L 308.15 340.90 L 308.19 340.90 L 308.23 340.60 L 308.47 340.42 L 308.57 340.13 L 308.70 340.11 L 308.80 339.96 L 308.83 339.73 L 309.07 339.61 L 309.14 339.48 L 309.18 339.48 L 309.24 339.47 L 309.28 339.24 L 309.31 339.25 L 309.33 339.25 L 309.45 339.17 L 309.49 338.91 L 309.60 338.91 L 309.69 338.85 L 309.93 338.83 L 310.23 338.80 L 310.24 338.80 L 310.32 338.78 L 310.60 338.78 L 310.73 338.78 L 310.86 338.78 L 311.00 338.74 L 311.09 338.43 L 311.47 338.43 L 311.51 338.25 L 311.55 338.25 L 311.59 338.04 L 311.84 337.97 L 311.88 337.92 L 312.06 337.92 L 328.67 337.87 L 329.62 337.78 L 329.65 337.78 L 329.84 337.78 L 329.85 337.78 L 329.97 337.42 L 330.07 337.41 L 330.15 337.31 L 330.26 337.25 L 330.30 337.22 L 330.34 337.20 L 330.52 337.17 L 330.88 337.10 L 331.10 336.61 L 331.36 336.59 L 331.37 336.56 L 331.41 336.15 L 331.44 336.15 L 331.94 336.15 L 331.95 336.11 L 332.03 335.73 L 332.24 335.68 L 332.37 335.67 L 332.40 335.66 L 332.41 335.62 L 332.47 335.59 L 332.51 335.21 L 332.53 335.20 L 332.65 335.20 L 332.66 335.17 L 332.92 335.13 L 333.63 335.12 L 333.80 335.09 L 333.85 335.07 L 333.89 334.95 L 333.93 334.95 L 334.03 334.52 L 345.38 334.39 L 345.40 334.26 L 345.50 334.18 L 345.53 334.16 L 345.59 333.80 L 345.71 333.71 L 345.73 333.68 L 345.94 333.68 L 345.99 333.68 L 346.02 333.31 L 346.21 333.27 L 346.70 333.26 L 346.71 333.24 L 346.83 333.04 L 346.88 333.04 L 346.91 332.70 L 347.32 332.70 L 347.33 332.68 L 347.95 332.60 L 348.03 332.20 L 348.25 332.20 L 348.50 332.20 L 348.57 331.90 L 348.61 331.67 L 348.73 331.66 L 349.05 331.61 L 349.11 331.59 L 349.25 331.50 L 349.40 331.50 L 349.88 331.50 L 349.94 331.50 L 350.05 331.48 L 350.06 331.47 L 350.21 331.47 L 350.57 331.45 L 350.94 331.41 L 351.00 331.41 L 351.08 331.36 L 351.19 331.26 L 351.47 331.26 L 351.95 331.12 L 352.11 330.90 L 352.37 330.87 L 353.41 330.62 L 353.64 330.62 L 353.81 330.62 L 354.07 330.61 L 354.15 330.60 L 354.41 330.47 L 354.82 330.45 L 354.88 330.34 L 354.95 330.29 L 355.00 330.30 L 355.04 330.26 L 355.37 330.24 L 362.89 330.24 L 362.96 330.24 L 363.43 330.24 L 363.48 330.22 L 363.58 329.89 L 363.67 329.87 L 363.68 329.87 L 363.94 329.86 L 364.00 329.85 L 365.54 329.35 L 365.72 329.30 L 365.86 329.28 L 365.89 329.28 L 366.36 329.27 L 366.53 329.34 L 366.56 329.34 L 366.81 329.30 L 367.09 328.83 L 367.13 328.82 L 367.36 328.81 L 367.46 328.81 L 367.55 328.81 L 367.74 328.71 L 368.16 328.28 L 368.24 328.28 L 368.32 328.22 L 368.49 327.83 L 368.90 327.40 L 369.27 327.43 L 369.35 327.20 L 369.72 327.20 L 369.79 327.17 L 369.85 327.14 L 369.89 326.92 L 370.02 326.91 L 370.05 326.91 L 370.11 326.91 L 370.32 326.91 L 370.65 326.73 L 370.85 326.71 L 371.09 326.71 L 371.19 326.71 L 371.42 326.71 L 371.80 326.71 L 372.18 326.71 L 372.47 326.71 L 372.54 326.70 L 372.61 326.70 L 372.61 326.62 L 372.84 326.56 L 372.90 326.56 L 372.99 326.55 L 373.61 326.54 L 373.62 326.32 L 373.79 326.32 L 374.51 326.33 L 374.99 326.32 L 375.33 326.27 L 375.34 326.18 L 375.37 326.18 L 385.91 326.04 L 385.95 326.03 L 386.07 326.02 L 386.13 325.88 L 386.17 325.88 L 386.17 325.87 L 386.62 325.83 L 386.72 325.38 L 386.86 325.28 L 387.08 324.39 L 387.23 324.38 L 387.40 324.00 L 387.51 324.04 L 387.56 324.04 L 387.61 323.55 L 387.74 323.47 L 387.76 323.13 L 387.80 323.08 L 387.92 323.05 L 387.99 322.88 L 388.09 324.88 L 388.21 324.85 L 388.47 324.05 L 388.59 323.87 L 388.69 323.69 L 389.33 323.38 L 389.89 323.04 L 390.56 322.57 L 390.73 322.52 L 390.91 322.52 L 391.12 322.47 L 395.00 322.24 L 395.32 322.21 L 432.04 321.59 L 547.69 321.57 L 548.07 321.29 L 548.34 321.24 L 548.60 321.24 L 549.00 320.99 L 549.14 320.69 L 549.24 320.14 L 549.43 320.00 L 549.70 320.05 L 549.91 319.73 L 549.96 319.72 L 550.14 319.62 L 550.18 319.62 L 550.37 319.09 L 550.54 318.27 L 551.06 318.19 L 551.08 318.10 L 551.23 317.04 L 551.73 317.01 L 551.74 316.90 L 551.84 316.84 L 551.96 315.88 L 552.50 315.83 L 552.51 315.70 L 552.63 315.63 L 552.75 315.00 L 552.95 314.98 L 552.96 314.88 L 553.05 313.83 L 553.07 313.80 L 553.12 313.77 L 553.34 313.77 L 553.37 313.66 L 553.45 313.59 L 553.70 313.49 L 553.75 313.48 L 553.94 313.43 L 554.26 313.47 L 554.31 313.42 L 554.35 313.40 L 554.41 313.36 L 554.57 312.28 L 554.74 312.25 L 554.76 312.16 L 554.86 311.05 L 554.96 310.65 L 554.98 310.50 L 555.08 309.96 L 555.13 309.01 L 555.33 309.00 L 555.36 308.95 L 555.46 308.76 L 555.60 308.75 L 556.43 308.72 L 556.84 308.70 L 565.87 308.74 L 565.96 308.53 L 566.05 308.37 L 566.21 307.62 L 566.55 307.61 L 566.57 307.53 L 566.64 306.58 L 566.85 306.57 L 566.88 306.48 L 568.85 306.39 L 568.97 306.04 L 569.96 305.88 L 570.07 305.84 L 570.19 304.79 L 571.38 304.48 L 571.90 304.23 L 572.02 303.44 L 572.45 303.44 L 572.72 303.00 L 573.16 302.31 L 573.96 301.90 L 586.05 301.90 L 586.77 301.89 L 586.81 301.89 L 587.82 301.74 L 587.87 301.65 L 588.22 301.59 L 588.63 300.70 L 588.64 300.70 L 588.68 300.66 L 589.22 300.48 L 590.46 299.89 L 590.54 299.83 L 590.67 299.82 L 590.86 299.57 L 590.91 299.54 L 590.98 299.49 L 591.56 299.49 L 592.03 299.49 L 592.27 299.49 L 592.31 299.45 L 592.83 298.55 L 593.22 298.47 L 593.24 298.40 L 593.29 298.31 L 593.34 298.09 L 606.46 297.92 L 606.49 297.90 L 606.53 297.88 L 606.78 297.77 L 606.98 297.66 L 608.14 297.16 L 608.42 297.05 L 609.26 296.67 L 609.97 296.61 L 610.50 296.45 L 610.65 295.13 L 611.32 294.90 L 611.56 294.84 L 611.65 293.88 L 613.59 292.96 L 613.61 292.96 L 613.72 292.54 L 614.09 292.50 L 614.09 292.50 L 614.11 292.39 L 614.18 292.27 L 614.35 292.18 L 614.55 291.53 L 616.57 291.19 L 616.83 291.04 L 617.01 290.68 L 617.04 290.64 L 617.08 290.41 L 626.02 289.58 L 626.30 288.97 L 626.47 288.95 L 626.54 288.55 L 627.38 288.38 L 627.56 287.95 L 627.71 287.95 L 627.81 287.06 L 628.09 286.85 L 628.13 286.83 L 628.51 286.77 L 628.60 286.04 L 628.92 285.95 L 628.99 285.38 L 629.25 285.32 L 629.45 284.99 L 629.60 284.34 L 629.93 284.22 L 629.97 283.56 L 630.40 285.04 L 630.44 285.04 L 630.51 284.20 L 630.60 284.20 L 630.64 284.13 L 631.14 284.05 L 631.87 283.70 L 632.22 283.88 L 633.41 283.86 L 633.43 283.85 L 633.62 283.84 L 633.70 283.82 L 633.83 283.70 L 633.98 283.60 L 634.14 283.45 L 634.49 283.23 L 634.83 283.22 L 635.89 283.12 L 635.94 283.11 L 636.99 283.00 L 637.45 282.94 L 646.49 282.90 L 646.94 282.86 L 647.17 282.86 L 647.27 282.86 L 647.30 282.85 L 647.52 282.84 L 647.63 282.80 L 647.90 282.65 L 648.06 282.63 L 648.65 282.62 L 648.95 282.54 L 649.46 282.50 L 649.60 282.47 L 649.78 282.40 L 650.00 282.30"/>
	</g>
	<g class="poloto_legend poloto_imgs poloto_line poloto0 poloto_stroke"><line x1="680" x2="730" y1="81.25" y2="81.25"/></g>
	<g class="poloto_legend poloto_imgs poloto_line poloto1 poloto_stroke"><line x1="680" x2="730" y1="131.25" y2="131.25"/></g>
	<g class="poloto_legend poloto_imgs poloto_line poloto2 poloto_stroke"><line x1="680" x2="730" y1="181.25" y2="181.25"/></g>
	<text class="poloto_legend poloto_text poloto_line poloto0" x="675" y="100">total</text>
	<text class="poloto_legend poloto_text poloto_line poloto1" x="675" y="150">code</text>
	<text class="poloto_legend poloto_text poloto_line poloto2" x="675" y="200">docs</text>
	<text class="poloto_text poloto_name poloto_title" x="400.00" y="37.50">Workspace lines over time</text>
	<text class="poloto_text poloto_name poloto_x" x="400.00" y="640">date (JST)</text>
	<text class="poloto_text poloto_name poloto_y" x="37.50" y="250.00" transform="rotate(-90,37.50,250.00)">lines</text>
	<text class="poloto_text poloto_ticks poloto_y">
		<tspan x="135.00" y="400.00">0</tspan>
		<tspan x="135.00" y="321.86">50K</tspan>
		<tspan x="135.00" y="243.72">100K</tspan>
		<tspan x="135.00" y="165.58">150K</tspan>
	</text>
	<g class="poloto_imgs poloto_ticks poloto_y" stroke="black">
		<line x1="150.00" x2="144.00" y1="400.00" y2="400.00"/>
		<line x1="150.00" x2="144.00" y1="321.86" y2="321.86"/>
		<line x1="150.00" x2="144.00" y1="243.72" y2="243.72"/>
		<line x1="150.00" x2="144.00" y1="165.58" y2="165.58"/>
	</g>
	<g class="poloto_text poloto_ticks poloto_x">
		<text x="225.60" y="430.00" text-anchor="end" transform="rotate(-90 225.60 430.00)">2026-04-24 12:06</text>
		<text x="341.97" y="430.00" text-anchor="end" transform="rotate(-90 341.97 430.00)">2026-04-30 07:00</text>
		<text x="458.33" y="430.00" text-anchor="end" transform="rotate(-90 458.33 430.00)">2026-05-06 01:53</text>
		<text x="574.70" y="430.00" text-anchor="end" transform="rotate(-90 574.70 430.00)">2026-05-11 20:46</text>
	</g>
	<g class="poloto_imgs poloto_ticks poloto_x" stroke="black">
		<line x1="225.60" x2="225.60" y1="400.00" y2="405.00"/>
		<line x1="341.97" x2="341.97" y1="400.00" y2="405.00"/>
		<line x1="458.33" x2="458.33" y1="400.00" y2="405.00"/>
		<line x1="574.70" x2="574.70" y1="400.00" y2="405.00"/>
	</g>
	<path class="poloto_imgs poloto_ticks poloto_x" stroke="black" style="stroke-dasharray:11.636826739752145;stroke-dashoffset:-75.59817944170209;" d=" M 150.00 400.00 L 650.00 400.00"/>
	<path class="poloto_imgs poloto_ticks poloto_y" stroke="black" style="stroke-dasharray:7.813883708573394;stroke-dashoffset:-0;" d=" M 150.00 400.00 L 150.00 100.00"/>
</svg>

