<svg class="poloto" width="800" height="680" viewBox="0 0 800 680" xmlns="http://www.w3.org/2000/svg">
	<style>
.poloto{
  stroke-linecap:round;
  stroke-linejoin:round;
  font-family:Roboto,sans-serif;
  font-size:16px;
}
.poloto_background{fill:AliceBlue;}
.poloto_scatter{stroke-width:7}
.poloto_line{stroke-width:2}
.poloto_text{fill: black;}
.poloto_name{font-size:24px;dominant-baseline:auto;text-anchor:middle;}
.poloto_where{dominant-baseline:middle;text-anchor:start}
.poloto_text.poloto_legend{font-size:20px;dominant-baseline:middle;text-anchor:start;}
.poloto_text.poloto_ticks.poloto_y{dominant-baseline:middle;text-anchor:end}
.poloto_text.poloto_ticks.poloto_x{dominant-baseline:auto;text-anchor:middle}
.poloto_imgs.poloto_ticks{stroke: black;stroke-width:3;fill:none;stroke-dasharray:none}
.poloto_grid{stroke:gray;stroke-width:0.5}

.poloto0.poloto_stroke{stroke:blue;}
.poloto1.poloto_stroke{stroke:red;}
.poloto2.poloto_stroke{stroke:green;}
.poloto3.poloto_stroke{stroke:gold;}
.poloto4.poloto_stroke{stroke:aqua;}
.poloto5.poloto_stroke{stroke:lime;}
.poloto6.poloto_stroke{stroke:orange;}
.poloto7.poloto_stroke{stroke:chocolate;}
.poloto0.poloto_fill{fill:blue;}
.poloto1.poloto_fill{fill:red;}
.poloto2.poloto_fill{fill:green;}
.poloto3.poloto_fill{fill:gold;}
.poloto4.poloto_fill{fill:aqua;}
.poloto5.poloto_fill{fill:lime;}
.poloto6.poloto_fill{fill:orange;}
.poloto7.poloto_fill{fill:chocolate;}
	</style>
	<circle r="1e5" class="poloto_background" fill="white"/>
	<g id="poloto_plot0" class="poloto_plot poloto_imgs poloto_line poloto0 poloto_stroke" fill="none" stroke="black">
		<path d=" M 150.00 361.22 L 150.04 361.19 L 150.06 361.17 L 150.07 361.17 L 150.10 361.17 L 150.14 356.96 L 150.29 356.45 L 150.64 356.43 L 151.16 356.08 L 151.42 353.94 L 151.95 353.81 L 152.04 353.70 L 152.11 353.65 L 152.73 352.61 L 153.88 351.76 L 154.25 348.45 L 154.34 348.46 L 155.04 348.33 L 155.84 348.31 L 155.85 348.31 L 155.86 348.31 L 166.71 348.31 L 166.78 348.31 L 166.92 348.28 L 166.98 348.24 L 167.40 348.05 L 167.58 348.00 L 168.04 347.70 L 168.11 347.56 L 168.24 347.26 L 168.38 347.22 L 168.42 347.21 L 168.53 347.14 L 168.65 347.14 L 168.77 347.14 L 169.07 346.65 L 169.34 346.35 L 169.39 346.35 L 169.51 346.17 L 170.38 346.92 L 170.39 346.92 L 170.50 346.80 L 170.99 346.23 L 171.39 345.56 L 171.84 345.26 L 171.93 345.21 L 171.94 345.21 L 172.03 344.95 L 172.19 344.95 L 172.41 344.85 L 172.84 344.60 L 172.86 344.21 L 172.94 344.21 L 173.04 344.00 L 173.29 344.00 L 173.31 344.00 L 173.57 343.44 L 173.67 343.41 L 173.76 343.36 L 173.86 343.13 L 175.18 342.83 L 175.50 342.77 L 176.23 342.37 L 176.39 342.37 L 176.51 342.35 L 176.57 342.06 L 177.08 340.39 L 177.30 340.36 L 177.56 339.80 L 177.69 339.75 L 178.00 339.28 L 178.13 339.12 L 178.31 338.82 L 178.48 338.56 L 179.06 334.71 L 179.08 334.61 L 179.11 334.38 L 179.31 332.53 L 189.37 332.40 L 190.41 330.29 L 190.45 330.24 L 191.68 329.91 L 191.78 329.90 L 191.90 329.48 L 192.20 329.27 L 192.34 328.91 L 192.39 328.60 L 192.54 328.04 L 192.90 328.03 L 192.91 327.66 L 193.05 327.25 L 193.19 327.24 L 193.34 326.78 L 193.54 326.45 L 193.62 326.28 L 193.64 326.27 L 193.82 325.91 L 193.84 325.90 L 194.04 325.54 L 194.07 325.53 L 194.36 323.79 L 194.40 323.79 L 194.50 323.50 L 194.63 323.49 L 194.79 323.49 L 194.86 323.45 L 195.43 323.12 L 195.44 323.13 L 195.55 322.36 L 195.80 322.35 L 196.03 321.19 L 196.10 321.08 L 196.20 321.08 L 196.26 321.03 L 196.38 320.13 L 197.02 312.58 L 197.08 312.21 L 197.30 312.18 L 197.36 312.09 L 197.41 312.07 L 197.52 311.87 L 197.62 311.01 L 197.84 310.83 L 198.00 310.81 L 198.12 310.44 L 198.19 310.43 L 198.76 310.15 L 199.07 309.93 L 199.16 309.59 L 199.43 309.58 L 199.45 309.58 L 199.48 309.55 L 199.64 307.73 L 199.78 307.62 L 200.25 305.79 L 200.32 305.26 L 200.41 305.25 L 200.53 305.05 L 200.55 304.91 L 200.60 304.82 L 200.65 304.77 L 200.71 304.77 L 200.77 304.67 L 200.96 303.18 L 201.10 302.96 L 201.23 302.52 L 201.41 302.48 L 201.61 302.34 L 201.81 301.29 L 201.96 299.82 L 202.25 299.73 L 202.26 299.18 L 202.43 299.00 L 216.48 299.01 L 216.75 298.99 L 217.41 298.21 L 217.55 298.19 L 217.66 298.19 L 217.68 298.00 L 217.92 297.76 L 218.09 297.72 L 218.18 297.57 L 218.28 297.47 L 218.34 297.42 L 218.59 297.35 L 219.10 297.26 L 219.22 296.86 L 219.32 296.75 L 219.44 296.74 L 220.09 296.54 L 220.18 296.42 L 220.23 296.42 L 220.27 296.28 L 220.41 296.21 L 220.52 296.06 L 220.99 295.07 L 221.67 294.92 L 221.92 294.86 L 222.67 294.61 L 223.03 289.86 L 223.15 289.76 L 223.31 289.29 L 223.53 288.67 L 223.87 288.50 L 224.34 288.48 L 224.98 288.46 L 225.08 288.25 L 225.54 288.03 L 225.84 287.69 L 225.94 287.55 L 226.12 287.50 L 226.26 287.07 L 227.92 286.61 L 229.50 286.61 L 243.65 286.57 L 243.75 286.36 L 243.82 286.23 L 244.26 286.02 L 245.58 284.39 L 245.64 284.28 L 245.83 283.86 L 246.48 283.75 L 246.78 282.64 L 247.25 282.63 L 247.36 282.61 L 247.46 281.86 L 248.28 277.54 L 248.38 277.53 L 248.55 277.50 L 248.74 277.44 L 248.82 276.97 L 249.28 275.34 L 249.44 275.04 L 249.52 275.02 L 249.62 274.27 L 249.83 273.21 L 249.91 272.08 L 250.11 271.58 L 250.73 265.97 L 250.79 265.40 L 250.85 265.40 L 250.94 265.30 L 251.09 265.15 L 251.15 265.10 L 251.21 265.04 L 251.50 263.69 L 251.57 262.75 L 251.93 262.56 L 252.15 261.14 L 252.28 260.25 L 253.38 247.16 L 253.50 247.13 L 295.07 246.50 L 295.11 246.50 L 310.99 246.32 L 311.86 245.97 L 312.04 245.97 L 312.27 245.87 L 312.35 245.70 L 312.44 245.65 L 319.33 245.56 L 320.24 243.07 L 320.58 242.85 L 320.76 241.93 L 325.05 241.75 L 325.07 241.50 L 325.34 241.47 L 326.62 239.90 L 326.70 239.62 L 326.86 239.52 L 327.31 239.41 L 327.37 239.37 L 327.55 238.90 L 327.74 238.77 L 327.77 238.42 L 341.12 237.94 L 341.22 236.60 L 341.75 236.30 L 341.76 234.06 L 341.86 233.72 L 341.97 233.17 L 342.12 231.62 L 342.34 230.80 L 342.53 229.84 L 342.71 229.83 L 342.77 229.10 L 343.04 229.03 L 343.97 225.42 L 344.34 225.03 L 344.40 224.81 L 344.48 224.80 L 344.53 224.55 L 344.66 223.66 L 345.03 223.23 L 345.09 223.18 L 345.32 220.00 L 345.41 219.99 L 345.44 219.64 L 345.53 219.39 L 345.59 219.38 L 345.64 218.90 L 345.93 217.18 L 346.06 216.69 L 346.22 216.63 L 346.33 212.03 L 346.38 211.66 L 346.67 209.03 L 346.75 208.82 L 346.81 208.82 L 346.88 208.81 L 346.93 208.44 L 346.97 208.45 L 346.99 208.45 L 347.14 203.80 L 347.19 203.40 L 347.33 203.37 L 347.43 203.29 L 347.73 203.16 L 348.10 202.98 L 348.12 202.98 L 348.22 202.93 L 348.56 202.84 L 348.72 202.84 L 348.88 202.84 L 349.06 200.82 L 349.17 200.33 L 349.64 200.32 L 349.68 200.00 L 349.74 200.00 L 349.78 199.65 L 350.09 196.72 L 350.14 196.65 L 350.37 196.63 L 370.91 196.55 L 372.08 196.40 L 372.12 196.40 L 372.35 196.40 L 372.37 196.40 L 372.52 195.82 L 372.63 195.79 L 372.73 195.51 L 372.87 195.43 L 372.91 195.39 L 372.97 195.37 L 373.19 195.04 L 373.63 194.75 L 373.91 193.81 L 374.23 192.91 L 374.24 192.87 L 374.29 192.03 L 374.33 192.00 L 374.95 191.50 L 374.96 191.45 L 375.05 190.78 L 375.32 190.71 L 375.48 190.65 L 375.52 189.46 L 375.53 189.40 L 375.60 190.53 L 375.65 189.83 L 375.68 189.81 L 375.82 188.22 L 375.84 188.17 L 376.16 188.04 L 377.04 188.02 L 377.24 187.97 L 377.31 187.95 L 377.35 187.74 L 377.40 187.74 L 377.53 186.96 L 391.57 185.44 L 391.59 185.24 L 391.71 185.09 L 391.74 184.80 L 391.82 171.55 L 391.98 166.13 L 391.99 166.09 L 392.25 165.99 L 392.31 165.99 L 392.36 165.36 L 392.59 165.30 L 393.19 164.02 L 393.21 163.99 L 393.36 163.60 L 393.42 163.61 L 393.45 162.97 L 393.96 162.21 L 393.97 162.19 L 394.74 161.89 L 394.84 161.22 L 395.11 161.23 L 395.43 159.52 L 395.51 158.85 L 395.56 158.30 L 395.70 157.64 L 396.10 157.41 L 396.17 157.24 L 396.35 157.09 L 396.54 157.09 L 397.13 157.10 L 397.20 157.10 L 397.33 157.06 L 397.34 157.06 L 397.54 157.08 L 397.98 157.05 L 398.44 156.80 L 398.51 156.79 L 398.61 156.70 L 398.74 156.51 L 399.09 156.51 L 399.69 156.28 L 399.88 155.75 L 400.20 151.18 L 401.49 155.04 L 401.78 155.02 L 401.98 155.01 L 402.31 155.00 L 402.41 154.93 L 402.73 154.71 L 403.24 154.39 L 403.30 154.18 L 403.40 154.10 L 403.46 154.12 L 403.51 154.05 L 403.91 153.77 L 413.22 153.76 L 413.30 153.77 L 413.88 153.75 L 413.94 153.73 L 414.07 153.15 L 414.17 152.82 L 414.19 152.82 L 414.51 152.77 L 414.59 152.74 L 416.49 151.88 L 416.72 151.81 L 416.88 151.79 L 416.92 151.79 L 417.51 151.58 L 417.71 151.68 L 417.75 151.68 L 418.06 151.62 L 418.41 149.81 L 418.45 149.80 L 418.74 149.60 L 418.86 149.60 L 418.97 149.60 L 419.21 149.40 L 419.73 148.66 L 419.83 148.64 L 419.92 148.44 L 420.13 147.57 L 420.65 146.68 L 421.10 142.48 L 421.19 141.97 L 421.66 141.77 L 421.74 141.66 L 421.82 141.45 L 421.86 140.78 L 422.02 139.57 L 422.06 139.62 L 422.14 139.60 L 422.40 139.59 L 422.81 139.14 L 423.06 139.06 L 423.35 139.04 L 423.48 139.03 L 423.76 139.01 L 424.23 139.01 L 424.70 139.00 L 425.06 139.00 L 425.14 138.98 L 425.23 138.97 L 425.23 138.82 L 425.51 138.74 L 425.59 138.72 L 425.70 138.54 L 426.46 138.51 L 426.47 138.15 L 426.68 138.13 L 427.57 138.14 L 428.17 137.92 L 428.60 137.65 L 428.61 137.50 L 428.65 137.50 L 441.68 137.25 L 441.72 137.24 L 441.87 137.23 L 441.94 137.02 L 441.99 137.00 L 442.00 136.98 L 442.55 136.93 L 442.68 136.17 L 442.84 136.00 L 443.12 134.50 L 443.30 134.48 L 443.52 133.84 L 443.65 133.92 L 443.71 133.92 L 443.77 133.19 L 443.94 132.69 L 443.96 132.16 L 444.02 132.09 L 444.15 132.05 L 444.25 131.80 L 444.36 134.66 L 444.52 134.61 L 444.84 133.47 L 444.98 133.18 L 445.11 132.95 L 445.91 131.30 L 446.59 130.51 L 447.42 129.00 L 447.63 128.92 L 447.86 128.92 L 448.12 128.86 L 452.91 128.42 L 453.30 128.39 L 498.71 127.23 L 641.69 126.96 L 642.16 126.50 L 642.49 126.44 L 642.82 126.44 L 643.32 125.54 L 643.49 125.12 L 643.62 124.32 L 643.84 122.01 L 644.18 122.48 L 644.44 121.98 L 644.50 121.97 L 644.72 121.82 L 644.77 121.83 L 645.01 120.98 L 645.22 119.63 L 645.87 118.19 L 645.89 118.07 L 646.07 116.36 L 646.69 112.12 L 646.70 111.98 L 646.82 111.88 L 646.97 110.37 L 647.64 108.33 L 647.65 108.14 L 647.80 108.05 L 647.95 107.04 L 648.20 106.25 L 648.22 106.10 L 648.32 104.54 L 648.34 104.51 L 648.40 104.07 L 648.68 101.31 L 648.72 101.15 L 648.82 100.99 L 649.12 100.62 L 649.18 100.61 L 649.42 100.09 L 649.82 100.15 L 649.88 100.08 L 649.93 100.04 L 650.00 100.00"/>
	</g>
	<g id="poloto_plot1" class="poloto_plot poloto_imgs poloto_line poloto1 poloto_stroke" fill="none" stroke="black">
		<path d=" M 150.00 376.96 L 150.04 376.94 L 150.06 376.92 L 150.07 376.92 L 150.10 376.92 L 150.14 376.19 L 150.29 376.17 L 150.64 376.16 L 151.16 375.88 L 151.42 375.76 L 151.95 375.79 L 152.04 375.73 L 152.11 375.73 L 152.73 375.68 L 153.88 375.54 L 154.25 372.69 L 154.34 372.69 L 155.04 372.62 L 155.84 372.61 L 155.85 372.61 L 155.86 372.61 L 166.71 372.61 L 166.78 372.61 L 166.92 372.61 L 166.98 372.57 L 167.40 372.56 L 167.58 372.56 L 168.04 372.56 L 168.11 372.56 L 168.24 372.53 L 168.38 372.53 L 168.42 372.53 L 168.53 372.50 L 168.65 372.50 L 168.77 372.50 L 169.07 372.34 L 169.34 372.34 L 169.39 372.34 L 169.51 372.34 L 170.38 373.41 L 170.39 373.41 L 170.50 373.40 L 170.99 373.24 L 171.39 373.06 L 171.84 372.98 L 171.93 372.93 L 171.94 372.93 L 172.03 372.93 L 172.19 372.93 L 172.41 372.86 L 172.84 372.79 L 172.86 372.79 L 172.94 372.79 L 173.04 372.77 L 173.29 372.77 L 173.31 372.77 L 173.57 372.76 L 173.67 372.76 L 173.76 372.76 L 173.86 372.76 L 175.18 372.63 L 175.50 372.62 L 176.23 372.56 L 176.39 372.56 L 176.51 372.56 L 176.57 372.56 L 177.08 372.48 L 177.30 372.48 L 177.56 372.37 L 177.69 372.36 L 178.00 372.13 L 178.13 372.05 L 178.31 372.05 L 178.48 372.04 L 179.06 368.71 L 179.08 368.66 L 179.11 368.66 L 179.31 368.33 L 189.37 368.33 L 190.41 366.90 L 190.45 366.90 L 191.68 366.90 L 191.78 366.90 L 191.90 366.74 L 192.20 366.72 L 192.34 366.72 L 192.39 366.72 L 192.54 366.72 L 192.90 366.72 L 192.91 366.41 L 193.05 366.40 L 193.19 366.40 L 193.34 366.37 L 193.54 366.36 L 193.62 366.36 L 193.64 366.36 L 193.82 366.36 L 193.84 366.36 L 194.04 366.36 L 194.07 366.36 L 194.36 364.95 L 194.40 364.95 L 194.50 364.78 L 194.63 364.78 L 194.79 364.78 L 194.86 364.76 L 195.43 364.76 L 195.44 364.76 L 195.55 364.67 L 195.80 364.67 L 196.03 363.86 L 196.10 363.76 L 196.20 363.76 L 196.26 363.76 L 196.38 363.74 L 197.02 357.79 L 197.08 357.84 L 197.30 357.84 L 197.36 357.84 L 197.41 357.83 L 197.52 357.83 L 197.62 357.74 L 197.84 357.74 L 198.00 357.74 L 198.12 357.74 L 198.19 357.74 L 198.76 357.73 L 199.07 357.72 L 199.16 357.57 L 199.43 357.57 L 199.45 357.57 L 199.48 357.57 L 199.64 357.17 L 199.78 357.07 L 200.25 355.66 L 200.32 355.66 L 200.41 355.66 L 200.53 355.67 L 200.55 355.67 L 200.60 355.67 L 200.65 355.67 L 200.71 355.67 L 200.77 355.67 L 200.96 355.65 L 201.10 355.65 L 201.23 355.63 L 201.41 355.63 L 201.61 355.62 L 201.81 355.09 L 201.96 354.92 L 202.25 354.92 L 202.26 354.91 L 202.43 354.91 L 216.48 354.91 L 216.75 354.90 L 217.41 354.81 L 217.55 354.80 L 217.66 354.80 L 217.68 354.80 L 217.92 354.80 L 218.09 354.80 L 218.18 354.80 L 218.28 354.80 L 218.34 354.79 L 218.59 354.79 L 219.10 354.82 L 219.22 354.82 L 219.32 354.82 L 219.44 354.82 L 220.09 354.70 L 220.18 354.65 L 220.23 354.65 L 220.27 354.58 L 220.41 354.57 L 220.52 354.57 L 220.99 354.03 L 221.67 354.03 L 221.92 354.03 L 222.67 354.03 L 223.03 350.38 L 223.15 350.38 L 223.31 350.38 L 223.53 350.37 L 223.87 350.37 L 224.34 350.37 L 224.98 350.37 L 225.08 350.37 L 225.54 350.29 L 225.84 350.13 L 225.94 350.13 L 226.12 350.13 L 226.26 350.12 L 227.92 349.89 L 229.50 349.89 L 243.65 349.88 L 243.75 349.88 L 243.82 349.88 L 244.26 349.88 L 245.58 348.74 L 245.64 348.70 L 245.83 348.58 L 246.48 348.57 L 246.78 348.30 L 247.25 348.30 L 247.36 348.30 L 247.46 348.30 L 248.28 345.10 L 248.38 345.10 L 248.55 345.10 L 248.74 345.10 L 248.82 344.90 L 249.28 344.51 L 249.44 344.51 L 249.52 344.51 L 249.62 343.92 L 249.83 343.33 L 249.91 343.33 L 250.11 343.32 L 250.73 338.56 L 250.79 338.56 L 250.85 338.56 L 250.94 338.56 L 251.09 338.56 L 251.15 338.56 L 251.21 338.56 L 251.50 338.56 L 251.57 338.46 L 251.93 338.44 L 252.15 338.37 L 252.28 337.80 L 253.38 328.32 L 253.50 328.32 L 295.07 328.32 L 295.11 328.32 L 310.99 328.32 L 311.86 328.17 L 312.04 328.17 L 312.27 328.17 L 312.35 328.17 L 312.44 328.17 L 319.33 328.10 L 320.24 328.01 L 320.58 328.01 L 320.76 327.98 L 325.05 327.90 L 325.07 327.77 L 325.34 327.77 L 326.62 326.49 L 326.70 326.49 L 326.86 326.49 L 327.31 326.49 L 327.37 326.49 L 327.55 326.49 L 327.74 326.49 L 327.77 326.49 L 341.12 326.47 L 341.22 326.24 L 341.75 326.24 L 341.76 324.69 L 341.86 324.69 L 341.97 324.69 L 342.12 324.55 L 342.34 324.55 L 342.53 324.48 L 342.71 324.48 L 342.77 324.48 L 343.04 324.46 L 343.97 321.83 L 344.34 321.83 L 344.40 321.81 L 344.48 321.81 L 344.53 321.81 L 344.66 321.77 L 345.03 321.44 L 345.09 321.40 L 345.32 319.04 L 345.41 319.03 L 345.44 319.03 L 345.53 318.99 L 345.59 318.99 L 345.64 318.99 L 345.93 317.70 L 346.06 317.69 L 346.22 317.66 L 346.33 313.66 L 346.38 313.66 L 346.67 311.40 L 346.75 311.40 L 346.81 311.40 L 346.88 311.40 L 346.93 311.40 L 346.97 311.40 L 346.99 311.40 L 347.14 307.24 L 347.19 307.23 L 347.33 307.22 L 347.43 307.22 L 347.73 307.13 L 348.10 307.02 L 348.12 307.02 L 348.22 306.99 L 348.56 306.93 L 348.72 306.93 L 348.88 306.93 L 349.06 305.13 L 349.17 305.13 L 349.64 305.12 L 349.68 305.12 L 349.74 305.12 L 349.78 305.12 L 350.09 302.55 L 350.14 302.55 L 350.37 302.54 L 370.91 302.54 L 372.08 302.52 L 372.12 302.52 L 372.35 302.52 L 372.37 302.52 L 372.52 302.52 L 372.63 302.52 L 372.73 302.39 L 372.87 302.39 L 372.91 302.39 L 372.97 302.39 L 373.19 302.16 L 373.63 302.01 L 373.91 301.86 L 374.23 301.14 L 374.24 301.14 L 374.29 300.95 L 374.33 300.93 L 374.95 300.49 L 374.96 300.49 L 375.05 300.43 L 375.32 300.43 L 375.48 300.38 L 375.52 299.32 L 375.53 299.32 L 375.60 300.37 L 375.65 300.31 L 375.68 300.30 L 375.82 298.87 L 375.84 298.87 L 376.16 298.81 L 377.04 298.81 L 377.24 298.81 L 377.31 298.81 L 377.35 298.81 L 377.40 298.81 L 377.53 298.72 L 391.57 297.53 L 391.59 297.53 L 391.71 297.52 L 391.74 297.27 L 391.82 284.62 L 391.98 279.91 L 391.99 279.91 L 392.25 279.82 L 392.31 279.82 L 392.36 279.80 L 392.59 279.80 L 393.19 278.65 L 393.21 278.65 L 393.36 278.59 L 393.42 278.59 L 393.45 278.49 L 393.96 277.81 L 393.97 277.81 L 394.74 277.66 L 394.84 277.62 L 395.11 277.63 L 395.43 276.08 L 395.51 275.92 L 395.56 275.77 L 395.70 275.19 L 396.10 275.05 L 396.17 274.92 L 396.35 274.92 L 396.54 274.92 L 397.13 274.92 L 397.20 274.92 L 397.33 274.92 L 397.34 274.92 L 397.54 274.94 L 397.98 274.94 L 398.44 274.78 L 398.51 274.78 L 398.61 274.76 L 398.74 274.76 L 399.09 274.76 L 399.69 274.76 L 399.88 274.62 L 400.20 270.53 L 401.49 274.39 L 401.78 274.37 L 401.98 274.36 L 402.31 274.36 L 402.41 274.32 L 402.73 274.29 L 403.24 274.06 L 403.30 274.06 L 403.40 274.06 L 403.46 274.06 L 403.51 274.06 L 403.91 273.83 L 413.22 273.83 L 413.30 273.84 L 413.88 273.82 L 413.94 273.82 L 414.07 273.78 L 414.17 273.50 L 414.19 273.49 L 414.51 273.46 L 414.59 273.46 L 416.49 273.23 L 416.72 273.23 L 416.88 273.23 L 416.92 273.23 L 417.51 273.06 L 417.71 273.06 L 417.75 273.06 L 418.06 273.05 L 418.41 272.09 L 418.45 272.09 L 418.74 271.93 L 418.86 271.93 L 418.97 271.93 L 419.21 271.93 L 419.73 271.91 L 419.83 271.89 L 419.92 271.79 L 420.13 271.63 L 420.65 271.48 L 421.10 267.63 L 421.19 267.50 L 421.66 267.32 L 421.74 267.27 L 421.82 267.13 L 421.86 266.87 L 422.02 265.71 L 422.06 265.76 L 422.14 265.74 L 422.40 265.73 L 422.81 265.57 L 423.06 265.51 L 423.35 265.50 L 423.48 265.48 L 423.76 265.47 L 424.23 265.47 L 424.70 265.46 L 425.06 265.45 L 425.14 265.45 L 425.23 265.44 L 425.23 265.44 L 425.51 265.44 L 425.59 265.42 L 425.70 265.28 L 426.46 265.26 L 426.47 265.26 L 426.68 265.25 L 427.57 265.24 L 428.17 265.05 L 428.60 264.89 L 428.61 264.89 L 428.65 264.89 L 441.68 264.88 L 441.72 264.88 L 441.87 264.88 L 441.94 264.88 L 441.99 264.86 L 442.00 264.86 L 442.55 264.86 L 442.68 264.85 L 442.84 264.82 L 443.12 264.80 L 443.30 264.80 L 443.52 264.70 L 443.65 264.70 L 443.71 264.70 L 443.77 264.70 L 443.94 264.35 L 443.96 264.35 L 444.02 264.35 L 444.15 264.35 L 444.25 264.35 L 444.36 264.44 L 444.52 264.44 L 444.84 264.42 L 444.98 264.42 L 445.11 264.42 L 445.91 263.29 L 446.59 262.99 L 447.42 262.18 L 447.63 262.18 L 447.86 262.18 L 448.12 262.18 L 452.91 262.08 L 453.30 262.07 L 498.71 261.93 L 641.69 261.72 L 642.16 261.65 L 642.49 261.65 L 642.82 261.65 L 643.32 261.12 L 643.49 261.12 L 643.62 261.12 L 643.84 259.22 L 644.18 259.59 L 644.44 259.56 L 644.50 259.56 L 644.72 259.54 L 644.77 259.54 L 645.01 259.54 L 645.22 259.45 L 645.87 258.25 L 645.89 258.25 L 646.07 258.14 L 646.69 254.26 L 646.70 254.26 L 646.82 254.26 L 646.97 254.20 L 647.64 252.39 L 647.65 252.39 L 647.80 252.39 L 647.95 252.35 L 648.20 251.68 L 648.22 251.68 L 648.32 251.68 L 648.34 251.68 L 648.40 251.31 L 648.68 248.74 L 648.72 248.74 L 648.82 248.74 L 649.12 248.53 L 649.18 248.53 L 649.42 248.10 L 649.82 248.10 L 649.88 248.10 L 649.93 248.10 L 650.00 248.10"/>
	</g>
	<g id="poloto_plot2" class="poloto_plot poloto_imgs poloto_line poloto2 poloto_stroke" fill="none" stroke="black">
		<path d=" M 150.00 389.66 L 150.04 389.65 L 150.06 389.65 L 150.07 389.65 L 150.10 389.65 L 150.14 387.01 L 150.29 386.64 L 150.64 386.64 L 151.16 386.62 L 151.42 385.04 L 151.95 384.90 L 152.04 384.85 L 152.11 384.81 L 152.73 384.10 L 153.88 383.55 L 154.25 383.44 L 154.34 383.45 L 155.04 383.40 L 155.84 383.40 L 155.85 383.40 L 155.86 383.40 L 166.71 383.40 L 166.78 383.40 L 166.92 383.38 L 166.98 383.38 L 167.40 383.22 L 167.58 383.17 L 168.04 382.91 L 168.11 382.80 L 168.24 382.57 L 168.38 382.53 L 168.42 382.53 L 168.53 382.49 L 168.65 382.49 L 168.77 382.49 L 169.07 382.23 L 169.34 381.98 L 169.39 381.98 L 169.51 381.84 L 170.38 381.52 L 170.39 381.52 L 170.50 381.42 L 170.99 381.07 L 171.39 380.64 L 171.84 380.46 L 171.93 380.46 L 171.94 380.46 L 172.03 380.22 L 172.19 380.22 L 172.41 380.19 L 172.84 380.01 L 172.86 379.70 L 172.94 379.70 L 173.04 379.55 L 173.29 379.55 L 173.31 379.55 L 173.57 379.09 L 173.67 379.06 L 173.76 379.02 L 173.86 378.80 L 175.18 378.68 L 175.50 378.63 L 176.23 378.31 L 176.39 378.31 L 176.51 378.29 L 176.57 378.05 L 177.08 376.76 L 177.30 376.74 L 177.56 376.35 L 177.69 376.31 L 178.00 376.14 L 178.13 376.08 L 178.31 375.80 L 178.48 375.57 L 179.06 375.57 L 179.08 375.54 L 179.11 375.36 L 179.31 374.11 L 189.37 373.98 L 190.41 373.60 L 190.45 373.55 L 191.68 373.24 L 191.78 373.23 L 191.90 373.00 L 192.20 372.85 L 192.34 372.56 L 192.39 372.33 L 192.54 371.86 L 192.90 371.85 L 192.91 371.85 L 193.05 371.53 L 193.19 371.52 L 193.34 371.18 L 193.54 370.91 L 193.62 370.77 L 193.64 370.76 L 193.82 370.45 L 193.84 370.44 L 194.04 370.16 L 194.07 370.15 L 194.36 370.05 L 194.40 370.05 L 194.50 369.94 L 194.63 369.92 L 194.79 369.92 L 194.86 369.90 L 195.43 369.62 L 195.44 369.63 L 195.55 369.06 L 195.80 369.04 L 196.03 368.87 L 196.10 368.87 L 196.20 368.86 L 196.26 368.82 L 196.38 368.05 L 197.02 367.40 L 197.08 367.04 L 197.30 367.01 L 197.36 366.92 L 197.41 366.91 L 197.52 366.74 L 197.62 366.13 L 197.84 366.04 L 198.00 366.02 L 198.12 365.71 L 198.19 365.70 L 198.76 365.47 L 199.07 365.31 L 199.16 365.17 L 199.43 365.16 L 199.45 365.16 L 199.48 365.13 L 199.64 364.02 L 199.78 364.01 L 200.25 363.85 L 200.32 363.41 L 200.41 363.41 L 200.53 363.23 L 200.55 363.12 L 200.60 363.05 L 200.65 363.00 L 200.71 363.00 L 200.77 362.91 L 200.96 361.67 L 201.10 361.54 L 201.23 361.17 L 201.41 361.14 L 201.61 361.02 L 201.81 360.63 L 201.96 359.55 L 202.25 359.47 L 202.26 359.01 L 202.43 358.90 L 216.48 358.90 L 216.75 358.90 L 217.41 358.39 L 217.55 358.39 L 217.66 358.39 L 217.68 358.26 L 217.92 358.04 L 218.09 358.00 L 218.18 357.87 L 218.28 357.77 L 218.34 357.73 L 218.59 357.66 L 219.10 357.76 L 219.22 357.42 L 219.32 357.33 L 219.44 357.32 L 220.09 357.25 L 220.18 357.19 L 220.23 357.19 L 220.27 357.13 L 220.41 357.07 L 220.52 356.94 L 220.99 356.62 L 221.67 356.48 L 221.92 356.43 L 222.67 356.22 L 223.03 355.72 L 223.15 355.63 L 223.31 355.24 L 223.53 354.73 L 223.87 354.60 L 224.34 354.59 L 224.98 354.56 L 225.08 354.38 L 225.54 354.25 L 225.84 354.09 L 225.94 353.96 L 226.12 353.92 L 226.26 353.58 L 227.92 353.41 L 229.50 353.41 L 243.65 353.37 L 243.75 353.19 L 243.82 353.07 L 244.26 352.88 L 245.58 352.54 L 245.64 352.49 L 245.83 352.26 L 246.48 352.16 L 246.78 351.51 L 247.25 351.49 L 247.36 351.47 L 247.46 350.83 L 248.28 350.22 L 248.38 350.22 L 248.55 350.18 L 248.74 350.13 L 248.82 349.91 L 249.28 348.90 L 249.44 348.65 L 249.52 348.63 L 249.62 348.52 L 249.83 348.13 L 249.91 347.13 L 250.11 346.72 L 250.73 346.48 L 250.79 345.98 L 250.85 345.98 L 250.94 345.88 L 251.09 345.75 L 251.15 345.71 L 251.21 345.66 L 251.50 344.49 L 251.57 343.80 L 251.93 343.67 L 252.15 342.51 L 252.28 342.29 L 253.38 340.45 L 253.50 340.42 L 295.07 339.88 L 295.11 339.88 L 310.99 339.73 L 311.86 339.54 L 312.04 339.54 L 312.27 339.44 L 312.35 339.29 L 312.44 339.26 L 319.33 339.24 L 320.24 337.14 L 320.58 336.95 L 320.76 336.22 L 325.05 336.14 L 325.07 336.07 L 325.34 336.05 L 326.62 335.93 L 326.70 335.68 L 326.86 335.60 L 327.31 335.49 L 327.37 335.46 L 327.55 335.05 L 327.74 334.93 L 327.77 334.61 L 341.12 334.22 L 341.22 333.26 L 341.75 333.01 L 341.76 332.64 L 341.86 332.36 L 341.97 331.92 L 342.12 330.76 L 342.34 330.12 L 342.53 329.30 L 342.71 329.30 L 342.77 328.66 L 343.04 328.62 L 343.97 328.02 L 344.34 327.74 L 344.40 327.57 L 344.48 327.56 L 344.53 327.36 L 344.66 326.64 L 345.03 326.57 L 345.09 326.56 L 345.32 326.09 L 345.41 326.09 L 345.44 325.83 L 345.53 325.66 L 345.59 325.65 L 345.64 325.28 L 345.93 325.05 L 346.06 324.68 L 346.22 324.67 L 346.33 324.47 L 346.38 324.18 L 346.67 324.03 L 346.75 323.86 L 346.81 323.86 L 346.88 323.86 L 346.93 323.57 L 346.97 323.58 L 346.99 323.57 L 347.14 323.48 L 347.19 323.15 L 347.33 323.15 L 347.43 323.07 L 347.73 323.05 L 348.10 323.01 L 348.12 323.01 L 348.22 322.99 L 348.56 322.99 L 348.72 322.99 L 348.88 322.99 L 349.06 322.94 L 349.17 322.55 L 349.64 322.55 L 349.68 322.33 L 349.74 322.32 L 349.78 322.06 L 350.09 321.97 L 350.14 321.91 L 350.37 321.91 L 370.91 321.84 L 372.08 321.73 L 372.12 321.73 L 372.35 321.73 L 372.37 321.73 L 372.52 321.28 L 372.63 321.26 L 372.73 321.14 L 372.87 321.07 L 372.91 321.03 L 372.97 321.00 L 373.19 320.96 L 373.63 320.87 L 373.91 320.26 L 374.23 320.23 L 374.24 320.19 L 374.29 319.68 L 374.33 319.68 L 374.95 319.68 L 374.96 319.63 L 375.05 319.16 L 375.32 319.09 L 375.48 319.08 L 375.52 319.07 L 375.53 319.01 L 375.60 318.98 L 375.65 318.50 L 375.68 318.49 L 375.82 318.49 L 375.84 318.45 L 376.16 318.40 L 377.04 318.38 L 377.24 318.34 L 377.31 318.33 L 377.35 318.17 L 377.40 318.17 L 377.53 317.63 L 391.57 317.46 L 391.59 317.31 L 391.71 317.20 L 391.74 317.18 L 391.82 316.72 L 391.98 316.60 L 391.99 316.58 L 392.25 316.57 L 392.31 316.57 L 392.36 316.11 L 392.59 316.06 L 393.19 316.04 L 393.21 316.01 L 393.36 315.76 L 393.42 315.77 L 393.45 315.34 L 393.96 315.34 L 393.97 315.32 L 394.74 315.21 L 394.84 314.71 L 395.11 314.71 L 395.43 314.71 L 395.51 314.33 L 395.56 314.04 L 395.70 314.03 L 396.10 313.96 L 396.17 313.94 L 396.35 313.82 L 396.54 313.82 L 397.13 313.83 L 397.20 313.83 L 397.33 313.80 L 397.34 313.80 L 397.54 313.80 L 397.98 313.76 L 398.44 313.71 L 398.51 313.71 L 398.61 313.66 L 398.74 313.52 L 399.09 313.52 L 399.69 313.36 L 399.88 313.07 L 400.20 313.04 L 401.49 312.73 L 401.78 312.73 L 401.98 312.72 L 402.31 312.71 L 402.41 312.69 L 402.73 312.54 L 403.24 312.51 L 403.30 312.37 L 403.40 312.31 L 403.46 312.32 L 403.51 312.27 L 403.91 312.25 L 413.22 312.24 L 413.30 312.24 L 413.88 312.24 L 413.94 312.22 L 414.07 311.80 L 414.17 311.78 L 414.19 311.78 L 414.51 311.77 L 414.59 311.75 L 416.49 311.12 L 416.72 311.06 L 416.88 311.04 L 416.92 311.04 L 417.51 311.03 L 417.71 311.11 L 417.75 311.11 L 418.06 311.07 L 418.41 310.47 L 418.45 310.46 L 418.74 310.44 L 418.86 310.44 L 418.97 310.44 L 419.21 310.32 L 419.73 309.78 L 419.83 309.78 L 419.92 309.70 L 420.13 309.21 L 420.65 308.67 L 421.10 308.71 L 421.19 308.42 L 421.66 308.42 L 421.74 308.38 L 421.82 308.35 L 421.86 308.07 L 422.02 308.06 L 422.06 308.06 L 422.14 308.06 L 422.40 308.06 L 422.81 307.83 L 423.06 307.81 L 423.35 307.81 L 423.48 307.81 L 423.76 307.81 L 424.23 307.81 L 424.70 307.81 L 425.06 307.80 L 425.14 307.80 L 425.23 307.79 L 425.23 307.69 L 425.51 307.62 L 425.59 307.62 L 425.70 307.60 L 426.46 307.60 L 426.47 307.32 L 426.68 307.32 L 427.57 307.32 L 428.17 307.32 L 428.60 307.26 L 428.61 307.14 L 428.65 307.14 L 441.68 306.96 L 441.72 306.95 L 441.87 306.94 L 441.94 306.77 L 441.99 306.77 L 442.00 306.75 L 442.55 306.70 L 442.68 306.13 L 442.84 306.01 L 443.12 304.89 L 443.30 304.88 L 443.52 304.39 L 443.65 304.45 L 443.71 304.45 L 443.77 303.83 L 443.94 303.73 L 443.96 303.31 L 444.02 303.24 L 444.15 303.20 L 444.25 302.99 L 444.36 305.51 L 444.52 305.47 L 444.84 304.46 L 444.98 304.24 L 445.11 304.01 L 445.91 303.61 L 446.59 303.19 L 447.42 302.59 L 447.63 302.53 L 447.86 302.53 L 448.12 302.48 L 452.91 302.18 L 453.30 302.15 L 498.71 301.36 L 641.69 301.34 L 642.16 300.98 L 642.49 300.93 L 642.82 300.93 L 643.32 300.61 L 643.49 300.23 L 643.62 299.54 L 643.84 299.36 L 644.18 299.42 L 644.44 299.02 L 644.50 299.01 L 644.72 298.89 L 644.77 298.89 L 645.01 298.22 L 645.22 297.19 L 645.87 297.09 L 645.89 296.98 L 646.07 295.65 L 646.69 295.60 L 646.70 295.47 L 646.82 295.39 L 646.97 294.18 L 647.64 294.12 L 647.65 293.95 L 647.80 293.87 L 647.95 293.07 L 648.20 293.05 L 648.22 292.92 L 648.32 291.60 L 648.34 291.57 L 648.40 291.53 L 648.68 291.53 L 648.72 291.39 L 648.82 291.30 L 649.12 291.17 L 649.18 291.17 L 649.42 291.10 L 649.82 291.15 L 649.88 291.09 L 649.93 291.06 L 650.00 291.01"/>
	</g>
	<g class="poloto_legend poloto_imgs poloto_line poloto0 poloto_stroke"><line x1="680" x2="730" y1="81.25" y2="81.25"/></g>
	<g class="poloto_legend poloto_imgs poloto_line poloto1 poloto_stroke"><line x1="680" x2="730" y1="131.25" y2="131.25"/></g>
	<g class="poloto_legend poloto_imgs poloto_line poloto2 poloto_stroke"><line x1="680" x2="730" y1="181.25" y2="181.25"/></g>
	<text class="poloto_legend poloto_text poloto_line poloto0" x="675" y="100">total</text>
	<text class="poloto_legend poloto_text poloto_line poloto1" x="675" y="150">code</text>
	<text class="poloto_legend poloto_text poloto_line poloto2" x="675" y="200">docs</text>
	<text class="poloto_text poloto_name poloto_title" x="400.00" y="37.50">Workspace lines over time</text>
	<text class="poloto_text poloto_name poloto_x" x="400.00" y="640">date (JST)</text>
	<text class="poloto_text poloto_name poloto_y" x="37.50" y="250.00" transform="rotate(-90,37.50,250.00)">lines</text>
	<text class="poloto_text poloto_ticks poloto_y">
		<tspan x="135.00" y="400.00">0</tspan>
		<tspan x="135.00" y="301.71">50K</tspan>
		<tspan x="135.00" y="203.41">100K</tspan>
		<tspan x="135.00" y="105.12">150K</tspan>
	</text>
	<g class="poloto_imgs poloto_ticks poloto_y" stroke="black">
		<line x1="150.00" x2="144.00" y1="400.00" y2="400.00"/>
		<line x1="150.00" x2="144.00" y1="301.71" y2="301.71"/>
		<line x1="150.00" x2="144.00" y1="203.41" y2="203.41"/>
		<line x1="150.00" x2="144.00" y1="105.12" y2="105.12"/>
	</g>
	<g class="poloto_text poloto_ticks poloto_x">
		<text x="185.92" y="430.00" text-anchor="end" transform="rotate(-90 185.92 430.00)">2026-04-22 04:33</text>
		<text x="243.47" y="430.00" text-anchor="end" transform="rotate(-90 243.47 430.00)">2026-04-24 12:06</text>
		<text x="301.02" y="430.00" text-anchor="end" transform="rotate(-90 301.02 430.00)">2026-04-26 19:40</text>
		<text x="358.57" y="430.00" text-anchor="end" transform="rotate(-90 358.57 430.00)">2026-04-29 03:13</text>
		<text x="416.12" y="430.00" text-anchor="end" transform="rotate(-90 416.12 430.00)">2026-05-01 10:46</text>
		<text x="473.67" y="430.00" text-anchor="end" transform="rotate(-90 473.67 430.00)">2026-05-03 18:20</text>
		<text x="531.22" y="430.00" text-anchor="end" transform="rotate(-90 531.22 430.00)">2026-05-06 01:53</text>
		<text x="588.77" y="430.00" text-anchor="end" transform="rotate(-90 588.77 430.00)">2026-05-08 09:26</text>
		<text x="646.32" y="430.00" text-anchor="end" transform="rotate(-90 646.32 430.00)">2026-05-10 17:00</text>
	</g>
	<g class="poloto_imgs poloto_ticks poloto_x" stroke="black">
		<line x1="185.92" x2="185.92" y1="400.00" y2="405.00"/>
		<line x1="243.47" x2="243.47" y1="400.00" y2="405.00"/>
		<line x1="301.02" x2="301.02" y1="400.00" y2="405.00"/>
		<line x1="358.57" x2="358.57" y1="400.00" y2="405.00"/>
		<line x1="416.12" x2="416.12" y1="400.00" y2="405.00"/>
		<line x1="473.67" x2="473.67" y1="400.00" y2="405.00"/>
		<line x1="531.22" x2="531.22" y1="400.00" y2="405.00"/>
		<line x1="588.77" x2="588.77" y1="400.00" y2="405.00"/>
		<line x1="646.32" x2="646.32" y1="400.00" y2="405.00"/>
	</g>
	<path class="poloto_imgs poloto_ticks poloto_x" stroke="black" style="stroke-dasharray:7.193747769938191;stroke-dashoffset:-35.917807115474716;" d=" M 150.00 400.00 L 650.00 400.00"/>
	<path class="poloto_imgs poloto_ticks poloto_y" stroke="black" style="stroke-dasharray:9.82949109448107;stroke-dashoffset:-0;" d=" M 150.00 400.00 L 150.00 100.00"/>
</svg>

