<svg class="poloto" width="800" height="680" viewBox="0 0 800 680" xmlns="http://www.w3.org/2000/svg">
	<style>
.poloto{
  stroke-linecap:round;
  stroke-linejoin:round;
  font-family:Roboto,sans-serif;
  font-size:16px;
}
.poloto_background{fill:AliceBlue;}
.poloto_scatter{stroke-width:7}
.poloto_line{stroke-width:2}
.poloto_text{fill: black;}
.poloto_name{font-size:24px;dominant-baseline:auto;text-anchor:middle;}
.poloto_where{dominant-baseline:middle;text-anchor:start}
.poloto_text.poloto_legend{font-size:20px;dominant-baseline:middle;text-anchor:start;}
.poloto_text.poloto_ticks.poloto_y{dominant-baseline:middle;text-anchor:end}
.poloto_text.poloto_ticks.poloto_x{dominant-baseline:auto;text-anchor:middle}
.poloto_imgs.poloto_ticks{stroke: black;stroke-width:3;fill:none;stroke-dasharray:none}
.poloto_grid{stroke:gray;stroke-width:0.5}

.poloto0.poloto_stroke{stroke:blue;}
.poloto1.poloto_stroke{stroke:red;}
.poloto2.poloto_stroke{stroke:green;}
.poloto3.poloto_stroke{stroke:gold;}
.poloto4.poloto_stroke{stroke:aqua;}
.poloto5.poloto_stroke{stroke:lime;}
.poloto6.poloto_stroke{stroke:orange;}
.poloto7.poloto_stroke{stroke:chocolate;}
.poloto0.poloto_fill{fill:blue;}
.poloto1.poloto_fill{fill:red;}
.poloto2.poloto_fill{fill:green;}
.poloto3.poloto_fill{fill:gold;}
.poloto4.poloto_fill{fill:aqua;}
.poloto5.poloto_fill{fill:lime;}
.poloto6.poloto_fill{fill:orange;}
.poloto7.poloto_fill{fill:chocolate;}
	</style>
	<circle r="1e5" class="poloto_background" fill="white"/>
	<g id="poloto_plot0" class="poloto_plot poloto_imgs poloto_line poloto0 poloto_stroke" fill="none" stroke="black">
		<path d=" M 150.00 371.30 L 150.02 371.28 L 150.04 371.26 L 150.05 371.26 L 150.07 371.26 L 150.09 368.14 L 150.20 367.77 L 150.43 367.75 L 150.78 367.50 L 150.96 365.91 L 151.32 365.81 L 151.38 365.73 L 151.43 365.70 L 151.84 364.92 L 152.62 364.30 L 152.87 361.85 L 152.93 361.85 L 153.41 361.76 L 153.95 361.75 L 153.95 361.75 L 153.96 361.75 L 161.29 361.75 L 161.34 361.74 L 161.44 361.72 L 161.48 361.69 L 161.75 361.55 L 161.88 361.51 L 162.19 361.29 L 162.24 361.19 L 162.32 360.97 L 162.42 360.93 L 162.44 360.93 L 162.52 360.87 L 162.60 360.87 L 162.68 360.88 L 162.89 360.51 L 163.07 360.29 L 163.10 360.29 L 163.19 360.16 L 163.77 360.72 L 163.78 360.72 L 163.85 360.62 L 164.19 360.21 L 164.45 359.71 L 164.75 359.49 L 164.82 359.45 L 164.83 359.45 L 164.88 359.26 L 165.00 359.26 L 165.14 359.19 L 165.43 359.00 L 165.45 358.71 L 165.50 358.71 L 165.57 358.55 L 165.74 358.55 L 165.75 358.55 L 165.92 358.14 L 165.99 358.11 L 166.05 358.08 L 166.12 357.91 L 167.01 357.69 L 167.23 357.64 L 167.73 357.34 L 167.83 357.35 L 167.91 357.33 L 167.95 357.12 L 168.30 355.88 L 168.45 355.86 L 168.62 355.45 L 168.71 355.41 L 168.92 355.06 L 169.01 354.94 L 169.13 354.72 L 169.24 354.52 L 169.64 351.67 L 169.65 351.61 L 169.67 351.43 L 169.80 350.07 L 176.60 349.97 L 177.31 348.41 L 177.33 348.37 L 178.16 348.12 L 178.23 348.12 L 178.31 347.81 L 178.51 347.65 L 178.61 347.39 L 178.64 347.15 L 178.75 346.74 L 178.99 346.74 L 179.00 346.46 L 179.09 346.15 L 179.18 346.15 L 179.29 345.81 L 179.42 345.56 L 179.47 345.44 L 179.49 345.43 L 179.61 345.17 L 179.63 345.16 L 179.76 344.89 L 179.78 344.88 L 179.97 343.60 L 180.00 343.60 L 180.07 343.38 L 180.15 343.37 L 180.27 343.37 L 180.32 343.34 L 180.70 343.10 L 180.71 343.11 L 180.78 342.54 L 180.95 342.53 L 181.10 341.67 L 181.15 341.59 L 181.22 341.59 L 181.26 341.55 L 181.34 340.89 L 181.77 335.30 L 181.82 335.03 L 181.96 335.00 L 182.00 334.94 L 182.04 334.92 L 182.11 334.77 L 182.17 334.13 L 182.33 334.01 L 182.43 333.99 L 182.52 333.71 L 182.57 333.70 L 182.95 333.50 L 183.16 333.34 L 183.22 333.09 L 183.40 333.08 L 183.42 333.08 L 183.43 333.05 L 183.55 331.71 L 183.64 331.63 L 183.95 330.27 L 184.00 329.88 L 184.06 329.87 L 184.15 329.73 L 184.16 329.62 L 184.19 329.56 L 184.22 329.52 L 184.27 329.52 L 184.31 329.45 L 184.43 328.34 L 184.53 328.18 L 184.62 327.85 L 184.74 327.83 L 184.88 327.72 L 185.01 326.94 L 185.11 325.85 L 185.31 325.79 L 185.31 325.38 L 185.43 325.25 L 194.92 325.25 L 195.10 325.24 L 195.55 324.67 L 195.64 324.65 L 195.72 324.65 L 195.73 324.51 L 195.89 324.33 L 196.01 324.30 L 196.07 324.19 L 196.14 324.12 L 196.18 324.08 L 196.35 324.03 L 196.69 323.96 L 196.78 323.66 L 196.84 323.59 L 196.92 323.58 L 197.36 323.43 L 197.42 323.34 L 197.45 323.34 L 197.48 323.23 L 197.58 323.18 L 197.65 323.07 L 197.97 322.34 L 198.43 322.23 L 198.60 322.18 L 199.10 322.00 L 199.35 318.48 L 199.43 318.41 L 199.53 318.06 L 199.68 317.60 L 199.91 317.47 L 200.24 317.46 L 200.67 317.45 L 200.73 317.29 L 201.04 317.13 L 201.25 316.88 L 201.31 316.77 L 201.43 316.73 L 201.53 316.42 L 202.65 316.08 L 203.72 316.08 L 213.28 316.04 L 213.35 315.89 L 213.40 315.79 L 213.69 315.64 L 214.59 314.43 L 214.63 314.35 L 214.75 314.04 L 215.19 313.96 L 215.40 313.14 L 215.71 313.13 L 215.79 313.12 L 215.86 312.56 L 216.41 309.36 L 216.48 309.36 L 216.59 309.33 L 216.72 309.29 L 216.77 308.94 L 217.08 307.74 L 217.19 307.51 L 217.25 307.50 L 217.31 306.94 L 217.45 306.16 L 217.51 305.32 L 217.65 304.95 L 218.06 300.80 L 218.10 300.38 L 218.14 300.38 L 218.21 300.30 L 218.31 300.20 L 218.35 300.16 L 218.39 300.11 L 218.59 299.12 L 218.63 298.42 L 218.88 298.27 L 219.02 297.23 L 219.11 296.57 L 219.85 286.88 L 219.94 286.86 L 248.03 286.39 L 248.05 286.39 L 258.79 286.26 L 259.37 286.00 L 259.49 286.00 L 259.65 285.92 L 259.70 285.80 L 259.76 285.76 L 264.42 285.70 L 265.03 283.85 L 265.26 283.69 L 265.38 283.01 L 268.28 282.88 L 268.30 282.69 L 268.48 282.67 L 269.35 281.51 L 269.40 281.30 L 269.51 281.23 L 269.81 281.14 L 269.85 281.11 L 269.97 280.77 L 270.10 280.67 L 270.12 280.41 L 279.15 280.06 L 279.21 279.06 L 279.57 278.84 L 279.58 277.18 L 279.64 276.93 L 279.72 276.53 L 279.82 275.38 L 279.97 274.77 L 280.10 274.06 L 280.21 274.06 L 280.26 273.51 L 280.44 273.46 L 281.07 270.79 L 281.32 270.50 L 281.36 270.33 L 281.41 270.33 L 281.45 270.14 L 281.53 269.49 L 281.79 269.17 L 281.82 269.13 L 281.98 266.78 L 282.04 266.77 L 282.06 266.52 L 282.12 266.32 L 282.16 266.32 L 282.19 265.97 L 282.39 264.69 L 282.48 264.33 L 282.59 264.28 L 282.66 260.88 L 282.70 260.60 L 282.89 258.66 L 282.95 258.51 L 282.99 258.50 L 283.04 258.50 L 283.07 258.22 L 283.09 258.23 L 283.11 258.23 L 283.21 254.79 L 283.24 254.49 L 283.34 254.47 L 283.41 254.41 L 283.61 254.31 L 283.86 254.18 L 283.87 254.18 L 283.94 254.14 L 284.17 254.08 L 284.28 254.08 L 284.39 254.08 L 284.50 252.58 L 284.58 252.22 L 284.90 252.21 L 284.93 251.98 L 284.97 251.97 L 284.99 251.72 L 285.20 249.55 L 285.24 249.50 L 285.39 249.48 L 299.27 249.42 L 300.06 249.31 L 300.09 249.31 L 300.24 249.31 L 300.26 249.31 L 300.36 248.88 L 300.43 248.86 L 300.50 248.65 L 300.60 248.60 L 300.63 248.57 L 300.66 248.55 L 300.81 248.31 L 301.11 248.09 L 301.30 247.39 L 301.51 246.73 L 301.52 246.70 L 301.56 246.08 L 301.59 246.05 L 302.00 245.69 L 302.01 245.64 L 302.07 245.15 L 302.25 245.10 L 302.36 245.05 L 302.39 244.17 L 302.39 244.13 L 302.44 244.96 L 302.47 244.45 L 302.49 244.43 L 302.59 243.26 L 302.60 243.22 L 302.82 243.13 L 303.41 243.11 L 303.55 243.07 L 303.60 243.06 L 303.62 242.90 L 303.66 242.90 L 303.74 242.32 L 313.23 241.20 L 313.25 241.05 L 313.33 240.94 L 313.35 240.73 L 313.40 230.92 L 313.51 226.91 L 313.52 226.88 L 313.69 226.80 L 313.73 226.80 L 313.76 226.34 L 313.92 226.30 L 314.33 225.35 L 314.34 225.33 L 314.44 225.03 L 314.48 225.04 L 314.50 224.57 L 314.85 224.01 L 314.86 223.99 L 315.38 223.77 L 315.44 223.27 L 315.62 223.28 L 315.84 222.01 L 315.89 221.52 L 315.93 221.11 L 316.03 220.63 L 316.30 220.45 L 316.34 220.33 L 316.46 220.22 L 316.59 220.22 L 316.99 220.22 L 317.03 220.22 L 317.13 220.20 L 317.13 220.20 L 317.26 220.21 L 317.56 220.18 L 317.87 220.00 L 317.92 220.00 L 317.99 219.93 L 318.08 219.79 L 318.32 219.79 L 318.72 219.61 L 318.85 219.22 L 319.07 215.84 L 319.94 218.70 L 320.13 218.69 L 320.27 218.67 L 320.49 218.67 L 320.56 218.61 L 320.77 218.45 L 321.12 218.22 L 321.16 218.07 L 321.23 218.00 L 321.27 218.02 L 321.30 217.97 L 321.57 217.76 L 327.86 217.75 L 327.92 217.76 L 328.31 217.74 L 328.35 217.73 L 328.43 217.30 L 328.51 217.06 L 328.52 217.06 L 328.73 217.02 L 328.78 217.00 L 330.07 216.36 L 330.22 216.31 L 330.34 216.29 L 330.36 216.29 L 330.76 216.14 L 330.90 216.22 L 330.92 216.21 L 331.13 216.17 L 331.37 214.83 L 331.40 214.82 L 331.59 214.67 L 331.67 214.67 L 331.75 214.67 L 331.91 214.52 L 332.26 213.98 L 332.33 213.96 L 332.39 213.81 L 332.53 213.17 L 332.88 212.51 L 333.19 209.40 L 333.25 209.02 L 333.56 208.88 L 333.62 208.80 L 333.67 208.65 L 333.70 208.14 L 333.81 207.25 L 333.84 207.29 L 333.89 207.27 L 334.07 207.26 L 334.34 206.94 L 334.51 206.87 L 334.70 206.86 L 334.79 206.85 L 334.98 206.84 L 335.30 206.84 L 335.62 206.83 L 335.86 206.83 L 335.91 206.82 L 335.98 206.81 L 335.98 206.70 L 336.16 206.63 L 336.22 206.62 L 336.29 206.49 L 336.81 206.47 L 336.82 206.20 L 336.96 206.19 L 337.56 206.19 L 337.96 206.03 L 338.25 205.83 L 338.26 205.72 L 338.28 205.72 L 347.09 205.53 L 347.12 205.53 L 347.22 205.52 L 347.27 205.36 L 347.30 205.35 L 347.31 205.34 L 347.68 205.29 L 347.77 204.73 L 347.88 204.60 L 348.07 203.50 L 348.19 203.48 L 348.34 203.01 L 348.42 203.07 L 348.46 203.07 L 348.51 202.53 L 348.62 202.16 L 348.63 201.77 L 348.67 201.71 L 348.76 201.68 L 348.83 201.50 L 348.91 203.62 L 349.01 203.58 L 349.23 202.73 L 349.32 202.52 L 349.41 202.35 L 349.95 201.13 L 350.41 200.55 L 350.97 199.42 L 351.11 199.37 L 351.27 199.37 L 351.44 199.32 L 354.68 199.00 L 354.95 198.97 L 385.63 198.12 L 482.24 197.92 L 482.56 197.58 L 482.78 197.53 L 483.00 197.53 L 483.34 196.87 L 483.46 196.55 L 483.54 195.96 L 483.70 194.25 L 483.92 194.60 L 484.10 194.23 L 484.14 194.23 L 484.29 194.12 L 484.32 194.12 L 484.48 193.49 L 484.63 192.49 L 485.06 191.43 L 485.08 191.34 L 485.20 190.07 L 485.62 186.94 L 485.63 186.83 L 485.71 186.76 L 485.81 185.64 L 486.26 184.13 L 486.27 183.99 L 486.37 183.92 L 486.47 183.17 L 486.64 182.59 L 486.65 182.48 L 486.72 181.32 L 486.74 181.30 L 486.78 180.98 L 486.97 178.93 L 486.99 178.82 L 487.06 178.70 L 487.26 178.42 L 487.30 178.42 L 487.46 178.03 L 487.73 178.07 L 487.77 178.02 L 487.81 177.99 L 487.86 177.96 L 487.99 176.76 L 488.13 175.79 L 488.15 175.70 L 488.23 174.47 L 488.32 173.28 L 488.34 173.13 L 488.42 171.73 L 488.46 170.63 L 488.63 169.89 L 488.65 169.84 L 488.73 169.61 L 488.85 169.59 L 489.54 169.56 L 489.89 169.52 L 497.43 169.57 L 497.51 169.36 L 497.59 169.17 L 497.71 168.35 L 498.00 168.14 L 498.02 168.06 L 498.07 166.97 L 498.25 165.91 L 498.27 165.82 L 499.92 165.75 L 500.02 165.16 L 500.85 164.98 L 500.94 164.94 L 501.04 163.71 L 502.04 162.56 L 502.47 162.12 L 502.57 161.22 L 502.93 159.68 L 503.16 159.24 L 503.53 158.33 L 504.19 157.87 L 514.29 157.86 L 514.90 157.76 L 514.92 157.78 L 515.77 157.60 L 515.81 157.51 L 516.11 157.44 L 516.45 156.44 L 516.45 156.44 L 516.49 156.40 L 516.94 155.25 L 517.98 154.59 L 518.05 154.54 L 518.15 154.53 L 518.31 154.22 L 518.35 154.14 L 518.41 154.09 L 518.90 154.04 L 519.28 154.04 L 519.49 154.04 L 519.52 154.00 L 519.95 153.00 L 520.28 152.81 L 520.30 152.73 L 520.34 152.65 L 520.39 152.38 L 531.35 151.99 L 531.37 151.97 L 531.40 151.96 L 531.61 151.85 L 531.78 151.72 L 532.74 150.18 L 532.98 150.00 L 533.68 149.53 L 534.28 149.43 L 534.72 149.27 L 534.85 147.85 L 535.40 146.18 L 535.61 146.07 L 535.68 144.99 L 537.30 143.01 L 537.32 143.01 L 537.41 142.53 L 537.71 142.48 L 537.72 142.48 L 537.73 142.36 L 537.79 142.20 L 537.93 142.05 L 538.11 141.22 L 539.79 139.22 L 540.01 138.98 L 540.16 138.62 L 540.18 138.58 L 540.21 138.30 L 547.68 137.39 L 547.92 136.70 L 548.06 136.67 L 548.12 136.22 L 548.82 136.01 L 548.97 135.55 L 549.10 135.55 L 549.18 134.59 L 549.41 132.15 L 549.45 132.11 L 549.77 132.07 L 549.84 131.28 L 550.10 130.32 L 550.16 129.66 L 550.38 129.05 L 550.55 128.73 L 550.67 128.00 L 550.95 127.38 L 550.98 126.68 L 551.35 126.53 L 551.38 126.53 L 551.44 125.64 L 551.51 125.64 L 551.55 125.57 L 551.97 123.92 L 552.57 123.37 L 552.87 123.55 L 553.86 123.47 L 553.88 123.46 L 554.03 123.45 L 554.10 123.43 L 554.21 123.32 L 554.33 123.22 L 554.47 123.04 L 554.76 122.80 L 555.04 122.78 L 555.93 122.62 L 555.97 122.61 L 556.85 122.45 L 557.23 122.35 L 564.78 122.33 L 565.16 122.21 L 565.35 122.13 L 565.44 122.13 L 565.46 122.13 L 565.65 122.10 L 565.74 122.05 L 565.96 121.89 L 566.10 121.86 L 566.59 121.69 L 566.84 121.32 L 567.27 121.27 L 567.39 121.03 L 567.53 120.88 L 567.72 120.69 L 568.37 120.74 L 568.43 120.72 L 569.38 120.26 L 569.53 119.99 L 569.72 119.90 L 570.18 119.68 L 570.40 119.74 L 570.51 120.10 L 570.60 120.08 L 570.73 119.93 L 571.13 118.84 L 571.56 118.73 L 571.94 118.64 L 571.98 118.59 L 572.03 118.28 L 599.35 118.20 L 599.53 118.07 L 615.25 117.71 L 615.33 118.11 L 615.46 116.44 L 615.47 116.44 L 615.52 116.49 L 616.08 113.10 L 616.14 113.07 L 616.83 113.15 L 617.54 112.94 L 617.78 112.62 L 618.22 112.21 L 618.81 111.95 L 618.82 111.95 L 618.90 111.88 L 619.13 111.82 L 619.20 111.65 L 619.77 110.83 L 620.50 110.65 L 620.58 110.49 L 620.95 110.42 L 621.06 111.07 L 621.34 110.83 L 621.58 110.78 L 622.06 110.60 L 622.51 110.52 L 622.74 110.16 L 622.75 110.16 L 632.59 110.14 L 635.68 109.21 L 635.80 108.77 L 635.96 108.35 L 636.45 108.32 L 636.66 108.18 L 636.82 106.00 L 636.92 104.60 L 637.15 104.46 L 637.19 104.44 L 637.53 104.03 L 637.64 103.81 L 637.70 103.70 L 637.89 103.34 L 637.95 103.32 L 638.05 103.28 L 638.12 103.07 L 638.21 102.84 L 638.30 102.71 L 638.37 102.67 L 638.69 102.58 L 638.85 102.33 L 638.98 102.20 L 639.02 101.51 L 639.38 101.38 L 639.52 100.97 L 648.79 101.07 L 649.47 100.82 L 649.58 100.81 L 650.00 100.00"/>
	</g>
	<g id="poloto_plot1" class="poloto_plot poloto_imgs poloto_line poloto1 poloto_stroke" fill="none" stroke="black">
		<path d=" M 150.00 382.94 L 150.02 382.93 L 150.04 382.92 L 150.05 382.92 L 150.07 382.92 L 150.09 382.38 L 150.20 382.36 L 150.43 382.35 L 150.78 382.15 L 150.96 382.06 L 151.32 382.08 L 151.38 382.04 L 151.43 382.04 L 151.84 382.00 L 152.62 381.90 L 152.87 379.79 L 152.93 379.79 L 153.41 379.74 L 153.95 379.73 L 153.95 379.73 L 153.96 379.73 L 161.29 379.73 L 161.34 379.73 L 161.44 379.73 L 161.48 379.70 L 161.75 379.69 L 161.88 379.69 L 162.19 379.69 L 162.24 379.69 L 162.32 379.67 L 162.42 379.67 L 162.44 379.67 L 162.52 379.65 L 162.60 379.65 L 162.68 379.65 L 162.89 379.53 L 163.07 379.53 L 163.10 379.53 L 163.19 379.53 L 163.77 380.32 L 163.78 380.32 L 163.85 380.31 L 164.19 380.19 L 164.45 380.06 L 164.75 380.00 L 164.82 379.96 L 164.83 379.96 L 164.88 379.96 L 165.00 379.96 L 165.14 379.91 L 165.43 379.86 L 165.45 379.86 L 165.50 379.86 L 165.57 379.85 L 165.74 379.85 L 165.75 379.85 L 165.92 379.84 L 165.99 379.84 L 166.05 379.84 L 166.12 379.84 L 167.01 379.74 L 167.23 379.73 L 167.73 379.69 L 167.83 379.69 L 167.91 379.69 L 167.95 379.69 L 168.30 379.63 L 168.45 379.63 L 168.62 379.55 L 168.71 379.54 L 168.92 379.37 L 169.01 379.31 L 169.13 379.31 L 169.24 379.31 L 169.64 376.85 L 169.65 376.80 L 169.67 376.80 L 169.80 376.56 L 176.60 376.56 L 177.31 375.50 L 177.33 375.50 L 178.16 375.50 L 178.23 375.50 L 178.31 375.39 L 178.51 375.37 L 178.61 375.37 L 178.64 375.37 L 178.75 375.37 L 178.99 375.37 L 179.00 375.14 L 179.09 375.13 L 179.18 375.13 L 179.29 375.11 L 179.42 375.10 L 179.47 375.10 L 179.49 375.10 L 179.61 375.10 L 179.63 375.10 L 179.76 375.10 L 179.78 375.10 L 179.97 374.06 L 180.00 374.06 L 180.07 373.93 L 180.15 373.93 L 180.27 373.93 L 180.32 373.92 L 180.70 373.91 L 180.71 373.91 L 180.78 373.85 L 180.95 373.85 L 181.10 373.25 L 181.15 373.18 L 181.22 373.18 L 181.26 373.18 L 181.34 373.16 L 181.77 368.76 L 181.82 368.79 L 181.96 368.79 L 182.00 368.79 L 182.04 368.79 L 182.11 368.79 L 182.17 368.73 L 182.33 368.73 L 182.43 368.73 L 182.52 368.72 L 182.57 368.72 L 182.95 368.71 L 183.16 368.71 L 183.22 368.60 L 183.40 368.60 L 183.42 368.60 L 183.43 368.60 L 183.55 368.30 L 183.64 368.23 L 183.95 367.18 L 184.00 367.18 L 184.06 367.18 L 184.15 367.19 L 184.16 367.19 L 184.19 367.19 L 184.22 367.19 L 184.27 367.19 L 184.31 367.19 L 184.43 367.17 L 184.53 367.17 L 184.62 367.16 L 184.74 367.16 L 184.88 367.15 L 185.01 366.76 L 185.11 366.63 L 185.31 366.63 L 185.31 366.63 L 185.43 366.63 L 194.92 366.63 L 195.10 366.62 L 195.55 366.55 L 195.64 366.54 L 195.72 366.54 L 195.73 366.54 L 195.89 366.54 L 196.01 366.54 L 196.07 366.54 L 196.14 366.54 L 196.18 366.54 L 196.35 366.54 L 196.69 366.56 L 196.78 366.56 L 196.84 366.56 L 196.92 366.56 L 197.36 366.48 L 197.42 366.44 L 197.45 366.44 L 197.48 366.38 L 197.58 366.38 L 197.65 366.37 L 197.97 365.98 L 198.43 365.98 L 198.60 365.98 L 199.10 365.98 L 199.35 363.28 L 199.43 363.28 L 199.53 363.28 L 199.68 363.27 L 199.91 363.27 L 200.24 363.27 L 200.67 363.27 L 200.73 363.27 L 201.04 363.21 L 201.25 363.09 L 201.31 363.09 L 201.43 363.09 L 201.53 363.08 L 202.65 362.91 L 203.72 362.91 L 213.28 362.91 L 213.35 362.91 L 213.40 362.91 L 213.69 362.91 L 214.59 362.06 L 214.63 362.03 L 214.75 361.94 L 215.19 361.94 L 215.40 361.73 L 215.71 361.74 L 215.79 361.74 L 215.86 361.74 L 216.41 359.37 L 216.48 359.37 L 216.59 359.37 L 216.72 359.37 L 216.77 359.22 L 217.08 358.93 L 217.19 358.93 L 217.25 358.93 L 217.31 358.50 L 217.45 358.06 L 217.51 358.06 L 217.65 358.05 L 218.06 354.53 L 218.10 354.53 L 218.14 354.53 L 218.21 354.53 L 218.31 354.53 L 218.35 354.53 L 218.39 354.53 L 218.59 354.53 L 218.63 354.45 L 218.88 354.44 L 219.02 354.39 L 219.11 353.96 L 219.85 346.95 L 219.94 346.95 L 248.03 346.95 L 248.05 346.95 L 258.79 346.95 L 259.37 346.84 L 259.49 346.84 L 259.65 346.84 L 259.70 346.84 L 259.76 346.84 L 264.42 346.78 L 265.03 346.72 L 265.26 346.72 L 265.38 346.70 L 268.28 346.63 L 268.30 346.54 L 268.48 346.54 L 269.35 345.59 L 269.40 345.59 L 269.51 345.59 L 269.81 345.59 L 269.85 345.59 L 269.97 345.59 L 270.10 345.59 L 270.12 345.59 L 279.15 345.58 L 279.21 345.41 L 279.57 345.41 L 279.58 344.26 L 279.64 344.26 L 279.72 344.26 L 279.82 344.16 L 279.97 344.16 L 280.10 344.11 L 280.21 344.11 L 280.26 344.11 L 280.44 344.09 L 281.07 342.15 L 281.32 342.14 L 281.36 342.13 L 281.41 342.13 L 281.45 342.13 L 281.53 342.10 L 281.79 341.86 L 281.82 341.82 L 281.98 340.08 L 282.04 340.07 L 282.06 340.07 L 282.12 340.05 L 282.16 340.05 L 282.19 340.04 L 282.39 339.09 L 282.48 339.08 L 282.59 339.06 L 282.66 336.10 L 282.70 336.09 L 282.89 334.43 L 282.95 334.43 L 282.99 334.42 L 283.04 334.42 L 283.07 334.42 L 283.09 334.42 L 283.11 334.42 L 283.21 331.34 L 283.24 331.34 L 283.34 331.33 L 283.41 331.33 L 283.61 331.27 L 283.86 331.18 L 283.87 331.18 L 283.94 331.16 L 284.17 331.11 L 284.28 331.11 L 284.39 331.11 L 284.50 329.79 L 284.58 329.79 L 284.90 329.78 L 284.93 329.78 L 284.97 329.78 L 284.99 329.78 L 285.20 327.88 L 285.24 327.88 L 285.39 327.87 L 299.27 327.87 L 300.06 327.85 L 300.09 327.85 L 300.24 327.85 L 300.26 327.85 L 300.36 327.85 L 300.43 327.85 L 300.50 327.76 L 300.60 327.76 L 300.63 327.76 L 300.66 327.76 L 300.81 327.59 L 301.11 327.48 L 301.30 327.37 L 301.51 326.83 L 301.52 326.83 L 301.56 326.69 L 301.59 326.68 L 302.00 326.35 L 302.01 326.35 L 302.07 326.30 L 302.25 326.30 L 302.36 326.27 L 302.39 325.48 L 302.39 325.48 L 302.44 326.26 L 302.47 326.22 L 302.49 326.21 L 302.59 325.15 L 302.60 325.15 L 302.82 325.11 L 303.41 325.11 L 303.55 325.11 L 303.60 325.11 L 303.62 325.11 L 303.66 325.11 L 303.74 325.04 L 313.23 324.16 L 313.25 324.16 L 313.33 324.16 L 313.35 323.97 L 313.40 314.60 L 313.51 311.12 L 313.52 311.12 L 313.69 311.05 L 313.73 311.05 L 313.76 311.04 L 313.92 311.04 L 314.33 310.19 L 314.34 310.19 L 314.44 310.14 L 314.48 310.14 L 314.50 310.07 L 314.85 309.56 L 314.86 309.56 L 315.38 309.46 L 315.44 309.42 L 315.62 309.43 L 315.84 308.28 L 315.89 308.16 L 315.93 308.06 L 316.03 307.63 L 316.30 307.52 L 316.34 307.43 L 316.46 307.43 L 316.59 307.43 L 316.99 307.43 L 317.03 307.43 L 317.13 307.43 L 317.13 307.43 L 317.26 307.44 L 317.56 307.44 L 317.87 307.32 L 317.92 307.32 L 317.99 307.31 L 318.08 307.31 L 318.32 307.31 L 318.72 307.31 L 318.85 307.20 L 319.07 304.18 L 319.94 307.03 L 320.13 307.02 L 320.27 307.01 L 320.49 307.01 L 320.56 306.98 L 320.77 306.96 L 321.12 306.79 L 321.16 306.79 L 321.23 306.79 L 321.27 306.79 L 321.30 306.79 L 321.57 306.62 L 327.86 306.62 L 327.92 306.63 L 328.31 306.61 L 328.35 306.61 L 328.43 306.58 L 328.51 306.37 L 328.52 306.37 L 328.73 306.35 L 328.78 306.35 L 330.07 306.17 L 330.22 306.17 L 330.34 306.17 L 330.36 306.17 L 330.76 306.05 L 330.90 306.05 L 330.92 306.05 L 331.13 306.04 L 331.37 305.33 L 331.40 305.33 L 331.59 305.21 L 331.67 305.21 L 331.75 305.21 L 331.91 305.21 L 332.26 305.20 L 332.33 305.18 L 332.39 305.11 L 332.53 304.99 L 332.88 304.88 L 333.19 302.03 L 333.25 301.93 L 333.56 301.80 L 333.62 301.76 L 333.67 301.66 L 333.70 301.46 L 333.81 300.61 L 333.84 300.65 L 333.89 300.63 L 334.07 300.62 L 334.34 300.51 L 334.51 300.46 L 334.70 300.45 L 334.79 300.44 L 334.98 300.43 L 335.30 300.43 L 335.62 300.42 L 335.86 300.42 L 335.91 300.41 L 335.98 300.41 L 335.98 300.41 L 336.16 300.41 L 336.22 300.40 L 336.29 300.29 L 336.81 300.28 L 336.82 300.28 L 336.96 300.27 L 337.56 300.26 L 337.96 300.12 L 338.25 300.00 L 338.26 300.00 L 338.28 300.00 L 347.09 300.00 L 347.12 300.00 L 347.22 300.00 L 347.27 300.00 L 347.30 299.98 L 347.31 299.98 L 347.68 299.98 L 347.77 299.97 L 347.88 299.95 L 348.07 299.93 L 348.19 299.93 L 348.34 299.87 L 348.42 299.87 L 348.46 299.87 L 348.51 299.87 L 348.62 299.60 L 348.63 299.60 L 348.67 299.60 L 348.76 299.60 L 348.83 299.60 L 348.91 299.67 L 349.01 299.67 L 349.23 299.66 L 349.32 299.66 L 349.41 299.66 L 349.95 298.82 L 350.41 298.59 L 350.97 297.99 L 351.11 297.99 L 351.27 297.99 L 351.44 297.99 L 354.68 297.92 L 354.95 297.92 L 385.63 297.81 L 482.24 297.66 L 482.56 297.61 L 482.78 297.60 L 483.00 297.60 L 483.34 297.21 L 483.46 297.21 L 483.54 297.21 L 483.70 295.81 L 483.92 296.08 L 484.10 296.06 L 484.14 296.06 L 484.29 296.05 L 484.32 296.05 L 484.48 296.04 L 484.63 295.98 L 485.06 295.09 L 485.08 295.09 L 485.20 295.01 L 485.62 292.14 L 485.63 292.14 L 485.71 292.13 L 485.81 292.09 L 486.26 290.75 L 486.27 290.75 L 486.37 290.75 L 486.47 290.72 L 486.64 290.23 L 486.65 290.23 L 486.72 290.22 L 486.74 290.22 L 486.78 289.95 L 486.97 288.05 L 486.99 288.05 L 487.06 288.05 L 487.26 287.89 L 487.30 287.89 L 487.46 287.58 L 487.73 287.58 L 487.77 287.58 L 487.81 287.58 L 487.86 287.58 L 487.99 287.57 L 488.13 286.71 L 488.15 286.71 L 488.23 286.71 L 488.32 286.06 L 488.34 286.06 L 488.42 285.37 L 488.46 285.33 L 488.63 284.65 L 488.65 284.65 L 488.73 284.65 L 488.85 284.64 L 489.54 284.64 L 489.89 284.63 L 497.43 284.63 L 497.51 284.63 L 497.59 284.63 L 497.71 284.63 L 498.00 284.45 L 498.02 284.45 L 498.07 284.39 L 498.25 283.44 L 498.27 283.44 L 499.92 283.46 L 500.02 283.28 L 500.85 283.28 L 500.94 283.27 L 501.04 283.20 L 502.04 282.42 L 502.47 282.27 L 502.57 282.22 L 502.93 280.73 L 503.16 280.73 L 503.53 280.61 L 504.19 280.61 L 514.29 280.60 L 514.90 280.52 L 514.92 280.53 L 515.77 280.53 L 515.81 280.53 L 516.11 280.53 L 516.45 280.50 L 516.45 280.50 L 516.49 280.50 L 516.94 279.64 L 517.98 279.61 L 518.05 279.61 L 518.15 279.61 L 518.31 279.58 L 518.35 279.55 L 518.41 279.55 L 518.90 279.51 L 519.28 279.51 L 519.49 279.51 L 519.52 279.51 L 519.95 279.49 L 520.28 279.39 L 520.30 279.39 L 520.34 279.39 L 520.39 279.39 L 531.35 279.18 L 531.37 279.18 L 531.40 279.18 L 531.61 279.18 L 531.78 279.18 L 532.74 278.33 L 532.98 278.27 L 533.68 278.21 L 534.28 278.16 L 534.72 278.16 L 534.85 278.16 L 535.40 276.87 L 535.61 276.83 L 535.68 276.79 L 537.30 275.88 L 537.32 275.88 L 537.41 275.87 L 537.71 275.86 L 537.72 275.86 L 537.73 275.86 L 537.79 275.83 L 537.93 275.79 L 538.11 275.69 L 539.79 274.19 L 540.01 274.11 L 540.16 274.11 L 540.18 274.11 L 540.21 274.11 L 547.68 274.11 L 547.92 274.10 L 548.06 274.10 L 548.12 274.10 L 548.82 274.10 L 548.97 274.10 L 549.10 274.10 L 549.18 274.07 L 549.41 272.10 L 549.45 272.09 L 549.77 272.10 L 549.84 272.09 L 550.10 271.32 L 550.16 271.28 L 550.38 270.78 L 550.55 270.78 L 550.67 270.74 L 550.95 270.28 L 550.98 270.28 L 551.35 268.82 L 551.38 268.82 L 551.44 268.81 L 551.51 268.81 L 551.55 268.81 L 551.97 267.34 L 552.57 267.21 L 552.87 267.21 L 553.86 267.17 L 553.88 267.17 L 554.03 267.17 L 554.10 267.17 L 554.21 267.17 L 554.33 267.17 L 554.47 267.15 L 554.76 267.13 L 555.04 267.13 L 555.93 267.07 L 555.97 267.07 L 556.85 267.03 L 557.23 266.99 L 564.78 267.01 L 565.16 266.93 L 565.35 266.86 L 565.44 266.86 L 565.46 266.86 L 565.65 266.85 L 565.74 266.85 L 565.96 266.85 L 566.10 266.84 L 566.59 266.71 L 566.84 266.45 L 567.27 266.43 L 567.39 266.25 L 567.53 266.17 L 567.72 266.09 L 568.37 266.17 L 568.43 266.17 L 569.38 265.90 L 569.53 265.90 L 569.72 265.90 L 570.18 265.87 L 570.40 266.00 L 570.51 266.00 L 570.60 266.00 L 570.73 266.00 L 571.13 265.37 L 571.56 265.36 L 571.94 265.35 L 571.98 265.35 L 572.03 265.35 L 599.35 265.35 L 599.53 265.31 L 615.25 265.09 L 615.33 265.09 L 615.46 265.04 L 615.47 265.04 L 615.52 265.04 L 616.08 262.60 L 616.14 262.60 L 616.83 262.60 L 617.54 262.49 L 617.78 262.25 L 618.22 261.93 L 618.81 261.85 L 618.82 261.85 L 618.90 261.80 L 619.13 261.80 L 619.20 261.75 L 619.77 261.10 L 620.50 260.99 L 620.58 260.99 L 620.95 260.99 L 621.06 260.99 L 621.34 260.82 L 621.58 260.80 L 622.06 260.66 L 622.51 260.59 L 622.74 260.59 L 622.75 260.59 L 632.59 260.59 L 635.68 260.54 L 635.80 260.52 L 635.96 260.23 L 636.45 260.24 L 636.66 260.24 L 636.82 260.24 L 636.92 260.12 L 637.15 260.03 L 637.19 260.02 L 637.53 259.79 L 637.64 259.62 L 637.70 259.57 L 637.89 259.46 L 637.95 259.46 L 638.05 259.44 L 638.12 259.30 L 638.21 259.15 L 638.30 259.11 L 638.37 259.11 L 638.69 259.05 L 638.85 258.94 L 638.98 258.84 L 639.02 258.84 L 639.38 258.84 L 639.52 258.84 L 648.79 258.87 L 649.47 258.85 L 649.58 258.85 L 650.00 258.44"/>
	</g>
	<g id="poloto_plot2" class="poloto_plot poloto_imgs poloto_line poloto2 poloto_stroke" fill="none" stroke="black">
		<path d=" M 150.00 392.35 L 150.02 392.34 L 150.04 392.34 L 150.05 392.34 L 150.07 392.34 L 150.09 390.38 L 150.20 390.11 L 150.43 390.11 L 150.78 390.10 L 150.96 388.93 L 151.32 388.82 L 151.38 388.79 L 151.43 388.76 L 151.84 388.23 L 152.62 387.82 L 152.87 387.74 L 152.93 387.75 L 153.41 387.72 L 153.95 387.72 L 153.95 387.72 L 153.96 387.72 L 161.29 387.72 L 161.34 387.71 L 161.44 387.70 L 161.48 387.70 L 161.75 387.58 L 161.88 387.55 L 162.19 387.35 L 162.24 387.27 L 162.32 387.10 L 162.42 387.07 L 162.44 387.07 L 162.52 387.04 L 162.60 387.04 L 162.68 387.04 L 162.89 386.85 L 163.07 386.66 L 163.10 386.66 L 163.19 386.56 L 163.77 386.32 L 163.78 386.32 L 163.85 386.25 L 164.19 385.99 L 164.45 385.67 L 164.75 385.54 L 164.82 385.54 L 164.83 385.54 L 164.88 385.36 L 165.00 385.36 L 165.14 385.34 L 165.43 385.21 L 165.45 384.98 L 165.50 384.98 L 165.57 384.87 L 165.74 384.87 L 165.75 384.87 L 165.92 384.52 L 165.99 384.50 L 166.05 384.47 L 166.12 384.31 L 167.01 384.22 L 167.23 384.18 L 167.73 383.95 L 167.83 383.95 L 167.91 383.93 L 167.95 383.76 L 168.30 382.80 L 168.45 382.78 L 168.62 382.50 L 168.71 382.47 L 168.92 382.34 L 169.01 382.30 L 169.13 382.09 L 169.24 381.92 L 169.64 381.92 L 169.65 381.90 L 169.67 381.76 L 169.80 380.84 L 176.60 380.74 L 177.31 380.46 L 177.33 380.42 L 178.16 380.19 L 178.23 380.19 L 178.31 380.02 L 178.51 379.90 L 178.61 379.69 L 178.64 379.52 L 178.75 379.17 L 178.99 379.17 L 179.00 379.17 L 179.09 378.93 L 179.18 378.92 L 179.29 378.67 L 179.42 378.47 L 179.47 378.36 L 179.49 378.36 L 179.61 378.13 L 179.63 378.12 L 179.76 377.91 L 179.78 377.90 L 179.97 377.83 L 180.00 377.83 L 180.07 377.75 L 180.15 377.74 L 180.27 377.74 L 180.32 377.72 L 180.70 377.51 L 180.71 377.52 L 180.78 377.10 L 180.95 377.09 L 181.10 376.96 L 181.15 376.96 L 181.22 376.96 L 181.26 376.92 L 181.34 376.35 L 181.77 375.87 L 181.82 375.61 L 181.96 375.58 L 182.00 375.52 L 182.04 375.51 L 182.11 375.38 L 182.17 374.93 L 182.33 374.86 L 182.43 374.85 L 182.52 374.62 L 182.57 374.62 L 182.95 374.45 L 183.16 374.33 L 183.22 374.22 L 183.40 374.21 L 183.42 374.21 L 183.43 374.19 L 183.55 373.37 L 183.64 373.37 L 183.95 373.25 L 184.00 372.92 L 184.06 372.92 L 184.15 372.78 L 184.16 372.70 L 184.19 372.65 L 184.22 372.62 L 184.27 372.61 L 184.31 372.55 L 184.43 371.63 L 184.53 371.53 L 184.62 371.26 L 184.74 371.24 L 184.88 371.15 L 185.01 370.86 L 185.11 370.06 L 185.31 370.00 L 185.31 369.66 L 185.43 369.58 L 194.92 369.58 L 195.10 369.58 L 195.55 369.20 L 195.64 369.20 L 195.72 369.20 L 195.73 369.10 L 195.89 368.94 L 196.01 368.91 L 196.07 368.82 L 196.14 368.75 L 196.18 368.71 L 196.35 368.66 L 196.69 368.74 L 196.78 368.48 L 196.84 368.42 L 196.92 368.41 L 197.36 368.36 L 197.42 368.32 L 197.45 368.32 L 197.48 368.27 L 197.58 368.23 L 197.65 368.13 L 197.97 367.89 L 198.43 367.79 L 198.60 367.75 L 199.10 367.60 L 199.35 367.23 L 199.43 367.16 L 199.53 366.87 L 199.68 366.50 L 199.91 366.40 L 200.24 366.39 L 200.67 366.37 L 200.73 366.24 L 201.04 366.14 L 201.25 366.02 L 201.31 365.93 L 201.43 365.89 L 201.53 365.64 L 202.65 365.52 L 203.72 365.52 L 213.28 365.49 L 213.35 365.35 L 213.40 365.26 L 213.69 365.12 L 214.59 364.87 L 214.63 364.84 L 214.75 364.66 L 215.19 364.59 L 215.40 364.11 L 215.71 364.10 L 215.79 364.08 L 215.86 363.60 L 216.41 363.16 L 216.48 363.15 L 216.59 363.13 L 216.72 363.09 L 216.77 362.93 L 217.08 362.18 L 217.19 361.99 L 217.25 361.98 L 217.31 361.90 L 217.45 361.61 L 217.51 360.87 L 217.65 360.56 L 218.06 360.39 L 218.10 360.02 L 218.14 360.02 L 218.21 359.95 L 218.31 359.85 L 218.35 359.82 L 218.39 359.78 L 218.59 358.92 L 218.63 358.41 L 218.88 358.31 L 219.02 357.45 L 219.11 357.28 L 219.85 355.93 L 219.94 355.90 L 248.03 355.51 L 248.05 355.51 L 258.79 355.39 L 259.37 355.25 L 259.49 355.25 L 259.65 355.18 L 259.70 355.07 L 259.76 355.04 L 264.42 355.03 L 265.03 353.47 L 265.26 353.34 L 265.38 352.80 L 268.28 352.73 L 268.30 352.68 L 268.48 352.67 L 269.35 352.58 L 269.40 352.40 L 269.51 352.33 L 269.81 352.25 L 269.85 352.23 L 269.97 351.93 L 270.10 351.84 L 270.12 351.61 L 279.15 351.31 L 279.21 350.60 L 279.57 350.42 L 279.58 350.15 L 279.64 349.94 L 279.72 349.61 L 279.82 348.75 L 279.97 348.28 L 280.10 347.68 L 280.21 347.67 L 280.26 347.20 L 280.44 347.17 L 281.07 346.73 L 281.32 346.52 L 281.36 346.39 L 281.41 346.39 L 281.45 346.23 L 281.53 345.70 L 281.79 345.65 L 281.82 345.65 L 281.98 345.30 L 282.04 345.30 L 282.06 345.10 L 282.12 344.98 L 282.16 344.97 L 282.19 344.70 L 282.39 344.53 L 282.48 344.26 L 282.59 344.24 L 282.66 344.10 L 282.70 343.89 L 282.89 343.77 L 282.95 343.65 L 282.99 343.65 L 283.04 343.65 L 283.07 343.43 L 283.09 343.44 L 283.11 343.44 L 283.21 343.36 L 283.24 343.12 L 283.34 343.12 L 283.41 343.06 L 283.61 343.05 L 283.86 343.02 L 283.87 343.02 L 283.94 343.01 L 284.17 343.00 L 284.28 343.00 L 284.39 343.00 L 284.50 342.97 L 284.58 342.68 L 284.90 342.68 L 284.93 342.51 L 284.97 342.51 L 284.99 342.32 L 285.20 342.25 L 285.24 342.20 L 285.39 342.20 L 299.27 342.15 L 300.06 342.07 L 300.09 342.07 L 300.24 342.07 L 300.26 342.07 L 300.36 341.74 L 300.43 341.73 L 300.50 341.63 L 300.60 341.58 L 300.63 341.55 L 300.66 341.53 L 300.81 341.50 L 301.11 341.44 L 301.30 340.99 L 301.51 340.96 L 301.52 340.93 L 301.56 340.55 L 301.59 340.55 L 302.00 340.55 L 302.01 340.51 L 302.07 340.17 L 302.25 340.12 L 302.36 340.11 L 302.39 340.10 L 302.39 340.06 L 302.44 340.03 L 302.47 339.68 L 302.49 339.67 L 302.59 339.67 L 302.60 339.64 L 302.82 339.61 L 303.41 339.59 L 303.55 339.56 L 303.60 339.55 L 303.62 339.44 L 303.66 339.44 L 303.74 339.04 L 313.23 338.91 L 313.25 338.80 L 313.33 338.72 L 313.35 338.70 L 313.40 338.36 L 313.51 338.28 L 313.52 338.26 L 313.69 338.25 L 313.73 338.25 L 313.76 337.91 L 313.92 337.87 L 314.33 337.86 L 314.34 337.84 L 314.44 337.65 L 314.48 337.66 L 314.50 337.34 L 314.85 337.34 L 314.86 337.33 L 315.38 337.25 L 315.44 336.87 L 315.62 336.87 L 315.84 336.87 L 315.89 336.59 L 315.93 336.38 L 316.03 336.37 L 316.30 336.32 L 316.34 336.31 L 316.46 336.22 L 316.59 336.22 L 316.99 336.22 L 317.03 336.22 L 317.13 336.20 L 317.13 336.20 L 317.26 336.20 L 317.56 336.17 L 317.87 336.14 L 317.92 336.14 L 317.99 336.10 L 318.08 336.00 L 318.32 336.00 L 318.72 335.87 L 318.85 335.66 L 319.07 335.64 L 319.94 335.41 L 320.13 335.41 L 320.27 335.40 L 320.49 335.40 L 320.56 335.38 L 320.77 335.27 L 321.12 335.25 L 321.16 335.15 L 321.23 335.10 L 321.27 335.11 L 321.30 335.07 L 321.57 335.05 L 327.86 335.05 L 327.92 335.05 L 328.31 335.05 L 328.35 335.04 L 328.43 334.72 L 328.51 334.71 L 328.52 334.71 L 328.73 334.70 L 328.78 334.68 L 330.07 334.22 L 330.22 334.17 L 330.34 334.16 L 330.36 334.16 L 330.76 334.15 L 330.90 334.21 L 330.92 334.21 L 331.13 334.18 L 331.37 333.74 L 331.40 333.73 L 331.59 333.72 L 331.67 333.72 L 331.75 333.72 L 331.91 333.63 L 332.26 333.23 L 332.33 333.23 L 332.39 333.17 L 332.53 332.81 L 332.88 332.40 L 333.19 332.43 L 333.25 332.22 L 333.56 332.22 L 333.62 332.19 L 333.67 332.17 L 333.70 331.96 L 333.81 331.95 L 333.84 331.95 L 333.89 331.95 L 334.07 331.95 L 334.34 331.78 L 334.51 331.76 L 334.70 331.76 L 334.79 331.76 L 334.98 331.76 L 335.30 331.76 L 335.62 331.76 L 335.86 331.76 L 335.91 331.76 L 335.98 331.75 L 335.98 331.68 L 336.16 331.63 L 336.22 331.63 L 336.29 331.61 L 336.81 331.61 L 336.82 331.40 L 336.96 331.40 L 337.56 331.41 L 337.96 331.40 L 338.25 331.36 L 338.26 331.27 L 338.28 331.27 L 347.09 331.14 L 347.12 331.13 L 347.22 331.12 L 347.27 330.99 L 347.30 330.99 L 347.31 330.99 L 347.68 330.95 L 347.77 330.53 L 347.88 330.43 L 348.07 329.60 L 348.19 329.60 L 348.34 329.24 L 348.42 329.28 L 348.46 329.28 L 348.51 328.83 L 348.62 328.75 L 348.63 328.43 L 348.67 328.39 L 348.76 328.36 L 348.83 328.20 L 348.91 330.06 L 349.01 330.03 L 349.23 329.29 L 349.32 329.12 L 349.41 328.96 L 349.95 328.66 L 350.41 328.35 L 350.97 327.91 L 351.11 327.86 L 351.27 327.86 L 351.44 327.82 L 354.68 327.60 L 354.95 327.58 L 385.63 327.00 L 482.24 326.98 L 482.56 326.71 L 482.78 326.67 L 483.00 326.67 L 483.34 326.44 L 483.46 326.16 L 483.54 325.65 L 483.70 325.51 L 483.92 325.56 L 484.10 325.26 L 484.14 325.26 L 484.29 325.16 L 484.32 325.17 L 484.48 324.67 L 484.63 323.90 L 485.06 323.83 L 485.08 323.75 L 485.20 322.77 L 485.62 322.73 L 485.63 322.63 L 485.71 322.57 L 485.81 321.68 L 486.26 321.64 L 486.27 321.51 L 486.37 321.45 L 486.47 320.86 L 486.64 320.84 L 486.65 320.75 L 486.72 319.77 L 486.74 319.75 L 486.78 319.72 L 486.97 319.72 L 486.99 319.62 L 487.06 319.55 L 487.26 319.45 L 487.30 319.45 L 487.46 319.40 L 487.73 319.44 L 487.77 319.39 L 487.81 319.37 L 487.86 319.34 L 487.99 318.33 L 488.13 318.31 L 488.15 318.22 L 488.23 317.18 L 488.32 316.81 L 488.34 316.67 L 488.42 316.17 L 488.46 315.29 L 488.63 315.28 L 488.65 315.23 L 488.73 315.05 L 488.85 315.05 L 489.54 315.02 L 489.89 314.99 L 497.43 315.03 L 497.51 314.84 L 497.59 314.69 L 497.71 313.99 L 498.00 313.98 L 498.02 313.91 L 498.07 313.02 L 498.25 313.02 L 498.27 312.93 L 499.92 312.84 L 500.02 312.52 L 500.85 312.37 L 500.94 312.33 L 501.04 311.35 L 502.04 311.07 L 502.47 310.84 L 502.57 310.10 L 502.93 310.10 L 503.16 309.68 L 503.53 309.05 L 504.19 308.67 L 514.29 308.67 L 514.90 308.65 L 514.92 308.65 L 515.77 308.51 L 515.81 308.43 L 516.11 308.37 L 516.45 307.55 L 516.45 307.55 L 516.49 307.51 L 516.94 307.34 L 517.98 306.79 L 518.05 306.74 L 518.15 306.73 L 518.31 306.50 L 518.35 306.46 L 518.41 306.42 L 518.90 306.42 L 519.28 306.42 L 519.49 306.42 L 519.52 306.38 L 519.95 305.54 L 520.28 305.47 L 520.30 305.40 L 520.34 305.33 L 520.39 305.12 L 531.35 304.96 L 531.37 304.94 L 531.40 304.93 L 531.61 304.82 L 531.78 304.72 L 532.74 304.25 L 532.98 304.15 L 533.68 303.79 L 534.28 303.74 L 534.72 303.59 L 534.85 302.36 L 535.40 302.15 L 535.61 302.09 L 535.68 301.20 L 537.30 300.35 L 537.32 300.35 L 537.41 299.95 L 537.71 299.91 L 537.72 299.91 L 537.73 299.81 L 537.79 299.70 L 537.93 299.61 L 538.11 299.01 L 539.79 298.69 L 540.01 298.55 L 540.16 298.22 L 540.18 298.18 L 540.21 297.97 L 547.68 297.19 L 547.92 296.63 L 548.06 296.61 L 548.12 296.23 L 548.82 296.08 L 548.97 295.68 L 549.10 295.68 L 549.18 294.85 L 549.41 294.66 L 549.45 294.63 L 549.77 294.58 L 549.84 293.90 L 550.10 293.82 L 550.16 293.28 L 550.38 293.23 L 550.55 292.92 L 550.67 292.32 L 550.95 292.20 L 550.98 291.59 L 551.35 292.97 L 551.38 292.97 L 551.44 292.19 L 551.51 292.19 L 551.55 292.12 L 551.97 292.05 L 552.57 291.72 L 552.87 291.89 L 553.86 291.87 L 553.88 291.86 L 554.03 291.85 L 554.10 291.83 L 554.21 291.72 L 554.33 291.63 L 554.47 291.48 L 554.76 291.29 L 555.04 291.27 L 555.93 291.18 L 555.97 291.17 L 556.85 291.07 L 557.23 291.01 L 564.78 290.98 L 565.16 290.93 L 565.35 290.93 L 565.44 290.93 L 565.46 290.93 L 565.65 290.92 L 565.74 290.89 L 565.96 290.74 L 566.10 290.72 L 566.59 290.71 L 566.84 290.64 L 567.27 290.60 L 567.39 290.58 L 567.53 290.51 L 567.72 290.42 L 568.37 290.39 L 568.43 290.37 L 569.38 290.22 L 569.53 289.98 L 569.72 289.89 L 570.18 289.74 L 570.40 289.66 L 570.51 290.01 L 570.60 290.00 L 570.73 289.86 L 571.13 289.55 L 571.56 289.46 L 571.94 289.39 L 571.98 289.36 L 572.03 289.12 L 599.35 289.07 L 599.53 289.01 L 615.25 288.94 L 615.33 289.28 L 615.46 287.89 L 615.47 287.89 L 615.52 287.93 L 616.08 287.40 L 616.14 287.37 L 616.83 287.43 L 617.54 287.37 L 617.78 287.32 L 618.22 287.27 L 618.81 287.12 L 618.82 287.12 L 618.90 287.10 L 619.13 287.05 L 619.20 286.94 L 619.77 286.87 L 620.50 286.82 L 620.58 286.68 L 620.95 286.61 L 621.06 287.22 L 621.34 287.17 L 621.58 287.14 L 622.06 287.11 L 622.51 287.11 L 622.74 286.82 L 622.75 286.82 L 632.59 286.81 L 635.68 286.07 L 635.80 285.70 L 635.96 285.61 L 636.45 285.58 L 636.66 285.44 L 636.82 283.59 L 636.92 282.60 L 637.15 282.56 L 637.19 282.54 L 637.53 282.41 L 637.64 282.36 L 637.70 282.31 L 637.89 282.08 L 637.95 282.07 L 638.05 282.04 L 638.12 281.99 L 638.21 281.93 L 638.30 281.84 L 638.37 281.81 L 638.69 281.77 L 638.85 281.67 L 638.98 281.64 L 639.02 281.04 L 639.38 280.91 L 639.52 280.58 L 648.79 280.64 L 649.47 280.45 L 649.58 280.45 L 650.00 280.09"/>
	</g>
	<g class="poloto_legend poloto_imgs poloto_line poloto0 poloto_stroke"><line x1="680" x2="730" y1="81.25" y2="81.25"/></g>
	<g class="poloto_legend poloto_imgs poloto_line poloto1 poloto_stroke"><line x1="680" x2="730" y1="131.25" y2="131.25"/></g>
	<g class="poloto_legend poloto_imgs poloto_line poloto2 poloto_stroke"><line x1="680" x2="730" y1="181.25" y2="181.25"/></g>
	<text class="poloto_legend poloto_text poloto_line poloto0" x="675" y="100">total</text>
	<text class="poloto_legend poloto_text poloto_line poloto1" x="675" y="150">code</text>
	<text class="poloto_legend poloto_text poloto_line poloto2" x="675" y="200">docs</text>
	<text class="poloto_text poloto_name poloto_title" x="400.00" y="37.50">Workspace lines over time</text>
	<text class="poloto_text poloto_name poloto_x" x="400.00" y="640">date (JST)</text>
	<text class="poloto_text poloto_name poloto_y" x="37.50" y="250.00" transform="rotate(-90,37.50,250.00)">lines</text>
	<text class="poloto_text poloto_ticks poloto_y">
		<tspan x="135.00" y="400.00">0</tspan>
		<tspan x="135.00" y="327.25">50K</tspan>
		<tspan x="135.00" y="254.50">100K</tspan>
		<tspan x="135.00" y="181.75">150K</tspan>
		<tspan x="135.00" y="109.00">200K</tspan>
	</text>
	<g class="poloto_imgs poloto_ticks poloto_y" stroke="black">
		<line x1="150.00" x2="144.00" y1="400.00" y2="400.00"/>
		<line x1="150.00" x2="144.00" y1="327.25" y2="327.25"/>
		<line x1="150.00" x2="144.00" y1="254.50" y2="254.50"/>
		<line x1="150.00" x2="144.00" y1="181.75" y2="181.75"/>
		<line x1="150.00" x2="144.00" y1="109.00" y2="109.00"/>
	</g>
	<g class="poloto_text poloto_ticks poloto_x">
		<text x="213.16" y="430.00" text-anchor="end" transform="rotate(-90 213.16 430.00)">2026-04-24 12:06</text>
		<text x="310.38" y="430.00" text-anchor="end" transform="rotate(-90 310.38 430.00)">2026-04-30 07:00</text>
		<text x="407.59" y="430.00" text-anchor="end" transform="rotate(-90 407.59 430.00)">2026-05-06 01:53</text>
		<text x="504.81" y="430.00" text-anchor="end" transform="rotate(-90 504.81 430.00)">2026-05-11 20:46</text>
		<text x="602.03" y="430.00" text-anchor="end" transform="rotate(-90 602.03 430.00)">2026-05-17 15:40</text>
	</g>
	<g class="poloto_imgs poloto_ticks poloto_x" stroke="black">
		<line x1="213.16" x2="213.16" y1="400.00" y2="405.00"/>
		<line x1="310.38" x2="310.38" y1="400.00" y2="405.00"/>
		<line x1="407.59" x2="407.59" y1="400.00" y2="405.00"/>
		<line x1="504.81" x2="504.81" y1="400.00" y2="405.00"/>
		<line x1="602.03" x2="602.03" y1="400.00" y2="405.00"/>
	</g>
	<path class="poloto_imgs poloto_ticks poloto_x" stroke="black" style="stroke-dasharray:9.72181984690078;stroke-dashoffset:-63.15741376258666;" d=" M 150.00 400.00 L 650.00 400.00"/>
	<path class="poloto_imgs poloto_ticks poloto_y" stroke="black" style="stroke-dasharray:7.275020006305017;stroke-dashoffset:-0;" d=" M 150.00 400.00 L 150.00 100.00"/>
</svg>

