<svg class="poloto" width="800" height="680" viewBox="0 0 800 680" xmlns="http://www.w3.org/2000/svg">
	<style>
.poloto{
  stroke-linecap:round;
  stroke-linejoin:round;
  font-family:Roboto,sans-serif;
  font-size:16px;
}
.poloto_background{fill:AliceBlue;}
.poloto_scatter{stroke-width:7}
.poloto_line{stroke-width:2}
.poloto_text{fill: black;}
.poloto_name{font-size:24px;dominant-baseline:auto;text-anchor:middle;}
.poloto_where{dominant-baseline:middle;text-anchor:start}
.poloto_text.poloto_legend{font-size:20px;dominant-baseline:middle;text-anchor:start;}
.poloto_text.poloto_ticks.poloto_y{dominant-baseline:middle;text-anchor:end}
.poloto_text.poloto_ticks.poloto_x{dominant-baseline:auto;text-anchor:middle}
.poloto_imgs.poloto_ticks{stroke: black;stroke-width:3;fill:none;stroke-dasharray:none}
.poloto_grid{stroke:gray;stroke-width:0.5}

.poloto0.poloto_stroke{stroke:blue;}
.poloto1.poloto_stroke{stroke:red;}
.poloto2.poloto_stroke{stroke:green;}
.poloto3.poloto_stroke{stroke:gold;}
.poloto4.poloto_stroke{stroke:aqua;}
.poloto5.poloto_stroke{stroke:lime;}
.poloto6.poloto_stroke{stroke:orange;}
.poloto7.poloto_stroke{stroke:chocolate;}
.poloto0.poloto_fill{fill:blue;}
.poloto1.poloto_fill{fill:red;}
.poloto2.poloto_fill{fill:green;}
.poloto3.poloto_fill{fill:gold;}
.poloto4.poloto_fill{fill:aqua;}
.poloto5.poloto_fill{fill:lime;}
.poloto6.poloto_fill{fill:orange;}
.poloto7.poloto_fill{fill:chocolate;}
	</style>
	<circle r="1e5" class="poloto_background" fill="white"/>
	<g id="poloto_plot0" class="poloto_plot poloto_imgs poloto_line poloto0 poloto_stroke" fill="none" stroke="black">
		<path d=" M 150.00 372.39 L 150.02 372.37 L 150.04 372.35 L 150.04 372.35 L 150.06 372.35 L 150.09 369.36 L 150.19 368.99 L 150.42 368.98 L 150.76 368.73 L 150.93 367.21 L 151.27 367.11 L 151.33 367.03 L 151.38 367.00 L 151.78 366.26 L 152.53 365.65 L 152.77 363.30 L 152.83 363.30 L 153.29 363.21 L 153.81 363.20 L 153.81 363.20 L 153.82 363.20 L 160.89 363.20 L 160.94 363.20 L 161.04 363.18 L 161.07 363.15 L 161.34 363.01 L 161.46 362.98 L 161.76 362.76 L 161.81 362.66 L 161.89 362.45 L 161.98 362.42 L 162.01 362.42 L 162.08 362.36 L 162.16 362.36 L 162.24 362.36 L 162.43 362.02 L 162.61 361.80 L 162.64 361.80 L 162.72 361.67 L 163.29 362.21 L 163.30 362.21 L 163.37 362.12 L 163.69 361.72 L 163.95 361.24 L 164.24 361.03 L 164.30 360.99 L 164.31 360.99 L 164.36 360.80 L 164.47 360.80 L 164.61 360.74 L 164.89 360.56 L 164.91 360.28 L 164.96 360.28 L 165.02 360.13 L 165.18 360.13 L 165.20 360.13 L 165.37 359.73 L 165.43 359.71 L 165.49 359.67 L 165.56 359.51 L 166.42 359.29 L 166.63 359.25 L 167.11 358.97 L 167.21 358.97 L 167.28 358.95 L 167.32 358.75 L 167.65 357.56 L 167.80 357.54 L 167.97 357.14 L 168.06 357.10 L 168.25 356.77 L 168.34 356.65 L 168.46 356.44 L 168.57 356.25 L 168.95 353.51 L 168.96 353.45 L 168.98 353.28 L 169.11 351.96 L 175.67 351.87 L 176.35 350.37 L 176.37 350.33 L 177.18 350.10 L 177.25 350.09 L 177.32 349.79 L 177.52 349.64 L 177.61 349.39 L 177.64 349.16 L 177.74 348.77 L 177.97 348.76 L 177.98 348.50 L 178.07 348.20 L 178.16 348.20 L 178.26 347.87 L 178.39 347.63 L 178.44 347.51 L 178.46 347.51 L 178.57 347.25 L 178.59 347.24 L 178.71 346.99 L 178.73 346.98 L 178.92 345.74 L 178.95 345.74 L 179.02 345.54 L 179.10 345.53 L 179.21 345.53 L 179.25 345.50 L 179.62 345.27 L 179.63 345.27 L 179.70 344.72 L 179.86 344.71 L 180.01 343.89 L 180.06 343.81 L 180.13 343.81 L 180.16 343.77 L 180.24 343.14 L 180.66 337.76 L 180.70 337.50 L 180.84 337.47 L 180.88 337.41 L 180.92 337.39 L 180.98 337.25 L 181.05 336.64 L 181.19 336.51 L 181.30 336.50 L 181.38 336.23 L 181.42 336.22 L 181.80 336.03 L 182.00 335.87 L 182.06 335.63 L 182.23 335.62 L 182.25 335.62 L 182.26 335.60 L 182.37 334.31 L 182.46 334.23 L 182.76 332.93 L 182.81 332.55 L 182.87 332.54 L 182.95 332.40 L 182.96 332.30 L 182.99 332.23 L 183.02 332.20 L 183.07 332.20 L 183.11 332.13 L 183.23 331.06 L 183.32 330.91 L 183.40 330.59 L 183.52 330.57 L 183.65 330.47 L 183.78 329.72 L 183.88 328.67 L 184.07 328.61 L 184.07 328.22 L 184.18 328.09 L 193.35 328.10 L 193.52 328.08 L 193.95 327.53 L 194.04 327.52 L 194.12 327.52 L 194.13 327.38 L 194.29 327.21 L 194.39 327.18 L 194.46 327.08 L 194.52 327.00 L 194.56 326.96 L 194.72 326.91 L 195.05 326.85 L 195.14 326.56 L 195.20 326.49 L 195.28 326.48 L 195.70 326.34 L 195.76 326.26 L 195.79 326.26 L 195.82 326.15 L 195.91 326.10 L 195.98 326.00 L 196.29 325.29 L 196.73 325.19 L 196.89 325.14 L 197.38 324.96 L 197.62 321.58 L 197.70 321.51 L 197.80 321.18 L 197.94 320.74 L 198.16 320.61 L 198.48 320.60 L 198.89 320.59 L 198.95 320.44 L 199.26 320.28 L 199.45 320.04 L 199.51 319.94 L 199.63 319.90 L 199.72 319.60 L 200.81 319.27 L 201.84 319.27 L 211.06 319.24 L 211.13 319.09 L 211.18 319.00 L 211.46 318.85 L 212.32 317.68 L 212.36 317.61 L 212.48 317.31 L 212.91 317.23 L 213.11 316.44 L 213.41 316.44 L 213.48 316.42 L 213.55 315.88 L 214.08 312.81 L 214.15 312.80 L 214.26 312.78 L 214.38 312.74 L 214.44 312.40 L 214.73 311.25 L 214.84 311.03 L 214.89 311.02 L 214.96 310.48 L 215.09 309.72 L 215.14 308.92 L 215.28 308.57 L 215.68 304.57 L 215.72 304.17 L 215.76 304.17 L 215.82 304.09 L 215.92 303.99 L 215.95 303.96 L 215.99 303.91 L 216.19 302.95 L 216.23 302.28 L 216.46 302.14 L 216.60 301.14 L 216.69 300.50 L 217.41 291.18 L 217.49 291.16 L 244.59 290.71 L 244.62 290.71 L 254.98 290.59 L 255.54 290.33 L 255.66 290.33 L 255.81 290.26 L 255.86 290.14 L 255.92 290.11 L 260.41 290.04 L 261.00 288.27 L 261.22 288.11 L 261.34 287.46 L 264.14 287.33 L 264.16 287.15 L 264.33 287.13 L 265.17 286.01 L 265.22 285.81 L 265.32 285.74 L 265.61 285.66 L 265.65 285.63 L 265.77 285.30 L 265.90 285.21 L 265.92 284.96 L 274.62 284.62 L 274.69 283.66 L 275.03 283.45 L 275.04 281.85 L 275.10 281.61 L 275.17 281.22 L 275.27 280.12 L 275.42 279.53 L 275.54 278.85 L 275.65 278.84 L 275.70 278.32 L 275.87 278.28 L 276.47 275.70 L 276.72 275.43 L 276.76 275.26 L 276.81 275.26 L 276.84 275.08 L 276.92 274.45 L 277.17 274.15 L 277.21 274.11 L 277.36 271.84 L 277.41 271.83 L 277.44 271.59 L 277.49 271.41 L 277.53 271.40 L 277.56 271.06 L 277.75 269.84 L 277.84 269.49 L 277.94 269.44 L 278.02 266.17 L 278.05 265.90 L 278.24 264.03 L 278.29 263.89 L 278.33 263.88 L 278.38 263.88 L 278.41 263.61 L 278.43 263.62 L 278.44 263.62 L 278.54 260.31 L 278.57 260.02 L 278.67 260.00 L 278.74 259.95 L 278.93 259.85 L 279.17 259.73 L 279.18 259.73 L 279.25 259.69 L 279.47 259.63 L 279.58 259.63 L 279.68 259.63 L 279.79 258.18 L 279.87 257.84 L 280.18 257.83 L 280.20 257.61 L 280.24 257.60 L 280.27 257.36 L 280.47 255.27 L 280.50 255.22 L 280.65 255.21 L 294.04 255.15 L 294.81 255.04 L 294.83 255.04 L 294.98 255.04 L 294.99 255.04 L 295.09 254.62 L 295.17 254.61 L 295.23 254.40 L 295.32 254.35 L 295.35 254.32 L 295.38 254.31 L 295.53 254.07 L 295.82 253.87 L 296.00 253.20 L 296.21 252.56 L 296.22 252.53 L 296.25 251.93 L 296.28 251.91 L 296.67 251.55 L 296.68 251.51 L 296.74 251.04 L 296.92 250.99 L 297.02 250.94 L 297.05 250.10 L 297.06 250.06 L 297.10 250.86 L 297.13 250.37 L 297.15 250.35 L 297.25 249.22 L 297.26 249.18 L 297.47 249.09 L 298.04 249.07 L 298.17 249.04 L 298.22 249.03 L 298.24 248.88 L 298.28 248.88 L 298.36 248.32 L 307.51 247.24 L 307.53 247.09 L 307.60 246.99 L 307.63 246.78 L 307.68 237.35 L 307.78 233.49 L 307.79 233.46 L 307.96 233.39 L 308.00 233.39 L 308.03 232.94 L 308.18 232.90 L 308.57 231.99 L 308.58 231.97 L 308.68 231.69 L 308.72 231.69 L 308.74 231.24 L 309.07 230.70 L 309.08 230.68 L 309.58 230.47 L 309.64 229.99 L 309.82 230.00 L 310.03 228.78 L 310.08 228.30 L 310.12 227.92 L 310.21 227.45 L 310.47 227.28 L 310.52 227.16 L 310.63 227.05 L 310.75 227.05 L 311.14 227.06 L 311.18 227.06 L 311.27 227.03 L 311.28 227.03 L 311.40 227.05 L 311.69 227.02 L 311.99 226.84 L 312.04 226.84 L 312.10 226.77 L 312.19 226.64 L 312.42 226.64 L 312.81 226.47 L 312.93 226.10 L 313.14 222.84 L 313.99 225.59 L 314.17 225.58 L 314.30 225.57 L 314.51 225.56 L 314.58 225.51 L 314.79 225.36 L 315.12 225.13 L 315.17 224.98 L 315.23 224.92 L 315.27 224.94 L 315.30 224.89 L 315.56 224.69 L 321.63 224.68 L 321.68 224.69 L 322.06 224.67 L 322.10 224.66 L 322.18 224.25 L 322.25 224.01 L 322.26 224.01 L 322.47 223.98 L 322.52 223.95 L 323.77 223.34 L 323.91 223.29 L 324.02 223.28 L 324.04 223.28 L 324.43 223.13 L 324.56 223.20 L 324.58 223.20 L 324.79 223.16 L 325.02 221.87 L 325.04 221.86 L 325.23 221.72 L 325.31 221.72 L 325.38 221.72 L 325.54 221.57 L 325.88 221.05 L 325.94 221.03 L 326.00 220.89 L 326.14 220.28 L 326.47 219.64 L 326.77 216.65 L 326.83 216.28 L 327.13 216.14 L 327.19 216.06 L 327.24 215.92 L 327.27 215.44 L 327.37 214.58 L 327.40 214.61 L 327.45 214.60 L 327.62 214.59 L 327.88 214.28 L 328.05 214.22 L 328.23 214.20 L 328.32 214.19 L 328.50 214.18 L 328.81 214.18 L 329.12 214.17 L 329.35 214.17 L 329.40 214.16 L 329.46 214.15 L 329.46 214.05 L 329.64 213.99 L 329.70 213.97 L 329.77 213.84 L 330.26 213.83 L 330.27 213.57 L 330.41 213.56 L 330.99 213.56 L 331.38 213.40 L 331.66 213.21 L 331.67 213.11 L 331.69 213.11 L 340.19 212.93 L 340.22 212.92 L 340.31 212.91 L 340.36 212.76 L 340.39 212.75 L 340.40 212.74 L 340.76 212.70 L 340.84 212.16 L 340.95 212.03 L 341.13 210.97 L 341.24 210.96 L 341.39 210.50 L 341.47 210.56 L 341.51 210.55 L 341.55 210.04 L 341.66 209.68 L 341.67 209.30 L 341.71 209.25 L 341.80 209.22 L 341.86 209.05 L 341.94 211.08 L 342.04 211.05 L 342.25 210.23 L 342.34 210.03 L 342.42 209.86 L 342.94 208.69 L 343.39 208.13 L 343.93 207.05 L 344.07 207.00 L 344.22 207.00 L 344.38 206.95 L 347.51 206.64 L 347.77 206.62 L 377.38 205.79 L 470.60 205.60 L 470.91 205.27 L 471.13 205.23 L 471.34 205.23 L 471.66 204.59 L 471.77 204.29 L 471.86 203.72 L 472.01 202.08 L 472.22 202.41 L 472.40 202.06 L 472.44 202.05 L 472.58 201.94 L 472.61 201.95 L 472.77 201.34 L 472.90 200.38 L 473.33 199.36 L 473.34 199.27 L 473.46 198.05 L 473.86 195.04 L 473.87 194.93 L 473.95 194.87 L 474.05 193.79 L 474.48 192.34 L 474.49 192.20 L 474.59 192.13 L 474.69 191.42 L 474.85 190.85 L 474.86 190.75 L 474.93 189.64 L 474.94 189.61 L 474.98 189.30 L 475.16 187.34 L 475.19 187.23 L 475.25 187.11 L 475.45 186.85 L 475.49 186.84 L 475.64 186.47 L 475.90 186.51 L 475.94 186.46 L 475.98 186.43 L 476.02 186.41 L 476.15 185.25 L 476.29 184.31 L 476.31 184.23 L 476.39 183.05 L 476.47 181.90 L 476.48 181.76 L 476.57 180.41 L 476.60 179.35 L 476.76 178.64 L 476.79 178.59 L 476.87 178.37 L 476.98 178.35 L 477.65 178.32 L 477.98 178.29 L 485.26 178.33 L 485.34 178.13 L 485.41 177.95 L 485.53 177.16 L 485.81 176.95 L 485.83 176.87 L 485.88 175.83 L 486.05 174.81 L 486.07 174.73 L 487.66 174.66 L 487.76 174.09 L 488.56 173.92 L 488.65 173.88 L 488.74 172.70 L 489.71 171.59 L 490.12 171.17 L 490.22 170.30 L 490.57 168.82 L 490.79 168.39 L 491.14 167.52 L 491.78 167.08 L 501.53 167.07 L 502.11 166.97 L 502.14 166.99 L 502.96 166.82 L 503.00 166.73 L 503.28 166.66 L 503.61 165.70 L 503.62 165.70 L 503.65 165.66 L 504.09 164.55 L 505.09 163.92 L 505.15 163.87 L 505.26 163.86 L 505.41 163.57 L 505.45 163.49 L 505.51 163.44 L 505.97 163.39 L 506.35 163.39 L 506.55 163.39 L 506.58 163.35 L 506.99 162.39 L 507.31 162.20 L 507.33 162.13 L 507.37 162.05 L 507.41 161.79 L 517.99 161.42 L 518.01 161.40 L 518.04 161.39 L 518.24 161.28 L 518.40 161.16 L 519.34 159.68 L 519.57 159.50 L 520.24 159.06 L 520.82 158.95 L 521.24 158.81 L 521.37 157.44 L 521.90 155.83 L 522.10 155.72 L 522.17 154.69 L 523.73 152.78 L 523.75 152.78 L 523.84 152.32 L 524.13 152.27 L 524.14 152.27 L 524.15 152.15 L 524.21 152.01 L 524.34 151.86 L 524.51 151.06 L 526.13 149.13 L 526.34 148.90 L 526.49 148.56 L 526.51 148.52 L 526.55 148.25 L 533.75 147.38 L 533.98 146.71 L 534.12 146.69 L 534.17 146.25 L 534.85 146.04 L 534.99 145.61 L 535.12 145.61 L 535.19 144.68 L 535.42 142.34 L 535.46 142.30 L 535.76 142.26 L 535.83 141.50 L 536.09 140.58 L 536.14 139.94 L 536.36 139.35 L 536.52 139.04 L 536.64 138.34 L 536.91 137.74 L 536.94 137.07 L 537.29 136.93 L 537.32 136.93 L 537.37 136.07 L 537.45 136.07 L 537.48 136.01 L 537.89 134.41 L 538.47 133.89 L 538.75 134.06 L 539.71 133.99 L 539.73 133.98 L 539.88 133.96 L 539.95 133.94 L 540.05 133.84 L 540.17 133.74 L 540.30 133.57 L 540.58 133.34 L 540.86 133.32 L 541.71 133.16 L 541.75 133.15 L 542.60 133.00 L 542.97 132.91 L 550.25 132.89 L 550.62 132.77 L 550.80 132.70 L 550.89 132.70 L 550.91 132.69 L 551.09 132.67 L 551.18 132.62 L 551.39 132.47 L 551.52 132.44 L 551.99 132.28 L 552.24 131.92 L 552.65 131.86 L 552.77 131.64 L 552.90 131.49 L 553.09 131.31 L 553.71 131.36 L 553.78 131.34 L 554.69 130.90 L 554.84 130.64 L 555.02 130.55 L 555.47 130.34 L 555.67 130.40 L 555.78 130.74 L 555.87 130.72 L 555.99 130.58 L 556.38 129.53 L 556.79 129.42 L 557.16 129.33 L 557.20 129.29 L 557.24 128.99 L 583.61 128.92 L 583.78 128.79 L 598.95 128.45 L 599.03 128.83 L 599.15 127.23 L 599.17 127.23 L 599.21 127.27 L 599.75 124.01 L 599.81 123.98 L 600.48 124.05 L 601.16 123.85 L 601.40 123.55 L 601.82 123.15 L 602.39 122.90 L 602.40 122.90 L 602.48 122.83 L 602.70 122.77 L 602.77 122.61 L 603.31 121.82 L 604.02 121.65 L 604.10 121.50 L 604.45 121.43 L 604.56 122.06 L 604.83 121.83 L 605.06 121.77 L 605.52 121.61 L 605.96 121.52 L 606.18 121.18 L 606.19 121.18 L 615.68 121.16 L 618.66 120.27 L 618.78 119.84 L 618.93 119.44 L 619.41 119.41 L 619.61 119.27 L 619.76 117.18 L 619.86 115.83 L 620.09 115.70 L 620.12 115.68 L 620.45 115.28 L 620.56 115.07 L 620.62 114.96 L 620.80 114.62 L 620.86 114.60 L 620.95 114.56 L 621.02 114.36 L 621.11 114.14 L 621.20 114.02 L 621.27 113.98 L 621.58 113.88 L 621.73 113.65 L 621.85 113.52 L 621.89 112.86 L 622.24 112.73 L 622.37 112.34 L 631.32 112.43 L 631.97 112.19 L 632.08 112.19 L 632.49 111.41 L 632.66 111.31 L 633.41 110.05 L 633.73 109.92 L 634.16 108.77 L 634.22 108.77 L 634.47 108.75 L 634.56 108.09 L 634.90 107.17 L 635.42 106.62 L 635.60 105.96 L 638.75 104.28 L 639.05 103.78 L 639.07 103.78 L 647.47 102.21 L 647.48 102.21 L 647.59 102.15 L 647.68 101.29 L 648.07 100.30 L 648.10 100.29 L 648.56 100.17 L 649.23 100.04 L 650.00 100.00"/>
	</g>
	<g id="poloto_plot1" class="poloto_plot poloto_imgs poloto_line poloto1 poloto_stroke" fill="none" stroke="black">
		<path d=" M 150.00 383.59 L 150.02 383.58 L 150.04 383.57 L 150.04 383.57 L 150.06 383.57 L 150.09 383.05 L 150.19 383.03 L 150.42 383.02 L 150.76 382.83 L 150.93 382.74 L 151.27 382.76 L 151.33 382.72 L 151.38 382.72 L 151.78 382.68 L 152.53 382.59 L 152.77 380.56 L 152.83 380.56 L 153.29 380.51 L 153.81 380.50 L 153.81 380.50 L 153.82 380.50 L 160.89 380.50 L 160.94 380.50 L 161.04 380.50 L 161.07 380.47 L 161.34 380.46 L 161.46 380.46 L 161.76 380.46 L 161.81 380.46 L 161.89 380.45 L 161.98 380.45 L 162.01 380.45 L 162.08 380.42 L 162.16 380.42 L 162.24 380.42 L 162.43 380.31 L 162.61 380.31 L 162.64 380.31 L 162.72 380.31 L 163.29 381.07 L 163.30 381.07 L 163.37 381.06 L 163.69 380.95 L 163.95 380.82 L 164.24 380.76 L 164.30 380.72 L 164.31 380.72 L 164.36 380.72 L 164.47 380.72 L 164.61 380.67 L 164.89 380.63 L 164.91 380.63 L 164.96 380.63 L 165.02 380.61 L 165.18 380.61 L 165.20 380.61 L 165.37 380.60 L 165.43 380.60 L 165.49 380.60 L 165.56 380.60 L 166.42 380.51 L 166.63 380.51 L 167.11 380.47 L 167.21 380.47 L 167.28 380.47 L 167.32 380.47 L 167.65 380.40 L 167.80 380.40 L 167.97 380.33 L 168.06 380.32 L 168.25 380.16 L 168.34 380.10 L 168.46 380.10 L 168.57 380.10 L 168.95 377.73 L 168.96 377.68 L 168.98 377.68 L 169.11 377.45 L 175.67 377.45 L 176.35 376.43 L 176.37 376.43 L 177.18 376.43 L 177.25 376.43 L 177.32 376.32 L 177.52 376.31 L 177.61 376.31 L 177.64 376.31 L 177.74 376.31 L 177.97 376.31 L 177.98 376.08 L 178.07 376.08 L 178.16 376.08 L 178.26 376.05 L 178.39 376.05 L 178.44 376.05 L 178.46 376.05 L 178.57 376.05 L 178.59 376.05 L 178.71 376.05 L 178.73 376.05 L 178.92 375.04 L 178.95 375.04 L 179.02 374.92 L 179.10 374.92 L 179.21 374.92 L 179.25 374.91 L 179.62 374.91 L 179.63 374.91 L 179.70 374.84 L 179.86 374.84 L 180.01 374.27 L 180.06 374.20 L 180.13 374.20 L 180.16 374.20 L 180.24 374.18 L 180.66 369.94 L 180.70 369.98 L 180.84 369.98 L 180.88 369.98 L 180.92 369.97 L 180.98 369.97 L 181.05 369.92 L 181.19 369.92 L 181.30 369.92 L 181.38 369.91 L 181.42 369.91 L 181.80 369.90 L 182.00 369.90 L 182.06 369.79 L 182.23 369.79 L 182.25 369.79 L 182.26 369.79 L 182.37 369.51 L 182.46 369.43 L 182.76 368.43 L 182.81 368.43 L 182.87 368.43 L 182.95 368.44 L 182.96 368.44 L 182.99 368.44 L 183.02 368.44 L 183.07 368.44 L 183.11 368.44 L 183.23 368.42 L 183.32 368.42 L 183.40 368.41 L 183.52 368.41 L 183.65 368.40 L 183.78 368.03 L 183.88 367.90 L 184.07 367.90 L 184.07 367.90 L 184.18 367.90 L 193.35 367.90 L 193.52 367.89 L 193.95 367.83 L 194.04 367.82 L 194.12 367.82 L 194.13 367.82 L 194.29 367.82 L 194.39 367.82 L 194.46 367.82 L 194.52 367.82 L 194.56 367.81 L 194.72 367.81 L 195.05 367.83 L 195.14 367.83 L 195.20 367.83 L 195.28 367.83 L 195.70 367.75 L 195.76 367.71 L 195.79 367.71 L 195.82 367.66 L 195.91 367.65 L 195.98 367.65 L 196.29 367.27 L 196.73 367.27 L 196.89 367.27 L 197.38 367.27 L 197.62 364.67 L 197.70 364.67 L 197.80 364.67 L 197.94 364.67 L 198.16 364.67 L 198.48 364.67 L 198.89 364.67 L 198.95 364.67 L 199.26 364.60 L 199.45 364.50 L 199.51 364.50 L 199.63 364.50 L 199.72 364.48 L 200.81 364.32 L 201.84 364.32 L 211.06 364.32 L 211.13 364.32 L 211.18 364.32 L 211.46 364.32 L 212.32 363.50 L 212.36 363.47 L 212.48 363.39 L 212.91 363.38 L 213.11 363.19 L 213.41 363.19 L 213.48 363.19 L 213.55 363.19 L 214.08 360.91 L 214.15 360.91 L 214.26 360.91 L 214.38 360.91 L 214.44 360.77 L 214.73 360.49 L 214.84 360.49 L 214.89 360.49 L 214.96 360.08 L 215.09 359.66 L 215.14 359.66 L 215.28 359.65 L 215.68 356.26 L 215.72 356.26 L 215.76 356.26 L 215.82 356.26 L 215.92 356.26 L 215.95 356.26 L 215.99 356.26 L 216.19 356.26 L 216.23 356.18 L 216.46 356.17 L 216.60 356.12 L 216.69 355.71 L 217.41 348.96 L 217.49 348.96 L 244.59 348.96 L 244.62 348.96 L 254.98 348.96 L 255.54 348.86 L 255.66 348.86 L 255.81 348.86 L 255.86 348.86 L 255.92 348.86 L 260.41 348.81 L 261.00 348.74 L 261.22 348.74 L 261.34 348.72 L 264.14 348.66 L 264.16 348.57 L 264.33 348.58 L 265.17 347.66 L 265.22 347.66 L 265.32 347.66 L 265.61 347.66 L 265.65 347.66 L 265.77 347.66 L 265.90 347.66 L 265.92 347.66 L 274.62 347.64 L 274.69 347.48 L 275.03 347.48 L 275.04 346.38 L 275.10 346.38 L 275.17 346.38 L 275.27 346.28 L 275.42 346.28 L 275.54 346.23 L 275.65 346.23 L 275.70 346.23 L 275.87 346.22 L 276.47 344.35 L 276.72 344.34 L 276.76 344.33 L 276.81 344.33 L 276.84 344.33 L 276.92 344.30 L 277.17 344.07 L 277.21 344.04 L 277.36 342.36 L 277.41 342.35 L 277.44 342.35 L 277.49 342.32 L 277.53 342.32 L 277.56 342.32 L 277.75 341.41 L 277.84 341.39 L 277.94 341.37 L 278.02 338.53 L 278.05 338.52 L 278.24 336.92 L 278.29 336.92 L 278.33 336.92 L 278.38 336.92 L 278.41 336.92 L 278.43 336.92 L 278.44 336.92 L 278.54 333.95 L 278.57 333.95 L 278.67 333.94 L 278.74 333.94 L 278.93 333.88 L 279.17 333.80 L 279.18 333.80 L 279.25 333.78 L 279.47 333.73 L 279.58 333.73 L 279.68 333.73 L 279.79 332.46 L 279.87 332.46 L 280.18 332.45 L 280.20 332.45 L 280.24 332.45 L 280.27 332.45 L 280.47 330.62 L 280.50 330.62 L 280.65 330.61 L 294.04 330.61 L 294.81 330.60 L 294.83 330.60 L 294.98 330.60 L 294.99 330.60 L 295.09 330.60 L 295.17 330.60 L 295.23 330.50 L 295.32 330.50 L 295.35 330.50 L 295.38 330.50 L 295.53 330.34 L 295.82 330.23 L 296.00 330.13 L 296.21 329.61 L 296.22 329.61 L 296.25 329.48 L 296.28 329.47 L 296.67 329.15 L 296.68 329.15 L 296.74 329.10 L 296.92 329.10 L 297.02 329.07 L 297.05 328.32 L 297.06 328.32 L 297.10 329.06 L 297.13 329.02 L 297.15 329.01 L 297.25 328.00 L 297.26 328.00 L 297.47 327.95 L 298.04 327.95 L 298.17 327.95 L 298.22 327.95 L 298.24 327.95 L 298.28 327.95 L 298.36 327.89 L 307.51 327.04 L 307.53 327.04 L 307.60 327.04 L 307.63 326.86 L 307.68 317.85 L 307.78 314.50 L 307.79 314.50 L 307.96 314.44 L 308.00 314.44 L 308.03 314.42 L 308.18 314.42 L 308.57 313.60 L 308.58 313.60 L 308.68 313.56 L 308.72 313.56 L 308.74 313.49 L 309.07 313.00 L 309.08 313.00 L 309.58 312.90 L 309.64 312.87 L 309.82 312.87 L 310.03 311.77 L 310.08 311.66 L 310.12 311.55 L 310.21 311.14 L 310.47 311.04 L 310.52 310.95 L 310.63 310.95 L 310.75 310.95 L 311.14 310.95 L 311.18 310.95 L 311.27 310.95 L 311.28 310.95 L 311.40 310.96 L 311.69 310.96 L 311.99 310.84 L 312.04 310.84 L 312.10 310.83 L 312.19 310.83 L 312.42 310.83 L 312.81 310.83 L 312.93 310.73 L 313.14 307.82 L 313.99 310.57 L 314.17 310.55 L 314.30 310.55 L 314.51 310.55 L 314.58 310.52 L 314.79 310.50 L 315.12 310.33 L 315.17 310.33 L 315.23 310.33 L 315.27 310.33 L 315.30 310.33 L 315.56 310.17 L 321.63 310.17 L 321.68 310.18 L 322.06 310.16 L 322.10 310.16 L 322.18 310.13 L 322.25 309.93 L 322.26 309.93 L 322.47 309.91 L 322.52 309.91 L 323.77 309.74 L 323.91 309.74 L 324.02 309.74 L 324.04 309.74 L 324.43 309.62 L 324.56 309.62 L 324.58 309.62 L 324.79 309.62 L 325.02 308.93 L 325.04 308.93 L 325.23 308.81 L 325.31 308.81 L 325.38 308.81 L 325.54 308.81 L 325.88 308.80 L 325.94 308.79 L 326.00 308.72 L 326.14 308.60 L 326.47 308.50 L 326.77 305.76 L 326.83 305.66 L 327.13 305.53 L 327.19 305.50 L 327.24 305.40 L 327.27 305.21 L 327.37 304.39 L 327.40 304.42 L 327.45 304.41 L 327.62 304.40 L 327.88 304.29 L 328.05 304.25 L 328.23 304.23 L 328.32 304.23 L 328.50 304.22 L 328.81 304.22 L 329.12 304.21 L 329.35 304.21 L 329.40 304.20 L 329.46 304.20 L 329.46 304.19 L 329.64 304.19 L 329.70 304.18 L 329.77 304.08 L 330.26 304.07 L 330.27 304.07 L 330.41 304.06 L 330.99 304.05 L 331.38 303.92 L 331.66 303.80 L 331.67 303.80 L 331.69 303.80 L 340.19 303.80 L 340.22 303.80 L 340.31 303.80 L 340.36 303.80 L 340.39 303.78 L 340.40 303.78 L 340.76 303.78 L 340.84 303.77 L 340.95 303.76 L 341.13 303.74 L 341.24 303.74 L 341.39 303.67 L 341.47 303.67 L 341.51 303.67 L 341.55 303.67 L 341.66 303.42 L 341.67 303.42 L 341.71 303.42 L 341.80 303.42 L 341.86 303.42 L 341.94 303.48 L 342.04 303.48 L 342.25 303.47 L 342.34 303.47 L 342.42 303.47 L 342.94 302.67 L 343.39 302.45 L 343.93 301.87 L 344.07 301.87 L 344.22 301.87 L 344.38 301.87 L 347.51 301.80 L 347.77 301.80 L 377.38 301.70 L 470.60 301.55 L 470.91 301.50 L 471.13 301.49 L 471.34 301.49 L 471.66 301.12 L 471.77 301.12 L 471.86 301.12 L 472.01 299.77 L 472.22 300.03 L 472.40 300.01 L 472.44 300.01 L 472.58 300.00 L 472.61 300.00 L 472.77 299.99 L 472.90 299.93 L 473.33 299.08 L 473.34 299.08 L 473.46 299.00 L 473.86 296.24 L 473.87 296.24 L 473.95 296.23 L 474.05 296.19 L 474.48 294.90 L 474.49 294.90 L 474.59 294.90 L 474.69 294.87 L 474.85 294.40 L 474.86 294.40 L 474.93 294.40 L 474.94 294.40 L 474.98 294.14 L 475.16 292.31 L 475.19 292.31 L 475.25 292.31 L 475.45 292.15 L 475.49 292.15 L 475.64 291.85 L 475.90 291.85 L 475.94 291.85 L 475.98 291.85 L 476.02 291.85 L 476.15 291.84 L 476.29 291.02 L 476.31 291.02 L 476.39 291.02 L 476.47 290.39 L 476.48 290.39 L 476.57 289.73 L 476.60 289.69 L 476.76 289.03 L 476.79 289.03 L 476.87 289.03 L 476.98 289.02 L 477.65 289.02 L 477.98 289.02 L 485.26 289.02 L 485.34 289.02 L 485.41 289.02 L 485.53 289.02 L 485.81 288.84 L 485.83 288.84 L 485.88 288.79 L 486.05 287.87 L 486.07 287.87 L 487.66 287.89 L 487.76 287.71 L 488.56 287.71 L 488.65 287.71 L 488.74 287.64 L 489.71 286.89 L 490.12 286.75 L 490.22 286.69 L 490.57 285.27 L 490.79 285.27 L 491.14 285.15 L 491.78 285.15 L 501.53 285.14 L 502.11 285.06 L 502.14 285.08 L 502.96 285.08 L 503.00 285.08 L 503.28 285.08 L 503.61 285.05 L 503.62 285.05 L 503.65 285.05 L 504.09 284.21 L 505.09 284.19 L 505.15 284.19 L 505.26 284.19 L 505.41 284.15 L 505.45 284.13 L 505.51 284.13 L 505.97 284.09 L 506.35 284.09 L 506.55 284.09 L 506.58 284.09 L 506.99 284.07 L 507.31 283.97 L 507.33 283.97 L 507.37 283.97 L 507.41 283.97 L 517.99 283.78 L 518.01 283.78 L 518.04 283.78 L 518.24 283.78 L 518.40 283.78 L 519.34 282.95 L 519.57 282.90 L 520.24 282.84 L 520.82 282.80 L 521.24 282.80 L 521.37 282.80 L 521.90 281.55 L 522.10 281.52 L 522.17 281.47 L 523.73 280.60 L 523.75 280.60 L 523.84 280.59 L 524.13 280.58 L 524.14 280.58 L 524.15 280.58 L 524.21 280.55 L 524.34 280.51 L 524.51 280.42 L 526.13 278.97 L 526.34 278.90 L 526.49 278.90 L 526.51 278.90 L 526.55 278.90 L 533.75 278.90 L 533.98 278.89 L 534.12 278.89 L 534.17 278.89 L 534.85 278.89 L 534.99 278.89 L 535.12 278.89 L 535.19 278.86 L 535.42 276.97 L 535.46 276.95 L 535.76 276.96 L 535.83 276.95 L 536.09 276.21 L 536.14 276.18 L 536.36 275.70 L 536.52 275.70 L 536.64 275.65 L 536.91 275.21 L 536.94 275.21 L 537.29 273.81 L 537.32 273.81 L 537.37 273.80 L 537.45 273.80 L 537.48 273.80 L 537.89 272.39 L 538.47 272.26 L 538.75 272.26 L 539.71 272.22 L 539.73 272.22 L 539.88 272.22 L 539.95 272.22 L 540.05 272.22 L 540.17 272.22 L 540.30 272.20 L 540.58 272.19 L 540.86 272.19 L 541.71 272.12 L 541.75 272.12 L 542.60 272.09 L 542.97 272.05 L 550.25 272.06 L 550.62 271.99 L 550.80 271.92 L 550.89 271.92 L 550.91 271.92 L 551.09 271.91 L 551.18 271.91 L 551.39 271.91 L 551.52 271.91 L 551.99 271.78 L 552.24 271.52 L 552.65 271.51 L 552.77 271.34 L 552.90 271.26 L 553.09 271.18 L 553.71 271.26 L 553.78 271.26 L 554.69 270.99 L 554.84 270.99 L 555.02 270.99 L 555.47 270.97 L 555.67 271.10 L 555.78 271.10 L 555.87 271.10 L 555.99 271.10 L 556.38 270.49 L 556.79 270.47 L 557.16 270.47 L 557.20 270.47 L 557.24 270.47 L 583.61 270.47 L 583.78 270.43 L 598.95 270.22 L 599.03 270.22 L 599.15 270.17 L 599.17 270.17 L 599.21 270.17 L 599.75 267.82 L 599.81 267.82 L 600.48 267.82 L 601.16 267.72 L 601.40 267.48 L 601.82 267.18 L 602.39 267.11 L 602.40 267.11 L 602.48 267.06 L 602.70 267.06 L 602.77 267.01 L 603.31 266.38 L 604.02 266.27 L 604.10 266.27 L 604.45 266.27 L 604.56 266.27 L 604.83 266.12 L 605.06 266.09 L 605.52 265.96 L 605.96 265.89 L 606.18 265.89 L 606.19 265.89 L 615.68 265.89 L 618.66 265.85 L 618.78 265.82 L 618.93 265.54 L 619.41 265.56 L 619.61 265.56 L 619.76 265.56 L 619.86 265.44 L 620.09 265.35 L 620.12 265.34 L 620.45 265.12 L 620.56 264.96 L 620.62 264.91 L 620.80 264.80 L 620.86 264.80 L 620.95 264.79 L 621.02 264.65 L 621.11 264.50 L 621.20 264.47 L 621.27 264.47 L 621.58 264.41 L 621.73 264.30 L 621.85 264.21 L 621.89 264.21 L 622.24 264.21 L 622.37 264.21 L 631.32 264.23 L 631.97 264.22 L 632.08 264.22 L 632.49 263.82 L 632.66 263.76 L 633.41 263.72 L 633.73 263.72 L 634.16 262.78 L 634.22 262.78 L 634.47 262.76 L 634.56 262.74 L 634.90 262.70 L 635.42 262.25 L 635.60 262.24 L 638.75 261.21 L 639.05 261.21 L 639.07 261.21 L 647.47 261.19 L 647.48 261.19 L 647.59 261.19 L 647.68 261.07 L 648.07 260.19 L 648.10 260.19 L 648.56 260.19 L 649.23 260.19 L 650.00 260.19"/>
	</g>
	<g id="poloto_plot2" class="poloto_plot poloto_imgs poloto_line poloto2 poloto_stroke" fill="none" stroke="black">
		<path d=" M 150.00 392.64 L 150.02 392.63 L 150.04 392.63 L 150.04 392.63 L 150.06 392.63 L 150.09 390.75 L 150.19 390.49 L 150.42 390.49 L 150.76 390.47 L 150.93 389.35 L 151.27 389.25 L 151.33 389.21 L 151.38 389.19 L 151.78 388.68 L 152.53 388.29 L 152.77 388.21 L 152.83 388.21 L 153.29 388.18 L 153.81 388.18 L 153.81 388.18 L 153.82 388.18 L 160.89 388.18 L 160.94 388.18 L 161.04 388.16 L 161.07 388.16 L 161.34 388.05 L 161.46 388.02 L 161.76 387.83 L 161.81 387.75 L 161.89 387.59 L 161.98 387.57 L 162.01 387.56 L 162.08 387.53 L 162.16 387.53 L 162.24 387.53 L 162.43 387.35 L 162.61 387.17 L 162.64 387.17 L 162.72 387.07 L 163.29 386.84 L 163.30 386.84 L 163.37 386.77 L 163.69 386.52 L 163.95 386.21 L 164.24 386.09 L 164.30 386.09 L 164.31 386.09 L 164.36 385.92 L 164.47 385.92 L 164.61 385.90 L 164.89 385.77 L 164.91 385.55 L 164.96 385.55 L 165.02 385.44 L 165.18 385.44 L 165.20 385.44 L 165.37 385.11 L 165.43 385.09 L 165.49 385.06 L 165.56 384.91 L 166.42 384.82 L 166.63 384.78 L 167.11 384.56 L 167.21 384.56 L 167.28 384.54 L 167.32 384.37 L 167.65 383.45 L 167.80 383.44 L 167.97 383.16 L 168.06 383.14 L 168.25 383.01 L 168.34 382.97 L 168.46 382.77 L 168.57 382.61 L 168.95 382.61 L 168.96 382.59 L 168.98 382.45 L 169.11 381.56 L 175.67 381.47 L 176.35 381.20 L 176.37 381.17 L 177.18 380.95 L 177.25 380.94 L 177.32 380.78 L 177.52 380.67 L 177.61 380.46 L 177.64 380.30 L 177.74 379.97 L 177.97 379.96 L 177.98 379.96 L 178.07 379.73 L 178.16 379.72 L 178.26 379.48 L 178.39 379.29 L 178.44 379.19 L 178.46 379.18 L 178.57 378.96 L 178.59 378.95 L 178.71 378.75 L 178.73 378.74 L 178.92 378.67 L 178.95 378.67 L 179.02 378.60 L 179.10 378.58 L 179.21 378.58 L 179.25 378.57 L 179.62 378.37 L 179.63 378.37 L 179.70 377.97 L 179.86 377.96 L 180.01 377.84 L 180.06 377.84 L 180.13 377.83 L 180.16 377.80 L 180.24 377.25 L 180.66 376.79 L 180.70 376.53 L 180.84 376.51 L 180.88 376.45 L 180.92 376.44 L 180.98 376.32 L 181.05 375.88 L 181.19 375.82 L 181.30 375.81 L 181.38 375.59 L 181.42 375.58 L 181.80 375.42 L 182.00 375.30 L 182.06 375.20 L 182.23 375.19 L 182.25 375.19 L 182.26 375.17 L 182.37 374.39 L 182.46 374.38 L 182.76 374.27 L 182.81 373.95 L 182.87 373.95 L 182.95 373.82 L 182.96 373.74 L 182.99 373.69 L 183.02 373.66 L 183.07 373.66 L 183.11 373.59 L 183.23 372.71 L 183.32 372.62 L 183.40 372.35 L 183.52 372.33 L 183.65 372.25 L 183.78 371.97 L 183.88 371.20 L 184.07 371.14 L 184.07 370.82 L 184.18 370.74 L 193.35 370.74 L 193.52 370.74 L 193.95 370.37 L 194.04 370.37 L 194.12 370.37 L 194.13 370.28 L 194.29 370.12 L 194.39 370.10 L 194.46 370.00 L 194.52 369.93 L 194.56 369.90 L 194.72 369.85 L 195.05 369.93 L 195.14 369.68 L 195.20 369.62 L 195.28 369.61 L 195.70 369.56 L 195.76 369.52 L 195.79 369.52 L 195.82 369.47 L 195.91 369.43 L 195.98 369.34 L 196.29 369.11 L 196.73 369.02 L 196.89 368.98 L 197.38 368.83 L 197.62 368.47 L 197.70 368.41 L 197.80 368.13 L 197.94 367.77 L 198.16 367.67 L 198.48 367.67 L 198.89 367.65 L 198.95 367.52 L 199.26 367.43 L 199.45 367.32 L 199.51 367.22 L 199.63 367.19 L 199.72 366.95 L 200.81 366.83 L 201.84 366.83 L 211.06 366.80 L 211.13 366.67 L 211.18 366.58 L 211.46 366.45 L 212.32 366.21 L 212.36 366.18 L 212.48 366.01 L 212.91 365.94 L 213.11 365.47 L 213.41 365.46 L 213.48 365.45 L 213.55 364.99 L 214.08 364.56 L 214.15 364.56 L 214.26 364.53 L 214.38 364.49 L 214.44 364.33 L 214.73 363.62 L 214.84 363.44 L 214.89 363.42 L 214.96 363.35 L 215.09 363.07 L 215.14 362.36 L 215.28 362.06 L 215.68 361.89 L 215.72 361.54 L 215.76 361.54 L 215.82 361.47 L 215.92 361.37 L 215.95 361.35 L 215.99 361.31 L 216.19 360.48 L 216.23 359.99 L 216.46 359.90 L 216.60 359.07 L 216.69 358.91 L 217.41 357.60 L 217.49 357.58 L 244.59 357.20 L 244.62 357.20 L 254.98 357.09 L 255.54 356.95 L 255.66 356.95 L 255.81 356.88 L 255.86 356.78 L 255.92 356.75 L 260.41 356.74 L 261.00 355.24 L 261.22 355.11 L 261.34 354.59 L 264.14 354.53 L 264.16 354.48 L 264.33 354.47 L 265.17 354.38 L 265.22 354.21 L 265.32 354.14 L 265.61 354.07 L 265.65 354.05 L 265.77 353.76 L 265.90 353.67 L 265.92 353.45 L 274.62 353.17 L 274.69 352.48 L 275.03 352.30 L 275.04 352.04 L 275.10 351.84 L 275.17 351.53 L 275.27 350.70 L 275.42 350.25 L 275.54 349.66 L 275.65 349.66 L 275.70 349.21 L 275.87 349.18 L 276.47 348.75 L 276.72 348.55 L 276.76 348.43 L 276.81 348.43 L 276.84 348.28 L 276.92 347.77 L 277.17 347.72 L 277.21 347.71 L 277.36 347.38 L 277.41 347.38 L 277.44 347.19 L 277.49 347.07 L 277.53 347.07 L 277.56 346.80 L 277.75 346.64 L 277.84 346.38 L 277.94 346.36 L 278.02 346.22 L 278.05 346.02 L 278.24 345.91 L 278.29 345.79 L 278.33 345.79 L 278.38 345.79 L 278.41 345.58 L 278.43 345.59 L 278.44 345.59 L 278.54 345.52 L 278.57 345.29 L 278.67 345.28 L 278.74 345.23 L 278.93 345.21 L 279.17 345.19 L 279.18 345.19 L 279.25 345.17 L 279.47 345.17 L 279.58 345.17 L 279.68 345.17 L 279.79 345.13 L 279.87 344.86 L 280.18 344.86 L 280.20 344.70 L 280.24 344.69 L 280.27 344.51 L 280.47 344.45 L 280.50 344.40 L 280.65 344.40 L 294.04 344.35 L 294.81 344.28 L 294.83 344.28 L 294.98 344.27 L 294.99 344.28 L 295.09 343.95 L 295.17 343.94 L 295.23 343.85 L 295.32 343.80 L 295.35 343.77 L 295.38 343.76 L 295.53 343.73 L 295.82 343.66 L 296.00 343.23 L 296.21 343.20 L 296.22 343.18 L 296.25 342.81 L 296.28 342.81 L 296.67 342.81 L 296.68 342.78 L 296.74 342.44 L 296.92 342.40 L 297.02 342.38 L 297.05 342.38 L 297.06 342.34 L 297.10 342.31 L 297.13 341.97 L 297.15 341.96 L 297.25 341.96 L 297.26 341.94 L 297.47 341.90 L 298.04 341.89 L 298.17 341.86 L 298.22 341.85 L 298.24 341.74 L 298.28 341.74 L 298.36 341.35 L 307.51 341.23 L 307.53 341.12 L 307.60 341.05 L 307.63 341.03 L 307.68 340.71 L 307.78 340.62 L 307.79 340.60 L 307.96 340.60 L 308.00 340.60 L 308.03 340.27 L 308.18 340.23 L 308.57 340.22 L 308.58 340.20 L 308.68 340.02 L 308.72 340.03 L 308.74 339.73 L 309.07 339.73 L 309.08 339.71 L 309.58 339.63 L 309.64 339.27 L 309.82 339.27 L 310.03 339.27 L 310.08 339.00 L 310.12 338.80 L 310.21 338.79 L 310.47 338.74 L 310.52 338.73 L 310.63 338.64 L 310.75 338.64 L 311.14 338.65 L 311.18 338.65 L 311.27 338.63 L 311.28 338.63 L 311.40 338.63 L 311.69 338.60 L 311.99 338.57 L 312.04 338.56 L 312.10 338.53 L 312.19 338.43 L 312.42 338.43 L 312.81 338.31 L 312.93 338.11 L 313.14 338.08 L 313.99 337.86 L 314.17 337.86 L 314.30 337.86 L 314.51 337.85 L 314.58 337.84 L 314.79 337.73 L 315.12 337.71 L 315.17 337.61 L 315.23 337.56 L 315.27 337.58 L 315.30 337.54 L 315.56 337.52 L 321.63 337.52 L 321.68 337.52 L 322.06 337.52 L 322.10 337.51 L 322.18 337.20 L 322.25 337.19 L 322.26 337.19 L 322.47 337.18 L 322.52 337.17 L 323.77 336.72 L 323.91 336.67 L 324.02 336.66 L 324.04 336.66 L 324.43 336.65 L 324.56 336.71 L 324.58 336.71 L 324.79 336.68 L 325.02 336.26 L 325.04 336.25 L 325.23 336.24 L 325.31 336.24 L 325.38 336.24 L 325.54 336.15 L 325.88 335.77 L 325.94 335.77 L 326.00 335.71 L 326.14 335.36 L 326.47 334.97 L 326.77 335.00 L 326.83 334.79 L 327.13 334.79 L 327.19 334.77 L 327.24 334.75 L 327.27 334.55 L 327.37 334.54 L 327.40 334.54 L 327.45 334.54 L 327.62 334.54 L 327.88 334.38 L 328.05 334.36 L 328.23 334.36 L 328.32 334.36 L 328.50 334.36 L 328.81 334.36 L 329.12 334.36 L 329.35 334.36 L 329.40 334.35 L 329.46 334.35 L 329.46 334.28 L 329.64 334.23 L 329.70 334.23 L 329.77 334.21 L 330.26 334.21 L 330.27 334.01 L 330.41 334.01 L 330.99 334.02 L 331.38 334.01 L 331.66 333.97 L 331.67 333.89 L 331.69 333.89 L 340.19 333.75 L 340.22 333.75 L 340.31 333.74 L 340.36 333.62 L 340.39 333.62 L 340.40 333.61 L 340.76 333.57 L 340.84 333.17 L 340.95 333.08 L 341.13 332.28 L 341.24 332.27 L 341.39 331.93 L 341.47 331.97 L 341.51 331.97 L 341.55 331.53 L 341.66 331.46 L 341.67 331.16 L 341.71 331.11 L 341.80 331.08 L 341.86 330.93 L 341.94 332.72 L 342.04 332.69 L 342.25 331.97 L 342.34 331.82 L 342.42 331.66 L 342.94 331.37 L 343.39 331.07 L 343.93 330.65 L 344.07 330.60 L 344.22 330.60 L 344.38 330.56 L 347.51 330.35 L 347.77 330.33 L 377.38 329.77 L 470.60 329.75 L 470.91 329.50 L 471.13 329.46 L 471.34 329.46 L 471.66 329.23 L 471.77 328.97 L 471.86 328.48 L 472.01 328.34 L 472.22 328.39 L 472.40 328.10 L 472.44 328.10 L 472.58 328.01 L 472.61 328.01 L 472.77 327.53 L 472.90 326.80 L 473.33 326.73 L 473.34 326.65 L 473.46 325.70 L 473.86 325.67 L 473.87 325.57 L 473.95 325.52 L 474.05 324.66 L 474.48 324.62 L 474.49 324.49 L 474.59 324.44 L 474.69 323.87 L 474.85 323.85 L 474.86 323.76 L 474.93 322.82 L 474.94 322.80 L 474.98 322.77 L 475.16 322.77 L 475.19 322.67 L 475.25 322.60 L 475.45 322.52 L 475.49 322.51 L 475.64 322.46 L 475.90 322.50 L 475.94 322.46 L 475.98 322.44 L 476.02 322.40 L 476.15 321.43 L 476.29 321.41 L 476.31 321.33 L 476.39 320.33 L 476.47 319.97 L 476.48 319.84 L 476.57 319.35 L 476.60 318.51 L 476.76 318.50 L 476.79 318.45 L 476.87 318.28 L 476.98 318.28 L 477.65 318.25 L 477.98 318.23 L 485.26 318.26 L 485.34 318.07 L 485.41 317.93 L 485.53 317.26 L 485.81 317.25 L 485.83 317.18 L 485.88 316.33 L 486.05 316.32 L 486.07 316.24 L 487.66 316.16 L 487.76 315.85 L 488.56 315.70 L 488.65 315.67 L 488.74 314.72 L 489.71 314.45 L 490.12 314.23 L 490.22 313.52 L 490.57 313.51 L 490.79 313.12 L 491.14 312.51 L 491.78 312.14 L 501.53 312.14 L 502.11 312.13 L 502.14 312.13 L 502.96 311.99 L 503.00 311.91 L 503.28 311.86 L 503.61 311.06 L 503.62 311.06 L 503.65 311.03 L 504.09 310.86 L 505.09 310.34 L 505.15 310.28 L 505.26 310.28 L 505.41 310.05 L 505.45 310.02 L 505.51 309.98 L 505.97 309.98 L 506.35 309.98 L 506.55 309.98 L 506.58 309.94 L 506.99 309.14 L 507.31 309.06 L 507.33 309.00 L 507.37 308.93 L 507.41 308.73 L 517.99 308.58 L 518.01 308.56 L 518.04 308.54 L 518.24 308.44 L 518.40 308.34 L 519.34 307.89 L 519.57 307.80 L 520.24 307.45 L 520.82 307.40 L 521.24 307.26 L 521.37 306.07 L 521.90 305.87 L 522.10 305.81 L 522.17 304.95 L 523.73 304.13 L 523.75 304.13 L 523.84 303.75 L 524.13 303.72 L 524.14 303.72 L 524.15 303.62 L 524.21 303.52 L 524.34 303.43 L 524.51 302.85 L 526.13 302.54 L 526.34 302.41 L 526.49 302.09 L 526.51 302.05 L 526.55 301.85 L 533.75 301.10 L 533.98 300.56 L 534.12 300.54 L 534.17 300.18 L 534.85 300.03 L 534.99 299.65 L 535.12 299.65 L 535.19 298.85 L 535.42 298.66 L 535.46 298.64 L 535.76 298.59 L 535.83 297.94 L 536.09 297.85 L 536.14 297.34 L 536.36 297.29 L 536.52 296.99 L 536.64 296.41 L 536.91 296.30 L 536.94 295.71 L 537.29 297.04 L 537.32 297.04 L 537.37 296.29 L 537.45 296.29 L 537.48 296.23 L 537.89 296.15 L 538.47 295.84 L 538.75 296.00 L 539.71 295.98 L 539.73 295.97 L 539.88 295.96 L 539.95 295.94 L 540.05 295.84 L 540.17 295.75 L 540.30 295.61 L 540.58 295.42 L 540.86 295.41 L 541.71 295.32 L 541.75 295.31 L 542.60 295.21 L 542.97 295.15 L 550.25 295.12 L 550.62 295.08 L 550.80 295.08 L 550.89 295.08 L 550.91 295.08 L 551.09 295.06 L 551.18 295.03 L 551.39 294.90 L 551.52 294.88 L 551.99 294.87 L 552.24 294.80 L 552.65 294.76 L 552.77 294.74 L 552.90 294.67 L 553.09 294.59 L 553.71 294.55 L 553.78 294.54 L 554.69 294.40 L 554.84 294.16 L 555.02 294.07 L 555.47 293.93 L 555.67 293.86 L 555.78 294.19 L 555.87 294.18 L 555.99 294.05 L 556.38 293.75 L 556.79 293.66 L 557.16 293.60 L 557.20 293.56 L 557.24 293.33 L 583.61 293.29 L 583.78 293.23 L 598.95 293.16 L 599.03 293.49 L 599.15 292.16 L 599.17 292.16 L 599.21 292.19 L 599.75 291.68 L 599.81 291.65 L 600.48 291.71 L 601.16 291.65 L 601.40 291.61 L 601.82 291.55 L 602.39 291.41 L 602.40 291.41 L 602.48 291.39 L 602.70 291.34 L 602.77 291.24 L 603.31 291.17 L 604.02 291.12 L 604.10 290.98 L 604.45 290.92 L 604.56 291.51 L 604.83 291.46 L 605.06 291.43 L 605.52 291.40 L 605.96 291.40 L 606.18 291.12 L 606.19 291.12 L 615.68 291.11 L 618.66 290.40 L 618.78 290.05 L 618.93 289.96 L 619.41 289.93 L 619.61 289.80 L 619.76 288.02 L 619.86 287.06 L 620.09 287.03 L 620.12 287.01 L 620.45 286.88 L 620.56 286.84 L 620.62 286.78 L 620.80 286.57 L 620.86 286.55 L 620.95 286.52 L 621.02 286.47 L 621.11 286.42 L 621.20 286.33 L 621.27 286.30 L 621.58 286.27 L 621.73 286.17 L 621.85 286.14 L 621.89 285.56 L 622.24 285.44 L 622.37 285.12 L 631.32 285.18 L 631.97 285.00 L 632.08 284.99 L 632.49 284.65 L 632.66 284.62 L 633.41 283.56 L 633.73 283.46 L 634.16 283.33 L 634.22 283.33 L 634.47 283.32 L 634.56 282.77 L 634.90 282.04 L 635.42 281.96 L 635.60 281.40 L 638.75 281.00 L 639.05 280.59 L 639.07 280.59 L 647.47 279.20 L 647.48 279.20 L 647.59 279.14 L 647.68 278.53 L 648.07 278.48 L 648.10 278.47 L 648.56 278.36 L 649.23 278.24 L 650.00 278.20"/>
	</g>
	<g class="poloto_legend poloto_imgs poloto_line poloto0 poloto_stroke"><line x1="680" x2="730" y1="81.25" y2="81.25"/></g>
	<g class="poloto_legend poloto_imgs poloto_line poloto1 poloto_stroke"><line x1="680" x2="730" y1="131.25" y2="131.25"/></g>
	<g class="poloto_legend poloto_imgs poloto_line poloto2 poloto_stroke"><line x1="680" x2="730" y1="181.25" y2="181.25"/></g>
	<text class="poloto_legend poloto_text poloto_line poloto0" x="675" y="100">total</text>
	<text class="poloto_legend poloto_text poloto_line poloto1" x="675" y="150">code</text>
	<text class="poloto_legend poloto_text poloto_line poloto2" x="675" y="200">docs</text>
	<text class="poloto_text poloto_name poloto_title" x="400.00" y="37.50">Workspace lines over time</text>
	<text class="poloto_text poloto_name poloto_x" x="400.00" y="640">date (JST)</text>
	<text class="poloto_text poloto_name poloto_y" x="37.50" y="250.00" transform="rotate(-90,37.50,250.00)">lines</text>
	<text class="poloto_text poloto_ticks poloto_y">
		<tspan x="135.00" y="400.00">0</tspan>
		<tspan x="135.00" y="330.02">50K</tspan>
		<tspan x="135.00" y="260.03">100K</tspan>
		<tspan x="135.00" y="190.05">150K</tspan>
		<tspan x="135.00" y="120.06">200K</tspan>
	</text>
	<g class="poloto_imgs poloto_ticks poloto_y" stroke="black">
		<line x1="150.00" x2="144.00" y1="400.00" y2="400.00"/>
		<line x1="150.00" x2="144.00" y1="330.02" y2="330.02"/>
		<line x1="150.00" x2="144.00" y1="260.03" y2="260.03"/>
		<line x1="150.00" x2="144.00" y1="190.05" y2="190.05"/>
		<line x1="150.00" x2="144.00" y1="120.06" y2="120.06"/>
	</g>
	<g class="poloto_text poloto_ticks poloto_x">
		<text x="210.95" y="430.00" text-anchor="end" transform="rotate(-90 210.95 430.00)">2026-04-24 12:06</text>
		<text x="304.76" y="430.00" text-anchor="end" transform="rotate(-90 304.76 430.00)">2026-04-30 07:00</text>
		<text x="398.57" y="430.00" text-anchor="end" transform="rotate(-90 398.57 430.00)">2026-05-06 01:53</text>
		<text x="492.38" y="430.00" text-anchor="end" transform="rotate(-90 492.38 430.00)">2026-05-11 20:46</text>
		<text x="586.20" y="430.00" text-anchor="end" transform="rotate(-90 586.20 430.00)">2026-05-17 15:40</text>
	</g>
	<g class="poloto_imgs poloto_ticks poloto_x" stroke="black">
		<line x1="210.95" x2="210.95" y1="400.00" y2="405.00"/>
		<line x1="304.76" x2="304.76" y1="400.00" y2="405.00"/>
		<line x1="398.57" x2="398.57" y1="400.00" y2="405.00"/>
		<line x1="492.38" x2="492.38" y1="400.00" y2="405.00"/>
		<line x1="586.20" x2="586.20" y1="400.00" y2="405.00"/>
	</g>
	<path class="poloto_imgs poloto_ticks poloto_x" stroke="black" style="stroke-dasharray:9.381278420582976;stroke-dashoffset:-60.94510000816081;" d=" M 150.00 400.00 L 650.00 400.00"/>
	<path class="poloto_imgs poloto_ticks poloto_y" stroke="black" style="stroke-dasharray:6.998423022012373;stroke-dashoffset:-0;" d=" M 150.00 400.00 L 150.00 100.00"/>
</svg>

