<svg class="poloto" width="800" height="680" viewBox="0 0 800 680" xmlns="http://www.w3.org/2000/svg">
	<style>
.poloto{
  stroke-linecap:round;
  stroke-linejoin:round;
  font-family:Roboto,sans-serif;
  font-size:16px;
}
.poloto_background{fill:AliceBlue;}
.poloto_scatter{stroke-width:7}
.poloto_line{stroke-width:2}
.poloto_text{fill: black;}
.poloto_name{font-size:24px;dominant-baseline:auto;text-anchor:middle;}
.poloto_where{dominant-baseline:middle;text-anchor:start}
.poloto_text.poloto_legend{font-size:20px;dominant-baseline:middle;text-anchor:start;}
.poloto_text.poloto_ticks.poloto_y{dominant-baseline:middle;text-anchor:end}
.poloto_text.poloto_ticks.poloto_x{dominant-baseline:auto;text-anchor:middle}
.poloto_imgs.poloto_ticks{stroke: black;stroke-width:3;fill:none;stroke-dasharray:none}
.poloto_grid{stroke:gray;stroke-width:0.5}

.poloto0.poloto_stroke{stroke:blue;}
.poloto1.poloto_stroke{stroke:red;}
.poloto2.poloto_stroke{stroke:green;}
.poloto3.poloto_stroke{stroke:gold;}
.poloto4.poloto_stroke{stroke:aqua;}
.poloto5.poloto_stroke{stroke:lime;}
.poloto6.poloto_stroke{stroke:orange;}
.poloto7.poloto_stroke{stroke:chocolate;}
.poloto0.poloto_fill{fill:blue;}
.poloto1.poloto_fill{fill:red;}
.poloto2.poloto_fill{fill:green;}
.poloto3.poloto_fill{fill:gold;}
.poloto4.poloto_fill{fill:aqua;}
.poloto5.poloto_fill{fill:lime;}
.poloto6.poloto_fill{fill:orange;}
.poloto7.poloto_fill{fill:chocolate;}
	</style>
	<circle r="1e5" class="poloto_background" fill="white"/>
	<g id="poloto_plot0" class="poloto_plot poloto_imgs poloto_line poloto0 poloto_stroke" fill="none" stroke="black">
		<path d=" M 150.00 361.43 L 150.04 361.40 L 150.06 361.38 L 150.07 361.38 L 150.10 361.38 L 150.14 357.19 L 150.29 356.69 L 150.64 356.66 L 151.16 356.32 L 151.42 354.19 L 151.95 354.06 L 152.04 353.95 L 152.11 353.90 L 152.73 352.86 L 153.88 352.02 L 154.25 348.73 L 154.34 348.74 L 155.04 348.61 L 155.84 348.59 L 155.85 348.59 L 155.85 348.59 L 166.70 348.59 L 166.78 348.59 L 166.92 348.56 L 166.98 348.52 L 167.39 348.33 L 167.58 348.28 L 168.03 347.98 L 168.10 347.84 L 168.23 347.55 L 168.37 347.50 L 168.41 347.50 L 168.52 347.42 L 168.64 347.42 L 168.76 347.42 L 169.06 346.94 L 169.33 346.64 L 169.38 346.64 L 169.51 346.46 L 170.37 347.21 L 170.39 347.21 L 170.50 347.08 L 170.99 346.52 L 171.38 345.85 L 171.83 345.56 L 171.92 345.50 L 171.93 345.51 L 172.02 345.24 L 172.19 345.24 L 172.40 345.15 L 172.83 344.90 L 172.85 344.51 L 172.93 344.51 L 173.03 344.30 L 173.28 344.30 L 173.30 344.30 L 173.56 343.74 L 173.66 343.71 L 173.75 343.67 L 173.85 343.44 L 175.17 343.14 L 175.49 343.07 L 176.22 342.68 L 176.38 342.68 L 176.50 342.66 L 176.56 342.37 L 177.06 340.71 L 177.29 340.68 L 177.55 340.13 L 177.68 340.07 L 177.99 339.61 L 178.12 339.45 L 178.30 339.15 L 178.47 338.89 L 179.05 335.06 L 179.07 334.96 L 179.10 334.74 L 179.30 332.90 L 189.36 332.76 L 190.40 330.66 L 190.43 330.61 L 191.66 330.28 L 191.77 330.27 L 191.88 329.86 L 192.18 329.65 L 192.32 329.29 L 192.37 328.98 L 192.52 328.43 L 192.89 328.42 L 192.90 328.05 L 193.03 327.64 L 193.17 327.63 L 193.33 327.17 L 193.52 326.84 L 193.60 326.68 L 193.63 326.67 L 193.80 326.31 L 193.83 326.30 L 194.02 325.94 L 194.05 325.93 L 194.34 324.20 L 194.39 324.20 L 194.49 323.91 L 194.61 323.90 L 194.77 323.90 L 194.85 323.86 L 195.41 323.54 L 195.42 323.55 L 195.53 322.78 L 195.78 322.76 L 196.01 321.61 L 196.08 321.51 L 196.19 321.50 L 196.24 321.45 L 196.37 320.56 L 197.00 313.05 L 197.07 312.69 L 197.28 312.65 L 197.35 312.56 L 197.40 312.54 L 197.50 312.34 L 197.60 311.49 L 197.82 311.31 L 197.98 311.29 L 198.10 310.92 L 198.17 310.91 L 198.74 310.63 L 199.05 310.42 L 199.15 310.08 L 199.41 310.06 L 199.43 310.06 L 199.46 310.03 L 199.63 308.23 L 199.76 308.12 L 200.23 306.30 L 200.30 305.77 L 200.39 305.76 L 200.51 305.56 L 200.53 305.42 L 200.58 305.33 L 200.63 305.29 L 200.69 305.28 L 200.75 305.18 L 200.94 303.70 L 201.08 303.48 L 201.21 303.04 L 201.39 303.01 L 201.59 302.87 L 201.79 301.82 L 201.94 300.35 L 202.23 300.27 L 202.23 299.73 L 202.41 299.55 L 216.45 299.55 L 216.72 299.53 L 217.38 298.76 L 217.52 298.74 L 217.63 298.74 L 217.65 298.55 L 217.89 298.31 L 218.06 298.27 L 218.16 298.13 L 218.25 298.03 L 218.31 297.97 L 218.56 297.90 L 219.07 297.81 L 219.20 297.41 L 219.29 297.31 L 219.41 297.30 L 220.06 297.10 L 220.16 296.98 L 220.20 296.98 L 220.24 296.83 L 220.38 296.76 L 220.49 296.62 L 220.96 295.64 L 221.64 295.49 L 221.89 295.42 L 222.64 295.17 L 223.00 290.45 L 223.12 290.35 L 223.28 289.89 L 223.50 289.27 L 223.84 289.10 L 224.32 289.08 L 224.95 289.06 L 225.05 288.86 L 225.51 288.64 L 225.81 288.30 L 225.91 288.16 L 226.09 288.10 L 226.23 287.68 L 227.89 287.22 L 229.47 287.22 L 243.61 287.18 L 243.71 286.97 L 243.78 286.84 L 244.23 286.64 L 245.55 285.01 L 245.60 284.90 L 245.79 284.48 L 246.44 284.38 L 246.74 283.27 L 247.21 283.26 L 247.32 283.25 L 247.42 282.49 L 248.24 278.19 L 248.34 278.19 L 248.51 278.15 L 248.70 278.10 L 248.78 277.63 L 249.24 276.01 L 249.40 275.71 L 249.48 275.69 L 249.58 274.94 L 249.79 273.89 L 249.87 272.77 L 250.07 272.27 L 250.69 266.69 L 250.75 266.12 L 250.81 266.12 L 250.90 266.02 L 251.05 265.88 L 251.11 265.83 L 251.17 265.77 L 251.46 264.43 L 251.53 263.48 L 251.89 263.30 L 252.11 261.89 L 252.24 261.01 L 253.34 247.99 L 253.46 247.95 L 295.01 247.33 L 295.05 247.33 L 310.93 247.15 L 311.80 246.79 L 311.97 246.79 L 312.21 246.69 L 312.28 246.53 L 312.38 246.48 L 319.26 246.39 L 320.17 243.92 L 320.51 243.69 L 320.69 242.78 L 324.98 242.60 L 325.01 242.35 L 325.27 242.33 L 326.55 240.76 L 326.63 240.48 L 326.79 240.38 L 327.24 240.27 L 327.30 240.23 L 327.48 239.76 L 327.67 239.64 L 327.70 239.29 L 341.05 238.81 L 341.15 237.48 L 341.68 237.18 L 341.69 234.95 L 341.78 234.62 L 341.89 234.07 L 342.04 232.53 L 342.27 231.71 L 342.46 230.76 L 342.63 230.75 L 342.70 230.02 L 342.97 229.95 L 343.89 226.36 L 344.26 225.97 L 344.33 225.75 L 344.40 225.74 L 344.45 225.49 L 344.58 224.61 L 344.96 224.18 L 345.01 224.13 L 345.24 220.96 L 345.33 220.95 L 345.36 220.61 L 345.45 220.36 L 345.51 220.35 L 345.56 219.88 L 345.85 218.16 L 345.98 217.68 L 346.14 217.62 L 346.25 213.04 L 346.30 212.67 L 346.59 210.06 L 346.68 209.85 L 346.73 209.85 L 346.80 209.84 L 346.85 209.47 L 346.89 209.48 L 346.91 209.48 L 347.06 204.86 L 347.11 204.46 L 347.25 204.43 L 347.36 204.35 L 347.66 204.22 L 348.02 204.04 L 348.04 204.04 L 348.14 203.99 L 348.48 203.90 L 348.64 203.90 L 348.80 203.90 L 348.98 201.89 L 349.09 201.40 L 349.56 201.40 L 349.61 201.08 L 349.66 201.07 L 349.70 200.73 L 350.01 197.82 L 350.06 197.75 L 350.29 197.73 L 370.82 197.64 L 371.99 197.49 L 372.03 197.49 L 372.26 197.49 L 372.28 197.49 L 372.43 196.91 L 372.54 196.89 L 372.64 196.61 L 372.78 196.53 L 372.82 196.49 L 372.88 196.47 L 373.10 196.15 L 373.54 195.86 L 373.82 194.92 L 374.14 194.03 L 374.15 193.98 L 374.20 193.15 L 374.25 193.12 L 374.86 192.62 L 374.87 192.57 L 374.96 191.91 L 375.23 191.83 L 375.39 191.77 L 375.43 190.59 L 375.44 190.53 L 375.51 191.65 L 375.56 190.96 L 375.59 190.94 L 375.74 189.36 L 375.75 189.31 L 376.07 189.18 L 376.95 189.16 L 377.15 189.11 L 377.22 189.09 L 377.26 188.89 L 377.31 188.89 L 377.44 188.11 L 391.47 186.60 L 391.49 186.39 L 391.61 186.25 L 391.65 185.96 L 391.73 172.78 L 391.88 167.38 L 391.90 167.35 L 392.16 167.25 L 392.22 167.25 L 392.26 166.63 L 392.49 166.57 L 393.10 165.29 L 393.11 165.26 L 393.26 164.87 L 393.32 164.88 L 393.35 164.24 L 393.86 163.49 L 393.88 163.46 L 394.64 163.17 L 394.74 162.50 L 395.01 162.51 L 395.33 160.81 L 395.41 160.14 L 395.46 159.60 L 395.61 158.95 L 396.01 158.71 L 396.08 158.55 L 396.25 158.40 L 396.44 158.40 L 397.03 158.40 L 397.10 158.40 L 397.23 158.37 L 397.25 158.37 L 397.44 158.39 L 397.88 158.35 L 398.34 158.10 L 398.41 158.10 L 398.51 158.00 L 398.64 157.82 L 399.00 157.82 L 399.59 157.59 L 399.78 157.06 L 400.10 152.52 L 401.39 156.36 L 401.68 156.34 L 401.88 156.32 L 402.21 156.32 L 402.31 156.24 L 402.63 156.03 L 403.14 155.72 L 403.20 155.51 L 403.30 155.42 L 403.36 155.44 L 403.41 155.37 L 403.81 155.09 L 413.11 155.09 L 413.20 155.09 L 413.78 155.07 L 413.83 155.05 L 413.96 154.48 L 414.07 154.15 L 414.08 154.15 L 414.40 154.10 L 414.48 154.07 L 416.39 153.21 L 416.61 153.14 L 416.78 153.12 L 416.81 153.12 L 417.40 152.92 L 417.60 153.02 L 417.64 153.01 L 417.96 152.95 L 418.30 151.16 L 418.35 151.15 L 418.64 150.94 L 418.75 150.94 L 418.86 150.94 L 419.11 150.74 L 419.62 150.02 L 419.72 149.99 L 419.82 149.79 L 420.03 148.93 L 420.54 148.04 L 420.99 143.87 L 421.09 143.35 L 421.55 143.15 L 421.63 143.05 L 421.71 142.85 L 421.76 142.17 L 421.92 140.97 L 421.95 141.02 L 422.03 141.00 L 422.29 140.99 L 422.70 140.55 L 422.95 140.46 L 423.24 140.45 L 423.37 140.43 L 423.65 140.42 L 424.12 140.42 L 424.59 140.40 L 424.95 140.40 L 425.03 140.39 L 425.12 140.38 L 425.12 140.23 L 425.40 140.14 L 425.48 140.13 L 425.59 139.95 L 426.35 139.92 L 426.36 139.56 L 426.57 139.54 L 427.46 139.55 L 428.06 139.33 L 428.49 139.06 L 428.50 138.91 L 428.54 138.91 L 441.56 138.66 L 441.61 138.66 L 441.76 138.64 L 441.83 138.43 L 441.87 138.41 L 441.88 138.40 L 442.44 138.34 L 442.56 137.59 L 442.73 137.42 L 443.00 135.93 L 443.18 135.91 L 443.41 135.28 L 443.53 135.35 L 443.59 135.35 L 443.66 134.62 L 443.82 134.13 L 443.84 133.60 L 443.90 133.53 L 444.04 133.49 L 444.13 133.24 L 444.25 136.09 L 444.41 136.03 L 444.73 134.90 L 444.86 134.62 L 444.99 134.38 L 445.79 132.75 L 446.48 131.96 L 447.30 130.45 L 447.51 130.38 L 447.74 130.38 L 448.00 130.31 L 452.79 129.89 L 453.18 129.85 L 498.57 128.70 L 641.50 128.43 L 641.97 127.97 L 642.30 127.91 L 642.62 127.91 L 643.12 127.02 L 643.29 126.59 L 643.42 125.80 L 643.65 123.50 L 643.98 123.98 L 644.24 123.48 L 644.31 123.47 L 644.53 123.32 L 644.58 123.32 L 644.81 122.48 L 645.02 121.14 L 645.67 119.71 L 645.69 119.59 L 645.88 117.89 L 646.49 113.67 L 646.51 113.52 L 646.63 113.43 L 646.77 111.93 L 647.44 109.90 L 647.46 109.71 L 647.60 109.62 L 647.75 108.62 L 648.00 107.83 L 648.02 107.68 L 648.13 106.13 L 648.15 106.09 L 648.20 105.66 L 648.49 102.91 L 648.52 102.76 L 648.62 102.60 L 648.92 102.23 L 648.98 102.22 L 649.22 101.70 L 649.62 101.76 L 649.68 101.69 L 649.73 101.65 L 649.80 101.61 L 650.00 100.00"/>
	</g>
	<g id="poloto_plot1" class="poloto_plot poloto_imgs poloto_line poloto1 poloto_stroke" fill="none" stroke="black">
		<path d=" M 150.00 377.08 L 150.04 377.06 L 150.06 377.04 L 150.07 377.04 L 150.10 377.04 L 150.14 376.32 L 150.29 376.30 L 150.64 376.28 L 151.16 376.01 L 151.42 375.89 L 151.95 375.92 L 152.04 375.86 L 152.11 375.86 L 152.73 375.81 L 153.88 375.67 L 154.25 372.84 L 154.34 372.84 L 155.04 372.77 L 155.84 372.76 L 155.85 372.76 L 155.85 372.76 L 166.70 372.76 L 166.78 372.76 L 166.92 372.76 L 166.98 372.72 L 167.39 372.70 L 167.58 372.70 L 168.03 372.70 L 168.10 372.70 L 168.23 372.68 L 168.37 372.68 L 168.41 372.68 L 168.52 372.65 L 168.64 372.65 L 168.76 372.65 L 169.06 372.49 L 169.33 372.49 L 169.38 372.49 L 169.51 372.49 L 170.37 373.56 L 170.39 373.56 L 170.50 373.54 L 170.99 373.38 L 171.38 373.21 L 171.83 373.13 L 171.92 373.07 L 171.93 373.07 L 172.02 373.07 L 172.19 373.07 L 172.40 373.00 L 172.83 372.94 L 172.85 372.94 L 172.93 372.94 L 173.03 372.91 L 173.28 372.91 L 173.30 372.91 L 173.56 372.90 L 173.66 372.90 L 173.75 372.90 L 173.85 372.90 L 175.17 372.78 L 175.49 372.77 L 176.22 372.71 L 176.38 372.71 L 176.50 372.71 L 176.56 372.71 L 177.06 372.63 L 177.29 372.63 L 177.55 372.52 L 177.68 372.51 L 177.99 372.28 L 178.12 372.20 L 178.30 372.20 L 178.47 372.20 L 179.05 368.88 L 179.07 368.83 L 179.10 368.83 L 179.30 368.50 L 189.36 368.50 L 190.40 367.08 L 190.43 367.08 L 191.66 367.08 L 191.77 367.07 L 191.88 366.92 L 192.18 366.90 L 192.32 366.90 L 192.37 366.90 L 192.52 366.90 L 192.89 366.90 L 192.90 366.59 L 193.03 366.58 L 193.17 366.58 L 193.33 366.55 L 193.52 366.54 L 193.60 366.54 L 193.63 366.54 L 193.80 366.54 L 193.83 366.54 L 194.02 366.54 L 194.05 366.54 L 194.34 365.13 L 194.39 365.13 L 194.49 364.96 L 194.61 364.96 L 194.77 364.96 L 194.85 364.95 L 195.41 364.94 L 195.42 364.94 L 195.53 364.86 L 195.78 364.86 L 196.01 364.05 L 196.08 363.95 L 196.19 363.95 L 196.24 363.95 L 196.37 363.93 L 197.00 358.01 L 197.07 358.06 L 197.28 358.06 L 197.35 358.06 L 197.40 358.05 L 197.50 358.05 L 197.60 357.97 L 197.82 357.97 L 197.98 357.97 L 198.10 357.96 L 198.17 357.96 L 198.74 357.95 L 199.05 357.95 L 199.15 357.80 L 199.41 357.80 L 199.43 357.80 L 199.46 357.80 L 199.63 357.40 L 199.76 357.30 L 200.23 355.89 L 200.30 355.89 L 200.39 355.89 L 200.51 355.91 L 200.53 355.91 L 200.58 355.91 L 200.63 355.91 L 200.69 355.91 L 200.75 355.91 L 200.94 355.89 L 201.08 355.89 L 201.21 355.87 L 201.39 355.87 L 201.59 355.86 L 201.79 355.33 L 201.94 355.16 L 202.23 355.16 L 202.23 355.15 L 202.41 355.15 L 216.45 355.15 L 216.72 355.14 L 217.38 355.05 L 217.52 355.04 L 217.63 355.04 L 217.65 355.04 L 217.89 355.04 L 218.06 355.04 L 218.16 355.04 L 218.25 355.04 L 218.31 355.03 L 218.56 355.03 L 219.07 355.06 L 219.20 355.06 L 219.29 355.06 L 219.41 355.06 L 220.06 354.95 L 220.16 354.89 L 220.20 354.89 L 220.24 354.82 L 220.38 354.81 L 220.49 354.81 L 220.96 354.28 L 221.64 354.28 L 221.89 354.28 L 222.64 354.28 L 223.00 350.65 L 223.12 350.65 L 223.28 350.65 L 223.50 350.64 L 223.84 350.64 L 224.32 350.64 L 224.95 350.64 L 225.05 350.64 L 225.51 350.55 L 225.81 350.40 L 225.91 350.40 L 226.09 350.40 L 226.23 350.38 L 227.89 350.15 L 229.47 350.15 L 243.61 350.15 L 243.71 350.15 L 243.78 350.15 L 244.23 350.15 L 245.55 349.01 L 245.60 348.97 L 245.79 348.86 L 246.44 348.85 L 246.74 348.57 L 247.21 348.58 L 247.32 348.58 L 247.42 348.58 L 248.24 345.40 L 248.34 345.40 L 248.51 345.40 L 248.70 345.40 L 248.78 345.19 L 249.24 344.81 L 249.40 344.81 L 249.48 344.81 L 249.58 344.23 L 249.79 343.64 L 249.87 343.64 L 250.07 343.63 L 250.69 338.89 L 250.75 338.89 L 250.81 338.89 L 250.90 338.89 L 251.05 338.89 L 251.11 338.89 L 251.17 338.89 L 251.46 338.89 L 251.53 338.79 L 251.89 338.77 L 252.11 338.70 L 252.24 338.13 L 253.34 328.70 L 253.46 328.70 L 295.01 328.70 L 295.05 328.70 L 310.93 328.70 L 311.80 328.56 L 311.97 328.56 L 312.21 328.56 L 312.28 328.56 L 312.38 328.56 L 319.26 328.49 L 320.17 328.40 L 320.51 328.40 L 320.69 328.37 L 324.98 328.28 L 325.01 328.16 L 325.27 328.16 L 326.55 326.88 L 326.63 326.88 L 326.79 326.88 L 327.24 326.88 L 327.30 326.88 L 327.48 326.88 L 327.67 326.88 L 327.70 326.88 L 341.05 326.86 L 341.15 326.64 L 341.68 326.64 L 341.69 325.10 L 341.78 325.10 L 341.89 325.10 L 342.04 324.95 L 342.27 324.95 L 342.46 324.89 L 342.63 324.89 L 342.70 324.89 L 342.97 324.87 L 343.89 322.25 L 344.26 322.25 L 344.33 322.23 L 344.40 322.23 L 344.45 322.23 L 344.58 322.19 L 344.96 321.87 L 345.01 321.82 L 345.24 319.47 L 345.33 319.46 L 345.36 319.46 L 345.45 319.43 L 345.51 319.43 L 345.56 319.42 L 345.85 318.14 L 345.98 318.13 L 346.14 318.10 L 346.25 314.12 L 346.30 314.12 L 346.59 311.88 L 346.68 311.88 L 346.73 311.88 L 346.80 311.88 L 346.85 311.88 L 346.89 311.88 L 346.91 311.88 L 347.06 307.73 L 347.11 307.73 L 347.25 307.71 L 347.36 307.71 L 347.66 307.63 L 348.02 307.52 L 348.04 307.52 L 348.14 307.49 L 348.48 307.43 L 348.64 307.43 L 348.80 307.43 L 348.98 305.64 L 349.09 305.64 L 349.56 305.63 L 349.61 305.63 L 349.66 305.63 L 349.70 305.63 L 350.01 303.08 L 350.06 303.08 L 350.29 303.06 L 370.82 303.06 L 371.99 303.05 L 372.03 303.05 L 372.26 303.05 L 372.28 303.05 L 372.43 303.05 L 372.54 303.04 L 372.64 302.92 L 372.78 302.92 L 372.82 302.92 L 372.88 302.92 L 373.10 302.69 L 373.54 302.54 L 373.82 302.39 L 374.14 301.67 L 374.15 301.67 L 374.20 301.49 L 374.25 301.47 L 374.86 301.03 L 374.87 301.03 L 374.96 300.96 L 375.23 300.96 L 375.39 300.92 L 375.43 299.86 L 375.44 299.86 L 375.51 300.90 L 375.56 300.85 L 375.59 300.83 L 375.74 299.41 L 375.75 299.41 L 376.07 299.35 L 376.95 299.35 L 377.15 299.35 L 377.22 299.35 L 377.26 299.35 L 377.31 299.35 L 377.44 299.26 L 391.47 298.08 L 391.49 298.08 L 391.61 298.07 L 391.65 297.82 L 391.73 285.24 L 391.88 280.55 L 391.90 280.55 L 392.16 280.47 L 392.22 280.47 L 392.26 280.45 L 392.49 280.45 L 393.10 279.31 L 393.11 279.31 L 393.26 279.24 L 393.32 279.24 L 393.35 279.15 L 393.86 278.46 L 393.88 278.46 L 394.64 278.32 L 394.74 278.28 L 395.01 278.29 L 395.33 276.74 L 395.41 276.59 L 395.46 276.44 L 395.61 275.86 L 396.01 275.72 L 396.08 275.59 L 396.25 275.59 L 396.44 275.59 L 397.03 275.59 L 397.10 275.59 L 397.23 275.59 L 397.25 275.59 L 397.44 275.61 L 397.88 275.61 L 398.34 275.45 L 398.41 275.45 L 398.51 275.43 L 398.64 275.43 L 399.00 275.43 L 399.59 275.43 L 399.78 275.29 L 400.10 271.23 L 401.39 275.06 L 401.68 275.05 L 401.88 275.04 L 402.21 275.04 L 402.31 274.99 L 402.63 274.97 L 403.14 274.73 L 403.20 274.73 L 403.30 274.73 L 403.36 274.73 L 403.41 274.73 L 403.81 274.51 L 413.11 274.51 L 413.20 274.52 L 413.78 274.50 L 413.83 274.50 L 413.96 274.46 L 414.07 274.18 L 414.08 274.17 L 414.40 274.14 L 414.48 274.14 L 416.39 273.91 L 416.61 273.91 L 416.78 273.91 L 416.81 273.91 L 417.40 273.74 L 417.60 273.74 L 417.64 273.74 L 417.96 273.74 L 418.30 272.78 L 418.35 272.78 L 418.64 272.61 L 418.75 272.61 L 418.86 272.61 L 419.11 272.61 L 419.62 272.60 L 419.72 272.58 L 419.82 272.48 L 420.03 272.32 L 420.54 272.17 L 420.99 268.34 L 421.09 268.21 L 421.55 268.03 L 421.63 267.98 L 421.71 267.85 L 421.76 267.58 L 421.92 266.43 L 421.95 266.48 L 422.03 266.46 L 422.29 266.45 L 422.70 266.30 L 422.95 266.24 L 423.24 266.22 L 423.37 266.20 L 423.65 266.19 L 424.12 266.19 L 424.59 266.18 L 424.95 266.18 L 425.03 266.17 L 425.12 266.17 L 425.12 266.16 L 425.40 266.16 L 425.48 266.15 L 425.59 266.00 L 426.35 265.99 L 426.36 265.99 L 426.57 265.97 L 427.46 265.97 L 428.06 265.78 L 428.49 265.61 L 428.50 265.61 L 428.54 265.61 L 441.56 265.61 L 441.61 265.61 L 441.76 265.61 L 441.83 265.61 L 441.87 265.59 L 441.88 265.59 L 442.44 265.59 L 442.56 265.58 L 442.73 265.55 L 443.00 265.52 L 443.18 265.52 L 443.41 265.43 L 443.53 265.43 L 443.59 265.43 L 443.66 265.43 L 443.82 265.08 L 443.84 265.08 L 443.90 265.08 L 444.04 265.08 L 444.13 265.08 L 444.25 265.17 L 444.41 265.17 L 444.73 265.15 L 444.86 265.15 L 444.99 265.15 L 445.79 264.03 L 446.48 263.72 L 447.30 262.92 L 447.51 262.92 L 447.74 262.92 L 448.00 262.92 L 452.79 262.82 L 453.18 262.81 L 498.57 262.67 L 641.50 262.46 L 641.97 262.40 L 642.30 262.39 L 642.62 262.39 L 643.12 261.87 L 643.29 261.87 L 643.42 261.87 L 643.65 259.98 L 643.98 260.34 L 644.24 260.32 L 644.31 260.32 L 644.53 260.30 L 644.58 260.30 L 644.81 260.29 L 645.02 260.21 L 645.67 259.02 L 645.69 259.02 L 645.88 258.91 L 646.49 255.05 L 646.51 255.05 L 646.63 255.04 L 646.77 254.98 L 647.44 253.18 L 647.46 253.18 L 647.60 253.18 L 647.75 253.14 L 648.00 252.48 L 648.02 252.48 L 648.13 252.47 L 648.15 252.47 L 648.20 252.11 L 648.49 249.56 L 648.52 249.56 L 648.62 249.56 L 648.92 249.34 L 648.98 249.34 L 649.22 248.92 L 649.62 248.92 L 649.68 248.92 L 649.73 248.92 L 649.80 248.92 L 650.00 248.91"/>
	</g>
	<g id="poloto_plot2" class="poloto_plot poloto_imgs poloto_line poloto2 poloto_stroke" fill="none" stroke="black">
		<path d=" M 150.00 389.72 L 150.04 389.71 L 150.06 389.71 L 150.07 389.71 L 150.10 389.71 L 150.14 387.08 L 150.29 386.72 L 150.64 386.71 L 151.16 386.69 L 151.42 385.12 L 151.95 384.98 L 152.04 384.93 L 152.11 384.89 L 152.73 384.19 L 153.88 383.64 L 154.25 383.53 L 154.34 383.54 L 155.04 383.49 L 155.84 383.49 L 155.85 383.49 L 155.85 383.49 L 166.70 383.49 L 166.78 383.49 L 166.92 383.47 L 166.98 383.47 L 167.39 383.31 L 167.58 383.26 L 168.03 383.00 L 168.10 382.89 L 168.23 382.66 L 168.37 382.63 L 168.41 382.62 L 168.52 382.58 L 168.64 382.58 L 168.76 382.59 L 169.06 382.32 L 169.33 382.08 L 169.38 382.08 L 169.51 381.94 L 170.37 381.62 L 170.39 381.62 L 170.50 381.52 L 170.99 381.17 L 171.38 380.74 L 171.83 380.57 L 171.92 380.57 L 171.93 380.57 L 172.02 380.33 L 172.19 380.33 L 172.40 380.30 L 172.83 380.12 L 172.85 379.81 L 172.93 379.81 L 173.03 379.66 L 173.28 379.66 L 173.30 379.66 L 173.56 379.20 L 173.66 379.17 L 173.75 379.13 L 173.85 378.92 L 175.17 378.79 L 175.49 378.74 L 176.22 378.43 L 176.38 378.43 L 176.50 378.41 L 176.56 378.17 L 177.06 376.88 L 177.29 376.86 L 177.55 376.48 L 177.68 376.44 L 177.99 376.26 L 178.12 376.21 L 178.30 375.93 L 178.47 375.71 L 179.05 375.70 L 179.07 375.67 L 179.10 375.49 L 179.30 374.25 L 189.36 374.12 L 190.40 373.74 L 190.43 373.69 L 191.66 373.38 L 191.77 373.38 L 191.88 373.15 L 192.18 372.99 L 192.32 372.71 L 192.37 372.47 L 192.52 372.01 L 192.89 372.00 L 192.90 372.00 L 193.03 371.68 L 193.17 371.68 L 193.33 371.34 L 193.52 371.07 L 193.60 370.92 L 193.63 370.92 L 193.80 370.61 L 193.83 370.60 L 194.02 370.32 L 194.05 370.31 L 194.34 370.21 L 194.39 370.21 L 194.49 370.10 L 194.61 370.08 L 194.77 370.08 L 194.85 370.06 L 195.41 369.78 L 195.42 369.79 L 195.53 369.23 L 195.78 369.21 L 196.01 369.04 L 196.08 369.04 L 196.19 369.03 L 196.24 368.99 L 196.37 368.22 L 197.00 367.57 L 197.07 367.22 L 197.28 367.19 L 197.35 367.10 L 197.40 367.08 L 197.50 366.92 L 197.60 366.31 L 197.82 366.22 L 197.98 366.20 L 198.10 365.90 L 198.17 365.89 L 198.74 365.66 L 199.05 365.50 L 199.15 365.36 L 199.41 365.35 L 199.43 365.35 L 199.46 365.32 L 199.63 364.22 L 199.76 364.21 L 200.23 364.05 L 200.30 363.61 L 200.39 363.60 L 200.51 363.42 L 200.53 363.32 L 200.58 363.24 L 200.63 363.20 L 200.69 363.20 L 200.75 363.11 L 200.94 361.87 L 201.08 361.75 L 201.21 361.38 L 201.39 361.35 L 201.59 361.23 L 201.79 360.84 L 201.94 359.77 L 202.23 359.69 L 202.23 359.23 L 202.41 359.12 L 216.45 359.12 L 216.72 359.12 L 217.38 358.61 L 217.52 358.61 L 217.63 358.61 L 217.65 358.48 L 217.89 358.26 L 218.06 358.22 L 218.16 358.09 L 218.25 358.00 L 218.31 357.95 L 218.56 357.88 L 219.07 357.99 L 219.20 357.65 L 219.29 357.56 L 219.41 357.55 L 220.06 357.48 L 220.16 357.42 L 220.20 357.42 L 220.24 357.36 L 220.38 357.30 L 220.49 357.17 L 220.96 356.85 L 221.64 356.72 L 221.89 356.66 L 222.64 356.45 L 223.00 355.96 L 223.12 355.87 L 223.28 355.48 L 223.50 354.97 L 223.84 354.84 L 224.32 354.83 L 224.95 354.81 L 225.05 354.62 L 225.51 354.50 L 225.81 354.34 L 225.91 354.21 L 226.09 354.16 L 226.23 353.83 L 227.89 353.66 L 229.47 353.66 L 243.61 353.62 L 243.71 353.44 L 243.78 353.32 L 244.23 353.13 L 245.55 352.80 L 245.60 352.75 L 245.79 352.51 L 246.44 352.42 L 246.74 351.77 L 247.21 351.75 L 247.32 351.73 L 247.42 351.09 L 248.24 350.49 L 248.34 350.49 L 248.51 350.45 L 248.70 350.40 L 248.78 350.18 L 249.24 349.18 L 249.40 348.92 L 249.48 348.91 L 249.58 348.80 L 249.79 348.41 L 249.87 347.41 L 250.07 347.00 L 250.69 346.77 L 250.75 346.27 L 250.81 346.27 L 250.90 346.18 L 251.05 346.04 L 251.11 346.00 L 251.17 345.95 L 251.46 344.79 L 251.53 344.11 L 251.89 343.98 L 252.11 342.82 L 252.24 342.60 L 253.34 340.77 L 253.46 340.74 L 295.01 340.21 L 295.05 340.21 L 310.93 340.06 L 311.80 339.86 L 311.97 339.86 L 312.21 339.77 L 312.28 339.62 L 312.38 339.59 L 319.26 339.57 L 320.17 337.47 L 320.51 337.29 L 320.69 336.57 L 324.98 336.48 L 325.01 336.41 L 325.27 336.40 L 326.55 336.27 L 326.63 336.03 L 326.79 335.94 L 327.24 335.83 L 327.30 335.80 L 327.48 335.40 L 327.67 335.28 L 327.70 334.97 L 341.05 334.57 L 341.15 333.62 L 341.68 333.37 L 341.69 333.01 L 341.78 332.72 L 341.89 332.28 L 342.04 331.13 L 342.27 330.50 L 342.46 329.68 L 342.63 329.68 L 342.70 329.05 L 342.97 329.00 L 343.89 328.41 L 344.26 328.13 L 344.33 327.96 L 344.40 327.95 L 344.45 327.75 L 344.58 327.03 L 344.96 326.96 L 345.01 326.96 L 345.24 326.49 L 345.33 326.49 L 345.36 326.23 L 345.45 326.06 L 345.51 326.05 L 345.56 325.68 L 345.85 325.46 L 345.98 325.09 L 346.14 325.07 L 346.25 324.87 L 346.30 324.59 L 346.59 324.44 L 346.68 324.27 L 346.73 324.27 L 346.80 324.27 L 346.85 323.98 L 346.89 323.99 L 346.91 323.98 L 347.06 323.89 L 347.11 323.57 L 347.25 323.56 L 347.36 323.49 L 347.66 323.46 L 348.02 323.43 L 348.04 323.43 L 348.14 323.41 L 348.48 323.41 L 348.64 323.41 L 348.80 323.41 L 348.98 323.35 L 349.09 322.97 L 349.56 322.97 L 349.61 322.74 L 349.66 322.74 L 349.70 322.48 L 350.01 322.39 L 350.06 322.33 L 350.29 322.33 L 370.82 322.26 L 371.99 322.15 L 372.03 322.15 L 372.26 322.15 L 372.28 322.15 L 372.43 321.70 L 372.54 321.69 L 372.64 321.56 L 372.78 321.49 L 372.82 321.45 L 372.88 321.43 L 373.10 321.39 L 373.54 321.30 L 373.82 320.69 L 374.14 320.66 L 374.15 320.62 L 374.20 320.11 L 374.25 320.11 L 374.86 320.11 L 374.87 320.06 L 374.96 319.59 L 375.23 319.53 L 375.39 319.51 L 375.43 319.50 L 375.44 319.45 L 375.51 319.42 L 375.56 318.94 L 375.59 318.92 L 375.74 318.92 L 375.75 318.89 L 376.07 318.84 L 376.95 318.82 L 377.15 318.78 L 377.22 318.77 L 377.26 318.61 L 377.31 318.61 L 377.44 318.07 L 391.47 317.91 L 391.49 317.75 L 391.61 317.64 L 391.65 317.63 L 391.73 317.17 L 391.88 317.05 L 391.90 317.03 L 392.16 317.02 L 392.22 317.02 L 392.26 316.56 L 392.49 316.51 L 393.10 316.49 L 393.11 316.47 L 393.26 316.22 L 393.32 316.22 L 393.35 315.80 L 393.86 315.80 L 393.88 315.78 L 394.64 315.67 L 394.74 315.17 L 395.01 315.17 L 395.33 315.16 L 395.41 314.79 L 395.46 314.50 L 395.61 314.49 L 396.01 314.43 L 396.08 314.41 L 396.25 314.29 L 396.44 314.29 L 397.03 314.29 L 397.10 314.29 L 397.23 314.26 L 397.25 314.26 L 397.44 314.26 L 397.88 314.23 L 398.34 314.18 L 398.41 314.17 L 398.51 314.12 L 398.64 313.99 L 399.00 313.99 L 399.59 313.82 L 399.78 313.54 L 400.10 313.51 L 401.39 313.20 L 401.68 313.20 L 401.88 313.19 L 402.21 313.18 L 402.31 313.16 L 402.63 313.01 L 403.14 312.98 L 403.20 312.85 L 403.30 312.78 L 403.36 312.79 L 403.41 312.74 L 403.81 312.72 L 413.11 312.71 L 413.20 312.71 L 413.78 312.71 L 413.83 312.70 L 413.96 312.27 L 414.07 312.25 L 414.08 312.26 L 414.40 312.25 L 414.48 312.22 L 416.39 311.60 L 416.61 311.54 L 416.78 311.52 L 416.81 311.52 L 417.40 311.50 L 417.60 311.59 L 417.64 311.59 L 417.96 311.54 L 418.30 310.95 L 418.35 310.94 L 418.64 310.93 L 418.75 310.93 L 418.86 310.93 L 419.11 310.80 L 419.62 310.27 L 419.72 310.27 L 419.82 310.19 L 420.03 309.70 L 420.54 309.16 L 420.99 309.20 L 421.09 308.91 L 421.55 308.91 L 421.63 308.88 L 421.71 308.84 L 421.76 308.56 L 421.92 308.55 L 421.95 308.55 L 422.03 308.55 L 422.29 308.55 L 422.70 308.32 L 422.95 308.30 L 423.24 308.30 L 423.37 308.30 L 423.65 308.30 L 424.12 308.30 L 424.59 308.30 L 424.95 308.30 L 425.03 308.29 L 425.12 308.29 L 425.12 308.19 L 425.40 308.12 L 425.48 308.12 L 425.59 308.10 L 426.35 308.09 L 426.36 307.82 L 426.57 307.82 L 427.46 307.82 L 428.06 307.81 L 428.49 307.76 L 428.50 307.64 L 428.54 307.64 L 441.56 307.46 L 441.61 307.45 L 441.76 307.44 L 441.83 307.27 L 441.87 307.27 L 441.88 307.25 L 442.44 307.20 L 442.56 306.64 L 442.73 306.51 L 443.00 305.40 L 443.18 305.39 L 443.41 304.91 L 443.53 304.97 L 443.59 304.96 L 443.66 304.35 L 443.82 304.25 L 443.84 303.83 L 443.90 303.76 L 444.04 303.72 L 444.13 303.51 L 444.25 306.02 L 444.41 305.98 L 444.73 304.97 L 444.86 304.75 L 444.99 304.53 L 445.79 304.13 L 446.48 303.71 L 447.30 303.12 L 447.51 303.05 L 447.74 303.05 L 448.00 303.00 L 452.79 302.70 L 453.18 302.67 L 498.57 301.89 L 641.50 301.87 L 641.97 301.51 L 642.30 301.46 L 642.62 301.46 L 643.12 301.14 L 643.29 300.77 L 643.42 300.08 L 643.65 299.90 L 643.98 299.96 L 644.24 299.56 L 644.31 299.56 L 644.53 299.43 L 644.58 299.43 L 644.81 298.76 L 645.02 297.74 L 645.67 297.64 L 645.69 297.53 L 645.88 296.21 L 646.49 296.16 L 646.51 296.03 L 646.63 295.95 L 646.77 294.75 L 647.44 294.69 L 647.46 294.52 L 647.60 294.44 L 647.75 293.65 L 648.00 293.62 L 648.02 293.50 L 648.13 292.19 L 648.15 292.15 L 648.20 292.11 L 648.49 292.11 L 648.52 291.98 L 648.62 291.88 L 648.92 291.76 L 648.98 291.75 L 649.22 291.68 L 649.62 291.73 L 649.68 291.67 L 649.73 291.64 L 649.80 291.60 L 650.00 290.24"/>
	</g>
	<g class="poloto_legend poloto_imgs poloto_line poloto0 poloto_stroke"><line x1="680" x2="730" y1="81.25" y2="81.25"/></g>
	<g class="poloto_legend poloto_imgs poloto_line poloto1 poloto_stroke"><line x1="680" x2="730" y1="131.25" y2="131.25"/></g>
	<g class="poloto_legend poloto_imgs poloto_line poloto2 poloto_stroke"><line x1="680" x2="730" y1="181.25" y2="181.25"/></g>
	<text class="poloto_legend poloto_text poloto_line poloto0" x="675" y="100">total</text>
	<text class="poloto_legend poloto_text poloto_line poloto1" x="675" y="150">code</text>
	<text class="poloto_legend poloto_text poloto_line poloto2" x="675" y="200">docs</text>
	<text class="poloto_text poloto_name poloto_title" x="400.00" y="37.50">Workspace lines over time</text>
	<text class="poloto_text poloto_name poloto_x" x="400.00" y="640">date (JST)</text>
	<text class="poloto_text poloto_name poloto_y" x="37.50" y="250.00" transform="rotate(-90,37.50,250.00)">lines</text>
	<text class="poloto_text poloto_ticks poloto_y">
		<tspan x="135.00" y="400.00">0</tspan>
		<tspan x="135.00" y="302.23">50K</tspan>
		<tspan x="135.00" y="204.47">100K</tspan>
		<tspan x="135.00" y="106.70">150K</tspan>
	</text>
	<g class="poloto_imgs poloto_ticks poloto_y" stroke="black">
		<line x1="150.00" x2="144.00" y1="400.00" y2="400.00"/>
		<line x1="150.00" x2="144.00" y1="302.23" y2="302.23"/>
		<line x1="150.00" x2="144.00" y1="204.47" y2="204.47"/>
		<line x1="150.00" x2="144.00" y1="106.70" y2="106.70"/>
	</g>
	<g class="poloto_text poloto_ticks poloto_x">
		<text x="185.90" y="430.00" text-anchor="end" transform="rotate(-90 185.90 430.00)">2026-04-22 04:33</text>
		<text x="243.43" y="430.00" text-anchor="end" transform="rotate(-90 243.43 430.00)">2026-04-24 12:06</text>
		<text x="300.96" y="430.00" text-anchor="end" transform="rotate(-90 300.96 430.00)">2026-04-26 19:40</text>
		<text x="358.48" y="430.00" text-anchor="end" transform="rotate(-90 358.48 430.00)">2026-04-29 03:13</text>
		<text x="416.01" y="430.00" text-anchor="end" transform="rotate(-90 416.01 430.00)">2026-05-01 10:46</text>
		<text x="473.54" y="430.00" text-anchor="end" transform="rotate(-90 473.54 430.00)">2026-05-03 18:20</text>
		<text x="531.07" y="430.00" text-anchor="end" transform="rotate(-90 531.07 430.00)">2026-05-06 01:53</text>
		<text x="588.59" y="430.00" text-anchor="end" transform="rotate(-90 588.59 430.00)">2026-05-08 09:26</text>
		<text x="646.12" y="430.00" text-anchor="end" transform="rotate(-90 646.12 430.00)">2026-05-10 17:00</text>
	</g>
	<g class="poloto_imgs poloto_ticks poloto_x" stroke="black">
		<line x1="185.90" x2="185.90" y1="400.00" y2="405.00"/>
		<line x1="243.43" x2="243.43" y1="400.00" y2="405.00"/>
		<line x1="300.96" x2="300.96" y1="400.00" y2="405.00"/>
		<line x1="358.48" x2="358.48" y1="400.00" y2="405.00"/>
		<line x1="416.01" x2="416.01" y1="400.00" y2="405.00"/>
		<line x1="473.54" x2="473.54" y1="400.00" y2="405.00"/>
		<line x1="531.07" x2="531.07" y1="400.00" y2="405.00"/>
		<line x1="588.59" x2="588.59" y1="400.00" y2="405.00"/>
		<line x1="646.12" x2="646.12" y1="400.00" y2="405.00"/>
	</g>
	<path class="poloto_imgs poloto_ticks poloto_x" stroke="black" style="stroke-dasharray:7.19089230344415;stroke-dashoffset:-35.903549999697134;" d=" M 150.00 400.00 L 650.00 400.00"/>
	<path class="poloto_imgs poloto_ticks poloto_y" stroke="black" style="stroke-dasharray:9.776636445997118;stroke-dashoffset:-0;" d=" M 150.00 400.00 L 150.00 100.00"/>
</svg>

