<svg class="poloto" width="800" height="680" viewBox="0 0 800 680" xmlns="http://www.w3.org/2000/svg">
	<style>
.poloto{
  stroke-linecap:round;
  stroke-linejoin:round;
  font-family:Roboto,sans-serif;
  font-size:16px;
}
.poloto_background{fill:AliceBlue;}
.poloto_scatter{stroke-width:7}
.poloto_line{stroke-width:2}
.poloto_text{fill: black;}
.poloto_name{font-size:24px;dominant-baseline:auto;text-anchor:middle;}
.poloto_where{dominant-baseline:middle;text-anchor:start}
.poloto_text.poloto_legend{font-size:20px;dominant-baseline:middle;text-anchor:start;}
.poloto_text.poloto_ticks.poloto_y{dominant-baseline:middle;text-anchor:end}
.poloto_text.poloto_ticks.poloto_x{dominant-baseline:auto;text-anchor:middle}
.poloto_imgs.poloto_ticks{stroke: black;stroke-width:3;fill:none;stroke-dasharray:none}
.poloto_grid{stroke:gray;stroke-width:0.5}

.poloto0.poloto_stroke{stroke:blue;}
.poloto1.poloto_stroke{stroke:red;}
.poloto2.poloto_stroke{stroke:green;}
.poloto3.poloto_stroke{stroke:gold;}
.poloto4.poloto_stroke{stroke:aqua;}
.poloto5.poloto_stroke{stroke:lime;}
.poloto6.poloto_stroke{stroke:orange;}
.poloto7.poloto_stroke{stroke:chocolate;}
.poloto0.poloto_fill{fill:blue;}
.poloto1.poloto_fill{fill:red;}
.poloto2.poloto_fill{fill:green;}
.poloto3.poloto_fill{fill:gold;}
.poloto4.poloto_fill{fill:aqua;}
.poloto5.poloto_fill{fill:lime;}
.poloto6.poloto_fill{fill:orange;}
.poloto7.poloto_fill{fill:chocolate;}
	</style>
	<circle r="1e5" class="poloto_background" fill="white"/>
	<g id="poloto_plot0" class="poloto_plot poloto_imgs poloto_line poloto0 poloto_stroke" fill="none" stroke="black">
		<path d=" M 150.00 371.09 L 150.03 371.06 L 150.04 371.05 L 150.05 371.05 L 150.07 371.05 L 150.09 367.91 L 150.20 367.53 L 150.44 367.51 L 150.80 367.25 L 150.98 365.66 L 151.35 365.56 L 151.41 365.48 L 151.46 365.44 L 151.89 364.66 L 152.68 364.03 L 152.94 361.57 L 153.00 361.57 L 153.48 361.47 L 154.04 361.46 L 154.04 361.46 L 154.05 361.46 L 161.54 361.46 L 161.60 361.46 L 161.69 361.44 L 161.73 361.41 L 162.02 361.27 L 162.15 361.23 L 162.47 361.00 L 162.51 360.90 L 162.60 360.68 L 162.70 360.65 L 162.73 360.64 L 162.80 360.58 L 162.89 360.58 L 162.97 360.59 L 163.18 360.22 L 163.36 360.00 L 163.39 360.00 L 163.48 359.86 L 164.08 360.43 L 164.09 360.43 L 164.17 360.33 L 164.51 359.91 L 164.78 359.41 L 165.09 359.19 L 165.15 359.15 L 165.16 359.15 L 165.22 358.95 L 165.34 358.95 L 165.49 358.88 L 165.78 358.69 L 165.80 358.40 L 165.85 358.40 L 165.92 358.25 L 166.09 358.25 L 166.11 358.25 L 166.28 357.83 L 166.35 357.80 L 166.42 357.77 L 166.49 357.60 L 167.40 357.37 L 167.62 357.33 L 168.13 357.03 L 168.23 357.03 L 168.31 357.02 L 168.36 356.80 L 168.71 355.56 L 168.86 355.53 L 169.04 355.12 L 169.13 355.08 L 169.34 354.73 L 169.44 354.61 L 169.56 354.38 L 169.68 354.19 L 170.08 351.32 L 170.09 351.25 L 170.11 351.08 L 170.25 349.70 L 177.20 349.60 L 177.92 348.02 L 177.95 347.99 L 178.80 347.74 L 178.87 347.73 L 178.95 347.42 L 179.16 347.27 L 179.25 347.00 L 179.29 346.76 L 179.39 346.35 L 179.64 346.34 L 179.65 346.06 L 179.75 345.76 L 179.84 345.75 L 179.95 345.41 L 180.08 345.16 L 180.14 345.03 L 180.16 345.03 L 180.28 344.76 L 180.29 344.75 L 180.43 344.48 L 180.45 344.48 L 180.65 343.18 L 180.68 343.18 L 180.75 342.96 L 180.83 342.95 L 180.95 342.95 L 181.00 342.92 L 181.39 342.68 L 181.40 342.69 L 181.47 342.11 L 181.65 342.10 L 181.80 341.24 L 181.85 341.16 L 181.92 341.15 L 181.96 341.12 L 182.05 340.45 L 182.49 334.82 L 182.53 334.55 L 182.68 334.52 L 182.73 334.46 L 182.76 334.44 L 182.83 334.29 L 182.90 333.65 L 183.06 333.52 L 183.16 333.50 L 183.25 333.22 L 183.30 333.21 L 183.69 333.01 L 183.91 332.85 L 183.97 332.59 L 184.15 332.58 L 184.17 332.58 L 184.19 332.56 L 184.30 331.20 L 184.39 331.13 L 184.72 329.76 L 184.77 329.36 L 184.83 329.35 L 184.92 329.21 L 184.93 329.10 L 184.96 329.04 L 184.99 329.00 L 185.04 328.99 L 185.08 328.92 L 185.21 327.81 L 185.30 327.64 L 185.40 327.32 L 185.52 327.29 L 185.66 327.19 L 185.80 326.40 L 185.90 325.30 L 186.10 325.24 L 186.11 324.83 L 186.22 324.70 L 195.93 324.70 L 196.12 324.69 L 196.58 324.11 L 196.67 324.09 L 196.75 324.09 L 196.76 323.95 L 196.93 323.77 L 197.04 323.74 L 197.11 323.63 L 197.18 323.56 L 197.22 323.52 L 197.39 323.46 L 197.74 323.39 L 197.83 323.10 L 197.90 323.02 L 197.98 323.01 L 198.43 322.86 L 198.49 322.77 L 198.52 322.77 L 198.55 322.66 L 198.65 322.61 L 198.73 322.50 L 199.05 321.77 L 199.52 321.65 L 199.69 321.61 L 200.21 321.42 L 200.46 317.88 L 200.54 317.81 L 200.65 317.46 L 200.80 316.99 L 201.04 316.86 L 201.37 316.85 L 201.81 316.84 L 201.87 316.68 L 202.20 316.52 L 202.40 316.26 L 202.47 316.16 L 202.59 316.12 L 202.69 315.80 L 203.84 315.46 L 204.93 315.46 L 214.70 315.42 L 214.77 315.27 L 214.83 315.17 L 215.13 315.02 L 216.04 313.80 L 216.08 313.72 L 216.21 313.40 L 216.66 313.33 L 216.87 312.50 L 217.19 312.49 L 217.27 312.48 L 217.34 311.91 L 217.91 308.69 L 217.98 308.69 L 218.09 308.66 L 218.22 308.62 L 218.28 308.27 L 218.60 307.06 L 218.71 306.83 L 218.76 306.81 L 218.83 306.25 L 218.97 305.46 L 219.03 304.62 L 219.17 304.25 L 219.60 300.06 L 219.64 299.64 L 219.68 299.64 L 219.74 299.57 L 219.85 299.46 L 219.89 299.42 L 219.93 299.38 L 220.13 298.37 L 220.18 297.67 L 220.43 297.52 L 220.58 296.47 L 220.67 295.81 L 221.43 286.05 L 221.52 286.02 L 250.24 285.55 L 250.26 285.55 L 261.24 285.42 L 261.84 285.15 L 261.96 285.15 L 262.12 285.08 L 262.17 284.96 L 262.24 284.92 L 267.00 284.85 L 267.63 283.00 L 267.86 282.83 L 267.98 282.15 L 270.95 282.01 L 270.97 281.82 L 271.15 281.80 L 272.04 280.63 L 272.09 280.42 L 272.20 280.35 L 272.51 280.27 L 272.55 280.24 L 272.68 279.88 L 272.81 279.79 L 272.83 279.53 L 282.06 279.17 L 282.13 278.17 L 282.49 277.95 L 282.50 276.27 L 282.56 276.02 L 282.64 275.62 L 282.74 274.46 L 282.90 273.85 L 283.03 273.13 L 283.15 273.13 L 283.20 272.58 L 283.38 272.53 L 284.02 269.83 L 284.28 269.55 L 284.32 269.38 L 284.38 269.37 L 284.41 269.18 L 284.50 268.52 L 284.76 268.20 L 284.80 268.16 L 284.95 265.79 L 285.02 265.78 L 285.04 265.53 L 285.10 265.33 L 285.14 265.33 L 285.17 264.98 L 285.38 263.69 L 285.46 263.33 L 285.58 263.28 L 285.65 259.85 L 285.69 259.57 L 285.89 257.61 L 285.95 257.46 L 285.98 257.46 L 286.04 257.45 L 286.07 257.18 L 286.09 257.19 L 286.11 257.18 L 286.21 253.72 L 286.25 253.42 L 286.34 253.40 L 286.42 253.34 L 286.62 253.24 L 286.88 253.11 L 286.89 253.11 L 286.96 253.06 L 287.19 253.00 L 287.31 253.00 L 287.42 253.00 L 287.54 251.49 L 287.62 251.13 L 287.94 251.12 L 287.97 250.88 L 288.01 250.88 L 288.04 250.62 L 288.25 248.44 L 288.29 248.39 L 288.44 248.37 L 302.64 248.31 L 303.45 248.20 L 303.47 248.20 L 303.63 248.20 L 303.64 248.20 L 303.75 247.76 L 303.83 247.74 L 303.89 247.53 L 303.99 247.48 L 304.02 247.45 L 304.06 247.43 L 304.21 247.19 L 304.52 246.97 L 304.71 246.27 L 304.93 245.60 L 304.94 245.56 L 304.97 244.94 L 305.00 244.92 L 305.43 244.55 L 305.43 244.50 L 305.50 244.01 L 305.68 243.95 L 305.80 243.91 L 305.82 243.02 L 305.83 242.98 L 305.88 243.82 L 305.91 243.30 L 305.93 243.28 L 306.03 242.10 L 306.04 242.06 L 306.26 241.97 L 306.87 241.95 L 307.01 241.91 L 307.06 241.90 L 307.09 241.74 L 307.12 241.74 L 307.21 241.16 L 316.91 240.03 L 316.92 239.87 L 317.01 239.77 L 317.03 239.55 L 317.09 229.67 L 317.19 225.63 L 317.20 225.60 L 317.38 225.52 L 317.43 225.52 L 317.46 225.06 L 317.61 225.01 L 318.03 224.05 L 318.04 224.03 L 318.15 223.74 L 318.19 223.75 L 318.21 223.27 L 318.56 222.71 L 318.57 222.69 L 319.10 222.47 L 319.17 221.97 L 319.36 221.97 L 319.58 220.70 L 319.63 220.20 L 319.67 219.79 L 319.77 219.30 L 320.04 219.13 L 320.09 219.00 L 320.21 218.89 L 320.34 218.89 L 320.75 218.89 L 320.80 218.89 L 320.89 218.87 L 320.90 218.87 L 321.03 218.88 L 321.34 218.86 L 321.66 218.67 L 321.71 218.67 L 321.78 218.59 L 321.87 218.46 L 322.11 218.46 L 322.52 218.28 L 322.65 217.89 L 322.88 214.48 L 323.77 217.36 L 323.96 217.35 L 324.11 217.33 L 324.33 217.33 L 324.40 217.27 L 324.62 217.11 L 324.97 216.88 L 325.02 216.72 L 325.09 216.66 L 325.13 216.67 L 325.16 216.62 L 325.44 216.41 L 331.87 216.41 L 331.93 216.41 L 332.33 216.40 L 332.37 216.38 L 332.45 215.95 L 332.53 215.70 L 332.54 215.70 L 332.76 215.67 L 332.81 215.64 L 334.13 215.00 L 334.29 214.95 L 334.40 214.94 L 334.42 214.93 L 334.83 214.78 L 334.97 214.86 L 335.00 214.85 L 335.22 214.81 L 335.46 213.46 L 335.49 213.45 L 335.69 213.30 L 335.77 213.30 L 335.84 213.30 L 336.01 213.15 L 336.37 212.61 L 336.44 212.59 L 336.50 212.44 L 336.65 211.79 L 337.00 211.13 L 337.32 208.00 L 337.38 207.61 L 337.70 207.46 L 337.76 207.38 L 337.81 207.23 L 337.84 206.73 L 337.95 205.82 L 337.98 205.86 L 338.03 205.84 L 338.21 205.84 L 338.50 205.51 L 338.67 205.45 L 338.87 205.43 L 338.96 205.42 L 339.15 205.41 L 339.48 205.41 L 339.80 205.40 L 340.05 205.40 L 340.11 205.39 L 340.17 205.38 L 340.17 205.27 L 340.36 205.20 L 340.42 205.19 L 340.49 205.06 L 341.02 205.04 L 341.03 204.77 L 341.17 204.75 L 341.79 204.76 L 342.20 204.59 L 342.50 204.39 L 342.50 204.28 L 342.53 204.28 L 351.53 204.10 L 351.56 204.09 L 351.67 204.08 L 351.72 203.92 L 351.75 203.91 L 351.75 203.90 L 352.14 203.85 L 352.22 203.29 L 352.34 203.16 L 352.53 202.04 L 352.65 202.03 L 352.81 201.56 L 352.89 201.62 L 352.94 201.61 L 352.98 201.07 L 353.09 200.70 L 353.11 200.30 L 353.15 200.25 L 353.24 200.22 L 353.31 200.03 L 353.39 202.16 L 353.50 202.13 L 353.72 201.28 L 353.82 201.06 L 353.90 200.89 L 354.46 199.66 L 354.93 199.07 L 355.50 197.94 L 355.64 197.89 L 355.81 197.89 L 355.98 197.84 L 359.29 197.52 L 359.57 197.49 L 390.94 196.63 L 489.73 196.43 L 490.06 196.08 L 490.29 196.03 L 490.51 196.03 L 490.86 195.37 L 490.97 195.05 L 491.06 194.45 L 491.22 192.73 L 491.45 193.09 L 491.63 192.71 L 491.67 192.71 L 491.83 192.59 L 491.86 192.60 L 492.02 191.96 L 492.17 190.96 L 492.62 189.89 L 492.63 189.80 L 492.76 188.52 L 493.18 185.36 L 493.20 185.25 L 493.28 185.18 L 493.38 184.05 L 493.84 182.53 L 493.85 182.39 L 493.95 182.32 L 494.06 181.57 L 494.23 180.98 L 494.24 180.87 L 494.31 179.71 L 494.33 179.68 L 494.37 179.36 L 494.56 177.30 L 494.59 177.18 L 494.65 177.06 L 494.86 176.79 L 494.91 176.78 L 495.07 176.39 L 495.35 176.43 L 495.39 176.38 L 495.42 176.35 L 495.47 176.32 L 495.61 175.11 L 495.76 174.13 L 495.78 174.04 L 495.86 172.81 L 495.94 171.61 L 495.96 171.46 L 496.05 170.05 L 496.09 168.94 L 496.26 168.19 L 496.28 168.14 L 496.37 167.90 L 496.49 167.89 L 497.20 167.85 L 497.55 167.82 L 505.27 167.87 L 505.35 167.65 L 505.42 167.47 L 505.55 166.64 L 505.84 166.42 L 505.86 166.34 L 505.92 165.25 L 506.10 164.18 L 506.12 164.09 L 507.81 164.02 L 507.91 163.42 L 508.76 163.24 L 508.85 163.20 L 508.95 161.96 L 509.98 160.81 L 510.41 160.36 L 510.52 159.46 L 510.89 157.91 L 511.12 157.46 L 511.50 156.55 L 512.17 156.08 L 522.50 156.07 L 523.12 155.97 L 523.15 155.99 L 524.01 155.81 L 524.06 155.72 L 524.36 155.65 L 524.71 154.64 L 524.71 154.64 L 524.75 154.60 L 525.21 153.44 L 526.27 152.78 L 526.34 152.72 L 526.45 152.71 L 526.61 152.41 L 526.66 152.33 L 526.72 152.27 L 527.21 152.23 L 527.61 152.23 L 527.82 152.22 L 527.85 152.18 L 528.29 151.17 L 528.63 150.98 L 528.65 150.90 L 528.69 150.82 L 528.74 150.55 L 539.94 150.16 L 539.96 150.14 L 540.00 150.12 L 540.21 150.01 L 540.38 149.89 L 541.37 148.33 L 541.62 148.15 L 542.33 147.68 L 542.94 147.57 L 543.39 147.42 L 543.52 145.99 L 544.09 144.31 L 544.30 144.19 L 544.37 143.11 L 546.03 141.11 L 546.05 141.11 L 546.14 140.63 L 546.45 140.57 L 546.46 140.57 L 546.48 140.45 L 546.53 140.30 L 546.68 140.14 L 546.85 139.30 L 548.57 137.29 L 548.80 137.05 L 548.95 136.69 L 548.98 136.64 L 549.01 136.36 L 556.64 135.45 L 556.89 134.76 L 557.04 134.73 L 557.09 134.27 L 557.81 134.05 L 557.96 133.60 L 558.10 133.60 L 558.18 132.63 L 558.42 130.17 L 558.45 130.13 L 558.78 130.09 L 558.85 129.29 L 559.12 128.33 L 559.18 127.66 L 559.41 127.05 L 559.58 126.72 L 559.71 125.99 L 559.99 125.36 L 560.02 124.66 L 560.39 124.51 L 560.43 124.51 L 560.49 123.61 L 560.56 123.61 L 560.60 123.54 L 561.03 121.88 L 561.64 121.33 L 561.95 121.51 L 562.96 121.43 L 562.98 121.42 L 563.14 121.40 L 563.21 121.38 L 563.32 121.27 L 563.45 121.17 L 563.58 120.99 L 563.88 120.75 L 564.18 120.73 L 565.08 120.56 L 565.12 120.56 L 566.02 120.40 L 566.41 120.30 L 574.13 120.28 L 574.52 120.16 L 574.72 120.08 L 574.80 120.08 L 574.83 120.08 L 575.02 120.05 L 575.11 120.00 L 575.34 119.84 L 575.48 119.81 L 575.98 119.64 L 576.24 119.26 L 576.67 119.21 L 576.80 118.97 L 576.94 118.81 L 577.13 118.62 L 577.80 118.68 L 577.87 118.66 L 578.84 118.19 L 578.99 117.92 L 579.18 117.83 L 579.66 117.61 L 579.87 117.67 L 579.99 118.03 L 580.08 118.01 L 580.21 117.86 L 580.63 116.76 L 581.06 116.65 L 581.45 116.56 L 581.50 116.51 L 581.54 116.20 L 609.48 116.12 L 609.66 115.98 L 625.73 115.63 L 625.82 116.03 L 625.95 114.35 L 625.97 114.35 L 626.01 114.39 L 626.59 110.98 L 626.65 110.95 L 627.36 111.03 L 628.08 110.82 L 628.33 110.49 L 628.78 110.08 L 629.38 109.82 L 629.39 109.82 L 629.47 109.75 L 629.70 109.69 L 629.78 109.52 L 630.36 108.69 L 631.11 108.51 L 631.19 108.35 L 631.57 108.28 L 631.68 108.94 L 631.97 108.70 L 632.21 108.64 L 632.70 108.46 L 633.16 108.38 L 633.40 108.01 L 633.41 108.01 L 643.46 108.00 L 646.62 107.06 L 646.75 106.62 L 646.91 106.19 L 647.42 106.16 L 647.63 106.02 L 647.79 103.83 L 647.89 102.41 L 648.13 102.28 L 648.17 102.25 L 648.52 101.84 L 648.63 101.62 L 648.70 101.51 L 648.88 101.15 L 648.95 101.13 L 649.05 101.09 L 649.12 100.88 L 649.21 100.64 L 649.31 100.51 L 649.38 100.47 L 649.71 100.38 L 649.87 100.13 L 650.00 100.00"/>
	</g>
	<g id="poloto_plot1" class="poloto_plot poloto_imgs poloto_line poloto1 poloto_stroke" fill="none" stroke="black">
		<path d=" M 150.00 382.82 L 150.03 382.81 L 150.04 382.79 L 150.05 382.79 L 150.07 382.79 L 150.09 382.25 L 150.20 382.23 L 150.44 382.22 L 150.80 382.02 L 150.98 381.92 L 151.35 381.95 L 151.41 381.91 L 151.46 381.91 L 151.89 381.87 L 152.68 381.76 L 152.94 379.64 L 153.00 379.64 L 153.48 379.59 L 154.04 379.58 L 154.04 379.58 L 154.05 379.58 L 161.54 379.58 L 161.60 379.58 L 161.69 379.58 L 161.73 379.55 L 162.02 379.54 L 162.15 379.54 L 162.47 379.54 L 162.51 379.54 L 162.60 379.52 L 162.70 379.52 L 162.73 379.52 L 162.80 379.50 L 162.89 379.50 L 162.97 379.50 L 163.18 379.38 L 163.36 379.38 L 163.39 379.38 L 163.48 379.38 L 164.08 380.18 L 164.09 380.18 L 164.17 380.17 L 164.51 380.05 L 164.78 379.91 L 165.09 379.85 L 165.15 379.81 L 165.16 379.81 L 165.22 379.81 L 165.34 379.81 L 165.49 379.76 L 165.78 379.72 L 165.80 379.72 L 165.85 379.72 L 165.92 379.70 L 166.09 379.70 L 166.11 379.70 L 166.28 379.69 L 166.35 379.69 L 166.42 379.69 L 166.49 379.69 L 167.40 379.59 L 167.62 379.58 L 168.13 379.54 L 168.23 379.54 L 168.31 379.54 L 168.36 379.54 L 168.71 379.48 L 168.86 379.48 L 169.04 379.40 L 169.13 379.39 L 169.34 379.22 L 169.44 379.16 L 169.56 379.16 L 169.68 379.16 L 170.08 376.67 L 170.09 376.63 L 170.11 376.63 L 170.25 376.39 L 177.20 376.39 L 177.92 375.32 L 177.95 375.32 L 178.80 375.32 L 178.87 375.32 L 178.95 375.21 L 179.16 375.19 L 179.25 375.19 L 179.29 375.19 L 179.39 375.19 L 179.64 375.19 L 179.65 374.96 L 179.75 374.95 L 179.84 374.95 L 179.95 374.92 L 180.08 374.92 L 180.14 374.92 L 180.16 374.92 L 180.28 374.92 L 180.29 374.92 L 180.43 374.92 L 180.45 374.92 L 180.65 373.86 L 180.68 373.86 L 180.75 373.74 L 180.83 373.74 L 180.95 373.74 L 181.00 373.72 L 181.39 373.72 L 181.40 373.72 L 181.47 373.66 L 181.65 373.66 L 181.80 373.05 L 181.85 372.98 L 181.92 372.98 L 181.96 372.98 L 182.05 372.96 L 182.49 368.53 L 182.53 368.56 L 182.68 368.56 L 182.73 368.56 L 182.76 368.56 L 182.83 368.56 L 182.90 368.49 L 183.06 368.49 L 183.16 368.49 L 183.25 368.49 L 183.30 368.49 L 183.69 368.48 L 183.91 368.48 L 183.97 368.37 L 184.15 368.37 L 184.17 368.37 L 184.19 368.37 L 184.30 368.07 L 184.39 367.99 L 184.72 366.94 L 184.77 366.94 L 184.83 366.94 L 184.92 366.95 L 184.93 366.95 L 184.96 366.95 L 184.99 366.95 L 185.04 366.95 L 185.08 366.95 L 185.21 366.93 L 185.30 366.93 L 185.40 366.92 L 185.52 366.92 L 185.66 366.91 L 185.80 366.52 L 185.90 366.39 L 186.10 366.39 L 186.11 366.38 L 186.22 366.38 L 195.93 366.38 L 196.12 366.37 L 196.58 366.31 L 196.67 366.30 L 196.75 366.30 L 196.76 366.30 L 196.93 366.30 L 197.04 366.30 L 197.11 366.30 L 197.18 366.30 L 197.22 366.29 L 197.39 366.29 L 197.74 366.31 L 197.83 366.31 L 197.90 366.31 L 197.98 366.31 L 198.43 366.23 L 198.49 366.19 L 198.52 366.19 L 198.55 366.13 L 198.65 366.13 L 198.73 366.13 L 199.05 365.72 L 199.52 365.72 L 199.69 365.72 L 200.21 365.72 L 200.46 363.01 L 200.54 363.00 L 200.65 363.00 L 200.80 363.00 L 201.04 363.00 L 201.37 363.00 L 201.81 363.00 L 201.87 363.00 L 202.20 362.93 L 202.40 362.82 L 202.47 362.82 L 202.59 362.82 L 202.69 362.81 L 203.84 362.63 L 204.93 362.63 L 214.70 362.63 L 214.77 362.63 L 214.83 362.63 L 215.13 362.63 L 216.04 361.78 L 216.08 361.75 L 216.21 361.66 L 216.66 361.66 L 216.87 361.45 L 217.19 361.45 L 217.27 361.45 L 217.34 361.45 L 217.91 359.07 L 217.98 359.07 L 218.09 359.07 L 218.22 359.07 L 218.28 358.92 L 218.60 358.63 L 218.71 358.63 L 218.76 358.63 L 218.83 358.19 L 218.97 357.75 L 219.03 357.75 L 219.17 357.74 L 219.60 354.19 L 219.64 354.19 L 219.68 354.19 L 219.74 354.19 L 219.85 354.19 L 219.89 354.19 L 219.93 354.19 L 220.13 354.19 L 220.18 354.11 L 220.43 354.10 L 220.58 354.05 L 220.67 353.62 L 221.43 346.55 L 221.52 346.55 L 250.24 346.55 L 250.26 346.55 L 261.24 346.55 L 261.84 346.45 L 261.96 346.45 L 262.12 346.45 L 262.17 346.45 L 262.24 346.45 L 267.00 346.39 L 267.63 346.32 L 267.86 346.32 L 267.98 346.30 L 270.95 346.24 L 270.97 346.15 L 271.15 346.15 L 272.04 345.19 L 272.09 345.19 L 272.20 345.19 L 272.51 345.19 L 272.55 345.19 L 272.68 345.19 L 272.81 345.19 L 272.83 345.19 L 282.06 345.17 L 282.13 345.00 L 282.49 345.00 L 282.50 343.85 L 282.56 343.85 L 282.64 343.85 L 282.74 343.74 L 282.90 343.74 L 283.03 343.69 L 283.15 343.69 L 283.20 343.69 L 283.38 343.68 L 284.02 341.72 L 284.28 341.71 L 284.32 341.70 L 284.38 341.70 L 284.41 341.70 L 284.50 341.67 L 284.76 341.43 L 284.80 341.39 L 284.95 339.63 L 285.02 339.63 L 285.04 339.63 L 285.10 339.60 L 285.14 339.60 L 285.17 339.60 L 285.38 338.64 L 285.46 338.63 L 285.58 338.61 L 285.65 335.62 L 285.69 335.62 L 285.89 333.94 L 285.95 333.94 L 285.98 333.94 L 286.04 333.94 L 286.07 333.94 L 286.09 333.94 L 286.11 333.94 L 286.21 330.84 L 286.25 330.83 L 286.34 330.82 L 286.42 330.82 L 286.62 330.76 L 286.88 330.67 L 286.89 330.67 L 286.96 330.65 L 287.19 330.61 L 287.31 330.61 L 287.42 330.61 L 287.54 329.27 L 287.62 329.27 L 287.94 329.26 L 287.97 329.26 L 288.01 329.26 L 288.04 329.26 L 288.25 327.35 L 288.29 327.35 L 288.44 327.33 L 302.64 327.33 L 303.45 327.32 L 303.47 327.32 L 303.63 327.32 L 303.64 327.32 L 303.75 327.32 L 303.83 327.32 L 303.89 327.22 L 303.99 327.22 L 304.02 327.22 L 304.06 327.22 L 304.21 327.05 L 304.52 326.94 L 304.71 326.83 L 304.93 326.29 L 304.94 326.29 L 304.97 326.15 L 305.00 326.14 L 305.43 325.81 L 305.43 325.81 L 305.50 325.76 L 305.68 325.76 L 305.80 325.73 L 305.82 324.93 L 305.83 324.93 L 305.88 325.72 L 305.91 325.67 L 305.93 325.66 L 306.03 324.60 L 306.04 324.60 L 306.26 324.55 L 306.87 324.55 L 307.01 324.55 L 307.06 324.55 L 307.09 324.55 L 307.12 324.55 L 307.21 324.48 L 316.91 323.60 L 316.92 323.60 L 317.01 323.59 L 317.03 323.40 L 317.09 313.97 L 317.19 310.46 L 317.20 310.46 L 317.38 310.40 L 317.43 310.40 L 317.46 310.38 L 317.61 310.38 L 318.03 309.52 L 318.04 309.52 L 318.15 309.48 L 318.19 309.48 L 318.21 309.40 L 318.56 308.89 L 318.57 308.89 L 319.10 308.79 L 319.17 308.75 L 319.36 308.76 L 319.58 307.60 L 319.63 307.49 L 319.67 307.38 L 319.77 306.94 L 320.04 306.84 L 320.09 306.74 L 320.21 306.74 L 320.34 306.74 L 320.75 306.74 L 320.80 306.74 L 320.89 306.74 L 320.90 306.74 L 321.03 306.76 L 321.34 306.76 L 321.66 306.64 L 321.71 306.64 L 321.78 306.62 L 321.87 306.62 L 322.11 306.62 L 322.52 306.62 L 322.65 306.52 L 322.88 303.47 L 323.77 306.35 L 323.96 306.33 L 324.11 306.32 L 324.33 306.32 L 324.40 306.29 L 324.62 306.27 L 324.97 306.10 L 325.02 306.10 L 325.09 306.10 L 325.13 306.10 L 325.16 306.10 L 325.44 305.93 L 331.87 305.93 L 331.93 305.93 L 332.33 305.92 L 332.37 305.92 L 332.45 305.89 L 332.53 305.68 L 332.54 305.68 L 332.76 305.65 L 332.81 305.65 L 334.13 305.48 L 334.29 305.48 L 334.40 305.48 L 334.42 305.48 L 334.83 305.36 L 334.97 305.36 L 335.00 305.36 L 335.22 305.35 L 335.46 304.63 L 335.49 304.63 L 335.69 304.51 L 335.77 304.51 L 335.84 304.51 L 336.01 304.51 L 336.37 304.50 L 336.44 304.48 L 336.50 304.41 L 336.65 304.29 L 337.00 304.18 L 337.32 301.31 L 337.38 301.21 L 337.70 301.07 L 337.76 301.04 L 337.81 300.94 L 337.84 300.74 L 337.95 299.88 L 337.98 299.91 L 338.03 299.89 L 338.21 299.89 L 338.50 299.77 L 338.67 299.73 L 338.87 299.71 L 338.96 299.70 L 339.15 299.69 L 339.48 299.69 L 339.80 299.68 L 340.05 299.68 L 340.11 299.68 L 340.17 299.67 L 340.17 299.67 L 340.36 299.67 L 340.42 299.66 L 340.49 299.55 L 341.02 299.54 L 341.03 299.54 L 341.17 299.53 L 341.79 299.53 L 342.20 299.38 L 342.50 299.26 L 342.50 299.26 L 342.53 299.26 L 351.53 299.26 L 351.56 299.26 L 351.67 299.26 L 351.72 299.26 L 351.75 299.24 L 351.75 299.24 L 352.14 299.24 L 352.22 299.23 L 352.34 299.21 L 352.53 299.19 L 352.65 299.19 L 352.81 299.12 L 352.89 299.12 L 352.94 299.12 L 352.98 299.12 L 353.09 298.86 L 353.11 298.86 L 353.15 298.86 L 353.24 298.86 L 353.31 298.86 L 353.39 298.93 L 353.50 298.93 L 353.72 298.91 L 353.82 298.91 L 353.90 298.91 L 354.46 298.07 L 354.93 297.84 L 355.50 297.24 L 355.64 297.24 L 355.81 297.24 L 355.98 297.24 L 359.29 297.17 L 359.57 297.16 L 390.94 297.06 L 489.73 296.90 L 490.06 296.85 L 490.29 296.84 L 490.51 296.84 L 490.86 296.45 L 490.97 296.45 L 491.06 296.45 L 491.22 295.04 L 491.45 295.31 L 491.63 295.29 L 491.67 295.29 L 491.83 295.28 L 491.86 295.28 L 492.02 295.27 L 492.17 295.21 L 492.62 294.31 L 492.63 294.31 L 492.76 294.23 L 493.18 291.34 L 493.20 291.34 L 493.28 291.34 L 493.38 291.29 L 493.84 289.94 L 493.85 289.94 L 493.95 289.94 L 494.06 289.91 L 494.23 289.42 L 494.24 289.42 L 494.31 289.41 L 494.33 289.41 L 494.37 289.14 L 494.56 287.22 L 494.59 287.22 L 494.65 287.22 L 494.86 287.06 L 494.91 287.06 L 495.07 286.75 L 495.35 286.75 L 495.39 286.75 L 495.42 286.75 L 495.47 286.75 L 495.61 286.74 L 495.76 285.87 L 495.78 285.87 L 495.86 285.87 L 495.94 285.22 L 495.96 285.22 L 496.05 284.52 L 496.09 284.48 L 496.26 283.80 L 496.28 283.80 L 496.37 283.80 L 496.49 283.78 L 497.20 283.78 L 497.55 283.78 L 505.27 283.78 L 505.35 283.78 L 505.42 283.78 L 505.55 283.78 L 505.84 283.60 L 505.86 283.60 L 505.92 283.54 L 506.10 282.58 L 506.12 282.58 L 507.81 282.60 L 507.91 282.41 L 508.76 282.41 L 508.85 282.41 L 508.95 282.34 L 509.98 281.55 L 510.41 281.40 L 510.52 281.35 L 510.89 279.85 L 511.12 279.85 L 511.50 279.73 L 512.17 279.73 L 522.50 279.72 L 523.12 279.63 L 523.15 279.65 L 524.01 279.65 L 524.06 279.65 L 524.36 279.65 L 524.71 279.62 L 524.71 279.62 L 524.75 279.62 L 525.21 278.75 L 526.27 278.72 L 526.34 278.72 L 526.45 278.72 L 526.61 278.68 L 526.66 278.66 L 526.72 278.66 L 527.21 278.62 L 527.61 278.62 L 527.82 278.61 L 527.85 278.61 L 528.29 278.60 L 528.63 278.49 L 528.65 278.49 L 528.69 278.49 L 528.74 278.49 L 539.94 278.29 L 539.96 278.29 L 540.00 278.29 L 540.21 278.29 L 540.38 278.29 L 541.37 277.43 L 541.62 277.37 L 542.33 277.31 L 542.94 277.26 L 543.39 277.26 L 543.52 277.26 L 544.09 275.96 L 544.30 275.92 L 544.37 275.88 L 546.03 274.96 L 546.05 274.96 L 546.14 274.95 L 546.45 274.94 L 546.46 274.94 L 546.48 274.94 L 546.53 274.91 L 546.68 274.87 L 546.85 274.77 L 548.57 273.26 L 548.80 273.18 L 548.95 273.18 L 548.98 273.18 L 549.01 273.18 L 556.64 273.18 L 556.89 273.17 L 557.04 273.17 L 557.09 273.17 L 557.81 273.17 L 557.96 273.17 L 558.10 273.17 L 558.18 273.14 L 558.42 271.16 L 558.45 271.15 L 558.78 271.16 L 558.85 271.14 L 559.12 270.37 L 559.18 270.33 L 559.41 269.83 L 559.58 269.83 L 559.71 269.78 L 559.99 269.32 L 560.02 269.32 L 560.39 267.85 L 560.43 267.85 L 560.49 267.84 L 560.56 267.84 L 560.60 267.84 L 561.03 266.36 L 561.64 266.23 L 561.95 266.23 L 562.96 266.19 L 562.98 266.19 L 563.14 266.19 L 563.21 266.19 L 563.32 266.19 L 563.45 266.19 L 563.58 266.17 L 563.88 266.15 L 564.18 266.15 L 565.08 266.09 L 565.12 266.09 L 566.02 266.05 L 566.41 266.01 L 574.13 266.02 L 574.52 265.95 L 574.72 265.87 L 574.80 265.87 L 574.83 265.87 L 575.02 265.87 L 575.11 265.87 L 575.34 265.87 L 575.48 265.86 L 575.98 265.72 L 576.24 265.46 L 576.67 265.44 L 576.80 265.26 L 576.94 265.18 L 577.13 265.10 L 577.80 265.18 L 577.87 265.18 L 578.84 264.90 L 578.99 264.90 L 579.18 264.90 L 579.66 264.88 L 579.87 265.01 L 579.99 265.01 L 580.08 265.01 L 580.21 265.01 L 580.63 264.37 L 581.06 264.36 L 581.45 264.36 L 581.50 264.36 L 581.54 264.36 L 609.48 264.36 L 609.66 264.31 L 625.73 264.10 L 625.82 264.10 L 625.95 264.04 L 625.97 264.04 L 626.01 264.04 L 626.59 261.58 L 626.65 261.58 L 627.36 261.58 L 628.08 261.48 L 628.33 261.23 L 628.78 260.91 L 629.38 260.83 L 629.39 260.83 L 629.47 260.78 L 629.70 260.78 L 629.78 260.73 L 630.36 260.07 L 631.11 259.96 L 631.19 259.96 L 631.57 259.96 L 631.68 259.96 L 631.97 259.80 L 632.21 259.77 L 632.70 259.63 L 633.16 259.56 L 633.40 259.56 L 633.41 259.56 L 643.46 259.56 L 646.62 259.51 L 646.75 259.49 L 646.91 259.19 L 647.42 259.21 L 647.63 259.21 L 647.79 259.21 L 647.89 259.08 L 648.13 258.99 L 648.17 258.99 L 648.52 258.75 L 648.63 258.58 L 648.70 258.53 L 648.88 258.42 L 648.95 258.42 L 649.05 258.40 L 649.12 258.26 L 649.21 258.11 L 649.31 258.07 L 649.38 258.07 L 649.71 258.01 L 649.87 257.89 L 650.00 257.80"/>
	</g>
	<g id="poloto_plot2" class="poloto_plot poloto_imgs poloto_line poloto2 poloto_stroke" fill="none" stroke="black">
		<path d=" M 150.00 392.29 L 150.03 392.29 L 150.04 392.29 L 150.05 392.29 L 150.07 392.29 L 150.09 390.31 L 150.20 390.04 L 150.44 390.04 L 150.80 390.02 L 150.98 388.84 L 151.35 388.74 L 151.41 388.70 L 151.46 388.68 L 151.89 388.14 L 152.68 387.73 L 152.94 387.65 L 153.00 387.66 L 153.48 387.63 L 154.04 387.63 L 154.04 387.63 L 154.05 387.63 L 161.54 387.63 L 161.60 387.62 L 161.69 387.61 L 161.73 387.61 L 162.02 387.49 L 162.15 387.45 L 162.47 387.26 L 162.51 387.18 L 162.60 387.00 L 162.70 386.98 L 162.73 386.98 L 162.80 386.94 L 162.89 386.94 L 162.97 386.95 L 163.18 386.75 L 163.36 386.56 L 163.39 386.57 L 163.48 386.46 L 164.08 386.22 L 164.09 386.22 L 164.17 386.15 L 164.51 385.88 L 164.78 385.56 L 165.09 385.43 L 165.15 385.43 L 165.16 385.43 L 165.22 385.25 L 165.34 385.25 L 165.49 385.23 L 165.78 385.10 L 165.80 384.87 L 165.85 384.87 L 165.92 384.76 L 166.09 384.76 L 166.11 384.76 L 166.28 384.41 L 166.35 384.39 L 166.42 384.36 L 166.49 384.20 L 167.40 384.10 L 167.62 384.07 L 168.13 383.83 L 168.23 383.83 L 168.31 383.82 L 168.36 383.64 L 168.71 382.67 L 168.86 382.66 L 169.04 382.37 L 169.13 382.34 L 169.34 382.21 L 169.44 382.16 L 169.56 381.96 L 169.68 381.79 L 170.08 381.79 L 170.09 381.76 L 170.11 381.63 L 170.25 380.69 L 177.20 380.60 L 177.92 380.32 L 177.95 380.28 L 178.80 380.05 L 178.87 380.04 L 178.95 379.87 L 179.16 379.76 L 179.25 379.54 L 179.29 379.37 L 179.39 379.02 L 179.64 379.01 L 179.65 379.01 L 179.75 378.77 L 179.84 378.77 L 179.95 378.51 L 180.08 378.31 L 180.14 378.20 L 180.16 378.20 L 180.28 377.97 L 180.29 377.96 L 180.43 377.75 L 180.45 377.74 L 180.65 377.67 L 180.68 377.67 L 180.75 377.59 L 180.83 377.57 L 180.95 377.57 L 181.00 377.56 L 181.39 377.35 L 181.40 377.35 L 181.47 376.93 L 181.65 376.92 L 181.80 376.79 L 181.85 376.79 L 181.92 376.79 L 181.96 376.75 L 182.05 376.18 L 182.49 375.69 L 182.53 375.43 L 182.68 375.40 L 182.73 375.34 L 182.76 375.33 L 182.83 375.20 L 182.90 374.75 L 183.06 374.68 L 183.16 374.66 L 183.25 374.44 L 183.30 374.43 L 183.69 374.26 L 183.91 374.14 L 183.97 374.03 L 184.15 374.02 L 184.17 374.02 L 184.19 374.00 L 184.30 373.18 L 184.39 373.17 L 184.72 373.05 L 184.77 372.72 L 184.83 372.72 L 184.92 372.58 L 184.93 372.50 L 184.96 372.45 L 184.99 372.41 L 185.04 372.41 L 185.08 372.35 L 185.21 371.42 L 185.30 371.32 L 185.40 371.05 L 185.52 371.03 L 185.66 370.94 L 185.80 370.65 L 185.90 369.84 L 186.10 369.78 L 186.11 369.44 L 186.22 369.35 L 195.93 369.36 L 196.12 369.36 L 196.58 368.98 L 196.67 368.98 L 196.75 368.98 L 196.76 368.88 L 196.93 368.71 L 197.04 368.68 L 197.11 368.59 L 197.18 368.52 L 197.22 368.48 L 197.39 368.43 L 197.74 368.51 L 197.83 368.25 L 197.90 368.18 L 197.98 368.18 L 198.43 368.13 L 198.49 368.08 L 198.52 368.08 L 198.55 368.03 L 198.65 367.99 L 198.73 367.90 L 199.05 367.66 L 199.52 367.56 L 199.69 367.51 L 200.21 367.36 L 200.46 366.98 L 200.54 366.92 L 200.65 366.63 L 200.80 366.25 L 201.04 366.15 L 201.37 366.14 L 201.81 366.12 L 201.87 365.99 L 202.20 365.89 L 202.40 365.77 L 202.47 365.68 L 202.59 365.64 L 202.69 365.39 L 203.84 365.26 L 204.93 365.26 L 214.70 365.24 L 214.77 365.10 L 214.83 365.01 L 215.13 364.87 L 216.04 364.62 L 216.08 364.58 L 216.21 364.40 L 216.66 364.33 L 216.87 363.84 L 217.19 363.83 L 217.27 363.81 L 217.34 363.34 L 217.91 362.89 L 217.98 362.88 L 218.09 362.86 L 218.22 362.82 L 218.28 362.65 L 218.60 361.90 L 218.71 361.71 L 218.76 361.70 L 218.83 361.62 L 218.97 361.33 L 219.03 360.58 L 219.17 360.27 L 219.60 360.10 L 219.64 359.72 L 219.68 359.72 L 219.74 359.65 L 219.85 359.55 L 219.89 359.52 L 219.93 359.49 L 220.13 358.62 L 220.18 358.10 L 220.43 358.00 L 220.58 357.13 L 220.67 356.97 L 221.43 355.60 L 221.52 355.58 L 250.24 355.18 L 250.26 355.18 L 261.24 355.06 L 261.84 354.92 L 261.96 354.92 L 262.12 354.85 L 262.17 354.74 L 262.24 354.71 L 267.00 354.70 L 267.63 353.13 L 267.86 352.99 L 267.98 352.45 L 270.95 352.38 L 270.97 352.33 L 271.15 352.32 L 272.04 352.23 L 272.09 352.04 L 272.20 351.98 L 272.51 351.90 L 272.55 351.88 L 272.68 351.57 L 272.81 351.48 L 272.83 351.25 L 282.06 350.95 L 282.13 350.24 L 282.49 350.05 L 282.50 349.78 L 282.56 349.57 L 282.64 349.24 L 282.74 348.37 L 282.90 347.90 L 283.03 347.29 L 283.15 347.28 L 283.20 346.81 L 283.38 346.78 L 284.02 346.33 L 284.28 346.12 L 284.32 346.00 L 284.38 345.99 L 284.41 345.84 L 284.50 345.30 L 284.76 345.25 L 284.80 345.25 L 284.95 344.90 L 285.02 344.90 L 285.04 344.70 L 285.10 344.57 L 285.14 344.57 L 285.17 344.29 L 285.38 344.12 L 285.46 343.84 L 285.58 343.83 L 285.65 343.68 L 285.69 343.47 L 285.89 343.36 L 285.95 343.23 L 285.98 343.23 L 286.04 343.23 L 286.07 343.01 L 286.09 343.02 L 286.11 343.02 L 286.21 342.94 L 286.25 342.70 L 286.34 342.70 L 286.42 342.64 L 286.62 342.62 L 286.88 342.60 L 286.89 342.60 L 286.96 342.58 L 287.19 342.58 L 287.31 342.58 L 287.42 342.58 L 287.54 342.54 L 287.62 342.26 L 287.94 342.25 L 287.97 342.09 L 288.01 342.08 L 288.04 341.89 L 288.25 341.82 L 288.29 341.78 L 288.44 341.78 L 302.64 341.73 L 303.45 341.65 L 303.47 341.65 L 303.63 341.64 L 303.64 341.65 L 303.75 341.31 L 303.83 341.29 L 303.89 341.20 L 303.99 341.15 L 304.02 341.12 L 304.06 341.10 L 304.21 341.07 L 304.52 341.00 L 304.71 340.55 L 304.93 340.52 L 304.94 340.49 L 304.97 340.11 L 305.00 340.11 L 305.43 340.11 L 305.43 340.07 L 305.50 339.72 L 305.68 339.68 L 305.80 339.66 L 305.82 339.66 L 305.83 339.62 L 305.88 339.59 L 305.91 339.23 L 305.93 339.22 L 306.03 339.22 L 306.04 339.19 L 306.26 339.16 L 306.87 339.14 L 307.01 339.12 L 307.06 339.11 L 307.09 338.99 L 307.12 338.99 L 307.21 338.59 L 316.91 338.46 L 316.92 338.34 L 317.01 338.26 L 317.03 338.25 L 317.09 337.91 L 317.19 337.82 L 317.20 337.80 L 317.38 337.80 L 317.43 337.80 L 317.46 337.45 L 317.61 337.41 L 318.03 337.40 L 318.04 337.38 L 318.15 337.19 L 318.19 337.20 L 318.21 336.88 L 318.56 336.88 L 318.57 336.86 L 319.10 336.78 L 319.17 336.41 L 319.36 336.41 L 319.58 336.41 L 319.63 336.12 L 319.67 335.91 L 319.77 335.90 L 320.04 335.85 L 320.09 335.84 L 320.21 335.75 L 320.34 335.75 L 320.75 335.75 L 320.80 335.75 L 320.89 335.73 L 320.90 335.73 L 321.03 335.73 L 321.34 335.70 L 321.66 335.66 L 321.71 335.66 L 321.78 335.62 L 321.87 335.52 L 322.11 335.52 L 322.52 335.40 L 322.65 335.19 L 322.88 335.16 L 323.77 334.93 L 323.96 334.93 L 324.11 334.93 L 324.33 334.92 L 324.40 334.90 L 324.62 334.79 L 324.97 334.77 L 325.02 334.67 L 325.09 334.62 L 325.13 334.63 L 325.16 334.59 L 325.44 334.57 L 331.87 334.57 L 331.93 334.57 L 332.33 334.57 L 332.37 334.56 L 332.45 334.24 L 332.53 334.22 L 332.54 334.23 L 332.76 334.22 L 332.81 334.20 L 334.13 333.73 L 334.29 333.68 L 334.40 333.67 L 334.42 333.67 L 334.83 333.66 L 334.97 333.73 L 335.00 333.72 L 335.22 333.69 L 335.46 333.25 L 335.49 333.24 L 335.69 333.23 L 335.77 333.23 L 335.84 333.23 L 336.01 333.14 L 336.37 332.73 L 336.44 332.73 L 336.50 332.67 L 336.65 332.31 L 337.00 331.91 L 337.32 331.93 L 337.38 331.72 L 337.70 331.72 L 337.76 331.69 L 337.81 331.67 L 337.84 331.46 L 337.95 331.45 L 337.98 331.45 L 338.03 331.45 L 338.21 331.45 L 338.50 331.28 L 338.67 331.26 L 338.87 331.26 L 338.96 331.26 L 339.15 331.26 L 339.48 331.26 L 339.80 331.26 L 340.05 331.26 L 340.11 331.25 L 340.17 331.25 L 340.17 331.17 L 340.36 331.12 L 340.42 331.12 L 340.49 331.11 L 341.02 331.10 L 341.03 330.90 L 341.17 330.90 L 341.79 330.90 L 342.20 330.90 L 342.50 330.85 L 342.50 330.77 L 342.53 330.77 L 351.53 330.63 L 351.56 330.62 L 351.67 330.61 L 351.72 330.48 L 351.75 330.48 L 351.75 330.48 L 352.14 330.44 L 352.22 330.01 L 352.34 329.92 L 352.53 329.08 L 352.65 329.08 L 352.81 328.72 L 352.89 328.76 L 352.94 328.76 L 352.98 328.30 L 353.09 328.22 L 353.11 327.91 L 353.15 327.86 L 353.24 327.83 L 353.31 327.67 L 353.39 329.55 L 353.50 329.52 L 353.72 328.76 L 353.82 328.60 L 353.90 328.43 L 354.46 328.13 L 354.93 327.82 L 355.50 327.37 L 355.64 327.33 L 355.81 327.33 L 355.98 327.29 L 359.29 327.07 L 359.57 327.04 L 390.94 326.46 L 489.73 326.44 L 490.06 326.17 L 490.29 326.13 L 490.51 326.13 L 490.86 325.89 L 490.97 325.61 L 491.06 325.10 L 491.22 324.96 L 491.45 325.01 L 491.63 324.71 L 491.67 324.71 L 491.83 324.61 L 491.86 324.61 L 492.02 324.11 L 492.17 323.34 L 492.62 323.27 L 492.63 323.19 L 492.76 322.19 L 493.18 322.16 L 493.20 322.06 L 493.28 322.00 L 493.38 321.10 L 493.84 321.06 L 493.85 320.93 L 493.95 320.87 L 494.06 320.28 L 494.23 320.26 L 494.24 320.16 L 494.31 319.18 L 494.33 319.15 L 494.37 319.13 L 494.56 319.13 L 494.59 319.02 L 494.65 318.95 L 494.86 318.86 L 494.91 318.85 L 495.07 318.80 L 495.35 318.84 L 495.39 318.80 L 495.42 318.77 L 495.47 318.74 L 495.61 317.72 L 495.76 317.70 L 495.78 317.62 L 495.86 316.57 L 495.94 316.19 L 495.96 316.06 L 496.05 315.55 L 496.09 314.66 L 496.26 314.65 L 496.28 314.60 L 496.37 314.42 L 496.49 314.42 L 497.20 314.39 L 497.55 314.37 L 505.27 314.41 L 505.35 314.21 L 505.42 314.06 L 505.55 313.35 L 505.84 313.34 L 505.86 313.27 L 505.92 312.38 L 506.10 312.37 L 506.12 312.29 L 507.81 312.20 L 507.91 311.88 L 508.76 311.72 L 508.85 311.69 L 508.95 310.70 L 509.98 310.41 L 510.41 310.18 L 510.52 309.43 L 510.89 309.43 L 511.12 309.02 L 511.50 308.38 L 512.17 307.99 L 522.50 307.99 L 523.12 307.98 L 523.15 307.98 L 524.01 307.84 L 524.06 307.76 L 524.36 307.70 L 524.71 306.87 L 524.71 306.87 L 524.75 306.83 L 525.21 306.66 L 526.27 306.10 L 526.34 306.05 L 526.45 306.04 L 526.61 305.81 L 526.66 305.77 L 526.72 305.73 L 527.21 305.73 L 527.61 305.73 L 527.82 305.73 L 527.85 305.69 L 528.29 304.85 L 528.63 304.77 L 528.65 304.70 L 528.69 304.63 L 528.74 304.42 L 539.94 304.26 L 539.96 304.24 L 540.00 304.22 L 540.21 304.12 L 540.38 304.01 L 541.37 303.54 L 541.62 303.44 L 542.33 303.08 L 542.94 303.03 L 543.39 302.88 L 543.52 301.64 L 544.09 301.43 L 544.30 301.36 L 544.37 300.47 L 546.03 299.61 L 546.05 299.61 L 546.14 299.21 L 546.45 299.17 L 546.46 299.17 L 546.48 299.07 L 546.53 298.96 L 546.68 298.87 L 546.85 298.26 L 548.57 297.94 L 548.80 297.80 L 548.95 297.46 L 548.98 297.43 L 549.01 297.21 L 556.64 296.43 L 556.89 295.87 L 557.04 295.84 L 557.09 295.47 L 557.81 295.31 L 557.96 294.91 L 558.10 294.91 L 558.18 294.08 L 558.42 293.88 L 558.45 293.85 L 558.78 293.80 L 558.85 293.12 L 559.12 293.03 L 559.18 292.50 L 559.41 292.44 L 559.58 292.13 L 559.71 291.52 L 559.99 291.41 L 560.02 290.79 L 560.39 292.18 L 560.43 292.18 L 560.49 291.39 L 560.56 291.39 L 560.60 291.33 L 561.03 291.25 L 561.64 290.92 L 561.95 291.09 L 562.96 291.07 L 562.98 291.06 L 563.14 291.05 L 563.21 291.03 L 563.32 290.92 L 563.45 290.83 L 563.58 290.68 L 563.88 290.48 L 564.18 290.47 L 565.08 290.38 L 565.12 290.37 L 566.02 290.26 L 566.41 290.20 L 574.13 290.17 L 574.52 290.13 L 574.72 290.13 L 574.80 290.13 L 574.83 290.13 L 575.02 290.11 L 575.11 290.08 L 575.34 289.94 L 575.48 289.91 L 575.98 289.90 L 576.24 289.83 L 576.67 289.80 L 576.80 289.77 L 576.94 289.70 L 577.13 289.61 L 577.80 289.58 L 577.87 289.56 L 578.84 289.41 L 578.99 289.16 L 579.18 289.07 L 579.66 288.93 L 579.87 288.85 L 579.99 289.19 L 580.08 289.18 L 580.21 289.05 L 580.63 288.73 L 581.06 288.64 L 581.45 288.58 L 581.50 288.54 L 581.54 288.30 L 609.48 288.25 L 609.66 288.19 L 625.73 288.11 L 625.82 288.46 L 625.95 287.07 L 625.97 287.07 L 626.01 287.10 L 626.59 286.56 L 626.65 286.54 L 627.36 286.59 L 628.08 286.53 L 628.33 286.49 L 628.78 286.43 L 629.38 286.28 L 629.39 286.28 L 629.47 286.26 L 629.70 286.21 L 629.78 286.11 L 630.36 286.03 L 631.11 285.98 L 631.19 285.84 L 631.57 285.77 L 631.68 286.39 L 631.97 286.33 L 632.21 286.30 L 632.70 286.27 L 633.16 286.27 L 633.40 285.98 L 633.41 285.98 L 643.46 285.97 L 646.62 285.23 L 646.75 284.86 L 646.91 284.76 L 647.42 284.73 L 647.63 284.60 L 647.79 282.73 L 647.89 281.73 L 648.13 281.69 L 648.17 281.68 L 648.52 281.54 L 648.63 281.49 L 648.70 281.44 L 648.88 281.21 L 648.95 281.19 L 649.05 281.17 L 649.12 281.12 L 649.21 281.06 L 649.31 280.97 L 649.38 280.93 L 649.71 280.90 L 649.87 280.80 L 650.00 280.77"/>
	</g>
	<g class="poloto_legend poloto_imgs poloto_line poloto0 poloto_stroke"><line x1="680" x2="730" y1="81.25" y2="81.25"/></g>
	<g class="poloto_legend poloto_imgs poloto_line poloto1 poloto_stroke"><line x1="680" x2="730" y1="131.25" y2="131.25"/></g>
	<g class="poloto_legend poloto_imgs poloto_line poloto2 poloto_stroke"><line x1="680" x2="730" y1="181.25" y2="181.25"/></g>
	<text class="poloto_legend poloto_text poloto_line poloto0" x="675" y="100">total</text>
	<text class="poloto_legend poloto_text poloto_line poloto1" x="675" y="150">code</text>
	<text class="poloto_legend poloto_text poloto_line poloto2" x="675" y="200">docs</text>
	<text class="poloto_text poloto_name poloto_title" x="400.00" y="37.50">Workspace lines over time</text>
	<text class="poloto_text poloto_name poloto_x" x="400.00" y="640">date (JST)</text>
	<text class="poloto_text poloto_name poloto_y" x="37.50" y="250.00" transform="rotate(-90,37.50,250.00)">lines</text>
	<text class="poloto_text poloto_ticks poloto_y">
		<tspan x="135.00" y="400.00">0</tspan>
		<tspan x="135.00" y="326.71">50K</tspan>
		<tspan x="135.00" y="253.42">100K</tspan>
		<tspan x="135.00" y="180.14">150K</tspan>
		<tspan x="135.00" y="106.85">200K</tspan>
	</text>
	<g class="poloto_imgs poloto_ticks poloto_y" stroke="black">
		<line x1="150.00" x2="144.00" y1="400.00" y2="400.00"/>
		<line x1="150.00" x2="144.00" y1="326.71" y2="326.71"/>
		<line x1="150.00" x2="144.00" y1="253.42" y2="253.42"/>
		<line x1="150.00" x2="144.00" y1="180.14" y2="180.14"/>
		<line x1="150.00" x2="144.00" y1="106.85" y2="106.85"/>
	</g>
	<g class="poloto_text poloto_ticks poloto_x">
		<text x="214.58" y="430.00" text-anchor="end" transform="rotate(-90 214.58 430.00)">2026-04-24 12:06</text>
		<text x="313.99" y="430.00" text-anchor="end" transform="rotate(-90 313.99 430.00)">2026-04-30 07:00</text>
		<text x="413.40" y="430.00" text-anchor="end" transform="rotate(-90 413.40 430.00)">2026-05-06 01:53</text>
		<text x="512.81" y="430.00" text-anchor="end" transform="rotate(-90 512.81 430.00)">2026-05-11 20:46</text>
		<text x="612.22" y="430.00" text-anchor="end" transform="rotate(-90 612.22 430.00)">2026-05-17 15:40</text>
	</g>
	<g class="poloto_imgs poloto_ticks poloto_x" stroke="black">
		<line x1="214.58" x2="214.58" y1="400.00" y2="405.00"/>
		<line x1="313.99" x2="313.99" y1="400.00" y2="405.00"/>
		<line x1="413.40" x2="413.40" y1="400.00" y2="405.00"/>
		<line x1="512.81" x2="512.81" y1="400.00" y2="405.00"/>
		<line x1="612.22" x2="612.22" y1="400.00" y2="405.00"/>
	</g>
	<path class="poloto_imgs poloto_ticks poloto_x" stroke="black" style="stroke-dasharray:9.94097051706964;stroke-dashoffset:-64.58111732528778;" d=" M 150.00 400.00 L 650.00 400.00"/>
	<path class="poloto_imgs poloto_ticks poloto_y" stroke="black" style="stroke-dasharray:7.328799249530957;stroke-dashoffset:-0;" d=" M 150.00 400.00 L 150.00 100.00"/>
</svg>

