<svg class="poloto" width="800" height="680" viewBox="0 0 800 680" xmlns="http://www.w3.org/2000/svg">
	<style>
.poloto{
  stroke-linecap:round;
  stroke-linejoin:round;
  font-family:Roboto,sans-serif;
  font-size:16px;
}
.poloto_background{fill:AliceBlue;}
.poloto_scatter{stroke-width:7}
.poloto_line{stroke-width:2}
.poloto_text{fill: black;}
.poloto_name{font-size:24px;dominant-baseline:auto;text-anchor:middle;}
.poloto_where{dominant-baseline:middle;text-anchor:start}
.poloto_text.poloto_legend{font-size:20px;dominant-baseline:middle;text-anchor:start;}
.poloto_text.poloto_ticks.poloto_y{dominant-baseline:middle;text-anchor:end}
.poloto_text.poloto_ticks.poloto_x{dominant-baseline:auto;text-anchor:middle}
.poloto_imgs.poloto_ticks{stroke: black;stroke-width:3;fill:none;stroke-dasharray:none}
.poloto_grid{stroke:gray;stroke-width:0.5}

.poloto0.poloto_stroke{stroke:blue;}
.poloto1.poloto_stroke{stroke:red;}
.poloto2.poloto_stroke{stroke:green;}
.poloto3.poloto_stroke{stroke:gold;}
.poloto4.poloto_stroke{stroke:aqua;}
.poloto5.poloto_stroke{stroke:lime;}
.poloto6.poloto_stroke{stroke:orange;}
.poloto7.poloto_stroke{stroke:chocolate;}
.poloto0.poloto_fill{fill:blue;}
.poloto1.poloto_fill{fill:red;}
.poloto2.poloto_fill{fill:green;}
.poloto3.poloto_fill{fill:gold;}
.poloto4.poloto_fill{fill:aqua;}
.poloto5.poloto_fill{fill:lime;}
.poloto6.poloto_fill{fill:orange;}
.poloto7.poloto_fill{fill:chocolate;}
	</style>
	<circle r="1e5" class="poloto_background" fill="white"/>
	<g id="poloto_plot0" class="poloto_plot poloto_imgs poloto_line poloto0 poloto_stroke" fill="none" stroke="black">
		<path d=" M 150.00 373.73 L 150.02 373.71 L 150.04 373.69 L 150.04 373.69 L 150.06 373.69 L 150.09 370.84 L 150.19 370.50 L 150.42 370.49 L 150.75 370.25 L 150.92 368.80 L 151.26 368.71 L 151.32 368.64 L 151.37 368.60 L 151.77 367.90 L 152.52 367.32 L 152.75 365.08 L 152.81 365.09 L 153.27 365.00 L 153.79 364.99 L 153.79 364.99 L 153.79 364.99 L 160.82 364.99 L 160.87 364.98 L 160.96 364.97 L 161.00 364.94 L 161.27 364.81 L 161.39 364.78 L 161.69 364.57 L 161.73 364.48 L 161.82 364.28 L 161.90 364.25 L 161.93 364.24 L 162.00 364.19 L 162.08 364.19 L 162.16 364.19 L 162.35 363.86 L 162.53 363.66 L 162.56 363.66 L 162.64 363.53 L 163.20 364.05 L 163.21 364.05 L 163.28 363.96 L 163.60 363.58 L 163.86 363.12 L 164.15 362.92 L 164.21 362.88 L 164.21 362.89 L 164.27 362.71 L 164.38 362.71 L 164.52 362.64 L 164.79 362.47 L 164.81 362.20 L 164.86 362.20 L 164.93 362.07 L 165.09 362.07 L 165.10 362.07 L 165.27 361.68 L 165.33 361.66 L 165.39 361.63 L 165.46 361.48 L 166.31 361.27 L 166.52 361.23 L 166.99 360.96 L 167.10 360.96 L 167.17 360.95 L 167.21 360.75 L 167.54 359.62 L 167.69 359.60 L 167.86 359.22 L 167.94 359.19 L 168.14 358.87 L 168.22 358.76 L 168.34 358.56 L 168.45 358.38 L 168.83 355.77 L 168.84 355.71 L 168.86 355.55 L 168.98 354.30 L 175.50 354.21 L 176.18 352.78 L 176.20 352.74 L 177.00 352.52 L 177.07 352.51 L 177.14 352.23 L 177.34 352.09 L 177.43 351.84 L 177.46 351.63 L 177.56 351.26 L 177.79 351.25 L 177.80 351.00 L 177.89 350.72 L 177.98 350.71 L 178.08 350.40 L 178.20 350.17 L 178.25 350.06 L 178.27 350.06 L 178.38 349.81 L 178.40 349.81 L 178.53 349.56 L 178.55 349.55 L 178.73 348.38 L 178.76 348.38 L 178.83 348.18 L 178.91 348.17 L 179.02 348.17 L 179.06 348.14 L 179.43 347.92 L 179.44 347.93 L 179.51 347.41 L 179.67 347.40 L 179.82 346.61 L 179.86 346.54 L 179.93 346.54 L 179.96 346.50 L 180.05 345.90 L 180.46 340.78 L 180.50 340.53 L 180.64 340.51 L 180.68 340.45 L 180.71 340.43 L 180.78 340.30 L 180.84 339.72 L 180.99 339.60 L 181.09 339.58 L 181.17 339.33 L 181.22 339.32 L 181.59 339.13 L 181.79 338.99 L 181.85 338.76 L 182.02 338.75 L 182.04 338.75 L 182.05 338.73 L 182.16 337.50 L 182.25 337.42 L 182.55 336.18 L 182.60 335.82 L 182.66 335.81 L 182.74 335.68 L 182.74 335.59 L 182.78 335.53 L 182.81 335.49 L 182.85 335.49 L 182.89 335.42 L 183.01 334.41 L 183.10 334.26 L 183.19 333.96 L 183.30 333.94 L 183.43 333.85 L 183.56 333.13 L 183.66 332.13 L 183.85 332.08 L 183.85 331.71 L 183.96 331.58 L 193.06 331.59 L 193.24 331.58 L 193.67 331.05 L 193.76 331.04 L 193.83 331.04 L 193.84 330.91 L 194.00 330.74 L 194.11 330.72 L 194.17 330.62 L 194.23 330.55 L 194.27 330.51 L 194.43 330.46 L 194.76 330.40 L 194.84 330.13 L 194.90 330.06 L 194.98 330.05 L 195.41 329.92 L 195.46 329.84 L 195.49 329.84 L 195.52 329.74 L 195.61 329.69 L 195.68 329.59 L 195.99 328.92 L 196.43 328.82 L 196.59 328.78 L 197.08 328.61 L 197.31 325.39 L 197.39 325.32 L 197.49 325.01 L 197.63 324.59 L 197.85 324.47 L 198.16 324.45 L 198.57 324.44 L 198.63 324.30 L 198.94 324.15 L 199.13 323.92 L 199.19 323.83 L 199.31 323.79 L 199.40 323.50 L 200.48 323.19 L 201.50 323.19 L 210.66 323.16 L 210.73 323.02 L 210.78 322.93 L 211.06 322.79 L 211.92 321.68 L 211.96 321.61 L 212.08 321.32 L 212.50 321.25 L 212.70 320.50 L 213.00 320.49 L 213.07 320.48 L 213.14 319.97 L 213.67 317.04 L 213.73 317.04 L 213.84 317.01 L 213.96 316.98 L 214.02 316.66 L 214.31 315.56 L 214.42 315.35 L 214.47 315.34 L 214.53 314.83 L 214.67 314.11 L 214.72 313.35 L 214.85 313.01 L 215.25 309.20 L 215.29 308.82 L 215.33 308.82 L 215.39 308.75 L 215.49 308.65 L 215.52 308.62 L 215.56 308.58 L 215.75 307.67 L 215.80 307.02 L 216.03 306.90 L 216.17 305.94 L 216.26 305.34 L 216.97 296.47 L 217.05 296.44 L 243.98 296.02 L 244.00 296.02 L 254.29 295.90 L 254.85 295.66 L 254.97 295.66 L 255.12 295.59 L 255.17 295.48 L 255.23 295.45 L 259.69 295.38 L 260.28 293.70 L 260.50 293.54 L 260.62 292.92 L 263.39 292.80 L 263.41 292.63 L 263.59 292.61 L 264.42 291.55 L 264.47 291.36 L 264.57 291.29 L 264.86 291.22 L 264.90 291.19 L 265.02 290.87 L 265.14 290.78 L 265.16 290.54 L 273.81 290.22 L 273.87 289.31 L 274.22 289.11 L 274.22 287.59 L 274.28 287.36 L 274.36 286.99 L 274.45 285.94 L 274.60 285.39 L 274.72 284.74 L 274.83 284.73 L 274.88 284.23 L 275.05 284.19 L 275.65 281.74 L 275.89 281.48 L 275.93 281.32 L 275.98 281.32 L 276.01 281.15 L 276.10 280.55 L 276.34 280.26 L 276.38 280.22 L 276.53 278.07 L 276.58 278.06 L 276.61 277.83 L 276.66 277.65 L 276.70 277.65 L 276.73 277.32 L 276.92 276.16 L 277.00 275.83 L 277.11 275.79 L 277.18 272.67 L 277.21 272.41 L 277.40 270.64 L 277.46 270.50 L 277.49 270.49 L 277.54 270.49 L 277.57 270.24 L 277.60 270.25 L 277.61 270.24 L 277.70 267.09 L 277.74 266.82 L 277.83 266.80 L 277.90 266.75 L 278.09 266.66 L 278.33 266.54 L 278.34 266.54 L 278.40 266.50 L 278.63 266.44 L 278.73 266.44 L 278.83 266.44 L 278.95 265.07 L 279.02 264.74 L 279.33 264.74 L 279.35 264.52 L 279.39 264.52 L 279.42 264.28 L 279.62 262.30 L 279.65 262.25 L 279.80 262.24 L 293.10 262.18 L 293.86 262.08 L 293.89 262.08 L 294.04 262.08 L 294.05 262.08 L 294.14 261.69 L 294.22 261.67 L 294.28 261.48 L 294.38 261.43 L 294.40 261.40 L 294.44 261.38 L 294.58 261.16 L 294.87 260.96 L 295.05 260.33 L 295.25 259.72 L 295.26 259.69 L 295.30 259.12 L 295.32 259.10 L 295.72 258.76 L 295.73 258.72 L 295.79 258.27 L 295.96 258.23 L 296.07 258.18 L 296.09 257.38 L 296.10 257.34 L 296.15 258.10 L 296.17 257.63 L 296.19 257.61 L 296.29 256.54 L 296.30 256.51 L 296.50 256.42 L 297.07 256.40 L 297.21 256.37 L 297.25 256.36 L 297.28 256.22 L 297.31 256.22 L 297.39 255.69 L 306.49 254.66 L 306.50 254.52 L 306.58 254.42 L 306.60 254.22 L 306.65 245.25 L 306.75 241.57 L 306.76 241.55 L 306.93 241.48 L 306.97 241.48 L 307.00 241.06 L 307.15 241.02 L 307.54 240.15 L 307.55 240.13 L 307.65 239.86 L 307.69 239.87 L 307.71 239.43 L 308.04 238.92 L 308.05 238.90 L 308.54 238.71 L 308.60 238.25 L 308.78 238.26 L 308.99 237.10 L 309.04 236.64 L 309.07 236.27 L 309.17 235.83 L 309.42 235.67 L 309.47 235.56 L 309.58 235.45 L 309.71 235.45 L 310.09 235.46 L 310.13 235.46 L 310.22 235.43 L 310.23 235.43 L 310.35 235.45 L 310.64 235.42 L 310.94 235.25 L 310.98 235.25 L 311.05 235.19 L 311.13 235.06 L 311.36 235.06 L 311.75 234.90 L 311.87 234.54 L 312.08 231.45 L 312.92 234.06 L 313.10 234.05 L 313.23 234.04 L 313.44 234.03 L 313.51 233.99 L 313.72 233.84 L 314.05 233.63 L 314.09 233.48 L 314.15 233.42 L 314.19 233.44 L 314.22 233.39 L 314.48 233.20 L 320.51 233.20 L 320.57 233.20 L 320.94 233.19 L 320.98 233.17 L 321.06 232.78 L 321.13 232.56 L 321.14 232.56 L 321.35 232.52 L 321.40 232.50 L 322.63 231.92 L 322.78 231.87 L 322.88 231.86 L 322.91 231.86 L 323.29 231.72 L 323.42 231.79 L 323.45 231.78 L 323.65 231.75 L 323.87 230.52 L 323.90 230.52 L 324.09 230.38 L 324.17 230.38 L 324.24 230.38 L 324.39 230.24 L 324.73 229.74 L 324.79 229.73 L 324.85 229.59 L 324.99 229.01 L 325.32 228.40 L 325.62 225.56 L 325.68 225.21 L 325.98 225.07 L 326.03 225.00 L 326.08 224.86 L 326.11 224.40 L 326.22 223.58 L 326.24 223.62 L 326.29 223.60 L 326.46 223.60 L 326.72 223.30 L 326.89 223.24 L 327.07 223.23 L 327.16 223.22 L 327.34 223.21 L 327.65 223.21 L 327.95 223.20 L 328.18 223.20 L 328.23 223.19 L 328.29 223.18 L 328.30 223.08 L 328.47 223.02 L 328.52 223.01 L 328.60 222.89 L 329.09 222.87 L 329.10 222.62 L 329.23 222.61 L 329.81 222.62 L 330.19 222.46 L 330.47 222.28 L 330.48 222.18 L 330.51 222.18 L 338.95 222.01 L 338.98 222.01 L 339.07 222.00 L 339.12 221.86 L 339.15 221.84 L 339.15 221.83 L 339.51 221.79 L 339.60 221.28 L 339.70 221.16 L 339.88 220.15 L 340.00 220.14 L 340.14 219.71 L 340.22 219.76 L 340.26 219.75 L 340.30 219.26 L 340.41 218.93 L 340.42 218.57 L 340.46 218.52 L 340.55 218.49 L 340.61 218.32 L 340.69 220.26 L 340.79 220.22 L 341.00 219.45 L 341.09 219.26 L 341.17 219.10 L 341.69 217.99 L 342.13 217.45 L 342.67 216.42 L 342.80 216.37 L 342.95 216.37 L 343.12 216.33 L 346.22 216.03 L 346.48 216.01 L 375.89 215.23 L 468.51 215.04 L 468.82 214.73 L 469.03 214.69 L 469.25 214.69 L 469.57 214.08 L 469.68 213.79 L 469.76 213.25 L 469.91 211.69 L 470.12 212.01 L 470.30 211.67 L 470.34 211.66 L 470.48 211.56 L 470.51 211.56 L 470.66 210.99 L 470.80 210.08 L 471.22 209.10 L 471.23 209.02 L 471.35 207.86 L 471.75 204.99 L 471.76 204.89 L 471.84 204.83 L 471.94 203.80 L 472.37 202.42 L 472.38 202.29 L 472.47 202.23 L 472.57 201.55 L 472.73 201.01 L 472.74 200.91 L 472.81 199.86 L 472.82 199.83 L 472.86 199.54 L 473.05 197.66 L 473.07 197.56 L 473.13 197.45 L 473.33 197.20 L 473.37 197.19 L 473.52 196.84 L 473.78 196.88 L 473.82 196.83 L 473.85 196.81 L 473.90 196.78 L 474.03 195.68 L 474.16 194.79 L 474.18 194.71 L 474.26 193.59 L 474.34 192.49 L 474.36 192.36 L 474.44 191.08 L 474.47 190.07 L 474.63 189.39 L 474.66 189.34 L 474.74 189.13 L 474.85 189.11 L 475.51 189.08 L 475.84 189.05 L 483.08 189.10 L 483.15 188.90 L 483.22 188.73 L 483.35 187.98 L 483.62 187.78 L 483.64 187.71 L 483.69 186.72 L 483.86 185.75 L 483.88 185.67 L 485.46 185.60 L 485.56 185.06 L 486.35 184.90 L 486.44 184.86 L 486.54 183.73 L 487.49 182.68 L 487.90 182.28 L 488.00 181.46 L 488.35 180.05 L 488.57 179.64 L 488.92 178.81 L 489.56 178.39 L 499.24 178.38 L 499.82 178.29 L 499.85 178.30 L 500.66 178.14 L 500.70 178.06 L 500.98 178.00 L 501.31 177.08 L 501.31 177.08 L 501.35 177.04 L 501.78 175.99 L 502.77 175.39 L 502.84 175.34 L 502.94 175.33 L 503.09 175.05 L 503.13 174.98 L 503.19 174.93 L 503.65 174.89 L 504.03 174.89 L 504.23 174.88 L 504.25 174.84 L 504.67 173.93 L 504.99 173.75 L 505.00 173.68 L 505.04 173.61 L 505.08 173.36 L 515.59 173.01 L 515.61 172.99 L 515.64 172.98 L 515.84 172.87 L 516.00 172.76 L 516.93 171.35 L 517.16 171.18 L 517.83 170.76 L 518.40 170.66 L 518.83 170.52 L 518.95 169.22 L 519.48 167.69 L 519.67 167.58 L 519.74 166.60 L 521.30 164.79 L 521.31 164.79 L 521.40 164.35 L 521.69 164.30 L 521.70 164.30 L 521.71 164.19 L 521.77 164.05 L 521.90 163.91 L 522.07 163.15 L 523.68 161.32 L 523.89 161.10 L 524.04 160.77 L 524.06 160.73 L 524.09 160.47 L 531.25 159.65 L 531.48 159.02 L 531.62 158.99 L 531.67 158.57 L 532.34 158.38 L 532.48 157.96 L 532.61 157.96 L 532.68 157.08 L 532.91 154.85 L 532.95 154.82 L 533.25 154.78 L 533.32 154.05 L 533.57 153.18 L 533.63 152.57 L 533.84 152.01 L 534.00 151.72 L 534.12 151.05 L 534.39 150.48 L 534.42 149.84 L 534.76 149.70 L 534.79 149.70 L 534.85 148.89 L 534.92 148.89 L 534.96 148.83 L 535.36 147.31 L 535.94 146.81 L 536.22 146.98 L 537.17 146.91 L 537.19 146.90 L 537.34 146.88 L 537.40 146.87 L 537.51 146.76 L 537.63 146.67 L 537.75 146.51 L 538.04 146.29 L 538.31 146.28 L 539.16 146.12 L 539.19 146.11 L 540.04 145.97 L 540.41 145.88 L 547.65 145.86 L 548.01 145.75 L 548.19 145.68 L 548.27 145.68 L 548.29 145.68 L 548.48 145.65 L 548.56 145.61 L 548.77 145.46 L 548.90 145.43 L 549.37 145.28 L 549.62 144.94 L 550.03 144.89 L 550.14 144.67 L 550.28 144.53 L 550.46 144.36 L 551.08 144.40 L 551.14 144.39 L 552.06 143.97 L 552.20 143.72 L 552.38 143.64 L 552.82 143.44 L 553.03 143.49 L 553.13 143.82 L 553.22 143.80 L 553.35 143.67 L 553.73 142.67 L 554.14 142.56 L 554.51 142.48 L 554.55 142.44 L 554.59 142.15 L 580.78 142.08 L 580.96 141.96 L 596.02 141.64 L 596.10 142.00 L 596.22 140.47 L 596.24 140.47 L 596.28 140.51 L 596.82 137.42 L 596.88 137.39 L 597.54 137.46 L 598.22 137.26 L 598.46 136.97 L 598.88 136.60 L 599.44 136.36 L 599.45 136.36 L 599.53 136.29 L 599.75 136.24 L 599.81 136.08 L 600.36 135.33 L 601.06 135.17 L 601.14 135.03 L 601.49 134.96 L 601.60 135.56 L 601.87 135.34 L 602.10 135.29 L 602.55 135.13 L 602.99 135.05 L 603.21 134.72 L 603.22 134.72 L 612.65 134.71 L 615.61 133.86 L 615.73 133.45 L 615.88 133.06 L 616.35 133.04 L 616.55 132.91 L 616.70 130.92 L 616.80 129.63 L 617.02 129.51 L 617.06 129.48 L 617.39 129.11 L 617.49 128.91 L 617.55 128.81 L 617.73 128.48 L 617.79 128.46 L 617.88 128.42 L 617.95 128.23 L 618.04 128.02 L 618.13 127.90 L 618.20 127.87 L 618.50 127.78 L 618.65 127.56 L 618.77 127.44 L 618.81 126.80 L 619.16 126.68 L 619.29 126.31 L 628.18 126.40 L 628.83 126.17 L 628.94 126.17 L 629.34 125.42 L 629.52 125.33 L 630.26 124.13 L 630.58 124.01 L 631.01 122.92 L 631.06 122.92 L 631.32 122.89 L 631.41 122.27 L 631.74 121.39 L 632.26 120.87 L 632.43 120.24 L 635.56 118.64 L 635.87 118.17 L 635.89 118.17 L 644.23 116.68 L 644.23 116.68 L 644.34 116.62 L 644.44 115.80 L 644.83 114.85 L 644.85 114.85 L 645.31 114.73 L 645.98 114.61 L 646.74 114.57 L 646.79 114.51 L 646.87 114.46 L 647.00 114.46 L 647.22 114.33 L 647.32 114.26 L 647.42 114.25 L 647.57 114.11 L 648.70 113.58 L 648.82 112.76 L 649.08 100.47 L 649.18 100.37 L 649.25 100.34 L 649.33 100.07 L 649.42 100.05 L 649.43 100.05 L 649.45 100.05 L 649.48 100.05 L 650.00 100.00"/>
	</g>
	<g id="poloto_plot1" class="poloto_plot poloto_imgs poloto_line poloto1 poloto_stroke" fill="none" stroke="black">
		<path d=" M 150.00 384.39 L 150.02 384.38 L 150.04 384.37 L 150.04 384.37 L 150.06 384.37 L 150.09 383.87 L 150.19 383.86 L 150.42 383.85 L 150.75 383.66 L 150.92 383.58 L 151.26 383.60 L 151.32 383.56 L 151.37 383.56 L 151.77 383.52 L 152.52 383.43 L 152.75 381.50 L 152.81 381.50 L 153.27 381.46 L 153.79 381.45 L 153.79 381.45 L 153.79 381.45 L 160.82 381.45 L 160.87 381.45 L 160.96 381.45 L 161.00 381.42 L 161.27 381.41 L 161.39 381.41 L 161.69 381.41 L 161.73 381.41 L 161.82 381.39 L 161.90 381.39 L 161.93 381.39 L 162.00 381.37 L 162.08 381.37 L 162.16 381.37 L 162.35 381.27 L 162.53 381.27 L 162.56 381.27 L 162.64 381.27 L 163.20 381.99 L 163.21 381.99 L 163.28 381.98 L 163.60 381.87 L 163.86 381.75 L 164.15 381.70 L 164.21 381.66 L 164.21 381.66 L 164.27 381.66 L 164.38 381.66 L 164.52 381.61 L 164.79 381.57 L 164.81 381.57 L 164.86 381.57 L 164.93 381.55 L 165.09 381.55 L 165.10 381.55 L 165.27 381.55 L 165.33 381.55 L 165.39 381.55 L 165.46 381.55 L 166.31 381.46 L 166.52 381.45 L 166.99 381.41 L 167.10 381.41 L 167.17 381.41 L 167.21 381.41 L 167.54 381.36 L 167.69 381.36 L 167.86 381.29 L 167.94 381.28 L 168.14 381.12 L 168.22 381.06 L 168.34 381.06 L 168.45 381.06 L 168.83 378.81 L 168.84 378.77 L 168.86 378.77 L 168.98 378.55 L 175.50 378.55 L 176.18 377.58 L 176.20 377.58 L 177.00 377.58 L 177.07 377.58 L 177.14 377.47 L 177.34 377.46 L 177.43 377.46 L 177.46 377.46 L 177.56 377.46 L 177.79 377.46 L 177.80 377.25 L 177.89 377.24 L 177.98 377.24 L 178.08 377.22 L 178.20 377.21 L 178.25 377.21 L 178.27 377.21 L 178.38 377.21 L 178.40 377.21 L 178.53 377.21 L 178.55 377.21 L 178.73 376.25 L 178.76 376.25 L 178.83 376.14 L 178.91 376.14 L 179.02 376.14 L 179.06 376.13 L 179.43 376.13 L 179.44 376.13 L 179.51 376.07 L 179.67 376.07 L 179.82 375.52 L 179.86 375.45 L 179.93 375.45 L 179.96 375.45 L 180.05 375.43 L 180.46 371.40 L 180.50 371.44 L 180.64 371.44 L 180.68 371.44 L 180.71 371.43 L 180.78 371.43 L 180.84 371.38 L 180.99 371.38 L 181.09 371.38 L 181.17 371.37 L 181.22 371.37 L 181.59 371.36 L 181.79 371.36 L 181.85 371.26 L 182.02 371.26 L 182.04 371.26 L 182.05 371.26 L 182.16 370.99 L 182.25 370.92 L 182.55 369.96 L 182.60 369.96 L 182.66 369.96 L 182.74 369.97 L 182.74 369.97 L 182.78 369.97 L 182.81 369.97 L 182.85 369.97 L 182.89 369.97 L 183.01 369.96 L 183.10 369.96 L 183.19 369.94 L 183.30 369.94 L 183.43 369.94 L 183.56 369.58 L 183.66 369.46 L 183.85 369.46 L 183.85 369.46 L 183.96 369.46 L 193.06 369.46 L 193.24 369.45 L 193.67 369.39 L 193.76 369.38 L 193.83 369.38 L 193.84 369.38 L 194.00 369.38 L 194.11 369.38 L 194.17 369.38 L 194.23 369.38 L 194.27 369.37 L 194.43 369.37 L 194.76 369.39 L 194.84 369.39 L 194.90 369.39 L 194.98 369.39 L 195.41 369.32 L 195.46 369.28 L 195.49 369.28 L 195.52 369.23 L 195.61 369.23 L 195.68 369.22 L 195.99 368.86 L 196.43 368.86 L 196.59 368.86 L 197.08 368.86 L 197.31 366.39 L 197.39 366.39 L 197.49 366.39 L 197.63 366.38 L 197.85 366.38 L 198.16 366.38 L 198.57 366.38 L 198.63 366.38 L 198.94 366.32 L 199.13 366.22 L 199.19 366.22 L 199.31 366.22 L 199.40 366.21 L 200.48 366.05 L 201.50 366.05 L 210.66 366.05 L 210.73 366.05 L 210.78 366.05 L 211.06 366.05 L 211.92 365.27 L 211.96 365.25 L 212.08 365.17 L 212.50 365.16 L 212.70 364.98 L 213.00 364.98 L 213.07 364.98 L 213.14 364.98 L 213.67 362.81 L 213.73 362.81 L 213.84 362.81 L 213.96 362.81 L 214.02 362.67 L 214.31 362.41 L 214.42 362.41 L 214.47 362.41 L 214.53 362.01 L 214.67 361.61 L 214.72 361.61 L 214.85 361.61 L 215.25 358.38 L 215.29 358.38 L 215.33 358.38 L 215.39 358.38 L 215.49 358.38 L 215.52 358.38 L 215.56 358.38 L 215.75 358.38 L 215.80 358.31 L 216.03 358.30 L 216.17 358.25 L 216.26 357.86 L 216.97 351.44 L 217.05 351.44 L 243.98 351.44 L 244.00 351.44 L 254.29 351.44 L 254.85 351.34 L 254.97 351.34 L 255.12 351.34 L 255.17 351.34 L 255.23 351.34 L 259.69 351.29 L 260.28 351.23 L 260.50 351.23 L 260.62 351.21 L 263.39 351.16 L 263.41 351.07 L 263.59 351.07 L 264.42 350.20 L 264.47 350.20 L 264.57 350.20 L 264.86 350.20 L 264.90 350.20 L 265.02 350.20 L 265.14 350.20 L 265.16 350.20 L 273.81 350.19 L 273.87 350.03 L 274.22 350.03 L 274.22 348.99 L 274.28 348.99 L 274.36 348.99 L 274.45 348.89 L 274.60 348.89 L 274.72 348.84 L 274.83 348.84 L 274.88 348.84 L 275.05 348.83 L 275.65 347.05 L 275.89 347.04 L 275.93 347.04 L 275.98 347.04 L 276.01 347.04 L 276.10 347.01 L 276.34 346.79 L 276.38 346.75 L 276.53 345.16 L 276.58 345.15 L 276.61 345.15 L 276.66 345.13 L 276.70 345.13 L 276.73 345.12 L 276.92 344.25 L 277.00 344.24 L 277.11 344.22 L 277.18 341.51 L 277.21 341.51 L 277.40 339.99 L 277.46 339.99 L 277.49 339.98 L 277.54 339.98 L 277.57 339.98 L 277.60 339.98 L 277.61 339.98 L 277.70 337.16 L 277.74 337.16 L 277.83 337.15 L 277.90 337.15 L 278.09 337.09 L 278.33 337.01 L 278.34 337.01 L 278.40 337.00 L 278.63 336.95 L 278.73 336.95 L 278.83 336.95 L 278.95 335.74 L 279.02 335.74 L 279.33 335.73 L 279.35 335.73 L 279.39 335.73 L 279.42 335.73 L 279.62 333.99 L 279.65 333.99 L 279.80 333.98 L 293.10 333.98 L 293.86 333.97 L 293.89 333.97 L 294.04 333.97 L 294.05 333.97 L 294.14 333.97 L 294.22 333.97 L 294.28 333.88 L 294.38 333.88 L 294.40 333.88 L 294.44 333.88 L 294.58 333.72 L 294.87 333.62 L 295.05 333.52 L 295.25 333.03 L 295.26 333.03 L 295.30 332.91 L 295.32 332.89 L 295.72 332.59 L 295.73 332.59 L 295.79 332.55 L 295.96 332.55 L 296.07 332.52 L 296.09 331.80 L 296.10 331.80 L 296.15 332.51 L 296.17 332.47 L 296.19 332.46 L 296.29 331.49 L 296.30 331.49 L 296.50 331.45 L 297.07 331.45 L 297.21 331.45 L 297.25 331.45 L 297.28 331.45 L 297.31 331.45 L 297.39 331.39 L 306.49 330.59 L 306.50 330.59 L 306.58 330.58 L 306.60 330.41 L 306.65 321.84 L 306.75 318.65 L 306.76 318.65 L 306.93 318.59 L 306.97 318.59 L 307.00 318.58 L 307.15 318.58 L 307.54 317.80 L 307.55 317.80 L 307.65 317.76 L 307.69 317.76 L 307.71 317.69 L 308.04 317.23 L 308.05 317.23 L 308.54 317.13 L 308.60 317.10 L 308.78 317.11 L 308.99 316.05 L 309.04 315.95 L 309.07 315.85 L 309.17 315.45 L 309.42 315.36 L 309.47 315.27 L 309.58 315.27 L 309.71 315.27 L 310.09 315.27 L 310.13 315.27 L 310.22 315.27 L 310.23 315.27 L 310.35 315.28 L 310.64 315.28 L 310.94 315.17 L 310.98 315.17 L 311.05 315.16 L 311.13 315.16 L 311.36 315.16 L 311.75 315.16 L 311.87 315.07 L 312.08 312.30 L 312.92 314.91 L 313.10 314.90 L 313.23 314.89 L 313.44 314.89 L 313.51 314.86 L 313.72 314.84 L 314.05 314.69 L 314.09 314.69 L 314.15 314.69 L 314.19 314.69 L 314.22 314.69 L 314.48 314.53 L 320.51 314.53 L 320.57 314.54 L 320.94 314.53 L 320.98 314.53 L 321.06 314.50 L 321.13 314.31 L 321.14 314.30 L 321.35 314.28 L 321.40 314.28 L 322.63 314.12 L 322.78 314.12 L 322.88 314.12 L 322.91 314.12 L 323.29 314.01 L 323.42 314.01 L 323.45 314.01 L 323.65 314.01 L 323.87 313.35 L 323.90 313.35 L 324.09 313.24 L 324.17 313.24 L 324.24 313.24 L 324.39 313.24 L 324.73 313.23 L 324.79 313.22 L 324.85 313.15 L 324.99 313.04 L 325.32 312.94 L 325.62 310.33 L 325.68 310.24 L 325.98 310.12 L 326.03 310.09 L 326.08 310.00 L 326.11 309.81 L 326.22 309.03 L 326.24 309.07 L 326.29 309.05 L 326.46 309.05 L 326.72 308.94 L 326.89 308.90 L 327.07 308.89 L 327.16 308.88 L 327.34 308.87 L 327.65 308.87 L 327.95 308.86 L 328.18 308.86 L 328.23 308.85 L 328.29 308.85 L 328.30 308.85 L 328.47 308.85 L 328.52 308.84 L 328.60 308.74 L 329.09 308.73 L 329.10 308.73 L 329.23 308.72 L 329.81 308.71 L 330.19 308.59 L 330.47 308.47 L 330.48 308.47 L 330.51 308.47 L 338.95 308.47 L 338.98 308.47 L 339.07 308.47 L 339.12 308.47 L 339.15 308.46 L 339.15 308.46 L 339.51 308.46 L 339.60 308.45 L 339.70 308.43 L 339.88 308.41 L 340.00 308.41 L 340.14 308.35 L 340.22 308.35 L 340.26 308.35 L 340.30 308.35 L 340.41 308.11 L 340.42 308.11 L 340.46 308.11 L 340.55 308.11 L 340.61 308.11 L 340.69 308.17 L 340.79 308.17 L 341.00 308.16 L 341.09 308.16 L 341.17 308.16 L 341.69 307.39 L 342.13 307.19 L 342.67 306.64 L 342.80 306.64 L 342.95 306.64 L 343.12 306.64 L 346.22 306.57 L 346.48 306.57 L 375.89 306.47 L 468.51 306.33 L 468.82 306.28 L 469.03 306.28 L 469.25 306.28 L 469.57 305.92 L 469.68 305.92 L 469.76 305.92 L 469.91 304.64 L 470.12 304.88 L 470.30 304.87 L 470.34 304.87 L 470.48 304.85 L 470.51 304.85 L 470.66 304.85 L 470.80 304.79 L 471.22 303.98 L 471.23 303.98 L 471.35 303.91 L 471.75 301.28 L 471.76 301.28 L 471.84 301.27 L 471.94 301.23 L 472.37 300.01 L 472.38 300.01 L 472.47 300.01 L 472.57 299.98 L 472.73 299.53 L 472.74 299.53 L 472.81 299.53 L 472.82 299.53 L 472.86 299.28 L 473.05 297.54 L 473.07 297.54 L 473.13 297.54 L 473.33 297.39 L 473.37 297.39 L 473.52 297.10 L 473.78 297.10 L 473.82 297.10 L 473.85 297.10 L 473.90 297.10 L 474.03 297.10 L 474.16 296.31 L 474.18 296.31 L 474.26 296.31 L 474.34 295.71 L 474.36 295.71 L 474.44 295.08 L 474.47 295.05 L 474.63 294.42 L 474.66 294.42 L 474.74 294.42 L 474.85 294.41 L 475.51 294.41 L 475.84 294.41 L 483.08 294.41 L 483.15 294.41 L 483.22 294.41 L 483.35 294.41 L 483.62 294.24 L 483.64 294.24 L 483.69 294.19 L 483.86 293.32 L 483.88 293.32 L 485.46 293.34 L 485.56 293.17 L 486.35 293.17 L 486.44 293.16 L 486.54 293.10 L 487.49 292.38 L 487.90 292.25 L 488.00 292.20 L 488.35 290.84 L 488.57 290.84 L 488.92 290.73 L 489.56 290.73 L 499.24 290.72 L 499.82 290.64 L 499.85 290.66 L 500.66 290.66 L 500.70 290.66 L 500.98 290.66 L 501.31 290.63 L 501.31 290.63 L 501.35 290.63 L 501.78 289.84 L 502.77 289.81 L 502.84 289.81 L 502.94 289.81 L 503.09 289.78 L 503.13 289.75 L 503.19 289.75 L 503.65 289.72 L 504.03 289.72 L 504.23 289.72 L 504.25 289.72 L 504.67 289.70 L 504.99 289.61 L 505.00 289.61 L 505.04 289.61 L 505.08 289.61 L 515.59 289.42 L 515.61 289.42 L 515.64 289.42 L 515.84 289.42 L 516.00 289.42 L 516.93 288.64 L 517.16 288.59 L 517.83 288.53 L 518.40 288.49 L 518.83 288.49 L 518.95 288.49 L 519.48 287.30 L 519.67 287.27 L 519.74 287.23 L 521.30 286.40 L 521.31 286.40 L 521.40 286.39 L 521.69 286.38 L 521.70 286.38 L 521.71 286.38 L 521.77 286.35 L 521.90 286.32 L 522.07 286.22 L 523.68 284.85 L 523.89 284.78 L 524.04 284.78 L 524.06 284.78 L 524.09 284.78 L 531.25 284.78 L 531.48 284.77 L 531.62 284.77 L 531.67 284.77 L 532.34 284.77 L 532.48 284.77 L 532.61 284.77 L 532.68 284.74 L 532.91 282.94 L 532.95 282.93 L 533.25 282.94 L 533.32 282.93 L 533.57 282.23 L 533.63 282.19 L 533.84 281.73 L 534.00 281.73 L 534.12 281.69 L 534.39 281.27 L 534.42 281.27 L 534.76 279.93 L 534.79 279.93 L 534.85 279.93 L 534.92 279.93 L 534.96 279.93 L 535.36 278.58 L 535.94 278.46 L 536.22 278.46 L 537.17 278.43 L 537.19 278.43 L 537.34 278.43 L 537.40 278.43 L 537.51 278.43 L 537.63 278.43 L 537.75 278.41 L 538.04 278.39 L 538.31 278.39 L 539.16 278.34 L 539.19 278.34 L 540.04 278.30 L 540.41 278.26 L 547.65 278.28 L 548.01 278.21 L 548.19 278.14 L 548.27 278.14 L 548.29 278.14 L 548.48 278.13 L 548.56 278.13 L 548.77 278.13 L 548.90 278.13 L 549.37 278.01 L 549.62 277.76 L 550.03 277.75 L 550.14 277.58 L 550.28 277.51 L 550.46 277.44 L 551.08 277.51 L 551.14 277.51 L 552.06 277.26 L 552.20 277.26 L 552.38 277.26 L 552.82 277.24 L 553.03 277.36 L 553.13 277.36 L 553.22 277.36 L 553.35 277.36 L 553.73 276.78 L 554.14 276.77 L 554.51 276.76 L 554.55 276.76 L 554.59 276.76 L 580.78 276.76 L 580.96 276.72 L 596.02 276.53 L 596.10 276.53 L 596.22 276.48 L 596.24 276.48 L 596.28 276.48 L 596.82 274.24 L 596.88 274.24 L 597.54 274.24 L 598.22 274.14 L 598.46 273.92 L 598.88 273.63 L 599.44 273.56 L 599.45 273.56 L 599.53 273.51 L 599.75 273.51 L 599.81 273.47 L 600.36 272.87 L 601.06 272.77 L 601.14 272.77 L 601.49 272.77 L 601.60 272.77 L 601.87 272.62 L 602.10 272.60 L 602.55 272.47 L 602.99 272.40 L 603.21 272.40 L 603.22 272.40 L 612.65 272.40 L 615.61 272.36 L 615.73 272.34 L 615.88 272.07 L 616.35 272.09 L 616.55 272.09 L 616.70 272.09 L 616.80 271.97 L 617.02 271.89 L 617.06 271.88 L 617.39 271.67 L 617.49 271.52 L 617.55 271.47 L 617.73 271.37 L 617.79 271.37 L 617.88 271.35 L 617.95 271.23 L 618.04 271.08 L 618.13 271.05 L 618.20 271.05 L 618.50 271.00 L 618.65 270.89 L 618.77 270.80 L 618.81 270.80 L 619.16 270.80 L 619.29 270.80 L 628.18 270.83 L 628.83 270.81 L 628.94 270.81 L 629.34 270.43 L 629.52 270.38 L 630.26 270.34 L 630.58 270.34 L 631.01 269.44 L 631.06 269.44 L 631.32 269.42 L 631.41 269.41 L 631.74 269.36 L 632.26 268.94 L 632.43 268.93 L 635.56 267.95 L 635.87 267.95 L 635.89 267.95 L 644.23 267.94 L 644.23 267.94 L 644.34 267.94 L 644.44 267.82 L 644.83 266.98 L 644.85 266.98 L 645.31 266.98 L 645.98 266.98 L 646.74 266.98 L 646.79 266.98 L 646.87 266.98 L 647.00 266.98 L 647.22 266.86 L 647.32 266.86 L 647.42 266.86 L 647.57 266.73 L 648.70 266.60 L 648.82 266.59 L 649.08 254.84 L 649.18 254.84 L 649.25 254.83 L 649.33 254.63 L 649.42 254.62 L 649.43 254.62 L 649.45 254.62 L 649.48 254.62 L 650.00 254.59"/>
	</g>
	<g id="poloto_plot2" class="poloto_plot poloto_imgs poloto_line poloto2 poloto_stroke" fill="none" stroke="black">
		<path d=" M 150.00 393.00 L 150.02 392.99 L 150.04 392.99 L 150.04 392.99 L 150.06 392.99 L 150.09 391.20 L 150.19 390.95 L 150.42 390.95 L 150.75 390.94 L 150.92 389.86 L 151.26 389.77 L 151.32 389.74 L 151.37 389.71 L 151.77 389.23 L 152.52 388.85 L 152.75 388.78 L 152.81 388.79 L 153.27 388.76 L 153.79 388.76 L 153.79 388.76 L 153.79 388.76 L 160.82 388.76 L 160.87 388.75 L 160.96 388.74 L 161.00 388.74 L 161.27 388.63 L 161.39 388.60 L 161.69 388.42 L 161.73 388.35 L 161.82 388.19 L 161.90 388.17 L 161.93 388.17 L 162.00 388.14 L 162.08 388.14 L 162.16 388.14 L 162.35 387.96 L 162.53 387.79 L 162.56 387.79 L 162.64 387.70 L 163.20 387.48 L 163.21 387.48 L 163.28 387.41 L 163.60 387.18 L 163.86 386.88 L 164.15 386.76 L 164.21 386.76 L 164.21 386.77 L 164.27 386.60 L 164.38 386.60 L 164.52 386.58 L 164.79 386.46 L 164.81 386.25 L 164.86 386.25 L 164.93 386.15 L 165.09 386.15 L 165.10 386.15 L 165.27 385.83 L 165.33 385.82 L 165.39 385.79 L 165.46 385.64 L 166.31 385.55 L 166.52 385.52 L 166.99 385.31 L 167.10 385.31 L 167.17 385.30 L 167.21 385.13 L 167.54 384.26 L 167.69 384.24 L 167.86 383.98 L 167.94 383.95 L 168.14 383.83 L 168.22 383.80 L 168.34 383.61 L 168.45 383.45 L 168.83 383.45 L 168.84 383.43 L 168.86 383.31 L 168.98 382.46 L 175.50 382.37 L 176.18 382.12 L 176.20 382.08 L 177.00 381.87 L 177.07 381.87 L 177.14 381.71 L 177.34 381.61 L 177.43 381.41 L 177.46 381.25 L 177.56 380.94 L 177.79 380.93 L 177.80 380.93 L 177.89 380.71 L 177.98 380.71 L 178.08 380.48 L 178.20 380.30 L 178.25 380.20 L 178.27 380.19 L 178.38 379.98 L 178.40 379.98 L 178.53 379.78 L 178.55 379.78 L 178.73 379.71 L 178.76 379.71 L 178.83 379.64 L 178.91 379.62 L 179.02 379.62 L 179.06 379.61 L 179.43 379.42 L 179.44 379.43 L 179.51 379.04 L 179.67 379.03 L 179.82 378.91 L 179.86 378.91 L 179.93 378.91 L 179.96 378.88 L 180.05 378.35 L 180.46 377.91 L 180.50 377.67 L 180.64 377.65 L 180.68 377.59 L 180.71 377.58 L 180.78 377.47 L 180.84 377.06 L 180.99 376.99 L 181.09 376.98 L 181.17 376.77 L 181.22 376.77 L 181.59 376.61 L 181.79 376.50 L 181.85 376.41 L 182.02 376.40 L 182.04 376.40 L 182.05 376.38 L 182.16 375.63 L 182.25 375.62 L 182.55 375.52 L 182.60 375.22 L 182.66 375.21 L 182.74 375.09 L 182.74 375.02 L 182.78 374.97 L 182.81 374.94 L 182.85 374.93 L 182.89 374.88 L 183.01 374.03 L 183.10 373.95 L 183.19 373.69 L 183.30 373.68 L 183.43 373.59 L 183.56 373.33 L 183.66 372.60 L 183.85 372.55 L 183.85 372.23 L 183.96 372.16 L 193.06 372.16 L 193.24 372.16 L 193.67 371.81 L 193.76 371.81 L 193.83 371.81 L 193.84 371.72 L 194.00 371.57 L 194.11 371.55 L 194.17 371.46 L 194.23 371.39 L 194.27 371.36 L 194.43 371.32 L 194.76 371.39 L 194.84 371.16 L 194.90 371.09 L 194.98 371.09 L 195.41 371.04 L 195.46 371.00 L 195.49 371.00 L 195.52 370.96 L 195.61 370.92 L 195.68 370.83 L 195.99 370.61 L 196.43 370.52 L 196.59 370.48 L 197.08 370.34 L 197.31 370.00 L 197.39 369.95 L 197.49 369.68 L 197.63 369.33 L 197.85 369.24 L 198.16 369.24 L 198.57 369.22 L 198.63 369.10 L 198.94 369.01 L 199.13 368.90 L 199.19 368.82 L 199.31 368.78 L 199.40 368.55 L 200.48 368.44 L 201.50 368.44 L 210.66 368.41 L 210.73 368.29 L 210.78 368.21 L 211.06 368.08 L 211.92 367.85 L 211.96 367.82 L 212.08 367.66 L 212.50 367.59 L 212.70 367.15 L 213.00 367.14 L 213.07 367.12 L 213.14 366.69 L 213.67 366.28 L 213.73 366.28 L 213.84 366.25 L 213.96 366.22 L 214.02 366.07 L 214.31 365.39 L 214.42 365.21 L 214.47 365.20 L 214.53 365.13 L 214.67 364.86 L 214.72 364.18 L 214.85 363.91 L 215.25 363.75 L 215.29 363.40 L 215.33 363.40 L 215.39 363.34 L 215.49 363.25 L 215.52 363.22 L 215.56 363.19 L 215.75 362.40 L 215.80 361.93 L 216.03 361.84 L 216.17 361.05 L 216.26 360.90 L 216.97 359.66 L 217.05 359.64 L 243.98 359.28 L 244.00 359.28 L 254.29 359.17 L 254.85 359.04 L 254.97 359.04 L 255.12 358.98 L 255.17 358.88 L 255.23 358.85 L 259.69 358.84 L 260.28 357.42 L 260.50 357.29 L 260.62 356.80 L 263.39 356.74 L 263.41 356.69 L 263.59 356.68 L 264.42 356.60 L 264.47 356.43 L 264.57 356.37 L 264.86 356.30 L 264.90 356.28 L 265.02 356.00 L 265.14 355.92 L 265.16 355.71 L 273.81 355.44 L 273.87 354.79 L 274.22 354.62 L 274.22 354.37 L 274.28 354.18 L 274.36 353.88 L 274.45 353.09 L 274.60 352.66 L 274.72 352.11 L 274.83 352.11 L 274.88 351.68 L 275.05 351.65 L 275.65 351.24 L 275.89 351.05 L 275.93 350.93 L 275.98 350.93 L 276.01 350.79 L 276.10 350.30 L 276.34 350.26 L 276.38 350.25 L 276.53 349.94 L 276.58 349.94 L 276.61 349.75 L 276.66 349.64 L 276.70 349.64 L 276.73 349.38 L 276.92 349.23 L 277.00 348.98 L 277.11 348.97 L 277.18 348.83 L 277.21 348.64 L 277.40 348.54 L 277.46 348.43 L 277.49 348.43 L 277.54 348.42 L 277.57 348.23 L 277.60 348.23 L 277.61 348.23 L 277.70 348.16 L 277.74 347.94 L 277.83 347.94 L 277.90 347.89 L 278.09 347.87 L 278.33 347.85 L 278.34 347.85 L 278.40 347.84 L 278.63 347.83 L 278.73 347.83 L 278.83 347.83 L 278.95 347.80 L 279.02 347.54 L 279.33 347.54 L 279.35 347.38 L 279.39 347.38 L 279.42 347.20 L 279.62 347.14 L 279.65 347.10 L 279.80 347.10 L 293.10 347.06 L 293.86 346.98 L 293.89 346.98 L 294.04 346.98 L 294.05 346.98 L 294.14 346.67 L 294.22 346.66 L 294.28 346.58 L 294.38 346.53 L 294.40 346.50 L 294.44 346.49 L 294.58 346.46 L 294.87 346.40 L 295.05 345.99 L 295.25 345.96 L 295.26 345.94 L 295.30 345.59 L 295.32 345.59 L 295.72 345.59 L 295.73 345.55 L 295.79 345.24 L 295.96 345.19 L 296.07 345.18 L 296.09 345.18 L 296.10 345.14 L 296.15 345.12 L 296.17 344.79 L 296.19 344.78 L 296.29 344.78 L 296.30 344.76 L 296.50 344.72 L 297.07 344.71 L 297.21 344.68 L 297.25 344.67 L 297.28 344.57 L 297.31 344.57 L 297.39 344.20 L 306.49 344.09 L 306.50 343.98 L 306.58 343.91 L 306.60 343.90 L 306.65 343.58 L 306.75 343.51 L 306.76 343.49 L 306.93 343.49 L 306.97 343.49 L 307.00 343.17 L 307.15 343.14 L 307.54 343.13 L 307.55 343.11 L 307.65 342.94 L 307.69 342.94 L 307.71 342.65 L 308.04 342.65 L 308.05 342.64 L 308.54 342.57 L 308.60 342.22 L 308.78 342.22 L 308.99 342.22 L 309.04 341.97 L 309.07 341.77 L 309.17 341.76 L 309.42 341.72 L 309.47 341.70 L 309.58 341.62 L 309.71 341.62 L 310.09 341.63 L 310.13 341.63 L 310.22 341.61 L 310.23 341.61 L 310.35 341.61 L 310.64 341.58 L 310.94 341.55 L 310.98 341.55 L 311.05 341.51 L 311.13 341.42 L 311.36 341.42 L 311.75 341.31 L 311.87 341.11 L 312.08 341.09 L 312.92 340.88 L 313.10 340.88 L 313.23 340.88 L 313.44 340.87 L 313.51 340.86 L 313.72 340.75 L 314.05 340.74 L 314.09 340.64 L 314.15 340.60 L 314.19 340.61 L 314.22 340.57 L 314.48 340.56 L 320.51 340.55 L 320.57 340.55 L 320.94 340.55 L 320.98 340.54 L 321.06 340.25 L 321.13 340.24 L 321.14 340.24 L 321.35 340.23 L 321.40 340.22 L 322.63 339.79 L 322.78 339.75 L 322.88 339.74 L 322.91 339.74 L 323.29 339.73 L 323.42 339.79 L 323.45 339.78 L 323.65 339.76 L 323.87 339.35 L 323.90 339.35 L 324.09 339.33 L 324.17 339.33 L 324.24 339.33 L 324.39 339.25 L 324.73 338.89 L 324.79 338.89 L 324.85 338.83 L 324.99 338.50 L 325.32 338.13 L 325.62 338.16 L 325.68 337.96 L 325.98 337.96 L 326.03 337.94 L 326.08 337.92 L 326.11 337.72 L 326.22 337.72 L 326.24 337.72 L 326.29 337.72 L 326.46 337.72 L 326.72 337.56 L 326.89 337.55 L 327.07 337.55 L 327.16 337.55 L 327.34 337.55 L 327.65 337.55 L 327.95 337.55 L 328.18 337.55 L 328.23 337.54 L 328.29 337.54 L 328.30 337.47 L 328.47 337.42 L 328.52 337.42 L 328.60 337.41 L 329.09 337.41 L 329.10 337.22 L 329.23 337.22 L 329.81 337.22 L 330.19 337.22 L 330.47 337.18 L 330.48 337.10 L 330.51 337.10 L 338.95 336.97 L 338.98 336.97 L 339.07 336.96 L 339.12 336.84 L 339.15 336.84 L 339.15 336.83 L 339.51 336.80 L 339.60 336.41 L 339.70 336.33 L 339.88 335.57 L 340.00 335.56 L 340.14 335.24 L 340.22 335.28 L 340.26 335.27 L 340.30 334.86 L 340.41 334.79 L 340.42 334.50 L 340.46 334.46 L 340.55 334.43 L 340.61 334.29 L 340.69 335.99 L 340.79 335.96 L 341.00 335.28 L 341.09 335.13 L 341.17 334.98 L 341.69 334.71 L 342.13 334.42 L 342.67 334.02 L 342.80 333.97 L 342.95 333.97 L 343.12 333.94 L 346.22 333.74 L 346.48 333.71 L 375.89 333.18 L 468.51 333.16 L 468.82 332.92 L 469.03 332.89 L 469.25 332.89 L 469.57 332.67 L 469.68 332.42 L 469.76 331.95 L 469.91 331.82 L 470.12 331.87 L 470.30 331.60 L 470.34 331.59 L 470.48 331.51 L 470.51 331.51 L 470.66 331.05 L 470.80 330.35 L 471.22 330.29 L 471.23 330.21 L 471.35 329.31 L 471.75 329.28 L 471.76 329.19 L 471.84 329.14 L 471.94 328.32 L 472.37 328.28 L 472.38 328.16 L 472.47 328.11 L 472.57 327.57 L 472.73 327.55 L 472.74 327.46 L 472.81 326.57 L 472.82 326.55 L 472.86 326.52 L 473.05 326.52 L 473.07 326.43 L 473.13 326.36 L 473.33 326.28 L 473.37 326.28 L 473.52 326.23 L 473.78 326.26 L 473.82 326.22 L 473.85 326.20 L 473.90 326.17 L 474.03 325.25 L 474.16 325.23 L 474.18 325.15 L 474.26 324.20 L 474.34 323.86 L 474.36 323.73 L 474.44 323.27 L 474.47 322.47 L 474.63 322.46 L 474.66 322.41 L 474.74 322.25 L 474.85 322.24 L 475.51 322.22 L 475.84 322.20 L 483.08 322.23 L 483.15 322.05 L 483.22 321.92 L 483.35 321.28 L 483.62 321.27 L 483.64 321.20 L 483.69 320.39 L 483.86 320.39 L 483.88 320.31 L 485.46 320.23 L 485.56 319.94 L 486.35 319.79 L 486.44 319.76 L 486.54 318.86 L 487.49 318.61 L 487.90 318.39 L 488.00 317.72 L 488.35 317.72 L 488.57 317.34 L 488.92 316.76 L 489.56 316.41 L 499.24 316.40 L 499.82 316.39 L 499.85 316.39 L 500.66 316.27 L 500.70 316.19 L 500.98 316.14 L 501.31 315.38 L 501.31 315.38 L 501.35 315.35 L 501.78 315.19 L 502.77 314.69 L 502.84 314.64 L 502.94 314.63 L 503.09 314.42 L 503.13 314.39 L 503.19 314.35 L 503.65 314.35 L 504.03 314.35 L 504.23 314.35 L 504.25 314.32 L 504.67 313.55 L 504.99 313.48 L 505.00 313.42 L 505.04 313.35 L 505.08 313.16 L 515.59 313.02 L 515.61 313.00 L 515.64 312.98 L 515.84 312.89 L 516.00 312.79 L 516.93 312.36 L 517.16 312.27 L 517.83 311.94 L 518.40 311.89 L 518.83 311.76 L 518.95 310.63 L 519.48 310.44 L 519.67 310.39 L 519.74 309.57 L 521.30 308.79 L 521.31 308.79 L 521.40 308.43 L 521.69 308.39 L 521.70 308.39 L 521.71 308.30 L 521.77 308.20 L 521.90 308.12 L 522.07 307.56 L 523.68 307.27 L 523.89 307.15 L 524.04 306.84 L 524.06 306.81 L 524.09 306.61 L 531.25 305.90 L 531.48 305.39 L 531.62 305.37 L 531.67 305.03 L 532.34 304.89 L 532.48 304.52 L 532.61 304.52 L 532.68 303.76 L 532.91 303.58 L 532.95 303.56 L 533.25 303.52 L 533.32 302.89 L 533.57 302.81 L 533.63 302.33 L 533.84 302.28 L 534.00 301.99 L 534.12 301.44 L 534.39 301.34 L 534.42 300.78 L 534.76 302.04 L 534.79 302.04 L 534.85 301.32 L 534.92 301.32 L 534.96 301.27 L 535.36 301.20 L 535.94 300.90 L 536.22 301.05 L 537.17 301.03 L 537.19 301.03 L 537.34 301.01 L 537.40 301.00 L 537.51 300.90 L 537.63 300.81 L 537.75 300.68 L 538.04 300.50 L 538.31 300.49 L 539.16 300.40 L 539.19 300.39 L 540.04 300.30 L 540.41 300.24 L 547.65 300.22 L 548.01 300.18 L 548.19 300.18 L 548.27 300.18 L 548.29 300.18 L 548.48 300.16 L 548.56 300.13 L 548.77 300.00 L 548.90 299.98 L 549.37 299.97 L 549.62 299.91 L 550.03 299.87 L 550.14 299.85 L 550.28 299.79 L 550.46 299.71 L 551.08 299.67 L 551.14 299.66 L 552.06 299.52 L 552.20 299.30 L 552.38 299.22 L 552.82 299.08 L 553.03 299.01 L 553.13 299.33 L 553.22 299.32 L 553.35 299.20 L 553.73 298.91 L 554.14 298.83 L 554.51 298.77 L 554.55 298.73 L 554.59 298.51 L 580.78 298.47 L 580.96 298.41 L 596.02 298.35 L 596.10 298.66 L 596.22 297.39 L 596.24 297.39 L 596.28 297.43 L 596.82 296.94 L 596.88 296.91 L 597.54 296.97 L 598.22 296.91 L 598.46 296.87 L 598.88 296.82 L 599.44 296.68 L 599.45 296.68 L 599.53 296.66 L 599.75 296.62 L 599.81 296.52 L 600.36 296.46 L 601.06 296.41 L 601.14 296.28 L 601.49 296.21 L 601.60 296.78 L 601.87 296.73 L 602.10 296.70 L 602.55 296.68 L 602.99 296.68 L 603.21 296.41 L 603.22 296.41 L 612.65 296.40 L 615.61 295.72 L 615.73 295.39 L 615.88 295.30 L 616.35 295.27 L 616.55 295.15 L 616.70 293.46 L 616.80 292.55 L 617.02 292.51 L 617.06 292.50 L 617.39 292.37 L 617.49 292.33 L 617.55 292.28 L 617.73 292.08 L 617.79 292.06 L 617.88 292.03 L 617.95 291.99 L 618.04 291.93 L 618.13 291.85 L 618.20 291.82 L 618.50 291.79 L 618.65 291.70 L 618.77 291.67 L 618.81 291.12 L 619.16 291.00 L 619.29 290.70 L 628.18 290.76 L 628.83 290.58 L 628.94 290.58 L 629.34 290.25 L 629.52 290.22 L 630.26 289.21 L 630.58 289.12 L 631.01 288.99 L 631.06 288.99 L 631.32 288.99 L 631.41 288.46 L 631.74 287.77 L 632.26 287.69 L 632.43 287.16 L 635.56 286.78 L 635.87 286.39 L 635.89 286.39 L 644.23 285.07 L 644.23 285.07 L 644.34 285.01 L 644.44 284.43 L 644.83 284.38 L 644.85 284.38 L 645.31 284.27 L 645.98 284.16 L 646.74 284.11 L 646.79 284.05 L 646.87 284.01 L 647.00 284.01 L 647.22 284.01 L 647.32 283.94 L 647.42 283.94 L 647.57 283.94 L 648.70 283.63 L 648.82 282.91 L 649.08 282.78 L 649.18 282.69 L 649.25 282.68 L 649.33 282.62 L 649.42 282.60 L 649.43 282.60 L 649.45 282.60 L 649.48 282.60 L 650.00 282.59"/>
	</g>
	<g class="poloto_legend poloto_imgs poloto_line poloto0 poloto_stroke"><line x1="680" x2="730" y1="81.25" y2="81.25"/></g>
	<g class="poloto_legend poloto_imgs poloto_line poloto1 poloto_stroke"><line x1="680" x2="730" y1="131.25" y2="131.25"/></g>
	<g class="poloto_legend poloto_imgs poloto_line poloto2 poloto_stroke"><line x1="680" x2="730" y1="181.25" y2="181.25"/></g>
	<text class="poloto_legend poloto_text poloto_line poloto0" x="675" y="100">total</text>
	<text class="poloto_legend poloto_text poloto_line poloto1" x="675" y="150">code</text>
	<text class="poloto_legend poloto_text poloto_line poloto2" x="675" y="200">docs</text>
	<text class="poloto_text poloto_name poloto_title" x="400.00" y="37.50">Workspace lines over time</text>
	<text class="poloto_text poloto_name poloto_x" x="400.00" y="640">date (JST)</text>
	<text class="poloto_text poloto_name poloto_y" x="37.50" y="250.00" transform="rotate(-90,37.50,250.00)">lines</text>
	<text class="poloto_text poloto_ticks poloto_y">
		<tspan x="135.00" y="400.00">0</tspan>
		<tspan x="135.00" y="333.41">50K</tspan>
		<tspan x="135.00" y="266.83">100K</tspan>
		<tspan x="135.00" y="200.24">150K</tspan>
		<tspan x="135.00" y="133.66">200K</tspan>
	</text>
	<g class="poloto_imgs poloto_ticks poloto_y" stroke="black">
		<line x1="150.00" x2="144.00" y1="400.00" y2="400.00"/>
		<line x1="150.00" x2="144.00" y1="333.41" y2="333.41"/>
		<line x1="150.00" x2="144.00" y1="266.83" y2="266.83"/>
		<line x1="150.00" x2="144.00" y1="200.24" y2="200.24"/>
		<line x1="150.00" x2="144.00" y1="133.66" y2="133.66"/>
	</g>
	<g class="poloto_text poloto_ticks poloto_x">
		<text x="210.55" y="430.00" text-anchor="end" transform="rotate(-90 210.55 430.00)">2026-04-24 12:06</text>
		<text x="303.75" y="430.00" text-anchor="end" transform="rotate(-90 303.75 430.00)">2026-04-30 07:00</text>
		<text x="396.95" y="430.00" text-anchor="end" transform="rotate(-90 396.95 430.00)">2026-05-06 01:53</text>
		<text x="490.15" y="430.00" text-anchor="end" transform="rotate(-90 490.15 430.00)">2026-05-11 20:46</text>
		<text x="583.35" y="430.00" text-anchor="end" transform="rotate(-90 583.35 430.00)">2026-05-17 15:40</text>
	</g>
	<g class="poloto_imgs poloto_ticks poloto_x" stroke="black">
		<line x1="210.55" x2="210.55" y1="400.00" y2="405.00"/>
		<line x1="303.75" x2="303.75" y1="400.00" y2="405.00"/>
		<line x1="396.95" x2="396.95" y1="400.00" y2="405.00"/>
		<line x1="490.15" x2="490.15" y1="400.00" y2="405.00"/>
		<line x1="583.35" x2="583.35" y1="400.00" y2="405.00"/>
	</g>
	<path class="poloto_imgs poloto_ticks poloto_x" stroke="black" style="stroke-dasharray:9.320140488069661;stroke-dashoffset:-60.54791987512726;" d=" M 150.00 400.00 L 650.00 400.00"/>
	<path class="poloto_imgs poloto_ticks poloto_y" stroke="black" style="stroke-dasharray:6.658528465209189;stroke-dashoffset:-0;" d=" M 150.00 400.00 L 150.00 100.00"/>
</svg>

