<svg class="poloto" width="800" height="680" viewBox="0 0 800 680" xmlns="http://www.w3.org/2000/svg">
	<style>
.poloto{
  stroke-linecap:round;
  stroke-linejoin:round;
  font-family:Roboto,sans-serif;
  font-size:16px;
}
.poloto_background{fill:AliceBlue;}
.poloto_scatter{stroke-width:7}
.poloto_line{stroke-width:2}
.poloto_text{fill: black;}
.poloto_name{font-size:24px;dominant-baseline:auto;text-anchor:middle;}
.poloto_where{dominant-baseline:middle;text-anchor:start}
.poloto_text.poloto_legend{font-size:20px;dominant-baseline:middle;text-anchor:start;}
.poloto_text.poloto_ticks.poloto_y{dominant-baseline:middle;text-anchor:end}
.poloto_text.poloto_ticks.poloto_x{dominant-baseline:auto;text-anchor:middle}
.poloto_imgs.poloto_ticks{stroke: black;stroke-width:3;fill:none;stroke-dasharray:none}
.poloto_grid{stroke:gray;stroke-width:0.5}

.poloto0.poloto_stroke{stroke:blue;}
.poloto1.poloto_stroke{stroke:red;}
.poloto2.poloto_stroke{stroke:green;}
.poloto3.poloto_stroke{stroke:gold;}
.poloto4.poloto_stroke{stroke:aqua;}
.poloto5.poloto_stroke{stroke:lime;}
.poloto6.poloto_stroke{stroke:orange;}
.poloto7.poloto_stroke{stroke:chocolate;}
.poloto0.poloto_fill{fill:blue;}
.poloto1.poloto_fill{fill:red;}
.poloto2.poloto_fill{fill:green;}
.poloto3.poloto_fill{fill:gold;}
.poloto4.poloto_fill{fill:aqua;}
.poloto5.poloto_fill{fill:lime;}
.poloto6.poloto_fill{fill:orange;}
.poloto7.poloto_fill{fill:chocolate;}
	</style>
	<circle r="1e5" class="poloto_background" fill="white"/>
	<g id="poloto_plot0" class="poloto_plot poloto_imgs poloto_line poloto0 poloto_stroke" fill="none" stroke="black">
		<path d=" M 150.00 364.65 L 150.03 364.63 L 150.05 364.61 L 150.06 364.61 L 150.09 364.61 L 150.13 360.77 L 150.27 360.31 L 150.59 360.29 L 151.07 359.97 L 151.31 358.02 L 151.80 357.90 L 151.88 357.80 L 151.95 357.76 L 152.52 356.80 L 153.58 356.03 L 153.92 353.02 L 154.00 353.02 L 154.65 352.90 L 155.39 352.89 L 155.39 352.89 L 155.40 352.89 L 165.40 352.89 L 165.47 352.89 L 165.60 352.86 L 165.66 352.83 L 166.04 352.65 L 166.21 352.60 L 166.63 352.33 L 166.69 352.20 L 166.81 351.93 L 166.94 351.89 L 166.98 351.89 L 167.08 351.82 L 167.19 351.82 L 167.30 351.82 L 167.58 351.37 L 167.82 351.10 L 167.87 351.10 L 167.99 350.93 L 168.78 351.62 L 168.80 351.62 L 168.90 351.51 L 169.35 350.99 L 169.72 350.38 L 170.13 350.11 L 170.22 350.06 L 170.23 350.06 L 170.30 349.82 L 170.46 349.82 L 170.66 349.74 L 171.05 349.50 L 171.08 349.15 L 171.15 349.15 L 171.24 348.96 L 171.47 348.96 L 171.49 348.96 L 171.73 348.44 L 171.82 348.42 L 171.90 348.38 L 171.99 348.17 L 173.21 347.89 L 173.51 347.83 L 174.19 347.47 L 174.33 347.47 L 174.43 347.45 L 174.49 347.19 L 174.96 345.67 L 175.17 345.64 L 175.41 345.13 L 175.53 345.08 L 175.81 344.66 L 175.93 344.51 L 176.10 344.24 L 176.25 344.00 L 176.79 340.49 L 176.81 340.40 L 176.83 340.19 L 177.02 338.51 L 186.29 338.38 L 187.25 336.46 L 187.29 336.41 L 188.42 336.11 L 188.52 336.10 L 188.62 335.72 L 188.90 335.53 L 189.03 335.21 L 189.07 334.92 L 189.22 334.41 L 189.55 334.41 L 189.56 334.07 L 189.69 333.69 L 189.81 333.68 L 189.96 333.26 L 190.14 332.96 L 190.21 332.81 L 190.23 332.80 L 190.39 332.47 L 190.42 332.46 L 190.59 332.13 L 190.62 332.12 L 190.89 330.54 L 190.93 330.54 L 191.03 330.28 L 191.14 330.26 L 191.29 330.26 L 191.36 330.23 L 191.88 329.93 L 191.89 329.94 L 191.99 329.24 L 192.22 329.22 L 192.43 328.16 L 192.49 328.07 L 192.59 328.06 L 192.64 328.02 L 192.76 327.20 L 193.34 320.32 L 193.41 319.99 L 193.60 319.96 L 193.66 319.87 L 193.71 319.85 L 193.80 319.67 L 193.90 318.89 L 194.10 318.73 L 194.25 318.71 L 194.36 318.37 L 194.43 318.36 L 194.95 318.10 L 195.24 317.91 L 195.32 317.60 L 195.57 317.58 L 195.59 317.58 L 195.61 317.56 L 195.77 315.90 L 195.89 315.80 L 196.32 314.13 L 196.39 313.65 L 196.47 313.63 L 196.59 313.46 L 196.60 313.33 L 196.65 313.25 L 196.69 313.20 L 196.75 313.20 L 196.81 313.11 L 196.98 311.75 L 197.10 311.55 L 197.23 311.15 L 197.39 311.12 L 197.58 310.99 L 197.77 310.03 L 197.90 308.69 L 198.17 308.61 L 198.17 308.11 L 198.33 307.95 L 211.29 307.95 L 211.53 307.93 L 212.14 307.23 L 212.27 307.21 L 212.37 307.21 L 212.39 307.03 L 212.61 306.81 L 212.77 306.78 L 212.86 306.64 L 212.94 306.55 L 213.00 306.50 L 213.23 306.44 L 213.70 306.35 L 213.82 305.99 L 213.90 305.90 L 214.02 305.88 L 214.62 305.70 L 214.70 305.59 L 214.74 305.59 L 214.78 305.46 L 214.91 305.40 L 215.01 305.26 L 215.45 304.36 L 216.07 304.22 L 216.30 304.17 L 216.99 303.94 L 217.32 299.61 L 217.44 299.52 L 217.58 299.10 L 217.78 298.53 L 218.10 298.37 L 218.54 298.35 L 219.12 298.34 L 219.21 298.15 L 219.64 297.95 L 219.92 297.64 L 220.00 297.51 L 220.17 297.46 L 220.30 297.07 L 221.83 296.65 L 223.29 296.65 L 236.33 296.61 L 236.42 296.42 L 236.49 296.30 L 236.90 296.11 L 238.12 294.62 L 238.17 294.52 L 238.34 294.14 L 238.94 294.04 L 239.22 293.03 L 239.65 293.02 L 239.75 293.01 L 239.85 292.32 L 240.60 288.38 L 240.69 288.37 L 240.85 288.34 L 241.02 288.29 L 241.10 287.86 L 241.52 286.38 L 241.67 286.10 L 241.74 286.08 L 241.84 285.40 L 242.03 284.43 L 242.10 283.41 L 242.29 282.95 L 242.86 277.83 L 242.91 277.32 L 242.97 277.32 L 243.05 277.22 L 243.19 277.09 L 243.25 277.05 L 243.30 276.99 L 243.57 275.76 L 243.64 274.90 L 243.97 274.72 L 244.17 273.44 L 244.29 272.63 L 245.30 260.69 L 245.42 260.66 L 283.74 260.09 L 283.77 260.09 L 298.42 259.93 L 299.21 259.60 L 299.38 259.60 L 299.59 259.51 L 299.66 259.36 L 299.75 259.32 L 306.10 259.24 L 306.94 256.97 L 307.25 256.76 L 307.42 255.93 L 311.37 255.76 L 311.40 255.53 L 311.64 255.51 L 312.83 254.08 L 312.89 253.82 L 313.04 253.73 L 313.46 253.63 L 313.51 253.59 L 313.68 253.16 L 313.86 253.04 L 313.88 252.72 L 326.19 252.29 L 326.28 251.07 L 326.77 250.79 L 326.78 248.75 L 326.87 248.44 L 326.97 247.94 L 327.11 246.53 L 327.32 245.78 L 327.49 244.91 L 327.65 244.90 L 327.71 244.23 L 327.96 244.17 L 328.81 240.88 L 329.16 240.52 L 329.21 240.32 L 329.29 240.31 L 329.33 240.08 L 329.45 239.27 L 329.80 238.88 L 329.85 238.83 L 330.06 235.93 L 330.14 235.92 L 330.17 235.61 L 330.25 235.38 L 330.30 235.37 L 330.35 234.94 L 330.62 233.37 L 330.74 232.92 L 330.89 232.87 L 330.99 228.67 L 331.04 228.33 L 331.31 225.94 L 331.38 225.75 L 331.43 225.74 L 331.50 225.74 L 331.54 225.40 L 331.58 225.41 L 331.60 225.41 L 331.73 221.17 L 331.78 220.80 L 331.91 220.78 L 332.01 220.71 L 332.29 220.59 L 332.62 220.43 L 332.64 220.43 L 332.73 220.38 L 333.05 220.30 L 333.20 220.30 L 333.34 220.30 L 333.50 218.45 L 333.61 218.01 L 334.04 218.00 L 334.08 217.71 L 334.14 217.70 L 334.17 217.39 L 334.46 214.72 L 334.51 214.66 L 334.71 214.64 L 353.65 214.56 L 354.73 214.43 L 354.76 214.43 L 354.98 214.42 L 354.99 214.43 L 355.13 213.89 L 355.24 213.87 L 355.33 213.61 L 355.46 213.55 L 355.50 213.51 L 355.55 213.49 L 355.75 213.19 L 356.16 212.92 L 356.42 212.07 L 356.71 211.25 L 356.72 211.21 L 356.77 210.44 L 356.81 210.42 L 357.37 209.96 L 357.38 209.91 L 357.47 209.30 L 357.71 209.24 L 357.87 209.18 L 357.90 208.10 L 357.91 208.04 L 357.98 209.07 L 358.02 208.44 L 358.04 208.42 L 358.18 206.97 L 358.19 206.93 L 358.49 206.81 L 359.30 206.79 L 359.49 206.74 L 359.55 206.73 L 359.59 206.54 L 359.64 206.54 L 359.75 205.82 L 372.69 204.44 L 372.71 204.25 L 372.82 204.12 L 372.86 203.85 L 372.93 191.78 L 373.07 186.83 L 373.09 186.80 L 373.33 186.71 L 373.38 186.71 L 373.42 186.14 L 373.63 186.08 L 374.19 184.91 L 374.21 184.89 L 374.35 184.53 L 374.40 184.54 L 374.43 183.95 L 374.90 183.27 L 374.91 183.24 L 375.62 182.98 L 375.71 182.36 L 375.96 182.37 L 376.25 180.81 L 376.33 180.20 L 376.38 179.70 L 376.51 179.10 L 376.88 178.89 L 376.94 178.74 L 377.10 178.60 L 377.28 178.60 L 377.82 178.60 L 377.88 178.60 L 378.01 178.57 L 378.02 178.57 L 378.20 178.59 L 378.61 178.56 L 379.03 178.33 L 379.09 178.33 L 379.19 178.24 L 379.31 178.07 L 379.63 178.07 L 380.18 177.85 L 380.36 177.37 L 380.66 173.21 L 381.85 176.73 L 382.11 176.71 L 382.30 176.70 L 382.59 176.69 L 382.69 176.62 L 382.99 176.43 L 383.45 176.14 L 383.51 175.95 L 383.60 175.87 L 383.66 175.89 L 383.70 175.83 L 384.07 175.57 L 392.65 175.56 L 392.73 175.57 L 393.26 175.55 L 393.32 175.53 L 393.43 175.00 L 393.53 174.70 L 393.55 174.70 L 393.84 174.66 L 393.92 174.63 L 395.67 173.85 L 395.88 173.78 L 396.03 173.76 L 396.06 173.76 L 396.61 173.57 L 396.79 173.67 L 396.83 173.66 L 397.12 173.61 L 397.44 171.96 L 397.48 171.95 L 397.75 171.77 L 397.86 171.77 L 397.96 171.77 L 398.18 171.58 L 398.66 170.92 L 398.75 170.89 L 398.83 170.71 L 399.03 169.92 L 399.50 169.11 L 399.92 165.28 L 400.01 164.81 L 400.44 164.63 L 400.51 164.53 L 400.58 164.35 L 400.62 163.73 L 400.77 162.63 L 400.81 162.67 L 400.88 162.65 L 401.12 162.64 L 401.49 162.24 L 401.72 162.16 L 401.99 162.15 L 402.11 162.13 L 402.37 162.12 L 402.81 162.12 L 403.24 162.11 L 403.57 162.11 L 403.64 162.09 L 403.73 162.08 L 403.73 161.95 L 403.98 161.87 L 404.06 161.85 L 404.16 161.69 L 404.86 161.66 L 404.87 161.33 L 405.07 161.32 L 405.89 161.32 L 406.43 161.12 L 406.83 160.88 L 406.84 160.74 L 406.88 160.74 L 418.89 160.51 L 418.93 160.51 L 419.07 160.49 L 419.13 160.30 L 419.18 160.28 L 419.19 160.27 L 419.70 160.22 L 419.81 159.53 L 419.97 159.37 L 420.22 158.00 L 420.39 157.99 L 420.59 157.41 L 420.71 157.48 L 420.76 157.48 L 420.82 156.81 L 420.97 156.36 L 420.99 155.88 L 421.04 155.81 L 421.17 155.77 L 421.26 155.54 L 421.37 158.15 L 421.51 158.10 L 421.81 157.06 L 421.94 156.81 L 422.05 156.59 L 422.79 155.09 L 423.42 154.37 L 424.18 152.99 L 424.37 152.92 L 424.59 152.92 L 424.83 152.86 L 429.24 152.47 L 429.61 152.43 L 471.47 151.38 L 603.28 151.14 L 603.71 150.71 L 604.02 150.66 L 604.32 150.66 L 604.78 149.84 L 604.93 149.45 L 605.05 148.72 L 605.26 146.62 L 605.57 147.05 L 605.81 146.60 L 605.87 146.59 L 606.07 146.45 L 606.12 146.46 L 606.33 145.68 L 606.53 144.45 L 607.13 143.14 L 607.14 143.03 L 607.32 141.47 L 607.88 137.61 L 607.90 137.48 L 608.01 137.39 L 608.14 136.01 L 608.76 134.15 L 608.77 133.98 L 608.91 133.89 L 609.05 132.98 L 609.28 132.25 L 609.29 132.12 L 609.39 130.70 L 609.41 130.67 L 609.46 130.27 L 609.72 127.75 L 609.76 127.61 L 609.84 127.46 L 610.12 127.13 L 610.18 127.12 L 610.40 126.64 L 610.77 126.69 L 610.82 126.63 L 610.87 126.60 L 610.94 126.56 L 611.12 125.08 L 611.31 123.88 L 611.34 123.77 L 611.45 122.26 L 611.56 120.79 L 611.59 120.61 L 611.71 118.89 L 611.76 117.53 L 611.99 116.62 L 612.02 116.55 L 612.13 116.27 L 612.29 116.25 L 613.24 116.21 L 613.71 116.17 L 624.00 116.23 L 624.11 115.96 L 624.21 115.73 L 624.39 114.72 L 624.77 114.46 L 624.80 114.36 L 624.87 113.02 L 625.12 111.72 L 625.15 111.61 L 627.39 111.52 L 627.53 110.79 L 628.66 110.57 L 628.79 110.52 L 628.92 109.01 L 630.29 107.59 L 630.87 107.05 L 631.01 105.95 L 631.50 104.05 L 631.81 103.50 L 632.32 102.38 L 633.22 101.82 L 647.00 101.81 L 647.83 101.68 L 647.86 101.70 L 649.02 101.48 L 649.07 101.37 L 649.48 101.29 L 649.95 100.05 L 649.95 100.05 L 650.00 100.00"/>
	</g>
	<g id="poloto_plot1" class="poloto_plot poloto_imgs poloto_line poloto1 poloto_stroke" fill="none" stroke="black">
		<path d=" M 150.00 379.00 L 150.03 378.98 L 150.05 378.96 L 150.06 378.96 L 150.09 378.96 L 150.13 378.30 L 150.27 378.28 L 150.59 378.27 L 151.07 378.01 L 151.31 377.90 L 151.80 377.93 L 151.88 377.88 L 151.95 377.88 L 152.52 377.83 L 153.58 377.71 L 153.92 375.11 L 154.00 375.11 L 154.65 375.05 L 155.39 375.04 L 155.39 375.04 L 155.40 375.04 L 165.40 375.04 L 165.47 375.04 L 165.60 375.03 L 165.66 375.00 L 166.04 374.99 L 166.21 374.99 L 166.63 374.99 L 166.69 374.99 L 166.81 374.97 L 166.94 374.97 L 166.98 374.97 L 167.08 374.94 L 167.19 374.94 L 167.30 374.94 L 167.58 374.79 L 167.82 374.79 L 167.87 374.79 L 167.99 374.79 L 168.78 375.77 L 168.80 375.77 L 168.90 375.75 L 169.35 375.61 L 169.72 375.45 L 170.13 375.37 L 170.22 375.32 L 170.23 375.32 L 170.30 375.32 L 170.46 375.32 L 170.66 375.26 L 171.05 375.20 L 171.08 375.20 L 171.15 375.20 L 171.24 375.18 L 171.47 375.18 L 171.49 375.18 L 171.73 375.17 L 171.82 375.17 L 171.90 375.17 L 171.99 375.17 L 173.21 375.05 L 173.51 375.04 L 174.19 374.99 L 174.33 374.99 L 174.43 374.99 L 174.49 374.99 L 174.96 374.91 L 175.17 374.91 L 175.41 374.82 L 175.53 374.81 L 175.81 374.60 L 175.93 374.52 L 176.10 374.52 L 176.25 374.52 L 176.79 371.48 L 176.81 371.43 L 176.83 371.43 L 177.02 371.14 L 186.29 371.14 L 187.25 369.83 L 187.29 369.83 L 188.42 369.83 L 188.52 369.83 L 188.62 369.69 L 188.90 369.67 L 189.03 369.67 L 189.07 369.67 L 189.22 369.67 L 189.55 369.67 L 189.56 369.38 L 189.69 369.37 L 189.81 369.37 L 189.96 369.34 L 190.14 369.34 L 190.21 369.34 L 190.23 369.34 L 190.39 369.34 L 190.42 369.34 L 190.59 369.34 L 190.62 369.34 L 190.89 368.05 L 190.93 368.05 L 191.03 367.89 L 191.14 367.89 L 191.29 367.89 L 191.36 367.88 L 191.88 367.88 L 191.89 367.88 L 191.99 367.80 L 192.22 367.80 L 192.43 367.06 L 192.49 366.97 L 192.59 366.97 L 192.64 366.97 L 192.76 366.95 L 193.34 361.52 L 193.41 361.57 L 193.60 361.57 L 193.66 361.57 L 193.71 361.56 L 193.80 361.56 L 193.90 361.49 L 194.10 361.49 L 194.25 361.49 L 194.36 361.48 L 194.43 361.48 L 194.95 361.47 L 195.24 361.46 L 195.32 361.33 L 195.57 361.33 L 195.59 361.33 L 195.61 361.33 L 195.77 360.96 L 195.89 360.87 L 196.32 359.58 L 196.39 359.58 L 196.47 359.58 L 196.59 359.60 L 196.60 359.60 L 196.65 359.60 L 196.69 359.60 L 196.75 359.60 L 196.81 359.60 L 196.98 359.57 L 197.10 359.57 L 197.23 359.56 L 197.39 359.56 L 197.58 359.55 L 197.77 359.07 L 197.90 358.91 L 198.17 358.91 L 198.17 358.90 L 198.33 358.90 L 211.29 358.90 L 211.53 358.89 L 212.14 358.81 L 212.27 358.80 L 212.37 358.80 L 212.39 358.80 L 212.61 358.80 L 212.77 358.80 L 212.86 358.80 L 212.94 358.80 L 213.00 358.79 L 213.23 358.79 L 213.70 358.82 L 213.82 358.82 L 213.90 358.82 L 214.02 358.82 L 214.62 358.71 L 214.70 358.67 L 214.74 358.67 L 214.78 358.60 L 214.91 358.59 L 215.01 358.59 L 215.45 358.10 L 216.07 358.10 L 216.30 358.10 L 216.99 358.10 L 217.32 354.78 L 217.44 354.77 L 217.58 354.77 L 217.78 354.77 L 218.10 354.77 L 218.54 354.77 L 219.12 354.77 L 219.21 354.77 L 219.64 354.69 L 219.92 354.55 L 220.00 354.55 L 220.17 354.55 L 220.30 354.53 L 221.83 354.32 L 223.29 354.32 L 236.33 354.32 L 236.42 354.32 L 236.49 354.32 L 236.90 354.32 L 238.12 353.27 L 238.17 353.24 L 238.34 353.13 L 238.94 353.13 L 239.22 352.87 L 239.65 352.88 L 239.75 352.88 L 239.85 352.88 L 240.60 349.96 L 240.69 349.96 L 240.85 349.96 L 241.02 349.96 L 241.10 349.78 L 241.52 349.43 L 241.67 349.43 L 241.74 349.43 L 241.84 348.89 L 242.03 348.35 L 242.10 348.35 L 242.29 348.34 L 242.86 344.00 L 242.91 344.00 L 242.97 344.00 L 243.05 344.00 L 243.19 344.00 L 243.25 344.00 L 243.30 344.00 L 243.57 344.00 L 243.64 343.91 L 243.97 343.89 L 244.17 343.83 L 244.29 343.30 L 245.30 334.66 L 245.42 334.66 L 283.74 334.66 L 283.77 334.66 L 298.42 334.66 L 299.21 334.53 L 299.38 334.53 L 299.59 334.53 L 299.66 334.53 L 299.75 334.53 L 306.10 334.46 L 306.94 334.38 L 307.25 334.38 L 307.42 334.36 L 311.37 334.28 L 311.40 334.17 L 311.64 334.17 L 312.83 333.00 L 312.89 333.00 L 313.04 333.00 L 313.46 333.00 L 313.51 333.00 L 313.68 333.00 L 313.86 333.00 L 313.88 333.00 L 326.19 332.98 L 326.28 332.77 L 326.77 332.77 L 326.78 331.36 L 326.87 331.36 L 326.97 331.36 L 327.11 331.23 L 327.32 331.23 L 327.49 331.17 L 327.65 331.17 L 327.71 331.17 L 327.96 331.15 L 328.81 328.75 L 329.16 328.75 L 329.21 328.73 L 329.29 328.73 L 329.33 328.73 L 329.45 328.70 L 329.80 328.40 L 329.85 328.36 L 330.06 326.20 L 330.14 326.20 L 330.17 326.20 L 330.25 326.17 L 330.30 326.17 L 330.35 326.16 L 330.62 324.99 L 330.74 324.97 L 330.89 324.95 L 330.99 321.30 L 331.04 321.30 L 331.31 319.25 L 331.38 319.25 L 331.43 319.24 L 331.50 319.24 L 331.54 319.24 L 331.58 319.24 L 331.60 319.24 L 331.73 315.45 L 331.78 315.44 L 331.91 315.43 L 332.01 315.43 L 332.29 315.35 L 332.62 315.25 L 332.64 315.25 L 332.73 315.23 L 333.05 315.17 L 333.20 315.17 L 333.34 315.17 L 333.50 313.53 L 333.61 313.53 L 334.04 313.52 L 334.08 313.52 L 334.14 313.52 L 334.17 313.52 L 334.46 311.18 L 334.51 311.18 L 334.71 311.17 L 353.65 311.17 L 354.73 311.15 L 354.76 311.15 L 354.98 311.15 L 354.99 311.15 L 355.13 311.15 L 355.24 311.15 L 355.33 311.03 L 355.46 311.03 L 355.50 311.03 L 355.55 311.03 L 355.75 310.82 L 356.16 310.69 L 356.42 310.55 L 356.71 309.89 L 356.72 309.89 L 356.77 309.72 L 356.81 309.70 L 357.37 309.30 L 357.38 309.30 L 357.47 309.24 L 357.71 309.24 L 357.87 309.20 L 357.90 308.23 L 357.91 308.23 L 357.98 309.19 L 358.02 309.14 L 358.04 309.12 L 358.18 307.82 L 358.19 307.82 L 358.49 307.77 L 359.30 307.77 L 359.49 307.77 L 359.55 307.77 L 359.59 307.77 L 359.64 307.77 L 359.75 307.68 L 372.69 306.60 L 372.71 306.60 L 372.82 306.60 L 372.86 306.36 L 372.93 294.83 L 373.07 290.54 L 373.09 290.54 L 373.33 290.46 L 373.38 290.46 L 373.42 290.44 L 373.63 290.44 L 374.19 289.40 L 374.21 289.40 L 374.35 289.34 L 374.40 289.34 L 374.43 289.25 L 374.90 288.62 L 374.91 288.62 L 375.62 288.50 L 375.71 288.45 L 375.96 288.46 L 376.25 287.05 L 376.33 286.90 L 376.38 286.77 L 376.51 286.24 L 376.88 286.11 L 376.94 286.00 L 377.10 286.00 L 377.28 286.00 L 377.82 286.00 L 377.88 286.00 L 378.01 286.00 L 378.02 286.00 L 378.20 286.01 L 378.61 286.01 L 379.03 285.86 L 379.09 285.86 L 379.19 285.85 L 379.31 285.85 L 379.63 285.85 L 380.18 285.85 L 380.36 285.72 L 380.66 282.00 L 381.85 285.51 L 382.11 285.49 L 382.30 285.48 L 382.59 285.48 L 382.69 285.44 L 382.99 285.42 L 383.45 285.21 L 383.51 285.21 L 383.60 285.21 L 383.66 285.21 L 383.70 285.21 L 384.07 285.00 L 392.65 285.00 L 392.73 285.01 L 393.26 284.99 L 393.32 284.99 L 393.43 284.96 L 393.53 284.70 L 393.55 284.69 L 393.84 284.67 L 393.92 284.67 L 395.67 284.45 L 395.88 284.45 L 396.03 284.45 L 396.06 284.45 L 396.61 284.30 L 396.79 284.30 L 396.83 284.30 L 397.12 284.29 L 397.44 283.41 L 397.48 283.41 L 397.75 283.26 L 397.86 283.26 L 397.96 283.26 L 398.18 283.26 L 398.66 283.25 L 398.75 283.23 L 398.83 283.14 L 399.03 283.00 L 399.50 282.86 L 399.92 279.35 L 400.01 279.23 L 400.44 279.06 L 400.51 279.02 L 400.58 278.90 L 400.62 278.65 L 400.77 277.60 L 400.81 277.65 L 400.88 277.62 L 401.12 277.62 L 401.49 277.48 L 401.72 277.42 L 401.99 277.40 L 402.11 277.39 L 402.37 277.38 L 402.81 277.38 L 403.24 277.37 L 403.57 277.37 L 403.64 277.36 L 403.73 277.36 L 403.73 277.35 L 403.98 277.35 L 404.06 277.34 L 404.16 277.20 L 404.86 277.19 L 404.87 277.19 L 405.07 277.18 L 405.89 277.17 L 406.43 277.00 L 406.83 276.85 L 406.84 276.85 L 406.88 276.85 L 418.89 276.85 L 418.93 276.85 L 419.07 276.85 L 419.13 276.85 L 419.18 276.83 L 419.19 276.83 L 419.70 276.83 L 419.81 276.81 L 419.97 276.79 L 420.22 276.77 L 420.39 276.77 L 420.59 276.68 L 420.71 276.68 L 420.76 276.68 L 420.82 276.68 L 420.97 276.36 L 420.99 276.36 L 421.04 276.36 L 421.17 276.36 L 421.26 276.36 L 421.37 276.44 L 421.51 276.44 L 421.81 276.43 L 421.94 276.43 L 422.05 276.43 L 422.79 275.39 L 423.42 275.12 L 424.18 274.38 L 424.37 274.38 L 424.59 274.38 L 424.83 274.38 L 429.24 274.29 L 429.61 274.28 L 471.47 274.15 L 603.28 273.96 L 603.71 273.90 L 604.02 273.90 L 604.32 273.90 L 604.78 273.42 L 604.93 273.42 L 605.05 273.42 L 605.26 271.69 L 605.57 272.02 L 605.81 271.99 L 605.87 271.99 L 606.07 271.98 L 606.12 271.98 L 606.33 271.97 L 606.53 271.90 L 607.13 270.80 L 607.14 270.80 L 607.32 270.70 L 607.88 267.16 L 607.90 267.16 L 608.01 267.16 L 608.14 267.11 L 608.76 265.46 L 608.77 265.46 L 608.91 265.46 L 609.05 265.42 L 609.28 264.82 L 609.29 264.82 L 609.39 264.81 L 609.41 264.81 L 609.46 264.48 L 609.72 262.13 L 609.76 262.13 L 609.84 262.13 L 610.12 261.94 L 610.18 261.94 L 610.40 261.55 L 610.77 261.55 L 610.82 261.55 L 610.87 261.55 L 610.94 261.55 L 611.12 261.54 L 611.31 260.48 L 611.34 260.48 L 611.45 260.48 L 611.56 259.68 L 611.59 259.68 L 611.71 258.83 L 611.76 258.78 L 611.99 257.94 L 612.02 257.94 L 612.13 257.94 L 612.29 257.93 L 613.24 257.93 L 613.71 257.92 L 624.00 257.92 L 624.11 257.92 L 624.21 257.92 L 624.39 257.92 L 624.77 257.70 L 624.80 257.70 L 624.87 257.63 L 625.12 256.46 L 625.15 256.46 L 627.39 256.48 L 627.53 256.25 L 628.66 256.25 L 628.79 256.25 L 628.92 256.16 L 630.29 255.20 L 630.87 255.01 L 631.01 254.95 L 631.50 253.12 L 631.81 253.12 L 632.32 252.97 L 633.22 252.97 L 647.00 252.96 L 647.83 252.85 L 647.86 252.88 L 649.02 252.88 L 649.07 252.88 L 649.48 252.88 L 649.95 252.84 L 649.95 252.84 L 650.00 252.84"/>
	</g>
	<g id="poloto_plot2" class="poloto_plot poloto_imgs poloto_line poloto2 poloto_stroke" fill="none" stroke="black">
		<path d=" M 150.00 390.58 L 150.03 390.57 L 150.05 390.57 L 150.06 390.57 L 150.09 390.57 L 150.13 388.16 L 150.27 387.83 L 150.59 387.82 L 151.07 387.80 L 151.31 386.36 L 151.80 386.24 L 151.88 386.19 L 151.95 386.16 L 152.52 385.51 L 153.58 385.00 L 153.92 384.91 L 154.00 384.91 L 154.65 384.87 L 155.39 384.87 L 155.39 384.87 L 155.40 384.87 L 165.40 384.87 L 165.47 384.87 L 165.60 384.85 L 165.66 384.85 L 166.04 384.70 L 166.21 384.66 L 166.63 384.43 L 166.69 384.32 L 166.81 384.11 L 166.94 384.08 L 166.98 384.08 L 167.08 384.04 L 167.19 384.04 L 167.30 384.04 L 167.58 383.80 L 167.82 383.58 L 167.87 383.58 L 167.99 383.45 L 168.78 383.16 L 168.80 383.15 L 168.90 383.07 L 169.35 382.74 L 169.72 382.35 L 170.13 382.19 L 170.22 382.19 L 170.23 382.19 L 170.30 381.97 L 170.46 381.97 L 170.66 381.95 L 171.05 381.78 L 171.08 381.50 L 171.15 381.50 L 171.24 381.36 L 171.47 381.36 L 171.49 381.36 L 171.73 380.94 L 171.82 380.92 L 171.90 380.88 L 171.99 380.68 L 173.21 380.56 L 173.51 380.52 L 174.19 380.23 L 174.33 380.23 L 174.43 380.21 L 174.49 380.00 L 174.96 378.81 L 175.17 378.80 L 175.41 378.44 L 175.53 378.41 L 175.81 378.25 L 175.93 378.20 L 176.10 377.94 L 176.25 377.74 L 176.79 377.73 L 176.81 377.71 L 176.83 377.54 L 177.02 376.40 L 186.29 376.28 L 187.25 375.94 L 187.29 375.89 L 188.42 375.61 L 188.52 375.60 L 188.62 375.39 L 188.90 375.25 L 189.03 374.99 L 189.07 374.78 L 189.22 374.35 L 189.55 374.34 L 189.56 374.34 L 189.69 374.05 L 189.81 374.04 L 189.96 373.73 L 190.14 373.49 L 190.21 373.36 L 190.23 373.35 L 190.39 373.06 L 190.42 373.06 L 190.59 372.80 L 190.62 372.79 L 190.89 372.70 L 190.93 372.70 L 191.03 372.60 L 191.14 372.58 L 191.29 372.58 L 191.36 372.56 L 191.88 372.31 L 191.89 372.32 L 191.99 371.80 L 192.22 371.79 L 192.43 371.63 L 192.49 371.63 L 192.59 371.62 L 192.64 371.58 L 192.76 370.88 L 193.34 370.28 L 193.41 369.96 L 193.60 369.93 L 193.66 369.85 L 193.71 369.84 L 193.80 369.69 L 193.90 369.13 L 194.10 369.04 L 194.25 369.03 L 194.36 368.75 L 194.43 368.74 L 194.95 368.53 L 195.24 368.38 L 195.32 368.26 L 195.57 368.24 L 195.59 368.24 L 195.61 368.22 L 195.77 367.21 L 195.89 367.20 L 196.32 367.06 L 196.39 366.65 L 196.47 366.65 L 196.59 366.48 L 196.60 366.38 L 196.65 366.32 L 196.69 366.28 L 196.75 366.27 L 196.81 366.20 L 196.98 365.06 L 197.10 364.94 L 197.23 364.61 L 197.39 364.58 L 197.58 364.47 L 197.77 364.12 L 197.90 363.13 L 198.17 363.06 L 198.17 362.64 L 198.33 362.54 L 211.29 362.54 L 211.53 362.54 L 212.14 362.07 L 212.27 362.07 L 212.37 362.07 L 212.39 361.95 L 212.61 361.75 L 212.77 361.72 L 212.86 361.60 L 212.94 361.51 L 213.00 361.47 L 213.23 361.41 L 213.70 361.50 L 213.82 361.19 L 213.90 361.11 L 214.02 361.10 L 214.62 361.04 L 214.70 360.98 L 214.74 360.98 L 214.78 360.92 L 214.91 360.87 L 215.01 360.75 L 215.45 360.46 L 216.07 360.34 L 216.30 360.28 L 216.99 360.10 L 217.32 359.64 L 217.44 359.56 L 217.58 359.20 L 217.78 358.74 L 218.10 358.62 L 218.54 358.61 L 219.12 358.59 L 219.21 358.42 L 219.64 358.30 L 219.92 358.16 L 220.00 358.04 L 220.17 358.00 L 220.30 357.69 L 221.83 357.54 L 223.29 357.54 L 236.33 357.50 L 236.42 357.33 L 236.49 357.22 L 236.90 357.05 L 238.12 356.74 L 238.17 356.70 L 238.34 356.48 L 238.94 356.40 L 239.22 355.80 L 239.65 355.79 L 239.75 355.76 L 239.85 355.18 L 240.60 354.63 L 240.69 354.63 L 240.85 354.59 L 241.02 354.54 L 241.10 354.34 L 241.52 353.43 L 241.67 353.20 L 241.74 353.18 L 241.84 353.08 L 242.03 352.72 L 242.10 351.81 L 242.29 351.43 L 242.86 351.22 L 242.91 350.76 L 242.97 350.76 L 243.05 350.68 L 243.19 350.55 L 243.25 350.52 L 243.30 350.47 L 243.57 349.41 L 243.64 348.78 L 243.97 348.66 L 244.17 347.60 L 244.29 347.39 L 245.30 345.72 L 245.42 345.69 L 283.74 345.21 L 283.77 345.21 L 298.42 345.07 L 299.21 344.89 L 299.38 344.89 L 299.59 344.80 L 299.66 344.67 L 299.75 344.64 L 306.10 344.62 L 306.94 342.70 L 307.25 342.54 L 307.42 341.87 L 311.37 341.79 L 311.40 341.73 L 311.64 341.71 L 312.83 341.60 L 312.89 341.38 L 313.04 341.30 L 313.46 341.20 L 313.51 341.17 L 313.68 340.80 L 313.86 340.69 L 313.88 340.40 L 326.19 340.04 L 326.28 339.17 L 326.77 338.94 L 326.78 338.61 L 326.87 338.35 L 326.97 337.94 L 327.11 336.89 L 327.32 336.31 L 327.49 335.56 L 327.65 335.56 L 327.71 334.98 L 327.96 334.94 L 328.81 334.39 L 329.16 334.14 L 329.21 333.98 L 329.29 333.98 L 329.33 333.79 L 329.45 333.13 L 329.80 333.07 L 329.85 333.06 L 330.06 332.64 L 330.14 332.64 L 330.17 332.39 L 330.25 332.24 L 330.30 332.24 L 330.35 331.89 L 330.62 331.69 L 330.74 331.35 L 330.89 331.34 L 330.99 331.16 L 331.04 330.90 L 331.31 330.76 L 331.38 330.61 L 331.43 330.61 L 331.50 330.60 L 331.54 330.34 L 331.58 330.35 L 331.60 330.34 L 331.73 330.25 L 331.78 329.96 L 331.91 329.95 L 332.01 329.88 L 332.29 329.86 L 332.62 329.83 L 332.64 329.83 L 332.73 329.81 L 333.05 329.81 L 333.20 329.81 L 333.34 329.81 L 333.50 329.76 L 333.61 329.41 L 334.04 329.41 L 334.08 329.20 L 334.14 329.20 L 334.17 328.96 L 334.46 328.88 L 334.51 328.82 L 334.71 328.82 L 353.65 328.76 L 354.73 328.66 L 354.76 328.66 L 354.98 328.66 L 354.99 328.66 L 355.13 328.25 L 355.24 328.23 L 355.33 328.12 L 355.46 328.06 L 355.50 328.02 L 355.55 328.00 L 355.75 327.96 L 356.16 327.88 L 356.42 327.32 L 356.71 327.29 L 356.72 327.26 L 356.77 326.79 L 356.81 326.79 L 357.37 326.79 L 357.38 326.74 L 357.47 326.31 L 357.71 326.26 L 357.87 326.24 L 357.90 326.23 L 357.91 326.18 L 357.98 326.15 L 358.02 325.71 L 358.04 325.70 L 358.18 325.70 L 358.19 325.67 L 358.49 325.62 L 359.30 325.61 L 359.49 325.57 L 359.55 325.56 L 359.59 325.42 L 359.64 325.42 L 359.75 324.92 L 372.69 324.77 L 372.71 324.63 L 372.82 324.53 L 372.86 324.51 L 372.93 324.09 L 373.07 323.99 L 373.09 323.96 L 373.33 323.96 L 373.38 323.96 L 373.42 323.54 L 373.63 323.49 L 374.19 323.47 L 374.21 323.45 L 374.35 323.22 L 374.40 323.23 L 374.43 322.84 L 374.90 322.84 L 374.91 322.82 L 375.62 322.72 L 375.71 322.26 L 375.96 322.26 L 376.25 322.26 L 376.33 321.91 L 376.38 321.65 L 376.51 321.64 L 376.88 321.58 L 376.94 321.56 L 377.10 321.45 L 377.28 321.45 L 377.82 321.46 L 377.88 321.46 L 378.01 321.43 L 378.02 321.43 L 378.20 321.43 L 378.61 321.40 L 379.03 321.35 L 379.09 321.35 L 379.19 321.30 L 379.31 321.18 L 379.63 321.18 L 380.18 321.03 L 380.36 320.77 L 380.66 320.74 L 381.85 320.45 L 382.11 320.45 L 382.30 320.45 L 382.59 320.44 L 382.69 320.42 L 382.99 320.28 L 383.45 320.26 L 383.51 320.13 L 383.60 320.07 L 383.66 320.09 L 383.70 320.04 L 384.07 320.02 L 392.65 320.01 L 392.73 320.01 L 393.26 320.01 L 393.32 320.00 L 393.43 319.61 L 393.53 319.59 L 393.55 319.59 L 393.84 319.58 L 393.92 319.56 L 395.67 318.99 L 395.88 318.93 L 396.03 318.92 L 396.06 318.92 L 396.61 318.90 L 396.79 318.98 L 396.83 318.98 L 397.12 318.94 L 397.44 318.40 L 397.48 318.39 L 397.75 318.37 L 397.86 318.37 L 397.96 318.37 L 398.18 318.26 L 398.66 317.77 L 398.75 317.77 L 398.83 317.70 L 399.03 317.25 L 399.50 316.76 L 399.92 316.79 L 400.01 316.53 L 400.44 316.53 L 400.51 316.49 L 400.58 316.47 L 400.62 316.21 L 400.77 316.20 L 400.81 316.20 L 400.88 316.20 L 401.12 316.20 L 401.49 315.99 L 401.72 315.97 L 401.99 315.97 L 402.11 315.97 L 402.37 315.97 L 402.81 315.97 L 403.24 315.97 L 403.57 315.97 L 403.64 315.96 L 403.73 315.95 L 403.73 315.86 L 403.98 315.80 L 404.06 315.80 L 404.16 315.78 L 404.86 315.78 L 404.87 315.52 L 405.07 315.52 L 405.89 315.53 L 406.43 315.52 L 406.83 315.47 L 406.84 315.36 L 406.88 315.36 L 418.89 315.19 L 418.93 315.19 L 419.07 315.18 L 419.13 315.02 L 419.18 315.02 L 419.19 315.01 L 419.70 314.96 L 419.81 314.44 L 419.97 314.33 L 420.22 313.31 L 420.39 313.30 L 420.59 312.86 L 420.71 312.91 L 420.76 312.91 L 420.82 312.35 L 420.97 312.25 L 420.99 311.87 L 421.04 311.81 L 421.17 311.77 L 421.26 311.58 L 421.37 313.87 L 421.51 313.84 L 421.81 312.91 L 421.94 312.71 L 422.05 312.51 L 422.79 312.14 L 423.42 311.76 L 424.18 311.22 L 424.37 311.16 L 424.59 311.16 L 424.83 311.11 L 429.24 310.84 L 429.61 310.81 L 471.47 310.10 L 603.28 310.07 L 603.71 309.75 L 604.02 309.70 L 604.32 309.70 L 604.78 309.41 L 604.93 309.07 L 605.05 308.44 L 605.26 308.27 L 605.57 308.33 L 605.81 307.96 L 605.87 307.95 L 606.07 307.84 L 606.12 307.84 L 606.33 307.23 L 606.53 306.29 L 607.13 306.20 L 607.14 306.10 L 607.32 304.89 L 607.88 304.84 L 607.90 304.72 L 608.01 304.65 L 608.14 303.55 L 608.76 303.49 L 608.77 303.34 L 608.91 303.26 L 609.05 302.54 L 609.28 302.52 L 609.29 302.40 L 609.39 301.20 L 609.41 301.17 L 609.46 301.13 L 609.72 301.13 L 609.76 301.01 L 609.84 300.92 L 610.12 300.81 L 610.18 300.80 L 610.40 300.74 L 610.77 300.79 L 610.82 300.73 L 610.87 300.70 L 610.94 300.66 L 611.12 299.42 L 611.31 299.39 L 611.34 299.29 L 611.45 298.01 L 611.56 297.55 L 611.59 297.38 L 611.71 296.76 L 611.76 295.68 L 611.99 295.66 L 612.02 295.60 L 612.13 295.38 L 612.29 295.38 L 613.24 295.34 L 613.71 295.31 L 624.00 295.36 L 624.11 295.12 L 624.21 294.94 L 624.39 294.07 L 624.77 294.06 L 624.80 293.98 L 624.87 292.89 L 625.12 292.88 L 625.15 292.77 L 627.39 292.66 L 627.53 292.27 L 628.66 292.08 L 628.79 292.04 L 628.92 290.83 L 630.29 290.48 L 630.87 290.20 L 631.01 289.29 L 631.50 289.28 L 631.81 288.78 L 632.32 288.00 L 633.22 287.52 L 647.00 287.52 L 647.83 287.51 L 647.86 287.51 L 649.02 287.33 L 649.07 287.23 L 649.48 287.16 L 649.95 286.15 L 649.95 286.15 L 650.00 286.10"/>
	</g>
	<g class="poloto_legend poloto_imgs poloto_line poloto0 poloto_stroke"><line x1="680" x2="730" y1="81.25" y2="81.25"/></g>
	<g class="poloto_legend poloto_imgs poloto_line poloto1 poloto_stroke"><line x1="680" x2="730" y1="131.25" y2="131.25"/></g>
	<g class="poloto_legend poloto_imgs poloto_line poloto2 poloto_stroke"><line x1="680" x2="730" y1="181.25" y2="181.25"/></g>
	<text class="poloto_legend poloto_text poloto_line poloto0" x="675" y="100">total</text>
	<text class="poloto_legend poloto_text poloto_line poloto1" x="675" y="150">code</text>
	<text class="poloto_legend poloto_text poloto_line poloto2" x="675" y="200">docs</text>
	<text class="poloto_text poloto_name poloto_title" x="400.00" y="37.50">Workspace lines over time</text>
	<text class="poloto_text poloto_name poloto_x" x="400.00" y="640">date (JST)</text>
	<text class="poloto_text poloto_name poloto_y" x="37.50" y="250.00" transform="rotate(-90,37.50,250.00)">lines</text>
	<text class="poloto_text poloto_ticks poloto_y">
		<tspan x="135.00" y="400.00">0</tspan>
		<tspan x="135.00" y="310.41">50K</tspan>
		<tspan x="135.00" y="220.82">100K</tspan>
		<tspan x="135.00" y="131.22">150K</tspan>
	</text>
	<g class="poloto_imgs poloto_ticks poloto_y" stroke="black">
		<line x1="150.00" x2="144.00" y1="400.00" y2="400.00"/>
		<line x1="150.00" x2="144.00" y1="310.41" y2="310.41"/>
		<line x1="150.00" x2="144.00" y1="220.82" y2="220.82"/>
		<line x1="150.00" x2="144.00" y1="131.22" y2="131.22"/>
	</g>
	<g class="poloto_text poloto_ticks poloto_x">
		<text x="236.17" y="430.00" text-anchor="end" transform="rotate(-90 236.17 430.00)">2026-04-24 12:06</text>
		<text x="368.80" y="430.00" text-anchor="end" transform="rotate(-90 368.80 430.00)">2026-04-30 07:00</text>
		<text x="501.43" y="430.00" text-anchor="end" transform="rotate(-90 501.43 430.00)">2026-05-06 01:53</text>
		<text x="634.07" y="430.00" text-anchor="end" transform="rotate(-90 634.07 430.00)">2026-05-11 20:46</text>
	</g>
	<g class="poloto_imgs poloto_ticks poloto_x" stroke="black">
		<line x1="236.17" x2="236.17" y1="400.00" y2="405.00"/>
		<line x1="368.80" x2="368.80" y1="400.00" y2="405.00"/>
		<line x1="501.43" x2="501.43" y1="400.00" y2="405.00"/>
		<line x1="634.07" x2="634.07" y1="400.00" y2="405.00"/>
	</g>
	<path class="poloto_imgs poloto_ticks poloto_x" stroke="black" style="stroke-dasharray:13.263436789908756;stroke-dashoffset:-86.16538656817283;" d=" M 150.00 400.00 L 650.00 400.00"/>
	<path class="poloto_imgs poloto_ticks poloto_y" stroke="black" style="stroke-dasharray:8.959235478572495;stroke-dashoffset:-0;" d=" M 150.00 400.00 L 150.00 100.00"/>
</svg>

