<svg class="poloto" width="800" height="680" viewBox="0 0 800 680" xmlns="http://www.w3.org/2000/svg">
	<style>
.poloto{
  stroke-linecap:round;
  stroke-linejoin:round;
  font-family:Roboto,sans-serif;
  font-size:16px;
}
.poloto_background{fill:AliceBlue;}
.poloto_scatter{stroke-width:7}
.poloto_line{stroke-width:2}
.poloto_text{fill: black;}
.poloto_name{font-size:24px;dominant-baseline:auto;text-anchor:middle;}
.poloto_where{dominant-baseline:middle;text-anchor:start}
.poloto_text.poloto_legend{font-size:20px;dominant-baseline:middle;text-anchor:start;}
.poloto_text.poloto_ticks.poloto_y{dominant-baseline:middle;text-anchor:end}
.poloto_text.poloto_ticks.poloto_x{dominant-baseline:auto;text-anchor:middle}
.poloto_imgs.poloto_ticks{stroke: black;stroke-width:3;fill:none;stroke-dasharray:none}
.poloto_grid{stroke:gray;stroke-width:0.5}

.poloto0.poloto_stroke{stroke:blue;}
.poloto1.poloto_stroke{stroke:red;}
.poloto2.poloto_stroke{stroke:green;}
.poloto3.poloto_stroke{stroke:gold;}
.poloto4.poloto_stroke{stroke:aqua;}
.poloto5.poloto_stroke{stroke:lime;}
.poloto6.poloto_stroke{stroke:orange;}
.poloto7.poloto_stroke{stroke:chocolate;}
.poloto0.poloto_fill{fill:blue;}
.poloto1.poloto_fill{fill:red;}
.poloto2.poloto_fill{fill:green;}
.poloto3.poloto_fill{fill:gold;}
.poloto4.poloto_fill{fill:aqua;}
.poloto5.poloto_fill{fill:lime;}
.poloto6.poloto_fill{fill:orange;}
.poloto7.poloto_fill{fill:chocolate;}
	</style>
	<circle r="1e5" class="poloto_background" fill="white"/>
	<g id="poloto_plot0" class="poloto_plot poloto_imgs poloto_line poloto0 poloto_stroke" fill="none" stroke="black">
		<path d=" M 150.00 372.19 L 150.02 372.17 L 150.04 372.15 L 150.04 372.15 L 150.07 372.15 L 150.09 369.13 L 150.19 368.77 L 150.42 368.75 L 150.76 368.51 L 150.93 366.97 L 151.28 366.88 L 151.34 366.80 L 151.38 366.76 L 151.79 366.01 L 152.55 365.40 L 152.78 363.04 L 152.85 363.04 L 153.30 362.94 L 153.83 362.93 L 153.83 362.93 L 153.84 362.93 L 160.95 362.93 L 161.00 362.93 L 161.09 362.91 L 161.13 362.88 L 161.40 362.75 L 161.52 362.71 L 161.82 362.49 L 161.86 362.39 L 161.95 362.18 L 162.04 362.15 L 162.07 362.15 L 162.14 362.09 L 162.22 362.09 L 162.30 362.09 L 162.49 361.74 L 162.67 361.52 L 162.70 361.53 L 162.79 361.40 L 163.35 361.94 L 163.36 361.94 L 163.43 361.85 L 163.76 361.44 L 164.02 360.96 L 164.31 360.75 L 164.37 360.71 L 164.38 360.71 L 164.43 360.52 L 164.54 360.52 L 164.68 360.45 L 164.96 360.27 L 164.98 359.99 L 165.03 359.99 L 165.10 359.84 L 165.26 359.84 L 165.27 359.84 L 165.44 359.44 L 165.51 359.41 L 165.57 359.38 L 165.63 359.22 L 166.50 359.00 L 166.71 358.96 L 167.19 358.67 L 167.29 358.67 L 167.37 358.66 L 167.41 358.45 L 167.74 357.25 L 167.89 357.23 L 168.06 356.83 L 168.14 356.79 L 168.34 356.46 L 168.43 356.34 L 168.55 356.13 L 168.66 355.94 L 169.04 353.18 L 169.05 353.11 L 169.07 352.94 L 169.20 351.62 L 175.80 351.52 L 176.48 350.01 L 176.50 349.97 L 177.31 349.73 L 177.38 349.73 L 177.45 349.43 L 177.65 349.28 L 177.74 349.02 L 177.77 348.79 L 177.87 348.40 L 178.11 348.39 L 178.12 348.12 L 178.21 347.83 L 178.30 347.82 L 178.40 347.49 L 178.53 347.25 L 178.58 347.13 L 178.60 347.13 L 178.71 346.87 L 178.73 346.86 L 178.85 346.60 L 178.87 346.60 L 179.06 345.35 L 179.09 345.35 L 179.16 345.14 L 179.24 345.13 L 179.35 345.13 L 179.40 345.10 L 179.77 344.87 L 179.77 344.88 L 179.84 344.32 L 180.01 344.31 L 180.16 343.48 L 180.20 343.41 L 180.27 343.40 L 180.31 343.37 L 180.39 342.73 L 180.81 337.31 L 180.85 337.05 L 180.99 337.02 L 181.03 336.96 L 181.07 336.94 L 181.13 336.80 L 181.20 336.18 L 181.35 336.06 L 181.45 336.04 L 181.53 335.77 L 181.58 335.76 L 181.95 335.56 L 182.15 335.41 L 182.21 335.17 L 182.39 335.16 L 182.40 335.16 L 182.42 335.13 L 182.53 333.83 L 182.62 333.75 L 182.92 332.44 L 182.97 332.06 L 183.03 332.05 L 183.11 331.91 L 183.12 331.81 L 183.16 331.74 L 183.18 331.71 L 183.23 331.71 L 183.27 331.64 L 183.39 330.56 L 183.48 330.41 L 183.57 330.09 L 183.68 330.07 L 183.82 329.97 L 183.95 329.21 L 184.04 328.16 L 184.24 328.10 L 184.24 327.70 L 184.35 327.57 L 193.56 327.58 L 193.73 327.56 L 194.17 327.01 L 194.26 326.99 L 194.33 326.99 L 194.34 326.85 L 194.50 326.68 L 194.61 326.65 L 194.67 326.55 L 194.74 326.48 L 194.77 326.44 L 194.94 326.39 L 195.27 326.32 L 195.36 326.03 L 195.42 325.96 L 195.50 325.95 L 195.92 325.81 L 195.98 325.72 L 196.01 325.72 L 196.04 325.62 L 196.13 325.57 L 196.21 325.46 L 196.52 324.75 L 196.96 324.64 L 197.12 324.60 L 197.61 324.42 L 197.85 321.02 L 197.93 320.94 L 198.03 320.61 L 198.17 320.16 L 198.40 320.04 L 198.71 320.02 L 199.13 320.01 L 199.19 319.86 L 199.50 319.71 L 199.69 319.46 L 199.75 319.36 L 199.87 319.32 L 199.97 319.02 L 201.05 318.68 L 202.09 318.68 L 211.36 318.65 L 211.42 318.51 L 211.47 318.41 L 211.76 318.26 L 212.63 317.09 L 212.66 317.01 L 212.79 316.71 L 213.21 316.63 L 213.41 315.84 L 213.72 315.83 L 213.79 315.82 L 213.86 315.28 L 214.40 312.18 L 214.46 312.17 L 214.57 312.15 L 214.69 312.11 L 214.75 311.77 L 215.05 310.60 L 215.16 310.39 L 215.20 310.37 L 215.27 309.83 L 215.41 309.07 L 215.46 308.27 L 215.60 307.91 L 216.00 303.88 L 216.04 303.47 L 216.07 303.47 L 216.14 303.40 L 216.24 303.30 L 216.27 303.26 L 216.31 303.22 L 216.51 302.25 L 216.55 301.57 L 216.79 301.44 L 216.93 300.42 L 217.01 299.78 L 217.73 290.40 L 217.82 290.37 L 245.05 289.92 L 245.08 289.92 L 255.48 289.79 L 256.05 289.54 L 256.17 289.54 L 256.32 289.47 L 256.37 289.35 L 256.43 289.31 L 260.95 289.25 L 261.54 287.46 L 261.76 287.30 L 261.88 286.64 L 264.69 286.51 L 264.71 286.33 L 264.89 286.32 L 265.73 285.19 L 265.78 284.99 L 265.88 284.92 L 266.18 284.84 L 266.21 284.81 L 266.33 284.47 L 266.46 284.38 L 266.48 284.13 L 275.23 283.78 L 275.29 282.82 L 275.64 282.61 L 275.65 281.00 L 275.71 280.76 L 275.78 280.36 L 275.88 279.25 L 276.02 278.66 L 276.15 277.98 L 276.26 277.97 L 276.31 277.44 L 276.48 277.40 L 277.09 274.80 L 277.33 274.53 L 277.37 274.36 L 277.43 274.36 L 277.46 274.18 L 277.54 273.54 L 277.79 273.24 L 277.82 273.20 L 277.97 270.91 L 278.03 270.91 L 278.06 270.66 L 278.11 270.48 L 278.15 270.47 L 278.18 270.13 L 278.37 268.90 L 278.46 268.54 L 278.56 268.50 L 278.64 265.20 L 278.67 264.93 L 278.86 263.05 L 278.91 262.90 L 278.95 262.90 L 279.00 262.89 L 279.03 262.63 L 279.06 262.64 L 279.07 262.63 L 279.16 259.30 L 279.20 259.01 L 279.29 258.99 L 279.36 258.94 L 279.56 258.84 L 279.80 258.71 L 279.81 258.71 L 279.87 258.67 L 280.10 258.61 L 280.20 258.61 L 280.31 258.61 L 280.42 257.16 L 280.50 256.81 L 280.81 256.81 L 280.84 256.58 L 280.87 256.57 L 280.90 256.33 L 281.10 254.22 L 281.14 254.17 L 281.28 254.16 L 294.74 254.10 L 295.51 253.99 L 295.53 253.99 L 295.68 253.99 L 295.70 253.99 L 295.79 253.57 L 295.87 253.56 L 295.93 253.35 L 296.03 253.30 L 296.05 253.27 L 296.09 253.25 L 296.23 253.02 L 296.53 252.81 L 296.71 252.14 L 296.92 251.49 L 296.92 251.46 L 296.96 250.86 L 296.99 250.84 L 297.39 250.48 L 297.39 250.44 L 297.46 249.96 L 297.63 249.91 L 297.74 249.87 L 297.76 249.01 L 297.77 248.97 L 297.82 249.78 L 297.85 249.28 L 297.86 249.26 L 297.96 248.13 L 297.97 248.09 L 298.18 248.00 L 298.76 247.98 L 298.89 247.94 L 298.93 247.93 L 298.96 247.79 L 299.00 247.79 L 299.08 247.22 L 308.28 246.14 L 308.29 245.99 L 308.37 245.88 L 308.39 245.67 L 308.44 236.17 L 308.55 232.28 L 308.56 232.26 L 308.73 232.18 L 308.77 232.18 L 308.79 231.74 L 308.94 231.69 L 309.34 230.77 L 309.35 230.75 L 309.45 230.47 L 309.49 230.48 L 309.51 230.02 L 309.84 229.48 L 309.85 229.46 L 310.36 229.25 L 310.42 228.76 L 310.60 228.77 L 310.81 227.54 L 310.86 227.06 L 310.89 226.67 L 310.99 226.20 L 311.25 226.03 L 311.30 225.91 L 311.41 225.80 L 311.53 225.80 L 311.92 225.81 L 311.97 225.81 L 312.05 225.78 L 312.06 225.78 L 312.19 225.80 L 312.48 225.77 L 312.78 225.59 L 312.82 225.59 L 312.89 225.52 L 312.98 225.39 L 313.21 225.39 L 313.60 225.22 L 313.72 224.84 L 313.94 221.56 L 314.78 224.33 L 314.97 224.32 L 315.10 224.31 L 315.31 224.30 L 315.38 224.25 L 315.59 224.09 L 315.92 223.87 L 315.97 223.72 L 316.03 223.66 L 316.07 223.67 L 316.10 223.62 L 316.36 223.42 L 322.46 223.42 L 322.52 223.42 L 322.90 223.41 L 322.93 223.39 L 323.02 222.98 L 323.09 222.74 L 323.10 222.74 L 323.31 222.70 L 323.36 222.68 L 324.61 222.07 L 324.75 222.01 L 324.86 222.00 L 324.89 222.00 L 325.27 221.85 L 325.41 221.93 L 325.43 221.92 L 325.64 221.88 L 325.86 220.58 L 325.89 220.58 L 326.08 220.43 L 326.16 220.43 L 326.23 220.43 L 326.39 220.28 L 326.73 219.76 L 326.79 219.74 L 326.86 219.60 L 326.99 218.98 L 327.33 218.34 L 327.63 215.33 L 327.69 214.96 L 327.99 214.81 L 328.05 214.74 L 328.10 214.59 L 328.13 214.11 L 328.23 213.24 L 328.26 213.27 L 328.31 213.26 L 328.48 213.25 L 328.75 212.93 L 328.91 212.87 L 329.10 212.86 L 329.19 212.85 L 329.37 212.84 L 329.68 212.84 L 329.98 212.83 L 330.22 212.83 L 330.27 212.82 L 330.33 212.81 L 330.34 212.70 L 330.52 212.64 L 330.57 212.63 L 330.64 212.50 L 331.14 212.48 L 331.15 212.22 L 331.29 212.21 L 331.87 212.21 L 332.26 212.05 L 332.54 211.86 L 332.55 211.76 L 332.57 211.75 L 341.11 211.58 L 341.14 211.57 L 341.24 211.56 L 341.28 211.41 L 341.31 211.39 L 341.32 211.38 L 341.68 211.34 L 341.77 210.80 L 341.87 210.68 L 342.06 209.60 L 342.17 209.59 L 342.32 209.13 L 342.40 209.19 L 342.44 209.18 L 342.48 208.66 L 342.59 208.31 L 342.60 207.93 L 342.64 207.88 L 342.73 207.84 L 342.79 207.67 L 342.87 209.72 L 342.97 209.68 L 343.18 208.86 L 343.27 208.66 L 343.36 208.49 L 343.88 207.31 L 344.33 206.74 L 344.87 205.65 L 345.01 205.60 L 345.16 205.60 L 345.33 205.55 L 348.47 205.25 L 348.73 205.22 L 378.48 204.39 L 472.16 204.20 L 472.47 203.86 L 472.69 203.82 L 472.90 203.82 L 473.23 203.18 L 473.34 202.87 L 473.42 202.30 L 473.57 200.65 L 473.79 200.99 L 473.96 200.63 L 474.00 200.62 L 474.15 200.51 L 474.18 200.51 L 474.33 199.91 L 474.47 198.94 L 474.90 197.91 L 474.91 197.82 L 475.03 196.60 L 475.43 193.55 L 475.44 193.45 L 475.52 193.38 L 475.62 192.30 L 476.06 190.83 L 476.07 190.70 L 476.16 190.63 L 476.26 189.91 L 476.42 189.34 L 476.43 189.23 L 476.51 188.12 L 476.52 188.09 L 476.56 187.78 L 476.74 185.80 L 476.77 185.69 L 476.83 185.57 L 477.03 185.31 L 477.07 185.30 L 477.22 184.92 L 477.48 184.97 L 477.52 184.92 L 477.56 184.89 L 477.60 184.86 L 477.73 183.70 L 477.87 182.75 L 477.89 182.67 L 477.97 181.48 L 478.05 180.32 L 478.07 180.18 L 478.15 178.82 L 478.19 177.76 L 478.35 177.04 L 478.37 176.99 L 478.45 176.77 L 478.57 176.75 L 479.24 176.72 L 479.57 176.68 L 486.89 176.73 L 486.97 176.52 L 487.04 176.34 L 487.16 175.55 L 487.44 175.34 L 487.46 175.26 L 487.51 174.21 L 487.68 173.19 L 487.70 173.10 L 489.30 173.03 L 489.40 172.45 L 490.20 172.28 L 490.29 172.24 L 490.39 171.05 L 491.36 169.94 L 491.77 169.51 L 491.87 168.64 L 492.22 167.15 L 492.44 166.72 L 492.80 165.84 L 493.44 165.39 L 503.24 165.39 L 503.82 165.29 L 503.85 165.30 L 504.67 165.13 L 504.71 165.04 L 505.00 164.98 L 505.33 164.00 L 505.33 164.00 L 505.37 163.96 L 505.80 162.85 L 506.81 162.22 L 506.88 162.16 L 506.98 162.15 L 507.13 161.86 L 507.17 161.78 L 507.23 161.73 L 507.70 161.68 L 508.08 161.68 L 508.28 161.68 L 508.31 161.64 L 508.73 160.67 L 509.05 160.48 L 509.06 160.41 L 509.10 160.33 L 509.15 160.07 L 519.77 159.70 L 519.80 159.68 L 519.83 159.66 L 520.03 159.56 L 520.19 159.44 L 521.13 157.94 L 521.36 157.77 L 522.04 157.32 L 522.62 157.21 L 523.05 157.06 L 523.17 155.68 L 523.71 154.07 L 523.90 153.95 L 523.97 152.91 L 525.55 151.00 L 525.56 151.00 L 525.65 150.53 L 525.95 150.48 L 525.95 150.48 L 525.97 150.36 L 526.02 150.21 L 526.16 150.06 L 526.33 149.26 L 527.96 147.32 L 528.17 147.09 L 528.32 146.74 L 528.34 146.70 L 528.37 146.43 L 535.61 145.55 L 535.85 144.88 L 535.98 144.85 L 536.03 144.41 L 536.72 144.21 L 536.86 143.77 L 536.99 143.77 L 537.06 142.84 L 537.29 140.48 L 537.33 140.44 L 537.63 140.40 L 537.70 139.63 L 537.96 138.70 L 538.02 138.06 L 538.23 137.47 L 538.39 137.16 L 538.52 136.45 L 538.79 135.85 L 538.82 135.17 L 539.17 135.02 L 539.20 135.02 L 539.25 134.16 L 539.33 134.16 L 539.36 134.10 L 539.77 132.49 L 540.35 131.97 L 540.64 132.14 L 541.60 132.06 L 541.62 132.06 L 541.77 132.04 L 541.84 132.02 L 541.95 131.91 L 542.06 131.82 L 542.19 131.64 L 542.48 131.41 L 542.75 131.40 L 543.61 131.23 L 543.65 131.22 L 544.51 131.07 L 544.88 130.97 L 552.20 130.96 L 552.57 130.84 L 552.75 130.76 L 552.83 130.76 L 552.85 130.76 L 553.04 130.74 L 553.12 130.69 L 553.34 130.53 L 553.47 130.51 L 553.95 130.34 L 554.19 129.98 L 554.61 129.93 L 554.72 129.70 L 554.86 129.55 L 555.04 129.37 L 555.67 129.42 L 555.74 129.40 L 556.66 128.95 L 556.80 128.69 L 556.99 128.60 L 557.43 128.39 L 557.64 128.45 L 557.75 128.80 L 557.84 128.78 L 557.96 128.63 L 558.35 127.58 L 558.77 127.47 L 559.14 127.38 L 559.18 127.33 L 559.22 127.03 L 585.71 126.96 L 585.89 126.83 L 601.13 126.48 L 601.21 126.87 L 601.33 125.25 L 601.35 125.25 L 601.39 125.29 L 601.94 122.02 L 601.99 121.99 L 602.67 122.06 L 603.35 121.86 L 603.59 121.55 L 604.02 121.15 L 604.58 120.90 L 604.60 120.90 L 604.67 120.83 L 604.89 120.77 L 604.96 120.61 L 605.51 119.81 L 606.22 119.64 L 606.30 119.49 L 606.66 119.42 L 606.77 120.05 L 607.04 119.82 L 607.27 119.76 L 607.73 119.59 L 608.17 119.51 L 608.40 119.16 L 608.41 119.16 L 617.94 119.15 L 620.94 118.25 L 621.06 117.82 L 621.21 117.41 L 621.69 117.38 L 621.89 117.24 L 622.04 115.14 L 622.14 113.77 L 622.37 113.64 L 622.40 113.62 L 622.74 113.22 L 622.84 113.01 L 622.90 112.90 L 623.08 112.56 L 623.14 112.54 L 623.24 112.50 L 623.31 112.30 L 623.39 112.07 L 623.49 111.95 L 623.55 111.91 L 623.87 111.82 L 624.02 111.58 L 624.14 111.45 L 624.18 110.78 L 624.53 110.65 L 624.66 110.26 L 633.65 110.35 L 634.31 110.11 L 634.42 110.11 L 634.83 109.32 L 635.01 109.22 L 635.76 107.95 L 636.08 107.83 L 636.51 106.67 L 636.57 106.67 L 636.83 106.64 L 636.92 105.98 L 637.26 105.05 L 637.78 104.50 L 637.95 103.83 L 641.12 102.14 L 641.43 101.64 L 641.45 101.64 L 649.89 100.06 L 649.89 100.06 L 650.00 100.00"/>
	</g>
	<g id="poloto_plot1" class="poloto_plot poloto_imgs poloto_line poloto1 poloto_stroke" fill="none" stroke="black">
		<path d=" M 150.00 383.47 L 150.02 383.46 L 150.04 383.45 L 150.04 383.45 L 150.07 383.45 L 150.09 382.93 L 150.19 382.91 L 150.42 382.90 L 150.76 382.70 L 150.93 382.61 L 151.28 382.64 L 151.34 382.60 L 151.38 382.60 L 151.79 382.56 L 152.55 382.46 L 152.78 380.42 L 152.85 380.42 L 153.30 380.37 L 153.83 380.36 L 153.83 380.36 L 153.84 380.36 L 160.95 380.36 L 161.00 380.36 L 161.09 380.36 L 161.13 380.33 L 161.40 380.32 L 161.52 380.32 L 161.82 380.32 L 161.86 380.32 L 161.95 380.30 L 162.04 380.30 L 162.07 380.30 L 162.14 380.28 L 162.22 380.28 L 162.30 380.28 L 162.49 380.17 L 162.67 380.17 L 162.70 380.17 L 162.79 380.17 L 163.35 380.93 L 163.36 380.93 L 163.43 380.92 L 163.76 380.81 L 164.02 380.68 L 164.31 380.62 L 164.37 380.58 L 164.38 380.58 L 164.43 380.58 L 164.54 380.58 L 164.68 380.53 L 164.96 380.49 L 164.98 380.49 L 165.03 380.49 L 165.10 380.47 L 165.26 380.47 L 165.27 380.47 L 165.44 380.46 L 165.51 380.46 L 165.57 380.46 L 165.63 380.46 L 166.50 380.37 L 166.71 380.36 L 167.19 380.32 L 167.29 380.32 L 167.37 380.32 L 167.41 380.32 L 167.74 380.26 L 167.89 380.26 L 168.06 380.19 L 168.14 380.18 L 168.34 380.01 L 168.43 379.95 L 168.55 379.95 L 168.66 379.95 L 169.04 377.56 L 169.05 377.52 L 169.07 377.52 L 169.20 377.29 L 175.80 377.29 L 176.48 376.26 L 176.50 376.26 L 177.31 376.26 L 177.38 376.26 L 177.45 376.15 L 177.65 376.13 L 177.74 376.13 L 177.77 376.13 L 177.87 376.13 L 178.11 376.13 L 178.12 375.91 L 178.21 375.90 L 178.30 375.90 L 178.40 375.88 L 178.53 375.87 L 178.58 375.87 L 178.60 375.87 L 178.71 375.87 L 178.73 375.87 L 178.85 375.87 L 178.87 375.87 L 179.06 374.86 L 179.09 374.86 L 179.16 374.74 L 179.24 374.74 L 179.35 374.74 L 179.40 374.73 L 179.77 374.73 L 179.77 374.73 L 179.84 374.66 L 180.01 374.66 L 180.16 374.08 L 180.20 374.01 L 180.27 374.01 L 180.31 374.01 L 180.39 373.99 L 180.81 369.73 L 180.85 369.76 L 180.99 369.76 L 181.03 369.76 L 181.07 369.76 L 181.13 369.76 L 181.20 369.70 L 181.35 369.70 L 181.45 369.70 L 181.53 369.69 L 181.58 369.69 L 181.95 369.68 L 182.15 369.68 L 182.21 369.57 L 182.39 369.57 L 182.40 369.57 L 182.42 369.57 L 182.53 369.29 L 182.62 369.21 L 182.92 368.20 L 182.97 368.20 L 183.03 368.20 L 183.11 368.21 L 183.12 368.21 L 183.16 368.21 L 183.18 368.21 L 183.23 368.21 L 183.27 368.21 L 183.39 368.19 L 183.48 368.19 L 183.57 368.18 L 183.68 368.18 L 183.82 368.17 L 183.95 367.80 L 184.04 367.67 L 184.24 367.67 L 184.24 367.66 L 184.35 367.66 L 193.56 367.66 L 193.73 367.66 L 194.17 367.59 L 194.26 367.58 L 194.33 367.58 L 194.34 367.58 L 194.50 367.58 L 194.61 367.58 L 194.67 367.58 L 194.74 367.58 L 194.77 367.58 L 194.94 367.58 L 195.27 367.60 L 195.36 367.60 L 195.42 367.60 L 195.50 367.60 L 195.92 367.52 L 195.98 367.48 L 196.01 367.48 L 196.04 367.43 L 196.13 367.42 L 196.21 367.42 L 196.52 367.03 L 196.96 367.03 L 197.12 367.03 L 197.61 367.03 L 197.85 364.42 L 197.93 364.42 L 198.03 364.42 L 198.17 364.41 L 198.40 364.41 L 198.71 364.41 L 199.13 364.41 L 199.19 364.41 L 199.50 364.35 L 199.69 364.24 L 199.75 364.24 L 199.87 364.24 L 199.97 364.23 L 201.05 364.06 L 202.09 364.06 L 211.36 364.06 L 211.42 364.06 L 211.47 364.06 L 211.76 364.06 L 212.63 363.24 L 212.66 363.21 L 212.79 363.13 L 213.21 363.12 L 213.41 362.92 L 213.72 362.93 L 213.79 362.93 L 213.86 362.93 L 214.40 360.63 L 214.46 360.63 L 214.57 360.63 L 214.69 360.63 L 214.75 360.48 L 215.05 360.21 L 215.16 360.21 L 215.20 360.21 L 215.27 359.79 L 215.41 359.36 L 215.46 359.36 L 215.60 359.36 L 216.00 355.94 L 216.04 355.94 L 216.07 355.94 L 216.14 355.94 L 216.24 355.94 L 216.27 355.94 L 216.31 355.94 L 216.51 355.94 L 216.55 355.87 L 216.79 355.85 L 216.93 355.80 L 217.01 355.39 L 217.73 348.59 L 217.82 348.59 L 245.05 348.59 L 245.08 348.59 L 255.48 348.59 L 256.05 348.49 L 256.17 348.49 L 256.32 348.49 L 256.37 348.49 L 256.43 348.49 L 260.95 348.44 L 261.54 348.37 L 261.76 348.37 L 261.88 348.35 L 264.69 348.29 L 264.71 348.20 L 264.89 348.20 L 265.73 347.28 L 265.78 347.28 L 265.88 347.28 L 266.18 347.28 L 266.21 347.28 L 266.33 347.28 L 266.46 347.28 L 266.48 347.28 L 275.23 347.27 L 275.29 347.10 L 275.64 347.10 L 275.65 345.99 L 275.71 345.99 L 275.78 345.99 L 275.88 345.89 L 276.02 345.89 L 276.15 345.84 L 276.26 345.84 L 276.31 345.84 L 276.48 345.83 L 277.09 343.94 L 277.33 343.94 L 277.37 343.93 L 277.43 343.93 L 277.46 343.93 L 277.54 343.90 L 277.79 343.67 L 277.82 343.63 L 277.97 341.94 L 278.03 341.93 L 278.06 341.93 L 278.11 341.91 L 278.15 341.91 L 278.18 341.90 L 278.37 340.98 L 278.46 340.97 L 278.56 340.95 L 278.64 338.08 L 278.67 338.08 L 278.86 336.47 L 278.91 336.47 L 278.95 336.46 L 279.00 336.46 L 279.03 336.46 L 279.06 336.46 L 279.07 336.46 L 279.16 333.48 L 279.20 333.47 L 279.29 333.46 L 279.36 333.46 L 279.56 333.40 L 279.80 333.32 L 279.81 333.32 L 279.87 333.30 L 280.10 333.25 L 280.20 333.25 L 280.31 333.25 L 280.42 331.97 L 280.50 331.97 L 280.81 331.96 L 280.84 331.96 L 280.87 331.96 L 280.90 331.96 L 281.10 330.12 L 281.14 330.12 L 281.28 330.11 L 294.74 330.11 L 295.51 330.10 L 295.53 330.10 L 295.68 330.10 L 295.70 330.10 L 295.79 330.10 L 295.87 330.09 L 295.93 330.00 L 296.03 330.00 L 296.05 330.00 L 296.09 330.00 L 296.23 329.84 L 296.53 329.73 L 296.71 329.62 L 296.92 329.10 L 296.92 329.10 L 296.96 328.97 L 296.99 328.96 L 297.39 328.64 L 297.39 328.64 L 297.46 328.59 L 297.63 328.59 L 297.74 328.56 L 297.76 327.80 L 297.77 327.80 L 297.82 328.55 L 297.85 328.51 L 297.86 328.50 L 297.96 327.48 L 297.97 327.48 L 298.18 327.43 L 298.76 327.43 L 298.89 327.43 L 298.93 327.43 L 298.96 327.43 L 299.00 327.43 L 299.08 327.37 L 308.28 326.52 L 308.29 326.52 L 308.37 326.51 L 308.39 326.33 L 308.44 317.25 L 308.55 313.88 L 308.56 313.88 L 308.73 313.82 L 308.77 313.82 L 308.79 313.80 L 308.94 313.80 L 309.34 312.98 L 309.35 312.98 L 309.45 312.93 L 309.49 312.93 L 309.51 312.86 L 309.84 312.37 L 309.85 312.37 L 310.36 312.27 L 310.42 312.24 L 310.60 312.24 L 310.81 311.13 L 310.86 311.02 L 310.89 310.91 L 310.99 310.50 L 311.25 310.39 L 311.30 310.30 L 311.41 310.30 L 311.53 310.30 L 311.92 310.30 L 311.97 310.30 L 312.05 310.30 L 312.06 310.30 L 312.19 310.32 L 312.48 310.32 L 312.78 310.20 L 312.82 310.20 L 312.89 310.19 L 312.98 310.19 L 313.21 310.19 L 313.60 310.19 L 313.72 310.09 L 313.94 307.16 L 314.78 309.92 L 314.97 309.91 L 315.10 309.90 L 315.31 309.90 L 315.38 309.87 L 315.59 309.85 L 315.92 309.68 L 315.97 309.68 L 316.03 309.68 L 316.07 309.68 L 316.10 309.68 L 316.36 309.52 L 322.46 309.52 L 322.52 309.53 L 322.90 309.51 L 322.93 309.51 L 323.02 309.49 L 323.09 309.28 L 323.10 309.28 L 323.31 309.26 L 323.36 309.26 L 324.61 309.09 L 324.75 309.09 L 324.86 309.09 L 324.89 309.09 L 325.27 308.97 L 325.41 308.97 L 325.43 308.97 L 325.64 308.96 L 325.86 308.27 L 325.89 308.27 L 326.08 308.15 L 326.16 308.15 L 326.23 308.15 L 326.39 308.15 L 326.73 308.14 L 326.79 308.13 L 326.86 308.06 L 326.99 307.94 L 327.33 307.84 L 327.63 305.07 L 327.69 304.98 L 327.99 304.85 L 328.05 304.82 L 328.10 304.72 L 328.13 304.53 L 328.23 303.70 L 328.26 303.73 L 328.31 303.72 L 328.48 303.71 L 328.75 303.60 L 328.91 303.56 L 329.10 303.54 L 329.19 303.53 L 329.37 303.52 L 329.68 303.52 L 329.98 303.51 L 330.22 303.51 L 330.27 303.51 L 330.33 303.50 L 330.34 303.50 L 330.52 303.50 L 330.57 303.49 L 330.64 303.39 L 331.14 303.38 L 331.15 303.38 L 331.29 303.36 L 331.87 303.36 L 332.26 303.23 L 332.54 303.11 L 332.55 303.11 L 332.57 303.11 L 341.11 303.10 L 341.14 303.10 L 341.24 303.10 L 341.28 303.10 L 341.31 303.09 L 341.32 303.09 L 341.68 303.09 L 341.77 303.08 L 341.87 303.06 L 342.06 303.04 L 342.17 303.04 L 342.32 302.98 L 342.40 302.98 L 342.44 302.98 L 342.48 302.98 L 342.59 302.72 L 342.60 302.72 L 342.64 302.72 L 342.73 302.72 L 342.79 302.72 L 342.87 302.78 L 342.97 302.78 L 343.18 302.77 L 343.27 302.77 L 343.36 302.77 L 343.88 301.96 L 344.33 301.74 L 344.87 301.16 L 345.01 301.16 L 345.16 301.16 L 345.33 301.16 L 348.47 301.09 L 348.73 301.09 L 378.48 300.99 L 472.16 300.83 L 472.47 300.79 L 472.69 300.78 L 472.90 300.78 L 473.23 300.41 L 473.34 300.41 L 473.42 300.41 L 473.57 299.05 L 473.79 299.30 L 473.96 299.29 L 474.00 299.29 L 474.15 299.28 L 474.18 299.28 L 474.33 299.27 L 474.47 299.21 L 474.90 298.35 L 474.91 298.35 L 475.03 298.27 L 475.43 295.49 L 475.44 295.49 L 475.52 295.48 L 475.62 295.44 L 476.06 294.15 L 476.07 294.15 L 476.16 294.15 L 476.26 294.11 L 476.42 293.64 L 476.43 293.64 L 476.51 293.63 L 476.52 293.63 L 476.56 293.37 L 476.74 291.53 L 476.77 291.53 L 476.83 291.53 L 477.03 291.37 L 477.07 291.37 L 477.22 291.07 L 477.48 291.07 L 477.52 291.07 L 477.56 291.07 L 477.60 291.07 L 477.73 291.06 L 477.87 290.23 L 477.89 290.23 L 477.97 290.23 L 478.05 289.60 L 478.07 289.60 L 478.15 288.93 L 478.19 288.89 L 478.35 288.23 L 478.37 288.23 L 478.45 288.23 L 478.57 288.22 L 479.24 288.22 L 479.57 288.21 L 486.89 288.21 L 486.97 288.21 L 487.04 288.21 L 487.16 288.21 L 487.44 288.04 L 487.46 288.04 L 487.51 287.99 L 487.68 287.06 L 487.70 287.06 L 489.30 287.08 L 489.40 286.90 L 490.20 286.90 L 490.29 286.90 L 490.39 286.83 L 491.36 286.07 L 491.77 285.93 L 491.87 285.88 L 492.22 284.44 L 492.44 284.44 L 492.80 284.32 L 493.44 284.32 L 503.24 284.31 L 503.82 284.23 L 503.85 284.25 L 504.67 284.25 L 504.71 284.25 L 505.00 284.25 L 505.33 284.22 L 505.33 284.22 L 505.37 284.22 L 505.80 283.38 L 506.81 283.35 L 506.88 283.35 L 506.98 283.35 L 507.13 283.32 L 507.17 283.29 L 507.23 283.29 L 507.70 283.25 L 508.08 283.25 L 508.28 283.25 L 508.31 283.25 L 508.73 283.23 L 509.05 283.13 L 509.06 283.13 L 509.10 283.13 L 509.15 283.13 L 519.77 282.94 L 519.80 282.94 L 519.83 282.94 L 520.03 282.94 L 520.19 282.94 L 521.13 282.11 L 521.36 282.06 L 522.04 281.99 L 522.62 281.95 L 523.05 281.95 L 523.17 281.95 L 523.71 280.69 L 523.90 280.66 L 523.97 280.62 L 525.55 279.73 L 525.56 279.73 L 525.65 279.72 L 525.95 279.71 L 525.95 279.71 L 525.97 279.71 L 526.02 279.69 L 526.16 279.65 L 526.33 279.55 L 527.96 278.10 L 528.17 278.03 L 528.32 278.03 L 528.34 278.03 L 528.37 278.03 L 535.61 278.03 L 535.85 278.02 L 535.98 278.02 L 536.03 278.02 L 536.72 278.02 L 536.86 278.02 L 536.99 278.02 L 537.06 277.98 L 537.29 276.08 L 537.33 276.06 L 537.63 276.07 L 537.70 276.06 L 537.96 275.32 L 538.02 275.28 L 538.23 274.80 L 538.39 274.80 L 538.52 274.75 L 538.79 274.31 L 538.82 274.31 L 539.17 272.89 L 539.20 272.89 L 539.25 272.88 L 539.33 272.88 L 539.36 272.88 L 539.77 271.46 L 540.35 271.34 L 540.64 271.34 L 541.60 271.30 L 541.62 271.30 L 541.77 271.30 L 541.84 271.30 L 541.95 271.30 L 542.06 271.30 L 542.19 271.28 L 542.48 271.26 L 542.75 271.26 L 543.61 271.20 L 543.65 271.20 L 544.51 271.16 L 544.88 271.12 L 552.20 271.14 L 552.57 271.07 L 552.75 270.99 L 552.83 270.99 L 552.85 270.99 L 553.04 270.99 L 553.12 270.99 L 553.34 270.99 L 553.47 270.98 L 553.95 270.85 L 554.19 270.59 L 554.61 270.58 L 554.72 270.41 L 554.86 270.33 L 555.04 270.25 L 555.67 270.33 L 555.74 270.33 L 556.66 270.06 L 556.80 270.06 L 556.99 270.06 L 557.43 270.04 L 557.64 270.17 L 557.75 270.17 L 557.84 270.17 L 557.96 270.17 L 558.35 269.55 L 558.77 269.54 L 559.14 269.54 L 559.18 269.54 L 559.22 269.54 L 585.71 269.54 L 585.89 269.49 L 601.13 269.29 L 601.21 269.29 L 601.33 269.23 L 601.35 269.23 L 601.39 269.23 L 601.94 266.87 L 601.99 266.87 L 602.67 266.87 L 603.35 266.76 L 603.59 266.53 L 604.02 266.22 L 604.58 266.15 L 604.60 266.15 L 604.67 266.10 L 604.89 266.10 L 604.96 266.05 L 605.51 265.41 L 606.22 265.31 L 606.30 265.31 L 606.66 265.31 L 606.77 265.31 L 607.04 265.15 L 607.27 265.12 L 607.73 264.99 L 608.17 264.92 L 608.40 264.92 L 608.41 264.92 L 617.94 264.92 L 620.94 264.88 L 621.06 264.85 L 621.21 264.57 L 621.69 264.58 L 621.89 264.58 L 622.04 264.58 L 622.14 264.46 L 622.37 264.38 L 622.40 264.37 L 622.74 264.14 L 622.84 263.98 L 622.90 263.93 L 623.08 263.83 L 623.14 263.82 L 623.24 263.81 L 623.31 263.67 L 623.39 263.52 L 623.49 263.49 L 623.55 263.49 L 623.87 263.43 L 624.02 263.32 L 624.14 263.23 L 624.18 263.23 L 624.53 263.23 L 624.66 263.23 L 633.65 263.25 L 634.31 263.23 L 634.42 263.23 L 634.83 262.84 L 635.01 262.78 L 635.76 262.74 L 636.08 262.74 L 636.51 261.79 L 636.57 261.79 L 636.83 261.77 L 636.92 261.75 L 637.26 261.70 L 637.78 261.25 L 637.95 261.24 L 641.12 260.20 L 641.43 260.20 L 641.45 260.20 L 649.89 260.19 L 649.89 260.19 L 650.00 260.19"/>
	</g>
	<g id="poloto_plot2" class="poloto_plot poloto_imgs poloto_line poloto2 poloto_stroke" fill="none" stroke="black">
		<path d=" M 150.00 392.59 L 150.02 392.58 L 150.04 392.58 L 150.04 392.58 L 150.07 392.58 L 150.09 390.68 L 150.19 390.42 L 150.42 390.42 L 150.76 390.40 L 150.93 389.27 L 151.28 389.17 L 151.34 389.14 L 151.38 389.11 L 151.79 388.60 L 152.55 388.20 L 152.78 388.13 L 152.85 388.13 L 153.30 388.10 L 153.83 388.10 L 153.83 388.10 L 153.84 388.10 L 160.95 388.10 L 161.00 388.09 L 161.09 388.08 L 161.13 388.08 L 161.40 387.96 L 161.52 387.93 L 161.82 387.75 L 161.86 387.67 L 161.95 387.50 L 162.04 387.48 L 162.07 387.47 L 162.14 387.44 L 162.22 387.44 L 162.30 387.44 L 162.49 387.25 L 162.67 387.08 L 162.70 387.08 L 162.79 386.98 L 163.35 386.75 L 163.36 386.75 L 163.43 386.68 L 163.76 386.42 L 164.02 386.11 L 164.31 385.99 L 164.37 385.99 L 164.38 385.99 L 164.43 385.82 L 164.54 385.82 L 164.68 385.80 L 164.96 385.67 L 164.98 385.45 L 165.03 385.45 L 165.10 385.34 L 165.26 385.34 L 165.27 385.34 L 165.44 385.00 L 165.51 384.98 L 165.57 384.95 L 165.63 384.80 L 166.50 384.71 L 166.71 384.67 L 167.19 384.45 L 167.29 384.45 L 167.37 384.43 L 167.41 384.26 L 167.74 383.33 L 167.89 383.32 L 168.06 383.04 L 168.14 383.01 L 168.34 382.89 L 168.43 382.85 L 168.55 382.65 L 168.66 382.48 L 169.04 382.48 L 169.05 382.46 L 169.07 382.33 L 169.20 381.43 L 175.80 381.34 L 176.48 381.07 L 176.50 381.03 L 177.31 380.81 L 177.38 380.80 L 177.45 380.64 L 177.65 380.53 L 177.74 380.32 L 177.77 380.15 L 177.87 379.82 L 178.11 379.81 L 178.12 379.81 L 178.21 379.58 L 178.30 379.58 L 178.40 379.33 L 178.53 379.14 L 178.58 379.04 L 178.60 379.03 L 178.71 378.81 L 178.73 378.80 L 178.85 378.60 L 178.87 378.59 L 179.06 378.52 L 179.09 378.52 L 179.16 378.44 L 179.24 378.43 L 179.35 378.43 L 179.40 378.41 L 179.77 378.21 L 179.77 378.22 L 179.84 377.81 L 180.01 377.80 L 180.16 377.68 L 180.20 377.68 L 180.27 377.67 L 180.31 377.64 L 180.39 377.09 L 180.81 376.62 L 180.85 376.36 L 180.99 376.34 L 181.03 376.28 L 181.07 376.27 L 181.13 376.15 L 181.20 375.71 L 181.35 375.64 L 181.45 375.63 L 181.53 375.41 L 181.58 375.40 L 181.95 375.24 L 182.15 375.12 L 182.21 375.02 L 182.39 375.02 L 182.40 375.02 L 182.42 374.99 L 182.53 374.20 L 182.62 374.19 L 182.92 374.08 L 182.97 373.76 L 183.03 373.76 L 183.11 373.63 L 183.12 373.55 L 183.16 373.50 L 183.18 373.47 L 183.23 373.46 L 183.27 373.40 L 183.39 372.51 L 183.48 372.42 L 183.57 372.15 L 183.68 372.13 L 183.82 372.05 L 183.95 371.77 L 184.04 370.99 L 184.24 370.94 L 184.24 370.60 L 184.35 370.52 L 193.56 370.53 L 193.73 370.53 L 194.17 370.16 L 194.26 370.16 L 194.33 370.16 L 194.34 370.06 L 194.50 369.91 L 194.61 369.88 L 194.67 369.79 L 194.74 369.72 L 194.77 369.69 L 194.94 369.63 L 195.27 369.71 L 195.36 369.46 L 195.42 369.40 L 195.50 369.39 L 195.92 369.34 L 195.98 369.30 L 196.01 369.30 L 196.04 369.25 L 196.13 369.21 L 196.21 369.12 L 196.52 368.89 L 196.96 368.79 L 197.12 368.75 L 197.61 368.60 L 197.85 368.24 L 197.93 368.18 L 198.03 367.90 L 198.17 367.54 L 198.40 367.44 L 198.71 367.43 L 199.13 367.42 L 199.19 367.28 L 199.50 367.19 L 199.69 367.08 L 199.75 366.99 L 199.87 366.95 L 199.97 366.71 L 201.05 366.59 L 202.09 366.59 L 211.36 366.56 L 211.42 366.43 L 211.47 366.34 L 211.76 366.21 L 212.63 365.97 L 212.66 365.93 L 212.79 365.76 L 213.21 365.69 L 213.41 365.22 L 213.72 365.21 L 213.79 365.20 L 213.86 364.74 L 214.40 364.30 L 214.46 364.30 L 214.57 364.27 L 214.69 364.23 L 214.75 364.08 L 215.05 363.36 L 215.16 363.17 L 215.20 363.16 L 215.27 363.08 L 215.41 362.80 L 215.46 362.08 L 215.60 361.79 L 216.00 361.62 L 216.04 361.26 L 216.07 361.26 L 216.14 361.19 L 216.24 361.10 L 216.27 361.07 L 216.31 361.03 L 216.51 360.20 L 216.55 359.70 L 216.79 359.61 L 216.93 358.77 L 217.01 358.61 L 217.73 357.30 L 217.82 357.27 L 245.05 356.89 L 245.08 356.89 L 255.48 356.78 L 256.05 356.64 L 256.17 356.64 L 256.32 356.57 L 256.37 356.47 L 256.43 356.44 L 260.95 356.43 L 261.54 354.92 L 261.76 354.79 L 261.88 354.26 L 264.69 354.20 L 264.71 354.15 L 264.89 354.14 L 265.73 354.05 L 265.78 353.88 L 265.88 353.81 L 266.18 353.74 L 266.21 353.71 L 266.33 353.42 L 266.46 353.33 L 266.48 353.11 L 275.23 352.83 L 275.29 352.14 L 275.64 351.96 L 275.65 351.70 L 275.71 351.49 L 275.78 351.18 L 275.88 350.34 L 276.02 349.89 L 276.15 349.30 L 276.26 349.30 L 276.31 348.84 L 276.48 348.81 L 277.09 348.38 L 277.33 348.18 L 277.37 348.06 L 277.43 348.05 L 277.46 347.91 L 277.54 347.39 L 277.79 347.34 L 277.82 347.34 L 277.97 347.00 L 278.03 347.00 L 278.06 346.81 L 278.11 346.69 L 278.15 346.68 L 278.18 346.41 L 278.37 346.25 L 278.46 345.99 L 278.56 345.98 L 278.64 345.83 L 278.67 345.63 L 278.86 345.52 L 278.91 345.40 L 278.95 345.40 L 279.00 345.40 L 279.03 345.19 L 279.06 345.20 L 279.07 345.19 L 279.16 345.12 L 279.20 344.89 L 279.29 344.89 L 279.36 344.83 L 279.56 344.81 L 279.80 344.79 L 279.81 344.79 L 279.87 344.78 L 280.10 344.78 L 280.20 344.78 L 280.31 344.78 L 280.42 344.74 L 280.50 344.46 L 280.81 344.46 L 280.84 344.30 L 280.87 344.29 L 280.90 344.11 L 281.10 344.05 L 281.14 344.00 L 281.28 344.00 L 294.74 343.95 L 295.51 343.87 L 295.53 343.87 L 295.68 343.87 L 295.70 343.87 L 295.79 343.55 L 295.87 343.54 L 295.93 343.45 L 296.03 343.40 L 296.05 343.37 L 296.09 343.35 L 296.23 343.32 L 296.53 343.26 L 296.71 342.82 L 296.92 342.79 L 296.92 342.77 L 296.96 342.40 L 296.99 342.40 L 297.39 342.40 L 297.39 342.36 L 297.46 342.02 L 297.63 341.98 L 297.74 341.97 L 297.76 341.96 L 297.77 341.92 L 297.82 341.90 L 297.85 341.55 L 297.86 341.54 L 297.96 341.54 L 297.97 341.52 L 298.18 341.48 L 298.76 341.47 L 298.89 341.44 L 298.93 341.43 L 298.96 341.32 L 299.00 341.32 L 299.08 340.93 L 308.28 340.81 L 308.29 340.70 L 308.37 340.62 L 308.39 340.61 L 308.44 340.28 L 308.55 340.19 L 308.56 340.18 L 308.73 340.17 L 308.77 340.17 L 308.79 339.84 L 308.94 339.80 L 309.34 339.79 L 309.35 339.77 L 309.45 339.59 L 309.49 339.60 L 309.51 339.29 L 309.84 339.29 L 309.85 339.27 L 310.36 339.20 L 310.42 338.83 L 310.60 338.83 L 310.81 338.83 L 310.86 338.56 L 310.89 338.36 L 310.99 338.35 L 311.25 338.30 L 311.30 338.29 L 311.41 338.20 L 311.53 338.20 L 311.92 338.20 L 311.97 338.20 L 312.05 338.18 L 312.06 338.18 L 312.19 338.18 L 312.48 338.16 L 312.78 338.12 L 312.82 338.12 L 312.89 338.08 L 312.98 337.98 L 313.21 337.98 L 313.60 337.86 L 313.72 337.66 L 313.94 337.64 L 314.78 337.41 L 314.97 337.41 L 315.10 337.41 L 315.31 337.40 L 315.38 337.39 L 315.59 337.28 L 315.92 337.26 L 315.97 337.16 L 316.03 337.11 L 316.07 337.12 L 316.10 337.09 L 316.36 337.07 L 322.46 337.07 L 322.52 337.07 L 322.90 337.07 L 322.93 337.05 L 323.02 336.75 L 323.09 336.74 L 323.10 336.74 L 323.31 336.73 L 323.36 336.71 L 324.61 336.26 L 324.75 336.22 L 324.86 336.21 L 324.89 336.20 L 325.27 336.19 L 325.41 336.26 L 325.43 336.25 L 325.64 336.22 L 325.86 335.80 L 325.89 335.79 L 326.08 335.78 L 326.16 335.78 L 326.23 335.78 L 326.39 335.69 L 326.73 335.30 L 326.79 335.30 L 326.86 335.25 L 326.99 334.89 L 327.33 334.50 L 327.63 334.53 L 327.69 334.32 L 327.99 334.32 L 328.05 334.30 L 328.10 334.28 L 328.13 334.07 L 328.23 334.07 L 328.26 334.07 L 328.31 334.07 L 328.48 334.07 L 328.75 333.90 L 328.91 333.88 L 329.10 333.88 L 329.19 333.88 L 329.37 333.88 L 329.68 333.88 L 329.98 333.88 L 330.22 333.88 L 330.27 333.88 L 330.33 333.87 L 330.34 333.80 L 330.52 333.75 L 330.57 333.75 L 330.64 333.74 L 331.14 333.74 L 331.15 333.53 L 331.29 333.53 L 331.87 333.54 L 332.26 333.53 L 332.54 333.49 L 332.55 333.41 L 332.57 333.41 L 341.11 333.28 L 341.14 333.27 L 341.24 333.26 L 341.28 333.14 L 341.31 333.14 L 341.32 333.13 L 341.68 333.09 L 341.77 332.68 L 341.87 332.59 L 342.06 331.79 L 342.17 331.78 L 342.32 331.44 L 342.40 331.48 L 342.44 331.48 L 342.48 331.04 L 342.59 330.96 L 342.60 330.66 L 342.64 330.61 L 342.73 330.58 L 342.79 330.43 L 342.87 332.24 L 342.97 332.21 L 343.18 331.48 L 343.27 331.32 L 343.36 331.16 L 343.88 330.88 L 344.33 330.57 L 344.87 330.15 L 345.01 330.10 L 345.16 330.10 L 345.33 330.06 L 348.47 329.85 L 348.73 329.83 L 378.48 329.26 L 472.16 329.24 L 472.47 328.99 L 472.69 328.95 L 472.90 328.95 L 473.23 328.72 L 473.34 328.45 L 473.42 327.96 L 473.57 327.83 L 473.79 327.87 L 473.96 327.58 L 474.00 327.58 L 474.15 327.49 L 474.18 327.49 L 474.33 327.01 L 474.47 326.27 L 474.90 326.20 L 474.91 326.12 L 475.03 325.16 L 475.43 325.13 L 475.44 325.04 L 475.52 324.98 L 475.62 324.11 L 476.06 324.07 L 476.07 323.95 L 476.16 323.89 L 476.26 323.32 L 476.42 323.30 L 476.43 323.21 L 476.51 322.26 L 476.52 322.24 L 476.56 322.21 L 476.74 322.21 L 476.77 322.11 L 476.83 322.05 L 477.03 321.96 L 477.07 321.95 L 477.22 321.90 L 477.48 321.94 L 477.52 321.90 L 477.56 321.87 L 477.60 321.84 L 477.73 320.87 L 477.87 320.84 L 477.89 320.76 L 477.97 319.76 L 478.05 319.39 L 478.07 319.26 L 478.15 318.77 L 478.19 317.92 L 478.35 317.91 L 478.37 317.86 L 478.45 317.69 L 478.57 317.68 L 479.24 317.66 L 479.57 317.64 L 486.89 317.67 L 486.97 317.48 L 487.04 317.34 L 487.16 316.66 L 487.44 316.65 L 487.46 316.58 L 487.51 315.72 L 487.68 315.72 L 487.70 315.63 L 489.30 315.55 L 489.40 315.24 L 490.20 315.09 L 490.29 315.06 L 490.39 314.11 L 491.36 313.83 L 491.77 313.61 L 491.87 312.89 L 492.22 312.89 L 492.44 312.49 L 492.80 311.88 L 493.44 311.51 L 503.24 311.50 L 503.82 311.49 L 503.85 311.49 L 504.67 311.35 L 504.71 311.28 L 505.00 311.22 L 505.33 310.42 L 505.33 310.42 L 505.37 310.39 L 505.80 310.22 L 506.81 309.69 L 506.88 309.63 L 506.98 309.63 L 507.13 309.40 L 507.17 309.37 L 507.23 309.33 L 507.70 309.33 L 508.08 309.33 L 508.28 309.33 L 508.31 309.29 L 508.73 308.48 L 509.05 308.41 L 509.06 308.34 L 509.10 308.27 L 509.15 308.07 L 519.77 307.91 L 519.80 307.89 L 519.83 307.88 L 520.03 307.78 L 520.19 307.68 L 521.13 307.22 L 521.36 307.13 L 522.04 306.78 L 522.62 306.73 L 523.05 306.59 L 523.17 305.39 L 523.71 305.19 L 523.90 305.13 L 523.97 304.27 L 525.55 303.44 L 525.56 303.44 L 525.65 303.06 L 525.95 303.02 L 525.95 303.02 L 525.97 302.92 L 526.02 302.82 L 526.16 302.73 L 526.33 302.14 L 527.96 301.84 L 528.17 301.70 L 528.32 301.38 L 528.34 301.35 L 528.37 301.14 L 535.61 300.38 L 535.85 299.84 L 535.98 299.82 L 536.03 299.46 L 536.72 299.31 L 536.86 298.92 L 536.99 298.92 L 537.06 298.12 L 537.29 297.93 L 537.33 297.90 L 537.63 297.86 L 537.70 297.20 L 537.96 297.12 L 538.02 296.60 L 538.23 296.54 L 538.39 296.24 L 538.52 295.66 L 538.79 295.55 L 538.82 294.96 L 539.17 296.30 L 539.20 296.30 L 539.25 295.54 L 539.33 295.54 L 539.36 295.48 L 539.77 295.40 L 540.35 295.09 L 540.64 295.25 L 541.60 295.23 L 541.62 295.22 L 541.77 295.21 L 541.84 295.19 L 541.95 295.09 L 542.06 294.99 L 542.19 294.86 L 542.48 294.66 L 542.75 294.65 L 543.61 294.56 L 543.65 294.55 L 544.51 294.45 L 544.88 294.39 L 552.20 294.36 L 552.57 294.32 L 552.75 294.32 L 552.83 294.32 L 552.85 294.32 L 553.04 294.31 L 553.12 294.28 L 553.34 294.14 L 553.47 294.12 L 553.95 294.11 L 554.19 294.04 L 554.61 294.00 L 554.72 293.98 L 554.86 293.91 L 555.04 293.83 L 555.67 293.79 L 555.74 293.78 L 556.66 293.63 L 556.80 293.40 L 556.99 293.31 L 557.43 293.17 L 557.64 293.09 L 557.75 293.42 L 557.84 293.41 L 557.96 293.29 L 558.35 292.98 L 558.77 292.89 L 559.14 292.83 L 559.18 292.79 L 559.22 292.56 L 585.71 292.52 L 585.89 292.45 L 601.13 292.39 L 601.21 292.72 L 601.33 291.38 L 601.35 291.38 L 601.39 291.41 L 601.94 290.90 L 601.99 290.87 L 602.67 290.92 L 603.35 290.86 L 603.59 290.82 L 604.02 290.77 L 604.58 290.63 L 604.60 290.63 L 604.67 290.60 L 604.89 290.56 L 604.96 290.46 L 605.51 290.39 L 606.22 290.33 L 606.30 290.20 L 606.66 290.13 L 606.77 290.72 L 607.04 290.67 L 607.27 290.64 L 607.73 290.62 L 608.17 290.62 L 608.40 290.33 L 608.41 290.33 L 617.94 290.32 L 620.94 289.61 L 621.06 289.25 L 621.21 289.16 L 621.69 289.13 L 621.89 289.00 L 622.04 287.21 L 622.14 286.24 L 622.37 286.21 L 622.40 286.19 L 622.74 286.06 L 622.84 286.02 L 622.90 285.96 L 623.08 285.75 L 623.14 285.73 L 623.24 285.70 L 623.31 285.65 L 623.39 285.60 L 623.49 285.51 L 623.55 285.48 L 623.87 285.45 L 624.02 285.35 L 624.14 285.32 L 624.18 284.73 L 624.53 284.61 L 624.66 284.29 L 633.65 284.35 L 634.31 284.17 L 634.42 284.16 L 634.83 283.82 L 635.01 283.78 L 635.76 282.72 L 636.08 282.62 L 636.51 282.48 L 636.57 282.48 L 636.83 282.47 L 636.92 281.92 L 637.26 281.19 L 637.78 281.11 L 637.95 280.54 L 641.12 280.14 L 641.43 279.73 L 641.45 279.73 L 649.89 278.33 L 649.89 278.33 L 650.00 278.27"/>
	</g>
	<g class="poloto_legend poloto_imgs poloto_line poloto0 poloto_stroke"><line x1="680" x2="730" y1="81.25" y2="81.25"/></g>
	<g class="poloto_legend poloto_imgs poloto_line poloto1 poloto_stroke"><line x1="680" x2="730" y1="131.25" y2="131.25"/></g>
	<g class="poloto_legend poloto_imgs poloto_line poloto2 poloto_stroke"><line x1="680" x2="730" y1="181.25" y2="181.25"/></g>
	<text class="poloto_legend poloto_text poloto_line poloto0" x="675" y="100">total</text>
	<text class="poloto_legend poloto_text poloto_line poloto1" x="675" y="150">code</text>
	<text class="poloto_legend poloto_text poloto_line poloto2" x="675" y="200">docs</text>
	<text class="poloto_text poloto_name poloto_title" x="400.00" y="37.50">Workspace lines over time</text>
	<text class="poloto_text poloto_name poloto_x" x="400.00" y="640">date (JST)</text>
	<text class="poloto_text poloto_name poloto_y" x="37.50" y="250.00" transform="rotate(-90,37.50,250.00)">lines</text>
	<text class="poloto_text poloto_ticks poloto_y">
		<tspan x="135.00" y="400.00">0</tspan>
		<tspan x="135.00" y="329.51">50K</tspan>
		<tspan x="135.00" y="259.02">100K</tspan>
		<tspan x="135.00" y="188.53">150K</tspan>
		<tspan x="135.00" y="118.04">200K</tspan>
	</text>
	<g class="poloto_imgs poloto_ticks poloto_y" stroke="black">
		<line x1="150.00" x2="144.00" y1="400.00" y2="400.00"/>
		<line x1="150.00" x2="144.00" y1="329.51" y2="329.51"/>
		<line x1="150.00" x2="144.00" y1="259.02" y2="259.02"/>
		<line x1="150.00" x2="144.00" y1="188.53" y2="188.53"/>
		<line x1="150.00" x2="144.00" y1="118.04" y2="118.04"/>
	</g>
	<g class="poloto_text poloto_ticks poloto_x">
		<text x="211.24" y="430.00" text-anchor="end" transform="rotate(-90 211.24 430.00)">2026-04-24 12:06</text>
		<text x="305.51" y="430.00" text-anchor="end" transform="rotate(-90 305.51 430.00)">2026-04-30 07:00</text>
		<text x="399.78" y="430.00" text-anchor="end" transform="rotate(-90 399.78 430.00)">2026-05-06 01:53</text>
		<text x="494.05" y="430.00" text-anchor="end" transform="rotate(-90 494.05 430.00)">2026-05-11 20:46</text>
		<text x="588.31" y="430.00" text-anchor="end" transform="rotate(-90 588.31 430.00)">2026-05-17 15:40</text>
	</g>
	<g class="poloto_imgs poloto_ticks poloto_x" stroke="black">
		<line x1="211.24" x2="211.24" y1="400.00" y2="405.00"/>
		<line x1="305.51" x2="305.51" y1="400.00" y2="405.00"/>
		<line x1="399.78" x2="399.78" y1="400.00" y2="405.00"/>
		<line x1="494.05" x2="494.05" y1="400.00" y2="405.00"/>
		<line x1="588.31" x2="588.31" y1="400.00" y2="405.00"/>
	</g>
	<path class="poloto_imgs poloto_ticks poloto_x" stroke="black" style="stroke-dasharray:9.426808561502948;stroke-dashoffset:-61.24088474747259;" d=" M 150.00 400.00 L 650.00 400.00"/>
	<path class="poloto_imgs poloto_ticks poloto_y" stroke="black" style="stroke-dasharray:7.049004680539108;stroke-dashoffset:-0;" d=" M 150.00 400.00 L 150.00 100.00"/>
</svg>

