<svg class="poloto" width="800" height="680" viewBox="0 0 800 680" xmlns="http://www.w3.org/2000/svg">
	<style>
.poloto{
  stroke-linecap:round;
  stroke-linejoin:round;
  font-family:Roboto,sans-serif;
  font-size:16px;
}
.poloto_background{fill:AliceBlue;}
.poloto_scatter{stroke-width:7}
.poloto_line{stroke-width:2}
.poloto_text{fill: black;}
.poloto_name{font-size:24px;dominant-baseline:auto;text-anchor:middle;}
.poloto_where{dominant-baseline:middle;text-anchor:start}
.poloto_text.poloto_legend{font-size:20px;dominant-baseline:middle;text-anchor:start;}
.poloto_text.poloto_ticks.poloto_y{dominant-baseline:middle;text-anchor:end}
.poloto_text.poloto_ticks.poloto_x{dominant-baseline:auto;text-anchor:middle}
.poloto_imgs.poloto_ticks{stroke: black;stroke-width:3;fill:none;stroke-dasharray:none}
.poloto_grid{stroke:gray;stroke-width:0.5}

.poloto0.poloto_stroke{stroke:blue;}
.poloto1.poloto_stroke{stroke:red;}
.poloto2.poloto_stroke{stroke:green;}
.poloto3.poloto_stroke{stroke:gold;}
.poloto4.poloto_stroke{stroke:aqua;}
.poloto5.poloto_stroke{stroke:lime;}
.poloto6.poloto_stroke{stroke:orange;}
.poloto7.poloto_stroke{stroke:chocolate;}
.poloto0.poloto_fill{fill:blue;}
.poloto1.poloto_fill{fill:red;}
.poloto2.poloto_fill{fill:green;}
.poloto3.poloto_fill{fill:gold;}
.poloto4.poloto_fill{fill:aqua;}
.poloto5.poloto_fill{fill:lime;}
.poloto6.poloto_fill{fill:orange;}
.poloto7.poloto_fill{fill:chocolate;}
	</style>
	<circle r="1e5" class="poloto_background" fill="white"/>
	<g id="poloto_plot0" class="poloto_plot poloto_imgs poloto_line poloto0 poloto_stroke" fill="none" stroke="black">
		<path d=" M 150.00 368.07 L 150.03 368.05 L 150.05 368.03 L 150.06 368.03 L 150.08 368.03 L 150.12 364.56 L 150.25 364.14 L 150.54 364.13 L 150.98 363.84 L 151.20 362.08 L 151.65 361.97 L 151.73 361.88 L 151.78 361.84 L 152.30 360.98 L 153.28 360.28 L 153.59 357.56 L 153.67 357.57 L 154.26 357.46 L 154.93 357.45 L 154.94 357.45 L 154.94 357.45 L 164.11 357.45 L 164.17 357.44 L 164.29 357.42 L 164.34 357.39 L 164.69 357.23 L 164.85 357.19 L 165.23 356.94 L 165.29 356.83 L 165.40 356.58 L 165.52 356.54 L 165.55 356.54 L 165.65 356.47 L 165.75 356.47 L 165.85 356.48 L 166.10 356.07 L 166.33 355.83 L 166.37 355.83 L 166.48 355.68 L 167.21 356.30 L 167.22 356.30 L 167.31 356.20 L 167.73 355.73 L 168.06 355.18 L 168.44 354.93 L 168.52 354.89 L 168.53 354.89 L 168.60 354.67 L 168.74 354.67 L 168.92 354.60 L 169.28 354.39 L 169.31 354.06 L 169.37 354.06 L 169.46 353.89 L 169.66 353.89 L 169.69 353.89 L 169.90 353.43 L 169.99 353.40 L 170.06 353.37 L 170.15 353.18 L 171.26 352.93 L 171.53 352.88 L 172.15 352.55 L 172.29 352.55 L 172.38 352.53 L 172.44 352.30 L 172.86 350.92 L 173.05 350.89 L 173.27 350.44 L 173.38 350.39 L 173.64 350.01 L 173.75 349.87 L 173.91 349.63 L 174.05 349.41 L 174.54 346.24 L 174.55 346.16 L 174.58 345.97 L 174.75 344.45 L 183.25 344.34 L 184.12 342.60 L 184.16 342.56 L 185.20 342.29 L 185.28 342.28 L 185.38 341.94 L 185.63 341.77 L 185.75 341.47 L 185.79 341.21 L 185.92 340.76 L 186.23 340.75 L 186.24 340.44 L 186.35 340.10 L 186.47 340.10 L 186.60 339.71 L 186.77 339.44 L 186.83 339.30 L 186.85 339.30 L 187.00 339.00 L 187.02 338.99 L 187.18 338.70 L 187.21 338.69 L 187.45 337.26 L 187.50 337.26 L 187.58 337.02 L 187.68 337.01 L 187.82 337.01 L 187.88 336.97 L 188.36 336.70 L 188.37 336.71 L 188.46 336.08 L 188.68 336.06 L 188.87 335.11 L 188.92 335.02 L 189.02 335.02 L 189.06 334.98 L 189.17 334.24 L 189.70 328.02 L 189.76 327.72 L 189.94 327.70 L 190.00 327.62 L 190.04 327.60 L 190.12 327.44 L 190.21 326.73 L 190.40 326.59 L 190.53 326.57 L 190.64 326.26 L 190.70 326.25 L 191.18 326.02 L 191.44 325.84 L 191.52 325.57 L 191.74 325.55 L 191.76 325.55 L 191.78 325.53 L 191.92 324.03 L 192.03 323.94 L 192.43 322.43 L 192.49 322.00 L 192.57 321.98 L 192.67 321.82 L 192.68 321.71 L 192.73 321.64 L 192.77 321.60 L 192.82 321.59 L 192.87 321.51 L 193.03 320.28 L 193.15 320.10 L 193.26 319.74 L 193.41 319.71 L 193.58 319.60 L 193.75 318.73 L 193.87 317.51 L 194.12 317.45 L 194.13 316.99 L 194.27 316.85 L 206.14 316.85 L 206.36 316.83 L 206.92 316.20 L 207.04 316.18 L 207.13 316.18 L 207.15 316.02 L 207.35 315.82 L 207.49 315.79 L 207.57 315.67 L 207.66 315.59 L 207.70 315.54 L 207.92 315.48 L 208.35 315.41 L 208.45 315.08 L 208.53 314.99 L 208.64 314.98 L 209.19 314.82 L 209.26 314.72 L 209.30 314.72 L 209.34 314.60 L 209.46 314.54 L 209.55 314.42 L 209.95 313.61 L 210.52 313.48 L 210.73 313.43 L 211.36 313.23 L 211.67 309.32 L 211.77 309.24 L 211.90 308.85 L 212.09 308.34 L 212.37 308.19 L 212.78 308.18 L 213.32 308.17 L 213.40 308.00 L 213.79 307.81 L 214.04 307.53 L 214.12 307.42 L 214.28 307.37 L 214.40 307.02 L 215.80 306.64 L 217.13 306.64 L 229.08 306.60 L 229.16 306.44 L 229.22 306.33 L 229.60 306.16 L 230.71 304.81 L 230.76 304.72 L 230.92 304.37 L 231.47 304.29 L 231.72 303.37 L 232.12 303.37 L 232.21 303.35 L 232.30 302.73 L 232.99 299.17 L 233.07 299.17 L 233.22 299.14 L 233.37 299.09 L 233.45 298.70 L 233.83 297.36 L 233.97 297.12 L 234.03 297.10 L 234.12 296.48 L 234.29 295.60 L 234.36 294.68 L 234.54 294.27 L 235.06 289.64 L 235.11 289.18 L 235.16 289.18 L 235.24 289.09 L 235.36 288.98 L 235.41 288.93 L 235.46 288.88 L 235.71 287.77 L 235.77 286.99 L 236.07 286.84 L 236.25 285.67 L 236.37 284.94 L 237.29 274.16 L 237.40 274.13 L 272.50 273.62 L 272.53 273.62 L 285.95 273.47 L 286.68 273.18 L 286.83 273.18 L 287.02 273.10 L 287.09 272.96 L 287.17 272.92 L 292.99 272.85 L 293.75 270.80 L 294.04 270.61 L 294.19 269.86 L 297.81 269.71 L 297.84 269.50 L 298.06 269.48 L 299.15 268.19 L 299.21 267.95 L 299.34 267.87 L 299.72 267.78 L 299.77 267.75 L 299.93 267.36 L 300.09 267.25 L 300.12 266.96 L 311.39 266.57 L 311.47 265.46 L 311.92 265.22 L 311.93 263.37 L 312.01 263.10 L 312.10 262.65 L 312.23 261.37 L 312.42 260.69 L 312.58 259.90 L 312.72 259.90 L 312.78 259.29 L 313.01 259.24 L 313.79 256.26 L 314.10 255.94 L 314.16 255.75 L 314.22 255.75 L 314.26 255.54 L 314.37 254.81 L 314.69 254.46 L 314.74 254.42 L 314.93 251.80 L 315.01 251.79 L 315.04 251.51 L 315.11 251.29 L 315.16 251.29 L 315.20 250.90 L 315.45 249.48 L 315.55 249.07 L 315.69 249.02 L 315.79 245.24 L 315.83 244.93 L 316.07 242.77 L 316.14 242.60 L 316.19 242.59 L 316.25 242.59 L 316.29 242.28 L 316.32 242.29 L 316.34 242.29 L 316.47 238.46 L 316.51 238.13 L 316.63 238.11 L 316.72 238.04 L 316.97 237.93 L 317.28 237.79 L 317.29 237.79 L 317.38 237.74 L 317.67 237.67 L 317.80 237.67 L 317.94 237.67 L 318.09 236.00 L 318.18 235.60 L 318.58 235.60 L 318.62 235.33 L 318.67 235.33 L 318.70 235.05 L 318.96 232.63 L 319.00 232.58 L 319.20 232.56 L 336.54 232.49 L 337.53 232.37 L 337.56 232.37 L 337.76 232.37 L 337.77 232.37 L 337.90 231.89 L 337.99 231.87 L 338.08 231.63 L 338.20 231.57 L 338.23 231.54 L 338.28 231.52 L 338.46 231.25 L 338.84 231.01 L 339.08 230.24 L 339.34 229.50 L 339.35 229.46 L 339.40 228.77 L 339.43 228.75 L 339.95 228.34 L 339.96 228.29 L 340.04 227.74 L 340.26 227.68 L 340.40 227.63 L 340.43 226.65 L 340.44 226.60 L 340.50 227.53 L 340.54 226.96 L 340.56 226.94 L 340.69 225.63 L 340.70 225.60 L 340.97 225.49 L 341.71 225.47 L 341.89 225.42 L 341.94 225.41 L 341.98 225.24 L 342.02 225.24 L 342.13 224.60 L 353.98 223.35 L 354.00 223.18 L 354.10 223.06 L 354.13 222.82 L 354.20 211.91 L 354.33 207.44 L 354.34 207.42 L 354.56 207.33 L 354.61 207.33 L 354.65 206.81 L 354.84 206.76 L 355.36 205.71 L 355.37 205.69 L 355.50 205.36 L 355.55 205.37 L 355.58 204.84 L 356.01 204.22 L 356.02 204.20 L 356.66 203.96 L 356.74 203.40 L 356.97 203.41 L 357.24 202.00 L 357.31 201.45 L 357.36 201.00 L 357.48 200.46 L 357.82 200.26 L 357.87 200.13 L 358.02 200.01 L 358.18 200.01 L 358.68 200.01 L 358.74 200.01 L 358.85 199.98 L 358.86 199.98 L 359.02 199.99 L 359.40 199.97 L 359.79 199.76 L 359.85 199.76 L 359.93 199.68 L 360.04 199.53 L 360.34 199.53 L 360.84 199.33 L 361.00 198.90 L 361.28 195.14 L 362.37 198.32 L 362.60 198.30 L 362.78 198.29 L 363.05 198.28 L 363.14 198.22 L 363.41 198.04 L 363.84 197.78 L 363.90 197.61 L 363.98 197.54 L 364.03 197.55 L 364.07 197.50 L 364.41 197.27 L 372.26 197.26 L 372.34 197.27 L 372.83 197.25 L 372.87 197.23 L 372.98 196.76 L 373.07 196.49 L 373.09 196.48 L 373.36 196.44 L 373.42 196.42 L 375.03 195.71 L 375.22 195.65 L 375.36 195.64 L 375.39 195.64 L 375.89 195.47 L 376.06 195.55 L 376.09 195.54 L 376.36 195.50 L 376.65 194.01 L 376.69 194.00 L 376.93 193.83 L 377.03 193.83 L 377.12 193.83 L 377.33 193.67 L 377.77 193.06 L 377.85 193.04 L 377.93 192.88 L 378.11 192.17 L 378.54 191.43 L 378.92 187.97 L 379.00 187.55 L 379.40 187.39 L 379.46 187.30 L 379.53 187.13 L 379.57 186.57 L 379.70 185.58 L 379.73 185.62 L 379.80 185.60 L 380.02 185.59 L 380.36 185.23 L 380.58 185.16 L 380.82 185.14 L 380.93 185.13 L 381.17 185.12 L 381.57 185.12 L 381.96 185.11 L 382.26 185.11 L 382.33 185.09 L 382.41 185.09 L 382.41 184.96 L 382.65 184.89 L 382.71 184.88 L 382.81 184.73 L 383.45 184.71 L 383.46 184.41 L 383.64 184.39 L 384.39 184.40 L 384.89 184.22 L 385.25 184.00 L 385.26 183.88 L 385.29 183.87 L 396.30 183.67 L 396.34 183.66 L 396.46 183.65 L 396.52 183.48 L 396.56 183.46 L 396.57 183.45 L 397.04 183.40 L 397.14 182.78 L 397.28 182.63 L 397.52 181.40 L 397.67 181.39 L 397.86 180.86 L 397.96 180.93 L 398.01 180.92 L 398.07 180.32 L 398.21 179.92 L 398.22 179.48 L 398.27 179.42 L 398.39 179.38 L 398.47 179.18 L 398.57 181.54 L 398.70 181.49 L 398.97 180.55 L 399.09 180.32 L 399.19 180.12 L 399.87 178.77 L 400.45 178.12 L 401.15 176.87 L 401.32 176.81 L 401.52 176.81 L 401.74 176.76 L 405.78 176.40 L 406.12 176.37 L 444.46 175.42 L 565.19 175.20 L 565.59 174.82 L 565.87 174.76 L 566.15 174.76 L 566.57 174.03 L 566.71 173.68 L 566.82 173.02 L 567.01 171.12 L 567.29 171.51 L 567.51 171.10 L 567.57 171.09 L 567.75 170.97 L 567.79 170.97 L 567.99 170.27 L 568.17 169.16 L 568.72 167.98 L 568.74 167.88 L 568.89 166.47 L 569.41 162.98 L 569.43 162.86 L 569.53 162.78 L 569.65 161.53 L 570.22 159.86 L 570.23 159.70 L 570.35 159.62 L 570.48 158.79 L 570.69 158.14 L 570.70 158.02 L 570.80 156.74 L 570.81 156.71 L 570.86 156.35 L 571.10 154.07 L 571.13 153.95 L 571.21 153.81 L 571.47 153.51 L 571.52 153.50 L 571.72 153.07 L 572.06 153.12 L 572.11 153.06 L 572.15 153.03 L 572.21 153.00 L 572.38 151.66 L 572.56 150.57 L 572.58 150.48 L 572.68 149.12 L 572.78 147.79 L 572.81 147.62 L 572.91 146.07 L 572.96 144.84 L 573.17 144.02 L 573.20 143.96 L 573.30 143.70 L 573.45 143.68 L 574.32 143.65 L 574.75 143.61 L 584.18 143.66 L 584.28 143.42 L 584.37 143.22 L 584.53 142.30 L 584.88 142.07 L 584.91 141.98 L 584.98 140.77 L 585.20 139.59 L 585.23 139.49 L 587.29 139.41 L 587.41 138.75 L 588.45 138.56 L 588.56 138.51 L 588.68 137.14 L 589.93 135.86 L 590.47 135.37 L 590.60 134.38 L 591.05 132.66 L 591.33 132.17 L 591.79 131.16 L 592.62 130.65 L 605.24 130.64 L 606.00 130.52 L 606.03 130.54 L 607.09 130.34 L 607.14 130.25 L 607.51 130.17 L 607.94 129.05 L 607.95 129.05 L 607.99 129.01 L 608.55 127.73 L 609.85 127.00 L 609.94 126.94 L 610.07 126.93 L 610.27 126.59 L 610.32 126.50 L 610.40 126.44 L 611.00 126.39 L 611.48 126.39 L 611.74 126.39 L 611.78 126.34 L 612.32 125.22 L 612.73 125.01 L 612.75 124.93 L 612.80 124.84 L 612.86 124.54 L 626.56 124.11 L 626.58 124.09 L 626.62 124.07 L 626.89 123.94 L 627.10 123.81 L 628.30 122.09 L 628.60 121.89 L 629.47 121.37 L 630.22 121.25 L 630.77 121.08 L 630.93 119.50 L 631.63 117.65 L 631.88 117.51 L 631.97 116.32 L 634.00 114.12 L 634.02 114.12 L 634.13 113.58 L 634.51 113.52 L 634.52 113.52 L 634.54 113.39 L 634.61 113.22 L 634.79 113.04 L 635.00 112.12 L 637.11 109.89 L 637.38 109.63 L 637.57 109.23 L 637.60 109.18 L 637.64 108.87 L 646.97 107.86 L 647.27 107.10 L 647.45 107.07 L 647.51 106.56 L 648.39 106.32 L 648.58 105.82 L 648.74 105.82 L 648.84 104.75 L 649.13 102.04 L 649.18 101.99 L 649.58 101.95 L 649.66 101.06 L 650.00 100.00"/>
	</g>
	<g id="poloto_plot1" class="poloto_plot poloto_imgs poloto_line poloto1 poloto_stroke" fill="none" stroke="black">
		<path d=" M 150.00 381.03 L 150.03 381.01 L 150.05 381.00 L 150.06 381.00 L 150.08 381.00 L 150.12 380.40 L 150.25 380.38 L 150.54 380.37 L 150.98 380.14 L 151.20 380.04 L 151.65 380.06 L 151.73 380.02 L 151.78 380.02 L 152.30 379.97 L 153.28 379.86 L 153.59 377.52 L 153.67 377.52 L 154.26 377.46 L 154.93 377.45 L 154.94 377.45 L 154.94 377.45 L 164.11 377.45 L 164.17 377.45 L 164.29 377.45 L 164.34 377.42 L 164.69 377.40 L 164.85 377.40 L 165.23 377.40 L 165.29 377.40 L 165.40 377.39 L 165.52 377.39 L 165.55 377.39 L 165.65 377.36 L 165.75 377.36 L 165.85 377.36 L 166.10 377.23 L 166.33 377.23 L 166.37 377.23 L 166.48 377.23 L 167.21 378.11 L 167.22 378.11 L 167.31 378.10 L 167.73 377.97 L 168.06 377.82 L 168.44 377.75 L 168.52 377.71 L 168.53 377.71 L 168.60 377.71 L 168.74 377.71 L 168.92 377.65 L 169.28 377.60 L 169.31 377.60 L 169.37 377.60 L 169.46 377.58 L 169.66 377.58 L 169.69 377.58 L 169.90 377.57 L 169.99 377.57 L 170.06 377.57 L 170.15 377.57 L 171.26 377.46 L 171.53 377.46 L 172.15 377.41 L 172.29 377.41 L 172.38 377.41 L 172.44 377.41 L 172.86 377.34 L 173.05 377.34 L 173.27 377.25 L 173.38 377.24 L 173.64 377.05 L 173.75 376.99 L 173.91 376.99 L 174.05 376.98 L 174.54 374.24 L 174.55 374.19 L 174.58 374.19 L 174.75 373.93 L 183.25 373.93 L 184.12 372.75 L 184.16 372.75 L 185.20 372.75 L 185.28 372.74 L 185.38 372.62 L 185.63 372.60 L 185.75 372.60 L 185.79 372.60 L 185.92 372.60 L 186.23 372.60 L 186.24 372.34 L 186.35 372.33 L 186.47 372.33 L 186.60 372.31 L 186.77 372.30 L 186.83 372.30 L 186.85 372.30 L 187.00 372.30 L 187.02 372.30 L 187.18 372.30 L 187.21 372.30 L 187.45 371.14 L 187.50 371.14 L 187.58 371.00 L 187.68 371.00 L 187.82 371.00 L 187.88 370.98 L 188.36 370.98 L 188.37 370.98 L 188.46 370.91 L 188.68 370.91 L 188.87 370.24 L 188.92 370.16 L 189.02 370.16 L 189.06 370.16 L 189.17 370.14 L 189.70 365.24 L 189.76 365.28 L 189.94 365.28 L 190.00 365.28 L 190.04 365.28 L 190.12 365.28 L 190.21 365.21 L 190.40 365.21 L 190.53 365.21 L 190.64 365.20 L 190.70 365.20 L 191.18 365.19 L 191.44 365.19 L 191.52 365.07 L 191.74 365.07 L 191.76 365.07 L 191.78 365.07 L 191.92 364.74 L 192.03 364.65 L 192.43 363.49 L 192.49 363.49 L 192.57 363.49 L 192.67 363.51 L 192.68 363.51 L 192.73 363.51 L 192.77 363.51 L 192.82 363.51 L 192.87 363.51 L 193.03 363.48 L 193.15 363.48 L 193.26 363.47 L 193.41 363.47 L 193.58 363.46 L 193.75 363.03 L 193.87 362.88 L 194.12 362.88 L 194.13 362.88 L 194.27 362.88 L 206.14 362.88 L 206.36 362.87 L 206.92 362.79 L 207.04 362.78 L 207.13 362.78 L 207.15 362.78 L 207.35 362.78 L 207.49 362.78 L 207.57 362.78 L 207.66 362.78 L 207.70 362.78 L 207.92 362.78 L 208.35 362.80 L 208.45 362.80 L 208.53 362.80 L 208.64 362.80 L 209.19 362.71 L 209.26 362.66 L 209.30 362.66 L 209.34 362.60 L 209.46 362.60 L 209.55 362.59 L 209.95 362.15 L 210.52 362.15 L 210.73 362.15 L 211.36 362.15 L 211.67 359.15 L 211.77 359.15 L 211.90 359.15 L 212.09 359.14 L 212.37 359.14 L 212.78 359.14 L 213.32 359.14 L 213.40 359.14 L 213.79 359.07 L 214.04 358.94 L 214.12 358.94 L 214.28 358.94 L 214.40 358.93 L 215.80 358.74 L 217.13 358.74 L 229.08 358.74 L 229.16 358.74 L 229.22 358.74 L 229.60 358.74 L 230.71 357.79 L 230.76 357.76 L 230.92 357.66 L 231.47 357.66 L 231.72 357.43 L 232.12 357.43 L 232.21 357.43 L 232.30 357.43 L 232.99 354.80 L 233.07 354.80 L 233.22 354.80 L 233.37 354.80 L 233.45 354.63 L 233.83 354.31 L 233.97 354.31 L 234.03 354.31 L 234.12 353.83 L 234.29 353.35 L 234.36 353.35 L 234.54 353.34 L 235.06 349.42 L 235.11 349.42 L 235.16 349.42 L 235.24 349.42 L 235.36 349.42 L 235.41 349.42 L 235.46 349.42 L 235.71 349.42 L 235.77 349.33 L 236.07 349.31 L 236.25 349.26 L 236.37 348.79 L 237.29 340.98 L 237.40 340.98 L 272.50 340.98 L 272.53 340.98 L 285.95 340.98 L 286.68 340.86 L 286.83 340.86 L 287.02 340.86 L 287.09 340.86 L 287.17 340.86 L 292.99 340.80 L 293.75 340.73 L 294.04 340.73 L 294.19 340.70 L 297.81 340.63 L 297.84 340.53 L 298.06 340.53 L 299.15 339.47 L 299.21 339.47 L 299.34 339.47 L 299.72 339.47 L 299.77 339.47 L 299.93 339.47 L 300.09 339.47 L 300.12 339.47 L 311.39 339.46 L 311.47 339.27 L 311.92 339.27 L 311.93 337.99 L 312.01 337.99 L 312.10 337.99 L 312.23 337.88 L 312.42 337.88 L 312.58 337.82 L 312.72 337.82 L 312.78 337.82 L 313.01 337.81 L 313.79 335.64 L 314.10 335.64 L 314.16 335.62 L 314.22 335.62 L 314.26 335.62 L 314.37 335.59 L 314.69 335.32 L 314.74 335.28 L 314.93 333.34 L 315.01 333.33 L 315.04 333.33 L 315.11 333.30 L 315.16 333.30 L 315.20 333.30 L 315.45 332.24 L 315.55 332.23 L 315.69 332.20 L 315.79 328.91 L 315.83 328.91 L 316.07 327.06 L 316.14 327.06 L 316.19 327.05 L 316.25 327.05 L 316.29 327.05 L 316.32 327.05 L 316.34 327.05 L 316.47 323.62 L 316.51 323.62 L 316.63 323.61 L 316.72 323.61 L 316.97 323.54 L 317.28 323.44 L 317.29 323.44 L 317.38 323.42 L 317.67 323.37 L 317.80 323.37 L 317.94 323.37 L 318.09 321.89 L 318.18 321.89 L 318.58 321.88 L 318.62 321.88 L 318.67 321.88 L 318.70 321.88 L 318.96 319.77 L 319.00 319.77 L 319.20 319.75 L 336.54 319.75 L 337.53 319.74 L 337.56 319.74 L 337.76 319.74 L 337.77 319.74 L 337.90 319.74 L 337.99 319.74 L 338.08 319.63 L 338.20 319.63 L 338.23 319.63 L 338.28 319.63 L 338.46 319.44 L 338.84 319.32 L 339.08 319.20 L 339.34 318.60 L 339.35 318.60 L 339.40 318.45 L 339.43 318.43 L 339.95 318.07 L 339.96 318.07 L 340.04 318.02 L 340.26 318.02 L 340.40 317.98 L 340.43 317.10 L 340.44 317.10 L 340.50 317.97 L 340.54 317.92 L 340.56 317.91 L 340.69 316.73 L 340.70 316.73 L 340.97 316.69 L 341.71 316.69 L 341.89 316.69 L 341.94 316.69 L 341.98 316.69 L 342.02 316.69 L 342.13 316.61 L 353.98 315.63 L 354.00 315.63 L 354.10 315.63 L 354.13 315.42 L 354.20 305.00 L 354.33 301.12 L 354.34 301.12 L 354.56 301.05 L 354.61 301.05 L 354.65 301.04 L 354.84 301.04 L 355.36 300.09 L 355.37 300.09 L 355.50 300.04 L 355.55 300.04 L 355.58 299.96 L 356.01 299.39 L 356.02 299.39 L 356.66 299.28 L 356.74 299.24 L 356.97 299.25 L 357.24 297.97 L 357.31 297.84 L 357.36 297.72 L 357.48 297.24 L 357.82 297.12 L 357.87 297.02 L 358.02 297.02 L 358.18 297.02 L 358.68 297.02 L 358.74 297.02 L 358.85 297.02 L 358.86 297.02 L 359.02 297.03 L 359.40 297.03 L 359.79 296.90 L 359.85 296.90 L 359.93 296.88 L 360.04 296.88 L 360.34 296.88 L 360.84 296.88 L 361.00 296.77 L 361.28 293.41 L 362.37 296.58 L 362.60 296.56 L 362.78 296.56 L 363.05 296.56 L 363.14 296.52 L 363.41 296.50 L 363.84 296.31 L 363.90 296.31 L 363.98 296.31 L 364.03 296.31 L 364.07 296.31 L 364.41 296.12 L 372.26 296.12 L 372.34 296.13 L 372.83 296.11 L 372.87 296.11 L 372.98 296.08 L 373.07 295.85 L 373.09 295.84 L 373.36 295.82 L 373.42 295.82 L 375.03 295.62 L 375.22 295.62 L 375.36 295.62 L 375.39 295.62 L 375.89 295.49 L 376.06 295.49 L 376.09 295.49 L 376.36 295.48 L 376.65 294.69 L 376.69 294.69 L 376.93 294.55 L 377.03 294.55 L 377.12 294.55 L 377.33 294.55 L 377.77 294.54 L 377.85 294.52 L 377.93 294.44 L 378.11 294.31 L 378.54 294.19 L 378.92 291.01 L 379.00 290.91 L 379.40 290.76 L 379.46 290.72 L 379.53 290.61 L 379.57 290.38 L 379.70 289.43 L 379.73 289.48 L 379.80 289.46 L 380.02 289.45 L 380.36 289.32 L 380.58 289.27 L 380.82 289.26 L 380.93 289.25 L 381.17 289.23 L 381.57 289.23 L 381.96 289.22 L 382.26 289.22 L 382.33 289.22 L 382.41 289.21 L 382.41 289.21 L 382.65 289.21 L 382.71 289.20 L 382.81 289.08 L 383.45 289.06 L 383.46 289.06 L 383.64 289.05 L 384.39 289.05 L 384.89 288.89 L 385.25 288.76 L 385.26 288.76 L 385.29 288.76 L 396.30 288.75 L 396.34 288.75 L 396.46 288.75 L 396.52 288.75 L 396.56 288.74 L 396.57 288.74 L 397.04 288.74 L 397.14 288.72 L 397.28 288.70 L 397.52 288.68 L 397.67 288.68 L 397.86 288.61 L 397.96 288.61 L 398.01 288.61 L 398.07 288.61 L 398.21 288.32 L 398.22 288.32 L 398.27 288.32 L 398.39 288.32 L 398.47 288.32 L 398.57 288.39 L 398.70 288.39 L 398.97 288.37 L 399.09 288.37 L 399.19 288.37 L 399.87 287.44 L 400.45 287.19 L 401.15 286.52 L 401.32 286.52 L 401.52 286.52 L 401.74 286.52 L 405.78 286.44 L 406.12 286.44 L 444.46 286.32 L 565.19 286.15 L 565.59 286.09 L 565.87 286.09 L 566.15 286.09 L 566.57 285.66 L 566.71 285.66 L 566.82 285.66 L 567.01 284.09 L 567.29 284.39 L 567.51 284.37 L 567.57 284.37 L 567.75 284.36 L 567.79 284.36 L 567.99 284.35 L 568.17 284.28 L 568.72 283.29 L 568.74 283.29 L 568.89 283.20 L 569.41 280.01 L 569.43 280.01 L 569.53 280.00 L 569.65 279.95 L 570.22 278.47 L 570.23 278.47 L 570.35 278.47 L 570.48 278.43 L 570.69 277.89 L 570.70 277.89 L 570.80 277.88 L 570.81 277.88 L 570.86 277.58 L 571.10 275.46 L 571.13 275.46 L 571.21 275.46 L 571.47 275.29 L 571.52 275.29 L 571.72 274.94 L 572.06 274.94 L 572.11 274.94 L 572.15 274.94 L 572.21 274.94 L 572.38 274.93 L 572.56 273.97 L 572.58 273.97 L 572.68 273.97 L 572.78 273.25 L 572.81 273.25 L 572.91 272.48 L 572.96 272.43 L 573.17 271.68 L 573.20 271.68 L 573.30 271.68 L 573.45 271.66 L 574.32 271.66 L 574.75 271.66 L 584.18 271.66 L 584.28 271.66 L 584.37 271.66 L 584.53 271.66 L 584.88 271.46 L 584.91 271.46 L 584.98 271.40 L 585.20 270.34 L 585.23 270.34 L 587.29 270.36 L 587.41 270.15 L 588.45 270.15 L 588.56 270.14 L 588.68 270.07 L 589.93 269.20 L 590.47 269.03 L 590.60 268.97 L 591.05 267.32 L 591.33 267.32 L 591.79 267.19 L 592.62 267.19 L 605.24 267.18 L 606.00 267.08 L 606.03 267.10 L 607.09 267.10 L 607.14 267.10 L 607.51 267.10 L 607.94 267.07 L 607.95 267.07 L 607.99 267.07 L 608.55 266.10 L 609.85 266.08 L 609.94 266.08 L 610.07 266.07 L 610.27 266.03 L 610.32 266.00 L 610.40 266.00 L 611.00 265.96 L 611.48 265.96 L 611.74 265.96 L 611.78 265.96 L 612.32 265.94 L 612.73 265.82 L 612.75 265.82 L 612.80 265.82 L 612.86 265.82 L 626.56 265.60 L 626.58 265.60 L 626.62 265.60 L 626.89 265.60 L 627.10 265.60 L 628.30 264.64 L 628.60 264.59 L 629.47 264.51 L 630.22 264.46 L 630.77 264.46 L 630.93 264.46 L 631.63 263.02 L 631.88 262.98 L 631.97 262.93 L 634.00 261.92 L 634.02 261.92 L 634.13 261.91 L 634.51 261.90 L 634.52 261.90 L 634.54 261.90 L 634.61 261.87 L 634.79 261.83 L 635.00 261.71 L 637.11 260.04 L 637.38 259.96 L 637.57 259.96 L 637.60 259.96 L 637.64 259.96 L 646.97 259.96 L 647.27 259.95 L 647.45 259.95 L 647.51 259.95 L 648.39 259.95 L 648.58 259.95 L 648.74 259.95 L 648.84 259.91 L 649.13 257.72 L 649.18 257.71 L 649.58 257.72 L 649.66 257.70 L 650.00 256.85"/>
	</g>
	<g id="poloto_plot2" class="poloto_plot poloto_imgs poloto_line poloto2 poloto_stroke" fill="none" stroke="black">
		<path d=" M 150.00 391.49 L 150.03 391.48 L 150.05 391.48 L 150.06 391.48 L 150.08 391.48 L 150.12 389.30 L 150.25 389.00 L 150.54 389.00 L 150.98 388.98 L 151.20 387.68 L 151.65 387.57 L 151.73 387.53 L 151.78 387.49 L 152.30 386.91 L 153.28 386.45 L 153.59 386.37 L 153.67 386.37 L 154.26 386.34 L 154.93 386.34 L 154.94 386.34 L 154.94 386.34 L 164.11 386.34 L 164.17 386.33 L 164.29 386.31 L 164.34 386.31 L 164.69 386.18 L 164.85 386.14 L 165.23 385.93 L 165.29 385.84 L 165.40 385.65 L 165.52 385.62 L 165.55 385.62 L 165.65 385.58 L 165.75 385.58 L 165.85 385.58 L 166.10 385.37 L 166.33 385.16 L 166.37 385.17 L 166.48 385.05 L 167.21 384.79 L 167.22 384.78 L 167.31 384.70 L 167.73 384.41 L 168.06 384.06 L 168.44 383.91 L 168.52 383.91 L 168.53 383.92 L 168.60 383.72 L 168.74 383.72 L 168.92 383.69 L 169.28 383.55 L 169.31 383.29 L 169.37 383.29 L 169.46 383.17 L 169.66 383.17 L 169.69 383.17 L 169.90 382.78 L 169.99 382.76 L 170.06 382.73 L 170.15 382.55 L 171.26 382.44 L 171.53 382.40 L 172.15 382.14 L 172.29 382.14 L 172.38 382.13 L 172.44 381.93 L 172.86 380.86 L 173.05 380.85 L 173.27 380.53 L 173.38 380.50 L 173.64 380.35 L 173.75 380.30 L 173.91 380.07 L 174.05 379.89 L 174.54 379.89 L 174.55 379.86 L 174.58 379.71 L 174.75 378.68 L 183.25 378.57 L 184.12 378.26 L 184.16 378.22 L 185.20 377.97 L 185.28 377.96 L 185.38 377.77 L 185.63 377.65 L 185.75 377.41 L 185.79 377.21 L 185.92 376.83 L 186.23 376.82 L 186.24 376.82 L 186.35 376.56 L 186.47 376.55 L 186.60 376.27 L 186.77 376.05 L 186.83 375.93 L 186.85 375.93 L 187.00 375.67 L 187.02 375.66 L 187.18 375.43 L 187.21 375.42 L 187.45 375.34 L 187.50 375.34 L 187.58 375.25 L 187.68 375.23 L 187.82 375.23 L 187.88 375.22 L 188.36 374.98 L 188.37 374.99 L 188.46 374.53 L 188.68 374.51 L 188.87 374.37 L 188.92 374.37 L 189.02 374.36 L 189.06 374.33 L 189.17 373.69 L 189.70 373.16 L 189.76 372.86 L 189.94 372.84 L 190.00 372.77 L 190.04 372.75 L 190.12 372.62 L 190.21 372.11 L 190.40 372.04 L 190.53 372.02 L 190.64 371.77 L 190.70 371.76 L 191.18 371.57 L 191.44 371.44 L 191.52 371.32 L 191.74 371.32 L 191.76 371.32 L 191.78 371.29 L 191.92 370.38 L 192.03 370.37 L 192.43 370.24 L 192.49 369.88 L 192.57 369.87 L 192.67 369.72 L 192.68 369.64 L 192.73 369.57 L 192.77 369.54 L 192.82 369.53 L 192.87 369.46 L 193.03 368.44 L 193.15 368.33 L 193.26 368.03 L 193.41 368.01 L 193.58 367.91 L 193.75 367.59 L 193.87 366.70 L 194.12 366.63 L 194.13 366.25 L 194.27 366.16 L 206.14 366.16 L 206.36 366.16 L 206.92 365.74 L 207.04 365.74 L 207.13 365.74 L 207.15 365.63 L 207.35 365.45 L 207.49 365.42 L 207.57 365.31 L 207.66 365.23 L 207.70 365.20 L 207.92 365.14 L 208.35 365.22 L 208.45 364.94 L 208.53 364.87 L 208.64 364.86 L 209.19 364.80 L 209.26 364.75 L 209.30 364.75 L 209.34 364.70 L 209.46 364.65 L 209.55 364.55 L 209.95 364.28 L 210.52 364.17 L 210.73 364.12 L 211.36 363.95 L 211.67 363.54 L 211.77 363.47 L 211.90 363.15 L 212.09 362.73 L 212.37 362.62 L 212.78 362.61 L 213.32 362.59 L 213.40 362.44 L 213.79 362.34 L 214.04 362.20 L 214.12 362.10 L 214.28 362.06 L 214.40 361.78 L 215.80 361.64 L 217.13 361.64 L 229.08 361.61 L 229.16 361.46 L 229.22 361.36 L 229.60 361.20 L 230.71 360.93 L 230.76 360.89 L 230.92 360.69 L 231.47 360.61 L 231.72 360.07 L 232.12 360.06 L 232.21 360.04 L 232.30 359.51 L 232.99 359.02 L 233.07 359.01 L 233.22 358.98 L 233.37 358.94 L 233.45 358.76 L 233.83 357.93 L 233.97 357.72 L 234.03 357.70 L 234.12 357.62 L 234.29 357.29 L 234.36 356.47 L 234.54 356.13 L 235.06 355.94 L 235.11 355.52 L 235.16 355.52 L 235.24 355.44 L 235.36 355.33 L 235.41 355.30 L 235.46 355.26 L 235.71 354.30 L 235.77 353.73 L 236.07 353.62 L 236.25 352.66 L 236.37 352.48 L 237.29 350.97 L 237.40 350.94 L 272.50 350.50 L 272.53 350.50 L 285.95 350.38 L 286.68 350.22 L 286.83 350.22 L 287.02 350.14 L 287.09 350.02 L 287.17 349.99 L 292.99 349.98 L 293.75 348.24 L 294.04 348.09 L 294.19 347.49 L 297.81 347.42 L 297.84 347.36 L 298.06 347.35 L 299.15 347.24 L 299.21 347.04 L 299.34 346.97 L 299.72 346.88 L 299.77 346.86 L 299.93 346.52 L 300.09 346.42 L 300.12 346.17 L 311.39 345.84 L 311.47 345.05 L 311.92 344.84 L 311.93 344.54 L 312.01 344.31 L 312.10 343.94 L 312.23 342.99 L 312.42 342.47 L 312.58 341.79 L 312.72 341.79 L 312.78 341.27 L 313.01 341.23 L 313.79 340.74 L 314.10 340.51 L 314.16 340.36 L 314.22 340.36 L 314.26 340.19 L 314.37 339.60 L 314.69 339.54 L 314.74 339.54 L 314.93 339.15 L 315.01 339.15 L 315.04 338.93 L 315.11 338.79 L 315.16 338.79 L 315.20 338.48 L 315.45 338.29 L 315.55 337.99 L 315.69 337.98 L 315.79 337.81 L 315.83 337.58 L 316.07 337.45 L 316.14 337.31 L 316.19 337.31 L 316.25 337.31 L 316.29 337.07 L 316.32 337.08 L 316.34 337.08 L 316.47 336.99 L 316.51 336.73 L 316.63 336.73 L 316.72 336.66 L 316.97 336.64 L 317.28 336.61 L 317.29 336.61 L 317.38 336.60 L 317.67 336.60 L 317.80 336.60 L 317.94 336.60 L 318.09 336.55 L 318.18 336.24 L 318.58 336.23 L 318.62 336.05 L 318.67 336.04 L 318.70 335.83 L 318.96 335.76 L 319.00 335.71 L 319.20 335.71 L 336.54 335.65 L 337.53 335.56 L 337.56 335.56 L 337.76 335.56 L 337.77 335.56 L 337.90 335.19 L 337.99 335.17 L 338.08 335.07 L 338.20 335.01 L 338.23 334.98 L 338.28 334.96 L 338.46 334.93 L 338.84 334.85 L 339.08 334.35 L 339.34 334.32 L 339.35 334.29 L 339.40 333.87 L 339.43 333.87 L 339.95 333.87 L 339.96 333.83 L 340.04 333.44 L 340.26 333.39 L 340.40 333.37 L 340.43 333.37 L 340.44 333.32 L 340.50 333.29 L 340.54 332.90 L 340.56 332.89 L 340.69 332.89 L 340.70 332.85 L 340.97 332.82 L 341.71 332.80 L 341.89 332.77 L 341.94 332.76 L 341.98 332.63 L 342.02 332.63 L 342.13 332.18 L 353.98 332.04 L 354.00 331.92 L 354.10 331.83 L 354.13 331.81 L 354.20 331.43 L 354.33 331.34 L 354.34 331.31 L 354.56 331.31 L 354.61 331.31 L 354.65 330.93 L 354.84 330.89 L 355.36 330.87 L 355.37 330.85 L 355.50 330.64 L 355.55 330.65 L 355.58 330.30 L 356.01 330.30 L 356.02 330.28 L 356.66 330.19 L 356.74 329.78 L 356.97 329.78 L 357.24 329.77 L 357.31 329.46 L 357.36 329.22 L 357.48 329.22 L 357.82 329.16 L 357.87 329.15 L 358.02 329.05 L 358.18 329.05 L 358.68 329.05 L 358.74 329.05 L 358.85 329.03 L 358.86 329.03 L 359.02 329.03 L 359.40 329.00 L 359.79 328.96 L 359.85 328.95 L 359.93 328.91 L 360.04 328.80 L 360.34 328.80 L 360.84 328.66 L 361.00 328.43 L 361.28 328.40 L 362.37 328.15 L 362.60 328.15 L 362.78 328.14 L 363.05 328.13 L 363.14 328.12 L 363.41 327.99 L 363.84 327.97 L 363.90 327.85 L 363.98 327.80 L 364.03 327.81 L 364.07 327.77 L 364.41 327.75 L 372.26 327.75 L 372.34 327.75 L 372.83 327.75 L 372.87 327.73 L 372.98 327.38 L 373.07 327.37 L 373.09 327.37 L 373.36 327.36 L 373.42 327.34 L 375.03 326.82 L 375.22 326.77 L 375.36 326.76 L 375.39 326.75 L 375.89 326.74 L 376.06 326.82 L 376.09 326.81 L 376.36 326.78 L 376.65 326.29 L 376.69 326.28 L 376.93 326.26 L 377.03 326.26 L 377.12 326.26 L 377.33 326.16 L 377.77 325.72 L 377.85 325.72 L 377.93 325.65 L 378.11 325.25 L 378.54 324.80 L 378.92 324.83 L 379.00 324.60 L 379.40 324.60 L 379.46 324.57 L 379.53 324.54 L 379.57 324.31 L 379.70 324.30 L 379.73 324.30 L 379.80 324.30 L 380.02 324.30 L 380.36 324.11 L 380.58 324.09 L 380.82 324.09 L 380.93 324.09 L 381.17 324.09 L 381.57 324.09 L 381.96 324.09 L 382.26 324.09 L 382.33 324.09 L 382.41 324.08 L 382.41 324.00 L 382.65 323.94 L 382.71 323.94 L 382.81 323.93 L 383.45 323.92 L 383.46 323.69 L 383.64 323.69 L 384.39 323.70 L 384.89 323.69 L 385.25 323.64 L 385.26 323.55 L 385.29 323.55 L 396.30 323.39 L 396.34 323.39 L 396.46 323.38 L 396.52 323.24 L 396.56 323.24 L 396.57 323.23 L 397.04 323.18 L 397.14 322.71 L 397.28 322.61 L 397.52 321.69 L 397.67 321.68 L 397.86 321.28 L 397.96 321.33 L 398.01 321.33 L 398.07 320.82 L 398.21 320.74 L 398.22 320.39 L 398.27 320.34 L 398.39 320.30 L 398.47 320.13 L 398.57 322.20 L 398.70 322.17 L 398.97 321.33 L 399.09 321.15 L 399.19 320.97 L 399.87 320.64 L 400.45 320.29 L 401.15 319.80 L 401.32 319.75 L 401.52 319.75 L 401.74 319.70 L 405.78 319.46 L 406.12 319.43 L 444.46 318.79 L 565.19 318.77 L 565.59 318.47 L 565.87 318.43 L 566.15 318.43 L 566.57 318.17 L 566.71 317.86 L 566.82 317.29 L 567.01 317.14 L 567.29 317.19 L 567.51 316.86 L 567.57 316.85 L 567.75 316.75 L 567.79 316.75 L 567.99 316.20 L 568.17 315.35 L 568.72 315.27 L 568.74 315.18 L 568.89 314.08 L 569.41 314.04 L 569.43 313.93 L 569.53 313.87 L 569.65 312.88 L 570.22 312.83 L 570.23 312.68 L 570.35 312.62 L 570.48 311.96 L 570.69 311.94 L 570.70 311.84 L 570.80 310.75 L 570.81 310.72 L 570.86 310.69 L 571.10 310.69 L 571.13 310.58 L 571.21 310.50 L 571.47 310.40 L 571.52 310.39 L 571.72 310.34 L 572.06 310.38 L 572.11 310.33 L 572.15 310.30 L 572.21 310.27 L 572.38 309.14 L 572.56 309.12 L 572.58 309.02 L 572.68 307.87 L 572.78 307.45 L 572.81 307.30 L 572.91 306.74 L 572.96 305.76 L 573.17 305.75 L 573.20 305.70 L 573.30 305.50 L 573.45 305.49 L 574.32 305.46 L 574.75 305.44 L 584.18 305.48 L 584.28 305.26 L 584.37 305.10 L 584.53 304.32 L 584.88 304.30 L 584.91 304.23 L 584.98 303.24 L 585.20 303.24 L 585.23 303.14 L 587.29 303.04 L 587.41 302.69 L 588.45 302.51 L 588.56 302.48 L 588.68 301.38 L 589.93 301.07 L 590.47 300.81 L 590.60 299.99 L 591.05 299.99 L 591.33 299.53 L 591.79 298.82 L 592.62 298.40 L 605.24 298.40 L 606.00 298.38 L 606.03 298.38 L 607.09 298.23 L 607.14 298.14 L 607.51 298.07 L 607.94 297.15 L 607.95 297.15 L 607.99 297.12 L 608.55 296.92 L 609.85 296.31 L 609.94 296.25 L 610.07 296.24 L 610.27 295.99 L 610.32 295.95 L 610.40 295.90 L 611.00 295.90 L 611.48 295.90 L 611.74 295.90 L 611.78 295.86 L 612.32 294.92 L 612.73 294.84 L 612.75 294.77 L 612.80 294.68 L 612.86 294.45 L 626.56 294.28 L 626.58 294.25 L 626.62 294.24 L 626.89 294.12 L 627.10 294.01 L 628.30 293.48 L 628.60 293.37 L 629.47 292.97 L 630.22 292.91 L 630.77 292.75 L 630.93 291.38 L 631.63 291.15 L 631.88 291.08 L 631.97 290.09 L 634.00 289.14 L 634.02 289.14 L 634.13 288.70 L 634.51 288.66 L 634.52 288.66 L 634.54 288.55 L 634.61 288.43 L 634.79 288.33 L 635.00 287.65 L 637.11 287.30 L 637.38 287.14 L 637.57 286.77 L 637.60 286.74 L 637.64 286.49 L 646.97 285.63 L 647.27 285.01 L 647.45 284.98 L 647.51 284.57 L 648.39 284.40 L 648.58 283.95 L 648.74 283.95 L 648.84 283.03 L 649.13 282.81 L 649.18 282.78 L 649.58 282.73 L 649.66 281.97 L 650.00 281.88"/>
	</g>
	<g class="poloto_legend poloto_imgs poloto_line poloto0 poloto_stroke"><line x1="680" x2="730" y1="81.25" y2="81.25"/></g>
	<g class="poloto_legend poloto_imgs poloto_line poloto1 poloto_stroke"><line x1="680" x2="730" y1="131.25" y2="131.25"/></g>
	<g class="poloto_legend poloto_imgs poloto_line poloto2 poloto_stroke"><line x1="680" x2="730" y1="181.25" y2="181.25"/></g>
	<text class="poloto_legend poloto_text poloto_line poloto0" x="675" y="100">total</text>
	<text class="poloto_legend poloto_text poloto_line poloto1" x="675" y="150">code</text>
	<text class="poloto_legend poloto_text poloto_line poloto2" x="675" y="200">docs</text>
	<text class="poloto_text poloto_name poloto_title" x="400.00" y="37.50">Workspace lines over time</text>
	<text class="poloto_text poloto_name poloto_x" x="400.00" y="640">date (JST)</text>
	<text class="poloto_text poloto_name poloto_y" x="37.50" y="250.00" transform="rotate(-90,37.50,250.00)">lines</text>
	<text class="poloto_text poloto_ticks poloto_y">
		<tspan x="135.00" y="400.00">0</tspan>
		<tspan x="135.00" y="319.07">50K</tspan>
		<tspan x="135.00" y="238.14">100K</tspan>
		<tspan x="135.00" y="157.21">150K</tspan>
	</text>
	<g class="poloto_imgs poloto_ticks poloto_y" stroke="black">
		<line x1="150.00" x2="144.00" y1="400.00" y2="400.00"/>
		<line x1="150.00" x2="144.00" y1="319.07" y2="319.07"/>
		<line x1="150.00" x2="144.00" y1="238.14" y2="238.14"/>
		<line x1="150.00" x2="144.00" y1="157.21" y2="157.21"/>
	</g>
	<g class="poloto_text poloto_ticks poloto_x">
		<text x="228.93" y="430.00" text-anchor="end" transform="rotate(-90 228.93 430.00)">2026-04-24 12:06</text>
		<text x="350.42" y="430.00" text-anchor="end" transform="rotate(-90 350.42 430.00)">2026-04-30 07:00</text>
		<text x="471.91" y="430.00" text-anchor="end" transform="rotate(-90 471.91 430.00)">2026-05-06 01:53</text>
		<text x="593.40" y="430.00" text-anchor="end" transform="rotate(-90 593.40 430.00)">2026-05-11 20:46</text>
	</g>
	<g class="poloto_imgs poloto_ticks poloto_x" stroke="black">
		<line x1="228.93" x2="228.93" y1="400.00" y2="405.00"/>
		<line x1="350.42" x2="350.42" y1="400.00" y2="405.00"/>
		<line x1="471.91" x2="471.91" y1="400.00" y2="405.00"/>
		<line x1="593.40" x2="593.40" y1="400.00" y2="405.00"/>
	</g>
	<path class="poloto_imgs poloto_ticks poloto_x" stroke="black" style="stroke-dasharray:12.149085805591302;stroke-dashoffset:-78.92604997259332;" d=" M 150.00 400.00 L 650.00 400.00"/>
	<path class="poloto_imgs poloto_ticks poloto_y" stroke="black" style="stroke-dasharray:8.09301572742723;stroke-dashoffset:-0;" d=" M 150.00 400.00 L 150.00 100.00"/>
</svg>

