<svg class="poloto" width="800" height="680" viewBox="0 0 800 680" xmlns="http://www.w3.org/2000/svg">
	<style>
.poloto{
  stroke-linecap:round;
  stroke-linejoin:round;
  font-family:Roboto,sans-serif;
  font-size:16px;
}
.poloto_background{fill:AliceBlue;}
.poloto_scatter{stroke-width:7}
.poloto_line{stroke-width:2}
.poloto_text{fill: black;}
.poloto_name{font-size:24px;dominant-baseline:auto;text-anchor:middle;}
.poloto_where{dominant-baseline:middle;text-anchor:start}
.poloto_text.poloto_legend{font-size:20px;dominant-baseline:middle;text-anchor:start;}
.poloto_text.poloto_ticks.poloto_y{dominant-baseline:middle;text-anchor:end}
.poloto_text.poloto_ticks.poloto_x{dominant-baseline:auto;text-anchor:middle}
.poloto_imgs.poloto_ticks{stroke: black;stroke-width:3;fill:none;stroke-dasharray:none}
.poloto_grid{stroke:gray;stroke-width:0.5}

.poloto0.poloto_stroke{stroke:blue;}
.poloto1.poloto_stroke{stroke:red;}
.poloto2.poloto_stroke{stroke:green;}
.poloto3.poloto_stroke{stroke:gold;}
.poloto4.poloto_stroke{stroke:aqua;}
.poloto5.poloto_stroke{stroke:lime;}
.poloto6.poloto_stroke{stroke:orange;}
.poloto7.poloto_stroke{stroke:chocolate;}
.poloto0.poloto_fill{fill:blue;}
.poloto1.poloto_fill{fill:red;}
.poloto2.poloto_fill{fill:green;}
.poloto3.poloto_fill{fill:gold;}
.poloto4.poloto_fill{fill:aqua;}
.poloto5.poloto_fill{fill:lime;}
.poloto6.poloto_fill{fill:orange;}
.poloto7.poloto_fill{fill:chocolate;}
	</style>
	<circle r="1e5" class="poloto_background" fill="white"/>
	<g id="poloto_plot0" class="poloto_plot poloto_imgs poloto_line poloto0 poloto_stroke" fill="none" stroke="black">
		<path d=" M 150.00 369.50 L 150.03 369.47 L 150.04 369.46 L 150.05 369.46 L 150.07 369.46 L 150.10 366.15 L 150.21 365.75 L 150.47 365.73 L 150.84 365.46 L 151.03 363.77 L 151.42 363.67 L 151.48 363.58 L 151.53 363.54 L 151.98 362.72 L 152.82 362.06 L 153.09 359.46 L 153.15 359.46 L 153.66 359.36 L 154.24 359.35 L 154.25 359.35 L 154.25 359.35 L 162.13 359.35 L 162.19 359.34 L 162.29 359.32 L 162.33 359.29 L 162.63 359.14 L 162.77 359.10 L 163.10 358.86 L 163.15 358.75 L 163.24 358.52 L 163.34 358.48 L 163.37 358.48 L 163.46 358.42 L 163.54 358.42 L 163.63 358.42 L 163.85 358.04 L 164.04 357.80 L 164.08 357.80 L 164.17 357.66 L 164.80 358.25 L 164.81 358.25 L 164.89 358.15 L 165.25 357.71 L 165.53 357.18 L 165.86 356.94 L 165.92 356.90 L 165.93 356.90 L 165.99 356.70 L 166.12 356.70 L 166.28 356.62 L 166.58 356.42 L 166.60 356.11 L 166.66 356.11 L 166.73 355.95 L 166.91 355.95 L 166.93 355.95 L 167.11 355.51 L 167.19 355.48 L 167.25 355.45 L 167.33 355.27 L 168.28 355.03 L 168.52 354.98 L 169.05 354.67 L 169.17 354.67 L 169.25 354.65 L 169.29 354.43 L 169.66 353.11 L 169.83 353.09 L 170.02 352.65 L 170.11 352.61 L 170.33 352.24 L 170.43 352.11 L 170.56 351.88 L 170.68 351.67 L 171.10 348.64 L 171.12 348.57 L 171.14 348.39 L 171.28 346.93 L 178.59 346.83 L 179.35 345.17 L 179.37 345.13 L 180.27 344.87 L 180.34 344.86 L 180.42 344.53 L 180.64 344.37 L 180.74 344.08 L 180.78 343.84 L 180.89 343.40 L 181.16 343.39 L 181.16 343.10 L 181.26 342.78 L 181.36 342.77 L 181.47 342.41 L 181.62 342.14 L 181.67 342.01 L 181.69 342.01 L 181.82 341.72 L 181.84 341.72 L 181.98 341.43 L 182.00 341.43 L 182.21 340.06 L 182.25 340.06 L 182.32 339.83 L 182.41 339.82 L 182.53 339.82 L 182.58 339.79 L 182.99 339.53 L 183.00 339.54 L 183.08 338.93 L 183.26 338.92 L 183.42 338.01 L 183.47 337.93 L 183.55 337.92 L 183.59 337.88 L 183.68 337.18 L 184.14 331.24 L 184.19 330.95 L 184.35 330.92 L 184.40 330.85 L 184.43 330.83 L 184.51 330.68 L 184.58 330.00 L 184.74 329.86 L 184.85 329.85 L 184.95 329.55 L 185.00 329.54 L 185.41 329.32 L 185.64 329.16 L 185.70 328.89 L 185.90 328.88 L 185.91 328.88 L 185.93 328.85 L 186.05 327.42 L 186.15 327.34 L 186.49 325.90 L 186.54 325.48 L 186.61 325.47 L 186.70 325.32 L 186.71 325.20 L 186.75 325.14 L 186.78 325.10 L 186.83 325.09 L 186.87 325.02 L 187.01 323.84 L 187.11 323.67 L 187.20 323.32 L 187.33 323.30 L 187.48 323.19 L 187.63 322.36 L 187.73 321.20 L 187.94 321.13 L 187.95 320.70 L 188.07 320.56 L 198.28 320.56 L 198.47 320.55 L 198.95 319.94 L 199.05 319.92 L 199.13 319.92 L 199.15 319.77 L 199.32 319.58 L 199.44 319.55 L 199.51 319.44 L 199.58 319.36 L 199.63 319.31 L 199.81 319.26 L 200.18 319.19 L 200.27 318.87 L 200.34 318.79 L 200.43 318.78 L 200.90 318.62 L 200.97 318.53 L 201.00 318.53 L 201.03 318.41 L 201.13 318.36 L 201.21 318.24 L 201.55 317.47 L 202.05 317.35 L 202.23 317.30 L 202.77 317.10 L 203.03 313.37 L 203.12 313.29 L 203.23 312.92 L 203.39 312.43 L 203.64 312.29 L 203.99 312.28 L 204.45 312.27 L 204.52 312.10 L 204.86 311.93 L 205.08 311.66 L 205.14 311.55 L 205.28 311.51 L 205.38 311.18 L 206.59 310.81 L 207.73 310.81 L 218.01 310.78 L 218.08 310.61 L 218.13 310.51 L 218.45 310.35 L 219.41 309.06 L 219.45 308.98 L 219.59 308.65 L 220.06 308.56 L 220.28 307.69 L 220.62 307.68 L 220.70 307.67 L 220.78 307.07 L 221.37 303.67 L 221.44 303.67 L 221.57 303.64 L 221.70 303.60 L 221.76 303.23 L 222.09 301.95 L 222.21 301.71 L 222.27 301.69 L 222.34 301.10 L 222.49 300.27 L 222.55 299.38 L 222.70 298.99 L 223.15 294.57 L 223.19 294.13 L 223.23 294.13 L 223.30 294.05 L 223.41 293.93 L 223.45 293.89 L 223.50 293.85 L 223.71 292.79 L 223.76 292.04 L 224.02 291.89 L 224.18 290.78 L 224.27 290.08 L 225.07 279.78 L 225.16 279.76 L 255.35 279.26 L 255.38 279.26 L 266.91 279.12 L 267.54 278.84 L 267.67 278.84 L 267.84 278.76 L 267.89 278.63 L 267.96 278.60 L 272.97 278.52 L 273.63 276.57 L 273.87 276.39 L 274.00 275.67 L 277.12 275.52 L 277.14 275.33 L 277.33 275.31 L 278.26 274.07 L 278.32 273.85 L 278.43 273.77 L 278.76 273.68 L 278.80 273.65 L 278.93 273.28 L 279.08 273.18 L 279.10 272.91 L 288.79 272.53 L 288.86 271.47 L 289.25 271.24 L 289.26 269.47 L 289.32 269.21 L 289.40 268.78 L 289.51 267.56 L 289.68 266.92 L 289.81 266.16 L 289.94 266.15 L 289.99 265.57 L 290.19 265.52 L 290.86 262.68 L 291.13 262.38 L 291.17 262.20 L 291.23 262.19 L 291.26 261.99 L 291.36 261.30 L 291.63 260.96 L 291.67 260.92 L 291.84 258.42 L 291.90 258.41 L 291.93 258.14 L 291.99 257.93 L 292.03 257.93 L 292.07 257.56 L 292.28 256.20 L 292.37 255.82 L 292.49 255.77 L 292.57 252.15 L 292.61 251.85 L 292.82 249.79 L 292.88 249.63 L 292.92 249.62 L 292.97 249.62 L 293.01 249.33 L 293.04 249.34 L 293.05 249.33 L 293.16 245.68 L 293.19 245.36 L 293.30 245.34 L 293.37 245.28 L 293.59 245.17 L 293.86 245.03 L 293.87 245.03 L 293.94 244.99 L 294.19 244.92 L 294.31 244.92 L 294.43 244.92 L 294.55 243.33 L 294.63 242.95 L 294.98 242.94 L 295.01 242.69 L 295.05 242.68 L 295.08 242.41 L 295.30 240.11 L 295.34 240.05 L 295.51 240.04 L 310.42 239.97 L 311.27 239.85 L 311.30 239.85 L 311.47 239.85 L 311.48 239.85 L 311.59 239.40 L 311.67 239.38 L 311.74 239.15 L 311.85 239.10 L 311.88 239.06 L 311.92 239.04 L 312.07 238.79 L 312.40 238.56 L 312.60 237.82 L 312.83 237.11 L 312.84 237.08 L 312.88 236.42 L 312.91 236.39 L 313.35 236.00 L 313.36 235.96 L 313.43 235.44 L 313.62 235.38 L 313.74 235.33 L 313.77 234.39 L 313.78 234.35 L 313.83 235.23 L 313.86 234.69 L 313.88 234.67 L 313.99 233.42 L 314.00 233.38 L 314.23 233.28 L 314.87 233.26 L 315.02 233.22 L 315.07 233.21 L 315.10 233.05 L 315.14 233.05 L 315.23 232.43 L 325.42 231.24 L 325.44 231.07 L 325.53 230.96 L 325.55 230.73 L 325.61 220.31 L 325.72 216.04 L 325.73 216.02 L 325.92 215.93 L 325.97 215.93 L 326.00 215.44 L 326.16 215.40 L 326.60 214.39 L 326.61 214.36 L 326.73 214.05 L 326.77 214.06 L 326.79 213.56 L 327.16 212.97 L 327.17 212.94 L 327.73 212.71 L 327.80 212.18 L 327.99 212.19 L 328.23 210.84 L 328.28 210.32 L 328.32 209.89 L 328.43 209.37 L 328.72 209.19 L 328.77 209.06 L 328.90 208.94 L 329.03 208.94 L 329.46 208.94 L 329.51 208.94 L 329.61 208.91 L 329.62 208.91 L 329.76 208.93 L 330.08 208.90 L 330.41 208.70 L 330.46 208.70 L 330.54 208.63 L 330.63 208.48 L 330.89 208.48 L 331.32 208.29 L 331.46 207.88 L 331.70 204.29 L 332.63 207.32 L 332.84 207.31 L 332.99 207.30 L 333.22 207.29 L 333.30 207.23 L 333.53 207.06 L 333.90 206.81 L 333.95 206.65 L 334.02 206.58 L 334.06 206.60 L 334.10 206.55 L 334.39 206.32 L 341.14 206.32 L 341.21 206.32 L 341.63 206.31 L 341.67 206.29 L 341.76 205.83 L 341.84 205.58 L 341.85 205.57 L 342.08 205.54 L 342.14 205.51 L 343.52 204.84 L 343.69 204.78 L 343.81 204.77 L 343.83 204.76 L 344.26 204.60 L 344.41 204.68 L 344.43 204.68 L 344.66 204.63 L 344.92 203.21 L 344.95 203.20 L 345.16 203.04 L 345.24 203.04 L 345.32 203.04 L 345.50 202.88 L 345.87 202.31 L 345.95 202.29 L 346.01 202.13 L 346.17 201.45 L 346.54 200.75 L 346.87 197.44 L 346.94 197.04 L 347.28 196.88 L 347.34 196.80 L 347.39 196.64 L 347.42 196.10 L 347.54 195.15 L 347.57 195.19 L 347.62 195.17 L 347.82 195.17 L 348.11 194.82 L 348.29 194.75 L 348.50 194.74 L 348.60 194.73 L 348.80 194.72 L 349.14 194.72 L 349.48 194.71 L 349.74 194.70 L 349.80 194.69 L 349.87 194.68 L 349.87 194.57 L 350.07 194.50 L 350.13 194.49 L 350.21 194.34 L 350.76 194.32 L 350.77 194.04 L 350.92 194.02 L 351.57 194.03 L 352.00 193.85 L 352.31 193.64 L 352.32 193.53 L 352.35 193.53 L 361.81 193.33 L 361.84 193.32 L 361.95 193.31 L 362.01 193.15 L 362.04 193.13 L 362.05 193.12 L 362.45 193.08 L 362.54 192.48 L 362.66 192.34 L 362.86 191.16 L 362.99 191.15 L 363.15 190.65 L 363.24 190.71 L 363.29 190.71 L 363.33 190.14 L 363.45 189.74 L 363.47 189.33 L 363.51 189.27 L 363.61 189.24 L 363.68 189.04 L 363.76 191.29 L 363.88 191.25 L 364.11 190.35 L 364.21 190.13 L 364.30 189.94 L 364.88 188.65 L 365.38 188.03 L 365.98 186.84 L 366.13 186.78 L 366.30 186.78 L 366.49 186.73 L 369.97 186.39 L 370.26 186.36 L 403.23 185.45 L 507.06 185.24 L 507.40 184.87 L 507.64 184.82 L 507.88 184.82 L 508.24 184.12 L 508.36 183.79 L 508.46 183.16 L 508.62 181.34 L 508.86 181.71 L 509.06 181.32 L 509.10 181.31 L 509.26 181.20 L 509.30 181.20 L 509.47 180.53 L 509.62 179.47 L 510.09 178.34 L 510.11 178.25 L 510.24 176.90 L 510.69 173.56 L 510.70 173.45 L 510.79 173.38 L 510.89 172.18 L 511.38 170.58 L 511.39 170.43 L 511.49 170.36 L 511.60 169.57 L 511.79 168.94 L 511.80 168.82 L 511.88 167.60 L 511.89 167.57 L 511.93 167.23 L 512.14 165.06 L 512.16 164.94 L 512.23 164.81 L 512.45 164.52 L 512.50 164.51 L 512.67 164.10 L 512.96 164.15 L 513.00 164.09 L 513.04 164.06 L 513.09 164.03 L 513.24 162.75 L 513.39 161.71 L 513.41 161.62 L 513.50 160.32 L 513.59 159.05 L 513.61 158.90 L 513.70 157.41 L 513.74 156.24 L 513.92 155.45 L 513.95 155.40 L 514.03 155.15 L 514.16 155.13 L 514.91 155.10 L 515.28 155.06 L 523.39 155.11 L 523.47 154.88 L 523.55 154.69 L 523.69 153.81 L 523.99 153.59 L 524.02 153.50 L 524.07 152.34 L 524.27 151.22 L 524.29 151.13 L 526.06 151.05 L 526.16 150.42 L 527.06 150.23 L 527.16 150.19 L 527.26 148.88 L 528.34 147.66 L 528.80 147.19 L 528.91 146.24 L 529.30 144.60 L 529.54 144.13 L 529.93 143.17 L 530.65 142.68 L 541.50 142.67 L 542.15 142.56 L 542.18 142.58 L 543.09 142.39 L 543.14 142.29 L 543.45 142.22 L 543.82 141.15 L 543.83 141.15 L 543.87 141.11 L 544.35 139.89 L 545.46 139.19 L 545.54 139.13 L 545.65 139.12 L 545.82 138.80 L 545.87 138.72 L 545.93 138.65 L 546.45 138.61 L 546.87 138.61 L 547.09 138.61 L 547.12 138.56 L 547.59 137.50 L 547.94 137.29 L 547.96 137.21 L 548.00 137.13 L 548.05 136.84 L 559.83 136.43 L 559.86 136.41 L 559.89 136.39 L 560.12 136.27 L 560.30 136.14 L 561.33 134.50 L 561.59 134.31 L 562.34 133.82 L 562.98 133.70 L 563.46 133.54 L 563.59 132.03 L 564.19 130.26 L 564.41 130.13 L 564.49 128.99 L 566.23 126.89 L 566.25 126.89 L 566.34 126.38 L 566.67 126.32 L 566.68 126.32 L 566.70 126.19 L 566.76 126.03 L 566.91 125.86 L 567.10 124.98 L 568.90 122.85 L 569.14 122.60 L 569.30 122.22 L 569.33 122.17 L 569.36 121.87 L 577.39 120.91 L 577.64 120.18 L 577.80 120.15 L 577.85 119.67 L 578.61 119.44 L 578.77 118.96 L 578.91 118.96 L 579.00 117.94 L 579.25 115.35 L 579.29 115.30 L 579.63 115.26 L 579.70 114.41 L 579.99 113.40 L 580.05 112.70 L 580.29 112.05 L 580.47 111.71 L 580.60 110.93 L 580.90 110.27 L 580.94 109.53 L 581.32 109.37 L 581.36 109.37 L 581.42 108.42 L 581.50 108.42 L 581.54 108.35 L 581.99 106.59 L 582.64 106.01 L 582.96 106.20 L 584.02 106.12 L 584.05 106.11 L 584.21 106.09 L 584.29 106.07 L 584.41 105.95 L 584.54 105.85 L 584.68 105.66 L 585.00 105.40 L 585.30 105.39 L 586.25 105.21 L 586.29 105.20 L 587.24 105.03 L 587.65 104.93 L 595.77 104.91 L 596.18 104.78 L 596.38 104.69 L 596.47 104.69 L 596.49 104.69 L 596.70 104.67 L 596.79 104.61 L 597.03 104.44 L 597.18 104.41 L 597.71 104.23 L 597.98 103.83 L 598.44 103.77 L 598.56 103.52 L 598.72 103.36 L 598.92 103.16 L 599.62 103.21 L 599.69 103.20 L 600.71 102.71 L 600.87 102.42 L 601.08 102.32 L 601.57 102.09 L 601.80 102.16 L 601.92 102.54 L 602.02 102.51 L 602.16 102.36 L 602.59 101.20 L 603.05 101.08 L 603.46 100.98 L 603.51 100.93 L 603.55 100.60 L 632.92 100.52 L 633.11 100.37 L 650.00 100.00"/>
	</g>
	<g id="poloto_plot1" class="poloto_plot poloto_imgs poloto_line poloto1 poloto_stroke" fill="none" stroke="black">
		<path d=" M 150.00 381.87 L 150.03 381.86 L 150.04 381.85 L 150.05 381.85 L 150.07 381.85 L 150.10 381.27 L 150.21 381.25 L 150.47 381.24 L 150.84 381.03 L 151.03 380.93 L 151.42 380.95 L 151.48 380.91 L 151.53 380.91 L 151.98 380.87 L 152.82 380.76 L 153.09 378.52 L 153.15 378.52 L 153.66 378.47 L 154.24 378.46 L 154.25 378.46 L 154.25 378.46 L 162.13 378.46 L 162.19 378.46 L 162.29 378.46 L 162.33 378.43 L 162.63 378.41 L 162.77 378.41 L 163.10 378.41 L 163.15 378.41 L 163.24 378.40 L 163.34 378.40 L 163.37 378.40 L 163.46 378.37 L 163.54 378.37 L 163.63 378.37 L 163.85 378.25 L 164.04 378.25 L 164.08 378.25 L 164.17 378.25 L 164.80 379.09 L 164.81 379.09 L 164.89 379.08 L 165.25 378.95 L 165.53 378.81 L 165.86 378.75 L 165.92 378.70 L 165.93 378.70 L 165.99 378.70 L 166.12 378.70 L 166.28 378.65 L 166.58 378.60 L 166.60 378.60 L 166.66 378.60 L 166.73 378.58 L 166.91 378.58 L 166.93 378.58 L 167.11 378.57 L 167.19 378.57 L 167.25 378.57 L 167.33 378.57 L 168.28 378.47 L 168.52 378.46 L 169.05 378.42 L 169.17 378.42 L 169.25 378.42 L 169.29 378.42 L 169.66 378.35 L 169.83 378.35 L 170.02 378.27 L 170.11 378.26 L 170.33 378.08 L 170.43 378.01 L 170.56 378.01 L 170.68 378.01 L 171.10 375.39 L 171.12 375.35 L 171.14 375.35 L 171.28 375.09 L 178.59 375.09 L 179.35 373.96 L 179.37 373.96 L 180.27 373.96 L 180.34 373.96 L 180.42 373.84 L 180.64 373.82 L 180.74 373.82 L 180.78 373.82 L 180.89 373.82 L 181.16 373.82 L 181.16 373.58 L 181.26 373.57 L 181.36 373.57 L 181.47 373.54 L 181.62 373.54 L 181.67 373.54 L 181.69 373.54 L 181.82 373.54 L 181.84 373.54 L 181.98 373.54 L 182.00 373.54 L 182.21 372.43 L 182.25 372.43 L 182.32 372.29 L 182.41 372.29 L 182.53 372.29 L 182.58 372.28 L 182.99 372.28 L 183.00 372.28 L 183.08 372.21 L 183.26 372.21 L 183.42 371.57 L 183.47 371.49 L 183.55 371.49 L 183.59 371.49 L 183.68 371.48 L 184.14 366.80 L 184.19 366.83 L 184.35 366.83 L 184.40 366.83 L 184.43 366.83 L 184.51 366.83 L 184.58 366.76 L 184.74 366.76 L 184.85 366.76 L 184.95 366.76 L 185.00 366.76 L 185.41 366.75 L 185.64 366.74 L 185.70 366.63 L 185.90 366.63 L 185.91 366.63 L 185.93 366.63 L 186.05 366.31 L 186.15 366.23 L 186.49 365.12 L 186.54 365.12 L 186.61 365.12 L 186.70 365.14 L 186.71 365.14 L 186.75 365.14 L 186.78 365.14 L 186.83 365.14 L 186.87 365.14 L 187.01 365.11 L 187.11 365.11 L 187.20 365.10 L 187.33 365.10 L 187.48 365.09 L 187.63 364.68 L 187.73 364.54 L 187.94 364.54 L 187.95 364.53 L 188.07 364.53 L 198.28 364.53 L 198.47 364.53 L 198.95 364.45 L 199.05 364.44 L 199.13 364.44 L 199.15 364.44 L 199.32 364.44 L 199.44 364.44 L 199.51 364.44 L 199.58 364.44 L 199.63 364.44 L 199.81 364.44 L 200.18 364.46 L 200.27 364.46 L 200.34 364.46 L 200.43 364.46 L 200.90 364.37 L 200.97 364.33 L 201.00 364.33 L 201.03 364.27 L 201.13 364.27 L 201.21 364.26 L 201.55 363.84 L 202.05 363.84 L 202.23 363.84 L 202.77 363.84 L 203.03 360.97 L 203.12 360.97 L 203.23 360.97 L 203.39 360.97 L 203.64 360.97 L 203.99 360.97 L 204.45 360.97 L 204.52 360.97 L 204.86 360.90 L 205.08 360.78 L 205.14 360.78 L 205.28 360.78 L 205.38 360.76 L 206.59 360.58 L 207.73 360.58 L 218.01 360.58 L 218.08 360.58 L 218.13 360.58 L 218.45 360.58 L 219.41 359.68 L 219.45 359.65 L 219.59 359.55 L 220.06 359.55 L 220.28 359.33 L 220.62 359.34 L 220.70 359.34 L 220.78 359.34 L 221.37 356.82 L 221.44 356.82 L 221.57 356.82 L 221.70 356.82 L 221.76 356.66 L 222.09 356.36 L 222.21 356.36 L 222.27 356.36 L 222.34 355.89 L 222.49 355.43 L 222.55 355.43 L 222.70 355.42 L 223.15 351.67 L 223.19 351.67 L 223.23 351.67 L 223.30 351.67 L 223.41 351.67 L 223.45 351.67 L 223.50 351.67 L 223.71 351.67 L 223.76 351.59 L 224.02 351.58 L 224.18 351.52 L 224.27 351.07 L 225.07 343.62 L 225.16 343.62 L 255.35 343.62 L 255.38 343.62 L 266.91 343.62 L 267.54 343.50 L 267.67 343.50 L 267.84 343.50 L 267.89 343.50 L 267.96 343.50 L 272.97 343.45 L 273.63 343.37 L 273.87 343.37 L 274.00 343.35 L 277.12 343.29 L 277.14 343.19 L 277.33 343.19 L 278.26 342.18 L 278.32 342.18 L 278.43 342.18 L 278.76 342.18 L 278.80 342.18 L 278.93 342.18 L 279.08 342.18 L 279.10 342.18 L 288.79 342.16 L 288.86 341.98 L 289.25 341.98 L 289.26 340.76 L 289.32 340.76 L 289.40 340.76 L 289.51 340.65 L 289.68 340.65 L 289.81 340.60 L 289.94 340.60 L 289.99 340.60 L 290.19 340.58 L 290.86 338.52 L 291.13 338.51 L 291.17 338.50 L 291.23 338.50 L 291.26 338.50 L 291.36 338.47 L 291.63 338.21 L 291.67 338.17 L 291.84 336.32 L 291.90 336.31 L 291.93 336.31 L 291.99 336.28 L 292.03 336.28 L 292.07 336.28 L 292.28 335.27 L 292.37 335.25 L 292.49 335.23 L 292.57 332.09 L 292.61 332.08 L 292.82 330.31 L 292.88 330.31 L 292.92 330.31 L 292.97 330.31 L 293.01 330.31 L 293.04 330.31 L 293.05 330.31 L 293.16 327.03 L 293.19 327.03 L 293.30 327.02 L 293.37 327.02 L 293.59 326.95 L 293.86 326.86 L 293.87 326.86 L 293.94 326.84 L 294.19 326.79 L 294.31 326.79 L 294.43 326.79 L 294.55 325.38 L 294.63 325.38 L 294.98 325.37 L 295.01 325.37 L 295.05 325.37 L 295.08 325.37 L 295.30 323.35 L 295.34 323.35 L 295.51 323.34 L 310.42 323.34 L 311.27 323.33 L 311.30 323.33 L 311.47 323.33 L 311.48 323.33 L 311.59 323.33 L 311.67 323.32 L 311.74 323.22 L 311.85 323.22 L 311.88 323.22 L 311.92 323.22 L 312.07 323.04 L 312.40 322.93 L 312.60 322.81 L 312.83 322.24 L 312.84 322.24 L 312.88 322.09 L 312.91 322.08 L 313.35 321.73 L 313.36 321.73 L 313.43 321.68 L 313.62 321.68 L 313.74 321.64 L 313.77 320.81 L 313.78 320.81 L 313.83 321.63 L 313.86 321.59 L 313.88 321.58 L 313.99 320.45 L 314.00 320.45 L 314.23 320.41 L 314.87 320.41 L 315.02 320.41 L 315.07 320.41 L 315.10 320.41 L 315.14 320.41 L 315.23 320.33 L 325.42 319.40 L 325.44 319.40 L 325.53 319.40 L 325.55 319.19 L 325.61 309.24 L 325.72 305.54 L 325.73 305.54 L 325.92 305.47 L 325.97 305.47 L 326.00 305.46 L 326.16 305.46 L 326.60 304.55 L 326.61 304.55 L 326.73 304.50 L 326.77 304.50 L 326.79 304.43 L 327.16 303.89 L 327.17 303.89 L 327.73 303.77 L 327.80 303.74 L 327.99 303.75 L 328.23 302.53 L 328.28 302.40 L 328.32 302.29 L 328.43 301.83 L 328.72 301.72 L 328.77 301.62 L 328.90 301.62 L 329.03 301.62 L 329.46 301.62 L 329.51 301.62 L 329.61 301.62 L 329.62 301.62 L 329.76 301.63 L 330.08 301.63 L 330.41 301.50 L 330.46 301.50 L 330.54 301.49 L 330.63 301.49 L 330.89 301.49 L 331.32 301.49 L 331.46 301.38 L 331.70 298.17 L 332.63 301.20 L 332.84 301.18 L 332.99 301.18 L 333.22 301.18 L 333.30 301.14 L 333.53 301.12 L 333.90 300.94 L 333.95 300.94 L 334.02 300.94 L 334.06 300.94 L 334.10 300.94 L 334.39 300.76 L 341.14 300.76 L 341.21 300.77 L 341.63 300.75 L 341.67 300.75 L 341.76 300.72 L 341.84 300.50 L 341.85 300.49 L 342.08 300.47 L 342.14 300.47 L 343.52 300.29 L 343.69 300.29 L 343.81 300.29 L 343.83 300.29 L 344.26 300.15 L 344.41 300.15 L 344.43 300.15 L 344.66 300.15 L 344.92 299.39 L 344.95 299.39 L 345.16 299.26 L 345.24 299.26 L 345.32 299.26 L 345.50 299.26 L 345.87 299.25 L 345.95 299.23 L 346.01 299.16 L 346.17 299.03 L 346.54 298.91 L 346.87 295.88 L 346.94 295.78 L 347.28 295.64 L 347.34 295.60 L 347.39 295.49 L 347.42 295.28 L 347.54 294.37 L 347.57 294.41 L 347.62 294.39 L 347.82 294.39 L 348.11 294.26 L 348.29 294.22 L 348.50 294.20 L 348.60 294.19 L 348.80 294.18 L 349.14 294.18 L 349.48 294.17 L 349.74 294.17 L 349.80 294.16 L 349.87 294.16 L 349.87 294.16 L 350.07 294.16 L 350.13 294.15 L 350.21 294.03 L 350.76 294.02 L 350.77 294.02 L 350.92 294.01 L 351.57 294.00 L 352.00 293.85 L 352.31 293.73 L 352.32 293.73 L 352.35 293.72 L 361.81 293.72 L 361.84 293.72 L 361.95 293.72 L 362.01 293.72 L 362.04 293.70 L 362.05 293.70 L 362.45 293.70 L 362.54 293.69 L 362.66 293.67 L 362.86 293.65 L 362.99 293.65 L 363.15 293.58 L 363.24 293.58 L 363.29 293.58 L 363.33 293.58 L 363.45 293.30 L 363.47 293.30 L 363.51 293.30 L 363.61 293.30 L 363.68 293.30 L 363.76 293.37 L 363.88 293.37 L 364.11 293.36 L 364.21 293.36 L 364.30 293.36 L 364.88 292.47 L 365.38 292.23 L 365.98 291.59 L 366.13 291.59 L 366.30 291.59 L 366.49 291.59 L 369.97 291.51 L 370.26 291.51 L 403.23 291.40 L 507.06 291.23 L 507.40 291.18 L 507.64 291.18 L 507.88 291.18 L 508.24 290.76 L 508.36 290.76 L 508.46 290.76 L 508.62 289.27 L 508.86 289.55 L 509.06 289.53 L 509.10 289.53 L 509.26 289.52 L 509.30 289.52 L 509.47 289.52 L 509.62 289.45 L 510.09 288.51 L 510.11 288.51 L 510.24 288.42 L 510.69 285.37 L 510.70 285.37 L 510.79 285.36 L 510.89 285.32 L 511.38 283.90 L 511.39 283.90 L 511.49 283.90 L 511.60 283.86 L 511.79 283.34 L 511.80 283.34 L 511.88 283.33 L 511.89 283.33 L 511.93 283.05 L 512.14 281.03 L 512.16 281.03 L 512.23 281.03 L 512.45 280.86 L 512.50 280.86 L 512.67 280.52 L 512.96 280.52 L 513.00 280.52 L 513.04 280.52 L 513.09 280.52 L 513.24 280.51 L 513.39 279.60 L 513.41 279.60 L 513.50 279.60 L 513.59 278.91 L 513.61 278.91 L 513.70 278.18 L 513.74 278.13 L 513.92 277.41 L 513.95 277.41 L 514.03 277.41 L 514.16 277.40 L 514.91 277.40 L 515.28 277.39 L 523.39 277.39 L 523.47 277.39 L 523.55 277.39 L 523.69 277.39 L 523.99 277.20 L 524.02 277.20 L 524.07 277.14 L 524.27 276.13 L 524.29 276.13 L 526.06 276.15 L 526.16 275.95 L 527.06 275.95 L 527.16 275.94 L 527.26 275.87 L 528.34 275.04 L 528.80 274.88 L 528.91 274.82 L 529.30 273.25 L 529.54 273.25 L 529.93 273.12 L 530.65 273.12 L 541.50 273.11 L 542.15 273.02 L 542.18 273.04 L 543.09 273.04 L 543.14 273.04 L 543.45 273.04 L 543.82 273.00 L 543.83 273.00 L 543.87 273.00 L 544.35 272.08 L 545.46 272.06 L 545.54 272.06 L 545.65 272.05 L 545.82 272.02 L 545.87 271.99 L 545.93 271.99 L 546.45 271.95 L 546.87 271.95 L 547.09 271.94 L 547.12 271.94 L 547.59 271.93 L 547.94 271.82 L 547.96 271.82 L 548.00 271.82 L 548.05 271.82 L 559.83 271.60 L 559.86 271.60 L 559.89 271.60 L 560.12 271.60 L 560.30 271.60 L 561.33 270.69 L 561.59 270.64 L 562.34 270.57 L 562.98 270.52 L 563.46 270.52 L 563.59 270.52 L 564.19 269.14 L 564.41 269.10 L 564.49 269.06 L 566.23 268.09 L 566.25 268.09 L 566.34 268.08 L 566.67 268.07 L 566.68 268.07 L 566.70 268.07 L 566.76 268.04 L 566.91 268.00 L 567.10 267.89 L 568.90 266.30 L 569.14 266.21 L 569.30 266.21 L 569.33 266.21 L 569.36 266.21 L 577.39 266.21 L 577.64 266.20 L 577.80 266.20 L 577.85 266.20 L 578.61 266.20 L 578.77 266.20 L 578.91 266.20 L 579.00 266.17 L 579.25 264.08 L 579.29 264.06 L 579.63 264.07 L 579.70 264.06 L 579.99 263.25 L 580.05 263.20 L 580.29 262.68 L 580.47 262.68 L 580.60 262.63 L 580.90 262.14 L 580.94 262.14 L 581.32 260.59 L 581.36 260.59 L 581.42 260.58 L 581.50 260.58 L 581.54 260.58 L 581.99 259.02 L 582.64 258.88 L 582.96 258.88 L 584.02 258.84 L 584.05 258.84 L 584.21 258.84 L 584.29 258.84 L 584.41 258.84 L 584.54 258.84 L 584.68 258.82 L 585.00 258.80 L 585.30 258.80 L 586.25 258.73 L 586.29 258.73 L 587.24 258.69 L 587.65 258.64 L 595.77 258.66 L 596.18 258.58 L 596.38 258.50 L 596.47 258.50 L 596.49 258.50 L 596.70 258.49 L 596.79 258.49 L 597.03 258.49 L 597.18 258.49 L 597.71 258.35 L 597.98 258.06 L 598.44 258.05 L 598.56 257.86 L 598.72 257.77 L 598.92 257.69 L 599.62 257.77 L 599.69 257.77 L 600.71 257.48 L 600.87 257.48 L 601.08 257.48 L 601.57 257.45 L 601.80 257.59 L 601.92 257.59 L 602.02 257.59 L 602.16 257.59 L 602.59 256.92 L 603.05 256.91 L 603.46 256.90 L 603.51 256.90 L 603.55 256.90 L 632.92 256.90 L 633.11 256.85 L 650.00 256.63"/>
	</g>
	<g id="poloto_plot2" class="poloto_plot poloto_imgs poloto_line poloto2 poloto_stroke" fill="none" stroke="black">
		<path d=" M 150.00 391.87 L 150.03 391.86 L 150.04 391.86 L 150.05 391.86 L 150.07 391.86 L 150.10 389.78 L 150.21 389.49 L 150.47 389.49 L 150.84 389.48 L 151.03 388.23 L 151.42 388.12 L 151.48 388.08 L 151.53 388.05 L 151.98 387.49 L 152.82 387.06 L 153.09 386.98 L 153.15 386.98 L 153.66 386.95 L 154.24 386.95 L 154.25 386.95 L 154.25 386.95 L 162.13 386.95 L 162.19 386.94 L 162.29 386.92 L 162.33 386.92 L 162.63 386.80 L 162.77 386.76 L 163.10 386.56 L 163.15 386.47 L 163.24 386.29 L 163.34 386.26 L 163.37 386.26 L 163.46 386.23 L 163.54 386.23 L 163.63 386.23 L 163.85 386.02 L 164.04 385.83 L 164.08 385.83 L 164.17 385.72 L 164.80 385.46 L 164.81 385.46 L 164.89 385.39 L 165.25 385.11 L 165.53 384.77 L 165.86 384.63 L 165.92 384.63 L 165.93 384.63 L 165.99 384.44 L 166.12 384.44 L 166.28 384.42 L 166.58 384.28 L 166.60 384.04 L 166.66 384.04 L 166.73 383.92 L 166.91 383.92 L 166.93 383.92 L 167.11 383.55 L 167.19 383.53 L 167.25 383.50 L 167.33 383.33 L 168.28 383.23 L 168.52 383.19 L 169.05 382.94 L 169.17 382.94 L 169.25 382.93 L 169.29 382.74 L 169.66 381.72 L 169.83 381.70 L 170.02 381.40 L 170.11 381.37 L 170.33 381.23 L 170.43 381.18 L 170.56 380.96 L 170.68 380.79 L 171.10 380.79 L 171.12 380.76 L 171.14 380.62 L 171.28 379.63 L 178.59 379.53 L 179.35 379.23 L 179.37 379.20 L 180.27 378.95 L 180.34 378.95 L 180.42 378.76 L 180.64 378.64 L 180.74 378.42 L 180.78 378.23 L 180.89 377.87 L 181.16 377.86 L 181.16 377.86 L 181.26 377.60 L 181.36 377.60 L 181.47 377.33 L 181.62 377.12 L 181.67 377.01 L 181.69 377.00 L 181.82 376.76 L 181.84 376.75 L 181.98 376.53 L 182.00 376.52 L 182.21 376.44 L 182.25 376.44 L 182.32 376.36 L 182.41 376.34 L 182.53 376.34 L 182.58 376.32 L 182.99 376.10 L 183.00 376.11 L 183.08 375.67 L 183.26 375.65 L 183.42 375.51 L 183.47 375.51 L 183.55 375.51 L 183.59 375.47 L 183.68 374.87 L 184.14 374.35 L 184.19 374.07 L 184.35 374.05 L 184.40 373.98 L 184.43 373.97 L 184.51 373.84 L 184.58 373.36 L 184.74 373.28 L 184.85 373.27 L 184.95 373.03 L 185.00 373.02 L 185.41 372.84 L 185.64 372.72 L 185.70 372.61 L 185.90 372.60 L 185.91 372.60 L 185.93 372.57 L 186.05 371.70 L 186.15 371.69 L 186.49 371.57 L 186.54 371.22 L 186.61 371.22 L 186.70 371.07 L 186.71 370.99 L 186.75 370.93 L 186.78 370.90 L 186.83 370.90 L 186.87 370.83 L 187.01 369.85 L 187.11 369.75 L 187.20 369.46 L 187.33 369.44 L 187.48 369.34 L 187.63 369.04 L 187.73 368.19 L 187.94 368.12 L 187.95 367.76 L 188.07 367.67 L 198.28 367.67 L 198.47 367.67 L 198.95 367.27 L 199.05 367.27 L 199.13 367.27 L 199.15 367.17 L 199.32 366.99 L 199.44 366.96 L 199.51 366.86 L 199.58 366.79 L 199.63 366.75 L 199.81 366.69 L 200.18 366.78 L 200.27 366.51 L 200.34 366.44 L 200.43 366.43 L 200.90 366.38 L 200.97 366.33 L 201.00 366.33 L 201.03 366.28 L 201.13 366.23 L 201.21 366.13 L 201.55 365.88 L 202.05 365.77 L 202.23 365.73 L 202.77 365.56 L 203.03 365.17 L 203.12 365.10 L 203.23 364.79 L 203.39 364.39 L 203.64 364.29 L 203.99 364.28 L 204.45 364.26 L 204.52 364.12 L 204.86 364.02 L 205.08 363.89 L 205.14 363.79 L 205.28 363.75 L 205.38 363.49 L 206.59 363.36 L 207.73 363.36 L 218.01 363.32 L 218.08 363.18 L 218.13 363.08 L 218.45 362.93 L 219.41 362.67 L 219.45 362.63 L 219.59 362.45 L 220.06 362.37 L 220.28 361.86 L 220.62 361.84 L 220.70 361.83 L 220.78 361.32 L 221.37 360.85 L 221.44 360.84 L 221.57 360.81 L 221.70 360.77 L 221.76 360.60 L 222.09 359.81 L 222.21 359.61 L 222.27 359.59 L 222.34 359.51 L 222.49 359.20 L 222.55 358.41 L 222.70 358.09 L 223.15 357.90 L 223.19 357.51 L 223.23 357.51 L 223.30 357.43 L 223.41 357.33 L 223.45 357.30 L 223.50 357.26 L 223.71 356.34 L 223.76 355.80 L 224.02 355.70 L 224.18 354.78 L 224.27 354.60 L 225.07 353.16 L 225.16 353.13 L 255.35 352.71 L 255.38 352.71 L 266.91 352.59 L 267.54 352.44 L 267.67 352.44 L 267.84 352.37 L 267.89 352.25 L 267.96 352.22 L 272.97 352.21 L 273.63 350.55 L 273.87 350.41 L 274.00 349.84 L 277.12 349.77 L 277.14 349.71 L 277.33 349.70 L 278.26 349.60 L 278.32 349.41 L 278.43 349.34 L 278.76 349.26 L 278.80 349.23 L 278.93 348.91 L 279.08 348.82 L 279.10 348.57 L 288.79 348.26 L 288.86 347.50 L 289.25 347.31 L 289.26 347.02 L 289.32 346.79 L 289.40 346.45 L 289.51 345.54 L 289.68 345.03 L 289.81 344.39 L 289.94 344.39 L 289.99 343.89 L 290.19 343.85 L 290.86 343.38 L 291.13 343.16 L 291.17 343.03 L 291.23 343.02 L 291.26 342.86 L 291.36 342.30 L 291.63 342.24 L 291.67 342.24 L 291.84 341.87 L 291.90 341.87 L 291.93 341.66 L 291.99 341.52 L 292.03 341.52 L 292.07 341.23 L 292.28 341.05 L 292.37 340.76 L 292.49 340.75 L 292.57 340.59 L 292.61 340.36 L 292.82 340.24 L 292.88 340.11 L 292.92 340.11 L 292.97 340.11 L 293.01 339.88 L 293.04 339.89 L 293.05 339.89 L 293.16 339.81 L 293.19 339.55 L 293.30 339.55 L 293.37 339.49 L 293.59 339.47 L 293.86 339.44 L 293.87 339.44 L 293.94 339.43 L 294.19 339.43 L 294.31 339.43 L 294.43 339.43 L 294.55 339.39 L 294.63 339.08 L 294.98 339.08 L 295.01 338.90 L 295.05 338.90 L 295.08 338.70 L 295.30 338.63 L 295.34 338.58 L 295.51 338.58 L 310.42 338.52 L 311.27 338.44 L 311.30 338.44 L 311.47 338.44 L 311.48 338.44 L 311.59 338.08 L 311.67 338.07 L 311.74 337.97 L 311.85 337.92 L 311.88 337.88 L 311.92 337.86 L 312.07 337.83 L 312.40 337.76 L 312.60 337.28 L 312.83 337.26 L 312.84 337.22 L 312.88 336.82 L 312.91 336.82 L 313.35 336.82 L 313.36 336.78 L 313.43 336.41 L 313.62 336.36 L 313.74 336.35 L 313.77 336.34 L 313.78 336.30 L 313.83 336.27 L 313.86 335.89 L 313.88 335.88 L 313.99 335.88 L 314.00 335.85 L 314.23 335.82 L 314.87 335.80 L 315.02 335.77 L 315.07 335.76 L 315.10 335.64 L 315.14 335.64 L 315.23 335.21 L 325.42 335.08 L 325.44 334.96 L 325.53 334.87 L 325.55 334.86 L 325.61 334.49 L 325.72 334.40 L 325.73 334.38 L 325.92 334.38 L 325.97 334.38 L 326.00 334.02 L 326.16 333.97 L 326.60 333.96 L 326.61 333.94 L 326.73 333.74 L 326.77 333.75 L 326.79 333.41 L 327.16 333.41 L 327.17 333.39 L 327.73 333.31 L 327.80 332.91 L 327.99 332.91 L 328.23 332.91 L 328.28 332.61 L 328.32 332.39 L 328.43 332.38 L 328.72 332.33 L 328.77 332.31 L 328.90 332.22 L 329.03 332.22 L 329.46 332.22 L 329.51 332.22 L 329.61 332.20 L 329.62 332.20 L 329.76 332.20 L 330.08 332.17 L 330.41 332.13 L 330.46 332.13 L 330.54 332.09 L 330.63 331.98 L 330.89 331.98 L 331.32 331.85 L 331.46 331.62 L 331.70 331.60 L 332.63 331.35 L 332.84 331.35 L 332.99 331.35 L 333.22 331.34 L 333.30 331.33 L 333.53 331.20 L 333.90 331.19 L 333.95 331.08 L 334.02 331.02 L 334.06 331.04 L 334.10 331.00 L 334.39 330.98 L 341.14 330.97 L 341.21 330.97 L 341.63 330.97 L 341.67 330.96 L 341.76 330.62 L 341.84 330.61 L 341.85 330.61 L 342.08 330.60 L 342.14 330.58 L 343.52 330.09 L 343.69 330.04 L 343.81 330.03 L 343.83 330.03 L 344.26 330.02 L 344.41 330.09 L 344.43 330.08 L 344.66 330.05 L 344.92 329.58 L 344.95 329.57 L 345.16 329.56 L 345.24 329.56 L 345.32 329.56 L 345.50 329.46 L 345.87 329.04 L 345.95 329.04 L 346.01 328.97 L 346.17 328.59 L 346.54 328.16 L 346.87 328.19 L 346.94 327.96 L 347.28 327.96 L 347.34 327.94 L 347.39 327.91 L 347.42 327.69 L 347.54 327.68 L 347.57 327.68 L 347.62 327.68 L 347.82 327.68 L 348.11 327.50 L 348.29 327.48 L 348.50 327.48 L 348.60 327.48 L 348.80 327.48 L 349.14 327.48 L 349.48 327.48 L 349.74 327.48 L 349.80 327.48 L 349.87 327.47 L 349.87 327.39 L 350.07 327.34 L 350.13 327.34 L 350.21 327.32 L 350.76 327.32 L 350.77 327.10 L 350.92 327.10 L 351.57 327.10 L 352.00 327.10 L 352.31 327.05 L 352.32 326.96 L 352.35 326.96 L 361.81 326.81 L 361.84 326.81 L 361.95 326.80 L 362.01 326.66 L 362.04 326.66 L 362.05 326.66 L 362.45 326.61 L 362.54 326.17 L 362.66 326.07 L 362.86 325.19 L 362.99 325.18 L 363.15 324.80 L 363.24 324.84 L 363.29 324.84 L 363.33 324.36 L 363.45 324.28 L 363.47 323.94 L 363.51 323.89 L 363.61 323.86 L 363.68 323.70 L 363.76 325.67 L 363.88 325.64 L 364.11 324.85 L 364.21 324.67 L 364.30 324.50 L 364.88 324.18 L 365.38 323.85 L 365.98 323.38 L 366.13 323.33 L 366.30 323.33 L 366.49 323.29 L 369.97 323.06 L 370.26 323.03 L 403.23 322.42 L 507.06 322.39 L 507.40 322.12 L 507.64 322.07 L 507.88 322.07 L 508.24 321.82 L 508.36 321.53 L 508.46 320.98 L 508.62 320.84 L 508.86 320.89 L 509.06 320.57 L 509.10 320.57 L 509.26 320.47 L 509.30 320.47 L 509.47 319.94 L 509.62 319.13 L 510.09 319.05 L 510.11 318.97 L 510.24 317.92 L 510.69 317.88 L 510.70 317.78 L 510.79 317.72 L 510.89 316.77 L 511.38 316.72 L 511.39 316.58 L 511.49 316.52 L 511.60 315.90 L 511.79 315.88 L 511.80 315.77 L 511.88 314.74 L 511.89 314.71 L 511.93 314.68 L 512.14 314.68 L 512.16 314.57 L 512.23 314.50 L 512.45 314.40 L 512.50 314.39 L 512.67 314.34 L 512.96 314.38 L 513.00 314.33 L 513.04 314.31 L 513.09 314.28 L 513.24 313.20 L 513.39 313.18 L 513.41 313.09 L 513.50 311.99 L 513.59 311.59 L 513.61 311.44 L 513.70 310.91 L 513.74 309.97 L 513.92 309.96 L 513.95 309.91 L 514.03 309.72 L 514.16 309.71 L 514.91 309.68 L 515.28 309.66 L 523.39 309.70 L 523.47 309.49 L 523.55 309.34 L 523.69 308.59 L 523.99 308.58 L 524.02 308.50 L 524.07 307.56 L 524.27 307.56 L 524.29 307.47 L 526.06 307.37 L 526.16 307.03 L 527.06 306.87 L 527.16 306.83 L 527.26 305.79 L 528.34 305.49 L 528.80 305.24 L 528.91 304.46 L 529.30 304.45 L 529.54 304.02 L 529.93 303.34 L 530.65 302.94 L 541.50 302.93 L 542.15 302.92 L 542.18 302.92 L 543.09 302.77 L 543.14 302.69 L 543.45 302.62 L 543.82 301.75 L 543.83 301.75 L 543.87 301.71 L 544.35 301.53 L 545.46 300.94 L 545.54 300.88 L 545.65 300.88 L 545.82 300.63 L 545.87 300.59 L 545.93 300.55 L 546.45 300.55 L 546.87 300.55 L 547.09 300.55 L 547.12 300.51 L 547.59 299.62 L 547.94 299.54 L 547.96 299.47 L 548.00 299.38 L 548.05 299.16 L 559.83 299.00 L 559.86 298.98 L 559.89 298.96 L 560.12 298.85 L 560.30 298.74 L 561.33 298.24 L 561.59 298.14 L 562.34 297.75 L 562.98 297.70 L 563.46 297.54 L 563.59 296.23 L 564.19 296.01 L 564.41 295.94 L 564.49 295.00 L 566.23 294.09 L 566.25 294.09 L 566.34 293.67 L 566.67 293.63 L 566.68 293.63 L 566.70 293.52 L 566.76 293.41 L 566.91 293.31 L 567.10 292.67 L 568.90 292.33 L 569.14 292.18 L 569.30 291.83 L 569.33 291.79 L 569.36 291.56 L 577.39 290.74 L 577.64 290.14 L 577.80 290.12 L 577.85 289.72 L 578.61 289.56 L 578.77 289.13 L 578.91 289.13 L 579.00 288.25 L 579.25 288.05 L 579.29 288.02 L 579.63 287.97 L 579.70 287.24 L 579.99 287.15 L 580.05 286.59 L 580.29 286.53 L 580.47 286.20 L 580.60 285.56 L 580.90 285.44 L 580.94 284.79 L 581.32 286.25 L 581.36 286.25 L 581.42 285.42 L 581.50 285.42 L 581.54 285.35 L 581.99 285.28 L 582.64 284.93 L 582.96 285.11 L 584.02 285.08 L 584.05 285.08 L 584.21 285.06 L 584.29 285.04 L 584.41 284.93 L 584.54 284.83 L 584.68 284.67 L 585.00 284.46 L 585.30 284.45 L 586.25 284.35 L 586.29 284.34 L 587.24 284.23 L 587.65 284.17 L 595.77 284.13 L 596.18 284.09 L 596.38 284.09 L 596.47 284.09 L 596.49 284.09 L 596.70 284.07 L 596.79 284.04 L 597.03 283.89 L 597.18 283.86 L 597.71 283.85 L 597.98 283.78 L 598.44 283.74 L 598.56 283.71 L 598.72 283.64 L 598.92 283.54 L 599.62 283.51 L 599.69 283.49 L 600.71 283.33 L 600.87 283.07 L 601.08 282.98 L 601.57 282.82 L 601.80 282.74 L 601.92 283.10 L 602.02 283.09 L 602.16 282.95 L 602.59 282.61 L 603.05 282.52 L 603.46 282.45 L 603.51 282.41 L 603.55 282.16 L 632.92 282.11 L 633.11 282.04 L 650.00 281.97"/>
	</g>
	<g class="poloto_legend poloto_imgs poloto_line poloto0 poloto_stroke"><line x1="680" x2="730" y1="81.25" y2="81.25"/></g>
	<g class="poloto_legend poloto_imgs poloto_line poloto1 poloto_stroke"><line x1="680" x2="730" y1="131.25" y2="131.25"/></g>
	<g class="poloto_legend poloto_imgs poloto_line poloto2 poloto_stroke"><line x1="680" x2="730" y1="181.25" y2="181.25"/></g>
	<text class="poloto_legend poloto_text poloto_line poloto0" x="675" y="100">total</text>
	<text class="poloto_legend poloto_text poloto_line poloto1" x="675" y="150">code</text>
	<text class="poloto_legend poloto_text poloto_line poloto2" x="675" y="200">docs</text>
	<text class="poloto_text poloto_name poloto_title" x="400.00" y="37.50">Workspace lines over time</text>
	<text class="poloto_text poloto_name poloto_x" x="400.00" y="640">date (JST)</text>
	<text class="poloto_text poloto_name poloto_y" x="37.50" y="250.00" transform="rotate(-90,37.50,250.00)">lines</text>
	<text class="poloto_text poloto_ticks poloto_y">
		<tspan x="135.00" y="400.00">0</tspan>
		<tspan x="135.00" y="322.68">50K</tspan>
		<tspan x="135.00" y="245.37">100K</tspan>
		<tspan x="135.00" y="168.05">150K</tspan>
	</text>
	<g class="poloto_imgs poloto_ticks poloto_y" stroke="black">
		<line x1="150.00" x2="144.00" y1="400.00" y2="400.00"/>
		<line x1="150.00" x2="144.00" y1="322.68" y2="322.68"/>
		<line x1="150.00" x2="144.00" y1="245.37" y2="245.37"/>
		<line x1="150.00" x2="144.00" y1="168.05" y2="168.05"/>
	</g>
	<g class="poloto_text poloto_ticks poloto_x">
		<text x="217.88" y="430.00" text-anchor="end" transform="rotate(-90 217.88 430.00)">2026-04-24 12:06</text>
		<text x="322.36" y="430.00" text-anchor="end" transform="rotate(-90 322.36 430.00)">2026-04-30 07:00</text>
		<text x="426.84" y="430.00" text-anchor="end" transform="rotate(-90 426.84 430.00)">2026-05-06 01:53</text>
		<text x="531.32" y="430.00" text-anchor="end" transform="rotate(-90 531.32 430.00)">2026-05-11 20:46</text>
		<text x="635.80" y="430.00" text-anchor="end" transform="rotate(-90 635.80 430.00)">2026-05-17 15:40</text>
	</g>
	<g class="poloto_imgs poloto_ticks poloto_x" stroke="black">
		<line x1="217.88" x2="217.88" y1="400.00" y2="405.00"/>
		<line x1="322.36" x2="322.36" y1="400.00" y2="405.00"/>
		<line x1="426.84" x2="426.84" y1="400.00" y2="405.00"/>
		<line x1="531.32" x2="531.32" y1="400.00" y2="405.00"/>
		<line x1="635.80" x2="635.80" y1="400.00" y2="405.00"/>
	</g>
	<path class="poloto_imgs poloto_ticks poloto_x" stroke="black" style="stroke-dasharray:10.44801943164446;stroke-dashoffset:-67.8751403169008;" d=" M 150.00 400.00 L 650.00 400.00"/>
	<path class="poloto_imgs poloto_ticks poloto_y" stroke="black" style="stroke-dasharray:7.731560228854183;stroke-dashoffset:-0;" d=" M 150.00 400.00 L 150.00 100.00"/>
</svg>

