<svg class="poloto" width="800" height="680" viewBox="0 0 800 680" xmlns="http://www.w3.org/2000/svg">
	<style>
.poloto{
  stroke-linecap:round;
  stroke-linejoin:round;
  font-family:Roboto,sans-serif;
  font-size:16px;
}
.poloto_background{fill:AliceBlue;}
.poloto_scatter{stroke-width:7}
.poloto_line{stroke-width:2}
.poloto_text{fill: black;}
.poloto_name{font-size:24px;dominant-baseline:auto;text-anchor:middle;}
.poloto_where{dominant-baseline:middle;text-anchor:start}
.poloto_text.poloto_legend{font-size:20px;dominant-baseline:middle;text-anchor:start;}
.poloto_text.poloto_ticks.poloto_y{dominant-baseline:middle;text-anchor:end}
.poloto_text.poloto_ticks.poloto_x{dominant-baseline:auto;text-anchor:middle}
.poloto_imgs.poloto_ticks{stroke: black;stroke-width:3;fill:none;stroke-dasharray:none}
.poloto_grid{stroke:gray;stroke-width:0.5}

.poloto0.poloto_stroke{stroke:blue;}
.poloto1.poloto_stroke{stroke:red;}
.poloto2.poloto_stroke{stroke:green;}
.poloto3.poloto_stroke{stroke:gold;}
.poloto4.poloto_stroke{stroke:aqua;}
.poloto5.poloto_stroke{stroke:lime;}
.poloto6.poloto_stroke{stroke:orange;}
.poloto7.poloto_stroke{stroke:chocolate;}
.poloto0.poloto_fill{fill:blue;}
.poloto1.poloto_fill{fill:red;}
.poloto2.poloto_fill{fill:green;}
.poloto3.poloto_fill{fill:gold;}
.poloto4.poloto_fill{fill:aqua;}
.poloto5.poloto_fill{fill:lime;}
.poloto6.poloto_fill{fill:orange;}
.poloto7.poloto_fill{fill:chocolate;}
	</style>
	<circle r="1e5" class="poloto_background" fill="white"/>
	<g id="poloto_plot0" class="poloto_plot poloto_imgs poloto_line poloto0 poloto_stroke" fill="none" stroke="black">
		<path d=" M 150.00 372.40 L 150.02 372.37 L 150.04 372.36 L 150.04 372.36 L 150.06 372.36 L 150.09 369.36 L 150.19 369.00 L 150.42 368.99 L 150.76 368.74 L 150.93 367.22 L 151.27 367.12 L 151.33 367.04 L 151.38 367.01 L 151.78 366.27 L 152.53 365.66 L 152.77 363.31 L 152.83 363.31 L 153.29 363.22 L 153.81 363.21 L 153.81 363.21 L 153.82 363.21 L 160.89 363.21 L 160.94 363.20 L 161.03 363.19 L 161.07 363.16 L 161.34 363.02 L 161.46 362.99 L 161.76 362.77 L 161.81 362.67 L 161.89 362.46 L 161.98 362.43 L 162.01 362.43 L 162.08 362.37 L 162.16 362.37 L 162.24 362.37 L 162.43 362.02 L 162.61 361.81 L 162.64 361.81 L 162.72 361.68 L 163.28 362.22 L 163.30 362.22 L 163.37 362.13 L 163.69 361.73 L 163.95 361.25 L 164.24 361.04 L 164.30 361.00 L 164.30 361.00 L 164.36 360.81 L 164.47 360.81 L 164.61 360.75 L 164.89 360.56 L 164.91 360.28 L 164.96 360.28 L 165.02 360.14 L 165.18 360.14 L 165.20 360.14 L 165.37 359.74 L 165.43 359.71 L 165.49 359.68 L 165.56 359.52 L 166.42 359.30 L 166.62 359.26 L 167.10 358.97 L 167.21 358.98 L 167.28 358.96 L 167.32 358.76 L 167.65 357.57 L 167.80 357.55 L 167.97 357.15 L 168.05 357.11 L 168.25 356.78 L 168.34 356.66 L 168.46 356.45 L 168.57 356.26 L 168.95 353.52 L 168.96 353.46 L 168.98 353.29 L 169.11 351.97 L 175.67 351.88 L 176.35 350.38 L 176.37 350.34 L 177.17 350.11 L 177.24 350.10 L 177.32 349.80 L 177.51 349.65 L 177.60 349.40 L 177.63 349.17 L 177.74 348.78 L 177.97 348.77 L 177.98 348.51 L 178.07 348.21 L 178.16 348.21 L 178.26 347.88 L 178.39 347.64 L 178.44 347.52 L 178.46 347.52 L 178.57 347.26 L 178.59 347.26 L 178.71 347.00 L 178.73 346.99 L 178.92 345.75 L 178.95 345.75 L 179.02 345.55 L 179.10 345.54 L 179.20 345.54 L 179.25 345.51 L 179.62 345.28 L 179.63 345.28 L 179.70 344.74 L 179.86 344.72 L 180.01 343.90 L 180.05 343.82 L 180.12 343.82 L 180.16 343.79 L 180.24 343.15 L 180.65 337.77 L 180.70 337.51 L 180.84 337.49 L 180.88 337.42 L 180.91 337.41 L 180.98 337.26 L 181.04 336.65 L 181.19 336.53 L 181.29 336.51 L 181.38 336.25 L 181.42 336.24 L 181.79 336.04 L 181.99 335.89 L 182.05 335.65 L 182.23 335.64 L 182.24 335.64 L 182.26 335.61 L 182.37 334.32 L 182.45 334.24 L 182.76 332.94 L 182.81 332.56 L 182.87 332.55 L 182.95 332.41 L 182.96 332.31 L 182.99 332.25 L 183.02 332.22 L 183.06 332.21 L 183.10 332.14 L 183.22 331.08 L 183.31 330.92 L 183.40 330.61 L 183.52 330.59 L 183.65 330.49 L 183.78 329.73 L 183.87 328.69 L 184.07 328.63 L 184.07 328.24 L 184.18 328.11 L 193.34 328.11 L 193.52 328.10 L 193.95 327.55 L 194.04 327.53 L 194.11 327.53 L 194.13 327.39 L 194.28 327.22 L 194.39 327.19 L 194.45 327.09 L 194.52 327.02 L 194.55 326.98 L 194.72 326.93 L 195.05 326.86 L 195.13 326.58 L 195.19 326.51 L 195.27 326.50 L 195.70 326.35 L 195.76 326.27 L 195.79 326.27 L 195.81 326.17 L 195.91 326.12 L 195.98 326.01 L 196.29 325.31 L 196.73 325.20 L 196.89 325.16 L 197.38 324.98 L 197.61 321.60 L 197.69 321.53 L 197.79 321.20 L 197.94 320.75 L 198.16 320.63 L 198.47 320.62 L 198.89 320.60 L 198.95 320.46 L 199.25 320.30 L 199.45 320.06 L 199.51 319.96 L 199.63 319.92 L 199.72 319.62 L 200.80 319.29 L 201.83 319.29 L 211.06 319.25 L 211.12 319.11 L 211.17 319.01 L 211.46 318.87 L 212.32 317.70 L 212.36 317.63 L 212.48 317.33 L 212.90 317.25 L 213.10 316.46 L 213.40 316.45 L 213.48 316.44 L 213.54 315.90 L 214.08 312.83 L 214.14 312.82 L 214.25 312.80 L 214.37 312.76 L 214.43 312.42 L 214.73 311.27 L 214.83 311.05 L 214.88 311.03 L 214.95 310.50 L 215.08 309.74 L 215.14 308.94 L 215.27 308.59 L 215.67 304.59 L 215.71 304.19 L 215.75 304.19 L 215.81 304.11 L 215.91 304.01 L 215.95 303.98 L 215.99 303.93 L 216.18 302.97 L 216.22 302.30 L 216.46 302.16 L 216.60 301.16 L 216.68 300.53 L 217.40 291.21 L 217.48 291.18 L 244.58 290.74 L 244.61 290.74 L 254.96 290.61 L 255.53 290.35 L 255.64 290.35 L 255.80 290.28 L 255.85 290.17 L 255.91 290.13 L 260.40 290.07 L 260.99 288.29 L 261.21 288.14 L 261.33 287.48 L 264.13 287.35 L 264.14 287.17 L 264.32 287.16 L 265.15 286.04 L 265.20 285.84 L 265.31 285.77 L 265.60 285.69 L 265.64 285.66 L 265.76 285.32 L 265.88 285.23 L 265.90 284.98 L 274.61 284.64 L 274.67 283.69 L 275.02 283.48 L 275.03 281.88 L 275.09 281.64 L 275.16 281.25 L 275.25 280.15 L 275.40 279.56 L 275.53 278.88 L 275.64 278.87 L 275.68 278.35 L 275.86 278.30 L 276.46 275.73 L 276.70 275.45 L 276.75 275.29 L 276.80 275.29 L 276.83 275.11 L 276.91 274.48 L 277.16 274.17 L 277.19 274.13 L 277.34 271.87 L 277.40 271.86 L 277.42 271.62 L 277.48 271.43 L 277.52 271.43 L 277.55 271.09 L 277.74 269.86 L 277.82 269.52 L 277.93 269.47 L 278.00 266.20 L 278.03 265.93 L 278.22 264.06 L 278.28 263.92 L 278.31 263.91 L 278.36 263.91 L 278.39 263.64 L 278.42 263.65 L 278.43 263.65 L 278.53 260.34 L 278.56 260.05 L 278.65 260.04 L 278.72 259.98 L 278.92 259.88 L 279.16 259.76 L 279.17 259.76 L 279.23 259.72 L 279.46 259.66 L 279.56 259.66 L 279.67 259.66 L 279.78 258.22 L 279.85 257.87 L 280.16 257.86 L 280.19 257.64 L 280.23 257.63 L 280.25 257.39 L 280.45 255.30 L 280.49 255.25 L 280.64 255.24 L 294.03 255.18 L 294.79 255.07 L 294.81 255.07 L 294.97 255.07 L 294.98 255.07 L 295.08 254.66 L 295.15 254.64 L 295.21 254.44 L 295.31 254.38 L 295.33 254.36 L 295.37 254.34 L 295.51 254.11 L 295.80 253.90 L 295.99 253.23 L 296.19 252.59 L 296.20 252.56 L 296.23 251.96 L 296.26 251.94 L 296.66 251.59 L 296.67 251.55 L 296.73 251.07 L 296.90 251.02 L 297.01 250.98 L 297.03 250.13 L 297.04 250.09 L 297.09 250.89 L 297.12 250.40 L 297.13 250.38 L 297.23 249.25 L 297.24 249.22 L 297.45 249.12 L 298.02 249.11 L 298.16 249.07 L 298.20 249.06 L 298.23 248.91 L 298.26 248.91 L 298.34 248.35 L 307.50 247.27 L 307.51 247.13 L 307.59 247.02 L 307.61 246.81 L 307.66 237.38 L 307.76 233.52 L 307.77 233.50 L 307.94 233.42 L 307.98 233.42 L 308.01 232.98 L 308.16 232.94 L 308.55 232.02 L 308.57 232.00 L 308.66 231.72 L 308.70 231.73 L 308.72 231.27 L 309.06 230.74 L 309.07 230.72 L 309.57 230.51 L 309.63 230.03 L 309.80 230.04 L 310.01 228.82 L 310.06 228.34 L 310.10 227.95 L 310.19 227.48 L 310.45 227.32 L 310.50 227.20 L 310.61 227.09 L 310.74 227.09 L 311.12 227.09 L 311.17 227.09 L 311.25 227.07 L 311.26 227.07 L 311.39 227.08 L 311.68 227.06 L 311.98 226.88 L 312.02 226.88 L 312.09 226.81 L 312.17 226.68 L 312.40 226.68 L 312.79 226.51 L 312.92 226.13 L 313.13 222.88 L 313.97 225.63 L 314.15 225.62 L 314.29 225.61 L 314.50 225.60 L 314.56 225.55 L 314.77 225.40 L 315.10 225.17 L 315.15 225.02 L 315.21 224.96 L 315.25 224.97 L 315.28 224.93 L 315.54 224.73 L 321.61 224.72 L 321.67 224.73 L 322.04 224.71 L 322.08 224.70 L 322.16 224.28 L 322.23 224.05 L 322.24 224.05 L 322.45 224.01 L 322.50 223.99 L 323.75 223.38 L 323.89 223.33 L 324.00 223.32 L 324.02 223.31 L 324.41 223.17 L 324.54 223.24 L 324.56 223.24 L 324.77 223.20 L 325.00 221.91 L 325.02 221.90 L 325.21 221.76 L 325.29 221.76 L 325.36 221.76 L 325.52 221.61 L 325.86 221.09 L 325.92 221.07 L 325.98 220.93 L 326.12 220.32 L 326.45 219.68 L 326.75 216.69 L 326.81 216.32 L 327.12 216.18 L 327.17 216.10 L 327.22 215.96 L 327.25 215.48 L 327.35 214.62 L 327.38 214.65 L 327.43 214.64 L 327.60 214.63 L 327.86 214.32 L 328.03 214.26 L 328.21 214.24 L 328.30 214.23 L 328.49 214.22 L 328.79 214.22 L 329.10 214.21 L 329.33 214.21 L 329.38 214.20 L 329.44 214.19 L 329.45 214.09 L 329.62 214.03 L 329.68 214.02 L 329.75 213.89 L 330.25 213.87 L 330.25 213.61 L 330.39 213.60 L 330.97 213.60 L 331.36 213.44 L 331.64 213.25 L 331.65 213.15 L 331.67 213.15 L 340.17 212.97 L 340.20 212.96 L 340.29 212.95 L 340.34 212.80 L 340.37 212.79 L 340.38 212.78 L 340.74 212.74 L 340.82 212.20 L 340.93 212.07 L 341.11 211.01 L 341.22 211.00 L 341.37 210.54 L 341.45 210.60 L 341.49 210.60 L 341.53 210.08 L 341.64 209.72 L 341.65 209.35 L 341.69 209.30 L 341.78 209.26 L 341.84 209.09 L 341.92 211.12 L 342.02 211.09 L 342.23 210.28 L 342.32 210.07 L 342.40 209.90 L 342.92 208.74 L 343.37 208.17 L 343.91 207.09 L 344.05 207.04 L 344.20 207.04 L 344.36 206.99 L 347.49 206.69 L 347.75 206.66 L 377.35 205.84 L 470.57 205.64 L 470.88 205.31 L 471.09 205.27 L 471.31 205.27 L 471.63 204.64 L 471.74 204.33 L 471.82 203.76 L 471.97 202.12 L 472.19 202.46 L 472.36 202.10 L 472.40 202.09 L 472.55 201.99 L 472.58 201.99 L 472.73 201.39 L 472.87 200.42 L 473.29 199.40 L 473.31 199.32 L 473.43 198.10 L 473.83 195.08 L 473.84 194.98 L 473.92 194.91 L 474.01 193.83 L 474.45 192.38 L 474.46 192.25 L 474.55 192.18 L 474.65 191.46 L 474.81 190.90 L 474.82 190.79 L 474.89 189.68 L 474.91 189.66 L 474.95 189.35 L 475.13 187.38 L 475.15 187.27 L 475.22 187.16 L 475.41 186.90 L 475.45 186.89 L 475.61 186.51 L 475.87 186.56 L 475.91 186.51 L 475.94 186.48 L 475.99 186.45 L 476.12 185.30 L 476.26 184.36 L 476.28 184.27 L 476.35 183.10 L 476.43 181.95 L 476.45 181.81 L 476.53 180.46 L 476.57 179.40 L 476.73 178.69 L 476.75 178.64 L 476.83 178.42 L 476.94 178.40 L 477.61 178.37 L 477.95 178.33 L 485.23 178.38 L 485.30 178.17 L 485.37 178.00 L 485.50 177.21 L 485.77 177.00 L 485.79 176.92 L 485.84 175.88 L 486.02 174.86 L 486.04 174.78 L 487.63 174.71 L 487.72 174.14 L 488.53 173.97 L 488.61 173.92 L 488.71 172.75 L 489.67 171.64 L 490.09 171.22 L 490.19 170.35 L 490.53 168.87 L 490.75 168.44 L 491.11 167.57 L 491.75 167.13 L 501.49 167.12 L 502.08 167.02 L 502.10 167.04 L 502.92 166.87 L 502.96 166.78 L 503.24 166.71 L 503.58 165.75 L 503.58 165.75 L 503.61 165.71 L 504.05 164.61 L 505.05 163.98 L 505.12 163.92 L 505.22 163.91 L 505.37 163.62 L 505.41 163.54 L 505.47 163.49 L 505.94 163.45 L 506.31 163.45 L 506.51 163.44 L 506.54 163.40 L 506.96 162.44 L 507.28 162.26 L 507.29 162.18 L 507.33 162.11 L 507.37 161.85 L 517.95 161.48 L 517.97 161.46 L 518.00 161.44 L 518.20 161.33 L 518.37 161.22 L 519.30 159.73 L 519.53 159.56 L 520.20 159.11 L 520.78 159.00 L 521.21 158.86 L 521.33 157.49 L 521.86 155.89 L 522.06 155.77 L 522.13 154.74 L 523.69 152.84 L 523.71 152.84 L 523.80 152.38 L 524.09 152.32 L 524.10 152.32 L 524.11 152.21 L 524.17 152.06 L 524.30 151.91 L 524.47 151.11 L 526.09 149.19 L 526.30 148.96 L 526.45 148.61 L 526.47 148.57 L 526.51 148.30 L 533.71 147.43 L 533.94 146.77 L 534.08 146.74 L 534.13 146.30 L 534.81 146.10 L 534.95 145.66 L 535.08 145.66 L 535.15 144.74 L 535.38 142.39 L 535.42 142.36 L 535.72 142.32 L 535.79 141.55 L 536.05 140.63 L 536.10 140.00 L 536.32 139.41 L 536.48 139.10 L 536.60 138.40 L 536.87 137.80 L 536.90 137.13 L 537.25 136.98 L 537.28 136.98 L 537.33 136.13 L 537.40 136.13 L 537.44 136.06 L 537.84 134.47 L 538.43 133.95 L 538.71 134.12 L 539.67 134.04 L 539.69 134.04 L 539.84 134.02 L 539.90 134.00 L 540.01 133.89 L 540.13 133.80 L 540.26 133.63 L 540.54 133.40 L 540.81 133.38 L 541.67 133.22 L 541.71 133.21 L 542.56 133.06 L 542.93 132.96 L 550.21 132.95 L 550.58 132.83 L 550.76 132.75 L 550.84 132.75 L 550.86 132.75 L 551.05 132.73 L 551.13 132.68 L 551.35 132.53 L 551.48 132.50 L 551.95 132.33 L 552.20 131.98 L 552.61 131.92 L 552.72 131.69 L 552.86 131.55 L 553.04 131.37 L 553.67 131.42 L 553.73 131.40 L 554.65 130.96 L 554.79 130.70 L 554.98 130.61 L 555.42 130.40 L 555.63 130.46 L 555.73 130.80 L 555.82 130.78 L 555.95 130.64 L 556.34 129.59 L 556.75 129.48 L 557.12 129.39 L 557.16 129.35 L 557.20 129.05 L 583.56 128.98 L 583.74 128.85 L 598.90 128.51 L 598.98 128.89 L 599.10 127.29 L 599.12 127.29 L 599.16 127.33 L 599.71 124.07 L 599.76 124.04 L 600.43 124.11 L 601.11 123.91 L 601.35 123.61 L 601.78 123.21 L 602.34 122.96 L 602.35 122.96 L 602.43 122.89 L 602.65 122.83 L 602.72 122.67 L 603.27 121.88 L 603.97 121.72 L 604.05 121.56 L 604.41 121.49 L 604.51 122.12 L 604.78 121.89 L 605.01 121.84 L 605.47 121.67 L 605.91 121.58 L 606.13 121.24 L 606.15 121.24 L 615.63 121.22 L 618.61 120.33 L 618.73 119.90 L 618.88 119.50 L 619.36 119.47 L 619.56 119.33 L 619.72 117.24 L 619.81 115.89 L 620.04 115.76 L 620.07 115.74 L 620.40 115.34 L 620.51 115.13 L 620.57 115.03 L 620.75 114.69 L 620.81 114.66 L 620.90 114.62 L 620.97 114.42 L 621.06 114.20 L 621.15 114.08 L 621.22 114.04 L 621.53 113.95 L 621.68 113.71 L 621.80 113.59 L 621.84 112.92 L 622.19 112.79 L 622.32 112.41 L 631.26 112.50 L 631.92 112.26 L 632.03 112.25 L 632.43 111.47 L 632.61 111.37 L 633.36 110.11 L 633.68 109.99 L 634.11 108.84 L 634.17 108.84 L 634.42 108.81 L 634.51 108.15 L 634.85 107.23 L 635.37 106.69 L 635.54 106.02 L 638.70 104.34 L 639.00 103.85 L 639.02 103.85 L 647.42 102.28 L 647.42 102.28 L 647.53 102.22 L 647.63 101.36 L 648.02 100.36 L 648.05 100.36 L 648.50 100.23 L 649.18 100.11 L 649.95 100.07 L 650.00 100.00"/>
	</g>
	<g id="poloto_plot1" class="poloto_plot poloto_imgs poloto_line poloto1 poloto_stroke" fill="none" stroke="black">
		<path d=" M 150.00 383.60 L 150.02 383.58 L 150.04 383.57 L 150.04 383.57 L 150.06 383.57 L 150.09 383.05 L 150.19 383.04 L 150.42 383.03 L 150.76 382.83 L 150.93 382.74 L 151.27 382.76 L 151.33 382.73 L 151.38 382.73 L 151.78 382.69 L 152.53 382.59 L 152.77 380.56 L 152.83 380.56 L 153.29 380.51 L 153.81 380.51 L 153.81 380.51 L 153.82 380.51 L 160.89 380.51 L 160.94 380.51 L 161.03 380.50 L 161.07 380.48 L 161.34 380.46 L 161.46 380.46 L 161.76 380.46 L 161.81 380.46 L 161.89 380.45 L 161.98 380.45 L 162.01 380.45 L 162.08 380.43 L 162.16 380.43 L 162.24 380.43 L 162.43 380.31 L 162.61 380.31 L 162.64 380.31 L 162.72 380.31 L 163.28 381.07 L 163.30 381.07 L 163.37 381.07 L 163.69 380.95 L 163.95 380.82 L 164.24 380.77 L 164.30 380.73 L 164.30 380.73 L 164.36 380.73 L 164.47 380.73 L 164.61 380.68 L 164.89 380.63 L 164.91 380.63 L 164.96 380.63 L 165.02 380.62 L 165.18 380.62 L 165.20 380.62 L 165.37 380.61 L 165.43 380.61 L 165.49 380.61 L 165.56 380.61 L 166.42 380.52 L 166.62 380.51 L 167.10 380.47 L 167.21 380.47 L 167.28 380.47 L 167.32 380.47 L 167.65 380.41 L 167.80 380.41 L 167.97 380.33 L 168.05 380.33 L 168.25 380.16 L 168.34 380.10 L 168.46 380.10 L 168.57 380.10 L 168.95 377.73 L 168.96 377.69 L 168.98 377.69 L 169.11 377.46 L 175.67 377.46 L 176.35 376.44 L 176.37 376.44 L 177.17 376.44 L 177.24 376.44 L 177.32 376.33 L 177.51 376.31 L 177.60 376.31 L 177.63 376.31 L 177.74 376.31 L 177.97 376.31 L 177.98 376.09 L 178.07 376.08 L 178.16 376.08 L 178.26 376.06 L 178.39 376.05 L 178.44 376.05 L 178.46 376.05 L 178.57 376.05 L 178.59 376.05 L 178.71 376.05 L 178.73 376.05 L 178.92 375.05 L 178.95 375.05 L 179.02 374.93 L 179.10 374.93 L 179.20 374.93 L 179.25 374.91 L 179.62 374.91 L 179.63 374.91 L 179.70 374.85 L 179.86 374.85 L 180.01 374.27 L 180.05 374.20 L 180.12 374.20 L 180.16 374.20 L 180.24 374.19 L 180.65 369.95 L 180.70 369.99 L 180.84 369.99 L 180.88 369.99 L 180.91 369.98 L 180.98 369.98 L 181.04 369.92 L 181.19 369.92 L 181.29 369.92 L 181.38 369.91 L 181.42 369.91 L 181.79 369.91 L 181.99 369.90 L 182.05 369.80 L 182.23 369.80 L 182.24 369.80 L 182.26 369.80 L 182.37 369.51 L 182.45 369.44 L 182.76 368.43 L 182.81 368.43 L 182.87 368.43 L 182.95 368.45 L 182.96 368.45 L 182.99 368.45 L 183.02 368.45 L 183.06 368.45 L 183.10 368.45 L 183.22 368.43 L 183.31 368.43 L 183.40 368.42 L 183.52 368.42 L 183.65 368.41 L 183.78 368.03 L 183.87 367.91 L 184.07 367.91 L 184.07 367.90 L 184.18 367.90 L 193.34 367.90 L 193.52 367.90 L 193.95 367.83 L 194.04 367.82 L 194.11 367.82 L 194.13 367.82 L 194.28 367.82 L 194.39 367.82 L 194.45 367.82 L 194.52 367.82 L 194.55 367.82 L 194.72 367.82 L 195.05 367.84 L 195.13 367.84 L 195.19 367.84 L 195.27 367.84 L 195.70 367.76 L 195.76 367.72 L 195.79 367.72 L 195.81 367.67 L 195.91 367.66 L 195.98 367.66 L 196.29 367.28 L 196.73 367.28 L 196.89 367.28 L 197.38 367.28 L 197.61 364.68 L 197.69 364.68 L 197.79 364.68 L 197.94 364.68 L 198.16 364.68 L 198.47 364.68 L 198.89 364.68 L 198.95 364.68 L 199.25 364.61 L 199.45 364.50 L 199.51 364.50 L 199.63 364.50 L 199.72 364.49 L 200.80 364.33 L 201.83 364.33 L 211.06 364.32 L 211.12 364.32 L 211.17 364.32 L 211.46 364.32 L 212.32 363.51 L 212.36 363.48 L 212.48 363.40 L 212.90 363.39 L 213.10 363.20 L 213.40 363.20 L 213.48 363.20 L 213.54 363.20 L 214.08 360.92 L 214.14 360.92 L 214.25 360.92 L 214.37 360.92 L 214.43 360.78 L 214.73 360.50 L 214.83 360.50 L 214.88 360.50 L 214.95 360.08 L 215.08 359.66 L 215.14 359.66 L 215.27 359.66 L 215.67 356.27 L 215.71 356.27 L 215.75 356.27 L 215.81 356.27 L 215.91 356.27 L 215.95 356.27 L 215.99 356.27 L 216.18 356.27 L 216.22 356.19 L 216.46 356.18 L 216.60 356.13 L 216.68 355.72 L 217.40 348.97 L 217.48 348.97 L 244.58 348.97 L 244.61 348.97 L 254.96 348.97 L 255.53 348.87 L 255.64 348.87 L 255.80 348.87 L 255.85 348.87 L 255.91 348.87 L 260.40 348.82 L 260.99 348.75 L 261.21 348.75 L 261.33 348.73 L 264.13 348.68 L 264.14 348.59 L 264.32 348.59 L 265.15 347.67 L 265.20 347.67 L 265.31 347.67 L 265.60 347.67 L 265.64 347.67 L 265.76 347.67 L 265.88 347.67 L 265.90 347.67 L 274.61 347.66 L 274.67 347.50 L 275.02 347.50 L 275.03 346.39 L 275.09 346.39 L 275.16 346.39 L 275.25 346.29 L 275.40 346.29 L 275.53 346.24 L 275.64 346.24 L 275.68 346.24 L 275.86 346.23 L 276.46 344.36 L 276.70 344.35 L 276.75 344.34 L 276.80 344.34 L 276.83 344.34 L 276.91 344.31 L 277.16 344.08 L 277.19 344.05 L 277.34 342.37 L 277.40 342.36 L 277.42 342.36 L 277.48 342.34 L 277.52 342.34 L 277.55 342.33 L 277.74 341.42 L 277.82 341.41 L 277.93 341.39 L 278.00 338.54 L 278.03 338.54 L 278.22 336.94 L 278.28 336.94 L 278.31 336.93 L 278.36 336.93 L 278.39 336.93 L 278.42 336.93 L 278.43 336.93 L 278.53 333.97 L 278.56 333.96 L 278.65 333.95 L 278.72 333.95 L 278.92 333.89 L 279.16 333.81 L 279.17 333.81 L 279.23 333.80 L 279.46 333.75 L 279.56 333.75 L 279.67 333.75 L 279.78 332.47 L 279.85 332.47 L 280.16 332.46 L 280.19 332.46 L 280.23 332.46 L 280.25 332.46 L 280.45 330.64 L 280.49 330.64 L 280.64 330.62 L 294.03 330.62 L 294.79 330.61 L 294.81 330.61 L 294.97 330.61 L 294.98 330.61 L 295.08 330.61 L 295.15 330.61 L 295.21 330.52 L 295.31 330.52 L 295.33 330.52 L 295.37 330.52 L 295.51 330.35 L 295.80 330.25 L 295.99 330.14 L 296.19 329.63 L 296.20 329.63 L 296.23 329.50 L 296.26 329.48 L 296.66 329.17 L 296.67 329.17 L 296.73 329.12 L 296.90 329.12 L 297.01 329.09 L 297.03 328.33 L 297.04 328.33 L 297.09 329.08 L 297.12 329.04 L 297.13 329.03 L 297.23 328.01 L 297.24 328.01 L 297.45 327.97 L 298.02 327.97 L 298.16 327.97 L 298.20 327.97 L 298.23 327.97 L 298.26 327.97 L 298.34 327.90 L 307.50 327.06 L 307.51 327.06 L 307.59 327.05 L 307.61 326.87 L 307.66 317.87 L 307.76 314.52 L 307.77 314.52 L 307.94 314.45 L 307.98 314.45 L 308.01 314.44 L 308.16 314.44 L 308.55 313.62 L 308.57 313.62 L 308.66 313.58 L 308.70 313.58 L 308.72 313.51 L 309.06 313.02 L 309.07 313.02 L 309.57 312.92 L 309.63 312.88 L 309.80 312.89 L 310.01 311.79 L 310.06 311.68 L 310.10 311.57 L 310.19 311.16 L 310.45 311.06 L 310.50 310.97 L 310.61 310.97 L 310.74 310.97 L 311.12 310.97 L 311.17 310.97 L 311.25 310.97 L 311.26 310.97 L 311.39 310.98 L 311.68 310.98 L 311.98 310.86 L 312.02 310.86 L 312.09 310.85 L 312.17 310.85 L 312.40 310.85 L 312.79 310.85 L 312.92 310.75 L 313.13 307.84 L 313.97 310.59 L 314.15 310.57 L 314.29 310.57 L 314.50 310.57 L 314.56 310.53 L 314.77 310.52 L 315.10 310.35 L 315.15 310.35 L 315.21 310.35 L 315.25 310.35 L 315.28 310.35 L 315.54 310.19 L 321.61 310.19 L 321.67 310.19 L 322.04 310.18 L 322.08 310.18 L 322.16 310.15 L 322.23 309.95 L 322.24 309.95 L 322.45 309.93 L 322.50 309.93 L 323.75 309.76 L 323.89 309.76 L 324.00 309.76 L 324.02 309.76 L 324.41 309.64 L 324.54 309.64 L 324.56 309.64 L 324.77 309.64 L 325.00 308.95 L 325.02 308.95 L 325.21 308.83 L 325.29 308.83 L 325.36 308.83 L 325.52 308.83 L 325.86 308.82 L 325.92 308.81 L 325.98 308.74 L 326.12 308.62 L 326.45 308.52 L 326.75 305.78 L 326.81 305.68 L 327.12 305.55 L 327.17 305.52 L 327.22 305.42 L 327.25 305.23 L 327.35 304.41 L 327.38 304.44 L 327.43 304.43 L 327.60 304.42 L 327.86 304.31 L 328.03 304.27 L 328.21 304.26 L 328.30 304.25 L 328.49 304.24 L 328.79 304.24 L 329.10 304.23 L 329.33 304.23 L 329.38 304.22 L 329.44 304.22 L 329.45 304.21 L 329.62 304.21 L 329.68 304.20 L 329.75 304.10 L 330.25 304.09 L 330.25 304.09 L 330.39 304.08 L 330.97 304.08 L 331.36 303.94 L 331.64 303.82 L 331.65 303.82 L 331.67 303.82 L 340.17 303.82 L 340.20 303.82 L 340.29 303.82 L 340.34 303.82 L 340.37 303.81 L 340.38 303.81 L 340.74 303.81 L 340.82 303.80 L 340.93 303.78 L 341.11 303.76 L 341.22 303.76 L 341.37 303.69 L 341.45 303.69 L 341.49 303.69 L 341.53 303.69 L 341.64 303.44 L 341.65 303.44 L 341.69 303.44 L 341.78 303.44 L 341.84 303.44 L 341.92 303.50 L 342.02 303.50 L 342.23 303.49 L 342.32 303.49 L 342.40 303.49 L 342.92 302.69 L 343.37 302.47 L 343.91 301.89 L 344.05 301.89 L 344.20 301.89 L 344.36 301.89 L 347.49 301.82 L 347.75 301.82 L 377.35 301.72 L 470.57 301.57 L 470.88 301.52 L 471.09 301.52 L 471.31 301.52 L 471.63 301.14 L 471.74 301.14 L 471.82 301.14 L 471.97 299.79 L 472.19 300.05 L 472.36 300.03 L 472.40 300.03 L 472.55 300.02 L 472.58 300.02 L 472.73 300.02 L 472.87 299.95 L 473.29 299.10 L 473.31 299.10 L 473.43 299.02 L 473.83 296.26 L 473.84 296.26 L 473.92 296.26 L 474.01 296.21 L 474.45 294.93 L 474.46 294.93 L 474.55 294.93 L 474.65 294.90 L 474.81 294.43 L 474.82 294.43 L 474.89 294.42 L 474.91 294.42 L 474.95 294.16 L 475.13 292.33 L 475.15 292.33 L 475.22 292.33 L 475.41 292.18 L 475.45 292.18 L 475.61 291.88 L 475.87 291.88 L 475.91 291.88 L 475.94 291.88 L 475.99 291.88 L 476.12 291.87 L 476.26 291.04 L 476.28 291.04 L 476.35 291.04 L 476.43 290.41 L 476.45 290.41 L 476.53 289.75 L 476.57 289.71 L 476.73 289.06 L 476.75 289.06 L 476.83 289.06 L 476.94 289.05 L 477.61 289.05 L 477.95 289.04 L 485.23 289.04 L 485.30 289.04 L 485.37 289.04 L 485.50 289.04 L 485.77 288.87 L 485.79 288.87 L 485.84 288.81 L 486.02 287.90 L 486.04 287.90 L 487.63 287.92 L 487.72 287.74 L 488.53 287.74 L 488.61 287.73 L 488.71 287.66 L 489.67 286.91 L 490.09 286.77 L 490.19 286.72 L 490.53 285.29 L 490.75 285.29 L 491.11 285.17 L 491.75 285.17 L 501.49 285.17 L 502.08 285.08 L 502.10 285.10 L 502.92 285.10 L 502.96 285.10 L 503.24 285.10 L 503.58 285.07 L 503.58 285.07 L 503.61 285.07 L 504.05 284.24 L 505.05 284.22 L 505.12 284.21 L 505.22 284.21 L 505.37 284.18 L 505.41 284.15 L 505.47 284.15 L 505.94 284.11 L 506.31 284.11 L 506.51 284.11 L 506.54 284.11 L 506.96 284.10 L 507.28 284.00 L 507.29 284.00 L 507.33 284.00 L 507.37 284.00 L 517.95 283.80 L 517.97 283.80 L 518.00 283.80 L 518.20 283.80 L 518.37 283.80 L 519.30 282.98 L 519.53 282.93 L 520.20 282.87 L 520.78 282.82 L 521.21 282.82 L 521.33 282.82 L 521.86 281.58 L 522.06 281.54 L 522.13 281.50 L 523.69 280.62 L 523.71 280.62 L 523.80 280.61 L 524.09 280.60 L 524.10 280.60 L 524.11 280.60 L 524.17 280.58 L 524.30 280.54 L 524.47 280.44 L 526.09 279.00 L 526.30 278.93 L 526.45 278.93 L 526.47 278.93 L 526.51 278.93 L 533.71 278.93 L 533.94 278.92 L 534.08 278.92 L 534.13 278.92 L 534.81 278.92 L 534.95 278.92 L 535.08 278.92 L 535.15 278.89 L 535.38 276.99 L 535.42 276.98 L 535.72 276.99 L 535.79 276.98 L 536.05 276.24 L 536.10 276.20 L 536.32 275.72 L 536.48 275.72 L 536.60 275.68 L 536.87 275.24 L 536.90 275.24 L 537.25 273.83 L 537.28 273.83 L 537.33 273.82 L 537.40 273.82 L 537.44 273.82 L 537.84 272.41 L 538.43 272.29 L 538.71 272.29 L 539.67 272.25 L 539.69 272.25 L 539.84 272.25 L 539.90 272.25 L 540.01 272.25 L 540.13 272.25 L 540.26 272.23 L 540.54 272.21 L 540.81 272.21 L 541.67 272.15 L 541.71 272.15 L 542.56 272.11 L 542.93 272.08 L 550.21 272.09 L 550.58 272.02 L 550.76 271.95 L 550.84 271.95 L 550.86 271.95 L 551.05 271.94 L 551.13 271.94 L 551.35 271.94 L 551.48 271.93 L 551.95 271.81 L 552.20 271.55 L 552.61 271.53 L 552.72 271.36 L 552.86 271.29 L 553.04 271.21 L 553.67 271.29 L 553.73 271.29 L 554.65 271.02 L 554.79 271.02 L 554.98 271.02 L 555.42 271.00 L 555.63 271.13 L 555.73 271.13 L 555.82 271.13 L 555.95 271.13 L 556.34 270.52 L 556.75 270.50 L 557.12 270.50 L 557.16 270.50 L 557.20 270.50 L 583.56 270.50 L 583.74 270.46 L 598.90 270.25 L 598.98 270.25 L 599.10 270.20 L 599.12 270.20 L 599.16 270.20 L 599.71 267.85 L 599.76 267.85 L 600.43 267.85 L 601.11 267.75 L 601.35 267.51 L 601.78 267.21 L 602.34 267.14 L 602.35 267.14 L 602.43 267.09 L 602.65 267.09 L 602.72 267.04 L 603.27 266.41 L 603.97 266.30 L 604.05 266.30 L 604.41 266.30 L 604.51 266.30 L 604.78 266.15 L 605.01 266.12 L 605.47 265.99 L 605.91 265.92 L 606.13 265.92 L 606.15 265.92 L 615.63 265.92 L 618.61 265.88 L 618.73 265.85 L 618.88 265.57 L 619.36 265.59 L 619.56 265.59 L 619.72 265.59 L 619.81 265.47 L 620.04 265.38 L 620.07 265.37 L 620.40 265.15 L 620.51 264.99 L 620.57 264.94 L 620.75 264.83 L 620.81 264.83 L 620.90 264.82 L 620.97 264.68 L 621.06 264.53 L 621.15 264.50 L 621.22 264.50 L 621.53 264.44 L 621.68 264.33 L 621.80 264.24 L 621.84 264.24 L 622.19 264.24 L 622.32 264.24 L 631.26 264.26 L 631.92 264.24 L 632.03 264.24 L 632.43 263.85 L 632.61 263.79 L 633.36 263.75 L 633.68 263.75 L 634.11 262.81 L 634.17 262.81 L 634.42 262.79 L 634.51 262.77 L 634.85 262.73 L 635.37 262.28 L 635.54 262.27 L 638.70 261.24 L 639.00 261.24 L 639.02 261.24 L 647.42 261.23 L 647.42 261.23 L 647.53 261.23 L 647.63 261.10 L 648.02 260.22 L 648.05 260.22 L 648.50 260.22 L 649.18 260.22 L 649.95 260.22 L 650.00 260.22"/>
	</g>
	<g id="poloto_plot2" class="poloto_plot poloto_imgs poloto_line poloto2 poloto_stroke" fill="none" stroke="black">
		<path d=" M 150.00 392.64 L 150.02 392.64 L 150.04 392.64 L 150.04 392.64 L 150.06 392.64 L 150.09 390.75 L 150.19 390.49 L 150.42 390.49 L 150.76 390.48 L 150.93 389.35 L 151.27 389.25 L 151.33 389.22 L 151.38 389.19 L 151.78 388.68 L 152.53 388.29 L 152.77 388.21 L 152.83 388.22 L 153.29 388.19 L 153.81 388.19 L 153.81 388.19 L 153.82 388.19 L 160.89 388.19 L 160.94 388.18 L 161.03 388.17 L 161.07 388.17 L 161.34 388.05 L 161.46 388.02 L 161.76 387.84 L 161.81 387.76 L 161.89 387.59 L 161.98 387.57 L 162.01 387.57 L 162.08 387.53 L 162.16 387.53 L 162.24 387.54 L 162.43 387.35 L 162.61 387.17 L 162.64 387.17 L 162.72 387.07 L 163.28 386.85 L 163.30 386.84 L 163.37 386.77 L 163.69 386.52 L 163.95 386.22 L 164.24 386.09 L 164.30 386.09 L 164.30 386.09 L 164.36 385.92 L 164.47 385.92 L 164.61 385.90 L 164.89 385.77 L 164.91 385.55 L 164.96 385.55 L 165.02 385.45 L 165.18 385.45 L 165.20 385.45 L 165.37 385.11 L 165.43 385.10 L 165.49 385.07 L 165.56 384.91 L 166.42 384.82 L 166.62 384.79 L 167.10 384.56 L 167.21 384.56 L 167.28 384.55 L 167.32 384.38 L 167.65 383.46 L 167.80 383.44 L 167.97 383.17 L 168.05 383.14 L 168.25 383.01 L 168.34 382.97 L 168.46 382.77 L 168.57 382.61 L 168.95 382.61 L 168.96 382.59 L 168.98 382.46 L 169.11 381.57 L 175.67 381.48 L 176.35 381.21 L 176.37 381.17 L 177.17 380.95 L 177.24 380.95 L 177.32 380.78 L 177.51 380.67 L 177.60 380.47 L 177.63 380.30 L 177.74 379.97 L 177.97 379.96 L 177.98 379.96 L 178.07 379.73 L 178.16 379.73 L 178.26 379.49 L 178.39 379.30 L 178.44 379.19 L 178.46 379.19 L 178.57 378.96 L 178.59 378.96 L 178.71 378.76 L 178.73 378.75 L 178.92 378.68 L 178.95 378.68 L 179.02 378.60 L 179.10 378.59 L 179.20 378.59 L 179.25 378.57 L 179.62 378.37 L 179.63 378.38 L 179.70 377.98 L 179.86 377.97 L 180.01 377.84 L 180.05 377.84 L 180.12 377.84 L 180.16 377.80 L 180.24 377.25 L 180.65 376.79 L 180.70 376.54 L 180.84 376.52 L 180.88 376.45 L 180.91 376.44 L 180.98 376.33 L 181.04 375.89 L 181.19 375.82 L 181.29 375.81 L 181.38 375.59 L 181.42 375.59 L 181.79 375.42 L 181.99 375.31 L 182.05 375.21 L 182.23 375.20 L 182.24 375.20 L 182.26 375.18 L 182.37 374.39 L 182.45 374.38 L 182.76 374.27 L 182.81 373.96 L 182.87 373.95 L 182.95 373.82 L 182.96 373.75 L 182.99 373.69 L 183.02 373.66 L 183.06 373.66 L 183.10 373.60 L 183.22 372.71 L 183.31 372.62 L 183.40 372.36 L 183.52 372.34 L 183.65 372.25 L 183.78 371.98 L 183.87 371.21 L 184.07 371.15 L 184.07 370.82 L 184.18 370.74 L 193.34 370.74 L 193.52 370.74 L 193.95 370.38 L 194.04 370.38 L 194.11 370.38 L 194.13 370.29 L 194.28 370.13 L 194.39 370.10 L 194.45 370.01 L 194.52 369.94 L 194.55 369.91 L 194.72 369.86 L 195.05 369.93 L 195.13 369.69 L 195.19 369.63 L 195.27 369.62 L 195.70 369.57 L 195.76 369.53 L 195.79 369.53 L 195.81 369.48 L 195.91 369.44 L 195.98 369.35 L 196.29 369.12 L 196.73 369.02 L 196.89 368.98 L 197.38 368.84 L 197.61 368.48 L 197.69 368.42 L 197.79 368.14 L 197.94 367.78 L 198.16 367.68 L 198.47 367.67 L 198.89 367.66 L 198.95 367.53 L 199.25 367.44 L 199.45 367.32 L 199.51 367.23 L 199.63 367.20 L 199.72 366.96 L 200.80 366.84 L 201.83 366.84 L 211.06 366.81 L 211.12 366.68 L 211.17 366.59 L 211.46 366.46 L 212.32 366.22 L 212.36 366.18 L 212.48 366.01 L 212.90 365.95 L 213.10 365.48 L 213.40 365.47 L 213.48 365.45 L 213.54 365.00 L 214.08 364.57 L 214.14 364.56 L 214.25 364.54 L 214.37 364.50 L 214.43 364.34 L 214.73 363.63 L 214.83 363.45 L 214.88 363.43 L 214.95 363.36 L 215.08 363.08 L 215.14 362.36 L 215.27 362.07 L 215.67 361.90 L 215.71 361.54 L 215.75 361.54 L 215.81 361.48 L 215.91 361.38 L 215.95 361.36 L 215.99 361.32 L 216.18 360.49 L 216.22 360.00 L 216.46 359.91 L 216.60 359.08 L 216.68 358.92 L 217.40 357.61 L 217.48 357.59 L 244.58 357.21 L 244.61 357.21 L 254.96 357.10 L 255.53 356.96 L 255.64 356.96 L 255.80 356.89 L 255.85 356.79 L 255.91 356.76 L 260.40 356.75 L 260.99 355.25 L 261.21 355.12 L 261.33 354.60 L 264.13 354.54 L 264.14 354.49 L 264.32 354.48 L 265.15 354.39 L 265.20 354.22 L 265.31 354.15 L 265.60 354.08 L 265.64 354.06 L 265.76 353.77 L 265.88 353.68 L 265.90 353.46 L 274.61 353.18 L 274.67 352.49 L 275.02 352.31 L 275.03 352.05 L 275.09 351.85 L 275.16 351.54 L 275.25 350.71 L 275.40 350.26 L 275.53 349.68 L 275.64 349.67 L 275.68 349.22 L 275.86 349.19 L 276.46 348.76 L 276.70 348.56 L 276.75 348.44 L 276.80 348.44 L 276.83 348.29 L 276.91 347.78 L 277.16 347.73 L 277.19 347.72 L 277.34 347.39 L 277.40 347.39 L 277.42 347.20 L 277.48 347.08 L 277.52 347.08 L 277.55 346.81 L 277.74 346.65 L 277.82 346.39 L 277.93 346.38 L 278.00 346.23 L 278.03 346.03 L 278.22 345.92 L 278.28 345.80 L 278.31 345.80 L 278.36 345.80 L 278.39 345.59 L 278.42 345.60 L 278.43 345.60 L 278.53 345.53 L 278.56 345.30 L 278.65 345.30 L 278.72 345.24 L 278.92 345.22 L 279.16 345.20 L 279.17 345.20 L 279.23 345.18 L 279.46 345.18 L 279.56 345.18 L 279.67 345.18 L 279.78 345.15 L 279.85 344.87 L 280.16 344.87 L 280.19 344.71 L 280.23 344.71 L 280.25 344.52 L 280.45 344.46 L 280.49 344.41 L 280.64 344.41 L 294.03 344.36 L 294.79 344.29 L 294.81 344.29 L 294.97 344.29 L 294.98 344.29 L 295.08 343.96 L 295.15 343.95 L 295.21 343.86 L 295.31 343.81 L 295.33 343.79 L 295.37 343.77 L 295.51 343.74 L 295.80 343.68 L 295.99 343.24 L 296.19 343.22 L 296.20 343.19 L 296.23 342.83 L 296.26 342.82 L 296.66 342.82 L 296.67 342.79 L 296.73 342.45 L 296.90 342.41 L 297.01 342.40 L 297.03 342.39 L 297.04 342.35 L 297.09 342.33 L 297.12 341.98 L 297.13 341.98 L 297.23 341.98 L 297.24 341.95 L 297.45 341.91 L 298.02 341.90 L 298.16 341.87 L 298.20 341.86 L 298.23 341.75 L 298.26 341.75 L 298.34 341.37 L 307.50 341.25 L 307.51 341.14 L 307.59 341.06 L 307.61 341.05 L 307.66 340.72 L 307.76 340.64 L 307.77 340.62 L 307.94 340.61 L 307.98 340.61 L 308.01 340.29 L 308.16 340.25 L 308.55 340.24 L 308.57 340.22 L 308.66 340.04 L 308.70 340.04 L 308.72 339.74 L 309.06 339.74 L 309.07 339.72 L 309.57 339.65 L 309.63 339.29 L 309.80 339.29 L 310.01 339.29 L 310.06 339.02 L 310.10 338.81 L 310.19 338.80 L 310.45 338.76 L 310.50 338.74 L 310.61 338.66 L 310.74 338.66 L 311.12 338.66 L 311.17 338.66 L 311.25 338.64 L 311.26 338.64 L 311.39 338.64 L 311.68 338.61 L 311.98 338.58 L 312.02 338.58 L 312.09 338.54 L 312.17 338.44 L 312.40 338.44 L 312.79 338.32 L 312.92 338.12 L 313.13 338.10 L 313.97 337.88 L 314.15 337.88 L 314.29 337.87 L 314.50 337.87 L 314.56 337.85 L 314.77 337.74 L 315.10 337.72 L 315.15 337.63 L 315.21 337.58 L 315.25 337.59 L 315.28 337.55 L 315.54 337.54 L 321.61 337.53 L 321.67 337.53 L 322.04 337.53 L 322.08 337.52 L 322.16 337.22 L 322.23 337.20 L 322.24 337.21 L 322.45 337.20 L 322.50 337.18 L 323.75 336.74 L 323.89 336.69 L 324.00 336.68 L 324.02 336.68 L 324.41 336.67 L 324.54 336.73 L 324.56 336.72 L 324.77 336.69 L 325.00 336.27 L 325.02 336.26 L 325.21 336.25 L 325.29 336.25 L 325.36 336.25 L 325.52 336.16 L 325.86 335.78 L 325.92 335.78 L 325.98 335.72 L 326.12 335.38 L 326.45 334.99 L 326.75 335.01 L 326.81 334.81 L 327.12 334.81 L 327.17 334.78 L 327.22 334.76 L 327.25 334.56 L 327.35 334.55 L 327.38 334.55 L 327.43 334.55 L 327.60 334.55 L 327.86 334.39 L 328.03 334.37 L 328.21 334.37 L 328.30 334.37 L 328.49 334.37 L 328.79 334.37 L 329.10 334.37 L 329.33 334.37 L 329.38 334.37 L 329.44 334.36 L 329.45 334.29 L 329.62 334.24 L 329.68 334.24 L 329.75 334.23 L 330.25 334.23 L 330.25 334.03 L 330.39 334.03 L 330.97 334.03 L 331.36 334.02 L 331.64 333.98 L 331.65 333.90 L 331.67 333.90 L 340.17 333.77 L 340.20 333.76 L 340.29 333.75 L 340.34 333.63 L 340.37 333.63 L 340.38 333.62 L 340.74 333.59 L 340.82 333.18 L 340.93 333.09 L 341.11 332.30 L 341.22 332.29 L 341.37 331.95 L 341.45 331.99 L 341.49 331.98 L 341.53 331.55 L 341.64 331.47 L 341.65 331.17 L 341.69 331.13 L 341.78 331.10 L 341.84 330.95 L 341.92 332.74 L 342.02 332.71 L 342.23 331.99 L 342.32 331.83 L 342.40 331.67 L 342.92 331.39 L 343.37 331.08 L 343.91 330.66 L 344.05 330.62 L 344.20 330.62 L 344.36 330.58 L 347.49 330.37 L 347.75 330.35 L 377.35 329.79 L 470.57 329.77 L 470.88 329.52 L 471.09 329.48 L 471.31 329.48 L 471.63 329.25 L 471.74 328.98 L 471.82 328.49 L 471.97 328.36 L 472.19 328.41 L 472.36 328.12 L 472.40 328.12 L 472.55 328.03 L 472.58 328.03 L 472.73 327.55 L 472.87 326.81 L 473.29 326.74 L 473.31 326.67 L 473.43 325.72 L 473.83 325.68 L 473.84 325.59 L 473.92 325.53 L 474.01 324.68 L 474.45 324.63 L 474.46 324.51 L 474.55 324.45 L 474.65 323.89 L 474.81 323.87 L 474.82 323.78 L 474.89 322.84 L 474.91 322.82 L 474.95 322.79 L 475.13 322.79 L 475.15 322.69 L 475.22 322.62 L 475.41 322.53 L 475.45 322.53 L 475.61 322.48 L 475.87 322.52 L 475.91 322.47 L 475.94 322.45 L 475.99 322.42 L 476.12 321.45 L 476.26 321.43 L 476.28 321.35 L 476.35 320.35 L 476.43 319.99 L 476.45 319.86 L 476.53 319.37 L 476.57 318.53 L 476.73 318.52 L 476.75 318.47 L 476.83 318.30 L 476.94 318.29 L 477.61 318.27 L 477.95 318.24 L 485.23 318.28 L 485.30 318.09 L 485.37 317.95 L 485.50 317.28 L 485.77 317.27 L 485.79 317.20 L 485.84 316.35 L 486.02 316.34 L 486.04 316.26 L 487.63 316.17 L 487.72 315.87 L 488.53 315.72 L 488.61 315.68 L 488.71 314.74 L 489.67 314.47 L 490.09 314.25 L 490.19 313.54 L 490.53 313.53 L 490.75 313.14 L 491.11 312.53 L 491.75 312.16 L 501.49 312.16 L 502.08 312.15 L 502.10 312.15 L 502.92 312.01 L 502.96 311.93 L 503.24 311.88 L 503.58 311.08 L 503.58 311.08 L 503.61 311.05 L 504.05 310.88 L 505.05 310.36 L 505.12 310.30 L 505.22 310.30 L 505.37 310.07 L 505.41 310.04 L 505.47 310.00 L 505.94 310.00 L 506.31 310.00 L 506.51 310.00 L 506.54 309.96 L 506.96 309.16 L 507.28 309.08 L 507.29 309.02 L 507.33 308.95 L 507.37 308.75 L 517.95 308.60 L 517.97 308.58 L 518.00 308.56 L 518.20 308.46 L 518.37 308.36 L 519.30 307.91 L 519.53 307.82 L 520.20 307.47 L 520.78 307.42 L 521.21 307.28 L 521.33 306.09 L 521.86 305.89 L 522.06 305.83 L 522.13 304.98 L 523.69 304.16 L 523.71 304.16 L 523.80 303.77 L 524.09 303.74 L 524.10 303.74 L 524.11 303.64 L 524.17 303.54 L 524.30 303.45 L 524.47 302.87 L 526.09 302.56 L 526.30 302.43 L 526.45 302.11 L 526.47 302.08 L 526.51 301.87 L 533.71 301.12 L 533.94 300.58 L 534.08 300.56 L 534.13 300.20 L 534.81 300.05 L 534.95 299.67 L 535.08 299.67 L 535.15 298.87 L 535.38 298.68 L 535.42 298.66 L 535.72 298.61 L 535.79 297.96 L 536.05 297.88 L 536.10 297.36 L 536.32 297.31 L 536.48 297.01 L 536.60 296.44 L 536.87 296.32 L 536.90 295.74 L 537.25 297.06 L 537.28 297.06 L 537.33 296.31 L 537.40 296.31 L 537.44 296.25 L 537.84 296.18 L 538.43 295.86 L 538.71 296.02 L 539.67 296.00 L 539.69 296.00 L 539.84 295.98 L 539.90 295.97 L 540.01 295.86 L 540.13 295.77 L 540.26 295.63 L 540.54 295.44 L 540.81 295.43 L 541.67 295.34 L 541.71 295.33 L 542.56 295.23 L 542.93 295.18 L 550.21 295.14 L 550.58 295.10 L 550.76 295.10 L 550.84 295.10 L 550.86 295.10 L 551.05 295.09 L 551.13 295.06 L 551.35 294.92 L 551.48 294.90 L 551.95 294.89 L 552.20 294.82 L 552.61 294.79 L 552.72 294.76 L 552.86 294.70 L 553.04 294.61 L 553.67 294.58 L 553.73 294.56 L 554.65 294.42 L 554.79 294.18 L 554.98 294.10 L 555.42 293.96 L 555.63 293.88 L 555.73 294.21 L 555.82 294.20 L 555.95 294.07 L 556.34 293.77 L 556.75 293.69 L 557.12 293.62 L 557.16 293.59 L 557.20 293.36 L 583.56 293.31 L 583.74 293.25 L 598.90 293.18 L 598.98 293.51 L 599.10 292.18 L 599.12 292.18 L 599.16 292.21 L 599.71 291.70 L 599.76 291.67 L 600.43 291.73 L 601.11 291.67 L 601.35 291.63 L 601.78 291.58 L 602.34 291.43 L 602.35 291.43 L 602.43 291.41 L 602.65 291.37 L 602.72 291.27 L 603.27 291.20 L 603.97 291.15 L 604.05 291.01 L 604.41 290.94 L 604.51 291.53 L 604.78 291.48 L 605.01 291.45 L 605.47 291.43 L 605.91 291.43 L 606.13 291.15 L 606.15 291.15 L 615.63 291.13 L 618.61 290.43 L 618.73 290.07 L 618.88 289.98 L 619.36 289.95 L 619.56 289.82 L 619.72 288.04 L 619.81 287.09 L 620.04 287.05 L 620.07 287.03 L 620.40 286.90 L 620.51 286.86 L 620.57 286.81 L 620.75 286.59 L 620.81 286.57 L 620.90 286.55 L 620.97 286.50 L 621.06 286.44 L 621.15 286.36 L 621.22 286.32 L 621.53 286.29 L 621.68 286.20 L 621.80 286.17 L 621.84 285.59 L 622.19 285.46 L 622.32 285.15 L 631.26 285.21 L 631.92 285.02 L 632.03 285.02 L 632.43 284.67 L 632.61 284.64 L 633.36 283.58 L 633.68 283.49 L 634.11 283.35 L 634.17 283.35 L 634.42 283.34 L 634.51 282.79 L 634.85 282.07 L 635.37 281.99 L 635.54 281.42 L 638.70 281.03 L 639.00 280.61 L 639.02 280.61 L 647.42 279.23 L 647.42 279.23 L 647.53 279.17 L 647.63 278.56 L 648.02 278.51 L 648.05 278.50 L 648.50 278.39 L 649.18 278.27 L 649.95 278.22 L 650.00 278.16"/>
	</g>
	<g class="poloto_legend poloto_imgs poloto_line poloto0 poloto_stroke"><line x1="680" x2="730" y1="81.25" y2="81.25"/></g>
	<g class="poloto_legend poloto_imgs poloto_line poloto1 poloto_stroke"><line x1="680" x2="730" y1="131.25" y2="131.25"/></g>
	<g class="poloto_legend poloto_imgs poloto_line poloto2 poloto_stroke"><line x1="680" x2="730" y1="181.25" y2="181.25"/></g>
	<text class="poloto_legend poloto_text poloto_line poloto0" x="675" y="100">total</text>
	<text class="poloto_legend poloto_text poloto_line poloto1" x="675" y="150">code</text>
	<text class="poloto_legend poloto_text poloto_line poloto2" x="675" y="200">docs</text>
	<text class="poloto_text poloto_name poloto_title" x="400.00" y="37.50">Workspace lines over time</text>
	<text class="poloto_text poloto_name poloto_x" x="400.00" y="640">date (JST)</text>
	<text class="poloto_text poloto_name poloto_y" x="37.50" y="250.00" transform="rotate(-90,37.50,250.00)">lines</text>
	<text class="poloto_text poloto_ticks poloto_y">
		<tspan x="135.00" y="400.00">0</tspan>
		<tspan x="135.00" y="330.03">50K</tspan>
		<tspan x="135.00" y="260.06">100K</tspan>
		<tspan x="135.00" y="190.09">150K</tspan>
		<tspan x="135.00" y="120.12">200K</tspan>
	</text>
	<g class="poloto_imgs poloto_ticks poloto_y" stroke="black">
		<line x1="150.00" x2="144.00" y1="400.00" y2="400.00"/>
		<line x1="150.00" x2="144.00" y1="330.03" y2="330.03"/>
		<line x1="150.00" x2="144.00" y1="260.06" y2="260.06"/>
		<line x1="150.00" x2="144.00" y1="190.09" y2="190.09"/>
		<line x1="150.00" x2="144.00" y1="120.12" y2="120.12"/>
	</g>
	<g class="poloto_text poloto_ticks poloto_x">
		<text x="210.94" y="430.00" text-anchor="end" transform="rotate(-90 210.94 430.00)">2026-04-24 12:06</text>
		<text x="304.74" y="430.00" text-anchor="end" transform="rotate(-90 304.74 430.00)">2026-04-30 07:00</text>
		<text x="398.54" y="430.00" text-anchor="end" transform="rotate(-90 398.54 430.00)">2026-05-06 01:53</text>
		<text x="492.35" y="430.00" text-anchor="end" transform="rotate(-90 492.35 430.00)">2026-05-11 20:46</text>
		<text x="586.15" y="430.00" text-anchor="end" transform="rotate(-90 586.15 430.00)">2026-05-17 15:40</text>
	</g>
	<g class="poloto_imgs poloto_ticks poloto_x" stroke="black">
		<line x1="210.94" x2="210.94" y1="400.00" y2="405.00"/>
		<line x1="304.74" x2="304.74" y1="400.00" y2="405.00"/>
		<line x1="398.54" x2="398.54" y1="400.00" y2="405.00"/>
		<line x1="492.35" x2="492.35" y1="400.00" y2="405.00"/>
		<line x1="586.15" x2="586.15" y1="400.00" y2="405.00"/>
	</g>
	<path class="poloto_imgs poloto_ticks poloto_x" stroke="black" style="stroke-dasharray:9.380282271454112;stroke-dashoffset:-60.9386285651708;" d=" M 150.00 400.00 L 650.00 400.00"/>
	<path class="poloto_imgs poloto_ticks poloto_y" stroke="black" style="stroke-dasharray:6.9968887168172555;stroke-dashoffset:-0;" d=" M 150.00 400.00 L 150.00 100.00"/>
</svg>

