<svg class="poloto" width="800" height="680" viewBox="0 0 800 680" xmlns="http://www.w3.org/2000/svg">
	<style>
.poloto{
  stroke-linecap:round;
  stroke-linejoin:round;
  font-family:Roboto,sans-serif;
  font-size:16px;
}
.poloto_background{fill:AliceBlue;}
.poloto_scatter{stroke-width:7}
.poloto_line{stroke-width:2}
.poloto_text{fill: black;}
.poloto_name{font-size:24px;dominant-baseline:auto;text-anchor:middle;}
.poloto_where{dominant-baseline:middle;text-anchor:start}
.poloto_text.poloto_legend{font-size:20px;dominant-baseline:middle;text-anchor:start;}
.poloto_text.poloto_ticks.poloto_y{dominant-baseline:middle;text-anchor:end}
.poloto_text.poloto_ticks.poloto_x{dominant-baseline:auto;text-anchor:middle}
.poloto_imgs.poloto_ticks{stroke: black;stroke-width:3;fill:none;stroke-dasharray:none}
.poloto_grid{stroke:gray;stroke-width:0.5}

.poloto0.poloto_stroke{stroke:blue;}
.poloto1.poloto_stroke{stroke:red;}
.poloto2.poloto_stroke{stroke:green;}
.poloto3.poloto_stroke{stroke:gold;}
.poloto4.poloto_stroke{stroke:aqua;}
.poloto5.poloto_stroke{stroke:lime;}
.poloto6.poloto_stroke{stroke:orange;}
.poloto7.poloto_stroke{stroke:chocolate;}
.poloto0.poloto_fill{fill:blue;}
.poloto1.poloto_fill{fill:red;}
.poloto2.poloto_fill{fill:green;}
.poloto3.poloto_fill{fill:gold;}
.poloto4.poloto_fill{fill:aqua;}
.poloto5.poloto_fill{fill:lime;}
.poloto6.poloto_fill{fill:orange;}
.poloto7.poloto_fill{fill:chocolate;}
	</style>
	<circle r="1e5" class="poloto_background" fill="white"/>
	<g id="poloto_plot0" class="poloto_plot poloto_imgs poloto_line poloto0 poloto_stroke" fill="none" stroke="black">
		<path d=" M 150.00 368.15 L 150.03 368.12 L 150.05 368.11 L 150.06 368.11 L 150.08 368.11 L 150.12 364.65 L 150.25 364.23 L 150.54 364.21 L 150.98 363.93 L 151.20 362.17 L 151.65 362.06 L 151.73 361.97 L 151.78 361.93 L 152.30 361.08 L 153.28 360.38 L 153.59 357.66 L 153.67 357.67 L 154.26 357.56 L 154.93 357.55 L 154.94 357.55 L 154.94 357.55 L 164.11 357.55 L 164.17 357.54 L 164.29 357.52 L 164.34 357.49 L 164.69 357.33 L 164.85 357.29 L 165.23 357.04 L 165.29 356.93 L 165.40 356.69 L 165.52 356.65 L 165.55 356.65 L 165.65 356.58 L 165.75 356.58 L 165.84 356.58 L 166.10 356.18 L 166.33 355.93 L 166.37 355.93 L 166.48 355.79 L 167.20 356.41 L 167.22 356.41 L 167.31 356.30 L 167.73 355.84 L 168.06 355.29 L 168.44 355.04 L 168.51 355.00 L 168.52 355.00 L 168.60 354.79 L 168.74 354.79 L 168.92 354.71 L 169.28 354.50 L 169.30 354.17 L 169.37 354.17 L 169.45 354.01 L 169.66 354.01 L 169.68 354.01 L 169.90 353.54 L 169.98 353.52 L 170.06 353.48 L 170.14 353.29 L 171.26 353.04 L 171.53 352.99 L 172.15 352.66 L 172.28 352.67 L 172.38 352.65 L 172.43 352.41 L 172.86 351.04 L 173.05 351.02 L 173.27 350.56 L 173.38 350.51 L 173.64 350.13 L 173.75 350.00 L 173.90 349.75 L 174.04 349.53 L 174.54 346.37 L 174.55 346.30 L 174.58 346.11 L 174.74 344.59 L 183.24 344.48 L 184.12 342.74 L 184.15 342.70 L 185.19 342.43 L 185.28 342.42 L 185.37 342.08 L 185.63 341.91 L 185.75 341.61 L 185.79 341.35 L 185.92 340.90 L 186.22 340.89 L 186.23 340.59 L 186.35 340.25 L 186.46 340.24 L 186.59 339.86 L 186.76 339.59 L 186.83 339.45 L 186.85 339.45 L 187.00 339.15 L 187.02 339.14 L 187.18 338.85 L 187.21 338.84 L 187.45 337.41 L 187.49 337.41 L 187.57 337.17 L 187.68 337.16 L 187.82 337.16 L 187.88 337.13 L 188.36 336.86 L 188.37 336.87 L 188.46 336.23 L 188.67 336.22 L 188.86 335.27 L 188.92 335.18 L 189.01 335.18 L 189.05 335.14 L 189.16 334.40 L 189.70 328.20 L 189.75 327.90 L 189.94 327.87 L 189.99 327.80 L 190.03 327.78 L 190.12 327.61 L 190.20 326.91 L 190.39 326.76 L 190.52 326.75 L 190.63 326.44 L 190.69 326.43 L 191.17 326.20 L 191.43 326.03 L 191.51 325.75 L 191.73 325.73 L 191.75 325.73 L 191.77 325.71 L 191.92 324.22 L 192.03 324.13 L 192.42 322.62 L 192.49 322.19 L 192.56 322.18 L 192.67 322.02 L 192.68 321.90 L 192.72 321.83 L 192.76 321.79 L 192.82 321.78 L 192.87 321.70 L 193.02 320.48 L 193.14 320.29 L 193.25 319.93 L 193.40 319.91 L 193.58 319.79 L 193.75 318.92 L 193.87 317.72 L 194.12 317.65 L 194.12 317.20 L 194.26 317.05 L 206.13 317.05 L 206.36 317.04 L 206.91 316.40 L 207.03 316.38 L 207.12 316.38 L 207.14 316.23 L 207.34 316.03 L 207.48 316.00 L 207.57 315.88 L 207.65 315.79 L 207.70 315.75 L 207.91 315.69 L 208.34 315.61 L 208.45 315.28 L 208.53 315.20 L 208.63 315.19 L 209.18 315.03 L 209.26 314.93 L 209.29 314.93 L 209.33 314.81 L 209.45 314.75 L 209.54 314.63 L 209.94 313.82 L 210.51 313.70 L 210.72 313.64 L 211.36 313.44 L 211.66 309.54 L 211.76 309.46 L 211.89 309.07 L 212.08 308.56 L 212.37 308.42 L 212.77 308.40 L 213.31 308.39 L 213.39 308.22 L 213.78 308.04 L 214.03 307.76 L 214.11 307.64 L 214.27 307.60 L 214.39 307.25 L 215.79 306.87 L 217.12 306.87 L 229.07 306.83 L 229.15 306.66 L 229.21 306.56 L 229.59 306.39 L 230.70 305.04 L 230.75 304.95 L 230.91 304.61 L 231.45 304.52 L 231.71 303.61 L 232.11 303.60 L 232.20 303.59 L 232.29 302.97 L 232.98 299.42 L 233.06 299.41 L 233.21 299.38 L 233.36 299.34 L 233.43 298.95 L 233.82 297.62 L 233.96 297.37 L 234.02 297.35 L 234.11 296.73 L 234.28 295.86 L 234.35 294.94 L 234.53 294.53 L 235.04 289.91 L 235.09 289.45 L 235.14 289.45 L 235.22 289.36 L 235.35 289.25 L 235.40 289.21 L 235.45 289.16 L 235.70 288.05 L 235.76 287.27 L 236.06 287.11 L 236.24 285.95 L 236.35 285.22 L 237.28 274.47 L 237.39 274.44 L 272.48 273.93 L 272.52 273.93 L 285.93 273.78 L 286.66 273.49 L 286.81 273.49 L 287.00 273.41 L 287.07 273.27 L 287.15 273.23 L 292.97 273.16 L 293.73 271.11 L 294.02 270.93 L 294.17 270.17 L 297.79 270.02 L 297.82 269.82 L 298.04 269.80 L 299.12 268.51 L 299.19 268.27 L 299.32 268.19 L 299.70 268.10 L 299.75 268.07 L 299.90 267.68 L 300.07 267.58 L 300.09 267.29 L 311.37 266.90 L 311.45 265.79 L 311.90 265.55 L 311.91 263.71 L 311.99 263.43 L 312.08 262.98 L 312.20 261.71 L 312.39 261.03 L 312.55 260.25 L 312.70 260.24 L 312.76 259.63 L 312.99 259.58 L 313.77 256.61 L 314.08 256.30 L 314.13 256.11 L 314.20 256.10 L 314.24 255.90 L 314.35 255.17 L 314.67 254.82 L 314.71 254.77 L 314.91 252.16 L 314.98 252.15 L 315.01 251.87 L 315.08 251.66 L 315.13 251.65 L 315.17 251.26 L 315.42 249.85 L 315.53 249.44 L 315.67 249.39 L 315.76 245.61 L 315.80 245.31 L 316.05 243.15 L 316.12 242.98 L 316.16 242.98 L 316.23 242.97 L 316.27 242.67 L 316.30 242.68 L 316.32 242.67 L 316.44 238.86 L 316.48 238.53 L 316.60 238.51 L 316.69 238.44 L 316.95 238.33 L 317.26 238.19 L 317.27 238.19 L 317.35 238.14 L 317.64 238.07 L 317.78 238.07 L 317.92 238.07 L 318.06 236.40 L 318.16 236.01 L 318.56 236.00 L 318.59 235.74 L 318.64 235.73 L 318.68 235.45 L 318.94 233.04 L 318.98 232.99 L 319.17 232.97 L 336.51 232.90 L 337.50 232.78 L 337.53 232.78 L 337.73 232.78 L 337.74 232.78 L 337.87 232.30 L 337.97 232.28 L 338.05 232.05 L 338.17 231.99 L 338.21 231.95 L 338.25 231.93 L 338.44 231.66 L 338.81 231.43 L 339.05 230.65 L 339.32 229.92 L 339.33 229.88 L 339.37 229.19 L 339.41 229.16 L 339.92 228.76 L 339.93 228.71 L 340.01 228.16 L 340.23 228.10 L 340.38 228.05 L 340.41 227.08 L 340.42 227.03 L 340.48 227.95 L 340.52 227.39 L 340.54 227.36 L 340.66 226.06 L 340.67 226.02 L 340.95 225.91 L 341.69 225.90 L 341.86 225.85 L 341.92 225.84 L 341.95 225.67 L 342.00 225.67 L 342.10 225.02 L 353.96 223.78 L 353.97 223.61 L 354.07 223.49 L 354.10 223.25 L 354.17 212.37 L 354.30 207.91 L 354.32 207.89 L 354.53 207.80 L 354.59 207.80 L 354.62 207.29 L 354.82 207.24 L 355.33 206.18 L 355.34 206.16 L 355.47 205.84 L 355.52 205.85 L 355.55 205.32 L 355.98 204.70 L 355.99 204.68 L 356.64 204.44 L 356.71 203.88 L 356.95 203.89 L 357.21 202.49 L 357.28 201.93 L 357.33 201.49 L 357.45 200.95 L 357.79 200.75 L 357.85 200.62 L 357.99 200.50 L 358.15 200.50 L 358.65 200.50 L 358.71 200.50 L 358.82 200.47 L 358.83 200.47 L 358.99 200.48 L 359.37 200.46 L 359.76 200.25 L 359.82 200.25 L 359.90 200.17 L 360.01 200.02 L 360.31 200.02 L 360.81 199.82 L 360.97 199.39 L 361.25 195.64 L 362.34 198.81 L 362.57 198.79 L 362.75 198.78 L 363.02 198.77 L 363.11 198.71 L 363.38 198.54 L 363.81 198.28 L 363.87 198.11 L 363.95 198.03 L 364.00 198.05 L 364.04 198.00 L 364.38 197.76 L 372.23 197.76 L 372.31 197.76 L 372.79 197.75 L 372.84 197.73 L 372.95 197.25 L 373.04 196.98 L 373.05 196.98 L 373.32 196.94 L 373.39 196.92 L 375.00 196.21 L 375.19 196.15 L 375.33 196.14 L 375.36 196.14 L 375.86 195.97 L 376.03 196.05 L 376.06 196.05 L 376.33 196.00 L 376.62 194.52 L 376.65 194.51 L 376.90 194.34 L 377.00 194.34 L 377.09 194.34 L 377.30 194.17 L 377.73 193.57 L 377.82 193.55 L 377.90 193.38 L 378.07 192.68 L 378.51 191.94 L 378.89 188.49 L 378.97 188.07 L 379.36 187.91 L 379.43 187.82 L 379.49 187.65 L 379.53 187.10 L 379.67 186.10 L 379.70 186.14 L 379.77 186.12 L 379.99 186.12 L 380.33 185.75 L 380.54 185.68 L 380.79 185.67 L 380.90 185.66 L 381.14 185.65 L 381.53 185.65 L 381.93 185.64 L 382.23 185.63 L 382.30 185.62 L 382.38 185.61 L 382.38 185.49 L 382.61 185.42 L 382.68 185.41 L 382.77 185.26 L 383.42 185.23 L 383.43 184.93 L 383.60 184.92 L 384.36 184.93 L 384.86 184.75 L 385.22 184.52 L 385.23 184.41 L 385.26 184.40 L 396.26 184.20 L 396.30 184.19 L 396.43 184.18 L 396.49 184.01 L 396.53 183.99 L 396.53 183.98 L 397.00 183.93 L 397.11 183.31 L 397.25 183.17 L 397.48 181.94 L 397.63 181.92 L 397.82 181.40 L 397.93 181.47 L 397.98 181.46 L 398.03 180.86 L 398.17 180.45 L 398.19 180.02 L 398.24 179.96 L 398.35 179.92 L 398.43 179.72 L 398.53 182.07 L 398.66 182.03 L 398.94 181.09 L 399.05 180.86 L 399.16 180.66 L 399.83 179.31 L 400.41 178.66 L 401.11 177.42 L 401.29 177.36 L 401.48 177.36 L 401.70 177.30 L 405.75 176.95 L 406.08 176.92 L 444.42 175.97 L 565.13 175.75 L 565.53 175.37 L 565.81 175.31 L 566.09 175.31 L 566.51 174.58 L 566.65 174.23 L 566.76 173.57 L 566.95 171.68 L 567.23 172.07 L 567.46 171.66 L 567.51 171.65 L 567.69 171.53 L 567.74 171.53 L 567.93 170.83 L 568.11 169.72 L 568.66 168.54 L 568.68 168.45 L 568.83 167.04 L 569.35 163.56 L 569.37 163.44 L 569.47 163.36 L 569.59 162.12 L 570.16 160.44 L 570.17 160.29 L 570.29 160.21 L 570.42 159.38 L 570.63 158.73 L 570.64 158.61 L 570.74 157.33 L 570.75 157.30 L 570.80 156.95 L 571.04 154.68 L 571.07 154.55 L 571.15 154.42 L 571.41 154.11 L 571.46 154.11 L 571.66 153.67 L 572.00 153.72 L 572.05 153.67 L 572.09 153.64 L 572.15 153.60 L 572.32 152.27 L 572.50 151.19 L 572.52 151.09 L 572.62 149.73 L 572.72 148.41 L 572.75 148.24 L 572.85 146.69 L 572.90 145.47 L 573.11 144.64 L 573.14 144.59 L 573.24 144.33 L 573.39 144.31 L 574.26 144.27 L 574.69 144.24 L 584.12 144.29 L 584.21 144.05 L 584.31 143.85 L 584.47 142.93 L 584.82 142.70 L 584.85 142.61 L 584.91 141.40 L 585.14 140.23 L 585.16 140.13 L 587.22 140.05 L 587.35 139.39 L 588.39 139.20 L 588.50 139.15 L 588.62 137.79 L 589.87 136.51 L 590.41 136.02 L 590.54 135.03 L 590.99 133.32 L 591.27 132.82 L 591.73 131.82 L 592.56 131.31 L 605.18 131.30 L 605.93 131.18 L 605.97 131.20 L 607.02 131.00 L 607.08 130.91 L 607.45 130.83 L 607.88 129.71 L 607.88 129.71 L 607.93 129.67 L 608.49 128.40 L 609.79 127.67 L 609.87 127.60 L 610.00 127.59 L 610.20 127.26 L 610.25 127.17 L 610.33 127.11 L 610.93 127.06 L 611.42 127.06 L 611.68 127.06 L 611.71 127.01 L 612.25 125.90 L 612.67 125.68 L 612.69 125.60 L 612.74 125.51 L 612.79 125.21 L 626.49 124.78 L 626.52 124.76 L 626.56 124.74 L 626.82 124.62 L 627.03 124.48 L 628.24 122.77 L 628.54 122.57 L 629.40 122.05 L 630.15 121.93 L 630.71 121.77 L 630.86 120.19 L 631.56 118.34 L 631.81 118.21 L 631.90 117.01 L 633.93 114.82 L 633.95 114.82 L 634.06 114.28 L 634.45 114.22 L 634.45 114.22 L 634.47 114.09 L 634.54 113.92 L 634.72 113.75 L 634.94 112.83 L 637.04 110.60 L 637.31 110.34 L 637.50 109.94 L 637.53 109.89 L 637.57 109.58 L 646.90 108.58 L 647.20 107.82 L 647.38 107.78 L 647.44 107.28 L 648.32 107.04 L 648.51 106.54 L 648.67 106.54 L 648.77 105.47 L 649.06 102.77 L 649.11 102.72 L 649.50 102.68 L 649.59 101.80 L 649.93 100.73 L 650.00 100.00"/>
	</g>
	<g id="poloto_plot1" class="poloto_plot poloto_imgs poloto_line poloto1 poloto_stroke" fill="none" stroke="black">
		<path d=" M 150.00 381.07 L 150.03 381.06 L 150.05 381.04 L 150.06 381.04 L 150.08 381.04 L 150.12 380.45 L 150.25 380.43 L 150.54 380.42 L 150.98 380.19 L 151.20 380.09 L 151.65 380.11 L 151.73 380.07 L 151.78 380.07 L 152.30 380.02 L 153.28 379.91 L 153.59 377.57 L 153.67 377.57 L 154.26 377.52 L 154.93 377.51 L 154.94 377.51 L 154.94 377.51 L 164.11 377.51 L 164.17 377.51 L 164.29 377.50 L 164.34 377.47 L 164.69 377.46 L 164.85 377.46 L 165.23 377.46 L 165.29 377.46 L 165.40 377.44 L 165.52 377.44 L 165.55 377.44 L 165.65 377.41 L 165.75 377.41 L 165.84 377.41 L 166.10 377.29 L 166.33 377.29 L 166.37 377.29 L 166.48 377.29 L 167.20 378.16 L 167.22 378.16 L 167.31 378.15 L 167.73 378.02 L 168.06 377.87 L 168.44 377.81 L 168.51 377.76 L 168.52 377.76 L 168.60 377.76 L 168.74 377.76 L 168.92 377.71 L 169.28 377.66 L 169.30 377.66 L 169.37 377.66 L 169.45 377.63 L 169.66 377.63 L 169.68 377.63 L 169.90 377.62 L 169.98 377.62 L 170.06 377.62 L 170.14 377.62 L 171.26 377.52 L 171.53 377.51 L 172.15 377.47 L 172.28 377.47 L 172.38 377.47 L 172.43 377.47 L 172.86 377.40 L 173.05 377.40 L 173.27 377.31 L 173.38 377.30 L 173.64 377.11 L 173.75 377.04 L 173.90 377.04 L 174.04 377.04 L 174.54 374.30 L 174.55 374.26 L 174.58 374.26 L 174.74 373.99 L 183.24 373.99 L 184.12 372.81 L 184.15 372.81 L 185.19 372.81 L 185.28 372.81 L 185.37 372.69 L 185.63 372.67 L 185.75 372.67 L 185.79 372.67 L 185.92 372.67 L 186.22 372.67 L 186.23 372.41 L 186.35 372.40 L 186.46 372.40 L 186.59 372.38 L 186.76 372.37 L 186.83 372.37 L 186.85 372.37 L 187.00 372.37 L 187.02 372.37 L 187.18 372.37 L 187.21 372.37 L 187.45 371.21 L 187.49 371.21 L 187.57 371.07 L 187.68 371.07 L 187.82 371.07 L 187.88 371.06 L 188.36 371.05 L 188.37 371.05 L 188.46 370.98 L 188.67 370.98 L 188.86 370.32 L 188.92 370.23 L 189.01 370.23 L 189.05 370.23 L 189.16 370.21 L 189.70 365.33 L 189.75 365.37 L 189.94 365.37 L 189.99 365.37 L 190.03 365.36 L 190.12 365.36 L 190.20 365.29 L 190.39 365.29 L 190.52 365.29 L 190.63 365.29 L 190.69 365.29 L 191.17 365.28 L 191.43 365.27 L 191.51 365.15 L 191.73 365.15 L 191.75 365.15 L 191.77 365.15 L 191.92 364.83 L 192.03 364.74 L 192.42 363.58 L 192.49 363.58 L 192.56 363.58 L 192.67 363.59 L 192.68 363.59 L 192.72 363.59 L 192.76 363.59 L 192.82 363.59 L 192.87 363.59 L 193.02 363.57 L 193.14 363.57 L 193.25 363.56 L 193.40 363.56 L 193.58 363.55 L 193.75 363.12 L 193.87 362.97 L 194.12 362.97 L 194.12 362.97 L 194.26 362.97 L 206.13 362.97 L 206.36 362.96 L 206.91 362.88 L 207.03 362.87 L 207.12 362.87 L 207.14 362.87 L 207.34 362.87 L 207.48 362.87 L 207.57 362.87 L 207.65 362.87 L 207.70 362.87 L 207.91 362.87 L 208.34 362.89 L 208.45 362.89 L 208.53 362.89 L 208.63 362.89 L 209.18 362.80 L 209.26 362.75 L 209.29 362.75 L 209.33 362.69 L 209.45 362.69 L 209.54 362.69 L 209.94 362.24 L 210.51 362.24 L 210.72 362.24 L 211.36 362.24 L 211.66 359.25 L 211.76 359.25 L 211.89 359.25 L 212.08 359.24 L 212.37 359.24 L 212.77 359.24 L 213.31 359.24 L 213.39 359.24 L 213.78 359.17 L 214.03 359.04 L 214.11 359.04 L 214.27 359.04 L 214.39 359.03 L 215.79 358.84 L 217.12 358.84 L 229.07 358.84 L 229.15 358.84 L 229.21 358.84 L 229.59 358.84 L 230.70 357.90 L 230.75 357.86 L 230.91 357.77 L 231.45 357.76 L 231.71 357.53 L 232.11 357.54 L 232.20 357.54 L 232.29 357.54 L 232.98 354.91 L 233.06 354.91 L 233.21 354.91 L 233.36 354.91 L 233.43 354.74 L 233.82 354.43 L 233.96 354.43 L 234.02 354.43 L 234.11 353.94 L 234.28 353.46 L 234.35 353.46 L 234.53 353.45 L 235.04 349.54 L 235.09 349.54 L 235.14 349.54 L 235.22 349.54 L 235.35 349.54 L 235.40 349.54 L 235.45 349.54 L 235.70 349.54 L 235.76 349.45 L 236.06 349.44 L 236.24 349.38 L 236.35 348.91 L 237.28 341.13 L 237.39 341.13 L 272.48 341.13 L 272.52 341.13 L 285.93 341.13 L 286.66 341.01 L 286.81 341.01 L 287.00 341.01 L 287.07 341.01 L 287.15 341.01 L 292.97 340.95 L 293.73 340.87 L 294.02 340.87 L 294.17 340.85 L 297.79 340.78 L 297.82 340.68 L 298.04 340.68 L 299.12 339.62 L 299.19 339.62 L 299.32 339.62 L 299.70 339.62 L 299.75 339.62 L 299.90 339.62 L 300.07 339.62 L 300.09 339.62 L 311.37 339.60 L 311.45 339.42 L 311.90 339.42 L 311.91 338.15 L 311.99 338.15 L 312.08 338.15 L 312.20 338.03 L 312.39 338.03 L 312.55 337.97 L 312.70 337.97 L 312.76 337.97 L 312.99 337.96 L 313.77 335.80 L 314.08 335.79 L 314.13 335.78 L 314.20 335.78 L 314.24 335.78 L 314.35 335.75 L 314.67 335.48 L 314.71 335.44 L 314.91 333.50 L 314.98 333.49 L 315.01 333.49 L 315.08 333.47 L 315.13 333.47 L 315.17 333.46 L 315.42 332.41 L 315.53 332.39 L 315.67 332.37 L 315.76 329.09 L 315.80 329.08 L 316.05 327.23 L 316.12 327.23 L 316.16 327.23 L 316.23 327.23 L 316.27 327.23 L 316.30 327.23 L 316.32 327.23 L 316.44 323.81 L 316.48 323.81 L 316.60 323.79 L 316.69 323.79 L 316.95 323.72 L 317.26 323.63 L 317.27 323.63 L 317.35 323.61 L 317.64 323.56 L 317.78 323.56 L 317.92 323.56 L 318.06 322.08 L 318.16 322.08 L 318.56 322.08 L 318.59 322.07 L 318.64 322.07 L 318.68 322.07 L 318.94 319.97 L 318.98 319.97 L 319.17 319.95 L 336.51 319.95 L 337.50 319.94 L 337.53 319.94 L 337.73 319.94 L 337.74 319.94 L 337.87 319.94 L 337.97 319.94 L 338.05 319.83 L 338.17 319.83 L 338.21 319.83 L 338.25 319.83 L 338.44 319.64 L 338.81 319.52 L 339.05 319.40 L 339.32 318.80 L 339.33 318.80 L 339.37 318.65 L 339.41 318.63 L 339.92 318.27 L 339.93 318.27 L 340.01 318.22 L 340.23 318.22 L 340.38 318.18 L 340.41 317.31 L 340.42 317.31 L 340.48 318.17 L 340.52 318.12 L 340.54 318.11 L 340.66 316.94 L 340.67 316.94 L 340.95 316.89 L 341.69 316.89 L 341.86 316.89 L 341.92 316.89 L 341.95 316.89 L 342.00 316.89 L 342.10 316.81 L 353.96 315.84 L 353.97 315.84 L 354.07 315.83 L 354.10 315.62 L 354.17 305.23 L 354.30 301.37 L 354.32 301.37 L 354.53 301.30 L 354.59 301.30 L 354.62 301.28 L 354.82 301.28 L 355.33 300.33 L 355.34 300.33 L 355.47 300.28 L 355.52 300.28 L 355.55 300.20 L 355.98 299.64 L 355.99 299.64 L 356.64 299.52 L 356.71 299.48 L 356.95 299.49 L 357.21 298.22 L 357.28 298.09 L 357.33 297.97 L 357.45 297.49 L 357.79 297.37 L 357.85 297.27 L 357.99 297.27 L 358.15 297.27 L 358.65 297.27 L 358.71 297.27 L 358.82 297.27 L 358.83 297.27 L 358.99 297.28 L 359.37 297.28 L 359.76 297.15 L 359.82 297.15 L 359.90 297.14 L 360.01 297.14 L 360.31 297.14 L 360.81 297.14 L 360.97 297.02 L 361.25 293.67 L 362.34 296.83 L 362.57 296.82 L 362.75 296.81 L 363.02 296.81 L 363.11 296.77 L 363.38 296.75 L 363.81 296.56 L 363.87 296.56 L 363.95 296.56 L 364.00 296.56 L 364.04 296.56 L 364.38 296.38 L 372.23 296.38 L 372.31 296.38 L 372.79 296.37 L 372.84 296.37 L 372.95 296.33 L 373.04 296.10 L 373.05 296.10 L 373.32 296.07 L 373.39 296.07 L 375.00 295.88 L 375.19 295.88 L 375.33 295.88 L 375.36 295.88 L 375.86 295.74 L 376.03 295.74 L 376.06 295.74 L 376.33 295.74 L 376.62 294.94 L 376.65 294.94 L 376.90 294.81 L 377.00 294.81 L 377.09 294.81 L 377.30 294.81 L 377.73 294.80 L 377.82 294.78 L 377.90 294.70 L 378.07 294.57 L 378.51 294.44 L 378.89 291.28 L 378.97 291.17 L 379.36 291.02 L 379.43 290.99 L 379.49 290.87 L 379.53 290.65 L 379.67 289.71 L 379.70 289.75 L 379.77 289.73 L 379.99 289.72 L 380.33 289.59 L 380.54 289.54 L 380.79 289.53 L 380.90 289.52 L 381.14 289.51 L 381.53 289.51 L 381.93 289.50 L 382.23 289.49 L 382.30 289.49 L 382.38 289.48 L 382.38 289.48 L 382.61 289.48 L 382.68 289.47 L 382.77 289.35 L 383.42 289.34 L 383.43 289.34 L 383.60 289.32 L 384.36 289.32 L 384.86 289.16 L 385.22 289.03 L 385.23 289.03 L 385.26 289.03 L 396.26 289.03 L 396.30 289.03 L 396.43 289.03 L 396.49 289.03 L 396.53 289.01 L 396.53 289.01 L 397.00 289.01 L 397.11 289.00 L 397.25 288.98 L 397.48 288.95 L 397.63 288.95 L 397.82 288.88 L 397.93 288.88 L 397.98 288.88 L 398.03 288.88 L 398.17 288.59 L 398.19 288.59 L 398.24 288.59 L 398.35 288.59 L 398.43 288.59 L 398.53 288.66 L 398.66 288.66 L 398.94 288.65 L 399.05 288.65 L 399.16 288.65 L 399.83 287.72 L 400.41 287.47 L 401.11 286.80 L 401.29 286.80 L 401.48 286.80 L 401.70 286.80 L 405.75 286.72 L 406.08 286.72 L 444.42 286.60 L 565.13 286.43 L 565.53 286.37 L 565.81 286.37 L 566.09 286.37 L 566.51 285.94 L 566.65 285.94 L 566.76 285.94 L 566.95 284.38 L 567.23 284.67 L 567.46 284.65 L 567.51 284.65 L 567.69 284.64 L 567.74 284.64 L 567.93 284.64 L 568.11 284.56 L 568.66 283.58 L 568.68 283.58 L 568.83 283.49 L 569.35 280.30 L 569.37 280.30 L 569.47 280.30 L 569.59 280.25 L 570.16 278.76 L 570.17 278.76 L 570.29 278.76 L 570.42 278.73 L 570.63 278.19 L 570.64 278.19 L 570.74 278.18 L 570.75 278.18 L 570.80 277.88 L 571.04 275.77 L 571.07 275.77 L 571.15 275.77 L 571.41 275.59 L 571.46 275.59 L 571.66 275.24 L 572.00 275.24 L 572.05 275.24 L 572.09 275.24 L 572.15 275.24 L 572.32 275.23 L 572.50 274.28 L 572.52 274.28 L 572.62 274.28 L 572.72 273.56 L 572.75 273.56 L 572.85 272.79 L 572.90 272.75 L 573.11 271.99 L 573.14 271.99 L 573.24 271.99 L 573.39 271.98 L 574.26 271.98 L 574.69 271.97 L 584.12 271.97 L 584.21 271.97 L 584.31 271.97 L 584.47 271.97 L 584.82 271.77 L 584.85 271.77 L 584.91 271.71 L 585.14 270.65 L 585.16 270.65 L 587.22 270.68 L 587.35 270.47 L 588.39 270.47 L 588.50 270.46 L 588.62 270.38 L 589.87 269.52 L 590.41 269.35 L 590.54 269.29 L 590.99 267.65 L 591.27 267.65 L 591.73 267.51 L 592.56 267.51 L 605.18 267.50 L 605.93 267.41 L 605.97 267.43 L 607.02 267.43 L 607.08 267.43 L 607.45 267.43 L 607.88 267.39 L 607.88 267.39 L 607.93 267.39 L 608.49 266.43 L 609.79 266.40 L 609.87 266.40 L 610.00 266.40 L 610.20 266.36 L 610.25 266.33 L 610.33 266.33 L 610.93 266.29 L 611.42 266.29 L 611.68 266.29 L 611.71 266.29 L 612.25 266.27 L 612.67 266.15 L 612.69 266.15 L 612.74 266.15 L 612.79 266.15 L 626.49 265.93 L 626.52 265.93 L 626.56 265.93 L 626.82 265.93 L 627.03 265.93 L 628.24 264.98 L 628.54 264.92 L 629.40 264.85 L 630.15 264.80 L 630.71 264.80 L 630.86 264.80 L 631.56 263.36 L 631.81 263.32 L 631.90 263.27 L 633.93 262.26 L 633.95 262.26 L 634.06 262.25 L 634.45 262.24 L 634.45 262.24 L 634.47 262.24 L 634.54 262.21 L 634.72 262.16 L 634.94 262.05 L 637.04 260.39 L 637.31 260.30 L 637.50 260.30 L 637.53 260.30 L 637.57 260.30 L 646.90 260.30 L 647.20 260.29 L 647.38 260.29 L 647.44 260.29 L 648.32 260.29 L 648.51 260.29 L 648.67 260.29 L 648.77 260.26 L 649.06 258.07 L 649.11 258.06 L 649.50 258.07 L 649.59 258.05 L 649.93 257.20 L 650.00 257.16"/>
	</g>
	<g id="poloto_plot2" class="poloto_plot poloto_imgs poloto_line poloto2 poloto_stroke" fill="none" stroke="black">
		<path d=" M 150.00 391.51 L 150.03 391.50 L 150.05 391.50 L 150.06 391.50 L 150.08 391.50 L 150.12 389.33 L 150.25 389.03 L 150.54 389.03 L 150.98 389.01 L 151.20 387.71 L 151.65 387.60 L 151.73 387.56 L 151.78 387.53 L 152.30 386.94 L 153.28 386.49 L 153.59 386.40 L 153.67 386.40 L 154.26 386.37 L 154.93 386.37 L 154.94 386.37 L 154.94 386.37 L 164.11 386.37 L 164.17 386.36 L 164.29 386.35 L 164.34 386.35 L 164.69 386.22 L 164.85 386.18 L 165.23 385.97 L 165.29 385.87 L 165.40 385.68 L 165.52 385.66 L 165.55 385.65 L 165.65 385.62 L 165.75 385.62 L 165.84 385.62 L 166.10 385.40 L 166.33 385.20 L 166.37 385.20 L 166.48 385.09 L 167.20 384.82 L 167.22 384.82 L 167.31 384.74 L 167.73 384.45 L 168.06 384.10 L 168.44 383.95 L 168.51 383.95 L 168.52 383.96 L 168.60 383.76 L 168.74 383.76 L 168.92 383.73 L 169.28 383.59 L 169.30 383.33 L 169.37 383.33 L 169.45 383.21 L 169.66 383.21 L 169.68 383.21 L 169.90 382.83 L 169.98 382.80 L 170.06 382.77 L 170.14 382.59 L 171.26 382.49 L 171.53 382.45 L 172.15 382.19 L 172.28 382.19 L 172.38 382.17 L 172.43 381.97 L 172.86 380.91 L 173.05 380.90 L 173.27 380.58 L 173.38 380.55 L 173.64 380.40 L 173.75 380.35 L 173.90 380.12 L 174.04 379.94 L 174.54 379.94 L 174.55 379.91 L 174.58 379.76 L 174.74 378.73 L 183.24 378.63 L 184.12 378.32 L 184.15 378.28 L 185.19 378.02 L 185.28 378.02 L 185.37 377.83 L 185.63 377.70 L 185.75 377.46 L 185.79 377.27 L 185.92 376.89 L 186.22 376.88 L 186.23 376.88 L 186.35 376.61 L 186.46 376.61 L 186.59 376.33 L 186.76 376.11 L 186.83 375.99 L 186.85 375.99 L 187.00 375.73 L 187.02 375.72 L 187.18 375.49 L 187.21 375.48 L 187.45 375.40 L 187.49 375.40 L 187.57 375.31 L 187.68 375.29 L 187.82 375.29 L 187.88 375.28 L 188.36 375.05 L 188.37 375.05 L 188.46 374.59 L 188.67 374.58 L 188.86 374.43 L 188.92 374.43 L 189.01 374.43 L 189.05 374.39 L 189.16 373.76 L 189.70 373.22 L 189.75 372.93 L 189.94 372.90 L 189.99 372.83 L 190.03 372.82 L 190.12 372.68 L 190.20 372.18 L 190.39 372.10 L 190.52 372.09 L 190.63 371.84 L 190.69 371.83 L 191.17 371.64 L 191.43 371.51 L 191.51 371.40 L 191.73 371.39 L 191.75 371.39 L 191.77 371.36 L 191.92 370.45 L 192.03 370.44 L 192.42 370.31 L 192.49 369.95 L 192.56 369.95 L 192.67 369.80 L 192.68 369.71 L 192.72 369.65 L 192.76 369.61 L 192.82 369.61 L 192.87 369.54 L 193.02 368.52 L 193.14 368.41 L 193.25 368.11 L 193.40 368.09 L 193.58 367.98 L 193.75 367.67 L 193.87 366.78 L 194.12 366.71 L 194.12 366.33 L 194.26 366.24 L 206.13 366.24 L 206.36 366.24 L 206.91 365.82 L 207.03 365.82 L 207.12 365.82 L 207.14 365.71 L 207.34 365.54 L 207.48 365.50 L 207.57 365.40 L 207.65 365.32 L 207.70 365.28 L 207.91 365.22 L 208.34 365.31 L 208.45 365.03 L 208.53 364.95 L 208.63 364.94 L 209.18 364.89 L 209.26 364.84 L 209.29 364.84 L 209.33 364.79 L 209.45 364.74 L 209.54 364.64 L 209.94 364.37 L 210.51 364.26 L 210.72 364.21 L 211.36 364.04 L 211.66 363.63 L 211.76 363.56 L 211.89 363.24 L 212.08 362.82 L 212.37 362.71 L 212.77 362.70 L 213.31 362.68 L 213.39 362.53 L 213.78 362.43 L 214.03 362.30 L 214.11 362.19 L 214.27 362.15 L 214.39 361.87 L 215.79 361.74 L 217.12 361.74 L 229.07 361.70 L 229.15 361.55 L 229.21 361.45 L 229.59 361.30 L 230.70 361.02 L 230.75 360.98 L 230.91 360.79 L 231.45 360.71 L 231.71 360.17 L 232.11 360.16 L 232.20 360.14 L 232.29 359.61 L 232.98 359.12 L 233.06 359.11 L 233.21 359.08 L 233.36 359.04 L 233.43 358.86 L 233.82 358.03 L 233.96 357.82 L 234.02 357.81 L 234.11 357.72 L 234.28 357.40 L 234.35 356.57 L 234.53 356.24 L 235.04 356.04 L 235.09 355.63 L 235.14 355.63 L 235.22 355.55 L 235.35 355.44 L 235.40 355.41 L 235.45 355.37 L 235.70 354.41 L 235.76 353.84 L 236.06 353.74 L 236.24 352.78 L 236.35 352.60 L 237.28 351.09 L 237.39 351.06 L 272.48 350.62 L 272.52 350.62 L 285.93 350.50 L 286.66 350.34 L 286.81 350.34 L 287.00 350.26 L 287.07 350.14 L 287.15 350.11 L 292.97 350.10 L 293.73 348.37 L 294.02 348.22 L 294.17 347.62 L 297.79 347.55 L 297.82 347.49 L 298.04 347.48 L 299.12 347.37 L 299.19 347.17 L 299.32 347.10 L 299.70 347.01 L 299.75 346.99 L 299.90 346.66 L 300.07 346.55 L 300.09 346.30 L 311.37 345.97 L 311.45 345.18 L 311.90 344.98 L 311.91 344.68 L 311.99 344.44 L 312.08 344.08 L 312.20 343.13 L 312.39 342.61 L 312.55 341.93 L 312.70 341.93 L 312.76 341.41 L 312.99 341.37 L 313.77 340.88 L 314.08 340.65 L 314.13 340.51 L 314.20 340.51 L 314.24 340.34 L 314.35 339.75 L 314.67 339.69 L 314.71 339.68 L 314.91 339.30 L 314.98 339.30 L 315.01 339.08 L 315.08 338.94 L 315.13 338.94 L 315.17 338.63 L 315.42 338.45 L 315.53 338.14 L 315.67 338.13 L 315.76 337.96 L 315.80 337.73 L 316.05 337.60 L 316.12 337.47 L 316.16 337.47 L 316.23 337.47 L 316.27 337.23 L 316.30 337.24 L 316.32 337.23 L 316.44 337.15 L 316.48 336.88 L 316.60 336.88 L 316.69 336.82 L 316.95 336.80 L 317.26 336.77 L 317.27 336.77 L 317.35 336.75 L 317.64 336.75 L 317.78 336.75 L 317.92 336.75 L 318.06 336.71 L 318.16 336.39 L 318.56 336.39 L 318.59 336.20 L 318.64 336.20 L 318.68 335.99 L 318.94 335.91 L 318.98 335.86 L 319.17 335.86 L 336.51 335.81 L 337.50 335.72 L 337.53 335.72 L 337.73 335.72 L 337.74 335.72 L 337.87 335.34 L 337.97 335.33 L 338.05 335.23 L 338.17 335.17 L 338.21 335.14 L 338.25 335.12 L 338.44 335.09 L 338.81 335.01 L 339.05 334.51 L 339.32 334.48 L 339.33 334.45 L 339.37 334.03 L 339.41 334.03 L 339.92 334.03 L 339.93 333.99 L 340.01 333.60 L 340.23 333.55 L 340.38 333.54 L 340.41 333.53 L 340.42 333.48 L 340.48 333.46 L 340.52 333.06 L 340.54 333.05 L 340.66 333.05 L 340.67 333.02 L 340.95 332.98 L 341.69 332.96 L 341.86 332.93 L 341.92 332.92 L 341.95 332.79 L 342.00 332.79 L 342.10 332.35 L 353.96 332.21 L 353.97 332.08 L 354.07 331.99 L 354.10 331.98 L 354.17 331.60 L 354.30 331.51 L 354.32 331.48 L 354.53 331.48 L 354.59 331.48 L 354.62 331.10 L 354.82 331.06 L 355.33 331.04 L 355.34 331.02 L 355.47 330.81 L 355.52 330.82 L 355.55 330.47 L 355.98 330.47 L 355.99 330.45 L 356.64 330.36 L 356.71 329.95 L 356.95 329.95 L 357.21 329.95 L 357.28 329.64 L 357.33 329.40 L 357.45 329.39 L 357.79 329.34 L 357.85 329.32 L 357.99 329.22 L 358.15 329.22 L 358.65 329.22 L 358.71 329.22 L 358.82 329.20 L 358.83 329.20 L 358.99 329.20 L 359.37 329.17 L 359.76 329.13 L 359.82 329.13 L 359.90 329.09 L 360.01 328.97 L 360.31 328.97 L 360.81 328.84 L 360.97 328.60 L 361.25 328.58 L 362.34 328.32 L 362.57 328.32 L 362.75 328.32 L 363.02 328.31 L 363.11 328.29 L 363.38 328.16 L 363.81 328.15 L 363.87 328.03 L 363.95 327.98 L 364.00 327.99 L 364.04 327.95 L 364.38 327.93 L 372.23 327.92 L 372.31 327.92 L 372.79 327.92 L 372.84 327.91 L 372.95 327.56 L 373.04 327.54 L 373.05 327.55 L 373.32 327.54 L 373.39 327.52 L 375.00 327.00 L 375.19 326.95 L 375.33 326.94 L 375.36 326.93 L 375.86 326.92 L 376.03 327.00 L 376.06 326.99 L 376.33 326.96 L 376.62 326.47 L 376.65 326.46 L 376.90 326.45 L 377.00 326.45 L 377.09 326.45 L 377.30 326.34 L 377.73 325.90 L 377.82 325.90 L 377.90 325.84 L 378.07 325.43 L 378.51 324.99 L 378.89 325.02 L 378.97 324.78 L 379.36 324.78 L 379.43 324.75 L 379.49 324.73 L 379.53 324.49 L 379.67 324.49 L 379.70 324.49 L 379.77 324.49 L 379.99 324.49 L 380.33 324.30 L 380.54 324.28 L 380.79 324.28 L 380.90 324.28 L 381.14 324.28 L 381.53 324.28 L 381.93 324.28 L 382.23 324.28 L 382.30 324.27 L 382.38 324.27 L 382.38 324.18 L 382.61 324.12 L 382.68 324.12 L 382.77 324.11 L 383.42 324.11 L 383.43 323.88 L 383.60 323.88 L 384.36 323.88 L 384.86 323.88 L 385.22 323.83 L 385.23 323.73 L 385.26 323.73 L 396.26 323.58 L 396.30 323.57 L 396.43 323.56 L 396.49 323.42 L 396.53 323.42 L 396.53 323.41 L 397.00 323.37 L 397.11 322.90 L 397.25 322.80 L 397.48 321.88 L 397.63 321.87 L 397.82 321.48 L 397.93 321.52 L 397.98 321.52 L 398.03 321.02 L 398.17 320.93 L 398.19 320.58 L 398.24 320.53 L 398.35 320.50 L 398.43 320.32 L 398.53 322.39 L 398.66 322.36 L 398.94 321.53 L 399.05 321.35 L 399.16 321.16 L 399.83 320.83 L 400.41 320.48 L 401.11 320.00 L 401.29 319.94 L 401.48 319.94 L 401.70 319.90 L 405.75 319.66 L 406.08 319.63 L 444.42 318.99 L 565.13 318.96 L 565.53 318.67 L 565.81 318.63 L 566.09 318.63 L 566.51 318.37 L 566.65 318.06 L 566.76 317.49 L 566.95 317.34 L 567.23 317.39 L 567.46 317.06 L 567.51 317.06 L 567.69 316.95 L 567.74 316.96 L 567.93 316.40 L 568.11 315.56 L 568.66 315.47 L 568.68 315.38 L 568.83 314.29 L 569.35 314.25 L 569.37 314.14 L 569.47 314.08 L 569.59 313.09 L 570.16 313.04 L 570.17 312.90 L 570.29 312.83 L 570.42 312.18 L 570.63 312.16 L 570.64 312.05 L 570.74 310.97 L 570.75 310.94 L 570.80 310.91 L 571.04 310.91 L 571.07 310.80 L 571.15 310.72 L 571.41 310.62 L 571.46 310.61 L 571.66 310.56 L 572.00 310.60 L 572.05 310.55 L 572.09 310.52 L 572.15 310.49 L 572.32 309.37 L 572.50 309.34 L 572.52 309.25 L 572.62 308.10 L 572.72 307.68 L 572.75 307.53 L 572.85 306.97 L 572.90 305.99 L 573.11 305.98 L 573.14 305.93 L 573.24 305.73 L 573.39 305.72 L 574.26 305.69 L 574.69 305.67 L 584.12 305.71 L 584.21 305.49 L 584.31 305.33 L 584.47 304.55 L 584.82 304.54 L 584.85 304.46 L 584.91 303.48 L 585.14 303.47 L 585.16 303.38 L 587.22 303.28 L 587.35 302.92 L 588.39 302.75 L 588.50 302.71 L 588.62 301.63 L 589.87 301.31 L 590.41 301.05 L 590.54 300.23 L 590.99 300.23 L 591.27 299.78 L 591.73 299.07 L 592.56 298.65 L 605.18 298.64 L 605.93 298.63 L 605.97 298.63 L 607.02 298.47 L 607.08 298.39 L 607.45 298.32 L 607.88 297.41 L 607.88 297.41 L 607.93 297.37 L 608.49 297.17 L 609.79 296.57 L 609.87 296.50 L 610.00 296.50 L 610.20 296.24 L 610.25 296.20 L 610.33 296.15 L 610.93 296.15 L 611.42 296.15 L 611.68 296.15 L 611.71 296.11 L 612.25 295.18 L 612.67 295.10 L 612.69 295.02 L 612.74 294.94 L 612.79 294.71 L 626.49 294.53 L 626.52 294.51 L 626.56 294.49 L 626.82 294.38 L 627.03 294.27 L 628.24 293.74 L 628.54 293.64 L 629.40 293.24 L 630.15 293.18 L 630.71 293.01 L 630.86 291.65 L 631.56 291.42 L 631.81 291.35 L 631.90 290.36 L 633.93 289.41 L 633.95 289.41 L 634.06 288.97 L 634.45 288.93 L 634.45 288.93 L 634.47 288.82 L 634.54 288.70 L 634.72 288.60 L 634.94 287.93 L 637.04 287.57 L 637.31 287.42 L 637.50 287.05 L 637.53 287.01 L 637.57 286.77 L 646.90 285.91 L 647.20 285.29 L 647.38 285.27 L 647.44 284.85 L 648.32 284.68 L 648.51 284.23 L 648.67 284.23 L 648.77 283.32 L 649.06 283.10 L 649.11 283.07 L 649.50 283.02 L 649.59 282.26 L 649.93 282.17 L 650.00 281.58"/>
	</g>
	<g class="poloto_legend poloto_imgs poloto_line poloto0 poloto_stroke"><line x1="680" x2="730" y1="81.25" y2="81.25"/></g>
	<g class="poloto_legend poloto_imgs poloto_line poloto1 poloto_stroke"><line x1="680" x2="730" y1="131.25" y2="131.25"/></g>
	<g class="poloto_legend poloto_imgs poloto_line poloto2 poloto_stroke"><line x1="680" x2="730" y1="181.25" y2="181.25"/></g>
	<text class="poloto_legend poloto_text poloto_line poloto0" x="675" y="100">total</text>
	<text class="poloto_legend poloto_text poloto_line poloto1" x="675" y="150">code</text>
	<text class="poloto_legend poloto_text poloto_line poloto2" x="675" y="200">docs</text>
	<text class="poloto_text poloto_name poloto_title" x="400.00" y="37.50">Workspace lines over time</text>
	<text class="poloto_text poloto_name poloto_x" x="400.00" y="640">date (JST)</text>
	<text class="poloto_text poloto_name poloto_y" x="37.50" y="250.00" transform="rotate(-90,37.50,250.00)">lines</text>
	<text class="poloto_text poloto_ticks poloto_y">
		<tspan x="135.00" y="400.00">0</tspan>
		<tspan x="135.00" y="319.27">50K</tspan>
		<tspan x="135.00" y="238.54">100K</tspan>
		<tspan x="135.00" y="157.80">150K</tspan>
	</text>
	<g class="poloto_imgs poloto_ticks poloto_y" stroke="black">
		<line x1="150.00" x2="144.00" y1="400.00" y2="400.00"/>
		<line x1="150.00" x2="144.00" y1="319.27" y2="319.27"/>
		<line x1="150.00" x2="144.00" y1="238.54" y2="238.54"/>
		<line x1="150.00" x2="144.00" y1="157.80" y2="157.80"/>
	</g>
	<g class="poloto_text poloto_ticks poloto_x">
		<text x="228.91" y="430.00" text-anchor="end" transform="rotate(-90 228.91 430.00)">2026-04-24 12:06</text>
		<text x="350.39" y="430.00" text-anchor="end" transform="rotate(-90 350.39 430.00)">2026-04-30 07:00</text>
		<text x="471.86" y="430.00" text-anchor="end" transform="rotate(-90 471.86 430.00)">2026-05-06 01:53</text>
		<text x="593.34" y="430.00" text-anchor="end" transform="rotate(-90 593.34 430.00)">2026-05-11 20:46</text>
	</g>
	<g class="poloto_imgs poloto_ticks poloto_x" stroke="black">
		<line x1="228.91" x2="228.91" y1="400.00" y2="405.00"/>
		<line x1="350.39" x2="350.39" y1="400.00" y2="405.00"/>
		<line x1="471.86" x2="471.86" y1="400.00" y2="405.00"/>
		<line x1="593.34" x2="593.34" y1="400.00" y2="405.00"/>
	</g>
	<path class="poloto_imgs poloto_ticks poloto_x" stroke="black" style="stroke-dasharray:12.147356176517606;stroke-dashoffset:-78.91481350653339;" d=" M 150.00 400.00 L 650.00 400.00"/>
	<path class="poloto_imgs poloto_ticks poloto_y" stroke="black" style="stroke-dasharray:8.07319698600646;stroke-dashoffset:-0;" d=" M 150.00 400.00 L 150.00 100.00"/>
</svg>

