<svg class="poloto" width="800" height="680" viewBox="0 0 800 680" xmlns="http://www.w3.org/2000/svg">
	<style>
.poloto{
  stroke-linecap:round;
  stroke-linejoin:round;
  font-family:Roboto,sans-serif;
  font-size:16px;
}
.poloto_background{fill:AliceBlue;}
.poloto_scatter{stroke-width:7}
.poloto_line{stroke-width:2}
.poloto_text{fill: black;}
.poloto_name{font-size:24px;dominant-baseline:auto;text-anchor:middle;}
.poloto_where{dominant-baseline:middle;text-anchor:start}
.poloto_text.poloto_legend{font-size:20px;dominant-baseline:middle;text-anchor:start;}
.poloto_text.poloto_ticks.poloto_y{dominant-baseline:middle;text-anchor:end}
.poloto_text.poloto_ticks.poloto_x{dominant-baseline:auto;text-anchor:middle}
.poloto_imgs.poloto_ticks{stroke: black;stroke-width:3;fill:none;stroke-dasharray:none}
.poloto_grid{stroke:gray;stroke-width:0.5}

.poloto0.poloto_stroke{stroke:blue;}
.poloto1.poloto_stroke{stroke:red;}
.poloto2.poloto_stroke{stroke:green;}
.poloto3.poloto_stroke{stroke:gold;}
.poloto4.poloto_stroke{stroke:aqua;}
.poloto5.poloto_stroke{stroke:lime;}
.poloto6.poloto_stroke{stroke:orange;}
.poloto7.poloto_stroke{stroke:chocolate;}
.poloto0.poloto_fill{fill:blue;}
.poloto1.poloto_fill{fill:red;}
.poloto2.poloto_fill{fill:green;}
.poloto3.poloto_fill{fill:gold;}
.poloto4.poloto_fill{fill:aqua;}
.poloto5.poloto_fill{fill:lime;}
.poloto6.poloto_fill{fill:orange;}
.poloto7.poloto_fill{fill:chocolate;}
	</style>
	<circle r="1e5" class="poloto_background" fill="white"/>
	<g id="poloto_plot0" class="poloto_plot poloto_imgs poloto_line poloto0 poloto_stroke" fill="none" stroke="black">
		<path d=" M 150.00 360.11 L 150.04 360.08 L 150.06 360.06 L 150.07 360.06 L 150.10 360.06 L 150.14 355.73 L 150.29 355.21 L 150.64 355.19 L 151.17 354.83 L 151.43 352.63 L 151.96 352.49 L 152.05 352.38 L 152.12 352.33 L 152.74 351.25 L 153.90 350.38 L 154.27 346.98 L 154.36 346.99 L 155.07 346.85 L 155.87 346.84 L 155.88 346.84 L 155.88 346.84 L 166.79 346.84 L 166.86 346.83 L 167.00 346.80 L 167.06 346.77 L 167.48 346.57 L 167.67 346.52 L 168.13 346.20 L 168.19 346.06 L 168.33 345.76 L 168.46 345.71 L 168.50 345.71 L 168.62 345.63 L 168.74 345.63 L 168.86 345.63 L 169.16 345.13 L 169.43 344.81 L 169.48 344.82 L 169.61 344.63 L 170.47 345.41 L 170.49 345.41 L 170.60 345.28 L 171.09 344.70 L 171.49 344.00 L 171.94 343.70 L 172.03 343.64 L 172.04 343.65 L 172.13 343.38 L 172.30 343.38 L 172.52 343.28 L 172.95 343.02 L 172.97 342.61 L 173.05 342.61 L 173.15 342.40 L 173.40 342.40 L 173.42 342.40 L 173.68 341.82 L 173.78 341.79 L 173.87 341.74 L 173.97 341.51 L 175.30 341.20 L 175.62 341.13 L 176.36 340.72 L 176.52 340.72 L 176.63 340.70 L 176.70 340.41 L 177.20 338.69 L 177.43 338.66 L 177.69 338.08 L 177.82 338.03 L 178.13 337.55 L 178.26 337.38 L 178.45 337.07 L 178.61 336.80 L 179.20 332.84 L 179.22 332.74 L 179.25 332.51 L 179.45 330.61 L 189.56 330.47 L 190.60 328.30 L 190.64 328.25 L 191.88 327.91 L 191.98 327.90 L 192.10 327.47 L 192.40 327.25 L 192.54 326.88 L 192.59 326.56 L 192.74 325.99 L 193.11 325.98 L 193.12 325.59 L 193.26 325.17 L 193.39 325.16 L 193.55 324.69 L 193.75 324.35 L 193.82 324.17 L 193.85 324.17 L 194.03 323.80 L 194.05 323.79 L 194.24 323.42 L 194.28 323.41 L 194.57 321.62 L 194.61 321.62 L 194.72 321.32 L 194.84 321.30 L 195.00 321.30 L 195.08 321.26 L 195.64 320.93 L 195.66 320.94 L 195.77 320.15 L 196.02 320.13 L 196.24 318.93 L 196.32 318.83 L 196.42 318.82 L 196.48 318.77 L 196.60 317.85 L 197.24 310.08 L 197.31 309.71 L 197.52 309.67 L 197.59 309.58 L 197.64 309.55 L 197.74 309.35 L 197.84 308.47 L 198.07 308.29 L 198.22 308.27 L 198.35 307.88 L 198.42 307.87 L 199.00 307.58 L 199.30 307.36 L 199.40 307.01 L 199.66 307.00 L 199.69 307.00 L 199.71 306.96 L 199.88 305.10 L 200.02 304.99 L 200.48 303.10 L 200.56 302.55 L 200.65 302.54 L 200.77 302.34 L 200.79 302.19 L 200.84 302.10 L 200.89 302.05 L 200.95 302.05 L 201.01 301.95 L 201.20 300.41 L 201.34 300.18 L 201.47 299.73 L 201.65 299.70 L 201.86 299.56 L 202.06 298.47 L 202.20 296.95 L 202.50 296.87 L 202.50 296.31 L 202.68 296.12 L 216.79 296.12 L 217.06 296.11 L 217.73 295.31 L 217.87 295.29 L 217.98 295.29 L 218.00 295.09 L 218.24 294.84 L 218.41 294.80 L 218.51 294.65 L 218.60 294.55 L 218.66 294.49 L 218.92 294.42 L 219.42 294.32 L 219.55 293.91 L 219.65 293.81 L 219.77 293.79 L 220.42 293.59 L 220.52 293.47 L 220.56 293.47 L 220.60 293.31 L 220.75 293.24 L 220.86 293.09 L 221.33 292.08 L 222.01 291.92 L 222.26 291.86 L 223.02 291.60 L 223.37 286.72 L 223.50 286.61 L 223.65 286.13 L 223.88 285.49 L 224.22 285.31 L 224.70 285.29 L 225.34 285.28 L 225.43 285.06 L 225.90 284.84 L 226.20 284.48 L 226.30 284.34 L 226.48 284.28 L 226.62 283.85 L 228.29 283.37 L 229.88 283.37 L 244.09 283.33 L 244.19 283.11 L 244.27 282.98 L 244.71 282.77 L 246.04 281.08 L 246.09 280.97 L 246.28 280.54 L 246.93 280.43 L 247.24 279.29 L 247.71 279.28 L 247.82 279.26 L 247.92 278.48 L 248.75 274.04 L 248.85 274.03 L 249.02 274.00 L 249.20 273.94 L 249.29 273.46 L 249.75 271.78 L 249.91 271.47 L 249.99 271.45 L 250.09 270.67 L 250.30 269.58 L 250.38 268.43 L 250.59 267.91 L 251.21 262.14 L 251.26 261.55 L 251.32 261.55 L 251.42 261.45 L 251.57 261.30 L 251.63 261.25 L 251.69 261.19 L 251.99 259.80 L 252.06 258.83 L 252.42 258.63 L 252.63 257.18 L 252.76 256.26 L 253.87 242.80 L 253.99 242.76 L 295.76 242.12 L 295.80 242.12 L 311.76 241.94 L 312.63 241.57 L 312.81 241.57 L 313.04 241.46 L 313.12 241.29 L 313.21 241.25 L 320.13 241.15 L 321.05 238.59 L 321.39 238.36 L 321.57 237.42 L 325.88 237.23 L 325.91 236.97 L 326.17 236.95 L 327.46 235.33 L 327.54 235.04 L 327.70 234.94 L 328.15 234.82 L 328.21 234.78 L 328.39 234.30 L 328.59 234.16 L 328.62 233.80 L 342.03 233.31 L 342.13 231.93 L 342.66 231.63 L 342.67 229.32 L 342.77 228.97 L 342.88 228.41 L 343.03 226.82 L 343.26 225.97 L 343.45 224.98 L 343.62 224.97 L 343.69 224.22 L 343.96 224.15 L 344.89 220.43 L 345.26 220.04 L 345.33 219.80 L 345.40 219.80 L 345.45 219.54 L 345.58 218.62 L 345.96 218.19 L 346.02 218.13 L 346.25 214.86 L 346.33 214.85 L 346.37 214.49 L 346.46 214.23 L 346.51 214.22 L 346.56 213.73 L 346.86 211.96 L 346.99 211.46 L 347.15 211.39 L 347.26 206.66 L 347.31 206.28 L 347.60 203.57 L 347.69 203.36 L 347.74 203.36 L 347.82 203.35 L 347.86 202.97 L 347.90 202.98 L 347.92 202.98 L 348.07 198.20 L 348.12 197.78 L 348.27 197.76 L 348.37 197.67 L 348.67 197.54 L 349.04 197.36 L 349.06 197.36 L 349.16 197.30 L 349.50 197.21 L 349.66 197.21 L 349.83 197.21 L 350.00 195.13 L 350.12 194.63 L 350.59 194.62 L 350.63 194.29 L 350.69 194.29 L 350.73 193.93 L 351.04 190.92 L 351.09 190.85 L 351.32 190.83 L 371.96 190.74 L 373.13 190.59 L 373.17 190.59 L 373.40 190.58 L 373.42 190.59 L 373.57 189.98 L 373.69 189.96 L 373.79 189.67 L 373.93 189.59 L 373.97 189.55 L 374.03 189.53 L 374.25 189.19 L 374.69 188.89 L 374.98 187.92 L 375.29 187.00 L 375.31 186.95 L 375.36 186.09 L 375.40 186.06 L 376.01 185.55 L 376.03 185.49 L 376.12 184.81 L 376.39 184.73 L 376.55 184.67 L 376.59 183.45 L 376.60 183.38 L 376.67 184.54 L 376.72 183.83 L 376.75 183.80 L 376.90 182.17 L 376.91 182.13 L 377.23 181.99 L 378.11 181.97 L 378.32 181.91 L 378.39 181.90 L 378.43 181.68 L 378.48 181.68 L 378.61 180.88 L 392.71 179.32 L 392.74 179.10 L 392.86 178.95 L 392.89 178.65 L 392.97 165.03 L 393.13 159.45 L 393.14 159.41 L 393.40 159.30 L 393.46 159.30 L 393.51 158.66 L 393.74 158.60 L 394.35 157.28 L 394.36 157.25 L 394.52 156.85 L 394.58 156.86 L 394.61 156.20 L 395.12 155.42 L 395.13 155.39 L 395.90 155.09 L 396.00 154.40 L 396.27 154.41 L 396.59 152.65 L 396.67 151.96 L 396.73 151.40 L 396.87 150.72 L 397.27 150.48 L 397.34 150.31 L 397.52 150.16 L 397.71 150.16 L 398.30 150.16 L 398.37 150.16 L 398.51 150.13 L 398.52 150.12 L 398.71 150.14 L 399.16 150.11 L 399.62 149.85 L 399.69 149.85 L 399.79 149.75 L 399.92 149.56 L 400.28 149.56 L 400.87 149.32 L 401.07 148.77 L 401.39 144.07 L 402.69 148.05 L 402.97 148.03 L 403.18 148.01 L 403.50 148.00 L 403.61 147.93 L 403.93 147.70 L 404.44 147.38 L 404.51 147.16 L 404.60 147.08 L 404.67 147.10 L 404.71 147.03 L 405.11 146.74 L 414.47 146.73 L 414.55 146.74 L 415.13 146.72 L 415.19 146.69 L 415.32 146.10 L 415.43 145.76 L 415.44 145.76 L 415.76 145.71 L 415.84 145.68 L 417.76 144.79 L 417.98 144.72 L 418.15 144.70 L 418.18 144.70 L 418.78 144.48 L 418.98 144.59 L 419.02 144.58 L 419.34 144.53 L 419.68 142.67 L 419.73 142.66 L 420.02 142.44 L 420.14 142.44 L 420.25 142.44 L 420.49 142.24 L 421.01 141.49 L 421.11 141.46 L 421.20 141.25 L 421.42 140.37 L 421.93 139.45 L 422.39 135.13 L 422.48 134.60 L 422.95 134.39 L 423.03 134.28 L 423.11 134.07 L 423.15 133.38 L 423.32 132.13 L 423.35 132.18 L 423.43 132.16 L 423.70 132.15 L 424.10 131.70 L 424.35 131.61 L 424.64 131.59 L 424.78 131.57 L 425.06 131.56 L 425.53 131.56 L 426.00 131.55 L 426.36 131.54 L 426.44 131.53 L 426.54 131.52 L 426.54 131.36 L 426.82 131.28 L 426.90 131.26 L 427.01 131.07 L 427.77 131.04 L 427.79 130.67 L 428.00 130.65 L 428.89 130.66 L 429.49 130.43 L 429.92 130.16 L 429.93 130.01 L 429.97 130.01 L 443.06 129.75 L 443.11 129.74 L 443.26 129.73 L 443.33 129.51 L 443.38 129.49 L 443.38 129.47 L 443.94 129.41 L 444.07 128.63 L 444.23 128.46 L 444.51 126.92 L 444.69 126.90 L 444.92 126.24 L 445.04 126.32 L 445.10 126.32 L 445.17 125.57 L 445.33 125.06 L 445.35 124.51 L 445.41 124.44 L 445.55 124.39 L 445.64 124.14 L 445.76 127.08 L 445.92 127.03 L 446.24 125.86 L 446.38 125.56 L 446.51 125.32 L 447.31 123.63 L 448.00 122.81 L 448.83 121.26 L 449.04 121.18 L 449.27 121.18 L 449.53 121.11 L 454.35 120.67 L 454.74 120.63 L 500.37 119.44 L 644.02 119.16 L 644.50 118.69 L 644.83 118.62 L 645.16 118.62 L 645.66 117.71 L 645.83 117.27 L 645.96 116.44 L 646.19 114.07 L 646.52 114.56 L 646.79 114.05 L 646.85 114.03 L 647.07 113.88 L 647.12 113.88 L 647.36 113.01 L 647.57 111.62 L 648.22 110.14 L 648.24 110.02 L 648.43 108.26 L 649.05 103.90 L 649.06 103.75 L 649.18 103.66 L 649.33 102.10 L 650.00 100.00"/>
	</g>
	<g id="poloto_plot1" class="poloto_plot poloto_imgs poloto_line poloto1 poloto_stroke" fill="none" stroke="black">
		<path d=" M 150.00 376.30 L 150.04 376.28 L 150.06 376.26 L 150.07 376.26 L 150.10 376.26 L 150.14 375.51 L 150.29 375.49 L 150.64 375.47 L 151.17 375.19 L 151.43 375.06 L 151.96 375.09 L 152.05 375.04 L 152.12 375.04 L 152.74 374.98 L 153.90 374.84 L 154.27 371.91 L 154.36 371.91 L 155.07 371.84 L 155.87 371.83 L 155.88 371.83 L 155.88 371.83 L 166.79 371.83 L 166.86 371.83 L 167.00 371.83 L 167.06 371.79 L 167.48 371.77 L 167.67 371.77 L 168.13 371.77 L 168.19 371.77 L 168.33 371.75 L 168.46 371.75 L 168.50 371.75 L 168.62 371.72 L 168.74 371.72 L 168.86 371.72 L 169.16 371.55 L 169.43 371.55 L 169.48 371.55 L 169.61 371.55 L 170.47 372.65 L 170.49 372.65 L 170.60 372.64 L 171.09 372.47 L 171.49 372.29 L 171.94 372.21 L 172.03 372.15 L 172.04 372.15 L 172.13 372.15 L 172.30 372.15 L 172.52 372.08 L 172.95 372.02 L 172.97 372.02 L 173.05 372.02 L 173.15 371.99 L 173.40 371.99 L 173.42 371.99 L 173.68 371.98 L 173.78 371.98 L 173.87 371.98 L 173.97 371.98 L 175.30 371.85 L 175.62 371.84 L 176.36 371.78 L 176.52 371.78 L 176.63 371.78 L 176.70 371.78 L 177.20 371.69 L 177.43 371.69 L 177.69 371.58 L 177.82 371.57 L 178.13 371.34 L 178.26 371.25 L 178.45 371.25 L 178.61 371.25 L 179.20 367.82 L 179.22 367.76 L 179.25 367.76 L 179.45 367.43 L 189.56 367.43 L 190.60 365.95 L 190.64 365.95 L 191.88 365.95 L 191.98 365.95 L 192.10 365.80 L 192.40 365.77 L 192.54 365.77 L 192.59 365.77 L 192.74 365.77 L 193.11 365.77 L 193.12 365.45 L 193.26 365.44 L 193.39 365.44 L 193.55 365.40 L 193.75 365.40 L 193.82 365.40 L 193.85 365.40 L 194.03 365.40 L 194.05 365.40 L 194.24 365.40 L 194.28 365.40 L 194.57 363.95 L 194.61 363.95 L 194.72 363.77 L 194.84 363.77 L 195.00 363.77 L 195.08 363.75 L 195.64 363.75 L 195.66 363.75 L 195.77 363.66 L 196.02 363.66 L 196.24 362.83 L 196.32 362.72 L 196.42 362.72 L 196.48 362.72 L 196.60 362.70 L 197.24 356.58 L 197.31 356.63 L 197.52 356.63 L 197.59 356.63 L 197.64 356.62 L 197.74 356.62 L 197.84 356.54 L 198.07 356.54 L 198.22 356.54 L 198.35 356.53 L 198.42 356.53 L 199.00 356.52 L 199.30 356.51 L 199.40 356.36 L 199.66 356.36 L 199.69 356.36 L 199.71 356.36 L 199.88 355.95 L 200.02 355.84 L 200.48 354.39 L 200.56 354.39 L 200.65 354.39 L 200.77 354.41 L 200.79 354.41 L 200.84 354.41 L 200.89 354.41 L 200.95 354.41 L 201.01 354.41 L 201.20 354.38 L 201.34 354.38 L 201.47 354.36 L 201.65 354.36 L 201.86 354.35 L 202.06 353.81 L 202.20 353.63 L 202.50 353.63 L 202.50 353.62 L 202.68 353.62 L 216.79 353.62 L 217.06 353.61 L 217.73 353.52 L 217.87 353.51 L 217.98 353.51 L 218.00 353.51 L 218.24 353.51 L 218.41 353.51 L 218.51 353.51 L 218.60 353.51 L 218.66 353.50 L 218.92 353.50 L 219.42 353.53 L 219.55 353.53 L 219.65 353.53 L 219.77 353.53 L 220.42 353.41 L 220.52 353.36 L 220.56 353.36 L 220.60 353.28 L 220.75 353.27 L 220.86 353.27 L 221.33 352.72 L 222.01 352.72 L 222.26 352.72 L 223.02 352.72 L 223.37 348.97 L 223.50 348.96 L 223.65 348.96 L 223.88 348.96 L 224.22 348.96 L 224.70 348.96 L 225.34 348.96 L 225.43 348.96 L 225.90 348.87 L 226.20 348.71 L 226.30 348.71 L 226.48 348.71 L 226.62 348.69 L 228.29 348.45 L 229.88 348.45 L 244.09 348.45 L 244.19 348.45 L 244.27 348.45 L 244.71 348.45 L 246.04 347.27 L 246.09 347.23 L 246.28 347.11 L 246.93 347.10 L 247.24 346.82 L 247.71 346.82 L 247.82 346.82 L 247.92 346.82 L 248.75 343.53 L 248.85 343.53 L 249.02 343.53 L 249.20 343.53 L 249.29 343.32 L 249.75 342.93 L 249.91 342.93 L 249.99 342.93 L 250.09 342.32 L 250.30 341.72 L 250.38 341.72 L 250.59 341.70 L 251.21 336.81 L 251.26 336.81 L 251.32 336.81 L 251.42 336.81 L 251.57 336.81 L 251.63 336.81 L 251.69 336.81 L 251.99 336.81 L 252.06 336.70 L 252.42 336.68 L 252.63 336.61 L 252.76 336.02 L 253.87 326.27 L 253.99 326.27 L 295.76 326.27 L 295.80 326.27 L 311.76 326.27 L 312.63 326.12 L 312.81 326.12 L 313.04 326.12 L 313.12 326.12 L 313.21 326.12 L 320.13 326.05 L 321.05 325.95 L 321.39 325.95 L 321.57 325.92 L 325.88 325.84 L 325.91 325.71 L 326.17 325.71 L 327.46 324.39 L 327.54 324.39 L 327.70 324.39 L 328.15 324.39 L 328.21 324.39 L 328.39 324.39 L 328.59 324.39 L 328.62 324.39 L 342.03 324.37 L 342.13 324.13 L 342.66 324.13 L 342.67 322.54 L 342.77 322.54 L 342.88 322.54 L 343.03 322.39 L 343.26 322.39 L 343.45 322.32 L 343.62 322.32 L 343.69 322.32 L 343.96 322.30 L 344.89 319.60 L 345.26 319.59 L 345.33 319.58 L 345.40 319.58 L 345.45 319.58 L 345.58 319.54 L 345.96 319.20 L 346.02 319.15 L 346.25 316.72 L 346.33 316.71 L 346.37 316.71 L 346.46 316.68 L 346.51 316.68 L 346.56 316.68 L 346.86 315.35 L 346.99 315.34 L 347.15 315.30 L 347.26 311.19 L 347.31 311.19 L 347.60 308.87 L 347.69 308.87 L 347.74 308.87 L 347.82 308.87 L 347.86 308.87 L 347.90 308.87 L 347.92 308.87 L 348.07 304.59 L 348.12 304.58 L 348.27 304.57 L 348.37 304.57 L 348.67 304.48 L 349.04 304.36 L 349.06 304.36 L 349.16 304.34 L 349.50 304.27 L 349.66 304.27 L 349.83 304.27 L 350.00 302.42 L 350.12 302.42 L 350.59 302.41 L 350.63 302.41 L 350.69 302.41 L 350.73 302.41 L 351.04 299.77 L 351.09 299.77 L 351.32 299.75 L 371.96 299.75 L 373.13 299.74 L 373.17 299.74 L 373.40 299.74 L 373.42 299.74 L 373.57 299.74 L 373.69 299.74 L 373.79 299.60 L 373.93 299.60 L 373.97 299.60 L 374.03 299.60 L 374.25 299.37 L 374.69 299.21 L 374.98 299.06 L 375.29 298.31 L 375.31 298.31 L 375.36 298.13 L 375.40 298.10 L 376.01 297.65 L 376.03 297.65 L 376.12 297.58 L 376.39 297.58 L 376.55 297.54 L 376.59 296.44 L 376.60 296.44 L 376.67 297.52 L 376.72 297.46 L 376.75 297.45 L 376.90 295.98 L 376.91 295.98 L 377.23 295.92 L 378.11 295.92 L 378.32 295.92 L 378.39 295.92 L 378.43 295.92 L 378.48 295.92 L 378.61 295.82 L 392.71 294.61 L 392.74 294.61 L 392.86 294.60 L 392.89 294.33 L 392.97 281.32 L 393.13 276.48 L 393.14 276.48 L 393.40 276.39 L 393.46 276.39 L 393.51 276.37 L 393.74 276.37 L 394.35 275.19 L 394.36 275.19 L 394.52 275.12 L 394.58 275.12 L 394.61 275.02 L 395.12 274.32 L 395.13 274.32 L 395.90 274.17 L 396.00 274.12 L 396.27 274.13 L 396.59 272.54 L 396.67 272.37 L 396.73 272.23 L 396.87 271.63 L 397.27 271.48 L 397.34 271.35 L 397.52 271.35 L 397.71 271.35 L 398.30 271.35 L 398.37 271.35 L 398.51 271.35 L 398.52 271.35 L 398.71 271.37 L 399.16 271.37 L 399.62 271.20 L 399.69 271.20 L 399.79 271.18 L 399.92 271.18 L 400.28 271.18 L 400.87 271.18 L 401.07 271.04 L 401.39 266.84 L 402.69 270.80 L 402.97 270.78 L 403.18 270.77 L 403.50 270.77 L 403.61 270.73 L 403.93 270.70 L 404.44 270.46 L 404.51 270.46 L 404.60 270.46 L 404.67 270.46 L 404.71 270.46 L 405.11 270.23 L 414.47 270.23 L 414.55 270.24 L 415.13 270.22 L 415.19 270.22 L 415.32 270.18 L 415.43 269.89 L 415.44 269.88 L 415.76 269.85 L 415.84 269.85 L 417.76 269.61 L 417.98 269.61 L 418.15 269.61 L 418.18 269.61 L 418.78 269.44 L 418.98 269.44 L 419.02 269.44 L 419.34 269.43 L 419.68 268.44 L 419.73 268.44 L 420.02 268.27 L 420.14 268.27 L 420.25 268.27 L 420.49 268.27 L 421.01 268.25 L 421.11 268.23 L 421.20 268.13 L 421.42 267.96 L 421.93 267.81 L 422.39 263.85 L 422.48 263.72 L 422.95 263.53 L 423.03 263.48 L 423.11 263.34 L 423.15 263.06 L 423.32 261.88 L 423.35 261.93 L 423.43 261.90 L 423.70 261.90 L 424.10 261.73 L 424.35 261.67 L 424.64 261.65 L 424.78 261.64 L 425.06 261.63 L 425.53 261.63 L 426.00 261.61 L 426.36 261.61 L 426.44 261.60 L 426.54 261.60 L 426.54 261.59 L 426.82 261.59 L 426.90 261.58 L 427.01 261.43 L 427.77 261.41 L 427.79 261.41 L 428.00 261.40 L 428.89 261.39 L 429.49 261.20 L 429.92 261.03 L 429.93 261.03 L 429.97 261.03 L 443.06 261.03 L 443.11 261.03 L 443.26 261.03 L 443.33 261.03 L 443.38 261.00 L 443.38 261.00 L 443.94 261.00 L 444.07 260.99 L 444.23 260.96 L 444.51 260.93 L 444.69 260.93 L 444.92 260.84 L 445.04 260.84 L 445.10 260.84 L 445.17 260.84 L 445.33 260.48 L 445.35 260.48 L 445.41 260.48 L 445.55 260.48 L 445.64 260.48 L 445.76 260.57 L 445.92 260.57 L 446.24 260.55 L 446.38 260.55 L 446.51 260.55 L 447.31 259.39 L 448.00 259.07 L 448.83 258.24 L 449.04 258.24 L 449.27 258.24 L 449.53 258.24 L 454.35 258.14 L 454.74 258.13 L 500.37 257.99 L 644.02 257.77 L 644.50 257.70 L 644.83 257.69 L 645.16 257.69 L 645.66 257.15 L 645.83 257.15 L 645.96 257.15 L 646.19 255.20 L 646.52 255.58 L 646.79 255.55 L 646.85 255.55 L 647.07 255.53 L 647.12 255.53 L 647.36 255.53 L 647.57 255.44 L 648.22 254.20 L 648.24 254.20 L 648.43 254.09 L 649.05 250.10 L 649.06 250.10 L 649.18 250.10 L 649.33 250.03 L 650.00 248.18"/>
	</g>
	<g id="poloto_plot2" class="poloto_plot poloto_imgs poloto_line poloto2 poloto_stroke" fill="none" stroke="black">
		<path d=" M 150.00 389.37 L 150.04 389.36 L 150.06 389.36 L 150.07 389.36 L 150.10 389.36 L 150.14 386.63 L 150.29 386.26 L 150.64 386.26 L 151.17 386.24 L 151.43 384.61 L 151.96 384.47 L 152.05 384.42 L 152.12 384.38 L 152.74 383.65 L 153.90 383.08 L 154.27 382.97 L 154.36 382.97 L 155.07 382.93 L 155.87 382.93 L 155.88 382.93 L 155.88 382.93 L 166.79 382.93 L 166.86 382.92 L 167.00 382.90 L 167.06 382.90 L 167.48 382.74 L 167.67 382.69 L 168.13 382.42 L 168.19 382.31 L 168.33 382.07 L 168.46 382.04 L 168.50 382.03 L 168.62 381.99 L 168.74 381.99 L 168.86 381.99 L 169.16 381.72 L 169.43 381.47 L 169.48 381.47 L 169.61 381.32 L 170.47 380.99 L 170.49 380.99 L 170.60 380.89 L 171.09 380.53 L 171.49 380.08 L 171.94 379.90 L 172.03 379.90 L 172.04 379.91 L 172.13 379.66 L 172.30 379.66 L 172.52 379.63 L 172.95 379.44 L 172.97 379.12 L 173.05 379.12 L 173.15 378.97 L 173.40 378.97 L 173.42 378.97 L 173.68 378.49 L 173.78 378.46 L 173.87 378.42 L 173.97 378.20 L 175.30 378.07 L 175.62 378.02 L 176.36 377.69 L 176.52 377.69 L 176.63 377.67 L 176.70 377.43 L 177.20 376.09 L 177.43 376.08 L 177.69 375.67 L 177.82 375.64 L 178.13 375.45 L 178.26 375.40 L 178.45 375.11 L 178.61 374.88 L 179.20 374.87 L 179.22 374.84 L 179.25 374.65 L 179.45 373.37 L 189.56 373.23 L 190.60 372.85 L 190.64 372.80 L 191.88 372.48 L 191.98 372.47 L 192.10 372.23 L 192.40 372.07 L 192.54 371.78 L 192.59 371.54 L 192.74 371.06 L 193.11 371.05 L 193.12 371.05 L 193.26 370.71 L 193.39 370.71 L 193.55 370.36 L 193.75 370.08 L 193.82 369.93 L 193.85 369.93 L 194.03 369.60 L 194.05 369.60 L 194.24 369.30 L 194.28 369.29 L 194.57 369.19 L 194.61 369.19 L 194.72 369.08 L 194.84 369.06 L 195.00 369.06 L 195.08 369.04 L 195.64 368.75 L 195.66 368.76 L 195.77 368.18 L 196.02 368.16 L 196.24 367.98 L 196.32 367.98 L 196.42 367.97 L 196.48 367.93 L 196.60 367.13 L 197.24 366.46 L 197.31 366.10 L 197.52 366.07 L 197.59 365.98 L 197.64 365.96 L 197.74 365.79 L 197.84 365.16 L 198.07 365.07 L 198.22 365.05 L 198.35 364.73 L 198.42 364.72 L 199.00 364.49 L 199.30 364.32 L 199.40 364.18 L 199.66 364.17 L 199.69 364.17 L 199.71 364.13 L 199.88 363.00 L 200.02 362.99 L 200.48 362.82 L 200.56 362.37 L 200.65 362.36 L 200.77 362.18 L 200.79 362.07 L 200.84 361.99 L 200.89 361.95 L 200.95 361.94 L 201.01 361.85 L 201.20 360.57 L 201.34 360.44 L 201.47 360.06 L 201.65 360.03 L 201.86 359.91 L 202.06 359.51 L 202.20 358.40 L 202.50 358.31 L 202.50 357.84 L 202.68 357.72 L 216.79 357.73 L 217.06 357.73 L 217.73 357.20 L 217.87 357.20 L 217.98 357.20 L 218.00 357.06 L 218.24 356.84 L 218.41 356.80 L 218.51 356.66 L 218.60 356.57 L 218.66 356.52 L 218.92 356.45 L 219.42 356.55 L 219.55 356.20 L 219.65 356.11 L 219.77 356.10 L 220.42 356.03 L 220.52 355.97 L 220.56 355.97 L 220.60 355.90 L 220.75 355.84 L 220.86 355.71 L 221.33 355.38 L 222.01 355.24 L 222.26 355.18 L 223.02 354.97 L 223.37 354.45 L 223.50 354.37 L 223.65 353.96 L 223.88 353.44 L 224.22 353.30 L 224.70 353.29 L 225.34 353.27 L 225.43 353.08 L 225.90 352.95 L 226.20 352.78 L 226.30 352.65 L 226.48 352.60 L 226.62 352.25 L 228.29 352.08 L 229.88 352.08 L 244.09 352.04 L 244.19 351.85 L 244.27 351.73 L 244.71 351.53 L 246.04 351.19 L 246.09 351.14 L 246.28 350.89 L 246.93 350.80 L 247.24 350.12 L 247.71 350.11 L 247.82 350.08 L 247.92 349.42 L 248.75 348.80 L 248.85 348.80 L 249.02 348.76 L 249.20 348.70 L 249.29 348.48 L 249.75 347.45 L 249.91 347.18 L 249.99 347.16 L 250.09 347.05 L 250.30 346.65 L 250.38 345.62 L 250.59 345.19 L 251.21 344.95 L 251.26 344.43 L 251.32 344.43 L 251.42 344.34 L 251.57 344.20 L 251.63 344.16 L 251.69 344.11 L 251.99 342.91 L 252.06 342.20 L 252.42 342.06 L 252.63 340.87 L 252.76 340.64 L 253.87 338.75 L 253.99 338.72 L 295.76 338.17 L 295.80 338.17 L 311.76 338.01 L 312.63 337.81 L 312.81 337.81 L 313.04 337.71 L 313.12 337.56 L 313.21 337.53 L 320.13 337.51 L 321.05 335.34 L 321.39 335.15 L 321.57 334.40 L 325.88 334.31 L 325.91 334.24 L 326.17 334.23 L 327.46 334.10 L 327.54 333.84 L 327.70 333.76 L 328.15 333.64 L 328.21 333.61 L 328.39 333.20 L 328.59 333.07 L 328.62 332.75 L 342.03 332.34 L 342.13 331.35 L 342.66 331.10 L 342.67 330.72 L 342.77 330.43 L 342.88 329.97 L 343.03 328.78 L 343.26 328.12 L 343.45 327.28 L 343.62 327.28 L 343.69 326.63 L 343.96 326.58 L 344.89 325.97 L 345.26 325.68 L 345.33 325.50 L 345.40 325.50 L 345.45 325.28 L 345.58 324.54 L 345.96 324.47 L 346.02 324.46 L 346.25 323.98 L 346.33 323.98 L 346.37 323.71 L 346.46 323.53 L 346.51 323.53 L 346.56 323.14 L 346.86 322.91 L 346.99 322.53 L 347.15 322.52 L 347.26 322.31 L 347.31 322.02 L 347.60 321.86 L 347.69 321.69 L 347.74 321.69 L 347.82 321.69 L 347.86 321.39 L 347.90 321.40 L 347.92 321.39 L 348.07 321.29 L 348.12 320.96 L 348.27 320.96 L 348.37 320.88 L 348.67 320.85 L 349.04 320.81 L 349.06 320.81 L 349.16 320.79 L 349.50 320.79 L 349.66 320.79 L 349.83 320.79 L 350.00 320.74 L 350.12 320.34 L 350.59 320.34 L 350.63 320.11 L 350.69 320.10 L 350.73 319.84 L 351.04 319.75 L 351.09 319.68 L 351.32 319.68 L 371.96 319.61 L 373.13 319.50 L 373.17 319.50 L 373.40 319.50 L 373.42 319.50 L 373.57 319.03 L 373.69 319.02 L 373.79 318.89 L 373.93 318.82 L 373.97 318.77 L 374.03 318.75 L 374.25 318.71 L 374.69 318.61 L 374.98 317.99 L 375.29 317.95 L 375.31 317.91 L 375.36 317.39 L 375.40 317.38 L 376.01 317.38 L 376.03 317.33 L 376.12 316.85 L 376.39 316.78 L 376.55 316.77 L 376.59 316.76 L 376.60 316.70 L 376.67 316.67 L 376.72 316.17 L 376.75 316.16 L 376.90 316.16 L 376.91 316.12 L 377.23 316.07 L 378.11 316.05 L 378.32 316.01 L 378.39 315.99 L 378.43 315.84 L 378.48 315.84 L 378.61 315.28 L 392.71 315.10 L 392.74 314.94 L 392.86 314.83 L 392.89 314.82 L 392.97 314.34 L 393.13 314.22 L 393.14 314.19 L 393.40 314.19 L 393.46 314.19 L 393.51 313.72 L 393.74 313.66 L 394.35 313.64 L 394.36 313.62 L 394.52 313.36 L 394.58 313.37 L 394.61 312.93 L 395.12 312.93 L 395.13 312.90 L 395.90 312.79 L 396.00 312.27 L 396.27 312.27 L 396.59 312.27 L 396.67 311.88 L 396.73 311.58 L 396.87 311.57 L 397.27 311.51 L 397.34 311.49 L 397.52 311.36 L 397.71 311.36 L 398.30 311.37 L 398.37 311.37 L 398.51 311.34 L 398.52 311.34 L 398.71 311.34 L 399.16 311.30 L 399.62 311.25 L 399.69 311.25 L 399.79 311.19 L 399.92 311.05 L 400.28 311.05 L 400.87 310.88 L 401.07 310.59 L 401.39 310.56 L 402.69 310.24 L 402.97 310.24 L 403.18 310.23 L 403.50 310.22 L 403.61 310.20 L 403.93 310.04 L 404.44 310.02 L 404.51 309.87 L 404.60 309.80 L 404.67 309.82 L 404.71 309.77 L 405.11 309.74 L 414.47 309.74 L 414.55 309.74 L 415.13 309.74 L 415.19 309.72 L 415.32 309.28 L 415.43 309.26 L 415.44 309.26 L 415.76 309.25 L 415.84 309.23 L 417.76 308.59 L 417.98 308.52 L 418.15 308.50 L 418.18 308.50 L 418.78 308.48 L 418.98 308.58 L 419.02 308.57 L 419.34 308.53 L 419.68 307.92 L 419.73 307.90 L 420.02 307.89 L 420.14 307.89 L 420.25 307.89 L 420.49 307.76 L 421.01 307.20 L 421.11 307.20 L 421.20 307.12 L 421.42 306.62 L 421.93 306.06 L 422.39 306.10 L 422.48 305.80 L 422.95 305.80 L 423.03 305.77 L 423.11 305.73 L 423.15 305.44 L 423.32 305.43 L 423.35 305.43 L 423.43 305.43 L 423.70 305.43 L 424.10 305.20 L 424.35 305.17 L 424.64 305.17 L 424.78 305.17 L 425.06 305.17 L 425.53 305.17 L 426.00 305.17 L 426.36 305.17 L 426.44 305.16 L 426.54 305.16 L 426.54 305.05 L 426.82 304.98 L 426.90 304.98 L 427.01 304.96 L 427.77 304.96 L 427.79 304.67 L 428.00 304.67 L 428.89 304.68 L 429.49 304.67 L 429.92 304.61 L 429.93 304.49 L 429.97 304.49 L 443.06 304.30 L 443.11 304.29 L 443.26 304.28 L 443.33 304.10 L 443.38 304.10 L 443.38 304.09 L 443.94 304.04 L 444.07 303.45 L 444.23 303.32 L 444.51 302.17 L 444.69 302.16 L 444.92 301.66 L 445.04 301.72 L 445.10 301.72 L 445.17 301.09 L 445.33 300.98 L 445.35 300.54 L 445.41 300.48 L 445.55 300.44 L 445.64 300.22 L 445.76 302.81 L 445.92 302.77 L 446.24 301.73 L 446.38 301.50 L 446.51 301.27 L 447.31 300.86 L 448.00 300.42 L 448.83 299.81 L 449.04 299.75 L 449.27 299.75 L 449.53 299.69 L 454.35 299.39 L 454.74 299.35 L 500.37 298.55 L 644.02 298.52 L 644.50 298.15 L 644.83 298.10 L 645.16 298.10 L 645.66 297.77 L 645.83 297.38 L 645.96 296.67 L 646.19 296.48 L 646.52 296.55 L 646.79 296.14 L 646.85 296.13 L 647.07 296.00 L 647.12 296.00 L 647.36 295.31 L 647.57 294.25 L 648.22 294.15 L 648.24 294.03 L 648.43 292.67 L 649.05 292.62 L 649.06 292.48 L 649.18 292.40 L 649.33 291.16 L 650.00 291.10"/>
	</g>
	<g class="poloto_legend poloto_imgs poloto_line poloto0 poloto_stroke"><line x1="680" x2="730" y1="81.25" y2="81.25"/></g>
	<g class="poloto_legend poloto_imgs poloto_line poloto1 poloto_stroke"><line x1="680" x2="730" y1="131.25" y2="131.25"/></g>
	<g class="poloto_legend poloto_imgs poloto_line poloto2 poloto_stroke"><line x1="680" x2="730" y1="181.25" y2="181.25"/></g>
	<text class="poloto_legend poloto_text poloto_line poloto0" x="675" y="100">total</text>
	<text class="poloto_legend poloto_text poloto_line poloto1" x="675" y="150">code</text>
	<text class="poloto_legend poloto_text poloto_line poloto2" x="675" y="200">docs</text>
	<text class="poloto_text poloto_name poloto_title" x="400.00" y="37.50">Workspace lines over time</text>
	<text class="poloto_text poloto_name poloto_x" x="400.00" y="640">date (JST)</text>
	<text class="poloto_text poloto_name poloto_y" x="37.50" y="250.00" transform="rotate(-90,37.50,250.00)">lines</text>
	<text class="poloto_text poloto_ticks poloto_y">
		<tspan x="135.00" y="400.00">0</tspan>
		<tspan x="135.00" y="298.90">50K</tspan>
		<tspan x="135.00" y="197.80">100K</tspan>
	</text>
	<g class="poloto_imgs poloto_ticks poloto_y" stroke="black">
		<line x1="150.00" x2="144.00" y1="400.00" y2="400.00"/>
		<line x1="150.00" x2="144.00" y1="298.90" y2="298.90"/>
		<line x1="150.00" x2="144.00" y1="197.80" y2="197.80"/>
	</g>
	<g class="poloto_text poloto_ticks poloto_x">
		<text x="186.09" y="430.00" text-anchor="end" transform="rotate(-90 186.09 430.00)">2026-04-22 04:33</text>
		<text x="243.91" y="430.00" text-anchor="end" transform="rotate(-90 243.91 430.00)">2026-04-24 12:06</text>
		<text x="301.73" y="430.00" text-anchor="end" transform="rotate(-90 301.73 430.00)">2026-04-26 19:40</text>
		<text x="359.56" y="430.00" text-anchor="end" transform="rotate(-90 359.56 430.00)">2026-04-29 03:13</text>
		<text x="417.38" y="430.00" text-anchor="end" transform="rotate(-90 417.38 430.00)">2026-05-01 10:46</text>
		<text x="475.20" y="430.00" text-anchor="end" transform="rotate(-90 475.20 430.00)">2026-05-03 18:20</text>
		<text x="533.03" y="430.00" text-anchor="end" transform="rotate(-90 533.03 430.00)">2026-05-06 01:53</text>
		<text x="590.85" y="430.00" text-anchor="end" transform="rotate(-90 590.85 430.00)">2026-05-08 09:26</text>
		<text x="648.67" y="430.00" text-anchor="end" transform="rotate(-90 648.67 430.00)">2026-05-10 17:00</text>
	</g>
	<g class="poloto_imgs poloto_ticks poloto_x" stroke="black">
		<line x1="186.09" x2="186.09" y1="400.00" y2="405.00"/>
		<line x1="243.91" x2="243.91" y1="400.00" y2="405.00"/>
		<line x1="301.73" x2="301.73" y1="400.00" y2="405.00"/>
		<line x1="359.56" x2="359.56" y1="400.00" y2="405.00"/>
		<line x1="417.38" x2="417.38" y1="400.00" y2="405.00"/>
		<line x1="475.20" x2="475.20" y1="400.00" y2="405.00"/>
		<line x1="533.03" x2="533.03" y1="400.00" y2="405.00"/>
		<line x1="590.85" x2="590.85" y1="400.00" y2="405.00"/>
		<line x1="648.67" x2="648.67" y1="400.00" y2="405.00"/>
	</g>
	<path class="poloto_imgs poloto_ticks poloto_x" stroke="black" style="stroke-dasharray:7.22789853186925;stroke-dashoffset:-36.08831913775066;" d=" M 150.00 400.00 L 650.00 400.00"/>
	<path class="poloto_imgs poloto_ticks poloto_y" stroke="black" style="stroke-dasharray:10.110201193003741;stroke-dashoffset:-0;" d=" M 150.00 400.00 L 150.00 100.00"/>
</svg>

