<svg class="poloto" width="800" height="680" viewBox="0 0 800 680" xmlns="http://www.w3.org/2000/svg">
	<style>
.poloto{
  stroke-linecap:round;
  stroke-linejoin:round;
  font-family:Roboto,sans-serif;
  font-size:16px;
}
.poloto_background{fill:AliceBlue;}
.poloto_scatter{stroke-width:7}
.poloto_line{stroke-width:2}
.poloto_text{fill: black;}
.poloto_name{font-size:24px;dominant-baseline:auto;text-anchor:middle;}
.poloto_where{dominant-baseline:middle;text-anchor:start}
.poloto_text.poloto_legend{font-size:20px;dominant-baseline:middle;text-anchor:start;}
.poloto_text.poloto_ticks.poloto_y{dominant-baseline:middle;text-anchor:end}
.poloto_text.poloto_ticks.poloto_x{dominant-baseline:auto;text-anchor:middle}
.poloto_imgs.poloto_ticks{stroke: black;stroke-width:3;fill:none;stroke-dasharray:none}
.poloto_grid{stroke:gray;stroke-width:0.5}

.poloto0.poloto_stroke{stroke:blue;}
.poloto1.poloto_stroke{stroke:red;}
.poloto2.poloto_stroke{stroke:green;}
.poloto3.poloto_stroke{stroke:gold;}
.poloto4.poloto_stroke{stroke:aqua;}
.poloto5.poloto_stroke{stroke:lime;}
.poloto6.poloto_stroke{stroke:orange;}
.poloto7.poloto_stroke{stroke:chocolate;}
.poloto0.poloto_fill{fill:blue;}
.poloto1.poloto_fill{fill:red;}
.poloto2.poloto_fill{fill:green;}
.poloto3.poloto_fill{fill:gold;}
.poloto4.poloto_fill{fill:aqua;}
.poloto5.poloto_fill{fill:lime;}
.poloto6.poloto_fill{fill:orange;}
.poloto7.poloto_fill{fill:chocolate;}
	</style>
	<circle r="1e5" class="poloto_background" fill="white"/>
	<g id="poloto_plot0" class="poloto_plot poloto_imgs poloto_line poloto0 poloto_stroke" fill="none" stroke="black">
		<path d=" M 150.00 364.97 L 150.03 364.94 L 150.05 364.92 L 150.06 364.92 L 150.09 364.92 L 150.13 361.12 L 150.27 360.66 L 150.59 360.64 L 151.06 360.32 L 151.31 358.39 L 151.79 358.27 L 151.88 358.17 L 151.94 358.13 L 152.50 357.19 L 153.56 356.42 L 153.90 353.43 L 153.98 353.44 L 154.62 353.32 L 155.36 353.31 L 155.37 353.31 L 155.37 353.31 L 165.33 353.31 L 165.40 353.30 L 165.52 353.28 L 165.58 353.24 L 165.96 353.07 L 166.13 353.02 L 166.55 352.75 L 166.61 352.63 L 166.73 352.36 L 166.86 352.32 L 166.89 352.31 L 167.00 352.24 L 167.11 352.24 L 167.22 352.24 L 167.49 351.80 L 167.74 351.53 L 167.78 351.53 L 167.90 351.37 L 168.69 352.05 L 168.71 352.05 L 168.81 351.94 L 169.26 351.43 L 169.62 350.82 L 170.03 350.55 L 170.12 350.50 L 170.13 350.50 L 170.20 350.27 L 170.36 350.27 L 170.56 350.18 L 170.95 349.95 L 170.97 349.60 L 171.04 349.60 L 171.14 349.41 L 171.36 349.41 L 171.38 349.41 L 171.62 348.90 L 171.71 348.87 L 171.79 348.83 L 171.89 348.63 L 173.10 348.35 L 173.39 348.30 L 174.07 347.93 L 174.21 347.93 L 174.31 347.92 L 174.37 347.66 L 174.84 346.15 L 175.04 346.12 L 175.28 345.62 L 175.40 345.57 L 175.68 345.15 L 175.80 345.00 L 175.97 344.73 L 176.12 344.49 L 176.66 341.01 L 176.67 340.93 L 176.70 340.72 L 176.88 339.05 L 186.12 338.93 L 187.07 337.02 L 187.10 336.98 L 188.23 336.68 L 188.33 336.67 L 188.43 336.29 L 188.71 336.10 L 188.84 335.78 L 188.88 335.49 L 189.02 334.99 L 189.36 334.99 L 189.37 334.65 L 189.49 334.28 L 189.62 334.27 L 189.76 333.85 L 189.94 333.55 L 190.01 333.40 L 190.04 333.39 L 190.19 333.07 L 190.22 333.06 L 190.39 332.73 L 190.42 332.72 L 190.69 331.15 L 190.73 331.15 L 190.82 330.89 L 190.94 330.88 L 191.09 330.88 L 191.15 330.84 L 191.67 330.55 L 191.69 330.56 L 191.78 329.86 L 192.01 329.85 L 192.22 328.80 L 192.28 328.71 L 192.38 328.70 L 192.43 328.66 L 192.55 327.85 L 193.13 321.02 L 193.19 320.69 L 193.39 320.66 L 193.45 320.58 L 193.49 320.56 L 193.59 320.38 L 193.68 319.60 L 193.88 319.45 L 194.03 319.43 L 194.14 319.09 L 194.21 319.08 L 194.73 318.83 L 195.01 318.63 L 195.10 318.33 L 195.34 318.31 L 195.37 318.31 L 195.39 318.28 L 195.54 316.64 L 195.66 316.55 L 196.09 314.89 L 196.16 314.41 L 196.24 314.40 L 196.36 314.22 L 196.37 314.09 L 196.42 314.01 L 196.46 313.97 L 196.52 313.96 L 196.58 313.88 L 196.75 312.53 L 196.87 312.33 L 196.99 311.93 L 197.16 311.90 L 197.34 311.78 L 197.53 310.82 L 197.66 309.49 L 197.93 309.42 L 197.93 308.92 L 198.09 308.76 L 210.98 308.76 L 211.23 308.75 L 211.84 308.05 L 211.96 308.03 L 212.06 308.03 L 212.08 307.85 L 212.30 307.64 L 212.46 307.60 L 212.54 307.47 L 212.63 307.38 L 212.69 307.33 L 212.92 307.26 L 213.38 307.18 L 213.50 306.82 L 213.59 306.73 L 213.70 306.72 L 214.30 306.53 L 214.38 306.43 L 214.42 306.43 L 214.46 306.29 L 214.59 306.23 L 214.69 306.10 L 215.12 305.21 L 215.75 305.07 L 215.97 305.01 L 216.66 304.79 L 216.99 300.50 L 217.10 300.41 L 217.24 299.99 L 217.45 299.42 L 217.76 299.27 L 218.20 299.25 L 218.78 299.24 L 218.87 299.05 L 219.30 298.85 L 219.57 298.54 L 219.66 298.41 L 219.83 298.36 L 219.95 297.98 L 221.48 297.56 L 222.93 297.56 L 235.90 297.52 L 236.00 297.34 L 236.06 297.22 L 236.47 297.03 L 237.68 295.55 L 237.73 295.46 L 237.90 295.08 L 238.50 294.98 L 238.78 293.98 L 239.21 293.97 L 239.31 293.95 L 239.40 293.27 L 240.16 289.37 L 240.25 289.36 L 240.40 289.33 L 240.57 289.28 L 240.65 288.85 L 241.07 287.38 L 241.22 287.11 L 241.29 287.09 L 241.38 286.41 L 241.57 285.45 L 241.65 284.44 L 241.84 283.98 L 242.40 278.91 L 242.45 278.40 L 242.51 278.40 L 242.59 278.31 L 242.73 278.18 L 242.79 278.13 L 242.84 278.08 L 243.11 276.86 L 243.18 276.00 L 243.50 275.83 L 243.70 274.56 L 243.82 273.75 L 244.83 261.93 L 244.95 261.89 L 283.07 261.33 L 283.11 261.33 L 297.68 261.17 L 298.48 260.84 L 298.64 260.84 L 298.85 260.75 L 298.92 260.60 L 299.01 260.56 L 305.33 260.48 L 306.16 258.23 L 306.47 258.03 L 306.64 257.20 L 310.57 257.03 L 310.60 256.81 L 310.84 256.79 L 312.02 255.37 L 312.09 255.11 L 312.24 255.02 L 312.65 254.92 L 312.70 254.89 L 312.87 254.46 L 313.05 254.34 L 313.07 254.03 L 325.32 253.59 L 325.41 252.38 L 325.90 252.11 L 325.91 250.09 L 325.99 249.78 L 326.10 249.29 L 326.23 247.89 L 326.44 247.15 L 326.61 246.28 L 326.77 246.27 L 326.84 245.61 L 327.08 245.55 L 327.93 242.28 L 328.27 241.93 L 328.33 241.73 L 328.40 241.72 L 328.44 241.49 L 328.56 240.69 L 328.91 240.31 L 328.96 240.26 L 329.17 237.38 L 329.25 237.37 L 329.28 237.07 L 329.36 236.83 L 329.41 236.83 L 329.46 236.40 L 329.73 234.84 L 329.85 234.40 L 329.99 234.34 L 330.10 230.19 L 330.14 229.85 L 330.41 227.47 L 330.49 227.29 L 330.54 227.28 L 330.60 227.28 L 330.65 226.95 L 330.68 226.96 L 330.70 226.95 L 330.84 222.75 L 330.88 222.39 L 331.01 222.37 L 331.11 222.29 L 331.39 222.17 L 331.72 222.01 L 331.73 222.01 L 331.83 221.96 L 332.14 221.88 L 332.29 221.88 L 332.44 221.88 L 332.60 220.05 L 332.70 219.62 L 333.13 219.61 L 333.17 219.32 L 333.23 219.32 L 333.26 219.01 L 333.55 216.36 L 333.59 216.29 L 333.80 216.28 L 352.64 216.20 L 353.72 216.07 L 353.75 216.07 L 353.96 216.06 L 353.98 216.07 L 354.12 215.54 L 354.22 215.52 L 354.31 215.26 L 354.45 215.19 L 354.48 215.16 L 354.53 215.14 L 354.73 214.84 L 355.14 214.58 L 355.40 213.73 L 355.69 212.92 L 355.70 212.87 L 355.75 212.12 L 355.79 212.09 L 356.35 211.64 L 356.36 211.59 L 356.44 210.99 L 356.69 210.92 L 356.84 210.87 L 356.87 209.79 L 356.88 209.74 L 356.95 210.76 L 356.99 210.13 L 357.02 210.11 L 357.15 208.68 L 357.16 208.63 L 357.46 208.52 L 358.26 208.50 L 358.45 208.45 L 358.51 208.43 L 358.55 208.25 L 358.60 208.25 L 358.71 207.54 L 371.59 206.17 L 371.61 205.98 L 371.72 205.85 L 371.75 205.59 L 371.83 193.62 L 371.97 188.72 L 371.99 188.69 L 372.22 188.59 L 372.28 188.59 L 372.32 188.03 L 372.53 187.97 L 373.08 186.81 L 373.10 186.79 L 373.24 186.43 L 373.29 186.44 L 373.32 185.86 L 373.79 185.18 L 373.80 185.16 L 374.51 184.89 L 374.59 184.28 L 374.84 184.29 L 375.13 182.75 L 375.21 182.14 L 375.26 181.65 L 375.39 181.05 L 375.76 180.84 L 375.82 180.69 L 375.98 180.56 L 376.15 180.56 L 376.70 180.56 L 376.76 180.56 L 376.88 180.53 L 376.89 180.53 L 377.07 180.54 L 377.48 180.51 L 377.90 180.29 L 377.96 180.29 L 378.05 180.20 L 378.17 180.03 L 378.50 180.03 L 379.04 179.82 L 379.22 179.34 L 379.52 175.21 L 380.70 178.70 L 380.96 178.69 L 381.15 178.67 L 381.44 178.66 L 381.54 178.60 L 381.83 178.40 L 382.30 178.12 L 382.36 177.93 L 382.45 177.85 L 382.51 177.87 L 382.55 177.81 L 382.92 177.55 L 391.45 177.55 L 391.53 177.55 L 392.06 177.54 L 392.11 177.52 L 392.23 176.99 L 392.33 176.70 L 392.34 176.69 L 392.64 176.65 L 392.71 176.62 L 394.46 175.85 L 394.66 175.78 L 394.82 175.76 L 394.85 175.76 L 395.39 175.57 L 395.57 175.67 L 395.61 175.66 L 395.90 175.61 L 396.22 173.98 L 396.26 173.97 L 396.52 173.78 L 396.63 173.78 L 396.73 173.78 L 396.95 173.60 L 397.43 172.94 L 397.52 172.92 L 397.60 172.73 L 397.80 171.96 L 398.27 171.15 L 398.69 167.36 L 398.77 166.89 L 399.20 166.71 L 399.27 166.61 L 399.34 166.43 L 399.38 165.82 L 399.53 164.72 L 399.57 164.77 L 399.64 164.75 L 399.88 164.74 L 400.25 164.34 L 400.48 164.26 L 400.74 164.25 L 400.87 164.23 L 401.13 164.22 L 401.56 164.22 L 401.99 164.21 L 402.31 164.21 L 402.39 164.20 L 402.47 164.18 L 402.48 164.05 L 402.73 163.97 L 402.80 163.96 L 402.90 163.79 L 403.60 163.77 L 403.61 163.44 L 403.81 163.43 L 404.62 163.43 L 405.17 163.23 L 405.56 162.99 L 405.57 162.86 L 405.61 162.86 L 417.56 162.63 L 417.60 162.62 L 417.74 162.61 L 417.80 162.42 L 417.85 162.40 L 417.85 162.39 L 418.36 162.34 L 418.48 161.65 L 418.63 161.50 L 418.88 160.14 L 419.05 160.13 L 419.25 159.55 L 419.37 159.62 L 419.42 159.62 L 419.48 158.96 L 419.63 158.51 L 419.65 158.03 L 419.71 157.97 L 419.83 157.93 L 419.92 157.70 L 420.02 160.29 L 420.17 160.24 L 420.46 159.21 L 420.59 158.96 L 420.71 158.74 L 421.44 157.26 L 422.07 156.54 L 422.83 155.17 L 423.02 155.11 L 423.23 155.11 L 423.47 155.05 L 427.86 154.66 L 428.23 154.62 L 469.88 153.58 L 601.04 153.34 L 601.47 152.92 L 601.77 152.86 L 602.07 152.86 L 602.53 152.05 L 602.68 151.67 L 602.80 150.94 L 603.01 148.86 L 603.32 149.29 L 603.56 148.84 L 603.62 148.83 L 603.82 148.69 L 603.86 148.70 L 604.08 147.93 L 604.27 146.71 L 604.87 145.41 L 604.89 145.31 L 605.06 143.76 L 605.62 139.93 L 605.64 139.80 L 605.74 139.71 L 605.88 138.34 L 606.49 136.50 L 606.51 136.33 L 606.64 136.25 L 606.78 135.34 L 607.01 134.62 L 607.02 134.48 L 607.12 133.08 L 607.14 133.05 L 607.19 132.65 L 607.45 130.16 L 607.48 130.02 L 607.57 129.87 L 607.85 129.54 L 607.91 129.53 L 608.13 129.06 L 608.49 129.11 L 608.55 129.05 L 608.59 129.01 L 608.66 128.98 L 608.84 127.51 L 609.04 126.32 L 609.06 126.21 L 609.17 124.72 L 609.28 123.26 L 609.31 123.08 L 609.42 121.37 L 609.48 120.03 L 609.70 119.12 L 609.74 119.06 L 609.85 118.78 L 610.01 118.75 L 610.95 118.72 L 611.42 118.67 L 621.66 118.73 L 621.77 118.47 L 621.87 118.25 L 622.04 117.24 L 622.42 116.98 L 622.45 116.88 L 622.53 115.56 L 622.77 114.27 L 622.80 114.16 L 625.04 114.07 L 625.17 113.35 L 626.30 113.13 L 626.42 113.08 L 626.55 111.58 L 627.91 110.18 L 628.49 109.64 L 628.64 108.54 L 629.12 106.66 L 629.43 106.12 L 629.93 105.02 L 630.83 104.45 L 644.55 104.44 L 645.36 104.32 L 645.40 104.34 L 646.55 104.12 L 646.61 104.01 L 647.01 103.93 L 647.48 102.70 L 647.48 102.70 L 647.53 102.65 L 648.14 101.25 L 649.55 100.45 L 649.64 100.38 L 649.79 100.37 L 650.00 100.00"/>
	</g>
	<g id="poloto_plot1" class="poloto_plot poloto_imgs poloto_line poloto1 poloto_stroke" fill="none" stroke="black">
		<path d=" M 150.00 379.18 L 150.03 379.17 L 150.05 379.15 L 150.06 379.15 L 150.09 379.15 L 150.13 378.49 L 150.27 378.47 L 150.59 378.46 L 151.06 378.21 L 151.31 378.10 L 151.79 378.12 L 151.88 378.08 L 151.94 378.08 L 152.50 378.03 L 153.56 377.90 L 153.90 375.33 L 153.98 375.33 L 154.62 375.27 L 155.36 375.26 L 155.37 375.26 L 155.37 375.26 L 165.33 375.26 L 165.40 375.26 L 165.52 375.25 L 165.58 375.22 L 165.96 375.21 L 166.13 375.21 L 166.55 375.21 L 166.61 375.21 L 166.73 375.19 L 166.86 375.19 L 166.89 375.19 L 167.00 375.16 L 167.11 375.16 L 167.22 375.16 L 167.49 375.02 L 167.74 375.02 L 167.78 375.02 L 167.90 375.02 L 168.69 375.98 L 168.71 375.98 L 168.81 375.97 L 169.26 375.82 L 169.62 375.66 L 170.03 375.59 L 170.12 375.54 L 170.13 375.54 L 170.20 375.54 L 170.36 375.54 L 170.56 375.48 L 170.95 375.42 L 170.97 375.42 L 171.04 375.42 L 171.14 375.40 L 171.36 375.40 L 171.38 375.40 L 171.62 375.39 L 171.71 375.39 L 171.79 375.39 L 171.89 375.39 L 173.10 375.27 L 173.39 375.26 L 174.07 375.21 L 174.21 375.21 L 174.31 375.21 L 174.37 375.21 L 174.84 375.14 L 175.04 375.14 L 175.28 375.04 L 175.40 375.03 L 175.68 374.82 L 175.80 374.75 L 175.97 374.75 L 176.12 374.75 L 176.66 371.74 L 176.67 371.69 L 176.70 371.69 L 176.88 371.39 L 186.12 371.39 L 187.07 370.10 L 187.10 370.10 L 188.23 370.10 L 188.33 370.09 L 188.43 369.96 L 188.71 369.94 L 188.84 369.94 L 188.88 369.94 L 189.02 369.94 L 189.36 369.94 L 189.37 369.66 L 189.49 369.64 L 189.62 369.64 L 189.76 369.61 L 189.94 369.61 L 190.01 369.61 L 190.04 369.61 L 190.19 369.61 L 190.22 369.61 L 190.39 369.61 L 190.42 369.61 L 190.69 368.33 L 190.73 368.33 L 190.82 368.18 L 190.94 368.18 L 191.09 368.18 L 191.15 368.16 L 191.67 368.16 L 191.69 368.16 L 191.78 368.08 L 192.01 368.08 L 192.22 367.35 L 192.28 367.26 L 192.38 367.26 L 192.43 367.26 L 192.55 367.24 L 193.13 361.86 L 193.19 361.91 L 193.39 361.91 L 193.45 361.91 L 193.49 361.90 L 193.59 361.90 L 193.68 361.83 L 193.88 361.83 L 194.03 361.83 L 194.14 361.82 L 194.21 361.82 L 194.73 361.81 L 195.01 361.80 L 195.10 361.67 L 195.34 361.67 L 195.37 361.67 L 195.39 361.67 L 195.54 361.31 L 195.66 361.22 L 196.09 359.94 L 196.16 359.94 L 196.24 359.94 L 196.36 359.96 L 196.37 359.96 L 196.42 359.96 L 196.46 359.96 L 196.52 359.96 L 196.58 359.96 L 196.75 359.93 L 196.87 359.93 L 196.99 359.92 L 197.16 359.92 L 197.34 359.91 L 197.53 359.43 L 197.66 359.27 L 197.93 359.27 L 197.93 359.27 L 198.09 359.27 L 210.98 359.27 L 211.23 359.26 L 211.84 359.17 L 211.96 359.16 L 212.06 359.16 L 212.08 359.16 L 212.30 359.16 L 212.46 359.16 L 212.54 359.16 L 212.63 359.16 L 212.69 359.16 L 212.92 359.16 L 213.38 359.18 L 213.50 359.18 L 213.59 359.18 L 213.70 359.18 L 214.30 359.08 L 214.38 359.03 L 214.42 359.03 L 214.46 358.96 L 214.59 358.96 L 214.69 358.96 L 215.12 358.47 L 215.75 358.47 L 215.97 358.47 L 216.66 358.47 L 216.99 355.18 L 217.10 355.17 L 217.24 355.17 L 217.45 355.17 L 217.76 355.17 L 218.20 355.17 L 218.78 355.17 L 218.87 355.17 L 219.30 355.09 L 219.57 354.95 L 219.66 354.95 L 219.83 354.95 L 219.95 354.93 L 221.48 354.73 L 222.93 354.73 L 235.90 354.72 L 236.00 354.72 L 236.06 354.72 L 236.47 354.72 L 237.68 353.69 L 237.73 353.65 L 237.90 353.55 L 238.50 353.54 L 238.78 353.29 L 239.21 353.29 L 239.31 353.29 L 239.40 353.29 L 240.16 350.40 L 240.25 350.40 L 240.40 350.40 L 240.57 350.40 L 240.65 350.22 L 241.07 349.87 L 241.22 349.87 L 241.29 349.87 L 241.38 349.34 L 241.57 348.81 L 241.65 348.81 L 241.84 348.80 L 242.40 344.50 L 242.45 344.50 L 242.51 344.50 L 242.59 344.50 L 242.73 344.50 L 242.79 344.50 L 242.84 344.50 L 243.11 344.50 L 243.18 344.40 L 243.50 344.38 L 243.70 344.32 L 243.82 343.81 L 244.83 335.24 L 244.95 335.24 L 283.07 335.24 L 283.11 335.24 L 297.68 335.24 L 298.48 335.11 L 298.64 335.11 L 298.85 335.11 L 298.92 335.11 L 299.01 335.11 L 305.33 335.04 L 306.16 334.96 L 306.47 334.96 L 306.64 334.94 L 310.57 334.86 L 310.60 334.75 L 310.84 334.75 L 312.02 333.59 L 312.09 333.59 L 312.24 333.59 L 312.65 333.59 L 312.70 333.59 L 312.87 333.59 L 313.05 333.59 L 313.07 333.59 L 325.32 333.57 L 325.41 333.36 L 325.90 333.36 L 325.91 331.96 L 325.99 331.96 L 326.10 331.96 L 326.23 331.83 L 326.44 331.83 L 326.61 331.77 L 326.77 331.77 L 326.84 331.77 L 327.08 331.76 L 327.93 329.38 L 328.27 329.38 L 328.33 329.36 L 328.40 329.36 L 328.44 329.36 L 328.56 329.33 L 328.91 329.03 L 328.96 328.99 L 329.17 326.86 L 329.25 326.85 L 329.28 326.85 L 329.36 326.82 L 329.41 326.82 L 329.46 326.81 L 329.73 325.65 L 329.85 325.64 L 329.99 325.61 L 330.10 322.00 L 330.14 322.00 L 330.41 319.96 L 330.49 319.96 L 330.54 319.96 L 330.60 319.96 L 330.65 319.96 L 330.68 319.96 L 330.70 319.96 L 330.84 316.20 L 330.88 316.19 L 331.01 316.18 L 331.11 316.18 L 331.39 316.10 L 331.72 316.00 L 331.73 316.00 L 331.83 315.98 L 332.14 315.92 L 332.29 315.92 L 332.44 315.92 L 332.60 314.30 L 332.70 314.30 L 333.13 314.29 L 333.17 314.28 L 333.23 314.28 L 333.26 314.28 L 333.55 311.97 L 333.59 311.97 L 333.80 311.95 L 352.64 311.95 L 353.72 311.94 L 353.75 311.94 L 353.96 311.94 L 353.98 311.94 L 354.12 311.94 L 354.22 311.93 L 354.31 311.82 L 354.45 311.82 L 354.48 311.82 L 354.53 311.82 L 354.73 311.61 L 355.14 311.48 L 355.40 311.34 L 355.69 310.69 L 355.70 310.69 L 355.75 310.52 L 355.79 310.50 L 356.35 310.10 L 356.36 310.10 L 356.44 310.04 L 356.69 310.04 L 356.84 310.00 L 356.87 309.04 L 356.88 309.04 L 356.95 309.99 L 356.99 309.94 L 357.02 309.93 L 357.15 308.64 L 357.16 308.64 L 357.46 308.58 L 358.26 308.58 L 358.45 308.58 L 358.51 308.58 L 358.55 308.58 L 358.60 308.58 L 358.71 308.50 L 371.59 307.43 L 371.61 307.43 L 371.72 307.42 L 371.75 307.19 L 371.83 295.76 L 371.97 291.51 L 371.99 291.51 L 372.22 291.43 L 372.28 291.43 L 372.32 291.41 L 372.53 291.41 L 373.08 290.37 L 373.10 290.37 L 373.24 290.32 L 373.29 290.32 L 373.32 290.23 L 373.79 289.61 L 373.80 289.61 L 374.51 289.48 L 374.59 289.44 L 374.84 289.45 L 375.13 288.05 L 375.21 287.90 L 375.26 287.77 L 375.39 287.25 L 375.76 287.12 L 375.82 287.00 L 375.98 287.00 L 376.15 287.00 L 376.70 287.00 L 376.76 287.00 L 376.88 287.00 L 376.89 287.00 L 377.07 287.02 L 377.48 287.02 L 377.90 286.87 L 377.96 286.87 L 378.05 286.86 L 378.17 286.86 L 378.50 286.86 L 379.04 286.86 L 379.22 286.73 L 379.52 283.04 L 380.70 286.52 L 380.96 286.51 L 381.15 286.50 L 381.44 286.50 L 381.54 286.46 L 381.83 286.43 L 382.30 286.22 L 382.36 286.22 L 382.45 286.22 L 382.51 286.22 L 382.55 286.22 L 382.92 286.02 L 391.45 286.02 L 391.53 286.02 L 392.06 286.01 L 392.11 286.01 L 392.23 285.97 L 392.33 285.72 L 392.34 285.71 L 392.64 285.69 L 392.71 285.69 L 394.46 285.47 L 394.66 285.47 L 394.82 285.47 L 394.85 285.47 L 395.39 285.32 L 395.57 285.32 L 395.61 285.32 L 395.90 285.32 L 396.22 284.44 L 396.26 284.44 L 396.52 284.30 L 396.63 284.30 L 396.73 284.30 L 396.95 284.30 L 397.43 284.28 L 397.52 284.26 L 397.60 284.18 L 397.80 284.03 L 398.27 283.90 L 398.69 280.42 L 398.77 280.30 L 399.20 280.13 L 399.27 280.09 L 399.34 279.97 L 399.38 279.73 L 399.53 278.68 L 399.57 278.73 L 399.64 278.71 L 399.88 278.70 L 400.25 278.56 L 400.48 278.50 L 400.74 278.49 L 400.87 278.47 L 401.13 278.46 L 401.56 278.46 L 401.99 278.45 L 402.31 278.45 L 402.39 278.44 L 402.47 278.44 L 402.48 278.43 L 402.73 278.43 L 402.80 278.42 L 402.90 278.29 L 403.60 278.28 L 403.61 278.28 L 403.81 278.26 L 404.62 278.26 L 405.17 278.09 L 405.56 277.94 L 405.57 277.94 L 405.61 277.94 L 417.56 277.93 L 417.60 277.93 L 417.74 277.93 L 417.80 277.93 L 417.85 277.92 L 417.85 277.92 L 418.36 277.92 L 418.48 277.90 L 418.63 277.88 L 418.88 277.85 L 419.05 277.85 L 419.25 277.77 L 419.37 277.77 L 419.42 277.77 L 419.48 277.77 L 419.63 277.46 L 419.65 277.46 L 419.71 277.46 L 419.83 277.46 L 419.92 277.46 L 420.02 277.53 L 420.17 277.53 L 420.46 277.52 L 420.59 277.52 L 420.71 277.52 L 421.44 276.50 L 422.07 276.22 L 422.83 275.49 L 423.02 275.49 L 423.23 275.49 L 423.47 275.49 L 427.86 275.40 L 428.23 275.40 L 469.88 275.27 L 601.04 275.08 L 601.47 275.02 L 601.77 275.01 L 602.07 275.01 L 602.53 274.54 L 602.68 274.54 L 602.80 274.54 L 603.01 272.82 L 603.32 273.15 L 603.56 273.13 L 603.62 273.13 L 603.82 273.11 L 603.86 273.11 L 604.08 273.11 L 604.27 273.03 L 604.87 271.94 L 604.89 271.94 L 605.06 271.85 L 605.62 268.34 L 605.64 268.34 L 605.74 268.34 L 605.88 268.28 L 606.49 266.65 L 606.51 266.65 L 606.64 266.65 L 606.78 266.61 L 607.01 266.01 L 607.02 266.01 L 607.12 266.00 L 607.14 266.00 L 607.19 265.67 L 607.45 263.35 L 607.48 263.35 L 607.57 263.35 L 607.85 263.16 L 607.91 263.16 L 608.13 262.77 L 608.49 262.77 L 608.55 262.77 L 608.59 262.77 L 608.66 262.77 L 608.84 262.76 L 609.04 261.72 L 609.06 261.72 L 609.17 261.71 L 609.28 260.92 L 609.31 260.92 L 609.42 260.08 L 609.48 260.03 L 609.70 259.20 L 609.74 259.20 L 609.85 259.20 L 610.01 259.18 L 610.95 259.18 L 611.42 259.18 L 621.66 259.18 L 621.77 259.18 L 621.87 259.18 L 622.04 259.18 L 622.42 258.96 L 622.45 258.96 L 622.53 258.89 L 622.77 257.73 L 622.80 257.73 L 625.04 257.75 L 625.17 257.52 L 626.30 257.52 L 626.42 257.52 L 626.55 257.43 L 627.91 256.48 L 628.49 256.30 L 628.64 256.23 L 629.12 254.42 L 629.43 254.42 L 629.93 254.27 L 630.83 254.27 L 644.55 254.26 L 645.36 254.15 L 645.40 254.18 L 646.55 254.18 L 646.61 254.18 L 647.01 254.18 L 647.48 254.14 L 647.48 254.14 L 647.53 254.14 L 648.14 253.08 L 649.55 253.05 L 649.64 253.05 L 649.79 253.05 L 650.00 253.01"/>
	</g>
	<g id="poloto_plot2" class="poloto_plot poloto_imgs poloto_line poloto2 poloto_stroke" fill="none" stroke="black">
		<path d=" M 150.00 390.66 L 150.03 390.65 L 150.05 390.65 L 150.06 390.65 L 150.09 390.65 L 150.13 388.26 L 150.27 387.93 L 150.59 387.93 L 151.06 387.91 L 151.31 386.48 L 151.79 386.36 L 151.88 386.31 L 151.94 386.28 L 152.50 385.64 L 153.56 385.14 L 153.90 385.04 L 153.98 385.05 L 154.62 385.01 L 155.36 385.01 L 155.37 385.01 L 155.37 385.01 L 165.33 385.01 L 165.40 385.00 L 165.52 384.98 L 165.58 384.98 L 165.96 384.84 L 166.13 384.80 L 166.55 384.56 L 166.61 384.46 L 166.73 384.25 L 166.86 384.22 L 166.89 384.22 L 167.00 384.18 L 167.11 384.18 L 167.22 384.18 L 167.49 383.94 L 167.74 383.72 L 167.78 383.72 L 167.90 383.59 L 168.69 383.31 L 168.71 383.30 L 168.81 383.21 L 169.26 382.90 L 169.62 382.51 L 170.03 382.35 L 170.12 382.35 L 170.13 382.35 L 170.20 382.13 L 170.36 382.13 L 170.56 382.11 L 170.95 381.95 L 170.97 381.66 L 171.04 381.66 L 171.14 381.53 L 171.36 381.53 L 171.38 381.53 L 171.62 381.11 L 171.71 381.08 L 171.79 381.05 L 171.89 380.85 L 173.10 380.74 L 173.39 380.69 L 174.07 380.41 L 174.21 380.41 L 174.31 380.39 L 174.37 380.17 L 174.84 379.00 L 175.04 378.99 L 175.28 378.63 L 175.40 378.60 L 175.68 378.44 L 175.80 378.39 L 175.97 378.14 L 176.12 377.93 L 176.66 377.93 L 176.67 377.90 L 176.70 377.74 L 176.88 376.61 L 186.12 376.49 L 187.07 376.15 L 187.10 376.11 L 188.23 375.82 L 188.33 375.82 L 188.43 375.61 L 188.71 375.47 L 188.84 375.21 L 188.88 375.00 L 189.02 374.58 L 189.36 374.57 L 189.37 374.57 L 189.49 374.28 L 189.62 374.27 L 189.76 373.97 L 189.94 373.72 L 190.01 373.59 L 190.04 373.59 L 190.19 373.30 L 190.22 373.30 L 190.39 373.04 L 190.42 373.03 L 190.69 372.94 L 190.73 372.94 L 190.82 372.84 L 190.94 372.83 L 191.09 372.83 L 191.15 372.81 L 191.67 372.55 L 191.69 372.56 L 191.78 372.05 L 192.01 372.03 L 192.22 371.88 L 192.28 371.88 L 192.38 371.87 L 192.43 371.83 L 192.55 371.13 L 193.13 370.54 L 193.19 370.22 L 193.39 370.20 L 193.45 370.12 L 193.49 370.10 L 193.59 369.95 L 193.68 369.40 L 193.88 369.32 L 194.03 369.30 L 194.14 369.02 L 194.21 369.02 L 194.73 368.81 L 195.01 368.66 L 195.10 368.54 L 195.34 368.53 L 195.37 368.53 L 195.39 368.50 L 195.54 367.50 L 195.66 367.49 L 196.09 367.35 L 196.16 366.95 L 196.24 366.94 L 196.36 366.78 L 196.37 366.68 L 196.42 366.61 L 196.46 366.58 L 196.52 366.57 L 196.58 366.49 L 196.75 365.37 L 196.87 365.25 L 196.99 364.92 L 197.16 364.90 L 197.34 364.79 L 197.53 364.44 L 197.66 363.46 L 197.93 363.39 L 197.93 362.97 L 198.09 362.87 L 210.98 362.87 L 211.23 362.87 L 211.84 362.41 L 211.96 362.41 L 212.06 362.41 L 212.08 362.29 L 212.30 362.09 L 212.46 362.06 L 212.54 361.94 L 212.63 361.85 L 212.69 361.81 L 212.92 361.75 L 213.38 361.84 L 213.50 361.53 L 213.59 361.45 L 213.70 361.44 L 214.30 361.38 L 214.38 361.33 L 214.42 361.33 L 214.46 361.27 L 214.59 361.22 L 214.69 361.10 L 215.12 360.81 L 215.75 360.69 L 215.97 360.63 L 216.66 360.45 L 216.99 360.00 L 217.10 359.92 L 217.24 359.56 L 217.45 359.10 L 217.76 358.98 L 218.20 358.97 L 218.78 358.95 L 218.87 358.79 L 219.30 358.67 L 219.57 358.53 L 219.66 358.41 L 219.83 358.37 L 219.95 358.06 L 221.48 357.91 L 222.93 357.91 L 235.90 357.88 L 236.00 357.71 L 236.06 357.60 L 236.47 357.43 L 237.68 357.13 L 237.73 357.08 L 237.90 356.87 L 238.50 356.78 L 238.78 356.19 L 239.21 356.18 L 239.31 356.16 L 239.40 355.57 L 240.16 355.03 L 240.25 355.03 L 240.40 354.99 L 240.57 354.94 L 240.65 354.75 L 241.07 353.84 L 241.22 353.61 L 241.29 353.59 L 241.38 353.50 L 241.57 353.14 L 241.65 352.23 L 241.84 351.86 L 242.40 351.65 L 242.45 351.19 L 242.51 351.19 L 242.59 351.11 L 242.73 350.99 L 242.79 350.96 L 242.84 350.91 L 243.11 349.86 L 243.18 349.23 L 243.50 349.11 L 243.70 348.06 L 243.82 347.86 L 244.83 346.20 L 244.95 346.17 L 283.07 345.69 L 283.11 345.69 L 297.68 345.55 L 298.48 345.38 L 298.64 345.38 L 298.85 345.29 L 298.92 345.16 L 299.01 345.13 L 305.33 345.11 L 306.16 343.21 L 306.47 343.04 L 306.64 342.38 L 310.57 342.30 L 310.60 342.24 L 310.84 342.23 L 312.02 342.11 L 312.09 341.89 L 312.24 341.82 L 312.65 341.72 L 312.70 341.69 L 312.87 341.32 L 313.05 341.21 L 313.07 340.93 L 325.32 340.57 L 325.41 339.71 L 325.90 339.48 L 325.91 339.15 L 325.99 338.89 L 326.10 338.49 L 326.23 337.45 L 326.44 336.87 L 326.61 336.13 L 326.77 336.13 L 326.84 335.55 L 327.08 335.51 L 327.93 334.97 L 328.27 334.72 L 328.33 334.56 L 328.40 334.56 L 328.44 334.37 L 328.56 333.72 L 328.91 333.66 L 328.96 333.66 L 329.17 333.23 L 329.25 333.23 L 329.28 332.99 L 329.36 332.84 L 329.41 332.83 L 329.46 332.50 L 329.73 332.29 L 329.85 331.96 L 329.99 331.94 L 330.10 331.76 L 330.14 331.51 L 330.41 331.37 L 330.49 331.22 L 330.54 331.22 L 330.60 331.22 L 330.65 330.95 L 330.68 330.96 L 330.70 330.96 L 330.84 330.87 L 330.88 330.58 L 331.01 330.57 L 331.11 330.50 L 331.39 330.48 L 331.72 330.45 L 331.73 330.45 L 331.83 330.43 L 332.14 330.43 L 332.29 330.43 L 332.44 330.43 L 332.60 330.38 L 332.70 330.03 L 333.13 330.03 L 333.17 329.83 L 333.23 329.82 L 333.26 329.59 L 333.55 329.51 L 333.59 329.45 L 333.80 329.45 L 352.64 329.39 L 353.72 329.29 L 353.75 329.29 L 353.96 329.29 L 353.98 329.29 L 354.12 328.88 L 354.22 328.87 L 354.31 328.76 L 354.45 328.69 L 354.48 328.66 L 354.53 328.63 L 354.73 328.60 L 355.14 328.52 L 355.40 327.97 L 355.69 327.93 L 355.70 327.90 L 355.75 327.44 L 355.79 327.44 L 356.35 327.44 L 356.36 327.39 L 356.44 326.97 L 356.69 326.91 L 356.84 326.89 L 356.87 326.89 L 356.88 326.84 L 356.95 326.81 L 356.99 326.37 L 357.02 326.36 L 357.15 326.36 L 357.16 326.32 L 357.46 326.28 L 358.26 326.26 L 358.45 326.23 L 358.51 326.22 L 358.55 326.08 L 358.60 326.08 L 358.71 325.59 L 371.59 325.43 L 371.61 325.29 L 371.72 325.20 L 371.75 325.18 L 371.83 324.76 L 371.97 324.66 L 371.99 324.64 L 372.22 324.63 L 372.28 324.63 L 372.32 324.22 L 372.53 324.17 L 373.08 324.15 L 373.10 324.13 L 373.24 323.90 L 373.29 323.91 L 373.32 323.52 L 373.79 323.52 L 373.80 323.50 L 374.51 323.40 L 374.59 322.95 L 374.84 322.95 L 375.13 322.94 L 375.21 322.60 L 375.26 322.34 L 375.39 322.33 L 375.76 322.27 L 375.82 322.26 L 375.98 322.15 L 376.15 322.15 L 376.70 322.15 L 376.76 322.15 L 376.88 322.13 L 376.89 322.12 L 377.07 322.12 L 377.48 322.09 L 377.90 322.05 L 377.96 322.05 L 378.05 322.00 L 378.17 321.88 L 378.50 321.88 L 379.04 321.72 L 379.22 321.47 L 379.52 321.44 L 380.70 321.16 L 380.96 321.16 L 381.15 321.15 L 381.44 321.15 L 381.54 321.13 L 381.83 320.98 L 382.30 320.96 L 382.36 320.84 L 382.45 320.78 L 382.51 320.79 L 382.55 320.75 L 382.92 320.72 L 391.45 320.72 L 391.53 320.72 L 392.06 320.72 L 392.11 320.70 L 392.23 320.32 L 392.33 320.30 L 392.34 320.31 L 392.64 320.29 L 392.71 320.27 L 394.46 319.71 L 394.66 319.65 L 394.82 319.64 L 394.85 319.63 L 395.39 319.62 L 395.57 319.70 L 395.61 319.69 L 395.90 319.66 L 396.22 319.12 L 396.26 319.11 L 396.52 319.09 L 396.63 319.09 L 396.73 319.09 L 396.95 318.98 L 397.43 318.50 L 397.52 318.50 L 397.60 318.42 L 397.80 317.98 L 398.27 317.49 L 398.69 317.52 L 398.77 317.26 L 399.20 317.26 L 399.27 317.23 L 399.34 317.20 L 399.38 316.95 L 399.53 316.94 L 399.57 316.94 L 399.64 316.94 L 399.88 316.94 L 400.25 316.73 L 400.48 316.71 L 400.74 316.71 L 400.87 316.71 L 401.13 316.71 L 401.56 316.71 L 401.99 316.71 L 402.31 316.71 L 402.39 316.70 L 402.47 316.70 L 402.48 316.61 L 402.73 316.54 L 402.80 316.54 L 402.90 316.53 L 403.60 316.52 L 403.61 316.27 L 403.81 316.27 L 404.62 316.28 L 405.17 316.27 L 405.56 316.21 L 405.57 316.11 L 405.61 316.11 L 417.56 315.94 L 417.60 315.94 L 417.74 315.93 L 417.80 315.77 L 417.85 315.77 L 417.85 315.76 L 418.36 315.71 L 418.48 315.20 L 418.63 315.09 L 418.88 314.07 L 419.05 314.06 L 419.25 313.63 L 419.37 313.68 L 419.42 313.68 L 419.48 313.12 L 419.63 313.03 L 419.65 312.65 L 419.71 312.59 L 419.83 312.55 L 419.92 312.36 L 420.02 314.63 L 420.17 314.60 L 420.46 313.68 L 420.59 313.49 L 420.71 313.28 L 421.44 312.92 L 422.07 312.54 L 422.83 312.00 L 423.02 311.94 L 423.23 311.94 L 423.47 311.90 L 427.86 311.63 L 428.23 311.60 L 469.88 310.89 L 601.04 310.87 L 601.47 310.55 L 601.77 310.50 L 602.07 310.50 L 602.53 310.21 L 602.68 309.87 L 602.80 309.25 L 603.01 309.08 L 603.32 309.14 L 603.56 308.77 L 603.62 308.77 L 603.82 308.65 L 603.86 308.66 L 604.08 308.05 L 604.27 307.12 L 604.87 307.03 L 604.89 306.93 L 605.06 305.73 L 605.62 305.68 L 605.64 305.56 L 605.74 305.49 L 605.88 304.40 L 606.49 304.35 L 606.51 304.19 L 606.64 304.12 L 606.78 303.40 L 607.01 303.38 L 607.02 303.26 L 607.12 302.07 L 607.14 302.04 L 607.19 302.01 L 607.45 302.01 L 607.48 301.88 L 607.57 301.80 L 607.85 301.68 L 607.91 301.68 L 608.13 301.62 L 608.49 301.66 L 608.55 301.61 L 608.59 301.58 L 608.66 301.54 L 608.84 300.31 L 609.04 300.28 L 609.06 300.18 L 609.17 298.91 L 609.28 298.45 L 609.31 298.29 L 609.42 297.67 L 609.48 296.60 L 609.70 296.59 L 609.74 296.52 L 609.85 296.31 L 610.01 296.30 L 610.95 296.27 L 611.42 296.24 L 621.66 296.29 L 621.77 296.05 L 621.87 295.87 L 622.04 295.01 L 622.42 295.00 L 622.45 294.91 L 622.53 293.83 L 622.77 293.82 L 622.80 293.72 L 625.04 293.61 L 625.17 293.22 L 626.30 293.03 L 626.42 292.99 L 626.55 291.79 L 627.91 291.45 L 628.49 291.17 L 628.64 290.26 L 629.12 290.26 L 629.43 289.76 L 629.93 288.99 L 630.83 288.52 L 644.55 288.51 L 645.36 288.50 L 645.40 288.50 L 646.55 288.33 L 646.61 288.23 L 647.01 288.16 L 647.48 287.15 L 647.48 287.15 L 647.53 287.11 L 648.14 286.90 L 649.55 286.23 L 649.64 286.16 L 649.79 286.15 L 650.00 285.87"/>
	</g>
	<g class="poloto_legend poloto_imgs poloto_line poloto0 poloto_stroke"><line x1="680" x2="730" y1="81.25" y2="81.25"/></g>
	<g class="poloto_legend poloto_imgs poloto_line poloto1 poloto_stroke"><line x1="680" x2="730" y1="131.25" y2="131.25"/></g>
	<g class="poloto_legend poloto_imgs poloto_line poloto2 poloto_stroke"><line x1="680" x2="730" y1="181.25" y2="181.25"/></g>
	<text class="poloto_legend poloto_text poloto_line poloto0" x="675" y="100">total</text>
	<text class="poloto_legend poloto_text poloto_line poloto1" x="675" y="150">code</text>
	<text class="poloto_legend poloto_text poloto_line poloto2" x="675" y="200">docs</text>
	<text class="poloto_text poloto_name poloto_title" x="400.00" y="37.50">Workspace lines over time</text>
	<text class="poloto_text poloto_name poloto_x" x="400.00" y="640">date (JST)</text>
	<text class="poloto_text poloto_name poloto_y" x="37.50" y="250.00" transform="rotate(-90,37.50,250.00)">lines</text>
	<text class="poloto_text poloto_ticks poloto_y">
		<tspan x="135.00" y="400.00">0</tspan>
		<tspan x="135.00" y="311.20">50K</tspan>
		<tspan x="135.00" y="222.40">100K</tspan>
		<tspan x="135.00" y="133.60">150K</tspan>
	</text>
	<g class="poloto_imgs poloto_ticks poloto_y" stroke="black">
		<line x1="150.00" x2="144.00" y1="400.00" y2="400.00"/>
		<line x1="150.00" x2="144.00" y1="311.20" y2="311.20"/>
		<line x1="150.00" x2="144.00" y1="222.40" y2="222.40"/>
		<line x1="150.00" x2="144.00" y1="133.60" y2="133.60"/>
	</g>
	<g class="poloto_text poloto_ticks poloto_x">
		<text x="235.74" y="430.00" text-anchor="end" transform="rotate(-90 235.74 430.00)">2026-04-24 12:06</text>
		<text x="367.72" y="430.00" text-anchor="end" transform="rotate(-90 367.72 430.00)">2026-04-30 07:00</text>
		<text x="499.70" y="430.00" text-anchor="end" transform="rotate(-90 499.70 430.00)">2026-05-06 01:53</text>
		<text x="631.68" y="430.00" text-anchor="end" transform="rotate(-90 631.68 430.00)">2026-05-11 20:46</text>
	</g>
	<g class="poloto_imgs poloto_ticks poloto_x" stroke="black">
		<line x1="235.74" x2="235.74" y1="400.00" y2="405.00"/>
		<line x1="367.72" x2="367.72" y1="400.00" y2="405.00"/>
		<line x1="499.70" x2="499.70" y1="400.00" y2="405.00"/>
		<line x1="631.68" x2="631.68" y1="400.00" y2="405.00"/>
	</g>
	<path class="poloto_imgs poloto_ticks poloto_x" stroke="black" style="stroke-dasharray:13.197891293720653;stroke-dashoffset:-85.73957287403755;" d=" M 150.00 400.00 L 650.00 400.00"/>
	<path class="poloto_imgs poloto_ticks poloto_y" stroke="black" style="stroke-dasharray:8.880048307462792;stroke-dashoffset:-0;" d=" M 150.00 400.00 L 150.00 100.00"/>
</svg>

