<svg class="poloto" width="800" height="680" viewBox="0 0 800 680" xmlns="http://www.w3.org/2000/svg">
	<style>
.poloto{
  stroke-linecap:round;
  stroke-linejoin:round;
  font-family:Roboto,sans-serif;
  font-size:16px;
}
.poloto_background{fill:AliceBlue;}
.poloto_scatter{stroke-width:7}
.poloto_line{stroke-width:2}
.poloto_text{fill: black;}
.poloto_name{font-size:24px;dominant-baseline:auto;text-anchor:middle;}
.poloto_where{dominant-baseline:middle;text-anchor:start}
.poloto_text.poloto_legend{font-size:20px;dominant-baseline:middle;text-anchor:start;}
.poloto_text.poloto_ticks.poloto_y{dominant-baseline:middle;text-anchor:end}
.poloto_text.poloto_ticks.poloto_x{dominant-baseline:auto;text-anchor:middle}
.poloto_imgs.poloto_ticks{stroke: black;stroke-width:3;fill:none;stroke-dasharray:none}
.poloto_grid{stroke:gray;stroke-width:0.5}

.poloto0.poloto_stroke{stroke:blue;}
.poloto1.poloto_stroke{stroke:red;}
.poloto2.poloto_stroke{stroke:green;}
.poloto3.poloto_stroke{stroke:gold;}
.poloto4.poloto_stroke{stroke:aqua;}
.poloto5.poloto_stroke{stroke:lime;}
.poloto6.poloto_stroke{stroke:orange;}
.poloto7.poloto_stroke{stroke:chocolate;}
.poloto0.poloto_fill{fill:blue;}
.poloto1.poloto_fill{fill:red;}
.poloto2.poloto_fill{fill:green;}
.poloto3.poloto_fill{fill:gold;}
.poloto4.poloto_fill{fill:aqua;}
.poloto5.poloto_fill{fill:lime;}
.poloto6.poloto_fill{fill:orange;}
.poloto7.poloto_fill{fill:chocolate;}
	</style>
	<circle r="1e5" class="poloto_background" fill="white"/>
	<g id="poloto_plot0" class="poloto_plot poloto_imgs poloto_line poloto0 poloto_stroke" fill="none" stroke="black">
		<path d=" M 150.00 368.81 L 150.03 368.79 L 150.05 368.77 L 150.06 368.77 L 150.08 368.77 L 150.12 365.38 L 150.24 364.98 L 150.54 364.96 L 150.98 364.68 L 151.20 362.96 L 151.64 362.85 L 151.72 362.76 L 151.78 362.73 L 152.29 361.89 L 153.27 361.20 L 153.57 358.55 L 153.65 358.55 L 154.24 358.44 L 154.91 358.43 L 154.92 358.43 L 154.92 358.43 L 164.04 358.43 L 164.11 358.43 L 164.22 358.41 L 164.27 358.38 L 164.62 358.22 L 164.78 358.18 L 165.16 357.93 L 165.22 357.83 L 165.33 357.59 L 165.45 357.55 L 165.48 357.55 L 165.57 357.48 L 165.68 357.48 L 165.77 357.49 L 166.03 357.09 L 166.25 356.85 L 166.29 356.85 L 166.40 356.71 L 167.13 357.31 L 167.14 357.31 L 167.23 357.21 L 167.65 356.76 L 167.98 356.22 L 168.35 355.98 L 168.43 355.93 L 168.44 355.94 L 168.51 355.73 L 168.65 355.73 L 168.84 355.65 L 169.19 355.44 L 169.22 355.13 L 169.28 355.13 L 169.37 354.96 L 169.57 354.96 L 169.59 354.96 L 169.81 354.51 L 169.89 354.48 L 169.97 354.45 L 170.05 354.27 L 171.16 354.02 L 171.43 353.97 L 172.05 353.65 L 172.18 353.65 L 172.28 353.64 L 172.33 353.41 L 172.76 352.06 L 172.95 352.03 L 173.17 351.59 L 173.27 351.54 L 173.53 351.17 L 173.64 351.04 L 173.80 350.80 L 173.94 350.58 L 174.43 347.49 L 174.44 347.41 L 174.47 347.23 L 174.63 345.74 L 183.09 345.63 L 183.97 343.94 L 184.00 343.90 L 185.03 343.63 L 185.12 343.62 L 185.21 343.29 L 185.47 343.12 L 185.58 342.83 L 185.63 342.57 L 185.76 342.13 L 186.06 342.12 L 186.07 341.82 L 186.18 341.49 L 186.30 341.49 L 186.43 341.11 L 186.60 340.85 L 186.66 340.71 L 186.68 340.71 L 186.83 340.42 L 186.85 340.41 L 187.01 340.12 L 187.04 340.11 L 187.28 338.71 L 187.32 338.71 L 187.41 338.48 L 187.51 338.47 L 187.65 338.47 L 187.71 338.44 L 188.18 338.17 L 188.20 338.18 L 188.29 337.56 L 188.50 337.55 L 188.69 336.61 L 188.74 336.53 L 188.84 336.53 L 188.88 336.49 L 188.99 335.77 L 189.52 329.69 L 189.57 329.40 L 189.76 329.37 L 189.81 329.30 L 189.85 329.28 L 189.94 329.12 L 190.02 328.43 L 190.21 328.29 L 190.34 328.27 L 190.45 327.97 L 190.51 327.96 L 190.99 327.74 L 191.25 327.56 L 191.32 327.29 L 191.55 327.28 L 191.57 327.28 L 191.59 327.25 L 191.73 325.79 L 191.84 325.71 L 192.23 324.23 L 192.30 323.81 L 192.37 323.80 L 192.48 323.64 L 192.49 323.52 L 192.53 323.45 L 192.57 323.42 L 192.63 323.41 L 192.68 323.33 L 192.83 322.13 L 192.95 321.95 L 193.06 321.60 L 193.21 321.57 L 193.38 321.46 L 193.55 320.61 L 193.67 319.43 L 193.92 319.36 L 193.92 318.92 L 194.07 318.78 L 205.88 318.78 L 206.10 318.76 L 206.66 318.14 L 206.77 318.12 L 206.87 318.12 L 206.89 317.97 L 207.09 317.77 L 207.23 317.74 L 207.31 317.63 L 207.39 317.55 L 207.44 317.50 L 207.65 317.44 L 208.08 317.37 L 208.18 317.05 L 208.26 316.97 L 208.37 316.96 L 208.91 316.79 L 208.99 316.70 L 209.03 316.70 L 209.06 316.58 L 209.18 316.53 L 209.27 316.41 L 209.67 315.61 L 210.24 315.49 L 210.45 315.44 L 211.08 315.24 L 211.38 311.42 L 211.48 311.34 L 211.61 310.97 L 211.80 310.47 L 212.09 310.32 L 212.49 310.31 L 213.02 310.30 L 213.10 310.13 L 213.49 309.95 L 213.75 309.68 L 213.83 309.56 L 213.98 309.52 L 214.10 309.18 L 215.49 308.81 L 216.82 308.81 L 228.71 308.77 L 228.80 308.61 L 228.86 308.50 L 229.23 308.34 L 230.34 307.02 L 230.39 306.93 L 230.54 306.59 L 231.09 306.51 L 231.35 305.62 L 231.74 305.61 L 231.83 305.59 L 231.92 304.99 L 232.61 301.51 L 232.69 301.51 L 232.83 301.48 L 232.99 301.43 L 233.06 301.06 L 233.44 299.75 L 233.58 299.50 L 233.65 299.49 L 233.73 298.88 L 233.90 298.03 L 233.97 297.12 L 234.15 296.72 L 234.66 292.20 L 234.71 291.75 L 234.76 291.75 L 234.84 291.67 L 234.97 291.55 L 235.02 291.51 L 235.07 291.46 L 235.32 290.38 L 235.37 289.62 L 235.68 289.46 L 235.85 288.33 L 235.97 287.61 L 236.89 277.08 L 237.00 277.05 L 271.93 276.55 L 271.97 276.55 L 285.32 276.41 L 286.05 276.12 L 286.19 276.12 L 286.39 276.04 L 286.45 275.91 L 286.53 275.87 L 292.32 275.80 L 293.09 273.79 L 293.37 273.61 L 293.52 272.88 L 297.13 272.73 L 297.15 272.53 L 297.38 272.51 L 298.46 271.24 L 298.52 271.02 L 298.65 270.94 L 299.03 270.85 L 299.08 270.82 L 299.23 270.44 L 299.40 270.33 L 299.42 270.05 L 310.64 269.67 L 310.73 268.59 L 311.17 268.35 L 311.18 266.54 L 311.26 266.27 L 311.35 265.83 L 311.48 264.59 L 311.67 263.93 L 311.83 263.15 L 311.97 263.15 L 312.03 262.56 L 312.26 262.50 L 313.03 259.60 L 313.35 259.29 L 313.40 259.10 L 313.46 259.10 L 313.50 258.89 L 313.61 258.18 L 313.93 257.84 L 313.97 257.79 L 314.17 255.23 L 314.24 255.23 L 314.27 254.95 L 314.34 254.74 L 314.39 254.74 L 314.43 254.36 L 314.68 252.97 L 314.79 252.58 L 314.92 252.53 L 315.02 248.83 L 315.06 248.53 L 315.30 246.41 L 315.37 246.25 L 315.42 246.25 L 315.48 246.24 L 315.52 245.94 L 315.55 245.95 L 315.57 245.95 L 315.69 242.21 L 315.74 241.89 L 315.86 241.87 L 315.95 241.80 L 316.20 241.69 L 316.51 241.55 L 316.52 241.55 L 316.60 241.51 L 316.89 241.44 L 317.03 241.44 L 317.16 241.44 L 317.31 239.81 L 317.40 239.42 L 317.80 239.41 L 317.84 239.16 L 317.89 239.15 L 317.92 238.87 L 318.18 236.52 L 318.22 236.46 L 318.41 236.45 L 335.68 236.38 L 336.66 236.26 L 336.69 236.26 L 336.89 236.26 L 336.90 236.26 L 337.03 235.79 L 337.12 235.77 L 337.21 235.54 L 337.33 235.48 L 337.36 235.45 L 337.41 235.43 L 337.59 235.17 L 337.97 234.93 L 338.20 234.18 L 338.47 233.45 L 338.48 233.42 L 338.52 232.74 L 338.56 232.72 L 339.07 232.32 L 339.08 232.27 L 339.16 231.74 L 339.38 231.68 L 339.52 231.63 L 339.55 230.67 L 339.56 230.63 L 339.62 231.53 L 339.66 230.98 L 339.68 230.95 L 339.81 229.68 L 339.82 229.64 L 340.09 229.54 L 340.83 229.52 L 341.00 229.47 L 341.06 229.46 L 341.09 229.30 L 341.13 229.30 L 341.24 228.67 L 353.04 227.45 L 353.06 227.28 L 353.16 227.16 L 353.19 226.93 L 353.25 216.27 L 353.38 211.91 L 353.40 211.88 L 353.62 211.80 L 353.67 211.80 L 353.70 211.30 L 353.90 211.25 L 354.41 210.22 L 354.42 210.19 L 354.55 209.88 L 354.60 209.89 L 354.62 209.37 L 355.05 208.76 L 355.06 208.74 L 355.71 208.51 L 355.79 207.96 L 356.02 207.97 L 356.28 206.60 L 356.35 206.05 L 356.40 205.62 L 356.52 205.09 L 356.85 204.90 L 356.91 204.77 L 357.06 204.65 L 357.22 204.65 L 357.71 204.65 L 357.77 204.65 L 357.89 204.62 L 357.90 204.62 L 358.06 204.64 L 358.43 204.61 L 358.82 204.41 L 358.87 204.41 L 358.96 204.33 L 359.07 204.18 L 359.37 204.18 L 359.87 203.99 L 360.03 203.56 L 360.30 199.89 L 361.38 203.00 L 361.62 202.98 L 361.80 202.97 L 362.07 202.96 L 362.15 202.90 L 362.42 202.73 L 362.85 202.48 L 362.91 202.31 L 362.99 202.24 L 363.04 202.25 L 363.08 202.20 L 363.41 201.97 L 371.24 201.97 L 371.31 201.97 L 371.79 201.96 L 371.84 201.94 L 371.95 201.47 L 372.04 201.21 L 372.05 201.21 L 372.32 201.17 L 372.39 201.14 L 373.99 200.45 L 374.18 200.39 L 374.32 200.38 L 374.35 200.38 L 374.84 200.21 L 375.01 200.30 L 375.04 200.29 L 375.31 200.24 L 375.60 198.79 L 375.64 198.78 L 375.88 198.62 L 375.98 198.62 L 376.07 198.62 L 376.28 198.45 L 376.71 197.87 L 376.79 197.85 L 376.87 197.68 L 377.05 196.99 L 377.48 196.27 L 377.86 192.89 L 377.94 192.48 L 378.33 192.32 L 378.40 192.23 L 378.46 192.07 L 378.50 191.53 L 378.64 190.55 L 378.67 190.59 L 378.74 190.57 L 378.96 190.57 L 379.30 190.21 L 379.51 190.14 L 379.75 190.13 L 379.86 190.12 L 380.10 190.11 L 380.50 190.11 L 380.89 190.10 L 381.19 190.09 L 381.26 190.08 L 381.33 190.07 L 381.34 189.95 L 381.57 189.88 L 381.63 189.87 L 381.73 189.72 L 382.37 189.70 L 382.38 189.41 L 382.56 189.40 L 383.30 189.40 L 383.80 189.22 L 384.16 189.01 L 384.17 188.89 L 384.21 188.89 L 395.16 188.69 L 395.20 188.68 L 395.32 188.67 L 395.38 188.50 L 395.42 188.48 L 395.43 188.47 L 395.89 188.43 L 396.00 187.82 L 396.14 187.68 L 396.37 186.47 L 396.52 186.46 L 396.71 185.95 L 396.81 186.01 L 396.86 186.01 L 396.92 185.42 L 397.06 185.02 L 397.08 184.60 L 397.12 184.54 L 397.24 184.50 L 397.32 184.30 L 397.42 186.60 L 397.55 186.56 L 397.82 185.65 L 397.94 185.42 L 398.04 185.23 L 398.71 183.91 L 399.29 183.27 L 399.98 182.05 L 400.16 181.99 L 400.36 181.99 L 400.57 181.94 L 404.60 181.59 L 404.93 181.56 L 443.10 180.63 L 563.27 180.41 L 563.67 180.04 L 563.95 179.99 L 564.22 179.99 L 564.64 179.27 L 564.78 178.93 L 564.89 178.29 L 565.08 176.43 L 565.36 176.81 L 565.58 176.41 L 565.64 176.40 L 565.82 176.28 L 565.86 176.28 L 566.06 175.60 L 566.24 174.52 L 566.78 173.36 L 566.80 173.27 L 566.96 171.89 L 567.47 168.48 L 567.49 168.36 L 567.59 168.29 L 567.71 167.07 L 568.27 165.43 L 568.28 165.28 L 568.40 165.20 L 568.53 164.39 L 568.74 163.75 L 568.76 163.63 L 568.85 162.38 L 568.86 162.35 L 568.91 162.00 L 569.15 159.78 L 569.18 159.66 L 569.26 159.53 L 569.52 159.23 L 569.57 159.22 L 569.77 158.80 L 570.10 158.85 L 570.15 158.79 L 570.20 158.76 L 570.26 158.73 L 570.42 157.43 L 570.60 156.36 L 570.63 156.27 L 570.72 154.94 L 570.83 153.64 L 570.85 153.48 L 570.96 151.96 L 571.01 150.76 L 571.21 149.96 L 571.24 149.90 L 571.34 149.65 L 571.49 149.63 L 572.35 149.59 L 572.78 149.56 L 582.17 149.61 L 582.27 149.38 L 582.36 149.18 L 582.52 148.28 L 582.87 148.05 L 582.90 147.96 L 582.96 146.78 L 583.19 145.64 L 583.21 145.54 L 585.26 145.46 L 585.38 144.81 L 586.42 144.62 L 586.53 144.58 L 586.65 143.24 L 587.90 141.99 L 588.43 141.52 L 588.56 140.54 L 589.01 138.87 L 589.29 138.38 L 589.75 137.40 L 590.57 136.90 L 603.14 136.89 L 603.89 136.78 L 603.92 136.80 L 604.97 136.60 L 605.03 136.50 L 605.40 136.43 L 605.82 135.34 L 605.83 135.34 L 605.87 135.29 L 606.43 134.05 L 607.72 133.34 L 607.81 133.27 L 607.94 133.26 L 608.14 132.93 L 608.19 132.85 L 608.26 132.78 L 608.86 132.74 L 609.35 132.74 L 609.61 132.74 L 609.64 132.69 L 610.18 131.60 L 610.59 131.39 L 610.61 131.31 L 610.66 131.22 L 610.72 130.93 L 624.35 130.51 L 624.38 130.49 L 624.42 130.47 L 624.68 130.35 L 624.89 130.22 L 626.09 128.54 L 626.39 128.34 L 627.25 127.84 L 628.00 127.72 L 628.55 127.55 L 628.71 126.01 L 629.40 124.20 L 629.65 124.07 L 629.74 122.90 L 631.76 120.75 L 631.78 120.75 L 631.89 120.23 L 632.27 120.17 L 632.28 120.17 L 632.30 120.04 L 632.37 119.87 L 632.54 119.70 L 632.76 118.80 L 634.85 116.63 L 635.12 116.37 L 635.31 115.98 L 635.34 115.93 L 635.38 115.63 L 644.67 114.64 L 644.97 113.90 L 645.15 113.86 L 645.21 113.37 L 646.09 113.14 L 646.27 112.64 L 646.43 112.64 L 646.53 111.60 L 646.82 108.95 L 646.87 108.91 L 647.26 108.86 L 647.35 108.00 L 647.69 106.96 L 647.76 106.24 L 648.03 105.58 L 648.24 105.23 L 648.39 104.44 L 648.74 103.76 L 648.78 103.01 L 649.23 102.84 L 649.27 102.84 L 649.34 101.87 L 649.43 101.87 L 649.48 101.80 L 650.00 100.00"/>
	</g>
	<g id="poloto_plot1" class="poloto_plot poloto_imgs poloto_line poloto1 poloto_stroke" fill="none" stroke="black">
		<path d=" M 150.00 381.47 L 150.03 381.45 L 150.05 381.44 L 150.06 381.44 L 150.08 381.44 L 150.12 380.85 L 150.24 380.83 L 150.54 380.82 L 150.98 380.60 L 151.20 380.50 L 151.64 380.53 L 151.72 380.48 L 151.78 380.48 L 152.29 380.44 L 153.27 380.33 L 153.57 378.04 L 153.65 378.04 L 154.24 377.98 L 154.91 377.97 L 154.92 377.97 L 154.92 377.97 L 164.04 377.97 L 164.11 377.97 L 164.22 377.97 L 164.27 377.94 L 164.62 377.93 L 164.78 377.93 L 165.16 377.93 L 165.22 377.93 L 165.33 377.91 L 165.45 377.91 L 165.48 377.91 L 165.57 377.88 L 165.68 377.88 L 165.77 377.88 L 166.03 377.76 L 166.25 377.76 L 166.29 377.76 L 166.40 377.76 L 167.13 378.62 L 167.14 378.62 L 167.23 378.61 L 167.65 378.48 L 167.98 378.33 L 168.35 378.27 L 168.43 378.23 L 168.44 378.23 L 168.51 378.23 L 168.65 378.23 L 168.84 378.17 L 169.19 378.12 L 169.22 378.12 L 169.28 378.12 L 169.37 378.10 L 169.57 378.10 L 169.59 378.10 L 169.81 378.09 L 169.89 378.09 L 169.97 378.09 L 170.05 378.09 L 171.16 377.99 L 171.43 377.98 L 172.05 377.93 L 172.18 377.93 L 172.28 377.93 L 172.33 377.93 L 172.76 377.87 L 172.95 377.87 L 173.17 377.78 L 173.27 377.77 L 173.53 377.59 L 173.64 377.52 L 173.80 377.52 L 173.94 377.52 L 174.43 374.84 L 174.44 374.79 L 174.47 374.79 L 174.63 374.53 L 183.09 374.53 L 183.97 373.38 L 184.00 373.38 L 185.03 373.38 L 185.12 373.38 L 185.21 373.26 L 185.47 373.24 L 185.58 373.24 L 185.63 373.24 L 185.76 373.24 L 186.06 373.24 L 186.07 372.99 L 186.18 372.98 L 186.30 372.98 L 186.43 372.95 L 186.60 372.94 L 186.66 372.94 L 186.68 372.94 L 186.83 372.94 L 186.85 372.94 L 187.01 372.94 L 187.04 372.94 L 187.28 371.81 L 187.32 371.81 L 187.41 371.67 L 187.51 371.67 L 187.65 371.67 L 187.71 371.66 L 188.18 371.66 L 188.20 371.66 L 188.29 371.59 L 188.50 371.59 L 188.69 370.93 L 188.74 370.85 L 188.84 370.85 L 188.88 370.85 L 188.99 370.83 L 189.52 366.05 L 189.57 366.09 L 189.76 366.09 L 189.81 366.09 L 189.85 366.08 L 189.94 366.08 L 190.02 366.02 L 190.21 366.02 L 190.34 366.02 L 190.45 366.01 L 190.51 366.01 L 190.99 366.00 L 191.25 366.00 L 191.32 365.88 L 191.55 365.88 L 191.57 365.88 L 191.59 365.88 L 191.73 365.56 L 191.84 365.47 L 192.23 364.34 L 192.30 364.34 L 192.37 364.34 L 192.48 364.35 L 192.49 364.35 L 192.53 364.35 L 192.57 364.35 L 192.63 364.35 L 192.68 364.35 L 192.83 364.33 L 192.95 364.33 L 193.06 364.32 L 193.21 364.32 L 193.38 364.31 L 193.55 363.88 L 193.67 363.74 L 193.92 363.74 L 193.92 363.74 L 194.07 363.74 L 205.88 363.74 L 206.10 363.73 L 206.66 363.66 L 206.77 363.65 L 206.87 363.65 L 206.89 363.65 L 207.09 363.65 L 207.23 363.65 L 207.31 363.65 L 207.39 363.65 L 207.44 363.64 L 207.65 363.64 L 208.08 363.66 L 208.18 363.66 L 208.26 363.66 L 208.37 363.66 L 208.91 363.57 L 208.99 363.53 L 209.03 363.53 L 209.06 363.47 L 209.18 363.46 L 209.27 363.46 L 209.67 363.03 L 210.24 363.03 L 210.45 363.03 L 211.08 363.03 L 211.38 360.10 L 211.48 360.09 L 211.61 360.09 L 211.80 360.09 L 212.09 360.09 L 212.49 360.09 L 213.02 360.09 L 213.10 360.09 L 213.49 360.02 L 213.75 359.90 L 213.83 359.90 L 213.98 359.90 L 214.10 359.88 L 215.49 359.70 L 216.82 359.70 L 228.71 359.69 L 228.80 359.69 L 228.86 359.69 L 229.23 359.69 L 230.34 358.77 L 230.39 358.74 L 230.54 358.65 L 231.09 358.64 L 231.35 358.42 L 231.74 358.42 L 231.83 358.42 L 231.92 358.42 L 232.61 355.85 L 232.69 355.85 L 232.83 355.85 L 232.99 355.85 L 233.06 355.68 L 233.44 355.38 L 233.58 355.38 L 233.65 355.38 L 233.73 354.90 L 233.90 354.43 L 233.97 354.43 L 234.15 354.42 L 234.66 350.59 L 234.71 350.59 L 234.76 350.59 L 234.84 350.59 L 234.97 350.59 L 235.02 350.59 L 235.07 350.59 L 235.32 350.59 L 235.37 350.51 L 235.68 350.49 L 235.85 350.44 L 235.97 349.97 L 236.89 342.35 L 237.00 342.35 L 271.93 342.35 L 271.97 342.35 L 285.32 342.35 L 286.05 342.23 L 286.19 342.23 L 286.39 342.23 L 286.45 342.23 L 286.53 342.23 L 292.32 342.17 L 293.09 342.10 L 293.37 342.10 L 293.52 342.08 L 297.13 342.01 L 297.15 341.91 L 297.38 341.91 L 298.46 340.88 L 298.52 340.88 L 298.65 340.88 L 299.03 340.88 L 299.08 340.88 L 299.23 340.88 L 299.40 340.88 L 299.42 340.88 L 310.64 340.86 L 310.73 340.68 L 311.17 340.68 L 311.18 339.43 L 311.26 339.43 L 311.35 339.43 L 311.48 339.32 L 311.67 339.32 L 311.83 339.26 L 311.97 339.26 L 312.03 339.26 L 312.26 339.25 L 313.03 337.13 L 313.35 337.13 L 313.40 337.12 L 313.46 337.12 L 313.50 337.12 L 313.61 337.09 L 313.93 336.82 L 313.97 336.79 L 314.17 334.89 L 314.24 334.88 L 314.27 334.88 L 314.34 334.85 L 314.39 334.85 L 314.43 334.85 L 314.68 333.81 L 314.79 333.80 L 314.92 333.78 L 315.02 330.56 L 315.06 330.56 L 315.30 328.75 L 315.37 328.75 L 315.42 328.74 L 315.48 328.74 L 315.52 328.74 L 315.55 328.74 L 315.57 328.74 L 315.69 325.40 L 315.74 325.39 L 315.86 325.38 L 315.95 325.38 L 316.20 325.31 L 316.51 325.22 L 316.52 325.22 L 316.60 325.20 L 316.89 325.15 L 317.03 325.15 L 317.16 325.15 L 317.31 323.70 L 317.40 323.70 L 317.80 323.70 L 317.84 323.69 L 317.89 323.69 L 317.92 323.69 L 318.18 321.63 L 318.22 321.63 L 318.41 321.62 L 335.68 321.62 L 336.66 321.60 L 336.69 321.60 L 336.89 321.60 L 336.90 321.60 L 337.03 321.60 L 337.12 321.60 L 337.21 321.50 L 337.33 321.50 L 337.36 321.50 L 337.41 321.50 L 337.59 321.31 L 337.97 321.19 L 338.20 321.07 L 338.47 320.49 L 338.48 320.49 L 338.52 320.34 L 338.56 320.33 L 339.07 319.97 L 339.08 319.97 L 339.16 319.92 L 339.38 319.92 L 339.52 319.88 L 339.55 319.03 L 339.56 319.03 L 339.62 319.87 L 339.66 319.83 L 339.68 319.81 L 339.81 318.67 L 339.82 318.67 L 340.09 318.62 L 340.83 318.62 L 341.00 318.62 L 341.06 318.62 L 341.09 318.62 L 341.13 318.62 L 341.24 318.54 L 353.04 317.59 L 353.06 317.59 L 353.16 317.58 L 353.19 317.38 L 353.25 307.20 L 353.38 303.42 L 353.40 303.42 L 353.62 303.35 L 353.67 303.35 L 353.70 303.33 L 353.90 303.33 L 354.41 302.41 L 354.42 302.41 L 354.55 302.36 L 354.60 302.36 L 354.62 302.28 L 355.05 301.73 L 355.06 301.73 L 355.71 301.61 L 355.79 301.58 L 356.02 301.58 L 356.28 300.34 L 356.35 300.21 L 356.40 300.09 L 356.52 299.62 L 356.85 299.51 L 356.91 299.41 L 357.06 299.41 L 357.22 299.41 L 357.71 299.41 L 357.77 299.41 L 357.89 299.41 L 357.90 299.41 L 358.06 299.42 L 358.43 299.42 L 358.82 299.29 L 358.87 299.29 L 358.96 299.28 L 359.07 299.28 L 359.37 299.28 L 359.87 299.28 L 360.03 299.16 L 360.30 295.88 L 361.38 298.98 L 361.62 298.96 L 361.80 298.96 L 362.07 298.96 L 362.15 298.92 L 362.42 298.90 L 362.85 298.71 L 362.91 298.71 L 362.99 298.71 L 363.04 298.71 L 363.08 298.71 L 363.41 298.53 L 371.24 298.53 L 371.31 298.54 L 371.79 298.52 L 371.84 298.52 L 371.95 298.49 L 372.04 298.26 L 372.05 298.26 L 372.32 298.23 L 372.39 298.23 L 373.99 298.05 L 374.18 298.05 L 374.32 298.05 L 374.35 298.05 L 374.84 297.91 L 375.01 297.91 L 375.04 297.91 L 375.31 297.91 L 375.60 297.13 L 375.64 297.13 L 375.88 297.00 L 375.98 297.00 L 376.07 297.00 L 376.28 297.00 L 376.71 296.99 L 376.79 296.97 L 376.87 296.89 L 377.05 296.76 L 377.48 296.64 L 377.86 293.54 L 377.94 293.44 L 378.33 293.29 L 378.40 293.25 L 378.46 293.15 L 378.50 292.93 L 378.64 292.00 L 378.67 292.04 L 378.74 292.02 L 378.96 292.02 L 379.30 291.89 L 379.51 291.84 L 379.75 291.83 L 379.86 291.82 L 380.10 291.80 L 380.50 291.80 L 380.89 291.79 L 381.19 291.79 L 381.26 291.79 L 381.33 291.78 L 381.34 291.78 L 381.57 291.78 L 381.63 291.77 L 381.73 291.65 L 382.37 291.64 L 382.38 291.64 L 382.56 291.63 L 383.30 291.62 L 383.80 291.47 L 384.16 291.34 L 384.17 291.34 L 384.21 291.34 L 395.16 291.33 L 395.20 291.33 L 395.32 291.33 L 395.38 291.33 L 395.42 291.32 L 395.43 291.32 L 395.89 291.32 L 396.00 291.31 L 396.14 291.29 L 396.37 291.26 L 396.52 291.26 L 396.71 291.19 L 396.81 291.19 L 396.86 291.19 L 396.92 291.19 L 397.06 290.91 L 397.08 290.91 L 397.12 290.91 L 397.24 290.91 L 397.32 290.91 L 397.42 290.98 L 397.55 290.98 L 397.82 290.96 L 397.94 290.96 L 398.04 290.96 L 398.71 290.05 L 399.29 289.81 L 399.98 289.16 L 400.16 289.16 L 400.36 289.16 L 400.57 289.16 L 404.60 289.08 L 404.93 289.07 L 443.10 288.96 L 563.27 288.79 L 563.67 288.74 L 563.95 288.73 L 564.22 288.73 L 564.64 288.31 L 564.78 288.31 L 564.89 288.31 L 565.08 286.78 L 565.36 287.07 L 565.58 287.05 L 565.64 287.05 L 565.82 287.04 L 565.86 287.04 L 566.06 287.04 L 566.24 286.97 L 566.78 286.00 L 566.80 286.00 L 566.96 285.92 L 567.47 282.79 L 567.49 282.79 L 567.59 282.79 L 567.71 282.74 L 568.27 281.29 L 568.28 281.29 L 568.40 281.29 L 568.53 281.25 L 568.74 280.72 L 568.76 280.72 L 568.85 280.71 L 568.86 280.71 L 568.91 280.42 L 569.15 278.35 L 569.18 278.35 L 569.26 278.35 L 569.52 278.18 L 569.57 278.18 L 569.77 277.84 L 570.10 277.84 L 570.15 277.84 L 570.20 277.84 L 570.26 277.84 L 570.42 277.83 L 570.60 276.90 L 570.63 276.90 L 570.72 276.90 L 570.83 276.19 L 570.85 276.19 L 570.96 275.44 L 571.01 275.39 L 571.21 274.66 L 571.24 274.66 L 571.34 274.66 L 571.49 274.64 L 572.35 274.64 L 572.78 274.64 L 582.17 274.64 L 582.27 274.64 L 582.36 274.64 L 582.52 274.64 L 582.87 274.44 L 582.90 274.44 L 582.96 274.38 L 583.19 273.35 L 583.21 273.35 L 585.26 273.37 L 585.38 273.16 L 586.42 273.16 L 586.53 273.16 L 586.65 273.08 L 587.90 272.23 L 588.43 272.07 L 588.56 272.01 L 589.01 270.40 L 589.29 270.40 L 589.75 270.27 L 590.57 270.27 L 603.14 270.26 L 603.89 270.16 L 603.92 270.19 L 604.97 270.19 L 605.03 270.19 L 605.40 270.19 L 605.82 270.15 L 605.83 270.15 L 605.87 270.15 L 606.43 269.21 L 607.72 269.18 L 607.81 269.18 L 607.94 269.18 L 608.14 269.14 L 608.19 269.11 L 608.26 269.11 L 608.86 269.07 L 609.35 269.07 L 609.61 269.07 L 609.64 269.07 L 610.18 269.05 L 610.59 268.94 L 610.61 268.94 L 610.66 268.94 L 610.72 268.94 L 624.35 268.72 L 624.38 268.72 L 624.42 268.72 L 624.68 268.72 L 624.89 268.72 L 626.09 267.79 L 626.39 267.73 L 627.25 267.66 L 628.00 267.61 L 628.55 267.61 L 628.71 267.61 L 629.40 266.20 L 629.65 266.16 L 629.74 266.11 L 631.76 265.13 L 631.78 265.13 L 631.89 265.11 L 632.27 265.10 L 632.28 265.10 L 632.30 265.10 L 632.37 265.07 L 632.54 265.03 L 632.76 264.92 L 634.85 263.29 L 635.12 263.21 L 635.31 263.21 L 635.34 263.21 L 635.38 263.21 L 644.67 263.21 L 644.97 263.20 L 645.15 263.20 L 645.21 263.20 L 646.09 263.20 L 646.27 263.20 L 646.43 263.20 L 646.53 263.16 L 646.82 261.02 L 646.87 261.01 L 647.26 261.02 L 647.35 261.01 L 647.69 260.18 L 647.76 260.13 L 648.03 259.59 L 648.24 259.59 L 648.39 259.54 L 648.74 259.05 L 648.78 259.04 L 649.23 257.45 L 649.27 257.45 L 649.34 257.44 L 649.43 257.44 L 649.48 257.44 L 650.00 255.85"/>
	</g>
	<g id="poloto_plot2" class="poloto_plot poloto_imgs poloto_line poloto2 poloto_stroke" fill="none" stroke="black">
		<path d=" M 150.00 391.69 L 150.03 391.68 L 150.05 391.68 L 150.06 391.68 L 150.08 391.68 L 150.12 389.55 L 150.24 389.26 L 150.54 389.25 L 150.98 389.24 L 151.20 387.97 L 151.64 387.85 L 151.72 387.82 L 151.78 387.78 L 152.29 387.21 L 153.27 386.77 L 153.57 386.68 L 153.65 386.69 L 154.24 386.65 L 154.91 386.65 L 154.92 386.65 L 154.92 386.65 L 164.04 386.65 L 164.11 386.65 L 164.22 386.63 L 164.27 386.63 L 164.62 386.50 L 164.78 386.47 L 165.16 386.26 L 165.22 386.17 L 165.33 385.98 L 165.45 385.95 L 165.48 385.95 L 165.57 385.92 L 165.68 385.92 L 165.77 385.92 L 166.03 385.71 L 166.25 385.51 L 166.29 385.51 L 166.40 385.40 L 167.13 385.14 L 167.14 385.14 L 167.23 385.06 L 167.65 384.77 L 167.98 384.43 L 168.35 384.29 L 168.43 384.29 L 168.44 384.29 L 168.51 384.09 L 168.65 384.09 L 168.84 384.07 L 169.19 383.93 L 169.22 383.68 L 169.28 383.68 L 169.37 383.56 L 169.57 383.56 L 169.59 383.56 L 169.81 383.18 L 169.89 383.16 L 169.97 383.13 L 170.05 382.95 L 171.16 382.85 L 171.43 382.81 L 172.05 382.56 L 172.18 382.56 L 172.28 382.54 L 172.33 382.35 L 172.76 381.31 L 172.95 381.29 L 173.17 380.98 L 173.27 380.95 L 173.53 380.81 L 173.64 380.76 L 173.80 380.54 L 173.94 380.36 L 174.43 380.35 L 174.44 380.33 L 174.47 380.18 L 174.63 379.18 L 183.09 379.07 L 183.97 378.77 L 184.00 378.73 L 185.03 378.48 L 185.12 378.47 L 185.21 378.29 L 185.47 378.16 L 185.58 377.93 L 185.63 377.74 L 185.76 377.37 L 186.06 377.36 L 186.07 377.36 L 186.18 377.10 L 186.30 377.10 L 186.43 376.82 L 186.60 376.61 L 186.66 376.49 L 186.68 376.49 L 186.83 376.23 L 186.85 376.23 L 187.01 376.00 L 187.04 375.99 L 187.28 375.91 L 187.32 375.91 L 187.41 375.82 L 187.51 375.81 L 187.65 375.81 L 187.71 375.79 L 188.18 375.56 L 188.20 375.57 L 188.29 375.12 L 188.50 375.10 L 188.69 374.96 L 188.74 374.96 L 188.84 374.96 L 188.88 374.92 L 188.99 374.30 L 189.52 373.78 L 189.57 373.49 L 189.76 373.47 L 189.81 373.40 L 189.85 373.38 L 189.94 373.25 L 190.02 372.76 L 190.21 372.68 L 190.34 372.67 L 190.45 372.43 L 190.51 372.42 L 190.99 372.23 L 191.25 372.10 L 191.32 371.99 L 191.55 371.98 L 191.57 371.98 L 191.59 371.96 L 191.73 371.07 L 191.84 371.06 L 192.23 370.93 L 192.30 370.58 L 192.37 370.57 L 192.48 370.42 L 192.49 370.34 L 192.53 370.28 L 192.57 370.24 L 192.63 370.24 L 192.68 370.17 L 192.83 369.17 L 192.95 369.07 L 193.06 368.77 L 193.21 368.75 L 193.38 368.65 L 193.55 368.34 L 193.67 367.47 L 193.92 367.41 L 193.92 367.03 L 194.07 366.94 L 205.88 366.95 L 206.10 366.95 L 206.66 366.54 L 206.77 366.54 L 206.87 366.54 L 206.89 366.43 L 207.09 366.25 L 207.23 366.22 L 207.31 366.12 L 207.39 366.04 L 207.44 366.00 L 207.65 365.95 L 208.08 366.03 L 208.18 365.75 L 208.26 365.68 L 208.37 365.67 L 208.91 365.62 L 208.99 365.57 L 209.03 365.57 L 209.06 365.52 L 209.18 365.47 L 209.27 365.37 L 209.67 365.11 L 210.24 365.00 L 210.45 364.96 L 211.08 364.79 L 211.38 364.39 L 211.48 364.32 L 211.61 364.00 L 211.80 363.59 L 212.09 363.49 L 212.49 363.48 L 213.02 363.46 L 213.10 363.31 L 213.49 363.21 L 213.75 363.08 L 213.83 362.98 L 213.98 362.94 L 214.10 362.67 L 215.49 362.53 L 216.82 362.53 L 228.71 362.50 L 228.80 362.35 L 228.86 362.25 L 229.23 362.10 L 230.34 361.83 L 230.39 361.79 L 230.54 361.60 L 231.09 361.53 L 231.35 361.00 L 231.74 360.99 L 231.83 360.97 L 231.92 360.45 L 232.61 359.97 L 232.69 359.96 L 232.83 359.93 L 232.99 359.89 L 233.06 359.71 L 233.44 358.91 L 233.58 358.70 L 233.65 358.69 L 233.73 358.60 L 233.90 358.29 L 233.97 357.48 L 234.15 357.15 L 234.66 356.96 L 234.71 356.55 L 234.76 356.55 L 234.84 356.48 L 234.97 356.37 L 235.02 356.34 L 235.07 356.30 L 235.32 355.36 L 235.37 354.80 L 235.68 354.70 L 235.85 353.76 L 235.97 353.58 L 236.89 352.11 L 237.00 352.08 L 271.93 351.65 L 271.97 351.65 L 285.32 351.53 L 286.05 351.37 L 286.19 351.37 L 286.39 351.30 L 286.45 351.18 L 286.53 351.15 L 292.32 351.14 L 293.09 349.44 L 293.37 349.30 L 293.52 348.71 L 297.13 348.64 L 297.15 348.58 L 297.38 348.57 L 298.46 348.47 L 298.52 348.27 L 298.65 348.20 L 299.03 348.12 L 299.08 348.09 L 299.23 347.77 L 299.40 347.67 L 299.42 347.41 L 310.64 347.10 L 310.73 346.33 L 311.17 346.12 L 311.18 345.83 L 311.26 345.60 L 311.35 345.25 L 311.48 344.31 L 311.67 343.80 L 311.83 343.14 L 311.97 343.14 L 312.03 342.63 L 312.26 342.59 L 313.03 342.11 L 313.35 341.89 L 313.40 341.75 L 313.46 341.74 L 313.50 341.58 L 313.61 341.00 L 313.93 340.94 L 313.97 340.94 L 314.17 340.56 L 314.24 340.56 L 314.27 340.35 L 314.34 340.21 L 314.39 340.21 L 314.43 339.91 L 314.68 339.73 L 314.79 339.43 L 314.92 339.41 L 315.02 339.25 L 315.06 339.03 L 315.30 338.90 L 315.37 338.77 L 315.42 338.77 L 315.48 338.77 L 315.52 338.53 L 315.55 338.54 L 315.57 338.54 L 315.69 338.46 L 315.74 338.20 L 315.86 338.20 L 315.95 338.13 L 316.20 338.11 L 316.51 338.08 L 316.52 338.08 L 316.60 338.07 L 316.89 338.07 L 317.03 338.07 L 317.16 338.07 L 317.31 338.02 L 317.40 337.71 L 317.80 337.71 L 317.84 337.53 L 317.89 337.53 L 317.92 337.32 L 318.18 337.25 L 318.22 337.20 L 318.41 337.20 L 335.68 337.14 L 336.66 337.06 L 336.69 337.06 L 336.89 337.05 L 336.90 337.06 L 337.03 336.69 L 337.12 336.68 L 337.21 336.58 L 337.33 336.52 L 337.36 336.49 L 337.41 336.47 L 337.59 336.44 L 337.97 336.36 L 338.20 335.87 L 338.47 335.85 L 338.48 335.81 L 338.52 335.40 L 338.56 335.40 L 339.07 335.40 L 339.08 335.36 L 339.16 334.98 L 339.38 334.93 L 339.52 334.92 L 339.55 334.91 L 339.56 334.87 L 339.62 334.84 L 339.66 334.45 L 339.68 334.44 L 339.81 334.44 L 339.82 334.41 L 340.09 334.37 L 340.83 334.36 L 341.00 334.33 L 341.06 334.32 L 341.09 334.19 L 341.13 334.19 L 341.24 333.76 L 353.04 333.62 L 353.06 333.49 L 353.16 333.41 L 353.19 333.39 L 353.25 333.02 L 353.38 332.93 L 353.40 332.91 L 353.62 332.91 L 353.67 332.91 L 353.70 332.54 L 353.90 332.49 L 354.41 332.48 L 354.42 332.46 L 354.55 332.25 L 354.60 332.26 L 354.62 331.92 L 355.05 331.92 L 355.06 331.90 L 355.71 331.81 L 355.79 331.40 L 356.02 331.40 L 356.28 331.40 L 356.35 331.10 L 356.40 330.87 L 356.52 330.86 L 356.85 330.81 L 356.91 330.79 L 357.06 330.69 L 357.22 330.69 L 357.71 330.70 L 357.77 330.70 L 357.89 330.67 L 357.90 330.67 L 358.06 330.67 L 358.43 330.65 L 358.82 330.60 L 358.87 330.60 L 358.96 330.56 L 359.07 330.45 L 359.37 330.45 L 359.87 330.32 L 360.03 330.09 L 360.30 330.06 L 361.38 329.81 L 361.62 329.81 L 361.80 329.81 L 362.07 329.80 L 362.15 329.78 L 362.42 329.66 L 362.85 329.64 L 362.91 329.53 L 362.99 329.47 L 363.04 329.49 L 363.08 329.45 L 363.41 329.43 L 371.24 329.42 L 371.31 329.42 L 371.79 329.42 L 371.84 329.41 L 371.95 329.07 L 372.04 329.05 L 372.05 329.05 L 372.32 329.04 L 372.39 329.03 L 373.99 328.52 L 374.18 328.47 L 374.32 328.46 L 374.35 328.45 L 374.84 328.44 L 375.01 328.51 L 375.04 328.51 L 375.31 328.48 L 375.60 328.00 L 375.64 327.99 L 375.88 327.98 L 375.98 327.98 L 376.07 327.98 L 376.28 327.88 L 376.71 327.44 L 376.79 327.44 L 376.87 327.38 L 377.05 326.99 L 377.48 326.55 L 377.86 326.58 L 377.94 326.35 L 378.33 326.35 L 378.40 326.32 L 378.46 326.29 L 378.50 326.06 L 378.64 326.06 L 378.67 326.06 L 378.74 326.06 L 378.96 326.06 L 379.30 325.87 L 379.51 325.85 L 379.75 325.85 L 379.86 325.85 L 380.10 325.85 L 380.50 325.85 L 380.89 325.85 L 381.19 325.85 L 381.26 325.85 L 381.33 325.84 L 381.34 325.76 L 381.57 325.70 L 381.63 325.70 L 381.73 325.69 L 382.37 325.69 L 382.38 325.46 L 382.56 325.46 L 383.30 325.47 L 383.80 325.46 L 384.16 325.41 L 384.17 325.32 L 384.21 325.32 L 395.16 325.17 L 395.20 325.16 L 395.32 325.15 L 395.38 325.02 L 395.42 325.02 L 395.43 325.01 L 395.89 324.97 L 396.00 324.51 L 396.14 324.41 L 396.37 323.51 L 396.52 323.50 L 396.71 323.11 L 396.81 323.16 L 396.86 323.15 L 396.92 322.66 L 397.06 322.57 L 397.08 322.23 L 397.12 322.18 L 397.24 322.15 L 397.32 321.98 L 397.42 324.01 L 397.55 323.97 L 397.82 323.16 L 397.94 322.98 L 398.04 322.80 L 398.71 322.48 L 399.29 322.14 L 399.98 321.66 L 400.16 321.61 L 400.36 321.61 L 400.57 321.57 L 404.60 321.33 L 404.93 321.30 L 443.10 320.67 L 563.27 320.65 L 563.67 320.37 L 563.95 320.32 L 564.22 320.32 L 564.64 320.06 L 564.78 319.76 L 564.89 319.21 L 565.08 319.06 L 565.36 319.11 L 565.58 318.79 L 565.64 318.78 L 565.82 318.68 L 565.86 318.68 L 566.06 318.14 L 566.24 317.31 L 566.78 317.23 L 566.80 317.15 L 566.96 316.08 L 567.47 316.04 L 567.49 315.93 L 567.59 315.87 L 567.71 314.90 L 568.27 314.85 L 568.28 314.71 L 568.40 314.64 L 568.53 314.01 L 568.74 313.99 L 568.76 313.88 L 568.85 312.82 L 568.86 312.80 L 568.91 312.76 L 569.15 312.76 L 569.18 312.65 L 569.26 312.58 L 569.52 312.48 L 569.57 312.47 L 569.77 312.42 L 570.10 312.46 L 570.15 312.41 L 570.20 312.38 L 570.26 312.35 L 570.42 311.25 L 570.60 311.23 L 570.63 311.14 L 570.72 310.01 L 570.83 309.60 L 570.85 309.45 L 570.96 308.90 L 571.01 307.95 L 571.21 307.94 L 571.24 307.88 L 571.34 307.69 L 571.49 307.69 L 572.35 307.65 L 572.78 307.63 L 582.17 307.67 L 582.27 307.46 L 582.36 307.30 L 582.52 306.54 L 582.87 306.53 L 582.90 306.45 L 582.96 305.49 L 583.19 305.48 L 583.21 305.39 L 585.26 305.29 L 585.38 304.94 L 586.42 304.78 L 586.53 304.74 L 586.65 303.67 L 587.90 303.37 L 588.43 303.11 L 588.56 302.31 L 589.01 302.31 L 589.29 301.86 L 589.75 301.17 L 590.57 300.76 L 603.14 300.75 L 603.89 300.74 L 603.92 300.74 L 604.97 300.59 L 605.03 300.50 L 605.40 300.44 L 605.82 299.54 L 605.83 299.54 L 605.87 299.50 L 606.43 299.31 L 607.72 298.72 L 607.81 298.66 L 607.94 298.65 L 608.14 298.40 L 608.19 298.36 L 608.26 298.31 L 608.86 298.31 L 609.35 298.31 L 609.61 298.31 L 609.64 298.27 L 610.18 297.36 L 610.59 297.28 L 610.61 297.21 L 610.66 297.12 L 610.72 296.90 L 624.35 296.73 L 624.38 296.71 L 624.42 296.69 L 624.68 296.58 L 624.89 296.47 L 626.09 295.95 L 626.39 295.85 L 627.25 295.46 L 628.00 295.40 L 628.55 295.24 L 628.71 293.90 L 629.40 293.67 L 629.65 293.61 L 629.74 292.64 L 631.76 291.71 L 631.78 291.71 L 631.89 291.28 L 632.27 291.24 L 632.28 291.24 L 632.30 291.13 L 632.37 291.02 L 632.54 290.92 L 632.76 290.26 L 634.85 289.91 L 635.12 289.76 L 635.31 289.40 L 635.34 289.36 L 635.38 289.13 L 644.67 288.28 L 644.97 287.68 L 645.15 287.65 L 645.21 287.25 L 646.09 287.08 L 646.27 286.64 L 646.43 286.64 L 646.53 285.74 L 646.82 285.53 L 646.87 285.50 L 647.26 285.45 L 647.35 284.71 L 647.69 284.62 L 647.76 284.04 L 648.03 283.98 L 648.24 283.64 L 648.39 282.99 L 648.74 282.87 L 648.78 282.20 L 649.23 283.70 L 649.27 283.70 L 649.34 282.85 L 649.43 282.85 L 649.48 282.78 L 650.00 282.70"/>
	</g>
	<g class="poloto_legend poloto_imgs poloto_line poloto0 poloto_stroke"><line x1="680" x2="730" y1="81.25" y2="81.25"/></g>
	<g class="poloto_legend poloto_imgs poloto_line poloto1 poloto_stroke"><line x1="680" x2="730" y1="131.25" y2="131.25"/></g>
	<g class="poloto_legend poloto_imgs poloto_line poloto2 poloto_stroke"><line x1="680" x2="730" y1="181.25" y2="181.25"/></g>
	<text class="poloto_legend poloto_text poloto_line poloto0" x="675" y="100">total</text>
	<text class="poloto_legend poloto_text poloto_line poloto1" x="675" y="150">code</text>
	<text class="poloto_legend poloto_text poloto_line poloto2" x="675" y="200">docs</text>
	<text class="poloto_text poloto_name poloto_title" x="400.00" y="37.50">Workspace lines over time</text>
	<text class="poloto_text poloto_name poloto_x" x="400.00" y="640">date (JST)</text>
	<text class="poloto_text poloto_name poloto_y" x="37.50" y="250.00" transform="rotate(-90,37.50,250.00)">lines</text>
	<text class="poloto_text poloto_ticks poloto_y">
		<tspan x="135.00" y="400.00">0</tspan>
		<tspan x="135.00" y="320.95">50K</tspan>
		<tspan x="135.00" y="241.90">100K</tspan>
		<tspan x="135.00" y="162.84">150K</tspan>
	</text>
	<g class="poloto_imgs poloto_ticks poloto_y" stroke="black">
		<line x1="150.00" x2="144.00" y1="400.00" y2="400.00"/>
		<line x1="150.00" x2="144.00" y1="320.95" y2="320.95"/>
		<line x1="150.00" x2="144.00" y1="241.90" y2="241.90"/>
		<line x1="150.00" x2="144.00" y1="162.84" y2="162.84"/>
	</g>
	<g class="poloto_text poloto_ticks poloto_x">
		<text x="228.56" y="430.00" text-anchor="end" transform="rotate(-90 228.56 430.00)">2026-04-24 12:06</text>
		<text x="349.49" y="430.00" text-anchor="end" transform="rotate(-90 349.49 430.00)">2026-04-30 07:00</text>
		<text x="470.42" y="430.00" text-anchor="end" transform="rotate(-90 470.42 430.00)">2026-05-06 01:53</text>
		<text x="591.35" y="430.00" text-anchor="end" transform="rotate(-90 591.35 430.00)">2026-05-11 20:46</text>
	</g>
	<g class="poloto_imgs poloto_ticks poloto_x" stroke="black">
		<line x1="228.56" x2="228.56" y1="400.00" y2="405.00"/>
		<line x1="349.49" x2="349.49" y1="400.00" y2="405.00"/>
		<line x1="470.42" x2="470.42" y1="400.00" y2="405.00"/>
		<line x1="591.35" x2="591.35" y1="400.00" y2="405.00"/>
	</g>
	<path class="poloto_imgs poloto_ticks poloto_x" stroke="black" style="stroke-dasharray:12.092857668032675;stroke-dashoffset:-78.5607661260292;" d=" M 150.00 400.00 L 650.00 400.00"/>
	<path class="poloto_imgs poloto_ticks poloto_y" stroke="black" style="stroke-dasharray:7.905221662415414;stroke-dashoffset:-0;" d=" M 150.00 400.00 L 150.00 100.00"/>
</svg>

