<svg class="poloto" width="800" height="680" viewBox="0 0 800 680" xmlns="http://www.w3.org/2000/svg">
	<style>
.poloto{
  stroke-linecap:round;
  stroke-linejoin:round;
  font-family:Roboto,sans-serif;
  font-size:16px;
}
.poloto_background{fill:AliceBlue;}
.poloto_scatter{stroke-width:7}
.poloto_line{stroke-width:2}
.poloto_text{fill: black;}
.poloto_name{font-size:24px;dominant-baseline:auto;text-anchor:middle;}
.poloto_where{dominant-baseline:middle;text-anchor:start}
.poloto_text.poloto_legend{font-size:20px;dominant-baseline:middle;text-anchor:start;}
.poloto_text.poloto_ticks.poloto_y{dominant-baseline:middle;text-anchor:end}
.poloto_text.poloto_ticks.poloto_x{dominant-baseline:auto;text-anchor:middle}
.poloto_imgs.poloto_ticks{stroke: black;stroke-width:3;fill:none;stroke-dasharray:none}
.poloto_grid{stroke:gray;stroke-width:0.5}

.poloto0.poloto_stroke{stroke:blue;}
.poloto1.poloto_stroke{stroke:red;}
.poloto2.poloto_stroke{stroke:green;}
.poloto3.poloto_stroke{stroke:gold;}
.poloto4.poloto_stroke{stroke:aqua;}
.poloto5.poloto_stroke{stroke:lime;}
.poloto6.poloto_stroke{stroke:orange;}
.poloto7.poloto_stroke{stroke:chocolate;}
.poloto0.poloto_fill{fill:blue;}
.poloto1.poloto_fill{fill:red;}
.poloto2.poloto_fill{fill:green;}
.poloto3.poloto_fill{fill:gold;}
.poloto4.poloto_fill{fill:aqua;}
.poloto5.poloto_fill{fill:lime;}
.poloto6.poloto_fill{fill:orange;}
.poloto7.poloto_fill{fill:chocolate;}
	</style>
	<circle r="1e5" class="poloto_background" fill="white"/>
	<g id="poloto_plot0" class="poloto_plot poloto_imgs poloto_line poloto0 poloto_stroke" fill="none" stroke="black">
		<path d=" M 150.00 367.30 L 150.03 367.27 L 150.05 367.26 L 150.06 367.26 L 150.08 367.26 L 150.12 363.71 L 150.25 363.28 L 150.54 363.26 L 150.98 362.97 L 151.21 361.16 L 151.66 361.05 L 151.74 360.96 L 151.79 360.92 L 152.32 360.04 L 153.30 359.32 L 153.61 356.54 L 153.69 356.54 L 154.28 356.43 L 154.96 356.42 L 154.97 356.42 L 154.97 356.42 L 164.18 356.42 L 164.25 356.41 L 164.36 356.39 L 164.41 356.36 L 164.76 356.20 L 164.92 356.15 L 165.31 355.90 L 165.37 355.78 L 165.48 355.53 L 165.60 355.49 L 165.63 355.49 L 165.73 355.42 L 165.83 355.42 L 165.93 355.43 L 166.18 355.01 L 166.41 354.76 L 166.45 354.76 L 166.56 354.61 L 167.29 355.25 L 167.31 355.25 L 167.40 355.14 L 167.82 354.67 L 168.16 354.09 L 168.53 353.84 L 168.61 353.80 L 168.62 353.80 L 168.69 353.58 L 168.84 353.58 L 169.02 353.50 L 169.38 353.29 L 169.41 352.95 L 169.47 352.95 L 169.56 352.78 L 169.77 352.78 L 169.79 352.78 L 170.00 352.30 L 170.09 352.28 L 170.17 352.24 L 170.25 352.05 L 171.37 351.79 L 171.64 351.74 L 172.27 351.40 L 172.40 351.40 L 172.50 351.39 L 172.55 351.15 L 172.98 349.74 L 173.17 349.71 L 173.39 349.24 L 173.50 349.20 L 173.76 348.80 L 173.87 348.66 L 174.03 348.41 L 174.17 348.19 L 174.67 344.94 L 174.68 344.87 L 174.71 344.67 L 174.87 343.11 L 183.42 343.00 L 184.30 341.22 L 184.33 341.18 L 185.38 340.90 L 185.46 340.89 L 185.56 340.54 L 185.82 340.36 L 185.93 340.06 L 185.97 339.79 L 186.11 339.33 L 186.41 339.32 L 186.42 339.00 L 186.54 338.66 L 186.66 338.65 L 186.79 338.26 L 186.95 337.98 L 187.02 337.84 L 187.04 337.83 L 187.19 337.53 L 187.21 337.52 L 187.37 337.22 L 187.40 337.21 L 187.65 335.74 L 187.69 335.74 L 187.77 335.50 L 187.88 335.49 L 188.02 335.49 L 188.08 335.45 L 188.56 335.18 L 188.57 335.19 L 188.66 334.54 L 188.87 334.52 L 189.07 333.54 L 189.12 333.46 L 189.22 333.45 L 189.26 333.41 L 189.37 332.66 L 189.90 326.29 L 189.96 325.98 L 190.15 325.95 L 190.20 325.88 L 190.24 325.85 L 190.33 325.69 L 190.41 324.96 L 190.60 324.81 L 190.74 324.80 L 190.84 324.48 L 190.90 324.47 L 191.39 324.24 L 191.65 324.06 L 191.73 323.77 L 191.95 323.76 L 191.97 323.76 L 192.00 323.73 L 192.14 322.20 L 192.25 322.11 L 192.65 320.56 L 192.71 320.11 L 192.79 320.10 L 192.89 319.94 L 192.90 319.82 L 192.95 319.75 L 192.99 319.71 L 193.04 319.70 L 193.09 319.62 L 193.25 318.36 L 193.37 318.17 L 193.48 317.80 L 193.63 317.77 L 193.81 317.66 L 193.98 316.76 L 194.10 315.52 L 194.35 315.46 L 194.35 314.99 L 194.50 314.84 L 206.42 314.84 L 206.65 314.83 L 207.21 314.17 L 207.33 314.16 L 207.42 314.16 L 207.44 313.99 L 207.65 313.79 L 207.79 313.76 L 207.87 313.64 L 207.95 313.55 L 208.00 313.50 L 208.22 313.44 L 208.65 313.37 L 208.75 313.03 L 208.83 312.94 L 208.94 312.93 L 209.49 312.76 L 209.57 312.67 L 209.61 312.67 L 209.64 312.54 L 209.76 312.48 L 209.86 312.36 L 210.26 311.53 L 210.83 311.40 L 211.04 311.34 L 211.68 311.13 L 211.98 307.13 L 212.09 307.05 L 212.22 306.65 L 212.41 306.13 L 212.69 305.98 L 213.10 305.97 L 213.64 305.95 L 213.72 305.78 L 214.12 305.59 L 214.37 305.30 L 214.45 305.18 L 214.61 305.14 L 214.73 304.78 L 216.14 304.39 L 217.48 304.39 L 229.48 304.35 L 229.57 304.18 L 229.63 304.07 L 230.01 303.89 L 231.13 302.51 L 231.17 302.42 L 231.33 302.07 L 231.88 301.98 L 232.14 301.04 L 232.54 301.04 L 232.63 301.02 L 232.72 300.38 L 233.42 296.74 L 233.50 296.73 L 233.65 296.70 L 233.80 296.66 L 233.87 296.26 L 234.26 294.89 L 234.40 294.63 L 234.47 294.62 L 234.55 293.98 L 234.73 293.09 L 234.80 292.14 L 234.97 291.72 L 235.49 286.98 L 235.54 286.50 L 235.59 286.50 L 235.67 286.42 L 235.80 286.30 L 235.85 286.25 L 235.90 286.20 L 236.15 285.07 L 236.21 284.27 L 236.52 284.11 L 236.70 282.92 L 236.81 282.17 L 237.74 271.13 L 237.85 271.10 L 273.13 270.57 L 273.16 270.57 L 286.64 270.42 L 287.38 270.12 L 287.53 270.12 L 287.73 270.03 L 287.79 269.90 L 287.87 269.86 L 293.72 269.78 L 294.49 267.68 L 294.78 267.49 L 294.93 266.72 L 298.57 266.56 L 298.59 266.35 L 298.82 266.33 L 299.91 265.01 L 299.97 264.77 L 300.11 264.68 L 300.49 264.59 L 300.54 264.56 L 300.69 264.16 L 300.86 264.05 L 300.89 263.76 L 312.22 263.35 L 312.30 262.22 L 312.75 261.97 L 312.76 260.08 L 312.84 259.80 L 312.93 259.33 L 313.06 258.03 L 313.25 257.33 L 313.41 256.52 L 313.56 256.52 L 313.62 255.90 L 313.85 255.84 L 314.63 252.79 L 314.95 252.47 L 315.00 252.28 L 315.07 252.27 L 315.11 252.06 L 315.22 251.31 L 315.53 250.95 L 315.58 250.91 L 315.78 248.22 L 315.85 248.21 L 315.88 247.92 L 315.95 247.71 L 316.00 247.70 L 316.05 247.30 L 316.29 245.85 L 316.40 245.43 L 316.54 245.38 L 316.64 241.50 L 316.68 241.19 L 316.92 238.97 L 316.99 238.80 L 317.04 238.80 L 317.10 238.79 L 317.14 238.48 L 317.18 238.49 L 317.19 238.48 L 317.32 234.57 L 317.36 234.23 L 317.48 234.20 L 317.57 234.14 L 317.83 234.03 L 318.14 233.88 L 318.15 233.88 L 318.24 233.83 L 318.53 233.76 L 318.67 233.76 L 318.80 233.76 L 318.95 232.05 L 319.05 231.64 L 319.45 231.63 L 319.48 231.36 L 319.53 231.36 L 319.56 231.07 L 319.83 228.60 L 319.87 228.54 L 320.06 228.52 L 337.50 228.45 L 338.49 228.32 L 338.52 228.32 L 338.72 228.32 L 338.73 228.32 L 338.86 227.83 L 338.96 227.81 L 339.04 227.57 L 339.16 227.51 L 339.20 227.48 L 339.24 227.46 L 339.43 227.18 L 339.81 226.94 L 340.05 226.14 L 340.31 225.39 L 340.32 225.35 L 340.37 224.64 L 340.40 224.61 L 340.92 224.20 L 340.93 224.15 L 341.01 223.59 L 341.24 223.53 L 341.38 223.47 L 341.41 222.47 L 341.42 222.42 L 341.48 223.37 L 341.52 222.79 L 341.54 222.76 L 341.67 221.43 L 341.68 221.39 L 341.95 221.28 L 342.70 221.26 L 342.87 221.21 L 342.93 221.20 L 342.96 221.03 L 343.01 221.03 L 343.11 220.36 L 355.03 219.09 L 355.05 218.91 L 355.15 218.79 L 355.18 218.54 L 355.25 207.37 L 355.38 202.80 L 355.39 202.77 L 355.61 202.68 L 355.66 202.68 L 355.70 202.16 L 355.89 202.10 L 356.41 201.02 L 356.42 201.00 L 356.55 200.67 L 356.60 200.68 L 356.63 200.13 L 357.06 199.50 L 357.07 199.48 L 357.72 199.23 L 357.80 198.66 L 358.04 198.67 L 358.31 197.23 L 358.37 196.66 L 358.42 196.20 L 358.54 195.64 L 358.88 195.45 L 358.94 195.31 L 359.09 195.18 L 359.25 195.18 L 359.75 195.18 L 359.81 195.18 L 359.92 195.16 L 359.93 195.16 L 360.10 195.17 L 360.47 195.14 L 360.86 194.93 L 360.92 194.93 L 361.01 194.85 L 361.12 194.69 L 361.42 194.69 L 361.92 194.49 L 362.09 194.05 L 362.36 190.20 L 363.46 193.45 L 363.70 193.44 L 363.87 193.42 L 364.14 193.41 L 364.23 193.35 L 364.51 193.17 L 364.94 192.91 L 364.99 192.73 L 365.07 192.66 L 365.13 192.67 L 365.17 192.62 L 365.51 192.38 L 373.40 192.37 L 373.48 192.38 L 373.97 192.36 L 374.02 192.34 L 374.13 191.85 L 374.22 191.58 L 374.23 191.58 L 374.50 191.53 L 374.57 191.51 L 376.19 190.79 L 376.38 190.72 L 376.52 190.71 L 376.55 190.71 L 377.05 190.53 L 377.22 190.62 L 377.25 190.61 L 377.52 190.57 L 377.81 189.04 L 377.85 189.03 L 378.10 188.86 L 378.20 188.86 L 378.29 188.86 L 378.49 188.69 L 378.93 188.07 L 379.02 188.05 L 379.10 187.88 L 379.28 187.16 L 379.71 186.40 L 380.10 182.86 L 380.18 182.43 L 380.57 182.26 L 380.64 182.17 L 380.70 182.00 L 380.74 181.43 L 380.88 180.41 L 380.91 180.45 L 380.98 180.43 L 381.20 180.42 L 381.55 180.05 L 381.76 179.98 L 382.00 179.96 L 382.12 179.95 L 382.36 179.94 L 382.75 179.94 L 383.15 179.93 L 383.45 179.92 L 383.52 179.91 L 383.60 179.90 L 383.61 179.78 L 383.84 179.70 L 383.91 179.69 L 384.00 179.54 L 384.65 179.51 L 384.66 179.21 L 384.84 179.19 L 385.59 179.20 L 386.09 179.01 L 386.46 178.79 L 386.47 178.66 L 386.50 178.66 L 397.56 178.45 L 397.60 178.44 L 397.73 178.43 L 397.79 178.26 L 397.83 178.24 L 397.83 178.23 L 398.31 178.18 L 398.41 177.54 L 398.55 177.39 L 398.79 176.13 L 398.94 176.12 L 399.13 175.58 L 399.23 175.64 L 399.28 175.64 L 399.34 175.03 L 399.48 174.61 L 399.50 174.16 L 399.55 174.10 L 399.66 174.06 L 399.74 173.85 L 399.84 176.27 L 399.98 176.22 L 400.25 175.26 L 400.37 175.02 L 400.47 174.82 L 401.15 173.44 L 401.73 172.77 L 402.43 171.49 L 402.61 171.43 L 402.81 171.43 L 403.03 171.37 L 407.09 171.01 L 407.43 170.98 L 445.97 170.00 L 567.32 169.78 L 567.72 169.38 L 568.00 169.33 L 568.28 169.33 L 568.70 168.58 L 568.85 168.22 L 568.96 167.54 L 569.15 165.60 L 569.43 166.00 L 569.66 165.58 L 569.71 165.57 L 569.90 165.44 L 569.94 165.45 L 570.14 164.73 L 570.32 163.59 L 570.87 162.38 L 570.88 162.28 L 571.04 160.84 L 571.56 157.26 L 571.58 157.14 L 571.68 157.06 L 571.81 155.78 L 572.37 154.06 L 572.38 153.90 L 572.51 153.83 L 572.64 152.98 L 572.85 152.31 L 572.86 152.18 L 572.95 150.87 L 572.97 150.84 L 573.02 150.47 L 573.26 148.14 L 573.29 148.01 L 573.37 147.88 L 573.63 147.57 L 573.68 147.56 L 573.88 147.11 L 574.22 147.16 L 574.27 147.11 L 574.32 147.08 L 574.38 147.04 L 574.54 145.67 L 574.72 144.56 L 574.75 144.46 L 574.85 143.07 L 574.95 141.71 L 574.98 141.54 L 575.08 139.94 L 575.13 138.69 L 575.34 137.84 L 575.37 137.78 L 575.48 137.52 L 575.62 137.50 L 576.49 137.46 L 576.93 137.42 L 586.41 137.48 L 586.50 137.24 L 586.60 137.03 L 586.76 136.09 L 587.11 135.84 L 587.14 135.75 L 587.21 134.51 L 587.43 133.31 L 587.46 133.21 L 589.53 133.13 L 589.65 132.45 L 590.70 132.25 L 590.81 132.20 L 590.93 130.80 L 592.19 129.49 L 592.73 128.99 L 592.86 127.97 L 593.31 126.21 L 593.59 125.71 L 594.06 124.68 L 594.89 124.15 L 607.58 124.14 L 608.34 124.02 L 608.37 124.04 L 609.43 123.84 L 609.49 123.74 L 609.86 123.66 L 610.29 122.52 L 610.29 122.52 L 610.34 122.47 L 610.91 121.16 L 612.21 120.42 L 612.30 120.35 L 612.43 120.34 L 612.63 119.99 L 612.68 119.90 L 612.76 119.84 L 613.36 119.79 L 613.85 119.79 L 614.11 119.79 L 614.15 119.74 L 614.69 118.60 L 615.11 118.38 L 615.13 118.29 L 615.18 118.20 L 615.23 117.89 L 629.00 117.45 L 629.03 117.43 L 629.07 117.41 L 629.34 117.29 L 629.54 117.15 L 630.76 115.39 L 631.06 115.18 L 631.93 114.65 L 632.69 114.53 L 633.24 114.36 L 633.40 112.73 L 634.10 110.84 L 634.35 110.70 L 634.44 109.48 L 636.48 107.22 L 636.50 107.22 L 636.61 106.68 L 637.00 106.61 L 637.01 106.61 L 637.03 106.48 L 637.10 106.30 L 637.27 106.12 L 637.49 105.18 L 639.61 102.90 L 639.88 102.63 L 640.07 102.22 L 640.10 102.17 L 640.14 101.85 L 649.52 100.82 L 649.82 100.03 L 650.00 100.00"/>
	</g>
	<g id="poloto_plot1" class="poloto_plot poloto_imgs poloto_line poloto1 poloto_stroke" fill="none" stroke="black">
		<path d=" M 150.00 380.57 L 150.03 380.55 L 150.05 380.54 L 150.06 380.54 L 150.08 380.54 L 150.12 379.93 L 150.25 379.90 L 150.54 379.89 L 150.98 379.66 L 151.21 379.56 L 151.66 379.58 L 151.74 379.54 L 151.79 379.54 L 152.32 379.49 L 153.30 379.38 L 153.61 376.98 L 153.69 376.98 L 154.28 376.92 L 154.96 376.91 L 154.97 376.91 L 154.97 376.91 L 164.18 376.91 L 164.25 376.91 L 164.36 376.90 L 164.41 376.87 L 164.76 376.86 L 164.92 376.86 L 165.31 376.86 L 165.37 376.86 L 165.48 376.84 L 165.60 376.84 L 165.63 376.84 L 165.73 376.81 L 165.83 376.81 L 165.93 376.81 L 166.18 376.68 L 166.41 376.68 L 166.45 376.68 L 166.56 376.68 L 167.29 377.58 L 167.31 377.58 L 167.40 377.57 L 167.82 377.43 L 168.16 377.29 L 168.53 377.22 L 168.61 377.17 L 168.62 377.17 L 168.69 377.17 L 168.84 377.17 L 169.02 377.11 L 169.38 377.06 L 169.41 377.06 L 169.47 377.06 L 169.56 377.04 L 169.77 377.04 L 169.79 377.04 L 170.00 377.03 L 170.09 377.03 L 170.17 377.03 L 170.25 377.03 L 171.37 376.92 L 171.64 376.91 L 172.27 376.87 L 172.40 376.87 L 172.50 376.87 L 172.55 376.87 L 172.98 376.79 L 173.17 376.79 L 173.39 376.71 L 173.50 376.70 L 173.76 376.50 L 173.87 376.43 L 174.03 376.43 L 174.17 376.43 L 174.67 373.62 L 174.68 373.57 L 174.71 373.57 L 174.87 373.30 L 183.42 373.30 L 184.30 372.09 L 184.33 372.09 L 185.38 372.09 L 185.46 372.09 L 185.56 371.96 L 185.82 371.94 L 185.93 371.94 L 185.97 371.94 L 186.11 371.94 L 186.41 371.94 L 186.42 371.68 L 186.54 371.67 L 186.66 371.67 L 186.79 371.64 L 186.95 371.63 L 187.02 371.63 L 187.04 371.63 L 187.19 371.63 L 187.21 371.63 L 187.37 371.63 L 187.40 371.63 L 187.65 370.44 L 187.69 370.44 L 187.77 370.30 L 187.88 370.30 L 188.02 370.30 L 188.08 370.29 L 188.56 370.28 L 188.57 370.28 L 188.66 370.21 L 188.87 370.21 L 189.07 369.53 L 189.12 369.44 L 189.22 369.44 L 189.26 369.44 L 189.37 369.42 L 189.90 364.41 L 189.96 364.45 L 190.15 364.45 L 190.20 364.45 L 190.24 364.44 L 190.33 364.44 L 190.41 364.37 L 190.60 364.37 L 190.74 364.37 L 190.84 364.36 L 190.90 364.36 L 191.39 364.35 L 191.65 364.35 L 191.73 364.22 L 191.95 364.22 L 191.97 364.22 L 192.00 364.22 L 192.14 363.89 L 192.25 363.80 L 192.65 362.61 L 192.71 362.61 L 192.79 362.61 L 192.89 362.63 L 192.90 362.63 L 192.95 362.63 L 192.99 362.63 L 193.04 362.63 L 193.09 362.63 L 193.25 362.60 L 193.37 362.60 L 193.48 362.59 L 193.63 362.59 L 193.81 362.58 L 193.98 362.13 L 194.10 361.99 L 194.35 361.99 L 194.35 361.98 L 194.50 361.98 L 206.42 361.98 L 206.65 361.97 L 207.21 361.90 L 207.33 361.88 L 207.42 361.88 L 207.44 361.88 L 207.65 361.88 L 207.79 361.88 L 207.87 361.88 L 207.95 361.88 L 208.00 361.88 L 208.22 361.88 L 208.65 361.90 L 208.75 361.90 L 208.83 361.90 L 208.94 361.90 L 209.49 361.81 L 209.57 361.76 L 209.61 361.76 L 209.64 361.70 L 209.76 361.69 L 209.86 361.69 L 210.26 361.24 L 210.83 361.24 L 211.04 361.24 L 211.68 361.24 L 211.98 358.16 L 212.09 358.16 L 212.22 358.16 L 212.41 358.16 L 212.69 358.16 L 213.10 358.16 L 213.64 358.16 L 213.72 358.16 L 214.12 358.08 L 214.37 357.95 L 214.45 357.95 L 214.61 357.95 L 214.73 357.94 L 216.14 357.74 L 217.48 357.74 L 229.48 357.74 L 229.57 357.74 L 229.63 357.74 L 230.01 357.74 L 231.13 356.77 L 231.17 356.74 L 231.33 356.64 L 231.88 356.64 L 232.14 356.40 L 232.54 356.41 L 232.63 356.41 L 232.72 356.41 L 233.42 353.71 L 233.50 353.71 L 233.65 353.71 L 233.80 353.71 L 233.87 353.54 L 234.26 353.21 L 234.40 353.21 L 234.47 353.21 L 234.55 352.72 L 234.73 352.22 L 234.80 352.22 L 234.97 352.21 L 235.49 348.20 L 235.54 348.20 L 235.59 348.20 L 235.67 348.20 L 235.80 348.20 L 235.85 348.20 L 235.90 348.20 L 236.15 348.20 L 236.21 348.11 L 236.52 348.09 L 236.70 348.03 L 236.81 347.55 L 237.74 339.56 L 237.85 339.56 L 273.13 339.56 L 273.16 339.56 L 286.64 339.56 L 287.38 339.43 L 287.53 339.43 L 287.73 339.43 L 287.79 339.43 L 287.87 339.43 L 293.72 339.37 L 294.49 339.30 L 294.78 339.30 L 294.93 339.27 L 298.57 339.20 L 298.59 339.10 L 298.82 339.10 L 299.91 338.01 L 299.97 338.01 L 300.11 338.01 L 300.49 338.01 L 300.54 338.01 L 300.69 338.01 L 300.86 338.01 L 300.89 338.01 L 312.22 338.00 L 312.30 337.81 L 312.75 337.81 L 312.76 336.50 L 312.84 336.50 L 312.93 336.50 L 313.06 336.38 L 313.25 336.38 L 313.41 336.32 L 313.56 336.32 L 313.62 336.32 L 313.85 336.31 L 314.63 334.09 L 314.95 334.08 L 315.00 334.07 L 315.07 334.07 L 315.11 334.07 L 315.22 334.04 L 315.53 333.76 L 315.58 333.72 L 315.78 331.73 L 315.85 331.72 L 315.88 331.72 L 315.95 331.70 L 316.00 331.70 L 316.05 331.69 L 316.29 330.61 L 316.40 330.59 L 316.54 330.57 L 316.64 327.20 L 316.68 327.19 L 316.92 325.30 L 316.99 325.30 L 317.04 325.29 L 317.10 325.29 L 317.14 325.29 L 317.18 325.29 L 317.19 325.29 L 317.32 321.78 L 317.36 321.78 L 317.48 321.76 L 317.57 321.76 L 317.83 321.69 L 318.14 321.60 L 318.15 321.60 L 318.24 321.58 L 318.53 321.52 L 318.67 321.52 L 318.80 321.52 L 318.95 320.01 L 319.05 320.01 L 319.45 320.00 L 319.48 320.00 L 319.53 320.00 L 319.56 320.00 L 319.83 317.83 L 319.87 317.83 L 320.06 317.82 L 337.50 317.82 L 338.49 317.81 L 338.52 317.81 L 338.72 317.81 L 338.73 317.81 L 338.86 317.81 L 338.96 317.80 L 339.04 317.70 L 339.16 317.70 L 339.20 317.70 L 339.24 317.70 L 339.43 317.50 L 339.81 317.38 L 340.05 317.25 L 340.31 316.64 L 340.32 316.64 L 340.37 316.48 L 340.40 316.47 L 340.92 316.09 L 340.93 316.09 L 341.01 316.04 L 341.24 316.04 L 341.38 316.00 L 341.41 315.11 L 341.42 315.11 L 341.48 315.99 L 341.52 315.94 L 341.54 315.93 L 341.67 314.73 L 341.68 314.73 L 341.95 314.68 L 342.70 314.68 L 342.87 314.68 L 342.93 314.68 L 342.96 314.68 L 343.01 314.68 L 343.11 314.60 L 355.03 313.60 L 355.05 313.60 L 355.15 313.59 L 355.18 313.38 L 355.25 302.71 L 355.38 298.74 L 355.39 298.74 L 355.61 298.67 L 355.66 298.67 L 355.70 298.65 L 355.89 298.65 L 356.41 297.68 L 356.42 297.68 L 356.55 297.63 L 356.60 297.63 L 356.63 297.54 L 357.06 296.97 L 357.07 296.97 L 357.72 296.85 L 357.80 296.81 L 358.04 296.82 L 358.31 295.51 L 358.37 295.37 L 358.42 295.25 L 358.54 294.76 L 358.88 294.64 L 358.94 294.53 L 359.09 294.53 L 359.25 294.53 L 359.75 294.53 L 359.81 294.53 L 359.92 294.53 L 359.93 294.53 L 360.10 294.55 L 360.47 294.55 L 360.86 294.41 L 360.92 294.41 L 361.01 294.40 L 361.12 294.40 L 361.42 294.40 L 361.92 294.40 L 362.09 294.28 L 362.36 290.83 L 363.46 294.08 L 363.70 294.07 L 363.87 294.06 L 364.14 294.06 L 364.23 294.02 L 364.51 294.00 L 364.94 293.80 L 364.99 293.80 L 365.07 293.80 L 365.13 293.80 L 365.17 293.80 L 365.51 293.62 L 373.40 293.62 L 373.48 293.62 L 373.97 293.61 L 374.02 293.61 L 374.13 293.57 L 374.22 293.33 L 374.23 293.33 L 374.50 293.30 L 374.57 293.30 L 376.19 293.11 L 376.38 293.11 L 376.52 293.11 L 376.55 293.11 L 377.05 292.97 L 377.22 292.97 L 377.25 292.97 L 377.52 292.96 L 377.81 292.15 L 377.85 292.15 L 378.10 292.01 L 378.20 292.01 L 378.29 292.01 L 378.49 292.01 L 378.93 291.99 L 379.02 291.97 L 379.10 291.90 L 379.28 291.76 L 379.71 291.63 L 380.10 288.39 L 380.18 288.28 L 380.57 288.12 L 380.64 288.08 L 380.70 287.97 L 380.74 287.74 L 380.88 286.77 L 380.91 286.81 L 380.98 286.79 L 381.20 286.78 L 381.55 286.65 L 381.76 286.60 L 382.00 286.59 L 382.12 286.57 L 382.36 286.56 L 382.75 286.56 L 383.15 286.55 L 383.45 286.55 L 383.52 286.54 L 383.60 286.54 L 383.61 286.54 L 383.84 286.54 L 383.91 286.52 L 384.00 286.40 L 384.65 286.39 L 384.66 286.39 L 384.84 286.38 L 385.59 286.37 L 386.09 286.21 L 386.46 286.07 L 386.47 286.07 L 386.50 286.07 L 397.56 286.07 L 397.60 286.07 L 397.73 286.07 L 397.79 286.07 L 397.83 286.05 L 397.83 286.05 L 398.31 286.05 L 398.41 286.04 L 398.55 286.02 L 398.79 286.00 L 398.94 286.00 L 399.13 285.92 L 399.23 285.92 L 399.28 285.92 L 399.34 285.92 L 399.48 285.62 L 399.50 285.62 L 399.55 285.62 L 399.66 285.62 L 399.74 285.62 L 399.84 285.69 L 399.98 285.69 L 400.25 285.68 L 400.37 285.68 L 400.47 285.68 L 401.15 284.73 L 401.73 284.47 L 402.43 283.79 L 402.61 283.79 L 402.81 283.79 L 403.03 283.79 L 407.09 283.70 L 407.43 283.70 L 445.97 283.58 L 567.32 283.40 L 567.72 283.35 L 568.00 283.34 L 568.28 283.34 L 568.70 282.90 L 568.85 282.90 L 568.96 282.90 L 569.15 281.30 L 569.43 281.60 L 569.66 281.58 L 569.71 281.58 L 569.90 281.57 L 569.94 281.57 L 570.14 281.56 L 570.32 281.49 L 570.87 280.48 L 570.88 280.48 L 571.04 280.39 L 571.56 277.11 L 571.58 277.11 L 571.68 277.11 L 571.81 277.06 L 572.37 275.54 L 572.38 275.54 L 572.51 275.54 L 572.64 275.50 L 572.85 274.94 L 572.86 274.94 L 572.95 274.93 L 572.97 274.93 L 573.02 274.63 L 573.26 272.46 L 573.29 272.46 L 573.37 272.46 L 573.63 272.28 L 573.68 272.28 L 573.88 271.92 L 574.22 271.92 L 574.27 271.92 L 574.32 271.92 L 574.38 271.92 L 574.54 271.91 L 574.72 270.93 L 574.75 270.93 L 574.85 270.93 L 574.95 270.19 L 574.98 270.19 L 575.08 269.41 L 575.13 269.36 L 575.34 268.58 L 575.37 268.58 L 575.48 268.58 L 575.62 268.57 L 576.49 268.57 L 576.93 268.56 L 586.41 268.56 L 586.50 268.56 L 586.60 268.56 L 586.76 268.56 L 587.11 268.36 L 587.14 268.36 L 587.21 268.29 L 587.43 267.21 L 587.46 267.21 L 589.53 267.23 L 589.65 267.02 L 590.70 267.02 L 590.81 267.01 L 590.93 266.93 L 592.19 266.04 L 592.73 265.87 L 592.86 265.81 L 593.31 264.12 L 593.59 264.12 L 594.06 263.98 L 594.89 263.98 L 607.58 263.98 L 608.34 263.87 L 608.37 263.90 L 609.43 263.90 L 609.49 263.90 L 609.86 263.90 L 610.29 263.86 L 610.29 263.86 L 610.34 263.86 L 610.91 262.87 L 612.21 262.85 L 612.30 262.85 L 612.43 262.84 L 612.63 262.80 L 612.68 262.77 L 612.76 262.77 L 613.36 262.73 L 613.85 262.73 L 614.11 262.72 L 614.15 262.72 L 614.69 262.70 L 615.11 262.59 L 615.13 262.59 L 615.18 262.59 L 615.23 262.59 L 629.00 262.36 L 629.03 262.36 L 629.07 262.36 L 629.34 262.36 L 629.54 262.36 L 630.76 261.38 L 631.06 261.32 L 631.93 261.25 L 632.69 261.20 L 633.24 261.20 L 633.40 261.20 L 634.10 259.72 L 634.35 259.68 L 634.44 259.63 L 636.48 258.59 L 636.50 258.59 L 636.61 258.58 L 637.00 258.57 L 637.01 258.57 L 637.03 258.57 L 637.10 258.54 L 637.27 258.49 L 637.49 258.38 L 639.61 256.67 L 639.88 256.58 L 640.07 256.58 L 640.10 256.58 L 640.14 256.58 L 649.52 256.58 L 649.82 256.57 L 650.00 256.57"/>
	</g>
	<g id="poloto_plot2" class="poloto_plot poloto_imgs poloto_line poloto2 poloto_stroke" fill="none" stroke="black">
		<path d=" M 150.00 391.28 L 150.03 391.28 L 150.05 391.28 L 150.06 391.28 L 150.08 391.28 L 150.12 389.04 L 150.25 388.74 L 150.54 388.73 L 150.98 388.72 L 151.21 387.38 L 151.66 387.27 L 151.74 387.23 L 151.79 387.19 L 152.32 386.59 L 153.30 386.13 L 153.61 386.04 L 153.69 386.04 L 154.28 386.01 L 154.96 386.01 L 154.97 386.01 L 154.97 386.01 L 164.18 386.01 L 164.25 386.00 L 164.36 385.98 L 164.41 385.98 L 164.76 385.85 L 164.92 385.81 L 165.31 385.59 L 165.37 385.50 L 165.48 385.30 L 165.60 385.27 L 165.63 385.27 L 165.73 385.23 L 165.83 385.23 L 165.93 385.24 L 166.18 385.01 L 166.41 384.81 L 166.45 384.81 L 166.56 384.69 L 167.29 384.42 L 167.31 384.42 L 167.40 384.33 L 167.82 384.04 L 168.16 383.67 L 168.53 383.52 L 168.61 383.52 L 168.62 383.53 L 168.69 383.32 L 168.84 383.32 L 169.02 383.30 L 169.38 383.15 L 169.41 382.89 L 169.47 382.89 L 169.56 382.76 L 169.77 382.76 L 169.79 382.76 L 170.00 382.37 L 170.09 382.34 L 170.17 382.31 L 170.25 382.13 L 171.37 382.02 L 171.64 381.98 L 172.27 381.71 L 172.40 381.71 L 172.50 381.70 L 172.55 381.49 L 172.98 380.40 L 173.17 380.39 L 173.39 380.06 L 173.50 380.03 L 173.76 379.88 L 173.87 379.83 L 174.03 379.59 L 174.17 379.40 L 174.67 379.40 L 174.68 379.38 L 174.71 379.22 L 174.87 378.17 L 183.42 378.06 L 184.30 377.74 L 184.33 377.70 L 185.38 377.44 L 185.46 377.43 L 185.56 377.24 L 185.82 377.11 L 185.93 376.86 L 185.97 376.67 L 186.11 376.27 L 186.41 376.27 L 186.42 376.27 L 186.54 375.99 L 186.66 375.99 L 186.79 375.70 L 186.95 375.48 L 187.02 375.35 L 187.04 375.35 L 187.19 375.08 L 187.21 375.08 L 187.37 374.84 L 187.40 374.83 L 187.65 374.74 L 187.69 374.74 L 187.77 374.65 L 187.88 374.64 L 188.02 374.64 L 188.08 374.62 L 188.56 374.38 L 188.57 374.39 L 188.66 373.91 L 188.87 373.90 L 189.07 373.75 L 189.12 373.75 L 189.22 373.75 L 189.26 373.71 L 189.37 373.06 L 189.90 372.51 L 189.96 372.21 L 190.15 372.18 L 190.20 372.11 L 190.24 372.10 L 190.33 371.96 L 190.41 371.44 L 190.60 371.36 L 190.74 371.35 L 190.84 371.09 L 190.90 371.08 L 191.39 370.89 L 191.65 370.75 L 191.73 370.63 L 191.95 370.62 L 191.97 370.62 L 192.00 370.60 L 192.14 369.67 L 192.25 369.66 L 192.65 369.52 L 192.71 369.15 L 192.79 369.14 L 192.89 368.99 L 192.90 368.90 L 192.95 368.84 L 192.99 368.80 L 193.04 368.80 L 193.09 368.73 L 193.25 367.68 L 193.37 367.57 L 193.48 367.26 L 193.63 367.24 L 193.81 367.13 L 193.98 366.81 L 194.10 365.90 L 194.35 365.83 L 194.35 365.44 L 194.50 365.34 L 206.42 365.35 L 206.65 365.34 L 207.21 364.91 L 207.33 364.91 L 207.42 364.91 L 207.44 364.80 L 207.65 364.62 L 207.79 364.58 L 207.87 364.47 L 207.95 364.39 L 208.00 364.36 L 208.22 364.30 L 208.65 364.38 L 208.75 364.10 L 208.83 364.02 L 208.94 364.01 L 209.49 363.95 L 209.57 363.90 L 209.61 363.90 L 209.64 363.85 L 209.76 363.80 L 209.86 363.69 L 210.26 363.42 L 210.83 363.31 L 211.04 363.26 L 211.68 363.08 L 211.98 362.66 L 212.09 362.59 L 212.22 362.26 L 212.41 361.83 L 212.69 361.72 L 213.10 361.71 L 213.64 361.69 L 213.72 361.53 L 214.12 361.43 L 214.37 361.29 L 214.45 361.18 L 214.61 361.14 L 214.73 360.86 L 216.14 360.72 L 217.48 360.72 L 229.48 360.68 L 229.57 360.53 L 229.63 360.43 L 230.01 360.27 L 231.13 359.98 L 231.17 359.94 L 231.33 359.74 L 231.88 359.66 L 232.14 359.11 L 232.54 359.10 L 232.63 359.08 L 232.72 358.54 L 233.42 358.03 L 233.50 358.02 L 233.65 357.99 L 233.80 357.95 L 233.87 357.76 L 234.26 356.92 L 234.40 356.70 L 234.47 356.68 L 234.55 356.59 L 234.73 356.26 L 234.80 355.42 L 234.97 355.07 L 235.49 354.87 L 235.54 354.45 L 235.59 354.45 L 235.67 354.37 L 235.80 354.26 L 235.85 354.22 L 235.90 354.18 L 236.15 353.20 L 236.21 352.61 L 236.52 352.51 L 236.70 351.52 L 236.81 351.33 L 237.74 349.79 L 237.85 349.76 L 273.13 349.31 L 273.16 349.31 L 286.64 349.18 L 287.38 349.02 L 287.53 349.02 L 287.73 348.94 L 287.79 348.81 L 287.87 348.78 L 293.72 348.77 L 294.49 346.99 L 294.78 346.84 L 294.93 346.22 L 298.57 346.15 L 298.59 346.09 L 298.82 346.08 L 299.91 345.97 L 299.97 345.77 L 300.11 345.69 L 300.49 345.60 L 300.54 345.58 L 300.69 345.23 L 300.86 345.13 L 300.89 344.87 L 312.22 344.53 L 312.30 343.72 L 312.75 343.51 L 312.76 343.21 L 312.84 342.96 L 312.93 342.59 L 313.06 341.61 L 313.25 341.08 L 313.41 340.39 L 313.56 340.38 L 313.62 339.85 L 313.85 339.81 L 314.63 339.31 L 314.95 339.07 L 315.00 338.93 L 315.07 338.92 L 315.11 338.75 L 315.22 338.14 L 315.53 338.08 L 315.58 338.08 L 315.78 337.68 L 315.85 337.68 L 315.88 337.46 L 315.95 337.31 L 316.00 337.31 L 316.05 336.99 L 316.29 336.81 L 316.40 336.49 L 316.54 336.48 L 316.64 336.31 L 316.68 336.07 L 316.92 335.94 L 316.99 335.80 L 317.04 335.80 L 317.10 335.80 L 317.14 335.55 L 317.18 335.56 L 317.19 335.56 L 317.32 335.47 L 317.36 335.20 L 317.48 335.20 L 317.57 335.13 L 317.83 335.11 L 318.14 335.09 L 318.15 335.09 L 318.24 335.07 L 318.53 335.07 L 318.67 335.07 L 318.80 335.07 L 318.95 335.02 L 319.05 334.70 L 319.45 334.70 L 319.48 334.50 L 319.53 334.50 L 319.56 334.28 L 319.83 334.21 L 319.87 334.16 L 320.06 334.16 L 337.50 334.10 L 338.49 334.01 L 338.52 334.01 L 338.72 334.00 L 338.73 334.01 L 338.86 333.62 L 338.96 333.61 L 339.04 333.50 L 339.16 333.45 L 339.20 333.41 L 339.24 333.39 L 339.43 333.36 L 339.81 333.28 L 340.05 332.77 L 340.31 332.74 L 340.32 332.70 L 340.37 332.28 L 340.40 332.27 L 340.92 332.27 L 340.93 332.23 L 341.01 331.83 L 341.24 331.78 L 341.38 331.77 L 341.41 331.76 L 341.42 331.71 L 341.48 331.68 L 341.52 331.28 L 341.54 331.27 L 341.67 331.27 L 341.68 331.23 L 341.95 331.19 L 342.70 331.18 L 342.87 331.14 L 342.93 331.13 L 342.96 331.00 L 343.01 331.00 L 343.11 330.55 L 355.03 330.40 L 355.05 330.27 L 355.15 330.18 L 355.18 330.17 L 355.25 329.78 L 355.38 329.68 L 355.39 329.66 L 355.61 329.65 L 355.66 329.65 L 355.70 329.27 L 355.89 329.22 L 356.41 329.21 L 356.42 329.18 L 356.55 328.97 L 356.60 328.98 L 356.63 328.62 L 357.06 328.62 L 357.07 328.60 L 357.72 328.51 L 357.80 328.08 L 358.04 328.08 L 358.31 328.08 L 358.37 327.76 L 358.42 327.52 L 358.54 327.51 L 358.88 327.45 L 358.94 327.44 L 359.09 327.34 L 359.25 327.34 L 359.75 327.34 L 359.81 327.34 L 359.92 327.32 L 359.93 327.31 L 360.10 327.31 L 360.47 327.29 L 360.86 327.24 L 360.92 327.24 L 361.01 327.20 L 361.12 327.08 L 361.42 327.08 L 361.92 326.94 L 362.09 326.70 L 362.36 326.67 L 363.46 326.41 L 363.70 326.41 L 363.87 326.41 L 364.14 326.40 L 364.23 326.38 L 364.51 326.25 L 364.94 326.23 L 364.99 326.11 L 365.07 326.06 L 365.13 326.07 L 365.17 326.03 L 365.51 326.01 L 373.40 326.00 L 373.48 326.00 L 373.97 326.00 L 374.02 325.99 L 374.13 325.63 L 374.22 325.61 L 374.23 325.62 L 374.50 325.61 L 374.57 325.59 L 376.19 325.06 L 376.38 325.00 L 376.52 324.99 L 376.55 324.99 L 377.05 324.98 L 377.22 325.05 L 377.25 325.05 L 377.52 325.01 L 377.81 324.51 L 377.85 324.50 L 378.10 324.49 L 378.20 324.49 L 378.29 324.49 L 378.49 324.38 L 378.93 323.93 L 379.02 323.93 L 379.10 323.86 L 379.28 323.45 L 379.71 322.99 L 380.10 323.02 L 380.18 322.78 L 380.57 322.78 L 380.64 322.75 L 380.70 322.72 L 380.74 322.48 L 380.88 322.48 L 380.91 322.48 L 380.98 322.48 L 381.20 322.48 L 381.55 322.28 L 381.76 322.26 L 382.00 322.26 L 382.12 322.26 L 382.36 322.26 L 382.75 322.26 L 383.15 322.26 L 383.45 322.26 L 383.52 322.25 L 383.60 322.25 L 383.61 322.16 L 383.84 322.10 L 383.91 322.10 L 384.00 322.09 L 384.65 322.09 L 384.66 321.85 L 384.84 321.85 L 385.59 321.86 L 386.09 321.85 L 386.46 321.80 L 386.47 321.70 L 386.50 321.70 L 397.56 321.55 L 397.60 321.54 L 397.73 321.53 L 397.79 321.38 L 397.83 321.38 L 397.83 321.37 L 398.31 321.33 L 398.41 320.85 L 398.55 320.74 L 398.79 319.80 L 398.94 319.79 L 399.13 319.39 L 399.23 319.43 L 399.28 319.43 L 399.34 318.91 L 399.48 318.82 L 399.50 318.47 L 399.55 318.41 L 399.66 318.38 L 399.74 318.20 L 399.84 320.32 L 399.98 320.29 L 400.25 319.44 L 400.37 319.25 L 400.47 319.06 L 401.15 318.72 L 401.73 318.37 L 402.43 317.87 L 402.61 317.81 L 402.81 317.81 L 403.03 317.77 L 407.09 317.52 L 407.43 317.49 L 445.97 316.83 L 567.32 316.81 L 567.72 316.51 L 568.00 316.46 L 568.28 316.46 L 568.70 316.19 L 568.85 315.88 L 568.96 315.29 L 569.15 315.14 L 569.43 315.19 L 569.66 314.85 L 569.71 314.85 L 569.90 314.74 L 569.94 314.74 L 570.14 314.18 L 570.32 313.31 L 570.87 313.22 L 570.88 313.13 L 571.04 312.01 L 571.56 311.97 L 571.58 311.86 L 571.68 311.79 L 571.81 310.77 L 572.37 310.72 L 572.38 310.58 L 572.51 310.51 L 572.64 309.84 L 572.85 309.82 L 572.86 309.71 L 572.95 308.60 L 572.97 308.57 L 573.02 308.54 L 573.26 308.54 L 573.29 308.42 L 573.37 308.34 L 573.63 308.24 L 573.68 308.23 L 573.88 308.17 L 574.22 308.22 L 574.27 308.16 L 574.32 308.14 L 574.38 308.10 L 574.54 306.95 L 574.72 306.93 L 574.75 306.83 L 574.85 305.65 L 574.95 305.22 L 574.98 305.07 L 575.08 304.49 L 575.13 303.49 L 575.34 303.48 L 575.37 303.42 L 575.48 303.22 L 575.62 303.21 L 576.49 303.18 L 576.93 303.16 L 586.41 303.20 L 586.50 302.97 L 586.60 302.81 L 586.76 302.01 L 587.11 302.00 L 587.14 301.92 L 587.21 300.91 L 587.43 300.90 L 587.46 300.80 L 589.53 300.70 L 589.65 300.34 L 590.70 300.16 L 590.81 300.12 L 590.93 299.01 L 592.19 298.69 L 592.73 298.42 L 592.86 297.58 L 593.31 297.58 L 593.59 297.11 L 594.06 296.38 L 594.89 295.95 L 607.58 295.94 L 608.34 295.93 L 608.37 295.93 L 609.43 295.77 L 609.49 295.68 L 609.86 295.61 L 610.29 294.67 L 610.29 294.67 L 610.34 294.63 L 610.91 294.44 L 612.21 293.81 L 612.30 293.75 L 612.43 293.74 L 612.63 293.48 L 612.68 293.44 L 612.76 293.39 L 613.36 293.39 L 613.85 293.39 L 614.11 293.39 L 614.15 293.34 L 614.69 292.39 L 615.11 292.30 L 615.13 292.23 L 615.18 292.14 L 615.23 291.90 L 629.00 291.73 L 629.03 291.70 L 629.07 291.68 L 629.34 291.57 L 629.54 291.45 L 630.76 290.91 L 631.06 290.80 L 631.93 290.39 L 632.69 290.33 L 633.24 290.16 L 633.40 288.76 L 634.10 288.52 L 634.35 288.45 L 634.44 287.44 L 636.48 286.47 L 636.50 286.47 L 636.61 286.02 L 637.00 285.97 L 637.01 285.97 L 637.03 285.86 L 637.10 285.74 L 637.27 285.63 L 637.49 284.94 L 639.61 284.58 L 639.88 284.42 L 640.07 284.04 L 640.10 284.00 L 640.14 283.76 L 649.52 282.87 L 649.82 282.23 L 650.00 282.21"/>
	</g>
	<g class="poloto_legend poloto_imgs poloto_line poloto0 poloto_stroke"><line x1="680" x2="730" y1="81.25" y2="81.25"/></g>
	<g class="poloto_legend poloto_imgs poloto_line poloto1 poloto_stroke"><line x1="680" x2="730" y1="131.25" y2="131.25"/></g>
	<g class="poloto_legend poloto_imgs poloto_line poloto2 poloto_stroke"><line x1="680" x2="730" y1="181.25" y2="181.25"/></g>
	<text class="poloto_legend poloto_text poloto_line poloto0" x="675" y="100">total</text>
	<text class="poloto_legend poloto_text poloto_line poloto1" x="675" y="150">code</text>
	<text class="poloto_legend poloto_text poloto_line poloto2" x="675" y="200">docs</text>
	<text class="poloto_text poloto_name poloto_title" x="400.00" y="37.50">Workspace lines over time</text>
	<text class="poloto_text poloto_name poloto_x" x="400.00" y="640">date (JST)</text>
	<text class="poloto_text poloto_name poloto_y" x="37.50" y="250.00" transform="rotate(-90,37.50,250.00)">lines</text>
	<text class="poloto_text poloto_ticks poloto_y">
		<tspan x="135.00" y="400.00">0</tspan>
		<tspan x="135.00" y="317.12">50K</tspan>
		<tspan x="135.00" y="234.24">100K</tspan>
		<tspan x="135.00" y="151.35">150K</tspan>
	</text>
	<g class="poloto_imgs poloto_ticks poloto_y" stroke="black">
		<line x1="150.00" x2="144.00" y1="400.00" y2="400.00"/>
		<line x1="150.00" x2="144.00" y1="317.12" y2="317.12"/>
		<line x1="150.00" x2="144.00" y1="234.24" y2="234.24"/>
		<line x1="150.00" x2="144.00" y1="151.35" y2="151.35"/>
	</g>
	<g class="poloto_text poloto_ticks poloto_x">
		<text x="229.33" y="430.00" text-anchor="end" transform="rotate(-90 229.33 430.00)">2026-04-24 12:06</text>
		<text x="351.44" y="430.00" text-anchor="end" transform="rotate(-90 351.44 430.00)">2026-04-30 07:00</text>
		<text x="473.56" y="430.00" text-anchor="end" transform="rotate(-90 473.56 430.00)">2026-05-06 01:53</text>
		<text x="595.67" y="430.00" text-anchor="end" transform="rotate(-90 595.67 430.00)">2026-05-11 20:46</text>
	</g>
	<g class="poloto_imgs poloto_ticks poloto_x" stroke="black">
		<line x1="229.33" x2="229.33" y1="400.00" y2="405.00"/>
		<line x1="351.44" x2="351.44" y1="400.00" y2="405.00"/>
		<line x1="473.56" x2="473.56" y1="400.00" y2="405.00"/>
		<line x1="595.67" x2="595.67" y1="400.00" y2="405.00"/>
	</g>
	<path class="poloto_imgs poloto_ticks poloto_x" stroke="black" style="stroke-dasharray:12.211401834738702;stroke-dashoffset:-79.33088356332155;" d=" M 150.00 400.00 L 650.00 400.00"/>
	<path class="poloto_imgs poloto_ticks poloto_y" stroke="black" style="stroke-dasharray:8.288208641838876;stroke-dashoffset:-0;" d=" M 150.00 400.00 L 150.00 100.00"/>
</svg>

