<svg class="poloto" width="800" height="680" viewBox="0 0 800 680" xmlns="http://www.w3.org/2000/svg">
	<style>
.poloto{
  stroke-linecap:round;
  stroke-linejoin:round;
  font-family:Roboto,sans-serif;
  font-size:16px;
}
.poloto_background{fill:AliceBlue;}
.poloto_scatter{stroke-width:7}
.poloto_line{stroke-width:2}
.poloto_text{fill: black;}
.poloto_name{font-size:24px;dominant-baseline:auto;text-anchor:middle;}
.poloto_where{dominant-baseline:middle;text-anchor:start}
.poloto_text.poloto_legend{font-size:20px;dominant-baseline:middle;text-anchor:start;}
.poloto_text.poloto_ticks.poloto_y{dominant-baseline:middle;text-anchor:end}
.poloto_text.poloto_ticks.poloto_x{dominant-baseline:auto;text-anchor:middle}
.poloto_imgs.poloto_ticks{stroke: black;stroke-width:3;fill:none;stroke-dasharray:none}
.poloto_grid{stroke:gray;stroke-width:0.5}

.poloto0.poloto_stroke{stroke:blue;}
.poloto1.poloto_stroke{stroke:red;}
.poloto2.poloto_stroke{stroke:green;}
.poloto3.poloto_stroke{stroke:gold;}
.poloto4.poloto_stroke{stroke:aqua;}
.poloto5.poloto_stroke{stroke:lime;}
.poloto6.poloto_stroke{stroke:orange;}
.poloto7.poloto_stroke{stroke:chocolate;}
.poloto0.poloto_fill{fill:blue;}
.poloto1.poloto_fill{fill:red;}
.poloto2.poloto_fill{fill:green;}
.poloto3.poloto_fill{fill:gold;}
.poloto4.poloto_fill{fill:aqua;}
.poloto5.poloto_fill{fill:lime;}
.poloto6.poloto_fill{fill:orange;}
.poloto7.poloto_fill{fill:chocolate;}
	</style>
	<circle r="1e5" class="poloto_background" fill="white"/>
	<g id="poloto_plot0" class="poloto_plot poloto_imgs poloto_line poloto0 poloto_stroke" fill="none" stroke="black">
		<path d=" M 150.00 361.14 L 150.04 361.11 L 150.06 361.09 L 150.07 361.09 L 150.10 361.09 L 150.14 356.87 L 150.29 356.36 L 150.64 356.34 L 151.16 355.99 L 151.43 353.85 L 151.95 353.72 L 152.05 353.60 L 152.12 353.56 L 152.73 352.51 L 153.89 351.66 L 154.26 348.35 L 154.35 348.35 L 155.05 348.22 L 155.85 348.21 L 155.86 348.21 L 155.87 348.21 L 166.74 348.21 L 166.81 348.20 L 166.95 348.18 L 167.01 348.14 L 167.42 347.94 L 167.61 347.89 L 168.07 347.59 L 168.14 347.45 L 168.27 347.15 L 168.41 347.11 L 168.45 347.11 L 168.56 347.03 L 168.68 347.03 L 168.80 347.03 L 169.10 346.54 L 169.37 346.24 L 169.42 346.24 L 169.55 346.06 L 170.41 346.82 L 170.43 346.81 L 170.54 346.69 L 171.03 346.12 L 171.43 345.45 L 171.87 345.15 L 171.96 345.09 L 171.98 345.10 L 172.06 344.84 L 172.23 344.84 L 172.45 344.74 L 172.87 344.49 L 172.90 344.09 L 172.98 344.09 L 173.08 343.88 L 173.33 343.88 L 173.35 343.88 L 173.61 343.32 L 173.71 343.29 L 173.80 343.24 L 173.90 343.02 L 175.22 342.71 L 175.54 342.65 L 176.28 342.25 L 176.43 342.25 L 176.55 342.23 L 176.61 341.94 L 177.12 340.27 L 177.35 340.24 L 177.61 339.68 L 177.74 339.63 L 178.04 339.16 L 178.17 338.99 L 178.36 338.69 L 178.52 338.43 L 179.11 334.57 L 179.13 334.48 L 179.16 334.25 L 179.36 332.39 L 189.44 332.26 L 190.48 330.15 L 190.52 330.10 L 191.75 329.76 L 191.85 329.75 L 191.97 329.34 L 192.27 329.13 L 192.41 328.77 L 192.46 328.45 L 192.61 327.90 L 192.97 327.89 L 192.98 327.51 L 193.12 327.10 L 193.26 327.09 L 193.41 326.63 L 193.61 326.30 L 193.69 326.13 L 193.72 326.12 L 193.89 325.76 L 193.92 325.75 L 194.11 325.39 L 194.14 325.38 L 194.43 323.64 L 194.48 323.64 L 194.58 323.35 L 194.70 323.33 L 194.87 323.33 L 194.94 323.29 L 195.50 322.97 L 195.52 322.98 L 195.62 322.20 L 195.88 322.19 L 196.10 321.02 L 196.17 320.92 L 196.28 320.91 L 196.33 320.87 L 196.46 319.97 L 197.09 312.40 L 197.16 312.03 L 197.38 312.00 L 197.44 311.91 L 197.49 311.89 L 197.59 311.69 L 197.69 310.83 L 197.92 310.65 L 198.07 310.63 L 198.20 310.25 L 198.27 310.24 L 198.84 309.96 L 199.15 309.75 L 199.25 309.41 L 199.51 309.39 L 199.54 309.39 L 199.56 309.36 L 199.73 307.54 L 199.86 307.44 L 200.33 305.60 L 200.40 305.07 L 200.49 305.05 L 200.62 304.86 L 200.63 304.71 L 200.69 304.63 L 200.73 304.58 L 200.80 304.57 L 200.86 304.48 L 201.04 302.98 L 201.18 302.76 L 201.31 302.32 L 201.49 302.28 L 201.70 302.14 L 201.90 301.08 L 202.04 299.61 L 202.34 299.53 L 202.34 298.98 L 202.51 298.80 L 216.59 298.80 L 216.86 298.78 L 217.52 298.01 L 217.66 297.99 L 217.77 297.99 L 217.79 297.79 L 218.03 297.55 L 218.20 297.51 L 218.29 297.36 L 218.39 297.26 L 218.45 297.21 L 218.70 297.14 L 219.21 297.05 L 219.34 296.64 L 219.43 296.54 L 219.55 296.53 L 220.21 296.33 L 220.30 296.21 L 220.34 296.21 L 220.38 296.06 L 220.53 295.99 L 220.64 295.85 L 221.11 294.86 L 221.79 294.71 L 222.04 294.64 L 222.79 294.39 L 223.15 289.63 L 223.27 289.53 L 223.43 289.07 L 223.65 288.44 L 223.99 288.27 L 224.47 288.25 L 225.10 288.23 L 225.20 288.03 L 225.67 287.80 L 225.97 287.46 L 226.06 287.32 L 226.24 287.27 L 226.39 286.84 L 228.05 286.38 L 229.63 286.38 L 243.80 286.33 L 243.90 286.13 L 243.98 285.99 L 244.42 285.79 L 245.74 284.15 L 245.80 284.04 L 245.98 283.62 L 246.63 283.51 L 246.94 282.40 L 247.41 282.39 L 247.52 282.37 L 247.62 281.62 L 248.44 277.29 L 248.54 277.28 L 248.71 277.24 L 248.90 277.19 L 248.98 276.72 L 249.44 275.09 L 249.61 274.78 L 249.68 274.76 L 249.78 274.01 L 249.99 272.95 L 250.07 271.82 L 250.28 271.32 L 250.89 265.69 L 250.95 265.12 L 251.01 265.12 L 251.10 265.02 L 251.26 264.88 L 251.32 264.83 L 251.37 264.76 L 251.67 263.42 L 251.74 262.47 L 252.10 262.27 L 252.31 260.86 L 252.45 259.97 L 253.55 246.85 L 253.67 246.81 L 295.31 246.19 L 295.35 246.19 L 311.26 246.01 L 312.13 245.65 L 312.30 245.65 L 312.54 245.55 L 312.61 245.38 L 312.71 245.34 L 319.61 245.25 L 320.52 242.75 L 320.86 242.53 L 321.04 241.61 L 325.33 241.42 L 325.36 241.17 L 325.63 241.15 L 326.91 239.58 L 326.99 239.29 L 327.15 239.19 L 327.60 239.08 L 327.66 239.04 L 327.84 238.57 L 328.04 238.44 L 328.07 238.09 L 341.44 237.61 L 341.54 236.26 L 342.07 235.97 L 342.08 233.72 L 342.17 233.38 L 342.28 232.83 L 342.43 231.28 L 342.66 230.46 L 342.85 229.50 L 343.02 229.49 L 343.09 228.75 L 343.36 228.68 L 344.28 225.06 L 344.66 224.67 L 344.72 224.45 L 344.80 224.44 L 344.85 224.19 L 344.98 223.30 L 345.35 222.87 L 345.41 222.82 L 345.64 219.63 L 345.73 219.62 L 345.76 219.28 L 345.85 219.02 L 345.91 219.01 L 345.96 218.53 L 346.25 216.81 L 346.38 216.32 L 346.54 216.26 L 346.65 211.64 L 346.70 211.27 L 346.99 208.64 L 347.08 208.43 L 347.13 208.43 L 347.21 208.42 L 347.25 208.05 L 347.29 208.06 L 347.31 208.05 L 347.46 203.40 L 347.51 203.00 L 347.65 202.97 L 347.76 202.89 L 348.06 202.76 L 348.43 202.58 L 348.44 202.58 L 348.54 202.52 L 348.88 202.44 L 349.05 202.44 L 349.21 202.44 L 349.38 200.41 L 349.50 199.92 L 349.97 199.91 L 350.01 199.59 L 350.07 199.59 L 350.11 199.24 L 350.42 196.31 L 350.47 196.24 L 350.70 196.22 L 371.27 196.13 L 372.44 195.98 L 372.48 195.98 L 372.71 195.98 L 372.73 195.98 L 372.88 195.40 L 373.00 195.37 L 373.09 195.09 L 373.24 195.02 L 373.28 194.97 L 373.33 194.95 L 373.55 194.62 L 374.00 194.33 L 374.28 193.39 L 374.60 192.49 L 374.61 192.44 L 374.66 191.60 L 374.70 191.57 L 375.31 191.08 L 375.33 191.02 L 375.42 190.35 L 375.69 190.28 L 375.85 190.22 L 375.89 189.03 L 375.90 188.97 L 375.97 190.10 L 376.02 189.40 L 376.05 189.38 L 376.20 187.79 L 376.21 187.74 L 376.53 187.61 L 377.41 187.59 L 377.62 187.53 L 377.68 187.52 L 377.72 187.31 L 377.78 187.31 L 377.90 186.52 L 391.96 185.00 L 391.99 184.80 L 392.10 184.65 L 392.14 184.36 L 392.22 171.08 L 392.37 165.65 L 392.39 165.61 L 392.65 165.51 L 392.71 165.51 L 392.76 164.88 L 392.98 164.82 L 393.59 163.54 L 393.61 163.51 L 393.76 163.11 L 393.82 163.12 L 393.85 162.48 L 394.36 161.73 L 394.37 161.70 L 395.14 161.41 L 395.24 160.73 L 395.51 160.74 L 395.83 159.02 L 395.91 158.35 L 395.96 157.81 L 396.11 157.15 L 396.51 156.91 L 396.58 156.75 L 396.75 156.60 L 396.94 156.60 L 397.53 156.60 L 397.60 156.60 L 397.74 156.57 L 397.75 156.56 L 397.94 156.58 L 398.39 156.55 L 398.85 156.30 L 398.92 156.30 L 399.02 156.20 L 399.15 156.01 L 399.50 156.01 L 400.10 155.78 L 400.29 155.25 L 400.61 150.67 L 401.91 154.54 L 402.19 154.52 L 402.40 154.50 L 402.72 154.50 L 402.82 154.42 L 403.15 154.21 L 403.65 153.89 L 403.72 153.68 L 403.82 153.59 L 403.88 153.61 L 403.93 153.55 L 404.33 153.26 L 413.65 153.26 L 413.73 153.26 L 414.31 153.25 L 414.37 153.22 L 414.50 152.64 L 414.61 152.31 L 414.62 152.31 L 414.94 152.26 L 415.02 152.23 L 416.93 151.37 L 417.15 151.30 L 417.32 151.28 L 417.35 151.28 L 417.95 151.07 L 418.15 151.17 L 418.19 151.17 L 418.50 151.11 L 418.85 149.30 L 418.89 149.29 L 419.18 149.08 L 419.30 149.08 L 419.41 149.08 L 419.65 148.88 L 420.17 148.15 L 420.27 148.12 L 420.37 147.92 L 420.58 147.06 L 421.09 146.16 L 421.55 141.95 L 421.64 141.44 L 422.11 141.24 L 422.19 141.13 L 422.26 140.93 L 422.31 140.25 L 422.47 139.04 L 422.51 139.09 L 422.58 139.06 L 422.85 139.06 L 423.26 138.61 L 423.51 138.53 L 423.79 138.51 L 423.93 138.49 L 424.21 138.48 L 424.68 138.48 L 425.15 138.47 L 425.51 138.46 L 425.59 138.45 L 425.68 138.44 L 425.69 138.29 L 425.96 138.20 L 426.04 138.19 L 426.15 138.00 L 426.91 137.98 L 426.93 137.61 L 427.14 137.60 L 428.03 137.60 L 428.62 137.38 L 429.05 137.11 L 429.07 136.97 L 429.10 136.96 L 442.16 136.71 L 442.20 136.71 L 442.35 136.69 L 442.42 136.48 L 442.47 136.46 L 442.48 136.45 L 443.03 136.39 L 443.16 135.63 L 443.32 135.45 L 443.60 133.95 L 443.78 133.94 L 444.00 133.30 L 444.13 133.38 L 444.19 133.37 L 444.26 132.64 L 444.42 132.15 L 444.44 131.61 L 444.50 131.54 L 444.64 131.50 L 444.73 131.25 L 444.85 134.12 L 445.01 134.06 L 445.33 132.92 L 445.47 132.64 L 445.59 132.40 L 446.39 130.75 L 447.08 129.96 L 447.91 128.44 L 448.12 128.37 L 448.35 128.37 L 448.61 128.30 L 453.40 127.87 L 453.80 127.83 L 499.28 126.67 L 642.50 126.40 L 642.97 125.94 L 643.30 125.87 L 643.63 125.87 L 644.13 124.98 L 644.30 124.55 L 644.43 123.75 L 644.65 121.44 L 644.99 121.92 L 645.25 121.42 L 645.31 121.41 L 645.53 121.25 L 645.58 121.26 L 645.82 120.41 L 646.03 119.06 L 646.68 117.62 L 646.70 117.50 L 646.89 115.78 L 647.50 111.53 L 647.52 111.39 L 647.64 111.29 L 647.79 109.77 L 648.45 107.73 L 648.47 107.54 L 648.61 107.45 L 648.77 106.44 L 649.02 105.64 L 649.03 105.49 L 649.14 103.94 L 649.16 103.90 L 649.22 103.46 L 649.50 100.70 L 649.54 100.54 L 649.63 100.38 L 649.94 100.01 L 650.00 100.00"/>
	</g>
	<g id="poloto_plot1" class="poloto_plot poloto_imgs poloto_line poloto1 poloto_stroke" fill="none" stroke="black">
		<path d=" M 150.00 376.91 L 150.04 376.89 L 150.06 376.87 L 150.07 376.87 L 150.10 376.87 L 150.14 376.14 L 150.29 376.12 L 150.64 376.11 L 151.16 375.83 L 151.43 375.71 L 151.95 375.74 L 152.05 375.68 L 152.12 375.68 L 152.73 375.63 L 153.89 375.49 L 154.26 372.64 L 154.35 372.64 L 155.05 372.57 L 155.85 372.56 L 155.86 372.56 L 155.87 372.56 L 166.74 372.56 L 166.81 372.56 L 166.95 372.55 L 167.01 372.52 L 167.42 372.50 L 167.61 372.50 L 168.07 372.50 L 168.14 372.50 L 168.27 372.48 L 168.41 372.48 L 168.45 372.48 L 168.56 372.44 L 168.68 372.44 L 168.80 372.44 L 169.10 372.29 L 169.37 372.29 L 169.42 372.29 L 169.55 372.29 L 170.41 373.36 L 170.43 373.36 L 170.54 373.34 L 171.03 373.18 L 171.43 373.01 L 171.87 372.93 L 171.96 372.87 L 171.98 372.87 L 172.06 372.87 L 172.23 372.87 L 172.45 372.80 L 172.87 372.74 L 172.90 372.74 L 172.98 372.74 L 173.08 372.71 L 173.33 372.71 L 173.35 372.71 L 173.61 372.70 L 173.71 372.70 L 173.80 372.70 L 173.90 372.70 L 175.22 372.57 L 175.54 372.56 L 176.28 372.51 L 176.43 372.51 L 176.55 372.51 L 176.61 372.51 L 177.12 372.42 L 177.35 372.42 L 177.61 372.32 L 177.74 372.30 L 178.04 372.07 L 178.17 371.99 L 178.36 371.99 L 178.52 371.99 L 179.11 368.65 L 179.13 368.59 L 179.16 368.59 L 179.36 368.27 L 189.44 368.27 L 190.48 366.83 L 190.52 366.83 L 191.75 366.83 L 191.85 366.83 L 191.97 366.68 L 192.27 366.65 L 192.41 366.65 L 192.46 366.65 L 192.61 366.65 L 192.97 366.65 L 192.98 366.34 L 193.12 366.33 L 193.26 366.33 L 193.41 366.30 L 193.61 366.29 L 193.69 366.29 L 193.72 366.29 L 193.89 366.29 L 193.92 366.29 L 194.11 366.29 L 194.14 366.29 L 194.43 364.87 L 194.48 364.87 L 194.58 364.70 L 194.70 364.70 L 194.87 364.70 L 194.94 364.69 L 195.50 364.68 L 195.52 364.68 L 195.62 364.60 L 195.88 364.60 L 196.10 363.78 L 196.17 363.68 L 196.28 363.68 L 196.33 363.68 L 196.46 363.66 L 197.09 357.70 L 197.16 357.75 L 197.38 357.75 L 197.44 357.75 L 197.49 357.74 L 197.59 357.74 L 197.69 357.66 L 197.92 357.66 L 198.07 357.66 L 198.20 357.65 L 198.27 357.65 L 198.84 357.64 L 199.15 357.63 L 199.25 357.49 L 199.51 357.49 L 199.54 357.49 L 199.56 357.49 L 199.73 357.09 L 199.86 356.98 L 200.33 355.56 L 200.40 355.56 L 200.49 355.56 L 200.62 355.58 L 200.63 355.58 L 200.69 355.58 L 200.73 355.58 L 200.80 355.58 L 200.86 355.58 L 201.04 355.56 L 201.18 355.56 L 201.31 355.54 L 201.49 355.54 L 201.70 355.53 L 201.90 355.00 L 202.04 354.82 L 202.34 354.82 L 202.34 354.82 L 202.51 354.82 L 216.59 354.82 L 216.86 354.81 L 217.52 354.72 L 217.66 354.70 L 217.77 354.70 L 217.79 354.70 L 218.03 354.70 L 218.20 354.70 L 218.29 354.70 L 218.39 354.70 L 218.45 354.70 L 218.70 354.70 L 219.21 354.73 L 219.34 354.73 L 219.43 354.73 L 219.55 354.73 L 220.21 354.61 L 220.30 354.56 L 220.34 354.56 L 220.38 354.48 L 220.53 354.48 L 220.64 354.48 L 221.11 353.94 L 221.79 353.94 L 222.04 353.94 L 222.79 353.94 L 223.15 350.28 L 223.27 350.28 L 223.43 350.28 L 223.65 350.27 L 223.99 350.27 L 224.47 350.27 L 225.10 350.27 L 225.20 350.27 L 225.67 350.18 L 225.97 350.03 L 226.06 350.03 L 226.24 350.03 L 226.39 350.01 L 228.05 349.78 L 229.63 349.78 L 243.80 349.78 L 243.90 349.78 L 243.98 349.78 L 244.42 349.78 L 245.74 348.63 L 245.80 348.59 L 245.98 348.47 L 246.63 348.47 L 246.94 348.19 L 247.41 348.19 L 247.52 348.19 L 247.62 348.19 L 248.44 344.99 L 248.54 344.99 L 248.71 344.99 L 248.90 344.99 L 248.98 344.78 L 249.44 344.40 L 249.61 344.40 L 249.68 344.40 L 249.78 343.81 L 249.99 343.22 L 250.07 343.22 L 250.28 343.21 L 250.89 338.44 L 250.95 338.44 L 251.01 338.44 L 251.10 338.44 L 251.26 338.44 L 251.32 338.44 L 251.37 338.44 L 251.67 338.44 L 251.74 338.33 L 252.10 338.31 L 252.31 338.24 L 252.45 337.67 L 253.55 328.17 L 253.67 328.17 L 295.31 328.17 L 295.35 328.17 L 311.26 328.17 L 312.13 328.02 L 312.30 328.02 L 312.54 328.02 L 312.61 328.02 L 312.71 328.02 L 319.61 327.95 L 320.52 327.86 L 320.86 327.86 L 321.04 327.83 L 325.33 327.75 L 325.36 327.62 L 325.63 327.62 L 326.91 326.34 L 326.99 326.34 L 327.15 326.34 L 327.60 326.34 L 327.66 326.34 L 327.84 326.34 L 328.04 326.34 L 328.07 326.34 L 341.44 326.31 L 341.54 326.09 L 342.07 326.09 L 342.08 324.54 L 342.17 324.54 L 342.28 324.54 L 342.43 324.39 L 342.66 324.39 L 342.85 324.33 L 343.02 324.33 L 343.09 324.33 L 343.36 324.31 L 344.28 321.67 L 344.66 321.67 L 344.72 321.65 L 344.80 321.65 L 344.85 321.65 L 344.98 321.61 L 345.35 321.28 L 345.41 321.24 L 345.64 318.87 L 345.73 318.86 L 345.76 318.86 L 345.85 318.83 L 345.91 318.83 L 345.96 318.82 L 346.25 317.53 L 346.38 317.52 L 346.54 317.49 L 346.65 313.48 L 346.70 313.48 L 346.99 311.22 L 347.08 311.22 L 347.13 311.22 L 347.21 311.22 L 347.25 311.22 L 347.29 311.22 L 347.31 311.22 L 347.46 307.05 L 347.51 307.04 L 347.65 307.03 L 347.76 307.03 L 348.06 306.94 L 348.43 306.83 L 348.44 306.83 L 348.54 306.80 L 348.88 306.74 L 349.05 306.74 L 349.21 306.74 L 349.38 304.94 L 349.50 304.94 L 349.97 304.93 L 350.01 304.92 L 350.07 304.92 L 350.11 304.92 L 350.42 302.35 L 350.47 302.35 L 350.70 302.34 L 371.27 302.34 L 372.44 302.32 L 372.48 302.32 L 372.71 302.32 L 372.73 302.32 L 372.88 302.32 L 373.00 302.32 L 373.09 302.19 L 373.24 302.19 L 373.28 302.19 L 373.33 302.19 L 373.55 301.96 L 374.00 301.81 L 374.28 301.66 L 374.60 300.93 L 374.61 300.93 L 374.66 300.75 L 374.70 300.73 L 375.31 300.29 L 375.33 300.29 L 375.42 300.22 L 375.69 300.22 L 375.85 300.18 L 375.89 299.11 L 375.90 299.11 L 375.97 300.16 L 376.02 300.11 L 376.05 300.09 L 376.20 298.66 L 376.21 298.66 L 376.53 298.60 L 377.41 298.60 L 377.62 298.60 L 377.68 298.60 L 377.72 298.60 L 377.78 298.60 L 377.90 298.51 L 391.96 297.32 L 391.99 297.32 L 392.10 297.31 L 392.14 297.06 L 392.22 284.38 L 392.37 279.66 L 392.39 279.66 L 392.65 279.58 L 392.71 279.58 L 392.76 279.55 L 392.98 279.55 L 393.59 278.40 L 393.61 278.40 L 393.76 278.34 L 393.82 278.34 L 393.85 278.24 L 394.36 277.56 L 394.37 277.56 L 395.14 277.41 L 395.24 277.37 L 395.51 277.38 L 395.83 275.82 L 395.91 275.66 L 395.96 275.52 L 396.11 274.94 L 396.51 274.79 L 396.58 274.67 L 396.75 274.67 L 396.94 274.67 L 397.53 274.67 L 397.60 274.67 L 397.74 274.67 L 397.75 274.67 L 397.94 274.68 L 398.39 274.68 L 398.85 274.52 L 398.92 274.52 L 399.02 274.50 L 399.15 274.50 L 399.50 274.50 L 400.10 274.50 L 400.29 274.36 L 400.61 270.27 L 401.91 274.13 L 402.19 274.11 L 402.40 274.10 L 402.72 274.10 L 402.82 274.06 L 403.15 274.03 L 403.65 273.80 L 403.72 273.80 L 403.82 273.80 L 403.88 273.80 L 403.93 273.80 L 404.33 273.57 L 413.65 273.57 L 413.73 273.58 L 414.31 273.56 L 414.37 273.56 L 414.50 273.52 L 414.61 273.24 L 414.62 273.23 L 414.94 273.20 L 415.02 273.20 L 416.93 272.97 L 417.15 272.97 L 417.32 272.97 L 417.35 272.97 L 417.95 272.80 L 418.15 272.80 L 418.19 272.80 L 418.50 272.79 L 418.85 271.83 L 418.89 271.83 L 419.18 271.66 L 419.30 271.66 L 419.41 271.66 L 419.65 271.66 L 420.17 271.65 L 420.27 271.62 L 420.37 271.53 L 420.58 271.37 L 421.09 271.22 L 421.55 267.36 L 421.64 267.23 L 422.11 267.05 L 422.19 267.00 L 422.26 266.86 L 422.31 266.59 L 422.47 265.44 L 422.51 265.49 L 422.58 265.46 L 422.85 265.46 L 423.26 265.30 L 423.51 265.24 L 423.79 265.22 L 423.93 265.21 L 424.21 265.19 L 424.68 265.19 L 425.15 265.18 L 425.51 265.18 L 425.59 265.17 L 425.68 265.17 L 425.69 265.16 L 425.96 265.16 L 426.04 265.15 L 426.15 265.00 L 426.91 264.99 L 426.93 264.99 L 427.14 264.97 L 428.03 264.97 L 428.62 264.78 L 429.05 264.61 L 429.07 264.61 L 429.10 264.61 L 442.16 264.61 L 442.20 264.61 L 442.35 264.61 L 442.42 264.61 L 442.47 264.59 L 442.48 264.59 L 443.03 264.59 L 443.16 264.57 L 443.32 264.55 L 443.60 264.52 L 443.78 264.52 L 444.00 264.43 L 444.13 264.43 L 444.19 264.43 L 444.26 264.43 L 444.42 264.08 L 444.44 264.08 L 444.50 264.08 L 444.64 264.08 L 444.73 264.08 L 444.85 264.16 L 445.01 264.16 L 445.33 264.14 L 445.47 264.14 L 445.59 264.14 L 446.39 263.01 L 447.08 262.71 L 447.91 261.89 L 448.12 261.89 L 448.35 261.89 L 448.61 261.89 L 453.40 261.79 L 453.80 261.79 L 499.28 261.65 L 642.50 261.44 L 642.97 261.37 L 643.30 261.36 L 643.63 261.36 L 644.13 260.84 L 644.30 260.84 L 644.43 260.84 L 644.65 258.94 L 644.99 259.30 L 645.25 259.27 L 645.31 259.27 L 645.53 259.26 L 645.58 259.26 L 645.82 259.25 L 646.03 259.16 L 646.68 257.96 L 646.70 257.96 L 646.89 257.85 L 647.50 253.96 L 647.52 253.96 L 647.64 253.96 L 647.79 253.90 L 648.45 252.09 L 648.47 252.09 L 648.61 252.09 L 648.77 252.04 L 649.02 251.38 L 649.03 251.38 L 649.14 251.37 L 649.16 251.37 L 649.22 251.01 L 649.50 248.43 L 649.54 248.43 L 649.63 248.43 L 649.94 248.22 L 650.00 248.22"/>
	</g>
	<g id="poloto_plot2" class="poloto_plot poloto_imgs poloto_line poloto2 poloto_stroke" fill="none" stroke="black">
		<path d=" M 150.00 389.64 L 150.04 389.63 L 150.06 389.63 L 150.07 389.63 L 150.10 389.63 L 150.14 386.98 L 150.29 386.62 L 150.64 386.61 L 151.16 386.59 L 151.43 385.01 L 151.95 384.87 L 152.05 384.82 L 152.12 384.78 L 152.73 384.07 L 153.89 383.51 L 154.26 383.41 L 154.35 383.41 L 155.05 383.37 L 155.85 383.37 L 155.86 383.37 L 155.87 383.37 L 166.74 383.37 L 166.81 383.36 L 166.95 383.34 L 167.01 383.34 L 167.42 383.18 L 167.61 383.14 L 168.07 382.88 L 168.14 382.77 L 168.27 382.53 L 168.41 382.50 L 168.45 382.50 L 168.56 382.45 L 168.68 382.45 L 168.80 382.46 L 169.10 382.19 L 169.37 381.94 L 169.42 381.95 L 169.55 381.80 L 170.41 381.48 L 170.43 381.48 L 170.54 381.38 L 171.03 381.03 L 171.43 380.60 L 171.87 380.42 L 171.96 380.42 L 171.98 380.42 L 172.06 380.18 L 172.23 380.18 L 172.45 380.15 L 172.87 379.97 L 172.90 379.66 L 172.98 379.66 L 173.08 379.51 L 173.33 379.51 L 173.35 379.51 L 173.61 379.05 L 173.71 379.02 L 173.80 378.98 L 173.90 378.76 L 175.22 378.63 L 175.54 378.58 L 176.28 378.27 L 176.43 378.27 L 176.55 378.25 L 176.61 378.01 L 177.12 376.71 L 177.35 376.69 L 177.61 376.30 L 177.74 376.26 L 178.04 376.09 L 178.17 376.03 L 178.36 375.75 L 178.52 375.52 L 179.11 375.52 L 179.13 375.49 L 179.16 375.31 L 179.36 374.05 L 189.44 373.92 L 190.48 373.55 L 190.52 373.50 L 191.75 373.19 L 191.85 373.18 L 191.97 372.95 L 192.27 372.79 L 192.41 372.51 L 192.46 372.27 L 192.61 371.80 L 192.97 371.79 L 192.98 371.79 L 193.12 371.47 L 193.26 371.46 L 193.41 371.12 L 193.61 370.85 L 193.69 370.71 L 193.72 370.70 L 193.89 370.39 L 193.92 370.38 L 194.11 370.09 L 194.14 370.08 L 194.43 369.98 L 194.48 369.98 L 194.58 369.88 L 194.70 369.86 L 194.87 369.86 L 194.94 369.84 L 195.50 369.55 L 195.52 369.56 L 195.62 369.00 L 195.88 368.98 L 196.10 368.81 L 196.17 368.81 L 196.28 368.80 L 196.33 368.76 L 196.46 367.98 L 197.09 367.33 L 197.16 366.97 L 197.38 366.94 L 197.44 366.85 L 197.49 366.84 L 197.59 366.67 L 197.69 366.06 L 197.92 365.97 L 198.07 365.95 L 198.20 365.64 L 198.27 365.63 L 198.84 365.40 L 199.15 365.24 L 199.25 365.10 L 199.51 365.09 L 199.54 365.09 L 199.56 365.06 L 199.73 363.95 L 199.86 363.94 L 200.33 363.78 L 200.40 363.34 L 200.49 363.33 L 200.62 363.15 L 200.63 363.04 L 200.69 362.97 L 200.73 362.93 L 200.80 362.92 L 200.86 362.84 L 201.04 361.59 L 201.18 361.46 L 201.31 361.09 L 201.49 361.06 L 201.70 360.94 L 201.90 360.55 L 202.04 359.47 L 202.34 359.39 L 202.34 358.93 L 202.51 358.81 L 216.59 358.82 L 216.86 358.81 L 217.52 358.30 L 217.66 358.30 L 217.77 358.30 L 217.79 358.17 L 218.03 357.95 L 218.20 357.91 L 218.29 357.78 L 218.39 357.69 L 218.45 357.64 L 218.70 357.57 L 219.21 357.67 L 219.34 357.33 L 219.43 357.24 L 219.55 357.23 L 220.21 357.16 L 220.30 357.10 L 220.34 357.10 L 220.38 357.04 L 220.53 356.98 L 220.64 356.85 L 221.11 356.53 L 221.79 356.40 L 222.04 356.34 L 222.79 356.13 L 223.15 355.63 L 223.27 355.54 L 223.43 355.15 L 223.65 354.64 L 223.99 354.50 L 224.47 354.49 L 225.10 354.47 L 225.20 354.29 L 225.67 354.16 L 225.97 354.00 L 226.06 353.87 L 226.24 353.82 L 226.39 353.48 L 228.05 353.32 L 229.63 353.32 L 243.80 353.28 L 243.90 353.09 L 243.98 352.97 L 244.42 352.78 L 245.74 352.44 L 245.80 352.40 L 245.98 352.16 L 246.63 352.06 L 246.94 351.41 L 247.41 351.39 L 247.52 351.37 L 247.62 350.72 L 248.44 350.12 L 248.54 350.12 L 248.71 350.08 L 248.90 350.02 L 248.98 349.80 L 249.44 348.80 L 249.61 348.54 L 249.68 348.52 L 249.78 348.42 L 249.99 348.03 L 250.07 347.02 L 250.28 346.61 L 250.89 346.37 L 250.95 345.86 L 251.01 345.86 L 251.10 345.77 L 251.26 345.64 L 251.32 345.60 L 251.37 345.55 L 251.67 344.38 L 251.74 343.69 L 252.10 343.56 L 252.31 342.39 L 252.45 342.17 L 253.55 340.33 L 253.67 340.30 L 295.31 339.76 L 295.35 339.76 L 311.26 339.61 L 312.13 339.41 L 312.30 339.41 L 312.54 339.32 L 312.61 339.17 L 312.71 339.14 L 319.61 339.12 L 320.52 337.01 L 320.86 336.82 L 321.04 336.09 L 325.33 336.00 L 325.36 335.94 L 325.63 335.92 L 326.91 335.79 L 326.99 335.55 L 327.15 335.46 L 327.60 335.35 L 327.66 335.33 L 327.84 334.92 L 328.04 334.79 L 328.07 334.48 L 341.44 334.08 L 341.54 333.12 L 342.07 332.87 L 342.08 332.51 L 342.17 332.22 L 342.28 331.78 L 342.43 330.62 L 342.66 329.98 L 342.85 329.16 L 343.02 329.15 L 343.09 328.52 L 343.36 328.47 L 344.28 327.87 L 344.66 327.59 L 344.72 327.42 L 344.80 327.42 L 344.85 327.21 L 344.98 326.49 L 345.35 326.42 L 345.41 326.41 L 345.64 325.94 L 345.73 325.94 L 345.76 325.67 L 345.85 325.51 L 345.91 325.50 L 345.96 325.13 L 346.25 324.90 L 346.38 324.53 L 346.54 324.51 L 346.65 324.31 L 346.70 324.03 L 346.99 323.87 L 347.08 323.71 L 347.13 323.71 L 347.21 323.70 L 347.25 323.41 L 347.29 323.43 L 347.31 323.42 L 347.46 323.32 L 347.51 323.00 L 347.65 322.99 L 347.76 322.91 L 348.06 322.89 L 348.43 322.86 L 348.44 322.86 L 348.54 322.84 L 348.88 322.83 L 349.05 322.83 L 349.21 322.83 L 349.38 322.78 L 349.50 322.39 L 349.97 322.39 L 350.01 322.17 L 350.07 322.16 L 350.11 321.90 L 350.42 321.81 L 350.47 321.75 L 350.70 321.75 L 371.27 321.68 L 372.44 321.57 L 372.48 321.57 L 372.71 321.57 L 372.73 321.57 L 372.88 321.12 L 373.00 321.10 L 373.09 320.98 L 373.24 320.91 L 373.28 320.87 L 373.33 320.84 L 373.55 320.80 L 374.00 320.71 L 374.28 320.10 L 374.60 320.07 L 374.61 320.03 L 374.66 319.52 L 374.70 319.51 L 375.31 319.51 L 375.33 319.46 L 375.42 318.99 L 375.69 318.93 L 375.85 318.91 L 375.89 318.90 L 375.90 318.85 L 375.97 318.81 L 376.02 318.33 L 376.05 318.32 L 376.20 318.32 L 376.21 318.28 L 376.53 318.23 L 377.41 318.21 L 377.62 318.17 L 377.68 318.16 L 377.72 318.01 L 377.78 318.01 L 377.90 317.46 L 391.96 317.29 L 391.99 317.14 L 392.10 317.03 L 392.14 317.01 L 392.22 316.55 L 392.37 316.43 L 392.39 316.41 L 392.65 316.40 L 392.71 316.40 L 392.76 315.94 L 392.98 315.89 L 393.59 315.87 L 393.61 315.84 L 393.76 315.59 L 393.82 315.60 L 393.85 315.17 L 394.36 315.17 L 394.37 315.15 L 395.14 315.04 L 395.24 314.53 L 395.51 314.53 L 395.83 314.53 L 395.91 314.15 L 395.96 313.86 L 396.11 313.85 L 396.51 313.79 L 396.58 313.77 L 396.75 313.65 L 396.94 313.65 L 397.53 313.65 L 397.60 313.65 L 397.74 313.62 L 397.75 313.62 L 397.94 313.62 L 398.39 313.59 L 398.85 313.54 L 398.92 313.53 L 399.02 313.48 L 399.15 313.34 L 399.50 313.34 L 400.10 313.18 L 400.29 312.89 L 400.61 312.86 L 401.91 312.55 L 402.19 312.55 L 402.40 312.54 L 402.72 312.54 L 402.82 312.51 L 403.15 312.36 L 403.65 312.33 L 403.72 312.19 L 403.82 312.13 L 403.88 312.14 L 403.93 312.09 L 404.33 312.07 L 413.65 312.06 L 413.73 312.06 L 414.31 312.06 L 414.37 312.04 L 414.50 311.62 L 414.61 311.60 L 414.62 311.60 L 414.94 311.59 L 415.02 311.57 L 416.93 310.94 L 417.15 310.87 L 417.32 310.86 L 417.35 310.86 L 417.95 310.84 L 418.15 310.93 L 418.19 310.93 L 418.50 310.88 L 418.85 310.29 L 418.89 310.28 L 419.18 310.26 L 419.30 310.26 L 419.41 310.26 L 419.65 310.14 L 420.17 309.60 L 420.27 309.60 L 420.37 309.52 L 420.58 309.03 L 421.09 308.48 L 421.55 308.52 L 421.64 308.23 L 422.11 308.23 L 422.19 308.20 L 422.26 308.16 L 422.31 307.88 L 422.47 307.87 L 422.51 307.87 L 422.58 307.87 L 422.85 307.87 L 423.26 307.64 L 423.51 307.62 L 423.79 307.62 L 423.93 307.62 L 424.21 307.62 L 424.68 307.62 L 425.15 307.62 L 425.51 307.61 L 425.59 307.61 L 425.68 307.60 L 425.69 307.50 L 425.96 307.43 L 426.04 307.43 L 426.15 307.41 L 426.91 307.41 L 426.93 307.13 L 427.14 307.13 L 428.03 307.13 L 428.62 307.13 L 429.05 307.07 L 429.07 306.95 L 429.10 306.95 L 442.16 306.77 L 442.20 306.76 L 442.35 306.75 L 442.42 306.57 L 442.47 306.57 L 442.48 306.56 L 443.03 306.51 L 443.16 305.94 L 443.32 305.81 L 443.60 304.69 L 443.78 304.68 L 444.00 304.20 L 444.13 304.26 L 444.19 304.25 L 444.26 303.64 L 444.42 303.53 L 444.44 303.11 L 444.50 303.04 L 444.64 303.00 L 444.73 302.79 L 444.85 305.31 L 445.01 305.27 L 445.33 304.26 L 445.47 304.04 L 445.59 303.81 L 446.39 303.41 L 447.08 302.99 L 447.91 302.39 L 448.12 302.33 L 448.35 302.33 L 448.61 302.28 L 453.40 301.98 L 453.80 301.95 L 499.28 301.16 L 642.50 301.13 L 642.97 300.78 L 643.30 300.72 L 643.63 300.72 L 644.13 300.40 L 644.30 300.03 L 644.43 299.34 L 644.65 299.15 L 644.99 299.22 L 645.25 298.81 L 645.31 298.81 L 645.53 298.68 L 645.58 298.68 L 645.82 298.01 L 646.03 296.97 L 646.68 296.87 L 646.70 296.77 L 646.89 295.43 L 647.50 295.39 L 647.52 295.25 L 647.64 295.17 L 647.79 293.96 L 648.45 293.90 L 648.47 293.73 L 648.61 293.65 L 648.77 292.86 L 649.02 292.83 L 649.03 292.70 L 649.14 291.38 L 649.16 291.35 L 649.22 291.31 L 649.50 291.31 L 649.54 291.17 L 649.63 291.07 L 649.94 290.95 L 650.00 290.94"/>
	</g>
	<g class="poloto_legend poloto_imgs poloto_line poloto0 poloto_stroke"><line x1="680" x2="730" y1="81.25" y2="81.25"/></g>
	<g class="poloto_legend poloto_imgs poloto_line poloto1 poloto_stroke"><line x1="680" x2="730" y1="131.25" y2="131.25"/></g>
	<g class="poloto_legend poloto_imgs poloto_line poloto2 poloto_stroke"><line x1="680" x2="730" y1="181.25" y2="181.25"/></g>
	<text class="poloto_legend poloto_text poloto_line poloto0" x="675" y="100">total</text>
	<text class="poloto_legend poloto_text poloto_line poloto1" x="675" y="150">code</text>
	<text class="poloto_legend poloto_text poloto_line poloto2" x="675" y="200">docs</text>
	<text class="poloto_text poloto_name poloto_title" x="400.00" y="37.50">Workspace lines over time</text>
	<text class="poloto_text poloto_name poloto_x" x="400.00" y="640">date (JST)</text>
	<text class="poloto_text poloto_name poloto_y" x="37.50" y="250.00" transform="rotate(-90,37.50,250.00)">lines</text>
	<text class="poloto_text poloto_ticks poloto_y">
		<tspan x="135.00" y="400.00">0</tspan>
		<tspan x="135.00" y="301.50">50K</tspan>
		<tspan x="135.00" y="203.01">100K</tspan>
		<tspan x="135.00" y="104.51">150K</tspan>
	</text>
	<g class="poloto_imgs poloto_ticks poloto_y" stroke="black">
		<line x1="150.00" x2="144.00" y1="400.00" y2="400.00"/>
		<line x1="150.00" x2="144.00" y1="301.50" y2="301.50"/>
		<line x1="150.00" x2="144.00" y1="203.01" y2="203.01"/>
		<line x1="150.00" x2="144.00" y1="104.51" y2="104.51"/>
	</g>
	<g class="poloto_text poloto_ticks poloto_x">
		<text x="185.98" y="430.00" text-anchor="end" transform="rotate(-90 185.98 430.00)">2026-04-22 04:33</text>
		<text x="243.62" y="430.00" text-anchor="end" transform="rotate(-90 243.62 430.00)">2026-04-24 12:06</text>
		<text x="301.27" y="430.00" text-anchor="end" transform="rotate(-90 301.27 430.00)">2026-04-26 19:40</text>
		<text x="358.91" y="430.00" text-anchor="end" transform="rotate(-90 358.91 430.00)">2026-04-29 03:13</text>
		<text x="416.55" y="430.00" text-anchor="end" transform="rotate(-90 416.55 430.00)">2026-05-01 10:46</text>
		<text x="474.20" y="430.00" text-anchor="end" transform="rotate(-90 474.20 430.00)">2026-05-03 18:20</text>
		<text x="531.84" y="430.00" text-anchor="end" transform="rotate(-90 531.84 430.00)">2026-05-06 01:53</text>
		<text x="589.49" y="430.00" text-anchor="end" transform="rotate(-90 589.49 430.00)">2026-05-08 09:26</text>
		<text x="647.13" y="430.00" text-anchor="end" transform="rotate(-90 647.13 430.00)">2026-05-10 17:00</text>
	</g>
	<g class="poloto_imgs poloto_ticks poloto_x" stroke="black">
		<line x1="185.98" x2="185.98" y1="400.00" y2="405.00"/>
		<line x1="243.62" x2="243.62" y1="400.00" y2="405.00"/>
		<line x1="301.27" x2="301.27" y1="400.00" y2="405.00"/>
		<line x1="358.91" x2="358.91" y1="400.00" y2="405.00"/>
		<line x1="416.55" x2="416.55" y1="400.00" y2="405.00"/>
		<line x1="474.20" x2="474.20" y1="400.00" y2="405.00"/>
		<line x1="531.84" x2="531.84" y1="400.00" y2="405.00"/>
		<line x1="589.49" x2="589.49" y1="400.00" y2="405.00"/>
		<line x1="647.13" x2="647.13" y1="400.00" y2="405.00"/>
	</g>
	<path class="poloto_imgs poloto_ticks poloto_x" stroke="black" style="stroke-dasharray:7.2055495413235375;stroke-dashoffset:-35.976732415903825;" d=" M 150.00 400.00 L 650.00 400.00"/>
	<path class="poloto_imgs poloto_ticks poloto_y" stroke="black" style="stroke-dasharray:9.84962899730777;stroke-dashoffset:-0;" d=" M 150.00 400.00 L 150.00 100.00"/>
</svg>

