<svg class="poloto" width="800" height="680" viewBox="0 0 800 680" xmlns="http://www.w3.org/2000/svg">
	<style>
.poloto{
  stroke-linecap:round;
  stroke-linejoin:round;
  font-family:Roboto,sans-serif;
  font-size:16px;
}
.poloto_background{fill:AliceBlue;}
.poloto_scatter{stroke-width:7}
.poloto_line{stroke-width:2}
.poloto_text{fill: black;}
.poloto_name{font-size:24px;dominant-baseline:auto;text-anchor:middle;}
.poloto_where{dominant-baseline:middle;text-anchor:start}
.poloto_text.poloto_legend{font-size:20px;dominant-baseline:middle;text-anchor:start;}
.poloto_text.poloto_ticks.poloto_y{dominant-baseline:middle;text-anchor:end}
.poloto_text.poloto_ticks.poloto_x{dominant-baseline:auto;text-anchor:middle}
.poloto_imgs.poloto_ticks{stroke: black;stroke-width:3;fill:none;stroke-dasharray:none}
.poloto_grid{stroke:gray;stroke-width:0.5}

.poloto0.poloto_stroke{stroke:blue;}
.poloto1.poloto_stroke{stroke:red;}
.poloto2.poloto_stroke{stroke:green;}
.poloto3.poloto_stroke{stroke:gold;}
.poloto4.poloto_stroke{stroke:aqua;}
.poloto5.poloto_stroke{stroke:lime;}
.poloto6.poloto_stroke{stroke:orange;}
.poloto7.poloto_stroke{stroke:chocolate;}
.poloto0.poloto_fill{fill:blue;}
.poloto1.poloto_fill{fill:red;}
.poloto2.poloto_fill{fill:green;}
.poloto3.poloto_fill{fill:gold;}
.poloto4.poloto_fill{fill:aqua;}
.poloto5.poloto_fill{fill:lime;}
.poloto6.poloto_fill{fill:orange;}
.poloto7.poloto_fill{fill:chocolate;}
	</style>
	<circle r="1e5" class="poloto_background" fill="white"/>
	<g id="poloto_plot0" class="poloto_plot poloto_imgs poloto_line poloto0 poloto_stroke" fill="none" stroke="black">
		<path d=" M 150.00 361.61 L 150.04 361.58 L 150.06 361.56 L 150.07 361.56 L 150.10 361.56 L 150.14 357.39 L 150.29 356.89 L 150.64 356.87 L 151.16 356.53 L 151.42 354.41 L 151.95 354.28 L 152.04 354.17 L 152.11 354.12 L 152.73 353.09 L 153.88 352.25 L 154.25 348.97 L 154.34 348.98 L 155.04 348.85 L 155.84 348.84 L 155.85 348.84 L 155.85 348.84 L 166.69 348.84 L 166.77 348.83 L 166.91 348.80 L 166.97 348.77 L 167.38 348.58 L 167.57 348.52 L 168.03 348.22 L 168.09 348.09 L 168.22 347.80 L 168.36 347.75 L 168.40 347.75 L 168.51 347.67 L 168.63 347.67 L 168.75 347.67 L 169.05 347.19 L 169.32 346.89 L 169.37 346.89 L 169.50 346.71 L 170.36 347.46 L 170.38 347.46 L 170.49 347.34 L 170.98 346.78 L 171.37 346.11 L 171.82 345.81 L 171.91 345.76 L 171.92 345.76 L 172.01 345.50 L 172.18 345.50 L 172.39 345.41 L 172.82 345.16 L 172.84 344.77 L 172.92 344.77 L 173.02 344.56 L 173.27 344.56 L 173.29 344.56 L 173.55 344.01 L 173.65 343.98 L 173.74 343.93 L 173.84 343.71 L 175.16 343.40 L 175.48 343.34 L 176.21 342.95 L 176.37 342.95 L 176.48 342.93 L 176.55 342.65 L 177.05 340.99 L 177.28 340.96 L 177.54 340.41 L 177.67 340.36 L 177.97 339.90 L 178.10 339.73 L 178.29 339.44 L 178.45 339.18 L 179.04 335.37 L 179.05 335.27 L 179.08 335.04 L 179.28 333.21 L 189.34 333.08 L 190.38 330.99 L 190.41 330.94 L 191.64 330.62 L 191.75 330.61 L 191.86 330.19 L 192.16 329.99 L 192.30 329.63 L 192.35 329.32 L 192.50 328.77 L 192.87 328.76 L 192.88 328.39 L 193.01 327.98 L 193.15 327.98 L 193.30 327.52 L 193.50 327.19 L 193.58 327.02 L 193.61 327.02 L 193.78 326.66 L 193.81 326.65 L 194.00 326.29 L 194.03 326.28 L 194.32 324.56 L 194.36 324.56 L 194.46 324.28 L 194.59 324.26 L 194.75 324.26 L 194.82 324.22 L 195.39 323.90 L 195.40 323.91 L 195.51 323.15 L 195.76 323.13 L 195.99 321.98 L 196.06 321.88 L 196.16 321.87 L 196.22 321.83 L 196.34 320.94 L 196.97 313.46 L 197.04 313.10 L 197.26 313.07 L 197.32 312.98 L 197.37 312.95 L 197.47 312.76 L 197.57 311.91 L 197.80 311.73 L 197.95 311.71 L 198.08 311.34 L 198.15 311.33 L 198.72 311.05 L 199.03 310.84 L 199.12 310.51 L 199.39 310.49 L 199.41 310.49 L 199.43 310.46 L 199.60 308.66 L 199.74 308.56 L 200.20 306.74 L 200.28 306.22 L 200.37 306.20 L 200.49 306.01 L 200.50 305.87 L 200.56 305.78 L 200.60 305.74 L 200.67 305.73 L 200.73 305.63 L 200.91 304.15 L 201.05 303.93 L 201.18 303.50 L 201.36 303.47 L 201.57 303.33 L 201.77 302.28 L 201.91 300.83 L 202.20 300.75 L 202.21 300.20 L 202.38 300.02 L 216.42 300.03 L 216.69 300.01 L 217.35 299.24 L 217.49 299.22 L 217.60 299.22 L 217.62 299.03 L 217.86 298.79 L 218.03 298.75 L 218.12 298.61 L 218.22 298.51 L 218.28 298.45 L 218.53 298.38 L 219.04 298.29 L 219.16 297.90 L 219.26 297.80 L 219.38 297.78 L 220.03 297.58 L 220.12 297.47 L 220.17 297.47 L 220.21 297.32 L 220.35 297.25 L 220.46 297.11 L 220.93 296.13 L 221.61 295.98 L 221.86 295.92 L 222.61 295.67 L 222.96 290.97 L 223.09 290.87 L 223.24 290.41 L 223.46 289.79 L 223.80 289.62 L 224.28 289.60 L 224.92 289.59 L 225.01 289.38 L 225.48 289.16 L 225.77 288.83 L 225.87 288.69 L 226.05 288.63 L 226.19 288.21 L 227.85 287.75 L 229.43 287.75 L 243.56 287.71 L 243.66 287.51 L 243.74 287.38 L 244.18 287.17 L 245.50 285.55 L 245.56 285.45 L 245.74 285.03 L 246.39 284.92 L 246.70 283.83 L 247.16 283.82 L 247.27 283.80 L 247.38 283.05 L 248.20 278.77 L 248.29 278.77 L 248.47 278.73 L 248.65 278.68 L 248.73 278.21 L 249.19 276.60 L 249.35 276.30 L 249.43 276.28 L 249.53 275.53 L 249.74 274.49 L 249.82 273.37 L 250.03 272.88 L 250.64 267.32 L 250.70 266.76 L 250.76 266.76 L 250.85 266.66 L 251.00 266.51 L 251.06 266.46 L 251.12 266.40 L 251.41 265.07 L 251.48 264.13 L 251.84 263.94 L 252.06 262.54 L 252.19 261.66 L 253.29 248.71 L 253.41 248.67 L 294.94 248.05 L 294.98 248.05 L 310.85 247.87 L 311.72 247.52 L 311.89 247.52 L 312.13 247.42 L 312.20 247.26 L 312.30 247.21 L 319.18 247.12 L 320.09 244.66 L 320.43 244.43 L 320.61 243.53 L 324.89 243.35 L 324.92 243.10 L 325.19 243.07 L 326.47 241.52 L 326.54 241.24 L 326.70 241.14 L 327.15 241.03 L 327.21 240.99 L 327.39 240.52 L 327.59 240.40 L 327.62 240.05 L 340.96 239.58 L 341.06 238.25 L 341.58 237.95 L 341.60 235.73 L 341.69 235.40 L 341.80 234.86 L 341.95 233.32 L 342.17 232.51 L 342.36 231.56 L 342.54 231.55 L 342.60 230.82 L 342.87 230.76 L 343.80 227.18 L 344.17 226.80 L 344.23 226.57 L 344.31 226.57 L 344.36 226.32 L 344.49 225.44 L 344.86 225.02 L 344.92 224.96 L 345.15 221.81 L 345.23 221.80 L 345.27 221.46 L 345.36 221.21 L 345.41 221.20 L 345.46 220.73 L 345.76 219.03 L 345.88 218.54 L 346.05 218.48 L 346.16 213.93 L 346.21 213.56 L 346.50 210.96 L 346.58 210.75 L 346.63 210.75 L 346.71 210.74 L 346.76 210.38 L 346.80 210.39 L 346.81 210.38 L 346.96 205.78 L 347.01 205.38 L 347.16 205.36 L 347.26 205.28 L 347.56 205.15 L 347.93 204.97 L 347.94 204.97 L 348.04 204.92 L 348.38 204.83 L 348.55 204.83 L 348.71 204.83 L 348.88 202.83 L 348.99 202.34 L 349.47 202.34 L 349.51 202.02 L 349.57 202.02 L 349.60 201.68 L 349.91 198.77 L 349.97 198.71 L 350.19 198.69 L 370.71 198.60 L 371.88 198.45 L 371.92 198.45 L 372.15 198.45 L 372.17 198.45 L 372.32 197.88 L 372.43 197.85 L 372.53 197.57 L 372.68 197.50 L 372.72 197.46 L 372.77 197.44 L 372.99 197.11 L 373.44 196.82 L 373.72 195.89 L 374.03 195.00 L 374.04 194.96 L 374.10 194.13 L 374.14 194.10 L 374.75 193.61 L 374.76 193.55 L 374.85 192.89 L 375.12 192.82 L 375.28 192.76 L 375.32 191.58 L 375.33 191.52 L 375.40 192.64 L 375.45 191.96 L 375.48 191.93 L 375.63 190.36 L 375.64 190.31 L 375.96 190.18 L 376.84 190.16 L 377.04 190.11 L 377.11 190.09 L 377.15 189.89 L 377.20 189.89 L 377.33 189.11 L 391.35 187.61 L 391.38 187.41 L 391.49 187.26 L 391.53 186.97 L 391.61 173.86 L 391.76 168.49 L 391.78 168.45 L 392.04 168.35 L 392.10 168.35 L 392.14 167.73 L 392.37 167.67 L 392.98 166.40 L 392.99 166.37 L 393.15 165.98 L 393.20 165.99 L 393.24 165.36 L 393.75 164.61 L 393.76 164.59 L 394.53 164.30 L 394.62 163.63 L 394.89 163.64 L 395.21 161.94 L 395.29 161.28 L 395.34 160.74 L 395.49 160.09 L 395.89 159.86 L 395.96 159.69 L 396.13 159.55 L 396.32 159.55 L 396.91 159.55 L 396.98 159.55 L 397.11 159.52 L 397.13 159.51 L 397.32 159.53 L 397.76 159.50 L 398.22 159.25 L 398.29 159.25 L 398.39 159.15 L 398.52 158.97 L 398.87 158.97 L 399.47 158.74 L 399.66 158.21 L 399.98 153.69 L 401.27 157.51 L 401.55 157.50 L 401.76 157.48 L 402.08 157.47 L 402.19 157.40 L 402.51 157.18 L 403.01 156.87 L 403.08 156.67 L 403.18 156.58 L 403.24 156.60 L 403.29 156.53 L 403.69 156.25 L 412.98 156.25 L 413.07 156.25 L 413.65 156.24 L 413.70 156.21 L 413.83 155.64 L 413.94 155.31 L 413.96 155.31 L 414.28 155.26 L 414.35 155.23 L 416.26 154.38 L 416.48 154.31 L 416.65 154.29 L 416.68 154.29 L 417.27 154.09 L 417.47 154.19 L 417.51 154.18 L 417.83 154.13 L 418.17 152.34 L 418.22 152.33 L 418.51 152.12 L 418.62 152.12 L 418.73 152.12 L 418.98 151.92 L 419.49 151.20 L 419.59 151.18 L 419.68 150.97 L 419.90 150.12 L 420.41 149.24 L 420.86 145.08 L 420.95 144.57 L 421.42 144.37 L 421.50 144.26 L 421.58 144.06 L 421.62 143.40 L 421.79 142.20 L 421.82 142.25 L 421.90 142.22 L 422.16 142.22 L 422.57 141.78 L 422.82 141.69 L 423.10 141.68 L 423.24 141.66 L 423.52 141.65 L 423.99 141.65 L 424.46 141.64 L 424.81 141.63 L 424.90 141.62 L 424.99 141.61 L 424.99 141.46 L 425.27 141.38 L 425.34 141.36 L 425.46 141.18 L 426.22 141.15 L 426.23 140.79 L 426.44 140.78 L 427.33 140.78 L 427.92 140.56 L 428.35 140.30 L 428.36 140.15 L 428.40 140.15 L 441.42 139.90 L 441.46 139.90 L 441.62 139.88 L 441.69 139.67 L 441.73 139.65 L 441.74 139.64 L 442.30 139.58 L 442.42 138.83 L 442.59 138.66 L 442.86 137.18 L 443.04 137.16 L 443.26 136.53 L 443.39 136.61 L 443.45 136.60 L 443.51 135.88 L 443.68 135.39 L 443.70 134.87 L 443.76 134.80 L 443.90 134.75 L 443.99 134.51 L 444.10 137.34 L 444.26 137.29 L 444.58 136.16 L 444.72 135.88 L 444.85 135.64 L 445.65 134.02 L 446.33 133.23 L 447.16 131.73 L 447.36 131.66 L 447.60 131.66 L 447.85 131.59 L 452.64 131.17 L 453.04 131.13 L 498.40 129.98 L 641.26 129.72 L 641.73 129.26 L 642.06 129.20 L 642.39 129.20 L 642.88 128.32 L 643.05 127.89 L 643.18 127.10 L 643.41 124.82 L 643.74 125.29 L 644.00 124.79 L 644.07 124.78 L 644.29 124.63 L 644.34 124.64 L 644.57 123.80 L 644.78 122.46 L 645.43 121.04 L 645.45 120.92 L 645.64 119.23 L 646.25 115.03 L 646.27 114.88 L 646.38 114.79 L 646.53 113.29 L 647.20 111.27 L 647.21 111.09 L 647.36 110.99 L 647.51 110.00 L 647.76 109.21 L 647.78 109.06 L 647.88 107.52 L 647.90 107.49 L 647.96 107.06 L 648.24 104.32 L 648.28 104.17 L 648.38 104.01 L 648.68 103.64 L 648.74 103.64 L 648.98 103.11 L 649.38 103.17 L 649.44 103.10 L 649.49 103.07 L 649.56 103.03 L 649.76 101.42 L 649.97 100.11 L 650.00 100.00"/>
	</g>
	<g id="poloto_plot1" class="poloto_plot poloto_imgs poloto_line poloto1 poloto_stroke" fill="none" stroke="black">
		<path d=" M 150.00 377.19 L 150.04 377.17 L 150.06 377.15 L 150.07 377.15 L 150.10 377.15 L 150.14 376.43 L 150.29 376.41 L 150.64 376.40 L 151.16 376.12 L 151.42 376.00 L 151.95 376.03 L 152.04 375.98 L 152.11 375.98 L 152.73 375.92 L 153.88 375.79 L 154.25 372.97 L 154.34 372.97 L 155.04 372.90 L 155.84 372.89 L 155.85 372.89 L 155.85 372.89 L 166.69 372.89 L 166.77 372.89 L 166.91 372.89 L 166.97 372.85 L 167.38 372.83 L 167.57 372.83 L 168.03 372.83 L 168.09 372.83 L 168.22 372.81 L 168.36 372.81 L 168.40 372.81 L 168.51 372.78 L 168.63 372.78 L 168.75 372.78 L 169.05 372.62 L 169.32 372.62 L 169.37 372.62 L 169.50 372.62 L 170.36 373.68 L 170.38 373.68 L 170.49 373.67 L 170.98 373.51 L 171.37 373.33 L 171.82 373.25 L 171.91 373.20 L 171.92 373.20 L 172.01 373.20 L 172.18 373.20 L 172.39 373.13 L 172.82 373.07 L 172.84 373.07 L 172.92 373.07 L 173.02 373.04 L 173.27 373.04 L 173.29 373.04 L 173.55 373.03 L 173.65 373.03 L 173.74 373.03 L 173.84 373.03 L 175.16 372.91 L 175.48 372.90 L 176.21 372.84 L 176.37 372.84 L 176.48 372.84 L 176.55 372.84 L 177.05 372.76 L 177.28 372.76 L 177.54 372.65 L 177.67 372.64 L 177.97 372.41 L 178.10 372.33 L 178.29 372.33 L 178.45 372.33 L 179.04 369.03 L 179.05 368.97 L 179.08 368.97 L 179.28 368.65 L 189.34 368.65 L 190.38 367.23 L 190.41 367.23 L 191.64 367.23 L 191.75 367.23 L 191.86 367.08 L 192.16 367.06 L 192.30 367.06 L 192.35 367.06 L 192.50 367.06 L 192.87 367.06 L 192.88 366.75 L 193.01 366.74 L 193.15 366.74 L 193.30 366.70 L 193.50 366.70 L 193.58 366.70 L 193.61 366.70 L 193.78 366.70 L 193.81 366.70 L 194.00 366.70 L 194.03 366.70 L 194.32 365.30 L 194.36 365.30 L 194.46 365.13 L 194.59 365.13 L 194.75 365.13 L 194.82 365.12 L 195.39 365.11 L 195.40 365.11 L 195.51 365.03 L 195.76 365.03 L 195.99 364.22 L 196.06 364.12 L 196.16 364.12 L 196.22 364.12 L 196.34 364.10 L 196.97 358.21 L 197.04 358.26 L 197.26 358.26 L 197.32 358.26 L 197.37 358.25 L 197.47 358.25 L 197.57 358.17 L 197.80 358.17 L 197.95 358.17 L 198.08 358.16 L 198.15 358.16 L 198.72 358.15 L 199.03 358.15 L 199.12 358.00 L 199.39 358.00 L 199.41 358.00 L 199.43 358.00 L 199.60 357.61 L 199.74 357.50 L 200.20 356.10 L 200.28 356.10 L 200.37 356.10 L 200.49 356.12 L 200.50 356.12 L 200.56 356.12 L 200.60 356.12 L 200.67 356.12 L 200.73 356.12 L 200.91 356.10 L 201.05 356.10 L 201.18 356.08 L 201.36 356.08 L 201.57 356.07 L 201.77 355.55 L 201.91 355.37 L 202.20 355.37 L 202.21 355.37 L 202.38 355.37 L 216.42 355.37 L 216.69 355.36 L 217.35 355.27 L 217.49 355.25 L 217.60 355.25 L 217.62 355.25 L 217.86 355.25 L 218.03 355.25 L 218.12 355.25 L 218.22 355.25 L 218.28 355.25 L 218.53 355.25 L 219.04 355.27 L 219.16 355.27 L 219.26 355.27 L 219.38 355.27 L 220.03 355.16 L 220.12 355.11 L 220.17 355.11 L 220.21 355.03 L 220.35 355.03 L 220.46 355.03 L 220.93 354.49 L 221.61 354.49 L 221.86 354.49 L 222.61 354.49 L 222.96 350.89 L 223.09 350.88 L 223.24 350.88 L 223.46 350.88 L 223.80 350.88 L 224.28 350.88 L 224.92 350.88 L 225.01 350.88 L 225.48 350.79 L 225.77 350.64 L 225.87 350.64 L 226.05 350.64 L 226.19 350.62 L 227.85 350.39 L 229.43 350.39 L 243.56 350.39 L 243.66 350.39 L 243.74 350.39 L 244.18 350.39 L 245.50 349.25 L 245.56 349.22 L 245.74 349.10 L 246.39 349.09 L 246.70 348.82 L 247.16 348.82 L 247.27 348.82 L 247.38 348.82 L 248.20 345.66 L 248.29 345.66 L 248.47 345.66 L 248.65 345.66 L 248.73 345.45 L 249.19 345.07 L 249.35 345.07 L 249.43 345.07 L 249.53 344.49 L 249.74 343.91 L 249.82 343.91 L 250.03 343.90 L 250.64 339.18 L 250.70 339.18 L 250.76 339.18 L 250.85 339.18 L 251.00 339.18 L 251.06 339.18 L 251.12 339.18 L 251.41 339.18 L 251.48 339.08 L 251.84 339.06 L 252.06 338.99 L 252.19 338.42 L 253.29 329.04 L 253.41 329.04 L 294.94 329.04 L 294.98 329.04 L 310.85 329.04 L 311.72 328.90 L 311.89 328.90 L 312.13 328.90 L 312.20 328.90 L 312.30 328.90 L 319.18 328.82 L 320.09 328.74 L 320.43 328.74 L 320.61 328.71 L 324.89 328.62 L 324.92 328.50 L 325.19 328.50 L 326.47 327.23 L 326.54 327.23 L 326.70 327.23 L 327.15 327.23 L 327.21 327.23 L 327.39 327.23 L 327.59 327.23 L 327.62 327.23 L 340.96 327.21 L 341.06 326.98 L 341.58 326.98 L 341.60 325.45 L 341.69 325.45 L 341.80 325.45 L 341.95 325.31 L 342.17 325.31 L 342.36 325.24 L 342.54 325.24 L 342.60 325.24 L 342.87 325.22 L 343.80 322.62 L 344.17 322.62 L 344.23 322.60 L 344.31 322.60 L 344.36 322.60 L 344.49 322.56 L 344.86 322.24 L 344.92 322.19 L 345.15 319.85 L 345.23 319.84 L 345.27 319.84 L 345.36 319.81 L 345.41 319.81 L 345.46 319.81 L 345.76 318.53 L 345.88 318.52 L 346.05 318.49 L 346.16 314.53 L 346.21 314.53 L 346.50 312.30 L 346.58 312.30 L 346.63 312.29 L 346.71 312.29 L 346.76 312.29 L 346.80 312.29 L 346.81 312.29 L 346.96 308.17 L 347.01 308.17 L 347.16 308.15 L 347.26 308.15 L 347.56 308.07 L 347.93 307.96 L 347.94 307.96 L 348.04 307.93 L 348.38 307.87 L 348.55 307.87 L 348.71 307.87 L 348.88 306.09 L 348.99 306.09 L 349.47 306.08 L 349.51 306.08 L 349.57 306.08 L 349.60 306.08 L 349.91 303.54 L 349.97 303.54 L 350.19 303.52 L 370.71 303.52 L 371.88 303.50 L 371.92 303.50 L 372.15 303.50 L 372.17 303.50 L 372.32 303.50 L 372.43 303.50 L 372.53 303.38 L 372.68 303.38 L 372.72 303.38 L 372.77 303.38 L 372.99 303.15 L 373.44 303.00 L 373.72 302.85 L 374.03 302.13 L 374.04 302.13 L 374.10 301.95 L 374.14 301.93 L 374.75 301.49 L 374.76 301.49 L 374.85 301.43 L 375.12 301.43 L 375.28 301.39 L 375.32 300.33 L 375.33 300.33 L 375.40 301.37 L 375.45 301.32 L 375.48 301.30 L 375.63 299.89 L 375.64 299.89 L 375.96 299.83 L 376.84 299.83 L 377.04 299.83 L 377.11 299.83 L 377.15 299.83 L 377.20 299.83 L 377.33 299.74 L 391.35 298.57 L 391.38 298.57 L 391.49 298.56 L 391.53 298.30 L 391.61 285.78 L 391.76 281.12 L 391.78 281.12 L 392.04 281.04 L 392.10 281.04 L 392.14 281.01 L 392.37 281.01 L 392.98 279.88 L 392.99 279.88 L 393.15 279.82 L 393.20 279.82 L 393.24 279.72 L 393.75 279.04 L 393.76 279.04 L 394.53 278.90 L 394.62 278.85 L 394.89 278.86 L 395.21 277.33 L 395.29 277.17 L 395.34 277.03 L 395.49 276.45 L 395.89 276.31 L 395.96 276.18 L 396.13 276.18 L 396.32 276.18 L 396.91 276.18 L 396.98 276.18 L 397.11 276.18 L 397.13 276.18 L 397.32 276.20 L 397.76 276.20 L 398.22 276.04 L 398.29 276.04 L 398.39 276.02 L 398.52 276.02 L 398.87 276.02 L 399.47 276.02 L 399.66 275.88 L 399.98 271.84 L 401.27 275.66 L 401.55 275.64 L 401.76 275.63 L 402.08 275.63 L 402.19 275.58 L 402.51 275.56 L 403.01 275.33 L 403.08 275.33 L 403.18 275.33 L 403.24 275.33 L 403.29 275.33 L 403.69 275.11 L 412.98 275.11 L 413.07 275.11 L 413.65 275.09 L 413.70 275.09 L 413.83 275.06 L 413.94 274.78 L 413.96 274.77 L 414.28 274.74 L 414.35 274.74 L 416.26 274.51 L 416.48 274.51 L 416.65 274.51 L 416.68 274.51 L 417.27 274.34 L 417.47 274.34 L 417.51 274.34 L 417.83 274.34 L 418.17 273.38 L 418.22 273.38 L 418.51 273.22 L 418.62 273.22 L 418.73 273.22 L 418.98 273.22 L 419.49 273.20 L 419.59 273.18 L 419.68 273.09 L 419.90 272.93 L 420.41 272.78 L 420.86 268.97 L 420.95 268.84 L 421.42 268.66 L 421.50 268.61 L 421.58 268.48 L 421.62 268.21 L 421.79 267.07 L 421.82 267.12 L 421.90 267.09 L 422.16 267.09 L 422.57 266.93 L 422.82 266.87 L 423.10 266.85 L 423.24 266.84 L 423.52 266.83 L 423.99 266.83 L 424.46 266.81 L 424.81 266.81 L 424.90 266.80 L 424.99 266.80 L 424.99 266.79 L 425.27 266.79 L 425.34 266.78 L 425.46 266.64 L 426.22 266.62 L 426.23 266.62 L 426.44 266.61 L 427.33 266.60 L 427.92 266.41 L 428.35 266.25 L 428.36 266.25 L 428.40 266.25 L 441.42 266.25 L 441.46 266.25 L 441.62 266.25 L 441.69 266.25 L 441.73 266.23 L 441.74 266.23 L 442.30 266.23 L 442.42 266.21 L 442.59 266.19 L 442.86 266.16 L 443.04 266.16 L 443.26 266.07 L 443.39 266.07 L 443.45 266.07 L 443.51 266.07 L 443.68 265.72 L 443.70 265.72 L 443.76 265.72 L 443.90 265.72 L 443.99 265.72 L 444.10 265.81 L 444.26 265.81 L 444.58 265.79 L 444.72 265.79 L 444.85 265.79 L 445.65 264.67 L 446.33 264.37 L 447.16 263.57 L 447.36 263.57 L 447.60 263.57 L 447.85 263.57 L 452.64 263.47 L 453.04 263.46 L 498.40 263.32 L 641.26 263.11 L 641.73 263.05 L 642.06 263.04 L 642.39 263.04 L 642.88 262.52 L 643.05 262.52 L 643.18 262.52 L 643.41 260.64 L 643.74 261.00 L 644.00 260.98 L 644.07 260.98 L 644.29 260.96 L 644.34 260.96 L 644.57 260.96 L 644.78 260.87 L 645.43 259.68 L 645.45 259.68 L 645.64 259.58 L 646.25 255.73 L 646.27 255.73 L 646.38 255.73 L 646.53 255.67 L 647.20 253.88 L 647.21 253.88 L 647.36 253.88 L 647.51 253.84 L 647.76 253.18 L 647.78 253.18 L 647.88 253.17 L 647.90 253.17 L 647.96 252.81 L 648.24 250.27 L 648.28 250.27 L 648.38 250.27 L 648.68 250.05 L 648.74 250.05 L 648.98 249.64 L 649.38 249.64 L 649.44 249.64 L 649.49 249.64 L 649.56 249.64 L 649.76 249.62 L 649.97 248.48 L 650.00 248.48"/>
	</g>
	<g id="poloto_plot2" class="poloto_plot poloto_imgs poloto_line poloto2 poloto_stroke" fill="none" stroke="black">
		<path d=" M 150.00 389.77 L 150.04 389.76 L 150.06 389.76 L 150.07 389.76 L 150.10 389.76 L 150.14 387.14 L 150.29 386.78 L 150.64 386.77 L 151.16 386.76 L 151.42 385.19 L 151.95 385.05 L 152.04 385.00 L 152.11 384.96 L 152.73 384.26 L 153.88 383.71 L 154.25 383.61 L 154.34 383.61 L 155.04 383.57 L 155.84 383.57 L 155.85 383.57 L 155.85 383.57 L 166.69 383.57 L 166.77 383.57 L 166.91 383.54 L 166.97 383.54 L 167.38 383.39 L 167.57 383.34 L 168.03 383.08 L 168.09 382.97 L 168.22 382.74 L 168.36 382.71 L 168.40 382.71 L 168.51 382.66 L 168.63 382.66 L 168.75 382.67 L 169.05 382.41 L 169.32 382.16 L 169.37 382.16 L 169.50 382.02 L 170.36 381.71 L 170.38 381.71 L 170.49 381.61 L 170.98 381.26 L 171.37 380.83 L 171.82 380.66 L 171.91 380.66 L 171.92 380.66 L 172.01 380.42 L 172.18 380.42 L 172.39 380.39 L 172.82 380.22 L 172.84 379.91 L 172.92 379.91 L 173.02 379.76 L 173.27 379.76 L 173.29 379.76 L 173.55 379.30 L 173.65 379.27 L 173.74 379.23 L 173.84 379.02 L 175.16 378.89 L 175.48 378.84 L 176.21 378.53 L 176.37 378.53 L 176.48 378.51 L 176.55 378.27 L 177.05 376.99 L 177.28 376.97 L 177.54 376.59 L 177.67 376.55 L 177.97 376.38 L 178.10 376.32 L 178.29 376.04 L 178.45 375.82 L 179.04 375.82 L 179.05 375.79 L 179.08 375.61 L 179.28 374.37 L 189.34 374.24 L 190.38 373.87 L 190.41 373.82 L 191.64 373.51 L 191.75 373.50 L 191.86 373.27 L 192.16 373.12 L 192.30 372.84 L 192.35 372.61 L 192.50 372.15 L 192.87 372.14 L 192.88 372.14 L 193.01 371.81 L 193.15 371.81 L 193.30 371.47 L 193.50 371.21 L 193.58 371.06 L 193.61 371.06 L 193.78 370.75 L 193.81 370.74 L 194.00 370.46 L 194.03 370.45 L 194.32 370.35 L 194.36 370.35 L 194.46 370.24 L 194.59 370.22 L 194.75 370.22 L 194.82 370.20 L 195.39 369.92 L 195.40 369.93 L 195.51 369.37 L 195.76 369.36 L 195.99 369.18 L 196.06 369.18 L 196.16 369.18 L 196.22 369.13 L 196.34 368.37 L 196.97 367.72 L 197.04 367.37 L 197.26 367.34 L 197.32 367.26 L 197.37 367.24 L 197.47 367.08 L 197.57 366.47 L 197.80 366.38 L 197.95 366.36 L 198.08 366.06 L 198.15 366.05 L 198.72 365.82 L 199.03 365.66 L 199.12 365.52 L 199.39 365.51 L 199.41 365.51 L 199.43 365.48 L 199.60 364.39 L 199.74 364.38 L 200.20 364.22 L 200.28 363.78 L 200.37 363.78 L 200.49 363.60 L 200.50 363.49 L 200.56 363.42 L 200.60 363.38 L 200.67 363.37 L 200.73 363.29 L 200.91 362.05 L 201.05 361.93 L 201.18 361.56 L 201.36 361.53 L 201.57 361.41 L 201.77 361.03 L 201.91 359.96 L 202.20 359.88 L 202.21 359.42 L 202.38 359.31 L 216.42 359.32 L 216.69 359.31 L 217.35 358.81 L 217.49 358.81 L 217.60 358.81 L 217.62 358.68 L 217.86 358.46 L 218.03 358.42 L 218.12 358.29 L 218.22 358.20 L 218.28 358.15 L 218.53 358.08 L 219.04 358.19 L 219.16 357.85 L 219.26 357.76 L 219.38 357.75 L 220.03 357.68 L 220.12 357.62 L 220.17 357.62 L 220.21 357.56 L 220.35 357.50 L 220.46 357.38 L 220.93 357.06 L 221.61 356.92 L 221.86 356.87 L 222.61 356.66 L 222.96 356.17 L 223.09 356.08 L 223.24 355.69 L 223.46 355.19 L 223.80 355.06 L 224.28 355.04 L 224.92 355.02 L 225.01 354.84 L 225.48 354.72 L 225.77 354.56 L 225.87 354.43 L 226.05 354.38 L 226.19 354.05 L 227.85 353.88 L 229.43 353.88 L 243.56 353.84 L 243.66 353.66 L 243.74 353.54 L 244.18 353.35 L 245.50 353.02 L 245.56 352.97 L 245.74 352.74 L 246.39 352.64 L 246.70 352.00 L 247.16 351.98 L 247.27 351.96 L 247.38 351.32 L 248.20 350.73 L 248.29 350.72 L 248.47 350.69 L 248.65 350.63 L 248.73 350.41 L 249.19 349.42 L 249.35 349.17 L 249.43 349.15 L 249.53 349.04 L 249.74 348.66 L 249.82 347.66 L 250.03 347.25 L 250.64 347.02 L 250.70 346.52 L 250.76 346.52 L 250.85 346.43 L 251.00 346.30 L 251.06 346.26 L 251.12 346.21 L 251.41 345.06 L 251.48 344.37 L 251.84 344.24 L 252.06 343.09 L 252.19 342.87 L 253.29 341.05 L 253.41 341.02 L 294.94 340.49 L 294.98 340.49 L 310.85 340.34 L 311.72 340.15 L 311.89 340.15 L 312.13 340.05 L 312.20 339.91 L 312.30 339.87 L 319.18 339.86 L 320.09 337.77 L 320.43 337.59 L 320.61 336.87 L 324.89 336.78 L 324.92 336.71 L 325.19 336.70 L 326.47 336.57 L 326.54 336.33 L 326.70 336.25 L 327.15 336.14 L 327.21 336.11 L 327.39 335.71 L 327.59 335.58 L 327.62 335.27 L 340.96 334.88 L 341.06 333.93 L 341.58 333.69 L 341.60 333.32 L 341.69 333.04 L 341.80 332.60 L 341.95 331.46 L 342.17 330.83 L 342.36 330.02 L 342.54 330.01 L 342.60 329.38 L 342.87 329.34 L 343.80 328.75 L 344.17 328.47 L 344.23 328.30 L 344.31 328.30 L 344.36 328.09 L 344.49 327.38 L 344.86 327.31 L 344.92 327.30 L 345.15 326.84 L 345.23 326.84 L 345.27 326.58 L 345.36 326.41 L 345.41 326.40 L 345.46 326.03 L 345.76 325.81 L 345.88 325.44 L 346.05 325.43 L 346.16 325.23 L 346.21 324.95 L 346.50 324.80 L 346.58 324.63 L 346.63 324.63 L 346.71 324.63 L 346.76 324.34 L 346.80 324.35 L 346.81 324.35 L 346.96 324.25 L 347.01 323.93 L 347.16 323.93 L 347.26 323.85 L 347.56 323.82 L 347.93 323.79 L 347.94 323.79 L 348.04 323.77 L 348.38 323.77 L 348.55 323.77 L 348.71 323.77 L 348.88 323.72 L 348.99 323.34 L 349.47 323.33 L 349.51 323.11 L 349.57 323.11 L 349.60 322.85 L 349.91 322.76 L 349.97 322.70 L 350.19 322.70 L 370.71 322.63 L 371.88 322.52 L 371.92 322.52 L 372.15 322.52 L 372.17 322.52 L 372.32 322.07 L 372.43 322.06 L 372.53 321.93 L 372.68 321.87 L 372.72 321.83 L 372.77 321.80 L 372.99 321.76 L 373.44 321.67 L 373.72 321.07 L 374.03 321.03 L 374.04 321.00 L 374.10 320.49 L 374.14 320.49 L 374.75 320.49 L 374.76 320.44 L 374.85 319.97 L 375.12 319.91 L 375.28 319.89 L 375.32 319.88 L 375.33 319.83 L 375.40 319.80 L 375.45 319.32 L 375.48 319.31 L 375.63 319.31 L 375.64 319.27 L 375.96 319.22 L 376.84 319.20 L 377.04 319.16 L 377.11 319.15 L 377.15 319.00 L 377.20 319.00 L 377.33 318.46 L 391.35 318.29 L 391.38 318.14 L 391.49 318.03 L 391.53 318.02 L 391.61 317.56 L 391.76 317.45 L 391.78 317.42 L 392.04 317.42 L 392.10 317.42 L 392.14 316.96 L 392.37 316.91 L 392.98 316.89 L 392.99 316.86 L 393.15 316.61 L 393.20 316.62 L 393.24 316.20 L 393.75 316.20 L 393.76 316.18 L 394.53 316.07 L 394.62 315.57 L 394.89 315.57 L 395.21 315.57 L 395.29 315.19 L 395.34 314.91 L 395.49 314.90 L 395.89 314.83 L 395.96 314.81 L 396.13 314.69 L 396.32 314.69 L 396.91 314.70 L 396.98 314.70 L 397.11 314.67 L 397.13 314.67 L 397.32 314.67 L 397.76 314.63 L 398.22 314.58 L 398.29 314.58 L 398.39 314.53 L 398.52 314.39 L 398.87 314.39 L 399.47 314.23 L 399.66 313.95 L 399.98 313.92 L 401.27 313.61 L 401.55 313.61 L 401.76 313.60 L 402.08 313.60 L 402.19 313.57 L 402.51 313.42 L 403.01 313.40 L 403.08 313.26 L 403.18 313.19 L 403.24 313.21 L 403.29 313.16 L 403.69 313.13 L 412.98 313.13 L 413.07 313.13 L 413.65 313.13 L 413.70 313.11 L 413.83 312.69 L 413.94 312.67 L 413.96 312.67 L 414.28 312.66 L 414.35 312.64 L 416.26 312.02 L 416.48 311.95 L 416.65 311.94 L 416.68 311.94 L 417.27 311.92 L 417.47 312.01 L 417.51 312.01 L 417.83 311.96 L 418.17 311.38 L 418.22 311.36 L 418.51 311.35 L 418.62 311.35 L 418.73 311.35 L 418.98 311.23 L 419.49 310.69 L 419.59 310.69 L 419.68 310.61 L 419.90 310.13 L 420.41 309.59 L 420.86 309.63 L 420.95 309.34 L 421.42 309.34 L 421.50 309.31 L 421.58 309.28 L 421.62 308.99 L 421.79 308.99 L 421.82 308.99 L 421.90 308.99 L 422.16 308.99 L 422.57 308.76 L 422.82 308.74 L 423.10 308.74 L 423.24 308.74 L 423.52 308.74 L 423.99 308.74 L 424.46 308.74 L 424.81 308.73 L 424.90 308.73 L 424.99 308.72 L 424.99 308.62 L 425.27 308.55 L 425.34 308.55 L 425.46 308.54 L 426.22 308.53 L 426.23 308.25 L 426.44 308.25 L 427.33 308.26 L 427.92 308.25 L 428.35 308.19 L 428.36 308.08 L 428.40 308.08 L 441.42 307.90 L 441.46 307.89 L 441.62 307.88 L 441.69 307.71 L 441.73 307.71 L 441.74 307.69 L 442.30 307.64 L 442.42 307.08 L 442.59 306.96 L 442.86 305.85 L 443.04 305.84 L 443.26 305.36 L 443.39 305.42 L 443.45 305.41 L 443.51 304.80 L 443.68 304.70 L 443.70 304.28 L 443.76 304.22 L 443.90 304.18 L 443.99 303.97 L 444.10 306.46 L 444.26 306.42 L 444.58 305.42 L 444.72 305.20 L 444.85 304.98 L 445.65 304.58 L 446.33 304.16 L 447.16 303.58 L 447.36 303.51 L 447.60 303.51 L 447.85 303.46 L 452.64 303.17 L 453.04 303.14 L 498.40 302.36 L 641.26 302.33 L 641.73 301.98 L 642.06 301.93 L 642.39 301.93 L 642.88 301.61 L 643.05 301.24 L 643.18 300.56 L 643.41 300.37 L 643.74 300.44 L 644.00 300.04 L 644.07 300.03 L 644.29 299.91 L 644.34 299.91 L 644.57 299.24 L 644.78 298.22 L 645.43 298.12 L 645.45 298.02 L 645.64 296.70 L 646.25 296.65 L 646.27 296.52 L 646.38 296.44 L 646.53 295.25 L 647.20 295.19 L 647.21 295.02 L 647.36 294.94 L 647.51 294.15 L 647.76 294.13 L 647.78 294.00 L 647.88 292.70 L 647.90 292.66 L 647.96 292.62 L 648.24 292.62 L 648.28 292.49 L 648.38 292.39 L 648.68 292.27 L 648.74 292.26 L 648.98 292.20 L 649.38 292.25 L 649.44 292.19 L 649.49 292.16 L 649.56 292.11 L 649.76 290.76 L 649.97 290.73 L 650.00 290.62"/>
	</g>
	<g class="poloto_legend poloto_imgs poloto_line poloto0 poloto_stroke"><line x1="680" x2="730" y1="81.25" y2="81.25"/></g>
	<g class="poloto_legend poloto_imgs poloto_line poloto1 poloto_stroke"><line x1="680" x2="730" y1="131.25" y2="131.25"/></g>
	<g class="poloto_legend poloto_imgs poloto_line poloto2 poloto_stroke"><line x1="680" x2="730" y1="181.25" y2="181.25"/></g>
	<text class="poloto_legend poloto_text poloto_line poloto0" x="675" y="100">total</text>
	<text class="poloto_legend poloto_text poloto_line poloto1" x="675" y="150">code</text>
	<text class="poloto_legend poloto_text poloto_line poloto2" x="675" y="200">docs</text>
	<text class="poloto_text poloto_name poloto_title" x="400.00" y="37.50">Workspace lines over time</text>
	<text class="poloto_text poloto_name poloto_x" x="400.00" y="640">date (JST)</text>
	<text class="poloto_text poloto_name poloto_y" x="37.50" y="250.00" transform="rotate(-90,37.50,250.00)">lines</text>
	<text class="poloto_text poloto_ticks poloto_y">
		<tspan x="135.00" y="400.00">0</tspan>
		<tspan x="135.00" y="302.70">50K</tspan>
		<tspan x="135.00" y="205.39">100K</tspan>
		<tspan x="135.00" y="108.09">150K</tspan>
	</text>
	<g class="poloto_imgs poloto_ticks poloto_y" stroke="black">
		<line x1="150.00" x2="144.00" y1="400.00" y2="400.00"/>
		<line x1="150.00" x2="144.00" y1="302.70" y2="302.70"/>
		<line x1="150.00" x2="144.00" y1="205.39" y2="205.39"/>
		<line x1="150.00" x2="144.00" y1="108.09" y2="108.09"/>
	</g>
	<g class="poloto_text poloto_ticks poloto_x">
		<text x="185.89" y="430.00" text-anchor="end" transform="rotate(-90 185.89 430.00)">2026-04-22 04:33</text>
		<text x="243.39" y="430.00" text-anchor="end" transform="rotate(-90 243.39 430.00)">2026-04-24 12:06</text>
		<text x="300.88" y="430.00" text-anchor="end" transform="rotate(-90 300.88 430.00)">2026-04-26 19:40</text>
		<text x="358.38" y="430.00" text-anchor="end" transform="rotate(-90 358.38 430.00)">2026-04-29 03:13</text>
		<text x="415.88" y="430.00" text-anchor="end" transform="rotate(-90 415.88 430.00)">2026-05-01 10:46</text>
		<text x="473.38" y="430.00" text-anchor="end" transform="rotate(-90 473.38 430.00)">2026-05-03 18:20</text>
		<text x="530.88" y="430.00" text-anchor="end" transform="rotate(-90 530.88 430.00)">2026-05-06 01:53</text>
		<text x="588.38" y="430.00" text-anchor="end" transform="rotate(-90 588.38 430.00)">2026-05-08 09:26</text>
		<text x="645.88" y="430.00" text-anchor="end" transform="rotate(-90 645.88 430.00)">2026-05-10 17:00</text>
	</g>
	<g class="poloto_imgs poloto_ticks poloto_x" stroke="black">
		<line x1="185.89" x2="185.89" y1="400.00" y2="405.00"/>
		<line x1="243.39" x2="243.39" y1="400.00" y2="405.00"/>
		<line x1="300.88" x2="300.88" y1="400.00" y2="405.00"/>
		<line x1="358.38" x2="358.38" y1="400.00" y2="405.00"/>
		<line x1="415.88" x2="415.88" y1="400.00" y2="405.00"/>
		<line x1="473.38" x2="473.38" y1="400.00" y2="405.00"/>
		<line x1="530.88" x2="530.88" y1="400.00" y2="405.00"/>
		<line x1="588.38" x2="588.38" y1="400.00" y2="405.00"/>
		<line x1="645.88" x2="645.88" y1="400.00" y2="405.00"/>
	</g>
	<path class="poloto_imgs poloto_ticks poloto_x" stroke="black" style="stroke-dasharray:7.187402610694624;stroke-dashoffset:-35.88612624298548;" d=" M 150.00 400.00 L 650.00 400.00"/>
	<path class="poloto_imgs poloto_ticks poloto_y" stroke="black" style="stroke-dasharray:9.730276729070173;stroke-dashoffset:-0;" d=" M 150.00 400.00 L 150.00 100.00"/>
</svg>

