<svg class="poloto" width="800" height="680" viewBox="0 0 800 680" xmlns="http://www.w3.org/2000/svg">
	<style>
.poloto{
  stroke-linecap:round;
  stroke-linejoin:round;
  font-family:Roboto,sans-serif;
  font-size:16px;
}
.poloto_background{fill:AliceBlue;}
.poloto_scatter{stroke-width:7}
.poloto_line{stroke-width:2}
.poloto_text{fill: black;}
.poloto_name{font-size:24px;dominant-baseline:auto;text-anchor:middle;}
.poloto_where{dominant-baseline:middle;text-anchor:start}
.poloto_text.poloto_legend{font-size:20px;dominant-baseline:middle;text-anchor:start;}
.poloto_text.poloto_ticks.poloto_y{dominant-baseline:middle;text-anchor:end}
.poloto_text.poloto_ticks.poloto_x{dominant-baseline:auto;text-anchor:middle}
.poloto_imgs.poloto_ticks{stroke: black;stroke-width:3;fill:none;stroke-dasharray:none}
.poloto_grid{stroke:gray;stroke-width:0.5}

.poloto0.poloto_stroke{stroke:blue;}
.poloto1.poloto_stroke{stroke:red;}
.poloto2.poloto_stroke{stroke:green;}
.poloto3.poloto_stroke{stroke:gold;}
.poloto4.poloto_stroke{stroke:aqua;}
.poloto5.poloto_stroke{stroke:lime;}
.poloto6.poloto_stroke{stroke:orange;}
.poloto7.poloto_stroke{stroke:chocolate;}
.poloto0.poloto_fill{fill:blue;}
.poloto1.poloto_fill{fill:red;}
.poloto2.poloto_fill{fill:green;}
.poloto3.poloto_fill{fill:gold;}
.poloto4.poloto_fill{fill:aqua;}
.poloto5.poloto_fill{fill:lime;}
.poloto6.poloto_fill{fill:orange;}
.poloto7.poloto_fill{fill:chocolate;}
	</style>
	<circle r="1e5" class="poloto_background" fill="white"/>
	<g id="poloto_plot0" class="poloto_plot poloto_imgs poloto_line poloto0 poloto_stroke" fill="none" stroke="black">
		<path d=" M 150.00 373.83 L 150.02 373.81 L 150.04 373.79 L 150.04 373.79 L 150.06 373.79 L 150.09 370.95 L 150.19 370.61 L 150.41 370.60 L 150.75 370.36 L 150.92 368.92 L 151.26 368.83 L 151.32 368.75 L 151.37 368.72 L 151.77 368.02 L 152.51 367.44 L 152.75 365.21 L 152.81 365.22 L 153.26 365.13 L 153.78 365.12 L 153.79 365.12 L 153.79 365.12 L 160.81 365.12 L 160.86 365.11 L 160.95 365.10 L 160.99 365.07 L 161.25 364.94 L 161.38 364.91 L 161.67 364.70 L 161.72 364.61 L 161.80 364.41 L 161.89 364.38 L 161.92 364.38 L 161.99 364.32 L 162.07 364.32 L 162.14 364.32 L 162.34 363.99 L 162.51 363.79 L 162.54 363.79 L 162.63 363.67 L 163.18 364.18 L 163.19 364.18 L 163.27 364.10 L 163.58 363.71 L 163.84 363.26 L 164.13 363.06 L 164.19 363.02 L 164.20 363.02 L 164.25 362.85 L 164.36 362.85 L 164.50 362.78 L 164.78 362.61 L 164.79 362.35 L 164.84 362.35 L 164.91 362.21 L 165.07 362.21 L 165.08 362.21 L 165.25 361.83 L 165.31 361.81 L 165.37 361.77 L 165.44 361.62 L 166.29 361.42 L 166.50 361.37 L 166.97 361.10 L 167.08 361.10 L 167.15 361.09 L 167.19 360.90 L 167.52 359.77 L 167.66 359.75 L 167.83 359.37 L 167.92 359.34 L 168.11 359.02 L 168.20 358.91 L 168.32 358.71 L 168.43 358.53 L 168.80 355.93 L 168.81 355.87 L 168.83 355.72 L 168.96 354.47 L 175.47 354.38 L 176.15 352.95 L 176.17 352.92 L 176.97 352.70 L 177.04 352.69 L 177.11 352.41 L 177.30 352.27 L 177.39 352.02 L 177.42 351.81 L 177.52 351.44 L 177.76 351.43 L 177.77 351.18 L 177.85 350.90 L 177.94 350.90 L 178.04 350.58 L 178.17 350.36 L 178.22 350.25 L 178.24 350.24 L 178.35 350.00 L 178.37 349.99 L 178.49 349.75 L 178.51 349.74 L 178.70 348.57 L 178.73 348.57 L 178.79 348.37 L 178.87 348.36 L 178.98 348.36 L 179.03 348.34 L 179.39 348.12 L 179.40 348.12 L 179.47 347.60 L 179.63 347.59 L 179.78 346.81 L 179.82 346.74 L 179.89 346.73 L 179.93 346.70 L 180.01 346.10 L 180.42 341.00 L 180.46 340.76 L 180.60 340.73 L 180.65 340.67 L 180.68 340.65 L 180.74 340.52 L 180.81 339.94 L 180.95 339.82 L 181.05 339.81 L 181.14 339.56 L 181.18 339.55 L 181.55 339.36 L 181.75 339.21 L 181.81 338.99 L 181.98 338.98 L 182.00 338.98 L 182.01 338.95 L 182.12 337.73 L 182.21 337.66 L 182.51 336.42 L 182.56 336.06 L 182.62 336.05 L 182.70 335.92 L 182.70 335.82 L 182.74 335.77 L 182.77 335.73 L 182.81 335.73 L 182.85 335.66 L 182.97 334.65 L 183.06 334.51 L 183.15 334.21 L 183.26 334.19 L 183.39 334.09 L 183.52 333.38 L 183.62 332.39 L 183.81 332.33 L 183.81 331.96 L 183.92 331.84 L 193.01 331.84 L 193.19 331.83 L 193.62 331.31 L 193.70 331.29 L 193.77 331.29 L 193.79 331.16 L 193.94 331.00 L 194.05 330.97 L 194.11 330.87 L 194.18 330.81 L 194.21 330.77 L 194.38 330.72 L 194.71 330.66 L 194.79 330.39 L 194.85 330.32 L 194.93 330.31 L 195.35 330.18 L 195.41 330.10 L 195.44 330.10 L 195.46 330.00 L 195.56 329.95 L 195.63 329.85 L 195.93 329.19 L 196.37 329.08 L 196.53 329.04 L 197.02 328.87 L 197.25 325.67 L 197.33 325.60 L 197.43 325.29 L 197.57 324.87 L 197.79 324.75 L 198.10 324.74 L 198.51 324.73 L 198.58 324.58 L 198.88 324.44 L 199.07 324.21 L 199.13 324.11 L 199.25 324.07 L 199.34 323.79 L 200.42 323.47 L 201.44 323.47 L 210.59 323.45 L 210.66 323.31 L 210.70 323.22 L 210.99 323.08 L 211.84 321.97 L 211.88 321.90 L 212.00 321.62 L 212.42 321.55 L 212.62 320.80 L 212.92 320.79 L 212.99 320.78 L 213.06 320.27 L 213.59 317.35 L 213.65 317.35 L 213.76 317.32 L 213.88 317.29 L 213.94 316.97 L 214.23 315.87 L 214.34 315.67 L 214.39 315.65 L 214.46 315.14 L 214.59 314.43 L 214.64 313.67 L 214.77 313.33 L 215.17 309.54 L 215.21 309.16 L 215.25 309.16 L 215.31 309.09 L 215.41 308.99 L 215.45 308.96 L 215.48 308.92 L 215.67 308.01 L 215.72 307.37 L 215.95 307.24 L 216.09 306.29 L 216.18 305.69 L 216.89 296.85 L 216.97 296.83 L 243.86 296.41 L 243.89 296.41 L 254.17 296.29 L 254.73 296.04 L 254.84 296.04 L 254.99 295.98 L 255.04 295.87 L 255.10 295.83 L 259.56 295.77 L 260.15 294.09 L 260.36 293.94 L 260.48 293.32 L 263.26 293.20 L 263.28 293.03 L 263.45 293.01 L 264.28 291.95 L 264.33 291.76 L 264.43 291.69 L 264.72 291.62 L 264.76 291.59 L 264.88 291.28 L 265.00 291.19 L 265.02 290.95 L 273.66 290.63 L 273.72 289.72 L 274.07 289.52 L 274.07 288.01 L 274.13 287.78 L 274.21 287.41 L 274.30 286.37 L 274.45 285.81 L 274.57 285.16 L 274.68 285.16 L 274.73 284.66 L 274.90 284.62 L 275.50 282.18 L 275.74 281.92 L 275.78 281.76 L 275.83 281.76 L 275.86 281.59 L 275.95 280.99 L 276.19 280.70 L 276.22 280.67 L 276.37 278.52 L 276.43 278.51 L 276.45 278.28 L 276.51 278.11 L 276.55 278.10 L 276.58 277.78 L 276.77 276.62 L 276.85 276.29 L 276.96 276.25 L 277.03 273.14 L 277.06 272.89 L 277.25 271.12 L 277.30 270.98 L 277.34 270.97 L 277.39 270.97 L 277.42 270.72 L 277.44 270.73 L 277.45 270.72 L 277.55 267.59 L 277.58 267.32 L 277.67 267.30 L 277.74 267.25 L 277.94 267.16 L 278.17 267.04 L 278.18 267.04 L 278.25 267.00 L 278.47 266.94 L 278.58 266.94 L 278.68 266.94 L 278.79 265.57 L 278.87 265.25 L 279.17 265.24 L 279.20 265.03 L 279.24 265.02 L 279.26 264.79 L 279.46 262.81 L 279.49 262.76 L 279.64 262.75 L 292.93 262.69 L 293.69 262.59 L 293.71 262.59 L 293.86 262.59 L 293.87 262.59 L 293.97 262.20 L 294.04 262.18 L 294.11 261.99 L 294.20 261.94 L 294.23 261.91 L 294.26 261.90 L 294.40 261.68 L 294.69 261.48 L 294.87 260.85 L 295.08 260.24 L 295.09 260.21 L 295.12 259.64 L 295.15 259.62 L 295.54 259.29 L 295.55 259.25 L 295.61 258.80 L 295.78 258.75 L 295.89 258.71 L 295.91 257.91 L 295.92 257.87 L 295.97 258.63 L 296.00 258.16 L 296.01 258.14 L 296.11 257.07 L 296.12 257.04 L 296.33 256.95 L 296.90 256.94 L 297.03 256.90 L 297.07 256.89 L 297.10 256.75 L 297.13 256.75 L 297.21 256.22 L 306.30 255.20 L 306.31 255.06 L 306.39 254.96 L 306.41 254.76 L 306.46 245.82 L 306.56 242.16 L 306.57 242.14 L 306.74 242.07 L 306.78 242.07 L 306.81 241.65 L 306.96 241.61 L 307.35 240.74 L 307.36 240.72 L 307.46 240.46 L 307.50 240.46 L 307.52 240.03 L 307.85 239.52 L 307.85 239.50 L 308.35 239.31 L 308.41 238.85 L 308.59 238.86 L 308.79 237.70 L 308.85 237.25 L 308.88 236.88 L 308.97 236.44 L 309.23 236.28 L 309.28 236.17 L 309.39 236.07 L 309.51 236.07 L 309.90 236.07 L 309.94 236.07 L 310.03 236.05 L 310.03 236.05 L 310.16 236.06 L 310.45 236.03 L 310.74 235.87 L 310.79 235.86 L 310.85 235.80 L 310.94 235.68 L 311.17 235.68 L 311.55 235.51 L 311.68 235.16 L 311.88 232.08 L 312.72 234.68 L 312.90 234.67 L 313.04 234.66 L 313.24 234.65 L 313.31 234.60 L 313.52 234.46 L 313.85 234.24 L 313.89 234.10 L 313.95 234.04 L 313.99 234.06 L 314.02 234.01 L 314.28 233.82 L 320.30 233.82 L 320.36 233.82 L 320.73 233.81 L 320.77 233.80 L 320.85 233.40 L 320.92 233.18 L 320.93 233.18 L 321.14 233.15 L 321.19 233.13 L 322.42 232.55 L 322.57 232.50 L 322.68 232.49 L 322.70 232.48 L 323.08 232.34 L 323.21 232.42 L 323.24 232.41 L 323.44 232.37 L 323.66 231.15 L 323.69 231.15 L 323.88 231.01 L 323.96 231.01 L 324.03 231.01 L 324.18 230.87 L 324.52 230.38 L 324.58 230.36 L 324.64 230.22 L 324.78 229.64 L 325.11 229.04 L 325.41 226.20 L 325.47 225.86 L 325.77 225.72 L 325.82 225.65 L 325.87 225.51 L 325.90 225.06 L 326.00 224.24 L 326.03 224.27 L 326.08 224.26 L 326.25 224.25 L 326.51 223.95 L 326.67 223.90 L 326.86 223.88 L 326.94 223.87 L 327.13 223.86 L 327.43 223.86 L 327.73 223.86 L 327.96 223.85 L 328.02 223.84 L 328.08 223.84 L 328.08 223.74 L 328.26 223.68 L 328.31 223.67 L 328.38 223.54 L 328.87 223.53 L 328.88 223.28 L 329.02 223.27 L 329.59 223.28 L 329.98 223.13 L 330.26 222.94 L 330.26 222.85 L 330.29 222.84 L 338.72 222.68 L 338.75 222.67 L 338.84 222.66 L 338.89 222.52 L 338.92 222.50 L 338.93 222.50 L 339.29 222.46 L 339.37 221.94 L 339.47 221.83 L 339.65 220.82 L 339.77 220.81 L 339.91 220.38 L 339.99 220.43 L 340.03 220.43 L 340.07 219.93 L 340.18 219.60 L 340.19 219.24 L 340.23 219.19 L 340.32 219.16 L 340.38 219.00 L 340.46 220.93 L 340.56 220.89 L 340.77 220.12 L 340.86 219.93 L 340.94 219.77 L 341.46 218.66 L 341.90 218.13 L 342.43 217.10 L 342.57 217.06 L 342.72 217.06 L 342.88 217.01 L 345.98 216.72 L 346.24 216.69 L 375.62 215.91 L 468.13 215.73 L 468.44 215.42 L 468.65 215.38 L 468.86 215.38 L 469.18 214.77 L 469.29 214.49 L 469.37 213.95 L 469.52 212.39 L 469.74 212.71 L 469.91 212.37 L 469.95 212.37 L 470.09 212.26 L 470.12 212.27 L 470.28 211.69 L 470.41 210.78 L 470.83 209.81 L 470.84 209.73 L 470.96 208.58 L 471.36 205.72 L 471.37 205.62 L 471.45 205.56 L 471.55 204.53 L 471.98 203.16 L 471.99 203.03 L 472.08 202.97 L 472.18 202.29 L 472.34 201.75 L 472.35 201.65 L 472.42 200.60 L 472.43 200.58 L 472.47 200.28 L 472.65 198.42 L 472.68 198.31 L 472.74 198.20 L 472.94 197.96 L 472.98 197.95 L 473.13 197.59 L 473.39 197.63 L 473.43 197.59 L 473.46 197.56 L 473.51 197.53 L 473.63 196.44 L 473.77 195.55 L 473.79 195.47 L 473.87 194.35 L 473.95 193.27 L 473.96 193.13 L 474.05 191.85 L 474.08 190.85 L 474.24 190.17 L 474.27 190.13 L 474.34 189.92 L 474.46 189.90 L 475.12 189.87 L 475.45 189.84 L 482.68 189.88 L 482.75 189.69 L 482.82 189.52 L 482.94 188.77 L 483.22 188.57 L 483.24 188.50 L 483.29 187.51 L 483.46 186.55 L 483.48 186.46 L 485.06 186.40 L 485.15 185.86 L 485.95 185.70 L 486.04 185.66 L 486.13 184.54 L 487.09 183.49 L 487.50 183.09 L 487.60 182.27 L 487.94 180.87 L 488.16 180.46 L 488.51 179.63 L 489.15 179.21 L 498.82 179.21 L 499.40 179.11 L 499.42 179.13 L 500.23 178.97 L 500.27 178.88 L 500.56 178.82 L 500.88 177.91 L 500.89 177.91 L 500.92 177.87 L 501.35 176.82 L 502.35 176.23 L 502.41 176.17 L 502.51 176.16 L 502.66 175.89 L 502.71 175.81 L 502.76 175.76 L 503.23 175.72 L 503.60 175.72 L 503.80 175.72 L 503.82 175.68 L 504.24 174.77 L 504.56 174.59 L 504.57 174.53 L 504.61 174.45 L 504.65 174.21 L 515.15 173.86 L 515.17 173.84 L 515.20 173.82 L 515.40 173.72 L 515.56 173.61 L 516.49 172.20 L 516.72 172.03 L 517.38 171.61 L 517.96 171.51 L 518.38 171.37 L 518.50 170.08 L 519.03 168.56 L 519.23 168.45 L 519.30 167.47 L 520.85 165.66 L 520.86 165.66 L 520.95 165.23 L 521.24 165.18 L 521.25 165.18 L 521.27 165.07 L 521.32 164.93 L 521.45 164.79 L 521.62 164.03 L 523.23 162.20 L 523.44 161.99 L 523.59 161.66 L 523.61 161.62 L 523.64 161.36 L 530.79 160.54 L 531.02 159.91 L 531.15 159.88 L 531.20 159.47 L 531.88 159.28 L 532.02 158.86 L 532.15 158.86 L 532.22 157.99 L 532.45 155.76 L 532.48 155.73 L 532.78 155.69 L 532.85 154.96 L 533.11 154.09 L 533.16 153.49 L 533.38 152.94 L 533.53 152.64 L 533.65 151.97 L 533.92 151.41 L 533.95 150.77 L 534.30 150.63 L 534.33 150.63 L 534.38 149.82 L 534.46 149.82 L 534.49 149.76 L 534.89 148.25 L 535.47 147.76 L 535.75 147.92 L 536.70 147.85 L 536.72 147.84 L 536.87 147.82 L 536.94 147.81 L 537.04 147.70 L 537.16 147.62 L 537.29 147.45 L 537.57 147.23 L 537.84 147.22 L 538.68 147.07 L 538.72 147.06 L 539.57 146.92 L 539.93 146.82 L 547.17 146.81 L 547.53 146.70 L 547.71 146.62 L 547.79 146.62 L 547.81 146.62 L 547.99 146.60 L 548.08 146.55 L 548.29 146.41 L 548.42 146.38 L 548.89 146.23 L 549.14 145.89 L 549.54 145.84 L 549.66 145.62 L 549.79 145.48 L 549.97 145.31 L 550.60 145.36 L 550.66 145.34 L 551.57 144.92 L 551.71 144.67 L 551.89 144.59 L 552.34 144.39 L 552.54 144.45 L 552.65 144.77 L 552.73 144.75 L 552.86 144.62 L 553.24 143.62 L 553.65 143.52 L 554.02 143.44 L 554.06 143.39 L 554.10 143.11 L 580.26 143.04 L 580.44 142.92 L 595.48 142.60 L 595.56 142.96 L 595.68 141.44 L 595.70 141.44 L 595.74 141.48 L 596.28 138.39 L 596.34 138.36 L 597.00 138.43 L 597.68 138.24 L 597.91 137.95 L 598.34 137.58 L 598.90 137.34 L 598.91 137.34 L 598.98 137.27 L 599.20 137.22 L 599.27 137.07 L 599.81 136.32 L 600.52 136.16 L 600.59 136.01 L 600.95 135.95 L 601.05 136.54 L 601.32 136.32 L 601.55 136.27 L 602.01 136.11 L 602.44 136.03 L 602.66 135.70 L 602.67 135.70 L 612.09 135.69 L 615.05 134.85 L 615.17 134.44 L 615.31 134.06 L 615.79 134.03 L 615.99 133.90 L 616.14 131.92 L 616.24 130.63 L 616.46 130.51 L 616.49 130.49 L 616.82 130.11 L 616.93 129.91 L 616.99 129.81 L 617.16 129.49 L 617.22 129.47 L 617.32 129.43 L 617.39 129.25 L 617.47 129.03 L 617.56 128.92 L 617.63 128.88 L 617.94 128.79 L 618.09 128.57 L 618.21 128.45 L 618.25 127.82 L 618.59 127.70 L 618.72 127.33 L 627.60 127.42 L 628.25 127.19 L 628.36 127.19 L 628.76 126.44 L 628.94 126.35 L 629.68 125.16 L 630.00 125.04 L 630.43 123.95 L 630.48 123.95 L 630.73 123.92 L 630.82 123.30 L 631.16 122.42 L 631.68 121.91 L 631.85 121.28 L 634.98 119.69 L 635.28 119.22 L 635.30 119.22 L 643.63 117.73 L 643.64 117.73 L 643.74 117.67 L 643.84 116.86 L 644.23 115.91 L 644.26 115.91 L 644.71 115.79 L 645.38 115.67 L 646.14 115.63 L 646.19 115.57 L 646.27 115.52 L 646.40 115.52 L 646.62 115.39 L 646.71 115.32 L 646.82 115.31 L 646.97 115.17 L 648.10 114.65 L 648.22 113.82 L 648.48 101.58 L 648.58 101.48 L 648.65 101.46 L 648.73 101.19 L 648.82 101.17 L 648.82 101.17 L 648.85 101.17 L 648.88 101.17 L 649.40 101.12 L 649.65 100.52 L 649.72 100.43 L 649.92 100.01 L 650.00 100.00"/>
	</g>
	<g id="poloto_plot1" class="poloto_plot poloto_imgs poloto_line poloto1 poloto_stroke" fill="none" stroke="black">
		<path d=" M 150.00 384.45 L 150.02 384.44 L 150.04 384.42 L 150.04 384.42 L 150.06 384.42 L 150.09 383.93 L 150.19 383.92 L 150.41 383.91 L 150.75 383.72 L 150.92 383.64 L 151.26 383.66 L 151.32 383.62 L 151.37 383.62 L 151.77 383.59 L 152.51 383.49 L 152.75 381.57 L 152.81 381.57 L 153.26 381.52 L 153.78 381.52 L 153.79 381.52 L 153.79 381.52 L 160.81 381.52 L 160.86 381.52 L 160.95 381.51 L 160.99 381.49 L 161.25 381.48 L 161.38 381.48 L 161.67 381.48 L 161.72 381.48 L 161.80 381.46 L 161.89 381.46 L 161.92 381.46 L 161.99 381.44 L 162.07 381.44 L 162.14 381.44 L 162.34 381.34 L 162.51 381.34 L 162.54 381.34 L 162.63 381.34 L 163.18 382.06 L 163.19 382.06 L 163.27 382.05 L 163.58 381.94 L 163.84 381.82 L 164.13 381.77 L 164.19 381.73 L 164.20 381.73 L 164.25 381.73 L 164.36 381.73 L 164.50 381.68 L 164.78 381.64 L 164.79 381.64 L 164.84 381.64 L 164.91 381.62 L 165.07 381.62 L 165.08 381.62 L 165.25 381.61 L 165.31 381.61 L 165.37 381.61 L 165.44 381.61 L 166.29 381.53 L 166.50 381.52 L 166.97 381.48 L 167.08 381.48 L 167.15 381.48 L 167.19 381.48 L 167.52 381.43 L 167.66 381.43 L 167.83 381.36 L 167.92 381.35 L 168.11 381.19 L 168.20 381.13 L 168.32 381.13 L 168.43 381.13 L 168.80 378.89 L 168.81 378.85 L 168.83 378.85 L 168.96 378.63 L 175.47 378.63 L 176.15 377.66 L 176.17 377.66 L 176.97 377.66 L 177.04 377.66 L 177.11 377.56 L 177.30 377.54 L 177.39 377.54 L 177.42 377.54 L 177.52 377.54 L 177.76 377.54 L 177.77 377.33 L 177.85 377.32 L 177.94 377.32 L 178.04 377.30 L 178.17 377.30 L 178.22 377.30 L 178.24 377.30 L 178.35 377.30 L 178.37 377.30 L 178.49 377.30 L 178.51 377.30 L 178.70 376.34 L 178.73 376.34 L 178.79 376.23 L 178.87 376.23 L 178.98 376.23 L 179.03 376.22 L 179.39 376.21 L 179.40 376.21 L 179.47 376.16 L 179.63 376.16 L 179.78 375.61 L 179.82 375.54 L 179.89 375.54 L 179.93 375.54 L 180.01 375.53 L 180.42 371.51 L 180.46 371.54 L 180.60 371.54 L 180.65 371.54 L 180.68 371.54 L 180.74 371.54 L 180.81 371.48 L 180.95 371.48 L 181.05 371.48 L 181.14 371.48 L 181.18 371.48 L 181.55 371.47 L 181.75 371.47 L 181.81 371.37 L 181.98 371.37 L 182.00 371.37 L 182.01 371.37 L 182.12 371.10 L 182.21 371.03 L 182.51 370.07 L 182.56 370.07 L 182.62 370.07 L 182.70 370.09 L 182.70 370.09 L 182.74 370.09 L 182.77 370.09 L 182.81 370.09 L 182.85 370.09 L 182.97 370.07 L 183.06 370.07 L 183.15 370.06 L 183.26 370.06 L 183.39 370.05 L 183.52 369.69 L 183.62 369.57 L 183.81 369.57 L 183.81 369.57 L 183.92 369.57 L 193.01 369.57 L 193.19 369.56 L 193.62 369.50 L 193.70 369.49 L 193.77 369.49 L 193.79 369.49 L 193.94 369.49 L 194.05 369.49 L 194.11 369.49 L 194.18 369.49 L 194.21 369.49 L 194.38 369.49 L 194.71 369.51 L 194.79 369.51 L 194.85 369.51 L 194.93 369.51 L 195.35 369.43 L 195.41 369.39 L 195.44 369.39 L 195.46 369.34 L 195.56 369.34 L 195.63 369.34 L 195.93 368.98 L 196.37 368.98 L 196.53 368.98 L 197.02 368.98 L 197.25 366.52 L 197.33 366.51 L 197.43 366.51 L 197.57 366.51 L 197.79 366.51 L 198.10 366.51 L 198.51 366.51 L 198.58 366.51 L 198.88 366.45 L 199.07 366.35 L 199.13 366.35 L 199.25 366.35 L 199.34 366.33 L 200.42 366.18 L 201.44 366.18 L 210.59 366.18 L 210.66 366.18 L 210.70 366.18 L 210.99 366.18 L 211.84 365.40 L 211.88 365.38 L 212.00 365.30 L 212.42 365.29 L 212.62 365.11 L 212.92 365.11 L 212.99 365.11 L 213.06 365.11 L 213.59 362.95 L 213.65 362.95 L 213.76 362.95 L 213.88 362.95 L 213.94 362.81 L 214.23 362.55 L 214.34 362.55 L 214.39 362.55 L 214.46 362.16 L 214.59 361.76 L 214.64 361.76 L 214.77 361.75 L 215.17 358.54 L 215.21 358.54 L 215.25 358.54 L 215.31 358.54 L 215.41 358.54 L 215.45 358.54 L 215.48 358.54 L 215.67 358.54 L 215.72 358.47 L 215.95 358.45 L 216.09 358.41 L 216.18 358.02 L 216.89 351.62 L 216.97 351.62 L 243.86 351.62 L 243.89 351.62 L 254.17 351.62 L 254.73 351.52 L 254.84 351.52 L 254.99 351.52 L 255.04 351.52 L 255.10 351.52 L 259.56 351.48 L 260.15 351.41 L 260.36 351.41 L 260.48 351.39 L 263.26 351.34 L 263.28 351.25 L 263.45 351.26 L 264.28 350.39 L 264.33 350.39 L 264.43 350.39 L 264.72 350.39 L 264.76 350.39 L 264.88 350.39 L 265.00 350.39 L 265.02 350.39 L 273.66 350.37 L 273.72 350.22 L 274.07 350.22 L 274.07 349.17 L 274.13 349.17 L 274.21 349.17 L 274.30 349.08 L 274.45 349.08 L 274.57 349.03 L 274.68 349.03 L 274.73 349.03 L 274.90 349.02 L 275.50 347.25 L 275.74 347.24 L 275.78 347.23 L 275.83 347.23 L 275.86 347.23 L 275.95 347.20 L 276.19 346.98 L 276.22 346.95 L 276.37 345.36 L 276.43 345.35 L 276.45 345.35 L 276.51 345.33 L 276.55 345.33 L 276.58 345.33 L 276.77 344.46 L 276.85 344.45 L 276.96 344.43 L 277.03 341.73 L 277.06 341.73 L 277.25 340.21 L 277.30 340.21 L 277.34 340.20 L 277.39 340.20 L 277.42 340.20 L 277.44 340.20 L 277.45 340.20 L 277.55 337.39 L 277.58 337.39 L 277.67 337.38 L 277.74 337.38 L 277.94 337.32 L 278.17 337.25 L 278.18 337.25 L 278.25 337.23 L 278.47 337.19 L 278.58 337.19 L 278.68 337.19 L 278.79 335.97 L 278.87 335.97 L 279.17 335.97 L 279.20 335.97 L 279.24 335.97 L 279.26 335.97 L 279.46 334.24 L 279.49 334.24 L 279.64 334.22 L 292.93 334.22 L 293.69 334.21 L 293.71 334.21 L 293.86 334.21 L 293.87 334.21 L 293.97 334.21 L 294.04 334.21 L 294.11 334.13 L 294.20 334.13 L 294.23 334.13 L 294.26 334.13 L 294.40 333.97 L 294.69 333.87 L 294.87 333.77 L 295.08 333.28 L 295.09 333.28 L 295.12 333.16 L 295.15 333.14 L 295.54 332.84 L 295.55 332.84 L 295.61 332.80 L 295.78 332.80 L 295.89 332.77 L 295.91 332.05 L 295.92 332.05 L 295.97 332.76 L 296.00 332.72 L 296.01 332.71 L 296.11 331.75 L 296.12 331.75 L 296.33 331.71 L 296.90 331.71 L 297.03 331.71 L 297.07 331.71 L 297.10 331.71 L 297.13 331.71 L 297.21 331.65 L 306.30 330.85 L 306.31 330.85 L 306.39 330.84 L 306.41 330.67 L 306.46 322.13 L 306.56 318.95 L 306.57 318.95 L 306.74 318.89 L 306.78 318.89 L 306.81 318.88 L 306.96 318.88 L 307.35 318.10 L 307.36 318.10 L 307.46 318.06 L 307.50 318.06 L 307.52 318.00 L 307.85 317.53 L 307.85 317.53 L 308.35 317.44 L 308.41 317.41 L 308.59 317.41 L 308.79 316.37 L 308.85 316.26 L 308.88 316.16 L 308.97 315.77 L 309.23 315.67 L 309.28 315.59 L 309.39 315.59 L 309.51 315.59 L 309.90 315.59 L 309.94 315.59 L 310.03 315.59 L 310.03 315.59 L 310.16 315.60 L 310.45 315.60 L 310.74 315.49 L 310.79 315.49 L 310.85 315.48 L 310.94 315.48 L 311.17 315.48 L 311.55 315.48 L 311.68 315.38 L 311.88 312.63 L 312.72 315.23 L 312.90 315.22 L 313.04 315.21 L 313.24 315.21 L 313.31 315.18 L 313.52 315.16 L 313.85 315.00 L 313.89 315.00 L 313.95 315.00 L 313.99 315.00 L 314.02 315.00 L 314.28 314.85 L 320.30 314.85 L 320.36 314.86 L 320.73 314.84 L 320.77 314.84 L 320.85 314.82 L 320.92 314.63 L 320.93 314.62 L 321.14 314.60 L 321.19 314.60 L 322.42 314.44 L 322.57 314.44 L 322.68 314.44 L 322.70 314.44 L 323.08 314.33 L 323.21 314.33 L 323.24 314.33 L 323.44 314.33 L 323.66 313.67 L 323.69 313.67 L 323.88 313.56 L 323.96 313.56 L 324.03 313.56 L 324.18 313.56 L 324.52 313.55 L 324.58 313.54 L 324.64 313.48 L 324.78 313.37 L 325.11 313.26 L 325.41 310.67 L 325.47 310.58 L 325.77 310.45 L 325.82 310.42 L 325.87 310.33 L 325.90 310.15 L 326.00 309.37 L 326.03 309.40 L 326.08 309.39 L 326.25 309.38 L 326.51 309.28 L 326.67 309.24 L 326.86 309.22 L 326.94 309.22 L 327.13 309.21 L 327.43 309.21 L 327.73 309.20 L 327.96 309.20 L 328.02 309.19 L 328.08 309.19 L 328.08 309.19 L 328.26 309.19 L 328.31 309.18 L 328.38 309.08 L 328.87 309.07 L 328.88 309.07 L 329.02 309.06 L 329.59 309.05 L 329.98 308.93 L 330.26 308.81 L 330.26 308.81 L 330.29 308.81 L 338.72 308.81 L 338.75 308.81 L 338.84 308.81 L 338.89 308.81 L 338.92 308.80 L 338.93 308.80 L 339.29 308.80 L 339.37 308.79 L 339.47 308.77 L 339.65 308.75 L 339.77 308.75 L 339.91 308.69 L 339.99 308.69 L 340.03 308.69 L 340.07 308.69 L 340.18 308.45 L 340.19 308.45 L 340.23 308.45 L 340.32 308.45 L 340.38 308.45 L 340.46 308.51 L 340.56 308.51 L 340.77 308.50 L 340.86 308.50 L 340.94 308.50 L 341.46 307.74 L 341.90 307.53 L 342.43 306.99 L 342.57 306.99 L 342.72 306.99 L 342.88 306.99 L 345.98 306.92 L 346.24 306.92 L 375.62 306.82 L 468.13 306.68 L 468.44 306.63 L 468.65 306.63 L 468.86 306.63 L 469.18 306.27 L 469.29 306.27 L 469.37 306.27 L 469.52 304.99 L 469.74 305.24 L 469.91 305.22 L 469.95 305.22 L 470.09 305.21 L 470.12 305.21 L 470.28 305.20 L 470.41 305.15 L 470.83 304.34 L 470.84 304.34 L 470.96 304.26 L 471.36 301.64 L 471.37 301.64 L 471.45 301.64 L 471.55 301.60 L 471.98 300.38 L 471.99 300.38 L 472.08 300.38 L 472.18 300.35 L 472.34 299.90 L 472.35 299.90 L 472.42 299.90 L 472.43 299.90 L 472.47 299.65 L 472.65 297.92 L 472.68 297.92 L 472.74 297.92 L 472.94 297.77 L 472.98 297.77 L 473.13 297.49 L 473.39 297.49 L 473.43 297.49 L 473.46 297.49 L 473.51 297.49 L 473.63 297.48 L 473.77 296.70 L 473.79 296.70 L 473.87 296.70 L 473.95 296.10 L 473.96 296.10 L 474.05 295.47 L 474.08 295.44 L 474.24 294.82 L 474.27 294.82 L 474.34 294.82 L 474.46 294.80 L 475.12 294.80 L 475.45 294.80 L 482.68 294.80 L 482.75 294.80 L 482.82 294.80 L 482.94 294.80 L 483.22 294.63 L 483.24 294.63 L 483.29 294.58 L 483.46 293.72 L 483.48 293.72 L 485.06 293.73 L 485.15 293.56 L 485.95 293.56 L 486.04 293.56 L 486.13 293.49 L 487.09 292.78 L 487.50 292.65 L 487.60 292.60 L 487.94 291.24 L 488.16 291.24 L 488.51 291.13 L 489.15 291.13 L 498.82 291.13 L 499.40 291.05 L 499.42 291.06 L 500.23 291.06 L 500.27 291.06 L 500.56 291.06 L 500.88 291.04 L 500.89 291.04 L 500.92 291.04 L 501.35 290.25 L 502.35 290.22 L 502.41 290.22 L 502.51 290.22 L 502.66 290.19 L 502.71 290.16 L 502.76 290.16 L 503.23 290.13 L 503.60 290.13 L 503.80 290.13 L 503.82 290.13 L 504.24 290.11 L 504.56 290.02 L 504.57 290.02 L 504.61 290.02 L 504.65 290.02 L 515.15 289.83 L 515.17 289.83 L 515.20 289.83 L 515.40 289.83 L 515.56 289.83 L 516.49 289.05 L 516.72 289.00 L 517.38 288.94 L 517.96 288.90 L 518.38 288.90 L 518.50 288.90 L 519.03 287.72 L 519.23 287.69 L 519.30 287.65 L 520.85 286.82 L 520.86 286.82 L 520.95 286.81 L 521.24 286.80 L 521.25 286.80 L 521.27 286.80 L 521.32 286.77 L 521.45 286.74 L 521.62 286.65 L 523.23 285.28 L 523.44 285.21 L 523.59 285.21 L 523.61 285.21 L 523.64 285.21 L 530.79 285.21 L 531.02 285.20 L 531.15 285.20 L 531.20 285.20 L 531.88 285.20 L 532.02 285.20 L 532.15 285.20 L 532.22 285.17 L 532.45 283.38 L 532.48 283.37 L 532.78 283.37 L 532.85 283.36 L 533.11 282.66 L 533.16 282.63 L 533.38 282.17 L 533.53 282.17 L 533.65 282.13 L 533.92 281.72 L 533.95 281.71 L 534.30 280.38 L 534.33 280.38 L 534.38 280.37 L 534.46 280.37 L 534.49 280.37 L 534.89 279.04 L 535.47 278.92 L 535.75 278.92 L 536.70 278.88 L 536.72 278.88 L 536.87 278.88 L 536.94 278.88 L 537.04 278.88 L 537.16 278.88 L 537.29 278.86 L 537.57 278.85 L 537.84 278.85 L 538.68 278.79 L 538.72 278.79 L 539.57 278.75 L 539.93 278.71 L 547.17 278.73 L 547.53 278.66 L 547.71 278.59 L 547.79 278.59 L 547.81 278.59 L 547.99 278.59 L 548.08 278.59 L 548.29 278.59 L 548.42 278.58 L 548.89 278.46 L 549.14 278.22 L 549.54 278.20 L 549.66 278.04 L 549.79 277.97 L 549.97 277.89 L 550.60 277.97 L 550.66 277.97 L 551.57 277.72 L 551.71 277.72 L 551.89 277.72 L 552.34 277.69 L 552.54 277.81 L 552.65 277.81 L 552.73 277.81 L 552.86 277.81 L 553.24 277.24 L 553.65 277.22 L 554.02 277.22 L 554.06 277.22 L 554.10 277.22 L 580.26 277.22 L 580.44 277.18 L 595.48 276.99 L 595.56 276.99 L 595.68 276.94 L 595.70 276.94 L 595.74 276.94 L 596.28 274.71 L 596.34 274.71 L 597.00 274.71 L 597.68 274.61 L 597.91 274.39 L 598.34 274.10 L 598.90 274.03 L 598.91 274.03 L 598.98 273.99 L 599.20 273.99 L 599.27 273.94 L 599.81 273.34 L 600.52 273.24 L 600.59 273.24 L 600.95 273.24 L 601.05 273.24 L 601.32 273.09 L 601.55 273.07 L 602.01 272.94 L 602.44 272.88 L 602.66 272.88 L 602.67 272.88 L 612.09 272.88 L 615.05 272.84 L 615.17 272.81 L 615.31 272.55 L 615.79 272.56 L 615.99 272.56 L 616.14 272.56 L 616.24 272.45 L 616.46 272.37 L 616.49 272.36 L 616.82 272.15 L 616.93 271.99 L 616.99 271.95 L 617.16 271.85 L 617.22 271.84 L 617.32 271.83 L 617.39 271.70 L 617.47 271.56 L 617.56 271.53 L 617.63 271.53 L 617.94 271.48 L 618.09 271.37 L 618.21 271.29 L 618.25 271.29 L 618.59 271.29 L 618.72 271.29 L 627.60 271.31 L 628.25 271.29 L 628.36 271.29 L 628.76 270.92 L 628.94 270.86 L 629.68 270.82 L 630.00 270.82 L 630.43 269.93 L 630.48 269.93 L 630.73 269.91 L 630.82 269.90 L 631.16 269.85 L 631.68 269.42 L 631.85 269.42 L 634.98 268.44 L 635.28 268.44 L 635.30 268.44 L 643.63 268.43 L 643.64 268.43 L 643.74 268.43 L 643.84 268.31 L 644.23 267.48 L 644.26 267.48 L 644.71 267.48 L 645.38 267.48 L 646.14 267.48 L 646.19 267.48 L 646.27 267.48 L 646.40 267.48 L 646.62 267.36 L 646.71 267.36 L 646.82 267.35 L 646.97 267.22 L 648.10 267.09 L 648.22 267.08 L 648.48 255.38 L 648.58 255.38 L 648.65 255.37 L 648.73 255.17 L 648.82 255.17 L 648.82 255.17 L 648.85 255.17 L 648.88 255.17 L 649.40 255.13 L 649.65 255.13 L 649.72 255.06 L 649.92 254.76 L 650.00 254.76"/>
	</g>
	<g id="poloto_plot2" class="poloto_plot poloto_imgs poloto_line poloto2 poloto_stroke" fill="none" stroke="black">
		<path d=" M 150.00 393.02 L 150.02 393.02 L 150.04 393.02 L 150.04 393.02 L 150.06 393.02 L 150.09 391.23 L 150.19 390.99 L 150.41 390.98 L 150.75 390.97 L 150.92 389.90 L 151.26 389.81 L 151.32 389.78 L 151.37 389.75 L 151.77 389.27 L 152.51 388.90 L 152.75 388.82 L 152.81 388.83 L 153.26 388.80 L 153.78 388.80 L 153.79 388.80 L 153.79 388.80 L 160.81 388.80 L 160.86 388.80 L 160.95 388.78 L 160.99 388.78 L 161.25 388.67 L 161.38 388.64 L 161.67 388.47 L 161.72 388.39 L 161.80 388.23 L 161.89 388.21 L 161.92 388.21 L 161.99 388.18 L 162.07 388.18 L 162.14 388.18 L 162.34 388.00 L 162.51 387.84 L 162.54 387.84 L 162.63 387.74 L 163.18 387.53 L 163.19 387.53 L 163.27 387.46 L 163.58 387.22 L 163.84 386.93 L 164.13 386.81 L 164.19 386.81 L 164.20 386.82 L 164.25 386.65 L 164.36 386.65 L 164.50 386.63 L 164.78 386.51 L 164.79 386.30 L 164.84 386.30 L 164.91 386.20 L 165.07 386.20 L 165.08 386.20 L 165.25 385.89 L 165.31 385.87 L 165.37 385.84 L 165.44 385.69 L 166.29 385.61 L 166.50 385.58 L 166.97 385.36 L 167.08 385.36 L 167.15 385.35 L 167.19 385.19 L 167.52 384.31 L 167.66 384.30 L 167.83 384.04 L 167.92 384.01 L 168.11 383.89 L 168.20 383.86 L 168.32 383.67 L 168.43 383.52 L 168.80 383.51 L 168.81 383.49 L 168.83 383.37 L 168.96 382.53 L 175.47 382.44 L 176.15 382.18 L 176.17 382.15 L 176.97 381.94 L 177.04 381.93 L 177.11 381.78 L 177.30 381.68 L 177.39 381.48 L 177.42 381.32 L 177.52 381.01 L 177.76 381.00 L 177.77 381.00 L 177.85 380.78 L 177.94 380.78 L 178.04 380.55 L 178.17 380.37 L 178.22 380.27 L 178.24 380.27 L 178.35 380.06 L 178.37 380.05 L 178.49 379.86 L 178.51 379.85 L 178.70 379.78 L 178.73 379.78 L 178.79 379.71 L 178.87 379.70 L 178.98 379.70 L 179.03 379.68 L 179.39 379.50 L 179.40 379.50 L 179.47 379.12 L 179.63 379.11 L 179.78 378.99 L 179.82 378.99 L 179.89 378.99 L 179.93 378.96 L 180.01 378.43 L 180.42 378.00 L 180.46 377.76 L 180.60 377.74 L 180.65 377.68 L 180.68 377.67 L 180.74 377.55 L 180.81 377.14 L 180.95 377.08 L 181.05 377.07 L 181.14 376.86 L 181.18 376.85 L 181.55 376.70 L 181.75 376.59 L 181.81 376.50 L 181.98 376.49 L 182.00 376.49 L 182.01 376.47 L 182.12 375.72 L 182.21 375.71 L 182.51 375.61 L 182.56 375.31 L 182.62 375.30 L 182.70 375.18 L 182.70 375.11 L 182.74 375.06 L 182.77 375.03 L 182.81 375.03 L 182.85 374.97 L 182.97 374.13 L 183.06 374.04 L 183.15 373.79 L 183.26 373.78 L 183.39 373.69 L 183.52 373.43 L 183.62 372.70 L 183.81 372.65 L 183.81 372.34 L 183.92 372.26 L 193.01 372.26 L 193.19 372.26 L 193.62 371.92 L 193.70 371.92 L 193.77 371.92 L 193.79 371.83 L 193.94 371.68 L 194.05 371.65 L 194.11 371.57 L 194.18 371.50 L 194.21 371.47 L 194.38 371.42 L 194.71 371.49 L 194.79 371.26 L 194.85 371.20 L 194.93 371.19 L 195.35 371.15 L 195.41 371.11 L 195.44 371.11 L 195.46 371.06 L 195.56 371.03 L 195.63 370.94 L 195.93 370.72 L 196.37 370.63 L 196.53 370.59 L 197.02 370.45 L 197.25 370.11 L 197.33 370.06 L 197.43 369.79 L 197.57 369.45 L 197.79 369.36 L 198.10 369.35 L 198.51 369.34 L 198.58 369.21 L 198.88 369.13 L 199.07 369.02 L 199.13 368.93 L 199.25 368.90 L 199.34 368.67 L 200.42 368.56 L 201.44 368.56 L 210.59 368.53 L 210.66 368.41 L 210.70 368.33 L 210.99 368.20 L 211.84 367.97 L 211.88 367.94 L 212.00 367.78 L 212.42 367.71 L 212.62 367.27 L 212.92 367.26 L 212.99 367.25 L 213.06 366.81 L 213.59 366.41 L 213.65 366.40 L 213.76 366.38 L 213.88 366.34 L 213.94 366.19 L 214.23 365.52 L 214.34 365.34 L 214.39 365.33 L 214.46 365.26 L 214.59 364.99 L 214.64 364.32 L 214.77 364.04 L 215.17 363.88 L 215.21 363.54 L 215.25 363.54 L 215.31 363.48 L 215.41 363.39 L 215.45 363.36 L 215.48 363.33 L 215.67 362.54 L 215.72 362.07 L 215.95 361.99 L 216.09 361.20 L 216.18 361.05 L 216.89 359.81 L 216.97 359.79 L 243.86 359.43 L 243.89 359.43 L 254.17 359.33 L 254.73 359.19 L 254.84 359.19 L 254.99 359.13 L 255.04 359.03 L 255.10 359.01 L 259.56 359.00 L 260.15 357.57 L 260.36 357.45 L 260.48 356.96 L 263.26 356.90 L 263.28 356.85 L 263.45 356.84 L 264.28 356.76 L 264.33 356.59 L 264.43 356.53 L 264.72 356.46 L 264.76 356.44 L 264.88 356.17 L 265.00 356.08 L 265.02 355.87 L 273.66 355.61 L 273.72 354.96 L 274.07 354.79 L 274.07 354.54 L 274.13 354.35 L 274.21 354.05 L 274.30 353.27 L 274.45 352.84 L 274.57 352.29 L 274.68 352.28 L 274.73 351.86 L 274.90 351.83 L 275.50 351.42 L 275.74 351.23 L 275.78 351.12 L 275.83 351.11 L 275.86 350.97 L 275.95 350.49 L 276.19 350.44 L 276.22 350.44 L 276.37 350.12 L 276.43 350.12 L 276.45 349.94 L 276.51 349.83 L 276.55 349.82 L 276.58 349.57 L 276.77 349.42 L 276.85 349.17 L 276.96 349.16 L 277.03 349.02 L 277.06 348.83 L 277.25 348.73 L 277.30 348.62 L 277.34 348.62 L 277.39 348.61 L 277.42 348.42 L 277.44 348.43 L 277.45 348.42 L 277.55 348.35 L 277.58 348.14 L 277.67 348.14 L 277.74 348.08 L 277.94 348.07 L 278.17 348.04 L 278.18 348.04 L 278.25 348.03 L 278.47 348.03 L 278.58 348.03 L 278.68 348.03 L 278.79 347.99 L 278.87 347.73 L 279.17 347.73 L 279.20 347.58 L 279.24 347.58 L 279.26 347.40 L 279.46 347.34 L 279.49 347.30 L 279.64 347.30 L 292.93 347.25 L 293.69 347.18 L 293.71 347.18 L 293.86 347.18 L 293.87 347.18 L 293.97 346.87 L 294.04 346.86 L 294.11 346.78 L 294.20 346.73 L 294.23 346.70 L 294.26 346.69 L 294.40 346.66 L 294.69 346.60 L 294.87 346.19 L 295.08 346.16 L 295.09 346.14 L 295.12 345.79 L 295.15 345.79 L 295.54 345.79 L 295.55 345.76 L 295.61 345.44 L 295.78 345.40 L 295.89 345.39 L 295.91 345.38 L 295.92 345.34 L 295.97 345.32 L 296.00 345.00 L 296.01 344.99 L 296.11 344.99 L 296.12 344.96 L 296.33 344.93 L 296.90 344.92 L 297.03 344.89 L 297.07 344.88 L 297.10 344.78 L 297.13 344.78 L 297.21 344.41 L 306.30 344.30 L 306.31 344.19 L 306.39 344.12 L 306.41 344.11 L 306.46 343.79 L 306.56 343.72 L 306.57 343.70 L 306.74 343.70 L 306.78 343.70 L 306.81 343.39 L 306.96 343.35 L 307.35 343.34 L 307.36 343.32 L 307.46 343.15 L 307.50 343.16 L 307.52 342.87 L 307.85 342.87 L 307.85 342.85 L 308.35 342.78 L 308.41 342.44 L 308.59 342.44 L 308.79 342.44 L 308.85 342.18 L 308.88 341.99 L 308.97 341.98 L 309.23 341.94 L 309.28 341.92 L 309.39 341.84 L 309.51 341.84 L 309.90 341.84 L 309.94 341.84 L 310.03 341.82 L 310.03 341.82 L 310.16 341.82 L 310.45 341.80 L 310.74 341.77 L 310.79 341.76 L 310.85 341.73 L 310.94 341.64 L 311.17 341.64 L 311.55 341.52 L 311.68 341.33 L 311.88 341.31 L 312.72 341.10 L 312.90 341.10 L 313.04 341.10 L 313.24 341.09 L 313.31 341.08 L 313.52 340.97 L 313.85 340.96 L 313.89 340.86 L 313.95 340.82 L 313.99 340.83 L 314.02 340.79 L 314.28 340.78 L 320.30 340.77 L 320.36 340.77 L 320.73 340.77 L 320.77 340.76 L 320.85 340.48 L 320.92 340.46 L 320.93 340.46 L 321.14 340.46 L 321.19 340.44 L 322.42 340.02 L 322.57 339.97 L 322.68 339.96 L 322.70 339.96 L 323.08 339.95 L 323.21 340.01 L 323.24 340.01 L 323.44 339.98 L 323.66 339.58 L 323.69 339.57 L 323.88 339.56 L 323.96 339.56 L 324.03 339.56 L 324.18 339.48 L 324.52 339.11 L 324.58 339.11 L 324.64 339.06 L 324.78 338.73 L 325.11 338.36 L 325.41 338.39 L 325.47 338.19 L 325.77 338.19 L 325.82 338.17 L 325.87 338.15 L 325.90 337.96 L 326.00 337.95 L 326.03 337.95 L 326.08 337.95 L 326.25 337.95 L 326.51 337.80 L 326.67 337.78 L 326.86 337.78 L 326.94 337.78 L 327.13 337.78 L 327.43 337.78 L 327.73 337.78 L 327.96 337.78 L 328.02 337.77 L 328.08 337.77 L 328.08 337.70 L 328.26 337.65 L 328.31 337.65 L 328.38 337.64 L 328.87 337.64 L 328.88 337.45 L 329.02 337.45 L 329.59 337.45 L 329.98 337.45 L 330.26 337.41 L 330.26 337.33 L 330.29 337.33 L 338.72 337.21 L 338.75 337.20 L 338.84 337.19 L 338.89 337.08 L 338.92 337.08 L 338.93 337.07 L 339.29 337.03 L 339.37 336.65 L 339.47 336.57 L 339.65 335.81 L 339.77 335.80 L 339.91 335.48 L 339.99 335.52 L 340.03 335.51 L 340.07 335.10 L 340.18 335.03 L 340.19 334.74 L 340.23 334.70 L 340.32 334.67 L 340.38 334.53 L 340.46 336.23 L 340.56 336.20 L 340.77 335.52 L 340.86 335.37 L 340.94 335.22 L 341.46 334.95 L 341.90 334.66 L 342.43 334.26 L 342.57 334.22 L 342.72 334.22 L 342.88 334.18 L 345.98 333.98 L 346.24 333.96 L 375.62 333.43 L 468.13 333.41 L 468.44 333.17 L 468.65 333.14 L 468.86 333.14 L 469.18 332.92 L 469.29 332.67 L 469.37 332.20 L 469.52 332.08 L 469.74 332.12 L 469.91 331.85 L 469.95 331.85 L 470.09 331.76 L 470.12 331.76 L 470.28 331.31 L 470.41 330.61 L 470.83 330.54 L 470.84 330.47 L 470.96 329.57 L 471.36 329.54 L 471.37 329.45 L 471.45 329.40 L 471.55 328.58 L 471.98 328.54 L 471.99 328.43 L 472.08 328.37 L 472.18 327.84 L 472.34 327.82 L 472.35 327.73 L 472.42 326.84 L 472.43 326.82 L 472.47 326.80 L 472.65 326.80 L 472.68 326.70 L 472.74 326.64 L 472.94 326.55 L 472.98 326.55 L 473.13 326.50 L 473.39 326.54 L 473.43 326.50 L 473.46 326.48 L 473.51 326.45 L 473.63 325.53 L 473.77 325.51 L 473.79 325.43 L 473.87 324.48 L 473.95 324.14 L 473.96 324.02 L 474.05 323.56 L 474.08 322.76 L 474.24 322.75 L 474.27 322.70 L 474.34 322.54 L 474.46 322.53 L 475.12 322.51 L 475.45 322.49 L 482.68 322.52 L 482.75 322.34 L 482.82 322.21 L 482.94 321.57 L 483.22 321.56 L 483.24 321.50 L 483.29 320.69 L 483.46 320.68 L 483.48 320.60 L 485.06 320.52 L 485.15 320.23 L 485.95 320.09 L 486.04 320.06 L 486.13 319.17 L 487.09 318.91 L 487.50 318.70 L 487.60 318.02 L 487.94 318.02 L 488.16 317.65 L 488.51 317.07 L 489.15 316.72 L 498.82 316.72 L 499.40 316.71 L 499.42 316.71 L 500.23 316.58 L 500.27 316.50 L 500.56 316.45 L 500.88 315.70 L 500.89 315.70 L 500.92 315.67 L 501.35 315.51 L 502.35 315.01 L 502.41 314.96 L 502.51 314.95 L 502.66 314.74 L 502.71 314.71 L 502.76 314.67 L 503.23 314.67 L 503.60 314.67 L 503.80 314.67 L 503.82 314.63 L 504.24 313.87 L 504.56 313.80 L 504.57 313.74 L 504.61 313.67 L 504.65 313.48 L 515.15 313.34 L 515.17 313.32 L 515.20 313.31 L 515.40 313.21 L 515.56 313.12 L 516.49 312.69 L 516.72 312.60 L 517.38 312.27 L 517.96 312.22 L 518.38 312.09 L 518.50 310.97 L 519.03 310.78 L 519.23 310.72 L 519.30 309.91 L 520.85 309.13 L 520.86 309.13 L 520.95 308.77 L 521.24 308.73 L 521.25 308.73 L 521.27 308.64 L 521.32 308.54 L 521.45 308.46 L 521.62 307.91 L 523.23 307.62 L 523.44 307.49 L 523.59 307.19 L 523.61 307.16 L 523.64 306.96 L 530.79 306.25 L 531.02 305.74 L 531.15 305.72 L 531.20 305.38 L 531.88 305.24 L 532.02 304.87 L 532.15 304.87 L 532.22 304.12 L 532.45 303.94 L 532.48 303.92 L 532.78 303.87 L 532.85 303.25 L 533.11 303.18 L 533.16 302.69 L 533.38 302.64 L 533.53 302.36 L 533.65 301.81 L 533.92 301.70 L 533.95 301.15 L 534.30 302.40 L 534.33 302.40 L 534.38 301.69 L 534.46 301.69 L 534.49 301.63 L 534.89 301.57 L 535.47 301.27 L 535.75 301.42 L 536.70 301.40 L 536.72 301.39 L 536.87 301.38 L 536.94 301.37 L 537.04 301.27 L 537.16 301.18 L 537.29 301.05 L 537.57 300.87 L 537.84 300.86 L 538.68 300.77 L 538.72 300.76 L 539.57 300.67 L 539.93 300.62 L 547.17 300.59 L 547.53 300.55 L 547.71 300.55 L 547.79 300.55 L 547.81 300.55 L 547.99 300.53 L 548.08 300.50 L 548.29 300.37 L 548.42 300.35 L 548.89 300.34 L 549.14 300.28 L 549.54 300.25 L 549.66 300.22 L 549.79 300.16 L 549.97 300.08 L 550.60 300.05 L 550.66 300.04 L 551.57 299.90 L 551.71 299.67 L 551.89 299.59 L 552.34 299.46 L 552.54 299.39 L 552.65 299.70 L 552.73 299.69 L 552.86 299.57 L 553.24 299.28 L 553.65 299.20 L 554.02 299.14 L 554.06 299.11 L 554.10 298.89 L 580.26 298.85 L 580.44 298.79 L 595.48 298.72 L 595.56 299.04 L 595.68 297.78 L 595.70 297.78 L 595.74 297.81 L 596.28 297.32 L 596.34 297.30 L 597.00 297.35 L 597.68 297.29 L 597.91 297.25 L 598.34 297.20 L 598.90 297.07 L 598.91 297.07 L 598.98 297.05 L 599.20 297.01 L 599.27 296.91 L 599.81 296.84 L 600.52 296.79 L 600.59 296.66 L 600.95 296.60 L 601.05 297.16 L 601.32 297.11 L 601.55 297.09 L 602.01 297.06 L 602.44 297.06 L 602.66 296.79 L 602.67 296.79 L 612.09 296.78 L 615.05 296.11 L 615.17 295.78 L 615.31 295.69 L 615.79 295.66 L 615.99 295.54 L 616.14 293.85 L 616.24 292.95 L 616.46 292.91 L 616.49 292.90 L 616.82 292.77 L 616.93 292.73 L 616.99 292.68 L 617.16 292.48 L 617.22 292.46 L 617.32 292.44 L 617.39 292.39 L 617.47 292.34 L 617.56 292.26 L 617.63 292.22 L 617.94 292.19 L 618.09 292.10 L 618.21 292.08 L 618.25 291.52 L 618.59 291.41 L 618.72 291.11 L 627.60 291.17 L 628.25 290.99 L 628.36 290.99 L 628.76 290.66 L 628.94 290.63 L 629.68 289.63 L 630.00 289.53 L 630.43 289.41 L 630.48 289.40 L 630.73 289.40 L 630.82 288.88 L 631.16 288.19 L 631.68 288.11 L 631.85 287.58 L 634.98 287.20 L 635.28 286.81 L 635.30 286.81 L 643.63 285.49 L 643.64 285.49 L 643.74 285.44 L 643.84 284.86 L 644.23 284.81 L 644.26 284.81 L 644.71 284.70 L 645.38 284.59 L 646.14 284.54 L 646.19 284.48 L 646.27 284.44 L 646.40 284.44 L 646.62 284.44 L 646.71 284.37 L 646.82 284.37 L 646.97 284.37 L 648.10 284.06 L 648.22 283.35 L 648.48 283.21 L 648.58 283.12 L 648.65 283.12 L 648.73 283.06 L 648.82 283.04 L 648.82 283.04 L 648.85 283.04 L 648.88 283.04 L 649.40 283.03 L 649.65 282.52 L 649.72 282.51 L 649.92 282.42 L 650.00 282.41"/>
	</g>
	<g class="poloto_legend poloto_imgs poloto_line poloto0 poloto_stroke"><line x1="680" x2="730" y1="81.25" y2="81.25"/></g>
	<g class="poloto_legend poloto_imgs poloto_line poloto1 poloto_stroke"><line x1="680" x2="730" y1="131.25" y2="131.25"/></g>
	<g class="poloto_legend poloto_imgs poloto_line poloto2 poloto_stroke"><line x1="680" x2="730" y1="181.25" y2="181.25"/></g>
	<text class="poloto_legend poloto_text poloto_line poloto0" x="675" y="100">total</text>
	<text class="poloto_legend poloto_text poloto_line poloto1" x="675" y="150">code</text>
	<text class="poloto_legend poloto_text poloto_line poloto2" x="675" y="200">docs</text>
	<text class="poloto_text poloto_name poloto_title" x="400.00" y="37.50">Workspace lines over time</text>
	<text class="poloto_text poloto_name poloto_x" x="400.00" y="640">date (JST)</text>
	<text class="poloto_text poloto_name poloto_y" x="37.50" y="250.00" transform="rotate(-90,37.50,250.00)">lines</text>
	<text class="poloto_text poloto_ticks poloto_y">
		<tspan x="135.00" y="400.00">0</tspan>
		<tspan x="135.00" y="333.66">50K</tspan>
		<tspan x="135.00" y="267.32">100K</tspan>
		<tspan x="135.00" y="200.99">150K</tspan>
		<tspan x="135.00" y="134.65">200K</tspan>
	</text>
	<g class="poloto_imgs poloto_ticks poloto_y" stroke="black">
		<line x1="150.00" x2="144.00" y1="400.00" y2="400.00"/>
		<line x1="150.00" x2="144.00" y1="333.66" y2="333.66"/>
		<line x1="150.00" x2="144.00" y1="267.32" y2="267.32"/>
		<line x1="150.00" x2="144.00" y1="200.99" y2="200.99"/>
		<line x1="150.00" x2="144.00" y1="134.65" y2="134.65"/>
	</g>
	<g class="poloto_text poloto_ticks poloto_x">
		<text x="210.47" y="430.00" text-anchor="end" transform="rotate(-90 210.47 430.00)">2026-04-24 12:06</text>
		<text x="303.56" y="430.00" text-anchor="end" transform="rotate(-90 303.56 430.00)">2026-04-30 07:00</text>
		<text x="396.65" y="430.00" text-anchor="end" transform="rotate(-90 396.65 430.00)">2026-05-06 01:53</text>
		<text x="489.74" y="430.00" text-anchor="end" transform="rotate(-90 489.74 430.00)">2026-05-11 20:46</text>
		<text x="582.83" y="430.00" text-anchor="end" transform="rotate(-90 582.83 430.00)">2026-05-17 15:40</text>
	</g>
	<g class="poloto_imgs poloto_ticks poloto_x" stroke="black">
		<line x1="210.47" x2="210.47" y1="400.00" y2="405.00"/>
		<line x1="303.56" x2="303.56" y1="400.00" y2="405.00"/>
		<line x1="396.65" x2="396.65" y1="400.00" y2="405.00"/>
		<line x1="489.74" x2="489.74" y1="400.00" y2="405.00"/>
		<line x1="582.83" x2="582.83" y1="400.00" y2="405.00"/>
	</g>
	<path class="poloto_imgs poloto_ticks poloto_x" stroke="black" style="stroke-dasharray:9.308868633618196;stroke-dashoffset:-60.47469272353919;" d=" M 150.00 400.00 L 650.00 400.00"/>
	<path class="poloto_imgs poloto_ticks poloto_y" stroke="black" style="stroke-dasharray:6.633763201188771;stroke-dashoffset:-0;" d=" M 150.00 400.00 L 150.00 100.00"/>
</svg>

