<svg class="poloto" width="800" height="680" viewBox="0 0 800 680" xmlns="http://www.w3.org/2000/svg">
	<style>
.poloto{
  stroke-linecap:round;
  stroke-linejoin:round;
  font-family:Roboto,sans-serif;
  font-size:16px;
}
.poloto_background{fill:AliceBlue;}
.poloto_scatter{stroke-width:7}
.poloto_line{stroke-width:2}
.poloto_text{fill: black;}
.poloto_name{font-size:24px;dominant-baseline:auto;text-anchor:middle;}
.poloto_where{dominant-baseline:middle;text-anchor:start}
.poloto_text.poloto_legend{font-size:20px;dominant-baseline:middle;text-anchor:start;}
.poloto_text.poloto_ticks.poloto_y{dominant-baseline:middle;text-anchor:end}
.poloto_text.poloto_ticks.poloto_x{dominant-baseline:auto;text-anchor:middle}
.poloto_imgs.poloto_ticks{stroke: black;stroke-width:3;fill:none;stroke-dasharray:none}
.poloto_grid{stroke:gray;stroke-width:0.5}

.poloto0.poloto_stroke{stroke:blue;}
.poloto1.poloto_stroke{stroke:red;}
.poloto2.poloto_stroke{stroke:green;}
.poloto3.poloto_stroke{stroke:gold;}
.poloto4.poloto_stroke{stroke:aqua;}
.poloto5.poloto_stroke{stroke:lime;}
.poloto6.poloto_stroke{stroke:orange;}
.poloto7.poloto_stroke{stroke:chocolate;}
.poloto0.poloto_fill{fill:blue;}
.poloto1.poloto_fill{fill:red;}
.poloto2.poloto_fill{fill:green;}
.poloto3.poloto_fill{fill:gold;}
.poloto4.poloto_fill{fill:aqua;}
.poloto5.poloto_fill{fill:lime;}
.poloto6.poloto_fill{fill:orange;}
.poloto7.poloto_fill{fill:chocolate;}
	</style>
	<circle r="1e5" class="poloto_background" fill="white"/>
	<g id="poloto_plot0" class="poloto_plot poloto_imgs poloto_line poloto0 poloto_stroke" fill="none" stroke="black">
		<path d=" M 150.00 362.05 L 150.04 362.02 L 150.06 361.99 L 150.07 361.99 L 150.10 361.99 L 150.14 357.88 L 150.29 357.38 L 150.64 357.36 L 151.16 357.02 L 151.42 354.92 L 151.95 354.79 L 152.04 354.69 L 152.11 354.64 L 152.73 353.62 L 153.88 352.79 L 154.24 349.55 L 154.34 349.56 L 155.03 349.43 L 155.84 349.42 L 155.84 349.42 L 155.85 349.42 L 166.68 349.42 L 166.76 349.41 L 166.90 349.38 L 166.96 349.35 L 167.37 349.16 L 167.56 349.11 L 168.02 348.81 L 168.08 348.68 L 168.21 348.39 L 168.35 348.34 L 168.39 348.34 L 168.50 348.26 L 168.62 348.26 L 168.74 348.26 L 169.04 347.79 L 169.31 347.49 L 169.36 347.49 L 169.49 347.31 L 170.35 348.05 L 170.36 348.05 L 170.47 347.93 L 170.97 347.38 L 171.36 346.72 L 171.80 346.43 L 171.90 346.37 L 171.91 346.38 L 171.99 346.12 L 172.16 346.12 L 172.38 346.03 L 172.80 345.78 L 172.83 345.39 L 172.91 345.39 L 173.01 345.19 L 173.25 345.19 L 173.28 345.19 L 173.53 344.64 L 173.63 344.61 L 173.73 344.57 L 173.82 344.34 L 175.14 344.05 L 175.46 343.99 L 176.20 343.59 L 176.35 343.59 L 176.47 343.58 L 176.53 343.30 L 177.04 341.66 L 177.26 341.63 L 177.52 341.08 L 177.65 341.03 L 177.96 340.58 L 178.09 340.41 L 178.27 340.12 L 178.44 339.86 L 179.02 336.10 L 179.04 336.00 L 179.07 335.78 L 179.27 333.97 L 189.32 333.84 L 190.35 331.77 L 190.39 331.72 L 191.62 331.40 L 191.73 331.39 L 191.84 330.98 L 192.14 330.78 L 192.28 330.42 L 192.33 330.12 L 192.48 329.58 L 192.84 329.57 L 192.85 329.20 L 192.99 328.80 L 193.13 328.79 L 193.28 328.34 L 193.48 328.01 L 193.56 327.85 L 193.58 327.84 L 193.76 327.49 L 193.78 327.48 L 193.97 327.13 L 194.00 327.12 L 194.29 325.42 L 194.34 325.42 L 194.44 325.13 L 194.56 325.12 L 194.73 325.12 L 194.80 325.08 L 195.36 324.76 L 195.38 324.77 L 195.49 324.02 L 195.74 324.00 L 195.96 322.86 L 196.03 322.76 L 196.14 322.76 L 196.19 322.71 L 196.32 321.83 L 196.95 314.44 L 197.02 314.08 L 197.23 314.05 L 197.30 313.96 L 197.35 313.94 L 197.45 313.74 L 197.55 312.90 L 197.77 312.73 L 197.93 312.71 L 198.06 312.34 L 198.13 312.33 L 198.69 312.06 L 199.00 311.85 L 199.10 311.52 L 199.36 311.50 L 199.38 311.50 L 199.41 311.47 L 199.57 309.70 L 199.71 309.59 L 200.17 307.80 L 200.25 307.28 L 200.34 307.26 L 200.46 307.07 L 200.48 306.93 L 200.53 306.85 L 200.57 306.80 L 200.64 306.79 L 200.70 306.70 L 200.89 305.24 L 201.02 305.02 L 201.16 304.59 L 201.34 304.56 L 201.54 304.42 L 201.74 303.39 L 201.88 301.95 L 202.18 301.87 L 202.18 301.33 L 202.35 301.15 L 216.38 301.16 L 216.65 301.14 L 217.31 300.38 L 217.45 300.36 L 217.56 300.36 L 217.58 300.17 L 217.82 299.94 L 217.99 299.90 L 218.09 299.76 L 218.18 299.66 L 218.24 299.60 L 218.49 299.53 L 219.00 299.44 L 219.13 299.05 L 219.22 298.95 L 219.34 298.94 L 219.99 298.74 L 220.08 298.63 L 220.13 298.63 L 220.17 298.48 L 220.31 298.42 L 220.42 298.27 L 220.89 297.31 L 221.57 297.16 L 221.82 297.10 L 222.57 296.85 L 222.92 292.21 L 223.05 292.11 L 223.20 291.65 L 223.42 291.04 L 223.76 290.87 L 224.24 290.85 L 224.88 290.84 L 224.97 290.63 L 225.43 290.42 L 225.73 290.08 L 225.83 289.94 L 226.01 289.89 L 226.15 289.48 L 227.81 289.02 L 229.39 289.02 L 243.51 288.98 L 243.61 288.78 L 243.69 288.65 L 244.13 288.45 L 245.45 286.85 L 245.50 286.74 L 245.69 286.33 L 246.34 286.23 L 246.65 285.14 L 247.11 285.13 L 247.22 285.11 L 247.32 284.37 L 248.14 280.14 L 248.24 280.14 L 248.41 280.10 L 248.60 280.05 L 248.68 279.59 L 249.14 278.00 L 249.30 277.70 L 249.38 277.68 L 249.48 276.94 L 249.68 275.91 L 249.77 274.80 L 249.97 274.31 L 250.59 268.82 L 250.64 268.26 L 250.70 268.26 L 250.80 268.16 L 250.95 268.02 L 251.01 267.97 L 251.07 267.91 L 251.36 266.60 L 251.43 265.67 L 251.79 265.48 L 252.00 264.10 L 252.13 263.23 L 253.23 250.42 L 253.36 250.38 L 294.86 249.77 L 294.90 249.77 L 310.77 249.60 L 311.63 249.25 L 311.81 249.25 L 312.04 249.15 L 312.12 248.99 L 312.21 248.94 L 319.09 248.85 L 320.00 246.41 L 320.33 246.19 L 320.52 245.30 L 324.80 245.12 L 324.83 244.87 L 325.09 244.85 L 326.37 243.31 L 326.45 243.03 L 326.61 242.94 L 327.06 242.83 L 327.12 242.79 L 327.30 242.33 L 327.49 242.20 L 327.52 241.86 L 340.85 241.39 L 340.95 240.08 L 341.48 239.79 L 341.49 237.59 L 341.59 237.26 L 341.70 236.73 L 341.84 235.21 L 342.07 234.41 L 342.26 233.47 L 342.43 233.46 L 342.50 232.74 L 342.77 232.67 L 343.69 229.14 L 344.06 228.76 L 344.13 228.54 L 344.21 228.53 L 344.25 228.28 L 344.38 227.41 L 344.76 227.00 L 344.81 226.94 L 345.04 223.83 L 345.13 223.82 L 345.17 223.48 L 345.25 223.23 L 345.31 223.23 L 345.36 222.76 L 345.65 221.07 L 345.78 220.59 L 345.94 220.54 L 346.05 216.03 L 346.10 215.67 L 346.39 213.10 L 346.47 212.89 L 346.53 212.89 L 346.60 212.88 L 346.65 212.52 L 346.69 212.53 L 346.71 212.53 L 346.86 207.98 L 346.91 207.58 L 347.05 207.56 L 347.15 207.48 L 347.45 207.35 L 347.82 207.18 L 347.83 207.18 L 347.93 207.12 L 348.28 207.04 L 348.44 207.04 L 348.60 207.04 L 348.77 205.06 L 348.89 204.58 L 349.36 204.57 L 349.40 204.26 L 349.46 204.26 L 349.50 203.92 L 349.81 201.05 L 349.86 200.98 L 350.09 200.96 L 370.60 200.88 L 371.77 200.73 L 371.80 200.73 L 372.03 200.73 L 372.05 200.73 L 372.20 200.16 L 372.32 200.14 L 372.41 199.86 L 372.56 199.79 L 372.60 199.75 L 372.65 199.73 L 372.87 199.41 L 373.32 199.12 L 373.60 198.20 L 373.91 197.32 L 373.92 197.28 L 373.98 196.46 L 374.02 196.43 L 374.63 195.94 L 374.64 195.89 L 374.73 195.24 L 375.00 195.16 L 375.16 195.10 L 375.20 193.94 L 375.21 193.88 L 375.28 194.99 L 375.33 194.31 L 375.36 194.28 L 375.51 192.73 L 375.52 192.68 L 375.84 192.56 L 376.72 192.53 L 376.92 192.48 L 376.99 192.47 L 377.03 192.26 L 377.08 192.26 L 377.20 191.50 L 391.23 190.01 L 391.25 189.81 L 391.37 189.67 L 391.40 189.38 L 391.48 176.42 L 391.63 171.11 L 391.65 171.07 L 391.91 170.97 L 391.97 170.97 L 392.01 170.36 L 392.24 170.30 L 392.85 169.04 L 392.86 169.02 L 393.02 168.63 L 393.07 168.64 L 393.11 168.01 L 393.61 167.28 L 393.63 167.25 L 394.40 166.96 L 394.49 166.30 L 394.76 166.31 L 395.08 164.64 L 395.16 163.98 L 395.21 163.45 L 395.36 162.80 L 395.76 162.57 L 395.83 162.41 L 396.00 162.27 L 396.19 162.27 L 396.78 162.27 L 396.85 162.27 L 396.98 162.24 L 396.99 162.23 L 397.18 162.25 L 397.63 162.22 L 398.09 161.98 L 398.16 161.97 L 398.26 161.88 L 398.39 161.70 L 398.74 161.70 L 399.34 161.47 L 399.53 160.95 L 399.85 156.48 L 401.14 160.26 L 401.42 160.24 L 401.63 160.22 L 401.95 160.21 L 402.05 160.14 L 402.37 159.93 L 402.88 159.62 L 402.95 159.42 L 403.04 159.33 L 403.10 159.35 L 403.15 159.29 L 403.55 159.01 L 412.84 159.00 L 412.93 159.01 L 413.51 158.99 L 413.56 158.97 L 413.69 158.40 L 413.80 158.08 L 413.81 158.08 L 414.13 158.03 L 414.21 158.00 L 416.12 157.16 L 416.34 157.09 L 416.50 157.07 L 416.54 157.07 L 417.13 156.87 L 417.33 156.97 L 417.37 156.96 L 417.68 156.91 L 418.03 155.14 L 418.07 155.13 L 418.36 154.93 L 418.48 154.93 L 418.59 154.93 L 418.83 154.73 L 419.35 154.02 L 419.45 153.99 L 419.54 153.79 L 419.75 152.95 L 420.26 152.07 L 420.72 147.96 L 420.81 147.46 L 421.28 147.26 L 421.36 147.16 L 421.43 146.96 L 421.48 146.30 L 421.64 145.11 L 421.68 145.16 L 421.75 145.14 L 422.02 145.13 L 422.42 144.70 L 422.67 144.62 L 422.96 144.60 L 423.09 144.58 L 423.37 144.57 L 423.84 144.57 L 424.31 144.56 L 424.67 144.55 L 424.75 144.54 L 424.84 144.53 L 424.84 144.38 L 425.12 144.30 L 425.20 144.29 L 425.31 144.11 L 426.07 144.08 L 426.08 143.72 L 426.29 143.71 L 427.18 143.72 L 427.77 143.50 L 428.20 143.24 L 428.21 143.09 L 428.25 143.09 L 441.27 142.85 L 441.31 142.84 L 441.46 142.83 L 441.53 142.62 L 441.58 142.60 L 441.58 142.58 L 442.14 142.53 L 442.26 141.78 L 442.43 141.62 L 442.71 140.15 L 442.88 140.14 L 443.11 139.51 L 443.23 139.59 L 443.29 139.58 L 443.36 138.87 L 443.52 138.38 L 443.54 137.87 L 443.60 137.80 L 443.74 137.75 L 443.83 137.51 L 443.95 140.31 L 444.11 140.26 L 444.42 139.14 L 444.56 138.87 L 444.69 138.63 L 445.49 137.03 L 446.17 136.25 L 447.00 134.77 L 447.21 134.70 L 447.44 134.70 L 447.69 134.63 L 452.48 134.21 L 452.87 134.17 L 498.22 133.04 L 640.99 132.78 L 641.47 132.32 L 641.80 132.26 L 642.12 132.26 L 642.62 131.39 L 642.79 130.97 L 642.92 130.19 L 643.14 127.93 L 643.48 128.39 L 643.74 127.90 L 643.80 127.89 L 644.02 127.75 L 644.07 127.75 L 644.31 126.92 L 644.52 125.60 L 645.16 124.19 L 645.19 124.08 L 645.37 122.40 L 645.98 118.25 L 646.00 118.11 L 646.12 118.02 L 646.27 116.54 L 646.93 114.54 L 646.95 114.36 L 647.09 114.26 L 647.24 113.28 L 647.49 112.50 L 647.51 112.35 L 647.62 110.83 L 647.64 110.80 L 647.70 110.37 L 647.98 107.67 L 648.01 107.52 L 648.11 107.36 L 648.41 107.00 L 648.47 106.99 L 648.71 106.47 L 649.11 106.53 L 649.17 106.46 L 649.22 106.43 L 649.29 106.39 L 649.49 104.80 L 649.70 103.51 L 649.73 103.39 L 649.85 101.77 L 649.97 100.20 L 650.00 100.00"/>
	</g>
	<g id="poloto_plot1" class="poloto_plot poloto_imgs poloto_line poloto1 poloto_stroke" fill="none" stroke="black">
		<path d=" M 150.00 377.45 L 150.04 377.43 L 150.06 377.41 L 150.07 377.41 L 150.10 377.41 L 150.14 376.70 L 150.29 376.67 L 150.64 376.66 L 151.16 376.39 L 151.42 376.27 L 151.95 376.30 L 152.04 376.25 L 152.11 376.25 L 152.73 376.20 L 153.88 376.06 L 154.24 373.28 L 154.34 373.28 L 155.03 373.21 L 155.84 373.20 L 155.84 373.20 L 155.85 373.20 L 166.68 373.20 L 166.76 373.20 L 166.90 373.19 L 166.96 373.16 L 167.37 373.14 L 167.56 373.14 L 168.02 373.14 L 168.08 373.14 L 168.21 373.12 L 168.35 373.12 L 168.39 373.12 L 168.50 373.09 L 168.62 373.09 L 168.74 373.09 L 169.04 372.93 L 169.31 372.93 L 169.36 372.93 L 169.49 372.93 L 170.35 373.98 L 170.36 373.98 L 170.47 373.97 L 170.97 373.81 L 171.36 373.63 L 171.80 373.56 L 171.90 373.50 L 171.91 373.50 L 171.99 373.50 L 172.16 373.50 L 172.38 373.43 L 172.80 373.37 L 172.83 373.37 L 172.91 373.37 L 173.01 373.35 L 173.25 373.35 L 173.28 373.35 L 173.53 373.34 L 173.63 373.34 L 173.73 373.34 L 173.82 373.34 L 175.14 373.21 L 175.46 373.20 L 176.20 373.15 L 176.35 373.15 L 176.47 373.15 L 176.53 373.15 L 177.04 373.06 L 177.26 373.06 L 177.52 372.96 L 177.65 372.95 L 177.96 372.72 L 178.09 372.64 L 178.27 372.64 L 178.44 372.64 L 179.02 369.38 L 179.04 369.33 L 179.07 369.33 L 179.27 369.01 L 189.32 369.01 L 190.35 367.60 L 190.39 367.60 L 191.62 367.60 L 191.73 367.60 L 191.84 367.45 L 192.14 367.43 L 192.28 367.43 L 192.33 367.43 L 192.48 367.43 L 192.84 367.43 L 192.85 367.13 L 192.99 367.11 L 193.13 367.11 L 193.28 367.08 L 193.48 367.07 L 193.56 367.07 L 193.58 367.07 L 193.76 367.07 L 193.78 367.07 L 193.97 367.07 L 194.00 367.07 L 194.29 365.69 L 194.34 365.69 L 194.44 365.53 L 194.56 365.53 L 194.73 365.53 L 194.80 365.51 L 195.36 365.51 L 195.38 365.51 L 195.49 365.42 L 195.74 365.42 L 195.96 364.63 L 196.03 364.53 L 196.14 364.53 L 196.19 364.53 L 196.32 364.51 L 196.95 358.69 L 197.02 358.73 L 197.23 358.73 L 197.30 358.73 L 197.35 358.72 L 197.45 358.72 L 197.55 358.64 L 197.77 358.64 L 197.93 358.64 L 198.06 358.64 L 198.13 358.64 L 198.69 358.63 L 199.00 358.62 L 199.10 358.48 L 199.36 358.48 L 199.38 358.48 L 199.41 358.48 L 199.57 358.08 L 199.71 357.98 L 200.17 356.60 L 200.25 356.60 L 200.34 356.60 L 200.46 356.62 L 200.48 356.62 L 200.53 356.62 L 200.57 356.62 L 200.64 356.62 L 200.70 356.62 L 200.89 356.59 L 201.02 356.59 L 201.16 356.57 L 201.34 356.57 L 201.54 356.56 L 201.74 356.05 L 201.88 355.88 L 202.18 355.88 L 202.18 355.87 L 202.35 355.87 L 216.38 355.87 L 216.65 355.86 L 217.31 355.77 L 217.45 355.76 L 217.56 355.76 L 217.58 355.76 L 217.82 355.76 L 217.99 355.76 L 218.09 355.76 L 218.18 355.76 L 218.24 355.75 L 218.49 355.75 L 219.00 355.78 L 219.13 355.78 L 219.22 355.78 L 219.34 355.78 L 219.99 355.67 L 220.08 355.62 L 220.13 355.62 L 220.17 355.54 L 220.31 355.54 L 220.42 355.54 L 220.89 355.01 L 221.57 355.01 L 221.82 355.01 L 222.57 355.01 L 222.92 351.44 L 223.05 351.44 L 223.20 351.44 L 223.42 351.43 L 223.76 351.43 L 224.24 351.43 L 224.88 351.43 L 224.97 351.43 L 225.43 351.34 L 225.73 351.20 L 225.83 351.20 L 226.01 351.20 L 226.15 351.18 L 227.81 350.95 L 229.39 350.95 L 243.51 350.95 L 243.61 350.95 L 243.69 350.95 L 244.13 350.95 L 245.45 349.83 L 245.50 349.79 L 245.69 349.67 L 246.34 349.67 L 246.65 349.40 L 247.11 349.40 L 247.22 349.40 L 247.32 349.40 L 248.14 346.27 L 248.24 346.27 L 248.41 346.27 L 248.60 346.27 L 248.68 346.07 L 249.14 345.69 L 249.30 345.69 L 249.38 345.69 L 249.48 345.12 L 249.68 344.54 L 249.77 344.54 L 249.97 344.53 L 250.59 339.87 L 250.64 339.87 L 250.70 339.87 L 250.80 339.87 L 250.95 339.87 L 251.01 339.87 L 251.07 339.87 L 251.36 339.87 L 251.43 339.77 L 251.79 339.75 L 252.00 339.68 L 252.13 339.12 L 253.23 329.84 L 253.36 329.84 L 294.86 329.84 L 294.90 329.84 L 310.77 329.84 L 311.63 329.70 L 311.81 329.70 L 312.04 329.70 L 312.12 329.70 L 312.21 329.70 L 319.09 329.63 L 320.00 329.54 L 320.33 329.54 L 320.52 329.51 L 324.80 329.43 L 324.83 329.31 L 325.09 329.31 L 326.37 328.05 L 326.45 328.05 L 326.61 328.05 L 327.06 328.05 L 327.12 328.05 L 327.30 328.05 L 327.49 328.05 L 327.52 328.05 L 340.85 328.03 L 340.95 327.81 L 341.48 327.81 L 341.49 326.29 L 341.59 326.29 L 341.70 326.29 L 341.84 326.15 L 342.07 326.15 L 342.26 326.09 L 342.43 326.09 L 342.50 326.09 L 342.77 326.07 L 343.69 323.50 L 344.06 323.49 L 344.13 323.48 L 344.21 323.48 L 344.25 323.48 L 344.38 323.44 L 344.76 323.12 L 344.81 323.07 L 345.04 320.76 L 345.13 320.75 L 345.17 320.75 L 345.25 320.72 L 345.31 320.72 L 345.36 320.71 L 345.65 319.45 L 345.78 319.44 L 345.94 319.41 L 346.05 315.50 L 346.10 315.49 L 346.39 313.29 L 346.47 313.29 L 346.53 313.29 L 346.60 313.29 L 346.65 313.29 L 346.69 313.29 L 346.71 313.29 L 346.86 309.21 L 346.91 309.21 L 347.05 309.19 L 347.15 309.19 L 347.45 309.11 L 347.82 309.00 L 347.83 309.00 L 347.93 308.97 L 348.28 308.91 L 348.44 308.91 L 348.60 308.91 L 348.77 307.15 L 348.89 307.15 L 349.36 307.14 L 349.40 307.14 L 349.46 307.14 L 349.50 307.14 L 349.81 304.63 L 349.86 304.63 L 350.09 304.61 L 370.60 304.61 L 371.77 304.60 L 371.80 304.60 L 372.03 304.60 L 372.05 304.60 L 372.20 304.60 L 372.32 304.59 L 372.41 304.47 L 372.56 304.47 L 372.60 304.47 L 372.65 304.47 L 372.87 304.24 L 373.32 304.10 L 373.60 303.95 L 373.91 303.24 L 373.92 303.24 L 373.98 303.06 L 374.02 303.04 L 374.63 302.61 L 374.64 302.61 L 374.73 302.55 L 375.00 302.55 L 375.16 302.50 L 375.20 301.46 L 375.21 301.46 L 375.28 302.49 L 375.33 302.43 L 375.36 302.42 L 375.51 301.02 L 375.52 301.02 L 375.84 300.96 L 376.72 300.96 L 376.92 300.96 L 376.99 300.96 L 377.03 300.96 L 377.08 300.96 L 377.20 300.87 L 391.23 299.71 L 391.25 299.71 L 391.37 299.71 L 391.40 299.46 L 391.48 287.07 L 391.63 282.47 L 391.65 282.47 L 391.91 282.38 L 391.97 282.38 L 392.01 282.36 L 392.24 282.36 L 392.85 281.24 L 392.86 281.24 L 393.02 281.18 L 393.07 281.18 L 393.11 281.08 L 393.61 280.41 L 393.63 280.41 L 394.40 280.27 L 394.49 280.22 L 394.76 280.23 L 395.08 278.71 L 395.16 278.56 L 395.21 278.42 L 395.36 277.85 L 395.76 277.71 L 395.83 277.58 L 396.00 277.58 L 396.19 277.58 L 396.78 277.58 L 396.85 277.58 L 396.98 277.58 L 396.99 277.58 L 397.18 277.60 L 397.63 277.60 L 398.09 277.44 L 398.16 277.44 L 398.26 277.43 L 398.39 277.43 L 398.74 277.43 L 399.34 277.43 L 399.53 277.29 L 399.85 273.29 L 401.14 277.06 L 401.42 277.05 L 401.63 277.03 L 401.95 277.03 L 402.05 276.99 L 402.37 276.97 L 402.88 276.74 L 402.95 276.74 L 403.04 276.74 L 403.10 276.74 L 403.15 276.74 L 403.55 276.52 L 412.84 276.52 L 412.93 276.52 L 413.51 276.51 L 413.56 276.51 L 413.69 276.47 L 413.80 276.19 L 413.81 276.19 L 414.13 276.16 L 414.21 276.16 L 416.12 275.93 L 416.34 275.93 L 416.50 275.93 L 416.54 275.93 L 417.13 275.76 L 417.33 275.76 L 417.37 275.76 L 417.68 275.76 L 418.03 274.81 L 418.07 274.81 L 418.36 274.65 L 418.48 274.65 L 418.59 274.65 L 418.83 274.65 L 419.35 274.64 L 419.45 274.61 L 419.54 274.52 L 419.75 274.36 L 420.26 274.22 L 420.72 270.45 L 420.81 270.32 L 421.28 270.14 L 421.36 270.10 L 421.43 269.96 L 421.48 269.70 L 421.64 268.57 L 421.68 268.62 L 421.75 268.60 L 422.02 268.59 L 422.42 268.44 L 422.67 268.38 L 422.96 268.36 L 423.09 268.35 L 423.37 268.33 L 423.84 268.33 L 424.31 268.32 L 424.67 268.32 L 424.75 268.31 L 424.84 268.31 L 424.84 268.30 L 425.12 268.30 L 425.20 268.29 L 425.31 268.15 L 426.07 268.13 L 426.08 268.13 L 426.29 268.11 L 427.18 268.11 L 427.77 267.93 L 428.20 267.76 L 428.21 267.76 L 428.25 267.76 L 441.27 267.76 L 441.31 267.76 L 441.46 267.76 L 441.53 267.76 L 441.58 267.74 L 441.58 267.74 L 442.14 267.74 L 442.26 267.73 L 442.43 267.70 L 442.71 267.67 L 442.88 267.67 L 443.11 267.59 L 443.23 267.59 L 443.29 267.59 L 443.36 267.59 L 443.52 267.24 L 443.54 267.24 L 443.60 267.24 L 443.74 267.24 L 443.83 267.24 L 443.95 267.32 L 444.11 267.32 L 444.42 267.31 L 444.56 267.31 L 444.69 267.31 L 445.49 266.20 L 446.17 265.90 L 447.00 265.11 L 447.21 265.11 L 447.44 265.11 L 447.69 265.11 L 452.48 265.01 L 452.87 265.01 L 498.22 264.87 L 640.99 264.66 L 641.47 264.60 L 641.80 264.59 L 642.12 264.59 L 642.62 264.08 L 642.79 264.08 L 642.92 264.08 L 643.14 262.22 L 643.48 262.58 L 643.74 262.55 L 643.80 262.55 L 644.02 262.54 L 644.07 262.54 L 644.31 262.53 L 644.52 262.44 L 645.16 261.27 L 645.19 261.27 L 645.37 261.17 L 645.98 257.37 L 646.00 257.37 L 646.12 257.36 L 646.27 257.30 L 646.93 255.53 L 646.95 255.53 L 647.09 255.53 L 647.24 255.49 L 647.49 254.84 L 647.51 254.84 L 647.62 254.84 L 647.64 254.84 L 647.70 254.48 L 647.98 251.96 L 648.01 251.96 L 648.11 251.96 L 648.41 251.75 L 648.47 251.75 L 648.71 251.34 L 649.11 251.34 L 649.17 251.34 L 649.22 251.34 L 649.29 251.34 L 649.49 251.33 L 649.70 250.19 L 649.73 250.19 L 649.85 250.19 L 649.97 249.33 L 650.00 249.33"/>
	</g>
	<g id="poloto_plot2" class="poloto_plot poloto_imgs poloto_line poloto2 poloto_stroke" fill="none" stroke="black">
		<path d=" M 150.00 389.88 L 150.04 389.87 L 150.06 389.87 L 150.07 389.87 L 150.10 389.87 L 150.14 387.28 L 150.29 386.93 L 150.64 386.92 L 151.16 386.90 L 151.42 385.36 L 151.95 385.22 L 152.04 385.17 L 152.11 385.13 L 152.73 384.44 L 153.88 383.90 L 154.24 383.79 L 154.34 383.80 L 155.03 383.76 L 155.84 383.76 L 155.84 383.76 L 155.85 383.76 L 166.68 383.76 L 166.76 383.75 L 166.90 383.73 L 166.96 383.73 L 167.37 383.57 L 167.56 383.53 L 168.02 383.28 L 168.08 383.17 L 168.21 382.94 L 168.35 382.91 L 168.39 382.90 L 168.50 382.86 L 168.62 382.86 L 168.74 382.86 L 169.04 382.60 L 169.31 382.36 L 169.36 382.37 L 169.49 382.23 L 170.35 381.91 L 170.36 381.91 L 170.47 381.82 L 170.97 381.47 L 171.36 381.05 L 171.80 380.88 L 171.90 380.88 L 171.91 380.88 L 171.99 380.64 L 172.16 380.64 L 172.38 380.62 L 172.80 380.44 L 172.83 380.14 L 172.91 380.14 L 173.01 379.99 L 173.25 379.99 L 173.28 379.99 L 173.53 379.53 L 173.63 379.51 L 173.73 379.47 L 173.82 379.26 L 175.14 379.13 L 175.46 379.08 L 176.20 378.77 L 176.35 378.77 L 176.47 378.75 L 176.53 378.52 L 177.04 377.25 L 177.26 377.23 L 177.52 376.85 L 177.65 376.82 L 177.96 376.64 L 178.09 376.59 L 178.27 376.32 L 178.44 376.09 L 179.02 376.09 L 179.04 376.06 L 179.07 375.88 L 179.27 374.66 L 189.32 374.53 L 190.35 374.16 L 190.39 374.11 L 191.62 373.81 L 191.73 373.80 L 191.84 373.58 L 192.14 373.43 L 192.28 373.15 L 192.33 372.92 L 192.48 372.46 L 192.84 372.45 L 192.85 372.45 L 192.99 372.13 L 193.13 372.13 L 193.28 371.80 L 193.48 371.53 L 193.56 371.39 L 193.58 371.38 L 193.76 371.08 L 193.78 371.07 L 193.97 370.79 L 194.00 370.78 L 194.29 370.68 L 194.34 370.68 L 194.44 370.58 L 194.56 370.56 L 194.73 370.56 L 194.80 370.54 L 195.36 370.26 L 195.38 370.27 L 195.49 369.72 L 195.74 369.70 L 195.96 369.53 L 196.03 369.53 L 196.14 369.53 L 196.19 369.48 L 196.32 368.73 L 196.95 368.09 L 197.02 367.74 L 197.23 367.71 L 197.30 367.63 L 197.35 367.61 L 197.45 367.45 L 197.55 366.85 L 197.77 366.76 L 197.93 366.74 L 198.06 366.44 L 198.13 366.43 L 198.69 366.21 L 199.00 366.05 L 199.10 365.91 L 199.36 365.90 L 199.38 365.90 L 199.41 365.87 L 199.57 364.79 L 199.71 364.78 L 200.17 364.62 L 200.25 364.19 L 200.34 364.19 L 200.46 364.01 L 200.48 363.91 L 200.53 363.83 L 200.57 363.79 L 200.64 363.79 L 200.70 363.70 L 200.89 362.48 L 201.02 362.36 L 201.16 361.99 L 201.34 361.97 L 201.54 361.85 L 201.74 361.47 L 201.88 360.41 L 202.18 360.33 L 202.18 359.88 L 202.35 359.77 L 216.38 359.78 L 216.65 359.77 L 217.31 359.28 L 217.45 359.28 L 217.56 359.28 L 217.58 359.14 L 217.82 358.93 L 217.99 358.89 L 218.09 358.76 L 218.18 358.67 L 218.24 358.63 L 218.49 358.56 L 219.00 358.66 L 219.13 358.33 L 219.22 358.24 L 219.34 358.23 L 219.99 358.16 L 220.08 358.10 L 220.13 358.10 L 220.17 358.04 L 220.31 357.98 L 220.42 357.86 L 220.89 357.54 L 221.57 357.41 L 221.82 357.35 L 222.57 357.15 L 222.92 356.66 L 223.05 356.58 L 223.20 356.19 L 223.42 355.70 L 223.76 355.56 L 224.24 355.55 L 224.88 355.53 L 224.97 355.35 L 225.43 355.23 L 225.73 355.07 L 225.83 354.94 L 226.01 354.90 L 226.15 354.57 L 227.81 354.40 L 229.39 354.40 L 243.51 354.37 L 243.61 354.19 L 243.69 354.07 L 244.13 353.88 L 245.45 353.55 L 245.50 353.51 L 245.69 353.27 L 246.34 353.18 L 246.65 352.54 L 247.11 352.52 L 247.22 352.50 L 247.32 351.87 L 248.14 351.28 L 248.24 351.28 L 248.41 351.24 L 248.60 351.19 L 248.68 350.97 L 249.14 349.99 L 249.30 349.74 L 249.38 349.72 L 249.48 349.62 L 249.68 349.24 L 249.77 348.25 L 249.97 347.85 L 250.59 347.62 L 250.64 347.13 L 250.70 347.13 L 250.80 347.04 L 250.95 346.90 L 251.01 346.87 L 251.07 346.82 L 251.36 345.68 L 251.43 345.00 L 251.79 344.87 L 252.00 343.73 L 252.13 343.51 L 253.23 341.72 L 253.36 341.69 L 294.86 341.16 L 294.90 341.16 L 310.77 341.01 L 311.63 340.82 L 311.81 340.82 L 312.04 340.73 L 312.12 340.59 L 312.21 340.55 L 319.09 340.54 L 320.00 338.48 L 320.33 338.30 L 320.52 337.58 L 324.80 337.50 L 324.83 337.43 L 325.09 337.41 L 326.37 337.29 L 326.45 337.05 L 326.61 336.97 L 327.06 336.86 L 327.12 336.83 L 327.30 336.43 L 327.49 336.31 L 327.52 336.01 L 340.85 335.62 L 340.95 334.68 L 341.48 334.44 L 341.49 334.08 L 341.59 333.80 L 341.70 333.37 L 341.84 332.23 L 342.07 331.61 L 342.26 330.81 L 342.43 330.80 L 342.50 330.18 L 342.77 330.14 L 343.69 329.55 L 344.06 329.28 L 344.13 329.11 L 344.21 329.11 L 344.25 328.90 L 344.38 328.20 L 344.76 328.13 L 344.81 328.13 L 345.04 327.67 L 345.13 327.67 L 345.17 327.41 L 345.25 327.24 L 345.31 327.24 L 345.36 326.87 L 345.65 326.65 L 345.78 326.29 L 345.94 326.27 L 346.05 326.08 L 346.10 325.80 L 346.39 325.65 L 346.47 325.49 L 346.53 325.49 L 346.60 325.48 L 346.65 325.20 L 346.69 325.21 L 346.71 325.20 L 346.86 325.10 L 346.91 324.79 L 347.05 324.79 L 347.15 324.71 L 347.45 324.69 L 347.82 324.65 L 347.83 324.65 L 347.93 324.63 L 348.28 324.63 L 348.44 324.63 L 348.60 324.63 L 348.77 324.58 L 348.89 324.20 L 349.36 324.20 L 349.40 323.98 L 349.46 323.98 L 349.50 323.72 L 349.81 323.63 L 349.86 323.57 L 350.09 323.57 L 370.60 323.51 L 371.77 323.40 L 371.80 323.40 L 372.03 323.40 L 372.05 323.40 L 372.20 322.96 L 372.32 322.94 L 372.41 322.82 L 372.56 322.75 L 372.60 322.71 L 372.65 322.69 L 372.87 322.65 L 373.32 322.56 L 373.60 321.96 L 373.91 321.93 L 373.92 321.89 L 373.98 321.39 L 374.02 321.39 L 374.63 321.39 L 374.64 321.34 L 374.73 320.88 L 375.00 320.82 L 375.16 320.80 L 375.20 320.79 L 375.21 320.74 L 375.28 320.70 L 375.33 320.23 L 375.36 320.22 L 375.51 320.22 L 375.52 320.18 L 375.84 320.14 L 376.72 320.12 L 376.92 320.08 L 376.99 320.07 L 377.03 319.92 L 377.08 319.92 L 377.20 319.38 L 391.23 319.22 L 391.25 319.07 L 391.37 318.96 L 391.40 318.94 L 391.48 318.49 L 391.63 318.38 L 391.65 318.35 L 391.91 318.35 L 391.97 318.35 L 392.01 317.90 L 392.24 317.85 L 392.85 317.83 L 392.86 317.80 L 393.02 317.56 L 393.07 317.56 L 393.11 317.15 L 393.61 317.15 L 393.63 317.12 L 394.40 317.02 L 394.49 316.52 L 394.76 316.52 L 395.08 316.52 L 395.16 316.15 L 395.21 315.87 L 395.36 315.86 L 395.76 315.80 L 395.83 315.78 L 396.00 315.66 L 396.19 315.66 L 396.78 315.66 L 396.85 315.66 L 396.98 315.63 L 396.99 315.63 L 397.18 315.63 L 397.63 315.60 L 398.09 315.55 L 398.16 315.55 L 398.26 315.50 L 398.39 315.36 L 398.74 315.36 L 399.34 315.20 L 399.53 314.92 L 399.85 314.89 L 401.14 314.59 L 401.42 314.59 L 401.63 314.58 L 401.95 314.57 L 402.05 314.55 L 402.37 314.40 L 402.88 314.38 L 402.95 314.24 L 403.04 314.17 L 403.10 314.19 L 403.15 314.14 L 403.55 314.12 L 412.84 314.11 L 412.93 314.11 L 413.51 314.11 L 413.56 314.09 L 413.69 313.68 L 413.80 313.66 L 413.81 313.66 L 414.13 313.65 L 414.21 313.63 L 416.12 313.02 L 416.34 312.95 L 416.50 312.94 L 416.54 312.93 L 417.13 312.92 L 417.33 313.01 L 417.37 313.00 L 417.68 312.96 L 418.03 312.38 L 418.07 312.37 L 418.36 312.35 L 418.48 312.35 L 418.59 312.35 L 418.83 312.23 L 419.35 311.70 L 419.45 311.70 L 419.54 311.63 L 419.75 311.15 L 420.26 310.61 L 420.72 310.65 L 420.81 310.37 L 421.28 310.37 L 421.36 310.33 L 421.43 310.30 L 421.48 310.02 L 421.64 310.02 L 421.68 310.02 L 421.75 310.02 L 422.02 310.02 L 422.42 309.79 L 422.67 309.77 L 422.96 309.77 L 423.09 309.77 L 423.37 309.77 L 423.84 309.77 L 424.31 309.77 L 424.67 309.77 L 424.75 309.76 L 424.84 309.75 L 424.84 309.65 L 425.12 309.59 L 425.20 309.59 L 425.31 309.57 L 426.07 309.56 L 426.08 309.29 L 426.29 309.29 L 427.18 309.30 L 427.77 309.29 L 428.20 309.23 L 428.21 309.12 L 428.25 309.12 L 441.27 308.94 L 441.31 308.93 L 441.46 308.92 L 441.53 308.75 L 441.58 308.75 L 441.58 308.74 L 442.14 308.69 L 442.26 308.13 L 442.43 308.01 L 442.71 306.91 L 442.88 306.90 L 443.11 306.43 L 443.23 306.49 L 443.29 306.48 L 443.36 305.88 L 443.52 305.78 L 443.54 305.36 L 443.60 305.30 L 443.74 305.26 L 443.83 305.06 L 443.95 307.52 L 444.11 307.48 L 444.42 306.49 L 444.56 306.27 L 444.69 306.05 L 445.49 305.66 L 446.17 305.25 L 447.00 304.67 L 447.21 304.60 L 447.44 304.60 L 447.69 304.55 L 452.48 304.26 L 452.87 304.23 L 498.22 303.46 L 640.99 303.44 L 641.47 303.09 L 641.80 303.04 L 642.12 303.04 L 642.62 302.72 L 642.79 302.36 L 642.92 301.68 L 643.14 301.50 L 643.48 301.56 L 643.74 301.17 L 643.80 301.16 L 644.02 301.04 L 644.07 301.04 L 644.31 300.38 L 644.52 299.37 L 645.16 299.28 L 645.19 299.17 L 645.37 297.87 L 645.98 297.82 L 646.00 297.69 L 646.12 297.62 L 646.27 296.43 L 646.93 296.38 L 646.95 296.21 L 647.09 296.13 L 647.24 295.35 L 647.49 295.33 L 647.51 295.20 L 647.62 293.91 L 647.64 293.88 L 647.70 293.84 L 647.98 293.84 L 648.01 293.70 L 648.11 293.61 L 648.41 293.49 L 648.47 293.48 L 648.71 293.42 L 649.11 293.47 L 649.17 293.41 L 649.22 293.38 L 649.29 293.34 L 649.49 292.00 L 649.70 291.97 L 649.73 291.86 L 649.85 290.49 L 649.97 289.99 L 650.00 289.81"/>
	</g>
	<g class="poloto_legend poloto_imgs poloto_line poloto0 poloto_stroke"><line x1="680" x2="730" y1="81.25" y2="81.25"/></g>
	<g class="poloto_legend poloto_imgs poloto_line poloto1 poloto_stroke"><line x1="680" x2="730" y1="131.25" y2="131.25"/></g>
	<g class="poloto_legend poloto_imgs poloto_line poloto2 poloto_stroke"><line x1="680" x2="730" y1="181.25" y2="181.25"/></g>
	<text class="poloto_legend poloto_text poloto_line poloto0" x="675" y="100">total</text>
	<text class="poloto_legend poloto_text poloto_line poloto1" x="675" y="150">code</text>
	<text class="poloto_legend poloto_text poloto_line poloto2" x="675" y="200">docs</text>
	<text class="poloto_text poloto_name poloto_title" x="400.00" y="37.50">Workspace lines over time</text>
	<text class="poloto_text poloto_name poloto_x" x="400.00" y="640">date (JST)</text>
	<text class="poloto_text poloto_name poloto_y" x="37.50" y="250.00" transform="rotate(-90,37.50,250.00)">lines</text>
	<text class="poloto_text poloto_ticks poloto_y">
		<tspan x="135.00" y="400.00">0</tspan>
		<tspan x="135.00" y="303.80">50K</tspan>
		<tspan x="135.00" y="207.60">100K</tspan>
		<tspan x="135.00" y="111.39">150K</tspan>
	</text>
	<g class="poloto_imgs poloto_ticks poloto_y" stroke="black">
		<line x1="150.00" x2="144.00" y1="400.00" y2="400.00"/>
		<line x1="150.00" x2="144.00" y1="303.80" y2="303.80"/>
		<line x1="150.00" x2="144.00" y1="207.60" y2="207.60"/>
		<line x1="150.00" x2="144.00" y1="111.39" y2="111.39"/>
	</g>
	<g class="poloto_text poloto_ticks poloto_x">
		<text x="185.87" y="430.00" text-anchor="end" transform="rotate(-90 185.87 430.00)">2026-04-22 04:33</text>
		<text x="243.34" y="430.00" text-anchor="end" transform="rotate(-90 243.34 430.00)">2026-04-24 12:06</text>
		<text x="300.80" y="430.00" text-anchor="end" transform="rotate(-90 300.80 430.00)">2026-04-26 19:40</text>
		<text x="358.27" y="430.00" text-anchor="end" transform="rotate(-90 358.27 430.00)">2026-04-29 03:13</text>
		<text x="415.74" y="430.00" text-anchor="end" transform="rotate(-90 415.74 430.00)">2026-05-01 10:46</text>
		<text x="473.21" y="430.00" text-anchor="end" transform="rotate(-90 473.21 430.00)">2026-05-03 18:20</text>
		<text x="530.68" y="430.00" text-anchor="end" transform="rotate(-90 530.68 430.00)">2026-05-06 01:53</text>
		<text x="588.15" y="430.00" text-anchor="end" transform="rotate(-90 588.15 430.00)">2026-05-08 09:26</text>
		<text x="645.61" y="430.00" text-anchor="end" transform="rotate(-90 645.61 430.00)">2026-05-10 17:00</text>
	</g>
	<g class="poloto_imgs poloto_ticks poloto_x" stroke="black">
		<line x1="185.87" x2="185.87" y1="400.00" y2="405.00"/>
		<line x1="243.34" x2="243.34" y1="400.00" y2="405.00"/>
		<line x1="300.80" x2="300.80" y1="400.00" y2="405.00"/>
		<line x1="358.27" x2="358.27" y1="400.00" y2="405.00"/>
		<line x1="415.74" x2="415.74" y1="400.00" y2="405.00"/>
		<line x1="473.21" x2="473.21" y1="400.00" y2="405.00"/>
		<line x1="530.68" x2="530.68" y1="400.00" y2="405.00"/>
		<line x1="588.15" x2="588.15" y1="400.00" y2="405.00"/>
		<line x1="645.61" x2="645.61" y1="400.00" y2="405.00"/>
	</g>
	<path class="poloto_imgs poloto_ticks poloto_x" stroke="black" style="stroke-dasharray:7.183561253364781;stroke-dashoffset:-35.86694665317191;" d=" M 150.00 400.00 L 650.00 400.00"/>
	<path class="poloto_imgs poloto_ticks poloto_y" stroke="black" style="stroke-dasharray:9.620194712740986;stroke-dashoffset:-0;" d=" M 150.00 400.00 L 150.00 100.00"/>
</svg>

