<svg class="poloto" width="800" height="680" viewBox="0 0 800 680" xmlns="http://www.w3.org/2000/svg">
	<style>
.poloto{
  stroke-linecap:round;
  stroke-linejoin:round;
  font-family:Roboto,sans-serif;
  font-size:16px;
}
.poloto_background{fill:AliceBlue;}
.poloto_scatter{stroke-width:7}
.poloto_line{stroke-width:2}
.poloto_text{fill: black;}
.poloto_name{font-size:24px;dominant-baseline:auto;text-anchor:middle;}
.poloto_where{dominant-baseline:middle;text-anchor:start}
.poloto_text.poloto_legend{font-size:20px;dominant-baseline:middle;text-anchor:start;}
.poloto_text.poloto_ticks.poloto_y{dominant-baseline:middle;text-anchor:end}
.poloto_text.poloto_ticks.poloto_x{dominant-baseline:auto;text-anchor:middle}
.poloto_imgs.poloto_ticks{stroke: black;stroke-width:3;fill:none;stroke-dasharray:none}
.poloto_grid{stroke:gray;stroke-width:0.5}

.poloto0.poloto_stroke{stroke:blue;}
.poloto1.poloto_stroke{stroke:red;}
.poloto2.poloto_stroke{stroke:green;}
.poloto3.poloto_stroke{stroke:gold;}
.poloto4.poloto_stroke{stroke:aqua;}
.poloto5.poloto_stroke{stroke:lime;}
.poloto6.poloto_stroke{stroke:orange;}
.poloto7.poloto_stroke{stroke:chocolate;}
.poloto0.poloto_fill{fill:blue;}
.poloto1.poloto_fill{fill:red;}
.poloto2.poloto_fill{fill:green;}
.poloto3.poloto_fill{fill:gold;}
.poloto4.poloto_fill{fill:aqua;}
.poloto5.poloto_fill{fill:lime;}
.poloto6.poloto_fill{fill:orange;}
.poloto7.poloto_fill{fill:chocolate;}
	</style>
	<circle r="1e5" class="poloto_background" fill="white"/>
	<g id="poloto_plot0" class="poloto_plot poloto_imgs poloto_line poloto0 poloto_stroke" fill="none" stroke="black">
		<path d=" M 150.00 368.26 L 150.03 368.23 L 150.05 368.22 L 150.06 368.22 L 150.08 368.22 L 150.12 364.77 L 150.25 364.36 L 150.54 364.34 L 150.98 364.05 L 151.20 362.30 L 151.65 362.19 L 151.72 362.10 L 151.78 362.06 L 152.30 361.21 L 153.28 360.51 L 153.58 357.81 L 153.66 357.81 L 154.25 357.71 L 154.93 357.70 L 154.94 357.70 L 154.94 357.70 L 164.09 357.70 L 164.16 357.69 L 164.28 357.67 L 164.32 357.64 L 164.67 357.48 L 164.83 357.44 L 165.22 357.19 L 165.27 357.08 L 165.38 356.83 L 165.50 356.80 L 165.53 356.79 L 165.63 356.73 L 165.73 356.73 L 165.83 356.73 L 166.08 356.33 L 166.31 356.08 L 166.35 356.09 L 166.46 355.94 L 167.19 356.56 L 167.20 356.56 L 167.29 356.45 L 167.71 355.99 L 168.04 355.44 L 168.42 355.20 L 168.50 355.15 L 168.51 355.15 L 168.58 354.94 L 168.72 354.94 L 168.90 354.86 L 169.26 354.65 L 169.28 354.33 L 169.35 354.33 L 169.44 354.16 L 169.64 354.16 L 169.66 354.16 L 169.88 353.70 L 169.96 353.68 L 170.04 353.64 L 170.12 353.45 L 171.24 353.20 L 171.51 353.15 L 172.13 352.83 L 172.26 352.83 L 172.36 352.81 L 172.41 352.58 L 172.84 351.21 L 173.03 351.18 L 173.25 350.73 L 173.36 350.68 L 173.61 350.30 L 173.73 350.17 L 173.88 349.92 L 174.02 349.71 L 174.51 346.56 L 174.53 346.48 L 174.55 346.29 L 174.72 344.78 L 183.21 344.67 L 184.09 342.94 L 184.12 342.90 L 185.16 342.63 L 185.24 342.62 L 185.34 342.28 L 185.59 342.11 L 185.71 341.81 L 185.75 341.56 L 185.88 341.10 L 186.19 341.10 L 186.20 340.79 L 186.31 340.45 L 186.43 340.45 L 186.56 340.07 L 186.73 339.80 L 186.79 339.66 L 186.81 339.65 L 186.96 339.36 L 186.98 339.35 L 187.14 339.06 L 187.17 339.05 L 187.41 337.62 L 187.45 337.62 L 187.54 337.39 L 187.64 337.38 L 187.78 337.38 L 187.84 337.34 L 188.32 337.08 L 188.33 337.08 L 188.42 336.45 L 188.63 336.44 L 188.82 335.49 L 188.88 335.41 L 188.97 335.40 L 189.02 335.36 L 189.12 334.63 L 189.66 328.45 L 189.72 328.15 L 189.90 328.12 L 189.95 328.05 L 189.99 328.03 L 190.08 327.86 L 190.16 327.16 L 190.35 327.02 L 190.48 327.00 L 190.59 326.69 L 190.65 326.68 L 191.13 326.45 L 191.39 326.28 L 191.47 326.00 L 191.69 325.99 L 191.71 325.99 L 191.73 325.96 L 191.87 324.48 L 191.99 324.39 L 192.38 322.89 L 192.45 322.45 L 192.52 322.44 L 192.63 322.28 L 192.64 322.17 L 192.68 322.10 L 192.72 322.06 L 192.78 322.05 L 192.83 321.97 L 192.98 320.75 L 193.10 320.57 L 193.21 320.21 L 193.36 320.18 L 193.53 320.07 L 193.70 319.20 L 193.83 318.00 L 194.07 317.93 L 194.08 317.48 L 194.22 317.33 L 206.07 317.34 L 206.30 317.32 L 206.86 316.69 L 206.98 316.67 L 207.07 316.67 L 207.09 316.51 L 207.29 316.32 L 207.43 316.28 L 207.51 316.16 L 207.59 316.08 L 207.64 316.04 L 207.85 315.98 L 208.28 315.90 L 208.39 315.58 L 208.47 315.49 L 208.57 315.48 L 209.12 315.32 L 209.20 315.22 L 209.24 315.22 L 209.27 315.10 L 209.39 315.04 L 209.48 314.93 L 209.88 314.12 L 210.45 313.99 L 210.66 313.94 L 211.30 313.74 L 211.60 309.85 L 211.70 309.77 L 211.83 309.39 L 212.02 308.88 L 212.31 308.73 L 212.71 308.72 L 213.25 308.71 L 213.33 308.54 L 213.72 308.36 L 213.97 308.08 L 214.05 307.96 L 214.21 307.92 L 214.32 307.57 L 215.73 307.19 L 217.06 307.19 L 228.99 307.15 L 229.07 306.98 L 229.14 306.88 L 229.51 306.71 L 230.62 305.37 L 230.67 305.28 L 230.83 304.94 L 231.38 304.85 L 231.63 303.94 L 232.03 303.93 L 232.12 303.92 L 232.21 303.30 L 232.90 299.76 L 232.98 299.76 L 233.13 299.73 L 233.28 299.68 L 233.35 299.30 L 233.74 297.97 L 233.88 297.72 L 233.94 297.70 L 234.03 297.09 L 234.20 296.22 L 234.27 295.30 L 234.44 294.89 L 234.96 290.29 L 235.01 289.83 L 235.06 289.83 L 235.14 289.74 L 235.27 289.63 L 235.32 289.59 L 235.37 289.54 L 235.62 288.43 L 235.68 287.66 L 235.98 287.50 L 236.16 286.34 L 236.27 285.62 L 237.20 274.90 L 237.30 274.87 L 272.36 274.36 L 272.40 274.36 L 285.80 274.22 L 286.53 273.92 L 286.68 273.92 L 286.87 273.84 L 286.94 273.71 L 287.02 273.67 L 292.83 273.59 L 293.60 271.55 L 293.88 271.37 L 294.03 270.62 L 297.65 270.47 L 297.67 270.26 L 297.90 270.25 L 298.98 268.96 L 299.04 268.73 L 299.18 268.65 L 299.56 268.56 L 299.61 268.52 L 299.76 268.14 L 299.92 268.03 L 299.95 267.75 L 311.21 267.35 L 311.30 266.26 L 311.74 266.01 L 311.75 264.17 L 311.83 263.90 L 311.92 263.45 L 312.05 262.18 L 312.24 261.51 L 312.40 260.73 L 312.55 260.72 L 312.60 260.12 L 312.83 260.06 L 313.61 257.11 L 313.92 256.79 L 313.98 256.60 L 314.04 256.60 L 314.08 256.39 L 314.19 255.66 L 314.51 255.32 L 314.56 255.27 L 314.75 252.67 L 314.82 252.66 L 314.85 252.38 L 314.93 252.17 L 314.97 252.16 L 315.02 251.77 L 315.26 250.36 L 315.37 249.96 L 315.51 249.91 L 315.60 246.14 L 315.64 245.84 L 315.89 243.69 L 315.96 243.52 L 316.01 243.52 L 316.07 243.51 L 316.11 243.21 L 316.14 243.22 L 316.16 243.21 L 316.28 239.41 L 316.32 239.08 L 316.44 239.06 L 316.53 238.99 L 316.79 238.89 L 317.10 238.74 L 317.11 238.74 L 317.19 238.70 L 317.48 238.62 L 317.62 238.62 L 317.75 238.62 L 317.90 236.97 L 318.00 236.57 L 318.40 236.56 L 318.43 236.30 L 318.48 236.30 L 318.51 236.02 L 318.77 233.62 L 318.82 233.56 L 319.01 233.54 L 336.33 233.47 L 337.32 233.35 L 337.35 233.35 L 337.55 233.35 L 337.56 233.35 L 337.69 232.87 L 337.79 232.86 L 337.87 232.62 L 337.99 232.56 L 338.02 232.53 L 338.07 232.51 L 338.25 232.24 L 338.63 232.00 L 338.87 231.23 L 339.13 230.50 L 339.14 230.46 L 339.19 229.78 L 339.22 229.75 L 339.74 229.34 L 339.75 229.30 L 339.83 228.75 L 340.05 228.69 L 340.19 228.64 L 340.22 227.67 L 340.23 227.62 L 340.29 228.54 L 340.33 227.98 L 340.35 227.96 L 340.48 226.66 L 340.49 226.62 L 340.76 226.51 L 341.50 226.49 L 341.68 226.45 L 341.73 226.44 L 341.77 226.27 L 341.81 226.27 L 341.92 225.63 L 353.76 224.38 L 353.78 224.22 L 353.88 224.10 L 353.91 223.86 L 353.97 213.01 L 354.11 208.57 L 354.12 208.55 L 354.34 208.46 L 354.39 208.46 L 354.43 207.95 L 354.62 207.90 L 355.13 206.85 L 355.14 206.83 L 355.27 206.50 L 355.32 206.51 L 355.35 205.99 L 355.78 205.37 L 355.79 205.35 L 356.44 205.11 L 356.52 204.56 L 356.75 204.57 L 357.01 203.16 L 357.08 202.61 L 357.13 202.17 L 357.25 201.63 L 357.59 201.44 L 357.65 201.30 L 357.79 201.18 L 357.95 201.18 L 358.45 201.18 L 358.51 201.18 L 358.62 201.16 L 358.63 201.15 L 358.79 201.17 L 359.17 201.14 L 359.55 200.94 L 359.61 200.94 L 359.70 200.85 L 359.81 200.71 L 360.11 200.71 L 360.61 200.51 L 360.77 200.08 L 361.04 196.34 L 362.13 199.50 L 362.37 199.49 L 362.55 199.47 L 362.82 199.46 L 362.90 199.41 L 363.18 199.23 L 363.60 198.97 L 363.66 198.80 L 363.74 198.73 L 363.79 198.74 L 363.83 198.69 L 364.17 198.46 L 372.02 198.45 L 372.09 198.46 L 372.58 198.44 L 372.63 198.43 L 372.74 197.95 L 372.83 197.68 L 372.84 197.68 L 373.11 197.64 L 373.18 197.62 L 374.78 196.91 L 374.97 196.85 L 375.11 196.84 L 375.14 196.84 L 375.64 196.67 L 375.81 196.75 L 375.84 196.75 L 376.11 196.70 L 376.40 195.22 L 376.44 195.21 L 376.68 195.04 L 376.78 195.04 L 376.87 195.04 L 377.08 194.88 L 377.51 194.28 L 377.60 194.26 L 377.68 194.09 L 377.86 193.39 L 378.29 192.66 L 378.67 189.22 L 378.75 188.80 L 379.14 188.63 L 379.21 188.55 L 379.27 188.38 L 379.31 187.83 L 379.45 186.84 L 379.48 186.88 L 379.55 186.86 L 379.77 186.85 L 380.11 186.49 L 380.32 186.42 L 380.56 186.41 L 380.68 186.39 L 380.91 186.38 L 381.31 186.38 L 381.71 186.37 L 382.01 186.37 L 382.08 186.36 L 382.15 186.35 L 382.16 186.23 L 382.39 186.16 L 382.46 186.14 L 382.55 185.99 L 383.19 185.97 L 383.20 185.67 L 383.38 185.66 L 384.13 185.67 L 384.63 185.48 L 384.99 185.26 L 385.00 185.15 L 385.03 185.14 L 396.03 184.94 L 396.06 184.93 L 396.19 184.92 L 396.25 184.75 L 396.29 184.73 L 396.30 184.72 L 396.77 184.67 L 396.87 184.05 L 397.01 183.91 L 397.24 182.69 L 397.40 182.67 L 397.58 182.15 L 397.69 182.22 L 397.74 182.21 L 397.79 181.61 L 397.93 181.21 L 397.95 180.77 L 398.00 180.72 L 398.12 180.68 L 398.19 180.48 L 398.29 182.82 L 398.43 182.78 L 398.70 181.84 L 398.81 181.61 L 398.92 181.42 L 399.59 180.07 L 400.17 179.42 L 400.87 178.18 L 401.05 178.12 L 401.24 178.12 L 401.46 178.07 L 405.50 177.71 L 405.83 177.68 L 444.13 176.74 L 564.74 176.52 L 565.13 176.14 L 565.41 176.09 L 565.69 176.09 L 566.11 175.36 L 566.25 175.01 L 566.36 174.35 L 566.55 172.46 L 566.83 172.85 L 567.05 172.44 L 567.11 172.44 L 567.29 172.31 L 567.33 172.31 L 567.53 171.62 L 567.71 170.52 L 568.26 169.34 L 568.28 169.24 L 568.43 167.84 L 568.95 164.37 L 568.96 164.25 L 569.06 164.18 L 569.19 162.93 L 569.75 161.27 L 569.76 161.11 L 569.89 161.03 L 570.01 160.21 L 570.23 159.56 L 570.24 159.44 L 570.33 158.17 L 570.35 158.14 L 570.40 157.78 L 570.63 155.52 L 570.66 155.39 L 570.75 155.26 L 571.00 154.96 L 571.05 154.95 L 571.25 154.52 L 571.59 154.57 L 571.64 154.51 L 571.69 154.48 L 571.74 154.45 L 571.91 153.12 L 572.09 152.04 L 572.12 151.94 L 572.21 150.59 L 572.32 149.27 L 572.34 149.11 L 572.45 147.56 L 572.50 146.34 L 572.70 145.52 L 572.73 145.46 L 572.84 145.21 L 572.98 145.19 L 573.85 145.15 L 574.28 145.11 L 583.70 145.17 L 583.80 144.93 L 583.89 144.73 L 584.05 143.82 L 584.40 143.58 L 584.43 143.49 L 584.50 142.29 L 584.72 141.12 L 584.75 141.02 L 586.80 140.94 L 586.93 140.29 L 587.97 140.09 L 588.08 140.04 L 588.20 138.69 L 589.45 137.41 L 589.98 136.93 L 590.11 135.94 L 590.56 134.23 L 590.84 133.74 L 591.31 132.74 L 592.13 132.23 L 604.74 132.22 L 605.50 132.10 L 605.53 132.13 L 606.59 131.93 L 606.64 131.83 L 607.01 131.75 L 607.44 130.64 L 607.44 130.64 L 607.49 130.60 L 608.05 129.33 L 609.34 128.60 L 609.43 128.54 L 609.56 128.53 L 609.76 128.19 L 609.81 128.11 L 609.89 128.04 L 610.49 128.00 L 610.97 128.00 L 611.23 127.99 L 611.27 127.95 L 611.81 126.84 L 612.22 126.63 L 612.24 126.54 L 612.29 126.45 L 612.35 126.15 L 626.03 125.73 L 626.06 125.71 L 626.10 125.69 L 626.36 125.57 L 626.57 125.43 L 627.78 123.72 L 628.08 123.52 L 628.94 123.01 L 629.69 122.89 L 630.24 122.72 L 630.40 121.15 L 631.10 119.30 L 631.35 119.17 L 631.44 117.98 L 633.47 115.80 L 633.48 115.80 L 633.60 115.27 L 633.98 115.20 L 633.99 115.20 L 634.01 115.07 L 634.08 114.90 L 634.25 114.73 L 634.47 113.81 L 636.57 111.60 L 636.84 111.33 L 637.03 110.94 L 637.06 110.89 L 637.10 110.58 L 646.42 109.58 L 646.72 108.82 L 646.90 108.79 L 646.96 108.28 L 647.84 108.05 L 648.03 107.55 L 648.19 107.55 L 648.29 106.48 L 648.58 103.79 L 648.63 103.74 L 649.02 103.70 L 649.11 102.82 L 649.45 101.76 L 649.52 101.03 L 649.80 100.36 L 650.00 100.00"/>
	</g>
	<g id="poloto_plot1" class="poloto_plot poloto_imgs poloto_line poloto1 poloto_stroke" fill="none" stroke="black">
		<path d=" M 150.00 381.14 L 150.03 381.12 L 150.05 381.11 L 150.06 381.11 L 150.08 381.11 L 150.12 380.51 L 150.25 380.49 L 150.54 380.48 L 150.98 380.26 L 151.20 380.16 L 151.65 380.18 L 151.72 380.14 L 151.78 380.14 L 152.30 380.09 L 153.28 379.98 L 153.58 377.65 L 153.66 377.65 L 154.25 377.59 L 154.93 377.58 L 154.94 377.58 L 154.94 377.58 L 164.09 377.58 L 164.16 377.58 L 164.28 377.58 L 164.32 377.55 L 164.67 377.54 L 164.83 377.54 L 165.22 377.54 L 165.27 377.54 L 165.38 377.52 L 165.50 377.52 L 165.53 377.52 L 165.63 377.49 L 165.73 377.49 L 165.83 377.49 L 166.08 377.36 L 166.31 377.36 L 166.35 377.36 L 166.46 377.36 L 167.19 378.24 L 167.20 378.24 L 167.29 378.23 L 167.71 378.10 L 168.04 377.95 L 168.42 377.88 L 168.50 377.84 L 168.51 377.84 L 168.58 377.84 L 168.72 377.84 L 168.90 377.78 L 169.26 377.73 L 169.28 377.73 L 169.35 377.73 L 169.44 377.71 L 169.64 377.71 L 169.66 377.71 L 169.88 377.70 L 169.96 377.70 L 170.04 377.70 L 170.12 377.70 L 171.24 377.60 L 171.51 377.59 L 172.13 377.54 L 172.26 377.54 L 172.36 377.54 L 172.41 377.54 L 172.84 377.47 L 173.03 377.47 L 173.25 377.39 L 173.36 377.38 L 173.61 377.19 L 173.73 377.12 L 173.88 377.12 L 174.02 377.12 L 174.51 374.39 L 174.53 374.35 L 174.55 374.35 L 174.72 374.08 L 183.21 374.08 L 184.09 372.91 L 184.12 372.91 L 185.16 372.91 L 185.24 372.90 L 185.34 372.78 L 185.59 372.76 L 185.71 372.76 L 185.75 372.76 L 185.88 372.76 L 186.19 372.76 L 186.20 372.51 L 186.31 372.50 L 186.43 372.50 L 186.56 372.47 L 186.73 372.46 L 186.79 372.46 L 186.81 372.46 L 186.96 372.46 L 186.98 372.46 L 187.14 372.46 L 187.17 372.46 L 187.41 371.31 L 187.45 371.31 L 187.54 371.17 L 187.64 371.17 L 187.78 371.17 L 187.84 371.16 L 188.32 371.15 L 188.33 371.15 L 188.42 371.08 L 188.63 371.08 L 188.82 370.42 L 188.88 370.34 L 188.97 370.34 L 189.02 370.34 L 189.12 370.32 L 189.66 365.45 L 189.72 365.49 L 189.90 365.49 L 189.95 365.49 L 189.99 365.48 L 190.08 365.48 L 190.16 365.41 L 190.35 365.41 L 190.48 365.41 L 190.59 365.41 L 190.65 365.41 L 191.13 365.40 L 191.39 365.39 L 191.47 365.27 L 191.69 365.27 L 191.71 365.27 L 191.73 365.27 L 191.87 364.95 L 191.99 364.86 L 192.38 363.70 L 192.45 363.70 L 192.52 363.70 L 192.63 363.72 L 192.64 363.72 L 192.68 363.72 L 192.72 363.72 L 192.78 363.72 L 192.83 363.72 L 192.98 363.70 L 193.10 363.70 L 193.21 363.68 L 193.36 363.68 L 193.53 363.67 L 193.70 363.24 L 193.83 363.10 L 194.07 363.10 L 194.08 363.09 L 194.22 363.09 L 206.07 363.09 L 206.30 363.09 L 206.86 363.01 L 206.98 363.00 L 207.07 363.00 L 207.09 363.00 L 207.29 363.00 L 207.43 363.00 L 207.51 363.00 L 207.59 363.00 L 207.64 363.00 L 207.85 363.00 L 208.28 363.02 L 208.39 363.02 L 208.47 363.02 L 208.57 363.02 L 209.12 362.92 L 209.20 362.88 L 209.24 362.88 L 209.27 362.82 L 209.39 362.82 L 209.48 362.81 L 209.88 362.37 L 210.45 362.37 L 210.66 362.37 L 211.30 362.37 L 211.60 359.39 L 211.70 359.39 L 211.83 359.39 L 212.02 359.38 L 212.31 359.38 L 212.71 359.38 L 213.25 359.38 L 213.33 359.38 L 213.72 359.31 L 213.97 359.19 L 214.05 359.19 L 214.21 359.19 L 214.32 359.17 L 215.73 358.98 L 217.06 358.98 L 228.99 358.98 L 229.07 358.98 L 229.14 358.98 L 229.51 358.98 L 230.62 358.04 L 230.67 358.01 L 230.83 357.91 L 231.38 357.91 L 231.63 357.68 L 232.03 357.68 L 232.12 357.68 L 232.21 357.68 L 232.90 355.07 L 232.98 355.07 L 233.13 355.07 L 233.28 355.07 L 233.35 354.90 L 233.74 354.58 L 233.88 354.58 L 233.94 354.58 L 234.03 354.10 L 234.20 353.62 L 234.27 353.62 L 234.44 353.61 L 234.96 349.71 L 235.01 349.71 L 235.06 349.71 L 235.14 349.71 L 235.27 349.71 L 235.32 349.71 L 235.37 349.71 L 235.62 349.71 L 235.68 349.63 L 235.98 349.61 L 236.16 349.56 L 236.27 349.09 L 237.20 341.33 L 237.30 341.33 L 272.36 341.33 L 272.40 341.33 L 285.80 341.33 L 286.53 341.21 L 286.68 341.21 L 286.87 341.21 L 286.94 341.21 L 287.02 341.21 L 292.83 341.15 L 293.60 341.07 L 293.88 341.07 L 294.03 341.05 L 297.65 340.98 L 297.67 340.88 L 297.90 340.88 L 298.98 339.83 L 299.04 339.83 L 299.18 339.83 L 299.56 339.83 L 299.61 339.83 L 299.76 339.83 L 299.92 339.83 L 299.95 339.83 L 311.21 339.81 L 311.30 339.63 L 311.74 339.63 L 311.75 338.36 L 311.83 338.36 L 311.92 338.36 L 312.05 338.24 L 312.24 338.24 L 312.40 338.19 L 312.55 338.19 L 312.60 338.19 L 312.83 338.17 L 313.61 336.02 L 313.92 336.01 L 313.98 336.00 L 314.04 336.00 L 314.08 336.00 L 314.19 335.97 L 314.51 335.70 L 314.56 335.66 L 314.75 333.73 L 314.82 333.72 L 314.85 333.72 L 314.93 333.70 L 314.97 333.70 L 315.02 333.69 L 315.26 332.64 L 315.37 332.63 L 315.51 332.60 L 315.60 329.33 L 315.64 329.33 L 315.89 327.48 L 315.96 327.48 L 316.01 327.48 L 316.07 327.48 L 316.11 327.48 L 316.14 327.48 L 316.16 327.48 L 316.28 324.07 L 316.32 324.07 L 316.44 324.06 L 316.53 324.06 L 316.79 323.99 L 317.10 323.89 L 317.11 323.89 L 317.19 323.87 L 317.48 323.82 L 317.62 323.82 L 317.75 323.82 L 317.90 322.35 L 318.00 322.35 L 318.40 322.34 L 318.43 322.34 L 318.48 322.34 L 318.51 322.34 L 318.77 320.24 L 318.82 320.24 L 319.01 320.23 L 336.33 320.23 L 337.32 320.21 L 337.35 320.21 L 337.55 320.21 L 337.56 320.21 L 337.69 320.21 L 337.79 320.21 L 337.87 320.11 L 337.99 320.11 L 338.02 320.11 L 338.07 320.11 L 338.25 319.92 L 338.63 319.80 L 338.87 319.67 L 339.13 319.08 L 339.14 319.08 L 339.19 318.93 L 339.22 318.91 L 339.74 318.55 L 339.75 318.55 L 339.83 318.50 L 340.05 318.50 L 340.19 318.46 L 340.22 317.59 L 340.23 317.59 L 340.29 318.45 L 340.33 318.40 L 340.35 318.39 L 340.48 317.22 L 340.49 317.22 L 340.76 317.17 L 341.50 317.17 L 341.68 317.17 L 341.73 317.17 L 341.77 317.17 L 341.81 317.17 L 341.92 317.10 L 353.76 316.13 L 353.78 316.13 L 353.88 316.12 L 353.91 315.91 L 353.97 305.56 L 354.11 301.71 L 354.12 301.71 L 354.34 301.63 L 354.39 301.63 L 354.43 301.62 L 354.62 301.62 L 355.13 300.68 L 355.14 300.68 L 355.27 300.63 L 355.32 300.63 L 355.35 300.54 L 355.78 299.98 L 355.79 299.98 L 356.44 299.87 L 356.52 299.83 L 356.75 299.84 L 357.01 298.57 L 357.08 298.44 L 357.13 298.32 L 357.25 297.84 L 357.59 297.73 L 357.65 297.62 L 357.79 297.62 L 357.95 297.62 L 358.45 297.62 L 358.51 297.62 L 358.62 297.62 L 358.63 297.62 L 358.79 297.64 L 359.17 297.64 L 359.55 297.51 L 359.61 297.51 L 359.70 297.49 L 359.81 297.49 L 360.11 297.49 L 360.61 297.49 L 360.77 297.38 L 361.04 294.03 L 362.13 297.19 L 362.37 297.17 L 362.55 297.16 L 362.82 297.16 L 362.90 297.13 L 363.18 297.11 L 363.60 296.91 L 363.66 296.91 L 363.74 296.91 L 363.79 296.91 L 363.83 296.91 L 364.17 296.73 L 372.02 296.73 L 372.09 296.74 L 372.58 296.72 L 372.63 296.72 L 372.74 296.69 L 372.83 296.46 L 372.84 296.45 L 373.11 296.43 L 373.18 296.43 L 374.78 296.24 L 374.97 296.24 L 375.11 296.24 L 375.14 296.24 L 375.64 296.10 L 375.81 296.10 L 375.84 296.10 L 376.11 296.09 L 376.40 295.30 L 376.44 295.30 L 376.68 295.17 L 376.78 295.17 L 376.87 295.17 L 377.08 295.17 L 377.51 295.16 L 377.60 295.14 L 377.68 295.06 L 377.86 294.93 L 378.29 294.81 L 378.67 291.65 L 378.75 291.55 L 379.14 291.40 L 379.21 291.36 L 379.27 291.25 L 379.31 291.03 L 379.45 290.08 L 379.48 290.12 L 379.55 290.11 L 379.77 290.10 L 380.11 289.97 L 380.32 289.92 L 380.56 289.91 L 380.68 289.90 L 380.91 289.88 L 381.31 289.88 L 381.71 289.88 L 382.01 289.87 L 382.08 289.87 L 382.15 289.86 L 382.16 289.86 L 382.39 289.86 L 382.46 289.85 L 382.55 289.73 L 383.19 289.72 L 383.20 289.72 L 383.38 289.70 L 384.13 289.70 L 384.63 289.55 L 384.99 289.41 L 385.00 289.41 L 385.03 289.41 L 396.03 289.41 L 396.06 289.41 L 396.19 289.41 L 396.25 289.41 L 396.29 289.39 L 396.30 289.39 L 396.77 289.39 L 396.87 289.38 L 397.01 289.36 L 397.24 289.33 L 397.40 289.33 L 397.58 289.26 L 397.69 289.26 L 397.74 289.26 L 397.79 289.26 L 397.93 288.97 L 397.95 288.97 L 398.00 288.97 L 398.12 288.97 L 398.19 288.97 L 398.29 289.04 L 398.43 289.04 L 398.70 289.03 L 398.81 289.03 L 398.92 289.03 L 399.59 288.10 L 400.17 287.85 L 400.87 287.19 L 401.05 287.19 L 401.24 287.19 L 401.46 287.19 L 405.50 287.11 L 405.83 287.11 L 444.13 286.99 L 564.74 286.82 L 565.13 286.76 L 565.41 286.76 L 565.69 286.76 L 566.11 286.33 L 566.25 286.33 L 566.36 286.33 L 566.55 284.77 L 566.83 285.07 L 567.05 285.05 L 567.11 285.05 L 567.29 285.04 L 567.33 285.04 L 567.53 285.03 L 567.71 284.96 L 568.26 283.98 L 568.28 283.98 L 568.43 283.89 L 568.95 280.71 L 568.96 280.71 L 569.06 280.71 L 569.19 280.66 L 569.75 279.18 L 569.76 279.18 L 569.89 279.18 L 570.01 279.14 L 570.23 278.60 L 570.24 278.60 L 570.33 278.60 L 570.35 278.60 L 570.40 278.30 L 570.63 276.19 L 570.66 276.19 L 570.75 276.19 L 571.00 276.02 L 571.05 276.02 L 571.25 275.67 L 571.59 275.67 L 571.64 275.67 L 571.69 275.67 L 571.74 275.67 L 571.91 275.66 L 572.09 274.71 L 572.12 274.71 L 572.21 274.71 L 572.32 273.99 L 572.34 273.99 L 572.45 273.23 L 572.50 273.18 L 572.70 272.43 L 572.73 272.43 L 572.84 272.43 L 572.98 272.42 L 573.85 272.42 L 574.28 272.41 L 583.70 272.41 L 583.80 272.41 L 583.89 272.41 L 584.05 272.41 L 584.40 272.21 L 584.43 272.21 L 584.50 272.15 L 584.72 271.10 L 584.75 271.10 L 586.80 271.12 L 586.93 270.91 L 587.97 270.91 L 588.08 270.91 L 588.20 270.83 L 589.45 269.97 L 589.98 269.80 L 590.11 269.74 L 590.56 268.10 L 590.84 268.10 L 591.31 267.97 L 592.13 267.97 L 604.74 267.96 L 605.50 267.86 L 605.53 267.88 L 606.59 267.88 L 606.64 267.88 L 607.01 267.88 L 607.44 267.85 L 607.44 267.85 L 607.49 267.85 L 608.05 266.89 L 609.34 266.86 L 609.43 266.86 L 609.56 266.86 L 609.76 266.82 L 609.81 266.79 L 609.89 266.79 L 610.49 266.75 L 610.97 266.75 L 611.23 266.74 L 611.27 266.74 L 611.81 266.72 L 612.22 266.61 L 612.24 266.61 L 612.29 266.61 L 612.35 266.61 L 626.03 266.39 L 626.06 266.39 L 626.10 266.39 L 626.36 266.39 L 626.57 266.39 L 627.78 265.44 L 628.08 265.38 L 628.94 265.31 L 629.69 265.26 L 630.24 265.26 L 630.40 265.26 L 631.10 263.83 L 631.35 263.79 L 631.44 263.74 L 633.47 262.73 L 633.48 262.73 L 633.60 262.72 L 633.98 262.71 L 633.99 262.71 L 634.01 262.71 L 634.08 262.68 L 634.25 262.64 L 634.47 262.53 L 636.57 260.87 L 636.84 260.78 L 637.03 260.78 L 637.06 260.78 L 637.10 260.78 L 646.42 260.78 L 646.72 260.77 L 646.90 260.77 L 646.96 260.77 L 647.84 260.77 L 648.03 260.77 L 648.19 260.77 L 648.29 260.74 L 648.58 258.56 L 648.63 258.54 L 649.02 258.56 L 649.11 258.54 L 649.45 257.69 L 649.52 257.65 L 649.80 257.10 L 650.00 257.10"/>
	</g>
	<g id="poloto_plot2" class="poloto_plot poloto_imgs poloto_line poloto2 poloto_stroke" fill="none" stroke="black">
		<path d=" M 150.00 391.54 L 150.03 391.53 L 150.05 391.53 L 150.06 391.53 L 150.08 391.53 L 150.12 389.36 L 150.25 389.07 L 150.54 389.06 L 150.98 389.05 L 151.20 387.75 L 151.65 387.64 L 151.72 387.60 L 151.78 387.57 L 152.30 386.99 L 153.28 386.53 L 153.58 386.45 L 153.66 386.45 L 154.25 386.42 L 154.93 386.42 L 154.94 386.42 L 154.94 386.42 L 164.09 386.42 L 164.16 386.41 L 164.28 386.39 L 164.32 386.39 L 164.67 386.26 L 164.83 386.23 L 165.22 386.01 L 165.27 385.92 L 165.38 385.73 L 165.50 385.70 L 165.53 385.70 L 165.63 385.67 L 165.73 385.67 L 165.83 385.67 L 166.08 385.45 L 166.31 385.25 L 166.35 385.25 L 166.46 385.14 L 167.19 384.87 L 167.20 384.87 L 167.29 384.79 L 167.71 384.50 L 168.04 384.15 L 168.42 384.01 L 168.50 384.01 L 168.51 384.01 L 168.58 383.81 L 168.72 383.81 L 168.90 383.79 L 169.26 383.64 L 169.28 383.39 L 169.35 383.39 L 169.44 383.27 L 169.64 383.27 L 169.66 383.27 L 169.88 382.88 L 169.96 382.86 L 170.04 382.83 L 170.12 382.65 L 171.24 382.55 L 171.51 382.51 L 172.13 382.25 L 172.26 382.25 L 172.36 382.23 L 172.41 382.04 L 172.84 380.98 L 173.03 380.96 L 173.25 380.64 L 173.36 380.61 L 173.61 380.47 L 173.73 380.42 L 173.88 380.19 L 174.02 380.01 L 174.51 380.01 L 174.53 379.98 L 174.55 379.83 L 174.72 378.81 L 183.21 378.70 L 184.09 378.39 L 184.12 378.35 L 185.16 378.10 L 185.24 378.09 L 185.34 377.90 L 185.59 377.78 L 185.71 377.54 L 185.75 377.35 L 185.88 376.97 L 186.19 376.96 L 186.20 376.96 L 186.31 376.69 L 186.43 376.69 L 186.56 376.41 L 186.73 376.19 L 186.79 376.07 L 186.81 376.07 L 186.96 375.81 L 186.98 375.81 L 187.14 375.57 L 187.17 375.56 L 187.41 375.48 L 187.45 375.48 L 187.54 375.40 L 187.64 375.38 L 187.78 375.38 L 187.84 375.36 L 188.32 375.13 L 188.33 375.14 L 188.42 374.68 L 188.63 374.66 L 188.82 374.52 L 188.88 374.52 L 188.97 374.52 L 189.02 374.48 L 189.12 373.85 L 189.66 373.31 L 189.72 373.02 L 189.90 373.00 L 189.95 372.93 L 189.99 372.91 L 190.08 372.78 L 190.16 372.28 L 190.35 372.20 L 190.48 372.19 L 190.59 371.94 L 190.65 371.93 L 191.13 371.74 L 191.39 371.61 L 191.47 371.49 L 191.69 371.48 L 191.71 371.48 L 191.73 371.46 L 191.87 370.55 L 191.99 370.55 L 192.38 370.42 L 192.45 370.05 L 192.52 370.05 L 192.63 369.90 L 192.64 369.81 L 192.68 369.75 L 192.72 369.72 L 192.78 369.71 L 192.83 369.64 L 192.98 368.62 L 193.10 368.52 L 193.21 368.22 L 193.36 368.19 L 193.53 368.09 L 193.70 367.78 L 193.83 366.89 L 194.07 366.83 L 194.08 366.45 L 194.22 366.36 L 206.07 366.36 L 206.30 366.36 L 206.86 365.94 L 206.98 365.94 L 207.07 365.94 L 207.09 365.83 L 207.29 365.65 L 207.43 365.62 L 207.51 365.51 L 207.59 365.44 L 207.64 365.40 L 207.85 365.34 L 208.28 365.43 L 208.39 365.15 L 208.47 365.07 L 208.57 365.06 L 209.12 365.01 L 209.20 364.96 L 209.24 364.96 L 209.27 364.91 L 209.39 364.86 L 209.48 364.76 L 209.88 364.49 L 210.45 364.38 L 210.66 364.33 L 211.30 364.17 L 211.60 363.76 L 211.70 363.69 L 211.83 363.36 L 212.02 362.95 L 212.31 362.84 L 212.71 362.83 L 213.25 362.81 L 213.33 362.66 L 213.72 362.56 L 213.97 362.43 L 214.05 362.32 L 214.21 362.28 L 214.32 362.00 L 215.73 361.87 L 217.06 361.87 L 228.99 361.84 L 229.07 361.69 L 229.14 361.58 L 229.51 361.43 L 230.62 361.15 L 230.67 361.12 L 230.83 360.92 L 231.38 360.84 L 231.63 360.31 L 232.03 360.30 L 232.12 360.28 L 232.21 359.75 L 232.90 359.26 L 232.98 359.25 L 233.13 359.22 L 233.28 359.18 L 233.35 359.00 L 233.74 358.18 L 233.88 357.97 L 233.94 357.95 L 234.03 357.87 L 234.20 357.55 L 234.27 356.72 L 234.44 356.39 L 234.96 356.19 L 235.01 355.78 L 235.06 355.78 L 235.14 355.71 L 235.27 355.60 L 235.32 355.56 L 235.37 355.52 L 235.62 354.57 L 235.68 354.00 L 235.98 353.90 L 236.16 352.94 L 236.27 352.76 L 237.20 351.26 L 237.30 351.23 L 272.36 350.79 L 272.40 350.79 L 285.80 350.67 L 286.53 350.51 L 286.68 350.51 L 286.87 350.43 L 286.94 350.31 L 287.02 350.28 L 292.83 350.27 L 293.60 348.55 L 293.88 348.40 L 294.03 347.80 L 297.65 347.73 L 297.67 347.67 L 297.90 347.66 L 298.98 347.55 L 299.04 347.36 L 299.18 347.28 L 299.56 347.20 L 299.61 347.17 L 299.76 346.84 L 299.92 346.74 L 299.95 346.48 L 311.21 346.16 L 311.30 345.37 L 311.74 345.17 L 311.75 344.87 L 311.83 344.63 L 311.92 344.27 L 312.05 343.32 L 312.24 342.80 L 312.40 342.13 L 312.55 342.13 L 312.60 341.61 L 312.83 341.58 L 313.61 341.08 L 313.92 340.85 L 313.98 340.71 L 314.04 340.71 L 314.08 340.54 L 314.19 339.95 L 314.51 339.89 L 314.56 339.89 L 314.75 339.51 L 314.82 339.51 L 314.85 339.29 L 314.93 339.15 L 314.97 339.15 L 315.02 338.84 L 315.26 338.66 L 315.37 338.35 L 315.51 338.34 L 315.60 338.18 L 315.64 337.94 L 315.89 337.82 L 315.96 337.68 L 316.01 337.68 L 316.07 337.68 L 316.11 337.44 L 316.14 337.45 L 316.16 337.44 L 316.28 337.36 L 316.32 337.10 L 316.44 337.10 L 316.53 337.03 L 316.79 337.01 L 317.10 336.99 L 317.11 336.99 L 317.19 336.97 L 317.48 336.97 L 317.62 336.97 L 317.75 336.97 L 317.90 336.93 L 318.00 336.61 L 318.40 336.61 L 318.43 336.42 L 318.48 336.42 L 318.51 336.21 L 318.77 336.13 L 318.82 336.08 L 319.01 336.08 L 336.33 336.03 L 337.32 335.94 L 337.35 335.94 L 337.55 335.94 L 337.56 335.94 L 337.69 335.57 L 337.79 335.55 L 337.87 335.45 L 337.99 335.39 L 338.02 335.36 L 338.07 335.34 L 338.25 335.31 L 338.63 335.23 L 338.87 334.74 L 339.13 334.71 L 339.14 334.68 L 339.19 334.26 L 339.22 334.26 L 339.74 334.26 L 339.75 334.21 L 339.83 333.83 L 340.05 333.78 L 340.19 333.76 L 340.22 333.76 L 340.23 333.71 L 340.29 333.68 L 340.33 333.29 L 340.35 333.28 L 340.48 333.28 L 340.49 333.25 L 340.76 333.21 L 341.50 333.19 L 341.68 333.16 L 341.73 333.15 L 341.77 333.02 L 341.81 333.02 L 341.92 332.58 L 353.76 332.44 L 353.78 332.31 L 353.88 332.23 L 353.91 332.21 L 353.97 331.83 L 354.11 331.74 L 354.12 331.72 L 354.34 331.71 L 354.39 331.71 L 354.43 331.34 L 354.62 331.29 L 355.13 331.28 L 355.14 331.26 L 355.27 331.05 L 355.32 331.06 L 355.35 330.71 L 355.78 330.71 L 355.79 330.69 L 356.44 330.60 L 356.52 330.19 L 356.75 330.19 L 357.01 330.19 L 357.08 329.88 L 357.13 329.64 L 357.25 329.63 L 357.59 329.58 L 357.65 329.56 L 357.79 329.47 L 357.95 329.47 L 358.45 329.47 L 358.51 329.47 L 358.62 329.44 L 358.63 329.44 L 358.79 329.44 L 359.17 329.42 L 359.55 329.37 L 359.61 329.37 L 359.70 329.33 L 359.81 329.22 L 360.11 329.22 L 360.61 329.08 L 360.77 328.85 L 361.04 328.82 L 362.13 328.57 L 362.37 328.57 L 362.55 328.56 L 362.82 328.56 L 362.90 328.54 L 363.18 328.41 L 363.60 328.39 L 363.66 328.28 L 363.74 328.22 L 363.79 328.24 L 363.83 328.19 L 364.17 328.17 L 372.02 328.17 L 372.09 328.17 L 372.58 328.17 L 372.63 328.16 L 372.74 327.81 L 372.83 327.79 L 372.84 327.80 L 373.11 327.79 L 373.18 327.77 L 374.78 327.25 L 374.97 327.20 L 375.11 327.19 L 375.14 327.19 L 375.64 327.17 L 375.81 327.25 L 375.84 327.24 L 376.11 327.21 L 376.40 326.72 L 376.44 326.71 L 376.68 326.70 L 376.78 326.70 L 376.87 326.70 L 377.08 326.60 L 377.51 326.16 L 377.60 326.16 L 377.68 326.09 L 377.86 325.69 L 378.29 325.25 L 378.67 325.28 L 378.75 325.04 L 379.14 325.04 L 379.21 325.01 L 379.27 324.99 L 379.31 324.75 L 379.45 324.75 L 379.48 324.75 L 379.55 324.75 L 379.77 324.75 L 380.11 324.56 L 380.32 324.54 L 380.56 324.54 L 380.68 324.54 L 380.91 324.54 L 381.31 324.54 L 381.71 324.54 L 382.01 324.54 L 382.08 324.53 L 382.15 324.53 L 382.16 324.44 L 382.39 324.39 L 382.46 324.39 L 382.55 324.37 L 383.19 324.37 L 383.20 324.14 L 383.38 324.14 L 384.13 324.14 L 384.63 324.14 L 384.99 324.09 L 385.00 324.00 L 385.03 324.00 L 396.03 323.84 L 396.06 323.84 L 396.19 323.83 L 396.25 323.69 L 396.29 323.69 L 396.30 323.68 L 396.77 323.63 L 396.87 323.17 L 397.01 323.07 L 397.24 322.15 L 397.40 322.14 L 397.58 321.75 L 397.69 321.79 L 397.74 321.79 L 397.79 321.29 L 397.93 321.20 L 397.95 320.85 L 398.00 320.80 L 398.12 320.77 L 398.19 320.60 L 398.29 322.66 L 398.43 322.62 L 398.70 321.80 L 398.81 321.62 L 398.92 321.43 L 399.59 321.10 L 400.17 320.76 L 400.87 320.27 L 401.05 320.22 L 401.24 320.22 L 401.46 320.18 L 405.50 319.93 L 405.83 319.91 L 444.13 319.27 L 564.74 319.24 L 565.13 318.95 L 565.41 318.91 L 565.69 318.91 L 566.11 318.65 L 566.25 318.34 L 566.36 317.78 L 566.55 317.62 L 566.83 317.68 L 567.05 317.35 L 567.11 317.34 L 567.29 317.24 L 567.33 317.24 L 567.53 316.69 L 567.71 315.85 L 568.26 315.76 L 568.28 315.68 L 568.43 314.59 L 568.95 314.55 L 568.96 314.44 L 569.06 314.38 L 569.19 313.39 L 569.75 313.34 L 569.76 313.20 L 569.89 313.13 L 570.01 312.48 L 570.23 312.46 L 570.24 312.35 L 570.33 311.28 L 570.35 311.25 L 570.40 311.22 L 570.63 311.22 L 570.66 311.10 L 570.75 311.02 L 571.00 310.92 L 571.05 310.92 L 571.25 310.86 L 571.59 310.90 L 571.64 310.85 L 571.69 310.83 L 571.74 310.79 L 571.91 309.68 L 572.09 309.65 L 572.12 309.56 L 572.21 308.41 L 572.32 308.00 L 572.34 307.85 L 572.45 307.29 L 572.50 306.32 L 572.70 306.31 L 572.73 306.25 L 572.84 306.05 L 572.98 306.05 L 573.85 306.02 L 574.28 305.99 L 583.70 306.04 L 583.80 305.82 L 583.89 305.65 L 584.05 304.88 L 584.40 304.87 L 584.43 304.79 L 584.50 303.81 L 584.72 303.80 L 584.75 303.71 L 586.80 303.61 L 586.93 303.26 L 587.97 303.09 L 588.08 303.05 L 588.20 301.96 L 589.45 301.65 L 589.98 301.39 L 590.11 300.58 L 590.56 300.58 L 590.84 300.12 L 591.31 299.42 L 592.13 299.00 L 604.74 298.99 L 605.50 298.98 L 605.53 298.98 L 606.59 298.82 L 606.64 298.73 L 607.01 298.67 L 607.44 297.76 L 607.44 297.76 L 607.49 297.72 L 608.05 297.53 L 609.34 296.92 L 609.43 296.86 L 609.56 296.85 L 609.76 296.60 L 609.81 296.56 L 609.89 296.51 L 610.49 296.51 L 610.97 296.51 L 611.23 296.51 L 611.27 296.47 L 611.81 295.54 L 612.22 295.46 L 612.24 295.38 L 612.29 295.30 L 612.35 295.07 L 626.03 294.90 L 626.06 294.87 L 626.10 294.86 L 626.36 294.74 L 626.57 294.63 L 627.78 294.11 L 628.08 294.00 L 628.94 293.60 L 629.69 293.54 L 630.24 293.38 L 630.40 292.02 L 631.10 291.79 L 631.35 291.72 L 631.44 290.73 L 633.47 289.79 L 633.48 289.79 L 633.60 289.35 L 633.98 289.31 L 633.99 289.31 L 634.01 289.20 L 634.08 289.08 L 634.25 288.98 L 634.47 288.31 L 636.57 287.96 L 636.84 287.81 L 637.03 287.44 L 637.06 287.40 L 637.10 287.16 L 646.42 286.30 L 646.72 285.68 L 646.90 285.66 L 646.96 285.25 L 647.84 285.08 L 648.03 284.63 L 648.19 284.63 L 648.29 283.72 L 648.58 283.50 L 648.63 283.47 L 649.02 283.42 L 649.11 282.67 L 649.45 282.57 L 649.52 281.98 L 649.80 281.92 L 650.00 281.58"/>
	</g>
	<g class="poloto_legend poloto_imgs poloto_line poloto0 poloto_stroke"><line x1="680" x2="730" y1="81.25" y2="81.25"/></g>
	<g class="poloto_legend poloto_imgs poloto_line poloto1 poloto_stroke"><line x1="680" x2="730" y1="131.25" y2="131.25"/></g>
	<g class="poloto_legend poloto_imgs poloto_line poloto2 poloto_stroke"><line x1="680" x2="730" y1="181.25" y2="181.25"/></g>
	<text class="poloto_legend poloto_text poloto_line poloto0" x="675" y="100">total</text>
	<text class="poloto_legend poloto_text poloto_line poloto1" x="675" y="150">code</text>
	<text class="poloto_legend poloto_text poloto_line poloto2" x="675" y="200">docs</text>
	<text class="poloto_text poloto_name poloto_title" x="400.00" y="37.50">Workspace lines over time</text>
	<text class="poloto_text poloto_name poloto_x" x="400.00" y="640">date (JST)</text>
	<text class="poloto_text poloto_name poloto_y" x="37.50" y="250.00" transform="rotate(-90,37.50,250.00)">lines</text>
	<text class="poloto_text poloto_ticks poloto_y">
		<tspan x="135.00" y="400.00">0</tspan>
		<tspan x="135.00" y="319.55">50K</tspan>
		<tspan x="135.00" y="239.09">100K</tspan>
		<tspan x="135.00" y="158.64">150K</tspan>
	</text>
	<g class="poloto_imgs poloto_ticks poloto_y" stroke="black">
		<line x1="150.00" x2="144.00" y1="400.00" y2="400.00"/>
		<line x1="150.00" x2="144.00" y1="319.55" y2="319.55"/>
		<line x1="150.00" x2="144.00" y1="239.09" y2="239.09"/>
		<line x1="150.00" x2="144.00" y1="158.64" y2="158.64"/>
	</g>
	<g class="poloto_text poloto_ticks poloto_x">
		<text x="228.84" y="430.00" text-anchor="end" transform="rotate(-90 228.84 430.00)">2026-04-24 12:06</text>
		<text x="350.20" y="430.00" text-anchor="end" transform="rotate(-90 350.20 430.00)">2026-04-30 07:00</text>
		<text x="471.55" y="430.00" text-anchor="end" transform="rotate(-90 471.55 430.00)">2026-05-06 01:53</text>
		<text x="592.91" y="430.00" text-anchor="end" transform="rotate(-90 592.91 430.00)">2026-05-11 20:46</text>
	</g>
	<g class="poloto_imgs poloto_ticks poloto_x" stroke="black">
		<line x1="228.84" x2="228.84" y1="400.00" y2="405.00"/>
		<line x1="350.20" x2="350.20" y1="400.00" y2="405.00"/>
		<line x1="471.55" x2="471.55" y1="400.00" y2="405.00"/>
		<line x1="592.91" x2="592.91" y1="400.00" y2="405.00"/>
	</g>
	<path class="poloto_imgs poloto_ticks poloto_x" stroke="black" style="stroke-dasharray:12.135686685695422;stroke-dashoffset:-78.83900312613696;" d=" M 150.00 400.00 L 650.00 400.00"/>
	<path class="poloto_imgs poloto_ticks poloto_y" stroke="black" style="stroke-dasharray:8.045483801759278;stroke-dashoffset:-0;" d=" M 150.00 400.00 L 150.00 100.00"/>
</svg>

