<svg class="poloto" width="800" height="680" viewBox="0 0 800 680" xmlns="http://www.w3.org/2000/svg">
	<style>
.poloto{
  stroke-linecap:round;
  stroke-linejoin:round;
  font-family:Roboto,sans-serif;
  font-size:16px;
}
.poloto_background{fill:AliceBlue;}
.poloto_scatter{stroke-width:7}
.poloto_line{stroke-width:2}
.poloto_text{fill: black;}
.poloto_name{font-size:24px;dominant-baseline:auto;text-anchor:middle;}
.poloto_where{dominant-baseline:middle;text-anchor:start}
.poloto_text.poloto_legend{font-size:20px;dominant-baseline:middle;text-anchor:start;}
.poloto_text.poloto_ticks.poloto_y{dominant-baseline:middle;text-anchor:end}
.poloto_text.poloto_ticks.poloto_x{dominant-baseline:auto;text-anchor:middle}
.poloto_imgs.poloto_ticks{stroke: black;stroke-width:3;fill:none;stroke-dasharray:none}
.poloto_grid{stroke:gray;stroke-width:0.5}

.poloto0.poloto_stroke{stroke:blue;}
.poloto1.poloto_stroke{stroke:red;}
.poloto2.poloto_stroke{stroke:green;}
.poloto3.poloto_stroke{stroke:gold;}
.poloto4.poloto_stroke{stroke:aqua;}
.poloto5.poloto_stroke{stroke:lime;}
.poloto6.poloto_stroke{stroke:orange;}
.poloto7.poloto_stroke{stroke:chocolate;}
.poloto0.poloto_fill{fill:blue;}
.poloto1.poloto_fill{fill:red;}
.poloto2.poloto_fill{fill:green;}
.poloto3.poloto_fill{fill:gold;}
.poloto4.poloto_fill{fill:aqua;}
.poloto5.poloto_fill{fill:lime;}
.poloto6.poloto_fill{fill:orange;}
.poloto7.poloto_fill{fill:chocolate;}
	</style>
	<circle r="1e5" class="poloto_background" fill="white"/>
	<g id="poloto_plot0" class="poloto_plot poloto_imgs poloto_line poloto0 poloto_stroke" fill="none" stroke="black">
		<path d=" M 150.00 371.22 L 150.02 371.20 L 150.04 371.18 L 150.05 371.18 L 150.07 371.18 L 150.09 368.06 L 150.20 367.68 L 150.43 367.66 L 150.78 367.41 L 150.96 365.82 L 151.32 365.72 L 151.38 365.64 L 151.43 365.60 L 151.85 364.83 L 152.63 364.20 L 152.87 361.75 L 152.94 361.75 L 153.41 361.65 L 153.95 361.64 L 153.96 361.64 L 153.96 361.64 L 161.30 361.64 L 161.35 361.64 L 161.45 361.62 L 161.48 361.59 L 161.76 361.45 L 161.89 361.41 L 162.20 361.18 L 162.25 361.08 L 162.33 360.86 L 162.43 360.83 L 162.45 360.83 L 162.53 360.77 L 162.61 360.77 L 162.69 360.77 L 162.90 360.41 L 163.08 360.18 L 163.11 360.18 L 163.20 360.05 L 163.78 360.61 L 163.79 360.61 L 163.87 360.52 L 164.20 360.10 L 164.47 359.60 L 164.77 359.38 L 164.83 359.34 L 164.84 359.34 L 164.90 359.14 L 165.01 359.14 L 165.16 359.07 L 165.44 358.88 L 165.46 358.59 L 165.51 358.59 L 165.58 358.44 L 165.75 358.44 L 165.77 358.44 L 165.94 358.02 L 166.01 358.00 L 166.07 357.97 L 166.14 357.80 L 167.03 357.57 L 167.24 357.53 L 167.74 357.23 L 167.85 357.23 L 167.93 357.22 L 167.97 357.00 L 168.31 355.76 L 168.46 355.74 L 168.64 355.32 L 168.73 355.29 L 168.93 354.94 L 169.02 354.82 L 169.15 354.60 L 169.26 354.40 L 169.65 351.54 L 169.67 351.47 L 169.68 351.30 L 169.82 349.93 L 176.63 349.83 L 177.33 348.27 L 177.35 348.23 L 178.19 347.98 L 178.26 347.97 L 178.33 347.67 L 178.54 347.51 L 178.63 347.24 L 178.66 347.01 L 178.77 346.60 L 179.01 346.59 L 179.02 346.31 L 179.11 346.01 L 179.21 346.00 L 179.31 345.66 L 179.45 345.41 L 179.50 345.29 L 179.52 345.28 L 179.63 345.02 L 179.65 345.01 L 179.78 344.74 L 179.80 344.73 L 180.00 343.44 L 180.03 343.44 L 180.10 343.23 L 180.18 343.22 L 180.29 343.22 L 180.34 343.19 L 180.72 342.95 L 180.73 342.95 L 180.80 342.38 L 180.97 342.37 L 181.13 341.51 L 181.17 341.43 L 181.25 341.43 L 181.28 341.39 L 181.37 340.73 L 181.80 335.12 L 181.84 334.85 L 181.99 334.83 L 182.03 334.76 L 182.07 334.74 L 182.13 334.59 L 182.20 333.96 L 182.35 333.83 L 182.46 333.81 L 182.54 333.53 L 182.59 333.52 L 182.98 333.32 L 183.19 333.16 L 183.25 332.91 L 183.43 332.89 L 183.44 332.89 L 183.46 332.87 L 183.57 331.52 L 183.66 331.44 L 183.98 330.08 L 184.03 329.69 L 184.09 329.68 L 184.18 329.53 L 184.18 329.43 L 184.22 329.36 L 184.25 329.33 L 184.30 329.32 L 184.34 329.25 L 184.46 328.14 L 184.55 327.98 L 184.64 327.65 L 184.77 327.63 L 184.90 327.53 L 185.04 326.74 L 185.14 325.65 L 185.34 325.59 L 185.34 325.18 L 185.46 325.05 L 194.96 325.05 L 195.14 325.04 L 195.59 324.46 L 195.68 324.45 L 195.75 324.45 L 195.77 324.30 L 195.93 324.12 L 196.04 324.09 L 196.11 323.99 L 196.18 323.91 L 196.21 323.87 L 196.39 323.82 L 196.73 323.75 L 196.81 323.45 L 196.88 323.38 L 196.96 323.37 L 197.40 323.22 L 197.46 323.13 L 197.49 323.13 L 197.52 323.02 L 197.62 322.97 L 197.69 322.86 L 198.01 322.13 L 198.47 322.02 L 198.64 321.97 L 199.14 321.78 L 199.39 318.26 L 199.47 318.19 L 199.57 317.84 L 199.72 317.38 L 199.95 317.25 L 200.28 317.24 L 200.71 317.22 L 200.77 317.07 L 201.09 316.91 L 201.29 316.65 L 201.35 316.55 L 201.48 316.51 L 201.57 316.19 L 202.70 315.85 L 203.77 315.85 L 213.33 315.82 L 213.40 315.66 L 213.45 315.57 L 213.75 315.41 L 214.64 314.20 L 214.68 314.12 L 214.80 313.81 L 215.24 313.73 L 215.45 312.90 L 215.77 312.90 L 215.84 312.88 L 215.91 312.32 L 216.47 309.12 L 216.53 309.11 L 216.65 309.08 L 216.77 309.04 L 216.83 308.69 L 217.14 307.49 L 217.25 307.26 L 217.30 307.25 L 217.37 306.69 L 217.51 305.90 L 217.56 305.07 L 217.70 304.69 L 218.12 300.53 L 218.16 300.11 L 218.20 300.11 L 218.26 300.03 L 218.37 299.93 L 218.41 299.89 L 218.44 299.84 L 218.64 298.84 L 218.69 298.14 L 218.93 298.00 L 219.08 296.95 L 219.17 296.29 L 219.91 286.57 L 220.00 286.55 L 248.11 286.08 L 248.13 286.08 L 258.88 285.95 L 259.46 285.69 L 259.58 285.69 L 259.74 285.61 L 259.79 285.49 L 259.86 285.45 L 264.51 285.39 L 265.13 283.54 L 265.36 283.37 L 265.48 282.69 L 268.38 282.56 L 268.40 282.37 L 268.58 282.35 L 269.45 281.19 L 269.50 280.97 L 269.60 280.90 L 269.91 280.82 L 269.95 280.79 L 270.07 280.44 L 270.20 280.34 L 270.22 280.08 L 279.25 279.73 L 279.32 278.73 L 279.68 278.51 L 279.69 276.85 L 279.75 276.60 L 279.82 276.19 L 279.92 275.04 L 280.08 274.43 L 280.20 273.72 L 280.32 273.71 L 280.37 273.17 L 280.55 273.12 L 281.17 270.44 L 281.43 270.15 L 281.47 269.98 L 281.52 269.98 L 281.56 269.79 L 281.64 269.13 L 281.90 268.82 L 281.93 268.77 L 282.09 266.41 L 282.15 266.41 L 282.17 266.15 L 282.23 265.96 L 282.27 265.95 L 282.30 265.60 L 282.50 264.32 L 282.59 263.96 L 282.70 263.91 L 282.77 260.50 L 282.81 260.22 L 283.00 258.27 L 283.06 258.12 L 283.10 258.12 L 283.15 258.11 L 283.18 257.84 L 283.21 257.85 L 283.22 257.84 L 283.32 254.39 L 283.35 254.09 L 283.45 254.08 L 283.52 254.02 L 283.72 253.92 L 283.97 253.79 L 283.98 253.79 L 284.05 253.75 L 284.28 253.68 L 284.39 253.68 L 284.50 253.68 L 284.62 252.18 L 284.69 251.82 L 285.01 251.81 L 285.04 251.57 L 285.08 251.57 L 285.11 251.32 L 285.32 249.14 L 285.35 249.09 L 285.50 249.07 L 299.40 249.01 L 300.19 248.90 L 300.21 248.90 L 300.37 248.90 L 300.38 248.90 L 300.48 248.47 L 300.56 248.45 L 300.63 248.24 L 300.72 248.18 L 300.75 248.15 L 300.79 248.14 L 300.94 247.89 L 301.24 247.68 L 301.43 246.98 L 301.64 246.31 L 301.65 246.28 L 301.68 245.66 L 301.71 245.64 L 302.13 245.27 L 302.13 245.22 L 302.20 244.73 L 302.38 244.68 L 302.49 244.63 L 302.51 243.75 L 302.52 243.71 L 302.57 244.54 L 302.60 244.03 L 302.62 244.01 L 302.72 242.83 L 302.73 242.80 L 302.95 242.70 L 303.54 242.68 L 303.68 242.64 L 303.72 242.63 L 303.75 242.48 L 303.79 242.48 L 303.87 241.89 L 313.37 240.77 L 313.38 240.62 L 313.46 240.51 L 313.48 240.29 L 313.54 230.46 L 313.64 226.43 L 313.65 226.41 L 313.83 226.33 L 313.87 226.33 L 313.90 225.87 L 314.05 225.82 L 314.46 224.87 L 314.48 224.85 L 314.58 224.56 L 314.62 224.57 L 314.64 224.09 L 314.98 223.53 L 314.99 223.51 L 315.51 223.29 L 315.58 222.79 L 315.76 222.80 L 315.98 221.53 L 316.03 221.03 L 316.07 220.63 L 316.16 220.14 L 316.43 219.96 L 316.48 219.84 L 316.60 219.73 L 316.73 219.73 L 317.13 219.73 L 317.17 219.73 L 317.26 219.71 L 317.27 219.71 L 317.40 219.72 L 317.70 219.70 L 318.01 219.51 L 318.06 219.51 L 318.13 219.44 L 318.22 219.30 L 318.46 219.30 L 318.86 219.12 L 318.99 218.73 L 319.21 215.34 L 320.08 218.21 L 320.27 218.19 L 320.41 218.18 L 320.63 218.17 L 320.70 218.12 L 320.92 217.96 L 321.26 217.73 L 321.30 217.57 L 321.37 217.51 L 321.41 217.52 L 321.44 217.47 L 321.71 217.26 L 328.01 217.26 L 328.06 217.26 L 328.46 217.25 L 328.49 217.23 L 328.58 216.80 L 328.65 216.56 L 328.66 216.56 L 328.88 216.52 L 328.93 216.50 L 330.22 215.86 L 330.37 215.81 L 330.49 215.79 L 330.51 215.79 L 330.91 215.64 L 331.05 215.72 L 331.07 215.71 L 331.28 215.67 L 331.52 214.33 L 331.55 214.32 L 331.74 214.17 L 331.82 214.17 L 331.90 214.17 L 332.06 214.02 L 332.41 213.47 L 332.48 213.46 L 332.54 213.30 L 332.69 212.67 L 333.03 212.00 L 333.34 208.89 L 333.40 208.50 L 333.72 208.35 L 333.77 208.27 L 333.82 208.12 L 333.85 207.62 L 333.96 206.72 L 333.99 206.76 L 334.04 206.74 L 334.22 206.74 L 334.49 206.41 L 334.66 206.35 L 334.86 206.33 L 334.95 206.32 L 335.14 206.31 L 335.46 206.31 L 335.77 206.30 L 336.01 206.30 L 336.07 206.29 L 336.13 206.28 L 336.13 206.17 L 336.32 206.11 L 336.37 206.10 L 336.45 205.96 L 336.96 205.94 L 336.97 205.67 L 337.11 205.66 L 337.72 205.66 L 338.12 205.50 L 338.41 205.30 L 338.42 205.19 L 338.44 205.19 L 347.26 205.00 L 347.28 205.00 L 347.39 204.99 L 347.43 204.83 L 347.47 204.82 L 347.47 204.81 L 347.85 204.76 L 347.93 204.20 L 348.04 204.07 L 348.23 202.96 L 348.35 202.95 L 348.50 202.48 L 348.59 202.53 L 348.63 202.53 L 348.67 201.99 L 348.78 201.62 L 348.80 201.23 L 348.84 201.17 L 348.93 201.14 L 348.99 200.96 L 349.07 203.08 L 349.18 203.04 L 349.39 202.20 L 349.49 201.99 L 349.57 201.81 L 350.11 200.59 L 350.58 200.00 L 351.14 198.88 L 351.28 198.82 L 351.44 198.82 L 351.61 198.77 L 354.85 198.45 L 355.12 198.43 L 385.82 197.57 L 482.52 197.37 L 482.84 197.02 L 483.06 196.98 L 483.28 196.98 L 483.62 196.32 L 483.73 196.00 L 483.82 195.40 L 483.97 193.69 L 484.20 194.04 L 484.38 193.67 L 484.42 193.67 L 484.57 193.55 L 484.60 193.56 L 484.76 192.93 L 484.90 191.93 L 485.34 190.86 L 485.36 190.77 L 485.48 189.50 L 485.90 186.35 L 485.91 186.25 L 485.99 186.18 L 486.09 185.05 L 486.54 183.54 L 486.55 183.40 L 486.65 183.33 L 486.75 182.58 L 486.92 181.99 L 486.93 181.88 L 487.00 180.73 L 487.02 180.70 L 487.06 180.38 L 487.25 178.33 L 487.27 178.21 L 487.34 178.09 L 487.54 177.82 L 487.58 177.81 L 487.75 177.42 L 488.01 177.47 L 488.05 177.42 L 488.09 177.39 L 488.14 177.36 L 488.27 176.16 L 488.42 175.17 L 488.44 175.09 L 488.51 173.86 L 488.60 172.66 L 488.62 172.52 L 488.70 171.11 L 488.74 170.01 L 488.91 169.26 L 488.93 169.21 L 489.01 168.98 L 489.13 168.96 L 489.82 168.93 L 490.17 168.90 L 497.72 168.94 L 497.80 168.73 L 497.87 168.54 L 498.00 167.72 L 498.29 167.50 L 498.31 167.42 L 498.36 166.33 L 498.54 165.28 L 498.56 165.19 L 500.21 165.11 L 500.31 164.52 L 501.14 164.34 L 501.23 164.30 L 501.33 163.07 L 502.33 161.91 L 502.76 161.47 L 502.87 160.57 L 503.23 159.03 L 503.45 158.58 L 503.82 157.67 L 504.49 157.21 L 514.59 157.20 L 515.20 157.10 L 515.23 157.12 L 516.07 156.94 L 516.12 156.85 L 516.41 156.78 L 516.76 155.77 L 516.76 155.77 L 516.79 155.73 L 517.24 154.58 L 518.28 153.93 L 518.35 153.87 L 518.46 153.86 L 518.62 153.55 L 518.66 153.47 L 518.72 153.42 L 519.20 153.37 L 519.59 153.37 L 519.80 153.37 L 519.83 153.33 L 520.26 152.32 L 520.59 152.13 L 520.61 152.06 L 520.65 151.98 L 520.69 151.70 L 531.66 151.32 L 531.69 151.30 L 531.72 151.28 L 531.93 151.17 L 532.10 151.05 L 533.06 149.50 L 533.30 149.32 L 534.00 148.85 L 534.60 148.74 L 535.04 148.59 L 535.17 147.16 L 535.72 145.49 L 535.93 145.37 L 536.00 144.30 L 537.62 142.31 L 537.64 142.31 L 537.73 141.83 L 538.04 141.78 L 538.04 141.78 L 538.06 141.66 L 538.11 141.50 L 538.25 141.35 L 538.43 140.51 L 540.11 138.51 L 540.33 138.27 L 540.48 137.91 L 540.51 137.86 L 540.54 137.58 L 548.01 136.68 L 548.25 135.99 L 548.39 135.96 L 548.45 135.50 L 549.15 135.29 L 549.30 134.83 L 549.43 134.83 L 549.51 133.87 L 549.75 131.42 L 549.78 131.39 L 550.10 131.34 L 550.17 130.55 L 550.44 129.59 L 550.49 128.92 L 550.72 128.32 L 550.88 127.99 L 551.01 127.26 L 551.29 126.64 L 551.32 125.94 L 551.68 125.78 L 551.71 125.78 L 551.77 124.89 L 551.84 124.89 L 551.88 124.82 L 552.30 123.16 L 552.90 122.62 L 553.20 122.80 L 554.19 122.72 L 554.21 122.71 L 554.37 122.69 L 554.44 122.68 L 554.55 122.56 L 554.67 122.47 L 554.80 122.28 L 555.10 122.04 L 555.38 122.03 L 556.27 121.86 L 556.31 121.85 L 557.19 121.70 L 557.57 121.59 L 565.13 121.58 L 565.51 121.45 L 565.70 121.37 L 565.78 121.37 L 565.81 121.37 L 566.00 121.35 L 566.08 121.30 L 566.31 121.14 L 566.44 121.11 L 566.93 120.94 L 567.19 120.56 L 567.62 120.51 L 567.73 120.27 L 567.88 120.12 L 568.07 119.93 L 568.72 119.98 L 568.78 119.96 L 569.73 119.50 L 569.88 119.23 L 570.07 119.14 L 570.53 118.92 L 570.75 118.98 L 570.86 119.34 L 570.95 119.32 L 571.08 119.17 L 571.48 118.08 L 571.91 117.96 L 572.29 117.87 L 572.34 117.82 L 572.38 117.51 L 599.72 117.43 L 599.90 117.30 L 615.63 116.95 L 615.71 117.34 L 615.84 115.67 L 615.86 115.67 L 615.91 115.71 L 616.47 112.32 L 616.53 112.29 L 617.22 112.37 L 617.93 112.16 L 618.17 111.84 L 618.61 111.43 L 619.20 111.16 L 619.21 111.16 L 619.29 111.09 L 619.52 111.03 L 619.59 110.86 L 620.16 110.04 L 620.89 109.87 L 620.97 109.71 L 621.34 109.63 L 621.45 110.29 L 621.73 110.05 L 621.97 109.99 L 622.45 109.81 L 622.91 109.73 L 623.13 109.37 L 623.15 109.37 L 632.99 109.35 L 636.08 108.42 L 636.21 107.98 L 636.36 107.55 L 636.86 107.52 L 637.06 107.38 L 637.22 105.20 L 637.32 103.79 L 637.56 103.66 L 637.59 103.63 L 637.94 103.22 L 638.05 103.00 L 638.11 102.89 L 638.29 102.54 L 638.36 102.51 L 638.46 102.47 L 638.53 102.26 L 638.61 102.03 L 638.71 101.90 L 638.78 101.86 L 639.10 101.77 L 639.26 101.52 L 639.38 101.39 L 639.42 100.70 L 639.79 100.56 L 639.92 100.16 L 649.20 100.25 L 649.88 100.00 L 650.00 100.00"/>
	</g>
	<g id="poloto_plot1" class="poloto_plot poloto_imgs poloto_line poloto1 poloto_stroke" fill="none" stroke="black">
		<path d=" M 150.00 382.90 L 150.02 382.88 L 150.04 382.87 L 150.05 382.87 L 150.07 382.87 L 150.09 382.33 L 150.20 382.31 L 150.43 382.30 L 150.78 382.10 L 150.96 382.01 L 151.32 382.03 L 151.38 381.99 L 151.43 381.99 L 151.85 381.95 L 152.63 381.85 L 152.87 379.73 L 152.94 379.73 L 153.41 379.68 L 153.95 379.68 L 153.96 379.68 L 153.96 379.68 L 161.30 379.68 L 161.35 379.68 L 161.45 379.67 L 161.48 379.64 L 161.76 379.63 L 161.89 379.63 L 162.20 379.63 L 162.25 379.63 L 162.33 379.62 L 162.43 379.62 L 162.45 379.62 L 162.53 379.59 L 162.61 379.59 L 162.69 379.59 L 162.90 379.48 L 163.08 379.48 L 163.11 379.48 L 163.20 379.48 L 163.78 380.27 L 163.79 380.27 L 163.87 380.26 L 164.20 380.14 L 164.47 380.01 L 164.77 379.95 L 164.83 379.91 L 164.84 379.91 L 164.90 379.91 L 165.01 379.91 L 165.16 379.86 L 165.44 379.81 L 165.46 379.81 L 165.51 379.81 L 165.58 379.79 L 165.75 379.79 L 165.77 379.79 L 165.94 379.78 L 166.01 379.78 L 166.07 379.78 L 166.14 379.78 L 167.03 379.69 L 167.24 379.68 L 167.74 379.64 L 167.85 379.64 L 167.93 379.64 L 167.97 379.64 L 168.31 379.57 L 168.46 379.57 L 168.64 379.50 L 168.73 379.49 L 168.93 379.32 L 169.02 379.25 L 169.15 379.25 L 169.26 379.25 L 169.65 376.78 L 169.67 376.74 L 169.68 376.74 L 169.82 376.50 L 176.63 376.50 L 177.33 375.43 L 177.35 375.43 L 178.19 375.43 L 178.26 375.43 L 178.33 375.32 L 178.54 375.30 L 178.63 375.30 L 178.66 375.30 L 178.77 375.30 L 179.01 375.30 L 179.02 375.07 L 179.11 375.06 L 179.21 375.06 L 179.31 375.04 L 179.45 375.03 L 179.50 375.03 L 179.52 375.03 L 179.63 375.03 L 179.65 375.03 L 179.78 375.03 L 179.80 375.03 L 180.00 373.99 L 180.03 373.99 L 180.10 373.86 L 180.18 373.86 L 180.29 373.86 L 180.34 373.85 L 180.72 373.84 L 180.73 373.84 L 180.80 373.78 L 180.97 373.78 L 181.13 373.18 L 181.17 373.10 L 181.25 373.10 L 181.28 373.10 L 181.37 373.09 L 181.80 368.67 L 181.84 368.71 L 181.99 368.71 L 182.03 368.71 L 182.07 368.70 L 182.13 368.70 L 182.20 368.64 L 182.35 368.64 L 182.46 368.64 L 182.54 368.63 L 182.59 368.63 L 182.98 368.63 L 183.19 368.62 L 183.25 368.51 L 183.43 368.51 L 183.44 368.51 L 183.46 368.51 L 183.57 368.22 L 183.66 368.14 L 183.98 367.09 L 184.03 367.09 L 184.09 367.09 L 184.18 367.10 L 184.18 367.10 L 184.22 367.10 L 184.25 367.10 L 184.30 367.10 L 184.34 367.10 L 184.46 367.08 L 184.55 367.08 L 184.64 367.07 L 184.77 367.07 L 184.90 367.06 L 185.04 366.67 L 185.14 366.54 L 185.34 366.54 L 185.34 366.54 L 185.46 366.54 L 194.96 366.54 L 195.14 366.53 L 195.59 366.46 L 195.68 366.45 L 195.75 366.45 L 195.77 366.45 L 195.93 366.45 L 196.04 366.45 L 196.11 366.45 L 196.18 366.45 L 196.21 366.45 L 196.39 366.45 L 196.73 366.47 L 196.81 366.47 L 196.88 366.47 L 196.96 366.47 L 197.40 366.38 L 197.46 366.34 L 197.49 366.34 L 197.52 366.29 L 197.62 366.28 L 197.69 366.28 L 198.01 365.88 L 198.47 365.88 L 198.64 365.88 L 199.14 365.88 L 199.39 363.18 L 199.47 363.18 L 199.57 363.18 L 199.72 363.17 L 199.95 363.17 L 200.28 363.17 L 200.71 363.17 L 200.77 363.17 L 201.09 363.11 L 201.29 362.99 L 201.35 362.99 L 201.48 362.99 L 201.57 362.98 L 202.70 362.81 L 203.77 362.81 L 213.33 362.81 L 213.40 362.81 L 213.45 362.81 L 213.75 362.81 L 214.64 361.95 L 214.68 361.93 L 214.80 361.84 L 215.24 361.83 L 215.45 361.63 L 215.77 361.63 L 215.84 361.63 L 215.91 361.63 L 216.47 359.26 L 216.53 359.26 L 216.65 359.26 L 216.77 359.26 L 216.83 359.11 L 217.14 358.82 L 217.25 358.82 L 217.30 358.82 L 217.37 358.38 L 217.51 357.95 L 217.56 357.95 L 217.70 357.94 L 218.12 354.40 L 218.16 354.40 L 218.20 354.40 L 218.26 354.40 L 218.37 354.40 L 218.41 354.40 L 218.44 354.40 L 218.64 354.40 L 218.69 354.33 L 218.93 354.31 L 219.08 354.26 L 219.17 353.84 L 219.91 346.80 L 220.00 346.80 L 248.11 346.80 L 248.13 346.80 L 258.88 346.80 L 259.46 346.69 L 259.58 346.69 L 259.74 346.69 L 259.79 346.69 L 259.86 346.69 L 264.51 346.64 L 265.13 346.57 L 265.36 346.57 L 265.48 346.55 L 268.38 346.49 L 268.40 346.40 L 268.58 346.40 L 269.45 345.44 L 269.50 345.44 L 269.60 345.44 L 269.91 345.44 L 269.95 345.44 L 270.07 345.44 L 270.20 345.44 L 270.22 345.44 L 279.25 345.43 L 279.32 345.26 L 279.68 345.26 L 279.69 344.11 L 279.75 344.11 L 279.82 344.11 L 279.92 344.00 L 280.08 344.00 L 280.20 343.95 L 280.32 343.95 L 280.37 343.95 L 280.55 343.94 L 281.17 341.99 L 281.43 341.98 L 281.47 341.97 L 281.52 341.97 L 281.56 341.97 L 281.64 341.94 L 281.90 341.70 L 281.93 341.67 L 282.09 339.91 L 282.15 339.91 L 282.17 339.91 L 282.23 339.88 L 282.27 339.88 L 282.30 339.88 L 282.50 338.92 L 282.59 338.91 L 282.70 338.89 L 282.77 335.92 L 282.81 335.92 L 283.00 334.25 L 283.06 334.25 L 283.10 334.25 L 283.15 334.25 L 283.18 334.25 L 283.21 334.25 L 283.22 334.25 L 283.32 331.16 L 283.35 331.15 L 283.45 331.14 L 283.52 331.14 L 283.72 331.08 L 283.97 331.00 L 283.98 331.00 L 284.05 330.98 L 284.28 330.93 L 284.39 330.93 L 284.50 330.93 L 284.62 329.59 L 284.69 329.59 L 285.01 329.59 L 285.04 329.58 L 285.08 329.58 L 285.11 329.58 L 285.32 327.68 L 285.35 327.68 L 285.50 327.67 L 299.40 327.67 L 300.19 327.66 L 300.21 327.66 L 300.37 327.66 L 300.38 327.66 L 300.48 327.66 L 300.56 327.66 L 300.63 327.56 L 300.72 327.56 L 300.75 327.56 L 300.79 327.56 L 300.94 327.39 L 301.24 327.28 L 301.43 327.17 L 301.64 326.63 L 301.65 326.63 L 301.68 326.49 L 301.71 326.48 L 302.13 326.15 L 302.13 326.15 L 302.20 326.10 L 302.38 326.10 L 302.49 326.07 L 302.51 325.28 L 302.52 325.28 L 302.57 326.06 L 302.60 326.02 L 302.62 326.01 L 302.72 324.95 L 302.73 324.95 L 302.95 324.90 L 303.54 324.90 L 303.68 324.90 L 303.72 324.90 L 303.75 324.90 L 303.79 324.90 L 303.87 324.83 L 313.37 323.95 L 313.38 323.95 L 313.46 323.95 L 313.48 323.76 L 313.54 314.37 L 313.64 310.88 L 313.65 310.88 L 313.83 310.81 L 313.87 310.81 L 313.90 310.80 L 314.05 310.80 L 314.46 309.94 L 314.48 309.94 L 314.58 309.90 L 314.62 309.90 L 314.64 309.82 L 314.98 309.32 L 314.99 309.32 L 315.51 309.21 L 315.58 309.17 L 315.76 309.18 L 315.98 308.03 L 316.03 307.91 L 316.07 307.81 L 316.16 307.37 L 316.43 307.27 L 316.48 307.17 L 316.60 307.17 L 316.73 307.17 L 317.13 307.17 L 317.17 307.17 L 317.26 307.17 L 317.27 307.17 L 317.40 307.19 L 317.70 307.19 L 318.01 307.07 L 318.06 307.07 L 318.13 307.05 L 318.22 307.05 L 318.46 307.05 L 318.86 307.05 L 318.99 306.95 L 319.21 303.92 L 320.08 306.78 L 320.27 306.77 L 320.41 306.76 L 320.63 306.76 L 320.70 306.73 L 320.92 306.71 L 321.26 306.53 L 321.30 306.53 L 321.37 306.53 L 321.41 306.53 L 321.44 306.53 L 321.71 306.37 L 328.01 306.37 L 328.06 306.37 L 328.46 306.36 L 328.49 306.36 L 328.58 306.33 L 328.65 306.12 L 328.66 306.11 L 328.88 306.09 L 328.93 306.09 L 330.22 305.92 L 330.37 305.92 L 330.49 305.92 L 330.51 305.92 L 330.91 305.79 L 331.05 305.79 L 331.07 305.79 L 331.28 305.79 L 331.52 305.07 L 331.55 305.07 L 331.74 304.95 L 331.82 304.95 L 331.90 304.95 L 332.06 304.95 L 332.41 304.94 L 332.48 304.92 L 332.54 304.85 L 332.69 304.73 L 333.03 304.62 L 333.34 301.76 L 333.40 301.67 L 333.72 301.53 L 333.77 301.50 L 333.82 301.40 L 333.85 301.20 L 333.96 300.34 L 333.99 300.38 L 334.04 300.36 L 334.22 300.35 L 334.49 300.24 L 334.66 300.19 L 334.86 300.18 L 334.95 300.17 L 335.14 300.16 L 335.46 300.16 L 335.77 300.15 L 336.01 300.15 L 336.07 300.14 L 336.13 300.14 L 336.13 300.14 L 336.32 300.14 L 336.37 300.12 L 336.45 300.02 L 336.96 300.01 L 336.97 300.01 L 337.11 299.99 L 337.72 299.99 L 338.12 299.85 L 338.41 299.73 L 338.42 299.73 L 338.44 299.73 L 347.26 299.73 L 347.28 299.73 L 347.39 299.73 L 347.43 299.73 L 347.47 299.71 L 347.47 299.71 L 347.85 299.71 L 347.93 299.70 L 348.04 299.68 L 348.23 299.66 L 348.35 299.66 L 348.50 299.59 L 348.59 299.59 L 348.63 299.59 L 348.67 299.59 L 348.78 299.33 L 348.80 299.33 L 348.84 299.33 L 348.93 299.33 L 348.99 299.33 L 349.07 299.39 L 349.18 299.39 L 349.39 299.38 L 349.49 299.38 L 349.57 299.38 L 350.11 298.54 L 350.58 298.32 L 351.14 297.72 L 351.28 297.72 L 351.44 297.72 L 351.61 297.72 L 354.85 297.64 L 355.12 297.64 L 385.82 297.53 L 482.52 297.38 L 482.84 297.33 L 483.06 297.32 L 483.28 297.32 L 483.62 296.93 L 483.73 296.93 L 483.82 296.93 L 483.97 295.52 L 484.20 295.79 L 484.38 295.77 L 484.42 295.77 L 484.57 295.76 L 484.60 295.76 L 484.76 295.76 L 484.90 295.69 L 485.34 294.80 L 485.36 294.80 L 485.48 294.72 L 485.90 291.84 L 485.91 291.84 L 485.99 291.84 L 486.09 291.79 L 486.54 290.45 L 486.55 290.45 L 486.65 290.45 L 486.75 290.42 L 486.92 289.93 L 486.93 289.93 L 487.00 289.92 L 487.02 289.92 L 487.06 289.65 L 487.25 287.75 L 487.27 287.75 L 487.34 287.75 L 487.54 287.59 L 487.58 287.59 L 487.75 287.27 L 488.01 287.27 L 488.05 287.27 L 488.09 287.27 L 488.14 287.27 L 488.27 287.26 L 488.42 286.40 L 488.44 286.40 L 488.51 286.40 L 488.60 285.75 L 488.62 285.75 L 488.70 285.06 L 488.74 285.02 L 488.91 284.33 L 488.93 284.33 L 489.01 284.33 L 489.13 284.32 L 489.82 284.32 L 490.17 284.32 L 497.72 284.32 L 497.80 284.32 L 497.87 284.32 L 498.00 284.32 L 498.29 284.13 L 498.31 284.13 L 498.36 284.08 L 498.54 283.13 L 498.56 283.13 L 500.21 283.14 L 500.31 282.96 L 501.14 282.96 L 501.23 282.95 L 501.33 282.88 L 502.33 282.10 L 502.76 281.95 L 502.87 281.90 L 503.23 280.41 L 503.45 280.41 L 503.82 280.28 L 504.49 280.28 L 514.59 280.28 L 515.20 280.19 L 515.23 280.21 L 516.07 280.21 L 516.12 280.21 L 516.41 280.21 L 516.76 280.18 L 516.76 280.18 L 516.79 280.18 L 517.24 279.31 L 518.28 279.29 L 518.35 279.28 L 518.46 279.28 L 518.62 279.25 L 518.66 279.22 L 518.72 279.22 L 519.20 279.18 L 519.59 279.18 L 519.80 279.18 L 519.83 279.18 L 520.26 279.16 L 520.59 279.06 L 520.61 279.06 L 520.65 279.06 L 520.69 279.06 L 531.66 278.85 L 531.69 278.85 L 531.72 278.85 L 531.93 278.85 L 532.10 278.85 L 533.06 277.99 L 533.30 277.94 L 534.00 277.88 L 534.60 277.83 L 535.04 277.83 L 535.17 277.83 L 535.72 276.53 L 535.93 276.50 L 536.00 276.45 L 537.62 275.54 L 537.64 275.54 L 537.73 275.53 L 538.04 275.52 L 538.04 275.52 L 538.06 275.52 L 538.11 275.49 L 538.25 275.45 L 538.43 275.35 L 540.11 273.85 L 540.33 273.77 L 540.48 273.77 L 540.51 273.77 L 540.54 273.77 L 548.01 273.77 L 548.25 273.76 L 548.39 273.76 L 548.45 273.76 L 549.15 273.76 L 549.30 273.76 L 549.43 273.76 L 549.51 273.73 L 549.75 271.76 L 549.78 271.74 L 550.10 271.75 L 550.17 271.74 L 550.44 270.97 L 550.49 270.93 L 550.72 270.43 L 550.88 270.43 L 551.01 270.39 L 551.29 269.93 L 551.32 269.92 L 551.68 268.46 L 551.71 268.46 L 551.77 268.45 L 551.84 268.45 L 551.88 268.45 L 552.30 266.98 L 552.90 266.85 L 553.20 266.85 L 554.19 266.81 L 554.21 266.81 L 554.37 266.81 L 554.44 266.81 L 554.55 266.81 L 554.67 266.81 L 554.80 266.79 L 555.10 266.77 L 555.38 266.77 L 556.27 266.71 L 556.31 266.71 L 557.19 266.67 L 557.57 266.63 L 565.13 266.64 L 565.51 266.57 L 565.70 266.50 L 565.78 266.50 L 565.81 266.50 L 566.00 266.49 L 566.08 266.49 L 566.31 266.49 L 566.44 266.48 L 566.93 266.35 L 567.19 266.08 L 567.62 266.06 L 567.73 265.89 L 567.88 265.81 L 568.07 265.72 L 568.72 265.81 L 568.78 265.81 L 569.73 265.53 L 569.88 265.53 L 570.07 265.53 L 570.53 265.50 L 570.75 265.64 L 570.86 265.64 L 570.95 265.64 L 571.08 265.64 L 571.48 265.00 L 571.91 264.99 L 572.29 264.99 L 572.34 264.99 L 572.38 264.99 L 599.72 264.99 L 599.90 264.94 L 615.63 264.73 L 615.71 264.73 L 615.84 264.67 L 615.86 264.67 L 615.91 264.67 L 616.47 262.23 L 616.53 262.23 L 617.22 262.23 L 617.93 262.12 L 618.17 261.87 L 618.61 261.56 L 619.20 261.48 L 619.21 261.48 L 619.29 261.43 L 619.52 261.43 L 619.59 261.38 L 620.16 260.72 L 620.89 260.61 L 620.97 260.61 L 621.34 260.61 L 621.45 260.61 L 621.73 260.45 L 621.97 260.42 L 622.45 260.28 L 622.91 260.21 L 623.13 260.21 L 623.15 260.21 L 632.99 260.21 L 636.08 260.16 L 636.21 260.14 L 636.36 259.84 L 636.86 259.86 L 637.06 259.86 L 637.22 259.86 L 637.32 259.74 L 637.56 259.65 L 637.59 259.64 L 637.94 259.41 L 638.05 259.24 L 638.11 259.19 L 638.29 259.08 L 638.36 259.07 L 638.46 259.06 L 638.53 258.92 L 638.61 258.76 L 638.71 258.73 L 638.78 258.73 L 639.10 258.67 L 639.26 258.55 L 639.38 258.46 L 639.42 258.46 L 639.79 258.46 L 639.92 258.46 L 649.20 258.48 L 649.88 258.46 L 650.00 258.46"/>
	</g>
	<g id="poloto_plot2" class="poloto_plot poloto_imgs poloto_line poloto2 poloto_stroke" fill="none" stroke="black">
		<path d=" M 150.00 392.33 L 150.02 392.32 L 150.04 392.32 L 150.05 392.32 L 150.07 392.32 L 150.09 390.36 L 150.20 390.09 L 150.43 390.08 L 150.78 390.07 L 150.96 388.90 L 151.32 388.79 L 151.38 388.76 L 151.43 388.73 L 151.85 388.20 L 152.63 387.79 L 152.87 387.71 L 152.94 387.72 L 153.41 387.68 L 153.95 387.68 L 153.96 387.68 L 153.96 387.68 L 161.30 387.68 L 161.35 387.68 L 161.45 387.66 L 161.48 387.66 L 161.76 387.54 L 161.89 387.51 L 162.20 387.32 L 162.25 387.24 L 162.33 387.06 L 162.43 387.04 L 162.45 387.04 L 162.53 387.00 L 162.61 387.00 L 162.69 387.01 L 162.90 386.81 L 163.08 386.63 L 163.11 386.63 L 163.20 386.52 L 163.78 386.29 L 163.79 386.28 L 163.87 386.21 L 164.20 385.95 L 164.47 385.63 L 164.77 385.50 L 164.83 385.50 L 164.84 385.50 L 164.90 385.32 L 165.01 385.32 L 165.16 385.30 L 165.44 385.17 L 165.46 384.94 L 165.51 384.94 L 165.58 384.83 L 165.75 384.83 L 165.77 384.83 L 165.94 384.48 L 166.01 384.46 L 166.07 384.43 L 166.14 384.27 L 167.03 384.17 L 167.24 384.14 L 167.74 383.90 L 167.85 383.90 L 167.93 383.89 L 167.97 383.71 L 168.31 382.75 L 168.46 382.74 L 168.64 382.45 L 168.73 382.42 L 168.93 382.29 L 169.02 382.25 L 169.15 382.04 L 169.26 381.87 L 169.65 381.87 L 169.67 381.85 L 169.68 381.71 L 169.82 380.78 L 176.63 380.69 L 177.33 380.41 L 177.35 380.37 L 178.19 380.14 L 178.26 380.13 L 178.33 379.96 L 178.54 379.85 L 178.63 379.64 L 178.66 379.46 L 178.77 379.12 L 179.01 379.11 L 179.02 379.11 L 179.11 378.87 L 179.21 378.87 L 179.31 378.61 L 179.45 378.41 L 179.50 378.31 L 179.52 378.30 L 179.63 378.07 L 179.65 378.06 L 179.78 377.85 L 179.80 377.84 L 180.00 377.77 L 180.03 377.77 L 180.10 377.69 L 180.18 377.68 L 180.29 377.68 L 180.34 377.66 L 180.72 377.45 L 180.73 377.46 L 180.80 377.04 L 180.97 377.03 L 181.13 376.90 L 181.17 376.90 L 181.25 376.89 L 181.28 376.86 L 181.37 376.29 L 181.80 375.80 L 181.84 375.54 L 181.99 375.52 L 182.03 375.45 L 182.07 375.44 L 182.13 375.32 L 182.20 374.86 L 182.35 374.79 L 182.46 374.78 L 182.54 374.55 L 182.59 374.55 L 182.98 374.38 L 183.19 374.26 L 183.25 374.15 L 183.43 374.14 L 183.44 374.14 L 183.46 374.12 L 183.57 373.30 L 183.66 373.29 L 183.98 373.18 L 184.03 372.85 L 184.09 372.84 L 184.18 372.71 L 184.18 372.63 L 184.22 372.57 L 184.25 372.54 L 184.30 372.54 L 184.34 372.48 L 184.46 371.55 L 184.55 371.46 L 184.64 371.18 L 184.77 371.16 L 184.90 371.07 L 185.04 370.78 L 185.14 369.98 L 185.34 369.92 L 185.34 369.58 L 185.46 369.50 L 194.96 369.50 L 195.14 369.50 L 195.59 369.12 L 195.68 369.12 L 195.75 369.12 L 195.77 369.02 L 195.93 368.86 L 196.04 368.83 L 196.11 368.73 L 196.18 368.66 L 196.21 368.63 L 196.39 368.58 L 196.73 368.65 L 196.81 368.40 L 196.88 368.33 L 196.96 368.32 L 197.40 368.27 L 197.46 368.23 L 197.49 368.23 L 197.52 368.18 L 197.62 368.14 L 197.69 368.05 L 198.01 367.81 L 198.47 367.71 L 198.64 367.66 L 199.14 367.51 L 199.39 367.14 L 199.47 367.07 L 199.57 366.78 L 199.72 366.40 L 199.95 366.31 L 200.28 366.30 L 200.71 366.28 L 200.77 366.14 L 201.09 366.05 L 201.29 365.93 L 201.35 365.84 L 201.48 365.80 L 201.57 365.55 L 202.70 365.43 L 203.77 365.43 L 213.33 365.40 L 213.40 365.26 L 213.45 365.17 L 213.75 365.03 L 214.64 364.78 L 214.68 364.74 L 214.80 364.57 L 215.24 364.50 L 215.45 364.01 L 215.77 364.00 L 215.84 363.98 L 215.91 363.51 L 216.47 363.06 L 216.53 363.05 L 216.65 363.03 L 216.77 362.99 L 216.83 362.82 L 217.14 362.08 L 217.25 361.89 L 217.30 361.88 L 217.37 361.80 L 217.51 361.51 L 217.56 360.76 L 217.70 360.46 L 218.12 360.28 L 218.16 359.91 L 218.20 359.91 L 218.26 359.84 L 218.37 359.74 L 218.41 359.71 L 218.44 359.67 L 218.64 358.81 L 218.69 358.29 L 218.93 358.20 L 219.08 357.33 L 219.17 357.17 L 219.91 355.81 L 220.00 355.78 L 248.11 355.38 L 248.13 355.38 L 258.88 355.27 L 259.46 355.13 L 259.58 355.13 L 259.74 355.06 L 259.79 354.95 L 259.86 354.92 L 264.51 354.91 L 265.13 353.35 L 265.36 353.21 L 265.48 352.67 L 268.38 352.60 L 268.40 352.55 L 268.58 352.54 L 269.45 352.45 L 269.50 352.27 L 269.60 352.20 L 269.91 352.12 L 269.95 352.10 L 270.07 351.80 L 270.20 351.71 L 270.22 351.47 L 279.25 351.18 L 279.32 350.47 L 279.68 350.28 L 279.69 350.01 L 279.75 349.80 L 279.82 349.47 L 279.92 348.61 L 280.08 348.14 L 280.20 347.53 L 280.32 347.53 L 280.37 347.06 L 280.55 347.03 L 281.17 346.58 L 281.43 346.37 L 281.47 346.25 L 281.52 346.24 L 281.56 346.09 L 281.64 345.56 L 281.90 345.50 L 281.93 345.50 L 282.09 345.15 L 282.15 345.15 L 282.17 344.95 L 282.23 344.83 L 282.27 344.82 L 282.30 344.55 L 282.50 344.38 L 282.59 344.10 L 282.70 344.09 L 282.77 343.95 L 282.81 343.73 L 283.00 343.62 L 283.06 343.50 L 283.10 343.50 L 283.15 343.49 L 283.18 343.28 L 283.21 343.29 L 283.22 343.28 L 283.32 343.21 L 283.35 342.97 L 283.45 342.97 L 283.52 342.91 L 283.72 342.89 L 283.97 342.87 L 283.98 342.87 L 284.05 342.85 L 284.28 342.85 L 284.39 342.85 L 284.50 342.85 L 284.62 342.81 L 284.69 342.52 L 285.01 342.52 L 285.04 342.35 L 285.08 342.35 L 285.11 342.16 L 285.32 342.09 L 285.35 342.05 L 285.50 342.05 L 299.40 342.00 L 300.19 341.92 L 300.21 341.92 L 300.37 341.91 L 300.38 341.92 L 300.48 341.58 L 300.56 341.57 L 300.63 341.47 L 300.72 341.42 L 300.75 341.39 L 300.79 341.37 L 300.94 341.34 L 301.24 341.28 L 301.43 340.82 L 301.64 340.80 L 301.65 340.77 L 301.68 340.39 L 301.71 340.39 L 302.13 340.39 L 302.13 340.35 L 302.20 340.00 L 302.38 339.96 L 302.49 339.94 L 302.51 339.94 L 302.52 339.90 L 302.57 339.87 L 302.60 339.51 L 302.62 339.51 L 302.72 339.51 L 302.73 339.48 L 302.95 339.44 L 303.54 339.43 L 303.68 339.40 L 303.72 339.39 L 303.75 339.27 L 303.79 339.27 L 303.87 338.87 L 313.37 338.75 L 313.38 338.63 L 313.46 338.55 L 313.48 338.54 L 313.54 338.19 L 313.64 338.11 L 313.65 338.09 L 313.83 338.09 L 313.87 338.09 L 313.90 337.74 L 314.05 337.70 L 314.46 337.69 L 314.48 337.67 L 314.58 337.48 L 314.62 337.49 L 314.64 337.17 L 314.98 337.17 L 314.99 337.16 L 315.51 337.08 L 315.58 336.70 L 315.76 336.70 L 315.98 336.70 L 316.03 336.42 L 316.07 336.21 L 316.16 336.20 L 316.43 336.15 L 316.48 336.13 L 316.60 336.05 L 316.73 336.05 L 317.13 336.05 L 317.17 336.05 L 317.26 336.03 L 317.27 336.03 L 317.40 336.03 L 317.70 336.00 L 318.01 335.96 L 318.06 335.96 L 318.13 335.92 L 318.22 335.82 L 318.46 335.82 L 318.86 335.70 L 318.99 335.49 L 319.21 335.46 L 320.08 335.23 L 320.27 335.23 L 320.41 335.23 L 320.63 335.22 L 320.70 335.21 L 320.92 335.09 L 321.26 335.07 L 321.30 334.97 L 321.37 334.92 L 321.41 334.93 L 321.44 334.89 L 321.71 334.88 L 328.01 334.87 L 328.06 334.87 L 328.46 334.87 L 328.49 334.86 L 328.58 334.54 L 328.65 334.53 L 328.66 334.53 L 328.88 334.52 L 328.93 334.51 L 330.22 334.04 L 330.37 333.99 L 330.49 333.98 L 330.51 333.98 L 330.91 333.97 L 331.05 334.03 L 331.07 334.03 L 331.28 334.00 L 331.52 333.56 L 331.55 333.55 L 331.74 333.54 L 331.82 333.54 L 331.90 333.54 L 332.06 333.45 L 332.41 333.05 L 332.48 333.05 L 332.54 332.99 L 332.69 332.62 L 333.03 332.22 L 333.34 332.25 L 333.40 332.03 L 333.72 332.03 L 333.77 332.01 L 333.82 331.98 L 333.85 331.77 L 333.96 331.77 L 333.99 331.77 L 334.04 331.77 L 334.22 331.77 L 334.49 331.60 L 334.66 331.58 L 334.86 331.58 L 334.95 331.58 L 335.14 331.58 L 335.46 331.58 L 335.77 331.58 L 336.01 331.58 L 336.07 331.57 L 336.13 331.57 L 336.13 331.49 L 336.32 331.44 L 336.37 331.44 L 336.45 331.43 L 336.96 331.42 L 336.97 331.22 L 337.11 331.22 L 337.72 331.22 L 338.12 331.22 L 338.41 331.17 L 338.42 331.09 L 338.44 331.09 L 347.26 330.95 L 347.28 330.94 L 347.39 330.93 L 347.43 330.81 L 347.47 330.81 L 347.47 330.80 L 347.85 330.76 L 347.93 330.34 L 348.04 330.24 L 348.23 329.41 L 348.35 329.40 L 348.50 329.05 L 348.59 329.09 L 348.63 329.09 L 348.67 328.63 L 348.78 328.55 L 348.80 328.24 L 348.84 328.19 L 348.93 328.16 L 348.99 328.01 L 349.07 329.87 L 349.18 329.84 L 349.39 329.09 L 349.49 328.93 L 349.57 328.76 L 350.11 328.47 L 350.58 328.15 L 351.14 327.71 L 351.28 327.66 L 351.44 327.66 L 351.61 327.62 L 354.85 327.40 L 355.12 327.38 L 385.82 326.80 L 482.52 326.78 L 482.84 326.51 L 483.06 326.47 L 483.28 326.47 L 483.62 326.24 L 483.73 325.96 L 483.82 325.45 L 483.97 325.31 L 484.20 325.36 L 484.38 325.06 L 484.42 325.05 L 484.57 324.96 L 484.60 324.96 L 484.76 324.46 L 484.90 323.70 L 485.34 323.62 L 485.36 323.54 L 485.48 322.56 L 485.90 322.52 L 485.91 322.42 L 485.99 322.36 L 486.09 321.47 L 486.54 321.42 L 486.55 321.30 L 486.65 321.23 L 486.75 320.65 L 486.92 320.63 L 486.93 320.53 L 487.00 319.55 L 487.02 319.53 L 487.06 319.50 L 487.25 319.50 L 487.27 319.40 L 487.34 319.33 L 487.54 319.23 L 487.58 319.23 L 487.75 319.18 L 488.01 319.22 L 488.05 319.17 L 488.09 319.15 L 488.14 319.12 L 488.27 318.11 L 488.42 318.08 L 488.44 318.00 L 488.51 316.96 L 488.60 316.58 L 488.62 316.44 L 488.70 315.94 L 488.74 315.06 L 488.91 315.05 L 488.93 315.00 L 489.01 314.82 L 489.13 314.81 L 489.82 314.78 L 490.17 314.76 L 497.72 314.80 L 497.80 314.60 L 497.87 314.46 L 498.00 313.75 L 498.29 313.74 L 498.31 313.67 L 498.36 312.79 L 498.54 312.78 L 498.56 312.69 L 500.21 312.60 L 500.31 312.28 L 501.14 312.13 L 501.23 312.09 L 501.33 311.11 L 502.33 310.83 L 502.76 310.59 L 502.87 309.85 L 503.23 309.85 L 503.45 309.44 L 503.82 308.80 L 504.49 308.42 L 514.59 308.42 L 515.20 308.40 L 515.23 308.40 L 516.07 308.26 L 516.12 308.18 L 516.41 308.12 L 516.76 307.30 L 516.76 307.30 L 516.79 307.26 L 517.24 307.09 L 518.28 306.54 L 518.35 306.48 L 518.46 306.48 L 518.62 306.24 L 518.66 306.21 L 518.72 306.17 L 519.20 306.16 L 519.59 306.16 L 519.80 306.16 L 519.83 306.13 L 520.26 305.29 L 520.59 305.21 L 520.61 305.15 L 520.65 305.07 L 520.69 304.86 L 531.66 304.70 L 531.69 304.68 L 531.72 304.67 L 531.93 304.56 L 532.10 304.46 L 533.06 303.99 L 533.30 303.89 L 534.00 303.53 L 534.60 303.47 L 535.04 303.33 L 535.17 302.09 L 535.72 301.88 L 535.93 301.82 L 536.00 300.93 L 537.62 300.07 L 537.64 300.07 L 537.73 299.68 L 538.04 299.64 L 538.04 299.64 L 538.06 299.54 L 538.11 299.43 L 538.25 299.34 L 538.43 298.73 L 540.11 298.41 L 540.33 298.28 L 540.48 297.94 L 540.51 297.91 L 540.54 297.69 L 548.01 296.91 L 548.25 296.35 L 548.39 296.33 L 548.45 295.95 L 549.15 295.80 L 549.30 295.40 L 549.43 295.40 L 549.51 294.57 L 549.75 294.37 L 549.78 294.34 L 550.10 294.29 L 550.17 293.61 L 550.44 293.53 L 550.49 292.99 L 550.72 292.94 L 550.88 292.63 L 551.01 292.03 L 551.29 291.91 L 551.32 291.30 L 551.68 292.68 L 551.71 292.68 L 551.77 291.89 L 551.84 291.89 L 551.88 291.83 L 552.30 291.76 L 552.90 291.43 L 553.20 291.60 L 554.19 291.57 L 554.21 291.57 L 554.37 291.55 L 554.44 291.54 L 554.55 291.43 L 554.67 291.33 L 554.80 291.19 L 555.10 290.99 L 555.38 290.98 L 556.27 290.88 L 556.31 290.88 L 557.19 290.77 L 557.57 290.71 L 565.13 290.68 L 565.51 290.64 L 565.70 290.64 L 565.78 290.64 L 565.81 290.64 L 566.00 290.62 L 566.08 290.59 L 566.31 290.45 L 566.44 290.42 L 566.93 290.41 L 567.19 290.34 L 567.62 290.31 L 567.73 290.28 L 567.88 290.21 L 568.07 290.12 L 568.72 290.09 L 568.78 290.07 L 569.73 289.92 L 569.88 289.68 L 570.07 289.59 L 570.53 289.44 L 570.75 289.36 L 570.86 289.71 L 570.95 289.70 L 571.08 289.56 L 571.48 289.25 L 571.91 289.16 L 572.29 289.09 L 572.34 289.05 L 572.38 288.82 L 599.72 288.77 L 599.90 288.70 L 615.63 288.63 L 615.71 288.98 L 615.84 287.59 L 615.86 287.59 L 615.91 287.62 L 616.47 287.09 L 616.53 287.06 L 617.22 287.12 L 617.93 287.06 L 618.17 287.01 L 618.61 286.96 L 619.20 286.81 L 619.21 286.81 L 619.29 286.79 L 619.52 286.74 L 619.59 286.64 L 620.16 286.56 L 620.89 286.51 L 620.97 286.37 L 621.34 286.30 L 621.45 286.91 L 621.73 286.86 L 621.97 286.83 L 622.45 286.80 L 622.91 286.80 L 623.13 286.51 L 623.15 286.51 L 632.99 286.50 L 636.08 285.76 L 636.21 285.39 L 636.36 285.30 L 636.86 285.26 L 637.06 285.13 L 637.22 283.28 L 637.32 282.28 L 637.56 282.24 L 637.59 282.22 L 637.94 282.08 L 638.05 282.04 L 638.11 281.99 L 638.29 281.76 L 638.36 281.74 L 638.46 281.72 L 638.53 281.67 L 638.61 281.61 L 638.71 281.52 L 638.78 281.48 L 639.10 281.45 L 639.26 281.35 L 639.38 281.32 L 639.42 280.71 L 639.79 280.59 L 639.92 280.26 L 649.20 280.32 L 649.88 280.13 L 650.00 280.12"/>
	</g>
	<g class="poloto_legend poloto_imgs poloto_line poloto0 poloto_stroke"><line x1="680" x2="730" y1="81.25" y2="81.25"/></g>
	<g class="poloto_legend poloto_imgs poloto_line poloto1 poloto_stroke"><line x1="680" x2="730" y1="131.25" y2="131.25"/></g>
	<g class="poloto_legend poloto_imgs poloto_line poloto2 poloto_stroke"><line x1="680" x2="730" y1="181.25" y2="181.25"/></g>
	<text class="poloto_legend poloto_text poloto_line poloto0" x="675" y="100">total</text>
	<text class="poloto_legend poloto_text poloto_line poloto1" x="675" y="150">code</text>
	<text class="poloto_legend poloto_text poloto_line poloto2" x="675" y="200">docs</text>
	<text class="poloto_text poloto_name poloto_title" x="400.00" y="37.50">Workspace lines over time</text>
	<text class="poloto_text poloto_name poloto_x" x="400.00" y="640">date (JST)</text>
	<text class="poloto_text poloto_name poloto_y" x="37.50" y="250.00" transform="rotate(-90,37.50,250.00)">lines</text>
	<text class="poloto_text poloto_ticks poloto_y">
		<tspan x="135.00" y="400.00">0</tspan>
		<tspan x="135.00" y="327.05">50K</tspan>
		<tspan x="135.00" y="254.10">100K</tspan>
		<tspan x="135.00" y="181.16">150K</tspan>
		<tspan x="135.00" y="108.21">200K</tspan>
	</text>
	<g class="poloto_imgs poloto_ticks poloto_y" stroke="black">
		<line x1="150.00" x2="144.00" y1="400.00" y2="400.00"/>
		<line x1="150.00" x2="144.00" y1="327.05" y2="327.05"/>
		<line x1="150.00" x2="144.00" y1="254.10" y2="254.10"/>
		<line x1="150.00" x2="144.00" y1="181.16" y2="181.16"/>
		<line x1="150.00" x2="144.00" y1="108.21" y2="108.21"/>
	</g>
	<g class="poloto_text poloto_ticks poloto_x">
		<text x="213.21" y="430.00" text-anchor="end" transform="rotate(-90 213.21 430.00)">2026-04-24 12:06</text>
		<text x="310.51" y="430.00" text-anchor="end" transform="rotate(-90 310.51 430.00)">2026-04-30 07:00</text>
		<text x="407.81" y="430.00" text-anchor="end" transform="rotate(-90 407.81 430.00)">2026-05-06 01:53</text>
		<text x="505.11" y="430.00" text-anchor="end" transform="rotate(-90 505.11 430.00)">2026-05-11 20:46</text>
		<text x="602.41" y="430.00" text-anchor="end" transform="rotate(-90 602.41 430.00)">2026-05-17 15:40</text>
	</g>
	<g class="poloto_imgs poloto_ticks poloto_x" stroke="black">
		<line x1="213.21" x2="213.21" y1="400.00" y2="405.00"/>
		<line x1="310.51" x2="310.51" y1="400.00" y2="405.00"/>
		<line x1="407.81" x2="407.81" y1="400.00" y2="405.00"/>
		<line x1="505.11" x2="505.11" y1="400.00" y2="405.00"/>
		<line x1="602.41" x2="602.41" y1="400.00" y2="405.00"/>
	</g>
	<path class="poloto_imgs poloto_ticks poloto_x" stroke="black" style="stroke-dasharray:9.729909391191786;stroke-dashoffset:-63.20996716350783;" d=" M 150.00 400.00 L 650.00 400.00"/>
	<path class="poloto_imgs poloto_ticks poloto_y" stroke="black" style="stroke-dasharray:7.29483282674772;stroke-dashoffset:-0;" d=" M 150.00 400.00 L 150.00 100.00"/>
</svg>

