<svg class="poloto" width="800" height="680" viewBox="0 0 800 680" xmlns="http://www.w3.org/2000/svg">
	<style>
.poloto{
  stroke-linecap:round;
  stroke-linejoin:round;
  font-family:Roboto,sans-serif;
  font-size:16px;
}
.poloto_background{fill:AliceBlue;}
.poloto_scatter{stroke-width:7}
.poloto_line{stroke-width:2}
.poloto_text{fill: black;}
.poloto_name{font-size:24px;dominant-baseline:auto;text-anchor:middle;}
.poloto_where{dominant-baseline:middle;text-anchor:start}
.poloto_text.poloto_legend{font-size:20px;dominant-baseline:middle;text-anchor:start;}
.poloto_text.poloto_ticks.poloto_y{dominant-baseline:middle;text-anchor:end}
.poloto_text.poloto_ticks.poloto_x{dominant-baseline:auto;text-anchor:middle}
.poloto_imgs.poloto_ticks{stroke: black;stroke-width:3;fill:none;stroke-dasharray:none}
.poloto_grid{stroke:gray;stroke-width:0.5}

.poloto0.poloto_stroke{stroke:blue;}
.poloto1.poloto_stroke{stroke:red;}
.poloto2.poloto_stroke{stroke:green;}
.poloto3.poloto_stroke{stroke:gold;}
.poloto4.poloto_stroke{stroke:aqua;}
.poloto5.poloto_stroke{stroke:lime;}
.poloto6.poloto_stroke{stroke:orange;}
.poloto7.poloto_stroke{stroke:chocolate;}
.poloto0.poloto_fill{fill:blue;}
.poloto1.poloto_fill{fill:red;}
.poloto2.poloto_fill{fill:green;}
.poloto3.poloto_fill{fill:gold;}
.poloto4.poloto_fill{fill:aqua;}
.poloto5.poloto_fill{fill:lime;}
.poloto6.poloto_fill{fill:orange;}
.poloto7.poloto_fill{fill:chocolate;}
	</style>
	<circle r="1e5" class="poloto_background" fill="white"/>
	<g id="poloto_plot0" class="poloto_plot poloto_imgs poloto_line poloto0 poloto_stroke" fill="none" stroke="black">
		<path d=" M 150.00 370.26 L 150.03 370.23 L 150.04 370.22 L 150.05 370.22 L 150.07 370.22 L 150.10 366.99 L 150.21 366.60 L 150.46 366.58 L 150.83 366.32 L 151.02 364.68 L 151.40 364.58 L 151.47 364.49 L 151.52 364.45 L 151.96 363.65 L 152.79 363.00 L 153.05 360.47 L 153.12 360.47 L 153.62 360.37 L 154.20 360.36 L 154.20 360.36 L 154.20 360.36 L 162.00 360.36 L 162.05 360.36 L 162.15 360.33 L 162.19 360.31 L 162.49 360.16 L 162.62 360.12 L 162.95 359.89 L 163.00 359.78 L 163.09 359.55 L 163.19 359.52 L 163.22 359.52 L 163.30 359.46 L 163.39 359.46 L 163.47 359.46 L 163.69 359.08 L 163.88 358.85 L 163.92 358.85 L 164.01 358.71 L 164.63 359.29 L 164.64 359.29 L 164.72 359.20 L 165.07 358.76 L 165.36 358.25 L 165.68 358.02 L 165.74 357.98 L 165.75 357.98 L 165.81 357.78 L 165.93 357.78 L 166.09 357.71 L 166.40 357.51 L 166.41 357.21 L 166.47 357.21 L 166.54 357.05 L 166.72 357.05 L 166.74 357.05 L 166.92 356.62 L 166.99 356.60 L 167.06 356.56 L 167.13 356.39 L 168.08 356.15 L 168.31 356.11 L 168.84 355.80 L 168.95 355.80 L 169.03 355.79 L 169.08 355.57 L 169.44 354.28 L 169.60 354.26 L 169.79 353.83 L 169.88 353.79 L 170.10 353.43 L 170.19 353.31 L 170.33 353.08 L 170.45 352.88 L 170.87 349.92 L 170.88 349.85 L 170.90 349.67 L 171.04 348.26 L 178.27 348.15 L 179.01 346.54 L 179.04 346.50 L 179.92 346.24 L 180.00 346.24 L 180.08 345.92 L 180.30 345.76 L 180.40 345.48 L 180.43 345.24 L 180.54 344.81 L 180.80 344.81 L 180.81 344.52 L 180.91 344.20 L 181.01 344.20 L 181.12 343.84 L 181.26 343.59 L 181.31 343.46 L 181.33 343.46 L 181.46 343.18 L 181.48 343.17 L 181.62 342.89 L 181.64 342.89 L 181.85 341.55 L 181.88 341.55 L 181.95 341.33 L 182.04 341.32 L 182.16 341.32 L 182.21 341.29 L 182.62 341.04 L 182.63 341.05 L 182.70 340.46 L 182.88 340.44 L 183.04 339.55 L 183.10 339.47 L 183.17 339.47 L 183.21 339.43 L 183.30 338.75 L 183.76 332.95 L 183.80 332.67 L 183.96 332.65 L 184.01 332.58 L 184.04 332.56 L 184.11 332.41 L 184.19 331.75 L 184.35 331.61 L 184.46 331.60 L 184.55 331.31 L 184.60 331.30 L 185.01 331.09 L 185.23 330.92 L 185.30 330.66 L 185.49 330.65 L 185.51 330.65 L 185.52 330.63 L 185.64 329.23 L 185.74 329.15 L 186.07 327.75 L 186.13 327.34 L 186.19 327.33 L 186.28 327.18 L 186.29 327.07 L 186.33 327.00 L 186.36 326.97 L 186.41 326.96 L 186.45 326.89 L 186.59 325.74 L 186.68 325.57 L 186.78 325.23 L 186.91 325.21 L 187.06 325.10 L 187.20 324.29 L 187.30 323.16 L 187.51 323.10 L 187.52 322.68 L 187.64 322.54 L 197.73 322.54 L 197.92 322.53 L 198.40 321.94 L 198.50 321.92 L 198.57 321.92 L 198.59 321.77 L 198.76 321.59 L 198.88 321.56 L 198.95 321.45 L 199.02 321.37 L 199.06 321.33 L 199.24 321.27 L 199.61 321.20 L 199.70 320.89 L 199.77 320.82 L 199.86 320.81 L 200.32 320.65 L 200.39 320.56 L 200.42 320.56 L 200.45 320.45 L 200.55 320.40 L 200.63 320.28 L 200.97 319.53 L 201.46 319.41 L 201.63 319.36 L 202.17 319.17 L 202.43 315.53 L 202.52 315.45 L 202.63 315.09 L 202.79 314.62 L 203.03 314.48 L 203.38 314.47 L 203.83 314.46 L 203.90 314.30 L 204.24 314.13 L 204.45 313.87 L 204.52 313.76 L 204.65 313.72 L 204.75 313.39 L 205.94 313.03 L 207.08 313.03 L 217.23 313.00 L 217.31 312.84 L 217.36 312.74 L 217.68 312.59 L 218.62 311.33 L 218.67 311.25 L 218.80 310.92 L 219.26 310.84 L 219.49 309.99 L 219.82 309.98 L 219.90 309.97 L 219.97 309.39 L 220.56 306.08 L 220.63 306.07 L 220.76 306.05 L 220.89 306.00 L 220.95 305.64 L 221.28 304.39 L 221.40 304.16 L 221.45 304.15 L 221.52 303.57 L 221.67 302.76 L 221.73 301.89 L 221.88 301.51 L 222.32 297.20 L 222.36 296.77 L 222.40 296.77 L 222.47 296.69 L 222.58 296.58 L 222.62 296.54 L 222.66 296.49 L 222.88 295.46 L 222.93 294.73 L 223.18 294.59 L 223.34 293.50 L 223.43 292.82 L 224.22 282.78 L 224.31 282.75 L 254.15 282.28 L 254.18 282.28 L 265.59 282.14 L 266.21 281.86 L 266.34 281.86 L 266.50 281.79 L 266.56 281.66 L 266.63 281.62 L 271.57 281.55 L 272.22 279.64 L 272.47 279.47 L 272.60 278.77 L 275.68 278.63 L 275.70 278.44 L 275.89 278.42 L 276.81 277.21 L 276.86 277.00 L 276.98 276.92 L 277.30 276.84 L 277.34 276.81 L 277.47 276.44 L 277.61 276.34 L 277.63 276.08 L 287.22 275.71 L 287.29 274.68 L 287.67 274.45 L 287.68 272.73 L 287.74 272.47 L 287.82 272.05 L 287.93 270.86 L 288.09 270.23 L 288.23 269.50 L 288.35 269.49 L 288.40 268.93 L 288.60 268.88 L 289.26 266.11 L 289.53 265.81 L 289.57 265.63 L 289.63 265.63 L 289.66 265.44 L 289.75 264.76 L 290.02 264.43 L 290.07 264.39 L 290.23 261.95 L 290.29 261.94 L 290.32 261.68 L 290.38 261.48 L 290.42 261.47 L 290.46 261.11 L 290.67 259.79 L 290.76 259.41 L 290.88 259.37 L 290.96 255.84 L 290.99 255.55 L 291.20 253.53 L 291.26 253.38 L 291.30 253.37 L 291.35 253.37 L 291.39 253.09 L 291.41 253.09 L 291.43 253.09 L 291.53 249.53 L 291.57 249.22 L 291.67 249.20 L 291.75 249.14 L 291.96 249.03 L 292.23 248.90 L 292.24 248.90 L 292.31 248.86 L 292.56 248.79 L 292.67 248.79 L 292.79 248.79 L 292.91 247.24 L 292.99 246.86 L 293.33 246.86 L 293.36 246.61 L 293.41 246.61 L 293.43 246.34 L 293.66 244.10 L 293.69 244.04 L 293.86 244.03 L 308.60 243.96 L 309.44 243.85 L 309.47 243.85 L 309.64 243.85 L 309.65 243.85 L 309.76 243.40 L 309.84 243.38 L 309.91 243.16 L 310.01 243.11 L 310.04 243.08 L 310.08 243.06 L 310.24 242.81 L 310.56 242.59 L 310.76 241.86 L 310.99 241.18 L 310.99 241.14 L 311.03 240.50 L 311.06 240.47 L 311.50 240.09 L 311.51 240.05 L 311.58 239.54 L 311.77 239.48 L 311.89 239.44 L 311.91 238.53 L 311.92 238.48 L 311.97 239.34 L 312.01 238.81 L 312.02 238.79 L 312.13 237.58 L 312.14 237.54 L 312.37 237.44 L 313.00 237.42 L 313.15 237.38 L 313.20 237.37 L 313.23 237.21 L 313.26 237.21 L 313.35 236.61 L 323.43 235.45 L 323.45 235.29 L 323.54 235.18 L 323.56 234.95 L 323.62 224.79 L 323.73 220.63 L 323.74 220.61 L 323.93 220.52 L 323.97 220.52 L 324.00 220.05 L 324.17 220.00 L 324.60 219.02 L 324.61 218.99 L 324.72 218.69 L 324.76 218.70 L 324.79 218.21 L 325.15 217.63 L 325.16 217.61 L 325.71 217.39 L 325.78 216.87 L 325.98 216.88 L 326.20 215.56 L 326.26 215.05 L 326.30 214.63 L 326.40 214.12 L 326.69 213.94 L 326.74 213.82 L 326.87 213.70 L 327.00 213.70 L 327.43 213.70 L 327.48 213.70 L 327.57 213.68 L 327.58 213.68 L 327.72 213.69 L 328.04 213.67 L 328.37 213.48 L 328.42 213.47 L 328.49 213.40 L 328.58 213.26 L 328.84 213.26 L 329.27 213.08 L 329.40 212.67 L 329.64 209.17 L 330.56 212.13 L 330.76 212.12 L 330.91 212.10 L 331.14 212.10 L 331.22 212.04 L 331.45 211.87 L 331.81 211.63 L 331.86 211.47 L 331.93 211.41 L 331.97 211.42 L 332.01 211.37 L 332.30 211.15 L 338.98 211.15 L 339.04 211.15 L 339.45 211.14 L 339.49 211.12 L 339.59 210.68 L 339.66 210.43 L 339.68 210.42 L 339.91 210.39 L 339.96 210.36 L 341.33 209.70 L 341.49 209.65 L 341.61 209.64 L 341.63 209.63 L 342.06 209.47 L 342.20 209.55 L 342.23 209.55 L 342.46 209.50 L 342.71 208.12 L 342.74 208.11 L 342.94 207.95 L 343.03 207.95 L 343.11 207.95 L 343.28 207.80 L 343.65 207.24 L 343.73 207.22 L 343.79 207.06 L 343.94 206.40 L 344.31 205.72 L 344.64 202.50 L 344.70 202.10 L 345.04 201.95 L 345.10 201.86 L 345.15 201.71 L 345.19 201.19 L 345.30 200.26 L 345.33 200.30 L 345.38 200.28 L 345.57 200.28 L 345.86 199.94 L 346.04 199.87 L 346.25 199.86 L 346.35 199.85 L 346.55 199.84 L 346.89 199.84 L 347.22 199.83 L 347.48 199.82 L 347.54 199.81 L 347.60 199.80 L 347.61 199.69 L 347.80 199.63 L 347.86 199.61 L 347.94 199.47 L 348.49 199.45 L 348.50 199.17 L 348.65 199.16 L 349.29 199.17 L 349.71 199.00 L 350.02 198.79 L 350.03 198.68 L 350.05 198.68 L 359.41 198.49 L 359.44 198.48 L 359.55 198.47 L 359.60 198.31 L 359.64 198.29 L 359.64 198.28 L 360.04 198.24 L 360.13 197.65 L 360.25 197.52 L 360.45 196.37 L 360.58 196.36 L 360.74 195.87 L 360.83 195.93 L 360.87 195.93 L 360.92 195.37 L 361.03 194.99 L 361.05 194.58 L 361.09 194.53 L 361.19 194.49 L 361.26 194.30 L 361.34 196.50 L 361.45 196.46 L 361.68 195.58 L 361.78 195.37 L 361.87 195.18 L 362.45 193.92 L 362.94 193.32 L 363.53 192.15 L 363.68 192.10 L 363.85 192.10 L 364.03 192.05 L 367.47 191.72 L 367.76 191.69 L 400.36 190.80 L 503.01 190.59 L 503.35 190.24 L 503.59 190.19 L 503.82 190.19 L 504.18 189.51 L 504.30 189.18 L 504.39 188.56 L 504.56 186.80 L 504.80 187.16 L 504.99 186.78 L 505.03 186.77 L 505.19 186.65 L 505.22 186.66 L 505.39 186.01 L 505.54 184.97 L 506.01 183.87 L 506.02 183.78 L 506.16 182.46 L 506.60 179.21 L 506.61 179.10 L 506.70 179.03 L 506.80 177.87 L 507.28 176.30 L 507.29 176.16 L 507.40 176.09 L 507.51 175.31 L 507.69 174.71 L 507.70 174.59 L 507.77 173.40 L 507.79 173.37 L 507.83 173.04 L 508.03 170.92 L 508.06 170.80 L 508.13 170.68 L 508.35 170.39 L 508.39 170.39 L 508.56 169.98 L 508.85 170.03 L 508.89 169.97 L 508.93 169.95 L 508.98 169.92 L 509.12 168.67 L 509.27 167.66 L 509.29 167.57 L 509.38 166.30 L 509.47 165.06 L 509.49 164.91 L 509.58 163.46 L 509.62 162.32 L 509.79 161.55 L 509.82 161.50 L 509.91 161.26 L 510.03 161.24 L 510.77 161.20 L 511.14 161.17 L 519.15 161.22 L 519.24 161.00 L 519.31 160.81 L 519.45 159.95 L 519.75 159.73 L 519.78 159.65 L 519.83 158.52 L 520.02 157.43 L 520.04 157.33 L 521.79 157.26 L 521.90 156.65 L 522.78 156.46 L 522.88 156.42 L 522.98 155.15 L 524.05 153.95 L 524.50 153.50 L 524.61 152.57 L 525.00 150.97 L 525.23 150.51 L 525.63 149.57 L 526.33 149.10 L 537.06 149.09 L 537.71 148.98 L 537.74 149.00 L 538.63 148.81 L 538.68 148.72 L 538.99 148.65 L 539.36 147.61 L 539.36 147.61 L 539.40 147.57 L 539.88 146.38 L 540.98 145.70 L 541.05 145.64 L 541.17 145.63 L 541.33 145.32 L 541.38 145.23 L 541.44 145.17 L 541.96 145.13 L 542.37 145.13 L 542.59 145.13 L 542.62 145.08 L 543.08 144.04 L 543.43 143.85 L 543.45 143.77 L 543.49 143.68 L 543.54 143.40 L 555.19 143.01 L 555.21 142.98 L 555.24 142.97 L 555.47 142.85 L 555.64 142.72 L 556.67 141.13 L 556.93 140.94 L 557.66 140.46 L 558.30 140.34 L 558.77 140.19 L 558.90 138.71 L 559.50 136.98 L 559.71 136.86 L 559.79 135.75 L 561.51 133.70 L 561.53 133.70 L 561.62 133.20 L 561.95 133.14 L 561.96 133.14 L 561.97 133.02 L 562.03 132.86 L 562.18 132.70 L 562.37 131.84 L 564.16 129.76 L 564.39 129.52 L 564.55 129.14 L 564.57 129.10 L 564.61 128.81 L 572.54 127.87 L 572.80 127.16 L 572.95 127.13 L 573.00 126.66 L 573.75 126.44 L 573.91 125.97 L 574.05 125.97 L 574.13 124.97 L 574.38 122.45 L 574.42 122.41 L 574.76 122.36 L 574.83 121.54 L 575.12 120.55 L 575.18 119.86 L 575.41 119.23 L 575.59 118.90 L 575.72 118.14 L 576.02 117.50 L 576.05 116.78 L 576.43 116.62 L 576.47 116.62 L 576.53 115.70 L 576.61 115.70 L 576.65 115.62 L 577.09 113.91 L 577.73 113.35 L 578.05 113.53 L 579.10 113.45 L 579.13 113.44 L 579.29 113.42 L 579.36 113.40 L 579.48 113.29 L 579.61 113.19 L 579.75 113.00 L 580.06 112.75 L 580.37 112.74 L 581.30 112.56 L 581.35 112.55 L 582.29 112.39 L 582.69 112.29 L 590.71 112.27 L 591.12 112.14 L 591.32 112.06 L 591.41 112.06 L 591.43 112.06 L 591.63 112.03 L 591.73 111.98 L 591.96 111.81 L 592.11 111.78 L 592.63 111.61 L 592.90 111.22 L 593.35 111.16 L 593.48 110.92 L 593.63 110.76 L 593.83 110.56 L 594.52 110.62 L 594.59 110.60 L 595.60 110.12 L 595.76 109.84 L 595.96 109.75 L 596.45 109.52 L 596.68 109.58 L 596.79 109.96 L 596.89 109.93 L 597.03 109.78 L 597.46 108.65 L 597.91 108.53 L 598.32 108.44 L 598.36 108.39 L 598.41 108.07 L 627.44 107.99 L 627.63 107.85 L 644.33 107.48 L 644.42 107.89 L 644.55 106.17 L 644.57 106.17 L 644.62 106.21 L 645.22 102.70 L 645.28 102.67 L 646.02 102.75 L 646.77 102.53 L 647.03 102.20 L 647.50 101.78 L 648.12 101.51 L 648.13 101.51 L 648.21 101.43 L 648.46 101.37 L 648.53 101.20 L 649.14 100.35 L 649.91 100.17 L 650.00 100.00"/>
	</g>
	<g id="poloto_plot1" class="poloto_plot poloto_imgs poloto_line poloto1 poloto_stroke" fill="none" stroke="black">
		<path d=" M 150.00 382.33 L 150.03 382.31 L 150.04 382.30 L 150.05 382.30 L 150.07 382.30 L 150.10 381.74 L 150.21 381.72 L 150.46 381.71 L 150.83 381.50 L 151.02 381.41 L 151.40 381.43 L 151.47 381.39 L 151.52 381.39 L 151.96 381.35 L 152.79 381.24 L 153.05 379.06 L 153.12 379.06 L 153.62 379.00 L 154.20 379.00 L 154.20 379.00 L 154.20 379.00 L 162.00 379.00 L 162.05 379.00 L 162.15 378.99 L 162.19 378.96 L 162.49 378.95 L 162.62 378.95 L 162.95 378.95 L 163.00 378.95 L 163.09 378.94 L 163.19 378.94 L 163.22 378.94 L 163.30 378.91 L 163.39 378.91 L 163.47 378.91 L 163.69 378.79 L 163.88 378.79 L 163.92 378.79 L 164.01 378.79 L 164.63 379.61 L 164.64 379.61 L 164.72 379.60 L 165.07 379.48 L 165.36 379.34 L 165.68 379.28 L 165.74 379.24 L 165.75 379.24 L 165.81 379.24 L 165.93 379.24 L 166.09 379.18 L 166.40 379.13 L 166.41 379.13 L 166.47 379.13 L 166.54 379.11 L 166.72 379.11 L 166.74 379.11 L 166.92 379.11 L 166.99 379.11 L 167.06 379.11 L 167.13 379.11 L 168.08 379.01 L 168.31 379.00 L 168.84 378.96 L 168.95 378.96 L 169.03 378.96 L 169.08 378.96 L 169.44 378.89 L 169.60 378.89 L 169.79 378.81 L 169.88 378.80 L 170.10 378.63 L 170.19 378.56 L 170.33 378.56 L 170.45 378.56 L 170.87 376.01 L 170.88 375.96 L 170.90 375.96 L 171.04 375.71 L 178.27 375.71 L 179.01 374.61 L 179.04 374.61 L 179.92 374.61 L 180.00 374.61 L 180.08 374.50 L 180.30 374.48 L 180.40 374.48 L 180.43 374.48 L 180.54 374.48 L 180.80 374.48 L 180.81 374.24 L 180.91 374.23 L 181.01 374.23 L 181.12 374.20 L 181.26 374.20 L 181.31 374.20 L 181.33 374.20 L 181.46 374.20 L 181.48 374.20 L 181.62 374.20 L 181.64 374.20 L 181.85 373.12 L 181.88 373.12 L 181.95 372.98 L 182.04 372.98 L 182.16 372.98 L 182.21 372.97 L 182.62 372.97 L 182.63 372.97 L 182.70 372.90 L 182.88 372.90 L 183.04 372.28 L 183.10 372.20 L 183.17 372.20 L 183.21 372.20 L 183.30 372.19 L 183.76 367.62 L 183.80 367.66 L 183.96 367.66 L 184.01 367.66 L 184.04 367.65 L 184.11 367.65 L 184.19 367.59 L 184.35 367.59 L 184.46 367.59 L 184.55 367.59 L 184.60 367.59 L 185.01 367.58 L 185.23 367.57 L 185.30 367.46 L 185.49 367.46 L 185.51 367.46 L 185.52 367.46 L 185.64 367.15 L 185.74 367.07 L 186.07 365.99 L 186.13 365.99 L 186.19 365.99 L 186.28 366.00 L 186.29 366.00 L 186.33 366.00 L 186.36 366.00 L 186.41 366.00 L 186.45 366.00 L 186.59 365.98 L 186.68 365.98 L 186.78 365.97 L 186.91 365.97 L 187.06 365.96 L 187.20 365.56 L 187.30 365.42 L 187.51 365.42 L 187.52 365.42 L 187.64 365.42 L 197.73 365.42 L 197.92 365.41 L 198.40 365.34 L 198.50 365.33 L 198.57 365.33 L 198.59 365.33 L 198.76 365.33 L 198.88 365.33 L 198.95 365.33 L 199.02 365.33 L 199.06 365.33 L 199.24 365.33 L 199.61 365.35 L 199.70 365.35 L 199.77 365.35 L 199.86 365.35 L 200.32 365.26 L 200.39 365.22 L 200.42 365.22 L 200.45 365.16 L 200.55 365.16 L 200.63 365.16 L 200.97 364.74 L 201.46 364.74 L 201.63 364.74 L 202.17 364.74 L 202.43 361.95 L 202.52 361.94 L 202.63 361.94 L 202.79 361.94 L 203.03 361.94 L 203.38 361.94 L 203.83 361.94 L 203.90 361.94 L 204.24 361.87 L 204.45 361.76 L 204.52 361.76 L 204.65 361.76 L 204.75 361.74 L 205.94 361.56 L 207.08 361.56 L 217.23 361.56 L 217.31 361.56 L 217.36 361.56 L 217.68 361.56 L 218.62 360.68 L 218.67 360.65 L 218.80 360.56 L 219.26 360.56 L 219.49 360.35 L 219.82 360.35 L 219.90 360.35 L 219.97 360.35 L 220.56 357.90 L 220.63 357.90 L 220.76 357.90 L 220.89 357.90 L 220.95 357.74 L 221.28 357.44 L 221.40 357.44 L 221.45 357.44 L 221.52 356.99 L 221.67 356.54 L 221.73 356.54 L 221.88 356.53 L 222.32 352.88 L 222.36 352.88 L 222.40 352.88 L 222.47 352.88 L 222.58 352.88 L 222.62 352.88 L 222.66 352.88 L 222.88 352.88 L 222.93 352.80 L 223.18 352.78 L 223.34 352.73 L 223.43 352.29 L 224.22 345.02 L 224.31 345.02 L 254.15 345.02 L 254.18 345.02 L 265.59 345.02 L 266.21 344.91 L 266.34 344.91 L 266.50 344.91 L 266.56 344.91 L 266.63 344.91 L 271.57 344.86 L 272.22 344.79 L 272.47 344.79 L 272.60 344.76 L 275.68 344.70 L 275.70 344.60 L 275.89 344.61 L 276.81 343.62 L 276.86 343.62 L 276.98 343.62 L 277.30 343.62 L 277.34 343.62 L 277.47 343.62 L 277.61 343.62 L 277.63 343.62 L 287.22 343.60 L 287.29 343.43 L 287.67 343.43 L 287.68 342.24 L 287.74 342.24 L 287.82 342.24 L 287.93 342.13 L 288.09 342.13 L 288.23 342.08 L 288.35 342.08 L 288.40 342.08 L 288.60 342.07 L 289.26 340.05 L 289.53 340.04 L 289.57 340.03 L 289.63 340.03 L 289.66 340.03 L 289.75 340.00 L 290.02 339.75 L 290.07 339.72 L 290.23 337.91 L 290.29 337.90 L 290.32 337.90 L 290.38 337.87 L 290.42 337.87 L 290.46 337.87 L 290.67 336.88 L 290.76 336.87 L 290.88 336.85 L 290.96 333.78 L 290.99 333.78 L 291.20 332.05 L 291.26 332.05 L 291.30 332.05 L 291.35 332.05 L 291.39 332.05 L 291.41 332.05 L 291.43 332.05 L 291.53 328.85 L 291.57 328.85 L 291.67 328.84 L 291.75 328.84 L 291.96 328.77 L 292.23 328.69 L 292.24 328.69 L 292.31 328.67 L 292.56 328.62 L 292.67 328.62 L 292.79 328.62 L 292.91 327.24 L 292.99 327.24 L 293.33 327.23 L 293.36 327.23 L 293.41 327.23 L 293.43 327.23 L 293.66 325.26 L 293.69 325.26 L 293.86 325.25 L 308.60 325.25 L 309.44 325.24 L 309.47 325.24 L 309.64 325.24 L 309.65 325.24 L 309.76 325.24 L 309.84 325.24 L 309.91 325.14 L 310.01 325.14 L 310.04 325.14 L 310.08 325.14 L 310.24 324.96 L 310.56 324.85 L 310.76 324.73 L 310.99 324.18 L 310.99 324.18 L 311.03 324.04 L 311.06 324.02 L 311.50 323.68 L 311.51 323.68 L 311.58 323.63 L 311.77 323.63 L 311.89 323.60 L 311.91 322.78 L 311.92 322.78 L 311.97 323.59 L 312.01 323.54 L 312.02 323.53 L 312.13 322.44 L 312.14 322.44 L 312.37 322.39 L 313.00 322.39 L 313.15 322.39 L 313.20 322.39 L 313.23 322.39 L 313.26 322.39 L 313.35 322.32 L 323.43 321.41 L 323.45 321.41 L 323.54 321.41 L 323.56 321.21 L 323.62 311.51 L 323.73 307.90 L 323.74 307.90 L 323.93 307.83 L 323.97 307.83 L 324.00 307.81 L 324.17 307.81 L 324.60 306.93 L 324.61 306.93 L 324.72 306.88 L 324.76 306.88 L 324.79 306.81 L 325.15 306.28 L 325.16 306.28 L 325.71 306.17 L 325.78 306.14 L 325.98 306.15 L 326.20 304.96 L 326.26 304.84 L 326.30 304.73 L 326.40 304.28 L 326.69 304.17 L 326.74 304.07 L 326.87 304.07 L 327.00 304.07 L 327.43 304.07 L 327.48 304.07 L 327.57 304.07 L 327.58 304.07 L 327.72 304.08 L 328.04 304.08 L 328.37 303.96 L 328.42 303.96 L 328.49 303.95 L 328.58 303.95 L 328.84 303.95 L 329.27 303.95 L 329.40 303.84 L 329.64 300.71 L 330.56 303.66 L 330.76 303.65 L 330.91 303.64 L 331.14 303.64 L 331.22 303.61 L 331.45 303.59 L 331.81 303.41 L 331.86 303.41 L 331.93 303.41 L 331.97 303.41 L 332.01 303.41 L 332.30 303.24 L 338.98 303.24 L 339.04 303.24 L 339.45 303.23 L 339.49 303.23 L 339.59 303.20 L 339.66 302.98 L 339.68 302.98 L 339.91 302.95 L 339.96 302.95 L 341.33 302.77 L 341.49 302.77 L 341.61 302.77 L 341.63 302.77 L 342.06 302.65 L 342.20 302.65 L 342.23 302.65 L 342.46 302.64 L 342.71 301.90 L 342.74 301.90 L 342.94 301.77 L 343.03 301.77 L 343.11 301.77 L 343.28 301.77 L 343.65 301.76 L 343.73 301.74 L 343.79 301.67 L 343.94 301.55 L 344.31 301.43 L 344.64 298.48 L 344.70 298.38 L 345.04 298.24 L 345.10 298.20 L 345.15 298.10 L 345.19 297.89 L 345.30 297.01 L 345.33 297.05 L 345.38 297.03 L 345.57 297.02 L 345.86 296.90 L 346.04 296.86 L 346.25 296.84 L 346.35 296.83 L 346.55 296.82 L 346.89 296.82 L 347.22 296.81 L 347.48 296.81 L 347.54 296.80 L 347.60 296.80 L 347.61 296.80 L 347.80 296.80 L 347.86 296.79 L 347.94 296.67 L 348.49 296.66 L 348.50 296.66 L 348.65 296.65 L 349.29 296.65 L 349.71 296.50 L 350.02 296.38 L 350.03 296.38 L 350.05 296.37 L 359.41 296.37 L 359.44 296.37 L 359.55 296.37 L 359.60 296.37 L 359.64 296.36 L 359.64 296.36 L 360.04 296.36 L 360.13 296.35 L 360.25 296.33 L 360.45 296.31 L 360.58 296.31 L 360.74 296.24 L 360.83 296.24 L 360.87 296.24 L 360.92 296.24 L 361.03 295.97 L 361.05 295.97 L 361.09 295.97 L 361.19 295.97 L 361.26 295.97 L 361.34 296.03 L 361.45 296.03 L 361.68 296.02 L 361.78 296.02 L 361.87 296.02 L 362.45 295.15 L 362.94 294.92 L 363.53 294.30 L 363.68 294.30 L 363.85 294.30 L 364.03 294.30 L 367.47 294.22 L 367.76 294.22 L 400.36 294.11 L 503.01 293.95 L 503.35 293.90 L 503.59 293.89 L 503.82 293.89 L 504.18 293.49 L 504.30 293.49 L 504.39 293.49 L 504.56 292.03 L 504.80 292.31 L 504.99 292.29 L 505.03 292.29 L 505.19 292.28 L 505.22 292.28 L 505.39 292.27 L 505.54 292.21 L 506.01 291.29 L 506.02 291.29 L 506.16 291.20 L 506.60 288.23 L 506.61 288.23 L 506.70 288.22 L 506.80 288.18 L 507.28 286.79 L 507.29 286.79 L 507.40 286.79 L 507.51 286.76 L 507.69 286.25 L 507.70 286.25 L 507.77 286.24 L 507.79 286.24 L 507.83 285.96 L 508.03 283.99 L 508.06 283.99 L 508.13 283.99 L 508.35 283.83 L 508.39 283.83 L 508.56 283.50 L 508.85 283.50 L 508.89 283.50 L 508.93 283.50 L 508.98 283.50 L 509.12 283.49 L 509.27 282.60 L 509.29 282.60 L 509.38 282.60 L 509.47 281.93 L 509.49 281.93 L 509.58 281.22 L 509.62 281.17 L 509.79 280.47 L 509.82 280.47 L 509.91 280.47 L 510.03 280.45 L 510.77 280.45 L 511.14 280.45 L 519.15 280.45 L 519.24 280.45 L 519.31 280.45 L 519.45 280.45 L 519.75 280.26 L 519.78 280.26 L 519.83 280.20 L 520.02 279.22 L 520.04 279.22 L 521.79 279.24 L 521.90 279.04 L 522.78 279.04 L 522.88 279.04 L 522.98 278.97 L 524.05 278.16 L 524.50 278.00 L 524.61 277.95 L 525.00 276.41 L 525.23 276.41 L 525.63 276.28 L 526.33 276.28 L 537.06 276.28 L 537.71 276.18 L 537.74 276.20 L 538.63 276.20 L 538.68 276.20 L 538.99 276.20 L 539.36 276.17 L 539.36 276.17 L 539.40 276.17 L 539.88 275.27 L 540.98 275.25 L 541.05 275.25 L 541.17 275.24 L 541.33 275.21 L 541.38 275.18 L 541.44 275.18 L 541.96 275.14 L 542.37 275.14 L 542.59 275.14 L 542.62 275.14 L 543.08 275.12 L 543.43 275.01 L 543.45 275.01 L 543.49 275.01 L 543.54 275.01 L 555.19 274.80 L 555.21 274.80 L 555.24 274.80 L 555.47 274.80 L 555.64 274.80 L 556.67 273.92 L 556.93 273.86 L 557.66 273.79 L 558.30 273.75 L 558.77 273.75 L 558.90 273.75 L 559.50 272.41 L 559.71 272.37 L 559.79 272.32 L 561.51 271.38 L 561.53 271.38 L 561.62 271.37 L 561.95 271.36 L 561.96 271.36 L 561.97 271.36 L 562.03 271.33 L 562.18 271.29 L 562.37 271.18 L 564.16 269.63 L 564.39 269.55 L 564.55 269.55 L 564.57 269.55 L 564.61 269.55 L 572.54 269.55 L 572.80 269.54 L 572.95 269.54 L 573.00 269.54 L 573.75 269.54 L 573.91 269.54 L 574.05 269.54 L 574.13 269.51 L 574.38 267.47 L 574.42 267.45 L 574.76 267.46 L 574.83 267.45 L 575.12 266.66 L 575.18 266.62 L 575.41 266.10 L 575.59 266.10 L 575.72 266.05 L 576.02 265.58 L 576.05 265.58 L 576.43 264.06 L 576.47 264.06 L 576.53 264.05 L 576.61 264.05 L 576.65 264.05 L 577.09 262.53 L 577.73 262.40 L 578.05 262.40 L 579.10 262.36 L 579.13 262.36 L 579.29 262.36 L 579.36 262.36 L 579.48 262.36 L 579.61 262.36 L 579.75 262.34 L 580.06 262.32 L 580.37 262.32 L 581.30 262.25 L 581.35 262.25 L 582.29 262.21 L 582.69 262.17 L 590.71 262.19 L 591.12 262.11 L 591.32 262.03 L 591.41 262.03 L 591.43 262.03 L 591.63 262.02 L 591.73 262.02 L 591.96 262.02 L 592.11 262.02 L 592.63 261.88 L 592.90 261.60 L 593.35 261.59 L 593.48 261.40 L 593.63 261.32 L 593.83 261.23 L 594.52 261.32 L 594.59 261.32 L 595.60 261.03 L 595.76 261.03 L 595.96 261.03 L 596.45 261.01 L 596.68 261.15 L 596.79 261.15 L 596.89 261.15 L 597.03 261.15 L 597.46 260.49 L 597.91 260.48 L 598.32 260.47 L 598.36 260.47 L 598.41 260.47 L 627.44 260.47 L 627.63 260.43 L 644.33 260.21 L 644.42 260.21 L 644.55 260.15 L 644.57 260.15 L 644.62 260.15 L 645.22 257.62 L 645.28 257.62 L 646.02 257.62 L 646.77 257.51 L 647.03 257.25 L 647.50 256.93 L 648.12 256.85 L 648.13 256.85 L 648.21 256.79 L 648.46 256.79 L 648.53 256.74 L 649.14 256.06 L 649.91 255.95 L 650.00 255.95"/>
	</g>
	<g id="poloto_plot2" class="poloto_plot poloto_imgs poloto_line poloto2 poloto_stroke" fill="none" stroke="black">
		<path d=" M 150.00 392.07 L 150.03 392.06 L 150.04 392.06 L 150.05 392.06 L 150.07 392.06 L 150.10 390.03 L 150.21 389.76 L 150.46 389.75 L 150.83 389.74 L 151.02 388.52 L 151.40 388.42 L 151.47 388.38 L 151.52 388.35 L 151.96 387.81 L 152.79 387.38 L 153.05 387.30 L 153.12 387.30 L 153.62 387.27 L 154.20 387.27 L 154.20 387.27 L 154.20 387.27 L 162.00 387.27 L 162.05 387.27 L 162.15 387.25 L 162.19 387.25 L 162.49 387.13 L 162.62 387.09 L 162.95 386.89 L 163.00 386.81 L 163.09 386.63 L 163.19 386.61 L 163.22 386.60 L 163.30 386.57 L 163.39 386.57 L 163.47 386.57 L 163.69 386.37 L 163.88 386.18 L 163.92 386.18 L 164.01 386.07 L 164.63 385.83 L 164.64 385.83 L 164.72 385.75 L 165.07 385.48 L 165.36 385.15 L 165.68 385.01 L 165.74 385.01 L 165.75 385.02 L 165.81 384.83 L 165.93 384.83 L 166.09 384.81 L 166.40 384.67 L 166.41 384.43 L 166.47 384.43 L 166.54 384.32 L 166.72 384.32 L 166.74 384.32 L 166.92 383.96 L 166.99 383.94 L 167.06 383.91 L 167.13 383.74 L 168.08 383.65 L 168.31 383.61 L 168.84 383.37 L 168.95 383.37 L 169.03 383.35 L 169.08 383.17 L 169.44 382.17 L 169.60 382.16 L 169.79 381.86 L 169.88 381.83 L 170.10 381.70 L 170.19 381.65 L 170.33 381.44 L 170.45 381.27 L 170.87 381.26 L 170.88 381.24 L 170.90 381.10 L 171.04 380.14 L 178.27 380.04 L 179.01 379.75 L 179.04 379.71 L 179.92 379.48 L 180.00 379.47 L 180.08 379.29 L 180.30 379.18 L 180.40 378.96 L 180.43 378.78 L 180.54 378.42 L 180.80 378.41 L 180.81 378.41 L 180.91 378.16 L 181.01 378.16 L 181.12 377.90 L 181.26 377.69 L 181.31 377.58 L 181.33 377.58 L 181.46 377.34 L 181.48 377.33 L 181.62 377.11 L 181.64 377.10 L 181.85 377.03 L 181.88 377.03 L 181.95 376.95 L 182.04 376.93 L 182.16 376.93 L 182.21 376.91 L 182.62 376.70 L 182.63 376.71 L 182.70 376.27 L 182.88 376.26 L 183.04 376.12 L 183.10 376.12 L 183.17 376.12 L 183.21 376.09 L 183.30 375.49 L 183.76 374.99 L 183.80 374.72 L 183.96 374.70 L 184.01 374.63 L 184.04 374.62 L 184.11 374.49 L 184.19 374.02 L 184.35 373.95 L 184.46 373.94 L 184.55 373.70 L 184.60 373.70 L 185.01 373.52 L 185.23 373.40 L 185.30 373.29 L 185.49 373.28 L 185.51 373.28 L 185.52 373.26 L 185.64 372.41 L 185.74 372.40 L 186.07 372.28 L 186.13 371.94 L 186.19 371.93 L 186.28 371.80 L 186.29 371.71 L 186.33 371.66 L 186.36 371.62 L 186.41 371.62 L 186.45 371.55 L 186.59 370.60 L 186.68 370.50 L 186.78 370.22 L 186.91 370.20 L 187.06 370.10 L 187.20 369.81 L 187.30 368.98 L 187.51 368.92 L 187.52 368.56 L 187.64 368.48 L 197.73 368.48 L 197.92 368.48 L 198.40 368.09 L 198.50 368.09 L 198.57 368.09 L 198.59 367.98 L 198.76 367.82 L 198.88 367.79 L 198.95 367.69 L 199.02 367.61 L 199.06 367.58 L 199.24 367.52 L 199.61 367.60 L 199.70 367.34 L 199.77 367.27 L 199.86 367.27 L 200.32 367.21 L 200.39 367.17 L 200.42 367.17 L 200.45 367.12 L 200.55 367.07 L 200.63 366.98 L 200.97 366.73 L 201.46 366.63 L 201.63 366.58 L 202.17 366.42 L 202.43 366.04 L 202.52 365.97 L 202.63 365.67 L 202.79 365.28 L 203.03 365.18 L 203.38 365.17 L 203.83 365.15 L 203.90 365.01 L 204.24 364.91 L 204.45 364.79 L 204.52 364.69 L 204.65 364.66 L 204.75 364.40 L 205.94 364.27 L 207.08 364.27 L 217.23 364.24 L 217.31 364.10 L 217.36 364.00 L 217.68 363.86 L 218.62 363.60 L 218.67 363.57 L 218.80 363.38 L 219.26 363.31 L 219.49 362.81 L 219.82 362.80 L 219.90 362.78 L 219.97 362.29 L 220.56 361.82 L 220.63 361.82 L 220.76 361.79 L 220.89 361.75 L 220.95 361.58 L 221.28 360.81 L 221.40 360.62 L 221.45 360.60 L 221.52 360.52 L 221.67 360.22 L 221.73 359.45 L 221.88 359.13 L 222.32 358.95 L 222.36 358.57 L 222.40 358.57 L 222.47 358.50 L 222.58 358.39 L 222.62 358.36 L 222.66 358.33 L 222.88 357.43 L 222.93 356.90 L 223.18 356.80 L 223.34 355.91 L 223.43 355.74 L 224.22 354.33 L 224.31 354.30 L 254.15 353.89 L 254.18 353.89 L 265.59 353.78 L 266.21 353.63 L 266.34 353.63 L 266.50 353.55 L 266.56 353.44 L 266.63 353.42 L 271.57 353.40 L 272.22 351.79 L 272.47 351.65 L 272.60 351.09 L 275.68 351.02 L 275.70 350.97 L 275.89 350.96 L 276.81 350.86 L 276.86 350.67 L 276.98 350.60 L 277.30 350.52 L 277.34 350.50 L 277.47 350.19 L 277.61 350.09 L 277.63 349.85 L 287.22 349.55 L 287.29 348.81 L 287.67 348.62 L 287.68 348.34 L 287.74 348.12 L 287.82 347.78 L 287.93 346.89 L 288.09 346.41 L 288.23 345.78 L 288.35 345.77 L 288.40 345.29 L 288.60 345.26 L 289.26 344.80 L 289.53 344.58 L 289.57 344.45 L 289.63 344.45 L 289.66 344.29 L 289.75 343.74 L 290.02 343.68 L 290.07 343.68 L 290.23 343.32 L 290.29 343.32 L 290.32 343.11 L 290.38 342.98 L 290.42 342.98 L 290.46 342.69 L 290.67 342.52 L 290.76 342.24 L 290.88 342.22 L 290.96 342.07 L 290.99 341.85 L 291.20 341.73 L 291.26 341.61 L 291.30 341.61 L 291.35 341.61 L 291.39 341.38 L 291.41 341.39 L 291.43 341.39 L 291.53 341.31 L 291.57 341.06 L 291.67 341.06 L 291.75 341.00 L 291.96 340.98 L 292.23 340.96 L 292.24 340.96 L 292.31 340.94 L 292.56 340.94 L 292.67 340.94 L 292.79 340.94 L 292.91 340.90 L 292.99 340.60 L 293.33 340.60 L 293.36 340.43 L 293.41 340.42 L 293.43 340.23 L 293.66 340.16 L 293.69 340.11 L 293.86 340.11 L 308.60 340.06 L 309.44 339.97 L 309.47 339.97 L 309.64 339.97 L 309.65 339.97 L 309.76 339.63 L 309.84 339.61 L 309.91 339.52 L 310.01 339.46 L 310.04 339.43 L 310.08 339.41 L 310.24 339.38 L 310.56 339.31 L 310.76 338.85 L 310.99 338.82 L 310.99 338.79 L 311.03 338.40 L 311.06 338.40 L 311.50 338.40 L 311.51 338.36 L 311.58 338.00 L 311.77 337.95 L 311.89 337.94 L 311.91 337.93 L 311.92 337.89 L 311.97 337.86 L 312.01 337.49 L 312.02 337.48 L 312.13 337.48 L 312.14 337.45 L 312.37 337.42 L 313.00 337.40 L 313.15 337.37 L 313.20 337.36 L 313.23 337.24 L 313.26 337.24 L 313.35 336.83 L 323.43 336.70 L 323.45 336.58 L 323.54 336.50 L 323.56 336.48 L 323.62 336.13 L 323.73 336.04 L 323.74 336.02 L 323.93 336.02 L 323.97 336.02 L 324.00 335.66 L 324.17 335.62 L 324.60 335.61 L 324.61 335.59 L 324.72 335.39 L 324.76 335.40 L 324.79 335.07 L 325.15 335.07 L 325.16 335.06 L 325.71 334.97 L 325.78 334.59 L 325.98 334.59 L 326.20 334.58 L 326.26 334.29 L 326.30 334.07 L 326.40 334.06 L 326.69 334.02 L 326.74 334.00 L 326.87 333.91 L 327.00 333.91 L 327.43 333.91 L 327.48 333.91 L 327.57 333.89 L 327.58 333.89 L 327.72 333.89 L 328.04 333.86 L 328.37 333.82 L 328.42 333.82 L 328.49 333.78 L 328.58 333.68 L 328.84 333.68 L 329.27 333.55 L 329.40 333.33 L 329.64 333.31 L 330.56 333.07 L 330.76 333.07 L 330.91 333.06 L 331.14 333.06 L 331.22 333.04 L 331.45 332.92 L 331.81 332.90 L 331.86 332.80 L 331.93 332.74 L 331.97 332.76 L 332.01 332.72 L 332.30 332.70 L 338.98 332.69 L 339.04 332.69 L 339.45 332.69 L 339.49 332.68 L 339.59 332.36 L 339.66 332.34 L 339.68 332.34 L 339.91 332.33 L 339.96 332.32 L 341.33 331.84 L 341.49 331.79 L 341.61 331.77 L 341.63 331.77 L 342.06 331.76 L 342.20 331.83 L 342.23 331.82 L 342.46 331.79 L 342.71 331.34 L 342.74 331.33 L 342.94 331.31 L 343.03 331.31 L 343.11 331.31 L 343.28 331.22 L 343.65 330.81 L 343.73 330.81 L 343.79 330.75 L 343.94 330.37 L 344.31 329.95 L 344.64 329.98 L 344.70 329.76 L 345.04 329.76 L 345.10 329.73 L 345.15 329.71 L 345.19 329.49 L 345.30 329.49 L 345.33 329.49 L 345.38 329.49 L 345.57 329.49 L 345.86 329.31 L 346.04 329.29 L 346.25 329.29 L 346.35 329.29 L 346.55 329.29 L 346.89 329.29 L 347.22 329.29 L 347.48 329.29 L 347.54 329.29 L 347.60 329.28 L 347.61 329.20 L 347.80 329.15 L 347.86 329.15 L 347.94 329.14 L 348.49 329.13 L 348.50 328.92 L 348.65 328.92 L 349.29 328.92 L 349.71 328.92 L 350.02 328.87 L 350.03 328.78 L 350.05 328.78 L 359.41 328.64 L 359.44 328.63 L 359.55 328.62 L 359.60 328.49 L 359.64 328.49 L 359.64 328.48 L 360.04 328.44 L 360.13 328.01 L 360.25 327.91 L 360.45 327.05 L 360.58 327.04 L 360.74 326.68 L 360.83 326.72 L 360.87 326.71 L 360.92 326.25 L 361.03 326.16 L 361.05 325.84 L 361.09 325.79 L 361.19 325.76 L 361.26 325.60 L 361.34 327.53 L 361.45 327.50 L 361.68 326.72 L 361.78 326.55 L 361.87 326.38 L 362.45 326.07 L 362.94 325.75 L 363.53 325.29 L 363.68 325.24 L 363.85 325.24 L 364.03 325.20 L 367.47 324.98 L 367.76 324.95 L 400.36 324.35 L 503.01 324.33 L 503.35 324.06 L 503.59 324.02 L 503.82 324.02 L 504.18 323.77 L 504.30 323.48 L 504.39 322.95 L 504.56 322.81 L 504.80 322.86 L 504.99 322.55 L 505.03 322.55 L 505.19 322.45 L 505.22 322.45 L 505.39 321.94 L 505.54 321.15 L 506.01 321.07 L 506.02 320.99 L 506.16 319.97 L 506.60 319.93 L 506.61 319.83 L 506.70 319.77 L 506.80 318.84 L 507.28 318.80 L 507.29 318.66 L 507.40 318.60 L 507.51 317.99 L 507.69 317.97 L 507.70 317.87 L 507.77 316.86 L 507.79 316.84 L 507.83 316.81 L 508.03 316.81 L 508.06 316.70 L 508.13 316.63 L 508.35 316.53 L 508.39 316.53 L 508.56 316.48 L 508.85 316.52 L 508.89 316.47 L 508.93 316.45 L 508.98 316.41 L 509.12 315.37 L 509.27 315.34 L 509.29 315.26 L 509.38 314.18 L 509.47 313.79 L 509.49 313.65 L 509.58 313.13 L 509.62 312.22 L 509.79 312.21 L 509.82 312.15 L 509.91 311.97 L 510.03 311.97 L 510.77 311.94 L 511.14 311.91 L 519.15 311.95 L 519.24 311.75 L 519.31 311.60 L 519.45 310.87 L 519.75 310.86 L 519.78 310.79 L 519.83 309.87 L 520.02 309.86 L 520.04 309.77 L 521.79 309.68 L 521.90 309.35 L 522.78 309.19 L 522.88 309.16 L 522.98 308.14 L 524.05 307.85 L 524.50 307.61 L 524.61 306.84 L 525.00 306.84 L 525.23 306.41 L 525.63 305.75 L 526.33 305.36 L 537.06 305.35 L 537.71 305.34 L 537.74 305.34 L 538.63 305.20 L 538.68 305.11 L 538.99 305.05 L 539.36 304.20 L 539.36 304.20 L 539.40 304.16 L 539.88 303.98 L 540.98 303.41 L 541.05 303.36 L 541.17 303.35 L 541.33 303.11 L 541.38 303.07 L 541.44 303.03 L 541.96 303.03 L 542.37 303.03 L 542.59 303.03 L 542.62 302.99 L 543.08 302.12 L 543.43 302.04 L 543.45 301.97 L 543.49 301.89 L 543.54 301.68 L 555.19 301.52 L 555.21 301.50 L 555.24 301.48 L 555.47 301.37 L 555.64 301.27 L 556.67 300.78 L 556.93 300.68 L 557.66 300.31 L 558.30 300.25 L 558.77 300.10 L 558.90 298.82 L 559.50 298.60 L 559.71 298.54 L 559.79 297.62 L 561.51 296.73 L 561.53 296.73 L 561.62 296.32 L 561.95 296.28 L 561.96 296.28 L 561.97 296.18 L 562.03 296.07 L 562.18 295.97 L 562.37 295.35 L 564.16 295.02 L 564.39 294.87 L 564.55 294.53 L 564.57 294.49 L 564.61 294.27 L 572.54 293.46 L 572.80 292.88 L 572.95 292.86 L 573.00 292.47 L 573.75 292.31 L 573.91 291.90 L 574.05 291.90 L 574.13 291.04 L 574.38 290.84 L 574.42 290.81 L 574.76 290.76 L 574.83 290.06 L 575.12 289.97 L 575.18 289.42 L 575.41 289.36 L 575.59 289.04 L 575.72 288.42 L 576.02 288.30 L 576.05 287.66 L 576.43 289.09 L 576.47 289.09 L 576.53 288.28 L 576.61 288.28 L 576.65 288.21 L 577.09 288.14 L 577.73 287.80 L 578.05 287.97 L 579.10 287.95 L 579.13 287.94 L 579.29 287.93 L 579.36 287.91 L 579.48 287.80 L 579.61 287.70 L 579.75 287.55 L 580.06 287.35 L 580.37 287.33 L 581.30 287.24 L 581.35 287.23 L 582.29 287.12 L 582.69 287.06 L 590.71 287.02 L 591.12 286.98 L 591.32 286.98 L 591.41 286.98 L 591.43 286.98 L 591.63 286.96 L 591.73 286.93 L 591.96 286.78 L 592.11 286.76 L 592.63 286.75 L 592.90 286.68 L 593.35 286.64 L 593.48 286.61 L 593.63 286.54 L 593.83 286.45 L 594.52 286.41 L 594.59 286.40 L 595.60 286.24 L 595.76 285.99 L 595.96 285.90 L 596.45 285.74 L 596.68 285.66 L 596.79 286.02 L 596.89 286.01 L 597.03 285.87 L 597.46 285.54 L 597.91 285.45 L 598.32 285.38 L 598.36 285.35 L 598.41 285.10 L 627.44 285.05 L 627.63 284.98 L 644.33 284.91 L 644.42 285.27 L 644.55 283.83 L 644.57 283.83 L 644.62 283.87 L 645.22 283.32 L 645.28 283.29 L 646.02 283.35 L 646.77 283.28 L 647.03 283.24 L 647.50 283.18 L 648.12 283.03 L 648.13 283.03 L 648.21 283.00 L 648.46 282.96 L 648.53 282.85 L 649.14 282.77 L 649.91 282.72 L 650.00 282.57"/>
	</g>
	<g class="poloto_legend poloto_imgs poloto_line poloto0 poloto_stroke"><line x1="680" x2="730" y1="81.25" y2="81.25"/></g>
	<g class="poloto_legend poloto_imgs poloto_line poloto1 poloto_stroke"><line x1="680" x2="730" y1="131.25" y2="131.25"/></g>
	<g class="poloto_legend poloto_imgs poloto_line poloto2 poloto_stroke"><line x1="680" x2="730" y1="181.25" y2="181.25"/></g>
	<text class="poloto_legend poloto_text poloto_line poloto0" x="675" y="100">total</text>
	<text class="poloto_legend poloto_text poloto_line poloto1" x="675" y="150">code</text>
	<text class="poloto_legend poloto_text poloto_line poloto2" x="675" y="200">docs</text>
	<text class="poloto_text poloto_name poloto_title" x="400.00" y="37.50">Workspace lines over time</text>
	<text class="poloto_text poloto_name poloto_x" x="400.00" y="640">date (JST)</text>
	<text class="poloto_text poloto_name poloto_y" x="37.50" y="250.00" transform="rotate(-90,37.50,250.00)">lines</text>
	<text class="poloto_text poloto_ticks poloto_y">
		<tspan x="135.00" y="400.00">0</tspan>
		<tspan x="135.00" y="324.61">50K</tspan>
		<tspan x="135.00" y="249.23">100K</tspan>
		<tspan x="135.00" y="173.84">150K</tspan>
	</text>
	<g class="poloto_imgs poloto_ticks poloto_y" stroke="black">
		<line x1="150.00" x2="144.00" y1="400.00" y2="400.00"/>
		<line x1="150.00" x2="144.00" y1="324.61" y2="324.61"/>
		<line x1="150.00" x2="144.00" y1="249.23" y2="249.23"/>
		<line x1="150.00" x2="144.00" y1="173.84" y2="173.84"/>
	</g>
	<g class="poloto_text poloto_ticks poloto_x">
		<text x="217.11" y="430.00" text-anchor="end" transform="rotate(-90 217.11 430.00)">2026-04-24 12:06</text>
		<text x="320.40" y="430.00" text-anchor="end" transform="rotate(-90 320.40 430.00)">2026-04-30 07:00</text>
		<text x="423.70" y="430.00" text-anchor="end" transform="rotate(-90 423.70 430.00)">2026-05-06 01:53</text>
		<text x="526.99" y="430.00" text-anchor="end" transform="rotate(-90 526.99 430.00)">2026-05-11 20:46</text>
		<text x="630.29" y="430.00" text-anchor="end" transform="rotate(-90 630.29 430.00)">2026-05-17 15:40</text>
	</g>
	<g class="poloto_imgs poloto_ticks poloto_x" stroke="black">
		<line x1="217.11" x2="217.11" y1="400.00" y2="405.00"/>
		<line x1="320.40" x2="320.40" y1="400.00" y2="405.00"/>
		<line x1="423.70" x2="423.70" y1="400.00" y2="405.00"/>
		<line x1="526.99" x2="526.99" y1="400.00" y2="405.00"/>
		<line x1="630.29" x2="630.29" y1="400.00" y2="405.00"/>
	</g>
	<path class="poloto_imgs poloto_ticks poloto_x" stroke="black" style="stroke-dasharray:10.329566897787284;stroke-dashoffset:-67.10561816877453;" d=" M 150.00 400.00 L 650.00 400.00"/>
	<path class="poloto_imgs poloto_ticks poloto_y" stroke="black" style="stroke-dasharray:7.5387112824353055;stroke-dashoffset:-0;" d=" M 150.00 400.00 L 150.00 100.00"/>
</svg>

