<svg class="poloto" width="800" height="680" viewBox="0 0 800 680" xmlns="http://www.w3.org/2000/svg">
	<style>
.poloto{
  stroke-linecap:round;
  stroke-linejoin:round;
  font-family:Roboto,sans-serif;
  font-size:16px;
}
.poloto_background{fill:AliceBlue;}
.poloto_scatter{stroke-width:7}
.poloto_line{stroke-width:2}
.poloto_text{fill: black;}
.poloto_name{font-size:24px;dominant-baseline:auto;text-anchor:middle;}
.poloto_where{dominant-baseline:middle;text-anchor:start}
.poloto_text.poloto_legend{font-size:20px;dominant-baseline:middle;text-anchor:start;}
.poloto_text.poloto_ticks.poloto_y{dominant-baseline:middle;text-anchor:end}
.poloto_text.poloto_ticks.poloto_x{dominant-baseline:auto;text-anchor:middle}
.poloto_imgs.poloto_ticks{stroke: black;stroke-width:3;fill:none;stroke-dasharray:none}
.poloto_grid{stroke:gray;stroke-width:0.5}

.poloto0.poloto_stroke{stroke:blue;}
.poloto1.poloto_stroke{stroke:red;}
.poloto2.poloto_stroke{stroke:green;}
.poloto3.poloto_stroke{stroke:gold;}
.poloto4.poloto_stroke{stroke:aqua;}
.poloto5.poloto_stroke{stroke:lime;}
.poloto6.poloto_stroke{stroke:orange;}
.poloto7.poloto_stroke{stroke:chocolate;}
.poloto0.poloto_fill{fill:blue;}
.poloto1.poloto_fill{fill:red;}
.poloto2.poloto_fill{fill:green;}
.poloto3.poloto_fill{fill:gold;}
.poloto4.poloto_fill{fill:aqua;}
.poloto5.poloto_fill{fill:lime;}
.poloto6.poloto_fill{fill:orange;}
.poloto7.poloto_fill{fill:chocolate;}
	</style>
	<circle r="1e5" class="poloto_background" fill="white"/>
	<g id="poloto_plot0" class="poloto_plot poloto_imgs poloto_line poloto0 poloto_stroke" fill="none" stroke="black">
		<path d=" M 150.00 371.56 L 150.02 371.54 L 150.04 371.52 L 150.05 371.52 L 150.07 371.52 L 150.09 368.43 L 150.20 368.06 L 150.43 368.04 L 150.78 367.79 L 150.96 366.22 L 151.31 366.12 L 151.38 366.04 L 151.42 366.01 L 151.84 365.24 L 152.62 364.62 L 152.86 362.19 L 152.92 362.20 L 153.39 362.10 L 153.93 362.09 L 153.94 362.09 L 153.94 362.09 L 161.25 362.09 L 161.30 362.09 L 161.39 362.07 L 161.43 362.04 L 161.71 361.90 L 161.84 361.86 L 162.15 361.64 L 162.19 361.54 L 162.28 361.32 L 162.37 361.29 L 162.40 361.29 L 162.48 361.23 L 162.56 361.23 L 162.64 361.23 L 162.84 360.87 L 163.02 360.65 L 163.05 360.65 L 163.14 360.52 L 163.72 361.07 L 163.73 361.07 L 163.80 360.98 L 164.14 360.57 L 164.40 360.07 L 164.70 359.85 L 164.76 359.81 L 164.77 359.82 L 164.83 359.62 L 164.94 359.62 L 165.09 359.55 L 165.38 359.37 L 165.39 359.08 L 165.44 359.08 L 165.51 358.93 L 165.68 358.93 L 165.70 358.93 L 165.87 358.51 L 165.93 358.49 L 166.00 358.46 L 166.06 358.29 L 166.95 358.07 L 167.17 358.02 L 167.66 357.73 L 167.77 357.73 L 167.85 357.72 L 167.89 357.51 L 168.23 356.28 L 168.38 356.26 L 168.56 355.85 L 168.64 355.81 L 168.85 355.47 L 168.94 355.35 L 169.06 355.13 L 169.17 354.94 L 169.57 352.11 L 169.58 352.04 L 169.60 351.87 L 169.73 350.52 L 176.51 350.42 L 177.21 348.87 L 177.23 348.83 L 178.06 348.59 L 178.13 348.59 L 178.21 348.28 L 178.41 348.13 L 178.51 347.86 L 178.54 347.63 L 178.64 347.23 L 178.89 347.22 L 178.89 346.94 L 178.99 346.64 L 179.08 346.64 L 179.18 346.30 L 179.32 346.05 L 179.37 345.93 L 179.39 345.93 L 179.50 345.66 L 179.52 345.66 L 179.65 345.39 L 179.67 345.38 L 179.86 344.11 L 179.90 344.11 L 179.96 343.89 L 180.05 343.88 L 180.16 343.88 L 180.21 343.86 L 180.59 343.62 L 180.60 343.62 L 180.67 343.06 L 180.84 343.05 L 180.99 342.20 L 181.04 342.12 L 181.11 342.11 L 181.14 342.08 L 181.23 341.42 L 181.66 335.88 L 181.70 335.62 L 181.85 335.59 L 181.89 335.53 L 181.92 335.51 L 181.99 335.36 L 182.06 334.73 L 182.21 334.60 L 182.32 334.59 L 182.40 334.31 L 182.45 334.30 L 182.83 334.10 L 183.04 333.94 L 183.10 333.69 L 183.28 333.68 L 183.30 333.68 L 183.31 333.66 L 183.43 332.33 L 183.52 332.25 L 183.83 330.91 L 183.88 330.51 L 183.94 330.50 L 184.02 330.36 L 184.03 330.26 L 184.07 330.19 L 184.10 330.16 L 184.15 330.15 L 184.19 330.08 L 184.31 328.99 L 184.40 328.82 L 184.49 328.50 L 184.61 328.48 L 184.75 328.38 L 184.89 327.60 L 184.98 326.52 L 185.18 326.46 L 185.18 326.06 L 185.30 325.93 L 194.76 325.93 L 194.94 325.92 L 195.39 325.35 L 195.48 325.33 L 195.55 325.33 L 195.57 325.19 L 195.73 325.01 L 195.84 324.99 L 195.91 324.88 L 195.97 324.80 L 196.01 324.76 L 196.18 324.71 L 196.52 324.64 L 196.61 324.35 L 196.67 324.28 L 196.75 324.27 L 197.19 324.12 L 197.25 324.04 L 197.28 324.04 L 197.31 323.93 L 197.41 323.88 L 197.48 323.77 L 197.80 323.04 L 198.26 322.93 L 198.42 322.89 L 198.93 322.70 L 199.17 319.22 L 199.25 319.15 L 199.36 318.81 L 199.50 318.35 L 199.73 318.22 L 200.06 318.21 L 200.48 318.20 L 200.55 318.04 L 200.86 317.88 L 201.06 317.63 L 201.13 317.53 L 201.25 317.49 L 201.35 317.18 L 202.46 316.84 L 203.53 316.84 L 213.05 316.80 L 213.12 316.65 L 213.17 316.56 L 213.47 316.41 L 214.36 315.21 L 214.39 315.13 L 214.52 314.82 L 214.96 314.74 L 215.16 313.93 L 215.48 313.92 L 215.55 313.91 L 215.62 313.35 L 216.17 310.18 L 216.24 310.18 L 216.35 310.15 L 216.48 310.11 L 216.54 309.77 L 216.84 308.57 L 216.95 308.35 L 217.00 308.33 L 217.07 307.78 L 217.21 307.01 L 217.27 306.18 L 217.41 305.81 L 217.82 301.70 L 217.86 301.28 L 217.90 301.28 L 217.96 301.20 L 218.06 301.10 L 218.10 301.06 L 218.14 301.02 L 218.34 300.03 L 218.39 299.33 L 218.63 299.19 L 218.77 298.16 L 218.86 297.51 L 219.60 287.91 L 219.69 287.88 L 247.67 287.42 L 247.70 287.42 L 258.40 287.29 L 258.98 287.03 L 259.10 287.03 L 259.26 286.95 L 259.31 286.83 L 259.37 286.80 L 264.01 286.73 L 264.62 284.90 L 264.85 284.74 L 264.97 284.07 L 267.86 283.93 L 267.88 283.75 L 268.06 283.73 L 268.92 282.58 L 268.97 282.37 L 269.08 282.30 L 269.38 282.22 L 269.42 282.19 L 269.54 281.84 L 269.67 281.75 L 269.69 281.49 L 278.68 281.14 L 278.75 280.16 L 279.11 279.94 L 279.11 278.29 L 279.18 278.05 L 279.25 277.65 L 279.35 276.51 L 279.50 275.91 L 279.63 275.20 L 279.75 275.20 L 279.79 274.66 L 279.98 274.61 L 280.60 271.96 L 280.85 271.67 L 280.89 271.51 L 280.94 271.50 L 280.98 271.32 L 281.06 270.67 L 281.31 270.36 L 281.35 270.31 L 281.51 267.98 L 281.57 267.97 L 281.59 267.72 L 281.65 267.53 L 281.69 267.53 L 281.72 267.18 L 281.92 265.92 L 282.00 265.56 L 282.11 265.51 L 282.19 262.14 L 282.22 261.86 L 282.42 259.94 L 282.47 259.79 L 282.51 259.78 L 282.56 259.78 L 282.59 259.51 L 282.62 259.52 L 282.63 259.51 L 282.73 256.10 L 282.76 255.81 L 282.86 255.79 L 282.93 255.73 L 283.13 255.63 L 283.38 255.50 L 283.39 255.50 L 283.46 255.46 L 283.69 255.40 L 283.80 255.40 L 283.91 255.40 L 284.02 253.91 L 284.10 253.56 L 284.42 253.55 L 284.45 253.32 L 284.49 253.31 L 284.51 253.06 L 284.72 250.91 L 284.76 250.86 L 284.91 250.85 L 298.74 250.78 L 299.52 250.67 L 299.55 250.67 L 299.71 250.67 L 299.72 250.67 L 299.82 250.25 L 299.90 250.23 L 299.96 250.02 L 300.06 249.97 L 300.09 249.94 L 300.12 249.92 L 300.27 249.68 L 300.57 249.47 L 300.76 248.78 L 300.97 248.12 L 300.98 248.08 L 301.02 247.47 L 301.04 247.45 L 301.45 247.08 L 301.46 247.04 L 301.53 246.55 L 301.70 246.50 L 301.82 246.45 L 301.84 245.58 L 301.85 245.54 L 301.90 246.37 L 301.93 245.86 L 301.95 245.84 L 302.05 244.67 L 302.05 244.64 L 302.27 244.54 L 302.86 244.53 L 303.00 244.49 L 303.05 244.48 L 303.07 244.33 L 303.11 244.33 L 303.19 243.75 L 312.65 242.64 L 312.66 242.49 L 312.74 242.38 L 312.76 242.17 L 312.82 232.45 L 312.92 228.47 L 312.93 228.45 L 313.11 228.37 L 313.15 228.37 L 313.18 227.91 L 313.33 227.87 L 313.74 226.93 L 313.75 226.91 L 313.85 226.62 L 313.89 226.62 L 313.91 226.15 L 314.26 225.60 L 314.27 225.58 L 314.78 225.37 L 314.85 224.87 L 315.03 224.88 L 315.24 223.62 L 315.30 223.13 L 315.33 222.73 L 315.43 222.25 L 315.70 222.08 L 315.75 221.96 L 315.86 221.85 L 315.99 221.85 L 316.39 221.85 L 316.44 221.85 L 316.53 221.82 L 316.54 221.82 L 316.66 221.84 L 316.96 221.81 L 317.27 221.63 L 317.32 221.63 L 317.39 221.55 L 317.48 221.42 L 317.71 221.42 L 318.11 221.25 L 318.24 220.86 L 318.46 217.51 L 319.33 220.34 L 319.52 220.33 L 319.66 220.31 L 319.88 220.31 L 319.95 220.26 L 320.16 220.10 L 320.50 219.87 L 320.55 219.71 L 320.61 219.65 L 320.65 219.66 L 320.69 219.62 L 320.96 219.41 L 327.22 219.40 L 327.28 219.41 L 327.67 219.39 L 327.71 219.38 L 327.79 218.95 L 327.87 218.71 L 327.88 218.71 L 328.09 218.67 L 328.14 218.65 L 329.43 218.02 L 329.58 217.97 L 329.69 217.96 L 329.71 217.95 L 330.11 217.80 L 330.25 217.88 L 330.27 217.87 L 330.48 217.83 L 330.72 216.51 L 330.75 216.50 L 330.94 216.35 L 331.02 216.35 L 331.10 216.35 L 331.26 216.20 L 331.61 215.66 L 331.67 215.64 L 331.74 215.50 L 331.88 214.86 L 332.22 214.21 L 332.53 211.13 L 332.59 210.75 L 332.91 210.60 L 332.96 210.52 L 333.01 210.38 L 333.04 209.88 L 333.15 208.99 L 333.18 209.03 L 333.23 209.01 L 333.41 209.01 L 333.68 208.68 L 333.85 208.62 L 334.04 208.61 L 334.13 208.60 L 334.32 208.59 L 334.64 208.59 L 334.95 208.58 L 335.19 208.57 L 335.25 208.56 L 335.31 208.55 L 335.31 208.45 L 335.50 208.38 L 335.55 208.37 L 335.63 208.24 L 336.14 208.22 L 336.15 207.95 L 336.29 207.94 L 336.89 207.95 L 337.29 207.78 L 337.58 207.58 L 337.59 207.48 L 337.61 207.48 L 346.39 207.29 L 346.41 207.29 L 346.52 207.28 L 346.56 207.12 L 346.59 207.11 L 346.60 207.10 L 346.97 207.06 L 347.06 206.50 L 347.17 206.37 L 347.36 205.27 L 347.48 205.26 L 347.63 204.79 L 347.71 204.85 L 347.75 204.85 L 347.80 204.31 L 347.91 203.95 L 347.92 203.56 L 347.96 203.51 L 348.05 203.48 L 348.11 203.29 L 348.19 205.39 L 348.30 205.35 L 348.52 204.52 L 348.61 204.31 L 348.69 204.14 L 349.23 202.93 L 349.69 202.35 L 350.25 201.24 L 350.39 201.19 L 350.55 201.19 L 350.72 201.14 L 353.95 200.82 L 354.21 200.79 L 384.79 199.94 L 481.05 199.75 L 481.37 199.41 L 481.59 199.36 L 481.81 199.36 L 482.15 198.71 L 482.26 198.39 L 482.35 197.81 L 482.50 196.11 L 482.73 196.46 L 482.90 196.10 L 482.95 196.09 L 483.09 195.98 L 483.13 195.98 L 483.29 195.36 L 483.43 194.37 L 483.86 193.31 L 483.88 193.23 L 484.00 191.97 L 484.42 188.86 L 484.43 188.76 L 484.51 188.69 L 484.61 187.58 L 485.06 186.08 L 485.07 185.94 L 485.16 185.87 L 485.27 185.14 L 485.43 184.55 L 485.45 184.44 L 485.52 183.30 L 485.53 183.28 L 485.57 182.96 L 485.76 180.93 L 485.78 180.82 L 485.85 180.70 L 486.05 180.43 L 486.10 180.42 L 486.26 180.04 L 486.52 180.08 L 486.56 180.03 L 486.60 180.00 L 486.65 179.97 L 486.78 178.78 L 486.92 177.81 L 486.94 177.73 L 487.02 176.51 L 487.11 175.33 L 487.12 175.18 L 487.21 173.80 L 487.25 172.71 L 487.41 171.97 L 487.44 171.92 L 487.52 171.69 L 487.64 171.67 L 488.33 171.64 L 488.67 171.61 L 496.19 171.66 L 496.27 171.44 L 496.34 171.26 L 496.47 170.45 L 496.75 170.23 L 496.77 170.15 L 496.83 169.08 L 497.01 168.03 L 497.03 167.94 L 498.67 167.87 L 498.77 167.28 L 499.59 167.11 L 499.69 167.06 L 499.78 165.85 L 500.78 164.71 L 501.21 164.27 L 501.31 163.38 L 501.67 161.86 L 501.89 161.42 L 502.26 160.52 L 502.92 160.06 L 512.99 160.05 L 513.59 159.95 L 513.62 159.97 L 514.46 159.79 L 514.50 159.70 L 514.80 159.63 L 515.14 158.64 L 515.14 158.64 L 515.18 158.60 L 515.63 157.46 L 516.66 156.81 L 516.73 156.76 L 516.83 156.75 L 516.99 156.45 L 517.03 156.37 L 517.09 156.31 L 517.57 156.27 L 517.96 156.27 L 518.17 156.27 L 518.20 156.22 L 518.63 155.23 L 518.96 155.04 L 518.97 154.97 L 519.01 154.89 L 519.06 154.62 L 529.98 154.24 L 530.00 154.22 L 530.03 154.20 L 530.24 154.09 L 530.41 153.97 L 531.37 152.44 L 531.61 152.26 L 532.30 151.80 L 532.90 151.69 L 533.34 151.54 L 533.47 150.13 L 534.02 148.48 L 534.23 148.36 L 534.30 147.30 L 535.91 145.34 L 535.93 145.34 L 536.02 144.86 L 536.33 144.81 L 536.33 144.81 L 536.35 144.69 L 536.40 144.54 L 536.54 144.38 L 536.72 143.56 L 538.39 141.58 L 538.61 141.34 L 538.76 140.98 L 538.78 140.94 L 538.82 140.66 L 546.26 139.77 L 546.50 139.09 L 546.64 139.06 L 546.69 138.61 L 547.39 138.39 L 547.54 137.94 L 547.67 137.94 L 547.75 136.99 L 547.98 134.58 L 548.02 134.54 L 548.33 134.50 L 548.40 133.71 L 548.67 132.76 L 548.73 132.11 L 548.95 131.50 L 549.11 131.18 L 549.24 130.46 L 549.52 129.84 L 549.55 129.16 L 549.91 129.00 L 549.94 129.00 L 550.00 128.12 L 550.07 128.12 L 550.11 128.05 L 550.53 126.41 L 551.13 125.87 L 551.42 126.05 L 552.41 125.97 L 552.43 125.97 L 552.59 125.95 L 552.65 125.93 L 552.76 125.82 L 552.89 125.72 L 553.02 125.54 L 553.31 125.31 L 553.59 125.29 L 554.47 125.12 L 554.51 125.12 L 555.40 124.96 L 555.77 124.86 L 563.30 124.84 L 563.68 124.72 L 563.87 124.64 L 563.95 124.64 L 563.97 124.64 L 564.16 124.62 L 564.25 124.57 L 564.47 124.41 L 564.61 124.38 L 565.10 124.21 L 565.35 123.84 L 565.77 123.79 L 565.89 123.55 L 566.03 123.40 L 566.22 123.22 L 566.87 123.27 L 566.93 123.25 L 567.88 122.79 L 568.03 122.52 L 568.22 122.43 L 568.68 122.22 L 568.89 122.28 L 569.00 122.63 L 569.09 122.61 L 569.22 122.47 L 569.63 121.39 L 570.05 121.27 L 570.43 121.18 L 570.47 121.13 L 570.52 120.83 L 597.74 120.75 L 597.92 120.62 L 613.58 120.27 L 613.66 120.66 L 613.79 119.01 L 613.81 119.01 L 613.85 119.05 L 614.41 115.70 L 614.47 115.67 L 615.16 115.74 L 615.87 115.53 L 616.11 115.22 L 616.55 114.81 L 617.13 114.55 L 617.15 114.55 L 617.22 114.48 L 617.45 114.42 L 617.52 114.26 L 618.09 113.44 L 618.82 113.27 L 618.90 113.11 L 619.27 113.04 L 619.37 113.69 L 619.65 113.45 L 619.89 113.39 L 620.37 113.22 L 620.82 113.13 L 621.05 112.78 L 621.06 112.78 L 630.86 112.76 L 633.94 111.84 L 634.06 111.40 L 634.22 110.99 L 634.71 110.96 L 634.92 110.82 L 635.07 108.66 L 635.17 107.27 L 635.41 107.13 L 635.44 107.11 L 635.79 106.70 L 635.90 106.49 L 635.96 106.38 L 636.14 106.03 L 636.20 106.01 L 636.30 105.96 L 636.37 105.76 L 636.46 105.53 L 636.56 105.40 L 636.63 105.36 L 636.94 105.27 L 637.10 105.02 L 637.23 104.90 L 637.27 104.21 L 637.63 104.08 L 637.76 103.68 L 647.00 103.77 L 647.68 103.52 L 647.80 103.52 L 648.21 102.71 L 648.39 102.61 L 649.16 101.31 L 649.49 101.19 L 649.94 100.00 L 650.00 100.00"/>
	</g>
	<g id="poloto_plot1" class="poloto_plot poloto_imgs poloto_line poloto1 poloto_stroke" fill="none" stroke="black">
		<path d=" M 150.00 383.10 L 150.02 383.09 L 150.04 383.07 L 150.05 383.07 L 150.07 383.07 L 150.09 382.54 L 150.20 382.52 L 150.43 382.51 L 150.78 382.31 L 150.96 382.22 L 151.31 382.24 L 151.38 382.20 L 151.42 382.20 L 151.84 382.16 L 152.62 382.06 L 152.86 379.97 L 152.92 379.97 L 153.39 379.92 L 153.93 379.91 L 153.94 379.91 L 153.94 379.91 L 161.25 379.91 L 161.30 379.91 L 161.39 379.91 L 161.43 379.88 L 161.71 379.87 L 161.84 379.87 L 162.15 379.87 L 162.19 379.87 L 162.28 379.86 L 162.37 379.86 L 162.40 379.86 L 162.48 379.83 L 162.56 379.83 L 162.64 379.83 L 162.84 379.72 L 163.02 379.72 L 163.05 379.72 L 163.14 379.72 L 163.72 380.50 L 163.73 380.50 L 163.80 380.49 L 164.14 380.37 L 164.40 380.24 L 164.70 380.18 L 164.76 380.14 L 164.77 380.14 L 164.83 380.14 L 164.94 380.14 L 165.09 380.09 L 165.38 380.05 L 165.39 380.05 L 165.44 380.05 L 165.51 380.03 L 165.68 380.03 L 165.70 380.03 L 165.87 380.02 L 165.93 380.02 L 166.00 380.02 L 166.06 380.02 L 166.95 379.93 L 167.17 379.92 L 167.66 379.88 L 167.77 379.88 L 167.85 379.88 L 167.89 379.88 L 168.23 379.81 L 168.38 379.81 L 168.56 379.74 L 168.64 379.73 L 168.85 379.56 L 168.94 379.50 L 169.06 379.50 L 169.17 379.50 L 169.57 377.05 L 169.58 377.01 L 169.60 377.01 L 169.73 376.77 L 176.51 376.77 L 177.21 375.72 L 177.23 375.72 L 178.06 375.72 L 178.13 375.72 L 178.21 375.61 L 178.41 375.59 L 178.51 375.59 L 178.54 375.59 L 178.64 375.59 L 178.89 375.59 L 178.89 375.36 L 178.99 375.36 L 179.08 375.36 L 179.18 375.33 L 179.32 375.33 L 179.37 375.33 L 179.39 375.33 L 179.50 375.33 L 179.52 375.33 L 179.65 375.33 L 179.67 375.33 L 179.86 374.29 L 179.90 374.29 L 179.96 374.17 L 180.05 374.17 L 180.16 374.17 L 180.21 374.15 L 180.59 374.15 L 180.60 374.15 L 180.67 374.09 L 180.84 374.09 L 180.99 373.49 L 181.04 373.42 L 181.11 373.42 L 181.14 373.42 L 181.23 373.40 L 181.66 369.04 L 181.70 369.08 L 181.85 369.08 L 181.89 369.08 L 181.92 369.07 L 181.99 369.07 L 182.06 369.01 L 182.21 369.01 L 182.32 369.01 L 182.40 369.00 L 182.45 369.00 L 182.83 368.99 L 183.04 368.99 L 183.10 368.88 L 183.28 368.88 L 183.30 368.88 L 183.31 368.88 L 183.43 368.59 L 183.52 368.51 L 183.83 367.48 L 183.88 367.48 L 183.94 367.48 L 184.02 367.49 L 184.03 367.49 L 184.07 367.49 L 184.10 367.49 L 184.15 367.49 L 184.19 367.49 L 184.31 367.47 L 184.40 367.47 L 184.49 367.46 L 184.61 367.46 L 184.75 367.45 L 184.89 367.06 L 184.98 366.93 L 185.18 366.93 L 185.18 366.93 L 185.30 366.93 L 194.76 366.93 L 194.94 366.92 L 195.39 366.86 L 195.48 366.85 L 195.55 366.85 L 195.57 366.85 L 195.73 366.85 L 195.84 366.85 L 195.91 366.85 L 195.97 366.85 L 196.01 366.84 L 196.18 366.84 L 196.52 366.86 L 196.61 366.86 L 196.67 366.86 L 196.75 366.86 L 197.19 366.78 L 197.25 366.74 L 197.28 366.74 L 197.31 366.68 L 197.41 366.68 L 197.48 366.68 L 197.80 366.28 L 198.26 366.28 L 198.42 366.28 L 198.93 366.28 L 199.17 363.61 L 199.25 363.61 L 199.36 363.61 L 199.50 363.60 L 199.73 363.60 L 200.06 363.60 L 200.48 363.60 L 200.55 363.60 L 200.86 363.54 L 201.06 363.43 L 201.13 363.43 L 201.25 363.43 L 201.35 363.41 L 202.46 363.24 L 203.53 363.24 L 213.05 363.24 L 213.12 363.24 L 213.17 363.24 L 213.47 363.24 L 214.36 362.40 L 214.39 362.37 L 214.52 362.29 L 214.96 362.28 L 215.16 362.08 L 215.48 362.08 L 215.55 362.08 L 215.62 362.08 L 216.17 359.74 L 216.24 359.74 L 216.35 359.74 L 216.48 359.74 L 216.54 359.59 L 216.84 359.30 L 216.95 359.30 L 217.00 359.30 L 217.07 358.87 L 217.21 358.44 L 217.27 358.44 L 217.41 358.43 L 217.82 354.94 L 217.86 354.94 L 217.90 354.94 L 217.96 354.94 L 218.06 354.94 L 218.10 354.94 L 218.14 354.94 L 218.34 354.94 L 218.39 354.86 L 218.63 354.85 L 218.77 354.80 L 218.86 354.38 L 219.60 347.43 L 219.69 347.43 L 247.67 347.43 L 247.70 347.43 L 258.40 347.43 L 258.98 347.32 L 259.10 347.32 L 259.26 347.32 L 259.31 347.32 L 259.37 347.32 L 264.01 347.27 L 264.62 347.20 L 264.85 347.20 L 264.97 347.18 L 267.86 347.12 L 267.88 347.03 L 268.06 347.03 L 268.92 346.08 L 268.97 346.08 L 269.08 346.08 L 269.38 346.08 L 269.42 346.08 L 269.54 346.08 L 269.67 346.08 L 269.69 346.08 L 278.68 346.07 L 278.75 345.90 L 279.11 345.90 L 279.11 344.77 L 279.18 344.77 L 279.25 344.77 L 279.35 344.66 L 279.50 344.66 L 279.63 344.61 L 279.75 344.61 L 279.79 344.61 L 279.98 344.60 L 280.60 342.67 L 280.85 342.67 L 280.89 342.66 L 280.94 342.66 L 280.98 342.66 L 281.06 342.62 L 281.31 342.39 L 281.35 342.35 L 281.51 340.62 L 281.57 340.61 L 281.59 340.61 L 281.65 340.59 L 281.69 340.59 L 281.72 340.58 L 281.92 339.64 L 282.00 339.63 L 282.11 339.61 L 282.19 336.67 L 282.22 336.67 L 282.42 335.02 L 282.47 335.02 L 282.51 335.02 L 282.56 335.02 L 282.59 335.02 L 282.62 335.02 L 282.63 335.02 L 282.73 331.96 L 282.76 331.96 L 282.86 331.95 L 282.93 331.95 L 283.13 331.89 L 283.38 331.81 L 283.39 331.81 L 283.46 331.79 L 283.69 331.74 L 283.80 331.74 L 283.91 331.74 L 284.02 330.42 L 284.10 330.42 L 284.42 330.42 L 284.45 330.41 L 284.49 330.41 L 284.51 330.41 L 284.72 328.53 L 284.76 328.53 L 284.91 328.52 L 298.74 328.52 L 299.52 328.51 L 299.55 328.51 L 299.71 328.51 L 299.72 328.51 L 299.82 328.51 L 299.90 328.50 L 299.96 328.41 L 300.06 328.41 L 300.09 328.41 L 300.12 328.41 L 300.27 328.24 L 300.57 328.13 L 300.76 328.02 L 300.97 327.49 L 300.98 327.49 L 301.02 327.36 L 301.04 327.34 L 301.45 327.02 L 301.46 327.02 L 301.53 326.97 L 301.70 326.97 L 301.82 326.94 L 301.84 326.16 L 301.85 326.16 L 301.90 326.93 L 301.93 326.88 L 301.95 326.87 L 302.05 325.83 L 302.05 325.83 L 302.27 325.78 L 302.86 325.78 L 303.00 325.78 L 303.05 325.78 L 303.07 325.78 L 303.11 325.78 L 303.19 325.72 L 312.65 324.85 L 312.66 324.85 L 312.74 324.84 L 312.76 324.65 L 312.82 315.37 L 312.92 311.92 L 312.93 311.92 L 313.11 311.86 L 313.15 311.86 L 313.18 311.84 L 313.33 311.84 L 313.74 311.00 L 313.75 311.00 L 313.85 310.95 L 313.89 310.95 L 313.91 310.88 L 314.26 310.38 L 314.27 310.38 L 314.78 310.28 L 314.85 310.24 L 315.03 310.25 L 315.24 309.11 L 315.30 309.00 L 315.33 308.89 L 315.43 308.46 L 315.70 308.36 L 315.75 308.26 L 315.86 308.26 L 315.99 308.26 L 316.39 308.26 L 316.44 308.26 L 316.53 308.26 L 316.54 308.26 L 316.66 308.28 L 316.96 308.28 L 317.27 308.16 L 317.32 308.16 L 317.39 308.14 L 317.48 308.14 L 317.71 308.14 L 318.11 308.14 L 318.24 308.04 L 318.46 305.05 L 319.33 307.87 L 319.52 307.86 L 319.66 307.85 L 319.88 307.85 L 319.95 307.82 L 320.16 307.80 L 320.50 307.63 L 320.55 307.63 L 320.61 307.63 L 320.65 307.63 L 320.69 307.63 L 320.96 307.47 L 327.22 307.47 L 327.28 307.47 L 327.67 307.46 L 327.71 307.46 L 327.79 307.43 L 327.87 307.22 L 327.88 307.22 L 328.09 307.19 L 328.14 307.19 L 329.43 307.02 L 329.58 307.02 L 329.69 307.02 L 329.71 307.02 L 330.11 306.90 L 330.25 306.90 L 330.27 306.90 L 330.48 306.89 L 330.72 306.19 L 330.75 306.19 L 330.94 306.07 L 331.02 306.07 L 331.10 306.07 L 331.26 306.07 L 331.61 306.06 L 331.67 306.04 L 331.74 305.97 L 331.88 305.85 L 332.22 305.74 L 332.53 302.92 L 332.59 302.82 L 332.91 302.69 L 332.96 302.65 L 333.01 302.55 L 333.04 302.36 L 333.15 301.51 L 333.18 301.55 L 333.23 301.53 L 333.41 301.52 L 333.68 301.41 L 333.85 301.36 L 334.04 301.35 L 334.13 301.34 L 334.32 301.33 L 334.64 301.33 L 334.95 301.32 L 335.19 301.32 L 335.25 301.31 L 335.31 301.31 L 335.31 301.31 L 335.50 301.31 L 335.55 301.30 L 335.63 301.19 L 336.14 301.18 L 336.15 301.18 L 336.29 301.17 L 336.89 301.16 L 337.29 301.03 L 337.58 300.90 L 337.59 300.90 L 337.61 300.90 L 346.39 300.90 L 346.41 300.90 L 346.52 300.90 L 346.56 300.90 L 346.59 300.89 L 346.60 300.89 L 346.97 300.89 L 347.06 300.88 L 347.17 300.86 L 347.36 300.84 L 347.48 300.84 L 347.63 300.77 L 347.71 300.77 L 347.75 300.77 L 347.80 300.77 L 347.91 300.51 L 347.92 300.51 L 347.96 300.51 L 348.05 300.51 L 348.11 300.51 L 348.19 300.57 L 348.30 300.57 L 348.52 300.56 L 348.61 300.56 L 348.69 300.56 L 349.23 299.73 L 349.69 299.51 L 350.25 298.92 L 350.39 298.92 L 350.55 298.92 L 350.72 298.92 L 353.95 298.84 L 354.21 298.84 L 384.79 298.74 L 481.05 298.58 L 481.37 298.53 L 481.59 298.53 L 481.81 298.53 L 482.15 298.14 L 482.26 298.14 L 482.35 298.14 L 482.50 296.75 L 482.73 297.02 L 482.90 297.00 L 482.95 297.00 L 483.09 296.99 L 483.13 296.99 L 483.29 296.98 L 483.43 296.92 L 483.86 296.04 L 483.88 296.04 L 484.00 295.96 L 484.42 293.11 L 484.43 293.11 L 484.51 293.11 L 484.61 293.06 L 485.06 291.74 L 485.07 291.74 L 485.16 291.74 L 485.27 291.71 L 485.43 291.22 L 485.45 291.22 L 485.52 291.22 L 485.53 291.22 L 485.57 290.95 L 485.76 289.06 L 485.78 289.06 L 485.85 289.06 L 486.05 288.90 L 486.10 288.90 L 486.26 288.59 L 486.52 288.59 L 486.56 288.59 L 486.60 288.59 L 486.65 288.59 L 486.78 288.59 L 486.92 287.74 L 486.94 287.74 L 487.02 287.73 L 487.11 287.09 L 487.12 287.09 L 487.21 286.41 L 487.25 286.37 L 487.41 285.69 L 487.44 285.69 L 487.52 285.69 L 487.64 285.68 L 488.33 285.68 L 488.67 285.67 L 496.19 285.67 L 496.27 285.67 L 496.34 285.67 L 496.47 285.67 L 496.75 285.49 L 496.77 285.49 L 496.83 285.44 L 497.01 284.50 L 497.03 284.50 L 498.67 284.52 L 498.77 284.33 L 499.59 284.33 L 499.69 284.33 L 499.78 284.26 L 500.78 283.48 L 501.21 283.33 L 501.31 283.28 L 501.67 281.81 L 501.89 281.81 L 502.26 281.69 L 502.92 281.69 L 512.99 281.68 L 513.59 281.60 L 513.62 281.61 L 514.46 281.61 L 514.50 281.61 L 514.80 281.61 L 515.14 281.58 L 515.14 281.58 L 515.18 281.58 L 515.63 280.72 L 516.66 280.70 L 516.73 280.70 L 516.83 280.70 L 516.99 280.66 L 517.03 280.64 L 517.09 280.64 L 517.57 280.60 L 517.96 280.60 L 518.17 280.60 L 518.20 280.60 L 518.63 280.58 L 518.96 280.48 L 518.97 280.48 L 519.01 280.48 L 519.06 280.48 L 529.98 280.28 L 530.00 280.28 L 530.03 280.28 L 530.24 280.28 L 530.41 280.28 L 531.37 279.43 L 531.61 279.38 L 532.30 279.31 L 532.90 279.27 L 533.34 279.27 L 533.47 279.27 L 534.02 277.98 L 534.23 277.95 L 534.30 277.90 L 535.91 277.00 L 535.93 277.00 L 536.02 276.99 L 536.33 276.98 L 536.33 276.98 L 536.35 276.98 L 536.40 276.95 L 536.54 276.92 L 536.72 276.81 L 538.39 275.33 L 538.61 275.25 L 538.76 275.25 L 538.78 275.25 L 538.82 275.25 L 546.26 275.25 L 546.50 275.24 L 546.64 275.24 L 546.69 275.24 L 547.39 275.24 L 547.54 275.24 L 547.67 275.24 L 547.75 275.21 L 547.98 273.26 L 548.02 273.25 L 548.33 273.26 L 548.40 273.24 L 548.67 272.49 L 548.73 272.45 L 548.95 271.95 L 549.11 271.95 L 549.24 271.91 L 549.52 271.46 L 549.55 271.45 L 549.91 270.00 L 549.94 270.00 L 550.00 269.99 L 550.07 269.99 L 550.11 269.99 L 550.53 268.54 L 551.13 268.41 L 551.42 268.41 L 552.41 268.37 L 552.43 268.37 L 552.59 268.37 L 552.65 268.37 L 552.76 268.37 L 552.89 268.37 L 553.02 268.36 L 553.31 268.34 L 553.59 268.34 L 554.47 268.27 L 554.51 268.27 L 555.40 268.23 L 555.77 268.19 L 563.30 268.21 L 563.68 268.14 L 563.87 268.06 L 563.95 268.06 L 563.97 268.06 L 564.16 268.05 L 564.25 268.05 L 564.47 268.05 L 564.61 268.05 L 565.10 267.92 L 565.35 267.65 L 565.77 267.64 L 565.89 267.46 L 566.03 267.38 L 566.22 267.30 L 566.87 267.38 L 566.93 267.38 L 567.88 267.11 L 568.03 267.11 L 568.22 267.11 L 568.68 267.08 L 568.89 267.21 L 569.00 267.21 L 569.09 267.21 L 569.22 267.21 L 569.63 266.59 L 570.05 266.57 L 570.43 266.57 L 570.47 266.57 L 570.52 266.57 L 597.74 266.57 L 597.92 266.53 L 613.58 266.32 L 613.66 266.32 L 613.79 266.26 L 613.81 266.26 L 613.85 266.26 L 614.41 263.84 L 614.47 263.84 L 615.16 263.84 L 615.87 263.74 L 616.11 263.49 L 616.55 263.18 L 617.13 263.10 L 617.15 263.10 L 617.22 263.05 L 617.45 263.05 L 617.52 263.00 L 618.09 262.35 L 618.82 262.25 L 618.90 262.25 L 619.27 262.24 L 619.37 262.24 L 619.65 262.08 L 619.89 262.06 L 620.37 261.92 L 620.82 261.85 L 621.05 261.85 L 621.06 261.85 L 630.86 261.85 L 633.94 261.81 L 634.06 261.78 L 634.22 261.49 L 634.71 261.51 L 634.92 261.51 L 635.07 261.51 L 635.17 261.38 L 635.41 261.29 L 635.44 261.29 L 635.79 261.06 L 635.90 260.89 L 635.96 260.84 L 636.14 260.73 L 636.20 260.73 L 636.30 260.71 L 636.37 260.58 L 636.46 260.42 L 636.56 260.39 L 636.63 260.38 L 636.94 260.33 L 637.10 260.21 L 637.23 260.12 L 637.27 260.12 L 637.63 260.12 L 637.76 260.12 L 647.00 260.14 L 647.68 260.13 L 647.80 260.13 L 648.21 259.72 L 648.39 259.66 L 649.16 259.62 L 649.49 259.62 L 649.94 258.64 L 650.00 258.64"/>
	</g>
	<g id="poloto_plot2" class="poloto_plot poloto_imgs poloto_line poloto2 poloto_stroke" fill="none" stroke="black">
		<path d=" M 150.00 392.42 L 150.02 392.41 L 150.04 392.41 L 150.05 392.41 L 150.07 392.41 L 150.09 390.47 L 150.20 390.20 L 150.43 390.20 L 150.78 390.19 L 150.96 389.03 L 151.31 388.92 L 151.38 388.89 L 151.42 388.86 L 151.84 388.34 L 152.62 387.93 L 152.86 387.86 L 152.92 387.86 L 153.39 387.83 L 153.93 387.83 L 153.94 387.83 L 153.94 387.83 L 161.25 387.83 L 161.30 387.82 L 161.39 387.81 L 161.43 387.81 L 161.71 387.69 L 161.84 387.66 L 162.15 387.47 L 162.19 387.39 L 162.28 387.21 L 162.37 387.19 L 162.40 387.19 L 162.48 387.16 L 162.56 387.16 L 162.64 387.16 L 162.84 386.96 L 163.02 386.78 L 163.05 386.79 L 163.14 386.68 L 163.72 386.45 L 163.73 386.45 L 163.80 386.37 L 164.14 386.12 L 164.40 385.80 L 164.70 385.67 L 164.76 385.67 L 164.77 385.67 L 164.83 385.50 L 164.94 385.50 L 165.09 385.47 L 165.38 385.34 L 165.39 385.11 L 165.44 385.11 L 165.51 385.00 L 165.68 385.00 L 165.70 385.00 L 165.87 384.66 L 165.93 384.64 L 166.00 384.61 L 166.06 384.45 L 166.95 384.36 L 167.17 384.33 L 167.66 384.09 L 167.77 384.09 L 167.85 384.08 L 167.89 383.90 L 168.23 382.95 L 168.38 382.94 L 168.56 382.65 L 168.64 382.63 L 168.85 382.50 L 168.94 382.46 L 169.06 382.25 L 169.17 382.09 L 169.57 382.08 L 169.58 382.06 L 169.60 381.93 L 169.73 381.01 L 176.51 380.91 L 177.21 380.64 L 177.23 380.60 L 178.06 380.37 L 178.13 380.37 L 178.21 380.20 L 178.41 380.09 L 178.51 379.88 L 178.54 379.70 L 178.64 379.36 L 178.89 379.36 L 178.89 379.36 L 178.99 379.12 L 179.08 379.11 L 179.18 378.86 L 179.32 378.67 L 179.37 378.56 L 179.39 378.56 L 179.50 378.33 L 179.52 378.32 L 179.65 378.11 L 179.67 378.10 L 179.86 378.03 L 179.90 378.03 L 179.96 377.95 L 180.05 377.94 L 180.16 377.94 L 180.21 377.92 L 180.59 377.72 L 180.60 377.72 L 180.67 377.31 L 180.84 377.30 L 180.99 377.17 L 181.04 377.17 L 181.11 377.16 L 181.14 377.13 L 181.23 376.56 L 181.66 376.09 L 181.70 375.83 L 181.85 375.80 L 181.89 375.74 L 181.92 375.73 L 181.99 375.61 L 182.06 375.16 L 182.21 375.09 L 182.32 375.08 L 182.40 374.85 L 182.45 374.85 L 182.83 374.68 L 183.04 374.56 L 183.10 374.46 L 183.28 374.45 L 183.30 374.45 L 183.31 374.42 L 183.43 373.61 L 183.52 373.61 L 183.83 373.49 L 183.88 373.17 L 183.94 373.16 L 184.02 373.03 L 184.03 372.95 L 184.07 372.90 L 184.10 372.86 L 184.15 372.86 L 184.19 372.80 L 184.31 371.89 L 184.40 371.79 L 184.49 371.52 L 184.61 371.50 L 184.75 371.41 L 184.89 371.13 L 184.98 370.34 L 185.18 370.27 L 185.18 369.94 L 185.30 369.85 L 194.76 369.86 L 194.94 369.86 L 195.39 369.48 L 195.48 369.48 L 195.55 369.48 L 195.57 369.38 L 195.73 369.22 L 195.84 369.20 L 195.91 369.10 L 195.97 369.03 L 196.01 369.00 L 196.18 368.94 L 196.52 369.02 L 196.61 368.77 L 196.67 368.70 L 196.75 368.70 L 197.19 368.65 L 197.25 368.60 L 197.28 368.60 L 197.31 368.55 L 197.41 368.51 L 197.48 368.42 L 197.80 368.18 L 198.26 368.08 L 198.42 368.04 L 198.93 367.89 L 199.17 367.52 L 199.25 367.46 L 199.36 367.17 L 199.50 366.80 L 199.73 366.70 L 200.06 366.69 L 200.48 366.68 L 200.55 366.54 L 200.86 366.45 L 201.06 366.33 L 201.13 366.24 L 201.25 366.20 L 201.35 365.95 L 202.46 365.83 L 203.53 365.83 L 213.05 365.80 L 213.12 365.67 L 213.17 365.58 L 213.47 365.44 L 214.36 365.19 L 214.39 365.16 L 214.52 364.98 L 214.96 364.91 L 215.16 364.43 L 215.48 364.42 L 215.55 364.41 L 215.62 363.93 L 216.17 363.49 L 216.24 363.49 L 216.35 363.46 L 216.48 363.42 L 216.54 363.26 L 216.84 362.53 L 216.95 362.34 L 217.00 362.32 L 217.07 362.25 L 217.21 361.96 L 217.27 361.22 L 217.41 360.92 L 217.82 360.75 L 217.86 360.38 L 217.90 360.38 L 217.96 360.31 L 218.06 360.21 L 218.10 360.18 L 218.14 360.15 L 218.34 359.29 L 218.39 358.78 L 218.63 358.69 L 218.77 357.83 L 218.86 357.67 L 219.60 356.33 L 219.69 356.30 L 247.67 355.91 L 247.70 355.91 L 258.40 355.80 L 258.98 355.65 L 259.10 355.65 L 259.26 355.58 L 259.31 355.48 L 259.37 355.45 L 264.01 355.44 L 264.62 353.89 L 264.85 353.76 L 264.97 353.23 L 267.86 353.16 L 267.88 353.11 L 268.06 353.10 L 268.92 353.01 L 268.97 352.83 L 269.08 352.76 L 269.38 352.68 L 269.42 352.66 L 269.54 352.36 L 269.67 352.27 L 269.69 352.04 L 278.68 351.75 L 278.75 351.05 L 279.11 350.87 L 279.11 350.60 L 279.18 350.39 L 279.25 350.07 L 279.35 349.22 L 279.50 348.75 L 279.63 348.15 L 279.75 348.14 L 279.79 347.68 L 279.98 347.65 L 280.60 347.21 L 280.85 347.00 L 280.89 346.88 L 280.94 346.87 L 280.98 346.72 L 281.06 346.19 L 281.31 346.14 L 281.35 346.14 L 281.51 345.80 L 281.57 345.80 L 281.59 345.60 L 281.65 345.48 L 281.69 345.47 L 281.72 345.20 L 281.92 345.03 L 282.00 344.76 L 282.11 344.75 L 282.19 344.60 L 282.22 344.39 L 282.42 344.28 L 282.47 344.16 L 282.51 344.16 L 282.56 344.16 L 282.59 343.94 L 282.62 343.95 L 282.63 343.95 L 282.73 343.87 L 282.76 343.64 L 282.86 343.64 L 282.93 343.58 L 283.13 343.56 L 283.38 343.54 L 283.39 343.54 L 283.46 343.52 L 283.69 343.52 L 283.80 343.52 L 283.91 343.52 L 284.02 343.48 L 284.10 343.20 L 284.42 343.20 L 284.45 343.03 L 284.49 343.03 L 284.51 342.84 L 284.72 342.77 L 284.76 342.73 L 284.91 342.73 L 298.74 342.68 L 299.52 342.60 L 299.55 342.60 L 299.71 342.60 L 299.72 342.60 L 299.82 342.26 L 299.90 342.25 L 299.96 342.16 L 300.06 342.11 L 300.09 342.08 L 300.12 342.06 L 300.27 342.03 L 300.57 341.97 L 300.76 341.52 L 300.97 341.49 L 300.98 341.47 L 301.02 341.09 L 301.04 341.09 L 301.45 341.09 L 301.46 341.05 L 301.53 340.71 L 301.70 340.66 L 301.82 340.65 L 301.84 340.64 L 301.85 340.60 L 301.90 340.58 L 301.93 340.22 L 301.95 340.22 L 302.05 340.22 L 302.05 340.19 L 302.27 340.15 L 302.86 340.14 L 303.00 340.11 L 303.05 340.10 L 303.07 339.99 L 303.11 339.99 L 303.19 339.59 L 312.65 339.46 L 312.66 339.35 L 312.74 339.27 L 312.76 339.26 L 312.82 338.92 L 312.92 338.84 L 312.93 338.82 L 313.11 338.81 L 313.15 338.81 L 313.18 338.48 L 313.33 338.43 L 313.74 338.42 L 313.75 338.40 L 313.85 338.22 L 313.89 338.22 L 313.91 337.91 L 314.26 337.91 L 314.27 337.89 L 314.78 337.82 L 314.85 337.44 L 315.03 337.44 L 315.24 337.44 L 315.30 337.17 L 315.33 336.95 L 315.43 336.95 L 315.70 336.90 L 315.75 336.88 L 315.86 336.80 L 315.99 336.80 L 316.39 336.80 L 316.44 336.80 L 316.53 336.78 L 316.54 336.78 L 316.66 336.78 L 316.96 336.75 L 317.27 336.71 L 317.32 336.71 L 317.39 336.67 L 317.48 336.57 L 317.71 336.57 L 318.11 336.45 L 318.24 336.24 L 318.46 336.22 L 319.33 335.99 L 319.52 335.99 L 319.66 335.99 L 319.88 335.98 L 319.95 335.97 L 320.16 335.85 L 320.50 335.84 L 320.55 335.73 L 320.61 335.68 L 320.65 335.70 L 320.69 335.66 L 320.96 335.64 L 327.22 335.64 L 327.28 335.64 L 327.67 335.64 L 327.71 335.62 L 327.79 335.31 L 327.87 335.30 L 327.88 335.30 L 328.09 335.29 L 328.14 335.27 L 329.43 334.82 L 329.58 334.77 L 329.69 334.76 L 329.71 334.75 L 330.11 334.74 L 330.25 334.81 L 330.27 334.80 L 330.48 334.77 L 330.72 334.34 L 330.75 334.33 L 330.94 334.32 L 331.02 334.32 L 331.10 334.32 L 331.26 334.23 L 331.61 333.83 L 331.67 333.83 L 331.74 333.77 L 331.88 333.41 L 332.22 333.02 L 332.53 333.04 L 332.59 332.83 L 332.91 332.83 L 332.96 332.81 L 333.01 332.78 L 333.04 332.57 L 333.15 332.57 L 333.18 332.57 L 333.23 332.57 L 333.41 332.57 L 333.68 332.40 L 333.85 332.38 L 334.04 332.38 L 334.13 332.38 L 334.32 332.38 L 334.64 332.38 L 334.95 332.38 L 335.19 332.38 L 335.25 332.38 L 335.31 332.37 L 335.31 332.30 L 335.50 332.24 L 335.55 332.24 L 335.63 332.23 L 336.14 332.23 L 336.15 332.02 L 336.29 332.02 L 336.89 332.03 L 337.29 332.02 L 337.58 331.98 L 337.59 331.90 L 337.61 331.90 L 346.39 331.76 L 346.41 331.75 L 346.52 331.74 L 346.56 331.62 L 346.59 331.62 L 346.60 331.61 L 346.97 331.57 L 347.06 331.15 L 347.17 331.06 L 347.36 330.24 L 347.48 330.23 L 347.63 329.88 L 347.71 329.92 L 347.75 329.92 L 347.80 329.47 L 347.91 329.39 L 347.92 329.08 L 347.96 329.04 L 348.05 329.01 L 348.11 328.85 L 348.19 330.70 L 348.30 330.67 L 348.52 329.92 L 348.61 329.76 L 348.69 329.60 L 349.23 329.30 L 349.69 328.99 L 350.25 328.56 L 350.39 328.51 L 350.55 328.51 L 350.72 328.47 L 353.95 328.26 L 354.21 328.23 L 384.79 327.66 L 481.05 327.64 L 481.37 327.38 L 481.59 327.34 L 481.81 327.34 L 482.15 327.10 L 482.26 326.83 L 482.35 326.32 L 482.50 326.19 L 482.73 326.23 L 482.90 325.94 L 482.95 325.93 L 483.09 325.84 L 483.13 325.84 L 483.29 325.35 L 483.43 324.59 L 483.86 324.52 L 483.88 324.44 L 484.00 323.46 L 484.42 323.43 L 484.43 323.33 L 484.51 323.28 L 484.61 322.39 L 485.06 322.35 L 485.07 322.22 L 485.16 322.16 L 485.27 321.58 L 485.43 321.56 L 485.45 321.46 L 485.52 320.50 L 485.53 320.47 L 485.57 320.44 L 485.76 320.44 L 485.78 320.34 L 485.85 320.27 L 486.05 320.18 L 486.10 320.18 L 486.26 320.13 L 486.52 320.17 L 486.56 320.12 L 486.60 320.10 L 486.65 320.07 L 486.78 319.07 L 486.92 319.04 L 486.94 318.96 L 487.02 317.93 L 487.11 317.56 L 487.12 317.43 L 487.21 316.93 L 487.25 316.05 L 487.41 316.04 L 487.44 315.99 L 487.52 315.82 L 487.64 315.81 L 488.33 315.78 L 488.67 315.76 L 496.19 315.80 L 496.27 315.61 L 496.34 315.46 L 496.47 314.77 L 496.75 314.76 L 496.77 314.69 L 496.83 313.81 L 497.01 313.80 L 497.03 313.72 L 498.67 313.63 L 498.77 313.31 L 499.59 313.16 L 499.69 313.13 L 499.78 312.15 L 500.78 311.88 L 501.21 311.64 L 501.31 310.91 L 501.67 310.91 L 501.89 310.50 L 502.26 309.87 L 502.92 309.49 L 512.99 309.49 L 513.59 309.48 L 513.62 309.48 L 514.46 309.34 L 514.50 309.26 L 514.80 309.20 L 515.14 308.39 L 515.14 308.39 L 515.18 308.35 L 515.63 308.18 L 516.66 307.64 L 516.73 307.58 L 516.83 307.57 L 516.99 307.34 L 517.03 307.31 L 517.09 307.27 L 517.57 307.26 L 517.96 307.26 L 518.17 307.26 L 518.20 307.23 L 518.63 306.40 L 518.96 306.32 L 518.97 306.26 L 519.01 306.18 L 519.06 305.98 L 529.98 305.82 L 530.00 305.80 L 530.03 305.79 L 530.24 305.68 L 530.41 305.58 L 531.37 305.12 L 531.61 305.02 L 532.30 304.66 L 532.90 304.61 L 533.34 304.46 L 533.47 303.24 L 534.02 303.04 L 534.23 302.97 L 534.30 302.09 L 535.91 301.25 L 535.93 301.25 L 536.02 300.85 L 536.33 300.82 L 536.33 300.82 L 536.35 300.72 L 536.40 300.61 L 536.54 300.52 L 536.72 299.92 L 538.39 299.61 L 538.61 299.47 L 538.76 299.14 L 538.78 299.10 L 538.82 298.89 L 546.26 298.12 L 546.50 297.57 L 546.64 297.54 L 546.69 297.17 L 547.39 297.02 L 547.54 296.62 L 547.67 296.62 L 547.75 295.80 L 547.98 295.61 L 548.02 295.58 L 548.33 295.54 L 548.40 294.86 L 548.67 294.78 L 548.73 294.25 L 548.95 294.19 L 549.11 293.89 L 549.24 293.29 L 549.52 293.18 L 549.55 292.57 L 549.91 293.94 L 549.94 293.94 L 550.00 293.16 L 550.07 293.16 L 550.11 293.10 L 550.53 293.03 L 551.13 292.70 L 551.42 292.87 L 552.41 292.85 L 552.43 292.84 L 552.59 292.83 L 552.65 292.81 L 552.76 292.70 L 552.89 292.61 L 553.02 292.47 L 553.31 292.27 L 553.59 292.26 L 554.47 292.16 L 554.51 292.16 L 555.40 292.05 L 555.77 291.99 L 563.30 291.96 L 563.68 291.92 L 563.87 291.92 L 563.95 291.92 L 563.97 291.92 L 564.16 291.90 L 564.25 291.87 L 564.47 291.73 L 564.61 291.71 L 565.10 291.70 L 565.35 291.63 L 565.77 291.59 L 565.89 291.57 L 566.03 291.50 L 566.22 291.41 L 566.87 291.38 L 566.93 291.36 L 567.88 291.21 L 568.03 290.97 L 568.22 290.88 L 568.68 290.74 L 568.89 290.66 L 569.00 291.00 L 569.09 290.99 L 569.22 290.86 L 569.63 290.55 L 570.05 290.46 L 570.43 290.39 L 570.47 290.36 L 570.52 290.12 L 597.74 290.08 L 597.92 290.01 L 613.58 289.94 L 613.66 290.28 L 613.79 288.91 L 613.81 288.91 L 613.85 288.94 L 614.41 288.42 L 614.47 288.39 L 615.16 288.44 L 615.87 288.38 L 616.11 288.34 L 616.55 288.29 L 617.13 288.14 L 617.15 288.14 L 617.22 288.12 L 617.45 288.07 L 617.52 287.97 L 618.09 287.89 L 618.82 287.84 L 618.90 287.70 L 619.27 287.63 L 619.37 288.24 L 619.65 288.19 L 619.89 288.16 L 620.37 288.13 L 620.82 288.13 L 621.05 287.84 L 621.06 287.84 L 630.86 287.83 L 633.94 287.10 L 634.06 286.73 L 634.22 286.64 L 634.71 286.61 L 634.92 286.48 L 635.07 284.65 L 635.17 283.66 L 635.41 283.62 L 635.44 283.61 L 635.79 283.47 L 635.90 283.43 L 635.96 283.37 L 636.14 283.15 L 636.20 283.13 L 636.30 283.11 L 636.37 283.05 L 636.46 283.00 L 636.56 282.91 L 636.63 282.87 L 636.94 282.84 L 637.10 282.74 L 637.23 282.71 L 637.27 282.11 L 637.63 281.99 L 637.76 281.66 L 647.00 281.72 L 647.68 281.53 L 647.80 281.53 L 648.21 281.17 L 648.39 281.14 L 649.16 280.05 L 649.49 279.95 L 649.94 279.81 L 650.00 279.81"/>
	</g>
	<g class="poloto_legend poloto_imgs poloto_line poloto0 poloto_stroke"><line x1="680" x2="730" y1="81.25" y2="81.25"/></g>
	<g class="poloto_legend poloto_imgs poloto_line poloto1 poloto_stroke"><line x1="680" x2="730" y1="131.25" y2="131.25"/></g>
	<g class="poloto_legend poloto_imgs poloto_line poloto2 poloto_stroke"><line x1="680" x2="730" y1="181.25" y2="181.25"/></g>
	<text class="poloto_legend poloto_text poloto_line poloto0" x="675" y="100">total</text>
	<text class="poloto_legend poloto_text poloto_line poloto1" x="675" y="150">code</text>
	<text class="poloto_legend poloto_text poloto_line poloto2" x="675" y="200">docs</text>
	<text class="poloto_text poloto_name poloto_title" x="400.00" y="37.50">Workspace lines over time</text>
	<text class="poloto_text poloto_name poloto_x" x="400.00" y="640">date (JST)</text>
	<text class="poloto_text poloto_name poloto_y" x="37.50" y="250.00" transform="rotate(-90,37.50,250.00)">lines</text>
	<text class="poloto_text poloto_ticks poloto_y">
		<tspan x="135.00" y="400.00">0</tspan>
		<tspan x="135.00" y="327.91">50K</tspan>
		<tspan x="135.00" y="255.82">100K</tspan>
		<tspan x="135.00" y="183.72">150K</tspan>
		<tspan x="135.00" y="111.63">200K</tspan>
	</text>
	<g class="poloto_imgs poloto_ticks poloto_y" stroke="black">
		<line x1="150.00" x2="144.00" y1="400.00" y2="400.00"/>
		<line x1="150.00" x2="144.00" y1="327.91" y2="327.91"/>
		<line x1="150.00" x2="144.00" y1="255.82" y2="255.82"/>
		<line x1="150.00" x2="144.00" y1="183.72" y2="183.72"/>
		<line x1="150.00" x2="144.00" y1="111.63" y2="111.63"/>
	</g>
	<g class="poloto_text poloto_ticks poloto_x">
		<text x="212.93" y="430.00" text-anchor="end" transform="rotate(-90 212.93 430.00)">2026-04-24 12:06</text>
		<text x="309.80" y="430.00" text-anchor="end" transform="rotate(-90 309.80 430.00)">2026-04-30 07:00</text>
		<text x="406.67" y="430.00" text-anchor="end" transform="rotate(-90 406.67 430.00)">2026-05-06 01:53</text>
		<text x="503.54" y="430.00" text-anchor="end" transform="rotate(-90 503.54 430.00)">2026-05-11 20:46</text>
		<text x="600.41" y="430.00" text-anchor="end" transform="rotate(-90 600.41 430.00)">2026-05-17 15:40</text>
	</g>
	<g class="poloto_imgs poloto_ticks poloto_x" stroke="black">
		<line x1="212.93" x2="212.93" y1="400.00" y2="405.00"/>
		<line x1="309.80" x2="309.80" y1="400.00" y2="405.00"/>
		<line x1="406.67" x2="406.67" y1="400.00" y2="405.00"/>
		<line x1="503.54" x2="503.54" y1="400.00" y2="405.00"/>
		<line x1="600.41" x2="600.41" y1="400.00" y2="405.00"/>
	</g>
	<path class="poloto_imgs poloto_ticks poloto_x" stroke="black" style="stroke-dasharray:9.68700886865036;stroke-dashoffset:-62.931265634833835;" d=" M 150.00 400.00 L 650.00 400.00"/>
	<path class="poloto_imgs poloto_ticks poloto_y" stroke="black" style="stroke-dasharray:7.20921626206943;stroke-dashoffset:-0;" d=" M 150.00 400.00 L 150.00 100.00"/>
</svg>

