<svg class="poloto" width="800" height="680" viewBox="0 0 800 680" xmlns="http://www.w3.org/2000/svg">
	<style>
.poloto{
  stroke-linecap:round;
  stroke-linejoin:round;
  font-family:Roboto,sans-serif;
  font-size:16px;
}
.poloto_background{fill:AliceBlue;}
.poloto_scatter{stroke-width:7}
.poloto_line{stroke-width:2}
.poloto_text{fill: black;}
.poloto_name{font-size:24px;dominant-baseline:auto;text-anchor:middle;}
.poloto_where{dominant-baseline:middle;text-anchor:start}
.poloto_text.poloto_legend{font-size:20px;dominant-baseline:middle;text-anchor:start;}
.poloto_text.poloto_ticks.poloto_y{dominant-baseline:middle;text-anchor:end}
.poloto_text.poloto_ticks.poloto_x{dominant-baseline:auto;text-anchor:middle}
.poloto_imgs.poloto_ticks{stroke: black;stroke-width:3;fill:none;stroke-dasharray:none}
.poloto_grid{stroke:gray;stroke-width:0.5}

.poloto0.poloto_stroke{stroke:blue;}
.poloto1.poloto_stroke{stroke:red;}
.poloto2.poloto_stroke{stroke:green;}
.poloto3.poloto_stroke{stroke:gold;}
.poloto4.poloto_stroke{stroke:aqua;}
.poloto5.poloto_stroke{stroke:lime;}
.poloto6.poloto_stroke{stroke:orange;}
.poloto7.poloto_stroke{stroke:chocolate;}
.poloto0.poloto_fill{fill:blue;}
.poloto1.poloto_fill{fill:red;}
.poloto2.poloto_fill{fill:green;}
.poloto3.poloto_fill{fill:gold;}
.poloto4.poloto_fill{fill:aqua;}
.poloto5.poloto_fill{fill:lime;}
.poloto6.poloto_fill{fill:orange;}
.poloto7.poloto_fill{fill:chocolate;}
	</style>
	<circle r="1e5" class="poloto_background" fill="white"/>
	<g id="poloto_plot0" class="poloto_plot poloto_imgs poloto_line poloto0 poloto_stroke" fill="none" stroke="black">
		<path d=" M 150.00 358.15 L 150.04 358.12 L 150.06 358.10 L 150.07 358.10 L 150.10 358.10 L 150.14 353.56 L 150.29 353.01 L 150.65 352.98 L 151.17 352.61 L 151.44 350.30 L 151.97 350.16 L 152.07 350.04 L 152.14 349.99 L 152.76 348.86 L 153.93 347.94 L 154.30 344.38 L 154.39 344.38 L 155.10 344.24 L 155.91 344.23 L 155.92 344.23 L 155.92 344.23 L 166.90 344.23 L 166.97 344.22 L 167.11 344.19 L 167.17 344.15 L 167.59 343.94 L 167.78 343.89 L 168.24 343.56 L 168.31 343.41 L 168.44 343.09 L 168.58 343.04 L 168.62 343.04 L 168.74 342.95 L 168.86 342.95 L 168.98 342.96 L 169.28 342.43 L 169.55 342.10 L 169.60 342.11 L 169.73 341.91 L 170.61 342.73 L 170.62 342.73 L 170.73 342.59 L 171.23 341.98 L 171.63 341.25 L 172.08 340.93 L 172.18 340.87 L 172.19 340.88 L 172.27 340.60 L 172.44 340.60 L 172.66 340.49 L 173.09 340.22 L 173.12 339.79 L 173.20 339.79 L 173.30 339.57 L 173.55 339.57 L 173.57 339.57 L 173.83 338.96 L 173.93 338.93 L 174.03 338.88 L 174.13 338.64 L 175.46 338.31 L 175.78 338.24 L 176.53 337.81 L 176.69 337.81 L 176.80 337.79 L 176.87 337.48 L 177.38 335.68 L 177.61 335.64 L 177.87 335.04 L 178.00 334.98 L 178.31 334.48 L 178.44 334.30 L 178.63 333.98 L 178.80 333.70 L 179.39 329.54 L 179.41 329.44 L 179.43 329.19 L 179.64 327.20 L 189.81 327.05 L 190.87 324.78 L 190.90 324.72 L 192.15 324.37 L 192.25 324.35 L 192.37 323.90 L 192.67 323.68 L 192.81 323.29 L 192.86 322.95 L 193.02 322.35 L 193.39 322.34 L 193.40 321.94 L 193.53 321.49 L 193.67 321.49 L 193.83 320.99 L 194.03 320.63 L 194.11 320.45 L 194.14 320.44 L 194.31 320.05 L 194.34 320.04 L 194.53 319.65 L 194.56 319.64 L 194.85 317.77 L 194.90 317.77 L 195.00 317.45 L 195.13 317.44 L 195.30 317.44 L 195.37 317.40 L 195.94 317.04 L 195.95 317.05 L 196.06 316.22 L 196.32 316.20 L 196.54 314.95 L 196.61 314.84 L 196.72 314.83 L 196.78 314.78 L 196.91 313.82 L 197.54 305.67 L 197.61 305.27 L 197.83 305.24 L 197.90 305.14 L 197.95 305.11 L 198.05 304.90 L 198.15 303.97 L 198.38 303.78 L 198.54 303.76 L 198.66 303.36 L 198.74 303.34 L 199.31 303.04 L 199.62 302.81 L 199.72 302.45 L 199.99 302.43 L 200.01 302.43 L 200.04 302.39 L 200.20 300.43 L 200.34 300.32 L 200.81 298.34 L 200.89 297.77 L 200.98 297.75 L 201.10 297.54 L 201.12 297.39 L 201.17 297.29 L 201.22 297.24 L 201.28 297.24 L 201.34 297.13 L 201.53 295.52 L 201.67 295.28 L 201.80 294.81 L 201.99 294.77 L 202.19 294.62 L 202.40 293.48 L 202.54 291.89 L 202.84 291.80 L 202.84 291.21 L 203.02 291.02 L 217.23 291.02 L 217.50 291.00 L 218.17 290.16 L 218.31 290.14 L 218.42 290.14 L 218.44 289.94 L 218.68 289.67 L 218.85 289.63 L 218.95 289.48 L 219.05 289.37 L 219.11 289.31 L 219.36 289.23 L 219.87 289.13 L 220.00 288.70 L 220.10 288.59 L 220.22 288.58 L 220.88 288.36 L 220.97 288.23 L 221.02 288.23 L 221.06 288.07 L 221.20 288.00 L 221.31 287.84 L 221.79 286.78 L 222.48 286.61 L 222.73 286.54 L 223.49 286.27 L 223.85 281.15 L 223.97 281.04 L 224.13 280.54 L 224.35 279.87 L 224.70 279.68 L 225.18 279.66 L 225.83 279.64 L 225.92 279.42 L 226.39 279.18 L 226.69 278.81 L 226.79 278.66 L 226.98 278.60 L 227.12 278.15 L 228.80 277.64 L 230.40 277.64 L 244.70 277.60 L 244.80 277.37 L 244.88 277.23 L 245.32 277.01 L 246.66 275.24 L 246.72 275.13 L 246.90 274.67 L 247.56 274.56 L 247.87 273.36 L 248.34 273.35 L 248.45 273.33 L 248.56 272.52 L 249.39 267.85 L 249.49 267.85 L 249.66 267.81 L 249.85 267.75 L 249.93 267.24 L 250.39 265.48 L 250.56 265.16 L 250.64 265.13 L 250.74 264.32 L 250.95 263.18 L 251.03 261.97 L 251.24 261.42 L 251.86 255.37 L 251.92 254.76 L 251.98 254.76 L 252.07 254.64 L 252.23 254.49 L 252.29 254.43 L 252.35 254.37 L 252.65 252.92 L 252.72 251.89 L 253.08 251.69 L 253.29 250.16 L 253.43 249.20 L 254.54 235.08 L 254.67 235.04 L 296.70 234.36 L 296.74 234.36 L 312.80 234.17 L 313.68 233.79 L 313.86 233.79 L 314.10 233.68 L 314.17 233.50 L 314.27 233.45 L 321.23 233.35 L 322.15 230.66 L 322.49 230.42 L 322.68 229.43 L 327.02 229.24 L 327.04 228.96 L 327.31 228.94 L 328.61 227.24 L 328.69 226.94 L 328.85 226.83 L 329.30 226.71 L 329.36 226.67 L 329.55 226.16 L 329.74 226.02 L 329.77 225.64 L 343.27 225.13 L 343.37 223.68 L 343.91 223.36 L 343.92 220.93 L 344.02 220.57 L 344.13 219.98 L 344.28 218.31 L 344.51 217.42 L 344.70 216.39 L 344.87 216.38 L 344.94 215.58 L 345.22 215.51 L 346.15 211.62 L 346.53 211.20 L 346.59 210.95 L 346.67 210.94 L 346.72 210.67 L 346.85 209.71 L 347.23 209.26 L 347.28 209.20 L 347.52 205.76 L 347.60 205.75 L 347.64 205.38 L 347.73 205.10 L 347.78 205.10 L 347.84 204.58 L 348.13 202.72 L 348.26 202.20 L 348.43 202.13 L 348.54 197.16 L 348.59 196.76 L 348.88 193.93 L 348.97 193.71 L 349.02 193.70 L 349.10 193.69 L 349.14 193.30 L 349.18 193.31 L 349.20 193.30 L 349.35 188.29 L 349.40 187.85 L 349.55 187.82 L 349.65 187.74 L 349.96 187.60 L 350.33 187.40 L 350.34 187.40 L 350.44 187.34 L 350.79 187.25 L 350.96 187.25 L 351.12 187.25 L 351.29 185.06 L 351.41 184.54 L 351.89 184.53 L 351.93 184.19 L 351.99 184.18 L 352.03 183.81 L 352.34 180.65 L 352.39 180.57 L 352.62 180.55 L 373.39 180.46 L 374.58 180.30 L 374.61 180.30 L 374.85 180.30 L 374.87 180.30 L 375.02 179.67 L 375.13 179.64 L 375.23 179.34 L 375.38 179.26 L 375.42 179.21 L 375.47 179.19 L 375.70 178.84 L 376.15 178.52 L 376.43 177.51 L 376.75 176.54 L 376.76 176.49 L 376.82 175.58 L 376.86 175.55 L 377.48 175.02 L 377.49 174.95 L 377.58 174.24 L 377.85 174.16 L 378.02 174.09 L 378.06 172.81 L 378.07 172.75 L 378.14 173.96 L 378.19 173.21 L 378.21 173.18 L 378.36 171.47 L 378.38 171.42 L 378.70 171.28 L 379.59 171.26 L 379.80 171.20 L 379.86 171.18 L 379.91 170.96 L 379.96 170.96 L 380.09 170.11 L 394.28 168.48 L 394.31 168.25 L 394.43 168.10 L 394.46 167.78 L 394.54 153.49 L 394.70 147.63 L 394.72 147.60 L 394.98 147.48 L 395.04 147.48 L 395.08 146.81 L 395.31 146.74 L 395.93 145.36 L 395.94 145.33 L 396.10 144.90 L 396.16 144.92 L 396.19 144.22 L 396.70 143.41 L 396.72 143.38 L 397.49 143.07 L 397.59 142.34 L 397.87 142.35 L 398.19 140.50 L 398.27 139.78 L 398.32 139.19 L 398.47 138.48 L 398.87 138.22 L 398.94 138.05 L 399.12 137.89 L 399.31 137.89 L 399.91 137.89 L 399.98 137.89 L 400.11 137.85 L 400.13 137.85 L 400.32 137.87 L 400.77 137.83 L 401.23 137.56 L 401.30 137.56 L 401.41 137.46 L 401.54 137.26 L 401.90 137.26 L 402.50 137.00 L 402.69 136.43 L 403.02 131.50 L 404.32 135.67 L 404.61 135.65 L 404.82 135.63 L 405.14 135.62 L 405.25 135.55 L 405.57 135.31 L 406.09 134.97 L 406.15 134.75 L 406.25 134.65 L 406.31 134.67 L 406.36 134.60 L 406.76 134.30 L 416.18 134.29 L 416.26 134.30 L 416.85 134.28 L 416.91 134.25 L 417.04 133.63 L 417.14 133.27 L 417.16 133.27 L 417.48 133.22 L 417.56 133.19 L 419.49 132.26 L 419.72 132.18 L 419.88 132.16 L 419.92 132.16 L 420.52 131.93 L 420.72 132.05 L 420.76 132.04 L 421.08 131.98 L 421.43 130.03 L 421.47 130.02 L 421.76 129.79 L 421.88 129.79 L 422.00 129.79 L 422.24 129.58 L 422.76 128.79 L 422.86 128.76 L 422.96 128.54 L 423.17 127.61 L 423.69 126.65 L 424.15 122.12 L 424.24 121.56 L 424.72 121.35 L 424.80 121.23 L 424.87 121.01 L 424.92 120.28 L 425.08 118.98 L 425.12 119.03 L 425.20 119.00 L 425.47 119.00 L 425.88 118.52 L 426.13 118.43 L 426.42 118.41 L 426.55 118.39 L 426.84 118.38 L 427.32 118.38 L 427.79 118.36 L 428.15 118.36 L 428.23 118.34 L 428.32 118.33 L 428.33 118.17 L 428.61 118.08 L 428.69 118.06 L 428.80 117.86 L 429.57 117.83 L 429.58 117.44 L 429.79 117.42 L 430.70 117.43 L 431.29 117.19 L 431.73 116.90 L 431.74 116.75 L 431.78 116.74 L 444.96 116.47 L 445.00 116.47 L 445.16 116.45 L 445.23 116.22 L 445.27 116.20 L 445.28 116.19 L 445.84 116.12 L 445.97 115.30 L 446.14 115.12 L 446.42 113.50 L 446.60 113.49 L 446.82 112.80 L 446.95 112.88 L 447.01 112.88 L 447.08 112.09 L 447.24 111.56 L 447.26 110.98 L 447.32 110.91 L 447.46 110.86 L 447.56 110.59 L 447.67 113.68 L 447.83 113.62 L 448.16 112.39 L 448.30 112.09 L 448.43 111.83 L 449.23 110.06 L 449.93 109.20 L 450.76 107.56 L 450.97 107.49 L 451.21 107.49 L 451.47 107.41 L 456.31 106.95 L 456.71 106.91 L 502.63 105.66 L 647.22 105.37 L 647.70 104.87 L 648.03 104.80 L 648.36 104.80 L 648.87 103.84 L 649.04 103.38 L 649.17 102.52 L 649.40 100.03 L 649.73 100.54 L 650.00 100.00"/>
	</g>
	<g id="poloto_plot1" class="poloto_plot poloto_imgs poloto_line poloto1 poloto_stroke" fill="none" stroke="black">
		<path d=" M 150.00 375.13 L 150.04 375.11 L 150.06 375.10 L 150.07 375.10 L 150.10 375.10 L 150.14 374.31 L 150.29 374.28 L 150.65 374.27 L 151.17 373.97 L 151.44 373.84 L 151.97 373.87 L 152.07 373.81 L 152.14 373.81 L 152.76 373.75 L 153.93 373.61 L 154.30 370.53 L 154.39 370.53 L 155.10 370.46 L 155.91 370.45 L 155.92 370.45 L 155.92 370.45 L 166.90 370.45 L 166.97 370.45 L 167.11 370.44 L 167.17 370.40 L 167.59 370.39 L 167.78 370.39 L 168.24 370.39 L 168.31 370.39 L 168.44 370.36 L 168.58 370.36 L 168.62 370.36 L 168.74 370.33 L 168.86 370.33 L 168.98 370.33 L 169.28 370.16 L 169.55 370.16 L 169.60 370.16 L 169.73 370.16 L 170.61 371.31 L 170.62 371.31 L 170.73 371.30 L 171.23 371.12 L 171.63 370.93 L 172.08 370.84 L 172.18 370.78 L 172.19 370.78 L 172.27 370.78 L 172.44 370.78 L 172.66 370.71 L 173.09 370.64 L 173.12 370.64 L 173.20 370.64 L 173.30 370.61 L 173.55 370.61 L 173.57 370.61 L 173.83 370.60 L 173.93 370.60 L 174.03 370.60 L 174.13 370.60 L 175.46 370.46 L 175.78 370.45 L 176.53 370.39 L 176.69 370.39 L 176.80 370.39 L 176.87 370.39 L 177.38 370.30 L 177.61 370.30 L 177.87 370.19 L 178.00 370.18 L 178.31 369.93 L 178.44 369.84 L 178.63 369.84 L 178.80 369.83 L 179.39 366.24 L 179.41 366.18 L 179.43 366.18 L 179.64 365.83 L 189.81 365.83 L 190.87 364.28 L 190.90 364.28 L 192.15 364.28 L 192.25 364.28 L 192.37 364.12 L 192.67 364.09 L 192.81 364.09 L 192.86 364.09 L 193.02 364.09 L 193.39 364.09 L 193.40 363.75 L 193.53 363.74 L 193.67 363.74 L 193.83 363.71 L 194.03 363.70 L 194.11 363.70 L 194.14 363.70 L 194.31 363.70 L 194.34 363.70 L 194.53 363.70 L 194.56 363.70 L 194.85 362.17 L 194.90 362.17 L 195.00 361.99 L 195.13 361.99 L 195.30 361.99 L 195.37 361.97 L 195.94 361.97 L 195.95 361.97 L 196.06 361.87 L 196.32 361.87 L 196.54 361.00 L 196.61 360.89 L 196.72 360.89 L 196.78 360.89 L 196.91 360.87 L 197.54 354.45 L 197.61 354.50 L 197.83 354.50 L 197.90 354.50 L 197.95 354.49 L 198.05 354.49 L 198.15 354.40 L 198.38 354.40 L 198.54 354.40 L 198.66 354.39 L 198.74 354.39 L 199.31 354.38 L 199.62 354.38 L 199.72 354.22 L 199.99 354.22 L 200.01 354.22 L 200.04 354.22 L 200.20 353.79 L 200.34 353.67 L 200.81 352.15 L 200.89 352.15 L 200.98 352.15 L 201.10 352.17 L 201.12 352.17 L 201.17 352.17 L 201.22 352.17 L 201.28 352.17 L 201.34 352.17 L 201.53 352.14 L 201.67 352.14 L 201.80 352.12 L 201.99 352.12 L 202.19 352.11 L 202.40 351.54 L 202.54 351.35 L 202.84 351.35 L 202.84 351.34 L 203.02 351.34 L 217.23 351.34 L 217.50 351.33 L 218.17 351.24 L 218.31 351.22 L 218.42 351.22 L 218.44 351.22 L 218.68 351.22 L 218.85 351.22 L 218.95 351.22 L 219.05 351.22 L 219.11 351.22 L 219.36 351.22 L 219.87 351.24 L 220.00 351.24 L 220.10 351.24 L 220.22 351.24 L 220.88 351.12 L 220.97 351.06 L 221.02 351.06 L 221.06 350.98 L 221.20 350.98 L 221.31 350.98 L 221.79 350.39 L 222.48 350.39 L 222.73 350.39 L 223.49 350.39 L 223.85 346.46 L 223.97 346.46 L 224.13 346.46 L 224.35 346.45 L 224.70 346.45 L 225.18 346.45 L 225.83 346.45 L 225.92 346.45 L 226.39 346.36 L 226.69 346.19 L 226.79 346.19 L 226.98 346.19 L 227.12 346.17 L 228.80 345.92 L 230.40 345.92 L 244.70 345.92 L 244.80 345.92 L 244.88 345.92 L 245.32 345.92 L 246.66 344.68 L 246.72 344.64 L 246.90 344.51 L 247.56 344.51 L 247.87 344.21 L 248.34 344.21 L 248.45 344.21 L 248.56 344.21 L 249.39 340.76 L 249.49 340.76 L 249.66 340.76 L 249.85 340.76 L 249.93 340.54 L 250.39 340.12 L 250.56 340.12 L 250.64 340.12 L 250.74 339.49 L 250.95 338.85 L 251.03 338.85 L 251.24 338.84 L 251.86 333.70 L 251.92 333.70 L 251.98 333.70 L 252.07 333.70 L 252.23 333.70 L 252.29 333.70 L 252.35 333.70 L 252.65 333.70 L 252.72 333.59 L 253.08 333.57 L 253.29 333.50 L 253.43 332.88 L 254.54 322.65 L 254.67 322.65 L 296.70 322.65 L 296.74 322.65 L 312.80 322.65 L 313.68 322.49 L 313.86 322.49 L 314.10 322.49 L 314.17 322.49 L 314.27 322.49 L 321.23 322.41 L 322.15 322.32 L 322.49 322.32 L 322.68 322.28 L 327.02 322.20 L 327.04 322.06 L 327.31 322.06 L 328.61 320.67 L 328.69 320.67 L 328.85 320.67 L 329.30 320.67 L 329.36 320.67 L 329.55 320.67 L 329.74 320.67 L 329.77 320.67 L 343.27 320.65 L 343.37 320.41 L 343.91 320.41 L 343.92 318.74 L 344.02 318.74 L 344.13 318.74 L 344.28 318.58 L 344.51 318.58 L 344.70 318.51 L 344.87 318.51 L 344.94 318.51 L 345.22 318.49 L 346.15 315.65 L 346.53 315.64 L 346.59 315.63 L 346.67 315.63 L 346.72 315.63 L 346.85 315.58 L 347.23 315.23 L 347.28 315.18 L 347.52 312.63 L 347.60 312.62 L 347.64 312.62 L 347.73 312.59 L 347.78 312.59 L 347.84 312.58 L 348.13 311.19 L 348.26 311.18 L 348.43 311.14 L 348.54 306.83 L 348.59 306.83 L 348.88 304.40 L 348.97 304.40 L 349.02 304.39 L 349.10 304.39 L 349.14 304.39 L 349.18 304.39 L 349.20 304.39 L 349.35 299.90 L 349.40 299.90 L 349.55 299.88 L 349.65 299.88 L 349.96 299.79 L 350.33 299.67 L 350.34 299.67 L 350.44 299.64 L 350.79 299.57 L 350.96 299.57 L 351.12 299.57 L 351.29 297.63 L 351.41 297.63 L 351.89 297.62 L 351.93 297.61 L 351.99 297.61 L 352.03 297.61 L 352.34 294.85 L 352.39 294.85 L 352.62 294.83 L 373.39 294.83 L 374.58 294.81 L 374.61 294.81 L 374.85 294.81 L 374.87 294.81 L 375.02 294.81 L 375.13 294.81 L 375.23 294.67 L 375.38 294.67 L 375.42 294.67 L 375.47 294.67 L 375.70 294.42 L 376.15 294.26 L 376.43 294.10 L 376.75 293.32 L 376.76 293.32 L 376.82 293.12 L 376.86 293.10 L 377.48 292.62 L 377.49 292.62 L 377.58 292.55 L 377.85 292.55 L 378.02 292.50 L 378.06 291.36 L 378.07 291.36 L 378.14 292.49 L 378.19 292.43 L 378.21 292.41 L 378.36 290.87 L 378.38 290.87 L 378.70 290.81 L 379.59 290.81 L 379.80 290.81 L 379.86 290.81 L 379.91 290.81 L 379.96 290.81 L 380.09 290.71 L 394.28 289.43 L 394.31 289.43 L 394.43 289.42 L 394.46 289.14 L 394.54 275.49 L 394.70 270.41 L 394.72 270.41 L 394.98 270.32 L 395.04 270.32 L 395.08 270.30 L 395.31 270.30 L 395.93 269.06 L 395.94 269.06 L 396.10 268.99 L 396.16 268.99 L 396.19 268.88 L 396.70 268.14 L 396.72 268.14 L 397.49 267.99 L 397.59 267.94 L 397.87 267.95 L 398.19 266.28 L 398.27 266.11 L 398.32 265.95 L 398.47 265.32 L 398.87 265.17 L 398.94 265.03 L 399.12 265.03 L 399.31 265.03 L 399.91 265.03 L 399.98 265.03 L 400.11 265.03 L 400.13 265.03 L 400.32 265.05 L 400.77 265.05 L 401.23 264.88 L 401.30 264.88 L 401.41 264.85 L 401.54 264.85 L 401.90 264.85 L 402.50 264.85 L 402.69 264.70 L 403.02 260.30 L 404.32 264.46 L 404.61 264.44 L 404.82 264.42 L 405.14 264.42 L 405.25 264.38 L 405.57 264.35 L 406.09 264.10 L 406.15 264.10 L 406.25 264.10 L 406.31 264.10 L 406.36 264.10 L 406.76 263.86 L 416.18 263.86 L 416.26 263.86 L 416.85 263.84 L 416.91 263.84 L 417.04 263.80 L 417.14 263.50 L 417.16 263.49 L 417.48 263.46 L 417.56 263.46 L 419.49 263.20 L 419.72 263.20 L 419.88 263.20 L 419.92 263.20 L 420.52 263.02 L 420.72 263.02 L 420.76 263.02 L 421.08 263.02 L 421.43 261.97 L 421.47 261.97 L 421.76 261.80 L 421.88 261.80 L 422.00 261.80 L 422.24 261.80 L 422.76 261.78 L 422.86 261.76 L 422.96 261.66 L 423.17 261.48 L 423.69 261.32 L 424.15 257.16 L 424.24 257.02 L 424.72 256.83 L 424.80 256.77 L 424.87 256.63 L 424.92 256.34 L 425.08 255.09 L 425.12 255.15 L 425.20 255.12 L 425.47 255.11 L 425.88 254.94 L 426.13 254.88 L 426.42 254.86 L 426.55 254.84 L 426.84 254.83 L 427.32 254.83 L 427.79 254.82 L 428.15 254.81 L 428.23 254.81 L 428.32 254.80 L 428.33 254.80 L 428.61 254.80 L 428.69 254.78 L 428.80 254.62 L 429.57 254.61 L 429.58 254.61 L 429.79 254.59 L 430.70 254.59 L 431.29 254.38 L 431.73 254.20 L 431.74 254.20 L 431.78 254.20 L 444.96 254.20 L 445.00 254.20 L 445.16 254.20 L 445.23 254.20 L 445.27 254.18 L 445.28 254.18 L 445.84 254.18 L 445.97 254.16 L 446.14 254.13 L 446.42 254.10 L 446.60 254.10 L 446.82 254.01 L 446.95 254.01 L 447.01 254.01 L 447.08 254.01 L 447.24 253.63 L 447.26 253.63 L 447.32 253.63 L 447.46 253.63 L 447.56 253.63 L 447.67 253.72 L 447.83 253.72 L 448.16 253.70 L 448.30 253.70 L 448.43 253.70 L 449.23 252.48 L 449.93 252.15 L 450.76 251.28 L 450.97 251.28 L 451.21 251.28 L 451.47 251.28 L 456.31 251.17 L 456.71 251.17 L 502.63 251.01 L 647.22 250.78 L 647.70 250.71 L 648.03 250.71 L 648.36 250.71 L 648.87 250.14 L 649.04 250.14 L 649.17 250.14 L 649.40 248.09 L 649.73 248.48 L 650.00 248.45"/>
	</g>
	<g id="poloto_plot2" class="poloto_plot poloto_imgs poloto_line poloto2 poloto_stroke" fill="none" stroke="black">
		<path d=" M 150.00 388.84 L 150.04 388.84 L 150.06 388.84 L 150.07 388.84 L 150.10 388.84 L 150.14 385.98 L 150.29 385.59 L 150.65 385.58 L 151.17 385.56 L 151.44 383.85 L 151.97 383.70 L 152.07 383.65 L 152.14 383.61 L 152.76 382.84 L 153.93 382.25 L 154.30 382.13 L 154.39 382.14 L 155.10 382.09 L 155.91 382.09 L 155.92 382.09 L 155.92 382.09 L 166.90 382.09 L 166.97 382.09 L 167.11 382.06 L 167.17 382.06 L 167.59 381.89 L 167.78 381.84 L 168.24 381.56 L 168.31 381.44 L 168.44 381.19 L 168.58 381.15 L 168.62 381.15 L 168.74 381.10 L 168.86 381.10 L 168.98 381.11 L 169.28 380.82 L 169.55 380.56 L 169.60 380.56 L 169.73 380.41 L 170.61 380.06 L 170.62 380.06 L 170.73 379.95 L 171.23 379.57 L 171.63 379.10 L 172.08 378.92 L 172.18 378.92 L 172.19 378.92 L 172.27 378.66 L 172.44 378.66 L 172.66 378.63 L 173.09 378.43 L 173.12 378.10 L 173.20 378.10 L 173.30 377.94 L 173.55 377.94 L 173.57 377.94 L 173.83 377.44 L 173.93 377.41 L 174.03 377.36 L 174.13 377.13 L 175.46 376.99 L 175.78 376.94 L 176.53 376.60 L 176.69 376.60 L 176.80 376.58 L 176.87 376.32 L 177.38 374.92 L 177.61 374.90 L 177.87 374.48 L 178.00 374.44 L 178.31 374.25 L 178.44 374.19 L 178.63 373.89 L 178.80 373.64 L 179.39 373.64 L 179.41 373.61 L 179.43 373.41 L 179.64 372.06 L 189.81 371.92 L 190.87 371.51 L 190.90 371.46 L 192.15 371.12 L 192.25 371.12 L 192.37 370.87 L 192.67 370.70 L 192.81 370.39 L 192.86 370.14 L 193.02 369.64 L 193.39 369.63 L 193.40 369.63 L 193.53 369.27 L 193.67 369.27 L 193.83 368.90 L 194.03 368.61 L 194.11 368.46 L 194.14 368.45 L 194.31 368.11 L 194.34 368.10 L 194.53 367.80 L 194.56 367.79 L 194.85 367.68 L 194.90 367.68 L 195.00 367.56 L 195.13 367.54 L 195.30 367.54 L 195.37 367.52 L 195.94 367.21 L 195.95 367.23 L 196.06 366.62 L 196.32 366.60 L 196.54 366.41 L 196.61 366.41 L 196.72 366.40 L 196.78 366.35 L 196.91 365.52 L 197.54 364.82 L 197.61 364.43 L 197.83 364.40 L 197.90 364.31 L 197.95 364.29 L 198.05 364.11 L 198.15 363.45 L 198.38 363.35 L 198.54 363.33 L 198.66 363.00 L 198.74 362.99 L 199.31 362.74 L 199.62 362.57 L 199.72 362.42 L 199.99 362.41 L 200.01 362.41 L 200.04 362.37 L 200.20 361.18 L 200.34 361.17 L 200.81 361.00 L 200.89 360.52 L 200.98 360.51 L 201.10 360.32 L 201.12 360.20 L 201.17 360.12 L 201.22 360.08 L 201.28 360.07 L 201.34 359.98 L 201.53 358.64 L 201.67 358.50 L 201.80 358.10 L 201.99 358.07 L 202.19 357.94 L 202.40 357.52 L 202.54 356.36 L 202.84 356.27 L 202.84 355.77 L 203.02 355.65 L 217.23 355.65 L 217.50 355.65 L 218.17 355.10 L 218.31 355.10 L 218.42 355.10 L 218.44 354.96 L 218.68 354.72 L 218.85 354.68 L 218.95 354.54 L 219.05 354.43 L 219.11 354.38 L 219.36 354.31 L 219.87 354.42 L 220.00 354.05 L 220.10 353.95 L 220.22 353.94 L 220.88 353.87 L 220.97 353.81 L 221.02 353.81 L 221.06 353.74 L 221.20 353.67 L 221.31 353.54 L 221.79 353.19 L 222.48 353.04 L 222.73 352.98 L 223.49 352.76 L 223.85 352.22 L 223.97 352.13 L 224.13 351.70 L 224.35 351.15 L 224.70 351.01 L 225.18 350.99 L 225.83 350.97 L 225.92 350.77 L 226.39 350.64 L 226.69 350.46 L 226.79 350.32 L 226.98 350.27 L 227.12 349.91 L 228.80 349.73 L 230.40 349.73 L 244.70 349.69 L 244.80 349.49 L 244.88 349.35 L 245.32 349.15 L 246.66 348.79 L 246.72 348.74 L 246.90 348.48 L 247.56 348.38 L 247.87 347.67 L 248.34 347.66 L 248.45 347.63 L 248.56 346.94 L 249.39 346.29 L 249.49 346.28 L 249.66 346.24 L 249.85 346.18 L 249.93 345.95 L 250.39 344.86 L 250.56 344.59 L 250.64 344.57 L 250.74 344.45 L 250.95 344.03 L 251.03 342.95 L 251.24 342.50 L 251.86 342.25 L 251.92 341.70 L 251.98 341.70 L 252.07 341.61 L 252.23 341.46 L 252.29 341.42 L 252.35 341.37 L 252.65 340.11 L 252.72 339.36 L 253.08 339.22 L 253.29 337.96 L 253.43 337.72 L 254.54 335.74 L 254.67 335.71 L 296.70 335.13 L 296.74 335.13 L 312.80 334.97 L 313.68 334.76 L 313.86 334.76 L 314.10 334.65 L 314.17 334.49 L 314.27 334.46 L 321.23 334.44 L 322.15 332.17 L 322.49 331.97 L 322.68 331.18 L 327.02 331.09 L 327.04 331.01 L 327.31 331.00 L 328.61 330.86 L 328.69 330.60 L 328.85 330.50 L 329.30 330.39 L 329.36 330.35 L 329.55 329.91 L 329.74 329.78 L 329.77 329.44 L 343.27 329.02 L 343.37 327.98 L 343.91 327.71 L 343.92 327.32 L 344.02 327.01 L 344.13 326.53 L 344.28 325.28 L 344.51 324.59 L 344.70 323.71 L 344.87 323.71 L 344.94 323.02 L 345.22 322.98 L 346.15 322.33 L 346.53 322.03 L 346.59 321.84 L 346.67 321.84 L 346.72 321.61 L 346.85 320.84 L 347.23 320.76 L 347.28 320.75 L 347.52 320.25 L 347.60 320.25 L 347.64 319.96 L 347.73 319.78 L 347.78 319.77 L 347.84 319.37 L 348.13 319.13 L 348.26 318.73 L 348.43 318.71 L 348.54 318.50 L 348.59 318.19 L 348.88 318.02 L 348.97 317.84 L 349.02 317.84 L 349.10 317.84 L 349.14 317.53 L 349.18 317.54 L 349.20 317.53 L 349.35 317.42 L 349.40 317.08 L 349.55 317.07 L 349.65 316.99 L 349.96 316.96 L 350.33 316.93 L 350.34 316.93 L 350.44 316.90 L 350.79 316.90 L 350.96 316.90 L 351.12 316.90 L 351.29 316.84 L 351.41 316.43 L 351.89 316.43 L 351.93 316.18 L 351.99 316.18 L 352.03 315.90 L 352.34 315.80 L 352.39 315.74 L 352.62 315.74 L 373.39 315.66 L 374.58 315.54 L 374.61 315.54 L 374.85 315.54 L 374.87 315.54 L 375.02 315.05 L 375.13 315.04 L 375.23 314.90 L 375.38 314.83 L 375.42 314.78 L 375.47 314.76 L 375.70 314.71 L 376.15 314.62 L 376.43 313.96 L 376.75 313.92 L 376.76 313.88 L 376.82 313.33 L 376.86 313.33 L 377.48 313.33 L 377.49 313.27 L 377.58 312.76 L 377.85 312.70 L 378.02 312.68 L 378.06 312.67 L 378.07 312.61 L 378.14 312.57 L 378.19 312.05 L 378.21 312.04 L 378.36 312.04 L 378.38 312.00 L 378.70 311.95 L 379.59 311.93 L 379.80 311.88 L 379.86 311.87 L 379.91 311.70 L 379.96 311.70 L 380.09 311.12 L 394.28 310.93 L 394.31 310.77 L 394.43 310.65 L 394.46 310.63 L 394.54 310.13 L 394.70 310.01 L 394.72 309.98 L 394.98 309.98 L 395.04 309.98 L 395.08 309.48 L 395.31 309.42 L 395.93 309.40 L 395.94 309.37 L 396.10 309.10 L 396.16 309.11 L 396.19 308.65 L 396.70 308.65 L 396.72 308.62 L 397.49 308.51 L 397.59 307.96 L 397.87 307.96 L 398.19 307.96 L 398.27 307.55 L 398.32 307.24 L 398.47 307.23 L 398.87 307.16 L 398.94 307.14 L 399.12 307.01 L 399.31 307.01 L 399.91 307.01 L 399.98 307.01 L 400.11 306.98 L 400.13 306.98 L 400.32 306.98 L 400.77 306.94 L 401.23 306.89 L 401.30 306.89 L 401.41 306.83 L 401.54 306.68 L 401.90 306.68 L 402.50 306.50 L 402.69 306.20 L 403.02 306.16 L 404.32 305.83 L 404.61 305.83 L 404.82 305.82 L 405.14 305.81 L 405.25 305.79 L 405.57 305.62 L 406.09 305.60 L 406.15 305.44 L 406.25 305.37 L 406.31 305.39 L 406.36 305.33 L 406.76 305.31 L 416.18 305.30 L 416.26 305.30 L 416.85 305.30 L 416.91 305.28 L 417.04 304.83 L 417.14 304.80 L 417.16 304.81 L 417.48 304.80 L 417.56 304.77 L 419.49 304.10 L 419.72 304.02 L 419.88 304.01 L 419.92 304.00 L 420.52 303.99 L 420.72 304.09 L 420.76 304.08 L 421.08 304.03 L 421.43 303.39 L 421.47 303.38 L 421.76 303.36 L 421.88 303.36 L 422.00 303.36 L 422.24 303.23 L 422.76 302.65 L 422.86 302.65 L 422.96 302.56 L 423.17 302.03 L 423.69 301.45 L 424.15 301.49 L 424.24 301.17 L 424.72 301.17 L 424.80 301.14 L 424.87 301.10 L 424.92 300.80 L 425.08 300.79 L 425.12 300.79 L 425.20 300.79 L 425.47 300.79 L 425.88 300.54 L 426.13 300.51 L 426.42 300.51 L 426.55 300.51 L 426.84 300.51 L 427.32 300.51 L 427.79 300.51 L 428.15 300.51 L 428.23 300.51 L 428.32 300.50 L 428.33 300.39 L 428.61 300.31 L 428.69 300.31 L 428.80 300.30 L 429.57 300.29 L 429.58 299.99 L 429.79 299.99 L 430.70 300.00 L 431.29 299.99 L 431.73 299.92 L 431.74 299.80 L 431.78 299.80 L 444.96 299.60 L 445.00 299.59 L 445.16 299.58 L 445.23 299.39 L 445.27 299.39 L 445.28 299.38 L 445.84 299.32 L 445.97 298.71 L 446.14 298.57 L 446.42 297.36 L 446.60 297.35 L 446.82 296.83 L 446.95 296.90 L 447.01 296.89 L 447.08 296.23 L 447.24 296.12 L 447.26 295.66 L 447.32 295.59 L 447.46 295.55 L 447.56 295.32 L 447.67 298.03 L 447.83 297.99 L 448.16 296.90 L 448.30 296.66 L 448.43 296.42 L 449.23 295.99 L 449.93 295.53 L 450.76 294.89 L 450.97 294.82 L 451.21 294.82 L 451.47 294.76 L 456.31 294.44 L 456.71 294.41 L 502.63 293.56 L 647.22 293.53 L 647.70 293.15 L 648.03 293.09 L 648.36 293.09 L 648.87 292.75 L 649.04 292.34 L 649.17 291.60 L 649.40 291.40 L 649.73 291.47 L 650.00 291.03"/>
	</g>
	<g class="poloto_legend poloto_imgs poloto_line poloto0 poloto_stroke"><line x1="680" x2="730" y1="81.25" y2="81.25"/></g>
	<g class="poloto_legend poloto_imgs poloto_line poloto1 poloto_stroke"><line x1="680" x2="730" y1="131.25" y2="131.25"/></g>
	<g class="poloto_legend poloto_imgs poloto_line poloto2 poloto_stroke"><line x1="680" x2="730" y1="181.25" y2="181.25"/></g>
	<text class="poloto_legend poloto_text poloto_line poloto0" x="675" y="100">total</text>
	<text class="poloto_legend poloto_text poloto_line poloto1" x="675" y="150">code</text>
	<text class="poloto_legend poloto_text poloto_line poloto2" x="675" y="200">docs</text>
	<text class="poloto_text poloto_name poloto_title" x="400.00" y="37.50">Workspace lines over time</text>
	<text class="poloto_text poloto_name poloto_x" x="400.00" y="640">date (JST)</text>
	<text class="poloto_text poloto_name poloto_y" x="37.50" y="250.00" transform="rotate(-90,37.50,250.00)">lines</text>
	<text class="poloto_text poloto_ticks poloto_y">
		<tspan x="135.00" y="400.00">0</tspan>
		<tspan x="135.00" y="293.93">50K</tspan>
		<tspan x="135.00" y="187.86">100K</tspan>
	</text>
	<g class="poloto_imgs poloto_ticks poloto_y" stroke="black">
		<line x1="150.00" x2="144.00" y1="400.00" y2="400.00"/>
		<line x1="150.00" x2="144.00" y1="293.93" y2="293.93"/>
		<line x1="150.00" x2="144.00" y1="187.86" y2="187.86"/>
	</g>
	<g class="poloto_text poloto_ticks poloto_x">
		<text x="186.32" y="430.00" text-anchor="end" transform="rotate(-90 186.32 430.00)">2026-04-22 04:33</text>
		<text x="244.52" y="430.00" text-anchor="end" transform="rotate(-90 244.52 430.00)">2026-04-24 12:06</text>
		<text x="302.72" y="430.00" text-anchor="end" transform="rotate(-90 302.72 430.00)">2026-04-26 19:40</text>
		<text x="360.91" y="430.00" text-anchor="end" transform="rotate(-90 360.91 430.00)">2026-04-29 03:13</text>
		<text x="419.11" y="430.00" text-anchor="end" transform="rotate(-90 419.11 430.00)">2026-05-01 10:46</text>
		<text x="477.31" y="430.00" text-anchor="end" transform="rotate(-90 477.31 430.00)">2026-05-03 18:20</text>
		<text x="535.50" y="430.00" text-anchor="end" transform="rotate(-90 535.50 430.00)">2026-05-06 01:53</text>
		<text x="593.70" y="430.00" text-anchor="end" transform="rotate(-90 593.70 430.00)">2026-05-08 09:26</text>
	</g>
	<g class="poloto_imgs poloto_ticks poloto_x" stroke="black">
		<line x1="186.32" x2="186.32" y1="400.00" y2="405.00"/>
		<line x1="244.52" x2="244.52" y1="400.00" y2="405.00"/>
		<line x1="302.72" x2="302.72" y1="400.00" y2="405.00"/>
		<line x1="360.91" x2="360.91" y1="400.00" y2="405.00"/>
		<line x1="419.11" x2="419.11" y1="400.00" y2="405.00"/>
		<line x1="477.31" x2="477.31" y1="400.00" y2="405.00"/>
		<line x1="535.50" x2="535.50" y1="400.00" y2="405.00"/>
		<line x1="593.70" x2="593.70" y1="400.00" y2="405.00"/>
	</g>
	<path class="poloto_imgs poloto_ticks poloto_x" stroke="black" style="stroke-dasharray:7.274648838151284;stroke-dashoffset:-36.32173967693234;" d=" M 150.00 400.00 L 650.00 400.00"/>
	<path class="poloto_imgs poloto_ticks poloto_y" stroke="black" style="stroke-dasharray:10.60677843854079;stroke-dashoffset:-0;" d=" M 150.00 400.00 L 150.00 100.00"/>
</svg>

