<svg class="poloto" width="800" height="680" viewBox="0 0 800 680" xmlns="http://www.w3.org/2000/svg">
	<style>
.poloto{
  stroke-linecap:round;
  stroke-linejoin:round;
  font-family:Roboto,sans-serif;
  font-size:16px;
}
.poloto_background{fill:AliceBlue;}
.poloto_scatter{stroke-width:7}
.poloto_line{stroke-width:2}
.poloto_text{fill: black;}
.poloto_name{font-size:24px;dominant-baseline:auto;text-anchor:middle;}
.poloto_where{dominant-baseline:middle;text-anchor:start}
.poloto_text.poloto_legend{font-size:20px;dominant-baseline:middle;text-anchor:start;}
.poloto_text.poloto_ticks.poloto_y{dominant-baseline:middle;text-anchor:end}
.poloto_text.poloto_ticks.poloto_x{dominant-baseline:auto;text-anchor:middle}
.poloto_imgs.poloto_ticks{stroke: black;stroke-width:3;fill:none;stroke-dasharray:none}
.poloto_grid{stroke:gray;stroke-width:0.5}

.poloto0.poloto_stroke{stroke:blue;}
.poloto1.poloto_stroke{stroke:red;}
.poloto2.poloto_stroke{stroke:green;}
.poloto3.poloto_stroke{stroke:gold;}
.poloto4.poloto_stroke{stroke:aqua;}
.poloto5.poloto_stroke{stroke:lime;}
.poloto6.poloto_stroke{stroke:orange;}
.poloto7.poloto_stroke{stroke:chocolate;}
.poloto0.poloto_fill{fill:blue;}
.poloto1.poloto_fill{fill:red;}
.poloto2.poloto_fill{fill:green;}
.poloto3.poloto_fill{fill:gold;}
.poloto4.poloto_fill{fill:aqua;}
.poloto5.poloto_fill{fill:lime;}
.poloto6.poloto_fill{fill:orange;}
.poloto7.poloto_fill{fill:chocolate;}
	</style>
	<circle r="1e5" class="poloto_background" fill="white"/>
	<g id="poloto_plot0" class="poloto_plot poloto_imgs poloto_line poloto0 poloto_stroke" fill="none" stroke="black">
		<path d=" M 150.00 367.86 L 150.03 367.84 L 150.05 367.82 L 150.06 367.82 L 150.08 367.82 L 150.12 364.33 L 150.25 363.91 L 150.54 363.89 L 150.98 363.60 L 151.20 361.83 L 151.65 361.72 L 151.73 361.63 L 151.79 361.59 L 152.31 360.73 L 153.28 360.02 L 153.59 357.28 L 153.67 357.29 L 154.26 357.18 L 154.94 357.17 L 154.94 357.17 L 154.95 357.17 L 164.12 357.17 L 164.18 357.16 L 164.30 357.14 L 164.35 357.11 L 164.70 356.95 L 164.86 356.91 L 165.25 356.65 L 165.30 356.54 L 165.41 356.30 L 165.53 356.26 L 165.56 356.25 L 165.66 356.19 L 165.76 356.19 L 165.86 356.19 L 166.12 355.79 L 166.34 355.54 L 166.38 355.54 L 166.49 355.39 L 167.22 356.02 L 167.24 356.01 L 167.33 355.91 L 167.74 355.44 L 168.08 354.88 L 168.45 354.64 L 168.53 354.59 L 168.54 354.59 L 168.61 354.38 L 168.76 354.38 L 168.94 354.30 L 169.30 354.09 L 169.32 353.76 L 169.39 353.76 L 169.47 353.59 L 169.68 353.59 L 169.70 353.59 L 169.92 353.12 L 170.00 353.10 L 170.08 353.06 L 170.16 352.87 L 171.28 352.62 L 171.55 352.57 L 172.17 352.24 L 172.30 352.24 L 172.40 352.22 L 172.46 351.99 L 172.88 350.60 L 173.07 350.57 L 173.29 350.11 L 173.40 350.07 L 173.66 349.68 L 173.77 349.55 L 173.93 349.30 L 174.07 349.08 L 174.56 345.89 L 174.58 345.81 L 174.60 345.62 L 174.77 344.09 L 183.27 343.98 L 184.15 342.23 L 184.18 342.19 L 185.23 341.91 L 185.31 341.90 L 185.41 341.56 L 185.66 341.39 L 185.78 341.09 L 185.82 340.83 L 185.95 340.37 L 186.26 340.36 L 186.27 340.05 L 186.38 339.71 L 186.50 339.70 L 186.63 339.32 L 186.80 339.04 L 186.86 338.91 L 186.89 338.90 L 187.03 338.60 L 187.05 338.59 L 187.22 338.29 L 187.24 338.29 L 187.49 336.85 L 187.53 336.85 L 187.61 336.61 L 187.72 336.59 L 187.86 336.59 L 187.92 336.56 L 188.39 336.29 L 188.41 336.30 L 188.50 335.66 L 188.71 335.65 L 188.90 334.68 L 188.96 334.60 L 189.05 334.59 L 189.09 334.55 L 189.20 333.81 L 189.73 327.55 L 189.79 327.25 L 189.98 327.22 L 190.03 327.15 L 190.07 327.13 L 190.16 326.96 L 190.24 326.25 L 190.43 326.10 L 190.56 326.09 L 190.67 325.78 L 190.73 325.77 L 191.21 325.54 L 191.47 325.36 L 191.55 325.08 L 191.77 325.07 L 191.80 325.07 L 191.82 325.04 L 191.96 323.53 L 192.07 323.45 L 192.46 321.93 L 192.53 321.49 L 192.60 321.47 L 192.71 321.31 L 192.72 321.20 L 192.77 321.12 L 192.80 321.08 L 192.86 321.08 L 192.91 321.00 L 193.07 319.76 L 193.18 319.58 L 193.29 319.21 L 193.45 319.19 L 193.62 319.07 L 193.79 318.19 L 193.91 316.98 L 194.16 316.91 L 194.16 316.45 L 194.31 316.30 L 206.18 316.31 L 206.41 316.29 L 206.97 315.65 L 207.09 315.63 L 207.18 315.63 L 207.20 315.47 L 207.40 315.27 L 207.54 315.24 L 207.62 315.12 L 207.71 315.03 L 207.75 314.99 L 207.97 314.93 L 208.40 314.85 L 208.50 314.52 L 208.58 314.44 L 208.69 314.43 L 209.24 314.26 L 209.31 314.16 L 209.35 314.16 L 209.39 314.04 L 209.51 313.98 L 209.60 313.86 L 210.00 313.05 L 210.57 312.92 L 210.78 312.87 L 211.42 312.66 L 211.72 308.72 L 211.82 308.64 L 211.95 308.26 L 212.14 307.74 L 212.43 307.59 L 212.83 307.58 L 213.37 307.57 L 213.45 307.39 L 213.84 307.21 L 214.10 306.93 L 214.18 306.81 L 214.33 306.77 L 214.45 306.42 L 215.85 306.03 L 217.19 306.03 L 229.14 305.99 L 229.23 305.82 L 229.29 305.71 L 229.67 305.54 L 230.78 304.19 L 230.83 304.10 L 230.99 303.75 L 231.53 303.66 L 231.79 302.74 L 232.19 302.73 L 232.28 302.72 L 232.37 302.09 L 233.06 298.51 L 233.15 298.51 L 233.29 298.48 L 233.45 298.43 L 233.52 298.04 L 233.90 296.69 L 234.04 296.44 L 234.11 296.42 L 234.19 295.80 L 234.37 294.92 L 234.43 293.99 L 234.61 293.58 L 235.13 288.92 L 235.18 288.45 L 235.23 288.45 L 235.31 288.37 L 235.44 288.25 L 235.49 288.21 L 235.54 288.16 L 235.79 287.04 L 235.84 286.26 L 236.15 286.10 L 236.33 284.93 L 236.44 284.19 L 237.37 273.34 L 237.47 273.31 L 272.60 272.79 L 272.64 272.79 L 286.06 272.64 L 286.79 272.35 L 286.94 272.35 L 287.14 272.27 L 287.21 272.13 L 287.29 272.09 L 293.11 272.01 L 293.88 269.95 L 294.16 269.76 L 294.31 269.01 L 297.94 268.85 L 297.96 268.64 L 298.19 268.63 L 299.27 267.32 L 299.34 267.09 L 299.47 267.01 L 299.85 266.92 L 299.90 266.88 L 300.05 266.49 L 300.22 266.38 L 300.24 266.09 L 311.53 265.70 L 311.61 264.59 L 312.06 264.34 L 312.07 262.48 L 312.15 262.20 L 312.24 261.75 L 312.36 260.46 L 312.56 259.78 L 312.72 258.99 L 312.86 258.98 L 312.92 258.37 L 313.15 258.32 L 313.93 255.32 L 314.24 255.00 L 314.30 254.81 L 314.36 254.81 L 314.40 254.60 L 314.51 253.86 L 314.83 253.51 L 314.88 253.46 L 315.07 250.83 L 315.15 250.82 L 315.18 250.54 L 315.25 250.32 L 315.30 250.32 L 315.34 249.92 L 315.59 248.49 L 315.69 248.09 L 315.83 248.04 L 315.93 244.22 L 315.97 243.91 L 316.21 241.74 L 316.28 241.57 L 316.33 241.56 L 316.39 241.56 L 316.43 241.25 L 316.47 241.26 L 316.48 241.26 L 316.61 237.41 L 316.65 237.07 L 316.77 237.05 L 316.86 236.98 L 317.11 236.87 L 317.42 236.73 L 317.43 236.73 L 317.52 236.68 L 317.81 236.61 L 317.95 236.61 L 318.08 236.61 L 318.23 234.93 L 318.33 234.53 L 318.73 234.52 L 318.76 234.26 L 318.81 234.25 L 318.84 233.97 L 319.10 231.54 L 319.15 231.48 L 319.34 231.47 L 336.70 231.40 L 337.69 231.27 L 337.72 231.27 L 337.91 231.27 L 337.93 231.27 L 338.06 230.79 L 338.15 230.77 L 338.24 230.53 L 338.36 230.47 L 338.39 230.44 L 338.44 230.42 L 338.62 230.15 L 339.00 229.91 L 339.24 229.13 L 339.50 228.38 L 339.51 228.34 L 339.56 227.65 L 339.59 227.63 L 340.11 227.21 L 340.12 227.17 L 340.20 226.62 L 340.42 226.56 L 340.56 226.50 L 340.59 225.52 L 340.60 225.47 L 340.67 226.40 L 340.71 225.83 L 340.73 225.81 L 340.85 224.49 L 340.86 224.46 L 341.14 224.35 L 341.88 224.33 L 342.05 224.28 L 342.11 224.27 L 342.14 224.10 L 342.19 224.10 L 342.29 223.45 L 354.16 222.19 L 354.18 222.02 L 354.28 221.90 L 354.31 221.66 L 354.37 210.68 L 354.50 206.18 L 354.52 206.16 L 354.74 206.07 L 354.79 206.07 L 354.83 205.55 L 355.02 205.50 L 355.53 204.44 L 355.54 204.41 L 355.67 204.09 L 355.72 204.10 L 355.75 203.57 L 356.18 202.94 L 356.19 202.92 L 356.84 202.68 L 356.92 202.12 L 357.15 202.13 L 357.42 200.71 L 357.49 200.15 L 357.53 199.70 L 357.65 199.15 L 357.99 198.96 L 358.05 198.82 L 358.20 198.70 L 358.36 198.70 L 358.86 198.70 L 358.92 198.70 L 359.03 198.67 L 359.04 198.67 L 359.20 198.69 L 359.58 198.66 L 359.96 198.45 L 360.02 198.45 L 360.11 198.37 L 360.22 198.22 L 360.52 198.22 L 361.02 198.02 L 361.18 197.58 L 361.46 193.80 L 362.55 197.00 L 362.79 196.98 L 362.96 196.97 L 363.23 196.96 L 363.32 196.90 L 363.59 196.72 L 364.02 196.46 L 364.08 196.29 L 364.16 196.21 L 364.21 196.23 L 364.25 196.18 L 364.59 195.94 L 372.45 195.94 L 372.53 195.94 L 373.01 195.93 L 373.06 195.91 L 373.17 195.43 L 373.26 195.16 L 373.28 195.15 L 373.55 195.11 L 373.61 195.09 L 375.22 194.38 L 375.41 194.32 L 375.55 194.30 L 375.58 194.30 L 376.08 194.13 L 376.25 194.21 L 376.28 194.21 L 376.55 194.16 L 376.84 192.66 L 376.88 192.66 L 377.12 192.48 L 377.22 192.48 L 377.32 192.48 L 377.52 192.32 L 377.96 191.71 L 378.04 191.69 L 378.12 191.52 L 378.30 190.81 L 378.73 190.07 L 379.12 186.59 L 379.20 186.16 L 379.59 185.99 L 379.66 185.91 L 379.72 185.74 L 379.76 185.18 L 379.90 184.18 L 379.93 184.22 L 379.99 184.20 L 380.22 184.19 L 380.56 183.82 L 380.77 183.75 L 381.01 183.74 L 381.13 183.73 L 381.37 183.71 L 381.76 183.71 L 382.16 183.70 L 382.46 183.70 L 382.53 183.69 L 382.61 183.68 L 382.61 183.56 L 382.84 183.49 L 382.91 183.47 L 383.00 183.32 L 383.65 183.30 L 383.66 183.00 L 383.84 182.98 L 384.59 182.99 L 385.09 182.81 L 385.45 182.58 L 385.46 182.46 L 385.49 182.46 L 396.51 182.25 L 396.55 182.25 L 396.67 182.24 L 396.73 182.06 L 396.77 182.04 L 396.78 182.03 L 397.25 181.99 L 397.35 181.36 L 397.49 181.21 L 397.73 179.97 L 397.88 179.96 L 398.07 179.43 L 398.17 179.50 L 398.22 179.49 L 398.28 178.89 L 398.42 178.48 L 398.44 178.04 L 398.48 177.98 L 398.60 177.94 L 398.68 177.73 L 398.78 180.11 L 398.91 180.06 L 399.18 179.12 L 399.30 178.88 L 399.41 178.69 L 400.08 177.33 L 400.66 176.67 L 401.36 175.41 L 401.54 175.35 L 401.73 175.35 L 401.95 175.30 L 406.00 174.94 L 406.33 174.91 L 444.71 173.95 L 565.55 173.73 L 565.95 173.34 L 566.22 173.29 L 566.50 173.29 L 566.92 172.55 L 567.06 172.20 L 567.17 171.53 L 567.37 169.62 L 567.65 170.02 L 567.87 169.60 L 567.92 169.59 L 568.11 169.47 L 568.15 169.47 L 568.35 168.77 L 568.53 167.65 L 569.08 166.46 L 569.09 166.36 L 569.25 164.94 L 569.77 161.43 L 569.78 161.31 L 569.88 161.23 L 570.01 159.98 L 570.57 158.29 L 570.59 158.13 L 570.71 158.05 L 570.84 157.22 L 571.05 156.56 L 571.06 156.44 L 571.15 155.15 L 571.17 155.12 L 571.22 154.76 L 571.46 152.47 L 571.49 152.34 L 571.57 152.20 L 571.82 151.90 L 571.88 151.89 L 572.08 151.45 L 572.41 151.51 L 572.47 151.45 L 572.51 151.42 L 572.57 151.38 L 572.74 150.04 L 572.92 148.94 L 572.94 148.85 L 573.04 147.48 L 573.14 146.14 L 573.17 145.97 L 573.27 144.41 L 573.32 143.18 L 573.53 142.34 L 573.56 142.29 L 573.66 142.03 L 573.81 142.01 L 574.68 141.97 L 575.11 141.93 L 584.55 141.99 L 584.65 141.75 L 584.74 141.54 L 584.90 140.62 L 585.25 140.38 L 585.28 140.29 L 585.35 139.07 L 585.57 137.89 L 585.60 137.79 L 587.66 137.71 L 587.78 137.04 L 588.82 136.85 L 588.94 136.80 L 589.06 135.43 L 590.31 134.14 L 590.84 133.64 L 590.97 132.64 L 591.42 130.91 L 591.71 130.42 L 592.17 129.40 L 593.00 128.89 L 605.63 128.88 L 606.39 128.76 L 606.42 128.78 L 607.48 128.58 L 607.53 128.48 L 607.90 128.40 L 608.33 127.28 L 608.33 127.28 L 608.38 127.23 L 608.94 125.95 L 610.24 125.22 L 610.33 125.15 L 610.46 125.14 L 610.66 124.80 L 610.71 124.71 L 610.79 124.65 L 611.39 124.60 L 611.88 124.60 L 612.14 124.60 L 612.17 124.55 L 612.71 123.43 L 613.13 123.21 L 613.15 123.13 L 613.20 123.04 L 613.25 122.74 L 626.96 122.31 L 626.99 122.28 L 627.03 122.26 L 627.29 122.14 L 627.50 122.00 L 628.71 120.28 L 629.01 120.07 L 629.88 119.55 L 630.63 119.43 L 631.18 119.26 L 631.34 117.67 L 632.04 115.80 L 632.29 115.67 L 632.38 114.46 L 634.41 112.25 L 634.43 112.25 L 634.54 111.71 L 634.93 111.65 L 634.93 111.65 L 634.95 111.52 L 635.02 111.34 L 635.20 111.17 L 635.42 110.24 L 637.52 108.00 L 637.79 107.73 L 637.98 107.33 L 638.01 107.28 L 638.05 106.97 L 647.39 105.95 L 647.69 105.18 L 647.87 105.15 L 647.94 104.64 L 648.82 104.40 L 649.00 103.89 L 649.17 103.89 L 649.26 102.82 L 649.56 100.09 L 649.61 100.05 L 650.00 100.00"/>
	</g>
	<g id="poloto_plot1" class="poloto_plot poloto_imgs poloto_line poloto1 poloto_stroke" fill="none" stroke="black">
		<path d=" M 150.00 380.90 L 150.03 380.89 L 150.05 380.87 L 150.06 380.87 L 150.08 380.87 L 150.12 380.27 L 150.25 380.25 L 150.54 380.24 L 150.98 380.01 L 151.20 379.91 L 151.65 379.93 L 151.73 379.89 L 151.79 379.89 L 152.31 379.84 L 153.28 379.73 L 153.59 377.37 L 153.67 377.37 L 154.26 377.31 L 154.94 377.30 L 154.94 377.30 L 154.95 377.30 L 164.12 377.30 L 164.18 377.30 L 164.30 377.30 L 164.35 377.27 L 164.70 377.26 L 164.86 377.26 L 165.25 377.26 L 165.30 377.26 L 165.41 377.24 L 165.53 377.24 L 165.56 377.24 L 165.66 377.21 L 165.76 377.21 L 165.86 377.21 L 166.12 377.08 L 166.34 377.08 L 166.38 377.08 L 166.49 377.08 L 167.22 377.97 L 167.24 377.97 L 167.33 377.96 L 167.74 377.82 L 168.08 377.68 L 168.45 377.61 L 168.53 377.56 L 168.54 377.56 L 168.61 377.56 L 168.76 377.56 L 168.94 377.51 L 169.30 377.45 L 169.32 377.45 L 169.39 377.45 L 169.47 377.43 L 169.68 377.43 L 169.70 377.43 L 169.92 377.42 L 170.00 377.42 L 170.08 377.42 L 170.16 377.42 L 171.28 377.32 L 171.55 377.31 L 172.17 377.26 L 172.30 377.26 L 172.40 377.26 L 172.46 377.26 L 172.88 377.19 L 173.07 377.19 L 173.29 377.11 L 173.40 377.10 L 173.66 376.90 L 173.77 376.83 L 173.93 376.83 L 174.07 376.83 L 174.56 374.07 L 174.58 374.03 L 174.60 374.03 L 174.77 373.76 L 183.27 373.76 L 184.15 372.57 L 184.18 372.57 L 185.23 372.57 L 185.31 372.57 L 185.41 372.44 L 185.66 372.42 L 185.78 372.42 L 185.82 372.42 L 185.95 372.42 L 186.26 372.42 L 186.27 372.16 L 186.38 372.15 L 186.50 372.15 L 186.63 372.13 L 186.80 372.12 L 186.86 372.12 L 186.89 372.12 L 187.03 372.12 L 187.05 372.12 L 187.22 372.12 L 187.24 372.12 L 187.49 370.95 L 187.53 370.95 L 187.61 370.81 L 187.72 370.81 L 187.86 370.81 L 187.92 370.80 L 188.39 370.79 L 188.41 370.79 L 188.50 370.72 L 188.71 370.72 L 188.90 370.05 L 188.96 369.97 L 189.05 369.97 L 189.09 369.97 L 189.20 369.95 L 189.73 365.02 L 189.79 365.06 L 189.98 365.06 L 190.03 365.06 L 190.07 365.05 L 190.16 365.05 L 190.24 364.98 L 190.43 364.98 L 190.56 364.98 L 190.67 364.97 L 190.73 364.97 L 191.21 364.97 L 191.47 364.96 L 191.55 364.84 L 191.77 364.84 L 191.80 364.84 L 191.82 364.84 L 191.96 364.51 L 192.07 364.42 L 192.46 363.25 L 192.53 363.25 L 192.60 363.25 L 192.71 363.27 L 192.72 363.27 L 192.77 363.27 L 192.80 363.27 L 192.86 363.27 L 192.91 363.27 L 193.07 363.24 L 193.18 363.24 L 193.29 363.23 L 193.45 363.23 L 193.62 363.22 L 193.79 362.78 L 193.91 362.64 L 194.16 362.64 L 194.16 362.63 L 194.31 362.63 L 206.18 362.63 L 206.41 362.62 L 206.97 362.55 L 207.09 362.54 L 207.18 362.54 L 207.20 362.54 L 207.40 362.54 L 207.54 362.54 L 207.62 362.54 L 207.71 362.54 L 207.75 362.53 L 207.97 362.53 L 208.40 362.56 L 208.50 362.56 L 208.58 362.56 L 208.69 362.56 L 209.24 362.46 L 209.31 362.42 L 209.35 362.42 L 209.39 362.36 L 209.51 362.35 L 209.60 362.35 L 210.00 361.90 L 210.57 361.90 L 210.78 361.90 L 211.42 361.90 L 211.72 358.88 L 211.82 358.88 L 211.95 358.88 L 212.14 358.87 L 212.43 358.87 L 212.83 358.87 L 213.37 358.87 L 213.45 358.87 L 213.84 358.80 L 214.10 358.68 L 214.18 358.68 L 214.33 358.68 L 214.45 358.66 L 215.85 358.47 L 217.19 358.47 L 229.14 358.47 L 229.23 358.47 L 229.29 358.47 L 229.67 358.47 L 230.78 357.52 L 230.83 357.48 L 230.99 357.39 L 231.53 357.38 L 231.79 357.15 L 232.19 357.16 L 232.28 357.16 L 232.37 357.16 L 233.06 354.50 L 233.15 354.50 L 233.29 354.50 L 233.45 354.50 L 233.52 354.34 L 233.90 354.02 L 234.04 354.02 L 234.11 354.02 L 234.19 353.53 L 234.37 353.04 L 234.43 353.04 L 234.61 353.03 L 235.13 349.08 L 235.18 349.08 L 235.23 349.08 L 235.31 349.08 L 235.44 349.08 L 235.49 349.08 L 235.54 349.08 L 235.79 349.08 L 235.84 349.00 L 236.15 348.98 L 236.33 348.93 L 236.44 348.45 L 237.37 340.59 L 237.47 340.59 L 272.60 340.59 L 272.64 340.59 L 286.06 340.59 L 286.79 340.47 L 286.94 340.47 L 287.14 340.47 L 287.21 340.47 L 287.29 340.47 L 293.11 340.41 L 293.88 340.34 L 294.16 340.34 L 294.31 340.31 L 297.94 340.25 L 297.96 340.14 L 298.19 340.14 L 299.27 339.08 L 299.34 339.08 L 299.47 339.08 L 299.85 339.08 L 299.90 339.08 L 300.05 339.08 L 300.22 339.08 L 300.24 339.08 L 311.53 339.06 L 311.61 338.87 L 312.06 338.87 L 312.07 337.59 L 312.15 337.59 L 312.24 337.59 L 312.36 337.47 L 312.56 337.47 L 312.72 337.41 L 312.86 337.41 L 312.92 337.41 L 313.15 337.40 L 313.93 335.22 L 314.24 335.22 L 314.30 335.20 L 314.36 335.20 L 314.40 335.20 L 314.51 335.17 L 314.83 334.90 L 314.88 334.86 L 315.07 332.90 L 315.15 332.90 L 315.18 332.90 L 315.25 332.87 L 315.30 332.87 L 315.34 332.86 L 315.59 331.80 L 315.69 331.78 L 315.83 331.76 L 315.93 328.45 L 315.97 328.44 L 316.21 326.58 L 316.28 326.58 L 316.33 326.57 L 316.39 326.57 L 316.43 326.57 L 316.47 326.57 L 316.48 326.57 L 316.61 323.12 L 316.65 323.12 L 316.77 323.11 L 316.86 323.11 L 317.11 323.04 L 317.42 322.94 L 317.43 322.94 L 317.52 322.92 L 317.81 322.87 L 317.95 322.87 L 318.08 322.87 L 318.23 321.38 L 318.33 321.38 L 318.73 321.37 L 318.76 321.37 L 318.81 321.37 L 318.84 321.37 L 319.10 319.24 L 319.15 319.24 L 319.34 319.23 L 336.70 319.23 L 337.69 319.22 L 337.72 319.22 L 337.91 319.22 L 337.93 319.22 L 338.06 319.22 L 338.15 319.22 L 338.24 319.11 L 338.36 319.11 L 338.39 319.11 L 338.44 319.11 L 338.62 318.92 L 339.00 318.79 L 339.24 318.67 L 339.50 318.07 L 339.51 318.07 L 339.56 317.92 L 339.59 317.90 L 340.11 317.53 L 340.12 317.53 L 340.20 317.48 L 340.42 317.48 L 340.56 317.44 L 340.59 316.56 L 340.60 316.56 L 340.67 317.43 L 340.71 317.38 L 340.73 317.37 L 340.85 316.19 L 340.86 316.19 L 341.14 316.14 L 341.88 316.14 L 342.05 316.14 L 342.11 316.14 L 342.14 316.14 L 342.19 316.14 L 342.29 316.06 L 354.16 315.08 L 354.18 315.08 L 354.28 315.08 L 354.31 314.86 L 354.37 304.38 L 354.50 300.48 L 354.52 300.48 L 354.74 300.41 L 354.79 300.41 L 354.83 300.39 L 355.02 300.39 L 355.53 299.44 L 355.54 299.44 L 355.67 299.38 L 355.72 299.38 L 355.75 299.30 L 356.18 298.73 L 356.19 298.73 L 356.84 298.62 L 356.92 298.58 L 357.15 298.59 L 357.42 297.30 L 357.49 297.17 L 357.53 297.05 L 357.65 296.57 L 357.99 296.45 L 358.05 296.34 L 358.20 296.34 L 358.36 296.34 L 358.86 296.34 L 358.92 296.34 L 359.03 296.34 L 359.04 296.34 L 359.20 296.36 L 359.58 296.36 L 359.96 296.23 L 360.02 296.23 L 360.11 296.21 L 360.22 296.21 L 360.52 296.21 L 361.02 296.21 L 361.18 296.09 L 361.46 292.71 L 362.55 295.90 L 362.79 295.89 L 362.96 295.88 L 363.23 295.88 L 363.32 295.84 L 363.59 295.82 L 364.02 295.63 L 364.08 295.63 L 364.16 295.63 L 364.21 295.63 L 364.25 295.63 L 364.59 295.44 L 372.45 295.44 L 372.53 295.45 L 373.01 295.43 L 373.06 295.43 L 373.17 295.40 L 373.26 295.17 L 373.28 295.16 L 373.55 295.14 L 373.61 295.14 L 375.22 294.94 L 375.41 294.94 L 375.55 294.94 L 375.58 294.94 L 376.08 294.80 L 376.25 294.80 L 376.28 294.80 L 376.55 294.80 L 376.84 294.00 L 376.88 294.00 L 377.12 293.86 L 377.22 293.86 L 377.32 293.86 L 377.52 293.86 L 377.96 293.85 L 378.04 293.83 L 378.12 293.75 L 378.30 293.62 L 378.73 293.49 L 379.12 290.30 L 379.20 290.19 L 379.59 290.04 L 379.66 290.00 L 379.72 289.89 L 379.76 289.67 L 379.90 288.71 L 379.93 288.75 L 379.99 288.73 L 380.22 288.73 L 380.56 288.60 L 380.77 288.55 L 381.01 288.53 L 381.13 288.52 L 381.37 288.51 L 381.76 288.51 L 382.16 288.50 L 382.46 288.50 L 382.53 288.49 L 382.61 288.49 L 382.61 288.48 L 382.84 288.48 L 382.91 288.47 L 383.00 288.35 L 383.65 288.34 L 383.66 288.34 L 383.84 288.33 L 384.59 288.32 L 385.09 288.17 L 385.45 288.03 L 385.46 288.03 L 385.49 288.03 L 396.51 288.03 L 396.55 288.03 L 396.67 288.03 L 396.73 288.03 L 396.77 288.01 L 396.78 288.01 L 397.25 288.01 L 397.35 288.00 L 397.49 287.98 L 397.73 287.95 L 397.88 287.95 L 398.07 287.88 L 398.17 287.88 L 398.22 287.88 L 398.28 287.88 L 398.42 287.59 L 398.44 287.59 L 398.48 287.59 L 398.60 287.59 L 398.68 287.59 L 398.78 287.66 L 398.91 287.66 L 399.18 287.64 L 399.30 287.64 L 399.41 287.64 L 400.08 286.71 L 400.66 286.45 L 401.36 285.78 L 401.54 285.78 L 401.73 285.78 L 401.95 285.78 L 406.00 285.70 L 406.33 285.70 L 444.71 285.58 L 565.55 285.40 L 565.95 285.35 L 566.22 285.34 L 566.50 285.34 L 566.92 284.91 L 567.06 284.91 L 567.17 284.91 L 567.37 283.34 L 567.65 283.64 L 567.87 283.61 L 567.92 283.61 L 568.11 283.60 L 568.15 283.60 L 568.35 283.60 L 568.53 283.52 L 569.08 282.53 L 569.09 282.53 L 569.25 282.44 L 569.77 279.22 L 569.78 279.22 L 569.88 279.22 L 570.01 279.17 L 570.57 277.67 L 570.59 277.67 L 570.71 277.67 L 570.84 277.64 L 571.05 277.09 L 571.06 277.09 L 571.15 277.08 L 571.17 277.08 L 571.22 276.78 L 571.46 274.65 L 571.49 274.65 L 571.57 274.65 L 571.82 274.47 L 571.88 274.47 L 572.08 274.12 L 572.41 274.12 L 572.47 274.12 L 572.51 274.12 L 572.57 274.12 L 572.74 274.11 L 572.92 273.15 L 572.94 273.15 L 573.04 273.15 L 573.14 272.42 L 573.17 272.42 L 573.27 271.65 L 573.32 271.60 L 573.53 270.84 L 573.56 270.84 L 573.66 270.84 L 573.81 270.83 L 574.68 270.83 L 575.11 270.82 L 584.55 270.82 L 584.65 270.82 L 584.74 270.82 L 584.90 270.82 L 585.25 270.62 L 585.28 270.62 L 585.35 270.55 L 585.57 269.49 L 585.60 269.49 L 587.66 269.51 L 587.78 269.30 L 588.82 269.30 L 588.94 269.30 L 589.06 269.22 L 590.31 268.34 L 590.84 268.18 L 590.97 268.12 L 591.42 266.45 L 591.71 266.45 L 592.17 266.32 L 593.00 266.32 L 605.63 266.31 L 606.39 266.21 L 606.42 266.23 L 607.48 266.23 L 607.53 266.23 L 607.90 266.23 L 608.33 266.20 L 608.33 266.20 L 608.38 266.20 L 608.94 265.23 L 610.24 265.20 L 610.33 265.20 L 610.46 265.20 L 610.66 265.16 L 610.71 265.13 L 610.79 265.13 L 611.39 265.08 L 611.88 265.08 L 612.14 265.08 L 612.17 265.08 L 612.71 265.06 L 613.13 264.95 L 613.15 264.95 L 613.20 264.95 L 613.25 264.95 L 626.96 264.72 L 626.99 264.72 L 627.03 264.72 L 627.29 264.72 L 627.50 264.72 L 628.71 263.76 L 629.01 263.70 L 629.88 263.63 L 630.63 263.58 L 631.18 263.58 L 631.34 263.58 L 632.04 262.13 L 632.29 262.09 L 632.38 262.04 L 634.41 261.02 L 634.43 261.02 L 634.54 261.01 L 634.93 260.99 L 634.93 260.99 L 634.95 260.99 L 635.02 260.96 L 635.20 260.92 L 635.42 260.81 L 637.52 259.13 L 637.79 259.04 L 637.98 259.04 L 638.01 259.04 L 638.05 259.04 L 647.39 259.04 L 647.69 259.03 L 647.87 259.03 L 647.94 259.03 L 648.82 259.03 L 649.00 259.03 L 649.17 259.03 L 649.26 259.00 L 649.56 256.79 L 649.61 256.78 L 650.00 256.79"/>
	</g>
	<g id="poloto_plot2" class="poloto_plot poloto_imgs poloto_line poloto2 poloto_stroke" fill="none" stroke="black">
		<path d=" M 150.00 391.43 L 150.03 391.43 L 150.05 391.43 L 150.06 391.43 L 150.08 391.43 L 150.12 389.23 L 150.25 388.93 L 150.54 388.93 L 150.98 388.91 L 151.20 387.60 L 151.65 387.48 L 151.73 387.45 L 151.79 387.41 L 152.31 386.82 L 153.28 386.37 L 153.59 386.28 L 153.67 386.28 L 154.26 386.25 L 154.94 386.25 L 154.94 386.25 L 154.95 386.25 L 164.12 386.25 L 164.18 386.24 L 164.30 386.22 L 164.35 386.22 L 164.70 386.09 L 164.86 386.05 L 165.25 385.84 L 165.30 385.75 L 165.41 385.55 L 165.53 385.53 L 165.56 385.52 L 165.66 385.49 L 165.76 385.49 L 165.86 385.49 L 166.12 385.27 L 166.34 385.07 L 166.38 385.07 L 166.49 384.95 L 167.22 384.69 L 167.24 384.68 L 167.33 384.60 L 167.74 384.31 L 168.08 383.95 L 168.45 383.81 L 168.53 383.81 L 168.54 383.81 L 168.61 383.61 L 168.76 383.61 L 168.94 383.59 L 169.30 383.44 L 169.32 383.18 L 169.39 383.18 L 169.47 383.06 L 169.68 383.06 L 169.70 383.06 L 169.92 382.67 L 170.00 382.65 L 170.08 382.61 L 170.16 382.43 L 171.28 382.33 L 171.55 382.29 L 172.17 382.03 L 172.30 382.03 L 172.40 382.01 L 172.46 381.81 L 172.88 380.74 L 173.07 380.72 L 173.29 380.40 L 173.40 380.37 L 173.66 380.22 L 173.77 380.18 L 173.93 379.94 L 174.07 379.76 L 174.56 379.76 L 174.58 379.73 L 174.60 379.58 L 174.77 378.54 L 183.27 378.43 L 184.15 378.12 L 184.18 378.08 L 185.23 377.82 L 185.31 377.82 L 185.41 377.63 L 185.66 377.50 L 185.78 377.26 L 185.82 377.07 L 185.95 376.68 L 186.26 376.67 L 186.27 376.67 L 186.38 376.40 L 186.50 376.40 L 186.63 376.12 L 186.80 375.90 L 186.86 375.77 L 186.89 375.77 L 187.03 375.51 L 187.05 375.50 L 187.22 375.27 L 187.24 375.26 L 187.49 375.18 L 187.53 375.18 L 187.61 375.09 L 187.72 375.07 L 187.86 375.07 L 187.92 375.05 L 188.39 374.82 L 188.41 374.83 L 188.50 374.36 L 188.71 374.35 L 188.90 374.20 L 188.96 374.20 L 189.05 374.20 L 189.09 374.16 L 189.20 373.52 L 189.73 372.98 L 189.79 372.69 L 189.98 372.66 L 190.03 372.59 L 190.07 372.57 L 190.16 372.44 L 190.24 371.93 L 190.43 371.85 L 190.56 371.84 L 190.67 371.59 L 190.73 371.58 L 191.21 371.39 L 191.47 371.25 L 191.55 371.14 L 191.77 371.13 L 191.80 371.13 L 191.82 371.10 L 191.96 370.19 L 192.07 370.18 L 192.46 370.05 L 192.53 369.68 L 192.60 369.67 L 192.71 369.52 L 192.72 369.44 L 192.77 369.37 L 192.80 369.34 L 192.86 369.34 L 192.91 369.26 L 193.07 368.23 L 193.18 368.13 L 193.29 367.82 L 193.45 367.80 L 193.62 367.70 L 193.79 367.38 L 193.91 366.48 L 194.16 366.41 L 194.16 366.03 L 194.31 365.94 L 206.18 365.94 L 206.41 365.94 L 206.97 365.52 L 207.09 365.52 L 207.18 365.52 L 207.20 365.41 L 207.40 365.23 L 207.54 365.19 L 207.62 365.08 L 207.71 365.01 L 207.75 364.97 L 207.97 364.91 L 208.40 365.00 L 208.50 364.71 L 208.58 364.64 L 208.69 364.63 L 209.24 364.57 L 209.31 364.52 L 209.35 364.52 L 209.39 364.47 L 209.51 364.42 L 209.60 364.32 L 210.00 364.05 L 210.57 363.94 L 210.78 363.89 L 211.42 363.72 L 211.72 363.30 L 211.82 363.23 L 211.95 362.91 L 212.14 362.48 L 212.43 362.37 L 212.83 362.36 L 213.37 362.35 L 213.45 362.19 L 213.84 362.09 L 214.10 361.96 L 214.18 361.85 L 214.33 361.81 L 214.45 361.53 L 215.85 361.39 L 217.19 361.39 L 229.14 361.36 L 229.23 361.21 L 229.29 361.10 L 229.67 360.95 L 230.78 360.67 L 230.83 360.63 L 230.99 360.43 L 231.53 360.36 L 231.79 359.81 L 232.19 359.80 L 232.28 359.78 L 232.37 359.25 L 233.06 358.75 L 233.15 358.74 L 233.29 358.71 L 233.45 358.67 L 233.52 358.49 L 233.90 357.66 L 234.04 357.44 L 234.11 357.43 L 234.19 357.34 L 234.37 357.02 L 234.43 356.18 L 234.61 355.84 L 235.13 355.65 L 235.18 355.23 L 235.23 355.23 L 235.31 355.15 L 235.44 355.04 L 235.49 355.01 L 235.54 354.97 L 235.79 354.00 L 235.84 353.43 L 236.15 353.32 L 236.33 352.35 L 236.44 352.17 L 237.37 350.65 L 237.47 350.62 L 272.60 350.18 L 272.64 350.18 L 286.06 350.05 L 286.79 349.89 L 286.94 349.89 L 287.14 349.81 L 287.21 349.69 L 287.29 349.66 L 293.11 349.65 L 293.88 347.90 L 294.16 347.75 L 294.31 347.15 L 297.94 347.07 L 297.96 347.02 L 298.19 347.01 L 299.27 346.90 L 299.34 346.70 L 299.47 346.63 L 299.85 346.54 L 299.90 346.51 L 300.05 346.17 L 300.22 346.07 L 300.24 345.81 L 311.53 345.49 L 311.61 344.69 L 312.06 344.48 L 312.07 344.18 L 312.15 343.94 L 312.24 343.58 L 312.36 342.62 L 312.56 342.09 L 312.72 341.41 L 312.86 341.41 L 312.92 340.88 L 313.15 340.85 L 313.93 340.35 L 314.24 340.12 L 314.30 339.97 L 314.36 339.97 L 314.40 339.80 L 314.51 339.20 L 314.83 339.14 L 314.88 339.14 L 315.07 338.75 L 315.15 338.75 L 315.18 338.53 L 315.25 338.39 L 315.30 338.39 L 315.34 338.08 L 315.59 337.89 L 315.69 337.58 L 315.83 337.57 L 315.93 337.41 L 315.97 337.17 L 316.21 337.04 L 316.28 336.90 L 316.33 336.90 L 316.39 336.90 L 316.43 336.66 L 316.47 336.67 L 316.48 336.66 L 316.61 336.58 L 316.65 336.32 L 316.77 336.31 L 316.86 336.25 L 317.11 336.23 L 317.42 336.20 L 317.43 336.20 L 317.52 336.18 L 317.81 336.18 L 317.95 336.18 L 318.08 336.18 L 318.23 336.14 L 318.33 335.82 L 318.73 335.82 L 318.76 335.63 L 318.81 335.63 L 318.84 335.41 L 319.10 335.34 L 319.15 335.29 L 319.34 335.29 L 336.70 335.23 L 337.69 335.14 L 337.72 335.14 L 337.91 335.14 L 337.93 335.14 L 338.06 334.76 L 338.15 334.75 L 338.24 334.65 L 338.36 334.59 L 338.39 334.55 L 338.44 334.53 L 338.62 334.50 L 339.00 334.43 L 339.24 333.92 L 339.50 333.89 L 339.51 333.86 L 339.56 333.44 L 339.59 333.43 L 340.11 333.43 L 340.12 333.39 L 340.20 333.00 L 340.42 332.95 L 340.56 332.94 L 340.59 332.93 L 340.60 332.89 L 340.67 332.86 L 340.71 332.46 L 340.73 332.45 L 340.85 332.45 L 340.86 332.41 L 341.14 332.38 L 341.88 332.36 L 342.05 332.33 L 342.11 332.32 L 342.14 332.19 L 342.19 332.19 L 342.29 331.74 L 354.16 331.60 L 354.18 331.47 L 354.28 331.38 L 354.31 331.37 L 354.37 330.98 L 354.50 330.89 L 354.52 330.87 L 354.74 330.86 L 354.79 330.86 L 354.83 330.48 L 355.02 330.44 L 355.53 330.42 L 355.54 330.40 L 355.67 330.19 L 355.72 330.20 L 355.75 329.84 L 356.18 329.84 L 356.19 329.82 L 356.84 329.74 L 356.92 329.32 L 357.15 329.32 L 357.42 329.31 L 357.49 329.00 L 357.53 328.76 L 357.65 328.75 L 357.99 328.70 L 358.05 328.68 L 358.20 328.58 L 358.36 328.58 L 358.86 328.59 L 358.92 328.59 L 359.03 328.56 L 359.04 328.56 L 359.20 328.56 L 359.58 328.53 L 359.96 328.49 L 360.02 328.49 L 360.11 328.45 L 360.22 328.33 L 360.52 328.33 L 361.02 328.20 L 361.18 327.96 L 361.46 327.93 L 362.55 327.68 L 362.79 327.68 L 362.96 327.67 L 363.23 327.66 L 363.32 327.65 L 363.59 327.52 L 364.02 327.50 L 364.08 327.38 L 364.16 327.33 L 364.21 327.34 L 364.25 327.30 L 364.59 327.28 L 372.45 327.27 L 372.53 327.27 L 373.01 327.27 L 373.06 327.26 L 373.17 326.91 L 373.26 326.89 L 373.28 326.89 L 373.55 326.88 L 373.61 326.86 L 375.22 326.35 L 375.41 326.29 L 375.55 326.28 L 375.58 326.28 L 376.08 326.26 L 376.25 326.34 L 376.28 326.33 L 376.55 326.30 L 376.84 325.81 L 376.88 325.80 L 377.12 325.78 L 377.22 325.78 L 377.32 325.78 L 377.52 325.68 L 377.96 325.23 L 378.04 325.23 L 378.12 325.17 L 378.30 324.76 L 378.73 324.31 L 379.12 324.34 L 379.20 324.10 L 379.59 324.10 L 379.66 324.08 L 379.72 324.05 L 379.76 323.81 L 379.90 323.81 L 379.93 323.81 L 379.99 323.81 L 380.22 323.81 L 380.56 323.62 L 380.77 323.60 L 381.01 323.60 L 381.13 323.60 L 381.37 323.60 L 381.76 323.60 L 382.16 323.60 L 382.46 323.59 L 382.53 323.59 L 382.61 323.58 L 382.61 323.50 L 382.84 323.44 L 382.91 323.44 L 383.00 323.43 L 383.65 323.42 L 383.66 323.19 L 383.84 323.19 L 384.59 323.20 L 385.09 323.19 L 385.45 323.14 L 385.46 323.05 L 385.49 323.05 L 396.51 322.89 L 396.55 322.89 L 396.67 322.88 L 396.73 322.73 L 396.77 322.73 L 396.78 322.72 L 397.25 322.68 L 397.35 322.21 L 397.49 322.11 L 397.73 321.18 L 397.88 321.17 L 398.07 320.77 L 398.17 320.82 L 398.22 320.81 L 398.28 320.31 L 398.42 320.22 L 398.44 319.87 L 398.48 319.81 L 398.60 319.78 L 398.68 319.61 L 398.78 321.69 L 398.91 321.66 L 399.18 320.82 L 399.30 320.64 L 399.41 320.45 L 400.08 320.12 L 400.66 319.77 L 401.36 319.28 L 401.54 319.22 L 401.73 319.22 L 401.95 319.18 L 406.00 318.93 L 406.33 318.91 L 444.71 318.26 L 565.55 318.23 L 565.95 317.94 L 566.22 317.90 L 566.50 317.90 L 566.92 317.63 L 567.06 317.32 L 567.17 316.75 L 567.37 316.60 L 567.65 316.65 L 567.87 316.32 L 567.92 316.31 L 568.11 316.21 L 568.15 316.21 L 568.35 315.65 L 568.53 314.80 L 569.08 314.71 L 569.09 314.62 L 569.25 313.52 L 569.77 313.48 L 569.78 313.37 L 569.88 313.31 L 570.01 312.31 L 570.57 312.26 L 570.59 312.11 L 570.71 312.05 L 570.84 311.39 L 571.05 311.37 L 571.06 311.26 L 571.15 310.17 L 571.17 310.14 L 571.22 310.11 L 571.46 310.11 L 571.49 309.99 L 571.57 309.91 L 571.82 309.81 L 571.88 309.81 L 572.08 309.75 L 572.41 309.79 L 572.47 309.74 L 572.51 309.72 L 572.57 309.68 L 572.74 308.55 L 572.92 308.53 L 572.94 308.43 L 573.04 307.27 L 573.14 306.85 L 573.17 306.70 L 573.27 306.13 L 573.32 305.15 L 573.53 305.14 L 573.56 305.08 L 573.66 304.88 L 573.81 304.88 L 574.68 304.84 L 575.11 304.82 L 584.55 304.86 L 584.65 304.64 L 584.74 304.48 L 584.90 303.69 L 585.25 303.68 L 585.28 303.60 L 585.35 302.61 L 585.57 302.60 L 585.60 302.51 L 587.66 302.41 L 587.78 302.05 L 588.82 301.88 L 588.94 301.84 L 589.06 300.74 L 590.31 300.43 L 590.84 300.16 L 590.97 299.34 L 591.42 299.33 L 591.71 298.87 L 592.17 298.16 L 593.00 297.73 L 605.63 297.73 L 606.39 297.72 L 606.42 297.72 L 607.48 297.56 L 607.53 297.47 L 607.90 297.41 L 608.33 296.48 L 608.33 296.48 L 608.38 296.44 L 608.94 296.25 L 610.24 295.63 L 610.33 295.57 L 610.46 295.56 L 610.66 295.31 L 610.71 295.27 L 610.79 295.22 L 611.39 295.22 L 611.88 295.22 L 612.14 295.22 L 612.17 295.17 L 612.71 294.24 L 613.13 294.15 L 613.15 294.08 L 613.20 293.99 L 613.25 293.76 L 626.96 293.58 L 626.99 293.56 L 627.03 293.54 L 627.29 293.43 L 627.50 293.31 L 628.71 292.79 L 629.01 292.68 L 629.88 292.27 L 630.63 292.21 L 631.18 292.05 L 631.34 290.67 L 632.04 290.44 L 632.29 290.37 L 632.38 289.37 L 634.41 288.42 L 634.43 288.42 L 634.54 287.97 L 634.93 287.93 L 634.93 287.93 L 634.95 287.82 L 635.02 287.70 L 635.20 287.60 L 635.42 286.92 L 637.52 286.56 L 637.79 286.41 L 637.98 286.03 L 638.01 285.99 L 638.05 285.75 L 647.39 284.88 L 647.69 284.26 L 647.87 284.23 L 647.94 283.81 L 648.82 283.64 L 649.00 283.19 L 649.17 283.19 L 649.26 282.27 L 649.56 282.05 L 649.61 282.02 L 650.00 281.96"/>
	</g>
	<g class="poloto_legend poloto_imgs poloto_line poloto0 poloto_stroke"><line x1="680" x2="730" y1="81.25" y2="81.25"/></g>
	<g class="poloto_legend poloto_imgs poloto_line poloto1 poloto_stroke"><line x1="680" x2="730" y1="131.25" y2="131.25"/></g>
	<g class="poloto_legend poloto_imgs poloto_line poloto2 poloto_stroke"><line x1="680" x2="730" y1="181.25" y2="181.25"/></g>
	<text class="poloto_legend poloto_text poloto_line poloto0" x="675" y="100">total</text>
	<text class="poloto_legend poloto_text poloto_line poloto1" x="675" y="150">code</text>
	<text class="poloto_legend poloto_text poloto_line poloto2" x="675" y="200">docs</text>
	<text class="poloto_text poloto_name poloto_title" x="400.00" y="37.50">Workspace lines over time</text>
	<text class="poloto_text poloto_name poloto_x" x="400.00" y="640">date (JST)</text>
	<text class="poloto_text poloto_name poloto_y" x="37.50" y="250.00" transform="rotate(-90,37.50,250.00)">lines</text>
	<text class="poloto_text poloto_ticks poloto_y">
		<tspan x="135.00" y="400.00">0</tspan>
		<tspan x="135.00" y="318.54">50K</tspan>
		<tspan x="135.00" y="237.08">100K</tspan>
		<tspan x="135.00" y="155.62">150K</tspan>
	</text>
	<g class="poloto_imgs poloto_ticks poloto_y" stroke="black">
		<line x1="150.00" x2="144.00" y1="400.00" y2="400.00"/>
		<line x1="150.00" x2="144.00" y1="318.54" y2="318.54"/>
		<line x1="150.00" x2="144.00" y1="237.08" y2="237.08"/>
		<line x1="150.00" x2="144.00" y1="155.62" y2="155.62"/>
	</g>
	<g class="poloto_text poloto_ticks poloto_x">
		<text x="228.99" y="430.00" text-anchor="end" transform="rotate(-90 228.99 430.00)">2026-04-24 12:06</text>
		<text x="350.59" y="430.00" text-anchor="end" transform="rotate(-90 350.59 430.00)">2026-04-30 07:00</text>
		<text x="472.18" y="430.00" text-anchor="end" transform="rotate(-90 472.18 430.00)">2026-05-06 01:53</text>
		<text x="593.78" y="430.00" text-anchor="end" transform="rotate(-90 593.78 430.00)">2026-05-11 20:46</text>
	</g>
	<g class="poloto_imgs poloto_ticks poloto_x" stroke="black">
		<line x1="228.99" x2="228.99" y1="400.00" y2="405.00"/>
		<line x1="350.59" x2="350.59" y1="400.00" y2="405.00"/>
		<line x1="472.18" x2="472.18" y1="400.00" y2="405.00"/>
		<line x1="593.78" x2="593.78" y1="400.00" y2="405.00"/>
	</g>
	<path class="poloto_imgs poloto_ticks poloto_x" stroke="black" style="stroke-dasharray:12.159414791684906;stroke-dashoffset:-78.9931518175872;" d=" M 150.00 400.00 L 650.00 400.00"/>
	<path class="poloto_imgs poloto_ticks poloto_y" stroke="black" style="stroke-dasharray:8.145931650202835;stroke-dashoffset:-0;" d=" M 150.00 400.00 L 150.00 100.00"/>
</svg>

