<svg class="poloto" width="800" height="680" viewBox="0 0 800 680" xmlns="http://www.w3.org/2000/svg">
	<style>
.poloto{
  stroke-linecap:round;
  stroke-linejoin:round;
  font-family:Roboto,sans-serif;
  font-size:16px;
}
.poloto_background{fill:AliceBlue;}
.poloto_scatter{stroke-width:7}
.poloto_line{stroke-width:2}
.poloto_text{fill: black;}
.poloto_name{font-size:24px;dominant-baseline:auto;text-anchor:middle;}
.poloto_where{dominant-baseline:middle;text-anchor:start}
.poloto_text.poloto_legend{font-size:20px;dominant-baseline:middle;text-anchor:start;}
.poloto_text.poloto_ticks.poloto_y{dominant-baseline:middle;text-anchor:end}
.poloto_text.poloto_ticks.poloto_x{dominant-baseline:auto;text-anchor:middle}
.poloto_imgs.poloto_ticks{stroke: black;stroke-width:3;fill:none;stroke-dasharray:none}
.poloto_grid{stroke:gray;stroke-width:0.5}

.poloto0.poloto_stroke{stroke:blue;}
.poloto1.poloto_stroke{stroke:red;}
.poloto2.poloto_stroke{stroke:green;}
.poloto3.poloto_stroke{stroke:gold;}
.poloto4.poloto_stroke{stroke:aqua;}
.poloto5.poloto_stroke{stroke:lime;}
.poloto6.poloto_stroke{stroke:orange;}
.poloto7.poloto_stroke{stroke:chocolate;}
.poloto0.poloto_fill{fill:blue;}
.poloto1.poloto_fill{fill:red;}
.poloto2.poloto_fill{fill:green;}
.poloto3.poloto_fill{fill:gold;}
.poloto4.poloto_fill{fill:aqua;}
.poloto5.poloto_fill{fill:lime;}
.poloto6.poloto_fill{fill:orange;}
.poloto7.poloto_fill{fill:chocolate;}
	</style>
	<circle r="1e5" class="poloto_background" fill="white"/>
	<g id="poloto_plot0" class="poloto_plot poloto_imgs poloto_line poloto0 poloto_stroke" fill="none" stroke="black">
		<path d=" M 150.00 365.17 L 150.03 365.14 L 150.05 365.12 L 150.06 365.12 L 150.09 365.12 L 150.13 361.34 L 150.27 360.88 L 150.59 360.86 L 151.06 360.55 L 151.30 358.63 L 151.78 358.51 L 151.87 358.41 L 151.93 358.37 L 152.49 357.43 L 153.54 356.67 L 153.88 353.70 L 153.96 353.71 L 154.60 353.59 L 155.33 353.57 L 155.34 353.57 L 155.34 353.57 L 165.24 353.57 L 165.31 353.57 L 165.44 353.54 L 165.50 353.51 L 165.87 353.34 L 166.04 353.29 L 166.46 353.02 L 166.52 352.90 L 166.64 352.63 L 166.77 352.59 L 166.80 352.59 L 166.91 352.52 L 167.02 352.52 L 167.12 352.52 L 167.40 352.08 L 167.64 351.81 L 167.69 351.81 L 167.80 351.65 L 168.59 352.33 L 168.61 352.32 L 168.71 352.21 L 169.16 351.71 L 169.52 351.10 L 169.92 350.83 L 170.01 350.78 L 170.02 350.79 L 170.10 350.55 L 170.25 350.55 L 170.45 350.47 L 170.84 350.24 L 170.86 349.88 L 170.93 349.88 L 171.02 349.70 L 171.25 349.70 L 171.27 349.70 L 171.50 349.19 L 171.59 349.17 L 171.68 349.13 L 171.77 348.92 L 172.97 348.65 L 173.26 348.59 L 173.94 348.23 L 174.08 348.23 L 174.18 348.22 L 174.24 347.96 L 174.70 346.46 L 174.91 346.43 L 175.15 345.93 L 175.26 345.88 L 175.54 345.46 L 175.67 345.31 L 175.83 345.05 L 175.98 344.81 L 176.52 341.35 L 176.53 341.27 L 176.56 341.06 L 176.74 339.40 L 185.92 339.28 L 186.87 337.38 L 186.91 337.34 L 188.03 337.04 L 188.13 337.03 L 188.23 336.66 L 188.50 336.47 L 188.63 336.15 L 188.67 335.86 L 188.82 335.37 L 189.15 335.36 L 189.16 335.02 L 189.28 334.65 L 189.41 334.65 L 189.55 334.23 L 189.73 333.93 L 189.80 333.78 L 189.82 333.78 L 189.98 333.45 L 190.00 333.44 L 190.18 333.12 L 190.21 333.11 L 190.47 331.55 L 190.51 331.55 L 190.61 331.29 L 190.72 331.28 L 190.87 331.28 L 190.94 331.24 L 191.45 330.95 L 191.46 330.96 L 191.56 330.26 L 191.79 330.25 L 192.00 329.21 L 192.06 329.11 L 192.16 329.11 L 192.21 329.07 L 192.32 328.26 L 192.90 321.48 L 192.96 321.15 L 193.16 321.12 L 193.22 321.04 L 193.26 321.01 L 193.36 320.84 L 193.45 320.06 L 193.65 319.91 L 193.79 319.89 L 193.91 319.55 L 193.97 319.54 L 194.49 319.29 L 194.77 319.10 L 194.86 318.80 L 195.10 318.78 L 195.12 318.78 L 195.15 318.75 L 195.30 317.12 L 195.42 317.03 L 195.85 315.38 L 195.91 314.90 L 196.00 314.89 L 196.11 314.71 L 196.12 314.59 L 196.17 314.51 L 196.21 314.47 L 196.27 314.46 L 196.33 314.37 L 196.50 313.03 L 196.62 312.83 L 196.74 312.44 L 196.91 312.41 L 197.09 312.28 L 197.28 311.33 L 197.41 310.01 L 197.68 309.94 L 197.68 309.45 L 197.84 309.28 L 210.66 309.29 L 210.90 309.27 L 211.51 308.57 L 211.63 308.56 L 211.73 308.56 L 211.75 308.38 L 211.97 308.17 L 212.12 308.13 L 212.21 308.00 L 212.30 307.91 L 212.35 307.86 L 212.58 307.80 L 213.05 307.71 L 213.16 307.35 L 213.25 307.26 L 213.36 307.25 L 213.95 307.07 L 214.04 306.97 L 214.08 306.97 L 214.11 306.83 L 214.25 306.77 L 214.35 306.64 L 214.78 305.75 L 215.40 305.62 L 215.62 305.56 L 216.31 305.33 L 216.63 301.07 L 216.75 300.98 L 216.89 300.56 L 217.09 300.00 L 217.40 299.84 L 217.83 299.83 L 218.42 299.81 L 218.50 299.63 L 218.93 299.43 L 219.20 299.12 L 219.29 299.00 L 219.45 298.95 L 219.58 298.57 L 221.10 298.15 L 222.54 298.15 L 235.45 298.11 L 235.54 297.93 L 235.61 297.81 L 236.01 297.62 L 237.21 296.15 L 237.26 296.06 L 237.43 295.68 L 238.03 295.58 L 238.31 294.59 L 238.73 294.58 L 238.83 294.56 L 238.93 293.88 L 239.67 290.00 L 239.77 289.99 L 239.92 289.96 L 240.09 289.91 L 240.17 289.49 L 240.58 288.03 L 240.73 287.76 L 240.80 287.74 L 240.90 287.06 L 241.08 286.11 L 241.16 285.10 L 241.35 284.65 L 241.91 279.61 L 241.96 279.10 L 242.01 279.10 L 242.10 279.01 L 242.24 278.88 L 242.29 278.83 L 242.35 278.78 L 242.62 277.57 L 242.68 276.72 L 243.01 276.54 L 243.20 275.28 L 243.32 274.48 L 244.32 262.72 L 244.44 262.69 L 282.36 262.12 L 282.40 262.12 L 296.90 261.96 L 297.69 261.64 L 297.85 261.64 L 298.06 261.55 L 298.13 261.40 L 298.22 261.36 L 304.50 261.28 L 305.33 259.04 L 305.64 258.84 L 305.80 258.02 L 309.72 257.86 L 309.74 257.63 L 309.99 257.61 L 311.16 256.20 L 311.23 255.94 L 311.37 255.85 L 311.78 255.75 L 311.84 255.72 L 312.00 255.29 L 312.18 255.18 L 312.21 254.86 L 324.39 254.43 L 324.48 253.23 L 324.96 252.96 L 324.97 250.95 L 325.06 250.65 L 325.16 250.15 L 325.29 248.76 L 325.50 248.02 L 325.67 247.16 L 325.83 247.15 L 325.89 246.49 L 326.14 246.43 L 326.98 243.19 L 327.32 242.84 L 327.38 242.64 L 327.45 242.63 L 327.49 242.40 L 327.61 241.61 L 327.95 241.22 L 328.00 241.18 L 328.21 238.32 L 328.29 238.31 L 328.33 238.00 L 328.40 237.77 L 328.46 237.76 L 328.50 237.33 L 328.77 235.79 L 328.89 235.35 L 329.03 235.29 L 329.14 231.16 L 329.18 230.82 L 329.45 228.46 L 329.52 228.28 L 329.57 228.28 L 329.64 228.27 L 329.68 227.94 L 329.72 227.95 L 329.74 227.94 L 329.87 223.77 L 329.92 223.41 L 330.05 223.38 L 330.14 223.31 L 330.42 223.19 L 330.75 223.04 L 330.77 223.04 L 330.86 222.99 L 331.17 222.91 L 331.32 222.91 L 331.46 222.91 L 331.62 221.09 L 331.73 220.65 L 332.16 220.64 L 332.20 220.36 L 332.25 220.35 L 332.29 220.04 L 332.57 217.41 L 332.62 217.35 L 332.82 217.33 L 351.56 217.26 L 352.63 217.12 L 352.66 217.12 L 352.88 217.12 L 352.89 217.12 L 353.03 216.60 L 353.13 216.58 L 353.22 216.32 L 353.35 216.25 L 353.39 216.22 L 353.44 216.20 L 353.64 215.90 L 354.05 215.64 L 354.30 214.80 L 354.59 213.99 L 354.60 213.95 L 354.65 213.20 L 354.69 213.17 L 355.25 212.72 L 355.26 212.67 L 355.34 212.07 L 355.58 212.01 L 355.74 211.95 L 355.77 210.89 L 355.78 210.83 L 355.85 211.85 L 355.89 211.22 L 355.91 211.20 L 356.05 209.77 L 356.06 209.73 L 356.35 209.61 L 357.15 209.60 L 357.34 209.55 L 357.40 209.53 L 357.44 209.35 L 357.49 209.35 L 357.60 208.64 L 370.41 207.28 L 370.43 207.10 L 370.54 206.96 L 370.57 206.70 L 370.64 194.80 L 370.79 189.93 L 370.80 189.90 L 371.04 189.80 L 371.09 189.80 L 371.13 189.24 L 371.34 189.19 L 371.89 188.04 L 371.91 188.01 L 372.05 187.66 L 372.10 187.67 L 372.13 187.09 L 372.60 186.42 L 372.61 186.39 L 373.31 186.13 L 373.39 185.52 L 373.64 185.53 L 373.93 183.99 L 374.01 183.39 L 374.06 182.90 L 374.19 182.31 L 374.55 182.10 L 374.62 181.95 L 374.77 181.82 L 374.95 181.82 L 375.49 181.82 L 375.55 181.82 L 375.67 181.79 L 375.68 181.79 L 375.86 181.80 L 376.26 181.77 L 376.68 181.55 L 376.75 181.55 L 376.84 181.46 L 376.96 181.29 L 377.28 181.29 L 377.82 181.08 L 378.00 180.61 L 378.29 176.50 L 379.47 179.97 L 379.73 179.96 L 379.92 179.94 L 380.21 179.93 L 380.30 179.87 L 380.60 179.67 L 381.06 179.39 L 381.12 179.20 L 381.21 179.12 L 381.27 179.14 L 381.31 179.08 L 381.67 178.83 L 390.16 178.82 L 390.24 178.83 L 390.77 178.81 L 390.82 178.79 L 390.94 178.27 L 391.04 177.98 L 391.05 177.97 L 391.34 177.93 L 391.42 177.90 L 393.16 177.13 L 393.36 177.07 L 393.51 177.05 L 393.54 177.05 L 394.08 176.86 L 394.26 176.96 L 394.30 176.95 L 394.59 176.90 L 394.90 175.28 L 394.94 175.27 L 395.21 175.08 L 395.32 175.08 L 395.42 175.08 L 395.64 174.90 L 396.11 174.24 L 396.20 174.22 L 396.28 174.04 L 396.48 173.27 L 396.94 172.46 L 397.36 168.69 L 397.44 168.23 L 397.87 168.05 L 397.94 167.95 L 398.01 167.77 L 398.05 167.16 L 398.20 166.08 L 398.24 166.12 L 398.31 166.10 L 398.55 166.09 L 398.92 165.69 L 399.14 165.62 L 399.41 165.60 L 399.53 165.59 L 399.79 165.58 L 400.22 165.58 L 400.64 165.56 L 400.97 165.56 L 401.04 165.55 L 401.13 165.54 L 401.13 165.40 L 401.38 165.33 L 401.45 165.31 L 401.55 165.15 L 402.25 165.13 L 402.26 164.80 L 402.45 164.78 L 403.27 164.79 L 403.81 164.59 L 404.20 164.35 L 404.21 164.22 L 404.24 164.22 L 416.14 163.99 L 416.17 163.99 L 416.31 163.97 L 416.38 163.78 L 416.42 163.76 L 416.43 163.75 L 416.93 163.70 L 417.05 163.02 L 417.20 162.86 L 417.45 161.52 L 417.61 161.51 L 417.82 160.93 L 417.93 161.00 L 417.99 161.00 L 418.05 160.35 L 418.19 159.90 L 418.22 159.42 L 418.27 159.36 L 418.39 159.32 L 418.48 159.09 L 418.58 161.67 L 418.73 161.62 L 419.02 160.59 L 419.15 160.34 L 419.26 160.13 L 419.99 158.65 L 420.62 157.94 L 421.37 156.58 L 421.56 156.51 L 421.77 156.51 L 422.01 156.45 L 426.38 156.06 L 426.74 156.03 L 468.17 154.99 L 598.63 154.75 L 599.06 154.33 L 599.36 154.28 L 599.66 154.28 L 600.12 153.48 L 600.27 153.09 L 600.39 152.37 L 600.60 150.30 L 600.90 150.73 L 601.14 150.28 L 601.20 150.27 L 601.40 150.14 L 601.44 150.14 L 601.66 149.38 L 601.85 148.16 L 602.44 146.87 L 602.46 146.77 L 602.63 145.23 L 603.19 141.42 L 603.20 141.29 L 603.31 141.21 L 603.45 139.85 L 604.06 138.01 L 604.07 137.84 L 604.20 137.76 L 604.34 136.86 L 604.57 136.14 L 604.58 136.01 L 604.68 134.61 L 604.70 134.58 L 604.75 134.19 L 605.01 131.71 L 605.04 131.57 L 605.13 131.42 L 605.41 131.09 L 605.46 131.08 L 605.68 130.61 L 606.05 130.67 L 606.10 130.60 L 606.15 130.57 L 606.21 130.53 L 606.39 129.08 L 606.59 127.89 L 606.61 127.79 L 606.72 126.30 L 606.83 124.85 L 606.86 124.67 L 606.97 122.97 L 607.03 121.64 L 607.25 120.74 L 607.28 120.67 L 607.39 120.39 L 607.55 120.37 L 608.49 120.33 L 608.96 120.29 L 619.15 120.35 L 619.25 120.09 L 619.35 119.86 L 619.52 118.87 L 619.90 118.61 L 619.94 118.51 L 620.01 117.19 L 620.25 115.91 L 620.28 115.80 L 622.50 115.71 L 622.64 114.99 L 623.76 114.78 L 623.88 114.73 L 624.01 113.24 L 625.36 111.84 L 625.94 111.31 L 626.08 110.22 L 626.57 108.35 L 626.87 107.81 L 627.37 106.71 L 628.27 106.15 L 641.91 106.14 L 642.72 106.01 L 642.76 106.04 L 643.90 105.82 L 643.96 105.71 L 644.36 105.63 L 644.82 104.41 L 644.83 104.41 L 644.88 104.36 L 645.48 102.97 L 646.88 102.17 L 646.98 102.10 L 647.12 102.09 L 647.33 101.72 L 647.39 101.62 L 647.47 101.56 L 648.12 101.50 L 648.65 101.50 L 648.93 101.50 L 648.97 101.45 L 649.55 100.23 L 650.00 100.00"/>
	</g>
	<g id="poloto_plot1" class="poloto_plot poloto_imgs poloto_line poloto1 poloto_stroke" fill="none" stroke="black">
		<path d=" M 150.00 379.30 L 150.03 379.29 L 150.05 379.27 L 150.06 379.27 L 150.09 379.27 L 150.13 378.62 L 150.27 378.59 L 150.59 378.58 L 151.06 378.33 L 151.30 378.22 L 151.78 378.25 L 151.87 378.20 L 151.93 378.20 L 152.49 378.15 L 153.54 378.03 L 153.88 375.47 L 153.96 375.47 L 154.60 375.41 L 155.33 375.40 L 155.34 375.40 L 155.34 375.40 L 165.24 375.40 L 165.31 375.40 L 165.44 375.40 L 165.50 375.36 L 165.87 375.35 L 166.04 375.35 L 166.46 375.35 L 166.52 375.35 L 166.64 375.33 L 166.77 375.33 L 166.80 375.33 L 166.91 375.30 L 167.02 375.30 L 167.12 375.30 L 167.40 375.16 L 167.64 375.16 L 167.69 375.16 L 167.80 375.16 L 168.59 376.12 L 168.61 376.12 L 168.71 376.11 L 169.16 375.96 L 169.52 375.80 L 169.92 375.73 L 170.01 375.68 L 170.02 375.68 L 170.10 375.68 L 170.25 375.68 L 170.45 375.62 L 170.84 375.56 L 170.86 375.56 L 170.93 375.56 L 171.02 375.54 L 171.25 375.54 L 171.27 375.54 L 171.50 375.53 L 171.59 375.53 L 171.68 375.53 L 171.77 375.53 L 172.97 375.41 L 173.26 375.41 L 173.94 375.36 L 174.08 375.36 L 174.18 375.36 L 174.24 375.36 L 174.70 375.28 L 174.91 375.28 L 175.15 375.18 L 175.26 375.17 L 175.54 374.97 L 175.67 374.89 L 175.83 374.89 L 175.98 374.89 L 176.52 371.90 L 176.53 371.85 L 176.56 371.85 L 176.74 371.56 L 185.92 371.56 L 186.87 370.27 L 186.91 370.27 L 188.03 370.27 L 188.13 370.27 L 188.23 370.13 L 188.50 370.11 L 188.63 370.11 L 188.67 370.11 L 188.82 370.11 L 189.15 370.11 L 189.16 369.83 L 189.28 369.82 L 189.41 369.82 L 189.55 369.79 L 189.73 369.78 L 189.80 369.78 L 189.82 369.78 L 189.98 369.78 L 190.00 369.78 L 190.18 369.78 L 190.21 369.78 L 190.47 368.51 L 190.51 368.51 L 190.61 368.36 L 190.72 368.36 L 190.87 368.36 L 190.94 368.35 L 191.45 368.34 L 191.46 368.34 L 191.56 368.26 L 191.79 368.26 L 192.00 367.54 L 192.06 367.45 L 192.16 367.45 L 192.21 367.45 L 192.32 367.43 L 192.90 362.08 L 192.96 362.13 L 193.16 362.13 L 193.22 362.13 L 193.26 362.12 L 193.36 362.12 L 193.45 362.05 L 193.65 362.05 L 193.79 362.05 L 193.91 362.04 L 193.97 362.04 L 194.49 362.03 L 194.77 362.02 L 194.86 361.89 L 195.10 361.89 L 195.12 361.89 L 195.15 361.89 L 195.30 361.53 L 195.42 361.44 L 195.85 360.17 L 195.91 360.17 L 196.00 360.17 L 196.11 360.19 L 196.12 360.19 L 196.17 360.19 L 196.21 360.19 L 196.27 360.19 L 196.33 360.19 L 196.50 360.16 L 196.62 360.16 L 196.74 360.15 L 196.91 360.15 L 197.09 360.14 L 197.28 359.66 L 197.41 359.50 L 197.68 359.50 L 197.68 359.50 L 197.84 359.50 L 210.66 359.50 L 210.90 359.49 L 211.51 359.41 L 211.63 359.40 L 211.73 359.40 L 211.75 359.40 L 211.97 359.40 L 212.12 359.40 L 212.21 359.40 L 212.30 359.40 L 212.35 359.39 L 212.58 359.39 L 213.05 359.42 L 213.16 359.42 L 213.25 359.42 L 213.36 359.42 L 213.95 359.31 L 214.04 359.27 L 214.08 359.27 L 214.11 359.20 L 214.25 359.19 L 214.35 359.19 L 214.78 358.71 L 215.40 358.71 L 215.62 358.71 L 216.31 358.71 L 216.63 355.43 L 216.75 355.43 L 216.89 355.43 L 217.09 355.43 L 217.40 355.43 L 217.83 355.43 L 218.42 355.43 L 218.50 355.43 L 218.93 355.35 L 219.20 355.21 L 219.29 355.21 L 219.45 355.21 L 219.58 355.19 L 221.10 354.99 L 222.54 354.99 L 235.45 354.98 L 235.54 354.98 L 235.61 354.98 L 236.01 354.98 L 237.21 353.95 L 237.26 353.92 L 237.43 353.81 L 238.03 353.81 L 238.31 353.56 L 238.73 353.56 L 238.83 353.56 L 238.93 353.56 L 239.67 350.69 L 239.77 350.69 L 239.92 350.69 L 240.09 350.69 L 240.17 350.51 L 240.58 350.16 L 240.73 350.16 L 240.80 350.16 L 240.90 349.63 L 241.08 349.10 L 241.16 349.10 L 241.35 349.09 L 241.91 344.81 L 241.96 344.81 L 242.01 344.81 L 242.10 344.81 L 242.24 344.81 L 242.29 344.81 L 242.35 344.81 L 242.62 344.81 L 242.68 344.72 L 243.01 344.70 L 243.20 344.64 L 243.32 344.13 L 244.32 335.61 L 244.44 335.61 L 282.36 335.61 L 282.40 335.61 L 296.90 335.61 L 297.69 335.48 L 297.85 335.48 L 298.06 335.48 L 298.13 335.48 L 298.22 335.48 L 304.50 335.42 L 305.33 335.34 L 305.64 335.34 L 305.80 335.31 L 309.72 335.24 L 309.74 335.12 L 309.99 335.12 L 311.16 333.97 L 311.23 333.97 L 311.37 333.97 L 311.78 333.97 L 311.84 333.97 L 312.00 333.97 L 312.18 333.97 L 312.21 333.97 L 324.39 333.95 L 324.48 333.75 L 324.96 333.75 L 324.97 332.36 L 325.06 332.36 L 325.16 332.36 L 325.29 332.23 L 325.50 332.23 L 325.67 332.17 L 325.83 332.17 L 325.89 332.17 L 326.14 332.15 L 326.98 329.79 L 327.32 329.78 L 327.38 329.77 L 327.45 329.77 L 327.49 329.77 L 327.61 329.73 L 327.95 329.44 L 328.00 329.40 L 328.21 327.28 L 328.29 327.27 L 328.33 327.27 L 328.40 327.24 L 328.46 327.24 L 328.50 327.23 L 328.77 326.08 L 328.89 326.06 L 329.03 326.04 L 329.14 322.45 L 329.18 322.44 L 329.45 320.42 L 329.52 320.42 L 329.57 320.42 L 329.64 320.42 L 329.68 320.42 L 329.72 320.42 L 329.74 320.42 L 329.87 316.68 L 329.92 316.67 L 330.05 316.66 L 330.14 316.66 L 330.42 316.58 L 330.75 316.48 L 330.77 316.48 L 330.86 316.46 L 331.17 316.40 L 331.32 316.40 L 331.46 316.40 L 331.62 314.79 L 331.73 314.79 L 332.16 314.78 L 332.20 314.77 L 332.25 314.77 L 332.29 314.77 L 332.57 312.47 L 332.62 312.47 L 332.82 312.46 L 351.56 312.46 L 352.63 312.44 L 352.66 312.44 L 352.88 312.44 L 352.89 312.44 L 353.03 312.44 L 353.13 312.44 L 353.22 312.33 L 353.35 312.33 L 353.39 312.33 L 353.44 312.33 L 353.64 312.12 L 354.05 311.98 L 354.30 311.85 L 354.59 311.20 L 354.60 311.20 L 354.65 311.03 L 354.69 311.02 L 355.25 310.62 L 355.26 310.62 L 355.34 310.56 L 355.58 310.56 L 355.74 310.52 L 355.77 309.57 L 355.78 309.57 L 355.85 310.51 L 355.89 310.46 L 355.91 310.44 L 356.05 309.16 L 356.06 309.16 L 356.35 309.11 L 357.15 309.11 L 357.34 309.11 L 357.40 309.11 L 357.44 309.11 L 357.49 309.11 L 357.60 309.03 L 370.41 307.96 L 370.43 307.96 L 370.54 307.95 L 370.57 307.72 L 370.64 296.36 L 370.79 292.13 L 370.80 292.13 L 371.04 292.05 L 371.09 292.05 L 371.13 292.03 L 371.34 292.03 L 371.89 291.00 L 371.91 291.00 L 372.05 290.95 L 372.10 290.95 L 372.13 290.86 L 372.60 290.24 L 372.61 290.24 L 373.31 290.11 L 373.39 290.07 L 373.64 290.08 L 373.93 288.69 L 374.01 288.55 L 374.06 288.42 L 374.19 287.89 L 374.55 287.76 L 374.62 287.65 L 374.77 287.65 L 374.95 287.65 L 375.49 287.65 L 375.55 287.65 L 375.67 287.65 L 375.68 287.65 L 375.86 287.67 L 376.26 287.67 L 376.68 287.52 L 376.75 287.52 L 376.84 287.51 L 376.96 287.51 L 377.28 287.51 L 377.82 287.51 L 378.00 287.38 L 378.29 283.71 L 379.47 287.17 L 379.73 287.16 L 379.92 287.15 L 380.21 287.15 L 380.30 287.11 L 380.60 287.08 L 381.06 286.87 L 381.12 286.87 L 381.21 286.87 L 381.27 286.87 L 381.31 286.87 L 381.67 286.67 L 390.16 286.67 L 390.24 286.68 L 390.77 286.66 L 390.82 286.66 L 390.94 286.63 L 391.04 286.37 L 391.05 286.37 L 391.34 286.34 L 391.42 286.34 L 393.16 286.13 L 393.36 286.13 L 393.51 286.13 L 393.54 286.13 L 394.08 285.98 L 394.26 285.98 L 394.30 285.98 L 394.59 285.97 L 394.90 285.11 L 394.94 285.11 L 395.21 284.96 L 395.32 284.96 L 395.42 284.96 L 395.64 284.96 L 396.11 284.95 L 396.20 284.93 L 396.28 284.84 L 396.48 284.70 L 396.94 284.56 L 397.36 281.10 L 397.44 280.99 L 397.87 280.82 L 397.94 280.78 L 398.01 280.66 L 398.05 280.42 L 398.20 279.38 L 398.24 279.42 L 398.31 279.40 L 398.55 279.40 L 398.92 279.26 L 399.14 279.20 L 399.41 279.18 L 399.53 279.17 L 399.79 279.16 L 400.22 279.16 L 400.64 279.15 L 400.97 279.15 L 401.04 279.14 L 401.13 279.14 L 401.13 279.13 L 401.38 279.13 L 401.45 279.12 L 401.55 278.99 L 402.25 278.97 L 402.26 278.97 L 402.45 278.96 L 403.27 278.96 L 403.81 278.79 L 404.20 278.64 L 404.21 278.64 L 404.24 278.64 L 416.14 278.64 L 416.17 278.64 L 416.31 278.64 L 416.38 278.64 L 416.42 278.62 L 416.43 278.62 L 416.93 278.62 L 417.05 278.60 L 417.20 278.58 L 417.45 278.56 L 417.61 278.56 L 417.82 278.47 L 417.93 278.47 L 417.99 278.47 L 418.05 278.47 L 418.19 278.16 L 418.22 278.16 L 418.27 278.16 L 418.39 278.16 L 418.48 278.16 L 418.58 278.23 L 418.73 278.23 L 419.02 278.22 L 419.15 278.22 L 419.26 278.22 L 419.99 277.21 L 420.62 276.93 L 421.37 276.20 L 421.56 276.20 L 421.77 276.20 L 422.01 276.20 L 426.38 276.11 L 426.74 276.11 L 468.17 275.98 L 598.63 275.79 L 599.06 275.73 L 599.36 275.73 L 599.66 275.73 L 600.12 275.26 L 600.27 275.26 L 600.39 275.26 L 600.60 273.55 L 600.90 273.88 L 601.14 273.85 L 601.20 273.85 L 601.40 273.84 L 601.44 273.84 L 601.66 273.83 L 601.85 273.76 L 602.44 272.68 L 602.46 272.68 L 602.63 272.58 L 603.19 269.09 L 603.20 269.09 L 603.31 269.09 L 603.45 269.04 L 604.06 267.41 L 604.07 267.41 L 604.20 267.41 L 604.34 267.37 L 604.57 266.78 L 604.58 266.78 L 604.68 266.77 L 604.70 266.77 L 604.75 266.44 L 605.01 264.14 L 605.04 264.14 L 605.13 264.14 L 605.41 263.94 L 605.46 263.94 L 605.68 263.56 L 606.05 263.56 L 606.10 263.56 L 606.15 263.56 L 606.21 263.56 L 606.39 263.55 L 606.59 262.51 L 606.61 262.51 L 606.72 262.51 L 606.83 261.72 L 606.86 261.72 L 606.97 260.88 L 607.03 260.83 L 607.25 260.01 L 607.28 260.01 L 607.39 260.01 L 607.55 259.99 L 608.49 259.99 L 608.96 259.98 L 619.15 259.98 L 619.25 259.98 L 619.35 259.98 L 619.52 259.98 L 619.90 259.77 L 619.94 259.77 L 620.01 259.70 L 620.25 258.54 L 620.28 258.54 L 622.50 258.57 L 622.64 258.34 L 623.76 258.34 L 623.88 258.33 L 624.01 258.25 L 625.36 257.30 L 625.94 257.12 L 626.08 257.06 L 626.57 255.25 L 626.87 255.25 L 627.37 255.11 L 628.27 255.11 L 641.91 255.10 L 642.72 254.99 L 642.76 255.01 L 643.90 255.01 L 643.96 255.01 L 644.36 255.01 L 644.82 254.98 L 644.83 254.98 L 644.88 254.98 L 645.48 253.92 L 646.88 253.90 L 646.98 253.89 L 647.12 253.89 L 647.33 253.85 L 647.39 253.82 L 647.47 253.82 L 648.12 253.77 L 648.65 253.77 L 648.93 253.77 L 648.97 253.77 L 649.55 253.74 L 650.00 253.62"/>
	</g>
	<g id="poloto_plot2" class="poloto_plot poloto_imgs poloto_line poloto2 poloto_stroke" fill="none" stroke="black">
		<path d=" M 150.00 390.71 L 150.03 390.71 L 150.05 390.71 L 150.06 390.71 L 150.09 390.71 L 150.13 388.33 L 150.27 388.00 L 150.59 388.00 L 151.06 387.98 L 151.30 386.56 L 151.78 386.43 L 151.87 386.39 L 151.93 386.36 L 152.49 385.72 L 153.54 385.22 L 153.88 385.13 L 153.96 385.13 L 154.60 385.09 L 155.33 385.09 L 155.34 385.09 L 155.34 385.09 L 165.24 385.09 L 165.31 385.09 L 165.44 385.07 L 165.50 385.07 L 165.87 384.93 L 166.04 384.88 L 166.46 384.65 L 166.52 384.55 L 166.64 384.34 L 166.77 384.31 L 166.80 384.31 L 166.91 384.27 L 167.02 384.27 L 167.12 384.27 L 167.40 384.04 L 167.64 383.81 L 167.69 383.82 L 167.80 383.69 L 168.59 383.40 L 168.61 383.40 L 168.71 383.31 L 169.16 383.00 L 169.52 382.61 L 169.92 382.45 L 170.01 382.45 L 170.02 382.45 L 170.10 382.24 L 170.25 382.24 L 170.45 382.21 L 170.84 382.05 L 170.86 381.77 L 170.93 381.77 L 171.02 381.64 L 171.25 381.64 L 171.27 381.64 L 171.50 381.22 L 171.59 381.19 L 171.68 381.16 L 171.77 380.96 L 172.97 380.85 L 173.26 380.80 L 173.94 380.52 L 174.08 380.52 L 174.18 380.50 L 174.24 380.29 L 174.70 379.12 L 174.91 379.11 L 175.15 378.76 L 175.26 378.72 L 175.54 378.56 L 175.67 378.51 L 175.83 378.26 L 175.98 378.06 L 176.52 378.06 L 176.53 378.03 L 176.56 377.87 L 176.74 376.74 L 185.92 376.63 L 186.87 376.29 L 186.91 376.24 L 188.03 375.96 L 188.13 375.96 L 188.23 375.75 L 188.50 375.61 L 188.63 375.35 L 188.67 375.14 L 188.82 374.73 L 189.15 374.72 L 189.16 374.72 L 189.28 374.42 L 189.41 374.42 L 189.55 374.11 L 189.73 373.87 L 189.80 373.74 L 189.82 373.74 L 189.98 373.46 L 190.00 373.45 L 190.18 373.19 L 190.21 373.18 L 190.47 373.09 L 190.51 373.09 L 190.61 373.00 L 190.72 372.98 L 190.87 372.98 L 190.94 372.96 L 191.45 372.71 L 191.46 372.72 L 191.56 372.21 L 191.79 372.20 L 192.00 372.04 L 192.06 372.04 L 192.16 372.03 L 192.21 371.99 L 192.32 371.30 L 192.90 370.71 L 192.96 370.39 L 193.16 370.37 L 193.22 370.29 L 193.26 370.27 L 193.36 370.13 L 193.45 369.58 L 193.65 369.49 L 193.79 369.48 L 193.91 369.20 L 193.97 369.19 L 194.49 368.99 L 194.77 368.84 L 194.86 368.72 L 195.10 368.71 L 195.12 368.71 L 195.15 368.68 L 195.30 367.69 L 195.42 367.68 L 195.85 367.53 L 195.91 367.14 L 196.00 367.13 L 196.11 366.97 L 196.12 366.87 L 196.17 366.81 L 196.21 366.77 L 196.27 366.76 L 196.33 366.69 L 196.50 365.57 L 196.62 365.45 L 196.74 365.12 L 196.91 365.10 L 197.09 364.99 L 197.28 364.64 L 197.41 363.67 L 197.68 363.60 L 197.68 363.18 L 197.84 363.08 L 210.66 363.08 L 210.90 363.08 L 211.51 362.62 L 211.63 362.62 L 211.73 362.62 L 211.75 362.50 L 211.97 362.31 L 212.12 362.27 L 212.21 362.16 L 212.30 362.07 L 212.35 362.03 L 212.58 361.97 L 213.05 362.06 L 213.16 361.75 L 213.25 361.67 L 213.36 361.66 L 213.95 361.60 L 214.04 361.55 L 214.08 361.55 L 214.11 361.49 L 214.25 361.44 L 214.35 361.33 L 214.78 361.04 L 215.40 360.91 L 215.62 360.86 L 216.31 360.68 L 216.63 360.22 L 216.75 360.15 L 216.89 359.79 L 217.09 359.34 L 217.40 359.22 L 217.83 359.21 L 218.42 359.19 L 218.50 359.02 L 218.93 358.91 L 219.20 358.77 L 219.29 358.65 L 219.45 358.61 L 219.58 358.30 L 221.10 358.15 L 222.54 358.15 L 235.45 358.12 L 235.54 357.95 L 235.61 357.84 L 236.01 357.67 L 237.21 357.37 L 237.26 357.33 L 237.43 357.12 L 238.03 357.03 L 238.31 356.44 L 238.73 356.43 L 238.83 356.41 L 238.93 355.83 L 239.67 355.29 L 239.77 355.28 L 239.92 355.25 L 240.09 355.20 L 240.17 355.01 L 240.58 354.10 L 240.73 353.88 L 240.80 353.86 L 240.90 353.76 L 241.08 353.41 L 241.16 352.51 L 241.35 352.14 L 241.91 351.93 L 241.96 351.47 L 242.01 351.47 L 242.10 351.39 L 242.24 351.27 L 242.29 351.24 L 242.35 351.19 L 242.62 350.14 L 242.68 349.52 L 243.01 349.41 L 243.20 348.36 L 243.32 348.16 L 244.32 346.51 L 244.44 346.48 L 282.36 346.00 L 282.40 346.00 L 296.90 345.87 L 297.69 345.69 L 297.85 345.69 L 298.06 345.60 L 298.13 345.47 L 298.22 345.44 L 304.50 345.43 L 305.33 343.53 L 305.64 343.37 L 305.80 342.72 L 309.72 342.64 L 309.74 342.57 L 309.99 342.56 L 311.16 342.45 L 311.23 342.23 L 311.37 342.15 L 311.78 342.05 L 311.84 342.03 L 312.00 341.66 L 312.18 341.55 L 312.21 341.27 L 324.39 340.91 L 324.48 340.05 L 324.96 339.83 L 324.97 339.50 L 325.06 339.24 L 325.16 338.85 L 325.29 337.80 L 325.50 337.23 L 325.67 336.50 L 325.83 336.49 L 325.89 335.92 L 326.14 335.88 L 326.98 335.35 L 327.32 335.09 L 327.38 334.94 L 327.45 334.94 L 327.49 334.75 L 327.61 334.10 L 327.95 334.04 L 328.00 334.04 L 328.21 333.62 L 328.29 333.62 L 328.33 333.38 L 328.40 333.22 L 328.46 333.22 L 328.50 332.88 L 328.77 332.68 L 328.89 332.35 L 329.03 332.33 L 329.14 332.16 L 329.18 331.90 L 329.45 331.76 L 329.52 331.61 L 329.57 331.61 L 329.64 331.61 L 329.68 331.35 L 329.72 331.36 L 329.74 331.35 L 329.87 331.26 L 329.92 330.97 L 330.05 330.97 L 330.14 330.90 L 330.42 330.88 L 330.75 330.85 L 330.77 330.85 L 330.86 330.83 L 331.17 330.83 L 331.32 330.83 L 331.46 330.83 L 331.62 330.78 L 331.73 330.44 L 332.16 330.43 L 332.20 330.23 L 332.25 330.23 L 332.29 329.99 L 332.57 329.91 L 332.62 329.86 L 332.82 329.86 L 351.56 329.80 L 352.63 329.70 L 352.66 329.70 L 352.88 329.70 L 352.89 329.70 L 353.03 329.29 L 353.13 329.28 L 353.22 329.16 L 353.35 329.10 L 353.39 329.07 L 353.44 329.04 L 353.64 329.01 L 354.05 328.93 L 354.30 328.38 L 354.59 328.35 L 354.60 328.31 L 354.65 327.86 L 354.69 327.85 L 355.25 327.85 L 355.26 327.81 L 355.34 327.38 L 355.58 327.33 L 355.74 327.31 L 355.77 327.30 L 355.78 327.26 L 355.85 327.23 L 355.89 326.79 L 355.91 326.78 L 356.05 326.78 L 356.06 326.75 L 356.35 326.70 L 357.15 326.69 L 357.34 326.65 L 357.40 326.64 L 357.44 326.50 L 357.49 326.50 L 357.60 326.01 L 370.41 325.86 L 370.43 325.72 L 370.54 325.63 L 370.57 325.61 L 370.64 325.19 L 370.79 325.09 L 370.80 325.07 L 371.04 325.06 L 371.09 325.06 L 371.13 324.65 L 371.34 324.60 L 371.89 324.59 L 371.91 324.56 L 372.05 324.34 L 372.10 324.34 L 372.13 323.96 L 372.60 323.96 L 372.61 323.94 L 373.31 323.84 L 373.39 323.39 L 373.64 323.39 L 373.93 323.39 L 374.01 323.05 L 374.06 322.79 L 374.19 322.78 L 374.55 322.72 L 374.62 322.70 L 374.77 322.60 L 374.95 322.60 L 375.49 322.60 L 375.55 322.60 L 375.67 322.57 L 375.68 322.57 L 375.86 322.57 L 376.26 322.54 L 376.68 322.49 L 376.75 322.49 L 376.84 322.45 L 376.96 322.32 L 377.28 322.32 L 377.82 322.17 L 378.00 321.92 L 378.29 321.89 L 379.47 321.61 L 379.73 321.61 L 379.92 321.60 L 380.21 321.60 L 380.30 321.58 L 380.60 321.44 L 381.06 321.42 L 381.12 321.29 L 381.21 321.23 L 381.27 321.25 L 381.31 321.20 L 381.67 321.18 L 390.16 321.17 L 390.24 321.17 L 390.77 321.17 L 390.82 321.16 L 390.94 320.78 L 391.04 320.76 L 391.05 320.76 L 391.34 320.75 L 391.42 320.73 L 393.16 320.17 L 393.36 320.11 L 393.51 320.10 L 393.54 320.09 L 394.08 320.08 L 394.26 320.16 L 394.30 320.16 L 394.59 320.12 L 394.90 319.58 L 394.94 319.57 L 395.21 319.56 L 395.32 319.56 L 395.42 319.56 L 395.64 319.45 L 396.11 318.96 L 396.20 318.96 L 396.28 318.89 L 396.48 318.45 L 396.94 317.97 L 397.36 318.00 L 397.44 317.74 L 397.87 317.74 L 397.94 317.71 L 398.01 317.68 L 398.05 317.42 L 398.20 317.42 L 398.24 317.42 L 398.31 317.42 L 398.55 317.42 L 398.92 317.21 L 399.14 317.19 L 399.41 317.19 L 399.53 317.19 L 399.79 317.19 L 400.22 317.19 L 400.64 317.19 L 400.97 317.19 L 401.04 317.18 L 401.13 317.17 L 401.13 317.08 L 401.38 317.02 L 401.45 317.02 L 401.55 317.01 L 402.25 317.00 L 402.26 316.75 L 402.45 316.75 L 403.27 316.76 L 403.81 316.75 L 404.20 316.70 L 404.21 316.59 L 404.24 316.59 L 416.14 316.43 L 416.17 316.42 L 416.31 316.41 L 416.38 316.25 L 416.42 316.25 L 416.43 316.24 L 416.93 316.20 L 417.05 315.68 L 417.20 315.57 L 417.45 314.57 L 417.61 314.56 L 417.82 314.12 L 417.93 314.18 L 417.99 314.17 L 418.05 313.62 L 418.19 313.53 L 418.22 313.15 L 418.27 313.09 L 418.39 313.05 L 418.48 312.86 L 418.58 315.12 L 418.73 315.09 L 419.02 314.18 L 419.15 313.98 L 419.26 313.78 L 419.99 313.42 L 420.62 313.04 L 421.37 312.51 L 421.56 312.45 L 421.77 312.45 L 422.01 312.40 L 426.38 312.13 L 426.74 312.11 L 468.17 311.40 L 598.63 311.38 L 599.06 311.06 L 599.36 311.01 L 599.66 311.01 L 600.12 310.72 L 600.27 310.39 L 600.39 309.77 L 600.60 309.60 L 600.90 309.66 L 601.14 309.30 L 601.20 309.29 L 601.40 309.18 L 601.44 309.18 L 601.66 308.58 L 601.85 307.65 L 602.44 307.56 L 602.46 307.46 L 602.63 306.27 L 603.19 306.22 L 603.20 306.11 L 603.31 306.04 L 603.45 304.95 L 604.06 304.90 L 604.07 304.74 L 604.20 304.67 L 604.34 303.96 L 604.57 303.93 L 604.58 303.82 L 604.68 302.63 L 604.70 302.60 L 604.75 302.57 L 605.01 302.57 L 605.04 302.45 L 605.13 302.36 L 605.41 302.25 L 605.46 302.24 L 605.68 302.18 L 606.05 302.23 L 606.10 302.17 L 606.15 302.15 L 606.21 302.11 L 606.39 300.88 L 606.59 300.85 L 606.61 300.75 L 606.72 299.49 L 606.83 299.04 L 606.86 298.87 L 606.97 298.26 L 607.03 297.19 L 607.25 297.18 L 607.28 297.12 L 607.39 296.90 L 607.55 296.90 L 608.49 296.86 L 608.96 296.84 L 619.15 296.88 L 619.25 296.64 L 619.35 296.46 L 619.52 295.61 L 619.90 295.60 L 619.94 295.52 L 620.01 294.44 L 620.25 294.43 L 620.28 294.33 L 622.50 294.22 L 622.64 293.84 L 623.76 293.65 L 623.88 293.61 L 624.01 292.42 L 625.36 292.08 L 625.94 291.79 L 626.08 290.89 L 626.57 290.89 L 626.87 290.39 L 627.37 289.62 L 628.27 289.16 L 641.91 289.15 L 642.72 289.14 L 642.76 289.14 L 643.90 288.97 L 643.96 288.87 L 644.36 288.80 L 644.82 287.80 L 644.83 287.80 L 644.88 287.76 L 645.48 287.55 L 646.88 286.88 L 646.98 286.81 L 647.12 286.81 L 647.33 286.53 L 647.39 286.48 L 647.47 286.43 L 648.12 286.43 L 648.65 286.43 L 648.93 286.43 L 648.97 286.38 L 649.55 285.37 L 650.00 285.27"/>
	</g>
	<g class="poloto_legend poloto_imgs poloto_line poloto0 poloto_stroke"><line x1="680" x2="730" y1="81.25" y2="81.25"/></g>
	<g class="poloto_legend poloto_imgs poloto_line poloto1 poloto_stroke"><line x1="680" x2="730" y1="131.25" y2="131.25"/></g>
	<g class="poloto_legend poloto_imgs poloto_line poloto2 poloto_stroke"><line x1="680" x2="730" y1="181.25" y2="181.25"/></g>
	<text class="poloto_legend poloto_text poloto_line poloto0" x="675" y="100">total</text>
	<text class="poloto_legend poloto_text poloto_line poloto1" x="675" y="150">code</text>
	<text class="poloto_legend poloto_text poloto_line poloto2" x="675" y="200">docs</text>
	<text class="poloto_text poloto_name poloto_title" x="400.00" y="37.50">Workspace lines over time</text>
	<text class="poloto_text poloto_name poloto_x" x="400.00" y="640">date (JST)</text>
	<text class="poloto_text poloto_name poloto_y" x="37.50" y="250.00" transform="rotate(-90,37.50,250.00)">lines</text>
	<text class="poloto_text poloto_ticks poloto_y">
		<tspan x="135.00" y="400.00">0</tspan>
		<tspan x="135.00" y="311.71">50K</tspan>
		<tspan x="135.00" y="223.42">100K</tspan>
		<tspan x="135.00" y="135.13">150K</tspan>
	</text>
	<g class="poloto_imgs poloto_ticks poloto_y" stroke="black">
		<line x1="150.00" x2="144.00" y1="400.00" y2="400.00"/>
		<line x1="150.00" x2="144.00" y1="311.71" y2="311.71"/>
		<line x1="150.00" x2="144.00" y1="223.42" y2="223.42"/>
		<line x1="150.00" x2="144.00" y1="135.13" y2="135.13"/>
	</g>
	<g class="poloto_text poloto_ticks poloto_x">
		<text x="235.28" y="430.00" text-anchor="end" transform="rotate(-90 235.28 430.00)">2026-04-24 12:06</text>
		<text x="366.56" y="430.00" text-anchor="end" transform="rotate(-90 366.56 430.00)">2026-04-30 07:00</text>
		<text x="497.83" y="430.00" text-anchor="end" transform="rotate(-90 497.83 430.00)">2026-05-06 01:53</text>
		<text x="629.11" y="430.00" text-anchor="end" transform="rotate(-90 629.11 430.00)">2026-05-11 20:46</text>
	</g>
	<g class="poloto_imgs poloto_ticks poloto_x" stroke="black">
		<line x1="235.28" x2="235.28" y1="400.00" y2="405.00"/>
		<line x1="366.56" x2="366.56" y1="400.00" y2="405.00"/>
		<line x1="497.83" x2="497.83" y1="400.00" y2="405.00"/>
		<line x1="629.11" x2="629.11" y1="400.00" y2="405.00"/>
	</g>
	<path class="poloto_imgs poloto_ticks poloto_x" stroke="black" style="stroke-dasharray:13.127501117150345;stroke-dashoffset:-85.2822859074804;" d=" M 150.00 400.00 L 650.00 400.00"/>
	<path class="poloto_imgs poloto_ticks poloto_y" stroke="black" style="stroke-dasharray:8.82908654270629;stroke-dashoffset:-0;" d=" M 150.00 400.00 L 150.00 100.00"/>
</svg>

