<svg class="poloto" width="800" height="680" viewBox="0 0 800 680" xmlns="http://www.w3.org/2000/svg">
	<style>
.poloto{
  stroke-linecap:round;
  stroke-linejoin:round;
  font-family:Roboto,sans-serif;
  font-size:16px;
}
.poloto_background{fill:AliceBlue;}
.poloto_scatter{stroke-width:7}
.poloto_line{stroke-width:2}
.poloto_text{fill: black;}
.poloto_name{font-size:24px;dominant-baseline:auto;text-anchor:middle;}
.poloto_where{dominant-baseline:middle;text-anchor:start}
.poloto_text.poloto_legend{font-size:20px;dominant-baseline:middle;text-anchor:start;}
.poloto_text.poloto_ticks.poloto_y{dominant-baseline:middle;text-anchor:end}
.poloto_text.poloto_ticks.poloto_x{dominant-baseline:auto;text-anchor:middle}
.poloto_imgs.poloto_ticks{stroke: black;stroke-width:3;fill:none;stroke-dasharray:none}
.poloto_grid{stroke:gray;stroke-width:0.5}

.poloto0.poloto_stroke{stroke:blue;}
.poloto1.poloto_stroke{stroke:red;}
.poloto2.poloto_stroke{stroke:green;}
.poloto3.poloto_stroke{stroke:gold;}
.poloto4.poloto_stroke{stroke:aqua;}
.poloto5.poloto_stroke{stroke:lime;}
.poloto6.poloto_stroke{stroke:orange;}
.poloto7.poloto_stroke{stroke:chocolate;}
.poloto0.poloto_fill{fill:blue;}
.poloto1.poloto_fill{fill:red;}
.poloto2.poloto_fill{fill:green;}
.poloto3.poloto_fill{fill:gold;}
.poloto4.poloto_fill{fill:aqua;}
.poloto5.poloto_fill{fill:lime;}
.poloto6.poloto_fill{fill:orange;}
.poloto7.poloto_fill{fill:chocolate;}
	</style>
	<circle r="1e5" class="poloto_background" fill="white"/>
	<g id="poloto_plot0" class="poloto_plot poloto_imgs poloto_line poloto0 poloto_stroke" fill="none" stroke="black">
		<path d=" M 150.00 369.50 L 150.03 369.47 L 150.04 369.46 L 150.05 369.46 L 150.07 369.46 L 150.10 366.15 L 150.21 365.75 L 150.47 365.73 L 150.84 365.46 L 151.03 363.77 L 151.42 363.67 L 151.48 363.58 L 151.53 363.54 L 151.98 362.72 L 152.82 362.06 L 153.09 359.46 L 153.15 359.46 L 153.66 359.36 L 154.24 359.35 L 154.25 359.35 L 154.25 359.35 L 162.13 359.35 L 162.19 359.34 L 162.29 359.32 L 162.33 359.29 L 162.63 359.14 L 162.77 359.10 L 163.10 358.86 L 163.15 358.75 L 163.24 358.52 L 163.34 358.48 L 163.37 358.48 L 163.45 358.42 L 163.54 358.42 L 163.63 358.42 L 163.85 358.04 L 164.04 357.80 L 164.08 357.80 L 164.17 357.66 L 164.79 358.25 L 164.81 358.25 L 164.89 358.15 L 165.24 357.71 L 165.53 357.18 L 165.85 356.94 L 165.92 356.90 L 165.93 356.90 L 165.99 356.70 L 166.11 356.70 L 166.27 356.62 L 166.58 356.42 L 166.60 356.11 L 166.65 356.11 L 166.73 355.95 L 166.91 355.95 L 166.93 355.95 L 167.11 355.51 L 167.18 355.48 L 167.25 355.45 L 167.32 355.27 L 168.28 355.03 L 168.51 354.98 L 169.05 354.67 L 169.16 354.67 L 169.24 354.65 L 169.29 354.43 L 169.66 353.11 L 169.82 353.09 L 170.01 352.65 L 170.10 352.61 L 170.33 352.24 L 170.42 352.11 L 170.56 351.88 L 170.68 351.67 L 171.10 348.64 L 171.11 348.57 L 171.13 348.39 L 171.28 346.93 L 178.59 346.83 L 179.34 345.17 L 179.37 345.13 L 180.26 344.87 L 180.34 344.86 L 180.42 344.53 L 180.64 344.37 L 180.74 344.08 L 180.77 343.84 L 180.89 343.40 L 181.15 343.39 L 181.16 343.10 L 181.26 342.78 L 181.36 342.77 L 181.47 342.41 L 181.61 342.14 L 181.67 342.01 L 181.69 342.01 L 181.81 341.72 L 181.83 341.72 L 181.97 341.43 L 182.00 341.43 L 182.20 340.06 L 182.24 340.06 L 182.31 339.83 L 182.40 339.82 L 182.52 339.82 L 182.57 339.79 L 182.98 339.53 L 182.99 339.54 L 183.07 338.93 L 183.25 338.92 L 183.42 338.01 L 183.47 337.93 L 183.55 337.92 L 183.59 337.88 L 183.68 337.18 L 184.14 331.24 L 184.19 330.95 L 184.34 330.92 L 184.39 330.85 L 184.43 330.83 L 184.50 330.68 L 184.57 330.00 L 184.74 329.86 L 184.85 329.85 L 184.94 329.55 L 184.99 329.54 L 185.41 329.32 L 185.63 329.16 L 185.70 328.89 L 185.89 328.88 L 185.91 328.88 L 185.92 328.85 L 186.05 327.42 L 186.14 327.34 L 186.48 325.90 L 186.54 325.48 L 186.60 325.47 L 186.69 325.32 L 186.70 325.20 L 186.74 325.14 L 186.77 325.10 L 186.82 325.09 L 186.86 325.02 L 187.00 323.84 L 187.10 323.67 L 187.19 323.32 L 187.33 323.30 L 187.47 323.19 L 187.62 322.36 L 187.72 321.20 L 187.94 321.13 L 187.94 320.70 L 188.07 320.56 L 198.27 320.56 L 198.46 320.55 L 198.94 319.94 L 199.04 319.92 L 199.12 319.92 L 199.14 319.77 L 199.31 319.58 L 199.43 319.55 L 199.50 319.44 L 199.57 319.36 L 199.62 319.31 L 199.80 319.26 L 200.17 319.19 L 200.26 318.87 L 200.33 318.79 L 200.42 318.78 L 200.89 318.62 L 200.96 318.53 L 200.99 318.53 L 201.02 318.41 L 201.12 318.36 L 201.20 318.24 L 201.55 317.47 L 202.04 317.35 L 202.22 317.30 L 202.76 317.10 L 203.02 313.37 L 203.11 313.29 L 203.22 312.92 L 203.38 312.43 L 203.63 312.29 L 203.98 312.28 L 204.44 312.27 L 204.51 312.10 L 204.85 311.93 L 205.07 311.66 L 205.14 311.55 L 205.27 311.51 L 205.37 311.18 L 206.58 310.81 L 207.72 310.81 L 217.99 310.78 L 218.07 310.61 L 218.12 310.51 L 218.44 310.35 L 219.40 309.06 L 219.44 308.98 L 219.58 308.65 L 220.05 308.56 L 220.27 307.69 L 220.61 307.68 L 220.69 307.67 L 220.76 307.07 L 221.36 303.67 L 221.43 303.67 L 221.56 303.64 L 221.69 303.60 L 221.75 303.23 L 222.08 301.95 L 222.20 301.71 L 222.26 301.69 L 222.33 301.10 L 222.48 300.27 L 222.54 299.38 L 222.69 298.99 L 223.13 294.57 L 223.18 294.13 L 223.22 294.13 L 223.29 294.05 L 223.40 293.93 L 223.44 293.89 L 223.48 293.85 L 223.70 292.79 L 223.75 292.04 L 224.01 291.89 L 224.16 290.78 L 224.26 290.08 L 225.06 279.78 L 225.15 279.76 L 255.33 279.26 L 255.36 279.26 L 266.89 279.12 L 267.52 278.84 L 267.65 278.84 L 267.82 278.76 L 267.87 278.63 L 267.94 278.60 L 272.94 278.52 L 273.61 276.57 L 273.85 276.39 L 273.98 275.67 L 277.10 275.52 L 277.12 275.33 L 277.31 275.31 L 278.24 274.07 L 278.30 273.85 L 278.41 273.77 L 278.74 273.68 L 278.78 273.65 L 278.91 273.28 L 279.05 273.18 L 279.08 272.91 L 288.77 272.53 L 288.84 271.47 L 289.23 271.24 L 289.23 269.47 L 289.30 269.21 L 289.38 268.78 L 289.49 267.56 L 289.65 266.92 L 289.79 266.16 L 289.92 266.15 L 289.97 265.57 L 290.16 265.52 L 290.83 262.68 L 291.10 262.38 L 291.15 262.20 L 291.21 262.19 L 291.24 261.99 L 291.33 261.30 L 291.61 260.96 L 291.65 260.92 L 291.81 258.42 L 291.88 258.41 L 291.90 258.14 L 291.97 257.93 L 292.01 257.93 L 292.04 257.56 L 292.26 256.20 L 292.35 255.82 L 292.47 255.77 L 292.55 252.15 L 292.58 251.85 L 292.80 249.79 L 292.86 249.63 L 292.89 249.62 L 292.95 249.62 L 292.98 249.33 L 293.01 249.34 L 293.02 249.33 L 293.13 245.68 L 293.17 245.36 L 293.27 245.34 L 293.35 245.28 L 293.57 245.17 L 293.83 245.03 L 293.84 245.03 L 293.92 244.99 L 294.17 244.92 L 294.28 244.92 L 294.40 244.92 L 294.53 243.33 L 294.61 242.95 L 294.95 242.94 L 294.98 242.69 L 295.03 242.68 L 295.05 242.41 L 295.28 240.11 L 295.32 240.05 L 295.48 240.04 L 310.39 239.97 L 311.24 239.85 L 311.27 239.85 L 311.44 239.85 L 311.45 239.85 L 311.56 239.40 L 311.64 239.38 L 311.72 239.15 L 311.82 239.10 L 311.85 239.06 L 311.89 239.04 L 312.05 238.79 L 312.37 238.56 L 312.58 237.82 L 312.80 237.11 L 312.81 237.08 L 312.85 236.42 L 312.88 236.39 L 313.32 236.00 L 313.33 235.96 L 313.40 235.44 L 313.59 235.38 L 313.72 235.33 L 313.74 234.39 L 313.75 234.35 L 313.80 235.23 L 313.84 234.69 L 313.85 234.67 L 313.96 233.42 L 313.97 233.38 L 314.21 233.28 L 314.84 233.26 L 314.99 233.22 L 315.04 233.21 L 315.07 233.05 L 315.11 233.05 L 315.20 232.43 L 325.39 231.24 L 325.41 231.07 L 325.50 230.96 L 325.52 230.73 L 325.58 220.31 L 325.69 216.04 L 325.70 216.02 L 325.89 215.93 L 325.94 215.93 L 325.97 215.44 L 326.13 215.40 L 326.57 214.39 L 326.58 214.36 L 326.70 214.05 L 326.74 214.06 L 326.76 213.56 L 327.13 212.97 L 327.14 212.94 L 327.70 212.71 L 327.77 212.18 L 327.96 212.19 L 328.20 210.84 L 328.25 210.32 L 328.29 209.89 L 328.40 209.37 L 328.69 209.19 L 328.74 209.06 L 328.86 208.94 L 329.00 208.94 L 329.43 208.94 L 329.48 208.94 L 329.58 208.91 L 329.59 208.91 L 329.73 208.93 L 330.05 208.90 L 330.38 208.70 L 330.43 208.70 L 330.51 208.63 L 330.60 208.48 L 330.86 208.48 L 331.29 208.29 L 331.43 207.88 L 331.66 204.29 L 332.60 207.32 L 332.81 207.31 L 332.96 207.30 L 333.19 207.29 L 333.27 207.23 L 333.50 207.06 L 333.87 206.81 L 333.92 206.65 L 333.99 206.58 L 334.03 206.60 L 334.06 206.55 L 334.35 206.32 L 341.11 206.32 L 341.17 206.32 L 341.59 206.31 L 341.64 206.29 L 341.73 205.83 L 341.81 205.58 L 341.82 205.57 L 342.05 205.54 L 342.11 205.51 L 343.49 204.84 L 343.65 204.78 L 343.77 204.77 L 343.80 204.76 L 344.23 204.60 L 344.37 204.68 L 344.40 204.68 L 344.63 204.63 L 344.88 203.21 L 344.91 203.20 L 345.12 203.04 L 345.21 203.04 L 345.29 203.04 L 345.47 202.88 L 345.84 202.31 L 345.91 202.29 L 345.98 202.13 L 346.13 201.45 L 346.51 200.75 L 346.84 197.44 L 346.90 197.04 L 347.24 196.88 L 347.30 196.80 L 347.36 196.64 L 347.39 196.10 L 347.51 195.15 L 347.53 195.19 L 347.59 195.17 L 347.78 195.17 L 348.08 194.82 L 348.26 194.75 L 348.47 194.74 L 348.56 194.73 L 348.77 194.72 L 349.11 194.72 L 349.45 194.71 L 349.71 194.70 L 349.77 194.69 L 349.83 194.68 L 349.84 194.57 L 350.04 194.50 L 350.09 194.49 L 350.17 194.34 L 350.73 194.32 L 350.74 194.04 L 350.89 194.02 L 351.54 194.03 L 351.97 193.85 L 352.28 193.64 L 352.29 193.53 L 352.31 193.53 L 361.78 193.33 L 361.81 193.32 L 361.92 193.31 L 361.97 193.15 L 362.00 193.13 L 362.01 193.12 L 362.41 193.08 L 362.50 192.48 L 362.62 192.34 L 362.82 191.16 L 362.95 191.15 L 363.12 190.65 L 363.21 190.71 L 363.25 190.71 L 363.30 190.14 L 363.42 189.74 L 363.43 189.33 L 363.47 189.27 L 363.58 189.24 L 363.64 189.04 L 363.73 191.29 L 363.84 191.25 L 364.07 190.35 L 364.18 190.13 L 364.27 189.94 L 364.85 188.65 L 365.35 188.03 L 365.94 186.84 L 366.10 186.78 L 366.27 186.78 L 366.45 186.73 L 369.93 186.39 L 370.22 186.36 L 403.19 185.45 L 507.00 185.24 L 507.34 184.87 L 507.58 184.82 L 507.82 184.82 L 508.18 184.12 L 508.30 183.79 L 508.40 183.16 L 508.56 181.34 L 508.80 181.71 L 508.99 181.32 L 509.04 181.31 L 509.20 181.20 L 509.24 181.20 L 509.41 180.53 L 509.56 179.47 L 510.03 178.34 L 510.05 178.25 L 510.18 176.90 L 510.63 173.56 L 510.64 173.45 L 510.73 173.38 L 510.83 172.18 L 511.32 170.58 L 511.33 170.43 L 511.43 170.36 L 511.54 169.57 L 511.73 168.94 L 511.74 168.82 L 511.82 167.60 L 511.83 167.57 L 511.87 167.23 L 512.08 165.06 L 512.10 164.94 L 512.17 164.81 L 512.39 164.52 L 512.44 164.51 L 512.61 164.10 L 512.90 164.15 L 512.94 164.09 L 512.98 164.06 L 513.03 164.03 L 513.18 162.75 L 513.33 161.71 L 513.35 161.62 L 513.44 160.32 L 513.53 159.05 L 513.55 158.90 L 513.64 157.41 L 513.68 156.24 L 513.86 155.45 L 513.88 155.40 L 513.97 155.15 L 514.10 155.13 L 514.84 155.10 L 515.22 155.06 L 523.32 155.11 L 523.41 154.88 L 523.49 154.69 L 523.62 153.81 L 523.93 153.59 L 523.95 153.50 L 524.01 152.34 L 524.20 151.22 L 524.22 151.13 L 525.99 151.05 L 526.10 150.42 L 526.99 150.23 L 527.09 150.19 L 527.20 148.88 L 528.27 147.66 L 528.73 147.19 L 528.84 146.24 L 529.23 144.60 L 529.47 144.13 L 529.87 143.17 L 530.58 142.68 L 541.44 142.67 L 542.09 142.56 L 542.11 142.58 L 543.02 142.39 L 543.07 142.29 L 543.39 142.22 L 543.76 141.15 L 543.76 141.15 L 543.80 141.11 L 544.28 139.89 L 545.40 139.19 L 545.47 139.13 L 545.58 139.12 L 545.75 138.80 L 545.80 138.72 L 545.87 138.65 L 546.38 138.61 L 546.80 138.61 L 547.02 138.61 L 547.06 138.56 L 547.52 137.50 L 547.88 137.29 L 547.89 137.21 L 547.94 137.13 L 547.99 136.84 L 559.76 136.43 L 559.79 136.41 L 559.82 136.39 L 560.05 136.27 L 560.23 136.14 L 561.26 134.50 L 561.52 134.31 L 562.27 133.82 L 562.91 133.70 L 563.39 133.54 L 563.52 132.03 L 564.12 130.26 L 564.34 130.13 L 564.42 128.99 L 566.16 126.89 L 566.18 126.89 L 566.27 126.38 L 566.60 126.32 L 566.61 126.32 L 566.63 126.19 L 566.69 126.03 L 566.84 125.86 L 567.03 124.98 L 568.83 122.85 L 569.07 122.60 L 569.23 122.22 L 569.26 122.17 L 569.29 121.87 L 577.31 120.91 L 577.57 120.18 L 577.72 120.15 L 577.78 119.67 L 578.54 119.44 L 578.70 118.96 L 578.84 118.96 L 578.92 117.94 L 579.18 115.35 L 579.22 115.30 L 579.55 115.26 L 579.63 114.41 L 579.92 113.40 L 579.98 112.70 L 580.22 112.05 L 580.39 111.71 L 580.53 110.93 L 580.83 110.27 L 580.86 109.53 L 581.25 109.37 L 581.29 109.37 L 581.35 108.42 L 581.43 108.42 L 581.47 108.35 L 581.92 106.59 L 582.57 106.01 L 582.89 106.20 L 583.95 106.12 L 583.97 106.11 L 584.14 106.09 L 584.21 106.07 L 584.33 105.95 L 584.46 105.85 L 584.60 105.66 L 584.92 105.40 L 585.23 105.39 L 586.18 105.21 L 586.22 105.20 L 587.17 105.03 L 587.58 104.93 L 595.69 104.91 L 596.10 104.78 L 596.30 104.69 L 596.39 104.69 L 596.42 104.69 L 596.62 104.67 L 596.72 104.61 L 596.96 104.44 L 597.10 104.41 L 597.63 104.23 L 597.90 103.83 L 598.36 103.77 L 598.49 103.52 L 598.64 103.36 L 598.84 103.16 L 599.54 103.21 L 599.61 103.20 L 600.63 102.71 L 600.79 102.42 L 601.00 102.32 L 601.49 102.09 L 601.72 102.16 L 601.84 102.54 L 601.94 102.51 L 602.08 102.36 L 602.51 101.20 L 602.97 101.08 L 603.38 100.98 L 603.43 100.93 L 603.47 100.60 L 632.83 100.52 L 633.03 100.37 L 649.91 100.00 L 650.00 100.42"/>
	</g>
	<g id="poloto_plot1" class="poloto_plot poloto_imgs poloto_line poloto1 poloto_stroke" fill="none" stroke="black">
		<path d=" M 150.00 381.87 L 150.03 381.86 L 150.04 381.85 L 150.05 381.85 L 150.07 381.85 L 150.10 381.27 L 150.21 381.25 L 150.47 381.24 L 150.84 381.03 L 151.03 380.93 L 151.42 380.95 L 151.48 380.91 L 151.53 380.91 L 151.98 380.87 L 152.82 380.76 L 153.09 378.52 L 153.15 378.52 L 153.66 378.47 L 154.24 378.46 L 154.25 378.46 L 154.25 378.46 L 162.13 378.46 L 162.19 378.46 L 162.29 378.46 L 162.33 378.43 L 162.63 378.41 L 162.77 378.41 L 163.10 378.41 L 163.15 378.41 L 163.24 378.40 L 163.34 378.40 L 163.37 378.40 L 163.45 378.37 L 163.54 378.37 L 163.63 378.37 L 163.85 378.25 L 164.04 378.25 L 164.08 378.25 L 164.17 378.25 L 164.79 379.09 L 164.81 379.09 L 164.89 379.08 L 165.24 378.95 L 165.53 378.81 L 165.85 378.75 L 165.92 378.70 L 165.93 378.70 L 165.99 378.70 L 166.11 378.70 L 166.27 378.65 L 166.58 378.60 L 166.60 378.60 L 166.65 378.60 L 166.73 378.58 L 166.91 378.58 L 166.93 378.58 L 167.11 378.57 L 167.18 378.57 L 167.25 378.57 L 167.32 378.57 L 168.28 378.47 L 168.51 378.46 L 169.05 378.42 L 169.16 378.42 L 169.24 378.42 L 169.29 378.42 L 169.66 378.35 L 169.82 378.35 L 170.01 378.27 L 170.10 378.26 L 170.33 378.08 L 170.42 378.01 L 170.56 378.01 L 170.68 378.01 L 171.10 375.39 L 171.11 375.35 L 171.13 375.35 L 171.28 375.09 L 178.59 375.09 L 179.34 373.96 L 179.37 373.96 L 180.26 373.96 L 180.34 373.96 L 180.42 373.84 L 180.64 373.82 L 180.74 373.82 L 180.77 373.82 L 180.89 373.82 L 181.15 373.82 L 181.16 373.58 L 181.26 373.57 L 181.36 373.57 L 181.47 373.54 L 181.61 373.54 L 181.67 373.54 L 181.69 373.54 L 181.81 373.54 L 181.83 373.54 L 181.97 373.54 L 182.00 373.54 L 182.20 372.43 L 182.24 372.43 L 182.31 372.29 L 182.40 372.29 L 182.52 372.29 L 182.57 372.28 L 182.98 372.28 L 182.99 372.28 L 183.07 372.21 L 183.25 372.21 L 183.42 371.57 L 183.47 371.49 L 183.55 371.49 L 183.59 371.49 L 183.68 371.48 L 184.14 366.80 L 184.19 366.83 L 184.34 366.83 L 184.39 366.83 L 184.43 366.83 L 184.50 366.83 L 184.57 366.76 L 184.74 366.76 L 184.85 366.76 L 184.94 366.76 L 184.99 366.76 L 185.41 366.75 L 185.63 366.74 L 185.70 366.63 L 185.89 366.63 L 185.91 366.63 L 185.92 366.63 L 186.05 366.31 L 186.14 366.23 L 186.48 365.12 L 186.54 365.12 L 186.60 365.12 L 186.69 365.14 L 186.70 365.14 L 186.74 365.14 L 186.77 365.14 L 186.82 365.14 L 186.86 365.14 L 187.00 365.11 L 187.10 365.11 L 187.19 365.10 L 187.33 365.10 L 187.47 365.09 L 187.62 364.68 L 187.72 364.54 L 187.94 364.54 L 187.94 364.53 L 188.07 364.53 L 198.27 364.53 L 198.46 364.53 L 198.94 364.45 L 199.04 364.44 L 199.12 364.44 L 199.14 364.44 L 199.31 364.44 L 199.43 364.44 L 199.50 364.44 L 199.57 364.44 L 199.62 364.44 L 199.80 364.44 L 200.17 364.46 L 200.26 364.46 L 200.33 364.46 L 200.42 364.46 L 200.89 364.37 L 200.96 364.33 L 200.99 364.33 L 201.02 364.27 L 201.12 364.27 L 201.20 364.26 L 201.55 363.84 L 202.04 363.84 L 202.22 363.84 L 202.76 363.84 L 203.02 360.97 L 203.11 360.97 L 203.22 360.97 L 203.38 360.97 L 203.63 360.97 L 203.98 360.97 L 204.44 360.97 L 204.51 360.97 L 204.85 360.90 L 205.07 360.78 L 205.14 360.78 L 205.27 360.78 L 205.37 360.76 L 206.58 360.58 L 207.72 360.58 L 217.99 360.58 L 218.07 360.58 L 218.12 360.58 L 218.44 360.58 L 219.40 359.68 L 219.44 359.65 L 219.58 359.55 L 220.05 359.55 L 220.27 359.33 L 220.61 359.34 L 220.69 359.34 L 220.76 359.34 L 221.36 356.82 L 221.43 356.82 L 221.56 356.82 L 221.69 356.82 L 221.75 356.66 L 222.08 356.36 L 222.20 356.36 L 222.26 356.36 L 222.33 355.89 L 222.48 355.43 L 222.54 355.43 L 222.69 355.42 L 223.13 351.67 L 223.18 351.67 L 223.22 351.67 L 223.29 351.67 L 223.40 351.67 L 223.44 351.67 L 223.48 351.67 L 223.70 351.67 L 223.75 351.59 L 224.01 351.58 L 224.16 351.52 L 224.26 351.07 L 225.06 343.62 L 225.15 343.62 L 255.33 343.62 L 255.36 343.62 L 266.89 343.62 L 267.52 343.50 L 267.65 343.50 L 267.82 343.50 L 267.87 343.50 L 267.94 343.50 L 272.94 343.45 L 273.61 343.37 L 273.85 343.37 L 273.98 343.35 L 277.10 343.29 L 277.12 343.19 L 277.31 343.19 L 278.24 342.18 L 278.30 342.18 L 278.41 342.18 L 278.74 342.18 L 278.78 342.18 L 278.91 342.18 L 279.05 342.18 L 279.08 342.18 L 288.77 342.16 L 288.84 341.98 L 289.23 341.98 L 289.23 340.76 L 289.30 340.76 L 289.38 340.76 L 289.49 340.65 L 289.65 340.65 L 289.79 340.60 L 289.92 340.60 L 289.97 340.60 L 290.16 340.58 L 290.83 338.52 L 291.10 338.51 L 291.15 338.50 L 291.21 338.50 L 291.24 338.50 L 291.33 338.47 L 291.61 338.21 L 291.65 338.17 L 291.81 336.32 L 291.88 336.31 L 291.90 336.31 L 291.97 336.28 L 292.01 336.28 L 292.04 336.28 L 292.26 335.27 L 292.35 335.25 L 292.47 335.23 L 292.55 332.09 L 292.58 332.08 L 292.80 330.31 L 292.86 330.31 L 292.89 330.31 L 292.95 330.31 L 292.98 330.31 L 293.01 330.31 L 293.02 330.31 L 293.13 327.03 L 293.17 327.03 L 293.27 327.02 L 293.35 327.02 L 293.57 326.95 L 293.83 326.86 L 293.84 326.86 L 293.92 326.84 L 294.17 326.79 L 294.28 326.79 L 294.40 326.79 L 294.53 325.38 L 294.61 325.38 L 294.95 325.37 L 294.98 325.37 L 295.03 325.37 L 295.05 325.37 L 295.28 323.35 L 295.32 323.35 L 295.48 323.34 L 310.39 323.34 L 311.24 323.33 L 311.27 323.33 L 311.44 323.33 L 311.45 323.33 L 311.56 323.33 L 311.64 323.32 L 311.72 323.22 L 311.82 323.22 L 311.85 323.22 L 311.89 323.22 L 312.05 323.04 L 312.37 322.93 L 312.58 322.81 L 312.80 322.24 L 312.81 322.24 L 312.85 322.09 L 312.88 322.08 L 313.32 321.73 L 313.33 321.73 L 313.40 321.68 L 313.59 321.68 L 313.72 321.64 L 313.74 320.81 L 313.75 320.81 L 313.80 321.63 L 313.84 321.59 L 313.85 321.58 L 313.96 320.45 L 313.97 320.45 L 314.21 320.41 L 314.84 320.41 L 314.99 320.41 L 315.04 320.41 L 315.07 320.41 L 315.11 320.41 L 315.20 320.33 L 325.39 319.40 L 325.41 319.40 L 325.50 319.40 L 325.52 319.19 L 325.58 309.24 L 325.69 305.54 L 325.70 305.54 L 325.89 305.47 L 325.94 305.47 L 325.97 305.46 L 326.13 305.46 L 326.57 304.55 L 326.58 304.55 L 326.70 304.50 L 326.74 304.50 L 326.76 304.43 L 327.13 303.89 L 327.14 303.89 L 327.70 303.77 L 327.77 303.74 L 327.96 303.75 L 328.20 302.53 L 328.25 302.40 L 328.29 302.29 L 328.40 301.83 L 328.69 301.72 L 328.74 301.62 L 328.86 301.62 L 329.00 301.62 L 329.43 301.62 L 329.48 301.62 L 329.58 301.62 L 329.59 301.62 L 329.73 301.63 L 330.05 301.63 L 330.38 301.50 L 330.43 301.50 L 330.51 301.49 L 330.60 301.49 L 330.86 301.49 L 331.29 301.49 L 331.43 301.38 L 331.66 298.17 L 332.60 301.20 L 332.81 301.18 L 332.96 301.18 L 333.19 301.18 L 333.27 301.14 L 333.50 301.12 L 333.87 300.94 L 333.92 300.94 L 333.99 300.94 L 334.03 300.94 L 334.06 300.94 L 334.35 300.76 L 341.11 300.76 L 341.17 300.77 L 341.59 300.75 L 341.64 300.75 L 341.73 300.72 L 341.81 300.50 L 341.82 300.49 L 342.05 300.47 L 342.11 300.47 L 343.49 300.29 L 343.65 300.29 L 343.77 300.29 L 343.80 300.29 L 344.23 300.15 L 344.37 300.15 L 344.40 300.15 L 344.63 300.15 L 344.88 299.39 L 344.91 299.39 L 345.12 299.26 L 345.21 299.26 L 345.29 299.26 L 345.47 299.26 L 345.84 299.25 L 345.91 299.23 L 345.98 299.16 L 346.13 299.03 L 346.51 298.91 L 346.84 295.88 L 346.90 295.78 L 347.24 295.64 L 347.30 295.60 L 347.36 295.49 L 347.39 295.28 L 347.51 294.37 L 347.53 294.41 L 347.59 294.39 L 347.78 294.39 L 348.08 294.26 L 348.26 294.22 L 348.47 294.20 L 348.56 294.19 L 348.77 294.18 L 349.11 294.18 L 349.45 294.17 L 349.71 294.17 L 349.77 294.16 L 349.83 294.16 L 349.84 294.16 L 350.04 294.16 L 350.09 294.15 L 350.17 294.03 L 350.73 294.02 L 350.74 294.02 L 350.89 294.01 L 351.54 294.00 L 351.97 293.85 L 352.28 293.73 L 352.29 293.73 L 352.31 293.72 L 361.78 293.72 L 361.81 293.72 L 361.92 293.72 L 361.97 293.72 L 362.00 293.70 L 362.01 293.70 L 362.41 293.70 L 362.50 293.69 L 362.62 293.67 L 362.82 293.65 L 362.95 293.65 L 363.12 293.58 L 363.21 293.58 L 363.25 293.58 L 363.30 293.58 L 363.42 293.30 L 363.43 293.30 L 363.47 293.30 L 363.58 293.30 L 363.64 293.30 L 363.73 293.37 L 363.84 293.37 L 364.07 293.36 L 364.18 293.36 L 364.27 293.36 L 364.85 292.47 L 365.35 292.23 L 365.94 291.59 L 366.10 291.59 L 366.27 291.59 L 366.45 291.59 L 369.93 291.51 L 370.22 291.51 L 403.19 291.40 L 507.00 291.23 L 507.34 291.18 L 507.58 291.18 L 507.82 291.18 L 508.18 290.76 L 508.30 290.76 L 508.40 290.76 L 508.56 289.27 L 508.80 289.55 L 508.99 289.53 L 509.04 289.53 L 509.20 289.52 L 509.24 289.52 L 509.41 289.52 L 509.56 289.45 L 510.03 288.51 L 510.05 288.51 L 510.18 288.42 L 510.63 285.37 L 510.64 285.37 L 510.73 285.36 L 510.83 285.32 L 511.32 283.90 L 511.33 283.90 L 511.43 283.90 L 511.54 283.86 L 511.73 283.34 L 511.74 283.34 L 511.82 283.33 L 511.83 283.33 L 511.87 283.05 L 512.08 281.03 L 512.10 281.03 L 512.17 281.03 L 512.39 280.86 L 512.44 280.86 L 512.61 280.52 L 512.90 280.52 L 512.94 280.52 L 512.98 280.52 L 513.03 280.52 L 513.18 280.51 L 513.33 279.60 L 513.35 279.60 L 513.44 279.60 L 513.53 278.91 L 513.55 278.91 L 513.64 278.18 L 513.68 278.13 L 513.86 277.41 L 513.88 277.41 L 513.97 277.41 L 514.10 277.40 L 514.84 277.40 L 515.22 277.39 L 523.32 277.39 L 523.41 277.39 L 523.49 277.39 L 523.62 277.39 L 523.93 277.20 L 523.95 277.20 L 524.01 277.14 L 524.20 276.13 L 524.22 276.13 L 525.99 276.15 L 526.10 275.95 L 526.99 275.95 L 527.09 275.94 L 527.20 275.87 L 528.27 275.04 L 528.73 274.88 L 528.84 274.82 L 529.23 273.25 L 529.47 273.25 L 529.87 273.12 L 530.58 273.12 L 541.44 273.11 L 542.09 273.02 L 542.11 273.04 L 543.02 273.04 L 543.07 273.04 L 543.39 273.04 L 543.76 273.00 L 543.76 273.00 L 543.80 273.00 L 544.28 272.08 L 545.40 272.06 L 545.47 272.06 L 545.58 272.05 L 545.75 272.02 L 545.80 271.99 L 545.87 271.99 L 546.38 271.95 L 546.80 271.95 L 547.02 271.94 L 547.06 271.94 L 547.52 271.93 L 547.88 271.82 L 547.89 271.82 L 547.94 271.82 L 547.99 271.82 L 559.76 271.60 L 559.79 271.60 L 559.82 271.60 L 560.05 271.60 L 560.23 271.60 L 561.26 270.69 L 561.52 270.64 L 562.27 270.57 L 562.91 270.52 L 563.39 270.52 L 563.52 270.52 L 564.12 269.14 L 564.34 269.10 L 564.42 269.06 L 566.16 268.09 L 566.18 268.09 L 566.27 268.08 L 566.60 268.07 L 566.61 268.07 L 566.63 268.07 L 566.69 268.04 L 566.84 268.00 L 567.03 267.89 L 568.83 266.30 L 569.07 266.21 L 569.23 266.21 L 569.26 266.21 L 569.29 266.21 L 577.31 266.21 L 577.57 266.20 L 577.72 266.20 L 577.78 266.20 L 578.54 266.20 L 578.70 266.20 L 578.84 266.20 L 578.92 266.17 L 579.18 264.08 L 579.22 264.06 L 579.55 264.07 L 579.63 264.06 L 579.92 263.25 L 579.98 263.20 L 580.22 262.68 L 580.39 262.68 L 580.53 262.63 L 580.83 262.14 L 580.86 262.14 L 581.25 260.59 L 581.29 260.59 L 581.35 260.58 L 581.43 260.58 L 581.47 260.58 L 581.92 259.02 L 582.57 258.88 L 582.89 258.88 L 583.95 258.84 L 583.97 258.84 L 584.14 258.84 L 584.21 258.84 L 584.33 258.84 L 584.46 258.84 L 584.60 258.82 L 584.92 258.80 L 585.23 258.80 L 586.18 258.73 L 586.22 258.73 L 587.17 258.69 L 587.58 258.64 L 595.69 258.66 L 596.10 258.58 L 596.30 258.50 L 596.39 258.50 L 596.42 258.50 L 596.62 258.49 L 596.72 258.49 L 596.96 258.49 L 597.10 258.49 L 597.63 258.35 L 597.90 258.06 L 598.36 258.05 L 598.49 257.86 L 598.64 257.77 L 598.84 257.69 L 599.54 257.77 L 599.61 257.77 L 600.63 257.48 L 600.79 257.48 L 601.00 257.48 L 601.49 257.45 L 601.72 257.59 L 601.84 257.59 L 601.94 257.59 L 602.08 257.59 L 602.51 256.92 L 602.97 256.91 L 603.38 256.90 L 603.43 256.90 L 603.47 256.90 L 632.83 256.90 L 633.03 256.85 L 649.91 256.63 L 650.00 256.63"/>
	</g>
	<g id="poloto_plot2" class="poloto_plot poloto_imgs poloto_line poloto2 poloto_stroke" fill="none" stroke="black">
		<path d=" M 150.00 391.87 L 150.03 391.86 L 150.04 391.86 L 150.05 391.86 L 150.07 391.86 L 150.10 389.78 L 150.21 389.49 L 150.47 389.49 L 150.84 389.48 L 151.03 388.23 L 151.42 388.12 L 151.48 388.08 L 151.53 388.05 L 151.98 387.49 L 152.82 387.06 L 153.09 386.98 L 153.15 386.98 L 153.66 386.95 L 154.24 386.95 L 154.25 386.95 L 154.25 386.95 L 162.13 386.95 L 162.19 386.94 L 162.29 386.92 L 162.33 386.92 L 162.63 386.80 L 162.77 386.76 L 163.10 386.56 L 163.15 386.47 L 163.24 386.29 L 163.34 386.26 L 163.37 386.26 L 163.45 386.23 L 163.54 386.23 L 163.63 386.23 L 163.85 386.02 L 164.04 385.83 L 164.08 385.83 L 164.17 385.72 L 164.79 385.46 L 164.81 385.46 L 164.89 385.39 L 165.24 385.11 L 165.53 384.77 L 165.85 384.63 L 165.92 384.63 L 165.93 384.63 L 165.99 384.44 L 166.11 384.44 L 166.27 384.42 L 166.58 384.28 L 166.60 384.04 L 166.65 384.04 L 166.73 383.92 L 166.91 383.92 L 166.93 383.92 L 167.11 383.55 L 167.18 383.53 L 167.25 383.50 L 167.32 383.33 L 168.28 383.23 L 168.51 383.19 L 169.05 382.94 L 169.16 382.94 L 169.24 382.93 L 169.29 382.74 L 169.66 381.72 L 169.82 381.70 L 170.01 381.40 L 170.10 381.37 L 170.33 381.23 L 170.42 381.18 L 170.56 380.96 L 170.68 380.79 L 171.10 380.79 L 171.11 380.76 L 171.13 380.62 L 171.28 379.63 L 178.59 379.53 L 179.34 379.23 L 179.37 379.20 L 180.26 378.95 L 180.34 378.95 L 180.42 378.76 L 180.64 378.64 L 180.74 378.42 L 180.77 378.23 L 180.89 377.87 L 181.15 377.86 L 181.16 377.86 L 181.26 377.60 L 181.36 377.60 L 181.47 377.33 L 181.61 377.12 L 181.67 377.01 L 181.69 377.00 L 181.81 376.76 L 181.83 376.75 L 181.97 376.53 L 182.00 376.52 L 182.20 376.44 L 182.24 376.44 L 182.31 376.36 L 182.40 376.34 L 182.52 376.34 L 182.57 376.32 L 182.98 376.10 L 182.99 376.11 L 183.07 375.67 L 183.25 375.65 L 183.42 375.51 L 183.47 375.51 L 183.55 375.51 L 183.59 375.47 L 183.68 374.87 L 184.14 374.35 L 184.19 374.07 L 184.34 374.05 L 184.39 373.98 L 184.43 373.97 L 184.50 373.84 L 184.57 373.36 L 184.74 373.28 L 184.85 373.27 L 184.94 373.03 L 184.99 373.02 L 185.41 372.84 L 185.63 372.72 L 185.70 372.61 L 185.89 372.60 L 185.91 372.60 L 185.92 372.57 L 186.05 371.70 L 186.14 371.69 L 186.48 371.57 L 186.54 371.22 L 186.60 371.22 L 186.69 371.07 L 186.70 370.99 L 186.74 370.93 L 186.77 370.90 L 186.82 370.90 L 186.86 370.83 L 187.00 369.85 L 187.10 369.75 L 187.19 369.46 L 187.33 369.44 L 187.47 369.34 L 187.62 369.04 L 187.72 368.19 L 187.94 368.12 L 187.94 367.76 L 188.07 367.67 L 198.27 367.67 L 198.46 367.67 L 198.94 367.27 L 199.04 367.27 L 199.12 367.27 L 199.14 367.17 L 199.31 366.99 L 199.43 366.96 L 199.50 366.86 L 199.57 366.79 L 199.62 366.75 L 199.80 366.69 L 200.17 366.78 L 200.26 366.51 L 200.33 366.44 L 200.42 366.43 L 200.89 366.38 L 200.96 366.33 L 200.99 366.33 L 201.02 366.28 L 201.12 366.23 L 201.20 366.13 L 201.55 365.88 L 202.04 365.77 L 202.22 365.73 L 202.76 365.56 L 203.02 365.17 L 203.11 365.10 L 203.22 364.79 L 203.38 364.39 L 203.63 364.29 L 203.98 364.28 L 204.44 364.26 L 204.51 364.12 L 204.85 364.02 L 205.07 363.89 L 205.14 363.79 L 205.27 363.75 L 205.37 363.49 L 206.58 363.36 L 207.72 363.36 L 217.99 363.32 L 218.07 363.18 L 218.12 363.08 L 218.44 362.93 L 219.40 362.67 L 219.44 362.63 L 219.58 362.45 L 220.05 362.37 L 220.27 361.86 L 220.61 361.84 L 220.69 361.83 L 220.76 361.32 L 221.36 360.85 L 221.43 360.84 L 221.56 360.81 L 221.69 360.77 L 221.75 360.60 L 222.08 359.81 L 222.20 359.61 L 222.26 359.59 L 222.33 359.51 L 222.48 359.20 L 222.54 358.41 L 222.69 358.09 L 223.13 357.90 L 223.18 357.51 L 223.22 357.51 L 223.29 357.43 L 223.40 357.33 L 223.44 357.30 L 223.48 357.26 L 223.70 356.34 L 223.75 355.80 L 224.01 355.70 L 224.16 354.78 L 224.26 354.60 L 225.06 353.16 L 225.15 353.13 L 255.33 352.71 L 255.36 352.71 L 266.89 352.59 L 267.52 352.44 L 267.65 352.44 L 267.82 352.37 L 267.87 352.25 L 267.94 352.22 L 272.94 352.21 L 273.61 350.55 L 273.85 350.41 L 273.98 349.84 L 277.10 349.77 L 277.12 349.71 L 277.31 349.70 L 278.24 349.60 L 278.30 349.41 L 278.41 349.34 L 278.74 349.26 L 278.78 349.23 L 278.91 348.91 L 279.05 348.82 L 279.08 348.57 L 288.77 348.26 L 288.84 347.50 L 289.23 347.31 L 289.23 347.02 L 289.30 346.79 L 289.38 346.45 L 289.49 345.54 L 289.65 345.03 L 289.79 344.39 L 289.92 344.39 L 289.97 343.89 L 290.16 343.85 L 290.83 343.38 L 291.10 343.16 L 291.15 343.03 L 291.21 343.02 L 291.24 342.86 L 291.33 342.30 L 291.61 342.24 L 291.65 342.24 L 291.81 341.87 L 291.88 341.87 L 291.90 341.66 L 291.97 341.52 L 292.01 341.52 L 292.04 341.23 L 292.26 341.05 L 292.35 340.76 L 292.47 340.75 L 292.55 340.59 L 292.58 340.36 L 292.80 340.24 L 292.86 340.11 L 292.89 340.11 L 292.95 340.11 L 292.98 339.88 L 293.01 339.89 L 293.02 339.89 L 293.13 339.81 L 293.17 339.55 L 293.27 339.55 L 293.35 339.49 L 293.57 339.47 L 293.83 339.44 L 293.84 339.44 L 293.92 339.43 L 294.17 339.43 L 294.28 339.43 L 294.40 339.43 L 294.53 339.39 L 294.61 339.08 L 294.95 339.08 L 294.98 338.90 L 295.03 338.90 L 295.05 338.70 L 295.28 338.63 L 295.32 338.58 L 295.48 338.58 L 310.39 338.52 L 311.24 338.44 L 311.27 338.44 L 311.44 338.44 L 311.45 338.44 L 311.56 338.08 L 311.64 338.07 L 311.72 337.97 L 311.82 337.92 L 311.85 337.88 L 311.89 337.86 L 312.05 337.83 L 312.37 337.76 L 312.58 337.28 L 312.80 337.26 L 312.81 337.22 L 312.85 336.82 L 312.88 336.82 L 313.32 336.82 L 313.33 336.78 L 313.40 336.41 L 313.59 336.36 L 313.72 336.35 L 313.74 336.34 L 313.75 336.30 L 313.80 336.27 L 313.84 335.89 L 313.85 335.88 L 313.96 335.88 L 313.97 335.85 L 314.21 335.82 L 314.84 335.80 L 314.99 335.77 L 315.04 335.76 L 315.07 335.64 L 315.11 335.64 L 315.20 335.21 L 325.39 335.08 L 325.41 334.96 L 325.50 334.87 L 325.52 334.86 L 325.58 334.49 L 325.69 334.40 L 325.70 334.38 L 325.89 334.38 L 325.94 334.38 L 325.97 334.02 L 326.13 333.97 L 326.57 333.96 L 326.58 333.94 L 326.70 333.74 L 326.74 333.75 L 326.76 333.41 L 327.13 333.41 L 327.14 333.39 L 327.70 333.31 L 327.77 332.91 L 327.96 332.91 L 328.20 332.91 L 328.25 332.61 L 328.29 332.39 L 328.40 332.38 L 328.69 332.33 L 328.74 332.31 L 328.86 332.22 L 329.00 332.22 L 329.43 332.22 L 329.48 332.22 L 329.58 332.20 L 329.59 332.20 L 329.73 332.20 L 330.05 332.17 L 330.38 332.13 L 330.43 332.13 L 330.51 332.09 L 330.60 331.98 L 330.86 331.98 L 331.29 331.85 L 331.43 331.62 L 331.66 331.60 L 332.60 331.35 L 332.81 331.35 L 332.96 331.35 L 333.19 331.34 L 333.27 331.33 L 333.50 331.20 L 333.87 331.19 L 333.92 331.08 L 333.99 331.02 L 334.03 331.04 L 334.06 331.00 L 334.35 330.98 L 341.11 330.97 L 341.17 330.97 L 341.59 330.97 L 341.64 330.96 L 341.73 330.62 L 341.81 330.61 L 341.82 330.61 L 342.05 330.60 L 342.11 330.58 L 343.49 330.09 L 343.65 330.04 L 343.77 330.03 L 343.80 330.03 L 344.23 330.02 L 344.37 330.09 L 344.40 330.08 L 344.63 330.05 L 344.88 329.58 L 344.91 329.57 L 345.12 329.56 L 345.21 329.56 L 345.29 329.56 L 345.47 329.46 L 345.84 329.04 L 345.91 329.04 L 345.98 328.97 L 346.13 328.59 L 346.51 328.16 L 346.84 328.19 L 346.90 327.96 L 347.24 327.96 L 347.30 327.94 L 347.36 327.91 L 347.39 327.69 L 347.51 327.68 L 347.53 327.68 L 347.59 327.68 L 347.78 327.68 L 348.08 327.50 L 348.26 327.48 L 348.47 327.48 L 348.56 327.48 L 348.77 327.48 L 349.11 327.48 L 349.45 327.48 L 349.71 327.48 L 349.77 327.48 L 349.83 327.47 L 349.84 327.39 L 350.04 327.34 L 350.09 327.34 L 350.17 327.32 L 350.73 327.32 L 350.74 327.10 L 350.89 327.10 L 351.54 327.10 L 351.97 327.10 L 352.28 327.05 L 352.29 326.96 L 352.31 326.96 L 361.78 326.81 L 361.81 326.81 L 361.92 326.80 L 361.97 326.66 L 362.00 326.66 L 362.01 326.66 L 362.41 326.61 L 362.50 326.17 L 362.62 326.07 L 362.82 325.19 L 362.95 325.18 L 363.12 324.80 L 363.21 324.84 L 363.25 324.84 L 363.30 324.36 L 363.42 324.28 L 363.43 323.94 L 363.47 323.89 L 363.58 323.86 L 363.64 323.70 L 363.73 325.67 L 363.84 325.64 L 364.07 324.85 L 364.18 324.67 L 364.27 324.50 L 364.85 324.18 L 365.35 323.85 L 365.94 323.38 L 366.10 323.33 L 366.27 323.33 L 366.45 323.29 L 369.93 323.06 L 370.22 323.03 L 403.19 322.42 L 507.00 322.39 L 507.34 322.12 L 507.58 322.07 L 507.82 322.07 L 508.18 321.82 L 508.30 321.53 L 508.40 320.98 L 508.56 320.84 L 508.80 320.89 L 508.99 320.57 L 509.04 320.57 L 509.20 320.47 L 509.24 320.47 L 509.41 319.94 L 509.56 319.13 L 510.03 319.05 L 510.05 318.97 L 510.18 317.92 L 510.63 317.88 L 510.64 317.78 L 510.73 317.72 L 510.83 316.77 L 511.32 316.72 L 511.33 316.58 L 511.43 316.52 L 511.54 315.90 L 511.73 315.88 L 511.74 315.77 L 511.82 314.74 L 511.83 314.71 L 511.87 314.68 L 512.08 314.68 L 512.10 314.57 L 512.17 314.50 L 512.39 314.40 L 512.44 314.39 L 512.61 314.34 L 512.90 314.38 L 512.94 314.33 L 512.98 314.31 L 513.03 314.28 L 513.18 313.20 L 513.33 313.18 L 513.35 313.09 L 513.44 311.99 L 513.53 311.59 L 513.55 311.44 L 513.64 310.91 L 513.68 309.97 L 513.86 309.96 L 513.88 309.91 L 513.97 309.72 L 514.10 309.71 L 514.84 309.68 L 515.22 309.66 L 523.32 309.70 L 523.41 309.49 L 523.49 309.34 L 523.62 308.59 L 523.93 308.58 L 523.95 308.50 L 524.01 307.56 L 524.20 307.56 L 524.22 307.47 L 525.99 307.37 L 526.10 307.03 L 526.99 306.87 L 527.09 306.83 L 527.20 305.79 L 528.27 305.49 L 528.73 305.24 L 528.84 304.46 L 529.23 304.45 L 529.47 304.02 L 529.87 303.34 L 530.58 302.94 L 541.44 302.93 L 542.09 302.92 L 542.11 302.92 L 543.02 302.77 L 543.07 302.69 L 543.39 302.62 L 543.76 301.75 L 543.76 301.75 L 543.80 301.71 L 544.28 301.53 L 545.40 300.94 L 545.47 300.88 L 545.58 300.88 L 545.75 300.63 L 545.80 300.59 L 545.87 300.55 L 546.38 300.55 L 546.80 300.55 L 547.02 300.55 L 547.06 300.51 L 547.52 299.62 L 547.88 299.54 L 547.89 299.47 L 547.94 299.38 L 547.99 299.16 L 559.76 299.00 L 559.79 298.98 L 559.82 298.96 L 560.05 298.85 L 560.23 298.74 L 561.26 298.24 L 561.52 298.14 L 562.27 297.75 L 562.91 297.70 L 563.39 297.54 L 563.52 296.23 L 564.12 296.01 L 564.34 295.94 L 564.42 295.00 L 566.16 294.09 L 566.18 294.09 L 566.27 293.67 L 566.60 293.63 L 566.61 293.63 L 566.63 293.52 L 566.69 293.41 L 566.84 293.31 L 567.03 292.67 L 568.83 292.33 L 569.07 292.18 L 569.23 291.83 L 569.26 291.79 L 569.29 291.56 L 577.31 290.74 L 577.57 290.14 L 577.72 290.12 L 577.78 289.72 L 578.54 289.56 L 578.70 289.13 L 578.84 289.13 L 578.92 288.25 L 579.18 288.05 L 579.22 288.02 L 579.55 287.97 L 579.63 287.24 L 579.92 287.15 L 579.98 286.59 L 580.22 286.53 L 580.39 286.20 L 580.53 285.56 L 580.83 285.44 L 580.86 284.79 L 581.25 286.25 L 581.29 286.25 L 581.35 285.42 L 581.43 285.42 L 581.47 285.35 L 581.92 285.28 L 582.57 284.93 L 582.89 285.11 L 583.95 285.08 L 583.97 285.08 L 584.14 285.06 L 584.21 285.04 L 584.33 284.93 L 584.46 284.83 L 584.60 284.67 L 584.92 284.46 L 585.23 284.45 L 586.18 284.35 L 586.22 284.34 L 587.17 284.23 L 587.58 284.17 L 595.69 284.13 L 596.10 284.09 L 596.30 284.09 L 596.39 284.09 L 596.42 284.09 L 596.62 284.07 L 596.72 284.04 L 596.96 283.89 L 597.10 283.86 L 597.63 283.85 L 597.90 283.78 L 598.36 283.74 L 598.49 283.71 L 598.64 283.64 L 598.84 283.54 L 599.54 283.51 L 599.61 283.49 L 600.63 283.33 L 600.79 283.07 L 601.00 282.98 L 601.49 282.82 L 601.72 282.74 L 601.84 283.10 L 601.94 283.09 L 602.08 282.95 L 602.51 282.61 L 602.97 282.52 L 603.38 282.45 L 603.43 282.41 L 603.47 282.16 L 632.83 282.11 L 633.03 282.04 L 649.91 281.97 L 650.00 282.33"/>
	</g>
	<g class="poloto_legend poloto_imgs poloto_line poloto0 poloto_stroke"><line x1="680" x2="730" y1="81.25" y2="81.25"/></g>
	<g class="poloto_legend poloto_imgs poloto_line poloto1 poloto_stroke"><line x1="680" x2="730" y1="131.25" y2="131.25"/></g>
	<g class="poloto_legend poloto_imgs poloto_line poloto2 poloto_stroke"><line x1="680" x2="730" y1="181.25" y2="181.25"/></g>
	<text class="poloto_legend poloto_text poloto_line poloto0" x="675" y="100">total</text>
	<text class="poloto_legend poloto_text poloto_line poloto1" x="675" y="150">code</text>
	<text class="poloto_legend poloto_text poloto_line poloto2" x="675" y="200">docs</text>
	<text class="poloto_text poloto_name poloto_title" x="400.00" y="37.50">Workspace lines over time</text>
	<text class="poloto_text poloto_name poloto_x" x="400.00" y="640">date (JST)</text>
	<text class="poloto_text poloto_name poloto_y" x="37.50" y="250.00" transform="rotate(-90,37.50,250.00)">lines</text>
	<text class="poloto_text poloto_ticks poloto_y">
		<tspan x="135.00" y="400.00">0</tspan>
		<tspan x="135.00" y="322.68">50K</tspan>
		<tspan x="135.00" y="245.37">100K</tspan>
		<tspan x="135.00" y="168.05">150K</tspan>
	</text>
	<g class="poloto_imgs poloto_ticks poloto_y" stroke="black">
		<line x1="150.00" x2="144.00" y1="400.00" y2="400.00"/>
		<line x1="150.00" x2="144.00" y1="322.68" y2="322.68"/>
		<line x1="150.00" x2="144.00" y1="245.37" y2="245.37"/>
		<line x1="150.00" x2="144.00" y1="168.05" y2="168.05"/>
	</g>
	<g class="poloto_text poloto_ticks poloto_x">
		<text x="217.86" y="430.00" text-anchor="end" transform="rotate(-90 217.86 430.00)">2026-04-24 12:06</text>
		<text x="322.33" y="430.00" text-anchor="end" transform="rotate(-90 322.33 430.00)">2026-04-30 07:00</text>
		<text x="426.79" y="430.00" text-anchor="end" transform="rotate(-90 426.79 430.00)">2026-05-06 01:53</text>
		<text x="531.25" y="430.00" text-anchor="end" transform="rotate(-90 531.25 430.00)">2026-05-11 20:46</text>
		<text x="635.71" y="430.00" text-anchor="end" transform="rotate(-90 635.71 430.00)">2026-05-17 15:40</text>
	</g>
	<g class="poloto_imgs poloto_ticks poloto_x" stroke="black">
		<line x1="217.86" x2="217.86" y1="400.00" y2="405.00"/>
		<line x1="322.33" x2="322.33" y1="400.00" y2="405.00"/>
		<line x1="426.79" x2="426.79" y1="400.00" y2="405.00"/>
		<line x1="531.25" x2="531.25" y1="400.00" y2="405.00"/>
		<line x1="635.71" x2="635.71" y1="400.00" y2="405.00"/>
	</g>
	<path class="poloto_imgs poloto_ticks poloto_x" stroke="black" style="stroke-dasharray:10.446242591002443;stroke-dashoffset:-67.86359714274295;" d=" M 150.00 400.00 L 650.00 400.00"/>
	<path class="poloto_imgs poloto_ticks poloto_y" stroke="black" style="stroke-dasharray:7.731560228854183;stroke-dashoffset:-0;" d=" M 150.00 400.00 L 150.00 100.00"/>
</svg>

