<svg class="poloto" width="800" height="680" viewBox="0 0 800 680" xmlns="http://www.w3.org/2000/svg">
	<style>
.poloto{
  stroke-linecap:round;
  stroke-linejoin:round;
  font-family:Roboto,sans-serif;
  font-size:16px;
}
.poloto_background{fill:AliceBlue;}
.poloto_scatter{stroke-width:7}
.poloto_line{stroke-width:2}
.poloto_text{fill: black;}
.poloto_name{font-size:24px;dominant-baseline:auto;text-anchor:middle;}
.poloto_where{dominant-baseline:middle;text-anchor:start}
.poloto_text.poloto_legend{font-size:20px;dominant-baseline:middle;text-anchor:start;}
.poloto_text.poloto_ticks.poloto_y{dominant-baseline:middle;text-anchor:end}
.poloto_text.poloto_ticks.poloto_x{dominant-baseline:auto;text-anchor:middle}
.poloto_imgs.poloto_ticks{stroke: black;stroke-width:3;fill:none;stroke-dasharray:none}
.poloto_grid{stroke:gray;stroke-width:0.5}

.poloto0.poloto_stroke{stroke:blue;}
.poloto1.poloto_stroke{stroke:red;}
.poloto2.poloto_stroke{stroke:green;}
.poloto3.poloto_stroke{stroke:gold;}
.poloto4.poloto_stroke{stroke:aqua;}
.poloto5.poloto_stroke{stroke:lime;}
.poloto6.poloto_stroke{stroke:orange;}
.poloto7.poloto_stroke{stroke:chocolate;}
.poloto0.poloto_fill{fill:blue;}
.poloto1.poloto_fill{fill:red;}
.poloto2.poloto_fill{fill:green;}
.poloto3.poloto_fill{fill:gold;}
.poloto4.poloto_fill{fill:aqua;}
.poloto5.poloto_fill{fill:lime;}
.poloto6.poloto_fill{fill:orange;}
.poloto7.poloto_fill{fill:chocolate;}
	</style>
	<circle r="1e5" class="poloto_background" fill="white"/>
	<g id="poloto_plot0" class="poloto_plot poloto_imgs poloto_line poloto0 poloto_stroke" fill="none" stroke="black">
		<path d=" M 150.00 370.29 L 150.03 370.27 L 150.04 370.25 L 150.05 370.25 L 150.07 370.25 L 150.10 367.03 L 150.20 366.64 L 150.45 366.62 L 150.81 366.36 L 151.00 364.72 L 151.37 364.62 L 151.43 364.53 L 151.48 364.50 L 151.91 363.70 L 152.72 363.05 L 152.98 360.51 L 153.04 360.52 L 153.53 360.42 L 154.09 360.41 L 154.10 360.41 L 154.10 360.41 L 161.70 360.41 L 161.75 360.40 L 161.85 360.38 L 161.89 360.35 L 162.18 360.21 L 162.31 360.17 L 162.63 359.93 L 162.68 359.83 L 162.77 359.60 L 162.87 359.57 L 162.89 359.56 L 162.97 359.50 L 163.06 359.50 L 163.14 359.51 L 163.35 359.13 L 163.54 358.90 L 163.57 358.90 L 163.66 358.76 L 164.27 359.34 L 164.28 359.34 L 164.35 359.25 L 164.70 358.81 L 164.98 358.30 L 165.29 358.07 L 165.35 358.03 L 165.36 358.03 L 165.42 357.83 L 165.54 357.83 L 165.69 357.76 L 165.99 357.56 L 166.01 357.26 L 166.06 357.26 L 166.13 357.10 L 166.30 357.10 L 166.32 357.10 L 166.50 356.67 L 166.57 356.65 L 166.63 356.61 L 166.70 356.44 L 167.63 356.20 L 167.85 356.16 L 168.37 355.85 L 168.48 355.85 L 168.56 355.84 L 168.60 355.62 L 168.96 354.34 L 169.11 354.31 L 169.30 353.89 L 169.39 353.85 L 169.60 353.49 L 169.69 353.36 L 169.82 353.13 L 169.94 352.93 L 170.35 349.98 L 170.36 349.91 L 170.38 349.74 L 170.52 348.32 L 177.56 348.21 L 178.29 346.60 L 178.32 346.56 L 179.18 346.31 L 179.25 346.30 L 179.33 345.98 L 179.54 345.82 L 179.64 345.54 L 179.67 345.30 L 179.78 344.88 L 180.04 344.87 L 180.04 344.59 L 180.14 344.27 L 180.24 344.27 L 180.34 343.91 L 180.48 343.66 L 180.54 343.53 L 180.56 343.52 L 180.68 343.25 L 180.70 343.24 L 180.83 342.96 L 180.85 342.96 L 181.05 341.62 L 181.09 341.62 L 181.16 341.40 L 181.24 341.39 L 181.36 341.39 L 181.41 341.36 L 181.80 341.11 L 181.81 341.12 L 181.89 340.53 L 182.07 340.51 L 182.22 339.63 L 182.27 339.55 L 182.35 339.54 L 182.38 339.51 L 182.47 338.82 L 182.92 333.03 L 182.96 332.75 L 183.11 332.73 L 183.16 332.66 L 183.19 332.64 L 183.27 332.49 L 183.34 331.83 L 183.49 331.70 L 183.60 331.68 L 183.69 331.39 L 183.74 331.38 L 184.14 331.17 L 184.35 331.01 L 184.42 330.75 L 184.61 330.74 L 184.62 330.74 L 184.64 330.71 L 184.76 329.32 L 184.85 329.24 L 185.18 327.83 L 185.23 327.43 L 185.29 327.42 L 185.38 327.27 L 185.39 327.16 L 185.43 327.09 L 185.46 327.05 L 185.50 327.05 L 185.55 326.98 L 185.68 325.83 L 185.77 325.66 L 185.86 325.32 L 185.99 325.30 L 186.13 325.19 L 186.27 324.38 L 186.37 323.26 L 186.58 323.19 L 186.58 322.77 L 186.70 322.63 L 196.54 322.64 L 196.73 322.62 L 197.19 322.03 L 197.29 322.01 L 197.37 322.01 L 197.38 321.87 L 197.55 321.68 L 197.67 321.65 L 197.73 321.54 L 197.80 321.46 L 197.84 321.42 L 198.02 321.37 L 198.37 321.30 L 198.46 320.99 L 198.53 320.91 L 198.62 320.90 L 199.07 320.75 L 199.13 320.66 L 199.17 320.66 L 199.19 320.54 L 199.30 320.49 L 199.37 320.38 L 199.70 319.62 L 200.18 319.51 L 200.35 319.46 L 200.88 319.27 L 201.13 315.63 L 201.21 315.55 L 201.32 315.20 L 201.48 314.72 L 201.71 314.59 L 202.05 314.57 L 202.49 314.56 L 202.56 314.40 L 202.89 314.23 L 203.10 313.97 L 203.16 313.86 L 203.29 313.82 L 203.39 313.50 L 204.55 313.14 L 205.66 313.14 L 215.56 313.11 L 215.63 312.95 L 215.68 312.85 L 215.99 312.69 L 216.92 311.44 L 216.96 311.35 L 217.09 311.03 L 217.54 310.95 L 217.76 310.10 L 218.08 310.09 L 218.16 310.08 L 218.23 309.50 L 218.81 306.19 L 218.88 306.19 L 219.00 306.16 L 219.12 306.12 L 219.18 305.76 L 219.50 304.51 L 219.62 304.28 L 219.67 304.26 L 219.74 303.68 L 219.89 302.87 L 219.94 302.01 L 220.09 301.63 L 220.52 297.33 L 220.56 296.89 L 220.60 296.89 L 220.67 296.81 L 220.77 296.70 L 220.82 296.67 L 220.86 296.62 L 221.06 295.59 L 221.11 294.86 L 221.36 294.72 L 221.51 293.63 L 221.61 292.95 L 222.37 282.92 L 222.46 282.90 L 251.56 282.42 L 251.59 282.42 L 262.71 282.28 L 263.32 282.01 L 263.44 282.01 L 263.60 281.93 L 263.66 281.80 L 263.72 281.77 L 268.55 281.70 L 269.18 279.79 L 269.42 279.62 L 269.55 278.92 L 272.55 278.78 L 272.57 278.58 L 272.76 278.57 L 273.65 277.36 L 273.71 277.14 L 273.82 277.07 L 274.13 276.98 L 274.18 276.95 L 274.30 276.59 L 274.44 276.49 L 274.46 276.23 L 283.81 275.86 L 283.88 274.83 L 284.25 274.60 L 284.25 272.88 L 284.32 272.63 L 284.40 272.21 L 284.50 271.02 L 284.66 270.39 L 284.79 269.66 L 284.91 269.65 L 284.96 269.09 L 285.15 269.04 L 285.80 266.27 L 286.06 265.97 L 286.10 265.80 L 286.16 265.79 L 286.19 265.60 L 286.28 264.92 L 286.54 264.59 L 286.58 264.55 L 286.74 262.11 L 286.80 262.11 L 286.83 261.84 L 286.89 261.65 L 286.93 261.64 L 286.96 261.28 L 287.17 259.96 L 287.26 259.58 L 287.37 259.54 L 287.45 256.01 L 287.48 255.72 L 287.69 253.71 L 287.75 253.56 L 287.78 253.55 L 287.84 253.55 L 287.87 253.26 L 287.90 253.27 L 287.91 253.27 L 288.01 249.71 L 288.05 249.40 L 288.15 249.38 L 288.22 249.32 L 288.43 249.22 L 288.69 249.08 L 288.70 249.08 L 288.77 249.04 L 289.01 248.97 L 289.12 248.97 L 289.24 248.97 L 289.36 247.42 L 289.44 247.05 L 289.77 247.04 L 289.80 246.80 L 289.84 246.79 L 289.87 246.53 L 290.08 244.29 L 290.12 244.23 L 290.28 244.22 L 304.66 244.15 L 305.48 244.04 L 305.50 244.04 L 305.67 244.04 L 305.68 244.04 L 305.78 243.59 L 305.86 243.57 L 305.93 243.35 L 306.03 243.30 L 306.06 243.27 L 306.10 243.25 L 306.25 243.00 L 306.56 242.78 L 306.76 242.05 L 306.98 241.37 L 306.99 241.33 L 307.03 240.69 L 307.06 240.67 L 307.48 240.29 L 307.49 240.24 L 307.56 239.73 L 307.74 239.68 L 307.86 239.63 L 307.89 238.72 L 307.89 238.68 L 307.94 239.54 L 307.98 239.01 L 307.99 238.99 L 308.10 237.77 L 308.11 237.74 L 308.33 237.64 L 308.95 237.62 L 309.09 237.58 L 309.14 237.57 L 309.17 237.41 L 309.20 237.41 L 309.29 236.81 L 319.12 235.65 L 319.14 235.49 L 319.22 235.38 L 319.24 235.15 L 319.30 225.00 L 319.41 220.85 L 319.42 220.82 L 319.60 220.74 L 319.64 220.74 L 319.67 220.26 L 319.83 220.22 L 320.26 219.23 L 320.27 219.21 L 320.38 218.91 L 320.42 218.92 L 320.44 218.43 L 320.80 217.85 L 320.81 217.83 L 321.34 217.61 L 321.41 217.09 L 321.60 217.10 L 321.82 215.79 L 321.88 215.27 L 321.92 214.85 L 322.02 214.35 L 322.30 214.17 L 322.35 214.04 L 322.47 213.93 L 322.60 213.93 L 323.01 213.93 L 323.06 213.93 L 323.16 213.91 L 323.16 213.90 L 323.30 213.92 L 323.61 213.89 L 323.93 213.70 L 323.98 213.70 L 324.05 213.62 L 324.14 213.48 L 324.39 213.48 L 324.81 213.30 L 324.94 212.90 L 325.17 209.40 L 326.07 212.36 L 326.27 212.34 L 326.41 212.33 L 326.64 212.32 L 326.71 212.27 L 326.94 212.10 L 327.29 211.86 L 327.34 211.70 L 327.41 211.63 L 327.45 211.65 L 327.48 211.60 L 327.76 211.38 L 334.28 211.38 L 334.34 211.38 L 334.74 211.37 L 334.78 211.35 L 334.87 210.91 L 334.95 210.65 L 334.96 210.65 L 335.18 210.62 L 335.24 210.59 L 336.57 209.94 L 336.73 209.88 L 336.84 209.87 L 336.87 209.86 L 337.28 209.70 L 337.42 209.78 L 337.45 209.78 L 337.67 209.73 L 337.91 208.35 L 337.94 208.34 L 338.15 208.19 L 338.23 208.19 L 338.31 208.19 L 338.47 208.03 L 338.84 207.47 L 338.91 207.45 L 338.97 207.30 L 339.12 206.64 L 339.48 205.95 L 339.80 202.74 L 339.86 202.34 L 340.19 202.19 L 340.24 202.10 L 340.30 201.95 L 340.33 201.43 L 340.44 200.50 L 340.47 200.54 L 340.52 200.52 L 340.71 200.52 L 340.99 200.18 L 341.17 200.11 L 341.37 200.10 L 341.46 200.09 L 341.66 200.08 L 341.99 200.08 L 342.32 200.07 L 342.57 200.07 L 342.62 200.06 L 342.69 200.05 L 342.69 199.93 L 342.88 199.87 L 342.94 199.86 L 343.02 199.72 L 343.55 199.69 L 343.56 199.42 L 343.70 199.40 L 344.33 199.41 L 344.74 199.24 L 345.04 199.03 L 345.05 198.92 L 345.08 198.92 L 354.20 198.73 L 354.23 198.72 L 354.34 198.71 L 354.39 198.55 L 354.42 198.53 L 354.43 198.52 L 354.82 198.48 L 354.90 197.90 L 355.02 197.77 L 355.21 196.62 L 355.34 196.61 L 355.49 196.12 L 355.58 196.18 L 355.62 196.18 L 355.67 195.62 L 355.78 195.24 L 355.80 194.83 L 355.84 194.78 L 355.94 194.74 L 356.00 194.55 L 356.08 196.74 L 356.19 196.70 L 356.42 195.83 L 356.52 195.61 L 356.60 195.43 L 357.16 194.17 L 357.64 193.57 L 358.22 192.40 L 358.37 192.35 L 358.53 192.35 L 358.71 192.30 L 362.06 191.97 L 362.34 191.94 L 394.13 191.05 L 494.23 190.85 L 494.56 190.49 L 494.79 190.44 L 495.02 190.44 L 495.37 189.76 L 495.49 189.43 L 495.58 188.82 L 495.74 187.05 L 495.97 187.42 L 496.16 187.03 L 496.20 187.03 L 496.35 186.91 L 496.39 186.91 L 496.55 186.27 L 496.70 185.23 L 497.15 184.13 L 497.17 184.04 L 497.30 182.73 L 497.73 179.48 L 497.74 179.37 L 497.82 179.30 L 497.93 178.14 L 498.39 176.57 L 498.40 176.43 L 498.51 176.36 L 498.61 175.59 L 498.79 174.98 L 498.80 174.86 L 498.87 173.67 L 498.89 173.65 L 498.93 173.31 L 499.13 171.20 L 499.15 171.08 L 499.22 170.95 L 499.43 170.67 L 499.47 170.66 L 499.64 170.26 L 499.92 170.31 L 499.96 170.25 L 500.00 170.23 L 500.05 170.19 L 500.19 168.95 L 500.34 167.94 L 500.36 167.85 L 500.44 166.58 L 500.52 165.35 L 500.54 165.19 L 500.63 163.75 L 500.67 162.61 L 500.84 161.84 L 500.87 161.78 L 500.95 161.55 L 501.08 161.53 L 501.79 161.49 L 502.15 161.46 L 509.97 161.51 L 510.05 161.29 L 510.13 161.10 L 510.26 160.24 L 510.55 160.02 L 510.58 159.94 L 510.63 158.81 L 510.82 157.72 L 510.84 157.63 L 512.55 157.55 L 512.65 156.94 L 513.51 156.76 L 513.61 156.71 L 513.71 155.44 L 514.74 154.25 L 515.19 153.80 L 515.29 152.87 L 515.67 151.27 L 515.90 150.81 L 516.28 149.88 L 516.97 149.40 L 527.44 149.39 L 528.06 149.28 L 528.09 149.30 L 528.97 149.12 L 529.01 149.03 L 529.32 148.95 L 529.67 147.91 L 529.68 147.91 L 529.71 147.87 L 530.18 146.68 L 531.26 146.01 L 531.33 145.95 L 531.44 145.94 L 531.60 145.62 L 531.64 145.54 L 531.71 145.48 L 532.21 145.44 L 532.61 145.44 L 532.82 145.44 L 532.85 145.39 L 533.30 144.35 L 533.65 144.16 L 533.66 144.08 L 533.70 143.99 L 533.75 143.71 L 545.11 143.32 L 545.13 143.30 L 545.16 143.28 L 545.38 143.16 L 545.55 143.04 L 546.55 141.44 L 546.80 141.25 L 547.52 140.77 L 548.15 140.66 L 548.60 140.50 L 548.73 139.03 L 549.31 137.30 L 549.52 137.18 L 549.60 136.07 L 551.28 134.02 L 551.29 134.02 L 551.39 133.52 L 551.70 133.47 L 551.71 133.47 L 551.73 133.34 L 551.78 133.18 L 551.93 133.02 L 552.11 132.16 L 553.85 130.09 L 554.08 129.84 L 554.24 129.47 L 554.26 129.43 L 554.29 129.14 L 562.03 128.20 L 562.28 127.49 L 562.43 127.46 L 562.48 126.99 L 563.21 126.77 L 563.36 126.30 L 563.50 126.30 L 563.58 125.31 L 563.83 122.78 L 563.86 122.74 L 564.19 122.70 L 564.26 121.87 L 564.54 120.89 L 564.60 120.20 L 564.83 119.57 L 565.00 119.24 L 565.13 118.48 L 565.42 117.84 L 565.45 117.12 L 565.83 116.96 L 565.86 116.96 L 565.92 116.04 L 566.00 116.04 L 566.04 115.97 L 566.47 114.26 L 567.09 113.69 L 567.40 113.88 L 568.43 113.80 L 568.45 113.79 L 568.61 113.77 L 568.68 113.75 L 568.80 113.63 L 568.92 113.53 L 569.06 113.35 L 569.37 113.10 L 569.66 113.08 L 570.58 112.91 L 570.62 112.90 L 571.53 112.74 L 571.93 112.63 L 579.75 112.62 L 580.14 112.49 L 580.34 112.41 L 580.43 112.41 L 580.45 112.41 L 580.65 112.38 L 580.74 112.33 L 580.97 112.16 L 581.11 112.13 L 581.62 111.96 L 581.88 111.57 L 582.33 111.51 L 582.45 111.27 L 582.60 111.11 L 582.79 110.91 L 583.47 110.97 L 583.53 110.95 L 584.52 110.47 L 584.67 110.19 L 584.87 110.10 L 585.35 109.87 L 585.57 109.94 L 585.68 110.31 L 585.78 110.29 L 585.91 110.13 L 586.33 109.00 L 586.77 108.88 L 587.17 108.79 L 587.21 108.74 L 587.26 108.42 L 615.56 108.34 L 615.75 108.20 L 632.04 107.84 L 632.12 108.25 L 632.25 106.52 L 632.27 106.52 L 632.32 106.57 L 632.90 103.06 L 632.96 103.03 L 633.68 103.11 L 634.41 102.89 L 634.66 102.56 L 635.12 102.14 L 635.73 101.87 L 635.74 101.87 L 635.82 101.80 L 636.06 101.73 L 636.13 101.56 L 636.72 100.71 L 637.48 100.53 L 637.56 100.36 L 637.95 100.29 L 638.06 100.96 L 638.35 100.72 L 638.60 100.66 L 639.09 100.48 L 639.56 100.39 L 639.80 100.01 L 639.81 100.01 L 650.00 100.00"/>
	</g>
	<g id="poloto_plot1" class="poloto_plot poloto_imgs poloto_line poloto1 poloto_stroke" fill="none" stroke="black">
		<path d=" M 150.00 382.35 L 150.03 382.33 L 150.04 382.32 L 150.05 382.32 L 150.07 382.32 L 150.10 381.76 L 150.20 381.74 L 150.45 381.73 L 150.81 381.52 L 151.00 381.43 L 151.37 381.45 L 151.43 381.41 L 151.48 381.41 L 151.91 381.37 L 152.72 381.26 L 152.98 379.08 L 153.04 379.08 L 153.53 379.03 L 154.09 379.02 L 154.10 379.02 L 154.10 379.02 L 161.70 379.02 L 161.75 379.02 L 161.85 379.02 L 161.89 378.99 L 162.18 378.98 L 162.31 378.98 L 162.63 378.98 L 162.68 378.98 L 162.77 378.96 L 162.87 378.96 L 162.89 378.96 L 162.97 378.94 L 163.06 378.94 L 163.14 378.94 L 163.35 378.81 L 163.54 378.81 L 163.57 378.81 L 163.66 378.81 L 164.27 379.63 L 164.28 379.63 L 164.35 379.62 L 164.70 379.50 L 164.98 379.36 L 165.29 379.30 L 165.35 379.26 L 165.36 379.26 L 165.42 379.26 L 165.54 379.26 L 165.69 379.21 L 165.99 379.16 L 166.01 379.16 L 166.06 379.16 L 166.13 379.14 L 166.30 379.14 L 166.32 379.14 L 166.50 379.13 L 166.57 379.13 L 166.63 379.13 L 166.70 379.13 L 167.63 379.03 L 167.85 379.03 L 168.37 378.98 L 168.48 378.98 L 168.56 378.98 L 168.60 378.98 L 168.96 378.92 L 169.11 378.92 L 169.30 378.84 L 169.39 378.83 L 169.60 378.65 L 169.69 378.59 L 169.82 378.59 L 169.94 378.59 L 170.35 376.03 L 170.36 375.99 L 170.38 375.99 L 170.52 375.74 L 177.56 375.74 L 178.29 374.64 L 178.32 374.64 L 179.18 374.64 L 179.25 374.64 L 179.33 374.53 L 179.54 374.51 L 179.64 374.51 L 179.67 374.51 L 179.78 374.51 L 180.04 374.51 L 180.04 374.27 L 180.14 374.26 L 180.24 374.26 L 180.34 374.24 L 180.48 374.23 L 180.54 374.23 L 180.56 374.23 L 180.68 374.23 L 180.70 374.23 L 180.83 374.23 L 180.85 374.23 L 181.05 373.15 L 181.09 373.15 L 181.16 373.02 L 181.24 373.02 L 181.36 373.02 L 181.41 373.00 L 181.80 373.00 L 181.81 373.00 L 181.89 372.94 L 182.07 372.94 L 182.22 372.32 L 182.27 372.24 L 182.35 372.24 L 182.38 372.24 L 182.47 372.22 L 182.92 367.66 L 182.96 367.70 L 183.11 367.70 L 183.16 367.70 L 183.19 367.69 L 183.27 367.69 L 183.34 367.63 L 183.49 367.63 L 183.60 367.63 L 183.69 367.62 L 183.74 367.62 L 184.14 367.62 L 184.35 367.61 L 184.42 367.50 L 184.61 367.50 L 184.62 367.50 L 184.64 367.50 L 184.76 367.19 L 184.85 367.11 L 185.18 366.03 L 185.23 366.03 L 185.29 366.03 L 185.38 366.05 L 185.39 366.05 L 185.43 366.05 L 185.46 366.05 L 185.50 366.05 L 185.55 366.05 L 185.68 366.02 L 185.77 366.02 L 185.86 366.01 L 185.99 366.01 L 186.13 366.00 L 186.27 365.60 L 186.37 365.46 L 186.58 365.46 L 186.58 365.46 L 186.70 365.46 L 196.54 365.46 L 196.73 365.45 L 197.19 365.38 L 197.29 365.37 L 197.37 365.37 L 197.38 365.37 L 197.55 365.37 L 197.67 365.37 L 197.73 365.37 L 197.80 365.37 L 197.84 365.37 L 198.02 365.37 L 198.37 365.39 L 198.46 365.39 L 198.53 365.39 L 198.62 365.39 L 199.07 365.30 L 199.13 365.26 L 199.17 365.26 L 199.19 365.20 L 199.30 365.20 L 199.37 365.20 L 199.70 364.79 L 200.18 364.79 L 200.35 364.79 L 200.88 364.79 L 201.13 361.99 L 201.21 361.99 L 201.32 361.99 L 201.48 361.99 L 201.71 361.99 L 202.05 361.99 L 202.49 361.99 L 202.56 361.99 L 202.89 361.92 L 203.10 361.80 L 203.16 361.80 L 203.29 361.80 L 203.39 361.79 L 204.55 361.61 L 205.66 361.61 L 215.56 361.61 L 215.63 361.61 L 215.68 361.61 L 215.99 361.61 L 216.92 360.73 L 216.96 360.70 L 217.09 360.61 L 217.54 360.61 L 217.76 360.39 L 218.08 360.40 L 218.16 360.40 L 218.23 360.40 L 218.81 357.95 L 218.88 357.95 L 219.00 357.95 L 219.12 357.95 L 219.18 357.79 L 219.50 357.50 L 219.62 357.50 L 219.67 357.50 L 219.74 357.05 L 219.89 356.59 L 219.94 356.59 L 220.09 356.58 L 220.52 352.94 L 220.56 352.94 L 220.60 352.94 L 220.67 352.94 L 220.77 352.94 L 220.82 352.94 L 220.86 352.94 L 221.06 352.94 L 221.11 352.86 L 221.36 352.84 L 221.51 352.79 L 221.61 352.35 L 222.37 345.09 L 222.46 345.09 L 251.56 345.09 L 251.59 345.09 L 262.71 345.09 L 263.32 344.98 L 263.44 344.98 L 263.60 344.98 L 263.66 344.98 L 263.72 344.98 L 268.55 344.92 L 269.18 344.85 L 269.42 344.85 L 269.55 344.83 L 272.55 344.77 L 272.57 344.67 L 272.76 344.67 L 273.65 343.69 L 273.71 343.69 L 273.82 343.69 L 274.13 343.69 L 274.18 343.69 L 274.30 343.69 L 274.44 343.69 L 274.46 343.69 L 283.81 343.67 L 283.88 343.50 L 284.25 343.50 L 284.25 342.31 L 284.32 342.31 L 284.40 342.31 L 284.50 342.20 L 284.66 342.20 L 284.79 342.15 L 284.91 342.15 L 284.96 342.15 L 285.15 342.14 L 285.80 340.12 L 286.06 340.12 L 286.10 340.11 L 286.16 340.11 L 286.19 340.11 L 286.28 340.07 L 286.54 339.83 L 286.58 339.79 L 286.74 337.98 L 286.80 337.97 L 286.83 337.97 L 286.89 337.95 L 286.93 337.95 L 286.96 337.94 L 287.17 336.96 L 287.26 336.95 L 287.37 336.92 L 287.45 333.86 L 287.48 333.86 L 287.69 332.13 L 287.75 332.13 L 287.78 332.13 L 287.84 332.13 L 287.87 332.13 L 287.90 332.13 L 287.91 332.13 L 288.01 328.94 L 288.05 328.94 L 288.15 328.93 L 288.22 328.93 L 288.43 328.86 L 288.69 328.77 L 288.70 328.77 L 288.77 328.76 L 289.01 328.70 L 289.12 328.70 L 289.24 328.70 L 289.36 327.33 L 289.44 327.33 L 289.77 327.32 L 289.80 327.32 L 289.84 327.32 L 289.87 327.32 L 290.08 325.35 L 290.12 325.35 L 290.28 325.34 L 304.66 325.34 L 305.48 325.33 L 305.50 325.33 L 305.67 325.33 L 305.68 325.33 L 305.78 325.33 L 305.86 325.33 L 305.93 325.23 L 306.03 325.23 L 306.06 325.23 L 306.10 325.23 L 306.25 325.05 L 306.56 324.94 L 306.76 324.82 L 306.98 324.27 L 306.99 324.27 L 307.03 324.13 L 307.06 324.11 L 307.48 323.77 L 307.49 323.77 L 307.56 323.72 L 307.74 323.72 L 307.86 323.69 L 307.89 322.88 L 307.89 322.88 L 307.94 323.68 L 307.98 323.63 L 307.99 323.62 L 308.10 322.53 L 308.11 322.53 L 308.33 322.49 L 308.95 322.49 L 309.09 322.49 L 309.14 322.49 L 309.17 322.49 L 309.20 322.49 L 309.29 322.42 L 319.12 321.51 L 319.14 321.51 L 319.22 321.50 L 319.24 321.31 L 319.30 311.61 L 319.41 308.01 L 319.42 308.01 L 319.60 307.94 L 319.64 307.94 L 319.67 307.93 L 319.83 307.93 L 320.26 307.05 L 320.27 307.05 L 320.38 307.00 L 320.42 307.00 L 320.44 306.92 L 320.80 306.40 L 320.81 306.40 L 321.34 306.29 L 321.41 306.25 L 321.60 306.26 L 321.82 305.07 L 321.88 304.95 L 321.92 304.84 L 322.02 304.39 L 322.30 304.28 L 322.35 304.19 L 322.47 304.19 L 322.60 304.19 L 323.01 304.19 L 323.06 304.19 L 323.16 304.19 L 323.16 304.19 L 323.30 304.20 L 323.61 304.20 L 323.93 304.08 L 323.98 304.08 L 324.05 304.06 L 324.14 304.06 L 324.39 304.06 L 324.81 304.06 L 324.94 303.96 L 325.17 300.83 L 326.07 303.78 L 326.27 303.77 L 326.41 303.76 L 326.64 303.76 L 326.71 303.72 L 326.94 303.70 L 327.29 303.52 L 327.34 303.52 L 327.41 303.52 L 327.45 303.52 L 327.48 303.52 L 327.76 303.35 L 334.28 303.35 L 334.34 303.36 L 334.74 303.34 L 334.78 303.34 L 334.87 303.31 L 334.95 303.10 L 334.96 303.09 L 335.18 303.07 L 335.24 303.07 L 336.57 302.89 L 336.73 302.89 L 336.84 302.89 L 336.87 302.89 L 337.28 302.76 L 337.42 302.76 L 337.45 302.76 L 337.67 302.76 L 337.91 302.02 L 337.94 302.02 L 338.15 301.89 L 338.23 301.89 L 338.31 301.89 L 338.47 301.89 L 338.84 301.88 L 338.91 301.86 L 338.97 301.79 L 339.12 301.67 L 339.48 301.55 L 339.80 298.60 L 339.86 298.50 L 340.19 298.36 L 340.24 298.33 L 340.30 298.22 L 340.33 298.02 L 340.44 297.13 L 340.47 297.17 L 340.52 297.15 L 340.71 297.15 L 340.99 297.03 L 341.17 296.98 L 341.37 296.97 L 341.46 296.96 L 341.66 296.95 L 341.99 296.95 L 342.32 296.94 L 342.57 296.93 L 342.62 296.93 L 342.69 296.93 L 342.69 296.92 L 342.88 296.92 L 342.94 296.91 L 343.02 296.80 L 343.55 296.79 L 343.56 296.79 L 343.70 296.78 L 344.33 296.77 L 344.74 296.63 L 345.04 296.50 L 345.05 296.50 L 345.08 296.50 L 354.20 296.50 L 354.23 296.50 L 354.34 296.50 L 354.39 296.50 L 354.42 296.48 L 354.43 296.48 L 354.82 296.48 L 354.90 296.47 L 355.02 296.45 L 355.21 296.43 L 355.34 296.43 L 355.49 296.36 L 355.58 296.36 L 355.62 296.36 L 355.67 296.36 L 355.78 296.09 L 355.80 296.09 L 355.84 296.09 L 355.94 296.09 L 356.00 296.09 L 356.08 296.16 L 356.19 296.16 L 356.42 296.14 L 356.52 296.14 L 356.60 296.14 L 357.16 295.28 L 357.64 295.05 L 358.22 294.42 L 358.37 294.42 L 358.53 294.42 L 358.71 294.42 L 362.06 294.35 L 362.34 294.34 L 394.13 294.23 L 494.23 294.07 L 494.56 294.02 L 494.79 294.02 L 495.02 294.02 L 495.37 293.62 L 495.49 293.62 L 495.58 293.62 L 495.74 292.16 L 495.97 292.44 L 496.16 292.42 L 496.20 292.42 L 496.35 292.41 L 496.39 292.41 L 496.55 292.40 L 496.70 292.34 L 497.15 291.42 L 497.17 291.42 L 497.30 291.34 L 497.73 288.36 L 497.74 288.36 L 497.82 288.36 L 497.93 288.31 L 498.39 286.93 L 498.40 286.93 L 498.51 286.93 L 498.61 286.89 L 498.79 286.39 L 498.80 286.39 L 498.87 286.38 L 498.89 286.38 L 498.93 286.10 L 499.13 284.13 L 499.15 284.13 L 499.22 284.13 L 499.43 283.97 L 499.47 283.97 L 499.64 283.64 L 499.92 283.64 L 499.96 283.64 L 500.00 283.64 L 500.05 283.64 L 500.19 283.63 L 500.34 282.75 L 500.36 282.75 L 500.44 282.74 L 500.52 282.07 L 500.54 282.07 L 500.63 281.36 L 500.67 281.32 L 500.84 280.61 L 500.87 280.61 L 500.95 280.61 L 501.08 280.60 L 501.79 280.60 L 502.15 280.59 L 509.97 280.59 L 510.05 280.59 L 510.13 280.59 L 510.26 280.59 L 510.55 280.41 L 510.58 280.41 L 510.63 280.35 L 510.82 279.36 L 510.84 279.36 L 512.55 279.38 L 512.65 279.19 L 513.51 279.19 L 513.61 279.18 L 513.71 279.11 L 514.74 278.30 L 515.19 278.15 L 515.29 278.09 L 515.67 276.56 L 515.90 276.56 L 516.28 276.43 L 516.97 276.43 L 527.44 276.43 L 528.06 276.33 L 528.09 276.35 L 528.97 276.35 L 529.01 276.35 L 529.32 276.35 L 529.67 276.32 L 529.68 276.32 L 529.71 276.32 L 530.18 275.42 L 531.26 275.40 L 531.33 275.40 L 531.44 275.40 L 531.60 275.36 L 531.64 275.33 L 531.71 275.33 L 532.21 275.29 L 532.61 275.29 L 532.82 275.29 L 532.85 275.29 L 533.30 275.27 L 533.65 275.17 L 533.66 275.17 L 533.70 275.17 L 533.75 275.17 L 545.11 274.96 L 545.13 274.96 L 545.16 274.96 L 545.38 274.96 L 545.55 274.96 L 546.55 274.07 L 546.80 274.01 L 547.52 273.95 L 548.15 273.90 L 548.60 273.90 L 548.73 273.90 L 549.31 272.56 L 549.52 272.52 L 549.60 272.48 L 551.28 271.53 L 551.29 271.53 L 551.39 271.52 L 551.70 271.51 L 551.71 271.51 L 551.73 271.51 L 551.78 271.48 L 551.93 271.45 L 552.11 271.34 L 553.85 269.79 L 554.08 269.71 L 554.24 269.71 L 554.26 269.71 L 554.29 269.71 L 562.03 269.71 L 562.28 269.70 L 562.43 269.70 L 562.48 269.70 L 563.21 269.70 L 563.36 269.70 L 563.50 269.70 L 563.58 269.67 L 563.83 267.63 L 563.86 267.61 L 564.19 267.63 L 564.26 267.61 L 564.54 266.82 L 564.60 266.78 L 564.83 266.26 L 565.00 266.26 L 565.13 266.22 L 565.42 265.74 L 565.45 265.74 L 565.83 264.23 L 565.86 264.23 L 565.92 264.22 L 566.00 264.22 L 566.04 264.22 L 566.47 262.70 L 567.09 262.57 L 567.40 262.57 L 568.43 262.52 L 568.45 262.52 L 568.61 262.52 L 568.68 262.52 L 568.80 262.52 L 568.92 262.52 L 569.06 262.51 L 569.37 262.49 L 569.66 262.49 L 570.58 262.42 L 570.62 262.42 L 571.53 262.38 L 571.93 262.34 L 579.75 262.35 L 580.14 262.28 L 580.34 262.20 L 580.43 262.20 L 580.45 262.20 L 580.65 262.19 L 580.74 262.19 L 580.97 262.19 L 581.11 262.18 L 581.62 262.05 L 581.88 261.77 L 582.33 261.75 L 582.45 261.57 L 582.60 261.49 L 582.79 261.40 L 583.47 261.49 L 583.53 261.49 L 584.52 261.20 L 584.67 261.20 L 584.87 261.20 L 585.35 261.18 L 585.57 261.31 L 585.68 261.31 L 585.78 261.31 L 585.91 261.31 L 586.33 260.66 L 586.77 260.64 L 587.17 260.64 L 587.21 260.64 L 587.26 260.64 L 615.56 260.64 L 615.75 260.59 L 632.04 260.37 L 632.12 260.37 L 632.25 260.32 L 632.27 260.32 L 632.32 260.32 L 632.90 257.79 L 632.96 257.79 L 633.68 257.79 L 634.41 257.68 L 634.66 257.43 L 635.12 257.10 L 635.73 257.02 L 635.74 257.02 L 635.82 256.97 L 636.06 256.97 L 636.13 256.92 L 636.72 256.24 L 637.48 256.12 L 637.56 256.12 L 637.95 256.12 L 638.06 256.12 L 638.35 255.95 L 638.60 255.93 L 639.09 255.79 L 639.56 255.71 L 639.80 255.71 L 639.81 255.71 L 650.00 255.71"/>
	</g>
	<g id="poloto_plot2" class="poloto_plot poloto_imgs poloto_line poloto2 poloto_stroke" fill="none" stroke="black">
		<path d=" M 150.00 392.08 L 150.03 392.07 L 150.04 392.07 L 150.05 392.07 L 150.07 392.07 L 150.10 390.05 L 150.20 389.77 L 150.45 389.76 L 150.81 389.75 L 151.00 388.54 L 151.37 388.43 L 151.43 388.40 L 151.48 388.37 L 151.91 387.82 L 152.72 387.40 L 152.98 387.32 L 153.04 387.32 L 153.53 387.29 L 154.09 387.29 L 154.10 387.29 L 154.10 387.29 L 161.70 387.29 L 161.75 387.28 L 161.85 387.27 L 161.89 387.27 L 162.18 387.14 L 162.31 387.11 L 162.63 386.91 L 162.68 386.82 L 162.77 386.65 L 162.87 386.62 L 162.89 386.62 L 162.97 386.59 L 163.06 386.59 L 163.14 386.59 L 163.35 386.38 L 163.54 386.20 L 163.57 386.20 L 163.66 386.09 L 164.27 385.84 L 164.28 385.84 L 164.35 385.77 L 164.70 385.50 L 164.98 385.17 L 165.29 385.03 L 165.35 385.03 L 165.36 385.04 L 165.42 384.85 L 165.54 384.85 L 165.69 384.83 L 165.99 384.69 L 166.01 384.45 L 166.06 384.45 L 166.13 384.34 L 166.30 384.34 L 166.32 384.34 L 166.50 383.98 L 166.57 383.96 L 166.63 383.93 L 166.70 383.76 L 167.63 383.67 L 167.85 383.63 L 168.37 383.39 L 168.48 383.39 L 168.56 383.37 L 168.60 383.19 L 168.96 382.20 L 169.11 382.18 L 169.30 381.88 L 169.39 381.86 L 169.60 381.72 L 169.69 381.68 L 169.82 381.46 L 169.94 381.29 L 170.35 381.29 L 170.36 381.26 L 170.38 381.12 L 170.52 380.17 L 177.56 380.07 L 178.29 379.78 L 178.32 379.74 L 179.18 379.50 L 179.25 379.50 L 179.33 379.32 L 179.54 379.20 L 179.64 378.98 L 179.67 378.80 L 179.78 378.45 L 180.04 378.44 L 180.04 378.44 L 180.14 378.19 L 180.24 378.19 L 180.34 377.92 L 180.48 377.72 L 180.54 377.61 L 180.56 377.60 L 180.68 377.36 L 180.70 377.36 L 180.83 377.14 L 180.85 377.13 L 181.05 377.05 L 181.09 377.05 L 181.16 376.97 L 181.24 376.96 L 181.36 376.96 L 181.41 376.94 L 181.80 376.73 L 181.81 376.73 L 181.89 376.30 L 182.07 376.29 L 182.22 376.15 L 182.27 376.15 L 182.35 376.15 L 182.38 376.11 L 182.47 375.52 L 182.92 375.02 L 182.96 374.75 L 183.11 374.73 L 183.16 374.66 L 183.19 374.65 L 183.27 374.52 L 183.34 374.05 L 183.49 373.98 L 183.60 373.97 L 183.69 373.74 L 183.74 373.73 L 184.14 373.55 L 184.35 373.43 L 184.42 373.32 L 184.61 373.31 L 184.62 373.31 L 184.64 373.29 L 184.76 372.44 L 184.85 372.43 L 185.18 372.31 L 185.23 371.97 L 185.29 371.97 L 185.38 371.83 L 185.39 371.75 L 185.43 371.69 L 185.46 371.66 L 185.50 371.66 L 185.55 371.59 L 185.68 370.64 L 185.77 370.54 L 185.86 370.25 L 185.99 370.23 L 186.13 370.14 L 186.27 369.84 L 186.37 369.02 L 186.58 368.95 L 186.58 368.60 L 186.70 368.51 L 196.54 368.52 L 196.73 368.52 L 197.19 368.13 L 197.29 368.13 L 197.37 368.13 L 197.38 368.02 L 197.55 367.86 L 197.67 367.83 L 197.73 367.73 L 197.80 367.65 L 197.84 367.62 L 198.02 367.56 L 198.37 367.64 L 198.46 367.38 L 198.53 367.31 L 198.62 367.31 L 199.07 367.25 L 199.13 367.21 L 199.17 367.21 L 199.19 367.16 L 199.30 367.11 L 199.37 367.02 L 199.70 366.77 L 200.18 366.67 L 200.35 366.62 L 200.88 366.46 L 201.13 366.08 L 201.21 366.01 L 201.32 365.71 L 201.48 365.32 L 201.71 365.22 L 202.05 365.21 L 202.49 365.20 L 202.56 365.05 L 202.89 364.96 L 203.10 364.84 L 203.16 364.74 L 203.29 364.70 L 203.39 364.44 L 204.55 364.31 L 205.66 364.31 L 215.56 364.28 L 215.63 364.14 L 215.68 364.05 L 215.99 363.90 L 216.92 363.65 L 216.96 363.61 L 217.09 363.43 L 217.54 363.35 L 217.76 362.85 L 218.08 362.84 L 218.16 362.82 L 218.23 362.33 L 218.81 361.87 L 218.88 361.87 L 219.00 361.84 L 219.12 361.80 L 219.18 361.63 L 219.50 360.86 L 219.62 360.66 L 219.67 360.65 L 219.74 360.57 L 219.89 360.27 L 219.94 359.50 L 220.09 359.18 L 220.52 359.00 L 220.56 358.62 L 220.60 358.62 L 220.67 358.55 L 220.77 358.44 L 220.82 358.41 L 220.86 358.38 L 221.06 357.48 L 221.11 356.95 L 221.36 356.85 L 221.51 355.96 L 221.61 355.79 L 222.37 354.38 L 222.46 354.36 L 251.56 353.95 L 251.59 353.95 L 262.71 353.83 L 263.32 353.68 L 263.44 353.68 L 263.60 353.61 L 263.66 353.50 L 263.72 353.47 L 268.55 353.46 L 269.18 351.85 L 269.42 351.71 L 269.55 351.15 L 272.55 351.08 L 272.57 351.03 L 272.76 351.02 L 273.65 350.92 L 273.71 350.73 L 273.82 350.66 L 274.13 350.58 L 274.18 350.56 L 274.30 350.25 L 274.44 350.15 L 274.46 349.91 L 283.81 349.61 L 283.88 348.88 L 284.25 348.68 L 284.25 348.40 L 284.32 348.18 L 284.40 347.85 L 284.50 346.96 L 284.66 346.47 L 284.79 345.84 L 284.91 345.84 L 284.96 345.35 L 285.15 345.32 L 285.80 344.86 L 286.06 344.65 L 286.10 344.52 L 286.16 344.51 L 286.19 344.35 L 286.28 343.80 L 286.54 343.75 L 286.58 343.74 L 286.74 343.39 L 286.80 343.39 L 286.83 343.18 L 286.89 343.05 L 286.93 343.05 L 286.96 342.76 L 287.17 342.59 L 287.26 342.31 L 287.37 342.29 L 287.45 342.14 L 287.48 341.92 L 287.69 341.81 L 287.75 341.68 L 287.78 341.68 L 287.84 341.68 L 287.87 341.45 L 287.90 341.46 L 287.91 341.46 L 288.01 341.38 L 288.05 341.13 L 288.15 341.13 L 288.22 341.07 L 288.43 341.05 L 288.69 341.03 L 288.70 341.03 L 288.77 341.01 L 289.01 341.01 L 289.12 341.01 L 289.24 341.01 L 289.36 340.97 L 289.44 340.67 L 289.77 340.67 L 289.80 340.50 L 289.84 340.50 L 289.87 340.30 L 290.08 340.23 L 290.12 340.18 L 290.28 340.18 L 304.66 340.13 L 305.48 340.05 L 305.50 340.05 L 305.67 340.04 L 305.68 340.05 L 305.78 339.70 L 305.86 339.69 L 305.93 339.59 L 306.03 339.54 L 306.06 339.51 L 306.10 339.49 L 306.25 339.46 L 306.56 339.39 L 306.76 338.92 L 306.98 338.89 L 306.99 338.86 L 307.03 338.47 L 307.06 338.47 L 307.48 338.47 L 307.49 338.43 L 307.56 338.07 L 307.74 338.02 L 307.86 338.01 L 307.89 338.00 L 307.89 337.96 L 307.94 337.94 L 307.98 337.57 L 307.99 337.56 L 308.10 337.56 L 308.11 337.53 L 308.33 337.49 L 308.95 337.48 L 309.09 337.45 L 309.14 337.44 L 309.17 337.32 L 309.20 337.32 L 309.29 336.90 L 319.12 336.77 L 319.14 336.66 L 319.22 336.57 L 319.24 336.56 L 319.30 336.20 L 319.41 336.12 L 319.42 336.10 L 319.60 336.09 L 319.64 336.09 L 319.67 335.74 L 319.83 335.70 L 320.26 335.69 L 320.27 335.67 L 320.38 335.47 L 320.42 335.48 L 320.44 335.15 L 320.80 335.15 L 320.81 335.13 L 321.34 335.05 L 321.41 334.66 L 321.60 334.66 L 321.82 334.66 L 321.88 334.37 L 321.92 334.15 L 322.02 334.14 L 322.30 334.09 L 322.35 334.08 L 322.47 333.99 L 322.60 333.99 L 323.01 333.99 L 323.06 333.99 L 323.16 333.97 L 323.16 333.97 L 323.30 333.97 L 323.61 333.94 L 323.93 333.90 L 323.98 333.90 L 324.05 333.86 L 324.14 333.76 L 324.39 333.76 L 324.81 333.63 L 324.94 333.41 L 325.17 333.39 L 326.07 333.15 L 326.27 333.15 L 326.41 333.14 L 326.64 333.14 L 326.71 333.12 L 326.94 333.00 L 327.29 332.98 L 327.34 332.88 L 327.41 332.83 L 327.45 332.84 L 327.48 332.80 L 327.76 332.78 L 334.28 332.78 L 334.34 332.78 L 334.74 332.78 L 334.78 332.76 L 334.87 332.44 L 334.95 332.42 L 334.96 332.42 L 335.18 332.42 L 335.24 332.40 L 336.57 331.92 L 336.73 331.87 L 336.84 331.86 L 336.87 331.85 L 337.28 331.84 L 337.42 331.91 L 337.45 331.91 L 337.67 331.88 L 337.91 331.42 L 337.94 331.41 L 338.15 331.40 L 338.23 331.40 L 338.31 331.40 L 338.47 331.30 L 338.84 330.89 L 338.91 330.89 L 338.97 330.83 L 339.12 330.46 L 339.48 330.04 L 339.80 330.07 L 339.86 329.85 L 340.19 329.85 L 340.24 329.82 L 340.30 329.80 L 340.33 329.58 L 340.44 329.57 L 340.47 329.57 L 340.52 329.57 L 340.71 329.57 L 340.99 329.40 L 341.17 329.38 L 341.37 329.38 L 341.46 329.38 L 341.66 329.38 L 341.99 329.38 L 342.32 329.38 L 342.57 329.38 L 342.62 329.37 L 342.69 329.36 L 342.69 329.29 L 342.88 329.23 L 342.94 329.23 L 343.02 329.22 L 343.55 329.22 L 343.56 329.00 L 343.70 329.00 L 344.33 329.01 L 344.74 329.00 L 345.04 328.96 L 345.05 328.87 L 345.08 328.87 L 354.20 328.73 L 354.23 328.72 L 354.34 328.71 L 354.39 328.58 L 354.42 328.58 L 354.43 328.57 L 354.82 328.53 L 354.90 328.09 L 355.02 328.00 L 355.21 327.14 L 355.34 327.13 L 355.49 326.76 L 355.58 326.81 L 355.62 326.80 L 355.67 326.33 L 355.78 326.25 L 355.80 325.93 L 355.84 325.88 L 355.94 325.85 L 356.00 325.69 L 356.08 327.62 L 356.19 327.59 L 356.42 326.81 L 356.52 326.64 L 356.60 326.47 L 357.16 326.16 L 357.64 325.84 L 358.22 325.38 L 358.37 325.34 L 358.53 325.34 L 358.71 325.29 L 362.06 325.07 L 362.34 325.04 L 394.13 324.44 L 494.23 324.42 L 494.56 324.15 L 494.79 324.11 L 495.02 324.11 L 495.37 323.86 L 495.49 323.58 L 495.58 323.05 L 495.74 322.91 L 495.97 322.96 L 496.16 322.65 L 496.20 322.64 L 496.35 322.55 L 496.39 322.55 L 496.55 322.03 L 496.70 321.24 L 497.15 321.17 L 497.17 321.08 L 497.30 320.06 L 497.73 320.03 L 497.74 319.93 L 497.82 319.87 L 497.93 318.94 L 498.39 318.89 L 498.40 318.76 L 498.51 318.70 L 498.61 318.09 L 498.79 318.07 L 498.80 317.97 L 498.87 316.97 L 498.89 316.94 L 498.93 316.91 L 499.13 316.91 L 499.15 316.80 L 499.22 316.73 L 499.43 316.64 L 499.47 316.63 L 499.64 316.58 L 499.92 316.62 L 499.96 316.57 L 500.00 316.55 L 500.05 316.51 L 500.19 315.47 L 500.34 315.45 L 500.36 315.36 L 500.44 314.28 L 500.52 313.90 L 500.54 313.76 L 500.63 313.23 L 500.67 312.32 L 500.84 312.31 L 500.87 312.26 L 500.95 312.08 L 501.08 312.07 L 501.79 312.04 L 502.15 312.02 L 509.97 312.06 L 510.05 311.86 L 510.13 311.70 L 510.26 310.98 L 510.55 310.97 L 510.58 310.89 L 510.63 309.98 L 510.82 309.97 L 510.84 309.88 L 512.55 309.79 L 512.65 309.46 L 513.51 309.30 L 513.61 309.27 L 513.71 308.25 L 514.74 307.96 L 515.19 307.72 L 515.29 306.95 L 515.67 306.95 L 515.90 306.52 L 516.28 305.87 L 516.97 305.47 L 527.44 305.47 L 528.06 305.46 L 528.09 305.46 L 528.97 305.31 L 529.01 305.23 L 529.32 305.17 L 529.67 304.31 L 529.68 304.31 L 529.71 304.28 L 530.18 304.10 L 531.26 303.53 L 531.33 303.47 L 531.44 303.47 L 531.60 303.23 L 531.64 303.19 L 531.71 303.15 L 532.21 303.14 L 532.61 303.14 L 532.82 303.14 L 532.85 303.11 L 533.30 302.24 L 533.65 302.16 L 533.66 302.09 L 533.70 302.01 L 533.75 301.80 L 545.11 301.64 L 545.13 301.62 L 545.16 301.60 L 545.38 301.49 L 545.55 301.38 L 546.55 300.90 L 546.80 300.80 L 547.52 300.43 L 548.15 300.37 L 548.60 300.22 L 548.73 298.94 L 549.31 298.73 L 549.52 298.66 L 549.60 297.74 L 551.28 296.86 L 551.29 296.86 L 551.39 296.45 L 551.70 296.41 L 551.71 296.41 L 551.73 296.31 L 551.78 296.19 L 551.93 296.10 L 552.11 295.47 L 553.85 295.14 L 554.08 295.00 L 554.24 294.65 L 554.26 294.62 L 554.29 294.40 L 562.03 293.59 L 562.28 293.01 L 562.43 292.99 L 562.48 292.60 L 563.21 292.44 L 563.36 292.03 L 563.50 292.03 L 563.58 291.17 L 563.83 290.97 L 563.86 290.94 L 564.19 290.89 L 564.26 290.19 L 564.54 290.10 L 564.60 289.55 L 564.83 289.49 L 565.00 289.17 L 565.13 288.55 L 565.42 288.43 L 565.45 287.80 L 565.83 289.22 L 565.86 289.22 L 565.92 288.41 L 566.00 288.41 L 566.04 288.35 L 566.47 288.27 L 567.09 287.94 L 567.40 288.11 L 568.43 288.08 L 568.45 288.08 L 568.61 288.06 L 568.68 288.05 L 568.80 287.94 L 568.92 287.83 L 569.06 287.69 L 569.37 287.48 L 569.66 287.47 L 570.58 287.37 L 570.62 287.36 L 571.53 287.25 L 571.93 287.19 L 579.75 287.16 L 580.14 287.12 L 580.34 287.12 L 580.43 287.12 L 580.45 287.12 L 580.65 287.10 L 580.74 287.07 L 580.97 286.92 L 581.11 286.90 L 581.62 286.89 L 581.88 286.81 L 582.33 286.78 L 582.45 286.75 L 582.60 286.68 L 582.79 286.59 L 583.47 286.55 L 583.53 286.54 L 584.52 286.38 L 584.67 286.13 L 584.87 286.04 L 585.35 285.88 L 585.57 285.80 L 585.68 286.16 L 585.78 286.15 L 585.91 286.01 L 586.33 285.68 L 586.77 285.59 L 587.17 285.52 L 587.21 285.48 L 587.26 285.24 L 615.56 285.19 L 615.75 285.12 L 632.04 285.05 L 632.12 285.41 L 632.25 283.97 L 632.27 283.97 L 632.32 284.01 L 632.90 283.46 L 632.96 283.43 L 633.68 283.49 L 634.41 283.42 L 634.66 283.38 L 635.12 283.32 L 635.73 283.17 L 635.74 283.17 L 635.82 283.15 L 636.06 283.10 L 636.13 282.99 L 636.72 282.91 L 637.48 282.86 L 637.56 282.71 L 637.95 282.64 L 638.06 283.27 L 638.35 283.22 L 638.60 283.19 L 639.09 283.16 L 639.56 283.16 L 639.80 282.86 L 639.81 282.86 L 650.00 282.84"/>
	</g>
	<g class="poloto_legend poloto_imgs poloto_line poloto0 poloto_stroke"><line x1="680" x2="730" y1="81.25" y2="81.25"/></g>
	<g class="poloto_legend poloto_imgs poloto_line poloto1 poloto_stroke"><line x1="680" x2="730" y1="131.25" y2="131.25"/></g>
	<g class="poloto_legend poloto_imgs poloto_line poloto2 poloto_stroke"><line x1="680" x2="730" y1="181.25" y2="181.25"/></g>
	<text class="poloto_legend poloto_text poloto_line poloto0" x="675" y="100">total</text>
	<text class="poloto_legend poloto_text poloto_line poloto1" x="675" y="150">code</text>
	<text class="poloto_legend poloto_text poloto_line poloto2" x="675" y="200">docs</text>
	<text class="poloto_text poloto_name poloto_title" x="400.00" y="37.50">Workspace lines over time</text>
	<text class="poloto_text poloto_name poloto_x" x="400.00" y="640">date (JST)</text>
	<text class="poloto_text poloto_name poloto_y" x="37.50" y="250.00" transform="rotate(-90,37.50,250.00)">lines</text>
	<text class="poloto_text poloto_ticks poloto_y">
		<tspan x="135.00" y="400.00">0</tspan>
		<tspan x="135.00" y="324.70">50K</tspan>
		<tspan x="135.00" y="249.41">100K</tspan>
		<tspan x="135.00" y="174.11">150K</tspan>
	</text>
	<g class="poloto_imgs poloto_ticks poloto_y" stroke="black">
		<line x1="150.00" x2="144.00" y1="400.00" y2="400.00"/>
		<line x1="150.00" x2="144.00" y1="324.70" y2="324.70"/>
		<line x1="150.00" x2="144.00" y1="249.41" y2="249.41"/>
		<line x1="150.00" x2="144.00" y1="174.11" y2="174.11"/>
	</g>
	<g class="poloto_text poloto_ticks poloto_x">
		<text x="215.44" y="430.00" text-anchor="end" transform="rotate(-90 215.44 430.00)">2026-04-24 12:06</text>
		<text x="316.16" y="430.00" text-anchor="end" transform="rotate(-90 316.16 430.00)">2026-04-30 07:00</text>
		<text x="416.89" y="430.00" text-anchor="end" transform="rotate(-90 416.89 430.00)">2026-05-06 01:53</text>
		<text x="517.62" y="430.00" text-anchor="end" transform="rotate(-90 517.62 430.00)">2026-05-11 20:46</text>
		<text x="618.34" y="430.00" text-anchor="end" transform="rotate(-90 618.34 430.00)">2026-05-17 15:40</text>
	</g>
	<g class="poloto_imgs poloto_ticks poloto_x" stroke="black">
		<line x1="215.44" x2="215.44" y1="400.00" y2="405.00"/>
		<line x1="316.16" x2="316.16" y1="400.00" y2="405.00"/>
		<line x1="416.89" x2="416.89" y1="400.00" y2="405.00"/>
		<line x1="517.62" x2="517.62" y1="400.00" y2="405.00"/>
		<line x1="618.34" x2="618.34" y1="400.00" y2="405.00"/>
	</g>
	<path class="poloto_imgs poloto_ticks poloto_x" stroke="black" style="stroke-dasharray:10.072627674584826;stroke-dashoffset:-65.43642278283369;" d=" M 150.00 400.00 L 650.00 400.00"/>
	<path class="poloto_imgs poloto_ticks poloto_y" stroke="black" style="stroke-dasharray:7.529591293784574;stroke-dashoffset:-0;" d=" M 150.00 400.00 L 150.00 100.00"/>
</svg>

