<svg class="poloto" width="800" height="680" viewBox="0 0 800 680" xmlns="http://www.w3.org/2000/svg">
	<style>
.poloto{
  stroke-linecap:round;
  stroke-linejoin:round;
  font-family:Roboto,sans-serif;
  font-size:16px;
}
.poloto_background{fill:AliceBlue;}
.poloto_scatter{stroke-width:7}
.poloto_line{stroke-width:2}
.poloto_text{fill: black;}
.poloto_name{font-size:24px;dominant-baseline:auto;text-anchor:middle;}
.poloto_where{dominant-baseline:middle;text-anchor:start}
.poloto_text.poloto_legend{font-size:20px;dominant-baseline:middle;text-anchor:start;}
.poloto_text.poloto_ticks.poloto_y{dominant-baseline:middle;text-anchor:end}
.poloto_text.poloto_ticks.poloto_x{dominant-baseline:auto;text-anchor:middle}
.poloto_imgs.poloto_ticks{stroke: black;stroke-width:3;fill:none;stroke-dasharray:none}
.poloto_grid{stroke:gray;stroke-width:0.5}

.poloto0.poloto_stroke{stroke:blue;}
.poloto1.poloto_stroke{stroke:red;}
.poloto2.poloto_stroke{stroke:green;}
.poloto3.poloto_stroke{stroke:gold;}
.poloto4.poloto_stroke{stroke:aqua;}
.poloto5.poloto_stroke{stroke:lime;}
.poloto6.poloto_stroke{stroke:orange;}
.poloto7.poloto_stroke{stroke:chocolate;}
.poloto0.poloto_fill{fill:blue;}
.poloto1.poloto_fill{fill:red;}
.poloto2.poloto_fill{fill:green;}
.poloto3.poloto_fill{fill:gold;}
.poloto4.poloto_fill{fill:aqua;}
.poloto5.poloto_fill{fill:lime;}
.poloto6.poloto_fill{fill:orange;}
.poloto7.poloto_fill{fill:chocolate;}
	</style>
	<circle r="1e5" class="poloto_background" fill="white"/>
	<g id="poloto_plot0" class="poloto_plot poloto_imgs poloto_line poloto0 poloto_stroke" fill="none" stroke="black">
		<path d=" M 150.00 357.47 L 150.04 357.44 L 150.06 357.42 L 150.07 357.42 L 150.10 357.42 L 150.14 352.80 L 150.30 352.24 L 150.65 352.22 L 151.18 351.84 L 151.44 349.49 L 151.98 349.35 L 152.07 349.22 L 152.14 349.17 L 152.77 348.03 L 153.94 347.10 L 154.31 343.47 L 154.41 343.48 L 155.11 343.34 L 155.93 343.32 L 155.94 343.32 L 155.94 343.32 L 166.95 343.32 L 167.03 343.31 L 167.17 343.28 L 167.23 343.24 L 167.65 343.03 L 167.84 342.98 L 168.30 342.64 L 168.37 342.49 L 168.50 342.17 L 168.64 342.12 L 168.69 342.11 L 168.80 342.03 L 168.92 342.03 L 169.04 342.03 L 169.35 341.49 L 169.62 341.16 L 169.67 341.16 L 169.80 340.97 L 170.67 341.80 L 170.69 341.79 L 170.80 341.66 L 171.30 341.04 L 171.70 340.30 L 172.15 339.97 L 172.25 339.91 L 172.26 339.92 L 172.35 339.63 L 172.52 339.63 L 172.74 339.53 L 173.17 339.25 L 173.20 338.81 L 173.27 338.81 L 173.38 338.59 L 173.63 338.59 L 173.65 338.59 L 173.91 337.97 L 174.01 337.94 L 174.10 337.89 L 174.21 337.64 L 175.55 337.30 L 175.87 337.24 L 176.62 336.80 L 176.78 336.80 L 176.89 336.78 L 176.96 336.46 L 177.47 334.63 L 177.70 334.60 L 177.96 333.99 L 178.09 333.93 L 178.40 333.42 L 178.54 333.23 L 178.72 332.91 L 178.89 332.62 L 179.49 328.40 L 179.50 328.29 L 179.53 328.04 L 179.73 326.01 L 189.94 325.86 L 191.00 323.55 L 191.04 323.50 L 192.29 323.13 L 192.39 323.12 L 192.51 322.67 L 192.81 322.44 L 192.95 322.04 L 193.00 321.70 L 193.16 321.09 L 193.53 321.08 L 193.54 320.67 L 193.68 320.22 L 193.82 320.21 L 193.97 319.70 L 194.17 319.34 L 194.25 319.15 L 194.28 319.15 L 194.46 318.75 L 194.48 318.74 L 194.68 318.35 L 194.71 318.34 L 195.00 316.43 L 195.05 316.43 L 195.15 316.11 L 195.28 316.10 L 195.44 316.10 L 195.52 316.05 L 196.09 315.69 L 196.10 315.71 L 196.21 314.86 L 196.47 314.84 L 196.70 313.57 L 196.77 313.46 L 196.88 313.45 L 196.93 313.40 L 197.06 312.42 L 197.70 304.13 L 197.77 303.73 L 197.99 303.70 L 198.05 303.60 L 198.11 303.57 L 198.21 303.35 L 198.31 302.41 L 198.54 302.22 L 198.70 302.19 L 198.82 301.78 L 198.90 301.77 L 199.47 301.46 L 199.79 301.23 L 199.88 300.86 L 200.15 300.84 L 200.17 300.84 L 200.20 300.81 L 200.37 298.81 L 200.50 298.70 L 200.98 296.69 L 201.05 296.10 L 201.15 296.09 L 201.27 295.88 L 201.28 295.72 L 201.34 295.62 L 201.38 295.57 L 201.45 295.56 L 201.51 295.46 L 201.70 293.82 L 201.84 293.58 L 201.97 293.09 L 202.16 293.06 L 202.36 292.91 L 202.57 291.75 L 202.71 290.13 L 203.01 290.04 L 203.02 289.44 L 203.19 289.24 L 217.45 289.25 L 217.72 289.23 L 218.39 288.38 L 218.53 288.36 L 218.64 288.36 L 218.67 288.14 L 218.91 287.88 L 219.08 287.84 L 219.18 287.68 L 219.27 287.57 L 219.33 287.51 L 219.59 287.43 L 220.10 287.33 L 220.23 286.89 L 220.33 286.78 L 220.45 286.76 L 221.11 286.54 L 221.21 286.42 L 221.25 286.42 L 221.29 286.25 L 221.44 286.18 L 221.55 286.02 L 222.03 284.93 L 222.72 284.77 L 222.97 284.70 L 223.73 284.42 L 224.09 279.22 L 224.22 279.11 L 224.37 278.60 L 224.60 277.91 L 224.94 277.72 L 225.43 277.70 L 226.07 277.68 L 226.17 277.46 L 226.64 277.21 L 226.95 276.84 L 227.04 276.68 L 227.23 276.63 L 227.37 276.16 L 229.06 275.65 L 230.66 275.65 L 245.01 275.60 L 245.11 275.38 L 245.19 275.23 L 245.64 275.01 L 246.98 273.21 L 247.03 273.09 L 247.22 272.63 L 247.88 272.52 L 248.19 271.30 L 248.67 271.29 L 248.78 271.27 L 248.88 270.44 L 249.71 265.70 L 249.81 265.70 L 249.99 265.66 L 250.17 265.60 L 250.26 265.08 L 250.72 263.30 L 250.89 262.96 L 250.97 262.94 L 251.07 262.11 L 251.28 260.95 L 251.36 259.72 L 251.57 259.17 L 252.20 253.01 L 252.25 252.39 L 252.31 252.39 L 252.41 252.28 L 252.56 252.12 L 252.62 252.07 L 252.68 252.00 L 252.98 250.52 L 253.05 249.48 L 253.42 249.27 L 253.63 247.72 L 253.77 246.75 L 254.88 232.39 L 255.01 232.36 L 297.18 231.67 L 297.22 231.67 L 313.34 231.47 L 314.22 231.08 L 314.40 231.08 L 314.63 230.97 L 314.71 230.79 L 314.81 230.74 L 321.80 230.64 L 322.72 227.91 L 323.06 227.66 L 323.25 226.66 L 327.60 226.46 L 327.63 226.18 L 327.90 226.16 L 329.20 224.43 L 329.27 224.12 L 329.44 224.01 L 329.89 223.89 L 329.95 223.85 L 330.14 223.33 L 330.33 223.19 L 330.36 222.80 L 343.91 222.28 L 344.01 220.81 L 344.55 220.48 L 344.56 218.02 L 344.65 217.65 L 344.76 217.05 L 344.92 215.35 L 345.15 214.45 L 345.34 213.40 L 345.51 213.39 L 345.58 212.58 L 345.86 212.51 L 346.79 208.55 L 347.17 208.13 L 347.24 207.88 L 347.31 207.87 L 347.36 207.59 L 347.49 206.62 L 347.87 206.15 L 347.93 206.09 L 348.16 202.60 L 348.25 202.59 L 348.29 202.22 L 348.38 201.93 L 348.43 201.93 L 348.49 201.40 L 348.78 199.51 L 348.91 198.98 L 349.08 198.91 L 349.19 193.86 L 349.24 193.45 L 349.54 190.57 L 349.62 190.35 L 349.68 190.34 L 349.75 190.34 L 349.80 189.93 L 349.84 189.95 L 349.86 189.94 L 350.01 184.84 L 350.06 184.40 L 350.20 184.37 L 350.31 184.28 L 350.62 184.14 L 350.99 183.95 L 351.00 183.95 L 351.10 183.88 L 351.45 183.79 L 351.62 183.79 L 351.78 183.79 L 351.96 181.57 L 352.07 181.03 L 352.55 181.03 L 352.59 180.68 L 352.65 180.67 L 352.69 180.29 L 353.01 177.08 L 353.06 177.00 L 353.29 176.98 L 374.13 176.89 L 375.32 176.73 L 375.35 176.73 L 375.59 176.72 L 375.61 176.73 L 375.76 176.08 L 375.87 176.06 L 375.97 175.75 L 376.12 175.67 L 376.16 175.62 L 376.22 175.60 L 376.44 175.24 L 376.89 174.92 L 377.18 173.89 L 377.50 172.90 L 377.51 172.85 L 377.56 171.93 L 377.60 171.90 L 378.22 171.35 L 378.23 171.29 L 378.33 170.56 L 378.60 170.48 L 378.77 170.42 L 378.81 169.11 L 378.82 169.05 L 378.89 170.28 L 378.94 169.52 L 378.96 169.49 L 379.12 167.75 L 379.13 167.71 L 379.45 167.56 L 380.34 167.54 L 380.55 167.48 L 380.62 167.46 L 380.66 167.23 L 380.72 167.23 L 380.84 166.37 L 395.09 164.71 L 395.11 164.48 L 395.23 164.32 L 395.26 164.00 L 395.35 149.48 L 395.50 143.53 L 395.52 143.49 L 395.78 143.37 L 395.84 143.37 L 395.89 142.69 L 396.12 142.62 L 396.73 141.22 L 396.75 141.19 L 396.91 140.75 L 396.97 140.77 L 397.00 140.06 L 397.51 139.24 L 397.53 139.20 L 398.31 138.89 L 398.40 138.14 L 398.68 138.16 L 399.00 136.28 L 399.08 135.54 L 399.14 134.95 L 399.28 134.22 L 399.69 133.97 L 399.76 133.78 L 399.94 133.62 L 400.13 133.62 L 400.73 133.62 L 400.80 133.62 L 400.94 133.59 L 400.95 133.59 L 401.14 133.61 L 401.59 133.57 L 402.06 133.30 L 402.13 133.29 L 402.23 133.19 L 402.36 132.98 L 402.72 132.98 L 403.33 132.72 L 403.52 132.14 L 403.85 127.14 L 405.16 131.37 L 405.44 131.35 L 405.66 131.33 L 405.98 131.32 L 406.09 131.24 L 406.41 131.01 L 406.93 130.66 L 407.00 130.43 L 407.09 130.34 L 407.16 130.36 L 407.20 130.29 L 407.61 129.97 L 417.05 129.97 L 417.14 129.97 L 417.72 129.95 L 417.78 129.93 L 417.91 129.29 L 418.02 128.93 L 418.04 128.93 L 418.36 128.88 L 418.44 128.85 L 420.38 127.90 L 420.60 127.82 L 420.77 127.80 L 420.81 127.80 L 421.40 127.57 L 421.61 127.69 L 421.65 127.68 L 421.97 127.62 L 422.32 125.64 L 422.36 125.62 L 422.66 125.40 L 422.78 125.40 L 422.89 125.40 L 423.14 125.18 L 423.66 124.38 L 423.76 124.35 L 423.86 124.13 L 424.07 123.18 L 424.59 122.20 L 425.05 117.60 L 425.14 117.03 L 425.62 116.81 L 425.70 116.69 L 425.78 116.47 L 425.82 115.73 L 425.99 114.40 L 426.03 114.46 L 426.10 114.43 L 426.37 114.42 L 426.78 113.94 L 427.04 113.84 L 427.33 113.83 L 427.46 113.81 L 427.75 113.79 L 428.23 113.79 L 428.70 113.78 L 429.06 113.78 L 429.15 113.76 L 429.24 113.75 L 429.24 113.58 L 429.52 113.49 L 429.60 113.47 L 429.72 113.27 L 430.49 113.24 L 430.50 112.84 L 430.71 112.83 L 431.62 112.84 L 432.22 112.59 L 432.66 112.30 L 432.67 112.14 L 432.71 112.14 L 445.93 111.86 L 445.97 111.85 L 446.13 111.84 L 446.20 111.61 L 446.24 111.58 L 446.25 111.57 L 446.82 111.51 L 446.94 110.67 L 447.11 110.48 L 447.39 108.84 L 447.57 108.82 L 447.80 108.13 L 447.93 108.21 L 447.99 108.21 L 448.05 107.41 L 448.22 106.86 L 448.24 106.28 L 448.30 106.20 L 448.44 106.15 L 448.53 105.88 L 448.65 109.02 L 448.81 108.96 L 449.14 107.71 L 449.28 107.40 L 449.41 107.14 L 450.22 105.34 L 450.91 104.47 L 451.75 102.81 L 451.96 102.73 L 452.20 102.73 L 452.46 102.65 L 457.32 102.18 L 457.72 102.14 L 503.79 100.87 L 648.85 100.58 L 649.33 100.07 L 649.67 100.00 L 650.00 100.00"/>
	</g>
	<g id="poloto_plot1" class="poloto_plot poloto_imgs poloto_line poloto1 poloto_stroke" fill="none" stroke="black">
		<path d=" M 150.00 374.73 L 150.04 374.71 L 150.06 374.69 L 150.07 374.69 L 150.10 374.69 L 150.14 373.89 L 150.30 373.86 L 150.65 373.85 L 151.18 373.55 L 151.44 373.41 L 151.98 373.45 L 152.07 373.39 L 152.14 373.39 L 152.77 373.33 L 153.94 373.18 L 154.31 370.05 L 154.41 370.05 L 155.11 369.98 L 155.93 369.97 L 155.94 369.97 L 155.94 369.97 L 166.95 369.97 L 167.03 369.97 L 167.17 369.96 L 167.23 369.92 L 167.65 369.90 L 167.84 369.90 L 168.30 369.90 L 168.37 369.90 L 168.50 369.88 L 168.64 369.88 L 168.69 369.88 L 168.80 369.84 L 168.92 369.84 L 169.04 369.84 L 169.35 369.67 L 169.62 369.67 L 169.67 369.67 L 169.80 369.67 L 170.67 370.84 L 170.69 370.84 L 170.80 370.83 L 171.30 370.65 L 171.70 370.46 L 172.15 370.37 L 172.25 370.31 L 172.26 370.31 L 172.35 370.31 L 172.52 370.31 L 172.74 370.23 L 173.17 370.16 L 173.20 370.16 L 173.27 370.16 L 173.38 370.14 L 173.63 370.14 L 173.65 370.14 L 173.91 370.12 L 174.01 370.12 L 174.10 370.12 L 174.21 370.12 L 175.55 369.98 L 175.87 369.97 L 176.62 369.91 L 176.78 369.91 L 176.89 369.91 L 176.96 369.91 L 177.47 369.82 L 177.70 369.82 L 177.96 369.70 L 178.09 369.69 L 178.40 369.44 L 178.54 369.35 L 178.72 369.35 L 178.89 369.34 L 179.49 365.69 L 179.50 365.63 L 179.53 365.63 L 179.73 365.27 L 189.94 365.27 L 191.00 363.70 L 191.04 363.70 L 192.29 363.70 L 192.39 363.70 L 192.51 363.53 L 192.81 363.51 L 192.95 363.51 L 193.00 363.51 L 193.16 363.51 L 193.53 363.51 L 193.54 363.16 L 193.68 363.15 L 193.82 363.15 L 193.97 363.12 L 194.17 363.11 L 194.25 363.11 L 194.28 363.11 L 194.46 363.11 L 194.48 363.11 L 194.68 363.11 L 194.71 363.11 L 195.00 361.56 L 195.05 361.56 L 195.15 361.37 L 195.28 361.37 L 195.44 361.37 L 195.52 361.35 L 196.09 361.35 L 196.10 361.35 L 196.21 361.25 L 196.47 361.25 L 196.70 360.37 L 196.77 360.26 L 196.88 360.26 L 196.93 360.26 L 197.06 360.23 L 197.70 353.71 L 197.77 353.76 L 197.99 353.76 L 198.05 353.76 L 198.11 353.75 L 198.21 353.75 L 198.31 353.66 L 198.54 353.66 L 198.70 353.66 L 198.82 353.65 L 198.90 353.65 L 199.47 353.64 L 199.79 353.63 L 199.88 353.47 L 200.15 353.47 L 200.17 353.47 L 200.20 353.47 L 200.37 353.03 L 200.50 352.92 L 200.98 351.37 L 201.05 351.37 L 201.15 351.37 L 201.27 351.39 L 201.28 351.39 L 201.34 351.39 L 201.38 351.39 L 201.45 351.39 L 201.51 351.39 L 201.70 351.36 L 201.84 351.36 L 201.97 351.34 L 202.16 351.34 L 202.36 351.33 L 202.57 350.75 L 202.71 350.56 L 203.01 350.56 L 203.02 350.55 L 203.19 350.55 L 217.45 350.55 L 217.72 350.54 L 218.39 350.44 L 218.53 350.43 L 218.64 350.43 L 218.67 350.43 L 218.91 350.43 L 219.08 350.43 L 219.18 350.43 L 219.27 350.43 L 219.33 350.42 L 219.59 350.42 L 220.10 350.45 L 220.23 350.45 L 220.33 350.45 L 220.45 350.45 L 221.11 350.33 L 221.21 350.27 L 221.25 350.27 L 221.29 350.19 L 221.44 350.18 L 221.55 350.18 L 222.03 349.59 L 222.72 349.59 L 222.97 349.59 L 223.73 349.59 L 224.09 345.59 L 224.22 345.59 L 224.37 345.59 L 224.60 345.58 L 224.94 345.58 L 225.43 345.58 L 226.07 345.58 L 226.17 345.58 L 226.64 345.48 L 226.95 345.32 L 227.04 345.32 L 227.23 345.32 L 227.37 345.29 L 229.06 345.04 L 230.66 345.04 L 245.01 345.04 L 245.11 345.04 L 245.19 345.04 L 245.64 345.04 L 246.98 343.78 L 247.03 343.74 L 247.22 343.61 L 247.88 343.60 L 248.19 343.30 L 248.67 343.30 L 248.78 343.30 L 248.88 343.30 L 249.71 339.80 L 249.81 339.80 L 249.99 339.80 L 250.17 339.80 L 250.26 339.57 L 250.72 339.15 L 250.89 339.15 L 250.97 339.15 L 251.07 338.51 L 251.28 337.86 L 251.36 337.86 L 251.57 337.85 L 252.20 332.62 L 252.25 332.62 L 252.31 332.62 L 252.41 332.62 L 252.56 332.62 L 252.62 332.62 L 252.68 332.62 L 252.98 332.62 L 253.05 332.51 L 253.42 332.49 L 253.63 332.42 L 253.77 331.79 L 254.88 321.39 L 255.01 321.39 L 297.18 321.39 L 297.22 321.39 L 313.34 321.39 L 314.22 321.23 L 314.40 321.23 L 314.63 321.23 L 314.71 321.23 L 314.81 321.23 L 321.80 321.15 L 322.72 321.05 L 323.06 321.05 L 323.25 321.02 L 327.60 320.93 L 327.63 320.79 L 327.90 320.79 L 329.20 319.38 L 329.27 319.38 L 329.44 319.38 L 329.89 319.38 L 329.95 319.38 L 330.14 319.38 L 330.33 319.38 L 330.36 319.38 L 343.91 319.36 L 344.01 319.11 L 344.55 319.11 L 344.56 317.41 L 344.65 317.41 L 344.76 317.41 L 344.92 317.26 L 345.15 317.26 L 345.34 317.18 L 345.51 317.18 L 345.58 317.18 L 345.86 317.16 L 346.79 314.28 L 347.17 314.27 L 347.24 314.26 L 347.31 314.26 L 347.36 314.26 L 347.49 314.21 L 347.87 313.85 L 347.93 313.80 L 348.16 311.21 L 348.25 311.20 L 348.29 311.20 L 348.38 311.17 L 348.43 311.17 L 348.49 311.16 L 348.78 309.75 L 348.91 309.73 L 349.08 309.70 L 349.19 305.31 L 349.24 305.31 L 349.54 302.84 L 349.62 302.84 L 349.68 302.84 L 349.75 302.84 L 349.80 302.84 L 349.84 302.84 L 349.86 302.84 L 350.01 298.27 L 350.06 298.27 L 350.20 298.25 L 350.31 298.25 L 350.62 298.16 L 350.99 298.03 L 351.00 298.03 L 351.10 298.01 L 351.45 297.93 L 351.62 297.93 L 351.78 297.93 L 351.96 295.96 L 352.07 295.96 L 352.55 295.96 L 352.59 295.95 L 352.65 295.95 L 352.69 295.95 L 353.01 293.14 L 353.06 293.14 L 353.29 293.12 L 374.13 293.12 L 375.32 293.10 L 375.35 293.10 L 375.59 293.10 L 375.61 293.10 L 375.76 293.10 L 375.87 293.10 L 375.97 292.96 L 376.12 292.96 L 376.16 292.96 L 376.22 292.96 L 376.44 292.70 L 376.89 292.54 L 377.18 292.38 L 377.50 291.58 L 377.51 291.58 L 377.56 291.38 L 377.60 291.36 L 378.22 290.87 L 378.23 290.87 L 378.33 290.80 L 378.60 290.80 L 378.77 290.76 L 378.81 289.59 L 378.82 289.59 L 378.89 290.74 L 378.94 290.68 L 378.96 290.66 L 379.12 289.10 L 379.13 289.10 L 379.45 289.03 L 380.34 289.03 L 380.55 289.03 L 380.62 289.03 L 380.66 289.03 L 380.72 289.03 L 380.84 288.93 L 395.09 287.63 L 395.11 287.63 L 395.23 287.62 L 395.26 287.34 L 395.35 273.47 L 395.50 268.30 L 395.52 268.30 L 395.78 268.21 L 395.84 268.21 L 395.89 268.19 L 396.12 268.19 L 396.73 266.93 L 396.75 266.93 L 396.91 266.86 L 396.97 266.86 L 397.00 266.75 L 397.51 266.00 L 397.53 266.00 L 398.31 265.84 L 398.40 265.79 L 398.68 265.80 L 399.00 264.10 L 399.08 263.93 L 399.14 263.77 L 399.28 263.13 L 399.69 262.97 L 399.76 262.83 L 399.94 262.83 L 400.13 262.83 L 400.73 262.83 L 400.80 262.83 L 400.94 262.83 L 400.95 262.83 L 401.14 262.85 L 401.59 262.85 L 402.06 262.68 L 402.13 262.68 L 402.23 262.66 L 402.36 262.66 L 402.72 262.66 L 403.33 262.66 L 403.52 262.50 L 403.85 258.02 L 405.16 262.25 L 405.44 262.23 L 405.66 262.22 L 405.98 262.22 L 406.09 262.17 L 406.41 262.14 L 406.93 261.89 L 407.00 261.89 L 407.09 261.89 L 407.16 261.89 L 407.20 261.89 L 407.61 261.64 L 417.05 261.64 L 417.14 261.65 L 417.72 261.63 L 417.78 261.63 L 417.91 261.58 L 418.02 261.27 L 418.04 261.27 L 418.36 261.24 L 418.44 261.24 L 420.38 260.98 L 420.60 260.98 L 420.77 260.98 L 420.81 260.98 L 421.40 260.80 L 421.61 260.80 L 421.65 260.80 L 421.97 260.79 L 422.32 259.73 L 422.36 259.73 L 422.66 259.55 L 422.78 259.55 L 422.89 259.55 L 423.14 259.55 L 423.66 259.53 L 423.76 259.51 L 423.86 259.40 L 424.07 259.23 L 424.59 259.06 L 425.05 254.84 L 425.14 254.70 L 425.62 254.50 L 425.70 254.44 L 425.78 254.30 L 425.82 254.00 L 425.99 252.73 L 426.03 252.79 L 426.10 252.76 L 426.37 252.76 L 426.78 252.58 L 427.04 252.52 L 427.33 252.50 L 427.46 252.48 L 427.75 252.47 L 428.23 252.47 L 428.70 252.45 L 429.06 252.45 L 429.15 252.44 L 429.24 252.44 L 429.24 252.43 L 429.52 252.43 L 429.60 252.42 L 429.72 252.26 L 430.49 252.24 L 430.50 252.24 L 430.71 252.22 L 431.62 252.22 L 432.22 252.01 L 432.66 251.83 L 432.67 251.83 L 432.71 251.83 L 445.93 251.83 L 445.97 251.83 L 446.13 251.83 L 446.20 251.83 L 446.24 251.80 L 446.25 251.80 L 446.82 251.80 L 446.94 251.79 L 447.11 251.76 L 447.39 251.73 L 447.57 251.73 L 447.80 251.63 L 447.93 251.63 L 447.99 251.63 L 448.05 251.63 L 448.22 251.25 L 448.24 251.25 L 448.30 251.25 L 448.44 251.25 L 448.53 251.25 L 448.65 251.34 L 448.81 251.34 L 449.14 251.32 L 449.28 251.32 L 449.41 251.32 L 450.22 250.08 L 450.91 249.75 L 451.75 248.86 L 451.96 248.86 L 452.20 248.86 L 452.46 248.86 L 457.32 248.75 L 457.72 248.74 L 503.79 248.59 L 648.85 248.36 L 649.33 248.29 L 649.67 248.28 L 650.00 248.28"/>
	</g>
	<g id="poloto_plot2" class="poloto_plot poloto_imgs poloto_line poloto2 poloto_stroke" fill="none" stroke="black">
		<path d=" M 150.00 388.66 L 150.04 388.65 L 150.06 388.65 L 150.07 388.65 L 150.10 388.65 L 150.14 385.75 L 150.30 385.35 L 150.65 385.35 L 151.18 385.33 L 151.44 383.59 L 151.98 383.44 L 152.07 383.39 L 152.14 383.34 L 152.77 382.56 L 153.94 381.96 L 154.31 381.84 L 154.41 381.85 L 155.11 381.80 L 155.93 381.80 L 155.94 381.80 L 155.94 381.80 L 166.95 381.80 L 167.03 381.79 L 167.17 381.77 L 167.23 381.77 L 167.65 381.60 L 167.84 381.55 L 168.30 381.26 L 168.37 381.14 L 168.50 380.88 L 168.64 380.85 L 168.69 380.84 L 168.80 380.80 L 168.92 380.80 L 169.04 380.80 L 169.35 380.51 L 169.62 380.24 L 169.67 380.24 L 169.80 380.09 L 170.67 379.73 L 170.69 379.73 L 170.80 379.62 L 171.30 379.24 L 171.70 378.76 L 172.15 378.57 L 172.25 378.57 L 172.26 378.58 L 172.35 378.31 L 172.52 378.31 L 172.74 378.28 L 173.17 378.08 L 173.20 377.74 L 173.27 377.74 L 173.38 377.58 L 173.63 377.58 L 173.65 377.58 L 173.91 377.07 L 174.01 377.04 L 174.10 376.99 L 174.21 376.76 L 175.55 376.62 L 175.87 376.56 L 176.62 376.21 L 176.78 376.22 L 176.89 376.19 L 176.96 375.93 L 177.47 374.51 L 177.70 374.49 L 177.96 374.06 L 178.09 374.02 L 178.40 373.83 L 178.54 373.77 L 178.72 373.46 L 178.89 373.21 L 179.49 373.21 L 179.50 373.18 L 179.53 372.98 L 179.73 371.61 L 189.94 371.46 L 191.00 371.05 L 191.04 370.99 L 192.29 370.65 L 192.39 370.65 L 192.51 370.39 L 192.81 370.23 L 192.95 369.91 L 193.00 369.65 L 193.16 369.14 L 193.53 369.13 L 193.54 369.13 L 193.68 368.77 L 193.82 368.77 L 193.97 368.40 L 194.17 368.10 L 194.25 367.94 L 194.28 367.94 L 194.46 367.59 L 194.48 367.58 L 194.68 367.27 L 194.71 367.26 L 195.00 367.15 L 195.05 367.15 L 195.15 367.03 L 195.28 367.01 L 195.44 367.01 L 195.52 366.99 L 196.09 366.68 L 196.10 366.69 L 196.21 366.07 L 196.47 366.05 L 196.70 365.86 L 196.77 365.86 L 196.88 365.86 L 196.93 365.81 L 197.06 364.96 L 197.70 364.24 L 197.77 363.85 L 197.99 363.82 L 198.05 363.73 L 198.11 363.71 L 198.21 363.53 L 198.31 362.86 L 198.54 362.75 L 198.70 362.74 L 198.82 362.40 L 198.90 362.39 L 199.47 362.14 L 199.79 361.96 L 199.88 361.81 L 200.15 361.79 L 200.17 361.79 L 200.20 361.76 L 200.37 360.55 L 200.50 360.54 L 200.98 360.36 L 201.05 359.88 L 201.15 359.87 L 201.27 359.67 L 201.28 359.56 L 201.34 359.47 L 201.38 359.43 L 201.45 359.42 L 201.51 359.33 L 201.70 357.96 L 201.84 357.82 L 201.97 357.42 L 202.16 357.39 L 202.36 357.25 L 202.57 356.83 L 202.71 355.65 L 203.01 355.55 L 203.02 355.05 L 203.19 354.93 L 217.45 354.93 L 217.72 354.93 L 218.39 354.37 L 218.53 354.37 L 218.64 354.37 L 218.67 354.22 L 218.91 353.98 L 219.08 353.94 L 219.18 353.80 L 219.27 353.69 L 219.33 353.64 L 219.59 353.56 L 220.10 353.68 L 220.23 353.30 L 220.33 353.20 L 220.45 353.19 L 221.11 353.12 L 221.21 353.06 L 221.25 353.06 L 221.29 352.98 L 221.44 352.92 L 221.55 352.78 L 222.03 352.43 L 222.72 352.28 L 222.97 352.22 L 223.73 351.99 L 224.09 351.44 L 224.22 351.35 L 224.37 350.91 L 224.60 350.36 L 224.94 350.21 L 225.43 350.20 L 226.07 350.17 L 226.17 349.97 L 226.64 349.83 L 226.95 349.66 L 227.04 349.52 L 227.23 349.46 L 227.37 349.09 L 229.06 348.91 L 230.66 348.91 L 245.01 348.87 L 245.11 348.67 L 245.19 348.53 L 245.64 348.32 L 246.98 347.96 L 247.03 347.90 L 247.22 347.64 L 247.88 347.54 L 248.19 346.82 L 248.67 346.80 L 248.78 346.78 L 248.88 346.07 L 249.71 345.41 L 249.81 345.41 L 249.99 345.37 L 250.17 345.31 L 250.26 345.07 L 250.72 343.97 L 250.89 343.69 L 250.97 343.66 L 251.07 343.55 L 251.28 343.12 L 251.36 342.02 L 251.57 341.57 L 252.20 341.31 L 252.25 340.75 L 252.31 340.75 L 252.41 340.66 L 252.56 340.51 L 252.62 340.47 L 252.68 340.41 L 252.98 339.13 L 253.05 338.37 L 253.42 338.23 L 253.63 336.95 L 253.77 336.71 L 254.88 334.70 L 255.01 334.66 L 297.18 334.07 L 297.22 334.07 L 313.34 333.91 L 314.22 333.69 L 314.40 333.69 L 314.63 333.59 L 314.71 333.43 L 314.81 333.39 L 321.80 333.37 L 322.72 331.06 L 323.06 330.86 L 323.25 330.06 L 327.60 329.96 L 327.63 329.89 L 327.90 329.87 L 329.20 329.73 L 329.27 329.47 L 329.44 329.37 L 329.89 329.25 L 329.95 329.22 L 330.14 328.77 L 330.33 328.64 L 330.36 328.30 L 343.91 327.86 L 344.01 326.81 L 344.55 326.54 L 344.56 326.14 L 344.65 325.82 L 344.76 325.34 L 344.92 324.07 L 345.15 323.37 L 345.34 322.47 L 345.51 322.46 L 345.58 321.77 L 345.86 321.72 L 346.79 321.06 L 347.17 320.76 L 347.24 320.57 L 347.31 320.56 L 347.36 320.34 L 347.49 319.55 L 347.87 319.47 L 347.93 319.47 L 348.16 318.95 L 348.25 318.95 L 348.29 318.66 L 348.38 318.47 L 348.43 318.47 L 348.49 318.06 L 348.78 317.81 L 348.91 317.40 L 349.08 317.39 L 349.19 317.17 L 349.24 316.86 L 349.54 316.69 L 349.62 316.51 L 349.68 316.51 L 349.75 316.50 L 349.80 316.18 L 349.84 316.20 L 349.86 316.19 L 350.01 316.08 L 350.06 315.73 L 350.20 315.72 L 350.31 315.64 L 350.62 315.61 L 350.99 315.57 L 351.00 315.57 L 351.10 315.55 L 351.45 315.55 L 351.62 315.55 L 351.78 315.55 L 351.96 315.49 L 352.07 315.07 L 352.55 315.07 L 352.59 314.82 L 352.65 314.82 L 352.69 314.53 L 353.01 314.43 L 353.06 314.36 L 353.29 314.36 L 374.13 314.29 L 375.32 314.17 L 375.35 314.17 L 375.59 314.17 L 375.61 314.17 L 375.76 313.67 L 375.87 313.66 L 375.97 313.52 L 376.12 313.44 L 376.16 313.40 L 376.22 313.37 L 376.44 313.33 L 376.89 313.23 L 377.18 312.56 L 377.50 312.52 L 377.51 312.48 L 377.56 311.92 L 377.60 311.92 L 378.22 311.92 L 378.23 311.86 L 378.33 311.34 L 378.60 311.28 L 378.77 311.26 L 378.81 311.25 L 378.82 311.19 L 378.89 311.15 L 378.94 310.62 L 378.96 310.61 L 379.12 310.61 L 379.13 310.57 L 379.45 310.51 L 380.34 310.49 L 380.55 310.45 L 380.62 310.43 L 380.66 310.27 L 380.72 310.27 L 380.84 309.67 L 395.09 309.49 L 395.11 309.32 L 395.23 309.20 L 395.26 309.18 L 395.35 308.67 L 395.50 308.55 L 395.52 308.52 L 395.78 308.51 L 395.84 308.51 L 395.89 308.01 L 396.12 307.95 L 396.73 307.93 L 396.75 307.90 L 396.91 307.62 L 396.97 307.63 L 397.00 307.16 L 397.51 307.16 L 397.53 307.14 L 398.31 307.02 L 398.40 306.47 L 398.68 306.47 L 399.00 306.46 L 399.08 306.05 L 399.14 305.73 L 399.28 305.72 L 399.69 305.65 L 399.76 305.63 L 399.94 305.50 L 400.13 305.50 L 400.73 305.50 L 400.80 305.50 L 400.94 305.47 L 400.95 305.47 L 401.14 305.47 L 401.59 305.43 L 402.06 305.37 L 402.13 305.37 L 402.23 305.31 L 402.36 305.17 L 402.72 305.17 L 403.33 304.98 L 403.52 304.67 L 403.85 304.64 L 405.16 304.29 L 405.44 304.29 L 405.66 304.29 L 405.98 304.28 L 406.09 304.26 L 406.41 304.08 L 406.93 304.06 L 407.00 303.91 L 407.09 303.83 L 407.16 303.85 L 407.20 303.79 L 407.61 303.77 L 417.05 303.76 L 417.14 303.76 L 417.72 303.76 L 417.78 303.74 L 417.91 303.28 L 418.02 303.26 L 418.04 303.26 L 418.36 303.25 L 418.44 303.22 L 420.38 302.54 L 420.60 302.46 L 420.77 302.45 L 420.81 302.44 L 421.40 302.43 L 421.61 302.52 L 421.65 302.52 L 421.97 302.47 L 422.32 301.82 L 422.36 301.81 L 422.66 301.79 L 422.78 301.79 L 422.89 301.79 L 423.14 301.66 L 423.66 301.06 L 423.76 301.06 L 423.86 300.98 L 424.07 300.44 L 424.59 299.84 L 425.05 299.88 L 425.14 299.57 L 425.62 299.57 L 425.70 299.53 L 425.78 299.50 L 425.82 299.18 L 425.99 299.17 L 426.03 299.17 L 426.10 299.17 L 426.37 299.17 L 426.78 298.92 L 427.04 298.90 L 427.33 298.90 L 427.46 298.90 L 427.75 298.90 L 428.23 298.90 L 428.70 298.90 L 429.06 298.89 L 429.15 298.89 L 429.24 298.88 L 429.24 298.77 L 429.52 298.69 L 429.60 298.69 L 429.72 298.67 L 430.49 298.67 L 430.50 298.36 L 430.71 298.36 L 431.62 298.37 L 432.22 298.36 L 432.66 298.29 L 432.67 298.17 L 432.71 298.17 L 445.93 297.96 L 445.97 297.96 L 446.13 297.94 L 446.20 297.76 L 446.24 297.76 L 446.25 297.74 L 446.82 297.68 L 446.94 297.06 L 447.11 296.92 L 447.39 295.69 L 447.57 295.68 L 447.80 295.16 L 447.93 295.22 L 447.99 295.21 L 448.05 294.54 L 448.22 294.42 L 448.24 293.96 L 448.30 293.89 L 448.44 293.85 L 448.53 293.62 L 448.65 296.38 L 448.81 296.33 L 449.14 295.22 L 449.28 294.98 L 449.41 294.73 L 450.22 294.30 L 450.91 293.83 L 451.75 293.18 L 451.96 293.11 L 452.20 293.11 L 452.46 293.05 L 457.32 292.73 L 457.72 292.69 L 503.79 291.83 L 648.85 291.80 L 649.33 291.41 L 649.67 291.35 L 650.00 291.35"/>
	</g>
	<g class="poloto_legend poloto_imgs poloto_line poloto0 poloto_stroke"><line x1="680" x2="730" y1="81.25" y2="81.25"/></g>
	<g class="poloto_legend poloto_imgs poloto_line poloto1 poloto_stroke"><line x1="680" x2="730" y1="131.25" y2="131.25"/></g>
	<g class="poloto_legend poloto_imgs poloto_line poloto2 poloto_stroke"><line x1="680" x2="730" y1="181.25" y2="181.25"/></g>
	<text class="poloto_legend poloto_text poloto_line poloto0" x="675" y="100">total</text>
	<text class="poloto_legend poloto_text poloto_line poloto1" x="675" y="150">code</text>
	<text class="poloto_legend poloto_text poloto_line poloto2" x="675" y="200">docs</text>
	<text class="poloto_text poloto_name poloto_title" x="400.00" y="37.50">Workspace lines over time</text>
	<text class="poloto_text poloto_name poloto_x" x="400.00" y="640">date (JST)</text>
	<text class="poloto_text poloto_name poloto_y" x="37.50" y="250.00" transform="rotate(-90,37.50,250.00)">lines</text>
	<text class="poloto_text poloto_ticks poloto_y">
		<tspan x="135.00" y="400.00">0</tspan>
		<tspan x="135.00" y="356.88">20K</tspan>
		<tspan x="135.00" y="313.77">40K</tspan>
		<tspan x="135.00" y="270.65">60K</tspan>
		<tspan x="135.00" y="227.53">80K</tspan>
		<tspan x="135.00" y="184.41">100K</tspan>
		<tspan x="135.00" y="141.30">120K</tspan>
	</text>
	<g class="poloto_imgs poloto_ticks poloto_y" stroke="black">
		<line x1="150.00" x2="144.00" y1="400.00" y2="400.00"/>
		<line x1="150.00" x2="144.00" y1="356.88" y2="356.88"/>
		<line x1="150.00" x2="144.00" y1="313.77" y2="313.77"/>
		<line x1="150.00" x2="144.00" y1="270.65" y2="270.65"/>
		<line x1="150.00" x2="144.00" y1="227.53" y2="227.53"/>
		<line x1="150.00" x2="144.00" y1="184.41" y2="184.41"/>
		<line x1="150.00" x2="144.00" y1="141.30" y2="141.30"/>
	</g>
	<g class="poloto_text poloto_ticks poloto_x">
		<text x="186.44" y="430.00" text-anchor="end" transform="rotate(-90 186.44 430.00)">2026-04-22 04:33</text>
		<text x="244.83" y="430.00" text-anchor="end" transform="rotate(-90 244.83 430.00)">2026-04-24 12:06</text>
		<text x="303.22" y="430.00" text-anchor="end" transform="rotate(-90 303.22 430.00)">2026-04-26 19:40</text>
		<text x="361.61" y="430.00" text-anchor="end" transform="rotate(-90 361.61 430.00)">2026-04-29 03:13</text>
		<text x="419.99" y="430.00" text-anchor="end" transform="rotate(-90 419.99 430.00)">2026-05-01 10:46</text>
		<text x="478.38" y="430.00" text-anchor="end" transform="rotate(-90 478.38 430.00)">2026-05-03 18:20</text>
		<text x="536.77" y="430.00" text-anchor="end" transform="rotate(-90 536.77 430.00)">2026-05-06 01:53</text>
		<text x="595.16" y="430.00" text-anchor="end" transform="rotate(-90 595.16 430.00)">2026-05-08 09:26</text>
	</g>
	<g class="poloto_imgs poloto_ticks poloto_x" stroke="black">
		<line x1="186.44" x2="186.44" y1="400.00" y2="405.00"/>
		<line x1="244.83" x2="244.83" y1="400.00" y2="405.00"/>
		<line x1="303.22" x2="303.22" y1="400.00" y2="405.00"/>
		<line x1="361.61" x2="361.61" y1="400.00" y2="405.00"/>
		<line x1="419.99" x2="419.99" y1="400.00" y2="405.00"/>
		<line x1="478.38" x2="478.38" y1="400.00" y2="405.00"/>
		<line x1="536.77" x2="536.77" y1="400.00" y2="405.00"/>
		<line x1="595.16" x2="595.16" y1="400.00" y2="405.00"/>
	</g>
	<path class="poloto_imgs poloto_ticks poloto_x" stroke="black" style="stroke-dasharray:7.298558330370119;stroke-dashoffset:-36.441117858863436;" d=" M 150.00 400.00 L 650.00 400.00"/>
	<path class="poloto_imgs poloto_ticks poloto_y" stroke="black" style="stroke-dasharray:10.779346771585642;stroke-dashoffset:-0;" d=" M 150.00 400.00 L 150.00 100.00"/>
</svg>

