<svg class="poloto" width="800" height="680" viewBox="0 0 800 680" xmlns="http://www.w3.org/2000/svg">
	<style>
.poloto{
  stroke-linecap:round;
  stroke-linejoin:round;
  font-family:Roboto,sans-serif;
  font-size:16px;
}
.poloto_background{fill:AliceBlue;}
.poloto_scatter{stroke-width:7}
.poloto_line{stroke-width:2}
.poloto_text{fill: black;}
.poloto_name{font-size:24px;dominant-baseline:auto;text-anchor:middle;}
.poloto_where{dominant-baseline:middle;text-anchor:start}
.poloto_text.poloto_legend{font-size:20px;dominant-baseline:middle;text-anchor:start;}
.poloto_text.poloto_ticks.poloto_y{dominant-baseline:middle;text-anchor:end}
.poloto_text.poloto_ticks.poloto_x{dominant-baseline:auto;text-anchor:middle}
.poloto_imgs.poloto_ticks{stroke: black;stroke-width:3;fill:none;stroke-dasharray:none}
.poloto_grid{stroke:gray;stroke-width:0.5}

.poloto0.poloto_stroke{stroke:blue;}
.poloto1.poloto_stroke{stroke:red;}
.poloto2.poloto_stroke{stroke:green;}
.poloto3.poloto_stroke{stroke:gold;}
.poloto4.poloto_stroke{stroke:aqua;}
.poloto5.poloto_stroke{stroke:lime;}
.poloto6.poloto_stroke{stroke:orange;}
.poloto7.poloto_stroke{stroke:chocolate;}
.poloto0.poloto_fill{fill:blue;}
.poloto1.poloto_fill{fill:red;}
.poloto2.poloto_fill{fill:green;}
.poloto3.poloto_fill{fill:gold;}
.poloto4.poloto_fill{fill:aqua;}
.poloto5.poloto_fill{fill:lime;}
.poloto6.poloto_fill{fill:orange;}
.poloto7.poloto_fill{fill:chocolate;}
	</style>
	<circle r="1e5" class="poloto_background" fill="white"/>
	<g id="poloto_plot0" class="poloto_plot poloto_imgs poloto_line poloto0 poloto_stroke" fill="none" stroke="black">
		<path d=" M 150.00 373.70 L 150.02 373.68 L 150.04 373.66 L 150.04 373.66 L 150.06 373.66 L 150.09 370.81 L 150.19 370.47 L 150.42 370.45 L 150.75 370.22 L 150.92 368.77 L 151.27 368.68 L 151.33 368.60 L 151.37 368.57 L 151.77 367.86 L 152.52 367.28 L 152.76 365.04 L 152.82 365.05 L 153.27 364.96 L 153.79 364.95 L 153.80 364.95 L 153.80 364.95 L 160.84 364.95 L 160.89 364.94 L 160.98 364.93 L 161.02 364.90 L 161.29 364.77 L 161.41 364.73 L 161.70 364.53 L 161.75 364.44 L 161.83 364.23 L 161.92 364.20 L 161.95 364.20 L 162.02 364.15 L 162.10 364.15 L 162.18 364.15 L 162.37 363.82 L 162.54 363.61 L 162.58 363.61 L 162.66 363.49 L 163.22 364.01 L 163.23 364.00 L 163.30 363.92 L 163.62 363.54 L 163.88 363.08 L 164.17 362.88 L 164.23 362.84 L 164.23 362.84 L 164.29 362.67 L 164.40 362.67 L 164.54 362.60 L 164.82 362.43 L 164.83 362.16 L 164.88 362.16 L 164.95 362.02 L 165.11 362.02 L 165.12 362.02 L 165.29 361.64 L 165.35 361.62 L 165.41 361.59 L 165.48 361.43 L 166.34 361.23 L 166.54 361.19 L 167.02 360.91 L 167.12 360.91 L 167.20 360.90 L 167.24 360.71 L 167.57 359.58 L 167.71 359.55 L 167.88 359.18 L 167.96 359.14 L 168.16 358.82 L 168.25 358.71 L 168.37 358.51 L 168.48 358.33 L 168.85 355.72 L 168.87 355.66 L 168.88 355.50 L 169.01 354.24 L 175.54 354.15 L 176.22 352.72 L 176.24 352.69 L 177.04 352.46 L 177.11 352.46 L 177.18 352.18 L 177.38 352.03 L 177.47 351.79 L 177.50 351.58 L 177.60 351.20 L 177.83 351.19 L 177.84 350.94 L 177.93 350.66 L 178.02 350.66 L 178.12 350.34 L 178.25 350.12 L 178.30 350.00 L 178.32 350.00 L 178.43 349.75 L 178.44 349.75 L 178.57 349.50 L 178.59 349.50 L 178.78 348.32 L 178.81 348.32 L 178.87 348.12 L 178.95 348.11 L 179.06 348.11 L 179.11 348.09 L 179.47 347.86 L 179.48 347.87 L 179.55 347.35 L 179.71 347.34 L 179.86 346.55 L 179.91 346.48 L 179.98 346.47 L 180.01 346.44 L 180.09 345.84 L 180.50 340.71 L 180.55 340.47 L 180.69 340.44 L 180.73 340.38 L 180.76 340.36 L 180.83 340.23 L 180.89 339.65 L 181.04 339.53 L 181.14 339.52 L 181.22 339.26 L 181.27 339.25 L 181.64 339.06 L 181.84 338.92 L 181.90 338.69 L 182.07 338.68 L 182.08 338.68 L 182.10 338.66 L 182.21 337.42 L 182.29 337.35 L 182.60 336.11 L 182.65 335.75 L 182.70 335.74 L 182.79 335.61 L 182.79 335.51 L 182.83 335.45 L 182.86 335.42 L 182.90 335.41 L 182.94 335.35 L 183.06 334.34 L 183.15 334.19 L 183.24 333.89 L 183.35 333.87 L 183.48 333.77 L 183.61 333.05 L 183.71 332.06 L 183.90 332.00 L 183.90 331.63 L 184.01 331.51 L 193.13 331.51 L 193.30 331.50 L 193.73 330.97 L 193.82 330.96 L 193.89 330.96 L 193.91 330.83 L 194.06 330.66 L 194.17 330.64 L 194.23 330.54 L 194.30 330.47 L 194.33 330.43 L 194.50 330.38 L 194.83 330.32 L 194.91 330.05 L 194.97 329.98 L 195.05 329.97 L 195.47 329.84 L 195.53 329.76 L 195.56 329.76 L 195.59 329.66 L 195.68 329.61 L 195.75 329.51 L 196.06 328.84 L 196.50 328.74 L 196.66 328.69 L 197.15 328.53 L 197.38 325.31 L 197.46 325.24 L 197.56 324.92 L 197.70 324.50 L 197.92 324.38 L 198.23 324.37 L 198.65 324.36 L 198.71 324.22 L 199.01 324.07 L 199.20 323.84 L 199.27 323.74 L 199.38 323.70 L 199.47 323.42 L 200.55 323.10 L 201.58 323.10 L 210.75 323.07 L 210.82 322.93 L 210.87 322.84 L 211.15 322.70 L 212.01 321.59 L 212.05 321.52 L 212.17 321.23 L 212.59 321.16 L 212.79 320.41 L 213.09 320.40 L 213.16 320.39 L 213.23 319.88 L 213.76 316.95 L 213.83 316.94 L 213.94 316.92 L 214.06 316.88 L 214.11 316.56 L 214.41 315.46 L 214.51 315.25 L 214.56 315.24 L 214.63 314.73 L 214.76 314.01 L 214.82 313.25 L 214.95 312.91 L 215.35 309.10 L 215.39 308.72 L 215.42 308.72 L 215.49 308.65 L 215.58 308.55 L 215.62 308.51 L 215.66 308.47 L 215.85 307.56 L 215.90 306.92 L 216.13 306.79 L 216.27 305.83 L 216.36 305.23 L 217.07 296.35 L 217.15 296.33 L 244.12 295.90 L 244.14 295.90 L 254.45 295.78 L 255.01 295.54 L 255.12 295.54 L 255.28 295.47 L 255.32 295.36 L 255.39 295.33 L 259.86 295.26 L 260.45 293.57 L 260.66 293.42 L 260.78 292.80 L 263.56 292.68 L 263.58 292.51 L 263.76 292.49 L 264.59 291.43 L 264.64 291.23 L 264.74 291.17 L 265.03 291.09 L 265.07 291.06 L 265.19 290.74 L 265.31 290.66 L 265.33 290.42 L 273.99 290.09 L 274.06 289.18 L 274.40 288.98 L 274.41 287.46 L 274.47 287.23 L 274.54 286.86 L 274.64 285.81 L 274.79 285.25 L 274.91 284.60 L 275.02 284.60 L 275.07 284.10 L 275.24 284.05 L 275.84 281.60 L 276.08 281.34 L 276.12 281.19 L 276.17 281.18 L 276.20 281.01 L 276.29 280.41 L 276.53 280.12 L 276.57 280.08 L 276.72 277.93 L 276.77 277.92 L 276.80 277.69 L 276.85 277.51 L 276.89 277.51 L 276.92 277.18 L 277.11 276.02 L 277.19 275.68 L 277.30 275.64 L 277.37 272.52 L 277.40 272.27 L 277.59 270.49 L 277.65 270.35 L 277.68 270.34 L 277.73 270.34 L 277.76 270.09 L 277.79 270.10 L 277.80 270.09 L 277.89 266.94 L 277.93 266.67 L 278.02 266.65 L 278.09 266.60 L 278.28 266.51 L 278.52 266.39 L 278.53 266.39 L 278.60 266.35 L 278.82 266.29 L 278.92 266.29 L 279.03 266.29 L 279.14 264.92 L 279.21 264.59 L 279.52 264.58 L 279.55 264.37 L 279.59 264.36 L 279.61 264.13 L 279.81 262.14 L 279.85 262.09 L 279.99 262.08 L 293.32 262.02 L 294.08 261.92 L 294.10 261.92 L 294.25 261.92 L 294.26 261.92 L 294.36 261.53 L 294.44 261.51 L 294.50 261.32 L 294.59 261.27 L 294.62 261.24 L 294.65 261.22 L 294.80 261.00 L 295.08 260.81 L 295.27 260.17 L 295.47 259.56 L 295.48 259.53 L 295.51 258.96 L 295.54 258.94 L 295.94 258.60 L 295.94 258.56 L 296.01 258.11 L 296.18 258.06 L 296.29 258.02 L 296.31 257.21 L 296.32 257.17 L 296.36 257.94 L 296.39 257.47 L 296.41 257.45 L 296.51 256.37 L 296.51 256.34 L 296.72 256.25 L 297.29 256.24 L 297.43 256.20 L 297.47 256.19 L 297.50 256.05 L 297.53 256.05 L 297.61 255.52 L 306.72 254.49 L 306.73 254.35 L 306.81 254.25 L 306.83 254.06 L 306.89 245.07 L 306.99 241.39 L 307.00 241.37 L 307.17 241.30 L 307.20 241.30 L 307.23 240.87 L 307.38 240.83 L 307.77 239.96 L 307.78 239.94 L 307.88 239.68 L 307.92 239.68 L 307.94 239.25 L 308.27 238.74 L 308.28 238.72 L 308.78 238.52 L 308.84 238.06 L 309.02 238.07 L 309.22 236.91 L 309.28 236.45 L 309.31 236.09 L 309.40 235.64 L 309.66 235.48 L 309.71 235.37 L 309.82 235.27 L 309.94 235.27 L 310.33 235.27 L 310.37 235.27 L 310.46 235.25 L 310.47 235.24 L 310.59 235.26 L 310.88 235.23 L 311.18 235.06 L 311.22 235.06 L 311.29 235.00 L 311.37 234.87 L 311.60 234.87 L 311.99 234.71 L 312.11 234.35 L 312.32 231.26 L 313.16 233.87 L 313.34 233.86 L 313.48 233.85 L 313.69 233.84 L 313.75 233.80 L 313.96 233.65 L 314.29 233.44 L 314.34 233.29 L 314.40 233.23 L 314.44 233.25 L 314.47 233.20 L 314.73 233.01 L 320.77 233.01 L 320.82 233.01 L 321.20 233.00 L 321.23 232.98 L 321.32 232.59 L 321.39 232.37 L 321.40 232.37 L 321.60 232.33 L 321.65 232.31 L 322.89 231.73 L 323.04 231.68 L 323.14 231.67 L 323.17 231.67 L 323.55 231.53 L 323.68 231.60 L 323.71 231.59 L 323.91 231.55 L 324.13 230.33 L 324.16 230.32 L 324.35 230.18 L 324.43 230.18 L 324.50 230.18 L 324.66 230.04 L 324.99 229.55 L 325.06 229.53 L 325.12 229.39 L 325.25 228.81 L 325.59 228.20 L 325.88 225.36 L 325.94 225.01 L 326.24 224.87 L 326.30 224.80 L 326.34 224.66 L 326.38 224.20 L 326.48 223.38 L 326.50 223.41 L 326.55 223.40 L 326.72 223.39 L 326.99 223.09 L 327.15 223.04 L 327.34 223.02 L 327.42 223.01 L 327.61 223.00 L 327.91 223.00 L 328.21 223.00 L 328.45 222.99 L 328.50 222.98 L 328.56 222.98 L 328.56 222.87 L 328.74 222.82 L 328.79 222.81 L 328.86 222.68 L 329.36 222.66 L 329.37 222.42 L 329.50 222.41 L 330.08 222.41 L 330.46 222.26 L 330.74 222.08 L 330.75 221.98 L 330.78 221.98 L 339.23 221.81 L 339.26 221.80 L 339.36 221.79 L 339.40 221.65 L 339.43 221.64 L 339.44 221.63 L 339.80 221.59 L 339.88 221.07 L 339.99 220.96 L 340.17 219.94 L 340.28 219.93 L 340.43 219.50 L 340.51 219.55 L 340.55 219.55 L 340.59 219.06 L 340.70 218.72 L 340.71 218.36 L 340.75 218.31 L 340.84 218.28 L 340.90 218.11 L 340.97 220.05 L 341.08 220.02 L 341.28 219.24 L 341.37 219.05 L 341.46 218.89 L 341.97 217.78 L 342.42 217.24 L 342.95 216.21 L 343.09 216.16 L 343.24 216.16 L 343.41 216.12 L 346.52 215.82 L 346.77 215.80 L 376.23 215.01 L 468.99 214.83 L 469.30 214.52 L 469.51 214.47 L 469.72 214.47 L 470.05 213.87 L 470.16 213.58 L 470.24 213.04 L 470.39 211.47 L 470.60 211.79 L 470.77 211.46 L 470.82 211.45 L 470.96 211.35 L 470.99 211.35 L 471.14 210.77 L 471.28 209.86 L 471.70 208.88 L 471.71 208.80 L 471.83 207.64 L 472.23 204.77 L 472.24 204.67 L 472.32 204.61 L 472.42 203.58 L 472.85 202.19 L 472.86 202.07 L 472.95 202.00 L 473.05 201.32 L 473.21 200.78 L 473.22 200.68 L 473.30 199.63 L 473.31 199.60 L 473.35 199.31 L 473.53 197.43 L 473.55 197.33 L 473.61 197.22 L 473.81 196.97 L 473.85 196.96 L 474.01 196.60 L 474.26 196.65 L 474.30 196.60 L 474.34 196.57 L 474.38 196.55 L 474.51 195.45 L 474.65 194.55 L 474.67 194.47 L 474.74 193.35 L 474.82 192.26 L 474.84 192.12 L 474.92 190.84 L 474.96 189.83 L 475.12 189.15 L 475.14 189.10 L 475.22 188.89 L 475.33 188.87 L 476.00 188.84 L 476.33 188.81 L 483.58 188.86 L 483.65 188.66 L 483.72 188.49 L 483.85 187.74 L 484.12 187.54 L 484.14 187.47 L 484.19 186.47 L 484.36 185.51 L 484.38 185.42 L 485.96 185.36 L 486.06 184.81 L 486.86 184.65 L 486.95 184.61 L 487.04 183.49 L 488.00 182.43 L 488.41 182.03 L 488.51 181.21 L 488.86 179.80 L 489.07 179.39 L 489.43 178.56 L 490.07 178.14 L 499.76 178.13 L 500.34 178.03 L 500.37 178.05 L 501.18 177.89 L 501.22 177.80 L 501.51 177.74 L 501.84 176.82 L 501.84 176.82 L 501.87 176.78 L 502.31 175.73 L 503.30 175.13 L 503.37 175.08 L 503.47 175.07 L 503.62 174.79 L 503.66 174.72 L 503.72 174.67 L 504.18 174.63 L 504.56 174.63 L 504.76 174.63 L 504.78 174.59 L 505.20 173.67 L 505.52 173.49 L 505.53 173.42 L 505.57 173.35 L 505.61 173.10 L 516.14 172.75 L 516.16 172.73 L 516.19 172.72 L 516.39 172.61 L 516.55 172.50 L 517.48 171.09 L 517.71 170.92 L 518.38 170.50 L 518.95 170.40 L 519.38 170.26 L 519.50 168.95 L 520.03 167.43 L 520.23 167.32 L 520.30 166.33 L 521.85 164.52 L 521.87 164.52 L 521.96 164.08 L 522.25 164.03 L 522.25 164.03 L 522.27 163.92 L 522.33 163.78 L 522.46 163.64 L 522.63 162.88 L 524.24 161.04 L 524.45 160.82 L 524.60 160.49 L 524.62 160.46 L 524.65 160.20 L 531.82 159.37 L 532.05 158.74 L 532.19 158.71 L 532.24 158.30 L 532.91 158.10 L 533.06 157.68 L 533.18 157.68 L 533.26 156.81 L 533.48 154.57 L 533.52 154.53 L 533.82 154.50 L 533.89 153.77 L 534.15 152.89 L 534.20 152.29 L 534.42 151.73 L 534.57 151.43 L 534.69 150.76 L 534.96 150.19 L 534.99 149.56 L 535.34 149.41 L 535.37 149.41 L 535.43 148.60 L 535.50 148.60 L 535.53 148.54 L 535.93 147.02 L 536.51 146.52 L 536.80 146.69 L 537.75 146.62 L 537.77 146.61 L 537.92 146.59 L 537.98 146.58 L 538.09 146.47 L 538.21 146.38 L 538.34 146.22 L 538.62 146.00 L 538.89 145.98 L 539.74 145.83 L 539.78 145.82 L 540.63 145.68 L 540.99 145.59 L 548.24 145.57 L 548.61 145.46 L 548.79 145.39 L 548.87 145.39 L 548.89 145.38 L 549.07 145.36 L 549.16 145.31 L 549.37 145.17 L 549.50 145.14 L 549.97 144.99 L 550.22 144.65 L 550.63 144.59 L 550.74 144.38 L 550.88 144.24 L 551.06 144.06 L 551.68 144.11 L 551.75 144.10 L 552.66 143.67 L 552.80 143.42 L 552.98 143.34 L 553.43 143.14 L 553.63 143.20 L 553.74 143.53 L 553.83 143.51 L 553.95 143.37 L 554.34 142.37 L 554.75 142.27 L 555.11 142.18 L 555.16 142.14 L 555.20 141.86 L 581.43 141.79 L 581.60 141.66 L 596.69 141.34 L 596.77 141.70 L 596.89 140.18 L 596.91 140.18 L 596.95 140.21 L 597.49 137.11 L 597.55 137.09 L 598.22 137.15 L 598.89 136.96 L 599.13 136.67 L 599.55 136.29 L 600.11 136.05 L 600.13 136.05 L 600.20 135.99 L 600.42 135.93 L 600.49 135.78 L 601.03 135.03 L 601.74 134.87 L 601.81 134.72 L 602.17 134.66 L 602.27 135.25 L 602.54 135.03 L 602.77 134.98 L 603.23 134.82 L 603.67 134.74 L 603.89 134.41 L 603.90 134.41 L 613.34 134.40 L 616.31 133.55 L 616.43 133.14 L 616.58 132.76 L 617.05 132.73 L 617.25 132.60 L 617.40 130.61 L 617.50 129.32 L 617.72 129.20 L 617.76 129.17 L 618.09 128.80 L 618.19 128.60 L 618.25 128.50 L 618.43 128.17 L 618.49 128.15 L 618.58 128.11 L 618.65 127.92 L 618.74 127.71 L 618.83 127.59 L 618.90 127.56 L 619.20 127.47 L 619.36 127.24 L 619.48 127.12 L 619.51 126.49 L 619.86 126.37 L 619.99 126.00 L 628.90 126.08 L 629.55 125.86 L 629.66 125.85 L 630.06 125.11 L 630.24 125.01 L 630.98 123.81 L 631.30 123.69 L 631.73 122.60 L 631.78 122.60 L 632.04 122.57 L 632.13 121.95 L 632.47 121.07 L 632.98 120.55 L 633.15 119.92 L 636.29 118.32 L 636.59 117.85 L 636.61 117.85 L 644.97 116.35 L 644.97 116.35 L 645.08 116.29 L 645.18 115.48 L 645.57 114.53 L 645.60 114.52 L 646.05 114.40 L 646.72 114.29 L 647.49 114.24 L 647.54 114.18 L 647.62 114.13 L 647.75 114.13 L 647.96 114.00 L 648.06 113.93 L 648.17 113.92 L 648.31 113.78 L 649.45 113.25 L 649.57 112.43 L 649.83 100.13 L 649.93 100.03 L 650.00 100.00"/>
	</g>
	<g id="poloto_plot1" class="poloto_plot poloto_imgs poloto_line poloto1 poloto_stroke" fill="none" stroke="black">
		<path d=" M 150.00 384.37 L 150.02 384.36 L 150.04 384.35 L 150.04 384.35 L 150.06 384.35 L 150.09 383.85 L 150.19 383.84 L 150.42 383.83 L 150.75 383.64 L 150.92 383.56 L 151.27 383.58 L 151.33 383.54 L 151.37 383.54 L 151.77 383.51 L 152.52 383.41 L 152.76 381.48 L 152.82 381.48 L 153.27 381.43 L 153.79 381.43 L 153.80 381.43 L 153.80 381.43 L 160.84 381.43 L 160.89 381.43 L 160.98 381.42 L 161.02 381.40 L 161.29 381.39 L 161.41 381.39 L 161.70 381.39 L 161.75 381.39 L 161.83 381.37 L 161.92 381.37 L 161.95 381.37 L 162.02 381.35 L 162.10 381.35 L 162.18 381.35 L 162.37 381.24 L 162.54 381.24 L 162.58 381.24 L 162.66 381.24 L 163.22 381.97 L 163.23 381.97 L 163.30 381.96 L 163.62 381.85 L 163.88 381.73 L 164.17 381.68 L 164.23 381.64 L 164.23 381.64 L 164.29 381.64 L 164.40 381.64 L 164.54 381.59 L 164.82 381.55 L 164.83 381.55 L 164.88 381.55 L 164.95 381.53 L 165.11 381.53 L 165.12 381.53 L 165.29 381.52 L 165.35 381.52 L 165.41 381.52 L 165.48 381.52 L 166.34 381.44 L 166.54 381.43 L 167.02 381.39 L 167.12 381.39 L 167.20 381.39 L 167.24 381.39 L 167.57 381.33 L 167.71 381.33 L 167.88 381.26 L 167.96 381.26 L 168.16 381.10 L 168.25 381.04 L 168.37 381.04 L 168.48 381.04 L 168.85 378.78 L 168.87 378.74 L 168.88 378.74 L 169.01 378.52 L 175.54 378.52 L 176.22 377.55 L 176.24 377.55 L 177.04 377.55 L 177.11 377.55 L 177.18 377.45 L 177.38 377.43 L 177.47 377.43 L 177.50 377.43 L 177.60 377.43 L 177.83 377.43 L 177.84 377.22 L 177.93 377.21 L 178.02 377.21 L 178.12 377.19 L 178.25 377.18 L 178.30 377.18 L 178.32 377.18 L 178.43 377.18 L 178.44 377.18 L 178.57 377.18 L 178.59 377.18 L 178.78 376.23 L 178.81 376.23 L 178.87 376.11 L 178.95 376.11 L 179.06 376.11 L 179.11 376.10 L 179.47 376.10 L 179.48 376.10 L 179.55 376.04 L 179.71 376.04 L 179.86 375.49 L 179.91 375.42 L 179.98 375.42 L 180.01 375.42 L 180.09 375.41 L 180.50 371.37 L 180.55 371.40 L 180.69 371.40 L 180.73 371.40 L 180.76 371.40 L 180.83 371.40 L 180.89 371.34 L 181.04 371.34 L 181.14 371.34 L 181.22 371.34 L 181.27 371.34 L 181.64 371.33 L 181.84 371.33 L 181.90 371.23 L 182.07 371.23 L 182.08 371.23 L 182.10 371.23 L 182.21 370.96 L 182.29 370.88 L 182.60 369.93 L 182.65 369.93 L 182.70 369.93 L 182.79 369.94 L 182.79 369.94 L 182.83 369.94 L 182.86 369.94 L 182.90 369.94 L 182.94 369.94 L 183.06 369.92 L 183.15 369.92 L 183.24 369.91 L 183.35 369.91 L 183.48 369.90 L 183.61 369.54 L 183.71 369.42 L 183.90 369.42 L 183.90 369.42 L 184.01 369.42 L 193.13 369.42 L 193.30 369.41 L 193.73 369.35 L 193.82 369.34 L 193.89 369.34 L 193.91 369.34 L 194.06 369.34 L 194.17 369.34 L 194.23 369.34 L 194.30 369.34 L 194.33 369.34 L 194.50 369.34 L 194.83 369.36 L 194.91 369.36 L 194.97 369.36 L 195.05 369.36 L 195.47 369.28 L 195.53 369.24 L 195.56 369.24 L 195.59 369.19 L 195.68 369.19 L 195.75 369.19 L 196.06 368.82 L 196.50 368.82 L 196.66 368.82 L 197.15 368.82 L 197.38 366.35 L 197.46 366.35 L 197.56 366.35 L 197.70 366.35 L 197.92 366.35 L 198.23 366.35 L 198.65 366.35 L 198.71 366.35 L 199.01 366.29 L 199.20 366.18 L 199.27 366.18 L 199.38 366.18 L 199.47 366.17 L 200.55 366.01 L 201.58 366.01 L 210.75 366.01 L 210.82 366.01 L 210.87 366.01 L 211.15 366.01 L 212.01 365.23 L 212.05 365.21 L 212.17 365.13 L 212.59 365.12 L 212.79 364.94 L 213.09 364.94 L 213.16 364.94 L 213.23 364.94 L 213.76 362.77 L 213.83 362.77 L 213.94 362.77 L 214.06 362.77 L 214.11 362.63 L 214.41 362.37 L 214.51 362.37 L 214.56 362.37 L 214.63 361.97 L 214.76 361.57 L 214.82 361.57 L 214.95 361.56 L 215.35 358.33 L 215.39 358.33 L 215.42 358.33 L 215.49 358.33 L 215.58 358.33 L 215.62 358.33 L 215.66 358.33 L 215.85 358.33 L 215.90 358.26 L 216.13 358.25 L 216.27 358.20 L 216.36 357.82 L 217.07 351.39 L 217.15 351.39 L 244.12 351.39 L 244.14 351.39 L 254.45 351.39 L 255.01 351.29 L 255.12 351.29 L 255.28 351.29 L 255.32 351.29 L 255.39 351.29 L 259.86 351.24 L 260.45 351.18 L 260.66 351.18 L 260.78 351.16 L 263.56 351.10 L 263.58 351.02 L 263.76 351.02 L 264.59 350.15 L 264.64 350.15 L 264.74 350.15 L 265.03 350.15 L 265.07 350.15 L 265.19 350.15 L 265.31 350.15 L 265.33 350.15 L 273.99 350.13 L 274.06 349.98 L 274.40 349.98 L 274.41 348.93 L 274.47 348.93 L 274.54 348.93 L 274.64 348.83 L 274.79 348.83 L 274.91 348.78 L 275.02 348.78 L 275.07 348.78 L 275.24 348.77 L 275.84 346.99 L 276.08 346.98 L 276.12 346.97 L 276.17 346.97 L 276.20 346.97 L 276.29 346.95 L 276.53 346.73 L 276.57 346.69 L 276.72 345.09 L 276.77 345.09 L 276.80 345.09 L 276.85 345.06 L 276.89 345.06 L 276.92 345.06 L 277.11 344.19 L 277.19 344.18 L 277.30 344.16 L 277.37 341.44 L 277.40 341.44 L 277.59 339.92 L 277.65 339.92 L 277.68 339.91 L 277.73 339.91 L 277.76 339.91 L 277.79 339.91 L 277.80 339.91 L 277.89 337.09 L 277.93 337.09 L 278.02 337.08 L 278.09 337.08 L 278.28 337.02 L 278.52 336.94 L 278.53 336.94 L 278.60 336.92 L 278.82 336.88 L 278.92 336.88 L 279.03 336.88 L 279.14 335.66 L 279.21 335.66 L 279.52 335.66 L 279.55 335.65 L 279.59 335.65 L 279.61 335.65 L 279.81 333.91 L 279.85 333.91 L 279.99 333.90 L 293.32 333.90 L 294.08 333.89 L 294.10 333.89 L 294.25 333.89 L 294.26 333.89 L 294.36 333.89 L 294.44 333.89 L 294.50 333.80 L 294.59 333.80 L 294.62 333.80 L 294.65 333.80 L 294.80 333.65 L 295.08 333.55 L 295.27 333.45 L 295.47 332.95 L 295.48 332.95 L 295.51 332.83 L 295.54 332.81 L 295.94 332.51 L 295.94 332.51 L 296.01 332.47 L 296.18 332.47 L 296.29 332.44 L 296.31 331.72 L 296.32 331.72 L 296.36 332.43 L 296.39 332.39 L 296.41 332.38 L 296.51 331.41 L 296.51 331.41 L 296.72 331.37 L 297.29 331.37 L 297.43 331.37 L 297.47 331.37 L 297.50 331.37 L 297.53 331.37 L 297.61 331.31 L 306.72 330.51 L 306.73 330.51 L 306.81 330.50 L 306.83 330.33 L 306.89 321.75 L 306.99 318.56 L 307.00 318.56 L 307.17 318.50 L 307.20 318.50 L 307.23 318.48 L 307.38 318.48 L 307.77 317.70 L 307.78 317.70 L 307.88 317.66 L 307.92 317.66 L 307.94 317.60 L 308.27 317.13 L 308.28 317.13 L 308.78 317.03 L 308.84 317.00 L 309.02 317.01 L 309.22 315.96 L 309.28 315.85 L 309.31 315.75 L 309.40 315.36 L 309.66 315.26 L 309.71 315.17 L 309.82 315.17 L 309.94 315.17 L 310.33 315.17 L 310.37 315.17 L 310.46 315.17 L 310.47 315.17 L 310.59 315.19 L 310.88 315.19 L 311.18 315.08 L 311.22 315.08 L 311.29 315.06 L 311.37 315.06 L 311.60 315.06 L 311.99 315.06 L 312.11 314.97 L 312.32 312.20 L 313.16 314.81 L 313.34 314.80 L 313.48 314.79 L 313.69 314.79 L 313.75 314.76 L 313.96 314.75 L 314.29 314.59 L 314.34 314.59 L 314.40 314.59 L 314.44 314.59 L 314.47 314.59 L 314.73 314.44 L 320.77 314.44 L 320.82 314.44 L 321.20 314.43 L 321.23 314.43 L 321.32 314.40 L 321.39 314.21 L 321.40 314.21 L 321.60 314.19 L 321.65 314.19 L 322.89 314.03 L 323.04 314.03 L 323.14 314.03 L 323.17 314.03 L 323.55 313.91 L 323.68 313.91 L 323.71 313.91 L 323.91 313.91 L 324.13 313.25 L 324.16 313.25 L 324.35 313.14 L 324.43 313.14 L 324.50 313.14 L 324.66 313.14 L 324.99 313.13 L 325.06 313.12 L 325.12 313.05 L 325.25 312.94 L 325.59 312.84 L 325.88 310.23 L 325.94 310.14 L 326.24 310.02 L 326.30 309.99 L 326.34 309.89 L 326.38 309.71 L 326.48 308.93 L 326.50 308.96 L 326.55 308.95 L 326.72 308.94 L 326.99 308.83 L 327.15 308.79 L 327.34 308.78 L 327.42 308.77 L 327.61 308.76 L 327.91 308.76 L 328.21 308.75 L 328.45 308.75 L 328.50 308.75 L 328.56 308.75 L 328.56 308.74 L 328.74 308.74 L 328.79 308.73 L 328.86 308.63 L 329.36 308.62 L 329.37 308.62 L 329.50 308.61 L 330.08 308.61 L 330.46 308.48 L 330.74 308.37 L 330.75 308.37 L 330.78 308.37 L 339.23 308.37 L 339.26 308.37 L 339.36 308.37 L 339.40 308.37 L 339.43 308.35 L 339.44 308.35 L 339.80 308.35 L 339.88 308.34 L 339.99 308.33 L 340.17 308.31 L 340.28 308.31 L 340.43 308.25 L 340.51 308.25 L 340.55 308.25 L 340.59 308.25 L 340.70 308.01 L 340.71 308.01 L 340.75 308.01 L 340.84 308.01 L 340.90 308.01 L 340.97 308.06 L 341.08 308.06 L 341.28 308.05 L 341.37 308.05 L 341.46 308.05 L 341.97 307.29 L 342.42 307.08 L 342.95 306.53 L 343.09 306.53 L 343.24 306.53 L 343.41 306.53 L 346.52 306.46 L 346.77 306.46 L 376.23 306.36 L 468.99 306.22 L 469.30 306.18 L 469.51 306.17 L 469.72 306.17 L 470.05 305.82 L 470.16 305.82 L 470.24 305.82 L 470.39 304.53 L 470.60 304.77 L 470.77 304.76 L 470.82 304.76 L 470.96 304.75 L 470.99 304.75 L 471.14 304.74 L 471.28 304.68 L 471.70 303.87 L 471.71 303.87 L 471.83 303.80 L 472.23 301.16 L 472.24 301.16 L 472.32 301.16 L 472.42 301.12 L 472.85 299.89 L 472.86 299.89 L 472.95 299.89 L 473.05 299.86 L 473.21 299.42 L 473.22 299.42 L 473.30 299.41 L 473.31 299.41 L 473.35 299.16 L 473.53 297.42 L 473.55 297.42 L 473.61 297.42 L 473.81 297.27 L 473.85 297.27 L 474.01 296.99 L 474.26 296.99 L 474.30 296.99 L 474.34 296.99 L 474.38 296.99 L 474.51 296.98 L 474.65 296.19 L 474.67 296.19 L 474.74 296.19 L 474.82 295.59 L 474.84 295.59 L 474.92 294.96 L 474.96 294.93 L 475.12 294.30 L 475.14 294.30 L 475.22 294.30 L 475.33 294.29 L 476.00 294.29 L 476.33 294.29 L 483.58 294.29 L 483.65 294.29 L 483.72 294.29 L 483.85 294.29 L 484.12 294.12 L 484.14 294.12 L 484.19 294.07 L 484.36 293.20 L 484.38 293.20 L 485.96 293.21 L 486.06 293.04 L 486.86 293.04 L 486.95 293.04 L 487.04 292.97 L 488.00 292.26 L 488.41 292.12 L 488.51 292.07 L 488.86 290.71 L 489.07 290.71 L 489.43 290.60 L 490.07 290.60 L 499.76 290.60 L 500.34 290.51 L 500.37 290.53 L 501.18 290.53 L 501.22 290.53 L 501.51 290.53 L 501.84 290.50 L 501.84 290.50 L 501.87 290.50 L 502.31 289.71 L 503.30 289.69 L 503.37 289.69 L 503.47 289.68 L 503.62 289.65 L 503.66 289.63 L 503.72 289.63 L 504.18 289.59 L 504.56 289.59 L 504.76 289.59 L 504.78 289.59 L 505.20 289.57 L 505.52 289.48 L 505.53 289.48 L 505.57 289.48 L 505.61 289.48 L 516.14 289.30 L 516.16 289.30 L 516.19 289.30 L 516.39 289.30 L 516.55 289.30 L 517.48 288.51 L 517.71 288.46 L 518.38 288.40 L 518.95 288.36 L 519.38 288.36 L 519.50 288.36 L 520.03 287.17 L 520.23 287.14 L 520.30 287.10 L 521.85 286.27 L 521.87 286.27 L 521.96 286.26 L 522.25 286.25 L 522.25 286.25 L 522.27 286.25 L 522.33 286.22 L 522.46 286.19 L 522.63 286.09 L 524.24 284.72 L 524.45 284.65 L 524.60 284.65 L 524.62 284.65 L 524.65 284.65 L 531.82 284.65 L 532.05 284.64 L 532.19 284.64 L 532.24 284.64 L 532.91 284.64 L 533.06 284.64 L 533.18 284.64 L 533.26 284.61 L 533.48 282.81 L 533.52 282.80 L 533.82 282.80 L 533.89 282.79 L 534.15 282.09 L 534.20 282.05 L 534.42 281.60 L 534.57 281.60 L 534.69 281.56 L 534.96 281.14 L 534.99 281.13 L 535.34 279.80 L 535.37 279.80 L 535.43 279.79 L 535.50 279.79 L 535.53 279.79 L 535.93 278.45 L 536.51 278.33 L 536.80 278.33 L 537.75 278.29 L 537.77 278.29 L 537.92 278.29 L 537.98 278.29 L 538.09 278.29 L 538.21 278.29 L 538.34 278.27 L 538.62 278.25 L 538.89 278.25 L 539.74 278.20 L 539.78 278.20 L 540.63 278.16 L 540.99 278.12 L 548.24 278.14 L 548.61 278.07 L 548.79 278.00 L 548.87 278.00 L 548.89 278.00 L 549.07 277.99 L 549.16 277.99 L 549.37 277.99 L 549.50 277.99 L 549.97 277.87 L 550.22 277.62 L 550.63 277.61 L 550.74 277.44 L 550.88 277.37 L 551.06 277.30 L 551.68 277.37 L 551.75 277.37 L 552.66 277.12 L 552.80 277.12 L 552.98 277.12 L 553.43 277.09 L 553.63 277.22 L 553.74 277.22 L 553.83 277.22 L 553.95 277.22 L 554.34 276.64 L 554.75 276.62 L 555.11 276.62 L 555.16 276.62 L 555.20 276.62 L 581.43 276.62 L 581.60 276.58 L 596.69 276.39 L 596.77 276.39 L 596.89 276.33 L 596.91 276.33 L 596.95 276.33 L 597.49 274.10 L 597.55 274.10 L 598.22 274.10 L 598.89 274.00 L 599.13 273.78 L 599.55 273.49 L 600.11 273.42 L 600.13 273.42 L 600.20 273.37 L 600.42 273.37 L 600.49 273.32 L 601.03 272.72 L 601.74 272.62 L 601.81 272.62 L 602.17 272.62 L 602.27 272.62 L 602.54 272.47 L 602.77 272.45 L 603.23 272.32 L 603.67 272.26 L 603.89 272.26 L 603.90 272.26 L 613.34 272.26 L 616.31 272.21 L 616.43 272.19 L 616.58 271.92 L 617.05 271.94 L 617.25 271.94 L 617.40 271.94 L 617.50 271.82 L 617.72 271.74 L 617.76 271.74 L 618.09 271.52 L 618.19 271.37 L 618.25 271.32 L 618.43 271.22 L 618.49 271.22 L 618.58 271.21 L 618.65 271.08 L 618.74 270.94 L 618.83 270.90 L 618.90 270.90 L 619.20 270.85 L 619.36 270.74 L 619.48 270.66 L 619.51 270.66 L 619.86 270.66 L 619.99 270.66 L 628.90 270.68 L 629.55 270.66 L 629.66 270.66 L 630.06 270.29 L 630.24 270.23 L 630.98 270.19 L 631.30 270.19 L 631.73 269.29 L 631.78 269.29 L 632.04 269.28 L 632.13 269.26 L 632.47 269.21 L 632.98 268.79 L 633.15 268.78 L 636.29 267.80 L 636.59 267.80 L 636.61 267.80 L 644.97 267.78 L 644.97 267.78 L 645.08 267.78 L 645.18 267.67 L 645.57 266.83 L 645.60 266.83 L 646.05 266.83 L 646.72 266.83 L 647.49 266.83 L 647.54 266.83 L 647.62 266.83 L 647.75 266.83 L 647.96 266.71 L 648.06 266.71 L 648.17 266.70 L 648.31 266.57 L 649.45 266.44 L 649.57 266.44 L 649.83 254.68 L 649.93 254.68 L 650.00 254.66"/>
	</g>
	<g id="poloto_plot2" class="poloto_plot poloto_imgs poloto_line poloto2 poloto_stroke" fill="none" stroke="black">
		<path d=" M 150.00 392.99 L 150.02 392.98 L 150.04 392.98 L 150.04 392.98 L 150.06 392.98 L 150.09 391.19 L 150.19 390.94 L 150.42 390.94 L 150.75 390.93 L 150.92 389.85 L 151.27 389.76 L 151.33 389.73 L 151.37 389.70 L 151.77 389.22 L 152.52 388.84 L 152.76 388.77 L 152.82 388.77 L 153.27 388.74 L 153.79 388.74 L 153.80 388.74 L 153.80 388.74 L 160.84 388.74 L 160.89 388.74 L 160.98 388.73 L 161.02 388.73 L 161.29 388.62 L 161.41 388.59 L 161.70 388.41 L 161.75 388.34 L 161.83 388.18 L 161.92 388.16 L 161.95 388.15 L 162.02 388.12 L 162.10 388.12 L 162.18 388.13 L 162.37 387.95 L 162.54 387.78 L 162.58 387.78 L 162.66 387.68 L 163.22 387.47 L 163.23 387.47 L 163.30 387.40 L 163.62 387.16 L 163.88 386.87 L 164.17 386.75 L 164.23 386.75 L 164.23 386.75 L 164.29 386.59 L 164.40 386.59 L 164.54 386.57 L 164.82 386.45 L 164.83 386.24 L 164.88 386.24 L 164.95 386.13 L 165.11 386.13 L 165.12 386.13 L 165.29 385.82 L 165.35 385.80 L 165.41 385.77 L 165.48 385.63 L 166.34 385.54 L 166.54 385.51 L 167.02 385.29 L 167.12 385.29 L 167.20 385.28 L 167.24 385.12 L 167.57 384.24 L 167.71 384.23 L 167.88 383.96 L 167.96 383.94 L 168.16 383.82 L 168.25 383.78 L 168.37 383.59 L 168.48 383.43 L 168.85 383.43 L 168.87 383.41 L 168.88 383.29 L 169.01 382.44 L 175.54 382.35 L 176.22 382.10 L 176.24 382.06 L 177.04 381.85 L 177.11 381.85 L 177.18 381.69 L 177.38 381.59 L 177.47 381.39 L 177.50 381.23 L 177.60 380.92 L 177.83 380.91 L 177.84 380.91 L 177.93 380.69 L 178.02 380.69 L 178.12 380.46 L 178.25 380.27 L 178.30 380.17 L 178.32 380.17 L 178.43 379.96 L 178.44 379.95 L 178.57 379.76 L 178.59 379.75 L 178.78 379.69 L 178.81 379.69 L 178.87 379.61 L 178.95 379.60 L 179.06 379.60 L 179.11 379.59 L 179.47 379.39 L 179.48 379.40 L 179.55 379.02 L 179.71 379.01 L 179.86 378.89 L 179.91 378.89 L 179.98 378.88 L 180.01 378.85 L 180.09 378.33 L 180.50 377.89 L 180.55 377.65 L 180.69 377.63 L 180.73 377.57 L 180.76 377.56 L 180.83 377.44 L 180.89 377.03 L 181.04 376.97 L 181.14 376.96 L 181.22 376.75 L 181.27 376.74 L 181.64 376.59 L 181.84 376.48 L 181.90 376.38 L 182.07 376.37 L 182.08 376.37 L 182.10 376.35 L 182.21 375.60 L 182.29 375.60 L 182.60 375.49 L 182.65 375.19 L 182.70 375.18 L 182.79 375.06 L 182.79 374.99 L 182.83 374.94 L 182.86 374.91 L 182.90 374.91 L 182.94 374.85 L 183.06 374.00 L 183.15 373.92 L 183.24 373.66 L 183.35 373.65 L 183.48 373.56 L 183.61 373.30 L 183.71 372.57 L 183.90 372.51 L 183.90 372.20 L 184.01 372.12 L 193.13 372.13 L 193.30 372.13 L 193.73 371.78 L 193.82 371.78 L 193.89 371.78 L 193.91 371.69 L 194.06 371.54 L 194.17 371.52 L 194.23 371.43 L 194.30 371.36 L 194.33 371.33 L 194.50 371.28 L 194.83 371.35 L 194.91 371.12 L 194.97 371.06 L 195.05 371.05 L 195.47 371.01 L 195.53 370.97 L 195.56 370.97 L 195.59 370.92 L 195.68 370.88 L 195.75 370.80 L 196.06 370.58 L 196.50 370.49 L 196.66 370.45 L 197.15 370.31 L 197.38 369.97 L 197.46 369.91 L 197.56 369.64 L 197.70 369.30 L 197.92 369.21 L 198.23 369.20 L 198.65 369.19 L 198.71 369.06 L 199.01 368.98 L 199.20 368.87 L 199.27 368.78 L 199.38 368.75 L 199.47 368.52 L 200.55 368.41 L 201.58 368.41 L 210.75 368.38 L 210.82 368.25 L 210.87 368.17 L 211.15 368.04 L 212.01 367.81 L 212.05 367.78 L 212.17 367.62 L 212.59 367.56 L 212.79 367.11 L 213.09 367.10 L 213.16 367.09 L 213.23 366.65 L 213.76 366.24 L 213.83 366.24 L 213.94 366.21 L 214.06 366.18 L 214.11 366.03 L 214.41 365.35 L 214.51 365.17 L 214.56 365.16 L 214.63 365.09 L 214.76 364.82 L 214.82 364.14 L 214.95 363.86 L 215.35 363.70 L 215.39 363.36 L 215.42 363.36 L 215.49 363.30 L 215.58 363.21 L 215.62 363.18 L 215.66 363.15 L 215.85 362.36 L 215.90 361.89 L 216.13 361.80 L 216.27 361.01 L 216.36 360.86 L 217.07 359.62 L 217.15 359.59 L 244.12 359.23 L 244.14 359.23 L 254.45 359.13 L 255.01 359.00 L 255.12 359.00 L 255.28 358.93 L 255.32 358.83 L 255.39 358.81 L 259.86 358.80 L 260.45 357.37 L 260.66 357.24 L 260.78 356.75 L 263.56 356.69 L 263.58 356.64 L 263.76 356.63 L 264.59 356.55 L 264.64 356.38 L 264.74 356.32 L 265.03 356.25 L 265.07 356.23 L 265.19 355.95 L 265.31 355.87 L 265.33 355.66 L 273.99 355.39 L 274.06 354.74 L 274.40 354.57 L 274.41 354.32 L 274.47 354.13 L 274.54 353.83 L 274.64 353.04 L 274.79 352.61 L 274.91 352.05 L 275.02 352.05 L 275.07 351.62 L 275.24 351.59 L 275.84 351.19 L 276.08 350.99 L 276.12 350.88 L 276.17 350.88 L 276.20 350.73 L 276.29 350.25 L 276.53 350.20 L 276.57 350.20 L 276.72 349.88 L 276.77 349.88 L 276.80 349.70 L 276.85 349.58 L 276.89 349.58 L 276.92 349.33 L 277.11 349.17 L 277.19 348.92 L 277.30 348.91 L 277.37 348.78 L 277.40 348.58 L 277.59 348.48 L 277.65 348.37 L 277.68 348.37 L 277.73 348.36 L 277.76 348.17 L 277.79 348.17 L 277.80 348.17 L 277.89 348.10 L 277.93 347.88 L 278.02 347.88 L 278.09 347.83 L 278.28 347.81 L 278.52 347.79 L 278.53 347.79 L 278.60 347.78 L 278.82 347.77 L 278.92 347.77 L 279.03 347.77 L 279.14 347.74 L 279.21 347.48 L 279.52 347.48 L 279.55 347.32 L 279.59 347.32 L 279.61 347.14 L 279.81 347.08 L 279.85 347.04 L 279.99 347.04 L 293.32 346.99 L 294.08 346.92 L 294.10 346.92 L 294.25 346.92 L 294.26 346.92 L 294.36 346.61 L 294.44 346.60 L 294.50 346.52 L 294.59 346.47 L 294.62 346.44 L 294.65 346.43 L 294.80 346.40 L 295.08 346.34 L 295.27 345.92 L 295.47 345.90 L 295.48 345.87 L 295.51 345.53 L 295.54 345.53 L 295.94 345.53 L 295.94 345.49 L 296.01 345.17 L 296.18 345.13 L 296.29 345.12 L 296.31 345.11 L 296.32 345.08 L 296.36 345.05 L 296.39 344.73 L 296.41 344.72 L 296.51 344.72 L 296.51 344.69 L 296.72 344.66 L 297.29 344.65 L 297.43 344.62 L 297.47 344.61 L 297.50 344.51 L 297.53 344.51 L 297.61 344.14 L 306.72 344.02 L 306.73 343.92 L 306.81 343.85 L 306.83 343.83 L 306.89 343.52 L 306.99 343.44 L 307.00 343.42 L 307.17 343.42 L 307.20 343.42 L 307.23 343.11 L 307.38 343.07 L 307.77 343.06 L 307.78 343.04 L 307.88 342.87 L 307.92 342.88 L 307.94 342.59 L 308.27 342.59 L 308.28 342.57 L 308.78 342.50 L 308.84 342.16 L 309.02 342.16 L 309.22 342.16 L 309.28 341.90 L 309.31 341.70 L 309.40 341.70 L 309.66 341.65 L 309.71 341.64 L 309.82 341.56 L 309.94 341.56 L 310.33 341.56 L 310.37 341.56 L 310.46 341.54 L 310.47 341.54 L 310.59 341.54 L 310.88 341.52 L 311.18 341.48 L 311.22 341.48 L 311.29 341.44 L 311.37 341.35 L 311.60 341.35 L 311.99 341.24 L 312.11 341.05 L 312.32 341.02 L 313.16 340.81 L 313.34 340.81 L 313.48 340.81 L 313.69 340.80 L 313.75 340.79 L 313.96 340.68 L 314.29 340.67 L 314.34 340.57 L 314.40 340.53 L 314.44 340.54 L 314.47 340.50 L 314.73 340.49 L 320.77 340.48 L 320.82 340.48 L 321.20 340.48 L 321.23 340.47 L 321.32 340.18 L 321.39 340.17 L 321.40 340.17 L 321.60 340.17 L 321.65 340.15 L 322.89 339.73 L 323.04 339.68 L 323.14 339.67 L 323.17 339.67 L 323.55 339.66 L 323.68 339.72 L 323.71 339.72 L 323.91 339.69 L 324.13 339.28 L 324.16 339.28 L 324.35 339.26 L 324.43 339.26 L 324.50 339.26 L 324.66 339.18 L 324.99 338.82 L 325.06 338.82 L 325.12 338.76 L 325.25 338.43 L 325.59 338.06 L 325.88 338.09 L 325.94 337.89 L 326.24 337.89 L 326.30 337.87 L 326.34 337.85 L 326.38 337.65 L 326.48 337.65 L 326.50 337.65 L 326.55 337.65 L 326.72 337.65 L 326.99 337.49 L 327.15 337.48 L 327.34 337.48 L 327.42 337.48 L 327.61 337.48 L 327.91 337.48 L 328.21 337.48 L 328.45 337.47 L 328.50 337.47 L 328.56 337.46 L 328.56 337.40 L 328.74 337.35 L 328.79 337.35 L 328.86 337.34 L 329.36 337.33 L 329.37 337.14 L 329.50 337.14 L 330.08 337.15 L 330.46 337.14 L 330.74 337.10 L 330.75 337.03 L 330.78 337.03 L 339.23 336.90 L 339.26 336.89 L 339.36 336.89 L 339.40 336.77 L 339.43 336.77 L 339.44 336.76 L 339.80 336.73 L 339.88 336.34 L 339.99 336.26 L 340.17 335.50 L 340.28 335.49 L 340.43 335.16 L 340.51 335.20 L 340.55 335.20 L 340.59 334.78 L 340.70 334.71 L 340.71 334.42 L 340.75 334.38 L 340.84 334.35 L 340.90 334.21 L 340.97 335.92 L 341.08 335.89 L 341.28 335.20 L 341.37 335.05 L 341.46 334.90 L 341.97 334.63 L 342.42 334.34 L 342.95 333.94 L 343.09 333.90 L 343.24 333.90 L 343.41 333.86 L 346.52 333.66 L 346.77 333.64 L 376.23 333.11 L 468.99 333.09 L 469.30 332.85 L 469.51 332.81 L 469.72 332.81 L 470.05 332.59 L 470.16 332.34 L 470.24 331.87 L 470.39 331.75 L 470.60 331.79 L 470.77 331.52 L 470.82 331.51 L 470.96 331.43 L 470.99 331.43 L 471.14 330.97 L 471.28 330.27 L 471.70 330.21 L 471.71 330.13 L 471.83 329.23 L 472.23 329.20 L 472.24 329.11 L 472.32 329.05 L 472.42 328.24 L 472.85 328.19 L 472.86 328.08 L 472.95 328.02 L 473.05 327.49 L 473.21 327.47 L 473.22 327.38 L 473.30 326.49 L 473.31 326.46 L 473.35 326.44 L 473.53 326.44 L 473.55 326.34 L 473.61 326.28 L 473.81 326.19 L 473.85 326.19 L 474.01 326.15 L 474.26 326.18 L 474.30 326.14 L 474.34 326.12 L 474.38 326.09 L 474.51 325.16 L 474.65 325.14 L 474.67 325.06 L 474.74 324.11 L 474.82 323.77 L 474.84 323.65 L 474.92 323.18 L 474.96 322.38 L 475.12 322.37 L 475.14 322.32 L 475.22 322.16 L 475.33 322.16 L 476.00 322.13 L 476.33 322.11 L 483.58 322.14 L 483.65 321.96 L 483.72 321.83 L 483.85 321.19 L 484.12 321.18 L 484.14 321.11 L 484.19 320.30 L 484.36 320.30 L 484.38 320.22 L 485.96 320.14 L 486.06 319.84 L 486.86 319.70 L 486.95 319.67 L 487.04 318.77 L 488.00 318.51 L 488.41 318.30 L 488.51 317.62 L 488.86 317.62 L 489.07 317.24 L 489.43 316.66 L 490.07 316.31 L 499.76 316.31 L 500.34 316.30 L 500.37 316.30 L 501.18 316.17 L 501.22 316.10 L 501.51 316.04 L 501.84 315.29 L 501.84 315.29 L 501.87 315.25 L 502.31 315.10 L 503.30 314.59 L 503.37 314.54 L 503.47 314.54 L 503.62 314.32 L 503.66 314.29 L 503.72 314.25 L 504.18 314.25 L 504.56 314.25 L 504.76 314.25 L 504.78 314.22 L 505.20 313.45 L 505.52 313.38 L 505.53 313.32 L 505.57 313.25 L 505.61 313.06 L 516.14 312.92 L 516.16 312.90 L 516.19 312.88 L 516.39 312.79 L 516.55 312.69 L 517.48 312.26 L 517.71 312.17 L 518.38 311.84 L 518.95 311.79 L 519.38 311.66 L 519.50 310.53 L 520.03 310.34 L 520.23 310.28 L 520.30 309.47 L 521.85 308.69 L 521.87 308.69 L 521.96 308.32 L 522.25 308.29 L 522.25 308.29 L 522.27 308.20 L 522.33 308.10 L 522.46 308.01 L 522.63 307.46 L 524.24 307.17 L 524.45 307.04 L 524.60 306.73 L 524.62 306.70 L 524.65 306.51 L 531.82 305.80 L 532.05 305.28 L 532.19 305.26 L 532.24 304.92 L 532.91 304.78 L 533.06 304.41 L 533.18 304.41 L 533.26 303.65 L 533.48 303.47 L 533.52 303.45 L 533.82 303.40 L 533.89 302.78 L 534.15 302.70 L 534.20 302.22 L 534.42 302.16 L 534.57 301.88 L 534.69 301.33 L 534.96 301.22 L 534.99 300.66 L 535.34 301.93 L 535.37 301.93 L 535.43 301.21 L 535.50 301.21 L 535.53 301.15 L 535.93 301.08 L 536.51 300.79 L 536.80 300.94 L 537.75 300.92 L 537.77 300.91 L 537.92 300.90 L 537.98 300.88 L 538.09 300.79 L 538.21 300.70 L 538.34 300.57 L 538.62 300.38 L 538.89 300.37 L 539.74 300.29 L 539.78 300.28 L 540.63 300.18 L 540.99 300.13 L 548.24 300.10 L 548.61 300.06 L 548.79 300.06 L 548.87 300.06 L 548.89 300.06 L 549.07 300.05 L 549.16 300.02 L 549.37 299.89 L 549.50 299.87 L 549.97 299.86 L 550.22 299.79 L 550.63 299.76 L 550.74 299.73 L 550.88 299.67 L 551.06 299.59 L 551.68 299.56 L 551.75 299.55 L 552.66 299.41 L 552.80 299.18 L 552.98 299.10 L 553.43 298.97 L 553.63 298.90 L 553.74 299.21 L 553.83 299.20 L 553.95 299.08 L 554.34 298.79 L 554.75 298.71 L 555.11 298.65 L 555.16 298.62 L 555.20 298.40 L 581.43 298.36 L 581.60 298.30 L 596.69 298.23 L 596.77 298.55 L 596.89 297.28 L 596.91 297.28 L 596.95 297.31 L 597.49 296.82 L 597.55 296.79 L 598.22 296.85 L 598.89 296.79 L 599.13 296.75 L 599.55 296.70 L 600.11 296.57 L 600.13 296.57 L 600.20 296.55 L 600.42 296.50 L 600.49 296.41 L 601.03 296.34 L 601.74 296.29 L 601.81 296.16 L 602.17 296.10 L 602.27 296.66 L 602.54 296.61 L 602.77 296.58 L 603.23 296.56 L 603.67 296.56 L 603.89 296.29 L 603.90 296.29 L 613.34 296.28 L 616.31 295.61 L 616.43 295.27 L 616.58 295.18 L 617.05 295.15 L 617.25 295.03 L 617.40 293.34 L 617.50 292.42 L 617.72 292.39 L 617.76 292.37 L 618.09 292.25 L 618.19 292.21 L 618.25 292.16 L 618.43 291.95 L 618.49 291.94 L 618.58 291.91 L 618.65 291.86 L 618.74 291.81 L 618.83 291.73 L 618.90 291.70 L 619.20 291.67 L 619.36 291.58 L 619.48 291.55 L 619.51 290.99 L 619.86 290.88 L 619.99 290.57 L 628.90 290.63 L 629.55 290.46 L 629.66 290.45 L 630.06 290.13 L 630.24 290.09 L 630.98 289.09 L 631.30 288.99 L 631.73 288.87 L 631.78 288.86 L 632.04 288.86 L 632.13 288.33 L 632.47 287.64 L 632.98 287.56 L 633.15 287.03 L 636.29 286.65 L 636.59 286.26 L 636.61 286.26 L 644.97 284.94 L 644.97 284.94 L 645.08 284.88 L 645.18 284.30 L 645.57 284.25 L 645.60 284.24 L 646.05 284.14 L 646.72 284.02 L 647.49 283.98 L 647.54 283.92 L 647.62 283.88 L 647.75 283.88 L 647.96 283.88 L 648.06 283.81 L 648.17 283.81 L 648.31 283.81 L 649.45 283.50 L 649.57 282.78 L 649.83 282.64 L 649.93 282.55 L 650.00 282.55"/>
	</g>
	<g class="poloto_legend poloto_imgs poloto_line poloto0 poloto_stroke"><line x1="680" x2="730" y1="81.25" y2="81.25"/></g>
	<g class="poloto_legend poloto_imgs poloto_line poloto1 poloto_stroke"><line x1="680" x2="730" y1="131.25" y2="131.25"/></g>
	<g class="poloto_legend poloto_imgs poloto_line poloto2 poloto_stroke"><line x1="680" x2="730" y1="181.25" y2="181.25"/></g>
	<text class="poloto_legend poloto_text poloto_line poloto0" x="675" y="100">total</text>
	<text class="poloto_legend poloto_text poloto_line poloto1" x="675" y="150">code</text>
	<text class="poloto_legend poloto_text poloto_line poloto2" x="675" y="200">docs</text>
	<text class="poloto_text poloto_name poloto_title" x="400.00" y="37.50">Workspace lines over time</text>
	<text class="poloto_text poloto_name poloto_x" x="400.00" y="640">date (JST)</text>
	<text class="poloto_text poloto_name poloto_y" x="37.50" y="250.00" transform="rotate(-90,37.50,250.00)">lines</text>
	<text class="poloto_text poloto_ticks poloto_y">
		<tspan x="135.00" y="400.00">0</tspan>
		<tspan x="135.00" y="333.34">50K</tspan>
		<tspan x="135.00" y="266.68">100K</tspan>
		<tspan x="135.00" y="200.02">150K</tspan>
		<tspan x="135.00" y="133.35">200K</tspan>
	</text>
	<g class="poloto_imgs poloto_ticks poloto_y" stroke="black">
		<line x1="150.00" x2="144.00" y1="400.00" y2="400.00"/>
		<line x1="150.00" x2="144.00" y1="333.34" y2="333.34"/>
		<line x1="150.00" x2="144.00" y1="266.68" y2="266.68"/>
		<line x1="150.00" x2="144.00" y1="200.02" y2="200.02"/>
		<line x1="150.00" x2="144.00" y1="133.35" y2="133.35"/>
	</g>
	<g class="poloto_text poloto_ticks poloto_x">
		<text x="210.64" y="430.00" text-anchor="end" transform="rotate(-90 210.64 430.00)">2026-04-24 12:06</text>
		<text x="303.98" y="430.00" text-anchor="end" transform="rotate(-90 303.98 430.00)">2026-04-30 07:00</text>
		<text x="397.32" y="430.00" text-anchor="end" transform="rotate(-90 397.32 430.00)">2026-05-06 01:53</text>
		<text x="490.66" y="430.00" text-anchor="end" transform="rotate(-90 490.66 430.00)">2026-05-11 20:46</text>
		<text x="584.00" y="430.00" text-anchor="end" transform="rotate(-90 584.00 430.00)">2026-05-17 15:40</text>
	</g>
	<g class="poloto_imgs poloto_ticks poloto_x" stroke="black">
		<line x1="210.64" x2="210.64" y1="400.00" y2="405.00"/>
		<line x1="303.98" x2="303.98" y1="400.00" y2="405.00"/>
		<line x1="397.32" x2="397.32" y1="400.00" y2="405.00"/>
		<line x1="490.66" x2="490.66" y1="400.00" y2="405.00"/>
		<line x1="584.00" x2="584.00" y1="400.00" y2="405.00"/>
	</g>
	<path class="poloto_imgs poloto_ticks poloto_x" stroke="black" style="stroke-dasharray:9.334101467656778;stroke-dashoffset:-60.63861682056449;" d=" M 150.00 400.00 L 650.00 400.00"/>
	<path class="poloto_imgs poloto_ticks poloto_y" stroke="black" style="stroke-dasharray:6.666163001017701;stroke-dashoffset:-0;" d=" M 150.00 400.00 L 150.00 100.00"/>
</svg>

