<svg class="poloto" width="800" height="680" viewBox="0 0 800 680" xmlns="http://www.w3.org/2000/svg">
	<style>
.poloto{
  stroke-linecap:round;
  stroke-linejoin:round;
  font-family:Roboto,sans-serif;
  font-size:16px;
}
.poloto_background{fill:AliceBlue;}
.poloto_scatter{stroke-width:7}
.poloto_line{stroke-width:2}
.poloto_text{fill: black;}
.poloto_name{font-size:24px;dominant-baseline:auto;text-anchor:middle;}
.poloto_where{dominant-baseline:middle;text-anchor:start}
.poloto_text.poloto_legend{font-size:20px;dominant-baseline:middle;text-anchor:start;}
.poloto_text.poloto_ticks.poloto_y{dominant-baseline:middle;text-anchor:end}
.poloto_text.poloto_ticks.poloto_x{dominant-baseline:auto;text-anchor:middle}
.poloto_imgs.poloto_ticks{stroke: black;stroke-width:3;fill:none;stroke-dasharray:none}
.poloto_grid{stroke:gray;stroke-width:0.5}

.poloto0.poloto_stroke{stroke:blue;}
.poloto1.poloto_stroke{stroke:red;}
.poloto2.poloto_stroke{stroke:green;}
.poloto3.poloto_stroke{stroke:gold;}
.poloto4.poloto_stroke{stroke:aqua;}
.poloto5.poloto_stroke{stroke:lime;}
.poloto6.poloto_stroke{stroke:orange;}
.poloto7.poloto_stroke{stroke:chocolate;}
.poloto0.poloto_fill{fill:blue;}
.poloto1.poloto_fill{fill:red;}
.poloto2.poloto_fill{fill:green;}
.poloto3.poloto_fill{fill:gold;}
.poloto4.poloto_fill{fill:aqua;}
.poloto5.poloto_fill{fill:lime;}
.poloto6.poloto_fill{fill:orange;}
.poloto7.poloto_fill{fill:chocolate;}
	</style>
	<circle r="1e5" class="poloto_background" fill="white"/>
	<g id="poloto_plot0" class="poloto_plot poloto_imgs poloto_line poloto0 poloto_stroke" fill="none" stroke="black">
		<path d=" M 150.00 363.80 L 150.04 363.77 L 150.05 363.75 L 150.07 363.75 L 150.10 363.75 L 150.13 359.83 L 150.28 359.35 L 150.61 359.33 L 151.11 359.01 L 151.36 357.01 L 151.87 356.89 L 151.96 356.78 L 152.03 356.74 L 152.62 355.76 L 153.72 354.97 L 154.07 351.89 L 154.16 351.89 L 154.83 351.77 L 155.60 351.76 L 155.61 351.76 L 155.61 351.76 L 166.02 351.76 L 166.09 351.75 L 166.22 351.73 L 166.28 351.69 L 166.67 351.51 L 166.85 351.46 L 167.29 351.18 L 167.36 351.05 L 167.48 350.77 L 167.61 350.73 L 167.65 350.73 L 167.76 350.66 L 167.88 350.66 L 167.99 350.66 L 168.28 350.20 L 168.53 349.92 L 168.58 349.92 L 168.70 349.75 L 169.53 350.46 L 169.55 350.46 L 169.65 350.34 L 170.12 349.82 L 170.50 349.18 L 170.93 348.91 L 171.02 348.86 L 171.03 348.86 L 171.11 348.62 L 171.27 348.62 L 171.48 348.53 L 171.89 348.29 L 171.92 347.92 L 171.99 347.92 L 172.09 347.73 L 172.32 347.73 L 172.35 347.73 L 172.59 347.20 L 172.69 347.17 L 172.77 347.13 L 172.87 346.92 L 174.14 346.64 L 174.44 346.58 L 175.15 346.20 L 175.30 346.21 L 175.41 346.19 L 175.47 345.92 L 175.95 344.36 L 176.17 344.33 L 176.42 343.81 L 176.54 343.76 L 176.84 343.33 L 176.96 343.17 L 177.14 342.89 L 177.30 342.65 L 177.86 339.05 L 177.87 338.97 L 177.90 338.75 L 178.09 337.03 L 187.74 336.90 L 188.74 334.93 L 188.77 334.88 L 189.95 334.58 L 190.05 334.57 L 190.16 334.18 L 190.45 333.98 L 190.58 333.65 L 190.63 333.35 L 190.78 332.84 L 191.12 332.83 L 191.13 332.48 L 191.27 332.09 L 191.40 332.09 L 191.55 331.65 L 191.74 331.34 L 191.81 331.19 L 191.84 331.18 L 192.00 330.85 L 192.03 330.84 L 192.21 330.50 L 192.24 330.49 L 192.52 328.87 L 192.56 328.87 L 192.66 328.60 L 192.78 328.58 L 192.94 328.58 L 193.00 328.55 L 193.55 328.24 L 193.56 328.25 L 193.66 327.53 L 193.90 327.52 L 194.12 326.43 L 194.19 326.34 L 194.29 326.33 L 194.34 326.29 L 194.46 325.45 L 195.07 318.40 L 195.13 318.06 L 195.34 318.03 L 195.40 317.95 L 195.45 317.92 L 195.55 317.74 L 195.64 316.93 L 195.86 316.77 L 196.01 316.75 L 196.13 316.40 L 196.20 316.39 L 196.74 316.13 L 197.04 315.93 L 197.13 315.62 L 197.38 315.60 L 197.40 315.60 L 197.43 315.57 L 197.59 313.88 L 197.72 313.78 L 198.16 312.07 L 198.24 311.57 L 198.32 311.56 L 198.44 311.37 L 198.45 311.24 L 198.50 311.16 L 198.55 311.12 L 198.61 311.11 L 198.67 311.02 L 198.85 309.62 L 198.98 309.42 L 199.10 309.01 L 199.28 308.98 L 199.47 308.85 L 199.67 307.86 L 199.80 306.49 L 200.09 306.41 L 200.09 305.90 L 200.25 305.73 L 213.72 305.73 L 213.98 305.72 L 214.62 304.99 L 214.75 304.97 L 214.85 304.97 L 214.87 304.79 L 215.10 304.57 L 215.26 304.53 L 215.36 304.40 L 215.45 304.30 L 215.50 304.25 L 215.75 304.18 L 216.23 304.10 L 216.35 303.72 L 216.45 303.63 L 216.56 303.62 L 217.19 303.43 L 217.27 303.32 L 217.32 303.32 L 217.36 303.18 L 217.49 303.12 L 217.60 302.98 L 218.05 302.06 L 218.70 301.92 L 218.94 301.86 L 219.66 301.63 L 220.00 297.20 L 220.12 297.10 L 220.27 296.67 L 220.48 296.09 L 220.80 295.92 L 221.26 295.91 L 221.87 295.89 L 221.97 295.70 L 222.41 295.49 L 222.70 295.17 L 222.79 295.04 L 222.96 294.99 L 223.10 294.60 L 224.69 294.16 L 226.21 294.16 L 239.77 294.12 L 239.86 293.93 L 239.93 293.80 L 240.36 293.61 L 241.62 292.09 L 241.68 291.98 L 241.85 291.59 L 242.48 291.49 L 242.77 290.46 L 243.22 290.45 L 243.32 290.43 L 243.42 289.73 L 244.21 285.69 L 244.30 285.69 L 244.47 285.65 L 244.64 285.60 L 244.72 285.16 L 245.16 283.64 L 245.32 283.36 L 245.39 283.34 L 245.49 282.64 L 245.69 281.65 L 245.77 280.60 L 245.96 280.13 L 246.55 274.89 L 246.61 274.36 L 246.66 274.36 L 246.75 274.27 L 246.90 274.13 L 246.96 274.09 L 247.01 274.03 L 247.30 272.77 L 247.36 271.89 L 247.71 271.71 L 247.91 270.39 L 248.04 269.56 L 249.09 257.34 L 249.21 257.31 L 289.06 256.73 L 289.09 256.73 L 304.32 256.56 L 305.15 256.22 L 305.32 256.22 L 305.54 256.13 L 305.62 255.98 L 305.71 255.93 L 312.31 255.85 L 313.18 253.52 L 313.50 253.31 L 313.68 252.46 L 317.79 252.29 L 317.82 252.05 L 318.07 252.03 L 319.30 250.57 L 319.37 250.30 L 319.53 250.21 L 319.96 250.10 L 320.02 250.07 L 320.19 249.63 L 320.38 249.51 L 320.40 249.18 L 333.20 248.73 L 333.30 247.48 L 333.81 247.20 L 333.82 245.11 L 333.90 244.80 L 334.01 244.28 L 334.15 242.84 L 334.37 242.07 L 334.55 241.18 L 334.72 241.17 L 334.78 240.48 L 335.04 240.42 L 335.93 237.05 L 336.28 236.69 L 336.34 236.47 L 336.42 236.47 L 336.47 236.23 L 336.59 235.40 L 336.95 235.01 L 337.00 234.96 L 337.22 231.98 L 337.31 231.98 L 337.34 231.66 L 337.42 231.41 L 337.48 231.41 L 337.53 230.96 L 337.81 229.36 L 337.93 228.90 L 338.08 228.84 L 338.19 224.55 L 338.24 224.20 L 338.52 221.75 L 338.60 221.56 L 338.65 221.55 L 338.72 221.55 L 338.77 221.20 L 338.80 221.21 L 338.82 221.20 L 338.96 216.87 L 339.01 216.49 L 339.15 216.47 L 339.25 216.39 L 339.54 216.27 L 339.89 216.10 L 339.90 216.10 L 340.00 216.05 L 340.33 215.97 L 340.48 215.97 L 340.64 215.97 L 340.80 214.08 L 340.91 213.63 L 341.37 213.62 L 341.41 213.32 L 341.46 213.32 L 341.50 213.00 L 341.80 210.26 L 341.85 210.20 L 342.06 210.18 L 361.75 210.10 L 362.87 209.96 L 362.91 209.96 L 363.13 209.96 L 363.15 209.96 L 363.29 209.41 L 363.40 209.39 L 363.50 209.13 L 363.63 209.06 L 363.67 209.02 L 363.72 209.00 L 363.93 208.69 L 364.36 208.42 L 364.63 207.54 L 364.93 206.71 L 364.95 206.66 L 365.00 205.88 L 365.03 205.85 L 365.62 205.39 L 365.63 205.33 L 365.72 204.71 L 365.98 204.65 L 366.14 204.59 L 366.17 203.48 L 366.18 203.42 L 366.25 204.48 L 366.30 203.83 L 366.32 203.80 L 366.46 202.32 L 366.47 202.28 L 366.78 202.16 L 367.63 202.14 L 367.82 202.09 L 367.89 202.07 L 367.93 201.88 L 367.98 201.88 L 368.10 201.15 L 381.55 199.73 L 381.57 199.54 L 381.69 199.40 L 381.72 199.13 L 381.80 186.76 L 381.95 181.70 L 381.96 181.67 L 382.21 181.57 L 382.27 181.57 L 382.31 180.99 L 382.53 180.93 L 383.11 179.74 L 383.13 179.71 L 383.27 179.34 L 383.33 179.35 L 383.36 178.75 L 383.85 178.05 L 383.86 178.02 L 384.60 177.75 L 384.69 177.12 L 384.95 177.13 L 385.25 175.53 L 385.33 174.91 L 385.38 174.40 L 385.52 173.78 L 385.90 173.56 L 385.97 173.41 L 386.14 173.27 L 386.32 173.27 L 386.88 173.27 L 386.95 173.27 L 387.08 173.24 L 387.09 173.24 L 387.27 173.26 L 387.70 173.23 L 388.14 172.99 L 388.21 172.99 L 388.30 172.90 L 388.43 172.73 L 388.77 172.73 L 389.34 172.51 L 389.52 172.01 L 389.83 167.75 L 391.07 171.35 L 391.34 171.34 L 391.54 171.32 L 391.85 171.31 L 391.95 171.25 L 392.25 171.04 L 392.74 170.75 L 392.80 170.55 L 392.90 170.47 L 392.96 170.49 L 393.00 170.43 L 393.38 170.17 L 402.30 170.16 L 402.39 170.17 L 402.94 170.15 L 403.00 170.13 L 403.12 169.59 L 403.22 169.28 L 403.24 169.28 L 403.54 169.23 L 403.62 169.21 L 405.45 168.40 L 405.66 168.34 L 405.82 168.32 L 405.85 168.32 L 406.42 168.12 L 406.61 168.22 L 406.65 168.21 L 406.95 168.16 L 407.28 166.48 L 407.32 166.46 L 407.60 166.27 L 407.72 166.27 L 407.82 166.27 L 408.05 166.08 L 408.55 165.40 L 408.64 165.38 L 408.73 165.19 L 408.94 164.39 L 409.43 163.55 L 409.86 159.63 L 409.95 159.15 L 410.40 158.96 L 410.48 158.86 L 410.55 158.67 L 410.59 158.04 L 410.75 156.91 L 410.78 156.96 L 410.86 156.94 L 411.11 156.93 L 411.50 156.52 L 411.74 156.44 L 412.01 156.42 L 412.14 156.41 L 412.41 156.39 L 412.86 156.39 L 413.31 156.38 L 413.65 156.38 L 413.73 156.37 L 413.82 156.36 L 413.82 156.22 L 414.09 156.14 L 414.16 156.12 L 414.27 155.95 L 415.00 155.93 L 415.01 155.59 L 415.21 155.57 L 416.07 155.58 L 416.64 155.37 L 417.05 155.12 L 417.06 154.99 L 417.09 154.98 L 429.59 154.75 L 429.63 154.74 L 429.77 154.73 L 429.84 154.53 L 429.89 154.51 L 429.89 154.50 L 430.43 154.45 L 430.55 153.74 L 430.71 153.58 L 430.97 152.18 L 431.14 152.16 L 431.35 151.57 L 431.47 151.64 L 431.53 151.64 L 431.60 150.96 L 431.75 150.49 L 431.77 150.00 L 431.83 149.93 L 431.96 149.89 L 432.05 149.66 L 432.16 152.33 L 432.31 152.28 L 432.62 151.22 L 432.75 150.95 L 432.87 150.73 L 433.64 149.20 L 434.30 148.46 L 435.09 147.04 L 435.29 146.98 L 435.51 146.98 L 435.76 146.91 L 440.35 146.51 L 440.73 146.48 L 484.26 145.40 L 621.31 145.15 L 621.76 144.71 L 622.08 144.65 L 622.39 144.65 L 622.87 143.82 L 623.03 143.42 L 623.15 142.68 L 623.37 140.52 L 623.69 140.97 L 623.94 140.50 L 624.00 140.49 L 624.21 140.35 L 624.26 140.35 L 624.49 139.56 L 624.69 138.30 L 625.31 136.96 L 625.33 136.85 L 625.51 135.25 L 626.10 131.29 L 626.11 131.16 L 626.23 131.07 L 626.37 129.66 L 627.01 127.75 L 627.02 127.58 L 627.16 127.49 L 627.31 126.55 L 627.55 125.81 L 627.56 125.67 L 627.67 124.22 L 627.69 124.18 L 627.74 123.78 L 628.01 121.20 L 628.05 121.05 L 628.14 120.90 L 628.43 120.56 L 628.49 120.55 L 628.72 120.06 L 629.10 120.12 L 629.16 120.05 L 629.21 120.02 L 629.27 119.98 L 629.46 118.47 L 629.67 117.23 L 629.70 117.12 L 629.81 115.58 L 629.93 114.07 L 629.95 113.89 L 630.07 112.12 L 630.13 110.73 L 630.36 109.80 L 630.40 109.73 L 630.51 109.44 L 630.68 109.42 L 631.66 109.38 L 632.16 109.33 L 642.86 109.40 L 642.97 109.13 L 643.07 108.89 L 643.26 107.86 L 643.66 107.59 L 643.69 107.48 L 643.76 106.11 L 644.02 104.78 L 644.05 104.67 L 646.39 104.58 L 646.53 103.83 L 647.71 103.61 L 647.84 103.55 L 647.97 102.01 L 649.39 100.55 L 650.00 100.00"/>
	</g>
	<g id="poloto_plot1" class="poloto_plot poloto_imgs poloto_line poloto1 poloto_stroke" fill="none" stroke="black">
		<path d=" M 150.00 378.49 L 150.04 378.47 L 150.05 378.46 L 150.07 378.46 L 150.10 378.46 L 150.13 377.78 L 150.28 377.75 L 150.61 377.74 L 151.11 377.48 L 151.36 377.37 L 151.87 377.40 L 151.96 377.35 L 152.03 377.35 L 152.62 377.30 L 153.72 377.17 L 154.07 374.51 L 154.16 374.51 L 154.83 374.45 L 155.60 374.44 L 155.61 374.44 L 155.61 374.44 L 166.02 374.44 L 166.09 374.44 L 166.22 374.43 L 166.28 374.40 L 166.67 374.38 L 166.85 374.38 L 167.29 374.38 L 167.36 374.38 L 167.48 374.36 L 167.61 374.36 L 167.65 374.36 L 167.76 374.33 L 167.88 374.33 L 167.99 374.33 L 168.28 374.19 L 168.53 374.19 L 168.58 374.19 L 168.70 374.19 L 169.53 375.18 L 169.55 375.18 L 169.65 375.17 L 170.12 375.02 L 170.50 374.86 L 170.93 374.78 L 171.02 374.73 L 171.03 374.73 L 171.11 374.73 L 171.27 374.73 L 171.48 374.66 L 171.89 374.61 L 171.92 374.61 L 171.99 374.61 L 172.09 374.58 L 172.32 374.58 L 172.35 374.58 L 172.59 374.57 L 172.69 374.57 L 172.77 374.57 L 172.87 374.57 L 174.14 374.45 L 174.44 374.44 L 175.15 374.39 L 175.30 374.39 L 175.41 374.39 L 175.47 374.39 L 175.95 374.31 L 176.17 374.31 L 176.42 374.21 L 176.54 374.20 L 176.84 373.99 L 176.96 373.91 L 177.14 373.91 L 177.30 373.91 L 177.86 370.80 L 177.87 370.74 L 177.90 370.74 L 178.09 370.44 L 187.74 370.44 L 188.74 369.10 L 188.77 369.10 L 189.95 369.10 L 190.05 369.10 L 190.16 368.96 L 190.45 368.94 L 190.58 368.94 L 190.63 368.94 L 190.78 368.94 L 191.12 368.94 L 191.13 368.65 L 191.27 368.64 L 191.40 368.64 L 191.55 368.61 L 191.74 368.60 L 191.81 368.60 L 191.84 368.60 L 192.00 368.60 L 192.03 368.60 L 192.21 368.60 L 192.24 368.60 L 192.52 367.28 L 192.56 367.28 L 192.66 367.12 L 192.78 367.12 L 192.94 367.12 L 193.00 367.11 L 193.55 367.10 L 193.56 367.10 L 193.66 367.02 L 193.90 367.02 L 194.12 366.27 L 194.19 366.17 L 194.29 366.17 L 194.34 366.17 L 194.46 366.15 L 195.07 360.60 L 195.13 360.64 L 195.34 360.64 L 195.40 360.64 L 195.45 360.63 L 195.55 360.63 L 195.64 360.56 L 195.86 360.56 L 196.01 360.56 L 196.13 360.55 L 196.20 360.55 L 196.74 360.54 L 197.04 360.54 L 197.13 360.40 L 197.38 360.40 L 197.40 360.40 L 197.43 360.40 L 197.59 360.03 L 197.72 359.93 L 198.16 358.61 L 198.24 358.61 L 198.32 358.61 L 198.44 358.63 L 198.45 358.63 L 198.50 358.63 L 198.55 358.63 L 198.61 358.63 L 198.67 358.63 L 198.85 358.60 L 198.98 358.60 L 199.10 358.58 L 199.28 358.58 L 199.47 358.58 L 199.67 358.08 L 199.80 357.92 L 200.09 357.92 L 200.09 357.91 L 200.25 357.91 L 213.72 357.91 L 213.98 357.90 L 214.62 357.82 L 214.75 357.81 L 214.85 357.81 L 214.87 357.81 L 215.10 357.81 L 215.26 357.81 L 215.36 357.81 L 215.45 357.81 L 215.50 357.80 L 215.75 357.80 L 216.23 357.83 L 216.35 357.83 L 216.45 357.83 L 216.56 357.83 L 217.19 357.72 L 217.27 357.67 L 217.32 357.67 L 217.36 357.60 L 217.49 357.60 L 217.60 357.59 L 218.05 357.09 L 218.70 357.09 L 218.94 357.09 L 219.66 357.09 L 220.00 353.69 L 220.12 353.69 L 220.27 353.69 L 220.48 353.68 L 220.80 353.68 L 221.26 353.68 L 221.87 353.68 L 221.97 353.68 L 222.41 353.60 L 222.70 353.46 L 222.79 353.46 L 222.96 353.46 L 223.10 353.44 L 224.69 353.22 L 226.21 353.22 L 239.77 353.22 L 239.86 353.22 L 239.93 353.22 L 240.36 353.22 L 241.62 352.15 L 241.68 352.11 L 241.85 352.00 L 242.48 352.00 L 242.77 351.74 L 243.22 351.74 L 243.32 351.74 L 243.42 351.74 L 244.21 348.76 L 244.30 348.76 L 244.47 348.76 L 244.64 348.76 L 244.72 348.57 L 245.16 348.21 L 245.32 348.21 L 245.39 348.21 L 245.49 347.66 L 245.69 347.11 L 245.77 347.11 L 245.96 347.10 L 246.55 342.65 L 246.61 342.65 L 246.66 342.65 L 246.75 342.65 L 246.90 342.65 L 246.96 342.65 L 247.01 342.65 L 247.30 342.65 L 247.36 342.56 L 247.71 342.54 L 247.91 342.48 L 248.04 341.94 L 249.09 333.09 L 249.21 333.09 L 289.06 333.09 L 289.09 333.09 L 304.32 333.09 L 305.15 332.96 L 305.32 332.96 L 305.54 332.96 L 305.62 332.96 L 305.71 332.96 L 312.31 332.89 L 313.18 332.80 L 313.50 332.80 L 313.68 332.78 L 317.79 332.70 L 317.82 332.58 L 318.07 332.58 L 319.30 331.38 L 319.37 331.38 L 319.53 331.38 L 319.96 331.38 L 320.02 331.38 L 320.19 331.38 L 320.38 331.38 L 320.40 331.38 L 333.20 331.36 L 333.30 331.15 L 333.81 331.15 L 333.82 329.71 L 333.90 329.71 L 334.01 329.71 L 334.15 329.57 L 334.37 329.57 L 334.55 329.51 L 334.72 329.51 L 334.78 329.51 L 335.04 329.49 L 335.93 327.04 L 336.28 327.03 L 336.34 327.02 L 336.42 327.02 L 336.47 327.02 L 336.59 326.98 L 336.95 326.68 L 337.00 326.63 L 337.22 324.43 L 337.31 324.42 L 337.34 324.42 L 337.42 324.39 L 337.48 324.39 L 337.53 324.38 L 337.81 323.18 L 337.93 323.17 L 338.08 323.14 L 338.19 319.41 L 338.24 319.41 L 338.52 317.31 L 338.60 317.31 L 338.65 317.30 L 338.72 317.30 L 338.77 317.30 L 338.80 317.30 L 338.82 317.30 L 338.96 313.41 L 339.01 313.41 L 339.15 313.39 L 339.25 313.39 L 339.54 313.32 L 339.89 313.21 L 339.90 313.21 L 340.00 313.19 L 340.33 313.12 L 340.48 313.12 L 340.64 313.12 L 340.80 311.45 L 340.91 311.45 L 341.37 311.44 L 341.41 311.44 L 341.46 311.44 L 341.50 311.44 L 341.80 309.04 L 341.85 309.04 L 342.06 309.03 L 361.75 309.03 L 362.87 309.01 L 362.91 309.01 L 363.13 309.01 L 363.15 309.01 L 363.29 309.01 L 363.40 309.01 L 363.50 308.89 L 363.63 308.89 L 363.67 308.89 L 363.72 308.89 L 363.93 308.68 L 364.36 308.54 L 364.63 308.40 L 364.93 307.72 L 364.95 307.72 L 365.00 307.55 L 365.03 307.53 L 365.62 307.12 L 365.63 307.12 L 365.72 307.06 L 365.98 307.06 L 366.14 307.02 L 366.17 306.02 L 366.18 306.02 L 366.25 307.00 L 366.30 306.95 L 366.32 306.94 L 366.46 305.60 L 366.47 305.60 L 366.78 305.55 L 367.63 305.55 L 367.82 305.55 L 367.89 305.55 L 367.93 305.55 L 367.98 305.55 L 368.10 305.46 L 381.55 304.36 L 381.57 304.36 L 381.69 304.35 L 381.72 304.11 L 381.80 292.30 L 381.95 287.91 L 381.96 287.91 L 382.21 287.83 L 382.27 287.83 L 382.31 287.81 L 382.53 287.81 L 383.11 286.73 L 383.13 286.73 L 383.27 286.68 L 383.33 286.68 L 383.36 286.58 L 383.85 285.94 L 383.86 285.94 L 384.60 285.81 L 384.69 285.77 L 384.95 285.78 L 385.25 284.33 L 385.33 284.18 L 385.38 284.05 L 385.52 283.50 L 385.90 283.37 L 385.97 283.25 L 386.14 283.25 L 386.32 283.25 L 386.88 283.25 L 386.95 283.25 L 387.08 283.25 L 387.09 283.25 L 387.27 283.27 L 387.70 283.27 L 388.14 283.12 L 388.21 283.12 L 388.30 283.10 L 388.43 283.10 L 388.77 283.10 L 389.34 283.10 L 389.52 282.97 L 389.83 279.16 L 391.07 282.75 L 391.34 282.74 L 391.54 282.73 L 391.85 282.73 L 391.95 282.69 L 392.25 282.66 L 392.74 282.44 L 392.80 282.44 L 392.90 282.44 L 392.96 282.44 L 393.00 282.44 L 393.38 282.23 L 402.30 282.23 L 402.39 282.24 L 402.94 282.22 L 403.00 282.22 L 403.12 282.19 L 403.22 281.92 L 403.24 281.92 L 403.54 281.89 L 403.62 281.89 L 405.45 281.67 L 405.66 281.67 L 405.82 281.67 L 405.85 281.67 L 406.42 281.52 L 406.61 281.52 L 406.65 281.52 L 406.95 281.51 L 407.28 280.61 L 407.32 280.61 L 407.60 280.46 L 407.72 280.46 L 407.82 280.46 L 408.05 280.46 L 408.55 280.44 L 408.64 280.42 L 408.73 280.33 L 408.94 280.18 L 409.43 280.04 L 409.86 276.45 L 409.95 276.32 L 410.40 276.15 L 410.48 276.11 L 410.55 275.98 L 410.59 275.73 L 410.75 274.65 L 410.78 274.70 L 410.86 274.68 L 411.11 274.67 L 411.50 274.53 L 411.74 274.47 L 412.01 274.45 L 412.14 274.44 L 412.41 274.43 L 412.86 274.43 L 413.31 274.42 L 413.65 274.41 L 413.73 274.41 L 413.82 274.40 L 413.82 274.40 L 414.09 274.40 L 414.16 274.38 L 414.27 274.25 L 415.00 274.23 L 415.01 274.23 L 415.21 274.22 L 416.07 274.22 L 416.64 274.04 L 417.05 273.89 L 417.06 273.89 L 417.09 273.88 L 429.59 273.88 L 429.63 273.88 L 429.77 273.88 L 429.84 273.88 L 429.89 273.86 L 429.89 273.86 L 430.43 273.86 L 430.55 273.85 L 430.71 273.83 L 430.97 273.80 L 431.14 273.80 L 431.35 273.72 L 431.47 273.72 L 431.53 273.72 L 431.60 273.72 L 431.75 273.39 L 431.77 273.39 L 431.83 273.39 L 431.96 273.39 L 432.05 273.39 L 432.16 273.47 L 432.31 273.47 L 432.62 273.45 L 432.75 273.45 L 432.87 273.45 L 433.64 272.40 L 434.30 272.11 L 435.09 271.36 L 435.29 271.36 L 435.51 271.36 L 435.76 271.36 L 440.35 271.26 L 440.73 271.26 L 484.26 271.12 L 621.31 270.93 L 621.76 270.87 L 622.08 270.86 L 622.39 270.86 L 622.87 270.37 L 623.03 270.37 L 623.15 270.37 L 623.37 268.60 L 623.69 268.94 L 623.94 268.91 L 624.00 268.91 L 624.21 268.90 L 624.26 268.90 L 624.49 268.89 L 624.69 268.81 L 625.31 267.69 L 625.33 267.69 L 625.51 267.59 L 626.10 263.97 L 626.11 263.97 L 626.23 263.96 L 626.37 263.91 L 627.01 262.22 L 627.02 262.22 L 627.16 262.22 L 627.31 262.18 L 627.55 261.56 L 627.56 261.56 L 627.67 261.55 L 627.69 261.55 L 627.74 261.21 L 628.01 258.82 L 628.05 258.82 L 628.14 258.82 L 628.43 258.61 L 628.49 258.61 L 628.72 258.22 L 629.10 258.22 L 629.16 258.22 L 629.21 258.22 L 629.27 258.22 L 629.46 258.21 L 629.67 257.13 L 629.70 257.13 L 629.81 257.12 L 629.93 256.30 L 629.95 256.30 L 630.07 255.44 L 630.13 255.38 L 630.36 254.53 L 630.40 254.53 L 630.51 254.53 L 630.68 254.51 L 631.66 254.51 L 632.16 254.50 L 642.86 254.50 L 642.97 254.50 L 643.07 254.50 L 643.26 254.50 L 643.66 254.27 L 643.69 254.27 L 643.76 254.20 L 644.02 253.00 L 644.05 253.00 L 646.39 253.03 L 646.53 252.79 L 647.71 252.79 L 647.84 252.79 L 647.97 252.70 L 649.39 251.71 L 650.00 251.52"/>
	</g>
	<g id="poloto_plot2" class="poloto_plot poloto_imgs poloto_line poloto2 poloto_stroke" fill="none" stroke="black">
		<path d=" M 150.00 390.35 L 150.04 390.34 L 150.05 390.34 L 150.07 390.34 L 150.10 390.34 L 150.13 387.87 L 150.28 387.53 L 150.61 387.53 L 151.11 387.51 L 151.36 386.03 L 151.87 385.90 L 151.96 385.86 L 152.03 385.82 L 152.62 385.16 L 153.72 384.64 L 154.07 384.54 L 154.16 384.55 L 154.83 384.51 L 155.60 384.51 L 155.61 384.51 L 155.61 384.51 L 166.02 384.51 L 166.09 384.50 L 166.22 384.48 L 166.28 384.48 L 166.67 384.33 L 166.85 384.29 L 167.29 384.05 L 167.36 383.95 L 167.48 383.73 L 167.61 383.70 L 167.65 383.69 L 167.76 383.65 L 167.88 383.65 L 167.99 383.66 L 168.28 383.41 L 168.53 383.18 L 168.58 383.18 L 168.70 383.05 L 169.53 382.75 L 169.55 382.75 L 169.65 382.66 L 170.12 382.33 L 170.50 381.93 L 170.93 381.76 L 171.02 381.76 L 171.03 381.77 L 171.11 381.54 L 171.27 381.54 L 171.48 381.51 L 171.89 381.35 L 171.92 381.06 L 171.99 381.06 L 172.09 380.92 L 172.32 380.92 L 172.35 380.92 L 172.59 380.48 L 172.69 380.46 L 172.77 380.42 L 172.87 380.22 L 174.14 380.10 L 174.44 380.05 L 175.15 379.75 L 175.30 379.76 L 175.41 379.74 L 175.47 379.51 L 175.95 378.31 L 176.17 378.29 L 176.42 377.93 L 176.54 377.89 L 176.84 377.73 L 176.96 377.67 L 177.14 377.41 L 177.30 377.20 L 177.86 377.20 L 177.87 377.17 L 177.90 377.00 L 178.09 375.83 L 187.74 375.71 L 188.74 375.36 L 188.77 375.31 L 189.95 375.02 L 190.05 375.01 L 190.16 374.80 L 190.45 374.66 L 190.58 374.39 L 190.63 374.17 L 190.78 373.74 L 191.12 373.73 L 191.13 373.73 L 191.27 373.42 L 191.40 373.42 L 191.55 373.10 L 191.74 372.85 L 191.81 372.71 L 191.84 372.71 L 192.00 372.42 L 192.03 372.41 L 192.21 372.14 L 192.24 372.13 L 192.52 372.04 L 192.56 372.04 L 192.66 371.94 L 192.78 371.92 L 192.94 371.92 L 193.00 371.90 L 193.55 371.64 L 193.56 371.65 L 193.66 371.12 L 193.90 371.11 L 194.12 370.94 L 194.19 370.94 L 194.29 370.94 L 194.34 370.90 L 194.46 370.17 L 195.07 369.57 L 195.13 369.23 L 195.34 369.21 L 195.40 369.12 L 195.45 369.11 L 195.55 368.96 L 195.64 368.39 L 195.86 368.30 L 196.01 368.28 L 196.13 368.00 L 196.20 367.99 L 196.74 367.77 L 197.04 367.62 L 197.13 367.49 L 197.38 367.48 L 197.40 367.48 L 197.43 367.45 L 197.59 366.42 L 197.72 366.41 L 198.16 366.26 L 198.24 365.85 L 198.32 365.84 L 198.44 365.67 L 198.45 365.58 L 198.50 365.51 L 198.55 365.47 L 198.61 365.46 L 198.67 365.38 L 198.85 364.22 L 198.98 364.10 L 199.10 363.75 L 199.28 363.73 L 199.47 363.62 L 199.67 363.25 L 199.80 362.25 L 200.09 362.17 L 200.09 361.74 L 200.25 361.63 L 213.72 361.64 L 213.98 361.64 L 214.62 361.16 L 214.75 361.16 L 214.85 361.16 L 214.87 361.04 L 215.10 360.83 L 215.26 360.80 L 215.36 360.67 L 215.45 360.58 L 215.50 360.54 L 215.75 360.48 L 216.23 360.57 L 216.35 360.25 L 216.45 360.17 L 216.56 360.16 L 217.19 360.10 L 217.27 360.04 L 217.32 360.04 L 217.36 359.98 L 217.49 359.93 L 217.60 359.81 L 218.05 359.51 L 218.70 359.38 L 218.94 359.33 L 219.66 359.14 L 220.00 358.67 L 220.12 358.59 L 220.27 358.22 L 220.48 357.75 L 220.80 357.62 L 221.26 357.61 L 221.87 357.59 L 221.97 357.42 L 222.41 357.30 L 222.70 357.15 L 222.79 357.03 L 222.96 356.98 L 223.10 356.67 L 224.69 356.51 L 226.21 356.51 L 239.77 356.48 L 239.86 356.31 L 239.93 356.19 L 240.36 356.02 L 241.62 355.70 L 241.68 355.66 L 241.85 355.44 L 242.48 355.35 L 242.77 354.74 L 243.22 354.72 L 243.32 354.70 L 243.42 354.10 L 244.21 353.54 L 244.30 353.53 L 244.47 353.50 L 244.64 353.45 L 244.72 353.24 L 245.16 352.31 L 245.32 352.07 L 245.39 352.05 L 245.49 351.95 L 245.69 351.59 L 245.77 350.65 L 245.96 350.26 L 246.55 350.04 L 246.61 349.57 L 246.66 349.57 L 246.75 349.49 L 246.90 349.36 L 246.96 349.33 L 247.01 349.28 L 247.30 348.19 L 247.36 347.55 L 247.71 347.42 L 247.91 346.34 L 248.04 346.13 L 249.09 344.42 L 249.21 344.39 L 289.06 343.89 L 289.09 343.89 L 304.32 343.75 L 305.15 343.56 L 305.32 343.56 L 305.54 343.47 L 305.62 343.34 L 305.71 343.30 L 312.31 343.29 L 313.18 341.32 L 313.50 341.15 L 313.68 340.47 L 317.79 340.39 L 317.82 340.32 L 318.07 340.31 L 319.30 340.19 L 319.37 339.97 L 319.53 339.88 L 319.96 339.78 L 320.02 339.76 L 320.19 339.38 L 320.38 339.26 L 320.40 338.97 L 333.20 338.60 L 333.30 337.70 L 333.81 337.47 L 333.82 337.13 L 333.90 336.86 L 334.01 336.45 L 334.15 335.37 L 334.37 334.77 L 334.55 334.01 L 334.72 334.01 L 334.78 333.41 L 335.04 333.37 L 335.93 332.81 L 336.28 332.55 L 336.34 332.39 L 336.42 332.39 L 336.47 332.19 L 336.59 331.52 L 336.95 331.46 L 337.00 331.45 L 337.22 331.02 L 337.31 331.02 L 337.34 330.77 L 337.42 330.61 L 337.48 330.60 L 337.53 330.25 L 337.81 330.05 L 337.93 329.70 L 338.08 329.68 L 338.19 329.50 L 338.24 329.23 L 338.52 329.09 L 338.60 328.94 L 338.65 328.94 L 338.72 328.93 L 338.77 328.66 L 338.80 328.67 L 338.82 328.66 L 338.96 328.57 L 339.01 328.27 L 339.15 328.27 L 339.25 328.20 L 339.54 328.17 L 339.89 328.14 L 339.90 328.14 L 340.00 328.12 L 340.33 328.12 L 340.48 328.12 L 340.64 328.12 L 340.80 328.07 L 340.91 327.71 L 341.37 327.71 L 341.41 327.50 L 341.46 327.49 L 341.50 327.25 L 341.80 327.17 L 341.85 327.11 L 342.06 327.11 L 361.75 327.05 L 362.87 326.95 L 362.91 326.95 L 363.13 326.94 L 363.15 326.95 L 363.29 326.52 L 363.40 326.51 L 363.50 326.39 L 363.63 326.33 L 363.67 326.29 L 363.72 326.27 L 363.93 326.23 L 364.36 326.14 L 364.63 325.57 L 364.93 325.54 L 364.95 325.51 L 365.00 325.03 L 365.03 325.03 L 365.62 325.03 L 365.63 324.98 L 365.72 324.54 L 365.98 324.48 L 366.14 324.47 L 366.17 324.46 L 366.18 324.41 L 366.25 324.38 L 366.30 323.93 L 366.32 323.91 L 366.46 323.91 L 366.47 323.88 L 366.78 323.83 L 367.63 323.82 L 367.82 323.78 L 367.89 323.77 L 367.93 323.62 L 367.98 323.62 L 368.10 323.12 L 381.55 322.96 L 381.57 322.81 L 381.69 322.71 L 381.72 322.70 L 381.80 322.26 L 381.95 322.16 L 381.96 322.13 L 382.21 322.13 L 382.27 322.13 L 382.31 321.70 L 382.53 321.65 L 383.11 321.63 L 383.13 321.61 L 383.27 321.37 L 383.33 321.38 L 383.36 320.98 L 383.85 320.98 L 383.86 320.96 L 384.60 320.86 L 384.69 320.39 L 384.95 320.39 L 385.25 320.39 L 385.33 320.03 L 385.38 319.76 L 385.52 319.75 L 385.90 319.69 L 385.97 319.67 L 386.14 319.56 L 386.32 319.56 L 386.88 319.57 L 386.95 319.57 L 387.08 319.54 L 387.09 319.54 L 387.27 319.54 L 387.70 319.51 L 388.14 319.46 L 388.21 319.46 L 388.30 319.41 L 388.43 319.28 L 388.77 319.28 L 389.34 319.13 L 389.52 318.86 L 389.83 318.83 L 391.07 318.54 L 391.34 318.54 L 391.54 318.53 L 391.85 318.53 L 391.95 318.51 L 392.25 318.36 L 392.74 318.34 L 392.80 318.21 L 392.90 318.15 L 392.96 318.16 L 393.00 318.11 L 393.38 318.09 L 402.30 318.09 L 402.39 318.09 L 402.94 318.09 L 403.00 318.07 L 403.12 317.67 L 403.22 317.66 L 403.24 317.66 L 403.54 317.65 L 403.62 317.63 L 405.45 317.04 L 405.66 316.98 L 405.82 316.97 L 405.85 316.96 L 406.42 316.95 L 406.61 317.03 L 406.65 317.03 L 406.95 316.99 L 407.28 316.44 L 407.32 316.42 L 407.60 316.41 L 407.72 316.41 L 407.82 316.41 L 408.05 316.29 L 408.55 315.79 L 408.64 315.79 L 408.73 315.72 L 408.94 315.26 L 409.43 314.75 L 409.86 314.79 L 409.95 314.52 L 410.40 314.52 L 410.48 314.48 L 410.55 314.46 L 410.59 314.19 L 410.75 314.18 L 410.78 314.18 L 410.86 314.18 L 411.11 314.18 L 411.50 313.97 L 411.74 313.95 L 412.01 313.95 L 412.14 313.95 L 412.41 313.95 L 412.86 313.95 L 413.31 313.95 L 413.65 313.94 L 413.73 313.94 L 413.82 313.93 L 413.82 313.84 L 414.09 313.77 L 414.16 313.77 L 414.27 313.76 L 415.00 313.75 L 415.01 313.49 L 415.21 313.49 L 416.07 313.50 L 416.64 313.49 L 417.05 313.43 L 417.06 313.33 L 417.09 313.33 L 429.59 313.15 L 429.63 313.15 L 429.77 313.13 L 429.84 312.97 L 429.89 312.97 L 429.89 312.96 L 430.43 312.91 L 430.55 312.38 L 430.71 312.27 L 430.97 311.22 L 431.14 311.21 L 431.35 310.76 L 431.47 310.81 L 431.53 310.81 L 431.60 310.24 L 431.75 310.14 L 431.77 309.74 L 431.83 309.69 L 431.96 309.65 L 432.05 309.45 L 432.16 311.80 L 432.31 311.76 L 432.62 310.82 L 432.75 310.61 L 432.87 310.40 L 433.64 310.03 L 434.30 309.63 L 435.09 309.08 L 435.29 309.02 L 435.51 309.02 L 435.76 308.97 L 440.35 308.69 L 440.73 308.66 L 484.26 307.93 L 621.31 307.91 L 621.76 307.58 L 622.08 307.52 L 622.39 307.52 L 622.87 307.23 L 623.03 306.88 L 623.15 306.23 L 623.37 306.06 L 623.69 306.12 L 623.94 305.74 L 624.00 305.74 L 624.21 305.62 L 624.26 305.62 L 624.49 305.00 L 624.69 304.03 L 625.31 303.94 L 625.33 303.84 L 625.51 302.60 L 626.10 302.55 L 626.11 302.43 L 626.23 302.36 L 626.37 301.23 L 627.01 301.17 L 627.02 301.01 L 627.16 300.94 L 627.31 300.20 L 627.55 300.17 L 627.56 300.05 L 627.67 298.82 L 627.69 298.79 L 627.74 298.75 L 628.01 298.75 L 628.05 298.62 L 628.14 298.54 L 628.43 298.42 L 628.49 298.41 L 628.72 298.35 L 629.10 298.40 L 629.16 298.34 L 629.21 298.31 L 629.27 298.27 L 629.46 297.00 L 629.67 296.97 L 629.70 296.86 L 629.81 295.56 L 629.93 295.08 L 629.95 294.91 L 630.07 294.27 L 630.13 293.17 L 630.36 293.15 L 630.40 293.09 L 630.51 292.87 L 630.68 292.86 L 631.66 292.82 L 632.16 292.80 L 642.86 292.84 L 642.97 292.60 L 643.07 292.41 L 643.26 291.53 L 643.66 291.51 L 643.69 291.42 L 643.76 290.31 L 644.02 290.30 L 644.05 290.19 L 646.39 290.08 L 646.53 289.68 L 647.71 289.48 L 647.84 289.44 L 647.97 288.20 L 649.39 287.85 L 650.00 287.55"/>
	</g>
	<g class="poloto_legend poloto_imgs poloto_line poloto0 poloto_stroke"><line x1="680" x2="730" y1="81.25" y2="81.25"/></g>
	<g class="poloto_legend poloto_imgs poloto_line poloto1 poloto_stroke"><line x1="680" x2="730" y1="131.25" y2="131.25"/></g>
	<g class="poloto_legend poloto_imgs poloto_line poloto2 poloto_stroke"><line x1="680" x2="730" y1="181.25" y2="181.25"/></g>
	<text class="poloto_legend poloto_text poloto_line poloto0" x="675" y="100">total</text>
	<text class="poloto_legend poloto_text poloto_line poloto1" x="675" y="150">code</text>
	<text class="poloto_legend poloto_text poloto_line poloto2" x="675" y="200">docs</text>
	<text class="poloto_text poloto_name poloto_title" x="400.00" y="37.50">Workspace lines over time</text>
	<text class="poloto_text poloto_name poloto_x" x="400.00" y="640">date (JST)</text>
	<text class="poloto_text poloto_name poloto_y" x="37.50" y="250.00" transform="rotate(-90,37.50,250.00)">lines</text>
	<text class="poloto_text poloto_ticks poloto_y">
		<tspan x="135.00" y="400.00">0</tspan>
		<tspan x="135.00" y="308.25">50K</tspan>
		<tspan x="135.00" y="216.50">100K</tspan>
		<tspan x="135.00" y="124.75">150K</tspan>
	</text>
	<g class="poloto_imgs poloto_ticks poloto_y" stroke="black">
		<line x1="150.00" x2="144.00" y1="400.00" y2="400.00"/>
		<line x1="150.00" x2="144.00" y1="308.25" y2="308.25"/>
		<line x1="150.00" x2="144.00" y1="216.50" y2="216.50"/>
		<line x1="150.00" x2="144.00" y1="124.75" y2="124.75"/>
	</g>
	<g class="poloto_text poloto_ticks poloto_x">
		<text x="184.43" y="430.00" text-anchor="end" transform="rotate(-90 184.43 430.00)">2026-04-22 04:33</text>
		<text x="239.59" y="430.00" text-anchor="end" transform="rotate(-90 239.59 430.00)">2026-04-24 12:06</text>
		<text x="294.76" y="430.00" text-anchor="end" transform="rotate(-90 294.76 430.00)">2026-04-26 19:40</text>
		<text x="349.92" y="430.00" text-anchor="end" transform="rotate(-90 349.92 430.00)">2026-04-29 03:13</text>
		<text x="405.09" y="430.00" text-anchor="end" transform="rotate(-90 405.09 430.00)">2026-05-01 10:46</text>
		<text x="460.25" y="430.00" text-anchor="end" transform="rotate(-90 460.25 430.00)">2026-05-03 18:20</text>
		<text x="515.41" y="430.00" text-anchor="end" transform="rotate(-90 515.41 430.00)">2026-05-06 01:53</text>
		<text x="570.58" y="430.00" text-anchor="end" transform="rotate(-90 570.58 430.00)">2026-05-08 09:26</text>
		<text x="625.74" y="430.00" text-anchor="end" transform="rotate(-90 625.74 430.00)">2026-05-10 17:00</text>
	</g>
	<g class="poloto_imgs poloto_ticks poloto_x" stroke="black">
		<line x1="184.43" x2="184.43" y1="400.00" y2="405.00"/>
		<line x1="239.59" x2="239.59" y1="400.00" y2="405.00"/>
		<line x1="294.76" x2="294.76" y1="400.00" y2="405.00"/>
		<line x1="349.92" x2="349.92" y1="400.00" y2="405.00"/>
		<line x1="405.09" x2="405.09" y1="400.00" y2="405.00"/>
		<line x1="460.25" x2="460.25" y1="400.00" y2="405.00"/>
		<line x1="515.41" x2="515.41" y1="400.00" y2="405.00"/>
		<line x1="570.58" x2="570.58" y1="400.00" y2="405.00"/>
		<line x1="625.74" x2="625.74" y1="400.00" y2="405.00"/>
	</g>
	<path class="poloto_imgs poloto_ticks poloto_x" stroke="black" style="stroke-dasharray:6.895539744236157;stroke-dashoffset:-34.42887829977553;" d=" M 150.00 400.00 L 650.00 400.00"/>
	<path class="poloto_imgs poloto_ticks poloto_y" stroke="black" style="stroke-dasharray:9.17487308092238;stroke-dashoffset:-0;" d=" M 150.00 400.00 L 150.00 100.00"/>
</svg>

