<svg class="poloto" width="800" height="680" viewBox="0 0 800 680" xmlns="http://www.w3.org/2000/svg">
	<style>
.poloto{
  stroke-linecap:round;
  stroke-linejoin:round;
  font-family:Roboto,sans-serif;
  font-size:16px;
}
.poloto_background{fill:AliceBlue;}
.poloto_scatter{stroke-width:7}
.poloto_line{stroke-width:2}
.poloto_text{fill: black;}
.poloto_name{font-size:24px;dominant-baseline:auto;text-anchor:middle;}
.poloto_where{dominant-baseline:middle;text-anchor:start}
.poloto_text.poloto_legend{font-size:20px;dominant-baseline:middle;text-anchor:start;}
.poloto_text.poloto_ticks.poloto_y{dominant-baseline:middle;text-anchor:end}
.poloto_text.poloto_ticks.poloto_x{dominant-baseline:auto;text-anchor:middle}
.poloto_imgs.poloto_ticks{stroke: black;stroke-width:3;fill:none;stroke-dasharray:none}
.poloto_grid{stroke:gray;stroke-width:0.5}

.poloto0.poloto_stroke{stroke:blue;}
.poloto1.poloto_stroke{stroke:red;}
.poloto2.poloto_stroke{stroke:green;}
.poloto3.poloto_stroke{stroke:gold;}
.poloto4.poloto_stroke{stroke:aqua;}
.poloto5.poloto_stroke{stroke:lime;}
.poloto6.poloto_stroke{stroke:orange;}
.poloto7.poloto_stroke{stroke:chocolate;}
.poloto0.poloto_fill{fill:blue;}
.poloto1.poloto_fill{fill:red;}
.poloto2.poloto_fill{fill:green;}
.poloto3.poloto_fill{fill:gold;}
.poloto4.poloto_fill{fill:aqua;}
.poloto5.poloto_fill{fill:lime;}
.poloto6.poloto_fill{fill:orange;}
.poloto7.poloto_fill{fill:chocolate;}
	</style>
	<circle r="1e5" class="poloto_background" fill="white"/>
	<g id="poloto_plot0" class="poloto_plot poloto_imgs poloto_line poloto0 poloto_stroke" fill="none" stroke="black">
		<path d=" M 150.00 367.21 L 150.03 367.19 L 150.05 367.17 L 150.06 367.17 L 150.08 367.17 L 150.12 363.61 L 150.25 363.18 L 150.54 363.16 L 150.99 362.87 L 151.21 361.06 L 151.66 360.95 L 151.74 360.85 L 151.79 360.81 L 152.32 359.93 L 153.30 359.21 L 153.61 356.42 L 153.69 356.42 L 154.28 356.31 L 154.97 356.30 L 154.97 356.30 L 154.97 356.30 L 164.19 356.30 L 164.26 356.29 L 164.38 356.27 L 164.43 356.24 L 164.78 356.08 L 164.94 356.03 L 165.33 355.78 L 165.38 355.66 L 165.50 355.41 L 165.61 355.37 L 165.65 355.37 L 165.74 355.30 L 165.84 355.30 L 165.94 355.31 L 166.20 354.89 L 166.43 354.64 L 166.47 354.64 L 166.58 354.48 L 167.31 355.12 L 167.33 355.12 L 167.42 355.02 L 167.84 354.54 L 168.17 353.97 L 168.55 353.72 L 168.63 353.67 L 168.64 353.68 L 168.71 353.45 L 168.86 353.45 L 169.04 353.37 L 169.40 353.16 L 169.42 352.83 L 169.49 352.83 L 169.58 352.65 L 169.78 352.65 L 169.81 352.65 L 170.02 352.17 L 170.11 352.15 L 170.18 352.11 L 170.27 351.92 L 171.39 351.66 L 171.66 351.61 L 172.29 351.27 L 172.42 351.27 L 172.52 351.26 L 172.57 351.01 L 173.00 349.60 L 173.19 349.57 L 173.42 349.10 L 173.52 349.06 L 173.78 348.66 L 173.90 348.52 L 174.05 348.27 L 174.19 348.05 L 174.69 344.79 L 174.70 344.71 L 174.73 344.52 L 174.90 342.96 L 183.45 342.84 L 184.33 341.06 L 184.36 341.02 L 185.41 340.74 L 185.50 340.73 L 185.59 340.38 L 185.85 340.20 L 185.97 339.89 L 186.01 339.63 L 186.14 339.16 L 186.45 339.15 L 186.46 338.84 L 186.57 338.49 L 186.69 338.48 L 186.82 338.09 L 186.99 337.81 L 187.06 337.67 L 187.08 337.66 L 187.23 337.36 L 187.25 337.35 L 187.41 337.04 L 187.44 337.04 L 187.68 335.57 L 187.72 335.57 L 187.81 335.32 L 187.91 335.31 L 188.05 335.31 L 188.12 335.28 L 188.60 335.00 L 188.61 335.01 L 188.70 334.36 L 188.91 334.34 L 189.10 333.36 L 189.16 333.28 L 189.25 333.27 L 189.30 333.23 L 189.41 332.47 L 189.94 326.09 L 190.00 325.78 L 190.18 325.75 L 190.24 325.67 L 190.28 325.65 L 190.37 325.48 L 190.45 324.76 L 190.64 324.61 L 190.78 324.59 L 190.88 324.27 L 190.94 324.26 L 191.43 324.03 L 191.69 323.85 L 191.77 323.56 L 191.99 323.55 L 192.01 323.55 L 192.04 323.52 L 192.18 321.99 L 192.29 321.90 L 192.69 320.35 L 192.75 319.90 L 192.83 319.88 L 192.93 319.72 L 192.94 319.60 L 192.99 319.53 L 193.03 319.49 L 193.09 319.48 L 193.14 319.40 L 193.29 318.13 L 193.41 317.95 L 193.52 317.58 L 193.68 317.55 L 193.85 317.43 L 194.02 316.54 L 194.14 315.29 L 194.39 315.22 L 194.39 314.76 L 194.54 314.61 L 206.48 314.61 L 206.71 314.60 L 207.27 313.94 L 207.39 313.92 L 207.48 313.92 L 207.50 313.76 L 207.70 313.56 L 207.84 313.52 L 207.93 313.40 L 208.01 313.31 L 208.06 313.27 L 208.27 313.21 L 208.70 313.13 L 208.81 312.79 L 208.89 312.71 L 208.99 312.69 L 209.55 312.52 L 209.63 312.43 L 209.66 312.43 L 209.70 312.30 L 209.82 312.24 L 209.91 312.12 L 210.31 311.28 L 210.89 311.15 L 211.10 311.10 L 211.74 310.89 L 212.04 306.88 L 212.15 306.79 L 212.28 306.40 L 212.47 305.87 L 212.75 305.72 L 213.16 305.71 L 213.70 305.69 L 213.78 305.52 L 214.18 305.33 L 214.43 305.04 L 214.51 304.92 L 214.67 304.88 L 214.79 304.52 L 216.20 304.13 L 217.54 304.13 L 229.56 304.09 L 229.64 303.92 L 229.71 303.80 L 230.08 303.63 L 231.21 302.25 L 231.25 302.16 L 231.41 301.80 L 231.96 301.71 L 232.22 300.77 L 232.62 300.76 L 232.71 300.75 L 232.80 300.11 L 233.50 296.46 L 233.58 296.45 L 233.73 296.42 L 233.88 296.37 L 233.95 295.98 L 234.34 294.60 L 234.48 294.35 L 234.55 294.33 L 234.63 293.69 L 234.81 292.79 L 234.88 291.84 L 235.05 291.42 L 235.58 286.67 L 235.62 286.19 L 235.67 286.19 L 235.75 286.11 L 235.88 285.99 L 235.93 285.94 L 235.98 285.89 L 236.23 284.75 L 236.29 283.95 L 236.60 283.79 L 236.78 282.60 L 236.89 281.84 L 237.83 270.78 L 237.93 270.75 L 273.25 270.22 L 273.28 270.22 L 286.78 270.07 L 287.51 269.76 L 287.66 269.76 L 287.86 269.68 L 287.92 269.54 L 288.01 269.50 L 293.86 269.42 L 294.63 267.32 L 294.92 267.13 L 295.07 266.35 L 298.71 266.20 L 298.74 265.98 L 298.97 265.97 L 300.05 264.64 L 300.12 264.40 L 300.25 264.31 L 300.64 264.22 L 300.69 264.19 L 300.84 263.79 L 301.01 263.68 L 301.03 263.38 L 312.37 262.98 L 312.46 261.84 L 312.91 261.59 L 312.92 259.69 L 313.00 259.41 L 313.09 258.95 L 313.22 257.64 L 313.41 256.94 L 313.57 256.13 L 313.72 256.12 L 313.78 255.50 L 314.00 255.45 L 314.79 252.39 L 315.11 252.06 L 315.16 251.87 L 315.22 251.87 L 315.27 251.65 L 315.37 250.90 L 315.69 250.54 L 315.74 250.50 L 315.94 247.81 L 316.01 247.80 L 316.04 247.51 L 316.11 247.29 L 316.16 247.28 L 316.21 246.88 L 316.46 245.43 L 316.56 245.01 L 316.70 244.96 L 316.80 241.07 L 316.84 240.75 L 317.09 238.53 L 317.16 238.36 L 317.20 238.35 L 317.27 238.35 L 317.30 238.04 L 317.34 238.05 L 317.35 238.04 L 317.48 234.11 L 317.52 233.77 L 317.64 233.75 L 317.73 233.68 L 317.99 233.57 L 318.30 233.42 L 318.31 233.42 L 318.40 233.37 L 318.69 233.30 L 318.83 233.30 L 318.96 233.30 L 319.11 231.59 L 319.21 231.18 L 319.61 231.17 L 319.65 230.90 L 319.69 230.90 L 319.73 230.61 L 319.99 228.13 L 320.04 228.07 L 320.23 228.05 L 337.68 227.98 L 338.67 227.85 L 338.70 227.85 L 338.90 227.85 L 338.92 227.85 L 339.04 227.36 L 339.14 227.34 L 339.22 227.10 L 339.35 227.04 L 339.38 227.00 L 339.43 226.98 L 339.61 226.71 L 339.99 226.46 L 340.23 225.67 L 340.50 224.91 L 340.51 224.87 L 340.55 224.16 L 340.59 224.13 L 341.11 223.71 L 341.12 223.67 L 341.20 223.10 L 341.42 223.04 L 341.56 222.99 L 341.59 221.99 L 341.60 221.94 L 341.67 222.89 L 341.71 222.30 L 341.73 222.28 L 341.85 220.94 L 341.86 220.90 L 342.14 220.79 L 342.88 220.77 L 343.06 220.72 L 343.11 220.71 L 343.15 220.54 L 343.19 220.54 L 343.30 219.87 L 355.23 218.59 L 355.25 218.42 L 355.35 218.29 L 355.38 218.05 L 355.44 206.84 L 355.58 202.26 L 355.59 202.23 L 355.81 202.14 L 355.86 202.14 L 355.90 201.61 L 356.09 201.56 L 356.61 200.48 L 356.62 200.45 L 356.75 200.12 L 356.80 200.13 L 356.83 199.59 L 357.26 198.95 L 357.27 198.93 L 357.93 198.68 L 358.00 198.11 L 358.24 198.12 L 358.51 196.67 L 358.58 196.10 L 358.62 195.64 L 358.74 195.08 L 359.08 194.89 L 359.14 194.75 L 359.29 194.62 L 359.45 194.62 L 359.95 194.62 L 360.01 194.62 L 360.13 194.60 L 360.14 194.59 L 360.30 194.61 L 360.68 194.58 L 361.07 194.37 L 361.13 194.37 L 361.21 194.29 L 361.32 194.13 L 361.62 194.13 L 362.13 193.93 L 362.29 193.48 L 362.57 189.62 L 363.66 192.89 L 363.90 192.87 L 364.08 192.86 L 364.35 192.85 L 364.44 192.79 L 364.71 192.60 L 365.14 192.34 L 365.20 192.16 L 365.28 192.09 L 365.33 192.10 L 365.37 192.05 L 365.71 191.81 L 373.62 191.80 L 373.69 191.81 L 374.18 191.79 L 374.23 191.78 L 374.34 191.29 L 374.43 191.01 L 374.45 191.01 L 374.72 190.96 L 374.78 190.94 L 376.40 190.21 L 376.59 190.15 L 376.73 190.14 L 376.76 190.13 L 377.27 189.96 L 377.44 190.05 L 377.47 190.04 L 377.74 189.99 L 378.03 188.47 L 378.07 188.46 L 378.32 188.28 L 378.42 188.28 L 378.51 188.28 L 378.71 188.11 L 379.15 187.49 L 379.24 187.47 L 379.32 187.30 L 379.50 186.57 L 379.93 185.82 L 380.32 182.27 L 380.40 181.83 L 380.79 181.66 L 380.86 181.57 L 380.93 181.40 L 380.97 180.83 L 381.10 179.80 L 381.14 179.85 L 381.20 179.83 L 381.42 179.82 L 381.77 179.45 L 381.98 179.37 L 382.23 179.36 L 382.34 179.35 L 382.58 179.33 L 382.98 179.33 L 383.38 179.32 L 383.68 179.32 L 383.75 179.31 L 383.83 179.30 L 383.83 179.17 L 384.06 179.10 L 384.13 179.09 L 384.23 178.93 L 384.87 178.91 L 384.88 178.60 L 385.06 178.59 L 385.82 178.60 L 386.32 178.41 L 386.69 178.18 L 386.70 178.06 L 386.73 178.06 L 397.80 177.84 L 397.84 177.84 L 397.97 177.83 L 398.03 177.65 L 398.07 177.63 L 398.07 177.62 L 398.54 177.57 L 398.65 176.93 L 398.79 176.78 L 399.03 175.52 L 399.18 175.50 L 399.37 174.96 L 399.47 175.03 L 399.53 175.03 L 399.58 174.41 L 399.72 173.99 L 399.74 173.54 L 399.79 173.48 L 399.90 173.44 L 399.98 173.23 L 400.08 175.65 L 400.22 175.61 L 400.49 174.65 L 400.61 174.41 L 400.71 174.20 L 401.39 172.82 L 401.98 172.15 L 402.68 170.86 L 402.86 170.80 L 403.05 170.80 L 403.27 170.75 L 407.34 170.38 L 407.68 170.35 L 446.25 169.37 L 567.72 169.14 L 568.13 168.75 L 568.41 168.70 L 568.68 168.70 L 569.11 167.95 L 569.25 167.58 L 569.36 166.91 L 569.55 164.96 L 569.84 165.36 L 570.06 164.94 L 570.11 164.93 L 570.30 164.80 L 570.34 164.80 L 570.54 164.09 L 570.72 162.95 L 571.27 161.73 L 571.29 161.63 L 571.45 160.18 L 571.97 156.60 L 571.98 156.47 L 572.09 156.40 L 572.21 155.11 L 572.78 153.39 L 572.79 153.23 L 572.91 153.15 L 573.04 152.30 L 573.26 151.63 L 573.27 151.50 L 573.36 150.19 L 573.38 150.16 L 573.43 149.79 L 573.67 147.45 L 573.70 147.32 L 573.78 147.19 L 574.04 146.88 L 574.09 146.87 L 574.29 146.42 L 574.63 146.47 L 574.68 146.41 L 574.72 146.38 L 574.78 146.35 L 574.95 144.98 L 575.13 143.86 L 575.16 143.76 L 575.26 142.36 L 575.36 141.00 L 575.39 140.83 L 575.49 139.23 L 575.54 137.97 L 575.75 137.13 L 575.78 137.07 L 575.89 136.80 L 576.03 136.78 L 576.90 136.74 L 577.34 136.71 L 586.83 136.76 L 586.92 136.52 L 587.02 136.31 L 587.18 135.37 L 587.53 135.12 L 587.56 135.03 L 587.63 133.79 L 587.86 132.58 L 587.88 132.48 L 589.95 132.40 L 590.08 131.72 L 591.12 131.52 L 591.24 131.47 L 591.36 130.07 L 592.62 128.75 L 593.15 128.25 L 593.29 127.22 L 593.74 125.46 L 594.02 124.96 L 594.49 123.92 L 595.32 123.40 L 608.02 123.39 L 608.78 123.27 L 608.81 123.29 L 609.88 123.08 L 609.93 122.98 L 610.30 122.90 L 610.74 121.76 L 610.74 121.76 L 610.78 121.71 L 611.35 120.40 L 612.65 119.65 L 612.74 119.58 L 612.87 119.57 L 613.07 119.23 L 613.13 119.14 L 613.20 119.07 L 613.81 119.02 L 614.30 119.02 L 614.56 119.02 L 614.60 118.97 L 615.14 117.83 L 615.56 117.61 L 615.57 117.52 L 615.62 117.43 L 615.68 117.12 L 629.46 116.68 L 629.49 116.66 L 629.53 116.64 L 629.80 116.51 L 630.01 116.37 L 631.22 114.61 L 631.52 114.40 L 632.40 113.87 L 633.15 113.75 L 633.71 113.57 L 633.86 111.95 L 634.56 110.04 L 634.82 109.91 L 634.91 108.68 L 636.95 106.42 L 636.97 106.42 L 637.08 105.87 L 637.47 105.81 L 637.47 105.81 L 637.50 105.67 L 637.57 105.50 L 637.74 105.32 L 637.96 104.37 L 640.08 102.08 L 640.35 101.81 L 640.54 101.40 L 640.57 101.35 L 640.61 101.03 L 650.00 100.00"/>
	</g>
	<g id="poloto_plot1" class="poloto_plot poloto_imgs poloto_line poloto1 poloto_stroke" fill="none" stroke="black">
		<path d=" M 150.00 380.52 L 150.03 380.50 L 150.05 380.49 L 150.06 380.49 L 150.08 380.49 L 150.12 379.87 L 150.25 379.85 L 150.54 379.84 L 150.99 379.61 L 151.21 379.50 L 151.66 379.53 L 151.74 379.48 L 151.79 379.48 L 152.32 379.44 L 153.30 379.32 L 153.61 376.91 L 153.69 376.91 L 154.28 376.85 L 154.97 376.84 L 154.97 376.84 L 154.97 376.84 L 164.19 376.84 L 164.26 376.84 L 164.38 376.84 L 164.43 376.81 L 164.78 376.80 L 164.94 376.80 L 165.33 376.80 L 165.38 376.80 L 165.50 376.78 L 165.61 376.78 L 165.65 376.78 L 165.74 376.75 L 165.84 376.75 L 165.94 376.75 L 166.20 376.62 L 166.43 376.62 L 166.47 376.62 L 166.58 376.62 L 167.31 377.52 L 167.33 377.52 L 167.42 377.51 L 167.84 377.37 L 168.17 377.22 L 168.55 377.16 L 168.63 377.11 L 168.64 377.11 L 168.71 377.11 L 168.86 377.11 L 169.04 377.05 L 169.40 377.00 L 169.42 377.00 L 169.49 377.00 L 169.58 376.98 L 169.78 376.98 L 169.81 376.98 L 170.02 376.97 L 170.11 376.97 L 170.18 376.97 L 170.27 376.97 L 171.39 376.86 L 171.66 376.85 L 172.29 376.80 L 172.42 376.80 L 172.52 376.80 L 172.57 376.80 L 173.00 376.73 L 173.19 376.73 L 173.42 376.64 L 173.52 376.63 L 173.78 376.44 L 173.90 376.37 L 174.05 376.37 L 174.19 376.36 L 174.69 373.55 L 174.70 373.50 L 174.73 373.50 L 174.90 373.23 L 183.45 373.23 L 184.33 372.01 L 184.36 372.01 L 185.41 372.01 L 185.50 372.01 L 185.59 371.88 L 185.85 371.86 L 185.97 371.86 L 186.01 371.86 L 186.14 371.86 L 186.45 371.86 L 186.46 371.60 L 186.57 371.59 L 186.69 371.59 L 186.82 371.56 L 186.99 371.56 L 187.06 371.56 L 187.08 371.56 L 187.23 371.56 L 187.25 371.56 L 187.41 371.56 L 187.44 371.56 L 187.68 370.36 L 187.72 370.36 L 187.81 370.22 L 187.91 370.22 L 188.05 370.22 L 188.12 370.20 L 188.60 370.20 L 188.61 370.20 L 188.70 370.13 L 188.91 370.13 L 189.10 369.44 L 189.16 369.36 L 189.25 369.36 L 189.30 369.36 L 189.41 369.34 L 189.94 364.31 L 190.00 364.35 L 190.18 364.35 L 190.24 364.35 L 190.28 364.34 L 190.37 364.34 L 190.45 364.27 L 190.64 364.27 L 190.78 364.27 L 190.88 364.26 L 190.94 364.26 L 191.43 364.26 L 191.69 364.25 L 191.77 364.13 L 191.99 364.13 L 192.01 364.13 L 192.04 364.13 L 192.18 363.79 L 192.29 363.70 L 192.69 362.51 L 192.75 362.51 L 192.83 362.51 L 192.93 362.52 L 192.94 362.52 L 192.99 362.52 L 193.03 362.52 L 193.09 362.52 L 193.14 362.52 L 193.29 362.50 L 193.41 362.50 L 193.52 362.48 L 193.68 362.48 L 193.85 362.48 L 194.02 362.03 L 194.14 361.88 L 194.39 361.88 L 194.39 361.88 L 194.54 361.88 L 206.48 361.88 L 206.71 361.87 L 207.27 361.79 L 207.39 361.78 L 207.48 361.78 L 207.50 361.78 L 207.70 361.78 L 207.84 361.78 L 207.93 361.78 L 208.01 361.78 L 208.06 361.77 L 208.27 361.77 L 208.70 361.80 L 208.81 361.80 L 208.89 361.80 L 208.99 361.80 L 209.55 361.70 L 209.63 361.66 L 209.66 361.66 L 209.70 361.59 L 209.82 361.59 L 209.91 361.59 L 210.31 361.13 L 210.89 361.13 L 211.10 361.13 L 211.74 361.13 L 212.04 358.05 L 212.15 358.05 L 212.28 358.05 L 212.47 358.04 L 212.75 358.04 L 213.16 358.04 L 213.70 358.04 L 213.78 358.04 L 214.18 357.97 L 214.43 357.84 L 214.51 357.84 L 214.67 357.84 L 214.79 357.82 L 216.20 357.63 L 217.54 357.63 L 229.56 357.62 L 229.64 357.62 L 229.71 357.62 L 230.08 357.62 L 231.21 356.66 L 231.25 356.62 L 231.41 356.52 L 231.96 356.52 L 232.22 356.28 L 232.62 356.29 L 232.71 356.29 L 232.80 356.29 L 233.50 353.58 L 233.58 353.58 L 233.73 353.58 L 233.88 353.58 L 233.95 353.41 L 234.34 353.09 L 234.48 353.09 L 234.55 353.09 L 234.63 352.59 L 234.81 352.09 L 234.88 352.09 L 235.05 352.08 L 235.58 348.05 L 235.62 348.05 L 235.67 348.05 L 235.75 348.05 L 235.88 348.05 L 235.93 348.05 L 235.98 348.05 L 236.23 348.05 L 236.29 347.97 L 236.60 347.95 L 236.78 347.89 L 236.89 347.41 L 237.83 339.39 L 237.93 339.39 L 273.25 339.39 L 273.28 339.39 L 286.78 339.39 L 287.51 339.27 L 287.66 339.27 L 287.86 339.27 L 287.92 339.27 L 288.01 339.27 L 293.86 339.21 L 294.63 339.13 L 294.92 339.13 L 295.07 339.11 L 298.71 339.04 L 298.74 338.93 L 298.97 338.93 L 300.05 337.84 L 300.12 337.84 L 300.25 337.84 L 300.64 337.84 L 300.69 337.84 L 300.84 337.84 L 301.01 337.84 L 301.03 337.84 L 312.37 337.83 L 312.46 337.64 L 312.91 337.64 L 312.92 336.33 L 313.00 336.33 L 313.09 336.33 L 313.22 336.20 L 313.41 336.20 L 313.57 336.15 L 313.72 336.15 L 313.78 336.15 L 314.00 336.13 L 314.79 333.91 L 315.11 333.90 L 315.16 333.89 L 315.22 333.89 L 315.27 333.89 L 315.37 333.86 L 315.69 333.58 L 315.74 333.54 L 315.94 331.54 L 316.01 331.54 L 316.04 331.54 L 316.11 331.51 L 316.16 331.51 L 316.21 331.50 L 316.46 330.42 L 316.56 330.40 L 316.70 330.38 L 316.80 327.00 L 316.84 327.00 L 317.09 325.09 L 317.16 325.09 L 317.20 325.09 L 317.27 325.09 L 317.30 325.09 L 317.34 325.09 L 317.35 325.09 L 317.48 321.57 L 317.52 321.56 L 317.64 321.55 L 317.73 321.55 L 317.99 321.48 L 318.30 321.38 L 318.31 321.38 L 318.40 321.36 L 318.69 321.31 L 318.83 321.31 L 318.96 321.31 L 319.11 319.79 L 319.21 319.79 L 319.61 319.78 L 319.65 319.78 L 319.69 319.78 L 319.73 319.78 L 319.99 317.61 L 320.04 317.61 L 320.23 317.59 L 337.68 317.59 L 338.67 317.58 L 338.70 317.58 L 338.90 317.58 L 338.92 317.58 L 339.04 317.58 L 339.14 317.58 L 339.22 317.47 L 339.35 317.47 L 339.38 317.47 L 339.43 317.47 L 339.61 317.28 L 339.99 317.15 L 340.23 317.02 L 340.50 316.41 L 340.51 316.41 L 340.55 316.26 L 340.59 316.24 L 341.11 315.86 L 341.12 315.86 L 341.20 315.81 L 341.42 315.81 L 341.56 315.77 L 341.59 314.87 L 341.60 314.87 L 341.67 315.76 L 341.71 315.71 L 341.73 315.70 L 341.85 314.49 L 341.86 314.49 L 342.14 314.44 L 342.88 314.44 L 343.06 314.44 L 343.11 314.44 L 343.15 314.44 L 343.19 314.44 L 343.30 314.36 L 355.23 313.36 L 355.25 313.36 L 355.35 313.36 L 355.38 313.14 L 355.44 302.44 L 355.58 298.46 L 355.59 298.46 L 355.81 298.39 L 355.86 298.39 L 355.90 298.37 L 356.09 298.37 L 356.61 297.40 L 356.62 297.40 L 356.75 297.35 L 356.80 297.35 L 356.83 297.26 L 357.26 296.68 L 357.27 296.68 L 357.93 296.56 L 358.00 296.52 L 358.24 296.53 L 358.51 295.22 L 358.58 295.09 L 358.62 294.97 L 358.74 294.47 L 359.08 294.35 L 359.14 294.25 L 359.29 294.25 L 359.45 294.25 L 359.95 294.25 L 360.01 294.25 L 360.13 294.25 L 360.14 294.25 L 360.30 294.26 L 360.68 294.26 L 361.07 294.12 L 361.13 294.12 L 361.21 294.11 L 361.32 294.11 L 361.62 294.11 L 362.13 294.11 L 362.29 293.99 L 362.57 290.54 L 363.66 293.80 L 363.90 293.78 L 364.08 293.77 L 364.35 293.77 L 364.44 293.73 L 364.71 293.71 L 365.14 293.51 L 365.20 293.51 L 365.28 293.51 L 365.33 293.51 L 365.37 293.51 L 365.71 293.32 L 373.62 293.32 L 373.69 293.33 L 374.18 293.31 L 374.23 293.31 L 374.34 293.28 L 374.43 293.04 L 374.45 293.04 L 374.72 293.01 L 374.78 293.01 L 376.40 292.81 L 376.59 292.81 L 376.73 292.81 L 376.76 292.81 L 377.27 292.67 L 377.44 292.67 L 377.47 292.67 L 377.74 292.67 L 378.03 291.85 L 378.07 291.85 L 378.32 291.71 L 378.42 291.71 L 378.51 291.71 L 378.71 291.71 L 379.15 291.70 L 379.24 291.68 L 379.32 291.60 L 379.50 291.46 L 379.93 291.34 L 380.32 288.08 L 380.40 287.97 L 380.79 287.82 L 380.86 287.78 L 380.93 287.66 L 380.97 287.43 L 381.10 286.46 L 381.14 286.50 L 381.20 286.48 L 381.42 286.47 L 381.77 286.34 L 381.98 286.29 L 382.23 286.28 L 382.34 286.26 L 382.58 286.25 L 382.98 286.25 L 383.38 286.24 L 383.68 286.24 L 383.75 286.23 L 383.83 286.23 L 383.83 286.23 L 384.06 286.23 L 384.13 286.21 L 384.23 286.09 L 384.87 286.08 L 384.88 286.08 L 385.06 286.06 L 385.82 286.06 L 386.32 285.90 L 386.69 285.76 L 386.70 285.76 L 386.73 285.76 L 397.80 285.76 L 397.84 285.76 L 397.97 285.76 L 398.03 285.76 L 398.07 285.74 L 398.07 285.74 L 398.54 285.74 L 398.65 285.73 L 398.79 285.71 L 399.03 285.68 L 399.18 285.68 L 399.37 285.61 L 399.47 285.61 L 399.53 285.61 L 399.58 285.61 L 399.72 285.31 L 399.74 285.31 L 399.79 285.31 L 399.90 285.31 L 399.98 285.31 L 400.08 285.38 L 400.22 285.38 L 400.49 285.37 L 400.61 285.37 L 400.71 285.37 L 401.39 284.41 L 401.98 284.15 L 402.68 283.47 L 402.86 283.47 L 403.05 283.47 L 403.27 283.47 L 407.34 283.38 L 407.68 283.38 L 446.25 283.26 L 567.72 283.08 L 568.13 283.03 L 568.41 283.02 L 568.68 283.02 L 569.11 282.58 L 569.25 282.58 L 569.36 282.58 L 569.55 280.97 L 569.84 281.28 L 570.06 281.26 L 570.11 281.26 L 570.30 281.24 L 570.34 281.24 L 570.54 281.24 L 570.72 281.17 L 571.27 280.15 L 571.29 280.15 L 571.45 280.06 L 571.97 276.78 L 571.98 276.78 L 572.09 276.77 L 572.21 276.72 L 572.78 275.20 L 572.79 275.20 L 572.91 275.20 L 573.04 275.16 L 573.26 274.60 L 573.27 274.60 L 573.36 274.59 L 573.38 274.59 L 573.43 274.28 L 573.67 272.11 L 573.70 272.11 L 573.78 272.11 L 574.04 271.93 L 574.09 271.93 L 574.29 271.57 L 574.63 271.57 L 574.68 271.57 L 574.72 271.57 L 574.78 271.57 L 574.95 271.56 L 575.13 270.58 L 575.16 270.58 L 575.26 270.58 L 575.36 269.83 L 575.39 269.83 L 575.49 269.05 L 575.54 269.00 L 575.75 268.22 L 575.78 268.22 L 575.89 268.22 L 576.03 268.21 L 576.90 268.21 L 577.34 268.20 L 586.83 268.20 L 586.92 268.20 L 587.02 268.20 L 587.18 268.20 L 587.53 268.00 L 587.56 268.00 L 587.63 267.93 L 587.86 266.85 L 587.88 266.85 L 589.95 266.87 L 590.08 266.66 L 591.12 266.66 L 591.24 266.65 L 591.36 266.57 L 592.62 265.68 L 593.15 265.51 L 593.29 265.44 L 593.74 263.75 L 594.02 263.75 L 594.49 263.61 L 595.32 263.61 L 608.02 263.60 L 608.78 263.50 L 608.81 263.52 L 609.88 263.52 L 609.93 263.52 L 610.30 263.52 L 610.74 263.49 L 610.74 263.49 L 610.78 263.49 L 611.35 262.50 L 612.65 262.47 L 612.74 262.47 L 612.87 262.47 L 613.07 262.43 L 613.13 262.40 L 613.20 262.40 L 613.81 262.35 L 614.30 262.35 L 614.56 262.35 L 614.60 262.35 L 615.14 262.33 L 615.56 262.21 L 615.57 262.21 L 615.62 262.21 L 615.68 262.21 L 629.46 261.98 L 629.49 261.98 L 629.53 261.98 L 629.80 261.98 L 630.01 261.98 L 631.22 261.00 L 631.52 260.94 L 632.40 260.87 L 633.15 260.82 L 633.71 260.82 L 633.86 260.82 L 634.56 259.34 L 634.82 259.29 L 634.91 259.24 L 636.95 258.20 L 636.97 258.20 L 637.08 258.19 L 637.47 258.18 L 637.47 258.18 L 637.50 258.18 L 637.57 258.15 L 637.74 258.11 L 637.96 257.99 L 640.08 256.28 L 640.35 256.19 L 640.54 256.19 L 640.57 256.19 L 640.61 256.19 L 650.00 256.19"/>
	</g>
	<g id="poloto_plot2" class="poloto_plot poloto_imgs poloto_line poloto2 poloto_stroke" fill="none" stroke="black">
		<path d=" M 150.00 391.26 L 150.03 391.25 L 150.05 391.25 L 150.06 391.25 L 150.08 391.25 L 150.12 389.01 L 150.25 388.71 L 150.54 388.70 L 150.99 388.69 L 151.21 387.35 L 151.66 387.23 L 151.74 387.19 L 151.79 387.16 L 152.32 386.56 L 153.30 386.09 L 153.61 386.00 L 153.69 386.00 L 154.28 385.97 L 154.97 385.97 L 154.97 385.97 L 154.97 385.97 L 164.19 385.97 L 164.26 385.96 L 164.38 385.94 L 164.43 385.94 L 164.78 385.81 L 164.94 385.77 L 165.33 385.55 L 165.38 385.46 L 165.50 385.26 L 165.61 385.23 L 165.65 385.23 L 165.74 385.19 L 165.84 385.19 L 165.94 385.20 L 166.20 384.97 L 166.43 384.76 L 166.47 384.77 L 166.58 384.65 L 167.31 384.38 L 167.33 384.37 L 167.42 384.29 L 167.84 383.99 L 168.17 383.63 L 168.55 383.48 L 168.63 383.48 L 168.64 383.48 L 168.71 383.28 L 168.86 383.28 L 169.04 383.25 L 169.40 383.10 L 169.42 382.84 L 169.49 382.84 L 169.58 382.71 L 169.78 382.71 L 169.81 382.71 L 170.02 382.32 L 170.11 382.30 L 170.18 382.26 L 170.27 382.08 L 171.39 381.97 L 171.66 381.93 L 172.29 381.66 L 172.42 381.66 L 172.52 381.65 L 172.57 381.44 L 173.00 380.35 L 173.19 380.33 L 173.42 380.00 L 173.52 379.97 L 173.78 379.82 L 173.90 379.77 L 174.05 379.54 L 174.19 379.35 L 174.69 379.35 L 174.70 379.32 L 174.73 379.16 L 174.90 378.11 L 183.45 378.00 L 184.33 377.68 L 184.36 377.64 L 185.41 377.37 L 185.50 377.37 L 185.59 377.17 L 185.85 377.04 L 185.97 376.80 L 186.01 376.60 L 186.14 376.21 L 186.45 376.20 L 186.46 376.20 L 186.57 375.93 L 186.69 375.92 L 186.82 375.63 L 186.99 375.41 L 187.06 375.28 L 187.08 375.28 L 187.23 375.01 L 187.25 375.01 L 187.41 374.77 L 187.44 374.76 L 187.68 374.67 L 187.72 374.67 L 187.81 374.58 L 187.91 374.57 L 188.05 374.57 L 188.12 374.55 L 188.60 374.31 L 188.61 374.32 L 188.70 373.84 L 188.91 373.83 L 189.10 373.68 L 189.16 373.68 L 189.25 373.67 L 189.30 373.64 L 189.41 372.98 L 189.94 372.43 L 190.00 372.13 L 190.18 372.11 L 190.24 372.03 L 190.28 372.02 L 190.37 371.88 L 190.45 371.36 L 190.64 371.28 L 190.78 371.27 L 190.88 371.01 L 190.94 371.00 L 191.43 370.81 L 191.69 370.67 L 191.77 370.55 L 191.99 370.54 L 192.01 370.54 L 192.04 370.52 L 192.18 369.58 L 192.29 369.57 L 192.69 369.44 L 192.75 369.07 L 192.83 369.06 L 192.93 368.91 L 192.94 368.82 L 192.99 368.75 L 193.03 368.72 L 193.09 368.71 L 193.14 368.64 L 193.29 367.59 L 193.41 367.48 L 193.52 367.17 L 193.68 367.15 L 193.85 367.04 L 194.02 366.71 L 194.14 365.80 L 194.39 365.73 L 194.39 365.34 L 194.54 365.25 L 206.48 365.25 L 206.71 365.25 L 207.27 364.82 L 207.39 364.82 L 207.48 364.82 L 207.50 364.71 L 207.70 364.52 L 207.84 364.49 L 207.93 364.38 L 208.01 364.30 L 208.06 364.26 L 208.27 364.20 L 208.70 364.29 L 208.81 364.00 L 208.89 363.92 L 208.99 363.91 L 209.55 363.86 L 209.63 363.81 L 209.66 363.81 L 209.70 363.75 L 209.82 363.70 L 209.91 363.59 L 210.31 363.32 L 210.89 363.21 L 211.10 363.16 L 211.74 362.98 L 212.04 362.56 L 212.15 362.49 L 212.28 362.15 L 212.47 361.73 L 212.75 361.61 L 213.16 361.60 L 213.70 361.58 L 213.78 361.43 L 214.18 361.32 L 214.43 361.19 L 214.51 361.08 L 214.67 361.04 L 214.79 360.75 L 216.20 360.61 L 217.54 360.61 L 229.56 360.58 L 229.64 360.42 L 229.71 360.32 L 230.08 360.16 L 231.21 359.87 L 231.25 359.83 L 231.41 359.63 L 231.96 359.55 L 232.22 359.00 L 232.62 358.99 L 232.71 358.97 L 232.80 358.42 L 233.50 357.91 L 233.58 357.91 L 233.73 357.88 L 233.88 357.83 L 233.95 357.65 L 234.34 356.80 L 234.48 356.58 L 234.55 356.57 L 234.63 356.48 L 234.81 356.15 L 234.88 355.30 L 235.05 354.95 L 235.58 354.75 L 235.62 354.32 L 235.67 354.32 L 235.75 354.25 L 235.88 354.13 L 235.93 354.10 L 235.98 354.06 L 236.23 353.07 L 236.29 352.48 L 236.60 352.38 L 236.78 351.39 L 236.89 351.20 L 237.83 349.65 L 237.93 349.62 L 273.25 349.17 L 273.28 349.17 L 286.78 349.04 L 287.51 348.88 L 287.66 348.88 L 287.86 348.80 L 287.92 348.67 L 288.01 348.64 L 293.86 348.63 L 294.63 346.85 L 294.92 346.69 L 295.07 346.08 L 298.71 346.00 L 298.74 345.94 L 298.97 345.93 L 300.05 345.82 L 300.12 345.62 L 300.25 345.55 L 300.64 345.45 L 300.69 345.43 L 300.84 345.08 L 301.01 344.98 L 301.03 344.72 L 312.37 344.38 L 312.46 343.57 L 312.91 343.36 L 312.92 343.05 L 313.00 342.81 L 313.09 342.44 L 313.22 341.45 L 313.41 340.92 L 313.57 340.22 L 313.72 340.22 L 313.78 339.68 L 314.00 339.65 L 314.79 339.14 L 315.11 338.90 L 315.16 338.76 L 315.22 338.76 L 315.27 338.58 L 315.37 337.97 L 315.69 337.91 L 315.74 337.91 L 315.94 337.51 L 316.01 337.51 L 316.04 337.29 L 316.11 337.14 L 316.16 337.14 L 316.21 336.82 L 316.46 336.63 L 316.56 336.32 L 316.70 336.31 L 316.80 336.14 L 316.84 335.90 L 317.09 335.77 L 317.16 335.63 L 317.20 335.63 L 317.27 335.62 L 317.30 335.38 L 317.34 335.39 L 317.35 335.38 L 317.48 335.30 L 317.52 335.03 L 317.64 335.02 L 317.73 334.96 L 317.99 334.94 L 318.30 334.91 L 318.31 334.91 L 318.40 334.89 L 318.69 334.89 L 318.83 334.89 L 318.96 334.89 L 319.11 334.84 L 319.21 334.52 L 319.61 334.52 L 319.65 334.33 L 319.69 334.32 L 319.73 334.10 L 319.99 334.03 L 320.04 333.97 L 320.23 333.97 L 337.68 333.92 L 338.67 333.83 L 338.70 333.83 L 338.90 333.82 L 338.92 333.83 L 339.04 333.44 L 339.14 333.43 L 339.22 333.32 L 339.35 333.26 L 339.38 333.23 L 339.43 333.21 L 339.61 333.17 L 339.99 333.10 L 340.23 332.58 L 340.50 332.55 L 340.51 332.52 L 340.55 332.09 L 340.59 332.09 L 341.11 332.09 L 341.12 332.04 L 341.20 331.65 L 341.42 331.59 L 341.56 331.58 L 341.59 331.57 L 341.60 331.53 L 341.67 331.50 L 341.71 331.09 L 341.73 331.08 L 341.85 331.08 L 341.86 331.05 L 342.14 331.01 L 342.88 330.99 L 343.06 330.96 L 343.11 330.94 L 343.15 330.82 L 343.19 330.82 L 343.30 330.36 L 355.23 330.21 L 355.25 330.08 L 355.35 329.99 L 355.38 329.98 L 355.44 329.59 L 355.58 329.49 L 355.59 329.47 L 355.81 329.46 L 355.86 329.46 L 355.90 329.07 L 356.09 329.03 L 356.61 329.01 L 356.62 328.99 L 356.75 328.78 L 356.80 328.78 L 356.83 328.42 L 357.26 328.42 L 357.27 328.40 L 357.93 328.31 L 358.00 327.88 L 358.24 327.88 L 358.51 327.88 L 358.58 327.56 L 358.62 327.32 L 358.74 327.31 L 359.08 327.26 L 359.14 327.24 L 359.29 327.14 L 359.45 327.14 L 359.95 327.14 L 360.01 327.14 L 360.13 327.12 L 360.14 327.12 L 360.30 327.12 L 360.68 327.09 L 361.07 327.04 L 361.13 327.04 L 361.21 327.00 L 361.32 326.88 L 361.62 326.88 L 362.13 326.74 L 362.29 326.50 L 362.57 326.47 L 363.66 326.21 L 363.90 326.21 L 364.08 326.21 L 364.35 326.20 L 364.44 326.18 L 364.71 326.05 L 365.14 326.03 L 365.20 325.91 L 365.28 325.86 L 365.33 325.87 L 365.37 325.83 L 365.71 325.81 L 373.62 325.80 L 373.69 325.80 L 374.18 325.80 L 374.23 325.79 L 374.34 325.43 L 374.43 325.41 L 374.45 325.41 L 374.72 325.40 L 374.78 325.38 L 376.40 324.85 L 376.59 324.80 L 376.73 324.79 L 376.76 324.78 L 377.27 324.77 L 377.44 324.85 L 377.47 324.84 L 377.74 324.81 L 378.03 324.30 L 378.07 324.29 L 378.32 324.28 L 378.42 324.28 L 378.51 324.28 L 378.71 324.18 L 379.15 323.72 L 379.24 323.72 L 379.32 323.65 L 379.50 323.24 L 379.93 322.78 L 380.32 322.81 L 380.40 322.57 L 380.79 322.57 L 380.86 322.54 L 380.93 322.51 L 380.97 322.27 L 381.10 322.26 L 381.14 322.26 L 381.20 322.26 L 381.42 322.26 L 381.77 322.07 L 381.98 322.05 L 382.23 322.05 L 382.34 322.05 L 382.58 322.05 L 382.98 322.05 L 383.38 322.05 L 383.68 322.05 L 383.75 322.04 L 383.83 322.04 L 383.83 321.95 L 384.06 321.89 L 384.13 321.89 L 384.23 321.88 L 384.87 321.87 L 384.88 321.64 L 385.06 321.64 L 385.82 321.64 L 386.32 321.63 L 386.69 321.59 L 386.70 321.49 L 386.73 321.49 L 397.80 321.33 L 397.84 321.32 L 397.97 321.31 L 398.03 321.17 L 398.07 321.17 L 398.07 321.16 L 398.54 321.11 L 398.65 320.63 L 398.79 320.53 L 399.03 319.58 L 399.18 319.57 L 399.37 319.16 L 399.47 319.21 L 399.53 319.21 L 399.58 318.69 L 399.72 318.60 L 399.74 318.24 L 399.79 318.19 L 399.90 318.16 L 399.98 317.98 L 400.08 320.11 L 400.22 320.07 L 400.49 319.22 L 400.61 319.03 L 400.71 318.84 L 401.39 318.50 L 401.98 318.14 L 402.68 317.64 L 402.86 317.59 L 403.05 317.59 L 403.27 317.54 L 407.34 317.29 L 407.68 317.27 L 446.25 316.60 L 567.72 316.58 L 568.13 316.28 L 568.41 316.23 L 568.68 316.23 L 569.11 315.96 L 569.25 315.65 L 569.36 315.06 L 569.55 314.91 L 569.84 314.96 L 570.06 314.62 L 570.11 314.62 L 570.30 314.51 L 570.34 314.51 L 570.54 313.94 L 570.72 313.07 L 571.27 312.98 L 571.29 312.89 L 571.45 311.77 L 571.97 311.73 L 571.98 311.62 L 572.09 311.55 L 572.21 310.53 L 572.78 310.48 L 572.79 310.33 L 572.91 310.26 L 573.04 309.59 L 573.26 309.57 L 573.27 309.46 L 573.36 308.35 L 573.38 308.32 L 573.43 308.29 L 573.67 308.29 L 573.70 308.17 L 573.78 308.09 L 574.04 307.99 L 574.09 307.98 L 574.29 307.92 L 574.63 307.97 L 574.68 307.91 L 574.72 307.89 L 574.78 307.85 L 574.95 306.70 L 575.13 306.67 L 575.16 306.58 L 575.26 305.39 L 575.36 304.96 L 575.39 304.81 L 575.49 304.23 L 575.54 303.23 L 575.75 303.21 L 575.78 303.16 L 575.89 302.95 L 576.03 302.95 L 576.90 302.92 L 577.34 302.89 L 586.83 302.94 L 586.92 302.71 L 587.02 302.54 L 587.18 301.74 L 587.53 301.73 L 587.56 301.65 L 587.63 300.64 L 587.86 300.63 L 587.88 300.53 L 589.95 300.43 L 590.08 300.07 L 591.12 299.89 L 591.24 299.85 L 591.36 298.73 L 592.62 298.41 L 593.15 298.14 L 593.29 297.30 L 593.74 297.30 L 594.02 296.83 L 594.49 296.10 L 595.32 295.66 L 608.02 295.66 L 608.78 295.65 L 608.81 295.65 L 609.88 295.49 L 609.93 295.39 L 610.30 295.33 L 610.74 294.39 L 610.74 294.39 L 610.78 294.35 L 611.35 294.15 L 612.65 293.52 L 612.74 293.46 L 612.87 293.45 L 613.07 293.19 L 613.13 293.15 L 613.20 293.10 L 613.81 293.09 L 614.30 293.09 L 614.56 293.09 L 614.60 293.05 L 615.14 292.09 L 615.56 292.01 L 615.57 291.93 L 615.62 291.85 L 615.68 291.61 L 629.46 291.43 L 629.49 291.41 L 629.53 291.39 L 629.80 291.27 L 630.01 291.15 L 631.22 290.62 L 631.52 290.50 L 632.40 290.09 L 633.15 290.03 L 633.71 289.86 L 633.86 288.46 L 634.56 288.22 L 634.82 288.15 L 634.91 287.13 L 636.95 286.16 L 636.97 286.16 L 637.08 285.70 L 637.47 285.66 L 637.47 285.66 L 637.50 285.55 L 637.57 285.42 L 637.74 285.32 L 637.96 284.63 L 640.08 284.26 L 640.35 284.11 L 640.54 283.72 L 640.57 283.69 L 640.61 283.44 L 650.00 282.55"/>
	</g>
	<g class="poloto_legend poloto_imgs poloto_line poloto0 poloto_stroke"><line x1="680" x2="730" y1="81.25" y2="81.25"/></g>
	<g class="poloto_legend poloto_imgs poloto_line poloto1 poloto_stroke"><line x1="680" x2="730" y1="131.25" y2="131.25"/></g>
	<g class="poloto_legend poloto_imgs poloto_line poloto2 poloto_stroke"><line x1="680" x2="730" y1="181.25" y2="181.25"/></g>
	<text class="poloto_legend poloto_text poloto_line poloto0" x="675" y="100">total</text>
	<text class="poloto_legend poloto_text poloto_line poloto1" x="675" y="150">code</text>
	<text class="poloto_legend poloto_text poloto_line poloto2" x="675" y="200">docs</text>
	<text class="poloto_text poloto_name poloto_title" x="400.00" y="37.50">Workspace lines over time</text>
	<text class="poloto_text poloto_name poloto_x" x="400.00" y="640">date (JST)</text>
	<text class="poloto_text poloto_name poloto_y" x="37.50" y="250.00" transform="rotate(-90,37.50,250.00)">lines</text>
	<text class="poloto_text poloto_ticks poloto_y">
		<tspan x="135.00" y="400.00">0</tspan>
		<tspan x="135.00" y="316.89">50K</tspan>
		<tspan x="135.00" y="233.78">100K</tspan>
		<tspan x="135.00" y="150.67">150K</tspan>
	</text>
	<g class="poloto_imgs poloto_ticks poloto_y" stroke="black">
		<line x1="150.00" x2="144.00" y1="400.00" y2="400.00"/>
		<line x1="150.00" x2="144.00" y1="316.89" y2="316.89"/>
		<line x1="150.00" x2="144.00" y1="233.78" y2="233.78"/>
		<line x1="150.00" x2="144.00" y1="150.67" y2="150.67"/>
	</g>
	<g class="poloto_text poloto_ticks poloto_x">
		<text x="229.41" y="430.00" text-anchor="end" transform="rotate(-90 229.41 430.00)">2026-04-24 12:06</text>
		<text x="351.64" y="430.00" text-anchor="end" transform="rotate(-90 351.64 430.00)">2026-04-30 07:00</text>
		<text x="473.87" y="430.00" text-anchor="end" transform="rotate(-90 473.87 430.00)">2026-05-06 01:53</text>
		<text x="596.10" y="430.00" text-anchor="end" transform="rotate(-90 596.10 430.00)">2026-05-11 20:46</text>
	</g>
	<g class="poloto_imgs poloto_ticks poloto_x" stroke="black">
		<line x1="229.41" x2="229.41" y1="400.00" y2="405.00"/>
		<line x1="351.64" x2="351.64" y1="400.00" y2="405.00"/>
		<line x1="473.87" x2="473.87" y1="400.00" y2="405.00"/>
		<line x1="596.10" x2="596.10" y1="400.00" y2="405.00"/>
	</g>
	<path class="poloto_imgs poloto_ticks poloto_x" stroke="black" style="stroke-dasharray:12.22316965368338;stroke-dashoffset:-79.40733272832585;" d=" M 150.00 400.00 L 650.00 400.00"/>
	<path class="poloto_imgs poloto_ticks poloto_y" stroke="black" style="stroke-dasharray:8.31089391975001;stroke-dashoffset:-0;" d=" M 150.00 400.00 L 150.00 100.00"/>
</svg>

