<svg class="poloto" width="800" height="680" viewBox="0 0 800 680" xmlns="http://www.w3.org/2000/svg">
	<style>
.poloto{
  stroke-linecap:round;
  stroke-linejoin:round;
  font-family:Roboto,sans-serif;
  font-size:16px;
}
.poloto_background{fill:AliceBlue;}
.poloto_scatter{stroke-width:7}
.poloto_line{stroke-width:2}
.poloto_text{fill: black;}
.poloto_name{font-size:24px;dominant-baseline:auto;text-anchor:middle;}
.poloto_where{dominant-baseline:middle;text-anchor:start}
.poloto_text.poloto_legend{font-size:20px;dominant-baseline:middle;text-anchor:start;}
.poloto_text.poloto_ticks.poloto_y{dominant-baseline:middle;text-anchor:end}
.poloto_text.poloto_ticks.poloto_x{dominant-baseline:auto;text-anchor:middle}
.poloto_imgs.poloto_ticks{stroke: black;stroke-width:3;fill:none;stroke-dasharray:none}
.poloto_grid{stroke:gray;stroke-width:0.5}

.poloto0.poloto_stroke{stroke:blue;}
.poloto1.poloto_stroke{stroke:red;}
.poloto2.poloto_stroke{stroke:green;}
.poloto3.poloto_stroke{stroke:gold;}
.poloto4.poloto_stroke{stroke:aqua;}
.poloto5.poloto_stroke{stroke:lime;}
.poloto6.poloto_stroke{stroke:orange;}
.poloto7.poloto_stroke{stroke:chocolate;}
.poloto0.poloto_fill{fill:blue;}
.poloto1.poloto_fill{fill:red;}
.poloto2.poloto_fill{fill:green;}
.poloto3.poloto_fill{fill:gold;}
.poloto4.poloto_fill{fill:aqua;}
.poloto5.poloto_fill{fill:lime;}
.poloto6.poloto_fill{fill:orange;}
.poloto7.poloto_fill{fill:chocolate;}
	</style>
	<circle r="1e5" class="poloto_background" fill="white"/>
	<g id="poloto_plot0" class="poloto_plot poloto_imgs poloto_line poloto0 poloto_stroke" fill="none" stroke="black">
		<path d=" M 150.00 369.39 L 150.03 369.36 L 150.04 369.35 L 150.05 369.35 L 150.08 369.35 L 150.11 366.02 L 150.23 365.62 L 150.51 365.61 L 150.93 365.33 L 151.14 363.64 L 151.56 363.54 L 151.64 363.45 L 151.69 363.41 L 152.19 362.59 L 153.11 361.92 L 153.41 359.31 L 153.48 359.31 L 154.04 359.21 L 154.68 359.20 L 154.69 359.20 L 154.69 359.20 L 163.39 359.20 L 163.45 359.19 L 163.56 359.17 L 163.61 359.14 L 163.94 358.99 L 164.09 358.95 L 164.46 358.71 L 164.51 358.61 L 164.62 358.37 L 164.73 358.33 L 164.76 358.33 L 164.85 358.27 L 164.95 358.27 L 165.04 358.27 L 165.28 357.89 L 165.50 357.65 L 165.54 357.65 L 165.64 357.50 L 166.33 358.10 L 166.34 358.10 L 166.43 358.00 L 166.83 357.56 L 167.14 357.02 L 167.50 356.79 L 167.57 356.75 L 167.58 356.75 L 167.65 356.54 L 167.79 356.54 L 167.96 356.47 L 168.30 356.27 L 168.32 355.96 L 168.38 355.96 L 168.47 355.79 L 168.66 355.79 L 168.68 355.79 L 168.89 355.35 L 168.97 355.32 L 169.04 355.29 L 169.12 355.11 L 170.18 354.87 L 170.44 354.82 L 171.03 354.50 L 171.15 354.51 L 171.24 354.49 L 171.29 354.26 L 171.70 352.95 L 171.88 352.92 L 172.09 352.48 L 172.19 352.44 L 172.44 352.07 L 172.54 351.94 L 172.69 351.70 L 172.82 351.50 L 173.29 348.46 L 173.30 348.38 L 173.33 348.20 L 173.49 346.74 L 181.55 346.63 L 182.39 344.97 L 182.42 344.93 L 183.40 344.67 L 183.49 344.66 L 183.58 344.33 L 183.82 344.17 L 183.93 343.88 L 183.97 343.63 L 184.09 343.20 L 184.38 343.19 L 184.39 342.90 L 184.50 342.57 L 184.61 342.56 L 184.74 342.20 L 184.89 341.94 L 184.96 341.80 L 184.98 341.80 L 185.12 341.51 L 185.14 341.51 L 185.29 341.22 L 185.32 341.21 L 185.55 339.84 L 185.59 339.84 L 185.67 339.61 L 185.77 339.60 L 185.90 339.60 L 185.96 339.57 L 186.41 339.31 L 186.42 339.32 L 186.51 338.71 L 186.71 338.70 L 186.89 337.78 L 186.94 337.70 L 187.03 337.70 L 187.07 337.66 L 187.17 336.95 L 187.68 330.99 L 187.74 330.70 L 187.91 330.68 L 187.96 330.60 L 188.00 330.58 L 188.08 330.43 L 188.16 329.75 L 188.34 329.61 L 188.47 329.60 L 188.57 329.30 L 188.62 329.29 L 189.08 329.07 L 189.33 328.90 L 189.40 328.63 L 189.61 328.62 L 189.63 328.62 L 189.65 328.60 L 189.79 327.16 L 189.90 327.08 L 190.27 325.63 L 190.33 325.21 L 190.40 325.20 L 190.50 325.05 L 190.51 324.94 L 190.55 324.87 L 190.59 324.83 L 190.64 324.82 L 190.69 324.75 L 190.84 323.57 L 190.95 323.39 L 191.06 323.05 L 191.20 323.02 L 191.36 322.91 L 191.53 322.08 L 191.64 320.91 L 191.88 320.85 L 191.88 320.42 L 192.02 320.27 L 203.28 320.28 L 203.49 320.26 L 204.03 319.65 L 204.14 319.63 L 204.22 319.63 L 204.24 319.48 L 204.43 319.29 L 204.57 319.26 L 204.64 319.15 L 204.72 319.07 L 204.77 319.02 L 204.97 318.97 L 205.38 318.89 L 205.48 318.58 L 205.56 318.50 L 205.65 318.49 L 206.17 318.33 L 206.25 318.24 L 206.28 318.24 L 206.32 318.12 L 206.43 318.07 L 206.52 317.95 L 206.90 317.17 L 207.44 317.05 L 207.64 317.00 L 208.24 316.80 L 208.53 313.06 L 208.63 312.98 L 208.75 312.61 L 208.93 312.12 L 209.20 311.98 L 209.58 311.96 L 210.09 311.95 L 210.17 311.79 L 210.54 311.61 L 210.78 311.34 L 210.86 311.23 L 211.01 311.19 L 211.12 310.86 L 212.45 310.49 L 213.72 310.49 L 225.05 310.46 L 225.13 310.29 L 225.19 310.19 L 225.55 310.03 L 226.60 308.73 L 226.65 308.65 L 226.80 308.32 L 227.32 308.23 L 227.57 307.36 L 227.94 307.35 L 228.03 307.34 L 228.11 306.74 L 228.77 303.33 L 228.85 303.32 L 228.98 303.29 L 229.13 303.25 L 229.20 302.88 L 229.56 301.60 L 229.70 301.36 L 229.76 301.34 L 229.84 300.74 L 230.00 299.91 L 230.07 299.02 L 230.24 298.63 L 230.73 294.19 L 230.77 293.75 L 230.82 293.75 L 230.90 293.67 L 231.02 293.55 L 231.07 293.51 L 231.11 293.46 L 231.35 292.40 L 231.41 291.65 L 231.69 291.50 L 231.86 290.39 L 231.97 289.68 L 232.85 279.35 L 232.95 279.32 L 266.26 278.83 L 266.30 278.83 L 279.03 278.69 L 279.72 278.41 L 279.86 278.41 L 280.05 278.33 L 280.11 278.20 L 280.19 278.16 L 285.71 278.09 L 286.44 276.12 L 286.71 275.94 L 286.85 275.22 L 290.29 275.08 L 290.31 274.88 L 290.53 274.86 L 291.55 273.62 L 291.61 273.39 L 291.74 273.32 L 292.10 273.23 L 292.15 273.20 L 292.30 272.83 L 292.45 272.72 L 292.48 272.45 L 303.17 272.07 L 303.26 271.01 L 303.68 270.78 L 303.69 269.00 L 303.76 268.74 L 303.85 268.31 L 303.97 267.08 L 304.15 266.44 L 304.30 265.68 L 304.44 265.67 L 304.50 265.09 L 304.71 265.04 L 305.45 262.19 L 305.75 261.88 L 305.80 261.70 L 305.87 261.70 L 305.90 261.50 L 306.01 260.80 L 306.31 260.46 L 306.35 260.42 L 306.54 257.91 L 306.61 257.90 L 306.64 257.63 L 306.70 257.42 L 306.75 257.42 L 306.79 257.04 L 307.03 255.68 L 307.13 255.30 L 307.26 255.25 L 307.35 251.62 L 307.39 251.32 L 307.62 249.25 L 307.69 249.09 L 307.73 249.08 L 307.79 249.08 L 307.83 248.78 L 307.86 248.79 L 307.87 248.79 L 307.99 245.12 L 308.03 244.80 L 308.15 244.78 L 308.23 244.72 L 308.47 244.61 L 308.77 244.48 L 308.78 244.48 L 308.86 244.43 L 309.13 244.36 L 309.26 244.36 L 309.39 244.36 L 309.53 242.76 L 309.62 242.38 L 310.00 242.37 L 310.04 242.12 L 310.08 242.12 L 310.11 241.85 L 310.36 239.53 L 310.40 239.48 L 310.58 239.46 L 327.05 239.40 L 327.98 239.28 L 328.01 239.28 L 328.20 239.28 L 328.21 239.28 L 328.33 238.82 L 328.43 238.80 L 328.50 238.57 L 328.62 238.52 L 328.65 238.48 L 328.70 238.46 L 328.87 238.21 L 329.23 237.98 L 329.45 237.23 L 329.71 236.53 L 329.72 236.49 L 329.76 235.83 L 329.79 235.80 L 330.28 235.41 L 330.29 235.37 L 330.37 234.84 L 330.58 234.79 L 330.71 234.74 L 330.74 233.80 L 330.75 233.75 L 330.81 234.64 L 330.85 234.09 L 330.87 234.07 L 330.99 232.82 L 330.99 232.79 L 331.25 232.68 L 331.96 232.66 L 332.12 232.62 L 332.17 232.61 L 332.21 232.45 L 332.25 232.45 L 332.35 231.83 L 343.60 230.63 L 343.62 230.47 L 343.71 230.35 L 343.74 230.12 L 343.81 219.66 L 343.93 215.38 L 343.94 215.35 L 344.15 215.27 L 344.20 215.27 L 344.24 214.78 L 344.42 214.73 L 344.90 213.72 L 344.92 213.70 L 345.04 213.38 L 345.09 213.39 L 345.11 212.89 L 345.52 212.29 L 345.53 212.27 L 346.15 212.04 L 346.22 211.51 L 346.44 211.51 L 346.69 210.16 L 346.76 209.63 L 346.80 209.20 L 346.92 208.68 L 347.24 208.50 L 347.30 208.37 L 347.43 208.25 L 347.59 208.25 L 348.06 208.25 L 348.11 208.25 L 348.22 208.23 L 348.23 208.22 L 348.39 208.24 L 348.74 208.21 L 349.11 208.02 L 349.17 208.01 L 349.25 207.94 L 349.35 207.79 L 349.63 207.79 L 350.11 207.60 L 350.27 207.19 L 350.52 203.58 L 351.56 206.63 L 351.78 206.62 L 351.95 206.60 L 352.21 206.60 L 352.29 206.54 L 352.55 206.37 L 352.96 206.12 L 353.01 205.95 L 353.09 205.88 L 353.14 205.90 L 353.17 205.85 L 353.49 205.62 L 360.95 205.62 L 361.02 205.62 L 361.48 205.61 L 361.53 205.59 L 361.63 205.14 L 361.72 204.88 L 361.73 204.87 L 361.99 204.84 L 362.05 204.81 L 363.58 204.13 L 363.76 204.08 L 363.89 204.06 L 363.92 204.06 L 364.39 203.90 L 364.55 203.98 L 364.58 203.97 L 364.84 203.93 L 365.12 202.50 L 365.15 202.49 L 365.38 202.33 L 365.48 202.33 L 365.56 202.33 L 365.76 202.17 L 366.17 201.60 L 366.25 201.58 L 366.33 201.42 L 366.50 200.74 L 366.91 200.03 L 367.27 196.71 L 367.35 196.31 L 367.72 196.15 L 367.78 196.06 L 367.84 195.90 L 367.88 195.37 L 368.01 194.42 L 368.04 194.46 L 368.10 194.44 L 368.31 194.43 L 368.64 194.08 L 368.84 194.01 L 369.07 194.00 L 369.18 193.99 L 369.40 193.98 L 369.78 193.98 L 370.16 193.97 L 370.44 193.96 L 370.51 193.95 L 370.58 193.94 L 370.58 193.83 L 370.80 193.76 L 370.87 193.75 L 370.96 193.60 L 371.57 193.58 L 371.58 193.29 L 371.75 193.28 L 372.46 193.29 L 372.93 193.11 L 373.28 192.90 L 373.29 192.79 L 373.32 192.78 L 383.76 192.59 L 383.80 192.58 L 383.92 192.57 L 383.98 192.40 L 384.01 192.38 L 384.02 192.38 L 384.46 192.33 L 384.56 191.73 L 384.70 191.60 L 384.92 190.41 L 385.06 190.40 L 385.24 189.90 L 385.34 189.96 L 385.39 189.95 L 385.44 189.38 L 385.57 188.99 L 385.59 188.57 L 385.64 188.51 L 385.75 188.48 L 385.82 188.28 L 385.92 190.54 L 386.04 190.50 L 386.30 189.60 L 386.41 189.38 L 386.51 189.19 L 387.15 187.89 L 387.70 187.27 L 388.36 186.07 L 388.53 186.01 L 388.72 186.01 L 388.92 185.96 L 392.76 185.62 L 393.08 185.59 L 429.47 184.68 L 544.06 184.46 L 544.44 184.10 L 544.70 184.05 L 544.97 184.05 L 545.37 183.35 L 545.50 183.01 L 545.60 182.38 L 545.79 180.55 L 546.05 180.93 L 546.26 180.53 L 546.32 180.53 L 546.49 180.41 L 546.53 180.41 L 546.72 179.74 L 546.89 178.68 L 547.41 177.54 L 547.42 177.45 L 547.57 176.10 L 548.07 172.75 L 548.08 172.63 L 548.17 172.56 L 548.29 171.36 L 548.83 169.76 L 548.84 169.61 L 548.96 169.53 L 549.08 168.74 L 549.28 168.11 L 549.29 167.99 L 549.38 166.76 L 549.39 166.74 L 549.44 166.39 L 549.67 164.21 L 549.69 164.09 L 549.77 163.96 L 550.02 163.67 L 550.06 163.66 L 550.26 163.25 L 550.58 163.30 L 550.62 163.24 L 550.66 163.21 L 550.72 163.18 L 550.88 161.90 L 551.05 160.86 L 551.07 160.77 L 551.17 159.46 L 551.27 158.19 L 551.29 158.03 L 551.39 156.53 L 551.44 155.36 L 551.63 154.57 L 551.66 154.51 L 551.76 154.27 L 551.90 154.25 L 552.72 154.21 L 553.13 154.18 L 562.08 154.23 L 562.17 154.00 L 562.26 153.80 L 562.41 152.93 L 562.75 152.70 L 562.77 152.61 L 562.84 151.45 L 563.05 150.33 L 563.07 150.23 L 565.03 150.16 L 565.15 149.52 L 566.13 149.33 L 566.24 149.29 L 566.36 147.98 L 567.54 146.75 L 568.05 146.28 L 568.18 145.33 L 568.60 143.68 L 568.87 143.21 L 569.31 142.24 L 570.09 141.75 L 582.07 141.74 L 582.79 141.63 L 582.82 141.65 L 583.83 141.46 L 583.88 141.37 L 584.23 141.29 L 584.64 140.22 L 584.64 140.22 L 584.68 140.18 L 585.22 138.95 L 586.45 138.26 L 586.53 138.19 L 586.65 138.18 L 586.84 137.86 L 586.89 137.77 L 586.96 137.71 L 587.53 137.67 L 588.00 137.67 L 588.24 137.67 L 588.28 137.62 L 588.79 136.55 L 589.18 136.35 L 589.20 136.27 L 589.25 136.18 L 589.30 135.89 L 602.30 135.48 L 602.33 135.46 L 602.37 135.44 L 602.62 135.32 L 602.82 135.19 L 603.96 133.55 L 604.25 133.35 L 605.07 132.86 L 605.78 132.74 L 606.31 132.58 L 606.45 131.06 L 607.11 129.29 L 607.36 129.16 L 607.44 128.01 L 609.37 125.90 L 609.38 125.90 L 609.49 125.39 L 609.85 125.33 L 609.86 125.33 L 609.88 125.20 L 609.95 125.04 L 610.11 124.87 L 610.32 123.99 L 612.32 121.85 L 612.57 121.60 L 612.75 121.22 L 612.78 121.17 L 612.82 120.87 L 621.68 119.91 L 621.96 119.17 L 622.13 119.14 L 622.19 118.66 L 623.03 118.43 L 623.20 117.94 L 623.36 117.94 L 623.45 116.92 L 623.73 114.32 L 623.78 114.28 L 624.15 114.24 L 624.23 113.39 L 624.55 112.37 L 624.62 111.66 L 624.88 111.01 L 625.08 110.67 L 625.23 109.89 L 625.56 109.23 L 625.60 108.49 L 626.02 108.32 L 626.06 108.32 L 626.13 107.37 L 626.22 107.37 L 626.26 107.30 L 626.76 105.53 L 627.47 104.95 L 627.83 105.14 L 629.00 105.06 L 629.03 105.05 L 629.21 105.03 L 629.29 105.01 L 629.42 104.89 L 629.57 104.79 L 629.72 104.60 L 630.07 104.34 L 630.41 104.33 L 631.46 104.15 L 631.51 104.14 L 632.55 103.97 L 633.01 103.86 L 641.96 103.84 L 642.41 103.71 L 642.64 103.63 L 642.74 103.63 L 642.76 103.63 L 642.99 103.60 L 643.09 103.55 L 643.36 103.38 L 643.52 103.35 L 644.10 103.16 L 644.40 102.77 L 644.91 102.71 L 645.05 102.46 L 645.22 102.29 L 645.44 102.09 L 646.21 102.15 L 646.29 102.13 L 647.42 101.64 L 647.59 101.35 L 647.82 101.25 L 648.37 101.02 L 648.62 101.08 L 648.75 101.47 L 648.86 101.44 L 649.01 101.28 L 649.49 100.12 L 650.00 100.00"/>
	</g>
	<g id="poloto_plot1" class="poloto_plot poloto_imgs poloto_line poloto1 poloto_stroke" fill="none" stroke="black">
		<path d=" M 150.00 381.81 L 150.03 381.79 L 150.04 381.78 L 150.05 381.78 L 150.08 381.78 L 150.11 381.21 L 150.23 381.19 L 150.51 381.18 L 150.93 380.96 L 151.14 380.86 L 151.56 380.89 L 151.64 380.84 L 151.69 380.84 L 152.19 380.80 L 153.11 380.69 L 153.41 378.44 L 153.48 378.44 L 154.04 378.39 L 154.68 378.38 L 154.69 378.38 L 154.69 378.38 L 163.39 378.38 L 163.45 378.38 L 163.56 378.38 L 163.61 378.35 L 163.94 378.34 L 164.09 378.34 L 164.46 378.34 L 164.51 378.34 L 164.62 378.32 L 164.73 378.32 L 164.76 378.32 L 164.85 378.29 L 164.95 378.29 L 165.04 378.29 L 165.28 378.17 L 165.50 378.17 L 165.54 378.17 L 165.64 378.17 L 166.33 379.01 L 166.34 379.01 L 166.43 379.00 L 166.83 378.87 L 167.14 378.73 L 167.50 378.67 L 167.57 378.63 L 167.58 378.63 L 167.65 378.63 L 167.79 378.63 L 167.96 378.57 L 168.30 378.52 L 168.32 378.52 L 168.38 378.52 L 168.47 378.50 L 168.66 378.50 L 168.68 378.50 L 168.89 378.49 L 168.97 378.49 L 169.04 378.49 L 169.12 378.49 L 170.18 378.39 L 170.44 378.39 L 171.03 378.34 L 171.15 378.34 L 171.24 378.34 L 171.29 378.34 L 171.70 378.27 L 171.88 378.27 L 172.09 378.19 L 172.19 378.18 L 172.44 378.00 L 172.54 377.93 L 172.69 377.93 L 172.82 377.93 L 173.29 375.30 L 173.30 375.26 L 173.33 375.26 L 173.49 375.00 L 181.55 375.00 L 182.39 373.87 L 182.42 373.87 L 183.40 373.87 L 183.49 373.87 L 183.58 373.75 L 183.82 373.73 L 183.93 373.73 L 183.97 373.73 L 184.09 373.73 L 184.38 373.73 L 184.39 373.48 L 184.50 373.48 L 184.61 373.48 L 184.74 373.45 L 184.89 373.44 L 184.96 373.44 L 184.98 373.44 L 185.12 373.44 L 185.14 373.44 L 185.29 373.44 L 185.32 373.44 L 185.55 372.33 L 185.59 372.33 L 185.67 372.19 L 185.77 372.19 L 185.90 372.19 L 185.96 372.18 L 186.41 372.18 L 186.42 372.18 L 186.51 372.11 L 186.71 372.11 L 186.89 371.47 L 186.94 371.39 L 187.03 371.39 L 187.07 371.39 L 187.17 371.37 L 187.68 366.68 L 187.74 366.72 L 187.91 366.72 L 187.96 366.72 L 188.00 366.71 L 188.08 366.71 L 188.16 366.64 L 188.34 366.64 L 188.47 366.64 L 188.57 366.64 L 188.62 366.64 L 189.08 366.63 L 189.33 366.62 L 189.40 366.51 L 189.61 366.51 L 189.63 366.51 L 189.65 366.51 L 189.79 366.19 L 189.90 366.11 L 190.27 364.99 L 190.33 364.99 L 190.40 364.99 L 190.50 365.01 L 190.51 365.01 L 190.55 365.01 L 190.59 365.01 L 190.64 365.01 L 190.69 365.01 L 190.84 364.99 L 190.95 364.99 L 191.06 364.97 L 191.20 364.97 L 191.36 364.97 L 191.53 364.55 L 191.64 364.41 L 191.88 364.41 L 191.88 364.41 L 192.02 364.41 L 203.28 364.41 L 203.49 364.40 L 204.03 364.33 L 204.14 364.32 L 204.22 364.32 L 204.24 364.32 L 204.43 364.32 L 204.57 364.32 L 204.64 364.32 L 204.72 364.32 L 204.77 364.31 L 204.97 364.31 L 205.38 364.33 L 205.48 364.33 L 205.56 364.33 L 205.65 364.33 L 206.17 364.24 L 206.25 364.20 L 206.28 364.20 L 206.32 364.14 L 206.43 364.14 L 206.52 364.14 L 206.90 363.71 L 207.44 363.71 L 207.64 363.71 L 208.24 363.71 L 208.53 360.83 L 208.63 360.83 L 208.75 360.83 L 208.93 360.83 L 209.20 360.83 L 209.58 360.83 L 210.09 360.83 L 210.17 360.83 L 210.54 360.76 L 210.78 360.64 L 210.86 360.64 L 211.01 360.64 L 211.12 360.62 L 212.45 360.44 L 213.72 360.44 L 225.05 360.44 L 225.13 360.44 L 225.19 360.44 L 225.55 360.44 L 226.60 359.53 L 226.65 359.50 L 226.80 359.41 L 227.32 359.40 L 227.57 359.19 L 227.94 359.19 L 228.03 359.19 L 228.11 359.19 L 228.77 356.66 L 228.85 356.66 L 228.98 356.66 L 229.13 356.66 L 229.20 356.50 L 229.56 356.20 L 229.70 356.20 L 229.76 356.20 L 229.84 355.73 L 230.00 355.27 L 230.07 355.27 L 230.24 355.26 L 230.73 351.50 L 230.77 351.50 L 230.82 351.50 L 230.90 351.50 L 231.02 351.50 L 231.07 351.50 L 231.11 351.50 L 231.35 351.50 L 231.41 351.42 L 231.69 351.40 L 231.86 351.35 L 231.97 350.90 L 232.85 343.41 L 232.95 343.41 L 266.26 343.41 L 266.30 343.41 L 279.03 343.41 L 279.72 343.30 L 279.86 343.30 L 280.05 343.30 L 280.11 343.30 L 280.19 343.30 L 285.71 343.24 L 286.44 343.17 L 286.71 343.17 L 286.85 343.15 L 290.29 343.08 L 290.31 342.98 L 290.53 342.98 L 291.55 341.97 L 291.61 341.97 L 291.74 341.97 L 292.10 341.97 L 292.15 341.97 L 292.30 341.97 L 292.45 341.97 L 292.48 341.97 L 303.17 341.95 L 303.26 341.77 L 303.68 341.77 L 303.69 340.55 L 303.76 340.55 L 303.85 340.55 L 303.97 340.44 L 304.15 340.44 L 304.30 340.38 L 304.44 340.38 L 304.50 340.38 L 304.71 340.37 L 305.45 338.29 L 305.75 338.29 L 305.80 338.28 L 305.87 338.28 L 305.90 338.28 L 306.01 338.25 L 306.31 337.99 L 306.35 337.95 L 306.54 336.09 L 306.61 336.08 L 306.64 336.08 L 306.70 336.05 L 306.75 336.05 L 306.79 336.05 L 307.03 335.03 L 307.13 335.02 L 307.26 335.00 L 307.35 331.84 L 307.39 331.84 L 307.62 330.06 L 307.69 330.06 L 307.73 330.06 L 307.79 330.06 L 307.83 330.06 L 307.86 330.06 L 307.87 330.06 L 307.99 326.77 L 308.03 326.77 L 308.15 326.76 L 308.23 326.76 L 308.47 326.69 L 308.77 326.60 L 308.78 326.60 L 308.86 326.58 L 309.13 326.53 L 309.26 326.53 L 309.39 326.53 L 309.53 325.11 L 309.62 325.11 L 310.00 325.10 L 310.04 325.10 L 310.08 325.10 L 310.11 325.10 L 310.36 323.08 L 310.40 323.08 L 310.58 323.06 L 327.05 323.06 L 327.98 323.05 L 328.01 323.05 L 328.20 323.05 L 328.21 323.05 L 328.33 323.05 L 328.43 323.05 L 328.50 322.95 L 328.62 322.95 L 328.65 322.95 L 328.70 322.95 L 328.87 322.76 L 329.23 322.65 L 329.45 322.53 L 329.71 321.96 L 329.72 321.96 L 329.76 321.81 L 329.79 321.80 L 330.28 321.45 L 330.29 321.45 L 330.37 321.40 L 330.58 321.40 L 330.71 321.36 L 330.74 320.52 L 330.75 320.52 L 330.81 321.35 L 330.85 321.30 L 330.87 321.29 L 330.99 320.17 L 330.99 320.17 L 331.25 320.12 L 331.96 320.12 L 332.12 320.12 L 332.17 320.12 L 332.21 320.12 L 332.25 320.12 L 332.35 320.05 L 343.60 319.11 L 343.62 319.11 L 343.71 319.11 L 343.74 318.90 L 343.81 308.92 L 343.93 305.20 L 343.94 305.20 L 344.15 305.13 L 344.20 305.13 L 344.24 305.11 L 344.42 305.11 L 344.90 304.21 L 344.92 304.21 L 345.04 304.16 L 345.09 304.16 L 345.11 304.08 L 345.52 303.54 L 345.53 303.54 L 346.15 303.43 L 346.22 303.39 L 346.44 303.40 L 346.69 302.17 L 346.76 302.05 L 346.80 301.94 L 346.92 301.48 L 347.24 301.36 L 347.30 301.26 L 347.43 301.26 L 347.59 301.26 L 348.06 301.26 L 348.11 301.26 L 348.22 301.26 L 348.23 301.26 L 348.39 301.28 L 348.74 301.28 L 349.11 301.15 L 349.17 301.15 L 349.25 301.13 L 349.35 301.13 L 349.63 301.13 L 350.11 301.13 L 350.27 301.02 L 350.52 297.80 L 351.56 300.84 L 351.78 300.83 L 351.95 300.82 L 352.21 300.82 L 352.29 300.79 L 352.55 300.77 L 352.96 300.58 L 353.01 300.58 L 353.09 300.58 L 353.14 300.58 L 353.17 300.58 L 353.49 300.40 L 360.95 300.40 L 361.02 300.41 L 361.48 300.39 L 361.53 300.39 L 361.63 300.36 L 361.72 300.14 L 361.73 300.14 L 361.99 300.11 L 362.05 300.11 L 363.58 299.93 L 363.76 299.93 L 363.89 299.93 L 363.92 299.93 L 364.39 299.80 L 364.55 299.80 L 364.58 299.80 L 364.84 299.79 L 365.12 299.03 L 365.15 299.03 L 365.38 298.90 L 365.48 298.90 L 365.56 298.90 L 365.76 298.90 L 366.17 298.89 L 366.25 298.87 L 366.33 298.79 L 366.50 298.67 L 366.91 298.55 L 367.27 295.51 L 367.35 295.40 L 367.72 295.26 L 367.78 295.22 L 367.84 295.12 L 367.88 294.90 L 368.01 293.99 L 368.04 294.03 L 368.10 294.01 L 368.31 294.01 L 368.64 293.88 L 368.84 293.84 L 369.07 293.82 L 369.18 293.81 L 369.40 293.80 L 369.78 293.80 L 370.16 293.79 L 370.44 293.79 L 370.51 293.78 L 370.58 293.78 L 370.58 293.78 L 370.80 293.78 L 370.87 293.76 L 370.96 293.65 L 371.57 293.64 L 371.58 293.64 L 371.75 293.62 L 372.46 293.62 L 372.93 293.47 L 373.28 293.34 L 373.29 293.34 L 373.32 293.34 L 383.76 293.34 L 383.80 293.34 L 383.92 293.34 L 383.98 293.34 L 384.01 293.32 L 384.02 293.32 L 384.46 293.32 L 384.56 293.31 L 384.70 293.29 L 384.92 293.27 L 385.06 293.27 L 385.24 293.20 L 385.34 293.20 L 385.39 293.20 L 385.44 293.20 L 385.57 292.92 L 385.59 292.92 L 385.64 292.92 L 385.75 292.92 L 385.82 292.92 L 385.92 292.99 L 386.04 292.99 L 386.30 292.97 L 386.41 292.97 L 386.51 292.97 L 387.15 292.08 L 387.70 291.84 L 388.36 291.20 L 388.53 291.20 L 388.72 291.20 L 388.92 291.20 L 392.76 291.12 L 393.08 291.12 L 429.47 291.01 L 544.06 290.84 L 544.44 290.79 L 544.70 290.78 L 544.97 290.78 L 545.37 290.37 L 545.50 290.37 L 545.60 290.37 L 545.79 288.87 L 546.05 289.16 L 546.26 289.14 L 546.32 289.14 L 546.49 289.12 L 546.53 289.12 L 546.72 289.12 L 546.89 289.05 L 547.41 288.10 L 547.42 288.10 L 547.57 288.02 L 548.07 284.95 L 548.08 284.95 L 548.17 284.95 L 548.29 284.90 L 548.83 283.48 L 548.84 283.48 L 548.96 283.48 L 549.08 283.44 L 549.28 282.92 L 549.29 282.92 L 549.38 282.91 L 549.39 282.91 L 549.44 282.63 L 549.67 280.60 L 549.69 280.60 L 549.77 280.60 L 550.02 280.43 L 550.06 280.43 L 550.26 280.09 L 550.58 280.09 L 550.62 280.09 L 550.66 280.09 L 550.72 280.09 L 550.88 280.08 L 551.05 279.17 L 551.07 279.17 L 551.17 279.17 L 551.27 278.47 L 551.29 278.47 L 551.39 277.74 L 551.44 277.69 L 551.63 276.97 L 551.66 276.97 L 551.76 276.97 L 551.90 276.95 L 552.72 276.95 L 553.13 276.95 L 562.08 276.95 L 562.17 276.95 L 562.26 276.95 L 562.41 276.95 L 562.75 276.76 L 562.77 276.76 L 562.84 276.70 L 563.05 275.68 L 563.07 275.68 L 565.03 275.70 L 565.15 275.50 L 566.13 275.50 L 566.24 275.50 L 566.36 275.42 L 567.54 274.59 L 568.05 274.43 L 568.18 274.37 L 568.60 272.79 L 568.87 272.79 L 569.31 272.66 L 570.09 272.66 L 582.07 272.65 L 582.79 272.56 L 582.82 272.58 L 583.83 272.58 L 583.88 272.58 L 584.23 272.58 L 584.64 272.55 L 584.64 272.55 L 584.68 272.55 L 585.22 271.62 L 586.45 271.60 L 586.53 271.60 L 586.65 271.59 L 586.84 271.56 L 586.89 271.53 L 586.96 271.53 L 587.53 271.48 L 588.00 271.48 L 588.24 271.48 L 588.28 271.48 L 588.79 271.46 L 589.18 271.36 L 589.20 271.36 L 589.25 271.36 L 589.30 271.36 L 602.30 271.14 L 602.33 271.14 L 602.37 271.14 L 602.62 271.14 L 602.82 271.14 L 603.96 270.22 L 604.25 270.17 L 605.07 270.10 L 605.78 270.05 L 606.31 270.05 L 606.45 270.05 L 607.11 268.67 L 607.36 268.63 L 607.44 268.58 L 609.37 267.61 L 609.38 267.61 L 609.49 267.60 L 609.85 267.59 L 609.86 267.59 L 609.88 267.59 L 609.95 267.56 L 610.11 267.52 L 610.32 267.41 L 612.32 265.81 L 612.57 265.73 L 612.75 265.73 L 612.78 265.73 L 612.82 265.73 L 621.68 265.73 L 621.96 265.72 L 622.13 265.72 L 622.19 265.72 L 623.03 265.72 L 623.20 265.72 L 623.36 265.72 L 623.45 265.69 L 623.73 263.59 L 623.78 263.57 L 624.15 263.59 L 624.23 263.57 L 624.55 262.75 L 624.62 262.71 L 624.88 262.18 L 625.08 262.18 L 625.23 262.13 L 625.56 261.65 L 625.60 261.64 L 626.02 260.08 L 626.06 260.08 L 626.13 260.07 L 626.22 260.07 L 626.26 260.07 L 626.76 258.51 L 627.47 258.37 L 627.83 258.37 L 629.00 258.33 L 629.03 258.33 L 629.21 258.33 L 629.29 258.33 L 629.42 258.33 L 629.57 258.33 L 629.72 258.31 L 630.07 258.29 L 630.41 258.29 L 631.46 258.22 L 631.51 258.22 L 632.55 258.18 L 633.01 258.13 L 641.96 258.15 L 642.41 258.07 L 642.64 257.99 L 642.74 257.99 L 642.76 257.99 L 642.99 257.98 L 643.09 257.98 L 643.36 257.98 L 643.52 257.98 L 644.10 257.84 L 644.40 257.55 L 644.91 257.53 L 645.05 257.35 L 645.22 257.26 L 645.44 257.17 L 646.21 257.26 L 646.29 257.26 L 647.42 256.97 L 647.59 256.97 L 647.82 256.97 L 648.37 256.94 L 648.62 257.08 L 648.75 257.08 L 648.86 257.08 L 649.01 257.08 L 649.49 256.40 L 650.00 256.39"/>
	</g>
	<g id="poloto_plot2" class="poloto_plot poloto_imgs poloto_line poloto2 poloto_stroke" fill="none" stroke="black">
		<path d=" M 150.00 391.84 L 150.03 391.83 L 150.04 391.83 L 150.05 391.83 L 150.08 391.83 L 150.11 389.74 L 150.23 389.46 L 150.51 389.45 L 150.93 389.44 L 151.14 388.19 L 151.56 388.08 L 151.64 388.04 L 151.69 388.01 L 152.19 387.45 L 153.11 387.01 L 153.41 386.93 L 153.48 386.93 L 154.04 386.90 L 154.68 386.90 L 154.69 386.90 L 154.69 386.90 L 163.39 386.90 L 163.45 386.89 L 163.56 386.88 L 163.61 386.88 L 163.94 386.75 L 164.09 386.72 L 164.46 386.51 L 164.51 386.42 L 164.62 386.24 L 164.73 386.21 L 164.76 386.21 L 164.85 386.18 L 164.95 386.18 L 165.04 386.18 L 165.28 385.97 L 165.50 385.78 L 165.54 385.78 L 165.64 385.67 L 166.33 385.41 L 166.34 385.41 L 166.43 385.33 L 166.83 385.06 L 167.14 384.71 L 167.50 384.58 L 167.57 384.58 L 167.58 384.58 L 167.65 384.39 L 167.79 384.39 L 167.96 384.36 L 168.30 384.22 L 168.32 383.98 L 168.38 383.98 L 168.47 383.86 L 168.66 383.86 L 168.68 383.86 L 168.89 383.49 L 168.97 383.47 L 169.04 383.44 L 169.12 383.27 L 170.18 383.17 L 170.44 383.13 L 171.03 382.88 L 171.15 382.88 L 171.24 382.86 L 171.29 382.67 L 171.70 381.65 L 171.88 381.64 L 172.09 381.33 L 172.19 381.30 L 172.44 381.16 L 172.54 381.12 L 172.69 380.90 L 172.82 380.72 L 173.29 380.72 L 173.30 380.69 L 173.33 380.55 L 173.49 379.56 L 181.55 379.46 L 182.39 379.16 L 182.42 379.12 L 183.40 378.88 L 183.49 378.87 L 183.58 378.69 L 183.82 378.57 L 183.93 378.34 L 183.97 378.15 L 184.09 377.79 L 184.38 377.78 L 184.39 377.78 L 184.50 377.52 L 184.61 377.52 L 184.74 377.25 L 184.89 377.04 L 184.96 376.92 L 184.98 376.92 L 185.12 376.67 L 185.14 376.67 L 185.29 376.44 L 185.32 376.43 L 185.55 376.35 L 185.59 376.35 L 185.67 376.27 L 185.77 376.25 L 185.90 376.25 L 185.96 376.24 L 186.41 376.02 L 186.42 376.02 L 186.51 375.58 L 186.71 375.56 L 186.89 375.43 L 186.94 375.43 L 187.03 375.42 L 187.07 375.39 L 187.17 374.78 L 187.68 374.26 L 187.74 373.98 L 187.91 373.96 L 187.96 373.89 L 188.00 373.88 L 188.08 373.75 L 188.16 373.26 L 188.34 373.19 L 188.47 373.18 L 188.57 372.93 L 188.62 372.93 L 189.08 372.75 L 189.33 372.62 L 189.40 372.51 L 189.61 372.50 L 189.63 372.50 L 189.65 372.47 L 189.79 371.60 L 189.90 371.59 L 190.27 371.47 L 190.33 371.12 L 190.40 371.11 L 190.50 370.97 L 190.51 370.89 L 190.55 370.83 L 190.59 370.79 L 190.64 370.79 L 190.69 370.72 L 190.84 369.74 L 190.95 369.64 L 191.06 369.35 L 191.20 369.33 L 191.36 369.23 L 191.53 368.92 L 191.64 368.07 L 191.88 368.01 L 191.88 367.64 L 192.02 367.55 L 203.28 367.56 L 203.49 367.55 L 204.03 367.15 L 204.14 367.15 L 204.22 367.15 L 204.24 367.05 L 204.43 366.88 L 204.57 366.84 L 204.64 366.74 L 204.72 366.67 L 204.77 366.63 L 204.97 366.57 L 205.38 366.66 L 205.48 366.39 L 205.56 366.31 L 205.65 366.31 L 206.17 366.25 L 206.25 366.21 L 206.28 366.21 L 206.32 366.16 L 206.43 366.11 L 206.52 366.01 L 206.90 365.76 L 207.44 365.65 L 207.64 365.60 L 208.24 365.44 L 208.53 365.04 L 208.63 364.98 L 208.75 364.67 L 208.93 364.26 L 209.20 364.16 L 209.58 364.15 L 210.09 364.13 L 210.17 363.99 L 210.54 363.89 L 210.78 363.76 L 210.86 363.66 L 211.01 363.62 L 211.12 363.35 L 212.45 363.22 L 213.72 363.22 L 225.05 363.19 L 225.13 363.05 L 225.19 362.95 L 225.55 362.80 L 226.60 362.54 L 226.65 362.50 L 226.80 362.31 L 227.32 362.24 L 227.57 361.72 L 227.94 361.71 L 228.03 361.69 L 228.11 361.18 L 228.77 360.71 L 228.85 360.70 L 228.98 360.67 L 229.13 360.63 L 229.20 360.46 L 229.56 359.67 L 229.70 359.46 L 229.76 359.45 L 229.84 359.36 L 230.00 359.06 L 230.07 358.26 L 230.24 357.94 L 230.73 357.75 L 230.77 357.35 L 230.82 357.35 L 230.90 357.28 L 231.02 357.17 L 231.07 357.14 L 231.11 357.11 L 231.35 356.18 L 231.41 355.64 L 231.69 355.54 L 231.86 354.62 L 231.97 354.44 L 232.85 352.99 L 232.95 352.97 L 266.26 352.54 L 266.30 352.54 L 279.03 352.42 L 279.72 352.27 L 279.86 352.27 L 280.05 352.19 L 280.11 352.08 L 280.19 352.05 L 285.71 352.04 L 286.44 350.38 L 286.71 350.23 L 286.85 349.66 L 290.29 349.59 L 290.31 349.53 L 290.53 349.52 L 291.55 349.42 L 291.61 349.23 L 291.74 349.16 L 292.10 349.07 L 292.15 349.05 L 292.30 348.73 L 292.45 348.63 L 292.48 348.38 L 303.17 348.07 L 303.26 347.32 L 303.68 347.12 L 303.69 346.83 L 303.76 346.60 L 303.85 346.26 L 303.97 345.34 L 304.15 344.84 L 304.30 344.19 L 304.44 344.19 L 304.50 343.69 L 304.71 343.65 L 305.45 343.18 L 305.75 342.96 L 305.80 342.82 L 305.87 342.82 L 305.90 342.65 L 306.01 342.09 L 306.31 342.03 L 306.35 342.03 L 306.54 341.66 L 306.61 341.66 L 306.64 341.45 L 306.70 341.31 L 306.75 341.31 L 306.79 341.01 L 307.03 340.84 L 307.13 340.54 L 307.26 340.53 L 307.35 340.38 L 307.39 340.15 L 307.62 340.03 L 307.69 339.90 L 307.73 339.90 L 307.79 339.90 L 307.83 339.67 L 307.86 339.68 L 307.87 339.67 L 307.99 339.59 L 308.03 339.34 L 308.15 339.34 L 308.23 339.27 L 308.47 339.25 L 308.77 339.23 L 308.78 339.23 L 308.86 339.21 L 309.13 339.21 L 309.26 339.21 L 309.39 339.21 L 309.53 339.17 L 309.62 338.86 L 310.00 338.86 L 310.04 338.68 L 310.08 338.68 L 310.11 338.48 L 310.36 338.41 L 310.40 338.36 L 310.58 338.36 L 327.05 338.30 L 327.98 338.22 L 328.01 338.22 L 328.20 338.22 L 328.21 338.22 L 328.33 337.86 L 328.43 337.85 L 328.50 337.75 L 328.62 337.69 L 328.65 337.66 L 328.70 337.64 L 328.87 337.61 L 329.23 337.54 L 329.45 337.06 L 329.71 337.03 L 329.72 337.00 L 329.76 336.60 L 329.79 336.59 L 330.28 336.59 L 330.29 336.55 L 330.37 336.18 L 330.58 336.13 L 330.71 336.12 L 330.74 336.11 L 330.75 336.07 L 330.81 336.04 L 330.85 335.66 L 330.87 335.65 L 330.99 335.65 L 330.99 335.62 L 331.25 335.58 L 331.96 335.57 L 332.12 335.54 L 332.17 335.53 L 332.21 335.41 L 332.25 335.41 L 332.35 334.98 L 343.60 334.84 L 343.62 334.72 L 343.71 334.64 L 343.74 334.62 L 343.81 334.26 L 343.93 334.17 L 343.94 334.15 L 344.15 334.14 L 344.20 334.14 L 344.24 333.78 L 344.42 333.74 L 344.90 333.72 L 344.92 333.70 L 345.04 333.50 L 345.09 333.51 L 345.11 333.17 L 345.52 333.17 L 345.53 333.15 L 346.15 333.07 L 346.22 332.67 L 346.44 332.67 L 346.69 332.67 L 346.76 332.37 L 346.80 332.14 L 346.92 332.13 L 347.24 332.08 L 347.30 332.07 L 347.43 331.97 L 347.59 331.97 L 348.06 331.97 L 348.11 331.97 L 348.22 331.95 L 348.23 331.95 L 348.39 331.95 L 348.74 331.93 L 349.11 331.88 L 349.17 331.88 L 349.25 331.84 L 349.35 331.73 L 349.63 331.73 L 350.11 331.60 L 350.27 331.38 L 350.52 331.35 L 351.56 331.11 L 351.78 331.11 L 351.95 331.10 L 352.21 331.10 L 352.29 331.08 L 352.55 330.96 L 352.96 330.94 L 353.01 330.83 L 353.09 330.78 L 353.14 330.79 L 353.17 330.75 L 353.49 330.73 L 360.95 330.72 L 361.02 330.72 L 361.48 330.72 L 361.53 330.71 L 361.63 330.37 L 361.72 330.36 L 361.73 330.36 L 361.99 330.35 L 362.05 330.33 L 363.58 329.84 L 363.76 329.79 L 363.89 329.78 L 363.92 329.77 L 364.39 329.76 L 364.55 329.83 L 364.58 329.83 L 364.84 329.80 L 365.12 329.33 L 365.15 329.32 L 365.38 329.30 L 365.48 329.30 L 365.56 329.30 L 365.76 329.21 L 366.17 328.78 L 366.25 328.78 L 366.33 328.72 L 366.50 328.33 L 366.91 327.90 L 367.27 327.93 L 367.35 327.70 L 367.72 327.70 L 367.78 327.68 L 367.84 327.65 L 367.88 327.43 L 368.01 327.42 L 368.04 327.42 L 368.10 327.42 L 368.31 327.42 L 368.64 327.24 L 368.84 327.22 L 369.07 327.22 L 369.18 327.22 L 369.40 327.22 L 369.78 327.22 L 370.16 327.22 L 370.44 327.22 L 370.51 327.22 L 370.58 327.21 L 370.58 327.13 L 370.80 327.07 L 370.87 327.07 L 370.96 327.06 L 371.57 327.06 L 371.58 326.84 L 371.75 326.84 L 372.46 326.84 L 372.93 326.84 L 373.28 326.79 L 373.29 326.70 L 373.32 326.70 L 383.76 326.55 L 383.80 326.54 L 383.92 326.54 L 383.98 326.40 L 384.01 326.40 L 384.02 326.39 L 384.46 326.35 L 384.56 325.90 L 384.70 325.80 L 384.92 324.92 L 385.06 324.91 L 385.24 324.53 L 385.34 324.57 L 385.39 324.57 L 385.44 324.09 L 385.57 324.00 L 385.59 323.67 L 385.64 323.62 L 385.75 323.59 L 385.82 323.42 L 385.92 325.41 L 386.04 325.38 L 386.30 324.58 L 386.41 324.40 L 386.51 324.22 L 387.15 323.91 L 387.70 323.57 L 388.36 323.11 L 388.53 323.06 L 388.72 323.06 L 388.92 323.01 L 392.76 322.78 L 393.08 322.76 L 429.47 322.14 L 544.06 322.11 L 544.44 321.83 L 544.70 321.79 L 544.97 321.79 L 545.37 321.54 L 545.50 321.24 L 545.60 320.70 L 545.79 320.55 L 546.05 320.60 L 546.26 320.29 L 546.32 320.28 L 546.49 320.18 L 546.53 320.18 L 546.72 319.65 L 546.89 318.84 L 547.41 318.76 L 547.42 318.67 L 547.57 317.62 L 548.07 317.59 L 548.08 317.48 L 548.17 317.42 L 548.29 316.47 L 548.83 316.42 L 548.84 316.28 L 548.96 316.22 L 549.08 315.59 L 549.28 315.57 L 549.29 315.47 L 549.38 314.43 L 549.39 314.40 L 549.44 314.37 L 549.67 314.37 L 549.69 314.26 L 549.77 314.19 L 550.02 314.09 L 550.06 314.09 L 550.26 314.03 L 550.58 314.07 L 550.62 314.02 L 550.66 314.00 L 550.72 313.97 L 550.88 312.89 L 551.05 312.87 L 551.07 312.78 L 551.17 311.67 L 551.27 311.27 L 551.29 311.12 L 551.39 310.59 L 551.44 309.65 L 551.63 309.64 L 551.66 309.58 L 551.76 309.39 L 551.90 309.39 L 552.72 309.36 L 553.13 309.33 L 562.08 309.38 L 562.17 309.17 L 562.26 309.01 L 562.41 308.26 L 562.75 308.25 L 562.77 308.18 L 562.84 307.23 L 563.05 307.22 L 563.07 307.13 L 565.03 307.04 L 565.15 306.70 L 566.13 306.53 L 566.24 306.50 L 566.36 305.45 L 567.54 305.15 L 568.05 304.90 L 568.18 304.11 L 568.60 304.11 L 568.87 303.67 L 569.31 303.00 L 570.09 302.59 L 582.07 302.58 L 582.79 302.57 L 582.82 302.57 L 583.83 302.42 L 583.88 302.34 L 584.23 302.27 L 584.64 301.39 L 584.64 301.39 L 584.68 301.36 L 585.22 301.17 L 586.45 300.59 L 586.53 300.53 L 586.65 300.52 L 586.84 300.27 L 586.89 300.24 L 586.96 300.19 L 587.53 300.19 L 588.00 300.19 L 588.24 300.19 L 588.28 300.15 L 588.79 299.26 L 589.18 299.17 L 589.20 299.10 L 589.25 299.02 L 589.30 298.80 L 602.30 298.63 L 602.33 298.61 L 602.37 298.60 L 602.62 298.49 L 602.82 298.38 L 603.96 297.87 L 604.25 297.77 L 605.07 297.39 L 605.78 297.33 L 606.31 297.17 L 606.45 295.86 L 607.11 295.64 L 607.36 295.57 L 607.44 294.62 L 609.37 293.71 L 609.38 293.71 L 609.49 293.29 L 609.85 293.25 L 609.86 293.25 L 609.88 293.14 L 609.95 293.03 L 610.11 292.93 L 610.32 292.28 L 612.32 291.94 L 612.57 291.80 L 612.75 291.44 L 612.78 291.40 L 612.82 291.17 L 621.68 290.35 L 621.96 289.75 L 622.13 289.73 L 622.19 289.33 L 623.03 289.16 L 623.20 288.73 L 623.36 288.73 L 623.45 287.85 L 623.73 287.64 L 623.78 287.61 L 624.15 287.56 L 624.23 286.84 L 624.55 286.75 L 624.62 286.18 L 624.88 286.12 L 625.08 285.79 L 625.23 285.15 L 625.56 285.03 L 625.60 284.37 L 626.02 285.84 L 626.06 285.84 L 626.13 285.01 L 626.22 285.01 L 626.26 284.94 L 626.76 284.86 L 627.47 284.52 L 627.83 284.69 L 629.00 284.67 L 629.03 284.66 L 629.21 284.65 L 629.29 284.63 L 629.42 284.52 L 629.57 284.41 L 629.72 284.26 L 630.07 284.05 L 630.41 284.03 L 631.46 283.93 L 631.51 283.93 L 632.55 283.81 L 633.01 283.75 L 641.96 283.72 L 642.41 283.67 L 642.64 283.67 L 642.74 283.67 L 642.76 283.67 L 642.99 283.65 L 643.09 283.62 L 643.36 283.47 L 643.52 283.45 L 644.10 283.44 L 644.40 283.36 L 644.91 283.32 L 645.05 283.29 L 645.22 283.22 L 645.44 283.12 L 646.21 283.09 L 646.29 283.07 L 647.42 282.91 L 647.59 282.65 L 647.82 282.56 L 648.37 282.40 L 648.62 282.32 L 648.75 282.68 L 648.86 282.67 L 649.01 282.53 L 649.49 282.19 L 650.00 282.10"/>
	</g>
	<g class="poloto_legend poloto_imgs poloto_line poloto0 poloto_stroke"><line x1="680" x2="730" y1="81.25" y2="81.25"/></g>
	<g class="poloto_legend poloto_imgs poloto_line poloto1 poloto_stroke"><line x1="680" x2="730" y1="131.25" y2="131.25"/></g>
	<g class="poloto_legend poloto_imgs poloto_line poloto2 poloto_stroke"><line x1="680" x2="730" y1="181.25" y2="181.25"/></g>
	<text class="poloto_legend poloto_text poloto_line poloto0" x="675" y="100">total</text>
	<text class="poloto_legend poloto_text poloto_line poloto1" x="675" y="150">code</text>
	<text class="poloto_legend poloto_text poloto_line poloto2" x="675" y="200">docs</text>
	<text class="poloto_text poloto_name poloto_title" x="400.00" y="37.50">Workspace lines over time</text>
	<text class="poloto_text poloto_name poloto_x" x="400.00" y="640">date (JST)</text>
	<text class="poloto_text poloto_name poloto_y" x="37.50" y="250.00" transform="rotate(-90,37.50,250.00)">lines</text>
	<text class="poloto_text poloto_ticks poloto_y">
		<tspan x="135.00" y="400.00">0</tspan>
		<tspan x="135.00" y="322.41">50K</tspan>
		<tspan x="135.00" y="244.81">100K</tspan>
		<tspan x="135.00" y="167.22">150K</tspan>
	</text>
	<g class="poloto_imgs poloto_ticks poloto_y" stroke="black">
		<line x1="150.00" x2="144.00" y1="400.00" y2="400.00"/>
		<line x1="150.00" x2="144.00" y1="322.41" y2="322.41"/>
		<line x1="150.00" x2="144.00" y1="244.81" y2="244.81"/>
		<line x1="150.00" x2="144.00" y1="167.22" y2="167.22"/>
	</g>
	<g class="poloto_text poloto_ticks poloto_x">
		<text x="224.91" y="430.00" text-anchor="end" transform="rotate(-90 224.91 430.00)">2026-04-24 12:06</text>
		<text x="340.22" y="430.00" text-anchor="end" transform="rotate(-90 340.22 430.00)">2026-04-30 07:00</text>
		<text x="455.52" y="430.00" text-anchor="end" transform="rotate(-90 455.52 430.00)">2026-05-06 01:53</text>
		<text x="570.83" y="430.00" text-anchor="end" transform="rotate(-90 570.83 430.00)">2026-05-11 20:46</text>
	</g>
	<g class="poloto_imgs poloto_ticks poloto_x" stroke="black">
		<line x1="224.91" x2="224.91" y1="400.00" y2="405.00"/>
		<line x1="340.22" x2="340.22" y1="400.00" y2="405.00"/>
		<line x1="455.52" x2="455.52" y1="400.00" y2="405.00"/>
		<line x1="570.83" x2="570.83" y1="400.00" y2="405.00"/>
	</g>
	<path class="poloto_imgs poloto_ticks poloto_x" stroke="black" style="stroke-dasharray:11.530748354792824;stroke-dashoffset:-74.90904545702506;" d=" M 150.00 400.00 L 650.00 400.00"/>
	<path class="poloto_imgs poloto_ticks poloto_y" stroke="black" style="stroke-dasharray:7.759396629318104;stroke-dashoffset:-0;" d=" M 150.00 400.00 L 150.00 100.00"/>
</svg>

