<svg class="poloto" width="800" height="680" viewBox="0 0 800 680" xmlns="http://www.w3.org/2000/svg">
	<style>
.poloto{
  stroke-linecap:round;
  stroke-linejoin:round;
  font-family:Roboto,sans-serif;
  font-size:16px;
}
.poloto_background{fill:AliceBlue;}
.poloto_scatter{stroke-width:7}
.poloto_line{stroke-width:2}
.poloto_text{fill: black;}
.poloto_name{font-size:24px;dominant-baseline:auto;text-anchor:middle;}
.poloto_where{dominant-baseline:middle;text-anchor:start}
.poloto_text.poloto_legend{font-size:20px;dominant-baseline:middle;text-anchor:start;}
.poloto_text.poloto_ticks.poloto_y{dominant-baseline:middle;text-anchor:end}
.poloto_text.poloto_ticks.poloto_x{dominant-baseline:auto;text-anchor:middle}
.poloto_imgs.poloto_ticks{stroke: black;stroke-width:3;fill:none;stroke-dasharray:none}
.poloto_grid{stroke:gray;stroke-width:0.5}

.poloto0.poloto_stroke{stroke:blue;}
.poloto1.poloto_stroke{stroke:red;}
.poloto2.poloto_stroke{stroke:green;}
.poloto3.poloto_stroke{stroke:gold;}
.poloto4.poloto_stroke{stroke:aqua;}
.poloto5.poloto_stroke{stroke:lime;}
.poloto6.poloto_stroke{stroke:orange;}
.poloto7.poloto_stroke{stroke:chocolate;}
.poloto0.poloto_fill{fill:blue;}
.poloto1.poloto_fill{fill:red;}
.poloto2.poloto_fill{fill:green;}
.poloto3.poloto_fill{fill:gold;}
.poloto4.poloto_fill{fill:aqua;}
.poloto5.poloto_fill{fill:lime;}
.poloto6.poloto_fill{fill:orange;}
.poloto7.poloto_fill{fill:chocolate;}
	</style>
	<circle r="1e5" class="poloto_background" fill="white"/>
	<g id="poloto_plot0" class="poloto_plot poloto_imgs poloto_line poloto0 poloto_stroke" fill="none" stroke="black">
		<path d=" M 150.00 364.98 L 150.03 364.95 L 150.05 364.93 L 150.06 364.93 L 150.09 364.93 L 150.13 361.13 L 150.27 360.67 L 150.59 360.65 L 151.06 360.34 L 151.31 358.41 L 151.79 358.29 L 151.88 358.19 L 151.94 358.14 L 152.50 357.20 L 153.56 356.43 L 153.90 353.45 L 153.98 353.45 L 154.62 353.33 L 155.36 353.32 L 155.37 353.32 L 155.37 353.32 L 165.32 353.32 L 165.39 353.32 L 165.52 353.29 L 165.58 353.26 L 165.96 353.08 L 166.13 353.04 L 166.55 352.76 L 166.61 352.64 L 166.73 352.37 L 166.85 352.33 L 166.89 352.33 L 167.00 352.26 L 167.11 352.26 L 167.21 352.26 L 167.49 351.82 L 167.73 351.54 L 167.78 351.55 L 167.90 351.38 L 168.69 352.07 L 168.71 352.07 L 168.81 351.95 L 169.26 351.44 L 169.62 350.83 L 170.03 350.56 L 170.11 350.52 L 170.12 350.52 L 170.20 350.28 L 170.36 350.28 L 170.56 350.20 L 170.95 349.97 L 170.97 349.61 L 171.04 349.61 L 171.13 349.43 L 171.36 349.43 L 171.38 349.43 L 171.62 348.92 L 171.71 348.89 L 171.79 348.85 L 171.88 348.64 L 173.09 348.37 L 173.39 348.31 L 174.06 347.95 L 174.21 347.95 L 174.31 347.94 L 174.37 347.68 L 174.83 346.17 L 175.04 346.14 L 175.28 345.63 L 175.40 345.59 L 175.68 345.17 L 175.80 345.02 L 175.97 344.75 L 176.12 344.51 L 176.66 341.03 L 176.67 340.95 L 176.70 340.74 L 176.88 339.07 L 186.11 338.95 L 187.07 337.04 L 187.10 337.00 L 188.23 336.70 L 188.33 336.69 L 188.43 336.31 L 188.70 336.13 L 188.83 335.80 L 188.88 335.51 L 189.02 335.02 L 189.35 335.01 L 189.36 334.67 L 189.49 334.30 L 189.61 334.29 L 189.75 333.87 L 189.94 333.57 L 190.01 333.42 L 190.03 333.42 L 190.19 333.09 L 190.21 333.08 L 190.39 332.76 L 190.42 332.75 L 190.68 331.18 L 190.73 331.18 L 190.82 330.91 L 190.93 330.90 L 191.08 330.90 L 191.15 330.87 L 191.67 330.57 L 191.68 330.58 L 191.78 329.88 L 192.01 329.87 L 192.22 328.82 L 192.28 328.73 L 192.38 328.72 L 192.43 328.68 L 192.54 327.87 L 193.12 321.05 L 193.19 320.72 L 193.38 320.69 L 193.44 320.61 L 193.49 320.58 L 193.58 320.41 L 193.67 319.63 L 193.88 319.47 L 194.02 319.45 L 194.14 319.11 L 194.20 319.10 L 194.73 318.85 L 195.01 318.66 L 195.09 318.35 L 195.34 318.34 L 195.36 318.34 L 195.38 318.31 L 195.53 316.67 L 195.66 316.57 L 196.09 314.92 L 196.16 314.44 L 196.24 314.43 L 196.35 314.25 L 196.36 314.12 L 196.41 314.04 L 196.45 314.00 L 196.52 313.99 L 196.57 313.91 L 196.74 312.56 L 196.87 312.36 L 196.99 311.96 L 197.15 311.93 L 197.34 311.81 L 197.52 310.85 L 197.66 309.52 L 197.93 309.45 L 197.93 308.95 L 198.09 308.79 L 210.98 308.79 L 211.22 308.78 L 211.83 308.08 L 211.95 308.06 L 212.06 308.06 L 212.08 307.88 L 212.30 307.67 L 212.45 307.63 L 212.54 307.50 L 212.63 307.41 L 212.68 307.36 L 212.91 307.29 L 213.38 307.21 L 213.49 306.85 L 213.58 306.76 L 213.69 306.75 L 214.29 306.56 L 214.37 306.46 L 214.41 306.46 L 214.45 306.32 L 214.58 306.26 L 214.68 306.13 L 215.12 305.24 L 215.74 305.10 L 215.96 305.04 L 216.65 304.82 L 216.98 300.53 L 217.10 300.44 L 217.24 300.02 L 217.44 299.46 L 217.75 299.30 L 218.19 299.28 L 218.77 299.27 L 218.86 299.08 L 219.29 298.88 L 219.56 298.57 L 219.65 298.45 L 219.82 298.40 L 219.95 298.02 L 221.47 297.59 L 222.92 297.59 L 235.89 297.56 L 235.99 297.37 L 236.05 297.25 L 236.46 297.07 L 237.67 295.59 L 237.72 295.49 L 237.89 295.11 L 238.49 295.01 L 238.77 294.01 L 239.20 294.00 L 239.30 293.99 L 239.39 293.30 L 240.15 289.40 L 240.24 289.40 L 240.39 289.36 L 240.56 289.31 L 240.64 288.89 L 241.06 287.42 L 241.21 287.15 L 241.28 287.13 L 241.37 286.45 L 241.56 285.49 L 241.64 284.47 L 241.83 284.02 L 242.39 278.95 L 242.44 278.44 L 242.50 278.44 L 242.58 278.35 L 242.72 278.22 L 242.78 278.17 L 242.83 278.12 L 243.10 276.90 L 243.16 276.04 L 243.49 275.87 L 243.69 274.60 L 243.81 273.79 L 244.82 261.97 L 244.93 261.94 L 283.06 261.37 L 283.10 261.37 L 297.67 261.21 L 298.46 260.89 L 298.62 260.89 L 298.84 260.80 L 298.91 260.65 L 298.99 260.61 L 305.31 260.53 L 306.15 258.28 L 306.45 258.07 L 306.62 257.25 L 310.55 257.08 L 310.58 256.85 L 310.83 256.83 L 312.00 255.41 L 312.07 255.16 L 312.22 255.07 L 312.63 254.97 L 312.68 254.93 L 312.85 254.51 L 313.03 254.39 L 313.06 254.07 L 325.30 253.64 L 325.39 252.43 L 325.88 252.16 L 325.89 250.13 L 325.97 249.83 L 326.07 249.34 L 326.21 247.94 L 326.42 247.20 L 326.59 246.33 L 326.75 246.32 L 326.81 245.66 L 327.06 245.60 L 327.91 242.33 L 328.25 241.98 L 328.31 241.78 L 328.38 241.77 L 328.42 241.55 L 328.54 240.74 L 328.89 240.36 L 328.94 240.31 L 329.15 237.44 L 329.23 237.43 L 329.26 237.12 L 329.34 236.88 L 329.39 236.88 L 329.44 236.45 L 329.71 234.89 L 329.82 234.45 L 329.97 234.40 L 330.08 230.24 L 330.12 229.90 L 330.39 227.53 L 330.46 227.35 L 330.51 227.34 L 330.58 227.34 L 330.62 227.00 L 330.66 227.01 L 330.68 227.01 L 330.81 222.81 L 330.86 222.45 L 330.99 222.42 L 331.09 222.35 L 331.36 222.23 L 331.70 222.07 L 331.71 222.07 L 331.80 222.02 L 332.12 221.94 L 332.27 221.94 L 332.42 221.94 L 332.58 220.11 L 332.68 219.67 L 333.11 219.67 L 333.15 219.38 L 333.21 219.37 L 333.24 219.06 L 333.52 216.42 L 333.57 216.35 L 333.78 216.34 L 352.62 216.26 L 353.69 216.13 L 353.73 216.13 L 353.94 216.12 L 353.96 216.13 L 354.09 215.60 L 354.20 215.58 L 354.29 215.32 L 354.42 215.25 L 354.46 215.22 L 354.51 215.20 L 354.71 214.90 L 355.12 214.64 L 355.38 213.79 L 355.66 212.98 L 355.68 212.94 L 355.72 212.18 L 355.76 212.15 L 356.32 211.70 L 356.33 211.65 L 356.42 211.05 L 356.66 210.99 L 356.82 210.93 L 356.85 209.86 L 356.86 209.80 L 356.93 210.82 L 356.97 210.20 L 356.99 210.17 L 357.13 208.74 L 357.14 208.70 L 357.44 208.58 L 358.24 208.56 L 358.43 208.51 L 358.49 208.50 L 358.53 208.31 L 358.58 208.31 L 358.69 207.60 L 371.57 206.23 L 371.59 206.04 L 371.70 205.91 L 371.73 205.65 L 371.80 193.68 L 371.94 188.79 L 371.96 188.76 L 372.20 188.66 L 372.25 188.66 L 372.29 188.10 L 372.50 188.04 L 373.06 186.88 L 373.07 186.86 L 373.21 186.50 L 373.27 186.51 L 373.30 185.93 L 373.76 185.25 L 373.78 185.23 L 374.48 184.96 L 374.57 184.35 L 374.82 184.36 L 375.11 182.82 L 375.18 182.21 L 375.23 181.72 L 375.36 181.12 L 375.73 180.91 L 375.79 180.76 L 375.95 180.63 L 376.13 180.63 L 376.67 180.63 L 376.73 180.63 L 376.86 180.60 L 376.87 180.60 L 377.04 180.62 L 377.45 180.59 L 377.87 180.36 L 377.93 180.36 L 378.03 180.27 L 378.15 180.10 L 378.47 180.10 L 379.02 179.89 L 379.19 179.41 L 379.49 175.29 L 380.67 178.77 L 380.93 178.76 L 381.12 178.74 L 381.42 178.74 L 381.51 178.67 L 381.81 178.47 L 382.27 178.19 L 382.33 178.00 L 382.42 177.92 L 382.48 177.94 L 382.52 177.88 L 382.89 177.62 L 391.42 177.62 L 391.50 177.62 L 392.03 177.61 L 392.09 177.59 L 392.20 177.06 L 392.30 176.77 L 392.32 176.77 L 392.61 176.72 L 392.68 176.70 L 394.43 175.92 L 394.63 175.85 L 394.79 175.84 L 394.82 175.83 L 395.36 175.65 L 395.55 175.74 L 395.58 175.73 L 395.87 175.68 L 396.19 174.05 L 396.23 174.04 L 396.49 173.86 L 396.60 173.86 L 396.70 173.86 L 396.92 173.68 L 397.40 173.01 L 397.49 172.99 L 397.58 172.81 L 397.77 172.03 L 398.24 171.22 L 398.66 167.43 L 398.74 166.97 L 399.17 166.78 L 399.24 166.69 L 399.31 166.50 L 399.36 165.89 L 399.50 164.80 L 399.54 164.85 L 399.61 164.82 L 399.85 164.82 L 400.22 164.42 L 400.45 164.34 L 400.72 164.33 L 400.84 164.31 L 401.10 164.30 L 401.53 164.30 L 401.96 164.29 L 402.28 164.28 L 402.36 164.27 L 402.44 164.26 L 402.45 164.13 L 402.70 164.05 L 402.77 164.04 L 402.87 163.87 L 403.57 163.85 L 403.58 163.52 L 403.78 163.50 L 404.59 163.51 L 405.14 163.31 L 405.53 163.07 L 405.54 162.94 L 405.58 162.93 L 417.53 162.71 L 417.57 162.70 L 417.71 162.69 L 417.77 162.50 L 417.82 162.48 L 417.82 162.47 L 418.33 162.42 L 418.45 161.73 L 418.60 161.57 L 418.85 160.22 L 419.02 160.21 L 419.22 159.63 L 419.34 159.70 L 419.39 159.70 L 419.45 159.04 L 419.60 158.59 L 419.62 158.11 L 419.67 158.05 L 419.80 158.01 L 419.89 157.78 L 419.99 160.37 L 420.14 160.32 L 420.43 159.29 L 420.56 159.03 L 420.68 158.82 L 421.41 157.34 L 422.04 156.62 L 422.79 155.25 L 422.99 155.19 L 423.20 155.19 L 423.43 155.13 L 427.83 154.74 L 428.19 154.70 L 469.84 153.66 L 600.98 153.42 L 601.42 153.00 L 601.72 152.94 L 602.02 152.94 L 602.48 152.14 L 602.63 151.75 L 602.75 151.03 L 602.96 148.94 L 603.26 149.37 L 603.50 148.92 L 603.56 148.91 L 603.76 148.77 L 603.81 148.78 L 604.03 148.01 L 604.22 146.79 L 604.81 145.50 L 604.83 145.39 L 605.00 143.84 L 605.57 140.01 L 605.58 139.88 L 605.69 139.80 L 605.83 138.43 L 606.44 136.59 L 606.45 136.42 L 606.58 136.33 L 606.72 135.42 L 606.95 134.71 L 606.97 134.57 L 607.07 133.17 L 607.09 133.13 L 607.14 132.74 L 607.40 130.25 L 607.43 130.11 L 607.52 129.96 L 607.80 129.63 L 607.85 129.62 L 608.07 129.14 L 608.44 129.20 L 608.49 129.13 L 608.54 129.10 L 608.60 129.07 L 608.79 127.60 L 608.98 126.41 L 609.01 126.30 L 609.12 124.81 L 609.23 123.35 L 609.25 123.17 L 609.37 121.46 L 609.42 120.12 L 609.65 119.22 L 609.68 119.15 L 609.79 118.87 L 609.95 118.85 L 610.89 118.81 L 611.36 118.77 L 621.61 118.82 L 621.71 118.56 L 621.81 118.34 L 621.99 117.34 L 622.37 117.07 L 622.40 116.98 L 622.47 115.65 L 622.72 114.36 L 622.74 114.25 L 624.98 114.16 L 625.11 113.44 L 626.24 113.22 L 626.37 113.17 L 626.50 111.68 L 627.86 110.27 L 628.44 109.73 L 628.58 108.64 L 629.07 106.76 L 629.37 106.22 L 629.88 105.11 L 630.78 104.55 L 644.49 104.54 L 645.31 104.41 L 645.34 104.44 L 646.49 104.22 L 646.55 104.11 L 646.95 104.02 L 647.42 102.80 L 647.42 102.80 L 647.47 102.75 L 648.08 101.35 L 649.49 100.55 L 649.58 100.48 L 649.73 100.47 L 649.94 100.10 L 650.00 100.00"/>
	</g>
	<g id="poloto_plot1" class="poloto_plot poloto_imgs poloto_line poloto1 poloto_stroke" fill="none" stroke="black">
		<path d=" M 150.00 379.19 L 150.03 379.17 L 150.05 379.16 L 150.06 379.16 L 150.09 379.16 L 150.13 378.50 L 150.27 378.48 L 150.59 378.47 L 151.06 378.22 L 151.31 378.11 L 151.79 378.13 L 151.88 378.08 L 151.94 378.08 L 152.50 378.03 L 153.56 377.91 L 153.90 375.34 L 153.98 375.34 L 154.62 375.28 L 155.36 375.27 L 155.37 375.27 L 155.37 375.27 L 165.32 375.27 L 165.39 375.27 L 165.52 375.26 L 165.58 375.23 L 165.96 375.21 L 166.13 375.21 L 166.55 375.21 L 166.61 375.21 L 166.73 375.20 L 166.85 375.20 L 166.89 375.20 L 167.00 375.17 L 167.11 375.17 L 167.21 375.17 L 167.49 375.02 L 167.73 375.02 L 167.78 375.02 L 167.90 375.02 L 168.69 375.99 L 168.71 375.99 L 168.81 375.98 L 169.26 375.83 L 169.62 375.67 L 170.03 375.60 L 170.11 375.55 L 170.12 375.55 L 170.20 375.55 L 170.36 375.55 L 170.56 375.49 L 170.95 375.43 L 170.97 375.43 L 171.04 375.43 L 171.13 375.41 L 171.36 375.41 L 171.38 375.41 L 171.62 375.40 L 171.71 375.40 L 171.79 375.40 L 171.88 375.40 L 173.09 375.28 L 173.39 375.27 L 174.06 375.22 L 174.21 375.22 L 174.31 375.22 L 174.37 375.22 L 174.83 375.14 L 175.04 375.14 L 175.28 375.05 L 175.40 375.04 L 175.68 374.83 L 175.80 374.76 L 175.97 374.76 L 176.12 374.75 L 176.66 371.75 L 176.67 371.69 L 176.70 371.69 L 176.88 371.40 L 186.11 371.40 L 187.07 370.11 L 187.10 370.11 L 188.23 370.11 L 188.33 370.10 L 188.43 369.97 L 188.70 369.95 L 188.83 369.95 L 188.88 369.95 L 189.02 369.95 L 189.35 369.95 L 189.36 369.66 L 189.49 369.65 L 189.61 369.65 L 189.75 369.62 L 189.94 369.62 L 190.01 369.62 L 190.03 369.62 L 190.19 369.62 L 190.21 369.62 L 190.39 369.62 L 190.42 369.62 L 190.68 368.34 L 190.73 368.34 L 190.82 368.19 L 190.93 368.19 L 191.08 368.19 L 191.15 368.17 L 191.67 368.17 L 191.68 368.17 L 191.78 368.09 L 192.01 368.09 L 192.22 367.36 L 192.28 367.27 L 192.38 367.27 L 192.43 367.27 L 192.54 367.25 L 193.12 361.88 L 193.19 361.92 L 193.38 361.92 L 193.44 361.92 L 193.49 361.91 L 193.58 361.91 L 193.67 361.84 L 193.88 361.84 L 194.02 361.84 L 194.14 361.83 L 194.20 361.83 L 194.73 361.82 L 195.01 361.82 L 195.09 361.68 L 195.34 361.68 L 195.36 361.68 L 195.38 361.68 L 195.53 361.32 L 195.66 361.23 L 196.09 359.95 L 196.16 359.95 L 196.24 359.95 L 196.35 359.97 L 196.36 359.97 L 196.41 359.97 L 196.45 359.97 L 196.52 359.97 L 196.57 359.97 L 196.74 359.94 L 196.87 359.94 L 196.99 359.93 L 197.15 359.93 L 197.34 359.92 L 197.52 359.44 L 197.66 359.28 L 197.93 359.28 L 197.93 359.28 L 198.09 359.28 L 210.98 359.28 L 211.22 359.27 L 211.83 359.19 L 211.95 359.18 L 212.06 359.18 L 212.08 359.18 L 212.30 359.18 L 212.45 359.18 L 212.54 359.18 L 212.63 359.18 L 212.68 359.17 L 212.91 359.17 L 213.38 359.20 L 213.49 359.20 L 213.58 359.20 L 213.69 359.20 L 214.29 359.09 L 214.37 359.04 L 214.41 359.04 L 214.45 358.98 L 214.58 358.97 L 214.68 358.97 L 215.12 358.48 L 215.74 358.48 L 215.96 358.48 L 216.65 358.48 L 216.98 355.19 L 217.10 355.19 L 217.24 355.19 L 217.44 355.18 L 217.75 355.18 L 218.19 355.18 L 218.77 355.18 L 218.86 355.18 L 219.29 355.10 L 219.56 354.97 L 219.65 354.97 L 219.82 354.97 L 219.95 354.95 L 221.47 354.74 L 222.92 354.74 L 235.89 354.74 L 235.99 354.74 L 236.05 354.74 L 236.46 354.74 L 237.67 353.70 L 237.72 353.67 L 237.89 353.56 L 238.49 353.55 L 238.77 353.31 L 239.20 353.31 L 239.30 353.31 L 239.39 353.31 L 240.15 350.42 L 240.24 350.42 L 240.39 350.42 L 240.56 350.42 L 240.64 350.24 L 241.06 349.89 L 241.21 349.89 L 241.28 349.89 L 241.37 349.36 L 241.56 348.82 L 241.64 348.82 L 241.83 348.81 L 242.39 344.51 L 242.44 344.51 L 242.50 344.51 L 242.58 344.51 L 242.72 344.51 L 242.78 344.51 L 242.83 344.51 L 243.10 344.51 L 243.16 344.42 L 243.49 344.40 L 243.69 344.34 L 243.81 343.82 L 244.82 335.26 L 244.93 335.26 L 283.06 335.26 L 283.10 335.26 L 297.67 335.26 L 298.46 335.13 L 298.62 335.13 L 298.84 335.13 L 298.91 335.13 L 298.99 335.13 L 305.31 335.07 L 306.15 334.98 L 306.45 334.98 L 306.62 334.96 L 310.55 334.88 L 310.58 334.77 L 310.83 334.77 L 312.00 333.61 L 312.07 333.61 L 312.22 333.61 L 312.63 333.61 L 312.68 333.61 L 312.85 333.61 L 313.03 333.61 L 313.06 333.61 L 325.30 333.59 L 325.39 333.39 L 325.88 333.39 L 325.89 331.99 L 325.97 331.99 L 326.07 331.99 L 326.21 331.86 L 326.42 331.86 L 326.59 331.80 L 326.75 331.80 L 326.81 331.80 L 327.06 331.78 L 327.91 329.41 L 328.25 329.40 L 328.31 329.39 L 328.38 329.39 L 328.42 329.39 L 328.54 329.35 L 328.89 329.06 L 328.94 329.01 L 329.15 326.88 L 329.23 326.87 L 329.26 326.87 L 329.34 326.84 L 329.39 326.84 L 329.44 326.84 L 329.71 325.68 L 329.82 325.66 L 329.97 325.63 L 330.08 322.02 L 330.12 322.02 L 330.39 319.99 L 330.46 319.99 L 330.51 319.98 L 330.58 319.98 L 330.62 319.98 L 330.66 319.98 L 330.68 319.98 L 330.81 316.22 L 330.86 316.22 L 330.99 316.20 L 331.09 316.20 L 331.36 316.13 L 331.70 316.03 L 331.71 316.03 L 331.80 316.00 L 332.12 315.94 L 332.27 315.94 L 332.42 315.94 L 332.58 314.32 L 332.68 314.32 L 333.11 314.32 L 333.15 314.31 L 333.21 314.31 L 333.24 314.31 L 333.52 312.00 L 333.57 312.00 L 333.78 311.98 L 352.62 311.98 L 353.69 311.97 L 353.73 311.97 L 353.94 311.97 L 353.96 311.97 L 354.09 311.97 L 354.20 311.96 L 354.29 311.85 L 354.42 311.85 L 354.46 311.85 L 354.51 311.85 L 354.71 311.64 L 355.12 311.51 L 355.38 311.37 L 355.66 310.72 L 355.68 310.72 L 355.72 310.55 L 355.76 310.53 L 356.32 310.13 L 356.33 310.13 L 356.42 310.07 L 356.66 310.07 L 356.82 310.03 L 356.85 309.07 L 356.86 309.07 L 356.93 310.02 L 356.97 309.97 L 356.99 309.96 L 357.13 308.67 L 357.14 308.67 L 357.44 308.61 L 358.24 308.61 L 358.43 308.61 L 358.49 308.61 L 358.53 308.61 L 358.58 308.61 L 358.69 308.53 L 371.57 307.46 L 371.59 307.46 L 371.70 307.45 L 371.73 307.22 L 371.80 295.79 L 371.94 291.54 L 371.96 291.54 L 372.20 291.47 L 372.25 291.47 L 372.29 291.45 L 372.50 291.45 L 373.06 290.41 L 373.07 290.41 L 373.21 290.35 L 373.27 290.35 L 373.30 290.26 L 373.76 289.64 L 373.78 289.64 L 374.48 289.52 L 374.57 289.47 L 374.82 289.48 L 375.11 288.08 L 375.18 287.94 L 375.23 287.81 L 375.36 287.28 L 375.73 287.15 L 375.79 287.04 L 375.95 287.04 L 376.13 287.04 L 376.67 287.04 L 376.73 287.04 L 376.86 287.04 L 376.87 287.04 L 377.04 287.06 L 377.45 287.06 L 377.87 286.91 L 377.93 286.91 L 378.03 286.89 L 378.15 286.89 L 378.47 286.89 L 379.02 286.89 L 379.19 286.77 L 379.49 283.08 L 380.67 286.56 L 380.93 286.54 L 381.12 286.53 L 381.42 286.53 L 381.51 286.49 L 381.81 286.47 L 382.27 286.26 L 382.33 286.26 L 382.42 286.26 L 382.48 286.26 L 382.52 286.26 L 382.89 286.06 L 391.42 286.06 L 391.50 286.06 L 392.03 286.05 L 392.09 286.05 L 392.20 286.01 L 392.30 285.75 L 392.32 285.75 L 392.61 285.72 L 392.68 285.72 L 394.43 285.51 L 394.63 285.51 L 394.79 285.51 L 394.82 285.51 L 395.36 285.36 L 395.55 285.36 L 395.58 285.36 L 395.87 285.35 L 396.19 284.48 L 396.23 284.48 L 396.49 284.33 L 396.60 284.33 L 396.70 284.33 L 396.92 284.33 L 397.40 284.32 L 397.49 284.30 L 397.58 284.22 L 397.77 284.07 L 398.24 283.93 L 398.66 280.45 L 398.74 280.34 L 399.17 280.17 L 399.24 280.13 L 399.31 280.01 L 399.36 279.76 L 399.50 278.72 L 399.54 278.77 L 399.61 278.75 L 399.85 278.74 L 400.22 278.60 L 400.45 278.54 L 400.72 278.53 L 400.84 278.51 L 401.10 278.50 L 401.53 278.50 L 401.96 278.49 L 402.28 278.49 L 402.36 278.48 L 402.44 278.48 L 402.45 278.47 L 402.70 278.47 L 402.77 278.46 L 402.87 278.33 L 403.57 278.32 L 403.58 278.32 L 403.78 278.30 L 404.59 278.30 L 405.14 278.13 L 405.53 277.98 L 405.54 277.98 L 405.58 277.98 L 417.53 277.97 L 417.57 277.97 L 417.71 277.97 L 417.77 277.97 L 417.82 277.96 L 417.82 277.96 L 418.33 277.96 L 418.45 277.94 L 418.60 277.92 L 418.85 277.89 L 419.02 277.89 L 419.22 277.81 L 419.34 277.81 L 419.39 277.81 L 419.45 277.81 L 419.60 277.50 L 419.62 277.50 L 419.67 277.50 L 419.80 277.50 L 419.89 277.50 L 419.99 277.57 L 420.14 277.57 L 420.43 277.56 L 420.56 277.56 L 420.68 277.56 L 421.41 276.54 L 422.04 276.26 L 422.79 275.53 L 422.99 275.53 L 423.20 275.53 L 423.43 275.53 L 427.83 275.44 L 428.19 275.44 L 469.84 275.31 L 600.98 275.12 L 601.42 275.06 L 601.72 275.05 L 602.02 275.05 L 602.48 274.58 L 602.63 274.58 L 602.75 274.58 L 602.96 272.86 L 603.26 273.19 L 603.50 273.17 L 603.56 273.17 L 603.76 273.15 L 603.81 273.15 L 604.03 273.15 L 604.22 273.07 L 604.81 271.99 L 604.83 271.99 L 605.00 271.89 L 605.57 268.38 L 605.58 268.38 L 605.69 268.38 L 605.83 268.32 L 606.44 266.69 L 606.45 266.69 L 606.58 266.69 L 606.72 266.65 L 606.95 266.05 L 606.97 266.05 L 607.07 266.05 L 607.09 266.05 L 607.14 265.72 L 607.40 263.40 L 607.43 263.40 L 607.52 263.40 L 607.80 263.20 L 607.85 263.20 L 608.07 262.82 L 608.44 262.82 L 608.49 262.82 L 608.54 262.82 L 608.60 262.82 L 608.79 262.81 L 608.98 261.76 L 609.01 261.76 L 609.12 261.76 L 609.23 260.97 L 609.25 260.97 L 609.37 260.13 L 609.42 260.07 L 609.65 259.25 L 609.68 259.25 L 609.79 259.25 L 609.95 259.23 L 610.89 259.23 L 611.36 259.22 L 621.61 259.22 L 621.71 259.22 L 621.81 259.22 L 621.99 259.22 L 622.37 259.00 L 622.40 259.00 L 622.47 258.93 L 622.72 257.77 L 622.74 257.77 L 624.98 257.80 L 625.11 257.57 L 626.24 257.57 L 626.37 257.56 L 626.50 257.48 L 627.86 256.52 L 628.44 256.34 L 628.58 256.28 L 629.07 254.47 L 629.37 254.47 L 629.88 254.32 L 630.78 254.32 L 644.49 254.31 L 645.31 254.20 L 645.34 254.22 L 646.49 254.22 L 646.55 254.22 L 646.95 254.22 L 647.42 254.19 L 647.42 254.19 L 647.47 254.19 L 648.08 253.13 L 649.49 253.10 L 649.58 253.10 L 649.73 253.10 L 649.94 253.05 L 650.00 253.02"/>
	</g>
	<g id="poloto_plot2" class="poloto_plot poloto_imgs poloto_line poloto2 poloto_stroke" fill="none" stroke="black">
		<path d=" M 150.00 390.66 L 150.03 390.66 L 150.05 390.66 L 150.06 390.66 L 150.09 390.66 L 150.13 388.26 L 150.27 387.94 L 150.59 387.93 L 151.06 387.92 L 151.31 386.49 L 151.79 386.36 L 151.88 386.32 L 151.94 386.28 L 152.50 385.64 L 153.56 385.14 L 153.90 385.05 L 153.98 385.05 L 154.62 385.01 L 155.36 385.01 L 155.37 385.01 L 155.37 385.01 L 165.32 385.01 L 165.39 385.01 L 165.52 384.99 L 165.58 384.99 L 165.96 384.84 L 166.13 384.80 L 166.55 384.57 L 166.61 384.47 L 166.73 384.26 L 166.85 384.23 L 166.89 384.22 L 167.00 384.18 L 167.11 384.18 L 167.21 384.19 L 167.49 383.95 L 167.73 383.73 L 167.78 383.73 L 167.90 383.60 L 168.69 383.31 L 168.71 383.31 L 168.81 383.22 L 169.26 382.90 L 169.62 382.51 L 170.03 382.35 L 170.11 382.35 L 170.12 382.36 L 170.20 382.14 L 170.36 382.14 L 170.56 382.11 L 170.95 381.95 L 170.97 381.67 L 171.04 381.67 L 171.13 381.54 L 171.36 381.54 L 171.38 381.54 L 171.62 381.11 L 171.71 381.09 L 171.79 381.05 L 171.88 380.86 L 173.09 380.74 L 173.39 380.70 L 174.06 380.41 L 174.21 380.41 L 174.31 380.40 L 174.37 380.18 L 174.83 379.01 L 175.04 378.99 L 175.28 378.64 L 175.40 378.61 L 175.68 378.45 L 175.80 378.40 L 175.97 378.14 L 176.12 377.94 L 176.66 377.94 L 176.67 377.91 L 176.70 377.74 L 176.88 376.62 L 186.11 376.50 L 187.07 376.16 L 187.10 376.11 L 188.23 375.83 L 188.33 375.83 L 188.43 375.62 L 188.70 375.48 L 188.83 375.22 L 188.88 375.01 L 189.02 374.59 L 189.35 374.58 L 189.36 374.58 L 189.49 374.28 L 189.61 374.28 L 189.75 373.97 L 189.94 373.73 L 190.01 373.60 L 190.03 373.59 L 190.19 373.31 L 190.21 373.30 L 190.39 373.05 L 190.42 373.04 L 190.68 372.95 L 190.73 372.95 L 190.82 372.85 L 190.93 372.83 L 191.08 372.83 L 191.15 372.81 L 191.67 372.56 L 191.68 372.57 L 191.78 372.06 L 192.01 372.04 L 192.22 371.89 L 192.28 371.89 L 192.38 371.88 L 192.43 371.84 L 192.54 371.14 L 193.12 370.55 L 193.19 370.23 L 193.38 370.21 L 193.44 370.13 L 193.49 370.11 L 193.58 369.96 L 193.67 369.41 L 193.88 369.33 L 194.02 369.31 L 194.14 369.03 L 194.20 369.03 L 194.73 368.82 L 195.01 368.67 L 195.09 368.55 L 195.34 368.54 L 195.36 368.54 L 195.38 368.51 L 195.53 367.51 L 195.66 367.50 L 196.09 367.36 L 196.16 366.96 L 196.24 366.95 L 196.35 366.79 L 196.36 366.69 L 196.41 366.63 L 196.45 366.59 L 196.52 366.58 L 196.57 366.50 L 196.74 365.38 L 196.87 365.27 L 196.99 364.93 L 197.15 364.91 L 197.34 364.80 L 197.52 364.45 L 197.66 363.47 L 197.93 363.40 L 197.93 362.98 L 198.09 362.88 L 210.98 362.88 L 211.22 362.88 L 211.83 362.42 L 211.95 362.42 L 212.06 362.42 L 212.08 362.30 L 212.30 362.10 L 212.45 362.07 L 212.54 361.95 L 212.63 361.86 L 212.68 361.82 L 212.91 361.76 L 213.38 361.85 L 213.49 361.54 L 213.58 361.46 L 213.69 361.45 L 214.29 361.39 L 214.37 361.34 L 214.41 361.34 L 214.45 361.28 L 214.58 361.23 L 214.68 361.11 L 215.12 360.82 L 215.74 360.70 L 215.96 360.65 L 216.65 360.46 L 216.98 360.01 L 217.10 359.93 L 217.24 359.58 L 217.44 359.12 L 217.75 359.00 L 218.19 358.99 L 218.77 358.97 L 218.86 358.80 L 219.29 358.69 L 219.56 358.54 L 219.65 358.42 L 219.82 358.38 L 219.95 358.07 L 221.47 357.93 L 222.92 357.93 L 235.89 357.89 L 235.99 357.73 L 236.05 357.61 L 236.46 357.44 L 237.67 357.14 L 237.72 357.10 L 237.89 356.88 L 238.49 356.80 L 238.77 356.21 L 239.20 356.19 L 239.30 356.17 L 239.39 355.59 L 240.15 355.05 L 240.24 355.04 L 240.39 355.01 L 240.56 354.96 L 240.64 354.76 L 241.06 353.85 L 241.21 353.62 L 241.28 353.61 L 241.37 353.51 L 241.56 353.16 L 241.64 352.25 L 241.83 351.88 L 242.39 351.67 L 242.44 351.21 L 242.50 351.21 L 242.58 351.13 L 242.72 351.01 L 242.78 350.97 L 242.83 350.93 L 243.10 349.87 L 243.16 349.25 L 243.49 349.13 L 243.69 348.08 L 243.81 347.88 L 244.82 346.22 L 244.93 346.19 L 283.06 345.71 L 283.10 345.71 L 297.67 345.57 L 298.46 345.39 L 298.62 345.39 L 298.84 345.31 L 298.91 345.17 L 298.99 345.14 L 305.31 345.13 L 306.15 343.23 L 306.45 343.06 L 306.62 342.40 L 310.55 342.32 L 310.58 342.26 L 310.83 342.25 L 312.00 342.13 L 312.07 341.91 L 312.22 341.84 L 312.63 341.74 L 312.68 341.71 L 312.85 341.34 L 313.03 341.23 L 313.06 340.95 L 325.30 340.59 L 325.39 339.73 L 325.88 339.50 L 325.89 339.17 L 325.97 338.91 L 326.07 338.51 L 326.21 337.47 L 326.42 336.89 L 326.59 336.15 L 326.75 336.15 L 326.81 335.57 L 327.06 335.54 L 327.91 334.99 L 328.25 334.74 L 328.31 334.59 L 328.38 334.58 L 328.42 334.39 L 328.54 333.75 L 328.89 333.68 L 328.94 333.68 L 329.15 333.25 L 329.23 333.25 L 329.26 333.01 L 329.34 332.86 L 329.39 332.86 L 329.44 332.52 L 329.71 332.32 L 329.82 331.98 L 329.97 331.97 L 330.08 331.79 L 330.12 331.53 L 330.39 331.39 L 330.46 331.24 L 330.51 331.24 L 330.58 331.24 L 330.62 330.97 L 330.66 330.99 L 330.68 330.98 L 330.81 330.89 L 330.86 330.60 L 330.99 330.60 L 331.09 330.53 L 331.36 330.50 L 331.70 330.47 L 331.71 330.47 L 331.80 330.45 L 332.12 330.45 L 332.27 330.45 L 332.42 330.45 L 332.58 330.40 L 332.68 330.06 L 333.11 330.06 L 333.15 329.85 L 333.21 329.85 L 333.24 329.61 L 333.52 329.53 L 333.57 329.48 L 333.78 329.48 L 352.62 329.41 L 353.69 329.32 L 353.73 329.32 L 353.94 329.31 L 353.96 329.32 L 354.09 328.91 L 354.20 328.89 L 354.29 328.78 L 354.42 328.72 L 354.46 328.68 L 354.51 328.66 L 354.71 328.62 L 355.12 328.54 L 355.38 327.99 L 355.66 327.96 L 355.68 327.92 L 355.72 327.46 L 355.76 327.46 L 356.32 327.46 L 356.33 327.41 L 356.42 326.99 L 356.66 326.93 L 356.82 326.92 L 356.85 326.91 L 356.86 326.86 L 356.93 326.83 L 356.97 326.39 L 356.99 326.38 L 357.13 326.38 L 357.14 326.35 L 357.44 326.31 L 358.24 326.29 L 358.43 326.25 L 358.49 326.24 L 358.53 326.10 L 358.58 326.10 L 358.69 325.61 L 371.57 325.46 L 371.59 325.32 L 371.70 325.22 L 371.73 325.20 L 371.80 324.79 L 371.94 324.68 L 371.96 324.66 L 372.20 324.66 L 372.25 324.66 L 372.29 324.24 L 372.50 324.19 L 373.06 324.17 L 373.07 324.15 L 373.21 323.92 L 373.27 323.93 L 373.30 323.55 L 373.76 323.55 L 373.78 323.53 L 374.48 323.43 L 374.57 322.97 L 374.82 322.97 L 375.11 322.97 L 375.18 322.63 L 375.23 322.37 L 375.36 322.36 L 375.73 322.30 L 375.79 322.28 L 375.95 322.17 L 376.13 322.17 L 376.67 322.18 L 376.73 322.18 L 376.86 322.15 L 376.87 322.15 L 377.04 322.15 L 377.45 322.12 L 377.87 322.07 L 377.93 322.07 L 378.03 322.02 L 378.15 321.90 L 378.47 321.90 L 379.02 321.75 L 379.19 321.49 L 379.49 321.46 L 380.67 321.18 L 380.93 321.18 L 381.12 321.18 L 381.42 321.17 L 381.51 321.15 L 381.81 321.01 L 382.27 320.99 L 382.33 320.86 L 382.42 320.80 L 382.48 320.82 L 382.52 320.77 L 382.89 320.75 L 391.42 320.74 L 391.50 320.74 L 392.03 320.74 L 392.09 320.73 L 392.20 320.35 L 392.30 320.33 L 392.32 320.33 L 392.61 320.32 L 392.68 320.30 L 394.43 319.73 L 394.63 319.67 L 394.79 319.66 L 394.82 319.66 L 395.36 319.65 L 395.55 319.73 L 395.58 319.72 L 395.87 319.68 L 396.19 319.15 L 396.23 319.14 L 396.49 319.12 L 396.60 319.12 L 396.70 319.12 L 396.92 319.01 L 397.40 318.52 L 397.49 318.52 L 397.58 318.45 L 397.77 318.01 L 398.24 317.52 L 398.66 317.55 L 398.74 317.29 L 399.17 317.29 L 399.24 317.26 L 399.31 317.23 L 399.36 316.97 L 399.50 316.97 L 399.54 316.97 L 399.61 316.97 L 399.85 316.97 L 400.22 316.76 L 400.45 316.74 L 400.72 316.74 L 400.84 316.74 L 401.10 316.74 L 401.53 316.74 L 401.96 316.74 L 402.28 316.74 L 402.36 316.73 L 402.44 316.72 L 402.45 316.63 L 402.70 316.57 L 402.77 316.57 L 402.87 316.55 L 403.57 316.55 L 403.58 316.30 L 403.78 316.30 L 404.59 316.30 L 405.14 316.30 L 405.53 316.24 L 405.54 316.14 L 405.58 316.14 L 417.53 315.97 L 417.57 315.96 L 417.71 315.95 L 417.77 315.80 L 417.82 315.80 L 417.82 315.79 L 418.33 315.74 L 418.45 315.22 L 418.60 315.11 L 418.85 314.10 L 419.02 314.09 L 419.22 313.66 L 419.34 313.71 L 419.39 313.70 L 419.45 313.15 L 419.60 313.06 L 419.62 312.67 L 419.67 312.62 L 419.80 312.58 L 419.89 312.39 L 419.99 314.66 L 420.14 314.63 L 420.43 313.71 L 420.56 313.51 L 420.68 313.31 L 421.41 312.95 L 422.04 312.57 L 422.79 312.03 L 422.99 311.97 L 423.20 311.97 L 423.43 311.92 L 427.83 311.66 L 428.19 311.63 L 469.84 310.92 L 600.98 310.89 L 601.42 310.58 L 601.72 310.53 L 602.02 310.53 L 602.48 310.24 L 602.63 309.90 L 602.75 309.28 L 602.96 309.11 L 603.26 309.17 L 603.50 308.80 L 603.56 308.80 L 603.76 308.68 L 603.81 308.69 L 604.03 308.08 L 604.22 307.15 L 604.81 307.06 L 604.83 306.96 L 605.00 305.76 L 605.57 305.71 L 605.58 305.59 L 605.69 305.52 L 605.83 304.43 L 606.44 304.38 L 606.45 304.22 L 606.58 304.15 L 606.72 303.43 L 606.95 303.41 L 606.97 303.29 L 607.07 302.10 L 607.09 302.07 L 607.14 302.04 L 607.40 302.04 L 607.43 301.91 L 607.52 301.83 L 607.80 301.72 L 607.85 301.71 L 608.07 301.65 L 608.44 301.69 L 608.49 301.64 L 608.54 301.61 L 608.60 301.57 L 608.79 300.34 L 608.98 300.31 L 609.01 300.21 L 609.12 298.94 L 609.23 298.49 L 609.25 298.32 L 609.37 297.70 L 609.42 296.63 L 609.65 296.62 L 609.68 296.56 L 609.79 296.34 L 609.95 296.34 L 610.89 296.30 L 611.36 296.27 L 621.61 296.32 L 621.71 296.08 L 621.81 295.90 L 621.99 295.05 L 622.37 295.03 L 622.40 294.95 L 622.47 293.87 L 622.72 293.86 L 622.74 293.75 L 624.98 293.65 L 625.11 293.26 L 626.24 293.07 L 626.37 293.03 L 626.50 291.83 L 627.86 291.49 L 628.44 291.20 L 628.58 290.30 L 629.07 290.30 L 629.37 289.80 L 629.88 289.02 L 630.78 288.55 L 644.49 288.55 L 645.31 288.54 L 645.34 288.54 L 646.49 288.36 L 646.55 288.27 L 646.95 288.20 L 647.42 287.19 L 647.42 287.19 L 647.47 287.15 L 648.08 286.94 L 649.49 286.27 L 649.58 286.20 L 649.73 286.19 L 649.94 285.91 L 650.00 285.86"/>
	</g>
	<g class="poloto_legend poloto_imgs poloto_line poloto0 poloto_stroke"><line x1="680" x2="730" y1="81.25" y2="81.25"/></g>
	<g class="poloto_legend poloto_imgs poloto_line poloto1 poloto_stroke"><line x1="680" x2="730" y1="131.25" y2="131.25"/></g>
	<g class="poloto_legend poloto_imgs poloto_line poloto2 poloto_stroke"><line x1="680" x2="730" y1="181.25" y2="181.25"/></g>
	<text class="poloto_legend poloto_text poloto_line poloto0" x="675" y="100">total</text>
	<text class="poloto_legend poloto_text poloto_line poloto1" x="675" y="150">code</text>
	<text class="poloto_legend poloto_text poloto_line poloto2" x="675" y="200">docs</text>
	<text class="poloto_text poloto_name poloto_title" x="400.00" y="37.50">Workspace lines over time</text>
	<text class="poloto_text poloto_name poloto_x" x="400.00" y="640">date (JST)</text>
	<text class="poloto_text poloto_name poloto_y" x="37.50" y="250.00" transform="rotate(-90,37.50,250.00)">lines</text>
	<text class="poloto_text poloto_ticks poloto_y">
		<tspan x="135.00" y="400.00">0</tspan>
		<tspan x="135.00" y="311.23">50K</tspan>
		<tspan x="135.00" y="222.46">100K</tspan>
		<tspan x="135.00" y="133.69">150K</tspan>
	</text>
	<g class="poloto_imgs poloto_ticks poloto_y" stroke="black">
		<line x1="150.00" x2="144.00" y1="400.00" y2="400.00"/>
		<line x1="150.00" x2="144.00" y1="311.23" y2="311.23"/>
		<line x1="150.00" x2="144.00" y1="222.46" y2="222.46"/>
		<line x1="150.00" x2="144.00" y1="133.69" y2="133.69"/>
	</g>
	<g class="poloto_text poloto_ticks poloto_x">
		<text x="235.73" y="430.00" text-anchor="end" transform="rotate(-90 235.73 430.00)">2026-04-24 12:06</text>
		<text x="367.69" y="430.00" text-anchor="end" transform="rotate(-90 367.69 430.00)">2026-04-30 07:00</text>
		<text x="499.66" y="430.00" text-anchor="end" transform="rotate(-90 499.66 430.00)">2026-05-06 01:53</text>
		<text x="631.62" y="430.00" text-anchor="end" transform="rotate(-90 631.62 430.00)">2026-05-11 20:46</text>
	</g>
	<g class="poloto_imgs poloto_ticks poloto_x" stroke="black">
		<line x1="235.73" x2="235.73" y1="400.00" y2="405.00"/>
		<line x1="367.69" x2="367.69" y1="400.00" y2="405.00"/>
		<line x1="499.66" x2="499.66" y1="400.00" y2="405.00"/>
		<line x1="631.62" x2="631.62" y1="400.00" y2="405.00"/>
	</g>
	<path class="poloto_imgs poloto_ticks poloto_x" stroke="black" style="stroke-dasharray:13.19634471808385;stroke-dashoffset:-85.72952560719568;" d=" M 150.00 400.00 L 650.00 400.00"/>
	<path class="poloto_imgs poloto_ticks poloto_y" stroke="black" style="stroke-dasharray:8.877157889130215;stroke-dashoffset:-0;" d=" M 150.00 400.00 L 150.00 100.00"/>
</svg>

