<svg class="poloto" width="800" height="680" viewBox="0 0 800 680" xmlns="http://www.w3.org/2000/svg">
	<style>
.poloto{
  stroke-linecap:round;
  stroke-linejoin:round;
  font-family:Roboto,sans-serif;
  font-size:16px;
}
.poloto_background{fill:AliceBlue;}
.poloto_scatter{stroke-width:7}
.poloto_line{stroke-width:2}
.poloto_text{fill: black;}
.poloto_name{font-size:24px;dominant-baseline:auto;text-anchor:middle;}
.poloto_where{dominant-baseline:middle;text-anchor:start}
.poloto_text.poloto_legend{font-size:20px;dominant-baseline:middle;text-anchor:start;}
.poloto_text.poloto_ticks.poloto_y{dominant-baseline:middle;text-anchor:end}
.poloto_text.poloto_ticks.poloto_x{dominant-baseline:auto;text-anchor:middle}
.poloto_imgs.poloto_ticks{stroke: black;stroke-width:3;fill:none;stroke-dasharray:none}
.poloto_grid{stroke:gray;stroke-width:0.5}

.poloto0.poloto_stroke{stroke:blue;}
.poloto1.poloto_stroke{stroke:red;}
.poloto2.poloto_stroke{stroke:green;}
.poloto3.poloto_stroke{stroke:gold;}
.poloto4.poloto_stroke{stroke:aqua;}
.poloto5.poloto_stroke{stroke:lime;}
.poloto6.poloto_stroke{stroke:orange;}
.poloto7.poloto_stroke{stroke:chocolate;}
.poloto0.poloto_fill{fill:blue;}
.poloto1.poloto_fill{fill:red;}
.poloto2.poloto_fill{fill:green;}
.poloto3.poloto_fill{fill:gold;}
.poloto4.poloto_fill{fill:aqua;}
.poloto5.poloto_fill{fill:lime;}
.poloto6.poloto_fill{fill:orange;}
.poloto7.poloto_fill{fill:chocolate;}
	</style>
	<circle r="1e5" class="poloto_background" fill="white"/>
	<g id="poloto_plot0" class="poloto_plot poloto_imgs poloto_line poloto0 poloto_stroke" fill="none" stroke="black">
		<path d=" M 150.00 361.21 L 150.04 361.18 L 150.06 361.16 L 150.07 361.16 L 150.10 361.16 L 150.14 356.95 L 150.29 356.44 L 150.64 356.42 L 151.16 356.07 L 151.42 353.93 L 151.95 353.80 L 152.05 353.69 L 152.11 353.64 L 152.73 352.60 L 153.89 351.75 L 154.25 348.44 L 154.34 348.45 L 155.04 348.32 L 155.85 348.30 L 155.85 348.30 L 155.86 348.30 L 166.71 348.30 L 166.79 348.30 L 166.93 348.27 L 166.99 348.23 L 167.40 348.04 L 167.59 347.99 L 168.05 347.68 L 168.11 347.55 L 168.24 347.25 L 168.38 347.20 L 168.42 347.20 L 168.53 347.12 L 168.65 347.12 L 168.77 347.13 L 169.07 346.64 L 169.34 346.33 L 169.39 346.33 L 169.52 346.15 L 170.38 346.91 L 170.40 346.91 L 170.51 346.79 L 171.00 346.22 L 171.40 345.54 L 171.84 345.25 L 171.93 345.19 L 171.95 345.20 L 172.03 344.93 L 172.20 344.93 L 172.42 344.84 L 172.84 344.58 L 172.87 344.19 L 172.94 344.19 L 173.05 343.99 L 173.29 343.99 L 173.32 343.99 L 173.57 343.42 L 173.67 343.39 L 173.76 343.35 L 173.86 343.12 L 175.19 342.81 L 175.50 342.75 L 176.24 342.35 L 176.40 342.35 L 176.51 342.34 L 176.58 342.05 L 177.08 340.38 L 177.31 340.34 L 177.57 339.79 L 177.70 339.73 L 178.00 339.27 L 178.14 339.10 L 178.32 338.80 L 178.49 338.54 L 179.07 334.69 L 179.09 334.60 L 179.11 334.37 L 179.31 332.52 L 189.38 332.38 L 190.42 330.27 L 190.46 330.22 L 191.69 329.89 L 191.79 329.88 L 191.91 329.46 L 192.21 329.25 L 192.35 328.89 L 192.40 328.58 L 192.55 328.03 L 192.91 328.02 L 192.92 327.64 L 193.06 327.23 L 193.20 327.22 L 193.35 326.76 L 193.55 326.43 L 193.63 326.26 L 193.66 326.25 L 193.83 325.89 L 193.86 325.88 L 194.05 325.52 L 194.08 325.51 L 194.37 323.77 L 194.41 323.77 L 194.51 323.48 L 194.64 323.47 L 194.80 323.47 L 194.88 323.43 L 195.44 323.10 L 195.45 323.11 L 195.56 322.34 L 195.81 322.33 L 196.04 321.17 L 196.11 321.06 L 196.22 321.05 L 196.27 321.01 L 196.40 320.11 L 197.03 312.56 L 197.10 312.19 L 197.31 312.16 L 197.38 312.07 L 197.43 312.04 L 197.53 311.84 L 197.63 310.98 L 197.85 310.81 L 198.01 310.79 L 198.14 310.41 L 198.21 310.40 L 198.78 310.12 L 199.08 309.91 L 199.18 309.57 L 199.44 309.56 L 199.47 309.56 L 199.49 309.52 L 199.66 307.71 L 199.79 307.60 L 200.26 305.77 L 200.33 305.24 L 200.42 305.22 L 200.55 305.03 L 200.56 304.89 L 200.61 304.80 L 200.66 304.75 L 200.73 304.74 L 200.79 304.65 L 200.97 303.15 L 201.11 302.93 L 201.24 302.49 L 201.42 302.46 L 201.62 302.32 L 201.83 301.26 L 201.97 299.79 L 202.26 299.71 L 202.27 299.16 L 202.44 298.98 L 216.50 298.98 L 216.76 298.96 L 217.43 298.19 L 217.56 298.17 L 217.67 298.17 L 217.70 297.98 L 217.94 297.73 L 218.10 297.69 L 218.20 297.55 L 218.30 297.45 L 218.35 297.39 L 218.61 297.32 L 219.11 297.23 L 219.24 296.83 L 219.34 296.73 L 219.46 296.71 L 220.11 296.51 L 220.20 296.40 L 220.24 296.40 L 220.29 296.25 L 220.43 296.18 L 220.54 296.03 L 221.01 295.05 L 221.69 294.89 L 221.94 294.83 L 222.69 294.58 L 223.04 289.83 L 223.17 289.73 L 223.32 289.27 L 223.54 288.64 L 223.88 288.47 L 224.36 288.45 L 225.00 288.43 L 225.10 288.23 L 225.56 288.01 L 225.86 287.66 L 225.96 287.52 L 226.14 287.47 L 226.28 287.05 L 227.94 286.58 L 229.52 286.58 L 243.67 286.54 L 243.77 286.33 L 243.84 286.20 L 244.29 285.99 L 245.61 284.36 L 245.66 284.25 L 245.85 283.83 L 246.50 283.72 L 246.81 282.61 L 247.27 282.60 L 247.38 282.58 L 247.49 281.83 L 248.31 277.51 L 248.41 277.50 L 248.58 277.46 L 248.76 277.41 L 248.84 276.94 L 249.30 275.31 L 249.47 275.01 L 249.54 274.99 L 249.64 274.23 L 249.85 273.17 L 249.93 272.05 L 250.14 271.55 L 250.75 265.93 L 250.81 265.36 L 250.87 265.36 L 250.96 265.26 L 251.12 265.12 L 251.18 265.07 L 251.23 265.01 L 251.53 263.66 L 251.60 262.71 L 251.96 262.52 L 252.17 261.11 L 252.30 260.22 L 253.40 247.12 L 253.53 247.09 L 295.11 246.46 L 295.15 246.46 L 311.03 246.28 L 311.90 245.93 L 312.08 245.93 L 312.31 245.83 L 312.39 245.66 L 312.48 245.61 L 319.37 245.52 L 320.28 243.03 L 320.62 242.81 L 320.80 241.89 L 325.09 241.71 L 325.12 241.46 L 325.39 241.43 L 326.67 239.86 L 326.74 239.58 L 326.90 239.48 L 327.35 239.37 L 327.41 239.33 L 327.59 238.86 L 327.79 238.73 L 327.82 238.38 L 341.17 237.90 L 341.27 236.56 L 341.80 236.26 L 341.81 234.01 L 341.90 233.68 L 342.02 233.13 L 342.16 231.58 L 342.39 230.76 L 342.58 229.80 L 342.75 229.79 L 342.82 229.05 L 343.09 228.99 L 344.01 225.38 L 344.39 224.99 L 344.45 224.76 L 344.53 224.75 L 344.58 224.50 L 344.70 223.61 L 345.08 223.19 L 345.14 223.13 L 345.37 219.95 L 345.45 219.94 L 345.49 219.60 L 345.58 219.34 L 345.63 219.33 L 345.68 218.86 L 345.98 217.13 L 346.10 216.64 L 346.27 216.58 L 346.38 211.98 L 346.43 211.61 L 346.72 208.98 L 346.80 208.78 L 346.86 208.77 L 346.93 208.76 L 346.98 208.39 L 347.02 208.41 L 347.04 208.40 L 347.18 203.75 L 347.24 203.35 L 347.38 203.32 L 347.48 203.24 L 347.78 203.11 L 348.15 202.93 L 348.16 202.93 L 348.26 202.88 L 348.61 202.79 L 348.77 202.79 L 348.93 202.79 L 349.10 200.76 L 349.22 200.28 L 349.69 200.27 L 349.73 199.95 L 349.79 199.95 L 349.83 199.60 L 350.14 196.67 L 350.19 196.60 L 350.42 196.58 L 370.96 196.50 L 372.13 196.35 L 372.17 196.35 L 372.40 196.35 L 372.42 196.35 L 372.57 195.76 L 372.69 195.74 L 372.78 195.45 L 372.93 195.38 L 372.97 195.34 L 373.02 195.32 L 373.24 194.99 L 373.69 194.70 L 373.97 193.76 L 374.28 192.86 L 374.30 192.81 L 374.35 191.98 L 374.39 191.95 L 375.00 191.45 L 375.01 191.39 L 375.11 190.73 L 375.37 190.66 L 375.54 190.59 L 375.57 189.40 L 375.59 189.35 L 375.66 190.47 L 375.71 189.78 L 375.73 189.75 L 375.88 188.17 L 375.89 188.12 L 376.21 187.99 L 377.09 187.97 L 377.30 187.91 L 377.36 187.90 L 377.41 187.69 L 377.46 187.69 L 377.58 186.91 L 391.63 185.39 L 391.65 185.18 L 391.77 185.04 L 391.80 184.74 L 391.88 171.49 L 392.04 166.07 L 392.05 166.03 L 392.31 165.93 L 392.37 165.93 L 392.42 165.30 L 392.65 165.24 L 393.25 163.96 L 393.27 163.93 L 393.42 163.54 L 393.48 163.55 L 393.51 162.91 L 394.02 162.15 L 394.03 162.12 L 394.80 161.83 L 394.90 161.16 L 395.17 161.17 L 395.49 159.46 L 395.57 158.78 L 395.62 158.24 L 395.76 157.58 L 396.16 157.35 L 396.24 157.18 L 396.41 157.03 L 396.60 157.03 L 397.19 157.03 L 397.26 157.03 L 397.39 157.00 L 397.41 157.00 L 397.60 157.02 L 398.04 156.98 L 398.50 156.73 L 398.57 156.73 L 398.67 156.63 L 398.80 156.45 L 399.16 156.45 L 399.75 156.21 L 399.94 155.68 L 400.27 151.12 L 401.56 154.98 L 401.84 154.96 L 402.05 154.94 L 402.37 154.94 L 402.47 154.86 L 402.79 154.65 L 403.30 154.33 L 403.37 154.12 L 403.46 154.03 L 403.52 154.05 L 403.57 153.99 L 403.97 153.70 L 413.28 153.70 L 413.37 153.70 L 413.94 153.69 L 414.00 153.67 L 414.13 153.08 L 414.24 152.76 L 414.25 152.75 L 414.57 152.71 L 414.65 152.68 L 416.56 151.82 L 416.78 151.74 L 416.95 151.73 L 416.98 151.72 L 417.57 151.52 L 417.78 151.62 L 417.81 151.61 L 418.13 151.56 L 418.48 149.75 L 418.52 149.74 L 418.81 149.53 L 418.93 149.53 L 419.04 149.53 L 419.28 149.33 L 419.80 148.60 L 419.90 148.57 L 419.99 148.37 L 420.20 147.51 L 420.71 146.62 L 421.17 142.42 L 421.26 141.90 L 421.73 141.70 L 421.81 141.59 L 421.88 141.39 L 421.93 140.71 L 422.09 139.50 L 422.13 139.55 L 422.21 139.53 L 422.47 139.52 L 422.88 139.08 L 423.13 138.99 L 423.41 138.98 L 423.55 138.96 L 423.83 138.95 L 424.30 138.95 L 424.77 138.93 L 425.12 138.93 L 425.21 138.92 L 425.30 138.91 L 425.30 138.76 L 425.58 138.67 L 425.66 138.66 L 425.77 138.47 L 426.53 138.45 L 426.54 138.08 L 426.75 138.07 L 427.64 138.07 L 428.24 137.85 L 428.67 137.58 L 428.68 137.44 L 428.71 137.43 L 441.75 137.18 L 441.79 137.18 L 441.94 137.16 L 442.01 136.95 L 442.06 136.93 L 442.07 136.92 L 442.63 136.86 L 442.75 136.10 L 442.92 135.93 L 443.19 134.43 L 443.37 134.41 L 443.59 133.78 L 443.72 133.86 L 443.78 133.85 L 443.85 133.12 L 444.01 132.62 L 444.03 132.09 L 444.09 132.02 L 444.23 131.98 L 444.32 131.73 L 444.44 134.59 L 444.59 134.54 L 444.91 133.40 L 445.05 133.12 L 445.18 132.88 L 445.98 131.24 L 446.67 130.44 L 447.49 128.93 L 447.70 128.85 L 447.93 128.85 L 448.19 128.79 L 452.98 128.36 L 453.38 128.32 L 498.80 127.16 L 641.81 126.89 L 642.28 126.43 L 642.61 126.37 L 642.94 126.37 L 643.44 125.47 L 643.61 125.05 L 643.74 124.25 L 643.97 121.94 L 644.30 122.41 L 644.56 121.91 L 644.62 121.90 L 644.84 121.75 L 644.89 121.76 L 645.13 120.91 L 645.34 119.56 L 645.99 118.12 L 646.01 118.00 L 646.20 116.29 L 646.81 112.05 L 646.83 111.90 L 646.95 111.81 L 647.09 110.29 L 647.76 108.25 L 647.78 108.07 L 647.92 107.97 L 648.07 106.96 L 648.32 106.17 L 648.34 106.02 L 648.45 104.47 L 648.47 104.43 L 648.52 103.99 L 648.81 101.23 L 648.84 101.08 L 648.94 100.91 L 649.24 100.55 L 649.30 100.54 L 649.54 100.01 L 649.94 100.07 L 650.00 100.00"/>
	</g>
	<g id="poloto_plot1" class="poloto_plot poloto_imgs poloto_line poloto1 poloto_stroke" fill="none" stroke="black">
		<path d=" M 150.00 376.95 L 150.04 376.93 L 150.06 376.91 L 150.07 376.91 L 150.10 376.91 L 150.14 376.19 L 150.29 376.16 L 150.64 376.15 L 151.16 375.87 L 151.42 375.75 L 151.95 375.78 L 152.05 375.73 L 152.11 375.73 L 152.73 375.67 L 153.89 375.54 L 154.25 372.69 L 154.34 372.69 L 155.04 372.62 L 155.85 372.61 L 155.85 372.61 L 155.86 372.61 L 166.71 372.61 L 166.79 372.61 L 166.93 372.60 L 166.99 372.56 L 167.40 372.55 L 167.59 372.55 L 168.05 372.55 L 168.11 372.55 L 168.24 372.53 L 168.38 372.53 L 168.42 372.53 L 168.53 372.49 L 168.65 372.49 L 168.77 372.49 L 169.07 372.34 L 169.34 372.34 L 169.39 372.34 L 169.52 372.34 L 170.38 373.41 L 170.40 373.41 L 170.51 373.39 L 171.00 373.23 L 171.40 373.05 L 171.84 372.97 L 171.93 372.92 L 171.95 372.92 L 172.03 372.92 L 172.20 372.92 L 172.42 372.85 L 172.84 372.79 L 172.87 372.79 L 172.94 372.79 L 173.05 372.76 L 173.29 372.76 L 173.32 372.76 L 173.57 372.75 L 173.67 372.75 L 173.76 372.75 L 173.86 372.75 L 175.19 372.62 L 175.50 372.61 L 176.24 372.56 L 176.40 372.56 L 176.51 372.56 L 176.58 372.56 L 177.08 372.47 L 177.31 372.47 L 177.57 372.37 L 177.70 372.35 L 178.00 372.12 L 178.14 372.04 L 178.32 372.04 L 178.49 372.04 L 179.07 368.71 L 179.09 368.65 L 179.11 368.65 L 179.31 368.33 L 189.38 368.33 L 190.42 366.89 L 190.46 366.89 L 191.69 366.89 L 191.79 366.89 L 191.91 366.74 L 192.21 366.71 L 192.35 366.71 L 192.40 366.71 L 192.55 366.71 L 192.91 366.71 L 192.92 366.40 L 193.06 366.39 L 193.20 366.39 L 193.35 366.36 L 193.55 366.35 L 193.63 366.35 L 193.66 366.35 L 193.83 366.35 L 193.86 366.35 L 194.05 366.35 L 194.08 366.35 L 194.37 364.94 L 194.41 364.94 L 194.51 364.77 L 194.64 364.77 L 194.80 364.77 L 194.88 364.75 L 195.44 364.75 L 195.45 364.75 L 195.56 364.66 L 195.81 364.66 L 196.04 363.85 L 196.11 363.75 L 196.22 363.75 L 196.27 363.75 L 196.40 363.73 L 197.03 357.78 L 197.10 357.82 L 197.31 357.82 L 197.38 357.82 L 197.43 357.81 L 197.53 357.81 L 197.63 357.73 L 197.85 357.73 L 198.01 357.73 L 198.14 357.72 L 198.21 357.72 L 198.78 357.71 L 199.08 357.71 L 199.18 357.56 L 199.44 357.56 L 199.47 357.56 L 199.49 357.56 L 199.66 357.16 L 199.79 357.06 L 200.26 355.64 L 200.33 355.64 L 200.42 355.64 L 200.55 355.66 L 200.56 355.66 L 200.61 355.66 L 200.66 355.66 L 200.73 355.66 L 200.79 355.66 L 200.97 355.64 L 201.11 355.64 L 201.24 355.62 L 201.42 355.62 L 201.62 355.61 L 201.83 355.08 L 201.97 354.90 L 202.26 354.90 L 202.27 354.90 L 202.44 354.90 L 216.50 354.90 L 216.76 354.89 L 217.43 354.80 L 217.56 354.78 L 217.67 354.78 L 217.70 354.78 L 217.94 354.78 L 218.10 354.78 L 218.20 354.78 L 218.30 354.78 L 218.35 354.78 L 218.61 354.78 L 219.11 354.81 L 219.24 354.81 L 219.34 354.81 L 219.46 354.81 L 220.11 354.69 L 220.20 354.64 L 220.24 354.64 L 220.29 354.56 L 220.43 354.56 L 220.54 354.56 L 221.01 354.02 L 221.69 354.02 L 221.94 354.02 L 222.69 354.02 L 223.04 350.37 L 223.17 350.37 L 223.32 350.37 L 223.54 350.36 L 223.88 350.36 L 224.36 350.36 L 225.00 350.36 L 225.10 350.36 L 225.56 350.27 L 225.86 350.12 L 225.96 350.12 L 226.14 350.12 L 226.28 350.10 L 227.94 349.87 L 229.52 349.87 L 243.67 349.87 L 243.77 349.87 L 243.84 349.87 L 244.29 349.87 L 245.61 348.72 L 245.66 348.68 L 245.85 348.57 L 246.50 348.56 L 246.81 348.28 L 247.27 348.29 L 247.38 348.29 L 247.49 348.29 L 248.31 345.09 L 248.41 345.09 L 248.58 345.09 L 248.76 345.09 L 248.84 344.88 L 249.30 344.50 L 249.47 344.50 L 249.54 344.50 L 249.64 343.91 L 249.85 343.32 L 249.93 343.32 L 250.14 343.31 L 250.75 338.55 L 250.81 338.55 L 250.87 338.55 L 250.96 338.55 L 251.12 338.55 L 251.18 338.55 L 251.23 338.55 L 251.53 338.55 L 251.60 338.44 L 251.96 338.42 L 252.17 338.36 L 252.30 337.78 L 253.40 328.30 L 253.53 328.30 L 295.11 328.30 L 295.15 328.30 L 311.03 328.30 L 311.90 328.15 L 312.08 328.15 L 312.31 328.15 L 312.39 328.15 L 312.48 328.15 L 319.37 328.08 L 320.28 327.99 L 320.62 327.99 L 320.80 327.96 L 325.09 327.88 L 325.12 327.75 L 325.39 327.75 L 326.67 326.47 L 326.74 326.47 L 326.90 326.47 L 327.35 326.47 L 327.41 326.47 L 327.59 326.47 L 327.79 326.47 L 327.82 326.47 L 341.17 326.45 L 341.27 326.22 L 341.80 326.22 L 341.81 324.67 L 341.90 324.67 L 342.02 324.67 L 342.16 324.53 L 342.39 324.53 L 342.58 324.46 L 342.75 324.46 L 342.82 324.46 L 343.09 324.44 L 344.01 321.81 L 344.39 321.81 L 344.45 321.79 L 344.53 321.79 L 344.58 321.79 L 344.70 321.75 L 345.08 321.42 L 345.14 321.38 L 345.37 319.02 L 345.45 319.01 L 345.49 319.01 L 345.58 318.97 L 345.63 318.97 L 345.68 318.97 L 345.98 317.68 L 346.10 317.66 L 346.27 317.64 L 346.38 313.64 L 346.43 313.63 L 346.72 311.38 L 346.80 311.38 L 346.86 311.38 L 346.93 311.38 L 346.98 311.38 L 347.02 311.38 L 347.04 311.38 L 347.18 307.21 L 347.24 307.21 L 347.38 307.19 L 347.48 307.19 L 347.78 307.11 L 348.15 307.00 L 348.16 307.00 L 348.26 306.97 L 348.61 306.90 L 348.77 306.90 L 348.93 306.90 L 349.10 305.11 L 349.22 305.11 L 349.69 305.10 L 349.73 305.09 L 349.79 305.09 L 349.83 305.09 L 350.14 302.53 L 350.19 302.53 L 350.42 302.51 L 370.96 302.51 L 372.13 302.50 L 372.17 302.50 L 372.40 302.50 L 372.42 302.50 L 372.57 302.50 L 372.69 302.49 L 372.78 302.37 L 372.93 302.37 L 372.97 302.37 L 373.02 302.37 L 373.24 302.13 L 373.69 301.99 L 373.97 301.84 L 374.28 301.11 L 374.30 301.11 L 374.35 300.93 L 374.39 300.91 L 375.00 300.46 L 375.01 300.46 L 375.11 300.40 L 375.37 300.40 L 375.54 300.36 L 375.57 299.29 L 375.59 299.29 L 375.66 300.34 L 375.71 300.28 L 375.73 300.27 L 375.88 298.84 L 375.89 298.84 L 376.21 298.78 L 377.09 298.78 L 377.30 298.78 L 377.36 298.78 L 377.41 298.78 L 377.46 298.78 L 377.58 298.69 L 391.63 297.51 L 391.65 297.51 L 391.77 297.50 L 391.80 297.24 L 391.88 284.59 L 392.04 279.88 L 392.05 279.88 L 392.31 279.79 L 392.37 279.79 L 392.42 279.77 L 392.65 279.77 L 393.25 278.62 L 393.27 278.62 L 393.42 278.56 L 393.48 278.56 L 393.51 278.46 L 394.02 277.77 L 394.03 277.77 L 394.80 277.63 L 394.90 277.59 L 395.17 277.60 L 395.49 276.04 L 395.57 275.89 L 395.62 275.74 L 395.76 275.16 L 396.16 275.02 L 396.24 274.89 L 396.41 274.89 L 396.60 274.89 L 397.19 274.89 L 397.26 274.89 L 397.39 274.89 L 397.41 274.89 L 397.60 274.91 L 398.04 274.91 L 398.50 274.75 L 398.57 274.75 L 398.67 274.73 L 398.80 274.73 L 399.16 274.73 L 399.75 274.73 L 399.94 274.59 L 400.27 270.50 L 401.56 274.36 L 401.84 274.34 L 402.05 274.33 L 402.37 274.33 L 402.47 274.28 L 402.79 274.26 L 403.30 274.02 L 403.37 274.02 L 403.46 274.02 L 403.52 274.02 L 403.57 274.02 L 403.97 273.80 L 413.28 273.80 L 413.37 273.81 L 413.94 273.79 L 414.00 273.79 L 414.13 273.75 L 414.24 273.47 L 414.25 273.46 L 414.57 273.43 L 414.65 273.43 L 416.56 273.20 L 416.78 273.20 L 416.95 273.20 L 416.98 273.20 L 417.57 273.03 L 417.78 273.03 L 417.81 273.03 L 418.13 273.02 L 418.48 272.06 L 418.52 272.06 L 418.81 271.89 L 418.93 271.89 L 419.04 271.89 L 419.28 271.89 L 419.80 271.88 L 419.90 271.85 L 419.99 271.76 L 420.20 271.60 L 420.71 271.45 L 421.17 267.60 L 421.26 267.47 L 421.73 267.28 L 421.81 267.24 L 421.88 267.10 L 421.93 266.83 L 422.09 265.68 L 422.13 265.73 L 422.21 265.70 L 422.47 265.70 L 422.88 265.54 L 423.13 265.48 L 423.41 265.46 L 423.55 265.45 L 423.83 265.43 L 424.30 265.43 L 424.77 265.42 L 425.12 265.42 L 425.21 265.41 L 425.30 265.41 L 425.30 265.40 L 425.58 265.40 L 425.66 265.39 L 425.77 265.24 L 426.53 265.23 L 426.54 265.23 L 426.75 265.21 L 427.64 265.21 L 428.24 265.02 L 428.67 264.85 L 428.68 264.85 L 428.71 264.85 L 441.75 264.85 L 441.79 264.85 L 441.94 264.85 L 442.01 264.85 L 442.06 264.83 L 442.07 264.83 L 442.63 264.83 L 442.75 264.81 L 442.92 264.79 L 443.19 264.76 L 443.37 264.76 L 443.59 264.67 L 443.72 264.67 L 443.78 264.67 L 443.85 264.67 L 444.01 264.32 L 444.03 264.32 L 444.09 264.32 L 444.23 264.32 L 444.32 264.32 L 444.44 264.40 L 444.59 264.40 L 444.91 264.39 L 445.05 264.39 L 445.18 264.39 L 445.98 263.26 L 446.67 262.95 L 447.49 262.14 L 447.70 262.14 L 447.93 262.14 L 448.19 262.14 L 452.98 262.04 L 453.38 262.04 L 498.80 261.89 L 641.81 261.68 L 642.28 261.62 L 642.61 261.61 L 642.94 261.61 L 643.44 261.09 L 643.61 261.09 L 643.74 261.09 L 643.97 259.19 L 644.30 259.55 L 644.56 259.52 L 644.62 259.52 L 644.84 259.51 L 644.89 259.51 L 645.13 259.50 L 645.34 259.42 L 645.99 258.22 L 646.01 258.22 L 646.20 258.11 L 646.81 254.22 L 646.83 254.22 L 646.95 254.22 L 647.09 254.16 L 647.76 252.35 L 647.78 252.35 L 647.92 252.35 L 648.07 252.31 L 648.32 251.65 L 648.34 251.65 L 648.45 251.64 L 648.47 251.64 L 648.52 251.27 L 648.81 248.70 L 648.84 248.70 L 648.94 248.70 L 649.24 248.49 L 649.30 248.49 L 649.54 248.06 L 649.94 248.06 L 650.00 248.06"/>
	</g>
	<g id="poloto_plot2" class="poloto_plot poloto_imgs poloto_line poloto2 poloto_stroke" fill="none" stroke="black">
		<path d=" M 150.00 389.66 L 150.04 389.65 L 150.06 389.65 L 150.07 389.65 L 150.10 389.65 L 150.14 387.00 L 150.29 386.64 L 150.64 386.63 L 151.16 386.62 L 151.42 385.03 L 151.95 384.89 L 152.05 384.85 L 152.11 384.81 L 152.73 384.10 L 153.89 383.54 L 154.25 383.44 L 154.34 383.44 L 155.04 383.40 L 155.85 383.40 L 155.85 383.40 L 155.86 383.40 L 166.71 383.40 L 166.79 383.39 L 166.93 383.37 L 166.99 383.37 L 167.40 383.21 L 167.59 383.17 L 168.05 382.91 L 168.11 382.80 L 168.24 382.56 L 168.38 382.53 L 168.42 382.53 L 168.53 382.48 L 168.65 382.48 L 168.77 382.49 L 169.07 382.22 L 169.34 381.98 L 169.39 381.98 L 169.52 381.84 L 170.38 381.52 L 170.40 381.51 L 170.51 381.42 L 171.00 381.06 L 171.40 380.63 L 171.84 380.46 L 171.93 380.46 L 171.95 380.46 L 172.03 380.22 L 172.20 380.22 L 172.42 380.19 L 172.84 380.01 L 172.87 379.70 L 172.94 379.70 L 173.05 379.55 L 173.29 379.55 L 173.32 379.55 L 173.57 379.08 L 173.67 379.06 L 173.76 379.01 L 173.86 378.80 L 175.19 378.67 L 175.50 378.62 L 176.24 378.30 L 176.40 378.31 L 176.51 378.29 L 176.58 378.05 L 177.08 376.75 L 177.31 376.73 L 177.57 376.34 L 177.70 376.31 L 178.00 376.13 L 178.14 376.07 L 178.32 375.79 L 178.49 375.57 L 179.07 375.57 L 179.09 375.54 L 179.11 375.35 L 179.31 374.10 L 189.38 373.97 L 190.42 373.59 L 190.46 373.54 L 191.69 373.23 L 191.79 373.23 L 191.91 373.00 L 192.21 372.84 L 192.35 372.55 L 192.40 372.32 L 192.55 371.85 L 192.91 371.85 L 192.92 371.85 L 193.06 371.52 L 193.20 371.51 L 193.35 371.17 L 193.55 370.91 L 193.63 370.76 L 193.66 370.75 L 193.83 370.44 L 193.86 370.43 L 194.05 370.15 L 194.08 370.14 L 194.37 370.04 L 194.41 370.04 L 194.51 369.93 L 194.64 369.91 L 194.80 369.91 L 194.88 369.89 L 195.44 369.61 L 195.45 369.62 L 195.56 369.05 L 195.81 369.04 L 196.04 368.86 L 196.11 368.86 L 196.22 368.86 L 196.27 368.81 L 196.40 368.04 L 197.03 367.39 L 197.10 367.03 L 197.31 367.00 L 197.38 366.91 L 197.43 366.90 L 197.53 366.73 L 197.63 366.12 L 197.85 366.03 L 198.01 366.01 L 198.14 365.70 L 198.21 365.69 L 198.78 365.47 L 199.08 365.30 L 199.18 365.16 L 199.44 365.15 L 199.47 365.15 L 199.49 365.12 L 199.66 364.01 L 199.79 364.01 L 200.26 363.85 L 200.33 363.41 L 200.42 363.40 L 200.55 363.22 L 200.56 363.11 L 200.61 363.04 L 200.66 362.99 L 200.73 362.99 L 200.79 362.90 L 200.97 361.66 L 201.11 361.53 L 201.24 361.16 L 201.42 361.13 L 201.62 361.01 L 201.83 360.62 L 201.97 359.54 L 202.26 359.46 L 202.27 359.00 L 202.44 358.89 L 216.50 358.89 L 216.76 358.89 L 217.43 358.38 L 217.56 358.38 L 217.67 358.38 L 217.70 358.25 L 217.94 358.03 L 218.10 357.99 L 218.20 357.86 L 218.30 357.76 L 218.35 357.72 L 218.61 357.65 L 219.11 357.75 L 219.24 357.41 L 219.34 357.32 L 219.46 357.31 L 220.11 357.24 L 220.20 357.18 L 220.24 357.18 L 220.29 357.11 L 220.43 357.06 L 220.54 356.93 L 221.01 356.61 L 221.69 356.47 L 221.94 356.41 L 222.69 356.21 L 223.04 355.71 L 223.17 355.62 L 223.32 355.23 L 223.54 354.72 L 223.88 354.59 L 224.36 354.57 L 225.00 354.55 L 225.10 354.37 L 225.56 354.24 L 225.86 354.08 L 225.96 353.95 L 226.14 353.90 L 226.28 353.57 L 227.94 353.40 L 229.52 353.40 L 243.67 353.36 L 243.77 353.18 L 243.84 353.05 L 244.29 352.87 L 245.61 352.53 L 245.66 352.48 L 245.85 352.24 L 246.50 352.15 L 246.81 351.49 L 247.27 351.48 L 247.38 351.46 L 247.49 350.81 L 248.31 350.21 L 248.41 350.20 L 248.58 350.17 L 248.76 350.11 L 248.84 349.89 L 249.30 348.89 L 249.47 348.64 L 249.54 348.62 L 249.64 348.51 L 249.85 348.12 L 249.93 347.11 L 250.14 346.70 L 250.75 346.47 L 250.81 345.96 L 250.87 345.96 L 250.96 345.87 L 251.12 345.74 L 251.18 345.70 L 251.23 345.65 L 251.53 344.48 L 251.60 343.79 L 251.96 343.66 L 252.17 342.49 L 252.30 342.27 L 253.40 340.44 L 253.53 340.40 L 295.11 339.87 L 295.15 339.87 L 311.03 339.72 L 311.90 339.52 L 312.08 339.52 L 312.31 339.43 L 312.39 339.28 L 312.48 339.24 L 319.37 339.23 L 320.28 337.12 L 320.62 336.94 L 320.80 336.21 L 325.09 336.12 L 325.12 336.05 L 325.39 336.04 L 326.67 335.91 L 326.74 335.67 L 326.90 335.58 L 327.35 335.47 L 327.41 335.44 L 327.59 335.03 L 327.79 334.91 L 327.82 334.60 L 341.17 334.20 L 341.27 333.24 L 341.80 332.99 L 341.81 332.63 L 341.90 332.34 L 342.02 331.90 L 342.16 330.74 L 342.39 330.10 L 342.58 329.28 L 342.75 329.28 L 342.82 328.65 L 343.09 328.60 L 344.01 328.00 L 344.39 327.72 L 344.45 327.55 L 344.53 327.55 L 344.58 327.34 L 344.70 326.62 L 345.08 326.55 L 345.14 326.54 L 345.37 326.08 L 345.45 326.08 L 345.49 325.81 L 345.58 325.64 L 345.63 325.63 L 345.68 325.26 L 345.98 325.03 L 346.10 324.66 L 346.27 324.65 L 346.38 324.45 L 346.43 324.16 L 346.72 324.01 L 346.80 323.85 L 346.86 323.85 L 346.93 323.84 L 346.98 323.55 L 347.02 323.56 L 347.04 323.55 L 347.18 323.46 L 347.24 323.13 L 347.38 323.13 L 347.48 323.05 L 347.78 323.03 L 348.15 322.99 L 348.16 322.99 L 348.26 322.97 L 348.61 322.97 L 348.77 322.97 L 348.93 322.97 L 349.10 322.92 L 349.22 322.53 L 349.69 322.53 L 349.73 322.31 L 349.79 322.30 L 349.83 322.04 L 350.14 321.95 L 350.19 321.89 L 350.42 321.89 L 370.96 321.82 L 372.13 321.71 L 372.17 321.71 L 372.40 321.71 L 372.42 321.71 L 372.57 321.26 L 372.69 321.24 L 372.78 321.12 L 372.93 321.05 L 372.97 321.01 L 373.02 320.98 L 373.24 320.94 L 373.69 320.85 L 373.97 320.24 L 374.28 320.21 L 374.30 320.17 L 374.35 319.66 L 374.39 319.66 L 375.00 319.66 L 375.01 319.61 L 375.11 319.14 L 375.37 319.07 L 375.54 319.06 L 375.57 319.05 L 375.59 318.99 L 375.66 318.96 L 375.71 318.48 L 375.73 318.47 L 375.88 318.47 L 375.89 318.43 L 376.21 318.38 L 377.09 318.36 L 377.30 318.32 L 377.36 318.31 L 377.41 318.15 L 377.46 318.15 L 377.58 317.61 L 391.63 317.44 L 391.65 317.29 L 391.77 317.18 L 391.80 317.16 L 391.88 316.70 L 392.04 316.58 L 392.05 316.56 L 392.31 316.55 L 392.37 316.55 L 392.42 316.09 L 392.65 316.04 L 393.25 316.02 L 393.27 315.99 L 393.42 315.74 L 393.48 315.75 L 393.51 315.32 L 394.02 315.32 L 394.03 315.30 L 394.80 315.19 L 394.90 314.69 L 395.17 314.69 L 395.49 314.68 L 395.57 314.31 L 395.62 314.02 L 395.76 314.01 L 396.16 313.94 L 396.24 313.92 L 396.41 313.80 L 396.60 313.80 L 397.19 313.80 L 397.26 313.80 L 397.39 313.78 L 397.41 313.78 L 397.60 313.78 L 398.04 313.74 L 398.50 313.69 L 398.57 313.69 L 398.67 313.64 L 398.80 313.50 L 399.16 313.50 L 399.75 313.33 L 399.94 313.05 L 400.27 313.02 L 401.56 312.71 L 401.84 312.71 L 402.05 312.70 L 402.37 312.69 L 402.47 312.67 L 402.79 312.51 L 403.30 312.49 L 403.37 312.35 L 403.46 312.28 L 403.52 312.30 L 403.57 312.25 L 403.97 312.23 L 413.28 312.22 L 413.37 312.22 L 413.94 312.22 L 414.00 312.20 L 414.13 311.78 L 414.24 311.76 L 414.25 311.76 L 414.57 311.75 L 414.65 311.73 L 416.56 311.10 L 416.78 311.03 L 416.95 311.02 L 416.98 311.02 L 417.57 311.00 L 417.78 311.09 L 417.81 311.09 L 418.13 311.04 L 418.48 310.45 L 418.52 310.44 L 418.81 310.42 L 418.93 310.42 L 419.04 310.42 L 419.28 310.30 L 419.80 309.76 L 419.90 309.76 L 419.99 309.68 L 420.20 309.19 L 420.71 308.65 L 421.17 308.68 L 421.26 308.39 L 421.73 308.39 L 421.81 308.36 L 421.88 308.33 L 421.93 308.04 L 422.09 308.04 L 422.13 308.04 L 422.21 308.04 L 422.47 308.04 L 422.88 307.81 L 423.13 307.78 L 423.41 307.78 L 423.55 307.78 L 423.83 307.78 L 424.30 307.78 L 424.77 307.78 L 425.12 307.78 L 425.21 307.77 L 425.30 307.77 L 425.30 307.67 L 425.58 307.59 L 425.66 307.59 L 425.77 307.58 L 426.53 307.57 L 426.54 307.29 L 426.75 307.29 L 427.64 307.30 L 428.24 307.29 L 428.67 307.23 L 428.68 307.12 L 428.71 307.12 L 441.75 306.93 L 441.79 306.92 L 441.94 306.91 L 442.01 306.74 L 442.06 306.74 L 442.07 306.73 L 442.63 306.68 L 442.75 306.11 L 442.92 305.98 L 443.19 304.86 L 443.37 304.85 L 443.59 304.37 L 443.72 304.43 L 443.78 304.42 L 443.85 303.81 L 444.01 303.70 L 444.03 303.28 L 444.09 303.22 L 444.23 303.18 L 444.32 302.97 L 444.44 305.48 L 444.59 305.44 L 444.91 304.43 L 445.05 304.21 L 445.18 303.98 L 445.98 303.59 L 446.67 303.16 L 447.49 302.57 L 447.70 302.50 L 447.93 302.50 L 448.19 302.45 L 452.98 302.15 L 453.38 302.12 L 498.80 301.34 L 641.81 301.31 L 642.28 300.96 L 642.61 300.90 L 642.94 300.90 L 643.44 300.58 L 643.61 300.21 L 643.74 299.52 L 643.97 299.33 L 644.30 299.40 L 644.56 298.99 L 644.62 298.99 L 644.84 298.86 L 644.89 298.86 L 645.13 298.19 L 645.34 297.16 L 645.99 297.06 L 646.01 296.95 L 646.20 295.62 L 646.81 295.57 L 646.83 295.44 L 646.95 295.36 L 647.09 294.15 L 647.76 294.09 L 647.78 293.92 L 647.92 293.84 L 648.07 293.05 L 648.32 293.02 L 648.34 292.89 L 648.45 291.57 L 648.47 291.54 L 648.52 291.50 L 648.81 291.50 L 648.84 291.36 L 648.94 291.27 L 649.24 291.14 L 649.30 291.14 L 649.54 291.07 L 649.94 291.12 L 650.00 291.06"/>
	</g>
	<g class="poloto_legend poloto_imgs poloto_line poloto0 poloto_stroke"><line x1="680" x2="730" y1="81.25" y2="81.25"/></g>
	<g class="poloto_legend poloto_imgs poloto_line poloto1 poloto_stroke"><line x1="680" x2="730" y1="131.25" y2="131.25"/></g>
	<g class="poloto_legend poloto_imgs poloto_line poloto2 poloto_stroke"><line x1="680" x2="730" y1="181.25" y2="181.25"/></g>
	<text class="poloto_legend poloto_text poloto_line poloto0" x="675" y="100">total</text>
	<text class="poloto_legend poloto_text poloto_line poloto1" x="675" y="150">code</text>
	<text class="poloto_legend poloto_text poloto_line poloto2" x="675" y="200">docs</text>
	<text class="poloto_text poloto_name poloto_title" x="400.00" y="37.50">Workspace lines over time</text>
	<text class="poloto_text poloto_name poloto_x" x="400.00" y="640">date (JST)</text>
	<text class="poloto_text poloto_name poloto_y" x="37.50" y="250.00" transform="rotate(-90,37.50,250.00)">lines</text>
	<text class="poloto_text poloto_ticks poloto_y">
		<tspan x="135.00" y="400.00">0</tspan>
		<tspan x="135.00" y="301.68">50K</tspan>
		<tspan x="135.00" y="203.36">100K</tspan>
		<tspan x="135.00" y="105.04">150K</tspan>
	</text>
	<g class="poloto_imgs poloto_ticks poloto_y" stroke="black">
		<line x1="150.00" x2="144.00" y1="400.00" y2="400.00"/>
		<line x1="150.00" x2="144.00" y1="301.68" y2="301.68"/>
		<line x1="150.00" x2="144.00" y1="203.36" y2="203.36"/>
		<line x1="150.00" x2="144.00" y1="105.04" y2="105.04"/>
	</g>
	<g class="poloto_text poloto_ticks poloto_x">
		<text x="185.93" y="430.00" text-anchor="end" transform="rotate(-90 185.93 430.00)">2026-04-22 04:33</text>
		<text x="243.49" y="430.00" text-anchor="end" transform="rotate(-90 243.49 430.00)">2026-04-24 12:06</text>
		<text x="301.05" y="430.00" text-anchor="end" transform="rotate(-90 301.05 430.00)">2026-04-26 19:40</text>
		<text x="358.62" y="430.00" text-anchor="end" transform="rotate(-90 358.62 430.00)">2026-04-29 03:13</text>
		<text x="416.18" y="430.00" text-anchor="end" transform="rotate(-90 416.18 430.00)">2026-05-01 10:46</text>
		<text x="473.75" y="430.00" text-anchor="end" transform="rotate(-90 473.75 430.00)">2026-05-03 18:20</text>
		<text x="531.31" y="430.00" text-anchor="end" transform="rotate(-90 531.31 430.00)">2026-05-06 01:53</text>
		<text x="588.88" y="430.00" text-anchor="end" transform="rotate(-90 588.88 430.00)">2026-05-08 09:26</text>
		<text x="646.44" y="430.00" text-anchor="end" transform="rotate(-90 646.44 430.00)">2026-05-10 17:00</text>
	</g>
	<g class="poloto_imgs poloto_ticks poloto_x" stroke="black">
		<line x1="185.93" x2="185.93" y1="400.00" y2="405.00"/>
		<line x1="243.49" x2="243.49" y1="400.00" y2="405.00"/>
		<line x1="301.05" x2="301.05" y1="400.00" y2="405.00"/>
		<line x1="358.62" x2="358.62" y1="400.00" y2="405.00"/>
		<line x1="416.18" x2="416.18" y1="400.00" y2="405.00"/>
		<line x1="473.75" x2="473.75" y1="400.00" y2="405.00"/>
		<line x1="531.31" x2="531.31" y1="400.00" y2="405.00"/>
		<line x1="588.88" x2="588.88" y1="400.00" y2="405.00"/>
		<line x1="646.44" x2="646.44" y1="400.00" y2="405.00"/>
	</g>
	<path class="poloto_imgs poloto_ticks poloto_x" stroke="black" style="stroke-dasharray:7.19551598469485;stroke-dashoffset:-35.92663567030104;" d=" M 150.00 400.00 L 650.00 400.00"/>
	<path class="poloto_imgs poloto_ticks poloto_y" stroke="black" style="stroke-dasharray:9.832003827926822;stroke-dashoffset:-0;" d=" M 150.00 400.00 L 150.00 100.00"/>
</svg>

