<svg class="poloto" width="800" height="680" viewBox="0 0 800 680" xmlns="http://www.w3.org/2000/svg">
	<style>
.poloto{
  stroke-linecap:round;
  stroke-linejoin:round;
  font-family:Roboto,sans-serif;
  font-size:16px;
}
.poloto_background{fill:AliceBlue;}
.poloto_scatter{stroke-width:7}
.poloto_line{stroke-width:2}
.poloto_text{fill: black;}
.poloto_name{font-size:24px;dominant-baseline:auto;text-anchor:middle;}
.poloto_where{dominant-baseline:middle;text-anchor:start}
.poloto_text.poloto_legend{font-size:20px;dominant-baseline:middle;text-anchor:start;}
.poloto_text.poloto_ticks.poloto_y{dominant-baseline:middle;text-anchor:end}
.poloto_text.poloto_ticks.poloto_x{dominant-baseline:auto;text-anchor:middle}
.poloto_imgs.poloto_ticks{stroke: black;stroke-width:3;fill:none;stroke-dasharray:none}
.poloto_grid{stroke:gray;stroke-width:0.5}

.poloto0.poloto_stroke{stroke:blue;}
.poloto1.poloto_stroke{stroke:red;}
.poloto2.poloto_stroke{stroke:green;}
.poloto3.poloto_stroke{stroke:gold;}
.poloto4.poloto_stroke{stroke:aqua;}
.poloto5.poloto_stroke{stroke:lime;}
.poloto6.poloto_stroke{stroke:orange;}
.poloto7.poloto_stroke{stroke:chocolate;}
.poloto0.poloto_fill{fill:blue;}
.poloto1.poloto_fill{fill:red;}
.poloto2.poloto_fill{fill:green;}
.poloto3.poloto_fill{fill:gold;}
.poloto4.poloto_fill{fill:aqua;}
.poloto5.poloto_fill{fill:lime;}
.poloto6.poloto_fill{fill:orange;}
.poloto7.poloto_fill{fill:chocolate;}
	</style>
	<circle r="1e5" class="poloto_background" fill="white"/>
	<g id="poloto_plot0" class="poloto_plot poloto_imgs poloto_line poloto0 poloto_stroke" fill="none" stroke="black">
		<path d=" M 150.00 365.00 L 150.03 364.97 L 150.05 364.95 L 150.06 364.95 L 150.09 364.95 L 150.13 361.15 L 150.27 360.69 L 150.59 360.67 L 151.06 360.36 L 151.30 358.43 L 151.78 358.31 L 151.87 358.21 L 151.93 358.17 L 152.50 357.22 L 153.55 356.46 L 153.89 353.48 L 153.97 353.48 L 154.61 353.36 L 155.34 353.35 L 155.35 353.35 L 155.35 353.35 L 165.28 353.35 L 165.35 353.34 L 165.47 353.32 L 165.53 353.29 L 165.90 353.11 L 166.08 353.07 L 166.50 352.79 L 166.56 352.67 L 166.68 352.40 L 166.80 352.36 L 166.84 352.36 L 166.94 352.29 L 167.05 352.29 L 167.16 352.29 L 167.43 351.85 L 167.68 351.57 L 167.72 351.58 L 167.84 351.41 L 168.63 352.10 L 168.65 352.09 L 168.75 351.98 L 169.20 351.47 L 169.56 350.86 L 169.96 350.59 L 170.05 350.54 L 170.06 350.55 L 170.14 350.31 L 170.29 350.31 L 170.49 350.23 L 170.88 350.00 L 170.90 349.64 L 170.97 349.64 L 171.07 349.45 L 171.29 349.45 L 171.31 349.45 L 171.55 348.95 L 171.64 348.92 L 171.72 348.88 L 171.81 348.67 L 173.02 348.40 L 173.31 348.34 L 173.99 347.98 L 174.13 347.98 L 174.23 347.97 L 174.29 347.71 L 174.76 346.20 L 174.96 346.17 L 175.20 345.67 L 175.32 345.62 L 175.60 345.20 L 175.72 345.05 L 175.88 344.78 L 176.04 344.54 L 176.57 341.07 L 176.59 340.98 L 176.61 340.77 L 176.80 339.11 L 186.00 338.98 L 186.95 337.08 L 186.98 337.03 L 188.11 336.74 L 188.20 336.73 L 188.31 336.35 L 188.58 336.16 L 188.71 335.84 L 188.75 335.55 L 188.90 335.05 L 189.23 335.05 L 189.24 334.71 L 189.36 334.34 L 189.49 334.33 L 189.63 333.91 L 189.81 333.61 L 189.88 333.46 L 189.90 333.46 L 190.06 333.13 L 190.09 333.12 L 190.26 332.80 L 190.29 332.79 L 190.55 331.22 L 190.60 331.22 L 190.69 330.96 L 190.80 330.94 L 190.95 330.94 L 191.02 330.91 L 191.54 330.61 L 191.55 330.62 L 191.65 329.93 L 191.88 329.91 L 192.08 328.86 L 192.15 328.77 L 192.25 328.76 L 192.29 328.72 L 192.41 327.91 L 192.99 321.10 L 193.05 320.77 L 193.25 320.74 L 193.31 320.65 L 193.35 320.63 L 193.45 320.45 L 193.54 319.68 L 193.74 319.52 L 193.88 319.50 L 194.00 319.16 L 194.06 319.15 L 194.59 318.90 L 194.87 318.71 L 194.95 318.40 L 195.19 318.39 L 195.22 318.39 L 195.24 318.36 L 195.39 316.72 L 195.51 316.62 L 195.94 314.97 L 196.01 314.49 L 196.09 314.48 L 196.20 314.30 L 196.22 314.17 L 196.27 314.09 L 196.31 314.05 L 196.37 314.04 L 196.42 313.96 L 196.59 312.61 L 196.72 312.41 L 196.84 312.01 L 197.00 311.98 L 197.19 311.86 L 197.37 310.90 L 197.50 309.58 L 197.77 309.50 L 197.78 309.01 L 197.93 308.84 L 210.78 308.85 L 211.03 308.83 L 211.63 308.13 L 211.76 308.11 L 211.86 308.11 L 211.88 307.94 L 212.10 307.72 L 212.25 307.68 L 212.34 307.55 L 212.43 307.46 L 212.48 307.41 L 212.71 307.35 L 213.18 307.27 L 213.29 306.90 L 213.38 306.81 L 213.49 306.80 L 214.09 306.62 L 214.17 306.51 L 214.21 306.51 L 214.25 306.38 L 214.38 306.32 L 214.48 306.19 L 214.91 305.30 L 215.53 305.16 L 215.76 305.10 L 216.44 304.88 L 216.77 300.59 L 216.88 300.50 L 217.02 300.08 L 217.23 299.52 L 217.54 299.36 L 217.97 299.34 L 218.56 299.33 L 218.64 299.14 L 219.07 298.94 L 219.34 298.63 L 219.43 298.51 L 219.60 298.46 L 219.73 298.08 L 221.24 297.66 L 222.69 297.66 L 235.62 297.62 L 235.71 297.43 L 235.78 297.31 L 236.19 297.13 L 237.39 295.65 L 237.44 295.55 L 237.61 295.17 L 238.21 295.08 L 238.49 294.07 L 238.92 294.07 L 239.02 294.05 L 239.11 293.37 L 239.86 289.47 L 239.95 289.46 L 240.11 289.43 L 240.28 289.38 L 240.35 288.96 L 240.77 287.49 L 240.92 287.21 L 240.99 287.19 L 241.08 286.51 L 241.27 285.56 L 241.35 284.54 L 241.54 284.09 L 242.10 279.02 L 242.15 278.51 L 242.20 278.51 L 242.29 278.42 L 242.43 278.29 L 242.48 278.24 L 242.54 278.19 L 242.81 276.97 L 242.87 276.12 L 243.20 275.95 L 243.39 274.67 L 243.52 273.87 L 244.52 262.05 L 244.63 262.02 L 282.64 261.46 L 282.68 261.46 L 297.20 261.29 L 297.99 260.97 L 298.15 260.97 L 298.37 260.88 L 298.44 260.73 L 298.52 260.69 L 304.82 260.61 L 305.65 258.36 L 305.96 258.16 L 306.13 257.33 L 310.05 257.17 L 310.07 256.94 L 310.32 256.92 L 311.49 255.50 L 311.56 255.24 L 311.70 255.15 L 312.12 255.05 L 312.17 255.02 L 312.33 254.59 L 312.51 254.48 L 312.54 254.16 L 324.75 253.73 L 324.84 252.52 L 325.32 252.25 L 325.33 250.22 L 325.42 249.92 L 325.52 249.43 L 325.65 248.03 L 325.86 247.29 L 326.03 246.42 L 326.19 246.41 L 326.26 245.75 L 326.50 245.69 L 327.35 242.43 L 327.69 242.08 L 327.74 241.87 L 327.82 241.87 L 327.86 241.64 L 327.98 240.84 L 328.32 240.45 L 328.37 240.41 L 328.58 237.53 L 328.66 237.52 L 328.70 237.21 L 328.77 236.98 L 328.83 236.98 L 328.87 236.55 L 329.14 234.99 L 329.26 234.55 L 329.40 234.49 L 329.51 230.34 L 329.55 230.00 L 329.82 227.63 L 329.89 227.45 L 329.94 227.44 L 330.01 227.44 L 330.05 227.10 L 330.09 227.11 L 330.11 227.11 L 330.24 222.91 L 330.29 222.55 L 330.42 222.53 L 330.52 222.46 L 330.79 222.34 L 331.13 222.18 L 331.14 222.18 L 331.23 222.13 L 331.54 222.05 L 331.69 222.05 L 331.84 222.05 L 332.00 220.22 L 332.10 219.78 L 332.53 219.77 L 332.57 219.49 L 332.63 219.48 L 332.66 219.17 L 332.94 216.53 L 332.99 216.46 L 333.20 216.45 L 351.98 216.37 L 353.05 216.23 L 353.08 216.23 L 353.30 216.23 L 353.31 216.23 L 353.45 215.71 L 353.55 215.69 L 353.64 215.43 L 353.78 215.36 L 353.81 215.33 L 353.86 215.30 L 354.06 215.01 L 354.47 214.75 L 354.73 213.90 L 355.01 213.09 L 355.03 213.05 L 355.07 212.29 L 355.11 212.26 L 355.67 211.81 L 355.68 211.76 L 355.77 211.16 L 356.01 211.10 L 356.16 211.04 L 356.19 209.97 L 356.21 209.92 L 356.27 210.93 L 356.31 210.31 L 356.34 210.28 L 356.47 208.85 L 356.48 208.81 L 356.78 208.69 L 357.58 208.67 L 357.77 208.62 L 357.83 208.61 L 357.87 208.42 L 357.92 208.42 L 358.03 207.71 L 370.87 206.35 L 370.89 206.16 L 371.00 206.03 L 371.03 205.76 L 371.10 193.81 L 371.24 188.91 L 371.26 188.88 L 371.49 188.78 L 371.55 188.78 L 371.59 188.22 L 371.80 188.17 L 372.35 187.01 L 372.37 186.98 L 372.51 186.63 L 372.56 186.64 L 372.59 186.06 L 373.06 185.38 L 373.07 185.35 L 373.77 185.09 L 373.86 184.48 L 374.11 184.49 L 374.40 182.95 L 374.47 182.34 L 374.52 181.85 L 374.65 181.25 L 375.02 181.04 L 375.08 180.89 L 375.24 180.76 L 375.41 180.76 L 375.95 180.76 L 376.02 180.76 L 376.14 180.73 L 376.15 180.73 L 376.32 180.75 L 376.73 180.71 L 377.15 180.49 L 377.21 180.49 L 377.31 180.40 L 377.43 180.23 L 377.75 180.23 L 378.29 180.02 L 378.47 179.54 L 378.76 175.42 L 379.94 178.90 L 380.20 178.89 L 380.39 178.87 L 380.69 178.87 L 380.78 178.80 L 381.07 178.61 L 381.54 178.32 L 381.60 178.13 L 381.69 178.05 L 381.74 178.07 L 381.79 178.01 L 382.15 177.76 L 390.66 177.75 L 390.74 177.76 L 391.27 177.74 L 391.32 177.72 L 391.44 177.20 L 391.54 176.90 L 391.55 176.90 L 391.84 176.85 L 391.91 176.83 L 393.66 176.05 L 393.86 175.99 L 394.01 175.97 L 394.05 175.97 L 394.58 175.78 L 394.77 175.87 L 394.80 175.87 L 395.09 175.82 L 395.41 174.19 L 395.45 174.18 L 395.71 173.99 L 395.82 173.99 L 395.92 173.99 L 396.14 173.81 L 396.62 173.15 L 396.71 173.13 L 396.79 172.94 L 396.99 172.17 L 397.45 171.36 L 397.87 167.57 L 397.96 167.10 L 398.38 166.92 L 398.46 166.82 L 398.52 166.64 L 398.57 166.03 L 398.72 164.94 L 398.75 164.98 L 398.82 164.96 L 399.06 164.96 L 399.43 164.56 L 399.66 164.48 L 399.92 164.47 L 400.04 164.45 L 400.30 164.44 L 400.73 164.44 L 401.16 164.43 L 401.49 164.42 L 401.56 164.41 L 401.64 164.40 L 401.65 164.27 L 401.90 164.19 L 401.97 164.18 L 402.07 164.01 L 402.77 163.99 L 402.78 163.66 L 402.97 163.64 L 403.79 163.65 L 404.33 163.45 L 404.72 163.21 L 404.74 163.08 L 404.77 163.07 L 416.69 162.85 L 416.72 162.84 L 416.86 162.83 L 416.93 162.64 L 416.97 162.62 L 416.98 162.61 L 417.49 162.56 L 417.60 161.87 L 417.75 161.71 L 418.00 160.36 L 418.17 160.35 L 418.37 159.77 L 418.49 159.84 L 418.54 159.84 L 418.60 159.18 L 418.75 158.73 L 418.77 158.25 L 418.82 158.19 L 418.95 158.15 L 419.03 157.93 L 419.14 160.51 L 419.28 160.46 L 419.58 159.43 L 419.71 159.18 L 419.82 158.96 L 420.55 157.48 L 421.18 156.76 L 421.93 155.40 L 422.12 155.33 L 422.34 155.33 L 422.57 155.27 L 426.95 154.88 L 427.31 154.85 L 468.83 153.80 L 599.56 153.56 L 599.99 153.14 L 600.29 153.09 L 600.59 153.09 L 601.05 152.28 L 601.20 151.90 L 601.32 151.17 L 601.53 149.09 L 601.83 149.52 L 602.07 149.07 L 602.13 149.06 L 602.33 148.92 L 602.38 148.93 L 602.59 148.16 L 602.78 146.94 L 603.38 145.65 L 603.40 145.54 L 603.57 143.99 L 604.13 140.17 L 604.14 140.04 L 604.25 139.95 L 604.39 138.58 L 605.00 136.74 L 605.01 136.57 L 605.14 136.49 L 605.28 135.58 L 605.51 134.86 L 605.52 134.73 L 605.62 133.32 L 605.64 133.29 L 605.69 132.90 L 605.95 130.41 L 605.98 130.27 L 606.07 130.12 L 606.35 129.79 L 606.41 129.78 L 606.62 129.30 L 606.99 129.36 L 607.04 129.30 L 607.09 129.26 L 607.16 129.23 L 607.34 127.76 L 607.53 126.57 L 607.56 126.46 L 607.67 124.97 L 607.78 123.52 L 607.80 123.33 L 607.92 121.63 L 607.97 120.29 L 608.20 119.38 L 608.23 119.32 L 608.34 119.04 L 608.50 119.01 L 609.44 118.97 L 609.90 118.93 L 620.12 118.99 L 620.22 118.73 L 620.32 118.51 L 620.49 117.50 L 620.88 117.24 L 620.91 117.14 L 620.98 115.82 L 621.22 114.53 L 621.25 114.42 L 623.48 114.33 L 623.61 113.61 L 624.74 113.39 L 624.86 113.34 L 624.99 111.85 L 626.35 110.44 L 626.93 109.91 L 627.07 108.81 L 627.56 106.93 L 627.86 106.39 L 628.36 105.29 L 629.26 104.72 L 642.92 104.71 L 643.74 104.59 L 643.78 104.61 L 644.92 104.39 L 644.98 104.28 L 645.38 104.20 L 645.85 102.97 L 645.85 102.97 L 645.90 102.92 L 646.51 101.53 L 647.91 100.73 L 648.00 100.65 L 648.15 100.64 L 648.36 100.28 L 648.42 100.18 L 648.50 100.11 L 649.15 100.06 L 649.68 100.06 L 649.96 100.05 L 650.00 100.00"/>
	</g>
	<g id="poloto_plot1" class="poloto_plot poloto_imgs poloto_line poloto1 poloto_stroke" fill="none" stroke="black">
		<path d=" M 150.00 379.20 L 150.03 379.18 L 150.05 379.17 L 150.06 379.17 L 150.09 379.17 L 150.13 378.51 L 150.27 378.49 L 150.59 378.48 L 151.06 378.23 L 151.30 378.12 L 151.78 378.14 L 151.87 378.10 L 151.93 378.10 L 152.50 378.05 L 153.55 377.92 L 153.89 375.35 L 153.97 375.35 L 154.61 375.29 L 155.34 375.28 L 155.35 375.28 L 155.35 375.28 L 165.28 375.28 L 165.35 375.28 L 165.47 375.28 L 165.53 375.24 L 165.90 375.23 L 166.08 375.23 L 166.50 375.23 L 166.56 375.23 L 166.68 375.21 L 166.80 375.21 L 166.84 375.21 L 166.94 375.18 L 167.05 375.18 L 167.16 375.18 L 167.43 375.04 L 167.68 375.04 L 167.72 375.04 L 167.84 375.04 L 168.63 376.00 L 168.65 376.00 L 168.75 375.99 L 169.20 375.85 L 169.56 375.69 L 169.96 375.61 L 170.05 375.56 L 170.06 375.56 L 170.14 375.56 L 170.29 375.56 L 170.49 375.50 L 170.88 375.44 L 170.90 375.44 L 170.97 375.44 L 171.07 375.42 L 171.29 375.42 L 171.31 375.42 L 171.55 375.41 L 171.64 375.41 L 171.72 375.41 L 171.81 375.41 L 173.02 375.30 L 173.31 375.29 L 173.99 375.24 L 174.13 375.24 L 174.23 375.24 L 174.29 375.24 L 174.76 375.16 L 174.96 375.16 L 175.20 375.06 L 175.32 375.05 L 175.60 374.85 L 175.72 374.77 L 175.88 374.77 L 176.04 374.77 L 176.57 371.76 L 176.59 371.71 L 176.61 371.71 L 176.80 371.42 L 186.00 371.42 L 186.95 370.12 L 186.98 370.12 L 188.11 370.12 L 188.20 370.12 L 188.31 369.98 L 188.58 369.96 L 188.71 369.96 L 188.75 369.96 L 188.90 369.96 L 189.23 369.96 L 189.24 369.68 L 189.36 369.67 L 189.49 369.67 L 189.63 369.64 L 189.81 369.64 L 189.88 369.64 L 189.90 369.64 L 190.06 369.64 L 190.09 369.64 L 190.26 369.64 L 190.29 369.64 L 190.55 368.36 L 190.60 368.36 L 190.69 368.21 L 190.80 368.21 L 190.95 368.21 L 191.02 368.19 L 191.54 368.19 L 191.55 368.19 L 191.65 368.11 L 191.88 368.11 L 192.08 367.38 L 192.15 367.29 L 192.25 367.29 L 192.29 367.29 L 192.41 367.27 L 192.99 361.90 L 193.05 361.94 L 193.25 361.94 L 193.31 361.94 L 193.35 361.93 L 193.45 361.93 L 193.54 361.86 L 193.74 361.86 L 193.88 361.86 L 194.00 361.85 L 194.06 361.85 L 194.59 361.84 L 194.87 361.84 L 194.95 361.71 L 195.19 361.71 L 195.22 361.71 L 195.24 361.71 L 195.39 361.35 L 195.51 361.25 L 195.94 359.98 L 196.01 359.98 L 196.09 359.98 L 196.20 359.99 L 196.22 359.99 L 196.27 359.99 L 196.31 359.99 L 196.37 359.99 L 196.42 359.99 L 196.59 359.97 L 196.72 359.97 L 196.84 359.95 L 197.00 359.95 L 197.19 359.94 L 197.37 359.47 L 197.50 359.31 L 197.77 359.31 L 197.78 359.30 L 197.93 359.30 L 210.78 359.30 L 211.03 359.29 L 211.63 359.21 L 211.76 359.20 L 211.86 359.20 L 211.88 359.20 L 212.10 359.20 L 212.25 359.20 L 212.34 359.20 L 212.43 359.20 L 212.48 359.19 L 212.71 359.19 L 213.18 359.22 L 213.29 359.22 L 213.38 359.22 L 213.49 359.22 L 214.09 359.12 L 214.17 359.07 L 214.21 359.07 L 214.25 359.00 L 214.38 359.00 L 214.48 358.99 L 214.91 358.51 L 215.53 358.51 L 215.76 358.51 L 216.44 358.51 L 216.77 355.22 L 216.88 355.21 L 217.02 355.21 L 217.23 355.21 L 217.54 355.21 L 217.97 355.21 L 218.56 355.21 L 218.64 355.21 L 219.07 355.13 L 219.34 354.99 L 219.43 354.99 L 219.60 354.99 L 219.73 354.98 L 221.24 354.77 L 222.69 354.77 L 235.62 354.76 L 235.71 354.76 L 235.78 354.76 L 236.19 354.76 L 237.39 353.73 L 237.44 353.70 L 237.61 353.59 L 238.21 353.58 L 238.49 353.33 L 238.92 353.34 L 239.02 353.34 L 239.11 353.34 L 239.86 350.45 L 239.95 350.45 L 240.11 350.45 L 240.28 350.45 L 240.35 350.27 L 240.77 349.92 L 240.92 349.92 L 240.99 349.92 L 241.08 349.39 L 241.27 348.86 L 241.35 348.86 L 241.54 348.84 L 242.10 344.55 L 242.15 344.55 L 242.20 344.55 L 242.29 344.55 L 242.43 344.55 L 242.48 344.55 L 242.54 344.55 L 242.81 344.55 L 242.87 344.45 L 243.20 344.43 L 243.39 344.37 L 243.52 343.86 L 244.52 335.30 L 244.63 335.30 L 282.64 335.30 L 282.68 335.30 L 297.20 335.30 L 297.99 335.17 L 298.15 335.17 L 298.37 335.17 L 298.44 335.17 L 298.52 335.17 L 304.82 335.10 L 305.65 335.02 L 305.96 335.02 L 306.13 335.00 L 310.05 334.92 L 310.07 334.81 L 310.32 334.81 L 311.49 333.65 L 311.56 333.65 L 311.70 333.65 L 312.12 333.65 L 312.17 333.65 L 312.33 333.65 L 312.51 333.65 L 312.54 333.65 L 324.75 333.63 L 324.84 333.43 L 325.32 333.43 L 325.33 332.03 L 325.42 332.03 L 325.52 332.03 L 325.65 331.90 L 325.86 331.90 L 326.03 331.84 L 326.19 331.84 L 326.26 331.84 L 326.50 331.82 L 327.35 329.45 L 327.69 329.44 L 327.74 329.43 L 327.82 329.43 L 327.86 329.43 L 327.98 329.39 L 328.32 329.10 L 328.37 329.05 L 328.58 326.92 L 328.66 326.92 L 328.70 326.92 L 328.77 326.88 L 328.83 326.88 L 328.87 326.88 L 329.14 325.72 L 329.26 325.70 L 329.40 325.68 L 329.51 322.07 L 329.55 322.07 L 329.82 320.04 L 329.89 320.04 L 329.94 320.03 L 330.01 320.03 L 330.05 320.03 L 330.09 320.03 L 330.11 320.03 L 330.24 316.27 L 330.29 316.27 L 330.42 316.25 L 330.52 316.25 L 330.79 316.18 L 331.13 316.08 L 331.14 316.08 L 331.23 316.05 L 331.54 315.99 L 331.69 315.99 L 331.84 315.99 L 332.00 314.37 L 332.10 314.37 L 332.53 314.37 L 332.57 314.36 L 332.63 314.36 L 332.66 314.36 L 332.94 312.05 L 332.99 312.05 L 333.20 312.03 L 351.98 312.03 L 353.05 312.02 L 353.08 312.02 L 353.30 312.02 L 353.31 312.02 L 353.45 312.02 L 353.55 312.02 L 353.64 311.90 L 353.78 311.90 L 353.81 311.90 L 353.86 311.90 L 354.06 311.69 L 354.47 311.56 L 354.73 311.42 L 355.01 310.77 L 355.03 310.77 L 355.07 310.60 L 355.11 310.58 L 355.67 310.18 L 355.68 310.18 L 355.77 310.13 L 356.01 310.13 L 356.16 310.09 L 356.19 309.13 L 356.21 309.13 L 356.27 310.07 L 356.31 310.02 L 356.34 310.01 L 356.47 308.72 L 356.48 308.72 L 356.78 308.67 L 357.58 308.67 L 357.77 308.67 L 357.83 308.67 L 357.87 308.67 L 357.92 308.67 L 358.03 308.58 L 370.87 307.51 L 370.89 307.51 L 371.00 307.51 L 371.03 307.28 L 371.10 295.86 L 371.24 291.61 L 371.26 291.61 L 371.49 291.53 L 371.55 291.53 L 371.59 291.51 L 371.80 291.51 L 372.35 290.47 L 372.37 290.47 L 372.51 290.42 L 372.56 290.42 L 372.59 290.33 L 373.06 289.71 L 373.07 289.71 L 373.77 289.58 L 373.86 289.54 L 374.11 289.55 L 374.40 288.15 L 374.47 288.01 L 374.52 287.88 L 374.65 287.35 L 375.02 287.22 L 375.08 287.11 L 375.24 287.11 L 375.41 287.11 L 375.95 287.11 L 376.02 287.11 L 376.14 287.11 L 376.15 287.11 L 376.32 287.12 L 376.73 287.12 L 377.15 286.98 L 377.21 286.98 L 377.31 286.96 L 377.43 286.96 L 377.75 286.96 L 378.29 286.96 L 378.47 286.83 L 378.76 283.15 L 379.94 286.63 L 380.20 286.61 L 380.39 286.60 L 380.69 286.60 L 380.78 286.56 L 381.07 286.54 L 381.54 286.33 L 381.60 286.33 L 381.69 286.33 L 381.74 286.33 L 381.79 286.33 L 382.15 286.12 L 390.66 286.12 L 390.74 286.13 L 391.27 286.11 L 391.32 286.11 L 391.44 286.08 L 391.54 285.82 L 391.55 285.82 L 391.84 285.79 L 391.91 285.79 L 393.66 285.58 L 393.86 285.58 L 394.01 285.58 L 394.05 285.58 L 394.58 285.43 L 394.77 285.43 L 394.80 285.43 L 395.09 285.42 L 395.41 284.55 L 395.45 284.55 L 395.71 284.40 L 395.82 284.40 L 395.92 284.40 L 396.14 284.40 L 396.62 284.39 L 396.71 284.37 L 396.79 284.28 L 396.99 284.14 L 397.45 284.00 L 397.87 280.53 L 397.96 280.41 L 398.38 280.24 L 398.46 280.20 L 398.52 280.08 L 398.57 279.84 L 398.72 278.79 L 398.75 278.84 L 398.82 278.82 L 399.06 278.81 L 399.43 278.67 L 399.66 278.61 L 399.92 278.60 L 400.04 278.59 L 400.30 278.57 L 400.73 278.57 L 401.16 278.56 L 401.49 278.56 L 401.56 278.55 L 401.64 278.55 L 401.65 278.55 L 401.90 278.55 L 401.97 278.53 L 402.07 278.40 L 402.77 278.39 L 402.78 278.39 L 402.97 278.37 L 403.79 278.37 L 404.33 278.20 L 404.72 278.05 L 404.74 278.05 L 404.77 278.05 L 416.69 278.05 L 416.72 278.05 L 416.86 278.05 L 416.93 278.05 L 416.97 278.03 L 416.98 278.03 L 417.49 278.03 L 417.60 278.01 L 417.75 277.99 L 418.00 277.97 L 418.17 277.97 L 418.37 277.89 L 418.49 277.89 L 418.54 277.89 L 418.60 277.89 L 418.75 277.57 L 418.77 277.57 L 418.82 277.57 L 418.95 277.57 L 419.03 277.57 L 419.14 277.64 L 419.28 277.64 L 419.58 277.63 L 419.71 277.63 L 419.82 277.63 L 420.55 276.61 L 421.18 276.33 L 421.93 275.60 L 422.12 275.60 L 422.34 275.60 L 422.57 275.60 L 426.95 275.51 L 427.31 275.51 L 468.83 275.38 L 599.56 275.19 L 599.99 275.13 L 600.29 275.12 L 600.59 275.12 L 601.05 274.65 L 601.20 274.65 L 601.32 274.65 L 601.53 272.94 L 601.83 273.26 L 602.07 273.24 L 602.13 273.24 L 602.33 273.23 L 602.38 273.23 L 602.59 273.22 L 602.78 273.14 L 603.38 272.06 L 603.40 272.06 L 603.57 271.96 L 604.13 268.46 L 604.14 268.46 L 604.25 268.46 L 604.39 268.40 L 605.00 266.77 L 605.01 266.77 L 605.14 266.77 L 605.28 266.73 L 605.51 266.13 L 605.52 266.13 L 605.62 266.13 L 605.64 266.13 L 605.69 265.80 L 605.95 263.48 L 605.98 263.48 L 606.07 263.48 L 606.35 263.28 L 606.41 263.28 L 606.62 262.90 L 606.99 262.90 L 607.04 262.90 L 607.09 262.90 L 607.16 262.90 L 607.34 262.89 L 607.53 261.84 L 607.56 261.84 L 607.67 261.84 L 607.78 261.05 L 607.80 261.05 L 607.92 260.21 L 607.97 260.16 L 608.20 259.33 L 608.23 259.33 L 608.34 259.33 L 608.50 259.31 L 609.44 259.31 L 609.90 259.31 L 620.12 259.31 L 620.22 259.31 L 620.32 259.31 L 620.49 259.31 L 620.88 259.09 L 620.91 259.09 L 620.98 259.02 L 621.22 257.86 L 621.25 257.86 L 623.48 257.88 L 623.61 257.65 L 624.74 257.65 L 624.86 257.65 L 624.99 257.56 L 626.35 256.61 L 626.93 256.43 L 627.07 256.36 L 627.56 254.55 L 627.86 254.55 L 628.36 254.40 L 629.26 254.40 L 642.92 254.40 L 643.74 254.29 L 643.78 254.31 L 644.92 254.31 L 644.98 254.31 L 645.38 254.31 L 645.85 254.27 L 645.85 254.27 L 645.90 254.27 L 646.51 253.22 L 647.91 253.19 L 648.00 253.19 L 648.15 253.18 L 648.36 253.14 L 648.42 253.11 L 648.50 253.11 L 649.15 253.06 L 649.68 253.06 L 649.96 253.06 L 650.00 253.06"/>
	</g>
	<g id="poloto_plot2" class="poloto_plot poloto_imgs poloto_line poloto2 poloto_stroke" fill="none" stroke="black">
		<path d=" M 150.00 390.67 L 150.03 390.66 L 150.05 390.66 L 150.06 390.66 L 150.09 390.66 L 150.13 388.27 L 150.27 387.94 L 150.59 387.94 L 151.06 387.92 L 151.30 386.50 L 151.78 386.37 L 151.87 386.33 L 151.93 386.29 L 152.50 385.65 L 153.55 385.15 L 153.89 385.05 L 153.97 385.06 L 154.61 385.02 L 155.34 385.02 L 155.35 385.02 L 155.35 385.02 L 165.28 385.02 L 165.35 385.02 L 165.47 385.00 L 165.53 385.00 L 165.90 384.85 L 166.08 384.81 L 166.50 384.58 L 166.56 384.48 L 166.68 384.26 L 166.80 384.24 L 166.84 384.23 L 166.94 384.19 L 167.05 384.19 L 167.16 384.20 L 167.43 383.96 L 167.68 383.74 L 167.72 383.74 L 167.84 383.61 L 168.63 383.32 L 168.65 383.32 L 168.75 383.23 L 169.20 382.91 L 169.56 382.52 L 169.96 382.36 L 170.05 382.36 L 170.06 382.37 L 170.14 382.15 L 170.29 382.15 L 170.49 382.12 L 170.88 381.96 L 170.90 381.68 L 170.97 381.68 L 171.07 381.55 L 171.29 381.55 L 171.31 381.55 L 171.55 381.13 L 171.64 381.10 L 171.72 381.06 L 171.81 380.87 L 173.02 380.75 L 173.31 380.71 L 173.99 380.42 L 174.13 380.43 L 174.23 380.41 L 174.29 380.19 L 174.76 379.02 L 174.96 379.01 L 175.20 378.65 L 175.32 378.62 L 175.60 378.46 L 175.72 378.41 L 175.88 378.16 L 176.04 377.95 L 176.57 377.95 L 176.59 377.92 L 176.61 377.76 L 176.80 376.63 L 186.00 376.51 L 186.95 376.17 L 186.98 376.13 L 188.11 375.85 L 188.20 375.84 L 188.31 375.63 L 188.58 375.49 L 188.71 375.23 L 188.75 375.02 L 188.90 374.60 L 189.23 374.59 L 189.24 374.59 L 189.36 374.30 L 189.49 374.30 L 189.63 373.99 L 189.81 373.75 L 189.88 373.61 L 189.90 373.61 L 190.06 373.33 L 190.09 373.32 L 190.26 373.06 L 190.29 373.05 L 190.55 372.96 L 190.60 372.96 L 190.69 372.87 L 190.80 372.85 L 190.95 372.85 L 191.02 372.83 L 191.54 372.58 L 191.55 372.59 L 191.65 372.08 L 191.88 372.06 L 192.08 371.90 L 192.15 371.90 L 192.25 371.90 L 192.29 371.86 L 192.41 371.16 L 192.99 370.57 L 193.05 370.25 L 193.25 370.22 L 193.31 370.14 L 193.35 370.13 L 193.45 369.98 L 193.54 369.43 L 193.74 369.34 L 193.88 369.33 L 194.00 369.05 L 194.06 369.04 L 194.59 368.84 L 194.87 368.69 L 194.95 368.57 L 195.19 368.55 L 195.22 368.55 L 195.24 368.53 L 195.39 367.53 L 195.51 367.52 L 195.94 367.38 L 196.01 366.98 L 196.09 366.97 L 196.20 366.81 L 196.22 366.71 L 196.27 366.65 L 196.31 366.61 L 196.37 366.60 L 196.42 366.52 L 196.59 365.40 L 196.72 365.29 L 196.84 364.95 L 197.00 364.93 L 197.19 364.82 L 197.37 364.47 L 197.50 363.49 L 197.77 363.42 L 197.78 363.00 L 197.93 362.90 L 210.78 362.90 L 211.03 362.90 L 211.63 362.44 L 211.76 362.44 L 211.86 362.44 L 211.88 362.32 L 212.10 362.13 L 212.25 362.09 L 212.34 361.97 L 212.43 361.89 L 212.48 361.85 L 212.71 361.78 L 213.18 361.88 L 213.29 361.57 L 213.38 361.49 L 213.49 361.48 L 214.09 361.42 L 214.17 361.36 L 214.21 361.36 L 214.25 361.30 L 214.38 361.25 L 214.48 361.14 L 214.91 360.85 L 215.53 360.72 L 215.76 360.67 L 216.44 360.48 L 216.77 360.03 L 216.88 359.96 L 217.02 359.60 L 217.23 359.14 L 217.54 359.02 L 217.97 359.01 L 218.56 358.99 L 218.64 358.82 L 219.07 358.71 L 219.34 358.57 L 219.43 358.45 L 219.60 358.40 L 219.73 358.10 L 221.24 357.95 L 222.69 357.95 L 235.62 357.92 L 235.71 357.75 L 235.78 357.64 L 236.19 357.47 L 237.39 357.16 L 237.44 357.12 L 237.61 356.91 L 238.21 356.82 L 238.49 356.23 L 238.92 356.22 L 239.02 356.20 L 239.11 355.62 L 239.86 355.07 L 239.95 355.07 L 240.11 355.04 L 240.28 354.99 L 240.35 354.79 L 240.77 353.88 L 240.92 353.65 L 240.99 353.63 L 241.08 353.54 L 241.27 353.18 L 241.35 352.28 L 241.54 351.91 L 242.10 351.69 L 242.15 351.24 L 242.20 351.24 L 242.29 351.16 L 242.43 351.03 L 242.48 351.00 L 242.54 350.96 L 242.81 349.90 L 242.87 349.28 L 243.20 349.16 L 243.39 348.11 L 243.52 347.91 L 244.52 346.25 L 244.63 346.22 L 282.64 345.74 L 282.68 345.74 L 297.20 345.60 L 297.99 345.43 L 298.15 345.43 L 298.37 345.34 L 298.44 345.21 L 298.52 345.18 L 304.82 345.16 L 305.65 343.26 L 305.96 343.10 L 306.13 342.44 L 310.05 342.36 L 310.07 342.30 L 310.32 342.28 L 311.49 342.17 L 311.56 341.95 L 311.70 341.87 L 312.12 341.77 L 312.17 341.75 L 312.33 341.38 L 312.51 341.27 L 312.54 340.98 L 324.75 340.63 L 324.84 339.76 L 325.32 339.54 L 325.33 339.21 L 325.42 338.95 L 325.52 338.55 L 325.65 337.50 L 325.86 336.93 L 326.03 336.19 L 326.19 336.18 L 326.26 335.61 L 326.50 335.57 L 327.35 335.03 L 327.69 334.78 L 327.74 334.62 L 327.82 334.62 L 327.86 334.43 L 327.98 333.79 L 328.32 333.72 L 328.37 333.72 L 328.58 333.29 L 328.66 333.29 L 328.70 333.05 L 328.77 332.90 L 328.83 332.90 L 328.87 332.56 L 329.14 332.36 L 329.26 332.02 L 329.40 332.01 L 329.51 331.83 L 329.55 331.57 L 329.82 331.43 L 329.89 331.28 L 329.94 331.28 L 330.01 331.28 L 330.05 331.02 L 330.09 331.03 L 330.11 331.02 L 330.24 330.93 L 330.29 330.64 L 330.42 330.64 L 330.52 330.57 L 330.79 330.54 L 331.13 330.51 L 331.14 330.51 L 331.23 330.50 L 331.54 330.49 L 331.69 330.49 L 331.84 330.49 L 332.00 330.45 L 332.10 330.10 L 332.53 330.10 L 332.57 329.89 L 332.63 329.89 L 332.66 329.65 L 332.94 329.57 L 332.99 329.52 L 333.20 329.52 L 351.98 329.46 L 353.05 329.36 L 353.08 329.36 L 353.30 329.36 L 353.31 329.36 L 353.45 328.95 L 353.55 328.93 L 353.64 328.82 L 353.78 328.76 L 353.81 328.72 L 353.86 328.70 L 354.06 328.66 L 354.47 328.58 L 354.73 328.03 L 355.01 328.00 L 355.03 327.97 L 355.07 327.51 L 355.11 327.50 L 355.67 327.50 L 355.68 327.46 L 355.77 327.03 L 356.01 326.98 L 356.16 326.96 L 356.19 326.95 L 356.21 326.90 L 356.27 326.87 L 356.31 326.44 L 356.34 326.43 L 356.47 326.43 L 356.48 326.39 L 356.78 326.35 L 357.58 326.33 L 357.77 326.30 L 357.83 326.28 L 357.87 326.14 L 357.92 326.14 L 358.03 325.66 L 370.87 325.50 L 370.89 325.36 L 371.00 325.26 L 371.03 325.25 L 371.10 324.83 L 371.24 324.73 L 371.26 324.70 L 371.49 324.70 L 371.55 324.70 L 371.59 324.29 L 371.80 324.24 L 372.35 324.22 L 372.37 324.20 L 372.51 323.97 L 372.56 323.98 L 372.59 323.59 L 373.06 323.59 L 373.07 323.57 L 373.77 323.47 L 373.86 323.02 L 374.11 323.02 L 374.40 323.01 L 374.47 322.67 L 374.52 322.41 L 374.65 322.40 L 375.02 322.35 L 375.08 322.33 L 375.24 322.22 L 375.41 322.22 L 375.95 322.22 L 376.02 322.22 L 376.14 322.20 L 376.15 322.20 L 376.32 322.20 L 376.73 322.16 L 377.15 322.12 L 377.21 322.12 L 377.31 322.07 L 377.43 321.95 L 377.75 321.95 L 378.29 321.80 L 378.47 321.54 L 378.76 321.51 L 379.94 321.23 L 380.20 321.23 L 380.39 321.22 L 380.69 321.22 L 380.78 321.20 L 381.07 321.06 L 381.54 321.04 L 381.60 320.91 L 381.69 320.85 L 381.74 320.86 L 381.79 320.82 L 382.15 320.80 L 390.66 320.79 L 390.74 320.79 L 391.27 320.79 L 391.32 320.78 L 391.44 320.39 L 391.54 320.37 L 391.55 320.38 L 391.84 320.37 L 391.91 320.35 L 393.66 319.78 L 393.86 319.72 L 394.01 319.71 L 394.05 319.71 L 394.58 319.69 L 394.77 319.77 L 394.80 319.77 L 395.09 319.73 L 395.41 319.19 L 395.45 319.18 L 395.71 319.17 L 395.82 319.17 L 395.92 319.17 L 396.14 319.06 L 396.62 318.57 L 396.71 318.57 L 396.79 318.50 L 396.99 318.06 L 397.45 317.57 L 397.87 317.60 L 397.96 317.34 L 398.38 317.34 L 398.46 317.31 L 398.52 317.28 L 398.57 317.02 L 398.72 317.02 L 398.75 317.02 L 398.82 317.02 L 399.06 317.02 L 399.43 316.81 L 399.66 316.79 L 399.92 316.79 L 400.04 316.79 L 400.30 316.79 L 400.73 316.79 L 401.16 316.79 L 401.49 316.79 L 401.56 316.78 L 401.64 316.77 L 401.65 316.68 L 401.90 316.62 L 401.97 316.62 L 402.07 316.60 L 402.77 316.60 L 402.78 316.35 L 402.97 316.35 L 403.79 316.35 L 404.33 316.35 L 404.72 316.29 L 404.74 316.19 L 404.77 316.19 L 416.69 316.02 L 416.72 316.01 L 416.86 316.00 L 416.93 315.85 L 416.97 315.85 L 416.98 315.84 L 417.49 315.79 L 417.60 315.28 L 417.75 315.16 L 418.00 314.15 L 418.17 314.14 L 418.37 313.71 L 418.49 313.76 L 418.54 313.75 L 418.60 313.20 L 418.75 313.11 L 418.77 312.73 L 418.82 312.67 L 418.95 312.63 L 419.03 312.44 L 419.14 314.71 L 419.28 314.68 L 419.58 313.76 L 419.71 313.56 L 419.82 313.36 L 420.55 313.00 L 421.18 312.62 L 421.93 312.08 L 422.12 312.02 L 422.34 312.02 L 422.57 311.98 L 426.95 311.71 L 427.31 311.68 L 468.83 310.97 L 599.56 310.95 L 599.99 310.63 L 600.29 310.58 L 600.59 310.58 L 601.05 310.29 L 601.20 309.95 L 601.32 309.33 L 601.53 309.16 L 601.83 309.22 L 602.07 308.86 L 602.13 308.85 L 602.33 308.74 L 602.38 308.74 L 602.59 308.13 L 602.78 307.20 L 603.38 307.11 L 603.40 307.01 L 603.57 305.81 L 604.13 305.77 L 604.14 305.65 L 604.25 305.58 L 604.39 304.49 L 605.00 304.44 L 605.01 304.28 L 605.14 304.21 L 605.28 303.49 L 605.51 303.47 L 605.52 303.35 L 605.62 302.16 L 605.64 302.13 L 605.69 302.10 L 605.95 302.10 L 605.98 301.97 L 606.07 301.89 L 606.35 301.77 L 606.41 301.77 L 606.62 301.71 L 606.99 301.75 L 607.04 301.70 L 607.09 301.67 L 607.16 301.63 L 607.34 300.40 L 607.53 300.37 L 607.56 300.27 L 607.67 299.00 L 607.78 298.55 L 607.80 298.38 L 607.92 297.77 L 607.97 296.69 L 608.20 296.68 L 608.23 296.62 L 608.34 296.40 L 608.50 296.40 L 609.44 296.36 L 609.90 296.34 L 620.12 296.38 L 620.22 296.14 L 620.32 295.96 L 620.49 295.11 L 620.88 295.10 L 620.91 295.01 L 620.98 293.93 L 621.22 293.92 L 621.25 293.82 L 623.48 293.71 L 623.61 293.32 L 624.74 293.13 L 624.86 293.09 L 624.99 291.89 L 626.35 291.55 L 626.93 291.27 L 627.07 290.36 L 627.56 290.36 L 627.86 289.86 L 628.36 289.09 L 629.26 288.62 L 642.92 288.62 L 643.74 288.60 L 643.78 288.60 L 644.92 288.43 L 644.98 288.33 L 645.38 288.26 L 645.85 287.26 L 645.85 287.26 L 645.90 287.21 L 646.51 287.00 L 647.91 286.33 L 648.00 286.26 L 648.15 286.26 L 648.36 285.97 L 648.42 285.93 L 648.50 285.88 L 649.15 285.88 L 649.68 285.88 L 649.96 285.88 L 650.00 285.83"/>
	</g>
	<g class="poloto_legend poloto_imgs poloto_line poloto0 poloto_stroke"><line x1="680" x2="730" y1="81.25" y2="81.25"/></g>
	<g class="poloto_legend poloto_imgs poloto_line poloto1 poloto_stroke"><line x1="680" x2="730" y1="131.25" y2="131.25"/></g>
	<g class="poloto_legend poloto_imgs poloto_line poloto2 poloto_stroke"><line x1="680" x2="730" y1="181.25" y2="181.25"/></g>
	<text class="poloto_legend poloto_text poloto_line poloto0" x="675" y="100">total</text>
	<text class="poloto_legend poloto_text poloto_line poloto1" x="675" y="150">code</text>
	<text class="poloto_legend poloto_text poloto_line poloto2" x="675" y="200">docs</text>
	<text class="poloto_text poloto_name poloto_title" x="400.00" y="37.50">Workspace lines over time</text>
	<text class="poloto_text poloto_name poloto_x" x="400.00" y="640">date (JST)</text>
	<text class="poloto_text poloto_name poloto_y" x="37.50" y="250.00" transform="rotate(-90,37.50,250.00)">lines</text>
	<text class="poloto_text poloto_ticks poloto_y">
		<tspan x="135.00" y="400.00">0</tspan>
		<tspan x="135.00" y="311.28">50K</tspan>
		<tspan x="135.00" y="222.56">100K</tspan>
		<tspan x="135.00" y="133.84">150K</tspan>
	</text>
	<g class="poloto_imgs poloto_ticks poloto_y" stroke="black">
		<line x1="150.00" x2="144.00" y1="400.00" y2="400.00"/>
		<line x1="150.00" x2="144.00" y1="311.28" y2="311.28"/>
		<line x1="150.00" x2="144.00" y1="222.56" y2="222.56"/>
		<line x1="150.00" x2="144.00" y1="133.84" y2="133.84"/>
	</g>
	<g class="poloto_text poloto_ticks poloto_x">
		<text x="235.46" y="430.00" text-anchor="end" transform="rotate(-90 235.46 430.00)">2026-04-24 12:06</text>
		<text x="367.01" y="430.00" text-anchor="end" transform="rotate(-90 367.01 430.00)">2026-04-30 07:00</text>
		<text x="498.55" y="430.00" text-anchor="end" transform="rotate(-90 498.55 430.00)">2026-05-06 01:53</text>
		<text x="630.10" y="430.00" text-anchor="end" transform="rotate(-90 630.10 430.00)">2026-05-11 20:46</text>
	</g>
	<g class="poloto_imgs poloto_ticks poloto_x" stroke="black">
		<line x1="235.46" x2="235.46" y1="400.00" y2="405.00"/>
		<line x1="367.01" x2="367.01" y1="400.00" y2="405.00"/>
		<line x1="498.55" x2="498.55" y1="400.00" y2="405.00"/>
		<line x1="630.10" x2="630.10" y1="400.00" y2="405.00"/>
	</g>
	<path class="poloto_imgs poloto_ticks poloto_x" stroke="black" style="stroke-dasharray:13.154647615930594;stroke-dashoffset:-85.45864205097314;" d=" M 150.00 400.00 L 650.00 400.00"/>
	<path class="poloto_imgs poloto_ticks poloto_y" stroke="black" style="stroke-dasharray:8.871907400945153;stroke-dashoffset:-0;" d=" M 150.00 400.00 L 150.00 100.00"/>
</svg>

