<svg class="poloto" width="800" height="680" viewBox="0 0 800 680" xmlns="http://www.w3.org/2000/svg">
	<style>
.poloto{
  stroke-linecap:round;
  stroke-linejoin:round;
  font-family:Roboto,sans-serif;
  font-size:16px;
}
.poloto_background{fill:AliceBlue;}
.poloto_scatter{stroke-width:7}
.poloto_line{stroke-width:2}
.poloto_text{fill: black;}
.poloto_name{font-size:24px;dominant-baseline:auto;text-anchor:middle;}
.poloto_where{dominant-baseline:middle;text-anchor:start}
.poloto_text.poloto_legend{font-size:20px;dominant-baseline:middle;text-anchor:start;}
.poloto_text.poloto_ticks.poloto_y{dominant-baseline:middle;text-anchor:end}
.poloto_text.poloto_ticks.poloto_x{dominant-baseline:auto;text-anchor:middle}
.poloto_imgs.poloto_ticks{stroke: black;stroke-width:3;fill:none;stroke-dasharray:none}
.poloto_grid{stroke:gray;stroke-width:0.5}

.poloto0.poloto_stroke{stroke:blue;}
.poloto1.poloto_stroke{stroke:red;}
.poloto2.poloto_stroke{stroke:green;}
.poloto3.poloto_stroke{stroke:gold;}
.poloto4.poloto_stroke{stroke:aqua;}
.poloto5.poloto_stroke{stroke:lime;}
.poloto6.poloto_stroke{stroke:orange;}
.poloto7.poloto_stroke{stroke:chocolate;}
.poloto0.poloto_fill{fill:blue;}
.poloto1.poloto_fill{fill:red;}
.poloto2.poloto_fill{fill:green;}
.poloto3.poloto_fill{fill:gold;}
.poloto4.poloto_fill{fill:aqua;}
.poloto5.poloto_fill{fill:lime;}
.poloto6.poloto_fill{fill:orange;}
.poloto7.poloto_fill{fill:chocolate;}
	</style>
	<circle r="1e5" class="poloto_background" fill="white"/>
	<g id="poloto_plot0" class="poloto_plot poloto_imgs poloto_line poloto0 poloto_stroke" fill="none" stroke="black">
		<path d=" M 150.00 373.73 L 150.02 373.71 L 150.04 373.69 L 150.04 373.69 L 150.06 373.69 L 150.09 370.84 L 150.19 370.50 L 150.42 370.48 L 150.75 370.24 L 150.92 368.80 L 151.27 368.71 L 151.33 368.63 L 151.37 368.60 L 151.77 367.89 L 152.52 367.32 L 152.76 365.08 L 152.82 365.08 L 153.27 364.99 L 153.79 364.98 L 153.79 364.98 L 153.80 364.98 L 160.84 364.98 L 160.88 364.98 L 160.98 364.96 L 161.01 364.93 L 161.28 364.80 L 161.40 364.77 L 161.70 364.56 L 161.74 364.47 L 161.83 364.27 L 161.92 364.24 L 161.94 364.24 L 162.02 364.18 L 162.09 364.18 L 162.17 364.19 L 162.37 363.85 L 162.54 363.65 L 162.57 363.65 L 162.65 363.53 L 163.21 364.04 L 163.23 364.04 L 163.30 363.96 L 163.62 363.57 L 163.87 363.11 L 164.16 362.91 L 164.22 362.88 L 164.23 362.88 L 164.28 362.70 L 164.39 362.70 L 164.53 362.64 L 164.81 362.46 L 164.83 362.20 L 164.88 362.20 L 164.94 362.06 L 165.10 362.06 L 165.12 362.06 L 165.28 361.68 L 165.35 361.66 L 165.41 361.63 L 165.47 361.47 L 166.33 361.26 L 166.54 361.22 L 167.01 360.95 L 167.11 360.95 L 167.19 360.94 L 167.23 360.75 L 167.56 359.61 L 167.71 359.59 L 167.87 359.21 L 167.96 359.18 L 168.16 358.86 L 168.24 358.75 L 168.36 358.55 L 168.47 358.37 L 168.85 355.76 L 168.86 355.70 L 168.88 355.54 L 169.01 354.29 L 175.53 354.20 L 176.21 352.77 L 176.23 352.74 L 177.03 352.51 L 177.10 352.50 L 177.17 352.22 L 177.37 352.08 L 177.46 351.84 L 177.49 351.62 L 177.59 351.25 L 177.82 351.24 L 177.83 350.99 L 177.92 350.71 L 178.01 350.71 L 178.11 350.39 L 178.24 350.17 L 178.29 350.05 L 178.30 350.05 L 178.42 349.80 L 178.43 349.80 L 178.56 349.55 L 178.58 349.55 L 178.76 348.37 L 178.80 348.37 L 178.86 348.17 L 178.94 348.16 L 179.05 348.16 L 179.09 348.14 L 179.46 347.91 L 179.47 347.92 L 179.54 347.40 L 179.70 347.39 L 179.85 346.60 L 179.89 346.53 L 179.96 346.53 L 180.00 346.50 L 180.08 345.89 L 180.49 340.77 L 180.53 340.52 L 180.67 340.50 L 180.72 340.44 L 180.75 340.42 L 180.81 340.29 L 180.88 339.71 L 181.02 339.59 L 181.13 339.57 L 181.21 339.32 L 181.25 339.31 L 181.62 339.12 L 181.82 338.98 L 181.88 338.75 L 182.06 338.74 L 182.07 338.74 L 182.09 338.72 L 182.19 337.49 L 182.28 337.41 L 182.58 336.17 L 182.63 335.81 L 182.69 335.80 L 182.77 335.67 L 182.78 335.57 L 182.82 335.51 L 182.84 335.48 L 182.89 335.48 L 182.93 335.41 L 183.05 334.40 L 183.14 334.25 L 183.22 333.95 L 183.34 333.93 L 183.47 333.84 L 183.60 333.12 L 183.69 332.12 L 183.88 332.07 L 183.89 331.70 L 184.00 331.57 L 193.11 331.58 L 193.29 331.56 L 193.72 331.04 L 193.80 331.02 L 193.88 331.02 L 193.89 330.89 L 194.05 330.73 L 194.15 330.70 L 194.22 330.61 L 194.28 330.54 L 194.32 330.50 L 194.48 330.45 L 194.81 330.39 L 194.89 330.12 L 194.95 330.05 L 195.03 330.04 L 195.45 329.90 L 195.51 329.83 L 195.54 329.83 L 195.57 329.72 L 195.66 329.68 L 195.73 329.58 L 196.04 328.91 L 196.48 328.81 L 196.64 328.76 L 197.13 328.60 L 197.36 325.38 L 197.44 325.31 L 197.54 325.00 L 197.68 324.57 L 197.90 324.45 L 198.21 324.44 L 198.63 324.43 L 198.69 324.29 L 198.99 324.14 L 199.18 323.91 L 199.25 323.81 L 199.36 323.78 L 199.45 323.49 L 200.53 323.18 L 201.56 323.18 L 210.73 323.15 L 210.79 323.01 L 210.84 322.92 L 211.13 322.78 L 211.99 321.67 L 212.02 321.60 L 212.14 321.31 L 212.56 321.24 L 212.76 320.49 L 213.07 320.48 L 213.14 320.47 L 213.20 319.96 L 213.74 317.03 L 213.80 317.02 L 213.91 317.00 L 214.03 316.96 L 214.09 316.65 L 214.38 315.54 L 214.49 315.34 L 214.54 315.32 L 214.60 314.81 L 214.74 314.09 L 214.79 313.33 L 214.92 312.99 L 215.32 309.19 L 215.36 308.81 L 215.40 308.81 L 215.46 308.74 L 215.56 308.64 L 215.60 308.60 L 215.63 308.56 L 215.83 307.65 L 215.87 307.01 L 216.10 306.88 L 216.24 305.92 L 216.33 305.32 L 217.04 296.45 L 217.12 296.43 L 244.08 296.00 L 244.10 296.00 L 254.41 295.88 L 254.97 295.64 L 255.08 295.64 L 255.23 295.57 L 255.28 295.46 L 255.34 295.43 L 259.81 295.37 L 260.40 293.68 L 260.62 293.53 L 260.74 292.91 L 263.52 292.78 L 263.54 292.61 L 263.71 292.60 L 264.54 291.53 L 264.59 291.34 L 264.69 291.27 L 264.99 291.20 L 265.02 291.17 L 265.14 290.85 L 265.27 290.76 L 265.29 290.53 L 273.94 290.20 L 274.01 289.29 L 274.35 289.09 L 274.36 287.57 L 274.42 287.34 L 274.49 286.97 L 274.59 285.92 L 274.73 285.37 L 274.86 284.72 L 274.97 284.71 L 275.01 284.21 L 275.19 284.17 L 275.79 281.72 L 276.03 281.46 L 276.07 281.30 L 276.12 281.30 L 276.15 281.13 L 276.24 280.53 L 276.48 280.24 L 276.52 280.20 L 276.66 278.04 L 276.72 278.04 L 276.74 277.81 L 276.80 277.63 L 276.84 277.63 L 276.87 277.30 L 277.06 276.14 L 277.14 275.81 L 277.25 275.76 L 277.32 272.65 L 277.35 272.39 L 277.54 270.61 L 277.59 270.48 L 277.63 270.47 L 277.68 270.47 L 277.71 270.22 L 277.73 270.22 L 277.75 270.22 L 277.84 267.07 L 277.88 266.80 L 277.97 266.78 L 278.04 266.73 L 278.23 266.64 L 278.47 266.52 L 278.48 266.52 L 278.54 266.48 L 278.77 266.42 L 278.87 266.42 L 278.97 266.42 L 279.09 265.05 L 279.16 264.72 L 279.47 264.71 L 279.50 264.50 L 279.53 264.49 L 279.56 264.26 L 279.76 262.28 L 279.79 262.23 L 279.94 262.22 L 293.26 262.16 L 294.02 262.06 L 294.04 262.06 L 294.19 262.06 L 294.20 262.06 L 294.30 261.66 L 294.38 261.65 L 294.44 261.45 L 294.53 261.40 L 294.56 261.38 L 294.59 261.36 L 294.74 261.14 L 295.03 260.94 L 295.21 260.30 L 295.41 259.70 L 295.42 259.66 L 295.45 259.10 L 295.48 259.08 L 295.88 258.74 L 295.89 258.70 L 295.95 258.25 L 296.12 258.20 L 296.23 258.16 L 296.25 257.35 L 296.26 257.31 L 296.30 258.08 L 296.33 257.61 L 296.35 257.59 L 296.45 256.52 L 296.46 256.48 L 296.66 256.40 L 297.23 256.38 L 297.37 256.34 L 297.41 256.33 L 297.44 256.19 L 297.47 256.19 L 297.55 255.66 L 306.66 254.63 L 306.67 254.49 L 306.75 254.40 L 306.77 254.20 L 306.82 245.22 L 306.92 241.55 L 306.93 241.52 L 307.10 241.45 L 307.14 241.45 L 307.17 241.03 L 307.32 240.99 L 307.71 240.12 L 307.72 240.10 L 307.82 239.83 L 307.86 239.84 L 307.88 239.41 L 308.21 238.90 L 308.22 238.88 L 308.72 238.68 L 308.78 238.22 L 308.95 238.23 L 309.16 237.07 L 309.21 236.61 L 309.25 236.25 L 309.34 235.80 L 309.60 235.64 L 309.64 235.53 L 309.76 235.43 L 309.88 235.43 L 310.26 235.43 L 310.31 235.43 L 310.40 235.41 L 310.40 235.41 L 310.53 235.42 L 310.82 235.39 L 311.11 235.23 L 311.16 235.22 L 311.22 235.16 L 311.31 235.03 L 311.54 235.03 L 311.92 234.87 L 312.05 234.51 L 312.26 231.42 L 313.09 234.04 L 313.28 234.02 L 313.41 234.01 L 313.62 234.01 L 313.69 233.96 L 313.90 233.81 L 314.22 233.60 L 314.27 233.46 L 314.33 233.40 L 314.37 233.41 L 314.40 233.37 L 314.66 233.17 L 320.70 233.17 L 320.75 233.17 L 321.13 233.16 L 321.16 233.15 L 321.25 232.75 L 321.32 232.53 L 321.33 232.53 L 321.53 232.50 L 321.58 232.48 L 322.82 231.89 L 322.97 231.85 L 323.07 231.83 L 323.10 231.83 L 323.48 231.69 L 323.61 231.76 L 323.63 231.76 L 323.84 231.72 L 324.06 230.49 L 324.09 230.49 L 324.28 230.35 L 324.36 230.35 L 324.43 230.35 L 324.58 230.21 L 324.92 229.72 L 324.98 229.70 L 325.05 229.56 L 325.18 228.98 L 325.51 228.37 L 325.81 225.53 L 325.87 225.18 L 326.17 225.04 L 326.22 224.97 L 326.27 224.83 L 326.30 224.37 L 326.41 223.55 L 326.43 223.59 L 326.48 223.57 L 326.65 223.57 L 326.92 223.27 L 327.08 223.21 L 327.27 223.20 L 327.35 223.19 L 327.53 223.18 L 327.84 223.18 L 328.14 223.17 L 328.37 223.17 L 328.43 223.16 L 328.49 223.15 L 328.49 223.05 L 328.67 222.99 L 328.72 222.98 L 328.79 222.86 L 329.29 222.84 L 329.29 222.59 L 329.43 222.58 L 330.01 222.59 L 330.39 222.44 L 330.67 222.25 L 330.68 222.15 L 330.70 222.15 L 339.15 221.98 L 339.18 221.98 L 339.28 221.97 L 339.33 221.83 L 339.36 221.81 L 339.36 221.80 L 339.72 221.76 L 339.80 221.25 L 339.91 221.13 L 340.09 220.12 L 340.21 220.11 L 340.35 219.68 L 340.43 219.73 L 340.47 219.72 L 340.51 219.23 L 340.62 218.89 L 340.63 218.54 L 340.67 218.49 L 340.76 218.46 L 340.82 218.29 L 340.90 220.23 L 341.00 220.19 L 341.21 219.42 L 341.30 219.23 L 341.38 219.07 L 341.90 217.95 L 342.34 217.42 L 342.88 216.39 L 343.01 216.34 L 343.16 216.34 L 343.33 216.29 L 346.44 216.00 L 346.69 215.98 L 376.14 215.19 L 468.86 215.01 L 469.17 214.70 L 469.38 214.66 L 469.59 214.66 L 469.92 214.05 L 470.03 213.76 L 470.11 213.22 L 470.26 211.66 L 470.47 211.98 L 470.64 211.64 L 470.69 211.63 L 470.83 211.53 L 470.86 211.53 L 471.01 210.96 L 471.15 210.04 L 471.57 209.07 L 471.58 208.99 L 471.70 207.83 L 472.10 204.96 L 472.11 204.86 L 472.19 204.80 L 472.29 203.77 L 472.72 202.39 L 472.73 202.26 L 472.82 202.20 L 472.92 201.51 L 473.08 200.98 L 473.09 200.88 L 473.16 199.82 L 473.18 199.80 L 473.21 199.50 L 473.40 197.63 L 473.42 197.53 L 473.48 197.42 L 473.68 197.17 L 473.72 197.16 L 473.87 196.80 L 474.13 196.84 L 474.17 196.80 L 474.21 196.77 L 474.25 196.74 L 474.38 195.65 L 474.52 194.75 L 474.54 194.67 L 474.61 193.55 L 474.69 192.46 L 474.71 192.32 L 474.79 191.04 L 474.83 190.03 L 474.99 189.36 L 475.01 189.31 L 475.09 189.10 L 475.20 189.08 L 475.87 189.05 L 476.20 189.02 L 483.44 189.06 L 483.52 188.87 L 483.59 188.70 L 483.71 187.94 L 483.98 187.75 L 484.00 187.68 L 484.05 186.68 L 484.23 185.72 L 484.25 185.63 L 485.83 185.57 L 485.92 185.02 L 486.72 184.86 L 486.81 184.82 L 486.90 183.70 L 487.86 182.64 L 488.27 182.24 L 488.37 181.42 L 488.72 180.01 L 488.94 179.60 L 489.29 178.77 L 489.93 178.35 L 499.62 178.34 L 500.20 178.25 L 500.23 178.27 L 501.04 178.10 L 501.08 178.02 L 501.36 177.96 L 501.69 177.04 L 501.70 177.04 L 501.73 177.00 L 502.16 175.95 L 503.16 175.35 L 503.22 175.30 L 503.33 175.29 L 503.48 175.01 L 503.52 174.94 L 503.58 174.89 L 504.04 174.85 L 504.41 174.85 L 504.61 174.85 L 504.64 174.81 L 505.05 173.89 L 505.37 173.71 L 505.39 173.65 L 505.43 173.57 L 505.47 173.32 L 515.99 172.97 L 516.01 172.95 L 516.04 172.94 L 516.24 172.84 L 516.40 172.72 L 517.33 171.31 L 517.56 171.15 L 518.23 170.72 L 518.80 170.62 L 519.23 170.48 L 519.35 169.18 L 519.88 167.65 L 520.08 167.54 L 520.15 166.56 L 521.70 164.75 L 521.72 164.75 L 521.81 164.31 L 522.10 164.26 L 522.10 164.26 L 522.12 164.15 L 522.17 164.01 L 522.31 163.87 L 522.48 163.11 L 524.09 161.28 L 524.30 161.06 L 524.45 160.73 L 524.47 160.69 L 524.50 160.43 L 531.67 159.61 L 531.90 158.98 L 532.03 158.95 L 532.08 158.53 L 532.76 158.34 L 532.90 157.92 L 533.03 157.92 L 533.10 157.04 L 533.33 154.81 L 533.36 154.77 L 533.67 154.74 L 533.73 154.01 L 533.99 153.13 L 534.05 152.53 L 534.26 151.97 L 534.42 151.67 L 534.54 151.01 L 534.81 150.44 L 534.84 149.80 L 535.18 149.66 L 535.21 149.66 L 535.27 148.85 L 535.34 148.85 L 535.38 148.78 L 535.78 147.27 L 536.36 146.77 L 536.64 146.93 L 537.59 146.86 L 537.61 146.86 L 537.76 146.84 L 537.83 146.82 L 537.93 146.72 L 538.05 146.63 L 538.18 146.46 L 538.46 146.25 L 538.73 146.23 L 539.58 146.08 L 539.62 146.07 L 540.47 145.93 L 540.83 145.83 L 548.08 145.82 L 548.44 145.71 L 548.63 145.63 L 548.71 145.63 L 548.73 145.63 L 548.91 145.61 L 549.00 145.56 L 549.21 145.42 L 549.34 145.39 L 549.81 145.24 L 550.06 144.90 L 550.46 144.84 L 550.58 144.63 L 550.72 144.49 L 550.90 144.31 L 551.52 144.36 L 551.58 144.35 L 552.49 143.92 L 552.64 143.68 L 552.82 143.59 L 553.26 143.39 L 553.47 143.45 L 553.57 143.78 L 553.66 143.76 L 553.79 143.62 L 554.17 142.62 L 554.58 142.52 L 554.95 142.44 L 554.99 142.39 L 555.03 142.11 L 581.25 142.04 L 581.43 141.91 L 596.51 141.59 L 596.59 141.96 L 596.71 140.43 L 596.73 140.43 L 596.77 140.47 L 597.31 137.37 L 597.37 137.34 L 598.03 137.41 L 598.71 137.22 L 598.95 136.93 L 599.37 136.55 L 599.93 136.31 L 599.94 136.31 L 600.02 136.25 L 600.24 136.19 L 600.31 136.04 L 600.85 135.29 L 601.55 135.13 L 601.63 134.98 L 601.99 134.92 L 602.09 135.51 L 602.36 135.29 L 602.59 135.24 L 603.05 135.08 L 603.48 135.00 L 603.70 134.67 L 603.72 134.67 L 613.15 134.66 L 616.12 133.81 L 616.24 133.40 L 616.39 133.02 L 616.86 132.99 L 617.06 132.86 L 617.21 130.87 L 617.31 129.58 L 617.53 129.46 L 617.57 129.44 L 617.90 129.06 L 618.00 128.86 L 618.06 128.76 L 618.24 128.44 L 618.30 128.42 L 618.39 128.38 L 618.46 128.19 L 618.55 127.97 L 618.64 127.86 L 618.71 127.82 L 619.01 127.73 L 619.16 127.51 L 619.29 127.39 L 619.32 126.76 L 619.67 126.64 L 619.80 126.27 L 628.70 126.35 L 629.35 126.12 L 629.47 126.12 L 629.86 125.38 L 630.04 125.28 L 630.78 124.08 L 631.10 123.96 L 631.53 122.87 L 631.59 122.87 L 631.84 122.84 L 631.93 122.22 L 632.27 121.34 L 632.79 120.82 L 632.96 120.19 L 636.09 118.59 L 636.40 118.12 L 636.42 118.12 L 644.77 116.63 L 644.77 116.63 L 644.88 116.57 L 644.98 115.75 L 645.37 114.81 L 645.39 114.80 L 645.85 114.68 L 646.52 114.56 L 647.28 114.52 L 647.34 114.46 L 647.41 114.41 L 647.54 114.41 L 647.76 114.28 L 647.86 114.21 L 647.97 114.20 L 648.11 114.06 L 649.25 113.53 L 649.37 112.71 L 649.63 100.42 L 649.73 100.32 L 649.80 100.29 L 649.88 100.02 L 649.97 100.00 L 649.97 100.00 L 650.00 100.00"/>
	</g>
	<g id="poloto_plot1" class="poloto_plot poloto_imgs poloto_line poloto1 poloto_stroke" fill="none" stroke="black">
		<path d=" M 150.00 384.39 L 150.02 384.38 L 150.04 384.36 L 150.04 384.36 L 150.06 384.36 L 150.09 383.87 L 150.19 383.85 L 150.42 383.85 L 150.75 383.66 L 150.92 383.57 L 151.27 383.59 L 151.33 383.56 L 151.37 383.56 L 151.77 383.52 L 152.52 383.43 L 152.76 381.50 L 152.82 381.50 L 153.27 381.45 L 153.79 381.44 L 153.79 381.44 L 153.80 381.44 L 160.84 381.44 L 160.88 381.44 L 160.98 381.44 L 161.01 381.42 L 161.28 381.41 L 161.40 381.41 L 161.70 381.41 L 161.74 381.41 L 161.83 381.39 L 161.92 381.39 L 161.94 381.39 L 162.02 381.37 L 162.09 381.37 L 162.17 381.37 L 162.37 381.26 L 162.54 381.26 L 162.57 381.26 L 162.65 381.26 L 163.21 381.99 L 163.23 381.99 L 163.30 381.98 L 163.62 381.87 L 163.87 381.75 L 164.16 381.69 L 164.22 381.66 L 164.23 381.66 L 164.28 381.66 L 164.39 381.66 L 164.53 381.61 L 164.81 381.57 L 164.83 381.57 L 164.88 381.57 L 164.94 381.55 L 165.10 381.55 L 165.12 381.55 L 165.28 381.54 L 165.35 381.54 L 165.41 381.54 L 165.47 381.54 L 166.33 381.46 L 166.54 381.45 L 167.01 381.41 L 167.11 381.41 L 167.19 381.41 L 167.23 381.41 L 167.56 381.35 L 167.71 381.35 L 167.87 381.28 L 167.96 381.27 L 168.16 381.12 L 168.24 381.06 L 168.36 381.06 L 168.47 381.06 L 168.85 378.80 L 168.86 378.77 L 168.88 378.77 L 169.01 378.55 L 175.53 378.55 L 176.21 377.57 L 176.23 377.57 L 177.03 377.57 L 177.10 377.57 L 177.17 377.47 L 177.37 377.45 L 177.46 377.45 L 177.49 377.45 L 177.59 377.45 L 177.82 377.45 L 177.83 377.24 L 177.92 377.23 L 178.01 377.23 L 178.11 377.21 L 178.24 377.21 L 178.29 377.21 L 178.30 377.21 L 178.42 377.21 L 178.43 377.21 L 178.56 377.21 L 178.58 377.21 L 178.76 376.25 L 178.80 376.25 L 178.86 376.13 L 178.94 376.13 L 179.05 376.13 L 179.09 376.12 L 179.46 376.12 L 179.47 376.12 L 179.54 376.06 L 179.70 376.06 L 179.85 375.51 L 179.89 375.45 L 179.96 375.45 L 180.00 375.45 L 180.08 375.43 L 180.49 371.40 L 180.53 371.43 L 180.67 371.43 L 180.72 371.43 L 180.75 371.43 L 180.81 371.43 L 180.88 371.37 L 181.02 371.37 L 181.13 371.37 L 181.21 371.36 L 181.25 371.36 L 181.62 371.36 L 181.82 371.35 L 181.88 371.25 L 182.06 371.25 L 182.07 371.25 L 182.09 371.25 L 182.19 370.98 L 182.28 370.91 L 182.58 369.96 L 182.63 369.96 L 182.69 369.96 L 182.77 369.97 L 182.78 369.97 L 182.82 369.97 L 182.84 369.97 L 182.89 369.97 L 182.93 369.97 L 183.05 369.95 L 183.14 369.95 L 183.22 369.94 L 183.34 369.94 L 183.47 369.93 L 183.60 369.57 L 183.69 369.45 L 183.88 369.45 L 183.89 369.45 L 184.00 369.45 L 193.11 369.45 L 193.29 369.44 L 193.72 369.38 L 193.80 369.37 L 193.88 369.37 L 193.89 369.37 L 194.05 369.37 L 194.15 369.37 L 194.22 369.37 L 194.28 369.37 L 194.32 369.37 L 194.48 369.37 L 194.81 369.39 L 194.89 369.39 L 194.95 369.39 L 195.03 369.39 L 195.45 369.31 L 195.51 369.28 L 195.54 369.28 L 195.57 369.22 L 195.66 369.22 L 195.73 369.22 L 196.04 368.85 L 196.48 368.85 L 196.64 368.85 L 197.13 368.85 L 197.36 366.38 L 197.44 366.38 L 197.54 366.38 L 197.68 366.38 L 197.90 366.38 L 198.21 366.38 L 198.63 366.38 L 198.69 366.38 L 198.99 366.32 L 199.18 366.22 L 199.25 366.22 L 199.36 366.22 L 199.45 366.20 L 200.53 366.05 L 201.56 366.05 L 210.73 366.04 L 210.79 366.04 L 210.84 366.04 L 211.13 366.04 L 211.99 365.27 L 212.02 365.24 L 212.14 365.16 L 212.56 365.16 L 212.76 364.97 L 213.07 364.97 L 213.14 364.97 L 213.20 364.97 L 213.74 362.81 L 213.80 362.81 L 213.91 362.81 L 214.03 362.81 L 214.09 362.67 L 214.38 362.41 L 214.49 362.41 L 214.54 362.41 L 214.60 362.01 L 214.74 361.61 L 214.79 361.61 L 214.92 361.60 L 215.32 358.37 L 215.36 358.37 L 215.40 358.37 L 215.46 358.37 L 215.56 358.37 L 215.60 358.37 L 215.63 358.37 L 215.83 358.37 L 215.87 358.30 L 216.10 358.29 L 216.24 358.25 L 216.33 357.86 L 217.04 351.43 L 217.12 351.43 L 244.08 351.43 L 244.10 351.43 L 254.41 351.43 L 254.97 351.34 L 255.08 351.34 L 255.23 351.34 L 255.28 351.34 L 255.34 351.34 L 259.81 351.29 L 260.40 351.22 L 260.62 351.22 L 260.74 351.20 L 263.52 351.15 L 263.54 351.06 L 263.71 351.06 L 264.54 350.19 L 264.59 350.19 L 264.69 350.19 L 264.99 350.19 L 265.02 350.19 L 265.14 350.19 L 265.27 350.19 L 265.29 350.19 L 273.94 350.18 L 274.01 350.03 L 274.35 350.03 L 274.36 348.98 L 274.42 348.98 L 274.49 348.98 L 274.59 348.88 L 274.73 348.88 L 274.86 348.83 L 274.97 348.83 L 275.01 348.83 L 275.19 348.82 L 275.79 347.04 L 276.03 347.04 L 276.07 347.03 L 276.12 347.03 L 276.15 347.03 L 276.24 347.00 L 276.48 346.78 L 276.52 346.75 L 276.66 345.15 L 276.72 345.14 L 276.74 345.14 L 276.80 345.12 L 276.84 345.12 L 276.87 345.11 L 277.06 344.24 L 277.14 344.23 L 277.25 344.21 L 277.32 341.50 L 277.35 341.50 L 277.54 339.98 L 277.59 339.98 L 277.63 339.97 L 277.68 339.97 L 277.71 339.97 L 277.73 339.97 L 277.75 339.97 L 277.84 337.15 L 277.88 337.15 L 277.97 337.14 L 278.04 337.14 L 278.23 337.08 L 278.47 337.00 L 278.48 337.00 L 278.54 336.99 L 278.77 336.94 L 278.87 336.94 L 278.97 336.94 L 279.09 335.73 L 279.16 335.73 L 279.47 335.72 L 279.50 335.72 L 279.53 335.72 L 279.56 335.72 L 279.76 333.98 L 279.79 333.98 L 279.94 333.97 L 293.26 333.97 L 294.02 333.96 L 294.04 333.96 L 294.19 333.96 L 294.20 333.96 L 294.30 333.96 L 294.38 333.95 L 294.44 333.87 L 294.53 333.87 L 294.56 333.87 L 294.59 333.87 L 294.74 333.71 L 295.03 333.61 L 295.21 333.51 L 295.41 333.02 L 295.42 333.02 L 295.45 332.89 L 295.48 332.88 L 295.88 332.58 L 295.89 332.58 L 295.95 332.54 L 296.12 332.54 L 296.23 332.51 L 296.25 331.79 L 296.26 331.79 L 296.30 332.50 L 296.33 332.46 L 296.35 332.45 L 296.45 331.48 L 296.46 331.48 L 296.66 331.44 L 297.23 331.44 L 297.37 331.44 L 297.41 331.44 L 297.44 331.44 L 297.47 331.44 L 297.55 331.38 L 306.66 330.58 L 306.67 330.58 L 306.75 330.57 L 306.77 330.40 L 306.82 321.83 L 306.92 318.64 L 306.93 318.64 L 307.10 318.58 L 307.14 318.58 L 307.17 318.56 L 307.32 318.56 L 307.71 317.79 L 307.72 317.79 L 307.82 317.74 L 307.86 317.74 L 307.88 317.68 L 308.21 317.21 L 308.22 317.21 L 308.72 317.12 L 308.78 317.08 L 308.95 317.09 L 309.16 316.04 L 309.21 315.93 L 309.25 315.84 L 309.34 315.44 L 309.60 315.34 L 309.64 315.26 L 309.76 315.26 L 309.88 315.26 L 310.26 315.26 L 310.31 315.26 L 310.40 315.26 L 310.40 315.26 L 310.53 315.27 L 310.82 315.27 L 311.11 315.16 L 311.16 315.16 L 311.22 315.15 L 311.31 315.15 L 311.54 315.15 L 311.92 315.15 L 312.05 315.05 L 312.26 312.28 L 313.09 314.90 L 313.28 314.88 L 313.41 314.88 L 313.62 314.88 L 313.69 314.85 L 313.90 314.83 L 314.22 314.67 L 314.27 314.67 L 314.33 314.67 L 314.37 314.67 L 314.40 314.67 L 314.66 314.52 L 320.70 314.52 L 320.75 314.52 L 321.13 314.51 L 321.16 314.51 L 321.25 314.48 L 321.32 314.29 L 321.33 314.29 L 321.53 314.27 L 321.58 314.27 L 322.82 314.11 L 322.97 314.11 L 323.07 314.11 L 323.10 314.11 L 323.48 314.00 L 323.61 314.00 L 323.63 314.00 L 323.84 313.99 L 324.06 313.34 L 324.09 313.34 L 324.28 313.23 L 324.36 313.23 L 324.43 313.23 L 324.58 313.23 L 324.92 313.22 L 324.98 313.20 L 325.05 313.14 L 325.18 313.03 L 325.51 312.93 L 325.81 310.32 L 325.87 310.23 L 326.17 310.11 L 326.22 310.07 L 326.27 309.98 L 326.30 309.80 L 326.41 309.02 L 326.43 309.05 L 326.48 309.03 L 326.65 309.03 L 326.92 308.92 L 327.08 308.88 L 327.27 308.87 L 327.35 308.86 L 327.53 308.85 L 327.84 308.85 L 328.14 308.84 L 328.37 308.84 L 328.43 308.84 L 328.49 308.83 L 328.49 308.83 L 328.67 308.83 L 328.72 308.82 L 328.79 308.72 L 329.29 308.71 L 329.29 308.71 L 329.43 308.70 L 330.01 308.70 L 330.39 308.57 L 330.67 308.46 L 330.68 308.46 L 330.70 308.46 L 339.15 308.46 L 339.18 308.46 L 339.28 308.46 L 339.33 308.46 L 339.36 308.44 L 339.36 308.44 L 339.72 308.44 L 339.80 308.43 L 339.91 308.42 L 340.09 308.40 L 340.21 308.40 L 340.35 308.34 L 340.43 308.34 L 340.47 308.34 L 340.51 308.34 L 340.62 308.10 L 340.63 308.10 L 340.67 308.10 L 340.76 308.10 L 340.82 308.10 L 340.90 308.15 L 341.00 308.15 L 341.21 308.14 L 341.30 308.14 L 341.38 308.14 L 341.90 307.38 L 342.34 307.17 L 342.88 306.62 L 343.01 306.62 L 343.16 306.62 L 343.33 306.62 L 346.44 306.55 L 346.69 306.55 L 376.14 306.45 L 468.86 306.31 L 469.17 306.27 L 469.38 306.26 L 469.59 306.26 L 469.92 305.91 L 470.03 305.91 L 470.11 305.91 L 470.26 304.62 L 470.47 304.87 L 470.64 304.85 L 470.69 304.85 L 470.83 304.84 L 470.86 304.84 L 471.01 304.83 L 471.15 304.78 L 471.57 303.96 L 471.58 303.96 L 471.70 303.89 L 472.10 301.26 L 472.11 301.26 L 472.19 301.26 L 472.29 301.22 L 472.72 299.99 L 472.73 299.99 L 472.82 299.99 L 472.92 299.96 L 473.08 299.51 L 473.09 299.51 L 473.16 299.51 L 473.18 299.51 L 473.21 299.26 L 473.40 297.52 L 473.42 297.52 L 473.48 297.52 L 473.68 297.37 L 473.72 297.37 L 473.87 297.09 L 474.13 297.09 L 474.17 297.09 L 474.21 297.09 L 474.25 297.09 L 474.38 297.08 L 474.52 296.29 L 474.54 296.29 L 474.61 296.29 L 474.69 295.70 L 474.71 295.70 L 474.79 295.07 L 474.83 295.03 L 474.99 294.41 L 475.01 294.41 L 475.09 294.41 L 475.20 294.39 L 475.87 294.39 L 476.20 294.39 L 483.44 294.39 L 483.52 294.39 L 483.59 294.39 L 483.71 294.39 L 483.98 294.22 L 484.00 294.22 L 484.05 294.17 L 484.23 293.30 L 484.25 293.30 L 485.83 293.32 L 485.92 293.15 L 486.72 293.15 L 486.81 293.14 L 486.90 293.08 L 487.86 292.36 L 488.27 292.23 L 488.37 292.18 L 488.72 290.82 L 488.94 290.82 L 489.29 290.71 L 489.93 290.71 L 499.62 290.70 L 500.20 290.62 L 500.23 290.64 L 501.04 290.64 L 501.08 290.64 L 501.36 290.64 L 501.69 290.61 L 501.70 290.61 L 501.73 290.61 L 502.16 289.82 L 503.16 289.80 L 503.22 289.79 L 503.33 289.79 L 503.48 289.76 L 503.52 289.74 L 503.58 289.74 L 504.04 289.70 L 504.41 289.70 L 504.61 289.70 L 504.64 289.70 L 505.05 289.68 L 505.37 289.59 L 505.39 289.59 L 505.43 289.59 L 505.47 289.59 L 515.99 289.40 L 516.01 289.40 L 516.04 289.40 L 516.24 289.40 L 516.40 289.40 L 517.33 288.62 L 517.56 288.57 L 518.23 288.51 L 518.80 288.47 L 519.23 288.47 L 519.35 288.47 L 519.88 287.28 L 520.08 287.25 L 520.15 287.21 L 521.70 286.38 L 521.72 286.38 L 521.81 286.37 L 522.10 286.36 L 522.10 286.36 L 522.12 286.36 L 522.17 286.33 L 522.31 286.30 L 522.48 286.21 L 524.09 284.83 L 524.30 284.76 L 524.45 284.76 L 524.47 284.76 L 524.50 284.76 L 531.67 284.76 L 531.90 284.75 L 532.03 284.75 L 532.08 284.75 L 532.76 284.75 L 532.90 284.75 L 533.03 284.75 L 533.10 284.72 L 533.33 282.92 L 533.36 282.91 L 533.67 282.92 L 533.73 282.91 L 533.99 282.21 L 534.05 282.17 L 534.26 281.71 L 534.42 281.71 L 534.54 281.67 L 534.81 281.25 L 534.84 281.25 L 535.18 279.91 L 535.21 279.91 L 535.27 279.91 L 535.34 279.91 L 535.38 279.91 L 535.78 278.56 L 536.36 278.44 L 536.64 278.44 L 537.59 278.41 L 537.61 278.41 L 537.76 278.41 L 537.83 278.41 L 537.93 278.41 L 538.05 278.41 L 538.18 278.39 L 538.46 278.37 L 538.73 278.37 L 539.58 278.31 L 539.62 278.31 L 540.47 278.28 L 540.83 278.24 L 548.08 278.26 L 548.44 278.19 L 548.63 278.12 L 548.71 278.12 L 548.73 278.12 L 548.91 278.11 L 549.00 278.11 L 549.21 278.11 L 549.34 278.11 L 549.81 277.98 L 550.06 277.74 L 550.46 277.73 L 550.58 277.56 L 550.72 277.49 L 550.90 277.42 L 551.52 277.49 L 551.58 277.49 L 552.49 277.24 L 552.64 277.24 L 552.82 277.24 L 553.26 277.21 L 553.47 277.34 L 553.57 277.34 L 553.66 277.34 L 553.79 277.34 L 554.17 276.76 L 554.58 276.74 L 554.95 276.74 L 554.99 276.74 L 555.03 276.74 L 581.25 276.74 L 581.43 276.70 L 596.51 276.51 L 596.59 276.51 L 596.71 276.46 L 596.73 276.46 L 596.77 276.46 L 597.31 274.22 L 597.37 274.22 L 598.03 274.22 L 598.71 274.12 L 598.95 273.90 L 599.37 273.61 L 599.93 273.54 L 599.94 273.54 L 600.02 273.49 L 600.24 273.49 L 600.31 273.45 L 600.85 272.85 L 601.55 272.75 L 601.63 272.75 L 601.99 272.75 L 602.09 272.75 L 602.36 272.60 L 602.59 272.57 L 603.05 272.45 L 603.48 272.38 L 603.70 272.38 L 603.72 272.38 L 613.15 272.38 L 616.12 272.34 L 616.24 272.32 L 616.39 272.05 L 616.86 272.06 L 617.06 272.06 L 617.21 272.06 L 617.31 271.95 L 617.53 271.87 L 617.57 271.86 L 617.90 271.65 L 618.00 271.50 L 618.06 271.45 L 618.24 271.35 L 618.30 271.34 L 618.39 271.33 L 618.46 271.20 L 618.55 271.06 L 618.64 271.03 L 618.71 271.03 L 619.01 270.98 L 619.16 270.87 L 619.29 270.78 L 619.32 270.78 L 619.67 270.78 L 619.80 270.78 L 628.70 270.80 L 629.35 270.79 L 629.47 270.79 L 629.86 270.41 L 630.04 270.36 L 630.78 270.32 L 631.10 270.32 L 631.53 269.42 L 631.59 269.42 L 631.84 269.40 L 631.93 269.39 L 632.27 269.34 L 632.79 268.92 L 632.96 268.91 L 636.09 267.93 L 636.40 267.93 L 636.42 267.93 L 644.77 267.91 L 644.77 267.91 L 644.88 267.91 L 644.98 267.80 L 645.37 266.96 L 645.39 266.96 L 645.85 266.96 L 646.52 266.96 L 647.28 266.96 L 647.34 266.96 L 647.41 266.96 L 647.54 266.96 L 647.76 266.84 L 647.86 266.84 L 647.97 266.83 L 648.11 266.70 L 649.25 266.57 L 649.37 266.57 L 649.63 254.82 L 649.73 254.82 L 649.80 254.80 L 649.88 254.60 L 649.97 254.60 L 649.97 254.60 L 650.00 254.60"/>
	</g>
	<g id="poloto_plot2" class="poloto_plot poloto_imgs poloto_line poloto2 poloto_stroke" fill="none" stroke="black">
		<path d=" M 150.00 393.00 L 150.02 392.99 L 150.04 392.99 L 150.04 392.99 L 150.06 392.99 L 150.09 391.20 L 150.19 390.95 L 150.42 390.95 L 150.75 390.93 L 150.92 389.86 L 151.27 389.77 L 151.33 389.74 L 151.37 389.71 L 151.77 389.23 L 152.52 388.85 L 152.76 388.78 L 152.82 388.79 L 153.27 388.76 L 153.79 388.76 L 153.79 388.76 L 153.80 388.76 L 160.84 388.76 L 160.88 388.75 L 160.98 388.74 L 161.01 388.74 L 161.28 388.63 L 161.40 388.60 L 161.70 388.42 L 161.74 388.35 L 161.83 388.19 L 161.92 388.17 L 161.94 388.16 L 162.02 388.14 L 162.09 388.14 L 162.17 388.14 L 162.37 387.96 L 162.54 387.79 L 162.57 387.79 L 162.65 387.70 L 163.21 387.48 L 163.23 387.48 L 163.30 387.41 L 163.62 387.17 L 163.87 386.88 L 164.16 386.76 L 164.22 386.76 L 164.23 386.76 L 164.28 386.60 L 164.39 386.60 L 164.53 386.58 L 164.81 386.46 L 164.83 386.25 L 164.88 386.25 L 164.94 386.15 L 165.10 386.15 L 165.12 386.15 L 165.28 385.83 L 165.35 385.81 L 165.41 385.79 L 165.47 385.64 L 166.33 385.55 L 166.54 385.52 L 167.01 385.30 L 167.11 385.31 L 167.19 385.29 L 167.23 385.13 L 167.56 384.25 L 167.71 384.24 L 167.87 383.98 L 167.96 383.95 L 168.16 383.83 L 168.24 383.79 L 168.36 383.60 L 168.47 383.45 L 168.85 383.45 L 168.86 383.43 L 168.88 383.30 L 169.01 382.46 L 175.53 382.37 L 176.21 382.11 L 176.23 382.08 L 177.03 381.87 L 177.10 381.86 L 177.17 381.71 L 177.37 381.60 L 177.46 381.41 L 177.49 381.25 L 177.59 380.94 L 177.82 380.93 L 177.83 380.93 L 177.92 380.71 L 178.01 380.71 L 178.11 380.48 L 178.24 380.29 L 178.29 380.19 L 178.30 380.19 L 178.42 379.98 L 178.43 379.97 L 178.56 379.78 L 178.58 379.77 L 178.76 379.71 L 178.80 379.71 L 178.86 379.63 L 178.94 379.62 L 179.05 379.62 L 179.09 379.61 L 179.46 379.42 L 179.47 379.42 L 179.54 379.04 L 179.70 379.03 L 179.85 378.91 L 179.89 378.91 L 179.96 378.90 L 180.00 378.87 L 180.08 378.35 L 180.49 377.91 L 180.53 377.67 L 180.67 377.65 L 180.72 377.59 L 180.75 377.58 L 180.81 377.47 L 180.88 377.05 L 181.02 376.99 L 181.13 376.98 L 181.21 376.77 L 181.25 376.76 L 181.62 376.61 L 181.82 376.50 L 181.88 376.40 L 182.06 376.40 L 182.07 376.40 L 182.09 376.37 L 182.19 375.63 L 182.28 375.62 L 182.58 375.51 L 182.63 375.21 L 182.69 375.21 L 182.77 375.08 L 182.78 375.01 L 182.82 374.96 L 182.84 374.93 L 182.89 374.93 L 182.93 374.87 L 183.05 374.03 L 183.14 373.94 L 183.22 373.69 L 183.34 373.67 L 183.47 373.59 L 183.60 373.33 L 183.69 372.60 L 183.88 372.54 L 183.89 372.23 L 184.00 372.15 L 193.11 372.15 L 193.29 372.15 L 193.72 371.81 L 193.80 371.81 L 193.88 371.81 L 193.89 371.72 L 194.05 371.57 L 194.15 371.54 L 194.22 371.45 L 194.28 371.39 L 194.32 371.36 L 194.48 371.31 L 194.81 371.38 L 194.89 371.15 L 194.95 371.09 L 195.03 371.08 L 195.45 371.04 L 195.51 371.00 L 195.54 371.00 L 195.57 370.95 L 195.66 370.91 L 195.73 370.83 L 196.04 370.61 L 196.48 370.52 L 196.64 370.48 L 197.13 370.34 L 197.36 370.00 L 197.44 369.94 L 197.54 369.67 L 197.68 369.33 L 197.90 369.24 L 198.21 369.23 L 198.63 369.22 L 198.69 369.09 L 198.99 369.01 L 199.18 368.90 L 199.25 368.81 L 199.36 368.78 L 199.45 368.55 L 200.53 368.44 L 201.56 368.44 L 210.73 368.41 L 210.79 368.29 L 210.84 368.20 L 211.13 368.07 L 211.99 367.85 L 212.02 367.81 L 212.14 367.65 L 212.56 367.59 L 212.76 367.15 L 213.07 367.13 L 213.14 367.12 L 213.20 366.68 L 213.74 366.28 L 213.80 366.27 L 213.91 366.25 L 214.03 366.21 L 214.09 366.06 L 214.38 365.38 L 214.49 365.21 L 214.54 365.20 L 214.60 365.12 L 214.74 364.86 L 214.79 364.18 L 214.92 363.90 L 215.32 363.74 L 215.36 363.40 L 215.40 363.40 L 215.46 363.34 L 215.56 363.24 L 215.60 363.22 L 215.63 363.19 L 215.83 362.39 L 215.87 361.93 L 216.10 361.84 L 216.24 361.05 L 216.33 360.90 L 217.04 359.65 L 217.12 359.63 L 244.08 359.27 L 244.10 359.27 L 254.41 359.17 L 254.97 359.04 L 255.08 359.04 L 255.23 358.97 L 255.28 358.87 L 255.34 358.85 L 259.81 358.84 L 260.40 357.41 L 260.62 357.28 L 260.74 356.79 L 263.52 356.73 L 263.54 356.68 L 263.71 356.67 L 264.54 356.59 L 264.59 356.42 L 264.69 356.36 L 264.99 356.29 L 265.02 356.27 L 265.14 356.00 L 265.27 355.91 L 265.29 355.70 L 273.94 355.43 L 274.01 354.78 L 274.35 354.61 L 274.36 354.37 L 274.42 354.17 L 274.49 353.87 L 274.59 353.09 L 274.73 352.66 L 274.86 352.10 L 274.97 352.10 L 275.01 351.67 L 275.19 351.64 L 275.79 351.23 L 276.03 351.04 L 276.07 350.93 L 276.12 350.92 L 276.15 350.78 L 276.24 350.30 L 276.48 350.25 L 276.52 350.24 L 276.66 349.93 L 276.72 349.93 L 276.74 349.75 L 276.80 349.63 L 276.84 349.63 L 276.87 349.37 L 277.06 349.22 L 277.14 348.97 L 277.25 348.96 L 277.32 348.83 L 277.35 348.63 L 277.54 348.53 L 277.59 348.42 L 277.63 348.42 L 277.68 348.41 L 277.71 348.22 L 277.73 348.23 L 277.75 348.22 L 277.84 348.15 L 277.88 347.93 L 277.97 347.93 L 278.04 347.88 L 278.23 347.86 L 278.47 347.84 L 278.48 347.84 L 278.54 347.83 L 278.77 347.83 L 278.87 347.83 L 278.97 347.83 L 279.09 347.79 L 279.16 347.53 L 279.47 347.53 L 279.50 347.37 L 279.53 347.37 L 279.56 347.20 L 279.76 347.14 L 279.79 347.09 L 279.94 347.09 L 293.26 347.05 L 294.02 346.97 L 294.04 346.97 L 294.19 346.97 L 294.20 346.97 L 294.30 346.67 L 294.38 346.65 L 294.44 346.57 L 294.53 346.52 L 294.56 346.50 L 294.59 346.48 L 294.74 346.45 L 295.03 346.39 L 295.21 345.98 L 295.41 345.95 L 295.42 345.93 L 295.45 345.58 L 295.48 345.58 L 295.88 345.58 L 295.89 345.55 L 295.95 345.23 L 296.12 345.18 L 296.23 345.17 L 296.25 345.17 L 296.26 345.13 L 296.30 345.11 L 296.33 344.78 L 296.35 344.77 L 296.45 344.77 L 296.46 344.75 L 296.66 344.71 L 297.23 344.70 L 297.37 344.67 L 297.41 344.66 L 297.44 344.56 L 297.47 344.56 L 297.55 344.19 L 306.66 344.08 L 306.67 343.97 L 306.75 343.90 L 306.77 343.89 L 306.82 343.58 L 306.92 343.50 L 306.93 343.48 L 307.10 343.48 L 307.14 343.48 L 307.17 343.17 L 307.32 343.13 L 307.71 343.12 L 307.72 343.10 L 307.82 342.93 L 307.86 342.93 L 307.88 342.64 L 308.21 342.64 L 308.22 342.63 L 308.72 342.56 L 308.78 342.21 L 308.95 342.21 L 309.16 342.21 L 309.21 341.96 L 309.25 341.76 L 309.34 341.75 L 309.60 341.71 L 309.64 341.69 L 309.76 341.61 L 309.88 341.61 L 310.26 341.62 L 310.31 341.62 L 310.40 341.60 L 310.40 341.60 L 310.53 341.60 L 310.82 341.57 L 311.11 341.54 L 311.16 341.54 L 311.22 341.50 L 311.31 341.41 L 311.54 341.41 L 311.92 341.30 L 312.05 341.10 L 312.26 341.08 L 313.09 340.87 L 313.28 340.87 L 313.41 340.87 L 313.62 340.86 L 313.69 340.85 L 313.90 340.74 L 314.22 340.73 L 314.27 340.63 L 314.33 340.59 L 314.37 340.60 L 314.40 340.56 L 314.66 340.55 L 320.70 340.54 L 320.75 340.54 L 321.13 340.54 L 321.16 340.53 L 321.25 340.24 L 321.32 340.23 L 321.33 340.23 L 321.53 340.22 L 321.58 340.21 L 322.82 339.78 L 322.97 339.74 L 323.07 339.73 L 323.10 339.73 L 323.48 339.72 L 323.61 339.78 L 323.63 339.77 L 323.84 339.75 L 324.06 339.34 L 324.09 339.34 L 324.28 339.32 L 324.36 339.32 L 324.43 339.32 L 324.58 339.24 L 324.92 338.88 L 324.98 338.88 L 325.05 338.82 L 325.18 338.49 L 325.51 338.12 L 325.81 338.15 L 325.87 337.95 L 326.17 337.95 L 326.22 337.93 L 326.27 337.91 L 326.30 337.71 L 326.41 337.71 L 326.43 337.71 L 326.48 337.71 L 326.65 337.71 L 326.92 337.55 L 327.08 337.54 L 327.27 337.54 L 327.35 337.54 L 327.53 337.54 L 327.84 337.54 L 328.14 337.54 L 328.37 337.54 L 328.43 337.53 L 328.49 337.53 L 328.49 337.46 L 328.67 337.41 L 328.72 337.41 L 328.79 337.40 L 329.29 337.40 L 329.29 337.21 L 329.43 337.21 L 330.01 337.21 L 330.39 337.20 L 330.67 337.16 L 330.68 337.09 L 330.70 337.09 L 339.15 336.96 L 339.18 336.96 L 339.28 336.95 L 339.33 336.83 L 339.36 336.83 L 339.36 336.82 L 339.72 336.79 L 339.80 336.40 L 339.91 336.32 L 340.09 335.56 L 340.21 335.55 L 340.35 335.23 L 340.43 335.26 L 340.47 335.26 L 340.51 334.85 L 340.62 334.77 L 340.63 334.49 L 340.67 334.45 L 340.76 334.42 L 340.82 334.27 L 340.90 335.98 L 341.00 335.95 L 341.21 335.27 L 341.30 335.12 L 341.38 334.96 L 341.90 334.69 L 342.34 334.41 L 342.88 334.01 L 343.01 333.96 L 343.16 333.96 L 343.33 333.93 L 346.44 333.72 L 346.69 333.70 L 376.14 333.17 L 468.86 333.15 L 469.17 332.91 L 469.38 332.88 L 469.59 332.88 L 469.92 332.66 L 470.03 332.41 L 470.11 331.94 L 470.26 331.81 L 470.47 331.86 L 470.64 331.58 L 470.69 331.58 L 470.83 331.49 L 470.86 331.50 L 471.01 331.04 L 471.15 330.34 L 471.57 330.27 L 471.58 330.20 L 471.70 329.30 L 472.10 329.27 L 472.11 329.18 L 472.19 329.12 L 472.29 328.31 L 472.72 328.26 L 472.73 328.15 L 472.82 328.09 L 472.92 327.56 L 473.08 327.54 L 473.09 327.45 L 473.16 326.56 L 473.18 326.54 L 473.21 326.51 L 473.40 326.51 L 473.42 326.42 L 473.48 326.35 L 473.68 326.27 L 473.72 326.26 L 473.87 326.22 L 474.13 326.25 L 474.17 326.21 L 474.21 326.19 L 474.25 326.16 L 474.38 325.24 L 474.52 325.22 L 474.54 325.14 L 474.61 324.19 L 474.69 323.85 L 474.71 323.72 L 474.79 323.26 L 474.83 322.45 L 474.99 322.44 L 475.01 322.40 L 475.09 322.24 L 475.20 322.23 L 475.87 322.20 L 476.20 322.18 L 483.44 322.22 L 483.52 322.04 L 483.59 321.90 L 483.71 321.26 L 483.98 321.25 L 484.00 321.19 L 484.05 320.38 L 484.23 320.37 L 484.25 320.29 L 485.83 320.21 L 485.92 319.92 L 486.72 319.78 L 486.81 319.75 L 486.90 318.85 L 487.86 318.59 L 488.27 318.38 L 488.37 317.70 L 488.72 317.70 L 488.94 317.32 L 489.29 316.74 L 489.93 316.39 L 499.62 316.39 L 500.20 316.38 L 500.23 316.38 L 501.04 316.25 L 501.08 316.18 L 501.36 316.12 L 501.69 315.37 L 501.70 315.37 L 501.73 315.34 L 502.16 315.18 L 503.16 314.68 L 503.22 314.62 L 503.33 314.62 L 503.48 314.41 L 503.52 314.38 L 503.58 314.34 L 504.04 314.33 L 504.41 314.33 L 504.61 314.33 L 504.64 314.30 L 505.05 313.53 L 505.37 313.46 L 505.39 313.40 L 505.43 313.33 L 505.47 313.14 L 515.99 313.00 L 516.01 312.98 L 516.04 312.97 L 516.24 312.87 L 516.40 312.78 L 517.33 312.35 L 517.56 312.26 L 518.23 311.93 L 518.80 311.88 L 519.23 311.75 L 519.35 310.62 L 519.88 310.43 L 520.08 310.37 L 520.15 309.56 L 521.70 308.77 L 521.72 308.77 L 521.81 308.41 L 522.10 308.38 L 522.10 308.38 L 522.12 308.29 L 522.17 308.19 L 522.31 308.10 L 522.48 307.55 L 524.09 307.26 L 524.30 307.13 L 524.45 306.82 L 524.47 306.80 L 524.50 306.60 L 531.67 305.89 L 531.90 305.37 L 532.03 305.35 L 532.08 305.01 L 532.76 304.87 L 532.90 304.50 L 533.03 304.50 L 533.10 303.75 L 533.33 303.57 L 533.36 303.54 L 533.67 303.50 L 533.73 302.88 L 533.99 302.80 L 534.05 302.31 L 534.26 302.26 L 534.42 301.98 L 534.54 301.43 L 534.81 301.32 L 534.84 300.76 L 535.18 302.02 L 535.21 302.02 L 535.27 301.31 L 535.34 301.31 L 535.38 301.25 L 535.78 301.18 L 536.36 300.88 L 536.64 301.04 L 537.59 301.01 L 537.61 301.01 L 537.76 301.00 L 537.83 300.98 L 537.93 300.88 L 538.05 300.79 L 538.18 300.66 L 538.46 300.48 L 538.73 300.47 L 539.58 300.38 L 539.62 300.38 L 540.47 300.28 L 540.83 300.23 L 548.08 300.20 L 548.44 300.16 L 548.63 300.16 L 548.71 300.16 L 548.73 300.16 L 548.91 300.14 L 549.00 300.12 L 549.21 299.99 L 549.34 299.97 L 549.81 299.96 L 550.06 299.89 L 550.46 299.86 L 550.58 299.83 L 550.72 299.77 L 550.90 299.69 L 551.52 299.66 L 551.58 299.65 L 552.49 299.51 L 552.64 299.28 L 552.82 299.20 L 553.26 299.07 L 553.47 299.00 L 553.57 299.31 L 553.66 299.30 L 553.79 299.18 L 554.17 298.89 L 554.58 298.81 L 554.95 298.75 L 554.99 298.71 L 555.03 298.50 L 581.25 298.45 L 581.43 298.40 L 596.51 298.33 L 596.59 298.65 L 596.71 297.38 L 596.73 297.38 L 596.77 297.41 L 597.31 296.92 L 597.37 296.90 L 598.03 296.95 L 598.71 296.89 L 598.95 296.85 L 599.37 296.80 L 599.93 296.67 L 599.94 296.67 L 600.02 296.65 L 600.24 296.60 L 600.31 296.51 L 600.85 296.44 L 601.55 296.39 L 601.63 296.26 L 601.99 296.20 L 602.09 296.76 L 602.36 296.71 L 602.59 296.68 L 603.05 296.66 L 603.48 296.66 L 603.70 296.39 L 603.72 296.39 L 613.15 296.38 L 616.12 295.71 L 616.24 295.37 L 616.39 295.28 L 616.86 295.25 L 617.06 295.13 L 617.21 293.44 L 617.31 292.53 L 617.53 292.49 L 617.57 292.48 L 617.90 292.35 L 618.00 292.31 L 618.06 292.26 L 618.24 292.06 L 618.30 292.04 L 618.39 292.02 L 618.46 291.97 L 618.55 291.92 L 618.64 291.84 L 618.71 291.80 L 619.01 291.77 L 619.16 291.68 L 619.29 291.66 L 619.32 291.10 L 619.67 290.98 L 619.80 290.68 L 628.70 290.74 L 629.35 290.56 L 629.47 290.56 L 629.86 290.23 L 630.04 290.20 L 630.78 289.20 L 631.10 289.10 L 631.53 288.98 L 631.59 288.97 L 631.84 288.97 L 631.93 288.44 L 632.27 287.75 L 632.79 287.67 L 632.96 287.14 L 636.09 286.76 L 636.40 286.37 L 636.42 286.37 L 644.77 285.05 L 644.77 285.05 L 644.88 284.99 L 644.98 284.41 L 645.37 284.36 L 645.39 284.36 L 645.85 284.25 L 646.52 284.14 L 647.28 284.09 L 647.34 284.03 L 647.41 283.99 L 647.54 283.99 L 647.76 283.99 L 647.86 283.92 L 647.97 283.92 L 648.11 283.92 L 649.25 283.61 L 649.37 282.89 L 649.63 282.76 L 649.73 282.67 L 649.80 282.66 L 649.88 282.60 L 649.97 282.58 L 649.97 282.58 L 650.00 282.58"/>
	</g>
	<g class="poloto_legend poloto_imgs poloto_line poloto0 poloto_stroke"><line x1="680" x2="730" y1="81.25" y2="81.25"/></g>
	<g class="poloto_legend poloto_imgs poloto_line poloto1 poloto_stroke"><line x1="680" x2="730" y1="131.25" y2="131.25"/></g>
	<g class="poloto_legend poloto_imgs poloto_line poloto2 poloto_stroke"><line x1="680" x2="730" y1="181.25" y2="181.25"/></g>
	<text class="poloto_legend poloto_text poloto_line poloto0" x="675" y="100">total</text>
	<text class="poloto_legend poloto_text poloto_line poloto1" x="675" y="150">code</text>
	<text class="poloto_legend poloto_text poloto_line poloto2" x="675" y="200">docs</text>
	<text class="poloto_text poloto_name poloto_title" x="400.00" y="37.50">Workspace lines over time</text>
	<text class="poloto_text poloto_name poloto_x" x="400.00" y="640">date (JST)</text>
	<text class="poloto_text poloto_name poloto_y" x="37.50" y="250.00" transform="rotate(-90,37.50,250.00)">lines</text>
	<text class="poloto_text poloto_ticks poloto_y">
		<tspan x="135.00" y="400.00">0</tspan>
		<tspan x="135.00" y="333.40">50K</tspan>
		<tspan x="135.00" y="266.81">100K</tspan>
		<tspan x="135.00" y="200.21">150K</tspan>
		<tspan x="135.00" y="133.61">200K</tspan>
	</text>
	<g class="poloto_imgs poloto_ticks poloto_y" stroke="black">
		<line x1="150.00" x2="144.00" y1="400.00" y2="400.00"/>
		<line x1="150.00" x2="144.00" y1="333.40" y2="333.40"/>
		<line x1="150.00" x2="144.00" y1="266.81" y2="266.81"/>
		<line x1="150.00" x2="144.00" y1="200.21" y2="200.21"/>
		<line x1="150.00" x2="144.00" y1="133.61" y2="133.61"/>
	</g>
	<g class="poloto_text poloto_ticks poloto_x">
		<text x="210.61" y="430.00" text-anchor="end" transform="rotate(-90 210.61 430.00)">2026-04-24 12:06</text>
		<text x="303.92" y="430.00" text-anchor="end" transform="rotate(-90 303.92 430.00)">2026-04-30 07:00</text>
		<text x="397.22" y="430.00" text-anchor="end" transform="rotate(-90 397.22 430.00)">2026-05-06 01:53</text>
		<text x="490.52" y="430.00" text-anchor="end" transform="rotate(-90 490.52 430.00)">2026-05-11 20:46</text>
		<text x="583.83" y="430.00" text-anchor="end" transform="rotate(-90 583.83 430.00)">2026-05-17 15:40</text>
	</g>
	<g class="poloto_imgs poloto_ticks poloto_x" stroke="black">
		<line x1="210.61" x2="210.61" y1="400.00" y2="405.00"/>
		<line x1="303.92" x2="303.92" y1="400.00" y2="405.00"/>
		<line x1="397.22" x2="397.22" y1="400.00" y2="405.00"/>
		<line x1="490.52" x2="490.52" y1="400.00" y2="405.00"/>
		<line x1="583.83" x2="583.83" y1="400.00" y2="405.00"/>
	</g>
	<path class="poloto_imgs poloto_ticks poloto_x" stroke="black" style="stroke-dasharray:9.330314789892508;stroke-dashoffset:-60.614016819919925;" d=" M 150.00 400.00 L 650.00 400.00"/>
	<path class="poloto_imgs poloto_ticks poloto_y" stroke="black" style="stroke-dasharray:6.659651833402149;stroke-dashoffset:-0;" d=" M 150.00 400.00 L 150.00 100.00"/>
</svg>

