<svg class="poloto" width="800" height="680" viewBox="0 0 800 680" xmlns="http://www.w3.org/2000/svg">
	<style>
.poloto{
  stroke-linecap:round;
  stroke-linejoin:round;
  font-family:Roboto,sans-serif;
  font-size:16px;
}
.poloto_background{fill:AliceBlue;}
.poloto_scatter{stroke-width:7}
.poloto_line{stroke-width:2}
.poloto_text{fill: black;}
.poloto_name{font-size:24px;dominant-baseline:auto;text-anchor:middle;}
.poloto_where{dominant-baseline:middle;text-anchor:start}
.poloto_text.poloto_legend{font-size:20px;dominant-baseline:middle;text-anchor:start;}
.poloto_text.poloto_ticks.poloto_y{dominant-baseline:middle;text-anchor:end}
.poloto_text.poloto_ticks.poloto_x{dominant-baseline:auto;text-anchor:middle}
.poloto_imgs.poloto_ticks{stroke: black;stroke-width:3;fill:none;stroke-dasharray:none}
.poloto_grid{stroke:gray;stroke-width:0.5}

.poloto0.poloto_stroke{stroke:blue;}
.poloto1.poloto_stroke{stroke:red;}
.poloto2.poloto_stroke{stroke:green;}
.poloto3.poloto_stroke{stroke:gold;}
.poloto4.poloto_stroke{stroke:aqua;}
.poloto5.poloto_stroke{stroke:lime;}
.poloto6.poloto_stroke{stroke:orange;}
.poloto7.poloto_stroke{stroke:chocolate;}
.poloto0.poloto_fill{fill:blue;}
.poloto1.poloto_fill{fill:red;}
.poloto2.poloto_fill{fill:green;}
.poloto3.poloto_fill{fill:gold;}
.poloto4.poloto_fill{fill:aqua;}
.poloto5.poloto_fill{fill:lime;}
.poloto6.poloto_fill{fill:orange;}
.poloto7.poloto_fill{fill:chocolate;}
	</style>
	<circle r="1e5" class="poloto_background" fill="white"/>
	<g id="poloto_plot0" class="poloto_plot poloto_imgs poloto_line poloto0 poloto_stroke" fill="none" stroke="black">
		<path d=" M 150.00 110.03 L 418.60 109.75 L 419.48 109.74 L 422.58 109.73 L 424.03 109.49 L 424.99 109.47 L 425.17 109.46 L 436.61 109.39 L 439.18 108.55 L 442.61 108.36 L 448.30 106.71 L 452.00 106.69 L 456.57 105.99 L 459.16 106.07 L 460.40 106.07 L 461.76 105.26 L 465.10 104.71 L 465.57 104.13 L 466.74 104.05 L 469.62 104.00 L 471.51 103.73 L 473.92 106.89 L 477.18 106.83 L 483.78 105.57 L 486.66 105.26 L 489.25 104.99 L 505.72 103.18 L 519.87 102.30 L 536.85 100.63 L 541.18 100.55 L 545.98 100.55 L 551.25 100.48 L 650.00 100.00"/>
	</g>
	<g id="poloto_plot1" class="poloto_plot poloto_imgs poloto_line poloto1 poloto_stroke" fill="none" stroke="black">
		<path d=" M 150.00 250.74 L 418.60 250.74 L 419.48 250.74 L 422.58 250.74 L 424.03 250.74 L 424.99 250.72 L 425.17 250.72 L 436.61 250.72 L 439.18 250.70 L 442.61 250.67 L 448.30 250.64 L 452.00 250.64 L 456.57 250.54 L 459.16 250.54 L 460.40 250.54 L 461.76 250.54 L 465.10 250.16 L 465.57 250.16 L 466.74 250.16 L 469.62 250.16 L 471.51 250.16 L 473.92 250.25 L 477.18 250.25 L 483.78 250.23 L 486.66 250.23 L 489.25 250.23 L 505.72 248.98 L 519.87 248.65 L 536.85 247.75 L 541.18 247.75 L 545.98 247.75 L 551.25 247.75 L 650.00 247.64"/>
	</g>
	<g id="poloto_plot2" class="poloto_plot poloto_imgs poloto_line poloto2 poloto_stroke" fill="none" stroke="black">
		<path d=" M 150.00 297.42 L 418.60 297.22 L 419.48 297.21 L 422.58 297.20 L 424.03 297.01 L 424.99 297.01 L 425.17 296.99 L 436.61 296.94 L 439.18 296.31 L 442.61 296.17 L 448.30 294.93 L 452.00 294.92 L 456.57 294.39 L 459.16 294.45 L 460.40 294.44 L 461.76 293.77 L 465.10 293.65 L 465.57 293.18 L 466.74 293.12 L 469.62 293.07 L 471.51 292.84 L 473.92 295.62 L 477.18 295.57 L 483.78 294.46 L 486.66 294.21 L 489.25 293.96 L 505.72 293.52 L 519.87 293.05 L 536.85 292.40 L 541.18 292.33 L 545.98 292.33 L 551.25 292.27 L 650.00 291.94"/>
	</g>
	<g class="poloto_legend poloto_imgs poloto_line poloto0 poloto_stroke"><line x1="680" x2="730" y1="81.25" y2="81.25"/></g>
	<g class="poloto_legend poloto_imgs poloto_line poloto1 poloto_stroke"><line x1="680" x2="730" y1="131.25" y2="131.25"/></g>
	<g class="poloto_legend poloto_imgs poloto_line poloto2 poloto_stroke"><line x1="680" x2="730" y1="181.25" y2="181.25"/></g>
	<text class="poloto_legend poloto_text poloto_line poloto0" x="675" y="100">total</text>
	<text class="poloto_legend poloto_text poloto_line poloto1" x="675" y="150">code</text>
	<text class="poloto_legend poloto_text poloto_line poloto2" x="675" y="200">docs</text>
	<text class="poloto_text poloto_name poloto_title" x="400.00" y="37.50">Workspace lines over time</text>
	<text class="poloto_text poloto_name poloto_x" x="400.00" y="640">date (JST)</text>
	<text class="poloto_text poloto_name poloto_y" x="37.50" y="250.00" transform="rotate(-90,37.50,250.00)">lines</text>
	<text class="poloto_text poloto_ticks poloto_y">
		<tspan x="135.00" y="400.00">0</tspan>
		<tspan x="135.00" y="356.57">20K</tspan>
		<tspan x="135.00" y="313.13">40K</tspan>
		<tspan x="135.00" y="269.70">60K</tspan>
		<tspan x="135.00" y="226.27">80K</tspan>
		<tspan x="135.00" y="182.83">100K</tspan>
		<tspan x="135.00" y="139.40">120K</tspan>
	</text>
	<g class="poloto_imgs poloto_ticks poloto_y" stroke="black">
		<line x1="150.00" x2="144.00" y1="400.00" y2="400.00"/>
		<line x1="150.00" x2="144.00" y1="356.57" y2="356.57"/>
		<line x1="150.00" x2="144.00" y1="313.13" y2="313.13"/>
		<line x1="150.00" x2="144.00" y1="269.70" y2="269.70"/>
		<line x1="150.00" x2="144.00" y1="226.27" y2="226.27"/>
		<line x1="150.00" x2="144.00" y1="182.83" y2="182.83"/>
		<line x1="150.00" x2="144.00" y1="139.40" y2="139.40"/>
	</g>
	<g class="poloto_text poloto_ticks poloto_x">
		<text x="188.32" y="430.00" text-anchor="end" transform="rotate(-90 188.32 430.00)">2026-05-02 00:40</text>
		<text x="247.62" y="430.00" text-anchor="end" transform="rotate(-90 247.62 430.00)">2026-05-02 03:26</text>
		<text x="306.92" y="430.00" text-anchor="end" transform="rotate(-90 306.92 430.00)">2026-05-02 06:13</text>
		<text x="366.22" y="430.00" text-anchor="end" transform="rotate(-90 366.22 430.00)">2026-05-02 09:00</text>
		<text x="425.52" y="430.00" text-anchor="end" transform="rotate(-90 425.52 430.00)">2026-05-02 11:46</text>
		<text x="484.82" y="430.00" text-anchor="end" transform="rotate(-90 484.82 430.00)">2026-05-02 14:33</text>
		<text x="544.12" y="430.00" text-anchor="end" transform="rotate(-90 544.12 430.00)">2026-05-02 17:20</text>
		<text x="603.42" y="430.00" text-anchor="end" transform="rotate(-90 603.42 430.00)">2026-05-02 20:06</text>
	</g>
	<g class="poloto_imgs poloto_ticks poloto_x" stroke="black">
		<line x1="188.32" x2="188.32" y1="400.00" y2="405.00"/>
		<line x1="247.62" x2="247.62" y1="400.00" y2="405.00"/>
		<line x1="306.92" x2="306.92" y1="400.00" y2="405.00"/>
		<line x1="366.22" x2="366.22" y1="400.00" y2="405.00"/>
		<line x1="425.52" x2="425.52" y1="400.00" y2="405.00"/>
		<line x1="484.82" x2="484.82" y1="400.00" y2="405.00"/>
		<line x1="544.12" x2="544.12" y1="400.00" y2="405.00"/>
		<line x1="603.42" x2="603.42" y1="400.00" y2="405.00"/>
	</g>
	<path class="poloto_imgs poloto_ticks poloto_x" stroke="black" style="stroke-dasharray:5.930002253400856;stroke-dashoffset:-38.31967456266284;" d=" M 150.00 400.00 L 650.00 400.00"/>
	<path class="poloto_imgs poloto_ticks poloto_y" stroke="black" style="stroke-dasharray:10.858313486749237;stroke-dashoffset:-0;" d=" M 150.00 400.00 L 150.00 100.00"/>
</svg>

