<svg class="poloto" width="800" height="680" viewBox="0 0 800 680" xmlns="http://www.w3.org/2000/svg">
	<style>
.poloto{
  stroke-linecap:round;
  stroke-linejoin:round;
  font-family:Roboto,sans-serif;
  font-size:16px;
}
.poloto_background{fill:AliceBlue;}
.poloto_scatter{stroke-width:7}
.poloto_line{stroke-width:2}
.poloto_text{fill: black;}
.poloto_name{font-size:24px;dominant-baseline:auto;text-anchor:middle;}
.poloto_where{dominant-baseline:middle;text-anchor:start}
.poloto_text.poloto_legend{font-size:20px;dominant-baseline:middle;text-anchor:start;}
.poloto_text.poloto_ticks.poloto_y{dominant-baseline:middle;text-anchor:end}
.poloto_text.poloto_ticks.poloto_x{dominant-baseline:auto;text-anchor:middle}
.poloto_imgs.poloto_ticks{stroke: black;stroke-width:3;fill:none;stroke-dasharray:none}
.poloto_grid{stroke:gray;stroke-width:0.5}

.poloto0.poloto_stroke{stroke:blue;}
.poloto1.poloto_stroke{stroke:red;}
.poloto2.poloto_stroke{stroke:green;}
.poloto3.poloto_stroke{stroke:gold;}
.poloto4.poloto_stroke{stroke:aqua;}
.poloto5.poloto_stroke{stroke:lime;}
.poloto6.poloto_stroke{stroke:orange;}
.poloto7.poloto_stroke{stroke:chocolate;}
.poloto0.poloto_fill{fill:blue;}
.poloto1.poloto_fill{fill:red;}
.poloto2.poloto_fill{fill:green;}
.poloto3.poloto_fill{fill:gold;}
.poloto4.poloto_fill{fill:aqua;}
.poloto5.poloto_fill{fill:lime;}
.poloto6.poloto_fill{fill:orange;}
.poloto7.poloto_fill{fill:chocolate;}
	</style>
	<circle r="1e5" class="poloto_background" fill="white"/>
	<g id="poloto_plot0" class="poloto_plot poloto_imgs poloto_line poloto0 poloto_stroke" fill="none" stroke="black">
		<path d=" M 150.00 370.49 L 150.03 370.47 L 150.04 370.45 L 150.05 370.45 L 150.07 370.45 L 150.10 367.25 L 150.20 366.87 L 150.45 366.85 L 150.81 366.58 L 150.99 364.96 L 151.35 364.86 L 151.42 364.77 L 151.47 364.74 L 151.89 363.94 L 152.70 363.30 L 152.95 360.78 L 153.01 360.79 L 153.50 360.69 L 154.06 360.67 L 154.06 360.67 L 154.07 360.67 L 161.60 360.67 L 161.65 360.67 L 161.75 360.65 L 161.79 360.62 L 162.08 360.47 L 162.21 360.44 L 162.53 360.20 L 162.57 360.10 L 162.66 359.87 L 162.76 359.84 L 162.79 359.84 L 162.86 359.78 L 162.95 359.78 L 163.03 359.78 L 163.24 359.41 L 163.42 359.18 L 163.46 359.18 L 163.55 359.04 L 164.15 359.62 L 164.16 359.62 L 164.23 359.52 L 164.58 359.09 L 164.85 358.58 L 165.16 358.35 L 165.22 358.31 L 165.23 358.31 L 165.29 358.11 L 165.41 358.11 L 165.56 358.04 L 165.85 357.85 L 165.87 357.55 L 165.92 357.55 L 166.00 357.39 L 166.17 357.39 L 166.18 357.39 L 166.36 356.96 L 166.43 356.94 L 166.49 356.91 L 166.56 356.73 L 167.48 356.50 L 167.70 356.45 L 168.21 356.15 L 168.32 356.15 L 168.40 356.14 L 168.45 355.92 L 168.80 354.65 L 168.95 354.62 L 169.14 354.20 L 169.22 354.16 L 169.44 353.80 L 169.53 353.68 L 169.65 353.45 L 169.77 353.25 L 170.18 350.32 L 170.19 350.25 L 170.21 350.07 L 170.35 348.67 L 177.33 348.56 L 178.06 346.96 L 178.08 346.92 L 178.94 346.67 L 179.01 346.66 L 179.09 346.35 L 179.30 346.19 L 179.39 345.91 L 179.43 345.67 L 179.53 345.25 L 179.78 345.24 L 179.79 344.96 L 179.89 344.65 L 179.98 344.64 L 180.09 344.29 L 180.23 344.04 L 180.28 343.91 L 180.30 343.90 L 180.42 343.63 L 180.44 343.62 L 180.57 343.35 L 180.59 343.34 L 180.79 342.02 L 180.83 342.02 L 180.90 341.80 L 180.98 341.79 L 181.10 341.79 L 181.15 341.76 L 181.54 341.51 L 181.55 341.52 L 181.62 340.93 L 181.80 340.92 L 181.95 340.03 L 182.00 339.96 L 182.08 339.95 L 182.11 339.91 L 182.20 339.23 L 182.64 333.49 L 182.69 333.21 L 182.84 333.18 L 182.88 333.11 L 182.92 333.09 L 182.99 332.94 L 183.06 332.29 L 183.21 332.16 L 183.32 332.14 L 183.41 331.86 L 183.46 331.85 L 183.85 331.63 L 184.07 331.47 L 184.13 331.21 L 184.32 331.20 L 184.33 331.20 L 184.35 331.18 L 184.47 329.80 L 184.56 329.72 L 184.88 328.32 L 184.94 327.92 L 185.00 327.91 L 185.08 327.76 L 185.09 327.65 L 185.13 327.58 L 185.16 327.55 L 185.21 327.54 L 185.25 327.47 L 185.38 326.33 L 185.47 326.16 L 185.56 325.83 L 185.69 325.80 L 185.83 325.70 L 185.97 324.89 L 186.07 323.77 L 186.27 323.71 L 186.28 323.29 L 186.40 323.16 L 196.15 323.16 L 196.34 323.15 L 196.80 322.55 L 196.89 322.54 L 196.97 322.54 L 196.99 322.39 L 197.15 322.21 L 197.27 322.18 L 197.33 322.07 L 197.40 321.99 L 197.44 321.95 L 197.62 321.90 L 197.97 321.83 L 198.06 321.52 L 198.12 321.44 L 198.21 321.43 L 198.66 321.28 L 198.72 321.19 L 198.75 321.19 L 198.78 321.08 L 198.88 321.03 L 198.96 320.92 L 199.29 320.17 L 199.76 320.05 L 199.93 320.00 L 200.45 319.81 L 200.70 316.20 L 200.78 316.12 L 200.89 315.77 L 201.04 315.29 L 201.28 315.16 L 201.61 315.15 L 202.06 315.14 L 202.12 314.98 L 202.44 314.81 L 202.65 314.55 L 202.72 314.44 L 202.85 314.40 L 202.94 314.08 L 204.10 313.73 L 205.19 313.73 L 215.01 313.69 L 215.08 313.54 L 215.13 313.44 L 215.44 313.28 L 216.36 312.03 L 216.40 311.95 L 216.53 311.63 L 216.98 311.55 L 217.19 310.71 L 217.51 310.70 L 217.59 310.69 L 217.66 310.11 L 218.23 306.82 L 218.30 306.82 L 218.42 306.79 L 218.55 306.75 L 218.60 306.39 L 218.92 305.15 L 219.04 304.92 L 219.09 304.91 L 219.16 304.33 L 219.30 303.53 L 219.36 302.67 L 219.50 302.29 L 219.93 298.02 L 219.97 297.59 L 220.01 297.59 L 220.08 297.51 L 220.18 297.40 L 220.22 297.36 L 220.26 297.32 L 220.47 296.29 L 220.52 295.57 L 220.77 295.42 L 220.91 294.35 L 221.01 293.67 L 221.77 283.71 L 221.86 283.69 L 250.71 283.21 L 250.74 283.21 L 261.77 283.07 L 262.37 282.80 L 262.49 282.80 L 262.65 282.73 L 262.71 282.60 L 262.77 282.56 L 267.56 282.49 L 268.19 280.60 L 268.42 280.43 L 268.55 279.73 L 271.52 279.59 L 271.54 279.40 L 271.73 279.38 L 272.62 278.19 L 272.67 277.97 L 272.78 277.90 L 273.10 277.81 L 273.14 277.78 L 273.26 277.42 L 273.40 277.33 L 273.42 277.06 L 282.69 276.70 L 282.76 275.67 L 283.12 275.45 L 283.13 273.74 L 283.19 273.49 L 283.27 273.07 L 283.37 271.89 L 283.53 271.26 L 283.66 270.53 L 283.78 270.53 L 283.83 269.97 L 284.02 269.92 L 284.66 267.17 L 284.92 266.87 L 284.96 266.70 L 285.02 266.70 L 285.05 266.51 L 285.14 265.83 L 285.40 265.51 L 285.44 265.46 L 285.60 263.04 L 285.66 263.03 L 285.68 262.77 L 285.74 262.58 L 285.78 262.57 L 285.82 262.21 L 286.02 260.90 L 286.11 260.53 L 286.22 260.48 L 286.30 256.98 L 286.33 256.70 L 286.54 254.70 L 286.59 254.54 L 286.63 254.54 L 286.68 254.53 L 286.72 254.25 L 286.74 254.26 L 286.76 254.25 L 286.86 250.72 L 286.89 250.41 L 286.99 250.39 L 287.07 250.33 L 287.28 250.23 L 287.53 250.10 L 287.54 250.10 L 287.61 250.06 L 287.85 249.99 L 287.96 249.99 L 288.07 249.99 L 288.19 248.45 L 288.27 248.08 L 288.60 248.07 L 288.63 247.83 L 288.67 247.83 L 288.70 247.56 L 288.91 245.33 L 288.95 245.28 L 289.10 245.27 L 303.36 245.20 L 304.18 245.09 L 304.20 245.09 L 304.36 245.09 L 304.38 245.09 L 304.48 244.64 L 304.56 244.63 L 304.63 244.41 L 304.73 244.35 L 304.76 244.32 L 304.79 244.30 L 304.94 244.06 L 305.25 243.84 L 305.45 243.12 L 305.67 242.44 L 305.68 242.40 L 305.71 241.76 L 305.74 241.74 L 306.17 241.36 L 306.17 241.32 L 306.24 240.81 L 306.42 240.76 L 306.54 240.71 L 306.56 239.81 L 306.57 239.76 L 306.62 240.62 L 306.65 240.09 L 306.67 240.07 L 306.78 238.86 L 306.78 238.83 L 307.01 238.73 L 307.62 238.71 L 307.76 238.67 L 307.81 238.66 L 307.84 238.50 L 307.87 238.50 L 307.96 237.91 L 317.71 236.75 L 317.72 236.60 L 317.80 236.48 L 317.83 236.26 L 317.88 226.18 L 317.99 222.06 L 318.00 222.03 L 318.18 221.95 L 318.22 221.95 L 318.25 221.47 L 318.41 221.43 L 318.83 220.45 L 318.84 220.43 L 318.95 220.13 L 318.99 220.14 L 319.01 219.65 L 319.37 219.08 L 319.38 219.06 L 319.91 218.83 L 319.97 218.32 L 320.16 218.33 L 320.38 217.03 L 320.44 216.51 L 320.48 216.10 L 320.58 215.60 L 320.86 215.42 L 320.90 215.30 L 321.02 215.18 L 321.16 215.18 L 321.57 215.18 L 321.61 215.18 L 321.71 215.16 L 321.72 215.16 L 321.85 215.17 L 322.16 215.15 L 322.48 214.96 L 322.52 214.95 L 322.59 214.88 L 322.69 214.74 L 322.93 214.74 L 323.34 214.56 L 323.48 214.16 L 323.70 210.68 L 324.60 213.62 L 324.79 213.61 L 324.94 213.59 L 325.16 213.59 L 325.23 213.53 L 325.46 213.37 L 325.81 213.13 L 325.85 212.97 L 325.92 212.90 L 325.96 212.92 L 326.00 212.87 L 326.27 212.65 L 332.73 212.65 L 332.79 212.65 L 333.20 212.64 L 333.24 212.62 L 333.32 212.18 L 333.40 211.93 L 333.41 211.93 L 333.63 211.89 L 333.69 211.87 L 335.01 211.22 L 335.16 211.16 L 335.28 211.15 L 335.30 211.14 L 335.71 210.99 L 335.85 211.07 L 335.88 211.06 L 336.10 211.02 L 336.34 209.64 L 336.37 209.63 L 336.57 209.48 L 336.65 209.48 L 336.73 209.48 L 336.90 209.32 L 337.26 208.77 L 337.33 208.75 L 337.39 208.59 L 337.54 207.94 L 337.89 207.26 L 338.21 204.06 L 338.27 203.67 L 338.60 203.52 L 338.65 203.44 L 338.71 203.28 L 338.74 202.77 L 338.85 201.85 L 338.88 201.89 L 338.93 201.87 L 339.11 201.86 L 339.39 201.53 L 339.57 201.46 L 339.77 201.45 L 339.86 201.44 L 340.06 201.43 L 340.38 201.43 L 340.71 201.42 L 340.96 201.41 L 341.01 201.40 L 341.07 201.39 L 341.08 201.28 L 341.27 201.22 L 341.32 201.20 L 341.40 201.06 L 341.93 201.04 L 341.94 200.77 L 342.08 200.76 L 342.70 200.76 L 343.11 200.59 L 343.41 200.39 L 343.42 200.28 L 343.45 200.28 L 352.50 200.09 L 352.52 200.08 L 352.63 200.07 L 352.68 199.91 L 352.71 199.89 L 352.72 199.88 L 353.10 199.84 L 353.19 199.26 L 353.30 199.13 L 353.50 197.99 L 353.62 197.98 L 353.77 197.49 L 353.86 197.55 L 353.90 197.55 L 353.95 196.99 L 354.06 196.62 L 354.08 196.21 L 354.12 196.16 L 354.21 196.12 L 354.28 195.94 L 354.36 198.11 L 354.47 198.07 L 354.69 197.21 L 354.79 196.99 L 354.88 196.81 L 355.43 195.56 L 355.91 194.96 L 356.48 193.80 L 356.62 193.75 L 356.79 193.75 L 356.96 193.70 L 360.29 193.37 L 360.57 193.34 L 392.09 192.46 L 491.35 192.26 L 491.68 191.90 L 491.91 191.86 L 492.13 191.86 L 492.48 191.18 L 492.60 190.85 L 492.69 190.24 L 492.85 188.49 L 493.08 188.85 L 493.26 188.47 L 493.30 188.46 L 493.46 188.35 L 493.49 188.35 L 493.65 187.70 L 493.80 186.68 L 494.25 185.58 L 494.26 185.49 L 494.39 184.19 L 494.82 180.96 L 494.83 180.85 L 494.91 180.78 L 495.02 179.63 L 495.48 178.08 L 495.49 177.94 L 495.59 177.86 L 495.70 177.10 L 495.87 176.49 L 495.88 176.38 L 495.96 175.20 L 495.97 175.17 L 496.01 174.84 L 496.21 172.74 L 496.23 172.62 L 496.30 172.50 L 496.51 172.22 L 496.55 172.21 L 496.72 171.81 L 496.99 171.85 L 497.03 171.80 L 497.07 171.77 L 497.12 171.74 L 497.26 170.51 L 497.40 169.50 L 497.43 169.41 L 497.51 168.15 L 497.59 166.93 L 497.61 166.78 L 497.70 165.34 L 497.74 164.21 L 497.91 163.44 L 497.93 163.39 L 498.02 163.15 L 498.14 163.13 L 498.85 163.10 L 499.21 163.06 L 506.96 163.11 L 507.04 162.89 L 507.11 162.70 L 507.25 161.86 L 507.54 161.64 L 507.56 161.56 L 507.61 160.44 L 507.80 159.36 L 507.82 159.26 L 509.51 159.19 L 509.62 158.58 L 510.47 158.40 L 510.56 158.35 L 510.66 157.09 L 511.69 155.91 L 512.13 155.46 L 512.24 154.53 L 512.61 152.95 L 512.84 152.49 L 513.22 151.56 L 513.90 151.09 L 524.28 151.08 L 524.90 150.97 L 524.93 150.99 L 525.80 150.81 L 525.84 150.72 L 526.14 150.64 L 526.50 149.61 L 526.50 149.61 L 526.54 149.57 L 527.00 148.39 L 528.07 147.72 L 528.14 147.66 L 528.24 147.65 L 528.41 147.34 L 528.45 147.25 L 528.51 147.20 L 529.01 147.15 L 529.41 147.15 L 529.62 147.15 L 529.65 147.10 L 530.10 146.08 L 530.44 145.88 L 530.45 145.80 L 530.49 145.72 L 530.54 145.44 L 541.80 145.05 L 541.82 145.02 L 541.86 145.01 L 542.07 144.89 L 542.24 144.77 L 543.24 143.18 L 543.48 142.99 L 544.20 142.52 L 544.81 142.40 L 545.27 142.25 L 545.40 140.79 L 545.97 139.07 L 546.18 138.95 L 546.25 137.85 L 547.92 135.81 L 547.93 135.81 L 548.03 135.32 L 548.34 135.26 L 548.35 135.26 L 548.37 135.14 L 548.42 134.98 L 548.57 134.82 L 548.75 133.97 L 550.47 131.91 L 550.70 131.66 L 550.85 131.29 L 550.88 131.25 L 550.91 130.96 L 558.58 130.03 L 558.83 129.33 L 558.98 129.29 L 559.03 128.83 L 559.75 128.61 L 559.90 128.14 L 560.04 128.14 L 560.12 127.16 L 560.36 124.65 L 560.40 124.61 L 560.73 124.57 L 560.80 123.75 L 561.07 122.77 L 561.13 122.09 L 561.36 121.46 L 561.53 121.13 L 561.66 120.38 L 561.95 119.74 L 561.98 119.02 L 562.35 118.86 L 562.38 118.86 L 562.44 117.95 L 562.52 117.95 L 562.56 117.88 L 562.99 116.18 L 563.61 115.62 L 563.91 115.80 L 564.93 115.72 L 564.95 115.72 L 565.11 115.70 L 565.18 115.68 L 565.29 115.56 L 565.42 115.46 L 565.55 115.28 L 565.86 115.03 L 566.15 115.02 L 567.06 114.84 L 567.10 114.83 L 568.01 114.68 L 568.40 114.57 L 576.16 114.55 L 576.55 114.43 L 576.74 114.34 L 576.83 114.34 L 576.85 114.34 L 577.05 114.32 L 577.14 114.26 L 577.36 114.10 L 577.50 114.07 L 578.01 113.90 L 578.27 113.51 L 578.71 113.46 L 578.83 113.21 L 578.98 113.06 L 579.17 112.86 L 579.84 112.91 L 579.91 112.90 L 580.88 112.42 L 581.03 112.14 L 581.23 112.05 L 581.70 111.83 L 581.92 111.89 L 582.04 112.26 L 582.13 112.24 L 582.26 112.08 L 582.68 110.96 L 583.12 110.85 L 583.51 110.75 L 583.55 110.70 L 583.60 110.39 L 611.67 110.31 L 611.85 110.17 L 628.00 109.80 L 628.08 110.21 L 628.22 108.50 L 628.24 108.50 L 628.28 108.54 L 628.86 105.06 L 628.92 105.03 L 629.63 105.11 L 630.36 104.89 L 630.61 104.57 L 631.06 104.14 L 631.66 103.88 L 631.68 103.88 L 631.76 103.80 L 631.99 103.74 L 632.06 103.57 L 632.65 102.72 L 633.40 102.55 L 633.48 102.38 L 633.86 102.31 L 633.98 102.98 L 634.26 102.73 L 634.51 102.67 L 635.00 102.49 L 635.47 102.40 L 635.70 102.03 L 635.72 102.03 L 645.82 102.02 L 648.99 101.07 L 649.12 100.61 L 649.28 100.18 L 649.79 100.15 L 650.00 100.00"/>
	</g>
	<g id="poloto_plot1" class="poloto_plot poloto_imgs poloto_line poloto1 poloto_stroke" fill="none" stroke="black">
		<path d=" M 150.00 382.47 L 150.03 382.45 L 150.04 382.44 L 150.05 382.44 L 150.07 382.44 L 150.10 381.89 L 150.20 381.87 L 150.45 381.86 L 150.81 381.65 L 150.99 381.55 L 151.35 381.58 L 151.42 381.54 L 151.47 381.54 L 151.89 381.49 L 152.70 381.39 L 152.95 379.22 L 153.01 379.22 L 153.50 379.17 L 154.06 379.16 L 154.06 379.16 L 154.07 379.16 L 161.60 379.16 L 161.65 379.16 L 161.75 379.16 L 161.79 379.13 L 162.08 379.12 L 162.21 379.12 L 162.53 379.12 L 162.57 379.12 L 162.66 379.10 L 162.76 379.10 L 162.79 379.10 L 162.86 379.08 L 162.95 379.08 L 163.03 379.08 L 163.24 378.96 L 163.42 378.96 L 163.46 378.96 L 163.55 378.96 L 164.15 379.77 L 164.16 379.77 L 164.23 379.76 L 164.58 379.64 L 164.85 379.50 L 165.16 379.44 L 165.22 379.40 L 165.23 379.40 L 165.29 379.40 L 165.41 379.40 L 165.56 379.35 L 165.85 379.30 L 165.87 379.30 L 165.92 379.30 L 166.00 379.28 L 166.17 379.28 L 166.18 379.28 L 166.36 379.27 L 166.43 379.27 L 166.49 379.27 L 166.56 379.27 L 167.48 379.17 L 167.70 379.17 L 168.21 379.12 L 168.32 379.12 L 168.40 379.12 L 168.45 379.12 L 168.80 379.06 L 168.95 379.06 L 169.14 378.98 L 169.22 378.97 L 169.44 378.80 L 169.53 378.73 L 169.65 378.73 L 169.77 378.73 L 170.18 376.20 L 170.19 376.15 L 170.21 376.15 L 170.35 375.91 L 177.33 375.91 L 178.06 374.81 L 178.08 374.81 L 178.94 374.81 L 179.01 374.81 L 179.09 374.70 L 179.30 374.68 L 179.39 374.68 L 179.43 374.68 L 179.53 374.68 L 179.78 374.68 L 179.79 374.44 L 179.89 374.43 L 179.98 374.43 L 180.09 374.41 L 180.23 374.40 L 180.28 374.40 L 180.30 374.40 L 180.42 374.40 L 180.44 374.40 L 180.57 374.40 L 180.59 374.40 L 180.79 373.33 L 180.83 373.33 L 180.90 373.20 L 180.98 373.20 L 181.10 373.20 L 181.15 373.19 L 181.54 373.18 L 181.55 373.18 L 181.62 373.12 L 181.80 373.12 L 181.95 372.50 L 182.00 372.43 L 182.08 372.43 L 182.11 372.43 L 182.20 372.41 L 182.64 367.88 L 182.69 367.92 L 182.84 367.92 L 182.88 367.92 L 182.92 367.91 L 182.99 367.91 L 183.06 367.85 L 183.21 367.85 L 183.32 367.85 L 183.41 367.84 L 183.46 367.84 L 183.85 367.83 L 184.07 367.83 L 184.13 367.72 L 184.32 367.72 L 184.33 367.72 L 184.35 367.72 L 184.47 367.41 L 184.56 367.34 L 184.88 366.26 L 184.94 366.26 L 185.00 366.26 L 185.08 366.27 L 185.09 366.27 L 185.13 366.27 L 185.16 366.27 L 185.21 366.27 L 185.25 366.27 L 185.38 366.25 L 185.47 366.25 L 185.56 366.24 L 185.69 366.24 L 185.83 366.23 L 185.97 365.83 L 186.07 365.70 L 186.27 365.70 L 186.28 365.69 L 186.40 365.69 L 196.15 365.69 L 196.34 365.69 L 196.80 365.62 L 196.89 365.61 L 196.97 365.61 L 196.99 365.61 L 197.15 365.61 L 197.27 365.61 L 197.33 365.61 L 197.40 365.61 L 197.44 365.60 L 197.62 365.60 L 197.97 365.62 L 198.06 365.62 L 198.12 365.62 L 198.21 365.62 L 198.66 365.54 L 198.72 365.50 L 198.75 365.50 L 198.78 365.44 L 198.88 365.43 L 198.96 365.43 L 199.29 365.02 L 199.76 365.02 L 199.93 365.02 L 200.45 365.02 L 200.70 362.25 L 200.78 362.25 L 200.89 362.25 L 201.04 362.24 L 201.28 362.24 L 201.61 362.24 L 202.06 362.24 L 202.12 362.24 L 202.44 362.17 L 202.65 362.06 L 202.72 362.06 L 202.85 362.06 L 202.94 362.04 L 204.10 361.87 L 205.19 361.87 L 215.01 361.87 L 215.08 361.87 L 215.13 361.87 L 215.44 361.87 L 216.36 360.99 L 216.40 360.97 L 216.53 360.88 L 216.98 360.87 L 217.19 360.66 L 217.51 360.66 L 217.59 360.66 L 217.66 360.66 L 218.23 358.23 L 218.30 358.23 L 218.42 358.23 L 218.55 358.23 L 218.60 358.07 L 218.92 357.78 L 219.04 357.78 L 219.09 357.78 L 219.16 357.33 L 219.30 356.89 L 219.36 356.89 L 219.50 356.88 L 219.93 353.25 L 219.97 353.25 L 220.01 353.25 L 220.08 353.25 L 220.18 353.25 L 220.22 353.25 L 220.26 353.25 L 220.47 353.25 L 220.52 353.17 L 220.77 353.16 L 220.91 353.11 L 221.01 352.67 L 221.77 345.46 L 221.86 345.46 L 250.71 345.46 L 250.74 345.46 L 261.77 345.46 L 262.37 345.35 L 262.49 345.35 L 262.65 345.35 L 262.71 345.35 L 262.77 345.35 L 267.56 345.29 L 268.19 345.22 L 268.42 345.22 L 268.55 345.20 L 271.52 345.14 L 271.54 345.04 L 271.73 345.05 L 272.62 344.07 L 272.67 344.07 L 272.78 344.07 L 273.10 344.07 L 273.14 344.07 L 273.26 344.07 L 273.40 344.07 L 273.42 344.07 L 282.69 344.05 L 282.76 343.88 L 283.12 343.88 L 283.13 342.70 L 283.19 342.70 L 283.27 342.70 L 283.37 342.59 L 283.53 342.59 L 283.66 342.54 L 283.78 342.54 L 283.83 342.54 L 284.02 342.52 L 284.66 340.53 L 284.92 340.52 L 284.96 340.51 L 285.02 340.51 L 285.05 340.51 L 285.14 340.48 L 285.40 340.23 L 285.44 340.19 L 285.60 338.40 L 285.66 338.39 L 285.68 338.39 L 285.74 338.37 L 285.78 338.37 L 285.82 338.36 L 286.02 337.38 L 286.11 337.37 L 286.22 337.35 L 286.30 334.31 L 286.33 334.30 L 286.54 332.59 L 286.59 332.59 L 286.63 332.59 L 286.68 332.59 L 286.72 332.59 L 286.74 332.59 L 286.76 332.59 L 286.86 329.42 L 286.89 329.42 L 286.99 329.40 L 287.07 329.40 L 287.28 329.34 L 287.53 329.25 L 287.54 329.25 L 287.61 329.23 L 287.85 329.18 L 287.96 329.18 L 288.07 329.18 L 288.19 327.82 L 288.27 327.82 L 288.60 327.81 L 288.63 327.81 L 288.67 327.81 L 288.70 327.81 L 288.91 325.86 L 288.95 325.86 L 289.10 325.84 L 303.36 325.84 L 304.18 325.83 L 304.20 325.83 L 304.36 325.83 L 304.38 325.83 L 304.48 325.83 L 304.56 325.83 L 304.63 325.73 L 304.73 325.73 L 304.76 325.73 L 304.79 325.73 L 304.94 325.56 L 305.25 325.44 L 305.45 325.33 L 305.67 324.78 L 305.68 324.78 L 305.71 324.64 L 305.74 324.62 L 306.17 324.29 L 306.17 324.29 L 306.24 324.24 L 306.42 324.24 L 306.54 324.20 L 306.56 323.40 L 306.57 323.40 L 306.62 324.19 L 306.65 324.15 L 306.67 324.14 L 306.78 323.05 L 306.78 323.05 L 307.01 323.01 L 307.62 323.01 L 307.76 323.01 L 307.81 323.01 L 307.84 323.01 L 307.87 323.01 L 307.96 322.94 L 317.71 322.04 L 317.72 322.04 L 317.80 322.03 L 317.83 321.84 L 317.88 312.21 L 317.99 308.63 L 318.00 308.63 L 318.18 308.56 L 318.22 308.56 L 318.25 308.55 L 318.41 308.55 L 318.83 307.67 L 318.84 307.67 L 318.95 307.62 L 318.99 307.62 L 319.01 307.55 L 319.37 307.03 L 319.38 307.03 L 319.91 306.92 L 319.97 306.88 L 320.16 306.89 L 320.38 305.71 L 320.44 305.59 L 320.48 305.48 L 320.58 305.04 L 320.86 304.93 L 320.90 304.83 L 321.02 304.83 L 321.16 304.83 L 321.57 304.83 L 321.61 304.83 L 321.71 304.83 L 321.72 304.83 L 321.85 304.85 L 322.16 304.85 L 322.48 304.72 L 322.52 304.72 L 322.59 304.71 L 322.69 304.71 L 322.93 304.71 L 323.34 304.71 L 323.48 304.60 L 323.70 301.49 L 324.60 304.43 L 324.79 304.41 L 324.94 304.41 L 325.16 304.41 L 325.23 304.37 L 325.46 304.35 L 325.81 304.17 L 325.85 304.17 L 325.92 304.17 L 325.96 304.17 L 326.00 304.17 L 326.27 304.00 L 332.73 304.00 L 332.79 304.01 L 333.20 304.00 L 333.24 304.00 L 333.32 303.97 L 333.40 303.75 L 333.41 303.75 L 333.63 303.72 L 333.69 303.72 L 335.01 303.54 L 335.16 303.54 L 335.28 303.54 L 335.30 303.54 L 335.71 303.42 L 335.85 303.42 L 335.88 303.42 L 336.10 303.41 L 336.34 302.68 L 336.37 302.68 L 336.57 302.55 L 336.65 302.55 L 336.73 302.55 L 336.90 302.55 L 337.26 302.54 L 337.33 302.52 L 337.39 302.45 L 337.54 302.33 L 337.89 302.22 L 338.21 299.29 L 338.27 299.19 L 338.60 299.05 L 338.65 299.01 L 338.71 298.91 L 338.74 298.70 L 338.85 297.83 L 338.88 297.86 L 338.93 297.84 L 339.11 297.84 L 339.39 297.72 L 339.57 297.67 L 339.77 297.66 L 339.86 297.65 L 340.06 297.64 L 340.38 297.64 L 340.71 297.63 L 340.96 297.63 L 341.01 297.62 L 341.07 297.62 L 341.08 297.62 L 341.27 297.62 L 341.32 297.61 L 341.40 297.49 L 341.93 297.48 L 341.94 297.48 L 342.08 297.47 L 342.70 297.47 L 343.11 297.32 L 343.41 297.20 L 343.42 297.20 L 343.45 297.20 L 352.50 297.20 L 352.52 297.20 L 352.63 297.20 L 352.68 297.20 L 352.71 297.18 L 352.72 297.18 L 353.10 297.18 L 353.19 297.17 L 353.30 297.15 L 353.50 297.13 L 353.62 297.13 L 353.77 297.06 L 353.86 297.06 L 353.90 297.06 L 353.95 297.06 L 354.06 296.79 L 354.08 296.79 L 354.12 296.79 L 354.21 296.79 L 354.28 296.79 L 354.36 296.86 L 354.47 296.86 L 354.69 296.84 L 354.79 296.84 L 354.88 296.84 L 355.43 295.98 L 355.91 295.75 L 356.48 295.14 L 356.62 295.14 L 356.79 295.14 L 356.96 295.14 L 360.29 295.06 L 360.57 295.06 L 392.09 294.95 L 491.35 294.79 L 491.68 294.74 L 491.91 294.73 L 492.13 294.73 L 492.48 294.33 L 492.60 294.33 L 492.69 294.33 L 492.85 292.89 L 493.08 293.16 L 493.26 293.14 L 493.30 293.14 L 493.46 293.13 L 493.49 293.13 L 493.65 293.13 L 493.80 293.06 L 494.25 292.15 L 494.26 292.15 L 494.39 292.07 L 494.82 289.11 L 494.83 289.11 L 494.91 289.11 L 495.02 289.06 L 495.48 287.69 L 495.49 287.69 L 495.59 287.69 L 495.70 287.66 L 495.87 287.15 L 495.88 287.15 L 495.96 287.15 L 495.97 287.15 L 496.01 286.87 L 496.21 284.91 L 496.23 284.91 L 496.30 284.91 L 496.51 284.75 L 496.55 284.75 L 496.72 284.43 L 496.99 284.43 L 497.03 284.43 L 497.07 284.43 L 497.12 284.43 L 497.26 284.42 L 497.40 283.54 L 497.43 283.54 L 497.51 283.53 L 497.59 282.87 L 497.61 282.87 L 497.70 282.16 L 497.74 282.12 L 497.91 281.42 L 497.93 281.42 L 498.02 281.42 L 498.14 281.40 L 498.85 281.40 L 499.21 281.40 L 506.96 281.40 L 507.04 281.40 L 507.11 281.40 L 507.25 281.40 L 507.54 281.21 L 507.56 281.21 L 507.61 281.15 L 507.80 280.18 L 507.82 280.18 L 509.51 280.20 L 509.62 280.00 L 510.47 280.00 L 510.56 280.00 L 510.66 279.93 L 511.69 279.12 L 512.13 278.97 L 512.24 278.92 L 512.61 277.39 L 512.84 277.39 L 513.22 277.26 L 513.90 277.26 L 524.28 277.26 L 524.90 277.17 L 524.93 277.19 L 525.80 277.19 L 525.84 277.19 L 526.14 277.19 L 526.50 277.16 L 526.50 277.16 L 526.54 277.16 L 527.00 276.26 L 528.07 276.24 L 528.14 276.24 L 528.24 276.24 L 528.41 276.20 L 528.45 276.17 L 528.51 276.17 L 529.01 276.13 L 529.41 276.13 L 529.62 276.13 L 529.65 276.13 L 530.10 276.11 L 530.44 276.01 L 530.45 276.01 L 530.49 276.01 L 530.54 276.01 L 541.80 275.80 L 541.82 275.80 L 541.86 275.80 L 542.07 275.80 L 542.24 275.80 L 543.24 274.92 L 543.48 274.86 L 544.20 274.80 L 544.81 274.75 L 545.27 274.75 L 545.40 274.75 L 545.97 273.42 L 546.18 273.38 L 546.25 273.33 L 547.92 272.40 L 547.93 272.40 L 548.03 272.39 L 548.34 272.38 L 548.35 272.38 L 548.37 272.38 L 548.42 272.35 L 548.57 272.31 L 548.75 272.21 L 550.47 270.66 L 550.70 270.59 L 550.85 270.59 L 550.88 270.59 L 550.91 270.59 L 558.58 270.59 L 558.83 270.58 L 558.98 270.58 L 559.03 270.58 L 559.75 270.58 L 559.90 270.58 L 560.04 270.58 L 560.12 270.54 L 560.36 268.52 L 560.40 268.51 L 560.73 268.52 L 560.80 268.50 L 561.07 267.72 L 561.13 267.67 L 561.36 267.16 L 561.53 267.16 L 561.66 267.12 L 561.95 266.65 L 561.98 266.64 L 562.35 265.14 L 562.38 265.14 L 562.44 265.13 L 562.52 265.13 L 562.56 265.13 L 562.99 263.63 L 563.61 263.49 L 563.91 263.49 L 564.93 263.45 L 564.95 263.45 L 565.11 263.45 L 565.18 263.45 L 565.29 263.45 L 565.42 263.45 L 565.55 263.43 L 565.86 263.41 L 566.15 263.41 L 567.06 263.35 L 567.10 263.35 L 568.01 263.30 L 568.40 263.26 L 576.16 263.28 L 576.55 263.20 L 576.74 263.13 L 576.83 263.13 L 576.85 263.13 L 577.05 263.12 L 577.14 263.12 L 577.36 263.12 L 577.50 263.11 L 578.01 262.98 L 578.27 262.70 L 578.71 262.68 L 578.83 262.50 L 578.98 262.42 L 579.17 262.34 L 579.84 262.42 L 579.91 262.42 L 580.88 262.14 L 581.03 262.14 L 581.23 262.14 L 581.70 262.11 L 581.92 262.25 L 582.04 262.25 L 582.13 262.25 L 582.26 262.25 L 582.68 261.60 L 583.12 261.58 L 583.51 261.58 L 583.55 261.58 L 583.60 261.58 L 611.67 261.58 L 611.85 261.53 L 628.00 261.31 L 628.08 261.31 L 628.22 261.26 L 628.24 261.26 L 628.28 261.26 L 628.86 258.75 L 628.92 258.75 L 629.63 258.75 L 630.36 258.64 L 630.61 258.39 L 631.06 258.07 L 631.66 257.98 L 631.68 257.98 L 631.76 257.93 L 631.99 257.93 L 632.06 257.88 L 632.65 257.20 L 633.40 257.09 L 633.48 257.09 L 633.86 257.09 L 633.98 257.09 L 634.26 256.92 L 634.51 256.90 L 635.00 256.76 L 635.47 256.68 L 635.70 256.68 L 635.72 256.68 L 645.82 256.68 L 648.99 256.64 L 649.12 256.61 L 649.28 256.31 L 649.79 256.33 L 650.00 256.33"/>
	</g>
	<g id="poloto_plot2" class="poloto_plot poloto_imgs poloto_line poloto2 poloto_stroke" fill="none" stroke="black">
		<path d=" M 150.00 392.13 L 150.03 392.13 L 150.04 392.13 L 150.05 392.13 L 150.07 392.13 L 150.10 390.11 L 150.20 389.84 L 150.45 389.83 L 150.81 389.82 L 150.99 388.62 L 151.35 388.51 L 151.42 388.47 L 151.47 388.44 L 151.89 387.90 L 152.70 387.48 L 152.95 387.40 L 153.01 387.41 L 153.50 387.37 L 154.06 387.37 L 154.06 387.37 L 154.07 387.37 L 161.60 387.37 L 161.65 387.37 L 161.75 387.35 L 161.79 387.35 L 162.08 387.23 L 162.21 387.20 L 162.53 387.00 L 162.57 386.91 L 162.66 386.74 L 162.76 386.71 L 162.79 386.71 L 162.86 386.68 L 162.95 386.68 L 163.03 386.68 L 163.24 386.48 L 163.42 386.29 L 163.46 386.29 L 163.55 386.18 L 164.15 385.94 L 164.16 385.94 L 164.23 385.86 L 164.58 385.60 L 164.85 385.27 L 165.16 385.13 L 165.22 385.13 L 165.23 385.14 L 165.29 384.95 L 165.41 384.95 L 165.56 384.93 L 165.85 384.79 L 165.87 384.56 L 165.92 384.56 L 166.00 384.44 L 166.17 384.44 L 166.18 384.44 L 166.36 384.09 L 166.43 384.07 L 166.49 384.04 L 166.56 383.87 L 167.48 383.78 L 167.70 383.74 L 168.21 383.50 L 168.32 383.50 L 168.40 383.48 L 168.45 383.30 L 168.80 382.32 L 168.95 382.30 L 169.14 382.01 L 169.22 381.98 L 169.44 381.84 L 169.53 381.80 L 169.65 381.59 L 169.77 381.42 L 170.18 381.41 L 170.19 381.39 L 170.21 381.25 L 170.35 380.30 L 177.33 380.20 L 178.06 379.91 L 178.08 379.88 L 178.94 379.64 L 179.01 379.63 L 179.09 379.46 L 179.30 379.34 L 179.39 379.12 L 179.43 378.94 L 179.53 378.59 L 179.78 378.58 L 179.79 378.58 L 179.89 378.34 L 179.98 378.33 L 180.09 378.07 L 180.23 377.87 L 180.28 377.76 L 180.30 377.75 L 180.42 377.52 L 180.44 377.51 L 180.57 377.29 L 180.59 377.29 L 180.79 377.21 L 180.83 377.21 L 180.90 377.13 L 180.98 377.11 L 181.10 377.11 L 181.15 377.10 L 181.54 376.88 L 181.55 376.89 L 181.62 376.46 L 181.80 376.45 L 181.95 376.31 L 182.00 376.31 L 182.08 376.31 L 182.11 376.28 L 182.20 375.69 L 182.64 375.19 L 182.69 374.92 L 182.84 374.90 L 182.88 374.83 L 182.92 374.82 L 182.99 374.69 L 183.06 374.23 L 183.21 374.16 L 183.32 374.15 L 183.41 373.91 L 183.46 373.90 L 183.85 373.73 L 184.07 373.61 L 184.13 373.50 L 184.32 373.49 L 184.33 373.49 L 184.35 373.47 L 184.47 372.63 L 184.56 372.62 L 184.88 372.50 L 184.94 372.16 L 185.00 372.16 L 185.08 372.02 L 185.09 371.94 L 185.13 371.88 L 185.16 371.85 L 185.21 371.85 L 185.25 371.78 L 185.38 370.83 L 185.47 370.74 L 185.56 370.45 L 185.69 370.43 L 185.83 370.34 L 185.97 370.05 L 186.07 369.23 L 186.27 369.16 L 186.28 368.81 L 186.40 368.73 L 196.15 368.73 L 196.34 368.73 L 196.80 368.34 L 196.89 368.34 L 196.97 368.34 L 196.99 368.24 L 197.15 368.07 L 197.27 368.04 L 197.33 367.94 L 197.40 367.87 L 197.44 367.84 L 197.62 367.78 L 197.97 367.86 L 198.06 367.60 L 198.12 367.53 L 198.21 367.53 L 198.66 367.47 L 198.72 367.43 L 198.75 367.43 L 198.78 367.38 L 198.88 367.34 L 198.96 367.24 L 199.29 366.99 L 199.76 366.89 L 199.93 366.85 L 200.45 366.69 L 200.70 366.31 L 200.78 366.24 L 200.89 365.94 L 201.04 365.56 L 201.28 365.46 L 201.61 365.45 L 202.06 365.43 L 202.12 365.29 L 202.44 365.19 L 202.65 365.07 L 202.72 364.97 L 202.85 364.94 L 202.94 364.68 L 204.10 364.55 L 205.19 364.55 L 215.01 364.52 L 215.08 364.38 L 215.13 364.29 L 215.44 364.15 L 216.36 363.89 L 216.40 363.85 L 216.53 363.67 L 216.98 363.60 L 217.19 363.10 L 217.51 363.09 L 217.59 363.07 L 217.66 362.58 L 218.23 362.13 L 218.30 362.12 L 218.42 362.10 L 218.55 362.05 L 218.60 361.89 L 218.92 361.12 L 219.04 360.93 L 219.09 360.91 L 219.16 360.83 L 219.30 360.54 L 219.36 359.77 L 219.50 359.46 L 219.93 359.28 L 219.97 358.89 L 220.01 358.89 L 220.08 358.83 L 220.18 358.72 L 220.22 358.69 L 220.26 358.66 L 220.47 357.77 L 220.52 357.24 L 220.77 357.14 L 220.91 356.26 L 221.01 356.09 L 221.77 354.69 L 221.86 354.67 L 250.71 354.26 L 250.74 354.26 L 261.77 354.14 L 262.37 354.00 L 262.49 354.00 L 262.65 353.92 L 262.71 353.81 L 262.77 353.79 L 267.56 353.77 L 268.19 352.17 L 268.42 352.03 L 268.55 351.48 L 271.52 351.41 L 271.54 351.36 L 271.73 351.35 L 272.62 351.25 L 272.67 351.06 L 272.78 351.00 L 273.10 350.91 L 273.14 350.89 L 273.26 350.58 L 273.40 350.49 L 273.42 350.25 L 282.69 349.95 L 282.76 349.22 L 283.12 349.03 L 283.13 348.75 L 283.19 348.53 L 283.27 348.20 L 283.37 347.32 L 283.53 346.83 L 283.66 346.21 L 283.78 346.20 L 283.83 345.72 L 284.02 345.69 L 284.66 345.23 L 284.92 345.02 L 284.96 344.89 L 285.02 344.89 L 285.05 344.73 L 285.14 344.18 L 285.40 344.13 L 285.44 344.12 L 285.60 343.77 L 285.66 343.77 L 285.68 343.56 L 285.74 343.44 L 285.78 343.43 L 285.82 343.15 L 286.02 342.98 L 286.11 342.69 L 286.22 342.68 L 286.30 342.53 L 286.33 342.31 L 286.54 342.20 L 286.59 342.07 L 286.63 342.07 L 286.68 342.07 L 286.72 341.85 L 286.74 341.86 L 286.76 341.85 L 286.86 341.78 L 286.89 341.53 L 286.99 341.53 L 287.07 341.47 L 287.28 341.45 L 287.53 341.42 L 287.54 341.42 L 287.61 341.41 L 287.85 341.41 L 287.96 341.41 L 288.07 341.41 L 288.19 341.37 L 288.27 341.07 L 288.60 341.07 L 288.63 340.90 L 288.67 340.90 L 288.70 340.70 L 288.91 340.63 L 288.95 340.58 L 289.10 340.58 L 303.36 340.53 L 304.18 340.45 L 304.20 340.45 L 304.36 340.45 L 304.38 340.45 L 304.48 340.10 L 304.56 340.09 L 304.63 340.00 L 304.73 339.94 L 304.76 339.91 L 304.79 339.90 L 304.94 339.86 L 305.25 339.80 L 305.45 339.33 L 305.67 339.31 L 305.68 339.28 L 305.71 338.89 L 305.74 338.89 L 306.17 338.89 L 306.17 338.85 L 306.24 338.49 L 306.42 338.44 L 306.54 338.43 L 306.56 338.42 L 306.57 338.38 L 306.62 338.35 L 306.65 337.99 L 306.67 337.98 L 306.78 337.98 L 306.78 337.95 L 307.01 337.91 L 307.62 337.90 L 307.76 337.87 L 307.81 337.86 L 307.84 337.74 L 307.87 337.74 L 307.96 337.33 L 317.71 337.20 L 317.72 337.08 L 317.80 337.00 L 317.83 336.99 L 317.88 336.63 L 317.99 336.55 L 318.00 336.53 L 318.18 336.52 L 318.22 336.52 L 318.25 336.17 L 318.41 336.13 L 318.83 336.12 L 318.84 336.10 L 318.95 335.91 L 318.99 335.91 L 319.01 335.59 L 319.37 335.59 L 319.38 335.57 L 319.91 335.49 L 319.97 335.10 L 320.16 335.10 L 320.38 335.10 L 320.44 334.82 L 320.48 334.60 L 320.58 334.59 L 320.86 334.54 L 320.90 334.52 L 321.02 334.43 L 321.16 334.43 L 321.57 334.43 L 321.61 334.43 L 321.71 334.41 L 321.72 334.41 L 321.85 334.41 L 322.16 334.39 L 322.48 334.35 L 322.52 334.35 L 322.59 334.31 L 322.69 334.20 L 322.93 334.20 L 323.34 334.08 L 323.48 333.86 L 323.70 333.83 L 324.60 333.60 L 324.79 333.60 L 324.94 333.59 L 325.16 333.59 L 325.23 333.57 L 325.46 333.45 L 325.81 333.44 L 325.85 333.33 L 325.92 333.28 L 325.96 333.29 L 326.00 333.25 L 326.27 333.23 L 332.73 333.23 L 332.79 333.23 L 333.20 333.23 L 333.24 333.22 L 333.32 332.89 L 333.40 332.88 L 333.41 332.88 L 333.63 332.87 L 333.69 332.85 L 335.01 332.38 L 335.16 332.33 L 335.28 332.32 L 335.30 332.31 L 335.71 332.30 L 335.85 332.37 L 335.88 332.37 L 336.10 332.33 L 336.34 331.88 L 336.37 331.87 L 336.57 331.86 L 336.65 331.86 L 336.73 331.86 L 336.90 331.77 L 337.26 331.36 L 337.33 331.36 L 337.39 331.30 L 337.54 330.92 L 337.89 330.51 L 338.21 330.54 L 338.27 330.32 L 338.60 330.32 L 338.65 330.29 L 338.71 330.27 L 338.74 330.05 L 338.85 330.05 L 338.88 330.05 L 338.93 330.05 L 339.11 330.05 L 339.39 329.87 L 339.57 329.85 L 339.77 329.85 L 339.86 329.85 L 340.06 329.85 L 340.38 329.85 L 340.71 329.85 L 340.96 329.85 L 341.01 329.85 L 341.07 329.84 L 341.08 329.76 L 341.27 329.71 L 341.32 329.71 L 341.40 329.70 L 341.93 329.69 L 341.94 329.48 L 342.08 329.48 L 342.70 329.49 L 343.11 329.48 L 343.41 329.44 L 343.42 329.35 L 343.45 329.35 L 352.50 329.21 L 352.52 329.20 L 352.63 329.19 L 352.68 329.06 L 352.71 329.06 L 352.72 329.05 L 353.10 329.01 L 353.19 328.58 L 353.30 328.48 L 353.50 327.63 L 353.62 327.62 L 353.77 327.26 L 353.86 327.30 L 353.90 327.30 L 353.95 326.83 L 354.06 326.75 L 354.08 326.43 L 354.12 326.38 L 354.21 326.35 L 354.28 326.19 L 354.36 328.10 L 354.47 328.07 L 354.69 327.30 L 354.79 327.14 L 354.88 326.96 L 355.43 326.66 L 355.91 326.34 L 356.48 325.89 L 356.62 325.84 L 356.79 325.84 L 356.96 325.80 L 360.29 325.57 L 360.57 325.55 L 392.09 324.95 L 491.35 324.93 L 491.68 324.66 L 491.91 324.62 L 492.13 324.62 L 492.48 324.38 L 492.60 324.09 L 492.69 323.57 L 492.85 323.43 L 493.08 323.47 L 493.26 323.17 L 493.30 323.16 L 493.46 323.07 L 493.49 323.07 L 493.65 322.56 L 493.80 321.77 L 494.25 321.70 L 494.26 321.61 L 494.39 320.60 L 494.82 320.57 L 494.83 320.47 L 494.91 320.41 L 495.02 319.49 L 495.48 319.44 L 495.49 319.31 L 495.59 319.25 L 495.70 318.64 L 495.87 318.63 L 495.88 318.53 L 495.96 317.52 L 495.97 317.50 L 496.01 317.47 L 496.21 317.47 L 496.23 317.36 L 496.30 317.29 L 496.51 317.20 L 496.55 317.19 L 496.72 317.14 L 496.99 317.18 L 497.03 317.13 L 497.07 317.11 L 497.12 317.08 L 497.26 316.04 L 497.40 316.02 L 497.43 315.93 L 497.51 314.86 L 497.59 314.48 L 497.61 314.34 L 497.70 313.82 L 497.74 312.91 L 497.91 312.90 L 497.93 312.85 L 498.02 312.67 L 498.14 312.66 L 498.85 312.63 L 499.21 312.61 L 506.96 312.65 L 507.04 312.45 L 507.11 312.30 L 507.25 311.58 L 507.54 311.57 L 507.56 311.50 L 507.61 310.59 L 507.80 310.58 L 507.82 310.49 L 509.51 310.40 L 509.62 310.07 L 510.47 309.91 L 510.56 309.88 L 510.66 308.87 L 511.69 308.58 L 512.13 308.34 L 512.24 307.58 L 512.61 307.58 L 512.84 307.15 L 513.22 306.50 L 513.90 306.11 L 524.28 306.11 L 524.90 306.09 L 524.93 306.09 L 525.80 305.95 L 525.84 305.87 L 526.14 305.81 L 526.50 304.96 L 526.50 304.96 L 526.54 304.92 L 527.00 304.74 L 528.07 304.18 L 528.14 304.12 L 528.24 304.12 L 528.41 303.88 L 528.45 303.84 L 528.51 303.80 L 529.01 303.80 L 529.41 303.80 L 529.62 303.80 L 529.65 303.76 L 530.10 302.90 L 530.44 302.82 L 530.45 302.75 L 530.49 302.67 L 530.54 302.46 L 541.80 302.30 L 541.82 302.28 L 541.86 302.26 L 542.07 302.16 L 542.24 302.05 L 543.24 301.57 L 543.48 301.47 L 544.20 301.10 L 544.81 301.04 L 545.27 300.89 L 545.40 299.62 L 545.97 299.41 L 546.18 299.34 L 546.25 298.43 L 547.92 297.55 L 547.93 297.55 L 548.03 297.15 L 548.34 297.11 L 548.35 297.11 L 548.37 297.00 L 548.42 296.89 L 548.57 296.80 L 548.75 296.18 L 550.47 295.85 L 550.70 295.71 L 550.85 295.36 L 550.88 295.33 L 550.91 295.11 L 558.58 294.31 L 558.83 293.73 L 558.98 293.71 L 559.03 293.33 L 559.75 293.17 L 559.90 292.76 L 560.04 292.76 L 560.12 291.91 L 560.36 291.70 L 560.40 291.68 L 560.73 291.63 L 560.80 290.93 L 561.07 290.84 L 561.13 290.29 L 561.36 290.24 L 561.53 289.92 L 561.66 289.30 L 561.95 289.18 L 561.98 288.55 L 562.35 289.97 L 562.38 289.97 L 562.44 289.17 L 562.52 289.17 L 562.56 289.10 L 562.99 289.03 L 563.61 288.69 L 563.91 288.86 L 564.93 288.84 L 564.95 288.83 L 565.11 288.82 L 565.18 288.80 L 565.29 288.69 L 565.42 288.59 L 565.55 288.44 L 565.86 288.24 L 566.15 288.23 L 567.06 288.13 L 567.10 288.12 L 568.01 288.01 L 568.40 287.95 L 576.16 287.92 L 576.55 287.88 L 576.74 287.88 L 576.83 287.88 L 576.85 287.88 L 577.05 287.86 L 577.14 287.83 L 577.36 287.68 L 577.50 287.66 L 578.01 287.65 L 578.27 287.57 L 578.71 287.54 L 578.83 287.51 L 578.98 287.44 L 579.17 287.35 L 579.84 287.31 L 579.91 287.30 L 580.88 287.15 L 581.03 286.89 L 581.23 286.80 L 581.70 286.65 L 581.92 286.57 L 582.04 286.93 L 582.13 286.91 L 582.26 286.78 L 582.68 286.45 L 583.12 286.36 L 583.51 286.29 L 583.55 286.26 L 583.60 286.01 L 611.67 285.96 L 611.85 285.90 L 628.00 285.82 L 628.08 286.18 L 628.22 284.75 L 628.24 284.75 L 628.28 284.79 L 628.86 284.24 L 628.92 284.21 L 629.63 284.27 L 630.36 284.21 L 630.61 284.16 L 631.06 284.11 L 631.66 283.96 L 631.68 283.96 L 631.76 283.93 L 631.99 283.88 L 632.06 283.78 L 632.65 283.70 L 633.40 283.65 L 633.48 283.50 L 633.86 283.43 L 633.98 284.06 L 634.26 284.01 L 634.51 283.97 L 635.00 283.95 L 635.47 283.95 L 635.70 283.65 L 635.72 283.65 L 645.82 283.63 L 648.99 282.88 L 649.12 282.50 L 649.28 282.40 L 649.79 282.37 L 650.00 282.23"/>
	</g>
	<g class="poloto_legend poloto_imgs poloto_line poloto0 poloto_stroke"><line x1="680" x2="730" y1="81.25" y2="81.25"/></g>
	<g class="poloto_legend poloto_imgs poloto_line poloto1 poloto_stroke"><line x1="680" x2="730" y1="131.25" y2="131.25"/></g>
	<g class="poloto_legend poloto_imgs poloto_line poloto2 poloto_stroke"><line x1="680" x2="730" y1="181.25" y2="181.25"/></g>
	<text class="poloto_legend poloto_text poloto_line poloto0" x="675" y="100">total</text>
	<text class="poloto_legend poloto_text poloto_line poloto1" x="675" y="150">code</text>
	<text class="poloto_legend poloto_text poloto_line poloto2" x="675" y="200">docs</text>
	<text class="poloto_text poloto_name poloto_title" x="400.00" y="37.50">Workspace lines over time</text>
	<text class="poloto_text poloto_name poloto_x" x="400.00" y="640">date (JST)</text>
	<text class="poloto_text poloto_name poloto_y" x="37.50" y="250.00" transform="rotate(-90,37.50,250.00)">lines</text>
	<text class="poloto_text poloto_ticks poloto_y">
		<tspan x="135.00" y="400.00">0</tspan>
		<tspan x="135.00" y="325.21">50K</tspan>
		<tspan x="135.00" y="250.42">100K</tspan>
		<tspan x="135.00" y="175.63">150K</tspan>
		<tspan x="135.00" y="100.85">200K</tspan>
	</text>
	<g class="poloto_imgs poloto_ticks poloto_y" stroke="black">
		<line x1="150.00" x2="144.00" y1="400.00" y2="400.00"/>
		<line x1="150.00" x2="144.00" y1="325.21" y2="325.21"/>
		<line x1="150.00" x2="144.00" y1="250.42" y2="250.42"/>
		<line x1="150.00" x2="144.00" y1="175.63" y2="175.63"/>
		<line x1="150.00" x2="144.00" y1="100.85" y2="100.85"/>
	</g>
	<g class="poloto_text poloto_ticks poloto_x">
		<text x="214.89" y="430.00" text-anchor="end" transform="rotate(-90 214.89 430.00)">2026-04-24 12:06</text>
		<text x="314.77" y="430.00" text-anchor="end" transform="rotate(-90 314.77 430.00)">2026-04-30 07:00</text>
		<text x="414.66" y="430.00" text-anchor="end" transform="rotate(-90 414.66 430.00)">2026-05-06 01:53</text>
		<text x="514.54" y="430.00" text-anchor="end" transform="rotate(-90 514.54 430.00)">2026-05-11 20:46</text>
		<text x="614.42" y="430.00" text-anchor="end" transform="rotate(-90 614.42 430.00)">2026-05-17 15:40</text>
	</g>
	<g class="poloto_imgs poloto_ticks poloto_x" stroke="black">
		<line x1="214.89" x2="214.89" y1="400.00" y2="405.00"/>
		<line x1="314.77" x2="314.77" y1="400.00" y2="405.00"/>
		<line x1="414.66" x2="414.66" y1="400.00" y2="405.00"/>
		<line x1="514.54" x2="514.54" y1="400.00" y2="405.00"/>
		<line x1="614.42" x2="614.42" y1="400.00" y2="405.00"/>
	</g>
	<path class="poloto_imgs poloto_ticks poloto_x" stroke="black" style="stroke-dasharray:9.988357570415925;stroke-dashoffset:-64.88896542193834;" d=" M 150.00 400.00 L 650.00 400.00"/>
	<path class="poloto_imgs poloto_ticks poloto_y" stroke="black" style="stroke-dasharray:7.478872186074341;stroke-dashoffset:-0;" d=" M 150.00 400.00 L 150.00 100.00"/>
</svg>

