<svg class="poloto" width="800" height="680" viewBox="0 0 800 680" xmlns="http://www.w3.org/2000/svg">
	<style>
.poloto{
  stroke-linecap:round;
  stroke-linejoin:round;
  font-family:Roboto,sans-serif;
  font-size:16px;
}
.poloto_background{fill:AliceBlue;}
.poloto_scatter{stroke-width:7}
.poloto_line{stroke-width:2}
.poloto_text{fill: black;}
.poloto_name{font-size:24px;dominant-baseline:auto;text-anchor:middle;}
.poloto_where{dominant-baseline:middle;text-anchor:start}
.poloto_text.poloto_legend{font-size:20px;dominant-baseline:middle;text-anchor:start;}
.poloto_text.poloto_ticks.poloto_y{dominant-baseline:middle;text-anchor:end}
.poloto_text.poloto_ticks.poloto_x{dominant-baseline:auto;text-anchor:middle}
.poloto_imgs.poloto_ticks{stroke: black;stroke-width:3;fill:none;stroke-dasharray:none}
.poloto_grid{stroke:gray;stroke-width:0.5}

.poloto0.poloto_stroke{stroke:blue;}
.poloto1.poloto_stroke{stroke:red;}
.poloto2.poloto_stroke{stroke:green;}
.poloto3.poloto_stroke{stroke:gold;}
.poloto4.poloto_stroke{stroke:aqua;}
.poloto5.poloto_stroke{stroke:lime;}
.poloto6.poloto_stroke{stroke:orange;}
.poloto7.poloto_stroke{stroke:chocolate;}
.poloto0.poloto_fill{fill:blue;}
.poloto1.poloto_fill{fill:red;}
.poloto2.poloto_fill{fill:green;}
.poloto3.poloto_fill{fill:gold;}
.poloto4.poloto_fill{fill:aqua;}
.poloto5.poloto_fill{fill:lime;}
.poloto6.poloto_fill{fill:orange;}
.poloto7.poloto_fill{fill:chocolate;}
	</style>
	<circle r="1e5" class="poloto_background" fill="white"/>
	<g id="poloto_plot0" class="poloto_plot poloto_imgs poloto_line poloto0 poloto_stroke" fill="none" stroke="black">
		<path d=" M 150.00 368.51 L 150.03 368.49 L 150.05 368.47 L 150.06 368.47 L 150.08 368.47 L 150.12 365.05 L 150.25 364.64 L 150.54 364.62 L 150.98 364.34 L 151.20 362.61 L 151.64 362.50 L 151.72 362.41 L 151.78 362.37 L 152.30 361.52 L 153.27 360.83 L 153.58 358.15 L 153.66 358.15 L 154.24 358.05 L 154.92 358.04 L 154.92 358.04 L 154.93 358.04 L 164.06 358.04 L 164.13 358.03 L 164.25 358.01 L 164.30 357.98 L 164.64 357.82 L 164.80 357.78 L 165.19 357.53 L 165.24 357.42 L 165.35 357.18 L 165.47 357.15 L 165.50 357.14 L 165.60 357.08 L 165.70 357.08 L 165.80 357.08 L 166.05 356.68 L 166.28 356.44 L 166.32 356.44 L 166.43 356.29 L 167.15 356.91 L 167.17 356.91 L 167.26 356.81 L 167.67 356.35 L 168.01 355.80 L 168.38 355.56 L 168.46 355.51 L 168.47 355.52 L 168.54 355.30 L 168.68 355.30 L 168.86 355.23 L 169.22 355.02 L 169.24 354.70 L 169.31 354.70 L 169.40 354.53 L 169.60 354.53 L 169.62 354.53 L 169.84 354.07 L 169.92 354.05 L 170.00 354.01 L 170.08 353.83 L 171.19 353.58 L 171.46 353.53 L 172.08 353.21 L 172.21 353.21 L 172.31 353.19 L 172.36 352.96 L 172.79 351.60 L 172.98 351.58 L 173.20 351.12 L 173.31 351.08 L 173.57 350.70 L 173.68 350.57 L 173.83 350.33 L 173.97 350.11 L 174.46 346.99 L 174.48 346.91 L 174.50 346.72 L 174.67 345.22 L 183.14 345.11 L 184.02 343.40 L 184.05 343.36 L 185.08 343.09 L 185.17 343.08 L 185.27 342.74 L 185.52 342.58 L 185.64 342.28 L 185.68 342.03 L 185.81 341.58 L 186.11 341.57 L 186.12 341.27 L 186.24 340.93 L 186.35 340.93 L 186.48 340.55 L 186.65 340.28 L 186.71 340.14 L 186.74 340.14 L 186.88 339.85 L 186.91 339.84 L 187.07 339.55 L 187.09 339.54 L 187.34 338.13 L 187.38 338.13 L 187.46 337.89 L 187.56 337.88 L 187.70 337.88 L 187.76 337.85 L 188.24 337.58 L 188.25 337.59 L 188.34 336.97 L 188.55 336.95 L 188.74 336.01 L 188.80 335.93 L 188.89 335.92 L 188.94 335.88 L 189.04 335.16 L 189.58 329.02 L 189.63 328.73 L 189.81 328.70 L 189.87 328.63 L 189.91 328.60 L 190.00 328.44 L 190.08 327.75 L 190.27 327.60 L 190.40 327.59 L 190.51 327.28 L 190.57 327.27 L 191.05 327.05 L 191.31 326.87 L 191.38 326.60 L 191.61 326.59 L 191.63 326.59 L 191.65 326.56 L 191.79 325.08 L 191.90 325.00 L 192.29 323.51 L 192.36 323.08 L 192.43 323.07 L 192.54 322.91 L 192.55 322.79 L 192.59 322.72 L 192.63 322.68 L 192.69 322.68 L 192.74 322.60 L 192.89 321.39 L 193.01 321.21 L 193.12 320.85 L 193.27 320.82 L 193.44 320.71 L 193.61 319.85 L 193.73 318.66 L 193.98 318.59 L 193.99 318.15 L 194.13 318.00 L 205.96 318.00 L 206.18 317.99 L 206.74 317.36 L 206.86 317.34 L 206.95 317.34 L 206.97 317.19 L 207.17 316.99 L 207.31 316.96 L 207.39 316.84 L 207.47 316.76 L 207.52 316.71 L 207.74 316.66 L 208.16 316.58 L 208.27 316.26 L 208.35 316.17 L 208.45 316.16 L 209.00 316.00 L 209.08 315.91 L 209.11 315.91 L 209.15 315.78 L 209.27 315.73 L 209.36 315.61 L 209.76 314.81 L 210.33 314.68 L 210.54 314.63 L 211.17 314.43 L 211.47 310.58 L 211.57 310.49 L 211.70 310.12 L 211.89 309.61 L 212.18 309.47 L 212.58 309.45 L 213.12 309.44 L 213.20 309.27 L 213.59 309.09 L 213.84 308.82 L 213.92 308.70 L 214.07 308.66 L 214.19 308.31 L 215.59 307.94 L 216.92 307.94 L 228.83 307.90 L 228.91 307.73 L 228.97 307.63 L 229.34 307.46 L 230.46 306.13 L 230.50 306.04 L 230.66 305.70 L 231.21 305.62 L 231.47 304.72 L 231.86 304.71 L 231.95 304.69 L 232.04 304.08 L 232.73 300.57 L 232.81 300.57 L 232.96 300.54 L 233.11 300.49 L 233.18 300.11 L 233.57 298.79 L 233.70 298.54 L 233.77 298.53 L 233.85 297.91 L 234.03 297.05 L 234.10 296.14 L 234.27 295.73 L 234.79 291.17 L 234.84 290.72 L 234.89 290.72 L 234.96 290.63 L 235.09 290.52 L 235.14 290.47 L 235.19 290.42 L 235.44 289.33 L 235.50 288.56 L 235.80 288.41 L 235.98 287.26 L 236.09 286.54 L 237.02 275.91 L 237.12 275.88 L 272.11 275.37 L 272.14 275.37 L 285.52 275.23 L 286.24 274.94 L 286.39 274.94 L 286.59 274.86 L 286.65 274.72 L 286.73 274.68 L 292.53 274.61 L 293.30 272.59 L 293.58 272.41 L 293.73 271.66 L 297.34 271.51 L 297.37 271.31 L 297.59 271.29 L 298.67 270.01 L 298.74 269.78 L 298.87 269.70 L 299.25 269.61 L 299.30 269.58 L 299.45 269.20 L 299.61 269.09 L 299.64 268.81 L 310.88 268.42 L 310.96 267.33 L 311.41 267.09 L 311.42 265.27 L 311.49 265.00 L 311.59 264.55 L 311.71 263.29 L 311.90 262.63 L 312.06 261.85 L 312.21 261.84 L 312.27 261.24 L 312.49 261.19 L 313.27 258.26 L 313.58 257.94 L 313.64 257.76 L 313.70 257.75 L 313.74 257.55 L 313.85 256.83 L 314.17 256.48 L 314.21 256.44 L 314.41 253.85 L 314.48 253.84 L 314.51 253.57 L 314.58 253.36 L 314.63 253.35 L 314.67 252.96 L 314.92 251.57 L 315.03 251.17 L 315.17 251.12 L 315.26 247.38 L 315.30 247.08 L 315.55 244.95 L 315.62 244.78 L 315.66 244.78 L 315.72 244.77 L 315.76 244.47 L 315.80 244.48 L 315.81 244.47 L 315.94 240.70 L 315.98 240.38 L 316.10 240.36 L 316.19 240.29 L 316.44 240.18 L 316.75 240.04 L 316.76 240.04 L 316.85 239.99 L 317.13 239.92 L 317.27 239.92 L 317.41 239.92 L 317.55 238.28 L 317.65 237.88 L 318.05 237.88 L 318.08 237.62 L 318.13 237.61 L 318.16 237.34 L 318.42 234.96 L 318.47 234.90 L 318.66 234.88 L 335.95 234.82 L 336.93 234.69 L 336.96 234.69 L 337.16 234.69 L 337.17 234.69 L 337.30 234.22 L 337.40 234.20 L 337.48 233.97 L 337.60 233.91 L 337.64 233.88 L 337.68 233.86 L 337.86 233.59 L 338.24 233.36 L 338.48 232.59 L 338.74 231.86 L 338.75 231.83 L 338.80 231.15 L 338.83 231.12 L 339.35 230.72 L 339.36 230.67 L 339.44 230.13 L 339.66 230.07 L 339.80 230.02 L 339.83 229.06 L 339.84 229.01 L 339.90 229.92 L 339.94 229.36 L 339.96 229.34 L 340.09 228.05 L 340.10 228.02 L 340.37 227.91 L 341.11 227.89 L 341.28 227.85 L 341.34 227.84 L 341.37 227.67 L 341.41 227.67 L 341.52 227.03 L 353.34 225.80 L 353.36 225.63 L 353.46 225.51 L 353.48 225.27 L 353.55 214.52 L 353.68 210.11 L 353.70 210.09 L 353.91 210.00 L 353.97 210.00 L 354.00 209.50 L 354.19 209.45 L 354.70 208.40 L 354.72 208.38 L 354.85 208.06 L 354.90 208.07 L 354.92 207.55 L 355.35 206.94 L 355.36 206.91 L 356.01 206.68 L 356.09 206.13 L 356.32 206.14 L 356.59 204.75 L 356.65 204.20 L 356.70 203.76 L 356.82 203.23 L 357.16 203.04 L 357.22 202.90 L 357.36 202.78 L 357.52 202.78 L 358.02 202.78 L 358.08 202.78 L 358.19 202.76 L 358.20 202.75 L 358.36 202.77 L 358.73 202.74 L 359.12 202.54 L 359.18 202.54 L 359.27 202.46 L 359.38 202.31 L 359.67 202.31 L 360.17 202.12 L 360.34 201.69 L 360.61 197.98 L 361.69 201.11 L 361.93 201.10 L 362.11 201.09 L 362.38 201.08 L 362.46 201.02 L 362.73 200.84 L 363.16 200.59 L 363.22 200.42 L 363.30 200.35 L 363.35 200.36 L 363.39 200.31 L 363.73 200.08 L 371.56 200.08 L 371.63 200.08 L 372.12 200.07 L 372.17 200.05 L 372.27 199.58 L 372.37 199.31 L 372.38 199.31 L 372.65 199.27 L 372.71 199.25 L 374.32 198.55 L 374.51 198.49 L 374.65 198.47 L 374.67 198.47 L 375.17 198.30 L 375.34 198.39 L 375.37 198.38 L 375.64 198.34 L 375.93 196.87 L 375.97 196.86 L 376.21 196.69 L 376.31 196.69 L 376.40 196.69 L 376.61 196.53 L 377.04 195.94 L 377.13 195.92 L 377.20 195.75 L 377.38 195.05 L 377.81 194.33 L 378.20 190.92 L 378.27 190.50 L 378.67 190.34 L 378.74 190.25 L 378.80 190.08 L 378.84 189.53 L 378.97 188.55 L 379.01 188.59 L 379.07 188.57 L 379.29 188.57 L 379.63 188.21 L 379.84 188.14 L 380.09 188.12 L 380.20 188.11 L 380.44 188.10 L 380.83 188.10 L 381.23 188.09 L 381.53 188.09 L 381.60 188.08 L 381.67 188.07 L 381.68 187.95 L 381.91 187.88 L 381.97 187.86 L 382.07 187.72 L 382.71 187.69 L 382.72 187.40 L 382.90 187.39 L 383.65 187.39 L 384.14 187.21 L 384.51 186.99 L 384.52 186.87 L 384.55 186.87 L 395.52 186.67 L 395.55 186.66 L 395.68 186.65 L 395.74 186.48 L 395.78 186.46 L 395.79 186.45 L 396.25 186.41 L 396.36 185.79 L 396.50 185.65 L 396.73 184.43 L 396.88 184.42 L 397.07 183.90 L 397.18 183.97 L 397.23 183.96 L 397.28 183.37 L 397.42 182.97 L 397.44 182.54 L 397.48 182.48 L 397.60 182.44 L 397.68 182.24 L 397.78 184.57 L 397.91 184.52 L 398.18 183.60 L 398.30 183.37 L 398.40 183.18 L 399.08 181.84 L 399.66 181.20 L 400.35 179.97 L 400.53 179.91 L 400.72 179.91 L 400.94 179.85 L 404.97 179.50 L 405.30 179.47 L 443.52 178.54 L 563.88 178.32 L 564.27 177.94 L 564.55 177.89 L 564.83 177.89 L 565.25 177.17 L 565.39 176.82 L 565.50 176.17 L 565.69 174.30 L 565.97 174.68 L 566.19 174.27 L 566.24 174.27 L 566.43 174.14 L 566.47 174.15 L 566.67 173.46 L 566.85 172.36 L 567.39 171.20 L 567.41 171.10 L 567.57 169.71 L 568.08 166.27 L 568.10 166.15 L 568.20 166.07 L 568.32 164.84 L 568.88 163.19 L 568.89 163.03 L 569.02 162.96 L 569.14 162.14 L 569.36 161.50 L 569.37 161.37 L 569.46 160.11 L 569.48 160.08 L 569.53 159.73 L 569.76 157.49 L 569.79 157.36 L 569.87 157.23 L 570.13 156.93 L 570.18 156.92 L 570.38 156.50 L 570.72 156.54 L 570.77 156.49 L 570.81 156.46 L 570.87 156.43 L 571.04 155.11 L 571.22 154.04 L 571.24 153.94 L 571.34 152.60 L 571.44 151.29 L 571.47 151.13 L 571.57 149.59 L 571.62 148.38 L 571.83 147.57 L 571.86 147.51 L 571.96 147.26 L 572.11 147.24 L 572.97 147.20 L 573.40 147.17 L 582.80 147.22 L 582.90 146.98 L 582.99 146.78 L 583.15 145.88 L 583.50 145.64 L 583.53 145.56 L 583.60 144.36 L 583.82 143.21 L 583.85 143.11 L 585.90 143.03 L 586.02 142.38 L 587.06 142.18 L 587.17 142.14 L 587.29 140.79 L 588.54 139.53 L 589.07 139.05 L 589.20 138.06 L 589.65 136.37 L 589.93 135.88 L 590.39 134.89 L 591.22 134.38 L 603.80 134.37 L 604.55 134.26 L 604.59 134.28 L 605.64 134.09 L 605.69 133.99 L 606.06 133.91 L 606.49 132.81 L 606.49 132.81 L 606.54 132.77 L 607.10 131.51 L 608.39 130.79 L 608.48 130.72 L 608.61 130.71 L 608.81 130.38 L 608.86 130.29 L 608.94 130.23 L 609.54 130.18 L 610.02 130.18 L 610.28 130.18 L 610.31 130.14 L 610.85 129.04 L 611.27 128.83 L 611.28 128.74 L 611.33 128.66 L 611.39 128.36 L 625.05 127.94 L 625.07 127.91 L 625.11 127.90 L 625.38 127.77 L 625.58 127.64 L 626.79 125.95 L 627.09 125.75 L 627.95 125.24 L 628.70 125.12 L 629.25 124.95 L 629.41 123.39 L 630.10 121.56 L 630.35 121.43 L 630.44 120.26 L 632.46 118.08 L 632.48 118.08 L 632.60 117.56 L 632.98 117.50 L 632.98 117.50 L 633.00 117.37 L 633.08 117.20 L 633.25 117.03 L 633.47 116.11 L 635.56 113.92 L 635.83 113.66 L 636.02 113.26 L 636.05 113.22 L 636.09 112.91 L 645.39 111.92 L 645.69 111.16 L 645.87 111.13 L 645.94 110.63 L 646.81 110.40 L 647.00 109.90 L 647.16 109.90 L 647.26 108.85 L 647.55 106.17 L 647.60 106.13 L 647.99 106.08 L 648.08 105.21 L 648.41 104.16 L 648.48 103.44 L 648.76 102.77 L 648.96 102.41 L 649.12 101.61 L 649.47 100.93 L 649.51 100.17 L 649.96 100.00 L 650.00 100.00"/>
	</g>
	<g id="poloto_plot1" class="poloto_plot poloto_imgs poloto_line poloto1 poloto_stroke" fill="none" stroke="black">
		<path d=" M 150.00 381.29 L 150.03 381.28 L 150.05 381.26 L 150.06 381.26 L 150.08 381.26 L 150.12 380.67 L 150.25 380.65 L 150.54 380.64 L 150.98 380.42 L 151.20 380.32 L 151.64 380.34 L 151.72 380.30 L 151.78 380.30 L 152.30 380.25 L 153.27 380.14 L 153.58 377.83 L 153.66 377.83 L 154.24 377.77 L 154.92 377.76 L 154.92 377.76 L 154.93 377.76 L 164.06 377.76 L 164.13 377.76 L 164.25 377.76 L 164.30 377.73 L 164.64 377.72 L 164.80 377.72 L 165.19 377.72 L 165.24 377.72 L 165.35 377.70 L 165.47 377.70 L 165.50 377.70 L 165.60 377.67 L 165.70 377.67 L 165.80 377.67 L 166.05 377.55 L 166.28 377.55 L 166.32 377.55 L 166.43 377.55 L 167.15 378.41 L 167.17 378.41 L 167.26 378.40 L 167.67 378.27 L 168.01 378.13 L 168.38 378.06 L 168.46 378.02 L 168.47 378.02 L 168.54 378.02 L 168.68 378.02 L 168.86 377.96 L 169.22 377.91 L 169.24 377.91 L 169.31 377.91 L 169.40 377.89 L 169.60 377.89 L 169.62 377.89 L 169.84 377.88 L 169.92 377.88 L 170.00 377.88 L 170.08 377.88 L 171.19 377.78 L 171.46 377.77 L 172.08 377.72 L 172.21 377.72 L 172.31 377.72 L 172.36 377.72 L 172.79 377.65 L 172.98 377.65 L 173.20 377.57 L 173.31 377.56 L 173.57 377.37 L 173.68 377.30 L 173.83 377.30 L 173.97 377.30 L 174.46 374.60 L 174.48 374.55 L 174.50 374.55 L 174.67 374.29 L 183.14 374.29 L 184.02 373.12 L 184.05 373.12 L 185.08 373.12 L 185.17 373.12 L 185.27 373.00 L 185.52 372.98 L 185.64 372.98 L 185.68 372.98 L 185.81 372.98 L 186.11 372.98 L 186.12 372.73 L 186.24 372.72 L 186.35 372.72 L 186.48 372.69 L 186.65 372.69 L 186.71 372.69 L 186.74 372.69 L 186.88 372.69 L 186.91 372.69 L 187.07 372.69 L 187.09 372.69 L 187.34 371.54 L 187.38 371.54 L 187.46 371.40 L 187.56 371.40 L 187.70 371.40 L 187.76 371.39 L 188.24 371.38 L 188.25 371.38 L 188.34 371.31 L 188.55 371.31 L 188.74 370.66 L 188.80 370.58 L 188.89 370.58 L 188.94 370.58 L 189.04 370.56 L 189.58 365.73 L 189.63 365.77 L 189.81 365.77 L 189.87 365.77 L 189.91 365.76 L 190.00 365.76 L 190.08 365.69 L 190.27 365.69 L 190.40 365.69 L 190.51 365.68 L 190.57 365.68 L 191.05 365.68 L 191.31 365.67 L 191.38 365.55 L 191.61 365.55 L 191.63 365.55 L 191.65 365.55 L 191.79 365.23 L 191.90 365.14 L 192.29 364.00 L 192.36 364.00 L 192.43 364.00 L 192.54 364.01 L 192.55 364.01 L 192.59 364.01 L 192.63 364.01 L 192.69 364.01 L 192.74 364.01 L 192.89 363.99 L 193.01 363.99 L 193.12 363.98 L 193.27 363.98 L 193.44 363.97 L 193.61 363.54 L 193.73 363.40 L 193.98 363.40 L 193.99 363.39 L 194.13 363.39 L 205.96 363.39 L 206.18 363.38 L 206.74 363.31 L 206.86 363.30 L 206.95 363.30 L 206.97 363.30 L 207.17 363.30 L 207.31 363.30 L 207.39 363.30 L 207.47 363.30 L 207.52 363.29 L 207.74 363.29 L 208.16 363.32 L 208.27 363.32 L 208.35 363.32 L 208.45 363.32 L 209.00 363.22 L 209.08 363.18 L 209.11 363.18 L 209.15 363.12 L 209.27 363.11 L 209.36 363.11 L 209.76 362.68 L 210.33 362.68 L 210.54 362.68 L 211.17 362.68 L 211.47 359.72 L 211.57 359.71 L 211.70 359.71 L 211.89 359.71 L 212.18 359.71 L 212.58 359.71 L 213.12 359.71 L 213.20 359.71 L 213.59 359.64 L 213.84 359.51 L 213.92 359.51 L 214.07 359.51 L 214.19 359.50 L 215.59 359.31 L 216.92 359.31 L 228.83 359.31 L 228.91 359.31 L 228.97 359.31 L 229.34 359.31 L 230.46 358.38 L 230.50 358.35 L 230.66 358.25 L 231.21 358.24 L 231.47 358.02 L 231.86 358.02 L 231.95 358.02 L 232.04 358.02 L 232.73 355.43 L 232.81 355.43 L 232.96 355.43 L 233.11 355.43 L 233.18 355.26 L 233.57 354.95 L 233.70 354.95 L 233.77 354.95 L 233.85 354.47 L 234.03 353.99 L 234.10 353.99 L 234.27 353.98 L 234.79 350.12 L 234.84 350.12 L 234.89 350.12 L 234.96 350.12 L 235.09 350.12 L 235.14 350.12 L 235.19 350.12 L 235.44 350.12 L 235.50 350.03 L 235.80 350.02 L 235.98 349.96 L 236.09 349.50 L 237.02 341.80 L 237.12 341.80 L 272.11 341.80 L 272.14 341.80 L 285.52 341.80 L 286.24 341.68 L 286.39 341.68 L 286.59 341.68 L 286.65 341.68 L 286.73 341.68 L 292.53 341.62 L 293.30 341.55 L 293.58 341.55 L 293.73 341.53 L 297.34 341.46 L 297.37 341.36 L 297.59 341.36 L 298.67 340.31 L 298.74 340.31 L 298.87 340.31 L 299.25 340.31 L 299.30 340.31 L 299.45 340.31 L 299.61 340.31 L 299.64 340.31 L 310.88 340.30 L 310.96 340.11 L 311.41 340.11 L 311.42 338.85 L 311.49 338.85 L 311.59 338.85 L 311.71 338.74 L 311.90 338.74 L 312.06 338.68 L 312.21 338.68 L 312.27 338.68 L 312.49 338.67 L 313.27 336.53 L 313.58 336.53 L 313.64 336.52 L 313.70 336.52 L 313.74 336.52 L 313.85 336.48 L 314.17 336.22 L 314.21 336.18 L 314.41 334.26 L 314.48 334.26 L 314.51 334.26 L 314.58 334.23 L 314.63 334.23 L 314.67 334.23 L 314.92 333.18 L 315.03 333.17 L 315.17 333.14 L 315.26 329.90 L 315.30 329.90 L 315.55 328.07 L 315.62 328.07 L 315.66 328.06 L 315.72 328.06 L 315.76 328.06 L 315.80 328.06 L 315.81 328.06 L 315.94 324.68 L 315.98 324.68 L 316.10 324.67 L 316.19 324.67 L 316.44 324.60 L 316.75 324.51 L 316.76 324.51 L 316.85 324.49 L 317.13 324.43 L 317.27 324.43 L 317.41 324.43 L 317.55 322.97 L 317.65 322.97 L 318.05 322.97 L 318.08 322.96 L 318.13 322.96 L 318.16 322.96 L 318.42 320.88 L 318.47 320.88 L 318.66 320.87 L 335.95 320.87 L 336.93 320.86 L 336.96 320.86 L 337.16 320.86 L 337.17 320.86 L 337.30 320.86 L 337.40 320.85 L 337.48 320.75 L 337.60 320.75 L 337.64 320.75 L 337.68 320.75 L 337.86 320.56 L 338.24 320.44 L 338.48 320.32 L 338.74 319.73 L 338.75 319.73 L 338.80 319.58 L 338.83 319.57 L 339.35 319.21 L 339.36 319.21 L 339.44 319.15 L 339.66 319.15 L 339.80 319.12 L 339.83 318.26 L 339.84 318.26 L 339.90 319.11 L 339.94 319.06 L 339.96 319.05 L 340.09 317.89 L 340.10 317.89 L 340.37 317.84 L 341.11 317.84 L 341.28 317.84 L 341.34 317.84 L 341.37 317.84 L 341.41 317.84 L 341.52 317.77 L 353.34 316.80 L 353.36 316.80 L 353.46 316.80 L 353.48 316.59 L 353.55 306.32 L 353.68 302.50 L 353.70 302.50 L 353.91 302.43 L 353.97 302.43 L 354.00 302.41 L 354.19 302.41 L 354.70 301.48 L 354.72 301.48 L 354.85 301.43 L 354.90 301.43 L 354.92 301.35 L 355.35 300.79 L 355.36 300.79 L 356.01 300.67 L 356.09 300.64 L 356.32 300.64 L 356.59 299.38 L 356.65 299.26 L 356.70 299.14 L 356.82 298.67 L 357.16 298.55 L 357.22 298.45 L 357.36 298.45 L 357.52 298.45 L 358.02 298.45 L 358.08 298.45 L 358.19 298.45 L 358.20 298.45 L 358.36 298.46 L 358.73 298.46 L 359.12 298.33 L 359.18 298.33 L 359.27 298.31 L 359.38 298.31 L 359.67 298.31 L 360.17 298.31 L 360.34 298.20 L 360.61 294.88 L 361.69 298.01 L 361.93 298.00 L 362.11 297.99 L 362.38 297.99 L 362.46 297.96 L 362.73 297.93 L 363.16 297.74 L 363.22 297.74 L 363.30 297.74 L 363.35 297.74 L 363.39 297.74 L 363.73 297.56 L 371.56 297.56 L 371.63 297.57 L 372.12 297.55 L 372.17 297.55 L 372.27 297.52 L 372.37 297.29 L 372.38 297.29 L 372.65 297.26 L 372.71 297.26 L 374.32 297.07 L 374.51 297.07 L 374.65 297.07 L 374.67 297.07 L 375.17 296.94 L 375.34 296.94 L 375.37 296.94 L 375.64 296.93 L 375.93 296.15 L 375.97 296.15 L 376.21 296.01 L 376.31 296.01 L 376.40 296.01 L 376.61 296.01 L 377.04 296.00 L 377.13 295.98 L 377.20 295.91 L 377.38 295.78 L 377.81 295.65 L 378.20 292.53 L 378.27 292.42 L 378.67 292.27 L 378.74 292.23 L 378.80 292.12 L 378.84 291.91 L 378.97 290.97 L 379.01 291.01 L 379.07 290.99 L 379.29 290.98 L 379.63 290.86 L 379.84 290.81 L 380.09 290.79 L 380.20 290.78 L 380.44 290.77 L 380.83 290.77 L 381.23 290.76 L 381.53 290.76 L 381.60 290.75 L 381.67 290.75 L 381.68 290.75 L 381.91 290.75 L 381.97 290.73 L 382.07 290.62 L 382.71 290.60 L 382.72 290.60 L 382.90 290.59 L 383.65 290.59 L 384.14 290.43 L 384.51 290.30 L 384.52 290.30 L 384.55 290.30 L 395.52 290.30 L 395.55 290.30 L 395.68 290.30 L 395.74 290.30 L 395.78 290.28 L 395.79 290.28 L 396.25 290.28 L 396.36 290.27 L 396.50 290.25 L 396.73 290.23 L 396.88 290.23 L 397.07 290.15 L 397.18 290.15 L 397.23 290.15 L 397.28 290.15 L 397.42 289.87 L 397.44 289.87 L 397.48 289.87 L 397.60 289.87 L 397.68 289.87 L 397.78 289.93 L 397.91 289.93 L 398.18 289.92 L 398.30 289.92 L 398.40 289.92 L 399.08 289.00 L 399.66 288.76 L 400.35 288.10 L 400.53 288.10 L 400.72 288.10 L 400.94 288.10 L 404.97 288.02 L 405.30 288.01 L 443.52 287.90 L 563.88 287.73 L 564.27 287.67 L 564.55 287.67 L 564.83 287.67 L 565.25 287.24 L 565.39 287.24 L 565.50 287.24 L 565.69 285.70 L 565.97 286.00 L 566.19 285.97 L 566.24 285.97 L 566.43 285.96 L 566.47 285.96 L 566.67 285.96 L 566.85 285.89 L 567.39 284.91 L 567.41 284.91 L 567.57 284.83 L 568.08 281.67 L 568.10 281.67 L 568.20 281.67 L 568.32 281.62 L 568.88 280.15 L 568.89 280.15 L 569.02 280.15 L 569.14 280.12 L 569.36 279.58 L 569.37 279.58 L 569.46 279.57 L 569.48 279.57 L 569.53 279.28 L 569.76 277.19 L 569.79 277.19 L 569.87 277.19 L 570.13 277.02 L 570.18 277.02 L 570.38 276.67 L 570.72 276.67 L 570.77 276.67 L 570.81 276.67 L 570.87 276.67 L 571.04 276.66 L 571.22 275.72 L 571.24 275.72 L 571.34 275.72 L 571.44 275.01 L 571.47 275.01 L 571.57 274.25 L 571.62 274.20 L 571.83 273.46 L 571.86 273.46 L 571.96 273.46 L 572.11 273.44 L 572.97 273.44 L 573.40 273.44 L 582.80 273.44 L 582.90 273.44 L 582.99 273.44 L 583.15 273.44 L 583.50 273.24 L 583.53 273.24 L 583.60 273.18 L 583.82 272.14 L 583.85 272.14 L 585.90 272.16 L 586.02 271.95 L 587.06 271.95 L 587.17 271.95 L 587.29 271.87 L 588.54 271.01 L 589.07 270.85 L 589.20 270.79 L 589.65 269.16 L 589.93 269.16 L 590.39 269.03 L 591.22 269.03 L 603.80 269.02 L 604.55 268.92 L 604.59 268.95 L 605.64 268.95 L 605.69 268.95 L 606.06 268.95 L 606.49 268.91 L 606.49 268.91 L 606.54 268.91 L 607.10 267.96 L 608.39 267.94 L 608.48 267.93 L 608.61 267.93 L 608.81 267.89 L 608.86 267.86 L 608.94 267.86 L 609.54 267.82 L 610.02 267.82 L 610.28 267.82 L 610.31 267.82 L 610.85 267.80 L 611.27 267.69 L 611.28 267.69 L 611.33 267.69 L 611.39 267.69 L 625.05 267.46 L 625.07 267.46 L 625.11 267.46 L 625.38 267.46 L 625.58 267.46 L 626.79 266.52 L 627.09 266.47 L 627.95 266.39 L 628.70 266.35 L 629.25 266.35 L 629.41 266.35 L 630.10 264.92 L 630.35 264.88 L 630.44 264.84 L 632.46 263.84 L 632.48 263.84 L 632.60 263.83 L 632.98 263.81 L 632.98 263.81 L 633.00 263.81 L 633.08 263.78 L 633.25 263.74 L 633.47 263.63 L 635.56 261.99 L 635.83 261.90 L 636.02 261.90 L 636.05 261.90 L 636.09 261.90 L 645.39 261.90 L 645.69 261.89 L 645.87 261.89 L 645.94 261.89 L 646.81 261.89 L 647.00 261.89 L 647.16 261.89 L 647.26 261.86 L 647.55 259.70 L 647.60 259.68 L 647.99 259.69 L 648.08 259.68 L 648.41 258.84 L 648.48 258.80 L 648.76 258.25 L 648.96 258.25 L 649.12 258.20 L 649.47 257.70 L 649.51 257.69 L 649.96 256.09 L 650.00 256.09"/>
	</g>
	<g id="poloto_plot2" class="poloto_plot poloto_imgs poloto_line poloto2 poloto_stroke" fill="none" stroke="black">
		<path d=" M 150.00 391.61 L 150.03 391.60 L 150.05 391.60 L 150.06 391.60 L 150.08 391.60 L 150.12 389.45 L 150.25 389.16 L 150.54 389.15 L 150.98 389.14 L 151.20 387.85 L 151.64 387.74 L 151.72 387.70 L 151.78 387.67 L 152.30 387.09 L 153.27 386.64 L 153.58 386.56 L 153.66 386.56 L 154.24 386.53 L 154.92 386.53 L 154.92 386.53 L 154.93 386.53 L 164.06 386.53 L 164.13 386.52 L 164.25 386.50 L 164.30 386.50 L 164.64 386.37 L 164.80 386.34 L 165.19 386.13 L 165.24 386.04 L 165.35 385.85 L 165.47 385.82 L 165.50 385.82 L 165.60 385.78 L 165.70 385.78 L 165.80 385.78 L 166.05 385.57 L 166.28 385.37 L 166.32 385.37 L 166.43 385.26 L 167.15 385.00 L 167.17 384.99 L 167.26 384.91 L 167.67 384.63 L 168.01 384.28 L 168.38 384.14 L 168.46 384.14 L 168.47 384.14 L 168.54 383.94 L 168.68 383.94 L 168.86 383.92 L 169.22 383.77 L 169.24 383.52 L 169.31 383.52 L 169.40 383.40 L 169.60 383.40 L 169.62 383.40 L 169.84 383.02 L 169.92 383.00 L 170.00 382.97 L 170.08 382.79 L 171.19 382.69 L 171.46 382.65 L 172.08 382.39 L 172.21 382.39 L 172.31 382.38 L 172.36 382.18 L 172.79 381.13 L 172.98 381.11 L 173.20 380.80 L 173.31 380.77 L 173.57 380.62 L 173.68 380.58 L 173.83 380.35 L 173.97 380.17 L 174.46 380.17 L 174.48 380.14 L 174.50 379.99 L 174.67 378.98 L 183.14 378.87 L 184.02 378.57 L 184.05 378.53 L 185.08 378.27 L 185.17 378.27 L 185.27 378.08 L 185.52 377.96 L 185.64 377.72 L 185.68 377.53 L 185.81 377.15 L 186.11 377.15 L 186.12 377.15 L 186.24 376.88 L 186.35 376.88 L 186.48 376.60 L 186.65 376.39 L 186.71 376.27 L 186.74 376.26 L 186.88 376.01 L 186.91 376.00 L 187.07 375.77 L 187.09 375.76 L 187.34 375.68 L 187.38 375.68 L 187.46 375.59 L 187.56 375.58 L 187.70 375.58 L 187.76 375.56 L 188.24 375.33 L 188.25 375.34 L 188.34 374.88 L 188.55 374.87 L 188.74 374.73 L 188.80 374.73 L 188.89 374.72 L 188.94 374.68 L 189.04 374.06 L 189.58 373.53 L 189.63 373.24 L 189.81 373.22 L 189.87 373.14 L 189.91 373.13 L 190.00 373.00 L 190.08 372.50 L 190.27 372.42 L 190.40 372.41 L 190.51 372.16 L 190.57 372.15 L 191.05 371.97 L 191.31 371.84 L 191.38 371.72 L 191.61 371.71 L 191.63 371.71 L 191.65 371.69 L 191.79 370.79 L 191.90 370.78 L 192.29 370.65 L 192.36 370.30 L 192.43 370.29 L 192.54 370.14 L 192.55 370.06 L 192.59 370.00 L 192.63 369.96 L 192.69 369.96 L 192.74 369.89 L 192.89 368.88 L 193.01 368.77 L 193.12 368.47 L 193.27 368.45 L 193.44 368.35 L 193.61 368.04 L 193.73 367.16 L 193.98 367.09 L 193.99 366.72 L 194.13 366.63 L 205.96 366.63 L 206.18 366.63 L 206.74 366.22 L 206.86 366.22 L 206.95 366.22 L 206.97 366.11 L 207.17 365.93 L 207.31 365.90 L 207.39 365.79 L 207.47 365.71 L 207.52 365.68 L 207.74 365.62 L 208.16 365.71 L 208.27 365.43 L 208.35 365.35 L 208.45 365.35 L 209.00 365.29 L 209.08 365.24 L 209.11 365.24 L 209.15 365.19 L 209.27 365.14 L 209.36 365.04 L 209.76 364.78 L 210.33 364.67 L 210.54 364.62 L 211.17 364.45 L 211.47 364.05 L 211.57 363.98 L 211.70 363.66 L 211.89 363.25 L 212.18 363.14 L 212.58 363.13 L 213.12 363.11 L 213.20 362.96 L 213.59 362.86 L 213.84 362.73 L 213.92 362.62 L 214.07 362.58 L 214.19 362.31 L 215.59 362.17 L 216.92 362.17 L 228.83 362.14 L 228.91 361.99 L 228.97 361.89 L 229.34 361.74 L 230.46 361.47 L 230.50 361.43 L 230.66 361.24 L 231.21 361.16 L 231.47 360.63 L 231.86 360.62 L 231.95 360.60 L 232.04 360.07 L 232.73 359.59 L 232.81 359.58 L 232.96 359.55 L 233.11 359.51 L 233.18 359.33 L 233.57 358.51 L 233.70 358.31 L 233.77 358.29 L 233.85 358.20 L 234.03 357.89 L 234.10 357.07 L 234.27 356.74 L 234.79 356.55 L 234.84 356.14 L 234.89 356.14 L 234.96 356.06 L 235.09 355.95 L 235.14 355.92 L 235.19 355.88 L 235.44 354.93 L 235.50 354.37 L 235.80 354.27 L 235.98 353.32 L 236.09 353.14 L 237.02 351.65 L 237.12 351.62 L 272.11 351.19 L 272.14 351.19 L 285.52 351.07 L 286.24 350.91 L 286.39 350.91 L 286.59 350.83 L 286.65 350.71 L 286.73 350.68 L 292.53 350.67 L 293.30 348.96 L 293.58 348.81 L 293.73 348.22 L 297.34 348.15 L 297.37 348.09 L 297.59 348.08 L 298.67 347.98 L 298.74 347.78 L 298.87 347.71 L 299.25 347.62 L 299.30 347.60 L 299.45 347.27 L 299.61 347.17 L 299.64 346.91 L 310.88 346.59 L 310.96 345.81 L 311.41 345.61 L 311.42 345.31 L 311.49 345.08 L 311.59 344.72 L 311.71 343.78 L 311.90 343.26 L 312.06 342.60 L 312.21 342.59 L 312.27 342.08 L 312.49 342.05 L 313.27 341.56 L 313.58 341.33 L 313.64 341.19 L 313.70 341.19 L 313.74 341.02 L 313.85 340.44 L 314.17 340.38 L 314.21 340.37 L 314.41 339.99 L 314.48 339.99 L 314.51 339.78 L 314.58 339.64 L 314.63 339.64 L 314.67 339.33 L 314.92 339.15 L 315.03 338.85 L 315.17 338.84 L 315.26 338.67 L 315.30 338.44 L 315.55 338.32 L 315.62 338.18 L 315.66 338.18 L 315.72 338.18 L 315.76 337.95 L 315.80 337.95 L 315.81 337.95 L 315.94 337.87 L 315.98 337.61 L 316.10 337.61 L 316.19 337.54 L 316.44 337.52 L 316.75 337.49 L 316.76 337.49 L 316.85 337.48 L 317.13 337.48 L 317.27 337.48 L 317.41 337.48 L 317.55 337.43 L 317.65 337.12 L 318.05 337.12 L 318.08 336.93 L 318.13 336.93 L 318.16 336.72 L 318.42 336.65 L 318.47 336.60 L 318.66 336.60 L 335.95 336.54 L 336.93 336.45 L 336.96 336.45 L 337.16 336.45 L 337.17 336.45 L 337.30 336.09 L 337.40 336.07 L 337.48 335.97 L 337.60 335.91 L 337.64 335.88 L 337.68 335.86 L 337.86 335.83 L 338.24 335.76 L 338.48 335.26 L 338.74 335.23 L 338.75 335.20 L 338.80 334.79 L 338.83 334.78 L 339.35 334.78 L 339.36 334.74 L 339.44 334.36 L 339.66 334.31 L 339.80 334.30 L 339.83 334.29 L 339.84 334.25 L 339.90 334.22 L 339.94 333.83 L 339.96 333.82 L 340.09 333.82 L 340.10 333.79 L 340.37 333.75 L 341.11 333.73 L 341.28 333.70 L 341.34 333.69 L 341.37 333.56 L 341.41 333.56 L 341.52 333.12 L 353.34 332.99 L 353.36 332.86 L 353.46 332.77 L 353.48 332.76 L 353.55 332.38 L 353.68 332.29 L 353.70 332.27 L 353.91 332.26 L 353.97 332.26 L 354.00 331.89 L 354.19 331.85 L 354.70 331.83 L 354.72 331.81 L 354.85 331.61 L 354.90 331.61 L 354.92 331.27 L 355.35 331.27 L 355.36 331.25 L 356.01 331.16 L 356.09 330.75 L 356.32 330.75 L 356.59 330.75 L 356.65 330.44 L 356.70 330.21 L 356.82 330.20 L 357.16 330.15 L 357.22 330.13 L 357.36 330.03 L 357.52 330.03 L 358.02 330.03 L 358.08 330.03 L 358.19 330.01 L 358.20 330.01 L 358.36 330.01 L 358.73 329.98 L 359.12 329.94 L 359.18 329.94 L 359.27 329.90 L 359.38 329.79 L 359.67 329.79 L 360.17 329.65 L 360.34 329.42 L 360.61 329.39 L 361.69 329.14 L 361.93 329.14 L 362.11 329.14 L 362.38 329.13 L 362.46 329.11 L 362.73 328.99 L 363.16 328.97 L 363.22 328.86 L 363.30 328.80 L 363.35 328.81 L 363.39 328.77 L 363.73 328.75 L 371.56 328.75 L 371.63 328.75 L 372.12 328.75 L 372.17 328.73 L 372.27 328.39 L 372.37 328.37 L 372.38 328.38 L 372.65 328.37 L 372.71 328.35 L 374.32 327.84 L 374.51 327.79 L 374.65 327.77 L 374.67 327.77 L 375.17 327.76 L 375.34 327.83 L 375.37 327.83 L 375.64 327.79 L 375.93 327.31 L 375.97 327.30 L 376.21 327.29 L 376.31 327.29 L 376.40 327.29 L 376.61 327.19 L 377.04 326.75 L 377.13 326.75 L 377.20 326.69 L 377.38 326.29 L 377.81 325.85 L 378.20 325.88 L 378.27 325.64 L 378.67 325.64 L 378.74 325.61 L 378.80 325.59 L 378.84 325.36 L 378.97 325.35 L 379.01 325.35 L 379.07 325.35 L 379.29 325.35 L 379.63 325.16 L 379.84 325.15 L 380.09 325.15 L 380.20 325.15 L 380.44 325.15 L 380.83 325.15 L 381.23 325.15 L 381.53 325.14 L 381.60 325.14 L 381.67 325.13 L 381.68 325.05 L 381.91 324.99 L 381.97 324.99 L 382.07 324.98 L 382.71 324.98 L 382.72 324.75 L 382.90 324.75 L 383.65 324.75 L 384.14 324.75 L 384.51 324.70 L 384.52 324.61 L 384.55 324.61 L 395.52 324.46 L 395.55 324.45 L 395.68 324.44 L 395.74 324.30 L 395.78 324.30 L 395.79 324.29 L 396.25 324.25 L 396.36 323.79 L 396.50 323.69 L 396.73 322.78 L 396.88 322.77 L 397.07 322.38 L 397.18 322.42 L 397.23 322.42 L 397.28 321.92 L 397.42 321.84 L 397.44 321.49 L 397.48 321.44 L 397.60 321.41 L 397.68 321.24 L 397.78 323.28 L 397.91 323.25 L 398.18 322.43 L 398.30 322.25 L 398.40 322.06 L 399.08 321.74 L 399.66 321.39 L 400.35 320.91 L 400.53 320.86 L 400.72 320.86 L 400.94 320.82 L 404.97 320.58 L 405.30 320.55 L 443.52 319.92 L 563.88 319.89 L 564.27 319.61 L 564.55 319.56 L 564.83 319.56 L 565.25 319.30 L 565.39 319.00 L 565.50 318.44 L 565.69 318.29 L 565.97 318.34 L 566.19 318.01 L 566.24 318.01 L 566.43 317.91 L 566.47 317.91 L 566.67 317.36 L 566.85 316.52 L 567.39 316.44 L 567.41 316.35 L 567.57 315.27 L 568.08 315.24 L 568.10 315.13 L 568.20 315.06 L 568.32 314.08 L 568.88 314.03 L 568.89 313.90 L 569.02 313.83 L 569.14 313.19 L 569.36 313.16 L 569.37 313.06 L 569.46 311.99 L 569.48 311.96 L 569.53 311.93 L 569.76 311.93 L 569.79 311.82 L 569.87 311.74 L 570.13 311.64 L 570.18 311.64 L 570.38 311.58 L 570.72 311.62 L 570.77 311.57 L 570.81 311.55 L 570.87 311.51 L 571.04 310.41 L 571.22 310.38 L 571.24 310.29 L 571.34 309.15 L 571.44 308.74 L 571.47 308.59 L 571.57 308.03 L 571.62 307.07 L 571.83 307.06 L 571.86 307.00 L 571.96 306.81 L 572.11 306.80 L 572.97 306.77 L 573.40 306.75 L 582.80 306.79 L 582.90 306.57 L 582.99 306.41 L 583.15 305.64 L 583.50 305.63 L 583.53 305.56 L 583.60 304.59 L 583.82 304.58 L 583.85 304.48 L 585.90 304.39 L 586.02 304.04 L 587.06 303.87 L 587.17 303.83 L 587.29 302.75 L 588.54 302.45 L 589.07 302.19 L 589.20 301.38 L 589.65 301.38 L 589.93 300.92 L 590.39 300.23 L 591.22 299.81 L 603.80 299.81 L 604.55 299.79 L 604.59 299.79 L 605.64 299.64 L 605.69 299.55 L 606.06 299.49 L 606.49 298.58 L 606.49 298.58 L 606.54 298.54 L 607.10 298.35 L 608.39 297.75 L 608.48 297.69 L 608.61 297.68 L 608.81 297.43 L 608.86 297.39 L 608.94 297.34 L 609.54 297.34 L 610.02 297.34 L 610.28 297.34 L 610.31 297.30 L 610.85 296.38 L 611.27 296.30 L 611.28 296.23 L 611.33 296.14 L 611.39 295.91 L 625.05 295.74 L 625.07 295.72 L 625.11 295.70 L 625.38 295.59 L 625.58 295.48 L 626.79 294.96 L 627.09 294.85 L 627.95 294.46 L 628.70 294.40 L 629.25 294.24 L 629.41 292.89 L 630.10 292.66 L 630.35 292.59 L 630.44 291.61 L 632.46 290.68 L 632.48 290.68 L 632.60 290.24 L 632.98 290.20 L 632.98 290.20 L 633.00 290.09 L 633.08 289.97 L 633.25 289.88 L 633.47 289.21 L 635.56 288.86 L 635.83 288.71 L 636.02 288.34 L 636.05 288.31 L 636.09 288.07 L 645.39 287.22 L 645.69 286.60 L 645.87 286.58 L 645.94 286.17 L 646.81 286.00 L 647.00 285.56 L 647.16 285.56 L 647.26 284.65 L 647.55 284.44 L 647.60 284.41 L 647.99 284.36 L 648.08 283.61 L 648.41 283.52 L 648.48 282.93 L 648.76 282.87 L 648.96 282.53 L 649.12 281.87 L 649.47 281.75 L 649.51 281.08 L 649.96 282.59 L 650.00 282.59"/>
	</g>
	<g class="poloto_legend poloto_imgs poloto_line poloto0 poloto_stroke"><line x1="680" x2="730" y1="81.25" y2="81.25"/></g>
	<g class="poloto_legend poloto_imgs poloto_line poloto1 poloto_stroke"><line x1="680" x2="730" y1="131.25" y2="131.25"/></g>
	<g class="poloto_legend poloto_imgs poloto_line poloto2 poloto_stroke"><line x1="680" x2="730" y1="181.25" y2="181.25"/></g>
	<text class="poloto_legend poloto_text poloto_line poloto0" x="675" y="100">total</text>
	<text class="poloto_legend poloto_text poloto_line poloto1" x="675" y="150">code</text>
	<text class="poloto_legend poloto_text poloto_line poloto2" x="675" y="200">docs</text>
	<text class="poloto_text poloto_name poloto_title" x="400.00" y="37.50">Workspace lines over time</text>
	<text class="poloto_text poloto_name poloto_x" x="400.00" y="640">date (JST)</text>
	<text class="poloto_text poloto_name poloto_y" x="37.50" y="250.00" transform="rotate(-90,37.50,250.00)">lines</text>
	<text class="poloto_text poloto_ticks poloto_y">
		<tspan x="135.00" y="400.00">0</tspan>
		<tspan x="135.00" y="320.19">50K</tspan>
		<tspan x="135.00" y="240.39">100K</tspan>
		<tspan x="135.00" y="160.58">150K</tspan>
	</text>
	<g class="poloto_imgs poloto_ticks poloto_y" stroke="black">
		<line x1="150.00" x2="144.00" y1="400.00" y2="400.00"/>
		<line x1="150.00" x2="144.00" y1="320.19" y2="320.19"/>
		<line x1="150.00" x2="144.00" y1="240.39" y2="240.39"/>
		<line x1="150.00" x2="144.00" y1="160.58" y2="160.58"/>
	</g>
	<g class="poloto_text poloto_ticks poloto_x">
		<text x="228.68" y="430.00" text-anchor="end" transform="rotate(-90 228.68 430.00)">2026-04-24 12:06</text>
		<text x="349.78" y="430.00" text-anchor="end" transform="rotate(-90 349.78 430.00)">2026-04-30 07:00</text>
		<text x="470.89" y="430.00" text-anchor="end" transform="rotate(-90 470.89 430.00)">2026-05-06 01:53</text>
		<text x="591.99" y="430.00" text-anchor="end" transform="rotate(-90 591.99 430.00)">2026-05-11 20:46</text>
	</g>
	<g class="poloto_imgs poloto_ticks poloto_x" stroke="black">
		<line x1="228.68" x2="228.68" y1="400.00" y2="405.00"/>
		<line x1="349.78" x2="349.78" y1="400.00" y2="405.00"/>
		<line x1="470.89" x2="470.89" y1="400.00" y2="405.00"/>
		<line x1="591.99" x2="591.99" y1="400.00" y2="405.00"/>
	</g>
	<path class="poloto_imgs poloto_ticks poloto_x" stroke="black" style="stroke-dasharray:12.110548966340426;stroke-dashoffset:-78.67569693789119;" d=" M 150.00 400.00 L 650.00 400.00"/>
	<path class="poloto_imgs poloto_ticks poloto_y" stroke="black" style="stroke-dasharray:7.980718583901295;stroke-dashoffset:-0;" d=" M 150.00 400.00 L 150.00 100.00"/>
</svg>

