<svg class="poloto" width="800" height="680" viewBox="0 0 800 680" xmlns="http://www.w3.org/2000/svg">
	<style>
.poloto{
  stroke-linecap:round;
  stroke-linejoin:round;
  font-family:Roboto,sans-serif;
  font-size:16px;
}
.poloto_background{fill:AliceBlue;}
.poloto_scatter{stroke-width:7}
.poloto_line{stroke-width:2}
.poloto_text{fill: black;}
.poloto_name{font-size:24px;dominant-baseline:auto;text-anchor:middle;}
.poloto_where{dominant-baseline:middle;text-anchor:start}
.poloto_text.poloto_legend{font-size:20px;dominant-baseline:middle;text-anchor:start;}
.poloto_text.poloto_ticks.poloto_y{dominant-baseline:middle;text-anchor:end}
.poloto_text.poloto_ticks.poloto_x{dominant-baseline:auto;text-anchor:middle}
.poloto_imgs.poloto_ticks{stroke: black;stroke-width:3;fill:none;stroke-dasharray:none}
.poloto_grid{stroke:gray;stroke-width:0.5}

.poloto0.poloto_stroke{stroke:blue;}
.poloto1.poloto_stroke{stroke:red;}
.poloto2.poloto_stroke{stroke:green;}
.poloto3.poloto_stroke{stroke:gold;}
.poloto4.poloto_stroke{stroke:aqua;}
.poloto5.poloto_stroke{stroke:lime;}
.poloto6.poloto_stroke{stroke:orange;}
.poloto7.poloto_stroke{stroke:chocolate;}
.poloto0.poloto_fill{fill:blue;}
.poloto1.poloto_fill{fill:red;}
.poloto2.poloto_fill{fill:green;}
.poloto3.poloto_fill{fill:gold;}
.poloto4.poloto_fill{fill:aqua;}
.poloto5.poloto_fill{fill:lime;}
.poloto6.poloto_fill{fill:orange;}
.poloto7.poloto_fill{fill:chocolate;}
	</style>
	<circle r="1e5" class="poloto_background" fill="white"/>
	<g id="poloto_plot0" class="poloto_plot poloto_imgs poloto_line poloto0 poloto_stroke" fill="none" stroke="black">
		<path d=" M 150.00 369.01 L 150.03 368.99 L 150.05 368.97 L 150.06 368.97 L 150.08 368.97 L 150.11 365.61 L 150.24 365.20 L 150.52 365.18 L 150.94 364.91 L 151.16 363.20 L 151.59 363.09 L 151.66 363.00 L 151.72 362.96 L 152.22 362.13 L 153.16 361.45 L 153.46 358.81 L 153.53 358.82 L 154.10 358.71 L 154.75 358.70 L 154.76 358.70 L 154.76 358.70 L 163.59 358.70 L 163.65 358.70 L 163.77 358.67 L 163.81 358.64 L 164.15 358.49 L 164.30 358.45 L 164.68 358.21 L 164.73 358.10 L 164.84 357.86 L 164.95 357.82 L 164.98 357.82 L 165.07 357.76 L 165.17 357.76 L 165.27 357.76 L 165.51 357.37 L 165.73 357.13 L 165.77 357.13 L 165.87 356.98 L 166.57 357.59 L 166.59 357.59 L 166.68 357.49 L 167.08 357.04 L 167.40 356.50 L 167.76 356.26 L 167.84 356.22 L 167.85 356.22 L 167.92 356.01 L 168.05 356.01 L 168.23 355.94 L 168.58 355.73 L 168.60 355.42 L 168.66 355.42 L 168.74 355.25 L 168.94 355.25 L 168.96 355.25 L 169.17 354.80 L 169.25 354.78 L 169.33 354.74 L 169.41 354.56 L 170.48 354.32 L 170.74 354.27 L 171.34 353.95 L 171.47 353.95 L 171.56 353.93 L 171.61 353.70 L 172.02 352.37 L 172.21 352.34 L 172.42 351.90 L 172.52 351.86 L 172.77 351.48 L 172.88 351.35 L 173.03 351.11 L 173.16 350.90 L 173.64 347.83 L 173.65 347.75 L 173.68 347.57 L 173.84 346.09 L 182.03 345.98 L 182.87 344.30 L 182.90 344.26 L 183.90 343.99 L 183.99 343.98 L 184.08 343.65 L 184.33 343.48 L 184.44 343.20 L 184.48 342.94 L 184.60 342.50 L 184.90 342.49 L 184.91 342.20 L 185.02 341.87 L 185.13 341.86 L 185.26 341.49 L 185.42 341.23 L 185.48 341.09 L 185.50 341.09 L 185.64 340.80 L 185.66 340.79 L 185.82 340.50 L 185.84 340.49 L 186.08 339.11 L 186.12 339.11 L 186.20 338.87 L 186.30 338.86 L 186.43 338.86 L 186.49 338.83 L 186.95 338.57 L 186.96 338.58 L 187.05 337.96 L 187.26 337.95 L 187.44 337.02 L 187.50 336.94 L 187.58 336.93 L 187.63 336.90 L 187.73 336.18 L 188.24 330.15 L 188.30 329.85 L 188.48 329.83 L 188.53 329.75 L 188.57 329.73 L 188.65 329.58 L 188.73 328.89 L 188.91 328.75 L 189.04 328.73 L 189.14 328.43 L 189.20 328.42 L 189.67 328.20 L 189.92 328.03 L 189.99 327.76 L 190.21 327.75 L 190.23 327.75 L 190.25 327.72 L 190.38 326.27 L 190.49 326.19 L 190.87 324.72 L 190.93 324.30 L 191.01 324.28 L 191.11 324.13 L 191.12 324.02 L 191.16 323.95 L 191.20 323.91 L 191.25 323.90 L 191.30 323.83 L 191.45 322.63 L 191.56 322.45 L 191.67 322.10 L 191.82 322.08 L 191.98 321.97 L 192.15 321.12 L 192.26 319.95 L 192.50 319.88 L 192.51 319.44 L 192.65 319.30 L 204.08 319.30 L 204.29 319.29 L 204.83 318.67 L 204.94 318.65 L 205.03 318.65 L 205.05 318.50 L 205.25 318.30 L 205.38 318.27 L 205.46 318.16 L 205.54 318.08 L 205.59 318.03 L 205.79 317.97 L 206.20 317.90 L 206.31 317.58 L 206.39 317.50 L 206.48 317.49 L 207.01 317.33 L 207.09 317.24 L 207.12 317.24 L 207.16 317.12 L 207.27 317.06 L 207.36 316.95 L 207.75 316.16 L 208.30 316.03 L 208.50 315.98 L 209.11 315.78 L 209.40 311.99 L 209.50 311.91 L 209.63 311.54 L 209.81 311.04 L 210.08 310.90 L 210.47 310.89 L 210.99 310.87 L 211.07 310.71 L 211.45 310.53 L 211.69 310.26 L 211.77 310.15 L 211.92 310.10 L 212.03 309.77 L 213.38 309.39 L 214.67 309.39 L 226.17 309.36 L 226.26 309.19 L 226.32 309.09 L 226.68 308.92 L 227.75 307.62 L 227.80 307.53 L 227.95 307.19 L 228.47 307.11 L 228.72 306.22 L 229.10 306.21 L 229.19 306.20 L 229.28 305.60 L 229.94 302.14 L 230.03 302.14 L 230.16 302.11 L 230.31 302.07 L 230.38 301.69 L 230.75 300.39 L 230.89 300.15 L 230.95 300.13 L 231.03 299.53 L 231.20 298.68 L 231.27 297.78 L 231.43 297.38 L 231.93 292.90 L 231.98 292.44 L 232.03 292.44 L 232.11 292.36 L 232.23 292.25 L 232.28 292.21 L 232.33 292.16 L 232.57 291.08 L 232.62 290.33 L 232.91 290.17 L 233.09 289.04 L 233.20 288.33 L 234.09 277.87 L 234.19 277.84 L 268.00 277.35 L 268.04 277.35 L 280.96 277.20 L 281.66 276.92 L 281.80 276.92 L 281.99 276.84 L 282.06 276.70 L 282.13 276.67 L 287.74 276.59 L 288.48 274.60 L 288.75 274.42 L 288.90 273.69 L 292.39 273.55 L 292.41 273.34 L 292.63 273.33 L 293.67 272.07 L 293.73 271.84 L 293.86 271.77 L 294.23 271.68 L 294.28 271.65 L 294.42 271.27 L 294.58 271.17 L 294.61 270.89 L 305.46 270.50 L 305.55 269.43 L 305.98 269.19 L 305.99 267.40 L 306.06 267.13 L 306.15 266.69 L 306.27 265.46 L 306.46 264.80 L 306.61 264.03 L 306.75 264.03 L 306.81 263.44 L 307.03 263.39 L 307.78 260.50 L 308.08 260.19 L 308.13 260.01 L 308.19 260.00 L 308.23 259.80 L 308.34 259.09 L 308.64 258.75 L 308.69 258.71 L 308.88 256.16 L 308.95 256.16 L 308.98 255.88 L 309.05 255.68 L 309.09 255.67 L 309.13 255.29 L 309.37 253.92 L 309.48 253.52 L 309.61 253.48 L 309.70 249.80 L 309.74 249.50 L 309.98 247.40 L 310.04 247.24 L 310.09 247.23 L 310.15 247.23 L 310.19 246.93 L 310.22 246.94 L 310.23 246.94 L 310.35 243.22 L 310.40 242.90 L 310.51 242.88 L 310.60 242.82 L 310.84 242.71 L 311.14 242.57 L 311.15 242.57 L 311.23 242.53 L 311.51 242.46 L 311.64 242.46 L 311.77 242.46 L 311.92 240.84 L 312.01 240.45 L 312.39 240.44 L 312.43 240.19 L 312.47 240.18 L 312.51 239.91 L 312.76 237.57 L 312.80 237.51 L 312.98 237.50 L 329.69 237.43 L 330.64 237.31 L 330.67 237.31 L 330.86 237.31 L 330.88 237.31 L 331.00 236.84 L 331.09 236.82 L 331.17 236.60 L 331.29 236.54 L 331.32 236.51 L 331.37 236.49 L 331.54 236.23 L 331.91 235.99 L 332.14 235.24 L 332.39 234.52 L 332.40 234.49 L 332.44 233.82 L 332.48 233.79 L 332.98 233.40 L 332.99 233.35 L 333.06 232.82 L 333.28 232.76 L 333.41 232.71 L 333.44 231.76 L 333.45 231.72 L 333.51 232.62 L 333.55 232.06 L 333.57 232.04 L 333.69 230.77 L 333.70 230.74 L 333.96 230.63 L 334.68 230.61 L 334.84 230.57 L 334.90 230.56 L 334.93 230.39 L 334.97 230.39 L 335.08 229.77 L 346.50 228.56 L 346.51 228.39 L 346.61 228.27 L 346.64 228.04 L 346.70 217.45 L 346.83 213.12 L 346.84 213.09 L 347.05 213.01 L 347.10 213.01 L 347.14 212.51 L 347.32 212.46 L 347.82 211.44 L 347.83 211.41 L 347.95 211.10 L 348.00 211.11 L 348.03 210.60 L 348.44 209.99 L 348.45 209.97 L 349.08 209.74 L 349.15 209.20 L 349.38 209.21 L 349.63 207.84 L 349.70 207.30 L 349.74 206.87 L 349.86 206.34 L 350.19 206.15 L 350.24 206.02 L 350.38 205.90 L 350.54 205.90 L 351.02 205.90 L 351.08 205.90 L 351.19 205.88 L 351.20 205.88 L 351.35 205.89 L 351.71 205.86 L 352.08 205.66 L 352.14 205.66 L 352.22 205.58 L 352.33 205.44 L 352.62 205.44 L 353.10 205.25 L 353.26 204.83 L 353.52 201.18 L 354.57 204.26 L 354.80 204.25 L 354.97 204.23 L 355.23 204.23 L 355.31 204.17 L 355.58 204.00 L 355.99 203.74 L 356.04 203.58 L 356.12 203.51 L 356.17 203.52 L 356.21 203.47 L 356.53 203.24 L 364.11 203.24 L 364.17 203.24 L 364.65 203.23 L 364.69 203.21 L 364.80 202.75 L 364.88 202.49 L 364.90 202.48 L 365.16 202.45 L 365.22 202.42 L 366.77 201.74 L 366.95 201.68 L 367.09 201.66 L 367.12 201.66 L 367.60 201.49 L 367.76 201.58 L 367.79 201.57 L 368.05 201.53 L 368.33 200.08 L 368.37 200.07 L 368.60 199.91 L 368.70 199.91 L 368.79 199.91 L 368.98 199.75 L 369.40 199.17 L 369.48 199.14 L 369.56 198.98 L 369.73 198.30 L 370.15 197.58 L 370.52 194.22 L 370.59 193.81 L 370.97 193.65 L 371.04 193.57 L 371.10 193.40 L 371.14 192.86 L 371.27 191.90 L 371.30 191.94 L 371.36 191.92 L 371.58 191.91 L 371.91 191.56 L 372.11 191.49 L 372.35 191.48 L 372.45 191.46 L 372.68 191.45 L 373.07 191.45 L 373.45 191.44 L 373.74 191.44 L 373.80 191.43 L 373.88 191.42 L 373.88 191.30 L 374.10 191.23 L 374.17 191.22 L 374.26 191.08 L 374.88 191.05 L 374.89 190.76 L 375.06 190.75 L 375.79 190.76 L 376.27 190.58 L 376.62 190.36 L 376.63 190.25 L 376.66 190.25 L 387.26 190.05 L 387.29 190.04 L 387.42 190.03 L 387.47 189.86 L 387.51 189.84 L 387.52 189.83 L 387.97 189.79 L 388.07 189.18 L 388.21 189.04 L 388.43 187.85 L 388.58 187.83 L 388.76 187.32 L 388.86 187.39 L 388.91 187.38 L 388.96 186.80 L 389.09 186.40 L 389.11 185.98 L 389.16 185.92 L 389.27 185.89 L 389.35 185.69 L 389.44 187.98 L 389.57 187.93 L 389.83 187.02 L 389.94 186.80 L 390.05 186.61 L 390.70 185.29 L 391.26 184.66 L 391.93 183.45 L 392.10 183.39 L 392.29 183.39 L 392.49 183.34 L 396.39 182.99 L 396.71 182.96 L 433.65 182.04 L 549.95 181.82 L 550.34 181.45 L 550.60 181.40 L 550.87 181.40 L 551.28 180.69 L 551.41 180.35 L 551.52 179.71 L 551.70 177.87 L 551.97 178.25 L 552.19 177.85 L 552.24 177.84 L 552.42 177.72 L 552.46 177.72 L 552.65 177.04 L 552.82 175.96 L 553.35 174.82 L 553.37 174.72 L 553.52 173.35 L 554.02 169.97 L 554.03 169.85 L 554.13 169.78 L 554.25 168.56 L 554.79 166.94 L 554.80 166.78 L 554.92 166.71 L 555.04 165.90 L 555.25 165.27 L 555.26 165.15 L 555.35 163.91 L 555.36 163.88 L 555.41 163.53 L 555.64 161.32 L 555.67 161.20 L 555.75 161.07 L 555.99 160.78 L 556.04 160.77 L 556.24 160.35 L 556.56 160.40 L 556.61 160.34 L 556.65 160.31 L 556.71 160.28 L 556.87 158.98 L 557.04 157.93 L 557.07 157.84 L 557.16 156.51 L 557.26 155.22 L 557.29 155.06 L 557.39 153.55 L 557.44 152.37 L 557.64 151.56 L 557.67 151.51 L 557.76 151.26 L 557.90 151.24 L 558.74 151.20 L 559.16 151.17 L 568.24 151.22 L 568.33 150.99 L 568.42 150.79 L 568.58 149.90 L 568.92 149.67 L 568.94 149.58 L 569.01 148.41 L 569.23 147.27 L 569.25 147.17 L 571.23 147.10 L 571.35 146.45 L 572.35 146.26 L 572.46 146.22 L 572.58 144.89 L 573.78 143.65 L 574.30 143.18 L 574.43 142.21 L 574.86 140.54 L 575.13 140.06 L 575.57 139.09 L 576.37 138.59 L 588.53 138.58 L 589.26 138.47 L 589.29 138.49 L 590.31 138.29 L 590.36 138.20 L 590.72 138.12 L 591.13 137.04 L 591.13 137.04 L 591.18 136.99 L 591.72 135.76 L 592.97 135.05 L 593.05 134.99 L 593.18 134.98 L 593.37 134.65 L 593.42 134.56 L 593.49 134.50 L 594.07 134.45 L 594.54 134.45 L 594.79 134.45 L 594.83 134.41 L 595.35 133.32 L 595.75 133.12 L 595.76 133.04 L 595.81 132.95 L 595.87 132.66 L 609.06 132.24 L 609.09 132.22 L 609.13 132.20 L 609.38 132.08 L 609.58 131.95 L 610.74 130.29 L 611.03 130.09 L 611.87 129.59 L 612.59 129.47 L 613.13 129.30 L 613.28 127.77 L 613.95 125.97 L 614.19 125.84 L 614.28 124.68 L 616.23 122.55 L 616.25 122.55 L 616.36 122.03 L 616.73 121.97 L 616.73 121.97 L 616.75 121.84 L 616.82 121.67 L 616.99 121.50 L 617.20 120.61 L 619.23 118.45 L 619.49 118.19 L 619.67 117.80 L 619.70 117.76 L 619.74 117.45 L 628.73 116.48 L 629.02 115.73 L 629.19 115.70 L 629.25 115.21 L 630.10 114.98 L 630.27 114.49 L 630.43 114.49 L 630.53 113.45 L 630.81 110.82 L 630.86 110.78 L 631.24 110.74 L 631.32 109.88 L 631.64 108.84 L 631.71 108.13 L 631.98 107.47 L 632.18 107.12 L 632.33 106.34 L 632.67 105.67 L 632.70 104.92 L 633.14 104.75 L 633.18 104.75 L 633.25 103.79 L 633.34 103.79 L 633.38 103.72 L 633.88 101.93 L 634.61 101.34 L 634.97 101.53 L 636.16 101.45 L 636.19 101.44 L 636.37 101.42 L 636.45 101.40 L 636.59 101.28 L 636.74 101.18 L 636.89 100.98 L 637.25 100.72 L 637.59 100.71 L 638.65 100.52 L 638.70 100.51 L 639.77 100.35 L 640.23 100.24 L 649.32 100.22 L 649.77 100.08 L 650.00 100.00"/>
	</g>
	<g id="poloto_plot1" class="poloto_plot poloto_imgs poloto_line poloto1 poloto_stroke" fill="none" stroke="black">
		<path d=" M 150.00 381.59 L 150.03 381.57 L 150.05 381.56 L 150.06 381.56 L 150.08 381.56 L 150.11 380.98 L 150.24 380.96 L 150.52 380.95 L 150.94 380.73 L 151.16 380.63 L 151.59 380.65 L 151.66 380.61 L 151.72 380.61 L 152.22 380.56 L 153.16 380.46 L 153.46 378.18 L 153.53 378.18 L 154.10 378.13 L 154.75 378.12 L 154.76 378.12 L 154.76 378.12 L 163.59 378.12 L 163.65 378.12 L 163.77 378.11 L 163.81 378.08 L 164.15 378.07 L 164.30 378.07 L 164.68 378.07 L 164.73 378.07 L 164.84 378.05 L 164.95 378.05 L 164.98 378.05 L 165.07 378.03 L 165.17 378.03 L 165.27 378.03 L 165.51 377.90 L 165.73 377.90 L 165.77 377.90 L 165.87 377.90 L 166.57 378.76 L 166.59 378.76 L 166.68 378.74 L 167.08 378.62 L 167.40 378.47 L 167.76 378.41 L 167.84 378.37 L 167.85 378.37 L 167.92 378.37 L 168.05 378.37 L 168.23 378.31 L 168.58 378.26 L 168.60 378.26 L 168.66 378.26 L 168.74 378.24 L 168.94 378.24 L 168.96 378.24 L 169.17 378.23 L 169.25 378.23 L 169.33 378.23 L 169.41 378.23 L 170.48 378.13 L 170.74 378.12 L 171.34 378.08 L 171.47 378.08 L 171.56 378.08 L 171.61 378.08 L 172.02 378.01 L 172.21 378.01 L 172.42 377.92 L 172.52 377.91 L 172.77 377.73 L 172.88 377.66 L 173.03 377.66 L 173.16 377.66 L 173.64 375.00 L 173.65 374.96 L 173.68 374.96 L 173.84 374.70 L 182.03 374.70 L 182.87 373.55 L 182.90 373.55 L 183.90 373.55 L 183.99 373.55 L 184.08 373.43 L 184.33 373.41 L 184.44 373.41 L 184.48 373.41 L 184.60 373.41 L 184.90 373.41 L 184.91 373.16 L 185.02 373.15 L 185.13 373.15 L 185.26 373.12 L 185.42 373.12 L 185.48 373.12 L 185.50 373.12 L 185.64 373.12 L 185.66 373.12 L 185.82 373.12 L 185.84 373.12 L 186.08 371.99 L 186.12 371.99 L 186.20 371.85 L 186.30 371.85 L 186.43 371.85 L 186.49 371.84 L 186.95 371.84 L 186.96 371.84 L 187.05 371.77 L 187.26 371.77 L 187.44 371.12 L 187.50 371.04 L 187.58 371.04 L 187.63 371.04 L 187.73 371.02 L 188.24 366.27 L 188.30 366.31 L 188.48 366.31 L 188.53 366.31 L 188.57 366.30 L 188.65 366.30 L 188.73 366.24 L 188.91 366.24 L 189.04 366.24 L 189.14 366.23 L 189.20 366.23 L 189.67 366.22 L 189.92 366.21 L 189.99 366.10 L 190.21 366.10 L 190.23 366.10 L 190.25 366.10 L 190.38 365.78 L 190.49 365.69 L 190.87 364.57 L 190.93 364.57 L 191.01 364.57 L 191.11 364.58 L 191.12 364.58 L 191.16 364.58 L 191.20 364.58 L 191.25 364.58 L 191.30 364.58 L 191.45 364.56 L 191.56 364.56 L 191.67 364.55 L 191.82 364.55 L 191.98 364.54 L 192.15 364.12 L 192.26 363.97 L 192.50 363.97 L 192.51 363.97 L 192.65 363.97 L 204.08 363.97 L 204.29 363.96 L 204.83 363.89 L 204.94 363.88 L 205.03 363.88 L 205.05 363.88 L 205.25 363.88 L 205.38 363.88 L 205.46 363.88 L 205.54 363.88 L 205.59 363.87 L 205.79 363.87 L 206.20 363.90 L 206.31 363.90 L 206.39 363.90 L 206.48 363.90 L 207.01 363.81 L 207.09 363.76 L 207.12 363.76 L 207.16 363.70 L 207.27 363.70 L 207.36 363.70 L 207.75 363.27 L 208.30 363.27 L 208.50 363.27 L 209.11 363.27 L 209.40 360.35 L 209.50 360.35 L 209.63 360.35 L 209.81 360.35 L 210.08 360.35 L 210.47 360.35 L 210.99 360.35 L 211.07 360.35 L 211.45 360.28 L 211.69 360.15 L 211.77 360.15 L 211.92 360.15 L 212.03 360.14 L 213.38 359.95 L 214.67 359.95 L 226.17 359.95 L 226.26 359.95 L 226.32 359.95 L 226.68 359.95 L 227.75 359.04 L 227.80 359.01 L 227.95 358.91 L 228.47 358.91 L 228.72 358.69 L 229.10 358.69 L 229.19 358.69 L 229.28 358.69 L 229.94 356.13 L 230.03 356.13 L 230.16 356.13 L 230.31 356.13 L 230.38 355.97 L 230.75 355.66 L 230.89 355.66 L 230.95 355.66 L 231.03 355.19 L 231.20 354.72 L 231.27 354.72 L 231.43 354.71 L 231.93 350.91 L 231.98 350.91 L 232.03 350.91 L 232.11 350.91 L 232.23 350.91 L 232.28 350.91 L 232.33 350.91 L 232.57 350.91 L 232.62 350.82 L 232.91 350.81 L 233.09 350.75 L 233.20 350.30 L 234.09 342.72 L 234.19 342.72 L 268.00 342.72 L 268.04 342.72 L 280.96 342.72 L 281.66 342.60 L 281.80 342.60 L 281.99 342.60 L 282.06 342.60 L 282.13 342.60 L 287.74 342.55 L 288.48 342.47 L 288.75 342.47 L 288.90 342.45 L 292.39 342.38 L 292.41 342.28 L 292.63 342.29 L 293.67 341.26 L 293.73 341.26 L 293.86 341.26 L 294.23 341.26 L 294.28 341.26 L 294.42 341.26 L 294.58 341.26 L 294.61 341.26 L 305.46 341.24 L 305.55 341.06 L 305.98 341.06 L 305.99 339.82 L 306.06 339.82 L 306.15 339.82 L 306.27 339.71 L 306.46 339.71 L 306.61 339.65 L 306.75 339.65 L 306.81 339.65 L 307.03 339.64 L 307.78 337.54 L 308.08 337.53 L 308.13 337.52 L 308.19 337.52 L 308.23 337.52 L 308.34 337.49 L 308.64 337.23 L 308.69 337.19 L 308.88 335.30 L 308.95 335.30 L 308.98 335.30 L 309.05 335.27 L 309.09 335.27 L 309.13 335.27 L 309.37 334.24 L 309.48 334.23 L 309.61 334.20 L 309.70 331.01 L 309.74 331.01 L 309.98 329.21 L 310.04 329.21 L 310.09 329.20 L 310.15 329.20 L 310.19 329.20 L 310.22 329.20 L 310.23 329.20 L 310.35 325.87 L 310.40 325.87 L 310.51 325.86 L 310.60 325.86 L 310.84 325.79 L 311.14 325.70 L 311.15 325.70 L 311.23 325.68 L 311.51 325.63 L 311.64 325.63 L 311.77 325.63 L 311.92 324.19 L 312.01 324.19 L 312.39 324.19 L 312.43 324.18 L 312.47 324.18 L 312.51 324.18 L 312.76 322.13 L 312.80 322.13 L 312.98 322.12 L 329.69 322.12 L 330.64 322.11 L 330.67 322.11 L 330.86 322.11 L 330.88 322.11 L 331.00 322.11 L 331.09 322.11 L 331.17 322.00 L 331.29 322.00 L 331.32 322.00 L 331.37 322.00 L 331.54 321.82 L 331.91 321.70 L 332.14 321.58 L 332.39 321.00 L 332.40 321.00 L 332.44 320.86 L 332.48 320.84 L 332.98 320.48 L 332.99 320.48 L 333.06 320.43 L 333.28 320.43 L 333.41 320.40 L 333.44 319.55 L 333.45 319.55 L 333.51 320.39 L 333.55 320.34 L 333.57 320.33 L 333.69 319.19 L 333.70 319.19 L 333.96 319.14 L 334.68 319.14 L 334.84 319.14 L 334.90 319.14 L 334.93 319.14 L 334.97 319.14 L 335.08 319.07 L 346.50 318.12 L 346.51 318.12 L 346.61 318.11 L 346.64 317.91 L 346.70 307.80 L 346.83 304.04 L 346.84 304.04 L 347.05 303.97 L 347.10 303.97 L 347.14 303.95 L 347.32 303.95 L 347.82 303.04 L 347.83 303.04 L 347.95 302.99 L 348.00 302.99 L 348.03 302.91 L 348.44 302.36 L 348.45 302.36 L 349.08 302.25 L 349.15 302.21 L 349.38 302.22 L 349.63 300.98 L 349.70 300.85 L 349.74 300.74 L 349.86 300.27 L 350.19 300.15 L 350.24 300.05 L 350.38 300.05 L 350.54 300.05 L 351.02 300.05 L 351.08 300.05 L 351.19 300.05 L 351.20 300.05 L 351.35 300.07 L 351.71 300.07 L 352.08 299.94 L 352.14 299.94 L 352.22 299.92 L 352.33 299.92 L 352.62 299.92 L 353.10 299.92 L 353.26 299.81 L 353.52 296.55 L 354.57 299.63 L 354.80 299.61 L 354.97 299.60 L 355.23 299.60 L 355.31 299.57 L 355.58 299.55 L 355.99 299.36 L 356.04 299.36 L 356.12 299.36 L 356.17 299.36 L 356.21 299.36 L 356.53 299.18 L 364.11 299.18 L 364.17 299.19 L 364.65 299.17 L 364.69 299.17 L 364.80 299.14 L 364.88 298.92 L 364.90 298.91 L 365.16 298.89 L 365.22 298.89 L 366.77 298.70 L 366.95 298.70 L 367.09 298.70 L 367.12 298.70 L 367.60 298.57 L 367.76 298.57 L 367.79 298.57 L 368.05 298.56 L 368.33 297.79 L 368.37 297.79 L 368.60 297.66 L 368.70 297.66 L 368.79 297.66 L 368.98 297.66 L 369.40 297.65 L 369.48 297.63 L 369.56 297.55 L 369.73 297.42 L 370.15 297.30 L 370.52 294.23 L 370.59 294.12 L 370.97 293.98 L 371.04 293.94 L 371.10 293.83 L 371.14 293.62 L 371.27 292.69 L 371.30 292.73 L 371.36 292.71 L 371.58 292.71 L 371.91 292.58 L 372.11 292.54 L 372.35 292.52 L 372.45 292.51 L 372.68 292.50 L 373.07 292.50 L 373.45 292.49 L 373.74 292.49 L 373.80 292.48 L 373.88 292.48 L 373.88 292.47 L 374.10 292.47 L 374.17 292.46 L 374.26 292.35 L 374.88 292.33 L 374.89 292.33 L 375.06 292.32 L 375.79 292.32 L 376.27 292.17 L 376.62 292.04 L 376.63 292.04 L 376.66 292.03 L 387.26 292.03 L 387.29 292.03 L 387.42 292.03 L 387.47 292.03 L 387.51 292.02 L 387.52 292.02 L 387.97 292.02 L 388.07 292.00 L 388.21 291.98 L 388.43 291.96 L 388.58 291.96 L 388.76 291.89 L 388.86 291.89 L 388.91 291.89 L 388.96 291.89 L 389.09 291.61 L 389.11 291.61 L 389.16 291.61 L 389.27 291.61 L 389.35 291.61 L 389.44 291.68 L 389.57 291.68 L 389.83 291.66 L 389.94 291.66 L 390.05 291.66 L 390.70 290.76 L 391.26 290.52 L 391.93 289.87 L 392.10 289.87 L 392.29 289.87 L 392.49 289.87 L 396.39 289.79 L 396.71 289.79 L 433.65 289.67 L 549.95 289.50 L 550.34 289.45 L 550.60 289.45 L 550.87 289.45 L 551.28 289.03 L 551.41 289.03 L 551.52 289.03 L 551.70 287.51 L 551.97 287.80 L 552.19 287.78 L 552.24 287.78 L 552.42 287.77 L 552.46 287.77 L 552.65 287.76 L 552.82 287.69 L 553.35 286.73 L 553.37 286.73 L 553.52 286.65 L 554.02 283.55 L 554.03 283.55 L 554.13 283.54 L 554.25 283.49 L 554.79 282.05 L 554.80 282.05 L 554.92 282.05 L 555.04 282.01 L 555.25 281.49 L 555.26 281.49 L 555.35 281.48 L 555.36 281.48 L 555.41 281.19 L 555.64 279.13 L 555.67 279.13 L 555.75 279.13 L 555.99 278.96 L 556.04 278.96 L 556.24 278.62 L 556.56 278.62 L 556.61 278.62 L 556.65 278.62 L 556.71 278.62 L 556.87 278.61 L 557.04 277.69 L 557.07 277.69 L 557.16 277.69 L 557.26 276.98 L 557.29 276.98 L 557.39 276.24 L 557.44 276.20 L 557.64 275.46 L 557.67 275.46 L 557.76 275.46 L 557.90 275.45 L 558.74 275.45 L 559.16 275.44 L 568.24 275.44 L 568.33 275.44 L 568.42 275.44 L 568.58 275.44 L 568.92 275.25 L 568.94 275.25 L 569.01 275.19 L 569.23 274.16 L 569.25 274.16 L 571.23 274.18 L 571.35 273.98 L 572.35 273.98 L 572.46 273.97 L 572.58 273.90 L 573.78 273.05 L 574.30 272.89 L 574.43 272.84 L 574.86 271.23 L 575.13 271.23 L 575.57 271.10 L 576.37 271.10 L 588.53 271.09 L 589.26 271.00 L 589.29 271.02 L 590.31 271.02 L 590.36 271.02 L 590.72 271.02 L 591.13 270.99 L 591.13 270.99 L 591.18 270.99 L 591.72 270.05 L 592.97 270.02 L 593.05 270.02 L 593.18 270.02 L 593.37 269.98 L 593.42 269.95 L 593.49 269.95 L 594.07 269.91 L 594.54 269.91 L 594.79 269.91 L 594.83 269.91 L 595.35 269.89 L 595.75 269.78 L 595.76 269.78 L 595.81 269.78 L 595.87 269.78 L 609.06 269.56 L 609.09 269.56 L 609.13 269.56 L 609.38 269.56 L 609.58 269.56 L 610.74 268.63 L 611.03 268.58 L 611.87 268.51 L 612.59 268.46 L 613.13 268.46 L 613.28 268.46 L 613.95 267.06 L 614.19 267.02 L 614.28 266.97 L 616.23 265.99 L 616.25 265.99 L 616.36 265.98 L 616.73 265.97 L 616.73 265.97 L 616.75 265.97 L 616.82 265.94 L 616.99 265.90 L 617.20 265.79 L 619.23 264.17 L 619.49 264.09 L 619.67 264.09 L 619.70 264.09 L 619.74 264.09 L 628.73 264.09 L 629.02 264.08 L 629.19 264.08 L 629.25 264.08 L 630.10 264.08 L 630.27 264.08 L 630.43 264.08 L 630.53 264.04 L 630.81 261.92 L 630.86 261.90 L 631.24 261.91 L 631.32 261.90 L 631.64 261.07 L 631.71 261.03 L 631.98 260.49 L 632.18 260.49 L 632.33 260.44 L 632.67 259.95 L 632.70 259.95 L 633.14 258.37 L 633.18 258.37 L 633.25 258.36 L 633.34 258.36 L 633.38 258.36 L 633.88 256.78 L 634.61 256.64 L 634.97 256.64 L 636.16 256.59 L 636.19 256.59 L 636.37 256.59 L 636.45 256.59 L 636.59 256.59 L 636.74 256.59 L 636.89 256.57 L 637.25 256.55 L 637.59 256.55 L 638.65 256.48 L 638.70 256.48 L 639.77 256.44 L 640.23 256.40 L 649.32 256.41 L 649.77 256.33 L 650.00 256.25"/>
	</g>
	<g id="poloto_plot2" class="poloto_plot poloto_imgs poloto_line poloto2 poloto_stroke" fill="none" stroke="black">
		<path d=" M 150.00 391.74 L 150.03 391.73 L 150.05 391.73 L 150.06 391.73 L 150.08 391.73 L 150.11 389.62 L 150.24 389.33 L 150.52 389.32 L 150.94 389.31 L 151.16 388.04 L 151.59 387.93 L 151.66 387.89 L 151.72 387.86 L 152.22 387.29 L 153.16 386.85 L 153.46 386.77 L 153.53 386.77 L 154.10 386.74 L 154.75 386.74 L 154.76 386.74 L 154.76 386.74 L 163.59 386.74 L 163.65 386.73 L 163.77 386.72 L 163.81 386.72 L 164.15 386.59 L 164.30 386.55 L 164.68 386.35 L 164.73 386.26 L 164.84 386.07 L 164.95 386.04 L 164.98 386.04 L 165.07 386.01 L 165.17 386.01 L 165.27 386.01 L 165.51 385.80 L 165.73 385.60 L 165.77 385.60 L 165.87 385.49 L 166.57 385.23 L 166.59 385.23 L 166.68 385.15 L 167.08 384.87 L 167.40 384.53 L 167.76 384.39 L 167.84 384.39 L 167.85 384.39 L 167.92 384.20 L 168.05 384.20 L 168.23 384.17 L 168.58 384.03 L 168.60 383.78 L 168.66 383.78 L 168.74 383.66 L 168.94 383.66 L 168.96 383.66 L 169.17 383.29 L 169.25 383.27 L 169.33 383.24 L 169.41 383.06 L 170.48 382.96 L 170.74 382.92 L 171.34 382.67 L 171.47 382.67 L 171.56 382.65 L 171.61 382.46 L 172.02 381.43 L 172.21 381.41 L 172.42 381.10 L 172.52 381.07 L 172.77 380.93 L 172.88 380.89 L 173.03 380.66 L 173.16 380.48 L 173.64 380.48 L 173.65 380.46 L 173.68 380.31 L 173.84 379.31 L 182.03 379.21 L 182.87 378.90 L 182.90 378.87 L 183.90 378.62 L 183.99 378.61 L 184.08 378.43 L 184.33 378.30 L 184.44 378.08 L 184.48 377.89 L 184.60 377.52 L 184.90 377.51 L 184.91 377.51 L 185.02 377.25 L 185.13 377.24 L 185.26 376.97 L 185.42 376.76 L 185.48 376.64 L 185.50 376.64 L 185.64 376.39 L 185.66 376.38 L 185.82 376.15 L 185.84 376.14 L 186.08 376.06 L 186.12 376.06 L 186.20 375.98 L 186.30 375.96 L 186.43 375.96 L 186.49 375.95 L 186.95 375.72 L 186.96 375.73 L 187.05 375.28 L 187.26 375.26 L 187.44 375.13 L 187.50 375.13 L 187.58 375.12 L 187.63 375.08 L 187.73 374.47 L 188.24 373.95 L 188.30 373.66 L 188.48 373.64 L 188.53 373.57 L 188.57 373.56 L 188.65 373.42 L 188.73 372.94 L 188.91 372.86 L 189.04 372.85 L 189.14 372.60 L 189.20 372.59 L 189.67 372.41 L 189.92 372.28 L 189.99 372.17 L 190.21 372.16 L 190.23 372.16 L 190.25 372.14 L 190.38 371.25 L 190.49 371.24 L 190.87 371.12 L 190.93 370.77 L 191.01 370.76 L 191.11 370.62 L 191.12 370.53 L 191.16 370.47 L 191.20 370.44 L 191.25 370.43 L 191.30 370.36 L 191.45 369.37 L 191.56 369.27 L 191.67 368.97 L 191.82 368.95 L 191.98 368.85 L 192.15 368.54 L 192.26 367.68 L 192.50 367.61 L 192.51 367.25 L 192.65 367.16 L 204.08 367.16 L 204.29 367.16 L 204.83 366.75 L 204.94 366.75 L 205.03 366.75 L 205.05 366.64 L 205.25 366.47 L 205.38 366.44 L 205.46 366.33 L 205.54 366.26 L 205.59 366.22 L 205.79 366.16 L 206.20 366.25 L 206.31 365.97 L 206.39 365.90 L 206.48 365.89 L 207.01 365.84 L 207.09 365.79 L 207.12 365.79 L 207.16 365.74 L 207.27 365.69 L 207.36 365.59 L 207.75 365.34 L 208.30 365.23 L 208.50 365.18 L 209.11 365.02 L 209.40 364.62 L 209.50 364.55 L 209.63 364.23 L 209.81 363.83 L 210.08 363.72 L 210.47 363.71 L 210.99 363.69 L 211.07 363.55 L 211.45 363.45 L 211.69 363.32 L 211.77 363.21 L 211.92 363.18 L 212.03 362.91 L 213.38 362.77 L 214.67 362.77 L 226.17 362.74 L 226.26 362.60 L 226.32 362.50 L 226.68 362.35 L 227.75 362.08 L 227.80 362.04 L 227.95 361.85 L 228.47 361.77 L 228.72 361.25 L 229.10 361.24 L 229.19 361.22 L 229.28 360.71 L 229.94 360.23 L 230.03 360.22 L 230.16 360.19 L 230.31 360.15 L 230.38 359.97 L 230.75 359.17 L 230.89 358.97 L 230.95 358.95 L 231.03 358.87 L 231.20 358.55 L 231.27 357.75 L 231.43 357.42 L 231.93 357.23 L 231.98 356.83 L 232.03 356.83 L 232.11 356.76 L 232.23 356.65 L 232.28 356.62 L 232.33 356.58 L 232.57 355.65 L 232.62 355.09 L 232.91 354.99 L 233.09 354.06 L 233.20 353.88 L 234.09 352.42 L 234.19 352.39 L 268.00 351.96 L 268.04 351.96 L 280.96 351.84 L 281.66 351.69 L 281.80 351.69 L 281.99 351.61 L 282.06 351.49 L 282.13 351.46 L 287.74 351.45 L 288.48 349.77 L 288.75 349.62 L 288.90 349.04 L 292.39 348.97 L 292.41 348.91 L 292.63 348.90 L 293.67 348.80 L 293.73 348.61 L 293.86 348.54 L 294.23 348.45 L 294.28 348.43 L 294.42 348.10 L 294.58 348.00 L 294.61 347.75 L 305.46 347.44 L 305.55 346.67 L 305.98 346.47 L 305.99 346.18 L 306.06 345.95 L 306.15 345.60 L 306.27 344.67 L 306.46 344.16 L 306.61 343.51 L 306.75 343.50 L 306.81 343.00 L 307.03 342.96 L 307.78 342.48 L 308.08 342.26 L 308.13 342.12 L 308.19 342.12 L 308.23 341.95 L 308.34 341.38 L 308.64 341.32 L 308.69 341.32 L 308.88 340.94 L 308.95 340.94 L 308.98 340.73 L 309.05 340.60 L 309.09 340.59 L 309.13 340.29 L 309.37 340.11 L 309.48 339.82 L 309.61 339.80 L 309.70 339.64 L 309.74 339.42 L 309.98 339.29 L 310.04 339.16 L 310.09 339.16 L 310.15 339.16 L 310.19 338.93 L 310.22 338.94 L 310.23 338.93 L 310.35 338.85 L 310.40 338.59 L 310.51 338.59 L 310.60 338.53 L 310.84 338.51 L 311.14 338.48 L 311.15 338.48 L 311.23 338.47 L 311.51 338.47 L 311.64 338.47 L 311.77 338.47 L 311.92 338.42 L 312.01 338.11 L 312.39 338.11 L 312.43 337.93 L 312.47 337.93 L 312.51 337.72 L 312.76 337.65 L 312.80 337.60 L 312.98 337.60 L 329.69 337.55 L 330.64 337.46 L 330.67 337.46 L 330.86 337.46 L 330.88 337.46 L 331.00 337.10 L 331.09 337.08 L 331.17 336.98 L 331.29 336.93 L 331.32 336.90 L 331.37 336.88 L 331.54 336.84 L 331.91 336.77 L 332.14 336.28 L 332.39 336.26 L 332.40 336.23 L 332.44 335.82 L 332.48 335.82 L 332.98 335.82 L 332.99 335.78 L 333.06 335.40 L 333.28 335.35 L 333.41 335.34 L 333.44 335.33 L 333.45 335.29 L 333.51 335.26 L 333.55 334.87 L 333.57 334.86 L 333.69 334.86 L 333.70 334.83 L 333.96 334.80 L 334.68 334.78 L 334.84 334.75 L 334.90 334.74 L 334.93 334.62 L 334.97 334.62 L 335.08 334.18 L 346.50 334.05 L 346.51 333.92 L 346.61 333.84 L 346.64 333.82 L 346.70 333.45 L 346.83 333.36 L 346.84 333.34 L 347.05 333.34 L 347.10 333.34 L 347.14 332.97 L 347.32 332.92 L 347.82 332.91 L 347.83 332.89 L 347.95 332.69 L 348.00 332.70 L 348.03 332.35 L 348.44 332.35 L 348.45 332.34 L 349.08 332.25 L 349.15 331.85 L 349.38 331.85 L 349.63 331.84 L 349.70 331.54 L 349.74 331.31 L 349.86 331.30 L 350.19 331.25 L 350.24 331.23 L 350.38 331.14 L 350.54 331.14 L 351.02 331.14 L 351.08 331.14 L 351.19 331.12 L 351.20 331.12 L 351.35 331.12 L 351.71 331.09 L 352.08 331.05 L 352.14 331.05 L 352.22 331.01 L 352.33 330.90 L 352.62 330.90 L 353.10 330.76 L 353.26 330.54 L 353.52 330.51 L 354.57 330.26 L 354.80 330.26 L 354.97 330.26 L 355.23 330.25 L 355.31 330.24 L 355.58 330.11 L 355.99 330.09 L 356.04 329.98 L 356.12 329.93 L 356.17 329.94 L 356.21 329.90 L 356.53 329.88 L 364.11 329.88 L 364.17 329.88 L 364.65 329.88 L 364.69 329.86 L 364.80 329.52 L 364.88 329.51 L 364.90 329.51 L 365.16 329.50 L 365.22 329.48 L 366.77 328.98 L 366.95 328.93 L 367.09 328.92 L 367.12 328.91 L 367.60 328.90 L 367.76 328.97 L 367.79 328.97 L 368.05 328.94 L 368.33 328.46 L 368.37 328.45 L 368.60 328.44 L 368.70 328.44 L 368.79 328.44 L 368.98 328.34 L 369.40 327.91 L 369.48 327.91 L 369.56 327.85 L 369.73 327.45 L 370.15 327.02 L 370.52 327.05 L 370.59 326.82 L 370.97 326.82 L 371.04 326.79 L 371.10 326.77 L 371.14 326.54 L 371.27 326.53 L 371.30 326.53 L 371.36 326.53 L 371.58 326.53 L 371.91 326.35 L 372.11 326.33 L 372.35 326.33 L 372.45 326.33 L 372.68 326.33 L 373.07 326.33 L 373.45 326.33 L 373.74 326.33 L 373.80 326.32 L 373.88 326.32 L 373.88 326.24 L 374.10 326.18 L 374.17 326.18 L 374.26 326.17 L 374.88 326.16 L 374.89 325.94 L 375.06 325.94 L 375.79 325.95 L 376.27 325.94 L 376.62 325.89 L 376.63 325.80 L 376.66 325.80 L 387.26 325.65 L 387.29 325.65 L 387.42 325.64 L 387.47 325.50 L 387.51 325.50 L 387.52 325.49 L 387.97 325.45 L 388.07 324.99 L 388.21 324.89 L 388.43 324.00 L 388.58 323.99 L 388.76 323.60 L 388.86 323.65 L 388.91 323.65 L 388.96 323.16 L 389.09 323.07 L 389.11 322.73 L 389.16 322.68 L 389.27 322.65 L 389.35 322.48 L 389.44 324.49 L 389.57 324.46 L 389.83 323.65 L 389.94 323.48 L 390.05 323.30 L 390.70 322.98 L 391.26 322.64 L 391.93 322.17 L 392.10 322.11 L 392.29 322.11 L 392.49 322.07 L 396.39 321.83 L 396.71 321.81 L 433.65 321.18 L 549.95 321.16 L 550.34 320.88 L 550.60 320.83 L 550.87 320.83 L 551.28 320.58 L 551.41 320.28 L 551.52 319.73 L 551.70 319.58 L 551.97 319.63 L 552.19 319.31 L 552.24 319.31 L 552.42 319.20 L 552.46 319.21 L 552.65 318.67 L 552.82 317.84 L 553.35 317.76 L 553.37 317.68 L 553.52 316.61 L 554.02 316.58 L 554.03 316.47 L 554.13 316.41 L 554.25 315.44 L 554.79 315.40 L 554.80 315.26 L 554.92 315.19 L 555.04 314.56 L 555.25 314.54 L 555.26 314.44 L 555.35 313.38 L 555.36 313.36 L 555.41 313.32 L 555.64 313.32 L 555.67 313.21 L 555.75 313.14 L 555.99 313.04 L 556.04 313.03 L 556.24 312.98 L 556.56 313.02 L 556.61 312.97 L 556.65 312.95 L 556.71 312.91 L 556.87 311.82 L 557.04 311.80 L 557.07 311.71 L 557.16 310.59 L 557.26 310.18 L 557.29 310.04 L 557.39 309.49 L 557.44 308.54 L 557.64 308.53 L 557.67 308.48 L 557.76 308.28 L 557.90 308.28 L 558.74 308.25 L 559.16 308.22 L 568.24 308.27 L 568.33 308.05 L 568.42 307.89 L 568.58 307.14 L 568.92 307.13 L 568.94 307.05 L 569.01 306.10 L 569.23 306.09 L 569.25 306.00 L 571.23 305.90 L 571.35 305.56 L 572.35 305.39 L 572.46 305.35 L 572.58 304.29 L 573.78 303.99 L 574.30 303.74 L 574.43 302.94 L 574.86 302.94 L 575.13 302.49 L 575.57 301.81 L 576.37 301.39 L 588.53 301.39 L 589.26 301.38 L 589.29 301.38 L 590.31 301.23 L 590.36 301.14 L 590.72 301.08 L 591.13 300.19 L 591.13 300.19 L 591.18 300.15 L 591.72 299.96 L 592.97 299.37 L 593.05 299.31 L 593.18 299.30 L 593.37 299.05 L 593.42 299.01 L 593.49 298.97 L 594.07 298.97 L 594.54 298.97 L 594.79 298.97 L 594.83 298.93 L 595.35 298.02 L 595.75 297.94 L 595.76 297.87 L 595.81 297.79 L 595.87 297.56 L 609.06 297.39 L 609.09 297.37 L 609.13 297.35 L 609.38 297.24 L 609.58 297.13 L 610.74 296.62 L 611.03 296.52 L 611.87 296.13 L 612.59 296.07 L 613.13 295.91 L 613.28 294.58 L 613.95 294.36 L 614.19 294.29 L 614.28 293.33 L 616.23 292.41 L 616.25 292.41 L 616.36 291.98 L 616.73 291.94 L 616.73 291.94 L 616.75 291.83 L 616.82 291.72 L 616.99 291.62 L 617.20 290.96 L 619.23 290.62 L 619.49 290.47 L 619.67 290.11 L 619.70 290.07 L 619.74 289.84 L 628.73 289.00 L 629.02 288.40 L 629.19 288.37 L 629.25 287.97 L 630.10 287.80 L 630.27 287.37 L 630.43 287.37 L 630.53 286.48 L 630.81 286.27 L 630.86 286.24 L 631.24 286.19 L 631.32 285.45 L 631.64 285.36 L 631.71 284.78 L 631.98 284.72 L 632.18 284.39 L 632.33 283.74 L 632.67 283.62 L 632.70 282.96 L 633.14 284.45 L 633.18 284.45 L 633.25 283.60 L 633.34 283.60 L 633.38 283.53 L 633.88 283.45 L 634.61 283.10 L 634.97 283.28 L 636.16 283.25 L 636.19 283.25 L 636.37 283.23 L 636.45 283.22 L 636.59 283.10 L 636.74 283.00 L 636.89 282.84 L 637.25 282.63 L 637.59 282.61 L 638.65 282.51 L 638.70 282.50 L 639.77 282.39 L 640.23 282.33 L 649.32 282.29 L 649.77 282.25 L 650.00 282.25"/>
	</g>
	<g class="poloto_legend poloto_imgs poloto_line poloto0 poloto_stroke"><line x1="680" x2="730" y1="81.25" y2="81.25"/></g>
	<g class="poloto_legend poloto_imgs poloto_line poloto1 poloto_stroke"><line x1="680" x2="730" y1="131.25" y2="131.25"/></g>
	<g class="poloto_legend poloto_imgs poloto_line poloto2 poloto_stroke"><line x1="680" x2="730" y1="181.25" y2="181.25"/></g>
	<text class="poloto_legend poloto_text poloto_line poloto0" x="675" y="100">total</text>
	<text class="poloto_legend poloto_text poloto_line poloto1" x="675" y="150">code</text>
	<text class="poloto_legend poloto_text poloto_line poloto2" x="675" y="200">docs</text>
	<text class="poloto_text poloto_name poloto_title" x="400.00" y="37.50">Workspace lines over time</text>
	<text class="poloto_text poloto_name poloto_x" x="400.00" y="640">date (JST)</text>
	<text class="poloto_text poloto_name poloto_y" x="37.50" y="250.00" transform="rotate(-90,37.50,250.00)">lines</text>
	<text class="poloto_text poloto_ticks poloto_y">
		<tspan x="135.00" y="400.00">0</tspan>
		<tspan x="135.00" y="321.46">50K</tspan>
		<tspan x="135.00" y="242.91">100K</tspan>
		<tspan x="135.00" y="164.37">150K</tspan>
	</text>
	<g class="poloto_imgs poloto_ticks poloto_y" stroke="black">
		<line x1="150.00" x2="144.00" y1="400.00" y2="400.00"/>
		<line x1="150.00" x2="144.00" y1="321.46" y2="321.46"/>
		<line x1="150.00" x2="144.00" y1="242.91" y2="242.91"/>
		<line x1="150.00" x2="144.00" y1="164.37" y2="164.37"/>
	</g>
	<g class="poloto_text poloto_ticks poloto_x">
		<text x="226.03" y="430.00" text-anchor="end" transform="rotate(-90 226.03 430.00)">2026-04-24 12:06</text>
		<text x="343.06" y="430.00" text-anchor="end" transform="rotate(-90 343.06 430.00)">2026-04-30 07:00</text>
		<text x="460.09" y="430.00" text-anchor="end" transform="rotate(-90 460.09 430.00)">2026-05-06 01:53</text>
		<text x="577.12" y="430.00" text-anchor="end" transform="rotate(-90 577.12 430.00)">2026-05-11 20:46</text>
	</g>
	<g class="poloto_imgs poloto_ticks poloto_x" stroke="black">
		<line x1="226.03" x2="226.03" y1="400.00" y2="405.00"/>
		<line x1="343.06" x2="343.06" y1="400.00" y2="405.00"/>
		<line x1="460.09" x2="460.09" y1="400.00" y2="405.00"/>
		<line x1="577.12" x2="577.12" y1="400.00" y2="405.00"/>
	</g>
	<path class="poloto_imgs poloto_ticks poloto_x" stroke="black" style="stroke-dasharray:11.703089802957418;stroke-dashoffset:-76.02865478134481;" d=" M 150.00 400.00 L 650.00 400.00"/>
	<path class="poloto_imgs poloto_ticks poloto_y" stroke="black" style="stroke-dasharray:7.8544312082733345;stroke-dashoffset:-0;" d=" M 150.00 400.00 L 150.00 100.00"/>
</svg>

