<svg class="poloto" width="800" height="680" viewBox="0 0 800 680" xmlns="http://www.w3.org/2000/svg">
	<style>
.poloto{
  stroke-linecap:round;
  stroke-linejoin:round;
  font-family:Roboto,sans-serif;
  font-size:16px;
}
.poloto_background{fill:AliceBlue;}
.poloto_scatter{stroke-width:7}
.poloto_line{stroke-width:2}
.poloto_text{fill: black;}
.poloto_name{font-size:24px;dominant-baseline:auto;text-anchor:middle;}
.poloto_where{dominant-baseline:middle;text-anchor:start}
.poloto_text.poloto_legend{font-size:20px;dominant-baseline:middle;text-anchor:start;}
.poloto_text.poloto_ticks.poloto_y{dominant-baseline:middle;text-anchor:end}
.poloto_text.poloto_ticks.poloto_x{dominant-baseline:auto;text-anchor:middle}
.poloto_imgs.poloto_ticks{stroke: black;stroke-width:3;fill:none;stroke-dasharray:none}
.poloto_grid{stroke:gray;stroke-width:0.5}

.poloto0.poloto_stroke{stroke:blue;}
.poloto1.poloto_stroke{stroke:red;}
.poloto2.poloto_stroke{stroke:green;}
.poloto3.poloto_stroke{stroke:gold;}
.poloto4.poloto_stroke{stroke:aqua;}
.poloto5.poloto_stroke{stroke:lime;}
.poloto6.poloto_stroke{stroke:orange;}
.poloto7.poloto_stroke{stroke:chocolate;}
.poloto0.poloto_fill{fill:blue;}
.poloto1.poloto_fill{fill:red;}
.poloto2.poloto_fill{fill:green;}
.poloto3.poloto_fill{fill:gold;}
.poloto4.poloto_fill{fill:aqua;}
.poloto5.poloto_fill{fill:lime;}
.poloto6.poloto_fill{fill:orange;}
.poloto7.poloto_fill{fill:chocolate;}
	</style>
	<circle r="1e5" class="poloto_background" fill="white"/>
	<g id="poloto_plot0" class="poloto_plot poloto_imgs poloto_line poloto0 poloto_stroke" fill="none" stroke="black">
		<path d=" M 150.00 360.29 L 150.04 360.26 L 150.06 360.23 L 150.07 360.23 L 150.10 360.23 L 150.14 355.92 L 150.29 355.40 L 150.64 355.38 L 151.17 355.03 L 151.43 352.84 L 151.96 352.70 L 152.05 352.59 L 152.12 352.54 L 152.74 351.47 L 153.90 350.60 L 154.27 347.22 L 154.36 347.22 L 155.06 347.09 L 155.87 347.07 L 155.87 347.07 L 155.88 347.07 L 166.78 347.07 L 166.85 347.07 L 166.99 347.04 L 167.05 347.00 L 167.47 346.80 L 167.66 346.75 L 168.12 346.44 L 168.18 346.30 L 168.31 346.00 L 168.45 345.95 L 168.49 345.95 L 168.61 345.86 L 168.73 345.86 L 168.84 345.87 L 169.15 345.37 L 169.42 345.06 L 169.47 345.06 L 169.59 344.87 L 170.46 345.65 L 170.48 345.65 L 170.59 345.52 L 171.08 344.94 L 171.48 344.25 L 171.93 343.95 L 172.02 343.89 L 172.03 343.89 L 172.12 343.63 L 172.29 343.63 L 172.50 343.53 L 172.93 343.27 L 172.96 342.87 L 173.03 342.87 L 173.14 342.65 L 173.38 342.65 L 173.41 342.65 L 173.66 342.08 L 173.76 342.05 L 173.86 342.00 L 173.96 341.77 L 175.28 341.45 L 175.60 341.39 L 176.34 340.98 L 176.50 340.98 L 176.61 340.96 L 176.68 340.67 L 177.19 338.96 L 177.41 338.93 L 177.68 338.36 L 177.80 338.30 L 178.11 337.82 L 178.24 337.66 L 178.43 337.35 L 178.60 337.08 L 179.18 333.14 L 179.20 333.04 L 179.23 332.81 L 179.43 330.91 L 189.53 330.77 L 190.58 328.61 L 190.62 328.56 L 191.85 328.22 L 191.96 328.21 L 192.07 327.79 L 192.37 327.57 L 192.51 327.20 L 192.56 326.88 L 192.72 326.32 L 193.08 326.31 L 193.09 325.92 L 193.23 325.50 L 193.37 325.49 L 193.52 325.02 L 193.72 324.68 L 193.80 324.51 L 193.82 324.50 L 194.00 324.13 L 194.02 324.12 L 194.22 323.75 L 194.25 323.74 L 194.54 321.96 L 194.59 321.96 L 194.69 321.66 L 194.81 321.65 L 194.98 321.65 L 195.05 321.61 L 195.62 321.28 L 195.63 321.29 L 195.74 320.50 L 195.99 320.48 L 196.22 319.29 L 196.29 319.19 L 196.39 319.18 L 196.45 319.13 L 196.58 318.21 L 197.21 310.48 L 197.28 310.11 L 197.50 310.07 L 197.56 309.98 L 197.61 309.95 L 197.71 309.75 L 197.81 308.87 L 198.04 308.69 L 198.19 308.67 L 198.32 308.29 L 198.39 308.27 L 198.96 307.99 L 199.27 307.77 L 199.37 307.42 L 199.63 307.41 L 199.66 307.41 L 199.68 307.37 L 199.85 305.51 L 199.98 305.40 L 200.45 303.53 L 200.53 302.98 L 200.62 302.97 L 200.74 302.77 L 200.76 302.62 L 200.81 302.53 L 200.85 302.49 L 200.92 302.48 L 200.98 302.38 L 201.17 300.85 L 201.31 300.62 L 201.44 300.17 L 201.62 300.14 L 201.82 300.00 L 202.03 298.91 L 202.17 297.41 L 202.47 297.32 L 202.47 296.76 L 202.64 296.58 L 216.75 296.58 L 217.02 296.56 L 217.69 295.77 L 217.83 295.75 L 217.94 295.75 L 217.96 295.55 L 218.20 295.30 L 218.37 295.26 L 218.46 295.11 L 218.56 295.01 L 218.62 294.95 L 218.87 294.88 L 219.38 294.79 L 219.51 294.38 L 219.60 294.27 L 219.73 294.26 L 220.38 294.05 L 220.47 293.94 L 220.52 293.94 L 220.56 293.78 L 220.70 293.71 L 220.81 293.56 L 221.29 292.55 L 221.97 292.40 L 222.21 292.33 L 222.97 292.08 L 223.33 287.21 L 223.45 287.11 L 223.61 286.63 L 223.83 286.00 L 224.17 285.82 L 224.65 285.80 L 225.29 285.78 L 225.39 285.57 L 225.85 285.34 L 226.15 284.99 L 226.25 284.85 L 226.43 284.79 L 226.57 284.36 L 228.24 283.88 L 229.83 283.88 L 244.03 283.84 L 244.13 283.63 L 244.21 283.49 L 244.65 283.28 L 245.98 281.61 L 246.03 281.50 L 246.22 281.07 L 246.87 280.96 L 247.18 279.82 L 247.65 279.81 L 247.76 279.79 L 247.86 279.02 L 248.69 274.59 L 248.79 274.59 L 248.96 274.55 L 249.14 274.49 L 249.23 274.01 L 249.69 272.35 L 249.85 272.04 L 249.93 272.01 L 250.03 271.24 L 250.24 270.16 L 250.32 269.01 L 250.53 268.49 L 251.14 262.74 L 251.20 262.16 L 251.26 262.16 L 251.35 262.06 L 251.51 261.91 L 251.57 261.86 L 251.63 261.80 L 251.92 260.42 L 251.99 259.45 L 252.35 259.25 L 252.57 257.81 L 252.70 256.90 L 253.80 243.49 L 253.93 243.45 L 295.67 242.81 L 295.71 242.81 L 311.66 242.63 L 312.53 242.26 L 312.70 242.26 L 312.94 242.16 L 313.01 241.99 L 313.11 241.94 L 320.03 241.85 L 320.94 239.30 L 321.28 239.07 L 321.46 238.13 L 325.77 237.95 L 325.80 237.69 L 326.06 237.66 L 327.35 236.06 L 327.43 235.76 L 327.59 235.66 L 328.04 235.55 L 328.10 235.51 L 328.28 235.03 L 328.48 234.89 L 328.51 234.54 L 341.91 234.05 L 342.01 232.67 L 342.54 232.37 L 342.55 230.07 L 342.65 229.73 L 342.76 229.17 L 342.91 227.58 L 343.13 226.74 L 343.33 225.75 L 343.50 225.74 L 343.57 224.99 L 343.84 224.93 L 344.77 221.23 L 345.14 220.83 L 345.20 220.60 L 345.28 220.59 L 345.33 220.33 L 345.46 219.42 L 345.84 218.99 L 345.89 218.93 L 346.12 215.67 L 346.21 215.66 L 346.25 215.31 L 346.33 215.04 L 346.39 215.04 L 346.44 214.55 L 346.74 212.79 L 346.86 212.29 L 347.03 212.22 L 347.14 207.51 L 347.19 207.13 L 347.48 204.44 L 347.56 204.23 L 347.62 204.22 L 347.69 204.22 L 347.74 203.84 L 347.78 203.85 L 347.80 203.84 L 347.95 199.09 L 348.00 198.67 L 348.14 198.65 L 348.25 198.57 L 348.55 198.43 L 348.92 198.25 L 348.93 198.25 L 349.03 198.19 L 349.38 198.10 L 349.54 198.10 L 349.70 198.10 L 349.87 196.03 L 349.99 195.53 L 350.46 195.52 L 350.51 195.20 L 350.56 195.19 L 350.60 194.84 L 350.91 191.84 L 350.97 191.77 L 351.19 191.75 L 371.82 191.66 L 372.99 191.51 L 373.03 191.51 L 373.26 191.51 L 373.28 191.51 L 373.43 190.91 L 373.55 190.89 L 373.65 190.59 L 373.79 190.52 L 373.83 190.48 L 373.89 190.45 L 374.10 190.12 L 374.55 189.82 L 374.84 188.86 L 375.15 187.94 L 375.16 187.89 L 375.22 187.03 L 375.26 187.00 L 375.87 186.49 L 375.88 186.43 L 375.98 185.75 L 376.24 185.68 L 376.41 185.61 L 376.45 184.40 L 376.46 184.34 L 376.53 185.49 L 376.58 184.78 L 376.60 184.76 L 376.75 183.13 L 376.77 183.08 L 377.09 182.95 L 377.97 182.93 L 378.18 182.87 L 378.24 182.86 L 378.29 182.64 L 378.34 182.64 L 378.46 181.84 L 392.56 180.29 L 392.58 180.08 L 392.70 179.93 L 392.74 179.63 L 392.82 166.06 L 392.97 160.51 L 392.99 160.47 L 393.25 160.36 L 393.31 160.36 L 393.36 159.73 L 393.58 159.66 L 394.19 158.35 L 394.21 158.32 L 394.36 157.92 L 394.42 157.93 L 394.45 157.27 L 394.96 156.50 L 394.98 156.47 L 395.75 156.17 L 395.84 155.48 L 396.12 155.49 L 396.44 153.74 L 396.52 153.05 L 396.57 152.49 L 396.72 151.82 L 397.12 151.58 L 397.19 151.41 L 397.36 151.26 L 397.55 151.26 L 398.15 151.26 L 398.22 151.26 L 398.35 151.23 L 398.36 151.22 L 398.55 151.24 L 399.00 151.21 L 399.46 150.95 L 399.53 150.95 L 399.63 150.85 L 399.76 150.66 L 400.12 150.66 L 400.72 150.42 L 400.91 149.88 L 401.23 145.20 L 402.53 149.15 L 402.81 149.14 L 403.02 149.12 L 403.34 149.11 L 403.45 149.04 L 403.77 148.81 L 404.28 148.49 L 404.35 148.28 L 404.44 148.19 L 404.51 148.21 L 404.55 148.14 L 404.95 147.85 L 414.30 147.84 L 414.39 147.85 L 414.97 147.83 L 415.02 147.81 L 415.15 147.22 L 415.26 146.88 L 415.28 146.88 L 415.60 146.83 L 415.68 146.80 L 417.59 145.92 L 417.81 145.84 L 417.98 145.83 L 418.02 145.82 L 418.61 145.61 L 418.81 145.72 L 418.85 145.71 L 419.17 145.65 L 419.52 143.80 L 419.56 143.79 L 419.85 143.58 L 419.97 143.58 L 420.08 143.58 L 420.32 143.37 L 420.84 142.62 L 420.94 142.60 L 421.03 142.39 L 421.25 141.51 L 421.76 140.59 L 422.22 136.29 L 422.31 135.77 L 422.78 135.56 L 422.86 135.45 L 422.94 135.24 L 422.98 134.55 L 423.14 133.31 L 423.18 133.36 L 423.26 133.34 L 423.52 133.33 L 423.93 132.88 L 424.18 132.79 L 424.47 132.77 L 424.60 132.76 L 424.89 132.74 L 425.36 132.74 L 425.83 132.73 L 426.19 132.73 L 426.27 132.71 L 426.36 132.70 L 426.37 132.55 L 426.64 132.46 L 426.72 132.44 L 426.83 132.26 L 427.60 132.23 L 427.61 131.86 L 427.82 131.84 L 428.72 131.85 L 429.31 131.62 L 429.74 131.34 L 429.76 131.20 L 429.79 131.19 L 442.88 130.94 L 442.92 130.93 L 443.07 130.92 L 443.14 130.70 L 443.19 130.68 L 443.20 130.66 L 443.76 130.61 L 443.88 129.83 L 444.05 129.65 L 444.33 128.12 L 444.51 128.10 L 444.73 127.45 L 444.86 127.53 L 444.92 127.52 L 444.98 126.78 L 445.15 126.27 L 445.17 125.73 L 445.23 125.65 L 445.37 125.61 L 445.46 125.35 L 445.58 128.28 L 445.73 128.23 L 446.06 127.06 L 446.20 126.77 L 446.32 126.53 L 447.13 124.85 L 447.81 124.03 L 448.64 122.48 L 448.85 122.41 L 449.09 122.41 L 449.34 122.34 L 454.16 121.90 L 454.55 121.86 L 500.15 120.68 L 643.71 120.40 L 644.19 119.93 L 644.52 119.86 L 644.85 119.86 L 645.35 118.95 L 645.52 118.51 L 645.65 117.69 L 645.88 115.33 L 646.21 115.82 L 646.48 115.30 L 646.54 115.29 L 646.76 115.14 L 646.81 115.14 L 647.05 114.28 L 647.26 112.89 L 647.91 111.42 L 647.93 111.30 L 648.12 109.55 L 648.73 105.20 L 648.75 105.05 L 648.87 104.96 L 649.02 103.41 L 649.69 101.32 L 649.70 101.13 L 649.85 101.03 L 650.00 100.00"/>
	</g>
	<g id="poloto_plot1" class="poloto_plot poloto_imgs poloto_line poloto1 poloto_stroke" fill="none" stroke="black">
		<path d=" M 150.00 376.40 L 150.04 376.38 L 150.06 376.37 L 150.07 376.37 L 150.10 376.37 L 150.14 375.62 L 150.29 375.59 L 150.64 375.58 L 151.17 375.30 L 151.43 375.17 L 151.96 375.20 L 152.05 375.15 L 152.12 375.15 L 152.74 375.09 L 153.90 374.95 L 154.27 372.04 L 154.36 372.04 L 155.06 371.97 L 155.87 371.95 L 155.87 371.95 L 155.88 371.95 L 166.78 371.95 L 166.85 371.95 L 166.99 371.95 L 167.05 371.91 L 167.47 371.90 L 167.66 371.90 L 168.12 371.90 L 168.18 371.90 L 168.31 371.87 L 168.45 371.87 L 168.49 371.87 L 168.61 371.84 L 168.73 371.84 L 168.84 371.84 L 169.15 371.68 L 169.42 371.68 L 169.47 371.68 L 169.59 371.68 L 170.46 372.77 L 170.48 372.77 L 170.59 372.76 L 171.08 372.60 L 171.48 372.41 L 171.93 372.33 L 172.02 372.28 L 172.03 372.28 L 172.12 372.28 L 172.29 372.28 L 172.50 372.20 L 172.93 372.14 L 172.96 372.14 L 173.03 372.14 L 173.14 372.11 L 173.38 372.11 L 173.41 372.11 L 173.66 372.10 L 173.76 372.10 L 173.86 372.10 L 173.96 372.10 L 175.28 371.97 L 175.60 371.96 L 176.34 371.90 L 176.50 371.90 L 176.61 371.90 L 176.68 371.90 L 177.19 371.82 L 177.41 371.82 L 177.68 371.71 L 177.80 371.70 L 178.11 371.46 L 178.24 371.38 L 178.43 371.38 L 178.60 371.37 L 179.18 367.96 L 179.20 367.90 L 179.23 367.90 L 179.43 367.57 L 189.53 367.57 L 190.58 366.10 L 190.62 366.10 L 191.85 366.10 L 191.96 366.10 L 192.07 365.95 L 192.37 365.92 L 192.51 365.92 L 192.56 365.92 L 192.72 365.92 L 193.08 365.92 L 193.09 365.60 L 193.23 365.59 L 193.37 365.59 L 193.52 365.56 L 193.72 365.55 L 193.80 365.55 L 193.82 365.55 L 194.00 365.55 L 194.02 365.55 L 194.22 365.55 L 194.25 365.55 L 194.54 364.10 L 194.59 364.10 L 194.69 363.93 L 194.81 363.93 L 194.98 363.93 L 195.05 363.91 L 195.62 363.91 L 195.63 363.91 L 195.74 363.82 L 195.99 363.82 L 196.22 362.99 L 196.29 362.89 L 196.39 362.89 L 196.45 362.89 L 196.58 362.86 L 197.21 356.77 L 197.28 356.82 L 197.50 356.82 L 197.56 356.82 L 197.61 356.81 L 197.71 356.81 L 197.81 356.73 L 198.04 356.73 L 198.19 356.73 L 198.32 356.72 L 198.39 356.72 L 198.96 356.71 L 199.27 356.70 L 199.37 356.55 L 199.63 356.55 L 199.66 356.55 L 199.68 356.55 L 199.85 356.14 L 199.98 356.04 L 200.45 354.59 L 200.53 354.59 L 200.62 354.59 L 200.74 354.61 L 200.76 354.61 L 200.81 354.61 L 200.85 354.61 L 200.92 354.61 L 200.98 354.61 L 201.17 354.58 L 201.31 354.58 L 201.44 354.56 L 201.62 354.56 L 201.82 354.55 L 202.03 354.01 L 202.17 353.83 L 202.47 353.83 L 202.47 353.83 L 202.64 353.83 L 216.75 353.83 L 217.02 353.82 L 217.69 353.72 L 217.83 353.71 L 217.94 353.71 L 217.96 353.71 L 218.20 353.71 L 218.37 353.71 L 218.46 353.71 L 218.56 353.71 L 218.62 353.70 L 218.87 353.70 L 219.38 353.73 L 219.51 353.73 L 219.60 353.73 L 219.73 353.73 L 220.38 353.62 L 220.47 353.56 L 220.52 353.56 L 220.56 353.48 L 220.70 353.48 L 220.81 353.48 L 221.29 352.92 L 221.97 352.92 L 222.21 352.92 L 222.97 352.92 L 223.33 349.19 L 223.45 349.19 L 223.61 349.19 L 223.83 349.18 L 224.17 349.18 L 224.65 349.18 L 225.29 349.18 L 225.39 349.18 L 225.85 349.09 L 226.15 348.94 L 226.25 348.94 L 226.43 348.94 L 226.57 348.92 L 228.24 348.68 L 229.83 348.68 L 244.03 348.68 L 244.13 348.68 L 244.21 348.68 L 244.65 348.68 L 245.98 347.50 L 246.03 347.47 L 246.22 347.34 L 246.87 347.34 L 247.18 347.05 L 247.65 347.06 L 247.76 347.06 L 247.86 347.06 L 248.69 343.78 L 248.79 343.78 L 248.96 343.78 L 249.14 343.78 L 249.23 343.57 L 249.69 343.18 L 249.85 343.18 L 249.93 343.18 L 250.03 342.58 L 250.24 341.97 L 250.32 341.97 L 250.53 341.96 L 251.14 337.09 L 251.20 337.09 L 251.26 337.09 L 251.35 337.09 L 251.51 337.09 L 251.57 337.09 L 251.63 337.09 L 251.92 337.09 L 251.99 336.98 L 252.35 336.96 L 252.57 336.89 L 252.70 336.30 L 253.80 326.59 L 253.93 326.59 L 295.67 326.59 L 295.71 326.59 L 311.66 326.59 L 312.53 326.45 L 312.70 326.45 L 312.94 326.45 L 313.01 326.45 L 313.11 326.45 L 320.03 326.37 L 320.94 326.28 L 321.28 326.28 L 321.46 326.25 L 325.77 326.16 L 325.80 326.04 L 326.06 326.04 L 327.35 324.72 L 327.43 324.72 L 327.59 324.72 L 328.04 324.72 L 328.10 324.72 L 328.28 324.72 L 328.48 324.72 L 328.51 324.72 L 341.91 324.70 L 342.01 324.47 L 342.54 324.47 L 342.55 322.88 L 342.65 322.88 L 342.76 322.88 L 342.91 322.73 L 343.13 322.73 L 343.33 322.67 L 343.50 322.67 L 343.57 322.67 L 343.84 322.65 L 344.77 319.95 L 345.14 319.95 L 345.20 319.93 L 345.28 319.93 L 345.33 319.93 L 345.46 319.89 L 345.84 319.56 L 345.89 319.51 L 346.12 317.09 L 346.21 317.08 L 346.25 317.08 L 346.33 317.05 L 346.39 317.05 L 346.44 317.04 L 346.74 315.72 L 346.86 315.71 L 347.03 315.68 L 347.14 311.58 L 347.19 311.58 L 347.48 309.28 L 347.56 309.28 L 347.62 309.27 L 347.69 309.27 L 347.74 309.27 L 347.78 309.27 L 347.80 309.27 L 347.95 305.01 L 348.00 305.00 L 348.14 304.99 L 348.25 304.99 L 348.55 304.90 L 348.92 304.78 L 348.93 304.78 L 349.03 304.76 L 349.38 304.69 L 349.54 304.69 L 349.70 304.69 L 349.87 302.85 L 349.99 302.85 L 350.46 302.84 L 350.51 302.84 L 350.56 302.84 L 350.60 302.84 L 350.91 300.21 L 350.97 300.21 L 351.19 300.19 L 371.82 300.19 L 372.99 300.18 L 373.03 300.18 L 373.26 300.18 L 373.28 300.18 L 373.43 300.18 L 373.55 300.18 L 373.65 300.05 L 373.79 300.05 L 373.83 300.05 L 373.89 300.05 L 374.10 299.81 L 374.55 299.66 L 374.84 299.50 L 375.15 298.76 L 375.16 298.76 L 375.22 298.57 L 375.26 298.55 L 375.87 298.10 L 375.88 298.10 L 375.98 298.03 L 376.24 298.03 L 376.41 297.99 L 376.45 296.90 L 376.46 296.90 L 376.53 297.97 L 376.58 297.91 L 376.60 297.90 L 376.75 296.44 L 376.77 296.44 L 377.09 296.38 L 377.97 296.38 L 378.18 296.38 L 378.24 296.38 L 378.29 296.38 L 378.34 296.38 L 378.46 296.28 L 392.56 295.07 L 392.58 295.07 L 392.70 295.06 L 392.74 294.80 L 392.82 281.84 L 392.97 277.02 L 392.99 277.02 L 393.25 276.93 L 393.31 276.93 L 393.36 276.91 L 393.58 276.91 L 394.19 275.74 L 394.21 275.74 L 394.36 275.67 L 394.42 275.67 L 394.45 275.57 L 394.96 274.87 L 394.98 274.87 L 395.75 274.72 L 395.84 274.68 L 396.12 274.69 L 396.44 273.10 L 396.52 272.94 L 396.57 272.79 L 396.72 272.19 L 397.12 272.04 L 397.19 271.92 L 397.36 271.92 L 397.55 271.92 L 398.15 271.92 L 398.22 271.92 L 398.35 271.92 L 398.36 271.92 L 398.55 271.93 L 399.00 271.93 L 399.46 271.77 L 399.53 271.77 L 399.63 271.75 L 399.76 271.75 L 400.12 271.75 L 400.72 271.75 L 400.91 271.61 L 401.23 267.42 L 402.53 271.37 L 402.81 271.35 L 403.02 271.34 L 403.34 271.34 L 403.45 271.30 L 403.77 271.27 L 404.28 271.03 L 404.35 271.03 L 404.44 271.03 L 404.51 271.03 L 404.55 271.03 L 404.95 270.80 L 414.30 270.80 L 414.39 270.81 L 414.97 270.79 L 415.02 270.79 L 415.15 270.75 L 415.26 270.46 L 415.28 270.45 L 415.60 270.42 L 415.68 270.42 L 417.59 270.18 L 417.81 270.18 L 417.98 270.18 L 418.02 270.18 L 418.61 270.01 L 418.81 270.01 L 418.85 270.01 L 419.17 270.00 L 419.52 269.02 L 419.56 269.02 L 419.85 268.85 L 419.97 268.85 L 420.08 268.85 L 420.32 268.85 L 420.84 268.83 L 420.94 268.81 L 421.03 268.71 L 421.25 268.55 L 421.76 268.39 L 422.22 264.45 L 422.31 264.32 L 422.78 264.13 L 422.86 264.08 L 422.94 263.94 L 422.98 263.67 L 423.14 262.48 L 423.18 262.53 L 423.26 262.51 L 423.52 262.50 L 423.93 262.34 L 424.18 262.28 L 424.47 262.26 L 424.60 262.25 L 424.89 262.23 L 425.36 262.23 L 425.83 262.22 L 426.19 262.22 L 426.27 262.21 L 426.36 262.21 L 426.37 262.20 L 426.64 262.20 L 426.72 262.19 L 426.83 262.04 L 427.60 262.02 L 427.61 262.02 L 427.82 262.01 L 428.72 262.00 L 429.31 261.81 L 429.74 261.64 L 429.76 261.64 L 429.79 261.64 L 442.88 261.64 L 442.92 261.64 L 443.07 261.64 L 443.14 261.64 L 443.19 261.61 L 443.20 261.61 L 443.76 261.61 L 443.88 261.60 L 444.05 261.57 L 444.33 261.55 L 444.51 261.55 L 444.73 261.45 L 444.86 261.45 L 444.92 261.45 L 444.98 261.45 L 445.15 261.09 L 445.17 261.09 L 445.23 261.09 L 445.37 261.09 L 445.46 261.09 L 445.58 261.18 L 445.73 261.18 L 446.06 261.16 L 446.20 261.16 L 446.32 261.16 L 447.13 260.01 L 447.81 259.69 L 448.64 258.86 L 448.85 258.86 L 449.09 258.86 L 449.34 258.86 L 454.16 258.76 L 454.55 258.76 L 500.15 258.61 L 643.71 258.40 L 644.19 258.33 L 644.52 258.32 L 644.85 258.32 L 645.35 257.78 L 645.52 257.78 L 645.65 257.78 L 645.88 255.84 L 646.21 256.21 L 646.48 256.19 L 646.54 256.19 L 646.76 256.17 L 646.81 256.17 L 647.05 256.16 L 647.26 256.07 L 647.91 254.85 L 647.93 254.85 L 648.12 254.74 L 648.73 250.76 L 648.75 250.76 L 648.87 250.76 L 649.02 250.69 L 649.69 248.84 L 649.70 248.84 L 649.85 248.84 L 650.00 248.80"/>
	</g>
	<g id="poloto_plot2" class="poloto_plot poloto_imgs poloto_line poloto2 poloto_stroke" fill="none" stroke="black">
		<path d=" M 150.00 389.41 L 150.04 389.40 L 150.06 389.40 L 150.07 389.40 L 150.10 389.40 L 150.14 386.69 L 150.29 386.32 L 150.64 386.32 L 151.17 386.30 L 151.43 384.68 L 151.96 384.54 L 152.05 384.49 L 152.12 384.45 L 152.74 383.72 L 153.90 383.15 L 154.27 383.04 L 154.36 383.05 L 155.06 383.01 L 155.87 383.01 L 155.87 383.01 L 155.88 383.01 L 166.78 383.01 L 166.85 383.00 L 166.99 382.98 L 167.05 382.98 L 167.47 382.81 L 167.66 382.77 L 168.12 382.50 L 168.18 382.39 L 168.31 382.15 L 168.45 382.12 L 168.49 382.11 L 168.61 382.07 L 168.73 382.07 L 168.84 382.07 L 169.15 381.80 L 169.42 381.55 L 169.47 381.55 L 169.59 381.40 L 170.46 381.08 L 170.48 381.07 L 170.59 380.97 L 171.08 380.61 L 171.48 380.17 L 171.93 379.99 L 172.02 379.99 L 172.03 380.00 L 172.12 379.75 L 172.29 379.75 L 172.50 379.72 L 172.93 379.53 L 172.96 379.22 L 173.03 379.22 L 173.14 379.06 L 173.38 379.06 L 173.41 379.06 L 173.66 378.59 L 173.76 378.56 L 173.86 378.52 L 173.96 378.29 L 175.28 378.16 L 175.60 378.12 L 176.34 377.79 L 176.50 377.79 L 176.61 377.77 L 176.68 377.53 L 177.19 376.20 L 177.41 376.18 L 177.68 375.78 L 177.80 375.74 L 178.11 375.56 L 178.24 375.50 L 178.43 375.22 L 178.60 374.99 L 179.18 374.98 L 179.20 374.95 L 179.23 374.77 L 179.43 373.48 L 189.53 373.35 L 190.58 372.97 L 190.62 372.92 L 191.85 372.60 L 191.96 372.59 L 192.07 372.35 L 192.37 372.20 L 192.51 371.90 L 192.56 371.66 L 192.72 371.19 L 193.08 371.18 L 193.09 371.18 L 193.23 370.84 L 193.37 370.84 L 193.52 370.49 L 193.72 370.22 L 193.80 370.06 L 193.82 370.06 L 194.00 369.74 L 194.02 369.73 L 194.22 369.44 L 194.25 369.43 L 194.54 369.33 L 194.59 369.33 L 194.69 369.22 L 194.81 369.20 L 194.98 369.20 L 195.05 369.17 L 195.62 368.89 L 195.63 368.90 L 195.74 368.32 L 195.99 368.30 L 196.22 368.12 L 196.29 368.12 L 196.39 368.12 L 196.45 368.07 L 196.58 367.28 L 197.21 366.61 L 197.28 366.25 L 197.50 366.22 L 197.56 366.13 L 197.61 366.11 L 197.71 365.94 L 197.81 365.32 L 198.04 365.22 L 198.19 365.20 L 198.32 364.89 L 198.39 364.88 L 198.96 364.65 L 199.27 364.48 L 199.37 364.34 L 199.63 364.32 L 199.66 364.32 L 199.68 364.29 L 199.85 363.16 L 199.98 363.15 L 200.45 362.99 L 200.53 362.54 L 200.62 362.53 L 200.74 362.34 L 200.76 362.23 L 200.81 362.16 L 200.85 362.11 L 200.92 362.11 L 200.98 362.02 L 201.17 360.75 L 201.31 360.61 L 201.44 360.23 L 201.62 360.21 L 201.82 360.08 L 202.03 359.69 L 202.17 358.58 L 202.47 358.50 L 202.47 358.02 L 202.64 357.91 L 216.75 357.91 L 217.02 357.91 L 217.69 357.39 L 217.83 357.39 L 217.94 357.39 L 217.96 357.25 L 218.20 357.03 L 218.37 356.99 L 218.46 356.85 L 218.56 356.76 L 218.62 356.71 L 218.87 356.64 L 219.38 356.75 L 219.51 356.40 L 219.60 356.30 L 219.73 356.29 L 220.38 356.22 L 220.47 356.16 L 220.52 356.16 L 220.56 356.10 L 220.70 356.04 L 220.81 355.91 L 221.29 355.58 L 221.97 355.44 L 222.21 355.38 L 222.97 355.17 L 223.33 354.65 L 223.45 354.57 L 223.61 354.16 L 223.83 353.64 L 224.17 353.51 L 224.65 353.49 L 225.29 353.47 L 225.39 353.28 L 225.85 353.15 L 226.15 352.99 L 226.25 352.86 L 226.43 352.81 L 226.57 352.46 L 228.24 352.29 L 229.83 352.29 L 244.03 352.25 L 244.13 352.07 L 244.21 351.94 L 244.65 351.75 L 245.98 351.40 L 246.03 351.35 L 246.22 351.11 L 246.87 351.01 L 247.18 350.34 L 247.65 350.33 L 247.76 350.30 L 247.86 349.64 L 248.69 349.03 L 248.79 349.02 L 248.96 348.99 L 249.14 348.93 L 249.23 348.70 L 249.69 347.68 L 249.85 347.41 L 249.93 347.39 L 250.03 347.29 L 250.24 346.89 L 250.32 345.86 L 250.53 345.44 L 251.14 345.19 L 251.20 344.68 L 251.26 344.68 L 251.35 344.58 L 251.51 344.45 L 251.57 344.41 L 251.63 344.36 L 251.92 343.16 L 251.99 342.45 L 252.35 342.32 L 252.57 341.13 L 252.70 340.90 L 253.80 339.02 L 253.93 338.99 L 295.67 338.44 L 295.71 338.44 L 311.66 338.28 L 312.53 338.08 L 312.70 338.08 L 312.94 337.99 L 313.01 337.83 L 313.11 337.80 L 320.03 337.78 L 320.94 335.63 L 321.28 335.44 L 321.46 334.69 L 325.77 334.60 L 325.80 334.53 L 326.06 334.52 L 327.35 334.39 L 327.43 334.14 L 327.59 334.05 L 328.04 333.94 L 328.10 333.91 L 328.28 333.49 L 328.48 333.36 L 328.51 333.04 L 341.91 332.64 L 342.01 331.66 L 342.54 331.40 L 342.55 331.03 L 342.65 330.73 L 342.76 330.28 L 342.91 329.09 L 343.13 328.44 L 343.33 327.60 L 343.50 327.60 L 343.57 326.95 L 343.84 326.90 L 344.77 326.29 L 345.14 326.00 L 345.20 325.83 L 345.28 325.82 L 345.33 325.61 L 345.46 324.88 L 345.84 324.80 L 345.89 324.80 L 346.12 324.32 L 346.21 324.32 L 346.25 324.04 L 346.33 323.87 L 346.39 323.87 L 346.44 323.48 L 346.74 323.25 L 346.86 322.87 L 347.03 322.86 L 347.14 322.65 L 347.19 322.36 L 347.48 322.20 L 347.56 322.04 L 347.62 322.04 L 347.69 322.03 L 347.74 321.73 L 347.78 321.75 L 347.80 321.74 L 347.95 321.64 L 348.00 321.31 L 348.14 321.30 L 348.25 321.22 L 348.55 321.20 L 348.92 321.16 L 348.93 321.16 L 349.03 321.14 L 349.38 321.14 L 349.54 321.14 L 349.70 321.14 L 349.87 321.09 L 349.99 320.69 L 350.46 320.69 L 350.51 320.46 L 350.56 320.45 L 350.60 320.19 L 350.91 320.10 L 350.97 320.03 L 351.19 320.03 L 371.82 319.96 L 372.99 319.85 L 373.03 319.85 L 373.26 319.85 L 373.28 319.85 L 373.43 319.39 L 373.55 319.37 L 373.65 319.24 L 373.79 319.17 L 373.83 319.13 L 373.89 319.11 L 374.10 319.06 L 374.55 318.97 L 374.84 318.35 L 375.15 318.31 L 375.16 318.27 L 375.22 317.75 L 375.26 317.75 L 375.87 317.75 L 375.88 317.69 L 375.98 317.21 L 376.24 317.15 L 376.41 317.13 L 376.45 317.12 L 376.46 317.07 L 376.53 317.03 L 376.58 316.54 L 376.60 316.53 L 376.75 316.53 L 376.77 316.49 L 377.09 316.44 L 377.97 316.42 L 378.18 316.38 L 378.24 316.36 L 378.29 316.21 L 378.34 316.21 L 378.46 315.65 L 392.56 315.48 L 392.58 315.32 L 392.70 315.21 L 392.74 315.19 L 392.82 314.72 L 392.97 314.60 L 392.99 314.57 L 393.25 314.57 L 393.31 314.57 L 393.36 314.10 L 393.58 314.04 L 394.19 314.02 L 394.21 314.00 L 394.36 313.74 L 394.42 313.75 L 394.45 313.31 L 394.96 313.31 L 394.98 313.29 L 395.75 313.18 L 395.84 312.66 L 396.12 312.66 L 396.44 312.66 L 396.52 312.27 L 396.57 311.97 L 396.72 311.96 L 397.12 311.90 L 397.19 311.87 L 397.36 311.75 L 397.55 311.75 L 398.15 311.76 L 398.22 311.76 L 398.35 311.73 L 398.36 311.73 L 398.55 311.73 L 399.00 311.69 L 399.46 311.64 L 399.53 311.64 L 399.63 311.58 L 399.76 311.44 L 400.12 311.44 L 400.72 311.27 L 400.91 310.98 L 401.23 310.95 L 402.53 310.63 L 402.81 310.63 L 403.02 310.62 L 403.34 310.62 L 403.45 310.59 L 403.77 310.43 L 404.28 310.41 L 404.35 310.27 L 404.44 310.20 L 404.51 310.22 L 404.55 310.16 L 404.95 310.14 L 414.30 310.13 L 414.39 310.13 L 414.97 310.13 L 415.02 310.12 L 415.15 309.68 L 415.26 309.66 L 415.28 309.66 L 415.60 309.65 L 415.68 309.63 L 417.59 308.99 L 417.81 308.92 L 417.98 308.91 L 418.02 308.90 L 418.61 308.89 L 418.81 308.98 L 418.85 308.97 L 419.17 308.93 L 419.52 308.32 L 419.56 308.31 L 419.85 308.29 L 419.97 308.29 L 420.08 308.29 L 420.32 308.17 L 420.84 307.61 L 420.94 307.61 L 421.03 307.53 L 421.25 307.03 L 421.76 306.48 L 422.22 306.51 L 422.31 306.22 L 422.78 306.22 L 422.86 306.18 L 422.94 306.15 L 422.98 305.86 L 423.14 305.85 L 423.18 305.85 L 423.26 305.85 L 423.52 305.85 L 423.93 305.61 L 424.18 305.59 L 424.47 305.59 L 424.60 305.59 L 424.89 305.59 L 425.36 305.59 L 425.83 305.59 L 426.19 305.59 L 426.27 305.58 L 426.36 305.57 L 426.37 305.47 L 426.64 305.40 L 426.72 305.40 L 426.83 305.38 L 427.60 305.38 L 427.61 305.09 L 427.82 305.09 L 428.72 305.10 L 429.31 305.09 L 429.74 305.03 L 429.76 304.91 L 429.79 304.91 L 442.88 304.72 L 442.92 304.71 L 443.07 304.70 L 443.14 304.52 L 443.19 304.52 L 443.20 304.51 L 443.76 304.46 L 443.88 303.87 L 444.05 303.75 L 444.33 302.60 L 444.51 302.59 L 444.73 302.10 L 444.86 302.16 L 444.92 302.15 L 444.98 301.52 L 445.15 301.41 L 445.17 300.98 L 445.23 300.92 L 445.37 300.88 L 445.46 300.66 L 445.58 303.24 L 445.73 303.20 L 446.06 302.16 L 446.20 301.93 L 446.32 301.70 L 447.13 301.29 L 447.81 300.86 L 448.64 300.25 L 448.85 300.19 L 449.09 300.19 L 449.34 300.13 L 454.16 299.83 L 454.55 299.80 L 500.15 298.99 L 643.71 298.96 L 644.19 298.60 L 644.52 298.55 L 644.85 298.55 L 645.35 298.22 L 645.52 297.84 L 645.65 297.13 L 645.88 296.94 L 646.21 297.01 L 646.48 296.59 L 646.54 296.59 L 646.76 296.46 L 646.81 296.46 L 647.05 295.77 L 647.26 294.71 L 647.91 294.61 L 647.93 294.50 L 648.12 293.14 L 648.73 293.09 L 648.75 292.96 L 648.87 292.87 L 649.02 291.64 L 649.69 291.58 L 649.70 291.40 L 649.85 291.32 L 650.00 290.51"/>
	</g>
	<g class="poloto_legend poloto_imgs poloto_line poloto0 poloto_stroke"><line x1="680" x2="730" y1="81.25" y2="81.25"/></g>
	<g class="poloto_legend poloto_imgs poloto_line poloto1 poloto_stroke"><line x1="680" x2="730" y1="131.25" y2="131.25"/></g>
	<g class="poloto_legend poloto_imgs poloto_line poloto2 poloto_stroke"><line x1="680" x2="730" y1="181.25" y2="181.25"/></g>
	<text class="poloto_legend poloto_text poloto_line poloto0" x="675" y="100">total</text>
	<text class="poloto_legend poloto_text poloto_line poloto1" x="675" y="150">code</text>
	<text class="poloto_legend poloto_text poloto_line poloto2" x="675" y="200">docs</text>
	<text class="poloto_text poloto_name poloto_title" x="400.00" y="37.50">Workspace lines over time</text>
	<text class="poloto_text poloto_name poloto_x" x="400.00" y="640">date (JST)</text>
	<text class="poloto_text poloto_name poloto_y" x="37.50" y="250.00" transform="rotate(-90,37.50,250.00)">lines</text>
	<text class="poloto_text poloto_ticks poloto_y">
		<tspan x="135.00" y="400.00">0</tspan>
		<tspan x="135.00" y="299.34">50K</tspan>
		<tspan x="135.00" y="198.69">100K</tspan>
	</text>
	<g class="poloto_imgs poloto_ticks poloto_y" stroke="black">
		<line x1="150.00" x2="144.00" y1="400.00" y2="400.00"/>
		<line x1="150.00" x2="144.00" y1="299.34" y2="299.34"/>
		<line x1="150.00" x2="144.00" y1="198.69" y2="198.69"/>
	</g>
	<g class="poloto_text poloto_ticks poloto_x">
		<text x="186.07" y="430.00" text-anchor="end" transform="rotate(-90 186.07 430.00)">2026-04-22 04:33</text>
		<text x="243.85" y="430.00" text-anchor="end" transform="rotate(-90 243.85 430.00)">2026-04-24 12:06</text>
		<text x="301.64" y="430.00" text-anchor="end" transform="rotate(-90 301.64 430.00)">2026-04-26 19:40</text>
		<text x="359.43" y="430.00" text-anchor="end" transform="rotate(-90 359.43 430.00)">2026-04-29 03:13</text>
		<text x="417.21" y="430.00" text-anchor="end" transform="rotate(-90 417.21 430.00)">2026-05-01 10:46</text>
		<text x="475.00" y="430.00" text-anchor="end" transform="rotate(-90 475.00 430.00)">2026-05-03 18:20</text>
		<text x="532.79" y="430.00" text-anchor="end" transform="rotate(-90 532.79 430.00)">2026-05-06 01:53</text>
		<text x="590.57" y="430.00" text-anchor="end" transform="rotate(-90 590.57 430.00)">2026-05-08 09:26</text>
		<text x="648.36" y="430.00" text-anchor="end" transform="rotate(-90 648.36 430.00)">2026-05-10 17:00</text>
	</g>
	<g class="poloto_imgs poloto_ticks poloto_x" stroke="black">
		<line x1="186.07" x2="186.07" y1="400.00" y2="405.00"/>
		<line x1="243.85" x2="243.85" y1="400.00" y2="405.00"/>
		<line x1="301.64" x2="301.64" y1="400.00" y2="405.00"/>
		<line x1="359.43" x2="359.43" y1="400.00" y2="405.00"/>
		<line x1="417.21" x2="417.21" y1="400.00" y2="405.00"/>
		<line x1="475.00" x2="475.00" y1="400.00" y2="405.00"/>
		<line x1="532.79" x2="532.79" y1="400.00" y2="405.00"/>
		<line x1="590.57" x2="590.57" y1="400.00" y2="405.00"/>
		<line x1="648.36" x2="648.36" y1="400.00" y2="405.00"/>
	</g>
	<path class="poloto_imgs poloto_ticks poloto_x" stroke="black" style="stroke-dasharray:7.223366724549913;stroke-dashoffset:-36.06569218635559;" d=" M 150.00 400.00 L 650.00 400.00"/>
	<path class="poloto_imgs poloto_ticks poloto_y" stroke="black" style="stroke-dasharray:10.065695438897873;stroke-dashoffset:-0;" d=" M 150.00 400.00 L 150.00 100.00"/>
</svg>

