<svg class="poloto" width="800" height="680" viewBox="0 0 800 680" xmlns="http://www.w3.org/2000/svg">
	<style>
.poloto{
  stroke-linecap:round;
  stroke-linejoin:round;
  font-family:Roboto,sans-serif;
  font-size:16px;
}
.poloto_background{fill:AliceBlue;}
.poloto_scatter{stroke-width:7}
.poloto_line{stroke-width:2}
.poloto_text{fill: black;}
.poloto_name{font-size:24px;dominant-baseline:auto;text-anchor:middle;}
.poloto_where{dominant-baseline:middle;text-anchor:start}
.poloto_text.poloto_legend{font-size:20px;dominant-baseline:middle;text-anchor:start;}
.poloto_text.poloto_ticks.poloto_y{dominant-baseline:middle;text-anchor:end}
.poloto_text.poloto_ticks.poloto_x{dominant-baseline:auto;text-anchor:middle}
.poloto_imgs.poloto_ticks{stroke: black;stroke-width:3;fill:none;stroke-dasharray:none}
.poloto_grid{stroke:gray;stroke-width:0.5}

.poloto0.poloto_stroke{stroke:blue;}
.poloto1.poloto_stroke{stroke:red;}
.poloto2.poloto_stroke{stroke:green;}
.poloto3.poloto_stroke{stroke:gold;}
.poloto4.poloto_stroke{stroke:aqua;}
.poloto5.poloto_stroke{stroke:lime;}
.poloto6.poloto_stroke{stroke:orange;}
.poloto7.poloto_stroke{stroke:chocolate;}
.poloto0.poloto_fill{fill:blue;}
.poloto1.poloto_fill{fill:red;}
.poloto2.poloto_fill{fill:green;}
.poloto3.poloto_fill{fill:gold;}
.poloto4.poloto_fill{fill:aqua;}
.poloto5.poloto_fill{fill:lime;}
.poloto6.poloto_fill{fill:orange;}
.poloto7.poloto_fill{fill:chocolate;}
	</style>
	<circle r="1e5" class="poloto_background" fill="white"/>
	<g id="poloto_plot0" class="poloto_plot poloto_imgs poloto_line poloto0 poloto_stroke" fill="none" stroke="black">
		<path d=" M 150.00 371.62 L 150.02 371.60 L 150.04 371.59 L 150.05 371.59 L 150.07 371.59 L 150.09 368.51 L 150.20 368.14 L 150.43 368.12 L 150.78 367.86 L 150.96 366.30 L 151.31 366.20 L 151.38 366.12 L 151.42 366.09 L 151.84 365.32 L 152.61 364.70 L 152.86 362.28 L 152.92 362.29 L 153.39 362.19 L 153.93 362.18 L 153.94 362.18 L 153.94 362.18 L 161.24 362.18 L 161.29 362.18 L 161.39 362.16 L 161.43 362.13 L 161.70 361.99 L 161.83 361.95 L 162.14 361.73 L 162.18 361.63 L 162.27 361.41 L 162.36 361.38 L 162.39 361.38 L 162.47 361.32 L 162.55 361.32 L 162.63 361.32 L 162.83 360.96 L 163.01 360.74 L 163.04 360.74 L 163.13 360.61 L 163.71 361.16 L 163.72 361.16 L 163.79 361.07 L 164.13 360.66 L 164.39 360.16 L 164.69 359.95 L 164.75 359.91 L 164.76 359.91 L 164.82 359.72 L 164.93 359.72 L 165.08 359.65 L 165.37 359.46 L 165.38 359.17 L 165.43 359.17 L 165.50 359.02 L 165.67 359.02 L 165.68 359.02 L 165.86 358.61 L 165.92 358.59 L 165.99 358.56 L 166.05 358.39 L 166.94 358.17 L 167.16 358.12 L 167.65 357.83 L 167.76 357.83 L 167.83 357.82 L 167.88 357.61 L 168.22 356.38 L 168.37 356.36 L 168.55 355.95 L 168.63 355.91 L 168.84 355.57 L 168.93 355.45 L 169.05 355.23 L 169.16 355.04 L 169.55 352.22 L 169.56 352.16 L 169.58 351.99 L 169.72 350.63 L 176.49 350.53 L 177.19 348.99 L 177.21 348.95 L 178.04 348.71 L 178.11 348.71 L 178.19 348.40 L 178.39 348.25 L 178.49 347.98 L 178.52 347.75 L 178.62 347.35 L 178.87 347.34 L 178.87 347.07 L 178.97 346.77 L 179.06 346.76 L 179.16 346.42 L 179.29 346.18 L 179.35 346.06 L 179.36 346.05 L 179.48 345.79 L 179.50 345.78 L 179.63 345.52 L 179.65 345.51 L 179.84 344.24 L 179.88 344.24 L 179.94 344.03 L 180.03 344.02 L 180.14 344.02 L 180.19 343.99 L 180.57 343.75 L 180.57 343.76 L 180.65 343.19 L 180.82 343.18 L 180.97 342.33 L 181.01 342.26 L 181.09 342.25 L 181.12 342.22 L 181.21 341.56 L 181.63 336.03 L 181.68 335.77 L 181.82 335.74 L 181.87 335.68 L 181.90 335.66 L 181.97 335.51 L 182.04 334.88 L 182.19 334.76 L 182.29 334.74 L 182.38 334.47 L 182.43 334.46 L 182.81 334.25 L 183.02 334.10 L 183.08 333.85 L 183.26 333.84 L 183.27 333.84 L 183.29 333.81 L 183.40 332.49 L 183.49 332.41 L 183.81 331.07 L 183.86 330.68 L 183.92 330.67 L 184.00 330.52 L 184.01 330.42 L 184.05 330.36 L 184.08 330.32 L 184.12 330.32 L 184.16 330.25 L 184.29 329.15 L 184.38 328.99 L 184.47 328.67 L 184.59 328.65 L 184.73 328.54 L 184.86 327.77 L 184.96 326.69 L 185.16 326.63 L 185.16 326.23 L 185.27 326.10 L 194.73 326.10 L 194.91 326.09 L 195.35 325.52 L 195.45 325.51 L 195.52 325.51 L 195.54 325.37 L 195.70 325.19 L 195.81 325.16 L 195.87 325.05 L 195.94 324.98 L 195.98 324.94 L 196.15 324.89 L 196.49 324.82 L 196.57 324.53 L 196.64 324.45 L 196.72 324.44 L 197.16 324.30 L 197.22 324.21 L 197.25 324.21 L 197.28 324.10 L 197.37 324.05 L 197.45 323.95 L 197.77 323.22 L 198.22 323.11 L 198.39 323.07 L 198.89 322.88 L 199.13 319.41 L 199.22 319.34 L 199.32 319.00 L 199.47 318.54 L 199.70 318.41 L 200.02 318.40 L 200.45 318.39 L 200.51 318.23 L 200.83 318.07 L 201.03 317.82 L 201.09 317.72 L 201.21 317.68 L 201.31 317.37 L 202.43 317.03 L 203.49 317.03 L 213.01 317.00 L 213.07 316.85 L 213.12 316.75 L 213.42 316.60 L 214.31 315.40 L 214.35 315.32 L 214.47 315.02 L 214.91 314.94 L 215.12 314.13 L 215.43 314.12 L 215.51 314.11 L 215.57 313.55 L 216.13 310.39 L 216.19 310.39 L 216.31 310.36 L 216.43 310.32 L 216.49 309.98 L 216.80 308.79 L 216.91 308.57 L 216.96 308.55 L 217.03 308.00 L 217.16 307.22 L 217.22 306.40 L 217.36 306.03 L 217.77 301.93 L 217.81 301.51 L 217.85 301.51 L 217.91 301.44 L 218.02 301.33 L 218.06 301.29 L 218.09 301.25 L 218.29 300.26 L 218.34 299.57 L 218.58 299.43 L 218.73 298.40 L 218.82 297.75 L 219.55 288.17 L 219.64 288.14 L 247.60 287.68 L 247.63 287.68 L 258.32 287.55 L 258.90 287.29 L 259.02 287.29 L 259.18 287.22 L 259.23 287.10 L 259.29 287.06 L 263.93 287.00 L 264.54 285.17 L 264.77 285.01 L 264.89 284.34 L 267.77 284.21 L 267.79 284.02 L 267.97 284.00 L 268.84 282.86 L 268.89 282.65 L 268.99 282.57 L 269.30 282.49 L 269.34 282.47 L 269.46 282.12 L 269.59 282.03 L 269.61 281.77 L 278.59 281.42 L 278.66 280.44 L 279.02 280.22 L 279.02 278.58 L 279.08 278.33 L 279.16 277.93 L 279.26 276.80 L 279.41 276.20 L 279.54 275.49 L 279.66 275.49 L 279.70 274.95 L 279.88 274.90 L 280.50 272.26 L 280.75 271.97 L 280.80 271.81 L 280.85 271.80 L 280.88 271.62 L 280.97 270.97 L 281.22 270.66 L 281.26 270.62 L 281.41 268.29 L 281.47 268.28 L 281.50 268.03 L 281.55 267.84 L 281.59 267.84 L 281.63 267.49 L 281.82 266.23 L 281.91 265.87 L 282.02 265.83 L 282.10 262.46 L 282.13 262.19 L 282.32 260.26 L 282.38 260.11 L 282.42 260.11 L 282.47 260.11 L 282.50 259.84 L 282.52 259.84 L 282.54 259.84 L 282.64 256.44 L 282.67 256.14 L 282.77 256.13 L 282.84 256.07 L 283.04 255.97 L 283.29 255.84 L 283.30 255.84 L 283.36 255.80 L 283.59 255.74 L 283.70 255.74 L 283.81 255.74 L 283.93 254.25 L 284.00 253.90 L 284.32 253.89 L 284.35 253.66 L 284.39 253.66 L 284.42 253.40 L 284.62 251.26 L 284.66 251.21 L 284.81 251.19 L 298.63 251.13 L 299.42 251.02 L 299.44 251.02 L 299.60 251.02 L 299.61 251.02 L 299.71 250.60 L 299.79 250.58 L 299.86 250.37 L 299.95 250.32 L 299.98 250.29 L 300.02 250.27 L 300.16 250.03 L 300.46 249.82 L 300.65 249.13 L 300.86 248.47 L 300.87 248.44 L 300.91 247.83 L 300.94 247.80 L 301.35 247.44 L 301.35 247.40 L 301.42 246.91 L 301.60 246.86 L 301.71 246.81 L 301.73 245.94 L 301.74 245.90 L 301.79 246.73 L 301.82 246.22 L 301.84 246.20 L 301.94 245.04 L 301.95 245.00 L 302.16 244.91 L 302.75 244.89 L 302.89 244.85 L 302.94 244.84 L 302.97 244.69 L 303.00 244.69 L 303.08 244.12 L 312.53 243.01 L 312.55 242.86 L 312.62 242.75 L 312.65 242.54 L 312.70 232.84 L 312.81 228.87 L 312.82 228.85 L 312.99 228.77 L 313.03 228.77 L 313.06 228.31 L 313.22 228.27 L 313.62 227.33 L 313.63 227.31 L 313.74 227.02 L 313.78 227.03 L 313.80 226.56 L 314.14 226.01 L 314.15 225.99 L 314.67 225.78 L 314.73 225.28 L 314.91 225.29 L 315.13 224.04 L 315.18 223.54 L 315.22 223.15 L 315.31 222.66 L 315.58 222.49 L 315.63 222.37 L 315.75 222.26 L 315.87 222.26 L 316.27 222.26 L 316.32 222.26 L 316.41 222.24 L 316.42 222.24 L 316.55 222.25 L 316.84 222.23 L 317.15 222.05 L 317.20 222.04 L 317.27 221.97 L 317.36 221.84 L 317.59 221.84 L 317.99 221.66 L 318.12 221.28 L 318.34 217.94 L 319.21 220.76 L 319.40 220.75 L 319.54 220.74 L 319.76 220.73 L 319.82 220.68 L 320.04 220.52 L 320.38 220.29 L 320.43 220.13 L 320.49 220.07 L 320.53 220.08 L 320.57 220.04 L 320.83 219.83 L 327.10 219.82 L 327.15 219.83 L 327.54 219.82 L 327.58 219.80 L 327.67 219.38 L 327.74 219.14 L 327.75 219.13 L 327.97 219.10 L 328.02 219.08 L 329.30 218.45 L 329.45 218.39 L 329.56 218.38 L 329.59 218.38 L 329.98 218.23 L 330.12 218.30 L 330.14 218.30 L 330.36 218.26 L 330.59 216.94 L 330.62 216.93 L 330.81 216.78 L 330.89 216.78 L 330.97 216.78 L 331.13 216.63 L 331.48 216.09 L 331.55 216.08 L 331.61 215.93 L 331.75 215.30 L 332.10 214.64 L 332.40 211.57 L 332.46 211.19 L 332.78 211.05 L 332.83 210.97 L 332.88 210.82 L 332.91 210.32 L 333.02 209.44 L 333.05 209.48 L 333.10 209.46 L 333.28 209.45 L 333.55 209.13 L 333.72 209.07 L 333.91 209.05 L 334.00 209.04 L 334.19 209.03 L 334.51 209.03 L 334.82 209.02 L 335.06 209.02 L 335.12 209.01 L 335.18 209.00 L 335.18 208.89 L 335.37 208.83 L 335.42 208.82 L 335.49 208.69 L 336.01 208.67 L 336.02 208.40 L 336.16 208.39 L 336.76 208.39 L 337.15 208.23 L 337.44 208.03 L 337.45 207.93 L 337.48 207.93 L 346.25 207.74 L 346.28 207.74 L 346.38 207.73 L 346.42 207.57 L 346.46 207.56 L 346.46 207.55 L 346.83 207.51 L 346.92 206.95 L 347.03 206.83 L 347.22 205.73 L 347.34 205.72 L 347.49 205.25 L 347.57 205.31 L 347.61 205.30 L 347.66 204.77 L 347.76 204.41 L 347.78 204.02 L 347.82 203.97 L 347.91 203.94 L 347.97 203.75 L 348.05 205.85 L 348.16 205.81 L 348.37 204.98 L 348.47 204.77 L 348.55 204.59 L 349.09 203.39 L 349.55 202.81 L 350.11 201.70 L 350.25 201.65 L 350.41 201.65 L 350.58 201.60 L 353.80 201.29 L 354.07 201.26 L 384.62 200.41 L 480.82 200.22 L 481.14 199.88 L 481.36 199.83 L 481.58 199.83 L 481.91 199.18 L 482.03 198.86 L 482.11 198.28 L 482.27 196.59 L 482.49 196.94 L 482.67 196.57 L 482.71 196.57 L 482.86 196.46 L 482.89 196.46 L 483.05 195.84 L 483.19 194.85 L 483.63 193.80 L 483.64 193.71 L 483.77 192.46 L 484.18 189.36 L 484.19 189.25 L 484.27 189.18 L 484.37 188.07 L 484.82 186.58 L 484.83 186.44 L 484.93 186.37 L 485.03 185.64 L 485.20 185.06 L 485.21 184.95 L 485.28 183.81 L 485.29 183.78 L 485.33 183.46 L 485.52 181.44 L 485.55 181.33 L 485.61 181.21 L 485.82 180.94 L 485.86 180.94 L 486.02 180.55 L 486.29 180.59 L 486.33 180.54 L 486.36 180.52 L 486.41 180.49 L 486.54 179.30 L 486.68 178.33 L 486.70 178.25 L 486.78 177.04 L 486.87 175.86 L 486.88 175.71 L 486.97 174.33 L 487.01 173.24 L 487.17 172.51 L 487.20 172.45 L 487.28 172.23 L 487.40 172.21 L 488.09 172.18 L 488.43 172.14 L 495.95 172.19 L 496.02 171.98 L 496.09 171.80 L 496.22 170.98 L 496.50 170.77 L 496.53 170.69 L 496.58 169.62 L 496.76 168.57 L 496.78 168.48 L 498.42 168.41 L 498.52 167.83 L 499.35 167.65 L 499.44 167.61 L 499.53 166.40 L 500.53 165.26 L 500.96 164.82 L 501.06 163.94 L 501.42 162.41 L 501.64 161.97 L 502.01 161.08 L 502.67 160.62 L 512.73 160.61 L 513.33 160.51 L 513.36 160.53 L 514.20 160.35 L 514.24 160.27 L 514.54 160.20 L 514.88 159.20 L 514.88 159.20 L 514.92 159.16 L 515.37 158.03 L 516.40 157.38 L 516.47 157.32 L 516.57 157.32 L 516.73 157.02 L 516.77 156.94 L 516.83 156.88 L 517.31 156.84 L 517.70 156.84 L 517.91 156.84 L 517.94 156.79 L 518.37 155.80 L 518.70 155.61 L 518.71 155.54 L 518.75 155.46 L 518.80 155.19 L 529.71 154.81 L 529.73 154.79 L 529.76 154.78 L 529.98 154.67 L 530.14 154.55 L 531.10 153.02 L 531.34 152.84 L 532.03 152.38 L 532.63 152.27 L 533.07 152.12 L 533.20 150.72 L 533.75 149.07 L 533.95 148.95 L 534.02 147.89 L 535.64 145.93 L 535.65 145.93 L 535.75 145.46 L 536.05 145.40 L 536.06 145.40 L 536.07 145.29 L 536.13 145.13 L 536.27 144.98 L 536.44 144.16 L 538.12 142.18 L 538.33 141.94 L 538.48 141.59 L 538.51 141.55 L 538.54 141.27 L 545.97 140.38 L 546.21 139.70 L 546.36 139.67 L 546.41 139.22 L 547.11 139.01 L 547.26 138.56 L 547.39 138.56 L 547.47 137.61 L 547.70 135.20 L 547.74 135.16 L 548.05 135.12 L 548.12 134.33 L 548.39 133.39 L 548.45 132.73 L 548.67 132.13 L 548.83 131.81 L 548.96 131.09 L 549.23 130.48 L 549.27 129.79 L 549.62 129.64 L 549.66 129.64 L 549.71 128.76 L 549.79 128.76 L 549.83 128.69 L 550.24 127.05 L 550.84 126.52 L 551.14 126.69 L 552.12 126.61 L 552.15 126.61 L 552.30 126.59 L 552.37 126.57 L 552.48 126.46 L 552.60 126.36 L 552.73 126.18 L 553.03 125.95 L 553.31 125.93 L 554.19 125.77 L 554.23 125.76 L 555.11 125.61 L 555.49 125.50 L 563.01 125.49 L 563.38 125.37 L 563.57 125.29 L 563.66 125.29 L 563.68 125.29 L 563.87 125.26 L 563.96 125.21 L 564.18 125.05 L 564.31 125.03 L 564.80 124.86 L 565.06 124.49 L 565.48 124.43 L 565.60 124.20 L 565.74 124.05 L 565.93 123.86 L 566.58 123.91 L 566.64 123.90 L 567.59 123.44 L 567.73 123.17 L 567.92 123.08 L 568.38 122.87 L 568.59 122.93 L 568.70 123.28 L 568.80 123.26 L 568.92 123.11 L 569.33 122.04 L 569.75 121.92 L 570.13 121.83 L 570.18 121.79 L 570.22 121.48 L 597.42 121.40 L 597.60 121.27 L 613.25 120.92 L 613.33 121.32 L 613.46 119.67 L 613.48 119.67 L 613.52 119.71 L 614.08 116.36 L 614.14 116.33 L 614.83 116.41 L 615.54 116.20 L 615.78 115.89 L 616.22 115.48 L 616.80 115.22 L 616.81 115.22 L 616.89 115.15 L 617.12 115.09 L 617.19 114.93 L 617.75 114.11 L 618.48 113.94 L 618.56 113.78 L 618.93 113.71 L 619.04 114.36 L 619.32 114.12 L 619.56 114.07 L 620.03 113.89 L 620.49 113.80 L 620.71 113.45 L 620.73 113.45 L 630.52 113.44 L 633.59 112.52 L 633.72 112.08 L 633.87 111.66 L 634.37 111.63 L 634.57 111.49 L 634.73 109.34 L 634.83 107.95 L 635.06 107.82 L 635.10 107.80 L 635.44 107.39 L 635.55 107.17 L 635.61 107.06 L 635.79 106.71 L 635.86 106.69 L 635.96 106.65 L 636.03 106.45 L 636.11 106.22 L 636.21 106.09 L 636.28 106.05 L 636.60 105.96 L 636.76 105.71 L 636.88 105.59 L 636.92 104.90 L 637.28 104.77 L 637.42 104.37 L 646.65 104.46 L 647.33 104.22 L 647.44 104.21 L 647.86 103.41 L 648.04 103.31 L 648.81 102.01 L 649.14 101.88 L 649.59 100.70 L 649.65 100.70 L 649.91 100.67 L 650.00 100.00"/>
	</g>
	<g id="poloto_plot1" class="poloto_plot poloto_imgs poloto_line poloto1 poloto_stroke" fill="none" stroke="black">
		<path d=" M 150.00 383.14 L 150.02 383.13 L 150.04 383.11 L 150.05 383.11 L 150.07 383.11 L 150.09 382.58 L 150.20 382.56 L 150.43 382.55 L 150.78 382.35 L 150.96 382.26 L 151.31 382.28 L 151.38 382.24 L 151.42 382.24 L 151.84 382.20 L 152.61 382.10 L 152.86 380.02 L 152.92 380.02 L 153.39 379.97 L 153.93 379.96 L 153.94 379.96 L 153.94 379.96 L 161.24 379.96 L 161.29 379.96 L 161.39 379.96 L 161.43 379.93 L 161.70 379.92 L 161.83 379.92 L 162.14 379.92 L 162.18 379.92 L 162.27 379.90 L 162.36 379.90 L 162.39 379.90 L 162.47 379.88 L 162.55 379.88 L 162.63 379.88 L 162.83 379.76 L 163.01 379.76 L 163.04 379.76 L 163.13 379.76 L 163.71 380.55 L 163.72 380.55 L 163.79 380.54 L 164.13 380.42 L 164.39 380.29 L 164.69 380.23 L 164.75 380.19 L 164.76 380.19 L 164.82 380.19 L 164.93 380.19 L 165.08 380.14 L 165.37 380.09 L 165.38 380.09 L 165.43 380.09 L 165.50 380.07 L 165.67 380.07 L 165.68 380.07 L 165.86 380.07 L 165.92 380.07 L 165.99 380.07 L 166.05 380.07 L 166.94 379.97 L 167.16 379.96 L 167.65 379.92 L 167.76 379.92 L 167.83 379.92 L 167.88 379.92 L 168.22 379.86 L 168.37 379.86 L 168.55 379.79 L 168.63 379.78 L 168.84 379.61 L 168.93 379.55 L 169.05 379.55 L 169.16 379.54 L 169.55 377.11 L 169.56 377.07 L 169.58 377.07 L 169.72 376.83 L 176.49 376.83 L 177.19 375.78 L 177.21 375.78 L 178.04 375.78 L 178.11 375.78 L 178.19 375.67 L 178.39 375.65 L 178.49 375.65 L 178.52 375.65 L 178.62 375.65 L 178.87 375.65 L 178.87 375.42 L 178.97 375.41 L 179.06 375.41 L 179.16 375.39 L 179.29 375.38 L 179.35 375.38 L 179.36 375.38 L 179.48 375.38 L 179.50 375.38 L 179.63 375.38 L 179.65 375.38 L 179.84 374.35 L 179.88 374.35 L 179.94 374.23 L 180.03 374.23 L 180.14 374.23 L 180.19 374.21 L 180.57 374.21 L 180.57 374.21 L 180.65 374.15 L 180.82 374.15 L 180.97 373.56 L 181.01 373.48 L 181.09 373.48 L 181.12 373.48 L 181.21 373.46 L 181.63 369.11 L 181.68 369.15 L 181.82 369.15 L 181.87 369.15 L 181.90 369.14 L 181.97 369.14 L 182.04 369.08 L 182.19 369.08 L 182.29 369.08 L 182.38 369.07 L 182.43 369.07 L 182.81 369.07 L 183.02 369.06 L 183.08 368.95 L 183.26 368.95 L 183.27 368.95 L 183.29 368.95 L 183.40 368.66 L 183.49 368.59 L 183.81 367.55 L 183.86 367.55 L 183.92 367.55 L 184.00 367.57 L 184.01 367.57 L 184.05 367.57 L 184.08 367.57 L 184.12 367.57 L 184.16 367.57 L 184.29 367.55 L 184.38 367.55 L 184.47 367.53 L 184.59 367.53 L 184.73 367.53 L 184.86 367.14 L 184.96 367.01 L 185.16 367.01 L 185.16 367.01 L 185.27 367.01 L 194.73 367.01 L 194.91 367.00 L 195.35 366.93 L 195.45 366.92 L 195.52 366.92 L 195.54 366.92 L 195.70 366.92 L 195.81 366.92 L 195.87 366.92 L 195.94 366.92 L 195.98 366.92 L 196.15 366.92 L 196.49 366.94 L 196.57 366.94 L 196.64 366.94 L 196.72 366.94 L 197.16 366.86 L 197.22 366.82 L 197.25 366.82 L 197.28 366.76 L 197.37 366.76 L 197.45 366.76 L 197.77 366.36 L 198.22 366.36 L 198.39 366.36 L 198.89 366.36 L 199.13 363.70 L 199.22 363.69 L 199.32 363.69 L 199.47 363.69 L 199.70 363.69 L 200.02 363.69 L 200.45 363.69 L 200.51 363.69 L 200.83 363.62 L 201.03 363.51 L 201.09 363.51 L 201.21 363.51 L 201.31 363.50 L 202.43 363.33 L 203.49 363.33 L 213.01 363.33 L 213.07 363.33 L 213.12 363.33 L 213.42 363.33 L 214.31 362.49 L 214.35 362.46 L 214.47 362.38 L 214.91 362.37 L 215.12 362.17 L 215.43 362.17 L 215.51 362.17 L 215.57 362.17 L 216.13 359.83 L 216.19 359.83 L 216.31 359.83 L 216.43 359.83 L 216.49 359.68 L 216.80 359.40 L 216.91 359.40 L 216.96 359.40 L 217.03 358.97 L 217.16 358.54 L 217.22 358.54 L 217.36 358.53 L 217.77 355.04 L 217.81 355.04 L 217.85 355.04 L 217.91 355.04 L 218.02 355.04 L 218.06 355.04 L 218.09 355.04 L 218.29 355.04 L 218.34 354.97 L 218.58 354.95 L 218.73 354.91 L 218.82 354.49 L 219.55 347.55 L 219.64 347.55 L 247.60 347.55 L 247.63 347.55 L 258.32 347.55 L 258.90 347.44 L 259.02 347.44 L 259.18 347.44 L 259.23 347.44 L 259.29 347.44 L 263.93 347.39 L 264.54 347.32 L 264.77 347.32 L 264.89 347.30 L 267.77 347.24 L 267.79 347.15 L 267.97 347.15 L 268.84 346.21 L 268.89 346.21 L 268.99 346.21 L 269.30 346.21 L 269.34 346.21 L 269.46 346.21 L 269.59 346.21 L 269.61 346.21 L 278.59 346.19 L 278.66 346.03 L 279.02 346.03 L 279.02 344.90 L 279.08 344.90 L 279.16 344.90 L 279.26 344.79 L 279.41 344.79 L 279.54 344.74 L 279.66 344.74 L 279.70 344.74 L 279.88 344.73 L 280.50 342.80 L 280.75 342.80 L 280.80 342.79 L 280.85 342.79 L 280.88 342.79 L 280.97 342.76 L 281.22 342.52 L 281.26 342.49 L 281.41 340.76 L 281.47 340.75 L 281.50 340.75 L 281.55 340.73 L 281.59 340.73 L 281.63 340.72 L 281.82 339.78 L 281.91 339.77 L 282.02 339.75 L 282.10 336.82 L 282.13 336.82 L 282.32 335.17 L 282.38 335.17 L 282.42 335.17 L 282.47 335.17 L 282.50 335.17 L 282.52 335.17 L 282.54 335.17 L 282.64 332.12 L 282.67 332.12 L 282.77 332.11 L 282.84 332.11 L 283.04 332.05 L 283.29 331.96 L 283.30 331.96 L 283.36 331.95 L 283.59 331.90 L 283.70 331.90 L 283.81 331.90 L 283.93 330.58 L 284.00 330.58 L 284.32 330.58 L 284.35 330.57 L 284.39 330.57 L 284.42 330.57 L 284.62 328.70 L 284.66 328.70 L 284.81 328.68 L 298.63 328.68 L 299.42 328.67 L 299.44 328.67 L 299.60 328.67 L 299.61 328.67 L 299.71 328.67 L 299.79 328.67 L 299.86 328.58 L 299.95 328.58 L 299.98 328.58 L 300.02 328.58 L 300.16 328.41 L 300.46 328.30 L 300.65 328.19 L 300.86 327.66 L 300.87 327.66 L 300.91 327.53 L 300.94 327.51 L 301.35 327.19 L 301.35 327.19 L 301.42 327.14 L 301.60 327.14 L 301.71 327.11 L 301.73 326.33 L 301.74 326.33 L 301.79 327.10 L 301.82 327.06 L 301.84 327.05 L 301.94 326.00 L 301.95 326.00 L 302.16 325.96 L 302.75 325.96 L 302.89 325.96 L 302.94 325.96 L 302.97 325.96 L 303.00 325.96 L 303.08 325.89 L 312.53 325.02 L 312.55 325.02 L 312.62 325.02 L 312.65 324.83 L 312.70 315.57 L 312.81 312.13 L 312.82 312.13 L 312.99 312.06 L 313.03 312.06 L 313.06 312.05 L 313.22 312.05 L 313.62 311.21 L 313.63 311.21 L 313.74 311.16 L 313.78 311.16 L 313.80 311.09 L 314.14 310.59 L 314.15 310.59 L 314.67 310.49 L 314.73 310.45 L 314.91 310.46 L 315.13 309.32 L 315.18 309.21 L 315.22 309.10 L 315.31 308.68 L 315.58 308.57 L 315.63 308.48 L 315.75 308.48 L 315.87 308.48 L 316.27 308.48 L 316.32 308.48 L 316.41 308.48 L 316.42 308.48 L 316.55 308.49 L 316.84 308.49 L 317.15 308.37 L 317.20 308.37 L 317.27 308.36 L 317.36 308.36 L 317.59 308.36 L 317.99 308.36 L 318.12 308.26 L 318.34 305.27 L 319.21 308.09 L 319.40 308.08 L 319.54 308.07 L 319.76 308.07 L 319.82 308.04 L 320.04 308.02 L 320.38 307.85 L 320.43 307.85 L 320.49 307.85 L 320.53 307.85 L 320.57 307.85 L 320.83 307.68 L 327.10 307.68 L 327.15 307.69 L 327.54 307.67 L 327.58 307.67 L 327.67 307.64 L 327.74 307.44 L 327.75 307.43 L 327.97 307.41 L 328.02 307.41 L 329.30 307.24 L 329.45 307.24 L 329.56 307.24 L 329.59 307.24 L 329.98 307.12 L 330.12 307.12 L 330.14 307.12 L 330.36 307.11 L 330.59 306.41 L 330.62 306.41 L 330.81 306.29 L 330.89 306.29 L 330.97 306.29 L 331.13 306.29 L 331.48 306.28 L 331.55 306.26 L 331.61 306.19 L 331.75 306.07 L 332.10 305.96 L 332.40 303.14 L 332.46 303.05 L 332.78 302.91 L 332.83 302.88 L 332.88 302.78 L 332.91 302.58 L 333.02 301.74 L 333.05 301.78 L 333.10 301.76 L 333.28 301.75 L 333.55 301.64 L 333.72 301.59 L 333.91 301.58 L 334.00 301.57 L 334.19 301.56 L 334.51 301.56 L 334.82 301.55 L 335.06 301.55 L 335.12 301.55 L 335.18 301.54 L 335.18 301.54 L 335.37 301.54 L 335.42 301.53 L 335.49 301.42 L 336.01 301.41 L 336.02 301.41 L 336.16 301.40 L 336.76 301.40 L 337.15 301.26 L 337.44 301.14 L 337.45 301.14 L 337.48 301.14 L 346.25 301.13 L 346.28 301.13 L 346.38 301.13 L 346.42 301.13 L 346.46 301.12 L 346.46 301.12 L 346.83 301.12 L 346.92 301.11 L 347.03 301.09 L 347.22 301.07 L 347.34 301.07 L 347.49 301.00 L 347.57 301.00 L 347.61 301.00 L 347.66 301.00 L 347.76 300.75 L 347.78 300.75 L 347.82 300.75 L 347.91 300.75 L 347.97 300.75 L 348.05 300.81 L 348.16 300.81 L 348.37 300.80 L 348.47 300.80 L 348.55 300.80 L 349.09 299.97 L 349.55 299.75 L 350.11 299.15 L 350.25 299.15 L 350.41 299.15 L 350.58 299.15 L 353.80 299.08 L 354.07 299.08 L 384.62 298.97 L 480.82 298.82 L 481.14 298.77 L 481.36 298.76 L 481.58 298.76 L 481.91 298.38 L 482.03 298.38 L 482.11 298.38 L 482.27 296.99 L 482.49 297.26 L 482.67 297.24 L 482.71 297.24 L 482.86 297.23 L 482.89 297.23 L 483.05 297.22 L 483.19 297.16 L 483.63 296.28 L 483.64 296.28 L 483.77 296.20 L 484.18 293.36 L 484.19 293.36 L 484.27 293.36 L 484.37 293.31 L 484.82 291.99 L 484.83 291.99 L 484.93 291.99 L 485.03 291.96 L 485.20 291.48 L 485.21 291.48 L 485.28 291.47 L 485.29 291.47 L 485.33 291.20 L 485.52 289.32 L 485.55 289.32 L 485.61 289.32 L 485.82 289.16 L 485.86 289.16 L 486.02 288.86 L 486.29 288.86 L 486.33 288.86 L 486.36 288.86 L 486.41 288.86 L 486.54 288.85 L 486.68 288.00 L 486.70 288.00 L 486.78 288.00 L 486.87 287.35 L 486.88 287.35 L 486.97 286.67 L 487.01 286.63 L 487.17 285.96 L 487.20 285.96 L 487.28 285.96 L 487.40 285.95 L 488.09 285.95 L 488.43 285.94 L 495.95 285.94 L 496.02 285.94 L 496.09 285.94 L 496.22 285.94 L 496.50 285.76 L 496.53 285.76 L 496.58 285.71 L 496.76 284.77 L 496.78 284.77 L 498.42 284.79 L 498.52 284.60 L 499.35 284.60 L 499.44 284.60 L 499.53 284.53 L 500.53 283.75 L 500.96 283.61 L 501.06 283.55 L 501.42 282.09 L 501.64 282.09 L 502.01 281.97 L 502.67 281.97 L 512.73 281.96 L 513.33 281.87 L 513.36 281.89 L 514.20 281.89 L 514.24 281.89 L 514.54 281.89 L 514.88 281.86 L 514.88 281.86 L 514.92 281.86 L 515.37 281.00 L 516.40 280.98 L 516.47 280.98 L 516.57 280.98 L 516.73 280.94 L 516.77 280.92 L 516.83 280.92 L 517.31 280.88 L 517.70 280.88 L 517.91 280.87 L 517.94 280.87 L 518.37 280.86 L 518.70 280.76 L 518.71 280.76 L 518.75 280.76 L 518.80 280.76 L 529.71 280.56 L 529.73 280.56 L 529.76 280.56 L 529.98 280.56 L 530.14 280.56 L 531.10 279.71 L 531.34 279.66 L 532.03 279.59 L 532.63 279.55 L 533.07 279.55 L 533.20 279.55 L 533.75 278.27 L 533.95 278.23 L 534.02 278.19 L 535.64 277.29 L 535.65 277.29 L 535.75 277.28 L 536.05 277.27 L 536.06 277.27 L 536.07 277.27 L 536.13 277.24 L 536.27 277.20 L 536.44 277.10 L 538.12 275.62 L 538.33 275.55 L 538.48 275.55 L 538.51 275.55 L 538.54 275.55 L 545.97 275.55 L 546.21 275.53 L 546.36 275.53 L 546.41 275.53 L 547.11 275.53 L 547.26 275.53 L 547.39 275.53 L 547.47 275.50 L 547.70 273.56 L 547.74 273.54 L 548.05 273.55 L 548.12 273.54 L 548.39 272.78 L 548.45 272.74 L 548.67 272.25 L 548.83 272.25 L 548.96 272.21 L 549.23 271.76 L 549.27 271.75 L 549.62 270.31 L 549.66 270.31 L 549.71 270.30 L 549.79 270.30 L 549.83 270.30 L 550.24 268.85 L 550.84 268.72 L 551.14 268.72 L 552.12 268.68 L 552.15 268.68 L 552.30 268.68 L 552.37 268.68 L 552.48 268.68 L 552.60 268.68 L 552.73 268.66 L 553.03 268.64 L 553.31 268.64 L 554.19 268.58 L 554.23 268.58 L 555.11 268.54 L 555.49 268.50 L 563.01 268.52 L 563.38 268.44 L 563.57 268.37 L 563.66 268.37 L 563.68 268.37 L 563.87 268.36 L 563.96 268.36 L 564.18 268.36 L 564.31 268.36 L 564.80 268.22 L 565.06 267.96 L 565.48 267.95 L 565.60 267.77 L 565.74 267.69 L 565.93 267.61 L 566.58 267.69 L 566.64 267.69 L 567.59 267.42 L 567.73 267.42 L 567.92 267.42 L 568.38 267.39 L 568.59 267.53 L 568.70 267.53 L 568.80 267.53 L 568.92 267.53 L 569.33 266.90 L 569.75 266.89 L 570.13 266.88 L 570.18 266.88 L 570.22 266.88 L 597.42 266.88 L 597.60 266.84 L 613.25 266.63 L 613.33 266.63 L 613.46 266.57 L 613.48 266.57 L 613.52 266.57 L 614.08 264.16 L 614.14 264.16 L 614.83 264.16 L 615.54 264.05 L 615.78 263.81 L 616.22 263.50 L 616.80 263.42 L 616.81 263.42 L 616.89 263.37 L 617.12 263.37 L 617.19 263.33 L 617.75 262.68 L 618.48 262.57 L 618.56 262.57 L 618.93 262.57 L 619.04 262.57 L 619.32 262.41 L 619.56 262.38 L 620.03 262.25 L 620.49 262.17 L 620.71 262.17 L 620.73 262.17 L 630.52 262.17 L 633.59 262.13 L 633.72 262.10 L 633.87 261.81 L 634.37 261.83 L 634.57 261.83 L 634.73 261.83 L 634.83 261.71 L 635.06 261.62 L 635.10 261.61 L 635.44 261.38 L 635.55 261.22 L 635.61 261.16 L 635.79 261.06 L 635.86 261.05 L 635.96 261.04 L 636.03 260.90 L 636.11 260.75 L 636.21 260.71 L 636.28 260.71 L 636.60 260.66 L 636.76 260.54 L 636.88 260.45 L 636.92 260.45 L 637.28 260.45 L 637.42 260.45 L 646.65 260.47 L 647.33 260.45 L 647.44 260.45 L 647.86 260.05 L 648.04 259.99 L 648.81 259.94 L 649.14 259.94 L 649.59 258.98 L 649.65 258.98 L 649.91 258.96 L 650.00 258.94"/>
	</g>
	<g id="poloto_plot2" class="poloto_plot poloto_imgs poloto_line poloto2 poloto_stroke" fill="none" stroke="black">
		<path d=" M 150.00 392.44 L 150.02 392.43 L 150.04 392.43 L 150.05 392.43 L 150.07 392.43 L 150.09 390.49 L 150.20 390.23 L 150.43 390.22 L 150.78 390.21 L 150.96 389.05 L 151.31 388.95 L 151.38 388.92 L 151.42 388.89 L 151.84 388.37 L 152.61 387.96 L 152.86 387.88 L 152.92 387.89 L 153.39 387.86 L 153.93 387.86 L 153.94 387.86 L 153.94 387.86 L 161.24 387.86 L 161.29 387.85 L 161.39 387.84 L 161.43 387.84 L 161.70 387.72 L 161.83 387.69 L 162.14 387.50 L 162.18 387.41 L 162.27 387.24 L 162.36 387.22 L 162.39 387.22 L 162.47 387.19 L 162.55 387.19 L 162.63 387.19 L 162.83 386.99 L 163.01 386.81 L 163.04 386.82 L 163.13 386.71 L 163.71 386.48 L 163.72 386.48 L 163.79 386.41 L 164.13 386.15 L 164.39 385.83 L 164.69 385.70 L 164.75 385.70 L 164.76 385.71 L 164.82 385.53 L 164.93 385.53 L 165.08 385.51 L 165.37 385.38 L 165.38 385.15 L 165.43 385.15 L 165.50 385.04 L 165.67 385.04 L 165.68 385.04 L 165.86 384.70 L 165.92 384.68 L 165.99 384.65 L 166.05 384.49 L 166.94 384.40 L 167.16 384.36 L 167.65 384.13 L 167.76 384.13 L 167.83 384.12 L 167.88 383.94 L 168.22 382.99 L 168.37 382.98 L 168.55 382.70 L 168.63 382.67 L 168.84 382.54 L 168.93 382.50 L 169.05 382.29 L 169.16 382.13 L 169.55 382.13 L 169.56 382.10 L 169.58 381.97 L 169.72 381.05 L 176.49 380.96 L 177.19 380.68 L 177.21 380.65 L 178.04 380.42 L 178.11 380.41 L 178.19 380.25 L 178.39 380.13 L 178.49 379.92 L 178.52 379.75 L 178.62 379.41 L 178.87 379.40 L 178.87 379.40 L 178.97 379.17 L 179.06 379.16 L 179.16 378.91 L 179.29 378.72 L 179.35 378.61 L 179.36 378.61 L 179.48 378.38 L 179.50 378.37 L 179.63 378.16 L 179.65 378.16 L 179.84 378.08 L 179.88 378.08 L 179.94 378.00 L 180.03 377.99 L 180.14 377.99 L 180.19 377.97 L 180.57 377.77 L 180.57 377.78 L 180.65 377.36 L 180.82 377.35 L 180.97 377.22 L 181.01 377.22 L 181.09 377.22 L 181.12 377.18 L 181.21 376.62 L 181.63 376.14 L 181.68 375.88 L 181.82 375.86 L 181.87 375.80 L 181.90 375.78 L 181.97 375.66 L 182.04 375.22 L 182.19 375.15 L 182.29 375.14 L 182.38 374.91 L 182.43 374.90 L 182.81 374.74 L 183.02 374.62 L 183.08 374.52 L 183.26 374.51 L 183.27 374.51 L 183.29 374.48 L 183.40 373.68 L 183.49 373.67 L 183.81 373.55 L 183.86 373.23 L 183.92 373.22 L 184.00 373.09 L 184.01 373.01 L 184.05 372.96 L 184.08 372.93 L 184.12 372.93 L 184.16 372.86 L 184.29 371.95 L 184.38 371.86 L 184.47 371.59 L 184.59 371.57 L 184.73 371.48 L 184.86 371.19 L 184.96 370.40 L 185.16 370.34 L 185.16 370.01 L 185.27 369.92 L 194.73 369.93 L 194.91 369.93 L 195.35 369.55 L 195.45 369.55 L 195.52 369.55 L 195.54 369.46 L 195.70 369.30 L 195.81 369.27 L 195.87 369.17 L 195.94 369.10 L 195.98 369.07 L 196.15 369.02 L 196.49 369.09 L 196.57 368.84 L 196.64 368.78 L 196.72 368.77 L 197.16 368.72 L 197.22 368.68 L 197.25 368.68 L 197.28 368.63 L 197.37 368.59 L 197.45 368.49 L 197.77 368.26 L 198.22 368.16 L 198.39 368.12 L 198.89 367.97 L 199.13 367.60 L 199.22 367.54 L 199.32 367.25 L 199.47 366.88 L 199.70 366.78 L 200.02 366.77 L 200.45 366.75 L 200.51 366.62 L 200.83 366.53 L 201.03 366.41 L 201.09 366.32 L 201.21 366.28 L 201.31 366.03 L 202.43 365.91 L 203.49 365.91 L 213.01 365.88 L 213.07 365.75 L 213.12 365.66 L 213.42 365.52 L 214.31 365.27 L 214.35 365.24 L 214.47 365.07 L 214.91 365.00 L 215.12 364.52 L 215.43 364.51 L 215.51 364.49 L 215.57 364.02 L 216.13 363.58 L 216.19 363.57 L 216.31 363.55 L 216.43 363.51 L 216.49 363.35 L 216.80 362.61 L 216.91 362.43 L 216.96 362.41 L 217.03 362.33 L 217.16 362.05 L 217.22 361.31 L 217.36 361.01 L 217.77 360.84 L 217.81 360.47 L 217.85 360.47 L 217.91 360.40 L 218.02 360.30 L 218.06 360.28 L 218.09 360.24 L 218.29 359.39 L 218.34 358.88 L 218.58 358.78 L 218.73 357.93 L 218.82 357.77 L 219.55 356.43 L 219.64 356.40 L 247.60 356.01 L 247.63 356.01 L 258.32 355.90 L 258.90 355.76 L 259.02 355.76 L 259.18 355.69 L 259.23 355.58 L 259.29 355.56 L 263.93 355.54 L 264.54 354.00 L 264.77 353.87 L 264.89 353.33 L 267.77 353.27 L 267.79 353.22 L 267.97 353.21 L 268.84 353.12 L 268.89 352.94 L 268.99 352.87 L 269.30 352.80 L 269.34 352.77 L 269.46 352.48 L 269.59 352.39 L 269.61 352.16 L 278.59 351.87 L 278.66 351.17 L 279.02 350.98 L 279.02 350.72 L 279.08 350.51 L 279.16 350.18 L 279.26 349.33 L 279.41 348.87 L 279.54 348.27 L 279.66 348.27 L 279.70 347.80 L 279.88 347.77 L 280.50 347.33 L 280.75 347.13 L 280.80 347.00 L 280.85 347.00 L 280.88 346.85 L 280.97 346.32 L 281.22 346.27 L 281.26 346.26 L 281.41 345.92 L 281.47 345.92 L 281.50 345.73 L 281.55 345.60 L 281.59 345.60 L 281.63 345.33 L 281.82 345.16 L 281.91 344.89 L 282.02 344.88 L 282.10 344.73 L 282.13 344.52 L 282.32 344.41 L 282.38 344.29 L 282.42 344.29 L 282.47 344.29 L 282.50 344.08 L 282.52 344.08 L 282.54 344.08 L 282.64 344.01 L 282.67 343.77 L 282.77 343.77 L 282.84 343.71 L 283.04 343.69 L 283.29 343.67 L 283.30 343.67 L 283.36 343.65 L 283.59 343.65 L 283.70 343.65 L 283.81 343.65 L 283.93 343.61 L 284.00 343.33 L 284.32 343.33 L 284.35 343.16 L 284.39 343.16 L 284.42 342.97 L 284.62 342.91 L 284.66 342.86 L 284.81 342.86 L 298.63 342.81 L 299.42 342.73 L 299.44 342.73 L 299.60 342.73 L 299.61 342.73 L 299.71 342.40 L 299.79 342.39 L 299.86 342.30 L 299.95 342.25 L 299.98 342.22 L 300.02 342.20 L 300.16 342.17 L 300.46 342.10 L 300.65 341.66 L 300.86 341.63 L 300.87 341.60 L 300.91 341.23 L 300.94 341.23 L 301.35 341.23 L 301.35 341.19 L 301.42 340.85 L 301.60 340.80 L 301.71 340.79 L 301.73 340.78 L 301.74 340.74 L 301.79 340.72 L 301.82 340.36 L 301.84 340.36 L 301.94 340.36 L 301.95 340.33 L 302.16 340.29 L 302.75 340.28 L 302.89 340.25 L 302.94 340.24 L 302.97 340.13 L 303.00 340.13 L 303.08 339.73 L 312.53 339.61 L 312.55 339.49 L 312.62 339.41 L 312.65 339.40 L 312.70 339.06 L 312.81 338.98 L 312.82 338.96 L 312.99 338.96 L 313.03 338.96 L 313.06 338.62 L 313.22 338.58 L 313.62 338.57 L 313.63 338.55 L 313.74 338.36 L 313.78 338.37 L 313.80 338.06 L 314.14 338.06 L 314.15 338.04 L 314.67 337.96 L 314.73 337.59 L 314.91 337.59 L 315.13 337.59 L 315.18 337.31 L 315.22 337.10 L 315.31 337.09 L 315.58 337.05 L 315.63 337.03 L 315.75 336.94 L 315.87 336.94 L 316.27 336.95 L 316.32 336.95 L 316.41 336.93 L 316.42 336.92 L 316.55 336.92 L 316.84 336.90 L 317.15 336.86 L 317.20 336.86 L 317.27 336.82 L 317.36 336.72 L 317.59 336.72 L 317.99 336.60 L 318.12 336.39 L 318.34 336.37 L 319.21 336.14 L 319.40 336.14 L 319.54 336.14 L 319.76 336.13 L 319.82 336.12 L 320.04 336.00 L 320.38 335.99 L 320.43 335.88 L 320.49 335.83 L 320.53 335.85 L 320.57 335.81 L 320.83 335.79 L 327.10 335.79 L 327.15 335.79 L 327.54 335.79 L 327.58 335.77 L 327.67 335.46 L 327.74 335.45 L 327.75 335.45 L 327.97 335.44 L 328.02 335.43 L 329.30 334.97 L 329.45 334.92 L 329.56 334.91 L 329.59 334.91 L 329.98 334.90 L 330.12 334.96 L 330.14 334.96 L 330.36 334.93 L 330.59 334.49 L 330.62 334.48 L 330.81 334.47 L 330.89 334.47 L 330.97 334.47 L 331.13 334.38 L 331.48 333.99 L 331.55 333.99 L 331.61 333.93 L 331.75 333.57 L 332.10 333.17 L 332.40 333.20 L 332.46 332.99 L 332.78 332.99 L 332.83 332.96 L 332.88 332.94 L 332.91 332.73 L 333.02 332.73 L 333.05 332.73 L 333.10 332.73 L 333.28 332.73 L 333.55 332.56 L 333.72 332.54 L 333.91 332.54 L 334.00 332.54 L 334.19 332.54 L 334.51 332.54 L 334.82 332.54 L 335.06 332.54 L 335.12 332.53 L 335.18 332.53 L 335.18 332.46 L 335.37 332.40 L 335.42 332.40 L 335.49 332.39 L 336.01 332.39 L 336.02 332.18 L 336.16 332.18 L 336.76 332.19 L 337.15 332.18 L 337.44 332.14 L 337.45 332.06 L 337.48 332.06 L 346.25 331.92 L 346.28 331.91 L 346.38 331.90 L 346.42 331.78 L 346.46 331.78 L 346.46 331.77 L 346.83 331.73 L 346.92 331.31 L 347.03 331.22 L 347.22 330.40 L 347.34 330.40 L 347.49 330.04 L 347.57 330.09 L 347.61 330.08 L 347.66 329.63 L 347.76 329.56 L 347.78 329.25 L 347.82 329.20 L 347.91 329.17 L 347.97 329.02 L 348.05 330.86 L 348.16 330.83 L 348.37 330.09 L 348.47 329.93 L 348.55 329.76 L 349.09 329.47 L 349.55 329.16 L 350.11 328.73 L 350.25 328.68 L 350.41 328.68 L 350.58 328.64 L 353.80 328.42 L 354.07 328.40 L 384.62 327.83 L 480.82 327.81 L 481.14 327.55 L 481.36 327.51 L 481.58 327.51 L 481.91 327.27 L 482.03 327.00 L 482.11 326.49 L 482.27 326.36 L 482.49 326.41 L 482.67 326.11 L 482.71 326.11 L 482.86 326.02 L 482.89 326.02 L 483.05 325.52 L 483.19 324.77 L 483.63 324.70 L 483.64 324.62 L 483.77 323.64 L 484.18 323.61 L 484.19 323.51 L 484.27 323.45 L 484.37 322.57 L 484.82 322.53 L 484.83 322.40 L 484.93 322.34 L 485.03 321.76 L 485.20 321.74 L 485.21 321.65 L 485.28 320.68 L 485.29 320.66 L 485.33 320.63 L 485.52 320.63 L 485.55 320.53 L 485.61 320.46 L 485.82 320.37 L 485.86 320.36 L 486.02 320.32 L 486.29 320.35 L 486.33 320.31 L 486.36 320.29 L 486.41 320.25 L 486.54 319.26 L 486.68 319.23 L 486.70 319.15 L 486.78 318.12 L 486.87 317.75 L 486.88 317.62 L 486.97 317.12 L 487.01 316.25 L 487.17 316.24 L 487.20 316.19 L 487.28 316.01 L 487.40 316.01 L 488.09 315.98 L 488.43 315.96 L 495.95 316.00 L 496.02 315.80 L 496.09 315.66 L 496.22 314.96 L 496.50 314.95 L 496.53 314.89 L 496.58 314.01 L 496.76 314.00 L 496.78 313.92 L 498.42 313.83 L 498.52 313.52 L 499.35 313.36 L 499.44 313.33 L 499.53 312.36 L 500.53 312.08 L 500.96 311.85 L 501.06 311.12 L 501.42 311.12 L 501.64 310.71 L 502.01 310.08 L 502.67 309.71 L 512.73 309.70 L 513.33 309.69 L 513.36 309.69 L 514.20 309.55 L 514.24 309.47 L 514.54 309.42 L 514.88 308.60 L 514.88 308.60 L 514.92 308.57 L 515.37 308.39 L 516.40 307.85 L 516.47 307.80 L 516.57 307.79 L 516.73 307.56 L 516.77 307.53 L 516.83 307.48 L 517.31 307.48 L 517.70 307.48 L 517.91 307.48 L 517.94 307.45 L 518.37 306.62 L 518.70 306.54 L 518.71 306.48 L 518.75 306.40 L 518.80 306.20 L 529.71 306.04 L 529.73 306.02 L 529.76 306.01 L 529.98 305.91 L 530.14 305.80 L 531.10 305.34 L 531.34 305.24 L 532.03 304.89 L 532.63 304.83 L 533.07 304.69 L 533.20 303.47 L 533.75 303.26 L 533.95 303.20 L 534.02 302.32 L 535.64 301.48 L 535.65 301.48 L 535.75 301.09 L 536.05 301.05 L 536.06 301.05 L 536.07 300.95 L 536.13 300.84 L 536.27 300.75 L 536.44 300.15 L 538.12 299.84 L 538.33 299.70 L 538.48 299.37 L 538.51 299.34 L 538.54 299.13 L 545.97 298.36 L 546.21 297.81 L 546.36 297.78 L 546.41 297.41 L 547.11 297.26 L 547.26 296.86 L 547.39 296.86 L 547.47 296.05 L 547.70 295.85 L 547.74 295.83 L 548.05 295.78 L 548.12 295.11 L 548.39 295.02 L 548.45 294.50 L 548.67 294.44 L 548.83 294.13 L 548.96 293.54 L 549.23 293.43 L 549.27 292.82 L 549.62 294.19 L 549.66 294.19 L 549.71 293.41 L 549.79 293.41 L 549.83 293.35 L 550.24 293.28 L 550.84 292.95 L 551.14 293.12 L 552.12 293.10 L 552.15 293.09 L 552.30 293.08 L 552.37 293.06 L 552.48 292.95 L 552.60 292.86 L 552.73 292.72 L 553.03 292.52 L 553.31 292.51 L 554.19 292.42 L 554.23 292.41 L 555.11 292.30 L 555.49 292.25 L 563.01 292.22 L 563.38 292.17 L 563.57 292.17 L 563.66 292.17 L 563.68 292.17 L 563.87 292.16 L 563.96 292.13 L 564.18 291.99 L 564.31 291.96 L 564.80 291.95 L 565.06 291.88 L 565.48 291.85 L 565.60 291.82 L 565.74 291.76 L 565.93 291.67 L 566.58 291.63 L 566.64 291.62 L 567.59 291.47 L 567.73 291.23 L 567.92 291.14 L 568.38 290.99 L 568.59 290.92 L 568.70 291.26 L 568.80 291.25 L 568.92 291.12 L 569.33 290.80 L 569.75 290.72 L 570.13 290.65 L 570.18 290.61 L 570.22 290.38 L 597.42 290.33 L 597.60 290.27 L 613.25 290.20 L 613.33 290.54 L 613.46 289.17 L 613.48 289.17 L 613.52 289.20 L 614.08 288.68 L 614.14 288.65 L 614.83 288.71 L 615.54 288.65 L 615.78 288.60 L 616.22 288.55 L 616.80 288.40 L 616.81 288.40 L 616.89 288.38 L 617.12 288.33 L 617.19 288.23 L 617.75 288.16 L 618.48 288.10 L 618.56 287.96 L 618.93 287.89 L 619.04 288.50 L 619.32 288.45 L 619.56 288.42 L 620.03 288.39 L 620.49 288.39 L 620.71 288.10 L 620.73 288.10 L 630.52 288.09 L 633.59 287.36 L 633.72 287.00 L 633.87 286.91 L 634.37 286.88 L 634.57 286.75 L 634.73 284.92 L 634.83 283.93 L 635.06 283.90 L 635.10 283.88 L 635.44 283.74 L 635.55 283.70 L 635.61 283.64 L 635.79 283.42 L 635.86 283.41 L 635.96 283.38 L 636.03 283.33 L 636.11 283.27 L 636.21 283.18 L 636.28 283.15 L 636.60 283.12 L 636.76 283.02 L 636.88 282.99 L 636.92 282.39 L 637.28 282.26 L 637.42 281.94 L 646.65 282.00 L 647.33 281.81 L 647.44 281.81 L 647.86 281.45 L 648.04 281.42 L 648.81 280.33 L 649.14 280.23 L 649.59 280.09 L 649.65 280.09 L 649.91 280.08 L 650.00 279.52"/>
	</g>
	<g class="poloto_legend poloto_imgs poloto_line poloto0 poloto_stroke"><line x1="680" x2="730" y1="81.25" y2="81.25"/></g>
	<g class="poloto_legend poloto_imgs poloto_line poloto1 poloto_stroke"><line x1="680" x2="730" y1="131.25" y2="131.25"/></g>
	<g class="poloto_legend poloto_imgs poloto_line poloto2 poloto_stroke"><line x1="680" x2="730" y1="181.25" y2="181.25"/></g>
	<text class="poloto_legend poloto_text poloto_line poloto0" x="675" y="100">total</text>
	<text class="poloto_legend poloto_text poloto_line poloto1" x="675" y="150">code</text>
	<text class="poloto_legend poloto_text poloto_line poloto2" x="675" y="200">docs</text>
	<text class="poloto_text poloto_name poloto_title" x="400.00" y="37.50">Workspace lines over time</text>
	<text class="poloto_text poloto_name poloto_x" x="400.00" y="640">date (JST)</text>
	<text class="poloto_text poloto_name poloto_y" x="37.50" y="250.00" transform="rotate(-90,37.50,250.00)">lines</text>
	<text class="poloto_text poloto_ticks poloto_y">
		<tspan x="135.00" y="400.00">0</tspan>
		<tspan x="135.00" y="328.08">50K</tspan>
		<tspan x="135.00" y="256.15">100K</tspan>
		<tspan x="135.00" y="184.23">150K</tspan>
		<tspan x="135.00" y="112.31">200K</tspan>
	</text>
	<g class="poloto_imgs poloto_ticks poloto_y" stroke="black">
		<line x1="150.00" x2="144.00" y1="400.00" y2="400.00"/>
		<line x1="150.00" x2="144.00" y1="328.08" y2="328.08"/>
		<line x1="150.00" x2="144.00" y1="256.15" y2="256.15"/>
		<line x1="150.00" x2="144.00" y1="184.23" y2="184.23"/>
		<line x1="150.00" x2="144.00" y1="112.31" y2="112.31"/>
	</g>
	<g class="poloto_text poloto_ticks poloto_x">
		<text x="212.89" y="430.00" text-anchor="end" transform="rotate(-90 212.89 430.00)">2026-04-24 12:06</text>
		<text x="309.69" y="430.00" text-anchor="end" transform="rotate(-90 309.69 430.00)">2026-04-30 07:00</text>
		<text x="406.49" y="430.00" text-anchor="end" transform="rotate(-90 406.49 430.00)">2026-05-06 01:53</text>
		<text x="503.29" y="430.00" text-anchor="end" transform="rotate(-90 503.29 430.00)">2026-05-11 20:46</text>
		<text x="600.09" y="430.00" text-anchor="end" transform="rotate(-90 600.09 430.00)">2026-05-17 15:40</text>
	</g>
	<g class="poloto_imgs poloto_ticks poloto_x" stroke="black">
		<line x1="212.89" x2="212.89" y1="400.00" y2="405.00"/>
		<line x1="309.69" x2="309.69" y1="400.00" y2="405.00"/>
		<line x1="406.49" x2="406.49" y1="400.00" y2="405.00"/>
		<line x1="503.29" x2="503.29" y1="400.00" y2="405.00"/>
		<line x1="600.09" x2="600.09" y1="400.00" y2="405.00"/>
	</g>
	<path class="poloto_imgs poloto_ticks poloto_x" stroke="black" style="stroke-dasharray:9.680133539378202;stroke-dashoffset:-62.88660033320775;" d=" M 150.00 400.00 L 650.00 400.00"/>
	<path class="poloto_imgs poloto_ticks poloto_y" stroke="black" style="stroke-dasharray:7.192347342427657;stroke-dashoffset:-0;" d=" M 150.00 400.00 L 150.00 100.00"/>
</svg>

