<svg class="poloto" width="800" height="680" viewBox="0 0 800 680" xmlns="http://www.w3.org/2000/svg">
	<style>
.poloto{
  stroke-linecap:round;
  stroke-linejoin:round;
  font-family:Roboto,sans-serif;
  font-size:16px;
}
.poloto_background{fill:AliceBlue;}
.poloto_scatter{stroke-width:7}
.poloto_line{stroke-width:2}
.poloto_text{fill: black;}
.poloto_name{font-size:24px;dominant-baseline:auto;text-anchor:middle;}
.poloto_where{dominant-baseline:middle;text-anchor:start}
.poloto_text.poloto_legend{font-size:20px;dominant-baseline:middle;text-anchor:start;}
.poloto_text.poloto_ticks.poloto_y{dominant-baseline:middle;text-anchor:end}
.poloto_text.poloto_ticks.poloto_x{dominant-baseline:auto;text-anchor:middle}
.poloto_imgs.poloto_ticks{stroke: black;stroke-width:3;fill:none;stroke-dasharray:none}
.poloto_grid{stroke:gray;stroke-width:0.5}

.poloto0.poloto_stroke{stroke:blue;}
.poloto1.poloto_stroke{stroke:red;}
.poloto2.poloto_stroke{stroke:green;}
.poloto3.poloto_stroke{stroke:gold;}
.poloto4.poloto_stroke{stroke:aqua;}
.poloto5.poloto_stroke{stroke:lime;}
.poloto6.poloto_stroke{stroke:orange;}
.poloto7.poloto_stroke{stroke:chocolate;}
.poloto0.poloto_fill{fill:blue;}
.poloto1.poloto_fill{fill:red;}
.poloto2.poloto_fill{fill:green;}
.poloto3.poloto_fill{fill:gold;}
.poloto4.poloto_fill{fill:aqua;}
.poloto5.poloto_fill{fill:lime;}
.poloto6.poloto_fill{fill:orange;}
.poloto7.poloto_fill{fill:chocolate;}
	</style>
	<circle r="1e5" class="poloto_background" fill="white"/>
	<g id="poloto_plot0" class="poloto_plot poloto_imgs poloto_line poloto0 poloto_stroke" fill="none" stroke="black">
		<path d=" M 150.00 371.05 L 150.03 371.03 L 150.04 371.01 L 150.05 371.01 L 150.07 371.01 L 150.09 367.87 L 150.20 367.49 L 150.44 367.47 L 150.80 367.21 L 150.98 365.62 L 151.35 365.52 L 151.41 365.43 L 151.46 365.40 L 151.89 364.62 L 152.69 363.99 L 152.94 361.52 L 153.00 361.52 L 153.49 361.43 L 154.04 361.42 L 154.04 361.42 L 154.05 361.42 L 161.55 361.42 L 161.60 361.41 L 161.70 361.39 L 161.74 361.36 L 162.03 361.22 L 162.16 361.18 L 162.47 360.95 L 162.52 360.85 L 162.61 360.63 L 162.70 360.60 L 162.73 360.59 L 162.81 360.53 L 162.89 360.53 L 162.97 360.54 L 163.18 360.17 L 163.37 359.95 L 163.40 359.95 L 163.49 359.81 L 164.09 360.38 L 164.10 360.38 L 164.17 360.28 L 164.51 359.86 L 164.79 359.36 L 165.10 359.14 L 165.16 359.09 L 165.17 359.10 L 165.23 358.90 L 165.34 358.90 L 165.49 358.83 L 165.79 358.64 L 165.81 358.35 L 165.86 358.35 L 165.93 358.19 L 166.10 358.19 L 166.12 358.19 L 166.29 357.77 L 166.36 357.75 L 166.43 357.72 L 166.49 357.55 L 167.41 357.32 L 167.63 357.27 L 168.14 356.97 L 168.25 356.98 L 168.32 356.96 L 168.37 356.75 L 168.72 355.50 L 168.87 355.48 L 169.06 355.06 L 169.14 355.02 L 169.36 354.67 L 169.45 354.55 L 169.57 354.33 L 169.69 354.13 L 170.09 351.26 L 170.10 351.19 L 170.12 351.01 L 170.26 349.63 L 177.22 349.53 L 177.94 347.96 L 177.96 347.92 L 178.82 347.67 L 178.89 347.67 L 178.97 347.36 L 179.17 347.20 L 179.27 346.93 L 179.30 346.69 L 179.41 346.28 L 179.66 346.28 L 179.67 346.00 L 179.76 345.69 L 179.86 345.68 L 179.96 345.34 L 180.10 345.09 L 180.15 344.96 L 180.17 344.96 L 180.29 344.69 L 180.31 344.68 L 180.44 344.41 L 180.47 344.41 L 180.66 343.11 L 180.70 343.11 L 180.77 342.89 L 180.85 342.88 L 180.97 342.88 L 181.02 342.85 L 181.41 342.61 L 181.42 342.62 L 181.49 342.04 L 181.66 342.03 L 181.82 341.16 L 181.87 341.09 L 181.94 341.08 L 181.98 341.04 L 182.07 340.38 L 182.50 334.74 L 182.55 334.47 L 182.70 334.44 L 182.75 334.37 L 182.78 334.35 L 182.85 334.21 L 182.92 333.56 L 183.07 333.43 L 183.18 333.42 L 183.27 333.14 L 183.32 333.13 L 183.71 332.92 L 183.93 332.76 L 183.99 332.51 L 184.17 332.50 L 184.19 332.50 L 184.21 332.47 L 184.32 331.12 L 184.41 331.04 L 184.74 329.67 L 184.79 329.27 L 184.85 329.26 L 184.94 329.12 L 184.95 329.01 L 184.98 328.95 L 185.01 328.91 L 185.06 328.90 L 185.10 328.83 L 185.23 327.72 L 185.32 327.55 L 185.42 327.22 L 185.54 327.20 L 185.68 327.10 L 185.82 326.31 L 185.92 325.21 L 186.12 325.15 L 186.13 324.74 L 186.25 324.60 L 195.96 324.61 L 196.15 324.59 L 196.60 324.01 L 196.70 324.00 L 196.77 324.00 L 196.79 323.85 L 196.96 323.67 L 197.07 323.64 L 197.14 323.54 L 197.20 323.46 L 197.24 323.42 L 197.42 323.37 L 197.77 323.30 L 197.86 323.00 L 197.92 322.92 L 198.01 322.91 L 198.46 322.76 L 198.52 322.68 L 198.55 322.68 L 198.58 322.57 L 198.68 322.51 L 198.75 322.41 L 199.08 321.67 L 199.55 321.55 L 199.72 321.51 L 200.24 321.32 L 200.49 317.78 L 200.57 317.70 L 200.68 317.35 L 200.83 316.89 L 201.07 316.76 L 201.40 316.75 L 201.84 316.73 L 201.90 316.58 L 202.23 316.41 L 202.43 316.16 L 202.50 316.05 L 202.62 316.01 L 202.72 315.70 L 203.87 315.35 L 204.96 315.35 L 214.74 315.32 L 214.81 315.16 L 214.86 315.07 L 215.17 314.91 L 216.08 313.69 L 216.12 313.61 L 216.25 313.30 L 216.70 313.22 L 216.91 312.39 L 217.23 312.38 L 217.31 312.37 L 217.38 311.80 L 217.95 308.58 L 218.02 308.57 L 218.13 308.55 L 218.26 308.50 L 218.32 308.15 L 218.63 306.94 L 218.75 306.71 L 218.80 306.70 L 218.87 306.13 L 219.01 305.34 L 219.07 304.50 L 219.21 304.13 L 219.64 299.94 L 219.68 299.52 L 219.72 299.52 L 219.78 299.44 L 219.89 299.33 L 219.93 299.29 L 219.97 299.25 L 220.17 298.24 L 220.22 297.54 L 220.47 297.39 L 220.62 296.34 L 220.71 295.67 L 221.47 285.90 L 221.56 285.88 L 250.29 285.41 L 250.32 285.41 L 261.30 285.28 L 261.90 285.01 L 262.02 285.01 L 262.18 284.93 L 262.24 284.81 L 262.30 284.78 L 267.07 284.71 L 267.69 282.85 L 267.93 282.68 L 268.05 282.00 L 271.02 281.86 L 271.04 281.67 L 271.22 281.65 L 272.11 280.48 L 272.16 280.27 L 272.27 280.20 L 272.58 280.11 L 272.62 280.08 L 272.75 279.73 L 272.88 279.64 L 272.90 279.37 L 282.13 279.02 L 282.20 278.02 L 282.57 277.79 L 282.58 276.12 L 282.64 275.87 L 282.72 275.46 L 282.82 274.30 L 282.98 273.69 L 283.11 272.97 L 283.23 272.97 L 283.27 272.42 L 283.46 272.37 L 284.10 269.67 L 284.36 269.38 L 284.40 269.21 L 284.45 269.21 L 284.49 269.02 L 284.58 268.36 L 284.83 268.04 L 284.87 268.00 L 285.03 265.62 L 285.09 265.61 L 285.12 265.36 L 285.18 265.16 L 285.22 265.16 L 285.25 264.81 L 285.45 263.52 L 285.54 263.15 L 285.65 263.11 L 285.73 259.67 L 285.77 259.39 L 285.97 257.43 L 286.02 257.28 L 286.06 257.28 L 286.11 257.27 L 286.15 257.00 L 286.17 257.00 L 286.19 257.00 L 286.29 253.53 L 286.32 253.23 L 286.42 253.21 L 286.49 253.15 L 286.70 253.05 L 286.96 252.92 L 286.97 252.92 L 287.04 252.88 L 287.27 252.81 L 287.39 252.81 L 287.50 252.81 L 287.62 251.30 L 287.70 250.94 L 288.02 250.93 L 288.05 250.70 L 288.09 250.69 L 288.12 250.43 L 288.33 248.25 L 288.37 248.19 L 288.52 248.18 L 302.72 248.12 L 303.53 248.01 L 303.56 248.01 L 303.72 248.00 L 303.73 248.01 L 303.84 247.57 L 303.91 247.55 L 303.98 247.34 L 304.08 247.28 L 304.11 247.25 L 304.15 247.24 L 304.30 246.99 L 304.61 246.78 L 304.80 246.07 L 305.02 245.40 L 305.03 245.37 L 305.06 244.74 L 305.09 244.72 L 305.51 244.35 L 305.52 244.31 L 305.59 243.81 L 305.77 243.76 L 305.89 243.71 L 305.91 242.82 L 305.92 242.78 L 305.97 243.62 L 306.00 243.10 L 306.02 243.08 L 306.12 241.90 L 306.13 241.87 L 306.35 241.77 L 306.96 241.75 L 307.10 241.71 L 307.15 241.70 L 307.18 241.54 L 307.21 241.54 L 307.30 240.96 L 317.01 239.83 L 317.02 239.67 L 317.10 239.56 L 317.13 239.35 L 317.18 229.45 L 317.29 225.41 L 317.30 225.38 L 317.48 225.30 L 317.52 225.30 L 317.55 224.84 L 317.71 224.79 L 318.13 223.83 L 318.14 223.81 L 318.25 223.52 L 318.29 223.53 L 318.31 223.05 L 318.66 222.49 L 318.67 222.46 L 319.20 222.25 L 319.27 221.74 L 319.45 221.75 L 319.67 220.47 L 319.73 219.97 L 319.77 219.56 L 319.87 219.07 L 320.14 218.90 L 320.19 218.77 L 320.31 218.66 L 320.44 218.66 L 320.85 218.66 L 320.90 218.66 L 320.99 218.64 L 321.00 218.64 L 321.13 218.65 L 321.44 218.63 L 321.76 218.44 L 321.81 218.44 L 321.88 218.37 L 321.97 218.23 L 322.21 218.23 L 322.62 218.05 L 322.75 217.66 L 322.98 214.25 L 323.87 217.13 L 324.06 217.12 L 324.21 217.10 L 324.43 217.10 L 324.50 217.04 L 324.72 216.88 L 325.07 216.65 L 325.12 216.49 L 325.19 216.43 L 325.23 216.44 L 325.26 216.39 L 325.54 216.18 L 331.97 216.17 L 332.03 216.18 L 332.43 216.17 L 332.47 216.15 L 332.56 215.72 L 332.64 215.47 L 332.65 215.47 L 332.87 215.43 L 332.92 215.41 L 334.24 214.77 L 334.39 214.72 L 334.51 214.70 L 334.53 214.70 L 334.94 214.55 L 335.08 214.62 L 335.11 214.62 L 335.32 214.57 L 335.56 213.23 L 335.59 213.22 L 335.79 213.06 L 335.88 213.06 L 335.95 213.06 L 336.12 212.91 L 336.48 212.37 L 336.54 212.35 L 336.61 212.20 L 336.76 211.56 L 337.11 210.89 L 337.43 207.75 L 337.49 207.37 L 337.81 207.22 L 337.87 207.14 L 337.92 206.99 L 337.95 206.48 L 338.06 205.58 L 338.09 205.62 L 338.14 205.60 L 338.32 205.59 L 338.60 205.26 L 338.78 205.20 L 338.98 205.19 L 339.07 205.17 L 339.26 205.16 L 339.59 205.16 L 339.91 205.16 L 340.16 205.15 L 340.22 205.14 L 340.28 205.13 L 340.28 205.02 L 340.47 204.96 L 340.53 204.95 L 340.60 204.81 L 341.13 204.79 L 341.14 204.52 L 341.28 204.51 L 341.90 204.51 L 342.31 204.35 L 342.61 204.15 L 342.62 204.04 L 342.64 204.04 L 351.65 203.85 L 351.68 203.84 L 351.78 203.83 L 351.83 203.68 L 351.87 203.66 L 351.87 203.65 L 352.26 203.61 L 352.34 203.04 L 352.46 202.91 L 352.65 201.79 L 352.77 201.78 L 352.92 201.31 L 353.01 201.36 L 353.05 201.36 L 353.10 200.82 L 353.21 200.45 L 353.23 200.05 L 353.27 200.00 L 353.36 199.96 L 353.43 199.78 L 353.51 201.92 L 353.62 201.88 L 353.84 201.02 L 353.93 200.81 L 354.02 200.64 L 354.57 199.41 L 355.05 198.82 L 355.62 197.69 L 355.76 197.63 L 355.92 197.63 L 356.10 197.58 L 359.41 197.26 L 359.69 197.23 L 391.08 196.37 L 489.93 196.17 L 490.25 195.82 L 490.48 195.77 L 490.71 195.77 L 491.05 195.11 L 491.17 194.79 L 491.26 194.19 L 491.42 192.47 L 491.65 192.82 L 491.83 192.45 L 491.87 192.44 L 492.02 192.33 L 492.06 192.33 L 492.22 191.70 L 492.37 190.69 L 492.81 189.62 L 492.83 189.53 L 492.96 188.25 L 493.38 185.09 L 493.39 184.98 L 493.48 184.91 L 493.58 183.78 L 494.04 182.26 L 494.05 182.12 L 494.15 182.05 L 494.26 181.30 L 494.43 180.70 L 494.44 180.59 L 494.51 179.43 L 494.53 179.40 L 494.57 179.08 L 494.76 177.02 L 494.79 176.90 L 494.85 176.78 L 495.06 176.51 L 495.11 176.50 L 495.27 176.10 L 495.55 176.15 L 495.59 176.10 L 495.62 176.07 L 495.67 176.04 L 495.81 174.83 L 495.96 173.84 L 495.98 173.76 L 496.06 172.52 L 496.14 171.32 L 496.16 171.17 L 496.25 169.76 L 496.29 168.65 L 496.46 167.90 L 496.48 167.84 L 496.57 167.61 L 496.69 167.59 L 497.40 167.56 L 497.75 167.53 L 505.47 167.57 L 505.55 167.36 L 505.63 167.17 L 505.76 166.34 L 506.05 166.13 L 506.07 166.05 L 506.12 164.95 L 506.31 163.89 L 506.33 163.79 L 508.02 163.72 L 508.12 163.12 L 508.97 162.94 L 509.06 162.90 L 509.16 161.66 L 510.18 160.50 L 510.62 160.06 L 510.73 159.15 L 511.10 157.60 L 511.33 157.15 L 511.71 156.24 L 512.38 155.77 L 522.72 155.76 L 523.34 155.66 L 523.36 155.68 L 524.23 155.50 L 524.27 155.41 L 524.58 155.34 L 524.93 154.33 L 524.93 154.33 L 524.97 154.29 L 525.43 153.13 L 526.49 152.47 L 526.56 152.41 L 526.67 152.40 L 526.83 152.09 L 526.87 152.01 L 526.94 151.96 L 527.43 151.91 L 527.83 151.91 L 528.04 151.91 L 528.07 151.87 L 528.51 150.86 L 528.85 150.66 L 528.87 150.59 L 528.91 150.51 L 528.95 150.23 L 540.17 149.85 L 540.19 149.83 L 540.22 149.81 L 540.44 149.70 L 540.61 149.57 L 541.60 148.02 L 541.84 147.83 L 542.55 147.36 L 543.17 147.25 L 543.62 147.10 L 543.75 145.67 L 544.32 143.99 L 544.53 143.87 L 544.60 142.78 L 546.26 140.79 L 546.28 140.79 L 546.37 140.30 L 546.68 140.25 L 546.69 140.25 L 546.70 140.13 L 546.76 139.97 L 546.90 139.81 L 547.08 138.98 L 548.81 136.96 L 549.03 136.72 L 549.18 136.35 L 549.21 136.31 L 549.24 136.03 L 556.88 135.12 L 557.13 134.42 L 557.27 134.39 L 557.33 133.93 L 558.05 133.72 L 558.20 133.26 L 558.33 133.26 L 558.41 132.29 L 558.65 129.83 L 558.69 129.79 L 559.01 129.75 L 559.09 128.95 L 559.36 127.99 L 559.42 127.32 L 559.65 126.71 L 559.81 126.38 L 559.94 125.64 L 560.23 125.02 L 560.26 124.32 L 560.63 124.16 L 560.66 124.16 L 560.72 123.26 L 560.80 123.26 L 560.84 123.19 L 561.26 121.52 L 561.88 120.98 L 562.19 121.16 L 563.20 121.08 L 563.22 121.07 L 563.38 121.05 L 563.45 121.03 L 563.56 120.92 L 563.69 120.82 L 563.82 120.64 L 564.12 120.40 L 564.41 120.38 L 565.32 120.21 L 565.36 120.20 L 566.26 120.05 L 566.65 119.94 L 574.38 119.93 L 574.77 119.80 L 574.96 119.72 L 575.05 119.72 L 575.07 119.72 L 575.27 119.70 L 575.36 119.64 L 575.58 119.48 L 575.72 119.45 L 576.22 119.28 L 576.49 118.91 L 576.92 118.85 L 577.04 118.61 L 577.19 118.46 L 577.38 118.27 L 578.05 118.32 L 578.11 118.30 L 579.09 117.84 L 579.24 117.56 L 579.43 117.47 L 579.90 117.25 L 580.12 117.31 L 580.24 117.68 L 580.33 117.66 L 580.46 117.51 L 580.88 116.41 L 581.31 116.29 L 581.70 116.20 L 581.75 116.15 L 581.79 115.84 L 609.75 115.76 L 609.93 115.62 L 626.01 115.27 L 626.09 115.67 L 626.22 113.99 L 626.24 113.99 L 626.29 114.03 L 626.86 110.62 L 626.92 110.59 L 627.63 110.66 L 628.36 110.45 L 628.61 110.13 L 629.06 109.72 L 629.66 109.45 L 629.67 109.45 L 629.75 109.38 L 629.98 109.32 L 630.06 109.15 L 630.64 108.32 L 631.39 108.15 L 631.47 107.99 L 631.85 107.91 L 631.96 108.57 L 632.25 108.33 L 632.49 108.27 L 632.98 108.10 L 633.44 108.01 L 633.68 107.64 L 633.69 107.64 L 643.75 107.63 L 646.91 106.70 L 647.04 106.25 L 647.20 105.82 L 647.70 105.79 L 647.92 105.65 L 648.08 103.45 L 648.18 102.04 L 648.42 101.90 L 648.46 101.88 L 648.81 101.46 L 648.92 101.24 L 648.99 101.13 L 649.17 100.77 L 649.24 100.75 L 649.34 100.71 L 649.41 100.50 L 649.50 100.26 L 649.60 100.14 L 649.67 100.10 L 650.00 100.00"/>
	</g>
	<g id="poloto_plot1" class="poloto_plot poloto_imgs poloto_line poloto1 poloto_stroke" fill="none" stroke="black">
		<path d=" M 150.00 382.80 L 150.03 382.78 L 150.04 382.77 L 150.05 382.77 L 150.07 382.77 L 150.09 382.23 L 150.20 382.21 L 150.44 382.20 L 150.80 381.99 L 150.98 381.90 L 151.35 381.92 L 151.41 381.88 L 151.46 381.88 L 151.89 381.84 L 152.69 381.74 L 152.94 379.61 L 153.00 379.61 L 153.49 379.56 L 154.04 379.55 L 154.04 379.55 L 154.05 379.55 L 161.55 379.55 L 161.60 379.55 L 161.70 379.55 L 161.74 379.52 L 162.03 379.51 L 162.16 379.51 L 162.47 379.51 L 162.52 379.51 L 162.61 379.50 L 162.70 379.50 L 162.73 379.50 L 162.81 379.47 L 162.89 379.47 L 162.97 379.47 L 163.18 379.35 L 163.37 379.35 L 163.40 379.35 L 163.49 379.35 L 164.09 380.15 L 164.10 380.15 L 164.17 380.14 L 164.51 380.02 L 164.79 379.89 L 165.10 379.83 L 165.16 379.79 L 165.17 379.79 L 165.23 379.79 L 165.34 379.79 L 165.49 379.74 L 165.79 379.69 L 165.81 379.69 L 165.86 379.69 L 165.93 379.67 L 166.10 379.67 L 166.12 379.67 L 166.29 379.66 L 166.36 379.66 L 166.43 379.66 L 166.49 379.66 L 167.41 379.57 L 167.63 379.56 L 168.14 379.52 L 168.25 379.52 L 168.32 379.52 L 168.37 379.52 L 168.72 379.45 L 168.87 379.45 L 169.06 379.38 L 169.14 379.37 L 169.36 379.20 L 169.45 379.13 L 169.57 379.13 L 169.69 379.13 L 170.09 376.64 L 170.10 376.60 L 170.12 376.60 L 170.26 376.36 L 177.22 376.36 L 177.94 375.29 L 177.96 375.29 L 178.82 375.29 L 178.89 375.29 L 178.97 375.17 L 179.17 375.16 L 179.27 375.16 L 179.30 375.16 L 179.41 375.16 L 179.66 375.16 L 179.67 374.92 L 179.76 374.92 L 179.86 374.92 L 179.96 374.89 L 180.10 374.88 L 180.15 374.88 L 180.17 374.88 L 180.29 374.88 L 180.31 374.88 L 180.44 374.88 L 180.47 374.88 L 180.66 373.83 L 180.70 373.83 L 180.77 373.70 L 180.85 373.70 L 180.97 373.70 L 181.02 373.69 L 181.41 373.69 L 181.42 373.69 L 181.49 373.62 L 181.66 373.62 L 181.82 373.02 L 181.87 372.94 L 181.94 372.94 L 181.98 372.94 L 182.07 372.93 L 182.50 368.49 L 182.55 368.52 L 182.70 368.52 L 182.75 368.52 L 182.78 368.52 L 182.85 368.52 L 182.92 368.46 L 183.07 368.46 L 183.18 368.46 L 183.27 368.45 L 183.32 368.45 L 183.71 368.44 L 183.93 368.44 L 183.99 368.33 L 184.17 368.33 L 184.19 368.33 L 184.21 368.33 L 184.32 368.03 L 184.41 367.95 L 184.74 366.90 L 184.79 366.90 L 184.85 366.90 L 184.94 366.91 L 184.95 366.91 L 184.98 366.91 L 185.01 366.91 L 185.06 366.91 L 185.10 366.91 L 185.23 366.89 L 185.32 366.89 L 185.42 366.88 L 185.54 366.88 L 185.68 366.87 L 185.82 366.48 L 185.92 366.34 L 186.12 366.34 L 186.13 366.34 L 186.25 366.34 L 195.96 366.34 L 196.15 366.33 L 196.60 366.26 L 196.70 366.25 L 196.77 366.25 L 196.79 366.25 L 196.96 366.25 L 197.07 366.25 L 197.14 366.25 L 197.20 366.25 L 197.24 366.25 L 197.42 366.25 L 197.77 366.27 L 197.86 366.27 L 197.92 366.27 L 198.01 366.27 L 198.46 366.18 L 198.52 366.15 L 198.55 366.15 L 198.58 366.09 L 198.68 366.09 L 198.75 366.08 L 199.08 365.68 L 199.55 365.68 L 199.72 365.68 L 200.24 365.68 L 200.49 362.96 L 200.57 362.96 L 200.68 362.96 L 200.83 362.95 L 201.07 362.95 L 201.40 362.95 L 201.84 362.95 L 201.90 362.95 L 202.23 362.89 L 202.43 362.77 L 202.50 362.77 L 202.62 362.77 L 202.72 362.76 L 203.87 362.59 L 204.96 362.59 L 214.74 362.58 L 214.81 362.58 L 214.86 362.58 L 215.17 362.58 L 216.08 361.73 L 216.12 361.70 L 216.25 361.61 L 216.70 361.61 L 216.91 361.40 L 217.23 361.40 L 217.31 361.40 L 217.38 361.40 L 217.95 359.02 L 218.02 359.02 L 218.13 359.02 L 218.26 359.02 L 218.32 358.86 L 218.63 358.58 L 218.75 358.58 L 218.80 358.58 L 218.87 358.14 L 219.01 357.70 L 219.07 357.70 L 219.21 357.69 L 219.64 354.13 L 219.68 354.13 L 219.72 354.13 L 219.78 354.13 L 219.89 354.13 L 219.93 354.13 L 219.97 354.13 L 220.17 354.13 L 220.22 354.06 L 220.47 354.04 L 220.62 353.99 L 220.71 353.56 L 221.47 346.49 L 221.56 346.49 L 250.29 346.49 L 250.32 346.49 L 261.30 346.49 L 261.90 346.38 L 262.02 346.38 L 262.18 346.38 L 262.24 346.38 L 262.30 346.38 L 267.07 346.32 L 267.69 346.26 L 267.93 346.26 L 268.05 346.23 L 271.02 346.17 L 271.04 346.08 L 271.22 346.08 L 272.11 345.12 L 272.16 345.12 L 272.27 345.12 L 272.58 345.12 L 272.62 345.12 L 272.75 345.12 L 272.88 345.12 L 272.90 345.12 L 282.13 345.10 L 282.20 344.94 L 282.57 344.94 L 282.58 343.78 L 282.64 343.78 L 282.72 343.78 L 282.82 343.67 L 282.98 343.67 L 283.11 343.62 L 283.23 343.62 L 283.27 343.62 L 283.46 343.61 L 284.10 341.64 L 284.36 341.64 L 284.40 341.63 L 284.45 341.63 L 284.49 341.63 L 284.58 341.60 L 284.83 341.36 L 284.87 341.32 L 285.03 339.56 L 285.09 339.55 L 285.12 339.55 L 285.18 339.53 L 285.22 339.53 L 285.25 339.52 L 285.45 338.56 L 285.54 338.55 L 285.65 338.53 L 285.73 335.54 L 285.77 335.54 L 285.97 333.86 L 286.02 333.86 L 286.06 333.86 L 286.11 333.86 L 286.15 333.86 L 286.17 333.86 L 286.19 333.86 L 286.29 330.75 L 286.32 330.74 L 286.42 330.73 L 286.49 330.73 L 286.70 330.67 L 286.96 330.59 L 286.97 330.59 L 287.04 330.57 L 287.27 330.52 L 287.39 330.52 L 287.50 330.52 L 287.62 329.18 L 287.70 329.18 L 288.02 329.17 L 288.05 329.17 L 288.09 329.17 L 288.12 329.17 L 288.33 327.25 L 288.37 327.25 L 288.52 327.24 L 302.72 327.24 L 303.53 327.23 L 303.56 327.23 L 303.72 327.23 L 303.73 327.23 L 303.84 327.23 L 303.91 327.23 L 303.98 327.13 L 304.08 327.13 L 304.11 327.13 L 304.15 327.13 L 304.30 326.96 L 304.61 326.85 L 304.80 326.74 L 305.02 326.20 L 305.03 326.20 L 305.06 326.06 L 305.09 326.04 L 305.51 325.71 L 305.52 325.71 L 305.59 325.66 L 305.77 325.66 L 305.89 325.63 L 305.91 324.84 L 305.92 324.84 L 305.97 325.62 L 306.00 325.58 L 306.02 325.57 L 306.12 324.50 L 306.13 324.50 L 306.35 324.46 L 306.96 324.46 L 307.10 324.46 L 307.15 324.46 L 307.18 324.46 L 307.21 324.46 L 307.30 324.39 L 317.01 323.50 L 317.02 323.50 L 317.10 323.50 L 317.13 323.31 L 317.18 313.86 L 317.29 310.35 L 317.30 310.35 L 317.48 310.28 L 317.52 310.28 L 317.55 310.27 L 317.71 310.27 L 318.13 309.41 L 318.14 309.41 L 318.25 309.36 L 318.29 309.36 L 318.31 309.29 L 318.66 308.78 L 318.67 308.78 L 319.20 308.67 L 319.27 308.64 L 319.45 308.65 L 319.67 307.49 L 319.73 307.37 L 319.77 307.26 L 319.87 306.83 L 320.14 306.72 L 320.19 306.62 L 320.31 306.62 L 320.44 306.62 L 320.85 306.62 L 320.90 306.62 L 320.99 306.62 L 321.00 306.62 L 321.13 306.64 L 321.44 306.64 L 321.76 306.52 L 321.81 306.52 L 321.88 306.50 L 321.97 306.50 L 322.21 306.50 L 322.62 306.50 L 322.75 306.40 L 322.98 303.35 L 323.87 306.23 L 324.06 306.21 L 324.21 306.21 L 324.43 306.21 L 324.50 306.17 L 324.72 306.15 L 325.07 305.98 L 325.12 305.98 L 325.19 305.98 L 325.23 305.98 L 325.26 305.98 L 325.54 305.81 L 331.97 305.81 L 332.03 305.82 L 332.43 305.80 L 332.47 305.80 L 332.56 305.77 L 332.64 305.56 L 332.65 305.56 L 332.87 305.54 L 332.92 305.54 L 334.24 305.36 L 334.39 305.36 L 334.51 305.36 L 334.53 305.36 L 334.94 305.24 L 335.08 305.24 L 335.11 305.24 L 335.32 305.23 L 335.56 304.51 L 335.59 304.51 L 335.79 304.39 L 335.88 304.39 L 335.95 304.39 L 336.12 304.39 L 336.48 304.38 L 336.54 304.36 L 336.61 304.29 L 336.76 304.17 L 337.11 304.06 L 337.43 301.18 L 337.49 301.08 L 337.81 300.95 L 337.87 300.91 L 337.92 300.81 L 337.95 300.61 L 338.06 299.75 L 338.09 299.79 L 338.14 299.77 L 338.32 299.76 L 338.60 299.65 L 338.78 299.60 L 338.98 299.59 L 339.07 299.58 L 339.26 299.57 L 339.59 299.57 L 339.91 299.56 L 340.16 299.56 L 340.22 299.55 L 340.28 299.55 L 340.28 299.54 L 340.47 299.54 L 340.53 299.53 L 340.60 299.42 L 341.13 299.41 L 341.14 299.41 L 341.28 299.40 L 341.90 299.40 L 342.31 299.26 L 342.61 299.13 L 342.62 299.13 L 342.64 299.13 L 351.65 299.13 L 351.68 299.13 L 351.78 299.13 L 351.83 299.13 L 351.87 299.12 L 351.87 299.12 L 352.26 299.12 L 352.34 299.10 L 352.46 299.09 L 352.65 299.07 L 352.77 299.07 L 352.92 299.00 L 353.01 299.00 L 353.05 299.00 L 353.10 299.00 L 353.21 298.73 L 353.23 298.73 L 353.27 298.73 L 353.36 298.73 L 353.43 298.73 L 353.51 298.80 L 353.62 298.80 L 353.84 298.79 L 353.93 298.79 L 354.02 298.79 L 354.57 297.94 L 355.05 297.71 L 355.62 297.11 L 355.76 297.11 L 355.92 297.11 L 356.10 297.11 L 359.41 297.04 L 359.69 297.03 L 391.08 296.93 L 489.93 296.77 L 490.25 296.72 L 490.48 296.71 L 490.71 296.71 L 491.05 296.32 L 491.17 296.32 L 491.26 296.32 L 491.42 294.91 L 491.65 295.18 L 491.83 295.16 L 491.87 295.16 L 492.02 295.15 L 492.06 295.15 L 492.22 295.14 L 492.37 295.08 L 492.81 294.18 L 492.83 294.18 L 492.96 294.10 L 493.38 291.20 L 493.39 291.20 L 493.48 291.20 L 493.58 291.15 L 494.04 289.80 L 494.05 289.80 L 494.15 289.80 L 494.26 289.77 L 494.43 289.28 L 494.44 289.28 L 494.51 289.27 L 494.53 289.27 L 494.57 289.00 L 494.76 287.08 L 494.79 287.08 L 494.85 287.08 L 495.06 286.92 L 495.11 286.92 L 495.27 286.60 L 495.55 286.60 L 495.59 286.60 L 495.62 286.60 L 495.67 286.60 L 495.81 286.59 L 495.96 285.73 L 495.98 285.73 L 496.06 285.73 L 496.14 285.07 L 496.16 285.07 L 496.25 284.38 L 496.29 284.33 L 496.46 283.65 L 496.48 283.65 L 496.57 283.65 L 496.69 283.64 L 497.40 283.64 L 497.75 283.63 L 505.47 283.63 L 505.55 283.63 L 505.63 283.63 L 505.76 283.63 L 506.05 283.45 L 506.07 283.45 L 506.12 283.39 L 506.31 282.43 L 506.33 282.43 L 508.02 282.45 L 508.12 282.26 L 508.97 282.26 L 509.06 282.26 L 509.16 282.19 L 510.18 281.40 L 510.62 281.25 L 510.73 281.20 L 511.10 279.70 L 511.33 279.70 L 511.71 279.58 L 512.38 279.58 L 522.72 279.57 L 523.34 279.48 L 523.36 279.50 L 524.23 279.50 L 524.27 279.50 L 524.58 279.50 L 524.93 279.47 L 524.93 279.47 L 524.97 279.47 L 525.43 278.59 L 526.49 278.57 L 526.56 278.57 L 526.67 278.57 L 526.83 278.53 L 526.87 278.50 L 526.94 278.50 L 527.43 278.46 L 527.83 278.46 L 528.04 278.46 L 528.07 278.46 L 528.51 278.44 L 528.85 278.34 L 528.87 278.34 L 528.91 278.34 L 528.95 278.34 L 540.17 278.14 L 540.19 278.14 L 540.22 278.14 L 540.44 278.14 L 540.61 278.14 L 541.60 277.27 L 541.84 277.22 L 542.55 277.15 L 543.17 277.11 L 543.62 277.11 L 543.75 277.11 L 544.32 275.80 L 544.53 275.77 L 544.60 275.72 L 546.26 274.80 L 546.28 274.80 L 546.37 274.79 L 546.68 274.78 L 546.69 274.78 L 546.70 274.78 L 546.76 274.75 L 546.90 274.72 L 547.08 274.61 L 548.81 273.10 L 549.03 273.02 L 549.18 273.02 L 549.21 273.02 L 549.24 273.02 L 556.88 273.02 L 557.13 273.01 L 557.27 273.01 L 557.33 273.01 L 558.05 273.01 L 558.20 273.01 L 558.33 273.01 L 558.41 272.98 L 558.65 271.00 L 558.69 270.98 L 559.01 270.99 L 559.09 270.98 L 559.36 270.21 L 559.42 270.17 L 559.65 269.66 L 559.81 269.66 L 559.94 269.62 L 560.23 269.16 L 560.26 269.15 L 560.63 267.68 L 560.66 267.68 L 560.72 267.67 L 560.80 267.67 L 560.84 267.67 L 561.26 266.19 L 561.88 266.06 L 562.19 266.06 L 563.20 266.02 L 563.22 266.02 L 563.38 266.02 L 563.45 266.02 L 563.56 266.02 L 563.69 266.02 L 563.82 266.00 L 564.12 265.98 L 564.41 265.98 L 565.32 265.92 L 565.36 265.92 L 566.26 265.88 L 566.65 265.84 L 574.38 265.85 L 574.77 265.78 L 574.96 265.70 L 575.05 265.70 L 575.07 265.70 L 575.27 265.70 L 575.36 265.70 L 575.58 265.70 L 575.72 265.69 L 576.22 265.56 L 576.49 265.29 L 576.92 265.27 L 577.04 265.09 L 577.19 265.01 L 577.38 264.93 L 578.05 265.01 L 578.11 265.01 L 579.09 264.73 L 579.24 264.73 L 579.43 264.73 L 579.90 264.71 L 580.12 264.84 L 580.24 264.84 L 580.33 264.84 L 580.46 264.84 L 580.88 264.20 L 581.31 264.19 L 581.70 264.19 L 581.75 264.19 L 581.79 264.19 L 609.75 264.19 L 609.93 264.14 L 626.01 263.93 L 626.09 263.93 L 626.22 263.87 L 626.24 263.87 L 626.29 263.87 L 626.86 261.41 L 626.92 261.41 L 627.63 261.41 L 628.36 261.30 L 628.61 261.05 L 629.06 260.74 L 629.66 260.66 L 629.67 260.66 L 629.75 260.61 L 629.98 260.61 L 630.06 260.56 L 630.64 259.89 L 631.39 259.78 L 631.47 259.78 L 631.85 259.78 L 631.96 259.78 L 632.25 259.62 L 632.49 259.59 L 632.98 259.46 L 633.44 259.38 L 633.68 259.38 L 633.69 259.38 L 643.75 259.38 L 646.91 259.34 L 647.04 259.31 L 647.20 259.01 L 647.70 259.03 L 647.92 259.03 L 648.08 259.03 L 648.18 258.91 L 648.42 258.82 L 648.46 258.81 L 648.81 258.57 L 648.92 258.41 L 648.99 258.35 L 649.17 258.24 L 649.24 258.24 L 649.34 258.22 L 649.41 258.08 L 649.50 257.93 L 649.60 257.89 L 649.67 257.89 L 650.00 257.83"/>
	</g>
	<g id="poloto_plot2" class="poloto_plot poloto_imgs poloto_line poloto2 poloto_stroke" fill="none" stroke="black">
		<path d=" M 150.00 392.28 L 150.03 392.28 L 150.04 392.28 L 150.05 392.28 L 150.07 392.28 L 150.09 390.30 L 150.20 390.03 L 150.44 390.02 L 150.80 390.01 L 150.98 388.83 L 151.35 388.73 L 151.41 388.69 L 151.46 388.66 L 151.89 388.13 L 152.69 387.72 L 152.94 387.64 L 153.00 387.64 L 153.49 387.61 L 154.04 387.61 L 154.04 387.61 L 154.05 387.61 L 161.55 387.61 L 161.60 387.61 L 161.70 387.59 L 161.74 387.59 L 162.03 387.47 L 162.16 387.44 L 162.47 387.24 L 162.52 387.16 L 162.61 386.99 L 162.70 386.96 L 162.73 386.96 L 162.81 386.93 L 162.89 386.93 L 162.97 386.93 L 163.18 386.73 L 163.37 386.55 L 163.40 386.55 L 163.49 386.44 L 164.09 386.20 L 164.10 386.20 L 164.17 386.13 L 164.51 385.87 L 164.79 385.54 L 165.10 385.41 L 165.16 385.41 L 165.17 385.42 L 165.23 385.24 L 165.34 385.24 L 165.49 385.21 L 165.79 385.08 L 165.81 384.85 L 165.86 384.85 L 165.93 384.74 L 166.10 384.74 L 166.12 384.74 L 166.29 384.39 L 166.36 384.37 L 166.43 384.34 L 166.49 384.18 L 167.41 384.08 L 167.63 384.05 L 168.14 383.81 L 168.25 383.81 L 168.32 383.79 L 168.37 383.62 L 168.72 382.65 L 168.87 382.64 L 169.06 382.34 L 169.14 382.32 L 169.36 382.18 L 169.45 382.14 L 169.57 381.93 L 169.69 381.76 L 170.09 381.76 L 170.10 381.74 L 170.12 381.60 L 170.26 380.67 L 177.22 380.57 L 177.94 380.29 L 177.96 380.25 L 178.82 380.02 L 178.89 380.02 L 178.97 379.85 L 179.17 379.73 L 179.27 379.52 L 179.30 379.34 L 179.41 378.99 L 179.66 378.99 L 179.67 378.99 L 179.76 378.74 L 179.86 378.74 L 179.96 378.49 L 180.10 378.29 L 180.15 378.18 L 180.17 378.17 L 180.29 377.94 L 180.31 377.93 L 180.44 377.72 L 180.47 377.71 L 180.66 377.64 L 180.70 377.64 L 180.77 377.56 L 180.85 377.54 L 180.97 377.54 L 181.02 377.53 L 181.41 377.32 L 181.42 377.33 L 181.49 376.90 L 181.66 376.89 L 181.82 376.76 L 181.87 376.76 L 181.94 376.76 L 181.98 376.72 L 182.07 376.15 L 182.50 375.66 L 182.55 375.39 L 182.70 375.37 L 182.75 375.31 L 182.78 375.29 L 182.85 375.17 L 182.92 374.71 L 183.07 374.64 L 183.18 374.63 L 183.27 374.40 L 183.32 374.40 L 183.71 374.23 L 183.93 374.10 L 183.99 374.00 L 184.17 373.99 L 184.19 373.99 L 184.21 373.97 L 184.32 373.14 L 184.41 373.14 L 184.74 373.02 L 184.79 372.69 L 184.85 372.68 L 184.94 372.55 L 184.95 372.47 L 184.98 372.41 L 185.01 372.38 L 185.06 372.38 L 185.10 372.31 L 185.23 371.38 L 185.32 371.29 L 185.42 371.01 L 185.54 370.99 L 185.68 370.90 L 185.82 370.61 L 185.92 369.81 L 186.12 369.74 L 186.13 369.40 L 186.25 369.32 L 195.96 369.32 L 196.15 369.32 L 196.60 368.94 L 196.70 368.94 L 196.77 368.94 L 196.79 368.84 L 196.96 368.67 L 197.07 368.64 L 197.14 368.55 L 197.20 368.48 L 197.24 368.44 L 197.42 368.39 L 197.77 368.47 L 197.86 368.21 L 197.92 368.14 L 198.01 368.14 L 198.46 368.09 L 198.52 368.04 L 198.55 368.04 L 198.58 367.99 L 198.68 367.95 L 198.75 367.86 L 199.08 367.62 L 199.55 367.51 L 199.72 367.47 L 200.24 367.32 L 200.49 366.94 L 200.57 366.88 L 200.68 366.58 L 200.83 366.21 L 201.07 366.11 L 201.40 366.10 L 201.84 366.08 L 201.90 365.94 L 202.23 365.85 L 202.43 365.73 L 202.50 365.63 L 202.62 365.60 L 202.72 365.34 L 203.87 365.22 L 204.96 365.22 L 214.74 365.19 L 214.81 365.05 L 214.86 364.96 L 215.17 364.82 L 216.08 364.57 L 216.12 364.54 L 216.25 364.36 L 216.70 364.29 L 216.91 363.80 L 217.23 363.79 L 217.31 363.77 L 217.38 363.29 L 217.95 362.84 L 218.02 362.84 L 218.13 362.81 L 218.26 362.77 L 218.32 362.60 L 218.63 361.86 L 218.75 361.66 L 218.80 361.65 L 218.87 361.57 L 219.01 361.28 L 219.07 360.53 L 219.21 360.22 L 219.64 360.05 L 219.68 359.67 L 219.72 359.67 L 219.78 359.60 L 219.89 359.50 L 219.93 359.47 L 219.97 359.44 L 220.17 358.56 L 220.22 358.05 L 220.47 357.95 L 220.62 357.08 L 220.71 356.91 L 221.47 355.54 L 221.56 355.52 L 250.29 355.12 L 250.32 355.12 L 261.30 355.01 L 261.90 354.86 L 262.02 354.86 L 262.18 354.79 L 262.24 354.68 L 262.30 354.66 L 267.07 354.64 L 267.69 353.07 L 267.93 352.93 L 268.05 352.39 L 271.02 352.32 L 271.04 352.27 L 271.22 352.26 L 272.11 352.17 L 272.16 351.98 L 272.27 351.92 L 272.58 351.84 L 272.62 351.82 L 272.75 351.51 L 272.88 351.42 L 272.90 351.19 L 282.13 350.89 L 282.20 350.18 L 282.57 349.99 L 282.58 349.72 L 282.64 349.50 L 282.72 349.17 L 282.82 348.31 L 282.98 347.83 L 283.11 347.22 L 283.23 347.22 L 283.27 346.74 L 283.46 346.71 L 284.10 346.26 L 284.36 346.06 L 284.40 345.93 L 284.45 345.92 L 284.49 345.77 L 284.58 345.23 L 284.83 345.18 L 284.87 345.18 L 285.03 344.83 L 285.09 344.83 L 285.12 344.63 L 285.18 344.50 L 285.22 344.50 L 285.25 344.22 L 285.45 344.05 L 285.54 343.77 L 285.65 343.76 L 285.73 343.61 L 285.77 343.40 L 285.97 343.29 L 286.02 343.16 L 286.06 343.16 L 286.11 343.16 L 286.15 342.94 L 286.17 342.95 L 286.19 342.95 L 286.29 342.87 L 286.32 342.63 L 286.42 342.63 L 286.49 342.57 L 286.70 342.55 L 286.96 342.53 L 286.97 342.53 L 287.04 342.51 L 287.27 342.51 L 287.39 342.51 L 287.50 342.51 L 287.62 342.47 L 287.70 342.18 L 288.02 342.18 L 288.05 342.01 L 288.09 342.01 L 288.12 341.82 L 288.33 341.75 L 288.37 341.70 L 288.52 341.70 L 302.72 341.65 L 303.53 341.57 L 303.56 341.57 L 303.72 341.57 L 303.73 341.57 L 303.84 341.23 L 303.91 341.22 L 303.98 341.13 L 304.08 341.08 L 304.11 341.04 L 304.15 341.03 L 304.30 341.00 L 304.61 340.93 L 304.80 340.47 L 305.02 340.45 L 305.03 340.42 L 305.06 340.04 L 305.09 340.04 L 305.51 340.04 L 305.52 340.00 L 305.59 339.65 L 305.77 339.60 L 305.89 339.59 L 305.91 339.58 L 305.92 339.54 L 305.97 339.52 L 306.00 339.16 L 306.02 339.15 L 306.12 339.15 L 306.13 339.12 L 306.35 339.08 L 306.96 339.07 L 307.10 339.04 L 307.15 339.03 L 307.18 338.91 L 307.21 338.91 L 307.30 338.51 L 317.01 338.38 L 317.02 338.27 L 317.10 338.19 L 317.13 338.17 L 317.18 337.83 L 317.29 337.74 L 317.30 337.72 L 317.48 337.72 L 317.52 337.72 L 317.55 337.38 L 317.71 337.33 L 318.13 337.32 L 318.14 337.30 L 318.25 337.11 L 318.29 337.12 L 318.31 336.80 L 318.66 336.80 L 318.67 336.78 L 319.20 336.70 L 319.27 336.33 L 319.45 336.33 L 319.67 336.32 L 319.73 336.04 L 319.77 335.83 L 319.87 335.82 L 320.14 335.77 L 320.19 335.76 L 320.31 335.67 L 320.44 335.67 L 320.85 335.67 L 320.90 335.67 L 320.99 335.65 L 321.00 335.65 L 321.13 335.65 L 321.44 335.62 L 321.76 335.58 L 321.81 335.58 L 321.88 335.54 L 321.97 335.44 L 322.21 335.44 L 322.62 335.32 L 322.75 335.10 L 322.98 335.08 L 323.87 334.85 L 324.06 334.85 L 324.21 334.84 L 324.43 334.84 L 324.50 334.82 L 324.72 334.70 L 325.07 334.69 L 325.12 334.58 L 325.19 334.53 L 325.23 334.55 L 325.26 334.51 L 325.54 334.49 L 331.97 334.49 L 332.03 334.49 L 332.43 334.49 L 332.47 334.47 L 332.56 334.16 L 332.64 334.14 L 332.65 334.14 L 332.87 334.14 L 332.92 334.12 L 334.24 333.65 L 334.39 333.60 L 334.51 333.59 L 334.53 333.59 L 334.94 333.58 L 335.08 333.64 L 335.11 333.64 L 335.32 333.61 L 335.56 333.17 L 335.59 333.16 L 335.79 333.14 L 335.88 333.14 L 335.95 333.14 L 336.12 333.05 L 336.48 332.65 L 336.54 332.65 L 336.61 332.59 L 336.76 332.22 L 337.11 331.82 L 337.43 331.85 L 337.49 331.63 L 337.81 331.63 L 337.87 331.60 L 337.92 331.58 L 337.95 331.37 L 338.06 331.36 L 338.09 331.36 L 338.14 331.36 L 338.32 331.36 L 338.60 331.19 L 338.78 331.17 L 338.98 331.17 L 339.07 331.17 L 339.26 331.17 L 339.59 331.17 L 339.91 331.17 L 340.16 331.17 L 340.22 331.17 L 340.28 331.16 L 340.28 331.09 L 340.47 331.03 L 340.53 331.03 L 340.60 331.02 L 341.13 331.02 L 341.14 330.81 L 341.28 330.81 L 341.90 330.81 L 342.31 330.81 L 342.61 330.76 L 342.62 330.68 L 342.64 330.68 L 351.65 330.54 L 351.68 330.53 L 351.78 330.52 L 351.83 330.40 L 351.87 330.40 L 351.87 330.39 L 352.26 330.35 L 352.34 329.92 L 352.46 329.83 L 352.65 328.99 L 352.77 328.99 L 352.92 328.63 L 353.01 328.67 L 353.05 328.67 L 353.10 328.21 L 353.21 328.13 L 353.23 327.81 L 353.27 327.77 L 353.36 327.74 L 353.43 327.58 L 353.51 329.46 L 353.62 329.43 L 353.84 328.67 L 353.93 328.51 L 354.02 328.34 L 354.57 328.04 L 355.05 327.72 L 355.62 327.28 L 355.76 327.23 L 355.92 327.23 L 356.10 327.19 L 359.41 326.97 L 359.69 326.95 L 391.08 326.36 L 489.93 326.34 L 490.25 326.08 L 490.48 326.04 L 490.71 326.04 L 491.05 325.80 L 491.17 325.52 L 491.26 325.01 L 491.42 324.87 L 491.65 324.92 L 491.83 324.61 L 491.87 324.61 L 492.02 324.52 L 492.06 324.52 L 492.22 324.02 L 492.37 323.25 L 492.81 323.17 L 492.83 323.09 L 492.96 322.10 L 493.38 322.06 L 493.39 321.96 L 493.48 321.90 L 493.58 321.00 L 494.04 320.96 L 494.05 320.83 L 494.15 320.77 L 494.26 320.18 L 494.43 320.16 L 494.44 320.06 L 494.51 319.08 L 494.53 319.05 L 494.57 319.02 L 494.76 319.02 L 494.79 318.92 L 494.85 318.85 L 495.06 318.76 L 495.11 318.75 L 495.27 318.70 L 495.55 318.74 L 495.59 318.69 L 495.62 318.67 L 495.67 318.64 L 495.81 317.62 L 495.96 317.60 L 495.98 317.51 L 496.06 316.47 L 496.14 316.09 L 496.16 315.95 L 496.25 315.44 L 496.29 314.55 L 496.46 314.54 L 496.48 314.49 L 496.57 314.31 L 496.69 314.31 L 497.40 314.28 L 497.75 314.26 L 505.47 314.30 L 505.55 314.10 L 505.63 313.95 L 505.76 313.24 L 506.05 313.23 L 506.07 313.16 L 506.12 312.27 L 506.31 312.26 L 506.33 312.18 L 508.02 312.09 L 508.12 311.76 L 508.97 311.61 L 509.06 311.57 L 509.16 310.58 L 510.18 310.30 L 510.62 310.06 L 510.73 309.32 L 511.10 309.32 L 511.33 308.90 L 511.71 308.26 L 512.38 307.88 L 522.72 307.87 L 523.34 307.86 L 523.36 307.86 L 524.23 307.72 L 524.27 307.64 L 524.58 307.58 L 524.93 306.75 L 524.93 306.75 L 524.97 306.71 L 525.43 306.54 L 526.49 305.98 L 526.56 305.93 L 526.67 305.92 L 526.83 305.69 L 526.87 305.65 L 526.94 305.61 L 527.43 305.61 L 527.83 305.61 L 528.04 305.61 L 528.07 305.57 L 528.51 304.73 L 528.85 304.65 L 528.87 304.58 L 528.91 304.51 L 528.95 304.30 L 540.17 304.14 L 540.19 304.12 L 540.22 304.10 L 540.44 304.00 L 540.61 303.89 L 541.60 303.42 L 541.84 303.32 L 542.55 302.96 L 543.17 302.90 L 543.62 302.76 L 543.75 301.51 L 544.32 301.30 L 544.53 301.24 L 544.60 300.34 L 546.26 299.48 L 546.28 299.48 L 546.37 299.08 L 546.68 299.04 L 546.69 299.04 L 546.70 298.94 L 546.76 298.83 L 546.90 298.74 L 547.08 298.13 L 548.81 297.81 L 549.03 297.67 L 549.18 297.33 L 549.21 297.30 L 549.24 297.08 L 556.88 296.30 L 557.13 295.74 L 557.27 295.71 L 557.33 295.34 L 558.05 295.18 L 558.20 294.78 L 558.33 294.78 L 558.41 293.94 L 558.65 293.74 L 558.69 293.72 L 559.01 293.67 L 559.09 292.98 L 559.36 292.90 L 559.42 292.36 L 559.65 292.30 L 559.81 291.99 L 559.94 291.39 L 560.23 291.27 L 560.26 290.65 L 560.63 292.04 L 560.66 292.04 L 560.72 291.25 L 560.80 291.25 L 560.84 291.19 L 561.26 291.12 L 561.88 290.79 L 562.19 290.96 L 563.20 290.93 L 563.22 290.93 L 563.38 290.91 L 563.45 290.89 L 563.56 290.79 L 563.69 290.69 L 563.82 290.54 L 564.12 290.34 L 564.41 290.33 L 565.32 290.24 L 565.36 290.23 L 566.26 290.12 L 566.65 290.06 L 574.38 290.03 L 574.77 289.99 L 574.96 289.99 L 575.05 289.99 L 575.07 289.99 L 575.27 289.97 L 575.36 289.94 L 575.58 289.80 L 575.72 289.78 L 576.22 289.76 L 576.49 289.69 L 576.92 289.66 L 577.04 289.63 L 577.19 289.56 L 577.38 289.47 L 578.05 289.44 L 578.11 289.42 L 579.09 289.27 L 579.24 289.02 L 579.43 288.93 L 579.90 288.79 L 580.12 288.71 L 580.24 289.05 L 580.33 289.04 L 580.46 288.91 L 580.88 288.59 L 581.31 288.50 L 581.70 288.44 L 581.75 288.40 L 581.79 288.16 L 609.75 288.11 L 609.93 288.04 L 626.01 287.97 L 626.09 288.32 L 626.22 286.92 L 626.24 286.92 L 626.29 286.96 L 626.86 286.42 L 626.92 286.39 L 627.63 286.45 L 628.36 286.39 L 628.61 286.35 L 629.06 286.29 L 629.66 286.14 L 629.67 286.14 L 629.75 286.12 L 629.98 286.07 L 630.06 285.96 L 630.64 285.89 L 631.39 285.84 L 631.47 285.69 L 631.85 285.62 L 631.96 286.24 L 632.25 286.19 L 632.49 286.16 L 632.98 286.13 L 633.44 286.13 L 633.68 285.84 L 633.69 285.84 L 643.75 285.82 L 646.91 285.08 L 647.04 284.71 L 647.20 284.62 L 647.70 284.58 L 647.92 284.45 L 648.08 282.59 L 648.18 281.58 L 648.42 281.54 L 648.46 281.53 L 648.81 281.39 L 648.92 281.34 L 648.99 281.29 L 649.17 281.06 L 649.24 281.04 L 649.34 281.02 L 649.41 280.97 L 649.50 280.91 L 649.60 280.82 L 649.67 280.78 L 650.00 280.75"/>
	</g>
	<g class="poloto_legend poloto_imgs poloto_line poloto0 poloto_stroke"><line x1="680" x2="730" y1="81.25" y2="81.25"/></g>
	<g class="poloto_legend poloto_imgs poloto_line poloto1 poloto_stroke"><line x1="680" x2="730" y1="131.25" y2="131.25"/></g>
	<g class="poloto_legend poloto_imgs poloto_line poloto2 poloto_stroke"><line x1="680" x2="730" y1="181.25" y2="181.25"/></g>
	<text class="poloto_legend poloto_text poloto_line poloto0" x="675" y="100">total</text>
	<text class="poloto_legend poloto_text poloto_line poloto1" x="675" y="150">code</text>
	<text class="poloto_legend poloto_text poloto_line poloto2" x="675" y="200">docs</text>
	<text class="poloto_text poloto_name poloto_title" x="400.00" y="37.50">Workspace lines over time</text>
	<text class="poloto_text poloto_name poloto_x" x="400.00" y="640">date (JST)</text>
	<text class="poloto_text poloto_name poloto_y" x="37.50" y="250.00" transform="rotate(-90,37.50,250.00)">lines</text>
	<text class="poloto_text poloto_ticks poloto_y">
		<tspan x="135.00" y="400.00">0</tspan>
		<tspan x="135.00" y="326.62">50K</tspan>
		<tspan x="135.00" y="253.24">100K</tspan>
		<tspan x="135.00" y="179.86">150K</tspan>
		<tspan x="135.00" y="106.48">200K</tspan>
	</text>
	<g class="poloto_imgs poloto_ticks poloto_y" stroke="black">
		<line x1="150.00" x2="144.00" y1="400.00" y2="400.00"/>
		<line x1="150.00" x2="144.00" y1="326.62" y2="326.62"/>
		<line x1="150.00" x2="144.00" y1="253.24" y2="253.24"/>
		<line x1="150.00" x2="144.00" y1="179.86" y2="179.86"/>
		<line x1="150.00" x2="144.00" y1="106.48" y2="106.48"/>
	</g>
	<g class="poloto_text poloto_ticks poloto_x">
		<text x="214.62" y="430.00" text-anchor="end" transform="rotate(-90 214.62 430.00)">2026-04-24 12:06</text>
		<text x="314.09" y="430.00" text-anchor="end" transform="rotate(-90 314.09 430.00)">2026-04-30 07:00</text>
		<text x="413.55" y="430.00" text-anchor="end" transform="rotate(-90 413.55 430.00)">2026-05-06 01:53</text>
		<text x="513.02" y="430.00" text-anchor="end" transform="rotate(-90 513.02 430.00)">2026-05-11 20:46</text>
		<text x="612.49" y="430.00" text-anchor="end" transform="rotate(-90 612.49 430.00)">2026-05-17 15:40</text>
	</g>
	<g class="poloto_imgs poloto_ticks poloto_x" stroke="black">
		<line x1="214.62" x2="214.62" y1="400.00" y2="405.00"/>
		<line x1="314.09" x2="314.09" y1="400.00" y2="405.00"/>
		<line x1="413.55" x2="413.55" y1="400.00" y2="405.00"/>
		<line x1="513.02" x2="513.02" y1="400.00" y2="405.00"/>
		<line x1="612.49" x2="612.49" y1="400.00" y2="405.00"/>
	</g>
	<path class="poloto_imgs poloto_ticks poloto_x" stroke="black" style="stroke-dasharray:9.946721381591642;stroke-dashoffset:-64.61847758665681;" d=" M 150.00 400.00 L 650.00 400.00"/>
	<path class="poloto_imgs poloto_ticks poloto_y" stroke="black" style="stroke-dasharray:7.338049252986586;stroke-dashoffset:-0;" d=" M 150.00 400.00 L 150.00 100.00"/>
</svg>

