<svg class="poloto" width="800" height="680" viewBox="0 0 800 680" xmlns="http://www.w3.org/2000/svg">
	<style>
.poloto{
  stroke-linecap:round;
  stroke-linejoin:round;
  font-family:Roboto,sans-serif;
  font-size:16px;
}
.poloto_background{fill:AliceBlue;}
.poloto_scatter{stroke-width:7}
.poloto_line{stroke-width:2}
.poloto_text{fill: black;}
.poloto_name{font-size:24px;dominant-baseline:auto;text-anchor:middle;}
.poloto_where{dominant-baseline:middle;text-anchor:start}
.poloto_text.poloto_legend{font-size:20px;dominant-baseline:middle;text-anchor:start;}
.poloto_text.poloto_ticks.poloto_y{dominant-baseline:middle;text-anchor:end}
.poloto_text.poloto_ticks.poloto_x{dominant-baseline:auto;text-anchor:middle}
.poloto_imgs.poloto_ticks{stroke: black;stroke-width:3;fill:none;stroke-dasharray:none}
.poloto_grid{stroke:gray;stroke-width:0.5}

.poloto0.poloto_stroke{stroke:blue;}
.poloto1.poloto_stroke{stroke:red;}
.poloto2.poloto_stroke{stroke:green;}
.poloto3.poloto_stroke{stroke:gold;}
.poloto4.poloto_stroke{stroke:aqua;}
.poloto5.poloto_stroke{stroke:lime;}
.poloto6.poloto_stroke{stroke:orange;}
.poloto7.poloto_stroke{stroke:chocolate;}
.poloto0.poloto_fill{fill:blue;}
.poloto1.poloto_fill{fill:red;}
.poloto2.poloto_fill{fill:green;}
.poloto3.poloto_fill{fill:gold;}
.poloto4.poloto_fill{fill:aqua;}
.poloto5.poloto_fill{fill:lime;}
.poloto6.poloto_fill{fill:orange;}
.poloto7.poloto_fill{fill:chocolate;}
	</style>
	<circle r="1e5" class="poloto_background" fill="white"/>
	<g id="poloto_plot0" class="poloto_plot poloto_imgs poloto_line poloto0 poloto_stroke" fill="none" stroke="black">
		<path d=" M 150.00 365.29 L 150.03 365.26 L 150.05 365.24 L 150.06 365.24 L 150.09 365.24 L 150.12 361.47 L 150.26 361.02 L 150.57 361.00 L 151.03 360.69 L 151.26 358.77 L 151.73 358.65 L 151.81 358.55 L 151.87 358.51 L 152.42 357.58 L 153.44 356.82 L 153.76 353.86 L 153.85 353.86 L 154.47 353.75 L 155.18 353.73 L 155.18 353.73 L 155.19 353.73 L 164.80 353.73 L 164.87 353.73 L 164.99 353.70 L 165.04 353.67 L 165.41 353.50 L 165.58 353.45 L 165.98 353.18 L 166.04 353.06 L 166.16 352.79 L 166.28 352.75 L 166.31 352.75 L 166.41 352.68 L 166.52 352.68 L 166.62 352.68 L 166.89 352.24 L 167.13 351.97 L 167.17 351.97 L 167.29 351.81 L 168.05 352.49 L 168.07 352.49 L 168.16 352.38 L 168.60 351.87 L 168.95 351.27 L 169.34 351.00 L 169.43 350.95 L 169.44 350.95 L 169.51 350.72 L 169.66 350.72 L 169.85 350.64 L 170.23 350.41 L 170.25 350.06 L 170.32 350.06 L 170.41 349.87 L 170.63 349.87 L 170.65 349.87 L 170.88 349.37 L 170.97 349.34 L 171.05 349.30 L 171.13 349.09 L 172.30 348.82 L 172.59 348.77 L 173.24 348.41 L 173.38 348.41 L 173.48 348.39 L 173.54 348.14 L 173.98 346.64 L 174.18 346.61 L 174.42 346.11 L 174.53 346.07 L 174.80 345.65 L 174.92 345.50 L 175.08 345.23 L 175.23 345.00 L 175.74 341.55 L 175.76 341.47 L 175.78 341.26 L 175.96 339.61 L 184.88 339.48 L 185.80 337.60 L 185.83 337.55 L 186.92 337.26 L 187.01 337.25 L 187.11 336.87 L 187.38 336.69 L 187.50 336.36 L 187.55 336.08 L 187.68 335.59 L 188.00 335.58 L 188.01 335.25 L 188.14 334.88 L 188.26 334.87 L 188.39 334.45 L 188.57 334.16 L 188.64 334.01 L 188.66 334.00 L 188.82 333.68 L 188.84 333.67 L 189.01 333.35 L 189.04 333.34 L 189.29 331.78 L 189.33 331.78 L 189.42 331.52 L 189.53 331.51 L 189.68 331.51 L 189.74 331.48 L 190.24 331.18 L 190.25 331.19 L 190.35 330.50 L 190.57 330.49 L 190.77 329.45 L 190.83 329.36 L 190.93 329.35 L 190.98 329.31 L 191.09 328.51 L 191.65 321.75 L 191.71 321.42 L 191.90 321.39 L 191.96 321.31 L 192.00 321.28 L 192.09 321.11 L 192.18 320.34 L 192.38 320.18 L 192.52 320.16 L 192.63 319.83 L 192.69 319.82 L 193.20 319.57 L 193.47 319.38 L 193.55 319.07 L 193.79 319.06 L 193.81 319.06 L 193.83 319.03 L 193.98 317.40 L 194.10 317.31 L 194.51 315.67 L 194.58 315.19 L 194.66 315.18 L 194.77 315.01 L 194.78 314.88 L 194.83 314.80 L 194.86 314.76 L 194.92 314.75 L 194.98 314.67 L 195.14 313.33 L 195.26 313.13 L 195.38 312.74 L 195.54 312.71 L 195.72 312.58 L 195.90 311.64 L 196.03 310.32 L 196.29 310.25 L 196.29 309.75 L 196.44 309.59 L 208.89 309.60 L 209.13 309.58 L 209.71 308.89 L 209.84 308.87 L 209.93 308.87 L 209.95 308.70 L 210.17 308.48 L 210.31 308.44 L 210.40 308.31 L 210.48 308.22 L 210.53 308.17 L 210.76 308.11 L 211.21 308.03 L 211.32 307.67 L 211.41 307.58 L 211.51 307.57 L 212.09 307.39 L 212.17 307.28 L 212.21 307.28 L 212.25 307.15 L 212.37 307.09 L 212.47 306.96 L 212.89 306.07 L 213.49 305.94 L 213.71 305.88 L 214.37 305.66 L 214.69 301.41 L 214.80 301.32 L 214.94 300.90 L 215.13 300.34 L 215.43 300.19 L 215.86 300.17 L 216.42 300.16 L 216.51 299.97 L 216.92 299.77 L 217.18 299.47 L 217.27 299.34 L 217.43 299.29 L 217.55 298.91 L 219.03 298.50 L 220.43 298.50 L 232.96 298.46 L 233.04 298.27 L 233.11 298.16 L 233.50 297.97 L 234.67 296.51 L 234.72 296.41 L 234.89 296.03 L 235.46 295.94 L 235.73 294.95 L 236.15 294.94 L 236.24 294.92 L 236.34 294.24 L 237.06 290.38 L 237.15 290.37 L 237.30 290.34 L 237.46 290.29 L 237.54 289.87 L 237.94 288.41 L 238.09 288.14 L 238.16 288.12 L 238.25 287.45 L 238.43 286.50 L 238.50 285.49 L 238.68 285.04 L 239.23 280.02 L 239.28 279.51 L 239.33 279.51 L 239.42 279.42 L 239.55 279.29 L 239.60 279.25 L 239.65 279.19 L 239.92 277.99 L 239.98 277.14 L 240.30 276.97 L 240.48 275.70 L 240.60 274.91 L 241.57 263.19 L 241.69 263.16 L 278.51 262.60 L 278.54 262.60 L 292.61 262.44 L 293.38 262.12 L 293.54 262.12 L 293.74 262.03 L 293.81 261.88 L 293.90 261.84 L 300.00 261.75 L 300.80 259.52 L 301.10 259.32 L 301.26 258.50 L 305.06 258.34 L 305.09 258.11 L 305.32 258.09 L 306.46 256.69 L 306.53 256.43 L 306.67 256.34 L 307.07 256.25 L 307.12 256.21 L 307.28 255.79 L 307.45 255.67 L 307.48 255.36 L 319.30 254.93 L 319.39 253.73 L 319.86 253.46 L 319.87 251.45 L 319.95 251.16 L 320.05 250.66 L 320.18 249.28 L 320.38 248.54 L 320.55 247.68 L 320.71 247.67 L 320.77 247.02 L 321.01 246.96 L 321.82 243.72 L 322.15 243.38 L 322.21 243.17 L 322.28 243.17 L 322.32 242.94 L 322.43 242.15 L 322.77 241.77 L 322.82 241.72 L 323.02 238.87 L 323.10 238.86 L 323.13 238.55 L 323.21 238.32 L 323.26 238.32 L 323.30 237.89 L 323.56 236.35 L 323.67 235.91 L 323.82 235.86 L 323.92 231.74 L 323.96 231.40 L 324.22 229.05 L 324.29 228.87 L 324.34 228.86 L 324.41 228.86 L 324.45 228.53 L 324.48 228.54 L 324.50 228.53 L 324.63 224.37 L 324.67 224.01 L 324.80 223.99 L 324.89 223.92 L 325.16 223.80 L 325.49 223.64 L 325.50 223.64 L 325.59 223.59 L 325.89 223.51 L 326.03 223.51 L 326.18 223.51 L 326.33 221.70 L 326.43 221.26 L 326.85 221.26 L 326.89 220.97 L 326.94 220.97 L 326.97 220.66 L 327.25 218.03 L 327.29 217.97 L 327.49 217.96 L 345.69 217.88 L 346.73 217.75 L 346.76 217.75 L 346.96 217.74 L 346.98 217.75 L 347.11 217.22 L 347.21 217.20 L 347.30 216.95 L 347.43 216.88 L 347.46 216.84 L 347.51 216.82 L 347.71 216.53 L 348.10 216.27 L 348.35 215.43 L 348.63 214.63 L 348.64 214.58 L 348.69 213.83 L 348.72 213.81 L 349.26 213.36 L 349.28 213.31 L 349.36 212.72 L 349.59 212.65 L 349.74 212.59 L 349.77 211.53 L 349.78 211.48 L 349.85 212.49 L 349.89 211.87 L 349.91 211.84 L 350.04 210.42 L 350.05 210.38 L 350.34 210.26 L 351.12 210.25 L 351.30 210.20 L 351.36 210.18 L 351.40 210.00 L 351.44 210.00 L 351.55 209.30 L 363.99 207.94 L 364.01 207.75 L 364.11 207.62 L 364.14 207.36 L 364.21 195.50 L 364.35 190.65 L 364.37 190.62 L 364.60 190.52 L 364.65 190.52 L 364.69 189.96 L 364.89 189.91 L 365.43 188.76 L 365.44 188.74 L 365.58 188.38 L 365.63 188.39 L 365.66 187.82 L 366.11 187.14 L 366.12 187.12 L 366.80 186.86 L 366.88 186.25 L 367.13 186.26 L 367.41 184.73 L 367.48 184.13 L 367.53 183.64 L 367.65 183.05 L 368.01 182.84 L 368.07 182.69 L 368.22 182.56 L 368.39 182.56 L 368.92 182.56 L 368.98 182.56 L 369.10 182.53 L 369.11 182.53 L 369.28 182.55 L 369.67 182.52 L 370.08 182.29 L 370.14 182.29 L 370.23 182.21 L 370.34 182.04 L 370.66 182.04 L 371.18 181.83 L 371.35 181.36 L 371.64 177.27 L 372.78 180.72 L 373.03 180.71 L 373.22 180.69 L 373.50 180.68 L 373.59 180.62 L 373.88 180.43 L 374.33 180.14 L 374.39 179.96 L 374.47 179.88 L 374.53 179.90 L 374.57 179.84 L 374.92 179.58 L 383.17 179.58 L 383.24 179.58 L 383.75 179.57 L 383.80 179.55 L 383.92 179.03 L 384.01 178.73 L 384.03 178.73 L 384.31 178.69 L 384.38 178.66 L 386.07 177.89 L 386.27 177.83 L 386.41 177.81 L 386.44 177.81 L 386.97 177.62 L 387.15 177.72 L 387.18 177.71 L 387.46 177.66 L 387.77 176.04 L 387.81 176.03 L 388.06 175.85 L 388.17 175.85 L 388.26 175.85 L 388.48 175.67 L 388.94 175.01 L 389.02 174.99 L 389.11 174.81 L 389.29 174.04 L 389.75 173.24 L 390.15 169.48 L 390.23 169.02 L 390.65 168.84 L 390.72 168.74 L 390.78 168.56 L 390.83 167.96 L 390.97 166.87 L 391.00 166.92 L 391.07 166.90 L 391.30 166.89 L 391.66 166.49 L 391.88 166.42 L 392.14 166.40 L 392.26 166.39 L 392.51 166.38 L 392.92 166.38 L 393.34 166.37 L 393.66 166.36 L 393.73 166.35 L 393.81 166.34 L 393.81 166.21 L 394.06 166.13 L 394.13 166.12 L 394.22 165.95 L 394.90 165.93 L 394.91 165.60 L 395.10 165.59 L 395.89 165.59 L 396.41 165.40 L 396.79 165.15 L 396.80 165.02 L 396.83 165.02 L 408.38 164.80 L 408.42 164.79 L 408.55 164.78 L 408.61 164.59 L 408.65 164.57 L 408.66 164.56 L 409.15 164.51 L 409.26 163.83 L 409.41 163.67 L 409.66 162.33 L 409.82 162.32 L 410.01 161.75 L 410.12 161.82 L 410.18 161.81 L 410.23 161.16 L 410.38 160.72 L 410.40 160.24 L 410.45 160.18 L 410.57 160.14 L 410.65 159.92 L 410.76 162.48 L 410.90 162.43 L 411.18 161.41 L 411.31 161.16 L 411.42 160.95 L 412.12 159.48 L 412.73 158.76 L 413.46 157.41 L 413.65 157.34 L 413.86 157.34 L 414.08 157.28 L 418.33 156.90 L 418.68 156.86 L 458.90 155.83 L 585.56 155.59 L 585.98 155.17 L 586.27 155.12 L 586.56 155.12 L 587.00 154.32 L 587.15 153.94 L 587.26 153.22 L 587.46 151.16 L 587.76 151.58 L 587.99 151.13 L 588.05 151.12 L 588.24 150.99 L 588.29 150.99 L 588.49 150.23 L 588.68 149.02 L 589.26 147.74 L 589.27 147.63 L 589.44 146.10 L 589.98 142.30 L 590.00 142.17 L 590.10 142.09 L 590.23 140.73 L 590.82 138.91 L 590.84 138.74 L 590.97 138.66 L 591.10 137.75 L 591.32 137.04 L 591.34 136.91 L 591.43 135.52 L 591.45 135.49 L 591.50 135.10 L 591.75 132.62 L 591.78 132.48 L 591.87 132.34 L 592.14 132.01 L 592.19 132.00 L 592.40 131.53 L 592.76 131.58 L 592.81 131.52 L 592.86 131.49 L 592.92 131.45 L 593.09 130.00 L 593.28 128.82 L 593.31 128.71 L 593.41 127.23 L 593.52 125.79 L 593.55 125.61 L 593.66 123.92 L 593.71 122.59 L 593.93 121.69 L 593.96 121.63 L 594.06 121.35 L 594.22 121.32 L 595.13 121.28 L 595.58 121.24 L 605.47 121.30 L 605.58 121.04 L 605.67 120.82 L 605.84 119.83 L 606.21 119.57 L 606.24 119.47 L 606.31 118.15 L 606.55 116.88 L 606.57 116.77 L 608.73 116.68 L 608.86 115.96 L 609.95 115.75 L 610.07 115.70 L 610.20 114.22 L 611.51 112.82 L 612.07 112.29 L 612.21 111.21 L 612.68 109.34 L 612.98 108.80 L 613.46 107.71 L 614.33 107.15 L 627.57 107.14 L 628.36 107.02 L 628.40 107.04 L 629.51 106.82 L 629.56 106.72 L 629.95 106.63 L 630.40 105.42 L 630.41 105.42 L 630.45 105.37 L 631.04 103.98 L 632.40 103.19 L 632.49 103.12 L 632.63 103.11 L 632.84 102.74 L 632.90 102.64 L 632.98 102.57 L 633.61 102.52 L 634.12 102.52 L 634.39 102.52 L 634.43 102.47 L 634.99 101.26 L 635.43 101.02 L 635.45 100.93 L 635.50 100.84 L 635.56 100.51 L 649.93 100.04 L 649.96 100.02 L 650.00 100.00"/>
	</g>
	<g id="poloto_plot1" class="poloto_plot poloto_imgs poloto_line poloto1 poloto_stroke" fill="none" stroke="black">
		<path d=" M 150.00 379.37 L 150.03 379.36 L 150.05 379.34 L 150.06 379.34 L 150.09 379.34 L 150.12 378.69 L 150.26 378.67 L 150.57 378.66 L 151.03 378.41 L 151.26 378.30 L 151.73 378.32 L 151.81 378.28 L 151.87 378.28 L 152.42 378.23 L 153.44 378.11 L 153.76 375.56 L 153.85 375.56 L 154.47 375.49 L 155.18 375.48 L 155.18 375.48 L 155.19 375.48 L 164.80 375.48 L 164.87 375.48 L 164.99 375.48 L 165.04 375.45 L 165.41 375.43 L 165.58 375.43 L 165.98 375.43 L 166.04 375.43 L 166.16 375.41 L 166.28 375.41 L 166.31 375.41 L 166.41 375.38 L 166.52 375.38 L 166.62 375.38 L 166.89 375.24 L 167.13 375.24 L 167.17 375.24 L 167.29 375.24 L 168.05 376.20 L 168.07 376.20 L 168.16 376.19 L 168.60 376.04 L 168.95 375.89 L 169.34 375.81 L 169.43 375.76 L 169.44 375.76 L 169.51 375.76 L 169.66 375.76 L 169.85 375.70 L 170.23 375.65 L 170.25 375.65 L 170.32 375.65 L 170.41 375.62 L 170.63 375.62 L 170.65 375.62 L 170.88 375.61 L 170.97 375.61 L 171.05 375.61 L 171.13 375.61 L 172.30 375.50 L 172.59 375.49 L 173.24 375.44 L 173.38 375.44 L 173.48 375.44 L 173.54 375.44 L 173.98 375.36 L 174.18 375.36 L 174.42 375.27 L 174.53 375.26 L 174.80 375.05 L 174.92 374.98 L 175.08 374.98 L 175.23 374.98 L 175.74 371.99 L 175.76 371.94 L 175.78 371.94 L 175.96 371.65 L 184.88 371.65 L 185.80 370.37 L 185.83 370.37 L 186.92 370.37 L 187.01 370.37 L 187.11 370.23 L 187.38 370.21 L 187.50 370.21 L 187.55 370.21 L 187.68 370.21 L 188.00 370.21 L 188.01 369.93 L 188.14 369.92 L 188.26 369.92 L 188.39 369.89 L 188.57 369.88 L 188.64 369.88 L 188.66 369.88 L 188.82 369.88 L 188.84 369.88 L 189.01 369.88 L 189.04 369.88 L 189.29 368.62 L 189.33 368.62 L 189.42 368.47 L 189.53 368.47 L 189.68 368.47 L 189.74 368.45 L 190.24 368.45 L 190.25 368.45 L 190.35 368.37 L 190.57 368.37 L 190.77 367.65 L 190.83 367.56 L 190.93 367.56 L 190.98 367.56 L 191.09 367.54 L 191.65 362.21 L 191.71 362.26 L 191.90 362.26 L 191.96 362.26 L 192.00 362.25 L 192.09 362.25 L 192.18 362.18 L 192.38 362.18 L 192.52 362.18 L 192.63 362.17 L 192.69 362.17 L 193.20 362.16 L 193.47 362.15 L 193.55 362.02 L 193.79 362.02 L 193.81 362.02 L 193.83 362.02 L 193.98 361.66 L 194.10 361.57 L 194.51 360.30 L 194.58 360.30 L 194.66 360.30 L 194.77 360.32 L 194.78 360.32 L 194.83 360.32 L 194.86 360.32 L 194.92 360.32 L 194.98 360.32 L 195.14 360.30 L 195.26 360.30 L 195.38 360.28 L 195.54 360.28 L 195.72 360.27 L 195.90 359.80 L 196.03 359.64 L 196.29 359.64 L 196.29 359.64 L 196.44 359.64 L 208.89 359.64 L 209.13 359.63 L 209.71 359.55 L 209.84 359.54 L 209.93 359.54 L 209.95 359.54 L 210.17 359.54 L 210.31 359.54 L 210.40 359.54 L 210.48 359.54 L 210.53 359.53 L 210.76 359.53 L 211.21 359.55 L 211.32 359.55 L 211.41 359.55 L 211.51 359.55 L 212.09 359.45 L 212.17 359.41 L 212.21 359.41 L 212.25 359.34 L 212.37 359.33 L 212.47 359.33 L 212.89 358.85 L 213.49 358.85 L 213.71 358.85 L 214.37 358.85 L 214.69 355.59 L 214.80 355.58 L 214.94 355.58 L 215.13 355.58 L 215.43 355.58 L 215.86 355.58 L 216.42 355.58 L 216.51 355.58 L 216.92 355.50 L 217.18 355.36 L 217.27 355.36 L 217.43 355.36 L 217.55 355.35 L 219.03 355.14 L 220.43 355.14 L 232.96 355.14 L 233.04 355.14 L 233.11 355.14 L 233.50 355.14 L 234.67 354.11 L 234.72 354.08 L 234.89 353.97 L 235.46 353.96 L 235.73 353.72 L 236.15 353.72 L 236.24 353.72 L 236.34 353.72 L 237.06 350.86 L 237.15 350.86 L 237.30 350.86 L 237.46 350.86 L 237.54 350.67 L 237.94 350.33 L 238.09 350.33 L 238.16 350.33 L 238.25 349.80 L 238.43 349.28 L 238.50 349.28 L 238.68 349.27 L 239.23 345.00 L 239.28 345.00 L 239.33 345.00 L 239.42 345.00 L 239.55 345.00 L 239.60 345.00 L 239.65 345.00 L 239.92 345.00 L 239.98 344.91 L 240.30 344.89 L 240.48 344.83 L 240.60 344.32 L 241.57 335.83 L 241.69 335.83 L 278.51 335.83 L 278.54 335.83 L 292.61 335.83 L 293.38 335.70 L 293.54 335.70 L 293.74 335.70 L 293.81 335.70 L 293.90 335.70 L 300.00 335.64 L 300.80 335.56 L 301.10 335.56 L 301.26 335.53 L 305.06 335.46 L 305.09 335.34 L 305.32 335.35 L 306.46 334.19 L 306.53 334.19 L 306.67 334.19 L 307.07 334.19 L 307.12 334.19 L 307.28 334.19 L 307.45 334.19 L 307.48 334.19 L 319.30 334.18 L 319.39 333.97 L 319.86 333.97 L 319.87 332.59 L 319.95 332.59 L 320.05 332.59 L 320.18 332.46 L 320.38 332.46 L 320.55 332.40 L 320.71 332.40 L 320.77 332.40 L 321.01 332.38 L 321.82 330.03 L 322.15 330.02 L 322.21 330.01 L 322.28 330.01 L 322.32 330.01 L 322.43 329.97 L 322.77 329.68 L 322.82 329.64 L 323.02 327.52 L 323.10 327.52 L 323.13 327.52 L 323.21 327.49 L 323.26 327.49 L 323.30 327.48 L 323.56 326.33 L 323.67 326.32 L 323.82 326.29 L 323.92 322.71 L 323.96 322.71 L 324.22 320.69 L 324.29 320.69 L 324.34 320.69 L 324.41 320.69 L 324.45 320.69 L 324.48 320.69 L 324.50 320.69 L 324.63 316.96 L 324.67 316.96 L 324.80 316.94 L 324.89 316.94 L 325.16 316.87 L 325.49 316.77 L 325.50 316.77 L 325.59 316.74 L 325.89 316.68 L 326.03 316.68 L 326.18 316.68 L 326.33 315.08 L 326.43 315.08 L 326.85 315.07 L 326.89 315.07 L 326.94 315.07 L 326.97 315.07 L 327.25 312.77 L 327.29 312.77 L 327.49 312.75 L 345.69 312.75 L 346.73 312.74 L 346.76 312.74 L 346.96 312.74 L 346.98 312.74 L 347.11 312.74 L 347.21 312.74 L 347.30 312.62 L 347.43 312.62 L 347.46 312.62 L 347.51 312.62 L 347.71 312.42 L 348.10 312.29 L 348.35 312.15 L 348.63 311.50 L 348.64 311.50 L 348.69 311.34 L 348.72 311.32 L 349.26 310.92 L 349.28 310.92 L 349.36 310.86 L 349.59 310.86 L 349.74 310.83 L 349.77 309.87 L 349.78 309.87 L 349.85 310.81 L 349.89 310.76 L 349.91 310.75 L 350.04 309.47 L 350.05 309.47 L 350.34 309.42 L 351.12 309.42 L 351.30 309.42 L 351.36 309.42 L 351.40 309.42 L 351.44 309.42 L 351.55 309.34 L 363.99 308.27 L 364.01 308.27 L 364.11 308.27 L 364.14 308.04 L 364.21 296.71 L 364.35 292.50 L 364.37 292.50 L 364.60 292.42 L 364.65 292.42 L 364.69 292.40 L 364.89 292.40 L 365.43 291.38 L 365.44 291.38 L 365.58 291.32 L 365.63 291.32 L 365.66 291.23 L 366.11 290.62 L 366.12 290.62 L 366.80 290.49 L 366.88 290.45 L 367.13 290.46 L 367.41 289.07 L 367.48 288.93 L 367.53 288.80 L 367.65 288.28 L 368.01 288.15 L 368.07 288.04 L 368.22 288.04 L 368.39 288.04 L 368.92 288.04 L 368.98 288.04 L 369.10 288.04 L 369.11 288.04 L 369.28 288.05 L 369.67 288.05 L 370.08 287.91 L 370.14 287.91 L 370.23 287.89 L 370.34 287.89 L 370.66 287.89 L 371.18 287.89 L 371.35 287.76 L 371.64 284.11 L 372.78 287.56 L 373.03 287.54 L 373.22 287.53 L 373.50 287.53 L 373.59 287.49 L 373.88 287.47 L 374.33 287.26 L 374.39 287.26 L 374.47 287.26 L 374.53 287.26 L 374.57 287.26 L 374.92 287.06 L 383.17 287.06 L 383.24 287.07 L 383.75 287.05 L 383.80 287.05 L 383.92 287.01 L 384.01 286.76 L 384.03 286.76 L 384.31 286.73 L 384.38 286.73 L 386.07 286.52 L 386.27 286.52 L 386.41 286.52 L 386.44 286.52 L 386.97 286.37 L 387.15 286.37 L 387.18 286.37 L 387.46 286.36 L 387.77 285.50 L 387.81 285.50 L 388.06 285.35 L 388.17 285.35 L 388.26 285.35 L 388.48 285.35 L 388.94 285.34 L 389.02 285.32 L 389.11 285.24 L 389.29 285.09 L 389.75 284.96 L 390.15 281.51 L 390.23 281.39 L 390.65 281.23 L 390.72 281.19 L 390.78 281.06 L 390.83 280.82 L 390.97 279.79 L 391.00 279.83 L 391.07 279.81 L 391.30 279.81 L 391.66 279.67 L 391.88 279.61 L 392.14 279.60 L 392.26 279.58 L 392.51 279.57 L 392.92 279.57 L 393.34 279.56 L 393.66 279.56 L 393.73 279.55 L 393.81 279.55 L 393.81 279.54 L 394.06 279.54 L 394.13 279.53 L 394.22 279.40 L 394.90 279.39 L 394.91 279.39 L 395.10 279.37 L 395.89 279.37 L 396.41 279.20 L 396.79 279.05 L 396.80 279.05 L 396.83 279.05 L 408.38 279.05 L 408.42 279.05 L 408.55 279.05 L 408.61 279.05 L 408.65 279.03 L 408.66 279.03 L 409.15 279.03 L 409.26 279.02 L 409.41 279.00 L 409.66 278.97 L 409.82 278.97 L 410.01 278.89 L 410.12 278.89 L 410.18 278.89 L 410.23 278.89 L 410.38 278.57 L 410.40 278.57 L 410.45 278.57 L 410.57 278.57 L 410.65 278.57 L 410.76 278.65 L 410.90 278.65 L 411.18 278.64 L 411.31 278.64 L 411.42 278.64 L 412.12 277.62 L 412.73 277.35 L 413.46 276.63 L 413.65 276.63 L 413.86 276.63 L 414.08 276.63 L 418.33 276.54 L 418.68 276.53 L 458.90 276.40 L 585.56 276.22 L 585.98 276.16 L 586.27 276.15 L 586.56 276.15 L 587.00 275.68 L 587.15 275.68 L 587.26 275.68 L 587.46 273.98 L 587.76 274.31 L 587.99 274.28 L 588.05 274.28 L 588.24 274.27 L 588.29 274.27 L 588.49 274.26 L 588.68 274.19 L 589.26 273.11 L 589.27 273.11 L 589.44 273.02 L 589.98 269.54 L 590.00 269.54 L 590.10 269.54 L 590.23 269.48 L 590.82 267.87 L 590.84 267.87 L 590.97 267.87 L 591.10 267.83 L 591.32 267.23 L 591.34 267.23 L 591.43 267.23 L 591.45 267.23 L 591.50 266.90 L 591.75 264.60 L 591.78 264.60 L 591.87 264.60 L 592.14 264.41 L 592.19 264.41 L 592.40 264.03 L 592.76 264.03 L 592.81 264.03 L 592.86 264.03 L 592.92 264.03 L 593.09 264.02 L 593.28 262.98 L 593.31 262.98 L 593.41 262.98 L 593.52 262.19 L 593.55 262.19 L 593.66 261.36 L 593.71 261.31 L 593.93 260.49 L 593.96 260.49 L 594.06 260.49 L 594.22 260.47 L 595.13 260.47 L 595.58 260.46 L 605.47 260.46 L 605.58 260.46 L 605.67 260.46 L 605.84 260.46 L 606.21 260.24 L 606.24 260.24 L 606.31 260.18 L 606.55 259.03 L 606.57 259.03 L 608.73 259.05 L 608.86 258.82 L 609.95 258.82 L 610.07 258.82 L 610.20 258.73 L 611.51 257.79 L 612.07 257.61 L 612.21 257.54 L 612.68 255.75 L 612.98 255.75 L 613.46 255.60 L 614.33 255.60 L 627.57 255.59 L 628.36 255.49 L 628.40 255.51 L 629.51 255.51 L 629.56 255.51 L 629.95 255.51 L 630.40 255.47 L 630.41 255.47 L 630.45 255.47 L 631.04 254.42 L 632.40 254.40 L 632.49 254.39 L 632.63 254.39 L 632.84 254.35 L 632.90 254.32 L 632.98 254.32 L 633.61 254.27 L 634.12 254.27 L 634.39 254.26 L 634.43 254.26 L 634.99 254.24 L 635.43 254.12 L 635.45 254.12 L 635.50 254.12 L 635.56 254.12 L 649.93 253.88 L 649.96 253.88 L 650.00 253.88"/>
	</g>
	<g id="poloto_plot2" class="poloto_plot poloto_imgs poloto_line poloto2 poloto_stroke" fill="none" stroke="black">
		<path d=" M 150.00 390.75 L 150.03 390.74 L 150.05 390.74 L 150.06 390.74 L 150.09 390.74 L 150.12 388.37 L 150.26 388.04 L 150.57 388.04 L 151.03 388.02 L 151.26 386.61 L 151.73 386.48 L 151.81 386.44 L 151.87 386.40 L 152.42 385.77 L 153.44 385.27 L 153.76 385.18 L 153.85 385.18 L 154.47 385.14 L 155.18 385.14 L 155.18 385.14 L 155.19 385.14 L 164.80 385.14 L 164.87 385.14 L 164.99 385.12 L 165.04 385.12 L 165.41 384.98 L 165.58 384.94 L 165.98 384.70 L 166.04 384.60 L 166.16 384.39 L 166.28 384.37 L 166.31 384.36 L 166.41 384.32 L 166.52 384.32 L 166.62 384.33 L 166.89 384.09 L 167.13 383.87 L 167.17 383.87 L 167.29 383.74 L 168.05 383.46 L 168.07 383.46 L 168.16 383.37 L 168.60 383.05 L 168.95 382.67 L 169.34 382.51 L 169.43 382.51 L 169.44 382.51 L 169.51 382.30 L 169.66 382.30 L 169.85 382.27 L 170.23 382.11 L 170.25 381.83 L 170.32 381.83 L 170.41 381.70 L 170.63 381.70 L 170.65 381.70 L 170.88 381.28 L 170.97 381.26 L 171.05 381.22 L 171.13 381.03 L 172.30 380.91 L 172.59 380.87 L 173.24 380.58 L 173.38 380.59 L 173.48 380.57 L 173.54 380.35 L 173.98 379.19 L 174.18 379.18 L 174.42 378.83 L 174.53 378.80 L 174.80 378.64 L 174.92 378.59 L 175.08 378.34 L 175.23 378.13 L 175.74 378.13 L 175.76 378.11 L 175.78 377.94 L 175.96 376.82 L 184.88 376.71 L 185.80 376.37 L 185.83 376.32 L 186.92 376.05 L 187.01 376.04 L 187.11 375.83 L 187.38 375.70 L 187.50 375.44 L 187.55 375.23 L 187.68 374.81 L 188.00 374.80 L 188.01 374.80 L 188.14 374.51 L 188.26 374.51 L 188.39 374.20 L 188.57 373.96 L 188.64 373.83 L 188.66 373.83 L 188.82 373.55 L 188.84 373.54 L 189.01 373.28 L 189.04 373.28 L 189.29 373.19 L 189.33 373.19 L 189.42 373.09 L 189.53 373.07 L 189.68 373.07 L 189.74 373.05 L 190.24 372.80 L 190.25 372.81 L 190.35 372.31 L 190.57 372.29 L 190.77 372.13 L 190.83 372.13 L 190.93 372.13 L 190.98 372.09 L 191.09 371.40 L 191.65 370.81 L 191.71 370.50 L 191.90 370.47 L 191.96 370.39 L 192.00 370.38 L 192.09 370.23 L 192.18 369.68 L 192.38 369.60 L 192.52 369.58 L 192.63 369.31 L 192.69 369.30 L 193.20 369.09 L 193.47 368.95 L 193.55 368.82 L 193.79 368.81 L 193.81 368.81 L 193.83 368.78 L 193.98 367.80 L 194.10 367.79 L 194.51 367.64 L 194.58 367.25 L 194.66 367.24 L 194.77 367.08 L 194.78 366.99 L 194.83 366.92 L 194.86 366.88 L 194.92 366.88 L 194.98 366.80 L 195.14 365.69 L 195.26 365.57 L 195.38 365.24 L 195.54 365.22 L 195.72 365.11 L 195.90 364.76 L 196.03 363.79 L 196.29 363.72 L 196.29 363.31 L 196.44 363.21 L 208.89 363.21 L 209.13 363.21 L 209.71 362.75 L 209.84 362.75 L 209.93 362.75 L 209.95 362.63 L 210.17 362.44 L 210.31 362.40 L 210.40 362.28 L 210.48 362.20 L 210.53 362.16 L 210.76 362.10 L 211.21 362.19 L 211.32 361.88 L 211.41 361.80 L 211.51 361.79 L 212.09 361.73 L 212.17 361.68 L 212.21 361.68 L 212.25 361.62 L 212.37 361.57 L 212.47 361.46 L 212.89 361.17 L 213.49 361.05 L 213.71 360.99 L 214.37 360.81 L 214.69 360.36 L 214.80 360.29 L 214.94 359.93 L 215.13 359.48 L 215.43 359.36 L 215.86 359.35 L 216.42 359.33 L 216.51 359.16 L 216.92 359.05 L 217.18 358.91 L 217.27 358.79 L 217.43 358.75 L 217.55 358.44 L 219.03 358.30 L 220.43 358.30 L 232.96 358.26 L 233.04 358.10 L 233.11 357.99 L 233.50 357.82 L 234.67 357.52 L 234.72 357.47 L 234.89 357.26 L 235.46 357.18 L 235.73 356.59 L 236.15 356.58 L 236.24 356.56 L 236.34 355.98 L 237.06 355.44 L 237.15 355.44 L 237.30 355.41 L 237.46 355.36 L 237.54 355.16 L 237.94 354.26 L 238.09 354.03 L 238.16 354.01 L 238.25 353.92 L 238.43 353.57 L 238.50 352.67 L 238.68 352.30 L 239.23 352.09 L 239.28 351.64 L 239.33 351.64 L 239.42 351.56 L 239.55 351.44 L 239.60 351.40 L 239.65 351.36 L 239.92 350.31 L 239.98 349.69 L 240.30 349.58 L 240.48 348.53 L 240.60 348.34 L 241.57 346.69 L 241.69 346.66 L 278.51 346.19 L 278.54 346.19 L 292.61 346.05 L 293.38 345.88 L 293.54 345.88 L 293.74 345.79 L 293.81 345.66 L 293.90 345.63 L 300.00 345.61 L 300.80 343.73 L 301.10 343.56 L 301.26 342.91 L 305.06 342.83 L 305.09 342.77 L 305.32 342.76 L 306.46 342.64 L 306.53 342.42 L 306.67 342.35 L 307.07 342.25 L 307.12 342.22 L 307.28 341.86 L 307.45 341.75 L 307.48 341.47 L 319.30 341.12 L 319.39 340.26 L 319.86 340.03 L 319.87 339.71 L 319.95 339.45 L 320.05 339.05 L 320.18 338.02 L 320.38 337.45 L 320.55 336.71 L 320.71 336.71 L 320.77 336.14 L 321.01 336.10 L 321.82 335.57 L 322.15 335.32 L 322.21 335.16 L 322.28 335.16 L 322.32 334.97 L 322.43 334.33 L 322.77 334.26 L 322.82 334.26 L 323.02 333.84 L 323.10 333.84 L 323.13 333.60 L 323.21 333.45 L 323.26 333.45 L 323.30 333.11 L 323.56 332.91 L 323.67 332.58 L 323.82 332.56 L 323.92 332.39 L 323.96 332.13 L 324.22 331.99 L 324.29 331.85 L 324.34 331.85 L 324.41 331.84 L 324.45 331.58 L 324.48 331.59 L 324.50 331.59 L 324.63 331.50 L 324.67 331.21 L 324.80 331.21 L 324.89 331.14 L 325.16 331.11 L 325.49 331.08 L 325.50 331.08 L 325.59 331.07 L 325.89 331.07 L 326.03 331.07 L 326.18 331.07 L 326.33 331.02 L 326.43 330.67 L 326.85 330.67 L 326.89 330.47 L 326.94 330.47 L 326.97 330.23 L 327.25 330.15 L 327.29 330.10 L 327.49 330.10 L 345.69 330.04 L 346.73 329.94 L 346.76 329.94 L 346.96 329.94 L 346.98 329.94 L 347.11 329.53 L 347.21 329.52 L 347.30 329.41 L 347.43 329.34 L 347.46 329.31 L 347.51 329.29 L 347.71 329.25 L 348.10 329.17 L 348.35 328.62 L 348.63 328.59 L 348.64 328.56 L 348.69 328.10 L 348.72 328.10 L 349.26 328.10 L 349.28 328.05 L 349.36 327.63 L 349.59 327.58 L 349.74 327.56 L 349.77 327.55 L 349.78 327.51 L 349.85 327.47 L 349.89 327.04 L 349.91 327.03 L 350.04 327.03 L 350.05 327.00 L 350.34 326.95 L 351.12 326.94 L 351.30 326.90 L 351.36 326.89 L 351.40 326.75 L 351.44 326.75 L 351.55 326.27 L 363.99 326.12 L 364.01 325.98 L 364.11 325.88 L 364.14 325.86 L 364.21 325.45 L 364.35 325.35 L 364.37 325.32 L 364.60 325.32 L 364.65 325.32 L 364.69 324.91 L 364.89 324.86 L 365.43 324.84 L 365.44 324.82 L 365.58 324.59 L 365.63 324.60 L 365.66 324.22 L 366.11 324.22 L 366.12 324.20 L 366.80 324.10 L 366.88 323.65 L 367.13 323.65 L 367.41 323.65 L 367.48 323.31 L 367.53 323.05 L 367.65 323.04 L 368.01 322.98 L 368.07 322.97 L 368.22 322.86 L 368.39 322.86 L 368.92 322.86 L 368.98 322.86 L 369.10 322.84 L 369.11 322.84 L 369.28 322.84 L 369.67 322.81 L 370.08 322.76 L 370.14 322.76 L 370.23 322.71 L 370.34 322.59 L 370.66 322.59 L 371.18 322.44 L 371.35 322.18 L 371.64 322.16 L 372.78 321.88 L 373.03 321.88 L 373.22 321.87 L 373.50 321.87 L 373.59 321.85 L 373.88 321.71 L 374.33 321.69 L 374.39 321.56 L 374.47 321.50 L 374.53 321.52 L 374.57 321.47 L 374.92 321.45 L 383.17 321.44 L 383.24 321.44 L 383.75 321.44 L 383.80 321.43 L 383.92 321.05 L 384.01 321.03 L 384.03 321.03 L 384.31 321.02 L 384.38 321.00 L 386.07 320.44 L 386.27 320.38 L 386.41 320.37 L 386.44 320.37 L 386.97 320.35 L 387.15 320.43 L 387.18 320.43 L 387.46 320.39 L 387.77 319.86 L 387.81 319.85 L 388.06 319.83 L 388.17 319.83 L 388.26 319.83 L 388.48 319.72 L 388.94 319.24 L 389.02 319.24 L 389.11 319.17 L 389.29 318.73 L 389.75 318.25 L 390.15 318.28 L 390.23 318.02 L 390.65 318.02 L 390.72 317.99 L 390.78 317.96 L 390.83 317.71 L 390.97 317.70 L 391.00 317.70 L 391.07 317.70 L 391.30 317.70 L 391.66 317.49 L 391.88 317.47 L 392.14 317.47 L 392.26 317.47 L 392.51 317.47 L 392.92 317.47 L 393.34 317.47 L 393.66 317.47 L 393.73 317.46 L 393.81 317.46 L 393.81 317.37 L 394.06 317.30 L 394.13 317.30 L 394.22 317.29 L 394.90 317.28 L 394.91 317.03 L 395.10 317.03 L 395.89 317.04 L 396.41 317.03 L 396.79 316.98 L 396.80 316.88 L 396.83 316.88 L 408.38 316.71 L 408.42 316.70 L 408.55 316.69 L 408.61 316.54 L 408.65 316.54 L 408.66 316.53 L 409.15 316.48 L 409.26 315.97 L 409.41 315.86 L 409.66 314.86 L 409.82 314.85 L 410.01 314.42 L 410.12 314.47 L 410.18 314.46 L 410.23 313.92 L 410.38 313.82 L 410.40 313.44 L 410.45 313.39 L 410.57 313.35 L 410.65 313.16 L 410.76 315.41 L 410.90 315.38 L 411.18 314.47 L 411.31 314.28 L 411.42 314.07 L 412.12 313.72 L 412.73 313.34 L 413.46 312.81 L 413.65 312.75 L 413.86 312.75 L 414.08 312.70 L 418.33 312.43 L 418.68 312.41 L 458.90 311.70 L 585.56 311.68 L 585.98 311.36 L 586.27 311.31 L 586.56 311.31 L 587.00 311.03 L 587.15 310.69 L 587.26 310.07 L 587.46 309.91 L 587.76 309.97 L 587.99 309.61 L 588.05 309.60 L 588.24 309.49 L 588.29 309.49 L 588.49 308.89 L 588.68 307.96 L 589.26 307.88 L 589.27 307.78 L 589.44 306.59 L 589.98 306.54 L 590.00 306.43 L 590.10 306.36 L 590.23 305.28 L 590.82 305.22 L 590.84 305.07 L 590.97 304.99 L 591.10 304.29 L 591.32 304.26 L 591.34 304.15 L 591.43 302.97 L 591.45 302.94 L 591.50 302.90 L 591.75 302.90 L 591.78 302.78 L 591.87 302.69 L 592.14 302.58 L 592.19 302.58 L 592.40 302.52 L 592.76 302.56 L 592.81 302.51 L 592.86 302.48 L 592.92 302.44 L 593.09 301.22 L 593.28 301.19 L 593.31 301.09 L 593.41 299.83 L 593.52 299.38 L 593.55 299.22 L 593.66 298.61 L 593.71 297.54 L 593.93 297.53 L 593.96 297.47 L 594.06 297.25 L 594.22 297.25 L 595.13 297.21 L 595.58 297.19 L 605.47 297.24 L 605.58 297.00 L 605.67 296.82 L 605.84 295.97 L 606.21 295.96 L 606.24 295.87 L 606.31 294.80 L 606.55 294.79 L 606.57 294.69 L 608.73 294.59 L 608.86 294.20 L 609.95 294.01 L 610.07 293.97 L 610.20 292.78 L 611.51 292.44 L 612.07 292.16 L 612.21 291.27 L 612.68 291.26 L 612.98 290.77 L 613.46 290.00 L 614.33 289.54 L 627.57 289.53 L 628.36 289.52 L 628.40 289.52 L 629.51 289.35 L 629.56 289.25 L 629.95 289.18 L 630.40 288.18 L 630.41 288.18 L 630.45 288.14 L 631.04 287.93 L 632.40 287.27 L 632.49 287.20 L 632.63 287.19 L 632.84 286.91 L 632.90 286.87 L 632.98 286.82 L 633.61 286.82 L 634.12 286.82 L 634.39 286.82 L 634.43 286.77 L 634.99 285.76 L 635.43 285.67 L 635.45 285.59 L 635.50 285.49 L 635.56 285.24 L 649.93 285.05 L 649.96 285.03 L 650.00 285.01"/>
	</g>
	<g class="poloto_legend poloto_imgs poloto_line poloto0 poloto_stroke"><line x1="680" x2="730" y1="81.25" y2="81.25"/></g>
	<g class="poloto_legend poloto_imgs poloto_line poloto1 poloto_stroke"><line x1="680" x2="730" y1="131.25" y2="131.25"/></g>
	<g class="poloto_legend poloto_imgs poloto_line poloto2 poloto_stroke"><line x1="680" x2="730" y1="181.25" y2="181.25"/></g>
	<text class="poloto_legend poloto_text poloto_line poloto0" x="675" y="100">total</text>
	<text class="poloto_legend poloto_text poloto_line poloto1" x="675" y="150">code</text>
	<text class="poloto_legend poloto_text poloto_line poloto2" x="675" y="200">docs</text>
	<text class="poloto_text poloto_name poloto_title" x="400.00" y="37.50">Workspace lines over time</text>
	<text class="poloto_text poloto_name poloto_x" x="400.00" y="640">date (JST)</text>
	<text class="poloto_text poloto_name poloto_y" x="37.50" y="250.00" transform="rotate(-90,37.50,250.00)">lines</text>
	<text class="poloto_text poloto_ticks poloto_y">
		<tspan x="135.00" y="400.00">0</tspan>
		<tspan x="135.00" y="312.01">50K</tspan>
		<tspan x="135.00" y="224.02">100K</tspan>
		<tspan x="135.00" y="136.03">150K</tspan>
	</text>
	<g class="poloto_imgs poloto_ticks poloto_y" stroke="black">
		<line x1="150.00" x2="144.00" y1="400.00" y2="400.00"/>
		<line x1="150.00" x2="144.00" y1="312.01" y2="312.01"/>
		<line x1="150.00" x2="144.00" y1="224.02" y2="224.02"/>
		<line x1="150.00" x2="144.00" y1="136.03" y2="136.03"/>
	</g>
	<g class="poloto_text poloto_ticks poloto_x">
		<text x="232.80" y="430.00" text-anchor="end" transform="rotate(-90 232.80 430.00)">2026-04-24 12:06</text>
		<text x="360.25" y="430.00" text-anchor="end" transform="rotate(-90 360.25 430.00)">2026-04-30 07:00</text>
		<text x="487.70" y="430.00" text-anchor="end" transform="rotate(-90 487.70 430.00)">2026-05-06 01:53</text>
		<text x="615.15" y="430.00" text-anchor="end" transform="rotate(-90 615.15 430.00)">2026-05-11 20:46</text>
	</g>
	<g class="poloto_imgs poloto_ticks poloto_x" stroke="black">
		<line x1="232.80" x2="232.80" y1="400.00" y2="405.00"/>
		<line x1="360.25" x2="360.25" y1="400.00" y2="405.00"/>
		<line x1="487.70" x2="487.70" y1="400.00" y2="405.00"/>
		<line x1="615.15" x2="615.15" y1="400.00" y2="405.00"/>
	</g>
	<path class="poloto_imgs poloto_ticks poloto_x" stroke="black" style="stroke-dasharray:12.744945099874489;stroke-dashoffset:-82.79702604352497;" d=" M 150.00 400.00 L 650.00 400.00"/>
	<path class="poloto_imgs poloto_ticks poloto_y" stroke="black" style="stroke-dasharray:8.798944126704797;stroke-dashoffset:-0;" d=" M 150.00 400.00 L 150.00 100.00"/>
</svg>

