<svg class="poloto" width="800" height="680" viewBox="0 0 800 680" xmlns="http://www.w3.org/2000/svg">
	<style>
.poloto{
  stroke-linecap:round;
  stroke-linejoin:round;
  font-family:Roboto,sans-serif;
  font-size:16px;
}
.poloto_background{fill:AliceBlue;}
.poloto_scatter{stroke-width:7}
.poloto_line{stroke-width:2}
.poloto_text{fill: black;}
.poloto_name{font-size:24px;dominant-baseline:auto;text-anchor:middle;}
.poloto_where{dominant-baseline:middle;text-anchor:start}
.poloto_text.poloto_legend{font-size:20px;dominant-baseline:middle;text-anchor:start;}
.poloto_text.poloto_ticks.poloto_y{dominant-baseline:middle;text-anchor:end}
.poloto_text.poloto_ticks.poloto_x{dominant-baseline:auto;text-anchor:middle}
.poloto_imgs.poloto_ticks{stroke: black;stroke-width:3;fill:none;stroke-dasharray:none}
.poloto_grid{stroke:gray;stroke-width:0.5}

.poloto0.poloto_stroke{stroke:blue;}
.poloto1.poloto_stroke{stroke:red;}
.poloto2.poloto_stroke{stroke:green;}
.poloto3.poloto_stroke{stroke:gold;}
.poloto4.poloto_stroke{stroke:aqua;}
.poloto5.poloto_stroke{stroke:lime;}
.poloto6.poloto_stroke{stroke:orange;}
.poloto7.poloto_stroke{stroke:chocolate;}
.poloto0.poloto_fill{fill:blue;}
.poloto1.poloto_fill{fill:red;}
.poloto2.poloto_fill{fill:green;}
.poloto3.poloto_fill{fill:gold;}
.poloto4.poloto_fill{fill:aqua;}
.poloto5.poloto_fill{fill:lime;}
.poloto6.poloto_fill{fill:orange;}
.poloto7.poloto_fill{fill:chocolate;}
	</style>
	<circle r="1e5" class="poloto_background" fill="white"/>
	<g id="poloto_plot0" class="poloto_plot poloto_imgs poloto_line poloto0 poloto_stroke" fill="none" stroke="black">
		<path d=" M 150.00 369.28 L 150.03 369.26 L 150.04 369.24 L 150.05 369.24 L 150.08 369.24 L 150.11 365.91 L 150.23 365.51 L 150.52 365.49 L 150.93 365.21 L 151.14 363.52 L 151.57 363.41 L 151.64 363.33 L 151.70 363.29 L 152.19 362.46 L 153.12 361.79 L 153.41 359.17 L 153.49 359.18 L 154.05 359.07 L 154.69 359.06 L 154.70 359.06 L 154.70 359.06 L 163.42 359.06 L 163.48 359.06 L 163.59 359.03 L 163.64 359.00 L 163.97 358.85 L 164.12 358.81 L 164.49 358.57 L 164.54 358.46 L 164.65 358.23 L 164.76 358.19 L 164.79 358.19 L 164.88 358.13 L 164.98 358.13 L 165.07 358.13 L 165.31 357.74 L 165.53 357.50 L 165.57 357.50 L 165.67 357.36 L 166.36 357.96 L 166.38 357.96 L 166.46 357.86 L 166.86 357.41 L 167.18 356.88 L 167.53 356.64 L 167.61 356.60 L 167.62 356.60 L 167.69 356.39 L 167.82 356.39 L 168.00 356.32 L 168.34 356.12 L 168.36 355.81 L 168.42 355.81 L 168.50 355.64 L 168.70 355.64 L 168.72 355.64 L 168.93 355.20 L 169.01 355.17 L 169.08 355.14 L 169.16 354.96 L 170.22 354.71 L 170.48 354.67 L 171.07 354.35 L 171.19 354.35 L 171.28 354.34 L 171.34 354.11 L 171.74 352.79 L 171.92 352.76 L 172.13 352.32 L 172.24 352.28 L 172.48 351.91 L 172.59 351.78 L 172.73 351.54 L 172.87 351.33 L 173.34 348.28 L 173.35 348.21 L 173.37 348.02 L 173.53 346.56 L 181.62 346.45 L 182.45 344.78 L 182.48 344.74 L 183.47 344.48 L 183.55 344.47 L 183.64 344.14 L 183.89 343.98 L 184.00 343.69 L 184.04 343.44 L 184.16 343.00 L 184.45 343.00 L 184.46 342.70 L 184.57 342.37 L 184.68 342.37 L 184.81 342.00 L 184.96 341.74 L 185.03 341.61 L 185.05 341.60 L 185.19 341.31 L 185.21 341.31 L 185.36 341.02 L 185.39 341.01 L 185.62 339.64 L 185.66 339.64 L 185.74 339.41 L 185.84 339.40 L 185.97 339.40 L 186.03 339.37 L 186.48 339.11 L 186.49 339.11 L 186.58 338.50 L 186.78 338.49 L 186.96 337.57 L 187.02 337.49 L 187.10 337.48 L 187.15 337.45 L 187.25 336.74 L 187.75 330.76 L 187.81 330.47 L 187.98 330.44 L 188.03 330.37 L 188.07 330.35 L 188.16 330.19 L 188.24 329.51 L 188.42 329.37 L 188.54 329.36 L 188.64 329.06 L 188.70 329.05 L 189.16 328.83 L 189.41 328.66 L 189.48 328.39 L 189.69 328.38 L 189.71 328.38 L 189.73 328.35 L 189.87 326.91 L 189.97 326.83 L 190.35 325.38 L 190.41 324.96 L 190.48 324.95 L 190.58 324.79 L 190.59 324.68 L 190.63 324.61 L 190.67 324.57 L 190.72 324.57 L 190.77 324.49 L 190.92 323.31 L 191.03 323.13 L 191.14 322.78 L 191.28 322.76 L 191.45 322.65 L 191.61 321.81 L 191.72 320.64 L 191.96 320.58 L 191.96 320.15 L 192.10 320.00 L 203.38 320.00 L 203.60 319.99 L 204.13 319.38 L 204.24 319.36 L 204.33 319.36 L 204.35 319.21 L 204.54 319.02 L 204.67 318.99 L 204.75 318.87 L 204.83 318.79 L 204.88 318.75 L 205.08 318.69 L 205.49 318.62 L 205.59 318.30 L 205.67 318.22 L 205.76 318.21 L 206.29 318.05 L 206.36 317.96 L 206.39 317.96 L 206.43 317.84 L 206.54 317.79 L 206.63 317.67 L 207.01 316.89 L 207.55 316.77 L 207.75 316.72 L 208.36 316.52 L 208.64 312.76 L 208.74 312.68 L 208.87 312.31 L 209.04 311.82 L 209.32 311.68 L 209.70 311.66 L 210.21 311.65 L 210.29 311.49 L 210.66 311.31 L 210.90 311.04 L 210.98 310.93 L 211.13 310.89 L 211.24 310.55 L 212.57 310.18 L 213.84 310.18 L 225.20 310.15 L 225.28 309.99 L 225.34 309.88 L 225.70 309.72 L 226.76 308.42 L 226.80 308.34 L 226.95 308.00 L 227.47 307.92 L 227.72 307.04 L 228.09 307.03 L 228.18 307.02 L 228.26 306.42 L 228.92 303.00 L 229.00 302.99 L 229.14 302.96 L 229.29 302.92 L 229.36 302.55 L 229.72 301.26 L 229.85 301.02 L 229.92 301.00 L 230.00 300.41 L 230.16 299.57 L 230.23 298.68 L 230.39 298.28 L 230.89 293.83 L 230.93 293.38 L 230.98 293.38 L 231.06 293.30 L 231.18 293.19 L 231.23 293.15 L 231.27 293.10 L 231.51 292.03 L 231.57 291.28 L 231.85 291.13 L 232.03 290.01 L 232.13 289.31 L 233.01 278.94 L 233.12 278.91 L 266.49 278.42 L 266.53 278.42 L 279.28 278.27 L 279.98 277.99 L 280.12 277.99 L 280.31 277.91 L 280.37 277.78 L 280.44 277.74 L 285.98 277.67 L 286.71 275.70 L 286.98 275.52 L 287.12 274.80 L 290.57 274.65 L 290.59 274.45 L 290.80 274.43 L 291.83 273.19 L 291.89 272.96 L 292.02 272.88 L 292.39 272.80 L 292.43 272.77 L 292.58 272.39 L 292.73 272.29 L 292.76 272.01 L 303.48 271.63 L 303.56 270.57 L 303.98 270.34 L 303.99 268.56 L 304.07 268.29 L 304.16 267.86 L 304.27 266.63 L 304.46 265.98 L 304.61 265.22 L 304.75 265.21 L 304.80 264.63 L 305.02 264.58 L 305.76 261.72 L 306.06 261.41 L 306.11 261.23 L 306.17 261.22 L 306.21 261.03 L 306.31 260.32 L 306.62 259.99 L 306.66 259.94 L 306.85 257.42 L 306.92 257.41 L 306.95 257.14 L 307.01 256.94 L 307.06 256.93 L 307.10 256.55 L 307.34 255.19 L 307.44 254.80 L 307.57 254.75 L 307.66 251.11 L 307.70 250.81 L 307.93 248.73 L 308.00 248.57 L 308.04 248.57 L 308.10 248.56 L 308.14 248.27 L 308.17 248.28 L 308.19 248.27 L 308.31 244.59 L 308.35 244.27 L 308.46 244.25 L 308.54 244.19 L 308.79 244.09 L 309.08 243.94 L 309.09 243.94 L 309.17 243.90 L 309.45 243.83 L 309.58 243.83 L 309.71 243.83 L 309.85 242.23 L 309.94 241.84 L 310.32 241.84 L 310.35 241.58 L 310.40 241.58 L 310.43 241.31 L 310.68 238.99 L 310.72 238.93 L 310.90 238.92 L 327.40 238.85 L 328.34 238.73 L 328.37 238.73 L 328.55 238.73 L 328.57 238.73 L 328.69 238.27 L 328.78 238.25 L 328.86 238.02 L 328.97 237.97 L 329.01 237.93 L 329.05 237.91 L 329.22 237.66 L 329.58 237.43 L 329.81 236.68 L 330.06 235.97 L 330.07 235.93 L 330.11 235.27 L 330.15 235.25 L 330.64 234.85 L 330.65 234.81 L 330.72 234.28 L 330.94 234.22 L 331.07 234.17 L 331.10 233.23 L 331.11 233.18 L 331.17 234.08 L 331.20 233.53 L 331.22 233.51 L 331.34 232.25 L 331.35 232.21 L 331.61 232.11 L 332.32 232.09 L 332.48 232.05 L 332.54 232.04 L 332.57 231.87 L 332.61 231.87 L 332.71 231.25 L 343.99 230.05 L 344.00 229.89 L 344.10 229.77 L 344.13 229.54 L 344.19 219.05 L 344.31 214.75 L 344.33 214.72 L 344.54 214.64 L 344.58 214.64 L 344.62 214.15 L 344.80 214.10 L 345.29 213.08 L 345.30 213.06 L 345.43 212.75 L 345.47 212.76 L 345.50 212.25 L 345.91 211.65 L 345.92 211.63 L 346.53 211.40 L 346.61 210.86 L 346.83 210.87 L 347.08 209.52 L 347.15 208.98 L 347.19 208.55 L 347.31 208.03 L 347.63 207.85 L 347.69 207.71 L 347.82 207.60 L 347.98 207.60 L 348.45 207.60 L 348.51 207.60 L 348.61 207.57 L 348.62 207.57 L 348.78 207.58 L 349.13 207.56 L 349.50 207.36 L 349.56 207.36 L 349.64 207.28 L 349.75 207.14 L 350.03 207.14 L 350.51 206.95 L 350.66 206.53 L 350.92 202.91 L 351.96 205.97 L 352.18 205.96 L 352.35 205.94 L 352.61 205.94 L 352.69 205.88 L 352.95 205.71 L 353.36 205.46 L 353.41 205.29 L 353.49 205.22 L 353.54 205.24 L 353.58 205.19 L 353.90 204.96 L 361.37 204.96 L 361.44 204.96 L 361.90 204.95 L 361.95 204.93 L 362.05 204.47 L 362.14 204.21 L 362.15 204.21 L 362.41 204.17 L 362.47 204.15 L 364.00 203.47 L 364.18 203.41 L 364.31 203.39 L 364.34 203.39 L 364.82 203.23 L 364.98 203.31 L 365.01 203.30 L 365.26 203.26 L 365.54 201.83 L 365.58 201.82 L 365.81 201.66 L 365.90 201.66 L 365.99 201.66 L 366.19 201.50 L 366.60 200.92 L 366.68 200.90 L 366.76 200.74 L 366.93 200.06 L 367.34 199.35 L 367.70 196.02 L 367.78 195.61 L 368.15 195.45 L 368.22 195.37 L 368.28 195.21 L 368.31 194.67 L 368.44 193.72 L 368.47 193.75 L 368.53 193.74 L 368.75 193.73 L 369.07 193.38 L 369.27 193.31 L 369.50 193.30 L 369.61 193.29 L 369.84 193.27 L 370.22 193.27 L 370.59 193.27 L 370.88 193.26 L 370.94 193.25 L 371.02 193.24 L 371.02 193.12 L 371.24 193.06 L 371.30 193.04 L 371.39 192.90 L 372.01 192.88 L 372.02 192.59 L 372.18 192.58 L 372.90 192.58 L 373.38 192.41 L 373.72 192.19 L 373.73 192.08 L 373.76 192.08 L 384.23 191.88 L 384.26 191.87 L 384.38 191.86 L 384.44 191.70 L 384.48 191.68 L 384.48 191.67 L 384.93 191.62 L 385.03 191.02 L 385.16 190.88 L 385.38 189.70 L 385.53 189.69 L 385.71 189.18 L 385.81 189.24 L 385.86 189.24 L 385.91 188.66 L 386.04 188.27 L 386.06 187.85 L 386.10 187.79 L 386.21 187.76 L 386.29 187.56 L 386.38 189.83 L 386.51 189.78 L 386.77 188.88 L 386.88 188.66 L 386.98 188.47 L 387.62 187.17 L 388.17 186.54 L 388.83 185.34 L 389.00 185.28 L 389.19 185.28 L 389.40 185.23 L 393.24 184.89 L 393.56 184.86 L 430.02 183.94 L 544.84 183.73 L 545.22 183.36 L 545.49 183.31 L 545.75 183.31 L 546.15 182.61 L 546.28 182.27 L 546.39 181.63 L 546.57 179.81 L 546.84 180.18 L 547.05 179.79 L 547.10 179.78 L 547.28 179.66 L 547.32 179.66 L 547.50 178.99 L 547.67 177.92 L 548.19 176.78 L 548.21 176.69 L 548.36 175.33 L 548.85 171.97 L 548.87 171.86 L 548.96 171.79 L 549.08 170.59 L 549.62 168.97 L 549.63 168.82 L 549.74 168.75 L 549.87 167.95 L 550.07 167.32 L 550.08 167.20 L 550.17 165.97 L 550.18 165.94 L 550.23 165.60 L 550.46 163.41 L 550.49 163.29 L 550.56 163.16 L 550.81 162.87 L 550.86 162.86 L 551.05 162.44 L 551.37 162.49 L 551.41 162.43 L 551.46 162.41 L 551.51 162.37 L 551.67 161.09 L 551.84 160.04 L 551.87 159.95 L 551.96 158.64 L 552.06 157.36 L 552.08 157.20 L 552.18 155.70 L 552.23 154.53 L 552.43 153.73 L 552.46 153.68 L 552.55 153.43 L 552.69 153.41 L 553.52 153.38 L 553.93 153.34 L 562.90 153.39 L 562.99 153.16 L 563.08 152.96 L 563.23 152.08 L 563.56 151.86 L 563.59 151.77 L 563.65 150.60 L 563.87 149.48 L 563.89 149.38 L 565.85 149.30 L 565.97 148.67 L 566.96 148.48 L 567.07 148.43 L 567.18 147.12 L 568.37 145.89 L 568.88 145.42 L 569.00 144.46 L 569.43 142.81 L 569.70 142.33 L 570.14 141.36 L 570.93 140.87 L 582.93 140.86 L 583.65 140.75 L 583.68 140.77 L 584.68 140.58 L 584.73 140.48 L 585.09 140.41 L 585.49 139.33 L 585.50 139.33 L 585.54 139.29 L 586.08 138.06 L 587.31 137.36 L 587.39 137.30 L 587.52 137.29 L 587.70 136.97 L 587.76 136.88 L 587.83 136.82 L 588.40 136.77 L 588.86 136.77 L 589.11 136.77 L 589.14 136.72 L 589.66 135.65 L 590.05 135.45 L 590.07 135.37 L 590.12 135.28 L 590.17 134.99 L 603.20 134.58 L 603.22 134.56 L 603.26 134.54 L 603.51 134.42 L 603.71 134.29 L 604.86 132.64 L 605.14 132.44 L 605.97 131.95 L 606.68 131.83 L 607.21 131.67 L 607.36 130.15 L 608.02 128.36 L 608.26 128.23 L 608.35 127.09 L 610.27 124.97 L 610.29 124.97 L 610.40 124.45 L 610.76 124.39 L 610.77 124.39 L 610.79 124.27 L 610.86 124.10 L 611.02 123.94 L 611.23 123.05 L 613.23 120.91 L 613.49 120.65 L 613.67 120.27 L 613.70 120.22 L 613.74 119.92 L 622.61 118.95 L 622.89 118.22 L 623.06 118.18 L 623.13 117.70 L 623.96 117.47 L 624.14 116.98 L 624.29 116.98 L 624.39 115.96 L 624.67 113.35 L 624.71 113.30 L 625.09 113.26 L 625.17 112.41 L 625.49 111.39 L 625.56 110.68 L 625.82 110.03 L 626.02 109.68 L 626.17 108.90 L 626.50 108.24 L 626.54 107.49 L 626.96 107.32 L 627.00 107.32 L 627.07 106.38 L 627.16 106.38 L 627.21 106.30 L 627.70 104.53 L 628.42 103.95 L 628.77 104.14 L 629.95 104.05 L 629.98 104.05 L 630.16 104.03 L 630.24 104.01 L 630.37 103.89 L 630.52 103.78 L 630.67 103.59 L 631.02 103.33 L 631.36 103.32 L 632.41 103.14 L 632.46 103.13 L 633.51 102.96 L 633.96 102.85 L 642.94 102.83 L 643.39 102.70 L 643.61 102.62 L 643.71 102.62 L 643.74 102.62 L 643.96 102.59 L 644.07 102.54 L 644.33 102.37 L 644.49 102.33 L 645.08 102.15 L 645.38 101.75 L 645.89 101.69 L 646.03 101.44 L 646.20 101.28 L 646.42 101.08 L 647.20 101.13 L 647.27 101.11 L 648.40 100.62 L 648.58 100.33 L 648.80 100.23 L 649.35 100.00 L 649.61 100.06 L 649.74 100.45 L 649.85 100.43 L 650.00 100.27"/>
	</g>
	<g id="poloto_plot1" class="poloto_plot poloto_imgs poloto_line poloto1 poloto_stroke" fill="none" stroke="black">
		<path d=" M 150.00 381.75 L 150.03 381.73 L 150.04 381.72 L 150.05 381.72 L 150.08 381.72 L 150.11 381.14 L 150.23 381.12 L 150.52 381.11 L 150.93 380.89 L 151.14 380.80 L 151.57 380.82 L 151.64 380.78 L 151.70 380.78 L 152.19 380.73 L 153.12 380.63 L 153.41 378.37 L 153.49 378.37 L 154.05 378.32 L 154.69 378.31 L 154.70 378.31 L 154.70 378.31 L 163.42 378.31 L 163.48 378.31 L 163.59 378.30 L 163.64 378.27 L 163.97 378.26 L 164.12 378.26 L 164.49 378.26 L 164.54 378.26 L 164.65 378.24 L 164.76 378.24 L 164.79 378.24 L 164.88 378.22 L 164.98 378.22 L 165.07 378.22 L 165.31 378.09 L 165.53 378.09 L 165.57 378.09 L 165.67 378.09 L 166.36 378.94 L 166.38 378.94 L 166.46 378.93 L 166.86 378.80 L 167.18 378.66 L 167.53 378.60 L 167.61 378.55 L 167.62 378.55 L 167.69 378.55 L 167.82 378.55 L 168.00 378.50 L 168.34 378.45 L 168.36 378.45 L 168.42 378.45 L 168.50 378.43 L 168.70 378.43 L 168.72 378.43 L 168.93 378.42 L 169.01 378.42 L 169.08 378.42 L 169.16 378.42 L 170.22 378.32 L 170.48 378.31 L 171.07 378.27 L 171.19 378.27 L 171.28 378.27 L 171.34 378.27 L 171.74 378.20 L 171.92 378.20 L 172.13 378.12 L 172.24 378.11 L 172.48 377.93 L 172.59 377.86 L 172.73 377.86 L 172.87 377.86 L 173.34 375.22 L 173.35 375.17 L 173.37 375.17 L 173.53 374.92 L 181.62 374.92 L 182.45 373.78 L 182.48 373.78 L 183.47 373.78 L 183.55 373.78 L 183.64 373.66 L 183.89 373.64 L 184.00 373.64 L 184.04 373.64 L 184.16 373.64 L 184.45 373.64 L 184.46 373.39 L 184.57 373.38 L 184.68 373.38 L 184.81 373.36 L 184.96 373.35 L 185.03 373.35 L 185.05 373.35 L 185.19 373.35 L 185.21 373.35 L 185.36 373.35 L 185.39 373.35 L 185.62 372.23 L 185.66 372.23 L 185.74 372.10 L 185.84 372.10 L 185.97 372.10 L 186.03 372.09 L 186.48 372.08 L 186.49 372.08 L 186.58 372.01 L 186.78 372.01 L 186.96 371.37 L 187.02 371.29 L 187.10 371.29 L 187.15 371.29 L 187.25 371.27 L 187.75 366.56 L 187.81 366.60 L 187.98 366.60 L 188.03 366.60 L 188.07 366.59 L 188.16 366.59 L 188.24 366.53 L 188.42 366.53 L 188.54 366.53 L 188.64 366.52 L 188.70 366.52 L 189.16 366.51 L 189.41 366.51 L 189.48 366.39 L 189.69 366.39 L 189.71 366.39 L 189.73 366.39 L 189.87 366.08 L 189.97 365.99 L 190.35 364.87 L 190.41 364.87 L 190.48 364.87 L 190.58 364.89 L 190.59 364.89 L 190.63 364.89 L 190.67 364.89 L 190.72 364.89 L 190.77 364.89 L 190.92 364.87 L 191.03 364.87 L 191.14 364.85 L 191.28 364.85 L 191.45 364.85 L 191.61 364.43 L 191.72 364.29 L 191.96 364.29 L 191.96 364.28 L 192.10 364.28 L 203.38 364.28 L 203.60 364.28 L 204.13 364.21 L 204.24 364.19 L 204.33 364.19 L 204.35 364.19 L 204.54 364.19 L 204.67 364.19 L 204.75 364.19 L 204.83 364.19 L 204.88 364.19 L 205.08 364.19 L 205.49 364.21 L 205.59 364.21 L 205.67 364.21 L 205.76 364.21 L 206.29 364.12 L 206.36 364.08 L 206.39 364.08 L 206.43 364.02 L 206.54 364.02 L 206.63 364.01 L 207.01 363.59 L 207.55 363.59 L 207.75 363.59 L 208.36 363.59 L 208.64 360.70 L 208.74 360.70 L 208.87 360.70 L 209.04 360.69 L 209.32 360.69 L 209.70 360.69 L 210.21 360.69 L 210.29 360.69 L 210.66 360.62 L 210.90 360.50 L 210.98 360.50 L 211.13 360.50 L 211.24 360.49 L 212.57 360.30 L 213.84 360.30 L 225.20 360.30 L 225.28 360.30 L 225.34 360.30 L 225.70 360.30 L 226.76 359.39 L 226.80 359.36 L 226.95 359.27 L 227.47 359.26 L 227.72 359.05 L 228.09 359.05 L 228.18 359.05 L 228.26 359.05 L 228.92 356.52 L 229.00 356.52 L 229.14 356.52 L 229.29 356.52 L 229.36 356.35 L 229.72 356.05 L 229.85 356.05 L 229.92 356.05 L 230.00 355.58 L 230.16 355.12 L 230.23 355.12 L 230.39 355.11 L 230.89 351.34 L 230.93 351.34 L 230.98 351.34 L 231.06 351.34 L 231.18 351.34 L 231.23 351.34 L 231.27 351.34 L 231.51 351.34 L 231.57 351.25 L 231.85 351.24 L 232.03 351.18 L 232.13 350.73 L 233.01 343.22 L 233.12 343.22 L 266.49 343.22 L 266.53 343.22 L 279.28 343.22 L 279.98 343.11 L 280.12 343.11 L 280.31 343.11 L 280.37 343.11 L 280.44 343.11 L 285.98 343.05 L 286.71 342.98 L 286.98 342.98 L 287.12 342.95 L 290.57 342.89 L 290.59 342.79 L 290.80 342.79 L 291.83 341.77 L 291.89 341.77 L 292.02 341.77 L 292.39 341.77 L 292.43 341.77 L 292.58 341.77 L 292.73 341.77 L 292.76 341.77 L 303.48 341.75 L 303.56 341.57 L 303.98 341.57 L 303.99 340.35 L 304.07 340.35 L 304.16 340.35 L 304.27 340.23 L 304.46 340.23 L 304.61 340.18 L 304.75 340.18 L 304.80 340.18 L 305.02 340.17 L 305.76 338.08 L 306.06 338.08 L 306.11 338.07 L 306.17 338.07 L 306.21 338.07 L 306.31 338.04 L 306.62 337.78 L 306.66 337.74 L 306.85 335.87 L 306.92 335.86 L 306.95 335.86 L 307.01 335.84 L 307.06 335.84 L 307.10 335.83 L 307.34 334.81 L 307.44 334.80 L 307.57 334.78 L 307.66 331.61 L 307.70 331.61 L 307.93 329.82 L 308.00 329.82 L 308.04 329.82 L 308.10 329.82 L 308.14 329.82 L 308.17 329.82 L 308.19 329.82 L 308.31 326.52 L 308.35 326.52 L 308.46 326.51 L 308.54 326.51 L 308.79 326.44 L 309.08 326.35 L 309.09 326.35 L 309.17 326.33 L 309.45 326.28 L 309.58 326.28 L 309.71 326.28 L 309.85 324.86 L 309.94 324.86 L 310.32 324.85 L 310.35 324.84 L 310.40 324.84 L 310.43 324.84 L 310.68 322.81 L 310.72 322.81 L 310.90 322.80 L 327.40 322.80 L 328.34 322.79 L 328.37 322.79 L 328.55 322.79 L 328.57 322.79 L 328.69 322.79 L 328.78 322.79 L 328.86 322.68 L 328.97 322.68 L 329.01 322.68 L 329.05 322.68 L 329.22 322.50 L 329.58 322.38 L 329.81 322.27 L 330.06 321.69 L 330.07 321.69 L 330.11 321.55 L 330.15 321.53 L 330.64 321.18 L 330.65 321.18 L 330.72 321.13 L 330.94 321.13 L 331.07 321.09 L 331.10 320.25 L 331.11 320.25 L 331.17 321.08 L 331.20 321.04 L 331.22 321.02 L 331.34 319.89 L 331.35 319.89 L 331.61 319.85 L 332.32 319.85 L 332.48 319.85 L 332.54 319.85 L 332.57 319.85 L 332.61 319.85 L 332.71 319.77 L 343.99 318.84 L 344.00 318.84 L 344.10 318.83 L 344.13 318.63 L 344.19 308.60 L 344.31 304.88 L 344.33 304.88 L 344.54 304.81 L 344.58 304.81 L 344.62 304.79 L 344.80 304.79 L 345.29 303.88 L 345.30 303.88 L 345.43 303.83 L 345.47 303.83 L 345.50 303.75 L 345.91 303.21 L 345.92 303.21 L 346.53 303.10 L 346.61 303.06 L 346.83 303.07 L 347.08 301.84 L 347.15 301.72 L 347.19 301.60 L 347.31 301.14 L 347.63 301.03 L 347.69 300.93 L 347.82 300.93 L 347.98 300.93 L 348.45 300.93 L 348.51 300.93 L 348.61 300.93 L 348.62 300.93 L 348.78 300.94 L 349.13 300.94 L 349.50 300.81 L 349.56 300.81 L 349.64 300.80 L 349.75 300.80 L 350.03 300.80 L 350.51 300.80 L 350.66 300.69 L 350.92 297.45 L 351.96 300.50 L 352.18 300.49 L 352.35 300.48 L 352.61 300.48 L 352.69 300.45 L 352.95 300.43 L 353.36 300.24 L 353.41 300.24 L 353.49 300.24 L 353.54 300.24 L 353.58 300.24 L 353.90 300.06 L 361.37 300.06 L 361.44 300.07 L 361.90 300.05 L 361.95 300.05 L 362.05 300.02 L 362.14 299.80 L 362.15 299.79 L 362.41 299.77 L 362.47 299.77 L 364.00 299.59 L 364.18 299.59 L 364.31 299.59 L 364.34 299.59 L 364.82 299.45 L 364.98 299.45 L 365.01 299.45 L 365.26 299.45 L 365.54 298.68 L 365.58 298.68 L 365.81 298.55 L 365.90 298.55 L 365.99 298.55 L 366.19 298.55 L 366.60 298.54 L 366.68 298.52 L 366.76 298.45 L 366.93 298.32 L 367.34 298.20 L 367.70 295.15 L 367.78 295.05 L 368.15 294.90 L 368.22 294.87 L 368.28 294.76 L 368.31 294.55 L 368.44 293.63 L 368.47 293.67 L 368.53 293.65 L 368.75 293.65 L 369.07 293.52 L 369.27 293.47 L 369.50 293.46 L 369.61 293.45 L 369.84 293.44 L 370.22 293.44 L 370.59 293.43 L 370.88 293.43 L 370.94 293.42 L 371.02 293.42 L 371.02 293.41 L 371.24 293.41 L 371.30 293.40 L 371.39 293.29 L 372.01 293.27 L 372.02 293.27 L 372.18 293.26 L 372.90 293.26 L 373.38 293.11 L 373.72 292.98 L 373.73 292.98 L 373.76 292.98 L 384.23 292.98 L 384.26 292.98 L 384.38 292.98 L 384.44 292.98 L 384.48 292.96 L 384.48 292.96 L 384.93 292.96 L 385.03 292.95 L 385.16 292.93 L 385.38 292.91 L 385.53 292.91 L 385.71 292.83 L 385.81 292.83 L 385.86 292.83 L 385.91 292.83 L 386.04 292.56 L 386.06 292.56 L 386.10 292.56 L 386.21 292.56 L 386.29 292.56 L 386.38 292.62 L 386.51 292.62 L 386.77 292.61 L 386.88 292.61 L 386.98 292.61 L 387.62 291.71 L 388.17 291.47 L 388.83 290.83 L 389.00 290.83 L 389.19 290.83 L 389.40 290.83 L 393.24 290.75 L 393.56 290.75 L 430.02 290.64 L 544.84 290.47 L 545.22 290.42 L 545.49 290.41 L 545.75 290.41 L 546.15 290.00 L 546.28 290.00 L 546.39 290.00 L 546.57 288.49 L 546.84 288.78 L 547.05 288.76 L 547.10 288.76 L 547.28 288.75 L 547.32 288.75 L 547.50 288.74 L 547.67 288.67 L 548.19 287.72 L 548.21 287.72 L 548.36 287.64 L 548.85 284.56 L 548.87 284.56 L 548.96 284.56 L 549.08 284.51 L 549.62 283.08 L 549.63 283.08 L 549.74 283.08 L 549.87 283.04 L 550.07 282.52 L 550.08 282.52 L 550.17 282.51 L 550.18 282.51 L 550.23 282.22 L 550.46 280.19 L 550.49 280.19 L 550.56 280.19 L 550.81 280.02 L 550.86 280.02 L 551.05 279.68 L 551.37 279.68 L 551.41 279.68 L 551.46 279.68 L 551.51 279.68 L 551.67 279.67 L 551.84 278.76 L 551.87 278.76 L 551.96 278.75 L 552.06 278.06 L 552.08 278.06 L 552.18 277.32 L 552.23 277.28 L 552.43 276.55 L 552.46 276.55 L 552.55 276.55 L 552.69 276.53 L 553.52 276.53 L 553.93 276.53 L 562.90 276.53 L 562.99 276.53 L 563.08 276.53 L 563.23 276.53 L 563.56 276.34 L 563.59 276.34 L 563.65 276.28 L 563.87 275.26 L 563.89 275.26 L 565.85 275.28 L 565.97 275.08 L 566.96 275.08 L 567.07 275.07 L 567.18 275.00 L 568.37 274.16 L 568.88 274.00 L 569.00 273.95 L 569.43 272.36 L 569.70 272.36 L 570.14 272.23 L 570.93 272.23 L 582.93 272.22 L 583.65 272.13 L 583.68 272.15 L 584.68 272.15 L 584.73 272.15 L 585.09 272.15 L 585.49 272.11 L 585.50 272.11 L 585.54 272.11 L 586.08 271.18 L 587.31 271.16 L 587.39 271.16 L 587.52 271.15 L 587.70 271.12 L 587.76 271.09 L 587.83 271.09 L 588.40 271.05 L 588.86 271.05 L 589.11 271.04 L 589.14 271.04 L 589.66 271.03 L 590.05 270.92 L 590.07 270.92 L 590.12 270.92 L 590.17 270.92 L 603.20 270.70 L 603.22 270.70 L 603.26 270.70 L 603.51 270.70 L 603.71 270.70 L 604.86 269.78 L 605.14 269.73 L 605.97 269.66 L 606.68 269.61 L 607.21 269.61 L 607.36 269.61 L 608.02 268.22 L 608.26 268.18 L 608.35 268.14 L 610.27 267.16 L 610.29 267.16 L 610.40 267.15 L 610.76 267.14 L 610.77 267.14 L 610.79 267.14 L 610.86 267.11 L 611.02 267.07 L 611.23 266.96 L 613.23 265.36 L 613.49 265.28 L 613.67 265.28 L 613.70 265.28 L 613.74 265.28 L 622.61 265.28 L 622.89 265.26 L 623.06 265.26 L 623.13 265.26 L 623.96 265.26 L 624.14 265.26 L 624.29 265.26 L 624.39 265.23 L 624.67 263.12 L 624.71 263.11 L 625.09 263.12 L 625.17 263.10 L 625.49 262.29 L 625.56 262.24 L 625.82 261.71 L 626.02 261.71 L 626.17 261.66 L 626.50 261.17 L 626.54 261.17 L 626.96 259.61 L 627.00 259.61 L 627.07 259.60 L 627.16 259.60 L 627.21 259.60 L 627.70 258.03 L 628.42 257.89 L 628.77 257.89 L 629.95 257.85 L 629.98 257.84 L 630.16 257.84 L 630.24 257.84 L 630.37 257.84 L 630.52 257.84 L 630.67 257.83 L 631.02 257.81 L 631.36 257.81 L 632.41 257.74 L 632.46 257.74 L 633.51 257.69 L 633.96 257.65 L 642.94 257.67 L 643.39 257.59 L 643.61 257.51 L 643.71 257.51 L 643.74 257.51 L 643.96 257.50 L 644.07 257.50 L 644.33 257.50 L 644.49 257.49 L 645.08 257.35 L 645.38 257.07 L 645.89 257.05 L 646.03 256.86 L 646.20 256.77 L 646.42 256.69 L 647.20 256.77 L 647.27 256.77 L 648.40 256.48 L 648.58 256.48 L 648.80 256.48 L 649.35 256.45 L 649.61 256.59 L 649.74 256.59 L 649.85 256.59 L 650.00 256.59"/>
	</g>
	<g id="poloto_plot2" class="poloto_plot poloto_imgs poloto_line poloto2 poloto_stroke" fill="none" stroke="black">
		<path d=" M 150.00 391.81 L 150.03 391.80 L 150.04 391.80 L 150.05 391.80 L 150.08 391.80 L 150.11 389.71 L 150.23 389.42 L 150.52 389.42 L 150.93 389.40 L 151.14 388.15 L 151.57 388.04 L 151.64 388.00 L 151.70 387.97 L 152.19 387.41 L 153.12 386.97 L 153.41 386.88 L 153.49 386.89 L 154.05 386.85 L 154.69 386.85 L 154.70 386.85 L 154.70 386.85 L 163.42 386.85 L 163.48 386.85 L 163.59 386.83 L 163.64 386.83 L 163.97 386.71 L 164.12 386.67 L 164.49 386.47 L 164.54 386.38 L 164.65 386.19 L 164.76 386.17 L 164.79 386.16 L 164.88 386.13 L 164.98 386.13 L 165.07 386.13 L 165.31 385.92 L 165.53 385.73 L 165.57 385.73 L 165.67 385.62 L 166.36 385.36 L 166.38 385.36 L 166.46 385.28 L 166.86 385.00 L 167.18 384.66 L 167.53 384.52 L 167.61 384.52 L 167.62 384.53 L 167.69 384.33 L 167.82 384.33 L 168.00 384.31 L 168.34 384.17 L 168.36 383.92 L 168.42 383.92 L 168.50 383.81 L 168.70 383.81 L 168.72 383.81 L 168.93 383.44 L 169.01 383.41 L 169.08 383.38 L 169.16 383.21 L 170.22 383.11 L 170.48 383.07 L 171.07 382.82 L 171.19 382.82 L 171.28 382.81 L 171.34 382.62 L 171.74 381.59 L 171.92 381.58 L 172.13 381.27 L 172.24 381.24 L 172.48 381.10 L 172.59 381.05 L 172.73 380.83 L 172.87 380.65 L 173.34 380.65 L 173.35 380.63 L 173.37 380.48 L 173.53 379.49 L 181.62 379.39 L 182.45 379.09 L 182.48 379.05 L 183.47 378.80 L 183.55 378.80 L 183.64 378.62 L 183.89 378.49 L 184.00 378.27 L 184.04 378.08 L 184.16 377.71 L 184.45 377.70 L 184.46 377.70 L 184.57 377.45 L 184.68 377.44 L 184.81 377.17 L 184.96 376.96 L 185.03 376.84 L 185.05 376.84 L 185.19 376.59 L 185.21 376.59 L 185.36 376.36 L 185.39 376.35 L 185.62 376.27 L 185.66 376.27 L 185.74 376.19 L 185.84 376.17 L 185.97 376.17 L 186.03 376.16 L 186.48 375.93 L 186.49 375.94 L 186.58 375.49 L 186.78 375.48 L 186.96 375.34 L 187.02 375.34 L 187.10 375.34 L 187.15 375.30 L 187.25 374.69 L 187.75 374.17 L 187.81 373.89 L 187.98 373.87 L 188.03 373.80 L 188.07 373.79 L 188.16 373.66 L 188.24 373.17 L 188.42 373.10 L 188.54 373.08 L 188.64 372.84 L 188.70 372.83 L 189.16 372.65 L 189.41 372.52 L 189.48 372.41 L 189.69 372.40 L 189.71 372.40 L 189.73 372.38 L 189.87 371.50 L 189.97 371.50 L 190.35 371.37 L 190.41 371.02 L 190.48 371.01 L 190.58 370.87 L 190.59 370.79 L 190.63 370.73 L 190.67 370.69 L 190.72 370.69 L 190.77 370.62 L 190.92 369.64 L 191.03 369.54 L 191.14 369.24 L 191.28 369.22 L 191.45 369.12 L 191.61 368.82 L 191.72 367.96 L 191.96 367.90 L 191.96 367.53 L 192.10 367.44 L 203.38 367.45 L 203.60 367.44 L 204.13 367.04 L 204.24 367.04 L 204.33 367.04 L 204.35 366.94 L 204.54 366.76 L 204.67 366.73 L 204.75 366.63 L 204.83 366.55 L 204.88 366.52 L 205.08 366.46 L 205.49 366.54 L 205.59 366.27 L 205.67 366.20 L 205.76 366.19 L 206.29 366.14 L 206.36 366.09 L 206.39 366.09 L 206.43 366.04 L 206.54 365.99 L 206.63 365.89 L 207.01 365.64 L 207.55 365.53 L 207.75 365.49 L 208.36 365.32 L 208.64 364.92 L 208.74 364.86 L 208.87 364.54 L 209.04 364.14 L 209.32 364.04 L 209.70 364.03 L 210.21 364.01 L 210.29 363.86 L 210.66 363.76 L 210.90 363.64 L 210.98 363.54 L 211.13 363.50 L 211.24 363.23 L 212.57 363.10 L 213.84 363.10 L 225.20 363.07 L 225.28 362.92 L 225.34 362.82 L 225.70 362.67 L 226.76 362.41 L 226.80 362.37 L 226.95 362.18 L 227.47 362.11 L 227.72 361.59 L 228.09 361.58 L 228.18 361.56 L 228.26 361.05 L 228.92 360.57 L 229.00 360.57 L 229.14 360.54 L 229.29 360.50 L 229.36 360.32 L 229.72 359.53 L 229.85 359.33 L 229.92 359.31 L 230.00 359.23 L 230.16 358.92 L 230.23 358.12 L 230.39 357.79 L 230.89 357.61 L 230.93 357.21 L 230.98 357.21 L 231.06 357.14 L 231.18 357.03 L 231.23 357.00 L 231.27 356.96 L 231.51 356.03 L 231.57 355.49 L 231.85 355.38 L 232.03 354.46 L 232.13 354.28 L 233.01 352.83 L 233.12 352.81 L 266.49 352.38 L 266.53 352.38 L 279.28 352.26 L 279.98 352.11 L 280.12 352.11 L 280.31 352.03 L 280.37 351.91 L 280.44 351.89 L 285.98 351.87 L 286.71 350.21 L 286.98 350.06 L 287.12 349.48 L 290.57 349.41 L 290.59 349.36 L 290.80 349.35 L 291.83 349.25 L 291.89 349.05 L 292.02 348.99 L 292.39 348.90 L 292.43 348.88 L 292.58 348.55 L 292.73 348.46 L 292.76 348.21 L 303.48 347.90 L 303.56 347.14 L 303.98 346.94 L 303.99 346.65 L 304.07 346.42 L 304.16 346.07 L 304.27 345.15 L 304.46 344.65 L 304.61 344.00 L 304.75 344.00 L 304.80 343.49 L 305.02 343.46 L 305.76 342.99 L 306.06 342.76 L 306.11 342.63 L 306.17 342.62 L 306.21 342.46 L 306.31 341.89 L 306.62 341.83 L 306.66 341.83 L 306.85 341.46 L 306.92 341.46 L 306.95 341.25 L 307.01 341.11 L 307.06 341.11 L 307.10 340.81 L 307.34 340.64 L 307.44 340.34 L 307.57 340.33 L 307.66 340.17 L 307.70 339.95 L 307.93 339.82 L 308.00 339.69 L 308.04 339.69 L 308.10 339.69 L 308.14 339.46 L 308.17 339.47 L 308.19 339.46 L 308.31 339.39 L 308.35 339.13 L 308.46 339.13 L 308.54 339.07 L 308.79 339.05 L 309.08 339.02 L 309.09 339.02 L 309.17 339.00 L 309.45 339.00 L 309.58 339.00 L 309.71 339.00 L 309.85 338.96 L 309.94 338.66 L 310.32 338.65 L 310.35 338.47 L 310.40 338.47 L 310.43 338.27 L 310.68 338.20 L 310.72 338.15 L 310.90 338.15 L 327.40 338.09 L 328.34 338.01 L 328.37 338.01 L 328.55 338.00 L 328.57 338.01 L 328.69 337.65 L 328.78 337.63 L 328.86 337.53 L 328.97 337.48 L 329.01 337.45 L 329.05 337.43 L 329.22 337.40 L 329.58 337.32 L 329.81 336.84 L 330.06 336.81 L 330.07 336.78 L 330.11 336.38 L 330.15 336.38 L 330.64 336.38 L 330.65 336.34 L 330.72 335.96 L 330.94 335.91 L 331.07 335.90 L 331.10 335.89 L 331.11 335.85 L 331.17 335.82 L 331.20 335.44 L 331.22 335.43 L 331.34 335.43 L 331.35 335.40 L 331.61 335.36 L 332.32 335.35 L 332.48 335.32 L 332.54 335.31 L 332.57 335.19 L 332.61 335.19 L 332.71 334.76 L 343.99 334.62 L 344.00 334.50 L 344.10 334.41 L 344.13 334.40 L 344.19 334.03 L 344.31 333.94 L 344.33 333.92 L 344.54 333.92 L 344.58 333.92 L 344.62 333.55 L 344.80 333.51 L 345.29 333.50 L 345.30 333.48 L 345.43 333.28 L 345.47 333.28 L 345.50 332.95 L 345.91 332.95 L 345.92 332.93 L 346.53 332.84 L 346.61 332.44 L 346.83 332.44 L 347.08 332.44 L 347.15 332.14 L 347.19 331.91 L 347.31 331.90 L 347.63 331.85 L 347.69 331.83 L 347.82 331.74 L 347.98 331.74 L 348.45 331.74 L 348.51 331.74 L 348.61 331.72 L 348.62 331.72 L 348.78 331.72 L 349.13 331.69 L 349.50 331.65 L 349.56 331.65 L 349.64 331.61 L 349.75 331.50 L 350.03 331.50 L 350.51 331.37 L 350.66 331.14 L 350.92 331.12 L 351.96 330.87 L 352.18 330.87 L 352.35 330.87 L 352.61 330.86 L 352.69 330.84 L 352.95 330.72 L 353.36 330.70 L 353.41 330.59 L 353.49 330.54 L 353.54 330.55 L 353.58 330.51 L 353.90 330.49 L 361.37 330.49 L 361.44 330.49 L 361.90 330.49 L 361.95 330.47 L 362.05 330.14 L 362.14 330.12 L 362.15 330.13 L 362.41 330.12 L 362.47 330.10 L 364.00 329.60 L 364.18 329.55 L 364.31 329.54 L 364.34 329.53 L 364.82 329.52 L 364.98 329.59 L 365.01 329.59 L 365.26 329.56 L 365.54 329.09 L 365.58 329.08 L 365.81 329.06 L 365.90 329.06 L 365.99 329.06 L 366.19 328.97 L 366.60 328.54 L 366.68 328.54 L 366.76 328.48 L 366.93 328.09 L 367.34 327.66 L 367.70 327.69 L 367.78 327.46 L 368.15 327.46 L 368.22 327.43 L 368.28 327.41 L 368.31 327.18 L 368.44 327.17 L 368.47 327.17 L 368.53 327.17 L 368.75 327.17 L 369.07 326.99 L 369.27 326.97 L 369.50 326.97 L 369.61 326.97 L 369.84 326.97 L 370.22 326.97 L 370.59 326.97 L 370.88 326.97 L 370.94 326.97 L 371.02 326.96 L 371.02 326.88 L 371.24 326.83 L 371.30 326.83 L 371.39 326.81 L 372.01 326.81 L 372.02 326.59 L 372.18 326.59 L 372.90 326.59 L 373.38 326.59 L 373.72 326.54 L 373.73 326.45 L 373.76 326.45 L 384.23 326.30 L 384.26 326.29 L 384.38 326.29 L 384.44 326.15 L 384.48 326.15 L 384.48 326.14 L 384.93 326.10 L 385.03 325.65 L 385.16 325.55 L 385.38 324.66 L 385.53 324.65 L 385.71 324.27 L 385.81 324.32 L 385.86 324.31 L 385.91 323.83 L 386.04 323.74 L 386.06 323.41 L 386.10 323.36 L 386.21 323.33 L 386.29 323.16 L 386.38 325.15 L 386.51 325.12 L 386.77 324.32 L 386.88 324.15 L 386.98 323.97 L 387.62 323.65 L 388.17 323.31 L 388.83 322.85 L 389.00 322.79 L 389.19 322.79 L 389.40 322.75 L 393.24 322.52 L 393.56 322.49 L 430.02 321.87 L 544.84 321.85 L 545.22 321.57 L 545.49 321.52 L 545.75 321.52 L 546.15 321.27 L 546.28 320.98 L 546.39 320.43 L 546.57 320.28 L 546.84 320.33 L 547.05 320.01 L 547.10 320.01 L 547.28 319.91 L 547.32 319.91 L 547.50 319.38 L 547.67 318.56 L 548.19 318.48 L 548.21 318.40 L 548.36 317.34 L 548.85 317.30 L 548.87 317.20 L 548.96 317.14 L 549.08 316.18 L 549.62 316.13 L 549.63 316.00 L 549.74 315.93 L 549.87 315.31 L 550.07 315.29 L 550.08 315.18 L 550.17 314.14 L 550.18 314.11 L 550.23 314.08 L 550.46 314.08 L 550.49 313.97 L 550.56 313.90 L 550.81 313.80 L 550.86 313.79 L 551.05 313.74 L 551.37 313.78 L 551.41 313.73 L 551.46 313.71 L 551.51 313.67 L 551.67 312.59 L 551.84 312.57 L 551.87 312.48 L 551.96 311.37 L 552.06 310.97 L 552.08 310.82 L 552.18 310.28 L 552.23 309.34 L 552.43 309.33 L 552.46 309.27 L 552.55 309.08 L 552.69 309.08 L 553.52 309.05 L 553.93 309.03 L 562.90 309.07 L 562.99 308.86 L 563.08 308.70 L 563.23 307.95 L 563.56 307.94 L 563.59 307.86 L 563.65 306.92 L 563.87 306.91 L 563.89 306.82 L 565.85 306.72 L 565.97 306.38 L 566.96 306.21 L 567.07 306.18 L 567.18 305.13 L 568.37 304.83 L 568.88 304.58 L 569.00 303.79 L 569.43 303.78 L 569.70 303.34 L 570.14 302.66 L 570.93 302.25 L 582.93 302.25 L 583.65 302.24 L 583.68 302.24 L 584.68 302.09 L 584.73 302.00 L 585.09 301.94 L 585.49 301.06 L 585.50 301.06 L 585.54 301.02 L 586.08 300.83 L 587.31 300.25 L 587.39 300.19 L 587.52 300.18 L 587.70 299.93 L 587.76 299.90 L 587.83 299.85 L 588.40 299.85 L 588.86 299.85 L 589.11 299.85 L 589.14 299.81 L 589.66 298.91 L 590.05 298.83 L 590.07 298.76 L 590.12 298.68 L 590.17 298.46 L 603.20 298.29 L 603.22 298.27 L 603.26 298.25 L 603.51 298.14 L 603.71 298.03 L 604.86 297.53 L 605.14 297.42 L 605.97 297.04 L 606.68 296.98 L 607.21 296.82 L 607.36 295.50 L 608.02 295.28 L 608.26 295.21 L 608.35 294.26 L 610.27 293.35 L 610.29 293.35 L 610.40 292.92 L 610.76 292.88 L 610.77 292.88 L 610.79 292.78 L 610.86 292.66 L 611.02 292.56 L 611.23 291.92 L 613.23 291.58 L 613.49 291.43 L 613.67 291.07 L 613.70 291.03 L 613.74 290.80 L 622.61 289.97 L 622.89 289.37 L 623.06 289.35 L 623.13 288.95 L 623.96 288.78 L 624.14 288.35 L 624.29 288.35 L 624.39 287.47 L 624.67 287.26 L 624.71 287.23 L 625.09 287.18 L 625.17 286.45 L 625.49 286.36 L 625.56 285.79 L 625.82 285.73 L 626.02 285.40 L 626.17 284.76 L 626.50 284.63 L 626.54 283.98 L 626.96 285.45 L 627.00 285.45 L 627.07 284.62 L 627.16 284.62 L 627.21 284.55 L 627.70 284.47 L 628.42 284.12 L 628.77 284.30 L 629.95 284.27 L 629.98 284.27 L 630.16 284.25 L 630.24 284.24 L 630.37 284.12 L 630.52 284.02 L 630.67 283.86 L 631.02 283.65 L 631.36 283.64 L 632.41 283.54 L 632.46 283.53 L 633.51 283.42 L 633.96 283.36 L 642.94 283.32 L 643.39 283.28 L 643.61 283.28 L 643.71 283.28 L 643.74 283.27 L 643.96 283.26 L 644.07 283.22 L 644.33 283.07 L 644.49 283.05 L 645.08 283.04 L 645.38 282.96 L 645.89 282.92 L 646.03 282.89 L 646.20 282.82 L 646.42 282.73 L 647.20 282.69 L 647.27 282.67 L 648.40 282.51 L 648.58 282.25 L 648.80 282.16 L 649.35 282.00 L 649.61 281.92 L 649.74 282.28 L 649.85 282.27 L 650.00 282.13"/>
	</g>
	<g class="poloto_legend poloto_imgs poloto_line poloto0 poloto_stroke"><line x1="680" x2="730" y1="81.25" y2="81.25"/></g>
	<g class="poloto_legend poloto_imgs poloto_line poloto1 poloto_stroke"><line x1="680" x2="730" y1="131.25" y2="131.25"/></g>
	<g class="poloto_legend poloto_imgs poloto_line poloto2 poloto_stroke"><line x1="680" x2="730" y1="181.25" y2="181.25"/></g>
	<text class="poloto_legend poloto_text poloto_line poloto0" x="675" y="100">total</text>
	<text class="poloto_legend poloto_text poloto_line poloto1" x="675" y="150">code</text>
	<text class="poloto_legend poloto_text poloto_line poloto2" x="675" y="200">docs</text>
	<text class="poloto_text poloto_name poloto_title" x="400.00" y="37.50">Workspace lines over time</text>
	<text class="poloto_text poloto_name poloto_x" x="400.00" y="640">date (JST)</text>
	<text class="poloto_text poloto_name poloto_y" x="37.50" y="250.00" transform="rotate(-90,37.50,250.00)">lines</text>
	<text class="poloto_text poloto_ticks poloto_y">
		<tspan x="135.00" y="400.00">0</tspan>
		<tspan x="135.00" y="322.14">50K</tspan>
		<tspan x="135.00" y="244.28">100K</tspan>
		<tspan x="135.00" y="166.42">150K</tspan>
	</text>
	<g class="poloto_imgs poloto_ticks poloto_y" stroke="black">
		<line x1="150.00" x2="144.00" y1="400.00" y2="400.00"/>
		<line x1="150.00" x2="144.00" y1="322.14" y2="322.14"/>
		<line x1="150.00" x2="144.00" y1="244.28" y2="244.28"/>
		<line x1="150.00" x2="144.00" y1="166.42" y2="166.42"/>
	</g>
	<g class="poloto_text poloto_ticks poloto_x">
		<text x="225.06" y="430.00" text-anchor="end" transform="rotate(-90 225.06 430.00)">2026-04-24 12:06</text>
		<text x="340.59" y="430.00" text-anchor="end" transform="rotate(-90 340.59 430.00)">2026-04-30 07:00</text>
		<text x="456.13" y="430.00" text-anchor="end" transform="rotate(-90 456.13 430.00)">2026-05-06 01:53</text>
		<text x="571.66" y="430.00" text-anchor="end" transform="rotate(-90 571.66 430.00)">2026-05-11 20:46</text>
	</g>
	<g class="poloto_imgs poloto_ticks poloto_x" stroke="black">
		<line x1="225.06" x2="225.06" y1="400.00" y2="405.00"/>
		<line x1="340.59" x2="340.59" y1="400.00" y2="405.00"/>
		<line x1="456.13" x2="456.13" y1="400.00" y2="405.00"/>
		<line x1="571.66" x2="571.66" y1="400.00" y2="405.00"/>
	</g>
	<path class="poloto_imgs poloto_ticks poloto_x" stroke="black" style="stroke-dasharray:11.553550475382387;stroke-dashoffset:-75.05717852135422;" d=" M 150.00 400.00 L 650.00 400.00"/>
	<path class="poloto_imgs poloto_ticks poloto_y" stroke="black" style="stroke-dasharray:7.7858577679502945;stroke-dashoffset:-0;" d=" M 150.00 400.00 L 150.00 100.00"/>
</svg>

