<svg class="poloto" width="800" height="680" viewBox="0 0 800 680" xmlns="http://www.w3.org/2000/svg">
	<style>
.poloto{
  stroke-linecap:round;
  stroke-linejoin:round;
  font-family:Roboto,sans-serif;
  font-size:16px;
}
.poloto_background{fill:AliceBlue;}
.poloto_scatter{stroke-width:7}
.poloto_line{stroke-width:2}
.poloto_text{fill: black;}
.poloto_name{font-size:24px;dominant-baseline:auto;text-anchor:middle;}
.poloto_where{dominant-baseline:middle;text-anchor:start}
.poloto_text.poloto_legend{font-size:20px;dominant-baseline:middle;text-anchor:start;}
.poloto_text.poloto_ticks.poloto_y{dominant-baseline:middle;text-anchor:end}
.poloto_text.poloto_ticks.poloto_x{dominant-baseline:auto;text-anchor:middle}
.poloto_imgs.poloto_ticks{stroke: black;stroke-width:3;fill:none;stroke-dasharray:none}
.poloto_grid{stroke:gray;stroke-width:0.5}

.poloto0.poloto_stroke{stroke:blue;}
.poloto1.poloto_stroke{stroke:red;}
.poloto2.poloto_stroke{stroke:green;}
.poloto3.poloto_stroke{stroke:gold;}
.poloto4.poloto_stroke{stroke:aqua;}
.poloto5.poloto_stroke{stroke:lime;}
.poloto6.poloto_stroke{stroke:orange;}
.poloto7.poloto_stroke{stroke:chocolate;}
.poloto0.poloto_fill{fill:blue;}
.poloto1.poloto_fill{fill:red;}
.poloto2.poloto_fill{fill:green;}
.poloto3.poloto_fill{fill:gold;}
.poloto4.poloto_fill{fill:aqua;}
.poloto5.poloto_fill{fill:lime;}
.poloto6.poloto_fill{fill:orange;}
.poloto7.poloto_fill{fill:chocolate;}
	</style>
	<circle r="1e5" class="poloto_background" fill="white"/>
	<g id="poloto_plot0" class="poloto_plot poloto_imgs poloto_line poloto0 poloto_stroke" fill="none" stroke="black">
		<path d=" M 150.00 366.58 L 150.03 366.55 L 150.05 366.53 L 150.06 366.53 L 150.09 366.53 L 150.12 362.91 L 150.25 362.47 L 150.56 362.45 L 151.01 362.15 L 151.24 360.31 L 151.70 360.19 L 151.78 360.10 L 151.84 360.06 L 152.38 359.16 L 153.38 358.43 L 153.70 355.58 L 153.78 355.58 L 154.39 355.47 L 155.09 355.46 L 155.10 355.46 L 155.10 355.46 L 164.56 355.46 L 164.62 355.45 L 164.75 355.43 L 164.80 355.40 L 165.16 355.23 L 165.32 355.19 L 165.72 354.92 L 165.78 354.81 L 165.89 354.55 L 166.01 354.51 L 166.05 354.51 L 166.15 354.44 L 166.25 354.44 L 166.35 354.44 L 166.62 354.02 L 166.85 353.76 L 166.89 353.76 L 167.00 353.61 L 167.76 354.26 L 167.77 354.26 L 167.87 354.15 L 168.29 353.66 L 168.64 353.08 L 169.03 352.83 L 169.11 352.78 L 169.12 352.78 L 169.19 352.56 L 169.34 352.56 L 169.53 352.48 L 169.90 352.26 L 169.92 351.92 L 169.99 351.92 L 170.08 351.74 L 170.29 351.74 L 170.31 351.74 L 170.54 351.25 L 170.62 351.23 L 170.70 351.19 L 170.79 350.99 L 171.94 350.73 L 172.22 350.68 L 172.86 350.33 L 173.00 350.33 L 173.10 350.32 L 173.15 350.07 L 173.59 348.63 L 173.79 348.60 L 174.02 348.12 L 174.13 348.08 L 174.39 347.67 L 174.51 347.53 L 174.67 347.27 L 174.81 347.05 L 175.32 343.73 L 175.34 343.65 L 175.36 343.45 L 175.54 341.86 L 184.31 341.74 L 185.21 339.92 L 185.25 339.88 L 186.32 339.59 L 186.41 339.59 L 186.51 339.23 L 186.77 339.05 L 186.89 338.74 L 186.93 338.46 L 187.07 337.99 L 187.38 337.98 L 187.39 337.66 L 187.51 337.30 L 187.63 337.30 L 187.77 336.90 L 187.94 336.61 L 188.01 336.47 L 188.03 336.46 L 188.18 336.15 L 188.20 336.14 L 188.37 335.83 L 188.40 335.82 L 188.65 334.33 L 188.69 334.33 L 188.78 334.07 L 188.89 334.06 L 189.03 334.06 L 189.09 334.03 L 189.59 333.75 L 189.60 333.76 L 189.69 333.09 L 189.91 333.08 L 190.11 332.08 L 190.17 331.99 L 190.26 331.98 L 190.31 331.94 L 190.42 331.17 L 190.97 324.66 L 191.03 324.35 L 191.22 324.32 L 191.27 324.24 L 191.31 324.22 L 191.40 324.05 L 191.49 323.31 L 191.69 323.16 L 191.82 323.14 L 191.93 322.81 L 191.99 322.80 L 192.49 322.56 L 192.76 322.38 L 192.84 322.09 L 193.07 322.07 L 193.09 322.07 L 193.11 322.05 L 193.26 320.48 L 193.38 320.39 L 193.78 318.81 L 193.85 318.35 L 193.93 318.34 L 194.03 318.17 L 194.04 318.05 L 194.09 317.97 L 194.13 317.93 L 194.19 317.93 L 194.24 317.85 L 194.40 316.56 L 194.52 316.37 L 194.64 315.99 L 194.80 315.96 L 194.97 315.84 L 195.15 314.93 L 195.27 313.66 L 195.53 313.59 L 195.53 313.12 L 195.68 312.96 L 207.93 312.96 L 208.16 312.95 L 208.74 312.28 L 208.86 312.26 L 208.95 312.26 L 208.97 312.10 L 209.18 311.89 L 209.33 311.85 L 209.41 311.73 L 209.50 311.64 L 209.55 311.60 L 209.77 311.53 L 210.21 311.46 L 210.32 311.11 L 210.40 311.02 L 210.51 311.01 L 211.08 310.84 L 211.15 310.74 L 211.19 310.74 L 211.23 310.61 L 211.35 310.55 L 211.45 310.43 L 211.86 309.57 L 212.45 309.44 L 212.67 309.39 L 213.32 309.17 L 213.63 305.08 L 213.74 305.00 L 213.88 304.59 L 214.07 304.06 L 214.36 303.91 L 214.78 303.89 L 215.34 303.88 L 215.42 303.70 L 215.82 303.51 L 216.09 303.21 L 216.17 303.09 L 216.33 303.05 L 216.45 302.68 L 217.90 302.28 L 219.28 302.28 L 231.60 302.24 L 231.69 302.06 L 231.75 301.95 L 232.14 301.77 L 233.29 300.36 L 233.34 300.27 L 233.50 299.91 L 234.06 299.82 L 234.33 298.86 L 234.74 298.85 L 234.84 298.84 L 234.92 298.18 L 235.64 294.46 L 235.73 294.46 L 235.87 294.42 L 236.03 294.38 L 236.11 293.97 L 236.51 292.57 L 236.65 292.31 L 236.72 292.29 L 236.81 291.64 L 236.98 290.73 L 237.05 289.76 L 237.24 289.33 L 237.77 284.49 L 237.82 284.00 L 237.87 284.00 L 237.95 283.91 L 238.09 283.79 L 238.14 283.74 L 238.19 283.69 L 238.45 282.53 L 238.51 281.71 L 238.82 281.55 L 239.01 280.33 L 239.12 279.57 L 240.08 268.28 L 240.19 268.25 L 276.41 267.72 L 276.44 267.72 L 290.28 267.56 L 291.04 267.25 L 291.19 267.25 L 291.40 267.17 L 291.46 267.02 L 291.54 266.98 L 297.55 266.91 L 298.34 264.76 L 298.63 264.57 L 298.79 263.78 L 302.53 263.62 L 302.55 263.40 L 302.79 263.38 L 303.90 262.03 L 303.97 261.78 L 304.11 261.70 L 304.50 261.60 L 304.55 261.57 L 304.71 261.16 L 304.88 261.05 L 304.91 260.75 L 316.54 260.34 L 316.63 259.18 L 317.09 258.92 L 317.10 256.99 L 317.18 256.70 L 317.27 256.23 L 317.40 254.89 L 317.60 254.19 L 317.76 253.36 L 317.92 253.35 L 317.98 252.72 L 318.21 252.66 L 319.01 249.55 L 319.34 249.21 L 319.39 249.02 L 319.46 249.01 L 319.50 248.79 L 319.62 248.03 L 319.94 247.66 L 319.99 247.62 L 320.19 244.87 L 320.27 244.86 L 320.30 244.57 L 320.38 244.35 L 320.42 244.34 L 320.47 243.93 L 320.72 242.45 L 320.84 242.02 L 320.98 241.97 L 321.08 238.01 L 321.12 237.68 L 321.37 235.42 L 321.44 235.24 L 321.49 235.24 L 321.56 235.23 L 321.60 234.92 L 321.63 234.93 L 321.65 234.92 L 321.78 230.92 L 321.82 230.57 L 321.94 230.55 L 322.04 230.48 L 322.30 230.36 L 322.62 230.21 L 322.63 230.21 L 322.72 230.16 L 323.02 230.09 L 323.16 230.09 L 323.30 230.09 L 323.45 228.34 L 323.55 227.92 L 323.96 227.92 L 324.00 227.64 L 324.05 227.64 L 324.08 227.34 L 324.35 224.81 L 324.40 224.76 L 324.59 224.74 L 342.49 224.67 L 343.51 224.54 L 343.54 224.54 L 343.75 224.54 L 343.76 224.54 L 343.89 224.03 L 343.99 224.01 L 344.08 223.77 L 344.20 223.70 L 344.24 223.67 L 344.28 223.65 L 344.48 223.37 L 344.86 223.12 L 345.11 222.31 L 345.38 221.53 L 345.39 221.49 L 345.44 220.77 L 345.48 220.75 L 346.01 220.32 L 346.02 220.27 L 346.10 219.69 L 346.33 219.63 L 346.48 219.58 L 346.51 218.55 L 346.52 218.50 L 346.58 219.47 L 346.62 218.88 L 346.64 218.85 L 346.77 217.49 L 346.78 217.45 L 347.07 217.33 L 347.83 217.32 L 348.01 217.27 L 348.07 217.26 L 348.10 217.08 L 348.15 217.08 L 348.26 216.40 L 360.49 215.09 L 360.51 214.92 L 360.61 214.79 L 360.64 214.54 L 360.71 203.12 L 360.85 198.45 L 360.86 198.42 L 361.09 198.33 L 361.14 198.33 L 361.18 197.79 L 361.38 197.74 L 361.91 196.63 L 361.92 196.61 L 362.05 196.27 L 362.11 196.28 L 362.13 195.72 L 362.58 195.08 L 362.59 195.05 L 363.26 194.80 L 363.34 194.22 L 363.58 194.23 L 363.85 192.75 L 363.93 192.17 L 363.97 191.70 L 364.10 191.14 L 364.45 190.93 L 364.51 190.79 L 364.66 190.66 L 364.82 190.66 L 365.34 190.66 L 365.40 190.66 L 365.52 190.64 L 365.53 190.64 L 365.69 190.65 L 366.08 190.62 L 366.48 190.41 L 366.54 190.41 L 366.63 190.32 L 366.74 190.16 L 367.05 190.16 L 367.57 189.96 L 367.74 189.50 L 368.02 185.57 L 369.14 188.89 L 369.39 188.88 L 369.57 188.86 L 369.85 188.86 L 369.94 188.79 L 370.22 188.61 L 370.66 188.34 L 370.72 188.16 L 370.80 188.08 L 370.86 188.10 L 370.90 188.04 L 371.25 187.80 L 379.36 187.79 L 379.43 187.80 L 379.93 187.78 L 379.98 187.76 L 380.10 187.26 L 380.19 186.98 L 380.20 186.98 L 380.48 186.94 L 380.55 186.91 L 382.21 186.17 L 382.41 186.11 L 382.55 186.09 L 382.58 186.09 L 383.09 185.91 L 383.27 186.00 L 383.30 185.99 L 383.58 185.94 L 383.88 184.39 L 383.92 184.38 L 384.17 184.20 L 384.27 184.20 L 384.37 184.20 L 384.58 184.03 L 385.03 183.40 L 385.12 183.38 L 385.20 183.20 L 385.38 182.46 L 385.83 181.69 L 386.23 178.07 L 386.31 177.63 L 386.71 177.45 L 386.78 177.36 L 386.85 177.19 L 386.89 176.60 L 387.03 175.56 L 387.06 175.60 L 387.13 175.58 L 387.36 175.58 L 387.71 175.19 L 387.93 175.12 L 388.18 175.11 L 388.30 175.09 L 388.54 175.08 L 388.95 175.08 L 389.36 175.07 L 389.67 175.07 L 389.74 175.06 L 389.82 175.05 L 389.83 174.92 L 390.07 174.84 L 390.14 174.83 L 390.23 174.67 L 390.90 174.65 L 390.91 174.34 L 391.09 174.32 L 391.87 174.33 L 392.38 174.14 L 392.76 173.91 L 392.77 173.78 L 392.80 173.78 L 404.16 173.56 L 404.19 173.56 L 404.33 173.54 L 404.39 173.36 L 404.43 173.34 L 404.44 173.33 L 404.92 173.28 L 405.03 172.63 L 405.17 172.48 L 405.41 171.19 L 405.57 171.18 L 405.76 170.63 L 405.87 170.69 L 405.93 170.69 L 405.98 170.06 L 406.12 169.63 L 406.14 169.18 L 406.19 169.12 L 406.31 169.08 L 406.39 168.86 L 406.50 171.33 L 406.63 171.28 L 406.91 170.30 L 407.04 170.06 L 407.14 169.85 L 407.84 168.44 L 408.44 167.75 L 409.16 166.45 L 409.34 166.39 L 409.54 166.39 L 409.77 166.33 L 413.94 165.96 L 414.29 165.92 L 453.85 164.93 L 578.44 164.70 L 578.85 164.30 L 579.14 164.24 L 579.42 164.24 L 579.86 163.47 L 580.00 163.10 L 580.12 162.41 L 580.32 160.43 L 580.60 160.84 L 580.83 160.41 L 580.89 160.40 L 581.08 160.27 L 581.12 160.27 L 581.33 159.54 L 581.51 158.38 L 582.08 157.14 L 582.10 157.04 L 582.26 155.56 L 582.79 151.91 L 582.81 151.78 L 582.91 151.70 L 583.04 150.39 L 583.62 148.64 L 583.63 148.47 L 583.76 148.39 L 583.89 147.53 L 584.11 146.84 L 584.12 146.71 L 584.22 145.37 L 584.24 145.34 L 584.29 144.97 L 584.53 142.59 L 584.56 142.45 L 584.65 142.31 L 584.91 142.00 L 584.97 141.99 L 585.17 141.53 L 585.52 141.59 L 585.57 141.53 L 585.62 141.49 L 585.68 141.46 L 585.85 140.06 L 586.04 138.92 L 586.06 138.82 L 586.17 137.40 L 586.27 136.01 L 586.30 135.83 L 586.41 134.20 L 586.46 132.92 L 586.67 132.06 L 586.70 132.00 L 586.81 131.73 L 586.96 131.71 L 587.85 131.67 L 588.30 131.63 L 598.03 131.69 L 598.13 131.44 L 598.23 131.22 L 598.39 130.27 L 598.76 130.02 L 598.79 129.92 L 598.85 128.66 L 599.09 127.43 L 599.11 127.32 L 601.24 127.24 L 601.36 126.55 L 602.44 126.34 L 602.55 126.29 L 602.68 124.86 L 603.97 123.52 L 604.52 123.01 L 604.66 121.97 L 605.12 120.17 L 605.41 119.65 L 605.89 118.60 L 606.74 118.06 L 619.77 118.05 L 620.55 117.93 L 620.58 117.96 L 621.67 117.75 L 621.73 117.64 L 622.11 117.56 L 622.55 116.39 L 622.56 116.39 L 622.60 116.35 L 623.18 115.01 L 624.52 114.25 L 624.61 114.18 L 624.75 114.17 L 624.95 113.82 L 625.01 113.72 L 625.08 113.66 L 625.71 113.61 L 626.21 113.61 L 626.47 113.60 L 626.51 113.55 L 627.07 112.39 L 627.50 112.16 L 627.52 112.08 L 627.57 111.98 L 627.63 111.67 L 641.76 111.22 L 641.79 111.20 L 641.83 111.18 L 642.10 111.05 L 642.32 110.91 L 643.56 109.11 L 643.87 108.90 L 644.77 108.36 L 645.54 108.23 L 646.11 108.05 L 646.28 106.40 L 646.99 104.46 L 647.25 104.32 L 647.35 103.07 L 649.44 100.76 L 649.46 100.76 L 649.58 100.20 L 649.97 100.14 L 649.98 100.14 L 650.00 100.00"/>
	</g>
	<g id="poloto_plot1" class="poloto_plot poloto_imgs poloto_line poloto1 poloto_stroke" fill="none" stroke="black">
		<path d=" M 150.00 380.14 L 150.03 380.13 L 150.05 380.11 L 150.06 380.11 L 150.09 380.11 L 150.12 379.48 L 150.25 379.46 L 150.56 379.45 L 151.01 379.21 L 151.24 379.11 L 151.70 379.13 L 151.78 379.09 L 151.84 379.09 L 152.38 379.04 L 153.38 378.92 L 153.70 376.47 L 153.78 376.47 L 154.39 376.41 L 155.09 376.40 L 155.10 376.40 L 155.10 376.40 L 164.56 376.40 L 164.62 376.40 L 164.75 376.39 L 164.80 376.36 L 165.16 376.35 L 165.32 376.35 L 165.72 376.35 L 165.78 376.35 L 165.89 376.33 L 166.01 376.33 L 166.05 376.33 L 166.15 376.30 L 166.25 376.30 L 166.35 376.30 L 166.62 376.17 L 166.85 376.17 L 166.89 376.17 L 167.00 376.17 L 167.76 377.09 L 167.77 377.09 L 167.87 377.08 L 168.29 376.94 L 168.64 376.78 L 169.03 376.71 L 169.11 376.67 L 169.12 376.67 L 169.19 376.67 L 169.34 376.67 L 169.53 376.61 L 169.90 376.55 L 169.92 376.55 L 169.99 376.55 L 170.08 376.53 L 170.29 376.53 L 170.31 376.53 L 170.54 376.52 L 170.62 376.52 L 170.70 376.52 L 170.79 376.52 L 171.94 376.41 L 172.22 376.40 L 172.86 376.36 L 173.00 376.36 L 173.10 376.36 L 173.15 376.36 L 173.59 376.28 L 173.79 376.28 L 174.02 376.19 L 174.13 376.18 L 174.39 375.98 L 174.51 375.91 L 174.67 375.91 L 174.81 375.91 L 175.32 373.04 L 175.34 372.99 L 175.36 372.99 L 175.54 372.71 L 184.31 372.71 L 185.21 371.47 L 185.25 371.47 L 186.32 371.47 L 186.41 371.47 L 186.51 371.34 L 186.77 371.32 L 186.89 371.32 L 186.93 371.32 L 187.07 371.32 L 187.38 371.32 L 187.39 371.05 L 187.51 371.04 L 187.63 371.04 L 187.77 371.01 L 187.94 371.01 L 188.01 371.01 L 188.03 371.01 L 188.18 371.01 L 188.20 371.01 L 188.37 371.01 L 188.40 371.01 L 188.65 369.79 L 188.69 369.79 L 188.78 369.64 L 188.89 369.64 L 189.03 369.64 L 189.09 369.63 L 189.59 369.63 L 189.60 369.63 L 189.69 369.55 L 189.91 369.55 L 190.11 368.85 L 190.17 368.77 L 190.26 368.77 L 190.31 368.77 L 190.42 368.75 L 190.97 363.62 L 191.03 363.66 L 191.22 363.66 L 191.27 363.66 L 191.31 363.65 L 191.40 363.65 L 191.49 363.58 L 191.69 363.58 L 191.82 363.58 L 191.93 363.58 L 191.99 363.58 L 192.49 363.57 L 192.76 363.56 L 192.84 363.44 L 193.07 363.44 L 193.09 363.44 L 193.11 363.44 L 193.26 363.09 L 193.38 363.00 L 193.78 361.78 L 193.85 361.78 L 193.93 361.78 L 194.03 361.80 L 194.04 361.80 L 194.09 361.80 L 194.13 361.80 L 194.19 361.80 L 194.24 361.80 L 194.40 361.78 L 194.52 361.78 L 194.64 361.76 L 194.80 361.76 L 194.97 361.75 L 195.15 361.30 L 195.27 361.15 L 195.53 361.15 L 195.53 361.14 L 195.68 361.14 L 207.93 361.14 L 208.16 361.13 L 208.74 361.06 L 208.86 361.04 L 208.95 361.04 L 208.97 361.04 L 209.18 361.04 L 209.33 361.04 L 209.41 361.04 L 209.50 361.04 L 209.55 361.04 L 209.77 361.04 L 210.21 361.06 L 210.32 361.06 L 210.40 361.06 L 210.51 361.06 L 211.08 360.96 L 211.15 360.92 L 211.19 360.92 L 211.23 360.85 L 211.35 360.85 L 211.45 360.85 L 211.86 360.38 L 212.45 360.38 L 212.67 360.38 L 213.32 360.38 L 213.63 357.24 L 213.74 357.24 L 213.88 357.24 L 214.07 357.23 L 214.36 357.23 L 214.78 357.23 L 215.34 357.23 L 215.42 357.23 L 215.82 357.16 L 216.09 357.03 L 216.17 357.03 L 216.33 357.03 L 216.45 357.01 L 217.90 356.81 L 219.28 356.81 L 231.60 356.81 L 231.69 356.81 L 231.75 356.81 L 232.14 356.81 L 233.29 355.82 L 233.34 355.79 L 233.50 355.69 L 234.06 355.68 L 234.33 355.44 L 234.74 355.45 L 234.84 355.45 L 234.92 355.45 L 235.64 352.69 L 235.73 352.69 L 235.87 352.69 L 236.03 352.69 L 236.11 352.51 L 236.51 352.18 L 236.65 352.18 L 236.72 352.18 L 236.81 351.67 L 236.98 351.17 L 237.05 351.17 L 237.24 351.16 L 237.77 347.05 L 237.82 347.05 L 237.87 347.05 L 237.95 347.05 L 238.09 347.05 L 238.14 347.05 L 238.19 347.05 L 238.45 347.05 L 238.51 346.96 L 238.82 346.94 L 239.01 346.89 L 239.12 346.39 L 240.08 338.22 L 240.19 338.22 L 276.41 338.22 L 276.44 338.22 L 290.28 338.22 L 291.04 338.10 L 291.19 338.10 L 291.40 338.10 L 291.46 338.10 L 291.54 338.10 L 297.55 338.04 L 298.34 337.96 L 298.63 337.96 L 298.79 337.93 L 302.53 337.86 L 302.55 337.75 L 302.79 337.75 L 303.90 336.65 L 303.97 336.65 L 304.11 336.65 L 304.50 336.65 L 304.55 336.65 L 304.71 336.65 L 304.88 336.65 L 304.91 336.65 L 316.54 336.63 L 316.63 336.43 L 317.09 336.43 L 317.10 335.10 L 317.18 335.10 L 317.27 335.10 L 317.40 334.97 L 317.60 334.97 L 317.76 334.92 L 317.92 334.92 L 317.98 334.92 L 318.21 334.90 L 319.01 332.63 L 319.34 332.63 L 319.39 332.62 L 319.46 332.62 L 319.50 332.62 L 319.62 332.58 L 319.94 332.30 L 319.99 332.26 L 320.19 330.23 L 320.27 330.22 L 320.30 330.22 L 320.38 330.19 L 320.42 330.19 L 320.47 330.18 L 320.72 329.08 L 320.84 329.06 L 320.98 329.04 L 321.08 325.59 L 321.12 325.59 L 321.37 323.65 L 321.44 323.65 L 321.49 323.64 L 321.56 323.64 L 321.60 323.64 L 321.63 323.64 L 321.65 323.64 L 321.78 320.06 L 321.82 320.05 L 321.94 320.04 L 322.04 320.04 L 322.30 319.97 L 322.62 319.87 L 322.63 319.87 L 322.72 319.85 L 323.02 319.79 L 323.16 319.79 L 323.30 319.79 L 323.45 318.24 L 323.55 318.24 L 323.96 318.24 L 324.00 318.23 L 324.05 318.23 L 324.08 318.23 L 324.35 316.02 L 324.40 316.02 L 324.59 316.01 L 342.49 316.01 L 343.51 315.99 L 343.54 315.99 L 343.75 315.99 L 343.76 315.99 L 343.89 315.99 L 343.99 315.99 L 344.08 315.88 L 344.20 315.88 L 344.24 315.88 L 344.28 315.88 L 344.48 315.68 L 344.86 315.55 L 345.11 315.42 L 345.38 314.80 L 345.39 314.80 L 345.44 314.64 L 345.48 314.62 L 346.01 314.24 L 346.02 314.24 L 346.10 314.19 L 346.33 314.19 L 346.48 314.15 L 346.51 313.23 L 346.52 313.23 L 346.58 314.14 L 346.62 314.09 L 346.64 314.07 L 346.77 312.84 L 346.78 312.84 L 347.07 312.79 L 347.83 312.79 L 348.01 312.79 L 348.07 312.79 L 348.10 312.79 L 348.15 312.79 L 348.26 312.71 L 360.49 311.69 L 360.51 311.69 L 360.61 311.69 L 360.64 311.47 L 360.71 300.56 L 360.85 296.51 L 360.86 296.51 L 361.09 296.43 L 361.14 296.43 L 361.18 296.41 L 361.38 296.41 L 361.91 295.42 L 361.92 295.42 L 362.05 295.37 L 362.11 295.37 L 362.13 295.28 L 362.58 294.69 L 362.59 294.69 L 363.26 294.57 L 363.34 294.53 L 363.58 294.54 L 363.85 293.20 L 363.93 293.07 L 363.97 292.94 L 364.10 292.44 L 364.45 292.32 L 364.51 292.21 L 364.66 292.21 L 364.82 292.21 L 365.34 292.21 L 365.40 292.21 L 365.52 292.21 L 365.53 292.21 L 365.69 292.22 L 366.08 292.22 L 366.48 292.08 L 366.54 292.08 L 366.63 292.07 L 366.74 292.07 L 367.05 292.07 L 367.57 292.07 L 367.74 291.95 L 368.02 288.43 L 369.14 291.75 L 369.39 291.73 L 369.57 291.72 L 369.85 291.72 L 369.94 291.69 L 370.22 291.66 L 370.66 291.46 L 370.72 291.46 L 370.80 291.46 L 370.86 291.46 L 370.90 291.46 L 371.25 291.27 L 379.36 291.27 L 379.43 291.27 L 379.93 291.26 L 379.98 291.26 L 380.10 291.22 L 380.19 290.98 L 380.20 290.98 L 380.48 290.95 L 380.55 290.95 L 382.21 290.75 L 382.41 290.75 L 382.55 290.75 L 382.58 290.75 L 383.09 290.60 L 383.27 290.60 L 383.30 290.60 L 383.58 290.60 L 383.88 289.77 L 383.92 289.77 L 384.17 289.63 L 384.27 289.63 L 384.37 289.63 L 384.58 289.63 L 385.03 289.61 L 385.12 289.59 L 385.20 289.51 L 385.38 289.37 L 385.83 289.24 L 386.23 285.92 L 386.31 285.81 L 386.71 285.65 L 386.78 285.61 L 386.85 285.50 L 386.89 285.26 L 387.03 284.27 L 387.06 284.31 L 387.13 284.29 L 387.36 284.29 L 387.71 284.15 L 387.93 284.10 L 388.18 284.08 L 388.30 284.07 L 388.54 284.06 L 388.95 284.06 L 389.36 284.05 L 389.67 284.05 L 389.74 284.04 L 389.82 284.04 L 389.83 284.03 L 390.07 284.03 L 390.14 284.02 L 390.23 283.90 L 390.90 283.88 L 390.91 283.88 L 391.09 283.87 L 391.87 283.86 L 392.38 283.70 L 392.76 283.56 L 392.77 283.56 L 392.80 283.56 L 404.16 283.56 L 404.19 283.56 L 404.33 283.56 L 404.39 283.56 L 404.43 283.54 L 404.44 283.54 L 404.92 283.54 L 405.03 283.53 L 405.17 283.50 L 405.41 283.48 L 405.57 283.48 L 405.76 283.40 L 405.87 283.40 L 405.93 283.40 L 405.98 283.40 L 406.12 283.10 L 406.14 283.10 L 406.19 283.10 L 406.31 283.10 L 406.39 283.10 L 406.50 283.17 L 406.63 283.17 L 406.91 283.16 L 407.04 283.16 L 407.14 283.16 L 407.84 282.18 L 408.44 281.92 L 409.16 281.22 L 409.34 281.22 L 409.54 281.22 L 409.77 281.22 L 413.94 281.14 L 414.29 281.13 L 453.85 281.01 L 578.44 280.83 L 578.85 280.77 L 579.14 280.77 L 579.42 280.77 L 579.86 280.31 L 580.00 280.31 L 580.12 280.31 L 580.32 278.68 L 580.60 278.99 L 580.83 278.97 L 580.89 278.97 L 581.08 278.96 L 581.12 278.96 L 581.33 278.95 L 581.51 278.88 L 582.08 277.84 L 582.10 277.84 L 582.26 277.75 L 582.79 274.40 L 582.81 274.40 L 582.91 274.40 L 583.04 274.35 L 583.62 272.79 L 583.63 272.79 L 583.76 272.79 L 583.89 272.75 L 584.11 272.18 L 584.12 272.18 L 584.22 272.17 L 584.24 272.17 L 584.29 271.86 L 584.53 269.65 L 584.56 269.65 L 584.65 269.65 L 584.91 269.46 L 584.97 269.46 L 585.17 269.09 L 585.52 269.09 L 585.57 269.09 L 585.62 269.09 L 585.68 269.09 L 585.85 269.08 L 586.04 268.08 L 586.06 268.08 L 586.17 268.08 L 586.27 267.33 L 586.30 267.33 L 586.41 266.52 L 586.46 266.48 L 586.67 265.68 L 586.70 265.68 L 586.81 265.68 L 586.96 265.67 L 587.85 265.67 L 588.30 265.66 L 598.03 265.66 L 598.13 265.66 L 598.23 265.66 L 598.39 265.66 L 598.76 265.45 L 598.79 265.45 L 598.85 265.39 L 599.09 264.28 L 599.11 264.28 L 601.24 264.30 L 601.36 264.08 L 602.44 264.08 L 602.55 264.08 L 602.68 264.00 L 603.97 263.09 L 604.52 262.91 L 604.66 262.85 L 605.12 261.12 L 605.41 261.12 L 605.89 260.98 L 606.74 260.98 L 619.77 260.97 L 620.55 260.87 L 620.58 260.89 L 621.67 260.89 L 621.73 260.89 L 622.11 260.89 L 622.55 260.86 L 622.56 260.86 L 622.60 260.86 L 623.18 259.85 L 624.52 259.82 L 624.61 259.82 L 624.75 259.82 L 624.95 259.78 L 625.01 259.74 L 625.08 259.74 L 625.71 259.70 L 626.21 259.70 L 626.47 259.70 L 626.51 259.70 L 627.07 259.67 L 627.50 259.56 L 627.52 259.56 L 627.57 259.56 L 627.63 259.56 L 641.76 259.32 L 641.79 259.32 L 641.83 259.32 L 642.10 259.32 L 642.32 259.32 L 643.56 258.32 L 643.87 258.26 L 644.77 258.19 L 645.54 258.13 L 646.11 258.13 L 646.28 258.13 L 646.99 256.63 L 647.25 256.58 L 647.35 256.53 L 649.44 255.47 L 649.46 255.47 L 649.58 255.46 L 649.97 255.45 L 649.98 255.45 L 650.00 255.45"/>
	</g>
	<g id="poloto_plot2" class="poloto_plot poloto_imgs poloto_line poloto2 poloto_stroke" fill="none" stroke="black">
		<path d=" M 150.00 391.09 L 150.03 391.08 L 150.05 391.08 L 150.06 391.08 L 150.09 391.08 L 150.12 388.80 L 150.25 388.49 L 150.56 388.48 L 151.01 388.47 L 151.24 387.11 L 151.70 386.99 L 151.78 386.94 L 151.84 386.91 L 152.38 386.30 L 153.38 385.82 L 153.70 385.73 L 153.78 385.73 L 154.39 385.70 L 155.09 385.70 L 155.10 385.70 L 155.10 385.70 L 164.56 385.70 L 164.62 385.69 L 164.75 385.67 L 164.80 385.67 L 165.16 385.54 L 165.32 385.50 L 165.72 385.27 L 165.78 385.18 L 165.89 384.98 L 166.01 384.95 L 166.05 384.95 L 166.15 384.91 L 166.25 384.91 L 166.35 384.91 L 166.62 384.68 L 166.85 384.47 L 166.89 384.47 L 167.00 384.35 L 167.76 384.07 L 167.77 384.07 L 167.87 383.99 L 168.29 383.68 L 168.64 383.31 L 169.03 383.16 L 169.11 383.16 L 169.12 383.16 L 169.19 382.96 L 169.34 382.96 L 169.53 382.93 L 169.90 382.78 L 169.92 382.51 L 169.99 382.51 L 170.08 382.38 L 170.29 382.38 L 170.31 382.38 L 170.54 381.98 L 170.62 381.95 L 170.70 381.92 L 170.79 381.73 L 171.94 381.62 L 172.22 381.58 L 172.86 381.31 L 173.00 381.31 L 173.10 381.29 L 173.15 381.09 L 173.59 379.97 L 173.79 379.95 L 174.02 379.62 L 174.13 379.59 L 174.39 379.43 L 174.51 379.38 L 174.67 379.14 L 174.81 378.95 L 175.32 378.95 L 175.34 378.92 L 175.36 378.76 L 175.54 377.69 L 184.31 377.57 L 185.21 377.25 L 185.25 377.21 L 186.32 376.94 L 186.41 376.93 L 186.51 376.73 L 186.77 376.60 L 186.89 376.35 L 186.93 376.15 L 187.07 375.75 L 187.38 375.74 L 187.39 375.74 L 187.51 375.46 L 187.63 375.46 L 187.77 375.16 L 187.94 374.93 L 188.01 374.81 L 188.03 374.80 L 188.18 374.53 L 188.20 374.53 L 188.37 374.28 L 188.40 374.27 L 188.65 374.19 L 188.69 374.19 L 188.78 374.09 L 188.89 374.08 L 189.03 374.08 L 189.09 374.06 L 189.59 373.82 L 189.60 373.82 L 189.69 373.34 L 189.91 373.32 L 190.11 373.17 L 190.17 373.17 L 190.26 373.17 L 190.31 373.13 L 190.42 372.46 L 190.97 371.90 L 191.03 371.59 L 191.22 371.57 L 191.27 371.49 L 191.31 371.48 L 191.40 371.34 L 191.49 370.81 L 191.69 370.73 L 191.82 370.72 L 191.93 370.45 L 191.99 370.44 L 192.49 370.25 L 192.76 370.11 L 192.84 369.99 L 193.07 369.98 L 193.09 369.98 L 193.11 369.95 L 193.26 369.00 L 193.38 368.99 L 193.78 368.85 L 193.85 368.47 L 193.93 368.46 L 194.03 368.31 L 194.04 368.22 L 194.09 368.15 L 194.13 368.11 L 194.19 368.11 L 194.24 368.04 L 194.40 366.96 L 194.52 366.85 L 194.64 366.53 L 194.80 366.51 L 194.97 366.41 L 195.15 366.07 L 195.27 365.14 L 195.53 365.07 L 195.53 364.67 L 195.68 364.58 L 207.93 364.58 L 208.16 364.58 L 208.74 364.14 L 208.86 364.14 L 208.95 364.14 L 208.97 364.03 L 209.18 363.84 L 209.33 363.80 L 209.41 363.69 L 209.50 363.61 L 209.55 363.57 L 209.77 363.51 L 210.21 363.60 L 210.32 363.30 L 210.40 363.23 L 210.51 363.22 L 211.08 363.16 L 211.15 363.11 L 211.19 363.11 L 211.23 363.05 L 211.35 363.00 L 211.45 362.89 L 211.86 362.62 L 212.45 362.50 L 212.67 362.45 L 213.32 362.27 L 213.63 361.84 L 213.74 361.76 L 213.88 361.42 L 214.07 360.99 L 214.36 360.87 L 214.78 360.86 L 215.34 360.84 L 215.42 360.68 L 215.82 360.58 L 216.09 360.44 L 216.17 360.33 L 216.33 360.28 L 216.45 359.99 L 217.90 359.85 L 219.28 359.85 L 231.60 359.82 L 231.69 359.66 L 231.75 359.55 L 232.14 359.39 L 233.29 359.10 L 233.34 359.06 L 233.50 358.85 L 234.06 358.77 L 234.33 358.21 L 234.74 358.20 L 234.84 358.17 L 234.92 357.62 L 235.64 357.10 L 235.73 357.10 L 235.87 357.07 L 236.03 357.02 L 236.11 356.83 L 236.51 355.97 L 236.65 355.75 L 236.72 355.73 L 236.81 355.64 L 236.98 355.30 L 237.05 354.43 L 237.24 354.08 L 237.77 353.88 L 237.82 353.44 L 237.87 353.44 L 237.95 353.36 L 238.09 353.25 L 238.14 353.21 L 238.19 353.17 L 238.45 352.17 L 238.51 351.57 L 238.82 351.46 L 239.01 350.45 L 239.12 350.26 L 240.08 348.68 L 240.19 348.65 L 276.41 348.19 L 276.44 348.19 L 290.28 348.06 L 291.04 347.89 L 291.19 347.89 L 291.40 347.81 L 291.46 347.68 L 291.54 347.65 L 297.55 347.64 L 298.34 345.82 L 298.63 345.67 L 298.79 345.04 L 302.53 344.96 L 302.55 344.90 L 302.79 344.89 L 303.90 344.78 L 303.97 344.57 L 304.11 344.50 L 304.50 344.40 L 304.55 344.38 L 304.71 344.03 L 304.88 343.92 L 304.91 343.65 L 316.54 343.31 L 316.63 342.48 L 317.09 342.27 L 317.10 341.95 L 317.18 341.71 L 317.27 341.33 L 317.40 340.33 L 317.60 339.78 L 317.76 339.07 L 317.92 339.07 L 317.98 338.52 L 318.21 338.48 L 319.01 337.97 L 319.34 337.73 L 319.39 337.58 L 319.46 337.57 L 319.50 337.40 L 319.62 336.78 L 319.94 336.71 L 319.99 336.71 L 320.19 336.31 L 320.27 336.31 L 320.30 336.08 L 320.38 335.93 L 320.42 335.93 L 320.47 335.60 L 320.72 335.41 L 320.84 335.09 L 320.98 335.08 L 321.08 334.91 L 321.12 334.66 L 321.37 334.53 L 321.44 334.39 L 321.49 334.39 L 321.56 334.38 L 321.60 334.13 L 321.63 334.14 L 321.65 334.14 L 321.78 334.05 L 321.82 333.77 L 321.94 333.77 L 322.04 333.70 L 322.30 333.68 L 322.62 333.65 L 322.63 333.65 L 322.72 333.64 L 323.02 333.63 L 323.16 333.63 L 323.30 333.63 L 323.45 333.59 L 323.55 333.26 L 323.96 333.25 L 324.00 333.06 L 324.05 333.06 L 324.08 332.83 L 324.35 332.76 L 324.40 332.70 L 324.59 332.70 L 342.49 332.64 L 343.51 332.55 L 343.54 332.55 L 343.75 332.55 L 343.76 332.55 L 343.89 332.16 L 343.99 332.14 L 344.08 332.04 L 344.20 331.98 L 344.24 331.94 L 344.28 331.92 L 344.48 331.89 L 344.86 331.81 L 345.11 331.28 L 345.38 331.25 L 345.39 331.22 L 345.44 330.78 L 345.48 330.78 L 346.01 330.78 L 346.02 330.73 L 346.10 330.33 L 346.33 330.27 L 346.48 330.26 L 346.51 330.25 L 346.52 330.21 L 346.58 330.18 L 346.62 329.76 L 346.64 329.75 L 346.77 329.75 L 346.78 329.72 L 347.07 329.68 L 347.83 329.66 L 348.01 329.63 L 348.07 329.61 L 348.10 329.48 L 348.15 329.48 L 348.26 329.01 L 360.49 328.87 L 360.51 328.73 L 360.61 328.64 L 360.64 328.63 L 360.71 328.23 L 360.85 328.13 L 360.86 328.11 L 361.09 328.10 L 361.14 328.10 L 361.18 327.71 L 361.38 327.66 L 361.91 327.64 L 361.92 327.62 L 362.05 327.40 L 362.11 327.41 L 362.13 327.04 L 362.58 327.04 L 362.59 327.02 L 363.26 326.93 L 363.34 326.49 L 363.58 326.49 L 363.85 326.49 L 363.93 326.17 L 363.97 325.92 L 364.10 325.91 L 364.45 325.85 L 364.51 325.84 L 364.66 325.73 L 364.82 325.73 L 365.34 325.74 L 365.40 325.74 L 365.52 325.71 L 365.53 325.71 L 365.69 325.71 L 366.08 325.68 L 366.48 325.64 L 366.54 325.64 L 366.63 325.59 L 366.74 325.47 L 367.05 325.47 L 367.57 325.33 L 367.74 325.08 L 368.02 325.06 L 369.14 324.79 L 369.39 324.79 L 369.57 324.78 L 369.85 324.78 L 369.94 324.76 L 370.22 324.62 L 370.66 324.60 L 370.72 324.48 L 370.80 324.43 L 370.86 324.44 L 370.90 324.40 L 371.25 324.38 L 379.36 324.37 L 379.43 324.37 L 379.93 324.37 L 379.98 324.35 L 380.10 323.99 L 380.19 323.97 L 380.20 323.98 L 380.48 323.97 L 380.55 323.94 L 382.21 323.41 L 382.41 323.35 L 382.55 323.34 L 382.58 323.33 L 383.09 323.32 L 383.27 323.40 L 383.30 323.39 L 383.58 323.36 L 383.88 322.85 L 383.92 322.84 L 384.17 322.82 L 384.27 322.82 L 384.37 322.82 L 384.58 322.71 L 385.03 322.25 L 385.12 322.25 L 385.20 322.18 L 385.38 321.76 L 385.83 321.29 L 386.23 321.32 L 386.31 321.07 L 386.71 321.07 L 386.78 321.04 L 386.85 321.02 L 386.89 320.77 L 387.03 320.76 L 387.06 320.76 L 387.13 320.76 L 387.36 320.76 L 387.71 320.57 L 387.93 320.55 L 388.18 320.55 L 388.30 320.55 L 388.54 320.55 L 388.95 320.55 L 389.36 320.55 L 389.67 320.54 L 389.74 320.54 L 389.82 320.53 L 389.83 320.45 L 390.07 320.39 L 390.14 320.39 L 390.23 320.37 L 390.90 320.37 L 390.91 320.13 L 391.09 320.13 L 391.87 320.13 L 392.38 320.12 L 392.76 320.07 L 392.77 319.98 L 392.80 319.98 L 404.16 319.81 L 404.19 319.81 L 404.33 319.80 L 404.39 319.65 L 404.43 319.65 L 404.44 319.64 L 404.92 319.59 L 405.03 319.10 L 405.17 319.00 L 405.41 318.03 L 405.57 318.02 L 405.76 317.61 L 405.87 317.66 L 405.93 317.65 L 405.98 317.12 L 406.12 317.03 L 406.14 316.67 L 406.19 316.61 L 406.31 316.58 L 406.39 316.40 L 406.50 318.57 L 406.63 318.53 L 406.91 317.66 L 407.04 317.47 L 407.14 317.27 L 407.84 316.93 L 408.44 316.56 L 409.16 316.05 L 409.34 316.00 L 409.54 316.00 L 409.77 315.95 L 413.94 315.70 L 414.29 315.67 L 453.85 314.99 L 578.44 314.97 L 578.85 314.67 L 579.14 314.62 L 579.42 314.62 L 579.86 314.34 L 580.00 314.02 L 580.12 313.43 L 580.32 313.27 L 580.60 313.32 L 580.83 312.97 L 580.89 312.97 L 581.08 312.86 L 581.12 312.86 L 581.33 312.28 L 581.51 311.39 L 582.08 311.31 L 582.10 311.21 L 582.26 310.07 L 582.79 310.03 L 582.81 309.91 L 582.91 309.85 L 583.04 308.81 L 583.62 308.75 L 583.63 308.61 L 583.76 308.53 L 583.89 307.85 L 584.11 307.83 L 584.12 307.72 L 584.22 306.58 L 584.24 306.55 L 584.29 306.52 L 584.53 306.52 L 584.56 306.40 L 584.65 306.32 L 584.91 306.21 L 584.97 306.21 L 585.17 306.15 L 585.52 306.19 L 585.57 306.14 L 585.62 306.11 L 585.68 306.08 L 585.85 304.90 L 586.04 304.87 L 586.06 304.77 L 586.17 303.57 L 586.27 303.13 L 586.30 302.97 L 586.41 302.38 L 586.46 301.36 L 586.67 301.35 L 586.70 301.29 L 586.81 301.08 L 586.96 301.08 L 587.85 301.04 L 588.30 301.02 L 598.03 301.06 L 598.13 300.83 L 598.23 300.66 L 598.39 299.85 L 598.76 299.83 L 598.79 299.75 L 598.85 298.72 L 599.09 298.71 L 599.11 298.61 L 601.24 298.51 L 601.36 298.14 L 602.44 297.96 L 602.55 297.92 L 602.68 296.78 L 603.97 296.45 L 604.52 296.18 L 604.66 295.32 L 605.12 295.32 L 605.41 294.84 L 605.89 294.10 L 606.74 293.65 L 619.77 293.65 L 620.55 293.64 L 620.58 293.64 L 621.67 293.47 L 621.73 293.38 L 622.11 293.31 L 622.55 292.35 L 622.56 292.35 L 622.60 292.31 L 623.18 292.11 L 624.52 291.47 L 624.61 291.40 L 624.75 291.40 L 624.95 291.13 L 625.01 291.09 L 625.08 291.03 L 625.71 291.03 L 626.21 291.03 L 626.47 291.03 L 626.51 290.99 L 627.07 290.01 L 627.50 289.93 L 627.52 289.85 L 627.57 289.76 L 627.63 289.52 L 641.76 289.34 L 641.79 289.31 L 641.83 289.29 L 642.10 289.18 L 642.32 289.05 L 643.56 288.51 L 643.87 288.39 L 644.77 287.98 L 645.54 287.91 L 646.11 287.74 L 646.28 286.31 L 646.99 286.06 L 647.25 285.99 L 647.35 284.95 L 649.44 283.96 L 649.46 283.96 L 649.58 283.50 L 649.97 283.46 L 649.98 283.46 L 650.00 283.34"/>
	</g>
	<g class="poloto_legend poloto_imgs poloto_line poloto0 poloto_stroke"><line x1="680" x2="730" y1="81.25" y2="81.25"/></g>
	<g class="poloto_legend poloto_imgs poloto_line poloto1 poloto_stroke"><line x1="680" x2="730" y1="131.25" y2="131.25"/></g>
	<g class="poloto_legend poloto_imgs poloto_line poloto2 poloto_stroke"><line x1="680" x2="730" y1="181.25" y2="181.25"/></g>
	<text class="poloto_legend poloto_text poloto_line poloto0" x="675" y="100">total</text>
	<text class="poloto_legend poloto_text poloto_line poloto1" x="675" y="150">code</text>
	<text class="poloto_legend poloto_text poloto_line poloto2" x="675" y="200">docs</text>
	<text class="poloto_text poloto_name poloto_title" x="400.00" y="37.50">Workspace lines over time</text>
	<text class="poloto_text poloto_name poloto_x" x="400.00" y="640">date (JST)</text>
	<text class="poloto_text poloto_name poloto_y" x="37.50" y="250.00" transform="rotate(-90,37.50,250.00)">lines</text>
	<text class="poloto_text poloto_ticks poloto_y">
		<tspan x="135.00" y="400.00">0</tspan>
		<tspan x="135.00" y="315.29">50K</tspan>
		<tspan x="135.00" y="230.58">100K</tspan>
		<tspan x="135.00" y="145.87">150K</tspan>
	</text>
	<g class="poloto_imgs poloto_ticks poloto_y" stroke="black">
		<line x1="150.00" x2="144.00" y1="400.00" y2="400.00"/>
		<line x1="150.00" x2="144.00" y1="315.29" y2="315.29"/>
		<line x1="150.00" x2="144.00" y1="230.58" y2="230.58"/>
		<line x1="150.00" x2="144.00" y1="145.87" y2="145.87"/>
	</g>
	<g class="poloto_text poloto_ticks poloto_x">
		<text x="231.44" y="430.00" text-anchor="end" transform="rotate(-90 231.44 430.00)">2026-04-24 12:06</text>
		<text x="356.81" y="430.00" text-anchor="end" transform="rotate(-90 356.81 430.00)">2026-04-30 07:00</text>
		<text x="482.18" y="430.00" text-anchor="end" transform="rotate(-90 482.18 430.00)">2026-05-06 01:53</text>
		<text x="607.54" y="430.00" text-anchor="end" transform="rotate(-90 607.54 430.00)">2026-05-11 20:46</text>
	</g>
	<g class="poloto_imgs poloto_ticks poloto_x" stroke="black">
		<line x1="231.44" x2="231.44" y1="400.00" y2="405.00"/>
		<line x1="356.81" x2="356.81" y1="400.00" y2="405.00"/>
		<line x1="482.18" x2="482.18" y1="400.00" y2="405.00"/>
		<line x1="607.54" x2="607.54" y1="400.00" y2="405.00"/>
	</g>
	<path class="poloto_imgs poloto_ticks poloto_x" stroke="black" style="stroke-dasharray:12.536682332504911;stroke-dashoffset:-81.44405530585209;" d=" M 150.00 400.00 L 650.00 400.00"/>
	<path class="poloto_imgs poloto_ticks poloto_y" stroke="black" style="stroke-dasharray:8.471082547875735;stroke-dashoffset:-0;" d=" M 150.00 400.00 L 150.00 100.00"/>
</svg>

