<svg class="poloto" width="800" height="680" viewBox="0 0 800 680" xmlns="http://www.w3.org/2000/svg">
	<style>
.poloto{
  stroke-linecap:round;
  stroke-linejoin:round;
  font-family:Roboto,sans-serif;
  font-size:16px;
}
.poloto_background{fill:AliceBlue;}
.poloto_scatter{stroke-width:7}
.poloto_line{stroke-width:2}
.poloto_text{fill: black;}
.poloto_name{font-size:24px;dominant-baseline:auto;text-anchor:middle;}
.poloto_where{dominant-baseline:middle;text-anchor:start}
.poloto_text.poloto_legend{font-size:20px;dominant-baseline:middle;text-anchor:start;}
.poloto_text.poloto_ticks.poloto_y{dominant-baseline:middle;text-anchor:end}
.poloto_text.poloto_ticks.poloto_x{dominant-baseline:auto;text-anchor:middle}
.poloto_imgs.poloto_ticks{stroke: black;stroke-width:3;fill:none;stroke-dasharray:none}
.poloto_grid{stroke:gray;stroke-width:0.5}

.poloto0.poloto_stroke{stroke:blue;}
.poloto1.poloto_stroke{stroke:red;}
.poloto2.poloto_stroke{stroke:green;}
.poloto3.poloto_stroke{stroke:gold;}
.poloto4.poloto_stroke{stroke:aqua;}
.poloto5.poloto_stroke{stroke:lime;}
.poloto6.poloto_stroke{stroke:orange;}
.poloto7.poloto_stroke{stroke:chocolate;}
.poloto0.poloto_fill{fill:blue;}
.poloto1.poloto_fill{fill:red;}
.poloto2.poloto_fill{fill:green;}
.poloto3.poloto_fill{fill:gold;}
.poloto4.poloto_fill{fill:aqua;}
.poloto5.poloto_fill{fill:lime;}
.poloto6.poloto_fill{fill:orange;}
.poloto7.poloto_fill{fill:chocolate;}
	</style>
	<circle r="1e5" class="poloto_background" fill="white"/>
	<g id="poloto_plot0" class="poloto_plot poloto_imgs poloto_line poloto0 poloto_stroke" fill="none" stroke="black">
		<path d=" M 150.00 366.49 L 150.03 366.47 L 150.05 366.45 L 150.06 366.45 L 150.09 366.45 L 150.12 362.81 L 150.25 362.37 L 150.56 362.36 L 151.01 362.05 L 151.24 360.21 L 151.70 360.09 L 151.78 360.00 L 151.84 359.96 L 152.38 359.05 L 153.39 358.32 L 153.71 355.46 L 153.79 355.47 L 154.40 355.36 L 155.10 355.34 L 155.10 355.34 L 155.11 355.34 L 164.57 355.34 L 164.64 355.34 L 164.76 355.31 L 164.81 355.28 L 165.17 355.12 L 165.34 355.07 L 165.74 354.81 L 165.80 354.69 L 165.91 354.44 L 166.03 354.40 L 166.07 354.39 L 166.16 354.32 L 166.27 354.32 L 166.37 354.33 L 166.63 353.91 L 166.87 353.64 L 166.91 353.65 L 167.02 353.49 L 167.78 354.14 L 167.79 354.14 L 167.89 354.03 L 168.31 353.55 L 168.66 352.96 L 169.05 352.71 L 169.13 352.66 L 169.14 352.66 L 169.21 352.44 L 169.36 352.44 L 169.55 352.35 L 169.92 352.13 L 169.94 351.79 L 170.01 351.79 L 170.10 351.62 L 170.31 351.62 L 170.34 351.62 L 170.56 351.13 L 170.65 351.10 L 170.73 351.06 L 170.81 350.87 L 171.96 350.60 L 172.24 350.55 L 172.89 350.20 L 173.02 350.21 L 173.12 350.19 L 173.18 349.94 L 173.62 348.50 L 173.82 348.47 L 174.04 347.99 L 174.15 347.94 L 174.42 347.54 L 174.54 347.40 L 174.70 347.14 L 174.84 346.91 L 175.35 343.59 L 175.37 343.51 L 175.39 343.31 L 175.57 341.71 L 184.34 341.59 L 185.25 339.77 L 185.28 339.73 L 186.36 339.44 L 186.45 339.43 L 186.55 339.07 L 186.81 338.89 L 186.93 338.58 L 186.97 338.31 L 187.11 337.83 L 187.43 337.82 L 187.43 337.50 L 187.55 337.14 L 187.68 337.14 L 187.81 336.74 L 187.98 336.45 L 188.05 336.31 L 188.07 336.30 L 188.22 335.99 L 188.25 335.98 L 188.41 335.67 L 188.44 335.66 L 188.69 334.16 L 188.73 334.16 L 188.82 333.91 L 188.93 333.89 L 189.07 333.89 L 189.14 333.86 L 189.63 333.58 L 189.64 333.59 L 189.73 332.92 L 189.95 332.91 L 190.15 331.90 L 190.21 331.82 L 190.31 331.81 L 190.35 331.77 L 190.46 331.00 L 191.01 324.47 L 191.07 324.15 L 191.26 324.12 L 191.32 324.05 L 191.36 324.02 L 191.45 323.85 L 191.54 323.11 L 191.73 322.96 L 191.87 322.94 L 191.98 322.62 L 192.04 322.61 L 192.54 322.37 L 192.81 322.18 L 192.89 321.89 L 193.12 321.88 L 193.14 321.88 L 193.16 321.85 L 193.31 320.28 L 193.42 320.19 L 193.83 318.60 L 193.90 318.14 L 193.98 318.13 L 194.08 317.96 L 194.09 317.84 L 194.14 317.77 L 194.18 317.72 L 194.24 317.72 L 194.29 317.64 L 194.45 316.34 L 194.57 316.15 L 194.69 315.77 L 194.85 315.75 L 195.02 315.63 L 195.20 314.71 L 195.32 313.44 L 195.58 313.37 L 195.58 312.90 L 195.73 312.74 L 207.99 312.74 L 208.23 312.73 L 208.80 312.06 L 208.92 312.04 L 209.02 312.04 L 209.04 311.87 L 209.25 311.66 L 209.39 311.63 L 209.48 311.50 L 209.56 311.42 L 209.61 311.37 L 209.83 311.31 L 210.28 311.23 L 210.39 310.88 L 210.47 310.80 L 210.58 310.78 L 211.14 310.61 L 211.22 310.51 L 211.26 310.51 L 211.30 310.38 L 211.42 310.32 L 211.52 310.20 L 211.93 309.34 L 212.52 309.21 L 212.74 309.16 L 213.39 308.94 L 213.70 304.84 L 213.81 304.75 L 213.95 304.35 L 214.14 303.81 L 214.44 303.66 L 214.85 303.65 L 215.41 303.63 L 215.49 303.45 L 215.90 303.26 L 216.16 302.97 L 216.24 302.84 L 216.40 302.80 L 216.52 302.43 L 217.97 302.03 L 219.35 302.03 L 231.69 301.99 L 231.78 301.81 L 231.84 301.70 L 232.23 301.52 L 233.38 300.11 L 233.43 300.02 L 233.59 299.65 L 234.16 299.56 L 234.43 298.60 L 234.83 298.59 L 234.93 298.58 L 235.02 297.92 L 235.73 294.19 L 235.82 294.19 L 235.97 294.16 L 236.13 294.11 L 236.20 293.70 L 236.60 292.30 L 236.75 292.03 L 236.81 292.02 L 236.90 291.37 L 237.08 290.45 L 237.15 289.48 L 237.33 289.05 L 237.87 284.19 L 237.92 283.70 L 237.97 283.70 L 238.05 283.62 L 238.18 283.49 L 238.24 283.45 L 238.29 283.40 L 238.55 282.23 L 238.61 281.41 L 238.92 281.25 L 239.11 280.03 L 239.22 279.26 L 240.18 267.95 L 240.29 267.92 L 276.55 267.38 L 276.58 267.38 L 290.44 267.22 L 291.20 266.91 L 291.35 266.91 L 291.55 266.83 L 291.62 266.69 L 291.70 266.64 L 297.71 266.57 L 298.51 264.41 L 298.80 264.22 L 298.96 263.43 L 302.70 263.27 L 302.72 263.05 L 302.96 263.03 L 304.08 261.68 L 304.14 261.43 L 304.28 261.35 L 304.67 261.25 L 304.73 261.22 L 304.88 260.81 L 305.05 260.70 L 305.08 260.39 L 316.72 259.98 L 316.81 258.82 L 317.27 258.56 L 317.28 256.63 L 317.36 256.34 L 317.46 255.86 L 317.59 254.52 L 317.79 253.81 L 317.95 252.99 L 318.10 252.98 L 318.16 252.34 L 318.40 252.29 L 319.20 249.16 L 319.53 248.83 L 319.58 248.63 L 319.65 248.63 L 319.69 248.41 L 319.81 247.64 L 320.13 247.27 L 320.18 247.23 L 320.38 244.48 L 320.46 244.47 L 320.49 244.17 L 320.57 243.95 L 320.62 243.94 L 320.66 243.53 L 320.92 242.04 L 321.03 241.62 L 321.17 241.57 L 321.27 237.59 L 321.31 237.27 L 321.56 235.00 L 321.64 234.82 L 321.68 234.82 L 321.75 234.81 L 321.79 234.49 L 321.82 234.51 L 321.84 234.50 L 321.97 230.48 L 322.01 230.14 L 322.14 230.11 L 322.23 230.04 L 322.49 229.93 L 322.81 229.78 L 322.82 229.78 L 322.91 229.73 L 323.21 229.65 L 323.35 229.65 L 323.49 229.65 L 323.64 227.90 L 323.74 227.49 L 324.16 227.48 L 324.19 227.20 L 324.24 227.20 L 324.28 226.90 L 324.55 224.37 L 324.59 224.31 L 324.79 224.29 L 342.71 224.22 L 343.73 224.09 L 343.76 224.09 L 343.96 224.09 L 343.98 224.09 L 344.11 223.59 L 344.21 223.56 L 344.29 223.32 L 344.42 223.26 L 344.46 223.22 L 344.50 223.20 L 344.69 222.92 L 345.08 222.67 L 345.33 221.85 L 345.60 221.08 L 345.61 221.04 L 345.66 220.31 L 345.69 220.29 L 346.23 219.86 L 346.24 219.81 L 346.32 219.24 L 346.55 219.17 L 346.70 219.12 L 346.73 218.09 L 346.74 218.04 L 346.80 219.01 L 346.84 218.42 L 346.87 218.39 L 347.00 217.02 L 347.01 216.98 L 347.29 216.87 L 348.05 216.85 L 348.23 216.80 L 348.29 216.79 L 348.33 216.61 L 348.37 216.61 L 348.48 215.93 L 360.73 214.62 L 360.75 214.45 L 360.85 214.32 L 360.88 214.07 L 360.95 202.62 L 361.09 197.93 L 361.10 197.91 L 361.33 197.81 L 361.38 197.81 L 361.42 197.27 L 361.62 197.22 L 362.14 196.11 L 362.16 196.09 L 362.29 195.75 L 362.34 195.76 L 362.37 195.20 L 362.82 194.55 L 362.83 194.53 L 363.50 194.28 L 363.58 193.69 L 363.82 193.70 L 364.09 192.22 L 364.17 191.64 L 364.21 191.17 L 364.34 190.60 L 364.69 190.40 L 364.75 190.26 L 364.90 190.13 L 365.06 190.13 L 365.58 190.13 L 365.64 190.13 L 365.76 190.10 L 365.77 190.10 L 365.93 190.12 L 366.32 190.09 L 366.72 189.87 L 366.78 189.87 L 366.87 189.79 L 366.99 189.63 L 367.29 189.63 L 367.81 189.42 L 367.98 188.97 L 368.26 185.02 L 369.39 188.36 L 369.63 188.34 L 369.81 188.33 L 370.10 188.32 L 370.19 188.26 L 370.47 188.07 L 370.91 187.80 L 370.97 187.62 L 371.05 187.54 L 371.10 187.56 L 371.15 187.50 L 371.49 187.26 L 379.61 187.25 L 379.69 187.26 L 380.19 187.24 L 380.24 187.22 L 380.35 186.72 L 380.45 186.44 L 380.46 186.43 L 380.74 186.39 L 380.81 186.37 L 382.47 185.62 L 382.67 185.56 L 382.81 185.55 L 382.84 185.54 L 383.36 185.36 L 383.53 185.45 L 383.57 185.45 L 383.84 185.40 L 384.14 183.84 L 384.18 183.83 L 384.43 183.65 L 384.54 183.65 L 384.63 183.65 L 384.84 183.48 L 385.30 182.85 L 385.38 182.82 L 385.46 182.65 L 385.65 181.90 L 386.09 181.13 L 386.49 177.50 L 386.57 177.06 L 386.98 176.89 L 387.05 176.79 L 387.12 176.62 L 387.16 176.03 L 387.30 174.99 L 387.33 175.03 L 387.40 175.01 L 387.63 175.01 L 387.98 174.62 L 388.20 174.55 L 388.45 174.53 L 388.57 174.52 L 388.81 174.51 L 389.22 174.51 L 389.63 174.50 L 389.94 174.49 L 390.01 174.48 L 390.09 174.47 L 390.10 174.34 L 390.34 174.27 L 390.41 174.26 L 390.50 174.10 L 391.17 174.07 L 391.18 173.76 L 391.36 173.75 L 392.14 173.75 L 392.65 173.56 L 393.03 173.33 L 393.04 173.20 L 393.07 173.20 L 404.44 172.99 L 404.48 172.98 L 404.61 172.97 L 404.67 172.79 L 404.71 172.77 L 404.72 172.75 L 405.21 172.71 L 405.31 172.05 L 405.46 171.90 L 405.70 170.61 L 405.86 170.59 L 406.05 170.04 L 406.16 170.11 L 406.21 170.11 L 406.27 169.48 L 406.41 169.05 L 406.43 168.59 L 406.48 168.53 L 406.60 168.49 L 406.68 168.27 L 406.78 170.75 L 406.92 170.70 L 407.20 169.72 L 407.32 169.47 L 407.43 169.27 L 408.13 167.85 L 408.73 167.16 L 409.45 165.85 L 409.63 165.79 L 409.83 165.79 L 410.06 165.73 L 414.24 165.36 L 414.58 165.33 L 454.19 164.33 L 578.92 164.10 L 579.33 163.69 L 579.62 163.64 L 579.90 163.64 L 580.34 162.87 L 580.49 162.50 L 580.60 161.81 L 580.80 159.82 L 581.09 160.23 L 581.32 159.80 L 581.37 159.79 L 581.56 159.66 L 581.61 159.66 L 581.81 158.93 L 582.00 157.76 L 582.56 156.52 L 582.58 156.42 L 582.74 154.94 L 583.28 151.27 L 583.29 151.15 L 583.40 151.07 L 583.53 149.76 L 584.11 148.00 L 584.12 147.83 L 584.25 147.75 L 584.38 146.88 L 584.60 146.20 L 584.61 146.07 L 584.71 144.72 L 584.72 144.69 L 584.77 144.32 L 585.02 141.93 L 585.05 141.80 L 585.14 141.66 L 585.40 141.34 L 585.45 141.33 L 585.66 140.88 L 586.01 140.93 L 586.06 140.87 L 586.11 140.84 L 586.17 140.80 L 586.34 139.40 L 586.53 138.26 L 586.55 138.16 L 586.65 136.73 L 586.76 135.33 L 586.79 135.16 L 586.90 133.53 L 586.95 132.24 L 587.16 131.38 L 587.19 131.32 L 587.30 131.05 L 587.45 131.02 L 588.34 130.99 L 588.79 130.95 L 598.53 131.00 L 598.63 130.75 L 598.73 130.54 L 598.89 129.58 L 599.26 129.33 L 599.29 129.24 L 599.36 127.96 L 599.59 126.73 L 599.61 126.63 L 601.74 126.54 L 601.87 125.85 L 602.94 125.64 L 603.06 125.60 L 603.19 124.16 L 604.48 122.82 L 605.03 122.31 L 605.17 121.26 L 605.63 119.46 L 605.92 118.94 L 606.40 117.88 L 607.26 117.35 L 620.30 117.34 L 621.07 117.21 L 621.11 117.24 L 622.20 117.03 L 622.26 116.92 L 622.64 116.84 L 623.08 115.67 L 623.08 115.67 L 623.13 115.62 L 623.71 114.28 L 625.05 113.52 L 625.14 113.45 L 625.28 113.44 L 625.48 113.09 L 625.54 112.99 L 625.62 112.93 L 626.24 112.88 L 626.74 112.88 L 627.01 112.87 L 627.05 112.82 L 627.60 111.66 L 628.03 111.43 L 628.05 111.34 L 628.10 111.25 L 628.16 110.93 L 642.31 110.49 L 642.34 110.46 L 642.38 110.44 L 642.66 110.31 L 642.87 110.17 L 644.12 108.37 L 644.43 108.15 L 645.32 107.61 L 646.10 107.49 L 646.67 107.31 L 646.83 105.65 L 647.55 103.70 L 647.81 103.56 L 647.91 102.31 L 650.00 100.00"/>
	</g>
	<g id="poloto_plot1" class="poloto_plot poloto_imgs poloto_line poloto1 poloto_stroke" fill="none" stroke="black">
		<path d=" M 150.00 380.09 L 150.03 380.07 L 150.05 380.06 L 150.06 380.06 L 150.09 380.06 L 150.12 379.43 L 150.25 379.41 L 150.56 379.40 L 151.01 379.16 L 151.24 379.05 L 151.70 379.08 L 151.78 379.03 L 151.84 379.03 L 152.38 378.99 L 153.39 378.87 L 153.71 376.41 L 153.79 376.41 L 154.40 376.35 L 155.10 376.34 L 155.10 376.34 L 155.11 376.34 L 164.57 376.34 L 164.64 376.34 L 164.76 376.33 L 164.81 376.30 L 165.17 376.29 L 165.34 376.29 L 165.74 376.29 L 165.80 376.29 L 165.91 376.27 L 166.03 376.27 L 166.07 376.27 L 166.16 376.24 L 166.27 376.24 L 166.37 376.24 L 166.63 376.11 L 166.87 376.11 L 166.91 376.11 L 167.02 376.11 L 167.78 377.03 L 167.79 377.03 L 167.89 377.02 L 168.31 376.88 L 168.66 376.73 L 169.05 376.66 L 169.13 376.61 L 169.14 376.61 L 169.21 376.61 L 169.36 376.61 L 169.55 376.55 L 169.92 376.49 L 169.94 376.49 L 170.01 376.49 L 170.10 376.47 L 170.31 376.47 L 170.34 376.47 L 170.56 376.46 L 170.65 376.46 L 170.73 376.46 L 170.81 376.46 L 171.96 376.35 L 172.24 376.34 L 172.89 376.30 L 173.02 376.30 L 173.12 376.30 L 173.18 376.30 L 173.62 376.22 L 173.82 376.22 L 174.04 376.13 L 174.15 376.12 L 174.42 375.92 L 174.54 375.85 L 174.70 375.85 L 174.84 375.85 L 175.35 372.97 L 175.37 372.92 L 175.39 372.92 L 175.57 372.64 L 184.34 372.64 L 185.25 371.40 L 185.28 371.40 L 186.36 371.40 L 186.45 371.40 L 186.55 371.27 L 186.81 371.25 L 186.93 371.25 L 186.97 371.25 L 187.11 371.25 L 187.43 371.25 L 187.43 370.98 L 187.55 370.97 L 187.68 370.97 L 187.81 370.94 L 187.98 370.93 L 188.05 370.93 L 188.07 370.93 L 188.22 370.93 L 188.25 370.93 L 188.41 370.93 L 188.44 370.93 L 188.69 369.71 L 188.73 369.71 L 188.82 369.57 L 188.93 369.57 L 189.07 369.57 L 189.14 369.55 L 189.63 369.55 L 189.64 369.55 L 189.73 369.47 L 189.95 369.47 L 190.15 368.77 L 190.21 368.69 L 190.31 368.69 L 190.35 368.69 L 190.46 368.67 L 191.01 363.53 L 191.07 363.57 L 191.26 363.57 L 191.32 363.57 L 191.36 363.56 L 191.45 363.56 L 191.54 363.49 L 191.73 363.49 L 191.87 363.49 L 191.98 363.48 L 192.04 363.48 L 192.54 363.47 L 192.81 363.47 L 192.89 363.34 L 193.12 363.34 L 193.14 363.34 L 193.16 363.34 L 193.31 363.00 L 193.42 362.91 L 193.83 361.69 L 193.90 361.69 L 193.98 361.69 L 194.08 361.70 L 194.09 361.70 L 194.14 361.70 L 194.18 361.70 L 194.24 361.70 L 194.29 361.70 L 194.45 361.68 L 194.57 361.68 L 194.69 361.66 L 194.85 361.66 L 195.02 361.66 L 195.20 361.20 L 195.32 361.05 L 195.58 361.05 L 195.58 361.04 L 195.73 361.04 L 207.99 361.04 L 208.23 361.03 L 208.80 360.96 L 208.92 360.94 L 209.02 360.94 L 209.04 360.94 L 209.25 360.94 L 209.39 360.94 L 209.48 360.94 L 209.56 360.94 L 209.61 360.94 L 209.83 360.94 L 210.28 360.96 L 210.39 360.96 L 210.47 360.96 L 210.58 360.96 L 211.14 360.86 L 211.22 360.82 L 211.26 360.82 L 211.30 360.75 L 211.42 360.75 L 211.52 360.75 L 211.93 360.28 L 212.52 360.28 L 212.74 360.28 L 213.39 360.28 L 213.70 357.13 L 213.81 357.13 L 213.95 357.13 L 214.14 357.12 L 214.44 357.12 L 214.85 357.12 L 215.41 357.12 L 215.49 357.12 L 215.90 357.05 L 216.16 356.92 L 216.24 356.92 L 216.40 356.92 L 216.52 356.90 L 217.97 356.70 L 219.35 356.70 L 231.69 356.70 L 231.78 356.70 L 231.84 356.70 L 232.23 356.70 L 233.38 355.71 L 233.43 355.68 L 233.59 355.57 L 234.16 355.57 L 234.43 355.33 L 234.83 355.33 L 234.93 355.33 L 235.02 355.33 L 235.73 352.57 L 235.82 352.57 L 235.97 352.57 L 236.13 352.57 L 236.20 352.39 L 236.60 352.06 L 236.75 352.06 L 236.81 352.06 L 236.90 351.55 L 237.08 351.04 L 237.15 351.04 L 237.33 351.03 L 237.87 346.92 L 237.92 346.92 L 237.97 346.92 L 238.05 346.92 L 238.18 346.92 L 238.24 346.92 L 238.29 346.92 L 238.55 346.92 L 238.61 346.83 L 238.92 346.81 L 239.11 346.75 L 239.22 346.26 L 240.18 338.07 L 240.29 338.07 L 276.55 338.07 L 276.58 338.07 L 290.44 338.07 L 291.20 337.94 L 291.35 337.94 L 291.55 337.94 L 291.62 337.94 L 291.70 337.94 L 297.71 337.88 L 298.51 337.80 L 298.80 337.80 L 298.96 337.77 L 302.70 337.70 L 302.72 337.59 L 302.96 337.60 L 304.08 336.49 L 304.14 336.49 L 304.28 336.49 L 304.67 336.49 L 304.73 336.49 L 304.88 336.49 L 305.05 336.49 L 305.08 336.49 L 316.72 336.47 L 316.81 336.27 L 317.27 336.27 L 317.28 334.93 L 317.36 334.93 L 317.46 334.93 L 317.59 334.81 L 317.79 334.81 L 317.95 334.75 L 318.10 334.75 L 318.16 334.75 L 318.40 334.73 L 319.20 332.46 L 319.53 332.46 L 319.58 332.45 L 319.65 332.45 L 319.69 332.45 L 319.81 332.41 L 320.13 332.13 L 320.18 332.09 L 320.38 330.05 L 320.46 330.04 L 320.49 330.04 L 320.57 330.01 L 320.62 330.01 L 320.66 330.01 L 320.92 328.89 L 321.03 328.88 L 321.17 328.86 L 321.27 325.40 L 321.31 325.40 L 321.56 323.45 L 321.64 323.45 L 321.68 323.45 L 321.75 323.45 L 321.79 323.45 L 321.82 323.45 L 321.84 323.45 L 321.97 319.85 L 322.01 319.85 L 322.14 319.83 L 322.23 319.83 L 322.49 319.76 L 322.81 319.66 L 322.82 319.66 L 322.91 319.64 L 323.21 319.58 L 323.35 319.58 L 323.49 319.58 L 323.64 318.03 L 323.74 318.03 L 324.16 318.03 L 324.19 318.02 L 324.24 318.02 L 324.28 318.02 L 324.55 315.81 L 324.59 315.81 L 324.79 315.79 L 342.71 315.79 L 343.73 315.78 L 343.76 315.78 L 343.96 315.78 L 343.98 315.78 L 344.11 315.78 L 344.21 315.78 L 344.29 315.67 L 344.42 315.67 L 344.46 315.67 L 344.50 315.67 L 344.69 315.47 L 345.08 315.34 L 345.33 315.21 L 345.60 314.58 L 345.61 314.58 L 345.66 314.42 L 345.69 314.41 L 346.23 314.02 L 346.24 314.02 L 346.32 313.97 L 346.55 313.97 L 346.70 313.93 L 346.73 313.01 L 346.74 313.01 L 346.80 313.92 L 346.84 313.87 L 346.87 313.86 L 347.00 312.62 L 347.01 312.62 L 347.29 312.57 L 348.05 312.57 L 348.23 312.57 L 348.29 312.57 L 348.33 312.57 L 348.37 312.57 L 348.48 312.49 L 360.73 311.47 L 360.75 311.47 L 360.85 311.46 L 360.88 311.24 L 360.95 300.31 L 361.09 296.24 L 361.10 296.24 L 361.33 296.17 L 361.38 296.17 L 361.42 296.15 L 361.62 296.15 L 362.14 295.16 L 362.16 295.16 L 362.29 295.10 L 362.34 295.10 L 362.37 295.02 L 362.82 294.42 L 362.83 294.42 L 363.50 294.30 L 363.58 294.26 L 363.82 294.27 L 364.09 292.93 L 364.17 292.79 L 364.21 292.67 L 364.34 292.17 L 364.69 292.04 L 364.75 291.93 L 364.90 291.93 L 365.06 291.93 L 365.58 291.93 L 365.64 291.93 L 365.76 291.93 L 365.77 291.93 L 365.93 291.95 L 366.32 291.95 L 366.72 291.81 L 366.78 291.81 L 366.87 291.79 L 366.99 291.79 L 367.29 291.79 L 367.81 291.79 L 367.98 291.67 L 368.26 288.14 L 369.39 291.47 L 369.63 291.46 L 369.81 291.45 L 370.10 291.45 L 370.19 291.41 L 370.47 291.39 L 370.91 291.19 L 370.97 291.19 L 371.05 291.19 L 371.10 291.19 L 371.15 291.19 L 371.49 290.99 L 379.61 290.99 L 379.69 291.00 L 380.19 290.98 L 380.24 290.98 L 380.35 290.95 L 380.45 290.70 L 380.46 290.70 L 380.74 290.67 L 380.81 290.67 L 382.47 290.47 L 382.67 290.47 L 382.81 290.47 L 382.84 290.47 L 383.36 290.33 L 383.53 290.33 L 383.57 290.33 L 383.84 290.32 L 384.14 289.48 L 384.18 289.48 L 384.43 289.34 L 384.54 289.34 L 384.63 289.34 L 384.84 289.34 L 385.30 289.33 L 385.38 289.31 L 385.46 289.23 L 385.65 289.09 L 386.09 288.96 L 386.49 285.63 L 386.57 285.52 L 386.98 285.36 L 387.05 285.32 L 387.12 285.20 L 387.16 284.97 L 387.30 283.97 L 387.33 284.02 L 387.40 284.00 L 387.63 283.99 L 387.98 283.86 L 388.20 283.80 L 388.45 283.79 L 388.57 283.78 L 388.81 283.76 L 389.22 283.76 L 389.63 283.75 L 389.94 283.75 L 390.01 283.75 L 390.09 283.74 L 390.10 283.74 L 390.34 283.74 L 390.41 283.73 L 390.50 283.60 L 391.17 283.59 L 391.18 283.59 L 391.36 283.57 L 392.14 283.57 L 392.65 283.41 L 393.03 283.26 L 393.04 283.26 L 393.07 283.26 L 404.44 283.26 L 404.48 283.26 L 404.61 283.26 L 404.67 283.26 L 404.71 283.24 L 404.72 283.24 L 405.21 283.24 L 405.31 283.23 L 405.46 283.21 L 405.70 283.18 L 405.86 283.18 L 406.05 283.11 L 406.16 283.11 L 406.21 283.11 L 406.27 283.11 L 406.41 282.80 L 406.43 282.80 L 406.48 282.80 L 406.60 282.80 L 406.68 282.80 L 406.78 282.87 L 406.92 282.87 L 407.20 282.86 L 407.32 282.86 L 407.43 282.86 L 408.13 281.88 L 408.73 281.62 L 409.45 280.92 L 409.63 280.92 L 409.83 280.92 L 410.06 280.92 L 414.24 280.83 L 414.58 280.83 L 454.19 280.71 L 578.92 280.53 L 579.33 280.47 L 579.62 280.46 L 579.90 280.46 L 580.34 280.01 L 580.49 280.01 L 580.60 280.01 L 580.80 278.37 L 581.09 278.68 L 581.32 278.66 L 581.37 278.66 L 581.56 278.65 L 581.61 278.65 L 581.81 278.64 L 582.00 278.57 L 582.56 277.53 L 582.58 277.53 L 582.74 277.44 L 583.28 274.08 L 583.29 274.08 L 583.40 274.08 L 583.53 274.03 L 584.11 272.47 L 584.12 272.47 L 584.25 272.47 L 584.38 272.43 L 584.60 271.86 L 584.61 271.86 L 584.71 271.85 L 584.72 271.85 L 584.77 271.53 L 585.02 269.31 L 585.05 269.31 L 585.14 269.31 L 585.40 269.13 L 585.45 269.13 L 585.66 268.76 L 586.01 268.76 L 586.06 268.76 L 586.11 268.76 L 586.17 268.76 L 586.34 268.75 L 586.53 267.75 L 586.55 267.75 L 586.65 267.75 L 586.76 266.99 L 586.79 266.99 L 586.90 266.18 L 586.95 266.14 L 587.16 265.34 L 587.19 265.34 L 587.30 265.34 L 587.45 265.33 L 588.34 265.33 L 588.79 265.32 L 598.53 265.32 L 598.63 265.32 L 598.73 265.32 L 598.89 265.32 L 599.26 265.11 L 599.29 265.11 L 599.36 265.04 L 599.59 263.93 L 599.61 263.93 L 601.74 263.96 L 601.87 263.74 L 602.94 263.74 L 603.06 263.73 L 603.19 263.65 L 604.48 262.74 L 605.03 262.56 L 605.17 262.50 L 605.63 260.77 L 605.92 260.77 L 606.40 260.63 L 607.26 260.63 L 620.30 260.62 L 621.07 260.52 L 621.11 260.54 L 622.20 260.54 L 622.26 260.54 L 622.64 260.54 L 623.08 260.50 L 623.08 260.50 L 623.13 260.50 L 623.71 259.49 L 625.05 259.46 L 625.14 259.46 L 625.28 259.46 L 625.48 259.42 L 625.54 259.39 L 625.62 259.39 L 626.24 259.34 L 626.74 259.34 L 627.01 259.34 L 627.05 259.34 L 627.60 259.32 L 628.03 259.20 L 628.05 259.20 L 628.10 259.20 L 628.16 259.20 L 642.31 258.96 L 642.34 258.96 L 642.38 258.96 L 642.66 258.96 L 642.87 258.96 L 644.12 257.96 L 644.43 257.90 L 645.32 257.82 L 646.10 257.77 L 646.67 257.77 L 646.83 257.77 L 647.55 256.26 L 647.81 256.22 L 647.91 256.16 L 650.00 255.10"/>
	</g>
	<g id="poloto_plot2" class="poloto_plot poloto_imgs poloto_line poloto2 poloto_stroke" fill="none" stroke="black">
		<path d=" M 150.00 391.07 L 150.03 391.06 L 150.05 391.06 L 150.06 391.06 L 150.09 391.06 L 150.12 388.77 L 150.25 388.46 L 150.56 388.46 L 151.01 388.44 L 151.24 387.07 L 151.70 386.95 L 151.78 386.91 L 151.84 386.88 L 152.38 386.26 L 153.39 385.78 L 153.71 385.69 L 153.79 385.70 L 154.40 385.66 L 155.10 385.66 L 155.10 385.66 L 155.11 385.66 L 164.57 385.66 L 164.64 385.66 L 164.76 385.64 L 164.81 385.64 L 165.17 385.50 L 165.34 385.46 L 165.74 385.24 L 165.80 385.14 L 165.91 384.94 L 166.03 384.91 L 166.07 384.91 L 166.16 384.87 L 166.27 384.87 L 166.37 384.87 L 166.63 384.64 L 166.87 384.43 L 166.91 384.43 L 167.02 384.31 L 167.78 384.03 L 167.79 384.03 L 167.89 383.95 L 168.31 383.64 L 168.66 383.27 L 169.05 383.12 L 169.13 383.12 L 169.14 383.12 L 169.21 382.91 L 169.36 382.91 L 169.55 382.89 L 169.92 382.73 L 169.94 382.46 L 170.01 382.46 L 170.10 382.34 L 170.31 382.34 L 170.34 382.34 L 170.56 381.93 L 170.65 381.91 L 170.73 381.87 L 170.81 381.69 L 171.96 381.58 L 172.24 381.54 L 172.89 381.26 L 173.02 381.26 L 173.12 381.24 L 173.18 381.04 L 173.62 379.92 L 173.82 379.90 L 174.04 379.57 L 174.15 379.53 L 174.42 379.38 L 174.54 379.33 L 174.70 379.09 L 174.84 378.90 L 175.35 378.89 L 175.37 378.87 L 175.39 378.71 L 175.57 377.63 L 184.34 377.52 L 185.25 377.19 L 185.28 377.15 L 186.36 376.88 L 186.45 376.87 L 186.55 376.67 L 186.81 376.54 L 186.93 376.29 L 186.97 376.09 L 187.11 375.69 L 187.43 375.68 L 187.43 375.68 L 187.55 375.40 L 187.68 375.40 L 187.81 375.10 L 187.98 374.87 L 188.05 374.74 L 188.07 374.74 L 188.22 374.47 L 188.25 374.46 L 188.41 374.21 L 188.44 374.21 L 188.69 374.12 L 188.73 374.12 L 188.82 374.03 L 188.93 374.01 L 189.07 374.01 L 189.14 373.99 L 189.63 373.75 L 189.64 373.76 L 189.73 373.27 L 189.95 373.25 L 190.15 373.10 L 190.21 373.10 L 190.31 373.10 L 190.35 373.06 L 190.46 372.39 L 191.01 371.83 L 191.07 371.52 L 191.26 371.50 L 191.32 371.42 L 191.36 371.41 L 191.45 371.26 L 191.54 370.74 L 191.73 370.65 L 191.87 370.64 L 191.98 370.38 L 192.04 370.37 L 192.54 370.17 L 192.81 370.03 L 192.89 369.91 L 193.12 369.90 L 193.14 369.90 L 193.16 369.87 L 193.31 368.92 L 193.42 368.91 L 193.83 368.77 L 193.90 368.39 L 193.98 368.38 L 194.08 368.23 L 194.09 368.14 L 194.14 368.07 L 194.18 368.03 L 194.24 368.03 L 194.29 367.96 L 194.45 366.88 L 194.57 366.77 L 194.69 366.45 L 194.85 366.43 L 195.02 366.32 L 195.20 365.99 L 195.32 365.05 L 195.58 364.98 L 195.58 364.58 L 195.73 364.49 L 207.99 364.49 L 208.23 364.49 L 208.80 364.05 L 208.92 364.05 L 209.02 364.05 L 209.04 363.93 L 209.25 363.74 L 209.39 363.71 L 209.48 363.60 L 209.56 363.52 L 209.61 363.48 L 209.83 363.42 L 210.28 363.51 L 210.39 363.21 L 210.47 363.13 L 210.58 363.12 L 211.14 363.07 L 211.22 363.01 L 211.26 363.01 L 211.30 362.96 L 211.42 362.91 L 211.52 362.80 L 211.93 362.52 L 212.52 362.40 L 212.74 362.35 L 213.39 362.17 L 213.70 361.74 L 213.81 361.67 L 213.95 361.33 L 214.14 360.89 L 214.44 360.77 L 214.85 360.76 L 215.41 360.74 L 215.49 360.58 L 215.90 360.48 L 216.16 360.34 L 216.24 360.23 L 216.40 360.18 L 216.52 359.89 L 217.97 359.75 L 219.35 359.75 L 231.69 359.71 L 231.78 359.56 L 231.84 359.45 L 232.23 359.29 L 233.38 359.00 L 233.43 358.95 L 233.59 358.75 L 234.16 358.67 L 234.43 358.10 L 234.83 358.09 L 234.93 358.07 L 235.02 357.51 L 235.73 356.99 L 235.82 356.99 L 235.97 356.96 L 236.13 356.91 L 236.20 356.72 L 236.60 355.85 L 236.75 355.63 L 236.81 355.62 L 236.90 355.52 L 237.08 355.19 L 237.15 354.32 L 237.33 353.96 L 237.87 353.76 L 237.92 353.32 L 237.97 353.32 L 238.05 353.24 L 238.18 353.13 L 238.24 353.10 L 238.29 353.05 L 238.55 352.04 L 238.61 351.45 L 238.92 351.33 L 239.11 350.33 L 239.22 350.13 L 240.18 348.55 L 240.29 348.52 L 276.55 348.06 L 276.58 348.06 L 290.44 347.93 L 291.20 347.76 L 291.35 347.76 L 291.55 347.68 L 291.62 347.55 L 291.70 347.52 L 297.71 347.51 L 298.51 345.69 L 298.80 345.53 L 298.96 344.90 L 302.70 344.82 L 302.72 344.76 L 302.96 344.75 L 304.08 344.64 L 304.14 344.43 L 304.28 344.35 L 304.67 344.26 L 304.73 344.24 L 304.88 343.88 L 305.05 343.78 L 305.08 343.51 L 316.72 343.17 L 316.81 342.34 L 317.27 342.12 L 317.28 341.80 L 317.36 341.56 L 317.46 341.18 L 317.59 340.17 L 317.79 339.62 L 317.95 338.92 L 318.10 338.91 L 318.16 338.37 L 318.40 338.33 L 319.20 337.81 L 319.53 337.57 L 319.58 337.42 L 319.65 337.42 L 319.69 337.24 L 319.81 336.62 L 320.13 336.55 L 320.18 336.55 L 320.38 336.15 L 320.46 336.15 L 320.49 335.91 L 320.57 335.77 L 320.62 335.76 L 320.66 335.44 L 320.92 335.25 L 321.03 334.93 L 321.17 334.91 L 321.27 334.74 L 321.31 334.49 L 321.56 334.36 L 321.64 334.22 L 321.68 334.22 L 321.75 334.22 L 321.79 333.96 L 321.82 333.97 L 321.84 333.97 L 321.97 333.88 L 322.01 333.60 L 322.14 333.60 L 322.23 333.53 L 322.49 333.51 L 322.81 333.48 L 322.82 333.48 L 322.91 333.47 L 323.21 333.47 L 323.35 333.47 L 323.49 333.47 L 323.64 333.42 L 323.74 333.09 L 324.16 333.08 L 324.19 332.89 L 324.24 332.89 L 324.28 332.66 L 324.55 332.59 L 324.59 332.53 L 324.79 332.53 L 342.71 332.47 L 343.73 332.38 L 343.76 332.38 L 343.96 332.38 L 343.98 332.38 L 344.11 331.99 L 344.21 331.97 L 344.29 331.86 L 344.42 331.80 L 344.46 331.77 L 344.50 331.75 L 344.69 331.71 L 345.08 331.63 L 345.33 331.11 L 345.60 331.08 L 345.61 331.04 L 345.66 330.60 L 345.69 330.60 L 346.23 330.60 L 346.24 330.56 L 346.32 330.15 L 346.55 330.10 L 346.70 330.08 L 346.73 330.07 L 346.74 330.03 L 346.80 330.00 L 346.84 329.58 L 346.87 329.57 L 347.00 329.57 L 347.01 329.54 L 347.29 329.50 L 348.05 329.48 L 348.23 329.45 L 348.29 329.43 L 348.33 329.30 L 348.37 329.30 L 348.48 328.83 L 360.73 328.69 L 360.75 328.55 L 360.85 328.46 L 360.88 328.44 L 360.95 328.05 L 361.09 327.95 L 361.10 327.92 L 361.33 327.92 L 361.38 327.92 L 361.42 327.52 L 361.62 327.47 L 362.14 327.46 L 362.16 327.44 L 362.29 327.22 L 362.34 327.23 L 362.37 326.86 L 362.82 326.86 L 362.83 326.84 L 363.50 326.75 L 363.58 326.31 L 363.82 326.31 L 364.09 326.31 L 364.17 325.98 L 364.21 325.73 L 364.34 325.72 L 364.69 325.67 L 364.75 325.65 L 364.90 325.54 L 365.06 325.54 L 365.58 325.55 L 365.64 325.55 L 365.76 325.52 L 365.77 325.52 L 365.93 325.52 L 366.32 325.49 L 366.72 325.45 L 366.78 325.45 L 366.87 325.40 L 366.99 325.28 L 367.29 325.28 L 367.81 325.14 L 367.98 324.89 L 368.26 324.87 L 369.39 324.60 L 369.63 324.60 L 369.81 324.59 L 370.10 324.59 L 370.19 324.57 L 370.47 324.43 L 370.91 324.41 L 370.97 324.29 L 371.05 324.23 L 371.10 324.25 L 371.15 324.20 L 371.49 324.18 L 379.61 324.18 L 379.69 324.18 L 380.19 324.18 L 380.24 324.16 L 380.35 323.80 L 380.45 323.78 L 380.46 323.78 L 380.74 323.77 L 380.81 323.75 L 382.47 323.21 L 382.67 323.15 L 382.81 323.14 L 382.84 323.14 L 383.36 323.13 L 383.53 323.20 L 383.57 323.20 L 383.84 323.16 L 384.14 322.65 L 384.18 322.64 L 384.43 322.62 L 384.54 322.62 L 384.63 322.62 L 384.84 322.52 L 385.30 322.05 L 385.38 322.05 L 385.46 321.98 L 385.65 321.56 L 386.09 321.09 L 386.49 321.12 L 386.57 320.87 L 386.98 320.87 L 387.05 320.84 L 387.12 320.82 L 387.16 320.57 L 387.30 320.56 L 387.33 320.56 L 387.40 320.56 L 387.63 320.56 L 387.98 320.36 L 388.20 320.34 L 388.45 320.34 L 388.57 320.34 L 388.81 320.34 L 389.22 320.34 L 389.63 320.34 L 389.94 320.34 L 390.01 320.34 L 390.09 320.33 L 390.10 320.24 L 390.34 320.18 L 390.41 320.18 L 390.50 320.17 L 391.17 320.16 L 391.18 319.92 L 391.36 319.92 L 392.14 319.93 L 392.65 319.92 L 393.03 319.87 L 393.04 319.77 L 393.07 319.77 L 404.44 319.61 L 404.48 319.60 L 404.61 319.59 L 404.67 319.45 L 404.71 319.45 L 404.72 319.44 L 405.21 319.39 L 405.31 318.90 L 405.46 318.79 L 405.70 317.82 L 405.86 317.81 L 406.05 317.40 L 406.16 317.45 L 406.21 317.44 L 406.27 316.91 L 406.41 316.82 L 406.43 316.46 L 406.48 316.40 L 406.60 316.37 L 406.68 316.18 L 406.78 318.36 L 406.92 318.32 L 407.20 317.45 L 407.32 317.26 L 407.43 317.06 L 408.13 316.72 L 408.73 316.35 L 409.45 315.84 L 409.63 315.79 L 409.83 315.79 L 410.06 315.74 L 414.24 315.48 L 414.58 315.46 L 454.19 314.78 L 578.92 314.75 L 579.33 314.45 L 579.62 314.40 L 579.90 314.40 L 580.34 314.12 L 580.49 313.80 L 580.60 313.20 L 580.80 313.05 L 581.09 313.10 L 581.32 312.75 L 581.37 312.75 L 581.56 312.64 L 581.61 312.64 L 581.81 312.06 L 582.00 311.17 L 582.56 311.08 L 582.58 310.99 L 582.74 309.84 L 583.28 309.80 L 583.29 309.68 L 583.40 309.62 L 583.53 308.57 L 584.11 308.52 L 584.12 308.37 L 584.25 308.30 L 584.38 307.62 L 584.60 307.59 L 584.61 307.48 L 584.71 306.34 L 584.72 306.32 L 584.77 306.28 L 585.02 306.28 L 585.05 306.16 L 585.14 306.08 L 585.40 305.97 L 585.45 305.97 L 585.66 305.91 L 586.01 305.95 L 586.06 305.90 L 586.11 305.87 L 586.17 305.84 L 586.34 304.66 L 586.53 304.63 L 586.55 304.53 L 586.65 303.32 L 586.76 302.88 L 586.79 302.73 L 586.90 302.14 L 586.95 301.11 L 587.16 301.10 L 587.19 301.04 L 587.30 300.83 L 587.45 300.83 L 588.34 300.79 L 588.79 300.77 L 598.53 300.81 L 598.63 300.58 L 598.73 300.41 L 598.89 299.59 L 599.26 299.58 L 599.29 299.50 L 599.36 298.47 L 599.59 298.46 L 599.61 298.36 L 601.74 298.25 L 601.87 297.88 L 602.94 297.70 L 603.06 297.66 L 603.19 296.52 L 604.48 296.19 L 605.03 295.91 L 605.17 295.05 L 605.63 295.05 L 605.92 294.57 L 606.40 293.83 L 607.26 293.38 L 620.30 293.38 L 621.07 293.36 L 621.11 293.36 L 622.20 293.20 L 622.26 293.11 L 622.64 293.04 L 623.08 292.08 L 623.08 292.08 L 623.13 292.03 L 623.71 291.83 L 625.05 291.19 L 625.14 291.13 L 625.28 291.12 L 625.48 290.85 L 625.54 290.81 L 625.62 290.76 L 626.24 290.76 L 626.74 290.76 L 627.01 290.76 L 627.05 290.71 L 627.60 289.73 L 628.03 289.65 L 628.05 289.57 L 628.10 289.48 L 628.16 289.24 L 642.31 289.06 L 642.34 289.03 L 642.38 289.01 L 642.66 288.89 L 642.87 288.77 L 644.12 288.22 L 644.43 288.11 L 645.32 287.69 L 646.10 287.63 L 646.67 287.46 L 646.83 286.02 L 647.55 285.77 L 647.81 285.70 L 647.91 284.66 L 650.00 283.67"/>
	</g>
	<g class="poloto_legend poloto_imgs poloto_line poloto0 poloto_stroke"><line x1="680" x2="730" y1="81.25" y2="81.25"/></g>
	<g class="poloto_legend poloto_imgs poloto_line poloto1 poloto_stroke"><line x1="680" x2="730" y1="131.25" y2="131.25"/></g>
	<g class="poloto_legend poloto_imgs poloto_line poloto2 poloto_stroke"><line x1="680" x2="730" y1="181.25" y2="181.25"/></g>
	<text class="poloto_legend poloto_text poloto_line poloto0" x="675" y="100">total</text>
	<text class="poloto_legend poloto_text poloto_line poloto1" x="675" y="150">code</text>
	<text class="poloto_legend poloto_text poloto_line poloto2" x="675" y="200">docs</text>
	<text class="poloto_text poloto_name poloto_title" x="400.00" y="37.50">Workspace lines over time</text>
	<text class="poloto_text poloto_name poloto_x" x="400.00" y="640">date (JST)</text>
	<text class="poloto_text poloto_name poloto_y" x="37.50" y="250.00" transform="rotate(-90,37.50,250.00)">lines</text>
	<text class="poloto_text poloto_ticks poloto_y">
		<tspan x="135.00" y="400.00">0</tspan>
		<tspan x="135.00" y="315.07">50K</tspan>
		<tspan x="135.00" y="230.15">100K</tspan>
		<tspan x="135.00" y="145.22">150K</tspan>
	</text>
	<g class="poloto_imgs poloto_ticks poloto_y" stroke="black">
		<line x1="150.00" x2="144.00" y1="400.00" y2="400.00"/>
		<line x1="150.00" x2="144.00" y1="315.07" y2="315.07"/>
		<line x1="150.00" x2="144.00" y1="230.15" y2="230.15"/>
		<line x1="150.00" x2="144.00" y1="145.22" y2="145.22"/>
	</g>
	<g class="poloto_text poloto_ticks poloto_x">
		<text x="231.54" y="430.00" text-anchor="end" transform="rotate(-90 231.54 430.00)">2026-04-24 12:06</text>
		<text x="357.04" y="430.00" text-anchor="end" transform="rotate(-90 357.04 430.00)">2026-04-30 07:00</text>
		<text x="482.55" y="430.00" text-anchor="end" transform="rotate(-90 482.55 430.00)">2026-05-06 01:53</text>
		<text x="608.06" y="430.00" text-anchor="end" transform="rotate(-90 608.06 430.00)">2026-05-11 20:46</text>
	</g>
	<g class="poloto_imgs poloto_ticks poloto_x" stroke="black">
		<line x1="231.54" x2="231.54" y1="400.00" y2="405.00"/>
		<line x1="357.04" x2="357.04" y1="400.00" y2="405.00"/>
		<line x1="482.55" x2="482.55" y1="400.00" y2="405.00"/>
		<line x1="608.06" x2="608.06" y1="400.00" y2="405.00"/>
	</g>
	<path class="poloto_imgs poloto_ticks poloto_x" stroke="black" style="stroke-dasharray:12.550736351701755;stroke-dashoffset:-81.5353566793492;" d=" M 150.00 400.00 L 650.00 400.00"/>
	<path class="poloto_imgs poloto_ticks poloto_y" stroke="black" style="stroke-dasharray:8.492665168183079;stroke-dashoffset:-0;" d=" M 150.00 400.00 L 150.00 100.00"/>
</svg>

