<svg class="poloto" width="800" height="680" viewBox="0 0 800 680" xmlns="http://www.w3.org/2000/svg">
	<style>
.poloto{
  stroke-linecap:round;
  stroke-linejoin:round;
  font-family:Roboto,sans-serif;
  font-size:16px;
}
.poloto_background{fill:AliceBlue;}
.poloto_scatter{stroke-width:7}
.poloto_line{stroke-width:2}
.poloto_text{fill: black;}
.poloto_name{font-size:24px;dominant-baseline:auto;text-anchor:middle;}
.poloto_where{dominant-baseline:middle;text-anchor:start}
.poloto_text.poloto_legend{font-size:20px;dominant-baseline:middle;text-anchor:start;}
.poloto_text.poloto_ticks.poloto_y{dominant-baseline:middle;text-anchor:end}
.poloto_text.poloto_ticks.poloto_x{dominant-baseline:auto;text-anchor:middle}
.poloto_imgs.poloto_ticks{stroke: black;stroke-width:3;fill:none;stroke-dasharray:none}
.poloto_grid{stroke:gray;stroke-width:0.5}

.poloto0.poloto_stroke{stroke:blue;}
.poloto1.poloto_stroke{stroke:red;}
.poloto2.poloto_stroke{stroke:green;}
.poloto3.poloto_stroke{stroke:gold;}
.poloto4.poloto_stroke{stroke:aqua;}
.poloto5.poloto_stroke{stroke:lime;}
.poloto6.poloto_stroke{stroke:orange;}
.poloto7.poloto_stroke{stroke:chocolate;}
.poloto0.poloto_fill{fill:blue;}
.poloto1.poloto_fill{fill:red;}
.poloto2.poloto_fill{fill:green;}
.poloto3.poloto_fill{fill:gold;}
.poloto4.poloto_fill{fill:aqua;}
.poloto5.poloto_fill{fill:lime;}
.poloto6.poloto_fill{fill:orange;}
.poloto7.poloto_fill{fill:chocolate;}
	</style>
	<circle r="1e5" class="poloto_background" fill="white"/>
	<g id="poloto_plot0" class="poloto_plot poloto_imgs poloto_line poloto0 poloto_stroke" fill="none" stroke="black">
		<path d=" M 150.00 368.89 L 150.03 368.87 L 150.05 368.85 L 150.06 368.85 L 150.08 368.85 L 150.11 365.47 L 150.24 365.06 L 150.54 365.05 L 150.97 364.77 L 151.19 363.05 L 151.63 362.95 L 151.71 362.86 L 151.77 362.82 L 152.28 361.98 L 153.25 361.30 L 153.55 358.65 L 153.63 358.65 L 154.21 358.55 L 154.88 358.54 L 154.89 358.54 L 154.89 358.54 L 163.96 358.54 L 164.02 358.53 L 164.14 358.51 L 164.19 358.48 L 164.54 358.33 L 164.69 358.29 L 165.08 358.04 L 165.13 357.93 L 165.24 357.69 L 165.36 357.66 L 165.39 357.65 L 165.48 357.59 L 165.58 357.59 L 165.68 357.59 L 165.93 357.20 L 166.16 356.96 L 166.20 356.96 L 166.31 356.82 L 167.03 357.42 L 167.04 357.42 L 167.13 357.32 L 167.54 356.87 L 167.87 356.33 L 168.25 356.09 L 168.32 356.04 L 168.33 356.05 L 168.40 355.84 L 168.55 355.84 L 168.73 355.76 L 169.08 355.56 L 169.10 355.24 L 169.17 355.24 L 169.25 355.08 L 169.46 355.08 L 169.48 355.08 L 169.69 354.62 L 169.78 354.60 L 169.85 354.56 L 169.94 354.38 L 171.04 354.14 L 171.31 354.09 L 171.92 353.77 L 172.05 353.77 L 172.15 353.75 L 172.20 353.52 L 172.62 352.18 L 172.81 352.16 L 173.03 351.71 L 173.14 351.67 L 173.39 351.29 L 173.50 351.16 L 173.66 350.92 L 173.80 350.71 L 174.28 347.62 L 174.30 347.55 L 174.32 347.36 L 174.49 345.88 L 182.90 345.77 L 183.77 344.08 L 183.80 344.04 L 184.83 343.77 L 184.91 343.76 L 185.01 343.43 L 185.26 343.26 L 185.38 342.97 L 185.42 342.72 L 185.55 342.28 L 185.85 342.27 L 185.86 341.97 L 185.97 341.64 L 186.09 341.63 L 186.22 341.26 L 186.38 340.99 L 186.45 340.86 L 186.47 340.86 L 186.61 340.57 L 186.64 340.56 L 186.80 340.27 L 186.82 340.26 L 187.06 338.87 L 187.10 338.87 L 187.19 338.63 L 187.29 338.62 L 187.43 338.62 L 187.49 338.59 L 187.96 338.33 L 187.97 338.34 L 188.06 337.72 L 188.27 337.70 L 188.46 336.77 L 188.52 336.69 L 188.61 336.69 L 188.65 336.65 L 188.76 335.93 L 189.29 329.87 L 189.34 329.58 L 189.52 329.55 L 189.58 329.48 L 189.62 329.46 L 189.70 329.30 L 189.79 328.61 L 189.97 328.47 L 190.11 328.45 L 190.21 328.15 L 190.27 328.14 L 190.75 327.92 L 191.00 327.75 L 191.08 327.48 L 191.30 327.46 L 191.32 327.46 L 191.34 327.44 L 191.48 325.98 L 191.59 325.90 L 191.98 324.43 L 192.05 324.00 L 192.12 323.99 L 192.23 323.83 L 192.24 323.72 L 192.28 323.65 L 192.32 323.61 L 192.38 323.60 L 192.43 323.53 L 192.58 322.33 L 192.70 322.15 L 192.81 321.80 L 192.96 321.77 L 193.13 321.66 L 193.29 320.81 L 193.41 319.63 L 193.66 319.57 L 193.66 319.13 L 193.81 318.98 L 205.55 318.98 L 205.77 318.97 L 206.33 318.35 L 206.44 318.33 L 206.53 318.33 L 206.55 318.18 L 206.75 317.98 L 206.89 317.95 L 206.97 317.83 L 207.05 317.75 L 207.10 317.71 L 207.31 317.65 L 207.74 317.58 L 207.84 317.26 L 207.92 317.18 L 208.02 317.16 L 208.57 317.00 L 208.64 316.91 L 208.68 316.91 L 208.72 316.79 L 208.84 316.74 L 208.93 316.62 L 209.32 315.83 L 209.89 315.70 L 210.09 315.65 L 210.72 315.45 L 211.02 311.65 L 211.12 311.56 L 211.25 311.19 L 211.44 310.69 L 211.72 310.55 L 212.12 310.54 L 212.65 310.52 L 212.73 310.36 L 213.12 310.18 L 213.37 309.91 L 213.45 309.79 L 213.60 309.75 L 213.72 309.41 L 215.11 309.04 L 216.43 309.04 L 228.25 309.00 L 228.33 308.84 L 228.40 308.73 L 228.77 308.57 L 229.87 307.25 L 229.92 307.17 L 230.07 306.83 L 230.61 306.74 L 230.87 305.85 L 231.26 305.85 L 231.35 305.83 L 231.44 305.22 L 232.12 301.76 L 232.21 301.75 L 232.35 301.73 L 232.50 301.68 L 232.57 301.30 L 232.95 300.00 L 233.09 299.76 L 233.16 299.74 L 233.24 299.13 L 233.41 298.28 L 233.48 297.38 L 233.65 296.98 L 234.17 292.48 L 234.22 292.02 L 234.27 292.02 L 234.34 291.94 L 234.47 291.82 L 234.52 291.78 L 234.57 291.73 L 234.82 290.65 L 234.87 289.89 L 235.17 289.74 L 235.35 288.61 L 235.46 287.89 L 236.38 277.39 L 236.49 277.36 L 271.22 276.86 L 271.25 276.86 L 284.53 276.72 L 285.25 276.43 L 285.40 276.43 L 285.59 276.35 L 285.65 276.22 L 285.73 276.18 L 291.49 276.11 L 292.25 274.11 L 292.53 273.93 L 292.68 273.20 L 296.27 273.05 L 296.29 272.85 L 296.51 272.83 L 297.59 271.57 L 297.65 271.34 L 297.78 271.26 L 298.16 271.17 L 298.21 271.14 L 298.36 270.76 L 298.52 270.66 L 298.55 270.38 L 309.70 269.99 L 309.78 268.92 L 310.23 268.68 L 310.24 266.88 L 310.31 266.61 L 310.41 266.17 L 310.53 264.93 L 310.72 264.27 L 310.88 263.50 L 311.02 263.49 L 311.08 262.90 L 311.31 262.85 L 312.08 259.95 L 312.39 259.64 L 312.44 259.46 L 312.51 259.45 L 312.55 259.25 L 312.65 258.54 L 312.97 258.20 L 313.01 258.15 L 313.21 255.60 L 313.28 255.59 L 313.31 255.32 L 313.38 255.11 L 313.43 255.10 L 313.47 254.72 L 313.72 253.34 L 313.82 252.95 L 313.96 252.90 L 314.05 249.21 L 314.09 248.91 L 314.34 246.80 L 314.40 246.64 L 314.45 246.63 L 314.51 246.63 L 314.55 246.33 L 314.59 246.34 L 314.60 246.33 L 314.72 242.61 L 314.77 242.28 L 314.89 242.26 L 314.97 242.20 L 315.23 242.09 L 315.53 241.95 L 315.54 241.95 L 315.63 241.91 L 315.91 241.84 L 316.05 241.84 L 316.18 241.84 L 316.33 240.21 L 316.42 239.82 L 316.82 239.82 L 316.85 239.56 L 316.90 239.56 L 316.93 239.28 L 317.19 236.93 L 317.24 236.87 L 317.43 236.86 L 334.59 236.79 L 335.57 236.67 L 335.60 236.67 L 335.79 236.67 L 335.81 236.67 L 335.93 236.20 L 336.03 236.18 L 336.11 235.95 L 336.23 235.90 L 336.26 235.86 L 336.31 235.84 L 336.49 235.58 L 336.86 235.35 L 337.10 234.59 L 337.36 233.87 L 337.37 233.84 L 337.42 233.16 L 337.45 233.14 L 337.96 232.74 L 337.97 232.70 L 338.05 232.16 L 338.27 232.10 L 338.41 232.05 L 338.44 231.10 L 338.45 231.05 L 338.51 231.96 L 338.55 231.40 L 338.57 231.38 L 338.70 230.11 L 338.71 230.07 L 338.98 229.97 L 339.71 229.95 L 339.88 229.90 L 339.94 229.89 L 339.97 229.73 L 340.02 229.73 L 340.12 229.10 L 351.85 227.88 L 351.87 227.72 L 351.97 227.60 L 352.00 227.36 L 352.06 216.74 L 352.19 212.38 L 352.21 212.36 L 352.42 212.27 L 352.48 212.27 L 352.51 211.77 L 352.70 211.72 L 353.21 210.69 L 353.22 210.67 L 353.35 210.35 L 353.40 210.36 L 353.43 209.85 L 353.85 209.25 L 353.86 209.22 L 354.50 208.99 L 354.58 208.45 L 354.81 208.46 L 355.08 207.08 L 355.14 206.54 L 355.19 206.11 L 355.31 205.58 L 355.64 205.39 L 355.70 205.26 L 355.85 205.14 L 356.00 205.14 L 356.50 205.14 L 356.56 205.14 L 356.67 205.11 L 356.68 205.11 L 356.84 205.13 L 357.21 205.10 L 357.59 204.90 L 357.65 204.90 L 357.74 204.82 L 357.84 204.67 L 358.14 204.67 L 358.64 204.48 L 358.80 204.06 L 359.07 200.39 L 360.15 203.49 L 360.38 203.48 L 360.55 203.46 L 360.82 203.46 L 360.91 203.40 L 361.18 203.23 L 361.60 202.97 L 361.66 202.80 L 361.74 202.73 L 361.79 202.75 L 361.83 202.70 L 362.16 202.47 L 369.94 202.46 L 370.01 202.47 L 370.50 202.46 L 370.54 202.44 L 370.65 201.97 L 370.74 201.71 L 370.75 201.71 L 371.02 201.67 L 371.09 201.64 L 372.68 200.96 L 372.87 200.90 L 373.00 200.88 L 373.03 200.88 L 373.53 200.71 L 373.70 200.80 L 373.73 200.79 L 373.99 200.75 L 374.28 199.30 L 374.32 199.29 L 374.56 199.12 L 374.66 199.12 L 374.75 199.12 L 374.95 198.96 L 375.38 198.38 L 375.47 198.36 L 375.54 198.19 L 375.72 197.50 L 376.15 196.78 L 376.53 193.42 L 376.61 193.00 L 377.00 192.84 L 377.06 192.75 L 377.13 192.59 L 377.17 192.05 L 377.30 191.08 L 377.33 191.12 L 377.40 191.10 L 377.62 191.10 L 377.96 190.74 L 378.16 190.67 L 378.40 190.66 L 378.52 190.64 L 378.75 190.63 L 379.15 190.63 L 379.54 190.62 L 379.83 190.62 L 379.90 190.61 L 379.98 190.60 L 379.98 190.48 L 380.21 190.41 L 380.28 190.40 L 380.37 190.25 L 381.01 190.23 L 381.02 189.94 L 381.19 189.93 L 381.94 189.93 L 382.43 189.76 L 382.79 189.54 L 382.80 189.42 L 382.83 189.42 L 393.72 189.22 L 393.76 189.21 L 393.89 189.20 L 393.94 189.03 L 393.98 189.02 L 393.99 189.01 L 394.45 188.96 L 394.56 188.35 L 394.70 188.21 L 394.93 187.01 L 395.08 187.00 L 395.26 186.49 L 395.37 186.55 L 395.42 186.55 L 395.47 185.96 L 395.61 185.56 L 395.63 185.14 L 395.68 185.08 L 395.79 185.04 L 395.87 184.85 L 395.97 187.14 L 396.10 187.10 L 396.37 186.18 L 396.48 185.96 L 396.59 185.77 L 397.26 184.45 L 397.83 183.81 L 398.52 182.60 L 398.69 182.54 L 398.89 182.54 L 399.10 182.49 L 403.11 182.14 L 403.44 182.11 L 441.38 181.18 L 560.85 180.97 L 561.25 180.59 L 561.52 180.54 L 561.79 180.54 L 562.21 179.83 L 562.35 179.49 L 562.46 178.84 L 562.65 176.99 L 562.93 177.37 L 563.15 176.97 L 563.20 176.97 L 563.38 176.84 L 563.43 176.85 L 563.62 176.17 L 563.80 175.08 L 564.34 173.93 L 564.36 173.84 L 564.51 172.46 L 565.03 169.06 L 565.04 168.94 L 565.14 168.87 L 565.26 167.65 L 565.82 166.02 L 565.83 165.87 L 565.95 165.79 L 566.08 164.98 L 566.29 164.35 L 566.30 164.23 L 566.39 162.98 L 566.41 162.95 L 566.46 162.60 L 566.70 160.39 L 566.72 160.26 L 566.81 160.13 L 567.06 159.84 L 567.11 159.83 L 567.31 159.41 L 567.64 159.46 L 567.69 159.40 L 567.74 159.37 L 567.79 159.34 L 567.96 158.04 L 568.14 156.98 L 568.16 156.88 L 568.26 155.56 L 568.36 154.26 L 568.39 154.10 L 568.49 152.58 L 568.54 151.39 L 568.75 150.59 L 568.78 150.53 L 568.88 150.28 L 569.02 150.26 L 569.88 150.22 L 570.31 150.19 L 579.64 150.24 L 579.73 150.01 L 579.82 149.81 L 579.98 148.92 L 580.33 148.69 L 580.36 148.60 L 580.43 147.42 L 580.65 146.28 L 580.67 146.18 L 582.71 146.10 L 582.83 145.46 L 583.86 145.26 L 583.98 145.22 L 584.10 143.89 L 585.33 142.64 L 585.86 142.17 L 585.99 141.19 L 586.44 139.52 L 586.72 139.04 L 587.17 138.06 L 587.99 137.56 L 600.48 137.55 L 601.23 137.44 L 601.26 137.46 L 602.31 137.26 L 602.36 137.17 L 602.73 137.09 L 603.15 136.00 L 603.16 136.00 L 603.20 135.96 L 603.76 134.72 L 605.04 134.01 L 605.13 133.94 L 605.26 133.93 L 605.45 133.61 L 605.51 133.52 L 605.58 133.46 L 606.18 133.41 L 606.66 133.41 L 606.91 133.41 L 606.95 133.36 L 607.48 132.28 L 607.89 132.07 L 607.91 131.99 L 607.96 131.90 L 608.02 131.61 L 621.57 131.19 L 621.60 131.17 L 621.64 131.15 L 621.90 131.03 L 622.11 130.90 L 623.30 129.22 L 623.60 129.03 L 624.46 128.52 L 625.20 128.40 L 625.75 128.24 L 625.90 126.70 L 626.59 124.89 L 626.84 124.76 L 626.93 123.60 L 628.94 121.45 L 628.96 121.45 L 629.07 120.93 L 629.45 120.87 L 629.45 120.87 L 629.47 120.74 L 629.54 120.58 L 629.72 120.41 L 629.93 119.51 L 632.01 117.34 L 632.28 117.08 L 632.47 116.69 L 632.50 116.65 L 632.54 116.34 L 641.77 115.36 L 642.07 114.62 L 642.25 114.58 L 642.31 114.09 L 643.18 113.86 L 643.36 113.37 L 643.53 113.37 L 643.62 112.33 L 643.92 109.68 L 643.96 109.64 L 644.35 109.60 L 644.44 108.74 L 644.77 107.70 L 644.84 106.98 L 645.12 106.32 L 645.32 105.97 L 645.47 105.18 L 645.82 104.51 L 645.86 103.75 L 646.30 103.59 L 646.35 103.59 L 646.42 102.62 L 646.51 102.62 L 646.56 102.55 L 647.07 100.76 L 647.82 100.17 L 648.19 100.36 L 649.41 100.27 L 649.44 100.27 L 649.63 100.25 L 649.71 100.23 L 649.85 100.11 L 650.00 100.00"/>
	</g>
	<g id="poloto_plot1" class="poloto_plot poloto_imgs poloto_line poloto1 poloto_stroke" fill="none" stroke="black">
		<path d=" M 150.00 381.51 L 150.03 381.50 L 150.05 381.49 L 150.06 381.49 L 150.08 381.49 L 150.11 380.90 L 150.24 380.88 L 150.54 380.87 L 150.97 380.65 L 151.19 380.55 L 151.63 380.58 L 151.71 380.53 L 151.77 380.53 L 152.28 380.49 L 153.25 380.38 L 153.55 378.09 L 153.63 378.09 L 154.21 378.04 L 154.88 378.03 L 154.89 378.03 L 154.89 378.03 L 163.96 378.03 L 164.02 378.03 L 164.14 378.03 L 164.19 378.00 L 164.54 377.98 L 164.69 377.98 L 165.08 377.98 L 165.13 377.98 L 165.24 377.97 L 165.36 377.97 L 165.39 377.97 L 165.48 377.94 L 165.58 377.94 L 165.68 377.94 L 165.93 377.81 L 166.16 377.81 L 166.20 377.81 L 166.31 377.81 L 167.03 378.67 L 167.04 378.67 L 167.13 378.66 L 167.54 378.53 L 167.87 378.39 L 168.25 378.32 L 168.32 378.28 L 168.33 378.28 L 168.40 378.28 L 168.55 378.28 L 168.73 378.23 L 169.08 378.18 L 169.10 378.18 L 169.17 378.18 L 169.25 378.15 L 169.46 378.15 L 169.48 378.15 L 169.69 378.15 L 169.78 378.15 L 169.85 378.15 L 169.94 378.15 L 171.04 378.04 L 171.31 378.03 L 171.92 377.99 L 172.05 377.99 L 172.15 377.99 L 172.20 377.99 L 172.62 377.92 L 172.81 377.92 L 173.03 377.84 L 173.14 377.83 L 173.39 377.64 L 173.50 377.58 L 173.66 377.58 L 173.80 377.57 L 174.28 374.90 L 174.30 374.86 L 174.32 374.86 L 174.49 374.60 L 182.90 374.60 L 183.77 373.45 L 183.80 373.45 L 184.83 373.45 L 184.91 373.44 L 185.01 373.32 L 185.26 373.30 L 185.38 373.30 L 185.42 373.30 L 185.55 373.30 L 185.85 373.30 L 185.86 373.05 L 185.97 373.04 L 186.09 373.04 L 186.22 373.02 L 186.38 373.01 L 186.45 373.01 L 186.47 373.01 L 186.61 373.01 L 186.64 373.01 L 186.80 373.01 L 186.82 373.01 L 187.06 371.88 L 187.10 371.88 L 187.19 371.74 L 187.29 371.74 L 187.43 371.74 L 187.49 371.73 L 187.96 371.73 L 187.97 371.73 L 188.06 371.66 L 188.27 371.66 L 188.46 371.01 L 188.52 370.93 L 188.61 370.93 L 188.65 370.93 L 188.76 370.91 L 189.29 366.14 L 189.34 366.18 L 189.52 366.18 L 189.58 366.18 L 189.62 366.17 L 189.70 366.17 L 189.79 366.10 L 189.97 366.10 L 190.11 366.10 L 190.21 366.09 L 190.27 366.09 L 190.75 366.09 L 191.00 366.08 L 191.08 365.96 L 191.30 365.96 L 191.32 365.96 L 191.34 365.96 L 191.48 365.64 L 191.59 365.56 L 191.98 364.43 L 192.05 364.43 L 192.12 364.43 L 192.23 364.44 L 192.24 364.44 L 192.28 364.44 L 192.32 364.44 L 192.38 364.44 L 192.43 364.44 L 192.58 364.42 L 192.70 364.42 L 192.81 364.41 L 192.96 364.41 L 193.13 364.40 L 193.29 363.98 L 193.41 363.83 L 193.66 363.83 L 193.66 363.83 L 193.81 363.83 L 205.55 363.83 L 205.77 363.82 L 206.33 363.75 L 206.44 363.74 L 206.53 363.74 L 206.55 363.74 L 206.75 363.74 L 206.89 363.74 L 206.97 363.74 L 207.05 363.74 L 207.10 363.73 L 207.31 363.73 L 207.74 363.75 L 207.84 363.75 L 207.92 363.75 L 208.02 363.75 L 208.57 363.66 L 208.64 363.62 L 208.68 363.62 L 208.72 363.56 L 208.84 363.56 L 208.93 363.55 L 209.32 363.12 L 209.89 363.12 L 210.09 363.12 L 210.72 363.12 L 211.02 360.20 L 211.12 360.19 L 211.25 360.19 L 211.44 360.19 L 211.72 360.19 L 212.12 360.19 L 212.65 360.19 L 212.73 360.19 L 213.12 360.12 L 213.37 360.00 L 213.45 360.00 L 213.60 360.00 L 213.72 359.98 L 215.11 359.80 L 216.43 359.80 L 228.25 359.79 L 228.33 359.79 L 228.40 359.79 L 228.77 359.79 L 229.87 358.87 L 229.92 358.84 L 230.07 358.75 L 230.61 358.74 L 230.87 358.52 L 231.26 358.53 L 231.35 358.53 L 231.44 358.53 L 232.12 355.96 L 232.21 355.96 L 232.35 355.96 L 232.50 355.96 L 232.57 355.80 L 232.95 355.49 L 233.09 355.49 L 233.16 355.49 L 233.24 355.02 L 233.41 354.54 L 233.48 354.54 L 233.65 354.53 L 234.17 350.71 L 234.22 350.71 L 234.27 350.71 L 234.34 350.71 L 234.47 350.71 L 234.52 350.71 L 234.57 350.71 L 234.82 350.71 L 234.87 350.63 L 235.17 350.61 L 235.35 350.56 L 235.46 350.10 L 236.38 342.50 L 236.49 342.50 L 271.22 342.50 L 271.25 342.50 L 284.53 342.50 L 285.25 342.38 L 285.40 342.38 L 285.59 342.38 L 285.65 342.38 L 285.73 342.38 L 291.49 342.32 L 292.25 342.25 L 292.53 342.25 L 292.68 342.22 L 296.27 342.16 L 296.29 342.06 L 296.51 342.06 L 297.59 341.03 L 297.65 341.03 L 297.78 341.03 L 298.16 341.03 L 298.21 341.03 L 298.36 341.03 L 298.52 341.03 L 298.55 341.03 L 309.70 341.01 L 309.78 340.83 L 310.23 340.83 L 310.24 339.59 L 310.31 339.59 L 310.41 339.59 L 310.53 339.47 L 310.72 339.47 L 310.88 339.42 L 311.02 339.42 L 311.08 339.42 L 311.31 339.40 L 312.08 337.29 L 312.39 337.29 L 312.44 337.28 L 312.51 337.28 L 312.55 337.28 L 312.65 337.24 L 312.97 336.98 L 313.01 336.94 L 313.21 335.05 L 313.28 335.04 L 313.31 335.04 L 313.38 335.02 L 313.43 335.02 L 313.47 335.01 L 313.72 333.98 L 313.82 333.97 L 313.96 333.94 L 314.05 330.74 L 314.09 330.73 L 314.34 328.93 L 314.40 328.93 L 314.45 328.92 L 314.51 328.92 L 314.55 328.92 L 314.59 328.92 L 314.60 328.92 L 314.72 325.58 L 314.77 325.58 L 314.89 325.57 L 314.97 325.57 L 315.23 325.50 L 315.53 325.41 L 315.54 325.41 L 315.63 325.39 L 315.91 325.34 L 316.05 325.34 L 316.18 325.34 L 316.33 323.90 L 316.42 323.90 L 316.82 323.89 L 316.85 323.88 L 316.90 323.88 L 316.93 323.88 L 317.19 321.83 L 317.24 321.83 L 317.43 321.81 L 334.59 321.81 L 335.57 321.80 L 335.60 321.80 L 335.79 321.80 L 335.81 321.80 L 335.93 321.80 L 336.03 321.80 L 336.11 321.70 L 336.23 321.70 L 336.26 321.70 L 336.31 321.70 L 336.49 321.51 L 336.86 321.39 L 337.10 321.27 L 337.36 320.69 L 337.37 320.69 L 337.42 320.54 L 337.45 320.53 L 337.96 320.17 L 337.97 320.17 L 338.05 320.12 L 338.27 320.12 L 338.41 320.09 L 338.44 319.23 L 338.45 319.23 L 338.51 320.07 L 338.55 320.03 L 338.57 320.02 L 338.70 318.87 L 338.71 318.87 L 338.98 318.82 L 339.71 318.82 L 339.88 318.82 L 339.94 318.82 L 339.97 318.82 L 340.02 318.82 L 340.12 318.75 L 351.85 317.80 L 351.87 317.80 L 351.97 317.79 L 352.00 317.59 L 352.06 307.44 L 352.19 303.66 L 352.21 303.66 L 352.42 303.59 L 352.48 303.59 L 352.51 303.58 L 352.70 303.58 L 353.21 302.65 L 353.22 302.65 L 353.35 302.60 L 353.40 302.60 L 353.43 302.52 L 353.85 301.97 L 353.86 301.97 L 354.50 301.86 L 354.58 301.82 L 354.81 301.83 L 355.08 300.59 L 355.14 300.46 L 355.19 300.35 L 355.31 299.88 L 355.64 299.76 L 355.70 299.66 L 355.85 299.66 L 356.00 299.66 L 356.50 299.66 L 356.56 299.66 L 356.67 299.66 L 356.68 299.66 L 356.84 299.68 L 357.21 299.68 L 357.59 299.55 L 357.65 299.55 L 357.74 299.53 L 357.84 299.53 L 358.14 299.53 L 358.64 299.53 L 358.80 299.42 L 359.07 296.14 L 360.15 299.23 L 360.38 299.22 L 360.55 299.21 L 360.82 299.21 L 360.91 299.18 L 361.18 299.15 L 361.60 298.97 L 361.66 298.97 L 361.74 298.97 L 361.79 298.97 L 361.83 298.97 L 362.16 298.79 L 369.94 298.79 L 370.01 298.79 L 370.50 298.78 L 370.54 298.78 L 370.65 298.75 L 370.74 298.52 L 370.75 298.51 L 371.02 298.49 L 371.09 298.49 L 372.68 298.30 L 372.87 298.30 L 373.00 298.30 L 373.03 298.30 L 373.53 298.17 L 373.70 298.17 L 373.73 298.17 L 373.99 298.16 L 374.28 297.39 L 374.32 297.39 L 374.56 297.26 L 374.66 297.26 L 374.75 297.26 L 374.95 297.26 L 375.38 297.24 L 375.47 297.23 L 375.54 297.15 L 375.72 297.02 L 376.15 296.90 L 376.53 293.81 L 376.61 293.71 L 377.00 293.56 L 377.06 293.52 L 377.13 293.41 L 377.17 293.20 L 377.30 292.27 L 377.33 292.31 L 377.40 292.29 L 377.62 292.29 L 377.96 292.16 L 378.16 292.11 L 378.40 292.10 L 378.52 292.09 L 378.75 292.08 L 379.15 292.08 L 379.54 292.07 L 379.83 292.07 L 379.90 292.06 L 379.98 292.06 L 379.98 292.05 L 380.21 292.05 L 380.28 292.04 L 380.37 291.92 L 381.01 291.91 L 381.02 291.91 L 381.19 291.90 L 381.94 291.90 L 382.43 291.74 L 382.79 291.61 L 382.80 291.61 L 382.83 291.61 L 393.72 291.61 L 393.76 291.61 L 393.89 291.61 L 393.94 291.61 L 393.98 291.59 L 393.99 291.59 L 394.45 291.59 L 394.56 291.58 L 394.70 291.56 L 394.93 291.54 L 395.08 291.54 L 395.26 291.46 L 395.37 291.46 L 395.42 291.46 L 395.47 291.46 L 395.61 291.18 L 395.63 291.18 L 395.68 291.18 L 395.79 291.18 L 395.87 291.18 L 395.97 291.25 L 396.10 291.25 L 396.37 291.24 L 396.48 291.24 L 396.59 291.24 L 397.26 290.33 L 397.83 290.09 L 398.52 289.44 L 398.69 289.44 L 398.89 289.44 L 399.10 289.44 L 403.11 289.36 L 403.44 289.35 L 441.38 289.24 L 560.85 289.07 L 561.25 289.02 L 561.52 289.01 L 561.79 289.01 L 562.21 288.59 L 562.35 288.59 L 562.46 288.59 L 562.65 287.07 L 562.93 287.36 L 563.15 287.34 L 563.20 287.34 L 563.38 287.33 L 563.43 287.33 L 563.62 287.32 L 563.80 287.25 L 564.34 286.29 L 564.36 286.29 L 564.51 286.20 L 565.03 283.09 L 565.04 283.09 L 565.14 283.08 L 565.26 283.04 L 565.82 281.59 L 565.83 281.59 L 565.95 281.59 L 566.08 281.55 L 566.29 281.02 L 566.30 281.02 L 566.39 281.01 L 566.41 281.01 L 566.46 280.72 L 566.70 278.66 L 566.72 278.66 L 566.81 278.66 L 567.06 278.49 L 567.11 278.49 L 567.31 278.15 L 567.64 278.15 L 567.69 278.15 L 567.74 278.15 L 567.79 278.15 L 567.96 278.14 L 568.14 277.21 L 568.16 277.21 L 568.26 277.21 L 568.36 276.50 L 568.39 276.50 L 568.49 275.75 L 568.54 275.71 L 568.75 274.97 L 568.78 274.97 L 568.88 274.97 L 569.02 274.96 L 569.88 274.96 L 570.31 274.95 L 579.64 274.95 L 579.73 274.95 L 579.82 274.95 L 579.98 274.95 L 580.33 274.76 L 580.36 274.76 L 580.43 274.70 L 580.65 273.66 L 580.67 273.66 L 582.71 273.69 L 582.83 273.48 L 583.86 273.48 L 583.98 273.48 L 584.10 273.40 L 585.33 272.55 L 585.86 272.39 L 585.99 272.34 L 586.44 270.73 L 586.72 270.73 L 587.17 270.59 L 587.99 270.59 L 600.48 270.59 L 601.23 270.49 L 601.26 270.51 L 602.31 270.51 L 602.36 270.51 L 602.73 270.51 L 603.15 270.48 L 603.16 270.48 L 603.20 270.48 L 603.76 269.54 L 605.04 269.51 L 605.13 269.51 L 605.26 269.51 L 605.45 269.47 L 605.51 269.44 L 605.58 269.44 L 606.18 269.40 L 606.66 269.40 L 606.91 269.40 L 606.95 269.40 L 607.48 269.38 L 607.89 269.27 L 607.91 269.27 L 607.96 269.27 L 608.02 269.27 L 621.57 269.05 L 621.60 269.05 L 621.64 269.05 L 621.90 269.05 L 622.11 269.05 L 623.30 268.12 L 623.60 268.06 L 624.46 267.99 L 625.20 267.94 L 625.75 267.94 L 625.90 267.94 L 626.59 266.54 L 626.84 266.50 L 626.93 266.45 L 628.94 265.47 L 628.96 265.47 L 629.07 265.45 L 629.45 265.44 L 629.45 265.44 L 629.47 265.44 L 629.54 265.41 L 629.72 265.37 L 629.93 265.26 L 632.01 263.64 L 632.28 263.55 L 632.47 263.55 L 632.50 263.55 L 632.54 263.55 L 641.77 263.55 L 642.07 263.54 L 642.25 263.54 L 642.31 263.54 L 643.18 263.54 L 643.36 263.54 L 643.53 263.54 L 643.62 263.51 L 643.92 261.37 L 643.96 261.36 L 644.35 261.37 L 644.44 261.36 L 644.77 260.53 L 644.84 260.48 L 645.12 259.94 L 645.32 259.94 L 645.47 259.90 L 645.82 259.40 L 645.86 259.40 L 646.30 257.81 L 646.35 257.81 L 646.42 257.80 L 646.51 257.80 L 646.56 257.80 L 647.07 256.21 L 647.82 256.07 L 648.19 256.07 L 649.41 256.03 L 649.44 256.03 L 649.63 256.03 L 649.71 256.03 L 649.85 256.03 L 650.00 256.03"/>
	</g>
	<g id="poloto_plot2" class="poloto_plot poloto_imgs poloto_line poloto2 poloto_stroke" fill="none" stroke="black">
		<path d=" M 150.00 391.71 L 150.03 391.70 L 150.05 391.70 L 150.06 391.70 L 150.08 391.70 L 150.11 389.58 L 150.24 389.29 L 150.54 389.28 L 150.97 389.27 L 151.19 388.00 L 151.63 387.89 L 151.71 387.85 L 151.77 387.82 L 152.28 387.24 L 153.25 386.80 L 153.55 386.72 L 153.63 386.72 L 154.21 386.69 L 154.88 386.69 L 154.89 386.69 L 154.89 386.69 L 163.96 386.69 L 164.02 386.68 L 164.14 386.66 L 164.19 386.66 L 164.54 386.54 L 164.69 386.50 L 165.08 386.29 L 165.13 386.20 L 165.24 386.01 L 165.36 385.99 L 165.39 385.99 L 165.48 385.95 L 165.58 385.95 L 165.68 385.95 L 165.93 385.74 L 166.16 385.54 L 166.20 385.55 L 166.31 385.43 L 167.03 385.18 L 167.04 385.17 L 167.13 385.10 L 167.54 384.81 L 167.87 384.47 L 168.25 384.33 L 168.32 384.33 L 168.33 384.33 L 168.40 384.13 L 168.55 384.13 L 168.73 384.11 L 169.08 383.97 L 169.10 383.72 L 169.17 383.72 L 169.25 383.60 L 169.46 383.60 L 169.48 383.60 L 169.69 383.22 L 169.78 383.20 L 169.85 383.17 L 169.94 383.00 L 171.04 382.89 L 171.31 382.86 L 171.92 382.60 L 172.05 382.60 L 172.15 382.59 L 172.20 382.39 L 172.62 381.35 L 172.81 381.34 L 173.03 381.03 L 173.14 381.00 L 173.39 380.86 L 173.50 380.81 L 173.66 380.59 L 173.80 380.40 L 174.28 380.40 L 174.30 380.38 L 174.32 380.23 L 174.49 379.23 L 182.90 379.12 L 183.77 378.82 L 183.80 378.78 L 184.83 378.53 L 184.91 378.53 L 185.01 378.34 L 185.26 378.22 L 185.38 377.99 L 185.42 377.80 L 185.55 377.43 L 185.85 377.42 L 185.86 377.42 L 185.97 377.16 L 186.09 377.15 L 186.22 376.88 L 186.38 376.67 L 186.45 376.55 L 186.47 376.54 L 186.61 376.29 L 186.64 376.29 L 186.80 376.06 L 186.82 376.05 L 187.06 375.97 L 187.10 375.97 L 187.19 375.89 L 187.29 375.87 L 187.43 375.87 L 187.49 375.85 L 187.96 375.63 L 187.97 375.63 L 188.06 375.18 L 188.27 375.17 L 188.46 375.03 L 188.52 375.03 L 188.61 375.02 L 188.65 374.99 L 188.76 374.37 L 189.29 373.84 L 189.34 373.56 L 189.52 373.54 L 189.58 373.46 L 189.62 373.45 L 189.70 373.32 L 189.79 372.83 L 189.97 372.75 L 190.11 372.74 L 190.21 372.49 L 190.27 372.49 L 190.75 372.30 L 191.00 372.17 L 191.08 372.06 L 191.30 372.05 L 191.32 372.05 L 191.34 372.03 L 191.48 371.14 L 191.59 371.13 L 191.98 371.00 L 192.05 370.65 L 192.12 370.64 L 192.23 370.50 L 192.24 370.41 L 192.28 370.35 L 192.32 370.32 L 192.38 370.32 L 192.43 370.25 L 192.58 369.25 L 192.70 369.15 L 192.81 368.85 L 192.96 368.83 L 193.13 368.73 L 193.29 368.42 L 193.41 367.55 L 193.66 367.49 L 193.66 367.12 L 193.81 367.03 L 205.55 367.03 L 205.77 367.03 L 206.33 366.62 L 206.44 366.62 L 206.53 366.62 L 206.55 366.51 L 206.75 366.34 L 206.89 366.31 L 206.97 366.20 L 207.05 366.12 L 207.10 366.09 L 207.31 366.03 L 207.74 366.12 L 207.84 365.84 L 207.92 365.77 L 208.02 365.76 L 208.57 365.71 L 208.64 365.66 L 208.68 365.66 L 208.72 365.61 L 208.84 365.56 L 208.93 365.46 L 209.32 365.20 L 209.89 365.09 L 210.09 365.04 L 210.72 364.88 L 211.02 364.48 L 211.12 364.41 L 211.25 364.09 L 211.44 363.68 L 211.72 363.58 L 212.12 363.57 L 212.65 363.55 L 212.73 363.40 L 213.12 363.30 L 213.37 363.17 L 213.45 363.07 L 213.60 363.03 L 213.72 362.76 L 215.11 362.63 L 216.43 362.63 L 228.25 362.60 L 228.33 362.45 L 228.40 362.35 L 228.77 362.20 L 229.87 361.93 L 229.92 361.89 L 230.07 361.70 L 230.61 361.62 L 230.87 361.10 L 231.26 361.09 L 231.35 361.07 L 231.44 360.55 L 232.12 360.07 L 232.21 360.06 L 232.35 360.04 L 232.50 359.99 L 232.57 359.81 L 232.95 359.01 L 233.09 358.81 L 233.16 358.79 L 233.24 358.70 L 233.41 358.39 L 233.48 357.58 L 233.65 357.26 L 234.17 357.07 L 234.22 356.66 L 234.27 356.66 L 234.34 356.59 L 234.47 356.48 L 234.52 356.45 L 234.57 356.41 L 234.82 355.47 L 234.87 354.92 L 235.17 354.81 L 235.35 353.88 L 235.46 353.70 L 236.38 352.23 L 236.49 352.20 L 271.22 351.77 L 271.25 351.77 L 284.53 351.65 L 285.25 351.50 L 285.40 351.50 L 285.59 351.42 L 285.65 351.30 L 285.73 351.27 L 291.49 351.26 L 292.25 349.57 L 292.53 349.42 L 292.68 348.84 L 296.27 348.77 L 296.29 348.71 L 296.51 348.70 L 297.59 348.60 L 297.65 348.40 L 297.78 348.33 L 298.16 348.25 L 298.21 348.22 L 298.36 347.90 L 298.52 347.80 L 298.55 347.55 L 309.70 347.23 L 309.78 346.46 L 310.23 346.26 L 310.24 345.97 L 310.31 345.74 L 310.41 345.38 L 310.53 344.45 L 310.72 343.94 L 310.88 343.29 L 311.02 343.28 L 311.08 342.77 L 311.31 342.74 L 312.08 342.26 L 312.39 342.03 L 312.44 341.89 L 312.51 341.89 L 312.55 341.72 L 312.65 341.15 L 312.97 341.09 L 313.01 341.09 L 313.21 340.71 L 313.28 340.71 L 313.31 340.50 L 313.38 340.36 L 313.43 340.36 L 313.47 340.06 L 313.72 339.88 L 313.82 339.58 L 313.96 339.57 L 314.05 339.41 L 314.09 339.18 L 314.34 339.06 L 314.40 338.92 L 314.45 338.92 L 314.51 338.92 L 314.55 338.69 L 314.59 338.70 L 314.60 338.69 L 314.72 338.61 L 314.77 338.35 L 314.89 338.35 L 314.97 338.29 L 315.23 338.27 L 315.53 338.24 L 315.54 338.24 L 315.63 338.22 L 315.91 338.22 L 316.05 338.22 L 316.18 338.22 L 316.33 338.18 L 316.42 337.87 L 316.82 337.87 L 316.85 337.69 L 316.90 337.69 L 316.93 337.48 L 317.19 337.41 L 317.24 337.36 L 317.43 337.36 L 334.59 337.30 L 335.57 337.21 L 335.60 337.21 L 335.79 337.21 L 335.81 337.21 L 335.93 336.85 L 336.03 336.84 L 336.11 336.74 L 336.23 336.68 L 336.26 336.65 L 336.31 336.63 L 336.49 336.60 L 336.86 336.52 L 337.10 336.03 L 337.36 336.01 L 337.37 335.98 L 337.42 335.57 L 337.45 335.56 L 337.96 335.56 L 337.97 335.52 L 338.05 335.15 L 338.27 335.10 L 338.41 335.08 L 338.44 335.08 L 338.45 335.03 L 338.51 335.00 L 338.55 334.62 L 338.57 334.61 L 338.70 334.61 L 338.71 334.58 L 338.98 334.54 L 339.71 334.52 L 339.88 334.49 L 339.94 334.48 L 339.97 334.36 L 340.02 334.36 L 340.12 333.92 L 351.85 333.79 L 351.87 333.66 L 351.97 333.58 L 352.00 333.56 L 352.06 333.19 L 352.19 333.10 L 352.21 333.08 L 352.42 333.07 L 352.48 333.07 L 352.51 332.71 L 352.70 332.66 L 353.21 332.65 L 353.22 332.63 L 353.35 332.42 L 353.40 332.43 L 353.43 332.09 L 353.85 332.09 L 353.86 332.07 L 354.50 331.98 L 354.58 331.58 L 354.81 331.58 L 355.08 331.58 L 355.14 331.27 L 355.19 331.04 L 355.31 331.03 L 355.64 330.98 L 355.70 330.96 L 355.85 330.87 L 356.00 330.87 L 356.50 330.87 L 356.56 330.87 L 356.67 330.85 L 356.68 330.85 L 356.84 330.85 L 357.21 330.82 L 357.59 330.78 L 357.65 330.78 L 357.74 330.74 L 357.84 330.63 L 358.14 330.63 L 358.64 330.49 L 358.80 330.26 L 359.07 330.24 L 360.15 329.99 L 360.38 329.99 L 360.55 329.98 L 360.82 329.98 L 360.91 329.96 L 361.18 329.83 L 361.60 329.82 L 361.66 329.71 L 361.74 329.65 L 361.79 329.66 L 361.83 329.62 L 362.16 329.60 L 369.94 329.60 L 370.01 329.60 L 370.50 329.60 L 370.54 329.59 L 370.65 329.25 L 370.74 329.23 L 370.75 329.23 L 371.02 329.22 L 371.09 329.20 L 372.68 328.70 L 372.87 328.65 L 373.00 328.64 L 373.03 328.63 L 373.53 328.62 L 373.70 328.69 L 373.73 328.69 L 373.99 328.66 L 374.28 328.18 L 374.32 328.17 L 374.56 328.16 L 374.66 328.16 L 374.75 328.16 L 374.95 328.06 L 375.38 327.63 L 375.47 327.63 L 375.54 327.56 L 375.72 327.17 L 376.15 326.73 L 376.53 326.76 L 376.61 326.53 L 377.00 326.53 L 377.06 326.50 L 377.13 326.48 L 377.17 326.25 L 377.30 326.24 L 377.33 326.24 L 377.40 326.24 L 377.62 326.24 L 377.96 326.06 L 378.16 326.04 L 378.40 326.04 L 378.52 326.04 L 378.75 326.04 L 379.15 326.04 L 379.54 326.04 L 379.83 326.04 L 379.90 326.03 L 379.98 326.03 L 379.98 325.95 L 380.21 325.89 L 380.28 325.89 L 380.37 325.88 L 381.01 325.87 L 381.02 325.65 L 381.19 325.65 L 381.94 325.65 L 382.43 325.65 L 382.79 325.60 L 382.80 325.51 L 382.83 325.51 L 393.72 325.36 L 393.76 325.35 L 393.89 325.34 L 393.94 325.21 L 393.98 325.21 L 393.99 325.20 L 394.45 325.15 L 394.56 324.70 L 394.70 324.60 L 394.93 323.70 L 395.08 323.69 L 395.26 323.30 L 395.37 323.35 L 395.42 323.35 L 395.47 322.85 L 395.61 322.77 L 395.63 322.43 L 395.68 322.38 L 395.79 322.35 L 395.87 322.18 L 395.97 324.20 L 396.10 324.17 L 396.37 323.35 L 396.48 323.18 L 396.59 323.00 L 397.26 322.68 L 397.83 322.33 L 398.52 321.86 L 398.69 321.81 L 398.89 321.81 L 399.10 321.77 L 403.11 321.53 L 403.44 321.50 L 441.38 320.87 L 560.85 320.85 L 561.25 320.57 L 561.52 320.52 L 561.79 320.52 L 562.21 320.27 L 562.35 319.97 L 562.46 319.41 L 562.65 319.26 L 562.93 319.32 L 563.15 318.99 L 563.20 318.99 L 563.38 318.89 L 563.43 318.89 L 563.62 318.35 L 563.80 317.52 L 564.34 317.44 L 564.36 317.35 L 564.51 316.29 L 565.03 316.25 L 565.04 316.14 L 565.14 316.08 L 565.26 315.11 L 565.82 315.06 L 565.83 314.93 L 565.95 314.86 L 566.08 314.22 L 566.29 314.20 L 566.30 314.10 L 566.39 313.04 L 566.41 313.02 L 566.46 312.98 L 566.70 312.98 L 566.72 312.87 L 566.81 312.80 L 567.06 312.70 L 567.11 312.69 L 567.31 312.64 L 567.64 312.68 L 567.69 312.63 L 567.74 312.61 L 567.79 312.57 L 567.96 311.48 L 568.14 311.45 L 568.16 311.36 L 568.26 310.24 L 568.36 309.83 L 568.39 309.68 L 568.49 309.13 L 568.54 308.18 L 568.75 308.17 L 568.78 308.12 L 568.88 307.92 L 569.02 307.92 L 569.88 307.89 L 570.31 307.86 L 579.64 307.91 L 579.73 307.69 L 579.82 307.53 L 579.98 306.77 L 580.33 306.76 L 580.36 306.69 L 580.43 305.73 L 580.65 305.72 L 580.67 305.63 L 582.71 305.53 L 582.83 305.18 L 583.86 305.02 L 583.98 304.98 L 584.10 303.92 L 585.33 303.61 L 585.86 303.36 L 585.99 302.56 L 586.44 302.55 L 586.72 302.11 L 587.17 301.42 L 587.99 301.01 L 600.48 301.00 L 601.23 300.99 L 601.26 300.99 L 602.31 300.84 L 602.36 300.75 L 602.73 300.69 L 603.15 299.79 L 603.16 299.79 L 603.20 299.76 L 603.76 299.57 L 605.04 298.97 L 605.13 298.91 L 605.26 298.91 L 605.45 298.65 L 605.51 298.62 L 605.58 298.57 L 606.18 298.57 L 606.66 298.57 L 606.91 298.57 L 606.95 298.53 L 607.48 297.62 L 607.89 297.54 L 607.91 297.47 L 607.96 297.38 L 608.02 297.16 L 621.57 296.99 L 621.60 296.97 L 621.64 296.95 L 621.90 296.84 L 622.11 296.73 L 623.30 296.22 L 623.60 296.11 L 624.46 295.72 L 625.20 295.66 L 625.75 295.50 L 625.90 294.17 L 626.59 293.94 L 626.84 293.87 L 626.93 292.91 L 628.94 291.99 L 628.96 291.99 L 629.07 291.56 L 629.45 291.52 L 629.45 291.52 L 629.47 291.41 L 629.54 291.29 L 629.72 291.19 L 629.93 290.53 L 632.01 290.19 L 632.28 290.04 L 632.47 289.68 L 632.50 289.64 L 632.54 289.41 L 641.77 288.57 L 642.07 287.96 L 642.25 287.94 L 642.31 287.53 L 643.18 287.36 L 643.36 286.93 L 643.53 286.93 L 643.62 286.03 L 643.92 285.82 L 643.96 285.79 L 644.35 285.74 L 644.44 285.00 L 644.77 284.91 L 644.84 284.33 L 645.12 284.27 L 645.32 283.93 L 645.47 283.29 L 645.82 283.16 L 645.86 282.50 L 646.30 283.99 L 646.35 283.99 L 646.42 283.14 L 646.51 283.14 L 646.56 283.07 L 647.07 282.99 L 647.82 282.64 L 648.19 282.82 L 649.41 282.80 L 649.44 282.79 L 649.63 282.78 L 649.71 282.76 L 649.85 282.64 L 650.00 282.54"/>
	</g>
	<g class="poloto_legend poloto_imgs poloto_line poloto0 poloto_stroke"><line x1="680" x2="730" y1="81.25" y2="81.25"/></g>
	<g class="poloto_legend poloto_imgs poloto_line poloto1 poloto_stroke"><line x1="680" x2="730" y1="131.25" y2="131.25"/></g>
	<g class="poloto_legend poloto_imgs poloto_line poloto2 poloto_stroke"><line x1="680" x2="730" y1="181.25" y2="181.25"/></g>
	<text class="poloto_legend poloto_text poloto_line poloto0" x="675" y="100">total</text>
	<text class="poloto_legend poloto_text poloto_line poloto1" x="675" y="150">code</text>
	<text class="poloto_legend poloto_text poloto_line poloto2" x="675" y="200">docs</text>
	<text class="poloto_text poloto_name poloto_title" x="400.00" y="37.50">Workspace lines over time</text>
	<text class="poloto_text poloto_name poloto_x" x="400.00" y="640">date (JST)</text>
	<text class="poloto_text poloto_name poloto_y" x="37.50" y="250.00" transform="rotate(-90,37.50,250.00)">lines</text>
	<text class="poloto_text poloto_ticks poloto_y">
		<tspan x="135.00" y="400.00">0</tspan>
		<tspan x="135.00" y="321.15">50K</tspan>
		<tspan x="135.00" y="242.29">100K</tspan>
		<tspan x="135.00" y="163.44">150K</tspan>
	</text>
	<g class="poloto_imgs poloto_ticks poloto_y" stroke="black">
		<line x1="150.00" x2="144.00" y1="400.00" y2="400.00"/>
		<line x1="150.00" x2="144.00" y1="321.15" y2="321.15"/>
		<line x1="150.00" x2="144.00" y1="242.29" y2="242.29"/>
		<line x1="150.00" x2="144.00" y1="163.44" y2="163.44"/>
	</g>
	<g class="poloto_text poloto_ticks poloto_x">
		<text x="228.10" y="430.00" text-anchor="end" transform="rotate(-90 228.10 430.00)">2026-04-24 12:06</text>
		<text x="348.32" y="430.00" text-anchor="end" transform="rotate(-90 348.32 430.00)">2026-04-30 07:00</text>
		<text x="468.54" y="430.00" text-anchor="end" transform="rotate(-90 468.54 430.00)">2026-05-06 01:53</text>
		<text x="588.76" y="430.00" text-anchor="end" transform="rotate(-90 588.76 430.00)">2026-05-11 20:46</text>
	</g>
	<g class="poloto_imgs poloto_ticks poloto_x" stroke="black">
		<line x1="228.10" x2="228.10" y1="400.00" y2="405.00"/>
		<line x1="348.32" x2="348.32" y1="400.00" y2="405.00"/>
		<line x1="468.54" x2="468.54" y1="400.00" y2="405.00"/>
		<line x1="588.76" x2="588.76" y1="400.00" y2="405.00"/>
	</g>
	<path class="poloto_imgs poloto_ticks poloto_x" stroke="black" style="stroke-dasharray:12.022033983885665;stroke-dashoffset:-78.10066289495444;" d=" M 150.00 400.00 L 650.00 400.00"/>
	<path class="poloto_imgs poloto_ticks poloto_y" stroke="black" style="stroke-dasharray:7.885315964610702;stroke-dashoffset:-0;" d=" M 150.00 400.00 L 150.00 100.00"/>
</svg>

