<svg class="poloto" width="800" height="680" viewBox="0 0 800 680" xmlns="http://www.w3.org/2000/svg">
	<style>
.poloto{
  stroke-linecap:round;
  stroke-linejoin:round;
  font-family:Roboto,sans-serif;
  font-size:16px;
}
.poloto_background{fill:AliceBlue;}
.poloto_scatter{stroke-width:7}
.poloto_line{stroke-width:2}
.poloto_text{fill: black;}
.poloto_name{font-size:24px;dominant-baseline:auto;text-anchor:middle;}
.poloto_where{dominant-baseline:middle;text-anchor:start}
.poloto_text.poloto_legend{font-size:20px;dominant-baseline:middle;text-anchor:start;}
.poloto_text.poloto_ticks.poloto_y{dominant-baseline:middle;text-anchor:end}
.poloto_text.poloto_ticks.poloto_x{dominant-baseline:auto;text-anchor:middle}
.poloto_imgs.poloto_ticks{stroke: black;stroke-width:3;fill:none;stroke-dasharray:none}
.poloto_grid{stroke:gray;stroke-width:0.5}

.poloto0.poloto_stroke{stroke:blue;}
.poloto1.poloto_stroke{stroke:red;}
.poloto2.poloto_stroke{stroke:green;}
.poloto3.poloto_stroke{stroke:gold;}
.poloto4.poloto_stroke{stroke:aqua;}
.poloto5.poloto_stroke{stroke:lime;}
.poloto6.poloto_stroke{stroke:orange;}
.poloto7.poloto_stroke{stroke:chocolate;}
.poloto0.poloto_fill{fill:blue;}
.poloto1.poloto_fill{fill:red;}
.poloto2.poloto_fill{fill:green;}
.poloto3.poloto_fill{fill:gold;}
.poloto4.poloto_fill{fill:aqua;}
.poloto5.poloto_fill{fill:lime;}
.poloto6.poloto_fill{fill:orange;}
.poloto7.poloto_fill{fill:chocolate;}
	</style>
	<circle r="1e5" class="poloto_background" fill="white"/>
	<g id="poloto_plot0" class="poloto_plot poloto_imgs poloto_line poloto0 poloto_stroke" fill="none" stroke="black">
		<path d=" M 150.00 361.05 L 150.04 361.02 L 150.06 361.00 L 150.07 361.00 L 150.10 361.00 L 150.14 356.77 L 150.29 356.26 L 150.64 356.24 L 151.16 355.89 L 151.43 353.74 L 151.96 353.61 L 152.05 353.50 L 152.12 353.45 L 152.74 352.40 L 153.89 351.55 L 154.26 348.23 L 154.35 348.23 L 155.05 348.10 L 155.86 348.09 L 155.87 348.09 L 155.87 348.09 L 166.75 348.09 L 166.83 348.08 L 166.97 348.05 L 167.03 348.02 L 167.44 347.82 L 167.63 347.77 L 168.09 347.47 L 168.15 347.33 L 168.29 347.03 L 168.42 346.99 L 168.47 346.98 L 168.58 346.90 L 168.70 346.90 L 168.82 346.91 L 169.12 346.42 L 169.39 346.11 L 169.44 346.11 L 169.57 345.93 L 170.43 346.69 L 170.45 346.69 L 170.56 346.57 L 171.05 346.00 L 171.45 345.32 L 171.89 345.02 L 171.99 344.97 L 172.00 344.97 L 172.08 344.71 L 172.25 344.71 L 172.47 344.61 L 172.90 344.36 L 172.92 343.96 L 173.00 343.96 L 173.10 343.75 L 173.35 343.75 L 173.37 343.75 L 173.63 343.19 L 173.73 343.16 L 173.82 343.11 L 173.92 342.88 L 175.25 342.58 L 175.57 342.52 L 176.30 342.11 L 176.46 342.12 L 176.58 342.10 L 176.64 341.81 L 177.15 340.13 L 177.37 340.10 L 177.64 339.54 L 177.76 339.49 L 178.07 339.02 L 178.20 338.85 L 178.39 338.55 L 178.55 338.29 L 179.14 334.42 L 179.16 334.33 L 179.18 334.10 L 179.38 332.24 L 189.47 332.10 L 190.52 329.98 L 190.56 329.93 L 191.79 329.60 L 191.89 329.59 L 192.01 329.17 L 192.31 328.96 L 192.45 328.60 L 192.50 328.28 L 192.65 327.73 L 193.02 327.72 L 193.03 327.34 L 193.16 326.93 L 193.30 326.92 L 193.46 326.46 L 193.65 326.12 L 193.73 325.96 L 193.76 325.95 L 193.93 325.59 L 193.96 325.58 L 194.15 325.22 L 194.18 325.21 L 194.47 323.46 L 194.52 323.46 L 194.62 323.17 L 194.74 323.15 L 194.91 323.15 L 194.98 323.11 L 195.55 322.79 L 195.56 322.80 L 195.67 322.02 L 195.92 322.01 L 196.15 320.84 L 196.22 320.74 L 196.33 320.73 L 196.38 320.68 L 196.51 319.78 L 197.14 312.20 L 197.21 311.83 L 197.43 311.80 L 197.49 311.71 L 197.54 311.68 L 197.64 311.48 L 197.74 310.62 L 197.97 310.44 L 198.12 310.42 L 198.25 310.05 L 198.32 310.03 L 198.89 309.75 L 199.20 309.54 L 199.29 309.20 L 199.56 309.18 L 199.58 309.18 L 199.61 309.15 L 199.78 307.33 L 199.91 307.22 L 200.38 305.38 L 200.45 304.84 L 200.54 304.83 L 200.67 304.64 L 200.68 304.49 L 200.74 304.40 L 200.78 304.36 L 200.85 304.35 L 200.91 304.25 L 201.09 302.75 L 201.23 302.53 L 201.36 302.09 L 201.54 302.06 L 201.75 301.92 L 201.95 300.85 L 202.09 299.38 L 202.39 299.29 L 202.39 298.74 L 202.57 298.56 L 216.65 298.57 L 216.92 298.55 L 217.59 297.77 L 217.73 297.75 L 217.84 297.75 L 217.86 297.55 L 218.10 297.31 L 218.26 297.27 L 218.36 297.13 L 218.46 297.03 L 218.52 296.97 L 218.77 296.90 L 219.28 296.81 L 219.41 296.40 L 219.50 296.30 L 219.62 296.29 L 220.28 296.09 L 220.37 295.97 L 220.41 295.97 L 220.45 295.82 L 220.60 295.75 L 220.71 295.61 L 221.18 294.61 L 221.86 294.46 L 222.11 294.40 L 222.86 294.15 L 223.22 289.38 L 223.34 289.28 L 223.50 288.81 L 223.72 288.18 L 224.06 288.01 L 224.54 287.99 L 225.18 287.97 L 225.28 287.77 L 225.74 287.54 L 226.04 287.20 L 226.14 287.06 L 226.32 287.01 L 226.46 286.58 L 228.13 286.11 L 229.71 286.11 L 243.89 286.07 L 243.99 285.86 L 244.07 285.73 L 244.51 285.52 L 245.84 283.88 L 245.89 283.77 L 246.08 283.35 L 246.73 283.24 L 247.04 282.13 L 247.51 282.12 L 247.62 282.10 L 247.72 281.34 L 248.54 277.00 L 248.64 276.99 L 248.81 276.96 L 249.00 276.90 L 249.08 276.43 L 249.54 274.80 L 249.70 274.49 L 249.78 274.47 L 249.88 273.71 L 250.09 272.65 L 250.17 271.52 L 250.38 271.02 L 250.99 265.38 L 251.05 264.81 L 251.11 264.81 L 251.21 264.71 L 251.36 264.56 L 251.42 264.51 L 251.48 264.45 L 251.77 263.10 L 251.84 262.15 L 252.20 261.95 L 252.42 260.53 L 252.55 259.64 L 253.65 246.49 L 253.78 246.46 L 295.45 245.83 L 295.49 245.83 L 311.42 245.65 L 312.29 245.29 L 312.46 245.29 L 312.70 245.19 L 312.77 245.03 L 312.87 244.98 L 319.78 244.89 L 320.69 242.39 L 321.03 242.16 L 321.21 241.24 L 325.51 241.06 L 325.54 240.80 L 325.80 240.78 L 327.09 239.20 L 327.17 238.92 L 327.32 238.82 L 327.78 238.71 L 327.84 238.67 L 328.02 238.19 L 328.21 238.06 L 328.24 237.71 L 341.63 237.23 L 341.73 235.88 L 342.26 235.59 L 342.27 233.33 L 342.36 232.99 L 342.47 232.44 L 342.62 230.89 L 342.85 230.06 L 343.04 229.10 L 343.21 229.09 L 343.28 228.35 L 343.55 228.29 L 344.48 224.66 L 344.85 224.27 L 344.92 224.04 L 344.99 224.03 L 345.04 223.78 L 345.17 222.89 L 345.55 222.46 L 345.60 222.41 L 345.83 219.21 L 345.92 219.20 L 345.96 218.86 L 346.04 218.59 L 346.10 218.59 L 346.15 218.11 L 346.45 216.38 L 346.57 215.89 L 346.74 215.83 L 346.85 211.21 L 346.90 210.83 L 347.19 208.19 L 347.27 207.99 L 347.33 207.98 L 347.40 207.98 L 347.45 207.60 L 347.49 207.62 L 347.51 207.61 L 347.66 202.94 L 347.71 202.54 L 347.85 202.51 L 347.95 202.43 L 348.26 202.30 L 348.62 202.12 L 348.64 202.12 L 348.74 202.07 L 349.08 201.98 L 349.25 201.98 L 349.41 201.98 L 349.58 199.94 L 349.70 199.46 L 350.17 199.45 L 350.21 199.13 L 350.27 199.12 L 350.31 198.78 L 350.62 195.83 L 350.67 195.76 L 350.90 195.74 L 371.49 195.66 L 372.67 195.51 L 372.70 195.51 L 372.93 195.51 L 372.95 195.51 L 373.10 194.92 L 373.22 194.90 L 373.32 194.61 L 373.46 194.54 L 373.50 194.50 L 373.56 194.47 L 373.77 194.15 L 374.22 193.85 L 374.50 192.91 L 374.82 192.01 L 374.83 191.96 L 374.89 191.12 L 374.93 191.09 L 375.54 190.59 L 375.55 190.53 L 375.65 189.87 L 375.91 189.79 L 376.08 189.73 L 376.11 188.54 L 376.13 188.48 L 376.20 189.61 L 376.25 188.91 L 376.27 188.89 L 376.42 187.29 L 376.43 187.25 L 376.76 187.12 L 377.64 187.09 L 377.84 187.04 L 377.91 187.02 L 377.95 186.81 L 378.00 186.81 L 378.13 186.03 L 392.20 184.50 L 392.23 184.30 L 392.35 184.15 L 392.38 183.86 L 392.46 170.55 L 392.62 165.10 L 392.63 165.07 L 392.89 164.96 L 392.95 164.96 L 393.00 164.34 L 393.23 164.28 L 393.83 162.99 L 393.85 162.96 L 394.00 162.56 L 394.06 162.57 L 394.09 161.93 L 394.60 161.17 L 394.62 161.14 L 395.39 160.85 L 395.48 160.17 L 395.76 160.18 L 396.07 158.47 L 396.16 157.79 L 396.21 157.24 L 396.35 156.58 L 396.75 156.35 L 396.82 156.18 L 397.00 156.03 L 397.19 156.03 L 397.78 156.03 L 397.85 156.03 L 397.99 156.00 L 398.00 156.00 L 398.19 156.02 L 398.63 155.98 L 399.09 155.73 L 399.16 155.73 L 399.27 155.63 L 399.40 155.45 L 399.75 155.45 L 400.35 155.21 L 400.54 154.68 L 400.86 150.09 L 402.16 153.97 L 402.44 153.95 L 402.65 153.93 L 402.97 153.93 L 403.07 153.85 L 403.40 153.64 L 403.91 153.32 L 403.97 153.11 L 404.07 153.02 L 404.13 153.04 L 404.18 152.98 L 404.58 152.69 L 413.91 152.68 L 414.00 152.69 L 414.58 152.67 L 414.63 152.65 L 414.76 152.07 L 414.87 151.74 L 414.89 151.74 L 415.21 151.69 L 415.28 151.66 L 417.20 150.79 L 417.42 150.72 L 417.59 150.70 L 417.62 150.70 L 418.21 150.49 L 418.42 150.60 L 418.45 150.59 L 418.77 150.53 L 419.12 148.72 L 419.16 148.71 L 419.45 148.50 L 419.57 148.50 L 419.68 148.50 L 419.92 148.30 L 420.44 147.56 L 420.54 147.54 L 420.63 147.33 L 420.85 146.47 L 421.36 145.57 L 421.82 141.35 L 421.91 140.84 L 422.38 140.64 L 422.46 140.53 L 422.53 140.32 L 422.58 139.64 L 422.74 138.43 L 422.78 138.48 L 422.86 138.46 L 423.12 138.45 L 423.53 138.00 L 423.78 137.92 L 424.07 137.90 L 424.20 137.88 L 424.48 137.87 L 424.96 137.87 L 425.42 137.86 L 425.78 137.86 L 425.86 137.84 L 425.95 137.83 L 425.96 137.68 L 426.24 137.59 L 426.31 137.58 L 426.43 137.40 L 427.19 137.37 L 427.20 137.00 L 427.41 136.99 L 428.31 136.99 L 428.90 136.77 L 429.33 136.50 L 429.34 136.35 L 429.38 136.35 L 442.45 136.10 L 442.49 136.09 L 442.64 136.08 L 442.71 135.87 L 442.76 135.85 L 442.77 135.83 L 443.33 135.78 L 443.45 135.01 L 443.62 134.84 L 443.89 133.34 L 444.07 133.32 L 444.30 132.68 L 444.42 132.76 L 444.48 132.75 L 444.55 132.02 L 444.71 131.52 L 444.73 130.99 L 444.79 130.92 L 444.93 130.87 L 445.02 130.62 L 445.14 133.50 L 445.30 133.45 L 445.62 132.30 L 445.76 132.02 L 445.89 131.78 L 446.69 130.13 L 447.38 129.33 L 448.20 127.81 L 448.41 127.74 L 448.65 127.74 L 448.90 127.67 L 453.71 127.24 L 454.10 127.20 L 499.63 126.04 L 642.99 125.77 L 643.46 125.30 L 643.79 125.24 L 644.12 125.24 L 644.62 124.34 L 644.79 123.91 L 644.92 123.11 L 645.15 120.79 L 645.48 121.27 L 645.74 120.77 L 645.81 120.76 L 646.03 120.61 L 646.08 120.61 L 646.31 119.76 L 646.53 118.40 L 647.17 116.96 L 647.20 116.84 L 647.38 115.12 L 648.00 110.86 L 648.01 110.72 L 648.13 110.62 L 648.28 109.10 L 648.95 107.05 L 648.97 106.86 L 649.11 106.77 L 649.26 105.76 L 649.51 104.96 L 649.53 104.81 L 649.64 103.25 L 649.66 103.21 L 649.72 102.77 L 650.00 100.00"/>
	</g>
	<g id="poloto_plot1" class="poloto_plot poloto_imgs poloto_line poloto1 poloto_stroke" fill="none" stroke="black">
		<path d=" M 150.00 376.85 L 150.04 376.84 L 150.06 376.82 L 150.07 376.82 L 150.10 376.82 L 150.14 376.09 L 150.29 376.06 L 150.64 376.05 L 151.16 375.77 L 151.43 375.65 L 151.96 375.68 L 152.05 375.63 L 152.12 375.63 L 152.74 375.57 L 153.89 375.44 L 154.26 372.57 L 154.35 372.57 L 155.05 372.51 L 155.86 372.49 L 155.87 372.49 L 155.87 372.49 L 166.75 372.49 L 166.83 372.49 L 166.97 372.49 L 167.03 372.45 L 167.44 372.44 L 167.63 372.44 L 168.09 372.44 L 168.15 372.44 L 168.29 372.41 L 168.42 372.41 L 168.47 372.41 L 168.58 372.38 L 168.70 372.38 L 168.82 372.38 L 169.12 372.22 L 169.39 372.22 L 169.44 372.22 L 169.57 372.22 L 170.43 373.30 L 170.45 373.30 L 170.56 373.28 L 171.05 373.12 L 171.45 372.94 L 171.89 372.86 L 171.99 372.81 L 172.00 372.81 L 172.08 372.81 L 172.25 372.81 L 172.47 372.74 L 172.90 372.67 L 172.92 372.67 L 173.00 372.67 L 173.10 372.65 L 173.35 372.65 L 173.37 372.65 L 173.63 372.64 L 173.73 372.64 L 173.82 372.64 L 173.92 372.64 L 175.25 372.51 L 175.57 372.50 L 176.30 372.44 L 176.46 372.44 L 176.58 372.44 L 176.64 372.44 L 177.15 372.36 L 177.37 372.36 L 177.64 372.25 L 177.76 372.24 L 178.07 372.01 L 178.20 371.92 L 178.39 371.92 L 178.55 371.92 L 179.14 368.58 L 179.16 368.52 L 179.18 368.52 L 179.38 368.19 L 189.47 368.19 L 190.52 366.75 L 190.56 366.75 L 191.79 366.75 L 191.89 366.75 L 192.01 366.60 L 192.31 366.58 L 192.45 366.58 L 192.50 366.58 L 192.65 366.58 L 193.02 366.58 L 193.03 366.26 L 193.16 366.25 L 193.30 366.25 L 193.46 366.22 L 193.65 366.21 L 193.73 366.21 L 193.76 366.21 L 193.93 366.21 L 193.96 366.21 L 194.15 366.21 L 194.18 366.21 L 194.47 364.79 L 194.52 364.79 L 194.62 364.62 L 194.74 364.62 L 194.91 364.62 L 194.98 364.61 L 195.55 364.60 L 195.56 364.60 L 195.67 364.51 L 195.92 364.51 L 196.15 363.70 L 196.22 363.60 L 196.33 363.60 L 196.38 363.60 L 196.51 363.58 L 197.14 357.60 L 197.21 357.65 L 197.43 357.65 L 197.49 357.65 L 197.54 357.64 L 197.64 357.64 L 197.74 357.56 L 197.97 357.56 L 198.12 357.56 L 198.25 357.55 L 198.32 357.55 L 198.89 357.54 L 199.20 357.53 L 199.29 357.39 L 199.56 357.39 L 199.58 357.39 L 199.61 357.39 L 199.78 356.99 L 199.91 356.88 L 200.38 355.46 L 200.45 355.46 L 200.54 355.46 L 200.67 355.48 L 200.68 355.48 L 200.74 355.48 L 200.78 355.48 L 200.85 355.48 L 200.91 355.48 L 201.09 355.45 L 201.23 355.45 L 201.36 355.44 L 201.54 355.44 L 201.75 355.43 L 201.95 354.90 L 202.09 354.72 L 202.39 354.72 L 202.39 354.71 L 202.57 354.71 L 216.65 354.71 L 216.92 354.70 L 217.59 354.61 L 217.73 354.60 L 217.84 354.60 L 217.86 354.60 L 218.10 354.60 L 218.26 354.60 L 218.36 354.60 L 218.46 354.60 L 218.52 354.59 L 218.77 354.59 L 219.28 354.62 L 219.41 354.62 L 219.50 354.62 L 219.62 354.62 L 220.28 354.51 L 220.37 354.45 L 220.41 354.45 L 220.45 354.38 L 220.60 354.37 L 220.71 354.37 L 221.18 353.83 L 221.86 353.83 L 222.11 353.83 L 222.86 353.83 L 223.22 350.17 L 223.34 350.16 L 223.50 350.16 L 223.72 350.16 L 224.06 350.16 L 224.54 350.16 L 225.18 350.16 L 225.28 350.16 L 225.74 350.07 L 226.04 349.92 L 226.14 349.92 L 226.32 349.92 L 226.46 349.90 L 228.13 349.67 L 229.71 349.67 L 243.89 349.66 L 243.99 349.66 L 244.07 349.66 L 244.51 349.66 L 245.84 348.51 L 245.89 348.47 L 246.08 348.35 L 246.73 348.35 L 247.04 348.07 L 247.51 348.07 L 247.62 348.07 L 247.72 348.07 L 248.54 344.86 L 248.64 344.86 L 248.81 344.86 L 249.00 344.86 L 249.08 344.66 L 249.54 344.27 L 249.70 344.27 L 249.78 344.27 L 249.88 343.68 L 250.09 343.09 L 250.17 343.09 L 250.38 343.08 L 250.99 338.29 L 251.05 338.29 L 251.11 338.29 L 251.21 338.29 L 251.36 338.29 L 251.42 338.29 L 251.48 338.29 L 251.77 338.29 L 251.84 338.19 L 252.20 338.17 L 252.42 338.10 L 252.55 337.52 L 253.65 328.00 L 253.78 328.00 L 295.45 328.00 L 295.49 328.00 L 311.42 328.00 L 312.29 327.86 L 312.46 327.86 L 312.70 327.86 L 312.77 327.86 L 312.87 327.86 L 319.78 327.78 L 320.69 327.69 L 321.03 327.69 L 321.21 327.66 L 325.51 327.58 L 325.54 327.45 L 325.80 327.46 L 327.09 326.17 L 327.17 326.17 L 327.32 326.17 L 327.78 326.17 L 327.84 326.17 L 328.02 326.17 L 328.21 326.17 L 328.24 326.17 L 341.63 326.14 L 341.73 325.92 L 342.26 325.92 L 342.27 324.36 L 342.36 324.36 L 342.47 324.36 L 342.62 324.22 L 342.85 324.22 L 343.04 324.15 L 343.21 324.15 L 343.28 324.15 L 343.55 324.13 L 344.48 321.49 L 344.85 321.48 L 344.92 321.47 L 344.99 321.47 L 345.04 321.47 L 345.17 321.43 L 345.55 321.10 L 345.60 321.05 L 345.83 318.68 L 345.92 318.67 L 345.96 318.67 L 346.04 318.64 L 346.10 318.64 L 346.15 318.63 L 346.45 317.34 L 346.57 317.33 L 346.74 317.30 L 346.85 313.28 L 346.90 313.28 L 347.19 311.02 L 347.27 311.02 L 347.33 311.01 L 347.40 311.01 L 347.45 311.01 L 347.49 311.01 L 347.51 311.01 L 347.66 306.83 L 347.71 306.83 L 347.85 306.81 L 347.95 306.81 L 348.26 306.72 L 348.62 306.61 L 348.64 306.61 L 348.74 306.59 L 349.08 306.52 L 349.25 306.52 L 349.41 306.52 L 349.58 304.72 L 349.70 304.72 L 350.17 304.71 L 350.21 304.70 L 350.27 304.70 L 350.31 304.70 L 350.62 302.13 L 350.67 302.13 L 350.90 302.11 L 371.49 302.11 L 372.67 302.09 L 372.70 302.09 L 372.93 302.09 L 372.95 302.09 L 373.10 302.09 L 373.22 302.09 L 373.32 301.96 L 373.46 301.96 L 373.50 301.96 L 373.56 301.96 L 373.77 301.73 L 374.22 301.58 L 374.50 301.43 L 374.82 300.70 L 374.83 300.70 L 374.89 300.52 L 374.93 300.50 L 375.54 300.05 L 375.55 300.05 L 375.65 299.99 L 375.91 299.99 L 376.08 299.95 L 376.11 298.88 L 376.13 298.88 L 376.20 299.93 L 376.25 299.87 L 376.27 299.86 L 376.42 298.43 L 376.43 298.43 L 376.76 298.37 L 377.64 298.37 L 377.84 298.37 L 377.91 298.37 L 377.95 298.37 L 378.00 298.37 L 378.13 298.27 L 392.20 297.08 L 392.23 297.08 L 392.35 297.08 L 392.38 296.82 L 392.46 284.11 L 392.62 279.38 L 392.63 279.38 L 392.89 279.30 L 392.95 279.30 L 393.00 279.27 L 393.23 279.27 L 393.83 278.12 L 393.85 278.12 L 394.00 278.06 L 394.06 278.06 L 394.09 277.96 L 394.60 277.27 L 394.62 277.27 L 395.39 277.13 L 395.48 277.08 L 395.76 277.09 L 396.07 275.53 L 396.16 275.38 L 396.21 275.23 L 396.35 274.64 L 396.75 274.50 L 396.82 274.37 L 397.00 274.37 L 397.19 274.37 L 397.78 274.37 L 397.85 274.37 L 397.99 274.37 L 398.00 274.37 L 398.19 274.39 L 398.63 274.39 L 399.09 274.23 L 399.16 274.23 L 399.27 274.21 L 399.40 274.21 L 399.75 274.21 L 400.35 274.21 L 400.54 274.07 L 400.86 269.97 L 402.16 273.84 L 402.44 273.82 L 402.65 273.81 L 402.97 273.81 L 403.07 273.77 L 403.40 273.74 L 403.91 273.51 L 403.97 273.51 L 404.07 273.51 L 404.13 273.51 L 404.18 273.51 L 404.58 273.28 L 413.91 273.28 L 414.00 273.29 L 414.58 273.27 L 414.63 273.27 L 414.76 273.23 L 414.87 272.94 L 414.89 272.94 L 415.21 272.91 L 415.28 272.91 L 417.20 272.67 L 417.42 272.67 L 417.59 272.67 L 417.62 272.67 L 418.21 272.51 L 418.42 272.51 L 418.45 272.51 L 418.77 272.50 L 419.12 271.53 L 419.16 271.53 L 419.45 271.37 L 419.57 271.37 L 419.68 271.37 L 419.92 271.37 L 420.44 271.35 L 420.54 271.33 L 420.63 271.23 L 420.85 271.07 L 421.36 270.92 L 421.82 267.05 L 421.91 266.92 L 422.38 266.74 L 422.46 266.69 L 422.53 266.55 L 422.58 266.28 L 422.74 265.12 L 422.78 265.17 L 422.86 265.15 L 423.12 265.14 L 423.53 264.99 L 423.78 264.92 L 424.07 264.91 L 424.20 264.89 L 424.48 264.88 L 424.96 264.88 L 425.42 264.87 L 425.78 264.87 L 425.86 264.86 L 425.95 264.85 L 425.96 264.85 L 426.24 264.85 L 426.31 264.83 L 426.43 264.69 L 427.19 264.67 L 427.20 264.67 L 427.41 264.66 L 428.31 264.65 L 428.90 264.46 L 429.33 264.30 L 429.34 264.30 L 429.38 264.29 L 442.45 264.29 L 442.49 264.29 L 442.64 264.29 L 442.71 264.29 L 442.76 264.27 L 442.77 264.27 L 443.33 264.27 L 443.45 264.26 L 443.62 264.23 L 443.89 264.20 L 444.07 264.20 L 444.30 264.11 L 444.42 264.11 L 444.48 264.11 L 444.55 264.11 L 444.71 263.76 L 444.73 263.76 L 444.79 263.76 L 444.93 263.76 L 445.02 263.76 L 445.14 263.84 L 445.30 263.84 L 445.62 263.83 L 445.76 263.83 L 445.89 263.83 L 446.69 262.69 L 447.38 262.39 L 448.20 261.57 L 448.41 261.57 L 448.65 261.57 L 448.90 261.57 L 453.71 261.47 L 454.10 261.47 L 499.63 261.32 L 642.99 261.11 L 643.46 261.05 L 643.79 261.04 L 644.12 261.04 L 644.62 260.51 L 644.79 260.51 L 644.92 260.51 L 645.15 258.61 L 645.48 258.97 L 645.74 258.95 L 645.81 258.95 L 646.03 258.93 L 646.08 258.93 L 646.31 258.92 L 646.53 258.84 L 647.17 257.63 L 647.20 257.63 L 647.38 257.52 L 648.00 253.62 L 648.01 253.62 L 648.13 253.62 L 648.28 253.56 L 648.95 251.74 L 648.97 251.74 L 649.11 251.74 L 649.26 251.70 L 649.51 251.04 L 649.53 251.04 L 649.64 251.03 L 649.66 251.03 L 649.72 250.66 L 650.00 248.08"/>
	</g>
	<g id="poloto_plot2" class="poloto_plot poloto_imgs poloto_line poloto2 poloto_stroke" fill="none" stroke="black">
		<path d=" M 150.00 389.62 L 150.04 389.61 L 150.06 389.61 L 150.07 389.61 L 150.10 389.61 L 150.14 386.95 L 150.29 386.59 L 150.64 386.58 L 151.16 386.56 L 151.43 384.97 L 151.96 384.83 L 152.05 384.78 L 152.12 384.74 L 152.74 384.03 L 153.89 383.48 L 154.26 383.37 L 154.35 383.37 L 155.05 383.33 L 155.86 383.33 L 155.87 383.33 L 155.87 383.33 L 166.75 383.33 L 166.83 383.33 L 166.97 383.30 L 167.03 383.30 L 167.44 383.14 L 167.63 383.10 L 168.09 382.84 L 168.15 382.73 L 168.29 382.49 L 168.42 382.46 L 168.47 382.45 L 168.58 382.41 L 168.70 382.41 L 168.82 382.42 L 169.12 382.15 L 169.39 381.90 L 169.44 381.90 L 169.57 381.76 L 170.43 381.44 L 170.45 381.44 L 170.56 381.34 L 171.05 380.99 L 171.45 380.55 L 171.89 380.38 L 171.99 380.38 L 172.00 380.38 L 172.08 380.14 L 172.25 380.14 L 172.47 380.11 L 172.90 379.93 L 172.92 379.62 L 173.00 379.62 L 173.10 379.47 L 173.35 379.47 L 173.37 379.47 L 173.63 379.00 L 173.73 378.97 L 173.82 378.93 L 173.92 378.71 L 175.25 378.58 L 175.57 378.54 L 176.30 378.22 L 176.46 378.22 L 176.58 378.20 L 176.64 377.96 L 177.15 376.66 L 177.37 376.64 L 177.64 376.25 L 177.76 376.21 L 178.07 376.03 L 178.20 375.97 L 178.39 375.69 L 178.55 375.47 L 179.14 375.46 L 179.16 375.44 L 179.18 375.25 L 179.38 373.99 L 189.47 373.86 L 190.52 373.48 L 190.56 373.44 L 191.79 373.12 L 191.89 373.12 L 192.01 372.88 L 192.31 372.73 L 192.45 372.44 L 192.50 372.20 L 192.65 371.74 L 193.02 371.73 L 193.03 371.73 L 193.16 371.40 L 193.30 371.40 L 193.46 371.06 L 193.65 370.79 L 193.73 370.64 L 193.76 370.63 L 193.93 370.32 L 193.96 370.31 L 194.15 370.03 L 194.18 370.02 L 194.47 369.91 L 194.52 369.91 L 194.62 369.81 L 194.74 369.79 L 194.91 369.79 L 194.98 369.77 L 195.55 369.48 L 195.56 369.49 L 195.67 368.93 L 195.92 368.91 L 196.15 368.73 L 196.22 368.73 L 196.33 368.73 L 196.38 368.68 L 196.51 367.91 L 197.14 367.25 L 197.21 366.90 L 197.43 366.87 L 197.49 366.78 L 197.54 366.76 L 197.64 366.60 L 197.74 365.98 L 197.97 365.89 L 198.12 365.87 L 198.25 365.56 L 198.32 365.55 L 198.89 365.32 L 199.20 365.16 L 199.29 365.02 L 199.56 365.01 L 199.58 365.01 L 199.61 364.98 L 199.78 363.87 L 199.91 363.86 L 200.38 363.70 L 200.45 363.25 L 200.54 363.25 L 200.67 363.06 L 200.68 362.96 L 200.74 362.88 L 200.78 362.84 L 200.85 362.84 L 200.91 362.75 L 201.09 361.50 L 201.23 361.37 L 201.36 361.00 L 201.54 360.97 L 201.75 360.85 L 201.95 360.46 L 202.09 359.38 L 202.39 359.29 L 202.39 358.83 L 202.57 358.72 L 216.65 358.72 L 216.92 358.72 L 217.59 358.21 L 217.73 358.21 L 217.84 358.21 L 217.86 358.07 L 218.10 357.85 L 218.26 357.81 L 218.36 357.68 L 218.46 357.59 L 218.52 357.54 L 218.77 357.47 L 219.28 357.58 L 219.41 357.23 L 219.50 357.14 L 219.62 357.13 L 220.28 357.06 L 220.37 357.01 L 220.41 357.01 L 220.45 356.94 L 220.60 356.88 L 220.71 356.75 L 221.18 356.43 L 221.86 356.29 L 222.11 356.24 L 222.86 356.03 L 223.22 355.52 L 223.34 355.44 L 223.50 355.04 L 223.72 354.53 L 224.06 354.40 L 224.54 354.39 L 225.18 354.37 L 225.28 354.18 L 225.74 354.05 L 226.04 353.89 L 226.14 353.76 L 226.32 353.71 L 226.46 353.37 L 228.13 353.21 L 229.71 353.21 L 243.89 353.17 L 243.99 352.99 L 244.07 352.86 L 244.51 352.67 L 245.84 352.33 L 245.89 352.29 L 246.08 352.05 L 246.73 351.95 L 247.04 351.29 L 247.51 351.28 L 247.62 351.26 L 247.72 350.61 L 248.54 350.01 L 248.64 350.00 L 248.81 349.96 L 249.00 349.91 L 249.08 349.69 L 249.54 348.68 L 249.70 348.42 L 249.78 348.40 L 249.88 348.30 L 250.09 347.90 L 250.17 346.90 L 250.38 346.48 L 250.99 346.25 L 251.05 345.74 L 251.11 345.74 L 251.21 345.65 L 251.36 345.51 L 251.42 345.47 L 251.48 345.42 L 251.77 344.25 L 251.84 343.56 L 252.20 343.43 L 252.42 342.26 L 252.55 342.03 L 253.65 340.19 L 253.78 340.16 L 295.45 339.62 L 295.49 339.62 L 311.42 339.47 L 312.29 339.27 L 312.46 339.27 L 312.70 339.18 L 312.77 339.03 L 312.87 338.99 L 319.78 338.98 L 320.69 336.86 L 321.03 336.68 L 321.21 335.95 L 325.51 335.86 L 325.54 335.79 L 325.80 335.77 L 327.09 335.65 L 327.17 335.40 L 327.32 335.31 L 327.78 335.20 L 327.84 335.18 L 328.02 334.77 L 328.21 334.64 L 328.24 334.33 L 341.63 333.93 L 341.73 332.97 L 342.26 332.72 L 342.27 332.35 L 342.36 332.06 L 342.47 331.62 L 342.62 330.45 L 342.85 329.81 L 343.04 328.99 L 343.21 328.99 L 343.28 328.35 L 343.55 328.31 L 344.48 327.71 L 344.85 327.42 L 344.92 327.25 L 344.99 327.25 L 345.04 327.04 L 345.17 326.32 L 345.55 326.24 L 345.60 326.24 L 345.83 325.77 L 345.92 325.77 L 345.96 325.50 L 346.04 325.33 L 346.10 325.33 L 346.15 324.95 L 346.45 324.73 L 346.57 324.35 L 346.74 324.34 L 346.85 324.14 L 346.90 323.85 L 347.19 323.70 L 347.27 323.53 L 347.33 323.53 L 347.40 323.53 L 347.45 323.24 L 347.49 323.25 L 347.51 323.24 L 347.66 323.14 L 347.71 322.82 L 347.85 322.81 L 347.95 322.74 L 348.26 322.71 L 348.62 322.68 L 348.64 322.68 L 348.74 322.66 L 349.08 322.65 L 349.25 322.65 L 349.41 322.65 L 349.58 322.60 L 349.70 322.21 L 350.17 322.21 L 350.21 321.99 L 350.27 321.98 L 350.31 321.72 L 350.62 321.63 L 350.67 321.57 L 350.90 321.57 L 371.49 321.50 L 372.67 321.39 L 372.70 321.39 L 372.93 321.39 L 372.95 321.39 L 373.10 320.93 L 373.22 320.92 L 373.32 320.79 L 373.46 320.72 L 373.50 320.68 L 373.56 320.66 L 373.77 320.62 L 374.22 320.53 L 374.50 319.91 L 374.82 319.88 L 374.83 319.84 L 374.89 319.33 L 374.93 319.33 L 375.54 319.33 L 375.55 319.27 L 375.65 318.80 L 375.91 318.74 L 376.08 318.72 L 376.11 318.71 L 376.13 318.66 L 376.20 318.62 L 376.25 318.14 L 376.27 318.13 L 376.42 318.13 L 376.43 318.09 L 376.76 318.04 L 377.64 318.02 L 377.84 317.98 L 377.91 317.97 L 377.95 317.82 L 378.00 317.82 L 378.13 317.27 L 392.20 317.10 L 392.23 316.94 L 392.35 316.84 L 392.38 316.82 L 392.46 316.35 L 392.62 316.24 L 392.63 316.21 L 392.89 316.21 L 392.95 316.21 L 393.00 315.75 L 393.23 315.69 L 393.83 315.67 L 393.85 315.65 L 394.00 315.39 L 394.06 315.40 L 394.09 314.97 L 394.60 314.97 L 394.62 314.95 L 395.39 314.84 L 395.48 314.33 L 395.76 314.33 L 396.07 314.33 L 396.16 313.95 L 396.21 313.66 L 396.35 313.65 L 396.75 313.59 L 396.82 313.57 L 397.00 313.45 L 397.19 313.45 L 397.78 313.45 L 397.85 313.45 L 397.99 313.42 L 398.00 313.42 L 398.19 313.42 L 398.63 313.39 L 399.09 313.34 L 399.16 313.33 L 399.27 313.28 L 399.40 313.14 L 399.75 313.14 L 400.35 312.98 L 400.54 312.69 L 400.86 312.66 L 402.16 312.35 L 402.44 312.35 L 402.65 312.34 L 402.97 312.33 L 403.07 312.31 L 403.40 312.15 L 403.91 312.13 L 403.97 311.99 L 404.07 311.92 L 404.13 311.94 L 404.18 311.89 L 404.58 311.86 L 413.91 311.86 L 414.00 311.86 L 414.58 311.86 L 414.63 311.84 L 414.76 311.41 L 414.87 311.39 L 414.89 311.40 L 415.21 311.39 L 415.28 311.36 L 417.20 310.73 L 417.42 310.67 L 417.59 310.65 L 417.62 310.65 L 418.21 310.64 L 418.42 310.72 L 418.45 310.72 L 418.77 310.68 L 419.12 310.08 L 419.16 310.07 L 419.45 310.05 L 419.57 310.05 L 419.68 310.05 L 419.92 309.93 L 420.44 309.39 L 420.54 309.39 L 420.63 309.31 L 420.85 308.82 L 421.36 308.27 L 421.82 308.31 L 421.91 308.02 L 422.38 308.02 L 422.46 307.98 L 422.53 307.95 L 422.58 307.66 L 422.74 307.66 L 422.78 307.66 L 422.86 307.66 L 423.12 307.66 L 423.53 307.43 L 423.78 307.40 L 424.07 307.40 L 424.20 307.40 L 424.48 307.40 L 424.96 307.40 L 425.42 307.40 L 425.78 307.40 L 425.86 307.39 L 425.95 307.39 L 425.96 307.29 L 426.24 307.21 L 426.31 307.21 L 426.43 307.20 L 427.19 307.19 L 427.20 306.91 L 427.41 306.91 L 428.31 306.92 L 428.90 306.91 L 429.33 306.85 L 429.34 306.74 L 429.38 306.74 L 442.45 306.55 L 442.49 306.54 L 442.64 306.53 L 442.71 306.36 L 442.76 306.36 L 442.77 306.35 L 443.33 306.29 L 443.45 305.72 L 443.62 305.60 L 443.89 304.47 L 444.07 304.46 L 444.30 303.98 L 444.42 304.03 L 444.48 304.03 L 444.55 303.41 L 444.71 303.31 L 444.73 302.88 L 444.79 302.82 L 444.93 302.78 L 445.02 302.57 L 445.14 305.09 L 445.30 305.05 L 445.62 304.04 L 445.76 303.82 L 445.89 303.59 L 446.69 303.19 L 447.38 302.76 L 448.20 302.17 L 448.41 302.10 L 448.65 302.10 L 448.90 302.05 L 453.71 301.75 L 454.10 301.72 L 499.63 300.93 L 642.99 300.90 L 643.46 300.55 L 643.79 300.49 L 644.12 300.49 L 644.62 300.17 L 644.79 299.80 L 644.92 299.10 L 645.15 298.92 L 645.48 298.98 L 645.74 298.58 L 645.81 298.57 L 646.03 298.45 L 646.08 298.45 L 646.31 297.77 L 646.53 296.74 L 647.17 296.63 L 647.20 296.53 L 647.38 295.19 L 648.00 295.14 L 648.01 295.01 L 648.13 294.93 L 648.28 293.72 L 648.95 293.66 L 648.97 293.49 L 649.11 293.40 L 649.26 292.61 L 649.51 292.58 L 649.53 292.45 L 649.64 291.13 L 649.66 291.09 L 649.72 291.05 L 650.00 291.05"/>
	</g>
	<g class="poloto_legend poloto_imgs poloto_line poloto0 poloto_stroke"><line x1="680" x2="730" y1="81.25" y2="81.25"/></g>
	<g class="poloto_legend poloto_imgs poloto_line poloto1 poloto_stroke"><line x1="680" x2="730" y1="131.25" y2="131.25"/></g>
	<g class="poloto_legend poloto_imgs poloto_line poloto2 poloto_stroke"><line x1="680" x2="730" y1="181.25" y2="181.25"/></g>
	<text class="poloto_legend poloto_text poloto_line poloto0" x="675" y="100">total</text>
	<text class="poloto_legend poloto_text poloto_line poloto1" x="675" y="150">code</text>
	<text class="poloto_legend poloto_text poloto_line poloto2" x="675" y="200">docs</text>
	<text class="poloto_text poloto_name poloto_title" x="400.00" y="37.50">Workspace lines over time</text>
	<text class="poloto_text poloto_name poloto_x" x="400.00" y="640">date (JST)</text>
	<text class="poloto_text poloto_name poloto_y" x="37.50" y="250.00" transform="rotate(-90,37.50,250.00)">lines</text>
	<text class="poloto_text poloto_ticks poloto_y">
		<tspan x="135.00" y="400.00">0</tspan>
		<tspan x="135.00" y="301.27">50K</tspan>
		<tspan x="135.00" y="202.55">100K</tspan>
		<tspan x="135.00" y="103.82">150K</tspan>
	</text>
	<g class="poloto_imgs poloto_ticks poloto_y" stroke="black">
		<line x1="150.00" x2="144.00" y1="400.00" y2="400.00"/>
		<line x1="150.00" x2="144.00" y1="301.27" y2="301.27"/>
		<line x1="150.00" x2="144.00" y1="202.55" y2="202.55"/>
		<line x1="150.00" x2="144.00" y1="103.82" y2="103.82"/>
	</g>
	<g class="poloto_text poloto_ticks poloto_x">
		<text x="186.01" y="430.00" text-anchor="end" transform="rotate(-90 186.01 430.00)">2026-04-22 04:33</text>
		<text x="243.71" y="430.00" text-anchor="end" transform="rotate(-90 243.71 430.00)">2026-04-24 12:06</text>
		<text x="301.42" y="430.00" text-anchor="end" transform="rotate(-90 301.42 430.00)">2026-04-26 19:40</text>
		<text x="359.12" y="430.00" text-anchor="end" transform="rotate(-90 359.12 430.00)">2026-04-29 03:13</text>
		<text x="416.82" y="430.00" text-anchor="end" transform="rotate(-90 416.82 430.00)">2026-05-01 10:46</text>
		<text x="474.52" y="430.00" text-anchor="end" transform="rotate(-90 474.52 430.00)">2026-05-03 18:20</text>
		<text x="532.22" y="430.00" text-anchor="end" transform="rotate(-90 532.22 430.00)">2026-05-06 01:53</text>
		<text x="589.93" y="430.00" text-anchor="end" transform="rotate(-90 589.93 430.00)">2026-05-08 09:26</text>
		<text x="647.63" y="430.00" text-anchor="end" transform="rotate(-90 647.63 430.00)">2026-05-10 17:00</text>
	</g>
	<g class="poloto_imgs poloto_ticks poloto_x" stroke="black">
		<line x1="186.01" x2="186.01" y1="400.00" y2="405.00"/>
		<line x1="243.71" x2="243.71" y1="400.00" y2="405.00"/>
		<line x1="301.42" x2="301.42" y1="400.00" y2="405.00"/>
		<line x1="359.12" x2="359.12" y1="400.00" y2="405.00"/>
		<line x1="416.82" x2="416.82" y1="400.00" y2="405.00"/>
		<line x1="474.52" x2="474.52" y1="400.00" y2="405.00"/>
		<line x1="532.22" x2="532.22" y1="400.00" y2="405.00"/>
		<line x1="589.93" x2="589.93" y1="400.00" y2="405.00"/>
		<line x1="647.63" x2="647.63" y1="400.00" y2="405.00"/>
	</g>
	<path class="poloto_imgs poloto_ticks poloto_x" stroke="black" style="stroke-dasharray:7.212725787168041;stroke-dashoffset:-36.012562837218866;" d=" M 150.00 400.00 L 650.00 400.00"/>
	<path class="poloto_imgs poloto_ticks poloto_y" stroke="black" style="stroke-dasharray:9.87251294944615;stroke-dashoffset:-0;" d=" M 150.00 400.00 L 150.00 100.00"/>
</svg>

