<svg class="poloto" width="800" height="680" viewBox="0 0 800 680" xmlns="http://www.w3.org/2000/svg">
	<style>
.poloto{
  stroke-linecap:round;
  stroke-linejoin:round;
  font-family:Roboto,sans-serif;
  font-size:16px;
}
.poloto_background{fill:AliceBlue;}
.poloto_scatter{stroke-width:7}
.poloto_line{stroke-width:2}
.poloto_text{fill: black;}
.poloto_name{font-size:24px;dominant-baseline:auto;text-anchor:middle;}
.poloto_where{dominant-baseline:middle;text-anchor:start}
.poloto_text.poloto_legend{font-size:20px;dominant-baseline:middle;text-anchor:start;}
.poloto_text.poloto_ticks.poloto_y{dominant-baseline:middle;text-anchor:end}
.poloto_text.poloto_ticks.poloto_x{dominant-baseline:auto;text-anchor:middle}
.poloto_imgs.poloto_ticks{stroke: black;stroke-width:3;fill:none;stroke-dasharray:none}
.poloto_grid{stroke:gray;stroke-width:0.5}

.poloto0.poloto_stroke{stroke:blue;}
.poloto1.poloto_stroke{stroke:red;}
.poloto2.poloto_stroke{stroke:green;}
.poloto3.poloto_stroke{stroke:gold;}
.poloto4.poloto_stroke{stroke:aqua;}
.poloto5.poloto_stroke{stroke:lime;}
.poloto6.poloto_stroke{stroke:orange;}
.poloto7.poloto_stroke{stroke:chocolate;}
.poloto0.poloto_fill{fill:blue;}
.poloto1.poloto_fill{fill:red;}
.poloto2.poloto_fill{fill:green;}
.poloto3.poloto_fill{fill:gold;}
.poloto4.poloto_fill{fill:aqua;}
.poloto5.poloto_fill{fill:lime;}
.poloto6.poloto_fill{fill:orange;}
.poloto7.poloto_fill{fill:chocolate;}
	</style>
	<circle r="1e5" class="poloto_background" fill="white"/>
	<g id="poloto_plot0" class="poloto_plot poloto_imgs poloto_line poloto0 poloto_stroke" fill="none" stroke="black">
		<path d=" M 150.00 362.86 L 150.04 362.83 L 150.05 362.81 L 150.07 362.81 L 150.10 362.81 L 150.13 358.78 L 150.28 358.30 L 150.62 358.28 L 151.13 357.94 L 151.38 355.89 L 151.89 355.77 L 151.99 355.66 L 152.05 355.62 L 152.65 354.62 L 153.77 353.80 L 154.13 350.64 L 154.22 350.64 L 154.89 350.52 L 155.67 350.51 L 155.68 350.51 L 155.68 350.51 L 166.22 350.51 L 166.29 350.50 L 166.43 350.47 L 166.49 350.44 L 166.89 350.25 L 167.07 350.20 L 167.52 349.91 L 167.58 349.78 L 167.71 349.50 L 167.84 349.45 L 167.88 349.45 L 167.99 349.38 L 168.11 349.38 L 168.22 349.38 L 168.51 348.91 L 168.77 348.62 L 168.82 348.62 L 168.95 348.45 L 169.78 349.17 L 169.80 349.17 L 169.91 349.05 L 170.38 348.51 L 170.77 347.87 L 171.20 347.58 L 171.29 347.53 L 171.30 347.53 L 171.38 347.28 L 171.55 347.28 L 171.76 347.19 L 172.17 346.95 L 172.20 346.57 L 172.27 346.57 L 172.37 346.37 L 172.61 346.37 L 172.63 346.37 L 172.88 345.83 L 172.98 345.80 L 173.07 345.76 L 173.16 345.54 L 174.45 345.25 L 174.75 345.19 L 175.47 344.81 L 175.62 344.81 L 175.73 344.79 L 175.80 344.52 L 176.29 342.92 L 176.51 342.89 L 176.76 342.35 L 176.88 342.30 L 177.18 341.86 L 177.31 341.70 L 177.49 341.41 L 177.65 341.16 L 178.22 337.47 L 178.23 337.38 L 178.26 337.16 L 178.45 335.39 L 188.22 335.26 L 189.23 333.24 L 189.27 333.19 L 190.47 332.88 L 190.57 332.87 L 190.68 332.47 L 190.97 332.27 L 191.10 331.92 L 191.15 331.62 L 191.30 331.09 L 191.65 331.08 L 191.66 330.73 L 191.80 330.33 L 191.93 330.33 L 192.08 329.88 L 192.27 329.56 L 192.35 329.40 L 192.37 329.40 L 192.54 329.05 L 192.57 329.04 L 192.75 328.70 L 192.78 328.69 L 193.06 327.02 L 193.11 327.02 L 193.21 326.75 L 193.33 326.73 L 193.49 326.73 L 193.56 326.69 L 194.11 326.38 L 194.12 326.39 L 194.22 325.65 L 194.47 325.64 L 194.69 324.53 L 194.75 324.43 L 194.86 324.42 L 194.91 324.37 L 195.03 323.52 L 195.65 316.29 L 195.71 315.94 L 195.92 315.90 L 195.98 315.82 L 196.03 315.79 L 196.13 315.60 L 196.23 314.78 L 196.45 314.61 L 196.60 314.59 L 196.72 314.23 L 196.79 314.22 L 197.34 313.95 L 197.64 313.75 L 197.73 313.43 L 197.99 313.41 L 198.01 313.41 L 198.04 313.38 L 198.20 311.64 L 198.33 311.54 L 198.78 309.79 L 198.86 309.27 L 198.94 309.26 L 199.06 309.08 L 199.07 308.94 L 199.13 308.86 L 199.17 308.81 L 199.24 308.80 L 199.29 308.71 L 199.47 307.28 L 199.61 307.07 L 199.74 306.65 L 199.91 306.62 L 200.11 306.48 L 200.30 305.47 L 200.44 304.06 L 200.73 303.98 L 200.73 303.46 L 200.90 303.28 L 214.54 303.29 L 214.80 303.27 L 215.45 302.53 L 215.58 302.51 L 215.69 302.51 L 215.71 302.32 L 215.94 302.09 L 216.10 302.06 L 216.20 301.92 L 216.29 301.82 L 216.35 301.77 L 216.59 301.70 L 217.08 301.61 L 217.21 301.23 L 217.30 301.13 L 217.42 301.12 L 218.05 300.93 L 218.14 300.81 L 218.18 300.81 L 218.22 300.67 L 218.36 300.61 L 218.47 300.47 L 218.92 299.52 L 219.58 299.37 L 219.82 299.31 L 220.55 299.08 L 220.90 294.53 L 221.02 294.43 L 221.17 293.99 L 221.38 293.39 L 221.71 293.22 L 222.18 293.21 L 222.80 293.19 L 222.89 292.99 L 223.34 292.78 L 223.63 292.45 L 223.72 292.32 L 223.90 292.27 L 224.04 291.86 L 225.65 291.41 L 227.19 291.41 L 240.92 291.37 L 241.01 291.18 L 241.09 291.05 L 241.52 290.85 L 242.80 289.29 L 242.85 289.18 L 243.03 288.78 L 243.66 288.68 L 243.96 287.62 L 244.42 287.61 L 244.52 287.59 L 244.62 286.86 L 245.42 282.73 L 245.51 282.72 L 245.68 282.69 L 245.86 282.63 L 245.94 282.18 L 246.38 280.63 L 246.54 280.34 L 246.62 280.32 L 246.72 279.59 L 246.92 278.58 L 247.00 277.50 L 247.20 277.02 L 247.79 271.65 L 247.85 271.10 L 247.91 271.10 L 248.00 271.01 L 248.14 270.87 L 248.20 270.82 L 248.26 270.76 L 248.55 269.47 L 248.61 268.56 L 248.96 268.38 L 249.17 267.03 L 249.30 266.18 L 250.36 253.64 L 250.49 253.61 L 290.84 253.01 L 290.88 253.01 L 306.30 252.84 L 307.14 252.49 L 307.32 252.49 L 307.54 252.40 L 307.62 252.24 L 307.71 252.20 L 314.40 252.11 L 315.28 249.72 L 315.61 249.51 L 315.78 248.63 L 319.95 248.46 L 319.97 248.21 L 320.23 248.19 L 321.48 246.69 L 321.55 246.42 L 321.70 246.32 L 322.14 246.22 L 322.20 246.18 L 322.38 245.73 L 322.56 245.60 L 322.59 245.27 L 335.55 244.81 L 335.65 243.52 L 336.17 243.24 L 336.18 241.09 L 336.27 240.77 L 336.37 240.24 L 336.52 238.76 L 336.74 237.97 L 336.92 237.06 L 337.09 237.05 L 337.16 236.34 L 337.42 236.28 L 338.31 232.82 L 338.68 232.45 L 338.74 232.23 L 338.81 232.22 L 338.86 231.98 L 338.98 231.13 L 339.35 230.73 L 339.40 230.67 L 339.63 227.63 L 339.71 227.62 L 339.75 227.29 L 339.83 227.04 L 339.89 227.03 L 339.93 226.58 L 340.22 224.93 L 340.34 224.46 L 340.50 224.40 L 340.61 220.00 L 340.66 219.64 L 340.94 217.12 L 341.02 216.93 L 341.07 216.92 L 341.15 216.92 L 341.19 216.56 L 341.23 216.57 L 341.25 216.57 L 341.39 212.12 L 341.44 211.73 L 341.58 211.71 L 341.68 211.63 L 341.97 211.50 L 342.33 211.33 L 342.34 211.33 L 342.44 211.28 L 342.77 211.20 L 342.93 211.20 L 343.09 211.20 L 343.25 209.26 L 343.37 208.79 L 343.82 208.78 L 343.87 208.48 L 343.92 208.47 L 343.96 208.14 L 344.26 205.34 L 344.31 205.27 L 344.53 205.25 L 364.47 205.17 L 365.61 205.03 L 365.64 205.03 L 365.87 205.03 L 365.89 205.03 L 366.03 204.47 L 366.14 204.45 L 366.24 204.17 L 366.38 204.10 L 366.42 204.07 L 366.47 204.04 L 366.68 203.73 L 367.12 203.45 L 367.39 202.55 L 367.70 201.69 L 367.71 201.65 L 367.76 200.84 L 367.80 200.82 L 368.39 200.34 L 368.40 200.28 L 368.49 199.65 L 368.75 199.58 L 368.91 199.52 L 368.95 198.38 L 368.96 198.33 L 369.03 199.40 L 369.07 198.74 L 369.10 198.71 L 369.24 197.20 L 369.26 197.15 L 369.57 197.03 L 370.42 197.01 L 370.62 196.95 L 370.69 196.94 L 370.73 196.74 L 370.78 196.74 L 370.90 195.99 L 384.53 194.54 L 384.55 194.34 L 384.66 194.20 L 384.70 193.92 L 384.78 181.23 L 384.93 176.04 L 384.94 176.01 L 385.19 175.91 L 385.25 175.91 L 385.30 175.31 L 385.52 175.25 L 386.11 174.02 L 386.12 173.99 L 386.27 173.62 L 386.33 173.63 L 386.36 173.01 L 386.85 172.29 L 386.87 172.26 L 387.61 171.99 L 387.70 171.34 L 387.97 171.35 L 388.27 169.71 L 388.35 169.07 L 388.41 168.55 L 388.54 167.91 L 388.93 167.69 L 389.00 167.53 L 389.17 167.39 L 389.35 167.39 L 389.93 167.39 L 389.99 167.39 L 390.13 167.36 L 390.14 167.36 L 390.32 167.38 L 390.75 167.34 L 391.20 167.10 L 391.27 167.10 L 391.37 167.01 L 391.49 166.83 L 391.84 166.83 L 392.41 166.61 L 392.60 166.10 L 392.91 161.73 L 394.17 165.42 L 394.44 165.41 L 394.64 165.39 L 394.95 165.38 L 395.05 165.31 L 395.37 165.11 L 395.86 164.80 L 395.92 164.60 L 396.02 164.52 L 396.08 164.54 L 396.12 164.48 L 396.51 164.20 L 405.55 164.20 L 405.63 164.20 L 406.19 164.19 L 406.25 164.17 L 406.37 163.61 L 406.48 163.30 L 406.49 163.29 L 406.80 163.25 L 406.88 163.22 L 408.73 162.40 L 408.94 162.33 L 409.11 162.31 L 409.14 162.31 L 409.71 162.11 L 409.91 162.21 L 409.95 162.20 L 410.25 162.15 L 410.59 160.42 L 410.63 160.41 L 410.91 160.21 L 411.03 160.21 L 411.13 160.21 L 411.37 160.02 L 411.87 159.32 L 411.97 159.29 L 412.06 159.10 L 412.26 158.27 L 412.76 157.42 L 413.20 153.40 L 413.29 152.90 L 413.74 152.71 L 413.82 152.61 L 413.90 152.41 L 413.94 151.77 L 414.10 150.61 L 414.13 150.65 L 414.21 150.63 L 414.46 150.63 L 414.86 150.20 L 415.10 150.12 L 415.38 150.10 L 415.51 150.09 L 415.78 150.07 L 416.24 150.07 L 416.69 150.06 L 417.04 150.06 L 417.12 150.05 L 417.21 150.04 L 417.21 149.89 L 417.48 149.81 L 417.56 149.80 L 417.67 149.62 L 418.41 149.59 L 418.42 149.25 L 418.62 149.23 L 419.49 149.24 L 420.06 149.03 L 420.48 148.77 L 420.49 148.63 L 420.53 148.63 L 433.18 148.39 L 433.22 148.38 L 433.37 148.37 L 433.44 148.17 L 433.48 148.14 L 433.49 148.13 L 434.03 148.08 L 434.15 147.35 L 434.31 147.18 L 434.58 145.75 L 434.75 145.74 L 434.97 145.13 L 435.09 145.20 L 435.15 145.20 L 435.21 144.50 L 435.37 144.02 L 435.39 143.51 L 435.45 143.45 L 435.58 143.40 L 435.67 143.17 L 435.79 145.91 L 435.94 145.86 L 436.25 144.76 L 436.39 144.49 L 436.51 144.27 L 437.28 142.69 L 437.95 141.93 L 438.75 140.48 L 438.95 140.41 L 439.18 140.41 L 439.43 140.35 L 444.08 139.94 L 444.47 139.90 L 488.55 138.79 L 627.36 138.53 L 627.82 138.09 L 628.14 138.03 L 628.46 138.03 L 628.94 137.18 L 629.11 136.77 L 629.23 136.00 L 629.45 133.79 L 629.78 134.25 L 630.03 133.77 L 630.09 133.76 L 630.31 133.61 L 630.35 133.62 L 630.58 132.81 L 630.79 131.51 L 631.42 130.14 L 631.44 130.02 L 631.62 128.38 L 632.22 124.32 L 632.23 124.18 L 632.35 124.10 L 632.49 122.64 L 633.14 120.69 L 633.15 120.51 L 633.29 120.42 L 633.44 119.46 L 633.68 118.70 L 633.70 118.55 L 633.80 117.06 L 633.82 117.03 L 633.88 116.61 L 634.15 113.97 L 634.19 113.82 L 634.28 113.66 L 634.58 113.31 L 634.64 113.30 L 634.87 112.80 L 635.25 112.86 L 635.31 112.79 L 635.36 112.75 L 635.43 112.71 L 635.62 111.16 L 635.83 109.90 L 635.86 109.79 L 635.97 108.20 L 636.09 106.66 L 636.12 106.46 L 636.24 104.65 L 636.30 103.23 L 636.54 102.27 L 636.57 102.20 L 636.69 101.90 L 636.86 101.88 L 637.85 101.84 L 638.35 101.79 L 649.19 101.86 L 649.30 101.58 L 649.41 101.34 L 649.59 100.28 L 650.00 100.00"/>
	</g>
	<g id="poloto_plot1" class="poloto_plot poloto_imgs poloto_line poloto1 poloto_stroke" fill="none" stroke="black">
		<path d=" M 150.00 377.93 L 150.04 377.92 L 150.05 377.90 L 150.07 377.90 L 150.10 377.90 L 150.13 377.20 L 150.28 377.18 L 150.62 377.17 L 151.13 376.90 L 151.38 376.78 L 151.89 376.81 L 151.99 376.76 L 152.05 376.76 L 152.65 376.71 L 153.77 376.58 L 154.13 373.85 L 154.22 373.85 L 154.89 373.79 L 155.67 373.77 L 155.68 373.77 L 155.68 373.77 L 166.22 373.77 L 166.29 373.77 L 166.43 373.77 L 166.49 373.73 L 166.89 373.72 L 167.07 373.72 L 167.52 373.72 L 167.58 373.72 L 167.71 373.70 L 167.84 373.70 L 167.88 373.70 L 167.99 373.67 L 168.11 373.67 L 168.22 373.67 L 168.51 373.52 L 168.77 373.52 L 168.82 373.52 L 168.95 373.52 L 169.78 374.54 L 169.80 374.54 L 169.91 374.53 L 170.38 374.37 L 170.77 374.20 L 171.20 374.13 L 171.29 374.07 L 171.30 374.07 L 171.38 374.07 L 171.55 374.07 L 171.76 374.01 L 172.17 373.95 L 172.20 373.95 L 172.27 373.95 L 172.37 373.92 L 172.61 373.92 L 172.63 373.92 L 172.88 373.91 L 172.98 373.91 L 173.07 373.91 L 173.16 373.91 L 174.45 373.79 L 174.75 373.78 L 175.47 373.73 L 175.62 373.73 L 175.73 373.73 L 175.80 373.73 L 176.29 373.64 L 176.51 373.64 L 176.76 373.54 L 176.88 373.53 L 177.18 373.31 L 177.31 373.23 L 177.49 373.23 L 177.65 373.23 L 178.22 370.04 L 178.23 369.99 L 178.26 369.99 L 178.45 369.68 L 188.22 369.68 L 189.23 368.30 L 189.27 368.30 L 190.47 368.30 L 190.57 368.30 L 190.68 368.15 L 190.97 368.13 L 191.10 368.13 L 191.15 368.13 L 191.30 368.13 L 191.65 368.13 L 191.66 367.83 L 191.80 367.82 L 191.93 367.82 L 192.08 367.79 L 192.27 367.78 L 192.35 367.78 L 192.37 367.78 L 192.54 367.78 L 192.57 367.78 L 192.75 367.78 L 192.78 367.78 L 193.06 366.43 L 193.11 366.43 L 193.21 366.27 L 193.33 366.27 L 193.49 366.27 L 193.56 366.25 L 194.11 366.25 L 194.12 366.25 L 194.22 366.17 L 194.47 366.17 L 194.69 365.39 L 194.75 365.29 L 194.86 365.29 L 194.91 365.29 L 195.03 365.27 L 195.65 359.58 L 195.71 359.62 L 195.92 359.62 L 195.98 359.62 L 196.03 359.61 L 196.13 359.61 L 196.23 359.54 L 196.45 359.54 L 196.60 359.54 L 196.72 359.53 L 196.79 359.53 L 197.34 359.52 L 197.64 359.51 L 197.73 359.37 L 197.99 359.37 L 198.01 359.37 L 198.04 359.37 L 198.20 358.99 L 198.33 358.89 L 198.78 357.53 L 198.86 357.53 L 198.94 357.53 L 199.06 357.55 L 199.07 357.55 L 199.13 357.55 L 199.17 357.55 L 199.24 357.55 L 199.29 357.55 L 199.47 357.53 L 199.61 357.53 L 199.74 357.51 L 199.91 357.51 L 200.11 357.50 L 200.30 357.00 L 200.44 356.83 L 200.73 356.83 L 200.73 356.82 L 200.90 356.82 L 214.54 356.82 L 214.80 356.81 L 215.45 356.73 L 215.58 356.71 L 215.69 356.71 L 215.71 356.71 L 215.94 356.71 L 216.10 356.71 L 216.20 356.71 L 216.29 356.71 L 216.35 356.71 L 216.59 356.71 L 217.08 356.73 L 217.21 356.73 L 217.30 356.73 L 217.42 356.73 L 218.05 356.62 L 218.14 356.57 L 218.18 356.57 L 218.22 356.50 L 218.36 356.50 L 218.47 356.49 L 218.92 355.98 L 219.58 355.98 L 219.82 355.98 L 220.55 355.98 L 220.90 352.49 L 221.02 352.48 L 221.17 352.48 L 221.38 352.48 L 221.71 352.48 L 222.18 352.48 L 222.80 352.48 L 222.89 352.48 L 223.34 352.39 L 223.63 352.25 L 223.72 352.25 L 223.90 352.25 L 224.04 352.23 L 225.65 352.01 L 227.19 352.01 L 240.92 352.01 L 241.01 352.01 L 241.09 352.01 L 241.52 352.01 L 242.80 350.91 L 242.85 350.87 L 243.03 350.76 L 243.66 350.75 L 243.96 350.49 L 244.42 350.49 L 244.52 350.49 L 244.62 350.49 L 245.42 347.43 L 245.51 347.43 L 245.68 347.43 L 245.86 347.43 L 245.94 347.23 L 246.38 346.86 L 246.54 346.86 L 246.62 346.86 L 246.72 346.30 L 246.92 345.74 L 247.00 345.74 L 247.20 345.73 L 247.79 341.17 L 247.85 341.17 L 247.91 341.17 L 248.00 341.17 L 248.14 341.17 L 248.20 341.17 L 248.26 341.17 L 248.55 341.17 L 248.61 341.07 L 248.96 341.05 L 249.17 340.98 L 249.30 340.43 L 250.36 331.36 L 250.49 331.36 L 290.84 331.36 L 290.88 331.36 L 306.30 331.36 L 307.14 331.22 L 307.32 331.22 L 307.54 331.22 L 307.62 331.22 L 307.71 331.22 L 314.40 331.15 L 315.28 331.06 L 315.61 331.06 L 315.78 331.03 L 319.95 330.95 L 319.97 330.83 L 320.23 330.83 L 321.48 329.60 L 321.55 329.60 L 321.70 329.60 L 322.14 329.60 L 322.20 329.60 L 322.38 329.60 L 322.56 329.60 L 322.59 329.60 L 335.55 329.58 L 335.65 329.37 L 336.17 329.37 L 336.18 327.88 L 336.27 327.88 L 336.37 327.88 L 336.52 327.74 L 336.74 327.74 L 336.92 327.68 L 337.09 327.68 L 337.16 327.68 L 337.42 327.66 L 338.31 325.14 L 338.68 325.14 L 338.74 325.13 L 338.81 325.13 L 338.86 325.13 L 338.98 325.09 L 339.35 324.77 L 339.40 324.73 L 339.63 322.47 L 339.71 322.46 L 339.75 322.46 L 339.83 322.43 L 339.89 322.43 L 339.93 322.42 L 340.22 321.19 L 340.34 321.17 L 340.50 321.15 L 340.61 317.32 L 340.66 317.32 L 340.94 315.16 L 341.02 315.16 L 341.07 315.15 L 341.15 315.15 L 341.19 315.15 L 341.23 315.15 L 341.25 315.15 L 341.39 311.17 L 341.44 311.16 L 341.58 311.15 L 341.68 311.15 L 341.97 311.07 L 342.33 310.96 L 342.34 310.96 L 342.44 310.94 L 342.77 310.87 L 342.93 310.87 L 343.09 310.87 L 343.25 309.15 L 343.37 309.15 L 343.82 309.14 L 343.87 309.14 L 343.92 309.14 L 343.96 309.14 L 344.26 306.68 L 344.31 306.68 L 344.53 306.67 L 364.47 306.67 L 365.61 306.65 L 365.64 306.65 L 365.87 306.65 L 365.89 306.65 L 366.03 306.65 L 366.14 306.65 L 366.24 306.53 L 366.38 306.53 L 366.42 306.53 L 366.47 306.53 L 366.68 306.31 L 367.12 306.16 L 367.39 306.02 L 367.70 305.33 L 367.71 305.33 L 367.76 305.15 L 367.80 305.13 L 368.39 304.71 L 368.40 304.71 L 368.49 304.65 L 368.75 304.65 L 368.91 304.60 L 368.95 303.59 L 368.96 303.59 L 369.03 304.59 L 369.07 304.53 L 369.10 304.52 L 369.24 303.15 L 369.26 303.15 L 369.57 303.10 L 370.42 303.10 L 370.62 303.10 L 370.69 303.10 L 370.73 303.10 L 370.78 303.10 L 370.90 303.01 L 384.53 301.87 L 384.55 301.87 L 384.66 301.87 L 384.70 301.62 L 384.78 289.51 L 384.93 285.00 L 384.94 285.00 L 385.19 284.92 L 385.25 284.92 L 385.30 284.90 L 385.52 284.90 L 386.11 283.80 L 386.12 283.80 L 386.27 283.74 L 386.33 283.74 L 386.36 283.64 L 386.85 282.98 L 386.87 282.98 L 387.61 282.85 L 387.70 282.80 L 387.97 282.82 L 388.27 281.33 L 388.35 281.18 L 388.41 281.04 L 388.54 280.48 L 388.93 280.34 L 389.00 280.22 L 389.17 280.22 L 389.35 280.22 L 389.93 280.22 L 389.99 280.22 L 390.13 280.22 L 390.14 280.22 L 390.32 280.24 L 390.75 280.24 L 391.20 280.09 L 391.27 280.09 L 391.37 280.07 L 391.49 280.07 L 391.84 280.07 L 392.41 280.07 L 392.60 279.93 L 392.91 276.02 L 394.17 279.71 L 394.44 279.70 L 394.64 279.68 L 394.95 279.68 L 395.05 279.64 L 395.37 279.62 L 395.86 279.39 L 395.92 279.39 L 396.02 279.39 L 396.08 279.39 L 396.12 279.39 L 396.51 279.18 L 405.55 279.18 L 405.63 279.19 L 406.19 279.17 L 406.25 279.17 L 406.37 279.13 L 406.48 278.86 L 406.49 278.85 L 406.80 278.83 L 406.88 278.83 L 408.73 278.60 L 408.94 278.60 L 409.11 278.60 L 409.14 278.60 L 409.71 278.44 L 409.91 278.44 L 409.95 278.44 L 410.25 278.43 L 410.59 277.51 L 410.63 277.51 L 410.91 277.35 L 411.03 277.35 L 411.13 277.35 L 411.37 277.35 L 411.87 277.34 L 411.97 277.32 L 412.06 277.23 L 412.26 277.07 L 412.76 276.93 L 413.20 273.24 L 413.29 273.12 L 413.74 272.94 L 413.82 272.90 L 413.90 272.77 L 413.94 272.51 L 414.10 271.40 L 414.13 271.45 L 414.21 271.43 L 414.46 271.42 L 414.86 271.27 L 415.10 271.21 L 415.38 271.20 L 415.51 271.18 L 415.78 271.17 L 416.24 271.17 L 416.69 271.16 L 417.04 271.16 L 417.12 271.15 L 417.21 271.15 L 417.21 271.14 L 417.48 271.14 L 417.56 271.13 L 417.67 270.99 L 418.41 270.97 L 418.42 270.97 L 418.62 270.96 L 419.49 270.95 L 420.06 270.77 L 420.48 270.61 L 420.49 270.61 L 420.53 270.61 L 433.18 270.61 L 433.22 270.61 L 433.37 270.61 L 433.44 270.61 L 433.48 270.59 L 433.49 270.59 L 434.03 270.59 L 434.15 270.58 L 434.31 270.55 L 434.58 270.53 L 434.75 270.53 L 434.97 270.44 L 435.09 270.44 L 435.15 270.44 L 435.21 270.44 L 435.37 270.10 L 435.39 270.10 L 435.45 270.10 L 435.58 270.10 L 435.67 270.10 L 435.79 270.18 L 435.94 270.18 L 436.25 270.17 L 436.39 270.17 L 436.51 270.17 L 437.28 269.09 L 437.95 268.79 L 438.75 268.02 L 438.95 268.02 L 439.18 268.02 L 439.43 268.02 L 444.08 267.92 L 444.47 267.92 L 488.55 267.78 L 627.36 267.58 L 627.82 267.52 L 628.14 267.51 L 628.46 267.51 L 628.94 267.01 L 629.11 267.01 L 629.23 267.01 L 629.45 265.19 L 629.78 265.54 L 630.03 265.51 L 630.09 265.51 L 630.31 265.50 L 630.35 265.50 L 630.58 265.49 L 630.79 265.41 L 631.42 264.26 L 631.44 264.26 L 631.62 264.16 L 632.22 260.44 L 632.23 260.44 L 632.35 260.44 L 632.49 260.38 L 633.14 258.65 L 633.15 258.65 L 633.29 258.65 L 633.44 258.60 L 633.68 257.97 L 633.70 257.97 L 633.80 257.96 L 633.82 257.96 L 633.88 257.61 L 634.15 255.15 L 634.19 255.15 L 634.28 255.15 L 634.58 254.95 L 634.64 254.95 L 634.87 254.54 L 635.25 254.54 L 635.31 254.54 L 635.36 254.54 L 635.43 254.54 L 635.62 254.53 L 635.83 253.42 L 635.86 253.42 L 635.97 253.42 L 636.09 252.58 L 636.12 252.58 L 636.24 251.68 L 636.30 251.63 L 636.54 250.75 L 636.57 250.75 L 636.69 250.75 L 636.86 250.73 L 637.85 250.73 L 638.35 250.73 L 649.19 250.73 L 649.30 250.73 L 649.41 250.73 L 649.59 250.73 L 650.00 250.49"/>
	</g>
	<g id="poloto_plot2" class="poloto_plot poloto_imgs poloto_line poloto2 poloto_stroke" fill="none" stroke="black">
		<path d=" M 150.00 390.10 L 150.04 390.09 L 150.05 390.09 L 150.07 390.09 L 150.10 390.09 L 150.13 387.56 L 150.28 387.21 L 150.62 387.20 L 151.13 387.19 L 151.38 385.67 L 151.89 385.54 L 151.99 385.49 L 152.05 385.46 L 152.65 384.77 L 153.77 384.24 L 154.13 384.14 L 154.22 384.15 L 154.89 384.11 L 155.67 384.11 L 155.68 384.11 L 155.68 384.11 L 166.22 384.11 L 166.29 384.10 L 166.43 384.08 L 166.49 384.08 L 166.89 383.93 L 167.07 383.89 L 167.52 383.64 L 167.58 383.53 L 167.71 383.31 L 167.84 383.28 L 167.88 383.27 L 167.99 383.23 L 168.11 383.23 L 168.22 383.23 L 168.51 382.98 L 168.77 382.74 L 168.82 382.75 L 168.95 382.61 L 169.78 382.30 L 169.80 382.30 L 169.91 382.21 L 170.38 381.87 L 170.77 381.46 L 171.20 381.29 L 171.29 381.29 L 171.30 381.29 L 171.38 381.06 L 171.55 381.06 L 171.76 381.03 L 172.17 380.86 L 172.20 380.56 L 172.27 380.56 L 172.37 380.42 L 172.61 380.42 L 172.63 380.42 L 172.88 379.98 L 172.98 379.95 L 173.07 379.91 L 173.16 379.70 L 174.45 379.58 L 174.75 379.53 L 175.47 379.23 L 175.62 379.23 L 175.73 379.21 L 175.80 378.98 L 176.29 377.74 L 176.51 377.73 L 176.76 377.35 L 176.88 377.32 L 177.18 377.15 L 177.31 377.09 L 177.49 376.83 L 177.65 376.61 L 178.22 376.61 L 178.23 376.58 L 178.26 376.40 L 178.45 375.20 L 188.22 375.08 L 189.23 374.72 L 189.27 374.67 L 190.47 374.37 L 190.57 374.37 L 190.68 374.15 L 190.97 374.00 L 191.10 373.72 L 191.15 373.50 L 191.30 373.05 L 191.65 373.05 L 191.66 373.05 L 191.80 372.73 L 191.93 372.73 L 192.08 372.40 L 192.27 372.15 L 192.35 372.01 L 192.37 372.00 L 192.54 371.70 L 192.57 371.69 L 192.75 371.42 L 192.78 371.41 L 193.06 371.32 L 193.11 371.32 L 193.21 371.21 L 193.33 371.19 L 193.49 371.19 L 193.56 371.17 L 194.11 370.90 L 194.12 370.91 L 194.22 370.37 L 194.47 370.36 L 194.69 370.19 L 194.75 370.19 L 194.86 370.18 L 194.91 370.14 L 195.03 369.40 L 195.65 368.78 L 195.71 368.44 L 195.92 368.41 L 195.98 368.32 L 196.03 368.31 L 196.13 368.15 L 196.23 367.57 L 196.45 367.47 L 196.60 367.46 L 196.72 367.17 L 196.79 367.16 L 197.34 366.94 L 197.64 366.78 L 197.73 366.65 L 197.99 366.64 L 198.01 366.64 L 198.04 366.61 L 198.20 365.55 L 198.33 365.54 L 198.78 365.39 L 198.86 364.97 L 198.94 364.96 L 199.06 364.78 L 199.07 364.68 L 199.13 364.61 L 199.17 364.57 L 199.24 364.57 L 199.29 364.48 L 199.47 363.29 L 199.61 363.17 L 199.74 362.81 L 199.91 362.79 L 200.11 362.67 L 200.30 362.30 L 200.44 361.27 L 200.73 361.19 L 200.73 360.75 L 200.90 360.64 L 214.54 360.64 L 214.80 360.64 L 215.45 360.15 L 215.58 360.15 L 215.69 360.15 L 215.71 360.03 L 215.94 359.82 L 216.10 359.78 L 216.20 359.65 L 216.29 359.56 L 216.35 359.52 L 216.59 359.45 L 217.08 359.55 L 217.21 359.22 L 217.30 359.14 L 217.42 359.13 L 218.05 359.06 L 218.14 359.01 L 218.18 359.01 L 218.22 358.94 L 218.36 358.89 L 218.47 358.77 L 218.92 358.46 L 219.58 358.33 L 219.82 358.27 L 220.55 358.08 L 220.90 357.59 L 221.02 357.51 L 221.17 357.14 L 221.38 356.65 L 221.71 356.52 L 222.18 356.51 L 222.80 356.49 L 222.89 356.31 L 223.34 356.19 L 223.63 356.04 L 223.72 355.92 L 223.90 355.87 L 224.04 355.54 L 225.65 355.39 L 227.19 355.39 L 240.92 355.35 L 241.01 355.17 L 241.09 355.06 L 241.52 354.87 L 242.80 354.55 L 242.85 354.51 L 243.03 354.28 L 243.66 354.19 L 243.96 353.56 L 244.42 353.55 L 244.52 353.52 L 244.62 352.91 L 245.42 352.33 L 245.51 352.33 L 245.68 352.29 L 245.86 352.24 L 245.94 352.03 L 246.38 351.07 L 246.54 350.83 L 246.62 350.81 L 246.72 350.70 L 246.92 350.33 L 247.00 349.37 L 247.20 348.97 L 247.79 348.75 L 247.85 348.26 L 247.91 348.26 L 248.00 348.18 L 248.14 348.05 L 248.20 348.01 L 248.26 347.97 L 248.55 346.85 L 248.61 346.18 L 248.96 346.06 L 249.17 344.94 L 249.30 344.73 L 250.36 342.97 L 250.49 342.94 L 290.84 342.43 L 290.88 342.43 L 306.30 342.29 L 307.14 342.10 L 307.32 342.10 L 307.54 342.01 L 307.62 341.87 L 307.71 341.83 L 314.40 341.82 L 315.28 339.80 L 315.61 339.63 L 315.78 338.93 L 319.95 338.84 L 319.97 338.78 L 320.23 338.76 L 321.48 338.64 L 321.55 338.41 L 321.70 338.32 L 322.14 338.22 L 322.20 338.19 L 322.38 337.80 L 322.56 337.68 L 322.59 337.39 L 335.55 337.01 L 335.65 336.09 L 336.17 335.85 L 336.18 335.50 L 336.27 335.22 L 336.37 334.80 L 336.52 333.69 L 336.74 333.08 L 336.92 332.30 L 337.09 332.29 L 337.16 331.69 L 337.42 331.65 L 338.31 331.07 L 338.68 330.80 L 338.74 330.64 L 338.81 330.63 L 338.86 330.44 L 338.98 329.75 L 339.35 329.68 L 339.40 329.67 L 339.63 329.23 L 339.71 329.23 L 339.75 328.97 L 339.83 328.81 L 339.89 328.80 L 339.93 328.45 L 340.22 328.23 L 340.34 327.87 L 340.50 327.86 L 340.61 327.67 L 340.66 327.40 L 340.94 327.25 L 341.02 327.09 L 341.07 327.09 L 341.15 327.09 L 341.19 326.81 L 341.23 326.82 L 341.25 326.81 L 341.39 326.72 L 341.44 326.41 L 341.58 326.41 L 341.68 326.33 L 341.97 326.31 L 342.33 326.28 L 342.34 326.28 L 342.44 326.26 L 342.77 326.26 L 342.93 326.26 L 343.09 326.26 L 343.25 326.20 L 343.37 325.84 L 343.82 325.83 L 343.87 325.62 L 343.92 325.61 L 343.96 325.37 L 344.26 325.28 L 344.31 325.22 L 344.53 325.22 L 364.47 325.15 L 365.61 325.05 L 365.64 325.05 L 365.87 325.05 L 365.89 325.05 L 366.03 324.62 L 366.14 324.60 L 366.24 324.48 L 366.38 324.41 L 366.42 324.37 L 366.47 324.35 L 366.68 324.31 L 367.12 324.23 L 367.39 323.64 L 367.70 323.61 L 367.71 323.57 L 367.76 323.09 L 367.80 323.08 L 368.39 323.08 L 368.40 323.03 L 368.49 322.58 L 368.75 322.52 L 368.91 322.51 L 368.95 322.50 L 368.96 322.45 L 369.03 322.41 L 369.07 321.95 L 369.10 321.94 L 369.24 321.94 L 369.26 321.90 L 369.57 321.86 L 370.42 321.84 L 370.62 321.80 L 370.69 321.79 L 370.73 321.64 L 370.78 321.64 L 370.90 321.12 L 384.53 320.96 L 384.55 320.81 L 384.66 320.71 L 384.70 320.69 L 384.78 320.25 L 384.93 320.14 L 384.94 320.11 L 385.19 320.11 L 385.25 320.11 L 385.30 319.67 L 385.52 319.62 L 386.11 319.60 L 386.12 319.57 L 386.27 319.33 L 386.33 319.34 L 386.36 318.93 L 386.85 318.93 L 386.87 318.91 L 387.61 318.81 L 387.70 318.32 L 387.97 318.32 L 388.27 318.32 L 388.35 317.96 L 388.41 317.68 L 388.54 317.67 L 388.93 317.61 L 389.00 317.59 L 389.17 317.48 L 389.35 317.48 L 389.93 317.48 L 389.99 317.48 L 390.13 317.45 L 390.14 317.45 L 390.32 317.45 L 390.75 317.42 L 391.20 317.37 L 391.27 317.37 L 391.37 317.32 L 391.49 317.19 L 391.84 317.19 L 392.41 317.03 L 392.60 316.75 L 392.91 316.72 L 394.17 316.43 L 394.44 316.43 L 394.64 316.42 L 394.95 316.41 L 395.05 316.39 L 395.37 316.24 L 395.86 316.22 L 395.92 316.09 L 396.02 316.02 L 396.08 316.04 L 396.12 315.99 L 396.51 315.97 L 405.55 315.96 L 405.63 315.96 L 406.19 315.96 L 406.25 315.94 L 406.37 315.54 L 406.48 315.52 L 406.49 315.52 L 406.80 315.51 L 406.88 315.49 L 408.73 314.89 L 408.94 314.83 L 409.11 314.81 L 409.14 314.81 L 409.71 314.80 L 409.91 314.88 L 409.95 314.88 L 410.25 314.84 L 410.59 314.27 L 410.63 314.26 L 410.91 314.24 L 411.03 314.24 L 411.13 314.24 L 411.37 314.12 L 411.87 313.60 L 411.97 313.60 L 412.06 313.53 L 412.26 313.06 L 412.76 312.54 L 413.20 312.57 L 413.29 312.30 L 413.74 312.30 L 413.82 312.27 L 413.90 312.24 L 413.94 311.96 L 414.10 311.96 L 414.13 311.96 L 414.21 311.96 L 414.46 311.96 L 414.86 311.74 L 415.10 311.71 L 415.38 311.71 L 415.51 311.71 L 415.78 311.71 L 416.24 311.71 L 416.69 311.71 L 417.04 311.71 L 417.12 311.71 L 417.21 311.70 L 417.21 311.60 L 417.48 311.53 L 417.56 311.53 L 417.67 311.52 L 418.41 311.51 L 418.42 311.25 L 418.62 311.25 L 419.49 311.25 L 420.06 311.24 L 420.48 311.19 L 420.49 311.08 L 420.53 311.08 L 433.18 310.90 L 433.22 310.89 L 433.37 310.88 L 433.44 310.72 L 433.48 310.72 L 433.49 310.71 L 434.03 310.65 L 434.15 310.11 L 434.31 309.99 L 434.58 308.92 L 434.75 308.91 L 434.97 308.45 L 435.09 308.50 L 435.15 308.50 L 435.21 307.91 L 435.37 307.81 L 435.39 307.40 L 435.45 307.34 L 435.58 307.31 L 435.67 307.10 L 435.79 309.51 L 435.94 309.47 L 436.25 308.50 L 436.39 308.29 L 436.51 308.08 L 437.28 307.70 L 437.95 307.29 L 438.75 306.72 L 438.95 306.66 L 439.18 306.66 L 439.43 306.61 L 444.08 306.32 L 444.47 306.29 L 488.55 305.54 L 627.36 305.52 L 627.82 305.18 L 628.14 305.13 L 628.46 305.13 L 628.94 304.82 L 629.11 304.46 L 629.23 303.80 L 629.45 303.62 L 629.78 303.69 L 630.03 303.30 L 630.09 303.29 L 630.31 303.17 L 630.35 303.18 L 630.58 302.53 L 630.79 301.54 L 631.42 301.45 L 631.44 301.34 L 631.62 300.07 L 632.22 300.02 L 632.23 299.90 L 632.35 299.82 L 632.49 298.67 L 633.14 298.61 L 633.15 298.44 L 633.29 298.37 L 633.44 297.61 L 633.68 297.58 L 633.70 297.46 L 633.80 296.20 L 633.82 296.16 L 633.88 296.13 L 634.15 296.13 L 634.19 296.00 L 634.28 295.90 L 634.58 295.78 L 634.64 295.78 L 634.87 295.71 L 635.25 295.76 L 635.31 295.70 L 635.36 295.68 L 635.43 295.63 L 635.62 294.33 L 635.83 294.30 L 635.86 294.19 L 635.97 292.85 L 636.09 292.36 L 636.12 292.18 L 636.24 291.53 L 636.30 290.39 L 636.54 290.38 L 636.57 290.32 L 636.69 290.09 L 636.86 290.08 L 637.85 290.04 L 638.35 290.01 L 649.19 290.07 L 649.30 289.81 L 649.41 289.62 L 649.59 288.71 L 650.00 288.70"/>
	</g>
	<g class="poloto_legend poloto_imgs poloto_line poloto0 poloto_stroke"><line x1="680" x2="730" y1="81.25" y2="81.25"/></g>
	<g class="poloto_legend poloto_imgs poloto_line poloto1 poloto_stroke"><line x1="680" x2="730" y1="131.25" y2="131.25"/></g>
	<g class="poloto_legend poloto_imgs poloto_line poloto2 poloto_stroke"><line x1="680" x2="730" y1="181.25" y2="181.25"/></g>
	<text class="poloto_legend poloto_text poloto_line poloto0" x="675" y="100">total</text>
	<text class="poloto_legend poloto_text poloto_line poloto1" x="675" y="150">code</text>
	<text class="poloto_legend poloto_text poloto_line poloto2" x="675" y="200">docs</text>
	<text class="poloto_text poloto_name poloto_title" x="400.00" y="37.50">Workspace lines over time</text>
	<text class="poloto_text poloto_name poloto_x" x="400.00" y="640">date (JST)</text>
	<text class="poloto_text poloto_name poloto_y" x="37.50" y="250.00" transform="rotate(-90,37.50,250.00)">lines</text>
	<text class="poloto_text poloto_ticks poloto_y">
		<tspan x="135.00" y="400.00">0</tspan>
		<tspan x="135.00" y="305.87">50K</tspan>
		<tspan x="135.00" y="211.74">100K</tspan>
		<tspan x="135.00" y="117.61">150K</tspan>
	</text>
	<g class="poloto_imgs poloto_ticks poloto_y" stroke="black">
		<line x1="150.00" x2="144.00" y1="400.00" y2="400.00"/>
		<line x1="150.00" x2="144.00" y1="305.87" y2="305.87"/>
		<line x1="150.00" x2="144.00" y1="211.74" y2="211.74"/>
		<line x1="150.00" x2="144.00" y1="117.61" y2="117.61"/>
	</g>
	<g class="poloto_text poloto_ticks poloto_x">
		<text x="184.87" y="430.00" text-anchor="end" transform="rotate(-90 184.87 430.00)">2026-04-22 04:33</text>
		<text x="240.74" y="430.00" text-anchor="end" transform="rotate(-90 240.74 430.00)">2026-04-24 12:06</text>
		<text x="296.62" y="430.00" text-anchor="end" transform="rotate(-90 296.62 430.00)">2026-04-26 19:40</text>
		<text x="352.49" y="430.00" text-anchor="end" transform="rotate(-90 352.49 430.00)">2026-04-29 03:13</text>
		<text x="408.36" y="430.00" text-anchor="end" transform="rotate(-90 408.36 430.00)">2026-05-01 10:46</text>
		<text x="464.24" y="430.00" text-anchor="end" transform="rotate(-90 464.24 430.00)">2026-05-03 18:20</text>
		<text x="520.11" y="430.00" text-anchor="end" transform="rotate(-90 520.11 430.00)">2026-05-06 01:53</text>
		<text x="575.98" y="430.00" text-anchor="end" transform="rotate(-90 575.98 430.00)">2026-05-08 09:26</text>
		<text x="631.86" y="430.00" text-anchor="end" transform="rotate(-90 631.86 430.00)">2026-05-10 17:00</text>
	</g>
	<g class="poloto_imgs poloto_ticks poloto_x" stroke="black">
		<line x1="184.87" x2="184.87" y1="400.00" y2="405.00"/>
		<line x1="240.74" x2="240.74" y1="400.00" y2="405.00"/>
		<line x1="296.62" x2="296.62" y1="400.00" y2="405.00"/>
		<line x1="352.49" x2="352.49" y1="400.00" y2="405.00"/>
		<line x1="408.36" x2="408.36" y1="400.00" y2="405.00"/>
		<line x1="464.24" x2="464.24" y1="400.00" y2="405.00"/>
		<line x1="520.11" x2="520.11" y1="400.00" y2="405.00"/>
		<line x1="575.98" x2="575.98" y1="400.00" y2="405.00"/>
		<line x1="631.86" x2="631.86" y1="400.00" y2="405.00"/>
	</g>
	<path class="poloto_imgs poloto_ticks poloto_x" stroke="black" style="stroke-dasharray:6.984129822122595;stroke-dashoffset:-34.87120147142559;" d=" M 150.00 400.00 L 650.00 400.00"/>
	<path class="poloto_imgs poloto_ticks poloto_y" stroke="black" style="stroke-dasharray:9.412886869650343;stroke-dashoffset:-0;" d=" M 150.00 400.00 L 150.00 100.00"/>
</svg>

