<svg class="poloto" width="800" height="680" viewBox="0 0 800 680" xmlns="http://www.w3.org/2000/svg">
	<style>
.poloto{
  stroke-linecap:round;
  stroke-linejoin:round;
  font-family:Roboto,sans-serif;
  font-size:16px;
}
.poloto_background{fill:AliceBlue;}
.poloto_scatter{stroke-width:7}
.poloto_line{stroke-width:2}
.poloto_text{fill: black;}
.poloto_name{font-size:24px;dominant-baseline:auto;text-anchor:middle;}
.poloto_where{dominant-baseline:middle;text-anchor:start}
.poloto_text.poloto_legend{font-size:20px;dominant-baseline:middle;text-anchor:start;}
.poloto_text.poloto_ticks.poloto_y{dominant-baseline:middle;text-anchor:end}
.poloto_text.poloto_ticks.poloto_x{dominant-baseline:auto;text-anchor:middle}
.poloto_imgs.poloto_ticks{stroke: black;stroke-width:3;fill:none;stroke-dasharray:none}
.poloto_grid{stroke:gray;stroke-width:0.5}

.poloto0.poloto_stroke{stroke:blue;}
.poloto1.poloto_stroke{stroke:red;}
.poloto2.poloto_stroke{stroke:green;}
.poloto3.poloto_stroke{stroke:gold;}
.poloto4.poloto_stroke{stroke:aqua;}
.poloto5.poloto_stroke{stroke:lime;}
.poloto6.poloto_stroke{stroke:orange;}
.poloto7.poloto_stroke{stroke:chocolate;}
.poloto0.poloto_fill{fill:blue;}
.poloto1.poloto_fill{fill:red;}
.poloto2.poloto_fill{fill:green;}
.poloto3.poloto_fill{fill:gold;}
.poloto4.poloto_fill{fill:aqua;}
.poloto5.poloto_fill{fill:lime;}
.poloto6.poloto_fill{fill:orange;}
.poloto7.poloto_fill{fill:chocolate;}
	</style>
	<circle r="1e5" class="poloto_background" fill="white"/>
	<g id="poloto_plot0" class="poloto_plot poloto_imgs poloto_line poloto0 poloto_stroke" fill="none" stroke="black">
		<path d=" M 150.00 371.45 L 150.02 371.42 L 150.04 371.41 L 150.05 371.41 L 150.07 371.41 L 150.09 368.31 L 150.20 367.93 L 150.43 367.92 L 150.78 367.66 L 150.96 366.09 L 151.31 365.99 L 151.38 365.91 L 151.42 365.87 L 151.84 365.10 L 152.62 364.48 L 152.86 362.04 L 152.93 362.05 L 153.40 361.95 L 153.94 361.94 L 153.94 361.94 L 153.95 361.94 L 161.26 361.94 L 161.31 361.94 L 161.41 361.92 L 161.45 361.89 L 161.72 361.75 L 161.85 361.71 L 162.16 361.49 L 162.20 361.39 L 162.29 361.17 L 162.39 361.13 L 162.41 361.13 L 162.49 361.07 L 162.57 361.07 L 162.65 361.08 L 162.85 360.72 L 163.03 360.49 L 163.07 360.49 L 163.15 360.36 L 163.73 360.92 L 163.74 360.92 L 163.82 360.83 L 164.15 360.41 L 164.42 359.91 L 164.72 359.69 L 164.78 359.65 L 164.79 359.66 L 164.84 359.46 L 164.96 359.46 L 165.10 359.39 L 165.39 359.21 L 165.41 358.92 L 165.46 358.92 L 165.53 358.76 L 165.70 358.76 L 165.71 358.76 L 165.88 358.35 L 165.95 358.33 L 166.01 358.29 L 166.08 358.13 L 166.97 357.90 L 167.18 357.86 L 167.68 357.56 L 167.79 357.56 L 167.86 357.55 L 167.91 357.34 L 168.25 356.11 L 168.40 356.08 L 168.58 355.67 L 168.66 355.64 L 168.87 355.29 L 168.96 355.17 L 169.08 354.95 L 169.19 354.76 L 169.59 351.92 L 169.60 351.85 L 169.62 351.68 L 169.75 350.32 L 176.53 350.22 L 177.24 348.67 L 177.26 348.63 L 178.09 348.39 L 178.16 348.38 L 178.24 348.07 L 178.44 347.92 L 178.53 347.65 L 178.57 347.42 L 178.67 347.02 L 178.92 347.01 L 178.92 346.73 L 179.02 346.43 L 179.11 346.43 L 179.21 346.08 L 179.34 345.84 L 179.40 345.72 L 179.42 345.71 L 179.53 345.45 L 179.55 345.44 L 179.68 345.17 L 179.70 345.17 L 179.89 343.89 L 179.93 343.89 L 179.99 343.67 L 180.08 343.66 L 180.19 343.66 L 180.24 343.63 L 180.62 343.39 L 180.63 343.40 L 180.70 342.83 L 180.87 342.82 L 181.02 341.97 L 181.07 341.89 L 181.14 341.88 L 181.18 341.85 L 181.26 341.19 L 181.69 335.63 L 181.73 335.36 L 181.88 335.34 L 181.92 335.27 L 181.96 335.25 L 182.03 335.10 L 182.09 334.47 L 182.24 334.34 L 182.35 334.33 L 182.43 334.05 L 182.48 334.04 L 182.87 333.84 L 183.07 333.68 L 183.14 333.43 L 183.31 333.42 L 183.33 333.42 L 183.35 333.40 L 183.46 332.06 L 183.55 331.98 L 183.86 330.63 L 183.92 330.24 L 183.98 330.23 L 184.06 330.09 L 184.07 329.98 L 184.10 329.92 L 184.13 329.88 L 184.18 329.88 L 184.22 329.81 L 184.35 328.70 L 184.44 328.54 L 184.53 328.22 L 184.65 328.20 L 184.79 328.09 L 184.92 327.31 L 185.02 326.23 L 185.22 326.17 L 185.22 325.77 L 185.33 325.63 L 194.81 325.64 L 194.99 325.62 L 195.43 325.05 L 195.53 325.04 L 195.60 325.04 L 195.61 324.89 L 195.78 324.72 L 195.89 324.69 L 195.95 324.58 L 196.02 324.51 L 196.06 324.47 L 196.23 324.41 L 196.57 324.35 L 196.66 324.05 L 196.72 323.98 L 196.80 323.97 L 197.24 323.82 L 197.30 323.73 L 197.33 323.73 L 197.36 323.62 L 197.46 323.57 L 197.53 323.47 L 197.85 322.74 L 198.31 322.63 L 198.47 322.58 L 198.98 322.40 L 199.22 318.90 L 199.30 318.83 L 199.41 318.48 L 199.55 318.02 L 199.78 317.90 L 200.11 317.88 L 200.54 317.87 L 200.60 317.72 L 200.91 317.56 L 201.12 317.30 L 201.18 317.20 L 201.30 317.16 L 201.40 316.85 L 202.52 316.51 L 203.58 316.51 L 213.12 316.47 L 213.18 316.32 L 213.23 316.23 L 213.53 316.07 L 214.42 314.87 L 214.46 314.79 L 214.58 314.48 L 215.02 314.40 L 215.23 313.58 L 215.54 313.58 L 215.62 313.56 L 215.69 313.01 L 216.24 309.83 L 216.31 309.82 L 216.42 309.80 L 216.55 309.75 L 216.60 309.41 L 216.91 308.21 L 217.02 307.99 L 217.07 307.97 L 217.14 307.42 L 217.28 306.64 L 217.33 305.81 L 217.47 305.44 L 217.89 301.31 L 217.93 300.89 L 217.97 300.89 L 218.03 300.81 L 218.13 300.71 L 218.17 300.67 L 218.21 300.62 L 218.41 299.63 L 218.46 298.94 L 218.70 298.80 L 218.84 297.75 L 218.93 297.10 L 219.67 287.46 L 219.76 287.43 L 247.77 286.97 L 247.80 286.97 L 258.51 286.84 L 259.09 286.58 L 259.21 286.58 L 259.37 286.51 L 259.42 286.38 L 259.48 286.35 L 264.12 286.28 L 264.74 284.45 L 264.96 284.28 L 265.09 283.61 L 267.98 283.47 L 268.00 283.29 L 268.18 283.27 L 269.04 282.11 L 269.09 281.90 L 269.20 281.83 L 269.50 281.75 L 269.54 281.72 L 269.66 281.38 L 269.79 281.28 L 269.82 281.02 L 278.81 280.67 L 278.88 279.68 L 279.24 279.46 L 279.24 277.81 L 279.31 277.56 L 279.38 277.16 L 279.48 276.02 L 279.63 275.41 L 279.76 274.71 L 279.88 274.70 L 279.92 274.16 L 280.11 274.11 L 280.73 271.45 L 280.98 271.17 L 281.02 271.00 L 281.08 270.99 L 281.11 270.81 L 281.19 270.15 L 281.45 269.84 L 281.49 269.80 L 281.64 267.46 L 281.70 267.45 L 281.72 267.20 L 281.78 267.01 L 281.82 267.00 L 281.85 266.65 L 282.05 265.38 L 282.14 265.02 L 282.25 264.98 L 282.32 261.59 L 282.35 261.31 L 282.55 259.38 L 282.61 259.23 L 282.64 259.23 L 282.69 259.22 L 282.73 258.95 L 282.75 258.96 L 282.76 258.95 L 282.86 255.53 L 282.90 255.24 L 282.99 255.22 L 283.07 255.16 L 283.27 255.06 L 283.52 254.93 L 283.52 254.93 L 283.59 254.89 L 283.82 254.82 L 283.93 254.82 L 284.04 254.82 L 284.16 253.33 L 284.24 252.98 L 284.55 252.97 L 284.58 252.74 L 284.62 252.73 L 284.65 252.48 L 284.86 250.32 L 284.89 250.27 L 285.04 250.25 L 298.89 250.19 L 299.68 250.08 L 299.70 250.08 L 299.86 250.08 L 299.87 250.08 L 299.97 249.65 L 300.05 249.63 L 300.11 249.42 L 300.21 249.37 L 300.24 249.34 L 300.27 249.32 L 300.42 249.08 L 300.72 248.87 L 300.91 248.18 L 301.12 247.52 L 301.13 247.48 L 301.17 246.86 L 301.20 246.84 L 301.61 246.48 L 301.62 246.43 L 301.68 245.94 L 301.86 245.89 L 301.97 245.84 L 301.99 244.97 L 302.00 244.93 L 302.05 245.76 L 302.08 245.25 L 302.10 245.23 L 302.20 244.06 L 302.21 244.03 L 302.43 243.93 L 303.02 243.91 L 303.16 243.87 L 303.20 243.86 L 303.23 243.71 L 303.26 243.71 L 303.35 243.13 L 312.81 242.01 L 312.83 241.86 L 312.90 241.76 L 312.93 241.54 L 312.98 231.78 L 313.09 227.79 L 313.10 227.77 L 313.27 227.69 L 313.31 227.69 L 313.34 227.23 L 313.50 227.18 L 313.90 226.24 L 313.92 226.22 L 314.02 225.93 L 314.06 225.94 L 314.08 225.46 L 314.42 224.91 L 314.43 224.89 L 314.95 224.67 L 315.01 224.18 L 315.20 224.18 L 315.41 222.92 L 315.47 222.43 L 315.50 222.03 L 315.60 221.54 L 315.87 221.37 L 315.92 221.25 L 316.03 221.14 L 316.16 221.14 L 316.56 221.14 L 316.61 221.14 L 316.70 221.12 L 316.70 221.12 L 316.83 221.13 L 317.13 221.10 L 317.44 220.92 L 317.49 220.92 L 317.56 220.85 L 317.64 220.71 L 317.88 220.71 L 318.28 220.54 L 318.41 220.15 L 318.63 216.78 L 319.50 219.63 L 319.69 219.61 L 319.83 219.60 L 320.05 219.60 L 320.12 219.54 L 320.33 219.38 L 320.68 219.15 L 320.72 219.00 L 320.79 218.93 L 320.83 218.95 L 320.86 218.90 L 321.13 218.69 L 327.40 218.69 L 327.46 218.69 L 327.85 218.68 L 327.89 218.66 L 327.97 218.23 L 328.05 217.99 L 328.06 217.99 L 328.27 217.95 L 328.32 217.93 L 329.61 217.30 L 329.76 217.25 L 329.87 217.23 L 329.90 217.23 L 330.29 217.08 L 330.43 217.16 L 330.45 217.15 L 330.67 217.11 L 330.90 215.78 L 330.93 215.77 L 331.13 215.62 L 331.21 215.62 L 331.28 215.62 L 331.44 215.47 L 331.79 214.93 L 331.86 214.91 L 331.92 214.76 L 332.06 214.13 L 332.41 213.47 L 332.72 210.38 L 332.78 210.00 L 333.09 209.85 L 333.15 209.77 L 333.20 209.62 L 333.23 209.13 L 333.34 208.24 L 333.36 208.27 L 333.41 208.25 L 333.59 208.25 L 333.87 207.92 L 334.03 207.86 L 334.23 207.85 L 334.32 207.84 L 334.51 207.83 L 334.83 207.83 L 335.14 207.82 L 335.38 207.81 L 335.44 207.80 L 335.50 207.80 L 335.50 207.69 L 335.69 207.62 L 335.74 207.61 L 335.81 207.48 L 336.33 207.46 L 336.34 207.19 L 336.48 207.18 L 337.08 207.18 L 337.48 207.02 L 337.77 206.82 L 337.78 206.71 L 337.80 206.71 L 346.58 206.53 L 346.61 206.52 L 346.71 206.51 L 346.76 206.36 L 346.79 206.34 L 346.80 206.33 L 347.17 206.29 L 347.26 205.73 L 347.37 205.60 L 347.56 204.50 L 347.68 204.49 L 347.83 204.02 L 347.91 204.08 L 347.95 204.07 L 348.00 203.54 L 348.11 203.17 L 348.12 202.78 L 348.16 202.73 L 348.25 202.70 L 348.31 202.51 L 348.39 204.62 L 348.50 204.58 L 348.72 203.74 L 348.81 203.53 L 348.90 203.36 L 349.43 202.15 L 349.90 201.57 L 350.45 200.45 L 350.59 200.40 L 350.75 200.40 L 350.92 200.35 L 354.15 200.03 L 354.42 200.00 L 385.02 199.15 L 481.39 198.95 L 481.71 198.61 L 481.93 198.56 L 482.15 198.56 L 482.48 197.91 L 482.60 197.59 L 482.68 197.00 L 482.84 195.31 L 483.06 195.65 L 483.24 195.29 L 483.28 195.28 L 483.43 195.17 L 483.46 195.17 L 483.62 194.55 L 483.76 193.55 L 484.20 192.49 L 484.22 192.41 L 484.34 191.15 L 484.76 188.02 L 484.77 187.92 L 484.85 187.85 L 484.95 186.73 L 485.40 185.23 L 485.41 185.09 L 485.50 185.02 L 485.61 184.28 L 485.77 183.70 L 485.78 183.59 L 485.86 182.44 L 485.87 182.42 L 485.91 182.10 L 486.10 180.06 L 486.12 179.95 L 486.19 179.83 L 486.39 179.56 L 486.44 179.55 L 486.60 179.16 L 486.86 179.21 L 486.90 179.16 L 486.94 179.13 L 486.99 179.10 L 487.12 177.90 L 487.26 176.93 L 487.28 176.85 L 487.36 175.63 L 487.45 174.44 L 487.47 174.29 L 487.55 172.90 L 487.59 171.81 L 487.75 171.07 L 487.78 171.02 L 487.86 170.79 L 487.98 170.77 L 488.67 170.74 L 489.01 170.70 L 496.54 170.75 L 496.62 170.54 L 496.69 170.35 L 496.82 169.54 L 497.10 169.32 L 497.12 169.24 L 497.18 168.16 L 497.36 167.11 L 497.38 167.02 L 499.02 166.95 L 499.12 166.36 L 499.95 166.18 L 500.04 166.14 L 500.14 164.92 L 501.13 163.78 L 501.56 163.34 L 501.67 162.44 L 502.02 160.91 L 502.25 160.47 L 502.62 159.57 L 503.28 159.11 L 513.35 159.10 L 513.96 159.00 L 513.98 159.02 L 514.83 158.84 L 514.87 158.75 L 515.16 158.68 L 515.51 157.68 L 515.51 157.68 L 515.55 157.64 L 516.00 156.50 L 517.03 155.85 L 517.10 155.79 L 517.20 155.78 L 517.36 155.48 L 517.40 155.40 L 517.47 155.34 L 517.95 155.30 L 518.33 155.30 L 518.54 155.30 L 518.57 155.26 L 519.00 154.26 L 519.33 154.07 L 519.35 153.99 L 519.39 153.91 L 519.43 153.65 L 530.37 153.26 L 530.39 153.24 L 530.42 153.23 L 530.63 153.12 L 530.80 152.99 L 531.76 151.46 L 532.00 151.28 L 532.69 150.82 L 533.29 150.71 L 533.73 150.56 L 533.86 149.14 L 534.41 147.48 L 534.61 147.36 L 534.69 146.30 L 536.30 144.33 L 536.32 144.33 L 536.41 143.85 L 536.72 143.79 L 536.72 143.79 L 536.74 143.68 L 536.79 143.52 L 536.93 143.37 L 537.11 142.54 L 538.79 140.55 L 539.00 140.31 L 539.15 139.96 L 539.18 139.91 L 539.21 139.63 L 546.66 138.74 L 546.90 138.05 L 547.04 138.02 L 547.09 137.57 L 547.79 137.36 L 547.94 136.90 L 548.07 136.90 L 548.15 135.95 L 548.39 133.52 L 548.42 133.49 L 548.74 133.44 L 548.81 132.65 L 549.08 131.70 L 549.13 131.04 L 549.35 130.44 L 549.52 130.12 L 549.64 129.39 L 549.92 128.77 L 549.95 128.08 L 550.31 127.93 L 550.35 127.93 L 550.40 127.04 L 550.48 127.04 L 550.51 126.98 L 550.93 125.33 L 551.53 124.79 L 551.83 124.96 L 552.82 124.89 L 552.84 124.88 L 552.99 124.86 L 553.06 124.84 L 553.17 124.73 L 553.29 124.63 L 553.43 124.45 L 553.72 124.22 L 554.00 124.20 L 554.88 124.03 L 554.92 124.03 L 555.81 123.87 L 556.18 123.77 L 563.72 123.75 L 564.10 123.63 L 564.28 123.55 L 564.37 123.55 L 564.39 123.55 L 564.58 123.53 L 564.67 123.47 L 564.89 123.32 L 565.02 123.29 L 565.52 123.12 L 565.77 122.75 L 566.19 122.69 L 566.31 122.46 L 566.46 122.31 L 566.64 122.12 L 567.29 122.17 L 567.36 122.15 L 568.30 121.69 L 568.45 121.42 L 568.64 121.33 L 569.10 121.12 L 569.32 121.18 L 569.43 121.53 L 569.52 121.51 L 569.65 121.36 L 570.05 120.28 L 570.48 120.17 L 570.85 120.08 L 570.90 120.03 L 570.94 119.72 L 598.19 119.64 L 598.37 119.51 L 614.05 119.16 L 614.13 119.55 L 614.26 117.89 L 614.28 117.89 L 614.32 117.94 L 614.88 114.57 L 614.94 114.54 L 615.63 114.61 L 616.34 114.41 L 616.58 114.09 L 617.02 113.68 L 617.60 113.42 L 617.62 113.42 L 617.69 113.35 L 617.92 113.29 L 617.99 113.12 L 618.56 112.31 L 619.29 112.13 L 619.37 111.97 L 619.74 111.90 L 619.85 112.55 L 620.13 112.31 L 620.37 112.26 L 620.84 112.08 L 621.30 112.00 L 621.52 111.64 L 621.54 111.64 L 631.34 111.63 L 634.43 110.70 L 634.55 110.26 L 634.71 109.84 L 635.20 109.81 L 635.41 109.67 L 635.56 107.51 L 635.67 106.11 L 635.90 105.97 L 635.93 105.95 L 636.28 105.54 L 636.39 105.32 L 636.45 105.21 L 636.63 104.86 L 636.70 104.84 L 636.79 104.80 L 636.87 104.59 L 636.95 104.36 L 637.05 104.23 L 637.12 104.19 L 637.44 104.10 L 637.59 103.85 L 637.72 103.72 L 637.76 103.04 L 638.12 102.90 L 638.26 102.50 L 647.50 102.60 L 648.18 102.35 L 648.30 102.35 L 648.71 101.53 L 648.90 101.43 L 649.67 100.13 L 650.00 100.00"/>
	</g>
	<g id="poloto_plot1" class="poloto_plot poloto_imgs poloto_line poloto1 poloto_stroke" fill="none" stroke="black">
		<path d=" M 150.00 383.03 L 150.02 383.02 L 150.04 383.01 L 150.05 383.01 L 150.07 383.01 L 150.09 382.47 L 150.20 382.45 L 150.43 382.44 L 150.78 382.24 L 150.96 382.15 L 151.31 382.17 L 151.38 382.13 L 151.42 382.13 L 151.84 382.09 L 152.62 381.99 L 152.86 379.89 L 152.93 379.89 L 153.40 379.84 L 153.94 379.83 L 153.94 379.83 L 153.95 379.83 L 161.26 379.83 L 161.31 379.83 L 161.41 379.83 L 161.45 379.80 L 161.72 379.79 L 161.85 379.79 L 162.16 379.79 L 162.20 379.79 L 162.29 379.78 L 162.39 379.78 L 162.41 379.78 L 162.49 379.75 L 162.57 379.75 L 162.65 379.75 L 162.85 379.64 L 163.03 379.64 L 163.07 379.64 L 163.15 379.64 L 163.73 380.42 L 163.74 380.42 L 163.82 380.41 L 164.15 380.29 L 164.42 380.16 L 164.72 380.10 L 164.78 380.06 L 164.79 380.06 L 164.84 380.06 L 164.96 380.06 L 165.10 380.01 L 165.39 379.97 L 165.41 379.97 L 165.46 379.97 L 165.53 379.95 L 165.70 379.95 L 165.71 379.95 L 165.88 379.94 L 165.95 379.94 L 166.01 379.94 L 166.08 379.94 L 166.97 379.85 L 167.18 379.84 L 167.68 379.80 L 167.79 379.80 L 167.86 379.80 L 167.91 379.80 L 168.25 379.73 L 168.40 379.73 L 168.58 379.66 L 168.66 379.65 L 168.87 379.48 L 168.96 379.42 L 169.08 379.42 L 169.19 379.42 L 169.59 376.96 L 169.60 376.92 L 169.62 376.92 L 169.75 376.68 L 176.53 376.68 L 177.24 375.63 L 177.26 375.63 L 178.09 375.63 L 178.16 375.62 L 178.24 375.51 L 178.44 375.50 L 178.53 375.50 L 178.57 375.50 L 178.67 375.50 L 178.92 375.50 L 178.92 375.27 L 179.02 375.26 L 179.11 375.26 L 179.21 375.23 L 179.34 375.23 L 179.40 375.23 L 179.42 375.23 L 179.53 375.23 L 179.55 375.23 L 179.68 375.23 L 179.70 375.23 L 179.89 374.19 L 179.93 374.19 L 179.99 374.06 L 180.08 374.06 L 180.19 374.06 L 180.24 374.05 L 180.62 374.05 L 180.63 374.05 L 180.70 373.98 L 180.87 373.98 L 181.02 373.39 L 181.07 373.31 L 181.14 373.31 L 181.18 373.31 L 181.26 373.30 L 181.69 368.92 L 181.73 368.95 L 181.88 368.95 L 181.92 368.95 L 181.96 368.95 L 182.03 368.95 L 182.09 368.89 L 182.24 368.89 L 182.35 368.89 L 182.43 368.88 L 182.48 368.88 L 182.87 368.87 L 183.07 368.87 L 183.14 368.76 L 183.31 368.76 L 183.33 368.76 L 183.35 368.76 L 183.46 368.46 L 183.55 368.39 L 183.86 367.35 L 183.92 367.35 L 183.98 367.35 L 184.06 367.36 L 184.07 367.36 L 184.10 367.36 L 184.13 367.36 L 184.18 367.36 L 184.22 367.36 L 184.35 367.34 L 184.44 367.34 L 184.53 367.33 L 184.65 367.33 L 184.79 367.32 L 184.92 366.93 L 185.02 366.80 L 185.22 366.80 L 185.22 366.80 L 185.33 366.80 L 194.81 366.80 L 194.99 366.79 L 195.43 366.72 L 195.53 366.71 L 195.60 366.71 L 195.61 366.71 L 195.78 366.71 L 195.89 366.71 L 195.95 366.71 L 196.02 366.71 L 196.06 366.71 L 196.23 366.71 L 196.57 366.73 L 196.66 366.73 L 196.72 366.73 L 196.80 366.73 L 197.24 366.65 L 197.30 366.61 L 197.33 366.61 L 197.36 366.55 L 197.46 366.55 L 197.53 366.55 L 197.85 366.15 L 198.31 366.15 L 198.47 366.15 L 198.98 366.15 L 199.22 363.47 L 199.30 363.46 L 199.41 363.46 L 199.55 363.46 L 199.78 363.46 L 200.11 363.46 L 200.54 363.46 L 200.60 363.46 L 200.91 363.39 L 201.12 363.28 L 201.18 363.28 L 201.30 363.28 L 201.40 363.27 L 202.52 363.10 L 203.58 363.10 L 213.12 363.10 L 213.18 363.10 L 213.23 363.10 L 213.53 363.10 L 214.42 362.25 L 214.46 362.22 L 214.58 362.14 L 215.02 362.13 L 215.23 361.93 L 215.54 361.93 L 215.62 361.93 L 215.69 361.93 L 216.24 359.58 L 216.31 359.58 L 216.42 359.58 L 216.55 359.58 L 216.60 359.43 L 216.91 359.14 L 217.02 359.14 L 217.07 359.14 L 217.14 358.71 L 217.28 358.28 L 217.33 358.28 L 217.47 358.27 L 217.89 354.76 L 217.93 354.76 L 217.97 354.76 L 218.03 354.76 L 218.13 354.76 L 218.17 354.76 L 218.21 354.76 L 218.41 354.76 L 218.46 354.68 L 218.70 354.67 L 218.84 354.62 L 218.93 354.20 L 219.67 347.22 L 219.76 347.22 L 247.77 347.22 L 247.80 347.22 L 258.51 347.22 L 259.09 347.11 L 259.21 347.11 L 259.37 347.11 L 259.42 347.11 L 259.48 347.11 L 264.12 347.06 L 264.74 346.99 L 264.96 346.99 L 265.09 346.97 L 267.98 346.91 L 268.00 346.82 L 268.18 346.82 L 269.04 345.87 L 269.09 345.87 L 269.20 345.87 L 269.50 345.87 L 269.54 345.87 L 269.66 345.87 L 269.79 345.87 L 269.82 345.87 L 278.81 345.85 L 278.88 345.69 L 279.24 345.69 L 279.24 344.55 L 279.31 344.55 L 279.38 344.55 L 279.48 344.44 L 279.63 344.44 L 279.76 344.39 L 279.88 344.39 L 279.92 344.39 L 280.11 344.38 L 280.73 342.44 L 280.98 342.44 L 281.02 342.43 L 281.08 342.43 L 281.11 342.43 L 281.19 342.40 L 281.45 342.16 L 281.49 342.12 L 281.64 340.38 L 281.70 340.38 L 281.72 340.38 L 281.78 340.35 L 281.82 340.35 L 281.85 340.35 L 282.05 339.40 L 282.14 339.39 L 282.25 339.37 L 282.32 336.42 L 282.35 336.42 L 282.55 334.76 L 282.61 334.76 L 282.64 334.76 L 282.69 334.76 L 282.73 334.76 L 282.75 334.76 L 282.76 334.76 L 282.86 331.69 L 282.90 331.69 L 282.99 331.68 L 283.07 331.68 L 283.27 331.62 L 283.52 331.53 L 283.52 331.53 L 283.59 331.52 L 283.82 331.47 L 283.93 331.47 L 284.04 331.47 L 284.16 330.14 L 284.24 330.14 L 284.55 330.14 L 284.58 330.13 L 284.62 330.13 L 284.65 330.13 L 284.86 328.25 L 284.89 328.25 L 285.04 328.23 L 298.89 328.23 L 299.68 328.22 L 299.70 328.22 L 299.86 328.22 L 299.87 328.22 L 299.97 328.22 L 300.05 328.22 L 300.11 328.13 L 300.21 328.13 L 300.24 328.13 L 300.27 328.13 L 300.42 327.96 L 300.72 327.85 L 300.91 327.74 L 301.12 327.20 L 301.13 327.20 L 301.17 327.07 L 301.20 327.05 L 301.61 326.73 L 301.62 326.73 L 301.68 326.68 L 301.86 326.68 L 301.97 326.65 L 301.99 325.86 L 302.00 325.86 L 302.05 326.64 L 302.08 326.59 L 302.10 326.58 L 302.20 325.53 L 302.21 325.53 L 302.43 325.49 L 303.02 325.49 L 303.16 325.49 L 303.20 325.49 L 303.23 325.49 L 303.26 325.49 L 303.35 325.42 L 312.81 324.55 L 312.83 324.55 L 312.90 324.54 L 312.93 324.35 L 312.98 315.04 L 313.09 311.57 L 313.10 311.57 L 313.27 311.51 L 313.31 311.51 L 313.34 311.49 L 313.50 311.49 L 313.90 310.65 L 313.92 310.65 L 314.02 310.60 L 314.06 310.60 L 314.08 310.53 L 314.42 310.02 L 314.43 310.02 L 314.95 309.92 L 315.01 309.88 L 315.20 309.89 L 315.41 308.75 L 315.47 308.63 L 315.50 308.53 L 315.60 308.10 L 315.87 307.99 L 315.92 307.90 L 316.03 307.90 L 316.16 307.90 L 316.56 307.90 L 316.61 307.90 L 316.70 307.90 L 316.70 307.90 L 316.83 307.91 L 317.13 307.91 L 317.44 307.79 L 317.49 307.79 L 317.56 307.78 L 317.64 307.78 L 317.88 307.78 L 318.28 307.78 L 318.41 307.68 L 318.63 304.67 L 319.50 307.51 L 319.69 307.49 L 319.83 307.49 L 320.05 307.49 L 320.12 307.45 L 320.33 307.44 L 320.68 307.26 L 320.72 307.26 L 320.79 307.26 L 320.83 307.26 L 320.86 307.26 L 321.13 307.10 L 327.40 307.10 L 327.46 307.10 L 327.85 307.09 L 327.89 307.09 L 327.97 307.06 L 328.05 306.85 L 328.06 306.85 L 328.27 306.83 L 328.32 306.83 L 329.61 306.65 L 329.76 306.65 L 329.87 306.65 L 329.90 306.65 L 330.29 306.53 L 330.43 306.53 L 330.45 306.53 L 330.67 306.53 L 330.90 305.81 L 330.93 305.81 L 331.13 305.69 L 331.21 305.69 L 331.28 305.69 L 331.44 305.69 L 331.79 305.68 L 331.86 305.67 L 331.92 305.60 L 332.06 305.48 L 332.41 305.37 L 332.72 302.53 L 332.78 302.44 L 333.09 302.30 L 333.15 302.27 L 333.20 302.17 L 333.23 301.97 L 333.34 301.12 L 333.36 301.15 L 333.41 301.14 L 333.59 301.13 L 333.87 301.02 L 334.03 300.97 L 334.23 300.96 L 334.32 300.95 L 334.51 300.94 L 334.83 300.94 L 335.14 300.93 L 335.38 300.93 L 335.44 300.92 L 335.50 300.92 L 335.50 300.92 L 335.69 300.92 L 335.74 300.91 L 335.81 300.80 L 336.33 300.79 L 336.34 300.79 L 336.48 300.78 L 337.08 300.77 L 337.48 300.63 L 337.77 300.51 L 337.78 300.51 L 337.80 300.51 L 346.58 300.51 L 346.61 300.51 L 346.71 300.51 L 346.76 300.51 L 346.79 300.49 L 346.80 300.49 L 347.17 300.49 L 347.26 300.48 L 347.37 300.46 L 347.56 300.44 L 347.68 300.44 L 347.83 300.38 L 347.91 300.38 L 347.95 300.38 L 348.00 300.38 L 348.11 300.12 L 348.12 300.12 L 348.16 300.12 L 348.25 300.12 L 348.31 300.12 L 348.39 300.18 L 348.50 300.18 L 348.72 300.17 L 348.81 300.17 L 348.90 300.17 L 349.43 299.34 L 349.90 299.11 L 350.45 298.52 L 350.59 298.52 L 350.75 298.52 L 350.92 298.52 L 354.15 298.44 L 354.42 298.44 L 385.02 298.33 L 481.39 298.18 L 481.71 298.13 L 481.93 298.12 L 482.15 298.12 L 482.48 297.74 L 482.60 297.74 L 482.68 297.74 L 482.84 296.34 L 483.06 296.61 L 483.24 296.59 L 483.28 296.59 L 483.43 296.58 L 483.46 296.58 L 483.62 296.57 L 483.76 296.51 L 484.20 295.63 L 484.22 295.63 L 484.34 295.55 L 484.76 292.69 L 484.77 292.69 L 484.85 292.68 L 484.95 292.64 L 485.40 291.31 L 485.41 291.31 L 485.50 291.31 L 485.61 291.28 L 485.77 290.79 L 485.78 290.79 L 485.86 290.78 L 485.87 290.78 L 485.91 290.52 L 486.10 288.62 L 486.12 288.62 L 486.19 288.62 L 486.39 288.46 L 486.44 288.46 L 486.60 288.15 L 486.86 288.15 L 486.90 288.15 L 486.94 288.15 L 486.99 288.15 L 487.12 288.14 L 487.26 287.29 L 487.28 287.29 L 487.36 287.29 L 487.45 286.64 L 487.47 286.64 L 487.55 285.96 L 487.59 285.91 L 487.75 285.24 L 487.78 285.24 L 487.86 285.24 L 487.98 285.23 L 488.67 285.23 L 489.01 285.22 L 496.54 285.22 L 496.62 285.22 L 496.69 285.22 L 496.82 285.22 L 497.10 285.04 L 497.12 285.04 L 497.18 284.99 L 497.36 284.04 L 497.38 284.04 L 499.02 284.06 L 499.12 283.87 L 499.95 283.87 L 500.04 283.87 L 500.14 283.80 L 501.13 283.02 L 501.56 282.87 L 501.67 282.82 L 502.02 281.34 L 502.25 281.34 L 502.62 281.22 L 503.28 281.22 L 513.35 281.21 L 513.96 281.13 L 513.98 281.15 L 514.83 281.15 L 514.87 281.15 L 515.16 281.15 L 515.51 281.11 L 515.51 281.11 L 515.55 281.11 L 516.00 280.25 L 517.03 280.23 L 517.10 280.23 L 517.20 280.22 L 517.36 280.19 L 517.40 280.16 L 517.47 280.16 L 517.95 280.12 L 518.33 280.12 L 518.54 280.12 L 518.57 280.12 L 519.00 280.10 L 519.33 280.00 L 519.35 280.00 L 519.39 280.00 L 519.43 280.00 L 530.37 279.80 L 530.39 279.80 L 530.42 279.80 L 530.63 279.80 L 530.80 279.80 L 531.76 278.95 L 532.00 278.90 L 532.69 278.83 L 533.29 278.79 L 533.73 278.79 L 533.86 278.79 L 534.41 277.50 L 534.61 277.46 L 534.69 277.42 L 536.30 276.51 L 536.32 276.51 L 536.41 276.50 L 536.72 276.49 L 536.72 276.49 L 536.74 276.49 L 536.79 276.46 L 536.93 276.43 L 537.11 276.33 L 538.79 274.83 L 539.00 274.76 L 539.15 274.76 L 539.18 274.76 L 539.21 274.76 L 546.66 274.76 L 546.90 274.75 L 547.04 274.75 L 547.09 274.75 L 547.79 274.75 L 547.94 274.75 L 548.07 274.75 L 548.15 274.72 L 548.39 272.76 L 548.42 272.74 L 548.74 272.75 L 548.81 272.74 L 549.08 271.98 L 549.13 271.94 L 549.35 271.44 L 549.52 271.44 L 549.64 271.40 L 549.92 270.95 L 549.95 270.94 L 550.31 269.49 L 550.35 269.49 L 550.40 269.48 L 550.48 269.48 L 550.51 269.48 L 550.93 268.02 L 551.53 267.89 L 551.83 267.89 L 552.82 267.85 L 552.84 267.85 L 552.99 267.85 L 553.06 267.85 L 553.17 267.85 L 553.29 267.85 L 553.43 267.83 L 553.72 267.81 L 554.00 267.81 L 554.88 267.75 L 554.92 267.75 L 555.81 267.71 L 556.18 267.67 L 563.72 267.69 L 564.10 267.61 L 564.28 267.54 L 564.37 267.54 L 564.39 267.54 L 564.58 267.53 L 564.67 267.53 L 564.89 267.53 L 565.02 267.52 L 565.52 267.39 L 565.77 267.13 L 566.19 267.11 L 566.31 266.93 L 566.46 266.86 L 566.64 266.77 L 567.29 266.86 L 567.36 266.86 L 568.30 266.58 L 568.45 266.58 L 568.64 266.58 L 569.10 266.56 L 569.32 266.69 L 569.43 266.69 L 569.52 266.69 L 569.65 266.69 L 570.05 266.06 L 570.48 266.04 L 570.85 266.04 L 570.90 266.04 L 570.94 266.04 L 598.19 266.04 L 598.37 266.00 L 614.05 265.78 L 614.13 265.78 L 614.26 265.73 L 614.28 265.73 L 614.32 265.73 L 614.88 263.30 L 614.94 263.30 L 615.63 263.30 L 616.34 263.20 L 616.58 262.95 L 617.02 262.64 L 617.60 262.56 L 617.62 262.56 L 617.69 262.51 L 617.92 262.51 L 617.99 262.46 L 618.56 261.81 L 619.29 261.70 L 619.37 261.70 L 619.74 261.70 L 619.85 261.70 L 620.13 261.54 L 620.37 261.51 L 620.84 261.38 L 621.30 261.30 L 621.52 261.30 L 621.54 261.30 L 631.34 261.30 L 634.43 261.26 L 634.55 261.23 L 634.71 260.94 L 635.20 260.96 L 635.41 260.96 L 635.56 260.96 L 635.67 260.83 L 635.90 260.74 L 635.93 260.74 L 636.28 260.50 L 636.39 260.34 L 636.45 260.29 L 636.63 260.18 L 636.70 260.18 L 636.79 260.16 L 636.87 260.02 L 636.95 259.87 L 637.05 259.83 L 637.12 259.83 L 637.44 259.77 L 637.59 259.66 L 637.72 259.56 L 637.76 259.56 L 638.12 259.56 L 638.26 259.56 L 647.50 259.59 L 648.18 259.57 L 648.30 259.57 L 648.71 259.16 L 648.90 259.10 L 649.67 259.06 L 650.00 259.06"/>
	</g>
	<g id="poloto_plot2" class="poloto_plot poloto_imgs poloto_line poloto2 poloto_stroke" fill="none" stroke="black">
		<path d=" M 150.00 392.39 L 150.02 392.38 L 150.04 392.38 L 150.05 392.38 L 150.07 392.38 L 150.09 390.43 L 150.20 390.17 L 150.43 390.16 L 150.78 390.15 L 150.96 388.98 L 151.31 388.88 L 151.38 388.85 L 151.42 388.82 L 151.84 388.29 L 152.62 387.89 L 152.86 387.81 L 152.93 387.81 L 153.40 387.78 L 153.94 387.78 L 153.94 387.78 L 153.95 387.78 L 161.26 387.78 L 161.31 387.78 L 161.41 387.76 L 161.45 387.76 L 161.72 387.64 L 161.85 387.61 L 162.16 387.42 L 162.20 387.34 L 162.29 387.16 L 162.39 387.14 L 162.41 387.14 L 162.49 387.11 L 162.57 387.11 L 162.65 387.11 L 162.85 386.91 L 163.03 386.73 L 163.07 386.73 L 163.15 386.63 L 163.73 386.39 L 163.74 386.39 L 163.82 386.32 L 164.15 386.06 L 164.42 385.74 L 164.72 385.61 L 164.78 385.61 L 164.79 385.62 L 164.84 385.44 L 164.96 385.44 L 165.10 385.42 L 165.39 385.28 L 165.41 385.06 L 165.46 385.06 L 165.53 384.95 L 165.70 384.95 L 165.71 384.95 L 165.88 384.60 L 165.95 384.58 L 166.01 384.55 L 166.08 384.39 L 166.97 384.30 L 167.18 384.26 L 167.68 384.03 L 167.79 384.03 L 167.86 384.02 L 167.91 383.84 L 168.25 382.89 L 168.40 382.87 L 168.58 382.59 L 168.66 382.56 L 168.87 382.43 L 168.96 382.39 L 169.08 382.18 L 169.19 382.01 L 169.59 382.01 L 169.60 381.99 L 169.62 381.85 L 169.75 380.93 L 176.53 380.84 L 177.24 380.56 L 177.26 380.52 L 178.09 380.30 L 178.16 380.29 L 178.24 380.12 L 178.44 380.01 L 178.53 379.80 L 178.57 379.62 L 178.67 379.28 L 178.92 379.27 L 178.92 379.27 L 179.02 379.03 L 179.11 379.03 L 179.21 378.78 L 179.34 378.58 L 179.40 378.47 L 179.42 378.47 L 179.53 378.24 L 179.55 378.23 L 179.68 378.02 L 179.70 378.02 L 179.89 377.94 L 179.93 377.94 L 179.99 377.87 L 180.08 377.85 L 180.19 377.85 L 180.24 377.83 L 180.62 377.63 L 180.63 377.64 L 180.70 377.22 L 180.87 377.21 L 181.02 377.08 L 181.07 377.08 L 181.14 377.07 L 181.18 377.04 L 181.26 376.47 L 181.69 375.99 L 181.73 375.73 L 181.88 375.71 L 181.92 375.64 L 181.96 375.63 L 182.03 375.51 L 182.09 375.06 L 182.24 374.99 L 182.35 374.98 L 182.43 374.75 L 182.48 374.75 L 182.87 374.58 L 183.07 374.46 L 183.14 374.35 L 183.31 374.35 L 183.33 374.35 L 183.35 374.32 L 183.46 373.51 L 183.55 373.50 L 183.86 373.39 L 183.92 373.06 L 183.98 373.06 L 184.06 372.92 L 184.07 372.84 L 184.10 372.79 L 184.13 372.76 L 184.18 372.75 L 184.22 372.69 L 184.35 371.77 L 184.44 371.68 L 184.53 371.41 L 184.65 371.39 L 184.79 371.30 L 184.92 371.01 L 185.02 370.22 L 185.22 370.16 L 185.22 369.82 L 185.33 369.73 L 194.81 369.74 L 194.99 369.74 L 195.43 369.36 L 195.53 369.36 L 195.60 369.36 L 195.61 369.26 L 195.78 369.10 L 195.89 369.07 L 195.95 368.98 L 196.02 368.91 L 196.06 368.87 L 196.23 368.82 L 196.57 368.90 L 196.66 368.65 L 196.72 368.58 L 196.80 368.57 L 197.24 368.52 L 197.30 368.48 L 197.33 368.48 L 197.36 368.43 L 197.46 368.39 L 197.53 368.30 L 197.85 368.06 L 198.31 367.96 L 198.47 367.91 L 198.98 367.76 L 199.22 367.39 L 199.30 367.33 L 199.41 367.04 L 199.55 366.67 L 199.78 366.57 L 200.11 366.56 L 200.54 366.54 L 200.60 366.41 L 200.91 366.32 L 201.12 366.20 L 201.18 366.10 L 201.30 366.07 L 201.40 365.82 L 202.52 365.70 L 203.58 365.70 L 213.12 365.67 L 213.18 365.53 L 213.23 365.44 L 213.53 365.30 L 214.42 365.05 L 214.46 365.02 L 214.58 364.84 L 215.02 364.78 L 215.23 364.29 L 215.54 364.28 L 215.62 364.26 L 215.69 363.79 L 216.24 363.35 L 216.31 363.34 L 216.42 363.32 L 216.55 363.28 L 216.60 363.11 L 216.91 362.38 L 217.02 362.19 L 217.07 362.17 L 217.14 362.10 L 217.28 361.81 L 217.33 361.07 L 217.47 360.77 L 217.89 360.59 L 217.93 360.22 L 217.97 360.22 L 218.03 360.15 L 218.13 360.05 L 218.17 360.03 L 218.21 359.99 L 218.41 359.13 L 218.46 358.62 L 218.70 358.52 L 218.84 357.67 L 218.93 357.50 L 219.67 356.15 L 219.76 356.13 L 247.77 355.73 L 247.80 355.73 L 258.51 355.62 L 259.09 355.48 L 259.21 355.48 L 259.37 355.41 L 259.42 355.30 L 259.48 355.27 L 264.12 355.26 L 264.74 353.71 L 264.96 353.58 L 265.09 353.04 L 267.98 352.97 L 268.00 352.92 L 268.18 352.91 L 269.04 352.82 L 269.09 352.64 L 269.20 352.58 L 269.50 352.50 L 269.54 352.48 L 269.66 352.18 L 269.79 352.08 L 269.82 351.85 L 278.81 351.56 L 278.88 350.86 L 279.24 350.67 L 279.24 350.40 L 279.31 350.19 L 279.38 349.87 L 279.48 349.01 L 279.63 348.54 L 279.76 347.94 L 279.88 347.94 L 279.92 347.47 L 280.11 347.44 L 280.73 347.00 L 280.98 346.79 L 281.02 346.67 L 281.08 346.66 L 281.11 346.51 L 281.19 345.98 L 281.45 345.93 L 281.49 345.92 L 281.64 345.58 L 281.70 345.58 L 281.72 345.38 L 281.78 345.26 L 281.82 345.26 L 281.85 344.98 L 282.05 344.81 L 282.14 344.54 L 282.25 344.53 L 282.32 344.38 L 282.35 344.17 L 282.55 344.06 L 282.61 343.94 L 282.64 343.94 L 282.69 343.94 L 282.73 343.72 L 282.75 343.73 L 282.76 343.72 L 282.86 343.65 L 282.90 343.41 L 282.99 343.41 L 283.07 343.36 L 283.27 343.34 L 283.52 343.31 L 283.52 343.31 L 283.59 343.30 L 283.82 343.30 L 283.93 343.30 L 284.04 343.30 L 284.16 343.26 L 284.24 342.97 L 284.55 342.97 L 284.58 342.81 L 284.62 342.80 L 284.65 342.61 L 284.86 342.55 L 284.89 342.50 L 285.04 342.50 L 298.89 342.45 L 299.68 342.37 L 299.70 342.37 L 299.86 342.37 L 299.87 342.37 L 299.97 342.04 L 300.05 342.02 L 300.11 341.93 L 300.21 341.88 L 300.24 341.85 L 300.27 341.83 L 300.42 341.80 L 300.72 341.74 L 300.91 341.29 L 301.12 341.26 L 301.13 341.23 L 301.17 340.86 L 301.20 340.86 L 301.61 340.86 L 301.62 340.82 L 301.68 340.47 L 301.86 340.43 L 301.97 340.41 L 301.99 340.41 L 302.00 340.37 L 302.05 340.34 L 302.08 339.99 L 302.10 339.98 L 302.20 339.98 L 302.21 339.95 L 302.43 339.91 L 303.02 339.90 L 303.16 339.87 L 303.20 339.86 L 303.23 339.75 L 303.26 339.75 L 303.35 339.35 L 312.81 339.22 L 312.83 339.11 L 312.90 339.03 L 312.93 339.02 L 312.98 338.68 L 313.09 338.59 L 313.10 338.57 L 313.27 338.57 L 313.31 338.57 L 313.34 338.23 L 313.50 338.19 L 313.90 338.18 L 313.92 338.16 L 314.02 337.97 L 314.06 337.98 L 314.08 337.67 L 314.42 337.67 L 314.43 337.65 L 314.95 337.57 L 315.01 337.20 L 315.20 337.20 L 315.41 337.19 L 315.47 336.92 L 315.50 336.70 L 315.60 336.70 L 315.87 336.65 L 315.92 336.63 L 316.03 336.55 L 316.16 336.55 L 316.56 336.55 L 316.61 336.55 L 316.70 336.53 L 316.70 336.53 L 316.83 336.53 L 317.13 336.50 L 317.44 336.46 L 317.49 336.46 L 317.56 336.42 L 317.64 336.32 L 317.88 336.32 L 318.28 336.20 L 318.41 335.99 L 318.63 335.97 L 319.50 335.74 L 319.69 335.74 L 319.83 335.73 L 320.05 335.73 L 320.12 335.71 L 320.33 335.60 L 320.68 335.58 L 320.72 335.48 L 320.79 335.43 L 320.83 335.44 L 320.86 335.40 L 321.13 335.39 L 327.40 335.38 L 327.46 335.38 L 327.85 335.38 L 327.89 335.37 L 327.97 335.06 L 328.05 335.04 L 328.06 335.04 L 328.27 335.03 L 328.32 335.02 L 329.61 334.56 L 329.76 334.51 L 329.87 334.50 L 329.90 334.49 L 330.29 334.48 L 330.43 334.55 L 330.45 334.55 L 330.67 334.52 L 330.90 334.08 L 330.93 334.07 L 331.13 334.06 L 331.21 334.06 L 331.28 334.06 L 331.44 333.97 L 331.79 333.57 L 331.86 333.57 L 331.92 333.51 L 332.06 333.15 L 332.41 332.75 L 332.72 332.78 L 332.78 332.56 L 333.09 332.56 L 333.15 332.54 L 333.20 332.52 L 333.23 332.31 L 333.34 332.30 L 333.36 332.30 L 333.41 332.30 L 333.59 332.30 L 333.87 332.13 L 334.03 332.11 L 334.23 332.11 L 334.32 332.11 L 334.51 332.11 L 334.83 332.11 L 335.14 332.11 L 335.38 332.11 L 335.44 332.11 L 335.50 332.10 L 335.50 332.03 L 335.69 331.98 L 335.74 331.98 L 335.81 331.96 L 336.33 331.96 L 336.34 331.75 L 336.48 331.75 L 337.08 331.76 L 337.48 331.75 L 337.77 331.71 L 337.78 331.63 L 337.80 331.63 L 346.58 331.49 L 346.61 331.48 L 346.71 331.47 L 346.76 331.35 L 346.79 331.35 L 346.80 331.34 L 347.17 331.30 L 347.26 330.88 L 347.37 330.79 L 347.56 329.96 L 347.68 329.96 L 347.83 329.60 L 347.91 329.64 L 347.95 329.64 L 348.00 329.19 L 348.11 329.11 L 348.12 328.80 L 348.16 328.75 L 348.25 328.72 L 348.31 328.57 L 348.39 330.42 L 348.50 330.39 L 348.72 329.65 L 348.81 329.48 L 348.90 329.32 L 349.43 329.02 L 349.90 328.71 L 350.45 328.28 L 350.59 328.23 L 350.75 328.23 L 350.92 328.19 L 354.15 327.97 L 354.42 327.95 L 385.02 327.37 L 481.39 327.35 L 481.71 327.09 L 481.93 327.05 L 482.15 327.05 L 482.48 326.81 L 482.60 326.54 L 482.68 326.03 L 482.84 325.89 L 483.06 325.94 L 483.24 325.64 L 483.28 325.64 L 483.43 325.55 L 483.46 325.55 L 483.62 325.05 L 483.76 324.29 L 484.20 324.22 L 484.22 324.14 L 484.34 323.16 L 484.76 323.13 L 484.77 323.03 L 484.85 322.97 L 484.95 322.08 L 485.40 322.04 L 485.41 321.91 L 485.50 321.85 L 485.61 321.27 L 485.77 321.25 L 485.78 321.15 L 485.86 320.18 L 485.87 320.16 L 485.91 320.13 L 486.10 320.13 L 486.12 320.03 L 486.19 319.96 L 486.39 319.87 L 486.44 319.86 L 486.60 319.81 L 486.86 319.85 L 486.90 319.80 L 486.94 319.78 L 486.99 319.75 L 487.12 318.75 L 487.26 318.72 L 487.28 318.64 L 487.36 317.61 L 487.45 317.23 L 487.47 317.10 L 487.55 316.60 L 487.59 315.72 L 487.75 315.71 L 487.78 315.66 L 487.86 315.48 L 487.98 315.48 L 488.67 315.45 L 489.01 315.43 L 496.54 315.47 L 496.62 315.27 L 496.69 315.13 L 496.82 314.43 L 497.10 314.42 L 497.12 314.35 L 497.18 313.47 L 497.36 313.46 L 497.38 313.37 L 499.02 313.29 L 499.12 312.97 L 499.95 312.81 L 500.04 312.78 L 500.14 311.81 L 501.13 311.53 L 501.56 311.29 L 501.67 310.56 L 502.02 310.56 L 502.25 310.15 L 502.62 309.52 L 503.28 309.14 L 513.35 309.13 L 513.96 309.12 L 513.98 309.12 L 514.83 308.98 L 514.87 308.90 L 515.16 308.84 L 515.51 308.02 L 515.51 308.02 L 515.55 307.99 L 516.00 307.81 L 517.03 307.27 L 517.10 307.21 L 517.20 307.21 L 517.36 306.98 L 517.40 306.94 L 517.47 306.90 L 517.95 306.90 L 518.33 306.90 L 518.54 306.90 L 518.57 306.86 L 519.00 306.03 L 519.33 305.95 L 519.35 305.89 L 519.39 305.81 L 519.43 305.60 L 530.37 305.45 L 530.39 305.43 L 530.42 305.41 L 530.63 305.31 L 530.80 305.21 L 531.76 304.74 L 532.00 304.64 L 532.69 304.28 L 533.29 304.23 L 533.73 304.08 L 533.86 302.86 L 534.41 302.65 L 534.61 302.59 L 534.69 301.70 L 536.30 300.86 L 536.32 300.86 L 536.41 300.46 L 536.72 300.42 L 536.72 300.42 L 536.74 300.32 L 536.79 300.22 L 536.93 300.13 L 537.11 299.52 L 538.79 299.21 L 539.00 299.07 L 539.15 298.74 L 539.18 298.70 L 539.21 298.49 L 546.66 297.72 L 546.90 297.16 L 547.04 297.14 L 547.09 296.77 L 547.79 296.61 L 547.94 296.21 L 548.07 296.21 L 548.15 295.39 L 548.39 295.20 L 548.42 295.17 L 548.74 295.12 L 548.81 294.45 L 549.08 294.36 L 549.13 293.83 L 549.35 293.77 L 549.52 293.47 L 549.64 292.87 L 549.92 292.75 L 549.95 292.15 L 550.31 293.52 L 550.35 293.52 L 550.40 292.74 L 550.48 292.74 L 550.51 292.68 L 550.93 292.60 L 551.53 292.28 L 551.83 292.44 L 552.82 292.42 L 552.84 292.42 L 552.99 292.40 L 553.06 292.39 L 553.17 292.28 L 553.29 292.18 L 553.43 292.04 L 553.72 291.84 L 554.00 291.83 L 554.88 291.74 L 554.92 291.73 L 555.81 291.62 L 556.18 291.57 L 563.72 291.53 L 564.10 291.49 L 564.28 291.49 L 564.37 291.49 L 564.39 291.49 L 564.58 291.47 L 564.67 291.44 L 564.89 291.30 L 565.02 291.28 L 565.52 291.27 L 565.77 291.20 L 566.19 291.16 L 566.31 291.14 L 566.46 291.07 L 566.64 290.98 L 567.29 290.95 L 567.36 290.93 L 568.30 290.78 L 568.45 290.54 L 568.64 290.45 L 569.10 290.31 L 569.32 290.23 L 569.43 290.57 L 569.52 290.56 L 569.65 290.43 L 570.05 290.11 L 570.48 290.02 L 570.85 289.96 L 570.90 289.92 L 570.94 289.68 L 598.19 289.64 L 598.37 289.57 L 614.05 289.50 L 614.13 289.85 L 614.26 288.47 L 614.28 288.47 L 614.32 288.50 L 614.88 287.97 L 614.94 287.94 L 615.63 288.00 L 616.34 287.94 L 616.58 287.90 L 617.02 287.84 L 617.60 287.70 L 617.62 287.70 L 617.69 287.67 L 617.92 287.63 L 617.99 287.52 L 618.56 287.45 L 619.29 287.40 L 619.37 287.26 L 619.74 287.19 L 619.85 287.80 L 620.13 287.74 L 620.37 287.71 L 620.84 287.69 L 621.30 287.69 L 621.52 287.40 L 621.54 287.40 L 631.34 287.38 L 634.43 286.65 L 634.55 286.29 L 634.71 286.19 L 635.20 286.16 L 635.41 286.03 L 635.56 284.19 L 635.67 283.20 L 635.90 283.16 L 635.93 283.14 L 636.28 283.01 L 636.39 282.96 L 636.45 282.91 L 636.63 282.69 L 636.70 282.67 L 636.79 282.64 L 636.87 282.59 L 636.95 282.53 L 637.05 282.45 L 637.12 282.41 L 637.44 282.38 L 637.59 282.28 L 637.72 282.25 L 637.76 281.65 L 638.12 281.52 L 638.26 281.19 L 647.50 281.26 L 648.18 281.06 L 648.30 281.06 L 648.71 280.70 L 648.90 280.67 L 649.67 279.58 L 650.00 279.47"/>
	</g>
	<g class="poloto_legend poloto_imgs poloto_line poloto0 poloto_stroke"><line x1="680" x2="730" y1="81.25" y2="81.25"/></g>
	<g class="poloto_legend poloto_imgs poloto_line poloto1 poloto_stroke"><line x1="680" x2="730" y1="131.25" y2="131.25"/></g>
	<g class="poloto_legend poloto_imgs poloto_line poloto2 poloto_stroke"><line x1="680" x2="730" y1="181.25" y2="181.25"/></g>
	<text class="poloto_legend poloto_text poloto_line poloto0" x="675" y="100">total</text>
	<text class="poloto_legend poloto_text poloto_line poloto1" x="675" y="150">code</text>
	<text class="poloto_legend poloto_text poloto_line poloto2" x="675" y="200">docs</text>
	<text class="poloto_text poloto_name poloto_title" x="400.00" y="37.50">Workspace lines over time</text>
	<text class="poloto_text poloto_name poloto_x" x="400.00" y="640">date (JST)</text>
	<text class="poloto_text poloto_name poloto_y" x="37.50" y="250.00" transform="rotate(-90,37.50,250.00)">lines</text>
	<text class="poloto_text poloto_ticks poloto_y">
		<tspan x="135.00" y="400.00">0</tspan>
		<tspan x="135.00" y="327.62">50K</tspan>
		<tspan x="135.00" y="255.24">100K</tspan>
		<tspan x="135.00" y="182.87">150K</tspan>
		<tspan x="135.00" y="110.49">200K</tspan>
	</text>
	<g class="poloto_imgs poloto_ticks poloto_y" stroke="black">
		<line x1="150.00" x2="144.00" y1="400.00" y2="400.00"/>
		<line x1="150.00" x2="144.00" y1="327.62" y2="327.62"/>
		<line x1="150.00" x2="144.00" y1="255.24" y2="255.24"/>
		<line x1="150.00" x2="144.00" y1="182.87" y2="182.87"/>
		<line x1="150.00" x2="144.00" y1="110.49" y2="110.49"/>
	</g>
	<g class="poloto_text poloto_ticks poloto_x">
		<text x="212.99" y="430.00" text-anchor="end" transform="rotate(-90 212.99 430.00)">2026-04-24 12:06</text>
		<text x="309.96" y="430.00" text-anchor="end" transform="rotate(-90 309.96 430.00)">2026-04-30 07:00</text>
		<text x="406.93" y="430.00" text-anchor="end" transform="rotate(-90 406.93 430.00)">2026-05-06 01:53</text>
		<text x="503.90" y="430.00" text-anchor="end" transform="rotate(-90 503.90 430.00)">2026-05-11 20:46</text>
		<text x="600.87" y="430.00" text-anchor="end" transform="rotate(-90 600.87 430.00)">2026-05-17 15:40</text>
	</g>
	<g class="poloto_imgs poloto_ticks poloto_x" stroke="black">
		<line x1="212.99" x2="212.99" y1="400.00" y2="405.00"/>
		<line x1="309.96" x2="309.96" y1="400.00" y2="405.00"/>
		<line x1="406.93" x2="406.93" y1="400.00" y2="405.00"/>
		<line x1="503.90" x2="503.90" y1="400.00" y2="405.00"/>
		<line x1="600.87" x2="600.87" y1="400.00" y2="405.00"/>
	</g>
	<path class="poloto_imgs poloto_ticks poloto_x" stroke="black" style="stroke-dasharray:9.6968042048446;stroke-dashoffset:-62.99490064464044;" d=" M 150.00 400.00 L 650.00 400.00"/>
	<path class="poloto_imgs poloto_ticks poloto_y" stroke="black" style="stroke-dasharray:7.237810321117517;stroke-dashoffset:-0;" d=" M 150.00 400.00 L 150.00 100.00"/>
</svg>

