<svg class="poloto" width="800" height="680" viewBox="0 0 800 680" xmlns="http://www.w3.org/2000/svg">
	<style>
.poloto{
  stroke-linecap:round;
  stroke-linejoin:round;
  font-family:Roboto,sans-serif;
  font-size:16px;
}
.poloto_background{fill:AliceBlue;}
.poloto_scatter{stroke-width:7}
.poloto_line{stroke-width:2}
.poloto_text{fill: black;}
.poloto_name{font-size:24px;dominant-baseline:auto;text-anchor:middle;}
.poloto_where{dominant-baseline:middle;text-anchor:start}
.poloto_text.poloto_legend{font-size:20px;dominant-baseline:middle;text-anchor:start;}
.poloto_text.poloto_ticks.poloto_y{dominant-baseline:middle;text-anchor:end}
.poloto_text.poloto_ticks.poloto_x{dominant-baseline:auto;text-anchor:middle}
.poloto_imgs.poloto_ticks{stroke: black;stroke-width:3;fill:none;stroke-dasharray:none}
.poloto_grid{stroke:gray;stroke-width:0.5}

.poloto0.poloto_stroke{stroke:blue;}
.poloto1.poloto_stroke{stroke:red;}
.poloto2.poloto_stroke{stroke:green;}
.poloto3.poloto_stroke{stroke:gold;}
.poloto4.poloto_stroke{stroke:aqua;}
.poloto5.poloto_stroke{stroke:lime;}
.poloto6.poloto_stroke{stroke:orange;}
.poloto7.poloto_stroke{stroke:chocolate;}
.poloto0.poloto_fill{fill:blue;}
.poloto1.poloto_fill{fill:red;}
.poloto2.poloto_fill{fill:green;}
.poloto3.poloto_fill{fill:gold;}
.poloto4.poloto_fill{fill:aqua;}
.poloto5.poloto_fill{fill:lime;}
.poloto6.poloto_fill{fill:orange;}
.poloto7.poloto_fill{fill:chocolate;}
	</style>
	<circle r="1e5" class="poloto_background" fill="white"/>
	<g id="poloto_plot0" class="poloto_plot poloto_imgs poloto_line poloto0 poloto_stroke" fill="none" stroke="black">
		<path d=" M 150.00 357.68 L 150.04 357.64 L 150.06 357.62 L 150.07 357.62 L 150.10 357.62 L 150.14 353.03 L 150.30 352.47 L 150.65 352.45 L 151.18 352.07 L 151.44 349.73 L 151.98 349.59 L 152.07 349.47 L 152.14 349.42 L 152.77 348.28 L 153.94 347.35 L 154.31 343.74 L 154.40 343.75 L 155.11 343.61 L 155.92 343.59 L 155.93 343.59 L 155.93 343.59 L 166.93 343.59 L 167.01 343.59 L 167.15 343.56 L 167.21 343.51 L 167.62 343.30 L 167.81 343.25 L 168.28 342.92 L 168.35 342.77 L 168.48 342.44 L 168.62 342.39 L 168.66 342.39 L 168.77 342.30 L 168.90 342.30 L 169.01 342.31 L 169.32 341.77 L 169.59 341.44 L 169.64 341.45 L 169.77 341.25 L 170.65 342.08 L 170.66 342.07 L 170.77 341.94 L 171.27 341.32 L 171.67 340.58 L 172.12 340.26 L 172.22 340.20 L 172.23 340.20 L 172.32 339.92 L 172.49 339.92 L 172.71 339.82 L 173.14 339.54 L 173.16 339.11 L 173.24 339.11 L 173.35 338.88 L 173.60 338.88 L 173.62 338.88 L 173.88 338.27 L 173.98 338.23 L 174.07 338.19 L 174.17 337.94 L 175.51 337.60 L 175.83 337.54 L 176.58 337.10 L 176.74 337.10 L 176.86 337.08 L 176.92 336.77 L 177.43 334.95 L 177.66 334.91 L 177.93 334.30 L 178.06 334.24 L 178.37 333.74 L 178.50 333.56 L 178.68 333.23 L 178.85 332.94 L 179.45 328.74 L 179.46 328.64 L 179.49 328.39 L 179.69 326.37 L 189.89 326.22 L 190.94 323.92 L 190.98 323.86 L 192.23 323.50 L 192.34 323.49 L 192.45 323.04 L 192.76 322.81 L 192.90 322.42 L 192.95 322.07 L 193.10 321.47 L 193.47 321.46 L 193.48 321.05 L 193.62 320.60 L 193.76 320.59 L 193.91 320.09 L 194.11 319.73 L 194.19 319.54 L 194.22 319.54 L 194.40 319.14 L 194.42 319.13 L 194.62 318.74 L 194.65 318.73 L 194.94 316.83 L 194.99 316.83 L 195.09 316.51 L 195.22 316.50 L 195.38 316.50 L 195.46 316.46 L 196.03 316.10 L 196.04 316.11 L 196.15 315.27 L 196.41 315.25 L 196.63 313.98 L 196.70 313.87 L 196.81 313.86 L 196.87 313.81 L 197.00 312.84 L 197.64 304.59 L 197.71 304.19 L 197.92 304.16 L 197.99 304.06 L 198.04 304.03 L 198.14 303.81 L 198.24 302.88 L 198.47 302.69 L 198.63 302.66 L 198.76 302.25 L 198.83 302.24 L 199.41 301.94 L 199.72 301.70 L 199.81 301.33 L 200.08 301.32 L 200.11 301.32 L 200.13 301.28 L 200.30 299.30 L 200.44 299.18 L 200.91 297.18 L 200.99 296.60 L 201.08 296.59 L 201.20 296.38 L 201.21 296.22 L 201.27 296.12 L 201.31 296.07 L 201.38 296.06 L 201.44 295.96 L 201.63 294.33 L 201.77 294.09 L 201.90 293.61 L 202.09 293.57 L 202.29 293.42 L 202.50 292.27 L 202.64 290.66 L 202.94 290.57 L 202.94 289.97 L 203.12 289.78 L 217.36 289.78 L 217.63 289.76 L 218.30 288.91 L 218.44 288.89 L 218.55 288.89 L 218.57 288.68 L 218.82 288.42 L 218.98 288.37 L 219.08 288.22 L 219.18 288.11 L 219.24 288.05 L 219.50 287.97 L 220.01 287.87 L 220.14 287.43 L 220.23 287.32 L 220.36 287.31 L 221.02 287.09 L 221.11 286.96 L 221.15 286.96 L 221.20 286.80 L 221.34 286.72 L 221.45 286.56 L 221.93 285.49 L 222.62 285.32 L 222.87 285.25 L 223.63 284.98 L 223.99 279.80 L 224.12 279.69 L 224.27 279.18 L 224.50 278.50 L 224.84 278.31 L 225.33 278.29 L 225.97 278.27 L 226.07 278.04 L 226.54 277.80 L 226.84 277.43 L 226.94 277.28 L 227.12 277.22 L 227.27 276.76 L 228.95 276.25 L 230.55 276.25 L 244.88 276.20 L 244.98 275.98 L 245.06 275.83 L 245.51 275.61 L 246.85 273.82 L 246.90 273.70 L 247.09 273.24 L 247.75 273.13 L 248.06 271.92 L 248.53 271.91 L 248.64 271.89 L 248.75 271.06 L 249.58 266.35 L 249.68 266.34 L 249.85 266.30 L 250.04 266.24 L 250.12 265.73 L 250.59 263.95 L 250.75 263.62 L 250.83 263.60 L 250.94 262.78 L 251.14 261.62 L 251.23 260.39 L 251.44 259.85 L 252.06 253.72 L 252.12 253.10 L 252.18 253.10 L 252.27 252.99 L 252.42 252.83 L 252.49 252.78 L 252.54 252.71 L 252.84 251.24 L 252.91 250.21 L 253.28 250.00 L 253.49 248.46 L 253.63 247.49 L 254.74 233.20 L 254.87 233.16 L 296.98 232.48 L 297.02 232.48 L 313.12 232.28 L 314.00 231.89 L 314.18 231.89 L 314.41 231.78 L 314.49 231.60 L 314.59 231.55 L 321.56 231.45 L 322.49 228.73 L 322.83 228.49 L 323.01 227.49 L 327.36 227.29 L 327.39 227.01 L 327.66 226.99 L 328.96 225.27 L 329.03 224.96 L 329.19 224.86 L 329.65 224.74 L 329.71 224.69 L 329.89 224.18 L 330.09 224.04 L 330.12 223.66 L 343.65 223.13 L 343.75 221.67 L 344.28 221.34 L 344.30 218.89 L 344.39 218.53 L 344.50 217.93 L 344.65 216.24 L 344.88 215.34 L 345.07 214.30 L 345.25 214.29 L 345.32 213.48 L 345.59 213.41 L 346.53 209.47 L 346.91 209.05 L 346.97 208.80 L 347.05 208.79 L 347.10 208.52 L 347.23 207.55 L 347.61 207.08 L 347.66 207.02 L 347.90 203.55 L 347.99 203.54 L 348.02 203.17 L 348.11 202.88 L 348.17 202.88 L 348.22 202.36 L 348.51 200.48 L 348.64 199.94 L 348.81 199.88 L 348.92 194.85 L 348.97 194.45 L 349.27 191.58 L 349.35 191.36 L 349.41 191.35 L 349.48 191.34 L 349.53 190.94 L 349.57 190.95 L 349.59 190.94 L 349.74 185.87 L 349.79 185.43 L 349.93 185.41 L 350.04 185.32 L 350.34 185.18 L 350.72 184.98 L 350.73 184.98 L 350.83 184.92 L 351.18 184.83 L 351.34 184.83 L 351.51 184.83 L 351.68 182.62 L 351.80 182.09 L 352.28 182.08 L 352.32 181.73 L 352.38 181.72 L 352.42 181.35 L 352.73 178.15 L 352.78 178.07 L 353.01 178.05 L 373.83 177.96 L 375.01 177.80 L 375.05 177.80 L 375.28 177.79 L 375.30 177.80 L 375.45 177.16 L 375.57 177.13 L 375.67 176.82 L 375.81 176.74 L 375.86 176.70 L 375.91 176.67 L 376.13 176.32 L 376.58 176.00 L 376.87 174.97 L 377.19 173.99 L 377.20 173.94 L 377.25 173.03 L 377.30 173.00 L 377.91 172.45 L 377.93 172.39 L 378.02 171.66 L 378.29 171.59 L 378.46 171.52 L 378.50 170.22 L 378.51 170.16 L 378.58 171.39 L 378.63 170.63 L 378.65 170.60 L 378.81 168.87 L 378.82 168.82 L 379.14 168.68 L 380.03 168.65 L 380.24 168.59 L 380.31 168.58 L 380.35 168.35 L 380.40 168.35 L 380.53 167.49 L 394.76 165.84 L 394.78 165.61 L 394.90 165.46 L 394.93 165.14 L 395.01 150.68 L 395.17 144.76 L 395.19 144.72 L 395.45 144.61 L 395.51 144.61 L 395.56 143.93 L 395.79 143.86 L 396.40 142.46 L 396.42 142.43 L 396.57 142.00 L 396.63 142.01 L 396.66 141.31 L 397.18 140.49 L 397.19 140.46 L 397.97 140.14 L 398.07 139.40 L 398.34 139.41 L 398.67 137.54 L 398.75 136.81 L 398.80 136.22 L 398.95 135.50 L 399.35 135.24 L 399.42 135.06 L 399.60 134.90 L 399.79 134.90 L 400.39 134.90 L 400.46 134.90 L 400.60 134.87 L 400.61 134.86 L 400.80 134.88 L 401.25 134.85 L 401.72 134.58 L 401.79 134.57 L 401.89 134.47 L 402.02 134.27 L 402.38 134.27 L 402.98 134.01 L 403.18 133.43 L 403.51 128.45 L 404.81 132.66 L 405.10 132.64 L 405.31 132.62 L 405.64 132.61 L 405.74 132.53 L 406.07 132.30 L 406.58 131.95 L 406.65 131.72 L 406.75 131.63 L 406.81 131.65 L 406.86 131.58 L 407.26 131.27 L 416.69 131.26 L 416.78 131.27 L 417.36 131.25 L 417.42 131.23 L 417.55 130.59 L 417.66 130.23 L 417.68 130.23 L 418.00 130.18 L 418.08 130.15 L 420.01 129.21 L 420.24 129.13 L 420.40 129.11 L 420.44 129.11 L 421.04 128.88 L 421.24 128.99 L 421.28 128.99 L 421.60 128.92 L 421.95 126.95 L 422.00 126.94 L 422.29 126.72 L 422.41 126.72 L 422.52 126.72 L 422.77 126.50 L 423.29 125.70 L 423.39 125.67 L 423.49 125.45 L 423.70 124.51 L 424.22 123.53 L 424.68 118.95 L 424.77 118.39 L 425.25 118.17 L 425.33 118.05 L 425.40 117.83 L 425.45 117.09 L 425.62 115.77 L 425.65 115.83 L 425.73 115.80 L 426.00 115.80 L 426.41 115.31 L 426.66 115.22 L 426.95 115.20 L 427.09 115.18 L 427.37 115.17 L 427.85 115.17 L 428.32 115.15 L 428.69 115.15 L 428.77 115.13 L 428.86 115.12 L 428.87 114.96 L 429.15 114.87 L 429.23 114.85 L 429.34 114.65 L 430.11 114.62 L 430.12 114.22 L 430.34 114.21 L 431.24 114.21 L 431.84 113.97 L 432.27 113.68 L 432.29 113.52 L 432.32 113.52 L 445.53 113.24 L 445.57 113.24 L 445.73 113.22 L 445.80 112.99 L 445.84 112.97 L 445.85 112.95 L 446.42 112.89 L 446.54 112.06 L 446.71 111.87 L 446.99 110.24 L 447.17 110.22 L 447.40 109.53 L 447.52 109.61 L 447.58 109.61 L 447.65 108.81 L 447.82 108.27 L 447.84 107.69 L 447.90 107.61 L 448.04 107.56 L 448.13 107.29 L 448.25 110.42 L 448.41 110.36 L 448.73 109.11 L 448.88 108.81 L 449.00 108.55 L 449.81 106.75 L 450.51 105.89 L 451.34 104.23 L 451.56 104.16 L 451.79 104.16 L 452.05 104.08 L 456.91 103.61 L 457.31 103.57 L 503.31 102.31 L 648.18 102.01 L 648.66 101.51 L 648.99 101.44 L 649.32 101.44 L 649.83 100.47 L 650.00 100.00"/>
	</g>
	<g id="poloto_plot1" class="poloto_plot poloto_imgs poloto_line poloto1 poloto_stroke" fill="none" stroke="black">
		<path d=" M 150.00 374.85 L 150.04 374.83 L 150.06 374.81 L 150.07 374.81 L 150.10 374.81 L 150.14 374.02 L 150.30 373.99 L 150.65 373.98 L 151.18 373.67 L 151.44 373.54 L 151.98 373.57 L 152.07 373.52 L 152.14 373.52 L 152.77 373.46 L 153.94 373.31 L 154.31 370.20 L 154.40 370.20 L 155.11 370.12 L 155.92 370.11 L 155.93 370.11 L 155.93 370.11 L 166.93 370.11 L 167.01 370.11 L 167.15 370.11 L 167.21 370.07 L 167.62 370.05 L 167.81 370.05 L 168.28 370.05 L 168.35 370.05 L 168.48 370.02 L 168.62 370.02 L 168.66 370.02 L 168.77 369.99 L 168.90 369.99 L 169.01 369.99 L 169.32 369.82 L 169.59 369.82 L 169.64 369.82 L 169.77 369.82 L 170.65 370.98 L 170.66 370.98 L 170.77 370.97 L 171.27 370.79 L 171.67 370.60 L 172.12 370.51 L 172.22 370.45 L 172.23 370.45 L 172.32 370.45 L 172.49 370.45 L 172.71 370.38 L 173.14 370.31 L 173.16 370.31 L 173.24 370.31 L 173.35 370.28 L 173.60 370.28 L 173.62 370.28 L 173.88 370.27 L 173.98 370.27 L 174.07 370.27 L 174.17 370.27 L 175.51 370.13 L 175.83 370.12 L 176.58 370.06 L 176.74 370.06 L 176.86 370.06 L 176.92 370.06 L 177.43 369.96 L 177.66 369.96 L 177.93 369.85 L 178.06 369.84 L 178.37 369.59 L 178.50 369.49 L 178.68 369.49 L 178.85 369.49 L 179.45 365.86 L 179.46 365.79 L 179.49 365.79 L 179.69 365.44 L 189.89 365.44 L 190.94 363.87 L 190.98 363.87 L 192.23 363.87 L 192.34 363.87 L 192.45 363.71 L 192.76 363.68 L 192.90 363.68 L 192.95 363.68 L 193.10 363.68 L 193.47 363.68 L 193.48 363.34 L 193.62 363.33 L 193.76 363.33 L 193.91 363.29 L 194.11 363.28 L 194.19 363.28 L 194.22 363.28 L 194.40 363.28 L 194.42 363.28 L 194.62 363.28 L 194.65 363.28 L 194.94 361.74 L 194.99 361.74 L 195.09 361.56 L 195.22 361.56 L 195.38 361.56 L 195.46 361.54 L 196.03 361.54 L 196.04 361.54 L 196.15 361.44 L 196.41 361.44 L 196.63 360.56 L 196.70 360.45 L 196.81 360.45 L 196.87 360.45 L 197.00 360.42 L 197.64 353.93 L 197.71 353.98 L 197.92 353.98 L 197.99 353.98 L 198.04 353.97 L 198.14 353.97 L 198.24 353.88 L 198.47 353.88 L 198.63 353.88 L 198.76 353.87 L 198.83 353.87 L 199.41 353.86 L 199.72 353.86 L 199.81 353.70 L 200.08 353.70 L 200.11 353.70 L 200.13 353.70 L 200.30 353.26 L 200.44 353.15 L 200.91 351.60 L 200.99 351.60 L 201.08 351.60 L 201.20 351.62 L 201.21 351.62 L 201.27 351.62 L 201.31 351.62 L 201.38 351.62 L 201.44 351.62 L 201.63 351.59 L 201.77 351.59 L 201.90 351.58 L 202.09 351.58 L 202.29 351.56 L 202.50 350.99 L 202.64 350.80 L 202.94 350.80 L 202.94 350.79 L 203.12 350.79 L 217.36 350.79 L 217.63 350.78 L 218.30 350.68 L 218.44 350.67 L 218.55 350.67 L 218.57 350.67 L 218.82 350.67 L 218.98 350.67 L 219.08 350.67 L 219.18 350.67 L 219.24 350.66 L 219.50 350.66 L 220.01 350.69 L 220.14 350.69 L 220.23 350.69 L 220.36 350.69 L 221.02 350.56 L 221.11 350.51 L 221.15 350.51 L 221.20 350.43 L 221.34 350.42 L 221.45 350.42 L 221.93 349.83 L 222.62 349.83 L 222.87 349.83 L 223.63 349.83 L 223.99 345.85 L 224.12 345.85 L 224.27 345.85 L 224.50 345.84 L 224.84 345.84 L 225.33 345.84 L 225.97 345.84 L 226.07 345.84 L 226.54 345.74 L 226.84 345.58 L 226.94 345.58 L 227.12 345.58 L 227.27 345.56 L 228.95 345.31 L 230.55 345.31 L 244.88 345.30 L 244.98 345.30 L 245.06 345.30 L 245.51 345.30 L 246.85 344.05 L 246.90 344.01 L 247.09 343.88 L 247.75 343.87 L 248.06 343.57 L 248.53 343.58 L 248.64 343.58 L 248.75 343.58 L 249.58 340.09 L 249.68 340.09 L 249.85 340.09 L 250.04 340.09 L 250.12 339.86 L 250.59 339.44 L 250.75 339.44 L 250.83 339.44 L 250.94 338.80 L 251.14 338.16 L 251.23 338.16 L 251.44 338.14 L 252.06 332.95 L 252.12 332.95 L 252.18 332.95 L 252.27 332.95 L 252.42 332.95 L 252.49 332.95 L 252.54 332.95 L 252.84 332.95 L 252.91 332.83 L 253.28 332.81 L 253.49 332.74 L 253.63 332.11 L 254.74 321.77 L 254.87 321.77 L 296.98 321.77 L 297.02 321.77 L 313.12 321.77 L 314.00 321.61 L 314.18 321.61 L 314.41 321.61 L 314.49 321.61 L 314.59 321.61 L 321.56 321.53 L 322.49 321.43 L 322.83 321.43 L 323.01 321.40 L 327.36 321.31 L 327.39 321.17 L 327.66 321.17 L 328.96 319.77 L 329.03 319.77 L 329.19 319.77 L 329.65 319.77 L 329.71 319.77 L 329.89 319.77 L 330.09 319.77 L 330.12 319.77 L 343.65 319.75 L 343.75 319.50 L 344.28 319.50 L 344.30 317.81 L 344.39 317.81 L 344.50 317.81 L 344.65 317.65 L 344.88 317.65 L 345.07 317.58 L 345.25 317.58 L 345.32 317.58 L 345.59 317.56 L 346.53 314.69 L 346.91 314.68 L 346.97 314.67 L 347.05 314.67 L 347.10 314.67 L 347.23 314.62 L 347.61 314.27 L 347.66 314.22 L 347.90 311.64 L 347.99 311.63 L 348.02 311.63 L 348.11 311.59 L 348.17 311.59 L 348.22 311.59 L 348.51 310.18 L 348.64 310.16 L 348.81 310.13 L 348.92 305.77 L 348.97 305.77 L 349.27 303.31 L 349.35 303.31 L 349.41 303.30 L 349.48 303.30 L 349.53 303.30 L 349.57 303.30 L 349.59 303.30 L 349.74 298.76 L 349.79 298.75 L 349.93 298.74 L 350.04 298.74 L 350.34 298.65 L 350.72 298.52 L 350.73 298.52 L 350.83 298.50 L 351.18 298.42 L 351.34 298.42 L 351.51 298.42 L 351.68 296.46 L 351.80 296.46 L 352.28 296.45 L 352.32 296.45 L 352.38 296.45 L 352.42 296.45 L 352.73 293.65 L 352.78 293.65 L 353.01 293.63 L 373.83 293.63 L 375.01 293.61 L 375.05 293.61 L 375.28 293.61 L 375.30 293.61 L 375.45 293.61 L 375.57 293.61 L 375.67 293.47 L 375.81 293.47 L 375.86 293.47 L 375.91 293.47 L 376.13 293.22 L 376.58 293.06 L 376.87 292.90 L 377.19 292.10 L 377.20 292.10 L 377.25 291.90 L 377.30 291.88 L 377.91 291.40 L 377.93 291.40 L 378.02 291.33 L 378.29 291.33 L 378.46 291.28 L 378.50 290.12 L 378.51 290.12 L 378.58 291.26 L 378.63 291.20 L 378.65 291.19 L 378.81 289.63 L 378.82 289.63 L 379.14 289.56 L 380.03 289.56 L 380.24 289.56 L 380.31 289.56 L 380.35 289.56 L 380.40 289.56 L 380.53 289.46 L 394.76 288.17 L 394.78 288.17 L 394.90 288.16 L 394.93 287.88 L 395.01 274.07 L 395.17 268.94 L 395.19 268.94 L 395.45 268.84 L 395.51 268.84 L 395.56 268.82 L 395.79 268.82 L 396.40 267.57 L 396.42 267.57 L 396.57 267.50 L 396.63 267.50 L 396.66 267.39 L 397.18 266.64 L 397.19 266.64 L 397.97 266.49 L 398.07 266.43 L 398.34 266.45 L 398.67 264.75 L 398.75 264.58 L 398.80 264.42 L 398.95 263.79 L 399.35 263.63 L 399.42 263.49 L 399.60 263.49 L 399.79 263.49 L 400.39 263.49 L 400.46 263.49 L 400.60 263.49 L 400.61 263.49 L 400.80 263.51 L 401.25 263.51 L 401.72 263.34 L 401.79 263.34 L 401.89 263.32 L 402.02 263.32 L 402.38 263.32 L 402.98 263.32 L 403.18 263.16 L 403.51 258.70 L 404.81 262.91 L 405.10 262.89 L 405.31 262.88 L 405.64 262.88 L 405.74 262.83 L 406.07 262.80 L 406.58 262.55 L 406.65 262.55 L 406.75 262.55 L 406.81 262.55 L 406.86 262.55 L 407.26 262.30 L 416.69 262.30 L 416.78 262.31 L 417.36 262.29 L 417.42 262.29 L 417.55 262.25 L 417.66 261.94 L 417.68 261.93 L 418.00 261.90 L 418.08 261.90 L 420.01 261.65 L 420.24 261.65 L 420.40 261.65 L 420.44 261.65 L 421.04 261.46 L 421.24 261.46 L 421.28 261.46 L 421.60 261.45 L 421.95 260.40 L 422.00 260.40 L 422.29 260.22 L 422.41 260.22 L 422.52 260.22 L 422.77 260.22 L 423.29 260.21 L 423.39 260.18 L 423.49 260.08 L 423.70 259.90 L 424.22 259.74 L 424.68 255.54 L 424.77 255.39 L 425.25 255.19 L 425.33 255.14 L 425.40 254.99 L 425.45 254.70 L 425.62 253.44 L 425.65 253.50 L 425.73 253.47 L 426.00 253.46 L 426.41 253.29 L 426.66 253.22 L 426.95 253.21 L 427.09 253.19 L 427.37 253.18 L 427.85 253.18 L 428.32 253.16 L 428.69 253.16 L 428.77 253.15 L 428.86 253.15 L 428.87 253.14 L 429.15 253.14 L 429.23 253.13 L 429.34 252.97 L 430.11 252.95 L 430.12 252.95 L 430.34 252.93 L 431.24 252.93 L 431.84 252.72 L 432.27 252.54 L 432.29 252.54 L 432.32 252.54 L 445.53 252.54 L 445.57 252.54 L 445.73 252.54 L 445.80 252.54 L 445.84 252.51 L 445.85 252.51 L 446.42 252.51 L 446.54 252.50 L 446.71 252.47 L 446.99 252.44 L 447.17 252.44 L 447.40 252.34 L 447.52 252.34 L 447.58 252.34 L 447.65 252.34 L 447.82 251.96 L 447.84 251.96 L 447.90 251.96 L 448.04 251.96 L 448.13 251.96 L 448.25 252.05 L 448.41 252.05 L 448.73 252.03 L 448.88 252.03 L 449.00 252.03 L 449.81 250.80 L 450.51 250.47 L 451.34 249.58 L 451.56 249.58 L 451.79 249.58 L 452.05 249.58 L 456.91 249.47 L 457.31 249.47 L 503.31 249.31 L 648.18 249.08 L 648.66 249.01 L 648.99 249.00 L 649.32 249.00 L 649.83 248.43 L 650.00 248.43"/>
	</g>
	<g id="poloto_plot2" class="poloto_plot poloto_imgs poloto_line poloto2 poloto_stroke" fill="none" stroke="black">
		<path d=" M 150.00 388.72 L 150.04 388.71 L 150.06 388.71 L 150.07 388.71 L 150.10 388.71 L 150.14 385.82 L 150.30 385.42 L 150.65 385.42 L 151.18 385.40 L 151.44 383.67 L 151.98 383.52 L 152.07 383.47 L 152.14 383.42 L 152.77 382.65 L 153.94 382.04 L 154.31 381.93 L 154.40 381.93 L 155.11 381.89 L 155.92 381.89 L 155.93 381.89 L 155.93 381.89 L 166.93 381.89 L 167.01 381.88 L 167.15 381.86 L 167.21 381.86 L 167.62 381.68 L 167.81 381.63 L 168.28 381.35 L 168.35 381.23 L 168.48 380.97 L 168.62 380.94 L 168.66 380.93 L 168.77 380.89 L 168.90 380.89 L 169.01 380.89 L 169.32 380.60 L 169.59 380.33 L 169.64 380.34 L 169.77 380.18 L 170.65 379.83 L 170.66 379.83 L 170.77 379.72 L 171.27 379.34 L 171.67 378.87 L 172.12 378.68 L 172.22 378.68 L 172.23 378.68 L 172.32 378.42 L 172.49 378.42 L 172.71 378.38 L 173.14 378.19 L 173.16 377.85 L 173.24 377.85 L 173.35 377.69 L 173.60 377.69 L 173.62 377.69 L 173.88 377.18 L 173.98 377.15 L 174.07 377.10 L 174.17 376.87 L 175.51 376.73 L 175.83 376.68 L 176.58 376.33 L 176.74 376.33 L 176.86 376.31 L 176.92 376.05 L 177.43 374.63 L 177.66 374.61 L 177.93 374.19 L 178.06 374.15 L 178.37 373.96 L 178.50 373.89 L 178.68 373.59 L 178.85 373.34 L 179.45 373.34 L 179.46 373.31 L 179.49 373.11 L 179.69 371.74 L 189.89 371.60 L 190.94 371.19 L 190.98 371.13 L 192.23 370.80 L 192.34 370.79 L 192.45 370.54 L 192.76 370.37 L 192.90 370.05 L 192.95 369.80 L 193.10 369.29 L 193.47 369.28 L 193.48 369.28 L 193.62 368.92 L 193.76 368.92 L 193.91 368.55 L 194.11 368.26 L 194.19 368.10 L 194.22 368.09 L 194.40 367.75 L 194.42 367.74 L 194.62 367.43 L 194.65 367.42 L 194.94 367.31 L 194.99 367.31 L 195.09 367.19 L 195.22 367.17 L 195.38 367.17 L 195.46 367.15 L 196.03 366.84 L 196.04 366.85 L 196.15 366.24 L 196.41 366.22 L 196.63 366.03 L 196.70 366.03 L 196.81 366.02 L 196.87 365.97 L 197.00 365.13 L 197.64 364.42 L 197.71 364.03 L 197.92 364.00 L 197.99 363.90 L 198.04 363.88 L 198.14 363.70 L 198.24 363.03 L 198.47 362.93 L 198.63 362.91 L 198.76 362.58 L 198.83 362.57 L 199.41 362.32 L 199.72 362.14 L 199.81 361.99 L 200.08 361.98 L 200.11 361.98 L 200.13 361.94 L 200.30 360.74 L 200.44 360.73 L 200.91 360.55 L 200.99 360.07 L 201.08 360.06 L 201.20 359.87 L 201.21 359.75 L 201.27 359.67 L 201.31 359.62 L 201.38 359.62 L 201.44 359.52 L 201.63 358.16 L 201.77 358.02 L 201.90 357.62 L 202.09 357.59 L 202.29 357.46 L 202.50 357.04 L 202.64 355.86 L 202.94 355.77 L 202.94 355.26 L 203.12 355.14 L 217.36 355.15 L 217.63 355.14 L 218.30 354.59 L 218.44 354.59 L 218.55 354.59 L 218.57 354.44 L 218.82 354.20 L 218.98 354.16 L 219.08 354.02 L 219.18 353.91 L 219.24 353.86 L 219.50 353.79 L 220.01 353.90 L 220.14 353.53 L 220.23 353.43 L 220.36 353.42 L 221.02 353.35 L 221.11 353.28 L 221.15 353.28 L 221.20 353.21 L 221.34 353.15 L 221.45 353.01 L 221.93 352.66 L 222.62 352.51 L 222.87 352.44 L 223.63 352.22 L 223.99 351.67 L 224.12 351.58 L 224.27 351.15 L 224.50 350.60 L 224.84 350.45 L 225.33 350.44 L 225.97 350.41 L 226.07 350.21 L 226.54 350.07 L 226.84 349.90 L 226.94 349.76 L 227.12 349.70 L 227.27 349.34 L 228.95 349.16 L 230.55 349.16 L 244.88 349.11 L 244.98 348.91 L 245.06 348.78 L 245.51 348.57 L 246.85 348.20 L 246.90 348.15 L 247.09 347.89 L 247.75 347.79 L 248.06 347.08 L 248.53 347.06 L 248.64 347.03 L 248.75 346.33 L 249.58 345.68 L 249.68 345.67 L 249.85 345.63 L 250.04 345.57 L 250.12 345.33 L 250.59 344.24 L 250.75 343.96 L 250.83 343.94 L 250.94 343.82 L 251.14 343.39 L 251.23 342.30 L 251.44 341.85 L 252.06 341.59 L 252.12 341.04 L 252.18 341.04 L 252.27 340.94 L 252.42 340.79 L 252.49 340.75 L 252.54 340.70 L 252.84 339.42 L 252.91 338.67 L 253.28 338.53 L 253.49 337.25 L 253.63 337.01 L 254.74 335.01 L 254.87 334.97 L 296.98 334.39 L 297.02 334.39 L 313.12 334.22 L 314.00 334.01 L 314.18 334.01 L 314.41 333.91 L 314.49 333.75 L 314.59 333.71 L 321.56 333.69 L 322.49 331.39 L 322.83 331.19 L 323.01 330.40 L 327.36 330.30 L 327.39 330.23 L 327.66 330.21 L 328.96 330.07 L 329.03 329.80 L 329.19 329.71 L 329.65 329.59 L 329.71 329.56 L 329.89 329.12 L 330.09 328.98 L 330.12 328.64 L 343.65 328.21 L 343.75 327.16 L 344.28 326.89 L 344.30 326.49 L 344.39 326.18 L 344.50 325.70 L 344.65 324.43 L 344.88 323.74 L 345.07 322.84 L 345.25 322.84 L 345.32 322.15 L 345.59 322.10 L 346.53 321.44 L 346.91 321.14 L 346.97 320.95 L 347.05 320.95 L 347.10 320.72 L 347.23 319.94 L 347.61 319.86 L 347.66 319.85 L 347.90 319.34 L 347.99 319.34 L 348.02 319.05 L 348.11 318.86 L 348.17 318.86 L 348.22 318.45 L 348.51 318.21 L 348.64 317.80 L 348.81 317.78 L 348.92 317.57 L 348.97 317.26 L 349.27 317.09 L 349.35 316.91 L 349.41 316.91 L 349.48 316.90 L 349.53 316.59 L 349.57 316.60 L 349.59 316.59 L 349.74 316.48 L 349.79 316.13 L 349.93 316.13 L 350.04 316.04 L 350.34 316.02 L 350.72 315.98 L 350.73 315.98 L 350.83 315.96 L 351.18 315.96 L 351.34 315.96 L 351.51 315.96 L 351.68 315.90 L 351.80 315.48 L 352.28 315.47 L 352.32 315.23 L 352.38 315.22 L 352.42 314.94 L 352.73 314.84 L 352.78 314.78 L 353.01 314.78 L 373.83 314.70 L 375.01 314.58 L 375.05 314.58 L 375.28 314.58 L 375.30 314.58 L 375.45 314.09 L 375.57 314.07 L 375.67 313.93 L 375.81 313.86 L 375.86 313.81 L 375.91 313.79 L 376.13 313.74 L 376.58 313.64 L 376.87 312.98 L 377.19 312.94 L 377.20 312.90 L 377.25 312.34 L 377.30 312.34 L 377.91 312.34 L 377.93 312.28 L 378.02 311.77 L 378.29 311.70 L 378.46 311.68 L 378.50 311.67 L 378.51 311.62 L 378.58 311.58 L 378.63 311.05 L 378.65 311.04 L 378.81 311.04 L 378.82 311.00 L 379.14 310.94 L 380.03 310.92 L 380.24 310.88 L 380.31 310.86 L 380.35 310.70 L 380.40 310.70 L 380.53 310.10 L 394.76 309.92 L 394.78 309.75 L 394.90 309.63 L 394.93 309.61 L 395.01 309.11 L 395.17 308.98 L 395.19 308.95 L 395.45 308.95 L 395.51 308.95 L 395.56 308.45 L 395.79 308.39 L 396.40 308.37 L 396.42 308.34 L 396.57 308.07 L 396.63 308.08 L 396.66 307.61 L 397.18 307.61 L 397.19 307.58 L 397.97 307.47 L 398.07 306.91 L 398.34 306.91 L 398.67 306.91 L 398.75 306.50 L 398.80 306.18 L 398.95 306.17 L 399.35 306.10 L 399.42 306.08 L 399.60 305.95 L 399.79 305.95 L 400.39 305.95 L 400.46 305.95 L 400.60 305.92 L 400.61 305.92 L 400.80 305.92 L 401.25 305.88 L 401.72 305.83 L 401.79 305.83 L 401.89 305.77 L 402.02 305.62 L 402.38 305.62 L 402.98 305.44 L 403.18 305.13 L 403.51 305.09 L 404.81 304.75 L 405.10 304.75 L 405.31 304.75 L 405.64 304.74 L 405.74 304.72 L 406.07 304.54 L 406.58 304.52 L 406.65 304.37 L 406.75 304.29 L 406.81 304.31 L 406.86 304.26 L 407.26 304.23 L 416.69 304.22 L 416.78 304.22 L 417.36 304.22 L 417.42 304.20 L 417.55 303.74 L 417.66 303.72 L 417.68 303.72 L 418.00 303.71 L 418.08 303.69 L 420.01 303.00 L 420.24 302.93 L 420.40 302.92 L 420.44 302.91 L 421.04 302.90 L 421.24 302.99 L 421.28 302.99 L 421.60 302.94 L 421.95 302.29 L 422.00 302.28 L 422.29 302.26 L 422.41 302.26 L 422.52 302.26 L 422.77 302.13 L 423.29 301.54 L 423.39 301.54 L 423.49 301.45 L 423.70 300.92 L 424.22 300.33 L 424.68 300.36 L 424.77 300.05 L 425.25 300.05 L 425.33 300.01 L 425.40 299.98 L 425.45 299.67 L 425.62 299.66 L 425.65 299.66 L 425.73 299.66 L 426.00 299.66 L 426.41 299.41 L 426.66 299.38 L 426.95 299.38 L 427.09 299.38 L 427.37 299.38 L 427.85 299.38 L 428.32 299.38 L 428.69 299.38 L 428.77 299.37 L 428.86 299.36 L 428.87 299.25 L 429.15 299.18 L 429.23 299.18 L 429.34 299.16 L 430.11 299.15 L 430.12 298.85 L 430.34 298.85 L 431.24 298.86 L 431.84 298.85 L 432.27 298.78 L 432.29 298.66 L 432.32 298.66 L 445.53 298.45 L 445.57 298.45 L 445.73 298.43 L 445.80 298.25 L 445.84 298.25 L 445.85 298.23 L 446.42 298.18 L 446.54 297.55 L 446.71 297.42 L 446.99 296.20 L 447.17 296.18 L 447.40 295.66 L 447.52 295.72 L 447.58 295.71 L 447.65 295.05 L 447.82 294.93 L 447.84 294.47 L 447.90 294.40 L 448.04 294.36 L 448.13 294.13 L 448.25 296.87 L 448.41 296.83 L 448.73 295.73 L 448.88 295.49 L 449.00 295.24 L 449.81 294.80 L 450.51 294.34 L 451.34 293.69 L 451.56 293.62 L 451.79 293.62 L 452.05 293.56 L 456.91 293.24 L 457.31 293.21 L 503.31 292.35 L 648.18 292.32 L 648.66 291.93 L 648.99 291.87 L 649.32 291.87 L 649.83 291.52 L 650.00 291.12"/>
	</g>
	<g class="poloto_legend poloto_imgs poloto_line poloto0 poloto_stroke"><line x1="680" x2="730" y1="81.25" y2="81.25"/></g>
	<g class="poloto_legend poloto_imgs poloto_line poloto1 poloto_stroke"><line x1="680" x2="730" y1="131.25" y2="131.25"/></g>
	<g class="poloto_legend poloto_imgs poloto_line poloto2 poloto_stroke"><line x1="680" x2="730" y1="181.25" y2="181.25"/></g>
	<text class="poloto_legend poloto_text poloto_line poloto0" x="675" y="100">total</text>
	<text class="poloto_legend poloto_text poloto_line poloto1" x="675" y="150">code</text>
	<text class="poloto_legend poloto_text poloto_line poloto2" x="675" y="200">docs</text>
	<text class="poloto_text poloto_name poloto_title" x="400.00" y="37.50">Workspace lines over time</text>
	<text class="poloto_text poloto_name poloto_x" x="400.00" y="640">date (JST)</text>
	<text class="poloto_text poloto_name poloto_y" x="37.50" y="250.00" transform="rotate(-90,37.50,250.00)">lines</text>
	<text class="poloto_text poloto_ticks poloto_y">
		<tspan x="135.00" y="400.00">0</tspan>
		<tspan x="135.00" y="357.09">20K</tspan>
		<tspan x="135.00" y="314.18">40K</tspan>
		<tspan x="135.00" y="271.27">60K</tspan>
		<tspan x="135.00" y="228.36">80K</tspan>
		<tspan x="135.00" y="185.45">100K</tspan>
		<tspan x="135.00" y="142.54">120K</tspan>
	</text>
	<g class="poloto_imgs poloto_ticks poloto_y" stroke="black">
		<line x1="150.00" x2="144.00" y1="400.00" y2="400.00"/>
		<line x1="150.00" x2="144.00" y1="357.09" y2="357.09"/>
		<line x1="150.00" x2="144.00" y1="314.18" y2="314.18"/>
		<line x1="150.00" x2="144.00" y1="271.27" y2="271.27"/>
		<line x1="150.00" x2="144.00" y1="228.36" y2="228.36"/>
		<line x1="150.00" x2="144.00" y1="185.45" y2="185.45"/>
		<line x1="150.00" x2="144.00" y1="142.54" y2="142.54"/>
	</g>
	<g class="poloto_text poloto_ticks poloto_x">
		<text x="186.39" y="430.00" text-anchor="end" transform="rotate(-90 186.39 430.00)">2026-04-22 04:33</text>
		<text x="244.70" y="430.00" text-anchor="end" transform="rotate(-90 244.70 430.00)">2026-04-24 12:06</text>
		<text x="303.01" y="430.00" text-anchor="end" transform="rotate(-90 303.01 430.00)">2026-04-26 19:40</text>
		<text x="361.32" y="430.00" text-anchor="end" transform="rotate(-90 361.32 430.00)">2026-04-29 03:13</text>
		<text x="419.63" y="430.00" text-anchor="end" transform="rotate(-90 419.63 430.00)">2026-05-01 10:46</text>
		<text x="477.94" y="430.00" text-anchor="end" transform="rotate(-90 477.94 430.00)">2026-05-03 18:20</text>
		<text x="536.25" y="430.00" text-anchor="end" transform="rotate(-90 536.25 430.00)">2026-05-06 01:53</text>
		<text x="594.56" y="430.00" text-anchor="end" transform="rotate(-90 594.56 430.00)">2026-05-08 09:26</text>
	</g>
	<g class="poloto_imgs poloto_ticks poloto_x" stroke="black">
		<line x1="186.39" x2="186.39" y1="400.00" y2="405.00"/>
		<line x1="244.70" x2="244.70" y1="400.00" y2="405.00"/>
		<line x1="303.01" x2="303.01" y1="400.00" y2="405.00"/>
		<line x1="361.32" x2="361.32" y1="400.00" y2="405.00"/>
		<line x1="419.63" x2="419.63" y1="400.00" y2="405.00"/>
		<line x1="477.94" x2="477.94" y1="400.00" y2="405.00"/>
		<line x1="536.25" x2="536.25" y1="400.00" y2="405.00"/>
		<line x1="594.56" x2="594.56" y1="400.00" y2="405.00"/>
	</g>
	<path class="poloto_imgs poloto_ticks poloto_x" stroke="black" style="stroke-dasharray:7.288697737121745;stroke-dashoffset:-36.391884705633856;" d=" M 150.00 400.00 L 650.00 400.00"/>
	<path class="poloto_imgs poloto_ticks poloto_y" stroke="black" style="stroke-dasharray:10.727618611703116;stroke-dashoffset:-0;" d=" M 150.00 400.00 L 150.00 100.00"/>
</svg>

