<svg class="poloto" width="800" height="680" viewBox="0 0 800 680" xmlns="http://www.w3.org/2000/svg">
	<style>
.poloto{
  stroke-linecap:round;
  stroke-linejoin:round;
  font-family:Roboto,sans-serif;
  font-size:16px;
}
.poloto_background{fill:AliceBlue;}
.poloto_scatter{stroke-width:7}
.poloto_line{stroke-width:2}
.poloto_text{fill: black;}
.poloto_name{font-size:24px;dominant-baseline:auto;text-anchor:middle;}
.poloto_where{dominant-baseline:middle;text-anchor:start}
.poloto_text.poloto_legend{font-size:20px;dominant-baseline:middle;text-anchor:start;}
.poloto_text.poloto_ticks.poloto_y{dominant-baseline:middle;text-anchor:end}
.poloto_text.poloto_ticks.poloto_x{dominant-baseline:auto;text-anchor:middle}
.poloto_imgs.poloto_ticks{stroke: black;stroke-width:3;fill:none;stroke-dasharray:none}
.poloto_grid{stroke:gray;stroke-width:0.5}

.poloto0.poloto_stroke{stroke:blue;}
.poloto1.poloto_stroke{stroke:red;}
.poloto2.poloto_stroke{stroke:green;}
.poloto3.poloto_stroke{stroke:gold;}
.poloto4.poloto_stroke{stroke:aqua;}
.poloto5.poloto_stroke{stroke:lime;}
.poloto6.poloto_stroke{stroke:orange;}
.poloto7.poloto_stroke{stroke:chocolate;}
.poloto0.poloto_fill{fill:blue;}
.poloto1.poloto_fill{fill:red;}
.poloto2.poloto_fill{fill:green;}
.poloto3.poloto_fill{fill:gold;}
.poloto4.poloto_fill{fill:aqua;}
.poloto5.poloto_fill{fill:lime;}
.poloto6.poloto_fill{fill:orange;}
.poloto7.poloto_fill{fill:chocolate;}
	</style>
	<circle r="1e5" class="poloto_background" fill="white"/>
	<g id="poloto_plot0" class="poloto_plot poloto_imgs poloto_line poloto0 poloto_stroke" fill="none" stroke="black">
		<path d=" M 150.00 358.98 L 150.04 358.95 L 150.06 358.93 L 150.07 358.93 L 150.10 358.93 L 150.14 354.48 L 150.29 353.94 L 150.65 353.92 L 151.17 353.55 L 151.43 351.29 L 151.97 351.15 L 152.06 351.03 L 152.13 350.98 L 152.75 349.87 L 153.92 348.98 L 154.28 345.48 L 154.38 345.49 L 155.08 345.35 L 155.89 345.33 L 155.90 345.33 L 155.90 345.33 L 166.84 345.33 L 166.92 345.33 L 167.06 345.30 L 167.12 345.26 L 167.53 345.05 L 167.72 345.00 L 168.18 344.68 L 168.25 344.54 L 168.38 344.22 L 168.52 344.17 L 168.56 344.17 L 168.68 344.09 L 168.80 344.09 L 168.92 344.09 L 169.22 343.57 L 169.49 343.25 L 169.54 343.25 L 169.67 343.06 L 170.54 343.86 L 170.55 343.86 L 170.67 343.73 L 171.16 343.13 L 171.56 342.42 L 172.01 342.10 L 172.10 342.05 L 172.11 342.05 L 172.20 341.77 L 172.37 341.77 L 172.59 341.67 L 173.02 341.40 L 173.04 340.99 L 173.12 340.99 L 173.22 340.77 L 173.47 340.77 L 173.50 340.77 L 173.75 340.17 L 173.85 340.14 L 173.95 340.09 L 174.05 339.85 L 175.38 339.53 L 175.70 339.47 L 176.44 339.04 L 176.60 339.04 L 176.72 339.02 L 176.78 338.72 L 177.29 336.95 L 177.52 336.92 L 177.78 336.33 L 177.91 336.27 L 178.22 335.78 L 178.35 335.61 L 178.53 335.29 L 178.70 335.01 L 179.29 330.94 L 179.31 330.84 L 179.34 330.60 L 179.54 328.64 L 189.68 328.50 L 190.73 326.27 L 190.77 326.21 L 192.01 325.86 L 192.12 325.85 L 192.23 325.41 L 192.53 325.19 L 192.67 324.81 L 192.72 324.48 L 192.88 323.89 L 193.24 323.88 L 193.25 323.49 L 193.39 323.05 L 193.53 323.04 L 193.69 322.55 L 193.88 322.20 L 193.96 322.03 L 193.99 322.02 L 194.16 321.64 L 194.19 321.63 L 194.38 321.25 L 194.42 321.24 L 194.71 319.40 L 194.76 319.40 L 194.86 319.09 L 194.98 319.08 L 195.15 319.08 L 195.22 319.03 L 195.79 318.69 L 195.80 318.70 L 195.91 317.88 L 196.16 317.87 L 196.39 316.64 L 196.46 316.53 L 196.57 316.52 L 196.62 316.47 L 196.75 315.53 L 197.39 307.54 L 197.46 307.15 L 197.67 307.12 L 197.74 307.02 L 197.79 306.99 L 197.89 306.78 L 197.99 305.87 L 198.22 305.69 L 198.38 305.67 L 198.50 305.27 L 198.58 305.26 L 199.15 304.96 L 199.46 304.74 L 199.55 304.38 L 199.82 304.36 L 199.85 304.36 L 199.87 304.33 L 200.04 302.41 L 200.17 302.30 L 200.64 300.36 L 200.72 299.79 L 200.81 299.78 L 200.93 299.57 L 200.95 299.42 L 201.00 299.33 L 201.05 299.28 L 201.12 299.27 L 201.18 299.17 L 201.36 297.59 L 201.50 297.36 L 201.63 296.89 L 201.82 296.86 L 202.02 296.71 L 202.22 295.59 L 202.37 294.04 L 202.66 293.95 L 202.67 293.37 L 202.84 293.18 L 217.01 293.18 L 217.28 293.16 L 217.94 292.34 L 218.08 292.32 L 218.19 292.32 L 218.21 292.12 L 218.46 291.86 L 218.62 291.82 L 218.72 291.67 L 218.82 291.56 L 218.88 291.50 L 219.13 291.43 L 219.64 291.33 L 219.77 290.91 L 219.87 290.80 L 219.99 290.78 L 220.65 290.57 L 220.74 290.45 L 220.78 290.45 L 220.82 290.29 L 220.97 290.22 L 221.08 290.07 L 221.56 289.02 L 222.24 288.86 L 222.49 288.79 L 223.25 288.53 L 223.60 283.51 L 223.73 283.40 L 223.89 282.91 L 224.11 282.25 L 224.45 282.06 L 224.93 282.05 L 225.58 282.03 L 225.67 281.81 L 226.14 281.58 L 226.44 281.21 L 226.54 281.06 L 226.72 281.01 L 226.86 280.56 L 228.54 280.07 L 230.13 280.07 L 244.39 280.02 L 244.49 279.80 L 244.56 279.66 L 245.01 279.45 L 246.34 277.72 L 246.40 277.60 L 246.58 277.16 L 247.24 277.04 L 247.55 275.87 L 248.02 275.86 L 248.13 275.84 L 248.23 275.04 L 249.06 270.47 L 249.16 270.47 L 249.33 270.43 L 249.52 270.37 L 249.60 269.87 L 250.06 268.15 L 250.23 267.83 L 250.31 267.81 L 250.41 267.01 L 250.62 265.89 L 250.70 264.70 L 250.91 264.17 L 251.53 258.23 L 251.58 257.63 L 251.64 257.63 L 251.74 257.53 L 251.89 257.37 L 251.95 257.32 L 252.01 257.26 L 252.31 255.83 L 252.38 254.83 L 252.74 254.63 L 252.95 253.13 L 253.09 252.19 L 254.19 238.35 L 254.32 238.31 L 296.22 237.65 L 296.26 237.65 L 312.27 237.46 L 313.14 237.08 L 313.32 237.08 L 313.55 236.97 L 313.63 236.80 L 313.73 236.75 L 320.67 236.65 L 321.59 234.02 L 321.93 233.78 L 322.11 232.81 L 326.43 232.62 L 326.46 232.35 L 326.73 232.33 L 328.02 230.67 L 328.10 230.37 L 328.26 230.26 L 328.71 230.15 L 328.77 230.10 L 328.95 229.61 L 329.15 229.47 L 329.18 229.10 L 342.64 228.59 L 342.74 227.17 L 343.27 226.86 L 343.28 224.48 L 343.38 224.13 L 343.49 223.55 L 343.64 221.91 L 343.87 221.04 L 344.06 220.03 L 344.23 220.02 L 344.30 219.24 L 344.57 219.17 L 345.50 215.35 L 345.88 214.94 L 345.94 214.70 L 346.02 214.69 L 346.07 214.43 L 346.20 213.49 L 346.58 213.04 L 346.63 212.98 L 346.86 209.61 L 346.95 209.60 L 346.99 209.24 L 347.08 208.97 L 347.13 208.96 L 347.18 208.46 L 347.48 206.64 L 347.61 206.12 L 347.77 206.05 L 347.89 201.19 L 347.93 200.79 L 348.23 198.01 L 348.31 197.80 L 348.37 197.79 L 348.44 197.78 L 348.49 197.39 L 348.53 197.41 L 348.55 197.40 L 348.70 192.48 L 348.75 192.06 L 348.89 192.03 L 349.00 191.94 L 349.30 191.81 L 349.67 191.62 L 349.68 191.62 L 349.78 191.56 L 350.13 191.47 L 350.29 191.47 L 350.46 191.47 L 350.63 189.32 L 350.75 188.81 L 351.22 188.80 L 351.27 188.47 L 351.32 188.46 L 351.36 188.10 L 351.67 185.00 L 351.73 184.92 L 351.96 184.90 L 372.66 184.81 L 373.84 184.65 L 373.87 184.65 L 374.11 184.65 L 374.13 184.65 L 374.28 184.04 L 374.39 184.01 L 374.49 183.71 L 374.64 183.63 L 374.68 183.59 L 374.73 183.57 L 374.95 183.22 L 375.40 182.91 L 375.69 181.92 L 376.00 180.97 L 376.02 180.92 L 376.07 180.03 L 376.11 180.00 L 376.73 179.48 L 376.74 179.41 L 376.83 178.71 L 377.10 178.64 L 377.27 178.57 L 377.30 177.31 L 377.32 177.25 L 377.39 178.44 L 377.44 177.71 L 377.46 177.68 L 377.61 176.00 L 377.62 175.95 L 377.95 175.82 L 378.83 175.79 L 379.04 175.73 L 379.11 175.72 L 379.15 175.50 L 379.20 175.50 L 379.33 174.67 L 393.48 173.07 L 393.50 172.85 L 393.62 172.69 L 393.66 172.38 L 393.74 158.37 L 393.89 152.64 L 393.91 152.60 L 394.17 152.49 L 394.23 152.49 L 394.28 151.83 L 394.51 151.76 L 395.12 150.41 L 395.13 150.38 L 395.29 149.96 L 395.35 149.97 L 395.38 149.29 L 395.89 148.50 L 395.91 148.47 L 396.68 148.16 L 396.77 147.44 L 397.05 147.46 L 397.37 145.64 L 397.45 144.93 L 397.50 144.36 L 397.65 143.66 L 398.05 143.41 L 398.12 143.24 L 398.30 143.08 L 398.49 143.08 L 399.09 143.08 L 399.15 143.08 L 399.29 143.05 L 399.30 143.05 L 399.49 143.07 L 399.94 143.03 L 400.41 142.77 L 400.48 142.77 L 400.58 142.66 L 400.71 142.47 L 401.07 142.47 L 401.67 142.22 L 401.86 141.66 L 402.18 136.83 L 403.49 140.91 L 403.77 140.89 L 403.98 140.87 L 404.30 140.86 L 404.41 140.79 L 404.73 140.56 L 405.24 140.23 L 405.31 140.00 L 405.41 139.91 L 405.47 139.93 L 405.52 139.86 L 405.92 139.56 L 415.30 139.56 L 415.39 139.56 L 415.97 139.54 L 416.03 139.52 L 416.16 138.91 L 416.26 138.56 L 416.28 138.56 L 416.60 138.51 L 416.68 138.48 L 418.60 137.57 L 418.83 137.49 L 418.99 137.47 L 419.03 137.47 L 419.62 137.25 L 419.83 137.36 L 419.87 137.35 L 420.18 137.29 L 420.53 135.38 L 420.58 135.37 L 420.87 135.15 L 420.99 135.15 L 421.10 135.15 L 421.34 134.94 L 421.87 134.17 L 421.97 134.14 L 422.06 133.92 L 422.27 133.01 L 422.79 132.07 L 423.25 127.63 L 423.34 127.08 L 423.81 126.87 L 423.89 126.75 L 423.97 126.54 L 424.02 125.82 L 424.18 124.55 L 424.22 124.60 L 424.29 124.57 L 424.56 124.57 L 424.97 124.10 L 425.22 124.01 L 425.51 123.99 L 425.64 123.97 L 425.93 123.96 L 426.40 123.96 L 426.87 123.95 L 427.23 123.94 L 427.32 123.93 L 427.41 123.91 L 427.41 123.76 L 427.69 123.67 L 427.77 123.65 L 427.88 123.46 L 428.65 123.43 L 428.66 123.04 L 428.87 123.03 L 429.77 123.03 L 430.37 122.80 L 430.80 122.51 L 430.81 122.36 L 430.85 122.36 L 443.99 122.09 L 444.03 122.09 L 444.18 122.07 L 444.25 121.85 L 444.30 121.82 L 444.31 121.81 L 444.87 121.75 L 444.99 120.95 L 445.16 120.77 L 445.44 119.18 L 445.62 119.16 L 445.85 118.49 L 445.97 118.57 L 446.03 118.57 L 446.10 117.80 L 446.26 117.27 L 446.29 116.71 L 446.34 116.64 L 446.48 116.59 L 446.58 116.33 L 446.69 119.35 L 446.85 119.30 L 447.18 118.09 L 447.32 117.79 L 447.44 117.54 L 448.25 115.80 L 448.94 114.96 L 449.77 113.36 L 449.98 113.29 L 450.22 113.29 L 450.48 113.21 L 455.31 112.76 L 455.70 112.72 L 501.47 111.50 L 645.58 111.21 L 646.06 110.72 L 646.39 110.65 L 646.72 110.65 L 647.22 109.71 L 647.39 109.26 L 647.52 108.41 L 647.75 105.97 L 648.09 106.47 L 648.35 105.95 L 648.42 105.94 L 648.64 105.78 L 648.69 105.78 L 648.93 104.88 L 649.14 103.46 L 649.79 101.94 L 649.81 101.81 L 650.00 100.00"/>
	</g>
	<g id="poloto_plot1" class="poloto_plot poloto_imgs poloto_line poloto1 poloto_stroke" fill="none" stroke="black">
		<path d=" M 150.00 375.63 L 150.04 375.61 L 150.06 375.59 L 150.07 375.59 L 150.10 375.59 L 150.14 374.82 L 150.29 374.79 L 150.65 374.78 L 151.17 374.49 L 151.43 374.36 L 151.97 374.39 L 152.06 374.33 L 152.13 374.33 L 152.75 374.27 L 153.92 374.13 L 154.28 371.12 L 154.38 371.12 L 155.08 371.05 L 155.89 371.03 L 155.90 371.03 L 155.90 371.03 L 166.84 371.03 L 166.92 371.03 L 167.06 371.03 L 167.12 370.99 L 167.53 370.97 L 167.72 370.97 L 168.18 370.97 L 168.25 370.97 L 168.38 370.95 L 168.52 370.95 L 168.56 370.95 L 168.68 370.91 L 168.80 370.91 L 168.92 370.91 L 169.22 370.75 L 169.49 370.75 L 169.54 370.75 L 169.67 370.75 L 170.54 371.88 L 170.55 371.88 L 170.67 371.86 L 171.16 371.69 L 171.56 371.51 L 172.01 371.42 L 172.10 371.36 L 172.11 371.36 L 172.20 371.36 L 172.37 371.36 L 172.59 371.29 L 173.02 371.22 L 173.04 371.22 L 173.12 371.22 L 173.22 371.20 L 173.47 371.20 L 173.50 371.20 L 173.75 371.18 L 173.85 371.18 L 173.95 371.18 L 174.05 371.18 L 175.38 371.05 L 175.70 371.04 L 176.44 370.98 L 176.60 370.98 L 176.72 370.98 L 176.78 370.98 L 177.29 370.89 L 177.52 370.89 L 177.78 370.78 L 177.91 370.77 L 178.22 370.52 L 178.35 370.43 L 178.53 370.43 L 178.70 370.43 L 179.29 366.91 L 179.31 366.85 L 179.34 366.85 L 179.54 366.51 L 189.68 366.51 L 190.73 364.99 L 190.77 364.99 L 192.01 364.99 L 192.12 364.99 L 192.23 364.83 L 192.53 364.80 L 192.67 364.80 L 192.72 364.80 L 192.88 364.80 L 193.24 364.80 L 193.25 364.47 L 193.39 364.46 L 193.53 364.46 L 193.69 364.43 L 193.88 364.42 L 193.96 364.42 L 193.99 364.42 L 194.16 364.42 L 194.19 364.42 L 194.38 364.42 L 194.42 364.42 L 194.71 362.92 L 194.76 362.92 L 194.86 362.74 L 194.98 362.74 L 195.15 362.74 L 195.22 362.73 L 195.79 362.72 L 195.80 362.72 L 195.91 362.63 L 196.16 362.63 L 196.39 361.77 L 196.46 361.67 L 196.57 361.67 L 196.62 361.67 L 196.75 361.64 L 197.39 355.35 L 197.46 355.40 L 197.67 355.40 L 197.74 355.40 L 197.79 355.39 L 197.89 355.39 L 197.99 355.31 L 198.22 355.31 L 198.38 355.31 L 198.50 355.30 L 198.58 355.30 L 199.15 355.29 L 199.46 355.28 L 199.55 355.12 L 199.82 355.12 L 199.85 355.12 L 199.87 355.12 L 200.04 354.70 L 200.17 354.59 L 200.64 353.10 L 200.72 353.10 L 200.81 353.10 L 200.93 353.12 L 200.95 353.12 L 201.00 353.12 L 201.05 353.12 L 201.12 353.12 L 201.18 353.12 L 201.36 353.09 L 201.50 353.09 L 201.63 353.07 L 201.82 353.07 L 202.02 353.06 L 202.22 352.50 L 202.37 352.32 L 202.66 352.32 L 202.67 352.31 L 202.84 352.31 L 217.01 352.31 L 217.28 352.30 L 217.94 352.20 L 218.08 352.19 L 218.19 352.19 L 218.21 352.19 L 218.46 352.19 L 218.62 352.19 L 218.72 352.19 L 218.82 352.19 L 218.88 352.18 L 219.13 352.18 L 219.64 352.21 L 219.77 352.21 L 219.87 352.21 L 219.99 352.21 L 220.65 352.09 L 220.74 352.03 L 220.78 352.03 L 220.82 351.96 L 220.97 351.95 L 221.08 351.95 L 221.56 351.38 L 222.24 351.38 L 222.49 351.38 L 223.25 351.38 L 223.60 347.52 L 223.73 347.52 L 223.89 347.52 L 224.11 347.51 L 224.45 347.51 L 224.93 347.51 L 225.58 347.51 L 225.67 347.51 L 226.14 347.42 L 226.44 347.26 L 226.54 347.26 L 226.72 347.26 L 226.86 347.24 L 228.54 346.99 L 230.13 346.99 L 244.39 346.99 L 244.49 346.99 L 244.56 346.99 L 245.01 346.99 L 246.34 345.78 L 246.40 345.74 L 246.58 345.61 L 247.24 345.61 L 247.55 345.31 L 248.02 345.32 L 248.13 345.32 L 248.23 345.32 L 249.06 341.94 L 249.16 341.94 L 249.33 341.94 L 249.52 341.94 L 249.60 341.72 L 250.06 341.31 L 250.23 341.31 L 250.31 341.31 L 250.41 340.69 L 250.62 340.07 L 250.70 340.07 L 250.91 340.05 L 251.53 335.02 L 251.58 335.02 L 251.64 335.02 L 251.74 335.02 L 251.89 335.02 L 251.95 335.02 L 252.01 335.02 L 252.31 335.02 L 252.38 334.91 L 252.74 334.88 L 252.95 334.82 L 253.09 334.21 L 254.19 324.18 L 254.32 324.18 L 296.22 324.18 L 296.26 324.18 L 312.27 324.18 L 313.14 324.03 L 313.32 324.03 L 313.55 324.03 L 313.63 324.03 L 313.73 324.03 L 320.67 323.95 L 321.59 323.86 L 321.93 323.86 L 322.11 323.82 L 326.43 323.74 L 326.46 323.60 L 326.73 323.61 L 328.02 322.25 L 328.10 322.25 L 328.26 322.25 L 328.71 322.25 L 328.77 322.25 L 328.95 322.25 L 329.15 322.25 L 329.18 322.25 L 342.64 322.22 L 342.74 321.98 L 343.27 321.98 L 343.28 320.35 L 343.38 320.35 L 343.49 320.35 L 343.64 320.19 L 343.87 320.19 L 344.06 320.12 L 344.23 320.12 L 344.30 320.12 L 344.57 320.10 L 345.50 317.32 L 345.88 317.32 L 345.94 317.30 L 346.02 317.30 L 346.07 317.30 L 346.20 317.26 L 346.58 316.91 L 346.63 316.86 L 346.86 314.37 L 346.95 314.36 L 346.99 314.36 L 347.08 314.32 L 347.13 314.32 L 347.18 314.32 L 347.48 312.95 L 347.61 312.94 L 347.77 312.91 L 347.89 308.68 L 347.93 308.67 L 348.23 306.29 L 348.31 306.29 L 348.37 306.29 L 348.44 306.29 L 348.49 306.29 L 348.53 306.29 L 348.55 306.29 L 348.70 301.88 L 348.75 301.88 L 348.89 301.86 L 349.00 301.86 L 349.30 301.77 L 349.67 301.66 L 349.68 301.66 L 349.78 301.63 L 350.13 301.56 L 350.29 301.56 L 350.46 301.56 L 350.63 299.66 L 350.75 299.66 L 351.22 299.65 L 351.27 299.64 L 351.32 299.64 L 351.36 299.64 L 351.67 296.93 L 351.73 296.93 L 351.96 296.91 L 372.66 296.91 L 373.84 296.90 L 373.87 296.90 L 374.11 296.90 L 374.13 296.90 L 374.28 296.90 L 374.39 296.90 L 374.49 296.76 L 374.64 296.76 L 374.68 296.76 L 374.73 296.76 L 374.95 296.52 L 375.40 296.36 L 375.69 296.20 L 376.00 295.43 L 376.02 295.43 L 376.07 295.24 L 376.11 295.22 L 376.73 294.75 L 376.74 294.75 L 376.83 294.68 L 377.10 294.68 L 377.27 294.64 L 377.30 293.51 L 377.32 293.51 L 377.39 294.62 L 377.44 294.56 L 377.46 294.54 L 377.61 293.03 L 377.62 293.03 L 377.95 292.97 L 378.83 292.97 L 379.04 292.97 L 379.11 292.97 L 379.15 292.97 L 379.20 292.97 L 379.33 292.87 L 393.48 291.62 L 393.50 291.62 L 393.62 291.61 L 393.66 291.34 L 393.74 277.96 L 393.89 272.98 L 393.91 272.98 L 394.17 272.89 L 394.23 272.89 L 394.28 272.87 L 394.51 272.87 L 395.12 271.65 L 395.13 271.65 L 395.29 271.59 L 395.35 271.59 L 395.38 271.48 L 395.89 270.76 L 395.91 270.76 L 396.68 270.61 L 396.77 270.56 L 397.05 270.57 L 397.37 268.93 L 397.45 268.76 L 397.50 268.61 L 397.65 267.99 L 398.05 267.84 L 398.12 267.71 L 398.30 267.71 L 398.49 267.71 L 399.09 267.71 L 399.15 267.71 L 399.29 267.71 L 399.30 267.71 L 399.49 267.73 L 399.94 267.73 L 400.41 267.55 L 400.48 267.55 L 400.58 267.53 L 400.71 267.53 L 401.07 267.53 L 401.67 267.53 L 401.86 267.39 L 402.18 263.07 L 403.49 267.14 L 403.77 267.12 L 403.98 267.11 L 404.30 267.11 L 404.41 267.07 L 404.73 267.04 L 405.24 266.79 L 405.31 266.79 L 405.41 266.79 L 405.47 266.79 L 405.52 266.79 L 405.92 266.55 L 415.30 266.55 L 415.39 266.56 L 415.97 266.54 L 416.03 266.54 L 416.16 266.50 L 416.26 266.20 L 416.28 266.19 L 416.60 266.16 L 416.68 266.16 L 418.60 265.92 L 418.83 265.92 L 418.99 265.92 L 419.03 265.92 L 419.62 265.74 L 419.83 265.74 L 419.87 265.74 L 420.18 265.73 L 420.53 264.71 L 420.58 264.71 L 420.87 264.54 L 420.99 264.54 L 421.10 264.54 L 421.34 264.54 L 421.87 264.52 L 421.97 264.50 L 422.06 264.40 L 422.27 264.23 L 422.79 264.07 L 423.25 259.99 L 423.34 259.86 L 423.81 259.66 L 423.89 259.61 L 423.97 259.47 L 424.02 259.19 L 424.18 257.96 L 424.22 258.02 L 424.29 257.99 L 424.56 257.99 L 424.97 257.82 L 425.22 257.75 L 425.51 257.74 L 425.64 257.72 L 425.93 257.71 L 426.40 257.71 L 426.87 257.69 L 427.23 257.69 L 427.32 257.68 L 427.41 257.68 L 427.41 257.67 L 427.69 257.67 L 427.77 257.66 L 427.88 257.51 L 428.65 257.49 L 428.66 257.49 L 428.87 257.47 L 429.77 257.47 L 430.37 257.27 L 430.80 257.09 L 430.81 257.09 L 430.85 257.09 L 443.99 257.09 L 444.03 257.09 L 444.18 257.09 L 444.25 257.09 L 444.30 257.07 L 444.31 257.07 L 444.87 257.07 L 444.99 257.05 L 445.16 257.02 L 445.44 257.00 L 445.62 257.00 L 445.85 256.90 L 445.97 256.90 L 446.03 256.90 L 446.10 256.90 L 446.26 256.53 L 446.29 256.53 L 446.34 256.53 L 446.48 256.53 L 446.58 256.53 L 446.69 256.62 L 446.85 256.62 L 447.18 256.60 L 447.32 256.60 L 447.44 256.60 L 448.25 255.41 L 448.94 255.08 L 449.77 254.23 L 449.98 254.23 L 450.22 254.23 L 450.48 254.23 L 455.31 254.12 L 455.70 254.12 L 501.47 253.96 L 645.58 253.74 L 646.06 253.67 L 646.39 253.66 L 646.72 253.66 L 647.22 253.11 L 647.39 253.11 L 647.52 253.11 L 647.75 251.10 L 648.09 251.49 L 648.35 251.46 L 648.42 251.46 L 648.64 251.44 L 648.69 251.44 L 648.93 251.44 L 649.14 251.34 L 649.79 250.08 L 649.81 250.08 L 650.00 249.96"/>
	</g>
	<g id="poloto_plot2" class="poloto_plot poloto_imgs poloto_line poloto2 poloto_stroke" fill="none" stroke="black">
		<path d=" M 150.00 389.06 L 150.04 389.06 L 150.06 389.06 L 150.07 389.06 L 150.10 389.06 L 150.14 386.26 L 150.29 385.87 L 150.65 385.87 L 151.17 385.85 L 151.43 384.17 L 151.97 384.03 L 152.06 383.98 L 152.13 383.94 L 152.75 383.18 L 153.92 382.60 L 154.28 382.49 L 154.38 382.49 L 155.08 382.45 L 155.89 382.45 L 155.90 382.45 L 155.90 382.45 L 166.84 382.45 L 166.92 382.44 L 167.06 382.42 L 167.12 382.42 L 167.53 382.25 L 167.72 382.20 L 168.18 381.93 L 168.25 381.81 L 168.38 381.56 L 168.52 381.53 L 168.56 381.52 L 168.68 381.48 L 168.80 381.48 L 168.92 381.48 L 169.22 381.20 L 169.49 380.94 L 169.54 380.94 L 169.67 380.79 L 170.54 380.45 L 170.55 380.45 L 170.67 380.35 L 171.16 379.98 L 171.56 379.52 L 172.01 379.33 L 172.10 379.33 L 172.11 379.34 L 172.20 379.08 L 172.37 379.08 L 172.59 379.05 L 173.02 378.86 L 173.04 378.53 L 173.12 378.53 L 173.22 378.38 L 173.47 378.38 L 173.50 378.38 L 173.75 377.88 L 173.85 377.85 L 173.95 377.81 L 174.05 377.58 L 175.38 377.45 L 175.70 377.40 L 176.44 377.06 L 176.60 377.06 L 176.72 377.04 L 176.78 376.79 L 177.29 375.42 L 177.52 375.40 L 177.78 374.99 L 177.91 374.95 L 178.22 374.76 L 178.35 374.70 L 178.53 374.40 L 178.70 374.16 L 179.29 374.16 L 179.31 374.13 L 179.34 373.94 L 179.54 372.61 L 189.68 372.48 L 190.73 372.08 L 190.77 372.03 L 192.01 371.70 L 192.12 371.69 L 192.23 371.44 L 192.53 371.28 L 192.67 370.98 L 192.72 370.73 L 192.88 370.24 L 193.24 370.23 L 193.25 370.23 L 193.39 369.88 L 193.53 369.88 L 193.69 369.52 L 193.88 369.24 L 193.96 369.08 L 193.99 369.07 L 194.16 368.74 L 194.19 368.74 L 194.38 368.43 L 194.42 368.42 L 194.71 368.32 L 194.76 368.32 L 194.86 368.21 L 194.98 368.18 L 195.15 368.18 L 195.22 368.16 L 195.79 367.86 L 195.80 367.87 L 195.91 367.28 L 196.16 367.26 L 196.39 367.07 L 196.46 367.07 L 196.57 367.07 L 196.62 367.02 L 196.75 366.20 L 197.39 365.51 L 197.46 365.14 L 197.67 365.11 L 197.74 365.01 L 197.79 365.00 L 197.89 364.82 L 197.99 364.18 L 198.22 364.08 L 198.38 364.06 L 198.50 363.73 L 198.58 363.72 L 199.15 363.48 L 199.46 363.31 L 199.55 363.16 L 199.82 363.15 L 199.85 363.15 L 199.87 363.12 L 200.04 361.95 L 200.17 361.94 L 200.64 361.77 L 200.72 361.30 L 200.81 361.30 L 200.93 361.10 L 200.95 360.99 L 201.00 360.91 L 201.05 360.87 L 201.12 360.86 L 201.18 360.77 L 201.36 359.46 L 201.50 359.32 L 201.63 358.93 L 201.82 358.90 L 202.02 358.77 L 202.22 358.36 L 202.37 357.22 L 202.66 357.13 L 202.67 356.64 L 202.84 356.53 L 217.01 356.53 L 217.28 356.53 L 217.94 355.99 L 218.08 355.99 L 218.19 355.99 L 218.21 355.85 L 218.46 355.62 L 218.62 355.58 L 218.72 355.44 L 218.82 355.34 L 218.88 355.29 L 219.13 355.21 L 219.64 355.32 L 219.77 354.96 L 219.87 354.87 L 219.99 354.86 L 220.65 354.79 L 220.74 354.72 L 220.78 354.72 L 220.82 354.65 L 220.97 354.59 L 221.08 354.46 L 221.56 354.12 L 222.24 353.97 L 222.49 353.91 L 223.25 353.69 L 223.60 353.16 L 223.73 353.07 L 223.89 352.66 L 224.11 352.12 L 224.45 351.98 L 224.93 351.97 L 225.58 351.94 L 225.67 351.75 L 226.14 351.61 L 226.44 351.45 L 226.54 351.31 L 226.72 351.26 L 226.86 350.90 L 228.54 350.72 L 230.13 350.72 L 244.39 350.68 L 244.49 350.49 L 244.56 350.36 L 245.01 350.16 L 246.34 349.80 L 246.40 349.75 L 246.58 349.50 L 247.24 349.40 L 247.55 348.71 L 248.02 348.69 L 248.13 348.67 L 248.23 347.99 L 249.06 347.35 L 249.16 347.35 L 249.33 347.31 L 249.52 347.25 L 249.60 347.02 L 250.06 345.96 L 250.23 345.69 L 250.31 345.67 L 250.41 345.55 L 250.62 345.14 L 250.70 344.08 L 250.91 343.64 L 251.53 343.39 L 251.58 342.86 L 251.64 342.86 L 251.74 342.76 L 251.89 342.62 L 251.95 342.58 L 252.01 342.53 L 252.31 341.29 L 252.38 340.56 L 252.74 340.42 L 252.95 339.19 L 253.09 338.96 L 254.19 337.02 L 254.32 336.98 L 296.22 336.41 L 296.26 336.41 L 312.27 336.25 L 313.14 336.05 L 313.32 336.05 L 313.55 335.95 L 313.63 335.79 L 313.73 335.76 L 320.67 335.74 L 321.59 333.51 L 321.93 333.32 L 322.11 332.55 L 326.43 332.45 L 326.46 332.38 L 326.73 332.36 L 328.02 332.23 L 328.10 331.97 L 328.26 331.88 L 328.71 331.77 L 328.77 331.73 L 328.95 331.30 L 329.15 331.17 L 329.18 330.84 L 342.64 330.42 L 342.74 329.41 L 343.27 329.15 L 343.28 328.76 L 343.38 328.46 L 343.49 327.99 L 343.64 326.76 L 343.87 326.09 L 344.06 325.22 L 344.23 325.22 L 344.30 324.55 L 344.57 324.50 L 345.50 323.87 L 345.88 323.57 L 345.94 323.39 L 346.02 323.39 L 346.07 323.17 L 346.20 322.41 L 346.58 322.33 L 346.63 322.33 L 346.86 321.83 L 346.95 321.83 L 346.99 321.55 L 347.08 321.37 L 347.13 321.36 L 347.18 320.97 L 347.48 320.73 L 347.61 320.34 L 347.77 320.32 L 347.89 320.11 L 347.93 319.81 L 348.23 319.65 L 348.31 319.47 L 348.37 319.47 L 348.44 319.47 L 348.49 319.16 L 348.53 319.17 L 348.55 319.16 L 348.70 319.06 L 348.75 318.72 L 348.89 318.72 L 349.00 318.63 L 349.30 318.61 L 349.67 318.57 L 349.68 318.57 L 349.78 318.55 L 350.13 318.55 L 350.29 318.55 L 350.46 318.55 L 350.63 318.49 L 350.75 318.09 L 351.22 318.08 L 351.27 317.84 L 351.32 317.84 L 351.36 317.57 L 351.67 317.47 L 351.73 317.41 L 351.96 317.41 L 372.66 317.33 L 373.84 317.22 L 373.87 317.22 L 374.11 317.22 L 374.13 317.22 L 374.28 316.74 L 374.39 316.72 L 374.49 316.59 L 374.64 316.52 L 374.68 316.47 L 374.73 316.45 L 374.95 316.40 L 375.40 316.31 L 375.69 315.66 L 376.00 315.63 L 376.02 315.59 L 376.07 315.05 L 376.11 315.04 L 376.73 315.04 L 376.74 314.99 L 376.83 314.49 L 377.10 314.43 L 377.27 314.41 L 377.30 314.40 L 377.32 314.34 L 377.39 314.31 L 377.44 313.80 L 377.46 313.78 L 377.61 313.78 L 377.62 313.74 L 377.95 313.69 L 378.83 313.67 L 379.04 313.63 L 379.11 313.62 L 379.15 313.45 L 379.20 313.45 L 379.33 312.88 L 393.48 312.70 L 393.50 312.54 L 393.62 312.42 L 393.66 312.40 L 393.74 311.91 L 393.89 311.79 L 393.91 311.76 L 394.17 311.76 L 394.23 311.76 L 394.28 311.27 L 394.51 311.22 L 395.12 311.20 L 395.13 311.17 L 395.29 310.90 L 395.35 310.91 L 395.38 310.46 L 395.89 310.46 L 395.91 310.44 L 396.68 310.32 L 396.77 309.79 L 397.05 309.79 L 397.37 309.79 L 397.45 309.39 L 397.50 309.08 L 397.65 309.07 L 398.05 309.00 L 398.12 308.98 L 398.30 308.85 L 398.49 308.85 L 399.09 308.86 L 399.15 308.86 L 399.29 308.83 L 399.30 308.82 L 399.49 308.82 L 399.94 308.79 L 400.41 308.74 L 400.48 308.73 L 400.58 308.68 L 400.71 308.53 L 401.07 308.53 L 401.67 308.36 L 401.86 308.06 L 402.18 308.02 L 403.49 307.69 L 403.77 307.69 L 403.98 307.69 L 404.30 307.68 L 404.41 307.66 L 404.73 307.49 L 405.24 307.47 L 405.31 307.32 L 405.41 307.25 L 405.47 307.27 L 405.52 307.21 L 405.92 307.19 L 415.30 307.18 L 415.39 307.18 L 415.97 307.18 L 416.03 307.16 L 416.16 306.71 L 416.26 306.69 L 416.28 306.70 L 416.60 306.68 L 416.68 306.66 L 418.60 306.00 L 418.83 305.93 L 418.99 305.91 L 419.03 305.91 L 419.62 305.89 L 419.83 305.99 L 419.87 305.98 L 420.18 305.94 L 420.53 305.31 L 420.58 305.30 L 420.87 305.28 L 420.99 305.28 L 421.10 305.28 L 421.34 305.15 L 421.87 304.58 L 421.97 304.58 L 422.06 304.49 L 422.27 303.98 L 422.79 303.40 L 423.25 303.44 L 423.34 303.13 L 423.81 303.13 L 423.89 303.10 L 423.97 303.06 L 424.02 302.76 L 424.18 302.76 L 424.22 302.76 L 424.29 302.76 L 424.56 302.76 L 424.97 302.51 L 425.22 302.49 L 425.51 302.49 L 425.64 302.49 L 425.93 302.49 L 426.40 302.49 L 426.87 302.49 L 427.23 302.48 L 427.32 302.48 L 427.41 302.47 L 427.41 302.36 L 427.69 302.29 L 427.77 302.29 L 427.88 302.27 L 428.65 302.27 L 428.66 301.97 L 428.87 301.97 L 429.77 301.98 L 430.37 301.97 L 430.80 301.91 L 430.81 301.79 L 430.85 301.79 L 443.99 301.59 L 444.03 301.58 L 444.18 301.57 L 444.25 301.39 L 444.30 301.39 L 444.31 301.37 L 444.87 301.32 L 444.99 300.72 L 445.16 300.58 L 445.44 299.40 L 445.62 299.39 L 445.85 298.88 L 445.97 298.94 L 446.03 298.93 L 446.10 298.29 L 446.26 298.17 L 446.29 297.73 L 446.34 297.66 L 446.48 297.62 L 446.58 297.39 L 446.69 300.06 L 446.85 300.01 L 447.18 298.94 L 447.32 298.71 L 447.44 298.47 L 448.25 298.05 L 448.94 297.60 L 449.77 296.97 L 449.98 296.91 L 450.22 296.91 L 450.48 296.85 L 455.31 296.54 L 455.70 296.50 L 501.47 295.67 L 645.58 295.64 L 646.06 295.27 L 646.39 295.21 L 646.72 295.21 L 647.22 294.87 L 647.39 294.48 L 647.52 293.75 L 647.75 293.55 L 648.09 293.62 L 648.35 293.19 L 648.42 293.19 L 648.64 293.06 L 648.69 293.06 L 648.93 292.35 L 649.14 291.25 L 649.79 291.15 L 649.81 291.03 L 650.00 289.63"/>
	</g>
	<g class="poloto_legend poloto_imgs poloto_line poloto0 poloto_stroke"><line x1="680" x2="730" y1="81.25" y2="81.25"/></g>
	<g class="poloto_legend poloto_imgs poloto_line poloto1 poloto_stroke"><line x1="680" x2="730" y1="131.25" y2="131.25"/></g>
	<g class="poloto_legend poloto_imgs poloto_line poloto2 poloto_stroke"><line x1="680" x2="730" y1="181.25" y2="181.25"/></g>
	<text class="poloto_legend poloto_text poloto_line poloto0" x="675" y="100">total</text>
	<text class="poloto_legend poloto_text poloto_line poloto1" x="675" y="150">code</text>
	<text class="poloto_legend poloto_text poloto_line poloto2" x="675" y="200">docs</text>
	<text class="poloto_text poloto_name poloto_title" x="400.00" y="37.50">Workspace lines over time</text>
	<text class="poloto_text poloto_name poloto_x" x="400.00" y="640">date (JST)</text>
	<text class="poloto_text poloto_name poloto_y" x="37.50" y="250.00" transform="rotate(-90,37.50,250.00)">lines</text>
	<text class="poloto_text poloto_ticks poloto_y">
		<tspan x="135.00" y="400.00">0</tspan>
		<tspan x="135.00" y="296.03">50K</tspan>
		<tspan x="135.00" y="192.07">100K</tspan>
	</text>
	<g class="poloto_imgs poloto_ticks poloto_y" stroke="black">
		<line x1="150.00" x2="144.00" y1="400.00" y2="400.00"/>
		<line x1="150.00" x2="144.00" y1="296.03" y2="296.03"/>
		<line x1="150.00" x2="144.00" y1="192.07" y2="192.07"/>
	</g>
	<g class="poloto_text poloto_ticks poloto_x">
		<text x="186.20" y="430.00" text-anchor="end" transform="rotate(-90 186.20 430.00)">2026-04-22 04:33</text>
		<text x="244.21" y="430.00" text-anchor="end" transform="rotate(-90 244.21 430.00)">2026-04-24 12:06</text>
		<text x="302.21" y="430.00" text-anchor="end" transform="rotate(-90 302.21 430.00)">2026-04-26 19:40</text>
		<text x="360.22" y="430.00" text-anchor="end" transform="rotate(-90 360.22 430.00)">2026-04-29 03:13</text>
		<text x="418.22" y="430.00" text-anchor="end" transform="rotate(-90 418.22 430.00)">2026-05-01 10:46</text>
		<text x="476.23" y="430.00" text-anchor="end" transform="rotate(-90 476.23 430.00)">2026-05-03 18:20</text>
		<text x="534.24" y="430.00" text-anchor="end" transform="rotate(-90 534.24 430.00)">2026-05-06 01:53</text>
		<text x="592.24" y="430.00" text-anchor="end" transform="rotate(-90 592.24 430.00)">2026-05-08 09:26</text>
	</g>
	<g class="poloto_imgs poloto_ticks poloto_x" stroke="black">
		<line x1="186.20" x2="186.20" y1="400.00" y2="405.00"/>
		<line x1="244.21" x2="244.21" y1="400.00" y2="405.00"/>
		<line x1="302.21" x2="302.21" y1="400.00" y2="405.00"/>
		<line x1="360.22" x2="360.22" y1="400.00" y2="405.00"/>
		<line x1="418.22" x2="418.22" y1="400.00" y2="405.00"/>
		<line x1="476.23" x2="476.23" y1="400.00" y2="405.00"/>
		<line x1="534.24" x2="534.24" y1="400.00" y2="405.00"/>
		<line x1="592.24" x2="592.24" y1="400.00" y2="405.00"/>
	</g>
	<path class="poloto_imgs poloto_ticks poloto_x" stroke="black" style="stroke-dasharray:7.250693601349905;stroke-dashoffset:-36.20213309605606;" d=" M 150.00 400.00 L 650.00 400.00"/>
	<path class="poloto_imgs poloto_ticks poloto_y" stroke="black" style="stroke-dasharray:10.39652340257418;stroke-dashoffset:-0;" d=" M 150.00 400.00 L 150.00 100.00"/>
</svg>

