<svg class="poloto" width="800" height="680" viewBox="0 0 800 680" xmlns="http://www.w3.org/2000/svg">
	<style>
.poloto{
  stroke-linecap:round;
  stroke-linejoin:round;
  font-family:Roboto,sans-serif;
  font-size:16px;
}
.poloto_background{fill:AliceBlue;}
.poloto_scatter{stroke-width:7}
.poloto_line{stroke-width:2}
.poloto_text{fill: black;}
.poloto_name{font-size:24px;dominant-baseline:auto;text-anchor:middle;}
.poloto_where{dominant-baseline:middle;text-anchor:start}
.poloto_text.poloto_legend{font-size:20px;dominant-baseline:middle;text-anchor:start;}
.poloto_text.poloto_ticks.poloto_y{dominant-baseline:middle;text-anchor:end}
.poloto_text.poloto_ticks.poloto_x{dominant-baseline:auto;text-anchor:middle}
.poloto_imgs.poloto_ticks{stroke: black;stroke-width:3;fill:none;stroke-dasharray:none}
.poloto_grid{stroke:gray;stroke-width:0.5}

.poloto0.poloto_stroke{stroke:blue;}
.poloto1.poloto_stroke{stroke:red;}
.poloto2.poloto_stroke{stroke:green;}
.poloto3.poloto_stroke{stroke:gold;}
.poloto4.poloto_stroke{stroke:aqua;}
.poloto5.poloto_stroke{stroke:lime;}
.poloto6.poloto_stroke{stroke:orange;}
.poloto7.poloto_stroke{stroke:chocolate;}
.poloto0.poloto_fill{fill:blue;}
.poloto1.poloto_fill{fill:red;}
.poloto2.poloto_fill{fill:green;}
.poloto3.poloto_fill{fill:gold;}
.poloto4.poloto_fill{fill:aqua;}
.poloto5.poloto_fill{fill:lime;}
.poloto6.poloto_fill{fill:orange;}
.poloto7.poloto_fill{fill:chocolate;}
	</style>
	<circle r="1e5" class="poloto_background" fill="white"/>
	<g id="poloto_plot0" class="poloto_plot poloto_imgs poloto_line poloto0 poloto_stroke" fill="none" stroke="black">
		<path d=" M 150.00 364.17 L 150.04 364.14 L 150.05 364.12 L 150.07 364.12 L 150.10 364.12 L 150.13 360.23 L 150.28 359.76 L 150.61 359.74 L 151.11 359.42 L 151.36 357.45 L 151.87 357.32 L 151.96 357.22 L 152.02 357.18 L 152.61 356.21 L 153.72 355.43 L 154.07 352.38 L 154.16 352.38 L 154.83 352.26 L 155.59 352.25 L 155.60 352.25 L 155.61 352.25 L 165.99 352.25 L 166.07 352.24 L 166.20 352.22 L 166.26 352.18 L 166.65 352.00 L 166.83 351.96 L 167.27 351.67 L 167.33 351.55 L 167.46 351.27 L 167.59 351.23 L 167.63 351.23 L 167.74 351.16 L 167.85 351.16 L 167.97 351.16 L 168.25 350.71 L 168.51 350.43 L 168.56 350.43 L 168.68 350.26 L 169.51 350.96 L 169.52 350.96 L 169.63 350.85 L 170.10 350.32 L 170.48 349.70 L 170.90 349.43 L 170.99 349.37 L 171.00 349.38 L 171.08 349.14 L 171.25 349.14 L 171.45 349.05 L 171.86 348.81 L 171.89 348.45 L 171.96 348.45 L 172.06 348.26 L 172.29 348.26 L 172.32 348.26 L 172.56 347.74 L 172.66 347.71 L 172.74 347.67 L 172.84 347.46 L 174.10 347.18 L 174.41 347.12 L 175.11 346.75 L 175.26 346.75 L 175.37 346.74 L 175.43 346.47 L 175.92 344.93 L 176.14 344.90 L 176.39 344.38 L 176.51 344.33 L 176.80 343.90 L 176.93 343.75 L 177.10 343.47 L 177.26 343.23 L 177.82 339.67 L 177.84 339.59 L 177.86 339.37 L 178.06 337.66 L 187.69 337.54 L 188.69 335.59 L 188.72 335.54 L 189.90 335.24 L 190.00 335.23 L 190.11 334.85 L 190.40 334.65 L 190.53 334.32 L 190.58 334.03 L 190.72 333.52 L 191.07 333.51 L 191.08 333.16 L 191.21 332.78 L 191.34 332.78 L 191.49 332.35 L 191.68 332.04 L 191.75 331.89 L 191.78 331.88 L 191.95 331.55 L 191.97 331.54 L 192.15 331.21 L 192.18 331.20 L 192.46 329.59 L 192.51 329.59 L 192.60 329.32 L 192.72 329.31 L 192.88 329.31 L 192.95 329.27 L 193.49 328.97 L 193.50 328.98 L 193.60 328.27 L 193.85 328.25 L 194.06 327.18 L 194.13 327.09 L 194.23 327.08 L 194.28 327.04 L 194.40 326.21 L 195.01 319.23 L 195.07 318.89 L 195.28 318.86 L 195.34 318.78 L 195.39 318.75 L 195.49 318.57 L 195.58 317.78 L 195.80 317.62 L 195.95 317.60 L 196.07 317.25 L 196.14 317.24 L 196.68 316.98 L 196.98 316.78 L 197.06 316.47 L 197.32 316.46 L 197.34 316.46 L 197.37 316.43 L 197.52 314.75 L 197.65 314.65 L 198.10 312.96 L 198.17 312.47 L 198.26 312.45 L 198.38 312.27 L 198.39 312.14 L 198.44 312.06 L 198.48 312.02 L 198.55 312.01 L 198.60 311.92 L 198.78 310.54 L 198.91 310.34 L 199.04 309.93 L 199.21 309.90 L 199.41 309.77 L 199.60 308.80 L 199.74 307.44 L 200.02 307.36 L 200.02 306.85 L 200.19 306.69 L 213.64 306.69 L 213.90 306.67 L 214.53 305.96 L 214.66 305.94 L 214.77 305.94 L 214.79 305.76 L 215.02 305.54 L 215.18 305.50 L 215.27 305.37 L 215.36 305.27 L 215.42 305.22 L 215.66 305.16 L 216.14 305.07 L 216.27 304.70 L 216.36 304.61 L 216.47 304.60 L 217.10 304.41 L 217.19 304.30 L 217.23 304.30 L 217.27 304.17 L 217.40 304.10 L 217.51 303.97 L 217.96 303.06 L 218.61 302.91 L 218.85 302.86 L 219.57 302.63 L 219.91 298.24 L 220.03 298.15 L 220.17 297.72 L 220.39 297.14 L 220.71 296.98 L 221.17 296.96 L 221.78 296.95 L 221.87 296.75 L 222.31 296.55 L 222.60 296.24 L 222.69 296.10 L 222.87 296.06 L 223.00 295.66 L 224.59 295.23 L 226.11 295.23 L 239.65 295.19 L 239.74 295.00 L 239.81 294.88 L 240.24 294.69 L 241.50 293.18 L 241.55 293.08 L 241.73 292.69 L 242.35 292.59 L 242.65 291.57 L 243.10 291.56 L 243.20 291.54 L 243.30 290.84 L 244.08 286.85 L 244.18 286.85 L 244.34 286.81 L 244.52 286.76 L 244.60 286.33 L 245.04 284.82 L 245.19 284.55 L 245.27 284.53 L 245.37 283.83 L 245.56 282.85 L 245.64 281.81 L 245.84 281.35 L 246.42 276.16 L 246.48 275.64 L 246.54 275.64 L 246.63 275.54 L 246.77 275.41 L 246.83 275.36 L 246.89 275.31 L 247.17 274.06 L 247.23 273.19 L 247.58 273.01 L 247.78 271.71 L 247.91 270.88 L 248.96 258.79 L 249.08 258.76 L 288.87 258.18 L 288.91 258.18 L 304.12 258.01 L 304.95 257.68 L 305.12 257.68 L 305.34 257.59 L 305.41 257.44 L 305.50 257.39 L 312.10 257.31 L 312.97 255.01 L 313.29 254.80 L 313.46 253.96 L 317.57 253.79 L 317.60 253.55 L 317.85 253.53 L 319.08 252.08 L 319.15 251.82 L 319.30 251.73 L 319.74 251.63 L 319.79 251.59 L 319.96 251.15 L 320.15 251.03 L 320.18 250.71 L 332.96 250.27 L 333.06 249.03 L 333.56 248.75 L 333.57 246.68 L 333.66 246.37 L 333.77 245.86 L 333.91 244.43 L 334.13 243.67 L 334.31 242.79 L 334.47 242.78 L 334.54 242.10 L 334.80 242.04 L 335.68 238.70 L 336.04 238.34 L 336.10 238.13 L 336.17 238.13 L 336.22 237.89 L 336.34 237.07 L 336.70 236.68 L 336.76 236.63 L 336.98 233.69 L 337.06 233.68 L 337.09 233.36 L 337.18 233.12 L 337.23 233.12 L 337.28 232.68 L 337.56 231.09 L 337.68 230.64 L 337.84 230.58 L 337.95 226.33 L 337.99 225.98 L 338.27 223.56 L 338.35 223.37 L 338.40 223.36 L 338.47 223.36 L 338.52 223.01 L 338.56 223.03 L 338.57 223.02 L 338.71 218.73 L 338.76 218.35 L 338.90 218.33 L 339.00 218.26 L 339.29 218.13 L 339.64 217.97 L 339.65 217.97 L 339.75 217.92 L 340.08 217.84 L 340.23 217.84 L 340.39 217.84 L 340.55 215.97 L 340.66 215.52 L 341.11 215.51 L 341.15 215.22 L 341.21 215.21 L 341.25 214.89 L 341.54 212.19 L 341.59 212.12 L 341.81 212.10 L 361.47 212.03 L 362.59 211.89 L 362.63 211.89 L 362.85 211.89 L 362.87 211.89 L 363.01 211.35 L 363.12 211.33 L 363.22 211.06 L 363.35 211.00 L 363.39 210.96 L 363.44 210.94 L 363.65 210.63 L 364.08 210.37 L 364.35 209.50 L 364.65 208.67 L 364.66 208.62 L 364.71 207.85 L 364.75 207.82 L 365.34 207.36 L 365.35 207.31 L 365.44 206.70 L 365.69 206.63 L 365.85 206.57 L 365.89 205.47 L 365.90 205.42 L 365.97 206.46 L 366.01 205.82 L 366.04 205.80 L 366.18 204.33 L 366.19 204.29 L 366.50 204.17 L 367.34 204.15 L 367.54 204.10 L 367.60 204.08 L 367.64 203.89 L 367.69 203.89 L 367.81 203.17 L 381.25 201.76 L 381.27 201.57 L 381.38 201.44 L 381.42 201.17 L 381.49 188.93 L 381.64 183.92 L 381.66 183.89 L 381.91 183.79 L 381.96 183.79 L 382.01 183.21 L 382.22 183.16 L 382.80 181.97 L 382.82 181.94 L 382.96 181.58 L 383.02 181.59 L 383.05 181.00 L 383.54 180.30 L 383.55 180.28 L 384.29 180.01 L 384.38 179.38 L 384.64 179.39 L 384.94 177.81 L 385.02 177.19 L 385.07 176.69 L 385.21 176.08 L 385.59 175.86 L 385.66 175.71 L 385.83 175.57 L 386.01 175.57 L 386.57 175.57 L 386.64 175.57 L 386.77 175.54 L 386.78 175.54 L 386.96 175.56 L 387.39 175.53 L 387.83 175.30 L 387.89 175.30 L 387.99 175.20 L 388.12 175.04 L 388.45 175.04 L 389.02 174.82 L 389.21 174.33 L 389.52 170.11 L 390.75 173.67 L 391.02 173.66 L 391.22 173.64 L 391.53 173.64 L 391.63 173.57 L 391.94 173.37 L 392.42 173.08 L 392.48 172.88 L 392.58 172.80 L 392.64 172.82 L 392.68 172.76 L 393.06 172.50 L 401.97 172.49 L 402.05 172.50 L 402.61 172.48 L 402.66 172.46 L 402.79 171.93 L 402.89 171.62 L 402.90 171.62 L 403.21 171.58 L 403.28 171.55 L 405.11 170.75 L 405.32 170.69 L 405.48 170.67 L 405.52 170.67 L 406.08 170.48 L 406.27 170.57 L 406.31 170.57 L 406.61 170.51 L 406.94 168.85 L 406.99 168.83 L 407.26 168.64 L 407.38 168.64 L 407.48 168.64 L 407.71 168.46 L 408.21 167.78 L 408.30 167.76 L 408.39 167.57 L 408.60 166.78 L 409.09 165.95 L 409.52 162.07 L 409.61 161.59 L 410.06 161.41 L 410.13 161.31 L 410.21 161.12 L 410.25 160.50 L 410.41 159.38 L 410.44 159.43 L 410.51 159.40 L 410.77 159.40 L 411.15 158.99 L 411.39 158.91 L 411.67 158.89 L 411.80 158.88 L 412.07 158.87 L 412.52 158.87 L 412.96 158.86 L 413.31 158.85 L 413.39 158.84 L 413.47 158.83 L 413.48 158.69 L 413.74 158.61 L 413.82 158.60 L 413.92 158.43 L 414.65 158.40 L 414.66 158.07 L 414.86 158.05 L 415.72 158.06 L 416.28 157.85 L 416.70 157.61 L 416.71 157.47 L 416.74 157.47 L 429.22 157.24 L 429.26 157.23 L 429.41 157.22 L 429.47 157.02 L 429.52 157.00 L 429.53 156.99 L 430.06 156.94 L 430.18 156.24 L 430.34 156.08 L 430.60 154.69 L 430.77 154.68 L 430.98 154.09 L 431.10 154.16 L 431.16 154.16 L 431.22 153.49 L 431.38 153.03 L 431.40 152.54 L 431.46 152.47 L 431.59 152.43 L 431.68 152.20 L 431.79 154.84 L 431.94 154.80 L 432.25 153.74 L 432.38 153.48 L 432.50 153.26 L 433.27 151.74 L 433.92 151.01 L 434.71 149.61 L 434.91 149.54 L 435.14 149.54 L 435.38 149.48 L 439.97 149.08 L 440.35 149.05 L 483.82 147.98 L 620.69 147.73 L 621.14 147.30 L 621.46 147.25 L 621.77 147.25 L 622.25 146.42 L 622.41 146.03 L 622.53 145.29 L 622.75 143.16 L 623.07 143.59 L 623.32 143.13 L 623.38 143.12 L 623.59 142.98 L 623.64 142.99 L 623.86 142.20 L 624.07 140.96 L 624.68 139.63 L 624.70 139.52 L 624.88 137.94 L 625.47 134.02 L 625.49 133.89 L 625.60 133.80 L 625.74 132.40 L 626.38 130.52 L 626.39 130.34 L 626.53 130.26 L 626.68 129.33 L 626.92 128.59 L 626.93 128.45 L 627.04 127.02 L 627.06 126.98 L 627.11 126.58 L 627.38 124.03 L 627.42 123.89 L 627.51 123.74 L 627.80 123.40 L 627.86 123.39 L 628.09 122.90 L 628.47 122.96 L 628.52 122.89 L 628.57 122.86 L 628.64 122.82 L 628.83 121.32 L 629.03 120.10 L 629.06 119.99 L 629.18 118.47 L 629.29 116.98 L 629.32 116.79 L 629.44 115.04 L 629.50 113.67 L 629.73 112.74 L 629.77 112.68 L 629.88 112.39 L 630.05 112.37 L 631.03 112.33 L 631.52 112.28 L 642.21 112.34 L 642.32 112.08 L 642.42 111.85 L 642.61 110.82 L 643.01 110.55 L 643.04 110.45 L 643.11 109.09 L 643.37 107.78 L 643.40 107.67 L 645.73 107.58 L 645.87 106.83 L 647.05 106.61 L 647.18 106.56 L 647.32 105.03 L 648.73 103.59 L 649.34 103.04 L 649.49 101.92 L 650.00 100.00"/>
	</g>
	<g id="poloto_plot1" class="poloto_plot poloto_imgs poloto_line poloto1 poloto_stroke" fill="none" stroke="black">
		<path d=" M 150.00 378.71 L 150.04 378.69 L 150.05 378.68 L 150.07 378.68 L 150.10 378.68 L 150.13 378.00 L 150.28 377.98 L 150.61 377.97 L 151.11 377.71 L 151.36 377.60 L 151.87 377.63 L 151.96 377.58 L 152.02 377.58 L 152.61 377.53 L 153.72 377.40 L 154.07 374.77 L 154.16 374.77 L 154.83 374.71 L 155.59 374.70 L 155.60 374.70 L 155.61 374.70 L 165.99 374.70 L 166.07 374.70 L 166.20 374.69 L 166.26 374.66 L 166.65 374.64 L 166.83 374.64 L 167.27 374.64 L 167.33 374.64 L 167.46 374.62 L 167.59 374.62 L 167.63 374.62 L 167.74 374.59 L 167.85 374.59 L 167.97 374.59 L 168.25 374.45 L 168.51 374.45 L 168.56 374.45 L 168.68 374.45 L 169.51 375.44 L 169.52 375.44 L 169.63 375.42 L 170.10 375.27 L 170.48 375.11 L 170.90 375.04 L 170.99 374.99 L 171.00 374.99 L 171.08 374.99 L 171.25 374.99 L 171.45 374.92 L 171.86 374.86 L 171.89 374.86 L 171.96 374.86 L 172.06 374.84 L 172.29 374.84 L 172.32 374.84 L 172.56 374.83 L 172.66 374.83 L 172.74 374.83 L 172.84 374.83 L 174.10 374.71 L 174.41 374.70 L 175.11 374.65 L 175.26 374.65 L 175.37 374.65 L 175.43 374.65 L 175.92 374.57 L 176.14 374.57 L 176.39 374.47 L 176.51 374.46 L 176.80 374.25 L 176.93 374.17 L 177.10 374.17 L 177.26 374.17 L 177.82 371.09 L 177.84 371.04 L 177.86 371.04 L 178.06 370.74 L 187.69 370.74 L 188.69 369.42 L 188.72 369.42 L 189.90 369.42 L 190.00 369.41 L 190.11 369.27 L 190.40 369.25 L 190.53 369.25 L 190.58 369.25 L 190.72 369.25 L 191.07 369.25 L 191.08 368.97 L 191.21 368.95 L 191.34 368.95 L 191.49 368.92 L 191.68 368.92 L 191.75 368.92 L 191.78 368.92 L 191.95 368.92 L 191.97 368.92 L 192.15 368.92 L 192.18 368.92 L 192.46 367.61 L 192.51 367.61 L 192.60 367.45 L 192.72 367.45 L 192.88 367.45 L 192.95 367.44 L 193.49 367.44 L 193.50 367.44 L 193.60 367.36 L 193.85 367.36 L 194.06 366.61 L 194.13 366.52 L 194.23 366.52 L 194.28 366.52 L 194.40 366.49 L 195.01 361.00 L 195.07 361.04 L 195.28 361.04 L 195.34 361.04 L 195.39 361.03 L 195.49 361.03 L 195.58 360.96 L 195.80 360.96 L 195.95 360.96 L 196.07 360.95 L 196.14 360.95 L 196.68 360.94 L 196.98 360.94 L 197.06 360.80 L 197.32 360.80 L 197.34 360.80 L 197.37 360.80 L 197.52 360.43 L 197.65 360.33 L 198.10 359.03 L 198.17 359.03 L 198.26 359.03 L 198.38 359.05 L 198.39 359.05 L 198.44 359.05 L 198.48 359.05 L 198.55 359.05 L 198.60 359.05 L 198.78 359.02 L 198.91 359.02 L 199.04 359.00 L 199.21 359.00 L 199.41 359.00 L 199.60 358.51 L 199.74 358.35 L 200.02 358.35 L 200.02 358.34 L 200.19 358.34 L 213.64 358.34 L 213.90 358.33 L 214.53 358.25 L 214.66 358.23 L 214.77 358.23 L 214.79 358.23 L 215.02 358.23 L 215.18 358.23 L 215.27 358.23 L 215.36 358.23 L 215.42 358.23 L 215.66 358.23 L 216.14 358.25 L 216.27 358.25 L 216.36 358.25 L 216.47 358.25 L 217.10 358.15 L 217.19 358.10 L 217.23 358.10 L 217.27 358.03 L 217.40 358.03 L 217.51 358.02 L 217.96 357.53 L 218.61 357.53 L 218.85 357.53 L 219.57 357.53 L 219.91 354.16 L 220.03 354.16 L 220.17 354.16 L 220.39 354.15 L 220.71 354.15 L 221.17 354.15 L 221.78 354.15 L 221.87 354.15 L 222.31 354.07 L 222.60 353.93 L 222.69 353.93 L 222.87 353.93 L 223.00 353.91 L 224.59 353.70 L 226.11 353.70 L 239.65 353.69 L 239.74 353.69 L 239.81 353.69 L 240.24 353.69 L 241.50 352.63 L 241.55 352.60 L 241.73 352.49 L 242.35 352.48 L 242.65 352.23 L 243.10 352.23 L 243.20 352.23 L 243.30 352.23 L 244.08 349.28 L 244.18 349.28 L 244.34 349.28 L 244.52 349.28 L 244.60 349.09 L 245.04 348.73 L 245.19 348.73 L 245.27 348.73 L 245.37 348.19 L 245.56 347.65 L 245.64 347.65 L 245.84 347.63 L 246.42 343.24 L 246.48 343.24 L 246.54 343.24 L 246.63 343.24 L 246.77 343.24 L 246.83 343.24 L 246.89 343.24 L 247.17 343.24 L 247.23 343.14 L 247.58 343.12 L 247.78 343.06 L 247.91 342.53 L 248.96 333.77 L 249.08 333.77 L 288.87 333.77 L 288.91 333.77 L 304.12 333.77 L 304.95 333.64 L 305.12 333.64 L 305.34 333.64 L 305.41 333.64 L 305.50 333.64 L 312.10 333.57 L 312.97 333.49 L 313.29 333.49 L 313.46 333.46 L 317.57 333.38 L 317.60 333.27 L 317.85 333.27 L 319.08 332.08 L 319.15 332.08 L 319.30 332.08 L 319.74 332.08 L 319.79 332.08 L 319.96 332.08 L 320.15 332.08 L 320.18 332.08 L 332.96 332.06 L 333.06 331.85 L 333.56 331.85 L 333.57 330.42 L 333.66 330.42 L 333.77 330.42 L 333.91 330.29 L 334.13 330.29 L 334.31 330.22 L 334.47 330.22 L 334.54 330.22 L 334.80 330.21 L 335.68 327.78 L 336.04 327.77 L 336.10 327.76 L 336.17 327.76 L 336.22 327.76 L 336.34 327.72 L 336.70 327.42 L 336.76 327.38 L 336.98 325.20 L 337.06 325.19 L 337.09 325.19 L 337.18 325.16 L 337.23 325.16 L 337.28 325.15 L 337.56 323.96 L 337.68 323.95 L 337.84 323.92 L 337.95 320.23 L 337.99 320.22 L 338.27 318.14 L 338.35 318.14 L 338.40 318.14 L 338.47 318.14 L 338.52 318.14 L 338.56 318.14 L 338.57 318.14 L 338.71 314.29 L 338.76 314.29 L 338.90 314.27 L 339.00 314.27 L 339.29 314.20 L 339.64 314.09 L 339.65 314.09 L 339.75 314.07 L 340.08 314.01 L 340.23 314.01 L 340.39 314.01 L 340.55 312.35 L 340.66 312.35 L 341.11 312.34 L 341.15 312.34 L 341.21 312.34 L 341.25 312.34 L 341.54 309.97 L 341.59 309.97 L 341.81 309.95 L 361.47 309.95 L 362.59 309.94 L 362.63 309.94 L 362.85 309.94 L 362.87 309.94 L 363.01 309.94 L 363.12 309.93 L 363.22 309.82 L 363.35 309.82 L 363.39 309.82 L 363.44 309.82 L 363.65 309.60 L 364.08 309.47 L 364.35 309.33 L 364.65 308.66 L 364.66 308.66 L 364.71 308.49 L 364.75 308.47 L 365.34 308.06 L 365.35 308.06 L 365.44 308.00 L 365.69 308.00 L 365.85 307.96 L 365.89 306.98 L 365.90 306.98 L 365.97 307.95 L 366.01 307.89 L 366.04 307.88 L 366.18 306.56 L 366.19 306.56 L 366.50 306.51 L 367.34 306.51 L 367.54 306.51 L 367.60 306.51 L 367.64 306.51 L 367.69 306.51 L 367.81 306.42 L 381.25 305.33 L 381.27 305.33 L 381.38 305.32 L 381.42 305.08 L 381.49 293.39 L 381.64 289.04 L 381.66 289.04 L 381.91 288.96 L 381.96 288.96 L 382.01 288.94 L 382.22 288.94 L 382.80 287.88 L 382.82 287.88 L 382.96 287.83 L 383.02 287.83 L 383.05 287.73 L 383.54 287.10 L 383.55 287.10 L 384.29 286.97 L 384.38 286.93 L 384.64 286.94 L 384.94 285.50 L 385.02 285.36 L 385.07 285.22 L 385.21 284.69 L 385.59 284.55 L 385.66 284.44 L 385.83 284.44 L 386.01 284.44 L 386.57 284.44 L 386.64 284.44 L 386.77 284.44 L 386.78 284.44 L 386.96 284.45 L 387.39 284.45 L 387.83 284.30 L 387.89 284.30 L 387.99 284.29 L 388.12 284.29 L 388.45 284.29 L 389.02 284.29 L 389.21 284.16 L 389.52 280.38 L 390.75 283.94 L 391.02 283.93 L 391.22 283.92 L 391.53 283.92 L 391.63 283.88 L 391.94 283.85 L 392.42 283.64 L 392.48 283.64 L 392.58 283.64 L 392.64 283.64 L 392.68 283.64 L 393.06 283.43 L 401.97 283.43 L 402.05 283.44 L 402.61 283.42 L 402.66 283.42 L 402.79 283.38 L 402.89 283.12 L 402.90 283.12 L 403.21 283.09 L 403.28 283.09 L 405.11 282.87 L 405.32 282.87 L 405.48 282.87 L 405.52 282.87 L 406.08 282.72 L 406.27 282.72 L 406.31 282.72 L 406.61 282.71 L 406.94 281.82 L 406.99 281.82 L 407.26 281.67 L 407.38 281.67 L 407.48 281.67 L 407.71 281.67 L 408.21 281.65 L 408.30 281.63 L 408.39 281.55 L 408.60 281.40 L 409.09 281.26 L 409.52 277.70 L 409.61 277.58 L 410.06 277.41 L 410.13 277.37 L 410.21 277.24 L 410.25 276.99 L 410.41 275.93 L 410.44 275.97 L 410.51 275.95 L 410.77 275.94 L 411.15 275.80 L 411.39 275.74 L 411.67 275.73 L 411.80 275.71 L 412.07 275.70 L 412.52 275.70 L 412.96 275.69 L 413.31 275.69 L 413.39 275.68 L 413.47 275.68 L 413.48 275.67 L 413.74 275.67 L 413.82 275.66 L 413.92 275.53 L 414.65 275.51 L 414.66 275.51 L 414.86 275.50 L 415.72 275.49 L 416.28 275.32 L 416.70 275.17 L 416.71 275.17 L 416.74 275.16 L 429.22 275.16 L 429.26 275.16 L 429.41 275.16 L 429.47 275.16 L 429.52 275.14 L 429.53 275.14 L 430.06 275.14 L 430.18 275.13 L 430.34 275.11 L 430.60 275.08 L 430.77 275.08 L 430.98 275.00 L 431.10 275.00 L 431.16 275.00 L 431.22 275.00 L 431.38 274.67 L 431.40 274.67 L 431.46 274.67 L 431.59 274.67 L 431.68 274.67 L 431.79 274.75 L 431.94 274.75 L 432.25 274.74 L 432.38 274.74 L 432.50 274.74 L 433.27 273.69 L 433.92 273.41 L 434.71 272.66 L 434.91 272.66 L 435.14 272.66 L 435.38 272.66 L 439.97 272.57 L 440.35 272.56 L 483.82 272.43 L 620.69 272.24 L 621.14 272.18 L 621.46 272.17 L 621.77 272.17 L 622.25 271.69 L 622.41 271.69 L 622.53 271.69 L 622.75 269.93 L 623.07 270.27 L 623.32 270.24 L 623.38 270.24 L 623.59 270.23 L 623.64 270.23 L 623.86 270.22 L 624.07 270.14 L 624.68 269.04 L 624.70 269.04 L 624.88 268.94 L 625.47 265.35 L 625.49 265.35 L 625.60 265.34 L 625.74 265.29 L 626.38 263.62 L 626.39 263.62 L 626.53 263.62 L 626.68 263.58 L 626.92 262.97 L 626.93 262.97 L 627.04 262.96 L 627.06 262.96 L 627.11 262.62 L 627.38 260.25 L 627.42 260.25 L 627.51 260.25 L 627.80 260.05 L 627.86 260.05 L 628.09 259.66 L 628.47 259.66 L 628.52 259.66 L 628.57 259.66 L 628.64 259.66 L 628.83 259.65 L 629.03 258.58 L 629.06 258.58 L 629.18 258.57 L 629.29 257.76 L 629.32 257.76 L 629.44 256.90 L 629.50 256.85 L 629.73 256.00 L 629.77 256.00 L 629.88 256.00 L 630.05 255.98 L 631.03 255.98 L 631.52 255.98 L 642.21 255.98 L 642.32 255.98 L 642.42 255.98 L 642.61 255.98 L 643.01 255.75 L 643.04 255.75 L 643.11 255.68 L 643.37 254.50 L 643.40 254.50 L 645.73 254.52 L 645.87 254.29 L 647.05 254.29 L 647.18 254.28 L 647.32 254.19 L 648.73 253.22 L 649.34 253.03 L 649.49 252.96 L 650.00 251.11"/>
	</g>
	<g id="poloto_plot2" class="poloto_plot poloto_imgs poloto_line poloto2 poloto_stroke" fill="none" stroke="black">
		<path d=" M 150.00 390.45 L 150.04 390.44 L 150.05 390.44 L 150.07 390.44 L 150.10 390.44 L 150.13 387.99 L 150.28 387.66 L 150.61 387.65 L 151.11 387.64 L 151.36 386.18 L 151.87 386.05 L 151.96 386.00 L 152.02 385.97 L 152.61 385.31 L 153.72 384.80 L 154.07 384.70 L 154.16 384.71 L 154.83 384.67 L 155.59 384.67 L 155.60 384.67 L 155.61 384.67 L 165.99 384.67 L 166.07 384.66 L 166.20 384.64 L 166.26 384.64 L 166.65 384.49 L 166.83 384.45 L 167.27 384.21 L 167.33 384.11 L 167.46 383.89 L 167.59 383.86 L 167.63 383.86 L 167.74 383.82 L 167.85 383.82 L 167.97 383.82 L 168.25 383.58 L 168.51 383.35 L 168.56 383.35 L 168.68 383.22 L 169.51 382.93 L 169.52 382.92 L 169.63 382.83 L 170.10 382.51 L 170.48 382.11 L 170.90 381.95 L 170.99 381.95 L 171.00 381.95 L 171.08 381.73 L 171.25 381.73 L 171.45 381.70 L 171.86 381.53 L 171.89 381.25 L 171.96 381.25 L 172.06 381.11 L 172.29 381.11 L 172.32 381.11 L 172.56 380.68 L 172.66 380.65 L 172.74 380.62 L 172.84 380.42 L 174.10 380.30 L 174.41 380.25 L 175.11 379.96 L 175.26 379.96 L 175.37 379.94 L 175.43 379.72 L 175.92 378.53 L 176.14 378.51 L 176.39 378.15 L 176.51 378.11 L 176.80 377.95 L 176.93 377.90 L 177.10 377.64 L 177.26 377.43 L 177.82 377.43 L 177.84 377.40 L 177.86 377.23 L 178.06 376.08 L 187.69 375.96 L 188.69 375.61 L 188.72 375.56 L 189.90 375.28 L 190.00 375.27 L 190.11 375.06 L 190.40 374.91 L 190.53 374.65 L 190.58 374.43 L 190.72 374.00 L 191.07 373.99 L 191.08 373.99 L 191.21 373.69 L 191.34 373.69 L 191.49 373.37 L 191.68 373.13 L 191.75 372.99 L 191.78 372.99 L 191.95 372.70 L 191.97 372.69 L 192.15 372.43 L 192.18 372.42 L 192.46 372.32 L 192.51 372.32 L 192.60 372.23 L 192.72 372.21 L 192.88 372.21 L 192.95 372.19 L 193.49 371.93 L 193.50 371.94 L 193.60 371.42 L 193.85 371.40 L 194.06 371.24 L 194.13 371.24 L 194.23 371.23 L 194.28 371.19 L 194.40 370.48 L 195.01 369.88 L 195.07 369.55 L 195.28 369.52 L 195.34 369.44 L 195.39 369.42 L 195.49 369.27 L 195.58 368.71 L 195.80 368.62 L 195.95 368.60 L 196.07 368.32 L 196.14 368.31 L 196.68 368.10 L 196.98 367.95 L 197.06 367.82 L 197.32 367.81 L 197.34 367.81 L 197.37 367.78 L 197.52 366.76 L 197.65 366.75 L 198.10 366.60 L 198.17 366.20 L 198.26 366.19 L 198.38 366.02 L 198.39 365.93 L 198.44 365.86 L 198.48 365.82 L 198.55 365.81 L 198.60 365.73 L 198.78 364.58 L 198.91 364.46 L 199.04 364.12 L 199.21 364.10 L 199.41 363.99 L 199.60 363.63 L 199.74 362.63 L 200.02 362.55 L 200.02 362.13 L 200.19 362.02 L 213.64 362.03 L 213.90 362.03 L 214.53 361.56 L 214.66 361.56 L 214.77 361.56 L 214.79 361.43 L 215.02 361.23 L 215.18 361.19 L 215.27 361.07 L 215.36 360.98 L 215.42 360.94 L 215.66 360.88 L 216.14 360.97 L 216.27 360.66 L 216.36 360.57 L 216.47 360.57 L 217.10 360.50 L 217.19 360.45 L 217.23 360.45 L 217.27 360.39 L 217.40 360.33 L 217.51 360.22 L 217.96 359.92 L 218.61 359.79 L 218.85 359.74 L 219.57 359.55 L 219.91 359.09 L 220.03 359.01 L 220.17 358.64 L 220.39 358.17 L 220.71 358.05 L 221.17 358.04 L 221.78 358.02 L 221.87 357.85 L 222.31 357.73 L 222.60 357.59 L 222.69 357.47 L 222.87 357.42 L 223.00 357.11 L 224.59 356.96 L 226.11 356.96 L 239.65 356.92 L 239.74 356.75 L 239.81 356.64 L 240.24 356.46 L 241.50 356.15 L 241.55 356.11 L 241.73 355.89 L 242.35 355.80 L 242.65 355.20 L 243.10 355.18 L 243.20 355.16 L 243.30 354.57 L 244.08 354.01 L 244.18 354.00 L 244.34 353.97 L 244.52 353.92 L 244.60 353.72 L 245.04 352.79 L 245.19 352.56 L 245.27 352.54 L 245.37 352.44 L 245.56 352.08 L 245.64 351.15 L 245.84 350.77 L 246.42 350.55 L 246.48 350.08 L 246.54 350.08 L 246.63 350.00 L 246.77 349.88 L 246.83 349.84 L 246.89 349.80 L 247.17 348.72 L 247.23 348.08 L 247.58 347.96 L 247.78 346.88 L 247.91 346.68 L 248.96 344.98 L 249.08 344.95 L 288.87 344.46 L 288.91 344.46 L 304.12 344.32 L 304.95 344.14 L 305.12 344.14 L 305.34 344.05 L 305.41 343.91 L 305.50 343.88 L 312.10 343.86 L 312.97 341.92 L 313.29 341.75 L 313.46 341.08 L 317.57 340.99 L 317.60 340.93 L 317.85 340.92 L 319.08 340.80 L 319.15 340.57 L 319.30 340.49 L 319.74 340.39 L 319.79 340.37 L 319.96 339.99 L 320.15 339.88 L 320.18 339.59 L 332.96 339.22 L 333.06 338.34 L 333.56 338.11 L 333.57 337.77 L 333.66 337.50 L 333.77 337.10 L 333.91 336.02 L 334.13 335.44 L 334.31 334.68 L 334.47 334.67 L 334.54 334.09 L 334.80 334.05 L 335.68 333.50 L 336.04 333.24 L 336.10 333.08 L 336.17 333.07 L 336.22 332.88 L 336.34 332.22 L 336.70 332.15 L 336.76 332.15 L 336.98 331.72 L 337.06 331.72 L 337.09 331.47 L 337.18 331.31 L 337.23 331.31 L 337.28 330.96 L 337.56 330.76 L 337.68 330.41 L 337.84 330.40 L 337.95 330.21 L 337.99 329.95 L 338.27 329.81 L 338.35 329.66 L 338.40 329.66 L 338.47 329.65 L 338.52 329.38 L 338.56 329.39 L 338.57 329.39 L 338.71 329.30 L 338.76 329.00 L 338.90 329.00 L 339.00 328.92 L 339.29 328.90 L 339.64 328.87 L 339.65 328.87 L 339.75 328.85 L 340.08 328.85 L 340.23 328.85 L 340.39 328.85 L 340.55 328.80 L 340.66 328.44 L 341.11 328.44 L 341.15 328.23 L 341.21 328.23 L 341.25 327.99 L 341.54 327.91 L 341.59 327.85 L 341.81 327.85 L 361.47 327.79 L 362.59 327.69 L 362.63 327.69 L 362.85 327.69 L 362.87 327.69 L 363.01 327.27 L 363.12 327.25 L 363.22 327.14 L 363.35 327.07 L 363.39 327.04 L 363.44 327.01 L 363.65 326.98 L 364.08 326.89 L 364.35 326.33 L 364.65 326.30 L 364.66 326.26 L 364.71 325.79 L 364.75 325.79 L 365.34 325.79 L 365.35 325.74 L 365.44 325.31 L 365.69 325.25 L 365.85 325.23 L 365.89 325.22 L 365.90 325.18 L 365.97 325.14 L 366.01 324.70 L 366.04 324.69 L 366.18 324.69 L 366.19 324.65 L 366.50 324.61 L 367.34 324.59 L 367.54 324.55 L 367.60 324.54 L 367.64 324.40 L 367.69 324.40 L 367.81 323.90 L 381.25 323.74 L 381.27 323.60 L 381.38 323.50 L 381.42 323.48 L 381.49 323.05 L 381.64 322.95 L 381.66 322.92 L 381.91 322.92 L 381.96 322.92 L 382.01 322.49 L 382.22 322.44 L 382.80 322.43 L 382.82 322.40 L 382.96 322.17 L 383.02 322.18 L 383.05 321.78 L 383.54 321.78 L 383.55 321.76 L 384.29 321.66 L 384.38 321.20 L 384.64 321.20 L 384.94 321.19 L 385.02 320.85 L 385.07 320.58 L 385.21 320.57 L 385.59 320.51 L 385.66 320.49 L 385.83 320.38 L 386.01 320.38 L 386.57 320.38 L 386.64 320.38 L 386.77 320.36 L 386.78 320.35 L 386.96 320.35 L 387.39 320.32 L 387.83 320.28 L 387.89 320.27 L 387.99 320.23 L 388.12 320.10 L 388.45 320.10 L 389.02 319.95 L 389.21 319.68 L 389.52 319.65 L 390.75 319.37 L 391.02 319.37 L 391.22 319.36 L 391.53 319.35 L 391.63 319.33 L 391.94 319.19 L 392.42 319.17 L 392.48 319.04 L 392.58 318.98 L 392.64 318.99 L 392.68 318.95 L 393.06 318.92 L 401.97 318.92 L 402.05 318.92 L 402.61 318.92 L 402.66 318.90 L 402.79 318.51 L 402.89 318.49 L 402.90 318.49 L 403.21 318.48 L 403.28 318.46 L 405.11 317.88 L 405.32 317.82 L 405.48 317.81 L 405.52 317.81 L 406.08 317.79 L 406.27 317.88 L 406.31 317.87 L 406.61 317.83 L 406.94 317.28 L 406.99 317.27 L 407.26 317.26 L 407.38 317.26 L 407.48 317.26 L 407.71 317.14 L 408.21 316.64 L 408.30 316.64 L 408.39 316.57 L 408.60 316.12 L 409.09 315.62 L 409.52 315.65 L 409.61 315.38 L 410.06 315.38 L 410.13 315.35 L 410.21 315.32 L 410.25 315.06 L 410.41 315.05 L 410.44 315.05 L 410.51 315.05 L 410.77 315.05 L 411.15 314.84 L 411.39 314.82 L 411.67 314.82 L 411.80 314.82 L 412.07 314.82 L 412.52 314.82 L 412.96 314.82 L 413.31 314.82 L 413.39 314.81 L 413.47 314.80 L 413.48 314.71 L 413.74 314.65 L 413.82 314.65 L 413.92 314.63 L 414.65 314.63 L 414.66 314.37 L 414.86 314.37 L 415.72 314.37 L 416.28 314.37 L 416.70 314.31 L 416.71 314.21 L 416.74 314.21 L 429.22 314.03 L 429.26 314.03 L 429.41 314.02 L 429.47 313.86 L 429.52 313.86 L 429.53 313.85 L 430.06 313.80 L 430.18 313.27 L 430.34 313.16 L 430.60 312.12 L 430.77 312.11 L 430.98 311.67 L 431.10 311.72 L 431.16 311.71 L 431.22 311.15 L 431.38 311.05 L 431.40 310.66 L 431.46 310.60 L 431.59 310.57 L 431.68 310.37 L 431.79 312.70 L 431.94 312.66 L 432.25 311.72 L 432.38 311.52 L 432.50 311.31 L 433.27 310.94 L 433.92 310.55 L 434.71 310.00 L 434.91 309.94 L 435.14 309.94 L 435.38 309.89 L 439.97 309.62 L 440.35 309.59 L 483.82 308.87 L 620.69 308.84 L 621.14 308.51 L 621.46 308.46 L 621.77 308.46 L 622.25 308.17 L 622.41 307.82 L 622.53 307.18 L 622.75 307.01 L 623.07 307.07 L 623.32 306.70 L 623.38 306.70 L 623.59 306.58 L 623.64 306.58 L 623.86 305.96 L 624.07 305.01 L 624.68 304.91 L 624.70 304.81 L 624.88 303.58 L 625.47 303.54 L 625.49 303.42 L 625.60 303.35 L 625.74 302.23 L 626.38 302.17 L 626.39 302.02 L 626.53 301.94 L 626.68 301.21 L 626.92 301.18 L 626.93 301.06 L 627.04 299.85 L 627.06 299.82 L 627.11 299.78 L 627.38 299.78 L 627.42 299.65 L 627.51 299.56 L 627.80 299.45 L 627.86 299.44 L 628.09 299.38 L 628.47 299.43 L 628.52 299.37 L 628.57 299.34 L 628.64 299.30 L 628.83 298.04 L 629.03 298.02 L 629.06 297.91 L 629.18 296.61 L 629.29 296.15 L 629.32 295.98 L 629.44 295.35 L 629.50 294.25 L 629.73 294.24 L 629.77 294.17 L 629.88 293.95 L 630.05 293.95 L 631.03 293.91 L 631.52 293.88 L 642.21 293.93 L 642.32 293.69 L 642.42 293.50 L 642.61 292.63 L 643.01 292.61 L 643.04 292.53 L 643.11 291.42 L 643.37 291.41 L 643.40 291.31 L 645.73 291.20 L 645.87 290.80 L 647.05 290.60 L 647.18 290.56 L 647.32 289.34 L 648.73 288.99 L 649.34 288.69 L 649.49 287.77 L 650.00 287.77"/>
	</g>
	<g class="poloto_legend poloto_imgs poloto_line poloto0 poloto_stroke"><line x1="680" x2="730" y1="81.25" y2="81.25"/></g>
	<g class="poloto_legend poloto_imgs poloto_line poloto1 poloto_stroke"><line x1="680" x2="730" y1="131.25" y2="131.25"/></g>
	<g class="poloto_legend poloto_imgs poloto_line poloto2 poloto_stroke"><line x1="680" x2="730" y1="181.25" y2="181.25"/></g>
	<text class="poloto_legend poloto_text poloto_line poloto0" x="675" y="100">total</text>
	<text class="poloto_legend poloto_text poloto_line poloto1" x="675" y="150">code</text>
	<text class="poloto_legend poloto_text poloto_line poloto2" x="675" y="200">docs</text>
	<text class="poloto_text poloto_name poloto_title" x="400.00" y="37.50">Workspace lines over time</text>
	<text class="poloto_text poloto_name poloto_x" x="400.00" y="640">date (JST)</text>
	<text class="poloto_text poloto_name poloto_y" x="37.50" y="250.00" transform="rotate(-90,37.50,250.00)">lines</text>
	<text class="poloto_text poloto_ticks poloto_y">
		<tspan x="135.00" y="400.00">0</tspan>
		<tspan x="135.00" y="309.18">50K</tspan>
		<tspan x="135.00" y="218.36">100K</tspan>
		<tspan x="135.00" y="127.55">150K</tspan>
	</text>
	<g class="poloto_imgs poloto_ticks poloto_y" stroke="black">
		<line x1="150.00" x2="144.00" y1="400.00" y2="400.00"/>
		<line x1="150.00" x2="144.00" y1="309.18" y2="309.18"/>
		<line x1="150.00" x2="144.00" y1="218.36" y2="218.36"/>
		<line x1="150.00" x2="144.00" y1="127.55" y2="127.55"/>
	</g>
	<g class="poloto_text poloto_ticks poloto_x">
		<text x="184.38" y="430.00" text-anchor="end" transform="rotate(-90 184.38 430.00)">2026-04-22 04:33</text>
		<text x="239.48" y="430.00" text-anchor="end" transform="rotate(-90 239.48 430.00)">2026-04-24 12:06</text>
		<text x="294.57" y="430.00" text-anchor="end" transform="rotate(-90 294.57 430.00)">2026-04-26 19:40</text>
		<text x="349.66" y="430.00" text-anchor="end" transform="rotate(-90 349.66 430.00)">2026-04-29 03:13</text>
		<text x="404.75" y="430.00" text-anchor="end" transform="rotate(-90 404.75 430.00)">2026-05-01 10:46</text>
		<text x="459.84" y="430.00" text-anchor="end" transform="rotate(-90 459.84 430.00)">2026-05-03 18:20</text>
		<text x="514.93" y="430.00" text-anchor="end" transform="rotate(-90 514.93 430.00)">2026-05-06 01:53</text>
		<text x="570.03" y="430.00" text-anchor="end" transform="rotate(-90 570.03 430.00)">2026-05-08 09:26</text>
		<text x="625.12" y="430.00" text-anchor="end" transform="rotate(-90 625.12 430.00)">2026-05-10 17:00</text>
	</g>
	<g class="poloto_imgs poloto_ticks poloto_x" stroke="black">
		<line x1="184.38" x2="184.38" y1="400.00" y2="405.00"/>
		<line x1="239.48" x2="239.48" y1="400.00" y2="405.00"/>
		<line x1="294.57" x2="294.57" y1="400.00" y2="405.00"/>
		<line x1="349.66" x2="349.66" y1="400.00" y2="405.00"/>
		<line x1="404.75" x2="404.75" y1="400.00" y2="405.00"/>
		<line x1="459.84" x2="459.84" y1="400.00" y2="405.00"/>
		<line x1="514.93" x2="514.93" y1="400.00" y2="405.00"/>
		<line x1="570.03" x2="570.03" y1="400.00" y2="405.00"/>
		<line x1="625.12" x2="625.12" y1="400.00" y2="405.00"/>
	</g>
	<path class="poloto_imgs poloto_ticks poloto_x" stroke="black" style="stroke-dasharray:6.886456653611781;stroke-dashoffset:-34.383527154976036;" d=" M 150.00 400.00 L 650.00 400.00"/>
	<path class="poloto_imgs poloto_ticks poloto_y" stroke="black" style="stroke-dasharray:9.081772277587397;stroke-dashoffset:-0;" d=" M 150.00 400.00 L 150.00 100.00"/>
</svg>

