<svg class="poloto" width="800" height="680" viewBox="0 0 800 680" xmlns="http://www.w3.org/2000/svg">
	<style>
.poloto{
  stroke-linecap:round;
  stroke-linejoin:round;
  font-family:Roboto,sans-serif;
  font-size:16px;
}
.poloto_background{fill:AliceBlue;}
.poloto_scatter{stroke-width:7}
.poloto_line{stroke-width:2}
.poloto_text{fill: black;}
.poloto_name{font-size:24px;dominant-baseline:auto;text-anchor:middle;}
.poloto_where{dominant-baseline:middle;text-anchor:start}
.poloto_text.poloto_legend{font-size:20px;dominant-baseline:middle;text-anchor:start;}
.poloto_text.poloto_ticks.poloto_y{dominant-baseline:middle;text-anchor:end}
.poloto_text.poloto_ticks.poloto_x{dominant-baseline:auto;text-anchor:middle}
.poloto_imgs.poloto_ticks{stroke: black;stroke-width:3;fill:none;stroke-dasharray:none}
.poloto_grid{stroke:gray;stroke-width:0.5}

.poloto0.poloto_stroke{stroke:blue;}
.poloto1.poloto_stroke{stroke:red;}
.poloto2.poloto_stroke{stroke:green;}
.poloto3.poloto_stroke{stroke:gold;}
.poloto4.poloto_stroke{stroke:aqua;}
.poloto5.poloto_stroke{stroke:lime;}
.poloto6.poloto_stroke{stroke:orange;}
.poloto7.poloto_stroke{stroke:chocolate;}
.poloto0.poloto_fill{fill:blue;}
.poloto1.poloto_fill{fill:red;}
.poloto2.poloto_fill{fill:green;}
.poloto3.poloto_fill{fill:gold;}
.poloto4.poloto_fill{fill:aqua;}
.poloto5.poloto_fill{fill:lime;}
.poloto6.poloto_fill{fill:orange;}
.poloto7.poloto_fill{fill:chocolate;}
	</style>
	<circle r="1e5" class="poloto_background" fill="white"/>
	<g id="poloto_plot0" class="poloto_plot poloto_imgs poloto_line poloto0 poloto_stroke" fill="none" stroke="black">
		<path d=" M 150.00 367.10 L 150.03 367.07 L 150.05 367.05 L 150.06 367.05 L 150.09 367.05 L 150.12 363.48 L 150.25 363.05 L 150.56 363.03 L 151.00 362.74 L 151.23 360.92 L 151.69 360.81 L 151.77 360.72 L 151.83 360.68 L 152.36 359.79 L 153.36 359.07 L 153.68 356.27 L 153.76 356.27 L 154.36 356.16 L 155.06 356.15 L 155.07 356.15 L 155.07 356.15 L 164.47 356.15 L 164.53 356.14 L 164.65 356.12 L 164.70 356.09 L 165.06 355.93 L 165.22 355.88 L 165.62 355.62 L 165.68 355.51 L 165.79 355.26 L 165.91 355.22 L 165.95 355.21 L 166.04 355.15 L 166.15 355.15 L 166.25 355.15 L 166.51 354.74 L 166.74 354.48 L 166.78 354.48 L 166.90 354.33 L 167.64 354.97 L 167.66 354.97 L 167.75 354.86 L 168.18 354.38 L 168.52 353.81 L 168.91 353.56 L 168.99 353.51 L 169.00 353.52 L 169.07 353.29 L 169.22 353.29 L 169.40 353.21 L 169.77 353.00 L 169.80 352.66 L 169.86 352.66 L 169.95 352.49 L 170.16 352.49 L 170.18 352.49 L 170.41 352.01 L 170.49 351.98 L 170.57 351.95 L 170.66 351.75 L 171.80 351.49 L 172.08 351.44 L 172.71 351.10 L 172.85 351.10 L 172.95 351.09 L 173.00 350.84 L 173.44 349.43 L 173.64 349.40 L 173.86 348.93 L 173.97 348.88 L 174.24 348.49 L 174.35 348.35 L 174.51 348.09 L 174.66 347.87 L 175.16 344.60 L 175.18 344.52 L 175.20 344.33 L 175.37 342.76 L 184.09 342.64 L 184.99 340.86 L 185.02 340.81 L 186.09 340.53 L 186.18 340.52 L 186.28 340.17 L 186.54 339.99 L 186.66 339.69 L 186.70 339.42 L 186.83 338.95 L 187.15 338.94 L 187.16 338.63 L 187.27 338.28 L 187.39 338.27 L 187.53 337.88 L 187.70 337.59 L 187.76 337.45 L 187.79 337.45 L 187.94 337.14 L 187.96 337.13 L 188.13 336.83 L 188.15 336.82 L 188.40 335.34 L 188.45 335.34 L 188.53 335.10 L 188.64 335.09 L 188.78 335.09 L 188.84 335.05 L 189.33 334.78 L 189.35 334.78 L 189.44 334.13 L 189.66 334.12 L 189.85 333.13 L 189.91 333.04 L 190.00 333.04 L 190.05 333.00 L 190.16 332.24 L 190.71 325.83 L 190.77 325.52 L 190.95 325.49 L 191.01 325.42 L 191.05 325.39 L 191.14 325.23 L 191.23 324.50 L 191.42 324.35 L 191.56 324.33 L 191.67 324.01 L 191.73 324.00 L 192.22 323.77 L 192.49 323.58 L 192.57 323.30 L 192.80 323.28 L 192.82 323.28 L 192.84 323.26 L 192.98 321.72 L 193.10 321.63 L 193.50 320.07 L 193.57 319.62 L 193.65 319.61 L 193.75 319.44 L 193.76 319.32 L 193.81 319.25 L 193.85 319.21 L 193.91 319.20 L 193.96 319.12 L 194.12 317.85 L 194.24 317.66 L 194.35 317.29 L 194.51 317.26 L 194.69 317.15 L 194.86 316.25 L 194.99 315.00 L 195.24 314.93 L 195.24 314.47 L 195.39 314.31 L 207.56 314.32 L 207.79 314.30 L 208.37 313.64 L 208.48 313.63 L 208.58 313.63 L 208.60 313.46 L 208.81 313.26 L 208.95 313.22 L 209.03 313.10 L 209.12 313.01 L 209.17 312.97 L 209.39 312.91 L 209.83 312.83 L 209.94 312.49 L 210.02 312.40 L 210.12 312.39 L 210.69 312.22 L 210.77 312.12 L 210.80 312.12 L 210.84 312.00 L 210.96 311.94 L 211.06 311.82 L 211.47 310.98 L 212.06 310.85 L 212.27 310.79 L 212.92 310.58 L 213.23 306.55 L 213.34 306.47 L 213.47 306.07 L 213.66 305.55 L 213.96 305.40 L 214.37 305.38 L 214.92 305.37 L 215.00 305.19 L 215.41 305.01 L 215.67 304.72 L 215.75 304.60 L 215.91 304.55 L 216.03 304.19 L 217.47 303.80 L 218.84 303.80 L 231.08 303.76 L 231.17 303.58 L 231.23 303.47 L 231.62 303.30 L 232.76 301.91 L 232.81 301.82 L 232.97 301.46 L 233.53 301.37 L 233.80 300.43 L 234.20 300.42 L 234.30 300.41 L 234.38 299.76 L 235.09 296.10 L 235.18 296.09 L 235.33 296.06 L 235.49 296.02 L 235.56 295.62 L 235.96 294.24 L 236.10 293.98 L 236.16 293.96 L 236.25 293.32 L 236.43 292.42 L 236.50 291.47 L 236.68 291.04 L 237.21 286.28 L 237.26 285.80 L 237.31 285.80 L 237.40 285.71 L 237.53 285.59 L 237.58 285.55 L 237.63 285.50 L 237.88 284.35 L 237.95 283.55 L 238.26 283.39 L 238.44 282.19 L 238.56 281.44 L 239.51 270.33 L 239.62 270.30 L 275.60 269.77 L 275.64 269.77 L 289.39 269.62 L 290.14 269.31 L 290.30 269.31 L 290.50 269.23 L 290.56 269.09 L 290.65 269.05 L 296.61 268.97 L 297.40 266.86 L 297.69 266.67 L 297.85 265.89 L 301.56 265.74 L 301.58 265.52 L 301.82 265.50 L 302.93 264.17 L 302.99 263.93 L 303.13 263.84 L 303.52 263.75 L 303.57 263.72 L 303.73 263.32 L 303.89 263.21 L 303.92 262.91 L 315.48 262.51 L 315.57 261.37 L 316.03 261.11 L 316.03 259.21 L 316.11 258.93 L 316.21 258.46 L 316.34 257.15 L 316.54 256.45 L 316.70 255.64 L 316.85 255.63 L 316.91 255.00 L 317.14 254.95 L 317.94 251.88 L 318.26 251.55 L 318.32 251.36 L 318.39 251.36 L 318.43 251.14 L 318.54 250.39 L 318.86 250.03 L 318.91 249.98 L 319.11 247.28 L 319.19 247.27 L 319.22 246.98 L 319.29 246.76 L 319.34 246.76 L 319.39 246.35 L 319.64 244.89 L 319.75 244.48 L 319.89 244.42 L 319.99 240.52 L 320.03 240.20 L 320.28 237.98 L 320.35 237.80 L 320.40 237.80 L 320.47 237.79 L 320.51 237.48 L 320.54 237.49 L 320.56 237.48 L 320.68 233.54 L 320.73 233.20 L 320.85 233.18 L 320.94 233.11 L 321.20 233.00 L 321.52 232.85 L 321.53 232.85 L 321.62 232.80 L 321.92 232.72 L 322.06 232.72 L 322.20 232.72 L 322.35 231.01 L 322.45 230.59 L 322.85 230.59 L 322.89 230.32 L 322.94 230.31 L 322.98 230.02 L 323.24 227.53 L 323.29 227.48 L 323.48 227.46 L 341.27 227.39 L 342.28 227.26 L 342.31 227.26 L 342.51 227.26 L 342.53 227.26 L 342.66 226.77 L 342.76 226.75 L 342.84 226.50 L 342.97 226.44 L 343.00 226.41 L 343.05 226.39 L 343.24 226.11 L 343.63 225.86 L 343.87 225.06 L 344.14 224.30 L 344.15 224.26 L 344.20 223.55 L 344.23 223.53 L 344.76 223.11 L 344.77 223.06 L 344.86 222.49 L 345.08 222.43 L 345.23 222.38 L 345.26 221.37 L 345.27 221.32 L 345.33 222.28 L 345.37 221.69 L 345.40 221.67 L 345.52 220.32 L 345.53 220.28 L 345.81 220.17 L 346.57 220.15 L 346.75 220.11 L 346.81 220.09 L 346.85 219.92 L 346.89 219.92 L 347.00 219.25 L 359.15 217.97 L 359.17 217.79 L 359.28 217.67 L 359.31 217.42 L 359.38 206.18 L 359.51 201.58 L 359.52 201.55 L 359.75 201.46 L 359.80 201.46 L 359.84 200.93 L 360.04 200.88 L 360.56 199.79 L 360.58 199.76 L 360.71 199.43 L 360.76 199.44 L 360.79 198.90 L 361.23 198.26 L 361.24 198.23 L 361.90 197.99 L 361.98 197.41 L 362.22 197.42 L 362.50 195.97 L 362.57 195.40 L 362.61 194.94 L 362.74 194.38 L 363.08 194.18 L 363.14 194.04 L 363.29 193.91 L 363.46 193.91 L 363.97 193.91 L 364.03 193.91 L 364.15 193.89 L 364.16 193.89 L 364.32 193.90 L 364.71 193.87 L 365.10 193.66 L 365.16 193.66 L 365.25 193.58 L 365.37 193.42 L 365.67 193.42 L 366.19 193.22 L 366.35 192.77 L 366.63 188.90 L 367.75 192.17 L 367.99 192.16 L 368.17 192.14 L 368.45 192.13 L 368.54 192.07 L 368.82 191.89 L 369.26 191.62 L 369.32 191.44 L 369.40 191.37 L 369.45 191.39 L 369.50 191.33 L 369.84 191.09 L 377.90 191.08 L 377.97 191.09 L 378.47 191.07 L 378.52 191.06 L 378.63 190.56 L 378.73 190.29 L 378.74 190.28 L 379.02 190.24 L 379.09 190.22 L 380.74 189.49 L 380.93 189.43 L 381.07 189.41 L 381.10 189.41 L 381.61 189.23 L 381.79 189.32 L 381.82 189.32 L 382.10 189.27 L 382.40 187.74 L 382.43 187.73 L 382.68 187.55 L 382.79 187.55 L 382.88 187.55 L 383.09 187.38 L 383.54 186.76 L 383.62 186.74 L 383.71 186.57 L 383.89 185.84 L 384.33 185.08 L 384.73 181.51 L 384.81 181.08 L 385.21 180.91 L 385.28 180.82 L 385.35 180.64 L 385.39 180.07 L 385.53 179.04 L 385.56 179.09 L 385.62 179.07 L 385.85 179.06 L 386.20 178.68 L 386.42 178.61 L 386.67 178.60 L 386.78 178.58 L 387.03 178.57 L 387.44 178.57 L 387.84 178.56 L 388.15 178.56 L 388.22 178.55 L 388.30 178.54 L 388.30 178.41 L 388.54 178.34 L 388.61 178.33 L 388.71 178.17 L 389.37 178.15 L 389.38 177.84 L 389.56 177.83 L 390.33 177.83 L 390.84 177.64 L 391.22 177.41 L 391.23 177.29 L 391.26 177.29 L 402.54 177.08 L 402.58 177.07 L 402.71 177.06 L 402.77 176.88 L 402.81 176.86 L 402.82 176.85 L 403.30 176.80 L 403.41 176.16 L 403.55 176.01 L 403.79 174.74 L 403.95 174.73 L 404.14 174.19 L 404.25 174.25 L 404.30 174.25 L 404.36 173.63 L 404.50 173.21 L 404.52 172.76 L 404.57 172.70 L 404.69 172.66 L 404.77 172.45 L 404.87 174.88 L 405.00 174.83 L 405.28 173.87 L 405.40 173.63 L 405.51 173.43 L 406.20 172.03 L 406.80 171.36 L 407.51 170.07 L 407.69 170.01 L 407.89 170.01 L 408.12 169.95 L 412.27 169.59 L 412.61 169.56 L 451.92 168.58 L 575.72 168.35 L 576.13 167.95 L 576.41 167.90 L 576.70 167.90 L 577.13 167.15 L 577.27 166.78 L 577.38 166.10 L 577.58 164.15 L 577.87 164.55 L 578.10 164.12 L 578.15 164.12 L 578.34 163.99 L 578.39 163.99 L 578.59 163.27 L 578.77 162.13 L 579.33 160.91 L 579.35 160.81 L 579.51 159.35 L 580.04 155.76 L 580.06 155.63 L 580.16 155.55 L 580.29 154.27 L 580.87 152.54 L 580.88 152.38 L 581.00 152.30 L 581.14 151.45 L 581.35 150.77 L 581.37 150.64 L 581.46 149.33 L 581.48 149.30 L 581.53 148.93 L 581.77 146.58 L 581.80 146.45 L 581.89 146.31 L 582.15 146.00 L 582.20 145.99 L 582.41 145.55 L 582.75 145.60 L 582.81 145.54 L 582.85 145.51 L 582.91 145.47 L 583.08 144.10 L 583.27 142.98 L 583.29 142.88 L 583.39 141.47 L 583.50 140.11 L 583.53 139.93 L 583.63 138.33 L 583.68 137.07 L 583.90 136.22 L 583.93 136.16 L 584.03 135.89 L 584.18 135.87 L 585.07 135.84 L 585.52 135.80 L 595.19 135.85 L 595.28 135.61 L 595.38 135.39 L 595.54 134.45 L 595.91 134.21 L 595.93 134.12 L 596.00 132.87 L 596.23 131.66 L 596.26 131.56 L 598.37 131.47 L 598.50 130.79 L 599.56 130.59 L 599.68 130.54 L 599.80 129.14 L 601.09 127.82 L 601.63 127.31 L 601.77 126.28 L 602.23 124.52 L 602.52 124.01 L 602.99 122.97 L 603.84 122.44 L 616.78 122.43 L 617.56 122.31 L 617.59 122.33 L 618.68 122.13 L 618.73 122.03 L 619.11 121.95 L 619.55 120.80 L 619.55 120.80 L 619.60 120.75 L 620.18 119.43 L 621.51 118.68 L 621.59 118.62 L 621.73 118.61 L 621.93 118.26 L 621.99 118.17 L 622.07 118.10 L 622.68 118.05 L 623.18 118.05 L 623.45 118.05 L 623.48 118.00 L 624.04 116.85 L 624.46 116.63 L 624.48 116.55 L 624.53 116.45 L 624.59 116.14 L 638.64 115.70 L 638.67 115.68 L 638.71 115.66 L 638.98 115.53 L 639.19 115.39 L 640.43 113.63 L 640.74 113.42 L 641.63 112.88 L 642.40 112.76 L 642.96 112.58 L 643.12 110.95 L 643.84 109.04 L 644.10 108.91 L 644.19 107.68 L 646.27 105.41 L 646.29 105.41 L 646.40 104.86 L 646.80 104.79 L 646.80 104.79 L 646.82 104.66 L 646.90 104.48 L 647.07 104.30 L 647.30 103.35 L 649.45 101.06 L 649.73 100.78 L 649.93 100.37 L 649.96 100.32 L 650.00 100.00"/>
	</g>
	<g id="poloto_plot1" class="poloto_plot poloto_imgs poloto_line poloto1 poloto_stroke" fill="none" stroke="black">
		<path d=" M 150.00 380.45 L 150.03 380.43 L 150.05 380.42 L 150.06 380.42 L 150.09 380.42 L 150.12 379.80 L 150.25 379.78 L 150.56 379.77 L 151.00 379.53 L 151.23 379.43 L 151.69 379.46 L 151.77 379.41 L 151.83 379.41 L 152.36 379.36 L 153.36 379.25 L 153.68 376.83 L 153.76 376.83 L 154.36 376.77 L 155.06 376.76 L 155.07 376.76 L 155.07 376.76 L 164.47 376.76 L 164.53 376.76 L 164.65 376.76 L 164.70 376.73 L 165.06 376.72 L 165.22 376.72 L 165.62 376.72 L 165.68 376.72 L 165.79 376.70 L 165.91 376.70 L 165.95 376.70 L 166.04 376.67 L 166.15 376.67 L 166.25 376.67 L 166.51 376.54 L 166.74 376.54 L 166.78 376.54 L 166.90 376.54 L 167.64 377.44 L 167.66 377.44 L 167.75 377.43 L 168.18 377.29 L 168.52 377.14 L 168.91 377.08 L 168.99 377.03 L 169.00 377.03 L 169.07 377.03 L 169.22 377.03 L 169.40 376.97 L 169.77 376.92 L 169.80 376.92 L 169.86 376.92 L 169.95 376.90 L 170.16 376.90 L 170.18 376.90 L 170.41 376.89 L 170.49 376.89 L 170.57 376.89 L 170.66 376.89 L 171.80 376.78 L 172.08 376.77 L 172.71 376.72 L 172.85 376.72 L 172.95 376.72 L 173.00 376.72 L 173.44 376.65 L 173.64 376.65 L 173.86 376.56 L 173.97 376.55 L 174.24 376.36 L 174.35 376.28 L 174.51 376.28 L 174.66 376.28 L 175.16 373.46 L 175.18 373.41 L 175.20 373.41 L 175.37 373.13 L 184.09 373.13 L 184.99 371.92 L 185.02 371.92 L 186.09 371.92 L 186.18 371.91 L 186.28 371.79 L 186.54 371.77 L 186.66 371.77 L 186.70 371.77 L 186.83 371.77 L 187.15 371.77 L 187.16 371.50 L 187.27 371.49 L 187.39 371.49 L 187.53 371.46 L 187.70 371.46 L 187.76 371.46 L 187.79 371.46 L 187.94 371.46 L 187.96 371.46 L 188.13 371.46 L 188.15 371.46 L 188.40 370.26 L 188.45 370.26 L 188.53 370.11 L 188.64 370.11 L 188.78 370.11 L 188.84 370.10 L 189.33 370.10 L 189.35 370.10 L 189.44 370.02 L 189.66 370.02 L 189.85 369.34 L 189.91 369.25 L 190.00 369.25 L 190.05 369.25 L 190.16 369.23 L 190.71 364.18 L 190.77 364.23 L 190.95 364.23 L 191.01 364.23 L 191.05 364.22 L 191.14 364.22 L 191.23 364.15 L 191.42 364.15 L 191.56 364.15 L 191.67 364.14 L 191.73 364.14 L 192.22 364.13 L 192.49 364.13 L 192.57 364.00 L 192.80 364.00 L 192.82 364.00 L 192.84 364.00 L 192.98 363.66 L 193.10 363.58 L 193.50 362.38 L 193.57 362.38 L 193.65 362.38 L 193.75 362.39 L 193.76 362.39 L 193.81 362.39 L 193.85 362.39 L 193.91 362.39 L 193.96 362.39 L 194.12 362.37 L 194.24 362.37 L 194.35 362.36 L 194.51 362.36 L 194.69 362.35 L 194.86 361.90 L 194.99 361.75 L 195.24 361.75 L 195.24 361.74 L 195.39 361.74 L 207.56 361.74 L 207.79 361.74 L 208.37 361.66 L 208.48 361.65 L 208.58 361.65 L 208.60 361.65 L 208.81 361.65 L 208.95 361.65 L 209.03 361.65 L 209.12 361.65 L 209.17 361.64 L 209.39 361.64 L 209.83 361.67 L 209.94 361.67 L 210.02 361.67 L 210.12 361.67 L 210.69 361.57 L 210.77 361.52 L 210.80 361.52 L 210.84 361.46 L 210.96 361.46 L 211.06 361.45 L 211.47 361.00 L 212.06 361.00 L 212.27 361.00 L 212.92 361.00 L 213.23 357.91 L 213.34 357.90 L 213.47 357.90 L 213.66 357.90 L 213.96 357.90 L 214.37 357.90 L 214.92 357.90 L 215.00 357.90 L 215.41 357.82 L 215.67 357.69 L 215.75 357.69 L 215.91 357.69 L 216.03 357.68 L 217.47 357.48 L 218.84 357.48 L 231.08 357.48 L 231.17 357.48 L 231.23 357.48 L 231.62 357.48 L 232.76 356.51 L 232.81 356.47 L 232.97 356.37 L 233.53 356.37 L 233.80 356.13 L 234.20 356.14 L 234.30 356.14 L 234.38 356.14 L 235.09 353.42 L 235.18 353.42 L 235.33 353.42 L 235.49 353.42 L 235.56 353.25 L 235.96 352.92 L 236.10 352.92 L 236.16 352.92 L 236.25 352.42 L 236.43 351.92 L 236.50 351.92 L 236.68 351.91 L 237.21 347.87 L 237.26 347.87 L 237.31 347.87 L 237.40 347.87 L 237.53 347.87 L 237.58 347.87 L 237.63 347.87 L 237.88 347.87 L 237.95 347.79 L 238.26 347.77 L 238.44 347.71 L 238.56 347.23 L 239.51 339.18 L 239.62 339.18 L 275.60 339.18 L 275.64 339.18 L 289.39 339.18 L 290.14 339.06 L 290.30 339.06 L 290.50 339.06 L 290.56 339.06 L 290.65 339.06 L 296.61 339.00 L 297.40 338.92 L 297.69 338.92 L 297.85 338.90 L 301.56 338.83 L 301.58 338.72 L 301.82 338.72 L 302.93 337.63 L 302.99 337.63 L 303.13 337.63 L 303.52 337.63 L 303.57 337.63 L 303.73 337.63 L 303.89 337.63 L 303.92 337.63 L 315.48 337.61 L 315.57 337.42 L 316.03 337.42 L 316.03 336.11 L 316.11 336.11 L 316.21 336.11 L 316.34 335.98 L 316.54 335.98 L 316.70 335.93 L 316.85 335.93 L 316.91 335.93 L 317.14 335.91 L 317.94 333.68 L 318.26 333.68 L 318.32 333.66 L 318.39 333.66 L 318.43 333.66 L 318.54 333.63 L 318.86 333.35 L 318.91 333.31 L 319.11 331.31 L 319.19 331.30 L 319.22 331.30 L 319.29 331.27 L 319.34 331.27 L 319.39 331.27 L 319.64 330.18 L 319.75 330.16 L 319.89 330.14 L 319.99 326.75 L 320.03 326.74 L 320.28 324.83 L 320.35 324.83 L 320.40 324.83 L 320.47 324.83 L 320.51 324.83 L 320.54 324.83 L 320.56 324.83 L 320.68 321.30 L 320.73 321.29 L 320.85 321.28 L 320.94 321.28 L 321.20 321.21 L 321.52 321.11 L 321.53 321.11 L 321.62 321.09 L 321.92 321.03 L 322.06 321.03 L 322.20 321.03 L 322.35 319.51 L 322.45 319.51 L 322.85 319.50 L 322.89 319.50 L 322.94 319.50 L 322.98 319.50 L 323.24 317.32 L 323.29 317.32 L 323.48 317.31 L 341.27 317.31 L 342.28 317.30 L 342.31 317.30 L 342.51 317.30 L 342.53 317.30 L 342.66 317.30 L 342.76 317.29 L 342.84 317.19 L 342.97 317.19 L 343.00 317.19 L 343.05 317.19 L 343.24 316.99 L 343.63 316.86 L 343.87 316.74 L 344.14 316.12 L 344.15 316.12 L 344.20 315.97 L 344.23 315.95 L 344.76 315.57 L 344.77 315.57 L 344.86 315.52 L 345.08 315.52 L 345.23 315.48 L 345.26 314.58 L 345.27 314.58 L 345.33 315.47 L 345.37 315.42 L 345.40 315.41 L 345.52 314.20 L 345.53 314.20 L 345.81 314.15 L 346.57 314.15 L 346.75 314.15 L 346.81 314.15 L 346.85 314.15 L 346.89 314.15 L 347.00 314.07 L 359.15 313.06 L 359.17 313.06 L 359.28 313.06 L 359.31 312.84 L 359.38 302.10 L 359.51 298.11 L 359.52 298.11 L 359.75 298.04 L 359.80 298.04 L 359.84 298.02 L 360.04 298.02 L 360.56 297.05 L 360.58 297.05 L 360.71 296.99 L 360.76 296.99 L 360.79 296.91 L 361.23 296.33 L 361.24 296.33 L 361.90 296.21 L 361.98 296.17 L 362.22 296.18 L 362.50 294.86 L 362.57 294.73 L 362.61 294.60 L 362.74 294.11 L 363.08 293.99 L 363.14 293.88 L 363.29 293.88 L 363.46 293.88 L 363.97 293.88 L 364.03 293.88 L 364.15 293.88 L 364.16 293.88 L 364.32 293.90 L 364.71 293.90 L 365.10 293.76 L 365.16 293.76 L 365.25 293.74 L 365.37 293.74 L 365.67 293.74 L 366.19 293.74 L 366.35 293.62 L 366.63 290.16 L 367.75 293.43 L 367.99 293.41 L 368.17 293.40 L 368.45 293.40 L 368.54 293.37 L 368.82 293.35 L 369.26 293.15 L 369.32 293.15 L 369.40 293.15 L 369.45 293.15 L 369.50 293.15 L 369.84 292.96 L 377.90 292.96 L 377.97 292.96 L 378.47 292.95 L 378.52 292.95 L 378.63 292.91 L 378.73 292.67 L 378.74 292.67 L 379.02 292.64 L 379.09 292.64 L 380.74 292.44 L 380.93 292.44 L 381.07 292.44 L 381.10 292.44 L 381.61 292.30 L 381.79 292.30 L 381.82 292.30 L 382.10 292.30 L 382.40 291.48 L 382.43 291.48 L 382.68 291.34 L 382.79 291.34 L 382.88 291.34 L 383.09 291.34 L 383.54 291.33 L 383.62 291.31 L 383.71 291.23 L 383.89 291.09 L 384.33 290.96 L 384.73 287.69 L 384.81 287.58 L 385.21 287.43 L 385.28 287.39 L 385.35 287.27 L 385.39 287.05 L 385.53 286.07 L 385.56 286.11 L 385.62 286.09 L 385.85 286.08 L 386.20 285.95 L 386.42 285.90 L 386.67 285.88 L 386.78 285.87 L 387.03 285.86 L 387.44 285.86 L 387.84 285.85 L 388.15 285.85 L 388.22 285.84 L 388.30 285.84 L 388.30 285.83 L 388.54 285.83 L 388.61 285.82 L 388.71 285.70 L 389.37 285.68 L 389.38 285.68 L 389.56 285.67 L 390.33 285.67 L 390.84 285.51 L 391.22 285.37 L 391.23 285.37 L 391.26 285.37 L 402.54 285.36 L 402.58 285.36 L 402.71 285.36 L 402.77 285.36 L 402.81 285.35 L 402.82 285.35 L 403.30 285.35 L 403.41 285.33 L 403.55 285.31 L 403.79 285.29 L 403.95 285.29 L 404.14 285.21 L 404.25 285.21 L 404.30 285.21 L 404.36 285.21 L 404.50 284.91 L 404.52 284.91 L 404.57 284.91 L 404.69 284.91 L 404.77 284.91 L 404.87 284.99 L 405.00 284.99 L 405.28 284.97 L 405.40 284.97 L 405.51 284.97 L 406.20 284.01 L 406.80 283.75 L 407.51 283.07 L 407.69 283.07 L 407.89 283.07 L 408.12 283.07 L 412.27 282.98 L 412.61 282.98 L 451.92 282.86 L 575.72 282.68 L 576.13 282.62 L 576.41 282.62 L 576.70 282.62 L 577.13 282.17 L 577.27 282.17 L 577.38 282.17 L 577.58 280.56 L 577.87 280.87 L 578.10 280.85 L 578.15 280.85 L 578.34 280.83 L 578.39 280.83 L 578.59 280.83 L 578.77 280.76 L 579.33 279.74 L 579.35 279.74 L 579.51 279.65 L 580.04 276.35 L 580.06 276.35 L 580.16 276.35 L 580.29 276.30 L 580.87 274.76 L 580.88 274.76 L 581.00 274.76 L 581.14 274.73 L 581.35 274.17 L 581.37 274.17 L 581.46 274.16 L 581.48 274.16 L 581.53 273.85 L 581.77 271.67 L 581.80 271.67 L 581.89 271.67 L 582.15 271.49 L 582.20 271.49 L 582.41 271.13 L 582.75 271.13 L 582.81 271.13 L 582.85 271.13 L 582.91 271.13 L 583.08 271.12 L 583.27 270.13 L 583.29 270.13 L 583.39 270.13 L 583.50 269.39 L 583.53 269.39 L 583.63 268.60 L 583.68 268.55 L 583.90 267.77 L 583.93 267.77 L 584.03 267.77 L 584.18 267.75 L 585.07 267.75 L 585.52 267.75 L 595.19 267.75 L 595.28 267.75 L 595.38 267.75 L 595.54 267.75 L 595.91 267.54 L 595.93 267.54 L 596.00 267.48 L 596.23 266.39 L 596.26 266.39 L 598.37 266.41 L 598.50 266.19 L 599.56 266.19 L 599.68 266.19 L 599.80 266.11 L 601.09 265.21 L 601.63 265.04 L 601.77 264.98 L 602.23 263.28 L 602.52 263.28 L 602.99 263.14 L 603.84 263.14 L 616.78 263.13 L 617.56 263.03 L 617.59 263.05 L 618.68 263.05 L 618.73 263.05 L 619.11 263.05 L 619.55 263.02 L 619.55 263.02 L 619.60 263.02 L 620.18 262.02 L 621.51 262.00 L 621.59 261.99 L 621.73 261.99 L 621.93 261.95 L 621.99 261.92 L 622.07 261.92 L 622.68 261.87 L 623.18 261.87 L 623.45 261.87 L 623.48 261.87 L 624.04 261.85 L 624.46 261.74 L 624.48 261.74 L 624.53 261.74 L 624.59 261.74 L 638.64 261.50 L 638.67 261.50 L 638.71 261.50 L 638.98 261.50 L 639.19 261.50 L 640.43 260.52 L 640.74 260.46 L 641.63 260.39 L 642.40 260.34 L 642.96 260.34 L 643.12 260.34 L 643.84 258.85 L 644.10 258.81 L 644.19 258.76 L 646.27 257.71 L 646.29 257.71 L 646.40 257.70 L 646.80 257.69 L 646.80 257.69 L 646.82 257.69 L 646.90 257.66 L 647.07 257.62 L 647.30 257.50 L 649.45 255.78 L 649.73 255.69 L 649.93 255.69 L 649.96 255.69 L 650.00 255.69"/>
	</g>
	<g id="poloto_plot2" class="poloto_plot poloto_imgs poloto_line poloto2 poloto_stroke" fill="none" stroke="black">
		<path d=" M 150.00 391.23 L 150.03 391.22 L 150.05 391.22 L 150.06 391.22 L 150.09 391.22 L 150.12 388.98 L 150.25 388.67 L 150.56 388.66 L 151.00 388.65 L 151.23 387.31 L 151.69 387.19 L 151.77 387.15 L 151.83 387.11 L 152.36 386.51 L 153.36 386.04 L 153.68 385.95 L 153.76 385.96 L 154.36 385.92 L 155.06 385.92 L 155.07 385.92 L 155.07 385.92 L 164.47 385.92 L 164.53 385.91 L 164.65 385.90 L 164.70 385.90 L 165.06 385.76 L 165.22 385.72 L 165.62 385.50 L 165.68 385.41 L 165.79 385.21 L 165.91 385.18 L 165.95 385.18 L 166.04 385.14 L 166.15 385.14 L 166.25 385.15 L 166.51 384.92 L 166.74 384.71 L 166.78 384.71 L 166.90 384.59 L 167.64 384.32 L 167.66 384.32 L 167.75 384.24 L 168.18 383.94 L 168.52 383.57 L 168.91 383.42 L 168.99 383.42 L 169.00 383.43 L 169.07 383.22 L 169.22 383.22 L 169.40 383.20 L 169.77 383.04 L 169.80 382.78 L 169.86 382.78 L 169.95 382.65 L 170.16 382.65 L 170.18 382.65 L 170.41 382.26 L 170.49 382.24 L 170.57 382.20 L 170.66 382.02 L 171.80 381.91 L 172.08 381.87 L 172.71 381.60 L 172.85 381.60 L 172.95 381.58 L 173.00 381.38 L 173.44 380.28 L 173.64 380.27 L 173.86 379.93 L 173.97 379.90 L 174.24 379.75 L 174.35 379.70 L 174.51 379.47 L 174.66 379.28 L 175.16 379.27 L 175.18 379.25 L 175.20 379.09 L 175.37 378.03 L 184.09 377.92 L 184.99 377.60 L 185.02 377.56 L 186.09 377.30 L 186.18 377.29 L 186.28 377.09 L 186.54 376.96 L 186.66 376.72 L 186.70 376.52 L 186.83 376.13 L 187.15 376.12 L 187.16 376.12 L 187.27 375.84 L 187.39 375.84 L 187.53 375.55 L 187.70 375.32 L 187.76 375.20 L 187.79 375.19 L 187.94 374.93 L 187.96 374.92 L 188.13 374.68 L 188.15 374.67 L 188.40 374.59 L 188.45 374.59 L 188.53 374.50 L 188.64 374.48 L 188.78 374.48 L 188.84 374.46 L 189.33 374.22 L 189.35 374.23 L 189.44 373.75 L 189.66 373.74 L 189.85 373.59 L 189.91 373.59 L 190.00 373.58 L 190.05 373.55 L 190.16 372.89 L 190.71 372.34 L 190.77 372.04 L 190.95 372.01 L 191.01 371.94 L 191.05 371.92 L 191.14 371.78 L 191.23 371.26 L 191.42 371.18 L 191.56 371.17 L 191.67 370.91 L 191.73 370.90 L 192.22 370.71 L 192.49 370.57 L 192.57 370.45 L 192.80 370.44 L 192.82 370.44 L 192.84 370.41 L 192.98 369.48 L 193.10 369.47 L 193.50 369.33 L 193.57 368.96 L 193.65 368.95 L 193.75 368.80 L 193.76 368.71 L 193.81 368.65 L 193.85 368.61 L 193.91 368.61 L 193.96 368.53 L 194.12 367.48 L 194.24 367.37 L 194.35 367.05 L 194.51 367.03 L 194.69 366.93 L 194.86 366.60 L 194.99 365.68 L 195.24 365.61 L 195.24 365.22 L 195.39 365.13 L 207.56 365.13 L 207.79 365.13 L 208.37 364.70 L 208.48 364.70 L 208.58 364.70 L 208.60 364.58 L 208.81 364.40 L 208.95 364.36 L 209.03 364.25 L 209.12 364.17 L 209.17 364.13 L 209.39 364.07 L 209.83 364.16 L 209.94 363.87 L 210.02 363.80 L 210.12 363.79 L 210.69 363.73 L 210.77 363.68 L 210.80 363.68 L 210.84 363.62 L 210.96 363.58 L 211.06 363.47 L 211.47 363.20 L 212.06 363.08 L 212.27 363.03 L 212.92 362.86 L 213.23 362.43 L 213.34 362.36 L 213.47 362.02 L 213.66 361.59 L 213.96 361.48 L 214.37 361.47 L 214.92 361.45 L 215.00 361.29 L 215.41 361.19 L 215.67 361.05 L 215.75 360.94 L 215.91 360.90 L 216.03 360.61 L 217.47 360.47 L 218.84 360.47 L 231.08 360.44 L 231.17 360.29 L 231.23 360.18 L 231.62 360.02 L 232.76 359.73 L 232.81 359.69 L 232.97 359.49 L 233.53 359.41 L 233.80 358.86 L 234.20 358.84 L 234.30 358.82 L 234.38 358.28 L 235.09 357.77 L 235.18 357.76 L 235.33 357.73 L 235.49 357.69 L 235.56 357.50 L 235.96 356.65 L 236.10 356.43 L 236.16 356.42 L 236.25 356.33 L 236.43 355.99 L 236.50 355.14 L 236.68 354.79 L 237.21 354.59 L 237.26 354.16 L 237.31 354.16 L 237.40 354.09 L 237.53 353.97 L 237.58 353.94 L 237.63 353.90 L 237.88 352.91 L 237.95 352.32 L 238.26 352.21 L 238.44 351.22 L 238.56 351.03 L 239.51 349.48 L 239.62 349.45 L 275.60 349.00 L 275.64 349.00 L 289.39 348.87 L 290.14 348.70 L 290.30 348.70 L 290.50 348.62 L 290.56 348.49 L 290.65 348.47 L 296.61 348.45 L 297.40 346.66 L 297.69 346.51 L 297.85 345.89 L 301.56 345.82 L 301.58 345.76 L 301.82 345.75 L 302.93 345.64 L 302.99 345.43 L 303.13 345.36 L 303.52 345.27 L 303.57 345.24 L 303.73 344.90 L 303.89 344.79 L 303.92 344.53 L 315.48 344.19 L 315.57 343.38 L 316.03 343.16 L 316.03 342.85 L 316.11 342.61 L 316.21 342.24 L 316.34 341.25 L 316.54 340.71 L 316.70 340.02 L 316.85 340.01 L 316.91 339.48 L 317.14 339.44 L 317.94 338.93 L 318.26 338.69 L 318.32 338.55 L 318.39 338.54 L 318.43 338.37 L 318.54 337.76 L 318.86 337.70 L 318.91 337.69 L 319.11 337.30 L 319.19 337.30 L 319.22 337.07 L 319.29 336.93 L 319.34 336.92 L 319.39 336.60 L 319.64 336.41 L 319.75 336.10 L 319.89 336.09 L 319.99 335.92 L 320.03 335.68 L 320.28 335.54 L 320.35 335.40 L 320.40 335.40 L 320.47 335.40 L 320.51 335.15 L 320.54 335.16 L 320.56 335.16 L 320.68 335.07 L 320.73 334.80 L 320.85 334.80 L 320.94 334.73 L 321.20 334.71 L 321.52 334.68 L 321.53 334.68 L 321.62 334.67 L 321.92 334.66 L 322.06 334.66 L 322.20 334.66 L 322.35 334.62 L 322.45 334.29 L 322.85 334.29 L 322.89 334.10 L 322.94 334.10 L 322.98 333.88 L 323.24 333.80 L 323.29 333.75 L 323.48 333.75 L 341.27 333.69 L 342.28 333.60 L 342.31 333.60 L 342.51 333.60 L 342.53 333.60 L 342.66 333.21 L 342.76 333.20 L 342.84 333.09 L 342.97 333.03 L 343.00 333.00 L 343.05 332.98 L 343.24 332.94 L 343.63 332.87 L 343.87 332.35 L 344.14 332.32 L 344.15 332.29 L 344.20 331.86 L 344.23 331.85 L 344.76 331.85 L 344.77 331.81 L 344.86 331.41 L 345.08 331.36 L 345.23 331.34 L 345.26 331.34 L 345.27 331.29 L 345.33 331.26 L 345.37 330.85 L 345.40 330.84 L 345.52 330.84 L 345.53 330.81 L 345.81 330.77 L 346.57 330.75 L 346.75 330.72 L 346.81 330.71 L 346.85 330.58 L 346.89 330.58 L 347.00 330.12 L 359.15 329.97 L 359.17 329.84 L 359.28 329.75 L 359.31 329.73 L 359.38 329.34 L 359.51 329.25 L 359.52 329.22 L 359.75 329.22 L 359.80 329.22 L 359.84 328.83 L 360.04 328.78 L 360.56 328.77 L 360.58 328.74 L 360.71 328.53 L 360.76 328.54 L 360.79 328.18 L 361.23 328.18 L 361.24 328.16 L 361.90 328.07 L 361.98 327.64 L 362.22 327.64 L 362.50 327.63 L 362.57 327.31 L 362.61 327.07 L 362.74 327.06 L 363.08 327.01 L 363.14 326.99 L 363.29 326.89 L 363.46 326.89 L 363.97 326.89 L 364.03 326.89 L 364.15 326.87 L 364.16 326.86 L 364.32 326.86 L 364.71 326.84 L 365.10 326.79 L 365.16 326.79 L 365.25 326.75 L 365.37 326.63 L 365.67 326.63 L 366.19 326.49 L 366.35 326.25 L 366.63 326.22 L 367.75 325.96 L 367.99 325.96 L 368.17 325.95 L 368.45 325.94 L 368.54 325.93 L 368.82 325.79 L 369.26 325.77 L 369.32 325.66 L 369.40 325.60 L 369.45 325.61 L 369.50 325.57 L 369.84 325.55 L 377.90 325.54 L 377.97 325.54 L 378.47 325.54 L 378.52 325.53 L 378.63 325.17 L 378.73 325.15 L 378.74 325.16 L 379.02 325.15 L 379.09 325.13 L 380.74 324.60 L 380.93 324.54 L 381.07 324.53 L 381.10 324.52 L 381.61 324.51 L 381.79 324.59 L 381.82 324.58 L 382.10 324.55 L 382.40 324.04 L 382.43 324.03 L 382.68 324.02 L 382.79 324.02 L 382.88 324.02 L 383.09 323.91 L 383.54 323.46 L 383.62 323.46 L 383.71 323.39 L 383.89 322.97 L 384.33 322.51 L 384.73 322.54 L 384.81 322.30 L 385.21 322.30 L 385.28 322.27 L 385.35 322.24 L 385.39 322.00 L 385.53 321.99 L 385.56 321.99 L 385.62 321.99 L 385.85 321.99 L 386.20 321.80 L 386.42 321.78 L 386.67 321.78 L 386.78 321.78 L 387.03 321.78 L 387.44 321.78 L 387.84 321.78 L 388.15 321.78 L 388.22 321.77 L 388.30 321.77 L 388.30 321.68 L 388.54 321.62 L 388.61 321.62 L 388.71 321.61 L 389.37 321.60 L 389.38 321.37 L 389.56 321.37 L 390.33 321.37 L 390.84 321.36 L 391.22 321.31 L 391.23 321.22 L 391.26 321.22 L 402.54 321.06 L 402.58 321.05 L 402.71 321.04 L 402.77 320.90 L 402.81 320.90 L 402.82 320.89 L 403.30 320.84 L 403.41 320.36 L 403.55 320.25 L 403.79 319.30 L 403.95 319.29 L 404.14 318.89 L 404.25 318.93 L 404.30 318.93 L 404.36 318.41 L 404.50 318.32 L 404.52 317.96 L 404.57 317.91 L 404.69 317.88 L 404.77 317.69 L 404.87 319.83 L 405.00 319.80 L 405.28 318.94 L 405.40 318.75 L 405.51 318.56 L 406.20 318.22 L 406.80 317.86 L 407.51 317.36 L 407.69 317.30 L 407.89 317.30 L 408.12 317.26 L 412.27 317.01 L 412.61 316.98 L 451.92 316.31 L 575.72 316.29 L 576.13 315.99 L 576.41 315.94 L 576.70 315.94 L 577.13 315.67 L 577.27 315.35 L 577.38 314.77 L 577.58 314.61 L 577.87 314.67 L 578.10 314.33 L 578.15 314.32 L 578.34 314.21 L 578.39 314.22 L 578.59 313.65 L 578.77 312.77 L 579.33 312.68 L 579.35 312.59 L 579.51 311.46 L 580.04 311.42 L 580.06 311.31 L 580.16 311.25 L 580.29 310.22 L 580.87 310.17 L 580.88 310.02 L 581.00 309.95 L 581.14 309.28 L 581.35 309.26 L 581.37 309.15 L 581.46 308.03 L 581.48 308.00 L 581.53 307.97 L 581.77 307.97 L 581.80 307.85 L 581.89 307.77 L 582.15 307.67 L 582.20 307.66 L 582.41 307.61 L 582.75 307.65 L 582.81 307.60 L 582.85 307.57 L 582.91 307.53 L 583.08 306.38 L 583.27 306.35 L 583.29 306.25 L 583.39 305.06 L 583.50 304.64 L 583.53 304.48 L 583.63 303.90 L 583.68 302.89 L 583.90 302.88 L 583.93 302.82 L 584.03 302.62 L 584.18 302.61 L 585.07 302.58 L 585.52 302.56 L 595.19 302.60 L 595.28 302.37 L 595.38 302.20 L 595.54 301.40 L 595.91 301.39 L 595.93 301.31 L 596.00 300.30 L 596.23 300.29 L 596.26 300.19 L 598.37 300.09 L 598.50 299.72 L 599.56 299.54 L 599.68 299.50 L 599.80 298.38 L 601.09 298.06 L 601.63 297.79 L 601.77 296.94 L 602.23 296.94 L 602.52 296.47 L 602.99 295.74 L 603.84 295.30 L 616.78 295.30 L 617.56 295.29 L 617.59 295.29 L 618.68 295.12 L 618.73 295.03 L 619.11 294.97 L 619.55 294.02 L 619.55 294.02 L 619.60 293.98 L 620.18 293.78 L 621.51 293.15 L 621.59 293.09 L 621.73 293.08 L 621.93 292.82 L 621.99 292.78 L 622.07 292.73 L 622.68 292.72 L 623.18 292.72 L 623.45 292.72 L 623.48 292.68 L 624.04 291.72 L 624.46 291.64 L 624.48 291.56 L 624.53 291.47 L 624.59 291.23 L 638.64 291.05 L 638.67 291.03 L 638.71 291.01 L 638.98 290.90 L 639.19 290.78 L 640.43 290.24 L 640.74 290.13 L 641.63 289.71 L 642.40 289.65 L 642.96 289.48 L 643.12 288.07 L 643.84 287.83 L 644.10 287.76 L 644.19 286.74 L 646.27 285.76 L 646.29 285.76 L 646.40 285.31 L 646.80 285.27 L 646.80 285.27 L 646.82 285.15 L 646.90 285.03 L 647.07 284.92 L 647.30 284.23 L 649.45 283.86 L 649.73 283.71 L 649.93 283.32 L 649.96 283.28 L 650.00 283.04"/>
	</g>
	<g class="poloto_legend poloto_imgs poloto_line poloto0 poloto_stroke"><line x1="680" x2="730" y1="81.25" y2="81.25"/></g>
	<g class="poloto_legend poloto_imgs poloto_line poloto1 poloto_stroke"><line x1="680" x2="730" y1="131.25" y2="131.25"/></g>
	<g class="poloto_legend poloto_imgs poloto_line poloto2 poloto_stroke"><line x1="680" x2="730" y1="181.25" y2="181.25"/></g>
	<text class="poloto_legend poloto_text poloto_line poloto0" x="675" y="100">total</text>
	<text class="poloto_legend poloto_text poloto_line poloto1" x="675" y="150">code</text>
	<text class="poloto_legend poloto_text poloto_line poloto2" x="675" y="200">docs</text>
	<text class="poloto_text poloto_name poloto_title" x="400.00" y="37.50">Workspace lines over time</text>
	<text class="poloto_text poloto_name poloto_x" x="400.00" y="640">date (JST)</text>
	<text class="poloto_text poloto_name poloto_y" x="37.50" y="250.00" transform="rotate(-90,37.50,250.00)">lines</text>
	<text class="poloto_text poloto_ticks poloto_y">
		<tspan x="135.00" y="400.00">0</tspan>
		<tspan x="135.00" y="316.60">50K</tspan>
		<tspan x="135.00" y="233.21">100K</tspan>
		<tspan x="135.00" y="149.81">150K</tspan>
	</text>
	<g class="poloto_imgs poloto_ticks poloto_y" stroke="black">
		<line x1="150.00" x2="144.00" y1="400.00" y2="400.00"/>
		<line x1="150.00" x2="144.00" y1="316.60" y2="316.60"/>
		<line x1="150.00" x2="144.00" y1="233.21" y2="233.21"/>
		<line x1="150.00" x2="144.00" y1="149.81" y2="149.81"/>
	</g>
	<g class="poloto_text poloto_ticks poloto_x">
		<text x="230.93" y="430.00" text-anchor="end" transform="rotate(-90 230.93 430.00)">2026-04-24 12:06</text>
		<text x="355.50" y="430.00" text-anchor="end" transform="rotate(-90 355.50 430.00)">2026-04-30 07:00</text>
		<text x="480.07" y="430.00" text-anchor="end" transform="rotate(-90 480.07 430.00)">2026-05-06 01:53</text>
		<text x="604.64" y="430.00" text-anchor="end" transform="rotate(-90 604.64 430.00)">2026-05-11 20:46</text>
	</g>
	<g class="poloto_imgs poloto_ticks poloto_x" stroke="black">
		<line x1="230.93" x2="230.93" y1="400.00" y2="405.00"/>
		<line x1="355.50" x2="355.50" y1="400.00" y2="405.00"/>
		<line x1="480.07" x2="480.07" y1="400.00" y2="405.00"/>
		<line x1="604.64" x2="604.64" y1="400.00" y2="405.00"/>
	</g>
	<path class="poloto_imgs poloto_ticks poloto_x" stroke="black" style="stroke-dasharray:12.457048098157554;stroke-dashoffset:-80.9267146877828;" d=" M 150.00 400.00 L 650.00 400.00"/>
	<path class="poloto_imgs poloto_ticks poloto_y" stroke="black" style="stroke-dasharray:8.339588024351597;stroke-dashoffset:-0;" d=" M 150.00 400.00 L 150.00 100.00"/>
</svg>

