<svg class="poloto" width="800" height="680" viewBox="0 0 800 680" xmlns="http://www.w3.org/2000/svg">
	<style>
.poloto{
  stroke-linecap:round;
  stroke-linejoin:round;
  font-family:Roboto,sans-serif;
  font-size:16px;
}
.poloto_background{fill:AliceBlue;}
.poloto_scatter{stroke-width:7}
.poloto_line{stroke-width:2}
.poloto_text{fill: black;}
.poloto_name{font-size:24px;dominant-baseline:auto;text-anchor:middle;}
.poloto_where{dominant-baseline:middle;text-anchor:start}
.poloto_text.poloto_legend{font-size:20px;dominant-baseline:middle;text-anchor:start;}
.poloto_text.poloto_ticks.poloto_y{dominant-baseline:middle;text-anchor:end}
.poloto_text.poloto_ticks.poloto_x{dominant-baseline:auto;text-anchor:middle}
.poloto_imgs.poloto_ticks{stroke: black;stroke-width:3;fill:none;stroke-dasharray:none}
.poloto_grid{stroke:gray;stroke-width:0.5}

.poloto0.poloto_stroke{stroke:blue;}
.poloto1.poloto_stroke{stroke:red;}
.poloto2.poloto_stroke{stroke:green;}
.poloto3.poloto_stroke{stroke:gold;}
.poloto4.poloto_stroke{stroke:aqua;}
.poloto5.poloto_stroke{stroke:lime;}
.poloto6.poloto_stroke{stroke:orange;}
.poloto7.poloto_stroke{stroke:chocolate;}
.poloto0.poloto_fill{fill:blue;}
.poloto1.poloto_fill{fill:red;}
.poloto2.poloto_fill{fill:green;}
.poloto3.poloto_fill{fill:gold;}
.poloto4.poloto_fill{fill:aqua;}
.poloto5.poloto_fill{fill:lime;}
.poloto6.poloto_fill{fill:orange;}
.poloto7.poloto_fill{fill:chocolate;}
	</style>
	<circle r="1e5" class="poloto_background" fill="white"/>
	<g id="poloto_plot0" class="poloto_plot poloto_imgs poloto_line poloto0 poloto_stroke" fill="none" stroke="black">
		<path d=" M 150.00 371.56 L 150.02 371.54 L 150.04 371.52 L 150.05 371.52 L 150.07 371.52 L 150.09 368.44 L 150.20 368.06 L 150.43 368.05 L 150.78 367.79 L 150.96 366.22 L 151.31 366.13 L 151.38 366.04 L 151.42 366.01 L 151.84 365.24 L 152.61 364.62 L 152.86 362.20 L 152.92 362.20 L 153.39 362.11 L 153.93 362.10 L 153.94 362.10 L 153.94 362.10 L 161.24 362.10 L 161.29 362.09 L 161.39 362.07 L 161.43 362.04 L 161.71 361.90 L 161.83 361.87 L 162.14 361.64 L 162.18 361.54 L 162.27 361.32 L 162.37 361.29 L 162.39 361.29 L 162.47 361.23 L 162.55 361.23 L 162.63 361.23 L 162.83 360.87 L 163.01 360.65 L 163.05 360.65 L 163.13 360.52 L 163.71 361.08 L 163.72 361.08 L 163.80 360.98 L 164.13 360.57 L 164.39 360.07 L 164.69 359.86 L 164.76 359.82 L 164.76 359.82 L 164.82 359.63 L 164.94 359.63 L 165.08 359.56 L 165.37 359.37 L 165.39 359.08 L 165.44 359.08 L 165.51 358.93 L 165.67 358.93 L 165.69 358.93 L 165.86 358.52 L 165.93 358.50 L 165.99 358.46 L 166.06 358.30 L 166.94 358.07 L 167.16 358.03 L 167.65 357.73 L 167.76 357.73 L 167.84 357.72 L 167.88 357.51 L 168.22 356.29 L 168.37 356.26 L 168.55 355.85 L 168.63 355.81 L 168.84 355.47 L 168.93 355.35 L 169.05 355.13 L 169.16 354.94 L 169.56 352.12 L 169.57 352.05 L 169.59 351.88 L 169.72 350.52 L 176.49 350.42 L 177.19 348.88 L 177.22 348.84 L 178.05 348.60 L 178.12 348.59 L 178.19 348.28 L 178.40 348.13 L 178.49 347.87 L 178.52 347.64 L 178.63 347.23 L 178.87 347.22 L 178.88 346.95 L 178.97 346.65 L 179.06 346.64 L 179.17 346.30 L 179.30 346.06 L 179.35 345.94 L 179.37 345.93 L 179.49 345.67 L 179.50 345.66 L 179.63 345.40 L 179.65 345.39 L 179.85 344.11 L 179.88 344.11 L 179.95 343.90 L 180.03 343.89 L 180.14 343.89 L 180.19 343.86 L 180.57 343.62 L 180.58 343.63 L 180.65 343.06 L 180.82 343.05 L 180.97 342.20 L 181.02 342.13 L 181.09 342.12 L 181.13 342.09 L 181.21 341.43 L 181.64 335.89 L 181.68 335.62 L 181.83 335.60 L 181.87 335.53 L 181.91 335.51 L 181.98 335.37 L 182.04 334.74 L 182.19 334.61 L 182.30 334.59 L 182.38 334.32 L 182.43 334.31 L 182.81 334.11 L 183.02 333.95 L 183.08 333.70 L 183.26 333.69 L 183.28 333.69 L 183.30 333.67 L 183.41 332.33 L 183.50 332.26 L 183.81 330.91 L 183.86 330.52 L 183.92 330.51 L 184.01 330.37 L 184.02 330.26 L 184.05 330.20 L 184.08 330.16 L 184.13 330.16 L 184.17 330.09 L 184.29 328.99 L 184.38 328.83 L 184.47 328.51 L 184.60 328.49 L 184.73 328.38 L 184.87 327.61 L 184.96 326.53 L 185.16 326.47 L 185.16 326.07 L 185.28 325.93 L 194.74 325.94 L 194.92 325.92 L 195.36 325.35 L 195.46 325.34 L 195.53 325.34 L 195.54 325.20 L 195.71 325.02 L 195.82 324.99 L 195.88 324.89 L 195.95 324.81 L 195.99 324.77 L 196.16 324.72 L 196.50 324.65 L 196.58 324.36 L 196.65 324.28 L 196.73 324.27 L 197.17 324.13 L 197.23 324.04 L 197.26 324.04 L 197.29 323.93 L 197.38 323.88 L 197.46 323.78 L 197.77 323.05 L 198.23 322.94 L 198.40 322.89 L 198.90 322.71 L 199.14 319.23 L 199.23 319.15 L 199.33 318.81 L 199.48 318.36 L 199.71 318.23 L 200.03 318.21 L 200.46 318.20 L 200.52 318.05 L 200.84 317.89 L 201.04 317.64 L 201.10 317.53 L 201.22 317.50 L 201.32 317.19 L 202.44 316.84 L 203.50 316.84 L 213.02 316.81 L 213.09 316.66 L 213.14 316.56 L 213.43 316.41 L 214.32 315.21 L 214.36 315.13 L 214.48 314.83 L 214.92 314.75 L 215.13 313.93 L 215.44 313.93 L 215.52 313.91 L 215.59 313.36 L 216.14 310.19 L 216.20 310.19 L 216.32 310.16 L 216.44 310.12 L 216.50 309.77 L 216.81 308.58 L 216.92 308.36 L 216.97 308.34 L 217.04 307.79 L 217.18 307.01 L 217.23 306.19 L 217.37 305.82 L 217.78 301.70 L 217.82 301.29 L 217.86 301.29 L 217.93 301.21 L 218.03 301.11 L 218.07 301.07 L 218.11 301.03 L 218.31 300.04 L 218.35 299.34 L 218.59 299.20 L 218.74 298.17 L 218.83 297.52 L 219.57 287.92 L 219.65 287.89 L 247.62 287.43 L 247.65 287.43 L 258.34 287.30 L 258.92 287.04 L 259.04 287.04 L 259.20 286.96 L 259.25 286.84 L 259.31 286.81 L 263.95 286.74 L 264.56 284.92 L 264.79 284.75 L 264.91 284.08 L 267.80 283.95 L 267.81 283.76 L 267.99 283.74 L 268.86 282.59 L 268.91 282.38 L 269.02 282.31 L 269.32 282.23 L 269.36 282.20 L 269.48 281.85 L 269.61 281.76 L 269.63 281.50 L 278.62 281.15 L 278.68 280.17 L 279.04 279.95 L 279.05 278.30 L 279.11 278.06 L 279.18 277.66 L 279.28 276.52 L 279.44 275.92 L 279.56 275.21 L 279.68 275.21 L 279.73 274.67 L 279.91 274.62 L 280.53 271.97 L 280.78 271.69 L 280.82 271.52 L 280.87 271.51 L 280.91 271.33 L 280.99 270.68 L 281.25 270.37 L 281.28 270.33 L 281.44 267.99 L 281.50 267.99 L 281.52 267.73 L 281.58 267.54 L 281.62 267.54 L 281.65 267.19 L 281.85 265.93 L 281.93 265.57 L 282.04 265.52 L 282.12 262.15 L 282.15 261.88 L 282.35 259.95 L 282.40 259.80 L 282.44 259.79 L 282.49 259.79 L 282.52 259.52 L 282.55 259.53 L 282.56 259.52 L 282.66 256.12 L 282.69 255.82 L 282.79 255.80 L 282.86 255.74 L 283.06 255.65 L 283.31 255.52 L 283.32 255.52 L 283.39 255.48 L 283.62 255.41 L 283.73 255.41 L 283.84 255.41 L 283.95 253.93 L 284.03 253.57 L 284.35 253.56 L 284.38 253.33 L 284.41 253.33 L 284.44 253.07 L 284.65 250.92 L 284.68 250.87 L 284.84 250.86 L 298.66 250.80 L 299.45 250.69 L 299.47 250.69 L 299.63 250.69 L 299.64 250.69 L 299.74 250.26 L 299.82 250.24 L 299.88 250.03 L 299.98 249.98 L 300.01 249.95 L 300.04 249.93 L 300.19 249.69 L 300.49 249.48 L 300.68 248.79 L 300.89 248.13 L 300.90 248.10 L 300.94 247.48 L 300.96 247.46 L 301.37 247.10 L 301.38 247.05 L 301.45 246.57 L 301.62 246.51 L 301.74 246.47 L 301.76 245.60 L 301.77 245.55 L 301.82 246.38 L 301.85 245.87 L 301.87 245.85 L 301.97 244.69 L 301.97 244.66 L 302.19 244.56 L 302.78 244.54 L 302.92 244.50 L 302.97 244.49 L 302.99 244.34 L 303.03 244.34 L 303.11 243.76 L 312.56 242.65 L 312.58 242.50 L 312.65 242.39 L 312.68 242.18 L 312.73 232.46 L 312.84 228.49 L 312.85 228.46 L 313.02 228.38 L 313.06 228.38 L 313.09 227.93 L 313.25 227.88 L 313.65 226.94 L 313.66 226.92 L 313.77 226.63 L 313.81 226.64 L 313.83 226.17 L 314.17 225.62 L 314.18 225.60 L 314.70 225.38 L 314.76 224.89 L 314.94 224.90 L 315.16 223.64 L 315.21 223.15 L 315.25 222.75 L 315.34 222.26 L 315.61 222.09 L 315.66 221.97 L 315.78 221.86 L 315.90 221.86 L 316.30 221.86 L 316.35 221.86 L 316.44 221.84 L 316.45 221.84 L 316.58 221.85 L 316.88 221.83 L 317.18 221.64 L 317.23 221.64 L 317.30 221.57 L 317.39 221.44 L 317.63 221.44 L 318.03 221.26 L 318.15 220.87 L 318.37 217.53 L 319.24 220.36 L 319.43 220.34 L 319.57 220.33 L 319.79 220.33 L 319.86 220.27 L 320.07 220.11 L 320.41 219.88 L 320.46 219.73 L 320.52 219.66 L 320.56 219.68 L 320.60 219.63 L 320.87 219.42 L 327.13 219.42 L 327.19 219.42 L 327.58 219.41 L 327.61 219.39 L 327.70 218.97 L 327.77 218.73 L 327.78 218.73 L 328.00 218.69 L 328.05 218.67 L 329.33 218.04 L 329.48 217.99 L 329.60 217.97 L 329.62 217.97 L 330.02 217.82 L 330.15 217.89 L 330.18 217.89 L 330.39 217.85 L 330.62 216.52 L 330.65 216.51 L 330.85 216.36 L 330.93 216.36 L 331.00 216.36 L 331.16 216.22 L 331.51 215.68 L 331.58 215.66 L 331.64 215.51 L 331.78 214.88 L 332.13 214.23 L 332.44 211.15 L 332.50 210.77 L 332.81 210.62 L 332.87 210.54 L 332.92 210.39 L 332.95 209.90 L 333.06 209.01 L 333.08 209.05 L 333.13 209.03 L 333.31 209.03 L 333.58 208.70 L 333.75 208.64 L 333.95 208.62 L 334.03 208.61 L 334.22 208.60 L 334.54 208.60 L 334.86 208.59 L 335.10 208.59 L 335.15 208.58 L 335.21 208.57 L 335.22 208.46 L 335.40 208.40 L 335.45 208.39 L 335.53 208.26 L 336.04 208.24 L 336.05 207.97 L 336.19 207.96 L 336.79 207.96 L 337.19 207.80 L 337.48 207.60 L 337.49 207.50 L 337.51 207.49 L 346.28 207.31 L 346.31 207.31 L 346.41 207.30 L 346.46 207.14 L 346.49 207.12 L 346.50 207.11 L 346.87 207.07 L 346.95 206.52 L 347.07 206.39 L 347.25 205.29 L 347.37 205.28 L 347.52 204.81 L 347.61 204.87 L 347.65 204.87 L 347.69 204.33 L 347.80 203.97 L 347.82 203.58 L 347.85 203.53 L 347.95 203.49 L 348.01 203.31 L 348.09 205.41 L 348.20 205.37 L 348.41 204.54 L 348.51 204.33 L 348.59 204.15 L 349.13 202.95 L 349.59 202.37 L 350.14 201.26 L 350.29 201.20 L 350.44 201.20 L 350.61 201.15 L 353.84 200.84 L 354.11 200.81 L 384.66 199.96 L 480.88 199.77 L 481.20 199.42 L 481.42 199.38 L 481.64 199.38 L 481.97 198.73 L 482.09 198.41 L 482.17 197.82 L 482.33 196.13 L 482.55 196.48 L 482.73 196.11 L 482.77 196.11 L 482.92 196.00 L 482.95 196.00 L 483.11 195.38 L 483.25 194.39 L 483.69 193.33 L 483.70 193.25 L 483.83 191.99 L 484.24 188.88 L 484.25 188.77 L 484.33 188.71 L 484.43 187.60 L 484.88 186.10 L 484.89 185.96 L 484.99 185.89 L 485.09 185.15 L 485.26 184.57 L 485.27 184.46 L 485.34 183.32 L 485.36 183.30 L 485.39 182.98 L 485.58 180.95 L 485.61 180.84 L 485.67 180.72 L 485.88 180.45 L 485.92 180.44 L 486.08 180.06 L 486.35 180.10 L 486.39 180.05 L 486.42 180.02 L 486.47 179.99 L 486.60 178.80 L 486.75 177.83 L 486.77 177.75 L 486.85 176.53 L 486.93 175.35 L 486.95 175.21 L 487.03 173.82 L 487.07 172.73 L 487.24 171.99 L 487.26 171.94 L 487.34 171.71 L 487.46 171.69 L 488.15 171.66 L 488.49 171.63 L 496.01 171.68 L 496.09 171.46 L 496.16 171.28 L 496.29 170.47 L 496.57 170.25 L 496.59 170.18 L 496.64 169.10 L 496.82 168.05 L 496.84 167.96 L 498.48 167.89 L 498.58 167.30 L 499.41 167.13 L 499.50 167.09 L 499.60 165.87 L 500.59 164.73 L 501.02 164.29 L 501.13 163.41 L 501.48 161.88 L 501.71 161.44 L 502.08 160.54 L 502.74 160.08 L 512.80 160.07 L 513.40 159.97 L 513.43 159.99 L 514.27 159.81 L 514.31 159.73 L 514.60 159.66 L 514.95 158.66 L 514.95 158.66 L 514.99 158.62 L 515.43 157.49 L 516.47 156.84 L 516.53 156.78 L 516.64 156.77 L 516.80 156.47 L 516.84 156.39 L 516.90 156.33 L 517.38 156.29 L 517.77 156.29 L 517.98 156.29 L 518.00 156.25 L 518.43 155.25 L 518.76 155.06 L 518.78 154.99 L 518.82 154.91 L 518.87 154.64 L 529.78 154.26 L 529.80 154.24 L 529.83 154.22 L 530.05 154.11 L 530.21 153.99 L 531.17 152.46 L 531.41 152.28 L 532.10 151.82 L 532.70 151.71 L 533.14 151.56 L 533.27 150.15 L 533.82 148.50 L 534.02 148.39 L 534.10 147.32 L 535.71 145.36 L 535.73 145.36 L 535.82 144.88 L 536.12 144.83 L 536.13 144.83 L 536.14 144.71 L 536.20 144.56 L 536.34 144.40 L 536.51 143.58 L 538.19 141.60 L 538.41 141.36 L 538.56 141.01 L 538.58 140.96 L 538.61 140.69 L 546.05 139.79 L 546.29 139.11 L 546.43 139.08 L 546.48 138.63 L 547.18 138.42 L 547.33 137.97 L 547.46 137.97 L 547.54 137.02 L 547.77 134.60 L 547.81 134.56 L 548.12 134.52 L 548.19 133.73 L 548.46 132.79 L 548.52 132.13 L 548.74 131.53 L 548.90 131.21 L 549.03 130.48 L 549.31 129.87 L 549.34 129.18 L 549.70 129.03 L 549.73 129.03 L 549.79 128.15 L 549.86 128.15 L 549.90 128.08 L 550.32 126.44 L 550.92 125.90 L 551.21 126.08 L 552.20 126.00 L 552.22 125.99 L 552.38 125.97 L 552.44 125.96 L 552.55 125.84 L 552.67 125.75 L 552.81 125.57 L 553.10 125.33 L 553.38 125.32 L 554.26 125.15 L 554.30 125.14 L 555.18 124.99 L 555.56 124.89 L 563.08 124.87 L 563.46 124.75 L 563.65 124.67 L 563.73 124.67 L 563.76 124.67 L 563.94 124.64 L 564.03 124.59 L 564.25 124.43 L 564.39 124.41 L 564.88 124.24 L 565.13 123.87 L 565.56 123.81 L 565.67 123.58 L 565.82 123.43 L 566.00 123.24 L 566.65 123.29 L 566.72 123.27 L 567.66 122.82 L 567.81 122.55 L 568.00 122.46 L 568.46 122.24 L 568.67 122.30 L 568.78 122.66 L 568.87 122.64 L 569.00 122.49 L 569.40 121.41 L 569.83 121.30 L 570.21 121.21 L 570.25 121.16 L 570.30 120.85 L 597.51 120.78 L 597.69 120.64 L 613.34 120.29 L 613.42 120.69 L 613.55 119.03 L 613.56 119.03 L 613.61 119.08 L 614.17 115.72 L 614.23 115.69 L 614.92 115.77 L 615.62 115.56 L 615.86 115.24 L 616.30 114.84 L 616.89 114.58 L 616.90 114.58 L 616.98 114.51 L 617.20 114.45 L 617.28 114.28 L 617.84 113.47 L 618.57 113.30 L 618.65 113.14 L 619.02 113.07 L 619.13 113.71 L 619.41 113.48 L 619.64 113.42 L 620.12 113.25 L 620.57 113.16 L 620.80 112.80 L 620.81 112.80 L 630.61 112.79 L 633.68 111.87 L 633.81 111.43 L 633.96 111.01 L 634.46 110.98 L 634.66 110.84 L 634.82 108.69 L 634.92 107.30 L 635.15 107.16 L 635.19 107.14 L 635.53 106.73 L 635.64 106.51 L 635.70 106.40 L 635.88 106.05 L 635.95 106.03 L 636.05 105.99 L 636.12 105.79 L 636.20 105.55 L 636.30 105.43 L 636.37 105.39 L 636.69 105.29 L 636.84 105.05 L 636.97 104.92 L 637.01 104.24 L 637.37 104.10 L 637.51 103.71 L 646.74 103.80 L 647.42 103.55 L 647.53 103.55 L 647.95 102.74 L 648.13 102.64 L 648.90 101.34 L 649.23 101.21 L 649.68 100.03 L 649.74 100.03 L 650.00 100.00"/>
	</g>
	<g id="poloto_plot1" class="poloto_plot poloto_imgs poloto_line poloto1 poloto_stroke" fill="none" stroke="black">
		<path d=" M 150.00 383.10 L 150.02 383.09 L 150.04 383.07 L 150.05 383.07 L 150.07 383.07 L 150.09 382.54 L 150.20 382.52 L 150.43 382.51 L 150.78 382.31 L 150.96 382.22 L 151.31 382.24 L 151.38 382.20 L 151.42 382.20 L 151.84 382.16 L 152.61 382.06 L 152.86 379.97 L 152.92 379.97 L 153.39 379.92 L 153.93 379.92 L 153.94 379.92 L 153.94 379.92 L 161.24 379.92 L 161.29 379.92 L 161.39 379.91 L 161.43 379.89 L 161.71 379.87 L 161.83 379.87 L 162.14 379.87 L 162.18 379.87 L 162.27 379.86 L 162.37 379.86 L 162.39 379.86 L 162.47 379.83 L 162.55 379.83 L 162.63 379.83 L 162.83 379.72 L 163.01 379.72 L 163.05 379.72 L 163.13 379.72 L 163.71 380.50 L 163.72 380.50 L 163.80 380.49 L 164.13 380.37 L 164.39 380.24 L 164.69 380.19 L 164.76 380.14 L 164.76 380.14 L 164.82 380.14 L 164.94 380.14 L 165.08 380.09 L 165.37 380.05 L 165.39 380.05 L 165.44 380.05 L 165.51 380.03 L 165.67 380.03 L 165.69 380.03 L 165.86 380.02 L 165.93 380.02 L 165.99 380.02 L 166.06 380.02 L 166.94 379.93 L 167.16 379.92 L 167.65 379.88 L 167.76 379.88 L 167.84 379.88 L 167.88 379.88 L 168.22 379.82 L 168.37 379.82 L 168.55 379.74 L 168.63 379.73 L 168.84 379.56 L 168.93 379.50 L 169.05 379.50 L 169.16 379.50 L 169.56 377.06 L 169.57 377.01 L 169.59 377.01 L 169.72 376.78 L 176.49 376.78 L 177.19 375.72 L 177.22 375.72 L 178.05 375.72 L 178.12 375.72 L 178.19 375.61 L 178.40 375.59 L 178.49 375.59 L 178.52 375.59 L 178.63 375.59 L 178.87 375.59 L 178.88 375.37 L 178.97 375.36 L 179.06 375.36 L 179.17 375.33 L 179.30 375.33 L 179.35 375.33 L 179.37 375.33 L 179.49 375.33 L 179.50 375.33 L 179.63 375.33 L 179.65 375.33 L 179.85 374.29 L 179.88 374.29 L 179.95 374.17 L 180.03 374.17 L 180.14 374.17 L 180.19 374.16 L 180.57 374.15 L 180.58 374.15 L 180.65 374.09 L 180.82 374.09 L 180.97 373.50 L 181.02 373.42 L 181.09 373.42 L 181.13 373.42 L 181.21 373.40 L 181.64 369.04 L 181.68 369.08 L 181.83 369.08 L 181.87 369.08 L 181.91 369.07 L 181.98 369.07 L 182.04 369.01 L 182.19 369.01 L 182.30 369.01 L 182.38 369.00 L 182.43 369.00 L 182.81 369.00 L 183.02 368.99 L 183.08 368.88 L 183.26 368.88 L 183.28 368.88 L 183.30 368.88 L 183.41 368.59 L 183.50 368.52 L 183.81 367.48 L 183.86 367.48 L 183.92 367.48 L 184.01 367.49 L 184.02 367.49 L 184.05 367.49 L 184.08 367.49 L 184.13 367.49 L 184.17 367.49 L 184.29 367.47 L 184.38 367.47 L 184.47 367.46 L 184.60 367.46 L 184.73 367.45 L 184.87 367.07 L 184.96 366.94 L 185.16 366.94 L 185.16 366.93 L 185.28 366.93 L 194.74 366.93 L 194.92 366.93 L 195.36 366.86 L 195.46 366.85 L 195.53 366.85 L 195.54 366.85 L 195.71 366.85 L 195.82 366.85 L 195.88 366.85 L 195.95 366.85 L 195.99 366.84 L 196.16 366.84 L 196.50 366.87 L 196.58 366.87 L 196.65 366.87 L 196.73 366.87 L 197.17 366.78 L 197.23 366.74 L 197.26 366.74 L 197.29 366.69 L 197.38 366.68 L 197.46 366.68 L 197.77 366.29 L 198.23 366.29 L 198.40 366.29 L 198.90 366.29 L 199.14 363.61 L 199.23 363.61 L 199.33 363.61 L 199.48 363.61 L 199.71 363.61 L 200.03 363.61 L 200.46 363.61 L 200.52 363.61 L 200.84 363.54 L 201.04 363.43 L 201.10 363.43 L 201.22 363.43 L 201.32 363.42 L 202.44 363.25 L 203.50 363.25 L 213.02 363.25 L 213.09 363.25 L 213.14 363.25 L 213.43 363.25 L 214.32 362.40 L 214.36 362.38 L 214.48 362.29 L 214.92 362.28 L 215.13 362.08 L 215.44 362.09 L 215.52 362.09 L 215.59 362.09 L 216.14 359.74 L 216.20 359.74 L 216.32 359.74 L 216.44 359.74 L 216.50 359.59 L 216.81 359.31 L 216.92 359.31 L 216.97 359.31 L 217.04 358.88 L 217.18 358.44 L 217.23 358.44 L 217.37 358.44 L 217.78 354.94 L 217.82 354.94 L 217.86 354.94 L 217.93 354.94 L 218.03 354.94 L 218.07 354.94 L 218.11 354.94 L 218.31 354.94 L 218.35 354.87 L 218.59 354.85 L 218.74 354.80 L 218.83 354.38 L 219.57 347.43 L 219.65 347.43 L 247.62 347.43 L 247.65 347.43 L 258.34 347.43 L 258.92 347.32 L 259.04 347.32 L 259.20 347.32 L 259.25 347.32 L 259.31 347.32 L 263.95 347.27 L 264.56 347.20 L 264.79 347.20 L 264.91 347.18 L 267.80 347.12 L 267.81 347.03 L 267.99 347.03 L 268.86 346.09 L 268.91 346.09 L 269.02 346.09 L 269.32 346.09 L 269.36 346.09 L 269.48 346.09 L 269.61 346.09 L 269.63 346.09 L 278.62 346.07 L 278.68 345.91 L 279.04 345.91 L 279.05 344.77 L 279.11 344.77 L 279.18 344.77 L 279.28 344.67 L 279.44 344.67 L 279.56 344.62 L 279.68 344.62 L 279.73 344.62 L 279.91 344.60 L 280.53 342.67 L 280.78 342.67 L 280.82 342.66 L 280.87 342.66 L 280.91 342.66 L 280.99 342.63 L 281.25 342.39 L 281.28 342.36 L 281.44 340.62 L 281.50 340.62 L 281.52 340.62 L 281.58 340.59 L 281.62 340.59 L 281.65 340.59 L 281.85 339.65 L 281.93 339.63 L 282.04 339.61 L 282.12 336.68 L 282.15 336.68 L 282.35 335.03 L 282.40 335.03 L 282.44 335.02 L 282.49 335.02 L 282.52 335.02 L 282.55 335.02 L 282.56 335.02 L 282.66 331.97 L 282.69 331.97 L 282.79 331.96 L 282.86 331.96 L 283.06 331.89 L 283.31 331.81 L 283.32 331.81 L 283.39 331.79 L 283.62 331.74 L 283.73 331.74 L 283.84 331.74 L 283.95 330.43 L 284.03 330.43 L 284.35 330.42 L 284.38 330.42 L 284.41 330.42 L 284.44 330.42 L 284.65 328.54 L 284.68 328.54 L 284.84 328.52 L 298.66 328.52 L 299.45 328.51 L 299.47 328.51 L 299.63 328.51 L 299.64 328.51 L 299.74 328.51 L 299.82 328.51 L 299.88 328.42 L 299.98 328.42 L 300.01 328.42 L 300.04 328.42 L 300.19 328.25 L 300.49 328.14 L 300.68 328.03 L 300.89 327.50 L 300.90 327.50 L 300.94 327.36 L 300.96 327.35 L 301.37 327.02 L 301.38 327.02 L 301.45 326.98 L 301.62 326.98 L 301.74 326.94 L 301.76 326.16 L 301.77 326.16 L 301.82 326.93 L 301.85 326.89 L 301.87 326.88 L 301.97 325.83 L 301.97 325.83 L 302.19 325.79 L 302.78 325.79 L 302.92 325.79 L 302.97 325.79 L 302.99 325.79 L 303.03 325.79 L 303.11 325.72 L 312.56 324.85 L 312.58 324.85 L 312.65 324.85 L 312.68 324.66 L 312.73 315.38 L 312.84 311.93 L 312.85 311.93 L 313.02 311.87 L 313.06 311.87 L 313.09 311.85 L 313.25 311.85 L 313.65 311.01 L 313.66 311.01 L 313.77 310.96 L 313.81 310.96 L 313.83 310.89 L 314.17 310.39 L 314.18 310.39 L 314.70 310.28 L 314.76 310.25 L 314.94 310.26 L 315.16 309.12 L 315.21 309.00 L 315.25 308.90 L 315.34 308.47 L 315.61 308.36 L 315.66 308.27 L 315.78 308.27 L 315.90 308.27 L 316.30 308.27 L 316.35 308.27 L 316.44 308.27 L 316.45 308.27 L 316.58 308.29 L 316.88 308.29 L 317.18 308.17 L 317.23 308.17 L 317.30 308.15 L 317.39 308.15 L 317.63 308.15 L 318.03 308.15 L 318.15 308.05 L 318.37 305.05 L 319.24 307.88 L 319.43 307.87 L 319.57 307.86 L 319.79 307.86 L 319.86 307.83 L 320.07 307.81 L 320.41 307.64 L 320.46 307.64 L 320.52 307.64 L 320.56 307.64 L 320.60 307.64 L 320.87 307.47 L 327.13 307.47 L 327.19 307.48 L 327.58 307.47 L 327.61 307.47 L 327.70 307.44 L 327.77 307.23 L 327.78 307.22 L 328.00 307.20 L 328.05 307.20 L 329.33 307.03 L 329.48 307.03 L 329.60 307.03 L 329.62 307.03 L 330.02 306.91 L 330.15 306.91 L 330.18 306.91 L 330.39 306.90 L 330.62 306.20 L 330.65 306.20 L 330.85 306.08 L 330.93 306.08 L 331.00 306.08 L 331.16 306.08 L 331.51 306.06 L 331.58 306.05 L 331.64 305.98 L 331.78 305.86 L 332.13 305.75 L 332.44 302.93 L 332.50 302.83 L 332.81 302.70 L 332.87 302.66 L 332.92 302.56 L 332.95 302.36 L 333.06 301.52 L 333.08 301.55 L 333.13 301.54 L 333.31 301.53 L 333.58 301.42 L 333.75 301.37 L 333.95 301.36 L 334.03 301.35 L 334.22 301.34 L 334.54 301.34 L 334.86 301.33 L 335.10 301.33 L 335.15 301.32 L 335.21 301.32 L 335.22 301.32 L 335.40 301.32 L 335.45 301.31 L 335.53 301.20 L 336.04 301.19 L 336.05 301.19 L 336.19 301.18 L 336.79 301.17 L 337.19 301.04 L 337.48 300.91 L 337.49 300.91 L 337.51 300.91 L 346.28 300.91 L 346.31 300.91 L 346.41 300.91 L 346.46 300.91 L 346.49 300.90 L 346.50 300.90 L 346.87 300.90 L 346.95 300.89 L 347.07 300.87 L 347.25 300.85 L 347.37 300.85 L 347.52 300.78 L 347.61 300.78 L 347.65 300.78 L 347.69 300.78 L 347.80 300.52 L 347.82 300.52 L 347.85 300.52 L 347.95 300.52 L 348.01 300.52 L 348.09 300.58 L 348.20 300.58 L 348.41 300.57 L 348.51 300.57 L 348.59 300.57 L 349.13 299.74 L 349.59 299.52 L 350.14 298.93 L 350.29 298.93 L 350.44 298.93 L 350.61 298.93 L 353.84 298.85 L 354.11 298.85 L 384.66 298.74 L 480.88 298.59 L 481.20 298.54 L 481.42 298.54 L 481.64 298.54 L 481.97 298.15 L 482.09 298.15 L 482.17 298.15 L 482.33 296.76 L 482.55 297.03 L 482.73 297.01 L 482.77 297.01 L 482.92 297.00 L 482.95 297.00 L 483.11 296.99 L 483.25 296.93 L 483.69 296.05 L 483.70 296.05 L 483.83 295.97 L 484.24 293.12 L 484.25 293.12 L 484.33 293.12 L 484.43 293.07 L 484.88 291.75 L 484.89 291.75 L 484.99 291.75 L 485.09 291.72 L 485.26 291.23 L 485.27 291.23 L 485.34 291.23 L 485.36 291.23 L 485.39 290.96 L 485.58 289.07 L 485.61 289.07 L 485.67 289.07 L 485.88 288.91 L 485.92 288.91 L 486.08 288.60 L 486.35 288.60 L 486.39 288.60 L 486.42 288.60 L 486.47 288.60 L 486.60 288.60 L 486.75 287.75 L 486.77 287.75 L 486.85 287.74 L 486.93 287.10 L 486.95 287.10 L 487.03 286.42 L 487.07 286.38 L 487.24 285.70 L 487.26 285.70 L 487.34 285.70 L 487.46 285.69 L 488.15 285.69 L 488.49 285.68 L 496.01 285.68 L 496.09 285.68 L 496.16 285.68 L 496.29 285.68 L 496.57 285.51 L 496.59 285.51 L 496.64 285.45 L 496.82 284.51 L 496.84 284.51 L 498.48 284.53 L 498.58 284.34 L 499.41 284.34 L 499.50 284.34 L 499.60 284.27 L 500.59 283.49 L 501.02 283.35 L 501.13 283.29 L 501.48 281.82 L 501.71 281.82 L 502.08 281.70 L 502.74 281.70 L 512.80 281.69 L 513.40 281.61 L 513.43 281.63 L 514.27 281.63 L 514.31 281.63 L 514.60 281.63 L 514.95 281.60 L 514.95 281.60 L 514.99 281.60 L 515.43 280.74 L 516.47 280.71 L 516.53 280.71 L 516.64 280.71 L 516.80 280.68 L 516.84 280.65 L 516.90 280.65 L 517.38 280.61 L 517.77 280.61 L 517.98 280.61 L 518.00 280.61 L 518.43 280.59 L 518.76 280.49 L 518.78 280.49 L 518.82 280.49 L 518.87 280.49 L 529.78 280.29 L 529.80 280.29 L 529.83 280.29 L 530.05 280.29 L 530.21 280.29 L 531.17 279.44 L 531.41 279.39 L 532.10 279.32 L 532.70 279.28 L 533.14 279.28 L 533.27 279.28 L 533.82 277.99 L 534.02 277.96 L 534.10 277.91 L 535.71 277.01 L 535.73 277.01 L 535.82 277.00 L 536.12 276.99 L 536.13 276.99 L 536.14 276.99 L 536.20 276.96 L 536.34 276.93 L 536.51 276.83 L 538.19 275.34 L 538.41 275.26 L 538.56 275.26 L 538.58 275.26 L 538.61 275.26 L 546.05 275.26 L 546.29 275.25 L 546.43 275.25 L 546.48 275.25 L 547.18 275.25 L 547.33 275.25 L 547.46 275.25 L 547.54 275.22 L 547.77 273.27 L 547.81 273.26 L 548.12 273.27 L 548.19 273.25 L 548.46 272.50 L 548.52 272.46 L 548.74 271.96 L 548.90 271.96 L 549.03 271.92 L 549.31 271.47 L 549.34 271.46 L 549.70 270.02 L 549.73 270.02 L 549.79 270.01 L 549.86 270.01 L 549.90 270.01 L 550.32 268.55 L 550.92 268.43 L 551.21 268.43 L 552.20 268.39 L 552.22 268.38 L 552.38 268.38 L 552.44 268.38 L 552.55 268.38 L 552.67 268.38 L 552.81 268.37 L 553.10 268.35 L 553.38 268.35 L 554.26 268.29 L 554.30 268.29 L 555.18 268.24 L 555.56 268.21 L 563.08 268.22 L 563.46 268.15 L 563.65 268.07 L 563.73 268.07 L 563.76 268.07 L 563.94 268.07 L 564.03 268.07 L 564.25 268.07 L 564.39 268.06 L 564.88 267.93 L 565.13 267.67 L 565.56 267.65 L 565.67 267.47 L 565.82 267.39 L 566.00 267.31 L 566.65 267.39 L 566.72 267.39 L 567.66 267.12 L 567.81 267.12 L 568.00 267.12 L 568.46 267.09 L 568.67 267.23 L 568.78 267.23 L 568.87 267.23 L 569.00 267.23 L 569.40 266.60 L 569.83 266.59 L 570.21 266.58 L 570.25 266.58 L 570.30 266.58 L 597.51 266.58 L 597.69 266.54 L 613.34 266.33 L 613.42 266.33 L 613.55 266.27 L 613.56 266.27 L 613.61 266.27 L 614.17 263.85 L 614.23 263.85 L 614.92 263.85 L 615.62 263.75 L 615.86 263.51 L 616.30 263.20 L 616.89 263.12 L 616.90 263.12 L 616.98 263.07 L 617.20 263.07 L 617.28 263.02 L 617.84 262.37 L 618.57 262.26 L 618.65 262.26 L 619.02 262.26 L 619.13 262.26 L 619.41 262.10 L 619.64 262.07 L 620.12 261.94 L 620.57 261.86 L 620.80 261.86 L 620.81 261.86 L 630.61 261.86 L 633.68 261.82 L 633.81 261.79 L 633.96 261.50 L 634.46 261.52 L 634.66 261.52 L 634.82 261.52 L 634.92 261.40 L 635.15 261.31 L 635.19 261.30 L 635.53 261.07 L 635.64 260.90 L 635.70 260.85 L 635.88 260.75 L 635.95 260.74 L 636.05 260.73 L 636.12 260.59 L 636.20 260.43 L 636.30 260.40 L 636.37 260.40 L 636.69 260.34 L 636.84 260.23 L 636.97 260.13 L 637.01 260.13 L 637.37 260.13 L 637.51 260.13 L 646.74 260.16 L 647.42 260.14 L 647.53 260.14 L 647.95 259.73 L 648.13 259.67 L 648.90 259.63 L 649.23 259.63 L 649.68 258.66 L 649.74 258.66 L 650.00 258.64"/>
	</g>
	<g id="poloto_plot2" class="poloto_plot poloto_imgs poloto_line poloto2 poloto_stroke" fill="none" stroke="black">
		<path d=" M 150.00 392.42 L 150.02 392.41 L 150.04 392.41 L 150.05 392.41 L 150.07 392.41 L 150.09 390.47 L 150.20 390.21 L 150.43 390.20 L 150.78 390.19 L 150.96 389.03 L 151.31 388.92 L 151.38 388.89 L 151.42 388.86 L 151.84 388.34 L 152.61 387.93 L 152.86 387.86 L 152.92 387.86 L 153.39 387.83 L 153.93 387.83 L 153.94 387.83 L 153.94 387.83 L 161.24 387.83 L 161.29 387.82 L 161.39 387.81 L 161.43 387.81 L 161.71 387.69 L 161.83 387.66 L 162.14 387.47 L 162.18 387.39 L 162.27 387.21 L 162.37 387.19 L 162.39 387.19 L 162.47 387.16 L 162.55 387.16 L 162.63 387.16 L 162.83 386.97 L 163.01 386.79 L 163.05 386.79 L 163.13 386.68 L 163.71 386.45 L 163.72 386.45 L 163.80 386.37 L 164.13 386.12 L 164.39 385.80 L 164.69 385.67 L 164.76 385.67 L 164.76 385.67 L 164.82 385.50 L 164.94 385.50 L 165.08 385.47 L 165.37 385.34 L 165.39 385.12 L 165.44 385.12 L 165.51 385.01 L 165.67 385.01 L 165.69 385.01 L 165.86 384.66 L 165.93 384.64 L 165.99 384.61 L 166.06 384.46 L 166.94 384.36 L 167.16 384.33 L 167.65 384.09 L 167.76 384.10 L 167.84 384.08 L 167.88 383.90 L 168.22 382.95 L 168.37 382.94 L 168.55 382.66 L 168.63 382.63 L 168.84 382.50 L 168.93 382.46 L 169.05 382.25 L 169.16 382.09 L 169.56 382.09 L 169.57 382.06 L 169.59 381.93 L 169.72 381.01 L 176.49 380.92 L 177.19 380.64 L 177.22 380.60 L 178.05 380.38 L 178.12 380.37 L 178.19 380.20 L 178.40 380.09 L 178.49 379.88 L 178.52 379.71 L 178.63 379.36 L 178.87 379.36 L 178.88 379.36 L 178.97 379.12 L 179.06 379.12 L 179.17 378.87 L 179.30 378.67 L 179.35 378.56 L 179.37 378.56 L 179.49 378.33 L 179.50 378.32 L 179.63 378.11 L 179.65 378.11 L 179.85 378.03 L 179.88 378.03 L 179.95 377.95 L 180.03 377.94 L 180.14 377.94 L 180.19 377.92 L 180.57 377.72 L 180.58 377.73 L 180.65 377.31 L 180.82 377.30 L 180.97 377.17 L 181.02 377.17 L 181.09 377.17 L 181.13 377.13 L 181.21 376.57 L 181.64 376.09 L 181.68 375.83 L 181.83 375.81 L 181.87 375.74 L 181.91 375.73 L 181.98 375.61 L 182.04 375.16 L 182.19 375.09 L 182.30 375.08 L 182.38 374.86 L 182.43 374.85 L 182.81 374.68 L 183.02 374.56 L 183.08 374.46 L 183.26 374.45 L 183.28 374.45 L 183.30 374.43 L 183.41 373.62 L 183.50 373.61 L 183.81 373.49 L 183.86 373.17 L 183.92 373.16 L 184.01 373.03 L 184.02 372.95 L 184.05 372.90 L 184.08 372.87 L 184.13 372.86 L 184.17 372.80 L 184.29 371.89 L 184.38 371.79 L 184.47 371.52 L 184.60 371.50 L 184.73 371.41 L 184.87 371.13 L 184.96 370.34 L 185.16 370.28 L 185.16 369.94 L 185.28 369.86 L 194.74 369.86 L 194.92 369.86 L 195.36 369.48 L 195.46 369.48 L 195.53 369.48 L 195.54 369.39 L 195.71 369.23 L 195.82 369.20 L 195.88 369.10 L 195.95 369.03 L 195.99 369.00 L 196.16 368.95 L 196.50 369.02 L 196.58 368.77 L 196.65 368.71 L 196.73 368.70 L 197.17 368.65 L 197.23 368.61 L 197.26 368.61 L 197.29 368.56 L 197.38 368.52 L 197.46 368.42 L 197.77 368.19 L 198.23 368.09 L 198.40 368.04 L 198.90 367.89 L 199.14 367.53 L 199.23 367.46 L 199.33 367.17 L 199.48 366.80 L 199.71 366.70 L 200.03 366.70 L 200.46 366.68 L 200.52 366.54 L 200.84 366.45 L 201.04 366.33 L 201.10 366.24 L 201.22 366.20 L 201.32 365.96 L 202.44 365.83 L 203.50 365.83 L 213.02 365.81 L 213.09 365.67 L 213.14 365.58 L 213.43 365.44 L 214.32 365.20 L 214.36 365.16 L 214.48 364.99 L 214.92 364.92 L 215.13 364.44 L 215.44 364.43 L 215.52 364.41 L 215.59 363.94 L 216.14 363.50 L 216.20 363.49 L 216.32 363.47 L 216.44 363.43 L 216.50 363.26 L 216.81 362.53 L 216.92 362.34 L 216.97 362.33 L 217.04 362.25 L 217.18 361.96 L 217.23 361.23 L 217.37 360.92 L 217.78 360.75 L 217.82 360.38 L 217.86 360.38 L 217.93 360.31 L 218.03 360.21 L 218.07 360.19 L 218.11 360.15 L 218.31 359.29 L 218.35 358.79 L 218.59 358.69 L 218.74 357.84 L 218.83 357.67 L 219.57 356.33 L 219.65 356.30 L 247.62 355.91 L 247.65 355.91 L 258.34 355.80 L 258.92 355.66 L 259.04 355.66 L 259.20 355.59 L 259.25 355.48 L 259.31 355.46 L 263.95 355.44 L 264.56 353.90 L 264.79 353.76 L 264.91 353.23 L 267.80 353.16 L 267.81 353.11 L 267.99 353.10 L 268.86 353.01 L 268.91 352.83 L 269.02 352.77 L 269.32 352.69 L 269.36 352.67 L 269.48 352.37 L 269.61 352.28 L 269.63 352.05 L 278.62 351.76 L 278.68 351.06 L 279.04 350.87 L 279.05 350.60 L 279.11 350.39 L 279.18 350.07 L 279.28 349.22 L 279.44 348.75 L 279.56 348.15 L 279.68 348.15 L 279.73 347.68 L 279.91 347.65 L 280.53 347.21 L 280.78 347.01 L 280.82 346.88 L 280.87 346.88 L 280.91 346.73 L 280.99 346.20 L 281.25 346.15 L 281.28 346.14 L 281.44 345.80 L 281.50 345.80 L 281.52 345.60 L 281.58 345.48 L 281.62 345.48 L 281.65 345.20 L 281.85 345.04 L 281.93 344.77 L 282.04 344.75 L 282.12 344.61 L 282.15 344.40 L 282.35 344.29 L 282.40 344.17 L 282.44 344.17 L 282.49 344.16 L 282.52 343.95 L 282.55 343.96 L 282.56 343.95 L 282.66 343.88 L 282.69 343.64 L 282.79 343.64 L 282.86 343.58 L 283.06 343.57 L 283.31 343.54 L 283.32 343.54 L 283.39 343.53 L 283.62 343.53 L 283.73 343.53 L 283.84 343.53 L 283.95 343.49 L 284.03 343.20 L 284.35 343.20 L 284.38 343.04 L 284.41 343.03 L 284.44 342.84 L 284.65 342.78 L 284.68 342.73 L 284.84 342.73 L 298.66 342.68 L 299.45 342.60 L 299.47 342.60 L 299.63 342.60 L 299.64 342.60 L 299.74 342.27 L 299.82 342.26 L 299.88 342.17 L 299.98 342.12 L 300.01 342.09 L 300.04 342.07 L 300.19 342.04 L 300.49 341.97 L 300.68 341.52 L 300.89 341.50 L 300.90 341.47 L 300.94 341.10 L 300.96 341.09 L 301.37 341.09 L 301.38 341.06 L 301.45 340.71 L 301.62 340.67 L 301.74 340.65 L 301.76 340.65 L 301.77 340.61 L 301.82 340.58 L 301.85 340.23 L 301.87 340.22 L 301.97 340.22 L 301.97 340.19 L 302.19 340.16 L 302.78 340.14 L 302.92 340.11 L 302.97 340.10 L 302.99 339.99 L 303.03 339.99 L 303.11 339.59 L 312.56 339.47 L 312.58 339.36 L 312.65 339.28 L 312.68 339.26 L 312.73 338.92 L 312.84 338.84 L 312.85 338.82 L 313.02 338.82 L 313.06 338.82 L 313.09 338.48 L 313.25 338.44 L 313.65 338.43 L 313.66 338.41 L 313.77 338.22 L 313.81 338.23 L 313.83 337.92 L 314.17 337.92 L 314.18 337.90 L 314.70 337.82 L 314.76 337.45 L 314.94 337.45 L 315.16 337.45 L 315.21 337.17 L 315.25 336.96 L 315.34 336.95 L 315.61 336.90 L 315.66 336.89 L 315.78 336.80 L 315.90 336.80 L 316.30 336.80 L 316.35 336.80 L 316.44 336.78 L 316.45 336.78 L 316.58 336.78 L 316.88 336.76 L 317.18 336.72 L 317.23 336.72 L 317.30 336.68 L 317.39 336.58 L 317.63 336.58 L 318.03 336.46 L 318.15 336.25 L 318.37 336.23 L 319.24 336.00 L 319.43 336.00 L 319.57 335.99 L 319.79 335.99 L 319.86 335.97 L 320.07 335.86 L 320.41 335.84 L 320.46 335.74 L 320.52 335.69 L 320.56 335.70 L 320.60 335.66 L 320.87 335.65 L 327.13 335.64 L 327.19 335.64 L 327.58 335.64 L 327.61 335.63 L 327.70 335.32 L 327.77 335.30 L 327.78 335.31 L 328.00 335.30 L 328.05 335.28 L 329.33 334.82 L 329.48 334.77 L 329.60 334.76 L 329.62 334.76 L 330.02 334.75 L 330.15 334.81 L 330.18 334.81 L 330.39 334.78 L 330.62 334.34 L 330.65 334.34 L 330.85 334.32 L 330.93 334.32 L 331.00 334.32 L 331.16 334.23 L 331.51 333.84 L 331.58 333.84 L 331.64 333.78 L 331.78 333.42 L 332.13 333.02 L 332.44 333.05 L 332.50 332.84 L 332.81 332.84 L 332.87 332.81 L 332.92 332.79 L 332.95 332.58 L 333.06 332.57 L 333.08 332.57 L 333.13 332.57 L 333.31 332.57 L 333.58 332.41 L 333.75 332.39 L 333.95 332.39 L 334.03 332.39 L 334.22 332.39 L 334.54 332.39 L 334.86 332.39 L 335.10 332.39 L 335.15 332.38 L 335.21 332.38 L 335.22 332.30 L 335.40 332.25 L 335.45 332.25 L 335.53 332.24 L 336.04 332.24 L 336.05 332.03 L 336.19 332.03 L 336.79 332.03 L 337.19 332.03 L 337.48 331.99 L 337.49 331.90 L 337.51 331.90 L 346.28 331.77 L 346.31 331.76 L 346.41 331.75 L 346.46 331.63 L 346.49 331.63 L 346.50 331.62 L 346.87 331.58 L 346.95 331.16 L 347.07 331.07 L 347.25 330.25 L 347.37 330.24 L 347.52 329.89 L 347.61 329.93 L 347.65 329.92 L 347.69 329.48 L 347.80 329.40 L 347.82 329.09 L 347.85 329.04 L 347.95 329.01 L 348.01 328.86 L 348.09 330.70 L 348.20 330.67 L 348.41 329.93 L 348.51 329.77 L 348.59 329.60 L 349.13 329.31 L 349.59 329.00 L 350.14 328.57 L 350.29 328.52 L 350.44 328.52 L 350.61 328.48 L 353.84 328.26 L 354.11 328.24 L 384.66 327.66 L 480.88 327.64 L 481.20 327.38 L 481.42 327.34 L 481.64 327.34 L 481.97 327.11 L 482.09 326.83 L 482.17 326.33 L 482.33 326.19 L 482.55 326.24 L 482.73 325.95 L 482.77 325.94 L 482.92 325.85 L 482.95 325.85 L 483.11 325.36 L 483.25 324.60 L 483.69 324.53 L 483.70 324.45 L 483.83 323.47 L 484.24 323.44 L 484.25 323.34 L 484.33 323.28 L 484.43 322.40 L 484.88 322.35 L 484.89 322.23 L 484.99 322.17 L 485.09 321.59 L 485.26 321.57 L 485.27 321.47 L 485.34 320.51 L 485.36 320.48 L 485.39 320.45 L 485.58 320.45 L 485.61 320.35 L 485.67 320.28 L 485.88 320.19 L 485.92 320.19 L 486.08 320.14 L 486.35 320.17 L 486.39 320.13 L 486.42 320.11 L 486.47 320.07 L 486.60 319.07 L 486.75 319.05 L 486.77 318.97 L 486.85 317.94 L 486.93 317.57 L 486.95 317.43 L 487.03 316.93 L 487.07 316.06 L 487.24 316.05 L 487.26 316.00 L 487.34 315.83 L 487.46 315.82 L 488.15 315.79 L 488.49 315.77 L 496.01 315.81 L 496.09 315.61 L 496.16 315.47 L 496.29 314.77 L 496.57 314.76 L 496.59 314.69 L 496.64 313.82 L 496.82 313.81 L 496.84 313.73 L 498.48 313.64 L 498.58 313.32 L 499.41 313.17 L 499.50 313.13 L 499.60 312.16 L 500.59 311.88 L 501.02 311.65 L 501.13 310.92 L 501.48 310.92 L 501.71 310.51 L 502.08 309.88 L 502.74 309.50 L 512.80 309.50 L 513.40 309.49 L 513.43 309.49 L 514.27 309.35 L 514.31 309.27 L 514.60 309.21 L 514.95 308.39 L 514.95 308.39 L 514.99 308.36 L 515.43 308.19 L 516.47 307.64 L 516.53 307.59 L 516.64 307.58 L 516.80 307.35 L 516.84 307.32 L 516.90 307.27 L 517.38 307.27 L 517.77 307.27 L 517.98 307.27 L 518.00 307.24 L 518.43 306.41 L 518.76 306.33 L 518.78 306.27 L 518.82 306.19 L 518.87 305.98 L 529.78 305.83 L 529.80 305.81 L 529.83 305.79 L 530.05 305.69 L 530.21 305.59 L 531.17 305.12 L 531.41 305.03 L 532.10 304.67 L 532.70 304.62 L 533.14 304.47 L 533.27 303.25 L 533.82 303.04 L 534.02 302.98 L 534.10 302.10 L 535.71 301.26 L 535.73 301.26 L 535.82 300.86 L 536.12 300.83 L 536.13 300.83 L 536.14 300.73 L 536.20 300.62 L 536.34 300.53 L 536.51 299.93 L 538.19 299.62 L 538.41 299.48 L 538.56 299.15 L 538.58 299.11 L 538.61 298.90 L 546.05 298.13 L 546.29 297.58 L 546.43 297.55 L 546.48 297.18 L 547.18 297.03 L 547.33 296.63 L 547.46 296.63 L 547.54 295.81 L 547.77 295.62 L 547.81 295.59 L 548.12 295.55 L 548.19 294.87 L 548.46 294.79 L 548.52 294.26 L 548.74 294.20 L 548.90 293.90 L 549.03 293.30 L 549.31 293.19 L 549.34 292.58 L 549.70 293.95 L 549.73 293.95 L 549.79 293.17 L 549.86 293.17 L 549.90 293.11 L 550.32 293.04 L 550.92 292.71 L 551.21 292.88 L 552.20 292.85 L 552.22 292.85 L 552.38 292.84 L 552.44 292.82 L 552.55 292.71 L 552.67 292.62 L 552.81 292.48 L 553.10 292.28 L 553.38 292.27 L 554.26 292.17 L 554.30 292.17 L 555.18 292.06 L 555.56 292.00 L 563.08 291.97 L 563.46 291.93 L 563.65 291.93 L 563.73 291.93 L 563.76 291.93 L 563.94 291.91 L 564.03 291.88 L 564.25 291.74 L 564.39 291.72 L 564.88 291.71 L 565.13 291.64 L 565.56 291.60 L 565.67 291.58 L 565.82 291.51 L 566.00 291.42 L 566.65 291.39 L 566.72 291.37 L 567.66 291.22 L 567.81 290.98 L 568.00 290.89 L 568.46 290.75 L 568.67 290.67 L 568.78 291.01 L 568.87 291.00 L 569.00 290.87 L 569.40 290.56 L 569.83 290.47 L 570.21 290.40 L 570.25 290.37 L 570.30 290.13 L 597.51 290.09 L 597.69 290.02 L 613.34 289.95 L 613.42 290.29 L 613.55 288.92 L 613.56 288.92 L 613.61 288.95 L 614.17 288.43 L 614.23 288.40 L 614.92 288.45 L 615.62 288.39 L 615.86 288.35 L 616.30 288.30 L 616.89 288.15 L 616.90 288.15 L 616.98 288.13 L 617.20 288.08 L 617.28 287.98 L 617.84 287.90 L 618.57 287.85 L 618.65 287.71 L 619.02 287.64 L 619.13 288.25 L 619.41 288.20 L 619.64 288.17 L 620.12 288.14 L 620.57 288.14 L 620.80 287.85 L 620.81 287.85 L 630.61 287.84 L 633.68 287.11 L 633.81 286.74 L 633.96 286.65 L 634.46 286.62 L 634.66 286.49 L 634.82 284.66 L 634.92 283.67 L 635.15 283.63 L 635.19 283.62 L 635.53 283.48 L 635.64 283.44 L 635.70 283.38 L 635.88 283.16 L 635.95 283.14 L 636.05 283.12 L 636.12 283.07 L 636.20 283.01 L 636.30 282.92 L 636.37 282.89 L 636.69 282.85 L 636.84 282.75 L 636.97 282.73 L 637.01 282.12 L 637.37 282.00 L 637.51 281.67 L 646.74 281.73 L 647.42 281.54 L 647.53 281.54 L 647.95 281.19 L 648.13 281.15 L 648.90 280.06 L 649.23 279.96 L 649.68 279.82 L 649.74 279.82 L 650.00 279.81"/>
	</g>
	<g class="poloto_legend poloto_imgs poloto_line poloto0 poloto_stroke"><line x1="680" x2="730" y1="81.25" y2="81.25"/></g>
	<g class="poloto_legend poloto_imgs poloto_line poloto1 poloto_stroke"><line x1="680" x2="730" y1="131.25" y2="131.25"/></g>
	<g class="poloto_legend poloto_imgs poloto_line poloto2 poloto_stroke"><line x1="680" x2="730" y1="181.25" y2="181.25"/></g>
	<text class="poloto_legend poloto_text poloto_line poloto0" x="675" y="100">total</text>
	<text class="poloto_legend poloto_text poloto_line poloto1" x="675" y="150">code</text>
	<text class="poloto_legend poloto_text poloto_line poloto2" x="675" y="200">docs</text>
	<text class="poloto_text poloto_name poloto_title" x="400.00" y="37.50">Workspace lines over time</text>
	<text class="poloto_text poloto_name poloto_x" x="400.00" y="640">date (JST)</text>
	<text class="poloto_text poloto_name poloto_y" x="37.50" y="250.00" transform="rotate(-90,37.50,250.00)">lines</text>
	<text class="poloto_text poloto_ticks poloto_y">
		<tspan x="135.00" y="400.00">0</tspan>
		<tspan x="135.00" y="327.91">50K</tspan>
		<tspan x="135.00" y="255.83">100K</tspan>
		<tspan x="135.00" y="183.74">150K</tspan>
		<tspan x="135.00" y="111.66">200K</tspan>
	</text>
	<g class="poloto_imgs poloto_ticks poloto_y" stroke="black">
		<line x1="150.00" x2="144.00" y1="400.00" y2="400.00"/>
		<line x1="150.00" x2="144.00" y1="327.91" y2="327.91"/>
		<line x1="150.00" x2="144.00" y1="255.83" y2="255.83"/>
		<line x1="150.00" x2="144.00" y1="183.74" y2="183.74"/>
		<line x1="150.00" x2="144.00" y1="111.66" y2="111.66"/>
	</g>
	<g class="poloto_text poloto_ticks poloto_x">
		<text x="212.90" y="430.00" text-anchor="end" transform="rotate(-90 212.90 430.00)">2026-04-24 12:06</text>
		<text x="309.72" y="430.00" text-anchor="end" transform="rotate(-90 309.72 430.00)">2026-04-30 07:00</text>
		<text x="406.54" y="430.00" text-anchor="end" transform="rotate(-90 406.54 430.00)">2026-05-06 01:53</text>
		<text x="503.36" y="430.00" text-anchor="end" transform="rotate(-90 503.36 430.00)">2026-05-11 20:46</text>
		<text x="600.18" y="430.00" text-anchor="end" transform="rotate(-90 600.18 430.00)">2026-05-17 15:40</text>
	</g>
	<g class="poloto_imgs poloto_ticks poloto_x" stroke="black">
		<line x1="212.90" x2="212.90" y1="400.00" y2="405.00"/>
		<line x1="309.72" x2="309.72" y1="400.00" y2="405.00"/>
		<line x1="406.54" x2="406.54" y1="400.00" y2="405.00"/>
		<line x1="503.36" x2="503.36" y1="400.00" y2="405.00"/>
		<line x1="600.18" x2="600.18" y1="400.00" y2="405.00"/>
	</g>
	<path class="poloto_imgs poloto_ticks poloto_x" stroke="black" style="stroke-dasharray:9.681921760777527;stroke-dashoffset:-62.898217442038;" d=" M 150.00 400.00 L 650.00 400.00"/>
	<path class="poloto_imgs poloto_ticks poloto_y" stroke="black" style="stroke-dasharray:7.208558000057669;stroke-dashoffset:-0;" d=" M 150.00 400.00 L 150.00 100.00"/>
</svg>

