<svg class="poloto" width="800" height="680" viewBox="0 0 800 680" xmlns="http://www.w3.org/2000/svg">
	<style>
.poloto{
  stroke-linecap:round;
  stroke-linejoin:round;
  font-family:Roboto,sans-serif;
  font-size:16px;
}
.poloto_background{fill:AliceBlue;}
.poloto_scatter{stroke-width:7}
.poloto_line{stroke-width:2}
.poloto_text{fill: black;}
.poloto_name{font-size:24px;dominant-baseline:auto;text-anchor:middle;}
.poloto_where{dominant-baseline:middle;text-anchor:start}
.poloto_text.poloto_legend{font-size:20px;dominant-baseline:middle;text-anchor:start;}
.poloto_text.poloto_ticks.poloto_y{dominant-baseline:middle;text-anchor:end}
.poloto_text.poloto_ticks.poloto_x{dominant-baseline:auto;text-anchor:middle}
.poloto_imgs.poloto_ticks{stroke: black;stroke-width:3;fill:none;stroke-dasharray:none}
.poloto_grid{stroke:gray;stroke-width:0.5}

.poloto0.poloto_stroke{stroke:blue;}
.poloto1.poloto_stroke{stroke:red;}
.poloto2.poloto_stroke{stroke:green;}
.poloto3.poloto_stroke{stroke:gold;}
.poloto4.poloto_stroke{stroke:aqua;}
.poloto5.poloto_stroke{stroke:lime;}
.poloto6.poloto_stroke{stroke:orange;}
.poloto7.poloto_stroke{stroke:chocolate;}
.poloto0.poloto_fill{fill:blue;}
.poloto1.poloto_fill{fill:red;}
.poloto2.poloto_fill{fill:green;}
.poloto3.poloto_fill{fill:gold;}
.poloto4.poloto_fill{fill:aqua;}
.poloto5.poloto_fill{fill:lime;}
.poloto6.poloto_fill{fill:orange;}
.poloto7.poloto_fill{fill:chocolate;}
	</style>
	<circle r="1e5" class="poloto_background" fill="white"/>
	<g id="poloto_plot0" class="poloto_plot poloto_imgs poloto_line poloto0 poloto_stroke" fill="none" stroke="black">
		<path d=" M 150.00 357.61 L 150.04 357.58 L 150.06 357.55 L 150.07 357.55 L 150.10 357.55 L 150.14 352.95 L 150.30 352.40 L 150.65 352.37 L 151.18 351.99 L 151.44 349.66 L 151.98 349.51 L 152.07 349.39 L 152.14 349.34 L 152.77 348.20 L 153.94 347.27 L 154.31 343.66 L 154.40 343.66 L 155.11 343.52 L 155.92 343.50 L 155.93 343.50 L 155.93 343.50 L 166.93 343.50 L 167.01 343.50 L 167.15 343.47 L 167.21 343.43 L 167.63 343.22 L 167.82 343.16 L 168.29 342.83 L 168.35 342.68 L 168.49 342.35 L 168.63 342.30 L 168.67 342.30 L 168.78 342.21 L 168.90 342.21 L 169.02 342.22 L 169.33 341.68 L 169.60 341.35 L 169.65 341.36 L 169.78 341.16 L 170.65 341.98 L 170.67 341.98 L 170.78 341.85 L 171.28 341.23 L 171.68 340.49 L 172.13 340.17 L 172.23 340.11 L 172.24 340.11 L 172.32 339.83 L 172.50 339.83 L 172.72 339.72 L 173.15 339.44 L 173.17 339.01 L 173.25 339.01 L 173.35 338.79 L 173.60 338.79 L 173.63 338.79 L 173.89 338.17 L 173.99 338.14 L 174.08 338.09 L 174.18 337.84 L 175.52 337.51 L 175.84 337.44 L 176.59 337.00 L 176.75 337.00 L 176.86 336.98 L 176.93 336.67 L 177.44 334.84 L 177.67 334.81 L 177.94 334.20 L 178.06 334.14 L 178.38 333.63 L 178.51 333.45 L 178.69 333.12 L 178.86 332.84 L 179.46 328.63 L 179.47 328.53 L 179.50 328.27 L 179.70 326.25 L 189.90 326.10 L 190.96 323.80 L 191.00 323.75 L 192.24 323.38 L 192.35 323.37 L 192.46 322.92 L 192.77 322.69 L 192.91 322.29 L 192.96 321.95 L 193.12 321.35 L 193.48 321.34 L 193.49 320.93 L 193.63 320.48 L 193.77 320.47 L 193.93 319.96 L 194.13 319.60 L 194.21 319.42 L 194.24 319.41 L 194.41 319.02 L 194.44 319.01 L 194.63 318.61 L 194.66 318.60 L 194.96 316.70 L 195.01 316.70 L 195.11 316.38 L 195.23 316.37 L 195.40 316.37 L 195.47 316.32 L 196.04 315.97 L 196.06 315.98 L 196.17 315.14 L 196.42 315.12 L 196.65 313.85 L 196.72 313.74 L 196.83 313.73 L 196.88 313.68 L 197.01 312.70 L 197.65 304.44 L 197.72 304.04 L 197.94 304.01 L 198.01 303.91 L 198.06 303.88 L 198.16 303.66 L 198.26 302.72 L 198.49 302.53 L 198.65 302.51 L 198.78 302.10 L 198.85 302.09 L 199.42 301.78 L 199.74 301.55 L 199.83 301.18 L 200.10 301.16 L 200.12 301.16 L 200.15 301.13 L 200.32 299.14 L 200.45 299.03 L 200.93 297.02 L 201.00 296.44 L 201.09 296.43 L 201.22 296.21 L 201.23 296.06 L 201.29 295.96 L 201.33 295.91 L 201.40 295.90 L 201.46 295.80 L 201.65 294.16 L 201.79 293.92 L 201.92 293.44 L 202.11 293.41 L 202.31 293.25 L 202.52 292.10 L 202.66 290.49 L 202.96 290.40 L 202.96 289.80 L 203.14 289.60 L 217.38 289.61 L 217.65 289.59 L 218.32 288.74 L 218.46 288.72 L 218.57 288.72 L 218.60 288.51 L 218.84 288.24 L 219.01 288.20 L 219.11 288.04 L 219.20 287.93 L 219.26 287.87 L 219.52 287.79 L 220.03 287.69 L 220.16 287.26 L 220.26 287.15 L 220.38 287.13 L 221.04 286.91 L 221.13 286.78 L 221.18 286.78 L 221.22 286.62 L 221.37 286.55 L 221.48 286.39 L 221.95 285.31 L 222.64 285.14 L 222.89 285.07 L 223.65 284.80 L 224.02 279.61 L 224.14 279.50 L 224.30 278.99 L 224.52 278.31 L 224.87 278.12 L 225.35 278.10 L 226.00 278.08 L 226.09 277.85 L 226.57 277.61 L 226.87 277.24 L 226.97 277.08 L 227.15 277.03 L 227.29 276.56 L 228.98 276.06 L 230.58 276.06 L 244.92 276.01 L 245.02 275.78 L 245.09 275.64 L 245.54 275.41 L 246.88 273.62 L 246.94 273.51 L 247.12 273.05 L 247.78 272.93 L 248.09 271.72 L 248.57 271.71 L 248.68 271.69 L 248.78 270.86 L 249.61 266.14 L 249.71 266.13 L 249.89 266.09 L 250.07 266.03 L 250.16 265.52 L 250.62 263.74 L 250.79 263.41 L 250.87 263.39 L 250.97 262.56 L 251.18 261.40 L 251.26 260.17 L 251.47 259.63 L 252.09 253.49 L 252.15 252.87 L 252.21 252.87 L 252.31 252.76 L 252.46 252.60 L 252.52 252.55 L 252.58 252.48 L 252.88 251.01 L 252.95 249.97 L 253.31 249.76 L 253.53 248.22 L 253.66 247.25 L 254.78 232.94 L 254.91 232.90 L 297.03 232.22 L 297.07 232.22 L 313.18 232.02 L 314.05 231.63 L 314.23 231.63 L 314.47 231.52 L 314.55 231.34 L 314.64 231.29 L 321.62 231.19 L 322.55 228.47 L 322.89 228.22 L 323.07 227.22 L 327.42 227.02 L 327.45 226.74 L 327.72 226.72 L 329.02 225.00 L 329.09 224.69 L 329.25 224.58 L 329.71 224.46 L 329.77 224.42 L 329.95 223.90 L 330.15 223.76 L 330.18 223.38 L 343.71 222.86 L 343.81 221.39 L 344.35 221.07 L 344.36 218.61 L 344.46 218.25 L 344.57 217.65 L 344.72 215.95 L 344.95 215.06 L 345.14 214.01 L 345.32 214.00 L 345.39 213.19 L 345.66 213.12 L 346.59 209.17 L 346.97 208.75 L 347.04 208.50 L 347.12 208.49 L 347.16 208.22 L 347.29 207.25 L 347.67 206.78 L 347.73 206.72 L 347.96 203.24 L 348.05 203.23 L 348.09 202.86 L 348.18 202.57 L 348.23 202.57 L 348.29 202.05 L 348.58 200.17 L 348.71 199.63 L 348.88 199.56 L 348.99 194.53 L 349.04 194.12 L 349.33 191.25 L 349.42 191.03 L 349.47 191.02 L 349.55 191.02 L 349.60 190.61 L 349.64 190.63 L 349.65 190.62 L 349.81 185.54 L 349.86 185.10 L 350.00 185.07 L 350.11 184.98 L 350.41 184.84 L 350.79 184.65 L 350.80 184.65 L 350.90 184.59 L 351.25 184.49 L 351.41 184.49 L 351.58 184.49 L 351.75 182.28 L 351.87 181.75 L 352.35 181.74 L 352.39 181.39 L 352.45 181.38 L 352.49 181.01 L 352.80 177.80 L 352.85 177.73 L 353.08 177.71 L 373.90 177.61 L 375.09 177.45 L 375.12 177.45 L 375.36 177.45 L 375.38 177.45 L 375.53 176.81 L 375.65 176.79 L 375.75 176.47 L 375.89 176.39 L 375.93 176.35 L 375.99 176.32 L 376.21 175.97 L 376.66 175.65 L 376.95 174.62 L 377.27 173.64 L 377.28 173.59 L 377.33 172.67 L 377.37 172.64 L 377.99 172.10 L 378.00 172.03 L 378.10 171.31 L 378.37 171.23 L 378.54 171.16 L 378.57 169.86 L 378.59 169.80 L 378.66 171.03 L 378.71 170.27 L 378.73 170.24 L 378.88 168.51 L 378.90 168.46 L 379.22 168.31 L 380.11 168.29 L 380.32 168.23 L 380.39 168.22 L 380.43 167.99 L 380.48 167.99 L 380.61 167.13 L 394.84 165.47 L 394.86 165.25 L 394.98 165.09 L 395.02 164.77 L 395.10 150.29 L 395.25 144.36 L 395.27 144.32 L 395.53 144.21 L 395.60 144.21 L 395.64 143.53 L 395.87 143.46 L 396.49 142.06 L 396.50 142.03 L 396.66 141.59 L 396.72 141.61 L 396.75 140.91 L 397.26 140.08 L 397.28 140.05 L 398.06 139.73 L 398.15 138.99 L 398.43 139.01 L 398.75 137.13 L 398.83 136.40 L 398.89 135.81 L 399.03 135.08 L 399.44 134.83 L 399.51 134.65 L 399.69 134.49 L 399.88 134.49 L 400.48 134.49 L 400.55 134.49 L 400.68 134.45 L 400.69 134.45 L 400.89 134.47 L 401.34 134.43 L 401.80 134.16 L 401.87 134.16 L 401.98 134.05 L 402.11 133.85 L 402.47 133.85 L 403.07 133.59 L 403.27 133.01 L 403.59 128.02 L 404.90 132.24 L 405.19 132.22 L 405.40 132.20 L 405.72 132.19 L 405.83 132.11 L 406.15 131.88 L 406.67 131.53 L 406.74 131.30 L 406.83 131.21 L 406.90 131.23 L 406.94 131.16 L 407.35 130.85 L 416.78 130.84 L 416.87 130.85 L 417.45 130.83 L 417.51 130.81 L 417.64 130.17 L 417.75 129.81 L 417.77 129.81 L 418.09 129.76 L 418.17 129.73 L 420.10 128.79 L 420.33 128.71 L 420.50 128.69 L 420.53 128.68 L 421.13 128.46 L 421.34 128.57 L 421.37 128.56 L 421.69 128.50 L 422.05 126.53 L 422.09 126.51 L 422.38 126.29 L 422.50 126.29 L 422.61 126.29 L 422.86 126.07 L 423.38 125.27 L 423.48 125.24 L 423.58 125.02 L 423.79 124.08 L 424.31 123.10 L 424.77 118.51 L 424.87 117.95 L 425.34 117.73 L 425.42 117.61 L 425.50 117.39 L 425.55 116.65 L 425.71 115.33 L 425.75 115.38 L 425.82 115.36 L 426.09 115.35 L 426.50 114.87 L 426.76 114.77 L 427.05 114.75 L 427.18 114.74 L 427.47 114.72 L 427.95 114.72 L 428.42 114.71 L 428.78 114.70 L 428.87 114.69 L 428.96 114.68 L 428.96 114.51 L 429.24 114.42 L 429.32 114.40 L 429.43 114.20 L 430.21 114.17 L 430.22 113.78 L 430.43 113.76 L 431.33 113.77 L 431.93 113.53 L 432.37 113.23 L 432.38 113.07 L 432.42 113.07 L 445.63 112.80 L 445.67 112.79 L 445.83 112.77 L 445.90 112.54 L 445.94 112.52 L 445.95 112.50 L 446.52 112.44 L 446.64 111.61 L 446.81 111.42 L 447.09 109.79 L 447.27 109.77 L 447.50 109.07 L 447.63 109.16 L 447.69 109.15 L 447.75 108.36 L 447.92 107.81 L 447.94 107.23 L 448.00 107.16 L 448.14 107.11 L 448.23 106.84 L 448.35 109.96 L 448.51 109.91 L 448.84 108.66 L 448.98 108.35 L 449.10 108.09 L 449.92 106.30 L 450.61 105.43 L 451.45 103.77 L 451.66 103.69 L 451.89 103.69 L 452.15 103.62 L 457.01 103.15 L 457.41 103.11 L 503.43 101.84 L 648.35 101.55 L 648.83 101.04 L 649.16 100.97 L 649.50 100.97 L 650.00 100.00"/>
	</g>
	<g id="poloto_plot1" class="poloto_plot poloto_imgs poloto_line poloto1 poloto_stroke" fill="none" stroke="black">
		<path d=" M 150.00 374.81 L 150.04 374.79 L 150.06 374.77 L 150.07 374.77 L 150.10 374.77 L 150.14 373.98 L 150.30 373.95 L 150.65 373.94 L 151.18 373.63 L 151.44 373.50 L 151.98 373.53 L 152.07 373.47 L 152.14 373.47 L 152.77 373.41 L 153.94 373.27 L 154.31 370.15 L 154.40 370.15 L 155.11 370.08 L 155.92 370.06 L 155.93 370.06 L 155.93 370.06 L 166.93 370.06 L 167.01 370.06 L 167.15 370.06 L 167.21 370.02 L 167.63 370.00 L 167.82 370.00 L 168.29 370.00 L 168.35 370.00 L 168.49 369.98 L 168.63 369.98 L 168.67 369.98 L 168.78 369.94 L 168.90 369.94 L 169.02 369.94 L 169.33 369.77 L 169.60 369.77 L 169.65 369.77 L 169.78 369.77 L 170.65 370.94 L 170.67 370.94 L 170.78 370.92 L 171.28 370.75 L 171.68 370.55 L 172.13 370.47 L 172.23 370.41 L 172.24 370.41 L 172.32 370.41 L 172.50 370.41 L 172.72 370.33 L 173.15 370.26 L 173.17 370.26 L 173.25 370.26 L 173.35 370.23 L 173.60 370.23 L 173.63 370.23 L 173.89 370.22 L 173.99 370.22 L 174.08 370.22 L 174.18 370.22 L 175.52 370.08 L 175.84 370.07 L 176.59 370.01 L 176.75 370.01 L 176.86 370.01 L 176.93 370.01 L 177.44 369.92 L 177.67 369.92 L 177.94 369.80 L 178.06 369.79 L 178.38 369.54 L 178.51 369.45 L 178.69 369.45 L 178.86 369.44 L 179.46 365.80 L 179.47 365.74 L 179.50 365.74 L 179.70 365.39 L 189.90 365.39 L 190.96 363.82 L 191.00 363.82 L 192.24 363.82 L 192.35 363.82 L 192.46 363.65 L 192.77 363.62 L 192.91 363.62 L 192.96 363.62 L 193.12 363.62 L 193.48 363.62 L 193.49 363.28 L 193.63 363.27 L 193.77 363.27 L 193.93 363.23 L 194.13 363.23 L 194.21 363.23 L 194.24 363.23 L 194.41 363.23 L 194.44 363.23 L 194.63 363.23 L 194.66 363.23 L 194.96 361.68 L 195.01 361.68 L 195.11 361.50 L 195.23 361.50 L 195.40 361.50 L 195.47 361.48 L 196.04 361.47 L 196.06 361.47 L 196.17 361.38 L 196.42 361.38 L 196.65 360.50 L 196.72 360.39 L 196.83 360.39 L 196.88 360.39 L 197.01 360.36 L 197.65 353.86 L 197.72 353.91 L 197.94 353.91 L 198.01 353.91 L 198.06 353.90 L 198.16 353.90 L 198.26 353.81 L 198.49 353.81 L 198.65 353.81 L 198.78 353.80 L 198.85 353.80 L 199.42 353.79 L 199.74 353.78 L 199.83 353.62 L 200.10 353.62 L 200.12 353.62 L 200.15 353.62 L 200.32 353.19 L 200.45 353.07 L 200.93 351.53 L 201.00 351.53 L 201.09 351.53 L 201.22 351.55 L 201.23 351.55 L 201.29 351.55 L 201.33 351.55 L 201.40 351.55 L 201.46 351.55 L 201.65 351.52 L 201.79 351.52 L 201.92 351.50 L 202.11 351.50 L 202.31 351.49 L 202.52 350.91 L 202.66 350.72 L 202.96 350.72 L 202.96 350.71 L 203.14 350.71 L 217.38 350.71 L 217.65 350.70 L 218.32 350.60 L 218.46 350.59 L 218.57 350.59 L 218.60 350.59 L 218.84 350.59 L 219.01 350.59 L 219.11 350.59 L 219.20 350.59 L 219.26 350.58 L 219.52 350.58 L 220.03 350.61 L 220.16 350.61 L 220.26 350.61 L 220.38 350.61 L 221.04 350.49 L 221.13 350.43 L 221.18 350.43 L 221.22 350.35 L 221.37 350.34 L 221.48 350.34 L 221.95 349.75 L 222.64 349.75 L 222.89 349.75 L 223.65 349.75 L 224.02 345.77 L 224.14 345.76 L 224.30 345.76 L 224.52 345.76 L 224.87 345.76 L 225.35 345.76 L 226.00 345.76 L 226.09 345.76 L 226.57 345.66 L 226.87 345.49 L 226.97 345.49 L 227.15 345.49 L 227.29 345.47 L 228.98 345.22 L 230.58 345.22 L 244.92 345.22 L 245.02 345.22 L 245.09 345.22 L 245.54 345.22 L 246.88 343.96 L 246.94 343.92 L 247.12 343.79 L 247.78 343.79 L 248.09 343.48 L 248.57 343.49 L 248.68 343.49 L 248.78 343.49 L 249.61 339.99 L 249.71 339.99 L 249.89 339.99 L 250.07 339.99 L 250.16 339.77 L 250.62 339.35 L 250.79 339.35 L 250.87 339.35 L 250.97 338.71 L 251.18 338.06 L 251.26 338.06 L 251.47 338.05 L 252.09 332.84 L 252.15 332.84 L 252.21 332.84 L 252.31 332.84 L 252.46 332.84 L 252.52 332.84 L 252.58 332.84 L 252.88 332.84 L 252.95 332.73 L 253.31 332.71 L 253.53 332.63 L 253.66 332.01 L 254.78 321.65 L 254.91 321.65 L 297.03 321.65 L 297.07 321.65 L 313.18 321.65 L 314.05 321.49 L 314.23 321.49 L 314.47 321.49 L 314.55 321.49 L 314.64 321.49 L 321.62 321.41 L 322.55 321.31 L 322.89 321.31 L 323.07 321.28 L 327.42 321.19 L 327.45 321.05 L 327.72 321.05 L 329.02 319.65 L 329.09 319.65 L 329.25 319.65 L 329.71 319.65 L 329.77 319.65 L 329.95 319.65 L 330.15 319.65 L 330.18 319.65 L 343.71 319.62 L 343.81 319.37 L 344.35 319.37 L 344.36 317.68 L 344.46 317.68 L 344.57 317.68 L 344.72 317.52 L 344.95 317.52 L 345.14 317.45 L 345.32 317.45 L 345.39 317.45 L 345.66 317.43 L 346.59 314.56 L 346.97 314.55 L 347.04 314.53 L 347.12 314.53 L 347.16 314.53 L 347.29 314.49 L 347.67 314.13 L 347.73 314.08 L 347.96 311.50 L 348.05 311.49 L 348.09 311.49 L 348.18 311.45 L 348.23 311.45 L 348.29 311.45 L 348.58 310.04 L 348.71 310.02 L 348.88 309.99 L 348.99 305.62 L 349.04 305.62 L 349.33 303.16 L 349.42 303.16 L 349.47 303.15 L 349.55 303.15 L 349.60 303.15 L 349.64 303.15 L 349.65 303.15 L 349.81 298.60 L 349.86 298.60 L 350.00 298.58 L 350.11 298.58 L 350.41 298.49 L 350.79 298.36 L 350.80 298.36 L 350.90 298.34 L 351.25 298.26 L 351.41 298.26 L 351.58 298.26 L 351.75 296.30 L 351.87 296.30 L 352.35 296.29 L 352.39 296.29 L 352.45 296.29 L 352.49 296.29 L 352.80 293.48 L 352.85 293.48 L 353.08 293.47 L 373.90 293.47 L 375.09 293.45 L 375.12 293.45 L 375.36 293.45 L 375.38 293.45 L 375.53 293.45 L 375.65 293.45 L 375.75 293.31 L 375.89 293.31 L 375.93 293.31 L 375.99 293.31 L 376.21 293.05 L 376.66 292.89 L 376.95 292.73 L 377.27 291.94 L 377.28 291.94 L 377.33 291.74 L 377.37 291.71 L 377.99 291.23 L 378.00 291.23 L 378.10 291.16 L 378.37 291.16 L 378.54 291.11 L 378.57 289.95 L 378.59 289.95 L 378.66 291.10 L 378.71 291.03 L 378.73 291.02 L 378.88 289.46 L 378.90 289.46 L 379.22 289.39 L 380.11 289.39 L 380.32 289.39 L 380.39 289.39 L 380.43 289.39 L 380.48 289.39 L 380.61 289.29 L 394.84 287.99 L 394.86 287.99 L 394.98 287.99 L 395.02 287.71 L 395.10 273.88 L 395.25 268.73 L 395.27 268.73 L 395.53 268.64 L 395.60 268.64 L 395.64 268.61 L 395.87 268.61 L 396.49 267.36 L 396.50 267.36 L 396.66 267.29 L 396.72 267.29 L 396.75 267.18 L 397.26 266.43 L 397.28 266.43 L 398.06 266.28 L 398.15 266.23 L 398.43 266.24 L 398.75 264.54 L 398.83 264.37 L 398.89 264.21 L 399.03 263.57 L 399.44 263.42 L 399.51 263.28 L 399.69 263.28 L 399.88 263.28 L 400.48 263.28 L 400.55 263.28 L 400.68 263.28 L 400.69 263.28 L 400.89 263.30 L 401.34 263.30 L 401.80 263.12 L 401.87 263.12 L 401.98 263.10 L 402.11 263.10 L 402.47 263.10 L 403.07 263.10 L 403.27 262.95 L 403.59 258.48 L 404.90 262.70 L 405.19 262.68 L 405.40 262.67 L 405.72 262.67 L 405.83 262.62 L 406.15 262.59 L 406.67 262.33 L 406.74 262.33 L 406.83 262.33 L 406.90 262.33 L 406.94 262.33 L 407.35 262.09 L 416.78 262.09 L 416.87 262.10 L 417.45 262.08 L 417.51 262.08 L 417.64 262.03 L 417.75 261.72 L 417.77 261.72 L 418.09 261.69 L 418.17 261.69 L 420.10 261.43 L 420.33 261.43 L 420.50 261.43 L 420.53 261.43 L 421.13 261.25 L 421.34 261.25 L 421.37 261.25 L 421.69 261.24 L 422.05 260.18 L 422.09 260.18 L 422.38 260.01 L 422.50 260.01 L 422.61 260.01 L 422.86 260.01 L 423.38 259.99 L 423.48 259.96 L 423.58 259.86 L 423.79 259.68 L 424.31 259.52 L 424.77 255.31 L 424.87 255.17 L 425.34 254.97 L 425.42 254.92 L 425.50 254.77 L 425.55 254.47 L 425.71 253.21 L 425.75 253.27 L 425.82 253.24 L 426.09 253.23 L 426.50 253.06 L 426.76 253.00 L 427.05 252.98 L 427.18 252.96 L 427.47 252.95 L 427.95 252.95 L 428.42 252.93 L 428.78 252.93 L 428.87 252.92 L 428.96 252.92 L 428.96 252.91 L 429.24 252.91 L 429.32 252.90 L 429.43 252.74 L 430.21 252.72 L 430.22 252.72 L 430.43 252.70 L 431.33 252.70 L 431.93 252.49 L 432.37 252.31 L 432.38 252.31 L 432.42 252.31 L 445.63 252.31 L 445.67 252.31 L 445.83 252.31 L 445.90 252.31 L 445.94 252.28 L 445.95 252.28 L 446.52 252.28 L 446.64 252.27 L 446.81 252.24 L 447.09 252.21 L 447.27 252.21 L 447.50 252.11 L 447.63 252.11 L 447.69 252.11 L 447.75 252.11 L 447.92 251.73 L 447.94 251.73 L 448.00 251.73 L 448.14 251.73 L 448.23 251.73 L 448.35 251.82 L 448.51 251.82 L 448.84 251.80 L 448.98 251.80 L 449.10 251.80 L 449.92 250.57 L 450.61 250.23 L 451.45 249.35 L 451.66 249.35 L 451.89 249.35 L 452.15 249.35 L 457.01 249.24 L 457.41 249.24 L 503.43 249.08 L 648.35 248.85 L 648.83 248.78 L 649.16 248.77 L 649.50 248.77 L 650.00 248.19"/>
	</g>
	<g id="poloto_plot2" class="poloto_plot poloto_imgs poloto_line poloto2 poloto_stroke" fill="none" stroke="black">
		<path d=" M 150.00 388.70 L 150.04 388.69 L 150.06 388.69 L 150.07 388.69 L 150.10 388.69 L 150.14 385.80 L 150.30 385.40 L 150.65 385.39 L 151.18 385.37 L 151.44 383.64 L 151.98 383.49 L 152.07 383.44 L 152.14 383.40 L 152.77 382.62 L 153.94 382.02 L 154.31 381.90 L 154.40 381.91 L 155.11 381.86 L 155.92 381.86 L 155.93 381.86 L 155.93 381.86 L 166.93 381.86 L 167.01 381.85 L 167.15 381.83 L 167.21 381.83 L 167.63 381.66 L 167.82 381.61 L 168.29 381.32 L 168.35 381.20 L 168.49 380.94 L 168.63 380.91 L 168.67 380.91 L 168.78 380.86 L 168.90 380.86 L 169.02 380.86 L 169.33 380.57 L 169.60 380.30 L 169.65 380.31 L 169.78 380.15 L 170.65 379.80 L 170.67 379.80 L 170.78 379.69 L 171.28 379.31 L 171.68 378.83 L 172.13 378.64 L 172.23 378.64 L 172.24 378.65 L 172.32 378.38 L 172.50 378.38 L 172.72 378.35 L 173.15 378.15 L 173.17 377.82 L 173.25 377.82 L 173.35 377.65 L 173.60 377.65 L 173.63 377.65 L 173.89 377.14 L 173.99 377.11 L 174.08 377.07 L 174.18 376.83 L 175.52 376.69 L 175.84 376.64 L 176.59 376.29 L 176.75 376.29 L 176.86 376.27 L 176.93 376.01 L 177.44 374.59 L 177.67 374.57 L 177.94 374.15 L 178.06 374.11 L 178.38 373.91 L 178.51 373.85 L 178.69 373.55 L 178.86 373.30 L 179.46 373.30 L 179.47 373.27 L 179.50 373.06 L 179.70 371.70 L 189.90 371.56 L 190.96 371.14 L 191.00 371.09 L 192.24 370.75 L 192.35 370.74 L 192.46 370.49 L 192.77 370.32 L 192.91 370.01 L 192.96 369.75 L 193.12 369.24 L 193.48 369.23 L 193.49 369.23 L 193.63 368.88 L 193.77 368.87 L 193.93 368.50 L 194.13 368.21 L 194.21 368.05 L 194.24 368.04 L 194.41 367.70 L 194.44 367.69 L 194.63 367.38 L 194.66 367.37 L 194.96 367.26 L 195.01 367.26 L 195.11 367.14 L 195.23 367.12 L 195.40 367.12 L 195.47 367.10 L 196.04 366.79 L 196.06 366.80 L 196.17 366.18 L 196.42 366.16 L 196.65 365.97 L 196.72 365.97 L 196.83 365.97 L 196.88 365.92 L 197.01 365.07 L 197.65 364.36 L 197.72 363.97 L 197.94 363.94 L 198.01 363.84 L 198.06 363.83 L 198.16 363.65 L 198.26 362.98 L 198.49 362.87 L 198.65 362.86 L 198.78 362.52 L 198.85 362.51 L 199.42 362.26 L 199.74 362.08 L 199.83 361.93 L 200.10 361.92 L 200.12 361.92 L 200.15 361.88 L 200.32 360.68 L 200.45 360.66 L 200.93 360.49 L 201.00 360.01 L 201.09 360.00 L 201.22 359.80 L 201.23 359.69 L 201.29 359.61 L 201.33 359.56 L 201.40 359.55 L 201.46 359.46 L 201.65 358.10 L 201.79 357.96 L 201.92 357.55 L 202.11 357.53 L 202.31 357.39 L 202.52 356.97 L 202.66 355.79 L 202.96 355.70 L 202.96 355.19 L 203.14 355.07 L 217.38 355.08 L 217.65 355.07 L 218.32 354.52 L 218.46 354.52 L 218.57 354.52 L 218.60 354.37 L 218.84 354.13 L 219.01 354.09 L 219.11 353.95 L 219.20 353.84 L 219.26 353.79 L 219.52 353.72 L 220.03 353.83 L 220.16 353.46 L 220.26 353.36 L 220.38 353.35 L 221.04 353.27 L 221.13 353.21 L 221.18 353.21 L 221.22 353.14 L 221.37 353.07 L 221.48 352.94 L 221.95 352.58 L 222.64 352.43 L 222.89 352.37 L 223.65 352.14 L 224.02 351.60 L 224.14 351.50 L 224.30 351.07 L 224.52 350.52 L 224.87 350.37 L 225.35 350.36 L 226.00 350.34 L 226.09 350.13 L 226.57 350.00 L 226.87 349.82 L 226.97 349.68 L 227.15 349.63 L 227.29 349.26 L 228.98 349.08 L 230.58 349.08 L 244.92 349.03 L 245.02 348.83 L 245.09 348.70 L 245.54 348.49 L 246.88 348.12 L 246.94 348.07 L 247.12 347.81 L 247.78 347.71 L 248.09 346.99 L 248.57 346.98 L 248.68 346.95 L 248.78 346.25 L 249.61 345.59 L 249.71 345.58 L 249.89 345.55 L 250.07 345.49 L 250.16 345.24 L 250.62 344.15 L 250.79 343.87 L 250.87 343.85 L 250.97 343.73 L 251.18 343.30 L 251.26 342.21 L 251.47 341.76 L 252.09 341.50 L 252.15 340.95 L 252.21 340.95 L 252.31 340.85 L 252.46 340.70 L 252.52 340.66 L 252.58 340.61 L 252.88 339.33 L 252.95 338.57 L 253.31 338.43 L 253.53 337.16 L 253.66 336.91 L 254.78 334.91 L 254.91 334.87 L 297.03 334.29 L 297.07 334.29 L 313.18 334.12 L 314.05 333.91 L 314.23 333.91 L 314.47 333.80 L 314.55 333.64 L 314.64 333.61 L 321.62 333.59 L 322.55 331.29 L 322.89 331.09 L 323.07 330.29 L 327.42 330.19 L 327.45 330.12 L 327.72 330.10 L 329.02 329.96 L 329.09 329.70 L 329.25 329.60 L 329.71 329.48 L 329.77 329.45 L 329.95 329.01 L 330.15 328.87 L 330.18 328.53 L 343.71 328.10 L 343.81 327.05 L 344.35 326.77 L 344.36 326.38 L 344.46 326.06 L 344.57 325.58 L 344.72 324.31 L 344.95 323.62 L 345.14 322.72 L 345.32 322.72 L 345.39 322.02 L 345.66 321.98 L 346.59 321.32 L 346.97 321.01 L 347.04 320.83 L 347.12 320.82 L 347.16 320.59 L 347.29 319.81 L 347.67 319.73 L 347.73 319.73 L 347.96 319.22 L 348.05 319.22 L 348.09 318.92 L 348.18 318.74 L 348.23 318.73 L 348.29 318.32 L 348.58 318.08 L 348.71 317.67 L 348.88 317.66 L 348.99 317.44 L 349.04 317.13 L 349.33 316.96 L 349.42 316.78 L 349.47 316.78 L 349.55 316.77 L 349.60 316.46 L 349.64 316.47 L 349.65 316.46 L 349.81 316.35 L 349.86 316.00 L 350.00 316.00 L 350.11 315.91 L 350.41 315.88 L 350.79 315.85 L 350.80 315.85 L 350.90 315.83 L 351.25 315.82 L 351.41 315.82 L 351.58 315.82 L 351.75 315.77 L 351.87 315.35 L 352.35 315.34 L 352.39 315.10 L 352.45 315.09 L 352.49 314.81 L 352.80 314.71 L 352.85 314.64 L 353.08 314.64 L 373.90 314.57 L 375.09 314.45 L 375.12 314.45 L 375.36 314.45 L 375.38 314.45 L 375.53 313.95 L 375.65 313.94 L 375.75 313.80 L 375.89 313.72 L 375.93 313.68 L 375.99 313.65 L 376.21 313.61 L 376.66 313.51 L 376.95 312.84 L 377.27 312.81 L 377.28 312.76 L 377.33 312.21 L 377.37 312.20 L 377.99 312.20 L 378.00 312.15 L 378.10 311.63 L 378.37 311.56 L 378.54 311.55 L 378.57 311.54 L 378.59 311.48 L 378.66 311.44 L 378.71 310.91 L 378.73 310.90 L 378.88 310.90 L 378.90 310.86 L 379.22 310.80 L 380.11 310.78 L 380.32 310.74 L 380.39 310.73 L 380.43 310.56 L 380.48 310.56 L 380.61 309.96 L 394.84 309.78 L 394.86 309.61 L 394.98 309.49 L 395.02 309.47 L 395.10 308.97 L 395.25 308.84 L 395.27 308.81 L 395.53 308.81 L 395.60 308.81 L 395.64 308.31 L 395.87 308.25 L 396.49 308.23 L 396.50 308.20 L 396.66 307.92 L 396.72 307.93 L 396.75 307.47 L 397.26 307.47 L 397.28 307.44 L 398.06 307.32 L 398.15 306.77 L 398.43 306.77 L 398.75 306.77 L 398.83 306.35 L 398.89 306.04 L 399.03 306.03 L 399.44 305.96 L 399.51 305.93 L 399.69 305.80 L 399.88 305.80 L 400.48 305.81 L 400.55 305.81 L 400.68 305.78 L 400.69 305.77 L 400.89 305.77 L 401.34 305.74 L 401.80 305.68 L 401.87 305.68 L 401.98 305.62 L 402.11 305.47 L 402.47 305.47 L 403.07 305.29 L 403.27 304.98 L 403.59 304.94 L 404.90 304.61 L 405.19 304.61 L 405.40 304.60 L 405.72 304.59 L 405.83 304.57 L 406.15 304.39 L 406.67 304.37 L 406.74 304.22 L 406.83 304.15 L 406.90 304.16 L 406.94 304.11 L 407.35 304.08 L 416.78 304.07 L 416.87 304.07 L 417.45 304.07 L 417.51 304.05 L 417.64 303.59 L 417.75 303.57 L 417.77 303.57 L 418.09 303.56 L 418.17 303.53 L 420.10 302.85 L 420.33 302.78 L 420.50 302.76 L 420.53 302.76 L 421.13 302.74 L 421.34 302.84 L 421.37 302.83 L 421.69 302.79 L 422.05 302.14 L 422.09 302.13 L 422.38 302.11 L 422.50 302.11 L 422.61 302.11 L 422.86 301.97 L 423.38 301.38 L 423.48 301.38 L 423.58 301.30 L 423.79 300.76 L 424.31 300.17 L 424.77 300.21 L 424.87 299.89 L 425.34 299.89 L 425.42 299.86 L 425.50 299.82 L 425.55 299.51 L 425.71 299.50 L 425.75 299.50 L 425.82 299.50 L 426.09 299.50 L 426.50 299.25 L 426.76 299.22 L 427.05 299.22 L 427.18 299.22 L 427.47 299.22 L 427.95 299.22 L 428.42 299.22 L 428.78 299.22 L 428.87 299.22 L 428.96 299.21 L 428.96 299.10 L 429.24 299.02 L 429.32 299.02 L 429.43 299.00 L 430.21 299.00 L 430.22 298.69 L 430.43 298.69 L 431.33 298.70 L 431.93 298.69 L 432.37 298.62 L 432.38 298.50 L 432.42 298.50 L 445.63 298.30 L 445.67 298.29 L 445.83 298.27 L 445.90 298.09 L 445.94 298.09 L 445.95 298.07 L 446.52 298.02 L 446.64 297.39 L 446.81 297.26 L 447.09 296.03 L 447.27 296.02 L 447.50 295.50 L 447.63 295.56 L 447.69 295.55 L 447.75 294.88 L 447.92 294.77 L 447.94 294.31 L 448.00 294.24 L 448.14 294.19 L 448.23 293.96 L 448.35 296.71 L 448.51 296.67 L 448.84 295.56 L 448.98 295.32 L 449.10 295.07 L 449.92 294.64 L 450.61 294.17 L 451.45 293.53 L 451.66 293.46 L 451.89 293.46 L 452.15 293.40 L 457.01 293.07 L 457.41 293.04 L 503.43 292.18 L 648.35 292.15 L 648.83 291.77 L 649.16 291.71 L 649.50 291.71 L 650.00 291.36"/>
	</g>
	<g class="poloto_legend poloto_imgs poloto_line poloto0 poloto_stroke"><line x1="680" x2="730" y1="81.25" y2="81.25"/></g>
	<g class="poloto_legend poloto_imgs poloto_line poloto1 poloto_stroke"><line x1="680" x2="730" y1="131.25" y2="131.25"/></g>
	<g class="poloto_legend poloto_imgs poloto_line poloto2 poloto_stroke"><line x1="680" x2="730" y1="181.25" y2="181.25"/></g>
	<text class="poloto_legend poloto_text poloto_line poloto0" x="675" y="100">total</text>
	<text class="poloto_legend poloto_text poloto_line poloto1" x="675" y="150">code</text>
	<text class="poloto_legend poloto_text poloto_line poloto2" x="675" y="200">docs</text>
	<text class="poloto_text poloto_name poloto_title" x="400.00" y="37.50">Workspace lines over time</text>
	<text class="poloto_text poloto_name poloto_x" x="400.00" y="640">date (JST)</text>
	<text class="poloto_text poloto_name poloto_y" x="37.50" y="250.00" transform="rotate(-90,37.50,250.00)">lines</text>
	<text class="poloto_text poloto_ticks poloto_y">
		<tspan x="135.00" y="400.00">0</tspan>
		<tspan x="135.00" y="357.02">20K</tspan>
		<tspan x="135.00" y="314.05">40K</tspan>
		<tspan x="135.00" y="271.07">60K</tspan>
		<tspan x="135.00" y="228.09">80K</tspan>
		<tspan x="135.00" y="185.11">100K</tspan>
		<tspan x="135.00" y="142.14">120K</tspan>
	</text>
	<g class="poloto_imgs poloto_ticks poloto_y" stroke="black">
		<line x1="150.00" x2="144.00" y1="400.00" y2="400.00"/>
		<line x1="150.00" x2="144.00" y1="357.02" y2="357.02"/>
		<line x1="150.00" x2="144.00" y1="314.05" y2="314.05"/>
		<line x1="150.00" x2="144.00" y1="271.07" y2="271.07"/>
		<line x1="150.00" x2="144.00" y1="228.09" y2="228.09"/>
		<line x1="150.00" x2="144.00" y1="185.11" y2="185.11"/>
		<line x1="150.00" x2="144.00" y1="142.14" y2="142.14"/>
	</g>
	<g class="poloto_text poloto_ticks poloto_x">
		<text x="186.40" y="430.00" text-anchor="end" transform="rotate(-90 186.40 430.00)">2026-04-22 04:33</text>
		<text x="244.73" y="430.00" text-anchor="end" transform="rotate(-90 244.73 430.00)">2026-04-24 12:06</text>
		<text x="303.06" y="430.00" text-anchor="end" transform="rotate(-90 303.06 430.00)">2026-04-26 19:40</text>
		<text x="361.39" y="430.00" text-anchor="end" transform="rotate(-90 361.39 430.00)">2026-04-29 03:13</text>
		<text x="419.72" y="430.00" text-anchor="end" transform="rotate(-90 419.72 430.00)">2026-05-01 10:46</text>
		<text x="478.05" y="430.00" text-anchor="end" transform="rotate(-90 478.05 430.00)">2026-05-03 18:20</text>
		<text x="536.38" y="430.00" text-anchor="end" transform="rotate(-90 536.38 430.00)">2026-05-06 01:53</text>
		<text x="594.71" y="430.00" text-anchor="end" transform="rotate(-90 594.71 430.00)">2026-05-08 09:26</text>
	</g>
	<g class="poloto_imgs poloto_ticks poloto_x" stroke="black">
		<line x1="186.40" x2="186.40" y1="400.00" y2="405.00"/>
		<line x1="244.73" x2="244.73" y1="400.00" y2="405.00"/>
		<line x1="303.06" x2="303.06" y1="400.00" y2="405.00"/>
		<line x1="361.39" x2="361.39" y1="400.00" y2="405.00"/>
		<line x1="419.72" x2="419.72" y1="400.00" y2="405.00"/>
		<line x1="478.05" x2="478.05" y1="400.00" y2="405.00"/>
		<line x1="536.38" x2="536.38" y1="400.00" y2="405.00"/>
		<line x1="594.71" x2="594.71" y1="400.00" y2="405.00"/>
	</g>
	<path class="poloto_imgs poloto_ticks poloto_x" stroke="black" style="stroke-dasharray:7.291189093781024;stroke-dashoffset:-36.40432385011809;" d=" M 150.00 400.00 L 650.00 400.00"/>
	<path class="poloto_imgs poloto_ticks poloto_y" stroke="black" style="stroke-dasharray:10.744369950146124;stroke-dashoffset:-0;" d=" M 150.00 400.00 L 150.00 100.00"/>
</svg>

