<svg class="poloto" width="800" height="680" viewBox="0 0 800 680" xmlns="http://www.w3.org/2000/svg">
	<style>
.poloto{
  stroke-linecap:round;
  stroke-linejoin:round;
  font-family:Roboto,sans-serif;
  font-size:16px;
}
.poloto_background{fill:AliceBlue;}
.poloto_scatter{stroke-width:7}
.poloto_line{stroke-width:2}
.poloto_text{fill: black;}
.poloto_name{font-size:24px;dominant-baseline:auto;text-anchor:middle;}
.poloto_where{dominant-baseline:middle;text-anchor:start}
.poloto_text.poloto_legend{font-size:20px;dominant-baseline:middle;text-anchor:start;}
.poloto_text.poloto_ticks.poloto_y{dominant-baseline:middle;text-anchor:end}
.poloto_text.poloto_ticks.poloto_x{dominant-baseline:auto;text-anchor:middle}
.poloto_imgs.poloto_ticks{stroke: black;stroke-width:3;fill:none;stroke-dasharray:none}
.poloto_grid{stroke:gray;stroke-width:0.5}

.poloto0.poloto_stroke{stroke:blue;}
.poloto1.poloto_stroke{stroke:red;}
.poloto2.poloto_stroke{stroke:green;}
.poloto3.poloto_stroke{stroke:gold;}
.poloto4.poloto_stroke{stroke:aqua;}
.poloto5.poloto_stroke{stroke:lime;}
.poloto6.poloto_stroke{stroke:orange;}
.poloto7.poloto_stroke{stroke:chocolate;}
.poloto0.poloto_fill{fill:blue;}
.poloto1.poloto_fill{fill:red;}
.poloto2.poloto_fill{fill:green;}
.poloto3.poloto_fill{fill:gold;}
.poloto4.poloto_fill{fill:aqua;}
.poloto5.poloto_fill{fill:lime;}
.poloto6.poloto_fill{fill:orange;}
.poloto7.poloto_fill{fill:chocolate;}
	</style>
	<circle r="1e5" class="poloto_background" fill="white"/>
	<g id="poloto_plot0" class="poloto_plot poloto_imgs poloto_line poloto0 poloto_stroke" fill="none" stroke="black">
		<path d=" M 150.00 372.40 L 150.02 372.38 L 150.04 372.36 L 150.04 372.36 L 150.06 372.36 L 150.09 369.37 L 150.19 369.01 L 150.42 368.99 L 150.76 368.74 L 150.93 367.22 L 151.27 367.13 L 151.33 367.05 L 151.38 367.01 L 151.78 366.27 L 152.53 365.67 L 152.77 363.31 L 152.83 363.32 L 153.29 363.22 L 153.81 363.21 L 153.81 363.21 L 153.82 363.21 L 160.89 363.21 L 160.94 363.21 L 161.03 363.19 L 161.07 363.16 L 161.34 363.03 L 161.46 362.99 L 161.76 362.77 L 161.80 362.68 L 161.89 362.47 L 161.98 362.43 L 162.00 362.43 L 162.08 362.38 L 162.15 362.38 L 162.23 362.38 L 162.43 362.03 L 162.60 361.81 L 162.63 361.82 L 162.72 361.69 L 163.28 362.23 L 163.29 362.22 L 163.36 362.14 L 163.68 361.73 L 163.94 361.25 L 164.23 361.04 L 164.29 361.00 L 164.30 361.01 L 164.35 360.82 L 164.46 360.82 L 164.61 360.75 L 164.88 360.57 L 164.90 360.29 L 164.95 360.29 L 165.02 360.14 L 165.18 360.14 L 165.19 360.14 L 165.36 359.74 L 165.42 359.72 L 165.48 359.69 L 165.55 359.53 L 166.41 359.31 L 166.62 359.27 L 167.10 358.98 L 167.20 358.98 L 167.27 358.97 L 167.32 358.77 L 167.65 357.58 L 167.79 357.55 L 167.96 357.16 L 168.05 357.12 L 168.25 356.79 L 168.33 356.67 L 168.45 356.46 L 168.56 356.27 L 168.94 353.53 L 168.95 353.46 L 168.97 353.30 L 169.10 351.98 L 175.66 351.89 L 176.34 350.39 L 176.36 350.35 L 177.16 350.11 L 177.23 350.11 L 177.30 349.81 L 177.50 349.66 L 177.59 349.41 L 177.62 349.18 L 177.72 348.79 L 177.96 348.78 L 177.97 348.52 L 178.06 348.22 L 178.15 348.22 L 178.25 347.89 L 178.38 347.65 L 178.43 347.53 L 178.44 347.53 L 178.56 347.27 L 178.57 347.26 L 178.70 347.01 L 178.72 347.00 L 178.91 345.76 L 178.94 345.76 L 179.00 345.56 L 179.08 345.55 L 179.19 345.55 L 179.24 345.52 L 179.61 345.29 L 179.62 345.29 L 179.68 344.74 L 179.85 344.73 L 180.00 343.91 L 180.04 343.83 L 180.11 343.83 L 180.15 343.79 L 180.23 343.16 L 180.64 337.78 L 180.68 337.52 L 180.83 337.50 L 180.87 337.43 L 180.90 337.42 L 180.97 337.27 L 181.03 336.66 L 181.18 336.54 L 181.28 336.52 L 181.36 336.26 L 181.41 336.25 L 181.78 336.05 L 181.98 335.90 L 182.04 335.66 L 182.21 335.65 L 182.23 335.65 L 182.25 335.62 L 182.35 334.33 L 182.44 334.26 L 182.75 332.95 L 182.79 332.57 L 182.85 332.56 L 182.93 332.42 L 182.94 332.32 L 182.98 332.26 L 183.01 332.23 L 183.05 332.22 L 183.09 332.15 L 183.21 331.09 L 183.30 330.93 L 183.39 330.62 L 183.50 330.60 L 183.64 330.50 L 183.77 329.74 L 183.86 328.70 L 184.05 328.64 L 184.05 328.25 L 184.17 328.12 L 193.32 328.12 L 193.50 328.11 L 193.93 327.56 L 194.02 327.54 L 194.09 327.54 L 194.11 327.41 L 194.26 327.23 L 194.37 327.21 L 194.43 327.10 L 194.50 327.03 L 194.54 326.99 L 194.70 326.94 L 195.03 326.88 L 195.11 326.59 L 195.18 326.52 L 195.25 326.51 L 195.68 326.37 L 195.74 326.28 L 195.77 326.28 L 195.79 326.18 L 195.89 326.13 L 195.96 326.03 L 196.27 325.32 L 196.71 325.21 L 196.87 325.17 L 197.36 324.99 L 197.59 321.61 L 197.67 321.54 L 197.77 321.21 L 197.92 320.77 L 198.14 320.64 L 198.45 320.63 L 198.87 320.62 L 198.93 320.47 L 199.23 320.31 L 199.43 320.07 L 199.49 319.97 L 199.61 319.93 L 199.70 319.63 L 200.78 319.30 L 201.81 319.30 L 211.03 319.27 L 211.10 319.12 L 211.14 319.03 L 211.43 318.88 L 212.29 317.72 L 212.33 317.64 L 212.45 317.34 L 212.87 317.26 L 213.07 316.47 L 213.38 316.47 L 213.45 316.46 L 213.52 315.92 L 214.05 312.84 L 214.12 312.84 L 214.23 312.81 L 214.35 312.77 L 214.40 312.44 L 214.70 311.28 L 214.81 311.06 L 214.86 311.05 L 214.92 310.51 L 215.06 309.76 L 215.11 308.96 L 215.24 308.60 L 215.64 304.61 L 215.68 304.20 L 215.72 304.20 L 215.78 304.13 L 215.88 304.03 L 215.92 303.99 L 215.96 303.95 L 216.15 302.99 L 216.20 302.32 L 216.43 302.18 L 216.57 301.17 L 216.66 300.54 L 217.37 291.22 L 217.45 291.20 L 244.54 290.75 L 244.57 290.75 L 254.92 290.63 L 255.48 290.37 L 255.60 290.37 L 255.75 290.30 L 255.80 290.18 L 255.86 290.15 L 260.35 290.09 L 260.95 288.31 L 261.16 288.15 L 261.28 287.50 L 264.08 287.37 L 264.10 287.19 L 264.27 287.18 L 265.11 286.06 L 265.16 285.85 L 265.26 285.78 L 265.55 285.71 L 265.59 285.68 L 265.71 285.34 L 265.84 285.25 L 265.86 285.00 L 274.56 284.66 L 274.62 283.71 L 274.97 283.49 L 274.97 281.90 L 275.03 281.66 L 275.11 281.27 L 275.20 280.17 L 275.35 279.58 L 275.47 278.90 L 275.59 278.89 L 275.63 278.37 L 275.81 278.32 L 276.41 275.75 L 276.65 275.47 L 276.69 275.31 L 276.74 275.31 L 276.78 275.13 L 276.86 274.50 L 277.10 274.19 L 277.14 274.15 L 277.29 271.89 L 277.35 271.88 L 277.37 271.64 L 277.43 271.45 L 277.46 271.45 L 277.50 271.11 L 277.69 269.89 L 277.77 269.54 L 277.88 269.49 L 277.95 266.22 L 277.98 265.95 L 278.17 264.08 L 278.22 263.94 L 278.26 263.93 L 278.31 263.93 L 278.34 263.67 L 278.37 263.68 L 278.38 263.67 L 278.47 260.36 L 278.51 260.08 L 278.60 260.06 L 278.67 260.00 L 278.86 259.91 L 279.10 259.78 L 279.11 259.78 L 279.18 259.74 L 279.40 259.68 L 279.51 259.68 L 279.61 259.68 L 279.72 258.24 L 279.80 257.89 L 280.11 257.89 L 280.14 257.66 L 280.17 257.66 L 280.20 257.41 L 280.40 255.33 L 280.43 255.28 L 280.58 255.26 L 293.97 255.20 L 294.73 255.10 L 294.75 255.10 L 294.91 255.09 L 294.92 255.10 L 295.01 254.68 L 295.09 254.66 L 295.15 254.46 L 295.25 254.41 L 295.27 254.38 L 295.31 254.36 L 295.45 254.13 L 295.74 253.92 L 295.93 253.25 L 296.13 252.62 L 296.14 252.58 L 296.17 251.99 L 296.20 251.96 L 296.60 251.61 L 296.61 251.57 L 296.67 251.10 L 296.84 251.05 L 296.95 251.00 L 296.97 250.16 L 296.98 250.11 L 297.03 250.92 L 297.06 250.42 L 297.07 250.40 L 297.17 249.27 L 297.18 249.24 L 297.39 249.15 L 297.96 249.13 L 298.10 249.09 L 298.14 249.08 L 298.17 248.94 L 298.20 248.94 L 298.28 248.38 L 307.43 247.30 L 307.44 247.15 L 307.52 247.05 L 307.54 246.84 L 307.60 237.41 L 307.70 233.55 L 307.71 233.53 L 307.88 233.45 L 307.92 233.45 L 307.95 233.01 L 308.09 232.96 L 308.49 232.05 L 308.50 232.03 L 308.60 231.75 L 308.64 231.76 L 308.66 231.30 L 308.99 230.77 L 309.00 230.74 L 309.50 230.54 L 309.56 230.06 L 309.74 230.06 L 309.95 228.85 L 310.00 228.37 L 310.03 227.98 L 310.13 227.51 L 310.39 227.34 L 310.43 227.23 L 310.55 227.12 L 310.67 227.12 L 311.06 227.12 L 311.10 227.12 L 311.19 227.10 L 311.20 227.10 L 311.32 227.11 L 311.61 227.09 L 311.91 226.91 L 311.95 226.91 L 312.02 226.84 L 312.11 226.71 L 312.34 226.71 L 312.72 226.54 L 312.85 226.16 L 313.06 222.91 L 313.90 225.66 L 314.08 225.65 L 314.22 225.64 L 314.43 225.63 L 314.50 225.58 L 314.71 225.42 L 315.04 225.20 L 315.08 225.05 L 315.14 224.99 L 315.18 225.00 L 315.21 224.96 L 315.47 224.75 L 321.54 224.75 L 321.59 224.75 L 321.97 224.74 L 322.01 224.73 L 322.09 224.31 L 322.16 224.08 L 322.17 224.08 L 322.38 224.04 L 322.43 224.02 L 323.67 223.41 L 323.82 223.36 L 323.93 223.35 L 323.95 223.34 L 324.34 223.20 L 324.47 223.27 L 324.49 223.27 L 324.70 223.22 L 324.92 221.94 L 324.95 221.93 L 325.14 221.78 L 325.22 221.78 L 325.29 221.78 L 325.45 221.64 L 325.78 221.12 L 325.85 221.10 L 325.91 220.96 L 326.05 220.35 L 326.38 219.71 L 326.68 216.72 L 326.74 216.35 L 327.04 216.21 L 327.09 216.13 L 327.14 215.99 L 327.17 215.51 L 327.28 214.65 L 327.30 214.68 L 327.35 214.67 L 327.53 214.66 L 327.79 214.35 L 327.95 214.29 L 328.14 214.27 L 328.23 214.26 L 328.41 214.25 L 328.72 214.25 L 329.02 214.24 L 329.26 214.24 L 329.31 214.23 L 329.37 214.22 L 329.37 214.12 L 329.55 214.06 L 329.60 214.05 L 329.67 213.92 L 330.17 213.90 L 330.18 213.64 L 330.32 213.63 L 330.90 213.63 L 331.28 213.47 L 331.56 213.28 L 331.57 213.18 L 331.59 213.18 L 340.09 213.00 L 340.12 212.99 L 340.21 212.98 L 340.26 212.83 L 340.29 212.82 L 340.30 212.81 L 340.66 212.77 L 340.74 212.23 L 340.85 212.11 L 341.03 211.04 L 341.14 211.03 L 341.29 210.57 L 341.37 210.63 L 341.41 210.63 L 341.45 210.11 L 341.56 209.75 L 341.57 209.38 L 341.61 209.33 L 341.70 209.29 L 341.76 209.12 L 341.84 211.16 L 341.94 211.12 L 342.15 210.31 L 342.24 210.10 L 342.32 209.94 L 342.84 208.77 L 343.29 208.20 L 343.83 207.12 L 343.97 207.07 L 344.12 207.07 L 344.28 207.02 L 347.41 206.72 L 347.66 206.69 L 377.26 205.87 L 470.44 205.68 L 470.75 205.35 L 470.96 205.30 L 471.17 205.30 L 471.50 204.67 L 471.61 204.36 L 471.69 203.79 L 471.84 202.15 L 472.06 202.49 L 472.23 202.13 L 472.27 202.13 L 472.41 202.02 L 472.44 202.02 L 472.60 201.42 L 472.74 200.46 L 473.16 199.43 L 473.17 199.35 L 473.29 198.13 L 473.69 195.11 L 473.70 195.01 L 473.78 194.94 L 473.88 193.87 L 474.31 192.42 L 474.32 192.28 L 474.42 192.21 L 474.52 191.50 L 474.68 190.93 L 474.69 190.83 L 474.76 189.72 L 474.77 189.69 L 474.81 189.38 L 474.99 187.42 L 475.02 187.31 L 475.08 187.19 L 475.28 186.93 L 475.32 186.92 L 475.47 186.55 L 475.73 186.59 L 475.77 186.54 L 475.81 186.52 L 475.85 186.49 L 475.98 185.33 L 476.12 184.39 L 476.14 184.31 L 476.22 183.13 L 476.30 181.98 L 476.31 181.84 L 476.40 180.50 L 476.43 179.44 L 476.59 178.72 L 476.62 178.67 L 476.70 178.45 L 476.81 178.43 L 477.48 178.40 L 477.81 178.37 L 485.09 178.42 L 485.16 178.21 L 485.23 178.03 L 485.36 177.24 L 485.63 177.04 L 485.65 176.96 L 485.70 175.91 L 485.88 174.90 L 485.90 174.81 L 487.49 174.74 L 487.58 174.17 L 488.38 174.00 L 488.47 173.96 L 488.57 172.78 L 489.53 171.68 L 489.94 171.25 L 490.04 170.39 L 490.39 168.91 L 490.61 168.48 L 490.97 167.61 L 491.61 167.17 L 501.35 167.16 L 501.93 167.06 L 501.96 167.08 L 502.77 166.90 L 502.81 166.82 L 503.10 166.75 L 503.43 165.79 L 503.43 165.79 L 503.47 165.75 L 503.90 164.64 L 504.90 164.02 L 504.97 163.96 L 505.07 163.95 L 505.22 163.66 L 505.26 163.58 L 505.32 163.53 L 505.79 163.49 L 506.16 163.49 L 506.36 163.48 L 506.39 163.44 L 506.81 162.48 L 507.13 162.29 L 507.14 162.22 L 507.18 162.14 L 507.23 161.88 L 517.80 161.51 L 517.82 161.50 L 517.85 161.48 L 518.05 161.37 L 518.21 161.25 L 519.14 159.77 L 519.38 159.60 L 520.05 159.15 L 520.62 159.04 L 521.05 158.90 L 521.17 157.53 L 521.71 155.93 L 521.91 155.81 L 521.97 154.78 L 523.54 152.88 L 523.55 152.88 L 523.64 152.42 L 523.94 152.36 L 523.94 152.36 L 523.96 152.25 L 524.01 152.10 L 524.15 151.95 L 524.32 151.15 L 525.94 149.23 L 526.15 149.00 L 526.29 148.65 L 526.32 148.61 L 526.35 148.34 L 533.55 147.47 L 533.78 146.81 L 533.92 146.78 L 533.97 146.35 L 534.65 146.14 L 534.79 145.70 L 534.92 145.70 L 534.99 144.78 L 535.22 142.44 L 535.26 142.40 L 535.56 142.36 L 535.63 141.59 L 535.89 140.67 L 535.94 140.04 L 536.16 139.45 L 536.31 139.14 L 536.44 138.44 L 536.71 137.84 L 536.74 137.18 L 537.08 137.03 L 537.12 137.03 L 537.17 136.17 L 537.24 136.17 L 537.28 136.11 L 537.68 134.51 L 538.26 133.99 L 538.55 134.16 L 539.51 134.09 L 539.53 134.08 L 539.68 134.06 L 539.74 134.05 L 539.85 133.94 L 539.97 133.84 L 540.09 133.67 L 540.38 133.44 L 540.65 133.43 L 541.50 133.26 L 541.54 133.25 L 542.40 133.11 L 542.76 133.01 L 550.05 132.99 L 550.41 132.87 L 550.59 132.80 L 550.68 132.80 L 550.70 132.80 L 550.88 132.77 L 550.97 132.72 L 551.18 132.57 L 551.31 132.54 L 551.78 132.38 L 552.03 132.02 L 552.44 131.97 L 552.56 131.74 L 552.69 131.59 L 552.88 131.41 L 553.50 131.46 L 553.57 131.44 L 554.48 131.00 L 554.62 130.74 L 554.81 130.65 L 555.25 130.44 L 555.46 130.50 L 555.57 130.85 L 555.66 130.83 L 555.78 130.68 L 556.17 129.64 L 556.58 129.52 L 556.95 129.44 L 556.99 129.39 L 557.03 129.09 L 583.38 129.02 L 583.56 128.89 L 598.72 128.55 L 598.79 128.93 L 598.92 127.33 L 598.94 127.33 L 598.98 127.37 L 599.52 124.12 L 599.58 124.09 L 600.25 124.16 L 600.93 123.96 L 601.16 123.65 L 601.59 123.26 L 602.15 123.00 L 602.17 123.00 L 602.24 122.94 L 602.46 122.88 L 602.53 122.72 L 603.08 121.93 L 603.78 121.76 L 603.86 121.61 L 604.22 121.54 L 604.32 122.16 L 604.59 121.93 L 604.82 121.88 L 605.29 121.71 L 605.72 121.63 L 605.94 121.28 L 605.96 121.28 L 615.44 121.27 L 618.42 120.38 L 618.54 119.95 L 618.69 119.54 L 619.17 119.52 L 619.37 119.38 L 619.52 117.29 L 619.62 115.94 L 619.84 115.81 L 619.88 115.78 L 620.21 115.39 L 620.32 115.18 L 620.37 115.07 L 620.55 114.73 L 620.61 114.71 L 620.71 114.67 L 620.78 114.47 L 620.86 114.25 L 620.95 114.12 L 621.02 114.09 L 621.33 113.99 L 621.48 113.76 L 621.60 113.63 L 621.64 112.97 L 621.99 112.84 L 622.12 112.45 L 631.06 112.54 L 631.72 112.30 L 631.83 112.30 L 632.23 111.52 L 632.41 111.42 L 633.16 110.16 L 633.48 110.03 L 633.91 108.89 L 633.97 108.88 L 634.22 108.86 L 634.31 108.20 L 634.65 107.28 L 635.17 106.73 L 635.34 106.07 L 638.50 104.39 L 638.80 103.90 L 638.82 103.90 L 647.21 102.33 L 647.22 102.33 L 647.33 102.27 L 647.42 101.41 L 647.81 100.41 L 647.84 100.41 L 648.30 100.28 L 648.97 100.16 L 649.74 100.11 L 649.79 100.05 L 649.87 100.00 L 650.00 100.00"/>
	</g>
	<g id="poloto_plot1" class="poloto_plot poloto_imgs poloto_line poloto1 poloto_stroke" fill="none" stroke="black">
		<path d=" M 150.00 383.60 L 150.02 383.59 L 150.04 383.57 L 150.04 383.57 L 150.06 383.57 L 150.09 383.06 L 150.19 383.04 L 150.42 383.03 L 150.76 382.83 L 150.93 382.75 L 151.27 382.77 L 151.33 382.73 L 151.38 382.73 L 151.78 382.69 L 152.53 382.59 L 152.77 380.57 L 152.83 380.57 L 153.29 380.52 L 153.81 380.51 L 153.81 380.51 L 153.82 380.51 L 160.89 380.51 L 160.94 380.51 L 161.03 380.51 L 161.07 380.48 L 161.34 380.47 L 161.46 380.47 L 161.76 380.47 L 161.80 380.47 L 161.89 380.45 L 161.98 380.45 L 162.00 380.45 L 162.08 380.43 L 162.15 380.43 L 162.23 380.43 L 162.43 380.32 L 162.60 380.32 L 162.63 380.32 L 162.72 380.32 L 163.28 381.08 L 163.29 381.08 L 163.36 381.07 L 163.68 380.95 L 163.94 380.83 L 164.23 380.77 L 164.29 380.73 L 164.30 380.73 L 164.35 380.73 L 164.46 380.73 L 164.61 380.68 L 164.88 380.64 L 164.90 380.64 L 164.95 380.64 L 165.02 380.62 L 165.18 380.62 L 165.19 380.62 L 165.36 380.61 L 165.42 380.61 L 165.48 380.61 L 165.55 380.61 L 166.41 380.52 L 166.62 380.51 L 167.10 380.47 L 167.20 380.47 L 167.27 380.47 L 167.32 380.47 L 167.65 380.41 L 167.79 380.41 L 167.96 380.34 L 168.05 380.33 L 168.25 380.17 L 168.33 380.11 L 168.45 380.11 L 168.56 380.10 L 168.94 377.73 L 168.95 377.69 L 168.97 377.69 L 169.10 377.46 L 175.66 377.46 L 176.34 376.44 L 176.36 376.44 L 177.16 376.44 L 177.23 376.44 L 177.30 376.33 L 177.50 376.32 L 177.59 376.32 L 177.62 376.32 L 177.72 376.32 L 177.96 376.32 L 177.97 376.09 L 178.06 376.09 L 178.15 376.09 L 178.25 376.06 L 178.38 376.06 L 178.43 376.06 L 178.44 376.06 L 178.56 376.06 L 178.57 376.06 L 178.70 376.06 L 178.72 376.06 L 178.91 375.05 L 178.94 375.05 L 179.00 374.93 L 179.08 374.93 L 179.19 374.93 L 179.24 374.92 L 179.61 374.92 L 179.62 374.92 L 179.68 374.85 L 179.85 374.85 L 180.00 374.28 L 180.04 374.21 L 180.11 374.21 L 180.15 374.21 L 180.23 374.19 L 180.64 369.96 L 180.68 369.99 L 180.83 369.99 L 180.87 369.99 L 180.90 369.98 L 180.97 369.98 L 181.03 369.93 L 181.18 369.93 L 181.28 369.93 L 181.36 369.92 L 181.41 369.92 L 181.78 369.91 L 181.98 369.91 L 182.04 369.80 L 182.21 369.80 L 182.23 369.80 L 182.25 369.80 L 182.35 369.52 L 182.44 369.45 L 182.75 368.44 L 182.79 368.44 L 182.85 368.44 L 182.93 368.45 L 182.94 368.45 L 182.98 368.45 L 183.01 368.45 L 183.05 368.45 L 183.09 368.45 L 183.21 368.43 L 183.30 368.43 L 183.39 368.42 L 183.50 368.42 L 183.64 368.41 L 183.77 368.04 L 183.86 367.91 L 184.05 367.91 L 184.05 367.91 L 184.17 367.91 L 193.32 367.91 L 193.50 367.90 L 193.93 367.84 L 194.02 367.83 L 194.09 367.83 L 194.11 367.83 L 194.26 367.83 L 194.37 367.83 L 194.43 367.83 L 194.50 367.83 L 194.54 367.82 L 194.70 367.82 L 195.03 367.84 L 195.11 367.84 L 195.18 367.84 L 195.25 367.84 L 195.68 367.76 L 195.74 367.72 L 195.77 367.72 L 195.79 367.67 L 195.89 367.67 L 195.96 367.67 L 196.27 367.28 L 196.71 367.28 L 196.87 367.28 L 197.36 367.28 L 197.59 364.69 L 197.67 364.69 L 197.77 364.69 L 197.92 364.68 L 198.14 364.68 L 198.45 364.68 L 198.87 364.68 L 198.93 364.68 L 199.23 364.62 L 199.43 364.51 L 199.49 364.51 L 199.61 364.51 L 199.70 364.50 L 200.78 364.33 L 201.81 364.33 L 211.03 364.33 L 211.10 364.33 L 211.14 364.33 L 211.43 364.33 L 212.29 363.51 L 212.33 363.49 L 212.45 363.40 L 212.87 363.40 L 213.07 363.20 L 213.38 363.21 L 213.45 363.21 L 213.52 363.21 L 214.05 360.93 L 214.12 360.93 L 214.23 360.93 L 214.35 360.93 L 214.40 360.78 L 214.70 360.51 L 214.81 360.51 L 214.86 360.51 L 214.92 360.09 L 215.06 359.67 L 215.11 359.67 L 215.24 359.66 L 215.64 356.27 L 215.68 356.27 L 215.72 356.27 L 215.78 356.27 L 215.88 356.27 L 215.92 356.27 L 215.96 356.27 L 216.15 356.27 L 216.20 356.20 L 216.43 356.18 L 216.57 356.14 L 216.66 355.73 L 217.37 348.98 L 217.45 348.98 L 244.54 348.98 L 244.57 348.98 L 254.92 348.98 L 255.48 348.88 L 255.60 348.88 L 255.75 348.88 L 255.80 348.88 L 255.86 348.88 L 260.35 348.83 L 260.95 348.76 L 261.16 348.76 L 261.28 348.74 L 264.08 348.68 L 264.10 348.59 L 264.27 348.60 L 265.11 347.68 L 265.16 347.68 L 265.26 347.68 L 265.55 347.68 L 265.59 347.68 L 265.71 347.68 L 265.84 347.68 L 265.86 347.68 L 274.56 347.66 L 274.62 347.50 L 274.97 347.50 L 274.97 346.40 L 275.03 346.40 L 275.11 346.40 L 275.20 346.30 L 275.35 346.30 L 275.47 346.25 L 275.59 346.25 L 275.63 346.25 L 275.81 346.24 L 276.41 344.37 L 276.65 344.36 L 276.69 344.35 L 276.74 344.35 L 276.78 344.35 L 276.86 344.32 L 277.10 344.09 L 277.14 344.06 L 277.29 342.38 L 277.35 342.37 L 277.37 342.37 L 277.43 342.35 L 277.46 342.35 L 277.50 342.34 L 277.69 341.43 L 277.77 341.42 L 277.88 341.40 L 277.95 338.55 L 277.98 338.55 L 278.17 336.95 L 278.22 336.95 L 278.26 336.94 L 278.31 336.94 L 278.34 336.94 L 278.37 336.94 L 278.38 336.94 L 278.47 333.98 L 278.51 333.98 L 278.60 333.96 L 278.67 333.96 L 278.86 333.90 L 279.10 333.82 L 279.11 333.82 L 279.18 333.81 L 279.40 333.76 L 279.51 333.76 L 279.61 333.76 L 279.72 332.48 L 279.80 332.48 L 280.11 332.48 L 280.14 332.47 L 280.17 332.47 L 280.20 332.47 L 280.40 330.65 L 280.43 330.65 L 280.58 330.63 L 293.97 330.63 L 294.73 330.62 L 294.75 330.62 L 294.91 330.62 L 294.92 330.62 L 295.01 330.62 L 295.09 330.62 L 295.15 330.53 L 295.25 330.53 L 295.27 330.53 L 295.31 330.53 L 295.45 330.37 L 295.74 330.26 L 295.93 330.15 L 296.13 329.64 L 296.14 329.64 L 296.17 329.51 L 296.20 329.49 L 296.60 329.18 L 296.61 329.18 L 296.67 329.13 L 296.84 329.13 L 296.95 329.10 L 296.97 328.34 L 296.98 328.34 L 297.03 329.09 L 297.06 329.05 L 297.07 329.04 L 297.17 328.02 L 297.18 328.02 L 297.39 327.98 L 297.96 327.98 L 298.10 327.98 L 298.14 327.98 L 298.17 327.98 L 298.20 327.98 L 298.28 327.92 L 307.43 327.07 L 307.44 327.07 L 307.52 327.07 L 307.54 326.88 L 307.60 317.88 L 307.70 314.53 L 307.71 314.53 L 307.88 314.47 L 307.92 314.47 L 307.95 314.45 L 308.09 314.45 L 308.49 313.64 L 308.50 313.64 L 308.60 313.59 L 308.64 313.59 L 308.66 313.52 L 308.99 313.03 L 309.00 313.03 L 309.50 312.93 L 309.56 312.90 L 309.74 312.91 L 309.95 311.80 L 310.00 311.69 L 310.03 311.59 L 310.13 311.17 L 310.39 311.07 L 310.43 310.98 L 310.55 310.98 L 310.67 310.98 L 311.06 310.98 L 311.10 310.98 L 311.19 310.98 L 311.20 310.98 L 311.32 310.99 L 311.61 310.99 L 311.91 310.88 L 311.95 310.88 L 312.02 310.86 L 312.11 310.86 L 312.34 310.86 L 312.72 310.86 L 312.85 310.77 L 313.06 307.86 L 313.90 310.60 L 314.08 310.59 L 314.22 310.58 L 314.43 310.58 L 314.50 310.55 L 314.71 310.53 L 315.04 310.36 L 315.08 310.36 L 315.14 310.36 L 315.18 310.36 L 315.21 310.36 L 315.47 310.21 L 321.54 310.21 L 321.59 310.21 L 321.97 310.20 L 322.01 310.20 L 322.09 310.17 L 322.16 309.97 L 322.17 309.96 L 322.38 309.94 L 322.43 309.94 L 323.67 309.78 L 323.82 309.78 L 323.93 309.78 L 323.95 309.78 L 324.34 309.66 L 324.47 309.66 L 324.49 309.66 L 324.70 309.65 L 324.92 308.96 L 324.95 308.96 L 325.14 308.85 L 325.22 308.85 L 325.29 308.85 L 325.45 308.85 L 325.78 308.84 L 325.85 308.82 L 325.91 308.75 L 326.05 308.64 L 326.38 308.53 L 326.68 305.79 L 326.74 305.70 L 327.04 305.57 L 327.09 305.54 L 327.14 305.44 L 327.17 305.25 L 327.28 304.43 L 327.30 304.46 L 327.35 304.44 L 327.53 304.44 L 327.79 304.33 L 327.95 304.28 L 328.14 304.27 L 328.23 304.26 L 328.41 304.25 L 328.72 304.25 L 329.02 304.24 L 329.26 304.24 L 329.31 304.24 L 329.37 304.23 L 329.37 304.23 L 329.55 304.23 L 329.60 304.22 L 329.67 304.12 L 330.17 304.11 L 330.18 304.11 L 330.32 304.09 L 330.90 304.09 L 331.28 303.96 L 331.56 303.84 L 331.57 303.84 L 331.59 303.84 L 340.09 303.84 L 340.12 303.84 L 340.21 303.84 L 340.26 303.84 L 340.29 303.82 L 340.30 303.82 L 340.66 303.82 L 340.74 303.81 L 340.85 303.79 L 341.03 303.77 L 341.14 303.77 L 341.29 303.71 L 341.37 303.71 L 341.41 303.71 L 341.45 303.71 L 341.56 303.46 L 341.57 303.46 L 341.61 303.46 L 341.70 303.46 L 341.76 303.46 L 341.84 303.52 L 341.94 303.52 L 342.15 303.51 L 342.24 303.51 L 342.32 303.51 L 342.84 302.70 L 343.29 302.49 L 343.83 301.91 L 343.97 301.91 L 344.12 301.91 L 344.28 301.91 L 347.41 301.84 L 347.66 301.84 L 377.26 301.73 L 470.44 301.58 L 470.75 301.54 L 470.96 301.53 L 471.17 301.53 L 471.50 301.16 L 471.61 301.16 L 471.69 301.16 L 471.84 299.81 L 472.06 300.07 L 472.23 300.05 L 472.27 300.05 L 472.41 300.04 L 472.44 300.04 L 472.60 300.03 L 472.74 299.97 L 473.16 299.12 L 473.17 299.12 L 473.29 299.04 L 473.69 296.28 L 473.70 296.28 L 473.78 296.27 L 473.88 296.23 L 474.31 294.94 L 474.32 294.94 L 474.42 294.94 L 474.52 294.91 L 474.68 294.44 L 474.69 294.44 L 474.76 294.44 L 474.77 294.44 L 474.81 294.18 L 474.99 292.35 L 475.02 292.35 L 475.08 292.35 L 475.28 292.19 L 475.32 292.19 L 475.47 291.89 L 475.73 291.89 L 475.77 291.89 L 475.81 291.89 L 475.85 291.89 L 475.98 291.88 L 476.12 291.06 L 476.14 291.06 L 476.22 291.06 L 476.30 290.43 L 476.31 290.43 L 476.40 289.77 L 476.43 289.73 L 476.59 289.08 L 476.62 289.08 L 476.70 289.08 L 476.81 289.06 L 477.48 289.06 L 477.81 289.06 L 485.09 289.06 L 485.16 289.06 L 485.23 289.06 L 485.36 289.06 L 485.63 288.89 L 485.65 288.89 L 485.70 288.83 L 485.88 287.92 L 485.90 287.92 L 487.49 287.94 L 487.58 287.76 L 488.38 287.76 L 488.47 287.75 L 488.57 287.68 L 489.53 286.93 L 489.94 286.79 L 490.04 286.74 L 490.39 285.31 L 490.61 285.31 L 490.97 285.19 L 491.61 285.19 L 501.35 285.19 L 501.93 285.10 L 501.96 285.12 L 502.77 285.12 L 502.81 285.12 L 503.10 285.12 L 503.43 285.09 L 503.43 285.09 L 503.47 285.09 L 503.90 284.26 L 504.90 284.23 L 504.97 284.23 L 505.07 284.23 L 505.22 284.20 L 505.26 284.17 L 505.32 284.17 L 505.79 284.13 L 506.16 284.13 L 506.36 284.13 L 506.39 284.13 L 506.81 284.11 L 507.13 284.02 L 507.14 284.02 L 507.18 284.02 L 507.23 284.02 L 517.80 283.82 L 517.82 283.82 L 517.85 283.82 L 518.05 283.82 L 518.21 283.82 L 519.14 283.00 L 519.38 282.95 L 520.05 282.88 L 520.62 282.84 L 521.05 282.84 L 521.17 282.84 L 521.71 281.60 L 521.91 281.56 L 521.97 281.52 L 523.54 280.64 L 523.55 280.64 L 523.64 280.63 L 523.94 280.62 L 523.94 280.62 L 523.96 280.62 L 524.01 280.60 L 524.15 280.56 L 524.32 280.46 L 525.94 279.02 L 526.15 278.95 L 526.29 278.95 L 526.32 278.95 L 526.35 278.95 L 533.55 278.95 L 533.78 278.94 L 533.92 278.94 L 533.97 278.94 L 534.65 278.94 L 534.79 278.94 L 534.92 278.94 L 534.99 278.91 L 535.22 277.01 L 535.26 277.00 L 535.56 277.01 L 535.63 277.00 L 535.89 276.26 L 535.94 276.22 L 536.16 275.74 L 536.31 275.74 L 536.44 275.70 L 536.71 275.26 L 536.74 275.26 L 537.08 273.85 L 537.12 273.85 L 537.17 273.84 L 537.24 273.84 L 537.28 273.84 L 537.68 272.44 L 538.26 272.31 L 538.55 272.31 L 539.51 272.27 L 539.53 272.27 L 539.68 272.27 L 539.74 272.27 L 539.85 272.27 L 539.97 272.27 L 540.09 272.25 L 540.38 272.24 L 540.65 272.24 L 541.50 272.17 L 541.54 272.17 L 542.40 272.13 L 542.76 272.10 L 550.05 272.11 L 550.41 272.04 L 550.59 271.97 L 550.68 271.97 L 550.70 271.97 L 550.88 271.96 L 550.97 271.96 L 551.18 271.96 L 551.31 271.96 L 551.78 271.83 L 552.03 271.57 L 552.44 271.56 L 552.56 271.38 L 552.69 271.31 L 552.88 271.23 L 553.50 271.31 L 553.57 271.31 L 554.48 271.04 L 554.62 271.04 L 554.81 271.04 L 555.25 271.02 L 555.46 271.15 L 555.57 271.15 L 555.66 271.15 L 555.78 271.15 L 556.17 270.54 L 556.58 270.52 L 556.95 270.52 L 556.99 270.52 L 557.03 270.52 L 583.38 270.52 L 583.56 270.48 L 598.72 270.27 L 598.79 270.27 L 598.92 270.22 L 598.94 270.22 L 598.98 270.22 L 599.52 267.87 L 599.58 267.87 L 600.25 267.87 L 600.93 267.77 L 601.16 267.54 L 601.59 267.23 L 602.15 267.16 L 602.17 267.16 L 602.24 267.11 L 602.46 267.11 L 602.53 267.06 L 603.08 266.43 L 603.78 266.33 L 603.86 266.33 L 604.22 266.32 L 604.32 266.32 L 604.59 266.17 L 604.82 266.14 L 605.29 266.01 L 605.72 265.94 L 605.94 265.94 L 605.96 265.94 L 615.44 265.94 L 618.42 265.90 L 618.54 265.87 L 618.69 265.59 L 619.17 265.61 L 619.37 265.61 L 619.52 265.61 L 619.62 265.49 L 619.84 265.40 L 619.88 265.40 L 620.21 265.17 L 620.32 265.01 L 620.37 264.96 L 620.55 264.86 L 620.61 264.85 L 620.71 264.84 L 620.78 264.70 L 620.86 264.55 L 620.95 264.52 L 621.02 264.52 L 621.33 264.46 L 621.48 264.35 L 621.60 264.26 L 621.64 264.26 L 621.99 264.26 L 622.12 264.26 L 631.06 264.28 L 631.72 264.27 L 631.83 264.27 L 632.23 263.87 L 632.41 263.81 L 633.16 263.77 L 633.48 263.77 L 633.91 262.83 L 633.97 262.83 L 634.22 262.81 L 634.31 262.80 L 634.65 262.75 L 635.17 262.30 L 635.34 262.29 L 638.50 261.26 L 638.80 261.26 L 638.82 261.26 L 647.21 261.25 L 647.22 261.25 L 647.33 261.25 L 647.42 261.12 L 647.81 260.24 L 647.84 260.24 L 648.30 260.24 L 648.97 260.24 L 649.74 260.24 L 649.79 260.24 L 649.87 260.24 L 650.00 260.24"/>
	</g>
	<g id="poloto_plot2" class="poloto_plot poloto_imgs poloto_line poloto2 poloto_stroke" fill="none" stroke="black">
		<path d=" M 150.00 392.64 L 150.02 392.64 L 150.04 392.64 L 150.04 392.64 L 150.06 392.64 L 150.09 390.75 L 150.19 390.49 L 150.42 390.49 L 150.76 390.48 L 150.93 389.35 L 151.27 389.25 L 151.33 389.22 L 151.38 389.19 L 151.78 388.68 L 152.53 388.29 L 152.77 388.21 L 152.83 388.22 L 153.29 388.19 L 153.81 388.19 L 153.81 388.19 L 153.82 388.19 L 160.89 388.19 L 160.94 388.18 L 161.03 388.17 L 161.07 388.17 L 161.34 388.06 L 161.46 388.02 L 161.76 387.84 L 161.80 387.76 L 161.89 387.59 L 161.98 387.57 L 162.00 387.57 L 162.08 387.54 L 162.15 387.54 L 162.23 387.54 L 162.43 387.35 L 162.60 387.18 L 162.63 387.18 L 162.72 387.08 L 163.28 386.85 L 163.29 386.85 L 163.36 386.78 L 163.68 386.53 L 163.94 386.22 L 164.23 386.09 L 164.29 386.09 L 164.30 386.10 L 164.35 385.92 L 164.46 385.92 L 164.61 385.90 L 164.88 385.78 L 164.90 385.56 L 164.95 385.56 L 165.02 385.45 L 165.18 385.45 L 165.19 385.45 L 165.36 385.12 L 165.42 385.10 L 165.48 385.07 L 165.55 384.91 L 166.41 384.82 L 166.62 384.79 L 167.10 384.56 L 167.20 384.56 L 167.27 384.55 L 167.32 384.38 L 167.65 383.46 L 167.79 383.45 L 167.96 383.17 L 168.05 383.14 L 168.25 383.02 L 168.33 382.98 L 168.45 382.78 L 168.56 382.62 L 168.94 382.61 L 168.95 382.59 L 168.97 382.46 L 169.10 381.57 L 175.66 381.48 L 176.34 381.21 L 176.36 381.18 L 177.16 380.95 L 177.23 380.95 L 177.30 380.79 L 177.50 380.68 L 177.59 380.47 L 177.62 380.30 L 177.72 379.97 L 177.96 379.97 L 177.97 379.97 L 178.06 379.73 L 178.15 379.73 L 178.25 379.49 L 178.38 379.30 L 178.43 379.19 L 178.44 379.19 L 178.56 378.97 L 178.57 378.96 L 178.70 378.76 L 178.72 378.75 L 178.91 378.68 L 178.94 378.68 L 179.00 378.61 L 179.08 378.59 L 179.19 378.59 L 179.24 378.58 L 179.61 378.38 L 179.62 378.38 L 179.68 377.98 L 179.85 377.97 L 180.00 377.84 L 180.04 377.84 L 180.11 377.84 L 180.15 377.81 L 180.23 377.26 L 180.64 376.80 L 180.68 376.54 L 180.83 376.52 L 180.87 376.46 L 180.90 376.45 L 180.97 376.33 L 181.03 375.89 L 181.18 375.83 L 181.28 375.82 L 181.36 375.60 L 181.41 375.59 L 181.78 375.43 L 181.98 375.31 L 182.04 375.21 L 182.21 375.20 L 182.23 375.20 L 182.25 375.18 L 182.35 374.40 L 182.44 374.39 L 182.75 374.28 L 182.79 373.96 L 182.85 373.96 L 182.93 373.83 L 182.94 373.75 L 182.98 373.70 L 183.01 373.67 L 183.05 373.67 L 183.09 373.60 L 183.21 372.72 L 183.30 372.63 L 183.39 372.36 L 183.50 372.34 L 183.64 372.26 L 183.77 371.98 L 183.86 371.21 L 184.05 371.16 L 184.05 370.83 L 184.17 370.75 L 193.32 370.75 L 193.50 370.75 L 193.93 370.39 L 194.02 370.39 L 194.09 370.39 L 194.11 370.29 L 194.26 370.14 L 194.37 370.11 L 194.43 370.01 L 194.50 369.95 L 194.54 369.91 L 194.70 369.86 L 195.03 369.94 L 195.11 369.69 L 195.18 369.63 L 195.25 369.62 L 195.68 369.58 L 195.74 369.53 L 195.77 369.53 L 195.79 369.49 L 195.89 369.45 L 195.96 369.36 L 196.27 369.13 L 196.71 369.03 L 196.87 368.99 L 197.36 368.84 L 197.59 368.48 L 197.67 368.42 L 197.77 368.14 L 197.92 367.78 L 198.14 367.69 L 198.45 367.68 L 198.87 367.66 L 198.93 367.53 L 199.23 367.44 L 199.43 367.33 L 199.49 367.24 L 199.61 367.20 L 199.70 366.96 L 200.78 366.84 L 201.81 366.84 L 211.03 366.81 L 211.10 366.68 L 211.14 366.60 L 211.43 366.46 L 212.29 366.22 L 212.33 366.19 L 212.45 366.02 L 212.87 365.95 L 213.07 365.49 L 213.38 365.48 L 213.45 365.46 L 213.52 365.00 L 214.05 364.57 L 214.12 364.57 L 214.23 364.54 L 214.35 364.50 L 214.40 364.35 L 214.70 363.63 L 214.81 363.45 L 214.86 363.44 L 214.92 363.36 L 215.06 363.08 L 215.11 362.37 L 215.24 362.08 L 215.64 361.91 L 215.68 361.55 L 215.72 361.55 L 215.78 361.49 L 215.88 361.39 L 215.92 361.36 L 215.96 361.33 L 216.15 360.50 L 216.20 360.00 L 216.43 359.91 L 216.57 359.08 L 216.66 358.92 L 217.37 357.62 L 217.45 357.59 L 244.54 357.21 L 244.57 357.21 L 254.92 357.11 L 255.48 356.97 L 255.60 356.97 L 255.75 356.90 L 255.80 356.79 L 255.86 356.77 L 260.35 356.76 L 260.95 355.26 L 261.16 355.13 L 261.28 354.61 L 264.08 354.55 L 264.10 354.50 L 264.27 354.49 L 265.11 354.40 L 265.16 354.22 L 265.26 354.16 L 265.55 354.09 L 265.59 354.06 L 265.71 353.77 L 265.84 353.69 L 265.86 353.46 L 274.56 353.18 L 274.62 352.50 L 274.97 352.32 L 274.97 352.06 L 275.03 351.86 L 275.11 351.54 L 275.20 350.72 L 275.35 350.27 L 275.47 349.68 L 275.59 349.68 L 275.63 349.23 L 275.81 349.20 L 276.41 348.77 L 276.65 348.57 L 276.69 348.45 L 276.74 348.45 L 276.78 348.30 L 276.86 347.79 L 277.10 347.74 L 277.14 347.73 L 277.29 347.40 L 277.35 347.40 L 277.37 347.21 L 277.43 347.09 L 277.46 347.09 L 277.50 346.82 L 277.69 346.66 L 277.77 346.40 L 277.88 346.38 L 277.95 346.24 L 277.98 346.04 L 278.17 345.93 L 278.22 345.81 L 278.26 345.81 L 278.31 345.81 L 278.34 345.60 L 278.37 345.61 L 278.38 345.61 L 278.47 345.54 L 278.51 345.31 L 278.60 345.31 L 278.67 345.25 L 278.86 345.23 L 279.10 345.21 L 279.11 345.21 L 279.18 345.19 L 279.40 345.19 L 279.51 345.19 L 279.61 345.19 L 279.72 345.15 L 279.80 344.88 L 280.11 344.88 L 280.14 344.72 L 280.17 344.72 L 280.20 344.53 L 280.40 344.47 L 280.43 344.42 L 280.58 344.42 L 293.97 344.37 L 294.73 344.30 L 294.75 344.30 L 294.91 344.30 L 294.92 344.30 L 295.01 343.97 L 295.09 343.96 L 295.15 343.87 L 295.25 343.82 L 295.27 343.79 L 295.31 343.78 L 295.45 343.75 L 295.74 343.68 L 295.93 343.25 L 296.13 343.23 L 296.14 343.20 L 296.17 342.84 L 296.20 342.83 L 296.60 342.83 L 296.61 342.80 L 296.67 342.46 L 296.84 342.42 L 296.95 342.41 L 296.97 342.40 L 296.98 342.36 L 297.03 342.34 L 297.06 341.99 L 297.07 341.99 L 297.17 341.99 L 297.18 341.96 L 297.39 341.92 L 297.96 341.91 L 298.10 341.88 L 298.14 341.87 L 298.17 341.76 L 298.20 341.76 L 298.28 341.38 L 307.43 341.26 L 307.44 341.15 L 307.52 341.07 L 307.54 341.06 L 307.60 340.73 L 307.70 340.65 L 307.71 340.63 L 307.88 340.62 L 307.92 340.62 L 307.95 340.30 L 308.09 340.26 L 308.49 340.25 L 308.50 340.23 L 308.60 340.05 L 308.64 340.05 L 308.66 339.75 L 308.99 339.75 L 309.00 339.73 L 309.50 339.66 L 309.56 339.30 L 309.74 339.30 L 309.95 339.30 L 310.00 339.03 L 310.03 338.82 L 310.13 338.81 L 310.39 338.77 L 310.43 338.75 L 310.55 338.67 L 310.67 338.67 L 311.06 338.67 L 311.10 338.67 L 311.19 338.65 L 311.20 338.65 L 311.32 338.65 L 311.61 338.62 L 311.91 338.59 L 311.95 338.59 L 312.02 338.55 L 312.11 338.45 L 312.34 338.45 L 312.72 338.33 L 312.85 338.13 L 313.06 338.11 L 313.90 337.89 L 314.08 337.89 L 314.22 337.88 L 314.43 337.88 L 314.50 337.86 L 314.71 337.75 L 315.04 337.74 L 315.08 337.64 L 315.14 337.59 L 315.18 337.60 L 315.21 337.56 L 315.47 337.55 L 321.54 337.54 L 321.59 337.54 L 321.97 337.54 L 322.01 337.53 L 322.09 337.23 L 322.16 337.21 L 322.17 337.22 L 322.38 337.21 L 322.43 337.19 L 323.67 336.75 L 323.82 336.70 L 323.93 336.69 L 323.95 336.69 L 324.34 336.68 L 324.47 336.74 L 324.49 336.73 L 324.70 336.71 L 324.92 336.28 L 324.95 336.27 L 325.14 336.26 L 325.22 336.26 L 325.29 336.26 L 325.45 336.18 L 325.78 335.79 L 325.85 335.79 L 325.91 335.73 L 326.05 335.39 L 326.38 335.00 L 326.68 335.02 L 326.74 334.82 L 327.04 334.82 L 327.09 334.80 L 327.14 334.77 L 327.17 334.57 L 327.28 334.56 L 327.30 334.56 L 327.35 334.56 L 327.53 334.56 L 327.79 334.40 L 327.95 334.38 L 328.14 334.38 L 328.23 334.38 L 328.41 334.38 L 328.72 334.38 L 329.02 334.38 L 329.26 334.38 L 329.31 334.38 L 329.37 334.37 L 329.37 334.30 L 329.55 334.25 L 329.60 334.25 L 329.67 334.24 L 330.17 334.24 L 330.18 334.04 L 330.32 334.04 L 330.90 334.04 L 331.28 334.04 L 331.56 333.99 L 331.57 333.91 L 331.59 333.91 L 340.09 333.78 L 340.12 333.77 L 340.21 333.77 L 340.26 333.64 L 340.29 333.64 L 340.30 333.64 L 340.66 333.60 L 340.74 333.19 L 340.85 333.10 L 341.03 332.31 L 341.14 332.30 L 341.29 331.96 L 341.37 332.00 L 341.41 331.99 L 341.45 331.56 L 341.56 331.48 L 341.57 331.18 L 341.61 331.14 L 341.70 331.11 L 341.76 330.96 L 341.84 332.75 L 341.94 332.72 L 342.15 332.00 L 342.24 331.84 L 342.32 331.68 L 342.84 331.40 L 343.29 331.10 L 343.83 330.67 L 343.97 330.63 L 344.12 330.63 L 344.28 330.59 L 347.41 330.38 L 347.66 330.36 L 377.26 329.80 L 470.44 329.78 L 470.75 329.53 L 470.96 329.49 L 471.17 329.49 L 471.50 329.26 L 471.61 328.99 L 471.69 328.50 L 471.84 328.37 L 472.06 328.42 L 472.23 328.13 L 472.27 328.13 L 472.41 328.04 L 472.44 328.04 L 472.60 327.56 L 472.74 326.83 L 473.16 326.75 L 473.17 326.68 L 473.29 325.73 L 473.69 325.70 L 473.70 325.60 L 473.78 325.55 L 473.88 324.69 L 474.31 324.64 L 474.32 324.52 L 474.42 324.46 L 474.52 323.90 L 474.68 323.88 L 474.69 323.79 L 474.76 322.85 L 474.77 322.83 L 474.81 322.80 L 474.99 322.80 L 475.02 322.70 L 475.08 322.63 L 475.28 322.55 L 475.32 322.54 L 475.47 322.49 L 475.73 322.53 L 475.77 322.49 L 475.81 322.46 L 475.85 322.43 L 475.98 321.46 L 476.12 321.44 L 476.14 321.36 L 476.22 320.36 L 476.30 320.00 L 476.31 319.87 L 476.40 319.39 L 476.43 318.54 L 476.59 318.53 L 476.62 318.48 L 476.70 318.31 L 476.81 318.31 L 477.48 318.28 L 477.81 318.26 L 485.09 318.30 L 485.16 318.10 L 485.23 317.96 L 485.36 317.29 L 485.63 317.28 L 485.65 317.21 L 485.70 316.36 L 485.88 316.35 L 485.90 316.27 L 487.49 316.19 L 487.58 315.88 L 488.38 315.73 L 488.47 315.70 L 488.57 314.76 L 489.53 314.49 L 489.94 314.26 L 490.04 313.55 L 490.39 313.55 L 490.61 313.15 L 490.97 312.54 L 491.61 312.17 L 501.35 312.17 L 501.93 312.16 L 501.96 312.16 L 502.77 312.02 L 502.81 311.95 L 503.10 311.89 L 503.43 311.10 L 503.43 311.10 L 503.47 311.06 L 503.90 310.90 L 504.90 310.37 L 504.97 310.32 L 505.07 310.31 L 505.22 310.09 L 505.26 310.05 L 505.32 310.01 L 505.79 310.01 L 506.16 310.01 L 506.36 310.01 L 506.39 309.98 L 506.81 309.17 L 507.13 309.10 L 507.14 309.03 L 507.18 308.96 L 507.23 308.76 L 517.80 308.61 L 517.82 308.59 L 517.85 308.58 L 518.05 308.48 L 518.21 308.38 L 519.14 307.92 L 519.38 307.83 L 520.05 307.49 L 520.62 307.43 L 521.05 307.29 L 521.17 306.11 L 521.71 305.91 L 521.91 305.85 L 521.97 304.99 L 523.54 304.17 L 523.55 304.17 L 523.64 303.79 L 523.94 303.75 L 523.94 303.75 L 523.96 303.66 L 524.01 303.55 L 524.15 303.47 L 524.32 302.88 L 525.94 302.58 L 526.15 302.45 L 526.29 302.12 L 526.32 302.09 L 526.35 301.88 L 533.55 301.14 L 533.78 300.60 L 533.92 300.58 L 533.97 300.22 L 534.65 300.07 L 534.79 299.68 L 534.92 299.68 L 534.99 298.89 L 535.22 298.70 L 535.26 298.68 L 535.56 298.63 L 535.63 297.98 L 535.89 297.89 L 535.94 297.38 L 536.16 297.33 L 536.31 297.03 L 536.44 296.45 L 536.71 296.34 L 536.74 295.75 L 537.08 297.08 L 537.12 297.08 L 537.17 296.33 L 537.24 296.33 L 537.28 296.27 L 537.68 296.19 L 538.26 295.88 L 538.55 296.04 L 539.51 296.02 L 539.53 296.01 L 539.68 296.00 L 539.74 295.98 L 539.85 295.88 L 539.97 295.79 L 540.09 295.65 L 540.38 295.46 L 540.65 295.45 L 541.50 295.36 L 541.54 295.35 L 542.40 295.25 L 542.76 295.19 L 550.05 295.16 L 550.41 295.12 L 550.59 295.12 L 550.68 295.12 L 550.70 295.12 L 550.88 295.10 L 550.97 295.07 L 551.18 294.94 L 551.31 294.92 L 551.78 294.91 L 552.03 294.84 L 552.44 294.80 L 552.56 294.78 L 552.69 294.71 L 552.88 294.63 L 553.50 294.59 L 553.57 294.58 L 554.48 294.44 L 554.62 294.20 L 554.81 294.12 L 555.25 293.97 L 555.46 293.90 L 555.57 294.23 L 555.66 294.22 L 555.78 294.09 L 556.17 293.79 L 556.58 293.70 L 556.95 293.64 L 556.99 293.60 L 557.03 293.37 L 583.38 293.33 L 583.56 293.27 L 598.72 293.20 L 598.79 293.53 L 598.92 292.20 L 598.94 292.20 L 598.98 292.23 L 599.52 291.72 L 599.58 291.69 L 600.25 291.75 L 600.93 291.69 L 601.16 291.65 L 601.59 291.60 L 602.15 291.45 L 602.17 291.45 L 602.24 291.43 L 602.46 291.39 L 602.53 291.28 L 603.08 291.21 L 603.78 291.16 L 603.86 291.03 L 604.22 290.96 L 604.32 291.55 L 604.59 291.50 L 604.82 291.47 L 605.29 291.44 L 605.72 291.44 L 605.94 291.16 L 605.96 291.16 L 615.44 291.15 L 618.42 290.44 L 618.54 290.09 L 618.69 290.00 L 619.17 289.97 L 619.37 289.84 L 619.52 288.06 L 619.62 287.10 L 619.84 287.07 L 619.88 287.05 L 620.21 286.92 L 620.32 286.88 L 620.37 286.82 L 620.55 286.61 L 620.61 286.59 L 620.71 286.57 L 620.78 286.52 L 620.86 286.46 L 620.95 286.38 L 621.02 286.34 L 621.33 286.31 L 621.48 286.22 L 621.60 286.19 L 621.64 285.60 L 621.99 285.48 L 622.12 285.16 L 631.06 285.23 L 631.72 285.04 L 631.83 285.04 L 632.23 284.69 L 632.41 284.66 L 633.16 283.60 L 633.48 283.51 L 633.91 283.37 L 633.97 283.37 L 634.22 283.36 L 634.31 282.81 L 634.65 282.09 L 635.17 282.01 L 635.34 281.44 L 638.50 281.05 L 638.80 280.63 L 638.82 280.63 L 647.21 279.25 L 647.22 279.25 L 647.33 279.19 L 647.42 278.58 L 647.81 278.53 L 647.84 278.52 L 648.30 278.41 L 648.97 278.29 L 649.74 278.24 L 649.79 278.18 L 649.87 278.14 L 650.00 278.14"/>
	</g>
	<g class="poloto_legend poloto_imgs poloto_line poloto0 poloto_stroke"><line x1="680" x2="730" y1="81.25" y2="81.25"/></g>
	<g class="poloto_legend poloto_imgs poloto_line poloto1 poloto_stroke"><line x1="680" x2="730" y1="131.25" y2="131.25"/></g>
	<g class="poloto_legend poloto_imgs poloto_line poloto2 poloto_stroke"><line x1="680" x2="730" y1="181.25" y2="181.25"/></g>
	<text class="poloto_legend poloto_text poloto_line poloto0" x="675" y="100">total</text>
	<text class="poloto_legend poloto_text poloto_line poloto1" x="675" y="150">code</text>
	<text class="poloto_legend poloto_text poloto_line poloto2" x="675" y="200">docs</text>
	<text class="poloto_text poloto_name poloto_title" x="400.00" y="37.50">Workspace lines over time</text>
	<text class="poloto_text poloto_name poloto_x" x="400.00" y="640">date (JST)</text>
	<text class="poloto_text poloto_name poloto_y" x="37.50" y="250.00" transform="rotate(-90,37.50,250.00)">lines</text>
	<text class="poloto_text poloto_ticks poloto_y">
		<tspan x="135.00" y="400.00">0</tspan>
		<tspan x="135.00" y="330.04">50K</tspan>
		<tspan x="135.00" y="260.09">100K</tspan>
		<tspan x="135.00" y="190.13">150K</tspan>
		<tspan x="135.00" y="120.17">200K</tspan>
	</text>
	<g class="poloto_imgs poloto_ticks poloto_y" stroke="black">
		<line x1="150.00" x2="144.00" y1="400.00" y2="400.00"/>
		<line x1="150.00" x2="144.00" y1="330.04" y2="330.04"/>
		<line x1="150.00" x2="144.00" y1="260.09" y2="260.09"/>
		<line x1="150.00" x2="144.00" y1="190.13" y2="190.13"/>
		<line x1="150.00" x2="144.00" y1="120.17" y2="120.17"/>
	</g>
	<g class="poloto_text poloto_ticks poloto_x">
		<text x="210.91" y="430.00" text-anchor="end" transform="rotate(-90 210.91 430.00)">2026-04-24 12:06</text>
		<text x="304.68" y="430.00" text-anchor="end" transform="rotate(-90 304.68 430.00)">2026-04-30 07:00</text>
		<text x="398.44" y="430.00" text-anchor="end" transform="rotate(-90 398.44 430.00)">2026-05-06 01:53</text>
		<text x="492.20" y="430.00" text-anchor="end" transform="rotate(-90 492.20 430.00)">2026-05-11 20:46</text>
		<text x="585.97" y="430.00" text-anchor="end" transform="rotate(-90 585.97 430.00)">2026-05-17 15:40</text>
	</g>
	<g class="poloto_imgs poloto_ticks poloto_x" stroke="black">
		<line x1="210.91" x2="210.91" y1="400.00" y2="405.00"/>
		<line x1="304.68" x2="304.68" y1="400.00" y2="405.00"/>
		<line x1="398.44" x2="398.44" y1="400.00" y2="405.00"/>
		<line x1="492.20" x2="492.20" y1="400.00" y2="405.00"/>
		<line x1="585.97" x2="585.97" y1="400.00" y2="405.00"/>
	</g>
	<path class="poloto_imgs poloto_ticks poloto_x" stroke="black" style="stroke-dasharray:9.376387705380397;stroke-dashoffset:-60.91332767251879;" d=" M 150.00 400.00 L 650.00 400.00"/>
	<path class="poloto_imgs poloto_ticks poloto_y" stroke="black" style="stroke-dasharray:6.995746586075666;stroke-dashoffset:-0;" d=" M 150.00 400.00 L 150.00 100.00"/>
</svg>

