<svg class="poloto" width="800" height="680" viewBox="0 0 800 680" xmlns="http://www.w3.org/2000/svg">
	<style>
.poloto{
  stroke-linecap:round;
  stroke-linejoin:round;
  font-family:Roboto,sans-serif;
  font-size:16px;
}
.poloto_background{fill:AliceBlue;}
.poloto_scatter{stroke-width:7}
.poloto_line{stroke-width:2}
.poloto_text{fill: black;}
.poloto_name{font-size:24px;dominant-baseline:auto;text-anchor:middle;}
.poloto_where{dominant-baseline:middle;text-anchor:start}
.poloto_text.poloto_legend{font-size:20px;dominant-baseline:middle;text-anchor:start;}
.poloto_text.poloto_ticks.poloto_y{dominant-baseline:middle;text-anchor:end}
.poloto_text.poloto_ticks.poloto_x{dominant-baseline:auto;text-anchor:middle}
.poloto_imgs.poloto_ticks{stroke: black;stroke-width:3;fill:none;stroke-dasharray:none}
.poloto_grid{stroke:gray;stroke-width:0.5}

.poloto0.poloto_stroke{stroke:blue;}
.poloto1.poloto_stroke{stroke:red;}
.poloto2.poloto_stroke{stroke:green;}
.poloto3.poloto_stroke{stroke:gold;}
.poloto4.poloto_stroke{stroke:aqua;}
.poloto5.poloto_stroke{stroke:lime;}
.poloto6.poloto_stroke{stroke:orange;}
.poloto7.poloto_stroke{stroke:chocolate;}
.poloto0.poloto_fill{fill:blue;}
.poloto1.poloto_fill{fill:red;}
.poloto2.poloto_fill{fill:green;}
.poloto3.poloto_fill{fill:gold;}
.poloto4.poloto_fill{fill:aqua;}
.poloto5.poloto_fill{fill:lime;}
.poloto6.poloto_fill{fill:orange;}
.poloto7.poloto_fill{fill:chocolate;}
	</style>
	<circle r="1e5" class="poloto_background" fill="white"/>
	<g id="poloto_plot0" class="poloto_plot poloto_imgs poloto_line poloto0 poloto_stroke" fill="none" stroke="black">
		<path d=" M 150.00 372.36 L 150.02 372.34 L 150.04 372.32 L 150.04 372.32 L 150.07 372.32 L 150.09 369.32 L 150.19 368.96 L 150.42 368.95 L 150.76 368.70 L 150.93 367.18 L 151.28 367.08 L 151.34 367.00 L 151.38 366.97 L 151.79 366.22 L 152.54 365.62 L 152.78 363.26 L 152.84 363.27 L 153.30 363.17 L 153.83 363.16 L 153.83 363.16 L 153.83 363.16 L 160.94 363.16 L 160.99 363.16 L 161.08 363.14 L 161.12 363.11 L 161.39 362.98 L 161.51 362.94 L 161.81 362.72 L 161.85 362.63 L 161.94 362.41 L 162.03 362.38 L 162.06 362.38 L 162.13 362.32 L 162.21 362.32 L 162.28 362.33 L 162.48 361.98 L 162.66 361.76 L 162.69 361.76 L 162.77 361.63 L 163.34 362.17 L 163.35 362.17 L 163.42 362.08 L 163.74 361.68 L 164.00 361.20 L 164.29 360.99 L 164.35 360.95 L 164.36 360.95 L 164.42 360.77 L 164.53 360.77 L 164.67 360.70 L 164.95 360.52 L 164.97 360.24 L 165.01 360.24 L 165.08 360.09 L 165.24 360.09 L 165.26 360.09 L 165.43 359.69 L 165.49 359.67 L 165.55 359.63 L 165.62 359.47 L 166.48 359.25 L 166.69 359.21 L 167.17 358.92 L 167.27 358.93 L 167.35 358.91 L 167.39 358.71 L 167.72 357.52 L 167.87 357.49 L 168.04 357.10 L 168.12 357.06 L 168.33 356.73 L 168.41 356.61 L 168.53 356.40 L 168.64 356.21 L 169.02 353.47 L 169.03 353.40 L 169.05 353.23 L 169.18 351.92 L 175.77 351.82 L 176.45 350.32 L 176.48 350.28 L 177.28 350.05 L 177.35 350.04 L 177.42 349.74 L 177.62 349.59 L 177.71 349.34 L 177.74 349.11 L 177.85 348.72 L 178.08 348.71 L 178.09 348.44 L 178.18 348.15 L 178.27 348.15 L 178.37 347.82 L 178.50 347.58 L 178.55 347.46 L 178.57 347.46 L 178.68 347.20 L 178.70 347.19 L 178.82 346.93 L 178.84 346.93 L 179.03 345.69 L 179.07 345.69 L 179.13 345.48 L 179.21 345.47 L 179.32 345.47 L 179.37 345.44 L 179.74 345.21 L 179.75 345.22 L 179.82 344.67 L 179.98 344.66 L 180.13 343.83 L 180.17 343.76 L 180.24 343.75 L 180.28 343.72 L 180.36 343.08 L 180.77 337.70 L 180.82 337.44 L 180.96 337.41 L 181.00 337.35 L 181.04 337.33 L 181.10 337.19 L 181.17 336.58 L 181.31 336.45 L 181.42 336.44 L 181.50 336.17 L 181.55 336.16 L 181.92 335.96 L 182.12 335.81 L 182.18 335.57 L 182.35 335.56 L 182.37 335.56 L 182.39 335.54 L 182.50 334.24 L 182.58 334.16 L 182.89 332.86 L 182.94 332.48 L 183.00 332.47 L 183.08 332.33 L 183.09 332.23 L 183.12 332.17 L 183.15 332.13 L 183.20 332.13 L 183.23 332.06 L 183.36 330.99 L 183.45 330.84 L 183.53 330.52 L 183.65 330.50 L 183.78 330.40 L 183.92 329.65 L 184.01 328.60 L 184.20 328.54 L 184.20 328.15 L 184.32 328.02 L 193.51 328.02 L 193.69 328.01 L 194.12 327.46 L 194.21 327.44 L 194.29 327.44 L 194.30 327.31 L 194.46 327.13 L 194.57 327.11 L 194.63 327.00 L 194.69 326.93 L 194.73 326.89 L 194.90 326.84 L 195.23 326.78 L 195.31 326.49 L 195.37 326.42 L 195.45 326.41 L 195.88 326.27 L 195.94 326.18 L 195.97 326.18 L 196.00 326.08 L 196.09 326.03 L 196.16 325.92 L 196.47 325.22 L 196.91 325.11 L 197.08 325.07 L 197.57 324.89 L 197.80 321.50 L 197.88 321.43 L 197.98 321.10 L 198.13 320.66 L 198.35 320.53 L 198.66 320.52 L 199.08 320.51 L 199.14 320.36 L 199.45 320.20 L 199.64 319.96 L 199.71 319.86 L 199.83 319.82 L 199.92 319.52 L 201.00 319.19 L 202.04 319.19 L 211.30 319.16 L 211.36 319.01 L 211.41 318.92 L 211.70 318.77 L 212.57 317.60 L 212.60 317.53 L 212.72 317.23 L 213.15 317.15 L 213.35 316.36 L 213.66 316.35 L 213.73 316.34 L 213.80 315.80 L 214.33 312.72 L 214.40 312.72 L 214.51 312.69 L 214.63 312.65 L 214.68 312.32 L 214.98 311.16 L 215.09 310.94 L 215.14 310.93 L 215.21 310.39 L 215.34 309.63 L 215.40 308.83 L 215.53 308.48 L 215.93 304.47 L 215.97 304.07 L 216.01 304.07 L 216.07 304.00 L 216.17 303.90 L 216.21 303.86 L 216.25 303.82 L 216.44 302.86 L 216.49 302.18 L 216.72 302.05 L 216.86 301.04 L 216.95 300.40 L 217.67 291.07 L 217.75 291.05 L 244.96 290.60 L 244.98 290.60 L 255.38 290.48 L 255.95 290.22 L 256.06 290.22 L 256.22 290.15 L 256.27 290.03 L 256.33 290.00 L 260.84 289.93 L 261.43 288.16 L 261.65 288.00 L 261.77 287.35 L 264.58 287.22 L 264.60 287.04 L 264.77 287.02 L 265.61 285.90 L 265.66 285.70 L 265.77 285.63 L 266.06 285.55 L 266.10 285.52 L 266.22 285.18 L 266.35 285.09 L 266.37 284.84 L 275.10 284.50 L 275.17 283.55 L 275.52 283.33 L 275.52 281.73 L 275.58 281.50 L 275.66 281.10 L 275.75 280.00 L 275.90 279.41 L 276.03 278.73 L 276.14 278.72 L 276.18 278.20 L 276.36 278.15 L 276.96 275.58 L 277.21 275.30 L 277.25 275.14 L 277.30 275.14 L 277.33 274.96 L 277.42 274.32 L 277.66 274.02 L 277.70 273.98 L 277.85 271.71 L 277.91 271.71 L 277.93 271.46 L 277.99 271.28 L 278.02 271.27 L 278.06 270.93 L 278.25 269.71 L 278.33 269.36 L 278.44 269.31 L 278.51 266.03 L 278.54 265.77 L 278.73 263.90 L 278.79 263.75 L 278.82 263.75 L 278.87 263.74 L 278.90 263.48 L 278.93 263.49 L 278.94 263.48 L 279.04 260.17 L 279.07 259.88 L 279.17 259.87 L 279.23 259.81 L 279.43 259.71 L 279.67 259.59 L 279.68 259.59 L 279.75 259.55 L 279.97 259.49 L 280.08 259.49 L 280.18 259.49 L 280.29 258.04 L 280.37 257.70 L 280.68 257.69 L 280.71 257.46 L 280.74 257.46 L 280.77 257.21 L 280.97 255.13 L 281.01 255.08 L 281.16 255.06 L 294.60 255.00 L 295.37 254.90 L 295.39 254.90 L 295.54 254.89 L 295.55 254.90 L 295.65 254.48 L 295.73 254.46 L 295.79 254.26 L 295.89 254.21 L 295.91 254.18 L 295.95 254.16 L 296.09 253.93 L 296.38 253.72 L 296.57 253.05 L 296.77 252.41 L 296.78 252.38 L 296.82 251.78 L 296.84 251.76 L 297.24 251.41 L 297.25 251.37 L 297.31 250.89 L 297.48 250.84 L 297.59 250.80 L 297.62 249.95 L 297.63 249.91 L 297.67 250.71 L 297.70 250.22 L 297.72 250.20 L 297.82 249.07 L 297.83 249.03 L 298.04 248.94 L 298.61 248.92 L 298.75 248.89 L 298.79 248.88 L 298.82 248.73 L 298.85 248.73 L 298.93 248.17 L 308.12 247.09 L 308.14 246.94 L 308.21 246.84 L 308.24 246.63 L 308.29 237.19 L 308.39 233.32 L 308.40 233.30 L 308.57 233.22 L 308.61 233.22 L 308.64 232.78 L 308.79 232.73 L 309.19 231.82 L 309.20 231.80 L 309.30 231.52 L 309.33 231.53 L 309.36 231.07 L 309.69 230.53 L 309.70 230.51 L 310.20 230.30 L 310.26 229.82 L 310.44 229.83 L 310.65 228.61 L 310.70 228.13 L 310.74 227.74 L 310.83 227.27 L 311.09 227.11 L 311.14 226.99 L 311.25 226.88 L 311.38 226.88 L 311.76 226.88 L 311.81 226.88 L 311.90 226.86 L 311.90 226.86 L 312.03 226.87 L 312.32 226.85 L 312.62 226.67 L 312.67 226.67 L 312.73 226.60 L 312.82 226.47 L 313.05 226.47 L 313.44 226.30 L 313.56 225.92 L 313.78 222.67 L 314.62 225.42 L 314.80 225.41 L 314.94 225.39 L 315.15 225.39 L 315.22 225.34 L 315.43 225.18 L 315.76 224.96 L 315.81 224.81 L 315.87 224.75 L 315.91 224.76 L 315.94 224.72 L 316.20 224.51 L 322.29 224.51 L 322.35 224.51 L 322.73 224.50 L 322.76 224.48 L 322.85 224.07 L 322.92 223.84 L 322.93 223.84 L 323.14 223.80 L 323.19 223.78 L 324.44 223.17 L 324.58 223.12 L 324.69 223.10 L 324.72 223.10 L 325.10 222.95 L 325.23 223.03 L 325.26 223.02 L 325.47 222.98 L 325.69 221.69 L 325.72 221.69 L 325.91 221.54 L 325.99 221.54 L 326.06 221.54 L 326.22 221.40 L 326.56 220.88 L 326.62 220.86 L 326.68 220.71 L 326.82 220.10 L 327.16 219.46 L 327.45 216.47 L 327.51 216.10 L 327.82 215.96 L 327.87 215.88 L 327.92 215.74 L 327.95 215.26 L 328.06 214.39 L 328.08 214.43 L 328.13 214.41 L 328.31 214.41 L 328.57 214.09 L 328.73 214.03 L 328.92 214.02 L 329.01 214.01 L 329.20 214.00 L 329.50 214.00 L 329.81 213.99 L 330.04 213.99 L 330.10 213.98 L 330.16 213.97 L 330.16 213.86 L 330.34 213.80 L 330.39 213.79 L 330.46 213.66 L 330.96 213.64 L 330.97 213.38 L 331.11 213.37 L 331.69 213.38 L 332.08 213.22 L 332.36 213.02 L 332.37 212.92 L 332.39 212.92 L 340.92 212.74 L 340.95 212.74 L 341.05 212.73 L 341.10 212.58 L 341.13 212.56 L 341.13 212.55 L 341.50 212.51 L 341.58 211.97 L 341.69 211.85 L 341.87 210.78 L 341.98 210.77 L 342.13 210.31 L 342.21 210.37 L 342.25 210.37 L 342.29 209.85 L 342.40 209.49 L 342.42 209.11 L 342.45 209.06 L 342.54 209.03 L 342.60 208.86 L 342.68 210.90 L 342.78 210.86 L 342.99 210.04 L 343.09 209.84 L 343.17 209.67 L 343.69 208.50 L 344.14 207.94 L 344.68 206.86 L 344.82 206.81 L 344.97 206.81 L 345.14 206.76 L 348.27 206.45 L 348.53 206.42 L 378.26 205.60 L 471.84 205.41 L 472.15 205.08 L 472.37 205.03 L 472.58 205.03 L 472.91 204.40 L 473.02 204.09 L 473.10 203.52 L 473.25 201.88 L 473.47 202.22 L 473.64 201.86 L 473.69 201.85 L 473.83 201.75 L 473.86 201.75 L 474.02 201.15 L 474.15 200.18 L 474.58 199.16 L 474.59 199.07 L 474.71 197.85 L 475.12 194.83 L 475.13 194.73 L 475.20 194.66 L 475.30 193.58 L 475.74 192.13 L 475.75 191.99 L 475.84 191.93 L 475.94 191.21 L 476.11 190.64 L 476.12 190.54 L 476.19 189.43 L 476.20 189.40 L 476.24 189.09 L 476.42 187.12 L 476.45 187.01 L 476.51 186.90 L 476.71 186.64 L 476.75 186.63 L 476.90 186.25 L 477.16 186.30 L 477.20 186.25 L 477.24 186.22 L 477.28 186.19 L 477.41 185.04 L 477.55 184.10 L 477.57 184.01 L 477.65 182.83 L 477.73 181.68 L 477.75 181.54 L 477.83 180.19 L 477.87 179.13 L 478.03 178.42 L 478.05 178.37 L 478.13 178.15 L 478.24 178.13 L 478.92 178.10 L 479.25 178.07 L 486.56 178.11 L 486.64 177.91 L 486.71 177.73 L 486.83 176.94 L 487.11 176.73 L 487.13 176.65 L 487.18 175.60 L 487.35 174.59 L 487.37 174.50 L 488.97 174.43 L 489.07 173.86 L 489.87 173.69 L 489.96 173.65 L 490.05 172.47 L 491.02 171.36 L 491.44 170.94 L 491.54 170.07 L 491.89 168.59 L 492.11 168.16 L 492.46 167.29 L 493.11 166.85 L 502.89 166.84 L 503.48 166.74 L 503.50 166.76 L 504.32 166.58 L 504.36 166.50 L 504.65 166.43 L 504.98 165.46 L 504.98 165.46 L 505.02 165.42 L 505.46 164.32 L 506.46 163.69 L 506.53 163.63 L 506.63 163.62 L 506.78 163.33 L 506.83 163.26 L 506.88 163.20 L 507.35 163.16 L 507.73 163.16 L 507.93 163.16 L 507.96 163.12 L 508.38 162.15 L 508.70 161.97 L 508.71 161.89 L 508.75 161.82 L 508.80 161.56 L 519.41 161.19 L 519.43 161.17 L 519.46 161.15 L 519.67 161.04 L 519.83 160.93 L 520.77 159.44 L 521.00 159.26 L 521.67 158.82 L 522.25 158.71 L 522.68 158.57 L 522.80 157.20 L 523.34 155.59 L 523.54 155.48 L 523.61 154.44 L 525.18 152.54 L 525.19 152.54 L 525.28 152.08 L 525.58 152.02 L 525.58 152.02 L 525.60 151.91 L 525.66 151.76 L 525.79 151.61 L 525.96 150.81 L 527.59 148.88 L 527.80 148.65 L 527.95 148.31 L 527.97 148.27 L 528.00 148.00 L 535.24 147.13 L 535.47 146.46 L 535.61 146.43 L 535.66 146.00 L 536.34 145.79 L 536.48 145.35 L 536.61 145.35 L 536.69 144.43 L 536.91 142.08 L 536.95 142.04 L 537.26 142.00 L 537.32 141.24 L 537.58 140.32 L 537.64 139.68 L 537.85 139.10 L 538.01 138.78 L 538.14 138.08 L 538.41 137.48 L 538.44 136.81 L 538.79 136.66 L 538.82 136.66 L 538.87 135.81 L 538.95 135.81 L 538.98 135.74 L 539.39 134.15 L 539.97 133.62 L 540.26 133.80 L 541.22 133.72 L 541.24 133.71 L 541.39 133.70 L 541.45 133.68 L 541.56 133.57 L 541.68 133.48 L 541.81 133.30 L 542.09 133.07 L 542.37 133.06 L 543.22 132.90 L 543.26 132.89 L 544.12 132.74 L 544.49 132.64 L 551.80 132.62 L 552.17 132.50 L 552.35 132.43 L 552.44 132.43 L 552.46 132.43 L 552.64 132.40 L 552.73 132.35 L 552.94 132.20 L 553.07 132.17 L 553.55 132.01 L 553.80 131.65 L 554.21 131.60 L 554.33 131.37 L 554.46 131.22 L 554.65 131.04 L 555.28 131.09 L 555.34 131.07 L 556.26 130.63 L 556.40 130.37 L 556.59 130.28 L 557.04 130.07 L 557.24 130.13 L 557.35 130.48 L 557.44 130.46 L 557.56 130.31 L 557.95 129.26 L 558.37 129.15 L 558.74 129.07 L 558.78 129.02 L 558.82 128.72 L 585.29 128.65 L 585.46 128.52 L 600.69 128.18 L 600.76 128.56 L 600.89 126.95 L 600.91 126.95 L 600.95 126.99 L 601.50 123.74 L 601.55 123.71 L 602.22 123.78 L 602.91 123.58 L 603.15 123.27 L 603.57 122.88 L 604.14 122.62 L 604.15 122.62 L 604.23 122.56 L 604.45 122.50 L 604.52 122.34 L 605.07 121.54 L 605.78 121.38 L 605.86 121.22 L 606.21 121.15 L 606.32 121.78 L 606.59 121.55 L 606.82 121.50 L 607.29 121.33 L 607.73 121.24 L 607.95 120.90 L 607.96 120.90 L 617.48 120.89 L 620.48 119.99 L 620.60 119.56 L 620.75 119.16 L 621.23 119.13 L 621.43 118.99 L 621.58 116.90 L 621.68 115.54 L 621.91 115.41 L 621.94 115.39 L 622.27 115.00 L 622.38 114.78 L 622.44 114.68 L 622.62 114.34 L 622.68 114.32 L 622.78 114.28 L 622.85 114.08 L 622.93 113.85 L 623.02 113.73 L 623.09 113.69 L 623.40 113.60 L 623.55 113.36 L 623.68 113.24 L 623.71 112.57 L 624.07 112.44 L 624.20 112.06 L 633.18 112.15 L 633.84 111.91 L 633.95 111.90 L 634.35 111.12 L 634.53 111.02 L 635.28 109.76 L 635.60 109.63 L 636.04 108.48 L 636.09 108.48 L 636.35 108.46 L 636.44 107.80 L 636.78 106.88 L 637.30 106.33 L 637.48 105.66 L 640.64 103.98 L 640.95 103.49 L 640.97 103.49 L 649.40 101.92 L 649.40 101.92 L 649.51 101.86 L 649.61 101.00 L 650.00 100.00"/>
	</g>
	<g id="poloto_plot1" class="poloto_plot poloto_imgs poloto_line poloto1 poloto_stroke" fill="none" stroke="black">
		<path d=" M 150.00 383.58 L 150.02 383.56 L 150.04 383.55 L 150.04 383.55 L 150.07 383.55 L 150.09 383.03 L 150.19 383.01 L 150.42 383.01 L 150.76 382.81 L 150.93 382.72 L 151.28 382.74 L 151.34 382.71 L 151.38 382.71 L 151.79 382.67 L 152.54 382.57 L 152.78 380.54 L 152.84 380.54 L 153.30 380.49 L 153.83 380.48 L 153.83 380.48 L 153.83 380.48 L 160.94 380.48 L 160.99 380.48 L 161.08 380.48 L 161.12 380.45 L 161.39 380.44 L 161.51 380.44 L 161.81 380.44 L 161.85 380.44 L 161.94 380.43 L 162.03 380.43 L 162.06 380.43 L 162.13 380.40 L 162.21 380.40 L 162.28 380.40 L 162.48 380.29 L 162.66 380.29 L 162.69 380.29 L 162.77 380.29 L 163.34 381.05 L 163.35 381.05 L 163.42 381.04 L 163.74 380.93 L 164.00 380.80 L 164.29 380.74 L 164.35 380.70 L 164.36 380.70 L 164.42 380.70 L 164.53 380.70 L 164.67 380.66 L 164.95 380.61 L 164.97 380.61 L 165.01 380.61 L 165.08 380.59 L 165.24 380.59 L 165.26 380.59 L 165.43 380.58 L 165.49 380.58 L 165.55 380.58 L 165.62 380.58 L 166.48 380.49 L 166.69 380.49 L 167.17 380.45 L 167.27 380.45 L 167.35 380.45 L 167.39 380.45 L 167.72 380.38 L 167.87 380.38 L 168.04 380.31 L 168.12 380.30 L 168.33 380.14 L 168.41 380.08 L 168.53 380.08 L 168.64 380.08 L 169.02 377.70 L 169.03 377.66 L 169.05 377.66 L 169.18 377.43 L 175.77 377.43 L 176.45 376.41 L 176.48 376.41 L 177.28 376.41 L 177.35 376.41 L 177.42 376.30 L 177.62 376.28 L 177.71 376.28 L 177.74 376.28 L 177.85 376.28 L 178.08 376.28 L 178.09 376.06 L 178.18 376.05 L 178.27 376.05 L 178.37 376.03 L 178.50 376.02 L 178.55 376.02 L 178.57 376.02 L 178.68 376.02 L 178.70 376.02 L 178.82 376.02 L 178.84 376.02 L 179.03 375.02 L 179.07 375.02 L 179.13 374.90 L 179.21 374.90 L 179.32 374.90 L 179.37 374.88 L 179.74 374.88 L 179.75 374.88 L 179.82 374.82 L 179.98 374.82 L 180.13 374.24 L 180.17 374.17 L 180.24 374.17 L 180.28 374.17 L 180.36 374.15 L 180.77 369.91 L 180.82 369.95 L 180.96 369.95 L 181.00 369.95 L 181.04 369.94 L 181.10 369.94 L 181.17 369.89 L 181.31 369.89 L 181.42 369.89 L 181.50 369.88 L 181.55 369.88 L 181.92 369.87 L 182.12 369.87 L 182.18 369.76 L 182.35 369.76 L 182.37 369.76 L 182.39 369.76 L 182.50 369.48 L 182.58 369.40 L 182.89 368.40 L 182.94 368.40 L 183.00 368.40 L 183.08 368.41 L 183.09 368.41 L 183.12 368.41 L 183.15 368.41 L 183.20 368.41 L 183.23 368.41 L 183.36 368.39 L 183.45 368.39 L 183.53 368.38 L 183.65 368.38 L 183.78 368.37 L 183.92 368.00 L 184.01 367.87 L 184.20 367.87 L 184.20 367.86 L 184.32 367.86 L 193.51 367.86 L 193.69 367.86 L 194.12 367.79 L 194.21 367.78 L 194.29 367.78 L 194.30 367.78 L 194.46 367.78 L 194.57 367.78 L 194.63 367.78 L 194.69 367.78 L 194.73 367.78 L 194.90 367.78 L 195.23 367.80 L 195.31 367.80 L 195.37 367.80 L 195.45 367.80 L 195.88 367.72 L 195.94 367.68 L 195.97 367.68 L 196.00 367.63 L 196.09 367.62 L 196.16 367.62 L 196.47 367.24 L 196.91 367.24 L 197.08 367.24 L 197.57 367.24 L 197.80 364.64 L 197.88 364.64 L 197.98 364.64 L 198.13 364.63 L 198.35 364.63 L 198.66 364.63 L 199.08 364.63 L 199.14 364.63 L 199.45 364.57 L 199.64 364.46 L 199.71 364.46 L 199.83 364.46 L 199.92 364.45 L 201.00 364.28 L 202.04 364.28 L 211.30 364.28 L 211.36 364.28 L 211.41 364.28 L 211.70 364.28 L 212.57 363.46 L 212.60 363.44 L 212.72 363.35 L 213.15 363.35 L 213.35 363.15 L 213.66 363.15 L 213.73 363.15 L 213.80 363.15 L 214.33 360.87 L 214.40 360.87 L 214.51 360.87 L 214.63 360.87 L 214.68 360.73 L 214.98 360.45 L 215.09 360.45 L 215.14 360.45 L 215.21 360.04 L 215.34 359.62 L 215.40 359.62 L 215.53 359.61 L 215.93 356.21 L 215.97 356.21 L 216.01 356.21 L 216.07 356.21 L 216.17 356.21 L 216.21 356.21 L 216.25 356.21 L 216.44 356.21 L 216.49 356.14 L 216.72 356.12 L 216.86 356.08 L 216.95 355.67 L 217.67 348.91 L 217.75 348.91 L 244.96 348.91 L 244.98 348.91 L 255.38 348.91 L 255.95 348.81 L 256.06 348.81 L 256.22 348.81 L 256.27 348.81 L 256.33 348.81 L 260.84 348.76 L 261.43 348.69 L 261.65 348.69 L 261.77 348.67 L 264.58 348.61 L 264.60 348.52 L 264.77 348.52 L 265.61 347.61 L 265.66 347.61 L 265.77 347.61 L 266.06 347.61 L 266.10 347.61 L 266.22 347.61 L 266.35 347.61 L 266.37 347.61 L 275.10 347.59 L 275.17 347.43 L 275.52 347.43 L 275.52 346.33 L 275.58 346.33 L 275.66 346.33 L 275.75 346.23 L 275.90 346.23 L 276.03 346.18 L 276.14 346.18 L 276.18 346.18 L 276.36 346.16 L 276.96 344.29 L 277.21 344.29 L 277.25 344.28 L 277.30 344.28 L 277.33 344.28 L 277.42 344.25 L 277.66 344.01 L 277.70 343.98 L 277.85 342.30 L 277.91 342.29 L 277.93 342.29 L 277.99 342.27 L 278.02 342.27 L 278.06 342.26 L 278.25 341.35 L 278.33 341.34 L 278.44 341.31 L 278.51 338.46 L 278.54 338.46 L 278.73 336.86 L 278.79 336.86 L 278.82 336.85 L 278.87 336.85 L 278.90 336.85 L 278.93 336.85 L 278.94 336.85 L 279.04 333.89 L 279.07 333.88 L 279.17 333.87 L 279.23 333.87 L 279.43 333.81 L 279.67 333.73 L 279.68 333.73 L 279.75 333.72 L 279.97 333.67 L 280.08 333.67 L 280.18 333.67 L 280.29 332.39 L 280.37 332.39 L 280.68 332.38 L 280.71 332.38 L 280.74 332.38 L 280.77 332.38 L 280.97 330.55 L 281.01 330.55 L 281.16 330.54 L 294.60 330.54 L 295.37 330.53 L 295.39 330.53 L 295.54 330.53 L 295.55 330.53 L 295.65 330.53 L 295.73 330.53 L 295.79 330.44 L 295.89 330.44 L 295.91 330.44 L 295.95 330.44 L 296.09 330.27 L 296.38 330.16 L 296.57 330.06 L 296.77 329.54 L 296.78 329.54 L 296.82 329.41 L 296.84 329.40 L 297.24 329.08 L 297.25 329.08 L 297.31 329.03 L 297.48 329.03 L 297.59 329.00 L 297.62 328.25 L 297.63 328.25 L 297.67 328.99 L 297.70 328.95 L 297.72 328.94 L 297.82 327.92 L 297.83 327.92 L 298.04 327.88 L 298.61 327.88 L 298.75 327.88 L 298.79 327.88 L 298.82 327.88 L 298.85 327.88 L 298.93 327.82 L 308.12 326.97 L 308.14 326.97 L 308.21 326.97 L 308.24 326.78 L 308.29 317.77 L 308.39 314.41 L 308.40 314.41 L 308.57 314.35 L 308.61 314.35 L 308.64 314.34 L 308.79 314.34 L 309.19 313.52 L 309.20 313.52 L 309.30 313.47 L 309.33 313.47 L 309.36 313.40 L 309.69 312.91 L 309.70 312.91 L 310.20 312.81 L 310.26 312.78 L 310.44 312.79 L 310.65 311.68 L 310.70 311.57 L 310.74 311.47 L 310.83 311.05 L 311.09 310.95 L 311.14 310.86 L 311.25 310.86 L 311.38 310.86 L 311.76 310.86 L 311.81 310.86 L 311.90 310.86 L 311.90 310.86 L 312.03 310.87 L 312.32 310.87 L 312.62 310.76 L 312.67 310.76 L 312.73 310.74 L 312.82 310.74 L 313.05 310.74 L 313.44 310.74 L 313.56 310.64 L 313.78 307.73 L 314.62 310.48 L 314.80 310.47 L 314.94 310.46 L 315.15 310.46 L 315.22 310.43 L 315.43 310.41 L 315.76 310.24 L 315.81 310.24 L 315.87 310.24 L 315.91 310.24 L 315.94 310.24 L 316.20 310.08 L 322.29 310.08 L 322.35 310.09 L 322.73 310.07 L 322.76 310.07 L 322.85 310.05 L 322.92 309.84 L 322.93 309.84 L 323.14 309.82 L 323.19 309.82 L 324.44 309.65 L 324.58 309.65 L 324.69 309.65 L 324.72 309.65 L 325.10 309.53 L 325.23 309.53 L 325.26 309.53 L 325.47 309.53 L 325.69 308.84 L 325.72 308.84 L 325.91 308.72 L 325.99 308.72 L 326.06 308.72 L 326.22 308.72 L 326.56 308.71 L 326.62 308.69 L 326.68 308.63 L 326.82 308.51 L 327.16 308.41 L 327.45 305.66 L 327.51 305.57 L 327.82 305.44 L 327.87 305.40 L 327.92 305.31 L 327.95 305.12 L 328.06 304.29 L 328.08 304.33 L 328.13 304.31 L 328.31 304.31 L 328.57 304.20 L 328.73 304.15 L 328.92 304.14 L 329.01 304.13 L 329.20 304.12 L 329.50 304.12 L 329.81 304.11 L 330.04 304.11 L 330.10 304.10 L 330.16 304.10 L 330.16 304.10 L 330.34 304.10 L 330.39 304.09 L 330.46 303.98 L 330.96 303.97 L 330.97 303.97 L 331.11 303.96 L 331.69 303.96 L 332.08 303.82 L 332.36 303.71 L 332.37 303.71 L 332.39 303.71 L 340.92 303.70 L 340.95 303.70 L 341.05 303.70 L 341.10 303.70 L 341.13 303.69 L 341.13 303.69 L 341.50 303.69 L 341.58 303.68 L 341.69 303.66 L 341.87 303.64 L 341.98 303.64 L 342.13 303.58 L 342.21 303.58 L 342.25 303.58 L 342.29 303.58 L 342.40 303.33 L 342.42 303.33 L 342.45 303.33 L 342.54 303.33 L 342.60 303.33 L 342.68 303.39 L 342.78 303.39 L 342.99 303.37 L 343.09 303.37 L 343.17 303.37 L 343.69 302.57 L 344.14 302.35 L 344.68 301.77 L 344.82 301.77 L 344.97 301.77 L 345.14 301.77 L 348.27 301.70 L 348.53 301.70 L 378.26 301.60 L 471.84 301.45 L 472.15 301.40 L 472.37 301.40 L 472.58 301.40 L 472.91 301.02 L 473.02 301.02 L 473.10 301.02 L 473.25 299.67 L 473.47 299.93 L 473.64 299.91 L 473.69 299.91 L 473.83 299.90 L 473.86 299.90 L 474.02 299.89 L 474.15 299.83 L 474.58 298.98 L 474.59 298.98 L 474.71 298.90 L 475.12 296.13 L 475.13 296.13 L 475.20 296.13 L 475.30 296.09 L 475.74 294.80 L 475.75 294.80 L 475.84 294.80 L 475.94 294.77 L 476.11 294.30 L 476.12 294.30 L 476.19 294.29 L 476.20 294.29 L 476.24 294.03 L 476.42 292.20 L 476.45 292.20 L 476.51 292.20 L 476.71 292.05 L 476.75 292.05 L 476.90 291.74 L 477.16 291.74 L 477.20 291.74 L 477.24 291.74 L 477.28 291.74 L 477.41 291.74 L 477.55 290.91 L 477.57 290.91 L 477.65 290.91 L 477.73 290.28 L 477.75 290.28 L 477.83 289.62 L 477.87 289.58 L 478.03 288.92 L 478.05 288.92 L 478.13 288.92 L 478.24 288.91 L 478.92 288.91 L 479.25 288.91 L 486.56 288.91 L 486.64 288.91 L 486.71 288.91 L 486.83 288.91 L 487.11 288.73 L 487.13 288.73 L 487.18 288.68 L 487.35 287.76 L 487.37 287.76 L 488.97 287.78 L 489.07 287.60 L 489.87 287.60 L 489.96 287.60 L 490.05 287.53 L 491.02 286.78 L 491.44 286.63 L 491.54 286.58 L 491.89 285.15 L 492.11 285.15 L 492.46 285.03 L 493.11 285.03 L 502.89 285.03 L 503.48 284.94 L 503.50 284.96 L 504.32 284.96 L 504.36 284.96 L 504.65 284.96 L 504.98 284.93 L 504.98 284.93 L 505.02 284.93 L 505.46 284.10 L 506.46 284.07 L 506.53 284.07 L 506.63 284.07 L 506.78 284.04 L 506.83 284.01 L 506.88 284.01 L 507.35 283.97 L 507.73 283.97 L 507.93 283.97 L 507.96 283.97 L 508.38 283.95 L 508.70 283.86 L 508.71 283.86 L 508.75 283.86 L 508.80 283.86 L 519.41 283.66 L 519.43 283.66 L 519.46 283.66 L 519.67 283.66 L 519.83 283.66 L 520.77 282.83 L 521.00 282.79 L 521.67 282.72 L 522.25 282.68 L 522.68 282.68 L 522.80 282.68 L 523.34 281.43 L 523.54 281.40 L 523.61 281.35 L 525.18 280.48 L 525.19 280.48 L 525.28 280.47 L 525.58 280.46 L 525.58 280.46 L 525.60 280.46 L 525.66 280.43 L 525.79 280.40 L 525.96 280.30 L 527.59 278.85 L 527.80 278.78 L 527.95 278.78 L 527.97 278.78 L 528.00 278.78 L 535.24 278.78 L 535.47 278.77 L 535.61 278.77 L 535.66 278.77 L 536.34 278.77 L 536.48 278.77 L 536.61 278.77 L 536.69 278.74 L 536.91 276.84 L 536.95 276.83 L 537.26 276.84 L 537.32 276.83 L 537.58 276.09 L 537.64 276.05 L 537.85 275.57 L 538.01 275.57 L 538.14 275.53 L 538.41 275.09 L 538.44 275.09 L 538.79 273.68 L 538.82 273.68 L 538.87 273.67 L 538.95 273.67 L 538.98 273.67 L 539.39 272.26 L 539.97 272.13 L 540.26 272.13 L 541.22 272.10 L 541.24 272.09 L 541.39 272.09 L 541.45 272.09 L 541.56 272.09 L 541.68 272.09 L 541.81 272.08 L 542.09 272.06 L 542.37 272.06 L 543.22 272.00 L 543.26 272.00 L 544.12 271.96 L 544.49 271.92 L 551.80 271.94 L 552.17 271.86 L 552.35 271.79 L 552.44 271.79 L 552.46 271.79 L 552.64 271.78 L 552.73 271.78 L 552.94 271.78 L 553.07 271.78 L 553.55 271.65 L 553.80 271.40 L 554.21 271.38 L 554.33 271.21 L 554.46 271.13 L 554.65 271.05 L 555.28 271.13 L 555.34 271.13 L 556.26 270.87 L 556.40 270.87 L 556.59 270.87 L 557.04 270.84 L 557.24 270.97 L 557.35 270.97 L 557.44 270.97 L 557.56 270.97 L 557.95 270.36 L 558.37 270.35 L 558.74 270.34 L 558.78 270.34 L 558.82 270.34 L 585.29 270.34 L 585.46 270.30 L 600.69 270.09 L 600.76 270.09 L 600.89 270.04 L 600.91 270.04 L 600.95 270.04 L 601.50 267.69 L 601.55 267.69 L 602.22 267.69 L 602.91 267.59 L 603.15 267.35 L 603.57 267.05 L 604.14 266.97 L 604.15 266.97 L 604.23 266.93 L 604.45 266.93 L 604.52 266.88 L 605.07 266.24 L 605.78 266.14 L 605.86 266.14 L 606.21 266.14 L 606.32 266.14 L 606.59 265.98 L 606.82 265.96 L 607.29 265.83 L 607.73 265.76 L 607.95 265.76 L 607.96 265.76 L 617.48 265.76 L 620.48 265.71 L 620.60 265.69 L 620.75 265.41 L 621.23 265.42 L 621.43 265.42 L 621.58 265.42 L 621.68 265.30 L 621.91 265.22 L 621.94 265.21 L 622.27 264.98 L 622.38 264.82 L 622.44 264.77 L 622.62 264.67 L 622.68 264.67 L 622.78 264.65 L 622.85 264.52 L 622.93 264.37 L 623.02 264.33 L 623.09 264.33 L 623.40 264.28 L 623.55 264.17 L 623.68 264.07 L 623.71 264.07 L 624.07 264.07 L 624.20 264.07 L 633.18 264.10 L 633.84 264.08 L 633.95 264.08 L 634.35 263.69 L 634.53 263.62 L 635.28 263.59 L 635.60 263.59 L 636.04 262.64 L 636.09 262.64 L 636.35 262.62 L 636.44 262.61 L 636.78 262.56 L 637.30 262.11 L 637.48 262.10 L 640.64 261.07 L 640.95 261.07 L 640.97 261.07 L 649.40 261.06 L 649.40 261.06 L 649.51 261.06 L 649.61 260.93 L 650.00 260.05"/>
	</g>
	<g id="poloto_plot2" class="poloto_plot poloto_imgs poloto_line poloto2 poloto_stroke" fill="none" stroke="black">
		<path d=" M 150.00 392.63 L 150.02 392.63 L 150.04 392.63 L 150.04 392.63 L 150.07 392.63 L 150.09 390.74 L 150.19 390.48 L 150.42 390.48 L 150.76 390.46 L 150.93 389.34 L 151.28 389.24 L 151.34 389.20 L 151.38 389.18 L 151.79 388.67 L 152.54 388.27 L 152.78 388.20 L 152.84 388.20 L 153.30 388.17 L 153.83 388.17 L 153.83 388.17 L 153.83 388.17 L 160.94 388.17 L 160.99 388.17 L 161.08 388.15 L 161.12 388.15 L 161.39 388.04 L 161.51 388.01 L 161.81 387.82 L 161.85 387.74 L 161.94 387.58 L 162.03 387.55 L 162.06 387.55 L 162.13 387.52 L 162.21 387.52 L 162.28 387.52 L 162.48 387.33 L 162.66 387.16 L 162.69 387.16 L 162.77 387.06 L 163.34 386.83 L 163.35 386.83 L 163.42 386.76 L 163.74 386.51 L 164.00 386.20 L 164.29 386.07 L 164.35 386.07 L 164.36 386.08 L 164.42 385.91 L 164.53 385.91 L 164.67 385.88 L 164.95 385.76 L 164.97 385.54 L 165.01 385.54 L 165.08 385.43 L 165.24 385.43 L 165.26 385.43 L 165.43 385.10 L 165.49 385.08 L 165.55 385.05 L 165.62 384.89 L 166.48 384.80 L 166.69 384.77 L 167.17 384.54 L 167.27 384.54 L 167.35 384.53 L 167.39 384.36 L 167.72 383.44 L 167.87 383.42 L 168.04 383.15 L 168.12 383.12 L 168.33 382.99 L 168.41 382.95 L 168.53 382.75 L 168.64 382.59 L 169.02 382.59 L 169.03 382.57 L 169.05 382.44 L 169.18 381.55 L 175.77 381.45 L 176.45 381.18 L 176.48 381.15 L 177.28 380.93 L 177.35 380.92 L 177.42 380.76 L 177.62 380.65 L 177.71 380.45 L 177.74 380.28 L 177.85 379.95 L 178.08 379.94 L 178.09 379.94 L 178.18 379.71 L 178.27 379.70 L 178.37 379.46 L 178.50 379.27 L 178.55 379.17 L 178.57 379.16 L 178.68 378.94 L 178.70 378.93 L 178.82 378.73 L 178.84 378.72 L 179.03 378.65 L 179.07 378.65 L 179.13 378.58 L 179.21 378.56 L 179.32 378.56 L 179.37 378.55 L 179.74 378.35 L 179.75 378.35 L 179.82 377.95 L 179.98 377.94 L 180.13 377.81 L 180.17 377.81 L 180.24 377.81 L 180.28 377.78 L 180.36 377.23 L 180.77 376.76 L 180.82 376.51 L 180.96 376.49 L 181.00 376.43 L 181.04 376.41 L 181.10 376.30 L 181.17 375.86 L 181.31 375.79 L 181.42 375.78 L 181.50 375.56 L 181.55 375.56 L 181.92 375.39 L 182.12 375.28 L 182.18 375.18 L 182.35 375.17 L 182.37 375.17 L 182.39 375.15 L 182.50 374.36 L 182.58 374.35 L 182.89 374.24 L 182.94 373.93 L 183.00 373.92 L 183.08 373.79 L 183.09 373.72 L 183.12 373.66 L 183.15 373.63 L 183.20 373.63 L 183.23 373.57 L 183.36 372.68 L 183.45 372.59 L 183.53 372.32 L 183.65 372.31 L 183.78 372.22 L 183.92 371.94 L 184.01 371.17 L 184.20 371.12 L 184.20 370.79 L 184.32 370.71 L 193.51 370.71 L 193.69 370.71 L 194.12 370.34 L 194.21 370.34 L 194.29 370.34 L 194.30 370.25 L 194.46 370.09 L 194.57 370.07 L 194.63 369.97 L 194.69 369.90 L 194.73 369.87 L 194.90 369.82 L 195.23 369.90 L 195.31 369.65 L 195.37 369.59 L 195.45 369.58 L 195.88 369.53 L 195.94 369.49 L 195.97 369.49 L 196.00 369.44 L 196.09 369.40 L 196.16 369.31 L 196.47 369.08 L 196.91 368.99 L 197.08 368.95 L 197.57 368.80 L 197.80 368.44 L 197.88 368.38 L 197.98 368.10 L 198.13 367.74 L 198.35 367.64 L 198.66 367.63 L 199.08 367.62 L 199.14 367.49 L 199.45 367.40 L 199.64 367.28 L 199.71 367.19 L 199.83 367.16 L 199.92 366.91 L 201.00 366.80 L 202.04 366.80 L 211.30 366.77 L 211.36 366.64 L 211.41 366.55 L 211.70 366.42 L 212.57 366.18 L 212.60 366.14 L 212.72 365.97 L 213.15 365.91 L 213.35 365.44 L 213.66 365.43 L 213.73 365.41 L 213.80 364.95 L 214.33 364.52 L 214.40 364.52 L 214.51 364.50 L 214.63 364.46 L 214.68 364.30 L 214.98 363.58 L 215.09 363.40 L 215.14 363.39 L 215.21 363.31 L 215.34 363.03 L 215.40 362.32 L 215.53 362.03 L 215.93 361.86 L 215.97 361.50 L 216.01 361.50 L 216.07 361.43 L 216.17 361.34 L 216.21 361.31 L 216.25 361.27 L 216.44 360.44 L 216.49 359.95 L 216.72 359.86 L 216.86 359.03 L 216.95 358.87 L 217.67 357.56 L 217.75 357.54 L 244.96 357.16 L 244.98 357.16 L 255.38 357.05 L 255.95 356.91 L 256.06 356.91 L 256.22 356.84 L 256.27 356.73 L 256.33 356.71 L 260.84 356.70 L 261.43 355.20 L 261.65 355.07 L 261.77 354.55 L 264.58 354.48 L 264.60 354.44 L 264.77 354.43 L 265.61 354.33 L 265.66 354.16 L 265.77 354.10 L 266.06 354.02 L 266.10 354.00 L 266.22 353.71 L 266.35 353.62 L 266.37 353.40 L 275.10 353.12 L 275.17 352.43 L 275.52 352.26 L 275.52 352.00 L 275.58 351.79 L 275.66 351.48 L 275.75 350.65 L 275.90 350.20 L 276.03 349.61 L 276.14 349.61 L 276.18 349.16 L 276.36 349.13 L 276.96 348.70 L 277.21 348.50 L 277.25 348.38 L 277.30 348.38 L 277.33 348.23 L 277.42 347.72 L 277.66 347.66 L 277.70 347.66 L 277.85 347.33 L 277.91 347.33 L 277.93 347.14 L 277.99 347.02 L 278.02 347.01 L 278.06 346.75 L 278.25 346.59 L 278.33 346.32 L 278.44 346.31 L 278.51 346.17 L 278.54 345.97 L 278.73 345.86 L 278.79 345.74 L 278.82 345.74 L 278.87 345.74 L 278.90 345.53 L 278.93 345.54 L 278.94 345.53 L 279.04 345.46 L 279.07 345.23 L 279.17 345.23 L 279.23 345.17 L 279.43 345.16 L 279.67 345.13 L 279.68 345.13 L 279.75 345.12 L 279.97 345.12 L 280.08 345.12 L 280.18 345.12 L 280.29 345.08 L 280.37 344.80 L 280.68 344.80 L 280.71 344.64 L 280.74 344.64 L 280.77 344.45 L 280.97 344.39 L 281.01 344.35 L 281.16 344.35 L 294.60 344.30 L 295.37 344.22 L 295.39 344.22 L 295.54 344.22 L 295.55 344.22 L 295.65 343.90 L 295.73 343.89 L 295.79 343.80 L 295.89 343.75 L 295.91 343.72 L 295.95 343.70 L 296.09 343.67 L 296.38 343.61 L 296.57 343.17 L 296.77 343.15 L 296.78 343.12 L 296.82 342.76 L 296.84 342.75 L 297.24 342.75 L 297.25 342.72 L 297.31 342.38 L 297.48 342.34 L 297.59 342.33 L 297.62 342.32 L 297.63 342.28 L 297.67 342.26 L 297.70 341.91 L 297.72 341.91 L 297.82 341.91 L 297.83 341.88 L 298.04 341.84 L 298.61 341.83 L 298.75 341.80 L 298.79 341.79 L 298.82 341.68 L 298.85 341.68 L 298.93 341.30 L 308.12 341.18 L 308.14 341.07 L 308.21 340.99 L 308.24 340.98 L 308.29 340.65 L 308.39 340.56 L 308.40 340.55 L 308.57 340.54 L 308.61 340.54 L 308.64 340.21 L 308.79 340.18 L 309.19 340.16 L 309.20 340.14 L 309.30 339.97 L 309.33 339.97 L 309.36 339.67 L 309.69 339.67 L 309.70 339.65 L 310.20 339.57 L 310.26 339.21 L 310.44 339.21 L 310.65 339.21 L 310.70 338.94 L 310.74 338.74 L 310.83 338.73 L 311.09 338.68 L 311.14 338.67 L 311.25 338.58 L 311.38 338.58 L 311.76 338.59 L 311.81 338.59 L 311.90 338.57 L 311.90 338.56 L 312.03 338.56 L 312.32 338.54 L 312.62 338.50 L 312.67 338.50 L 312.73 338.46 L 312.82 338.37 L 313.05 338.37 L 313.44 338.25 L 313.56 338.05 L 313.78 338.02 L 314.62 337.80 L 314.80 337.80 L 314.94 337.80 L 315.15 337.79 L 315.22 337.78 L 315.43 337.66 L 315.76 337.65 L 315.81 337.55 L 315.87 337.50 L 315.91 337.51 L 315.94 337.48 L 316.20 337.46 L 322.29 337.46 L 322.35 337.46 L 322.73 337.46 L 322.76 337.44 L 322.85 337.14 L 322.92 337.13 L 322.93 337.13 L 323.14 337.12 L 323.19 337.10 L 324.44 336.66 L 324.58 336.61 L 324.69 336.60 L 324.72 336.60 L 325.10 336.59 L 325.23 336.65 L 325.26 336.65 L 325.47 336.62 L 325.69 336.19 L 325.72 336.19 L 325.91 336.17 L 325.99 336.17 L 326.06 336.17 L 326.22 336.09 L 326.56 335.70 L 326.62 335.70 L 326.68 335.65 L 326.82 335.30 L 327.16 334.91 L 327.45 334.94 L 327.51 334.73 L 327.82 334.73 L 327.87 334.71 L 327.92 334.68 L 327.95 334.48 L 328.06 334.47 L 328.08 334.47 L 328.13 334.47 L 328.31 334.47 L 328.57 334.31 L 328.73 334.29 L 328.92 334.29 L 329.01 334.29 L 329.20 334.29 L 329.50 334.29 L 329.81 334.29 L 330.04 334.29 L 330.10 334.29 L 330.16 334.28 L 330.16 334.21 L 330.34 334.16 L 330.39 334.16 L 330.46 334.15 L 330.96 334.15 L 330.97 333.95 L 331.11 333.95 L 331.69 333.95 L 332.08 333.94 L 332.36 333.90 L 332.37 333.82 L 332.39 333.82 L 340.92 333.69 L 340.95 333.68 L 341.05 333.67 L 341.10 333.55 L 341.13 333.55 L 341.13 333.54 L 341.50 333.51 L 341.58 333.10 L 341.69 333.01 L 341.87 332.21 L 341.98 332.21 L 342.13 331.86 L 342.21 331.90 L 342.25 331.90 L 342.29 331.46 L 342.40 331.39 L 342.42 331.09 L 342.45 331.04 L 342.54 331.01 L 342.60 330.86 L 342.68 332.66 L 342.78 332.63 L 342.99 331.91 L 343.09 331.75 L 343.17 331.59 L 343.69 331.30 L 344.14 331.00 L 344.68 330.58 L 344.82 330.53 L 344.97 330.53 L 345.14 330.50 L 348.27 330.28 L 348.53 330.26 L 378.26 329.70 L 471.84 329.68 L 472.15 329.43 L 472.37 329.39 L 472.58 329.39 L 472.91 329.16 L 473.02 328.90 L 473.10 328.40 L 473.25 328.27 L 473.47 328.32 L 473.64 328.03 L 473.69 328.03 L 473.83 327.94 L 473.86 327.94 L 474.02 327.46 L 474.15 326.73 L 474.58 326.65 L 474.59 326.58 L 474.71 325.63 L 475.12 325.59 L 475.13 325.50 L 475.20 325.44 L 475.30 324.58 L 475.74 324.54 L 475.75 324.42 L 475.84 324.36 L 475.94 323.80 L 476.11 323.78 L 476.12 323.68 L 476.19 322.75 L 476.20 322.72 L 476.24 322.69 L 476.42 322.69 L 476.45 322.60 L 476.51 322.53 L 476.71 322.44 L 476.75 322.43 L 476.90 322.39 L 477.16 322.42 L 477.20 322.38 L 477.24 322.36 L 477.28 322.33 L 477.41 321.35 L 477.55 321.33 L 477.57 321.25 L 477.65 320.25 L 477.73 319.89 L 477.75 319.76 L 477.83 319.27 L 477.87 318.43 L 478.03 318.42 L 478.05 318.37 L 478.13 318.20 L 478.24 318.19 L 478.92 318.17 L 479.25 318.14 L 486.56 318.18 L 486.64 317.99 L 486.71 317.85 L 486.83 317.18 L 487.11 317.17 L 487.13 317.10 L 487.18 316.25 L 487.35 316.24 L 487.37 316.16 L 488.97 316.07 L 489.07 315.76 L 489.87 315.61 L 489.96 315.58 L 490.05 314.64 L 491.02 314.37 L 491.44 314.14 L 491.54 313.43 L 491.89 313.43 L 492.11 313.03 L 492.46 312.42 L 493.11 312.05 L 502.89 312.05 L 503.48 312.04 L 503.50 312.04 L 504.32 311.90 L 504.36 311.83 L 504.65 311.77 L 504.98 310.98 L 504.98 310.98 L 505.02 310.94 L 505.46 310.78 L 506.46 310.25 L 506.53 310.19 L 506.63 310.19 L 506.78 309.96 L 506.83 309.93 L 506.88 309.89 L 507.35 309.89 L 507.73 309.89 L 507.93 309.89 L 507.96 309.85 L 508.38 309.04 L 508.70 308.97 L 508.71 308.91 L 508.75 308.83 L 508.80 308.63 L 519.41 308.48 L 519.43 308.46 L 519.46 308.45 L 519.67 308.35 L 519.83 308.25 L 520.77 307.80 L 521.00 307.70 L 521.67 307.36 L 522.25 307.30 L 522.68 307.16 L 522.80 305.98 L 523.34 305.78 L 523.54 305.72 L 523.61 304.86 L 525.18 304.04 L 525.19 304.04 L 525.28 303.66 L 525.58 303.62 L 525.58 303.62 L 525.60 303.52 L 525.66 303.42 L 525.79 303.33 L 525.96 302.75 L 527.59 302.44 L 527.80 302.31 L 527.95 301.99 L 527.97 301.96 L 528.00 301.75 L 535.24 301.00 L 535.47 300.46 L 535.61 300.44 L 535.66 300.08 L 536.34 299.93 L 536.48 299.55 L 536.61 299.55 L 536.69 298.75 L 536.91 298.56 L 536.95 298.54 L 537.26 298.49 L 537.32 297.83 L 537.58 297.75 L 537.64 297.24 L 537.85 297.18 L 538.01 296.89 L 538.14 296.31 L 538.41 296.20 L 538.44 295.61 L 538.79 296.94 L 538.82 296.94 L 538.87 296.18 L 538.95 296.18 L 538.98 296.12 L 539.39 296.05 L 539.97 295.74 L 540.26 295.90 L 541.22 295.87 L 541.24 295.87 L 541.39 295.86 L 541.45 295.84 L 541.56 295.74 L 541.68 295.64 L 541.81 295.51 L 542.09 295.32 L 542.37 295.30 L 543.22 295.21 L 543.26 295.21 L 544.12 295.10 L 544.49 295.05 L 551.80 295.02 L 552.17 294.98 L 552.35 294.98 L 552.44 294.98 L 552.46 294.98 L 552.64 294.96 L 552.73 294.93 L 552.94 294.79 L 553.07 294.77 L 553.55 294.76 L 553.80 294.69 L 554.21 294.66 L 554.33 294.63 L 554.46 294.57 L 554.65 294.48 L 555.28 294.45 L 555.34 294.44 L 556.26 294.29 L 556.40 294.05 L 556.59 293.97 L 557.04 293.83 L 557.24 293.75 L 557.35 294.08 L 557.44 294.07 L 557.56 293.95 L 557.95 293.64 L 558.37 293.56 L 558.74 293.49 L 558.78 293.46 L 558.82 293.23 L 585.29 293.18 L 585.46 293.12 L 600.69 293.05 L 600.76 293.39 L 600.89 292.05 L 600.91 292.05 L 600.95 292.08 L 601.50 291.57 L 601.55 291.54 L 602.22 291.60 L 602.91 291.54 L 603.15 291.50 L 603.57 291.45 L 604.14 291.30 L 604.15 291.30 L 604.23 291.28 L 604.45 291.24 L 604.52 291.13 L 605.07 291.06 L 605.78 291.01 L 605.86 290.88 L 606.21 290.81 L 606.32 291.40 L 606.59 291.35 L 606.82 291.32 L 607.29 291.29 L 607.73 291.29 L 607.95 291.01 L 607.96 291.01 L 617.48 291.00 L 620.48 290.29 L 620.60 289.94 L 620.75 289.85 L 621.23 289.82 L 621.43 289.69 L 621.58 287.91 L 621.68 286.95 L 621.91 286.91 L 621.94 286.90 L 622.27 286.76 L 622.38 286.72 L 622.44 286.67 L 622.62 286.45 L 622.68 286.44 L 622.78 286.41 L 622.85 286.36 L 622.93 286.31 L 623.02 286.22 L 623.09 286.19 L 623.40 286.15 L 623.55 286.06 L 623.68 286.03 L 623.71 285.45 L 624.07 285.32 L 624.20 285.01 L 633.18 285.07 L 633.84 284.88 L 633.95 284.88 L 634.35 284.53 L 634.53 284.50 L 635.28 283.44 L 635.60 283.34 L 636.04 283.21 L 636.09 283.21 L 636.35 283.20 L 636.44 282.65 L 636.78 281.92 L 637.30 281.84 L 637.48 281.28 L 640.64 280.88 L 640.95 280.47 L 640.97 280.47 L 649.40 279.08 L 649.40 279.08 L 649.51 279.02 L 649.61 278.41 L 650.00 278.36"/>
	</g>
	<g class="poloto_legend poloto_imgs poloto_line poloto0 poloto_stroke"><line x1="680" x2="730" y1="81.25" y2="81.25"/></g>
	<g class="poloto_legend poloto_imgs poloto_line poloto1 poloto_stroke"><line x1="680" x2="730" y1="131.25" y2="131.25"/></g>
	<g class="poloto_legend poloto_imgs poloto_line poloto2 poloto_stroke"><line x1="680" x2="730" y1="181.25" y2="181.25"/></g>
	<text class="poloto_legend poloto_text poloto_line poloto0" x="675" y="100">total</text>
	<text class="poloto_legend poloto_text poloto_line poloto1" x="675" y="150">code</text>
	<text class="poloto_legend poloto_text poloto_line poloto2" x="675" y="200">docs</text>
	<text class="poloto_text poloto_name poloto_title" x="400.00" y="37.50">Workspace lines over time</text>
	<text class="poloto_text poloto_name poloto_x" x="400.00" y="640">date (JST)</text>
	<text class="poloto_text poloto_name poloto_y" x="37.50" y="250.00" transform="rotate(-90,37.50,250.00)">lines</text>
	<text class="poloto_text poloto_ticks poloto_y">
		<tspan x="135.00" y="400.00">0</tspan>
		<tspan x="135.00" y="329.95">50K</tspan>
		<tspan x="135.00" y="259.89">100K</tspan>
		<tspan x="135.00" y="189.84">150K</tspan>
		<tspan x="135.00" y="119.78">200K</tspan>
	</text>
	<g class="poloto_imgs poloto_ticks poloto_y" stroke="black">
		<line x1="150.00" x2="144.00" y1="400.00" y2="400.00"/>
		<line x1="150.00" x2="144.00" y1="329.95" y2="329.95"/>
		<line x1="150.00" x2="144.00" y1="259.89" y2="259.89"/>
		<line x1="150.00" x2="144.00" y1="189.84" y2="189.84"/>
		<line x1="150.00" x2="144.00" y1="119.78" y2="119.78"/>
	</g>
	<g class="poloto_text poloto_ticks poloto_x">
		<text x="211.18" y="430.00" text-anchor="end" transform="rotate(-90 211.18 430.00)">2026-04-24 12:06</text>
		<text x="305.36" y="430.00" text-anchor="end" transform="rotate(-90 305.36 430.00)">2026-04-30 07:00</text>
		<text x="399.53" y="430.00" text-anchor="end" transform="rotate(-90 399.53 430.00)">2026-05-06 01:53</text>
		<text x="493.71" y="430.00" text-anchor="end" transform="rotate(-90 493.71 430.00)">2026-05-11 20:46</text>
		<text x="587.88" y="430.00" text-anchor="end" transform="rotate(-90 587.88 430.00)">2026-05-17 15:40</text>
	</g>
	<g class="poloto_imgs poloto_ticks poloto_x" stroke="black">
		<line x1="211.18" x2="211.18" y1="400.00" y2="405.00"/>
		<line x1="305.36" x2="305.36" y1="400.00" y2="405.00"/>
		<line x1="399.53" x2="399.53" y1="400.00" y2="405.00"/>
		<line x1="493.71" x2="493.71" y1="400.00" y2="405.00"/>
		<line x1="587.88" x2="587.88" y1="400.00" y2="405.00"/>
	</g>
	<path class="poloto_imgs poloto_ticks poloto_x" stroke="black" style="stroke-dasharray:9.417589873001917;stroke-dashoffset:-61.18099590635393;" d=" M 150.00 400.00 L 650.00 400.00"/>
	<path class="poloto_imgs poloto_ticks poloto_y" stroke="black" style="stroke-dasharray:7.005384805787382;stroke-dashoffset:-0;" d=" M 150.00 400.00 L 150.00 100.00"/>
</svg>

