<svg class="poloto" width="800" height="680" viewBox="0 0 800 680" xmlns="http://www.w3.org/2000/svg">
	<style>
.poloto{
  stroke-linecap:round;
  stroke-linejoin:round;
  font-family:Roboto,sans-serif;
  font-size:16px;
}
.poloto_background{fill:AliceBlue;}
.poloto_scatter{stroke-width:7}
.poloto_line{stroke-width:2}
.poloto_text{fill: black;}
.poloto_name{font-size:24px;dominant-baseline:auto;text-anchor:middle;}
.poloto_where{dominant-baseline:middle;text-anchor:start}
.poloto_text.poloto_legend{font-size:20px;dominant-baseline:middle;text-anchor:start;}
.poloto_text.poloto_ticks.poloto_y{dominant-baseline:middle;text-anchor:end}
.poloto_text.poloto_ticks.poloto_x{dominant-baseline:auto;text-anchor:middle}
.poloto_imgs.poloto_ticks{stroke: black;stroke-width:3;fill:none;stroke-dasharray:none}
.poloto_grid{stroke:gray;stroke-width:0.5}

.poloto0.poloto_stroke{stroke:blue;}
.poloto1.poloto_stroke{stroke:red;}
.poloto2.poloto_stroke{stroke:green;}
.poloto3.poloto_stroke{stroke:gold;}
.poloto4.poloto_stroke{stroke:aqua;}
.poloto5.poloto_stroke{stroke:lime;}
.poloto6.poloto_stroke{stroke:orange;}
.poloto7.poloto_stroke{stroke:chocolate;}
.poloto0.poloto_fill{fill:blue;}
.poloto1.poloto_fill{fill:red;}
.poloto2.poloto_fill{fill:green;}
.poloto3.poloto_fill{fill:gold;}
.poloto4.poloto_fill{fill:aqua;}
.poloto5.poloto_fill{fill:lime;}
.poloto6.poloto_fill{fill:orange;}
.poloto7.poloto_fill{fill:chocolate;}
	</style>
	<circle r="1e5" class="poloto_background" fill="white"/>
	<g id="poloto_plot0" class="poloto_plot poloto_imgs poloto_line poloto0 poloto_stroke" fill="none" stroke="black">
		<path d=" M 150.00 370.22 L 150.03 370.20 L 150.04 370.18 L 150.05 370.18 L 150.07 370.18 L 150.10 366.95 L 150.21 366.56 L 150.46 366.55 L 150.83 366.28 L 151.02 364.64 L 151.40 364.53 L 151.47 364.45 L 151.52 364.41 L 151.96 363.61 L 152.79 362.96 L 153.06 360.42 L 153.12 360.43 L 153.63 360.32 L 154.20 360.31 L 154.21 360.31 L 154.21 360.31 L 162.02 360.31 L 162.07 360.31 L 162.17 360.29 L 162.21 360.26 L 162.51 360.11 L 162.65 360.07 L 162.98 359.84 L 163.02 359.74 L 163.12 359.51 L 163.22 359.47 L 163.25 359.47 L 163.33 359.41 L 163.41 359.41 L 163.50 359.41 L 163.71 359.04 L 163.91 358.80 L 163.94 358.80 L 164.03 358.67 L 164.65 359.25 L 164.67 359.25 L 164.75 359.15 L 165.10 358.72 L 165.38 358.20 L 165.70 357.97 L 165.77 357.93 L 165.78 357.93 L 165.84 357.73 L 165.96 357.73 L 166.12 357.66 L 166.42 357.46 L 166.44 357.16 L 166.50 357.16 L 166.57 357.00 L 166.75 357.00 L 166.77 357.00 L 166.95 356.57 L 167.02 356.55 L 167.09 356.51 L 167.16 356.34 L 168.11 356.10 L 168.34 356.05 L 168.87 355.75 L 168.98 355.75 L 169.06 355.73 L 169.11 355.51 L 169.47 354.23 L 169.64 354.21 L 169.82 353.78 L 169.91 353.74 L 170.13 353.38 L 170.23 353.25 L 170.36 353.02 L 170.48 352.82 L 170.90 349.87 L 170.91 349.79 L 170.93 349.62 L 171.08 348.20 L 178.32 348.09 L 179.06 346.47 L 179.09 346.43 L 179.98 346.18 L 180.05 346.17 L 180.13 345.85 L 180.35 345.69 L 180.45 345.42 L 180.48 345.17 L 180.60 344.75 L 180.86 344.74 L 180.86 344.46 L 180.96 344.14 L 181.06 344.13 L 181.17 343.78 L 181.31 343.52 L 181.37 343.39 L 181.39 343.39 L 181.51 343.11 L 181.53 343.11 L 181.67 342.83 L 181.69 342.82 L 181.90 341.49 L 181.93 341.49 L 182.01 341.26 L 182.10 341.25 L 182.21 341.25 L 182.27 341.22 L 182.67 340.97 L 182.68 340.98 L 182.76 340.39 L 182.94 340.37 L 183.10 339.48 L 183.15 339.40 L 183.23 339.40 L 183.27 339.36 L 183.36 338.68 L 183.81 332.88 L 183.86 332.60 L 184.02 332.57 L 184.06 332.50 L 184.10 332.48 L 184.17 332.33 L 184.24 331.67 L 184.41 331.53 L 184.52 331.52 L 184.61 331.23 L 184.66 331.22 L 185.07 331.01 L 185.29 330.84 L 185.36 330.58 L 185.55 330.57 L 185.57 330.57 L 185.58 330.55 L 185.70 329.15 L 185.80 329.07 L 186.14 327.66 L 186.19 327.26 L 186.26 327.24 L 186.34 327.10 L 186.35 326.99 L 186.39 326.92 L 186.42 326.88 L 186.47 326.88 L 186.52 326.80 L 186.65 325.66 L 186.75 325.49 L 186.84 325.15 L 186.97 325.12 L 187.12 325.02 L 187.26 324.20 L 187.37 323.08 L 187.58 323.01 L 187.58 322.59 L 187.71 322.45 L 197.81 322.46 L 198.00 322.44 L 198.48 321.85 L 198.58 321.83 L 198.66 321.83 L 198.67 321.68 L 198.85 321.50 L 198.97 321.47 L 199.04 321.35 L 199.11 321.28 L 199.15 321.24 L 199.33 321.18 L 199.69 321.11 L 199.79 320.80 L 199.85 320.73 L 199.94 320.71 L 200.41 320.56 L 200.48 320.47 L 200.51 320.47 L 200.54 320.36 L 200.64 320.30 L 200.72 320.19 L 201.06 319.43 L 201.55 319.32 L 201.72 319.27 L 202.26 319.08 L 202.52 315.43 L 202.61 315.35 L 202.72 315.00 L 202.88 314.52 L 203.12 314.38 L 203.47 314.37 L 203.93 314.36 L 204.00 314.20 L 204.33 314.03 L 204.55 313.77 L 204.61 313.66 L 204.74 313.62 L 204.85 313.29 L 206.04 312.93 L 207.18 312.93 L 217.35 312.90 L 217.42 312.74 L 217.48 312.64 L 217.79 312.48 L 218.74 311.23 L 218.78 311.14 L 218.92 310.82 L 219.38 310.74 L 219.61 309.89 L 219.94 309.88 L 220.02 309.87 L 220.09 309.29 L 220.68 305.97 L 220.76 305.96 L 220.88 305.94 L 221.01 305.89 L 221.07 305.53 L 221.40 304.28 L 221.52 304.05 L 221.57 304.03 L 221.65 303.46 L 221.79 302.64 L 221.85 301.78 L 222.00 301.39 L 222.44 297.08 L 222.48 296.65 L 222.53 296.65 L 222.60 296.57 L 222.70 296.46 L 222.75 296.42 L 222.79 296.37 L 223.00 295.34 L 223.05 294.61 L 223.31 294.47 L 223.46 293.38 L 223.56 292.70 L 224.35 282.65 L 224.44 282.62 L 254.33 282.14 L 254.36 282.14 L 265.79 282.00 L 266.41 281.73 L 266.54 281.73 L 266.70 281.65 L 266.76 281.52 L 266.83 281.49 L 271.78 281.42 L 272.44 279.51 L 272.68 279.33 L 272.81 278.63 L 275.89 278.49 L 275.91 278.30 L 276.11 278.28 L 277.03 277.07 L 277.08 276.85 L 277.20 276.78 L 277.52 276.69 L 277.56 276.66 L 277.69 276.30 L 277.83 276.20 L 277.85 275.93 L 287.46 275.57 L 287.53 274.54 L 287.91 274.31 L 287.92 272.58 L 287.98 272.33 L 288.06 271.91 L 288.17 270.72 L 288.33 270.09 L 288.47 269.35 L 288.59 269.34 L 288.64 268.78 L 288.84 268.73 L 289.50 265.95 L 289.77 265.65 L 289.81 265.48 L 289.87 265.48 L 289.90 265.28 L 290.00 264.60 L 290.27 264.27 L 290.31 264.23 L 290.47 261.79 L 290.54 261.78 L 290.56 261.52 L 290.62 261.32 L 290.66 261.31 L 290.70 260.95 L 290.91 259.63 L 291.00 259.25 L 291.12 259.20 L 291.20 255.67 L 291.23 255.38 L 291.44 253.37 L 291.50 253.21 L 291.54 253.20 L 291.60 253.20 L 291.63 252.92 L 291.66 252.93 L 291.67 252.92 L 291.78 249.35 L 291.82 249.04 L 291.92 249.02 L 291.99 248.96 L 292.21 248.86 L 292.47 248.72 L 292.48 248.72 L 292.56 248.68 L 292.80 248.61 L 292.92 248.61 L 293.03 248.61 L 293.16 247.06 L 293.24 246.69 L 293.58 246.68 L 293.61 246.44 L 293.65 246.43 L 293.68 246.17 L 293.90 243.92 L 293.94 243.86 L 294.10 243.85 L 308.88 243.78 L 309.72 243.67 L 309.75 243.67 L 309.91 243.67 L 309.92 243.67 L 310.03 243.22 L 310.12 243.20 L 310.19 242.98 L 310.29 242.93 L 310.32 242.90 L 310.36 242.88 L 310.51 242.63 L 310.84 242.40 L 311.04 241.68 L 311.26 240.99 L 311.27 240.96 L 311.31 240.31 L 311.34 240.29 L 311.78 239.91 L 311.79 239.87 L 311.86 239.36 L 312.05 239.30 L 312.17 239.25 L 312.19 238.34 L 312.20 238.29 L 312.25 239.16 L 312.29 238.63 L 312.31 238.61 L 312.41 237.39 L 312.42 237.35 L 312.65 237.25 L 313.28 237.24 L 313.43 237.19 L 313.48 237.18 L 313.51 237.02 L 313.55 237.02 L 313.64 236.42 L 323.73 235.26 L 323.75 235.10 L 323.84 234.99 L 323.86 234.76 L 323.92 224.59 L 324.03 220.42 L 324.04 220.40 L 324.23 220.32 L 324.27 220.32 L 324.30 219.84 L 324.47 219.79 L 324.90 218.81 L 324.91 218.79 L 325.02 218.48 L 325.07 218.49 L 325.09 218.00 L 325.46 217.42 L 325.47 217.40 L 326.02 217.17 L 326.08 216.66 L 326.28 216.66 L 326.51 215.35 L 326.57 214.83 L 326.61 214.42 L 326.71 213.91 L 327.00 213.73 L 327.05 213.60 L 327.17 213.49 L 327.31 213.49 L 327.73 213.49 L 327.78 213.49 L 327.88 213.47 L 327.89 213.46 L 328.03 213.48 L 328.35 213.45 L 328.68 213.26 L 328.73 213.26 L 328.80 213.18 L 328.89 213.04 L 329.15 213.04 L 329.58 212.86 L 329.71 212.45 L 329.95 208.95 L 330.87 211.91 L 331.08 211.90 L 331.23 211.89 L 331.46 211.88 L 331.53 211.82 L 331.76 211.66 L 332.13 211.42 L 332.18 211.25 L 332.25 211.19 L 332.29 211.20 L 332.32 211.15 L 332.61 210.93 L 339.30 210.93 L 339.37 210.93 L 339.78 210.92 L 339.82 210.90 L 339.92 210.46 L 339.99 210.21 L 340.00 210.21 L 340.23 210.17 L 340.29 210.15 L 341.66 209.49 L 341.82 209.43 L 341.94 209.42 L 341.97 209.41 L 342.39 209.25 L 342.54 209.33 L 342.56 209.33 L 342.79 209.28 L 343.04 207.90 L 343.07 207.89 L 343.28 207.73 L 343.36 207.73 L 343.44 207.73 L 343.62 207.58 L 343.99 207.02 L 344.06 207.00 L 344.13 206.84 L 344.28 206.18 L 344.65 205.49 L 344.98 202.27 L 345.04 201.87 L 345.38 201.72 L 345.44 201.64 L 345.49 201.48 L 345.52 200.96 L 345.64 200.03 L 345.67 200.07 L 345.72 200.05 L 345.91 200.05 L 346.20 199.71 L 346.38 199.64 L 346.59 199.63 L 346.69 199.62 L 346.89 199.61 L 347.23 199.61 L 347.56 199.60 L 347.82 199.59 L 347.88 199.58 L 347.94 199.57 L 347.95 199.46 L 348.15 199.39 L 348.20 199.38 L 348.28 199.24 L 348.83 199.22 L 348.84 198.94 L 348.99 198.93 L 349.63 198.94 L 350.06 198.77 L 350.37 198.56 L 350.37 198.45 L 350.40 198.45 L 359.78 198.25 L 359.81 198.25 L 359.91 198.24 L 359.96 198.08 L 360.00 198.06 L 360.00 198.05 L 360.40 198.00 L 360.49 197.42 L 360.61 197.29 L 360.81 196.14 L 360.94 196.13 L 361.10 195.64 L 361.19 195.70 L 361.23 195.69 L 361.28 195.13 L 361.40 194.75 L 361.41 194.35 L 361.46 194.29 L 361.56 194.26 L 361.62 194.07 L 361.71 196.26 L 361.82 196.22 L 362.05 195.35 L 362.15 195.13 L 362.24 194.95 L 362.82 193.69 L 363.31 193.08 L 363.90 191.91 L 364.05 191.86 L 364.22 191.86 L 364.40 191.81 L 367.85 191.48 L 368.14 191.45 L 400.79 190.56 L 503.62 190.35 L 503.96 190.00 L 504.20 189.95 L 504.43 189.95 L 504.79 189.26 L 504.91 188.94 L 505.01 188.32 L 505.17 186.55 L 505.41 186.91 L 505.60 186.53 L 505.64 186.52 L 505.80 186.41 L 505.84 186.41 L 506.01 185.76 L 506.16 184.72 L 506.63 183.62 L 506.64 183.53 L 506.77 182.21 L 507.22 178.96 L 507.23 178.85 L 507.31 178.78 L 507.42 177.61 L 507.90 176.05 L 507.91 175.90 L 508.01 175.83 L 508.12 175.06 L 508.30 174.45 L 508.32 174.33 L 508.39 173.14 L 508.41 173.11 L 508.45 172.78 L 508.65 170.65 L 508.68 170.53 L 508.75 170.41 L 508.97 170.13 L 509.01 170.12 L 509.18 169.72 L 509.47 169.76 L 509.51 169.71 L 509.55 169.68 L 509.60 169.65 L 509.74 168.41 L 509.89 167.39 L 509.92 167.30 L 510.00 166.03 L 510.09 164.79 L 510.11 164.64 L 510.20 163.19 L 510.24 162.05 L 510.42 161.28 L 510.44 161.22 L 510.53 160.98 L 510.65 160.96 L 511.39 160.93 L 511.76 160.89 L 519.79 160.94 L 519.88 160.72 L 519.95 160.53 L 520.09 159.68 L 520.39 159.46 L 520.42 159.37 L 520.47 158.24 L 520.66 157.15 L 520.68 157.06 L 522.44 156.98 L 522.54 156.37 L 523.43 156.18 L 523.53 156.14 L 523.63 154.87 L 524.69 153.67 L 525.15 153.22 L 525.26 152.28 L 525.64 150.69 L 525.88 150.22 L 526.28 149.28 L 526.98 148.81 L 537.73 148.80 L 538.38 148.69 L 538.41 148.71 L 539.31 148.52 L 539.35 148.43 L 539.67 148.36 L 540.03 147.32 L 540.03 147.32 L 540.07 147.28 L 540.55 146.09 L 541.66 145.41 L 541.73 145.34 L 541.84 145.34 L 542.01 145.02 L 542.06 144.94 L 542.12 144.88 L 542.63 144.83 L 543.05 144.83 L 543.27 144.83 L 543.30 144.79 L 543.76 143.75 L 544.11 143.55 L 544.13 143.47 L 544.17 143.39 L 544.22 143.11 L 555.89 142.71 L 555.91 142.69 L 555.94 142.67 L 556.17 142.56 L 556.35 142.43 L 557.37 140.83 L 557.63 140.64 L 558.37 140.16 L 559.01 140.04 L 559.48 139.89 L 559.61 138.41 L 560.20 136.68 L 560.42 136.56 L 560.50 135.44 L 562.22 133.39 L 562.24 133.39 L 562.34 132.89 L 562.66 132.84 L 562.67 132.84 L 562.69 132.71 L 562.75 132.55 L 562.89 132.39 L 563.08 131.53 L 564.87 129.45 L 565.10 129.21 L 565.27 128.83 L 565.29 128.79 L 565.32 128.50 L 573.27 127.56 L 573.53 126.85 L 573.68 126.81 L 573.73 126.34 L 574.48 126.12 L 574.64 125.65 L 574.78 125.65 L 574.87 124.66 L 575.12 122.13 L 575.16 122.09 L 575.49 122.04 L 575.57 121.22 L 575.85 120.23 L 575.91 119.54 L 576.15 118.91 L 576.32 118.57 L 576.46 117.81 L 576.76 117.17 L 576.79 116.45 L 577.17 116.29 L 577.21 116.29 L 577.27 115.37 L 577.35 115.37 L 577.39 115.30 L 577.83 113.58 L 578.47 113.01 L 578.79 113.20 L 579.85 113.12 L 579.87 113.11 L 580.03 113.09 L 580.11 113.07 L 580.22 112.96 L 580.35 112.86 L 580.49 112.67 L 580.81 112.42 L 581.11 112.40 L 582.05 112.23 L 582.09 112.22 L 583.03 112.06 L 583.44 111.95 L 591.48 111.94 L 591.88 111.81 L 592.08 111.73 L 592.17 111.73 L 592.20 111.73 L 592.40 111.70 L 592.49 111.65 L 592.73 111.48 L 592.87 111.45 L 593.40 111.27 L 593.67 110.89 L 594.12 110.83 L 594.25 110.58 L 594.40 110.43 L 594.60 110.23 L 595.29 110.28 L 595.36 110.27 L 596.37 109.79 L 596.53 109.51 L 596.73 109.41 L 597.22 109.19 L 597.45 109.25 L 597.57 109.62 L 597.67 109.60 L 597.80 109.45 L 598.23 108.32 L 598.69 108.20 L 599.09 108.10 L 599.14 108.05 L 599.19 107.73 L 628.27 107.65 L 628.46 107.51 L 645.19 107.15 L 645.27 107.56 L 645.41 105.83 L 645.43 105.83 L 645.48 105.87 L 646.07 102.36 L 646.14 102.33 L 646.88 102.41 L 647.63 102.19 L 647.89 101.86 L 648.36 101.43 L 648.98 101.16 L 648.99 101.16 L 649.08 101.09 L 649.32 101.03 L 649.40 100.85 L 650.00 100.00"/>
	</g>
	<g id="poloto_plot1" class="poloto_plot poloto_imgs poloto_line poloto1 poloto_stroke" fill="none" stroke="black">
		<path d=" M 150.00 382.31 L 150.03 382.29 L 150.04 382.28 L 150.05 382.28 L 150.07 382.28 L 150.10 381.72 L 150.21 381.70 L 150.46 381.69 L 150.83 381.48 L 151.02 381.39 L 151.40 381.41 L 151.47 381.37 L 151.52 381.37 L 151.96 381.32 L 152.79 381.22 L 153.06 379.03 L 153.12 379.03 L 153.63 378.98 L 154.20 378.97 L 154.21 378.97 L 154.21 378.97 L 162.02 378.97 L 162.07 378.97 L 162.17 378.97 L 162.21 378.94 L 162.51 378.93 L 162.65 378.93 L 162.98 378.93 L 163.02 378.93 L 163.12 378.91 L 163.22 378.91 L 163.25 378.91 L 163.33 378.89 L 163.41 378.89 L 163.50 378.89 L 163.71 378.76 L 163.91 378.76 L 163.94 378.76 L 164.03 378.76 L 164.65 379.59 L 164.67 379.59 L 164.75 379.58 L 165.10 379.45 L 165.38 379.32 L 165.70 379.25 L 165.77 379.21 L 165.78 379.21 L 165.84 379.21 L 165.96 379.21 L 166.12 379.16 L 166.42 379.11 L 166.44 379.11 L 166.50 379.11 L 166.57 379.09 L 166.75 379.09 L 166.77 379.09 L 166.95 379.08 L 167.02 379.08 L 167.09 379.08 L 167.16 379.08 L 168.11 378.98 L 168.34 378.98 L 168.87 378.93 L 168.98 378.93 L 169.06 378.93 L 169.11 378.93 L 169.47 378.87 L 169.64 378.87 L 169.82 378.79 L 169.91 378.78 L 170.13 378.60 L 170.23 378.54 L 170.36 378.54 L 170.48 378.54 L 170.90 375.98 L 170.91 375.93 L 170.93 375.93 L 171.08 375.69 L 178.32 375.69 L 179.06 374.58 L 179.09 374.58 L 179.98 374.58 L 180.05 374.58 L 180.13 374.47 L 180.35 374.45 L 180.45 374.45 L 180.48 374.45 L 180.60 374.45 L 180.86 374.45 L 180.86 374.21 L 180.96 374.20 L 181.06 374.20 L 181.17 374.17 L 181.31 374.17 L 181.37 374.17 L 181.39 374.17 L 181.51 374.17 L 181.53 374.17 L 181.67 374.17 L 181.69 374.17 L 181.90 373.08 L 181.93 373.08 L 182.01 372.95 L 182.10 372.95 L 182.21 372.95 L 182.27 372.94 L 182.67 372.94 L 182.68 372.94 L 182.76 372.87 L 182.94 372.87 L 183.10 372.25 L 183.15 372.17 L 183.23 372.17 L 183.27 372.17 L 183.36 372.15 L 183.81 367.59 L 183.86 367.62 L 184.02 367.62 L 184.06 367.62 L 184.10 367.62 L 184.17 367.62 L 184.24 367.56 L 184.41 367.56 L 184.52 367.56 L 184.61 367.55 L 184.66 367.55 L 185.07 367.54 L 185.29 367.54 L 185.36 367.42 L 185.55 367.42 L 185.57 367.42 L 185.58 367.42 L 185.70 367.12 L 185.80 367.04 L 186.14 365.95 L 186.19 365.95 L 186.26 365.95 L 186.34 365.97 L 186.35 365.97 L 186.39 365.97 L 186.42 365.97 L 186.47 365.97 L 186.52 365.97 L 186.65 365.94 L 186.75 365.94 L 186.84 365.93 L 186.97 365.93 L 187.12 365.92 L 187.26 365.52 L 187.37 365.38 L 187.58 365.38 L 187.58 365.38 L 187.71 365.38 L 197.81 365.38 L 198.00 365.37 L 198.48 365.30 L 198.58 365.29 L 198.66 365.29 L 198.67 365.29 L 198.85 365.29 L 198.97 365.29 L 199.04 365.29 L 199.11 365.29 L 199.15 365.29 L 199.33 365.29 L 199.69 365.31 L 199.79 365.31 L 199.85 365.31 L 199.94 365.31 L 200.41 365.22 L 200.48 365.18 L 200.51 365.18 L 200.54 365.12 L 200.64 365.12 L 200.72 365.12 L 201.06 364.70 L 201.55 364.70 L 201.72 364.70 L 202.26 364.70 L 202.52 361.90 L 202.61 361.90 L 202.72 361.90 L 202.88 361.90 L 203.12 361.90 L 203.47 361.90 L 203.93 361.90 L 204.00 361.90 L 204.33 361.83 L 204.55 361.71 L 204.61 361.71 L 204.74 361.71 L 204.85 361.70 L 206.04 361.52 L 207.18 361.52 L 217.35 361.52 L 217.42 361.52 L 217.48 361.52 L 217.79 361.52 L 218.74 360.64 L 218.78 360.61 L 218.92 360.52 L 219.38 360.51 L 219.61 360.30 L 219.94 360.30 L 220.02 360.30 L 220.09 360.30 L 220.68 357.85 L 220.76 357.85 L 220.88 357.85 L 221.01 357.85 L 221.07 357.69 L 221.40 357.39 L 221.52 357.39 L 221.57 357.39 L 221.65 356.94 L 221.79 356.49 L 221.85 356.49 L 222.00 356.48 L 222.44 352.83 L 222.48 352.83 L 222.53 352.83 L 222.60 352.83 L 222.70 352.83 L 222.75 352.83 L 222.79 352.83 L 223.00 352.83 L 223.05 352.75 L 223.31 352.73 L 223.46 352.68 L 223.56 352.24 L 224.35 344.96 L 224.44 344.96 L 254.33 344.96 L 254.36 344.96 L 265.79 344.96 L 266.41 344.85 L 266.54 344.85 L 266.70 344.85 L 266.76 344.85 L 266.83 344.85 L 271.78 344.79 L 272.44 344.72 L 272.68 344.72 L 272.81 344.70 L 275.89 344.64 L 275.91 344.54 L 276.11 344.54 L 277.03 343.55 L 277.08 343.55 L 277.20 343.55 L 277.52 343.55 L 277.56 343.55 L 277.69 343.55 L 277.83 343.55 L 277.85 343.55 L 287.46 343.54 L 287.53 343.36 L 287.91 343.36 L 287.92 342.17 L 287.98 342.17 L 288.06 342.17 L 288.17 342.06 L 288.33 342.06 L 288.47 342.01 L 288.59 342.01 L 288.64 342.01 L 288.84 342.00 L 289.50 339.98 L 289.77 339.98 L 289.81 339.96 L 289.87 339.96 L 289.90 339.96 L 290.00 339.93 L 290.27 339.68 L 290.31 339.65 L 290.47 337.83 L 290.54 337.83 L 290.56 337.83 L 290.62 337.80 L 290.66 337.80 L 290.70 337.80 L 290.91 336.81 L 291.00 336.80 L 291.12 336.77 L 291.20 333.70 L 291.23 333.70 L 291.44 331.97 L 291.50 331.97 L 291.54 331.97 L 291.60 331.97 L 291.63 331.97 L 291.66 331.97 L 291.67 331.97 L 291.78 328.77 L 291.82 328.77 L 291.92 328.76 L 291.99 328.76 L 292.21 328.69 L 292.47 328.61 L 292.48 328.61 L 292.56 328.59 L 292.80 328.54 L 292.92 328.54 L 293.03 328.54 L 293.16 327.16 L 293.24 327.16 L 293.58 327.15 L 293.61 327.15 L 293.65 327.15 L 293.68 327.15 L 293.90 325.18 L 293.94 325.18 L 294.10 325.16 L 308.88 325.16 L 309.72 325.15 L 309.75 325.15 L 309.91 325.15 L 309.92 325.15 L 310.03 325.15 L 310.12 325.15 L 310.19 325.05 L 310.29 325.05 L 310.32 325.05 L 310.36 325.05 L 310.51 324.87 L 310.84 324.76 L 311.04 324.65 L 311.26 324.09 L 311.27 324.09 L 311.31 323.95 L 311.34 323.93 L 311.78 323.59 L 311.79 323.59 L 311.86 323.54 L 312.05 323.54 L 312.17 323.51 L 312.19 322.69 L 312.20 322.69 L 312.25 323.50 L 312.29 323.45 L 312.31 323.44 L 312.41 322.35 L 312.42 322.35 L 312.65 322.30 L 313.28 322.30 L 313.43 322.30 L 313.48 322.30 L 313.51 322.30 L 313.55 322.30 L 313.64 322.23 L 323.73 321.32 L 323.75 321.32 L 323.84 321.32 L 323.86 321.12 L 323.92 311.40 L 324.03 307.79 L 324.04 307.79 L 324.23 307.72 L 324.27 307.72 L 324.30 307.71 L 324.47 307.71 L 324.90 306.83 L 324.91 306.83 L 325.02 306.78 L 325.07 306.78 L 325.09 306.70 L 325.46 306.18 L 325.47 306.18 L 326.02 306.07 L 326.08 306.03 L 326.28 306.04 L 326.51 304.85 L 326.57 304.73 L 326.61 304.62 L 326.71 304.17 L 327.00 304.06 L 327.05 303.96 L 327.17 303.96 L 327.31 303.96 L 327.73 303.96 L 327.78 303.96 L 327.88 303.96 L 327.89 303.96 L 328.03 303.97 L 328.35 303.97 L 328.68 303.85 L 328.73 303.85 L 328.80 303.84 L 328.89 303.84 L 329.15 303.84 L 329.58 303.84 L 329.71 303.73 L 329.95 300.59 L 330.87 303.55 L 331.08 303.54 L 331.23 303.53 L 331.46 303.53 L 331.53 303.50 L 331.76 303.48 L 332.13 303.30 L 332.18 303.30 L 332.25 303.30 L 332.29 303.30 L 332.32 303.30 L 332.61 303.12 L 339.30 303.12 L 339.37 303.13 L 339.78 303.12 L 339.82 303.12 L 339.92 303.09 L 339.99 302.87 L 340.00 302.86 L 340.23 302.84 L 340.29 302.84 L 341.66 302.66 L 341.82 302.66 L 341.94 302.66 L 341.97 302.66 L 342.39 302.53 L 342.54 302.53 L 342.56 302.53 L 342.79 302.53 L 343.04 301.79 L 343.07 301.79 L 343.28 301.66 L 343.36 301.66 L 343.44 301.66 L 343.62 301.66 L 343.99 301.65 L 344.06 301.63 L 344.13 301.56 L 344.28 301.43 L 344.65 301.32 L 344.98 298.36 L 345.04 298.26 L 345.38 298.12 L 345.44 298.09 L 345.49 297.98 L 345.52 297.78 L 345.64 296.89 L 345.67 296.93 L 345.72 296.91 L 345.91 296.90 L 346.20 296.78 L 346.38 296.74 L 346.59 296.72 L 346.69 296.71 L 346.89 296.70 L 347.23 296.70 L 347.56 296.69 L 347.82 296.69 L 347.88 296.69 L 347.94 296.68 L 347.95 296.68 L 348.15 296.68 L 348.20 296.67 L 348.28 296.56 L 348.83 296.54 L 348.84 296.54 L 348.99 296.53 L 349.63 296.53 L 350.06 296.38 L 350.37 296.26 L 350.37 296.26 L 350.40 296.25 L 359.78 296.25 L 359.81 296.25 L 359.91 296.25 L 359.96 296.25 L 360.00 296.24 L 360.00 296.24 L 360.40 296.24 L 360.49 296.23 L 360.61 296.21 L 360.81 296.19 L 360.94 296.19 L 361.10 296.12 L 361.19 296.12 L 361.23 296.12 L 361.28 296.12 L 361.40 295.85 L 361.41 295.85 L 361.46 295.85 L 361.56 295.85 L 361.62 295.85 L 361.71 295.91 L 361.82 295.91 L 362.05 295.90 L 362.15 295.90 L 362.24 295.90 L 362.82 295.03 L 363.31 294.80 L 363.90 294.17 L 364.05 294.17 L 364.22 294.17 L 364.40 294.17 L 367.85 294.10 L 368.14 294.09 L 400.79 293.98 L 503.62 293.82 L 503.96 293.77 L 504.20 293.77 L 504.43 293.77 L 504.79 293.36 L 504.91 293.36 L 505.01 293.36 L 505.17 291.91 L 505.41 292.19 L 505.60 292.17 L 505.64 292.17 L 505.80 292.15 L 505.84 292.15 L 506.01 292.15 L 506.16 292.08 L 506.63 291.16 L 506.64 291.16 L 506.77 291.08 L 507.22 288.10 L 507.23 288.10 L 507.31 288.09 L 507.42 288.05 L 507.90 286.66 L 507.91 286.66 L 508.01 286.66 L 508.12 286.63 L 508.30 286.12 L 508.32 286.12 L 508.39 286.11 L 508.41 286.11 L 508.45 285.83 L 508.65 283.86 L 508.68 283.86 L 508.75 283.86 L 508.97 283.69 L 509.01 283.69 L 509.18 283.37 L 509.47 283.37 L 509.51 283.37 L 509.55 283.37 L 509.60 283.37 L 509.74 283.36 L 509.89 282.47 L 509.92 282.47 L 510.00 282.47 L 510.09 281.79 L 510.11 281.79 L 510.20 281.08 L 510.24 281.03 L 510.42 280.33 L 510.44 280.33 L 510.53 280.33 L 510.65 280.32 L 511.39 280.32 L 511.76 280.31 L 519.79 280.31 L 519.88 280.31 L 519.95 280.31 L 520.09 280.31 L 520.39 280.12 L 520.42 280.12 L 520.47 280.07 L 520.66 279.08 L 520.68 279.08 L 522.44 279.10 L 522.54 278.91 L 523.43 278.91 L 523.53 278.90 L 523.63 278.83 L 524.69 278.02 L 525.15 277.86 L 525.26 277.81 L 525.64 276.27 L 525.88 276.27 L 526.28 276.14 L 526.98 276.14 L 537.73 276.13 L 538.38 276.04 L 538.41 276.06 L 539.31 276.06 L 539.35 276.06 L 539.67 276.06 L 540.03 276.03 L 540.03 276.03 L 540.07 276.03 L 540.55 275.13 L 541.66 275.11 L 541.73 275.10 L 541.84 275.10 L 542.01 275.07 L 542.06 275.04 L 542.12 275.04 L 542.63 275.00 L 543.05 275.00 L 543.27 274.99 L 543.30 274.99 L 543.76 274.98 L 544.11 274.87 L 544.13 274.87 L 544.17 274.87 L 544.22 274.87 L 555.89 274.66 L 555.91 274.66 L 555.94 274.66 L 556.17 274.66 L 556.35 274.66 L 557.37 273.77 L 557.63 273.72 L 558.37 273.65 L 559.01 273.60 L 559.48 273.60 L 559.61 273.60 L 560.20 272.26 L 560.42 272.22 L 560.50 272.17 L 562.22 271.23 L 562.24 271.23 L 562.34 271.22 L 562.66 271.21 L 562.67 271.21 L 562.69 271.21 L 562.75 271.18 L 562.89 271.14 L 563.08 271.04 L 564.87 269.48 L 565.10 269.40 L 565.27 269.40 L 565.29 269.40 L 565.32 269.40 L 573.27 269.40 L 573.53 269.39 L 573.68 269.39 L 573.73 269.39 L 574.48 269.39 L 574.64 269.39 L 574.78 269.39 L 574.87 269.36 L 575.12 267.32 L 575.16 267.30 L 575.49 267.31 L 575.57 267.30 L 575.85 266.50 L 575.91 266.46 L 576.15 265.95 L 576.32 265.95 L 576.46 265.90 L 576.76 265.43 L 576.79 265.42 L 577.17 263.91 L 577.21 263.91 L 577.27 263.90 L 577.35 263.90 L 577.39 263.90 L 577.83 262.38 L 578.47 262.24 L 578.79 262.24 L 579.85 262.20 L 579.87 262.20 L 580.03 262.20 L 580.11 262.20 L 580.22 262.20 L 580.35 262.20 L 580.49 262.18 L 580.81 262.16 L 581.11 262.16 L 582.05 262.09 L 582.09 262.09 L 583.03 262.05 L 583.44 262.01 L 591.48 262.03 L 591.88 261.95 L 592.08 261.87 L 592.17 261.87 L 592.20 261.87 L 592.40 261.86 L 592.49 261.86 L 592.73 261.86 L 592.87 261.86 L 593.40 261.72 L 593.67 261.44 L 594.12 261.43 L 594.25 261.24 L 594.40 261.16 L 594.60 261.08 L 595.29 261.16 L 595.36 261.16 L 596.37 260.87 L 596.53 260.87 L 596.73 260.87 L 597.22 260.85 L 597.45 260.99 L 597.57 260.99 L 597.67 260.99 L 597.80 260.99 L 598.23 260.33 L 598.69 260.31 L 599.09 260.31 L 599.14 260.31 L 599.19 260.31 L 628.27 260.31 L 628.46 260.26 L 645.19 260.04 L 645.27 260.04 L 645.41 259.99 L 645.43 259.99 L 645.48 259.99 L 646.07 257.46 L 646.14 257.46 L 646.88 257.46 L 647.63 257.34 L 647.89 257.09 L 648.36 256.77 L 648.98 256.68 L 648.99 256.68 L 649.08 256.63 L 649.32 256.63 L 649.40 256.58 L 650.00 255.90"/>
	</g>
	<g id="poloto_plot2" class="poloto_plot poloto_imgs poloto_line poloto2 poloto_stroke" fill="none" stroke="black">
		<path d=" M 150.00 392.06 L 150.03 392.06 L 150.04 392.06 L 150.05 392.06 L 150.07 392.06 L 150.10 390.02 L 150.21 389.74 L 150.46 389.74 L 150.83 389.73 L 151.02 388.51 L 151.40 388.40 L 151.47 388.37 L 151.52 388.34 L 151.96 387.79 L 152.79 387.37 L 153.06 387.29 L 153.12 387.29 L 153.63 387.26 L 154.20 387.26 L 154.21 387.26 L 154.21 387.26 L 162.02 387.26 L 162.07 387.25 L 162.17 387.24 L 162.21 387.24 L 162.51 387.11 L 162.65 387.08 L 162.98 386.88 L 163.02 386.79 L 163.12 386.61 L 163.22 386.59 L 163.25 386.59 L 163.33 386.55 L 163.41 386.55 L 163.50 386.56 L 163.71 386.35 L 163.91 386.16 L 163.94 386.17 L 164.03 386.06 L 164.65 385.81 L 164.67 385.81 L 164.75 385.73 L 165.10 385.46 L 165.38 385.13 L 165.70 385.00 L 165.77 385.00 L 165.78 385.00 L 165.84 384.81 L 165.96 384.81 L 166.12 384.79 L 166.42 384.65 L 166.44 384.42 L 166.50 384.42 L 166.57 384.30 L 166.75 384.30 L 166.77 384.30 L 166.95 383.94 L 167.02 383.92 L 167.09 383.89 L 167.16 383.72 L 168.11 383.63 L 168.34 383.59 L 168.87 383.35 L 168.98 383.35 L 169.06 383.33 L 169.11 383.15 L 169.47 382.15 L 169.64 382.14 L 169.82 381.84 L 169.91 381.81 L 170.13 381.68 L 170.23 381.63 L 170.36 381.42 L 170.48 381.24 L 170.90 381.24 L 170.91 381.22 L 170.93 381.08 L 171.08 380.12 L 178.32 380.02 L 179.06 379.73 L 179.09 379.69 L 179.98 379.45 L 180.05 379.45 L 180.13 379.27 L 180.35 379.15 L 180.45 378.93 L 180.48 378.75 L 180.60 378.39 L 180.86 378.39 L 180.86 378.39 L 180.96 378.14 L 181.06 378.13 L 181.17 377.87 L 181.31 377.67 L 181.37 377.55 L 181.39 377.55 L 181.51 377.31 L 181.53 377.30 L 181.67 377.08 L 181.69 377.08 L 181.90 377.00 L 181.93 377.00 L 182.01 376.92 L 182.10 376.90 L 182.21 376.90 L 182.27 376.89 L 182.67 376.67 L 182.68 376.68 L 182.76 376.25 L 182.94 376.23 L 183.10 376.10 L 183.15 376.10 L 183.23 376.09 L 183.27 376.06 L 183.36 375.46 L 183.81 374.97 L 183.86 374.69 L 184.02 374.67 L 184.06 374.60 L 184.10 374.59 L 184.17 374.46 L 184.24 373.99 L 184.41 373.92 L 184.52 373.91 L 184.61 373.67 L 184.66 373.67 L 185.07 373.49 L 185.29 373.37 L 185.36 373.26 L 185.55 373.25 L 185.57 373.25 L 185.58 373.22 L 185.70 372.38 L 185.80 372.37 L 186.14 372.25 L 186.19 371.91 L 186.26 371.90 L 186.34 371.76 L 186.35 371.68 L 186.39 371.62 L 186.42 371.59 L 186.47 371.59 L 186.52 371.52 L 186.65 370.57 L 186.75 370.47 L 186.84 370.18 L 186.97 370.16 L 187.12 370.07 L 187.26 369.77 L 187.37 368.94 L 187.58 368.88 L 187.58 368.53 L 187.71 368.44 L 197.81 368.44 L 198.00 368.44 L 198.48 368.05 L 198.58 368.05 L 198.66 368.05 L 198.67 367.95 L 198.85 367.78 L 198.97 367.75 L 199.04 367.65 L 199.11 367.58 L 199.15 367.54 L 199.33 367.49 L 199.69 367.57 L 199.79 367.30 L 199.85 367.24 L 199.94 367.23 L 200.41 367.18 L 200.48 367.13 L 200.51 367.13 L 200.54 367.08 L 200.64 367.04 L 200.72 366.94 L 201.06 366.69 L 201.55 366.59 L 201.72 366.54 L 202.26 366.38 L 202.52 366.00 L 202.61 365.93 L 202.72 365.63 L 202.88 365.24 L 203.12 365.14 L 203.47 365.13 L 203.93 365.11 L 204.00 364.97 L 204.33 364.87 L 204.55 364.75 L 204.61 364.65 L 204.74 364.61 L 204.85 364.36 L 206.04 364.23 L 207.18 364.23 L 217.35 364.20 L 217.42 364.06 L 217.48 363.96 L 217.79 363.82 L 218.74 363.56 L 218.78 363.52 L 218.92 363.34 L 219.38 363.27 L 219.61 362.77 L 219.94 362.75 L 220.02 362.74 L 220.09 362.24 L 220.68 361.78 L 220.76 361.78 L 220.88 361.75 L 221.01 361.71 L 221.07 361.54 L 221.40 360.77 L 221.52 360.57 L 221.57 360.56 L 221.65 360.47 L 221.79 360.17 L 221.85 359.40 L 222.00 359.09 L 222.44 358.91 L 222.48 358.52 L 222.53 358.52 L 222.60 358.45 L 222.70 358.34 L 222.75 358.32 L 222.79 358.28 L 223.00 357.38 L 223.05 356.85 L 223.31 356.75 L 223.46 355.86 L 223.56 355.68 L 224.35 354.28 L 224.44 354.25 L 254.33 353.84 L 254.36 353.84 L 265.79 353.72 L 266.41 353.57 L 266.54 353.57 L 266.70 353.50 L 266.76 353.39 L 266.83 353.36 L 271.78 353.35 L 272.44 351.73 L 272.68 351.59 L 272.81 351.03 L 275.89 350.96 L 275.91 350.91 L 276.11 350.90 L 277.03 350.80 L 277.08 350.61 L 277.20 350.55 L 277.52 350.46 L 277.56 350.44 L 277.69 350.13 L 277.83 350.03 L 277.85 349.79 L 287.46 349.49 L 287.53 348.75 L 287.91 348.56 L 287.92 348.28 L 287.98 348.06 L 288.06 347.72 L 288.17 346.83 L 288.33 346.34 L 288.47 345.72 L 288.59 345.71 L 288.64 345.23 L 288.84 345.19 L 289.50 344.73 L 289.77 344.52 L 289.81 344.38 L 289.87 344.38 L 289.90 344.22 L 290.00 343.67 L 290.27 343.61 L 290.31 343.61 L 290.47 343.25 L 290.54 343.25 L 290.56 343.05 L 290.62 342.92 L 290.66 342.91 L 290.70 342.63 L 290.91 342.45 L 291.00 342.17 L 291.12 342.16 L 291.20 342.00 L 291.23 341.79 L 291.44 341.67 L 291.50 341.54 L 291.54 341.54 L 291.60 341.54 L 291.63 341.31 L 291.66 341.32 L 291.67 341.32 L 291.78 341.24 L 291.82 340.99 L 291.92 340.99 L 291.99 340.93 L 292.21 340.91 L 292.47 340.89 L 292.48 340.89 L 292.56 340.87 L 292.80 340.87 L 292.92 340.87 L 293.03 340.87 L 293.16 340.83 L 293.24 340.53 L 293.58 340.53 L 293.61 340.36 L 293.65 340.36 L 293.68 340.16 L 293.90 340.09 L 293.94 340.04 L 294.10 340.04 L 308.88 339.99 L 309.72 339.90 L 309.75 339.90 L 309.91 339.90 L 309.92 339.90 L 310.03 339.56 L 310.12 339.54 L 310.19 339.45 L 310.29 339.39 L 310.32 339.36 L 310.36 339.34 L 310.51 339.31 L 310.84 339.24 L 311.04 338.78 L 311.26 338.75 L 311.27 338.72 L 311.31 338.33 L 311.34 338.33 L 311.78 338.33 L 311.79 338.29 L 311.86 337.93 L 312.05 337.88 L 312.17 337.87 L 312.19 337.86 L 312.20 337.82 L 312.25 337.79 L 312.29 337.42 L 312.31 337.41 L 312.41 337.41 L 312.42 337.38 L 312.65 337.34 L 313.28 337.33 L 313.43 337.30 L 313.48 337.29 L 313.51 337.17 L 313.55 337.17 L 313.64 336.75 L 323.73 336.62 L 323.75 336.51 L 323.84 336.42 L 323.86 336.41 L 323.92 336.05 L 324.03 335.97 L 324.04 335.95 L 324.23 335.94 L 324.27 335.94 L 324.30 335.59 L 324.47 335.55 L 324.90 335.53 L 324.91 335.51 L 325.02 335.32 L 325.07 335.33 L 325.09 335.00 L 325.46 335.00 L 325.47 334.98 L 326.02 334.90 L 326.08 334.51 L 326.28 334.51 L 326.51 334.51 L 326.57 334.22 L 326.61 334.00 L 326.71 333.99 L 327.00 333.94 L 327.05 333.92 L 327.17 333.83 L 327.31 333.83 L 327.73 333.83 L 327.78 333.83 L 327.88 333.81 L 327.89 333.81 L 328.03 333.81 L 328.35 333.79 L 328.68 333.75 L 328.73 333.74 L 328.80 333.70 L 328.89 333.60 L 329.15 333.60 L 329.58 333.47 L 329.71 333.25 L 329.95 333.23 L 330.87 332.99 L 331.08 332.99 L 331.23 332.99 L 331.46 332.98 L 331.53 332.96 L 331.76 332.84 L 332.13 332.83 L 332.18 332.72 L 332.25 332.67 L 332.29 332.68 L 332.32 332.64 L 332.61 332.62 L 339.30 332.62 L 339.37 332.62 L 339.78 332.62 L 339.82 332.60 L 339.92 332.28 L 339.99 332.26 L 340.00 332.27 L 340.23 332.26 L 340.29 332.24 L 341.66 331.76 L 341.82 331.71 L 341.94 331.70 L 341.97 331.69 L 342.39 331.68 L 342.54 331.75 L 342.56 331.75 L 342.79 331.71 L 343.04 331.26 L 343.07 331.25 L 343.28 331.24 L 343.36 331.24 L 343.44 331.24 L 343.62 331.14 L 343.99 330.73 L 344.06 330.73 L 344.13 330.67 L 344.28 330.29 L 344.65 329.87 L 344.98 329.90 L 345.04 329.68 L 345.38 329.68 L 345.44 329.65 L 345.49 329.63 L 345.52 329.41 L 345.64 329.40 L 345.67 329.40 L 345.72 329.40 L 345.91 329.40 L 346.20 329.23 L 346.38 329.21 L 346.59 329.21 L 346.69 329.21 L 346.89 329.21 L 347.23 329.21 L 347.56 329.21 L 347.82 329.21 L 347.88 329.20 L 347.94 329.20 L 347.95 329.12 L 348.15 329.07 L 348.20 329.07 L 348.28 329.05 L 348.83 329.05 L 348.84 328.84 L 348.99 328.84 L 349.63 328.84 L 350.06 328.83 L 350.37 328.79 L 350.37 328.70 L 350.40 328.70 L 359.78 328.56 L 359.81 328.55 L 359.91 328.54 L 359.96 328.41 L 360.00 328.41 L 360.00 328.40 L 360.40 328.36 L 360.49 327.92 L 360.61 327.83 L 360.81 326.97 L 360.94 326.96 L 361.10 326.59 L 361.19 326.63 L 361.23 326.63 L 361.28 326.16 L 361.40 326.08 L 361.41 325.75 L 361.46 325.71 L 361.56 325.68 L 361.62 325.51 L 361.71 327.45 L 361.82 327.42 L 362.05 326.64 L 362.15 326.47 L 362.24 326.30 L 362.82 325.99 L 363.31 325.66 L 363.90 325.21 L 364.05 325.16 L 364.22 325.16 L 364.40 325.12 L 367.85 324.89 L 368.14 324.87 L 400.79 324.26 L 503.62 324.24 L 503.96 323.97 L 504.20 323.93 L 504.43 323.93 L 504.79 323.68 L 504.91 323.40 L 505.01 322.87 L 505.17 322.72 L 505.41 322.77 L 505.60 322.46 L 505.64 322.46 L 505.80 322.36 L 505.84 322.36 L 506.01 321.85 L 506.16 321.06 L 506.63 320.98 L 506.64 320.90 L 506.77 319.87 L 507.22 319.84 L 507.23 319.74 L 507.31 319.68 L 507.42 318.75 L 507.90 318.70 L 507.91 318.57 L 508.01 318.51 L 508.12 317.90 L 508.30 317.88 L 508.32 317.78 L 508.39 316.77 L 508.41 316.74 L 508.45 316.71 L 508.65 316.71 L 508.68 316.61 L 508.75 316.53 L 508.97 316.44 L 509.01 316.43 L 509.18 316.38 L 509.47 316.42 L 509.51 316.37 L 509.55 316.35 L 509.60 316.32 L 509.74 315.27 L 509.89 315.25 L 509.92 315.16 L 510.00 314.08 L 510.09 313.69 L 510.11 313.55 L 510.20 313.03 L 510.24 312.12 L 510.42 312.11 L 510.44 312.05 L 510.53 311.87 L 510.65 311.86 L 511.39 311.83 L 511.76 311.81 L 519.79 311.85 L 519.88 311.65 L 519.95 311.49 L 520.09 310.77 L 520.39 310.76 L 520.42 310.68 L 520.47 309.77 L 520.66 309.76 L 520.68 309.67 L 522.44 309.58 L 522.54 309.25 L 523.43 309.09 L 523.53 309.05 L 523.63 308.03 L 524.69 307.74 L 525.15 307.50 L 525.26 306.73 L 525.64 306.73 L 525.88 306.30 L 526.28 305.65 L 526.98 305.25 L 537.73 305.25 L 538.38 305.23 L 538.41 305.23 L 539.31 305.09 L 539.35 305.00 L 539.67 304.94 L 540.03 304.09 L 540.03 304.09 L 540.07 304.05 L 540.55 303.87 L 541.66 303.30 L 541.73 303.24 L 541.84 303.24 L 542.01 303.00 L 542.06 302.96 L 542.12 302.92 L 542.63 302.91 L 543.05 302.91 L 543.27 302.91 L 543.30 302.88 L 543.76 302.01 L 544.11 301.93 L 544.13 301.86 L 544.17 301.78 L 544.22 301.57 L 555.89 301.40 L 555.91 301.38 L 555.94 301.37 L 556.17 301.26 L 556.35 301.15 L 557.37 300.66 L 557.63 300.56 L 558.37 300.19 L 559.01 300.13 L 559.48 299.98 L 559.61 298.70 L 560.20 298.49 L 560.42 298.42 L 560.50 297.50 L 562.22 296.61 L 562.24 296.61 L 562.34 296.20 L 562.66 296.16 L 562.67 296.16 L 562.69 296.06 L 562.75 295.95 L 562.89 295.85 L 563.08 295.23 L 564.87 294.90 L 565.10 294.75 L 565.27 294.40 L 565.29 294.37 L 565.32 294.15 L 573.27 293.34 L 573.53 292.76 L 573.68 292.74 L 573.73 292.35 L 574.48 292.19 L 574.64 291.77 L 574.78 291.77 L 574.87 290.92 L 575.12 290.71 L 575.16 290.69 L 575.49 290.64 L 575.57 289.93 L 575.85 289.84 L 575.91 289.29 L 576.15 289.23 L 576.32 288.91 L 576.46 288.29 L 576.76 288.17 L 576.79 287.53 L 577.17 288.96 L 577.21 288.96 L 577.27 288.15 L 577.35 288.15 L 577.39 288.09 L 577.83 288.01 L 578.47 287.67 L 578.79 287.84 L 579.85 287.82 L 579.87 287.81 L 580.03 287.80 L 580.11 287.78 L 580.22 287.67 L 580.35 287.57 L 580.49 287.42 L 580.81 287.22 L 581.11 287.20 L 582.05 287.11 L 582.09 287.10 L 583.03 286.99 L 583.44 286.93 L 591.48 286.89 L 591.88 286.85 L 592.08 286.85 L 592.17 286.85 L 592.20 286.85 L 592.40 286.83 L 592.49 286.80 L 592.73 286.65 L 592.87 286.63 L 593.40 286.62 L 593.67 286.54 L 594.12 286.51 L 594.25 286.48 L 594.40 286.41 L 594.60 286.32 L 595.29 286.28 L 595.36 286.27 L 596.37 286.11 L 596.53 285.86 L 596.73 285.77 L 597.22 285.61 L 597.45 285.53 L 597.57 285.89 L 597.67 285.88 L 597.80 285.74 L 598.23 285.41 L 598.69 285.32 L 599.09 285.25 L 599.14 285.21 L 599.19 284.97 L 628.27 284.92 L 628.46 284.85 L 645.19 284.78 L 645.27 285.14 L 645.41 283.70 L 645.43 283.70 L 645.48 283.73 L 646.07 283.18 L 646.14 283.15 L 646.88 283.21 L 647.63 283.15 L 647.89 283.10 L 648.36 283.05 L 648.98 282.89 L 648.99 282.89 L 649.08 282.87 L 649.32 282.82 L 649.40 282.71 L 650.00 282.63"/>
	</g>
	<g class="poloto_legend poloto_imgs poloto_line poloto0 poloto_stroke"><line x1="680" x2="730" y1="81.25" y2="81.25"/></g>
	<g class="poloto_legend poloto_imgs poloto_line poloto1 poloto_stroke"><line x1="680" x2="730" y1="131.25" y2="131.25"/></g>
	<g class="poloto_legend poloto_imgs poloto_line poloto2 poloto_stroke"><line x1="680" x2="730" y1="181.25" y2="181.25"/></g>
	<text class="poloto_legend poloto_text poloto_line poloto0" x="675" y="100">total</text>
	<text class="poloto_legend poloto_text poloto_line poloto1" x="675" y="150">code</text>
	<text class="poloto_legend poloto_text poloto_line poloto2" x="675" y="200">docs</text>
	<text class="poloto_text poloto_name poloto_title" x="400.00" y="37.50">Workspace lines over time</text>
	<text class="poloto_text poloto_name poloto_x" x="400.00" y="640">date (JST)</text>
	<text class="poloto_text poloto_name poloto_y" x="37.50" y="250.00" transform="rotate(-90,37.50,250.00)">lines</text>
	<text class="poloto_text poloto_ticks poloto_y">
		<tspan x="135.00" y="400.00">0</tspan>
		<tspan x="135.00" y="324.53">50K</tspan>
		<tspan x="135.00" y="249.05">100K</tspan>
		<tspan x="135.00" y="173.58">150K</tspan>
	</text>
	<g class="poloto_imgs poloto_ticks poloto_y" stroke="black">
		<line x1="150.00" x2="144.00" y1="400.00" y2="400.00"/>
		<line x1="150.00" x2="144.00" y1="324.53" y2="324.53"/>
		<line x1="150.00" x2="144.00" y1="249.05" y2="249.05"/>
		<line x1="150.00" x2="144.00" y1="173.58" y2="173.58"/>
	</g>
	<g class="poloto_text poloto_ticks poloto_x">
		<text x="217.22" y="430.00" text-anchor="end" transform="rotate(-90 217.22 430.00)">2026-04-24 12:06</text>
		<text x="320.70" y="430.00" text-anchor="end" transform="rotate(-90 320.70 430.00)">2026-04-30 07:00</text>
		<text x="424.17" y="430.00" text-anchor="end" transform="rotate(-90 424.17 430.00)">2026-05-06 01:53</text>
		<text x="527.65" y="430.00" text-anchor="end" transform="rotate(-90 527.65 430.00)">2026-05-11 20:46</text>
		<text x="631.12" y="430.00" text-anchor="end" transform="rotate(-90 631.12 430.00)">2026-05-17 15:40</text>
	</g>
	<g class="poloto_imgs poloto_ticks poloto_x" stroke="black">
		<line x1="217.22" x2="217.22" y1="400.00" y2="405.00"/>
		<line x1="320.70" x2="320.70" y1="400.00" y2="405.00"/>
		<line x1="424.17" x2="424.17" y1="400.00" y2="405.00"/>
		<line x1="527.65" x2="527.65" y1="400.00" y2="405.00"/>
		<line x1="631.12" x2="631.12" y1="400.00" y2="405.00"/>
	</g>
	<path class="poloto_imgs poloto_ticks poloto_x" stroke="black" style="stroke-dasharray:10.347446560612237;stroke-dashoffset:-67.22177268314408;" d=" M 150.00 400.00 L 650.00 400.00"/>
	<path class="poloto_imgs poloto_ticks poloto_y" stroke="black" style="stroke-dasharray:7.5473976572877675;stroke-dashoffset:-0;" d=" M 150.00 400.00 L 150.00 100.00"/>
</svg>

