<svg class="poloto" width="800" height="680" viewBox="0 0 800 680" xmlns="http://www.w3.org/2000/svg">
	<style>
.poloto{
  stroke-linecap:round;
  stroke-linejoin:round;
  font-family:Roboto,sans-serif;
  font-size:16px;
}
.poloto_background{fill:AliceBlue;}
.poloto_scatter{stroke-width:7}
.poloto_line{stroke-width:2}
.poloto_text{fill: black;}
.poloto_name{font-size:24px;dominant-baseline:auto;text-anchor:middle;}
.poloto_where{dominant-baseline:middle;text-anchor:start}
.poloto_text.poloto_legend{font-size:20px;dominant-baseline:middle;text-anchor:start;}
.poloto_text.poloto_ticks.poloto_y{dominant-baseline:middle;text-anchor:end}
.poloto_text.poloto_ticks.poloto_x{dominant-baseline:auto;text-anchor:middle}
.poloto_imgs.poloto_ticks{stroke: black;stroke-width:3;fill:none;stroke-dasharray:none}
.poloto_grid{stroke:gray;stroke-width:0.5}

.poloto0.poloto_stroke{stroke:blue;}
.poloto1.poloto_stroke{stroke:red;}
.poloto2.poloto_stroke{stroke:green;}
.poloto3.poloto_stroke{stroke:gold;}
.poloto4.poloto_stroke{stroke:aqua;}
.poloto5.poloto_stroke{stroke:lime;}
.poloto6.poloto_stroke{stroke:orange;}
.poloto7.poloto_stroke{stroke:chocolate;}
.poloto0.poloto_fill{fill:blue;}
.poloto1.poloto_fill{fill:red;}
.poloto2.poloto_fill{fill:green;}
.poloto3.poloto_fill{fill:gold;}
.poloto4.poloto_fill{fill:aqua;}
.poloto5.poloto_fill{fill:lime;}
.poloto6.poloto_fill{fill:orange;}
.poloto7.poloto_fill{fill:chocolate;}
	</style>
	<circle r="1e5" class="poloto_background" fill="white"/>
	<g id="poloto_plot0" class="poloto_plot poloto_imgs poloto_line poloto0 poloto_stroke" fill="none" stroke="black">
		<path d=" M 150.00 369.10 L 150.03 369.08 L 150.05 369.06 L 150.06 369.06 L 150.08 369.06 L 150.11 365.71 L 150.24 365.30 L 150.52 365.29 L 150.94 365.01 L 151.15 363.30 L 151.58 363.20 L 151.66 363.11 L 151.71 363.07 L 152.21 362.24 L 153.15 361.56 L 153.44 358.93 L 153.52 358.94 L 154.09 358.83 L 154.74 358.82 L 154.74 358.82 L 154.75 358.82 L 163.54 358.82 L 163.60 358.81 L 163.72 358.79 L 163.76 358.76 L 164.10 358.61 L 164.25 358.57 L 164.62 358.33 L 164.68 358.22 L 164.78 357.98 L 164.89 357.95 L 164.93 357.94 L 165.02 357.88 L 165.12 357.88 L 165.21 357.88 L 165.46 357.49 L 165.67 357.25 L 165.71 357.25 L 165.82 357.11 L 166.52 357.71 L 166.53 357.71 L 166.62 357.61 L 167.02 357.16 L 167.34 356.62 L 167.70 356.39 L 167.77 356.34 L 167.78 356.35 L 167.85 356.14 L 167.99 356.14 L 168.16 356.06 L 168.51 355.86 L 168.53 355.55 L 168.59 355.55 L 168.68 355.38 L 168.88 355.38 L 168.89 355.38 L 169.10 354.93 L 169.18 354.91 L 169.26 354.87 L 169.34 354.69 L 170.41 354.45 L 170.67 354.40 L 171.26 354.08 L 171.39 354.08 L 171.48 354.07 L 171.54 353.84 L 171.94 352.51 L 172.13 352.48 L 172.34 352.04 L 172.44 351.99 L 172.69 351.62 L 172.80 351.49 L 172.95 351.25 L 173.08 351.04 L 173.56 347.98 L 173.57 347.90 L 173.59 347.72 L 173.75 346.24 L 181.91 346.14 L 182.75 344.46 L 182.78 344.42 L 183.78 344.15 L 183.87 344.15 L 183.96 343.81 L 184.20 343.65 L 184.31 343.36 L 184.35 343.11 L 184.48 342.67 L 184.77 342.66 L 184.78 342.36 L 184.89 342.03 L 185.01 342.03 L 185.13 341.66 L 185.29 341.40 L 185.35 341.26 L 185.37 341.26 L 185.51 340.97 L 185.54 340.96 L 185.69 340.68 L 185.72 340.67 L 185.95 339.28 L 185.99 339.28 L 186.07 339.05 L 186.17 339.04 L 186.30 339.04 L 186.36 339.01 L 186.82 338.75 L 186.83 338.76 L 186.92 338.14 L 187.12 338.13 L 187.31 337.20 L 187.36 337.12 L 187.45 337.12 L 187.49 337.08 L 187.60 336.37 L 188.11 330.35 L 188.16 330.06 L 188.34 330.03 L 188.39 329.96 L 188.43 329.94 L 188.51 329.78 L 188.59 329.10 L 188.78 328.96 L 188.90 328.94 L 189.00 328.64 L 189.06 328.63 L 189.52 328.41 L 189.77 328.24 L 189.85 327.97 L 190.06 327.96 L 190.08 327.96 L 190.10 327.93 L 190.24 326.48 L 190.35 326.40 L 190.72 324.94 L 190.79 324.52 L 190.86 324.50 L 190.96 324.35 L 190.97 324.24 L 191.01 324.17 L 191.05 324.13 L 191.10 324.12 L 191.15 324.05 L 191.30 322.85 L 191.41 322.68 L 191.52 322.33 L 191.67 322.30 L 191.83 322.19 L 192.00 321.35 L 192.11 320.18 L 192.35 320.11 L 192.35 319.68 L 192.49 319.53 L 203.88 319.53 L 204.10 319.52 L 204.64 318.90 L 204.75 318.89 L 204.84 318.89 L 204.85 318.73 L 205.05 318.54 L 205.18 318.51 L 205.26 318.39 L 205.34 318.31 L 205.39 318.27 L 205.59 318.21 L 206.00 318.14 L 206.11 317.82 L 206.18 317.74 L 206.28 317.73 L 206.81 317.57 L 206.88 317.48 L 206.92 317.48 L 206.95 317.36 L 207.07 317.30 L 207.16 317.19 L 207.54 316.40 L 208.09 316.28 L 208.29 316.23 L 208.90 316.03 L 209.19 312.25 L 209.29 312.17 L 209.42 311.80 L 209.59 311.30 L 209.87 311.16 L 210.26 311.14 L 210.77 311.13 L 210.85 310.97 L 211.23 310.79 L 211.47 310.52 L 211.55 310.41 L 211.70 310.36 L 211.81 310.03 L 213.16 309.66 L 214.44 309.66 L 225.90 309.62 L 225.98 309.46 L 226.04 309.35 L 226.40 309.19 L 227.47 307.88 L 227.52 307.80 L 227.67 307.46 L 228.19 307.38 L 228.44 306.49 L 228.82 306.49 L 228.91 306.47 L 228.99 305.87 L 229.66 302.43 L 229.74 302.42 L 229.88 302.39 L 230.03 302.35 L 230.10 301.98 L 230.47 300.68 L 230.60 300.44 L 230.66 300.42 L 230.74 299.82 L 230.91 298.98 L 230.98 298.08 L 231.14 297.68 L 231.64 293.21 L 231.69 292.76 L 231.74 292.76 L 231.81 292.67 L 231.94 292.56 L 231.98 292.52 L 232.03 292.47 L 232.27 291.40 L 232.33 290.64 L 232.62 290.49 L 232.79 289.37 L 232.90 288.66 L 233.79 278.23 L 233.89 278.20 L 267.58 277.70 L 267.61 277.70 L 280.49 277.56 L 281.19 277.27 L 281.33 277.27 L 281.52 277.19 L 281.58 277.06 L 281.66 277.02 L 287.24 276.95 L 287.98 274.97 L 288.25 274.79 L 288.40 274.06 L 291.88 273.91 L 291.90 273.71 L 292.12 273.69 L 293.16 272.44 L 293.22 272.22 L 293.35 272.14 L 293.71 272.05 L 293.76 272.02 L 293.91 271.64 L 294.06 271.54 L 294.09 271.26 L 304.91 270.88 L 304.99 269.81 L 305.42 269.57 L 305.43 267.78 L 305.50 267.52 L 305.59 267.08 L 305.71 265.85 L 305.90 265.19 L 306.05 264.43 L 306.19 264.42 L 306.25 263.83 L 306.47 263.78 L 307.21 260.90 L 307.51 260.59 L 307.57 260.41 L 307.63 260.41 L 307.67 260.21 L 307.77 259.50 L 308.08 259.16 L 308.12 259.12 L 308.31 256.58 L 308.38 256.57 L 308.41 256.30 L 308.48 256.09 L 308.52 256.09 L 308.56 255.71 L 308.80 254.34 L 308.91 253.95 L 309.04 253.90 L 309.13 250.23 L 309.17 249.94 L 309.40 247.84 L 309.47 247.68 L 309.52 247.68 L 309.58 247.67 L 309.61 247.38 L 309.65 247.39 L 309.66 247.38 L 309.78 243.68 L 309.82 243.36 L 309.94 243.34 L 310.02 243.27 L 310.27 243.17 L 310.56 243.03 L 310.58 243.03 L 310.66 242.98 L 310.93 242.91 L 311.07 242.91 L 311.20 242.91 L 311.34 241.30 L 311.43 240.91 L 311.81 240.91 L 311.85 240.65 L 311.89 240.65 L 311.93 240.37 L 312.18 238.04 L 312.22 237.98 L 312.40 237.97 L 329.05 237.90 L 330.00 237.78 L 330.03 237.78 L 330.22 237.78 L 330.23 237.78 L 330.35 237.32 L 330.45 237.30 L 330.52 237.07 L 330.64 237.01 L 330.67 236.98 L 330.72 236.96 L 330.89 236.70 L 331.26 236.47 L 331.48 235.72 L 331.74 235.00 L 331.75 234.97 L 331.79 234.30 L 331.83 234.28 L 332.32 233.88 L 332.33 233.83 L 332.41 233.30 L 332.62 233.25 L 332.76 233.20 L 332.79 232.25 L 332.80 232.20 L 332.85 233.10 L 332.89 232.55 L 332.91 232.53 L 333.03 231.26 L 333.04 231.23 L 333.31 231.12 L 334.02 231.11 L 334.18 231.06 L 334.24 231.05 L 334.27 230.88 L 334.31 230.88 L 334.41 230.26 L 345.79 229.05 L 345.81 228.89 L 345.91 228.77 L 345.94 228.54 L 346.00 217.98 L 346.13 213.66 L 346.14 213.63 L 346.35 213.55 L 346.40 213.55 L 346.43 213.05 L 346.62 213.00 L 347.11 211.98 L 347.12 211.96 L 347.25 211.65 L 347.29 211.65 L 347.32 211.14 L 347.73 210.54 L 347.74 210.52 L 348.37 210.29 L 348.44 209.75 L 348.66 209.76 L 348.92 208.40 L 348.99 207.86 L 349.03 207.43 L 349.15 206.90 L 349.47 206.71 L 349.53 206.58 L 349.67 206.46 L 349.82 206.46 L 350.30 206.47 L 350.36 206.47 L 350.47 206.44 L 350.48 206.44 L 350.63 206.45 L 350.99 206.43 L 351.36 206.23 L 351.42 206.23 L 351.50 206.15 L 351.61 206.00 L 351.89 206.00 L 352.38 205.81 L 352.53 205.39 L 352.79 201.75 L 353.84 204.83 L 354.07 204.81 L 354.24 204.80 L 354.50 204.79 L 354.58 204.74 L 354.84 204.56 L 355.25 204.31 L 355.31 204.15 L 355.38 204.08 L 355.43 204.09 L 355.47 204.04 L 355.80 203.81 L 363.34 203.81 L 363.41 203.81 L 363.88 203.80 L 363.92 203.78 L 364.03 203.32 L 364.12 203.06 L 364.13 203.06 L 364.39 203.02 L 364.45 202.99 L 366.00 202.31 L 366.18 202.25 L 366.31 202.24 L 366.34 202.23 L 366.82 202.07 L 366.98 202.15 L 367.01 202.15 L 367.27 202.10 L 367.55 200.66 L 367.58 200.65 L 367.82 200.49 L 367.92 200.49 L 368.00 200.49 L 368.20 200.33 L 368.62 199.75 L 368.70 199.73 L 368.78 199.57 L 368.95 198.88 L 369.36 198.17 L 369.73 194.82 L 369.81 194.41 L 370.18 194.25 L 370.25 194.16 L 370.31 194.00 L 370.35 193.46 L 370.48 192.50 L 370.51 192.54 L 370.57 192.52 L 370.79 192.52 L 371.11 192.16 L 371.32 192.10 L 371.55 192.08 L 371.66 192.07 L 371.89 192.06 L 372.27 192.06 L 372.65 192.05 L 372.94 192.05 L 373.00 192.03 L 373.08 192.03 L 373.08 191.91 L 373.30 191.84 L 373.37 191.83 L 373.46 191.68 L 374.08 191.66 L 374.09 191.37 L 374.26 191.36 L 374.98 191.36 L 375.46 191.19 L 375.81 190.97 L 375.82 190.86 L 375.85 190.85 L 386.41 190.65 L 386.44 190.65 L 386.57 190.64 L 386.62 190.47 L 386.66 190.45 L 386.67 190.44 L 387.12 190.40 L 387.22 189.79 L 387.35 189.65 L 387.58 188.46 L 387.72 188.45 L 387.90 187.94 L 388.01 188.00 L 388.05 188.00 L 388.11 187.42 L 388.24 187.02 L 388.26 186.60 L 388.30 186.54 L 388.42 186.51 L 388.49 186.31 L 388.59 188.59 L 388.71 188.55 L 388.97 187.64 L 389.09 187.41 L 389.19 187.22 L 389.84 185.92 L 390.39 185.28 L 391.06 184.08 L 391.23 184.02 L 391.42 184.02 L 391.63 183.96 L 395.51 183.62 L 395.83 183.59 L 432.64 182.67 L 548.52 182.46 L 548.90 182.09 L 549.17 182.04 L 549.44 182.04 L 549.84 181.33 L 549.98 180.99 L 550.08 180.35 L 550.27 178.51 L 550.54 178.89 L 550.75 178.49 L 550.80 178.48 L 550.98 178.36 L 551.02 178.37 L 551.21 177.69 L 551.38 176.61 L 551.91 175.47 L 551.92 175.38 L 552.07 174.01 L 552.57 170.63 L 552.58 170.52 L 552.68 170.44 L 552.80 169.24 L 553.34 167.61 L 553.35 167.46 L 553.47 167.39 L 553.59 166.58 L 553.80 165.95 L 553.81 165.83 L 553.90 164.59 L 553.91 164.56 L 553.96 164.22 L 554.19 162.02 L 554.22 161.89 L 554.30 161.76 L 554.54 161.47 L 554.59 161.46 L 554.79 161.04 L 555.11 161.09 L 555.16 161.04 L 555.20 161.01 L 555.26 160.97 L 555.42 159.68 L 555.59 158.63 L 555.61 158.54 L 555.71 157.22 L 555.81 155.93 L 555.83 155.77 L 555.93 154.27 L 555.98 153.08 L 556.18 152.28 L 556.21 152.23 L 556.31 151.98 L 556.45 151.96 L 557.28 151.92 L 557.69 151.89 L 566.75 151.94 L 566.84 151.71 L 566.93 151.51 L 567.08 150.63 L 567.42 150.40 L 567.45 150.31 L 567.51 149.14 L 567.73 148.00 L 567.75 147.90 L 569.73 147.83 L 569.85 147.19 L 570.84 147.00 L 570.95 146.95 L 571.07 145.63 L 572.27 144.39 L 572.78 143.92 L 572.91 142.95 L 573.34 141.29 L 573.61 140.82 L 574.05 139.84 L 574.85 139.34 L 586.96 139.34 L 587.69 139.22 L 587.72 139.24 L 588.74 139.05 L 588.79 138.96 L 589.14 138.88 L 589.55 137.80 L 589.56 137.80 L 589.60 137.76 L 590.14 136.52 L 591.39 135.82 L 591.47 135.75 L 591.59 135.74 L 591.78 135.42 L 591.84 135.33 L 591.91 135.27 L 592.49 135.22 L 592.95 135.22 L 593.20 135.22 L 593.24 135.18 L 593.76 134.10 L 594.15 133.89 L 594.17 133.81 L 594.22 133.72 L 594.27 133.43 L 607.42 133.02 L 607.45 133.00 L 607.49 132.98 L 607.74 132.86 L 607.94 132.73 L 609.10 131.07 L 609.39 130.87 L 610.22 130.37 L 610.94 130.25 L 611.47 130.09 L 611.62 128.56 L 612.29 126.76 L 612.53 126.64 L 612.62 125.48 L 614.56 123.35 L 614.58 123.35 L 614.69 122.83 L 615.06 122.77 L 615.06 122.77 L 615.09 122.64 L 615.15 122.48 L 615.32 122.31 L 615.53 121.42 L 617.55 119.26 L 617.81 119.01 L 617.99 118.62 L 618.02 118.57 L 618.06 118.27 L 627.01 117.30 L 627.30 116.56 L 627.47 116.52 L 627.54 116.04 L 628.38 115.81 L 628.56 115.32 L 628.72 115.32 L 628.81 114.28 L 629.09 111.66 L 629.14 111.62 L 629.52 111.57 L 629.60 110.72 L 629.92 109.69 L 629.99 108.98 L 630.26 108.32 L 630.45 107.97 L 630.61 107.19 L 630.94 106.52 L 630.98 105.77 L 631.41 105.60 L 631.45 105.60 L 631.52 104.65 L 631.61 104.65 L 631.65 104.57 L 632.15 102.79 L 632.88 102.21 L 633.24 102.40 L 634.42 102.31 L 634.45 102.31 L 634.64 102.29 L 634.71 102.27 L 634.85 102.15 L 634.99 102.04 L 635.15 101.85 L 635.51 101.59 L 635.85 101.57 L 636.91 101.39 L 636.96 101.38 L 638.02 101.22 L 638.47 101.10 L 647.53 101.09 L 647.99 100.95 L 648.21 100.87 L 648.31 100.87 L 648.34 100.87 L 648.57 100.84 L 648.67 100.78 L 648.94 100.61 L 649.10 100.58 L 649.69 100.40 L 650.00 100.00"/>
	</g>
	<g id="poloto_plot1" class="poloto_plot poloto_imgs poloto_line poloto1 poloto_stroke" fill="none" stroke="black">
		<path d=" M 150.00 381.64 L 150.03 381.63 L 150.05 381.61 L 150.06 381.61 L 150.08 381.61 L 150.11 381.03 L 150.24 381.01 L 150.52 381.00 L 150.94 380.78 L 151.15 380.68 L 151.58 380.71 L 151.66 380.67 L 151.71 380.67 L 152.21 380.62 L 153.15 380.51 L 153.44 378.24 L 153.52 378.24 L 154.09 378.19 L 154.74 378.18 L 154.74 378.18 L 154.75 378.18 L 163.54 378.18 L 163.60 378.18 L 163.72 378.18 L 163.76 378.15 L 164.10 378.13 L 164.25 378.13 L 164.62 378.13 L 164.68 378.13 L 164.78 378.12 L 164.89 378.12 L 164.93 378.12 L 165.02 378.09 L 165.12 378.09 L 165.21 378.09 L 165.46 377.96 L 165.67 377.96 L 165.71 377.96 L 165.82 377.96 L 166.52 378.82 L 166.53 378.82 L 166.62 378.81 L 167.02 378.68 L 167.34 378.54 L 167.70 378.47 L 167.77 378.43 L 167.78 378.43 L 167.85 378.43 L 167.99 378.43 L 168.16 378.37 L 168.51 378.32 L 168.53 378.32 L 168.59 378.32 L 168.68 378.30 L 168.88 378.30 L 168.89 378.30 L 169.10 378.29 L 169.18 378.29 L 169.26 378.29 L 169.34 378.29 L 170.41 378.19 L 170.67 378.18 L 171.26 378.14 L 171.39 378.14 L 171.48 378.14 L 171.54 378.14 L 171.94 378.07 L 172.13 378.07 L 172.34 377.99 L 172.44 377.98 L 172.69 377.80 L 172.80 377.73 L 172.95 377.73 L 173.08 377.73 L 173.56 375.07 L 173.57 375.03 L 173.59 375.03 L 173.75 374.77 L 181.91 374.77 L 182.75 373.63 L 182.78 373.63 L 183.78 373.63 L 183.87 373.62 L 183.96 373.50 L 184.20 373.49 L 184.31 373.49 L 184.35 373.49 L 184.48 373.49 L 184.77 373.49 L 184.78 373.24 L 184.89 373.23 L 185.01 373.23 L 185.13 373.20 L 185.29 373.20 L 185.35 373.20 L 185.37 373.20 L 185.51 373.20 L 185.54 373.20 L 185.69 373.20 L 185.72 373.20 L 185.95 372.07 L 185.99 372.07 L 186.07 371.93 L 186.17 371.93 L 186.30 371.93 L 186.36 371.92 L 186.82 371.92 L 186.83 371.92 L 186.92 371.85 L 187.12 371.85 L 187.31 371.20 L 187.36 371.12 L 187.45 371.12 L 187.49 371.12 L 187.60 371.11 L 188.11 366.37 L 188.16 366.41 L 188.34 366.41 L 188.39 366.41 L 188.43 366.40 L 188.51 366.40 L 188.59 366.33 L 188.78 366.33 L 188.90 366.33 L 189.00 366.33 L 189.06 366.33 L 189.52 366.32 L 189.77 366.31 L 189.85 366.20 L 190.06 366.20 L 190.08 366.20 L 190.10 366.20 L 190.24 365.88 L 190.35 365.79 L 190.72 364.67 L 190.79 364.67 L 190.86 364.67 L 190.96 364.68 L 190.97 364.68 L 191.01 364.68 L 191.05 364.68 L 191.10 364.68 L 191.15 364.68 L 191.30 364.66 L 191.41 364.66 L 191.52 364.65 L 191.67 364.65 L 191.83 364.64 L 192.00 364.22 L 192.11 364.08 L 192.35 364.08 L 192.35 364.07 L 192.49 364.07 L 203.88 364.07 L 204.10 364.07 L 204.64 363.99 L 204.75 363.98 L 204.84 363.98 L 204.85 363.98 L 205.05 363.98 L 205.18 363.98 L 205.26 363.98 L 205.34 363.98 L 205.39 363.98 L 205.59 363.98 L 206.00 364.00 L 206.11 364.00 L 206.18 364.00 L 206.28 364.00 L 206.81 363.91 L 206.88 363.87 L 206.92 363.87 L 206.95 363.81 L 207.07 363.80 L 207.16 363.80 L 207.54 363.37 L 208.09 363.37 L 208.29 363.37 L 208.90 363.37 L 209.19 360.47 L 209.29 360.47 L 209.42 360.47 L 209.59 360.46 L 209.87 360.46 L 210.26 360.46 L 210.77 360.46 L 210.85 360.46 L 211.23 360.39 L 211.47 360.27 L 211.55 360.27 L 211.70 360.27 L 211.81 360.25 L 213.16 360.07 L 214.44 360.07 L 225.90 360.07 L 225.98 360.07 L 226.04 360.07 L 226.40 360.07 L 227.47 359.15 L 227.52 359.12 L 227.67 359.03 L 228.19 359.02 L 228.44 358.81 L 228.82 358.81 L 228.91 358.81 L 228.99 358.81 L 229.66 356.26 L 229.74 356.26 L 229.88 356.26 L 230.03 356.26 L 230.10 356.10 L 230.47 355.79 L 230.60 355.79 L 230.66 355.79 L 230.74 355.32 L 230.91 354.85 L 230.98 354.85 L 231.14 354.84 L 231.64 351.05 L 231.69 351.05 L 231.74 351.05 L 231.81 351.05 L 231.94 351.05 L 231.98 351.05 L 232.03 351.05 L 232.27 351.05 L 232.33 350.97 L 232.62 350.95 L 232.79 350.90 L 232.90 350.44 L 233.79 342.89 L 233.89 342.89 L 267.58 342.89 L 267.61 342.89 L 280.49 342.89 L 281.19 342.77 L 281.33 342.77 L 281.52 342.77 L 281.58 342.77 L 281.66 342.77 L 287.24 342.71 L 287.98 342.64 L 288.25 342.64 L 288.40 342.62 L 291.88 342.55 L 291.90 342.45 L 292.12 342.45 L 293.16 341.43 L 293.22 341.43 L 293.35 341.43 L 293.71 341.43 L 293.76 341.43 L 293.91 341.43 L 294.06 341.43 L 294.09 341.43 L 304.91 341.41 L 304.99 341.23 L 305.42 341.23 L 305.43 340.00 L 305.50 340.00 L 305.59 340.00 L 305.71 339.88 L 305.90 339.88 L 306.05 339.83 L 306.19 339.83 L 306.25 339.83 L 306.47 339.81 L 307.21 337.72 L 307.51 337.71 L 307.57 337.70 L 307.63 337.70 L 307.67 337.70 L 307.77 337.67 L 308.08 337.41 L 308.12 337.37 L 308.31 335.49 L 308.38 335.48 L 308.41 335.48 L 308.48 335.46 L 308.52 335.46 L 308.56 335.45 L 308.80 334.43 L 308.91 334.42 L 309.04 334.39 L 309.13 331.21 L 309.17 331.21 L 309.40 329.41 L 309.47 329.41 L 309.52 329.41 L 309.58 329.41 L 309.61 329.41 L 309.65 329.41 L 309.66 329.41 L 309.78 326.09 L 309.82 326.09 L 309.94 326.07 L 310.02 326.07 L 310.27 326.01 L 310.56 325.92 L 310.58 325.92 L 310.66 325.90 L 310.93 325.84 L 311.07 325.84 L 311.20 325.84 L 311.34 324.41 L 311.43 324.41 L 311.81 324.41 L 311.85 324.40 L 311.89 324.40 L 311.93 324.40 L 312.18 322.36 L 312.22 322.36 L 312.40 322.35 L 329.05 322.35 L 330.00 322.33 L 330.03 322.33 L 330.22 322.33 L 330.23 322.33 L 330.35 322.33 L 330.45 322.33 L 330.52 322.23 L 330.64 322.23 L 330.67 322.23 L 330.72 322.23 L 330.89 322.05 L 331.26 321.93 L 331.48 321.81 L 331.74 321.23 L 331.75 321.23 L 331.79 321.08 L 331.83 321.07 L 332.32 320.72 L 332.33 320.72 L 332.41 320.66 L 332.62 320.66 L 332.76 320.63 L 332.79 319.78 L 332.80 319.78 L 332.85 320.62 L 332.89 320.57 L 332.91 320.56 L 333.03 319.42 L 333.04 319.42 L 333.31 319.38 L 334.02 319.38 L 334.18 319.38 L 334.24 319.38 L 334.27 319.38 L 334.31 319.38 L 334.41 319.30 L 345.79 318.36 L 345.81 318.36 L 345.91 318.35 L 345.94 318.15 L 346.00 308.07 L 346.13 304.32 L 346.14 304.32 L 346.35 304.25 L 346.40 304.25 L 346.43 304.23 L 346.62 304.23 L 347.11 303.32 L 347.12 303.32 L 347.25 303.27 L 347.29 303.27 L 347.32 303.19 L 347.73 302.64 L 347.74 302.64 L 348.37 302.53 L 348.44 302.49 L 348.66 302.50 L 348.92 301.26 L 348.99 301.14 L 349.03 301.02 L 349.15 300.56 L 349.47 300.44 L 349.53 300.34 L 349.67 300.34 L 349.82 300.34 L 350.30 300.34 L 350.36 300.34 L 350.47 300.34 L 350.48 300.34 L 350.63 300.36 L 350.99 300.36 L 351.36 300.23 L 351.42 300.23 L 351.50 300.21 L 351.61 300.21 L 351.89 300.21 L 352.38 300.21 L 352.53 300.10 L 352.79 296.85 L 353.84 299.92 L 354.07 299.90 L 354.24 299.90 L 354.50 299.90 L 354.58 299.86 L 354.84 299.84 L 355.25 299.65 L 355.31 299.65 L 355.38 299.65 L 355.43 299.65 L 355.47 299.65 L 355.80 299.48 L 363.34 299.48 L 363.41 299.48 L 363.88 299.47 L 363.92 299.47 L 364.03 299.44 L 364.12 299.21 L 364.13 299.20 L 364.39 299.18 L 364.45 299.18 L 366.00 298.99 L 366.18 298.99 L 366.31 298.99 L 366.34 298.99 L 366.82 298.86 L 366.98 298.86 L 367.01 298.86 L 367.27 298.86 L 367.55 298.09 L 367.58 298.09 L 367.82 297.96 L 367.92 297.96 L 368.00 297.96 L 368.20 297.96 L 368.62 297.94 L 368.70 297.93 L 368.78 297.85 L 368.95 297.72 L 369.36 297.60 L 369.73 294.53 L 369.81 294.43 L 370.18 294.28 L 370.25 294.25 L 370.31 294.14 L 370.35 293.92 L 370.48 293.01 L 370.51 293.04 L 370.57 293.03 L 370.79 293.02 L 371.11 292.90 L 371.32 292.85 L 371.55 292.83 L 371.66 292.82 L 371.89 292.81 L 372.27 292.81 L 372.65 292.80 L 372.94 292.80 L 373.00 292.79 L 373.08 292.79 L 373.08 292.79 L 373.30 292.79 L 373.37 292.78 L 373.46 292.66 L 374.08 292.65 L 374.09 292.65 L 374.26 292.63 L 374.98 292.63 L 375.46 292.48 L 375.81 292.35 L 375.82 292.35 L 375.85 292.35 L 386.41 292.35 L 386.44 292.35 L 386.57 292.35 L 386.62 292.35 L 386.66 292.33 L 386.67 292.33 L 387.12 292.33 L 387.22 292.32 L 387.35 292.30 L 387.58 292.28 L 387.72 292.28 L 387.90 292.20 L 388.01 292.20 L 388.05 292.20 L 388.11 292.20 L 388.24 291.92 L 388.26 291.92 L 388.30 291.92 L 388.42 291.92 L 388.49 291.92 L 388.59 291.99 L 388.71 291.99 L 388.97 291.98 L 389.09 291.98 L 389.19 291.98 L 389.84 291.08 L 390.39 290.83 L 391.06 290.19 L 391.23 290.19 L 391.42 290.19 L 391.63 290.19 L 395.51 290.11 L 395.83 290.11 L 432.64 289.99 L 548.52 289.82 L 548.90 289.77 L 549.17 289.77 L 549.44 289.77 L 549.84 289.35 L 549.98 289.35 L 550.08 289.35 L 550.27 287.84 L 550.54 288.12 L 550.75 288.10 L 550.80 288.10 L 550.98 288.09 L 551.02 288.09 L 551.21 288.09 L 551.38 288.02 L 551.91 287.06 L 551.92 287.06 L 552.07 286.98 L 552.57 283.88 L 552.58 283.88 L 552.68 283.88 L 552.80 283.83 L 553.34 282.39 L 553.35 282.39 L 553.47 282.39 L 553.59 282.36 L 553.80 281.83 L 553.81 281.83 L 553.90 281.82 L 553.91 281.82 L 553.96 281.53 L 554.19 279.48 L 554.22 279.48 L 554.30 279.48 L 554.54 279.31 L 554.59 279.31 L 554.79 278.98 L 555.11 278.98 L 555.16 278.98 L 555.20 278.98 L 555.26 278.98 L 555.42 278.97 L 555.59 278.04 L 555.61 278.04 L 555.71 278.04 L 555.81 277.34 L 555.83 277.34 L 555.93 276.60 L 555.98 276.55 L 556.18 275.82 L 556.21 275.82 L 556.31 275.82 L 556.45 275.81 L 557.28 275.81 L 557.69 275.80 L 566.75 275.80 L 566.84 275.80 L 566.93 275.80 L 567.08 275.80 L 567.42 275.61 L 567.45 275.61 L 567.51 275.55 L 567.73 274.52 L 567.75 274.52 L 569.73 274.54 L 569.85 274.34 L 570.84 274.34 L 570.95 274.34 L 571.07 274.26 L 572.27 273.42 L 572.78 273.26 L 572.91 273.20 L 573.34 271.61 L 573.61 271.61 L 574.05 271.47 L 574.85 271.47 L 586.96 271.47 L 587.69 271.37 L 587.72 271.39 L 588.74 271.39 L 588.79 271.39 L 589.14 271.39 L 589.55 271.36 L 589.56 271.36 L 589.60 271.36 L 590.14 270.43 L 591.39 270.40 L 591.47 270.40 L 591.59 270.40 L 591.78 270.36 L 591.84 270.33 L 591.91 270.33 L 592.49 270.29 L 592.95 270.29 L 593.20 270.29 L 593.24 270.29 L 593.76 270.27 L 594.15 270.16 L 594.17 270.16 L 594.22 270.16 L 594.27 270.16 L 607.42 269.94 L 607.45 269.94 L 607.49 269.94 L 607.74 269.94 L 607.94 269.94 L 609.10 269.02 L 609.39 268.96 L 610.22 268.89 L 610.94 268.84 L 611.47 268.84 L 611.62 268.84 L 612.29 267.45 L 612.53 267.41 L 612.62 267.36 L 614.56 266.38 L 614.58 266.38 L 614.69 266.37 L 615.06 266.36 L 615.06 266.36 L 615.09 266.36 L 615.15 266.33 L 615.32 266.29 L 615.53 266.18 L 617.55 264.56 L 617.81 264.48 L 617.99 264.48 L 618.02 264.48 L 618.06 264.48 L 627.01 264.48 L 627.30 264.47 L 627.47 264.47 L 627.54 264.47 L 628.38 264.47 L 628.56 264.47 L 628.72 264.47 L 628.81 264.44 L 629.09 262.32 L 629.14 262.30 L 629.52 262.31 L 629.60 262.30 L 629.92 261.48 L 629.99 261.43 L 630.26 260.90 L 630.45 260.90 L 630.61 260.85 L 630.94 260.36 L 630.98 260.35 L 631.41 258.78 L 631.45 258.78 L 631.52 258.77 L 631.61 258.77 L 631.65 258.77 L 632.15 257.19 L 632.88 257.05 L 633.24 257.05 L 634.42 257.01 L 634.45 257.01 L 634.64 257.01 L 634.71 257.01 L 634.85 257.01 L 634.99 257.01 L 635.15 256.99 L 635.51 256.97 L 635.85 256.97 L 636.91 256.90 L 636.96 256.90 L 638.02 256.86 L 638.47 256.81 L 647.53 256.83 L 647.99 256.75 L 648.21 256.67 L 648.31 256.67 L 648.34 256.67 L 648.57 256.66 L 648.67 256.66 L 648.94 256.66 L 649.10 256.66 L 649.69 256.51 L 650.00 256.23"/>
	</g>
	<g id="poloto_plot2" class="poloto_plot poloto_imgs poloto_line poloto2 poloto_stroke" fill="none" stroke="black">
		<path d=" M 150.00 391.76 L 150.03 391.76 L 150.05 391.76 L 150.06 391.76 L 150.08 391.76 L 150.11 389.65 L 150.24 389.36 L 150.52 389.35 L 150.94 389.34 L 151.15 388.08 L 151.58 387.97 L 151.66 387.93 L 151.71 387.90 L 152.21 387.33 L 153.15 386.89 L 153.44 386.81 L 153.52 386.81 L 154.09 386.78 L 154.74 386.78 L 154.74 386.78 L 154.75 386.78 L 163.54 386.78 L 163.60 386.77 L 163.72 386.76 L 163.76 386.76 L 164.10 386.63 L 164.25 386.59 L 164.62 386.39 L 164.68 386.30 L 164.78 386.11 L 164.89 386.08 L 164.93 386.08 L 165.02 386.05 L 165.12 386.05 L 165.21 386.05 L 165.46 385.84 L 165.67 385.64 L 165.71 385.64 L 165.82 385.53 L 166.52 385.28 L 166.53 385.27 L 166.62 385.20 L 167.02 384.92 L 167.34 384.57 L 167.70 384.43 L 167.77 384.43 L 167.78 384.44 L 167.85 384.24 L 167.99 384.24 L 168.16 384.22 L 168.51 384.08 L 168.53 383.83 L 168.59 383.83 L 168.68 383.71 L 168.88 383.71 L 168.89 383.71 L 169.10 383.34 L 169.18 383.32 L 169.26 383.28 L 169.34 383.11 L 170.41 383.01 L 170.67 382.97 L 171.26 382.72 L 171.39 382.72 L 171.48 382.70 L 171.54 382.51 L 171.94 381.48 L 172.13 381.47 L 172.34 381.16 L 172.44 381.13 L 172.69 380.99 L 172.80 380.94 L 172.95 380.72 L 173.08 380.54 L 173.56 380.54 L 173.57 380.51 L 173.59 380.37 L 173.75 379.37 L 181.91 379.27 L 182.75 378.97 L 182.78 378.93 L 183.78 378.68 L 183.87 378.67 L 183.96 378.49 L 184.20 378.37 L 184.31 378.14 L 184.35 377.95 L 184.48 377.58 L 184.77 377.57 L 184.78 377.57 L 184.89 377.31 L 185.01 377.31 L 185.13 377.04 L 185.29 376.83 L 185.35 376.71 L 185.37 376.70 L 185.51 376.45 L 185.54 376.45 L 185.69 376.22 L 185.72 376.21 L 185.95 376.13 L 185.99 376.13 L 186.07 376.05 L 186.17 376.03 L 186.30 376.03 L 186.36 376.02 L 186.82 375.79 L 186.83 375.80 L 186.92 375.35 L 187.12 375.34 L 187.31 375.20 L 187.36 375.20 L 187.45 375.19 L 187.49 375.16 L 187.60 374.54 L 188.11 374.02 L 188.16 373.74 L 188.34 373.72 L 188.39 373.64 L 188.43 373.63 L 188.51 373.50 L 188.59 373.01 L 188.78 372.94 L 188.90 372.93 L 189.00 372.68 L 189.06 372.67 L 189.52 372.49 L 189.77 372.36 L 189.85 372.25 L 190.06 372.24 L 190.08 372.24 L 190.10 372.22 L 190.24 371.34 L 190.35 371.33 L 190.72 371.20 L 190.79 370.85 L 190.86 370.84 L 190.96 370.70 L 190.97 370.62 L 191.01 370.56 L 191.05 370.52 L 191.10 370.52 L 191.15 370.45 L 191.30 369.46 L 191.41 369.36 L 191.52 369.06 L 191.67 369.04 L 191.83 368.94 L 192.00 368.63 L 192.11 367.77 L 192.35 367.71 L 192.35 367.34 L 192.49 367.25 L 203.88 367.25 L 204.10 367.25 L 204.64 366.85 L 204.75 366.85 L 204.84 366.85 L 204.85 366.74 L 205.05 366.57 L 205.18 366.54 L 205.26 366.43 L 205.34 366.36 L 205.39 366.32 L 205.59 366.26 L 206.00 366.35 L 206.11 366.07 L 206.18 366.00 L 206.28 365.99 L 206.81 365.94 L 206.88 365.89 L 206.92 365.89 L 206.95 365.84 L 207.07 365.79 L 207.16 365.69 L 207.54 365.44 L 208.09 365.33 L 208.29 365.28 L 208.90 365.12 L 209.19 364.72 L 209.29 364.65 L 209.42 364.34 L 209.59 363.93 L 209.87 363.83 L 210.26 363.82 L 210.77 363.80 L 210.85 363.65 L 211.23 363.55 L 211.47 363.42 L 211.55 363.32 L 211.70 363.28 L 211.81 363.01 L 213.16 362.88 L 214.44 362.88 L 225.90 362.85 L 225.98 362.70 L 226.04 362.61 L 226.40 362.45 L 227.47 362.19 L 227.52 362.15 L 227.67 361.96 L 228.19 361.88 L 228.44 361.36 L 228.82 361.35 L 228.91 361.33 L 228.99 360.82 L 229.66 360.34 L 229.74 360.34 L 229.88 360.31 L 230.03 360.26 L 230.10 360.09 L 230.47 359.29 L 230.60 359.09 L 230.66 359.07 L 230.74 358.99 L 230.91 358.67 L 230.98 357.87 L 231.14 357.55 L 231.64 357.36 L 231.69 356.96 L 231.74 356.96 L 231.81 356.88 L 231.94 356.78 L 231.98 356.75 L 232.03 356.71 L 232.27 355.78 L 232.33 355.22 L 232.62 355.12 L 232.79 354.19 L 232.90 354.02 L 233.79 352.55 L 233.89 352.53 L 267.58 352.10 L 267.61 352.10 L 280.49 351.98 L 281.19 351.83 L 281.33 351.83 L 281.52 351.75 L 281.58 351.63 L 281.66 351.60 L 287.24 351.59 L 287.98 349.91 L 288.25 349.77 L 288.40 349.19 L 291.88 349.12 L 291.90 349.06 L 292.12 349.05 L 293.16 348.95 L 293.22 348.75 L 293.35 348.69 L 293.71 348.60 L 293.76 348.58 L 293.91 348.25 L 294.06 348.15 L 294.09 347.90 L 304.91 347.59 L 304.99 346.82 L 305.42 346.63 L 305.43 346.33 L 305.50 346.11 L 305.59 345.75 L 305.71 344.83 L 305.90 344.32 L 306.05 343.67 L 306.19 343.67 L 306.25 343.16 L 306.47 343.13 L 307.21 342.65 L 307.51 342.43 L 307.57 342.29 L 307.63 342.29 L 307.67 342.12 L 307.77 341.55 L 308.08 341.49 L 308.12 341.49 L 308.31 341.12 L 308.38 341.12 L 308.41 340.90 L 308.48 340.77 L 308.52 340.76 L 308.56 340.47 L 308.80 340.29 L 308.91 339.99 L 309.04 339.98 L 309.13 339.82 L 309.17 339.59 L 309.40 339.47 L 309.47 339.34 L 309.52 339.34 L 309.58 339.34 L 309.61 339.10 L 309.65 339.11 L 309.66 339.11 L 309.78 339.03 L 309.82 338.77 L 309.94 338.77 L 310.02 338.71 L 310.27 338.69 L 310.56 338.66 L 310.58 338.66 L 310.66 338.65 L 310.93 338.64 L 311.07 338.64 L 311.20 338.64 L 311.34 338.60 L 311.43 338.29 L 311.81 338.29 L 311.85 338.11 L 311.89 338.11 L 311.93 337.90 L 312.18 337.83 L 312.22 337.78 L 312.40 337.78 L 329.05 337.73 L 330.00 337.64 L 330.03 337.64 L 330.22 337.64 L 330.23 337.64 L 330.35 337.28 L 330.45 337.27 L 330.52 337.17 L 330.64 337.11 L 330.67 337.08 L 330.72 337.06 L 330.89 337.03 L 331.26 336.96 L 331.48 336.47 L 331.74 336.44 L 331.75 336.41 L 331.79 336.01 L 331.83 336.00 L 332.32 336.00 L 332.33 335.96 L 332.41 335.59 L 332.62 335.54 L 332.76 335.52 L 332.79 335.52 L 332.80 335.47 L 332.85 335.45 L 332.89 335.06 L 332.91 335.05 L 333.03 335.05 L 333.04 335.02 L 333.31 334.98 L 334.02 334.97 L 334.18 334.94 L 334.24 334.93 L 334.27 334.80 L 334.31 334.80 L 334.41 334.37 L 345.79 334.24 L 345.81 334.11 L 345.91 334.03 L 345.94 334.01 L 346.00 333.65 L 346.13 333.55 L 346.14 333.53 L 346.35 333.53 L 346.40 333.53 L 346.43 333.16 L 346.62 333.12 L 347.11 333.10 L 347.12 333.08 L 347.25 332.88 L 347.29 332.89 L 347.32 332.55 L 347.73 332.55 L 347.74 332.53 L 348.37 332.45 L 348.44 332.04 L 348.66 332.04 L 348.92 332.04 L 348.99 331.74 L 349.03 331.51 L 349.15 331.50 L 349.47 331.45 L 349.53 331.43 L 349.67 331.34 L 349.82 331.34 L 350.30 331.34 L 350.36 331.34 L 350.47 331.32 L 350.48 331.32 L 350.63 331.32 L 350.99 331.29 L 351.36 331.25 L 351.42 331.25 L 351.50 331.21 L 351.61 331.10 L 351.89 331.10 L 352.38 330.97 L 352.53 330.74 L 352.79 330.71 L 353.84 330.47 L 354.07 330.47 L 354.24 330.46 L 354.50 330.45 L 354.58 330.44 L 354.84 330.31 L 355.25 330.29 L 355.31 330.18 L 355.38 330.13 L 355.43 330.14 L 355.47 330.10 L 355.80 330.08 L 363.34 330.08 L 363.41 330.08 L 363.88 330.08 L 363.92 330.06 L 364.03 329.73 L 364.12 329.71 L 364.13 329.71 L 364.39 329.70 L 364.45 329.69 L 366.00 329.19 L 366.18 329.13 L 366.31 329.12 L 366.34 329.12 L 366.82 329.11 L 366.98 329.18 L 367.01 329.18 L 367.27 329.14 L 367.55 328.67 L 367.58 328.66 L 367.82 328.65 L 367.92 328.65 L 368.00 328.65 L 368.20 328.55 L 368.62 328.12 L 368.70 328.12 L 368.78 328.06 L 368.95 327.67 L 369.36 327.23 L 369.73 327.26 L 369.81 327.03 L 370.18 327.03 L 370.25 327.00 L 370.31 326.98 L 370.35 326.75 L 370.48 326.75 L 370.51 326.75 L 370.57 326.75 L 370.79 326.75 L 371.11 326.56 L 371.32 326.54 L 371.55 326.54 L 371.66 326.54 L 371.89 326.54 L 372.27 326.54 L 372.65 326.54 L 372.94 326.54 L 373.00 326.54 L 373.08 326.53 L 373.08 326.45 L 373.30 326.39 L 373.37 326.39 L 373.46 326.38 L 374.08 326.38 L 374.09 326.16 L 374.26 326.16 L 374.98 326.16 L 375.46 326.15 L 375.81 326.11 L 375.82 326.02 L 375.85 326.02 L 386.41 325.87 L 386.44 325.86 L 386.57 325.85 L 386.62 325.72 L 386.66 325.72 L 386.67 325.71 L 387.12 325.66 L 387.22 325.21 L 387.35 325.11 L 387.58 324.22 L 387.72 324.21 L 387.90 323.83 L 388.01 323.87 L 388.05 323.87 L 388.11 323.38 L 388.24 323.30 L 388.26 322.96 L 388.30 322.91 L 388.42 322.88 L 388.49 322.71 L 388.59 324.71 L 388.71 324.68 L 388.97 323.87 L 389.09 323.70 L 389.19 323.52 L 389.84 323.20 L 390.39 322.86 L 391.06 322.39 L 391.23 322.34 L 391.42 322.34 L 391.63 322.30 L 395.51 322.06 L 395.83 322.04 L 432.64 321.41 L 548.52 321.39 L 548.90 321.11 L 549.17 321.06 L 549.44 321.06 L 549.84 320.81 L 549.98 320.51 L 550.08 319.96 L 550.27 319.81 L 550.54 319.86 L 550.75 319.54 L 550.80 319.54 L 550.98 319.44 L 551.02 319.44 L 551.21 318.90 L 551.38 318.08 L 551.91 318.00 L 551.92 317.92 L 552.07 316.86 L 552.57 316.82 L 552.58 316.71 L 552.68 316.65 L 552.80 315.69 L 553.34 315.64 L 553.35 315.50 L 553.47 315.44 L 553.59 314.81 L 553.80 314.79 L 553.81 314.68 L 553.90 313.63 L 553.91 313.61 L 553.96 313.58 L 554.19 313.58 L 554.22 313.47 L 554.30 313.39 L 554.54 313.29 L 554.59 313.29 L 554.79 313.23 L 555.11 313.27 L 555.16 313.22 L 555.20 313.20 L 555.26 313.17 L 555.42 312.08 L 555.59 312.06 L 555.61 311.96 L 555.71 310.85 L 555.81 310.44 L 555.83 310.30 L 555.93 309.75 L 555.98 308.81 L 556.18 308.80 L 556.21 308.74 L 556.31 308.55 L 556.45 308.54 L 557.28 308.51 L 557.69 308.49 L 566.75 308.53 L 566.84 308.32 L 566.93 308.16 L 567.08 307.41 L 567.42 307.40 L 567.45 307.32 L 567.51 306.37 L 567.73 306.36 L 567.75 306.27 L 569.73 306.17 L 569.85 305.83 L 570.84 305.66 L 570.95 305.63 L 571.07 304.57 L 572.27 304.27 L 572.78 304.02 L 572.91 303.22 L 573.34 303.22 L 573.61 302.77 L 574.05 302.09 L 574.85 301.68 L 586.96 301.68 L 587.69 301.66 L 587.72 301.66 L 588.74 301.51 L 588.79 301.43 L 589.14 301.36 L 589.55 300.48 L 589.56 300.48 L 589.60 300.44 L 590.14 300.25 L 591.39 299.66 L 591.47 299.60 L 591.59 299.59 L 591.78 299.34 L 591.84 299.31 L 591.91 299.26 L 592.49 299.26 L 592.95 299.26 L 593.20 299.26 L 593.24 299.22 L 593.76 298.32 L 594.15 298.24 L 594.17 298.16 L 594.22 298.08 L 594.27 297.86 L 607.42 297.69 L 607.45 297.67 L 607.49 297.65 L 607.74 297.54 L 607.94 297.43 L 609.10 296.92 L 609.39 296.82 L 610.22 296.43 L 610.94 296.37 L 611.47 296.21 L 611.62 294.89 L 612.29 294.66 L 612.53 294.60 L 612.62 293.64 L 614.56 292.72 L 614.58 292.72 L 614.69 292.29 L 615.06 292.25 L 615.06 292.25 L 615.09 292.15 L 615.15 292.03 L 615.32 291.93 L 615.53 291.28 L 617.55 290.94 L 617.81 290.79 L 617.99 290.43 L 618.02 290.39 L 618.06 290.16 L 627.01 289.32 L 627.30 288.72 L 627.47 288.70 L 627.54 288.30 L 628.38 288.13 L 628.56 287.70 L 628.72 287.70 L 628.81 286.81 L 629.09 286.60 L 629.14 286.57 L 629.52 286.52 L 629.60 285.78 L 629.92 285.69 L 629.99 285.12 L 630.26 285.06 L 630.45 284.72 L 630.61 284.08 L 630.94 283.95 L 630.98 283.30 L 631.41 284.78 L 631.45 284.78 L 631.52 283.94 L 631.61 283.94 L 631.65 283.87 L 632.15 283.79 L 632.88 283.44 L 633.24 283.62 L 634.42 283.59 L 634.45 283.59 L 634.64 283.57 L 634.71 283.56 L 634.85 283.44 L 634.99 283.33 L 635.15 283.18 L 635.51 282.97 L 635.85 282.95 L 636.91 282.85 L 636.96 282.84 L 638.02 282.73 L 638.47 282.67 L 647.53 282.63 L 647.99 282.59 L 648.21 282.59 L 648.31 282.59 L 648.34 282.59 L 648.57 282.57 L 648.67 282.54 L 648.94 282.38 L 649.10 282.36 L 649.69 282.35 L 650.00 282.27"/>
	</g>
	<g class="poloto_legend poloto_imgs poloto_line poloto0 poloto_stroke"><line x1="680" x2="730" y1="81.25" y2="81.25"/></g>
	<g class="poloto_legend poloto_imgs poloto_line poloto1 poloto_stroke"><line x1="680" x2="730" y1="131.25" y2="131.25"/></g>
	<g class="poloto_legend poloto_imgs poloto_line poloto2 poloto_stroke"><line x1="680" x2="730" y1="181.25" y2="181.25"/></g>
	<text class="poloto_legend poloto_text poloto_line poloto0" x="675" y="100">total</text>
	<text class="poloto_legend poloto_text poloto_line poloto1" x="675" y="150">code</text>
	<text class="poloto_legend poloto_text poloto_line poloto2" x="675" y="200">docs</text>
	<text class="poloto_text poloto_name poloto_title" x="400.00" y="37.50">Workspace lines over time</text>
	<text class="poloto_text poloto_name poloto_x" x="400.00" y="640">date (JST)</text>
	<text class="poloto_text poloto_name poloto_y" x="37.50" y="250.00" transform="rotate(-90,37.50,250.00)">lines</text>
	<text class="poloto_text poloto_ticks poloto_y">
		<tspan x="135.00" y="400.00">0</tspan>
		<tspan x="135.00" y="321.68">50K</tspan>
		<tspan x="135.00" y="243.37">100K</tspan>
		<tspan x="135.00" y="165.05">150K</tspan>
	</text>
	<g class="poloto_imgs poloto_ticks poloto_y" stroke="black">
		<line x1="150.00" x2="144.00" y1="400.00" y2="400.00"/>
		<line x1="150.00" x2="144.00" y1="321.68" y2="321.68"/>
		<line x1="150.00" x2="144.00" y1="243.37" y2="243.37"/>
		<line x1="150.00" x2="144.00" y1="165.05" y2="165.05"/>
	</g>
	<g class="poloto_text poloto_ticks poloto_x">
		<text x="225.76" y="430.00" text-anchor="end" transform="rotate(-90 225.76 430.00)">2026-04-24 12:06</text>
		<text x="342.37" y="430.00" text-anchor="end" transform="rotate(-90 342.37 430.00)">2026-04-30 07:00</text>
		<text x="458.98" y="430.00" text-anchor="end" transform="rotate(-90 458.98 430.00)">2026-05-06 01:53</text>
		<text x="575.59" y="430.00" text-anchor="end" transform="rotate(-90 575.59 430.00)">2026-05-11 20:46</text>
	</g>
	<g class="poloto_imgs poloto_ticks poloto_x" stroke="black">
		<line x1="225.76" x2="225.76" y1="400.00" y2="405.00"/>
		<line x1="342.37" x2="342.37" y1="400.00" y2="405.00"/>
		<line x1="458.98" x2="458.98" y1="400.00" y2="405.00"/>
		<line x1="575.59" x2="575.59" y1="400.00" y2="405.00"/>
	</g>
	<path class="poloto_imgs poloto_ticks poloto_x" stroke="black" style="stroke-dasharray:11.661247296339814;stroke-dashoffset:-75.75682661077008;" d=" M 150.00 400.00 L 650.00 400.00"/>
	<path class="poloto_imgs poloto_ticks poloto_y" stroke="black" style="stroke-dasharray:7.831671278650864;stroke-dashoffset:-0;" d=" M 150.00 400.00 L 150.00 100.00"/>
</svg>

