<svg class="poloto" width="800" height="680" viewBox="0 0 800 680" xmlns="http://www.w3.org/2000/svg">
	<style>
.poloto{
  stroke-linecap:round;
  stroke-linejoin:round;
  font-family:Roboto,sans-serif;
  font-size:16px;
}
.poloto_background{fill:AliceBlue;}
.poloto_scatter{stroke-width:7}
.poloto_line{stroke-width:2}
.poloto_text{fill: black;}
.poloto_name{font-size:24px;dominant-baseline:auto;text-anchor:middle;}
.poloto_where{dominant-baseline:middle;text-anchor:start}
.poloto_text.poloto_legend{font-size:20px;dominant-baseline:middle;text-anchor:start;}
.poloto_text.poloto_ticks.poloto_y{dominant-baseline:middle;text-anchor:end}
.poloto_text.poloto_ticks.poloto_x{dominant-baseline:auto;text-anchor:middle}
.poloto_imgs.poloto_ticks{stroke: black;stroke-width:3;fill:none;stroke-dasharray:none}
.poloto_grid{stroke:gray;stroke-width:0.5}

.poloto0.poloto_stroke{stroke:blue;}
.poloto1.poloto_stroke{stroke:red;}
.poloto2.poloto_stroke{stroke:green;}
.poloto3.poloto_stroke{stroke:gold;}
.poloto4.poloto_stroke{stroke:aqua;}
.poloto5.poloto_stroke{stroke:lime;}
.poloto6.poloto_stroke{stroke:orange;}
.poloto7.poloto_stroke{stroke:chocolate;}
.poloto0.poloto_fill{fill:blue;}
.poloto1.poloto_fill{fill:red;}
.poloto2.poloto_fill{fill:green;}
.poloto3.poloto_fill{fill:gold;}
.poloto4.poloto_fill{fill:aqua;}
.poloto5.poloto_fill{fill:lime;}
.poloto6.poloto_fill{fill:orange;}
.poloto7.poloto_fill{fill:chocolate;}
	</style>
	<circle r="1e5" class="poloto_background" fill="white"/>
	<g id="poloto_plot0" class="poloto_plot poloto_imgs poloto_line poloto0 poloto_stroke" fill="none" stroke="black">
		<path d=" M 150.00 367.01 L 150.03 366.99 L 150.05 366.97 L 150.06 366.97 L 150.09 366.97 L 150.12 363.39 L 150.25 362.96 L 150.56 362.94 L 151.01 362.64 L 151.23 360.82 L 151.69 360.71 L 151.77 360.61 L 151.83 360.57 L 152.36 359.69 L 153.37 358.96 L 153.68 356.15 L 153.76 356.16 L 154.37 356.05 L 155.06 356.03 L 155.07 356.03 L 155.07 356.03 L 164.47 356.03 L 164.54 356.03 L 164.66 356.01 L 164.71 355.97 L 165.07 355.81 L 165.23 355.77 L 165.63 355.51 L 165.69 355.39 L 165.80 355.14 L 165.92 355.10 L 165.95 355.10 L 166.05 355.03 L 166.16 355.03 L 166.26 355.03 L 166.52 354.62 L 166.75 354.36 L 166.79 354.36 L 166.90 354.21 L 167.65 354.85 L 167.67 354.85 L 167.76 354.74 L 168.19 354.26 L 168.53 353.69 L 168.92 353.44 L 169.00 353.39 L 169.01 353.39 L 169.08 353.17 L 169.23 353.17 L 169.41 353.09 L 169.78 352.87 L 169.81 352.54 L 169.87 352.54 L 169.96 352.36 L 170.17 352.36 L 170.20 352.36 L 170.42 351.88 L 170.50 351.86 L 170.58 351.82 L 170.67 351.63 L 171.81 351.37 L 172.09 351.31 L 172.73 350.97 L 172.86 350.98 L 172.96 350.96 L 173.02 350.72 L 173.45 349.29 L 173.65 349.27 L 173.88 348.79 L 173.99 348.75 L 174.25 348.35 L 174.37 348.21 L 174.53 347.96 L 174.67 347.73 L 175.18 344.46 L 175.19 344.38 L 175.22 344.18 L 175.39 342.61 L 184.11 342.49 L 185.01 340.70 L 185.04 340.66 L 186.11 340.38 L 186.20 340.37 L 186.29 340.01 L 186.56 339.84 L 186.68 339.53 L 186.72 339.26 L 186.85 338.79 L 187.17 338.78 L 187.18 338.47 L 187.29 338.11 L 187.41 338.11 L 187.55 337.71 L 187.72 337.43 L 187.78 337.29 L 187.81 337.28 L 187.96 336.98 L 187.98 336.97 L 188.15 336.66 L 188.17 336.65 L 188.42 335.18 L 188.47 335.18 L 188.55 334.93 L 188.66 334.92 L 188.80 334.92 L 188.87 334.88 L 189.35 334.61 L 189.37 334.61 L 189.46 333.96 L 189.68 333.94 L 189.87 332.96 L 189.93 332.87 L 190.03 332.86 L 190.07 332.82 L 190.18 332.06 L 190.73 325.64 L 190.79 325.33 L 190.98 325.30 L 191.03 325.22 L 191.07 325.20 L 191.16 325.03 L 191.25 324.30 L 191.44 324.15 L 191.58 324.13 L 191.69 323.81 L 191.75 323.80 L 192.24 323.57 L 192.51 323.38 L 192.59 323.10 L 192.82 323.08 L 192.84 323.08 L 192.86 323.06 L 193.01 321.51 L 193.12 321.42 L 193.53 319.86 L 193.59 319.41 L 193.67 319.40 L 193.78 319.23 L 193.79 319.11 L 193.84 319.04 L 193.87 319.00 L 193.93 318.99 L 193.98 318.91 L 194.15 317.64 L 194.26 317.45 L 194.38 317.08 L 194.53 317.05 L 194.71 316.93 L 194.89 316.03 L 195.01 314.78 L 195.26 314.71 L 195.27 314.24 L 195.42 314.09 L 207.59 314.09 L 207.82 314.08 L 208.40 313.42 L 208.52 313.40 L 208.61 313.40 L 208.63 313.24 L 208.84 313.03 L 208.98 313.00 L 209.07 312.87 L 209.15 312.79 L 209.20 312.74 L 209.42 312.68 L 209.86 312.60 L 209.97 312.26 L 210.05 312.18 L 210.16 312.16 L 210.72 311.99 L 210.80 311.89 L 210.84 311.89 L 210.87 311.77 L 211.00 311.71 L 211.09 311.58 L 211.50 310.75 L 212.09 310.62 L 212.30 310.56 L 212.95 310.35 L 213.26 306.31 L 213.37 306.23 L 213.50 305.83 L 213.69 305.30 L 213.99 305.15 L 214.40 305.14 L 214.96 305.12 L 215.04 304.94 L 215.44 304.76 L 215.70 304.47 L 215.78 304.35 L 215.94 304.30 L 216.06 303.94 L 217.50 303.54 L 218.87 303.54 L 231.13 303.51 L 231.21 303.33 L 231.28 303.22 L 231.66 303.05 L 232.80 301.65 L 232.85 301.56 L 233.01 301.20 L 233.58 301.11 L 233.84 300.17 L 234.25 300.16 L 234.34 300.15 L 234.43 299.50 L 235.14 295.83 L 235.23 295.82 L 235.37 295.79 L 235.53 295.75 L 235.61 295.35 L 236.00 293.96 L 236.15 293.70 L 236.21 293.68 L 236.30 293.04 L 236.48 292.14 L 236.55 291.19 L 236.73 290.76 L 237.26 285.98 L 237.31 285.50 L 237.36 285.50 L 237.44 285.42 L 237.57 285.29 L 237.63 285.25 L 237.68 285.20 L 237.93 284.05 L 237.99 283.25 L 238.30 283.08 L 238.49 281.88 L 238.60 281.13 L 239.55 269.99 L 239.66 269.96 L 275.67 269.43 L 275.71 269.43 L 289.47 269.28 L 290.22 268.97 L 290.37 268.97 L 290.57 268.89 L 290.64 268.75 L 290.72 268.71 L 296.69 268.63 L 297.48 266.51 L 297.77 266.32 L 297.92 265.54 L 301.64 265.38 L 301.66 265.17 L 301.90 265.15 L 303.01 263.81 L 303.07 263.57 L 303.21 263.49 L 303.60 263.39 L 303.65 263.36 L 303.81 262.96 L 303.98 262.85 L 304.00 262.55 L 315.57 262.15 L 315.65 261.00 L 316.11 260.75 L 316.12 258.84 L 316.20 258.56 L 316.30 258.09 L 316.43 256.77 L 316.62 256.07 L 316.79 255.26 L 316.94 255.25 L 317.00 254.62 L 317.23 254.57 L 318.03 251.50 L 318.35 251.17 L 318.41 250.97 L 318.48 250.97 L 318.52 250.75 L 318.63 250.00 L 318.95 249.64 L 319.00 249.59 L 319.20 246.88 L 319.28 246.87 L 319.31 246.58 L 319.38 246.36 L 319.43 246.36 L 319.48 245.95 L 319.73 244.49 L 319.84 244.07 L 319.98 244.02 L 320.08 240.10 L 320.12 239.79 L 320.37 237.55 L 320.44 237.38 L 320.49 237.37 L 320.56 237.37 L 320.60 237.05 L 320.63 237.06 L 320.65 237.06 L 320.78 233.10 L 320.82 232.76 L 320.94 232.74 L 321.03 232.67 L 321.29 232.56 L 321.61 232.41 L 321.62 232.41 L 321.71 232.36 L 322.01 232.29 L 322.15 232.29 L 322.29 232.29 L 322.44 230.56 L 322.54 230.15 L 322.95 230.15 L 322.98 229.87 L 323.03 229.87 L 323.07 229.58 L 323.34 227.08 L 323.38 227.02 L 323.58 227.01 L 341.37 226.94 L 342.38 226.81 L 342.42 226.81 L 342.62 226.81 L 342.63 226.81 L 342.76 226.31 L 342.86 226.29 L 342.95 226.05 L 343.07 225.99 L 343.11 225.95 L 343.15 225.93 L 343.34 225.65 L 343.73 225.41 L 343.97 224.61 L 344.25 223.84 L 344.26 223.80 L 344.30 223.09 L 344.34 223.07 L 344.87 222.64 L 344.88 222.59 L 344.96 222.03 L 345.19 221.97 L 345.33 221.91 L 345.36 220.90 L 345.37 220.85 L 345.44 221.81 L 345.48 221.22 L 345.50 221.20 L 345.63 219.85 L 345.64 219.81 L 345.92 219.70 L 346.68 219.68 L 346.86 219.63 L 346.91 219.62 L 346.95 219.45 L 347.00 219.45 L 347.10 218.78 L 359.27 217.49 L 359.29 217.31 L 359.39 217.19 L 359.42 216.94 L 359.49 205.67 L 359.62 201.06 L 359.64 201.03 L 359.86 200.94 L 359.91 200.94 L 359.95 200.41 L 360.15 200.36 L 360.67 199.26 L 360.69 199.24 L 360.82 198.91 L 360.87 198.92 L 360.90 198.37 L 361.34 197.73 L 361.35 197.70 L 362.02 197.46 L 362.10 196.88 L 362.33 196.89 L 362.61 195.44 L 362.68 194.86 L 362.73 194.40 L 362.85 193.84 L 363.20 193.64 L 363.26 193.50 L 363.41 193.37 L 363.57 193.37 L 364.08 193.37 L 364.14 193.37 L 364.26 193.35 L 364.27 193.35 L 364.44 193.36 L 364.82 193.33 L 365.22 193.12 L 365.28 193.12 L 365.37 193.04 L 365.48 192.88 L 365.79 192.88 L 366.30 192.68 L 366.47 192.23 L 366.75 188.34 L 367.87 191.63 L 368.11 191.61 L 368.29 191.60 L 368.57 191.59 L 368.66 191.53 L 368.94 191.34 L 369.38 191.08 L 369.43 190.90 L 369.52 190.82 L 369.57 190.84 L 369.61 190.79 L 369.96 190.54 L 378.02 190.54 L 378.09 190.54 L 378.60 190.53 L 378.65 190.51 L 378.76 190.02 L 378.85 189.74 L 378.86 189.74 L 379.14 189.69 L 379.21 189.67 L 380.86 188.94 L 381.05 188.88 L 381.20 188.86 L 381.23 188.86 L 381.74 188.68 L 381.91 188.77 L 381.95 188.76 L 382.22 188.72 L 382.52 187.18 L 382.56 187.17 L 382.81 187.00 L 382.91 187.00 L 383.01 187.00 L 383.22 186.82 L 383.66 186.20 L 383.75 186.18 L 383.83 186.01 L 384.01 185.28 L 384.46 184.52 L 384.85 180.94 L 384.93 180.51 L 385.34 180.33 L 385.41 180.24 L 385.47 180.07 L 385.51 179.50 L 385.65 178.47 L 385.68 178.51 L 385.75 178.49 L 385.98 178.48 L 386.33 178.11 L 386.55 178.03 L 386.80 178.02 L 386.91 178.01 L 387.16 177.99 L 387.56 177.99 L 387.97 177.98 L 388.28 177.98 L 388.35 177.97 L 388.43 177.96 L 388.43 177.83 L 388.67 177.76 L 388.74 177.75 L 388.83 177.59 L 389.49 177.57 L 389.51 177.26 L 389.69 177.24 L 390.46 177.25 L 390.97 177.06 L 391.34 176.83 L 391.36 176.71 L 391.39 176.71 L 402.68 176.50 L 402.71 176.49 L 402.85 176.48 L 402.91 176.30 L 402.95 176.28 L 402.95 176.27 L 403.44 176.22 L 403.54 175.57 L 403.69 175.43 L 403.93 174.15 L 404.08 174.14 L 404.27 173.60 L 404.38 173.66 L 404.43 173.66 L 404.49 173.04 L 404.63 172.62 L 404.65 172.17 L 404.70 172.11 L 404.82 172.07 L 404.90 171.86 L 405.00 174.29 L 405.14 174.25 L 405.42 173.28 L 405.54 173.04 L 405.65 172.83 L 406.34 171.44 L 406.93 170.76 L 407.65 169.47 L 407.83 169.41 L 408.03 169.41 L 408.25 169.35 L 412.40 168.99 L 412.75 168.95 L 452.08 167.97 L 575.94 167.74 L 576.35 167.35 L 576.64 167.29 L 576.92 167.29 L 577.35 166.54 L 577.50 166.17 L 577.61 165.49 L 577.81 163.53 L 578.10 163.93 L 578.33 163.51 L 578.38 163.50 L 578.57 163.37 L 578.61 163.37 L 578.82 162.65 L 579.00 161.50 L 579.56 160.28 L 579.58 160.18 L 579.74 158.73 L 580.27 155.12 L 580.29 154.99 L 580.39 154.92 L 580.52 153.63 L 581.10 151.89 L 581.11 151.73 L 581.23 151.65 L 581.37 150.80 L 581.58 150.12 L 581.60 149.99 L 581.69 148.67 L 581.71 148.64 L 581.76 148.27 L 582.00 145.92 L 582.03 145.79 L 582.12 145.65 L 582.38 145.34 L 582.43 145.33 L 582.64 144.88 L 582.99 144.93 L 583.04 144.87 L 583.08 144.84 L 583.14 144.81 L 583.32 143.43 L 583.50 142.30 L 583.53 142.20 L 583.63 140.80 L 583.73 139.43 L 583.76 139.26 L 583.87 137.65 L 583.92 136.38 L 584.13 135.53 L 584.16 135.47 L 584.27 135.20 L 584.41 135.18 L 585.30 135.14 L 585.75 135.11 L 595.42 135.16 L 595.52 134.92 L 595.62 134.70 L 595.78 133.76 L 596.14 133.51 L 596.17 133.42 L 596.24 132.17 L 596.47 130.96 L 596.50 130.85 L 598.61 130.77 L 598.74 130.09 L 599.80 129.89 L 599.92 129.84 L 600.04 128.43 L 601.33 127.10 L 601.87 126.60 L 602.01 125.57 L 602.47 123.80 L 602.76 123.28 L 603.23 122.24 L 604.08 121.71 L 617.03 121.70 L 617.81 121.59 L 617.84 121.61 L 618.93 121.40 L 618.98 121.30 L 619.36 121.22 L 619.80 120.07 L 619.80 120.07 L 619.85 120.02 L 620.43 118.70 L 621.76 117.95 L 621.85 117.88 L 621.98 117.87 L 622.18 117.52 L 622.24 117.43 L 622.32 117.36 L 622.94 117.31 L 623.43 117.31 L 623.70 117.31 L 623.74 117.26 L 624.29 116.11 L 624.72 115.89 L 624.74 115.80 L 624.79 115.71 L 624.85 115.40 L 638.90 114.96 L 638.93 114.94 L 638.97 114.92 L 639.24 114.79 L 639.45 114.65 L 640.69 112.88 L 641.00 112.67 L 641.89 112.13 L 642.66 112.01 L 643.22 111.83 L 643.39 110.20 L 644.10 108.28 L 644.36 108.15 L 644.45 106.91 L 646.53 104.64 L 646.55 104.64 L 646.67 104.09 L 647.06 104.02 L 647.07 104.02 L 647.09 103.88 L 647.16 103.71 L 647.34 103.53 L 647.56 102.57 L 649.72 100.27 L 650.00 100.00"/>
	</g>
	<g id="poloto_plot1" class="poloto_plot poloto_imgs poloto_line poloto1 poloto_stroke" fill="none" stroke="black">
		<path d=" M 150.00 380.40 L 150.03 380.38 L 150.05 380.37 L 150.06 380.37 L 150.09 380.37 L 150.12 379.75 L 150.25 379.73 L 150.56 379.72 L 151.01 379.48 L 151.23 379.38 L 151.69 379.40 L 151.77 379.36 L 151.83 379.36 L 152.36 379.31 L 153.37 379.20 L 153.68 376.77 L 153.76 376.77 L 154.37 376.71 L 155.06 376.70 L 155.07 376.70 L 155.07 376.70 L 164.47 376.70 L 164.54 376.70 L 164.66 376.70 L 164.71 376.67 L 165.07 376.65 L 165.23 376.65 L 165.63 376.65 L 165.69 376.65 L 165.80 376.64 L 165.92 376.64 L 165.95 376.64 L 166.05 376.61 L 166.16 376.61 L 166.26 376.61 L 166.52 376.47 L 166.75 376.47 L 166.79 376.47 L 166.90 376.47 L 167.65 377.38 L 167.67 377.38 L 167.76 377.37 L 168.19 377.24 L 168.53 377.08 L 168.92 377.02 L 169.00 376.97 L 169.01 376.97 L 169.08 376.97 L 169.23 376.97 L 169.41 376.91 L 169.78 376.86 L 169.81 376.86 L 169.87 376.86 L 169.96 376.84 L 170.17 376.84 L 170.20 376.84 L 170.42 376.83 L 170.50 376.83 L 170.58 376.83 L 170.67 376.83 L 171.81 376.72 L 172.09 376.71 L 172.73 376.66 L 172.86 376.66 L 172.96 376.66 L 173.02 376.66 L 173.45 376.59 L 173.65 376.59 L 173.88 376.50 L 173.99 376.49 L 174.25 376.29 L 174.37 376.22 L 174.53 376.22 L 174.67 376.22 L 175.18 373.39 L 175.19 373.34 L 175.22 373.34 L 175.39 373.06 L 184.11 373.06 L 185.01 371.84 L 185.04 371.84 L 186.11 371.84 L 186.20 371.84 L 186.29 371.71 L 186.56 371.69 L 186.68 371.69 L 186.72 371.69 L 186.85 371.69 L 187.17 371.69 L 187.18 371.43 L 187.29 371.42 L 187.41 371.42 L 187.55 371.39 L 187.72 371.38 L 187.78 371.38 L 187.81 371.38 L 187.96 371.38 L 187.98 371.38 L 188.15 371.38 L 188.17 371.38 L 188.42 370.18 L 188.47 370.18 L 188.55 370.04 L 188.66 370.04 L 188.80 370.04 L 188.87 370.02 L 189.35 370.02 L 189.37 370.02 L 189.46 369.95 L 189.68 369.95 L 189.87 369.26 L 189.93 369.17 L 190.03 369.17 L 190.07 369.17 L 190.18 369.15 L 190.73 364.09 L 190.79 364.13 L 190.98 364.13 L 191.03 364.13 L 191.07 364.12 L 191.16 364.12 L 191.25 364.06 L 191.44 364.06 L 191.58 364.06 L 191.69 364.05 L 191.75 364.05 L 192.24 364.04 L 192.51 364.03 L 192.59 363.91 L 192.82 363.91 L 192.84 363.91 L 192.86 363.91 L 193.01 363.57 L 193.12 363.48 L 193.53 362.28 L 193.59 362.28 L 193.67 362.28 L 193.78 362.30 L 193.79 362.30 L 193.84 362.30 L 193.87 362.30 L 193.93 362.30 L 193.98 362.30 L 194.15 362.27 L 194.26 362.27 L 194.38 362.26 L 194.53 362.26 L 194.71 362.25 L 194.89 361.80 L 195.01 361.65 L 195.26 361.65 L 195.27 361.64 L 195.42 361.64 L 207.59 361.64 L 207.82 361.64 L 208.40 361.56 L 208.52 361.55 L 208.61 361.55 L 208.63 361.55 L 208.84 361.55 L 208.98 361.55 L 209.07 361.55 L 209.15 361.55 L 209.20 361.54 L 209.42 361.54 L 209.86 361.57 L 209.97 361.57 L 210.05 361.57 L 210.16 361.57 L 210.72 361.47 L 210.80 361.42 L 210.84 361.42 L 210.87 361.36 L 211.00 361.36 L 211.09 361.35 L 211.50 360.90 L 212.09 360.90 L 212.30 360.90 L 212.95 360.90 L 213.26 357.80 L 213.37 357.79 L 213.50 357.79 L 213.69 357.79 L 213.99 357.79 L 214.40 357.79 L 214.96 357.79 L 215.04 357.79 L 215.44 357.71 L 215.70 357.58 L 215.78 357.58 L 215.94 357.58 L 216.06 357.57 L 217.50 357.37 L 218.87 357.37 L 231.13 357.37 L 231.21 357.37 L 231.28 357.37 L 231.66 357.37 L 232.80 356.39 L 232.85 356.36 L 233.01 356.26 L 233.58 356.25 L 233.84 356.02 L 234.25 356.02 L 234.34 356.02 L 234.43 356.02 L 235.14 353.30 L 235.23 353.30 L 235.37 353.30 L 235.53 353.30 L 235.61 353.13 L 236.00 352.80 L 236.15 352.80 L 236.21 352.80 L 236.30 352.30 L 236.48 351.80 L 236.55 351.80 L 236.73 351.79 L 237.26 347.74 L 237.31 347.74 L 237.36 347.74 L 237.44 347.74 L 237.57 347.74 L 237.63 347.74 L 237.68 347.74 L 237.93 347.74 L 237.99 347.65 L 238.30 347.63 L 238.49 347.58 L 238.60 347.09 L 239.55 339.02 L 239.66 339.02 L 275.67 339.02 L 275.71 339.02 L 289.47 339.02 L 290.22 338.90 L 290.37 338.90 L 290.57 338.90 L 290.64 338.90 L 290.72 338.90 L 296.69 338.84 L 297.48 338.76 L 297.77 338.76 L 297.92 338.74 L 301.64 338.67 L 301.66 338.56 L 301.90 338.56 L 303.01 337.47 L 303.07 337.47 L 303.21 337.47 L 303.60 337.47 L 303.65 337.47 L 303.81 337.47 L 303.98 337.47 L 304.00 337.47 L 315.57 337.45 L 315.65 337.26 L 316.11 337.26 L 316.12 335.94 L 316.20 335.94 L 316.30 335.94 L 316.43 335.82 L 316.62 335.82 L 316.79 335.76 L 316.94 335.76 L 317.00 335.76 L 317.23 335.74 L 318.03 333.51 L 318.35 333.50 L 318.41 333.49 L 318.48 333.49 L 318.52 333.49 L 318.63 333.46 L 318.95 333.18 L 319.00 333.14 L 319.20 331.13 L 319.28 331.12 L 319.31 331.12 L 319.38 331.09 L 319.43 331.09 L 319.48 331.09 L 319.73 329.99 L 319.84 329.98 L 319.98 329.95 L 320.08 326.55 L 320.12 326.55 L 320.37 324.64 L 320.44 324.64 L 320.49 324.63 L 320.56 324.63 L 320.60 324.63 L 320.63 324.63 L 320.65 324.63 L 320.78 321.09 L 320.82 321.09 L 320.94 321.07 L 321.03 321.07 L 321.29 321.00 L 321.61 320.91 L 321.62 320.91 L 321.71 320.88 L 322.01 320.83 L 322.15 320.83 L 322.29 320.83 L 322.44 319.30 L 322.54 319.30 L 322.95 319.29 L 322.98 319.29 L 323.03 319.29 L 323.07 319.29 L 323.34 317.11 L 323.38 317.11 L 323.58 317.09 L 341.37 317.09 L 342.38 317.08 L 342.42 317.08 L 342.62 317.08 L 342.63 317.08 L 342.76 317.08 L 342.86 317.08 L 342.95 316.97 L 343.07 316.97 L 343.11 316.97 L 343.15 316.97 L 343.34 316.77 L 343.73 316.65 L 343.97 316.52 L 344.25 315.90 L 344.26 315.90 L 344.30 315.75 L 344.34 315.73 L 344.87 315.35 L 344.88 315.35 L 344.96 315.30 L 345.19 315.30 L 345.33 315.26 L 345.36 314.36 L 345.37 314.36 L 345.44 315.25 L 345.48 315.20 L 345.50 315.19 L 345.63 313.97 L 345.64 313.97 L 345.92 313.92 L 346.68 313.92 L 346.86 313.92 L 346.91 313.92 L 346.95 313.92 L 347.00 313.92 L 347.10 313.84 L 359.27 312.84 L 359.29 312.84 L 359.39 312.83 L 359.42 312.61 L 359.49 301.85 L 359.62 297.85 L 359.64 297.85 L 359.86 297.77 L 359.91 297.77 L 359.95 297.75 L 360.15 297.75 L 360.67 296.78 L 360.69 296.78 L 360.82 296.72 L 360.87 296.72 L 360.90 296.64 L 361.34 296.06 L 361.35 296.06 L 362.02 295.94 L 362.10 295.90 L 362.33 295.91 L 362.61 294.58 L 362.68 294.45 L 362.73 294.33 L 362.85 293.83 L 363.20 293.71 L 363.26 293.60 L 363.41 293.60 L 363.57 293.60 L 364.08 293.60 L 364.14 293.60 L 364.26 293.60 L 364.27 293.60 L 364.44 293.62 L 364.82 293.62 L 365.22 293.48 L 365.28 293.48 L 365.37 293.46 L 365.48 293.46 L 365.79 293.46 L 366.30 293.46 L 366.47 293.35 L 366.75 289.87 L 367.87 293.15 L 368.11 293.13 L 368.29 293.12 L 368.57 293.12 L 368.66 293.09 L 368.94 293.07 L 369.38 292.87 L 369.43 292.87 L 369.52 292.87 L 369.57 292.87 L 369.61 292.87 L 369.96 292.68 L 378.02 292.68 L 378.09 292.68 L 378.60 292.67 L 378.65 292.67 L 378.76 292.63 L 378.85 292.39 L 378.86 292.39 L 379.14 292.36 L 379.21 292.36 L 380.86 292.16 L 381.05 292.16 L 381.20 292.16 L 381.23 292.16 L 381.74 292.02 L 381.91 292.02 L 381.95 292.02 L 382.22 292.01 L 382.52 291.19 L 382.56 291.19 L 382.81 291.05 L 382.91 291.05 L 383.01 291.05 L 383.22 291.05 L 383.66 291.04 L 383.75 291.02 L 383.83 290.94 L 384.01 290.80 L 384.46 290.68 L 384.85 287.40 L 384.93 287.29 L 385.34 287.13 L 385.41 287.09 L 385.47 286.98 L 385.51 286.75 L 385.65 285.77 L 385.68 285.81 L 385.75 285.79 L 385.98 285.79 L 386.33 285.65 L 386.55 285.60 L 386.80 285.58 L 386.91 285.57 L 387.16 285.56 L 387.56 285.56 L 387.97 285.55 L 388.28 285.55 L 388.35 285.54 L 388.43 285.54 L 388.43 285.53 L 388.67 285.53 L 388.74 285.52 L 388.83 285.40 L 389.49 285.39 L 389.51 285.39 L 389.69 285.37 L 390.46 285.37 L 390.97 285.21 L 391.34 285.07 L 391.36 285.07 L 391.39 285.07 L 402.68 285.06 L 402.71 285.06 L 402.85 285.06 L 402.91 285.06 L 402.95 285.05 L 402.95 285.05 L 403.44 285.05 L 403.54 285.03 L 403.69 285.01 L 403.93 284.99 L 404.08 284.99 L 404.27 284.91 L 404.38 284.91 L 404.43 284.91 L 404.49 284.91 L 404.63 284.61 L 404.65 284.61 L 404.70 284.61 L 404.82 284.61 L 404.90 284.61 L 405.00 284.68 L 405.14 284.68 L 405.42 284.67 L 405.54 284.67 L 405.65 284.67 L 406.34 283.71 L 406.93 283.45 L 407.65 282.76 L 407.83 282.76 L 408.03 282.76 L 408.25 282.76 L 412.40 282.68 L 412.75 282.67 L 452.08 282.55 L 575.94 282.37 L 576.35 282.32 L 576.64 282.31 L 576.92 282.31 L 577.35 281.86 L 577.50 281.86 L 577.61 281.86 L 577.81 280.25 L 578.10 280.56 L 578.33 280.54 L 578.38 280.54 L 578.57 280.52 L 578.61 280.52 L 578.82 280.52 L 579.00 280.44 L 579.56 279.42 L 579.58 279.42 L 579.74 279.33 L 580.27 276.03 L 580.29 276.03 L 580.39 276.03 L 580.52 275.97 L 581.10 274.44 L 581.11 274.44 L 581.23 274.44 L 581.37 274.40 L 581.58 273.84 L 581.60 273.84 L 581.69 273.83 L 581.71 273.83 L 581.76 273.52 L 582.00 271.33 L 582.03 271.33 L 582.12 271.33 L 582.38 271.15 L 582.43 271.15 L 582.64 270.79 L 582.99 270.79 L 583.04 270.79 L 583.08 270.79 L 583.14 270.79 L 583.32 270.78 L 583.50 269.79 L 583.53 269.79 L 583.63 269.79 L 583.73 269.04 L 583.76 269.04 L 583.87 268.25 L 583.92 268.20 L 584.13 267.42 L 584.16 267.42 L 584.27 267.42 L 584.41 267.41 L 585.30 267.41 L 585.75 267.40 L 595.42 267.40 L 595.52 267.40 L 595.62 267.40 L 595.78 267.40 L 596.14 267.19 L 596.17 267.19 L 596.24 267.13 L 596.47 266.04 L 596.50 266.04 L 598.61 266.06 L 598.74 265.84 L 599.80 265.84 L 599.92 265.84 L 600.04 265.76 L 601.33 264.86 L 601.87 264.69 L 602.01 264.63 L 602.47 262.92 L 602.76 262.92 L 603.23 262.78 L 604.08 262.78 L 617.03 262.77 L 617.81 262.67 L 617.84 262.69 L 618.93 262.69 L 618.98 262.69 L 619.36 262.69 L 619.80 262.66 L 619.80 262.66 L 619.85 262.66 L 620.43 261.66 L 621.76 261.64 L 621.85 261.63 L 621.98 261.63 L 622.18 261.59 L 622.24 261.56 L 622.32 261.56 L 622.94 261.51 L 623.43 261.51 L 623.70 261.51 L 623.74 261.51 L 624.29 261.49 L 624.72 261.37 L 624.74 261.37 L 624.79 261.37 L 624.85 261.37 L 638.90 261.14 L 638.93 261.14 L 638.97 261.14 L 639.24 261.14 L 639.45 261.14 L 640.69 260.16 L 641.00 260.10 L 641.89 260.02 L 642.66 259.97 L 643.22 259.97 L 643.39 259.97 L 644.10 258.48 L 644.36 258.44 L 644.45 258.39 L 646.53 257.34 L 646.55 257.34 L 646.67 257.33 L 647.06 257.32 L 647.07 257.32 L 647.09 257.32 L 647.16 257.29 L 647.34 257.24 L 647.56 257.13 L 649.72 255.40 L 650.00 255.32"/>
	</g>
	<g id="poloto_plot2" class="poloto_plot poloto_imgs poloto_line poloto2 poloto_stroke" fill="none" stroke="black">
		<path d=" M 150.00 391.21 L 150.03 391.20 L 150.05 391.20 L 150.06 391.20 L 150.09 391.20 L 150.12 388.95 L 150.25 388.64 L 150.56 388.63 L 151.01 388.62 L 151.23 387.27 L 151.69 387.15 L 151.77 387.11 L 151.83 387.08 L 152.36 386.47 L 153.37 386.00 L 153.68 385.91 L 153.76 385.92 L 154.37 385.88 L 155.06 385.88 L 155.07 385.88 L 155.07 385.88 L 164.47 385.88 L 164.54 385.88 L 164.66 385.86 L 164.71 385.86 L 165.07 385.72 L 165.23 385.69 L 165.63 385.46 L 165.69 385.37 L 165.80 385.17 L 165.92 385.14 L 165.95 385.14 L 166.05 385.10 L 166.16 385.10 L 166.26 385.11 L 166.52 384.88 L 166.75 384.67 L 166.79 384.67 L 166.90 384.55 L 167.65 384.28 L 167.67 384.28 L 167.76 384.20 L 168.19 383.90 L 168.53 383.53 L 168.92 383.38 L 169.00 383.38 L 169.01 383.38 L 169.08 383.18 L 169.23 383.18 L 169.41 383.15 L 169.78 383.00 L 169.81 382.74 L 169.87 382.74 L 169.96 382.61 L 170.17 382.61 L 170.20 382.61 L 170.42 382.21 L 170.50 382.19 L 170.58 382.15 L 170.67 381.97 L 171.81 381.86 L 172.09 381.82 L 172.73 381.55 L 172.86 381.55 L 172.96 381.53 L 173.02 381.33 L 173.45 380.23 L 173.65 380.21 L 173.88 379.88 L 173.99 379.85 L 174.25 379.70 L 174.37 379.65 L 174.53 379.41 L 174.67 379.22 L 175.18 379.22 L 175.19 379.20 L 175.22 379.04 L 175.39 377.97 L 184.11 377.86 L 185.01 377.54 L 185.04 377.50 L 186.11 377.24 L 186.20 377.23 L 186.29 377.03 L 186.56 376.90 L 186.68 376.66 L 186.72 376.46 L 186.85 376.06 L 187.17 376.06 L 187.18 376.06 L 187.29 375.78 L 187.41 375.78 L 187.55 375.49 L 187.72 375.26 L 187.78 375.13 L 187.81 375.13 L 187.96 374.86 L 187.98 374.86 L 188.15 374.61 L 188.17 374.60 L 188.42 374.52 L 188.47 374.52 L 188.55 374.43 L 188.66 374.41 L 188.80 374.41 L 188.87 374.39 L 189.35 374.15 L 189.37 374.16 L 189.46 373.68 L 189.68 373.67 L 189.87 373.52 L 189.93 373.52 L 190.03 373.51 L 190.07 373.48 L 190.18 372.82 L 190.73 372.27 L 190.79 371.96 L 190.98 371.94 L 191.03 371.86 L 191.07 371.85 L 191.16 371.71 L 191.25 371.19 L 191.44 371.11 L 191.58 371.09 L 191.69 370.83 L 191.75 370.83 L 192.24 370.63 L 192.51 370.49 L 192.59 370.37 L 192.82 370.36 L 192.84 370.36 L 192.86 370.34 L 193.01 369.40 L 193.12 369.39 L 193.53 369.25 L 193.59 368.88 L 193.67 368.87 L 193.78 368.72 L 193.79 368.63 L 193.84 368.56 L 193.87 368.53 L 193.93 368.52 L 193.98 368.45 L 194.15 367.39 L 194.26 367.28 L 194.38 366.97 L 194.53 366.95 L 194.71 366.84 L 194.89 366.51 L 195.01 365.59 L 195.26 365.52 L 195.27 365.13 L 195.42 365.04 L 207.59 365.04 L 207.82 365.04 L 208.40 364.60 L 208.52 364.60 L 208.61 364.60 L 208.63 364.49 L 208.84 364.31 L 208.98 364.27 L 209.07 364.16 L 209.15 364.08 L 209.20 364.04 L 209.42 363.98 L 209.86 364.07 L 209.97 363.78 L 210.05 363.70 L 210.16 363.69 L 210.72 363.64 L 210.80 363.59 L 210.84 363.59 L 210.87 363.53 L 211.00 363.48 L 211.09 363.37 L 211.50 363.10 L 212.09 362.98 L 212.30 362.93 L 212.95 362.76 L 213.26 362.33 L 213.37 362.26 L 213.50 361.92 L 213.69 361.49 L 213.99 361.38 L 214.40 361.37 L 214.96 361.35 L 215.04 361.19 L 215.44 361.09 L 215.70 360.95 L 215.78 360.84 L 215.94 360.80 L 216.06 360.51 L 217.50 360.37 L 218.87 360.37 L 231.13 360.34 L 231.21 360.18 L 231.28 360.08 L 231.66 359.92 L 232.80 359.63 L 232.85 359.59 L 233.01 359.39 L 233.58 359.31 L 233.84 358.75 L 234.25 358.74 L 234.34 358.72 L 234.43 358.17 L 235.14 357.66 L 235.23 357.65 L 235.37 357.62 L 235.53 357.58 L 235.61 357.39 L 236.00 356.54 L 236.15 356.32 L 236.21 356.30 L 236.30 356.21 L 236.48 355.88 L 236.55 355.02 L 236.73 354.67 L 237.26 354.47 L 237.31 354.04 L 237.36 354.04 L 237.44 353.97 L 237.57 353.85 L 237.63 353.82 L 237.68 353.78 L 237.93 352.78 L 237.99 352.20 L 238.30 352.09 L 238.49 351.09 L 238.60 350.91 L 239.55 349.35 L 239.66 349.32 L 275.67 348.86 L 275.71 348.86 L 289.47 348.73 L 290.22 348.57 L 290.37 348.57 L 290.57 348.49 L 290.64 348.36 L 290.72 348.33 L 296.69 348.32 L 297.48 346.53 L 297.77 346.37 L 297.92 345.75 L 301.64 345.67 L 301.66 345.62 L 301.90 345.60 L 303.01 345.50 L 303.07 345.29 L 303.21 345.21 L 303.60 345.12 L 303.65 345.10 L 303.81 344.75 L 303.98 344.65 L 304.00 344.38 L 315.57 344.04 L 315.65 343.23 L 316.11 343.02 L 316.12 342.70 L 316.20 342.46 L 316.30 342.09 L 316.43 341.10 L 316.62 340.56 L 316.79 339.86 L 316.94 339.86 L 317.00 339.32 L 317.23 339.28 L 318.03 338.77 L 318.35 338.53 L 318.41 338.39 L 318.48 338.38 L 318.52 338.21 L 318.63 337.60 L 318.95 337.53 L 319.00 337.53 L 319.20 337.13 L 319.28 337.13 L 319.31 336.90 L 319.38 336.76 L 319.43 336.76 L 319.48 336.44 L 319.73 336.25 L 319.84 335.93 L 319.98 335.92 L 320.08 335.75 L 320.12 335.51 L 320.37 335.38 L 320.44 335.24 L 320.49 335.24 L 320.56 335.23 L 320.60 334.99 L 320.63 335.00 L 320.65 334.99 L 320.78 334.90 L 320.82 334.63 L 320.94 334.63 L 321.03 334.56 L 321.29 334.54 L 321.61 334.51 L 321.62 334.51 L 321.71 334.50 L 322.01 334.49 L 322.15 334.49 L 322.29 334.49 L 322.44 334.45 L 322.54 334.12 L 322.95 334.12 L 322.98 333.93 L 323.03 333.92 L 323.07 333.70 L 323.34 333.63 L 323.38 333.57 L 323.58 333.57 L 341.37 333.52 L 342.38 333.42 L 342.42 333.42 L 342.62 333.42 L 342.63 333.42 L 342.76 333.04 L 342.86 333.02 L 342.95 332.92 L 343.07 332.86 L 343.11 332.82 L 343.15 332.80 L 343.34 332.77 L 343.73 332.69 L 343.97 332.17 L 344.25 332.14 L 344.26 332.11 L 344.30 331.68 L 344.34 331.67 L 344.87 331.67 L 344.88 331.63 L 344.96 331.23 L 345.19 331.18 L 345.33 331.16 L 345.36 331.16 L 345.37 331.11 L 345.44 331.08 L 345.48 330.67 L 345.50 330.66 L 345.63 330.66 L 345.64 330.63 L 345.92 330.59 L 346.68 330.57 L 346.86 330.54 L 346.91 330.53 L 346.95 330.39 L 347.00 330.39 L 347.10 329.93 L 359.27 329.79 L 359.29 329.66 L 359.39 329.57 L 359.42 329.55 L 359.49 329.16 L 359.62 329.06 L 359.64 329.04 L 359.86 329.03 L 359.91 329.03 L 359.95 328.64 L 360.15 328.60 L 360.67 328.58 L 360.69 328.56 L 360.82 328.34 L 360.87 328.35 L 360.90 327.99 L 361.34 327.99 L 361.35 327.97 L 362.02 327.88 L 362.10 327.45 L 362.33 327.45 L 362.61 327.44 L 362.68 327.12 L 362.73 326.88 L 362.85 326.87 L 363.20 326.81 L 363.26 326.80 L 363.41 326.70 L 363.57 326.70 L 364.08 326.70 L 364.14 326.70 L 364.26 326.67 L 364.27 326.67 L 364.44 326.67 L 364.82 326.64 L 365.22 326.60 L 365.28 326.60 L 365.37 326.55 L 365.48 326.44 L 365.79 326.44 L 366.30 326.30 L 366.47 326.05 L 366.75 326.03 L 367.87 325.76 L 368.11 325.76 L 368.29 325.76 L 368.57 325.75 L 368.66 325.73 L 368.94 325.60 L 369.38 325.58 L 369.43 325.46 L 369.52 325.40 L 369.57 325.42 L 369.61 325.37 L 369.96 325.35 L 378.02 325.35 L 378.09 325.35 L 378.60 325.35 L 378.65 325.33 L 378.76 324.97 L 378.85 324.96 L 378.86 324.96 L 379.14 324.95 L 379.21 324.93 L 380.86 324.40 L 381.05 324.34 L 381.20 324.33 L 381.23 324.33 L 381.74 324.31 L 381.91 324.39 L 381.95 324.38 L 382.22 324.35 L 382.52 323.84 L 382.56 323.83 L 382.81 323.82 L 382.91 323.82 L 383.01 323.82 L 383.22 323.72 L 383.66 323.26 L 383.75 323.26 L 383.83 323.19 L 384.01 322.77 L 384.46 322.31 L 384.85 322.34 L 384.93 322.10 L 385.34 322.10 L 385.41 322.07 L 385.47 322.04 L 385.51 321.80 L 385.65 321.79 L 385.68 321.79 L 385.75 321.79 L 385.98 321.79 L 386.33 321.60 L 386.55 321.58 L 386.80 321.58 L 386.91 321.58 L 387.16 321.58 L 387.56 321.58 L 387.97 321.58 L 388.28 321.57 L 388.35 321.57 L 388.43 321.56 L 388.43 321.48 L 388.67 321.42 L 388.74 321.42 L 388.83 321.40 L 389.49 321.40 L 389.51 321.16 L 389.69 321.16 L 390.46 321.17 L 390.97 321.16 L 391.34 321.11 L 391.36 321.01 L 391.39 321.01 L 402.68 320.85 L 402.71 320.85 L 402.85 320.84 L 402.91 320.69 L 402.95 320.69 L 402.95 320.68 L 403.44 320.64 L 403.54 320.15 L 403.69 320.05 L 403.93 319.09 L 404.08 319.08 L 404.27 318.67 L 404.38 318.72 L 404.43 318.72 L 404.49 318.20 L 404.63 318.11 L 404.65 317.75 L 404.70 317.69 L 404.82 317.66 L 404.90 317.48 L 405.00 319.62 L 405.14 319.59 L 405.42 318.73 L 405.54 318.54 L 405.65 318.35 L 406.34 318.01 L 406.93 317.65 L 407.65 317.14 L 407.83 317.09 L 408.03 317.09 L 408.25 317.04 L 412.40 316.79 L 412.75 316.76 L 452.08 316.10 L 575.94 316.07 L 576.35 315.77 L 576.64 315.72 L 576.92 315.72 L 577.35 315.45 L 577.50 315.13 L 577.61 314.55 L 577.81 314.39 L 578.10 314.44 L 578.33 314.10 L 578.38 314.10 L 578.57 313.99 L 578.61 313.99 L 578.82 313.42 L 579.00 312.54 L 579.56 312.46 L 579.58 312.36 L 579.74 311.23 L 580.27 311.19 L 580.29 311.08 L 580.39 311.01 L 580.52 309.99 L 581.10 309.93 L 581.11 309.79 L 581.23 309.72 L 581.37 309.04 L 581.58 309.02 L 581.60 308.91 L 581.69 307.79 L 581.71 307.76 L 581.76 307.73 L 582.00 307.73 L 582.03 307.61 L 582.12 307.53 L 582.38 307.43 L 582.43 307.42 L 582.64 307.36 L 582.99 307.41 L 583.04 307.35 L 583.08 307.33 L 583.14 307.29 L 583.32 306.13 L 583.50 306.11 L 583.53 306.01 L 583.63 304.82 L 583.73 304.39 L 583.76 304.23 L 583.87 303.65 L 583.92 302.64 L 584.13 302.63 L 584.16 302.57 L 584.27 302.36 L 584.41 302.36 L 585.30 302.33 L 585.75 302.30 L 595.42 302.35 L 595.52 302.12 L 595.62 301.95 L 595.78 301.14 L 596.14 301.13 L 596.17 301.05 L 596.24 300.03 L 596.47 300.03 L 596.50 299.93 L 598.61 299.83 L 598.74 299.46 L 599.80 299.28 L 599.92 299.24 L 600.04 298.11 L 601.33 297.79 L 601.87 297.52 L 602.01 296.67 L 602.47 296.67 L 602.76 296.20 L 603.23 295.47 L 604.08 295.03 L 617.03 295.03 L 617.81 295.01 L 617.84 295.01 L 618.93 294.85 L 618.98 294.76 L 619.36 294.69 L 619.80 293.74 L 619.80 293.74 L 619.85 293.70 L 620.43 293.50 L 621.76 292.87 L 621.85 292.81 L 621.98 292.80 L 622.18 292.54 L 622.24 292.50 L 622.32 292.45 L 622.94 292.44 L 623.43 292.44 L 623.70 292.44 L 623.74 292.40 L 624.29 291.44 L 624.72 291.35 L 624.74 291.28 L 624.79 291.19 L 624.85 290.95 L 638.90 290.77 L 638.93 290.75 L 638.97 290.73 L 639.24 290.61 L 639.45 290.49 L 640.69 289.95 L 641.00 289.84 L 641.89 289.43 L 642.66 289.36 L 643.22 289.19 L 643.39 287.78 L 644.10 287.54 L 644.36 287.47 L 644.45 286.44 L 646.53 285.46 L 646.55 285.46 L 646.67 285.01 L 647.06 284.97 L 647.07 284.97 L 647.09 284.85 L 647.16 284.73 L 647.34 284.62 L 647.56 283.93 L 649.72 283.56 L 650.00 283.40"/>
	</g>
	<g class="poloto_legend poloto_imgs poloto_line poloto0 poloto_stroke"><line x1="680" x2="730" y1="81.25" y2="81.25"/></g>
	<g class="poloto_legend poloto_imgs poloto_line poloto1 poloto_stroke"><line x1="680" x2="730" y1="131.25" y2="131.25"/></g>
	<g class="poloto_legend poloto_imgs poloto_line poloto2 poloto_stroke"><line x1="680" x2="730" y1="181.25" y2="181.25"/></g>
	<text class="poloto_legend poloto_text poloto_line poloto0" x="675" y="100">total</text>
	<text class="poloto_legend poloto_text poloto_line poloto1" x="675" y="150">code</text>
	<text class="poloto_legend poloto_text poloto_line poloto2" x="675" y="200">docs</text>
	<text class="poloto_text poloto_name poloto_title" x="400.00" y="37.50">Workspace lines over time</text>
	<text class="poloto_text poloto_name poloto_x" x="400.00" y="640">date (JST)</text>
	<text class="poloto_text poloto_name poloto_y" x="37.50" y="250.00" transform="rotate(-90,37.50,250.00)">lines</text>
	<text class="poloto_text poloto_ticks poloto_y">
		<tspan x="135.00" y="400.00">0</tspan>
		<tspan x="135.00" y="316.39">50K</tspan>
		<tspan x="135.00" y="232.77">100K</tspan>
		<tspan x="135.00" y="149.16">150K</tspan>
	</text>
	<g class="poloto_imgs poloto_ticks poloto_y" stroke="black">
		<line x1="150.00" x2="144.00" y1="400.00" y2="400.00"/>
		<line x1="150.00" x2="144.00" y1="316.39" y2="316.39"/>
		<line x1="150.00" x2="144.00" y1="232.77" y2="232.77"/>
		<line x1="150.00" x2="144.00" y1="149.16" y2="149.16"/>
	</g>
	<g class="poloto_text poloto_ticks poloto_x">
		<text x="230.97" y="430.00" text-anchor="end" transform="rotate(-90 230.97 430.00)">2026-04-24 12:06</text>
		<text x="355.61" y="430.00" text-anchor="end" transform="rotate(-90 355.61 430.00)">2026-04-30 07:00</text>
		<text x="480.24" y="430.00" text-anchor="end" transform="rotate(-90 480.24 430.00)">2026-05-06 01:53</text>
		<text x="604.88" y="430.00" text-anchor="end" transform="rotate(-90 604.88 430.00)">2026-05-11 20:46</text>
	</g>
	<g class="poloto_imgs poloto_ticks poloto_x" stroke="black">
		<line x1="230.97" x2="230.97" y1="400.00" y2="405.00"/>
		<line x1="355.61" x2="355.61" y1="400.00" y2="405.00"/>
		<line x1="480.24" x2="480.24" y1="400.00" y2="405.00"/>
		<line x1="604.88" x2="604.88" y1="400.00" y2="405.00"/>
	</g>
	<path class="poloto_imgs poloto_ticks poloto_x" stroke="black" style="stroke-dasharray:12.463687047786275;stroke-dashoffset:-80.96984435844934;" d=" M 150.00 400.00 L 650.00 400.00"/>
	<path class="poloto_imgs poloto_ticks poloto_y" stroke="black" style="stroke-dasharray:8.36139044348815;stroke-dashoffset:-0;" d=" M 150.00 400.00 L 150.00 100.00"/>
</svg>

