<svg class="poloto" width="800" height="680" viewBox="0 0 800 680" xmlns="http://www.w3.org/2000/svg">
	<style>
.poloto{
  stroke-linecap:round;
  stroke-linejoin:round;
  font-family:Roboto,sans-serif;
  font-size:16px;
}
.poloto_background{fill:AliceBlue;}
.poloto_scatter{stroke-width:7}
.poloto_line{stroke-width:2}
.poloto_text{fill: black;}
.poloto_name{font-size:24px;dominant-baseline:auto;text-anchor:middle;}
.poloto_where{dominant-baseline:middle;text-anchor:start}
.poloto_text.poloto_legend{font-size:20px;dominant-baseline:middle;text-anchor:start;}
.poloto_text.poloto_ticks.poloto_y{dominant-baseline:middle;text-anchor:end}
.poloto_text.poloto_ticks.poloto_x{dominant-baseline:auto;text-anchor:middle}
.poloto_imgs.poloto_ticks{stroke: black;stroke-width:3;fill:none;stroke-dasharray:none}
.poloto_grid{stroke:gray;stroke-width:0.5}

.poloto0.poloto_stroke{stroke:blue;}
.poloto1.poloto_stroke{stroke:red;}
.poloto2.poloto_stroke{stroke:green;}
.poloto3.poloto_stroke{stroke:gold;}
.poloto4.poloto_stroke{stroke:aqua;}
.poloto5.poloto_stroke{stroke:lime;}
.poloto6.poloto_stroke{stroke:orange;}
.poloto7.poloto_stroke{stroke:chocolate;}
.poloto0.poloto_fill{fill:blue;}
.poloto1.poloto_fill{fill:red;}
.poloto2.poloto_fill{fill:green;}
.poloto3.poloto_fill{fill:gold;}
.poloto4.poloto_fill{fill:aqua;}
.poloto5.poloto_fill{fill:lime;}
.poloto6.poloto_fill{fill:orange;}
.poloto7.poloto_fill{fill:chocolate;}
	</style>
	<circle r="1e5" class="poloto_background" fill="white"/>
	<g id="poloto_plot0" class="poloto_plot poloto_imgs poloto_line poloto0 poloto_stroke" fill="none" stroke="black">
		<path d=" M 150.00 362.64 L 150.04 362.61 L 150.05 362.59 L 150.07 362.59 L 150.10 362.59 L 150.13 358.53 L 150.28 358.05 L 150.62 358.03 L 151.13 357.69 L 151.38 355.63 L 151.90 355.50 L 151.99 355.39 L 152.05 355.35 L 152.65 354.34 L 153.78 353.53 L 154.13 350.34 L 154.22 350.35 L 154.90 350.22 L 155.68 350.21 L 155.69 350.21 L 155.69 350.21 L 166.25 350.21 L 166.32 350.20 L 166.46 350.18 L 166.51 350.14 L 166.92 349.95 L 167.10 349.90 L 167.54 349.61 L 167.61 349.48 L 167.74 349.19 L 167.87 349.15 L 167.91 349.15 L 168.02 349.07 L 168.14 349.07 L 168.25 349.07 L 168.54 348.60 L 168.80 348.31 L 168.85 348.31 L 168.98 348.14 L 169.81 348.87 L 169.83 348.87 L 169.94 348.75 L 170.42 348.20 L 170.80 347.55 L 171.23 347.27 L 171.32 347.21 L 171.34 347.22 L 171.42 346.97 L 171.58 346.97 L 171.79 346.87 L 172.21 346.63 L 172.23 346.25 L 172.31 346.25 L 172.41 346.05 L 172.65 346.05 L 172.67 346.05 L 172.92 345.51 L 173.01 345.48 L 173.10 345.43 L 173.20 345.22 L 174.49 344.92 L 174.79 344.86 L 175.51 344.48 L 175.66 344.48 L 175.78 344.46 L 175.84 344.18 L 176.33 342.57 L 176.55 342.54 L 176.80 342.01 L 176.93 341.96 L 177.22 341.51 L 177.35 341.35 L 177.53 341.06 L 177.69 340.81 L 178.26 337.10 L 178.28 337.01 L 178.31 336.79 L 178.50 335.00 L 188.29 334.87 L 189.30 332.84 L 189.33 332.79 L 190.53 332.47 L 190.63 332.47 L 190.74 332.06 L 191.04 331.86 L 191.17 331.51 L 191.22 331.21 L 191.37 330.68 L 191.72 330.67 L 191.73 330.31 L 191.86 329.91 L 192.00 329.91 L 192.15 329.46 L 192.34 329.14 L 192.41 328.98 L 192.44 328.97 L 192.61 328.62 L 192.64 328.62 L 192.82 328.27 L 192.85 328.26 L 193.13 326.58 L 193.18 326.58 L 193.28 326.30 L 193.40 326.29 L 193.56 326.29 L 193.63 326.25 L 194.18 325.94 L 194.19 325.95 L 194.29 325.21 L 194.54 325.19 L 194.76 324.07 L 194.83 323.97 L 194.93 323.97 L 194.98 323.92 L 195.11 323.06 L 195.72 315.78 L 195.79 315.43 L 196.00 315.40 L 196.06 315.31 L 196.11 315.29 L 196.21 315.09 L 196.30 314.27 L 196.52 314.10 L 196.67 314.08 L 196.80 313.72 L 196.87 313.71 L 197.42 313.44 L 197.72 313.23 L 197.81 312.91 L 198.07 312.89 L 198.09 312.89 L 198.11 312.86 L 198.28 311.11 L 198.41 311.01 L 198.86 309.24 L 198.93 308.73 L 199.02 308.72 L 199.14 308.53 L 199.15 308.39 L 199.21 308.31 L 199.25 308.26 L 199.32 308.25 L 199.37 308.16 L 199.55 306.72 L 199.69 306.51 L 199.82 306.09 L 199.99 306.05 L 200.19 305.92 L 200.39 304.90 L 200.52 303.48 L 200.81 303.41 L 200.81 302.88 L 200.98 302.70 L 214.65 302.71 L 214.91 302.69 L 215.55 301.94 L 215.69 301.92 L 215.79 301.92 L 215.81 301.74 L 216.05 301.50 L 216.21 301.47 L 216.30 301.33 L 216.40 301.23 L 216.45 301.18 L 216.70 301.11 L 217.19 301.02 L 217.32 300.63 L 217.41 300.54 L 217.53 300.52 L 218.16 300.33 L 218.25 300.22 L 218.29 300.22 L 218.33 300.07 L 218.47 300.01 L 218.58 299.87 L 219.04 298.92 L 219.70 298.77 L 219.94 298.71 L 220.67 298.47 L 221.01 293.89 L 221.13 293.80 L 221.28 293.35 L 221.50 292.75 L 221.83 292.58 L 222.30 292.56 L 222.91 292.55 L 223.01 292.35 L 223.46 292.13 L 223.75 291.81 L 223.84 291.67 L 224.02 291.62 L 224.16 291.21 L 225.77 290.76 L 227.31 290.76 L 241.07 290.72 L 241.16 290.52 L 241.24 290.39 L 241.66 290.20 L 242.95 288.62 L 243.00 288.52 L 243.18 288.11 L 243.82 288.01 L 244.11 286.94 L 244.57 286.93 L 244.68 286.91 L 244.77 286.18 L 245.57 282.02 L 245.67 282.02 L 245.84 281.98 L 246.01 281.93 L 246.10 281.48 L 246.54 279.91 L 246.70 279.62 L 246.77 279.60 L 246.87 278.87 L 247.07 277.85 L 247.15 276.77 L 247.35 276.28 L 247.95 270.87 L 248.01 270.33 L 248.06 270.33 L 248.16 270.23 L 248.30 270.09 L 248.36 270.04 L 248.42 269.98 L 248.71 268.69 L 248.77 267.77 L 249.12 267.59 L 249.33 266.23 L 249.46 265.37 L 250.53 252.76 L 250.65 252.73 L 291.07 252.12 L 291.11 252.12 L 306.56 251.95 L 307.40 251.61 L 307.57 251.61 L 307.80 251.51 L 307.87 251.35 L 307.96 251.31 L 314.66 251.22 L 315.55 248.82 L 315.87 248.60 L 316.05 247.72 L 320.22 247.54 L 320.25 247.30 L 320.51 247.28 L 321.76 245.77 L 321.83 245.49 L 321.98 245.40 L 322.42 245.29 L 322.48 245.25 L 322.65 244.80 L 322.84 244.67 L 322.87 244.34 L 335.86 243.88 L 335.95 242.58 L 336.47 242.30 L 336.48 240.13 L 336.57 239.81 L 336.68 239.28 L 336.82 237.79 L 337.04 237.00 L 337.22 236.08 L 337.39 236.07 L 337.46 235.36 L 337.72 235.29 L 338.62 231.81 L 338.98 231.44 L 339.04 231.22 L 339.12 231.22 L 339.17 230.97 L 339.29 230.12 L 339.66 229.71 L 339.71 229.65 L 339.93 226.59 L 340.02 226.58 L 340.05 226.25 L 340.14 226.00 L 340.19 225.99 L 340.24 225.54 L 340.53 223.88 L 340.65 223.40 L 340.81 223.35 L 340.92 218.91 L 340.96 218.55 L 341.25 216.02 L 341.33 215.83 L 341.38 215.82 L 341.46 215.81 L 341.50 215.46 L 341.54 215.47 L 341.56 215.46 L 341.70 210.99 L 341.75 210.60 L 341.89 210.57 L 341.99 210.50 L 342.28 210.37 L 342.64 210.20 L 342.65 210.20 L 342.75 210.15 L 343.08 210.06 L 343.24 210.06 L 343.40 210.06 L 343.57 208.11 L 343.68 207.64 L 344.14 207.63 L 344.18 207.33 L 344.24 207.32 L 344.27 206.99 L 344.57 204.17 L 344.63 204.10 L 344.84 204.08 L 364.82 204.00 L 365.96 203.86 L 365.99 203.86 L 366.22 203.85 L 366.24 203.86 L 366.38 203.29 L 366.49 203.27 L 366.59 203.00 L 366.73 202.93 L 366.77 202.89 L 366.82 202.86 L 367.03 202.55 L 367.47 202.27 L 367.74 201.36 L 368.05 200.50 L 368.06 200.45 L 368.11 199.65 L 368.15 199.62 L 368.74 199.14 L 368.76 199.08 L 368.85 198.44 L 369.10 198.37 L 369.27 198.31 L 369.30 197.17 L 369.31 197.11 L 369.38 198.20 L 369.43 197.53 L 369.45 197.50 L 369.60 195.98 L 369.61 195.93 L 369.92 195.81 L 370.78 195.78 L 370.98 195.73 L 371.04 195.72 L 371.08 195.52 L 371.13 195.52 L 371.25 194.76 L 384.91 193.30 L 384.93 193.10 L 385.04 192.96 L 385.08 192.68 L 385.16 179.92 L 385.31 174.69 L 385.32 174.66 L 385.57 174.56 L 385.63 174.56 L 385.68 173.96 L 385.90 173.90 L 386.49 172.66 L 386.50 172.63 L 386.65 172.25 L 386.71 172.27 L 386.74 171.65 L 387.23 170.92 L 387.25 170.89 L 387.99 170.61 L 388.09 169.96 L 388.35 169.97 L 388.66 168.32 L 388.74 167.68 L 388.79 167.15 L 388.93 166.52 L 389.32 166.29 L 389.39 166.13 L 389.56 165.99 L 389.74 165.99 L 390.32 165.99 L 390.38 165.99 L 390.51 165.96 L 390.53 165.96 L 390.71 165.98 L 391.14 165.94 L 391.59 165.70 L 391.66 165.70 L 391.76 165.61 L 391.88 165.43 L 392.23 165.43 L 392.81 165.20 L 392.99 164.69 L 393.31 160.29 L 394.56 164.01 L 394.83 164.00 L 395.04 163.98 L 395.35 163.97 L 395.45 163.90 L 395.76 163.69 L 396.26 163.39 L 396.32 163.19 L 396.42 163.10 L 396.47 163.12 L 396.52 163.06 L 396.91 162.78 L 405.96 162.78 L 406.04 162.78 L 406.61 162.77 L 406.66 162.75 L 406.79 162.19 L 406.89 161.87 L 406.91 161.87 L 407.22 161.82 L 407.29 161.79 L 409.15 160.97 L 409.36 160.90 L 409.52 160.88 L 409.56 160.88 L 410.13 160.68 L 410.33 160.78 L 410.37 160.77 L 410.67 160.71 L 411.01 158.98 L 411.05 158.96 L 411.33 158.77 L 411.45 158.77 L 411.56 158.77 L 411.79 158.57 L 412.29 157.87 L 412.39 157.84 L 412.48 157.65 L 412.69 156.82 L 413.18 155.96 L 413.63 151.91 L 413.72 151.42 L 414.17 151.22 L 414.25 151.12 L 414.32 150.92 L 414.37 150.27 L 414.53 149.11 L 414.56 149.15 L 414.64 149.13 L 414.89 149.13 L 415.29 148.70 L 415.53 148.62 L 415.81 148.60 L 415.94 148.58 L 416.21 148.57 L 416.67 148.57 L 417.13 148.56 L 417.47 148.56 L 417.55 148.54 L 417.64 148.53 L 417.65 148.39 L 417.91 148.31 L 417.99 148.29 L 418.10 148.11 L 418.84 148.09 L 418.85 147.74 L 419.06 147.72 L 419.92 147.73 L 420.50 147.52 L 420.92 147.26 L 420.93 147.12 L 420.96 147.11 L 433.64 146.87 L 433.68 146.87 L 433.83 146.85 L 433.89 146.65 L 433.94 146.63 L 433.95 146.62 L 434.49 146.56 L 434.61 145.83 L 434.77 145.66 L 435.04 144.22 L 435.21 144.21 L 435.43 143.59 L 435.55 143.67 L 435.61 143.66 L 435.67 142.96 L 435.83 142.48 L 435.85 141.97 L 435.91 141.90 L 436.05 141.86 L 436.13 141.62 L 436.25 144.38 L 436.40 144.33 L 436.71 143.23 L 436.85 142.96 L 436.97 142.73 L 437.75 141.15 L 438.42 140.38 L 439.22 138.92 L 439.42 138.85 L 439.65 138.85 L 439.90 138.79 L 444.56 138.37 L 444.94 138.33 L 489.10 137.22 L 628.14 136.96 L 628.60 136.51 L 628.92 136.45 L 629.23 136.45 L 629.72 135.60 L 629.88 135.18 L 630.01 134.41 L 630.23 132.19 L 630.55 132.65 L 630.81 132.17 L 630.87 132.16 L 631.08 132.01 L 631.13 132.01 L 631.36 131.20 L 631.57 129.90 L 632.20 128.51 L 632.22 128.40 L 632.40 126.75 L 633.00 122.66 L 633.01 122.52 L 633.13 122.44 L 633.27 120.97 L 633.92 119.01 L 633.93 118.83 L 634.07 118.74 L 634.22 117.77 L 634.47 117.00 L 634.48 116.86 L 634.59 115.36 L 634.61 115.33 L 634.66 114.91 L 634.94 112.25 L 634.97 112.10 L 635.06 111.94 L 635.36 111.59 L 635.42 111.58 L 635.65 111.07 L 636.04 111.13 L 636.10 111.06 L 636.15 111.03 L 636.22 110.99 L 636.41 109.42 L 636.61 108.15 L 636.64 108.04 L 636.76 106.44 L 636.88 104.89 L 636.91 104.70 L 637.03 102.88 L 637.08 101.45 L 637.32 100.48 L 637.36 100.41 L 637.48 100.11 L 637.64 100.09 L 638.64 100.04 L 639.14 100.00 L 650.00 100.06"/>
	</g>
	<g id="poloto_plot1" class="poloto_plot poloto_imgs poloto_line poloto1 poloto_stroke" fill="none" stroke="black">
		<path d=" M 150.00 377.80 L 150.04 377.78 L 150.05 377.77 L 150.07 377.77 L 150.10 377.77 L 150.13 377.06 L 150.28 377.04 L 150.62 377.03 L 151.13 376.76 L 151.38 376.64 L 151.90 376.67 L 151.99 376.62 L 152.05 376.62 L 152.65 376.57 L 153.78 376.44 L 154.13 373.69 L 154.22 373.69 L 154.90 373.63 L 155.68 373.62 L 155.69 373.62 L 155.69 373.62 L 166.25 373.62 L 166.32 373.62 L 166.46 373.61 L 166.51 373.58 L 166.92 373.56 L 167.10 373.56 L 167.54 373.56 L 167.61 373.56 L 167.74 373.54 L 167.87 373.54 L 167.91 373.54 L 168.02 373.51 L 168.14 373.51 L 168.25 373.51 L 168.54 373.36 L 168.80 373.36 L 168.85 373.36 L 168.98 373.36 L 169.81 374.39 L 169.83 374.39 L 169.94 374.37 L 170.42 374.22 L 170.80 374.05 L 171.23 373.97 L 171.32 373.92 L 171.34 373.92 L 171.42 373.92 L 171.58 373.92 L 171.79 373.85 L 172.21 373.79 L 172.23 373.79 L 172.31 373.79 L 172.41 373.77 L 172.65 373.77 L 172.67 373.77 L 172.92 373.75 L 173.01 373.75 L 173.10 373.75 L 173.20 373.75 L 174.49 373.63 L 174.79 373.62 L 175.51 373.57 L 175.66 373.57 L 175.78 373.57 L 175.84 373.57 L 176.33 373.49 L 176.55 373.49 L 176.80 373.38 L 176.93 373.37 L 177.22 373.15 L 177.35 373.07 L 177.53 373.07 L 177.69 373.07 L 178.26 369.86 L 178.28 369.81 L 178.31 369.81 L 178.50 369.49 L 188.29 369.49 L 189.30 368.11 L 189.33 368.11 L 190.53 368.11 L 190.63 368.11 L 190.74 367.96 L 191.04 367.94 L 191.17 367.94 L 191.22 367.94 L 191.37 367.94 L 191.72 367.94 L 191.73 367.64 L 191.86 367.63 L 192.00 367.63 L 192.15 367.60 L 192.34 367.59 L 192.41 367.59 L 192.44 367.59 L 192.61 367.59 L 192.64 367.59 L 192.82 367.59 L 192.85 367.59 L 193.13 366.23 L 193.18 366.23 L 193.28 366.07 L 193.40 366.07 L 193.56 366.07 L 193.63 366.05 L 194.18 366.05 L 194.19 366.05 L 194.29 365.96 L 194.54 365.96 L 194.76 365.18 L 194.83 365.09 L 194.93 365.09 L 194.98 365.09 L 195.11 365.06 L 195.72 359.33 L 195.79 359.38 L 196.00 359.38 L 196.06 359.38 L 196.11 359.37 L 196.21 359.37 L 196.30 359.29 L 196.52 359.29 L 196.67 359.29 L 196.80 359.28 L 196.87 359.28 L 197.42 359.27 L 197.72 359.27 L 197.81 359.13 L 198.07 359.13 L 198.09 359.13 L 198.11 359.13 L 198.28 358.74 L 198.41 358.64 L 198.86 357.28 L 198.93 357.28 L 199.02 357.28 L 199.14 357.30 L 199.15 357.30 L 199.21 357.30 L 199.25 357.30 L 199.32 357.30 L 199.37 357.30 L 199.55 357.27 L 199.69 357.27 L 199.82 357.25 L 199.99 357.25 L 200.19 357.25 L 200.39 356.74 L 200.52 356.57 L 200.81 356.57 L 200.81 356.56 L 200.98 356.56 L 214.65 356.56 L 214.91 356.55 L 215.55 356.46 L 215.69 356.45 L 215.79 356.45 L 215.81 356.45 L 216.05 356.45 L 216.21 356.45 L 216.30 356.45 L 216.40 356.45 L 216.45 356.45 L 216.70 356.45 L 217.19 356.47 L 217.32 356.47 L 217.41 356.47 L 217.53 356.47 L 218.16 356.36 L 218.25 356.31 L 218.29 356.31 L 218.33 356.24 L 218.47 356.23 L 218.58 356.23 L 219.04 355.71 L 219.70 355.71 L 219.94 355.71 L 220.67 355.71 L 221.01 352.20 L 221.13 352.20 L 221.28 352.20 L 221.50 352.19 L 221.83 352.19 L 222.30 352.19 L 222.91 352.19 L 223.01 352.19 L 223.46 352.11 L 223.75 351.96 L 223.84 351.96 L 224.02 351.96 L 224.16 351.94 L 225.77 351.72 L 227.31 351.72 L 241.07 351.72 L 241.16 351.72 L 241.24 351.72 L 241.66 351.72 L 242.95 350.61 L 243.00 350.58 L 243.18 350.46 L 243.82 350.46 L 244.11 350.19 L 244.57 350.19 L 244.68 350.19 L 244.77 350.19 L 245.57 347.11 L 245.67 347.11 L 245.84 347.11 L 246.01 347.11 L 246.10 346.92 L 246.54 346.54 L 246.70 346.54 L 246.77 346.54 L 246.87 345.98 L 247.07 345.41 L 247.15 345.41 L 247.35 345.40 L 247.95 340.81 L 248.01 340.81 L 248.06 340.81 L 248.16 340.81 L 248.30 340.81 L 248.36 340.81 L 248.42 340.81 L 248.71 340.81 L 248.77 340.71 L 249.12 340.69 L 249.33 340.63 L 249.46 340.07 L 250.53 330.94 L 250.65 330.94 L 291.07 330.94 L 291.11 330.94 L 306.56 330.94 L 307.40 330.80 L 307.57 330.80 L 307.80 330.80 L 307.87 330.80 L 307.96 330.80 L 314.66 330.73 L 315.55 330.65 L 315.87 330.65 L 316.05 330.62 L 320.22 330.54 L 320.25 330.42 L 320.51 330.42 L 321.76 329.18 L 321.83 329.18 L 321.98 329.18 L 322.42 329.18 L 322.48 329.18 L 322.65 329.18 L 322.84 329.18 L 322.87 329.18 L 335.86 329.16 L 335.95 328.94 L 336.47 328.94 L 336.48 327.45 L 336.57 327.45 L 336.68 327.45 L 336.82 327.31 L 337.04 327.31 L 337.22 327.25 L 337.39 327.25 L 337.46 327.25 L 337.72 327.23 L 338.62 324.69 L 338.98 324.69 L 339.04 324.68 L 339.12 324.68 L 339.17 324.68 L 339.29 324.64 L 339.66 324.32 L 339.71 324.28 L 339.93 322.00 L 340.02 321.99 L 340.05 321.99 L 340.14 321.96 L 340.19 321.96 L 340.24 321.96 L 340.53 320.72 L 340.65 320.70 L 340.81 320.67 L 340.92 316.82 L 340.96 316.82 L 341.25 314.65 L 341.33 314.65 L 341.38 314.64 L 341.46 314.64 L 341.50 314.64 L 341.54 314.64 L 341.56 314.64 L 341.70 310.63 L 341.75 310.63 L 341.89 310.61 L 341.99 310.61 L 342.28 310.53 L 342.64 310.42 L 342.65 310.42 L 342.75 310.40 L 343.08 310.34 L 343.24 310.34 L 343.40 310.34 L 343.57 308.61 L 343.68 308.61 L 344.14 308.60 L 344.18 308.59 L 344.24 308.59 L 344.27 308.59 L 344.57 306.12 L 344.63 306.12 L 344.84 306.11 L 364.82 306.11 L 365.96 306.09 L 365.99 306.09 L 366.22 306.09 L 366.24 306.09 L 366.38 306.09 L 366.49 306.09 L 366.59 305.97 L 366.73 305.97 L 366.77 305.97 L 366.82 305.97 L 367.03 305.74 L 367.47 305.60 L 367.74 305.46 L 368.05 304.76 L 368.06 304.76 L 368.11 304.58 L 368.15 304.56 L 368.74 304.13 L 368.76 304.13 L 368.85 304.07 L 369.10 304.07 L 369.27 304.03 L 369.30 303.01 L 369.31 303.01 L 369.38 304.02 L 369.43 303.96 L 369.45 303.95 L 369.60 302.57 L 369.61 302.57 L 369.92 302.52 L 370.78 302.52 L 370.98 302.52 L 371.04 302.52 L 371.08 302.52 L 371.13 302.52 L 371.25 302.43 L 384.91 301.28 L 384.93 301.28 L 385.04 301.28 L 385.08 301.03 L 385.16 288.84 L 385.31 284.31 L 385.32 284.31 L 385.57 284.22 L 385.63 284.22 L 385.68 284.20 L 385.90 284.20 L 386.49 283.10 L 386.50 283.10 L 386.65 283.04 L 386.71 283.04 L 386.74 282.94 L 387.23 282.28 L 387.25 282.28 L 387.99 282.14 L 388.09 282.10 L 388.35 282.11 L 388.66 280.61 L 388.74 280.46 L 388.79 280.32 L 388.93 279.76 L 389.32 279.62 L 389.39 279.50 L 389.56 279.50 L 389.74 279.50 L 390.32 279.50 L 390.38 279.50 L 390.51 279.50 L 390.53 279.50 L 390.71 279.52 L 391.14 279.52 L 391.59 279.36 L 391.66 279.36 L 391.76 279.35 L 391.88 279.35 L 392.23 279.35 L 392.81 279.35 L 392.99 279.21 L 393.31 275.28 L 394.56 278.99 L 394.83 278.97 L 395.04 278.96 L 395.35 278.96 L 395.45 278.92 L 395.76 278.89 L 396.26 278.67 L 396.32 278.67 L 396.42 278.67 L 396.47 278.67 L 396.52 278.67 L 396.91 278.45 L 405.96 278.45 L 406.04 278.46 L 406.61 278.44 L 406.66 278.44 L 406.79 278.40 L 406.89 278.13 L 406.91 278.13 L 407.22 278.10 L 407.29 278.10 L 409.15 277.87 L 409.36 277.87 L 409.52 277.87 L 409.56 277.87 L 410.13 277.71 L 410.33 277.71 L 410.37 277.71 L 410.67 277.70 L 411.01 276.77 L 411.05 276.77 L 411.33 276.62 L 411.45 276.62 L 411.56 276.62 L 411.79 276.62 L 412.29 276.60 L 412.39 276.58 L 412.48 276.49 L 412.69 276.33 L 413.18 276.19 L 413.63 272.48 L 413.72 272.35 L 414.17 272.18 L 414.25 272.13 L 414.32 272.00 L 414.37 271.74 L 414.53 270.63 L 414.56 270.68 L 414.64 270.65 L 414.89 270.65 L 415.29 270.50 L 415.53 270.44 L 415.81 270.42 L 415.94 270.41 L 416.21 270.39 L 416.67 270.39 L 417.13 270.38 L 417.47 270.38 L 417.55 270.37 L 417.64 270.37 L 417.65 270.36 L 417.91 270.36 L 417.99 270.35 L 418.10 270.21 L 418.84 270.20 L 418.85 270.20 L 419.06 270.18 L 419.92 270.18 L 420.50 269.99 L 420.92 269.84 L 420.93 269.84 L 420.96 269.83 L 433.64 269.83 L 433.68 269.83 L 433.83 269.83 L 433.89 269.83 L 433.94 269.81 L 433.95 269.81 L 434.49 269.81 L 434.61 269.80 L 434.77 269.77 L 435.04 269.75 L 435.21 269.75 L 435.43 269.66 L 435.55 269.66 L 435.61 269.66 L 435.67 269.66 L 435.83 269.32 L 435.85 269.32 L 435.91 269.32 L 436.05 269.32 L 436.13 269.32 L 436.25 269.40 L 436.40 269.40 L 436.71 269.39 L 436.85 269.39 L 436.97 269.39 L 437.75 268.30 L 438.42 268.00 L 439.22 267.22 L 439.42 267.22 L 439.65 267.22 L 439.90 267.22 L 444.56 267.13 L 444.94 267.12 L 489.10 266.99 L 628.14 266.78 L 628.60 266.72 L 628.92 266.71 L 629.23 266.71 L 629.72 266.21 L 629.88 266.21 L 630.01 266.21 L 630.23 264.38 L 630.55 264.73 L 630.81 264.70 L 630.87 264.70 L 631.08 264.69 L 631.13 264.69 L 631.36 264.68 L 631.57 264.60 L 632.20 263.44 L 632.22 263.44 L 632.40 263.34 L 633.00 259.60 L 633.01 259.60 L 633.13 259.60 L 633.27 259.54 L 633.92 257.80 L 633.93 257.80 L 634.07 257.80 L 634.22 257.75 L 634.47 257.12 L 634.48 257.12 L 634.59 257.11 L 634.61 257.11 L 634.66 256.76 L 634.94 254.28 L 634.97 254.28 L 635.06 254.28 L 635.36 254.07 L 635.42 254.07 L 635.65 253.67 L 636.04 253.67 L 636.10 253.67 L 636.15 253.67 L 636.22 253.67 L 636.41 253.65 L 636.61 252.54 L 636.64 252.54 L 636.76 252.53 L 636.88 251.69 L 636.91 251.69 L 637.03 250.79 L 637.08 250.74 L 637.32 249.85 L 637.36 249.85 L 637.48 249.85 L 637.64 249.84 L 638.64 249.84 L 639.14 249.83 L 650.00 249.83"/>
	</g>
	<g id="poloto_plot2" class="poloto_plot poloto_imgs poloto_line poloto2 poloto_stroke" fill="none" stroke="black">
		<path d=" M 150.00 390.04 L 150.04 390.03 L 150.05 390.03 L 150.07 390.03 L 150.10 390.03 L 150.13 387.48 L 150.28 387.13 L 150.62 387.13 L 151.13 387.11 L 151.38 385.59 L 151.90 385.45 L 151.99 385.41 L 152.05 385.37 L 152.65 384.68 L 153.78 384.15 L 154.13 384.05 L 154.22 384.05 L 154.90 384.01 L 155.68 384.01 L 155.69 384.01 L 155.69 384.01 L 166.25 384.01 L 166.32 384.01 L 166.46 383.99 L 166.51 383.99 L 166.92 383.83 L 167.10 383.79 L 167.54 383.54 L 167.61 383.43 L 167.74 383.20 L 167.87 383.17 L 167.91 383.17 L 168.02 383.13 L 168.14 383.13 L 168.25 383.13 L 168.54 382.88 L 168.80 382.64 L 168.85 382.64 L 168.98 382.51 L 169.81 382.20 L 169.83 382.20 L 169.94 382.10 L 170.42 381.76 L 170.80 381.35 L 171.23 381.18 L 171.32 381.18 L 171.34 381.18 L 171.42 380.95 L 171.58 380.95 L 171.79 380.92 L 172.21 380.75 L 172.23 380.45 L 172.31 380.45 L 172.41 380.30 L 172.65 380.30 L 172.67 380.30 L 172.92 379.85 L 173.01 379.83 L 173.10 379.79 L 173.20 379.58 L 174.49 379.46 L 174.79 379.41 L 175.51 379.10 L 175.66 379.11 L 175.78 379.09 L 175.84 378.86 L 176.33 377.61 L 176.55 377.59 L 176.80 377.22 L 176.93 377.18 L 177.22 377.01 L 177.35 376.95 L 177.53 376.69 L 177.69 376.47 L 178.26 376.47 L 178.28 376.44 L 178.31 376.26 L 178.50 375.06 L 188.29 374.93 L 189.30 374.57 L 189.33 374.52 L 190.53 374.22 L 190.63 374.21 L 190.74 373.99 L 191.04 373.84 L 191.17 373.57 L 191.22 373.34 L 191.37 372.89 L 191.72 372.88 L 191.73 372.88 L 191.86 372.57 L 192.00 372.56 L 192.15 372.24 L 192.34 371.98 L 192.41 371.84 L 192.44 371.83 L 192.61 371.53 L 192.64 371.52 L 192.82 371.25 L 192.85 371.24 L 193.13 371.14 L 193.18 371.14 L 193.28 371.04 L 193.40 371.02 L 193.56 371.02 L 193.63 371.00 L 194.18 370.73 L 194.19 370.74 L 194.29 370.20 L 194.54 370.18 L 194.76 370.01 L 194.83 370.01 L 194.93 370.00 L 194.98 369.96 L 195.11 369.22 L 195.72 368.59 L 195.79 368.25 L 196.00 368.22 L 196.06 368.13 L 196.11 368.12 L 196.21 367.96 L 196.30 367.37 L 196.52 367.28 L 196.67 367.26 L 196.80 366.97 L 196.87 366.96 L 197.42 366.74 L 197.72 366.58 L 197.81 366.45 L 198.07 366.44 L 198.09 366.44 L 198.11 366.41 L 198.28 365.34 L 198.41 365.33 L 198.86 365.18 L 198.93 364.75 L 199.02 364.75 L 199.14 364.57 L 199.15 364.47 L 199.21 364.40 L 199.25 364.36 L 199.32 364.35 L 199.37 364.27 L 199.55 363.07 L 199.69 362.95 L 199.82 362.59 L 199.99 362.57 L 200.19 362.45 L 200.39 362.07 L 200.52 361.03 L 200.81 360.96 L 200.81 360.51 L 200.98 360.40 L 214.65 360.41 L 214.91 360.40 L 215.55 359.91 L 215.69 359.91 L 215.79 359.91 L 215.81 359.78 L 216.05 359.57 L 216.21 359.54 L 216.30 359.41 L 216.40 359.32 L 216.45 359.28 L 216.70 359.21 L 217.19 359.31 L 217.32 358.98 L 217.41 358.89 L 217.53 358.88 L 218.16 358.82 L 218.25 358.76 L 218.29 358.76 L 218.33 358.70 L 218.47 358.64 L 218.58 358.52 L 219.04 358.21 L 219.70 358.08 L 219.94 358.02 L 220.67 357.82 L 221.01 357.34 L 221.13 357.26 L 221.28 356.88 L 221.50 356.39 L 221.83 356.26 L 222.30 356.25 L 222.91 356.23 L 223.01 356.05 L 223.46 355.93 L 223.75 355.78 L 223.84 355.65 L 224.02 355.60 L 224.16 355.28 L 225.77 355.12 L 227.31 355.12 L 241.07 355.08 L 241.16 354.90 L 241.24 354.78 L 241.66 354.60 L 242.95 354.28 L 243.00 354.23 L 243.18 354.00 L 243.82 353.91 L 244.11 353.28 L 244.57 353.27 L 244.68 353.25 L 244.77 352.63 L 245.57 352.05 L 245.67 352.04 L 245.84 352.01 L 246.01 351.95 L 246.10 351.74 L 246.54 350.78 L 246.70 350.53 L 246.77 350.51 L 246.87 350.41 L 247.07 350.03 L 247.15 349.06 L 247.35 348.67 L 247.95 348.44 L 248.01 347.95 L 248.06 347.95 L 248.16 347.87 L 248.30 347.74 L 248.36 347.70 L 248.42 347.65 L 248.71 346.53 L 248.77 345.86 L 249.12 345.74 L 249.33 344.61 L 249.46 344.40 L 250.53 342.63 L 250.65 342.60 L 291.07 342.08 L 291.11 342.08 L 306.56 341.94 L 307.40 341.75 L 307.57 341.75 L 307.80 341.66 L 307.87 341.52 L 307.96 341.48 L 314.66 341.47 L 315.55 339.44 L 315.87 339.26 L 316.05 338.56 L 320.22 338.47 L 320.25 338.41 L 320.51 338.40 L 321.76 338.27 L 321.83 338.04 L 321.98 337.95 L 322.42 337.85 L 322.48 337.82 L 322.65 337.43 L 322.84 337.31 L 322.87 337.01 L 335.86 336.63 L 335.95 335.70 L 336.47 335.46 L 336.48 335.11 L 336.57 334.83 L 336.68 334.41 L 336.82 333.29 L 337.04 332.68 L 337.22 331.89 L 337.39 331.89 L 337.46 331.28 L 337.72 331.23 L 338.62 330.66 L 338.98 330.39 L 339.04 330.22 L 339.12 330.22 L 339.17 330.02 L 339.29 329.33 L 339.66 329.26 L 339.71 329.25 L 339.93 328.80 L 340.02 328.80 L 340.05 328.54 L 340.14 328.38 L 340.19 328.38 L 340.24 328.01 L 340.53 327.80 L 340.65 327.44 L 340.81 327.43 L 340.92 327.23 L 340.96 326.96 L 341.25 326.81 L 341.33 326.65 L 341.38 326.65 L 341.46 326.65 L 341.50 326.37 L 341.54 326.38 L 341.56 326.37 L 341.70 326.28 L 341.75 325.97 L 341.89 325.97 L 341.99 325.89 L 342.28 325.87 L 342.64 325.83 L 342.65 325.83 L 342.75 325.81 L 343.08 325.81 L 343.24 325.81 L 343.40 325.81 L 343.57 325.76 L 343.68 325.39 L 344.14 325.39 L 344.18 325.17 L 344.24 325.17 L 344.27 324.92 L 344.57 324.83 L 344.63 324.77 L 344.84 324.77 L 364.82 324.70 L 365.96 324.60 L 365.99 324.60 L 366.22 324.60 L 366.24 324.60 L 366.38 324.16 L 366.49 324.15 L 366.59 324.03 L 366.73 323.96 L 366.77 323.92 L 366.82 323.90 L 367.03 323.86 L 367.47 323.77 L 367.74 323.18 L 368.05 323.15 L 368.06 323.11 L 368.11 322.62 L 368.15 322.62 L 368.74 322.62 L 368.76 322.57 L 368.85 322.12 L 369.10 322.06 L 369.27 322.04 L 369.30 322.03 L 369.31 321.98 L 369.38 321.95 L 369.43 321.48 L 369.45 321.47 L 369.60 321.47 L 369.61 321.43 L 369.92 321.39 L 370.78 321.37 L 370.98 321.33 L 371.04 321.32 L 371.08 321.17 L 371.13 321.17 L 371.25 320.65 L 384.91 320.48 L 384.93 320.33 L 385.04 320.23 L 385.08 320.21 L 385.16 319.77 L 385.31 319.66 L 385.32 319.63 L 385.57 319.63 L 385.63 319.63 L 385.68 319.19 L 385.90 319.13 L 386.49 319.12 L 386.50 319.09 L 386.65 318.85 L 386.71 318.86 L 386.74 318.44 L 387.23 318.44 L 387.25 318.42 L 387.99 318.32 L 388.09 317.83 L 388.35 317.83 L 388.66 317.83 L 388.74 317.47 L 388.79 317.19 L 388.93 317.18 L 389.32 317.12 L 389.39 317.09 L 389.56 316.98 L 389.74 316.98 L 390.32 316.98 L 390.38 316.98 L 390.51 316.96 L 390.53 316.95 L 390.71 316.95 L 391.14 316.92 L 391.59 316.87 L 391.66 316.87 L 391.76 316.82 L 391.88 316.69 L 392.23 316.69 L 392.81 316.53 L 392.99 316.25 L 393.31 316.22 L 394.56 315.92 L 394.83 315.92 L 395.04 315.92 L 395.35 315.91 L 395.45 315.89 L 395.76 315.74 L 396.26 315.72 L 396.32 315.58 L 396.42 315.52 L 396.47 315.53 L 396.52 315.48 L 396.91 315.46 L 405.96 315.46 L 406.04 315.46 L 406.61 315.46 L 406.66 315.44 L 406.79 315.03 L 406.89 315.01 L 406.91 315.01 L 407.22 315.00 L 407.29 314.98 L 409.15 314.38 L 409.36 314.31 L 409.52 314.30 L 409.56 314.30 L 410.13 314.28 L 410.33 314.37 L 410.37 314.36 L 410.67 314.32 L 411.01 313.75 L 411.05 313.74 L 411.33 313.72 L 411.45 313.72 L 411.56 313.72 L 411.79 313.61 L 412.29 313.08 L 412.39 313.08 L 412.48 313.01 L 412.69 312.54 L 413.18 312.01 L 413.63 312.05 L 413.72 311.77 L 414.17 311.77 L 414.25 311.74 L 414.32 311.71 L 414.37 311.43 L 414.53 311.43 L 414.56 311.43 L 414.64 311.43 L 414.89 311.43 L 415.29 311.20 L 415.53 311.18 L 415.81 311.18 L 415.94 311.18 L 416.21 311.18 L 416.67 311.18 L 417.13 311.18 L 417.47 311.18 L 417.55 311.17 L 417.64 311.17 L 417.65 311.07 L 417.91 311.00 L 417.99 311.00 L 418.10 310.99 L 418.84 310.98 L 418.85 310.71 L 419.06 310.71 L 419.92 310.72 L 420.50 310.71 L 420.92 310.65 L 420.93 310.54 L 420.96 310.54 L 433.64 310.36 L 433.68 310.36 L 433.83 310.34 L 433.89 310.18 L 433.94 310.18 L 433.95 310.17 L 434.49 310.12 L 434.61 309.57 L 434.77 309.45 L 435.04 308.37 L 435.21 308.36 L 435.43 307.90 L 435.55 307.95 L 435.61 307.94 L 435.67 307.36 L 435.83 307.25 L 435.85 306.85 L 435.91 306.79 L 436.05 306.75 L 436.13 306.54 L 436.25 308.97 L 436.40 308.93 L 436.71 307.95 L 436.85 307.74 L 436.97 307.52 L 437.75 307.14 L 438.42 306.73 L 439.22 306.16 L 439.42 306.10 L 439.65 306.10 L 439.90 306.05 L 444.56 305.76 L 444.94 305.73 L 489.10 304.98 L 628.14 304.95 L 628.60 304.61 L 628.92 304.55 L 629.23 304.55 L 629.72 304.25 L 629.88 303.89 L 630.01 303.22 L 630.23 303.04 L 630.55 303.11 L 630.81 302.72 L 630.87 302.71 L 631.08 302.59 L 631.13 302.59 L 631.36 301.95 L 631.57 300.95 L 632.20 300.85 L 632.22 300.75 L 632.40 299.47 L 633.00 299.42 L 633.01 299.30 L 633.13 299.22 L 633.27 298.06 L 633.92 298.00 L 633.93 297.83 L 634.07 297.75 L 634.22 296.99 L 634.47 296.97 L 634.48 296.84 L 634.59 295.57 L 634.61 295.54 L 634.66 295.50 L 634.94 295.50 L 634.97 295.37 L 635.06 295.28 L 635.36 295.16 L 635.42 295.15 L 635.65 295.09 L 636.04 295.13 L 636.10 295.08 L 636.15 295.05 L 636.22 295.01 L 636.41 293.69 L 636.61 293.66 L 636.64 293.55 L 636.76 292.20 L 636.88 291.71 L 636.91 291.54 L 637.03 290.88 L 637.08 289.74 L 637.32 289.72 L 637.36 289.66 L 637.48 289.42 L 637.64 289.42 L 638.64 289.38 L 639.14 289.35 L 650.00 289.40"/>
	</g>
	<g class="poloto_legend poloto_imgs poloto_line poloto0 poloto_stroke"><line x1="680" x2="730" y1="81.25" y2="81.25"/></g>
	<g class="poloto_legend poloto_imgs poloto_line poloto1 poloto_stroke"><line x1="680" x2="730" y1="131.25" y2="131.25"/></g>
	<g class="poloto_legend poloto_imgs poloto_line poloto2 poloto_stroke"><line x1="680" x2="730" y1="181.25" y2="181.25"/></g>
	<text class="poloto_legend poloto_text poloto_line poloto0" x="675" y="100">total</text>
	<text class="poloto_legend poloto_text poloto_line poloto1" x="675" y="150">code</text>
	<text class="poloto_legend poloto_text poloto_line poloto2" x="675" y="200">docs</text>
	<text class="poloto_text poloto_name poloto_title" x="400.00" y="37.50">Workspace lines over time</text>
	<text class="poloto_text poloto_name poloto_x" x="400.00" y="640">date (JST)</text>
	<text class="poloto_text poloto_name poloto_y" x="37.50" y="250.00" transform="rotate(-90,37.50,250.00)">lines</text>
	<text class="poloto_text poloto_ticks poloto_y">
		<tspan x="135.00" y="400.00">0</tspan>
		<tspan x="135.00" y="305.30">50K</tspan>
		<tspan x="135.00" y="210.61">100K</tspan>
		<tspan x="135.00" y="115.91">150K</tspan>
	</text>
	<g class="poloto_imgs poloto_ticks poloto_y" stroke="black">
		<line x1="150.00" x2="144.00" y1="400.00" y2="400.00"/>
		<line x1="150.00" x2="144.00" y1="305.30" y2="305.30"/>
		<line x1="150.00" x2="144.00" y1="210.61" y2="210.61"/>
		<line x1="150.00" x2="144.00" y1="115.91" y2="115.91"/>
	</g>
	<g class="poloto_text poloto_ticks poloto_x">
		<text x="184.93" y="430.00" text-anchor="end" transform="rotate(-90 184.93 430.00)">2026-04-22 04:33</text>
		<text x="240.89" y="430.00" text-anchor="end" transform="rotate(-90 240.89 430.00)">2026-04-24 12:06</text>
		<text x="296.85" y="430.00" text-anchor="end" transform="rotate(-90 296.85 430.00)">2026-04-26 19:40</text>
		<text x="352.82" y="430.00" text-anchor="end" transform="rotate(-90 352.82 430.00)">2026-04-29 03:13</text>
		<text x="408.78" y="430.00" text-anchor="end" transform="rotate(-90 408.78 430.00)">2026-05-01 10:46</text>
		<text x="464.74" y="430.00" text-anchor="end" transform="rotate(-90 464.74 430.00)">2026-05-03 18:20</text>
		<text x="520.71" y="430.00" text-anchor="end" transform="rotate(-90 520.71 430.00)">2026-05-06 01:53</text>
		<text x="576.67" y="430.00" text-anchor="end" transform="rotate(-90 576.67 430.00)">2026-05-08 09:26</text>
		<text x="632.63" y="430.00" text-anchor="end" transform="rotate(-90 632.63 430.00)">2026-05-10 17:00</text>
	</g>
	<g class="poloto_imgs poloto_ticks poloto_x" stroke="black">
		<line x1="184.93" x2="184.93" y1="400.00" y2="405.00"/>
		<line x1="240.89" x2="240.89" y1="400.00" y2="405.00"/>
		<line x1="296.85" x2="296.85" y1="400.00" y2="405.00"/>
		<line x1="352.82" x2="352.82" y1="400.00" y2="405.00"/>
		<line x1="408.78" x2="408.78" y1="400.00" y2="405.00"/>
		<line x1="464.74" x2="464.74" y1="400.00" y2="405.00"/>
		<line x1="520.71" x2="520.71" y1="400.00" y2="405.00"/>
		<line x1="576.67" x2="576.67" y1="400.00" y2="405.00"/>
		<line x1="632.63" x2="632.63" y1="400.00" y2="405.00"/>
	</g>
	<path class="poloto_imgs poloto_ticks poloto_x" stroke="black" style="stroke-dasharray:6.995425551323478;stroke-dashoffset:-34.92760014371015;" d=" M 150.00 400.00 L 650.00 400.00"/>
	<path class="poloto_imgs poloto_ticks poloto_y" stroke="black" style="stroke-dasharray:9.469517622772297;stroke-dashoffset:-0;" d=" M 150.00 400.00 L 150.00 100.00"/>
</svg>

