<svg class="poloto" width="800" height="680" viewBox="0 0 800 680" xmlns="http://www.w3.org/2000/svg">
	<style>
.poloto{
  stroke-linecap:round;
  stroke-linejoin:round;
  font-family:Roboto,sans-serif;
  font-size:16px;
}
.poloto_background{fill:AliceBlue;}
.poloto_scatter{stroke-width:7}
.poloto_line{stroke-width:2}
.poloto_text{fill: black;}
.poloto_name{font-size:24px;dominant-baseline:auto;text-anchor:middle;}
.poloto_where{dominant-baseline:middle;text-anchor:start}
.poloto_text.poloto_legend{font-size:20px;dominant-baseline:middle;text-anchor:start;}
.poloto_text.poloto_ticks.poloto_y{dominant-baseline:middle;text-anchor:end}
.poloto_text.poloto_ticks.poloto_x{dominant-baseline:auto;text-anchor:middle}
.poloto_imgs.poloto_ticks{stroke: black;stroke-width:3;fill:none;stroke-dasharray:none}
.poloto_grid{stroke:gray;stroke-width:0.5}

.poloto0.poloto_stroke{stroke:blue;}
.poloto1.poloto_stroke{stroke:red;}
.poloto2.poloto_stroke{stroke:green;}
.poloto3.poloto_stroke{stroke:gold;}
.poloto4.poloto_stroke{stroke:aqua;}
.poloto5.poloto_stroke{stroke:lime;}
.poloto6.poloto_stroke{stroke:orange;}
.poloto7.poloto_stroke{stroke:chocolate;}
.poloto0.poloto_fill{fill:blue;}
.poloto1.poloto_fill{fill:red;}
.poloto2.poloto_fill{fill:green;}
.poloto3.poloto_fill{fill:gold;}
.poloto4.poloto_fill{fill:aqua;}
.poloto5.poloto_fill{fill:lime;}
.poloto6.poloto_fill{fill:orange;}
.poloto7.poloto_fill{fill:chocolate;}
	</style>
	<circle r="1e5" class="poloto_background" fill="white"/>
	<g id="poloto_plot0" class="poloto_plot poloto_imgs poloto_line poloto0 poloto_stroke" fill="none" stroke="black">
		<path d=" M 150.00 364.99 L 150.03 364.96 L 150.05 364.94 L 150.06 364.94 L 150.09 364.94 L 150.13 361.14 L 150.27 360.68 L 150.59 360.66 L 151.06 360.35 L 151.31 358.41 L 151.79 358.30 L 151.88 358.19 L 151.94 358.15 L 152.50 357.21 L 153.56 356.44 L 153.90 353.46 L 153.98 353.46 L 154.62 353.35 L 155.36 353.33 L 155.37 353.33 L 155.37 353.33 L 165.32 353.33 L 165.39 353.33 L 165.52 353.30 L 165.57 353.27 L 165.95 353.10 L 166.12 353.05 L 166.54 352.77 L 166.61 352.65 L 166.73 352.38 L 166.85 352.34 L 166.89 352.34 L 166.99 352.27 L 167.10 352.27 L 167.21 352.27 L 167.49 351.83 L 167.73 351.56 L 167.78 351.56 L 167.90 351.39 L 168.69 352.08 L 168.70 352.08 L 168.80 351.96 L 169.25 351.45 L 169.62 350.84 L 170.02 350.58 L 170.11 350.53 L 170.12 350.53 L 170.20 350.29 L 170.35 350.29 L 170.55 350.21 L 170.94 349.98 L 170.97 349.62 L 171.04 349.62 L 171.13 349.44 L 171.36 349.44 L 171.38 349.44 L 171.61 348.93 L 171.70 348.90 L 171.79 348.86 L 171.88 348.65 L 173.09 348.38 L 173.38 348.32 L 174.06 347.96 L 174.20 347.96 L 174.31 347.95 L 174.37 347.69 L 174.83 346.18 L 175.04 346.15 L 175.28 345.65 L 175.39 345.60 L 175.67 345.18 L 175.80 345.03 L 175.96 344.76 L 176.12 344.52 L 176.65 341.05 L 176.67 340.96 L 176.69 340.75 L 176.88 339.08 L 186.11 338.96 L 187.06 337.06 L 187.09 337.01 L 188.22 336.71 L 188.32 336.70 L 188.42 336.33 L 188.70 336.14 L 188.83 335.81 L 188.87 335.53 L 189.01 335.03 L 189.34 335.02 L 189.35 334.68 L 189.48 334.31 L 189.61 334.31 L 189.75 333.89 L 189.93 333.59 L 190.00 333.44 L 190.02 333.43 L 190.18 333.10 L 190.21 333.10 L 190.38 332.77 L 190.41 332.76 L 190.68 331.19 L 190.72 331.19 L 190.81 330.93 L 190.93 330.92 L 191.08 330.92 L 191.14 330.88 L 191.66 330.59 L 191.67 330.60 L 191.77 329.90 L 192.00 329.88 L 192.21 328.84 L 192.27 328.75 L 192.37 328.74 L 192.42 328.70 L 192.54 327.89 L 193.12 321.07 L 193.18 320.74 L 193.38 320.71 L 193.44 320.63 L 193.48 320.60 L 193.58 320.42 L 193.67 319.65 L 193.87 319.49 L 194.02 319.47 L 194.13 319.13 L 194.20 319.12 L 194.72 318.87 L 195.00 318.68 L 195.09 318.37 L 195.33 318.36 L 195.35 318.36 L 195.37 318.33 L 195.53 316.69 L 195.65 316.59 L 196.08 314.94 L 196.15 314.46 L 196.23 314.45 L 196.34 314.27 L 196.35 314.14 L 196.41 314.06 L 196.45 314.02 L 196.51 314.01 L 196.56 313.93 L 196.73 312.58 L 196.86 312.38 L 196.98 311.98 L 197.14 311.95 L 197.33 311.83 L 197.52 310.87 L 197.65 309.54 L 197.92 309.47 L 197.92 308.97 L 198.08 308.81 L 210.97 308.81 L 211.21 308.80 L 211.82 308.10 L 211.94 308.08 L 212.05 308.08 L 212.07 307.90 L 212.29 307.69 L 212.44 307.65 L 212.53 307.52 L 212.62 307.43 L 212.67 307.38 L 212.90 307.32 L 213.37 307.23 L 213.48 306.87 L 213.57 306.78 L 213.68 306.77 L 214.28 306.59 L 214.36 306.48 L 214.40 306.48 L 214.44 306.35 L 214.57 306.28 L 214.67 306.15 L 215.10 305.26 L 215.73 305.12 L 215.95 305.07 L 216.64 304.84 L 216.97 300.55 L 217.08 300.46 L 217.23 300.04 L 217.43 299.48 L 217.74 299.32 L 218.18 299.31 L 218.76 299.29 L 218.85 299.10 L 219.28 298.91 L 219.55 298.60 L 219.64 298.47 L 219.81 298.42 L 219.93 298.04 L 221.46 297.62 L 222.91 297.62 L 235.88 297.58 L 235.97 297.39 L 236.04 297.27 L 236.44 297.09 L 237.66 295.61 L 237.71 295.51 L 237.88 295.13 L 238.47 295.04 L 238.76 294.04 L 239.18 294.03 L 239.28 294.01 L 239.38 293.33 L 240.13 289.43 L 240.22 289.42 L 240.38 289.39 L 240.55 289.34 L 240.62 288.92 L 241.04 287.45 L 241.19 287.17 L 241.26 287.15 L 241.36 286.47 L 241.55 285.52 L 241.62 284.50 L 241.81 284.05 L 242.37 278.98 L 242.43 278.47 L 242.48 278.47 L 242.57 278.38 L 242.71 278.25 L 242.76 278.20 L 242.81 278.14 L 243.09 276.93 L 243.15 276.07 L 243.48 275.90 L 243.67 274.62 L 243.80 273.82 L 244.80 262.00 L 244.92 261.97 L 283.04 261.41 L 283.07 261.41 L 297.64 261.24 L 298.44 260.92 L 298.60 260.92 L 298.81 260.83 L 298.88 260.68 L 298.97 260.64 L 305.29 260.56 L 306.12 258.31 L 306.43 258.11 L 306.59 257.28 L 310.53 257.11 L 310.55 256.89 L 310.80 256.87 L 311.98 255.45 L 312.04 255.19 L 312.19 255.10 L 312.60 255.00 L 312.66 254.97 L 312.82 254.54 L 313.00 254.42 L 313.03 254.11 L 325.27 253.68 L 325.36 252.46 L 325.85 252.20 L 325.86 250.17 L 325.94 249.87 L 326.05 249.37 L 326.18 247.97 L 326.39 247.23 L 326.56 246.36 L 326.72 246.36 L 326.79 245.69 L 327.03 245.63 L 327.88 242.37 L 328.22 242.02 L 328.28 241.82 L 328.35 241.81 L 328.39 241.58 L 328.51 240.78 L 328.86 240.40 L 328.91 240.35 L 329.12 237.47 L 329.20 237.46 L 329.23 237.16 L 329.31 236.92 L 329.36 236.92 L 329.41 236.49 L 329.68 234.93 L 329.80 234.49 L 329.94 234.43 L 330.05 230.28 L 330.09 229.94 L 330.36 227.57 L 330.43 227.39 L 330.48 227.38 L 330.55 227.38 L 330.60 227.04 L 330.63 227.05 L 330.65 227.05 L 330.79 222.85 L 330.83 222.49 L 330.96 222.46 L 331.06 222.39 L 331.33 222.27 L 331.67 222.11 L 331.68 222.11 L 331.78 222.06 L 332.09 221.98 L 332.24 221.98 L 332.39 221.98 L 332.55 220.15 L 332.65 219.72 L 333.08 219.71 L 333.12 219.42 L 333.18 219.42 L 333.21 219.11 L 333.49 216.46 L 333.54 216.40 L 333.75 216.38 L 352.59 216.30 L 353.66 216.17 L 353.69 216.17 L 353.91 216.17 L 353.92 216.17 L 354.06 215.64 L 354.17 215.62 L 354.26 215.36 L 354.39 215.30 L 354.42 215.26 L 354.47 215.24 L 354.67 214.94 L 355.08 214.68 L 355.34 213.83 L 355.63 213.02 L 355.64 212.98 L 355.69 212.22 L 355.73 212.20 L 356.29 211.75 L 356.30 211.70 L 356.39 211.10 L 356.63 211.03 L 356.78 210.97 L 356.81 209.90 L 356.82 209.85 L 356.89 210.86 L 356.93 210.24 L 356.96 210.21 L 357.09 208.78 L 357.11 208.74 L 357.40 208.62 L 358.21 208.60 L 358.40 208.55 L 358.46 208.54 L 358.49 208.35 L 358.54 208.35 L 358.66 207.64 L 371.53 206.28 L 371.55 206.09 L 371.66 205.96 L 371.69 205.69 L 371.77 193.73 L 371.91 188.83 L 371.92 188.80 L 372.16 188.71 L 372.22 188.71 L 372.26 188.15 L 372.47 188.09 L 373.02 186.93 L 373.04 186.91 L 373.18 186.55 L 373.23 186.56 L 373.26 185.98 L 373.73 185.30 L 373.74 185.28 L 374.44 185.01 L 374.53 184.40 L 374.78 184.41 L 375.07 182.87 L 375.14 182.26 L 375.19 181.77 L 375.33 181.17 L 375.69 180.96 L 375.76 180.81 L 375.92 180.68 L 376.09 180.68 L 376.63 180.68 L 376.70 180.68 L 376.82 180.65 L 376.83 180.65 L 377.00 180.67 L 377.41 180.64 L 377.83 180.41 L 377.90 180.41 L 377.99 180.32 L 378.11 180.15 L 378.43 180.15 L 378.98 179.94 L 379.16 179.46 L 379.45 175.34 L 380.64 178.83 L 380.89 178.81 L 381.08 178.79 L 381.38 178.79 L 381.47 178.72 L 381.77 178.53 L 382.23 178.24 L 382.30 178.05 L 382.38 177.97 L 382.44 177.99 L 382.48 177.93 L 382.85 177.67 L 391.38 177.67 L 391.46 177.67 L 391.99 177.66 L 392.05 177.64 L 392.16 177.12 L 392.26 176.82 L 392.28 176.82 L 392.57 176.77 L 392.64 176.75 L 394.39 175.97 L 394.59 175.91 L 394.75 175.89 L 394.78 175.89 L 395.32 175.70 L 395.51 175.79 L 395.54 175.79 L 395.83 175.73 L 396.15 174.11 L 396.19 174.09 L 396.45 173.91 L 396.56 173.91 L 396.66 173.91 L 396.88 173.73 L 397.36 173.07 L 397.45 173.04 L 397.53 172.86 L 397.73 172.08 L 398.20 171.28 L 398.62 167.48 L 398.70 167.02 L 399.13 166.84 L 399.20 166.74 L 399.27 166.56 L 399.31 165.95 L 399.46 164.86 L 399.50 164.90 L 399.57 164.88 L 399.81 164.87 L 400.18 164.47 L 400.41 164.40 L 400.67 164.38 L 400.80 164.37 L 401.06 164.35 L 401.49 164.35 L 401.92 164.34 L 402.24 164.34 L 402.32 164.33 L 402.40 164.32 L 402.41 164.18 L 402.66 164.10 L 402.73 164.09 L 402.83 163.93 L 403.53 163.90 L 403.54 163.57 L 403.74 163.56 L 404.55 163.57 L 405.10 163.36 L 405.49 163.12 L 405.50 162.99 L 405.53 162.99 L 417.49 162.76 L 417.53 162.76 L 417.66 162.74 L 417.73 162.55 L 417.77 162.53 L 417.78 162.52 L 418.29 162.47 L 418.40 161.78 L 418.56 161.63 L 418.81 160.28 L 418.97 160.26 L 419.18 159.69 L 419.29 159.76 L 419.35 159.75 L 419.41 159.10 L 419.56 158.65 L 419.58 158.17 L 419.63 158.10 L 419.76 158.06 L 419.84 157.84 L 419.95 160.42 L 420.09 160.38 L 420.39 159.35 L 420.52 159.09 L 420.63 158.88 L 421.36 157.39 L 421.99 156.68 L 422.75 155.31 L 422.94 155.24 L 423.16 155.24 L 423.39 155.18 L 427.78 154.79 L 428.15 154.76 L 469.79 153.72 L 600.91 153.47 L 601.34 153.05 L 601.65 153.00 L 601.94 153.00 L 602.40 152.19 L 602.56 151.81 L 602.67 151.08 L 602.88 149.00 L 603.19 149.43 L 603.43 148.98 L 603.49 148.97 L 603.69 148.83 L 603.73 148.84 L 603.95 148.07 L 604.15 146.85 L 604.74 145.55 L 604.76 145.45 L 604.93 143.90 L 605.49 140.07 L 605.51 139.94 L 605.62 139.86 L 605.75 138.49 L 606.36 136.65 L 606.38 136.48 L 606.51 136.39 L 606.65 135.48 L 606.88 134.77 L 606.89 134.63 L 606.99 133.23 L 607.01 133.20 L 607.06 132.80 L 607.32 130.31 L 607.36 130.17 L 607.44 130.02 L 607.72 129.69 L 607.78 129.68 L 608.00 129.21 L 608.36 129.26 L 608.42 129.20 L 608.47 129.17 L 608.53 129.13 L 608.71 127.66 L 608.91 126.47 L 608.93 126.37 L 609.04 124.87 L 609.15 123.42 L 609.18 123.24 L 609.29 121.53 L 609.35 120.19 L 609.57 119.28 L 609.61 119.22 L 609.72 118.93 L 609.88 118.91 L 610.82 118.87 L 611.29 118.83 L 621.53 118.89 L 621.63 118.63 L 621.73 118.40 L 621.91 117.40 L 622.29 117.14 L 622.32 117.04 L 622.39 115.71 L 622.64 114.43 L 622.67 114.32 L 624.90 114.23 L 625.04 113.51 L 626.17 113.29 L 626.29 113.24 L 626.42 111.74 L 627.78 110.34 L 628.36 109.80 L 628.50 108.71 L 628.99 106.83 L 629.29 106.28 L 629.80 105.18 L 630.70 104.62 L 644.41 104.61 L 645.23 104.48 L 645.26 104.50 L 646.41 104.28 L 646.47 104.18 L 646.87 104.09 L 647.34 102.87 L 647.34 102.87 L 647.39 102.82 L 648.00 101.42 L 649.41 100.62 L 649.50 100.55 L 649.64 100.54 L 649.86 100.17 L 649.92 100.07 L 650.00 100.00"/>
	</g>
	<g id="poloto_plot1" class="poloto_plot poloto_imgs poloto_line poloto1 poloto_stroke" fill="none" stroke="black">
		<path d=" M 150.00 379.19 L 150.03 379.18 L 150.05 379.16 L 150.06 379.16 L 150.09 379.16 L 150.13 378.50 L 150.27 378.48 L 150.59 378.47 L 151.06 378.22 L 151.31 378.11 L 151.79 378.14 L 151.88 378.09 L 151.94 378.09 L 152.50 378.04 L 153.56 377.92 L 153.90 375.34 L 153.98 375.34 L 154.62 375.28 L 155.36 375.27 L 155.37 375.27 L 155.37 375.27 L 165.32 375.27 L 165.39 375.27 L 165.52 375.27 L 165.57 375.23 L 165.95 375.22 L 166.12 375.22 L 166.54 375.22 L 166.61 375.22 L 166.73 375.20 L 166.85 375.20 L 166.89 375.20 L 166.99 375.17 L 167.10 375.17 L 167.21 375.17 L 167.49 375.03 L 167.73 375.03 L 167.78 375.03 L 167.90 375.03 L 168.69 375.99 L 168.70 375.99 L 168.80 375.98 L 169.25 375.84 L 169.62 375.68 L 170.02 375.60 L 170.11 375.55 L 170.12 375.55 L 170.20 375.55 L 170.35 375.55 L 170.55 375.49 L 170.94 375.44 L 170.97 375.44 L 171.04 375.44 L 171.13 375.41 L 171.36 375.41 L 171.38 375.41 L 171.61 375.40 L 171.70 375.40 L 171.79 375.40 L 171.88 375.40 L 173.09 375.29 L 173.38 375.28 L 174.06 375.23 L 174.20 375.23 L 174.31 375.23 L 174.37 375.23 L 174.83 375.15 L 175.04 375.15 L 175.28 375.06 L 175.39 375.04 L 175.67 374.84 L 175.80 374.76 L 175.96 374.76 L 176.12 374.76 L 176.65 371.75 L 176.67 371.70 L 176.69 371.70 L 176.88 371.41 L 186.11 371.41 L 187.06 370.11 L 187.09 370.11 L 188.22 370.11 L 188.32 370.11 L 188.42 369.97 L 188.70 369.95 L 188.83 369.95 L 188.87 369.95 L 189.01 369.95 L 189.34 369.95 L 189.35 369.67 L 189.48 369.66 L 189.61 369.66 L 189.75 369.63 L 189.93 369.62 L 190.00 369.62 L 190.02 369.62 L 190.18 369.62 L 190.21 369.62 L 190.38 369.62 L 190.41 369.62 L 190.68 368.35 L 190.72 368.35 L 190.81 368.20 L 190.93 368.20 L 191.08 368.20 L 191.14 368.18 L 191.66 368.18 L 191.67 368.18 L 191.77 368.10 L 192.00 368.10 L 192.21 367.37 L 192.27 367.28 L 192.37 367.28 L 192.42 367.28 L 192.54 367.26 L 193.12 361.88 L 193.18 361.93 L 193.38 361.93 L 193.44 361.93 L 193.48 361.92 L 193.58 361.92 L 193.67 361.85 L 193.87 361.85 L 194.02 361.85 L 194.13 361.84 L 194.20 361.84 L 194.72 361.83 L 195.00 361.82 L 195.09 361.69 L 195.33 361.69 L 195.35 361.69 L 195.37 361.69 L 195.53 361.33 L 195.65 361.24 L 196.08 359.96 L 196.15 359.96 L 196.23 359.96 L 196.34 359.98 L 196.35 359.98 L 196.41 359.98 L 196.45 359.98 L 196.51 359.98 L 196.56 359.98 L 196.73 359.95 L 196.86 359.95 L 196.98 359.94 L 197.14 359.94 L 197.33 359.93 L 197.52 359.45 L 197.65 359.29 L 197.92 359.29 L 197.92 359.29 L 198.08 359.29 L 210.97 359.29 L 211.21 359.28 L 211.82 359.20 L 211.94 359.19 L 212.05 359.19 L 212.07 359.19 L 212.29 359.19 L 212.44 359.19 L 212.53 359.19 L 212.62 359.19 L 212.67 359.18 L 212.90 359.18 L 213.37 359.20 L 213.48 359.20 L 213.57 359.20 L 213.68 359.20 L 214.28 359.10 L 214.36 359.05 L 214.40 359.05 L 214.44 358.99 L 214.57 358.98 L 214.67 358.98 L 215.10 358.49 L 215.73 358.49 L 215.95 358.49 L 216.64 358.49 L 216.97 355.20 L 217.08 355.20 L 217.23 355.20 L 217.43 355.19 L 217.74 355.19 L 218.18 355.19 L 218.76 355.19 L 218.85 355.19 L 219.28 355.11 L 219.55 354.98 L 219.64 354.98 L 219.81 354.98 L 219.93 354.96 L 221.46 354.75 L 222.91 354.75 L 235.88 354.75 L 235.97 354.75 L 236.04 354.75 L 236.44 354.75 L 237.66 353.71 L 237.71 353.68 L 237.88 353.57 L 238.47 353.57 L 238.76 353.32 L 239.18 353.32 L 239.28 353.32 L 239.38 353.32 L 240.13 350.43 L 240.22 350.43 L 240.38 350.43 L 240.55 350.43 L 240.62 350.25 L 241.04 349.90 L 241.19 349.90 L 241.26 349.90 L 241.36 349.37 L 241.55 348.84 L 241.62 348.84 L 241.81 348.83 L 242.37 344.53 L 242.43 344.53 L 242.48 344.53 L 242.57 344.53 L 242.71 344.53 L 242.76 344.53 L 242.81 344.53 L 243.09 344.53 L 243.15 344.43 L 243.48 344.41 L 243.67 344.35 L 243.80 343.84 L 244.80 335.28 L 244.92 335.28 L 283.04 335.28 L 283.07 335.28 L 297.64 335.28 L 298.44 335.15 L 298.60 335.15 L 298.81 335.15 L 298.88 335.15 L 298.97 335.15 L 305.29 335.08 L 306.12 335.00 L 306.43 335.00 L 306.59 334.97 L 310.53 334.90 L 310.55 334.78 L 310.80 334.79 L 311.98 333.62 L 312.04 333.62 L 312.19 333.62 L 312.60 333.62 L 312.66 333.62 L 312.82 333.62 L 313.00 333.62 L 313.03 333.62 L 325.27 333.61 L 325.36 333.40 L 325.85 333.40 L 325.86 332.00 L 325.94 332.00 L 326.05 332.00 L 326.18 331.87 L 326.39 331.87 L 326.56 331.81 L 326.72 331.81 L 326.79 331.81 L 327.03 331.79 L 327.88 329.42 L 328.22 329.42 L 328.28 329.40 L 328.35 329.40 L 328.39 329.40 L 328.51 329.37 L 328.86 329.07 L 328.91 329.03 L 329.12 326.90 L 329.20 326.89 L 329.23 326.89 L 329.31 326.86 L 329.36 326.86 L 329.41 326.85 L 329.68 325.69 L 329.80 325.68 L 329.94 325.65 L 330.05 322.04 L 330.09 322.04 L 330.36 320.01 L 330.43 320.01 L 330.48 320.00 L 330.55 320.00 L 330.60 320.00 L 330.63 320.00 L 330.65 320.00 L 330.79 316.24 L 330.83 316.24 L 330.96 316.22 L 331.06 316.22 L 331.33 316.15 L 331.67 316.05 L 331.68 316.05 L 331.78 316.02 L 332.09 315.96 L 332.24 315.96 L 332.39 315.96 L 332.55 314.34 L 332.65 314.34 L 333.08 314.34 L 333.12 314.33 L 333.18 314.33 L 333.21 314.33 L 333.49 312.02 L 333.54 312.02 L 333.75 312.00 L 352.59 312.00 L 353.66 311.99 L 353.69 311.99 L 353.91 311.99 L 353.92 311.99 L 354.06 311.99 L 354.17 311.98 L 354.26 311.87 L 354.39 311.87 L 354.42 311.87 L 354.47 311.87 L 354.67 311.66 L 355.08 311.53 L 355.34 311.39 L 355.63 310.74 L 355.64 310.74 L 355.69 310.57 L 355.73 310.55 L 356.29 310.15 L 356.30 310.15 L 356.39 310.09 L 356.63 310.09 L 356.78 310.05 L 356.81 309.09 L 356.82 309.09 L 356.89 310.04 L 356.93 309.99 L 356.96 309.98 L 357.09 308.69 L 357.11 308.69 L 357.40 308.63 L 358.21 308.63 L 358.40 308.63 L 358.46 308.63 L 358.49 308.63 L 358.54 308.63 L 358.66 308.55 L 371.53 307.48 L 371.55 307.48 L 371.66 307.47 L 371.69 307.24 L 371.77 295.82 L 371.91 291.57 L 371.92 291.57 L 372.16 291.49 L 372.22 291.49 L 372.26 291.47 L 372.47 291.47 L 373.02 290.43 L 373.04 290.43 L 373.18 290.38 L 373.23 290.38 L 373.26 290.29 L 373.73 289.67 L 373.74 289.67 L 374.44 289.54 L 374.53 289.50 L 374.78 289.51 L 375.07 288.11 L 375.14 287.97 L 375.19 287.84 L 375.33 287.31 L 375.69 287.18 L 375.76 287.07 L 375.92 287.07 L 376.09 287.07 L 376.63 287.07 L 376.70 287.07 L 376.82 287.07 L 376.83 287.07 L 377.00 287.08 L 377.41 287.08 L 377.83 286.94 L 377.90 286.94 L 377.99 286.92 L 378.11 286.92 L 378.43 286.92 L 378.98 286.92 L 379.16 286.79 L 379.45 283.10 L 380.64 286.58 L 380.89 286.57 L 381.08 286.56 L 381.38 286.56 L 381.47 286.52 L 381.77 286.50 L 382.23 286.28 L 382.30 286.28 L 382.38 286.28 L 382.44 286.28 L 382.48 286.28 L 382.85 286.08 L 391.38 286.08 L 391.46 286.09 L 391.99 286.07 L 392.05 286.07 L 392.16 286.04 L 392.26 285.78 L 392.28 285.78 L 392.57 285.75 L 392.64 285.75 L 394.39 285.54 L 394.59 285.54 L 394.75 285.54 L 394.78 285.54 L 395.32 285.39 L 395.51 285.39 L 395.54 285.39 L 395.83 285.38 L 396.15 284.51 L 396.19 284.51 L 396.45 284.36 L 396.56 284.36 L 396.66 284.36 L 396.88 284.36 L 397.36 284.35 L 397.45 284.33 L 397.53 284.24 L 397.73 284.09 L 398.20 283.96 L 398.62 280.48 L 398.70 280.37 L 399.13 280.20 L 399.20 280.16 L 399.27 280.04 L 399.31 279.79 L 399.46 278.75 L 399.50 278.79 L 399.57 278.77 L 399.81 278.77 L 400.18 278.63 L 400.41 278.57 L 400.67 278.55 L 400.80 278.54 L 401.06 278.53 L 401.49 278.53 L 401.92 278.52 L 402.24 278.52 L 402.32 278.51 L 402.40 278.51 L 402.41 278.50 L 402.66 278.50 L 402.73 278.49 L 402.83 278.36 L 403.53 278.34 L 403.54 278.34 L 403.74 278.33 L 404.55 278.33 L 405.10 278.16 L 405.49 278.01 L 405.50 278.01 L 405.53 278.00 L 417.49 278.00 L 417.53 278.00 L 417.66 278.00 L 417.73 278.00 L 417.77 277.98 L 417.78 277.98 L 418.29 277.98 L 418.40 277.97 L 418.56 277.95 L 418.81 277.92 L 418.97 277.92 L 419.18 277.84 L 419.29 277.84 L 419.35 277.84 L 419.41 277.84 L 419.56 277.52 L 419.58 277.52 L 419.63 277.52 L 419.76 277.52 L 419.84 277.52 L 419.95 277.60 L 420.09 277.60 L 420.39 277.59 L 420.52 277.59 L 420.63 277.59 L 421.36 276.56 L 421.99 276.29 L 422.75 275.56 L 422.94 275.56 L 423.16 275.56 L 423.39 275.56 L 427.78 275.47 L 428.15 275.46 L 469.79 275.33 L 600.91 275.14 L 601.34 275.09 L 601.65 275.08 L 601.94 275.08 L 602.40 274.61 L 602.56 274.61 L 602.67 274.61 L 602.88 272.89 L 603.19 273.22 L 603.43 273.20 L 603.49 273.20 L 603.69 273.18 L 603.73 273.18 L 603.95 273.18 L 604.15 273.10 L 604.74 272.02 L 604.76 272.02 L 604.93 271.92 L 605.49 268.41 L 605.51 268.41 L 605.62 268.41 L 605.75 268.35 L 606.36 266.72 L 606.38 266.72 L 606.51 266.72 L 606.65 266.68 L 606.88 266.09 L 606.89 266.09 L 606.99 266.08 L 607.01 266.08 L 607.06 265.75 L 607.32 263.43 L 607.36 263.43 L 607.44 263.43 L 607.72 263.23 L 607.78 263.23 L 608.00 262.85 L 608.36 262.85 L 608.42 262.85 L 608.47 262.85 L 608.53 262.85 L 608.71 262.84 L 608.91 261.79 L 608.93 261.79 L 609.04 261.79 L 609.15 261.00 L 609.18 261.00 L 609.29 260.16 L 609.35 260.11 L 609.57 259.28 L 609.61 259.28 L 609.72 259.28 L 609.88 259.26 L 610.82 259.26 L 611.29 259.25 L 621.53 259.25 L 621.63 259.25 L 621.73 259.25 L 621.91 259.25 L 622.29 259.03 L 622.32 259.03 L 622.39 258.97 L 622.64 257.81 L 622.67 257.81 L 624.90 257.83 L 625.04 257.60 L 626.17 257.60 L 626.29 257.60 L 626.42 257.51 L 627.78 256.56 L 628.36 256.38 L 628.50 256.31 L 628.99 254.50 L 629.29 254.50 L 629.80 254.35 L 630.70 254.35 L 644.41 254.34 L 645.23 254.24 L 645.26 254.26 L 646.41 254.26 L 646.47 254.26 L 646.87 254.26 L 647.34 254.22 L 647.34 254.22 L 647.39 254.22 L 648.00 253.16 L 649.41 253.13 L 649.50 253.13 L 649.64 253.13 L 649.86 253.09 L 649.92 253.05 L 650.00 253.05"/>
	</g>
	<g id="poloto_plot2" class="poloto_plot poloto_imgs poloto_line poloto2 poloto_stroke" fill="none" stroke="black">
		<path d=" M 150.00 390.67 L 150.03 390.66 L 150.05 390.66 L 150.06 390.66 L 150.09 390.66 L 150.13 388.27 L 150.27 387.94 L 150.59 387.94 L 151.06 387.92 L 151.31 386.49 L 151.79 386.36 L 151.88 386.32 L 151.94 386.29 L 152.50 385.64 L 153.56 385.14 L 153.90 385.05 L 153.98 385.05 L 154.62 385.02 L 155.36 385.02 L 155.37 385.02 L 155.37 385.02 L 165.32 385.02 L 165.39 385.01 L 165.52 384.99 L 165.57 384.99 L 165.95 384.85 L 166.12 384.81 L 166.54 384.57 L 166.61 384.47 L 166.73 384.26 L 166.85 384.23 L 166.89 384.23 L 166.99 384.19 L 167.10 384.19 L 167.21 384.19 L 167.49 383.95 L 167.73 383.73 L 167.78 383.73 L 167.90 383.60 L 168.69 383.31 L 168.70 383.31 L 168.80 383.22 L 169.25 382.91 L 169.62 382.52 L 170.02 382.36 L 170.11 382.36 L 170.12 382.36 L 170.20 382.14 L 170.35 382.14 L 170.55 382.12 L 170.94 381.96 L 170.97 381.67 L 171.04 381.67 L 171.13 381.54 L 171.36 381.54 L 171.38 381.54 L 171.61 381.12 L 171.70 381.09 L 171.79 381.06 L 171.88 380.86 L 173.09 380.75 L 173.38 380.70 L 174.06 380.42 L 174.20 380.42 L 174.31 380.40 L 174.37 380.18 L 174.83 379.01 L 175.04 379.00 L 175.28 378.65 L 175.39 378.61 L 175.67 378.45 L 175.80 378.40 L 175.96 378.15 L 176.12 377.95 L 176.65 377.94 L 176.67 377.92 L 176.69 377.75 L 176.88 376.62 L 186.11 376.50 L 187.06 376.16 L 187.09 376.12 L 188.22 375.84 L 188.32 375.83 L 188.42 375.62 L 188.70 375.49 L 188.83 375.23 L 188.87 375.01 L 189.01 374.59 L 189.34 374.59 L 189.35 374.59 L 189.48 374.29 L 189.61 374.29 L 189.75 373.98 L 189.93 373.74 L 190.00 373.61 L 190.02 373.60 L 190.18 373.32 L 190.21 373.31 L 190.38 373.05 L 190.41 373.04 L 190.68 372.95 L 190.72 372.95 L 190.81 372.86 L 190.93 372.84 L 191.08 372.84 L 191.14 372.82 L 191.66 372.57 L 191.67 372.58 L 191.77 372.07 L 192.00 372.05 L 192.21 371.89 L 192.27 371.89 L 192.37 371.89 L 192.42 371.85 L 192.54 371.15 L 193.12 370.56 L 193.18 370.24 L 193.38 370.21 L 193.44 370.13 L 193.48 370.12 L 193.58 369.97 L 193.67 369.42 L 193.87 369.33 L 194.02 369.32 L 194.13 369.04 L 194.20 369.03 L 194.72 368.83 L 195.00 368.68 L 195.09 368.55 L 195.33 368.54 L 195.35 368.54 L 195.37 368.51 L 195.53 367.52 L 195.65 367.51 L 196.08 367.36 L 196.15 366.97 L 196.23 366.96 L 196.34 366.80 L 196.35 366.70 L 196.41 366.63 L 196.45 366.59 L 196.51 366.59 L 196.56 366.51 L 196.73 365.39 L 196.86 365.27 L 196.98 364.94 L 197.14 364.91 L 197.33 364.80 L 197.52 364.46 L 197.65 363.48 L 197.92 363.41 L 197.92 362.99 L 198.08 362.89 L 210.97 362.89 L 211.21 362.89 L 211.82 362.43 L 211.94 362.43 L 212.05 362.43 L 212.07 362.31 L 212.29 362.11 L 212.44 362.08 L 212.53 361.96 L 212.62 361.87 L 212.67 361.83 L 212.90 361.77 L 213.37 361.86 L 213.48 361.55 L 213.57 361.47 L 213.68 361.46 L 214.28 361.40 L 214.36 361.35 L 214.40 361.35 L 214.44 361.29 L 214.57 361.24 L 214.67 361.12 L 215.10 360.83 L 215.73 360.71 L 215.95 360.66 L 216.64 360.47 L 216.97 360.02 L 217.08 359.94 L 217.23 359.58 L 217.43 359.13 L 217.74 359.01 L 218.18 359.00 L 218.76 358.98 L 218.85 358.81 L 219.28 358.70 L 219.55 358.55 L 219.64 358.43 L 219.81 358.39 L 219.93 358.08 L 221.46 357.94 L 222.91 357.94 L 235.88 357.90 L 235.97 357.73 L 236.04 357.62 L 236.44 357.45 L 237.66 357.15 L 237.71 357.11 L 237.88 356.89 L 238.47 356.81 L 238.76 356.22 L 239.18 356.20 L 239.28 356.18 L 239.38 355.60 L 240.13 355.06 L 240.22 355.05 L 240.38 355.02 L 240.55 354.97 L 240.62 354.77 L 241.04 353.87 L 241.19 353.63 L 241.26 353.62 L 241.36 353.52 L 241.55 353.17 L 241.62 352.26 L 241.81 351.89 L 242.37 351.68 L 242.43 351.22 L 242.48 351.22 L 242.57 351.14 L 242.71 351.02 L 242.76 350.98 L 242.81 350.94 L 243.09 349.88 L 243.15 349.26 L 243.48 349.14 L 243.67 348.09 L 243.80 347.89 L 244.80 346.23 L 244.92 346.20 L 283.04 345.72 L 283.07 345.72 L 297.64 345.58 L 298.44 345.41 L 298.60 345.41 L 298.81 345.32 L 298.88 345.19 L 298.97 345.16 L 305.29 345.14 L 306.12 343.24 L 306.43 343.08 L 306.59 342.42 L 310.53 342.34 L 310.55 342.27 L 310.80 342.26 L 311.98 342.15 L 312.04 341.93 L 312.19 341.85 L 312.60 341.75 L 312.66 341.72 L 312.82 341.36 L 313.00 341.25 L 313.03 340.96 L 325.27 340.61 L 325.36 339.74 L 325.85 339.51 L 325.86 339.18 L 325.94 338.93 L 326.05 338.53 L 326.18 337.48 L 326.39 336.91 L 326.56 336.17 L 326.72 336.16 L 326.79 335.59 L 327.03 335.55 L 327.88 335.01 L 328.22 334.76 L 328.28 334.60 L 328.35 334.60 L 328.39 334.41 L 328.51 333.76 L 328.86 333.70 L 328.91 333.69 L 329.12 333.27 L 329.20 333.27 L 329.23 333.03 L 329.31 332.88 L 329.36 332.87 L 329.41 332.53 L 329.68 332.33 L 329.80 332.00 L 329.94 331.98 L 330.05 331.80 L 330.09 331.54 L 330.36 331.41 L 330.43 331.26 L 330.48 331.26 L 330.55 331.25 L 330.60 330.99 L 330.63 331.00 L 330.65 330.99 L 330.79 330.91 L 330.83 330.61 L 330.96 330.61 L 331.06 330.54 L 331.33 330.52 L 331.67 330.49 L 331.68 330.49 L 331.78 330.47 L 332.09 330.47 L 332.24 330.47 L 332.39 330.47 L 332.55 330.42 L 332.65 330.07 L 333.08 330.07 L 333.12 329.87 L 333.18 329.86 L 333.21 329.63 L 333.49 329.55 L 333.54 329.49 L 333.75 329.49 L 352.59 329.43 L 353.66 329.33 L 353.69 329.33 L 353.91 329.33 L 353.92 329.33 L 354.06 328.92 L 354.17 328.91 L 354.26 328.79 L 354.39 328.73 L 354.42 328.70 L 354.47 328.67 L 354.67 328.64 L 355.08 328.56 L 355.34 328.01 L 355.63 327.97 L 355.64 327.94 L 355.69 327.48 L 355.73 327.48 L 356.29 327.48 L 356.30 327.43 L 356.39 327.01 L 356.63 326.95 L 356.78 326.93 L 356.81 326.93 L 356.82 326.88 L 356.89 326.85 L 356.93 326.41 L 356.96 326.40 L 357.09 326.40 L 357.11 326.36 L 357.40 326.32 L 358.21 326.30 L 358.40 326.27 L 358.46 326.26 L 358.49 326.12 L 358.54 326.12 L 358.66 325.63 L 371.53 325.48 L 371.55 325.34 L 371.66 325.24 L 371.69 325.22 L 371.77 324.80 L 371.91 324.70 L 371.92 324.68 L 372.16 324.67 L 372.22 324.67 L 372.26 324.26 L 372.47 324.21 L 373.02 324.19 L 373.04 324.17 L 373.18 323.94 L 373.23 323.95 L 373.26 323.56 L 373.73 323.56 L 373.74 323.54 L 374.44 323.45 L 374.53 322.99 L 374.78 322.99 L 375.07 322.99 L 375.14 322.65 L 375.19 322.39 L 375.33 322.37 L 375.69 322.32 L 375.76 322.30 L 375.92 322.19 L 376.09 322.19 L 376.63 322.19 L 376.70 322.19 L 376.82 322.17 L 376.83 322.17 L 377.00 322.17 L 377.41 322.14 L 377.83 322.09 L 377.90 322.09 L 377.99 322.04 L 378.11 321.92 L 378.43 321.92 L 378.98 321.77 L 379.16 321.51 L 379.45 321.48 L 380.64 321.20 L 380.89 321.20 L 381.08 321.20 L 381.38 321.19 L 381.47 321.17 L 381.77 321.03 L 382.23 321.01 L 382.30 320.88 L 382.38 320.82 L 382.44 320.84 L 382.48 320.79 L 382.85 320.77 L 391.38 320.76 L 391.46 320.76 L 391.99 320.76 L 392.05 320.75 L 392.16 320.36 L 392.26 320.35 L 392.28 320.35 L 392.57 320.34 L 392.64 320.32 L 394.39 319.75 L 394.59 319.69 L 394.75 319.68 L 394.78 319.68 L 395.32 319.66 L 395.51 319.74 L 395.54 319.74 L 395.83 319.70 L 396.15 319.17 L 396.19 319.15 L 396.45 319.14 L 396.56 319.14 L 396.66 319.14 L 396.88 319.03 L 397.36 318.54 L 397.45 318.54 L 397.53 318.47 L 397.73 318.03 L 398.20 317.54 L 398.62 317.57 L 398.70 317.31 L 399.13 317.31 L 399.20 317.28 L 399.27 317.25 L 399.31 316.99 L 399.46 316.99 L 399.50 316.99 L 399.57 316.99 L 399.81 316.99 L 400.18 316.78 L 400.41 316.76 L 400.67 316.76 L 400.80 316.76 L 401.06 316.76 L 401.49 316.76 L 401.92 316.76 L 402.24 316.76 L 402.32 316.75 L 402.40 316.74 L 402.41 316.65 L 402.66 316.59 L 402.73 316.59 L 402.83 316.57 L 403.53 316.57 L 403.54 316.32 L 403.74 316.32 L 404.55 316.32 L 405.10 316.31 L 405.49 316.26 L 405.50 316.16 L 405.53 316.16 L 417.49 315.99 L 417.53 315.98 L 417.66 315.97 L 417.73 315.82 L 417.77 315.82 L 417.78 315.81 L 418.29 315.76 L 418.40 315.24 L 418.56 315.13 L 418.81 314.12 L 418.97 314.11 L 419.18 313.68 L 419.29 313.73 L 419.35 313.72 L 419.41 313.17 L 419.56 313.08 L 419.58 312.69 L 419.63 312.64 L 419.76 312.60 L 419.84 312.41 L 419.95 314.68 L 420.09 314.65 L 420.39 313.73 L 420.52 313.53 L 420.63 313.33 L 421.36 312.97 L 421.99 312.59 L 422.75 312.05 L 422.94 311.99 L 423.16 311.99 L 423.39 311.94 L 427.78 311.68 L 428.15 311.65 L 469.79 310.94 L 600.91 310.92 L 601.34 310.60 L 601.65 310.55 L 601.94 310.55 L 602.40 310.26 L 602.56 309.92 L 602.67 309.30 L 602.88 309.13 L 603.19 309.19 L 603.43 308.82 L 603.49 308.82 L 603.69 308.71 L 603.73 308.71 L 603.95 308.10 L 604.15 307.17 L 604.74 307.08 L 604.76 306.98 L 604.93 305.78 L 605.49 305.74 L 605.51 305.62 L 605.62 305.55 L 605.75 304.46 L 606.36 304.40 L 606.38 304.25 L 606.51 304.17 L 606.65 303.46 L 606.88 303.43 L 606.89 303.32 L 606.99 302.13 L 607.01 302.10 L 607.06 302.06 L 607.32 302.06 L 607.36 301.94 L 607.44 301.85 L 607.72 301.74 L 607.78 301.73 L 608.00 301.67 L 608.36 301.72 L 608.42 301.66 L 608.47 301.64 L 608.53 301.60 L 608.71 300.36 L 608.91 300.34 L 608.93 300.23 L 609.04 298.97 L 609.15 298.51 L 609.18 298.34 L 609.29 297.73 L 609.35 296.66 L 609.57 296.64 L 609.61 296.58 L 609.72 296.37 L 609.88 296.36 L 610.82 296.32 L 611.29 296.30 L 621.53 296.35 L 621.63 296.10 L 621.73 295.93 L 621.91 295.07 L 622.29 295.06 L 622.32 294.97 L 622.39 293.89 L 622.64 293.88 L 622.67 293.78 L 624.90 293.67 L 625.04 293.28 L 626.17 293.09 L 626.29 293.05 L 626.42 291.86 L 627.78 291.51 L 628.36 291.23 L 628.50 290.32 L 628.99 290.32 L 629.29 289.82 L 629.80 289.05 L 630.70 288.58 L 644.41 288.58 L 645.23 288.56 L 645.26 288.56 L 646.41 288.39 L 646.47 288.29 L 646.87 288.22 L 647.34 287.22 L 647.34 287.22 L 647.39 287.17 L 648.00 286.96 L 649.41 286.29 L 649.50 286.22 L 649.64 286.22 L 649.86 285.93 L 649.92 285.89 L 650.00 285.84"/>
	</g>
	<g class="poloto_legend poloto_imgs poloto_line poloto0 poloto_stroke"><line x1="680" x2="730" y1="81.25" y2="81.25"/></g>
	<g class="poloto_legend poloto_imgs poloto_line poloto1 poloto_stroke"><line x1="680" x2="730" y1="131.25" y2="131.25"/></g>
	<g class="poloto_legend poloto_imgs poloto_line poloto2 poloto_stroke"><line x1="680" x2="730" y1="181.25" y2="181.25"/></g>
	<text class="poloto_legend poloto_text poloto_line poloto0" x="675" y="100">total</text>
	<text class="poloto_legend poloto_text poloto_line poloto1" x="675" y="150">code</text>
	<text class="poloto_legend poloto_text poloto_line poloto2" x="675" y="200">docs</text>
	<text class="poloto_text poloto_name poloto_title" x="400.00" y="37.50">Workspace lines over time</text>
	<text class="poloto_text poloto_name poloto_x" x="400.00" y="640">date (JST)</text>
	<text class="poloto_text poloto_name poloto_y" x="37.50" y="250.00" transform="rotate(-90,37.50,250.00)">lines</text>
	<text class="poloto_text poloto_ticks poloto_y">
		<tspan x="135.00" y="400.00">0</tspan>
		<tspan x="135.00" y="311.25">50K</tspan>
		<tspan x="135.00" y="222.50">100K</tspan>
		<tspan x="135.00" y="133.75">150K</tspan>
	</text>
	<g class="poloto_imgs poloto_ticks poloto_y" stroke="black">
		<line x1="150.00" x2="144.00" y1="400.00" y2="400.00"/>
		<line x1="150.00" x2="144.00" y1="311.25" y2="311.25"/>
		<line x1="150.00" x2="144.00" y1="222.50" y2="222.50"/>
		<line x1="150.00" x2="144.00" y1="133.75" y2="133.75"/>
	</g>
	<g class="poloto_text poloto_ticks poloto_x">
		<text x="235.72" y="430.00" text-anchor="end" transform="rotate(-90 235.72 430.00)">2026-04-24 12:06</text>
		<text x="367.66" y="430.00" text-anchor="end" transform="rotate(-90 367.66 430.00)">2026-04-30 07:00</text>
		<text x="499.60" y="430.00" text-anchor="end" transform="rotate(-90 499.60 430.00)">2026-05-06 01:53</text>
		<text x="631.54" y="430.00" text-anchor="end" transform="rotate(-90 631.54 430.00)">2026-05-11 20:46</text>
	</g>
	<g class="poloto_imgs poloto_ticks poloto_x" stroke="black">
		<line x1="235.72" x2="235.72" y1="400.00" y2="405.00"/>
		<line x1="367.66" x2="367.66" y1="400.00" y2="405.00"/>
		<line x1="499.60" x2="499.60" y1="400.00" y2="405.00"/>
		<line x1="631.54" x2="631.54" y1="400.00" y2="405.00"/>
	</g>
	<path class="poloto_imgs poloto_ticks poloto_x" stroke="black" style="stroke-dasharray:13.19418569180282;stroke-dashoffset:-85.7154995793826;" d=" M 150.00 400.00 L 650.00 400.00"/>
	<path class="poloto_imgs poloto_ticks poloto_y" stroke="black" style="stroke-dasharray:8.875109459683335;stroke-dashoffset:-0;" d=" M 150.00 400.00 L 150.00 100.00"/>
</svg>

