<svg class="poloto" width="800" height="680" viewBox="0 0 800 680" xmlns="http://www.w3.org/2000/svg">
	<style>
.poloto{
  stroke-linecap:round;
  stroke-linejoin:round;
  font-family:Roboto,sans-serif;
  font-size:16px;
}
.poloto_background{fill:AliceBlue;}
.poloto_scatter{stroke-width:7}
.poloto_line{stroke-width:2}
.poloto_text{fill: black;}
.poloto_name{font-size:24px;dominant-baseline:auto;text-anchor:middle;}
.poloto_where{dominant-baseline:middle;text-anchor:start}
.poloto_text.poloto_legend{font-size:20px;dominant-baseline:middle;text-anchor:start;}
.poloto_text.poloto_ticks.poloto_y{dominant-baseline:middle;text-anchor:end}
.poloto_text.poloto_ticks.poloto_x{dominant-baseline:auto;text-anchor:middle}
.poloto_imgs.poloto_ticks{stroke: black;stroke-width:3;fill:none;stroke-dasharray:none}
.poloto_grid{stroke:gray;stroke-width:0.5}

.poloto0.poloto_stroke{stroke:blue;}
.poloto1.poloto_stroke{stroke:red;}
.poloto2.poloto_stroke{stroke:green;}
.poloto3.poloto_stroke{stroke:gold;}
.poloto4.poloto_stroke{stroke:aqua;}
.poloto5.poloto_stroke{stroke:lime;}
.poloto6.poloto_stroke{stroke:orange;}
.poloto7.poloto_stroke{stroke:chocolate;}
.poloto0.poloto_fill{fill:blue;}
.poloto1.poloto_fill{fill:red;}
.poloto2.poloto_fill{fill:green;}
.poloto3.poloto_fill{fill:gold;}
.poloto4.poloto_fill{fill:aqua;}
.poloto5.poloto_fill{fill:lime;}
.poloto6.poloto_fill{fill:orange;}
.poloto7.poloto_fill{fill:chocolate;}
	</style>
	<circle r="1e5" class="poloto_background" fill="white"/>
	<g id="poloto_plot0" class="poloto_plot poloto_imgs poloto_line poloto0 poloto_stroke" fill="none" stroke="black">
		<path d=" M 150.00 366.09 L 150.03 366.06 L 150.05 366.05 L 150.06 366.05 L 150.09 366.05 L 150.12 362.37 L 150.26 361.92 L 150.56 361.90 L 151.02 361.60 L 151.25 359.73 L 151.71 359.61 L 151.79 359.52 L 151.85 359.47 L 152.39 358.56 L 153.40 357.82 L 153.72 354.93 L 153.80 354.93 L 154.42 354.82 L 155.12 354.81 L 155.13 354.81 L 155.13 354.81 L 164.64 354.81 L 164.71 354.80 L 164.83 354.78 L 164.88 354.75 L 165.24 354.58 L 165.41 354.53 L 165.81 354.27 L 165.86 354.15 L 165.98 353.89 L 166.10 353.85 L 166.14 353.84 L 166.24 353.78 L 166.34 353.78 L 166.44 353.78 L 166.71 353.35 L 166.94 353.09 L 166.99 353.09 L 167.10 352.93 L 167.85 353.59 L 167.87 353.59 L 167.96 353.48 L 168.40 352.99 L 168.74 352.40 L 169.13 352.14 L 169.21 352.09 L 169.22 352.09 L 169.30 351.86 L 169.45 351.86 L 169.64 351.78 L 170.01 351.56 L 170.03 351.21 L 170.10 351.21 L 170.19 351.03 L 170.40 351.03 L 170.43 351.03 L 170.65 350.54 L 170.74 350.51 L 170.82 350.48 L 170.90 350.28 L 172.06 350.01 L 172.34 349.96 L 172.99 349.61 L 173.12 349.61 L 173.22 349.59 L 173.28 349.34 L 173.72 347.88 L 173.92 347.85 L 174.15 347.36 L 174.26 347.32 L 174.53 346.91 L 174.65 346.77 L 174.81 346.50 L 174.95 346.27 L 175.46 342.91 L 175.48 342.83 L 175.50 342.62 L 175.68 341.01 L 184.50 340.89 L 185.41 339.05 L 185.44 339.00 L 186.52 338.71 L 186.61 338.70 L 186.71 338.34 L 186.97 338.16 L 187.09 337.84 L 187.14 337.57 L 187.27 337.08 L 187.59 337.07 L 187.60 336.75 L 187.72 336.39 L 187.84 336.38 L 187.98 335.98 L 188.15 335.69 L 188.22 335.54 L 188.24 335.53 L 188.39 335.22 L 188.42 335.21 L 188.58 334.89 L 188.61 334.89 L 188.86 333.37 L 188.91 333.37 L 188.99 333.11 L 189.10 333.10 L 189.25 333.10 L 189.31 333.07 L 189.80 332.78 L 189.82 332.79 L 189.91 332.12 L 190.13 332.10 L 190.33 331.09 L 190.39 331.00 L 190.48 330.99 L 190.53 330.95 L 190.64 330.17 L 191.19 323.56 L 191.25 323.24 L 191.44 323.21 L 191.50 323.13 L 191.54 323.11 L 191.63 322.94 L 191.72 322.19 L 191.92 322.03 L 192.05 322.02 L 192.16 321.69 L 192.23 321.68 L 192.73 321.43 L 192.99 321.25 L 193.08 320.95 L 193.31 320.94 L 193.33 320.94 L 193.35 320.91 L 193.50 319.32 L 193.61 319.23 L 194.02 317.63 L 194.09 317.16 L 194.17 317.15 L 194.28 316.98 L 194.29 316.85 L 194.34 316.78 L 194.37 316.74 L 194.43 316.73 L 194.49 316.65 L 194.65 315.34 L 194.77 315.15 L 194.88 314.76 L 195.04 314.73 L 195.22 314.61 L 195.40 313.69 L 195.52 312.40 L 195.78 312.33 L 195.78 311.85 L 195.93 311.69 L 208.25 311.69 L 208.48 311.68 L 209.06 311.00 L 209.18 310.98 L 209.28 310.98 L 209.30 310.81 L 209.51 310.60 L 209.65 310.57 L 209.74 310.44 L 209.82 310.35 L 209.87 310.31 L 210.10 310.24 L 210.54 310.16 L 210.65 309.81 L 210.74 309.72 L 210.84 309.71 L 211.41 309.54 L 211.49 309.44 L 211.53 309.44 L 211.57 309.30 L 211.69 309.24 L 211.79 309.12 L 212.20 308.25 L 212.80 308.12 L 213.01 308.07 L 213.67 307.85 L 213.98 303.70 L 214.09 303.61 L 214.23 303.20 L 214.42 302.66 L 214.72 302.50 L 215.14 302.49 L 215.70 302.47 L 215.78 302.29 L 216.19 302.10 L 216.45 301.80 L 216.53 301.68 L 216.69 301.63 L 216.82 301.26 L 218.27 300.85 L 219.66 300.85 L 232.05 300.81 L 232.14 300.63 L 232.20 300.52 L 232.59 300.34 L 233.75 298.91 L 233.80 298.81 L 233.96 298.45 L 234.53 298.35 L 234.80 297.38 L 235.21 297.38 L 235.30 297.36 L 235.39 296.70 L 236.11 292.92 L 236.20 292.91 L 236.35 292.88 L 236.51 292.84 L 236.58 292.42 L 236.98 291.00 L 237.13 290.74 L 237.19 290.72 L 237.28 290.06 L 237.46 289.13 L 237.54 288.15 L 237.72 287.71 L 238.25 282.80 L 238.31 282.31 L 238.36 282.31 L 238.44 282.22 L 238.57 282.09 L 238.62 282.05 L 238.68 281.99 L 238.94 280.82 L 239.00 279.99 L 239.31 279.82 L 239.50 278.59 L 239.61 277.81 L 240.58 266.36 L 240.69 266.33 L 277.11 265.78 L 277.14 265.78 L 291.06 265.63 L 291.82 265.31 L 291.97 265.31 L 292.18 265.23 L 292.24 265.08 L 292.33 265.04 L 298.36 264.96 L 299.16 262.78 L 299.45 262.59 L 299.61 261.79 L 303.37 261.63 L 303.40 261.41 L 303.63 261.39 L 304.75 260.01 L 304.82 259.76 L 304.96 259.68 L 305.35 259.58 L 305.41 259.55 L 305.56 259.14 L 305.73 259.02 L 305.76 258.72 L 317.46 258.30 L 317.54 257.12 L 318.01 256.86 L 318.02 254.90 L 318.10 254.61 L 318.20 254.13 L 318.33 252.78 L 318.52 252.06 L 318.69 251.22 L 318.84 251.21 L 318.90 250.57 L 319.14 250.51 L 319.95 247.35 L 320.27 247.01 L 320.33 246.81 L 320.40 246.81 L 320.44 246.59 L 320.55 245.81 L 320.88 245.44 L 320.93 245.39 L 321.13 242.61 L 321.21 242.60 L 321.24 242.30 L 321.32 242.07 L 321.37 242.07 L 321.41 241.65 L 321.67 240.15 L 321.78 239.72 L 321.92 239.66 L 322.02 235.64 L 322.06 235.31 L 322.32 233.02 L 322.39 232.84 L 322.44 232.83 L 322.50 232.83 L 322.54 232.51 L 322.58 232.52 L 322.59 232.51 L 322.72 228.45 L 322.77 228.09 L 322.89 228.07 L 322.99 228.00 L 323.25 227.89 L 323.57 227.73 L 323.58 227.73 L 323.67 227.68 L 323.97 227.61 L 324.11 227.61 L 324.25 227.61 L 324.41 225.84 L 324.51 225.41 L 324.92 225.40 L 324.96 225.13 L 325.01 225.12 L 325.04 224.82 L 325.31 222.26 L 325.36 222.20 L 325.56 222.18 L 343.55 222.11 L 344.58 221.98 L 344.61 221.98 L 344.81 221.97 L 344.83 221.98 L 344.96 221.46 L 345.06 221.44 L 345.15 221.19 L 345.27 221.13 L 345.31 221.09 L 345.36 221.07 L 345.55 220.79 L 345.94 220.53 L 346.19 219.71 L 346.46 218.93 L 346.47 218.89 L 346.52 218.15 L 346.55 218.13 L 347.09 217.69 L 347.10 217.64 L 347.18 217.06 L 347.42 217.00 L 347.56 216.94 L 347.59 215.91 L 347.60 215.85 L 347.67 216.84 L 347.71 216.23 L 347.73 216.21 L 347.86 214.82 L 347.87 214.78 L 348.15 214.67 L 348.92 214.65 L 349.10 214.60 L 349.16 214.59 L 349.20 214.41 L 349.24 214.41 L 349.35 213.72 L 361.65 212.40 L 361.67 212.21 L 361.78 212.09 L 361.81 211.83 L 361.88 200.25 L 362.01 195.50 L 362.03 195.48 L 362.25 195.38 L 362.31 195.38 L 362.35 194.84 L 362.55 194.78 L 363.08 193.66 L 363.09 193.64 L 363.23 193.29 L 363.28 193.30 L 363.30 192.74 L 363.75 192.08 L 363.76 192.06 L 364.44 191.80 L 364.52 191.21 L 364.76 191.22 L 365.04 189.73 L 365.11 189.14 L 365.15 188.66 L 365.28 188.09 L 365.63 187.88 L 365.69 187.74 L 365.84 187.61 L 366.01 187.61 L 366.53 187.61 L 366.59 187.61 L 366.71 187.58 L 366.72 187.58 L 366.88 187.59 L 367.27 187.57 L 367.67 187.35 L 367.74 187.35 L 367.82 187.26 L 367.94 187.10 L 368.25 187.10 L 368.77 186.89 L 368.94 186.43 L 369.22 182.44 L 370.35 185.81 L 370.60 185.80 L 370.78 185.78 L 371.06 185.77 L 371.15 185.71 L 371.44 185.52 L 371.88 185.25 L 371.94 185.06 L 372.02 184.99 L 372.08 185.00 L 372.12 184.95 L 372.47 184.70 L 380.62 184.69 L 380.70 184.70 L 381.20 184.68 L 381.25 184.66 L 381.37 184.16 L 381.46 183.87 L 381.47 183.87 L 381.75 183.82 L 381.82 183.80 L 383.49 183.05 L 383.69 182.98 L 383.83 182.97 L 383.86 182.97 L 384.38 182.78 L 384.56 182.88 L 384.59 182.87 L 384.87 182.82 L 385.17 181.24 L 385.21 181.23 L 385.46 181.05 L 385.57 181.05 L 385.66 181.05 L 385.88 180.87 L 386.33 180.24 L 386.42 180.21 L 386.50 180.04 L 386.68 179.28 L 387.13 178.50 L 387.53 174.83 L 387.61 174.38 L 388.02 174.20 L 388.09 174.11 L 388.16 173.93 L 388.20 173.34 L 388.34 172.28 L 388.37 172.33 L 388.44 172.31 L 388.67 172.30 L 389.03 171.91 L 389.25 171.84 L 389.50 171.82 L 389.61 171.81 L 389.86 171.80 L 390.27 171.80 L 390.68 171.79 L 391.00 171.78 L 391.07 171.77 L 391.15 171.76 L 391.15 171.63 L 391.39 171.56 L 391.46 171.54 L 391.56 171.38 L 392.23 171.36 L 392.24 171.04 L 392.42 171.03 L 393.20 171.03 L 393.72 170.84 L 394.10 170.60 L 394.11 170.48 L 394.14 170.48 L 405.56 170.26 L 405.60 170.25 L 405.73 170.24 L 405.79 170.05 L 405.83 170.03 L 405.84 170.02 L 406.33 169.97 L 406.44 169.31 L 406.58 169.16 L 406.82 167.85 L 406.98 167.83 L 407.18 167.28 L 407.29 167.35 L 407.34 167.34 L 407.40 166.71 L 407.54 166.27 L 407.56 165.81 L 407.61 165.74 L 407.73 165.71 L 407.81 165.49 L 407.91 167.99 L 408.05 167.94 L 408.33 166.95 L 408.45 166.70 L 408.56 166.49 L 409.26 165.06 L 409.87 164.36 L 410.59 163.04 L 410.77 162.98 L 410.98 162.98 L 411.20 162.92 L 415.40 162.54 L 415.75 162.51 L 455.53 161.50 L 580.80 161.26 L 581.22 160.85 L 581.51 160.80 L 581.79 160.80 L 582.23 160.02 L 582.38 159.65 L 582.49 158.95 L 582.69 156.93 L 582.98 157.34 L 583.21 156.91 L 583.27 156.90 L 583.46 156.77 L 583.50 156.77 L 583.71 156.03 L 583.90 154.85 L 584.46 153.59 L 584.48 153.49 L 584.64 151.99 L 585.18 148.28 L 585.20 148.16 L 585.30 148.08 L 585.43 146.75 L 586.02 144.97 L 586.03 144.80 L 586.15 144.72 L 586.29 143.84 L 586.51 143.15 L 586.52 143.02 L 586.62 141.66 L 586.63 141.62 L 586.69 141.24 L 586.93 138.83 L 586.96 138.69 L 587.05 138.55 L 587.31 138.23 L 587.37 138.22 L 587.58 137.76 L 587.93 137.81 L 587.98 137.75 L 588.02 137.72 L 588.08 137.68 L 588.26 136.27 L 588.44 135.11 L 588.47 135.01 L 588.57 133.56 L 588.68 132.15 L 588.71 131.98 L 588.82 130.32 L 588.87 129.02 L 589.08 128.15 L 589.11 128.09 L 589.22 127.81 L 589.37 127.79 L 590.27 127.75 L 590.72 127.71 L 600.50 127.77 L 600.60 127.52 L 600.70 127.30 L 600.87 126.33 L 601.23 126.07 L 601.26 125.98 L 601.33 124.69 L 601.57 123.45 L 601.59 123.34 L 603.73 123.26 L 603.86 122.56 L 604.93 122.35 L 605.05 122.30 L 605.18 120.85 L 606.48 119.49 L 607.03 118.97 L 607.17 117.91 L 607.63 116.09 L 607.92 115.56 L 608.40 114.49 L 609.26 113.95 L 622.36 113.94 L 623.14 113.82 L 623.18 113.84 L 624.28 113.63 L 624.33 113.52 L 624.71 113.44 L 625.16 112.25 L 625.16 112.25 L 625.21 112.20 L 625.80 110.85 L 627.14 110.08 L 627.23 110.01 L 627.37 110.00 L 627.57 109.64 L 627.63 109.54 L 627.71 109.48 L 628.33 109.43 L 628.83 109.43 L 629.11 109.42 L 629.14 109.37 L 629.70 108.19 L 630.13 107.96 L 630.15 107.87 L 630.20 107.78 L 630.26 107.46 L 644.48 107.00 L 644.50 106.98 L 644.54 106.96 L 644.82 106.83 L 645.04 106.69 L 646.29 104.86 L 646.60 104.65 L 647.50 104.10 L 648.28 103.97 L 648.85 103.79 L 649.01 102.11 L 649.74 100.14 L 650.00 100.00"/>
	</g>
	<g id="poloto_plot1" class="poloto_plot poloto_imgs poloto_line poloto1 poloto_stroke" fill="none" stroke="black">
		<path d=" M 150.00 379.85 L 150.03 379.83 L 150.05 379.82 L 150.06 379.82 L 150.09 379.82 L 150.12 379.18 L 150.26 379.16 L 150.56 379.15 L 151.02 378.91 L 151.25 378.80 L 151.71 378.83 L 151.79 378.78 L 151.85 378.78 L 152.39 378.73 L 153.40 378.61 L 153.72 376.12 L 153.80 376.12 L 154.42 376.06 L 155.12 376.05 L 155.13 376.05 L 155.13 376.05 L 164.64 376.05 L 164.71 376.05 L 164.83 376.05 L 164.88 376.02 L 165.24 376.00 L 165.41 376.00 L 165.81 376.00 L 165.86 376.00 L 165.98 375.98 L 166.10 375.98 L 166.14 375.98 L 166.24 375.96 L 166.34 375.96 L 166.44 375.96 L 166.71 375.82 L 166.94 375.82 L 166.99 375.82 L 167.10 375.82 L 167.85 376.75 L 167.87 376.75 L 167.96 376.74 L 168.40 376.60 L 168.74 376.45 L 169.13 376.37 L 169.21 376.33 L 169.22 376.33 L 169.30 376.33 L 169.45 376.33 L 169.64 376.27 L 170.01 376.21 L 170.03 376.21 L 170.10 376.21 L 170.19 376.19 L 170.40 376.19 L 170.43 376.19 L 170.65 376.18 L 170.74 376.18 L 170.82 376.18 L 170.90 376.18 L 172.06 376.07 L 172.34 376.06 L 172.99 376.01 L 173.12 376.01 L 173.22 376.01 L 173.28 376.01 L 173.72 375.93 L 173.92 375.93 L 174.15 375.84 L 174.26 375.83 L 174.53 375.63 L 174.65 375.56 L 174.81 375.56 L 174.95 375.56 L 175.46 372.64 L 175.48 372.59 L 175.50 372.59 L 175.68 372.31 L 184.50 372.31 L 185.41 371.06 L 185.44 371.06 L 186.52 371.06 L 186.61 371.05 L 186.71 370.92 L 186.97 370.90 L 187.09 370.90 L 187.14 370.90 L 187.27 370.90 L 187.59 370.90 L 187.60 370.63 L 187.72 370.62 L 187.84 370.62 L 187.98 370.59 L 188.15 370.58 L 188.22 370.58 L 188.24 370.58 L 188.39 370.58 L 188.42 370.58 L 188.58 370.58 L 188.61 370.58 L 188.86 369.35 L 188.91 369.35 L 188.99 369.20 L 189.10 369.20 L 189.25 369.20 L 189.31 369.19 L 189.80 369.18 L 189.82 369.18 L 189.91 369.11 L 190.13 369.11 L 190.33 368.40 L 190.39 368.31 L 190.48 368.31 L 190.53 368.31 L 190.64 368.29 L 191.19 363.09 L 191.25 363.13 L 191.44 363.13 L 191.50 363.13 L 191.54 363.12 L 191.63 363.12 L 191.72 363.05 L 191.92 363.05 L 192.05 363.05 L 192.16 363.04 L 192.23 363.04 L 192.73 363.04 L 192.99 363.03 L 193.08 362.90 L 193.31 362.90 L 193.33 362.90 L 193.35 362.90 L 193.50 362.55 L 193.61 362.46 L 194.02 361.23 L 194.09 361.23 L 194.17 361.23 L 194.28 361.24 L 194.29 361.24 L 194.34 361.24 L 194.37 361.24 L 194.43 361.24 L 194.49 361.24 L 194.65 361.22 L 194.77 361.22 L 194.88 361.20 L 195.04 361.20 L 195.22 361.19 L 195.40 360.73 L 195.52 360.58 L 195.78 360.58 L 195.78 360.57 L 195.93 360.57 L 208.25 360.57 L 208.48 360.57 L 209.06 360.49 L 209.18 360.47 L 209.28 360.47 L 209.30 360.47 L 209.51 360.47 L 209.65 360.47 L 209.74 360.47 L 209.82 360.47 L 209.87 360.47 L 210.10 360.47 L 210.54 360.49 L 210.65 360.49 L 210.74 360.49 L 210.84 360.49 L 211.41 360.39 L 211.49 360.35 L 211.53 360.35 L 211.57 360.28 L 211.69 360.28 L 211.79 360.28 L 212.20 359.80 L 212.80 359.80 L 213.01 359.80 L 213.67 359.80 L 213.98 356.62 L 214.09 356.61 L 214.23 356.61 L 214.42 356.61 L 214.72 356.61 L 215.14 356.61 L 215.70 356.61 L 215.78 356.61 L 216.19 356.53 L 216.45 356.40 L 216.53 356.40 L 216.69 356.40 L 216.82 356.38 L 218.27 356.18 L 219.66 356.18 L 232.05 356.18 L 232.14 356.18 L 232.20 356.18 L 232.59 356.18 L 233.75 355.17 L 233.80 355.14 L 233.96 355.04 L 234.53 355.03 L 234.80 354.79 L 235.21 354.80 L 235.30 354.80 L 235.39 354.80 L 236.11 352.00 L 236.20 352.00 L 236.35 352.00 L 236.51 352.00 L 236.58 351.82 L 236.98 351.48 L 237.13 351.48 L 237.19 351.48 L 237.28 350.97 L 237.46 350.45 L 237.54 350.45 L 237.72 350.44 L 238.25 346.28 L 238.31 346.28 L 238.36 346.28 L 238.44 346.28 L 238.57 346.28 L 238.62 346.28 L 238.68 346.28 L 238.94 346.28 L 239.00 346.19 L 239.31 346.17 L 239.50 346.11 L 239.61 345.61 L 240.58 337.32 L 240.69 337.32 L 277.11 337.32 L 277.14 337.32 L 291.06 337.32 L 291.82 337.19 L 291.97 337.19 L 292.18 337.19 L 292.24 337.19 L 292.33 337.19 L 298.36 337.13 L 299.16 337.05 L 299.45 337.05 L 299.61 337.03 L 303.37 336.95 L 303.40 336.84 L 303.63 336.85 L 304.75 335.72 L 304.82 335.72 L 304.96 335.72 L 305.35 335.72 L 305.41 335.72 L 305.56 335.72 L 305.73 335.72 L 305.76 335.72 L 317.46 335.70 L 317.54 335.50 L 318.01 335.50 L 318.02 334.15 L 318.10 334.15 L 318.20 334.15 L 318.33 334.02 L 318.52 334.02 L 318.69 333.97 L 318.84 333.97 L 318.90 333.97 L 319.14 333.95 L 319.95 331.65 L 320.27 331.65 L 320.33 331.63 L 320.40 331.63 L 320.44 331.63 L 320.55 331.60 L 320.88 331.31 L 320.93 331.27 L 321.13 329.21 L 321.21 329.20 L 321.24 329.20 L 321.32 329.17 L 321.37 329.17 L 321.41 329.17 L 321.67 328.04 L 321.78 328.03 L 321.92 328.00 L 322.02 324.50 L 322.06 324.50 L 322.32 322.53 L 322.39 322.53 L 322.44 322.53 L 322.50 322.53 L 322.54 322.53 L 322.58 322.53 L 322.59 322.53 L 322.72 318.89 L 322.77 318.88 L 322.89 318.87 L 322.99 318.87 L 323.25 318.80 L 323.57 318.70 L 323.58 318.70 L 323.67 318.68 L 323.97 318.62 L 324.11 318.62 L 324.25 318.62 L 324.41 317.05 L 324.51 317.05 L 324.92 317.04 L 324.96 317.04 L 325.01 317.04 L 325.04 317.04 L 325.31 314.80 L 325.36 314.80 L 325.56 314.78 L 343.55 314.78 L 344.58 314.77 L 344.61 314.77 L 344.81 314.77 L 344.83 314.77 L 344.96 314.77 L 345.06 314.76 L 345.15 314.65 L 345.27 314.65 L 345.31 314.65 L 345.36 314.65 L 345.55 314.45 L 345.94 314.32 L 346.19 314.19 L 346.46 313.56 L 346.47 313.56 L 346.52 313.40 L 346.55 313.38 L 347.09 312.99 L 347.10 312.99 L 347.18 312.93 L 347.42 312.93 L 347.56 312.90 L 347.59 311.97 L 347.60 311.97 L 347.67 312.88 L 347.71 312.83 L 347.73 312.82 L 347.86 311.57 L 347.87 311.57 L 348.15 311.52 L 348.92 311.52 L 349.10 311.52 L 349.16 311.52 L 349.20 311.52 L 349.24 311.52 L 349.35 311.44 L 361.65 310.40 L 361.67 310.40 L 361.78 310.40 L 361.81 310.17 L 361.88 299.11 L 362.01 294.99 L 362.03 294.99 L 362.25 294.92 L 362.31 294.92 L 362.35 294.90 L 362.55 294.90 L 363.08 293.90 L 363.09 293.90 L 363.23 293.84 L 363.28 293.84 L 363.30 293.76 L 363.75 293.16 L 363.76 293.16 L 364.44 293.03 L 364.52 292.99 L 364.76 293.00 L 365.04 291.64 L 365.11 291.50 L 365.15 291.38 L 365.28 290.87 L 365.63 290.74 L 365.69 290.63 L 365.84 290.63 L 366.01 290.63 L 366.53 290.63 L 366.59 290.63 L 366.71 290.63 L 366.72 290.63 L 366.88 290.65 L 367.27 290.65 L 367.67 290.51 L 367.74 290.51 L 367.82 290.49 L 367.94 290.49 L 368.25 290.49 L 368.77 290.49 L 368.94 290.37 L 369.22 286.80 L 370.35 290.17 L 370.60 290.15 L 370.78 290.14 L 371.06 290.14 L 371.15 290.10 L 371.44 290.08 L 371.88 289.88 L 371.94 289.88 L 372.02 289.88 L 372.08 289.88 L 372.12 289.88 L 372.47 289.68 L 380.62 289.68 L 380.70 289.69 L 381.20 289.67 L 381.25 289.67 L 381.37 289.64 L 381.46 289.39 L 381.47 289.38 L 381.75 289.36 L 381.82 289.36 L 383.49 289.15 L 383.69 289.15 L 383.83 289.15 L 383.86 289.15 L 384.38 289.01 L 384.56 289.01 L 384.59 289.01 L 384.87 289.00 L 385.17 288.16 L 385.21 288.16 L 385.46 288.01 L 385.57 288.01 L 385.66 288.01 L 385.88 288.01 L 386.33 288.00 L 386.42 287.98 L 386.50 287.90 L 386.68 287.76 L 387.13 287.63 L 387.53 284.26 L 387.61 284.14 L 388.02 283.98 L 388.09 283.94 L 388.16 283.82 L 388.20 283.59 L 388.34 282.58 L 388.37 282.62 L 388.44 282.60 L 388.67 282.60 L 389.03 282.46 L 389.25 282.41 L 389.50 282.39 L 389.61 282.38 L 389.86 282.37 L 390.27 282.37 L 390.68 282.36 L 391.00 282.35 L 391.07 282.35 L 391.15 282.34 L 391.15 282.34 L 391.39 282.34 L 391.46 282.33 L 391.56 282.20 L 392.23 282.19 L 392.24 282.19 L 392.42 282.17 L 393.20 282.17 L 393.72 282.00 L 394.10 281.86 L 394.11 281.86 L 394.14 281.86 L 405.56 281.86 L 405.60 281.86 L 405.73 281.86 L 405.79 281.86 L 405.83 281.84 L 405.84 281.84 L 406.33 281.84 L 406.44 281.83 L 406.58 281.80 L 406.82 281.78 L 406.98 281.78 L 407.18 281.70 L 407.29 281.70 L 407.34 281.70 L 407.40 281.70 L 407.54 281.39 L 407.56 281.39 L 407.61 281.39 L 407.73 281.39 L 407.81 281.39 L 407.91 281.47 L 408.05 281.47 L 408.33 281.45 L 408.45 281.45 L 408.56 281.45 L 409.26 280.46 L 409.87 280.20 L 410.59 279.49 L 410.77 279.49 L 410.98 279.49 L 411.20 279.49 L 415.40 279.40 L 415.75 279.40 L 455.53 279.27 L 580.80 279.09 L 581.22 279.03 L 581.51 279.03 L 581.79 279.03 L 582.23 278.57 L 582.38 278.57 L 582.49 278.57 L 582.69 276.91 L 582.98 277.22 L 583.21 277.20 L 583.27 277.20 L 583.46 277.19 L 583.50 277.19 L 583.71 277.18 L 583.90 277.11 L 584.46 276.06 L 584.48 276.06 L 584.64 275.96 L 585.18 272.57 L 585.20 272.57 L 585.30 272.57 L 585.43 272.51 L 586.02 270.93 L 586.03 270.93 L 586.15 270.93 L 586.29 270.89 L 586.51 270.32 L 586.52 270.32 L 586.62 270.31 L 586.63 270.31 L 586.69 269.99 L 586.93 267.74 L 586.96 267.74 L 587.05 267.74 L 587.31 267.55 L 587.37 267.55 L 587.58 267.18 L 587.93 267.18 L 587.98 267.18 L 588.02 267.18 L 588.08 267.18 L 588.26 267.17 L 588.44 266.16 L 588.47 266.16 L 588.57 266.16 L 588.68 265.39 L 588.71 265.39 L 588.82 264.58 L 588.87 264.53 L 589.08 263.72 L 589.11 263.72 L 589.22 263.72 L 589.37 263.71 L 590.27 263.71 L 590.72 263.70 L 600.50 263.70 L 600.60 263.70 L 600.70 263.70 L 600.87 263.70 L 601.23 263.49 L 601.26 263.49 L 601.33 263.42 L 601.57 262.30 L 601.59 262.30 L 603.73 262.32 L 603.86 262.10 L 604.93 262.10 L 605.05 262.09 L 605.18 262.01 L 606.48 261.09 L 607.03 260.91 L 607.17 260.85 L 607.63 259.10 L 607.92 259.10 L 608.40 258.95 L 609.26 258.95 L 622.36 258.94 L 623.14 258.84 L 623.18 258.86 L 624.28 258.86 L 624.33 258.86 L 624.71 258.86 L 625.16 258.83 L 625.16 258.83 L 625.21 258.83 L 625.80 257.80 L 627.14 257.77 L 627.23 257.77 L 627.37 257.77 L 627.57 257.73 L 627.63 257.70 L 627.71 257.70 L 628.33 257.65 L 628.83 257.65 L 629.11 257.65 L 629.14 257.65 L 629.70 257.63 L 630.13 257.51 L 630.15 257.51 L 630.20 257.51 L 630.26 257.51 L 644.48 257.27 L 644.50 257.27 L 644.54 257.27 L 644.82 257.27 L 645.04 257.27 L 646.29 256.25 L 646.60 256.19 L 647.50 256.12 L 648.28 256.06 L 648.85 256.06 L 649.01 256.06 L 649.74 254.53 L 650.00 254.49"/>
	</g>
	<g id="poloto_plot2" class="poloto_plot poloto_imgs poloto_line poloto2 poloto_stroke" fill="none" stroke="black">
		<path d=" M 150.00 390.96 L 150.03 390.95 L 150.05 390.95 L 150.06 390.95 L 150.09 390.95 L 150.12 388.64 L 150.26 388.32 L 150.56 388.32 L 151.02 388.30 L 151.25 386.92 L 151.71 386.80 L 151.79 386.75 L 151.85 386.72 L 152.39 386.10 L 153.40 385.61 L 153.72 385.52 L 153.80 385.53 L 154.42 385.49 L 155.12 385.49 L 155.13 385.49 L 155.13 385.49 L 164.64 385.49 L 164.71 385.48 L 164.83 385.46 L 164.88 385.46 L 165.24 385.33 L 165.41 385.29 L 165.81 385.06 L 165.86 384.96 L 165.98 384.76 L 166.10 384.73 L 166.14 384.73 L 166.24 384.69 L 166.34 384.69 L 166.44 384.69 L 166.71 384.46 L 166.94 384.24 L 166.99 384.25 L 167.10 384.12 L 167.85 383.84 L 167.87 383.84 L 167.96 383.75 L 168.40 383.45 L 168.74 383.07 L 169.13 382.92 L 169.21 382.92 L 169.22 382.92 L 169.30 382.71 L 169.45 382.71 L 169.64 382.68 L 170.01 382.53 L 170.03 382.25 L 170.10 382.25 L 170.19 382.12 L 170.40 382.12 L 170.43 382.12 L 170.65 381.72 L 170.74 381.69 L 170.82 381.66 L 170.90 381.47 L 172.06 381.35 L 172.34 381.31 L 172.99 381.03 L 173.12 381.04 L 173.22 381.02 L 173.28 380.81 L 173.72 379.68 L 173.92 379.66 L 174.15 379.32 L 174.26 379.29 L 174.53 379.13 L 174.65 379.08 L 174.81 378.84 L 174.95 378.64 L 175.46 378.64 L 175.48 378.61 L 175.50 378.45 L 175.68 377.36 L 184.50 377.25 L 185.41 376.92 L 185.44 376.87 L 186.52 376.60 L 186.61 376.59 L 186.71 376.39 L 186.97 376.26 L 187.09 376.01 L 187.14 375.80 L 187.27 375.40 L 187.59 375.39 L 187.60 375.39 L 187.72 375.10 L 187.84 375.10 L 187.98 374.80 L 188.15 374.57 L 188.22 374.44 L 188.24 374.43 L 188.39 374.16 L 188.42 374.15 L 188.58 373.90 L 188.61 373.90 L 188.86 373.81 L 188.91 373.81 L 188.99 373.72 L 189.10 373.70 L 189.25 373.70 L 189.31 373.68 L 189.80 373.43 L 189.82 373.44 L 189.91 372.95 L 190.13 372.93 L 190.33 372.78 L 190.39 372.78 L 190.48 372.78 L 190.53 372.74 L 190.64 372.06 L 191.19 371.49 L 191.25 371.18 L 191.44 371.15 L 191.50 371.08 L 191.54 371.06 L 191.63 370.92 L 191.72 370.38 L 191.92 370.30 L 192.05 370.29 L 192.16 370.02 L 192.23 370.01 L 192.73 369.81 L 192.99 369.67 L 193.08 369.55 L 193.31 369.54 L 193.33 369.54 L 193.35 369.51 L 193.50 368.54 L 193.61 368.53 L 194.02 368.40 L 194.09 368.01 L 194.17 368.00 L 194.28 367.85 L 194.29 367.75 L 194.34 367.69 L 194.37 367.65 L 194.43 367.65 L 194.49 367.57 L 194.65 366.48 L 194.77 366.37 L 194.88 366.05 L 195.04 366.02 L 195.22 365.92 L 195.40 365.58 L 195.52 364.63 L 195.78 364.56 L 195.78 364.16 L 195.93 364.06 L 208.25 364.06 L 208.48 364.06 L 209.06 363.62 L 209.18 363.62 L 209.28 363.62 L 209.30 363.50 L 209.51 363.31 L 209.65 363.27 L 209.74 363.16 L 209.82 363.08 L 209.87 363.04 L 210.10 362.98 L 210.54 363.07 L 210.65 362.77 L 210.74 362.69 L 210.84 362.68 L 211.41 362.62 L 211.49 362.57 L 211.53 362.57 L 211.57 362.51 L 211.69 362.46 L 211.79 362.35 L 212.20 362.07 L 212.80 361.95 L 213.01 361.90 L 213.67 361.72 L 213.98 361.28 L 214.09 361.21 L 214.23 360.86 L 214.42 360.42 L 214.72 360.30 L 215.14 360.29 L 215.70 360.27 L 215.78 360.11 L 216.19 360.00 L 216.45 359.86 L 216.53 359.75 L 216.69 359.70 L 216.82 359.41 L 218.27 359.26 L 219.66 359.26 L 232.05 359.23 L 232.14 359.07 L 232.20 358.96 L 232.59 358.80 L 233.75 358.50 L 233.80 358.46 L 233.96 358.25 L 234.53 358.17 L 234.80 357.60 L 235.21 357.58 L 235.30 357.56 L 235.39 357.00 L 236.11 356.48 L 236.20 356.47 L 236.35 356.44 L 236.51 356.39 L 236.58 356.20 L 236.98 355.32 L 237.13 355.10 L 237.19 355.08 L 237.28 354.99 L 237.46 354.65 L 237.54 353.77 L 237.72 353.41 L 238.25 353.20 L 238.31 352.76 L 238.36 352.76 L 238.44 352.68 L 238.57 352.56 L 238.62 352.53 L 238.68 352.49 L 238.94 351.47 L 239.00 350.86 L 239.31 350.75 L 239.50 349.73 L 239.61 349.54 L 240.58 347.93 L 240.69 347.90 L 277.11 347.43 L 277.14 347.43 L 291.06 347.30 L 291.82 347.13 L 291.97 347.13 L 292.18 347.05 L 292.24 346.92 L 292.33 346.89 L 298.36 346.87 L 299.16 345.03 L 299.45 344.87 L 299.61 344.24 L 303.37 344.16 L 303.40 344.10 L 303.63 344.09 L 304.75 343.97 L 304.82 343.76 L 304.96 343.69 L 305.35 343.59 L 305.41 343.57 L 305.56 343.21 L 305.73 343.10 L 305.76 342.83 L 317.46 342.48 L 317.54 341.64 L 318.01 341.43 L 318.02 341.11 L 318.10 340.85 L 318.20 340.47 L 318.33 339.46 L 318.52 338.90 L 318.69 338.18 L 318.84 338.18 L 318.90 337.62 L 319.14 337.59 L 319.95 337.06 L 320.27 336.82 L 320.33 336.67 L 320.40 336.66 L 320.44 336.48 L 320.55 335.85 L 320.88 335.79 L 320.93 335.79 L 321.13 335.38 L 321.21 335.38 L 321.24 335.14 L 321.32 335.00 L 321.37 334.99 L 321.41 334.66 L 321.67 334.47 L 321.78 334.14 L 321.92 334.13 L 322.02 333.96 L 322.06 333.71 L 322.32 333.57 L 322.39 333.43 L 322.44 333.43 L 322.50 333.43 L 322.54 333.17 L 322.58 333.18 L 322.59 333.17 L 322.72 333.09 L 322.77 332.81 L 322.89 332.80 L 322.99 332.74 L 323.25 332.71 L 323.57 332.68 L 323.58 332.68 L 323.67 332.67 L 323.97 332.67 L 324.11 332.67 L 324.25 332.67 L 324.41 332.62 L 324.51 332.28 L 324.92 332.28 L 324.96 332.08 L 325.01 332.08 L 325.04 331.85 L 325.31 331.77 L 325.36 331.72 L 325.56 331.72 L 343.55 331.66 L 344.58 331.57 L 344.61 331.57 L 344.81 331.56 L 344.83 331.57 L 344.96 331.17 L 345.06 331.15 L 345.15 331.04 L 345.27 330.98 L 345.31 330.95 L 345.36 330.93 L 345.55 330.89 L 345.94 330.81 L 346.19 330.28 L 346.46 330.25 L 346.47 330.22 L 346.52 329.77 L 346.55 329.77 L 347.09 329.77 L 347.10 329.72 L 347.18 329.31 L 347.42 329.26 L 347.56 329.24 L 347.59 329.23 L 347.60 329.19 L 347.67 329.16 L 347.71 328.74 L 347.73 328.73 L 347.86 328.73 L 347.87 328.69 L 348.15 328.65 L 348.92 328.63 L 349.10 328.60 L 349.16 328.59 L 349.20 328.45 L 349.24 328.45 L 349.35 327.98 L 361.65 327.83 L 361.67 327.69 L 361.78 327.60 L 361.81 327.58 L 361.88 327.18 L 362.01 327.08 L 362.03 327.06 L 362.25 327.05 L 362.31 327.05 L 362.35 326.65 L 362.55 326.60 L 363.08 326.59 L 363.09 326.56 L 363.23 326.34 L 363.28 326.35 L 363.30 325.98 L 363.75 325.98 L 363.76 325.96 L 364.44 325.87 L 364.52 325.42 L 364.76 325.42 L 365.04 325.42 L 365.11 325.09 L 365.15 324.84 L 365.28 324.83 L 365.63 324.77 L 365.69 324.75 L 365.84 324.65 L 366.01 324.65 L 366.53 324.65 L 366.59 324.65 L 366.71 324.63 L 366.72 324.63 L 366.88 324.63 L 367.27 324.60 L 367.67 324.55 L 367.74 324.55 L 367.82 324.50 L 367.94 324.39 L 368.25 324.39 L 368.77 324.24 L 368.94 323.99 L 369.22 323.96 L 370.35 323.69 L 370.60 323.69 L 370.78 323.69 L 371.06 323.68 L 371.15 323.66 L 371.44 323.52 L 371.88 323.50 L 371.94 323.38 L 372.02 323.32 L 372.08 323.34 L 372.12 323.29 L 372.47 323.27 L 380.62 323.27 L 380.70 323.27 L 381.20 323.27 L 381.25 323.25 L 381.37 322.88 L 381.46 322.86 L 381.47 322.87 L 381.75 322.86 L 381.82 322.83 L 383.49 322.29 L 383.69 322.23 L 383.83 322.22 L 383.86 322.21 L 384.38 322.20 L 384.56 322.28 L 384.59 322.27 L 384.87 322.24 L 385.17 321.72 L 385.21 321.71 L 385.46 321.69 L 385.57 321.69 L 385.66 321.69 L 385.88 321.59 L 386.33 321.11 L 386.42 321.11 L 386.50 321.05 L 386.68 320.62 L 387.13 320.14 L 387.53 320.17 L 387.61 319.92 L 388.02 319.92 L 388.09 319.89 L 388.16 319.86 L 388.20 319.61 L 388.34 319.61 L 388.37 319.61 L 388.44 319.61 L 388.67 319.61 L 389.03 319.41 L 389.25 319.39 L 389.50 319.39 L 389.61 319.39 L 389.86 319.39 L 390.27 319.39 L 390.68 319.39 L 391.00 319.38 L 391.07 319.38 L 391.15 319.37 L 391.15 319.28 L 391.39 319.22 L 391.46 319.22 L 391.56 319.21 L 392.23 319.20 L 392.24 318.96 L 392.42 318.96 L 393.20 318.97 L 393.72 318.96 L 394.10 318.91 L 394.11 318.81 L 394.14 318.81 L 405.56 318.64 L 405.60 318.64 L 405.73 318.63 L 405.79 318.48 L 405.83 318.48 L 405.84 318.47 L 406.33 318.42 L 406.44 317.92 L 406.58 317.81 L 406.82 316.83 L 406.98 316.83 L 407.18 316.40 L 407.29 316.45 L 407.34 316.45 L 407.40 315.91 L 407.54 315.82 L 407.56 315.45 L 407.61 315.40 L 407.73 315.36 L 407.81 315.18 L 407.91 317.38 L 408.05 317.34 L 408.33 316.46 L 408.45 316.26 L 408.56 316.07 L 409.26 315.72 L 409.87 315.35 L 410.59 314.83 L 410.77 314.77 L 410.98 314.77 L 411.20 314.73 L 415.40 314.47 L 415.75 314.44 L 455.53 313.75 L 580.80 313.73 L 581.22 313.42 L 581.51 313.37 L 581.79 313.37 L 582.23 313.09 L 582.38 312.76 L 582.49 312.16 L 582.69 312.00 L 582.98 312.06 L 583.21 311.70 L 583.27 311.70 L 583.46 311.59 L 583.50 311.59 L 583.71 311.00 L 583.90 310.10 L 584.46 310.01 L 584.48 309.92 L 584.64 308.75 L 585.18 308.71 L 585.20 308.60 L 585.30 308.53 L 585.43 307.47 L 586.02 307.42 L 586.03 307.27 L 586.15 307.20 L 586.29 306.51 L 586.51 306.48 L 586.52 306.37 L 586.62 305.22 L 586.63 305.19 L 586.69 305.16 L 586.93 305.16 L 586.96 305.03 L 587.05 304.95 L 587.31 304.84 L 587.37 304.84 L 587.58 304.78 L 587.93 304.82 L 587.98 304.77 L 588.02 304.74 L 588.08 304.70 L 588.26 303.51 L 588.44 303.49 L 588.47 303.38 L 588.57 302.16 L 588.68 301.72 L 588.71 301.56 L 588.82 300.96 L 588.87 299.92 L 589.08 299.91 L 589.11 299.85 L 589.22 299.64 L 589.37 299.63 L 590.27 299.60 L 590.72 299.57 L 600.50 299.62 L 600.60 299.39 L 600.70 299.21 L 600.87 298.38 L 601.23 298.37 L 601.26 298.29 L 601.33 297.24 L 601.57 297.24 L 601.59 297.13 L 603.73 297.03 L 603.86 296.65 L 604.93 296.47 L 605.05 296.43 L 605.18 295.27 L 606.48 294.94 L 607.03 294.66 L 607.17 293.79 L 607.63 293.79 L 607.92 293.30 L 608.40 292.55 L 609.26 292.10 L 622.36 292.10 L 623.14 292.08 L 623.18 292.08 L 624.28 291.92 L 624.33 291.82 L 624.71 291.75 L 625.16 290.78 L 625.16 290.78 L 625.21 290.74 L 625.80 290.53 L 627.14 289.88 L 627.23 289.82 L 627.37 289.81 L 627.57 289.54 L 627.63 289.50 L 627.71 289.44 L 628.33 289.44 L 628.83 289.44 L 629.11 289.44 L 629.14 289.40 L 629.70 288.41 L 630.13 288.32 L 630.15 288.24 L 630.20 288.15 L 630.26 287.91 L 644.48 287.72 L 644.50 287.70 L 644.54 287.68 L 644.82 287.56 L 645.04 287.43 L 646.29 286.88 L 646.60 286.76 L 647.50 286.34 L 648.28 286.27 L 648.85 286.10 L 649.01 284.65 L 649.74 284.40 L 650.00 284.33"/>
	</g>
	<g class="poloto_legend poloto_imgs poloto_line poloto0 poloto_stroke"><line x1="680" x2="730" y1="81.25" y2="81.25"/></g>
	<g class="poloto_legend poloto_imgs poloto_line poloto1 poloto_stroke"><line x1="680" x2="730" y1="131.25" y2="131.25"/></g>
	<g class="poloto_legend poloto_imgs poloto_line poloto2 poloto_stroke"><line x1="680" x2="730" y1="181.25" y2="181.25"/></g>
	<text class="poloto_legend poloto_text poloto_line poloto0" x="675" y="100">total</text>
	<text class="poloto_legend poloto_text poloto_line poloto1" x="675" y="150">code</text>
	<text class="poloto_legend poloto_text poloto_line poloto2" x="675" y="200">docs</text>
	<text class="poloto_text poloto_name poloto_title" x="400.00" y="37.50">Workspace lines over time</text>
	<text class="poloto_text poloto_name poloto_x" x="400.00" y="640">date (JST)</text>
	<text class="poloto_text poloto_name poloto_y" x="37.50" y="250.00" transform="rotate(-90,37.50,250.00)">lines</text>
	<text class="poloto_text poloto_ticks poloto_y">
		<tspan x="135.00" y="400.00">0</tspan>
		<tspan x="135.00" y="314.05">50K</tspan>
		<tspan x="135.00" y="228.10">100K</tspan>
		<tspan x="135.00" y="142.16">150K</tspan>
	</text>
	<g class="poloto_imgs poloto_ticks poloto_y" stroke="black">
		<line x1="150.00" x2="144.00" y1="400.00" y2="400.00"/>
		<line x1="150.00" x2="144.00" y1="314.05" y2="314.05"/>
		<line x1="150.00" x2="144.00" y1="228.10" y2="228.10"/>
		<line x1="150.00" x2="144.00" y1="142.16" y2="142.16"/>
	</g>
	<g class="poloto_text poloto_ticks poloto_x">
		<text x="231.89" y="430.00" text-anchor="end" transform="rotate(-90 231.89 430.00)">2026-04-24 12:06</text>
		<text x="357.95" y="430.00" text-anchor="end" transform="rotate(-90 357.95 430.00)">2026-04-30 07:00</text>
		<text x="484.01" y="430.00" text-anchor="end" transform="rotate(-90 484.01 430.00)">2026-05-06 01:53</text>
		<text x="610.07" y="430.00" text-anchor="end" transform="rotate(-90 610.07 430.00)">2026-05-11 20:46</text>
	</g>
	<g class="poloto_imgs poloto_ticks poloto_x" stroke="black">
		<line x1="231.89" x2="231.89" y1="400.00" y2="405.00"/>
		<line x1="357.95" x2="357.95" y1="400.00" y2="405.00"/>
		<line x1="484.01" x2="484.01" y1="400.00" y2="405.00"/>
		<line x1="610.07" x2="610.07" y1="400.00" y2="405.00"/>
	</g>
	<path class="poloto_imgs poloto_ticks poloto_x" stroke="black" style="stroke-dasharray:12.605889471561113;stroke-dashoffset:-81.89365671639098;" d=" M 150.00 400.00 L 650.00 400.00"/>
	<path class="poloto_imgs poloto_ticks poloto_y" stroke="black" style="stroke-dasharray:8.594757198109154;stroke-dashoffset:-0;" d=" M 150.00 400.00 L 150.00 100.00"/>
</svg>

