<svg class="poloto" width="800" height="680" viewBox="0 0 800 680" xmlns="http://www.w3.org/2000/svg">
	<style>
.poloto{
  stroke-linecap:round;
  stroke-linejoin:round;
  font-family:Roboto,sans-serif;
  font-size:16px;
}
.poloto_background{fill:AliceBlue;}
.poloto_scatter{stroke-width:7}
.poloto_line{stroke-width:2}
.poloto_text{fill: black;}
.poloto_name{font-size:24px;dominant-baseline:auto;text-anchor:middle;}
.poloto_where{dominant-baseline:middle;text-anchor:start}
.poloto_text.poloto_legend{font-size:20px;dominant-baseline:middle;text-anchor:start;}
.poloto_text.poloto_ticks.poloto_y{dominant-baseline:middle;text-anchor:end}
.poloto_text.poloto_ticks.poloto_x{dominant-baseline:auto;text-anchor:middle}
.poloto_imgs.poloto_ticks{stroke: black;stroke-width:3;fill:none;stroke-dasharray:none}
.poloto_grid{stroke:gray;stroke-width:0.5}

.poloto0.poloto_stroke{stroke:blue;}
.poloto1.poloto_stroke{stroke:red;}
.poloto2.poloto_stroke{stroke:green;}
.poloto3.poloto_stroke{stroke:gold;}
.poloto4.poloto_stroke{stroke:aqua;}
.poloto5.poloto_stroke{stroke:lime;}
.poloto6.poloto_stroke{stroke:orange;}
.poloto7.poloto_stroke{stroke:chocolate;}
.poloto0.poloto_fill{fill:blue;}
.poloto1.poloto_fill{fill:red;}
.poloto2.poloto_fill{fill:green;}
.poloto3.poloto_fill{fill:gold;}
.poloto4.poloto_fill{fill:aqua;}
.poloto5.poloto_fill{fill:lime;}
.poloto6.poloto_fill{fill:orange;}
.poloto7.poloto_fill{fill:chocolate;}
	</style>
	<circle r="1e5" class="poloto_background" fill="white"/>
	<g id="poloto_plot0" class="poloto_plot poloto_imgs poloto_line poloto0 poloto_stroke" fill="none" stroke="black">
		<path d=" M 150.00 365.85 L 150.03 365.82 L 150.05 365.81 L 150.06 365.81 L 150.09 365.81 L 150.12 362.10 L 150.26 361.65 L 150.56 361.63 L 151.02 361.33 L 151.25 359.44 L 151.71 359.33 L 151.80 359.23 L 151.85 359.19 L 152.40 358.27 L 153.41 357.52 L 153.73 354.61 L 153.81 354.62 L 154.43 354.50 L 155.13 354.49 L 155.14 354.49 L 155.14 354.49 L 164.67 354.49 L 164.73 354.48 L 164.86 354.46 L 164.91 354.42 L 165.27 354.26 L 165.44 354.21 L 165.84 353.94 L 165.90 353.82 L 166.01 353.56 L 166.13 353.52 L 166.17 353.52 L 166.27 353.45 L 166.37 353.45 L 166.48 353.45 L 166.74 353.02 L 166.97 352.75 L 167.02 352.76 L 167.13 352.60 L 167.89 353.26 L 167.90 353.26 L 168.00 353.15 L 168.43 352.66 L 168.78 352.06 L 169.17 351.80 L 169.25 351.75 L 169.26 351.75 L 169.34 351.52 L 169.48 351.52 L 169.68 351.44 L 170.05 351.22 L 170.07 350.87 L 170.14 350.87 L 170.23 350.69 L 170.44 350.69 L 170.47 350.69 L 170.69 350.19 L 170.78 350.16 L 170.86 350.12 L 170.95 349.92 L 172.10 349.66 L 172.38 349.60 L 173.03 349.25 L 173.17 349.25 L 173.27 349.23 L 173.33 348.98 L 173.77 347.51 L 173.97 347.48 L 174.20 346.99 L 174.31 346.94 L 174.58 346.53 L 174.69 346.39 L 174.85 346.13 L 175.00 345.89 L 175.51 342.50 L 175.53 342.42 L 175.55 342.22 L 175.73 340.59 L 184.56 340.47 L 185.48 338.61 L 185.51 338.57 L 186.59 338.28 L 186.68 338.27 L 186.78 337.90 L 187.05 337.72 L 187.17 337.40 L 187.21 337.12 L 187.35 336.64 L 187.66 336.63 L 187.67 336.30 L 187.79 335.94 L 187.92 335.93 L 188.05 335.52 L 188.22 335.23 L 188.29 335.08 L 188.32 335.08 L 188.47 334.76 L 188.49 334.75 L 188.66 334.43 L 188.69 334.43 L 188.94 332.89 L 188.98 332.89 L 189.07 332.64 L 189.18 332.63 L 189.32 332.63 L 189.39 332.59 L 189.88 332.30 L 189.89 332.31 L 189.99 331.63 L 190.21 331.62 L 190.41 330.60 L 190.47 330.51 L 190.56 330.50 L 190.61 330.46 L 190.72 329.67 L 191.28 323.02 L 191.34 322.70 L 191.52 322.67 L 191.58 322.59 L 191.62 322.57 L 191.71 322.39 L 191.80 321.64 L 192.00 321.48 L 192.14 321.46 L 192.25 321.13 L 192.31 321.12 L 192.81 320.88 L 193.08 320.69 L 193.16 320.39 L 193.39 320.38 L 193.42 320.38 L 193.44 320.35 L 193.58 318.75 L 193.70 318.66 L 194.11 317.04 L 194.18 316.57 L 194.26 316.56 L 194.36 316.39 L 194.38 316.27 L 194.42 316.19 L 194.46 316.15 L 194.52 316.14 L 194.57 316.06 L 194.74 314.74 L 194.86 314.54 L 194.97 314.16 L 195.13 314.13 L 195.31 314.01 L 195.49 313.08 L 195.61 311.78 L 195.87 311.71 L 195.87 311.22 L 196.03 311.07 L 208.36 311.07 L 208.60 311.05 L 209.18 310.37 L 209.30 310.35 L 209.40 310.35 L 209.42 310.18 L 209.63 309.97 L 209.77 309.93 L 209.86 309.81 L 209.94 309.72 L 209.99 309.67 L 210.22 309.61 L 210.66 309.53 L 210.77 309.17 L 210.86 309.08 L 210.96 309.07 L 211.53 308.90 L 211.61 308.79 L 211.65 308.79 L 211.69 308.66 L 211.81 308.60 L 211.91 308.47 L 212.32 307.60 L 212.92 307.47 L 213.14 307.41 L 213.80 307.19 L 214.11 303.01 L 214.22 302.93 L 214.36 302.52 L 214.55 301.97 L 214.85 301.81 L 215.27 301.80 L 215.83 301.78 L 215.91 301.60 L 216.32 301.41 L 216.58 301.10 L 216.67 300.98 L 216.83 300.93 L 216.95 300.56 L 218.41 300.15 L 219.80 300.15 L 232.21 300.11 L 232.30 299.93 L 232.37 299.81 L 232.75 299.63 L 233.91 298.19 L 233.96 298.10 L 234.13 297.73 L 234.70 297.63 L 234.97 296.66 L 235.38 296.65 L 235.47 296.63 L 235.56 295.97 L 236.28 292.16 L 236.37 292.16 L 236.52 292.13 L 236.68 292.08 L 236.75 291.66 L 237.16 290.23 L 237.30 289.96 L 237.37 289.94 L 237.46 289.28 L 237.64 288.35 L 237.71 287.36 L 237.89 286.92 L 238.43 281.97 L 238.48 281.47 L 238.53 281.47 L 238.61 281.38 L 238.75 281.26 L 238.80 281.21 L 238.85 281.16 L 239.11 279.97 L 239.17 279.14 L 239.49 278.97 L 239.67 277.73 L 239.79 276.94 L 240.75 265.42 L 240.87 265.38 L 277.36 264.83 L 277.39 264.83 L 291.34 264.68 L 292.10 264.36 L 292.25 264.36 L 292.46 264.27 L 292.52 264.13 L 292.61 264.09 L 298.65 264.01 L 299.45 261.81 L 299.75 261.62 L 299.91 260.81 L 303.67 260.65 L 303.70 260.42 L 303.93 260.41 L 305.06 259.02 L 305.12 258.77 L 305.26 258.69 L 305.66 258.59 L 305.71 258.55 L 305.87 258.14 L 306.04 258.02 L 306.07 257.72 L 317.79 257.29 L 317.88 256.11 L 318.34 255.85 L 318.35 253.87 L 318.43 253.58 L 318.53 253.10 L 318.66 251.73 L 318.86 251.01 L 319.02 250.16 L 319.18 250.16 L 319.24 249.51 L 319.47 249.45 L 320.28 246.27 L 320.61 245.93 L 320.67 245.73 L 320.73 245.72 L 320.78 245.50 L 320.89 244.72 L 321.22 244.34 L 321.27 244.30 L 321.47 241.49 L 321.55 241.48 L 321.58 241.18 L 321.65 240.95 L 321.70 240.95 L 321.75 240.53 L 322.01 239.01 L 322.12 238.58 L 322.26 238.53 L 322.36 234.48 L 322.40 234.15 L 322.66 231.84 L 322.73 231.66 L 322.78 231.65 L 322.84 231.64 L 322.88 231.32 L 322.92 231.33 L 322.93 231.32 L 323.07 227.23 L 323.11 226.88 L 323.24 226.85 L 323.33 226.78 L 323.59 226.67 L 323.91 226.51 L 323.93 226.51 L 324.01 226.46 L 324.31 226.39 L 324.46 226.39 L 324.60 226.39 L 324.75 224.60 L 324.85 224.18 L 325.27 224.17 L 325.30 223.89 L 325.35 223.88 L 325.39 223.58 L 325.66 221.00 L 325.71 220.94 L 325.90 220.92 L 343.94 220.85 L 344.96 220.71 L 345.00 220.71 L 345.20 220.71 L 345.22 220.71 L 345.35 220.20 L 345.45 220.18 L 345.53 219.93 L 345.66 219.86 L 345.70 219.83 L 345.74 219.81 L 345.93 219.52 L 346.33 219.26 L 346.57 218.43 L 346.85 217.65 L 346.86 217.60 L 346.91 216.87 L 346.94 216.84 L 347.48 216.40 L 347.49 216.35 L 347.57 215.77 L 347.81 215.70 L 347.95 215.65 L 347.98 214.60 L 347.99 214.55 L 348.06 215.54 L 348.10 214.93 L 348.12 214.91 L 348.25 213.51 L 348.26 213.47 L 348.55 213.36 L 349.32 213.34 L 349.50 213.29 L 349.55 213.28 L 349.59 213.09 L 349.64 213.09 L 349.75 212.40 L 362.07 211.07 L 362.09 210.89 L 362.20 210.76 L 362.23 210.50 L 362.30 198.83 L 362.43 194.06 L 362.45 194.03 L 362.67 193.93 L 362.73 193.93 L 362.77 193.39 L 362.97 193.33 L 363.50 192.20 L 363.51 192.18 L 363.65 191.83 L 363.70 191.84 L 363.73 191.28 L 364.17 190.61 L 364.18 190.59 L 364.86 190.33 L 364.94 189.73 L 365.18 189.74 L 365.46 188.24 L 365.53 187.64 L 365.58 187.17 L 365.70 186.59 L 366.05 186.38 L 366.12 186.23 L 366.27 186.10 L 366.43 186.10 L 366.95 186.10 L 367.01 186.10 L 367.13 186.08 L 367.14 186.07 L 367.31 186.09 L 367.70 186.06 L 368.10 185.84 L 368.17 185.84 L 368.25 185.75 L 368.37 185.59 L 368.68 185.59 L 369.20 185.38 L 369.37 184.92 L 369.65 180.90 L 370.79 184.30 L 371.03 184.28 L 371.22 184.26 L 371.50 184.26 L 371.59 184.19 L 371.87 184.00 L 372.32 183.73 L 372.38 183.54 L 372.46 183.46 L 372.51 183.48 L 372.56 183.42 L 372.91 183.17 L 381.08 183.17 L 381.15 183.17 L 381.66 183.16 L 381.71 183.14 L 381.82 182.63 L 381.92 182.34 L 381.93 182.34 L 382.21 182.29 L 382.28 182.27 L 383.95 181.51 L 384.15 181.45 L 384.30 181.43 L 384.33 181.43 L 384.84 181.25 L 385.02 181.34 L 385.06 181.33 L 385.33 181.28 L 385.64 179.69 L 385.67 179.68 L 385.93 179.50 L 386.03 179.50 L 386.13 179.50 L 386.34 179.32 L 386.80 178.68 L 386.88 178.66 L 386.96 178.48 L 387.15 177.72 L 387.60 176.93 L 388.00 173.24 L 388.08 172.78 L 388.49 172.60 L 388.56 172.51 L 388.63 172.33 L 388.67 171.74 L 388.81 170.67 L 388.84 170.71 L 388.91 170.69 L 389.14 170.69 L 389.50 170.30 L 389.72 170.22 L 389.97 170.21 L 390.09 170.19 L 390.33 170.18 L 390.75 170.18 L 391.16 170.17 L 391.47 170.17 L 391.54 170.16 L 391.62 170.15 L 391.63 170.01 L 391.87 169.94 L 391.94 169.93 L 392.04 169.76 L 392.71 169.74 L 392.72 169.42 L 392.90 169.41 L 393.68 169.41 L 394.20 169.22 L 394.58 168.98 L 394.59 168.85 L 394.62 168.85 L 406.07 168.63 L 406.10 168.62 L 406.24 168.61 L 406.30 168.43 L 406.34 168.41 L 406.35 168.39 L 406.83 168.34 L 406.94 167.67 L 407.09 167.52 L 407.33 166.21 L 407.49 166.19 L 407.68 165.63 L 407.79 165.70 L 407.85 165.69 L 407.90 165.05 L 408.05 164.62 L 408.07 164.15 L 408.12 164.09 L 408.24 164.05 L 408.32 163.83 L 408.42 166.35 L 408.56 166.30 L 408.84 165.30 L 408.96 165.05 L 409.07 164.84 L 409.78 163.39 L 410.38 162.69 L 411.10 161.36 L 411.29 161.30 L 411.49 161.30 L 411.72 161.24 L 415.92 160.86 L 416.27 160.82 L 456.13 159.81 L 581.65 159.57 L 582.07 159.16 L 582.36 159.11 L 582.65 159.11 L 583.08 158.32 L 583.23 157.94 L 583.35 157.24 L 583.55 155.21 L 583.84 155.63 L 584.07 155.19 L 584.12 155.18 L 584.32 155.04 L 584.36 155.05 L 584.57 154.30 L 584.75 153.11 L 585.32 151.85 L 585.34 151.74 L 585.50 150.24 L 586.04 146.50 L 586.06 146.37 L 586.16 146.29 L 586.29 144.96 L 586.88 143.16 L 586.89 143.00 L 587.02 142.91 L 587.15 142.03 L 587.37 141.33 L 587.38 141.20 L 587.48 139.83 L 587.50 139.80 L 587.55 139.41 L 587.79 136.98 L 587.83 136.84 L 587.91 136.70 L 588.18 136.38 L 588.23 136.37 L 588.44 135.90 L 588.79 135.96 L 588.84 135.89 L 588.89 135.86 L 588.95 135.83 L 589.12 134.40 L 589.31 133.24 L 589.34 133.13 L 589.44 131.68 L 589.55 130.26 L 589.57 130.08 L 589.68 128.41 L 589.73 127.11 L 589.95 126.22 L 589.98 126.16 L 590.09 125.89 L 590.24 125.86 L 591.14 125.82 L 591.59 125.79 L 601.39 125.84 L 601.49 125.59 L 601.59 125.37 L 601.76 124.39 L 602.12 124.14 L 602.15 124.04 L 602.22 122.75 L 602.46 121.49 L 602.48 121.38 L 604.62 121.30 L 604.75 120.59 L 605.83 120.38 L 605.95 120.33 L 606.08 118.87 L 607.38 117.50 L 607.93 116.98 L 608.07 115.91 L 608.54 114.08 L 608.83 113.55 L 609.31 112.47 L 610.17 111.92 L 623.29 111.91 L 624.08 111.79 L 624.11 111.81 L 625.21 111.60 L 625.27 111.49 L 625.65 111.41 L 626.10 110.22 L 626.10 110.22 L 626.15 110.17 L 626.73 108.80 L 628.08 108.02 L 628.17 107.95 L 628.31 107.94 L 628.52 107.58 L 628.57 107.49 L 628.65 107.42 L 629.28 107.37 L 629.78 107.37 L 630.05 107.37 L 630.09 107.31 L 630.65 106.12 L 631.08 105.89 L 631.10 105.80 L 631.15 105.71 L 631.21 105.39 L 645.45 104.93 L 645.48 104.91 L 645.52 104.89 L 645.80 104.75 L 646.01 104.61 L 647.27 102.77 L 647.58 102.56 L 648.48 102.00 L 649.26 101.87 L 649.84 101.69 L 650.00 100.00"/>
	</g>
	<g id="poloto_plot1" class="poloto_plot poloto_imgs poloto_line poloto1 poloto_stroke" fill="none" stroke="black">
		<path d=" M 150.00 379.71 L 150.03 379.69 L 150.05 379.68 L 150.06 379.68 L 150.09 379.68 L 150.12 379.04 L 150.26 379.01 L 150.56 379.00 L 151.02 378.76 L 151.25 378.65 L 151.71 378.68 L 151.80 378.63 L 151.85 378.63 L 152.40 378.58 L 153.41 378.46 L 153.73 375.95 L 153.81 375.95 L 154.43 375.89 L 155.13 375.88 L 155.14 375.88 L 155.14 375.88 L 164.67 375.88 L 164.73 375.88 L 164.86 375.88 L 164.91 375.85 L 165.27 375.83 L 165.44 375.83 L 165.84 375.83 L 165.90 375.83 L 166.01 375.81 L 166.13 375.81 L 166.17 375.81 L 166.27 375.79 L 166.37 375.79 L 166.48 375.79 L 166.74 375.65 L 166.97 375.65 L 167.02 375.65 L 167.13 375.65 L 167.89 376.59 L 167.90 376.59 L 168.00 376.58 L 168.43 376.43 L 168.78 376.28 L 169.17 376.21 L 169.25 376.16 L 169.26 376.16 L 169.34 376.16 L 169.48 376.16 L 169.68 376.10 L 170.05 376.04 L 170.07 376.04 L 170.14 376.04 L 170.23 376.02 L 170.44 376.02 L 170.47 376.02 L 170.69 376.01 L 170.78 376.01 L 170.86 376.01 L 170.95 376.01 L 172.10 375.90 L 172.38 375.89 L 173.03 375.84 L 173.17 375.84 L 173.27 375.84 L 173.33 375.84 L 173.77 375.76 L 173.97 375.76 L 174.20 375.67 L 174.31 375.66 L 174.58 375.46 L 174.69 375.39 L 174.85 375.39 L 175.00 375.38 L 175.51 372.45 L 175.53 372.40 L 175.55 372.40 L 175.73 372.12 L 184.56 372.12 L 185.48 370.85 L 185.51 370.85 L 186.59 370.85 L 186.68 370.85 L 186.78 370.72 L 187.05 370.70 L 187.17 370.70 L 187.21 370.70 L 187.35 370.70 L 187.66 370.70 L 187.67 370.42 L 187.79 370.41 L 187.92 370.41 L 188.05 370.38 L 188.22 370.38 L 188.29 370.38 L 188.32 370.38 L 188.47 370.38 L 188.49 370.38 L 188.66 370.38 L 188.69 370.38 L 188.94 369.13 L 188.98 369.13 L 189.07 368.98 L 189.18 368.98 L 189.32 368.98 L 189.39 368.97 L 189.88 368.96 L 189.89 368.96 L 189.99 368.89 L 190.21 368.89 L 190.41 368.18 L 190.47 368.09 L 190.56 368.09 L 190.61 368.09 L 190.72 368.07 L 191.28 362.83 L 191.34 362.87 L 191.52 362.87 L 191.58 362.87 L 191.62 362.86 L 191.71 362.86 L 191.80 362.79 L 192.00 362.79 L 192.14 362.79 L 192.25 362.78 L 192.31 362.78 L 192.81 362.77 L 193.08 362.77 L 193.16 362.64 L 193.39 362.64 L 193.42 362.64 L 193.44 362.64 L 193.58 362.29 L 193.70 362.20 L 194.11 360.95 L 194.18 360.95 L 194.26 360.95 L 194.36 360.97 L 194.38 360.97 L 194.42 360.97 L 194.46 360.97 L 194.52 360.97 L 194.57 360.97 L 194.74 360.94 L 194.86 360.94 L 194.97 360.93 L 195.13 360.93 L 195.31 360.92 L 195.49 360.46 L 195.61 360.30 L 195.87 360.30 L 195.87 360.29 L 196.03 360.29 L 208.36 360.29 L 208.60 360.29 L 209.18 360.21 L 209.30 360.19 L 209.40 360.19 L 209.42 360.19 L 209.63 360.19 L 209.77 360.19 L 209.86 360.19 L 209.94 360.19 L 209.99 360.19 L 210.22 360.19 L 210.66 360.21 L 210.77 360.21 L 210.86 360.21 L 210.96 360.21 L 211.53 360.11 L 211.61 360.07 L 211.65 360.07 L 211.69 360.00 L 211.81 360.00 L 211.91 359.99 L 212.32 359.52 L 212.92 359.52 L 213.14 359.52 L 213.80 359.52 L 214.11 356.31 L 214.22 356.31 L 214.36 356.31 L 214.55 356.30 L 214.85 356.30 L 215.27 356.30 L 215.83 356.30 L 215.91 356.30 L 216.32 356.22 L 216.58 356.09 L 216.67 356.09 L 216.83 356.09 L 216.95 356.07 L 218.41 355.87 L 219.80 355.87 L 232.21 355.87 L 232.30 355.87 L 232.37 355.87 L 232.75 355.87 L 233.91 354.86 L 233.96 354.82 L 234.13 354.72 L 234.70 354.71 L 234.97 354.47 L 235.38 354.47 L 235.47 354.47 L 235.56 354.47 L 236.28 351.66 L 236.37 351.66 L 236.52 351.66 L 236.68 351.66 L 236.75 351.48 L 237.16 351.14 L 237.30 351.14 L 237.37 351.14 L 237.46 350.62 L 237.64 350.10 L 237.71 350.10 L 237.89 350.09 L 238.43 345.90 L 238.48 345.90 L 238.53 345.90 L 238.61 345.90 L 238.75 345.90 L 238.80 345.90 L 238.85 345.90 L 239.11 345.90 L 239.17 345.81 L 239.49 345.79 L 239.67 345.73 L 239.79 345.23 L 240.75 336.88 L 240.87 336.88 L 277.36 336.88 L 277.39 336.88 L 291.34 336.88 L 292.10 336.75 L 292.25 336.75 L 292.46 336.75 L 292.52 336.75 L 292.61 336.75 L 298.65 336.69 L 299.45 336.61 L 299.75 336.61 L 299.91 336.58 L 303.67 336.51 L 303.70 336.40 L 303.93 336.40 L 305.06 335.27 L 305.12 335.27 L 305.26 335.27 L 305.66 335.27 L 305.71 335.27 L 305.87 335.27 L 306.04 335.27 L 306.07 335.27 L 317.79 335.25 L 317.88 335.05 L 318.34 335.05 L 318.35 333.68 L 318.43 333.68 L 318.53 333.68 L 318.66 333.56 L 318.86 333.56 L 319.02 333.50 L 319.18 333.50 L 319.24 333.50 L 319.47 333.48 L 320.28 331.17 L 320.61 331.16 L 320.67 331.15 L 320.73 331.15 L 320.78 331.15 L 320.89 331.11 L 321.22 330.83 L 321.27 330.78 L 321.47 328.71 L 321.55 328.70 L 321.58 328.70 L 321.65 328.67 L 321.70 328.67 L 321.75 328.66 L 322.01 327.53 L 322.12 327.52 L 322.26 327.49 L 322.36 323.97 L 322.40 323.97 L 322.66 321.99 L 322.73 321.99 L 322.78 321.98 L 322.84 321.98 L 322.88 321.98 L 322.92 321.98 L 322.93 321.98 L 323.07 318.31 L 323.11 318.31 L 323.24 318.30 L 323.33 318.30 L 323.59 318.22 L 323.91 318.12 L 323.93 318.12 L 324.01 318.10 L 324.31 318.04 L 324.46 318.04 L 324.60 318.04 L 324.75 316.46 L 324.85 316.46 L 325.27 316.45 L 325.30 316.45 L 325.35 316.45 L 325.39 316.45 L 325.66 314.19 L 325.71 314.19 L 325.90 314.18 L 343.94 314.18 L 344.96 314.16 L 345.00 314.16 L 345.20 314.16 L 345.22 314.16 L 345.35 314.16 L 345.45 314.16 L 345.53 314.05 L 345.66 314.05 L 345.70 314.05 L 345.74 314.05 L 345.93 313.84 L 346.33 313.71 L 346.57 313.58 L 346.85 312.94 L 346.86 312.94 L 346.91 312.78 L 346.94 312.76 L 347.48 312.37 L 347.49 312.37 L 347.57 312.32 L 347.81 312.32 L 347.95 312.28 L 347.98 311.34 L 347.99 311.34 L 348.06 312.27 L 348.10 312.21 L 348.12 312.20 L 348.25 310.95 L 348.26 310.95 L 348.55 310.89 L 349.32 310.89 L 349.50 310.89 L 349.55 310.89 L 349.59 310.89 L 349.64 310.89 L 349.75 310.81 L 362.07 309.77 L 362.09 309.77 L 362.20 309.76 L 362.23 309.54 L 362.30 298.40 L 362.43 294.25 L 362.45 294.25 L 362.67 294.17 L 362.73 294.17 L 362.77 294.16 L 362.97 294.16 L 363.50 293.14 L 363.51 293.14 L 363.65 293.09 L 363.70 293.09 L 363.73 293.00 L 364.17 292.40 L 364.18 292.40 L 364.86 292.27 L 364.94 292.23 L 365.18 292.24 L 365.46 290.88 L 365.53 290.74 L 365.58 290.61 L 365.70 290.10 L 366.05 289.97 L 366.12 289.86 L 366.27 289.86 L 366.43 289.86 L 366.95 289.86 L 367.01 289.86 L 367.13 289.86 L 367.14 289.86 L 367.31 289.87 L 367.70 289.87 L 368.10 289.73 L 368.17 289.73 L 368.25 289.72 L 368.37 289.72 L 368.68 289.72 L 369.20 289.72 L 369.37 289.59 L 369.65 286.00 L 370.79 289.39 L 371.03 289.37 L 371.22 289.36 L 371.50 289.36 L 371.59 289.33 L 371.87 289.30 L 372.32 289.10 L 372.38 289.10 L 372.46 289.10 L 372.51 289.10 L 372.56 289.10 L 372.91 288.90 L 381.08 288.90 L 381.15 288.91 L 381.66 288.89 L 381.71 288.89 L 381.82 288.86 L 381.92 288.61 L 381.93 288.60 L 382.21 288.57 L 382.28 288.57 L 383.95 288.37 L 384.15 288.37 L 384.30 288.37 L 384.33 288.37 L 384.84 288.22 L 385.02 288.22 L 385.06 288.22 L 385.33 288.21 L 385.64 287.36 L 385.67 287.36 L 385.93 287.22 L 386.03 287.22 L 386.13 287.22 L 386.34 287.22 L 386.80 287.21 L 386.88 287.19 L 386.96 287.10 L 387.15 286.96 L 387.60 286.83 L 388.00 283.44 L 388.08 283.32 L 388.49 283.16 L 388.56 283.12 L 388.63 283.00 L 388.67 282.76 L 388.81 281.75 L 388.84 281.79 L 388.91 281.77 L 389.14 281.77 L 389.50 281.63 L 389.72 281.57 L 389.97 281.56 L 390.09 281.55 L 390.33 281.53 L 390.75 281.53 L 391.16 281.52 L 391.47 281.52 L 391.54 281.52 L 391.62 281.51 L 391.63 281.51 L 391.87 281.51 L 391.94 281.49 L 392.04 281.37 L 392.71 281.35 L 392.72 281.35 L 392.90 281.34 L 393.68 281.34 L 394.20 281.17 L 394.58 281.02 L 394.59 281.02 L 394.62 281.02 L 406.07 281.02 L 406.10 281.02 L 406.24 281.02 L 406.30 281.02 L 406.34 281.00 L 406.35 281.00 L 406.83 281.00 L 406.94 280.99 L 407.09 280.97 L 407.33 280.94 L 407.49 280.94 L 407.68 280.86 L 407.79 280.86 L 407.85 280.86 L 407.90 280.86 L 408.05 280.55 L 408.07 280.55 L 408.12 280.55 L 408.24 280.55 L 408.32 280.55 L 408.42 280.63 L 408.56 280.63 L 408.84 280.61 L 408.96 280.61 L 409.07 280.61 L 409.78 279.62 L 410.38 279.35 L 411.10 278.64 L 411.29 278.64 L 411.49 278.64 L 411.72 278.64 L 415.92 278.55 L 416.27 278.54 L 456.13 278.42 L 581.65 278.23 L 582.07 278.18 L 582.36 278.17 L 582.65 278.17 L 583.08 277.71 L 583.23 277.71 L 583.35 277.71 L 583.55 276.04 L 583.84 276.35 L 584.07 276.33 L 584.12 276.33 L 584.32 276.32 L 584.36 276.32 L 584.57 276.31 L 584.75 276.24 L 585.32 275.18 L 585.34 275.18 L 585.50 275.09 L 586.04 271.67 L 586.06 271.67 L 586.16 271.66 L 586.29 271.61 L 586.88 270.02 L 586.89 270.02 L 587.02 270.02 L 587.15 269.98 L 587.37 269.40 L 587.38 269.40 L 587.48 269.39 L 587.50 269.39 L 587.55 269.07 L 587.79 266.81 L 587.83 266.81 L 587.91 266.81 L 588.18 266.62 L 588.23 266.62 L 588.44 266.24 L 588.79 266.24 L 588.84 266.24 L 588.89 266.24 L 588.95 266.24 L 589.12 266.23 L 589.31 265.21 L 589.34 265.21 L 589.44 265.21 L 589.55 264.44 L 589.57 264.44 L 589.68 263.62 L 589.73 263.57 L 589.95 262.76 L 589.98 262.76 L 590.09 262.76 L 590.24 262.74 L 591.14 262.74 L 591.59 262.74 L 601.39 262.74 L 601.49 262.74 L 601.59 262.74 L 601.76 262.74 L 602.12 262.52 L 602.15 262.52 L 602.22 262.46 L 602.46 261.32 L 602.48 261.32 L 604.62 261.35 L 604.75 261.12 L 605.83 261.12 L 605.95 261.12 L 606.08 261.03 L 607.38 260.10 L 607.93 259.93 L 608.07 259.86 L 608.54 258.10 L 608.83 258.10 L 609.31 257.95 L 610.17 257.95 L 623.29 257.95 L 624.08 257.84 L 624.11 257.86 L 625.21 257.86 L 625.27 257.86 L 625.65 257.86 L 626.10 257.83 L 626.10 257.83 L 626.15 257.83 L 626.73 256.79 L 628.08 256.77 L 628.17 256.77 L 628.31 256.76 L 628.52 256.72 L 628.57 256.69 L 628.65 256.69 L 629.28 256.64 L 629.78 256.64 L 630.05 256.64 L 630.09 256.64 L 630.65 256.62 L 631.08 256.50 L 631.10 256.50 L 631.15 256.50 L 631.21 256.50 L 645.45 256.26 L 645.48 256.26 L 645.52 256.26 L 645.80 256.26 L 646.01 256.26 L 647.27 255.23 L 647.58 255.17 L 648.48 255.10 L 649.26 255.04 L 649.84 255.04 L 650.00 255.04"/>
	</g>
	<g id="poloto_plot2" class="poloto_plot poloto_imgs poloto_line poloto2 poloto_stroke" fill="none" stroke="black">
		<path d=" M 150.00 390.90 L 150.03 390.89 L 150.05 390.89 L 150.06 390.89 L 150.09 390.89 L 150.12 388.56 L 150.26 388.24 L 150.56 388.23 L 151.02 388.22 L 151.25 386.82 L 151.71 386.70 L 151.80 386.66 L 151.85 386.63 L 152.40 386.00 L 153.41 385.51 L 153.73 385.42 L 153.81 385.42 L 154.43 385.39 L 155.13 385.39 L 155.14 385.39 L 155.14 385.39 L 164.67 385.39 L 164.73 385.38 L 164.86 385.36 L 164.91 385.36 L 165.27 385.22 L 165.44 385.18 L 165.84 384.95 L 165.90 384.85 L 166.01 384.65 L 166.13 384.62 L 166.17 384.62 L 166.27 384.58 L 166.37 384.58 L 166.48 384.58 L 166.74 384.35 L 166.97 384.13 L 167.02 384.13 L 167.13 384.01 L 167.89 383.73 L 167.90 383.73 L 168.00 383.64 L 168.43 383.33 L 168.78 382.95 L 169.17 382.79 L 169.25 382.79 L 169.26 382.80 L 169.34 382.58 L 169.48 382.58 L 169.68 382.56 L 170.05 382.40 L 170.07 382.13 L 170.14 382.13 L 170.23 382.00 L 170.44 382.00 L 170.47 382.00 L 170.69 381.59 L 170.78 381.56 L 170.86 381.53 L 170.95 381.34 L 172.10 381.22 L 172.38 381.18 L 173.03 380.90 L 173.17 380.90 L 173.27 380.88 L 173.33 380.67 L 173.77 379.53 L 173.97 379.52 L 174.20 379.17 L 174.31 379.14 L 174.58 378.99 L 174.69 378.94 L 174.85 378.69 L 175.00 378.49 L 175.51 378.49 L 175.53 378.46 L 175.55 378.30 L 175.73 377.20 L 184.56 377.09 L 185.48 376.75 L 185.51 376.71 L 186.59 376.44 L 186.68 376.43 L 186.78 376.23 L 187.05 376.09 L 187.17 375.84 L 187.21 375.63 L 187.35 375.22 L 187.66 375.21 L 187.67 375.21 L 187.79 374.93 L 187.92 374.92 L 188.05 374.62 L 188.22 374.39 L 188.29 374.26 L 188.32 374.25 L 188.47 373.98 L 188.49 373.97 L 188.66 373.72 L 188.69 373.71 L 188.94 373.62 L 188.98 373.62 L 189.07 373.53 L 189.18 373.51 L 189.32 373.51 L 189.39 373.49 L 189.88 373.25 L 189.89 373.25 L 189.99 372.76 L 190.21 372.74 L 190.41 372.59 L 190.47 372.59 L 190.56 372.58 L 190.61 372.54 L 190.72 371.86 L 191.28 371.29 L 191.34 370.98 L 191.52 370.95 L 191.58 370.87 L 191.62 370.86 L 191.71 370.71 L 191.80 370.17 L 192.00 370.09 L 192.14 370.08 L 192.25 369.81 L 192.31 369.80 L 192.81 369.60 L 193.08 369.45 L 193.16 369.33 L 193.39 369.32 L 193.42 369.32 L 193.44 369.29 L 193.58 368.32 L 193.70 368.31 L 194.11 368.17 L 194.18 367.78 L 194.26 367.78 L 194.36 367.62 L 194.38 367.52 L 194.42 367.46 L 194.46 367.42 L 194.52 367.42 L 194.57 367.34 L 194.74 366.24 L 194.86 366.13 L 194.97 365.81 L 195.13 365.78 L 195.31 365.68 L 195.49 365.33 L 195.61 364.38 L 195.87 364.31 L 195.87 363.90 L 196.03 363.81 L 208.36 363.81 L 208.60 363.81 L 209.18 363.36 L 209.30 363.36 L 209.40 363.36 L 209.42 363.24 L 209.63 363.05 L 209.77 363.01 L 209.86 362.90 L 209.94 362.82 L 209.99 362.78 L 210.22 362.71 L 210.66 362.81 L 210.77 362.50 L 210.86 362.42 L 210.96 362.42 L 211.53 362.36 L 211.61 362.30 L 211.65 362.30 L 211.69 362.25 L 211.81 362.20 L 211.91 362.08 L 212.32 361.80 L 212.92 361.68 L 213.14 361.63 L 213.80 361.45 L 214.11 361.01 L 214.22 360.93 L 214.36 360.58 L 214.55 360.14 L 214.85 360.02 L 215.27 360.01 L 215.83 359.99 L 215.91 359.83 L 216.32 359.72 L 216.58 359.58 L 216.67 359.46 L 216.83 359.42 L 216.95 359.12 L 218.41 358.98 L 219.80 358.98 L 232.21 358.94 L 232.30 358.78 L 232.37 358.67 L 232.75 358.51 L 233.91 358.21 L 233.96 358.17 L 234.13 357.96 L 234.70 357.87 L 234.97 357.30 L 235.38 357.28 L 235.47 357.26 L 235.56 356.70 L 236.28 356.17 L 236.37 356.16 L 236.52 356.13 L 236.68 356.08 L 236.75 355.89 L 237.16 355.01 L 237.30 354.78 L 237.37 354.76 L 237.46 354.67 L 237.64 354.33 L 237.71 353.44 L 237.89 353.08 L 238.43 352.87 L 238.48 352.43 L 238.53 352.43 L 238.61 352.35 L 238.75 352.23 L 238.80 352.20 L 238.85 352.15 L 239.11 351.12 L 239.17 350.51 L 239.49 350.40 L 239.67 349.37 L 239.79 349.18 L 240.75 347.56 L 240.87 347.53 L 277.36 347.06 L 277.39 347.06 L 291.34 346.93 L 292.10 346.76 L 292.25 346.76 L 292.46 346.67 L 292.52 346.54 L 292.61 346.51 L 298.65 346.50 L 299.45 344.64 L 299.75 344.48 L 299.91 343.84 L 303.67 343.76 L 303.70 343.70 L 303.93 343.69 L 305.06 343.58 L 305.12 343.36 L 305.26 343.29 L 305.66 343.19 L 305.71 343.17 L 305.87 342.81 L 306.04 342.70 L 306.07 342.42 L 317.79 342.07 L 317.88 341.23 L 318.34 341.01 L 318.35 340.69 L 318.43 340.44 L 318.53 340.05 L 318.66 339.03 L 318.86 338.47 L 319.02 337.75 L 319.18 337.74 L 319.24 337.18 L 319.47 337.14 L 320.28 336.62 L 320.61 336.37 L 320.67 336.22 L 320.73 336.22 L 320.78 336.03 L 320.89 335.40 L 321.22 335.34 L 321.27 335.33 L 321.47 334.92 L 321.55 334.92 L 321.58 334.68 L 321.65 334.54 L 321.70 334.53 L 321.75 334.20 L 322.01 334.00 L 322.12 333.68 L 322.26 333.66 L 322.36 333.49 L 322.40 333.24 L 322.66 333.10 L 322.73 332.96 L 322.78 332.96 L 322.84 332.95 L 322.88 332.70 L 322.92 332.71 L 322.93 332.70 L 323.07 332.61 L 323.11 332.33 L 323.24 332.33 L 323.33 332.26 L 323.59 332.24 L 323.91 332.21 L 323.93 332.21 L 324.01 332.19 L 324.31 332.19 L 324.46 332.19 L 324.60 332.19 L 324.75 332.14 L 324.85 331.80 L 325.27 331.80 L 325.30 331.60 L 325.35 331.60 L 325.39 331.37 L 325.66 331.29 L 325.71 331.24 L 325.90 331.24 L 343.94 331.18 L 344.96 331.08 L 345.00 331.08 L 345.20 331.08 L 345.22 331.08 L 345.35 330.68 L 345.45 330.67 L 345.53 330.56 L 345.66 330.50 L 345.70 330.46 L 345.74 330.44 L 345.93 330.40 L 346.33 330.32 L 346.57 329.79 L 346.85 329.76 L 346.86 329.72 L 346.91 329.27 L 346.94 329.27 L 347.48 329.27 L 347.49 329.22 L 347.57 328.81 L 347.81 328.76 L 347.95 328.74 L 347.98 328.73 L 347.99 328.69 L 348.06 328.66 L 348.10 328.23 L 348.12 328.22 L 348.25 328.22 L 348.26 328.19 L 348.55 328.14 L 349.32 328.13 L 349.50 328.09 L 349.55 328.08 L 349.59 327.95 L 349.64 327.95 L 349.75 327.47 L 362.07 327.32 L 362.09 327.18 L 362.20 327.09 L 362.23 327.07 L 362.30 326.66 L 362.43 326.56 L 362.45 326.54 L 362.67 326.54 L 362.73 326.54 L 362.77 326.13 L 362.97 326.08 L 363.50 326.07 L 363.51 326.04 L 363.65 325.82 L 363.70 325.83 L 363.73 325.45 L 364.17 325.45 L 364.18 325.43 L 364.86 325.34 L 364.94 324.89 L 365.18 324.89 L 365.46 324.89 L 365.53 324.56 L 365.58 324.30 L 365.70 324.29 L 366.05 324.24 L 366.12 324.22 L 366.27 324.12 L 366.43 324.12 L 366.95 324.12 L 367.01 324.12 L 367.13 324.09 L 367.14 324.09 L 367.31 324.09 L 367.70 324.06 L 368.10 324.02 L 368.17 324.02 L 368.25 323.97 L 368.37 323.85 L 368.68 323.85 L 369.20 323.70 L 369.37 323.45 L 369.65 323.42 L 370.79 323.15 L 371.03 323.15 L 371.22 323.15 L 371.50 323.14 L 371.59 323.12 L 371.87 322.98 L 372.32 322.96 L 372.38 322.84 L 372.46 322.78 L 372.51 322.79 L 372.56 322.75 L 372.91 322.73 L 381.08 322.72 L 381.15 322.72 L 381.66 322.72 L 381.71 322.71 L 381.82 322.33 L 381.92 322.32 L 381.93 322.32 L 382.21 322.31 L 382.28 322.29 L 383.95 321.74 L 384.15 321.68 L 384.30 321.67 L 384.33 321.66 L 384.84 321.65 L 385.02 321.73 L 385.06 321.72 L 385.33 321.69 L 385.64 321.16 L 385.67 321.15 L 385.93 321.14 L 386.03 321.14 L 386.13 321.14 L 386.34 321.03 L 386.80 320.56 L 386.88 320.56 L 386.96 320.49 L 387.15 320.06 L 387.60 319.58 L 388.00 319.61 L 388.08 319.35 L 388.49 319.35 L 388.56 319.32 L 388.63 319.30 L 388.67 319.05 L 388.81 319.04 L 388.84 319.04 L 388.91 319.04 L 389.14 319.04 L 389.50 318.84 L 389.72 318.82 L 389.97 318.82 L 390.09 318.82 L 390.33 318.82 L 390.75 318.82 L 391.16 318.82 L 391.47 318.81 L 391.54 318.81 L 391.62 318.80 L 391.63 318.71 L 391.87 318.65 L 391.94 318.65 L 392.04 318.64 L 392.71 318.63 L 392.72 318.39 L 392.90 318.39 L 393.68 318.39 L 394.20 318.38 L 394.58 318.33 L 394.59 318.23 L 394.62 318.23 L 406.07 318.07 L 406.10 318.06 L 406.24 318.05 L 406.30 317.90 L 406.34 317.90 L 406.35 317.89 L 406.83 317.84 L 406.94 317.34 L 407.09 317.23 L 407.33 316.24 L 407.49 316.24 L 407.68 315.81 L 407.79 315.86 L 407.85 315.86 L 407.90 315.32 L 408.05 315.23 L 408.07 314.85 L 408.12 314.80 L 408.24 314.76 L 408.32 314.58 L 408.42 316.79 L 408.56 316.76 L 408.84 315.87 L 408.96 315.67 L 409.07 315.47 L 409.78 315.12 L 410.38 314.75 L 411.10 314.23 L 411.29 314.17 L 411.49 314.17 L 411.72 314.12 L 415.92 313.86 L 416.27 313.83 L 456.13 313.14 L 581.65 313.12 L 582.07 312.81 L 582.36 312.76 L 582.65 312.76 L 583.08 312.48 L 583.23 312.15 L 583.35 311.54 L 583.55 311.38 L 583.84 311.43 L 584.07 311.08 L 584.12 311.07 L 584.32 310.96 L 584.36 310.96 L 584.57 310.37 L 584.75 309.46 L 585.32 309.38 L 585.34 309.28 L 585.50 308.11 L 586.04 308.07 L 586.06 307.95 L 586.16 307.88 L 586.29 306.82 L 586.88 306.77 L 586.89 306.61 L 587.02 306.54 L 587.15 305.84 L 587.37 305.82 L 587.38 305.71 L 587.48 304.55 L 587.50 304.52 L 587.55 304.48 L 587.79 304.48 L 587.83 304.36 L 587.91 304.28 L 588.18 304.17 L 588.23 304.16 L 588.44 304.10 L 588.79 304.15 L 588.84 304.09 L 588.89 304.07 L 588.95 304.03 L 589.12 302.83 L 589.31 302.80 L 589.34 302.70 L 589.44 301.47 L 589.55 301.02 L 589.57 300.86 L 589.68 300.26 L 589.73 299.21 L 589.95 299.20 L 589.98 299.14 L 590.09 298.93 L 590.24 298.92 L 591.14 298.89 L 591.59 298.86 L 601.39 298.91 L 601.49 298.67 L 601.59 298.50 L 601.76 297.66 L 602.12 297.65 L 602.15 297.57 L 602.22 296.52 L 602.46 296.51 L 602.48 296.41 L 604.62 296.30 L 604.75 295.92 L 605.83 295.74 L 605.95 295.70 L 606.08 294.53 L 607.38 294.20 L 607.93 293.92 L 608.07 293.04 L 608.54 293.04 L 608.83 292.55 L 609.31 291.79 L 610.17 291.34 L 623.29 291.33 L 624.08 291.32 L 624.11 291.32 L 625.21 291.15 L 625.27 291.06 L 625.65 290.99 L 626.10 290.00 L 626.10 290.00 L 626.15 289.96 L 626.73 289.76 L 628.08 289.10 L 628.17 289.04 L 628.31 289.03 L 628.52 288.75 L 628.57 288.71 L 628.65 288.66 L 629.28 288.66 L 629.78 288.66 L 630.05 288.66 L 630.09 288.62 L 630.65 287.62 L 631.08 287.53 L 631.10 287.45 L 631.15 287.36 L 631.21 287.11 L 645.45 286.93 L 645.48 286.90 L 645.52 286.88 L 645.80 286.76 L 646.01 286.64 L 647.27 286.08 L 647.58 285.96 L 648.48 285.53 L 649.26 285.47 L 649.84 285.30 L 650.00 283.83"/>
	</g>
	<g class="poloto_legend poloto_imgs poloto_line poloto0 poloto_stroke"><line x1="680" x2="730" y1="81.25" y2="81.25"/></g>
	<g class="poloto_legend poloto_imgs poloto_line poloto1 poloto_stroke"><line x1="680" x2="730" y1="131.25" y2="131.25"/></g>
	<g class="poloto_legend poloto_imgs poloto_line poloto2 poloto_stroke"><line x1="680" x2="730" y1="181.25" y2="181.25"/></g>
	<text class="poloto_legend poloto_text poloto_line poloto0" x="675" y="100">total</text>
	<text class="poloto_legend poloto_text poloto_line poloto1" x="675" y="150">code</text>
	<text class="poloto_legend poloto_text poloto_line poloto2" x="675" y="200">docs</text>
	<text class="poloto_text poloto_name poloto_title" x="400.00" y="37.50">Workspace lines over time</text>
	<text class="poloto_text poloto_name poloto_x" x="400.00" y="640">date (JST)</text>
	<text class="poloto_text poloto_name poloto_y" x="37.50" y="250.00" transform="rotate(-90,37.50,250.00)">lines</text>
	<text class="poloto_text poloto_ticks poloto_y">
		<tspan x="135.00" y="400.00">0</tspan>
		<tspan x="135.00" y="313.44">50K</tspan>
		<tspan x="135.00" y="226.89">100K</tspan>
		<tspan x="135.00" y="140.33">150K</tspan>
	</text>
	<g class="poloto_imgs poloto_ticks poloto_y" stroke="black">
		<line x1="150.00" x2="144.00" y1="400.00" y2="400.00"/>
		<line x1="150.00" x2="144.00" y1="313.44" y2="313.44"/>
		<line x1="150.00" x2="144.00" y1="226.89" y2="226.89"/>
		<line x1="150.00" x2="144.00" y1="140.33" y2="140.33"/>
	</g>
	<g class="poloto_text poloto_ticks poloto_x">
		<text x="232.06" y="430.00" text-anchor="end" transform="rotate(-90 232.06 430.00)">2026-04-24 12:06</text>
		<text x="358.36" y="430.00" text-anchor="end" transform="rotate(-90 358.36 430.00)">2026-04-30 07:00</text>
		<text x="484.67" y="430.00" text-anchor="end" transform="rotate(-90 484.67 430.00)">2026-05-06 01:53</text>
		<text x="610.98" y="430.00" text-anchor="end" transform="rotate(-90 610.98 430.00)">2026-05-11 20:46</text>
	</g>
	<g class="poloto_imgs poloto_ticks poloto_x" stroke="black">
		<line x1="232.06" x2="232.06" y1="400.00" y2="405.00"/>
		<line x1="358.36" x2="358.36" y1="400.00" y2="405.00"/>
		<line x1="484.67" x2="484.67" y1="400.00" y2="405.00"/>
		<line x1="610.98" x2="610.98" y1="400.00" y2="405.00"/>
	</g>
	<path class="poloto_imgs poloto_ticks poloto_x" stroke="black" style="stroke-dasharray:12.630779086663313;stroke-dashoffset:-82.05535110534402;" d=" M 150.00 400.00 L 650.00 400.00"/>
	<path class="poloto_imgs poloto_ticks poloto_y" stroke="black" style="stroke-dasharray:8.65561056676938;stroke-dashoffset:-0;" d=" M 150.00 400.00 L 150.00 100.00"/>
</svg>

