<svg class="poloto" width="800" height="680" viewBox="0 0 800 680" xmlns="http://www.w3.org/2000/svg">
	<style>
.poloto{
  stroke-linecap:round;
  stroke-linejoin:round;
  font-family:Roboto,sans-serif;
  font-size:16px;
}
.poloto_background{fill:AliceBlue;}
.poloto_scatter{stroke-width:7}
.poloto_line{stroke-width:2}
.poloto_text{fill: black;}
.poloto_name{font-size:24px;dominant-baseline:auto;text-anchor:middle;}
.poloto_where{dominant-baseline:middle;text-anchor:start}
.poloto_text.poloto_legend{font-size:20px;dominant-baseline:middle;text-anchor:start;}
.poloto_text.poloto_ticks.poloto_y{dominant-baseline:middle;text-anchor:end}
.poloto_text.poloto_ticks.poloto_x{dominant-baseline:auto;text-anchor:middle}
.poloto_imgs.poloto_ticks{stroke: black;stroke-width:3;fill:none;stroke-dasharray:none}
.poloto_grid{stroke:gray;stroke-width:0.5}

.poloto0.poloto_stroke{stroke:blue;}
.poloto1.poloto_stroke{stroke:red;}
.poloto2.poloto_stroke{stroke:green;}
.poloto3.poloto_stroke{stroke:gold;}
.poloto4.poloto_stroke{stroke:aqua;}
.poloto5.poloto_stroke{stroke:lime;}
.poloto6.poloto_stroke{stroke:orange;}
.poloto7.poloto_stroke{stroke:chocolate;}
.poloto0.poloto_fill{fill:blue;}
.poloto1.poloto_fill{fill:red;}
.poloto2.poloto_fill{fill:green;}
.poloto3.poloto_fill{fill:gold;}
.poloto4.poloto_fill{fill:aqua;}
.poloto5.poloto_fill{fill:lime;}
.poloto6.poloto_fill{fill:orange;}
.poloto7.poloto_fill{fill:chocolate;}
	</style>
	<circle r="1e5" class="poloto_background" fill="white"/>
	<g id="poloto_plot0" class="poloto_plot poloto_imgs poloto_line poloto0 poloto_stroke" fill="none" stroke="black">
		<path d=" M 150.00 364.44 L 150.03 364.41 L 150.05 364.39 L 150.06 364.39 L 150.09 364.39 L 150.13 360.53 L 150.27 360.07 L 150.59 360.05 L 151.08 359.73 L 151.32 357.77 L 151.81 357.65 L 151.90 357.54 L 151.96 357.50 L 152.53 356.54 L 153.60 355.76 L 153.94 352.73 L 154.03 352.74 L 154.68 352.62 L 155.42 352.61 L 155.43 352.61 L 155.43 352.61 L 165.50 352.61 L 165.57 352.60 L 165.70 352.57 L 165.75 352.54 L 166.13 352.36 L 166.31 352.32 L 166.73 352.04 L 166.79 351.91 L 166.92 351.64 L 167.04 351.60 L 167.08 351.60 L 167.19 351.52 L 167.30 351.52 L 167.40 351.53 L 167.69 351.08 L 167.93 350.80 L 167.98 350.80 L 168.10 350.64 L 168.90 351.33 L 168.91 351.33 L 169.02 351.22 L 169.47 350.70 L 169.84 350.08 L 170.25 349.81 L 170.34 349.76 L 170.35 349.76 L 170.43 349.52 L 170.58 349.52 L 170.79 349.43 L 171.18 349.20 L 171.20 348.84 L 171.27 348.84 L 171.37 348.65 L 171.60 348.65 L 171.62 348.65 L 171.86 348.13 L 171.95 348.10 L 172.03 348.06 L 172.13 347.85 L 173.35 347.57 L 173.65 347.52 L 174.33 347.15 L 174.48 347.15 L 174.58 347.14 L 174.64 346.87 L 175.11 345.34 L 175.32 345.31 L 175.56 344.80 L 175.68 344.75 L 175.96 344.32 L 176.09 344.17 L 176.26 343.90 L 176.41 343.66 L 176.95 340.13 L 176.97 340.04 L 177.00 339.83 L 177.18 338.13 L 186.51 338.01 L 187.48 336.08 L 187.51 336.03 L 188.66 335.73 L 188.75 335.72 L 188.86 335.34 L 189.14 335.14 L 189.26 334.81 L 189.31 334.52 L 189.45 334.02 L 189.79 334.01 L 189.80 333.67 L 189.93 333.29 L 190.06 333.28 L 190.20 332.86 L 190.38 332.55 L 190.45 332.40 L 190.48 332.39 L 190.64 332.06 L 190.66 332.05 L 190.84 331.72 L 190.87 331.71 L 191.14 330.12 L 191.18 330.12 L 191.27 329.85 L 191.39 329.84 L 191.54 329.84 L 191.61 329.80 L 192.13 329.51 L 192.15 329.51 L 192.24 328.81 L 192.48 328.79 L 192.69 327.73 L 192.75 327.63 L 192.85 327.63 L 192.90 327.58 L 193.02 326.76 L 193.60 319.84 L 193.67 319.50 L 193.87 319.47 L 193.93 319.39 L 193.97 319.37 L 194.07 319.18 L 194.16 318.40 L 194.37 318.23 L 194.51 318.22 L 194.63 317.87 L 194.70 317.86 L 195.22 317.61 L 195.51 317.41 L 195.60 317.10 L 195.84 317.08 L 195.87 317.08 L 195.89 317.06 L 196.04 315.39 L 196.17 315.29 L 196.60 313.61 L 196.67 313.12 L 196.75 313.11 L 196.87 312.93 L 196.88 312.80 L 196.93 312.72 L 196.97 312.68 L 197.03 312.67 L 197.09 312.59 L 197.26 311.21 L 197.39 311.01 L 197.51 310.61 L 197.68 310.58 L 197.87 310.45 L 198.05 309.48 L 198.19 308.13 L 198.46 308.06 L 198.46 307.55 L 198.62 307.39 L 211.65 307.39 L 211.90 307.38 L 212.52 306.66 L 212.65 306.65 L 212.75 306.65 L 212.77 306.47 L 212.99 306.25 L 213.14 306.21 L 213.23 306.08 L 213.32 305.99 L 213.38 305.94 L 213.61 305.87 L 214.08 305.79 L 214.20 305.42 L 214.29 305.33 L 214.40 305.31 L 215.01 305.13 L 215.09 305.02 L 215.13 305.02 L 215.17 304.89 L 215.30 304.82 L 215.40 304.69 L 215.84 303.78 L 216.47 303.64 L 216.70 303.59 L 217.40 303.36 L 217.73 299.00 L 217.84 298.91 L 217.99 298.48 L 218.19 297.91 L 218.51 297.75 L 218.95 297.74 L 219.54 297.72 L 219.63 297.53 L 220.06 297.33 L 220.34 297.02 L 220.43 296.89 L 220.60 296.84 L 220.73 296.45 L 222.27 296.02 L 223.73 296.02 L 236.85 295.98 L 236.94 295.79 L 237.01 295.67 L 237.42 295.48 L 238.65 293.98 L 238.70 293.88 L 238.87 293.50 L 239.47 293.40 L 239.76 292.38 L 240.19 292.38 L 240.29 292.36 L 240.39 291.66 L 241.15 287.70 L 241.24 287.70 L 241.40 287.66 L 241.57 287.61 L 241.65 287.18 L 242.07 285.69 L 242.23 285.41 L 242.30 285.39 L 242.39 284.70 L 242.58 283.73 L 242.66 282.70 L 242.85 282.24 L 243.42 277.09 L 243.47 276.57 L 243.53 276.57 L 243.61 276.48 L 243.75 276.35 L 243.81 276.30 L 243.86 276.24 L 244.14 275.01 L 244.20 274.14 L 244.54 273.97 L 244.73 272.67 L 244.86 271.86 L 245.87 259.85 L 245.99 259.82 L 284.54 259.25 L 284.58 259.25 L 299.31 259.08 L 300.11 258.75 L 300.28 258.75 L 300.50 258.66 L 300.57 258.51 L 300.65 258.47 L 307.04 258.38 L 307.89 256.10 L 308.20 255.89 L 308.37 255.05 L 312.34 254.89 L 312.37 254.65 L 312.62 254.63 L 313.81 253.19 L 313.88 252.93 L 314.02 252.84 L 314.44 252.74 L 314.50 252.70 L 314.66 252.27 L 314.85 252.15 L 314.87 251.83 L 327.26 251.39 L 327.35 250.16 L 327.84 249.89 L 327.85 247.83 L 327.94 247.53 L 328.04 247.02 L 328.18 245.60 L 328.39 244.85 L 328.56 243.97 L 328.72 243.96 L 328.79 243.29 L 329.04 243.23 L 329.89 239.91 L 330.24 239.56 L 330.30 239.35 L 330.37 239.34 L 330.41 239.11 L 330.53 238.30 L 330.88 237.91 L 330.93 237.86 L 331.15 234.94 L 331.23 234.93 L 331.26 234.62 L 331.34 234.38 L 331.39 234.37 L 331.44 233.94 L 331.71 232.36 L 331.83 231.91 L 331.98 231.85 L 332.08 227.63 L 332.13 227.29 L 332.40 224.88 L 332.48 224.69 L 332.53 224.69 L 332.60 224.68 L 332.64 224.34 L 332.68 224.36 L 332.69 224.35 L 332.83 220.09 L 332.88 219.72 L 333.01 219.70 L 333.11 219.62 L 333.39 219.50 L 333.73 219.34 L 333.74 219.34 L 333.83 219.29 L 334.15 219.21 L 334.30 219.21 L 334.45 219.21 L 334.61 217.35 L 334.72 216.91 L 335.15 216.90 L 335.19 216.61 L 335.25 216.60 L 335.28 216.28 L 335.57 213.60 L 335.62 213.53 L 335.83 213.52 L 354.88 213.44 L 355.96 213.30 L 356.00 213.30 L 356.21 213.30 L 356.23 213.30 L 356.37 212.77 L 356.48 212.74 L 356.57 212.48 L 356.70 212.42 L 356.74 212.38 L 356.79 212.36 L 356.99 212.06 L 357.40 211.79 L 357.67 210.93 L 357.96 210.11 L 357.97 210.06 L 358.02 209.29 L 358.06 209.27 L 358.62 208.81 L 358.63 208.76 L 358.72 208.15 L 358.97 208.08 L 359.12 208.03 L 359.15 206.94 L 359.16 206.88 L 359.23 207.92 L 359.28 207.28 L 359.30 207.26 L 359.44 205.80 L 359.45 205.76 L 359.75 205.64 L 360.56 205.62 L 360.75 205.57 L 360.81 205.56 L 360.85 205.36 L 360.90 205.36 L 361.02 204.64 L 374.04 203.26 L 374.06 203.07 L 374.17 202.93 L 374.20 202.66 L 374.27 190.52 L 374.42 185.54 L 374.43 185.51 L 374.67 185.41 L 374.73 185.41 L 374.77 184.84 L 374.98 184.79 L 375.54 183.61 L 375.56 183.58 L 375.70 183.22 L 375.76 183.23 L 375.79 182.64 L 376.26 181.95 L 376.27 181.93 L 376.98 181.66 L 377.07 181.04 L 377.32 181.05 L 377.62 179.48 L 377.69 178.86 L 377.74 178.37 L 377.87 177.76 L 378.25 177.55 L 378.31 177.40 L 378.47 177.26 L 378.65 177.26 L 379.20 177.26 L 379.26 177.26 L 379.38 177.23 L 379.40 177.23 L 379.57 177.25 L 379.98 177.22 L 380.41 176.99 L 380.48 176.98 L 380.57 176.89 L 380.69 176.73 L 381.02 176.73 L 381.57 176.51 L 381.75 176.02 L 382.05 171.84 L 383.24 175.38 L 383.51 175.36 L 383.70 175.34 L 384.00 175.34 L 384.09 175.27 L 384.39 175.07 L 384.86 174.78 L 384.92 174.59 L 385.01 174.51 L 385.07 174.53 L 385.11 174.47 L 385.48 174.21 L 394.12 174.20 L 394.19 174.21 L 394.73 174.19 L 394.78 174.17 L 394.90 173.64 L 395.00 173.34 L 395.02 173.34 L 395.31 173.29 L 395.39 173.27 L 397.16 172.48 L 397.36 172.41 L 397.52 172.39 L 397.55 172.39 L 398.10 172.20 L 398.28 172.30 L 398.32 172.29 L 398.61 172.24 L 398.93 170.58 L 398.97 170.57 L 399.24 170.38 L 399.35 170.38 L 399.45 170.38 L 399.68 170.20 L 400.16 169.53 L 400.25 169.50 L 400.34 169.32 L 400.53 168.53 L 401.01 167.71 L 401.43 163.86 L 401.51 163.39 L 401.95 163.20 L 402.02 163.10 L 402.09 162.92 L 402.14 162.30 L 402.29 161.19 L 402.32 161.23 L 402.39 161.21 L 402.64 161.21 L 403.01 160.80 L 403.24 160.72 L 403.51 160.71 L 403.63 160.69 L 403.90 160.68 L 404.33 160.68 L 404.77 160.67 L 405.10 160.66 L 405.17 160.65 L 405.26 160.64 L 405.26 160.50 L 405.52 160.43 L 405.59 160.41 L 405.69 160.24 L 406.40 160.22 L 406.41 159.89 L 406.61 159.87 L 407.43 159.88 L 407.98 159.67 L 408.38 159.43 L 408.39 159.29 L 408.43 159.29 L 420.51 159.06 L 420.55 159.06 L 420.69 159.04 L 420.76 158.85 L 420.80 158.83 L 420.81 158.82 L 421.32 158.77 L 421.44 158.07 L 421.59 157.91 L 421.85 156.54 L 422.02 156.52 L 422.22 155.94 L 422.34 156.01 L 422.39 156.01 L 422.46 155.34 L 422.61 154.88 L 422.63 154.40 L 422.68 154.33 L 422.81 154.29 L 422.89 154.06 L 423.00 156.69 L 423.15 156.64 L 423.45 155.59 L 423.58 155.33 L 423.69 155.12 L 424.43 153.61 L 425.07 152.88 L 425.84 151.49 L 426.03 151.43 L 426.25 151.43 L 426.48 151.36 L 430.93 150.97 L 431.29 150.94 L 473.41 149.88 L 606.01 149.63 L 606.45 149.20 L 606.75 149.15 L 607.06 149.15 L 607.52 148.33 L 607.68 147.94 L 607.80 147.20 L 608.01 145.09 L 608.32 145.52 L 608.56 145.06 L 608.62 145.05 L 608.82 144.92 L 608.87 144.92 L 609.09 144.14 L 609.28 142.90 L 609.88 141.59 L 609.90 141.48 L 610.08 139.91 L 610.65 136.02 L 610.66 135.89 L 610.77 135.80 L 610.91 134.41 L 611.53 132.54 L 611.54 132.37 L 611.67 132.28 L 611.82 131.36 L 612.05 130.63 L 612.06 130.49 L 612.16 129.07 L 612.18 129.04 L 612.24 128.64 L 612.50 126.10 L 612.53 125.96 L 612.62 125.81 L 612.90 125.48 L 612.96 125.47 L 613.18 124.98 L 613.55 125.04 L 613.60 124.97 L 613.65 124.94 L 613.72 124.90 L 613.90 123.42 L 614.10 122.21 L 614.13 122.10 L 614.23 120.58 L 614.35 119.10 L 614.37 118.92 L 614.49 117.19 L 614.54 115.82 L 614.77 114.90 L 614.81 114.84 L 614.92 114.55 L 615.08 114.53 L 616.03 114.49 L 616.51 114.45 L 626.86 114.51 L 626.97 114.24 L 627.07 114.01 L 627.25 112.99 L 627.64 112.73 L 627.67 112.63 L 627.74 111.28 L 627.99 109.98 L 628.01 109.86 L 630.27 109.77 L 630.41 109.04 L 631.55 108.82 L 631.68 108.77 L 631.81 107.25 L 633.18 105.82 L 633.77 105.28 L 633.91 104.16 L 634.41 102.26 L 634.72 101.70 L 635.23 100.58 L 636.14 100.01 L 650.00 100.00"/>
	</g>
	<g id="poloto_plot1" class="poloto_plot poloto_imgs poloto_line poloto1 poloto_stroke" fill="none" stroke="black">
		<path d=" M 150.00 378.87 L 150.03 378.85 L 150.05 378.84 L 150.06 378.84 L 150.09 378.84 L 150.13 378.17 L 150.27 378.15 L 150.59 378.14 L 151.08 377.88 L 151.32 377.77 L 151.81 377.80 L 151.90 377.75 L 151.96 377.75 L 152.53 377.70 L 153.60 377.57 L 153.94 374.96 L 154.03 374.96 L 154.68 374.90 L 155.42 374.89 L 155.43 374.89 L 155.43 374.89 L 165.50 374.89 L 165.57 374.89 L 165.70 374.88 L 165.75 374.85 L 166.13 374.83 L 166.31 374.83 L 166.73 374.83 L 166.79 374.83 L 166.92 374.81 L 167.04 374.81 L 167.08 374.81 L 167.19 374.78 L 167.30 374.78 L 167.40 374.78 L 167.69 374.64 L 167.93 374.64 L 167.98 374.64 L 168.10 374.64 L 168.90 375.62 L 168.91 375.62 L 169.02 375.61 L 169.47 375.46 L 169.84 375.30 L 170.25 375.22 L 170.34 375.17 L 170.35 375.17 L 170.43 375.17 L 170.58 375.17 L 170.79 375.11 L 171.18 375.05 L 171.20 375.05 L 171.27 375.05 L 171.37 375.03 L 171.60 375.03 L 171.62 375.03 L 171.86 375.02 L 171.95 375.02 L 172.03 375.02 L 172.13 375.02 L 173.35 374.90 L 173.65 374.89 L 174.33 374.84 L 174.48 374.84 L 174.58 374.84 L 174.64 374.84 L 175.11 374.76 L 175.32 374.76 L 175.56 374.67 L 175.68 374.66 L 175.96 374.44 L 176.09 374.37 L 176.26 374.37 L 176.41 374.37 L 176.95 371.31 L 176.97 371.26 L 177.00 371.26 L 177.18 370.96 L 186.51 370.96 L 187.48 369.65 L 187.51 369.65 L 188.66 369.65 L 188.75 369.64 L 188.86 369.51 L 189.14 369.48 L 189.26 369.48 L 189.31 369.48 L 189.45 369.48 L 189.79 369.48 L 189.80 369.20 L 189.93 369.19 L 190.06 369.19 L 190.20 369.16 L 190.38 369.15 L 190.45 369.15 L 190.48 369.15 L 190.64 369.15 L 190.66 369.15 L 190.84 369.15 L 190.87 369.15 L 191.14 367.86 L 191.18 367.86 L 191.27 367.70 L 191.39 367.70 L 191.54 367.70 L 191.61 367.68 L 192.13 367.68 L 192.15 367.68 L 192.24 367.60 L 192.48 367.60 L 192.69 366.86 L 192.75 366.77 L 192.85 366.77 L 192.90 366.77 L 193.02 366.75 L 193.60 361.29 L 193.67 361.34 L 193.87 361.34 L 193.93 361.34 L 193.97 361.33 L 194.07 361.33 L 194.16 361.25 L 194.37 361.25 L 194.51 361.25 L 194.63 361.24 L 194.70 361.24 L 195.22 361.23 L 195.51 361.23 L 195.60 361.09 L 195.84 361.09 L 195.87 361.09 L 195.89 361.09 L 196.04 360.73 L 196.17 360.63 L 196.60 359.34 L 196.67 359.34 L 196.75 359.34 L 196.87 359.35 L 196.88 359.35 L 196.93 359.35 L 196.97 359.35 L 197.03 359.35 L 197.09 359.35 L 197.26 359.33 L 197.39 359.33 L 197.51 359.31 L 197.68 359.31 L 197.87 359.30 L 198.05 358.82 L 198.19 358.66 L 198.46 358.66 L 198.46 358.65 L 198.62 358.65 L 211.65 358.65 L 211.90 358.64 L 212.52 358.56 L 212.65 358.55 L 212.75 358.55 L 212.77 358.55 L 212.99 358.55 L 213.14 358.55 L 213.23 358.55 L 213.32 358.55 L 213.38 358.54 L 213.61 358.54 L 214.08 358.57 L 214.20 358.57 L 214.29 358.57 L 214.40 358.57 L 215.01 358.46 L 215.09 358.42 L 215.13 358.42 L 215.17 358.35 L 215.30 358.34 L 215.40 358.34 L 215.84 357.85 L 216.47 357.85 L 216.70 357.85 L 217.40 357.85 L 217.73 354.50 L 217.84 354.50 L 217.99 354.50 L 218.19 354.49 L 218.51 354.49 L 218.95 354.49 L 219.54 354.49 L 219.63 354.49 L 220.06 354.41 L 220.34 354.27 L 220.43 354.27 L 220.60 354.27 L 220.73 354.26 L 222.27 354.05 L 223.73 354.05 L 236.85 354.04 L 236.94 354.04 L 237.01 354.04 L 237.42 354.04 L 238.65 352.99 L 238.70 352.96 L 238.87 352.85 L 239.47 352.84 L 239.76 352.59 L 240.19 352.59 L 240.29 352.59 L 240.39 352.59 L 241.15 349.66 L 241.24 349.66 L 241.40 349.66 L 241.57 349.66 L 241.65 349.47 L 242.07 349.12 L 242.23 349.12 L 242.30 349.12 L 242.39 348.58 L 242.58 348.04 L 242.66 348.04 L 242.85 348.03 L 243.42 343.66 L 243.47 343.66 L 243.53 343.66 L 243.61 343.66 L 243.75 343.66 L 243.81 343.66 L 243.86 343.66 L 244.14 343.66 L 244.20 343.57 L 244.54 343.55 L 244.73 343.49 L 244.86 342.96 L 245.87 334.27 L 245.99 334.27 L 284.54 334.27 L 284.58 334.27 L 299.31 334.27 L 300.11 334.13 L 300.28 334.13 L 300.50 334.13 L 300.57 334.13 L 300.65 334.13 L 307.04 334.07 L 307.89 333.99 L 308.20 333.99 L 308.37 333.96 L 312.34 333.88 L 312.37 333.77 L 312.62 333.77 L 313.81 332.59 L 313.88 332.59 L 314.02 332.59 L 314.44 332.59 L 314.50 332.59 L 314.66 332.59 L 314.85 332.59 L 314.87 332.59 L 327.26 332.57 L 327.35 332.36 L 327.84 332.36 L 327.85 330.94 L 327.94 330.94 L 328.04 330.94 L 328.18 330.81 L 328.39 330.81 L 328.56 330.75 L 328.72 330.75 L 328.79 330.75 L 329.04 330.73 L 329.89 328.32 L 330.24 328.32 L 330.30 328.30 L 330.37 328.30 L 330.41 328.30 L 330.53 328.27 L 330.88 327.97 L 330.93 327.92 L 331.15 325.76 L 331.23 325.75 L 331.26 325.75 L 331.34 325.72 L 331.39 325.72 L 331.44 325.71 L 331.71 324.53 L 331.83 324.52 L 331.98 324.49 L 332.08 320.83 L 332.13 320.82 L 332.40 318.76 L 332.48 318.76 L 332.53 318.75 L 332.60 318.75 L 332.64 318.75 L 332.68 318.75 L 332.69 318.75 L 332.83 314.94 L 332.88 314.93 L 333.01 314.92 L 333.11 314.92 L 333.39 314.84 L 333.73 314.74 L 333.74 314.74 L 333.83 314.71 L 334.15 314.65 L 334.30 314.65 L 334.45 314.65 L 334.61 313.01 L 334.72 313.01 L 335.15 313.00 L 335.19 312.99 L 335.25 312.99 L 335.28 312.99 L 335.57 310.64 L 335.62 310.64 L 335.83 310.63 L 354.88 310.63 L 355.96 310.61 L 356.00 310.61 L 356.21 310.61 L 356.23 310.61 L 356.37 310.61 L 356.48 310.61 L 356.57 310.49 L 356.70 310.49 L 356.74 310.49 L 356.79 310.49 L 356.99 310.28 L 357.40 310.15 L 357.67 310.01 L 357.96 309.34 L 357.97 309.34 L 358.02 309.18 L 358.06 309.16 L 358.62 308.75 L 358.63 308.75 L 358.72 308.69 L 358.97 308.69 L 359.12 308.65 L 359.15 307.68 L 359.16 307.68 L 359.23 308.64 L 359.28 308.59 L 359.30 308.57 L 359.44 307.26 L 359.45 307.26 L 359.75 307.21 L 360.56 307.21 L 360.75 307.21 L 360.81 307.21 L 360.85 307.21 L 360.90 307.21 L 361.02 307.12 L 374.04 306.04 L 374.06 306.04 L 374.17 306.03 L 374.20 305.80 L 374.27 294.19 L 374.42 289.88 L 374.43 289.88 L 374.67 289.80 L 374.73 289.80 L 374.77 289.78 L 374.98 289.78 L 375.54 288.73 L 375.56 288.73 L 375.70 288.67 L 375.76 288.67 L 375.79 288.58 L 376.26 287.95 L 376.27 287.95 L 376.98 287.82 L 377.07 287.78 L 377.32 287.79 L 377.62 286.36 L 377.69 286.22 L 377.74 286.09 L 377.87 285.55 L 378.25 285.42 L 378.31 285.30 L 378.47 285.30 L 378.65 285.30 L 379.20 285.30 L 379.26 285.30 L 379.38 285.30 L 379.40 285.30 L 379.57 285.32 L 379.98 285.32 L 380.41 285.17 L 380.48 285.17 L 380.57 285.16 L 380.69 285.16 L 381.02 285.16 L 381.57 285.16 L 381.75 285.03 L 382.05 281.28 L 383.24 284.82 L 383.51 284.80 L 383.70 284.79 L 384.00 284.79 L 384.09 284.75 L 384.39 284.73 L 384.86 284.51 L 384.92 284.51 L 385.01 284.51 L 385.07 284.51 L 385.11 284.51 L 385.48 284.31 L 394.12 284.31 L 394.19 284.31 L 394.73 284.30 L 394.78 284.30 L 394.90 284.26 L 395.00 284.00 L 395.02 283.99 L 395.31 283.97 L 395.39 283.97 L 397.16 283.75 L 397.36 283.75 L 397.52 283.75 L 397.55 283.75 L 398.10 283.60 L 398.28 283.60 L 398.32 283.60 L 398.61 283.59 L 398.93 282.71 L 398.97 282.71 L 399.24 282.56 L 399.35 282.56 L 399.45 282.56 L 399.68 282.56 L 400.16 282.54 L 400.25 282.52 L 400.34 282.44 L 400.53 282.29 L 401.01 282.15 L 401.43 278.62 L 401.51 278.50 L 401.95 278.33 L 402.02 278.29 L 402.09 278.16 L 402.14 277.92 L 402.29 276.86 L 402.32 276.90 L 402.39 276.88 L 402.64 276.88 L 403.01 276.73 L 403.24 276.68 L 403.51 276.66 L 403.63 276.65 L 403.90 276.64 L 404.33 276.64 L 404.77 276.62 L 405.10 276.62 L 405.17 276.62 L 405.26 276.61 L 405.26 276.61 L 405.52 276.61 L 405.59 276.59 L 405.69 276.46 L 406.40 276.45 L 406.41 276.45 L 406.61 276.43 L 407.43 276.43 L 407.98 276.26 L 408.38 276.10 L 408.39 276.10 L 408.43 276.10 L 420.51 276.10 L 420.55 276.10 L 420.69 276.10 L 420.76 276.10 L 420.80 276.08 L 420.81 276.08 L 421.32 276.08 L 421.44 276.07 L 421.59 276.04 L 421.85 276.02 L 422.02 276.02 L 422.22 275.94 L 422.34 275.94 L 422.39 275.94 L 422.46 275.94 L 422.61 275.61 L 422.63 275.61 L 422.68 275.61 L 422.81 275.61 L 422.89 275.61 L 423.00 275.69 L 423.15 275.69 L 423.45 275.68 L 423.58 275.68 L 423.69 275.68 L 424.43 274.64 L 425.07 274.36 L 425.84 273.62 L 426.03 273.62 L 426.25 273.62 L 426.48 273.62 L 430.93 273.53 L 431.29 273.52 L 473.41 273.39 L 606.01 273.20 L 606.45 273.14 L 606.75 273.13 L 607.06 273.13 L 607.52 272.65 L 607.68 272.65 L 607.80 272.65 L 608.01 270.91 L 608.32 271.24 L 608.56 271.22 L 608.62 271.22 L 608.82 271.20 L 608.87 271.20 L 609.09 271.20 L 609.28 271.12 L 609.88 270.02 L 609.90 270.02 L 610.08 269.92 L 610.65 266.36 L 610.66 266.36 L 610.77 266.36 L 610.91 266.30 L 611.53 264.64 L 611.54 264.64 L 611.67 264.64 L 611.82 264.60 L 612.05 264.00 L 612.06 264.00 L 612.16 263.99 L 612.18 263.99 L 612.24 263.65 L 612.50 261.30 L 612.53 261.30 L 612.62 261.30 L 612.90 261.10 L 612.96 261.10 L 613.18 260.71 L 613.55 260.71 L 613.60 260.71 L 613.65 260.71 L 613.72 260.71 L 613.90 260.70 L 614.10 259.64 L 614.13 259.64 L 614.23 259.64 L 614.35 258.83 L 614.37 258.83 L 614.49 257.98 L 614.54 257.93 L 614.77 257.08 L 614.81 257.08 L 614.92 257.08 L 615.08 257.07 L 616.03 257.07 L 616.51 257.06 L 626.86 257.06 L 626.97 257.06 L 627.07 257.06 L 627.25 257.06 L 627.64 256.84 L 627.67 256.84 L 627.74 256.77 L 627.99 255.59 L 628.01 255.59 L 630.27 255.61 L 630.41 255.38 L 631.55 255.38 L 631.68 255.37 L 631.81 255.29 L 633.18 254.32 L 633.77 254.14 L 633.91 254.07 L 634.41 252.23 L 634.72 252.23 L 635.23 252.08 L 636.14 252.08 L 650.00 252.07"/>
	</g>
	<g id="poloto_plot2" class="poloto_plot poloto_imgs poloto_line poloto2 poloto_stroke" fill="none" stroke="black">
		<path d=" M 150.00 390.52 L 150.03 390.51 L 150.05 390.51 L 150.06 390.51 L 150.09 390.51 L 150.13 388.08 L 150.27 387.75 L 150.59 387.75 L 151.08 387.73 L 151.32 386.28 L 151.81 386.15 L 151.90 386.11 L 151.96 386.07 L 152.53 385.42 L 153.60 384.91 L 153.94 384.82 L 154.03 384.82 L 154.68 384.78 L 155.42 384.78 L 155.43 384.78 L 155.43 384.78 L 165.50 384.78 L 165.57 384.78 L 165.70 384.76 L 165.75 384.76 L 166.13 384.61 L 166.31 384.57 L 166.73 384.33 L 166.79 384.23 L 166.92 384.01 L 167.04 383.98 L 167.08 383.98 L 167.19 383.94 L 167.30 383.94 L 167.40 383.95 L 167.69 383.70 L 167.93 383.48 L 167.98 383.48 L 168.10 383.35 L 168.90 383.05 L 168.91 383.05 L 169.02 382.96 L 169.47 382.64 L 169.84 382.24 L 170.25 382.08 L 170.34 382.08 L 170.35 382.09 L 170.43 381.86 L 170.58 381.86 L 170.79 381.84 L 171.18 381.67 L 171.20 381.39 L 171.27 381.39 L 171.37 381.25 L 171.60 381.25 L 171.62 381.25 L 171.86 380.82 L 171.95 380.80 L 172.03 380.76 L 172.13 380.56 L 173.35 380.45 L 173.65 380.40 L 174.33 380.11 L 174.48 380.11 L 174.58 380.09 L 174.64 379.87 L 175.11 378.69 L 175.32 378.67 L 175.56 378.31 L 175.68 378.28 L 175.96 378.12 L 176.09 378.06 L 176.26 377.81 L 176.41 377.60 L 176.95 377.60 L 176.97 377.57 L 177.00 377.40 L 177.18 376.26 L 186.51 376.14 L 187.48 375.79 L 187.51 375.75 L 188.66 375.46 L 188.75 375.45 L 188.86 375.24 L 189.14 375.10 L 189.26 374.84 L 189.31 374.62 L 189.45 374.20 L 189.79 374.19 L 189.80 374.19 L 189.93 373.89 L 190.06 373.89 L 190.20 373.57 L 190.38 373.33 L 190.45 373.19 L 190.48 373.19 L 190.64 372.90 L 190.66 372.89 L 190.84 372.63 L 190.87 372.62 L 191.14 372.53 L 191.18 372.53 L 191.27 372.43 L 191.39 372.42 L 191.54 372.42 L 191.61 372.40 L 192.13 372.14 L 192.15 372.15 L 192.24 371.63 L 192.48 371.61 L 192.69 371.45 L 192.75 371.45 L 192.85 371.45 L 192.90 371.41 L 193.02 370.70 L 193.60 370.10 L 193.67 369.78 L 193.87 369.75 L 193.93 369.67 L 193.97 369.65 L 194.07 369.50 L 194.16 368.94 L 194.37 368.85 L 194.51 368.84 L 194.63 368.56 L 194.70 368.55 L 195.22 368.34 L 195.51 368.19 L 195.60 368.06 L 195.84 368.05 L 195.87 368.05 L 195.89 368.02 L 196.04 367.01 L 196.17 367.00 L 196.60 366.86 L 196.67 366.45 L 196.75 366.44 L 196.87 366.28 L 196.88 366.18 L 196.93 366.11 L 196.97 366.07 L 197.03 366.07 L 197.09 365.99 L 197.26 364.85 L 197.39 364.73 L 197.51 364.39 L 197.68 364.37 L 197.87 364.26 L 198.05 363.90 L 198.19 362.91 L 198.46 362.84 L 198.46 362.41 L 198.62 362.31 L 211.65 362.31 L 211.90 362.31 L 212.52 361.84 L 212.65 361.84 L 212.75 361.84 L 212.77 361.72 L 212.99 361.52 L 213.14 361.49 L 213.23 361.36 L 213.32 361.28 L 213.38 361.24 L 213.61 361.17 L 214.08 361.27 L 214.20 360.95 L 214.29 360.87 L 214.40 360.86 L 215.01 360.80 L 215.09 360.75 L 215.13 360.75 L 215.17 360.68 L 215.30 360.63 L 215.40 360.52 L 215.84 360.22 L 216.47 360.10 L 216.70 360.04 L 217.40 359.85 L 217.73 359.39 L 217.84 359.32 L 217.99 358.95 L 218.19 358.49 L 218.51 358.37 L 218.95 358.36 L 219.54 358.34 L 219.63 358.17 L 220.06 358.05 L 220.34 357.91 L 220.43 357.79 L 220.60 357.74 L 220.73 357.43 L 222.27 357.28 L 223.73 357.28 L 236.85 357.24 L 236.94 357.08 L 237.01 356.96 L 237.42 356.79 L 238.65 356.48 L 238.70 356.44 L 238.87 356.22 L 239.47 356.13 L 239.76 355.53 L 240.19 355.52 L 240.29 355.50 L 240.39 354.91 L 241.15 354.36 L 241.24 354.35 L 241.40 354.32 L 241.57 354.27 L 241.65 354.07 L 242.07 353.15 L 242.23 352.91 L 242.30 352.89 L 242.39 352.80 L 242.58 352.44 L 242.66 351.52 L 242.85 351.14 L 243.42 350.92 L 243.47 350.46 L 243.53 350.46 L 243.61 350.38 L 243.75 350.25 L 243.81 350.22 L 243.86 350.17 L 244.14 349.10 L 244.20 348.47 L 244.54 348.35 L 244.73 347.28 L 244.86 347.08 L 245.87 345.39 L 245.99 345.36 L 284.54 344.87 L 284.58 344.87 L 299.31 344.73 L 300.11 344.56 L 300.28 344.56 L 300.50 344.47 L 300.57 344.33 L 300.65 344.30 L 307.04 344.29 L 307.89 342.36 L 308.20 342.19 L 308.37 341.52 L 312.34 341.44 L 312.37 341.37 L 312.62 341.36 L 313.81 341.24 L 313.88 341.02 L 314.02 340.94 L 314.44 340.84 L 314.50 340.82 L 314.66 340.44 L 314.85 340.33 L 314.87 340.04 L 327.26 339.68 L 327.35 338.80 L 327.84 338.57 L 327.85 338.24 L 327.94 337.97 L 328.04 337.57 L 328.18 336.51 L 328.39 335.92 L 328.56 335.17 L 328.72 335.17 L 328.79 334.59 L 329.04 334.55 L 329.89 334.00 L 330.24 333.74 L 330.30 333.58 L 330.37 333.58 L 330.41 333.39 L 330.53 332.73 L 330.88 332.66 L 330.93 332.66 L 331.15 332.23 L 331.23 332.23 L 331.26 331.98 L 331.34 331.83 L 331.39 331.83 L 331.44 331.48 L 331.71 331.28 L 331.83 330.93 L 331.98 330.92 L 332.08 330.74 L 332.13 330.48 L 332.40 330.34 L 332.48 330.19 L 332.53 330.19 L 332.60 330.18 L 332.64 329.91 L 332.68 329.93 L 332.69 329.92 L 332.83 329.83 L 332.88 329.53 L 333.01 329.53 L 333.11 329.46 L 333.39 329.44 L 333.73 329.40 L 333.74 329.40 L 333.83 329.39 L 334.15 329.38 L 334.30 329.38 L 334.45 329.38 L 334.61 329.34 L 334.72 328.98 L 335.15 328.98 L 335.19 328.77 L 335.25 328.77 L 335.28 328.53 L 335.57 328.45 L 335.62 328.39 L 335.83 328.39 L 354.88 328.33 L 355.96 328.23 L 356.00 328.23 L 356.21 328.23 L 356.23 328.23 L 356.37 327.81 L 356.48 327.80 L 356.57 327.68 L 356.70 327.62 L 356.74 327.58 L 356.79 327.56 L 356.99 327.52 L 357.40 327.44 L 357.67 326.88 L 357.96 326.85 L 357.97 326.82 L 358.02 326.35 L 358.06 326.35 L 358.62 326.35 L 358.63 326.30 L 358.72 325.87 L 358.97 325.81 L 359.12 325.80 L 359.15 325.79 L 359.16 325.74 L 359.23 325.71 L 359.28 325.26 L 359.30 325.25 L 359.44 325.25 L 359.45 325.22 L 359.75 325.17 L 360.56 325.16 L 360.75 325.12 L 360.81 325.11 L 360.85 324.97 L 360.90 324.97 L 361.02 324.47 L 374.04 324.31 L 374.06 324.17 L 374.17 324.07 L 374.20 324.06 L 374.27 323.63 L 374.42 323.53 L 374.43 323.50 L 374.67 323.50 L 374.73 323.50 L 374.77 323.08 L 374.98 323.03 L 375.54 323.01 L 375.56 322.99 L 375.70 322.76 L 375.76 322.76 L 375.79 322.37 L 376.26 322.37 L 376.27 322.35 L 376.98 322.25 L 377.07 321.79 L 377.32 321.79 L 377.62 321.79 L 377.69 321.44 L 377.74 321.18 L 377.87 321.16 L 378.25 321.11 L 378.31 321.09 L 378.47 320.98 L 378.65 320.98 L 379.20 320.98 L 379.26 320.98 L 379.38 320.96 L 379.40 320.95 L 379.57 320.95 L 379.98 320.92 L 380.41 320.88 L 380.48 320.87 L 380.57 320.83 L 380.69 320.70 L 381.02 320.70 L 381.57 320.55 L 381.75 320.29 L 382.05 320.26 L 383.24 319.97 L 383.51 319.97 L 383.70 319.97 L 384.00 319.96 L 384.09 319.94 L 384.39 319.80 L 384.86 319.78 L 384.92 319.65 L 385.01 319.59 L 385.07 319.60 L 385.11 319.55 L 385.48 319.53 L 394.12 319.53 L 394.19 319.53 L 394.73 319.53 L 394.78 319.51 L 394.90 319.12 L 395.00 319.10 L 395.02 319.11 L 395.31 319.10 L 395.39 319.07 L 397.16 318.50 L 397.36 318.44 L 397.52 318.43 L 397.55 318.42 L 398.10 318.41 L 398.28 318.49 L 398.32 318.49 L 398.61 318.45 L 398.93 317.91 L 398.97 317.89 L 399.24 317.88 L 399.35 317.88 L 399.45 317.88 L 399.68 317.77 L 400.16 317.27 L 400.25 317.27 L 400.34 317.20 L 400.53 316.75 L 401.01 316.25 L 401.43 316.28 L 401.51 316.02 L 401.95 316.02 L 402.02 315.99 L 402.09 315.96 L 402.14 315.70 L 402.29 315.69 L 402.32 315.69 L 402.39 315.69 L 402.64 315.69 L 403.01 315.48 L 403.24 315.46 L 403.51 315.46 L 403.63 315.46 L 403.90 315.46 L 404.33 315.46 L 404.77 315.46 L 405.10 315.46 L 405.17 315.45 L 405.26 315.44 L 405.26 315.35 L 405.52 315.29 L 405.59 315.29 L 405.69 315.27 L 406.40 315.27 L 406.41 315.01 L 406.61 315.01 L 407.43 315.02 L 407.98 315.01 L 408.38 314.96 L 408.39 314.85 L 408.43 314.85 L 420.51 314.68 L 420.55 314.67 L 420.69 314.66 L 420.76 314.51 L 420.80 314.51 L 420.81 314.49 L 421.32 314.45 L 421.44 313.92 L 421.59 313.81 L 421.85 312.78 L 422.02 312.77 L 422.22 312.33 L 422.34 312.38 L 422.39 312.38 L 422.46 311.82 L 422.61 311.72 L 422.63 311.33 L 422.68 311.27 L 422.81 311.24 L 422.89 311.04 L 423.00 313.35 L 423.15 313.32 L 423.45 312.39 L 423.58 312.19 L 423.69 311.98 L 424.43 311.61 L 425.07 311.22 L 425.84 310.68 L 426.03 310.62 L 426.25 310.62 L 426.48 310.57 L 430.93 310.30 L 431.29 310.27 L 473.41 309.55 L 606.01 309.53 L 606.45 309.20 L 606.75 309.15 L 607.06 309.15 L 607.52 308.86 L 607.68 308.51 L 607.80 307.88 L 608.01 307.71 L 608.32 307.77 L 608.56 307.40 L 608.62 307.40 L 608.82 307.28 L 608.87 307.28 L 609.09 306.67 L 609.28 305.72 L 609.88 305.63 L 609.90 305.53 L 610.08 304.31 L 610.65 304.27 L 610.66 304.15 L 610.77 304.07 L 610.91 302.97 L 611.53 302.91 L 611.54 302.75 L 611.67 302.68 L 611.82 301.95 L 612.05 301.93 L 612.06 301.81 L 612.16 300.60 L 612.18 300.57 L 612.24 300.53 L 612.50 300.53 L 612.53 300.41 L 612.62 300.32 L 612.90 300.21 L 612.96 300.20 L 613.18 300.14 L 613.55 300.18 L 613.60 300.13 L 613.65 300.10 L 613.72 300.06 L 613.90 298.81 L 614.10 298.78 L 614.13 298.68 L 614.23 297.39 L 614.35 296.93 L 614.37 296.76 L 614.49 296.13 L 614.54 295.04 L 614.77 295.03 L 614.81 294.97 L 614.92 294.75 L 615.08 294.74 L 616.03 294.71 L 616.51 294.68 L 626.86 294.73 L 626.97 294.48 L 627.07 294.30 L 627.25 293.43 L 627.64 293.42 L 627.67 293.33 L 627.74 292.24 L 627.99 292.23 L 628.01 292.12 L 630.27 292.01 L 630.41 291.62 L 631.55 291.43 L 631.68 291.38 L 631.81 290.17 L 633.18 289.82 L 633.77 289.53 L 633.91 288.61 L 634.41 288.61 L 634.72 288.10 L 635.23 287.32 L 636.14 286.84 L 650.00 286.84"/>
	</g>
	<g class="poloto_legend poloto_imgs poloto_line poloto0 poloto_stroke"><line x1="680" x2="730" y1="81.25" y2="81.25"/></g>
	<g class="poloto_legend poloto_imgs poloto_line poloto1 poloto_stroke"><line x1="680" x2="730" y1="131.25" y2="131.25"/></g>
	<g class="poloto_legend poloto_imgs poloto_line poloto2 poloto_stroke"><line x1="680" x2="730" y1="181.25" y2="181.25"/></g>
	<text class="poloto_legend poloto_text poloto_line poloto0" x="675" y="100">total</text>
	<text class="poloto_legend poloto_text poloto_line poloto1" x="675" y="150">code</text>
	<text class="poloto_legend poloto_text poloto_line poloto2" x="675" y="200">docs</text>
	<text class="poloto_text poloto_name poloto_title" x="400.00" y="37.50">Workspace lines over time</text>
	<text class="poloto_text poloto_name poloto_x" x="400.00" y="640">date (JST)</text>
	<text class="poloto_text poloto_name poloto_y" x="37.50" y="250.00" transform="rotate(-90,37.50,250.00)">lines</text>
	<text class="poloto_text poloto_ticks poloto_y">
		<tspan x="135.00" y="400.00">0</tspan>
		<tspan x="135.00" y="309.86">50K</tspan>
		<tspan x="135.00" y="219.73">100K</tspan>
		<tspan x="135.00" y="129.59">150K</tspan>
	</text>
	<g class="poloto_imgs poloto_ticks poloto_y" stroke="black">
		<line x1="150.00" x2="144.00" y1="400.00" y2="400.00"/>
		<line x1="150.00" x2="144.00" y1="309.86" y2="309.86"/>
		<line x1="150.00" x2="144.00" y1="219.73" y2="219.73"/>
		<line x1="150.00" x2="144.00" y1="129.59" y2="129.59"/>
	</g>
	<g class="poloto_text poloto_ticks poloto_x">
		<text x="236.69" y="430.00" text-anchor="end" transform="rotate(-90 236.69 430.00)">2026-04-24 12:06</text>
		<text x="370.12" y="430.00" text-anchor="end" transform="rotate(-90 370.12 430.00)">2026-04-30 07:00</text>
		<text x="503.55" y="430.00" text-anchor="end" transform="rotate(-90 503.55 430.00)">2026-05-06 01:53</text>
		<text x="636.99" y="430.00" text-anchor="end" transform="rotate(-90 636.99 430.00)">2026-05-11 20:46</text>
	</g>
	<g class="poloto_imgs poloto_ticks poloto_x" stroke="black">
		<line x1="236.69" x2="236.69" y1="400.00" y2="405.00"/>
		<line x1="370.12" x2="370.12" y1="400.00" y2="405.00"/>
		<line x1="503.55" x2="503.55" y1="400.00" y2="405.00"/>
		<line x1="636.99" x2="636.99" y1="400.00" y2="405.00"/>
	</g>
	<path class="poloto_imgs poloto_ticks poloto_x" stroke="black" style="stroke-dasharray:6.671730065004001;stroke-dashoffset:-86.68525499617681;" d=" M 150.00 400.00 L 650.00 400.00"/>
	<path class="poloto_imgs poloto_ticks poloto_y" stroke="black" style="stroke-dasharray:9.013502226335051;stroke-dashoffset:-0;" d=" M 150.00 400.00 L 150.00 100.00"/>
</svg>

