<svg class="poloto" width="800" height="680" viewBox="0 0 800 680" xmlns="http://www.w3.org/2000/svg">
	<style>
.poloto{
  stroke-linecap:round;
  stroke-linejoin:round;
  font-family:Roboto,sans-serif;
  font-size:16px;
}
.poloto_background{fill:AliceBlue;}
.poloto_scatter{stroke-width:7}
.poloto_line{stroke-width:2}
.poloto_text{fill: black;}
.poloto_name{font-size:24px;dominant-baseline:auto;text-anchor:middle;}
.poloto_where{dominant-baseline:middle;text-anchor:start}
.poloto_text.poloto_legend{font-size:20px;dominant-baseline:middle;text-anchor:start;}
.poloto_text.poloto_ticks.poloto_y{dominant-baseline:middle;text-anchor:end}
.poloto_text.poloto_ticks.poloto_x{dominant-baseline:auto;text-anchor:middle}
.poloto_imgs.poloto_ticks{stroke: black;stroke-width:3;fill:none;stroke-dasharray:none}
.poloto_grid{stroke:gray;stroke-width:0.5}

.poloto0.poloto_stroke{stroke:blue;}
.poloto1.poloto_stroke{stroke:red;}
.poloto2.poloto_stroke{stroke:green;}
.poloto3.poloto_stroke{stroke:gold;}
.poloto4.poloto_stroke{stroke:aqua;}
.poloto5.poloto_stroke{stroke:lime;}
.poloto6.poloto_stroke{stroke:orange;}
.poloto7.poloto_stroke{stroke:chocolate;}
.poloto0.poloto_fill{fill:blue;}
.poloto1.poloto_fill{fill:red;}
.poloto2.poloto_fill{fill:green;}
.poloto3.poloto_fill{fill:gold;}
.poloto4.poloto_fill{fill:aqua;}
.poloto5.poloto_fill{fill:lime;}
.poloto6.poloto_fill{fill:orange;}
.poloto7.poloto_fill{fill:chocolate;}
	</style>
	<circle r="1e5" class="poloto_background" fill="white"/>
	<g id="poloto_plot0" class="poloto_plot poloto_imgs poloto_line poloto0 poloto_stroke" fill="none" stroke="black">
		<path d=" M 150.00 369.44 L 150.03 369.42 L 150.04 369.40 L 150.05 369.40 L 150.07 369.40 L 150.10 366.09 L 150.22 365.69 L 150.48 365.67 L 150.87 365.40 L 151.07 363.71 L 151.47 363.61 L 151.54 363.52 L 151.59 363.48 L 152.05 362.66 L 152.92 361.99 L 153.20 359.39 L 153.27 359.39 L 153.79 359.29 L 154.39 359.28 L 154.40 359.28 L 154.40 359.28 L 162.56 359.28 L 162.62 359.27 L 162.72 359.25 L 162.77 359.22 L 163.08 359.07 L 163.22 359.03 L 163.56 358.79 L 163.61 358.68 L 163.71 358.45 L 163.82 358.41 L 163.85 358.41 L 163.93 358.35 L 164.02 358.35 L 164.11 358.35 L 164.34 357.96 L 164.54 357.73 L 164.58 357.73 L 164.67 357.58 L 165.32 358.18 L 165.33 358.18 L 165.42 358.08 L 165.79 357.64 L 166.08 357.10 L 166.42 356.87 L 166.49 356.83 L 166.50 356.83 L 166.56 356.62 L 166.69 356.62 L 166.85 356.55 L 167.17 356.35 L 167.19 356.04 L 167.25 356.04 L 167.32 355.88 L 167.51 355.88 L 167.53 355.88 L 167.72 355.43 L 167.79 355.41 L 167.86 355.37 L 167.94 355.19 L 168.93 354.95 L 169.17 354.90 L 169.73 354.59 L 169.84 354.59 L 169.93 354.58 L 169.98 354.35 L 170.36 353.03 L 170.53 353.01 L 170.72 352.57 L 170.82 352.53 L 171.05 352.16 L 171.15 352.03 L 171.29 351.79 L 171.41 351.59 L 171.85 348.55 L 171.86 348.48 L 171.89 348.30 L 172.04 346.84 L 179.60 346.73 L 180.38 345.07 L 180.41 345.03 L 181.34 344.77 L 181.42 344.76 L 181.50 344.44 L 181.73 344.27 L 181.83 343.99 L 181.87 343.74 L 181.99 343.30 L 182.26 343.30 L 182.27 343.00 L 182.37 342.68 L 182.47 342.67 L 182.59 342.31 L 182.74 342.04 L 182.79 341.91 L 182.82 341.91 L 182.95 341.62 L 182.97 341.62 L 183.11 341.33 L 183.13 341.32 L 183.35 339.96 L 183.39 339.96 L 183.46 339.73 L 183.55 339.71 L 183.68 339.71 L 183.73 339.68 L 184.16 339.43 L 184.17 339.43 L 184.25 338.83 L 184.44 338.81 L 184.61 337.90 L 184.66 337.82 L 184.74 337.81 L 184.78 337.78 L 184.88 337.07 L 185.35 331.12 L 185.40 330.83 L 185.56 330.81 L 185.61 330.73 L 185.65 330.71 L 185.73 330.56 L 185.80 329.88 L 185.97 329.74 L 186.09 329.73 L 186.18 329.43 L 186.24 329.42 L 186.66 329.20 L 186.90 329.03 L 186.97 328.77 L 187.16 328.75 L 187.18 328.75 L 187.20 328.73 L 187.33 327.30 L 187.43 327.21 L 187.78 325.77 L 187.84 325.35 L 187.90 325.34 L 188.00 325.19 L 188.01 325.08 L 188.05 325.01 L 188.08 324.97 L 188.13 324.96 L 188.18 324.89 L 188.32 323.71 L 188.42 323.54 L 188.52 323.19 L 188.65 323.16 L 188.81 323.05 L 188.96 322.22 L 189.07 321.06 L 189.29 321.00 L 189.29 320.56 L 189.42 320.42 L 199.98 320.43 L 200.19 320.41 L 200.68 319.80 L 200.79 319.78 L 200.87 319.78 L 200.89 319.63 L 201.07 319.44 L 201.19 319.41 L 201.26 319.30 L 201.34 319.22 L 201.38 319.17 L 201.57 319.12 L 201.95 319.05 L 202.05 318.73 L 202.12 318.65 L 202.21 318.64 L 202.70 318.48 L 202.77 318.39 L 202.80 318.39 L 202.83 318.27 L 202.94 318.22 L 203.02 318.10 L 203.38 317.33 L 203.89 317.21 L 204.07 317.16 L 204.64 316.96 L 204.91 313.22 L 205.00 313.14 L 205.12 312.77 L 205.28 312.28 L 205.54 312.14 L 205.90 312.13 L 206.38 312.12 L 206.45 311.95 L 206.80 311.78 L 207.02 311.51 L 207.10 311.40 L 207.23 311.36 L 207.34 311.02 L 208.59 310.66 L 209.78 310.66 L 220.41 310.62 L 220.49 310.46 L 220.54 310.36 L 220.87 310.19 L 221.87 308.90 L 221.91 308.82 L 222.05 308.49 L 222.54 308.40 L 222.77 307.53 L 223.12 307.52 L 223.20 307.51 L 223.28 306.91 L 223.90 303.51 L 223.97 303.50 L 224.10 303.47 L 224.24 303.43 L 224.30 303.06 L 224.64 301.78 L 224.77 301.54 L 224.82 301.52 L 224.90 300.93 L 225.06 300.10 L 225.12 299.21 L 225.27 298.81 L 225.73 294.39 L 225.78 293.94 L 225.82 293.94 L 225.89 293.86 L 226.01 293.75 L 226.05 293.71 L 226.10 293.66 L 226.32 292.60 L 226.37 291.85 L 226.64 291.70 L 226.80 290.59 L 226.90 289.89 L 227.73 279.58 L 227.82 279.55 L 259.07 279.06 L 259.10 279.06 L 271.05 278.91 L 271.70 278.63 L 271.83 278.63 L 272.01 278.55 L 272.06 278.42 L 272.14 278.39 L 277.32 278.31 L 278.00 276.35 L 278.25 276.18 L 278.39 275.45 L 281.61 275.31 L 281.63 275.11 L 281.84 275.09 L 282.80 273.86 L 282.86 273.63 L 282.98 273.55 L 283.32 273.47 L 283.36 273.44 L 283.50 273.06 L 283.64 272.96 L 283.66 272.69 L 293.70 272.31 L 293.78 271.25 L 294.18 271.02 L 294.18 269.25 L 294.25 268.99 L 294.34 268.55 L 294.45 267.33 L 294.62 266.68 L 294.76 265.93 L 294.89 265.92 L 294.94 265.34 L 295.15 265.29 L 295.84 262.44 L 296.12 262.14 L 296.17 261.96 L 296.23 261.95 L 296.26 261.76 L 296.36 261.06 L 296.64 260.72 L 296.68 260.68 L 296.86 258.17 L 296.92 258.16 L 296.95 257.89 L 297.01 257.69 L 297.06 257.68 L 297.09 257.31 L 297.31 255.95 L 297.41 255.57 L 297.53 255.52 L 297.62 251.89 L 297.65 251.60 L 297.87 249.53 L 297.93 249.37 L 297.98 249.36 L 298.03 249.36 L 298.07 249.07 L 298.10 249.08 L 298.11 249.07 L 298.22 245.41 L 298.26 245.09 L 298.37 245.07 L 298.45 245.01 L 298.67 244.90 L 298.95 244.77 L 298.96 244.77 L 299.03 244.72 L 299.29 244.65 L 299.41 244.65 L 299.53 244.65 L 299.67 243.06 L 299.75 242.67 L 300.11 242.67 L 300.14 242.42 L 300.18 242.41 L 300.21 242.14 L 300.44 239.83 L 300.48 239.78 L 300.65 239.76 L 316.10 239.70 L 316.98 239.58 L 317.00 239.58 L 317.18 239.58 L 317.19 239.58 L 317.31 239.12 L 317.39 239.10 L 317.47 238.87 L 317.57 238.82 L 317.60 238.78 L 317.64 238.77 L 317.81 238.51 L 318.14 238.28 L 318.36 237.54 L 318.59 236.83 L 318.60 236.79 L 318.64 236.13 L 318.67 236.11 L 319.13 235.72 L 319.14 235.67 L 319.21 235.15 L 319.41 235.09 L 319.54 235.04 L 319.56 234.11 L 319.57 234.06 L 319.63 234.95 L 319.66 234.40 L 319.68 234.38 L 319.79 233.13 L 319.80 233.10 L 320.04 232.99 L 320.70 232.98 L 320.86 232.93 L 320.91 232.92 L 320.94 232.76 L 320.98 232.76 L 321.07 232.14 L 331.63 230.95 L 331.65 230.78 L 331.73 230.67 L 331.76 230.44 L 331.82 220.00 L 331.94 215.72 L 331.95 215.70 L 332.14 215.61 L 332.19 215.61 L 332.22 215.12 L 332.39 215.08 L 332.85 214.06 L 332.86 214.04 L 332.98 213.73 L 333.02 213.74 L 333.05 213.24 L 333.43 212.64 L 333.44 212.62 L 334.02 212.39 L 334.09 211.86 L 334.29 211.87 L 334.53 210.52 L 334.59 209.99 L 334.63 209.56 L 334.74 209.04 L 335.04 208.86 L 335.09 208.72 L 335.22 208.61 L 335.37 208.61 L 335.81 208.61 L 335.86 208.61 L 335.96 208.58 L 335.97 208.58 L 336.12 208.60 L 336.45 208.57 L 336.80 208.37 L 336.85 208.37 L 336.92 208.29 L 337.02 208.15 L 337.29 208.15 L 337.74 207.96 L 337.88 207.55 L 338.12 203.95 L 339.09 206.99 L 339.30 206.98 L 339.46 206.96 L 339.70 206.96 L 339.78 206.90 L 340.02 206.73 L 340.40 206.48 L 340.45 206.31 L 340.53 206.25 L 340.57 206.26 L 340.61 206.21 L 340.91 205.99 L 347.91 205.98 L 347.97 205.99 L 348.41 205.97 L 348.45 205.96 L 348.55 205.50 L 348.63 205.24 L 348.64 205.24 L 348.88 205.20 L 348.94 205.18 L 350.37 204.50 L 350.54 204.44 L 350.66 204.43 L 350.69 204.42 L 351.13 204.26 L 351.29 204.34 L 351.31 204.34 L 351.55 204.29 L 351.81 202.87 L 351.84 202.86 L 352.06 202.70 L 352.15 202.70 L 352.23 202.70 L 352.42 202.54 L 352.80 201.97 L 352.88 201.95 L 352.95 201.79 L 353.11 201.11 L 353.49 200.40 L 353.84 197.09 L 353.90 196.69 L 354.26 196.53 L 354.32 196.44 L 354.37 196.29 L 354.41 195.75 L 354.53 194.80 L 354.56 194.84 L 354.61 194.82 L 354.81 194.82 L 355.12 194.46 L 355.31 194.40 L 355.52 194.38 L 355.62 194.37 L 355.84 194.36 L 356.19 194.36 L 356.54 194.35 L 356.81 194.35 L 356.87 194.34 L 356.94 194.33 L 356.94 194.21 L 357.15 194.14 L 357.21 194.13 L 357.29 193.99 L 357.87 193.97 L 357.88 193.68 L 358.03 193.67 L 358.70 193.67 L 359.15 193.50 L 359.47 193.29 L 359.48 193.17 L 359.51 193.17 L 369.31 192.97 L 369.34 192.97 L 369.45 192.96 L 369.51 192.79 L 369.54 192.77 L 369.55 192.76 L 369.96 192.72 L 370.06 192.12 L 370.18 191.98 L 370.39 190.80 L 370.53 190.79 L 370.69 190.29 L 370.79 190.35 L 370.83 190.35 L 370.88 189.77 L 371.00 189.38 L 371.02 188.96 L 371.06 188.91 L 371.17 188.87 L 371.24 188.68 L 371.33 190.93 L 371.44 190.89 L 371.69 189.99 L 371.79 189.77 L 371.88 189.58 L 372.49 188.29 L 373.00 187.66 L 373.62 186.47 L 373.78 186.41 L 373.95 186.41 L 374.15 186.36 L 377.75 186.02 L 378.05 185.99 L 412.19 185.08 L 519.69 184.87 L 520.05 184.50 L 520.29 184.45 L 520.54 184.45 L 520.91 183.75 L 521.04 183.41 L 521.14 182.78 L 521.31 180.96 L 521.56 181.34 L 521.76 180.94 L 521.81 180.94 L 521.97 180.82 L 522.01 180.82 L 522.19 180.15 L 522.34 179.09 L 522.83 177.96 L 522.85 177.86 L 522.99 176.51 L 523.45 173.17 L 523.46 173.06 L 523.55 172.99 L 523.66 171.79 L 524.16 170.18 L 524.17 170.04 L 524.28 169.96 L 524.40 169.17 L 524.59 168.54 L 524.60 168.42 L 524.68 167.20 L 524.69 167.17 L 524.74 166.83 L 524.95 164.65 L 524.98 164.53 L 525.05 164.40 L 525.28 164.11 L 525.32 164.10 L 525.50 163.69 L 525.80 163.74 L 525.85 163.68 L 525.89 163.65 L 525.94 163.62 L 526.09 162.34 L 526.25 161.30 L 526.27 161.21 L 526.36 159.91 L 526.45 158.64 L 526.47 158.48 L 526.57 156.99 L 526.61 155.82 L 526.79 155.03 L 526.82 154.97 L 526.91 154.73 L 527.04 154.71 L 527.81 154.67 L 528.20 154.64 L 536.60 154.69 L 536.68 154.46 L 536.76 154.26 L 536.91 153.39 L 537.22 153.16 L 537.25 153.07 L 537.31 151.92 L 537.51 150.79 L 537.53 150.70 L 539.36 150.62 L 539.47 149.99 L 540.40 149.80 L 540.50 149.76 L 540.61 148.45 L 541.72 147.22 L 542.20 146.76 L 542.31 145.80 L 542.71 144.16 L 542.96 143.69 L 543.38 142.72 L 544.11 142.23 L 555.35 142.22 L 556.03 142.11 L 556.06 142.13 L 557.00 141.94 L 557.04 141.85 L 557.37 141.77 L 557.76 140.70 L 557.76 140.70 L 557.80 140.66 L 558.30 139.44 L 559.45 138.74 L 559.53 138.68 L 559.65 138.67 L 559.82 138.35 L 559.87 138.26 L 559.94 138.20 L 560.48 138.16 L 560.91 138.16 L 561.14 138.15 L 561.17 138.11 L 561.65 137.04 L 562.02 136.84 L 562.04 136.76 L 562.08 136.67 L 562.13 136.38 L 574.33 135.98 L 574.35 135.95 L 574.39 135.94 L 574.63 135.82 L 574.81 135.69 L 575.89 134.05 L 576.15 133.85 L 576.93 133.36 L 577.59 133.24 L 578.09 133.08 L 578.23 131.56 L 578.84 129.79 L 579.07 129.66 L 579.15 128.52 L 580.96 126.41 L 580.97 126.41 L 581.07 125.90 L 581.42 125.84 L 581.42 125.84 L 581.44 125.72 L 581.50 125.55 L 581.66 125.39 L 581.85 124.50 L 583.72 122.37 L 583.97 122.12 L 584.14 121.74 L 584.16 121.69 L 584.20 121.39 L 592.51 120.43 L 592.77 119.70 L 592.93 119.66 L 592.99 119.18 L 593.77 118.95 L 593.94 118.47 L 594.08 118.47 L 594.17 117.45 L 594.43 114.85 L 594.47 114.81 L 594.83 114.77 L 594.90 113.92 L 595.20 112.90 L 595.27 112.20 L 595.51 111.55 L 595.70 111.21 L 595.84 110.43 L 596.15 109.77 L 596.18 109.03 L 596.58 108.86 L 596.62 108.86 L 596.69 107.92 L 596.77 107.92 L 596.81 107.85 L 597.27 106.08 L 597.94 105.50 L 598.28 105.69 L 599.38 105.61 L 599.40 105.60 L 599.58 105.58 L 599.65 105.56 L 599.77 105.44 L 599.91 105.34 L 600.06 105.15 L 600.38 104.89 L 600.70 104.88 L 601.68 104.70 L 601.73 104.69 L 602.71 104.52 L 603.14 104.41 L 611.54 104.40 L 611.96 104.27 L 612.17 104.18 L 612.27 104.18 L 612.29 104.18 L 612.50 104.15 L 612.60 104.10 L 612.85 103.93 L 613.00 103.90 L 613.54 103.72 L 613.83 103.32 L 614.30 103.26 L 614.43 103.01 L 614.59 102.85 L 614.80 102.65 L 615.53 102.70 L 615.60 102.68 L 616.66 102.19 L 616.82 101.90 L 617.03 101.81 L 617.55 101.58 L 617.78 101.64 L 617.91 102.02 L 618.01 102.00 L 618.15 101.84 L 618.60 100.68 L 619.08 100.56 L 619.50 100.46 L 619.55 100.41 L 619.60 100.08 L 650.00 100.00"/>
	</g>
	<g id="poloto_plot1" class="poloto_plot poloto_imgs poloto_line poloto1 poloto_stroke" fill="none" stroke="black">
		<path d=" M 150.00 381.84 L 150.03 381.83 L 150.04 381.81 L 150.05 381.81 L 150.07 381.81 L 150.10 381.24 L 150.22 381.22 L 150.48 381.21 L 150.87 380.99 L 151.07 380.90 L 151.47 380.92 L 151.54 380.88 L 151.59 380.88 L 152.05 380.84 L 152.92 380.73 L 153.20 378.48 L 153.27 378.48 L 153.79 378.43 L 154.39 378.42 L 154.40 378.42 L 154.40 378.42 L 162.56 378.42 L 162.62 378.42 L 162.72 378.42 L 162.77 378.39 L 163.08 378.38 L 163.22 378.38 L 163.56 378.38 L 163.61 378.38 L 163.71 378.36 L 163.82 378.36 L 163.85 378.36 L 163.93 378.33 L 164.02 378.33 L 164.11 378.33 L 164.34 378.21 L 164.54 378.21 L 164.58 378.21 L 164.67 378.21 L 165.32 379.05 L 165.33 379.05 L 165.42 379.04 L 165.79 378.91 L 166.08 378.77 L 166.42 378.71 L 166.49 378.67 L 166.50 378.67 L 166.56 378.67 L 166.69 378.67 L 166.85 378.61 L 167.17 378.56 L 167.19 378.56 L 167.25 378.56 L 167.32 378.54 L 167.51 378.54 L 167.53 378.54 L 167.72 378.53 L 167.79 378.53 L 167.86 378.53 L 167.94 378.53 L 168.93 378.43 L 169.17 378.43 L 169.73 378.38 L 169.84 378.38 L 169.93 378.38 L 169.98 378.38 L 170.36 378.31 L 170.53 378.31 L 170.72 378.23 L 170.82 378.22 L 171.05 378.04 L 171.15 377.97 L 171.29 377.97 L 171.41 377.97 L 171.85 375.35 L 171.86 375.30 L 171.89 375.30 L 172.04 375.05 L 179.60 375.05 L 180.38 373.92 L 180.41 373.92 L 181.34 373.92 L 181.42 373.92 L 181.50 373.80 L 181.73 373.78 L 181.83 373.78 L 181.87 373.78 L 181.99 373.78 L 182.26 373.78 L 182.27 373.53 L 182.37 373.52 L 182.47 373.52 L 182.59 373.50 L 182.74 373.49 L 182.79 373.49 L 182.82 373.49 L 182.95 373.49 L 182.97 373.49 L 183.11 373.49 L 183.13 373.49 L 183.35 372.38 L 183.39 372.38 L 183.46 372.25 L 183.55 372.25 L 183.68 372.25 L 183.73 372.23 L 184.16 372.23 L 184.17 372.23 L 184.25 372.16 L 184.44 372.16 L 184.61 371.52 L 184.66 371.44 L 184.74 371.44 L 184.78 371.44 L 184.88 371.43 L 185.35 366.74 L 185.40 366.78 L 185.56 366.78 L 185.61 366.78 L 185.65 366.77 L 185.73 366.77 L 185.80 366.71 L 185.97 366.71 L 186.09 366.71 L 186.18 366.70 L 186.24 366.70 L 186.66 366.69 L 186.90 366.69 L 186.97 366.57 L 187.16 366.57 L 187.18 366.57 L 187.20 366.57 L 187.33 366.26 L 187.43 366.17 L 187.78 365.06 L 187.84 365.06 L 187.90 365.06 L 188.00 365.07 L 188.01 365.07 L 188.05 365.07 L 188.08 365.07 L 188.13 365.07 L 188.18 365.07 L 188.32 365.05 L 188.42 365.05 L 188.52 365.04 L 188.65 365.04 L 188.81 365.03 L 188.96 364.62 L 189.07 364.48 L 189.29 364.48 L 189.29 364.47 L 189.42 364.47 L 199.98 364.47 L 200.19 364.46 L 200.68 364.39 L 200.79 364.38 L 200.87 364.38 L 200.89 364.38 L 201.07 364.38 L 201.19 364.38 L 201.26 364.38 L 201.34 364.38 L 201.38 364.38 L 201.57 364.38 L 201.95 364.40 L 202.05 364.40 L 202.12 364.40 L 202.21 364.40 L 202.70 364.31 L 202.77 364.27 L 202.80 364.27 L 202.83 364.21 L 202.94 364.20 L 203.02 364.20 L 203.38 363.78 L 203.89 363.78 L 204.07 363.78 L 204.64 363.78 L 204.91 360.91 L 205.00 360.90 L 205.12 360.90 L 205.28 360.90 L 205.54 360.90 L 205.90 360.90 L 206.38 360.90 L 206.45 360.90 L 206.80 360.83 L 207.02 360.71 L 207.10 360.71 L 207.23 360.71 L 207.34 360.69 L 208.59 360.51 L 209.78 360.51 L 220.41 360.51 L 220.49 360.51 L 220.54 360.51 L 220.87 360.51 L 221.87 359.61 L 221.91 359.58 L 222.05 359.48 L 222.54 359.48 L 222.77 359.26 L 223.12 359.26 L 223.20 359.26 L 223.28 359.26 L 223.90 356.74 L 223.97 356.74 L 224.10 356.74 L 224.24 356.74 L 224.30 356.58 L 224.64 356.28 L 224.77 356.28 L 224.82 356.28 L 224.90 355.82 L 225.06 355.35 L 225.12 355.35 L 225.27 355.34 L 225.73 351.59 L 225.78 351.59 L 225.82 351.59 L 225.89 351.59 L 226.01 351.59 L 226.05 351.59 L 226.10 351.59 L 226.32 351.59 L 226.37 351.51 L 226.64 351.49 L 226.80 351.44 L 226.90 350.99 L 227.73 343.52 L 227.82 343.52 L 259.07 343.52 L 259.10 343.52 L 271.05 343.52 L 271.70 343.40 L 271.83 343.40 L 272.01 343.40 L 272.06 343.40 L 272.14 343.40 L 277.32 343.35 L 278.00 343.28 L 278.25 343.28 L 278.39 343.25 L 281.61 343.19 L 281.63 343.09 L 281.84 343.09 L 282.80 342.08 L 282.86 342.08 L 282.98 342.08 L 283.32 342.08 L 283.36 342.08 L 283.50 342.08 L 283.64 342.08 L 283.66 342.08 L 293.70 342.06 L 293.78 341.88 L 294.18 341.88 L 294.18 340.66 L 294.25 340.66 L 294.34 340.66 L 294.45 340.55 L 294.62 340.55 L 294.76 340.50 L 294.89 340.50 L 294.94 340.50 L 295.15 340.48 L 295.84 338.41 L 296.12 338.40 L 296.17 338.39 L 296.23 338.39 L 296.26 338.39 L 296.36 338.36 L 296.64 338.10 L 296.68 338.07 L 296.86 336.21 L 296.92 336.20 L 296.95 336.20 L 297.01 336.17 L 297.06 336.17 L 297.09 336.17 L 297.31 335.15 L 297.41 335.14 L 297.53 335.12 L 297.62 331.97 L 297.65 331.97 L 297.87 330.19 L 297.93 330.19 L 297.98 330.19 L 298.03 330.19 L 298.07 330.19 L 298.10 330.19 L 298.11 330.19 L 298.22 326.91 L 298.26 326.90 L 298.37 326.89 L 298.45 326.89 L 298.67 326.83 L 298.95 326.74 L 298.96 326.74 L 299.03 326.72 L 299.29 326.66 L 299.41 326.66 L 299.53 326.66 L 299.67 325.25 L 299.75 325.25 L 300.11 325.24 L 300.14 325.24 L 300.18 325.24 L 300.21 325.24 L 300.44 323.22 L 300.48 323.22 L 300.65 323.21 L 316.10 323.21 L 316.98 323.19 L 317.00 323.19 L 317.18 323.19 L 317.19 323.19 L 317.31 323.19 L 317.39 323.19 L 317.47 323.09 L 317.57 323.09 L 317.60 323.09 L 317.64 323.09 L 317.81 322.91 L 318.14 322.79 L 318.36 322.67 L 318.59 322.10 L 318.60 322.10 L 318.64 321.96 L 318.67 321.94 L 319.13 321.59 L 319.14 321.59 L 319.21 321.54 L 319.41 321.54 L 319.54 321.51 L 319.56 320.67 L 319.57 320.67 L 319.63 321.50 L 319.66 321.45 L 319.68 321.44 L 319.79 320.32 L 319.80 320.32 L 320.04 320.27 L 320.70 320.27 L 320.86 320.27 L 320.91 320.27 L 320.94 320.27 L 320.98 320.27 L 321.07 320.20 L 331.63 319.26 L 331.65 319.26 L 331.73 319.26 L 331.76 319.05 L 331.82 309.09 L 331.94 305.38 L 331.95 305.38 L 332.14 305.31 L 332.19 305.31 L 332.22 305.29 L 332.39 305.29 L 332.85 304.39 L 332.86 304.39 L 332.98 304.34 L 333.02 304.34 L 333.05 304.26 L 333.43 303.72 L 333.44 303.72 L 334.02 303.61 L 334.09 303.57 L 334.29 303.58 L 334.53 302.36 L 334.59 302.23 L 334.63 302.12 L 334.74 301.66 L 335.04 301.55 L 335.09 301.45 L 335.22 301.45 L 335.37 301.45 L 335.81 301.45 L 335.86 301.45 L 335.96 301.45 L 335.97 301.45 L 336.12 301.46 L 336.45 301.46 L 336.80 301.33 L 336.85 301.33 L 336.92 301.32 L 337.02 301.32 L 337.29 301.32 L 337.74 301.32 L 337.88 301.21 L 338.12 297.99 L 339.09 301.03 L 339.30 301.01 L 339.46 301.00 L 339.70 301.00 L 339.78 300.97 L 340.02 300.95 L 340.40 300.77 L 340.45 300.77 L 340.53 300.77 L 340.57 300.77 L 340.61 300.77 L 340.91 300.59 L 347.91 300.59 L 347.97 300.59 L 348.41 300.58 L 348.45 300.58 L 348.55 300.55 L 348.63 300.33 L 348.64 300.32 L 348.88 300.30 L 348.94 300.30 L 350.37 300.11 L 350.54 300.11 L 350.66 300.11 L 350.69 300.11 L 351.13 299.98 L 351.29 299.98 L 351.31 299.98 L 351.55 299.98 L 351.81 299.22 L 351.84 299.22 L 352.06 299.09 L 352.15 299.09 L 352.23 299.09 L 352.42 299.09 L 352.80 299.07 L 352.88 299.06 L 352.95 298.98 L 353.11 298.85 L 353.49 298.74 L 353.84 295.70 L 353.90 295.60 L 354.26 295.46 L 354.32 295.42 L 354.37 295.31 L 354.41 295.10 L 354.53 294.19 L 354.56 294.23 L 354.61 294.21 L 354.81 294.21 L 355.12 294.08 L 355.31 294.03 L 355.52 294.02 L 355.62 294.01 L 355.84 294.00 L 356.19 294.00 L 356.54 293.99 L 356.81 293.99 L 356.87 293.98 L 356.94 293.98 L 356.94 293.97 L 357.15 293.97 L 357.21 293.96 L 357.29 293.85 L 357.87 293.84 L 357.88 293.84 L 358.03 293.82 L 358.70 293.82 L 359.15 293.67 L 359.47 293.54 L 359.48 293.54 L 359.51 293.54 L 369.31 293.54 L 369.34 293.54 L 369.45 293.54 L 369.51 293.54 L 369.54 293.52 L 369.55 293.52 L 369.96 293.52 L 370.06 293.51 L 370.18 293.49 L 370.39 293.47 L 370.53 293.47 L 370.69 293.40 L 370.79 293.40 L 370.83 293.40 L 370.88 293.40 L 371.00 293.12 L 371.02 293.12 L 371.06 293.12 L 371.17 293.12 L 371.24 293.12 L 371.33 293.19 L 371.44 293.19 L 371.69 293.17 L 371.79 293.17 L 371.88 293.17 L 372.49 292.28 L 373.00 292.04 L 373.62 291.41 L 373.78 291.41 L 373.95 291.41 L 374.15 291.41 L 377.75 291.33 L 378.05 291.32 L 412.19 291.21 L 519.69 291.04 L 520.05 290.99 L 520.29 290.99 L 520.54 290.99 L 520.91 290.57 L 521.04 290.57 L 521.14 290.57 L 521.31 289.08 L 521.56 289.36 L 521.76 289.34 L 521.81 289.34 L 521.97 289.33 L 522.01 289.33 L 522.19 289.33 L 522.34 289.26 L 522.83 288.31 L 522.85 288.31 L 522.99 288.23 L 523.45 285.17 L 523.46 285.17 L 523.55 285.17 L 523.66 285.12 L 524.16 283.69 L 524.17 283.69 L 524.28 283.69 L 524.40 283.66 L 524.59 283.14 L 524.60 283.14 L 524.68 283.13 L 524.69 283.13 L 524.74 282.84 L 524.95 280.82 L 524.98 280.82 L 525.05 280.82 L 525.28 280.65 L 525.32 280.65 L 525.50 280.32 L 525.80 280.32 L 525.85 280.32 L 525.89 280.32 L 525.94 280.32 L 526.09 280.31 L 526.25 279.39 L 526.27 279.39 L 526.36 279.39 L 526.45 278.70 L 526.47 278.70 L 526.57 277.97 L 526.61 277.92 L 526.79 277.20 L 526.82 277.20 L 526.91 277.20 L 527.04 277.18 L 527.81 277.18 L 528.20 277.18 L 536.60 277.18 L 536.68 277.18 L 536.76 277.18 L 536.91 277.18 L 537.22 276.99 L 537.25 276.99 L 537.31 276.93 L 537.51 275.91 L 537.53 275.91 L 539.36 275.93 L 539.47 275.74 L 540.40 275.74 L 540.50 275.73 L 540.61 275.66 L 541.72 274.82 L 542.20 274.67 L 542.31 274.61 L 542.71 273.03 L 542.96 273.03 L 543.38 272.90 L 544.11 272.90 L 555.35 272.89 L 556.03 272.80 L 556.06 272.82 L 557.00 272.82 L 557.04 272.82 L 557.37 272.82 L 557.76 272.78 L 557.76 272.78 L 557.80 272.78 L 558.30 271.86 L 559.45 271.84 L 559.53 271.84 L 559.65 271.83 L 559.82 271.80 L 559.87 271.77 L 559.94 271.77 L 560.48 271.72 L 560.91 271.72 L 561.14 271.72 L 561.17 271.72 L 561.65 271.70 L 562.02 271.60 L 562.04 271.60 L 562.08 271.60 L 562.13 271.60 L 574.33 271.38 L 574.35 271.38 L 574.39 271.38 L 574.63 271.38 L 574.81 271.38 L 575.89 270.47 L 576.15 270.41 L 576.93 270.34 L 577.59 270.29 L 578.09 270.29 L 578.23 270.29 L 578.84 268.92 L 579.07 268.88 L 579.15 268.83 L 580.96 267.86 L 580.97 267.86 L 581.07 267.85 L 581.42 267.84 L 581.42 267.84 L 581.44 267.84 L 581.50 267.81 L 581.66 267.77 L 581.85 267.66 L 583.72 266.06 L 583.97 265.98 L 584.14 265.98 L 584.16 265.98 L 584.20 265.98 L 592.51 265.98 L 592.77 265.97 L 592.93 265.97 L 592.99 265.97 L 593.77 265.97 L 593.94 265.97 L 594.08 265.97 L 594.17 265.94 L 594.43 263.84 L 594.47 263.83 L 594.83 263.84 L 594.90 263.82 L 595.20 263.01 L 595.27 262.97 L 595.51 262.44 L 595.70 262.44 L 595.84 262.39 L 596.15 261.90 L 596.18 261.90 L 596.58 260.34 L 596.62 260.34 L 596.69 260.33 L 596.77 260.33 L 596.81 260.33 L 597.27 258.77 L 597.94 258.63 L 598.28 258.63 L 599.38 258.59 L 599.40 258.59 L 599.58 258.59 L 599.65 258.59 L 599.77 258.59 L 599.91 258.59 L 600.06 258.57 L 600.38 258.55 L 600.70 258.55 L 601.68 258.48 L 601.73 258.48 L 602.71 258.44 L 603.14 258.40 L 611.54 258.42 L 611.96 258.34 L 612.17 258.26 L 612.27 258.26 L 612.29 258.26 L 612.50 258.25 L 612.60 258.25 L 612.85 258.25 L 613.00 258.24 L 613.54 258.10 L 613.83 257.82 L 614.30 257.80 L 614.43 257.61 L 614.59 257.53 L 614.80 257.44 L 615.53 257.53 L 615.60 257.53 L 616.66 257.23 L 616.82 257.23 L 617.03 257.23 L 617.55 257.21 L 617.78 257.35 L 617.91 257.35 L 618.01 257.35 L 618.15 257.35 L 618.60 256.67 L 619.08 256.66 L 619.50 256.66 L 619.55 256.66 L 619.60 256.66 L 650.00 256.66"/>
	</g>
	<g id="poloto_plot2" class="poloto_plot poloto_imgs poloto_line poloto2 poloto_stroke" fill="none" stroke="black">
		<path d=" M 150.00 391.85 L 150.03 391.85 L 150.04 391.85 L 150.05 391.85 L 150.07 391.85 L 150.10 389.76 L 150.22 389.48 L 150.48 389.47 L 150.87 389.46 L 151.07 388.21 L 151.47 388.10 L 151.54 388.06 L 151.59 388.03 L 152.05 387.47 L 152.92 387.04 L 153.20 386.95 L 153.27 386.96 L 153.79 386.92 L 154.39 386.92 L 154.40 386.92 L 154.40 386.92 L 162.56 386.92 L 162.62 386.92 L 162.72 386.90 L 162.77 386.90 L 163.08 386.78 L 163.22 386.74 L 163.56 386.54 L 163.61 386.45 L 163.71 386.26 L 163.82 386.24 L 163.85 386.24 L 163.93 386.20 L 164.02 386.20 L 164.11 386.20 L 164.34 386.00 L 164.54 385.80 L 164.58 385.80 L 164.67 385.69 L 165.32 385.44 L 165.33 385.44 L 165.42 385.36 L 165.79 385.08 L 166.08 384.74 L 166.42 384.60 L 166.49 384.60 L 166.50 384.61 L 166.56 384.42 L 166.69 384.42 L 166.85 384.39 L 167.17 384.25 L 167.19 384.01 L 167.25 384.01 L 167.32 383.89 L 167.51 383.89 L 167.53 383.89 L 167.72 383.52 L 167.79 383.50 L 167.86 383.47 L 167.94 383.30 L 168.93 383.20 L 169.17 383.16 L 169.73 382.91 L 169.84 382.91 L 169.93 382.90 L 169.98 382.71 L 170.36 381.69 L 170.53 381.67 L 170.72 381.37 L 170.82 381.34 L 171.05 381.20 L 171.15 381.15 L 171.29 380.93 L 171.41 380.75 L 171.85 380.75 L 171.86 380.73 L 171.89 380.58 L 172.04 379.60 L 179.60 379.50 L 180.38 379.20 L 180.41 379.16 L 181.34 378.92 L 181.42 378.91 L 181.50 378.73 L 181.73 378.61 L 181.83 378.38 L 181.87 378.19 L 181.99 377.83 L 182.26 377.82 L 182.27 377.82 L 182.37 377.56 L 182.47 377.56 L 182.59 377.29 L 182.74 377.08 L 182.79 376.97 L 182.82 376.96 L 182.95 376.72 L 182.97 376.71 L 183.11 376.48 L 183.13 376.48 L 183.35 376.40 L 183.39 376.40 L 183.46 376.31 L 183.55 376.30 L 183.68 376.30 L 183.73 376.28 L 184.16 376.06 L 184.17 376.07 L 184.25 375.62 L 184.44 375.61 L 184.61 375.47 L 184.66 375.47 L 184.74 375.47 L 184.78 375.43 L 184.88 374.82 L 185.35 374.31 L 185.40 374.03 L 185.56 374.01 L 185.61 373.94 L 185.65 373.92 L 185.73 373.79 L 185.80 373.31 L 185.97 373.24 L 186.09 373.23 L 186.18 372.98 L 186.24 372.98 L 186.66 372.80 L 186.90 372.67 L 186.97 372.56 L 187.16 372.55 L 187.18 372.55 L 187.20 372.52 L 187.33 371.65 L 187.43 371.65 L 187.78 371.52 L 187.84 371.17 L 187.90 371.17 L 188.00 371.02 L 188.01 370.94 L 188.05 370.88 L 188.08 370.85 L 188.13 370.84 L 188.18 370.78 L 188.32 369.80 L 188.42 369.70 L 188.52 369.40 L 188.65 369.38 L 188.81 369.29 L 188.96 368.98 L 189.07 368.13 L 189.29 368.07 L 189.29 367.70 L 189.42 367.61 L 199.98 367.62 L 200.19 367.62 L 200.68 367.21 L 200.79 367.21 L 200.87 367.21 L 200.89 367.11 L 201.07 366.94 L 201.19 366.91 L 201.26 366.80 L 201.34 366.73 L 201.38 366.69 L 201.57 366.64 L 201.95 366.72 L 202.05 366.45 L 202.12 366.38 L 202.21 366.37 L 202.70 366.32 L 202.77 366.27 L 202.80 366.27 L 202.83 366.22 L 202.94 366.17 L 203.02 366.07 L 203.38 365.82 L 203.89 365.71 L 204.07 365.67 L 204.64 365.50 L 204.91 365.11 L 205.00 365.04 L 205.12 364.73 L 205.28 364.33 L 205.54 364.23 L 205.90 364.22 L 206.38 364.20 L 206.45 364.05 L 206.80 363.96 L 207.02 363.83 L 207.10 363.73 L 207.23 363.69 L 207.34 363.42 L 208.59 363.29 L 209.78 363.29 L 220.41 363.26 L 220.49 363.12 L 220.54 363.02 L 220.87 362.87 L 221.87 362.61 L 221.91 362.57 L 222.05 362.38 L 222.54 362.31 L 222.77 361.79 L 223.12 361.78 L 223.20 361.76 L 223.28 361.25 L 223.90 360.78 L 223.97 360.78 L 224.10 360.75 L 224.24 360.70 L 224.30 360.53 L 224.64 359.74 L 224.77 359.54 L 224.82 359.52 L 224.90 359.44 L 225.06 359.13 L 225.12 358.34 L 225.27 358.02 L 225.73 357.83 L 225.78 357.43 L 225.82 357.43 L 225.89 357.36 L 226.01 357.25 L 226.05 357.22 L 226.10 357.19 L 226.32 356.27 L 226.37 355.72 L 226.64 355.62 L 226.80 354.70 L 226.90 354.52 L 227.73 353.08 L 227.82 353.05 L 259.07 352.63 L 259.10 352.63 L 271.05 352.51 L 271.70 352.36 L 271.83 352.36 L 272.01 352.28 L 272.06 352.17 L 272.14 352.14 L 277.32 352.13 L 278.00 350.47 L 278.25 350.32 L 278.39 349.75 L 281.61 349.68 L 281.63 349.63 L 281.84 349.61 L 282.80 349.51 L 282.86 349.32 L 282.98 349.25 L 283.32 349.17 L 283.36 349.15 L 283.50 348.82 L 283.64 348.73 L 283.66 348.48 L 293.70 348.17 L 293.78 347.41 L 294.18 347.22 L 294.18 346.93 L 294.25 346.70 L 294.34 346.36 L 294.45 345.44 L 294.62 344.94 L 294.76 344.30 L 294.89 344.29 L 294.94 343.79 L 295.15 343.76 L 295.84 343.29 L 296.12 343.06 L 296.17 342.93 L 296.23 342.93 L 296.26 342.76 L 296.36 342.20 L 296.64 342.14 L 296.68 342.14 L 296.86 341.77 L 296.92 341.77 L 296.95 341.56 L 297.01 341.42 L 297.06 341.42 L 297.09 341.12 L 297.31 340.95 L 297.41 340.66 L 297.53 340.64 L 297.62 340.49 L 297.65 340.26 L 297.87 340.14 L 297.93 340.01 L 297.98 340.01 L 298.03 340.01 L 298.07 339.78 L 298.10 339.79 L 298.11 339.78 L 298.22 339.70 L 298.26 339.45 L 298.37 339.45 L 298.45 339.39 L 298.67 339.37 L 298.95 339.34 L 298.96 339.34 L 299.03 339.32 L 299.29 339.32 L 299.41 339.32 L 299.53 339.32 L 299.67 339.28 L 299.75 338.98 L 300.11 338.98 L 300.14 338.80 L 300.18 338.79 L 300.21 338.59 L 300.44 338.52 L 300.48 338.47 L 300.65 338.47 L 316.10 338.42 L 316.98 338.33 L 317.00 338.33 L 317.18 338.33 L 317.19 338.33 L 317.31 337.97 L 317.39 337.96 L 317.47 337.86 L 317.57 337.81 L 317.60 337.78 L 317.64 337.76 L 317.81 337.72 L 318.14 337.65 L 318.36 337.17 L 318.59 337.15 L 318.60 337.12 L 318.64 336.71 L 318.67 336.71 L 319.13 336.71 L 319.14 336.67 L 319.21 336.30 L 319.41 336.25 L 319.54 336.24 L 319.56 336.23 L 319.57 336.19 L 319.63 336.16 L 319.66 335.78 L 319.68 335.77 L 319.79 335.77 L 319.80 335.74 L 320.04 335.70 L 320.70 335.69 L 320.86 335.66 L 320.91 335.65 L 320.94 335.53 L 320.98 335.53 L 321.07 335.10 L 331.63 334.97 L 331.65 334.84 L 331.73 334.76 L 331.76 334.74 L 331.82 334.38 L 331.94 334.29 L 331.95 334.27 L 332.14 334.27 L 332.19 334.27 L 332.22 333.90 L 332.39 333.86 L 332.85 333.85 L 332.86 333.83 L 332.98 333.63 L 333.02 333.63 L 333.05 333.30 L 333.43 333.30 L 333.44 333.28 L 334.02 333.20 L 334.09 332.80 L 334.29 332.80 L 334.53 332.79 L 334.59 332.50 L 334.63 332.27 L 334.74 332.26 L 335.04 332.21 L 335.09 332.19 L 335.22 332.10 L 335.37 332.10 L 335.81 332.10 L 335.86 332.10 L 335.96 332.08 L 335.97 332.08 L 336.12 332.08 L 336.45 332.05 L 336.80 332.01 L 336.85 332.01 L 336.92 331.97 L 337.02 331.86 L 337.29 331.86 L 337.74 331.73 L 337.88 331.51 L 338.12 331.48 L 339.09 331.24 L 339.30 331.24 L 339.46 331.23 L 339.70 331.22 L 339.78 331.21 L 340.02 331.08 L 340.40 331.07 L 340.45 330.96 L 340.53 330.90 L 340.57 330.92 L 340.61 330.88 L 340.91 330.86 L 347.91 330.85 L 347.97 330.85 L 348.41 330.85 L 348.45 330.84 L 348.55 330.50 L 348.63 330.49 L 348.64 330.49 L 348.88 330.48 L 348.94 330.46 L 350.37 329.97 L 350.54 329.92 L 350.66 329.91 L 350.69 329.91 L 351.13 329.89 L 351.29 329.96 L 351.31 329.96 L 351.55 329.93 L 351.81 329.46 L 351.84 329.45 L 352.06 329.44 L 352.15 329.44 L 352.23 329.44 L 352.42 329.34 L 352.80 328.91 L 352.88 328.91 L 352.95 328.85 L 353.11 328.47 L 353.49 328.04 L 353.84 328.07 L 353.90 327.84 L 354.26 327.84 L 354.32 327.81 L 354.37 327.79 L 354.41 327.56 L 354.53 327.56 L 354.56 327.56 L 354.61 327.56 L 354.81 327.56 L 355.12 327.38 L 355.31 327.36 L 355.52 327.36 L 355.62 327.36 L 355.84 327.36 L 356.19 327.36 L 356.54 327.36 L 356.81 327.36 L 356.87 327.35 L 356.94 327.34 L 356.94 327.27 L 357.15 327.21 L 357.21 327.21 L 357.29 327.20 L 357.87 327.19 L 357.88 326.97 L 358.03 326.97 L 358.70 326.98 L 359.15 326.97 L 359.47 326.93 L 359.48 326.84 L 359.51 326.84 L 369.31 326.69 L 369.34 326.68 L 369.45 326.67 L 369.51 326.54 L 369.54 326.54 L 369.55 326.53 L 369.96 326.49 L 370.06 326.04 L 370.18 325.94 L 370.39 325.06 L 370.53 325.05 L 370.69 324.67 L 370.79 324.71 L 370.83 324.71 L 370.88 324.23 L 371.00 324.14 L 371.02 323.81 L 371.06 323.76 L 371.17 323.73 L 371.24 323.56 L 371.33 325.55 L 371.44 325.52 L 371.69 324.72 L 371.79 324.54 L 371.88 324.37 L 372.49 324.05 L 373.00 323.72 L 373.62 323.25 L 373.78 323.20 L 373.95 323.20 L 374.15 323.16 L 377.75 322.92 L 378.05 322.90 L 412.19 322.28 L 519.69 322.26 L 520.05 321.98 L 520.29 321.94 L 520.54 321.94 L 520.91 321.68 L 521.04 321.39 L 521.14 320.85 L 521.31 320.70 L 521.56 320.75 L 521.76 320.43 L 521.81 320.43 L 521.97 320.33 L 522.01 320.33 L 522.19 319.80 L 522.34 318.99 L 522.83 318.91 L 522.85 318.83 L 522.99 317.78 L 523.45 317.74 L 523.46 317.64 L 523.55 317.57 L 523.66 316.62 L 524.16 316.57 L 524.17 316.44 L 524.28 316.37 L 524.40 315.75 L 524.59 315.73 L 524.60 315.63 L 524.68 314.59 L 524.69 314.56 L 524.74 314.53 L 524.95 314.53 L 524.98 314.42 L 525.05 314.35 L 525.28 314.25 L 525.32 314.25 L 525.50 314.19 L 525.80 314.23 L 525.85 314.18 L 525.89 314.16 L 525.94 314.13 L 526.09 313.05 L 526.25 313.03 L 526.27 312.94 L 526.36 311.83 L 526.45 311.44 L 526.47 311.29 L 526.57 310.75 L 526.61 309.82 L 526.79 309.81 L 526.82 309.75 L 526.91 309.56 L 527.04 309.56 L 527.81 309.53 L 528.20 309.50 L 536.60 309.55 L 536.68 309.33 L 536.76 309.18 L 536.91 308.43 L 537.22 308.42 L 537.25 308.35 L 537.31 307.40 L 537.51 307.40 L 537.53 307.31 L 539.36 307.21 L 539.47 306.87 L 540.40 306.71 L 540.50 306.67 L 540.61 305.63 L 541.72 305.33 L 542.20 305.08 L 542.31 304.29 L 542.71 304.29 L 542.96 303.85 L 543.38 303.18 L 544.11 302.77 L 555.35 302.77 L 556.03 302.75 L 556.06 302.75 L 557.00 302.60 L 557.04 302.52 L 557.37 302.46 L 557.76 301.58 L 557.76 301.58 L 557.80 301.54 L 558.30 301.36 L 559.45 300.77 L 559.53 300.71 L 559.65 300.71 L 559.82 300.46 L 559.87 300.42 L 559.94 300.38 L 560.48 300.37 L 560.91 300.37 L 561.14 300.37 L 561.17 300.34 L 561.65 299.44 L 562.02 299.36 L 562.04 299.29 L 562.08 299.21 L 562.13 298.99 L 574.33 298.82 L 574.35 298.80 L 574.39 298.78 L 574.63 298.68 L 574.81 298.56 L 575.89 298.06 L 576.15 297.96 L 576.93 297.58 L 577.59 297.52 L 578.09 297.36 L 578.23 296.05 L 578.84 295.83 L 579.07 295.76 L 579.15 294.82 L 580.96 293.91 L 580.97 293.91 L 581.07 293.49 L 581.42 293.45 L 581.42 293.45 L 581.44 293.34 L 581.50 293.23 L 581.66 293.13 L 581.85 292.48 L 583.72 292.15 L 583.97 292.00 L 584.14 291.64 L 584.16 291.61 L 584.20 291.38 L 592.51 290.55 L 592.77 289.95 L 592.93 289.93 L 592.99 289.53 L 593.77 289.37 L 593.94 288.94 L 594.08 288.94 L 594.17 288.06 L 594.43 287.85 L 594.47 287.82 L 594.83 287.77 L 594.90 287.05 L 595.20 286.96 L 595.27 286.39 L 595.51 286.33 L 595.70 286.00 L 595.84 285.36 L 596.15 285.24 L 596.18 284.59 L 596.58 286.06 L 596.62 286.06 L 596.69 285.22 L 596.77 285.22 L 596.81 285.16 L 597.27 285.08 L 597.94 284.73 L 598.28 284.91 L 599.38 284.88 L 599.40 284.88 L 599.58 284.86 L 599.65 284.85 L 599.77 284.73 L 599.91 284.63 L 600.06 284.48 L 600.38 284.26 L 600.70 284.25 L 601.68 284.15 L 601.73 284.14 L 602.71 284.03 L 603.14 283.97 L 611.54 283.93 L 611.96 283.89 L 612.17 283.89 L 612.27 283.89 L 612.29 283.89 L 612.50 283.87 L 612.60 283.84 L 612.85 283.69 L 613.00 283.66 L 613.54 283.65 L 613.83 283.58 L 614.30 283.54 L 614.43 283.51 L 614.59 283.44 L 614.80 283.34 L 615.53 283.31 L 615.60 283.29 L 616.66 283.13 L 616.82 282.87 L 617.03 282.78 L 617.55 282.62 L 617.78 282.54 L 617.91 282.90 L 618.01 282.89 L 618.15 282.75 L 618.60 282.41 L 619.08 282.32 L 619.50 282.25 L 619.55 282.21 L 619.60 281.95 L 650.00 281.91"/>
	</g>
	<g class="poloto_legend poloto_imgs poloto_line poloto0 poloto_stroke"><line x1="680" x2="730" y1="81.25" y2="81.25"/></g>
	<g class="poloto_legend poloto_imgs poloto_line poloto1 poloto_stroke"><line x1="680" x2="730" y1="131.25" y2="131.25"/></g>
	<g class="poloto_legend poloto_imgs poloto_line poloto2 poloto_stroke"><line x1="680" x2="730" y1="181.25" y2="181.25"/></g>
	<text class="poloto_legend poloto_text poloto_line poloto0" x="675" y="100">total</text>
	<text class="poloto_legend poloto_text poloto_line poloto1" x="675" y="150">code</text>
	<text class="poloto_legend poloto_text poloto_line poloto2" x="675" y="200">docs</text>
	<text class="poloto_text poloto_name poloto_title" x="400.00" y="37.50">Workspace lines over time</text>
	<text class="poloto_text poloto_name poloto_x" x="400.00" y="640">date (JST)</text>
	<text class="poloto_text poloto_name poloto_y" x="37.50" y="250.00" transform="rotate(-90,37.50,250.00)">lines</text>
	<text class="poloto_text poloto_ticks poloto_y">
		<tspan x="135.00" y="400.00">0</tspan>
		<tspan x="135.00" y="322.55">50K</tspan>
		<tspan x="135.00" y="245.10">100K</tspan>
		<tspan x="135.00" y="167.65">150K</tspan>
	</text>
	<g class="poloto_imgs poloto_ticks poloto_y" stroke="black">
		<line x1="150.00" x2="144.00" y1="400.00" y2="400.00"/>
		<line x1="150.00" x2="144.00" y1="322.55" y2="322.55"/>
		<line x1="150.00" x2="144.00" y1="245.10" y2="245.10"/>
		<line x1="150.00" x2="144.00" y1="167.65" y2="167.65"/>
	</g>
	<g class="poloto_text poloto_ticks poloto_x">
		<text x="220.28" y="430.00" text-anchor="end" transform="rotate(-90 220.28 430.00)">2026-04-24 12:06</text>
		<text x="328.45" y="430.00" text-anchor="end" transform="rotate(-90 328.45 430.00)">2026-04-30 07:00</text>
		<text x="436.63" y="430.00" text-anchor="end" transform="rotate(-90 436.63 430.00)">2026-05-06 01:53</text>
		<text x="544.81" y="430.00" text-anchor="end" transform="rotate(-90 544.81 430.00)">2026-05-11 20:46</text>
	</g>
	<g class="poloto_imgs poloto_ticks poloto_x" stroke="black">
		<line x1="220.28" x2="220.28" y1="400.00" y2="405.00"/>
		<line x1="328.45" x2="328.45" y1="400.00" y2="405.00"/>
		<line x1="436.63" x2="436.63" y1="400.00" y2="405.00"/>
		<line x1="544.81" x2="544.81" y1="400.00" y2="405.00"/>
	</g>
	<path class="poloto_imgs poloto_ticks poloto_x" stroke="black" style="stroke-dasharray:10.817640542785933;stroke-dashoffset:-70.27636908058776;" d=" M 150.00 400.00 L 650.00 400.00"/>
	<path class="poloto_imgs poloto_ticks poloto_y" stroke="black" style="stroke-dasharray:7.74493352265393;stroke-dashoffset:-0;" d=" M 150.00 400.00 L 150.00 100.00"/>
</svg>

