<svg class="poloto" width="800" height="680" viewBox="0 0 800 680" xmlns="http://www.w3.org/2000/svg">
	<style>
.poloto{
  stroke-linecap:round;
  stroke-linejoin:round;
  font-family:Roboto,sans-serif;
  font-size:16px;
}
.poloto_background{fill:AliceBlue;}
.poloto_scatter{stroke-width:7}
.poloto_line{stroke-width:2}
.poloto_text{fill: black;}
.poloto_name{font-size:24px;dominant-baseline:auto;text-anchor:middle;}
.poloto_where{dominant-baseline:middle;text-anchor:start}
.poloto_text.poloto_legend{font-size:20px;dominant-baseline:middle;text-anchor:start;}
.poloto_text.poloto_ticks.poloto_y{dominant-baseline:middle;text-anchor:end}
.poloto_text.poloto_ticks.poloto_x{dominant-baseline:auto;text-anchor:middle}
.poloto_imgs.poloto_ticks{stroke: black;stroke-width:3;fill:none;stroke-dasharray:none}
.poloto_grid{stroke:gray;stroke-width:0.5}

.poloto0.poloto_stroke{stroke:blue;}
.poloto1.poloto_stroke{stroke:red;}
.poloto2.poloto_stroke{stroke:green;}
.poloto3.poloto_stroke{stroke:gold;}
.poloto4.poloto_stroke{stroke:aqua;}
.poloto5.poloto_stroke{stroke:lime;}
.poloto6.poloto_stroke{stroke:orange;}
.poloto7.poloto_stroke{stroke:chocolate;}
.poloto0.poloto_fill{fill:blue;}
.poloto1.poloto_fill{fill:red;}
.poloto2.poloto_fill{fill:green;}
.poloto3.poloto_fill{fill:gold;}
.poloto4.poloto_fill{fill:aqua;}
.poloto5.poloto_fill{fill:lime;}
.poloto6.poloto_fill{fill:orange;}
.poloto7.poloto_fill{fill:chocolate;}
	</style>
	<circle r="1e5" class="poloto_background" fill="white"/>
	<g id="poloto_plot0" class="poloto_plot poloto_imgs poloto_line poloto0 poloto_stroke" fill="none" stroke="black">
		<path d=" M 150.00 372.36 L 150.02 372.34 L 150.04 372.33 L 150.04 372.33 L 150.07 372.33 L 150.09 369.33 L 150.19 368.96 L 150.42 368.95 L 150.76 368.70 L 150.93 367.18 L 151.28 367.08 L 151.34 367.00 L 151.38 366.97 L 151.79 366.23 L 152.54 365.62 L 152.78 363.26 L 152.84 363.27 L 153.30 363.17 L 153.83 363.17 L 153.83 363.17 L 153.83 363.17 L 160.94 363.17 L 160.99 363.16 L 161.08 363.14 L 161.12 363.11 L 161.39 362.98 L 161.51 362.94 L 161.81 362.72 L 161.85 362.63 L 161.94 362.42 L 162.03 362.38 L 162.05 362.38 L 162.13 362.32 L 162.21 362.32 L 162.28 362.33 L 162.48 361.98 L 162.66 361.76 L 162.69 361.76 L 162.77 361.64 L 163.34 362.17 L 163.35 362.17 L 163.42 362.08 L 163.74 361.68 L 164.00 361.20 L 164.29 360.99 L 164.35 360.95 L 164.36 360.95 L 164.42 360.77 L 164.53 360.77 L 164.67 360.70 L 164.95 360.52 L 164.96 360.24 L 165.01 360.24 L 165.08 360.09 L 165.24 360.09 L 165.26 360.09 L 165.43 359.69 L 165.49 359.67 L 165.55 359.63 L 165.62 359.47 L 166.48 359.25 L 166.69 359.21 L 167.17 358.93 L 167.27 358.93 L 167.35 358.91 L 167.39 358.71 L 167.72 357.52 L 167.87 357.50 L 168.04 357.10 L 168.12 357.06 L 168.32 356.73 L 168.41 356.61 L 168.53 356.40 L 168.64 356.21 L 169.02 353.47 L 169.03 353.40 L 169.05 353.24 L 169.18 351.92 L 175.77 351.82 L 176.45 350.32 L 176.47 350.28 L 177.28 350.05 L 177.35 350.04 L 177.42 349.74 L 177.62 349.59 L 177.71 349.34 L 177.74 349.11 L 177.84 348.72 L 178.08 348.71 L 178.09 348.45 L 178.18 348.15 L 178.27 348.15 L 178.37 347.82 L 178.50 347.58 L 178.55 347.46 L 178.57 347.46 L 178.68 347.20 L 178.70 347.19 L 178.82 346.94 L 178.84 346.93 L 179.03 345.69 L 179.06 345.69 L 179.13 345.48 L 179.21 345.47 L 179.32 345.47 L 179.37 345.44 L 179.73 345.21 L 179.74 345.22 L 179.81 344.67 L 179.98 344.66 L 180.13 343.83 L 180.17 343.76 L 180.24 343.75 L 180.28 343.72 L 180.36 343.08 L 180.77 337.70 L 180.82 337.44 L 180.96 337.41 L 181.00 337.35 L 181.03 337.33 L 181.10 337.19 L 181.17 336.58 L 181.31 336.45 L 181.41 336.44 L 181.50 336.17 L 181.54 336.16 L 181.92 335.96 L 182.12 335.81 L 182.18 335.57 L 182.35 335.56 L 182.37 335.56 L 182.39 335.54 L 182.49 334.24 L 182.58 334.17 L 182.89 332.86 L 182.94 332.48 L 183.00 332.47 L 183.08 332.33 L 183.08 332.23 L 183.12 332.17 L 183.15 332.13 L 183.19 332.13 L 183.23 332.06 L 183.35 331.00 L 183.44 330.84 L 183.53 330.53 L 183.65 330.50 L 183.78 330.40 L 183.91 329.65 L 184.01 328.60 L 184.20 328.54 L 184.20 328.15 L 184.32 328.02 L 193.51 328.03 L 193.69 328.01 L 194.12 327.46 L 194.21 327.45 L 194.28 327.45 L 194.30 327.31 L 194.46 327.14 L 194.56 327.11 L 194.63 327.00 L 194.69 326.93 L 194.73 326.89 L 194.89 326.84 L 195.23 326.78 L 195.31 326.49 L 195.37 326.42 L 195.45 326.41 L 195.88 326.27 L 195.94 326.18 L 195.97 326.18 L 195.99 326.08 L 196.09 326.03 L 196.16 325.93 L 196.47 325.22 L 196.91 325.11 L 197.07 325.07 L 197.56 324.89 L 197.80 321.51 L 197.88 321.44 L 197.98 321.10 L 198.13 320.66 L 198.35 320.53 L 198.66 320.52 L 199.08 320.51 L 199.14 320.36 L 199.44 320.20 L 199.64 319.96 L 199.70 319.86 L 199.82 319.82 L 199.91 319.52 L 201.00 319.19 L 202.04 319.19 L 211.29 319.16 L 211.36 319.01 L 211.41 318.92 L 211.70 318.77 L 212.56 317.60 L 212.60 317.53 L 212.72 317.23 L 213.15 317.15 L 213.35 316.36 L 213.65 316.35 L 213.72 316.34 L 213.79 315.80 L 214.33 312.72 L 214.39 312.72 L 214.51 312.69 L 214.63 312.65 L 214.68 312.32 L 214.98 311.16 L 215.09 310.94 L 215.14 310.93 L 215.20 310.39 L 215.34 309.64 L 215.39 308.84 L 215.53 308.48 L 215.93 304.48 L 215.97 304.07 L 216.01 304.07 L 216.07 304.00 L 216.17 303.90 L 216.21 303.86 L 216.24 303.82 L 216.44 302.86 L 216.48 302.18 L 216.72 302.05 L 216.86 301.04 L 216.94 300.41 L 217.66 291.08 L 217.75 291.05 L 244.95 290.61 L 244.98 290.61 L 255.38 290.48 L 255.94 290.22 L 256.06 290.22 L 256.21 290.15 L 256.26 290.03 L 256.32 290.00 L 260.83 289.94 L 261.43 288.16 L 261.65 288.00 L 261.77 287.35 L 264.57 287.22 L 264.59 287.04 L 264.77 287.02 L 265.61 285.90 L 265.66 285.70 L 265.76 285.63 L 266.06 285.55 L 266.09 285.52 L 266.21 285.19 L 266.34 285.09 L 266.36 284.85 L 275.10 284.50 L 275.16 283.55 L 275.51 283.34 L 275.52 281.74 L 275.58 281.50 L 275.65 281.11 L 275.75 280.00 L 275.89 279.42 L 276.02 278.73 L 276.13 278.73 L 276.18 278.20 L 276.35 278.16 L 276.96 275.58 L 277.20 275.31 L 277.24 275.14 L 277.29 275.14 L 277.33 274.96 L 277.41 274.33 L 277.65 274.02 L 277.69 273.98 L 277.84 271.72 L 277.90 271.71 L 277.92 271.47 L 277.98 271.28 L 278.02 271.28 L 278.05 270.94 L 278.24 269.71 L 278.33 269.36 L 278.43 269.32 L 278.51 266.04 L 278.54 265.77 L 278.73 263.90 L 278.78 263.75 L 278.82 263.75 L 278.87 263.75 L 278.90 263.48 L 278.92 263.49 L 278.93 263.49 L 279.03 260.17 L 279.06 259.89 L 279.16 259.87 L 279.23 259.81 L 279.42 259.72 L 279.66 259.59 L 279.67 259.59 L 279.74 259.55 L 279.96 259.49 L 280.07 259.49 L 280.17 259.49 L 280.29 258.05 L 280.36 257.70 L 280.67 257.69 L 280.70 257.47 L 280.74 257.46 L 280.76 257.22 L 280.97 255.13 L 281.00 255.08 L 281.15 255.07 L 294.59 255.01 L 295.36 254.90 L 295.38 254.90 L 295.53 254.90 L 295.55 254.90 L 295.64 254.48 L 295.72 254.47 L 295.78 254.26 L 295.88 254.21 L 295.90 254.18 L 295.94 254.17 L 296.08 253.93 L 296.37 253.73 L 296.56 253.05 L 296.76 252.42 L 296.77 252.38 L 296.81 251.78 L 296.83 251.76 L 297.23 251.41 L 297.24 251.37 L 297.30 250.90 L 297.48 250.84 L 297.59 250.80 L 297.61 249.95 L 297.62 249.91 L 297.66 250.71 L 297.69 250.22 L 297.71 250.20 L 297.81 249.07 L 297.82 249.04 L 298.03 248.94 L 298.60 248.93 L 298.74 248.89 L 298.78 248.88 L 298.81 248.73 L 298.84 248.73 L 298.92 248.17 L 308.11 247.09 L 308.13 246.94 L 308.21 246.84 L 308.23 246.63 L 308.28 237.19 L 308.38 233.32 L 308.39 233.30 L 308.56 233.23 L 308.60 233.23 L 308.63 232.78 L 308.78 232.74 L 309.18 231.82 L 309.19 231.80 L 309.29 231.52 L 309.33 231.53 L 309.35 231.07 L 309.68 230.54 L 309.69 230.52 L 310.19 230.31 L 310.25 229.83 L 310.43 229.83 L 310.64 228.61 L 310.69 228.14 L 310.73 227.75 L 310.82 227.28 L 311.08 227.11 L 311.13 226.99 L 311.24 226.89 L 311.37 226.89 L 311.75 226.89 L 311.80 226.89 L 311.89 226.87 L 311.89 226.86 L 312.02 226.88 L 312.31 226.85 L 312.61 226.68 L 312.66 226.67 L 312.72 226.60 L 312.81 226.47 L 313.04 226.47 L 313.43 226.30 L 313.55 225.93 L 313.77 222.67 L 314.61 225.42 L 314.80 225.41 L 314.93 225.40 L 315.14 225.39 L 315.21 225.34 L 315.42 225.19 L 315.75 224.96 L 315.80 224.81 L 315.86 224.75 L 315.90 224.77 L 315.93 224.72 L 316.19 224.52 L 322.28 224.51 L 322.34 224.52 L 322.72 224.50 L 322.76 224.49 L 322.84 224.08 L 322.91 223.84 L 322.92 223.84 L 323.13 223.80 L 323.18 223.78 L 324.43 223.17 L 324.57 223.12 L 324.68 223.11 L 324.71 223.10 L 325.09 222.96 L 325.22 223.03 L 325.25 223.03 L 325.46 222.99 L 325.68 221.70 L 325.71 221.69 L 325.90 221.54 L 325.98 221.54 L 326.05 221.54 L 326.21 221.40 L 326.55 220.88 L 326.61 220.86 L 326.67 220.72 L 326.81 220.10 L 327.15 219.47 L 327.44 216.47 L 327.50 216.11 L 327.81 215.96 L 327.86 215.89 L 327.91 215.74 L 327.94 215.26 L 328.05 214.40 L 328.07 214.43 L 328.12 214.42 L 328.30 214.41 L 328.56 214.10 L 328.72 214.04 L 328.91 214.02 L 329.00 214.01 L 329.19 214.00 L 329.49 214.00 L 329.80 213.99 L 330.03 213.99 L 330.09 213.98 L 330.15 213.97 L 330.15 213.87 L 330.33 213.81 L 330.38 213.79 L 330.45 213.66 L 330.95 213.64 L 330.96 213.39 L 331.10 213.37 L 331.68 213.38 L 332.07 213.22 L 332.35 213.03 L 332.36 212.93 L 332.38 212.92 L 340.91 212.75 L 340.94 212.74 L 341.04 212.73 L 341.09 212.58 L 341.12 212.56 L 341.12 212.56 L 341.49 212.52 L 341.57 211.97 L 341.68 211.85 L 341.86 210.78 L 341.97 210.77 L 342.12 210.32 L 342.20 210.37 L 342.24 210.37 L 342.28 209.85 L 342.39 209.50 L 342.41 209.12 L 342.44 209.07 L 342.53 209.04 L 342.59 208.86 L 342.67 210.90 L 342.77 210.86 L 342.98 210.05 L 343.07 209.85 L 343.16 209.68 L 343.68 208.51 L 344.13 207.94 L 344.67 206.86 L 344.81 206.81 L 344.96 206.81 L 345.13 206.76 L 348.26 206.46 L 348.52 206.43 L 378.24 205.61 L 471.83 205.41 L 472.14 205.08 L 472.35 205.04 L 472.57 205.04 L 472.89 204.40 L 473.00 204.10 L 473.09 203.53 L 473.24 201.88 L 473.45 202.22 L 473.63 201.87 L 473.67 201.86 L 473.81 201.75 L 473.84 201.75 L 474.00 201.15 L 474.14 200.19 L 474.56 199.16 L 474.57 199.08 L 474.70 197.86 L 475.10 194.84 L 475.11 194.73 L 475.19 194.67 L 475.28 193.59 L 475.72 192.13 L 475.73 192.00 L 475.82 191.93 L 475.92 191.21 L 476.09 190.65 L 476.10 190.54 L 476.17 189.43 L 476.18 189.41 L 476.22 189.10 L 476.40 187.13 L 476.43 187.02 L 476.49 186.90 L 476.69 186.64 L 476.73 186.63 L 476.89 186.26 L 477.15 186.30 L 477.19 186.25 L 477.22 186.23 L 477.27 186.20 L 477.40 185.04 L 477.53 184.10 L 477.55 184.02 L 477.63 182.84 L 477.71 181.69 L 477.73 181.55 L 477.81 180.20 L 477.85 179.14 L 478.01 178.42 L 478.03 178.37 L 478.11 178.15 L 478.23 178.13 L 478.90 178.10 L 479.23 178.07 L 486.54 178.12 L 486.62 177.91 L 486.69 177.73 L 486.81 176.94 L 487.09 176.74 L 487.11 176.66 L 487.16 175.61 L 487.34 174.60 L 487.35 174.51 L 488.95 174.44 L 489.05 173.87 L 489.85 173.70 L 489.94 173.66 L 490.03 172.47 L 491.00 171.37 L 491.42 170.94 L 491.52 170.08 L 491.87 168.60 L 492.09 168.17 L 492.44 167.29 L 493.09 166.85 L 502.87 166.84 L 503.46 166.74 L 503.48 166.76 L 504.30 166.59 L 504.34 166.50 L 504.63 166.44 L 504.96 165.47 L 504.96 165.47 L 505.00 165.43 L 505.44 164.33 L 506.44 163.70 L 506.51 163.64 L 506.61 163.63 L 506.76 163.34 L 506.81 163.26 L 506.86 163.21 L 507.33 163.16 L 507.71 163.16 L 507.91 163.16 L 507.94 163.12 L 508.36 162.16 L 508.68 161.97 L 508.69 161.90 L 508.73 161.82 L 508.78 161.56 L 519.39 161.19 L 519.41 161.17 L 519.44 161.16 L 519.65 161.05 L 519.81 160.93 L 520.75 159.45 L 520.98 159.27 L 521.65 158.82 L 522.23 158.72 L 522.66 158.57 L 522.78 157.20 L 523.32 155.60 L 523.52 155.48 L 523.59 154.45 L 525.16 152.54 L 525.17 152.54 L 525.26 152.08 L 525.56 152.03 L 525.56 152.03 L 525.58 151.91 L 525.64 151.76 L 525.77 151.61 L 525.94 150.81 L 527.57 148.89 L 527.78 148.66 L 527.93 148.31 L 527.95 148.27 L 527.98 148.00 L 535.21 147.13 L 535.45 146.47 L 535.58 146.44 L 535.64 146.00 L 536.32 145.80 L 536.46 145.36 L 536.59 145.36 L 536.66 144.44 L 536.89 142.09 L 536.93 142.05 L 537.23 142.01 L 537.30 141.24 L 537.56 140.32 L 537.62 139.69 L 537.83 139.10 L 537.99 138.79 L 538.11 138.09 L 538.38 137.49 L 538.41 136.82 L 538.76 136.67 L 538.80 136.67 L 538.85 135.81 L 538.92 135.81 L 538.96 135.75 L 539.36 134.15 L 539.95 133.63 L 540.24 133.80 L 541.20 133.73 L 541.22 133.72 L 541.37 133.70 L 541.43 133.69 L 541.54 133.58 L 541.66 133.48 L 541.79 133.31 L 542.07 133.08 L 542.35 133.06 L 543.20 132.90 L 543.24 132.89 L 544.10 132.75 L 544.47 132.65 L 551.78 132.63 L 552.15 132.51 L 552.33 132.44 L 552.41 132.44 L 552.44 132.43 L 552.62 132.41 L 552.71 132.36 L 552.92 132.21 L 553.05 132.18 L 553.53 132.02 L 553.78 131.66 L 554.19 131.60 L 554.30 131.37 L 554.44 131.23 L 554.62 131.05 L 555.25 131.10 L 555.32 131.08 L 556.24 130.64 L 556.38 130.37 L 556.57 130.29 L 557.01 130.08 L 557.22 130.14 L 557.33 130.48 L 557.41 130.46 L 557.54 130.32 L 557.93 129.27 L 558.35 129.16 L 558.71 129.07 L 558.76 129.03 L 558.80 128.73 L 585.26 128.65 L 585.44 128.52 L 600.66 128.18 L 600.74 128.57 L 600.86 126.96 L 600.88 126.96 L 600.93 127.00 L 601.47 123.74 L 601.53 123.71 L 602.20 123.79 L 602.88 123.58 L 603.12 123.28 L 603.55 122.88 L 604.11 122.63 L 604.13 122.63 L 604.20 122.56 L 604.42 122.50 L 604.49 122.34 L 605.04 121.55 L 605.75 121.38 L 605.83 121.23 L 606.19 121.16 L 606.29 121.79 L 606.57 121.56 L 606.80 121.50 L 607.26 121.34 L 607.70 121.25 L 607.92 120.90 L 607.93 120.90 L 617.46 120.89 L 620.45 120.00 L 620.57 119.57 L 620.72 119.16 L 621.20 119.14 L 621.40 119.00 L 621.56 116.90 L 621.65 115.55 L 621.88 115.42 L 621.91 115.40 L 622.25 115.00 L 622.36 114.79 L 622.41 114.69 L 622.59 114.35 L 622.66 114.32 L 622.75 114.28 L 622.82 114.08 L 622.90 113.86 L 623.00 113.74 L 623.06 113.70 L 623.38 113.61 L 623.53 113.37 L 623.65 113.25 L 623.69 112.58 L 624.04 112.45 L 624.17 112.06 L 633.15 112.15 L 633.81 111.91 L 633.92 111.91 L 634.33 111.13 L 634.51 111.02 L 635.25 109.77 L 635.58 109.64 L 636.01 108.49 L 636.07 108.49 L 636.32 108.46 L 636.41 107.81 L 636.75 106.88 L 637.28 106.34 L 637.45 105.67 L 640.61 103.99 L 640.92 103.50 L 640.94 103.50 L 649.37 101.93 L 649.37 101.93 L 649.48 101.86 L 649.58 101.00 L 649.97 100.01 L 650.00 100.00"/>
	</g>
	<g id="poloto_plot1" class="poloto_plot poloto_imgs poloto_line poloto1 poloto_stroke" fill="none" stroke="black">
		<path d=" M 150.00 383.58 L 150.02 383.56 L 150.04 383.55 L 150.04 383.55 L 150.07 383.55 L 150.09 383.03 L 150.19 383.02 L 150.42 383.01 L 150.76 382.81 L 150.93 382.72 L 151.28 382.74 L 151.34 382.71 L 151.38 382.71 L 151.79 382.67 L 152.54 382.57 L 152.78 380.54 L 152.84 380.54 L 153.30 380.49 L 153.83 380.48 L 153.83 380.48 L 153.83 380.48 L 160.94 380.48 L 160.99 380.48 L 161.08 380.48 L 161.12 380.45 L 161.39 380.44 L 161.51 380.44 L 161.81 380.44 L 161.85 380.44 L 161.94 380.43 L 162.03 380.43 L 162.05 380.43 L 162.13 380.40 L 162.21 380.40 L 162.28 380.40 L 162.48 380.29 L 162.66 380.29 L 162.69 380.29 L 162.77 380.29 L 163.34 381.05 L 163.35 381.05 L 163.42 381.04 L 163.74 380.93 L 164.00 380.80 L 164.29 380.74 L 164.35 380.70 L 164.36 380.70 L 164.42 380.70 L 164.53 380.70 L 164.67 380.66 L 164.95 380.61 L 164.96 380.61 L 165.01 380.61 L 165.08 380.59 L 165.24 380.59 L 165.26 380.59 L 165.43 380.58 L 165.49 380.58 L 165.55 380.58 L 165.62 380.58 L 166.48 380.49 L 166.69 380.49 L 167.17 380.45 L 167.27 380.45 L 167.35 380.45 L 167.39 380.45 L 167.72 380.39 L 167.87 380.39 L 168.04 380.31 L 168.12 380.30 L 168.32 380.14 L 168.41 380.08 L 168.53 380.08 L 168.64 380.08 L 169.02 377.70 L 169.03 377.66 L 169.05 377.66 L 169.18 377.43 L 175.77 377.43 L 176.45 376.41 L 176.47 376.41 L 177.28 376.41 L 177.35 376.41 L 177.42 376.30 L 177.62 376.28 L 177.71 376.28 L 177.74 376.28 L 177.84 376.28 L 178.08 376.28 L 178.09 376.06 L 178.18 376.05 L 178.27 376.05 L 178.37 376.03 L 178.50 376.02 L 178.55 376.02 L 178.57 376.02 L 178.68 376.02 L 178.70 376.02 L 178.82 376.02 L 178.84 376.02 L 179.03 375.02 L 179.06 375.02 L 179.13 374.90 L 179.21 374.90 L 179.32 374.90 L 179.37 374.88 L 179.73 374.88 L 179.74 374.88 L 179.81 374.82 L 179.98 374.82 L 180.13 374.24 L 180.17 374.17 L 180.24 374.17 L 180.28 374.17 L 180.36 374.15 L 180.77 369.92 L 180.82 369.95 L 180.96 369.95 L 181.00 369.95 L 181.03 369.94 L 181.10 369.94 L 181.17 369.89 L 181.31 369.89 L 181.41 369.89 L 181.50 369.88 L 181.54 369.88 L 181.92 369.87 L 182.12 369.87 L 182.18 369.76 L 182.35 369.76 L 182.37 369.76 L 182.39 369.76 L 182.49 369.48 L 182.58 369.40 L 182.89 368.40 L 182.94 368.40 L 183.00 368.40 L 183.08 368.41 L 183.08 368.41 L 183.12 368.41 L 183.15 368.41 L 183.19 368.41 L 183.23 368.41 L 183.35 368.39 L 183.44 368.39 L 183.53 368.38 L 183.65 368.38 L 183.78 368.37 L 183.91 368.00 L 184.01 367.87 L 184.20 367.87 L 184.20 367.87 L 184.32 367.87 L 193.51 367.87 L 193.69 367.86 L 194.12 367.79 L 194.21 367.78 L 194.28 367.78 L 194.30 367.78 L 194.46 367.78 L 194.56 367.78 L 194.63 367.78 L 194.69 367.78 L 194.73 367.78 L 194.89 367.78 L 195.23 367.80 L 195.31 367.80 L 195.37 367.80 L 195.45 367.80 L 195.88 367.72 L 195.94 367.68 L 195.97 367.68 L 195.99 367.63 L 196.09 367.62 L 196.16 367.62 L 196.47 367.24 L 196.91 367.24 L 197.07 367.24 L 197.56 367.24 L 197.80 364.64 L 197.88 364.64 L 197.98 364.64 L 198.13 364.63 L 198.35 364.63 L 198.66 364.63 L 199.08 364.63 L 199.14 364.63 L 199.44 364.57 L 199.64 364.46 L 199.70 364.46 L 199.82 364.46 L 199.91 364.45 L 201.00 364.28 L 202.04 364.28 L 211.29 364.28 L 211.36 364.28 L 211.41 364.28 L 211.70 364.28 L 212.56 363.46 L 212.60 363.44 L 212.72 363.35 L 213.15 363.35 L 213.35 363.15 L 213.65 363.16 L 213.72 363.16 L 213.79 363.16 L 214.33 360.88 L 214.39 360.88 L 214.51 360.88 L 214.63 360.88 L 214.68 360.73 L 214.98 360.46 L 215.09 360.46 L 215.14 360.46 L 215.20 360.04 L 215.34 359.62 L 215.39 359.62 L 215.53 359.61 L 215.93 356.21 L 215.97 356.21 L 216.01 356.21 L 216.07 356.21 L 216.17 356.21 L 216.21 356.21 L 216.24 356.21 L 216.44 356.21 L 216.48 356.14 L 216.72 356.12 L 216.86 356.08 L 216.94 355.67 L 217.66 348.91 L 217.75 348.91 L 244.95 348.91 L 244.98 348.91 L 255.38 348.91 L 255.94 348.81 L 256.06 348.81 L 256.21 348.81 L 256.26 348.81 L 256.32 348.81 L 260.83 348.76 L 261.43 348.69 L 261.65 348.69 L 261.77 348.67 L 264.57 348.61 L 264.59 348.52 L 264.77 348.53 L 265.61 347.61 L 265.66 347.61 L 265.76 347.61 L 266.06 347.61 L 266.09 347.61 L 266.21 347.61 L 266.34 347.61 L 266.36 347.61 L 275.10 347.59 L 275.16 347.43 L 275.51 347.43 L 275.52 346.33 L 275.58 346.33 L 275.65 346.33 L 275.75 346.23 L 275.89 346.23 L 276.02 346.18 L 276.13 346.18 L 276.18 346.18 L 276.35 346.16 L 276.96 344.29 L 277.20 344.29 L 277.24 344.28 L 277.29 344.28 L 277.33 344.28 L 277.41 344.25 L 277.65 344.02 L 277.69 343.98 L 277.84 342.30 L 277.90 342.29 L 277.92 342.29 L 277.98 342.27 L 278.02 342.27 L 278.05 342.27 L 278.24 341.35 L 278.33 341.34 L 278.43 341.32 L 278.51 338.47 L 278.54 338.46 L 278.73 336.86 L 278.78 336.86 L 278.82 336.86 L 278.87 336.86 L 278.90 336.86 L 278.92 336.86 L 278.93 336.86 L 279.03 333.89 L 279.06 333.89 L 279.16 333.87 L 279.23 333.87 L 279.42 333.81 L 279.66 333.73 L 279.67 333.73 L 279.74 333.72 L 279.96 333.67 L 280.07 333.67 L 280.17 333.67 L 280.29 332.39 L 280.36 332.39 L 280.67 332.38 L 280.70 332.38 L 280.74 332.38 L 280.76 332.38 L 280.97 330.55 L 281.00 330.55 L 281.15 330.54 L 294.59 330.54 L 295.36 330.53 L 295.38 330.53 L 295.53 330.53 L 295.55 330.53 L 295.64 330.53 L 295.72 330.53 L 295.78 330.44 L 295.88 330.44 L 295.90 330.44 L 295.94 330.44 L 296.08 330.27 L 296.37 330.17 L 296.56 330.06 L 296.76 329.54 L 296.77 329.54 L 296.81 329.41 L 296.83 329.40 L 297.23 329.08 L 297.24 329.08 L 297.30 329.04 L 297.48 329.04 L 297.59 329.00 L 297.61 328.25 L 297.62 328.25 L 297.66 329.00 L 297.69 328.95 L 297.71 328.94 L 297.81 327.93 L 297.82 327.93 L 298.03 327.88 L 298.60 327.88 L 298.74 327.88 L 298.78 327.88 L 298.81 327.88 L 298.84 327.88 L 298.92 327.82 L 308.11 326.97 L 308.13 326.97 L 308.21 326.97 L 308.23 326.79 L 308.28 317.77 L 308.38 314.41 L 308.39 314.41 L 308.56 314.35 L 308.60 314.35 L 308.63 314.34 L 308.78 314.34 L 309.18 313.52 L 309.19 313.52 L 309.29 313.47 L 309.33 313.47 L 309.35 313.40 L 309.68 312.92 L 309.69 312.92 L 310.19 312.81 L 310.25 312.78 L 310.43 312.79 L 310.64 311.68 L 310.69 311.57 L 310.73 311.47 L 310.82 311.05 L 311.08 310.95 L 311.13 310.86 L 311.24 310.86 L 311.37 310.86 L 311.75 310.86 L 311.80 310.86 L 311.89 310.86 L 311.89 310.86 L 312.02 310.87 L 312.31 310.87 L 312.61 310.76 L 312.66 310.76 L 312.72 310.74 L 312.81 310.74 L 313.04 310.74 L 313.43 310.74 L 313.55 310.64 L 313.77 307.73 L 314.61 310.48 L 314.80 310.47 L 314.93 310.46 L 315.14 310.46 L 315.21 310.43 L 315.42 310.41 L 315.75 310.24 L 315.80 310.24 L 315.86 310.24 L 315.90 310.24 L 315.93 310.24 L 316.19 310.08 L 322.28 310.08 L 322.34 310.09 L 322.72 310.08 L 322.76 310.08 L 322.84 310.05 L 322.91 309.85 L 322.92 309.84 L 323.13 309.82 L 323.18 309.82 L 324.43 309.65 L 324.57 309.65 L 324.68 309.65 L 324.71 309.65 L 325.09 309.53 L 325.22 309.53 L 325.25 309.53 L 325.46 309.53 L 325.68 308.84 L 325.71 308.84 L 325.90 308.72 L 325.98 308.72 L 326.05 308.72 L 326.21 308.72 L 326.55 308.71 L 326.61 308.70 L 326.67 308.63 L 326.81 308.51 L 327.15 308.41 L 327.44 305.66 L 327.50 305.57 L 327.81 305.44 L 327.86 305.41 L 327.91 305.31 L 327.94 305.12 L 328.05 304.30 L 328.07 304.33 L 328.12 304.31 L 328.30 304.31 L 328.56 304.20 L 328.72 304.15 L 328.91 304.14 L 329.00 304.13 L 329.19 304.12 L 329.49 304.12 L 329.80 304.11 L 330.03 304.11 L 330.09 304.11 L 330.15 304.10 L 330.15 304.10 L 330.33 304.10 L 330.38 304.09 L 330.45 303.99 L 330.95 303.98 L 330.96 303.98 L 331.10 303.96 L 331.68 303.96 L 332.07 303.83 L 332.35 303.71 L 332.36 303.71 L 332.38 303.71 L 340.91 303.71 L 340.94 303.71 L 341.04 303.71 L 341.09 303.71 L 341.12 303.69 L 341.12 303.69 L 341.49 303.69 L 341.57 303.68 L 341.68 303.66 L 341.86 303.64 L 341.97 303.64 L 342.12 303.58 L 342.20 303.58 L 342.24 303.58 L 342.28 303.58 L 342.39 303.33 L 342.41 303.33 L 342.44 303.33 L 342.53 303.33 L 342.59 303.33 L 342.67 303.39 L 342.77 303.39 L 342.98 303.38 L 343.07 303.38 L 343.16 303.38 L 343.68 302.57 L 344.13 302.35 L 344.67 301.78 L 344.81 301.78 L 344.96 301.78 L 345.13 301.78 L 348.26 301.71 L 348.52 301.70 L 378.24 301.60 L 471.83 301.45 L 472.14 301.40 L 472.35 301.40 L 472.57 301.40 L 472.89 301.02 L 473.00 301.02 L 473.09 301.02 L 473.24 299.67 L 473.45 299.93 L 473.63 299.91 L 473.67 299.91 L 473.81 299.90 L 473.84 299.90 L 474.00 299.90 L 474.14 299.84 L 474.56 298.98 L 474.57 298.98 L 474.70 298.90 L 475.10 296.14 L 475.11 296.14 L 475.19 296.13 L 475.28 296.09 L 475.72 294.80 L 475.73 294.80 L 475.82 294.80 L 475.92 294.77 L 476.09 294.30 L 476.10 294.30 L 476.17 294.29 L 476.18 294.29 L 476.22 294.03 L 476.40 292.20 L 476.43 292.20 L 476.49 292.20 L 476.69 292.05 L 476.73 292.05 L 476.89 291.75 L 477.15 291.75 L 477.19 291.75 L 477.22 291.75 L 477.27 291.75 L 477.40 291.74 L 477.53 290.91 L 477.55 290.91 L 477.63 290.91 L 477.71 290.28 L 477.73 290.28 L 477.81 289.62 L 477.85 289.58 L 478.01 288.93 L 478.03 288.93 L 478.11 288.93 L 478.23 288.91 L 478.90 288.91 L 479.23 288.91 L 486.54 288.91 L 486.62 288.91 L 486.69 288.91 L 486.81 288.91 L 487.09 288.73 L 487.11 288.73 L 487.16 288.68 L 487.34 287.77 L 487.35 287.77 L 488.95 287.78 L 489.05 287.60 L 489.85 287.60 L 489.94 287.60 L 490.03 287.53 L 491.00 286.78 L 491.42 286.64 L 491.52 286.58 L 491.87 285.16 L 492.09 285.16 L 492.44 285.04 L 493.09 285.04 L 502.87 285.03 L 503.46 284.95 L 503.48 284.96 L 504.30 284.96 L 504.34 284.96 L 504.63 284.96 L 504.96 284.94 L 504.96 284.94 L 505.00 284.94 L 505.44 284.10 L 506.44 284.08 L 506.51 284.08 L 506.61 284.07 L 506.76 284.04 L 506.81 284.01 L 506.86 284.01 L 507.33 283.98 L 507.71 283.98 L 507.91 283.97 L 507.94 283.97 L 508.36 283.96 L 508.68 283.86 L 508.69 283.86 L 508.73 283.86 L 508.78 283.86 L 519.39 283.66 L 519.41 283.66 L 519.44 283.66 L 519.65 283.66 L 519.81 283.66 L 520.75 282.84 L 520.98 282.79 L 521.65 282.73 L 522.23 282.68 L 522.66 282.68 L 522.78 282.68 L 523.32 281.44 L 523.52 281.40 L 523.59 281.36 L 525.16 280.48 L 525.17 280.48 L 525.26 280.47 L 525.56 280.46 L 525.56 280.46 L 525.58 280.46 L 525.64 280.43 L 525.77 280.40 L 525.94 280.30 L 527.57 278.86 L 527.78 278.78 L 527.93 278.78 L 527.95 278.78 L 527.98 278.78 L 535.21 278.78 L 535.45 278.77 L 535.58 278.77 L 535.64 278.77 L 536.32 278.77 L 536.46 278.77 L 536.59 278.77 L 536.66 278.74 L 536.89 276.85 L 536.93 276.83 L 537.23 276.84 L 537.30 276.83 L 537.56 276.09 L 537.62 276.06 L 537.83 275.58 L 537.99 275.58 L 538.11 275.53 L 538.38 275.09 L 538.41 275.09 L 538.76 273.68 L 538.80 273.68 L 538.85 273.67 L 538.92 273.67 L 538.96 273.67 L 539.36 272.26 L 539.95 272.14 L 540.24 272.14 L 541.20 272.10 L 541.22 272.10 L 541.37 272.10 L 541.43 272.10 L 541.54 272.10 L 541.66 272.10 L 541.79 272.08 L 542.07 272.06 L 542.35 272.06 L 543.20 272.00 L 543.24 272.00 L 544.10 271.96 L 544.47 271.92 L 551.78 271.94 L 552.15 271.87 L 552.33 271.80 L 552.41 271.80 L 552.44 271.80 L 552.62 271.79 L 552.71 271.79 L 552.92 271.79 L 553.05 271.78 L 553.53 271.65 L 553.78 271.40 L 554.19 271.38 L 554.30 271.21 L 554.44 271.13 L 554.62 271.05 L 555.25 271.13 L 555.32 271.13 L 556.24 270.87 L 556.38 270.87 L 556.57 270.87 L 557.01 270.84 L 557.22 270.97 L 557.33 270.97 L 557.41 270.97 L 557.54 270.97 L 557.93 270.36 L 558.35 270.35 L 558.71 270.35 L 558.76 270.35 L 558.80 270.35 L 585.26 270.35 L 585.44 270.30 L 600.66 270.10 L 600.74 270.10 L 600.86 270.04 L 600.88 270.04 L 600.93 270.04 L 601.47 267.70 L 601.53 267.70 L 602.20 267.70 L 602.88 267.59 L 603.12 267.36 L 603.55 267.05 L 604.11 266.98 L 604.13 266.98 L 604.20 266.93 L 604.42 266.93 L 604.49 266.88 L 605.04 266.25 L 605.75 266.14 L 605.83 266.14 L 606.19 266.14 L 606.29 266.14 L 606.57 265.99 L 606.80 265.96 L 607.26 265.83 L 607.70 265.76 L 607.92 265.76 L 607.93 265.76 L 617.46 265.76 L 620.45 265.72 L 620.57 265.69 L 620.72 265.41 L 621.20 265.43 L 621.40 265.43 L 621.56 265.43 L 621.65 265.31 L 621.88 265.22 L 621.91 265.21 L 622.25 264.99 L 622.36 264.83 L 622.41 264.78 L 622.59 264.67 L 622.66 264.67 L 622.75 264.65 L 622.82 264.52 L 622.90 264.37 L 623.00 264.34 L 623.06 264.34 L 623.38 264.28 L 623.53 264.17 L 623.65 264.08 L 623.69 264.08 L 624.04 264.08 L 624.17 264.08 L 633.15 264.10 L 633.81 264.08 L 633.92 264.08 L 634.33 263.69 L 634.51 263.63 L 635.25 263.59 L 635.58 263.59 L 636.01 262.64 L 636.07 262.64 L 636.32 262.63 L 636.41 262.61 L 636.75 262.56 L 637.28 262.11 L 637.45 262.10 L 640.61 261.07 L 640.92 261.07 L 640.94 261.07 L 649.37 261.06 L 649.37 261.06 L 649.48 261.06 L 649.58 260.94 L 649.97 260.06 L 650.00 260.06"/>
	</g>
	<g id="poloto_plot2" class="poloto_plot poloto_imgs poloto_line poloto2 poloto_stroke" fill="none" stroke="black">
		<path d=" M 150.00 392.63 L 150.02 392.63 L 150.04 392.63 L 150.04 392.63 L 150.07 392.63 L 150.09 390.74 L 150.19 390.48 L 150.42 390.48 L 150.76 390.46 L 150.93 389.34 L 151.28 389.24 L 151.34 389.20 L 151.38 389.18 L 151.79 388.67 L 152.54 388.27 L 152.78 388.20 L 152.84 388.20 L 153.30 388.17 L 153.83 388.17 L 153.83 388.17 L 153.83 388.17 L 160.94 388.17 L 160.99 388.17 L 161.08 388.15 L 161.12 388.15 L 161.39 388.04 L 161.51 388.01 L 161.81 387.82 L 161.85 387.74 L 161.94 387.58 L 162.03 387.55 L 162.05 387.55 L 162.13 387.52 L 162.21 387.52 L 162.28 387.52 L 162.48 387.33 L 162.66 387.16 L 162.69 387.16 L 162.77 387.06 L 163.34 386.83 L 163.35 386.83 L 163.42 386.76 L 163.74 386.51 L 164.00 386.20 L 164.29 386.08 L 164.35 386.08 L 164.36 386.08 L 164.42 385.91 L 164.53 385.91 L 164.67 385.88 L 164.95 385.76 L 164.96 385.54 L 165.01 385.54 L 165.08 385.43 L 165.24 385.43 L 165.26 385.43 L 165.43 385.10 L 165.49 385.08 L 165.55 385.05 L 165.62 384.89 L 166.48 384.80 L 166.69 384.77 L 167.17 384.54 L 167.27 384.54 L 167.35 384.53 L 167.39 384.36 L 167.72 383.44 L 167.87 383.42 L 168.04 383.15 L 168.12 383.12 L 168.32 382.99 L 168.41 382.95 L 168.53 382.75 L 168.64 382.59 L 169.02 382.59 L 169.03 382.57 L 169.05 382.44 L 169.18 381.55 L 175.77 381.45 L 176.45 381.19 L 176.47 381.15 L 177.28 380.93 L 177.35 380.92 L 177.42 380.76 L 177.62 380.65 L 177.71 380.45 L 177.74 380.28 L 177.84 379.95 L 178.08 379.94 L 178.09 379.94 L 178.18 379.71 L 178.27 379.70 L 178.37 379.46 L 178.50 379.27 L 178.55 379.17 L 178.57 379.16 L 178.68 378.94 L 178.70 378.93 L 178.82 378.73 L 178.84 378.72 L 179.03 378.65 L 179.06 378.65 L 179.13 378.58 L 179.21 378.56 L 179.32 378.56 L 179.37 378.55 L 179.73 378.35 L 179.74 378.35 L 179.81 377.95 L 179.98 377.94 L 180.13 377.81 L 180.17 377.81 L 180.24 377.81 L 180.28 377.78 L 180.36 377.23 L 180.77 376.76 L 180.82 376.51 L 180.96 376.49 L 181.00 376.43 L 181.03 376.41 L 181.10 376.30 L 181.17 375.86 L 181.31 375.79 L 181.41 375.78 L 181.50 375.56 L 181.54 375.56 L 181.92 375.39 L 182.12 375.28 L 182.18 375.18 L 182.35 375.17 L 182.37 375.17 L 182.39 375.15 L 182.49 374.36 L 182.58 374.35 L 182.89 374.24 L 182.94 373.93 L 183.00 373.92 L 183.08 373.79 L 183.08 373.72 L 183.12 373.66 L 183.15 373.63 L 183.19 373.63 L 183.23 373.57 L 183.35 372.68 L 183.44 372.59 L 183.53 372.33 L 183.65 372.31 L 183.78 372.22 L 183.91 371.94 L 184.01 371.17 L 184.20 371.12 L 184.20 370.79 L 184.32 370.71 L 193.51 370.71 L 193.69 370.71 L 194.12 370.35 L 194.21 370.35 L 194.28 370.35 L 194.30 370.25 L 194.46 370.09 L 194.56 370.07 L 194.63 369.97 L 194.69 369.91 L 194.73 369.87 L 194.89 369.82 L 195.23 369.90 L 195.31 369.65 L 195.37 369.59 L 195.45 369.58 L 195.88 369.53 L 195.94 369.49 L 195.97 369.49 L 195.99 369.44 L 196.09 369.40 L 196.16 369.31 L 196.47 369.08 L 196.91 368.99 L 197.07 368.95 L 197.56 368.80 L 197.80 368.44 L 197.88 368.38 L 197.98 368.10 L 198.13 367.74 L 198.35 367.64 L 198.66 367.63 L 199.08 367.62 L 199.14 367.49 L 199.44 367.40 L 199.64 367.28 L 199.70 367.19 L 199.82 367.16 L 199.91 366.92 L 201.00 366.80 L 202.04 366.80 L 211.29 366.77 L 211.36 366.64 L 211.41 366.55 L 211.70 366.42 L 212.56 366.18 L 212.60 366.14 L 212.72 365.97 L 213.15 365.91 L 213.35 365.44 L 213.65 365.43 L 213.72 365.41 L 213.79 364.95 L 214.33 364.53 L 214.39 364.52 L 214.51 364.50 L 214.63 364.46 L 214.68 364.30 L 214.98 363.59 L 215.09 363.40 L 215.14 363.39 L 215.20 363.31 L 215.34 363.03 L 215.39 362.32 L 215.53 362.03 L 215.93 361.86 L 215.97 361.50 L 216.01 361.50 L 216.07 361.43 L 216.17 361.34 L 216.21 361.31 L 216.24 361.28 L 216.44 360.44 L 216.48 359.95 L 216.72 359.86 L 216.86 359.03 L 216.94 358.87 L 217.66 357.56 L 217.75 357.54 L 244.95 357.16 L 244.98 357.16 L 255.38 357.05 L 255.94 356.91 L 256.06 356.91 L 256.21 356.84 L 256.26 356.74 L 256.32 356.71 L 260.83 356.70 L 261.43 355.20 L 261.65 355.07 L 261.77 354.55 L 264.57 354.49 L 264.59 354.44 L 264.77 354.43 L 265.61 354.34 L 265.66 354.16 L 265.76 354.10 L 266.06 354.02 L 266.09 354.00 L 266.21 353.71 L 266.34 353.62 L 266.36 353.40 L 275.10 353.12 L 275.16 352.44 L 275.51 352.26 L 275.52 352.00 L 275.58 351.79 L 275.65 351.48 L 275.75 350.65 L 275.89 350.20 L 276.02 349.62 L 276.13 349.61 L 276.18 349.16 L 276.35 349.13 L 276.96 348.70 L 277.20 348.50 L 277.24 348.38 L 277.29 348.38 L 277.33 348.23 L 277.41 347.72 L 277.65 347.67 L 277.69 347.66 L 277.84 347.33 L 277.90 347.33 L 277.92 347.14 L 277.98 347.02 L 278.02 347.02 L 278.05 346.75 L 278.24 346.59 L 278.33 346.32 L 278.43 346.31 L 278.51 346.17 L 278.54 345.97 L 278.73 345.86 L 278.78 345.74 L 278.82 345.74 L 278.87 345.74 L 278.90 345.53 L 278.92 345.54 L 278.93 345.53 L 279.03 345.46 L 279.06 345.23 L 279.16 345.23 L 279.23 345.18 L 279.42 345.16 L 279.66 345.13 L 279.67 345.13 L 279.74 345.12 L 279.96 345.12 L 280.07 345.12 L 280.17 345.12 L 280.29 345.08 L 280.36 344.81 L 280.67 344.80 L 280.70 344.64 L 280.74 344.64 L 280.76 344.46 L 280.97 344.39 L 281.00 344.35 L 281.15 344.35 L 294.59 344.30 L 295.36 344.22 L 295.38 344.22 L 295.53 344.22 L 295.55 344.22 L 295.64 343.90 L 295.72 343.89 L 295.78 343.80 L 295.88 343.75 L 295.90 343.72 L 295.94 343.70 L 296.08 343.67 L 296.37 343.61 L 296.56 343.17 L 296.76 343.15 L 296.77 343.12 L 296.81 342.76 L 296.83 342.76 L 297.23 342.76 L 297.24 342.72 L 297.30 342.38 L 297.48 342.34 L 297.59 342.33 L 297.61 342.32 L 297.62 342.28 L 297.66 342.26 L 297.69 341.92 L 297.71 341.91 L 297.81 341.91 L 297.82 341.88 L 298.03 341.85 L 298.60 341.83 L 298.74 341.80 L 298.78 341.79 L 298.81 341.68 L 298.84 341.68 L 298.92 341.30 L 308.11 341.18 L 308.13 341.07 L 308.21 340.99 L 308.23 340.98 L 308.28 340.65 L 308.38 340.57 L 308.39 340.55 L 308.56 340.54 L 308.60 340.54 L 308.63 340.22 L 308.78 340.18 L 309.18 340.16 L 309.19 340.15 L 309.29 339.97 L 309.33 339.97 L 309.35 339.67 L 309.68 339.67 L 309.69 339.65 L 310.19 339.58 L 310.25 339.21 L 310.43 339.21 L 310.64 339.21 L 310.69 338.94 L 310.73 338.74 L 310.82 338.73 L 311.08 338.68 L 311.13 338.67 L 311.24 338.59 L 311.37 338.59 L 311.75 338.59 L 311.80 338.59 L 311.89 338.57 L 311.89 338.57 L 312.02 338.57 L 312.31 338.54 L 312.61 338.51 L 312.66 338.50 L 312.72 338.47 L 312.81 338.37 L 313.04 338.37 L 313.43 338.25 L 313.55 338.05 L 313.77 338.02 L 314.61 337.80 L 314.80 337.80 L 314.93 337.80 L 315.14 337.79 L 315.21 337.78 L 315.42 337.67 L 315.75 337.65 L 315.80 337.55 L 315.86 337.50 L 315.90 337.51 L 315.93 337.48 L 316.19 337.46 L 322.28 337.46 L 322.34 337.46 L 322.72 337.46 L 322.76 337.44 L 322.84 337.14 L 322.91 337.13 L 322.92 337.13 L 323.13 337.12 L 323.18 337.11 L 324.43 336.66 L 324.57 336.61 L 324.68 336.60 L 324.71 336.60 L 325.09 336.59 L 325.22 336.65 L 325.25 336.65 L 325.46 336.62 L 325.68 336.20 L 325.71 336.19 L 325.90 336.18 L 325.98 336.18 L 326.05 336.18 L 326.21 336.09 L 326.55 335.70 L 326.61 335.70 L 326.67 335.65 L 326.81 335.30 L 327.15 334.91 L 327.44 334.94 L 327.50 334.73 L 327.81 334.73 L 327.86 334.71 L 327.91 334.68 L 327.94 334.48 L 328.05 334.48 L 328.07 334.48 L 328.12 334.48 L 328.30 334.48 L 328.56 334.31 L 328.72 334.30 L 328.91 334.30 L 329.00 334.30 L 329.19 334.30 L 329.49 334.30 L 329.80 334.30 L 330.03 334.29 L 330.09 334.29 L 330.15 334.28 L 330.15 334.21 L 330.33 334.16 L 330.38 334.16 L 330.45 334.15 L 330.95 334.15 L 330.96 333.95 L 331.10 333.95 L 331.68 333.95 L 332.07 333.95 L 332.35 333.90 L 332.36 333.82 L 332.38 333.82 L 340.91 333.69 L 340.94 333.68 L 341.04 333.68 L 341.09 333.55 L 341.12 333.55 L 341.12 333.55 L 341.49 333.51 L 341.57 333.10 L 341.68 333.01 L 341.86 332.21 L 341.97 332.21 L 342.12 331.86 L 342.20 331.91 L 342.24 331.90 L 342.28 331.47 L 342.39 331.39 L 342.41 331.09 L 342.44 331.04 L 342.53 331.02 L 342.59 330.86 L 342.67 332.66 L 342.77 332.63 L 342.98 331.91 L 343.07 331.75 L 343.16 331.59 L 343.68 331.31 L 344.13 331.00 L 344.67 330.58 L 344.81 330.53 L 344.96 330.53 L 345.13 330.50 L 348.26 330.29 L 348.52 330.26 L 378.24 329.70 L 471.83 329.68 L 472.14 329.43 L 472.35 329.39 L 472.57 329.39 L 472.89 329.16 L 473.00 328.90 L 473.09 328.41 L 473.24 328.27 L 473.45 328.32 L 473.63 328.03 L 473.67 328.03 L 473.81 327.94 L 473.84 327.94 L 474.00 327.46 L 474.14 326.73 L 474.56 326.66 L 474.57 326.58 L 474.70 325.63 L 475.10 325.60 L 475.11 325.50 L 475.19 325.45 L 475.28 324.59 L 475.72 324.54 L 475.73 324.42 L 475.82 324.36 L 475.92 323.80 L 476.09 323.78 L 476.10 323.69 L 476.17 322.75 L 476.18 322.72 L 476.22 322.70 L 476.40 322.70 L 476.43 322.60 L 476.49 322.53 L 476.69 322.44 L 476.73 322.44 L 476.89 322.39 L 477.15 322.42 L 477.19 322.38 L 477.22 322.36 L 477.27 322.33 L 477.40 321.36 L 477.53 321.34 L 477.55 321.25 L 477.63 320.25 L 477.71 319.89 L 477.73 319.76 L 477.81 319.28 L 477.85 318.43 L 478.01 318.42 L 478.03 318.37 L 478.11 318.20 L 478.23 318.20 L 478.90 318.17 L 479.23 318.15 L 486.54 318.18 L 486.62 317.99 L 486.69 317.85 L 486.81 317.18 L 487.09 317.17 L 487.11 317.10 L 487.16 316.25 L 487.34 316.24 L 487.35 316.16 L 488.95 316.07 L 489.05 315.77 L 489.85 315.62 L 489.94 315.58 L 490.03 314.64 L 491.00 314.37 L 491.42 314.14 L 491.52 313.43 L 491.87 313.43 L 492.09 313.03 L 492.44 312.42 L 493.09 312.06 L 502.87 312.05 L 503.46 312.04 L 503.48 312.04 L 504.30 311.91 L 504.34 311.83 L 504.63 311.77 L 504.96 310.98 L 504.96 310.98 L 505.00 310.94 L 505.44 310.78 L 506.44 310.25 L 506.51 310.19 L 506.61 310.19 L 506.76 309.97 L 506.81 309.93 L 506.86 309.89 L 507.33 309.89 L 507.71 309.89 L 507.91 309.89 L 507.94 309.85 L 508.36 309.05 L 508.68 308.97 L 508.69 308.91 L 508.73 308.84 L 508.78 308.64 L 519.39 308.49 L 519.41 308.47 L 519.44 308.45 L 519.65 308.35 L 519.81 308.25 L 520.75 307.80 L 520.98 307.71 L 521.65 307.36 L 522.23 307.31 L 522.66 307.17 L 522.78 305.98 L 523.32 305.78 L 523.52 305.72 L 523.59 304.86 L 525.16 304.04 L 525.17 304.04 L 525.26 303.66 L 525.56 303.62 L 525.56 303.62 L 525.58 303.53 L 525.64 303.42 L 525.77 303.34 L 525.94 302.75 L 527.57 302.45 L 527.78 302.31 L 527.93 301.99 L 527.95 301.96 L 527.98 301.75 L 535.21 301.00 L 535.45 300.46 L 535.58 300.44 L 535.64 300.08 L 536.32 299.93 L 536.46 299.55 L 536.59 299.55 L 536.66 298.75 L 536.89 298.56 L 536.93 298.54 L 537.23 298.49 L 537.30 297.84 L 537.56 297.75 L 537.62 297.24 L 537.83 297.19 L 537.99 296.89 L 538.11 296.31 L 538.38 296.20 L 538.41 295.61 L 538.76 296.94 L 538.80 296.94 L 538.85 296.19 L 538.92 296.19 L 538.96 296.13 L 539.36 296.05 L 539.95 295.74 L 540.24 295.90 L 541.20 295.88 L 541.22 295.87 L 541.37 295.86 L 541.43 295.84 L 541.54 295.74 L 541.66 295.65 L 541.79 295.51 L 542.07 295.32 L 542.35 295.30 L 543.20 295.22 L 543.24 295.21 L 544.10 295.11 L 544.47 295.05 L 551.78 295.02 L 552.15 294.98 L 552.33 294.98 L 552.41 294.98 L 552.44 294.98 L 552.62 294.96 L 552.71 294.93 L 552.92 294.80 L 553.05 294.77 L 553.53 294.76 L 553.78 294.69 L 554.19 294.66 L 554.30 294.63 L 554.44 294.57 L 554.62 294.48 L 555.25 294.45 L 555.32 294.44 L 556.24 294.29 L 556.38 294.06 L 556.57 293.97 L 557.01 293.83 L 557.22 293.75 L 557.33 294.09 L 557.41 294.08 L 557.54 293.95 L 557.93 293.64 L 558.35 293.56 L 558.71 293.50 L 558.76 293.46 L 558.80 293.23 L 585.26 293.19 L 585.44 293.12 L 600.66 293.05 L 600.74 293.39 L 600.86 292.05 L 600.88 292.05 L 600.93 292.09 L 601.47 291.57 L 601.53 291.55 L 602.20 291.60 L 602.88 291.54 L 603.12 291.50 L 603.55 291.45 L 604.11 291.31 L 604.13 291.31 L 604.20 291.28 L 604.42 291.24 L 604.49 291.14 L 605.04 291.07 L 605.75 291.02 L 605.83 290.88 L 606.19 290.81 L 606.29 291.40 L 606.57 291.35 L 606.80 291.32 L 607.26 291.30 L 607.70 291.30 L 607.92 291.02 L 607.93 291.02 L 617.46 291.00 L 620.45 290.30 L 620.57 289.94 L 620.72 289.85 L 621.20 289.82 L 621.40 289.69 L 621.56 287.91 L 621.65 286.95 L 621.88 286.92 L 621.91 286.90 L 622.25 286.77 L 622.36 286.73 L 622.41 286.67 L 622.59 286.46 L 622.66 286.44 L 622.75 286.41 L 622.82 286.36 L 622.90 286.31 L 623.00 286.22 L 623.06 286.19 L 623.38 286.16 L 623.53 286.06 L 623.65 286.03 L 623.69 285.45 L 624.04 285.33 L 624.17 285.01 L 633.15 285.07 L 633.81 284.88 L 633.92 284.88 L 634.33 284.54 L 634.51 284.50 L 635.25 283.45 L 635.58 283.35 L 636.01 283.21 L 636.07 283.21 L 636.32 283.20 L 636.41 282.65 L 636.75 281.93 L 637.28 281.85 L 637.45 281.28 L 640.61 280.89 L 640.92 280.47 L 640.94 280.47 L 649.37 279.08 L 649.37 279.08 L 649.48 279.03 L 649.58 278.41 L 649.97 278.36 L 650.00 278.36"/>
	</g>
	<g class="poloto_legend poloto_imgs poloto_line poloto0 poloto_stroke"><line x1="680" x2="730" y1="81.25" y2="81.25"/></g>
	<g class="poloto_legend poloto_imgs poloto_line poloto1 poloto_stroke"><line x1="680" x2="730" y1="131.25" y2="131.25"/></g>
	<g class="poloto_legend poloto_imgs poloto_line poloto2 poloto_stroke"><line x1="680" x2="730" y1="181.25" y2="181.25"/></g>
	<text class="poloto_legend poloto_text poloto_line poloto0" x="675" y="100">total</text>
	<text class="poloto_legend poloto_text poloto_line poloto1" x="675" y="150">code</text>
	<text class="poloto_legend poloto_text poloto_line poloto2" x="675" y="200">docs</text>
	<text class="poloto_text poloto_name poloto_title" x="400.00" y="37.50">Workspace lines over time</text>
	<text class="poloto_text poloto_name poloto_x" x="400.00" y="640">date (JST)</text>
	<text class="poloto_text poloto_name poloto_y" x="37.50" y="250.00" transform="rotate(-90,37.50,250.00)">lines</text>
	<text class="poloto_text poloto_ticks poloto_y">
		<tspan x="135.00" y="400.00">0</tspan>
		<tspan x="135.00" y="329.95">50K</tspan>
		<tspan x="135.00" y="259.90">100K</tspan>
		<tspan x="135.00" y="189.84">150K</tspan>
		<tspan x="135.00" y="119.79">200K</tspan>
	</text>
	<g class="poloto_imgs poloto_ticks poloto_y" stroke="black">
		<line x1="150.00" x2="144.00" y1="400.00" y2="400.00"/>
		<line x1="150.00" x2="144.00" y1="329.95" y2="329.95"/>
		<line x1="150.00" x2="144.00" y1="259.90" y2="259.90"/>
		<line x1="150.00" x2="144.00" y1="189.84" y2="189.84"/>
		<line x1="150.00" x2="144.00" y1="119.79" y2="119.79"/>
	</g>
	<g class="poloto_text poloto_ticks poloto_x">
		<text x="211.18" y="430.00" text-anchor="end" transform="rotate(-90 211.18 430.00)">2026-04-24 12:06</text>
		<text x="305.35" y="430.00" text-anchor="end" transform="rotate(-90 305.35 430.00)">2026-04-30 07:00</text>
		<text x="399.52" y="430.00" text-anchor="end" transform="rotate(-90 399.52 430.00)">2026-05-06 01:53</text>
		<text x="493.69" y="430.00" text-anchor="end" transform="rotate(-90 493.69 430.00)">2026-05-11 20:46</text>
		<text x="587.86" y="430.00" text-anchor="end" transform="rotate(-90 587.86 430.00)">2026-05-17 15:40</text>
	</g>
	<g class="poloto_imgs poloto_ticks poloto_x" stroke="black">
		<line x1="211.18" x2="211.18" y1="400.00" y2="405.00"/>
		<line x1="305.35" x2="305.35" y1="400.00" y2="405.00"/>
		<line x1="399.52" x2="399.52" y1="400.00" y2="405.00"/>
		<line x1="493.69" x2="493.69" y1="400.00" y2="405.00"/>
		<line x1="587.86" x2="587.86" y1="400.00" y2="405.00"/>
	</g>
	<path class="poloto_imgs poloto_ticks poloto_x" stroke="black" style="stroke-dasharray:9.417064851558806;stroke-dashoffset:-61.17758512555156;" d=" M 150.00 400.00 L 650.00 400.00"/>
	<path class="poloto_imgs poloto_ticks poloto_y" stroke="black" style="stroke-dasharray:7.005221224886282;stroke-dashoffset:-0;" d=" M 150.00 400.00 L 150.00 100.00"/>
</svg>

