<svg class="poloto" width="800" height="680" viewBox="0 0 800 680" xmlns="http://www.w3.org/2000/svg">
	<style>
.poloto{
  stroke-linecap:round;
  stroke-linejoin:round;
  font-family:Roboto,sans-serif;
  font-size:16px;
}
.poloto_background{fill:AliceBlue;}
.poloto_scatter{stroke-width:7}
.poloto_line{stroke-width:2}
.poloto_text{fill: black;}
.poloto_name{font-size:24px;dominant-baseline:auto;text-anchor:middle;}
.poloto_where{dominant-baseline:middle;text-anchor:start}
.poloto_text.poloto_legend{font-size:20px;dominant-baseline:middle;text-anchor:start;}
.poloto_text.poloto_ticks.poloto_y{dominant-baseline:middle;text-anchor:end}
.poloto_text.poloto_ticks.poloto_x{dominant-baseline:auto;text-anchor:middle}
.poloto_imgs.poloto_ticks{stroke: black;stroke-width:3;fill:none;stroke-dasharray:none}
.poloto_grid{stroke:gray;stroke-width:0.5}

.poloto0.poloto_stroke{stroke:blue;}
.poloto1.poloto_stroke{stroke:red;}
.poloto2.poloto_stroke{stroke:green;}
.poloto3.poloto_stroke{stroke:gold;}
.poloto4.poloto_stroke{stroke:aqua;}
.poloto5.poloto_stroke{stroke:lime;}
.poloto6.poloto_stroke{stroke:orange;}
.poloto7.poloto_stroke{stroke:chocolate;}
.poloto0.poloto_fill{fill:blue;}
.poloto1.poloto_fill{fill:red;}
.poloto2.poloto_fill{fill:green;}
.poloto3.poloto_fill{fill:gold;}
.poloto4.poloto_fill{fill:aqua;}
.poloto5.poloto_fill{fill:lime;}
.poloto6.poloto_fill{fill:orange;}
.poloto7.poloto_fill{fill:chocolate;}
	</style>
	<circle r="1e5" class="poloto_background" fill="white"/>
	<g id="poloto_plot0" class="poloto_plot poloto_imgs poloto_line poloto0 poloto_stroke" fill="none" stroke="black">
		<path d=" M 150.00 364.99 L 150.03 364.96 L 150.05 364.94 L 150.06 364.94 L 150.09 364.94 L 150.13 361.14 L 150.27 360.69 L 150.59 360.67 L 151.06 360.35 L 151.30 358.42 L 151.78 358.30 L 151.87 358.20 L 151.93 358.16 L 152.50 357.22 L 153.55 356.45 L 153.89 353.47 L 153.97 353.47 L 154.61 353.35 L 155.34 353.34 L 155.35 353.34 L 155.35 353.34 L 165.28 353.34 L 165.35 353.34 L 165.48 353.31 L 165.53 353.28 L 165.91 353.10 L 166.08 353.06 L 166.50 352.78 L 166.56 352.66 L 166.68 352.39 L 166.80 352.35 L 166.84 352.35 L 166.94 352.28 L 167.05 352.28 L 167.16 352.28 L 167.44 351.84 L 167.68 351.56 L 167.73 351.57 L 167.84 351.40 L 168.63 352.09 L 168.65 352.08 L 168.75 351.97 L 169.20 351.46 L 169.56 350.85 L 169.97 350.59 L 170.05 350.54 L 170.06 350.54 L 170.14 350.30 L 170.29 350.30 L 170.49 350.22 L 170.88 349.99 L 170.91 349.63 L 170.97 349.63 L 171.07 349.45 L 171.29 349.45 L 171.32 349.45 L 171.55 348.94 L 171.64 348.91 L 171.72 348.87 L 171.82 348.66 L 173.02 348.39 L 173.31 348.33 L 173.99 347.97 L 174.13 347.97 L 174.24 347.96 L 174.29 347.70 L 174.76 346.19 L 174.96 346.16 L 175.20 345.66 L 175.32 345.61 L 175.60 345.19 L 175.72 345.04 L 175.89 344.77 L 176.04 344.53 L 176.57 341.06 L 176.59 340.97 L 176.62 340.76 L 176.80 339.09 L 186.00 338.97 L 186.95 337.07 L 186.99 337.02 L 188.11 336.72 L 188.21 336.72 L 188.31 336.34 L 188.59 336.15 L 188.71 335.83 L 188.76 335.54 L 188.90 335.04 L 189.23 335.03 L 189.24 334.70 L 189.36 334.32 L 189.49 334.32 L 189.63 333.90 L 189.81 333.60 L 189.88 333.45 L 189.91 333.44 L 190.07 333.12 L 190.09 333.11 L 190.26 332.78 L 190.29 332.77 L 190.56 331.21 L 190.60 331.21 L 190.69 330.94 L 190.81 330.93 L 190.96 330.93 L 191.02 330.90 L 191.54 330.60 L 191.55 330.61 L 191.65 329.91 L 191.88 329.90 L 192.09 328.85 L 192.15 328.76 L 192.25 328.75 L 192.30 328.71 L 192.41 327.90 L 192.99 321.08 L 193.05 320.75 L 193.25 320.72 L 193.31 320.64 L 193.35 320.62 L 193.45 320.44 L 193.54 319.66 L 193.74 319.51 L 193.89 319.49 L 194.00 319.15 L 194.07 319.14 L 194.59 318.89 L 194.87 318.69 L 194.96 318.39 L 195.20 318.37 L 195.22 318.37 L 195.24 318.34 L 195.39 316.70 L 195.52 316.61 L 195.94 314.95 L 196.01 314.47 L 196.09 314.46 L 196.21 314.29 L 196.22 314.16 L 196.27 314.08 L 196.31 314.04 L 196.37 314.03 L 196.43 313.94 L 196.60 312.59 L 196.72 312.39 L 196.84 312.00 L 197.01 311.97 L 197.19 311.84 L 197.38 310.89 L 197.51 309.56 L 197.78 309.49 L 197.78 308.99 L 197.94 308.83 L 210.79 308.83 L 211.03 308.81 L 211.64 308.11 L 211.76 308.10 L 211.86 308.10 L 211.88 307.92 L 212.10 307.70 L 212.26 307.67 L 212.34 307.54 L 212.43 307.45 L 212.49 307.40 L 212.72 307.33 L 213.18 307.25 L 213.30 306.89 L 213.38 306.80 L 213.50 306.78 L 214.09 306.60 L 214.17 306.50 L 214.21 306.50 L 214.25 306.36 L 214.38 306.30 L 214.48 306.17 L 214.91 305.28 L 215.54 305.14 L 215.76 305.08 L 216.45 304.86 L 216.77 300.57 L 216.89 300.48 L 217.03 300.06 L 217.23 299.50 L 217.54 299.34 L 217.98 299.33 L 218.56 299.31 L 218.65 299.12 L 219.07 298.92 L 219.35 298.62 L 219.44 298.49 L 219.60 298.44 L 219.73 298.06 L 221.25 297.64 L 222.70 297.64 L 235.63 297.60 L 235.72 297.41 L 235.79 297.29 L 236.19 297.11 L 237.40 295.63 L 237.45 295.53 L 237.62 295.15 L 238.22 295.06 L 238.50 294.06 L 238.92 294.05 L 239.02 294.03 L 239.12 293.35 L 239.87 289.45 L 239.96 289.44 L 240.11 289.41 L 240.28 289.36 L 240.36 288.94 L 240.78 287.47 L 240.93 287.19 L 241.00 287.17 L 241.09 286.49 L 241.28 285.54 L 241.35 284.52 L 241.54 284.07 L 242.10 279.00 L 242.16 278.49 L 242.21 278.49 L 242.30 278.40 L 242.44 278.27 L 242.49 278.22 L 242.54 278.17 L 242.81 276.95 L 242.88 276.10 L 243.21 275.92 L 243.40 274.65 L 243.52 273.85 L 244.53 262.03 L 244.64 262.00 L 282.65 261.43 L 282.69 261.43 L 297.21 261.27 L 298.00 260.95 L 298.16 260.95 L 298.38 260.86 L 298.45 260.71 L 298.53 260.67 L 304.83 260.58 L 305.66 258.33 L 305.97 258.13 L 306.14 257.31 L 310.06 257.14 L 310.08 256.91 L 310.33 256.89 L 311.50 255.47 L 311.57 255.22 L 311.72 255.13 L 312.13 255.03 L 312.18 254.99 L 312.35 254.57 L 312.53 254.45 L 312.55 254.13 L 324.76 253.70 L 324.85 252.49 L 325.34 252.22 L 325.35 250.20 L 325.43 249.89 L 325.53 249.40 L 325.67 248.00 L 325.87 247.26 L 326.05 246.39 L 326.21 246.38 L 326.27 245.72 L 326.52 245.66 L 327.36 242.40 L 327.70 242.05 L 327.76 241.84 L 327.83 241.84 L 327.87 241.61 L 327.99 240.81 L 328.33 240.43 L 328.39 240.38 L 328.60 237.50 L 328.68 237.49 L 328.71 237.19 L 328.79 236.95 L 328.84 236.95 L 328.89 236.52 L 329.15 234.96 L 329.27 234.52 L 329.42 234.47 L 329.52 230.31 L 329.56 229.97 L 329.83 227.60 L 329.91 227.42 L 329.96 227.41 L 330.03 227.41 L 330.07 227.07 L 330.10 227.08 L 330.12 227.08 L 330.26 222.88 L 330.30 222.52 L 330.43 222.50 L 330.53 222.42 L 330.81 222.30 L 331.14 222.15 L 331.15 222.15 L 331.24 222.10 L 331.56 222.02 L 331.71 222.02 L 331.85 222.02 L 332.01 220.19 L 332.12 219.75 L 332.55 219.74 L 332.59 219.45 L 332.64 219.45 L 332.68 219.14 L 332.96 216.49 L 333.01 216.43 L 333.21 216.41 L 352.00 216.34 L 353.07 216.20 L 353.10 216.20 L 353.31 216.20 L 353.33 216.20 L 353.46 215.67 L 353.57 215.65 L 353.66 215.40 L 353.79 215.33 L 353.83 215.29 L 353.88 215.27 L 354.08 214.98 L 354.49 214.71 L 354.74 213.86 L 355.03 213.06 L 355.04 213.01 L 355.09 212.26 L 355.13 212.23 L 355.69 211.78 L 355.70 211.73 L 355.78 211.13 L 356.03 211.06 L 356.18 211.01 L 356.21 209.94 L 356.22 209.88 L 356.29 210.90 L 356.33 210.27 L 356.35 210.25 L 356.49 208.82 L 356.50 208.78 L 356.80 208.66 L 357.60 208.64 L 357.79 208.59 L 357.85 208.58 L 357.89 208.39 L 357.93 208.39 L 358.05 207.68 L 370.88 206.31 L 370.90 206.13 L 371.01 205.99 L 371.05 205.73 L 371.12 193.77 L 371.26 188.87 L 371.28 188.84 L 371.51 188.75 L 371.57 188.75 L 371.61 188.18 L 371.82 188.13 L 372.37 186.97 L 372.38 186.95 L 372.52 186.59 L 372.58 186.60 L 372.61 186.02 L 373.07 185.34 L 373.09 185.31 L 373.79 185.05 L 373.87 184.44 L 374.12 184.45 L 374.41 182.91 L 374.49 182.30 L 374.54 181.81 L 374.67 181.21 L 375.03 181.00 L 375.10 180.85 L 375.26 180.72 L 375.43 180.72 L 375.97 180.72 L 376.03 180.72 L 376.16 180.69 L 376.17 180.69 L 376.34 180.71 L 376.75 180.68 L 377.17 180.45 L 377.23 180.45 L 377.32 180.36 L 377.44 180.19 L 377.77 180.19 L 378.31 179.98 L 378.49 179.50 L 378.78 175.38 L 379.96 178.87 L 380.22 178.85 L 380.41 178.83 L 380.70 178.83 L 380.80 178.76 L 381.09 178.57 L 381.56 178.28 L 381.62 178.09 L 381.71 178.01 L 381.76 178.03 L 381.81 177.97 L 382.17 177.72 L 390.68 177.71 L 390.76 177.72 L 391.29 177.70 L 391.34 177.68 L 391.46 177.16 L 391.56 176.86 L 391.57 176.86 L 391.86 176.81 L 391.93 176.79 L 393.68 176.01 L 393.88 175.95 L 394.03 175.93 L 394.06 175.93 L 394.60 175.74 L 394.79 175.83 L 394.82 175.83 L 395.11 175.78 L 395.43 174.15 L 395.47 174.14 L 395.73 173.95 L 395.84 173.95 L 395.94 173.95 L 396.16 173.77 L 396.64 173.11 L 396.73 173.09 L 396.81 172.90 L 397.01 172.13 L 397.47 171.32 L 397.89 167.53 L 397.97 167.06 L 398.40 166.88 L 398.48 166.78 L 398.54 166.60 L 398.59 165.99 L 398.73 164.90 L 398.77 164.94 L 398.84 164.92 L 399.08 164.92 L 399.45 164.52 L 399.68 164.44 L 399.94 164.42 L 400.06 164.41 L 400.32 164.40 L 400.75 164.40 L 401.18 164.39 L 401.51 164.38 L 401.58 164.37 L 401.66 164.36 L 401.67 164.22 L 401.92 164.15 L 401.99 164.13 L 402.09 163.97 L 402.79 163.94 L 402.80 163.62 L 402.99 163.60 L 403.81 163.61 L 404.35 163.41 L 404.74 163.16 L 404.76 163.03 L 404.79 163.03 L 416.71 162.81 L 416.75 162.80 L 416.88 162.79 L 416.95 162.60 L 416.99 162.58 L 417.00 162.57 L 417.51 162.51 L 417.62 161.83 L 417.77 161.67 L 418.02 160.32 L 418.19 160.31 L 418.39 159.73 L 418.51 159.80 L 418.56 159.80 L 418.62 159.14 L 418.77 158.69 L 418.79 158.21 L 418.84 158.15 L 418.97 158.11 L 419.05 157.88 L 419.16 160.47 L 419.31 160.42 L 419.60 159.39 L 419.73 159.13 L 419.84 158.92 L 420.57 157.44 L 421.20 156.72 L 421.95 155.35 L 422.15 155.29 L 422.36 155.29 L 422.59 155.23 L 426.97 154.84 L 427.34 154.80 L 468.86 153.76 L 599.59 153.52 L 600.03 153.10 L 600.33 153.04 L 600.63 153.04 L 601.08 152.24 L 601.23 151.85 L 601.35 151.13 L 601.56 149.05 L 601.87 149.47 L 602.11 149.02 L 602.16 149.02 L 602.37 148.88 L 602.41 148.88 L 602.63 148.12 L 602.82 146.90 L 603.41 145.60 L 603.43 145.49 L 603.60 143.95 L 604.16 140.12 L 604.18 139.99 L 604.29 139.91 L 604.42 138.54 L 605.03 136.70 L 605.04 136.53 L 605.18 136.44 L 605.32 135.53 L 605.54 134.82 L 605.56 134.68 L 605.66 133.28 L 605.68 133.25 L 605.73 132.85 L 605.99 130.36 L 606.02 130.22 L 606.11 130.07 L 606.39 129.74 L 606.44 129.73 L 606.66 129.26 L 607.02 129.31 L 607.08 129.25 L 607.13 129.22 L 607.19 129.18 L 607.37 127.71 L 607.57 126.52 L 607.59 126.42 L 607.70 124.92 L 607.81 123.47 L 607.84 123.29 L 607.95 121.58 L 608.01 120.24 L 608.23 119.33 L 608.26 119.27 L 608.38 118.99 L 608.53 118.96 L 609.47 118.92 L 609.94 118.88 L 620.15 118.94 L 620.26 118.68 L 620.36 118.46 L 620.53 117.45 L 620.91 117.19 L 620.94 117.09 L 621.01 115.77 L 621.26 114.48 L 621.29 114.37 L 623.52 114.28 L 623.65 113.56 L 624.78 113.34 L 624.90 113.29 L 625.03 111.79 L 626.38 110.39 L 626.96 109.85 L 627.10 108.76 L 627.59 106.88 L 627.90 106.34 L 628.40 105.23 L 629.29 104.67 L 642.96 104.66 L 643.78 104.53 L 643.82 104.56 L 644.96 104.34 L 645.02 104.23 L 645.42 104.15 L 645.88 102.92 L 645.89 102.92 L 645.94 102.87 L 646.55 101.47 L 647.95 100.67 L 648.04 100.60 L 648.19 100.59 L 648.40 100.22 L 648.46 100.12 L 648.54 100.06 L 649.19 100.00 L 649.72 100.00 L 650.00 100.00"/>
	</g>
	<g id="poloto_plot1" class="poloto_plot poloto_imgs poloto_line poloto1 poloto_stroke" fill="none" stroke="black">
		<path d=" M 150.00 379.20 L 150.03 379.18 L 150.05 379.17 L 150.06 379.17 L 150.09 379.17 L 150.13 378.51 L 150.27 378.49 L 150.59 378.47 L 151.06 378.22 L 151.30 378.11 L 151.78 378.14 L 151.87 378.09 L 151.93 378.09 L 152.50 378.04 L 153.55 377.92 L 153.89 375.35 L 153.97 375.35 L 154.61 375.29 L 155.34 375.28 L 155.35 375.28 L 155.35 375.28 L 165.28 375.28 L 165.35 375.28 L 165.48 375.27 L 165.53 375.24 L 165.91 375.23 L 166.08 375.23 L 166.50 375.23 L 166.56 375.23 L 166.68 375.21 L 166.80 375.21 L 166.84 375.21 L 166.94 375.18 L 167.05 375.18 L 167.16 375.18 L 167.44 375.03 L 167.68 375.03 L 167.73 375.03 L 167.84 375.03 L 168.63 376.00 L 168.65 376.00 L 168.75 375.99 L 169.20 375.84 L 169.56 375.68 L 169.97 375.61 L 170.05 375.56 L 170.06 375.56 L 170.14 375.56 L 170.29 375.56 L 170.49 375.50 L 170.88 375.44 L 170.91 375.44 L 170.97 375.44 L 171.07 375.42 L 171.29 375.42 L 171.32 375.42 L 171.55 375.41 L 171.64 375.41 L 171.72 375.41 L 171.82 375.41 L 173.02 375.29 L 173.31 375.28 L 173.99 375.23 L 174.13 375.23 L 174.24 375.23 L 174.29 375.23 L 174.76 375.15 L 174.96 375.15 L 175.20 375.06 L 175.32 375.05 L 175.60 374.84 L 175.72 374.77 L 175.89 374.77 L 176.04 374.76 L 176.57 371.76 L 176.59 371.71 L 176.62 371.71 L 176.80 371.41 L 186.00 371.41 L 186.95 370.12 L 186.99 370.12 L 188.11 370.12 L 188.21 370.12 L 188.31 369.98 L 188.59 369.96 L 188.71 369.96 L 188.76 369.96 L 188.90 369.96 L 189.23 369.96 L 189.24 369.68 L 189.36 369.67 L 189.49 369.67 L 189.63 369.64 L 189.81 369.63 L 189.88 369.63 L 189.91 369.63 L 190.07 369.63 L 190.09 369.63 L 190.26 369.63 L 190.29 369.63 L 190.56 368.36 L 190.60 368.36 L 190.69 368.20 L 190.81 368.20 L 190.96 368.20 L 191.02 368.19 L 191.54 368.18 L 191.55 368.18 L 191.65 368.11 L 191.88 368.11 L 192.09 367.37 L 192.15 367.28 L 192.25 367.28 L 192.30 367.28 L 192.41 367.26 L 192.99 361.89 L 193.05 361.94 L 193.25 361.94 L 193.31 361.94 L 193.35 361.93 L 193.45 361.93 L 193.54 361.85 L 193.74 361.85 L 193.89 361.85 L 194.00 361.85 L 194.07 361.85 L 194.59 361.84 L 194.87 361.83 L 194.96 361.70 L 195.20 361.70 L 195.22 361.70 L 195.24 361.70 L 195.39 361.34 L 195.52 361.24 L 195.94 359.97 L 196.01 359.97 L 196.09 359.97 L 196.21 359.99 L 196.22 359.99 L 196.27 359.99 L 196.31 359.99 L 196.37 359.99 L 196.43 359.99 L 196.60 359.96 L 196.72 359.96 L 196.84 359.95 L 197.01 359.95 L 197.19 359.94 L 197.38 359.46 L 197.51 359.30 L 197.78 359.30 L 197.78 359.30 L 197.94 359.30 L 210.79 359.30 L 211.03 359.29 L 211.64 359.21 L 211.76 359.19 L 211.86 359.19 L 211.88 359.19 L 212.10 359.19 L 212.26 359.19 L 212.34 359.19 L 212.43 359.19 L 212.49 359.19 L 212.72 359.19 L 213.18 359.21 L 213.30 359.21 L 213.38 359.21 L 213.50 359.21 L 214.09 359.11 L 214.17 359.06 L 214.21 359.06 L 214.25 358.99 L 214.38 358.99 L 214.48 358.99 L 214.91 358.50 L 215.54 358.50 L 215.76 358.50 L 216.45 358.50 L 216.77 355.21 L 216.89 355.21 L 217.03 355.21 L 217.23 355.20 L 217.54 355.20 L 217.98 355.20 L 218.56 355.20 L 218.65 355.20 L 219.07 355.12 L 219.35 354.98 L 219.44 354.98 L 219.60 354.98 L 219.73 354.97 L 221.25 354.76 L 222.70 354.76 L 235.63 354.76 L 235.72 354.76 L 235.79 354.76 L 236.19 354.76 L 237.40 353.72 L 237.45 353.69 L 237.62 353.58 L 238.22 353.57 L 238.50 353.33 L 238.92 353.33 L 239.02 353.33 L 239.12 353.33 L 239.87 350.44 L 239.96 350.44 L 240.11 350.44 L 240.28 350.44 L 240.36 350.26 L 240.78 349.91 L 240.93 349.91 L 241.00 349.91 L 241.09 349.38 L 241.28 348.85 L 241.35 348.85 L 241.54 348.84 L 242.10 344.54 L 242.16 344.54 L 242.21 344.54 L 242.30 344.54 L 242.44 344.54 L 242.49 344.54 L 242.54 344.54 L 242.81 344.54 L 242.88 344.44 L 243.21 344.42 L 243.40 344.37 L 243.52 343.85 L 244.53 335.29 L 244.64 335.29 L 282.65 335.29 L 282.69 335.29 L 297.21 335.29 L 298.00 335.16 L 298.16 335.16 L 298.38 335.16 L 298.45 335.16 L 298.53 335.16 L 304.83 335.09 L 305.66 335.01 L 305.97 335.01 L 306.14 334.98 L 310.06 334.91 L 310.08 334.80 L 310.33 334.80 L 311.50 333.64 L 311.57 333.64 L 311.72 333.64 L 312.13 333.64 L 312.18 333.64 L 312.35 333.64 L 312.53 333.64 L 312.55 333.64 L 324.76 333.62 L 324.85 333.41 L 325.34 333.41 L 325.35 332.01 L 325.43 332.01 L 325.53 332.01 L 325.67 331.89 L 325.87 331.89 L 326.05 331.83 L 326.21 331.83 L 326.27 331.83 L 326.52 331.81 L 327.36 329.43 L 327.70 329.43 L 327.76 329.42 L 327.83 329.42 L 327.87 329.42 L 327.99 329.38 L 328.33 329.08 L 328.39 329.04 L 328.60 326.91 L 328.68 326.90 L 328.71 326.90 L 328.79 326.87 L 328.84 326.87 L 328.89 326.87 L 329.15 325.71 L 329.27 325.69 L 329.42 325.67 L 329.52 322.06 L 329.56 322.05 L 329.83 320.02 L 329.91 320.02 L 329.96 320.02 L 330.03 320.02 L 330.07 320.02 L 330.10 320.02 L 330.12 320.02 L 330.26 316.26 L 330.30 316.25 L 330.43 316.24 L 330.53 316.24 L 330.81 316.16 L 331.14 316.06 L 331.15 316.06 L 331.24 316.04 L 331.56 315.98 L 331.71 315.98 L 331.85 315.98 L 332.01 314.36 L 332.12 314.36 L 332.55 314.35 L 332.59 314.35 L 332.64 314.35 L 332.68 314.35 L 332.96 312.03 L 333.01 312.03 L 333.21 312.02 L 352.00 312.02 L 353.07 312.00 L 353.10 312.00 L 353.31 312.00 L 353.33 312.00 L 353.46 312.00 L 353.57 312.00 L 353.66 311.88 L 353.79 311.88 L 353.83 311.88 L 353.88 311.88 L 354.08 311.68 L 354.49 311.54 L 354.74 311.41 L 355.03 310.75 L 355.04 310.75 L 355.09 310.59 L 355.13 310.57 L 355.69 310.17 L 355.70 310.17 L 355.78 310.11 L 356.03 310.11 L 356.18 310.07 L 356.21 309.11 L 356.22 309.11 L 356.29 310.06 L 356.33 310.01 L 356.35 309.99 L 356.49 308.70 L 356.50 308.70 L 356.80 308.65 L 357.60 308.65 L 357.79 308.65 L 357.85 308.65 L 357.89 308.65 L 357.93 308.65 L 358.05 308.57 L 370.88 307.50 L 370.90 307.50 L 371.01 307.49 L 371.05 307.26 L 371.12 295.84 L 371.26 291.59 L 371.28 291.59 L 371.51 291.51 L 371.57 291.51 L 371.61 291.49 L 371.82 291.49 L 372.37 290.46 L 372.38 290.46 L 372.52 290.40 L 372.58 290.40 L 372.61 290.31 L 373.07 289.69 L 373.09 289.69 L 373.79 289.56 L 373.87 289.52 L 374.12 289.53 L 374.41 288.13 L 374.49 287.99 L 374.54 287.86 L 374.67 287.33 L 375.03 287.20 L 375.10 287.09 L 375.26 287.09 L 375.43 287.09 L 375.97 287.09 L 376.03 287.09 L 376.16 287.09 L 376.17 287.09 L 376.34 287.10 L 376.75 287.10 L 377.17 286.96 L 377.23 286.96 L 377.32 286.94 L 377.44 286.94 L 377.77 286.94 L 378.31 286.94 L 378.49 286.81 L 378.78 283.13 L 379.96 286.61 L 380.22 286.59 L 380.41 286.58 L 380.70 286.58 L 380.80 286.54 L 381.09 286.52 L 381.56 286.31 L 381.62 286.31 L 381.71 286.31 L 381.76 286.31 L 381.81 286.31 L 382.17 286.10 L 390.68 286.10 L 390.76 286.11 L 391.29 286.09 L 391.34 286.09 L 391.46 286.06 L 391.56 285.80 L 391.57 285.80 L 391.86 285.77 L 391.93 285.77 L 393.68 285.56 L 393.88 285.56 L 394.03 285.56 L 394.06 285.56 L 394.60 285.41 L 394.79 285.41 L 394.82 285.41 L 395.11 285.40 L 395.43 284.53 L 395.47 284.53 L 395.73 284.38 L 395.84 284.38 L 395.94 284.38 L 396.16 284.38 L 396.64 284.37 L 396.73 284.35 L 396.81 284.26 L 397.01 284.12 L 397.47 283.98 L 397.89 280.50 L 397.97 280.39 L 398.40 280.22 L 398.48 280.18 L 398.54 280.06 L 398.59 279.81 L 398.73 278.77 L 398.77 278.82 L 398.84 278.80 L 399.08 278.79 L 399.45 278.65 L 399.68 278.59 L 399.94 278.58 L 400.06 278.56 L 400.32 278.55 L 400.75 278.55 L 401.18 278.54 L 401.51 278.54 L 401.58 278.53 L 401.66 278.53 L 401.67 278.52 L 401.92 278.52 L 401.99 278.51 L 402.09 278.38 L 402.79 278.37 L 402.80 278.37 L 402.99 278.35 L 403.81 278.35 L 404.35 278.18 L 404.74 278.03 L 404.76 278.03 L 404.79 278.03 L 416.71 278.03 L 416.75 278.03 L 416.88 278.03 L 416.95 278.03 L 416.99 278.01 L 417.00 278.01 L 417.51 278.01 L 417.62 277.99 L 417.77 277.97 L 418.02 277.95 L 418.19 277.95 L 418.39 277.86 L 418.51 277.86 L 418.56 277.86 L 418.62 277.86 L 418.77 277.55 L 418.79 277.55 L 418.84 277.55 L 418.97 277.55 L 419.05 277.55 L 419.16 277.62 L 419.31 277.62 L 419.60 277.61 L 419.73 277.61 L 419.84 277.61 L 420.57 276.59 L 421.20 276.31 L 421.95 275.58 L 422.15 275.58 L 422.36 275.58 L 422.59 275.58 L 426.97 275.49 L 427.34 275.49 L 468.86 275.36 L 599.59 275.17 L 600.03 275.11 L 600.33 275.10 L 600.63 275.10 L 601.08 274.63 L 601.23 274.63 L 601.35 274.63 L 601.56 272.92 L 601.87 273.24 L 602.11 273.22 L 602.16 273.22 L 602.37 273.21 L 602.41 273.21 L 602.63 273.20 L 602.82 273.12 L 603.41 272.04 L 603.43 272.04 L 603.60 271.94 L 604.16 268.44 L 604.18 268.44 L 604.29 268.43 L 604.42 268.38 L 605.03 266.75 L 605.04 266.75 L 605.18 266.75 L 605.32 266.71 L 605.54 266.11 L 605.56 266.11 L 605.66 266.10 L 605.68 266.10 L 605.73 265.77 L 605.99 263.45 L 606.02 263.45 L 606.11 263.45 L 606.39 263.26 L 606.44 263.26 L 606.66 262.88 L 607.02 262.88 L 607.08 262.88 L 607.13 262.88 L 607.19 262.88 L 607.37 262.87 L 607.57 261.82 L 607.59 261.82 L 607.70 261.82 L 607.81 261.02 L 607.84 261.02 L 607.95 260.18 L 608.01 260.13 L 608.23 259.30 L 608.26 259.30 L 608.38 259.30 L 608.53 259.29 L 609.47 259.29 L 609.94 259.28 L 620.15 259.28 L 620.26 259.28 L 620.36 259.28 L 620.53 259.28 L 620.91 259.06 L 620.94 259.06 L 621.01 258.99 L 621.26 257.83 L 621.29 257.83 L 623.52 257.86 L 623.65 257.63 L 624.78 257.63 L 624.90 257.62 L 625.03 257.54 L 626.38 256.58 L 626.96 256.40 L 627.10 256.34 L 627.59 254.53 L 627.90 254.53 L 628.40 254.38 L 629.29 254.38 L 642.96 254.37 L 643.78 254.26 L 643.82 254.29 L 644.96 254.29 L 645.02 254.29 L 645.42 254.29 L 645.88 254.25 L 645.89 254.25 L 645.94 254.25 L 646.55 253.19 L 647.95 253.16 L 648.04 253.16 L 648.19 253.16 L 648.40 253.12 L 648.46 253.08 L 648.54 253.08 L 649.19 253.03 L 649.72 253.03 L 650.00 253.03"/>
	</g>
	<g id="poloto_plot2" class="poloto_plot poloto_imgs poloto_line poloto2 poloto_stroke" fill="none" stroke="black">
		<path d=" M 150.00 390.67 L 150.03 390.66 L 150.05 390.66 L 150.06 390.66 L 150.09 390.66 L 150.13 388.27 L 150.27 387.94 L 150.59 387.94 L 151.06 387.92 L 151.30 386.49 L 151.78 386.37 L 151.87 386.32 L 151.93 386.29 L 152.50 385.65 L 153.55 385.15 L 153.89 385.05 L 153.97 385.06 L 154.61 385.02 L 155.34 385.02 L 155.35 385.02 L 155.35 385.02 L 165.28 385.02 L 165.35 385.01 L 165.48 384.99 L 165.53 384.99 L 165.91 384.85 L 166.08 384.81 L 166.50 384.57 L 166.56 384.47 L 166.68 384.26 L 166.80 384.23 L 166.84 384.23 L 166.94 384.19 L 167.05 384.19 L 167.16 384.19 L 167.44 383.95 L 167.68 383.73 L 167.73 383.73 L 167.84 383.61 L 168.63 383.32 L 168.65 383.32 L 168.75 383.23 L 169.20 382.91 L 169.56 382.52 L 169.97 382.36 L 170.05 382.36 L 170.06 382.36 L 170.14 382.15 L 170.29 382.15 L 170.49 382.12 L 170.88 381.96 L 170.91 381.68 L 170.97 381.68 L 171.07 381.54 L 171.29 381.54 L 171.32 381.54 L 171.55 381.12 L 171.64 381.10 L 171.72 381.06 L 171.82 380.87 L 173.02 380.75 L 173.31 380.71 L 173.99 380.42 L 174.13 380.42 L 174.24 380.40 L 174.29 380.19 L 174.76 379.02 L 174.96 379.00 L 175.20 378.65 L 175.32 378.62 L 175.60 378.46 L 175.72 378.41 L 175.89 378.15 L 176.04 377.95 L 176.57 377.95 L 176.59 377.92 L 176.62 377.75 L 176.80 376.63 L 186.00 376.51 L 186.95 376.17 L 186.99 376.12 L 188.11 375.84 L 188.21 375.84 L 188.31 375.63 L 188.59 375.49 L 188.71 375.23 L 188.76 375.02 L 188.90 374.60 L 189.23 374.59 L 189.24 374.59 L 189.36 374.30 L 189.49 374.29 L 189.63 373.98 L 189.81 373.74 L 189.88 373.61 L 189.91 373.60 L 190.07 373.32 L 190.09 373.32 L 190.26 373.06 L 190.29 373.05 L 190.56 372.96 L 190.60 372.96 L 190.69 372.86 L 190.81 372.85 L 190.96 372.85 L 191.02 372.83 L 191.54 372.57 L 191.55 372.58 L 191.65 372.07 L 191.88 372.06 L 192.09 371.90 L 192.15 371.90 L 192.25 371.89 L 192.30 371.85 L 192.41 371.15 L 192.99 370.57 L 193.05 370.25 L 193.25 370.22 L 193.31 370.14 L 193.35 370.12 L 193.45 369.98 L 193.54 369.42 L 193.74 369.34 L 193.89 369.32 L 194.00 369.05 L 194.07 369.04 L 194.59 368.83 L 194.87 368.69 L 194.96 368.56 L 195.20 368.55 L 195.22 368.55 L 195.24 368.52 L 195.39 367.52 L 195.52 367.51 L 195.94 367.37 L 196.01 366.97 L 196.09 366.97 L 196.21 366.80 L 196.22 366.71 L 196.27 366.64 L 196.31 366.60 L 196.37 366.60 L 196.43 366.52 L 196.60 365.40 L 196.72 365.28 L 196.84 364.94 L 197.01 364.92 L 197.19 364.81 L 197.38 364.46 L 197.51 363.49 L 197.78 363.41 L 197.78 363.00 L 197.94 362.89 L 210.79 362.90 L 211.03 362.90 L 211.64 362.44 L 211.76 362.44 L 211.86 362.44 L 211.88 362.32 L 212.10 362.12 L 212.26 362.08 L 212.34 361.96 L 212.43 361.88 L 212.49 361.84 L 212.72 361.77 L 213.18 361.87 L 213.30 361.56 L 213.38 361.48 L 213.50 361.47 L 214.09 361.41 L 214.17 361.36 L 214.21 361.36 L 214.25 361.30 L 214.38 361.24 L 214.48 361.13 L 214.91 360.84 L 215.54 360.72 L 215.76 360.66 L 216.45 360.48 L 216.77 360.02 L 216.89 359.95 L 217.03 359.59 L 217.23 359.13 L 217.54 359.01 L 217.98 359.00 L 218.56 358.98 L 218.65 358.82 L 219.07 358.70 L 219.35 358.56 L 219.44 358.44 L 219.60 358.40 L 219.73 358.09 L 221.25 357.94 L 222.70 357.94 L 235.63 357.91 L 235.72 357.74 L 235.79 357.63 L 236.19 357.46 L 237.40 357.16 L 237.45 357.11 L 237.62 356.90 L 238.22 356.81 L 238.50 356.22 L 238.92 356.21 L 239.02 356.19 L 239.12 355.61 L 239.87 355.06 L 239.96 355.06 L 240.11 355.03 L 240.28 354.98 L 240.36 354.78 L 240.78 353.87 L 240.93 353.64 L 241.00 353.63 L 241.09 353.53 L 241.28 353.18 L 241.35 352.27 L 241.54 351.90 L 242.10 351.69 L 242.16 351.23 L 242.21 351.23 L 242.30 351.15 L 242.44 351.03 L 242.49 350.99 L 242.54 350.95 L 242.81 349.89 L 242.88 349.27 L 243.21 349.15 L 243.40 348.10 L 243.52 347.90 L 244.53 346.24 L 244.64 346.21 L 282.65 345.73 L 282.69 345.73 L 297.21 345.59 L 298.00 345.42 L 298.16 345.42 L 298.38 345.33 L 298.45 345.20 L 298.53 345.17 L 304.83 345.15 L 305.66 343.25 L 305.97 343.09 L 306.14 342.43 L 310.06 342.35 L 310.08 342.29 L 310.33 342.27 L 311.50 342.16 L 311.57 341.94 L 311.72 341.86 L 312.13 341.76 L 312.18 341.73 L 312.35 341.37 L 312.53 341.26 L 312.55 340.97 L 324.76 340.62 L 324.85 339.75 L 325.34 339.53 L 325.35 339.20 L 325.43 338.94 L 325.53 338.54 L 325.67 337.49 L 325.87 336.92 L 326.05 336.18 L 326.21 336.17 L 326.27 335.60 L 326.52 335.56 L 327.36 335.02 L 327.70 334.77 L 327.76 334.61 L 327.83 334.61 L 327.87 334.42 L 327.99 333.77 L 328.33 333.71 L 328.39 333.70 L 328.60 333.28 L 328.68 333.28 L 328.71 333.04 L 328.79 332.89 L 328.84 332.88 L 328.89 332.55 L 329.15 332.34 L 329.27 332.01 L 329.42 331.99 L 329.52 331.81 L 329.56 331.56 L 329.83 331.42 L 329.91 331.27 L 329.96 331.27 L 330.03 331.27 L 330.07 331.00 L 330.10 331.01 L 330.12 331.01 L 330.26 330.92 L 330.30 330.63 L 330.43 330.63 L 330.53 330.55 L 330.81 330.53 L 331.14 330.50 L 331.15 330.50 L 331.24 330.48 L 331.56 330.48 L 331.71 330.48 L 331.85 330.48 L 332.01 330.43 L 332.12 330.09 L 332.55 330.08 L 332.59 329.88 L 332.64 329.88 L 332.68 329.64 L 332.96 329.56 L 333.01 329.51 L 333.21 329.51 L 352.00 329.44 L 353.07 329.35 L 353.10 329.35 L 353.31 329.34 L 353.33 329.35 L 353.46 328.94 L 353.57 328.92 L 353.66 328.81 L 353.79 328.75 L 353.83 328.71 L 353.88 328.69 L 354.08 328.65 L 354.49 328.57 L 354.74 328.02 L 355.03 327.99 L 355.04 327.95 L 355.09 327.49 L 355.13 327.49 L 355.69 327.49 L 355.70 327.44 L 355.78 327.02 L 356.03 326.96 L 356.18 326.95 L 356.21 326.94 L 356.22 326.89 L 356.29 326.86 L 356.33 326.42 L 356.35 326.41 L 356.49 326.41 L 356.50 326.38 L 356.80 326.34 L 357.60 326.32 L 357.79 326.28 L 357.85 326.27 L 357.89 326.13 L 357.93 326.13 L 358.05 325.64 L 370.88 325.49 L 370.90 325.35 L 371.01 325.25 L 371.05 325.24 L 371.12 324.82 L 371.26 324.72 L 371.28 324.69 L 371.51 324.69 L 371.57 324.69 L 371.61 324.27 L 371.82 324.22 L 372.37 324.21 L 372.38 324.18 L 372.52 323.96 L 372.58 323.96 L 372.61 323.58 L 373.07 323.58 L 373.09 323.56 L 373.79 323.46 L 373.87 323.00 L 374.12 323.00 L 374.41 323.00 L 374.49 322.66 L 374.54 322.40 L 374.67 322.39 L 375.03 322.33 L 375.10 322.31 L 375.26 322.21 L 375.43 322.21 L 375.97 322.21 L 376.03 322.21 L 376.16 322.18 L 376.17 322.18 L 376.34 322.18 L 376.75 322.15 L 377.17 322.11 L 377.23 322.10 L 377.32 322.06 L 377.44 321.93 L 377.77 321.93 L 378.31 321.78 L 378.49 321.52 L 378.78 321.50 L 379.96 321.22 L 380.22 321.22 L 380.41 321.21 L 380.70 321.20 L 380.80 321.18 L 381.09 321.04 L 381.56 321.02 L 381.62 320.90 L 381.71 320.84 L 381.76 320.85 L 381.81 320.80 L 382.17 320.78 L 390.68 320.78 L 390.76 320.78 L 391.29 320.78 L 391.34 320.76 L 391.46 320.38 L 391.56 320.36 L 391.57 320.36 L 391.86 320.35 L 391.93 320.33 L 393.68 319.77 L 393.88 319.71 L 394.03 319.69 L 394.06 319.69 L 394.60 319.68 L 394.79 319.76 L 394.82 319.75 L 395.11 319.72 L 395.43 319.18 L 395.47 319.17 L 395.73 319.15 L 395.84 319.15 L 395.94 319.15 L 396.16 319.04 L 396.64 318.56 L 396.73 318.56 L 396.81 318.48 L 397.01 318.04 L 397.47 317.55 L 397.89 317.58 L 397.97 317.32 L 398.40 317.32 L 398.48 317.29 L 398.54 317.27 L 398.59 317.01 L 398.73 317.00 L 398.77 317.00 L 398.84 317.00 L 399.08 317.00 L 399.45 316.79 L 399.68 316.77 L 399.94 316.77 L 400.06 316.77 L 400.32 316.77 L 400.75 316.77 L 401.18 316.77 L 401.51 316.77 L 401.58 316.76 L 401.66 316.76 L 401.67 316.67 L 401.92 316.60 L 401.99 316.60 L 402.09 316.59 L 402.79 316.58 L 402.80 316.33 L 402.99 316.33 L 403.81 316.34 L 404.35 316.33 L 404.74 316.28 L 404.76 316.17 L 404.79 316.17 L 416.71 316.01 L 416.75 316.00 L 416.88 315.99 L 416.95 315.83 L 416.99 315.83 L 417.00 315.82 L 417.51 315.77 L 417.62 315.26 L 417.77 315.15 L 418.02 314.14 L 418.19 314.13 L 418.39 313.69 L 418.51 313.74 L 418.56 313.74 L 418.62 313.19 L 418.77 313.09 L 418.79 312.71 L 418.84 312.65 L 418.97 312.62 L 419.05 312.43 L 419.16 314.70 L 419.31 314.66 L 419.60 313.75 L 419.73 313.55 L 419.84 313.35 L 420.57 312.98 L 421.20 312.60 L 421.95 312.07 L 422.15 312.01 L 422.36 312.01 L 422.59 311.96 L 426.97 311.69 L 427.34 311.66 L 468.86 310.96 L 599.59 310.93 L 600.03 310.61 L 600.33 310.56 L 600.63 310.56 L 601.08 310.27 L 601.23 309.94 L 601.35 309.31 L 601.56 309.15 L 601.87 309.20 L 602.11 308.84 L 602.16 308.84 L 602.37 308.72 L 602.41 308.72 L 602.63 308.12 L 602.82 307.19 L 603.41 307.09 L 603.43 307.00 L 603.60 305.80 L 604.16 305.75 L 604.18 305.63 L 604.29 305.56 L 604.42 304.47 L 605.03 304.42 L 605.04 304.26 L 605.18 304.19 L 605.32 303.47 L 605.54 303.45 L 605.56 303.33 L 605.66 302.15 L 605.68 302.11 L 605.73 302.08 L 605.99 302.08 L 606.02 301.96 L 606.11 301.87 L 606.39 301.76 L 606.44 301.75 L 606.66 301.69 L 607.02 301.74 L 607.08 301.68 L 607.13 301.65 L 607.19 301.61 L 607.37 300.38 L 607.57 300.36 L 607.59 300.25 L 607.70 298.99 L 607.81 298.53 L 607.84 298.36 L 607.95 297.75 L 608.01 296.68 L 608.23 296.66 L 608.26 296.60 L 608.38 296.38 L 608.53 296.38 L 609.47 296.34 L 609.94 296.32 L 620.15 296.36 L 620.26 296.12 L 620.36 295.94 L 620.53 295.09 L 620.91 295.08 L 620.94 294.99 L 621.01 293.91 L 621.26 293.90 L 621.29 293.80 L 623.52 293.69 L 623.65 293.30 L 624.78 293.11 L 624.90 293.07 L 625.03 291.87 L 626.38 291.53 L 626.96 291.25 L 627.10 290.35 L 627.59 290.34 L 627.90 289.84 L 628.40 289.07 L 629.29 288.60 L 642.96 288.60 L 643.78 288.58 L 643.82 288.58 L 644.96 288.41 L 645.02 288.31 L 645.42 288.24 L 645.88 287.24 L 645.89 287.24 L 645.94 287.19 L 646.55 286.98 L 647.95 286.31 L 648.04 286.24 L 648.19 286.24 L 648.40 285.95 L 648.46 285.91 L 648.54 285.86 L 649.19 285.86 L 649.72 285.86 L 650.00 285.86"/>
	</g>
	<g class="poloto_legend poloto_imgs poloto_line poloto0 poloto_stroke"><line x1="680" x2="730" y1="81.25" y2="81.25"/></g>
	<g class="poloto_legend poloto_imgs poloto_line poloto1 poloto_stroke"><line x1="680" x2="730" y1="131.25" y2="131.25"/></g>
	<g class="poloto_legend poloto_imgs poloto_line poloto2 poloto_stroke"><line x1="680" x2="730" y1="181.25" y2="181.25"/></g>
	<text class="poloto_legend poloto_text poloto_line poloto0" x="675" y="100">total</text>
	<text class="poloto_legend poloto_text poloto_line poloto1" x="675" y="150">code</text>
	<text class="poloto_legend poloto_text poloto_line poloto2" x="675" y="200">docs</text>
	<text class="poloto_text poloto_name poloto_title" x="400.00" y="37.50">Workspace lines over time</text>
	<text class="poloto_text poloto_name poloto_x" x="400.00" y="640">date (JST)</text>
	<text class="poloto_text poloto_name poloto_y" x="37.50" y="250.00" transform="rotate(-90,37.50,250.00)">lines</text>
	<text class="poloto_text poloto_ticks poloto_y">
		<tspan x="135.00" y="400.00">0</tspan>
		<tspan x="135.00" y="311.27">50K</tspan>
		<tspan x="135.00" y="222.53">100K</tspan>
		<tspan x="135.00" y="133.80">150K</tspan>
	</text>
	<g class="poloto_imgs poloto_ticks poloto_y" stroke="black">
		<line x1="150.00" x2="144.00" y1="400.00" y2="400.00"/>
		<line x1="150.00" x2="144.00" y1="311.27" y2="311.27"/>
		<line x1="150.00" x2="144.00" y1="222.53" y2="222.53"/>
		<line x1="150.00" x2="144.00" y1="133.80" y2="133.80"/>
	</g>
	<g class="poloto_text poloto_ticks poloto_x">
		<text x="235.47" y="430.00" text-anchor="end" transform="rotate(-90 235.47 430.00)">2026-04-24 12:06</text>
		<text x="367.02" y="430.00" text-anchor="end" transform="rotate(-90 367.02 430.00)">2026-04-30 07:00</text>
		<text x="498.58" y="430.00" text-anchor="end" transform="rotate(-90 498.58 430.00)">2026-05-06 01:53</text>
		<text x="630.13" y="430.00" text-anchor="end" transform="rotate(-90 630.13 430.00)">2026-05-11 20:46</text>
	</g>
	<g class="poloto_imgs poloto_ticks poloto_x" stroke="black">
		<line x1="235.47" x2="235.47" y1="400.00" y2="405.00"/>
		<line x1="367.02" x2="367.02" y1="400.00" y2="405.00"/>
		<line x1="498.58" x2="498.58" y1="400.00" y2="405.00"/>
		<line x1="630.13" x2="630.13" y1="400.00" y2="405.00"/>
	</g>
	<path class="poloto_imgs poloto_ticks poloto_x" stroke="black" style="stroke-dasharray:13.155658274935368;stroke-dashoffset:-85.465207756788;" d=" M 150.00 400.00 L 650.00 400.00"/>
	<path class="poloto_imgs poloto_ticks poloto_y" stroke="black" style="stroke-dasharray:8.873481895139106;stroke-dashoffset:-0;" d=" M 150.00 400.00 L 150.00 100.00"/>
</svg>

