<svg class="poloto" width="800" height="680" viewBox="0 0 800 680" xmlns="http://www.w3.org/2000/svg">
	<style>
.poloto{
  stroke-linecap:round;
  stroke-linejoin:round;
  font-family:Roboto,sans-serif;
  font-size:16px;
}
.poloto_background{fill:AliceBlue;}
.poloto_scatter{stroke-width:7}
.poloto_line{stroke-width:2}
.poloto_text{fill: black;}
.poloto_name{font-size:24px;dominant-baseline:auto;text-anchor:middle;}
.poloto_where{dominant-baseline:middle;text-anchor:start}
.poloto_text.poloto_legend{font-size:20px;dominant-baseline:middle;text-anchor:start;}
.poloto_text.poloto_ticks.poloto_y{dominant-baseline:middle;text-anchor:end}
.poloto_text.poloto_ticks.poloto_x{dominant-baseline:auto;text-anchor:middle}
.poloto_imgs.poloto_ticks{stroke: black;stroke-width:3;fill:none;stroke-dasharray:none}
.poloto_grid{stroke:gray;stroke-width:0.5}

.poloto0.poloto_stroke{stroke:blue;}
.poloto1.poloto_stroke{stroke:red;}
.poloto2.poloto_stroke{stroke:green;}
.poloto3.poloto_stroke{stroke:gold;}
.poloto4.poloto_stroke{stroke:aqua;}
.poloto5.poloto_stroke{stroke:lime;}
.poloto6.poloto_stroke{stroke:orange;}
.poloto7.poloto_stroke{stroke:chocolate;}
.poloto0.poloto_fill{fill:blue;}
.poloto1.poloto_fill{fill:red;}
.poloto2.poloto_fill{fill:green;}
.poloto3.poloto_fill{fill:gold;}
.poloto4.poloto_fill{fill:aqua;}
.poloto5.poloto_fill{fill:lime;}
.poloto6.poloto_fill{fill:orange;}
.poloto7.poloto_fill{fill:chocolate;}
	</style>
	<circle r="1e5" class="poloto_background" fill="white"/>
	<g id="poloto_plot0" class="poloto_plot poloto_imgs poloto_line poloto0 poloto_stroke" fill="none" stroke="black">
		<path d=" M 150.00 369.40 L 150.03 369.37 L 150.04 369.36 L 150.05 369.36 L 150.08 369.36 L 150.11 366.03 L 150.23 365.63 L 150.51 365.62 L 150.93 365.34 L 151.14 363.65 L 151.56 363.55 L 151.64 363.46 L 151.69 363.42 L 152.19 362.60 L 153.11 361.93 L 153.40 359.32 L 153.48 359.33 L 154.04 359.22 L 154.68 359.21 L 154.68 359.21 L 154.69 359.21 L 163.38 359.21 L 163.44 359.21 L 163.55 359.19 L 163.60 359.16 L 163.93 359.00 L 164.08 358.96 L 164.45 358.72 L 164.50 358.62 L 164.60 358.38 L 164.71 358.35 L 164.75 358.34 L 164.84 358.28 L 164.93 358.28 L 165.03 358.28 L 165.27 357.90 L 165.48 357.66 L 165.52 357.66 L 165.63 357.52 L 166.32 358.12 L 166.33 358.11 L 166.42 358.02 L 166.81 357.57 L 167.13 357.04 L 167.48 356.80 L 167.56 356.76 L 167.57 356.76 L 167.64 356.56 L 167.77 356.56 L 167.95 356.48 L 168.29 356.28 L 168.31 355.97 L 168.37 355.97 L 168.45 355.81 L 168.65 355.81 L 168.67 355.81 L 168.87 355.36 L 168.95 355.34 L 169.02 355.30 L 169.10 355.12 L 170.16 354.88 L 170.42 354.83 L 171.01 354.52 L 171.13 354.52 L 171.22 354.51 L 171.27 354.28 L 171.68 352.96 L 171.86 352.93 L 172.07 352.50 L 172.17 352.45 L 172.42 352.09 L 172.52 351.96 L 172.67 351.72 L 172.80 351.51 L 173.27 348.47 L 173.28 348.40 L 173.31 348.22 L 173.47 346.76 L 181.53 346.65 L 182.36 344.99 L 182.39 344.95 L 183.37 344.69 L 183.46 344.68 L 183.55 344.35 L 183.79 344.19 L 183.90 343.90 L 183.94 343.65 L 184.06 343.22 L 184.35 343.21 L 184.36 342.91 L 184.47 342.59 L 184.58 342.58 L 184.71 342.22 L 184.86 341.96 L 184.92 341.82 L 184.95 341.82 L 185.09 341.53 L 185.11 341.53 L 185.26 341.24 L 185.29 341.23 L 185.52 339.86 L 185.55 339.86 L 185.64 339.63 L 185.73 339.62 L 185.87 339.62 L 185.92 339.59 L 186.38 339.33 L 186.39 339.34 L 186.47 338.73 L 186.67 338.72 L 186.85 337.80 L 186.91 337.72 L 187.00 337.72 L 187.04 337.68 L 187.14 336.97 L 187.65 331.01 L 187.70 330.72 L 187.87 330.70 L 187.93 330.63 L 187.97 330.61 L 188.05 330.45 L 188.13 329.77 L 188.31 329.63 L 188.43 329.62 L 188.53 329.32 L 188.59 329.31 L 189.05 329.09 L 189.29 328.92 L 189.37 328.66 L 189.58 328.64 L 189.60 328.64 L 189.62 328.62 L 189.75 327.19 L 189.86 327.10 L 190.23 325.66 L 190.29 325.24 L 190.37 325.22 L 190.46 325.07 L 190.47 324.96 L 190.52 324.89 L 190.55 324.85 L 190.61 324.85 L 190.66 324.77 L 190.80 323.59 L 190.91 323.42 L 191.02 323.07 L 191.16 323.05 L 191.33 322.94 L 191.49 322.10 L 191.60 320.94 L 191.84 320.87 L 191.84 320.44 L 191.98 320.30 L 203.23 320.30 L 203.45 320.29 L 203.98 319.68 L 204.09 319.66 L 204.17 319.66 L 204.19 319.51 L 204.38 319.32 L 204.52 319.29 L 204.60 319.17 L 204.67 319.09 L 204.72 319.05 L 204.92 318.99 L 205.33 318.92 L 205.43 318.60 L 205.51 318.52 L 205.60 318.51 L 206.12 318.36 L 206.20 318.26 L 206.23 318.26 L 206.27 318.15 L 206.38 318.09 L 206.47 317.98 L 206.85 317.20 L 207.39 317.08 L 207.59 317.03 L 208.19 316.83 L 208.47 313.08 L 208.57 313.00 L 208.70 312.64 L 208.87 312.15 L 209.15 312.01 L 209.53 311.99 L 210.04 311.98 L 210.12 311.82 L 210.49 311.64 L 210.73 311.37 L 210.80 311.26 L 210.95 311.22 L 211.06 310.89 L 212.39 310.52 L 213.66 310.52 L 224.99 310.48 L 225.06 310.32 L 225.13 310.22 L 225.48 310.06 L 226.54 308.76 L 226.58 308.68 L 226.73 308.35 L 227.25 308.26 L 227.50 307.39 L 227.87 307.38 L 227.96 307.37 L 228.04 306.77 L 228.70 303.36 L 228.78 303.35 L 228.91 303.33 L 229.06 303.28 L 229.13 302.91 L 229.49 301.63 L 229.63 301.39 L 229.69 301.37 L 229.77 300.78 L 229.93 299.94 L 230.00 299.05 L 230.16 298.66 L 230.65 294.23 L 230.70 293.78 L 230.75 293.78 L 230.82 293.70 L 230.95 293.59 L 230.99 293.55 L 231.04 293.50 L 231.28 292.43 L 231.33 291.69 L 231.62 291.54 L 231.79 290.42 L 231.90 289.72 L 232.78 279.39 L 232.88 279.36 L 266.16 278.87 L 266.19 278.87 L 278.91 278.73 L 279.60 278.44 L 279.75 278.44 L 279.93 278.37 L 279.99 278.24 L 280.07 278.20 L 285.59 278.13 L 286.32 276.16 L 286.58 275.98 L 286.73 275.26 L 290.16 275.12 L 290.19 274.92 L 290.40 274.90 L 291.43 273.66 L 291.49 273.44 L 291.61 273.36 L 291.98 273.27 L 292.02 273.24 L 292.17 272.87 L 292.32 272.76 L 292.35 272.49 L 303.04 272.11 L 303.12 271.05 L 303.54 270.82 L 303.55 269.05 L 303.62 268.78 L 303.71 268.35 L 303.83 267.13 L 304.01 266.48 L 304.16 265.72 L 304.30 265.71 L 304.36 265.13 L 304.58 265.08 L 305.31 262.23 L 305.61 261.93 L 305.66 261.75 L 305.73 261.74 L 305.76 261.54 L 305.87 260.84 L 306.17 260.51 L 306.21 260.46 L 306.40 257.95 L 306.47 257.94 L 306.49 257.67 L 306.56 257.47 L 306.61 257.46 L 306.65 257.09 L 306.88 255.73 L 306.99 255.34 L 307.12 255.29 L 307.21 251.66 L 307.24 251.37 L 307.48 249.30 L 307.54 249.13 L 307.59 249.13 L 307.65 249.13 L 307.69 248.83 L 307.72 248.84 L 307.73 248.84 L 307.85 245.17 L 307.89 244.85 L 308.01 244.83 L 308.09 244.77 L 308.33 244.66 L 308.62 244.53 L 308.64 244.53 L 308.72 244.48 L 308.99 244.41 L 309.12 244.41 L 309.25 244.41 L 309.39 242.81 L 309.48 242.43 L 309.86 242.42 L 309.89 242.17 L 309.94 242.17 L 309.97 241.90 L 310.22 239.58 L 310.26 239.53 L 310.44 239.51 L 326.89 239.45 L 327.82 239.33 L 327.85 239.33 L 328.04 239.33 L 328.05 239.33 L 328.17 238.87 L 328.27 238.85 L 328.34 238.63 L 328.46 238.57 L 328.49 238.54 L 328.53 238.52 L 328.71 238.26 L 329.07 238.03 L 329.29 237.29 L 329.54 236.58 L 329.55 236.54 L 329.60 235.88 L 329.63 235.86 L 330.12 235.47 L 330.13 235.42 L 330.20 234.90 L 330.42 234.84 L 330.55 234.79 L 330.58 233.85 L 330.59 233.81 L 330.65 234.69 L 330.68 234.15 L 330.70 234.13 L 330.82 232.87 L 330.83 232.84 L 331.09 232.73 L 331.79 232.72 L 331.96 232.67 L 332.01 232.66 L 332.05 232.50 L 332.09 232.50 L 332.19 231.88 L 343.43 230.68 L 343.45 230.52 L 343.54 230.41 L 343.57 230.17 L 343.63 219.72 L 343.76 215.44 L 343.77 215.41 L 343.98 215.33 L 344.03 215.33 L 344.06 214.84 L 344.24 214.79 L 344.73 213.78 L 344.74 213.76 L 344.86 213.44 L 344.91 213.45 L 344.94 212.95 L 345.34 212.35 L 345.36 212.33 L 345.97 212.10 L 346.04 211.57 L 346.26 211.58 L 346.52 210.22 L 346.58 209.69 L 346.63 209.27 L 346.74 208.74 L 347.06 208.56 L 347.12 208.43 L 347.26 208.31 L 347.41 208.31 L 347.88 208.31 L 347.94 208.31 L 348.04 208.29 L 348.05 208.29 L 348.21 208.30 L 348.56 208.27 L 348.93 208.08 L 348.99 208.08 L 349.07 208.00 L 349.17 207.85 L 349.46 207.85 L 349.93 207.67 L 350.08 207.25 L 350.34 203.64 L 351.38 206.69 L 351.60 206.68 L 351.77 206.66 L 352.03 206.66 L 352.11 206.60 L 352.37 206.43 L 352.77 206.18 L 352.83 206.02 L 352.90 205.95 L 352.95 205.96 L 352.99 205.91 L 353.31 205.69 L 360.76 205.68 L 360.83 205.69 L 361.29 205.67 L 361.34 205.66 L 361.44 205.20 L 361.53 204.94 L 361.54 204.94 L 361.80 204.90 L 361.86 204.87 L 363.39 204.20 L 363.57 204.14 L 363.70 204.13 L 363.73 204.12 L 364.20 203.96 L 364.36 204.04 L 364.39 204.04 L 364.64 203.99 L 364.92 202.57 L 364.96 202.56 L 365.19 202.39 L 365.28 202.39 L 365.37 202.39 L 365.56 202.24 L 365.98 201.66 L 366.06 201.64 L 366.13 201.48 L 366.30 200.80 L 366.71 200.09 L 367.08 196.78 L 367.15 196.37 L 367.52 196.22 L 367.59 196.13 L 367.65 195.97 L 367.69 195.44 L 367.82 194.48 L 367.85 194.52 L 367.91 194.50 L 368.12 194.50 L 368.44 194.15 L 368.64 194.08 L 368.87 194.07 L 368.98 194.05 L 369.21 194.04 L 369.58 194.04 L 369.96 194.03 L 370.24 194.03 L 370.31 194.02 L 370.38 194.01 L 370.39 193.89 L 370.61 193.83 L 370.67 193.81 L 370.76 193.67 L 371.37 193.65 L 371.38 193.36 L 371.55 193.35 L 372.26 193.35 L 372.73 193.18 L 373.08 192.97 L 373.09 192.85 L 373.12 192.85 L 383.55 192.65 L 383.59 192.65 L 383.71 192.64 L 383.76 192.47 L 383.80 192.45 L 383.81 192.44 L 384.25 192.40 L 384.35 191.80 L 384.49 191.66 L 384.71 190.48 L 384.85 190.47 L 385.03 189.96 L 385.13 190.03 L 385.18 190.02 L 385.23 189.45 L 385.36 189.06 L 385.38 188.64 L 385.42 188.58 L 385.54 188.55 L 385.61 188.35 L 385.70 190.61 L 385.83 190.57 L 386.09 189.67 L 386.20 189.44 L 386.30 189.26 L 386.94 187.96 L 387.49 187.33 L 388.15 186.14 L 388.32 186.08 L 388.50 186.08 L 388.71 186.03 L 392.54 185.69 L 392.86 185.66 L 429.22 184.75 L 543.71 184.53 L 544.09 184.17 L 544.35 184.12 L 544.61 184.12 L 545.01 183.41 L 545.15 183.08 L 545.25 182.45 L 545.43 180.63 L 545.70 181.00 L 545.91 180.61 L 545.96 180.60 L 546.13 180.48 L 546.17 180.48 L 546.36 179.81 L 546.53 178.75 L 547.05 177.61 L 547.07 177.52 L 547.22 176.17 L 547.71 172.82 L 547.72 172.71 L 547.82 172.63 L 547.94 171.44 L 548.47 169.83 L 548.48 169.68 L 548.60 169.61 L 548.72 168.81 L 548.92 168.18 L 548.93 168.07 L 549.02 166.84 L 549.03 166.81 L 549.08 166.47 L 549.31 164.29 L 549.33 164.17 L 549.41 164.04 L 549.66 163.75 L 549.70 163.74 L 549.90 163.32 L 550.21 163.37 L 550.26 163.32 L 550.30 163.29 L 550.36 163.26 L 550.52 161.98 L 550.69 160.93 L 550.71 160.84 L 550.81 159.54 L 550.91 158.26 L 550.93 158.11 L 551.03 156.61 L 551.07 155.44 L 551.27 154.65 L 551.30 154.59 L 551.40 154.35 L 551.54 154.33 L 552.36 154.29 L 552.77 154.26 L 561.71 154.31 L 561.80 154.08 L 561.89 153.88 L 562.04 153.01 L 562.38 152.78 L 562.40 152.69 L 562.47 151.53 L 562.68 150.41 L 562.70 150.31 L 564.66 150.24 L 564.77 149.60 L 565.76 149.41 L 565.87 149.37 L 565.98 148.06 L 567.17 146.83 L 567.67 146.36 L 567.80 145.41 L 568.23 143.76 L 568.49 143.29 L 568.93 142.32 L 569.72 141.83 L 581.69 141.82 L 582.40 141.71 L 582.43 141.73 L 583.44 141.54 L 583.49 141.45 L 583.84 141.37 L 584.24 140.30 L 584.25 140.30 L 584.29 140.26 L 584.82 139.04 L 586.05 138.34 L 586.13 138.28 L 586.26 138.27 L 586.45 137.94 L 586.50 137.86 L 586.57 137.80 L 587.14 137.75 L 587.60 137.75 L 587.85 137.75 L 587.88 137.70 L 588.39 136.64 L 588.79 136.43 L 588.80 136.35 L 588.85 136.27 L 588.91 135.98 L 601.90 135.57 L 601.92 135.55 L 601.96 135.53 L 602.21 135.41 L 602.41 135.28 L 603.55 133.63 L 603.84 133.44 L 604.66 132.94 L 605.37 132.83 L 605.89 132.67 L 606.04 131.15 L 606.70 129.37 L 606.94 129.25 L 607.03 128.10 L 608.95 125.99 L 608.97 125.99 L 609.08 125.48 L 609.44 125.42 L 609.45 125.42 L 609.47 125.29 L 609.53 125.13 L 609.70 124.96 L 609.91 124.08 L 611.90 121.94 L 612.16 121.69 L 612.34 121.31 L 612.37 121.26 L 612.40 120.96 L 621.25 120.00 L 621.54 119.26 L 621.71 119.23 L 621.77 118.75 L 622.60 118.52 L 622.78 118.03 L 622.93 118.03 L 623.03 117.01 L 623.30 114.41 L 623.35 114.37 L 623.72 114.33 L 623.81 113.48 L 624.13 112.46 L 624.19 111.75 L 624.46 111.11 L 624.65 110.76 L 624.80 109.98 L 625.13 109.32 L 625.17 108.58 L 625.59 108.41 L 625.63 108.41 L 625.70 107.47 L 625.79 107.47 L 625.83 107.39 L 626.33 105.63 L 627.04 105.05 L 627.40 105.24 L 628.57 105.16 L 628.60 105.15 L 628.78 105.13 L 628.86 105.11 L 628.99 104.99 L 629.14 104.89 L 629.29 104.69 L 629.64 104.44 L 629.98 104.42 L 631.02 104.24 L 631.07 104.23 L 632.12 104.07 L 632.57 103.96 L 641.52 103.94 L 641.97 103.81 L 642.19 103.72 L 642.29 103.72 L 642.32 103.72 L 642.55 103.70 L 642.65 103.64 L 642.91 103.47 L 643.07 103.44 L 643.66 103.26 L 643.96 102.86 L 644.46 102.80 L 644.60 102.55 L 644.77 102.39 L 645.00 102.19 L 645.77 102.24 L 645.84 102.22 L 646.97 101.73 L 647.15 101.44 L 647.37 101.35 L 647.92 101.12 L 648.17 101.18 L 648.30 101.56 L 648.41 101.54 L 648.56 101.38 L 649.04 100.22 L 649.55 100.10 L 650.00 100.00"/>
	</g>
	<g id="poloto_plot1" class="poloto_plot poloto_imgs poloto_line poloto1 poloto_stroke" fill="none" stroke="black">
		<path d=" M 150.00 381.81 L 150.03 381.80 L 150.04 381.79 L 150.05 381.79 L 150.08 381.79 L 150.11 381.21 L 150.23 381.19 L 150.51 381.18 L 150.93 380.96 L 151.14 380.87 L 151.56 380.89 L 151.64 380.85 L 151.69 380.85 L 152.19 380.81 L 153.11 380.70 L 153.40 378.45 L 153.48 378.45 L 154.04 378.40 L 154.68 378.39 L 154.68 378.39 L 154.69 378.39 L 163.38 378.39 L 163.44 378.39 L 163.55 378.38 L 163.60 378.36 L 163.93 378.34 L 164.08 378.34 L 164.45 378.34 L 164.50 378.34 L 164.60 378.33 L 164.71 378.33 L 164.75 378.33 L 164.84 378.30 L 164.93 378.30 L 165.03 378.30 L 165.27 378.18 L 165.48 378.18 L 165.52 378.18 L 165.63 378.18 L 166.32 379.02 L 166.33 379.02 L 166.42 379.01 L 166.81 378.88 L 167.13 378.74 L 167.48 378.68 L 167.56 378.63 L 167.57 378.63 L 167.64 378.63 L 167.77 378.63 L 167.95 378.58 L 168.29 378.53 L 168.31 378.53 L 168.37 378.53 L 168.45 378.51 L 168.65 378.51 L 168.67 378.51 L 168.87 378.50 L 168.95 378.50 L 169.02 378.50 L 169.10 378.50 L 170.16 378.40 L 170.42 378.39 L 171.01 378.35 L 171.13 378.35 L 171.22 378.35 L 171.27 378.35 L 171.68 378.28 L 171.86 378.28 L 172.07 378.20 L 172.17 378.19 L 172.42 378.01 L 172.52 377.94 L 172.67 377.94 L 172.80 377.94 L 173.27 375.31 L 173.28 375.27 L 173.31 375.27 L 173.47 375.01 L 181.53 375.01 L 182.36 373.88 L 182.39 373.88 L 183.37 373.88 L 183.46 373.88 L 183.55 373.76 L 183.79 373.74 L 183.90 373.74 L 183.94 373.74 L 184.06 373.74 L 184.35 373.74 L 184.36 373.49 L 184.47 373.48 L 184.58 373.48 L 184.71 373.46 L 184.86 373.45 L 184.92 373.45 L 184.95 373.45 L 185.09 373.45 L 185.11 373.45 L 185.26 373.45 L 185.29 373.45 L 185.52 372.34 L 185.55 372.34 L 185.64 372.20 L 185.73 372.20 L 185.87 372.20 L 185.92 372.19 L 186.38 372.19 L 186.39 372.19 L 186.47 372.12 L 186.67 372.12 L 186.85 371.48 L 186.91 371.40 L 187.00 371.40 L 187.04 371.40 L 187.14 371.38 L 187.65 366.69 L 187.70 366.73 L 187.87 366.73 L 187.93 366.73 L 187.97 366.72 L 188.05 366.72 L 188.13 366.65 L 188.31 366.65 L 188.43 366.65 L 188.53 366.65 L 188.59 366.65 L 189.05 366.64 L 189.29 366.63 L 189.37 366.52 L 189.58 366.52 L 189.60 366.52 L 189.62 366.52 L 189.75 366.20 L 189.86 366.12 L 190.23 365.01 L 190.29 365.01 L 190.37 365.01 L 190.46 365.02 L 190.47 365.02 L 190.52 365.02 L 190.55 365.02 L 190.61 365.02 L 190.66 365.02 L 190.80 365.00 L 190.91 365.00 L 191.02 364.99 L 191.16 364.99 L 191.33 364.98 L 191.49 364.56 L 191.60 364.42 L 191.84 364.42 L 191.84 364.42 L 191.98 364.42 L 203.23 364.42 L 203.45 364.41 L 203.98 364.34 L 204.09 364.33 L 204.17 364.33 L 204.19 364.33 L 204.38 364.33 L 204.52 364.33 L 204.60 364.33 L 204.67 364.33 L 204.72 364.32 L 204.92 364.32 L 205.33 364.34 L 205.43 364.34 L 205.51 364.34 L 205.60 364.34 L 206.12 364.25 L 206.20 364.21 L 206.23 364.21 L 206.27 364.15 L 206.38 364.15 L 206.47 364.15 L 206.85 363.72 L 207.39 363.72 L 207.59 363.72 L 208.19 363.72 L 208.47 360.85 L 208.57 360.84 L 208.70 360.84 L 208.87 360.84 L 209.15 360.84 L 209.53 360.84 L 210.04 360.84 L 210.12 360.84 L 210.49 360.77 L 210.73 360.65 L 210.80 360.65 L 210.95 360.65 L 211.06 360.63 L 212.39 360.45 L 213.66 360.45 L 224.99 360.45 L 225.06 360.45 L 225.13 360.45 L 225.48 360.45 L 226.54 359.54 L 226.58 359.52 L 226.73 359.42 L 227.25 359.42 L 227.50 359.20 L 227.87 359.20 L 227.96 359.20 L 228.04 359.20 L 228.70 356.68 L 228.78 356.68 L 228.91 356.68 L 229.06 356.68 L 229.13 356.52 L 229.49 356.21 L 229.63 356.21 L 229.69 356.21 L 229.77 355.75 L 229.93 355.28 L 230.00 355.28 L 230.16 355.27 L 230.65 351.52 L 230.70 351.52 L 230.75 351.52 L 230.82 351.52 L 230.95 351.52 L 230.99 351.52 L 231.04 351.52 L 231.28 351.52 L 231.33 351.43 L 231.62 351.42 L 231.79 351.37 L 231.90 350.91 L 232.78 343.43 L 232.88 343.43 L 266.16 343.43 L 266.19 343.43 L 278.91 343.43 L 279.60 343.32 L 279.75 343.32 L 279.93 343.32 L 279.99 343.32 L 280.07 343.32 L 285.59 343.26 L 286.32 343.19 L 286.58 343.19 L 286.73 343.17 L 290.16 343.10 L 290.19 343.00 L 290.40 343.00 L 291.43 341.99 L 291.49 341.99 L 291.61 341.99 L 291.98 341.99 L 292.02 341.99 L 292.17 341.99 L 292.32 341.99 L 292.35 341.99 L 303.04 341.97 L 303.12 341.79 L 303.54 341.79 L 303.55 340.57 L 303.62 340.57 L 303.71 340.57 L 303.83 340.46 L 304.01 340.46 L 304.16 340.40 L 304.30 340.40 L 304.36 340.40 L 304.58 340.39 L 305.31 338.31 L 305.61 338.31 L 305.66 338.30 L 305.73 338.30 L 305.76 338.30 L 305.87 338.27 L 306.17 338.01 L 306.21 337.97 L 306.40 336.11 L 306.47 336.10 L 306.49 336.10 L 306.56 336.07 L 306.61 336.07 L 306.65 336.07 L 306.88 335.05 L 306.99 335.04 L 307.12 335.02 L 307.21 331.86 L 307.24 331.86 L 307.48 330.09 L 307.54 330.09 L 307.59 330.08 L 307.65 330.08 L 307.69 330.08 L 307.72 330.08 L 307.73 330.08 L 307.85 326.79 L 307.89 326.79 L 308.01 326.78 L 308.09 326.78 L 308.33 326.71 L 308.62 326.62 L 308.64 326.62 L 308.72 326.60 L 308.99 326.55 L 309.12 326.55 L 309.25 326.55 L 309.39 325.13 L 309.48 325.13 L 309.86 325.13 L 309.89 325.12 L 309.94 325.12 L 309.97 325.12 L 310.22 323.10 L 310.26 323.10 L 310.44 323.09 L 326.89 323.09 L 327.82 323.07 L 327.85 323.07 L 328.04 323.07 L 328.05 323.07 L 328.17 323.07 L 328.27 323.07 L 328.34 322.97 L 328.46 322.97 L 328.49 322.97 L 328.53 322.97 L 328.71 322.79 L 329.07 322.67 L 329.29 322.56 L 329.54 321.98 L 329.55 321.98 L 329.60 321.84 L 329.63 321.82 L 330.12 321.47 L 330.13 321.47 L 330.20 321.42 L 330.42 321.42 L 330.55 321.39 L 330.58 320.55 L 330.59 320.55 L 330.65 321.38 L 330.68 321.33 L 330.70 321.32 L 330.82 320.19 L 330.83 320.19 L 331.09 320.15 L 331.79 320.15 L 331.96 320.15 L 332.01 320.15 L 332.05 320.15 L 332.09 320.15 L 332.19 320.07 L 343.43 319.14 L 343.45 319.14 L 343.54 319.13 L 343.57 318.93 L 343.63 308.94 L 343.76 305.23 L 343.77 305.23 L 343.98 305.16 L 344.03 305.16 L 344.06 305.15 L 344.24 305.15 L 344.73 304.24 L 344.74 304.24 L 344.86 304.19 L 344.91 304.19 L 344.94 304.11 L 345.34 303.57 L 345.36 303.57 L 345.97 303.46 L 346.04 303.42 L 346.26 303.43 L 346.52 302.21 L 346.58 302.08 L 346.63 301.97 L 346.74 301.51 L 347.06 301.39 L 347.12 301.29 L 347.26 301.29 L 347.41 301.29 L 347.88 301.29 L 347.94 301.29 L 348.04 301.29 L 348.05 301.29 L 348.21 301.31 L 348.56 301.31 L 348.93 301.18 L 348.99 301.18 L 349.07 301.17 L 349.17 301.17 L 349.46 301.17 L 349.93 301.17 L 350.08 301.06 L 350.34 297.83 L 351.38 300.87 L 351.60 300.86 L 351.77 300.85 L 352.03 300.85 L 352.11 300.82 L 352.37 300.80 L 352.77 300.61 L 352.83 300.61 L 352.90 300.61 L 352.95 300.61 L 352.99 300.61 L 353.31 300.44 L 360.76 300.44 L 360.83 300.44 L 361.29 300.43 L 361.34 300.43 L 361.44 300.40 L 361.53 300.17 L 361.54 300.17 L 361.80 300.14 L 361.86 300.14 L 363.39 299.96 L 363.57 299.96 L 363.70 299.96 L 363.73 299.96 L 364.20 299.83 L 364.36 299.83 L 364.39 299.83 L 364.64 299.82 L 364.92 299.06 L 364.96 299.06 L 365.19 298.93 L 365.28 298.93 L 365.37 298.93 L 365.56 298.93 L 365.98 298.92 L 366.06 298.90 L 366.13 298.83 L 366.30 298.70 L 366.71 298.58 L 367.08 295.54 L 367.15 295.44 L 367.52 295.29 L 367.59 295.26 L 367.65 295.15 L 367.69 294.94 L 367.82 294.03 L 367.85 294.07 L 367.91 294.05 L 368.12 294.04 L 368.44 293.92 L 368.64 293.87 L 368.87 293.86 L 368.98 293.85 L 369.21 293.83 L 369.58 293.83 L 369.96 293.82 L 370.24 293.82 L 370.31 293.82 L 370.38 293.81 L 370.39 293.81 L 370.61 293.81 L 370.67 293.80 L 370.76 293.68 L 371.37 293.67 L 371.38 293.67 L 371.55 293.66 L 372.26 293.66 L 372.73 293.51 L 373.08 293.38 L 373.09 293.38 L 373.12 293.38 L 383.55 293.37 L 383.59 293.37 L 383.71 293.37 L 383.76 293.37 L 383.80 293.36 L 383.81 293.36 L 384.25 293.36 L 384.35 293.35 L 384.49 293.33 L 384.71 293.30 L 384.85 293.30 L 385.03 293.23 L 385.13 293.23 L 385.18 293.23 L 385.23 293.23 L 385.36 292.95 L 385.38 292.95 L 385.42 292.95 L 385.54 292.95 L 385.61 292.95 L 385.70 293.02 L 385.83 293.02 L 386.09 293.01 L 386.20 293.01 L 386.30 293.01 L 386.94 292.12 L 387.49 291.88 L 388.15 291.24 L 388.32 291.24 L 388.50 291.24 L 388.71 291.24 L 392.54 291.16 L 392.86 291.16 L 429.22 291.04 L 543.71 290.88 L 544.09 290.82 L 544.35 290.82 L 544.61 290.82 L 545.01 290.40 L 545.15 290.40 L 545.25 290.40 L 545.43 288.91 L 545.70 289.19 L 545.91 289.17 L 545.96 289.17 L 546.13 289.16 L 546.17 289.16 L 546.36 289.16 L 546.53 289.09 L 547.05 288.14 L 547.07 288.14 L 547.22 288.06 L 547.71 284.99 L 547.72 284.99 L 547.82 284.99 L 547.94 284.94 L 548.47 283.51 L 548.48 283.51 L 548.60 283.51 L 548.72 283.48 L 548.92 282.96 L 548.93 282.96 L 549.02 282.95 L 549.03 282.95 L 549.08 282.66 L 549.31 280.64 L 549.33 280.64 L 549.41 280.64 L 549.66 280.46 L 549.70 280.46 L 549.90 280.13 L 550.21 280.13 L 550.26 280.13 L 550.30 280.13 L 550.36 280.13 L 550.52 280.12 L 550.69 279.21 L 550.71 279.21 L 550.81 279.20 L 550.91 278.51 L 550.93 278.51 L 551.03 277.78 L 551.07 277.73 L 551.27 277.01 L 551.30 277.01 L 551.40 277.01 L 551.54 276.99 L 552.36 276.99 L 552.77 276.99 L 561.71 276.99 L 561.80 276.99 L 561.89 276.99 L 562.04 276.99 L 562.38 276.80 L 562.40 276.80 L 562.47 276.74 L 562.68 275.72 L 562.70 275.72 L 564.66 275.74 L 564.77 275.54 L 565.76 275.54 L 565.87 275.54 L 565.98 275.46 L 567.17 274.63 L 567.67 274.47 L 567.80 274.41 L 568.23 272.83 L 568.49 272.83 L 568.93 272.70 L 569.72 272.70 L 581.69 272.70 L 582.40 272.60 L 582.43 272.62 L 583.44 272.62 L 583.49 272.62 L 583.84 272.62 L 584.24 272.59 L 584.25 272.59 L 584.29 272.59 L 584.82 271.66 L 586.05 271.64 L 586.13 271.64 L 586.26 271.63 L 586.45 271.60 L 586.50 271.57 L 586.57 271.57 L 587.14 271.53 L 587.60 271.53 L 587.85 271.52 L 587.88 271.52 L 588.39 271.51 L 588.79 271.40 L 588.80 271.40 L 588.85 271.40 L 588.91 271.40 L 601.90 271.18 L 601.92 271.18 L 601.96 271.18 L 602.21 271.18 L 602.41 271.18 L 603.55 270.27 L 603.84 270.21 L 604.66 270.14 L 605.37 270.09 L 605.89 270.09 L 606.04 270.09 L 606.70 268.71 L 606.94 268.67 L 607.03 268.63 L 608.95 267.66 L 608.97 267.66 L 609.08 267.65 L 609.44 267.63 L 609.45 267.63 L 609.47 267.63 L 609.53 267.60 L 609.70 267.56 L 609.91 267.46 L 611.90 265.86 L 612.16 265.78 L 612.34 265.78 L 612.37 265.78 L 612.40 265.78 L 621.25 265.78 L 621.54 265.77 L 621.71 265.77 L 621.77 265.77 L 622.60 265.77 L 622.78 265.77 L 622.93 265.77 L 623.03 265.73 L 623.30 263.63 L 623.35 263.62 L 623.72 263.63 L 623.81 263.61 L 624.13 262.80 L 624.19 262.76 L 624.46 262.22 L 624.65 262.22 L 624.80 262.18 L 625.13 261.69 L 625.17 261.69 L 625.59 260.13 L 625.63 260.13 L 625.70 260.12 L 625.79 260.12 L 625.83 260.12 L 626.33 258.56 L 627.04 258.42 L 627.40 258.42 L 628.57 258.37 L 628.60 258.37 L 628.78 258.37 L 628.86 258.37 L 628.99 258.37 L 629.14 258.37 L 629.29 258.35 L 629.64 258.33 L 629.98 258.33 L 631.02 258.27 L 631.07 258.27 L 632.12 258.22 L 632.57 258.18 L 641.52 258.20 L 641.97 258.12 L 642.19 258.04 L 642.29 258.04 L 642.32 258.04 L 642.55 258.03 L 642.65 258.03 L 642.91 258.03 L 643.07 258.02 L 643.66 257.88 L 643.96 257.60 L 644.46 257.58 L 644.60 257.39 L 644.77 257.31 L 645.00 257.22 L 645.77 257.31 L 645.84 257.31 L 646.97 257.01 L 647.15 257.01 L 647.37 257.01 L 647.92 256.98 L 648.17 257.13 L 648.30 257.13 L 648.41 257.13 L 648.56 257.13 L 649.04 256.45 L 649.55 256.44 L 650.00 256.44"/>
	</g>
	<g id="poloto_plot2" class="poloto_plot poloto_imgs poloto_line poloto2 poloto_stroke" fill="none" stroke="black">
		<path d=" M 150.00 391.84 L 150.03 391.84 L 150.04 391.84 L 150.05 391.84 L 150.08 391.84 L 150.11 389.75 L 150.23 389.46 L 150.51 389.46 L 150.93 389.44 L 151.14 388.19 L 151.56 388.08 L 151.64 388.05 L 151.69 388.01 L 152.19 387.45 L 153.11 387.02 L 153.40 386.93 L 153.48 386.94 L 154.04 386.90 L 154.68 386.90 L 154.68 386.90 L 154.69 386.90 L 163.38 386.90 L 163.44 386.90 L 163.55 386.88 L 163.60 386.88 L 163.93 386.76 L 164.08 386.72 L 164.45 386.52 L 164.50 386.43 L 164.60 386.24 L 164.71 386.22 L 164.75 386.21 L 164.84 386.18 L 164.93 386.18 L 165.03 386.18 L 165.27 385.97 L 165.48 385.78 L 165.52 385.78 L 165.63 385.67 L 166.32 385.42 L 166.33 385.42 L 166.42 385.34 L 166.81 385.06 L 167.13 384.72 L 167.48 384.58 L 167.56 384.58 L 167.57 384.58 L 167.64 384.39 L 167.77 384.39 L 167.95 384.37 L 168.29 384.23 L 168.31 383.98 L 168.37 383.98 L 168.45 383.87 L 168.65 383.87 L 168.67 383.87 L 168.87 383.50 L 168.95 383.48 L 169.02 383.44 L 169.10 383.27 L 170.16 383.17 L 170.42 383.13 L 171.01 382.88 L 171.13 382.89 L 171.22 382.87 L 171.27 382.68 L 171.68 381.66 L 171.86 381.64 L 172.07 381.34 L 172.17 381.31 L 172.42 381.17 L 172.52 381.12 L 172.67 380.90 L 172.80 380.72 L 173.27 380.72 L 173.28 380.70 L 173.31 380.55 L 173.47 379.57 L 181.53 379.46 L 182.36 379.17 L 182.39 379.13 L 183.37 378.88 L 183.46 378.88 L 183.55 378.69 L 183.79 378.57 L 183.90 378.35 L 183.94 378.16 L 184.06 377.80 L 184.35 377.79 L 184.36 377.79 L 184.47 377.53 L 184.58 377.53 L 184.71 377.26 L 184.86 377.05 L 184.92 376.93 L 184.95 376.93 L 185.09 376.68 L 185.11 376.67 L 185.26 376.45 L 185.29 376.44 L 185.52 376.36 L 185.55 376.36 L 185.64 376.28 L 185.73 376.26 L 185.87 376.26 L 185.92 376.25 L 186.38 376.02 L 186.39 376.03 L 186.47 375.59 L 186.67 375.57 L 186.85 375.43 L 186.91 375.43 L 187.00 375.43 L 187.04 375.39 L 187.14 374.78 L 187.65 374.27 L 187.70 373.99 L 187.87 373.97 L 187.93 373.90 L 187.97 373.88 L 188.05 373.75 L 188.13 373.27 L 188.31 373.20 L 188.43 373.18 L 188.53 372.94 L 188.59 372.93 L 189.05 372.75 L 189.29 372.63 L 189.37 372.52 L 189.58 372.51 L 189.60 372.51 L 189.62 372.48 L 189.75 371.61 L 189.86 371.60 L 190.23 371.48 L 190.29 371.13 L 190.37 371.12 L 190.46 370.98 L 190.47 370.90 L 190.52 370.84 L 190.55 370.80 L 190.61 370.80 L 190.66 370.73 L 190.80 369.75 L 190.91 369.65 L 191.02 369.36 L 191.16 369.34 L 191.33 369.24 L 191.49 368.93 L 191.60 368.08 L 191.84 368.02 L 191.84 367.65 L 191.98 367.56 L 203.23 367.57 L 203.45 367.57 L 203.98 367.16 L 204.09 367.16 L 204.17 367.16 L 204.19 367.06 L 204.38 366.89 L 204.52 366.85 L 204.60 366.75 L 204.67 366.68 L 204.72 366.64 L 204.92 366.58 L 205.33 366.67 L 205.43 366.40 L 205.51 366.33 L 205.60 366.32 L 206.12 366.27 L 206.20 366.22 L 206.23 366.22 L 206.27 366.17 L 206.38 366.12 L 206.47 366.02 L 206.85 365.77 L 207.39 365.66 L 207.59 365.61 L 208.19 365.45 L 208.47 365.06 L 208.57 364.99 L 208.70 364.68 L 208.87 364.28 L 209.15 364.17 L 209.53 364.16 L 210.04 364.14 L 210.12 364.00 L 210.49 363.90 L 210.73 363.77 L 210.80 363.67 L 210.95 363.63 L 211.06 363.37 L 212.39 363.24 L 213.66 363.24 L 224.99 363.20 L 225.06 363.06 L 225.13 362.96 L 225.48 362.81 L 226.54 362.55 L 226.58 362.51 L 226.73 362.32 L 227.25 362.25 L 227.50 361.73 L 227.87 361.72 L 227.96 361.70 L 228.04 361.19 L 228.70 360.72 L 228.78 360.71 L 228.91 360.69 L 229.06 360.64 L 229.13 360.47 L 229.49 359.68 L 229.63 359.48 L 229.69 359.46 L 229.77 359.38 L 229.93 359.07 L 230.00 358.28 L 230.16 357.95 L 230.65 357.77 L 230.70 357.37 L 230.75 357.37 L 230.82 357.30 L 230.95 357.19 L 230.99 357.16 L 231.04 357.12 L 231.28 356.20 L 231.33 355.65 L 231.62 355.55 L 231.79 354.63 L 231.90 354.45 L 232.78 353.01 L 232.88 352.98 L 266.16 352.56 L 266.19 352.56 L 278.91 352.44 L 279.60 352.29 L 279.75 352.29 L 279.93 352.21 L 279.99 352.09 L 280.07 352.07 L 285.59 352.05 L 286.32 350.39 L 286.58 350.25 L 286.73 349.67 L 290.16 349.60 L 290.19 349.55 L 290.40 349.54 L 291.43 349.44 L 291.49 349.24 L 291.61 349.18 L 291.98 349.09 L 292.02 349.07 L 292.17 348.75 L 292.32 348.65 L 292.35 348.40 L 303.04 348.09 L 303.12 347.33 L 303.54 347.14 L 303.55 346.85 L 303.62 346.62 L 303.71 346.27 L 303.83 345.36 L 304.01 344.85 L 304.16 344.21 L 304.30 344.20 L 304.36 343.71 L 304.58 343.67 L 305.31 343.20 L 305.61 342.98 L 305.66 342.84 L 305.73 342.84 L 305.76 342.67 L 305.87 342.11 L 306.17 342.05 L 306.21 342.05 L 306.40 341.68 L 306.47 341.68 L 306.49 341.47 L 306.56 341.33 L 306.61 341.33 L 306.65 341.03 L 306.88 340.86 L 306.99 340.56 L 307.12 340.55 L 307.21 340.39 L 307.24 340.17 L 307.48 340.05 L 307.54 339.92 L 307.59 339.92 L 307.65 339.91 L 307.69 339.69 L 307.72 339.69 L 307.73 339.69 L 307.85 339.61 L 307.89 339.36 L 308.01 339.35 L 308.09 339.29 L 308.33 339.27 L 308.62 339.25 L 308.64 339.25 L 308.72 339.23 L 308.99 339.23 L 309.12 339.23 L 309.25 339.23 L 309.39 339.19 L 309.48 338.88 L 309.86 338.88 L 309.89 338.70 L 309.94 338.70 L 309.97 338.50 L 310.22 338.43 L 310.26 338.38 L 310.44 338.38 L 326.89 338.32 L 327.82 338.24 L 327.85 338.24 L 328.04 338.23 L 328.05 338.24 L 328.17 337.88 L 328.27 337.87 L 328.34 337.77 L 328.46 337.71 L 328.49 337.68 L 328.53 337.66 L 328.71 337.63 L 329.07 337.56 L 329.29 337.08 L 329.54 337.05 L 329.55 337.02 L 329.60 336.62 L 329.63 336.61 L 330.12 336.61 L 330.13 336.57 L 330.20 336.20 L 330.42 336.15 L 330.55 336.14 L 330.58 336.13 L 330.59 336.09 L 330.65 336.06 L 330.68 335.68 L 330.70 335.67 L 330.82 335.67 L 330.83 335.64 L 331.09 335.61 L 331.79 335.59 L 331.96 335.56 L 332.01 335.55 L 332.05 335.43 L 332.09 335.43 L 332.19 335.00 L 343.43 334.87 L 343.45 334.74 L 343.54 334.66 L 343.57 334.64 L 343.63 334.28 L 343.76 334.19 L 343.77 334.17 L 343.98 334.16 L 344.03 334.16 L 344.06 333.80 L 344.24 333.76 L 344.73 333.74 L 344.74 333.72 L 344.86 333.52 L 344.91 333.53 L 344.94 333.19 L 345.34 333.19 L 345.36 333.18 L 345.97 333.09 L 346.04 332.69 L 346.26 332.69 L 346.52 332.69 L 346.58 332.39 L 346.63 332.16 L 346.74 332.15 L 347.06 332.11 L 347.12 332.09 L 347.26 332.00 L 347.41 332.00 L 347.88 332.00 L 347.94 332.00 L 348.04 331.98 L 348.05 331.97 L 348.21 331.97 L 348.56 331.95 L 348.93 331.91 L 348.99 331.91 L 349.07 331.86 L 349.17 331.76 L 349.46 331.76 L 349.93 331.62 L 350.08 331.40 L 350.34 331.37 L 351.38 331.13 L 351.60 331.13 L 351.77 331.12 L 352.03 331.12 L 352.11 331.10 L 352.37 330.98 L 352.77 330.96 L 352.83 330.85 L 352.90 330.80 L 352.95 330.81 L 352.99 330.77 L 353.31 330.75 L 360.76 330.75 L 360.83 330.75 L 361.29 330.75 L 361.34 330.73 L 361.44 330.40 L 361.53 330.38 L 361.54 330.38 L 361.80 330.38 L 361.86 330.36 L 363.39 329.86 L 363.57 329.81 L 363.70 329.80 L 363.73 329.80 L 364.20 329.79 L 364.36 329.86 L 364.39 329.85 L 364.64 329.82 L 364.92 329.35 L 364.96 329.34 L 365.19 329.33 L 365.28 329.33 L 365.37 329.33 L 365.56 329.23 L 365.98 328.80 L 366.06 328.80 L 366.13 328.74 L 366.30 328.36 L 366.71 327.93 L 367.08 327.96 L 367.15 327.73 L 367.52 327.73 L 367.59 327.70 L 367.65 327.68 L 367.69 327.45 L 367.82 327.44 L 367.85 327.44 L 367.91 327.44 L 368.12 327.44 L 368.44 327.26 L 368.64 327.24 L 368.87 327.24 L 368.98 327.24 L 369.21 327.24 L 369.58 327.24 L 369.96 327.24 L 370.24 327.24 L 370.31 327.24 L 370.38 327.23 L 370.39 327.15 L 370.61 327.10 L 370.67 327.10 L 370.76 327.09 L 371.37 327.08 L 371.38 326.86 L 371.55 326.86 L 372.26 326.86 L 372.73 326.86 L 373.08 326.81 L 373.09 326.72 L 373.12 326.72 L 383.55 326.57 L 383.59 326.57 L 383.71 326.56 L 383.76 326.42 L 383.80 326.42 L 383.81 326.41 L 384.25 326.37 L 384.35 325.92 L 384.49 325.83 L 384.71 324.94 L 384.85 324.93 L 385.03 324.55 L 385.13 324.60 L 385.18 324.59 L 385.23 324.11 L 385.36 324.03 L 385.38 323.69 L 385.42 323.64 L 385.54 323.61 L 385.61 323.45 L 385.70 325.43 L 385.83 325.40 L 386.09 324.60 L 386.20 324.43 L 386.30 324.25 L 386.94 323.93 L 387.49 323.60 L 388.15 323.13 L 388.32 323.08 L 388.50 323.08 L 388.71 323.04 L 392.54 322.80 L 392.86 322.78 L 429.22 322.16 L 543.71 322.14 L 544.09 321.86 L 544.35 321.82 L 544.61 321.82 L 545.01 321.56 L 545.15 321.27 L 545.25 320.72 L 545.43 320.58 L 545.70 320.63 L 545.91 320.31 L 545.96 320.31 L 546.13 320.21 L 546.17 320.21 L 546.36 319.68 L 546.53 318.86 L 547.05 318.79 L 547.07 318.70 L 547.22 317.65 L 547.71 317.61 L 547.72 317.51 L 547.82 317.45 L 547.94 316.49 L 548.47 316.45 L 548.48 316.31 L 548.60 316.25 L 548.72 315.62 L 548.92 315.60 L 548.93 315.50 L 549.02 314.46 L 549.03 314.43 L 549.08 314.40 L 549.31 314.40 L 549.33 314.29 L 549.41 314.22 L 549.66 314.12 L 549.70 314.11 L 549.90 314.06 L 550.21 314.10 L 550.26 314.05 L 550.30 314.03 L 550.36 313.99 L 550.52 312.92 L 550.69 312.89 L 550.71 312.80 L 550.81 311.70 L 550.91 311.30 L 550.93 311.15 L 551.03 310.61 L 551.07 309.68 L 551.27 309.67 L 551.30 309.61 L 551.40 309.42 L 551.54 309.42 L 552.36 309.39 L 552.77 309.36 L 561.71 309.41 L 561.80 309.19 L 561.89 309.04 L 562.04 308.29 L 562.38 308.28 L 562.40 308.20 L 562.47 307.26 L 562.68 307.25 L 562.70 307.16 L 564.66 307.07 L 564.77 306.73 L 565.76 306.56 L 565.87 306.53 L 565.98 305.48 L 567.17 305.18 L 567.67 304.93 L 567.80 304.14 L 568.23 304.14 L 568.49 303.70 L 568.93 303.03 L 569.72 302.62 L 581.69 302.62 L 582.40 302.60 L 582.43 302.60 L 583.44 302.45 L 583.49 302.37 L 583.84 302.30 L 584.24 301.43 L 584.25 301.43 L 584.29 301.39 L 584.82 301.20 L 586.05 300.62 L 586.13 300.56 L 586.26 300.55 L 586.45 300.31 L 586.50 300.27 L 586.57 300.22 L 587.14 300.22 L 587.60 300.22 L 587.85 300.22 L 587.88 300.18 L 588.39 299.29 L 588.79 299.21 L 588.80 299.14 L 588.85 299.05 L 588.91 298.83 L 601.90 298.67 L 601.92 298.65 L 601.96 298.63 L 602.21 298.52 L 602.41 298.41 L 603.55 297.91 L 603.84 297.80 L 604.66 297.42 L 605.37 297.36 L 605.89 297.21 L 606.04 295.89 L 606.70 295.67 L 606.94 295.60 L 607.03 294.65 L 608.95 293.74 L 608.97 293.74 L 609.08 293.32 L 609.44 293.28 L 609.45 293.28 L 609.47 293.17 L 609.53 293.06 L 609.70 292.96 L 609.91 292.32 L 611.90 291.98 L 612.16 291.83 L 612.34 291.47 L 612.37 291.44 L 612.40 291.21 L 621.25 290.38 L 621.54 289.78 L 621.71 289.76 L 621.77 289.36 L 622.60 289.20 L 622.78 288.77 L 622.93 288.77 L 623.03 287.89 L 623.30 287.68 L 623.35 287.65 L 623.72 287.60 L 623.81 286.87 L 624.13 286.78 L 624.19 286.22 L 624.46 286.15 L 624.65 285.82 L 624.80 285.19 L 625.13 285.06 L 625.17 284.41 L 625.59 285.88 L 625.63 285.88 L 625.70 285.05 L 625.79 285.05 L 625.83 284.98 L 626.33 284.90 L 627.04 284.55 L 627.40 284.73 L 628.57 284.70 L 628.60 284.70 L 628.78 284.68 L 628.86 284.67 L 628.99 284.55 L 629.14 284.45 L 629.29 284.30 L 629.64 284.09 L 629.98 284.07 L 631.02 283.97 L 631.07 283.96 L 632.12 283.85 L 632.57 283.79 L 641.52 283.75 L 641.97 283.71 L 642.19 283.71 L 642.29 283.71 L 642.32 283.71 L 642.55 283.69 L 642.65 283.66 L 642.91 283.51 L 643.07 283.48 L 643.66 283.47 L 643.96 283.40 L 644.46 283.36 L 644.60 283.33 L 644.77 283.26 L 645.00 283.16 L 645.77 283.13 L 645.84 283.11 L 646.97 282.95 L 647.15 282.69 L 647.37 282.59 L 647.92 282.44 L 648.17 282.35 L 648.30 282.72 L 648.41 282.71 L 648.56 282.57 L 649.04 282.23 L 649.55 282.14 L 650.00 282.07"/>
	</g>
	<g class="poloto_legend poloto_imgs poloto_line poloto0 poloto_stroke"><line x1="680" x2="730" y1="81.25" y2="81.25"/></g>
	<g class="poloto_legend poloto_imgs poloto_line poloto1 poloto_stroke"><line x1="680" x2="730" y1="131.25" y2="131.25"/></g>
	<g class="poloto_legend poloto_imgs poloto_line poloto2 poloto_stroke"><line x1="680" x2="730" y1="181.25" y2="181.25"/></g>
	<text class="poloto_legend poloto_text poloto_line poloto0" x="675" y="100">total</text>
	<text class="poloto_legend poloto_text poloto_line poloto1" x="675" y="150">code</text>
	<text class="poloto_legend poloto_text poloto_line poloto2" x="675" y="200">docs</text>
	<text class="poloto_text poloto_name poloto_title" x="400.00" y="37.50">Workspace lines over time</text>
	<text class="poloto_text poloto_name poloto_x" x="400.00" y="640">date (JST)</text>
	<text class="poloto_text poloto_name poloto_y" x="37.50" y="250.00" transform="rotate(-90,37.50,250.00)">lines</text>
	<text class="poloto_text poloto_ticks poloto_y">
		<tspan x="135.00" y="400.00">0</tspan>
		<tspan x="135.00" y="322.43">50K</tspan>
		<tspan x="135.00" y="244.86">100K</tspan>
		<tspan x="135.00" y="167.29">150K</tspan>
	</text>
	<g class="poloto_imgs poloto_ticks poloto_y" stroke="black">
		<line x1="150.00" x2="144.00" y1="400.00" y2="400.00"/>
		<line x1="150.00" x2="144.00" y1="322.43" y2="322.43"/>
		<line x1="150.00" x2="144.00" y1="244.86" y2="244.86"/>
		<line x1="150.00" x2="144.00" y1="167.29" y2="167.29"/>
	</g>
	<g class="poloto_text poloto_ticks poloto_x">
		<text x="224.84" y="430.00" text-anchor="end" transform="rotate(-90 224.84 430.00)">2026-04-24 12:06</text>
		<text x="340.05" y="430.00" text-anchor="end" transform="rotate(-90 340.05 430.00)">2026-04-30 07:00</text>
		<text x="455.25" y="430.00" text-anchor="end" transform="rotate(-90 455.25 430.00)">2026-05-06 01:53</text>
		<text x="570.45" y="430.00" text-anchor="end" transform="rotate(-90 570.45 430.00)">2026-05-11 20:46</text>
	</g>
	<g class="poloto_imgs poloto_ticks poloto_x" stroke="black">
		<line x1="224.84" x2="224.84" y1="400.00" y2="405.00"/>
		<line x1="340.05" x2="340.05" y1="400.00" y2="405.00"/>
		<line x1="455.25" x2="455.25" y1="400.00" y2="405.00"/>
		<line x1="570.45" x2="570.45" y1="400.00" y2="405.00"/>
	</g>
	<path class="poloto_imgs poloto_ticks poloto_x" stroke="black" style="stroke-dasharray:11.520371011244343;stroke-dashoffset:-74.84162945969729;" d=" M 150.00 400.00 L 650.00 400.00"/>
	<path class="poloto_imgs poloto_ticks poloto_y" stroke="black" style="stroke-dasharray:7.756908820122456;stroke-dashoffset:-0;" d=" M 150.00 400.00 L 150.00 100.00"/>
</svg>

