<svg class="poloto" width="800" height="680" viewBox="0 0 800 680" xmlns="http://www.w3.org/2000/svg">
	<style>
.poloto{
  stroke-linecap:round;
  stroke-linejoin:round;
  font-family:Roboto,sans-serif;
  font-size:16px;
}
.poloto_background{fill:AliceBlue;}
.poloto_scatter{stroke-width:7}
.poloto_line{stroke-width:2}
.poloto_text{fill: black;}
.poloto_name{font-size:24px;dominant-baseline:auto;text-anchor:middle;}
.poloto_where{dominant-baseline:middle;text-anchor:start}
.poloto_text.poloto_legend{font-size:20px;dominant-baseline:middle;text-anchor:start;}
.poloto_text.poloto_ticks.poloto_y{dominant-baseline:middle;text-anchor:end}
.poloto_text.poloto_ticks.poloto_x{dominant-baseline:auto;text-anchor:middle}
.poloto_imgs.poloto_ticks{stroke: black;stroke-width:3;fill:none;stroke-dasharray:none}
.poloto_grid{stroke:gray;stroke-width:0.5}

.poloto0.poloto_stroke{stroke:blue;}
.poloto1.poloto_stroke{stroke:red;}
.poloto2.poloto_stroke{stroke:green;}
.poloto3.poloto_stroke{stroke:gold;}
.poloto4.poloto_stroke{stroke:aqua;}
.poloto5.poloto_stroke{stroke:lime;}
.poloto6.poloto_stroke{stroke:orange;}
.poloto7.poloto_stroke{stroke:chocolate;}
.poloto0.poloto_fill{fill:blue;}
.poloto1.poloto_fill{fill:red;}
.poloto2.poloto_fill{fill:green;}
.poloto3.poloto_fill{fill:gold;}
.poloto4.poloto_fill{fill:aqua;}
.poloto5.poloto_fill{fill:lime;}
.poloto6.poloto_fill{fill:orange;}
.poloto7.poloto_fill{fill:chocolate;}
	</style>
	<circle r="1e5" class="poloto_background" fill="white"/>
	<g id="poloto_plot0" class="poloto_plot poloto_imgs poloto_line poloto0 poloto_stroke" fill="none" stroke="black">
		<path d=" M 150.00 371.31 L 150.02 371.29 L 150.04 371.27 L 150.05 371.27 L 150.07 371.27 L 150.09 368.16 L 150.20 367.78 L 150.43 367.76 L 150.78 367.51 L 150.96 365.92 L 151.32 365.83 L 151.38 365.74 L 151.43 365.71 L 151.84 364.94 L 152.62 364.31 L 152.87 361.86 L 152.93 361.87 L 153.41 361.77 L 153.95 361.76 L 153.95 361.76 L 153.96 361.76 L 161.29 361.76 L 161.34 361.76 L 161.43 361.74 L 161.47 361.71 L 161.75 361.56 L 161.88 361.53 L 162.19 361.30 L 162.23 361.20 L 162.32 360.98 L 162.41 360.95 L 162.44 360.95 L 162.52 360.89 L 162.60 360.89 L 162.68 360.89 L 162.88 360.53 L 163.06 360.30 L 163.09 360.31 L 163.18 360.17 L 163.76 360.73 L 163.78 360.73 L 163.85 360.64 L 164.18 360.22 L 164.45 359.72 L 164.75 359.50 L 164.81 359.46 L 164.82 359.46 L 164.88 359.27 L 164.99 359.27 L 165.14 359.20 L 165.43 359.01 L 165.44 358.72 L 165.49 358.72 L 165.56 358.57 L 165.73 358.57 L 165.75 358.57 L 165.92 358.15 L 165.99 358.13 L 166.05 358.09 L 166.12 357.93 L 167.01 357.70 L 167.22 357.66 L 167.72 357.36 L 167.83 357.36 L 167.90 357.35 L 167.95 357.13 L 168.29 355.90 L 168.44 355.87 L 168.62 355.46 L 168.70 355.42 L 168.91 355.08 L 169.00 354.96 L 169.12 354.73 L 169.24 354.54 L 169.63 351.69 L 169.64 351.62 L 169.66 351.45 L 169.80 350.08 L 176.59 349.98 L 177.30 348.42 L 177.32 348.39 L 178.15 348.14 L 178.22 348.13 L 178.30 347.83 L 178.50 347.67 L 178.60 347.40 L 178.63 347.17 L 178.73 346.76 L 178.98 346.76 L 178.99 346.48 L 179.08 346.17 L 179.17 346.17 L 179.28 345.83 L 179.41 345.58 L 179.46 345.46 L 179.48 345.45 L 179.60 345.18 L 179.62 345.18 L 179.74 344.91 L 179.77 344.90 L 179.96 343.62 L 179.99 343.62 L 180.06 343.40 L 180.14 343.39 L 180.26 343.39 L 180.30 343.36 L 180.69 343.12 L 180.69 343.13 L 180.77 342.56 L 180.94 342.55 L 181.09 341.69 L 181.14 341.61 L 181.21 341.61 L 181.24 341.57 L 181.33 340.91 L 181.76 335.32 L 181.80 335.05 L 181.95 335.03 L 181.99 334.96 L 182.03 334.94 L 182.10 334.79 L 182.16 334.16 L 182.31 334.03 L 182.42 334.01 L 182.51 333.74 L 182.55 333.73 L 182.94 333.52 L 183.15 333.36 L 183.21 333.11 L 183.39 333.10 L 183.40 333.10 L 183.42 333.08 L 183.53 331.73 L 183.62 331.65 L 183.94 330.30 L 183.99 329.90 L 184.05 329.89 L 184.13 329.75 L 184.14 329.65 L 184.18 329.58 L 184.21 329.55 L 184.26 329.54 L 184.30 329.47 L 184.42 328.36 L 184.51 328.20 L 184.60 327.87 L 184.72 327.85 L 184.86 327.75 L 185.00 326.97 L 185.10 325.88 L 185.29 325.82 L 185.30 325.41 L 185.41 325.28 L 194.90 325.28 L 195.09 325.27 L 195.53 324.69 L 195.63 324.68 L 195.70 324.68 L 195.71 324.53 L 195.88 324.36 L 195.99 324.33 L 196.05 324.22 L 196.12 324.15 L 196.16 324.10 L 196.33 324.05 L 196.67 323.98 L 196.76 323.69 L 196.82 323.61 L 196.90 323.60 L 197.34 323.45 L 197.41 323.37 L 197.44 323.37 L 197.46 323.26 L 197.56 323.21 L 197.63 323.10 L 197.95 322.37 L 198.41 322.26 L 198.58 322.21 L 199.09 322.02 L 199.33 318.51 L 199.41 318.44 L 199.52 318.09 L 199.66 317.63 L 199.89 317.50 L 200.22 317.49 L 200.65 317.48 L 200.71 317.32 L 201.03 317.16 L 201.23 316.91 L 201.29 316.80 L 201.42 316.76 L 201.51 316.45 L 202.63 316.11 L 203.70 316.11 L 213.26 316.07 L 213.32 315.92 L 213.37 315.82 L 213.67 315.67 L 214.56 314.46 L 214.60 314.38 L 214.73 314.07 L 215.17 313.99 L 215.37 313.17 L 215.69 313.16 L 215.76 313.15 L 215.83 312.59 L 216.39 309.39 L 216.45 309.39 L 216.57 309.36 L 216.69 309.32 L 216.75 308.97 L 217.06 307.77 L 217.17 307.55 L 217.22 307.53 L 217.29 306.97 L 217.43 306.19 L 217.48 305.36 L 217.62 304.99 L 218.04 300.83 L 218.08 300.41 L 218.12 300.41 L 218.18 300.34 L 218.28 300.23 L 218.32 300.19 L 218.36 300.15 L 218.56 299.15 L 218.61 298.45 L 218.85 298.31 L 219.00 297.26 L 219.09 296.61 L 219.83 286.92 L 219.91 286.90 L 247.99 286.43 L 248.02 286.43 L 258.75 286.30 L 259.33 286.04 L 259.45 286.04 L 259.61 285.96 L 259.66 285.84 L 259.72 285.80 L 264.38 285.74 L 264.99 283.89 L 265.22 283.73 L 265.34 283.05 L 268.24 282.92 L 268.26 282.73 L 268.44 282.71 L 269.30 281.55 L 269.35 281.34 L 269.46 281.27 L 269.77 281.19 L 269.81 281.16 L 269.93 280.81 L 270.06 280.71 L 270.08 280.45 L 279.10 280.10 L 279.16 279.11 L 279.52 278.89 L 279.53 277.22 L 279.59 276.98 L 279.67 276.57 L 279.77 275.43 L 279.92 274.82 L 280.05 274.11 L 280.17 274.10 L 280.21 273.56 L 280.39 273.51 L 281.02 270.83 L 281.27 270.55 L 281.31 270.38 L 281.36 270.38 L 281.40 270.19 L 281.48 269.53 L 281.74 269.22 L 281.78 269.18 L 281.93 266.82 L 281.99 266.81 L 282.01 266.56 L 282.07 266.37 L 282.11 266.37 L 282.14 266.01 L 282.34 264.74 L 282.43 264.38 L 282.54 264.33 L 282.61 260.93 L 282.65 260.65 L 282.84 258.71 L 282.90 258.56 L 282.94 258.55 L 282.99 258.55 L 283.02 258.27 L 283.05 258.28 L 283.06 258.28 L 283.16 254.84 L 283.19 254.54 L 283.29 254.52 L 283.36 254.46 L 283.56 254.37 L 283.81 254.23 L 283.82 254.23 L 283.89 254.19 L 284.12 254.13 L 284.23 254.13 L 284.34 254.13 L 284.45 252.63 L 284.53 252.27 L 284.85 252.27 L 284.88 252.03 L 284.92 252.03 L 284.94 251.77 L 285.15 249.60 L 285.19 249.55 L 285.34 249.54 L 299.22 249.47 L 300.01 249.36 L 300.03 249.36 L 300.19 249.36 L 300.20 249.36 L 300.30 248.93 L 300.38 248.91 L 300.45 248.70 L 300.54 248.65 L 300.57 248.62 L 300.61 248.60 L 300.75 248.36 L 301.06 248.14 L 301.25 247.45 L 301.46 246.78 L 301.47 246.75 L 301.50 246.13 L 301.53 246.11 L 301.94 245.74 L 301.95 245.70 L 302.01 245.21 L 302.19 245.15 L 302.31 245.11 L 302.33 244.23 L 302.34 244.18 L 302.39 245.02 L 302.42 244.51 L 302.44 244.49 L 302.54 243.31 L 302.54 243.28 L 302.76 243.18 L 303.36 243.16 L 303.49 243.12 L 303.54 243.11 L 303.57 242.96 L 303.60 242.96 L 303.69 242.38 L 313.17 241.26 L 313.18 241.11 L 313.26 241.00 L 313.29 240.78 L 313.34 230.98 L 313.45 226.97 L 313.46 226.94 L 313.63 226.86 L 313.67 226.86 L 313.70 226.40 L 313.86 226.36 L 314.27 225.41 L 314.28 225.39 L 314.38 225.09 L 314.42 225.10 L 314.44 224.63 L 314.79 224.07 L 314.80 224.05 L 315.31 223.83 L 315.38 223.33 L 315.56 223.34 L 315.78 222.08 L 315.83 221.58 L 315.87 221.18 L 315.96 220.69 L 316.23 220.52 L 316.28 220.39 L 316.40 220.28 L 316.53 220.28 L 316.93 220.28 L 316.97 220.28 L 317.06 220.26 L 317.07 220.26 L 317.20 220.27 L 317.50 220.25 L 317.81 220.06 L 317.86 220.06 L 317.93 219.99 L 318.02 219.85 L 318.25 219.85 L 318.66 219.68 L 318.79 219.29 L 319.00 215.91 L 319.88 218.76 L 320.07 218.75 L 320.21 218.74 L 320.42 218.73 L 320.49 218.68 L 320.71 218.52 L 321.05 218.29 L 321.10 218.13 L 321.16 218.07 L 321.20 218.08 L 321.24 218.03 L 321.51 217.82 L 327.79 217.82 L 327.85 217.82 L 328.24 217.81 L 328.28 217.79 L 328.37 217.36 L 328.44 217.12 L 328.45 217.12 L 328.67 217.08 L 328.72 217.06 L 330.01 216.43 L 330.16 216.37 L 330.27 216.36 L 330.29 216.36 L 330.69 216.20 L 330.83 216.28 L 330.85 216.27 L 331.07 216.23 L 331.30 214.90 L 331.33 214.89 L 331.53 214.74 L 331.61 214.74 L 331.68 214.74 L 331.84 214.59 L 332.19 214.05 L 332.26 214.03 L 332.32 213.88 L 332.47 213.24 L 332.81 212.58 L 333.12 209.47 L 333.18 209.09 L 333.50 208.94 L 333.55 208.86 L 333.60 208.71 L 333.63 208.21 L 333.74 207.32 L 333.77 207.35 L 333.82 207.34 L 334.00 207.33 L 334.27 207.00 L 334.44 206.94 L 334.64 206.93 L 334.72 206.92 L 334.92 206.91 L 335.23 206.91 L 335.55 206.90 L 335.79 206.89 L 335.85 206.88 L 335.91 206.87 L 335.91 206.76 L 336.10 206.70 L 336.15 206.69 L 336.22 206.55 L 336.74 206.53 L 336.75 206.27 L 336.89 206.25 L 337.49 206.26 L 337.89 206.10 L 338.18 205.90 L 338.19 205.79 L 338.22 205.79 L 347.02 205.60 L 347.05 205.60 L 347.15 205.59 L 347.20 205.43 L 347.23 205.41 L 347.23 205.40 L 347.61 205.36 L 347.69 204.80 L 347.81 204.67 L 347.99 203.56 L 348.11 203.55 L 348.26 203.08 L 348.35 203.14 L 348.39 203.14 L 348.43 202.60 L 348.54 202.23 L 348.56 201.84 L 348.60 201.78 L 348.69 201.75 L 348.75 201.57 L 348.83 203.69 L 348.94 203.65 L 349.16 202.80 L 349.25 202.59 L 349.33 202.42 L 349.87 201.20 L 350.34 200.61 L 350.89 199.49 L 351.04 199.44 L 351.19 199.44 L 351.37 199.39 L 354.60 199.07 L 354.87 199.04 L 385.54 198.19 L 482.12 197.99 L 482.44 197.65 L 482.66 197.60 L 482.88 197.60 L 483.22 196.94 L 483.33 196.62 L 483.42 196.03 L 483.57 194.33 L 483.80 194.68 L 483.98 194.31 L 484.02 194.30 L 484.17 194.19 L 484.20 194.19 L 484.36 193.56 L 484.50 192.56 L 484.94 191.50 L 484.95 191.41 L 485.08 190.15 L 485.49 187.01 L 485.51 186.90 L 485.59 186.83 L 485.69 185.71 L 486.14 184.20 L 486.15 184.06 L 486.24 183.99 L 486.35 183.25 L 486.52 182.66 L 486.53 182.55 L 486.60 181.40 L 486.61 181.37 L 486.65 181.05 L 486.84 179.01 L 486.87 178.89 L 486.93 178.77 L 487.14 178.50 L 487.18 178.49 L 487.34 178.10 L 487.61 178.15 L 487.65 178.10 L 487.68 178.07 L 487.73 178.04 L 487.87 176.84 L 488.01 175.86 L 488.03 175.78 L 488.11 174.55 L 488.19 173.36 L 488.21 173.21 L 488.30 171.81 L 488.33 170.71 L 488.50 169.97 L 488.52 169.92 L 488.61 169.69 L 488.72 169.67 L 489.42 169.64 L 489.76 169.60 L 497.31 169.65 L 497.38 169.44 L 497.46 169.25 L 497.59 168.43 L 497.87 168.22 L 497.89 168.14 L 497.94 167.05 L 498.12 166.00 L 498.14 165.90 L 499.79 165.83 L 499.89 165.24 L 500.72 165.06 L 500.81 165.02 L 500.91 163.79 L 501.91 162.64 L 502.34 162.20 L 502.44 161.31 L 502.80 159.77 L 503.03 159.32 L 503.40 158.42 L 504.06 157.96 L 514.16 157.95 L 514.76 157.84 L 514.79 157.86 L 515.63 157.68 L 515.68 157.60 L 515.97 157.53 L 516.32 156.52 L 516.32 156.52 L 516.35 156.48 L 516.80 155.33 L 517.84 154.68 L 517.91 154.62 L 518.02 154.61 L 518.17 154.31 L 518.22 154.23 L 518.28 154.17 L 518.76 154.13 L 519.15 154.13 L 519.36 154.13 L 519.38 154.08 L 519.82 153.08 L 520.15 152.89 L 520.16 152.82 L 520.20 152.74 L 520.25 152.47 L 531.21 152.08 L 531.23 152.06 L 531.26 152.04 L 531.47 151.93 L 531.64 151.81 L 532.60 150.27 L 532.84 150.09 L 533.54 149.62 L 534.14 149.51 L 534.58 149.36 L 534.70 147.94 L 535.26 146.27 L 535.46 146.15 L 535.54 145.08 L 537.16 143.10 L 537.17 143.10 L 537.26 142.62 L 537.57 142.57 L 537.57 142.57 L 537.59 142.45 L 537.65 142.29 L 537.79 142.14 L 537.96 141.31 L 539.64 139.31 L 539.86 139.07 L 540.01 138.71 L 540.04 138.67 L 540.07 138.39 L 547.53 137.48 L 547.77 136.80 L 547.92 136.77 L 547.97 136.31 L 548.67 136.10 L 548.82 135.64 L 548.95 135.64 L 549.03 134.69 L 549.27 132.25 L 549.30 132.21 L 549.62 132.17 L 549.69 131.37 L 549.96 130.42 L 550.01 129.75 L 550.24 129.15 L 550.40 128.82 L 550.53 128.09 L 550.81 127.47 L 550.84 126.78 L 551.20 126.62 L 551.23 126.62 L 551.29 125.74 L 551.36 125.74 L 551.40 125.67 L 551.82 124.01 L 552.42 123.47 L 552.72 123.65 L 553.71 123.57 L 553.73 123.56 L 553.88 123.54 L 553.95 123.53 L 554.06 123.41 L 554.18 123.32 L 554.32 123.13 L 554.61 122.90 L 554.89 122.88 L 555.78 122.71 L 555.82 122.70 L 556.70 122.55 L 557.08 122.45 L 564.63 122.43 L 565.01 122.31 L 565.20 122.23 L 565.28 122.23 L 565.31 122.23 L 565.50 122.20 L 565.58 122.15 L 565.81 121.99 L 565.94 121.96 L 566.43 121.79 L 566.69 121.42 L 567.11 121.36 L 567.23 121.13 L 567.38 120.98 L 567.56 120.79 L 568.21 120.84 L 568.28 120.82 L 569.23 120.36 L 569.38 120.09 L 569.57 120.00 L 570.03 119.78 L 570.24 119.84 L 570.35 120.20 L 570.44 120.18 L 570.57 120.03 L 570.98 118.94 L 571.40 118.83 L 571.78 118.74 L 571.83 118.69 L 571.87 118.38 L 599.18 118.30 L 599.36 118.17 L 615.08 117.81 L 615.15 118.21 L 615.28 116.54 L 615.30 116.54 L 615.35 116.59 L 615.91 113.20 L 615.97 113.17 L 616.66 113.25 L 617.37 113.04 L 617.61 112.72 L 618.05 112.31 L 618.64 112.05 L 618.65 112.05 L 618.73 111.98 L 618.96 111.92 L 619.03 111.75 L 619.60 110.93 L 620.33 110.75 L 620.41 110.59 L 620.78 110.52 L 620.89 111.17 L 621.17 110.93 L 621.41 110.88 L 621.88 110.70 L 622.34 110.62 L 622.57 110.26 L 622.58 110.26 L 632.41 110.24 L 635.50 109.32 L 635.62 108.87 L 635.78 108.45 L 636.27 108.42 L 636.48 108.28 L 636.64 106.10 L 636.74 104.70 L 636.97 104.56 L 637.01 104.54 L 637.35 104.13 L 637.46 103.91 L 637.52 103.80 L 637.71 103.45 L 637.77 103.43 L 637.87 103.38 L 637.94 103.18 L 638.03 102.94 L 638.12 102.82 L 638.19 102.78 L 638.51 102.68 L 638.67 102.43 L 638.80 102.31 L 638.84 101.61 L 639.20 101.48 L 639.34 101.08 L 648.60 101.17 L 649.28 100.92 L 649.40 100.92 L 649.82 100.10 L 650.00 100.00"/>
	</g>
	<g id="poloto_plot1" class="poloto_plot poloto_imgs poloto_line poloto1 poloto_stroke" fill="none" stroke="black">
		<path d=" M 150.00 382.95 L 150.02 382.94 L 150.04 382.92 L 150.05 382.92 L 150.07 382.92 L 150.09 382.39 L 150.20 382.37 L 150.43 382.36 L 150.78 382.15 L 150.96 382.06 L 151.32 382.08 L 151.38 382.05 L 151.43 382.05 L 151.84 382.00 L 152.62 381.90 L 152.87 379.80 L 152.93 379.80 L 153.41 379.75 L 153.95 379.74 L 153.95 379.74 L 153.96 379.74 L 161.29 379.74 L 161.34 379.74 L 161.43 379.73 L 161.47 379.71 L 161.75 379.70 L 161.88 379.70 L 162.19 379.70 L 162.23 379.70 L 162.32 379.68 L 162.41 379.68 L 162.44 379.68 L 162.52 379.65 L 162.60 379.65 L 162.68 379.65 L 162.88 379.54 L 163.06 379.54 L 163.09 379.54 L 163.18 379.54 L 163.76 380.33 L 163.78 380.33 L 163.85 380.32 L 164.18 380.20 L 164.45 380.07 L 164.75 380.01 L 164.81 379.97 L 164.82 379.97 L 164.88 379.97 L 164.99 379.97 L 165.14 379.92 L 165.43 379.87 L 165.44 379.87 L 165.49 379.87 L 165.56 379.85 L 165.73 379.85 L 165.75 379.85 L 165.92 379.84 L 165.99 379.84 L 166.05 379.84 L 166.12 379.84 L 167.01 379.75 L 167.22 379.74 L 167.72 379.70 L 167.83 379.70 L 167.90 379.70 L 167.95 379.70 L 168.29 379.64 L 168.44 379.64 L 168.62 379.56 L 168.70 379.55 L 168.91 379.38 L 169.00 379.32 L 169.12 379.32 L 169.24 379.32 L 169.63 376.85 L 169.64 376.81 L 169.66 376.81 L 169.80 376.57 L 176.59 376.57 L 177.30 375.51 L 177.32 375.51 L 178.15 375.51 L 178.22 375.51 L 178.30 375.40 L 178.50 375.38 L 178.60 375.38 L 178.63 375.38 L 178.73 375.38 L 178.98 375.38 L 178.99 375.15 L 179.08 375.14 L 179.17 375.14 L 179.28 375.12 L 179.41 375.11 L 179.46 375.11 L 179.48 375.11 L 179.60 375.11 L 179.62 375.11 L 179.74 375.11 L 179.77 375.11 L 179.96 374.06 L 179.99 374.06 L 180.06 373.94 L 180.14 373.94 L 180.26 373.94 L 180.30 373.93 L 180.69 373.92 L 180.69 373.92 L 180.77 373.86 L 180.94 373.86 L 181.09 373.26 L 181.14 373.19 L 181.21 373.19 L 181.24 373.19 L 181.33 373.17 L 181.76 368.77 L 181.80 368.80 L 181.95 368.80 L 181.99 368.80 L 182.03 368.80 L 182.10 368.80 L 182.16 368.74 L 182.31 368.74 L 182.42 368.74 L 182.51 368.73 L 182.55 368.73 L 182.94 368.72 L 183.15 368.72 L 183.21 368.61 L 183.39 368.61 L 183.40 368.61 L 183.42 368.61 L 183.53 368.31 L 183.62 368.24 L 183.94 367.19 L 183.99 367.19 L 184.05 367.19 L 184.13 367.21 L 184.14 367.21 L 184.18 367.21 L 184.21 367.21 L 184.26 367.21 L 184.30 367.21 L 184.42 367.19 L 184.51 367.19 L 184.60 367.17 L 184.72 367.17 L 184.86 367.16 L 185.00 366.77 L 185.10 366.64 L 185.29 366.64 L 185.30 366.64 L 185.41 366.64 L 194.90 366.64 L 195.09 366.63 L 195.53 366.57 L 195.63 366.56 L 195.70 366.56 L 195.71 366.56 L 195.88 366.56 L 195.99 366.56 L 196.05 366.56 L 196.12 366.56 L 196.16 366.55 L 196.33 366.55 L 196.67 366.57 L 196.76 366.57 L 196.82 366.57 L 196.90 366.57 L 197.34 366.49 L 197.41 366.45 L 197.44 366.45 L 197.46 366.39 L 197.56 366.39 L 197.63 366.39 L 197.95 365.99 L 198.41 365.99 L 198.58 365.99 L 199.09 365.99 L 199.33 363.29 L 199.41 363.29 L 199.52 363.29 L 199.66 363.28 L 199.89 363.28 L 200.22 363.28 L 200.65 363.28 L 200.71 363.28 L 201.03 363.22 L 201.23 363.11 L 201.29 363.11 L 201.42 363.11 L 201.51 363.09 L 202.63 362.92 L 203.70 362.92 L 213.26 362.92 L 213.32 362.92 L 213.37 362.92 L 213.67 362.92 L 214.56 362.07 L 214.60 362.04 L 214.73 361.96 L 215.17 361.95 L 215.37 361.75 L 215.69 361.75 L 215.76 361.75 L 215.83 361.75 L 216.39 359.38 L 216.45 359.38 L 216.57 359.38 L 216.69 359.38 L 216.75 359.23 L 217.06 358.95 L 217.17 358.95 L 217.22 358.95 L 217.29 358.51 L 217.43 358.08 L 217.48 358.08 L 217.62 358.07 L 218.04 354.54 L 218.08 354.54 L 218.12 354.54 L 218.18 354.54 L 218.28 354.54 L 218.32 354.54 L 218.36 354.54 L 218.56 354.54 L 218.61 354.47 L 218.85 354.45 L 219.00 354.40 L 219.09 353.98 L 219.83 346.96 L 219.91 346.96 L 247.99 346.96 L 248.02 346.96 L 258.75 346.96 L 259.33 346.86 L 259.45 346.86 L 259.61 346.86 L 259.66 346.86 L 259.72 346.86 L 264.38 346.80 L 264.99 346.74 L 265.22 346.74 L 265.34 346.71 L 268.24 346.65 L 268.26 346.56 L 268.44 346.56 L 269.30 345.61 L 269.35 345.61 L 269.46 345.61 L 269.77 345.61 L 269.81 345.61 L 269.93 345.61 L 270.06 345.61 L 270.08 345.61 L 279.10 345.59 L 279.16 345.43 L 279.52 345.43 L 279.53 344.28 L 279.59 344.28 L 279.67 344.28 L 279.77 344.17 L 279.92 344.17 L 280.05 344.13 L 280.17 344.13 L 280.21 344.13 L 280.39 344.11 L 281.02 342.17 L 281.27 342.16 L 281.31 342.15 L 281.36 342.15 L 281.40 342.15 L 281.48 342.12 L 281.74 341.88 L 281.78 341.84 L 281.93 340.10 L 281.99 340.09 L 282.01 340.09 L 282.07 340.07 L 282.11 340.07 L 282.14 340.06 L 282.34 339.11 L 282.43 339.10 L 282.54 339.08 L 282.61 336.12 L 282.65 336.12 L 282.84 334.45 L 282.90 334.45 L 282.94 334.45 L 282.99 334.45 L 283.02 334.45 L 283.05 334.45 L 283.06 334.45 L 283.16 331.37 L 283.19 331.36 L 283.29 331.35 L 283.36 331.35 L 283.56 331.29 L 283.81 331.21 L 283.82 331.21 L 283.89 331.19 L 284.12 331.14 L 284.23 331.14 L 284.34 331.14 L 284.45 329.81 L 284.53 329.81 L 284.85 329.80 L 284.88 329.80 L 284.92 329.80 L 284.94 329.80 L 285.15 327.90 L 285.19 327.90 L 285.34 327.89 L 299.22 327.89 L 300.01 327.88 L 300.03 327.88 L 300.19 327.88 L 300.20 327.88 L 300.30 327.88 L 300.38 327.88 L 300.45 327.78 L 300.54 327.78 L 300.57 327.78 L 300.61 327.78 L 300.75 327.61 L 301.06 327.50 L 301.25 327.39 L 301.46 326.85 L 301.47 326.85 L 301.50 326.72 L 301.53 326.70 L 301.94 326.38 L 301.95 326.38 L 302.01 326.33 L 302.19 326.33 L 302.31 326.30 L 302.33 325.51 L 302.34 325.51 L 302.39 326.29 L 302.42 326.24 L 302.44 326.23 L 302.54 325.18 L 302.54 325.18 L 302.76 325.13 L 303.36 325.13 L 303.49 325.13 L 303.54 325.13 L 303.57 325.13 L 303.60 325.13 L 303.69 325.06 L 313.17 324.19 L 313.18 324.19 L 313.26 324.18 L 313.29 323.99 L 313.34 314.63 L 313.45 311.15 L 313.46 311.15 L 313.63 311.09 L 313.67 311.09 L 313.70 311.07 L 313.86 311.07 L 314.27 310.22 L 314.28 310.22 L 314.38 310.17 L 314.42 310.17 L 314.44 310.10 L 314.79 309.59 L 314.80 309.59 L 315.31 309.49 L 315.38 309.45 L 315.56 309.46 L 315.78 308.31 L 315.83 308.20 L 315.87 308.09 L 315.96 307.66 L 316.23 307.55 L 316.28 307.46 L 316.40 307.46 L 316.53 307.46 L 316.93 307.46 L 316.97 307.46 L 317.06 307.46 L 317.07 307.46 L 317.20 307.47 L 317.50 307.47 L 317.81 307.35 L 317.86 307.35 L 317.93 307.34 L 318.02 307.34 L 318.25 307.34 L 318.66 307.34 L 318.79 307.24 L 319.00 304.21 L 319.88 307.06 L 320.07 307.05 L 320.21 307.04 L 320.42 307.04 L 320.49 307.01 L 320.71 306.99 L 321.05 306.82 L 321.10 306.82 L 321.16 306.82 L 321.20 306.82 L 321.24 306.82 L 321.51 306.65 L 327.79 306.65 L 327.85 306.66 L 328.24 306.64 L 328.28 306.64 L 328.37 306.62 L 328.44 306.41 L 328.45 306.40 L 328.67 306.38 L 328.72 306.38 L 330.01 306.21 L 330.16 306.21 L 330.27 306.21 L 330.29 306.21 L 330.69 306.08 L 330.83 306.08 L 330.85 306.08 L 331.07 306.08 L 331.30 305.36 L 331.33 305.36 L 331.53 305.24 L 331.61 305.24 L 331.68 305.24 L 331.84 305.24 L 332.19 305.23 L 332.26 305.21 L 332.32 305.15 L 332.47 305.02 L 332.81 304.91 L 333.12 302.06 L 333.18 301.97 L 333.50 301.83 L 333.55 301.80 L 333.60 301.70 L 333.63 301.50 L 333.74 300.64 L 333.77 300.68 L 333.82 300.66 L 334.00 300.66 L 334.27 300.54 L 334.44 300.50 L 334.64 300.48 L 334.72 300.47 L 334.92 300.46 L 335.23 300.46 L 335.55 300.46 L 335.79 300.45 L 335.85 300.45 L 335.91 300.45 L 335.91 300.44 L 336.10 300.44 L 336.15 300.43 L 336.22 300.32 L 336.74 300.31 L 336.75 300.31 L 336.89 300.30 L 337.49 300.30 L 337.89 300.16 L 338.18 300.04 L 338.19 300.04 L 338.22 300.03 L 347.02 300.03 L 347.05 300.03 L 347.15 300.03 L 347.20 300.03 L 347.23 300.02 L 347.23 300.02 L 347.61 300.02 L 347.69 300.01 L 347.81 299.99 L 347.99 299.97 L 348.11 299.97 L 348.26 299.90 L 348.35 299.90 L 348.39 299.90 L 348.43 299.90 L 348.54 299.64 L 348.56 299.64 L 348.60 299.64 L 348.69 299.64 L 348.75 299.64 L 348.83 299.70 L 348.94 299.70 L 349.16 299.69 L 349.25 299.69 L 349.33 299.69 L 349.87 298.85 L 350.34 298.63 L 350.89 298.03 L 351.04 298.03 L 351.19 298.03 L 351.37 298.03 L 354.60 297.96 L 354.87 297.95 L 385.54 297.85 L 482.12 297.69 L 482.44 297.64 L 482.66 297.64 L 482.88 297.64 L 483.22 297.25 L 483.33 297.25 L 483.42 297.25 L 483.57 295.84 L 483.80 296.11 L 483.98 296.09 L 484.02 296.09 L 484.17 296.08 L 484.20 296.08 L 484.36 296.08 L 484.50 296.01 L 484.94 295.13 L 484.95 295.13 L 485.08 295.05 L 485.49 292.17 L 485.51 292.17 L 485.59 292.17 L 485.69 292.13 L 486.14 290.79 L 486.15 290.79 L 486.24 290.79 L 486.35 290.76 L 486.52 290.27 L 486.53 290.27 L 486.60 290.26 L 486.61 290.26 L 486.65 289.99 L 486.84 288.09 L 486.87 288.09 L 486.93 288.09 L 487.14 287.93 L 487.18 287.93 L 487.34 287.62 L 487.61 287.62 L 487.65 287.62 L 487.68 287.62 L 487.73 287.62 L 487.87 287.61 L 488.01 286.75 L 488.03 286.75 L 488.11 286.75 L 488.19 286.10 L 488.21 286.10 L 488.30 285.41 L 488.33 285.37 L 488.50 284.69 L 488.52 284.69 L 488.61 284.69 L 488.72 284.68 L 489.42 284.68 L 489.76 284.67 L 497.31 284.67 L 497.38 284.67 L 497.46 284.67 L 497.59 284.67 L 497.87 284.49 L 497.89 284.49 L 497.94 284.43 L 498.12 283.48 L 498.14 283.48 L 499.79 283.50 L 499.89 283.32 L 500.72 283.32 L 500.81 283.31 L 500.91 283.24 L 501.91 282.46 L 502.34 282.31 L 502.44 282.26 L 502.80 280.77 L 503.03 280.77 L 503.40 280.65 L 504.06 280.65 L 514.16 280.65 L 514.76 280.56 L 514.79 280.58 L 515.63 280.58 L 515.68 280.58 L 515.97 280.58 L 516.32 280.55 L 516.32 280.55 L 516.35 280.55 L 516.80 279.68 L 517.84 279.65 L 517.91 279.65 L 518.02 279.65 L 518.17 279.62 L 518.22 279.59 L 518.28 279.59 L 518.76 279.55 L 519.15 279.55 L 519.36 279.55 L 519.38 279.55 L 519.82 279.53 L 520.15 279.43 L 520.16 279.43 L 520.20 279.43 L 520.25 279.43 L 531.21 279.23 L 531.23 279.23 L 531.26 279.23 L 531.47 279.23 L 531.64 279.23 L 532.60 278.37 L 532.84 278.32 L 533.54 278.25 L 534.14 278.21 L 534.58 278.21 L 534.70 278.21 L 535.26 276.91 L 535.46 276.88 L 535.54 276.83 L 537.16 275.92 L 537.17 275.92 L 537.26 275.91 L 537.57 275.90 L 537.57 275.90 L 537.59 275.90 L 537.65 275.87 L 537.79 275.84 L 537.96 275.73 L 539.64 274.23 L 539.86 274.16 L 540.01 274.16 L 540.04 274.16 L 540.07 274.16 L 547.53 274.16 L 547.77 274.15 L 547.92 274.15 L 547.97 274.15 L 548.67 274.15 L 548.82 274.15 L 548.95 274.15 L 549.03 274.12 L 549.27 272.15 L 549.30 272.14 L 549.62 272.15 L 549.69 272.13 L 549.96 271.37 L 550.01 271.33 L 550.24 270.83 L 550.40 270.83 L 550.53 270.78 L 550.81 270.33 L 550.84 270.32 L 551.20 268.86 L 551.23 268.86 L 551.29 268.85 L 551.36 268.85 L 551.40 268.85 L 551.82 267.39 L 552.42 267.26 L 552.72 267.26 L 553.71 267.22 L 553.73 267.22 L 553.88 267.22 L 553.95 267.22 L 554.06 267.22 L 554.18 267.22 L 554.32 267.20 L 554.61 267.18 L 554.89 267.18 L 555.78 267.12 L 555.82 267.12 L 556.70 267.08 L 557.08 267.04 L 564.63 267.05 L 565.01 266.98 L 565.20 266.90 L 565.28 266.90 L 565.31 266.90 L 565.50 266.90 L 565.58 266.90 L 565.81 266.90 L 565.94 266.89 L 566.43 266.76 L 566.69 266.49 L 567.11 266.47 L 567.23 266.30 L 567.38 266.22 L 567.56 266.14 L 568.21 266.22 L 568.28 266.22 L 569.23 265.94 L 569.38 265.94 L 569.57 265.94 L 570.03 265.92 L 570.24 266.05 L 570.35 266.05 L 570.44 266.05 L 570.57 266.05 L 570.98 265.42 L 571.40 265.40 L 571.78 265.40 L 571.83 265.40 L 571.87 265.40 L 599.18 265.40 L 599.36 265.35 L 615.08 265.14 L 615.15 265.14 L 615.28 265.09 L 615.30 265.09 L 615.35 265.09 L 615.91 262.65 L 615.97 262.65 L 616.66 262.65 L 617.37 262.54 L 617.61 262.30 L 618.05 261.98 L 618.64 261.90 L 618.65 261.90 L 618.73 261.85 L 618.96 261.85 L 619.03 261.80 L 619.60 261.15 L 620.33 261.04 L 620.41 261.04 L 620.78 261.04 L 620.89 261.04 L 621.17 260.87 L 621.41 260.85 L 621.88 260.71 L 622.34 260.64 L 622.57 260.64 L 622.58 260.64 L 632.41 260.64 L 635.50 260.59 L 635.62 260.57 L 635.78 260.27 L 636.27 260.29 L 636.48 260.29 L 636.64 260.29 L 636.74 260.17 L 636.97 260.08 L 637.01 260.07 L 637.35 259.84 L 637.46 259.67 L 637.52 259.62 L 637.71 259.51 L 637.77 259.51 L 637.87 259.49 L 637.94 259.35 L 638.03 259.20 L 638.12 259.16 L 638.19 259.16 L 638.51 259.10 L 638.67 258.99 L 638.80 258.89 L 638.84 258.89 L 639.20 258.89 L 639.34 258.89 L 648.60 258.92 L 649.28 258.90 L 649.40 258.90 L 649.82 258.49 L 650.00 258.43"/>
	</g>
	<g id="poloto_plot2" class="poloto_plot poloto_imgs poloto_line poloto2 poloto_stroke" fill="none" stroke="black">
		<path d=" M 150.00 392.35 L 150.02 392.34 L 150.04 392.34 L 150.05 392.34 L 150.07 392.34 L 150.09 390.39 L 150.20 390.12 L 150.43 390.11 L 150.78 390.10 L 150.96 388.93 L 151.32 388.83 L 151.38 388.79 L 151.43 388.76 L 151.84 388.24 L 152.62 387.83 L 152.87 387.75 L 152.93 387.75 L 153.41 387.72 L 153.95 387.72 L 153.95 387.72 L 153.96 387.72 L 161.29 387.72 L 161.34 387.72 L 161.43 387.70 L 161.47 387.70 L 161.75 387.58 L 161.88 387.55 L 162.19 387.36 L 162.23 387.27 L 162.32 387.10 L 162.41 387.08 L 162.44 387.08 L 162.52 387.04 L 162.60 387.04 L 162.68 387.05 L 162.88 386.85 L 163.06 386.67 L 163.09 386.67 L 163.18 386.56 L 163.76 386.33 L 163.78 386.33 L 163.85 386.25 L 164.18 385.99 L 164.45 385.67 L 164.75 385.54 L 164.81 385.54 L 164.82 385.55 L 164.88 385.37 L 164.99 385.37 L 165.14 385.35 L 165.43 385.21 L 165.44 384.98 L 165.49 384.98 L 165.56 384.87 L 165.73 384.87 L 165.75 384.87 L 165.92 384.53 L 165.99 384.51 L 166.05 384.48 L 166.12 384.32 L 167.01 384.22 L 167.22 384.19 L 167.72 383.95 L 167.83 383.95 L 167.90 383.94 L 167.95 383.76 L 168.29 382.80 L 168.44 382.79 L 168.62 382.50 L 168.70 382.47 L 168.91 382.34 L 169.00 382.30 L 169.12 382.10 L 169.24 381.93 L 169.63 381.93 L 169.64 381.90 L 169.66 381.77 L 169.80 380.84 L 176.59 380.75 L 177.30 380.47 L 177.32 380.43 L 178.15 380.20 L 178.22 380.20 L 178.30 380.03 L 178.50 379.91 L 178.60 379.70 L 178.63 379.53 L 178.73 379.18 L 178.98 379.17 L 178.99 379.17 L 179.08 378.93 L 179.17 378.93 L 179.28 378.68 L 179.41 378.48 L 179.46 378.37 L 179.48 378.37 L 179.60 378.14 L 179.62 378.13 L 179.74 377.92 L 179.77 377.91 L 179.96 377.84 L 179.99 377.84 L 180.06 377.76 L 180.14 377.74 L 180.26 377.74 L 180.30 377.73 L 180.69 377.52 L 180.69 377.53 L 180.77 377.11 L 180.94 377.10 L 181.09 376.97 L 181.14 376.97 L 181.21 376.96 L 181.24 376.93 L 181.33 376.36 L 181.76 375.88 L 181.80 375.61 L 181.95 375.59 L 181.99 375.53 L 182.03 375.52 L 182.10 375.39 L 182.16 374.94 L 182.31 374.87 L 182.42 374.86 L 182.51 374.63 L 182.55 374.62 L 182.94 374.46 L 183.15 374.34 L 183.21 374.23 L 183.39 374.22 L 183.40 374.22 L 183.42 374.20 L 183.53 373.38 L 183.62 373.38 L 183.94 373.26 L 183.99 372.93 L 184.05 372.93 L 184.13 372.79 L 184.14 372.71 L 184.18 372.66 L 184.21 372.63 L 184.26 372.62 L 184.30 372.56 L 184.42 371.64 L 184.51 371.54 L 184.60 371.27 L 184.72 371.25 L 184.86 371.16 L 185.00 370.87 L 185.10 370.08 L 185.29 370.01 L 185.30 369.67 L 185.41 369.59 L 194.90 369.59 L 195.09 369.59 L 195.53 369.21 L 195.63 369.21 L 195.70 369.21 L 195.71 369.12 L 195.88 368.95 L 195.99 368.92 L 196.05 368.83 L 196.12 368.76 L 196.16 368.72 L 196.33 368.67 L 196.67 368.75 L 196.76 368.50 L 196.82 368.43 L 196.90 368.42 L 197.34 368.37 L 197.41 368.33 L 197.44 368.33 L 197.46 368.28 L 197.56 368.24 L 197.63 368.14 L 197.95 367.91 L 198.41 367.80 L 198.58 367.76 L 199.09 367.61 L 199.33 367.24 L 199.41 367.17 L 199.52 366.88 L 199.66 366.51 L 199.89 366.41 L 200.22 366.40 L 200.65 366.38 L 200.71 366.25 L 201.03 366.15 L 201.23 366.04 L 201.29 365.94 L 201.42 365.90 L 201.51 365.65 L 202.63 365.53 L 203.70 365.53 L 213.26 365.50 L 213.32 365.37 L 213.37 365.28 L 213.67 365.14 L 214.56 364.89 L 214.60 364.85 L 214.73 364.68 L 215.17 364.61 L 215.37 364.12 L 215.69 364.11 L 215.76 364.09 L 215.83 363.62 L 216.39 363.17 L 216.45 363.17 L 216.57 363.14 L 216.69 363.10 L 216.75 362.94 L 217.06 362.20 L 217.17 362.01 L 217.22 361.99 L 217.29 361.91 L 217.43 361.62 L 217.48 360.88 L 217.62 360.58 L 218.04 360.40 L 218.08 360.03 L 218.12 360.03 L 218.18 359.96 L 218.28 359.86 L 218.32 359.83 L 218.36 359.80 L 218.56 358.93 L 218.61 358.42 L 218.85 358.33 L 219.00 357.46 L 219.09 357.30 L 219.83 355.94 L 219.91 355.92 L 247.99 355.52 L 248.02 355.52 L 258.75 355.41 L 259.33 355.27 L 259.45 355.27 L 259.61 355.19 L 259.66 355.09 L 259.72 355.06 L 264.38 355.05 L 264.99 353.49 L 265.22 353.35 L 265.34 352.81 L 268.24 352.75 L 268.26 352.70 L 268.44 352.69 L 269.30 352.59 L 269.35 352.41 L 269.46 352.35 L 269.77 352.27 L 269.81 352.25 L 269.93 351.95 L 270.06 351.85 L 270.08 351.62 L 279.10 351.33 L 279.16 350.62 L 279.52 350.44 L 279.53 350.17 L 279.59 349.95 L 279.67 349.63 L 279.77 348.77 L 279.92 348.30 L 280.05 347.69 L 280.17 347.69 L 280.21 347.22 L 280.39 347.19 L 281.02 346.75 L 281.27 346.54 L 281.31 346.41 L 281.36 346.41 L 281.40 346.25 L 281.48 345.72 L 281.74 345.67 L 281.78 345.67 L 281.93 345.32 L 281.99 345.32 L 282.01 345.12 L 282.07 345.00 L 282.11 344.99 L 282.14 344.72 L 282.34 344.55 L 282.43 344.28 L 282.54 344.26 L 282.61 344.12 L 282.65 343.91 L 282.84 343.79 L 282.90 343.67 L 282.94 343.67 L 282.99 343.67 L 283.02 343.45 L 283.05 343.46 L 283.06 343.46 L 283.16 343.38 L 283.19 343.14 L 283.29 343.14 L 283.36 343.08 L 283.56 343.07 L 283.81 343.04 L 283.82 343.04 L 283.89 343.03 L 284.12 343.02 L 284.23 343.02 L 284.34 343.02 L 284.45 342.99 L 284.53 342.70 L 284.85 342.70 L 284.88 342.53 L 284.92 342.53 L 284.94 342.34 L 285.15 342.27 L 285.19 342.22 L 285.34 342.22 L 299.22 342.17 L 300.01 342.09 L 300.03 342.09 L 300.19 342.09 L 300.20 342.09 L 300.30 341.76 L 300.38 341.75 L 300.45 341.65 L 300.54 341.60 L 300.57 341.57 L 300.61 341.55 L 300.75 341.52 L 301.06 341.46 L 301.25 341.01 L 301.46 340.98 L 301.47 340.95 L 301.50 340.58 L 301.53 340.57 L 301.94 340.57 L 301.95 340.53 L 302.01 340.19 L 302.19 340.14 L 302.31 340.13 L 302.33 340.12 L 302.34 340.08 L 302.39 340.06 L 302.42 339.70 L 302.44 339.69 L 302.54 339.69 L 302.54 339.66 L 302.76 339.63 L 303.36 339.61 L 303.49 339.58 L 303.54 339.57 L 303.57 339.46 L 303.60 339.46 L 303.69 339.06 L 313.17 338.93 L 313.18 338.82 L 313.26 338.74 L 313.29 338.72 L 313.34 338.38 L 313.45 338.30 L 313.46 338.28 L 313.63 338.28 L 313.67 338.28 L 313.70 337.94 L 313.86 337.89 L 314.27 337.88 L 314.28 337.86 L 314.38 337.68 L 314.42 337.68 L 314.44 337.37 L 314.79 337.37 L 314.80 337.35 L 315.31 337.27 L 315.38 336.90 L 315.56 336.90 L 315.78 336.89 L 315.83 336.61 L 315.87 336.40 L 315.96 336.39 L 316.23 336.35 L 316.28 336.33 L 316.40 336.24 L 316.53 336.24 L 316.93 336.24 L 316.97 336.24 L 317.06 336.22 L 317.07 336.22 L 317.20 336.22 L 317.50 336.20 L 317.81 336.16 L 317.86 336.16 L 317.93 336.12 L 318.02 336.02 L 318.25 336.02 L 318.66 335.89 L 318.79 335.68 L 319.00 335.66 L 319.88 335.43 L 320.07 335.43 L 320.21 335.43 L 320.42 335.42 L 320.49 335.40 L 320.71 335.29 L 321.05 335.27 L 321.10 335.17 L 321.16 335.12 L 321.20 335.13 L 321.24 335.09 L 321.51 335.08 L 327.79 335.07 L 327.85 335.07 L 328.24 335.07 L 328.28 335.06 L 328.37 334.74 L 328.44 334.73 L 328.45 334.73 L 328.67 334.72 L 328.72 334.71 L 330.01 334.24 L 330.16 334.19 L 330.27 334.18 L 330.29 334.18 L 330.69 334.17 L 330.83 334.24 L 330.85 334.23 L 331.07 334.20 L 331.30 333.76 L 331.33 333.75 L 331.53 333.74 L 331.61 333.74 L 331.68 333.74 L 331.84 333.65 L 332.19 333.25 L 332.26 333.25 L 332.32 333.19 L 332.47 332.83 L 332.81 332.43 L 333.12 332.45 L 333.18 332.24 L 333.50 332.24 L 333.55 332.22 L 333.60 332.19 L 333.63 331.98 L 333.74 331.98 L 333.77 331.98 L 333.82 331.98 L 334.00 331.98 L 334.27 331.81 L 334.44 331.79 L 334.64 331.79 L 334.72 331.79 L 334.92 331.79 L 335.23 331.79 L 335.55 331.79 L 335.79 331.79 L 335.85 331.78 L 335.91 331.78 L 335.91 331.70 L 336.10 331.65 L 336.15 331.65 L 336.22 331.64 L 336.74 331.63 L 336.75 331.43 L 336.89 331.43 L 337.49 331.43 L 337.89 331.43 L 338.18 331.38 L 338.19 331.30 L 338.22 331.30 L 347.02 331.16 L 347.05 331.15 L 347.15 331.15 L 347.20 331.02 L 347.23 331.02 L 347.23 331.01 L 347.61 330.97 L 347.69 330.55 L 347.81 330.46 L 347.99 329.63 L 348.11 329.62 L 348.26 329.26 L 348.35 329.31 L 348.39 329.30 L 348.43 328.85 L 348.54 328.77 L 348.56 328.46 L 348.60 328.41 L 348.69 328.38 L 348.75 328.23 L 348.83 330.09 L 348.94 330.06 L 349.16 329.31 L 349.25 329.15 L 349.33 328.98 L 349.87 328.68 L 350.34 328.37 L 350.89 327.93 L 351.04 327.88 L 351.19 327.88 L 351.37 327.85 L 354.60 327.63 L 354.87 327.60 L 385.54 327.02 L 482.12 327.00 L 482.44 326.74 L 482.66 326.70 L 482.88 326.70 L 483.22 326.46 L 483.33 326.19 L 483.42 325.68 L 483.57 325.54 L 483.80 325.59 L 483.98 325.29 L 484.02 325.28 L 484.17 325.19 L 484.20 325.19 L 484.36 324.69 L 484.50 323.93 L 484.94 323.86 L 484.95 323.78 L 485.08 322.79 L 485.49 322.76 L 485.51 322.66 L 485.59 322.60 L 485.69 321.71 L 486.14 321.66 L 486.15 321.54 L 486.24 321.48 L 486.35 320.89 L 486.52 320.87 L 486.53 320.78 L 486.60 319.80 L 486.61 319.78 L 486.65 319.75 L 486.84 319.75 L 486.87 319.64 L 486.93 319.57 L 487.14 319.48 L 487.18 319.48 L 487.34 319.43 L 487.61 319.46 L 487.65 319.42 L 487.68 319.40 L 487.73 319.37 L 487.87 318.36 L 488.01 318.33 L 488.03 318.25 L 488.11 317.21 L 488.19 316.84 L 488.21 316.70 L 488.30 316.20 L 488.33 315.32 L 488.50 315.31 L 488.52 315.26 L 488.61 315.08 L 488.72 315.07 L 489.42 315.05 L 489.76 315.02 L 497.31 315.06 L 497.38 314.87 L 497.46 314.72 L 497.59 314.02 L 497.87 314.01 L 497.89 313.94 L 497.94 313.05 L 498.12 313.05 L 498.14 312.96 L 499.79 312.87 L 499.89 312.55 L 500.72 312.40 L 500.81 312.36 L 500.91 311.38 L 501.91 311.10 L 502.34 310.87 L 502.44 310.13 L 502.80 310.13 L 503.03 309.72 L 503.40 309.08 L 504.06 308.70 L 514.16 308.70 L 514.76 308.69 L 514.79 308.69 L 515.63 308.54 L 515.68 308.46 L 515.97 308.41 L 516.32 307.58 L 516.32 307.58 L 516.35 307.55 L 516.80 307.37 L 517.84 306.82 L 517.91 306.77 L 518.02 306.76 L 518.17 306.53 L 518.22 306.50 L 518.28 306.45 L 518.76 306.45 L 519.15 306.45 L 519.36 306.45 L 519.38 306.41 L 519.82 305.58 L 520.15 305.50 L 520.16 305.44 L 520.20 305.36 L 520.25 305.15 L 531.21 305.00 L 531.23 304.97 L 531.26 304.96 L 531.47 304.86 L 531.64 304.75 L 532.60 304.28 L 532.84 304.19 L 533.54 303.83 L 534.14 303.77 L 534.58 303.63 L 534.70 302.39 L 535.26 302.19 L 535.46 302.12 L 535.54 301.23 L 537.16 300.38 L 537.17 300.38 L 537.26 299.98 L 537.57 299.95 L 537.57 299.95 L 537.59 299.85 L 537.65 299.74 L 537.79 299.65 L 537.96 299.04 L 539.64 298.72 L 539.86 298.59 L 540.01 298.25 L 540.04 298.22 L 540.07 298.00 L 547.53 297.23 L 547.77 296.67 L 547.92 296.64 L 547.97 296.27 L 548.67 296.12 L 548.82 295.72 L 548.95 295.72 L 549.03 294.89 L 549.27 294.69 L 549.30 294.67 L 549.62 294.62 L 549.69 293.94 L 549.96 293.85 L 550.01 293.32 L 550.24 293.26 L 550.40 292.95 L 550.53 292.36 L 550.81 292.24 L 550.84 291.63 L 551.20 293.01 L 551.23 293.01 L 551.29 292.22 L 551.36 292.22 L 551.40 292.16 L 551.82 292.09 L 552.42 291.76 L 552.72 291.93 L 553.71 291.90 L 553.73 291.90 L 553.88 291.89 L 553.95 291.87 L 554.06 291.76 L 554.18 291.66 L 554.32 291.52 L 554.61 291.32 L 554.89 291.31 L 555.78 291.22 L 555.82 291.21 L 556.70 291.10 L 557.08 291.05 L 564.63 291.01 L 565.01 290.97 L 565.20 290.97 L 565.28 290.97 L 565.31 290.97 L 565.50 290.95 L 565.58 290.92 L 565.81 290.78 L 565.94 290.76 L 566.43 290.75 L 566.69 290.68 L 567.11 290.64 L 567.23 290.61 L 567.38 290.55 L 567.56 290.46 L 568.21 290.42 L 568.28 290.41 L 569.23 290.26 L 569.38 290.02 L 569.57 289.93 L 570.03 289.78 L 570.24 289.70 L 570.35 290.05 L 570.44 290.04 L 570.57 289.90 L 570.98 289.58 L 571.40 289.50 L 571.78 289.43 L 571.83 289.39 L 571.87 289.16 L 599.18 289.11 L 599.36 289.05 L 615.08 288.97 L 615.15 289.32 L 615.28 287.93 L 615.30 287.93 L 615.35 287.97 L 615.91 287.44 L 615.97 287.41 L 616.66 287.47 L 617.37 287.40 L 617.61 287.36 L 618.05 287.31 L 618.64 287.16 L 618.65 287.16 L 618.73 287.14 L 618.96 287.09 L 619.03 286.98 L 619.60 286.91 L 620.33 286.86 L 620.41 286.72 L 620.78 286.65 L 620.89 287.26 L 621.17 287.21 L 621.41 287.18 L 621.88 287.15 L 622.34 287.15 L 622.57 286.86 L 622.58 286.86 L 632.41 286.84 L 635.50 286.11 L 635.62 285.74 L 635.78 285.65 L 636.27 285.62 L 636.48 285.48 L 636.64 283.63 L 636.74 282.64 L 636.97 282.60 L 637.01 282.58 L 637.35 282.45 L 637.46 282.40 L 637.52 282.35 L 637.71 282.12 L 637.77 282.11 L 637.87 282.08 L 637.94 282.03 L 638.03 281.97 L 638.12 281.88 L 638.19 281.85 L 638.51 281.81 L 638.67 281.71 L 638.80 281.69 L 638.84 281.08 L 639.20 280.95 L 639.34 280.62 L 648.60 280.69 L 649.28 280.49 L 649.40 280.49 L 649.82 280.13 L 650.00 280.10"/>
	</g>
	<g class="poloto_legend poloto_imgs poloto_line poloto0 poloto_stroke"><line x1="680" x2="730" y1="81.25" y2="81.25"/></g>
	<g class="poloto_legend poloto_imgs poloto_line poloto1 poloto_stroke"><line x1="680" x2="730" y1="131.25" y2="131.25"/></g>
	<g class="poloto_legend poloto_imgs poloto_line poloto2 poloto_stroke"><line x1="680" x2="730" y1="181.25" y2="181.25"/></g>
	<text class="poloto_legend poloto_text poloto_line poloto0" x="675" y="100">total</text>
	<text class="poloto_legend poloto_text poloto_line poloto1" x="675" y="150">code</text>
	<text class="poloto_legend poloto_text poloto_line poloto2" x="675" y="200">docs</text>
	<text class="poloto_text poloto_name poloto_title" x="400.00" y="37.50">Workspace lines over time</text>
	<text class="poloto_text poloto_name poloto_x" x="400.00" y="640">date (JST)</text>
	<text class="poloto_text poloto_name poloto_y" x="37.50" y="250.00" transform="rotate(-90,37.50,250.00)">lines</text>
	<text class="poloto_text poloto_ticks poloto_y">
		<tspan x="135.00" y="400.00">0</tspan>
		<tspan x="135.00" y="327.28">50K</tspan>
		<tspan x="135.00" y="254.55">100K</tspan>
		<tspan x="135.00" y="181.83">150K</tspan>
		<tspan x="135.00" y="109.10">200K</tspan>
	</text>
	<g class="poloto_imgs poloto_ticks poloto_y" stroke="black">
		<line x1="150.00" x2="144.00" y1="400.00" y2="400.00"/>
		<line x1="150.00" x2="144.00" y1="327.28" y2="327.28"/>
		<line x1="150.00" x2="144.00" y1="254.55" y2="254.55"/>
		<line x1="150.00" x2="144.00" y1="181.83" y2="181.83"/>
		<line x1="150.00" x2="144.00" y1="109.10" y2="109.10"/>
	</g>
	<g class="poloto_text poloto_ticks poloto_x">
		<text x="213.13" y="430.00" text-anchor="end" transform="rotate(-90 213.13 430.00)">2026-04-24 12:06</text>
		<text x="310.32" y="430.00" text-anchor="end" transform="rotate(-90 310.32 430.00)">2026-04-30 07:00</text>
		<text x="407.50" y="430.00" text-anchor="end" transform="rotate(-90 407.50 430.00)">2026-05-06 01:53</text>
		<text x="504.68" y="430.00" text-anchor="end" transform="rotate(-90 504.68 430.00)">2026-05-11 20:46</text>
		<text x="601.86" y="430.00" text-anchor="end" transform="rotate(-90 601.86 430.00)">2026-05-17 15:40</text>
	</g>
	<g class="poloto_imgs poloto_ticks poloto_x" stroke="black">
		<line x1="213.13" x2="213.13" y1="400.00" y2="405.00"/>
		<line x1="310.32" x2="310.32" y1="400.00" y2="405.00"/>
		<line x1="407.50" x2="407.50" y1="400.00" y2="405.00"/>
		<line x1="504.68" x2="504.68" y1="400.00" y2="405.00"/>
		<line x1="601.86" x2="601.86" y1="400.00" y2="405.00"/>
	</g>
	<path class="poloto_imgs poloto_ticks poloto_x" stroke="black" style="stroke-dasharray:9.718229649541202;stroke-dashoffset:-63.13409018906532;" d=" M 150.00 400.00 L 650.00 400.00"/>
	<path class="poloto_imgs poloto_ticks poloto_y" stroke="black" style="stroke-dasharray:7.272480449148392;stroke-dashoffset:-0;" d=" M 150.00 400.00 L 150.00 100.00"/>
</svg>

