<svg class="poloto" width="800" height="680" viewBox="0 0 800 680" xmlns="http://www.w3.org/2000/svg">
	<style>
.poloto{
  stroke-linecap:round;
  stroke-linejoin:round;
  font-family:Roboto,sans-serif;
  font-size:16px;
}
.poloto_background{fill:AliceBlue;}
.poloto_scatter{stroke-width:7}
.poloto_line{stroke-width:2}
.poloto_text{fill: black;}
.poloto_name{font-size:24px;dominant-baseline:auto;text-anchor:middle;}
.poloto_where{dominant-baseline:middle;text-anchor:start}
.poloto_text.poloto_legend{font-size:20px;dominant-baseline:middle;text-anchor:start;}
.poloto_text.poloto_ticks.poloto_y{dominant-baseline:middle;text-anchor:end}
.poloto_text.poloto_ticks.poloto_x{dominant-baseline:auto;text-anchor:middle}
.poloto_imgs.poloto_ticks{stroke: black;stroke-width:3;fill:none;stroke-dasharray:none}
.poloto_grid{stroke:gray;stroke-width:0.5}

.poloto0.poloto_stroke{stroke:blue;}
.poloto1.poloto_stroke{stroke:red;}
.poloto2.poloto_stroke{stroke:green;}
.poloto3.poloto_stroke{stroke:gold;}
.poloto4.poloto_stroke{stroke:aqua;}
.poloto5.poloto_stroke{stroke:lime;}
.poloto6.poloto_stroke{stroke:orange;}
.poloto7.poloto_stroke{stroke:chocolate;}
.poloto0.poloto_fill{fill:blue;}
.poloto1.poloto_fill{fill:red;}
.poloto2.poloto_fill{fill:green;}
.poloto3.poloto_fill{fill:gold;}
.poloto4.poloto_fill{fill:aqua;}
.poloto5.poloto_fill{fill:lime;}
.poloto6.poloto_fill{fill:orange;}
.poloto7.poloto_fill{fill:chocolate;}
	</style>
	<circle r="1e5" class="poloto_background" fill="white"/>
	<g id="poloto_plot0" class="poloto_plot poloto_imgs poloto_line poloto0 poloto_stroke" fill="none" stroke="black">
		<path d=" M 150.00 367.06 L 150.03 367.04 L 150.05 367.02 L 150.06 367.02 L 150.09 367.02 L 150.12 363.44 L 150.25 363.01 L 150.56 362.99 L 151.00 362.70 L 151.23 360.88 L 151.69 360.77 L 151.77 360.68 L 151.83 360.63 L 152.36 359.75 L 153.36 359.03 L 153.68 356.22 L 153.76 356.23 L 154.37 356.11 L 155.06 356.10 L 155.07 356.10 L 155.07 356.10 L 164.47 356.10 L 164.53 356.10 L 164.65 356.07 L 164.71 356.04 L 165.06 355.88 L 165.22 355.83 L 165.62 355.58 L 165.68 355.46 L 165.79 355.21 L 165.91 355.17 L 165.95 355.17 L 166.05 355.10 L 166.15 355.10 L 166.25 355.10 L 166.51 354.69 L 166.74 354.43 L 166.79 354.43 L 166.90 354.28 L 167.64 354.92 L 167.66 354.92 L 167.75 354.81 L 168.18 354.34 L 168.52 353.76 L 168.91 353.51 L 168.99 353.46 L 169.00 353.47 L 169.07 353.24 L 169.22 353.24 L 169.41 353.16 L 169.77 352.95 L 169.80 352.61 L 169.86 352.61 L 169.95 352.44 L 170.16 352.44 L 170.19 352.44 L 170.41 351.96 L 170.49 351.93 L 170.57 351.89 L 170.66 351.70 L 171.80 351.44 L 172.08 351.39 L 172.72 351.05 L 172.85 351.05 L 172.95 351.04 L 173.01 350.79 L 173.44 349.37 L 173.64 349.34 L 173.87 348.87 L 173.98 348.83 L 174.24 348.43 L 174.36 348.29 L 174.51 348.04 L 174.66 347.81 L 175.16 344.54 L 175.18 344.46 L 175.20 344.27 L 175.38 342.70 L 184.09 342.58 L 184.99 340.79 L 185.02 340.75 L 186.09 340.47 L 186.18 340.46 L 186.28 340.11 L 186.54 339.93 L 186.66 339.62 L 186.70 339.35 L 186.84 338.89 L 187.15 338.88 L 187.16 338.56 L 187.28 338.21 L 187.40 338.20 L 187.53 337.81 L 187.70 337.53 L 187.77 337.39 L 187.79 337.38 L 187.94 337.07 L 187.96 337.07 L 188.13 336.76 L 188.16 336.75 L 188.41 335.28 L 188.45 335.28 L 188.54 335.03 L 188.64 335.02 L 188.79 335.02 L 188.85 334.98 L 189.34 334.71 L 189.35 334.71 L 189.44 334.06 L 189.66 334.04 L 189.85 333.06 L 189.91 332.97 L 190.01 332.97 L 190.05 332.93 L 190.16 332.17 L 190.71 325.75 L 190.77 325.44 L 190.96 325.41 L 191.01 325.34 L 191.06 325.31 L 191.14 325.15 L 191.23 324.42 L 191.42 324.27 L 191.56 324.25 L 191.67 323.93 L 191.73 323.92 L 192.22 323.68 L 192.49 323.50 L 192.57 323.22 L 192.80 323.20 L 192.82 323.20 L 192.84 323.18 L 192.99 321.63 L 193.10 321.54 L 193.51 319.99 L 193.57 319.53 L 193.65 319.52 L 193.76 319.36 L 193.77 319.24 L 193.82 319.16 L 193.85 319.12 L 193.91 319.11 L 193.96 319.03 L 194.13 317.76 L 194.24 317.58 L 194.36 317.20 L 194.51 317.18 L 194.69 317.06 L 194.87 316.16 L 194.99 314.91 L 195.24 314.84 L 195.25 314.37 L 195.40 314.22 L 207.56 314.22 L 207.80 314.21 L 208.37 313.55 L 208.49 313.53 L 208.58 313.53 L 208.60 313.37 L 208.81 313.16 L 208.95 313.13 L 209.04 313.01 L 209.12 312.92 L 209.17 312.87 L 209.39 312.81 L 209.83 312.74 L 209.94 312.40 L 210.02 312.31 L 210.13 312.30 L 210.69 312.13 L 210.77 312.03 L 210.81 312.03 L 210.85 311.90 L 210.97 311.84 L 211.06 311.72 L 211.47 310.88 L 212.06 310.75 L 212.27 310.70 L 212.92 310.49 L 213.23 306.45 L 213.34 306.37 L 213.48 305.97 L 213.67 305.44 L 213.96 305.30 L 214.37 305.28 L 214.93 305.27 L 215.01 305.09 L 215.41 304.90 L 215.67 304.61 L 215.75 304.49 L 215.91 304.45 L 216.03 304.09 L 217.47 303.69 L 218.84 303.69 L 231.09 303.66 L 231.17 303.48 L 231.24 303.37 L 231.62 303.20 L 232.77 301.80 L 232.81 301.71 L 232.97 301.36 L 233.54 301.27 L 233.80 300.32 L 234.21 300.32 L 234.30 300.30 L 234.39 299.66 L 235.10 295.99 L 235.19 295.98 L 235.34 295.95 L 235.49 295.91 L 235.57 295.51 L 235.96 294.12 L 236.11 293.87 L 236.17 293.85 L 236.26 293.21 L 236.44 292.31 L 236.51 291.35 L 236.69 290.93 L 237.22 286.16 L 237.27 285.68 L 237.32 285.68 L 237.40 285.59 L 237.53 285.47 L 237.59 285.43 L 237.64 285.37 L 237.89 284.23 L 237.95 283.43 L 238.26 283.26 L 238.45 282.06 L 238.56 281.31 L 239.51 270.19 L 239.62 270.16 L 275.61 269.63 L 275.65 269.63 L 289.40 269.48 L 290.15 269.17 L 290.31 269.17 L 290.51 269.09 L 290.58 268.95 L 290.66 268.91 L 296.62 268.83 L 297.41 266.72 L 297.70 266.53 L 297.86 265.75 L 301.57 265.59 L 301.60 265.38 L 301.83 265.36 L 302.94 264.02 L 303.00 263.78 L 303.14 263.70 L 303.53 263.60 L 303.58 263.57 L 303.74 263.17 L 303.91 263.06 L 303.93 262.76 L 315.49 262.36 L 315.58 261.22 L 316.04 260.96 L 316.05 259.06 L 316.13 258.77 L 316.22 258.31 L 316.35 256.99 L 316.55 256.29 L 316.71 255.48 L 316.86 255.47 L 316.92 254.85 L 317.16 254.79 L 317.95 251.72 L 318.28 251.39 L 318.33 251.20 L 318.40 251.20 L 318.44 250.98 L 318.55 250.23 L 318.88 249.87 L 318.93 249.82 L 319.13 247.12 L 319.20 247.11 L 319.23 246.82 L 319.31 246.60 L 319.36 246.59 L 319.40 246.19 L 319.65 244.73 L 319.76 244.31 L 319.90 244.26 L 320.00 240.35 L 320.04 240.03 L 320.30 237.80 L 320.37 237.63 L 320.41 237.62 L 320.48 237.62 L 320.52 237.30 L 320.55 237.31 L 320.57 237.31 L 320.70 233.36 L 320.74 233.02 L 320.87 233.00 L 320.96 232.93 L 321.22 232.82 L 321.54 232.67 L 321.55 232.67 L 321.63 232.62 L 321.93 232.54 L 322.07 232.54 L 322.21 232.54 L 322.36 230.83 L 322.46 230.41 L 322.87 230.41 L 322.91 230.14 L 322.96 230.13 L 322.99 229.84 L 323.26 227.35 L 323.30 227.29 L 323.50 227.27 L 341.28 227.20 L 342.30 227.07 L 342.33 227.07 L 342.53 227.07 L 342.55 227.07 L 342.68 226.58 L 342.78 226.56 L 342.86 226.32 L 342.98 226.26 L 343.02 226.22 L 343.07 226.20 L 343.26 225.92 L 343.64 225.68 L 343.89 224.88 L 344.16 224.11 L 344.17 224.07 L 344.21 223.36 L 344.25 223.34 L 344.78 222.92 L 344.79 222.87 L 344.87 222.30 L 345.10 222.24 L 345.24 222.19 L 345.28 221.18 L 345.29 221.13 L 345.35 222.09 L 345.39 221.50 L 345.41 221.47 L 345.54 220.13 L 345.55 220.09 L 345.83 219.98 L 346.59 219.96 L 346.77 219.91 L 346.83 219.90 L 346.86 219.72 L 346.91 219.72 L 347.01 219.06 L 359.17 217.77 L 359.19 217.59 L 359.29 217.47 L 359.32 217.22 L 359.39 205.97 L 359.53 201.36 L 359.54 201.33 L 359.77 201.24 L 359.82 201.24 L 359.86 200.72 L 360.05 200.66 L 360.58 199.57 L 360.59 199.55 L 360.72 199.21 L 360.78 199.22 L 360.80 198.68 L 361.24 198.04 L 361.26 198.02 L 361.92 197.77 L 362.00 197.19 L 362.24 197.20 L 362.51 195.75 L 362.58 195.18 L 362.63 194.72 L 362.75 194.16 L 363.10 193.96 L 363.16 193.82 L 363.31 193.69 L 363.48 193.69 L 363.99 193.69 L 364.05 193.69 L 364.16 193.67 L 364.17 193.66 L 364.34 193.68 L 364.72 193.65 L 365.12 193.44 L 365.18 193.44 L 365.27 193.35 L 365.38 193.20 L 365.69 193.20 L 366.20 193.00 L 366.37 192.55 L 366.65 188.67 L 367.77 191.95 L 368.01 191.93 L 368.19 191.92 L 368.47 191.91 L 368.56 191.85 L 368.84 191.67 L 369.28 191.40 L 369.34 191.22 L 369.42 191.15 L 369.47 191.16 L 369.51 191.11 L 369.86 190.87 L 377.92 190.86 L 377.99 190.87 L 378.49 190.85 L 378.54 190.83 L 378.65 190.34 L 378.75 190.06 L 378.76 190.06 L 379.04 190.02 L 379.10 189.99 L 380.76 189.26 L 380.95 189.20 L 381.09 189.19 L 381.12 189.18 L 381.63 189.01 L 381.81 189.10 L 381.84 189.09 L 382.11 189.04 L 382.41 187.51 L 382.45 187.50 L 382.70 187.32 L 382.81 187.32 L 382.90 187.32 L 383.11 187.15 L 383.56 186.53 L 383.64 186.51 L 383.72 186.34 L 383.91 185.61 L 384.35 184.85 L 384.75 181.28 L 384.83 180.84 L 385.23 180.67 L 385.30 180.58 L 385.36 180.41 L 385.40 179.83 L 385.55 178.81 L 385.58 178.85 L 385.64 178.83 L 385.87 178.82 L 386.22 178.45 L 386.44 178.37 L 386.69 178.36 L 386.80 178.35 L 387.05 178.33 L 387.46 178.33 L 387.86 178.32 L 388.17 178.32 L 388.24 178.31 L 388.32 178.30 L 388.32 178.17 L 388.56 178.10 L 388.63 178.09 L 388.73 177.93 L 389.39 177.91 L 389.40 177.60 L 389.58 177.59 L 390.35 177.59 L 390.86 177.40 L 391.24 177.18 L 391.25 177.05 L 391.28 177.05 L 402.56 176.84 L 402.60 176.83 L 402.73 176.82 L 402.79 176.64 L 402.83 176.62 L 402.84 176.61 L 403.32 176.56 L 403.43 175.92 L 403.57 175.77 L 403.81 174.50 L 403.97 174.49 L 404.16 173.94 L 404.27 174.01 L 404.32 174.01 L 404.38 173.39 L 404.52 172.97 L 404.54 172.52 L 404.59 172.46 L 404.71 172.42 L 404.79 172.21 L 404.89 174.64 L 405.03 174.59 L 405.30 173.62 L 405.42 173.38 L 405.53 173.18 L 406.22 171.79 L 406.82 171.11 L 407.53 169.83 L 407.71 169.77 L 407.92 169.77 L 408.14 169.71 L 412.29 169.34 L 412.63 169.31 L 451.95 168.33 L 575.75 168.10 L 576.16 167.71 L 576.45 167.65 L 576.73 167.65 L 577.16 166.90 L 577.31 166.53 L 577.42 165.85 L 577.62 163.89 L 577.90 164.30 L 578.13 163.87 L 578.19 163.86 L 578.38 163.73 L 578.42 163.74 L 578.62 163.02 L 578.81 161.87 L 579.37 160.65 L 579.39 160.55 L 579.55 159.10 L 580.08 155.49 L 580.09 155.37 L 580.20 155.29 L 580.33 154.01 L 580.90 152.27 L 580.92 152.11 L 581.04 152.03 L 581.17 151.18 L 581.39 150.50 L 581.40 150.38 L 581.50 149.06 L 581.51 149.03 L 581.56 148.66 L 581.81 146.31 L 581.84 146.18 L 581.92 146.04 L 582.19 145.73 L 582.24 145.72 L 582.44 145.27 L 582.79 145.32 L 582.84 145.26 L 582.89 145.23 L 582.95 145.20 L 583.12 143.82 L 583.30 142.70 L 583.33 142.60 L 583.43 141.20 L 583.54 139.83 L 583.56 139.66 L 583.67 138.05 L 583.72 136.79 L 583.93 135.94 L 583.96 135.88 L 584.07 135.61 L 584.22 135.59 L 585.11 135.55 L 585.55 135.51 L 595.22 135.57 L 595.32 135.32 L 595.41 135.11 L 595.58 134.17 L 595.94 133.92 L 595.97 133.83 L 596.04 132.58 L 596.27 131.37 L 596.30 131.27 L 598.41 131.19 L 598.53 130.50 L 599.60 130.30 L 599.72 130.25 L 599.84 128.84 L 601.12 127.52 L 601.67 127.02 L 601.81 125.99 L 602.27 124.22 L 602.55 123.71 L 603.03 122.67 L 603.88 122.14 L 616.82 122.13 L 617.60 122.01 L 617.63 122.04 L 618.71 121.83 L 618.77 121.73 L 619.15 121.65 L 619.59 120.50 L 619.59 120.50 L 619.64 120.45 L 620.22 119.13 L 621.55 118.38 L 621.63 118.31 L 621.77 118.30 L 621.97 117.96 L 622.03 117.86 L 622.10 117.80 L 622.72 117.75 L 623.22 117.75 L 623.49 117.75 L 623.52 117.70 L 624.08 116.55 L 624.50 116.33 L 624.52 116.24 L 624.57 116.15 L 624.63 115.84 L 638.68 115.40 L 638.71 115.37 L 638.75 115.36 L 639.02 115.23 L 639.23 115.09 L 640.47 113.32 L 640.78 113.11 L 641.67 112.57 L 642.44 112.45 L 643.00 112.28 L 643.16 110.64 L 643.88 108.73 L 644.14 108.59 L 644.23 107.36 L 646.31 105.09 L 646.33 105.09 L 646.44 104.54 L 646.84 104.48 L 646.84 104.48 L 646.86 104.34 L 646.94 104.16 L 647.12 103.98 L 647.34 103.03 L 649.50 100.73 L 649.77 100.46 L 649.97 100.05 L 650.00 100.00"/>
	</g>
	<g id="poloto_plot1" class="poloto_plot poloto_imgs poloto_line poloto1 poloto_stroke" fill="none" stroke="black">
		<path d=" M 150.00 380.43 L 150.03 380.41 L 150.05 380.40 L 150.06 380.40 L 150.09 380.40 L 150.12 379.78 L 150.25 379.76 L 150.56 379.75 L 151.00 379.51 L 151.23 379.41 L 151.69 379.43 L 151.77 379.39 L 151.83 379.39 L 152.36 379.34 L 153.36 379.23 L 153.68 376.81 L 153.76 376.81 L 154.37 376.75 L 155.06 376.74 L 155.07 376.74 L 155.07 376.74 L 164.47 376.74 L 164.53 376.74 L 164.65 376.74 L 164.71 376.70 L 165.06 376.69 L 165.22 376.69 L 165.62 376.69 L 165.68 376.69 L 165.79 376.67 L 165.91 376.67 L 165.95 376.67 L 166.05 376.64 L 166.15 376.64 L 166.25 376.64 L 166.51 376.51 L 166.74 376.51 L 166.79 376.51 L 166.90 376.51 L 167.64 377.42 L 167.66 377.42 L 167.75 377.41 L 168.18 377.27 L 168.52 377.12 L 168.91 377.05 L 168.99 377.00 L 169.00 377.00 L 169.07 377.00 L 169.22 377.00 L 169.41 376.95 L 169.77 376.89 L 169.80 376.89 L 169.86 376.89 L 169.95 376.87 L 170.16 376.87 L 170.19 376.87 L 170.41 376.86 L 170.49 376.86 L 170.57 376.86 L 170.66 376.86 L 171.80 376.75 L 172.08 376.74 L 172.72 376.70 L 172.85 376.70 L 172.95 376.70 L 173.01 376.70 L 173.44 376.62 L 173.64 376.62 L 173.87 376.54 L 173.98 376.53 L 174.24 376.33 L 174.36 376.26 L 174.51 376.26 L 174.66 376.26 L 175.16 373.43 L 175.18 373.38 L 175.20 373.38 L 175.38 373.10 L 184.09 373.10 L 184.99 371.89 L 185.02 371.89 L 186.09 371.89 L 186.18 371.88 L 186.28 371.76 L 186.54 371.74 L 186.66 371.74 L 186.70 371.74 L 186.84 371.74 L 187.15 371.74 L 187.16 371.47 L 187.28 371.46 L 187.40 371.46 L 187.53 371.43 L 187.70 371.43 L 187.77 371.43 L 187.79 371.43 L 187.94 371.43 L 187.96 371.43 L 188.13 371.43 L 188.16 371.43 L 188.41 370.23 L 188.45 370.23 L 188.54 370.08 L 188.64 370.08 L 188.79 370.08 L 188.85 370.07 L 189.34 370.07 L 189.35 370.07 L 189.44 369.99 L 189.66 369.99 L 189.85 369.30 L 189.91 369.22 L 190.01 369.22 L 190.05 369.22 L 190.16 369.20 L 190.71 364.15 L 190.77 364.19 L 190.96 364.19 L 191.01 364.19 L 191.06 364.18 L 191.14 364.18 L 191.23 364.11 L 191.42 364.11 L 191.56 364.11 L 191.67 364.10 L 191.73 364.10 L 192.22 364.09 L 192.49 364.09 L 192.57 363.96 L 192.80 363.96 L 192.82 363.96 L 192.84 363.96 L 192.99 363.63 L 193.10 363.54 L 193.51 362.34 L 193.57 362.34 L 193.65 362.34 L 193.76 362.35 L 193.77 362.35 L 193.82 362.35 L 193.85 362.35 L 193.91 362.35 L 193.96 362.35 L 194.13 362.33 L 194.24 362.33 L 194.36 362.31 L 194.51 362.31 L 194.69 362.31 L 194.87 361.86 L 194.99 361.71 L 195.24 361.71 L 195.25 361.70 L 195.40 361.70 L 207.56 361.70 L 207.80 361.70 L 208.37 361.62 L 208.49 361.61 L 208.58 361.61 L 208.60 361.61 L 208.81 361.61 L 208.95 361.61 L 209.04 361.61 L 209.12 361.61 L 209.17 361.60 L 209.39 361.60 L 209.83 361.63 L 209.94 361.63 L 210.02 361.63 L 210.13 361.63 L 210.69 361.53 L 210.77 361.48 L 210.81 361.48 L 210.85 361.42 L 210.97 361.41 L 211.06 361.41 L 211.47 360.96 L 212.06 360.96 L 212.27 360.96 L 212.92 360.96 L 213.23 357.86 L 213.34 357.86 L 213.48 357.86 L 213.67 357.85 L 213.96 357.85 L 214.37 357.85 L 214.93 357.85 L 215.01 357.85 L 215.41 357.78 L 215.67 357.65 L 215.75 357.65 L 215.91 357.65 L 216.03 357.63 L 217.47 357.44 L 218.84 357.44 L 231.09 357.43 L 231.17 357.43 L 231.24 357.43 L 231.62 357.43 L 232.77 356.46 L 232.81 356.43 L 232.97 356.33 L 233.54 356.32 L 233.80 356.09 L 234.21 356.09 L 234.30 356.09 L 234.39 356.09 L 235.10 353.37 L 235.19 353.37 L 235.34 353.37 L 235.49 353.37 L 235.57 353.20 L 235.96 352.87 L 236.11 352.87 L 236.17 352.87 L 236.26 352.37 L 236.44 351.87 L 236.51 351.87 L 236.69 351.86 L 237.22 347.82 L 237.27 347.82 L 237.32 347.82 L 237.40 347.82 L 237.53 347.82 L 237.59 347.82 L 237.64 347.82 L 237.89 347.82 L 237.95 347.73 L 238.26 347.71 L 238.45 347.66 L 238.56 347.17 L 239.51 339.12 L 239.62 339.12 L 275.61 339.12 L 275.65 339.12 L 289.40 339.12 L 290.15 338.99 L 290.31 338.99 L 290.51 338.99 L 290.58 338.99 L 290.66 338.99 L 296.62 338.93 L 297.41 338.86 L 297.70 338.86 L 297.86 338.83 L 301.57 338.76 L 301.60 338.65 L 301.83 338.65 L 302.94 337.56 L 303.00 337.56 L 303.14 337.56 L 303.53 337.56 L 303.58 337.56 L 303.74 337.56 L 303.91 337.56 L 303.93 337.56 L 315.49 337.54 L 315.58 337.35 L 316.04 337.35 L 316.05 336.04 L 316.13 336.04 L 316.22 336.04 L 316.35 335.91 L 316.55 335.91 L 316.71 335.86 L 316.86 335.86 L 316.92 335.86 L 317.16 335.84 L 317.95 333.61 L 318.28 333.60 L 318.33 333.59 L 318.40 333.59 L 318.44 333.59 L 318.55 333.56 L 318.88 333.28 L 318.93 333.24 L 319.13 331.23 L 319.20 331.23 L 319.23 331.23 L 319.31 331.20 L 319.36 331.20 L 319.40 331.19 L 319.65 330.10 L 319.76 330.09 L 319.90 330.06 L 320.00 326.67 L 320.04 326.66 L 320.30 324.75 L 320.37 324.75 L 320.41 324.75 L 320.48 324.75 L 320.52 324.75 L 320.55 324.75 L 320.57 324.75 L 320.70 321.21 L 320.74 321.21 L 320.87 321.19 L 320.96 321.19 L 321.22 321.12 L 321.54 321.03 L 321.55 321.03 L 321.63 321.01 L 321.93 320.95 L 322.07 320.95 L 322.21 320.95 L 322.36 319.42 L 322.46 319.42 L 322.87 319.42 L 322.91 319.41 L 322.96 319.41 L 322.99 319.41 L 323.26 317.24 L 323.30 317.24 L 323.50 317.22 L 341.28 317.22 L 342.30 317.21 L 342.33 317.21 L 342.53 317.21 L 342.55 317.21 L 342.68 317.21 L 342.78 317.21 L 342.86 317.10 L 342.98 317.10 L 343.02 317.10 L 343.07 317.10 L 343.26 316.90 L 343.64 316.78 L 343.89 316.65 L 344.16 316.03 L 344.17 316.03 L 344.21 315.88 L 344.25 315.86 L 344.78 315.48 L 344.79 315.48 L 344.87 315.43 L 345.10 315.43 L 345.24 315.39 L 345.28 314.49 L 345.29 314.49 L 345.35 315.38 L 345.39 315.33 L 345.41 315.32 L 345.54 314.11 L 345.55 314.11 L 345.83 314.06 L 346.59 314.06 L 346.77 314.06 L 346.83 314.06 L 346.86 314.06 L 346.91 314.06 L 347.01 313.98 L 359.17 312.97 L 359.19 312.97 L 359.29 312.96 L 359.32 312.75 L 359.39 302.00 L 359.53 298.00 L 359.54 298.00 L 359.77 297.93 L 359.82 297.93 L 359.86 297.91 L 360.05 297.91 L 360.58 296.94 L 360.59 296.94 L 360.72 296.88 L 360.78 296.88 L 360.80 296.80 L 361.24 296.22 L 361.26 296.22 L 361.92 296.10 L 362.00 296.06 L 362.24 296.07 L 362.51 294.75 L 362.58 294.61 L 362.63 294.49 L 362.75 294.00 L 363.10 293.87 L 363.16 293.77 L 363.31 293.77 L 363.48 293.77 L 363.99 293.77 L 364.05 293.77 L 364.16 293.77 L 364.17 293.77 L 364.34 293.78 L 364.72 293.78 L 365.12 293.64 L 365.18 293.64 L 365.27 293.63 L 365.38 293.63 L 365.69 293.63 L 366.20 293.63 L 366.37 293.51 L 366.65 290.04 L 367.77 293.31 L 368.01 293.30 L 368.19 293.29 L 368.47 293.29 L 368.56 293.25 L 368.84 293.23 L 369.28 293.03 L 369.34 293.03 L 369.42 293.03 L 369.47 293.03 L 369.51 293.03 L 369.86 292.84 L 377.92 292.84 L 377.99 292.85 L 378.49 292.83 L 378.54 292.83 L 378.65 292.80 L 378.75 292.56 L 378.76 292.55 L 379.04 292.53 L 379.10 292.53 L 380.76 292.33 L 380.95 292.33 L 381.09 292.33 L 381.12 292.33 L 381.63 292.19 L 381.81 292.19 L 381.84 292.19 L 382.11 292.18 L 382.41 291.36 L 382.45 291.36 L 382.70 291.22 L 382.81 291.22 L 382.90 291.22 L 383.11 291.22 L 383.56 291.21 L 383.64 291.19 L 383.72 291.11 L 383.91 290.97 L 384.35 290.84 L 384.75 287.57 L 384.83 287.46 L 385.23 287.31 L 385.30 287.27 L 385.36 287.15 L 385.40 286.92 L 385.55 285.94 L 385.58 285.99 L 385.64 285.97 L 385.87 285.96 L 386.22 285.83 L 386.44 285.78 L 386.69 285.76 L 386.80 285.75 L 387.05 285.74 L 387.46 285.74 L 387.86 285.73 L 388.17 285.73 L 388.24 285.72 L 388.32 285.72 L 388.32 285.71 L 388.56 285.71 L 388.63 285.70 L 388.73 285.57 L 389.39 285.56 L 389.40 285.56 L 389.58 285.55 L 390.35 285.54 L 390.86 285.38 L 391.24 285.24 L 391.25 285.24 L 391.28 285.24 L 402.56 285.24 L 402.60 285.24 L 402.73 285.24 L 402.79 285.24 L 402.83 285.22 L 402.84 285.22 L 403.32 285.22 L 403.43 285.21 L 403.57 285.19 L 403.81 285.17 L 403.97 285.17 L 404.16 285.09 L 404.27 285.09 L 404.32 285.09 L 404.38 285.09 L 404.52 284.79 L 404.54 284.79 L 404.59 284.79 L 404.71 284.79 L 404.79 284.79 L 404.89 284.86 L 405.03 284.86 L 405.30 284.85 L 405.42 284.85 L 405.53 284.85 L 406.22 283.89 L 406.82 283.63 L 407.53 282.94 L 407.71 282.94 L 407.92 282.94 L 408.14 282.94 L 412.29 282.86 L 412.63 282.85 L 451.95 282.73 L 575.75 282.55 L 576.16 282.50 L 576.45 282.49 L 576.73 282.49 L 577.16 282.05 L 577.31 282.05 L 577.42 282.05 L 577.62 280.43 L 577.90 280.74 L 578.13 280.72 L 578.19 280.72 L 578.38 280.71 L 578.42 280.71 L 578.62 280.70 L 578.81 280.63 L 579.37 279.61 L 579.39 279.61 L 579.55 279.52 L 580.08 276.22 L 580.09 276.22 L 580.20 276.22 L 580.33 276.16 L 580.90 274.63 L 580.92 274.63 L 581.04 274.63 L 581.17 274.59 L 581.39 274.03 L 581.40 274.03 L 581.50 274.02 L 581.51 274.02 L 581.56 273.71 L 581.81 271.53 L 581.84 271.53 L 581.92 271.53 L 582.19 271.35 L 582.24 271.35 L 582.44 270.99 L 582.79 270.99 L 582.84 270.99 L 582.89 270.99 L 582.95 270.99 L 583.12 270.98 L 583.30 269.99 L 583.33 269.99 L 583.43 269.99 L 583.54 269.25 L 583.56 269.25 L 583.67 268.46 L 583.72 268.41 L 583.93 267.63 L 583.96 267.63 L 584.07 267.63 L 584.22 267.61 L 585.11 267.61 L 585.55 267.61 L 595.22 267.61 L 595.32 267.61 L 595.41 267.61 L 595.58 267.61 L 595.94 267.40 L 595.97 267.40 L 596.04 267.33 L 596.27 266.24 L 596.30 266.24 L 598.41 266.26 L 598.53 266.05 L 599.60 266.05 L 599.72 266.04 L 599.84 265.96 L 601.12 265.07 L 601.67 264.90 L 601.81 264.84 L 602.27 263.13 L 602.55 263.13 L 603.03 262.99 L 603.88 262.99 L 616.82 262.99 L 617.60 262.88 L 617.63 262.91 L 618.71 262.91 L 618.77 262.91 L 619.15 262.91 L 619.59 262.87 L 619.59 262.87 L 619.64 262.87 L 620.22 261.87 L 621.55 261.85 L 621.63 261.85 L 621.77 261.84 L 621.97 261.80 L 622.03 261.77 L 622.10 261.77 L 622.72 261.73 L 623.22 261.73 L 623.49 261.72 L 623.52 261.72 L 624.08 261.70 L 624.50 261.59 L 624.52 261.59 L 624.57 261.59 L 624.63 261.59 L 638.68 261.36 L 638.71 261.36 L 638.75 261.36 L 639.02 261.36 L 639.23 261.36 L 640.47 260.37 L 640.78 260.31 L 641.67 260.24 L 642.44 260.19 L 643.00 260.19 L 643.16 260.19 L 643.88 258.70 L 644.14 258.66 L 644.23 258.61 L 646.31 257.56 L 646.33 257.56 L 646.44 257.55 L 646.84 257.54 L 646.84 257.54 L 646.86 257.54 L 646.94 257.51 L 647.12 257.46 L 647.34 257.35 L 649.50 255.63 L 649.77 255.54 L 649.97 255.54 L 650.00 255.54"/>
	</g>
	<g id="poloto_plot2" class="poloto_plot poloto_imgs poloto_line poloto2 poloto_stroke" fill="none" stroke="black">
		<path d=" M 150.00 391.22 L 150.03 391.21 L 150.05 391.21 L 150.06 391.21 L 150.09 391.21 L 150.12 388.96 L 150.25 388.66 L 150.56 388.65 L 151.00 388.64 L 151.23 387.29 L 151.69 387.17 L 151.77 387.13 L 151.83 387.10 L 152.36 386.50 L 153.36 386.03 L 153.68 385.94 L 153.76 385.94 L 154.37 385.90 L 155.06 385.90 L 155.07 385.90 L 155.07 385.90 L 164.47 385.90 L 164.53 385.90 L 164.65 385.88 L 164.71 385.88 L 165.06 385.75 L 165.22 385.71 L 165.62 385.49 L 165.68 385.39 L 165.79 385.19 L 165.91 385.17 L 165.95 385.16 L 166.05 385.13 L 166.15 385.13 L 166.25 385.13 L 166.51 384.90 L 166.74 384.70 L 166.79 384.70 L 166.90 384.58 L 167.64 384.30 L 167.66 384.30 L 167.75 384.22 L 168.18 383.92 L 168.52 383.55 L 168.91 383.40 L 168.99 383.40 L 169.00 383.41 L 169.07 383.20 L 169.22 383.20 L 169.41 383.18 L 169.77 383.03 L 169.80 382.76 L 169.86 382.76 L 169.95 382.64 L 170.16 382.64 L 170.19 382.64 L 170.41 382.24 L 170.49 382.22 L 170.57 382.18 L 170.66 382.00 L 171.80 381.89 L 172.08 381.85 L 172.72 381.58 L 172.85 381.58 L 172.95 381.56 L 173.01 381.36 L 173.44 380.26 L 173.64 380.24 L 173.87 379.91 L 173.98 379.88 L 174.24 379.73 L 174.36 379.68 L 174.51 379.45 L 174.66 379.25 L 175.16 379.25 L 175.18 379.23 L 175.20 379.07 L 175.38 378.01 L 184.09 377.90 L 184.99 377.58 L 185.02 377.54 L 186.09 377.27 L 186.18 377.27 L 186.28 377.07 L 186.54 376.94 L 186.66 376.70 L 186.70 376.50 L 186.84 376.10 L 187.15 376.09 L 187.16 376.09 L 187.28 375.82 L 187.40 375.81 L 187.53 375.52 L 187.70 375.30 L 187.77 375.17 L 187.79 375.17 L 187.94 374.90 L 187.96 374.89 L 188.13 374.65 L 188.16 374.64 L 188.41 374.56 L 188.45 374.56 L 188.54 374.47 L 188.64 374.45 L 188.79 374.45 L 188.85 374.43 L 189.34 374.19 L 189.35 374.20 L 189.44 373.72 L 189.66 373.71 L 189.85 373.56 L 189.91 373.56 L 190.01 373.56 L 190.05 373.52 L 190.16 372.86 L 190.71 372.31 L 190.77 372.01 L 190.96 371.98 L 191.01 371.91 L 191.06 371.89 L 191.14 371.75 L 191.23 371.23 L 191.42 371.15 L 191.56 371.14 L 191.67 370.88 L 191.73 370.87 L 192.22 370.68 L 192.49 370.54 L 192.57 370.42 L 192.80 370.41 L 192.82 370.41 L 192.84 370.38 L 192.99 369.44 L 193.10 369.44 L 193.51 369.30 L 193.57 368.93 L 193.65 368.92 L 193.76 368.77 L 193.77 368.68 L 193.82 368.61 L 193.85 368.58 L 193.91 368.57 L 193.96 368.50 L 194.13 367.44 L 194.24 367.33 L 194.36 367.02 L 194.51 367.00 L 194.69 366.89 L 194.87 366.56 L 194.99 365.65 L 195.24 365.58 L 195.25 365.18 L 195.40 365.09 L 207.56 365.09 L 207.80 365.09 L 208.37 364.66 L 208.49 364.66 L 208.58 364.66 L 208.60 364.55 L 208.81 364.36 L 208.95 364.33 L 209.04 364.21 L 209.12 364.13 L 209.17 364.10 L 209.39 364.04 L 209.83 364.12 L 209.94 363.83 L 210.02 363.76 L 210.13 363.75 L 210.69 363.69 L 210.77 363.64 L 210.81 363.64 L 210.85 363.59 L 210.97 363.54 L 211.06 363.43 L 211.47 363.16 L 212.06 363.04 L 212.27 362.99 L 212.92 362.82 L 213.23 362.39 L 213.34 362.32 L 213.48 361.98 L 213.67 361.55 L 213.96 361.44 L 214.37 361.43 L 214.93 361.41 L 215.01 361.25 L 215.41 361.15 L 215.67 361.01 L 215.75 360.90 L 215.91 360.86 L 216.03 360.57 L 217.47 360.43 L 218.84 360.43 L 231.09 360.40 L 231.17 360.24 L 231.24 360.14 L 231.62 359.98 L 232.77 359.69 L 232.81 359.65 L 232.97 359.45 L 233.54 359.37 L 233.80 358.81 L 234.21 358.80 L 234.30 358.78 L 234.39 358.23 L 235.10 357.72 L 235.19 357.72 L 235.34 357.69 L 235.49 357.64 L 235.57 357.45 L 235.96 356.60 L 236.11 356.39 L 236.17 356.37 L 236.26 356.28 L 236.44 355.95 L 236.51 355.09 L 236.69 354.74 L 237.22 354.54 L 237.27 354.11 L 237.32 354.11 L 237.40 354.04 L 237.53 353.92 L 237.59 353.89 L 237.64 353.85 L 237.89 352.86 L 237.95 352.27 L 238.26 352.16 L 238.45 351.17 L 238.56 350.98 L 239.51 349.42 L 239.62 349.39 L 275.61 348.94 L 275.65 348.94 L 289.40 348.81 L 290.15 348.65 L 290.31 348.65 L 290.51 348.56 L 290.58 348.44 L 290.66 348.41 L 296.62 348.40 L 297.41 346.61 L 297.70 346.45 L 297.86 345.83 L 301.57 345.76 L 301.60 345.70 L 301.83 345.69 L 302.94 345.58 L 303.00 345.37 L 303.14 345.30 L 303.53 345.21 L 303.58 345.18 L 303.74 344.84 L 303.91 344.73 L 303.93 344.47 L 315.49 344.13 L 315.58 343.32 L 316.04 343.10 L 316.05 342.79 L 316.13 342.55 L 316.22 342.17 L 316.35 341.19 L 316.55 340.65 L 316.71 339.95 L 316.86 339.95 L 316.92 339.41 L 317.16 339.37 L 317.95 338.87 L 318.28 338.63 L 318.33 338.48 L 318.40 338.48 L 318.44 338.30 L 318.55 337.69 L 318.88 337.63 L 318.93 337.63 L 319.13 337.23 L 319.20 337.23 L 319.23 337.00 L 319.31 336.86 L 319.36 336.85 L 319.40 336.54 L 319.65 336.35 L 319.76 336.03 L 319.90 336.02 L 320.00 335.85 L 320.04 335.61 L 320.30 335.48 L 320.37 335.34 L 320.41 335.34 L 320.48 335.33 L 320.52 335.09 L 320.55 335.10 L 320.57 335.09 L 320.70 335.00 L 320.74 334.73 L 320.87 334.73 L 320.96 334.66 L 321.22 334.64 L 321.54 334.61 L 321.55 334.61 L 321.63 334.60 L 321.93 334.59 L 322.07 334.59 L 322.21 334.59 L 322.36 334.55 L 322.46 334.22 L 322.87 334.22 L 322.91 334.03 L 322.96 334.02 L 322.99 333.80 L 323.26 333.73 L 323.30 333.68 L 323.50 333.68 L 341.28 333.62 L 342.30 333.53 L 342.33 333.53 L 342.53 333.52 L 342.55 333.53 L 342.68 333.14 L 342.78 333.13 L 342.86 333.02 L 342.98 332.96 L 343.02 332.93 L 343.07 332.91 L 343.26 332.87 L 343.64 332.79 L 343.89 332.28 L 344.16 332.25 L 344.17 332.21 L 344.21 331.78 L 344.25 331.78 L 344.78 331.78 L 344.79 331.74 L 344.87 331.34 L 345.10 331.28 L 345.24 331.27 L 345.28 331.26 L 345.29 331.22 L 345.35 331.19 L 345.39 330.78 L 345.41 330.77 L 345.54 330.77 L 345.55 330.73 L 345.83 330.69 L 346.59 330.68 L 346.77 330.64 L 346.83 330.63 L 346.86 330.50 L 346.91 330.50 L 347.01 330.04 L 359.17 329.90 L 359.19 329.77 L 359.29 329.67 L 359.32 329.66 L 359.39 329.27 L 359.53 329.17 L 359.54 329.15 L 359.77 329.14 L 359.82 329.14 L 359.86 328.75 L 360.05 328.71 L 360.58 328.69 L 360.59 328.67 L 360.72 328.45 L 360.78 328.46 L 360.80 328.10 L 361.24 328.10 L 361.26 328.08 L 361.92 327.99 L 362.00 327.56 L 362.24 327.56 L 362.51 327.56 L 362.58 327.24 L 362.63 326.99 L 362.75 326.98 L 363.10 326.93 L 363.16 326.91 L 363.31 326.81 L 363.48 326.81 L 363.99 326.81 L 364.05 326.81 L 364.16 326.79 L 364.17 326.78 L 364.34 326.78 L 364.72 326.76 L 365.12 326.71 L 365.18 326.71 L 365.27 326.67 L 365.38 326.55 L 365.69 326.55 L 366.20 326.41 L 366.37 326.17 L 366.65 326.14 L 367.77 325.88 L 368.01 325.88 L 368.19 325.87 L 368.47 325.86 L 368.56 325.85 L 368.84 325.71 L 369.28 325.69 L 369.34 325.58 L 369.42 325.52 L 369.47 325.53 L 369.51 325.49 L 369.86 325.47 L 377.92 325.46 L 377.99 325.46 L 378.49 325.46 L 378.54 325.45 L 378.65 325.09 L 378.75 325.07 L 378.76 325.08 L 379.04 325.07 L 379.10 325.05 L 380.76 324.51 L 380.95 324.46 L 381.09 324.45 L 381.12 324.44 L 381.63 324.43 L 381.81 324.51 L 381.84 324.50 L 382.11 324.47 L 382.41 323.96 L 382.45 323.95 L 382.70 323.94 L 382.81 323.94 L 382.90 323.94 L 383.11 323.83 L 383.56 323.37 L 383.64 323.37 L 383.72 323.31 L 383.91 322.89 L 384.35 322.43 L 384.75 322.46 L 384.83 322.21 L 385.23 322.21 L 385.30 322.19 L 385.36 322.16 L 385.40 321.92 L 385.55 321.91 L 385.58 321.91 L 385.64 321.91 L 385.87 321.91 L 386.22 321.72 L 386.44 321.70 L 386.69 321.70 L 386.80 321.70 L 387.05 321.70 L 387.46 321.70 L 387.86 321.70 L 388.17 321.69 L 388.24 321.69 L 388.32 321.68 L 388.32 321.60 L 388.56 321.54 L 388.63 321.54 L 388.73 321.52 L 389.39 321.52 L 389.40 321.28 L 389.58 321.28 L 390.35 321.29 L 390.86 321.28 L 391.24 321.23 L 391.25 321.13 L 391.28 321.13 L 402.56 320.97 L 402.60 320.97 L 402.73 320.96 L 402.79 320.81 L 402.83 320.81 L 402.84 320.80 L 403.32 320.76 L 403.43 320.27 L 403.57 320.17 L 403.81 319.22 L 403.97 319.21 L 404.16 318.80 L 404.27 318.85 L 404.32 318.84 L 404.38 318.32 L 404.52 318.23 L 404.54 317.87 L 404.59 317.82 L 404.71 317.79 L 404.79 317.61 L 404.89 319.74 L 405.03 319.71 L 405.30 318.85 L 405.42 318.66 L 405.53 318.47 L 406.22 318.13 L 406.82 317.77 L 407.53 317.27 L 407.71 317.21 L 407.92 317.21 L 408.14 317.17 L 412.29 316.92 L 412.63 316.89 L 451.95 316.22 L 575.75 316.20 L 576.16 315.90 L 576.45 315.85 L 576.73 315.85 L 577.16 315.58 L 577.31 315.26 L 577.42 314.68 L 577.62 314.52 L 577.90 314.58 L 578.13 314.23 L 578.19 314.23 L 578.38 314.12 L 578.42 314.12 L 578.62 313.55 L 578.81 312.68 L 579.37 312.59 L 579.39 312.50 L 579.55 311.37 L 580.08 311.33 L 580.09 311.22 L 580.20 311.15 L 580.33 310.12 L 580.90 310.07 L 580.92 309.93 L 581.04 309.86 L 581.17 309.18 L 581.39 309.16 L 581.40 309.05 L 581.50 307.93 L 581.51 307.91 L 581.56 307.87 L 581.81 307.87 L 581.84 307.76 L 581.92 307.67 L 582.19 307.57 L 582.24 307.56 L 582.44 307.51 L 582.79 307.55 L 582.84 307.50 L 582.89 307.47 L 582.95 307.43 L 583.12 306.28 L 583.30 306.25 L 583.33 306.15 L 583.43 304.96 L 583.54 304.53 L 583.56 304.38 L 583.67 303.80 L 583.72 302.79 L 583.93 302.78 L 583.96 302.72 L 584.07 302.51 L 584.22 302.51 L 585.11 302.48 L 585.55 302.45 L 595.22 302.50 L 595.32 302.27 L 595.41 302.10 L 595.58 301.30 L 595.94 301.28 L 595.97 301.20 L 596.04 300.19 L 596.27 300.18 L 596.30 300.08 L 598.41 299.98 L 598.53 299.61 L 599.60 299.44 L 599.72 299.40 L 599.84 298.27 L 601.12 297.95 L 601.67 297.68 L 601.81 296.83 L 602.27 296.83 L 602.55 296.36 L 603.03 295.63 L 603.88 295.19 L 616.82 295.19 L 617.60 295.17 L 617.63 295.17 L 618.71 295.01 L 618.77 294.92 L 619.15 294.85 L 619.59 293.91 L 619.59 293.91 L 619.64 293.87 L 620.22 293.67 L 621.55 293.04 L 621.63 292.97 L 621.77 292.97 L 621.97 292.70 L 622.03 292.66 L 622.10 292.61 L 622.72 292.61 L 623.22 292.61 L 623.49 292.61 L 623.52 292.57 L 624.08 291.61 L 624.50 291.52 L 624.52 291.44 L 624.57 291.36 L 624.63 291.12 L 638.68 290.94 L 638.71 290.91 L 638.75 290.90 L 639.02 290.78 L 639.23 290.66 L 640.47 290.12 L 640.78 290.01 L 641.67 289.60 L 642.44 289.53 L 643.00 289.37 L 643.16 287.95 L 643.88 287.71 L 644.14 287.64 L 644.23 286.62 L 646.31 285.64 L 646.33 285.64 L 646.44 285.19 L 646.84 285.14 L 646.84 285.14 L 646.86 285.03 L 646.94 284.90 L 647.12 284.80 L 647.34 284.10 L 649.50 283.74 L 649.77 283.58 L 649.97 283.20 L 650.00 283.16"/>
	</g>
	<g class="poloto_legend poloto_imgs poloto_line poloto0 poloto_stroke"><line x1="680" x2="730" y1="81.25" y2="81.25"/></g>
	<g class="poloto_legend poloto_imgs poloto_line poloto1 poloto_stroke"><line x1="680" x2="730" y1="131.25" y2="131.25"/></g>
	<g class="poloto_legend poloto_imgs poloto_line poloto2 poloto_stroke"><line x1="680" x2="730" y1="181.25" y2="181.25"/></g>
	<text class="poloto_legend poloto_text poloto_line poloto0" x="675" y="100">total</text>
	<text class="poloto_legend poloto_text poloto_line poloto1" x="675" y="150">code</text>
	<text class="poloto_legend poloto_text poloto_line poloto2" x="675" y="200">docs</text>
	<text class="poloto_text poloto_name poloto_title" x="400.00" y="37.50">Workspace lines over time</text>
	<text class="poloto_text poloto_name poloto_x" x="400.00" y="640">date (JST)</text>
	<text class="poloto_text poloto_name poloto_y" x="37.50" y="250.00" transform="rotate(-90,37.50,250.00)">lines</text>
	<text class="poloto_text poloto_ticks poloto_y">
		<tspan x="135.00" y="400.00">0</tspan>
		<tspan x="135.00" y="316.51">50K</tspan>
		<tspan x="135.00" y="233.03">100K</tspan>
		<tspan x="135.00" y="149.54">150K</tspan>
	</text>
	<g class="poloto_imgs poloto_ticks poloto_y" stroke="black">
		<line x1="150.00" x2="144.00" y1="400.00" y2="400.00"/>
		<line x1="150.00" x2="144.00" y1="316.51" y2="316.51"/>
		<line x1="150.00" x2="144.00" y1="233.03" y2="233.03"/>
		<line x1="150.00" x2="144.00" y1="149.54" y2="149.54"/>
	</g>
	<g class="poloto_text poloto_ticks poloto_x">
		<text x="230.93" y="430.00" text-anchor="end" transform="rotate(-90 230.93 430.00)">2026-04-24 12:06</text>
		<text x="355.51" y="430.00" text-anchor="end" transform="rotate(-90 355.51 430.00)">2026-04-30 07:00</text>
		<text x="480.09" y="430.00" text-anchor="end" transform="rotate(-90 480.09 430.00)">2026-05-06 01:53</text>
		<text x="604.68" y="430.00" text-anchor="end" transform="rotate(-90 604.68 430.00)">2026-05-11 20:46</text>
	</g>
	<g class="poloto_imgs poloto_ticks poloto_x" stroke="black">
		<line x1="230.93" x2="230.93" y1="400.00" y2="405.00"/>
		<line x1="355.51" x2="355.51" y1="400.00" y2="405.00"/>
		<line x1="480.09" x2="480.09" y1="400.00" y2="405.00"/>
		<line x1="604.68" x2="604.68" y1="400.00" y2="405.00"/>
	</g>
	<path class="poloto_imgs poloto_ticks poloto_x" stroke="black" style="stroke-dasharray:12.458066149341317;stroke-dashoffset:-80.93332841654774;" d=" M 150.00 400.00 L 650.00 400.00"/>
	<path class="poloto_imgs poloto_ticks poloto_y" stroke="black" style="stroke-dasharray:8.348546239814773;stroke-dashoffset:-0;" d=" M 150.00 400.00 L 150.00 100.00"/>
</svg>

