<svg class="poloto" width="800" height="680" viewBox="0 0 800 680" xmlns="http://www.w3.org/2000/svg">
	<style>
.poloto{
  stroke-linecap:round;
  stroke-linejoin:round;
  font-family:Roboto,sans-serif;
  font-size:16px;
}
.poloto_background{fill:AliceBlue;}
.poloto_scatter{stroke-width:7}
.poloto_line{stroke-width:2}
.poloto_text{fill: black;}
.poloto_name{font-size:24px;dominant-baseline:auto;text-anchor:middle;}
.poloto_where{dominant-baseline:middle;text-anchor:start}
.poloto_text.poloto_legend{font-size:20px;dominant-baseline:middle;text-anchor:start;}
.poloto_text.poloto_ticks.poloto_y{dominant-baseline:middle;text-anchor:end}
.poloto_text.poloto_ticks.poloto_x{dominant-baseline:auto;text-anchor:middle}
.poloto_imgs.poloto_ticks{stroke: black;stroke-width:3;fill:none;stroke-dasharray:none}
.poloto_grid{stroke:gray;stroke-width:0.5}

.poloto0.poloto_stroke{stroke:blue;}
.poloto1.poloto_stroke{stroke:red;}
.poloto2.poloto_stroke{stroke:green;}
.poloto3.poloto_stroke{stroke:gold;}
.poloto4.poloto_stroke{stroke:aqua;}
.poloto5.poloto_stroke{stroke:lime;}
.poloto6.poloto_stroke{stroke:orange;}
.poloto7.poloto_stroke{stroke:chocolate;}
.poloto0.poloto_fill{fill:blue;}
.poloto1.poloto_fill{fill:red;}
.poloto2.poloto_fill{fill:green;}
.poloto3.poloto_fill{fill:gold;}
.poloto4.poloto_fill{fill:aqua;}
.poloto5.poloto_fill{fill:lime;}
.poloto6.poloto_fill{fill:orange;}
.poloto7.poloto_fill{fill:chocolate;}
	</style>
	<circle r="1e5" class="poloto_background" fill="white"/>
	<g id="poloto_plot0" class="poloto_plot poloto_imgs poloto_line poloto0 poloto_stroke" fill="none" stroke="black">
		<path d=" M 150.00 369.02 L 150.03 368.99 L 150.05 368.97 L 150.06 368.97 L 150.08 368.97 L 150.11 365.61 L 150.24 365.21 L 150.52 365.19 L 150.94 364.91 L 151.16 363.20 L 151.59 363.10 L 151.66 363.01 L 151.72 362.97 L 152.22 362.13 L 153.16 361.46 L 153.45 358.82 L 153.53 358.82 L 154.10 358.71 L 154.75 358.70 L 154.76 358.70 L 154.76 358.70 L 163.58 358.70 L 163.64 358.70 L 163.76 358.68 L 163.80 358.65 L 164.14 358.49 L 164.29 358.45 L 164.66 358.21 L 164.72 358.10 L 164.83 357.86 L 164.94 357.83 L 164.97 357.82 L 165.06 357.76 L 165.16 357.76 L 165.25 357.76 L 165.50 357.37 L 165.72 357.13 L 165.76 357.13 L 165.86 356.99 L 166.56 357.59 L 166.58 357.59 L 166.67 357.49 L 167.07 357.04 L 167.39 356.50 L 167.75 356.26 L 167.82 356.22 L 167.83 356.22 L 167.90 356.01 L 168.04 356.01 L 168.22 355.94 L 168.56 355.74 L 168.58 355.42 L 168.65 355.42 L 168.73 355.26 L 168.93 355.26 L 168.95 355.26 L 169.16 354.81 L 169.24 354.78 L 169.31 354.75 L 169.39 354.56 L 170.47 354.32 L 170.73 354.27 L 171.32 353.95 L 171.45 353.95 L 171.54 353.94 L 171.60 353.71 L 172.01 352.37 L 172.19 352.35 L 172.40 351.90 L 172.51 351.86 L 172.76 351.49 L 172.86 351.36 L 173.01 351.12 L 173.15 350.91 L 173.62 347.83 L 173.64 347.76 L 173.66 347.57 L 173.82 346.09 L 182.00 345.99 L 182.85 344.30 L 182.88 344.26 L 183.88 344.00 L 183.96 343.99 L 184.06 343.66 L 184.30 343.49 L 184.41 343.20 L 184.45 342.95 L 184.58 342.51 L 184.87 342.50 L 184.88 342.20 L 184.99 341.87 L 185.11 341.87 L 185.23 341.50 L 185.39 341.23 L 185.45 341.10 L 185.48 341.09 L 185.62 340.80 L 185.64 340.80 L 185.79 340.51 L 185.82 340.50 L 186.05 339.11 L 186.09 339.11 L 186.17 338.88 L 186.27 338.87 L 186.41 338.87 L 186.47 338.84 L 186.93 338.58 L 186.94 338.58 L 187.02 337.97 L 187.23 337.95 L 187.41 337.03 L 187.47 336.95 L 187.56 336.94 L 187.60 336.90 L 187.70 336.19 L 188.22 330.15 L 188.27 329.86 L 188.45 329.83 L 188.50 329.76 L 188.54 329.74 L 188.62 329.58 L 188.70 328.90 L 188.89 328.76 L 189.01 328.74 L 189.12 328.44 L 189.17 328.43 L 189.64 328.21 L 189.89 328.04 L 189.96 327.77 L 190.18 327.75 L 190.20 327.75 L 190.22 327.73 L 190.35 326.28 L 190.46 326.19 L 190.84 324.73 L 190.90 324.30 L 190.98 324.29 L 191.08 324.14 L 191.09 324.02 L 191.13 323.95 L 191.17 323.92 L 191.22 323.91 L 191.27 323.83 L 191.42 322.64 L 191.53 322.46 L 191.64 322.11 L 191.79 322.09 L 191.95 321.97 L 192.12 321.13 L 192.23 319.95 L 192.47 319.89 L 192.47 319.45 L 192.61 319.30 L 204.04 319.31 L 204.26 319.29 L 204.79 318.67 L 204.91 318.66 L 204.99 318.66 L 205.01 318.50 L 205.21 318.31 L 205.34 318.28 L 205.42 318.16 L 205.50 318.08 L 205.55 318.04 L 205.75 317.98 L 206.16 317.91 L 206.27 317.59 L 206.35 317.51 L 206.44 317.50 L 206.97 317.34 L 207.05 317.24 L 207.08 317.24 L 207.12 317.12 L 207.23 317.07 L 207.32 316.95 L 207.71 316.16 L 208.26 316.04 L 208.46 315.99 L 209.07 315.79 L 209.36 312.00 L 209.46 311.92 L 209.59 311.55 L 209.76 311.05 L 210.04 310.91 L 210.43 310.90 L 210.95 310.88 L 211.03 310.72 L 211.40 310.54 L 211.65 310.27 L 211.72 310.15 L 211.87 310.11 L 211.99 309.77 L 213.34 309.40 L 214.62 309.40 L 226.12 309.37 L 226.20 309.20 L 226.26 309.10 L 226.62 308.93 L 227.69 307.62 L 227.74 307.54 L 227.89 307.20 L 228.42 307.12 L 228.67 306.23 L 229.05 306.22 L 229.14 306.21 L 229.22 305.60 L 229.89 302.15 L 229.97 302.15 L 230.11 302.12 L 230.26 302.08 L 230.32 301.70 L 230.70 300.40 L 230.83 300.16 L 230.89 300.14 L 230.98 299.54 L 231.14 298.69 L 231.21 297.79 L 231.38 297.39 L 231.88 292.91 L 231.92 292.45 L 231.97 292.45 L 232.05 292.37 L 232.17 292.26 L 232.22 292.22 L 232.27 292.17 L 232.51 291.09 L 232.56 290.34 L 232.85 290.18 L 233.03 289.05 L 233.14 288.34 L 234.03 277.88 L 234.13 277.86 L 267.92 277.36 L 267.95 277.36 L 280.86 277.21 L 281.57 276.93 L 281.71 276.93 L 281.90 276.85 L 281.96 276.72 L 282.04 276.68 L 287.64 276.61 L 288.38 274.62 L 288.65 274.44 L 288.80 273.70 L 292.28 273.56 L 292.31 273.36 L 292.53 273.34 L 293.57 272.08 L 293.63 271.86 L 293.76 271.78 L 294.12 271.69 L 294.17 271.66 L 294.32 271.28 L 294.48 271.18 L 294.50 270.90 L 305.35 270.52 L 305.43 269.44 L 305.87 269.21 L 305.87 267.41 L 305.95 267.15 L 306.04 266.71 L 306.16 265.47 L 306.34 264.81 L 306.50 264.05 L 306.64 264.04 L 306.69 263.45 L 306.91 263.40 L 307.66 260.51 L 307.97 260.20 L 308.02 260.02 L 308.08 260.02 L 308.12 259.81 L 308.22 259.10 L 308.53 258.77 L 308.58 258.72 L 308.76 256.18 L 308.83 256.17 L 308.86 255.90 L 308.93 255.69 L 308.98 255.69 L 309.02 255.31 L 309.26 253.93 L 309.36 253.54 L 309.49 253.49 L 309.59 249.81 L 309.62 249.51 L 309.86 247.42 L 309.93 247.25 L 309.97 247.25 L 310.03 247.24 L 310.07 246.95 L 310.10 246.96 L 310.12 246.95 L 310.24 243.24 L 310.28 242.92 L 310.40 242.90 L 310.48 242.83 L 310.73 242.73 L 311.03 242.59 L 311.04 242.59 L 311.12 242.54 L 311.40 242.47 L 311.53 242.47 L 311.66 242.47 L 311.80 240.85 L 311.89 240.46 L 312.28 240.46 L 312.31 240.20 L 312.36 240.20 L 312.39 239.92 L 312.64 237.58 L 312.68 237.53 L 312.87 237.51 L 329.56 237.44 L 330.52 237.32 L 330.54 237.32 L 330.73 237.32 L 330.75 237.32 L 330.87 236.86 L 330.96 236.84 L 331.04 236.61 L 331.16 236.55 L 331.19 236.52 L 331.24 236.50 L 331.41 236.24 L 331.78 236.01 L 332.01 235.26 L 332.26 234.54 L 332.27 234.50 L 332.31 233.83 L 332.35 233.81 L 332.84 233.41 L 332.85 233.37 L 332.93 232.84 L 333.15 232.78 L 333.28 232.73 L 333.31 231.78 L 333.32 231.73 L 333.38 232.63 L 333.42 232.08 L 333.44 232.06 L 333.56 230.79 L 333.57 230.75 L 333.83 230.65 L 334.54 230.63 L 334.71 230.59 L 334.77 230.58 L 334.80 230.41 L 334.84 230.41 L 334.94 229.78 L 346.36 228.57 L 346.37 228.41 L 346.47 228.29 L 346.50 228.06 L 346.56 217.47 L 346.69 213.14 L 346.70 213.11 L 346.91 213.03 L 346.96 213.03 L 347.00 212.53 L 347.18 212.48 L 347.68 211.45 L 347.69 211.43 L 347.81 211.12 L 347.86 211.13 L 347.89 210.61 L 348.30 210.01 L 348.31 209.99 L 348.94 209.76 L 349.01 209.21 L 349.23 209.22 L 349.49 207.86 L 349.56 207.32 L 349.60 206.89 L 349.72 206.36 L 350.04 206.17 L 350.10 206.04 L 350.24 205.92 L 350.39 205.92 L 350.88 205.92 L 350.93 205.92 L 351.04 205.90 L 351.05 205.89 L 351.21 205.91 L 351.57 205.88 L 351.94 205.68 L 352.00 205.68 L 352.08 205.60 L 352.19 205.46 L 352.47 205.46 L 352.96 205.27 L 353.11 204.84 L 353.38 201.19 L 354.42 204.28 L 354.65 204.27 L 354.82 204.25 L 355.08 204.25 L 355.17 204.19 L 355.43 204.01 L 355.84 203.76 L 355.90 203.59 L 355.97 203.53 L 356.02 203.54 L 356.06 203.49 L 356.39 203.26 L 363.95 203.26 L 364.02 203.26 L 364.49 203.25 L 364.54 203.23 L 364.64 202.77 L 364.73 202.50 L 364.74 202.50 L 365.00 202.46 L 365.07 202.44 L 366.62 201.75 L 366.80 201.70 L 366.93 201.68 L 366.96 201.68 L 367.44 201.51 L 367.61 201.60 L 367.64 201.59 L 367.89 201.55 L 368.17 200.10 L 368.21 200.09 L 368.44 199.93 L 368.54 199.93 L 368.63 199.93 L 368.83 199.77 L 369.25 199.18 L 369.33 199.16 L 369.40 199.00 L 369.58 198.31 L 369.99 197.60 L 370.36 194.24 L 370.44 193.83 L 370.82 193.67 L 370.88 193.59 L 370.94 193.42 L 370.98 192.88 L 371.11 191.92 L 371.14 191.96 L 371.20 191.94 L 371.42 191.93 L 371.75 191.58 L 371.95 191.51 L 372.19 191.50 L 372.29 191.48 L 372.52 191.47 L 372.91 191.47 L 373.29 191.46 L 373.58 191.46 L 373.64 191.45 L 373.72 191.44 L 373.72 191.32 L 373.94 191.25 L 374.01 191.24 L 374.10 191.09 L 374.72 191.07 L 374.73 190.78 L 374.90 190.77 L 375.62 190.78 L 376.10 190.60 L 376.45 190.38 L 376.46 190.27 L 376.49 190.27 L 387.09 190.07 L 387.12 190.06 L 387.25 190.05 L 387.30 189.88 L 387.34 189.86 L 387.35 189.85 L 387.80 189.81 L 387.90 189.20 L 388.04 189.06 L 388.26 187.87 L 388.41 187.85 L 388.59 187.34 L 388.69 187.41 L 388.74 187.40 L 388.79 186.82 L 388.92 186.42 L 388.94 186.00 L 388.99 185.94 L 389.10 185.91 L 389.18 185.71 L 389.27 188.00 L 389.40 187.95 L 389.66 187.04 L 389.77 186.82 L 389.88 186.63 L 390.52 185.31 L 391.08 184.68 L 391.75 183.47 L 391.92 183.41 L 392.11 183.41 L 392.32 183.36 L 396.22 183.01 L 396.54 182.98 L 433.45 182.06 L 549.67 181.84 L 550.05 181.47 L 550.32 181.42 L 550.58 181.42 L 550.99 180.71 L 551.13 180.37 L 551.23 179.73 L 551.42 177.89 L 551.69 178.27 L 551.90 177.87 L 551.95 177.86 L 552.13 177.74 L 552.17 177.74 L 552.36 177.07 L 552.53 175.99 L 553.06 174.84 L 553.08 174.74 L 553.23 173.38 L 553.73 169.99 L 553.74 169.87 L 553.84 169.80 L 553.96 168.59 L 554.50 166.96 L 554.51 166.81 L 554.63 166.73 L 554.75 165.93 L 554.96 165.29 L 554.97 165.17 L 555.06 163.93 L 555.07 163.90 L 555.12 163.55 L 555.35 161.35 L 555.38 161.22 L 555.46 161.09 L 555.70 160.80 L 555.75 160.79 L 555.95 160.37 L 556.27 160.42 L 556.32 160.36 L 556.36 160.34 L 556.42 160.30 L 556.58 159.01 L 556.75 157.95 L 556.78 157.86 L 556.87 156.54 L 556.97 155.25 L 557.00 155.09 L 557.10 153.58 L 557.14 152.39 L 557.34 151.59 L 557.37 151.53 L 557.47 151.28 L 557.61 151.26 L 558.45 151.23 L 558.86 151.19 L 567.94 151.24 L 568.03 151.01 L 568.12 150.81 L 568.28 149.92 L 568.62 149.69 L 568.64 149.61 L 568.71 148.43 L 568.93 147.29 L 568.95 147.20 L 570.93 147.12 L 571.05 146.48 L 572.05 146.29 L 572.16 146.24 L 572.28 144.92 L 573.48 143.67 L 574.00 143.20 L 574.12 142.23 L 574.56 140.57 L 574.82 140.09 L 575.27 139.11 L 576.07 138.61 L 588.22 138.60 L 588.95 138.49 L 588.98 138.51 L 589.99 138.32 L 590.05 138.22 L 590.40 138.15 L 590.82 137.06 L 590.82 137.06 L 590.86 137.02 L 591.40 135.78 L 592.65 135.07 L 592.73 135.01 L 592.86 135.00 L 593.05 134.67 L 593.10 134.59 L 593.18 134.53 L 593.76 134.48 L 594.22 134.48 L 594.47 134.48 L 594.51 134.43 L 595.03 133.35 L 595.43 133.14 L 595.45 133.06 L 595.49 132.97 L 595.55 132.68 L 608.74 132.27 L 608.76 132.25 L 608.80 132.23 L 609.05 132.11 L 609.25 131.98 L 610.42 130.31 L 610.70 130.11 L 611.54 129.61 L 612.26 129.49 L 612.79 129.33 L 612.95 127.79 L 613.61 126.00 L 613.86 125.87 L 613.95 124.71 L 615.90 122.57 L 615.92 122.57 L 616.02 122.05 L 616.39 121.99 L 616.40 121.99 L 616.42 121.86 L 616.49 121.70 L 616.66 121.53 L 616.87 120.63 L 618.89 118.47 L 619.15 118.22 L 619.33 117.83 L 619.36 117.78 L 619.40 117.48 L 628.38 116.50 L 628.67 115.76 L 628.84 115.73 L 628.91 115.24 L 629.75 115.01 L 629.93 114.52 L 630.09 114.52 L 630.18 113.48 L 630.47 110.85 L 630.51 110.81 L 630.89 110.76 L 630.98 109.90 L 631.30 108.87 L 631.37 108.16 L 631.64 107.50 L 631.83 107.15 L 631.98 106.36 L 632.32 105.69 L 632.36 104.94 L 632.79 104.78 L 632.83 104.78 L 632.90 103.82 L 632.99 103.82 L 633.04 103.74 L 633.54 101.96 L 634.26 101.37 L 634.62 101.56 L 635.81 101.48 L 635.84 101.47 L 636.03 101.45 L 636.11 101.43 L 636.24 101.31 L 636.39 101.20 L 636.55 101.01 L 636.90 100.75 L 637.24 100.73 L 638.30 100.55 L 638.35 100.54 L 639.42 100.38 L 639.87 100.26 L 648.96 100.25 L 649.42 100.11 L 649.64 100.03 L 649.74 100.03 L 649.77 100.03 L 650.00 100.00"/>
	</g>
	<g id="poloto_plot1" class="poloto_plot poloto_imgs poloto_line poloto1 poloto_stroke" fill="none" stroke="black">
		<path d=" M 150.00 381.59 L 150.03 381.57 L 150.05 381.56 L 150.06 381.56 L 150.08 381.56 L 150.11 380.98 L 150.24 380.96 L 150.52 380.95 L 150.94 380.73 L 151.16 380.63 L 151.59 380.65 L 151.66 380.61 L 151.72 380.61 L 152.22 380.57 L 153.16 380.46 L 153.45 378.18 L 153.53 378.18 L 154.10 378.13 L 154.75 378.12 L 154.76 378.12 L 154.76 378.12 L 163.58 378.12 L 163.64 378.12 L 163.76 378.11 L 163.80 378.09 L 164.14 378.07 L 164.29 378.07 L 164.66 378.07 L 164.72 378.07 L 164.83 378.06 L 164.94 378.06 L 164.97 378.06 L 165.06 378.03 L 165.16 378.03 L 165.25 378.03 L 165.50 377.90 L 165.72 377.90 L 165.76 377.90 L 165.86 377.90 L 166.56 378.76 L 166.58 378.76 L 166.67 378.75 L 167.07 378.62 L 167.39 378.48 L 167.75 378.41 L 167.82 378.37 L 167.83 378.37 L 167.90 378.37 L 168.04 378.37 L 168.22 378.31 L 168.56 378.26 L 168.58 378.26 L 168.65 378.26 L 168.73 378.24 L 168.93 378.24 L 168.95 378.24 L 169.16 378.23 L 169.24 378.23 L 169.31 378.23 L 169.39 378.23 L 170.47 378.13 L 170.73 378.12 L 171.32 378.08 L 171.45 378.08 L 171.54 378.08 L 171.60 378.08 L 172.01 378.01 L 172.19 378.01 L 172.40 377.93 L 172.51 377.92 L 172.76 377.73 L 172.86 377.67 L 173.01 377.67 L 173.15 377.66 L 173.62 375.00 L 173.64 374.96 L 173.66 374.96 L 173.82 374.70 L 182.00 374.70 L 182.85 373.55 L 182.88 373.55 L 183.88 373.55 L 183.96 373.55 L 184.06 373.43 L 184.30 373.41 L 184.41 373.41 L 184.45 373.41 L 184.58 373.41 L 184.87 373.41 L 184.88 373.16 L 184.99 373.15 L 185.11 373.15 L 185.23 373.13 L 185.39 373.12 L 185.45 373.12 L 185.48 373.12 L 185.62 373.12 L 185.64 373.12 L 185.79 373.12 L 185.82 373.12 L 186.05 371.99 L 186.09 371.99 L 186.17 371.86 L 186.27 371.86 L 186.41 371.86 L 186.47 371.84 L 186.93 371.84 L 186.94 371.84 L 187.02 371.77 L 187.23 371.77 L 187.41 371.12 L 187.47 371.04 L 187.56 371.04 L 187.60 371.04 L 187.70 371.02 L 188.22 366.27 L 188.27 366.31 L 188.45 366.31 L 188.50 366.31 L 188.54 366.30 L 188.62 366.30 L 188.70 366.24 L 188.89 366.24 L 189.01 366.24 L 189.12 366.23 L 189.17 366.23 L 189.64 366.22 L 189.89 366.22 L 189.96 366.10 L 190.18 366.10 L 190.20 366.10 L 190.22 366.10 L 190.35 365.78 L 190.46 365.70 L 190.84 364.57 L 190.90 364.57 L 190.98 364.57 L 191.08 364.58 L 191.09 364.58 L 191.13 364.58 L 191.17 364.58 L 191.22 364.58 L 191.27 364.58 L 191.42 364.56 L 191.53 364.56 L 191.64 364.55 L 191.79 364.55 L 191.95 364.54 L 192.12 364.12 L 192.23 363.98 L 192.47 363.98 L 192.47 363.97 L 192.61 363.97 L 204.04 363.97 L 204.26 363.97 L 204.79 363.89 L 204.91 363.88 L 204.99 363.88 L 205.01 363.88 L 205.21 363.88 L 205.34 363.88 L 205.42 363.88 L 205.50 363.88 L 205.55 363.88 L 205.75 363.88 L 206.16 363.90 L 206.27 363.90 L 206.35 363.90 L 206.44 363.90 L 206.97 363.81 L 207.05 363.77 L 207.08 363.77 L 207.12 363.71 L 207.23 363.70 L 207.32 363.70 L 207.71 363.27 L 208.26 363.27 L 208.46 363.27 L 209.07 363.27 L 209.36 360.36 L 209.46 360.35 L 209.59 360.35 L 209.76 360.35 L 210.04 360.35 L 210.43 360.35 L 210.95 360.35 L 211.03 360.35 L 211.40 360.28 L 211.65 360.16 L 211.72 360.16 L 211.87 360.16 L 211.99 360.14 L 213.34 359.96 L 214.62 359.96 L 226.12 359.96 L 226.20 359.96 L 226.26 359.96 L 226.62 359.96 L 227.69 359.04 L 227.74 359.01 L 227.89 358.92 L 228.42 358.91 L 228.67 358.69 L 229.05 358.69 L 229.14 358.69 L 229.22 358.69 L 229.89 356.14 L 229.97 356.14 L 230.11 356.14 L 230.26 356.14 L 230.32 355.97 L 230.70 355.67 L 230.83 355.67 L 230.89 355.67 L 230.98 355.20 L 231.14 354.73 L 231.21 354.73 L 231.38 354.72 L 231.88 350.91 L 231.92 350.91 L 231.97 350.91 L 232.05 350.91 L 232.17 350.91 L 232.22 350.91 L 232.27 350.91 L 232.51 350.91 L 232.56 350.83 L 232.85 350.81 L 233.03 350.76 L 233.14 350.30 L 234.03 342.73 L 234.13 342.73 L 267.92 342.73 L 267.95 342.73 L 280.86 342.73 L 281.57 342.61 L 281.71 342.61 L 281.90 342.61 L 281.96 342.61 L 282.04 342.61 L 287.64 342.55 L 288.38 342.48 L 288.65 342.48 L 288.80 342.46 L 292.28 342.39 L 292.31 342.29 L 292.53 342.29 L 293.57 341.26 L 293.63 341.26 L 293.76 341.26 L 294.12 341.26 L 294.17 341.26 L 294.32 341.26 L 294.48 341.26 L 294.50 341.26 L 305.35 341.25 L 305.43 341.07 L 305.87 341.07 L 305.87 339.83 L 305.95 339.83 L 306.04 339.83 L 306.16 339.71 L 306.34 339.71 L 306.50 339.66 L 306.64 339.66 L 306.69 339.66 L 306.91 339.64 L 307.66 337.54 L 307.97 337.54 L 308.02 337.53 L 308.08 337.53 L 308.12 337.53 L 308.22 337.50 L 308.53 337.23 L 308.58 337.20 L 308.76 335.31 L 308.83 335.30 L 308.86 335.30 L 308.93 335.28 L 308.98 335.28 L 309.02 335.27 L 309.26 334.24 L 309.36 334.23 L 309.49 334.21 L 309.59 331.01 L 309.62 331.01 L 309.86 329.21 L 309.93 329.21 L 309.97 329.21 L 310.03 329.21 L 310.07 329.21 L 310.10 329.21 L 310.12 329.21 L 310.24 325.88 L 310.28 325.88 L 310.40 325.87 L 310.48 325.87 L 310.73 325.80 L 311.03 325.71 L 311.04 325.71 L 311.12 325.69 L 311.40 325.63 L 311.53 325.63 L 311.66 325.63 L 311.80 324.20 L 311.89 324.20 L 312.28 324.19 L 312.31 324.19 L 312.36 324.19 L 312.39 324.19 L 312.64 322.14 L 312.68 322.14 L 312.87 322.13 L 329.56 322.13 L 330.52 322.11 L 330.54 322.11 L 330.73 322.11 L 330.75 322.11 L 330.87 322.11 L 330.96 322.11 L 331.04 322.01 L 331.16 322.01 L 331.19 322.01 L 331.24 322.01 L 331.41 321.83 L 331.78 321.71 L 332.01 321.59 L 332.26 321.01 L 332.27 321.01 L 332.31 320.86 L 332.35 320.85 L 332.84 320.49 L 332.85 320.49 L 332.93 320.44 L 333.15 320.44 L 333.28 320.41 L 333.31 319.56 L 333.32 319.56 L 333.38 320.39 L 333.42 320.35 L 333.44 320.34 L 333.56 319.20 L 333.57 319.20 L 333.83 319.15 L 334.54 319.15 L 334.71 319.15 L 334.77 319.15 L 334.80 319.15 L 334.84 319.15 L 334.94 319.08 L 346.36 318.13 L 346.37 318.13 L 346.47 318.12 L 346.50 317.92 L 346.56 307.81 L 346.69 304.05 L 346.70 304.05 L 346.91 303.98 L 346.96 303.98 L 347.00 303.96 L 347.18 303.96 L 347.68 303.04 L 347.69 303.04 L 347.81 302.99 L 347.86 302.99 L 347.89 302.92 L 348.30 302.37 L 348.31 302.37 L 348.94 302.25 L 349.01 302.22 L 349.23 302.23 L 349.49 300.99 L 349.56 300.86 L 349.60 300.75 L 349.72 300.28 L 350.04 300.16 L 350.10 300.06 L 350.24 300.06 L 350.39 300.06 L 350.88 300.06 L 350.93 300.06 L 351.04 300.06 L 351.05 300.06 L 351.21 300.08 L 351.57 300.08 L 351.94 299.95 L 352.00 299.95 L 352.08 299.93 L 352.19 299.93 L 352.47 299.93 L 352.96 299.93 L 353.11 299.82 L 353.38 296.56 L 354.42 299.64 L 354.65 299.62 L 354.82 299.61 L 355.08 299.61 L 355.17 299.58 L 355.43 299.56 L 355.84 299.37 L 355.90 299.37 L 355.97 299.37 L 356.02 299.37 L 356.06 299.37 L 356.39 299.19 L 363.95 299.19 L 364.02 299.20 L 364.49 299.18 L 364.54 299.18 L 364.64 299.15 L 364.73 298.93 L 364.74 298.92 L 365.00 298.90 L 365.07 298.90 L 366.62 298.71 L 366.80 298.71 L 366.93 298.71 L 366.96 298.71 L 367.44 298.58 L 367.61 298.58 L 367.64 298.58 L 367.89 298.57 L 368.17 297.80 L 368.21 297.80 L 368.44 297.67 L 368.54 297.67 L 368.63 297.67 L 368.83 297.67 L 369.25 297.66 L 369.33 297.64 L 369.40 297.56 L 369.58 297.43 L 369.99 297.31 L 370.36 294.24 L 370.44 294.13 L 370.82 293.99 L 370.88 293.95 L 370.94 293.84 L 370.98 293.63 L 371.11 292.70 L 371.14 292.74 L 371.20 292.72 L 371.42 292.72 L 371.75 292.59 L 371.95 292.55 L 372.19 292.53 L 372.29 292.52 L 372.52 292.51 L 372.91 292.51 L 373.29 292.50 L 373.58 292.50 L 373.64 292.49 L 373.72 292.49 L 373.72 292.48 L 373.94 292.48 L 374.01 292.47 L 374.10 292.36 L 374.72 292.34 L 374.73 292.34 L 374.90 292.33 L 375.62 292.33 L 376.10 292.18 L 376.45 292.05 L 376.46 292.05 L 376.49 292.04 L 387.09 292.04 L 387.12 292.04 L 387.25 292.04 L 387.30 292.04 L 387.34 292.03 L 387.35 292.03 L 387.80 292.03 L 387.90 292.01 L 388.04 291.99 L 388.26 291.97 L 388.41 291.97 L 388.59 291.90 L 388.69 291.90 L 388.74 291.90 L 388.79 291.90 L 388.92 291.62 L 388.94 291.62 L 388.99 291.62 L 389.10 291.62 L 389.18 291.62 L 389.27 291.69 L 389.40 291.69 L 389.66 291.67 L 389.77 291.67 L 389.88 291.67 L 390.52 290.77 L 391.08 290.53 L 391.75 289.88 L 391.92 289.88 L 392.11 289.88 L 392.32 289.88 L 396.22 289.80 L 396.54 289.80 L 433.45 289.68 L 549.67 289.51 L 550.05 289.46 L 550.32 289.46 L 550.58 289.46 L 550.99 289.04 L 551.13 289.04 L 551.23 289.04 L 551.42 287.52 L 551.69 287.81 L 551.90 287.79 L 551.95 287.79 L 552.13 287.78 L 552.17 287.78 L 552.36 287.77 L 552.53 287.70 L 553.06 286.75 L 553.08 286.75 L 553.23 286.66 L 553.73 283.56 L 553.74 283.56 L 553.84 283.55 L 553.96 283.50 L 554.50 282.06 L 554.51 282.06 L 554.63 282.06 L 554.75 282.02 L 554.96 281.50 L 554.97 281.50 L 555.06 281.49 L 555.07 281.49 L 555.12 281.20 L 555.35 279.15 L 555.38 279.15 L 555.46 279.15 L 555.70 278.97 L 555.75 278.97 L 555.95 278.64 L 556.27 278.64 L 556.32 278.64 L 556.36 278.64 L 556.42 278.64 L 556.58 278.63 L 556.75 277.70 L 556.78 277.70 L 556.87 277.70 L 556.97 277.00 L 557.00 277.00 L 557.10 276.25 L 557.14 276.21 L 557.34 275.47 L 557.37 275.47 L 557.47 275.47 L 557.61 275.46 L 558.45 275.46 L 558.86 275.45 L 567.94 275.45 L 568.03 275.45 L 568.12 275.45 L 568.28 275.45 L 568.62 275.26 L 568.64 275.26 L 568.71 275.20 L 568.93 274.17 L 568.95 274.17 L 570.93 274.19 L 571.05 273.99 L 572.05 273.99 L 572.16 273.98 L 572.28 273.91 L 573.48 273.07 L 574.00 272.91 L 574.12 272.85 L 574.56 271.25 L 574.82 271.25 L 575.27 271.11 L 576.07 271.11 L 588.22 271.11 L 588.95 271.01 L 588.98 271.03 L 589.99 271.03 L 590.05 271.03 L 590.40 271.03 L 590.82 271.00 L 590.82 271.00 L 590.86 271.00 L 591.40 270.06 L 592.65 270.04 L 592.73 270.04 L 592.86 270.03 L 593.05 270.00 L 593.10 269.97 L 593.18 269.97 L 593.76 269.92 L 594.22 269.92 L 594.47 269.92 L 594.51 269.92 L 595.03 269.90 L 595.43 269.79 L 595.45 269.79 L 595.49 269.79 L 595.55 269.79 L 608.74 269.57 L 608.76 269.57 L 608.80 269.57 L 609.05 269.57 L 609.25 269.57 L 610.42 268.65 L 610.70 268.59 L 611.54 268.52 L 612.26 268.47 L 612.79 268.47 L 612.95 268.47 L 613.61 267.07 L 613.86 267.04 L 613.95 266.99 L 615.90 266.01 L 615.92 266.01 L 616.02 265.99 L 616.39 265.98 L 616.40 265.98 L 616.42 265.98 L 616.49 265.95 L 616.66 265.91 L 616.87 265.80 L 618.89 264.18 L 619.15 264.10 L 619.33 264.10 L 619.36 264.10 L 619.40 264.10 L 628.38 264.10 L 628.67 264.09 L 628.84 264.09 L 628.91 264.09 L 629.75 264.09 L 629.93 264.09 L 630.09 264.09 L 630.18 264.06 L 630.47 261.93 L 630.51 261.92 L 630.89 261.93 L 630.98 261.91 L 631.30 261.09 L 631.37 261.04 L 631.64 260.51 L 631.83 260.51 L 631.98 260.46 L 632.32 259.96 L 632.36 259.96 L 632.79 258.38 L 632.83 258.38 L 632.90 258.37 L 632.99 258.37 L 633.04 258.37 L 633.54 256.79 L 634.26 256.65 L 634.62 256.65 L 635.81 256.61 L 635.84 256.61 L 636.03 256.61 L 636.11 256.61 L 636.24 256.61 L 636.39 256.61 L 636.55 256.59 L 636.90 256.57 L 637.24 256.57 L 638.30 256.50 L 638.35 256.50 L 639.42 256.45 L 639.87 256.41 L 648.96 256.43 L 649.42 256.35 L 649.64 256.27 L 649.74 256.27 L 649.77 256.27 L 650.00 256.26"/>
	</g>
	<g id="poloto_plot2" class="poloto_plot poloto_imgs poloto_line poloto2 poloto_stroke" fill="none" stroke="black">
		<path d=" M 150.00 391.74 L 150.03 391.73 L 150.05 391.73 L 150.06 391.73 L 150.08 391.73 L 150.11 389.62 L 150.24 389.33 L 150.52 389.32 L 150.94 389.31 L 151.16 388.05 L 151.59 387.93 L 151.66 387.90 L 151.72 387.86 L 152.22 387.30 L 153.16 386.85 L 153.45 386.77 L 153.53 386.77 L 154.10 386.74 L 154.75 386.74 L 154.76 386.74 L 154.76 386.74 L 163.58 386.74 L 163.64 386.74 L 163.76 386.72 L 163.80 386.72 L 164.14 386.59 L 164.29 386.55 L 164.66 386.35 L 164.72 386.26 L 164.83 386.07 L 164.94 386.05 L 164.97 386.04 L 165.06 386.01 L 165.16 386.01 L 165.25 386.01 L 165.50 385.80 L 165.72 385.60 L 165.76 385.60 L 165.86 385.49 L 166.56 385.24 L 166.58 385.23 L 166.67 385.15 L 167.07 384.87 L 167.39 384.53 L 167.75 384.39 L 167.82 384.39 L 167.83 384.39 L 167.90 384.20 L 168.04 384.20 L 168.22 384.17 L 168.56 384.03 L 168.58 383.78 L 168.65 383.78 L 168.73 383.66 L 168.93 383.66 L 168.95 383.66 L 169.16 383.29 L 169.24 383.27 L 169.31 383.24 L 169.39 383.06 L 170.47 382.96 L 170.73 382.92 L 171.32 382.67 L 171.45 382.67 L 171.54 382.66 L 171.60 382.46 L 172.01 381.43 L 172.19 381.42 L 172.40 381.10 L 172.51 381.07 L 172.76 380.93 L 172.86 380.89 L 173.01 380.66 L 173.15 380.48 L 173.62 380.48 L 173.64 380.46 L 173.66 380.31 L 173.82 379.31 L 182.00 379.21 L 182.85 378.91 L 182.88 378.87 L 183.88 378.62 L 183.96 378.61 L 184.06 378.43 L 184.30 378.31 L 184.41 378.08 L 184.45 377.89 L 184.58 377.52 L 184.87 377.51 L 184.88 377.51 L 184.99 377.25 L 185.11 377.25 L 185.23 376.97 L 185.39 376.76 L 185.45 376.64 L 185.48 376.64 L 185.62 376.39 L 185.64 376.38 L 185.79 376.15 L 185.82 376.15 L 186.05 376.07 L 186.09 376.07 L 186.17 375.98 L 186.27 375.97 L 186.41 375.97 L 186.47 375.95 L 186.93 375.72 L 186.94 375.73 L 187.02 375.28 L 187.23 375.27 L 187.41 375.13 L 187.47 375.13 L 187.56 375.12 L 187.60 375.09 L 187.70 374.47 L 188.22 373.95 L 188.27 373.67 L 188.45 373.64 L 188.50 373.57 L 188.54 373.56 L 188.62 373.43 L 188.70 372.94 L 188.89 372.86 L 189.01 372.85 L 189.12 372.60 L 189.17 372.60 L 189.64 372.41 L 189.89 372.28 L 189.96 372.17 L 190.18 372.16 L 190.20 372.16 L 190.22 372.14 L 190.35 371.26 L 190.46 371.25 L 190.84 371.12 L 190.90 370.77 L 190.98 370.76 L 191.08 370.62 L 191.09 370.53 L 191.13 370.47 L 191.17 370.44 L 191.22 370.44 L 191.27 370.37 L 191.42 369.37 L 191.53 369.27 L 191.64 368.97 L 191.79 368.95 L 191.95 368.86 L 192.12 368.55 L 192.23 367.68 L 192.47 367.62 L 192.47 367.25 L 192.61 367.16 L 204.04 367.16 L 204.26 367.16 L 204.79 366.75 L 204.91 366.75 L 204.99 366.75 L 205.01 366.65 L 205.21 366.47 L 205.34 366.44 L 205.42 366.34 L 205.50 366.26 L 205.55 366.22 L 205.75 366.17 L 206.16 366.25 L 206.27 365.98 L 206.35 365.91 L 206.44 365.90 L 206.97 365.84 L 207.05 365.80 L 207.08 365.80 L 207.12 365.74 L 207.23 365.70 L 207.32 365.60 L 207.71 365.34 L 208.26 365.23 L 208.46 365.18 L 209.07 365.02 L 209.36 364.62 L 209.46 364.55 L 209.59 364.24 L 209.76 363.83 L 210.04 363.72 L 210.43 363.71 L 210.95 363.70 L 211.03 363.55 L 211.40 363.45 L 211.65 363.32 L 211.72 363.22 L 211.87 363.18 L 211.99 362.91 L 213.34 362.78 L 214.62 362.78 L 226.12 362.75 L 226.20 362.60 L 226.26 362.50 L 226.62 362.35 L 227.69 362.08 L 227.74 362.04 L 227.89 361.85 L 228.42 361.78 L 228.67 361.25 L 229.05 361.24 L 229.14 361.22 L 229.22 360.71 L 229.89 360.23 L 229.97 360.22 L 230.11 360.20 L 230.26 360.15 L 230.32 359.98 L 230.70 359.17 L 230.83 358.97 L 230.89 358.96 L 230.98 358.87 L 231.14 358.56 L 231.21 357.75 L 231.38 357.43 L 231.88 357.24 L 231.92 356.83 L 231.97 356.83 L 232.05 356.76 L 232.17 356.65 L 232.22 356.62 L 232.27 356.58 L 232.51 355.65 L 232.56 355.10 L 232.85 355.00 L 233.03 354.06 L 233.14 353.89 L 234.03 352.42 L 234.13 352.39 L 267.92 351.97 L 267.95 351.97 L 280.86 351.85 L 281.57 351.69 L 281.71 351.69 L 281.90 351.61 L 281.96 351.50 L 282.04 351.47 L 287.64 351.45 L 288.38 349.77 L 288.65 349.63 L 288.80 349.04 L 292.28 348.97 L 292.31 348.92 L 292.53 348.91 L 293.57 348.80 L 293.63 348.61 L 293.76 348.54 L 294.12 348.45 L 294.17 348.43 L 294.32 348.11 L 294.48 348.01 L 294.50 347.76 L 305.35 347.44 L 305.43 346.68 L 305.87 346.48 L 305.87 346.18 L 305.95 345.95 L 306.04 345.60 L 306.16 344.68 L 306.34 344.17 L 306.50 343.51 L 306.64 343.51 L 306.69 343.00 L 306.91 342.97 L 307.66 342.49 L 307.97 342.26 L 308.02 342.13 L 308.08 342.12 L 308.12 341.96 L 308.22 341.38 L 308.53 341.33 L 308.58 341.32 L 308.76 340.95 L 308.83 340.95 L 308.86 340.74 L 308.93 340.60 L 308.98 340.60 L 309.02 340.30 L 309.26 340.12 L 309.36 339.82 L 309.49 339.81 L 309.59 339.65 L 309.62 339.42 L 309.86 339.30 L 309.93 339.17 L 309.97 339.17 L 310.03 339.17 L 310.07 338.93 L 310.10 338.94 L 310.12 338.94 L 310.24 338.86 L 310.28 338.60 L 310.40 338.60 L 310.48 338.54 L 310.73 338.52 L 311.03 338.49 L 311.04 338.49 L 311.12 338.47 L 311.40 338.47 L 311.53 338.47 L 311.66 338.47 L 311.80 338.43 L 311.89 338.12 L 312.28 338.12 L 312.31 337.94 L 312.36 337.94 L 312.39 337.73 L 312.64 337.66 L 312.68 337.61 L 312.87 337.61 L 329.56 337.55 L 330.52 337.47 L 330.54 337.47 L 330.73 337.46 L 330.75 337.47 L 330.87 337.10 L 330.96 337.09 L 331.04 336.99 L 331.16 336.93 L 331.19 336.90 L 331.24 336.88 L 331.41 336.85 L 331.78 336.78 L 332.01 336.29 L 332.26 336.26 L 332.27 336.23 L 332.31 335.83 L 332.35 335.82 L 332.84 335.82 L 332.85 335.78 L 332.93 335.41 L 333.15 335.36 L 333.28 335.34 L 333.31 335.34 L 333.32 335.29 L 333.38 335.27 L 333.42 334.88 L 333.44 334.87 L 333.56 334.87 L 333.57 334.84 L 333.83 334.80 L 334.54 334.79 L 334.71 334.75 L 334.77 334.74 L 334.80 334.62 L 334.84 334.62 L 334.94 334.19 L 346.36 334.05 L 346.37 333.93 L 346.47 333.84 L 346.50 333.83 L 346.56 333.46 L 346.69 333.37 L 346.70 333.35 L 346.91 333.34 L 346.96 333.34 L 347.00 332.98 L 347.18 332.93 L 347.68 332.92 L 347.69 332.90 L 347.81 332.70 L 347.86 332.70 L 347.89 332.36 L 348.30 332.36 L 348.31 332.34 L 348.94 332.26 L 349.01 331.85 L 349.23 331.85 L 349.49 331.85 L 349.56 331.55 L 349.60 331.32 L 349.72 331.31 L 350.04 331.26 L 350.10 331.24 L 350.24 331.15 L 350.39 331.15 L 350.88 331.15 L 350.93 331.15 L 351.04 331.13 L 351.05 331.12 L 351.21 331.12 L 351.57 331.10 L 351.94 331.06 L 352.00 331.06 L 352.08 331.01 L 352.19 330.90 L 352.47 330.90 L 352.96 330.77 L 353.11 330.54 L 353.38 330.52 L 354.42 330.27 L 354.65 330.27 L 354.82 330.27 L 355.08 330.26 L 355.17 330.24 L 355.43 330.12 L 355.84 330.10 L 355.90 329.99 L 355.97 329.93 L 356.02 329.95 L 356.06 329.91 L 356.39 329.89 L 363.95 329.88 L 364.02 329.88 L 364.49 329.88 L 364.54 329.87 L 364.64 329.53 L 364.73 329.51 L 364.74 329.52 L 365.00 329.51 L 365.07 329.49 L 366.62 328.99 L 366.80 328.94 L 366.93 328.92 L 366.96 328.92 L 367.44 328.91 L 367.61 328.98 L 367.64 328.98 L 367.89 328.94 L 368.17 328.47 L 368.21 328.46 L 368.44 328.45 L 368.54 328.45 L 368.63 328.45 L 368.83 328.35 L 369.25 327.92 L 369.33 327.92 L 369.40 327.85 L 369.58 327.46 L 369.99 327.03 L 370.36 327.06 L 370.44 326.83 L 370.82 326.83 L 370.88 326.80 L 370.94 326.77 L 370.98 326.55 L 371.11 326.54 L 371.14 326.54 L 371.20 326.54 L 371.42 326.54 L 371.75 326.36 L 371.95 326.34 L 372.19 326.34 L 372.29 326.34 L 372.52 326.34 L 372.91 326.34 L 373.29 326.34 L 373.58 326.34 L 373.64 326.33 L 373.72 326.32 L 373.72 326.24 L 373.94 326.19 L 374.01 326.19 L 374.10 326.18 L 374.72 326.17 L 374.73 325.95 L 374.90 325.95 L 375.62 325.95 L 376.10 325.95 L 376.45 325.90 L 376.46 325.81 L 376.49 325.81 L 387.09 325.66 L 387.12 325.65 L 387.25 325.64 L 387.30 325.51 L 387.34 325.51 L 387.35 325.50 L 387.80 325.45 L 387.90 325.00 L 388.04 324.90 L 388.26 324.00 L 388.41 324.00 L 388.59 323.61 L 388.69 323.66 L 388.74 323.65 L 388.79 323.16 L 388.92 323.08 L 388.94 322.74 L 388.99 322.69 L 389.10 322.66 L 389.18 322.49 L 389.27 324.50 L 389.40 324.47 L 389.66 323.66 L 389.77 323.48 L 389.88 323.30 L 390.52 322.99 L 391.08 322.65 L 391.75 322.17 L 391.92 322.12 L 392.11 322.12 L 392.32 322.08 L 396.22 321.84 L 396.54 321.82 L 433.45 321.19 L 549.67 321.17 L 550.05 320.89 L 550.32 320.84 L 550.58 320.84 L 550.99 320.59 L 551.13 320.29 L 551.23 319.74 L 551.42 319.59 L 551.69 319.64 L 551.90 319.32 L 551.95 319.31 L 552.13 319.21 L 552.17 319.21 L 552.36 318.68 L 552.53 317.85 L 553.06 317.77 L 553.08 317.69 L 553.23 316.62 L 553.73 316.58 L 553.74 316.48 L 553.84 316.42 L 553.96 315.45 L 554.50 315.40 L 554.51 315.27 L 554.63 315.20 L 554.75 314.57 L 554.96 314.55 L 554.97 314.44 L 555.06 313.39 L 555.07 313.36 L 555.12 313.33 L 555.35 313.33 L 555.38 313.22 L 555.46 313.15 L 555.70 313.05 L 555.75 313.04 L 555.95 312.99 L 556.27 313.03 L 556.32 312.98 L 556.36 312.96 L 556.42 312.92 L 556.58 311.83 L 556.75 311.81 L 556.78 311.72 L 556.87 310.60 L 556.97 310.19 L 557.00 310.04 L 557.10 309.50 L 557.14 308.55 L 557.34 308.54 L 557.37 308.48 L 557.47 308.29 L 557.61 308.29 L 558.45 308.26 L 558.86 308.23 L 567.94 308.28 L 568.03 308.06 L 568.12 307.90 L 568.28 307.15 L 568.62 307.13 L 568.64 307.06 L 568.71 306.10 L 568.93 306.10 L 568.95 306.00 L 570.93 305.91 L 571.05 305.56 L 572.05 305.40 L 572.16 305.36 L 572.28 304.30 L 573.48 304.00 L 574.00 303.75 L 574.12 302.95 L 574.56 302.95 L 574.82 302.50 L 575.27 301.82 L 576.07 301.40 L 588.22 301.40 L 588.95 301.39 L 588.98 301.39 L 589.99 301.24 L 590.05 301.15 L 590.40 301.09 L 590.82 300.20 L 590.82 300.20 L 590.86 300.16 L 591.40 299.97 L 592.65 299.38 L 592.73 299.32 L 592.86 299.31 L 593.05 299.06 L 593.10 299.02 L 593.18 298.98 L 593.76 298.97 L 594.22 298.97 L 594.47 298.97 L 594.51 298.94 L 595.03 298.03 L 595.43 297.95 L 595.45 297.88 L 595.49 297.80 L 595.55 297.57 L 608.74 297.40 L 608.76 297.38 L 608.80 297.36 L 609.05 297.25 L 609.25 297.14 L 610.42 296.63 L 610.70 296.53 L 611.54 296.14 L 612.26 296.08 L 612.79 295.92 L 612.95 294.59 L 613.61 294.37 L 613.86 294.30 L 613.95 293.34 L 615.90 292.42 L 615.92 292.42 L 616.02 291.99 L 616.39 291.95 L 616.40 291.95 L 616.42 291.84 L 616.49 291.73 L 616.66 291.63 L 616.87 290.97 L 618.89 290.63 L 619.15 290.48 L 619.33 290.12 L 619.36 290.08 L 619.40 289.85 L 628.38 289.01 L 628.67 288.41 L 628.84 288.38 L 628.91 287.98 L 629.75 287.81 L 629.93 287.38 L 630.09 287.38 L 630.18 286.49 L 630.47 286.28 L 630.51 286.25 L 630.89 286.20 L 630.98 285.46 L 631.30 285.37 L 631.37 284.80 L 631.64 284.73 L 631.83 284.40 L 631.98 283.75 L 632.32 283.63 L 632.36 282.97 L 632.79 284.46 L 632.83 284.46 L 632.90 283.61 L 632.99 283.61 L 633.04 283.54 L 633.54 283.46 L 634.26 283.11 L 634.62 283.29 L 635.81 283.27 L 635.84 283.26 L 636.03 283.25 L 636.11 283.23 L 636.24 283.11 L 636.39 283.01 L 636.55 282.85 L 636.90 282.64 L 637.24 282.62 L 638.30 282.52 L 638.35 282.52 L 639.42 282.40 L 639.87 282.34 L 648.96 282.30 L 649.42 282.26 L 649.64 282.26 L 649.74 282.26 L 649.77 282.26 L 650.00 282.24"/>
	</g>
	<g class="poloto_legend poloto_imgs poloto_line poloto0 poloto_stroke"><line x1="680" x2="730" y1="81.25" y2="81.25"/></g>
	<g class="poloto_legend poloto_imgs poloto_line poloto1 poloto_stroke"><line x1="680" x2="730" y1="131.25" y2="131.25"/></g>
	<g class="poloto_legend poloto_imgs poloto_line poloto2 poloto_stroke"><line x1="680" x2="730" y1="181.25" y2="181.25"/></g>
	<text class="poloto_legend poloto_text poloto_line poloto0" x="675" y="100">total</text>
	<text class="poloto_legend poloto_text poloto_line poloto1" x="675" y="150">code</text>
	<text class="poloto_legend poloto_text poloto_line poloto2" x="675" y="200">docs</text>
	<text class="poloto_text poloto_name poloto_title" x="400.00" y="37.50">Workspace lines over time</text>
	<text class="poloto_text poloto_name poloto_x" x="400.00" y="640">date (JST)</text>
	<text class="poloto_text poloto_name poloto_y" x="37.50" y="250.00" transform="rotate(-90,37.50,250.00)">lines</text>
	<text class="poloto_text poloto_ticks poloto_y">
		<tspan x="135.00" y="400.00">0</tspan>
		<tspan x="135.00" y="321.46">50K</tspan>
		<tspan x="135.00" y="242.93">100K</tspan>
		<tspan x="135.00" y="164.39">150K</tspan>
	</text>
	<g class="poloto_imgs poloto_ticks poloto_y" stroke="black">
		<line x1="150.00" x2="144.00" y1="400.00" y2="400.00"/>
		<line x1="150.00" x2="144.00" y1="321.46" y2="321.46"/>
		<line x1="150.00" x2="144.00" y1="242.93" y2="242.93"/>
		<line x1="150.00" x2="144.00" y1="164.39" y2="164.39"/>
	</g>
	<g class="poloto_text poloto_ticks poloto_x">
		<text x="225.97" y="430.00" text-anchor="end" transform="rotate(-90 225.97 430.00)">2026-04-24 12:06</text>
		<text x="342.92" y="430.00" text-anchor="end" transform="rotate(-90 342.92 430.00)">2026-04-30 07:00</text>
		<text x="459.87" y="430.00" text-anchor="end" transform="rotate(-90 459.87 430.00)">2026-05-06 01:53</text>
		<text x="576.82" y="430.00" text-anchor="end" transform="rotate(-90 576.82 430.00)">2026-05-11 20:46</text>
	</g>
	<g class="poloto_imgs poloto_ticks poloto_x" stroke="black">
		<line x1="225.97" x2="225.97" y1="400.00" y2="405.00"/>
		<line x1="342.92" x2="342.92" y1="400.00" y2="405.00"/>
		<line x1="459.87" x2="459.87" y1="400.00" y2="405.00"/>
		<line x1="576.82" x2="576.82" y1="400.00" y2="405.00"/>
	</g>
	<path class="poloto_imgs poloto_ticks poloto_x" stroke="black" style="stroke-dasharray:11.694719179386233;stroke-dashoffset:-75.97427536011674;" d=" M 150.00 400.00 L 650.00 400.00"/>
	<path class="poloto_imgs poloto_ticks poloto_y" stroke="black" style="stroke-dasharray:7.853690972967596;stroke-dashoffset:-0;" d=" M 150.00 400.00 L 150.00 100.00"/>
</svg>

