<svg class="poloto" width="800" height="680" viewBox="0 0 800 680" xmlns="http://www.w3.org/2000/svg">
	<style>
.poloto{
  stroke-linecap:round;
  stroke-linejoin:round;
  font-family:Roboto,sans-serif;
  font-size:16px;
}
.poloto_background{fill:AliceBlue;}
.poloto_scatter{stroke-width:7}
.poloto_line{stroke-width:2}
.poloto_text{fill: black;}
.poloto_name{font-size:24px;dominant-baseline:auto;text-anchor:middle;}
.poloto_where{dominant-baseline:middle;text-anchor:start}
.poloto_text.poloto_legend{font-size:20px;dominant-baseline:middle;text-anchor:start;}
.poloto_text.poloto_ticks.poloto_y{dominant-baseline:middle;text-anchor:end}
.poloto_text.poloto_ticks.poloto_x{dominant-baseline:auto;text-anchor:middle}
.poloto_imgs.poloto_ticks{stroke: black;stroke-width:3;fill:none;stroke-dasharray:none}
.poloto_grid{stroke:gray;stroke-width:0.5}

.poloto0.poloto_stroke{stroke:blue;}
.poloto1.poloto_stroke{stroke:red;}
.poloto2.poloto_stroke{stroke:green;}
.poloto3.poloto_stroke{stroke:gold;}
.poloto4.poloto_stroke{stroke:aqua;}
.poloto5.poloto_stroke{stroke:lime;}
.poloto6.poloto_stroke{stroke:orange;}
.poloto7.poloto_stroke{stroke:chocolate;}
.poloto0.poloto_fill{fill:blue;}
.poloto1.poloto_fill{fill:red;}
.poloto2.poloto_fill{fill:green;}
.poloto3.poloto_fill{fill:gold;}
.poloto4.poloto_fill{fill:aqua;}
.poloto5.poloto_fill{fill:lime;}
.poloto6.poloto_fill{fill:orange;}
.poloto7.poloto_fill{fill:chocolate;}
	</style>
	<circle r="1e5" class="poloto_background" fill="white"/>
	<g id="poloto_plot0" class="poloto_plot poloto_imgs poloto_line poloto0 poloto_stroke" fill="none" stroke="black">
		<path d=" M 150.00 369.25 L 150.03 369.22 L 150.04 369.21 L 150.05 369.21 L 150.08 369.21 L 150.11 365.87 L 150.23 365.47 L 150.52 365.45 L 150.93 365.17 L 151.15 363.48 L 151.57 363.37 L 151.65 363.29 L 151.70 363.25 L 152.20 362.42 L 153.13 361.75 L 153.42 359.13 L 153.50 359.13 L 154.06 359.03 L 154.71 359.02 L 154.71 359.02 L 154.72 359.02 L 163.46 359.02 L 163.52 359.01 L 163.63 358.99 L 163.68 358.96 L 164.01 358.81 L 164.16 358.77 L 164.53 358.52 L 164.58 358.42 L 164.69 358.18 L 164.80 358.15 L 164.83 358.14 L 164.92 358.08 L 165.02 358.08 L 165.11 358.08 L 165.36 357.70 L 165.57 357.46 L 165.61 357.46 L 165.71 357.31 L 166.41 357.91 L 166.42 357.91 L 166.51 357.81 L 166.91 357.37 L 167.23 356.83 L 167.58 356.59 L 167.66 356.55 L 167.67 356.55 L 167.74 356.35 L 167.87 356.35 L 168.05 356.27 L 168.39 356.07 L 168.41 355.76 L 168.47 355.76 L 168.56 355.59 L 168.75 355.59 L 168.77 355.59 L 168.98 355.15 L 169.06 355.12 L 169.13 355.09 L 169.21 354.91 L 170.28 354.66 L 170.53 354.62 L 171.13 354.30 L 171.25 354.30 L 171.35 354.29 L 171.40 354.06 L 171.80 352.73 L 171.99 352.71 L 172.20 352.27 L 172.30 352.22 L 172.55 351.85 L 172.65 351.72 L 172.80 351.49 L 172.93 351.28 L 173.40 348.22 L 173.42 348.15 L 173.44 347.97 L 173.60 346.50 L 181.71 346.39 L 182.54 344.72 L 182.57 344.68 L 183.57 344.42 L 183.65 344.41 L 183.74 344.08 L 183.98 343.92 L 184.09 343.63 L 184.13 343.38 L 184.26 342.94 L 184.55 342.93 L 184.56 342.64 L 184.67 342.31 L 184.78 342.31 L 184.90 341.94 L 185.06 341.67 L 185.13 341.54 L 185.15 341.54 L 185.29 341.25 L 185.31 341.24 L 185.46 340.96 L 185.49 340.95 L 185.72 339.57 L 185.76 339.57 L 185.84 339.34 L 185.94 339.33 L 186.07 339.33 L 186.13 339.30 L 186.58 339.04 L 186.60 339.05 L 186.68 338.44 L 186.88 338.42 L 187.07 337.50 L 187.12 337.42 L 187.21 337.42 L 187.25 337.38 L 187.35 336.67 L 187.86 330.68 L 187.92 330.39 L 188.09 330.36 L 188.14 330.29 L 188.18 330.27 L 188.27 330.11 L 188.35 329.43 L 188.53 329.29 L 188.65 329.28 L 188.75 328.98 L 188.81 328.97 L 189.27 328.75 L 189.52 328.58 L 189.59 328.31 L 189.81 328.30 L 189.83 328.30 L 189.85 328.27 L 189.98 326.83 L 190.09 326.75 L 190.46 325.30 L 190.53 324.87 L 190.60 324.86 L 190.70 324.71 L 190.71 324.60 L 190.75 324.53 L 190.79 324.49 L 190.84 324.48 L 190.89 324.41 L 191.04 323.22 L 191.15 323.05 L 191.25 322.70 L 191.40 322.67 L 191.56 322.56 L 191.73 321.72 L 191.84 320.56 L 192.08 320.49 L 192.08 320.06 L 192.22 319.91 L 203.54 319.92 L 203.75 319.90 L 204.29 319.29 L 204.40 319.27 L 204.49 319.27 L 204.50 319.12 L 204.70 318.93 L 204.83 318.90 L 204.91 318.78 L 204.99 318.70 L 205.03 318.66 L 205.24 318.60 L 205.64 318.53 L 205.75 318.21 L 205.82 318.13 L 205.92 318.12 L 206.45 317.96 L 206.52 317.87 L 206.56 317.87 L 206.59 317.75 L 206.70 317.70 L 206.79 317.58 L 207.17 316.80 L 207.72 316.68 L 207.92 316.63 L 208.52 316.43 L 208.81 312.66 L 208.91 312.58 L 209.03 312.21 L 209.21 311.72 L 209.49 311.58 L 209.87 311.57 L 210.38 311.56 L 210.46 311.39 L 210.84 311.22 L 211.08 310.94 L 211.15 310.83 L 211.30 310.79 L 211.41 310.45 L 212.75 310.09 L 214.03 310.09 L 225.42 310.05 L 225.50 309.89 L 225.56 309.78 L 225.91 309.62 L 226.98 308.32 L 227.02 308.24 L 227.17 307.90 L 227.69 307.82 L 227.94 306.94 L 228.32 306.93 L 228.41 306.92 L 228.49 306.32 L 229.15 302.89 L 229.23 302.89 L 229.37 302.86 L 229.51 302.81 L 229.58 302.44 L 229.95 301.15 L 230.08 300.91 L 230.14 300.89 L 230.23 300.30 L 230.39 299.46 L 230.46 298.57 L 230.62 298.17 L 231.12 293.72 L 231.16 293.27 L 231.21 293.27 L 231.29 293.19 L 231.41 293.07 L 231.46 293.03 L 231.51 292.98 L 231.74 291.92 L 231.80 291.16 L 232.09 291.01 L 232.26 289.89 L 232.37 289.19 L 233.25 278.81 L 233.35 278.78 L 266.83 278.28 L 266.86 278.28 L 279.65 278.14 L 280.35 277.86 L 280.49 277.86 L 280.68 277.78 L 280.74 277.65 L 280.82 277.61 L 286.36 277.54 L 287.10 275.56 L 287.37 275.38 L 287.51 274.66 L 290.97 274.51 L 290.99 274.31 L 291.21 274.30 L 292.24 273.05 L 292.30 272.82 L 292.43 272.75 L 292.79 272.66 L 292.84 272.63 L 292.98 272.25 L 293.14 272.15 L 293.16 271.87 L 303.92 271.49 L 304.00 270.43 L 304.42 270.19 L 304.43 268.41 L 304.51 268.15 L 304.60 267.71 L 304.71 266.49 L 304.90 265.83 L 305.05 265.07 L 305.19 265.07 L 305.24 264.48 L 305.46 264.43 L 306.21 261.57 L 306.51 261.26 L 306.56 261.08 L 306.62 261.07 L 306.66 260.87 L 306.76 260.17 L 307.06 259.83 L 307.11 259.79 L 307.29 257.26 L 307.36 257.26 L 307.39 256.99 L 307.46 256.78 L 307.51 256.77 L 307.55 256.40 L 307.79 255.03 L 307.89 254.64 L 308.02 254.60 L 308.11 250.95 L 308.15 250.65 L 308.38 248.57 L 308.45 248.41 L 308.49 248.40 L 308.55 248.40 L 308.59 248.10 L 308.62 248.11 L 308.64 248.11 L 308.76 244.42 L 308.80 244.10 L 308.91 244.08 L 309.00 244.02 L 309.24 243.91 L 309.54 243.77 L 309.55 243.77 L 309.63 243.73 L 309.90 243.66 L 310.03 243.66 L 310.16 243.66 L 310.30 242.05 L 310.40 241.67 L 310.78 241.66 L 310.81 241.41 L 310.86 241.41 L 310.89 241.13 L 311.14 238.81 L 311.18 238.75 L 311.36 238.74 L 327.90 238.67 L 328.85 238.55 L 328.87 238.55 L 329.06 238.55 L 329.08 238.55 L 329.20 238.09 L 329.29 238.07 L 329.37 237.85 L 329.48 237.79 L 329.52 237.76 L 329.56 237.74 L 329.74 237.48 L 330.10 237.25 L 330.32 236.50 L 330.58 235.79 L 330.59 235.75 L 330.63 235.09 L 330.66 235.06 L 331.15 234.67 L 331.16 234.62 L 331.24 234.10 L 331.45 234.04 L 331.59 233.99 L 331.61 233.05 L 331.62 233.00 L 331.68 233.90 L 331.72 233.35 L 331.74 233.32 L 331.86 232.07 L 331.87 232.03 L 332.13 231.93 L 332.84 231.91 L 333.00 231.87 L 333.06 231.85 L 333.09 231.69 L 333.13 231.69 L 333.23 231.07 L 344.54 229.87 L 344.56 229.70 L 344.65 229.59 L 344.68 229.35 L 344.74 218.85 L 344.87 214.55 L 344.88 214.52 L 345.09 214.44 L 345.14 214.44 L 345.18 213.94 L 345.36 213.89 L 345.85 212.88 L 345.86 212.86 L 345.98 212.54 L 346.03 212.55 L 346.06 212.04 L 346.47 211.45 L 346.48 211.42 L 347.10 211.19 L 347.17 210.66 L 347.39 210.66 L 347.65 209.31 L 347.71 208.77 L 347.75 208.34 L 347.87 207.82 L 348.19 207.63 L 348.25 207.50 L 348.39 207.38 L 348.54 207.38 L 349.02 207.39 L 349.07 207.39 L 349.18 207.36 L 349.19 207.36 L 349.34 207.37 L 349.70 207.35 L 350.07 207.15 L 350.13 207.15 L 350.21 207.07 L 350.32 206.93 L 350.60 206.93 L 351.08 206.74 L 351.23 206.32 L 351.49 202.70 L 352.53 205.76 L 352.76 205.74 L 352.93 205.73 L 353.19 205.72 L 353.27 205.67 L 353.53 205.49 L 353.94 205.24 L 353.99 205.08 L 354.07 205.01 L 354.12 205.02 L 354.16 204.97 L 354.48 204.75 L 361.97 204.74 L 362.04 204.75 L 362.51 204.73 L 362.55 204.72 L 362.66 204.26 L 362.74 204.00 L 362.76 203.99 L 363.01 203.96 L 363.08 203.93 L 364.61 203.25 L 364.79 203.19 L 364.93 203.18 L 364.95 203.18 L 365.43 203.01 L 365.59 203.09 L 365.62 203.09 L 365.88 203.04 L 366.16 201.61 L 366.19 201.60 L 366.42 201.44 L 366.52 201.44 L 366.61 201.44 L 366.80 201.28 L 367.22 200.70 L 367.30 200.68 L 367.37 200.52 L 367.54 199.84 L 367.96 199.13 L 368.32 195.80 L 368.40 195.39 L 368.77 195.23 L 368.84 195.14 L 368.90 194.98 L 368.94 194.45 L 369.07 193.49 L 369.10 193.53 L 369.16 193.51 L 369.37 193.50 L 369.70 193.15 L 369.90 193.09 L 370.13 193.07 L 370.24 193.06 L 370.47 193.05 L 370.84 193.05 L 371.22 193.04 L 371.51 193.04 L 371.57 193.02 L 371.65 193.02 L 371.65 192.90 L 371.87 192.83 L 371.94 192.82 L 372.03 192.67 L 372.64 192.65 L 372.65 192.36 L 372.82 192.35 L 373.54 192.36 L 374.01 192.18 L 374.36 191.97 L 374.37 191.85 L 374.40 191.85 L 384.89 191.65 L 384.93 191.64 L 385.05 191.63 L 385.11 191.47 L 385.14 191.45 L 385.15 191.44 L 385.60 191.39 L 385.70 190.79 L 385.83 190.66 L 386.06 189.47 L 386.20 189.45 L 386.38 188.95 L 386.48 189.01 L 386.53 189.01 L 386.58 188.43 L 386.71 188.04 L 386.73 187.62 L 386.78 187.56 L 386.89 187.52 L 386.96 187.33 L 387.06 189.60 L 387.18 189.55 L 387.44 188.65 L 387.55 188.43 L 387.66 188.24 L 388.30 186.94 L 388.85 186.31 L 389.52 185.10 L 389.68 185.05 L 389.87 185.05 L 390.08 184.99 L 393.94 184.65 L 394.26 184.62 L 430.82 183.71 L 545.97 183.49 L 546.35 183.12 L 546.61 183.07 L 546.88 183.07 L 547.28 182.37 L 547.41 182.03 L 547.52 181.39 L 547.70 179.57 L 547.97 179.94 L 548.18 179.54 L 548.23 179.54 L 548.41 179.42 L 548.45 179.42 L 548.64 178.75 L 548.81 177.68 L 549.33 176.54 L 549.35 176.44 L 549.50 175.09 L 549.99 171.72 L 550.01 171.61 L 550.10 171.54 L 550.22 170.33 L 550.76 168.72 L 550.77 168.57 L 550.89 168.49 L 551.01 167.69 L 551.21 167.06 L 551.22 166.95 L 551.31 165.71 L 551.33 165.68 L 551.37 165.34 L 551.60 163.15 L 551.63 163.03 L 551.71 162.90 L 551.95 162.61 L 552.00 162.60 L 552.19 162.18 L 552.51 162.23 L 552.56 162.17 L 552.60 162.14 L 552.66 162.11 L 552.82 160.83 L 552.99 159.78 L 553.01 159.69 L 553.11 158.37 L 553.21 157.10 L 553.23 156.94 L 553.33 155.44 L 553.38 154.26 L 553.58 153.46 L 553.60 153.41 L 553.70 153.16 L 553.84 153.14 L 554.67 153.10 L 555.08 153.07 L 564.07 153.12 L 564.17 152.89 L 564.25 152.69 L 564.41 151.81 L 564.74 151.58 L 564.77 151.50 L 564.83 150.33 L 565.05 149.20 L 565.07 149.10 L 567.04 149.03 L 567.15 148.39 L 568.15 148.20 L 568.26 148.16 L 568.37 146.84 L 569.56 145.61 L 570.07 145.14 L 570.20 144.18 L 570.63 142.53 L 570.89 142.05 L 571.34 141.08 L 572.13 140.59 L 584.16 140.58 L 584.88 140.47 L 584.92 140.49 L 585.92 140.29 L 585.98 140.20 L 586.33 140.12 L 586.74 139.05 L 586.74 139.05 L 586.78 139.00 L 587.32 137.78 L 588.56 137.07 L 588.64 137.01 L 588.76 137.00 L 588.95 136.68 L 589.00 136.59 L 589.08 136.53 L 589.65 136.48 L 590.11 136.48 L 590.36 136.48 L 590.40 136.44 L 590.91 135.36 L 591.31 135.16 L 591.32 135.08 L 591.37 134.99 L 591.43 134.70 L 604.49 134.29 L 604.52 134.27 L 604.55 134.25 L 604.81 134.13 L 605.01 134.00 L 606.16 132.35 L 606.44 132.15 L 607.27 131.65 L 607.99 131.54 L 608.51 131.37 L 608.66 129.85 L 609.32 128.06 L 609.57 127.94 L 609.65 126.79 L 611.59 124.67 L 611.60 124.67 L 611.71 124.15 L 612.08 124.09 L 612.08 124.09 L 612.10 123.96 L 612.17 123.80 L 612.34 123.63 L 612.55 122.74 L 614.55 120.60 L 614.81 120.34 L 614.99 119.96 L 615.02 119.91 L 615.06 119.61 L 623.96 118.64 L 624.24 117.91 L 624.41 117.87 L 624.48 117.39 L 625.32 117.16 L 625.49 116.67 L 625.65 116.67 L 625.74 115.64 L 626.02 113.03 L 626.07 112.99 L 626.44 112.95 L 626.53 112.09 L 626.85 111.07 L 626.92 110.36 L 627.18 109.71 L 627.37 109.36 L 627.53 108.58 L 627.86 107.92 L 627.90 107.17 L 628.33 107.00 L 628.36 107.00 L 628.43 106.05 L 628.52 106.05 L 628.57 105.98 L 629.06 104.21 L 629.78 103.62 L 630.14 103.81 L 631.32 103.73 L 631.35 103.72 L 631.53 103.70 L 631.61 103.68 L 631.74 103.56 L 631.89 103.46 L 632.04 103.26 L 632.40 103.01 L 632.73 102.99 L 633.79 102.81 L 633.84 102.80 L 634.89 102.64 L 635.34 102.53 L 644.34 102.51 L 644.79 102.38 L 645.02 102.29 L 645.12 102.29 L 645.15 102.29 L 645.37 102.27 L 645.48 102.21 L 645.74 102.04 L 645.91 102.01 L 646.49 101.83 L 646.80 101.43 L 647.30 101.37 L 647.44 101.11 L 647.61 100.95 L 647.84 100.75 L 648.61 100.80 L 648.69 100.79 L 649.82 100.29 L 650.00 100.00"/>
	</g>
	<g id="poloto_plot1" class="poloto_plot poloto_imgs poloto_line poloto1 poloto_stroke" fill="none" stroke="black">
		<path d=" M 150.00 381.73 L 150.03 381.71 L 150.04 381.70 L 150.05 381.70 L 150.08 381.70 L 150.11 381.12 L 150.23 381.10 L 150.52 381.09 L 150.93 380.87 L 151.15 380.78 L 151.57 380.80 L 151.65 380.76 L 151.70 380.76 L 152.20 380.71 L 153.13 380.61 L 153.42 378.35 L 153.50 378.35 L 154.06 378.29 L 154.71 378.28 L 154.71 378.28 L 154.72 378.28 L 163.46 378.28 L 163.52 378.28 L 163.63 378.28 L 163.68 378.25 L 164.01 378.24 L 164.16 378.24 L 164.53 378.24 L 164.58 378.24 L 164.69 378.22 L 164.80 378.22 L 164.83 378.22 L 164.92 378.19 L 165.02 378.19 L 165.11 378.19 L 165.36 378.07 L 165.57 378.07 L 165.61 378.07 L 165.71 378.07 L 166.41 378.92 L 166.42 378.92 L 166.51 378.91 L 166.91 378.78 L 167.23 378.64 L 167.58 378.57 L 167.66 378.53 L 167.67 378.53 L 167.74 378.53 L 167.87 378.53 L 168.05 378.48 L 168.39 378.43 L 168.41 378.43 L 168.47 378.43 L 168.56 378.41 L 168.75 378.41 L 168.77 378.41 L 168.98 378.40 L 169.06 378.40 L 169.13 378.40 L 169.21 378.40 L 170.28 378.30 L 170.53 378.29 L 171.13 378.24 L 171.25 378.24 L 171.35 378.24 L 171.40 378.24 L 171.80 378.18 L 171.99 378.18 L 172.20 378.09 L 172.30 378.08 L 172.55 377.90 L 172.65 377.83 L 172.80 377.83 L 172.93 377.83 L 173.40 375.19 L 173.42 375.15 L 173.44 375.15 L 173.60 374.89 L 181.71 374.89 L 182.54 373.75 L 182.57 373.75 L 183.57 373.75 L 183.65 373.75 L 183.74 373.63 L 183.98 373.61 L 184.09 373.61 L 184.13 373.61 L 184.26 373.61 L 184.55 373.61 L 184.56 373.36 L 184.67 373.36 L 184.78 373.36 L 184.90 373.33 L 185.06 373.32 L 185.13 373.32 L 185.15 373.32 L 185.29 373.32 L 185.31 373.32 L 185.46 373.32 L 185.49 373.32 L 185.72 372.20 L 185.76 372.20 L 185.84 372.07 L 185.94 372.07 L 186.07 372.07 L 186.13 372.06 L 186.58 372.05 L 186.60 372.05 L 186.68 371.98 L 186.88 371.98 L 187.07 371.34 L 187.12 371.26 L 187.21 371.26 L 187.25 371.26 L 187.35 371.24 L 187.86 366.53 L 187.92 366.57 L 188.09 366.57 L 188.14 366.57 L 188.18 366.56 L 188.27 366.56 L 188.35 366.49 L 188.53 366.49 L 188.65 366.49 L 188.75 366.49 L 188.81 366.49 L 189.27 366.48 L 189.52 366.47 L 189.59 366.36 L 189.81 366.36 L 189.83 366.36 L 189.85 366.36 L 189.98 366.04 L 190.09 365.96 L 190.46 364.84 L 190.53 364.84 L 190.60 364.84 L 190.70 364.85 L 190.71 364.85 L 190.75 364.85 L 190.79 364.85 L 190.84 364.85 L 190.89 364.85 L 191.04 364.83 L 191.15 364.83 L 191.25 364.82 L 191.40 364.82 L 191.56 364.81 L 191.73 364.39 L 191.84 364.25 L 192.08 364.25 L 192.08 364.25 L 192.22 364.25 L 203.54 364.25 L 203.75 364.24 L 204.29 364.17 L 204.40 364.16 L 204.49 364.16 L 204.50 364.16 L 204.70 364.16 L 204.83 364.16 L 204.91 364.16 L 204.99 364.16 L 205.03 364.15 L 205.24 364.15 L 205.64 364.17 L 205.75 364.17 L 205.82 364.17 L 205.92 364.17 L 206.45 364.08 L 206.52 364.04 L 206.56 364.04 L 206.59 363.98 L 206.70 363.98 L 206.79 363.97 L 207.17 363.55 L 207.72 363.55 L 207.92 363.55 L 208.52 363.55 L 208.81 360.66 L 208.91 360.65 L 209.03 360.65 L 209.21 360.65 L 209.49 360.65 L 209.87 360.65 L 210.38 360.65 L 210.46 360.65 L 210.84 360.58 L 211.08 360.46 L 211.15 360.46 L 211.30 360.46 L 211.41 360.44 L 212.75 360.26 L 214.03 360.26 L 225.42 360.26 L 225.50 360.26 L 225.56 360.26 L 225.91 360.26 L 226.98 359.35 L 227.02 359.32 L 227.17 359.23 L 227.69 359.22 L 227.94 359.00 L 228.32 359.00 L 228.41 359.00 L 228.49 359.00 L 229.15 356.47 L 229.23 356.47 L 229.37 356.47 L 229.51 356.47 L 229.58 356.31 L 229.95 356.00 L 230.08 356.00 L 230.14 356.00 L 230.23 355.53 L 230.39 355.07 L 230.46 355.07 L 230.62 355.06 L 231.12 351.28 L 231.16 351.28 L 231.21 351.28 L 231.29 351.28 L 231.41 351.28 L 231.46 351.28 L 231.51 351.28 L 231.74 351.28 L 231.80 351.20 L 232.09 351.18 L 232.26 351.13 L 232.37 350.68 L 233.25 343.16 L 233.35 343.16 L 266.83 343.16 L 266.86 343.16 L 279.65 343.16 L 280.35 343.04 L 280.49 343.04 L 280.68 343.04 L 280.74 343.04 L 280.82 343.04 L 286.36 342.99 L 287.10 342.91 L 287.37 342.91 L 287.51 342.89 L 290.97 342.83 L 290.99 342.73 L 291.21 342.73 L 292.24 341.71 L 292.30 341.71 L 292.43 341.71 L 292.79 341.71 L 292.84 341.71 L 292.98 341.71 L 293.14 341.71 L 293.16 341.71 L 303.92 341.69 L 304.00 341.51 L 304.42 341.51 L 304.43 340.28 L 304.51 340.28 L 304.60 340.28 L 304.71 340.17 L 304.90 340.17 L 305.05 340.12 L 305.19 340.12 L 305.24 340.12 L 305.46 340.10 L 306.21 338.02 L 306.51 338.01 L 306.56 338.00 L 306.62 338.00 L 306.66 338.00 L 306.76 337.97 L 307.06 337.71 L 307.11 337.67 L 307.29 335.80 L 307.36 335.79 L 307.39 335.79 L 307.46 335.76 L 307.51 335.76 L 307.55 335.76 L 307.79 334.74 L 307.89 334.73 L 308.02 334.70 L 308.11 331.53 L 308.15 331.53 L 308.38 329.75 L 308.45 329.75 L 308.49 329.74 L 308.55 329.74 L 308.59 329.74 L 308.62 329.74 L 308.64 329.74 L 308.76 326.44 L 308.80 326.44 L 308.91 326.43 L 309.00 326.43 L 309.24 326.36 L 309.54 326.27 L 309.55 326.27 L 309.63 326.25 L 309.90 326.20 L 310.03 326.20 L 310.16 326.20 L 310.30 324.77 L 310.40 324.77 L 310.78 324.77 L 310.81 324.76 L 310.86 324.76 L 310.89 324.76 L 311.14 322.73 L 311.18 322.73 L 311.36 322.72 L 327.90 322.72 L 328.85 322.70 L 328.87 322.70 L 329.06 322.70 L 329.08 322.70 L 329.20 322.70 L 329.29 322.70 L 329.37 322.60 L 329.48 322.60 L 329.52 322.60 L 329.56 322.60 L 329.74 322.42 L 330.10 322.30 L 330.32 322.18 L 330.58 321.61 L 330.59 321.61 L 330.63 321.46 L 330.66 321.44 L 331.15 321.09 L 331.16 321.09 L 331.24 321.04 L 331.45 321.04 L 331.59 321.01 L 331.61 320.16 L 331.62 320.16 L 331.68 321.00 L 331.72 320.95 L 331.74 320.94 L 331.86 319.81 L 331.87 319.81 L 332.13 319.76 L 332.84 319.76 L 333.00 319.76 L 333.06 319.76 L 333.09 319.76 L 333.13 319.76 L 333.23 319.69 L 344.54 318.75 L 344.56 318.75 L 344.65 318.74 L 344.68 318.54 L 344.74 308.50 L 344.87 304.77 L 344.88 304.77 L 345.09 304.70 L 345.14 304.70 L 345.18 304.69 L 345.36 304.69 L 345.85 303.78 L 345.86 303.78 L 345.98 303.73 L 346.03 303.73 L 346.06 303.65 L 346.47 303.10 L 346.48 303.10 L 347.10 302.99 L 347.17 302.96 L 347.39 302.96 L 347.65 301.73 L 347.71 301.61 L 347.75 301.49 L 347.87 301.03 L 348.19 300.92 L 348.25 300.82 L 348.39 300.82 L 348.54 300.82 L 349.02 300.82 L 349.07 300.82 L 349.18 300.82 L 349.19 300.82 L 349.34 300.83 L 349.70 300.83 L 350.07 300.70 L 350.13 300.70 L 350.21 300.69 L 350.32 300.69 L 350.60 300.69 L 351.08 300.69 L 351.23 300.58 L 351.49 297.34 L 352.53 300.40 L 352.76 300.38 L 352.93 300.37 L 353.19 300.37 L 353.27 300.34 L 353.53 300.32 L 353.94 300.13 L 353.99 300.13 L 354.07 300.13 L 354.12 300.13 L 354.16 300.13 L 354.48 299.95 L 361.97 299.95 L 362.04 299.96 L 362.51 299.94 L 362.55 299.94 L 362.66 299.91 L 362.74 299.69 L 362.76 299.68 L 363.01 299.66 L 363.08 299.66 L 364.61 299.48 L 364.79 299.48 L 364.93 299.48 L 364.95 299.48 L 365.43 299.34 L 365.59 299.34 L 365.62 299.34 L 365.88 299.34 L 366.16 298.57 L 366.19 298.57 L 366.42 298.44 L 366.52 298.44 L 366.61 298.44 L 366.80 298.44 L 367.22 298.43 L 367.30 298.41 L 367.37 298.34 L 367.54 298.21 L 367.96 298.09 L 368.32 295.04 L 368.40 294.93 L 368.77 294.79 L 368.84 294.75 L 368.90 294.64 L 368.94 294.43 L 369.07 293.51 L 369.10 293.55 L 369.16 293.53 L 369.37 293.53 L 369.70 293.41 L 369.90 293.36 L 370.13 293.34 L 370.24 293.33 L 370.47 293.32 L 370.84 293.32 L 371.22 293.31 L 371.51 293.31 L 371.57 293.30 L 371.65 293.30 L 371.65 293.30 L 371.87 293.30 L 371.94 293.29 L 372.03 293.17 L 372.64 293.16 L 372.65 293.16 L 372.82 293.15 L 373.54 293.14 L 374.01 292.99 L 374.36 292.86 L 374.37 292.86 L 374.40 292.86 L 384.89 292.86 L 384.93 292.86 L 385.05 292.86 L 385.11 292.86 L 385.14 292.84 L 385.15 292.84 L 385.60 292.84 L 385.70 292.83 L 385.83 292.81 L 386.06 292.79 L 386.20 292.79 L 386.38 292.72 L 386.48 292.72 L 386.53 292.72 L 386.58 292.72 L 386.71 292.44 L 386.73 292.44 L 386.78 292.44 L 386.89 292.44 L 386.96 292.44 L 387.06 292.50 L 387.18 292.50 L 387.44 292.49 L 387.55 292.49 L 387.66 292.49 L 388.30 291.60 L 388.85 291.35 L 389.52 290.71 L 389.68 290.71 L 389.87 290.71 L 390.08 290.71 L 393.94 290.63 L 394.26 290.63 L 430.82 290.52 L 545.97 290.35 L 546.35 290.30 L 546.61 290.29 L 546.88 290.29 L 547.28 289.87 L 547.41 289.87 L 547.52 289.87 L 547.70 288.37 L 547.97 288.66 L 548.18 288.64 L 548.23 288.64 L 548.41 288.62 L 548.45 288.62 L 548.64 288.62 L 548.81 288.55 L 549.33 287.60 L 549.35 287.60 L 549.50 287.51 L 549.99 284.44 L 550.01 284.44 L 550.10 284.43 L 550.22 284.38 L 550.76 282.95 L 550.77 282.95 L 550.89 282.95 L 551.01 282.92 L 551.21 282.39 L 551.22 282.39 L 551.31 282.39 L 551.33 282.39 L 551.37 282.10 L 551.60 280.06 L 551.63 280.06 L 551.71 280.06 L 551.95 279.89 L 552.00 279.89 L 552.19 279.55 L 552.51 279.55 L 552.56 279.55 L 552.60 279.55 L 552.66 279.55 L 552.82 279.54 L 552.99 278.62 L 553.01 278.62 L 553.11 278.62 L 553.21 277.92 L 553.23 277.92 L 553.33 277.19 L 553.38 277.14 L 553.58 276.41 L 553.60 276.41 L 553.70 276.41 L 553.84 276.40 L 554.67 276.40 L 555.08 276.39 L 564.07 276.39 L 564.17 276.39 L 564.25 276.39 L 564.41 276.39 L 564.74 276.20 L 564.77 276.20 L 564.83 276.14 L 565.05 275.12 L 565.07 275.12 L 567.04 275.14 L 567.15 274.94 L 568.15 274.94 L 568.26 274.94 L 568.37 274.86 L 569.56 274.02 L 570.07 273.86 L 570.20 273.81 L 570.63 272.22 L 570.89 272.22 L 571.34 272.09 L 572.13 272.09 L 584.16 272.08 L 584.88 271.98 L 584.92 272.01 L 585.92 272.01 L 585.98 272.01 L 586.33 272.01 L 586.74 271.97 L 586.74 271.97 L 586.78 271.97 L 587.32 271.04 L 588.56 271.02 L 588.64 271.02 L 588.76 271.01 L 588.95 270.98 L 589.00 270.95 L 589.08 270.95 L 589.65 270.90 L 590.11 270.90 L 590.36 270.90 L 590.40 270.90 L 590.91 270.88 L 591.31 270.78 L 591.32 270.78 L 591.37 270.78 L 591.43 270.78 L 604.49 270.56 L 604.52 270.56 L 604.55 270.56 L 604.81 270.56 L 605.01 270.56 L 606.16 269.64 L 606.44 269.58 L 607.27 269.51 L 607.99 269.47 L 608.51 269.47 L 608.66 269.47 L 609.32 268.08 L 609.57 268.04 L 609.65 267.99 L 611.59 267.02 L 611.60 267.02 L 611.71 267.01 L 612.08 266.99 L 612.08 266.99 L 612.10 266.99 L 612.17 266.96 L 612.34 266.92 L 612.55 266.82 L 614.55 265.21 L 614.81 265.13 L 614.99 265.13 L 615.02 265.13 L 615.06 265.13 L 623.96 265.13 L 624.24 265.12 L 624.41 265.12 L 624.48 265.12 L 625.32 265.12 L 625.49 265.12 L 625.65 265.12 L 625.74 265.08 L 626.02 262.97 L 626.07 262.96 L 626.44 262.97 L 626.53 262.95 L 626.85 262.14 L 626.92 262.09 L 627.18 261.56 L 627.37 261.56 L 627.53 261.51 L 627.86 261.02 L 627.90 261.02 L 628.33 259.45 L 628.36 259.45 L 628.43 259.44 L 628.52 259.44 L 628.57 259.44 L 629.06 257.87 L 629.78 257.73 L 630.14 257.73 L 631.32 257.69 L 631.35 257.69 L 631.53 257.69 L 631.61 257.69 L 631.74 257.69 L 631.89 257.69 L 632.04 257.67 L 632.40 257.65 L 632.73 257.65 L 633.79 257.58 L 633.84 257.58 L 634.89 257.54 L 635.34 257.50 L 644.34 257.51 L 644.79 257.43 L 645.02 257.35 L 645.12 257.35 L 645.15 257.35 L 645.37 257.34 L 645.48 257.34 L 645.74 257.34 L 645.91 257.34 L 646.49 257.19 L 646.80 256.91 L 647.30 256.89 L 647.44 256.70 L 647.61 256.62 L 647.84 256.53 L 648.61 256.62 L 648.69 256.62 L 649.82 256.32 L 650.00 256.32"/>
	</g>
	<g id="poloto_plot2" class="poloto_plot poloto_imgs poloto_line poloto2 poloto_stroke" fill="none" stroke="black">
		<path d=" M 150.00 391.80 L 150.03 391.80 L 150.04 391.80 L 150.05 391.80 L 150.08 391.80 L 150.11 389.70 L 150.23 389.41 L 150.52 389.40 L 150.93 389.39 L 151.15 388.14 L 151.57 388.02 L 151.65 387.99 L 151.70 387.96 L 152.20 387.39 L 153.13 386.95 L 153.42 386.87 L 153.50 386.87 L 154.06 386.84 L 154.71 386.84 L 154.71 386.84 L 154.72 386.84 L 163.46 386.84 L 163.52 386.84 L 163.63 386.82 L 163.68 386.82 L 164.01 386.69 L 164.16 386.66 L 164.53 386.45 L 164.58 386.36 L 164.69 386.18 L 164.80 386.15 L 164.83 386.15 L 164.92 386.11 L 165.02 386.11 L 165.11 386.12 L 165.36 385.91 L 165.57 385.71 L 165.61 385.71 L 165.71 385.60 L 166.41 385.35 L 166.42 385.34 L 166.51 385.27 L 166.91 384.99 L 167.23 384.65 L 167.58 384.51 L 167.66 384.51 L 167.67 384.51 L 167.74 384.32 L 167.87 384.32 L 168.05 384.29 L 168.39 384.15 L 168.41 383.91 L 168.47 383.91 L 168.56 383.79 L 168.75 383.79 L 168.77 383.79 L 168.98 383.42 L 169.06 383.40 L 169.13 383.36 L 169.21 383.19 L 170.28 383.09 L 170.53 383.05 L 171.13 382.80 L 171.25 382.80 L 171.35 382.79 L 171.40 382.60 L 171.80 381.57 L 171.99 381.56 L 172.20 381.25 L 172.30 381.22 L 172.55 381.08 L 172.65 381.03 L 172.80 380.81 L 172.93 380.63 L 173.40 380.63 L 173.42 380.61 L 173.44 380.46 L 173.60 379.47 L 181.71 379.37 L 182.54 379.07 L 182.57 379.03 L 183.57 378.78 L 183.65 378.77 L 183.74 378.59 L 183.98 378.47 L 184.09 378.24 L 184.13 378.06 L 184.26 377.69 L 184.55 377.68 L 184.56 377.68 L 184.67 377.42 L 184.78 377.42 L 184.90 377.15 L 185.06 376.94 L 185.13 376.82 L 185.15 376.81 L 185.29 376.57 L 185.31 376.56 L 185.46 376.33 L 185.49 376.33 L 185.72 376.25 L 185.76 376.25 L 185.84 376.16 L 185.94 376.15 L 186.07 376.15 L 186.13 376.13 L 186.58 375.91 L 186.60 375.92 L 186.68 375.47 L 186.88 375.45 L 187.07 375.32 L 187.12 375.32 L 187.21 375.31 L 187.25 375.27 L 187.35 374.66 L 187.86 374.15 L 187.92 373.86 L 188.09 373.84 L 188.14 373.77 L 188.18 373.76 L 188.27 373.63 L 188.35 373.14 L 188.53 373.07 L 188.65 373.05 L 188.75 372.81 L 188.81 372.80 L 189.27 372.62 L 189.52 372.49 L 189.59 372.38 L 189.81 372.37 L 189.83 372.37 L 189.85 372.35 L 189.98 371.47 L 190.09 371.46 L 190.46 371.34 L 190.53 370.99 L 190.60 370.98 L 190.70 370.84 L 190.71 370.76 L 190.75 370.70 L 190.79 370.66 L 190.84 370.66 L 190.89 370.59 L 191.04 369.60 L 191.15 369.50 L 191.25 369.21 L 191.40 369.19 L 191.56 369.09 L 191.73 368.78 L 191.84 367.93 L 192.08 367.86 L 192.08 367.50 L 192.22 367.41 L 203.54 367.41 L 203.75 367.41 L 204.29 367.00 L 204.40 367.00 L 204.49 367.00 L 204.50 366.90 L 204.70 366.73 L 204.83 366.69 L 204.91 366.59 L 204.99 366.52 L 205.03 366.48 L 205.24 366.42 L 205.64 366.51 L 205.75 366.23 L 205.82 366.16 L 205.92 366.16 L 206.45 366.10 L 206.52 366.06 L 206.56 366.06 L 206.59 366.00 L 206.70 365.96 L 206.79 365.86 L 207.17 365.60 L 207.72 365.49 L 207.92 365.45 L 208.52 365.28 L 208.81 364.89 L 208.91 364.82 L 209.03 364.51 L 209.21 364.10 L 209.49 364.00 L 209.87 363.99 L 210.38 363.97 L 210.46 363.82 L 210.84 363.72 L 211.08 363.60 L 211.15 363.50 L 211.30 363.46 L 211.41 363.19 L 212.75 363.06 L 214.03 363.06 L 225.42 363.03 L 225.50 362.88 L 225.56 362.78 L 225.91 362.63 L 226.98 362.37 L 227.02 362.33 L 227.17 362.14 L 227.69 362.07 L 227.94 361.55 L 228.32 361.53 L 228.41 361.52 L 228.49 361.01 L 229.15 360.53 L 229.23 360.52 L 229.37 360.50 L 229.51 360.45 L 229.58 360.28 L 229.95 359.48 L 230.08 359.28 L 230.14 359.26 L 230.23 359.18 L 230.39 358.87 L 230.46 358.07 L 230.62 357.75 L 231.12 357.56 L 231.16 357.16 L 231.21 357.16 L 231.29 357.09 L 231.41 356.98 L 231.46 356.95 L 231.51 356.91 L 231.74 355.99 L 231.80 355.44 L 232.09 355.34 L 232.26 354.41 L 232.37 354.23 L 233.25 352.78 L 233.35 352.75 L 266.83 352.33 L 266.86 352.33 L 279.65 352.21 L 280.35 352.06 L 280.49 352.06 L 280.68 351.98 L 280.74 351.86 L 280.82 351.84 L 286.36 351.82 L 287.10 350.15 L 287.37 350.01 L 287.51 349.43 L 290.97 349.36 L 290.99 349.30 L 291.21 349.29 L 292.24 349.19 L 292.30 349.00 L 292.43 348.93 L 292.79 348.84 L 292.84 348.82 L 292.98 348.50 L 293.14 348.40 L 293.16 348.15 L 303.92 347.84 L 304.00 347.08 L 304.42 346.88 L 304.43 346.59 L 304.51 346.36 L 304.60 346.01 L 304.71 345.09 L 304.90 344.59 L 305.05 343.94 L 305.19 343.93 L 305.24 343.43 L 305.46 343.40 L 306.21 342.92 L 306.51 342.70 L 306.56 342.56 L 306.62 342.56 L 306.66 342.40 L 306.76 341.83 L 307.06 341.77 L 307.11 341.77 L 307.29 341.40 L 307.36 341.40 L 307.39 341.18 L 307.46 341.05 L 307.51 341.05 L 307.55 340.75 L 307.79 340.57 L 307.89 340.28 L 308.02 340.26 L 308.11 340.11 L 308.15 339.88 L 308.38 339.76 L 308.45 339.63 L 308.49 339.63 L 308.55 339.62 L 308.59 339.39 L 308.62 339.40 L 308.64 339.40 L 308.76 339.32 L 308.80 339.06 L 308.91 339.06 L 309.00 339.00 L 309.24 338.98 L 309.54 338.95 L 309.55 338.95 L 309.63 338.94 L 309.90 338.94 L 310.03 338.94 L 310.16 338.94 L 310.30 338.89 L 310.40 338.59 L 310.78 338.59 L 310.81 338.41 L 310.86 338.40 L 310.89 338.20 L 311.14 338.13 L 311.18 338.08 L 311.36 338.08 L 327.90 338.02 L 328.85 337.94 L 328.87 337.94 L 329.06 337.94 L 329.08 337.94 L 329.20 337.58 L 329.29 337.57 L 329.37 337.47 L 329.48 337.41 L 329.52 337.38 L 329.56 337.36 L 329.74 337.33 L 330.10 337.26 L 330.32 336.77 L 330.58 336.75 L 330.59 336.71 L 330.63 336.31 L 330.66 336.31 L 331.15 336.31 L 331.16 336.27 L 331.24 335.89 L 331.45 335.84 L 331.59 335.83 L 331.61 335.82 L 331.62 335.78 L 331.68 335.75 L 331.72 335.37 L 331.74 335.36 L 331.86 335.36 L 331.87 335.33 L 332.13 335.29 L 332.84 335.28 L 333.00 335.25 L 333.06 335.24 L 333.09 335.11 L 333.13 335.11 L 333.23 334.68 L 344.54 334.55 L 344.56 334.43 L 344.65 334.34 L 344.68 334.33 L 344.74 333.96 L 344.87 333.87 L 344.88 333.85 L 345.09 333.85 L 345.14 333.85 L 345.18 333.48 L 345.36 333.44 L 345.85 333.42 L 345.86 333.40 L 345.98 333.20 L 346.03 333.21 L 346.06 332.87 L 346.47 332.87 L 346.48 332.85 L 347.10 332.77 L 347.17 332.37 L 347.39 332.37 L 347.65 332.36 L 347.71 332.07 L 347.75 331.84 L 347.87 331.83 L 348.19 331.78 L 348.25 331.76 L 348.39 331.67 L 348.54 331.67 L 349.02 331.67 L 349.07 331.67 L 349.18 331.65 L 349.19 331.64 L 349.34 331.64 L 349.70 331.62 L 350.07 331.58 L 350.13 331.58 L 350.21 331.53 L 350.32 331.43 L 350.60 331.43 L 351.08 331.29 L 351.23 331.07 L 351.49 331.04 L 352.53 330.80 L 352.76 330.80 L 352.93 330.79 L 353.19 330.79 L 353.27 330.77 L 353.53 330.64 L 353.94 330.63 L 353.99 330.52 L 354.07 330.46 L 354.12 330.48 L 354.16 330.44 L 354.48 330.42 L 361.97 330.41 L 362.04 330.41 L 362.51 330.41 L 362.55 330.40 L 362.66 330.06 L 362.74 330.05 L 362.76 330.05 L 363.01 330.04 L 363.08 330.02 L 364.61 329.52 L 364.79 329.47 L 364.93 329.46 L 364.95 329.46 L 365.43 329.45 L 365.59 329.52 L 365.62 329.51 L 365.88 329.48 L 366.16 329.01 L 366.19 329.00 L 366.42 328.99 L 366.52 328.99 L 366.61 328.99 L 366.80 328.89 L 367.22 328.46 L 367.30 328.46 L 367.37 328.40 L 367.54 328.01 L 367.96 327.58 L 368.32 327.61 L 368.40 327.38 L 368.77 327.38 L 368.84 327.35 L 368.90 327.33 L 368.94 327.10 L 369.07 327.09 L 369.10 327.09 L 369.16 327.09 L 369.37 327.09 L 369.70 326.91 L 369.90 326.89 L 370.13 326.89 L 370.24 326.89 L 370.47 326.89 L 370.84 326.89 L 371.22 326.89 L 371.51 326.89 L 371.57 326.89 L 371.65 326.88 L 371.65 326.80 L 371.87 326.75 L 371.94 326.75 L 372.03 326.73 L 372.64 326.73 L 372.65 326.51 L 372.82 326.51 L 373.54 326.51 L 374.01 326.51 L 374.36 326.46 L 374.37 326.37 L 374.40 326.37 L 384.89 326.22 L 384.93 326.21 L 385.05 326.20 L 385.11 326.07 L 385.14 326.07 L 385.15 326.06 L 385.60 326.02 L 385.70 325.57 L 385.83 325.47 L 386.06 324.58 L 386.20 324.57 L 386.38 324.19 L 386.48 324.23 L 386.53 324.23 L 386.58 323.74 L 386.71 323.66 L 386.73 323.32 L 386.78 323.28 L 386.89 323.24 L 386.96 323.08 L 387.06 325.07 L 387.18 325.04 L 387.44 324.24 L 387.55 324.06 L 387.66 323.88 L 388.30 323.57 L 388.85 323.23 L 389.52 322.76 L 389.68 322.71 L 389.87 322.71 L 390.08 322.67 L 393.94 322.43 L 394.26 322.41 L 430.82 321.78 L 545.97 321.76 L 546.35 321.48 L 546.61 321.44 L 546.88 321.44 L 547.28 321.18 L 547.41 320.89 L 547.52 320.34 L 547.70 320.19 L 547.97 320.25 L 548.18 319.93 L 548.23 319.92 L 548.41 319.82 L 548.45 319.82 L 548.64 319.29 L 548.81 318.47 L 549.33 318.39 L 549.35 318.31 L 549.50 317.25 L 549.99 317.21 L 550.01 317.11 L 550.10 317.05 L 550.22 316.09 L 550.76 316.04 L 550.77 315.91 L 550.89 315.84 L 551.01 315.21 L 551.21 315.19 L 551.22 315.09 L 551.31 314.04 L 551.33 314.02 L 551.37 313.99 L 551.60 313.99 L 551.63 313.88 L 551.71 313.80 L 551.95 313.70 L 552.00 313.70 L 552.19 313.65 L 552.51 313.68 L 552.56 313.64 L 552.60 313.61 L 552.66 313.58 L 552.82 312.50 L 552.99 312.47 L 553.01 312.38 L 553.11 311.27 L 553.21 310.87 L 553.23 310.72 L 553.33 310.18 L 553.38 309.24 L 553.58 309.23 L 553.60 309.18 L 553.70 308.98 L 553.84 308.98 L 554.67 308.95 L 555.08 308.93 L 564.07 308.97 L 564.17 308.76 L 564.25 308.60 L 564.41 307.85 L 564.74 307.84 L 564.77 307.76 L 564.83 306.81 L 565.05 306.81 L 565.07 306.71 L 567.04 306.62 L 567.15 306.28 L 568.15 306.11 L 568.26 306.07 L 568.37 305.02 L 569.56 304.72 L 570.07 304.47 L 570.20 303.68 L 570.63 303.68 L 570.89 303.24 L 571.34 302.56 L 572.13 302.15 L 584.16 302.14 L 584.88 302.13 L 584.92 302.13 L 585.92 301.98 L 585.98 301.90 L 586.33 301.83 L 586.74 300.95 L 586.74 300.95 L 586.78 300.91 L 587.32 300.73 L 588.56 300.14 L 588.64 300.08 L 588.76 300.07 L 588.95 299.82 L 589.00 299.79 L 589.08 299.74 L 589.65 299.74 L 590.11 299.74 L 590.36 299.74 L 590.40 299.70 L 590.91 298.80 L 591.31 298.72 L 591.32 298.65 L 591.37 298.57 L 591.43 298.34 L 604.49 298.18 L 604.52 298.16 L 604.55 298.14 L 604.81 298.03 L 605.01 297.92 L 606.16 297.41 L 606.44 297.31 L 607.27 296.92 L 607.99 296.86 L 608.51 296.71 L 608.66 295.39 L 609.32 295.17 L 609.57 295.10 L 609.65 294.14 L 611.59 293.23 L 611.60 293.23 L 611.71 292.81 L 612.08 292.77 L 612.08 292.77 L 612.10 292.66 L 612.17 292.54 L 612.34 292.45 L 612.55 291.80 L 614.55 291.46 L 614.81 291.31 L 614.99 290.95 L 615.02 290.91 L 615.06 290.68 L 623.96 289.85 L 624.24 289.25 L 624.41 289.23 L 624.48 288.83 L 625.32 288.66 L 625.49 288.23 L 625.65 288.23 L 625.74 287.35 L 626.02 287.14 L 626.07 287.11 L 626.44 287.06 L 626.53 286.33 L 626.85 286.24 L 626.92 285.67 L 627.18 285.60 L 627.37 285.27 L 627.53 284.63 L 627.86 284.51 L 627.90 283.85 L 628.33 285.33 L 628.36 285.33 L 628.43 284.49 L 628.52 284.49 L 628.57 284.42 L 629.06 284.34 L 629.78 283.99 L 630.14 284.17 L 631.32 284.15 L 631.35 284.14 L 631.53 284.13 L 631.61 284.11 L 631.74 283.99 L 631.89 283.89 L 632.04 283.74 L 632.40 283.53 L 632.73 283.51 L 633.79 283.41 L 633.84 283.40 L 634.89 283.29 L 635.34 283.23 L 644.34 283.19 L 644.79 283.15 L 645.02 283.15 L 645.12 283.15 L 645.15 283.15 L 645.37 283.13 L 645.48 283.10 L 645.74 282.94 L 645.91 282.92 L 646.49 282.91 L 646.80 282.83 L 647.30 282.79 L 647.44 282.76 L 647.61 282.69 L 647.84 282.60 L 648.61 282.56 L 648.69 282.55 L 649.82 282.38 L 650.00 282.12"/>
	</g>
	<g class="poloto_legend poloto_imgs poloto_line poloto0 poloto_stroke"><line x1="680" x2="730" y1="81.25" y2="81.25"/></g>
	<g class="poloto_legend poloto_imgs poloto_line poloto1 poloto_stroke"><line x1="680" x2="730" y1="131.25" y2="131.25"/></g>
	<g class="poloto_legend poloto_imgs poloto_line poloto2 poloto_stroke"><line x1="680" x2="730" y1="181.25" y2="181.25"/></g>
	<text class="poloto_legend poloto_text poloto_line poloto0" x="675" y="100">total</text>
	<text class="poloto_legend poloto_text poloto_line poloto1" x="675" y="150">code</text>
	<text class="poloto_legend poloto_text poloto_line poloto2" x="675" y="200">docs</text>
	<text class="poloto_text poloto_name poloto_title" x="400.00" y="37.50">Workspace lines over time</text>
	<text class="poloto_text poloto_name poloto_x" x="400.00" y="640">date (JST)</text>
	<text class="poloto_text poloto_name poloto_y" x="37.50" y="250.00" transform="rotate(-90,37.50,250.00)">lines</text>
	<text class="poloto_text poloto_ticks poloto_y">
		<tspan x="135.00" y="400.00">0</tspan>
		<tspan x="135.00" y="322.06">50K</tspan>
		<tspan x="135.00" y="244.11">100K</tspan>
		<tspan x="135.00" y="166.17">150K</tspan>
	</text>
	<g class="poloto_imgs poloto_ticks poloto_y" stroke="black">
		<line x1="150.00" x2="144.00" y1="400.00" y2="400.00"/>
		<line x1="150.00" x2="144.00" y1="322.06" y2="322.06"/>
		<line x1="150.00" x2="144.00" y1="244.11" y2="244.11"/>
		<line x1="150.00" x2="144.00" y1="166.17" y2="166.17"/>
	</g>
	<g class="poloto_text poloto_ticks poloto_x">
		<text x="225.27" y="430.00" text-anchor="end" transform="rotate(-90 225.27 430.00)">2026-04-24 12:06</text>
		<text x="341.14" y="430.00" text-anchor="end" transform="rotate(-90 341.14 430.00)">2026-04-30 07:00</text>
		<text x="457.00" y="430.00" text-anchor="end" transform="rotate(-90 457.00 430.00)">2026-05-06 01:53</text>
		<text x="572.87" y="430.00" text-anchor="end" transform="rotate(-90 572.87 430.00)">2026-05-11 20:46</text>
	</g>
	<g class="poloto_imgs poloto_ticks poloto_x" stroke="black">
		<line x1="225.27" x2="225.27" y1="400.00" y2="405.00"/>
		<line x1="341.14" x2="341.14" y1="400.00" y2="405.00"/>
		<line x1="457.00" x2="457.00" y1="400.00" y2="405.00"/>
		<line x1="572.87" x2="572.87" y1="400.00" y2="405.00"/>
	</g>
	<path class="poloto_imgs poloto_ticks poloto_x" stroke="black" style="stroke-dasharray:11.58651885358348;stroke-dashoffset:-75.27135627157986;" d=" M 150.00 400.00 L 650.00 400.00"/>
	<path class="poloto_imgs poloto_ticks poloto_y" stroke="black" style="stroke-dasharray:7.7943942716398364;stroke-dashoffset:-0;" d=" M 150.00 400.00 L 150.00 100.00"/>
</svg>

