<svg class="poloto" width="800" height="680" viewBox="0 0 800 680" xmlns="http://www.w3.org/2000/svg">
	<style>
.poloto{
  stroke-linecap:round;
  stroke-linejoin:round;
  font-family:Roboto,sans-serif;
  font-size:16px;
}
.poloto_background{fill:AliceBlue;}
.poloto_scatter{stroke-width:7}
.poloto_line{stroke-width:2}
.poloto_text{fill: black;}
.poloto_name{font-size:24px;dominant-baseline:auto;text-anchor:middle;}
.poloto_where{dominant-baseline:middle;text-anchor:start}
.poloto_text.poloto_legend{font-size:20px;dominant-baseline:middle;text-anchor:start;}
.poloto_text.poloto_ticks.poloto_y{dominant-baseline:middle;text-anchor:end}
.poloto_text.poloto_ticks.poloto_x{dominant-baseline:auto;text-anchor:middle}
.poloto_imgs.poloto_ticks{stroke: black;stroke-width:3;fill:none;stroke-dasharray:none}
.poloto_grid{stroke:gray;stroke-width:0.5}

.poloto0.poloto_stroke{stroke:blue;}
.poloto1.poloto_stroke{stroke:red;}
.poloto2.poloto_stroke{stroke:green;}
.poloto3.poloto_stroke{stroke:gold;}
.poloto4.poloto_stroke{stroke:aqua;}
.poloto5.poloto_stroke{stroke:lime;}
.poloto6.poloto_stroke{stroke:orange;}
.poloto7.poloto_stroke{stroke:chocolate;}
.poloto0.poloto_fill{fill:blue;}
.poloto1.poloto_fill{fill:red;}
.poloto2.poloto_fill{fill:green;}
.poloto3.poloto_fill{fill:gold;}
.poloto4.poloto_fill{fill:aqua;}
.poloto5.poloto_fill{fill:lime;}
.poloto6.poloto_fill{fill:orange;}
.poloto7.poloto_fill{fill:chocolate;}
	</style>
	<circle r="1e5" class="poloto_background" fill="white"/>
	<g id="poloto_plot0" class="poloto_plot poloto_imgs poloto_line poloto0 poloto_stroke" fill="none" stroke="black">
		<path d=" M 150.00 364.44 L 150.04 364.41 L 150.05 364.39 L 150.07 364.39 L 150.09 364.39 L 150.13 360.53 L 150.28 360.07 L 150.61 360.05 L 151.11 359.73 L 151.36 357.76 L 151.86 357.64 L 151.95 357.54 L 152.02 357.50 L 152.60 356.54 L 153.71 355.76 L 154.05 352.73 L 154.14 352.74 L 154.81 352.62 L 155.57 352.60 L 155.58 352.60 L 155.59 352.60 L 165.94 352.60 L 166.01 352.60 L 166.14 352.57 L 166.20 352.54 L 166.59 352.36 L 166.77 352.32 L 167.21 352.04 L 167.27 351.91 L 167.40 351.64 L 167.53 351.60 L 167.57 351.59 L 167.68 351.52 L 167.79 351.52 L 167.90 351.53 L 168.19 351.08 L 168.44 350.80 L 168.49 350.80 L 168.61 350.63 L 169.44 351.33 L 169.45 351.33 L 169.56 351.21 L 170.03 350.70 L 170.40 350.08 L 170.83 349.80 L 170.92 349.75 L 170.93 349.76 L 171.01 349.52 L 171.17 349.52 L 171.38 349.43 L 171.78 349.20 L 171.81 348.84 L 171.88 348.84 L 171.98 348.65 L 172.21 348.65 L 172.24 348.65 L 172.48 348.13 L 172.58 348.10 L 172.66 348.06 L 172.76 347.85 L 174.02 347.57 L 174.32 347.52 L 175.02 347.15 L 175.17 347.15 L 175.28 347.13 L 175.34 346.87 L 175.83 345.34 L 176.04 345.31 L 176.29 344.80 L 176.41 344.75 L 176.71 344.32 L 176.83 344.17 L 177.01 343.90 L 177.16 343.65 L 177.72 340.12 L 177.74 340.04 L 177.77 339.83 L 177.96 338.13 L 187.56 338.01 L 188.55 336.07 L 188.58 336.03 L 189.76 335.72 L 189.86 335.72 L 189.96 335.33 L 190.25 335.14 L 190.38 334.81 L 190.43 334.52 L 190.58 334.02 L 190.92 334.01 L 190.93 333.66 L 191.07 333.29 L 191.20 333.28 L 191.34 332.85 L 191.53 332.55 L 191.61 332.40 L 191.63 332.39 L 191.80 332.06 L 191.82 332.05 L 192.00 331.72 L 192.03 331.71 L 192.31 330.12 L 192.36 330.12 L 192.45 329.85 L 192.57 329.84 L 192.73 329.84 L 192.80 329.80 L 193.33 329.50 L 193.35 329.51 L 193.45 328.81 L 193.69 328.79 L 193.90 327.73 L 193.97 327.63 L 194.07 327.62 L 194.12 327.58 L 194.25 326.76 L 194.85 319.83 L 194.91 319.50 L 195.12 319.47 L 195.18 319.39 L 195.23 319.36 L 195.33 319.18 L 195.42 318.39 L 195.63 318.23 L 195.78 318.21 L 195.90 317.87 L 195.97 317.86 L 196.51 317.60 L 196.81 317.41 L 196.90 317.10 L 197.15 317.08 L 197.17 317.08 L 197.20 317.05 L 197.36 315.39 L 197.48 315.29 L 197.93 313.61 L 198.00 313.12 L 198.09 313.11 L 198.20 312.93 L 198.22 312.80 L 198.27 312.72 L 198.31 312.68 L 198.38 312.67 L 198.43 312.58 L 198.61 311.21 L 198.74 311.01 L 198.87 310.60 L 199.04 310.58 L 199.23 310.45 L 199.42 309.48 L 199.56 308.13 L 199.84 308.05 L 199.85 307.55 L 200.01 307.38 L 213.41 307.39 L 213.67 307.37 L 214.30 306.66 L 214.43 306.64 L 214.54 306.64 L 214.56 306.47 L 214.79 306.24 L 214.95 306.21 L 215.04 306.07 L 215.13 305.98 L 215.19 305.93 L 215.43 305.87 L 215.91 305.78 L 216.03 305.41 L 216.12 305.32 L 216.24 305.31 L 216.86 305.13 L 216.95 305.02 L 216.99 305.02 L 217.03 304.88 L 217.16 304.82 L 217.27 304.69 L 217.72 303.78 L 218.37 303.64 L 218.60 303.58 L 219.32 303.35 L 219.66 299.00 L 219.78 298.91 L 219.93 298.48 L 220.14 297.91 L 220.46 297.75 L 220.92 297.73 L 221.52 297.72 L 221.62 297.53 L 222.06 297.33 L 222.34 297.01 L 222.44 296.88 L 222.61 296.83 L 222.74 296.45 L 224.33 296.02 L 225.84 296.02 L 239.33 295.98 L 239.42 295.79 L 239.49 295.67 L 239.92 295.48 L 241.18 293.98 L 241.23 293.88 L 241.41 293.49 L 242.03 293.40 L 242.32 292.38 L 242.76 292.37 L 242.87 292.36 L 242.97 291.66 L 243.75 287.70 L 243.84 287.69 L 244.01 287.66 L 244.18 287.61 L 244.26 287.18 L 244.70 285.69 L 244.86 285.41 L 244.93 285.39 L 245.03 284.70 L 245.22 283.73 L 245.30 282.70 L 245.50 282.24 L 246.08 277.09 L 246.14 276.57 L 246.19 276.57 L 246.28 276.47 L 246.43 276.34 L 246.49 276.30 L 246.54 276.24 L 246.82 275.01 L 246.89 274.14 L 247.23 273.96 L 247.44 272.67 L 247.56 271.85 L 248.61 259.85 L 248.73 259.81 L 288.38 259.24 L 288.42 259.24 L 303.57 259.08 L 304.40 258.75 L 304.56 258.75 L 304.79 258.66 L 304.86 258.50 L 304.95 258.46 L 311.52 258.38 L 312.39 256.09 L 312.71 255.89 L 312.88 255.05 L 316.97 254.88 L 317.00 254.65 L 317.26 254.63 L 318.48 253.19 L 318.55 252.93 L 318.70 252.84 L 319.13 252.74 L 319.19 252.70 L 319.36 252.27 L 319.55 252.15 L 319.58 251.83 L 332.31 251.39 L 332.41 250.16 L 332.91 249.89 L 332.92 247.83 L 333.01 247.52 L 333.12 247.02 L 333.26 245.60 L 333.47 244.84 L 333.65 243.96 L 333.82 243.95 L 333.88 243.28 L 334.14 243.22 L 335.02 239.91 L 335.38 239.55 L 335.44 239.34 L 335.51 239.34 L 335.56 239.11 L 335.68 238.29 L 336.04 237.90 L 336.09 237.85 L 336.31 234.93 L 336.40 234.92 L 336.43 234.61 L 336.51 234.37 L 336.57 234.37 L 336.61 233.93 L 336.89 232.35 L 337.01 231.90 L 337.17 231.85 L 337.28 227.63 L 337.32 227.28 L 337.60 224.88 L 337.68 224.69 L 337.73 224.68 L 337.80 224.68 L 337.85 224.34 L 337.89 224.35 L 337.90 224.34 L 338.04 220.08 L 338.09 219.71 L 338.23 219.69 L 338.33 219.62 L 338.62 219.49 L 338.97 219.33 L 338.98 219.33 L 339.07 219.28 L 339.40 219.20 L 339.56 219.20 L 339.71 219.20 L 339.88 217.34 L 339.98 216.90 L 340.44 216.89 L 340.48 216.60 L 340.53 216.59 L 340.57 216.28 L 340.86 213.59 L 340.91 213.53 L 341.13 213.51 L 360.72 213.43 L 361.84 213.29 L 361.87 213.29 L 362.09 213.29 L 362.11 213.29 L 362.25 212.76 L 362.36 212.74 L 362.46 212.48 L 362.59 212.41 L 362.63 212.37 L 362.68 212.35 L 362.89 212.05 L 363.32 211.78 L 363.59 210.92 L 363.89 210.10 L 363.90 210.06 L 363.95 209.29 L 363.99 209.26 L 364.57 208.80 L 364.58 208.75 L 364.67 208.14 L 364.93 208.08 L 365.08 208.02 L 365.12 206.93 L 365.13 206.88 L 365.20 207.91 L 365.24 207.27 L 365.27 207.25 L 365.41 205.79 L 365.42 205.75 L 365.73 205.63 L 366.57 205.61 L 366.76 205.56 L 366.83 205.55 L 366.87 205.36 L 366.92 205.36 L 367.03 204.64 L 380.43 203.25 L 380.45 203.06 L 380.56 202.93 L 380.59 202.66 L 380.67 190.51 L 380.82 185.53 L 380.83 185.50 L 381.08 185.41 L 381.14 185.41 L 381.18 184.83 L 381.40 184.78 L 381.98 183.60 L 381.99 183.58 L 382.14 183.21 L 382.19 183.22 L 382.22 182.64 L 382.71 181.95 L 382.72 181.92 L 383.46 181.65 L 383.54 181.03 L 383.80 181.04 L 384.11 179.47 L 384.19 178.86 L 384.24 178.36 L 384.37 177.75 L 384.75 177.54 L 384.82 177.39 L 384.99 177.25 L 385.17 177.25 L 385.73 177.25 L 385.80 177.25 L 385.93 177.22 L 385.94 177.22 L 386.12 177.24 L 386.54 177.21 L 386.98 176.98 L 387.05 176.98 L 387.15 176.89 L 387.27 176.72 L 387.61 176.72 L 388.17 176.50 L 388.36 176.02 L 388.67 171.83 L 389.90 175.37 L 390.16 175.35 L 390.36 175.34 L 390.67 175.33 L 390.77 175.26 L 391.08 175.06 L 391.56 174.78 L 391.62 174.58 L 391.72 174.50 L 391.77 174.52 L 391.82 174.46 L 392.20 174.20 L 401.08 174.19 L 401.16 174.20 L 401.71 174.18 L 401.77 174.16 L 401.89 173.63 L 401.99 173.33 L 402.01 173.33 L 402.31 173.28 L 402.38 173.26 L 404.20 172.47 L 404.42 172.40 L 404.57 172.39 L 404.61 172.38 L 405.17 172.19 L 405.36 172.29 L 405.40 172.28 L 405.70 172.23 L 406.03 170.57 L 406.07 170.56 L 406.35 170.37 L 406.46 170.37 L 406.57 170.37 L 406.80 170.19 L 407.29 169.52 L 407.39 169.50 L 407.47 169.31 L 407.68 168.52 L 408.17 167.70 L 408.60 163.85 L 408.69 163.38 L 409.13 163.19 L 409.21 163.09 L 409.28 162.91 L 409.33 162.29 L 409.48 161.18 L 409.52 161.23 L 409.59 161.20 L 409.84 161.20 L 410.23 160.79 L 410.47 160.71 L 410.74 160.70 L 410.87 160.68 L 411.14 160.67 L 411.59 160.67 L 412.03 160.66 L 412.37 160.66 L 412.45 160.64 L 412.54 160.63 L 412.54 160.50 L 412.80 160.42 L 412.88 160.40 L 412.98 160.24 L 413.71 160.21 L 413.72 159.88 L 413.92 159.86 L 414.77 159.87 L 415.34 159.67 L 415.75 159.42 L 415.76 159.29 L 415.80 159.28 L 428.23 159.05 L 428.27 159.05 L 428.41 159.04 L 428.48 158.84 L 428.52 158.82 L 428.53 158.81 L 429.06 158.76 L 429.18 158.06 L 429.34 157.90 L 429.60 156.53 L 429.77 156.51 L 429.99 155.93 L 430.11 156.00 L 430.16 156.00 L 430.23 155.33 L 430.38 154.87 L 430.40 154.39 L 430.46 154.32 L 430.59 154.28 L 430.68 154.05 L 430.79 156.68 L 430.94 156.63 L 431.25 155.58 L 431.38 155.33 L 431.50 155.11 L 432.26 153.60 L 432.92 152.87 L 433.70 151.48 L 433.90 151.42 L 434.12 151.42 L 434.37 151.36 L 438.94 150.96 L 439.32 150.93 L 482.63 149.87 L 619.02 149.62 L 619.47 149.19 L 619.78 149.14 L 620.09 149.14 L 620.57 148.32 L 620.73 147.93 L 620.85 147.19 L 621.07 145.08 L 621.39 145.51 L 621.64 145.05 L 621.70 145.05 L 621.91 144.91 L 621.95 144.91 L 622.18 144.13 L 622.38 142.90 L 623.00 141.58 L 623.02 141.47 L 623.20 139.90 L 623.78 136.01 L 623.80 135.88 L 623.91 135.79 L 624.05 134.40 L 624.69 132.53 L 624.70 132.36 L 624.84 132.27 L 624.99 131.35 L 625.22 130.62 L 625.24 130.48 L 625.34 129.06 L 625.36 129.03 L 625.42 128.63 L 625.69 126.09 L 625.72 125.95 L 625.81 125.80 L 626.10 125.47 L 626.16 125.46 L 626.39 124.97 L 626.77 125.03 L 626.82 124.96 L 626.87 124.93 L 626.94 124.89 L 627.13 123.41 L 627.33 122.20 L 627.36 122.09 L 627.47 120.57 L 627.59 119.09 L 627.62 118.91 L 627.74 117.17 L 627.79 115.81 L 628.03 114.89 L 628.06 114.83 L 628.18 114.54 L 628.34 114.52 L 629.32 114.48 L 629.81 114.44 L 640.46 114.50 L 640.57 114.23 L 640.68 114.00 L 640.86 112.98 L 641.26 112.72 L 641.29 112.62 L 641.36 111.27 L 641.62 109.97 L 641.65 109.85 L 643.97 109.76 L 644.11 109.03 L 645.29 108.81 L 645.42 108.76 L 645.55 107.24 L 646.96 105.81 L 647.57 105.27 L 647.72 104.15 L 648.22 102.24 L 648.54 101.69 L 649.06 100.57 L 650.00 100.00"/>
	</g>
	<g id="poloto_plot1" class="poloto_plot poloto_imgs poloto_line poloto1 poloto_stroke" fill="none" stroke="black">
		<path d=" M 150.00 378.87 L 150.04 378.85 L 150.05 378.84 L 150.07 378.84 L 150.09 378.84 L 150.13 378.17 L 150.28 378.15 L 150.61 378.13 L 151.11 377.88 L 151.36 377.77 L 151.86 377.80 L 151.95 377.75 L 152.02 377.75 L 152.60 377.70 L 153.71 377.57 L 154.05 374.96 L 154.14 374.96 L 154.81 374.90 L 155.57 374.89 L 155.58 374.89 L 155.59 374.89 L 165.94 374.89 L 166.01 374.89 L 166.14 374.88 L 166.20 374.85 L 166.59 374.83 L 166.77 374.83 L 167.21 374.83 L 167.27 374.83 L 167.40 374.81 L 167.53 374.81 L 167.57 374.81 L 167.68 374.78 L 167.79 374.78 L 167.90 374.78 L 168.19 374.64 L 168.44 374.64 L 168.49 374.64 L 168.61 374.64 L 169.44 375.62 L 169.45 375.62 L 169.56 375.61 L 170.03 375.46 L 170.40 375.30 L 170.83 375.22 L 170.92 375.17 L 170.93 375.17 L 171.01 375.17 L 171.17 375.17 L 171.38 375.11 L 171.78 375.05 L 171.81 375.05 L 171.88 375.05 L 171.98 375.03 L 172.21 375.03 L 172.24 375.03 L 172.48 375.02 L 172.58 375.02 L 172.66 375.02 L 172.76 375.02 L 174.02 374.90 L 174.32 374.89 L 175.02 374.84 L 175.17 374.84 L 175.28 374.84 L 175.34 374.84 L 175.83 374.76 L 176.04 374.76 L 176.29 374.67 L 176.41 374.65 L 176.71 374.44 L 176.83 374.37 L 177.01 374.37 L 177.16 374.36 L 177.72 371.31 L 177.74 371.26 L 177.77 371.26 L 177.96 370.96 L 187.56 370.96 L 188.55 369.65 L 188.58 369.65 L 189.76 369.65 L 189.86 369.64 L 189.96 369.50 L 190.25 369.48 L 190.38 369.48 L 190.43 369.48 L 190.58 369.48 L 190.92 369.48 L 190.93 369.20 L 191.07 369.19 L 191.20 369.19 L 191.34 369.16 L 191.53 369.15 L 191.61 369.15 L 191.63 369.15 L 191.80 369.15 L 191.82 369.15 L 192.00 369.15 L 192.03 369.15 L 192.31 367.85 L 192.36 367.85 L 192.45 367.70 L 192.57 367.70 L 192.73 367.70 L 192.80 367.68 L 193.33 367.68 L 193.35 367.68 L 193.45 367.60 L 193.69 367.60 L 193.90 366.86 L 193.97 366.77 L 194.07 366.77 L 194.12 366.77 L 194.25 366.74 L 194.85 361.29 L 194.91 361.33 L 195.12 361.33 L 195.18 361.33 L 195.23 361.33 L 195.33 361.33 L 195.42 361.25 L 195.63 361.25 L 195.78 361.25 L 195.90 361.24 L 195.97 361.24 L 196.51 361.23 L 196.81 361.23 L 196.90 361.09 L 197.15 361.09 L 197.17 361.09 L 197.20 361.09 L 197.36 360.73 L 197.48 360.63 L 197.93 359.34 L 198.00 359.34 L 198.09 359.34 L 198.20 359.35 L 198.22 359.35 L 198.27 359.35 L 198.31 359.35 L 198.38 359.35 L 198.43 359.35 L 198.61 359.33 L 198.74 359.33 L 198.87 359.31 L 199.04 359.31 L 199.23 359.30 L 199.42 358.82 L 199.56 358.66 L 199.84 358.66 L 199.85 358.65 L 200.01 358.65 L 213.41 358.65 L 213.67 358.64 L 214.30 358.56 L 214.43 358.55 L 214.54 358.55 L 214.56 358.55 L 214.79 358.55 L 214.95 358.55 L 215.04 358.55 L 215.13 358.55 L 215.19 358.54 L 215.43 358.54 L 215.91 358.57 L 216.03 358.57 L 216.12 358.57 L 216.24 358.57 L 216.86 358.46 L 216.95 358.41 L 216.99 358.41 L 217.03 358.35 L 217.16 358.34 L 217.27 358.34 L 217.72 357.84 L 218.37 357.84 L 218.60 357.84 L 219.32 357.84 L 219.66 354.50 L 219.78 354.50 L 219.93 354.50 L 220.14 354.49 L 220.46 354.49 L 220.92 354.49 L 221.52 354.49 L 221.62 354.49 L 222.06 354.41 L 222.34 354.27 L 222.44 354.27 L 222.61 354.27 L 222.74 354.25 L 224.33 354.04 L 225.84 354.04 L 239.33 354.04 L 239.42 354.04 L 239.49 354.04 L 239.92 354.04 L 241.18 352.99 L 241.23 352.96 L 241.41 352.85 L 242.03 352.84 L 242.32 352.59 L 242.76 352.59 L 242.87 352.59 L 242.97 352.59 L 243.75 349.66 L 243.84 349.66 L 244.01 349.66 L 244.18 349.66 L 244.26 349.47 L 244.70 349.12 L 244.86 349.12 L 244.93 349.12 L 245.03 348.58 L 245.22 348.04 L 245.30 348.04 L 245.50 348.03 L 246.08 343.66 L 246.14 343.66 L 246.19 343.66 L 246.28 343.66 L 246.43 343.66 L 246.49 343.66 L 246.54 343.66 L 246.82 343.66 L 246.89 343.56 L 247.23 343.54 L 247.44 343.49 L 247.56 342.96 L 248.61 334.27 L 248.73 334.27 L 288.38 334.27 L 288.42 334.27 L 303.57 334.27 L 304.40 334.13 L 304.56 334.13 L 304.79 334.13 L 304.86 334.13 L 304.95 334.13 L 311.52 334.07 L 312.39 333.98 L 312.71 333.98 L 312.88 333.96 L 316.97 333.88 L 317.00 333.76 L 317.26 333.77 L 318.48 332.59 L 318.55 332.59 L 318.70 332.59 L 319.13 332.59 L 319.19 332.59 L 319.36 332.59 L 319.55 332.59 L 319.58 332.59 L 332.31 332.57 L 332.41 332.36 L 332.91 332.36 L 332.92 330.94 L 333.01 330.94 L 333.12 330.94 L 333.26 330.81 L 333.47 330.81 L 333.65 330.75 L 333.82 330.75 L 333.88 330.75 L 334.14 330.73 L 335.02 328.32 L 335.38 328.31 L 335.44 328.30 L 335.51 328.30 L 335.56 328.30 L 335.68 328.26 L 336.04 327.96 L 336.09 327.92 L 336.31 325.75 L 336.40 325.75 L 336.43 325.75 L 336.51 325.72 L 336.57 325.72 L 336.61 325.71 L 336.89 324.53 L 337.01 324.52 L 337.17 324.49 L 337.28 320.82 L 337.32 320.82 L 337.60 318.76 L 337.68 318.76 L 337.73 318.75 L 337.80 318.75 L 337.85 318.75 L 337.89 318.75 L 337.90 318.75 L 338.04 314.93 L 338.09 314.93 L 338.23 314.91 L 338.33 314.91 L 338.62 314.84 L 338.97 314.73 L 338.98 314.73 L 339.07 314.71 L 339.40 314.65 L 339.56 314.65 L 339.71 314.65 L 339.88 313.00 L 339.98 313.00 L 340.44 313.00 L 340.48 312.99 L 340.53 312.99 L 340.57 312.99 L 340.86 310.64 L 340.91 310.64 L 341.13 310.62 L 360.72 310.62 L 361.84 310.61 L 361.87 310.61 L 362.09 310.61 L 362.11 310.61 L 362.25 310.61 L 362.36 310.61 L 362.46 310.49 L 362.59 310.49 L 362.63 310.49 L 362.68 310.49 L 362.89 310.28 L 363.32 310.14 L 363.59 310.01 L 363.89 309.34 L 363.90 309.34 L 363.95 309.17 L 363.99 309.15 L 364.57 308.75 L 364.58 308.75 L 364.67 308.69 L 364.93 308.69 L 365.08 308.65 L 365.12 307.67 L 365.13 307.67 L 365.20 308.64 L 365.24 308.58 L 365.27 308.57 L 365.41 307.26 L 365.42 307.26 L 365.73 307.21 L 366.57 307.21 L 366.76 307.21 L 366.83 307.21 L 366.87 307.21 L 366.92 307.21 L 367.03 307.12 L 380.43 306.03 L 380.45 306.03 L 380.56 306.03 L 380.59 305.79 L 380.67 294.19 L 380.82 289.87 L 380.83 289.87 L 381.08 289.80 L 381.14 289.80 L 381.18 289.78 L 381.40 289.78 L 381.98 288.72 L 381.99 288.72 L 382.14 288.66 L 382.19 288.66 L 382.22 288.57 L 382.71 287.95 L 382.72 287.95 L 383.46 287.82 L 383.54 287.77 L 383.80 287.78 L 384.11 286.36 L 384.19 286.21 L 384.24 286.08 L 384.37 285.55 L 384.75 285.42 L 384.82 285.30 L 384.99 285.30 L 385.17 285.30 L 385.73 285.30 L 385.80 285.30 L 385.93 285.30 L 385.94 285.30 L 386.12 285.32 L 386.54 285.32 L 386.98 285.17 L 387.05 285.17 L 387.15 285.15 L 387.27 285.15 L 387.61 285.15 L 388.17 285.15 L 388.36 285.02 L 388.67 281.28 L 389.90 284.81 L 390.16 284.80 L 390.36 284.79 L 390.67 284.79 L 390.77 284.75 L 391.08 284.72 L 391.56 284.51 L 391.62 284.51 L 391.72 284.51 L 391.77 284.51 L 391.82 284.51 L 392.20 284.30 L 401.08 284.30 L 401.16 284.31 L 401.71 284.29 L 401.77 284.29 L 401.89 284.26 L 401.99 284.00 L 402.01 283.99 L 402.31 283.96 L 402.38 283.96 L 404.20 283.75 L 404.42 283.75 L 404.57 283.75 L 404.61 283.75 L 405.17 283.60 L 405.36 283.60 L 405.40 283.60 L 405.70 283.59 L 406.03 282.70 L 406.07 282.70 L 406.35 282.55 L 406.46 282.55 L 406.57 282.55 L 406.80 282.55 L 407.29 282.54 L 407.39 282.52 L 407.47 282.43 L 407.68 282.28 L 408.17 282.15 L 408.60 278.61 L 408.69 278.50 L 409.13 278.33 L 409.21 278.28 L 409.28 278.16 L 409.33 277.91 L 409.48 276.85 L 409.52 276.90 L 409.59 276.88 L 409.84 276.87 L 410.23 276.73 L 410.47 276.67 L 410.74 276.66 L 410.87 276.64 L 411.14 276.63 L 411.59 276.63 L 412.03 276.62 L 412.37 276.62 L 412.45 276.61 L 412.54 276.61 L 412.54 276.60 L 412.80 276.60 L 412.88 276.59 L 412.98 276.46 L 413.71 276.44 L 413.72 276.44 L 413.92 276.43 L 414.77 276.42 L 415.34 276.25 L 415.75 276.10 L 415.76 276.10 L 415.80 276.10 L 428.23 276.10 L 428.27 276.10 L 428.41 276.10 L 428.48 276.10 L 428.52 276.08 L 428.53 276.08 L 429.06 276.08 L 429.18 276.06 L 429.34 276.04 L 429.60 276.01 L 429.77 276.01 L 429.99 275.93 L 430.11 275.93 L 430.16 275.93 L 430.23 275.93 L 430.38 275.61 L 430.40 275.61 L 430.46 275.61 L 430.59 275.61 L 430.68 275.61 L 430.79 275.69 L 430.94 275.69 L 431.25 275.67 L 431.38 275.67 L 431.50 275.67 L 432.26 274.64 L 432.92 274.36 L 433.70 273.61 L 433.90 273.61 L 434.12 273.61 L 434.37 273.61 L 438.94 273.52 L 439.32 273.52 L 482.63 273.39 L 619.02 273.19 L 619.47 273.13 L 619.78 273.13 L 620.09 273.13 L 620.57 272.65 L 620.73 272.65 L 620.85 272.65 L 621.07 270.91 L 621.39 271.24 L 621.64 271.21 L 621.70 271.21 L 621.91 271.20 L 621.95 271.20 L 622.18 271.19 L 622.38 271.11 L 623.00 270.02 L 623.02 270.02 L 623.20 269.92 L 623.78 266.36 L 623.80 266.36 L 623.91 266.35 L 624.05 266.30 L 624.69 264.64 L 624.70 264.64 L 624.84 264.64 L 624.99 264.60 L 625.22 263.99 L 625.24 263.99 L 625.34 263.98 L 625.36 263.98 L 625.42 263.65 L 625.69 261.29 L 625.72 261.29 L 625.81 261.29 L 626.10 261.10 L 626.16 261.10 L 626.39 260.71 L 626.77 260.71 L 626.82 260.71 L 626.87 260.71 L 626.94 260.71 L 627.13 260.70 L 627.33 259.63 L 627.36 259.63 L 627.47 259.63 L 627.59 258.83 L 627.62 258.83 L 627.74 257.97 L 627.79 257.92 L 628.03 257.08 L 628.06 257.08 L 628.18 257.08 L 628.34 257.06 L 629.32 257.06 L 629.81 257.06 L 640.46 257.06 L 640.57 257.06 L 640.68 257.06 L 640.86 257.06 L 641.26 256.83 L 641.29 256.83 L 641.36 256.76 L 641.62 255.58 L 641.65 255.58 L 643.97 255.61 L 644.11 255.38 L 645.29 255.38 L 645.42 255.37 L 645.55 255.28 L 646.96 254.31 L 647.57 254.13 L 647.72 254.06 L 648.22 252.23 L 648.54 252.23 L 649.06 252.07 L 650.00 252.07"/>
	</g>
	<g id="poloto_plot2" class="poloto_plot poloto_imgs poloto_line poloto2 poloto_stroke" fill="none" stroke="black">
		<path d=" M 150.00 390.52 L 150.04 390.51 L 150.05 390.51 L 150.07 390.51 L 150.09 390.51 L 150.13 388.08 L 150.28 387.75 L 150.61 387.75 L 151.11 387.73 L 151.36 386.28 L 151.86 386.15 L 151.95 386.11 L 152.02 386.07 L 152.60 385.42 L 153.71 384.91 L 154.05 384.82 L 154.14 384.82 L 154.81 384.78 L 155.57 384.78 L 155.58 384.78 L 155.59 384.78 L 165.94 384.78 L 166.01 384.78 L 166.14 384.76 L 166.20 384.76 L 166.59 384.61 L 166.77 384.57 L 167.21 384.33 L 167.27 384.23 L 167.40 384.01 L 167.53 383.98 L 167.57 383.98 L 167.68 383.94 L 167.79 383.94 L 167.90 383.94 L 168.19 383.70 L 168.44 383.48 L 168.49 383.48 L 168.61 383.35 L 169.44 383.05 L 169.45 383.05 L 169.56 382.96 L 170.03 382.64 L 170.40 382.24 L 170.83 382.08 L 170.92 382.08 L 170.93 382.09 L 171.01 381.86 L 171.17 381.86 L 171.38 381.84 L 171.78 381.67 L 171.81 381.39 L 171.88 381.39 L 171.98 381.25 L 172.21 381.25 L 172.24 381.25 L 172.48 380.82 L 172.58 380.80 L 172.66 380.76 L 172.76 380.56 L 174.02 380.45 L 174.32 380.40 L 175.02 380.11 L 175.17 380.11 L 175.28 380.09 L 175.34 379.87 L 175.83 378.69 L 176.04 378.67 L 176.29 378.31 L 176.41 378.28 L 176.71 378.12 L 176.83 378.06 L 177.01 377.81 L 177.16 377.60 L 177.72 377.60 L 177.74 377.57 L 177.77 377.40 L 177.96 376.26 L 187.56 376.14 L 188.55 375.79 L 188.58 375.75 L 189.76 375.46 L 189.86 375.45 L 189.96 375.24 L 190.25 375.10 L 190.38 374.84 L 190.43 374.62 L 190.58 374.20 L 190.92 374.19 L 190.93 374.19 L 191.07 373.89 L 191.20 373.89 L 191.34 373.57 L 191.53 373.33 L 191.61 373.19 L 191.63 373.19 L 191.80 372.90 L 191.82 372.89 L 192.00 372.63 L 192.03 372.62 L 192.31 372.53 L 192.36 372.53 L 192.45 372.43 L 192.57 372.42 L 192.73 372.42 L 192.80 372.40 L 193.33 372.14 L 193.35 372.15 L 193.45 371.63 L 193.69 371.61 L 193.90 371.45 L 193.97 371.45 L 194.07 371.45 L 194.12 371.41 L 194.25 370.70 L 194.85 370.10 L 194.91 369.77 L 195.12 369.75 L 195.18 369.67 L 195.23 369.65 L 195.33 369.50 L 195.42 368.94 L 195.63 368.85 L 195.78 368.84 L 195.90 368.56 L 195.97 368.55 L 196.51 368.34 L 196.81 368.19 L 196.90 368.06 L 197.15 368.05 L 197.17 368.05 L 197.20 368.02 L 197.36 367.01 L 197.48 367.00 L 197.93 366.85 L 198.00 366.45 L 198.09 366.44 L 198.20 366.28 L 198.22 366.18 L 198.27 366.11 L 198.31 366.07 L 198.38 366.07 L 198.43 365.99 L 198.61 364.85 L 198.74 364.73 L 198.87 364.39 L 199.04 364.37 L 199.23 364.25 L 199.42 363.90 L 199.56 362.91 L 199.84 362.83 L 199.85 362.41 L 200.01 362.31 L 213.41 362.31 L 213.67 362.31 L 214.30 361.84 L 214.43 361.84 L 214.54 361.84 L 214.56 361.72 L 214.79 361.52 L 214.95 361.48 L 215.04 361.36 L 215.13 361.28 L 215.19 361.24 L 215.43 361.17 L 215.91 361.27 L 216.03 360.95 L 216.12 360.87 L 216.24 360.86 L 216.86 360.80 L 216.95 360.74 L 216.99 360.74 L 217.03 360.68 L 217.16 360.63 L 217.27 360.52 L 217.72 360.22 L 218.37 360.10 L 218.60 360.04 L 219.32 359.85 L 219.66 359.39 L 219.78 359.32 L 219.93 358.95 L 220.14 358.49 L 220.46 358.37 L 220.92 358.35 L 221.52 358.33 L 221.62 358.17 L 222.06 358.05 L 222.34 357.90 L 222.44 357.78 L 222.61 357.74 L 222.74 357.43 L 224.33 357.28 L 225.84 357.28 L 239.33 357.24 L 239.42 357.07 L 239.49 356.96 L 239.92 356.79 L 241.18 356.48 L 241.23 356.44 L 241.41 356.22 L 242.03 356.13 L 242.32 355.53 L 242.76 355.52 L 242.87 355.50 L 242.97 354.91 L 243.75 354.35 L 243.84 354.35 L 244.01 354.32 L 244.18 354.27 L 244.26 354.06 L 244.70 353.14 L 244.86 352.91 L 244.93 352.89 L 245.03 352.79 L 245.22 352.44 L 245.30 351.51 L 245.50 351.14 L 246.08 350.92 L 246.14 350.46 L 246.19 350.46 L 246.28 350.38 L 246.43 350.25 L 246.49 350.22 L 246.54 350.17 L 246.82 349.10 L 246.89 348.47 L 247.23 348.35 L 247.44 347.28 L 247.56 347.07 L 248.61 345.39 L 248.73 345.36 L 288.38 344.87 L 288.42 344.87 L 303.57 344.73 L 304.40 344.55 L 304.56 344.55 L 304.79 344.47 L 304.86 344.33 L 304.95 344.30 L 311.52 344.28 L 312.39 342.35 L 312.71 342.19 L 312.88 341.52 L 316.97 341.44 L 317.00 341.37 L 317.26 341.36 L 318.48 341.24 L 318.55 341.02 L 318.70 340.94 L 319.13 340.84 L 319.19 340.81 L 319.36 340.44 L 319.55 340.33 L 319.58 340.04 L 332.31 339.68 L 332.41 338.80 L 332.91 338.57 L 332.92 338.23 L 333.01 337.97 L 333.12 337.57 L 333.26 336.50 L 333.47 335.92 L 333.65 335.17 L 333.82 335.16 L 333.88 334.58 L 334.14 334.54 L 335.02 333.99 L 335.38 333.74 L 335.44 333.58 L 335.51 333.58 L 335.56 333.38 L 335.68 332.73 L 336.04 332.66 L 336.09 332.66 L 336.31 332.23 L 336.40 332.23 L 336.43 331.98 L 336.51 331.83 L 336.57 331.82 L 336.61 331.48 L 336.89 331.27 L 337.01 330.93 L 337.17 330.92 L 337.28 330.74 L 337.32 330.47 L 337.60 330.33 L 337.68 330.18 L 337.73 330.18 L 337.80 330.18 L 337.85 329.91 L 337.89 329.92 L 337.90 329.92 L 338.04 329.83 L 338.09 329.53 L 338.23 329.53 L 338.33 329.46 L 338.62 329.43 L 338.97 329.40 L 338.98 329.40 L 339.07 329.38 L 339.40 329.38 L 339.56 329.38 L 339.71 329.38 L 339.88 329.33 L 339.98 328.98 L 340.44 328.98 L 340.48 328.77 L 340.53 328.77 L 340.57 328.53 L 340.86 328.45 L 340.91 328.39 L 341.13 328.39 L 360.72 328.33 L 361.84 328.23 L 361.87 328.23 L 362.09 328.23 L 362.11 328.23 L 362.25 327.81 L 362.36 327.80 L 362.46 327.68 L 362.59 327.62 L 362.63 327.58 L 362.68 327.56 L 362.89 327.52 L 363.32 327.44 L 363.59 326.88 L 363.89 326.85 L 363.90 326.81 L 363.95 326.35 L 363.99 326.34 L 364.57 326.34 L 364.58 326.30 L 364.67 325.86 L 364.93 325.81 L 365.08 325.79 L 365.12 325.78 L 365.13 325.74 L 365.20 325.70 L 365.24 325.26 L 365.27 325.25 L 365.41 325.25 L 365.42 325.21 L 365.73 325.17 L 366.57 325.15 L 366.76 325.12 L 366.83 325.10 L 366.87 324.96 L 366.92 324.96 L 367.03 324.47 L 380.43 324.31 L 380.45 324.17 L 380.56 324.07 L 380.59 324.05 L 380.67 323.63 L 380.82 323.52 L 380.83 323.50 L 381.08 323.50 L 381.14 323.50 L 381.18 323.07 L 381.40 323.02 L 381.98 323.01 L 381.99 322.98 L 382.14 322.75 L 382.19 322.76 L 382.22 322.37 L 382.71 322.37 L 382.72 322.35 L 383.46 322.25 L 383.54 321.79 L 383.80 321.79 L 384.11 321.78 L 384.19 321.44 L 384.24 321.17 L 384.37 321.16 L 384.75 321.10 L 384.82 321.08 L 384.99 320.98 L 385.17 320.98 L 385.73 320.98 L 385.80 320.98 L 385.93 320.95 L 385.94 320.95 L 386.12 320.95 L 386.54 320.92 L 386.98 320.87 L 387.05 320.87 L 387.15 320.82 L 387.27 320.70 L 387.61 320.70 L 388.17 320.54 L 388.36 320.28 L 388.67 320.25 L 389.90 319.97 L 390.16 319.97 L 390.36 319.96 L 390.67 319.96 L 390.77 319.94 L 391.08 319.79 L 391.56 319.77 L 391.62 319.65 L 391.72 319.58 L 391.77 319.60 L 391.82 319.55 L 392.20 319.53 L 401.08 319.52 L 401.16 319.52 L 401.71 319.52 L 401.77 319.51 L 401.89 319.12 L 401.99 319.10 L 402.01 319.10 L 402.31 319.09 L 402.38 319.07 L 404.20 318.50 L 404.42 318.44 L 404.57 318.42 L 404.61 318.42 L 405.17 318.41 L 405.36 318.49 L 405.40 318.48 L 405.70 318.45 L 406.03 317.90 L 406.07 317.89 L 406.35 317.88 L 406.46 317.88 L 406.57 317.88 L 406.80 317.76 L 407.29 317.27 L 407.39 317.27 L 407.47 317.20 L 407.68 316.75 L 408.17 316.25 L 408.60 316.28 L 408.69 316.02 L 409.13 316.02 L 409.21 315.99 L 409.28 315.96 L 409.33 315.70 L 409.48 315.69 L 409.52 315.69 L 409.59 315.69 L 409.84 315.69 L 410.23 315.48 L 410.47 315.46 L 410.74 315.46 L 410.87 315.46 L 411.14 315.46 L 411.59 315.46 L 412.03 315.46 L 412.37 315.45 L 412.45 315.45 L 412.54 315.44 L 412.54 315.35 L 412.80 315.28 L 412.88 315.28 L 412.98 315.27 L 413.71 315.26 L 413.72 315.01 L 413.92 315.01 L 414.77 315.01 L 415.34 315.01 L 415.75 314.95 L 415.76 314.85 L 415.80 314.85 L 428.23 314.68 L 428.27 314.67 L 428.41 314.66 L 428.48 314.50 L 428.52 314.50 L 428.53 314.49 L 429.06 314.44 L 429.18 313.92 L 429.34 313.81 L 429.60 312.78 L 429.77 312.77 L 429.99 312.33 L 430.11 312.38 L 430.16 312.37 L 430.23 311.81 L 430.38 311.72 L 430.40 311.33 L 430.46 311.27 L 430.59 311.24 L 430.68 311.04 L 430.79 313.35 L 430.94 313.31 L 431.25 312.38 L 431.38 312.18 L 431.50 311.97 L 432.26 311.61 L 432.92 311.22 L 433.70 310.68 L 433.90 310.62 L 434.12 310.62 L 434.37 310.57 L 438.94 310.30 L 439.32 310.27 L 482.63 309.55 L 619.02 309.52 L 619.47 309.20 L 619.78 309.15 L 620.09 309.15 L 620.57 308.85 L 620.73 308.51 L 620.85 307.88 L 621.07 307.71 L 621.39 307.77 L 621.64 307.40 L 621.70 307.39 L 621.91 307.28 L 621.95 307.28 L 622.18 306.66 L 622.38 305.72 L 623.00 305.63 L 623.02 305.53 L 623.20 304.31 L 623.78 304.26 L 623.80 304.14 L 623.91 304.07 L 624.05 302.96 L 624.69 302.91 L 624.70 302.75 L 624.84 302.67 L 624.99 301.95 L 625.22 301.92 L 625.24 301.81 L 625.34 300.60 L 625.36 300.57 L 625.42 300.53 L 625.69 300.53 L 625.72 300.40 L 625.81 300.32 L 626.10 300.20 L 626.16 300.20 L 626.39 300.14 L 626.77 300.18 L 626.82 300.12 L 626.87 300.10 L 626.94 300.06 L 627.13 298.81 L 627.33 298.78 L 627.36 298.67 L 627.47 297.39 L 627.59 296.93 L 627.62 296.76 L 627.74 296.13 L 627.79 295.04 L 628.03 295.03 L 628.06 294.97 L 628.18 294.75 L 628.34 294.74 L 629.32 294.70 L 629.81 294.68 L 640.46 294.73 L 640.57 294.48 L 640.68 294.30 L 640.86 293.43 L 641.26 293.42 L 641.29 293.33 L 641.36 292.23 L 641.62 292.23 L 641.65 292.12 L 643.97 292.01 L 644.11 291.61 L 645.29 291.42 L 645.42 291.38 L 645.55 290.16 L 646.96 289.82 L 647.57 289.53 L 647.72 288.61 L 648.22 288.61 L 648.54 288.10 L 649.06 287.31 L 650.00 286.84"/>
	</g>
	<g class="poloto_legend poloto_imgs poloto_line poloto0 poloto_stroke"><line x1="680" x2="730" y1="81.25" y2="81.25"/></g>
	<g class="poloto_legend poloto_imgs poloto_line poloto1 poloto_stroke"><line x1="680" x2="730" y1="131.25" y2="131.25"/></g>
	<g class="poloto_legend poloto_imgs poloto_line poloto2 poloto_stroke"><line x1="680" x2="730" y1="181.25" y2="181.25"/></g>
	<text class="poloto_legend poloto_text poloto_line poloto0" x="675" y="100">total</text>
	<text class="poloto_legend poloto_text poloto_line poloto1" x="675" y="150">code</text>
	<text class="poloto_legend poloto_text poloto_line poloto2" x="675" y="200">docs</text>
	<text class="poloto_text poloto_name poloto_title" x="400.00" y="37.50">Workspace lines over time</text>
	<text class="poloto_text poloto_name poloto_x" x="400.00" y="640">date (JST)</text>
	<text class="poloto_text poloto_name poloto_y" x="37.50" y="250.00" transform="rotate(-90,37.50,250.00)">lines</text>
	<text class="poloto_text poloto_ticks poloto_y">
		<tspan x="135.00" y="400.00">0</tspan>
		<tspan x="135.00" y="309.86">50K</tspan>
		<tspan x="135.00" y="219.72">100K</tspan>
		<tspan x="135.00" y="129.59">150K</tspan>
	</text>
	<g class="poloto_imgs poloto_ticks poloto_y" stroke="black">
		<line x1="150.00" x2="144.00" y1="400.00" y2="400.00"/>
		<line x1="150.00" x2="144.00" y1="309.86" y2="309.86"/>
		<line x1="150.00" x2="144.00" y1="219.72" y2="219.72"/>
		<line x1="150.00" x2="144.00" y1="129.59" y2="129.59"/>
	</g>
	<g class="poloto_text poloto_ticks poloto_x">
		<text x="184.26" y="430.00" text-anchor="end" transform="rotate(-90 184.26 430.00)">2026-04-22 04:33</text>
		<text x="239.16" y="430.00" text-anchor="end" transform="rotate(-90 239.16 430.00)">2026-04-24 12:06</text>
		<text x="294.05" y="430.00" text-anchor="end" transform="rotate(-90 294.05 430.00)">2026-04-26 19:40</text>
		<text x="348.95" y="430.00" text-anchor="end" transform="rotate(-90 348.95 430.00)">2026-04-29 03:13</text>
		<text x="403.85" y="430.00" text-anchor="end" transform="rotate(-90 403.85 430.00)">2026-05-01 10:46</text>
		<text x="458.74" y="430.00" text-anchor="end" transform="rotate(-90 458.74 430.00)">2026-05-03 18:20</text>
		<text x="513.64" y="430.00" text-anchor="end" transform="rotate(-90 513.64 430.00)">2026-05-06 01:53</text>
		<text x="568.53" y="430.00" text-anchor="end" transform="rotate(-90 568.53 430.00)">2026-05-08 09:26</text>
		<text x="623.43" y="430.00" text-anchor="end" transform="rotate(-90 623.43 430.00)">2026-05-10 17:00</text>
	</g>
	<g class="poloto_imgs poloto_ticks poloto_x" stroke="black">
		<line x1="184.26" x2="184.26" y1="400.00" y2="405.00"/>
		<line x1="239.16" x2="239.16" y1="400.00" y2="405.00"/>
		<line x1="294.05" x2="294.05" y1="400.00" y2="405.00"/>
		<line x1="348.95" x2="348.95" y1="400.00" y2="405.00"/>
		<line x1="403.85" x2="403.85" y1="400.00" y2="405.00"/>
		<line x1="458.74" x2="458.74" y1="400.00" y2="405.00"/>
		<line x1="513.64" x2="513.64" y1="400.00" y2="405.00"/>
		<line x1="568.53" x2="568.53" y1="400.00" y2="405.00"/>
		<line x1="623.43" x2="623.43" y1="400.00" y2="405.00"/>
	</g>
	<path class="poloto_imgs poloto_ticks poloto_x" stroke="black" style="stroke-dasharray:6.861997543953839;stroke-dashoffset:-34.26140477712033;" d=" M 150.00 400.00 L 650.00 400.00"/>
	<path class="poloto_imgs poloto_ticks poloto_y" stroke="black" style="stroke-dasharray:9.013827210941583;stroke-dashoffset:-0;" d=" M 150.00 400.00 L 150.00 100.00"/>
</svg>

